<svg xmlns="http://www.w3.org/2000/svg" width="1024" height="1024"><defs><linearGradient id="a" x1="243.037" x2="728.424" y1="304.194" y2="328.589" gradientUnits="userSpaceOnUse"><stop offset="26.543%" style="stop-color:#bfd9e3"/><stop offset="100%" style="stop-color:#7b9cab"/></linearGradient></defs><defs><linearGradient id="b" x1="660.607" x2="832.869" y1="304.495" y2="349.325" gradientUnits="userSpaceOnUse"><stop offset="0%" style="stop-color:#638c9c"/><stop offset="100%" style="stop-color:#4a6e7c"/></linearGradient></defs><defs><linearGradient id="c" x1="656.333" x2="251.441" y1="397.113" y2="406.453" gradientUnits="userSpaceOnUse"><stop offset="0%" style="stop-color:#a0c3cf"/><stop offset="40%" style="stop-color:#c2e3eb"/><stop offset="100%" style="stop-color:#a1bbc9"/></linearGradient></defs><defs><linearGradient id="d" x1="512.695" x2="511.34" y1="392.322" y2="523.315" gradientUnits="userSpaceOnUse"><stop offset="0%" style="stop-color:#18091e"/><stop offset="100%" style="stop-color:#1d698b"/></linearGradient></defs><defs><linearGradient id="e" x1="812.333" x2="414.361" y1="615.632" y2="620.336" gradientUnits="userSpaceOnUse"><stop offset="0%" style="stop-color:#294753"/><stop offset="100%" style="stop-color:#90bfcd"/></linearGradient></defs><defs><linearGradient id="f" x1="253.258" x2="752.4" y1="600.654" y2="643.761" gradientUnits="userSpaceOnUse"><stop offset="0%" style="stop-color:#b4ccd6"/><stop offset="19.96%" style="stop-color:#e1f4f7"/><stop offset="29.94%" style="stop-color:#bbd9e3"/><stop offset="64.471%" style="stop-color:#a7c4d1"/><stop offset="77.046%" style="stop-color:#99b7c5"/><stop offset="82.236%" style="stop-color:#93b2c1"/><stop offset="100%" style="stop-color:#70909f"/></linearGradient></defs><path fill="#32697c" d="M749 265c.055 4.271 4.543 2.344 1 7-41.19-46.003-97.41-78.992-157-95-190.525-51.182-394.413 87.737-401 287-1.904 4.765-4.254 22.834-3 28.5 1.77 7.995 2.665.199 6-.5-10.672 37.465 16.172-9.774 24-14.5L202.5 502c10.371-12.787 19.687-26.588 30.5-39 23.494-26.968 51.37-52.922 81-73-2.882 4.481-3.113 13.22-8 19-4.644 5.492-19.933 14.739-26.5 21-28.969 27.619-55.974 57.456-76.5 92-1.801-.855-8.924-4.592-8-1-1.119 4.96 4.191 13.673 5 17 .749 3.078.576 8.089 2 13 19.848 68.435 58.448 141.429 104 196 6.561 7.861 11.997 13.648 19 21 5.666 5.948 40.195 40.852 45 41.5 2.023.273-.185-3.174 3-2.5 1.014 3.902.312 4.036 3 6 1.14.833-.071 1.122 2 0 2.169 5.279 3.769 3.642 7 6 41.694 30.435 109.59 42.05 160 35l2 5c-198.426 29.962-370.303-231.352-361-406 2.574-48.317 21.232-93.728 46-134.5-.156-.96-15.217-7.548-17.5-8.5-1.549-.646-4.784-2.485-4.5 1-5.398-4.51-14.571-9.006-21-14-31.127-24.177-59.987-45.851-82-79.5-2.489-3.805-7.26-10.845-7-15.5 28.536 52.119 79.832 89.654 134.5 111C347.235 131.555 603.947 106.535 749 265"/><path fill="url(#a)" d="m593 177 68.5 51c21.095 19.741 43.975 39.542 60.5 63.5 5.076 7.359 25.171 40.84 22 48-3.843 8.68-40.57-14.014-47-15.5-148.335-90.038-344.559-61.038-457 71.5-10.42 12.282-42.744 55.346-48 68.5 6.587-199.263 210.475-338.182 401-287m-118.5 6c-59.081 2.544-130.512 32.436-175 71-47.686 41.336-73.264 97.602-86.5 158.5 6.376-13.309 10.651-27.652 17-41 41.925-88.133 112.616-151.563 207.5-177.5 16.029-4.382 33.945-6.072 49-11-3.99.123-8.014-.172-12 0" style="fill:url(#a)"/>/&gt;<path fill="url(#b)" d="M750 272c23.104 25.804 42.117 58.749 56 90.5 12.904 29.512 24.672 63.031 24 95.5-5.154-9.797-25.01-32.02-33-42-29.867-37.305-58.536-66.832-100-92 6.43 1.486 43.157 24.18 47 15.5 3.171-7.16-16.924-40.641-22-48-16.525-23.958-39.405-43.759-60.5-63.5L593 177c59.59 16.008 115.81 48.997 157 95" style="fill:url(#b)"/>/&gt;<path fill="#fdfdfe" d="M474.5 183c3.986-.172 8.01.123 12 0-15.055 4.928-32.971 6.618-49 11-94.884 25.937-165.575 89.367-207.5 177.5-6.349 13.348-10.624 27.691-17 41 13.236-60.898 38.814-117.164 86.5-158.5 44.488-38.564 115.919-68.456 175-71"/><path fill="#13d0f2" d="M100 202c-.26 4.655 4.511 11.695 7 15.5 22.013 33.649 50.873 55.323 82 79.5-1.176 1.64 1.058 4.295 2 6l-49.5-40c-14.512-3.427 7.729 29.708 10.5 33-.791.152-1.935 3.495-2 4-.53 4.116.509 3.434 3 7-3.93-.696-4.271 2.386-6 5-8.975-13.859-18.444-27.782-26-42.5-6.338-12.346-11.01-25.522-17-38 3.52 21.166 11.944 44.502 21 64 2.989 6.435 13.806 21.219 15 26 .634 2.54.487.958-2 2.5-3.706-4.702-6.811-9.989-10-15-3.298-5.181-6.576-8.898-8.5-15l-.5 2.5c-.049 9.415 20.438 52.424 20 57-.088.922-3.236 3.586-4 1-19.378-49.64-29.102-97.814-38-150-.203-1.191-.95-6.175-3-5.5-.381-3.303-1.644-9.104-.5-12 1.518 5.27 3.887 10.228 6.5 15"/><path fill="#136381" d="M928 194c-22.054 45.579-58.142 74.72-97 105-3.944 3.074-9.201 5.078-13 8l-28.5 11c-4.358-.339-2.325-4.731-2.5-5 59.309-22.568 115.534-66.325 141-125.5 2.529 1.065.155 4.755 0 6.5"/><path fill="#10cef0" d="M928 198c-1.888-.744-2.817 3.517-3 4.5-5.365 28.884-6.885 46.28-15 75.5-.943 3.394-3.04 6.608-4 10-3.444 12.168-20.266 82.384-27.5 87-.2.128-4.493-.866-4.5-1.5l26-70-2-1c-2.535 7.943-6.184 15.14-10 22.5-3.744-4.841-8.842 4.884-12 8-2.986-.765-.898-3.111 0-4.5 19.276-29.815 37.107-62.684 41.5-98.5-12.027 36.861-33.072 66.615-54.5 98l-6-7c4.981-5.787 10.987-13.21 14.5-20-7.087 6.426-13.139 13.853-20.5 20 .783-4.409 7.174-5.33 2-10 9.407-5.939 35.403-35.547 32-46.5-.185-.597-1.999-1.715-2.5-2.5-12.515 15.085-35.997 24.597-48.5 38l-3-1c38.858-30.28 74.946-59.421 97-105-.116 1.307.145 2.7 0 4"/><path fill="#18526e" d="M928 198c-9.45 84.905-33.201 169.758-80 241.5-5.215 7.994-10.95 9.768-13 19.5-1.248 5.927-.74 11.112-1.5 17-.642-7.277-.022-11.39-3.5-18 .672-32.469-11.096-65.988-24-95.5-13.883-31.751-32.896-64.696-56-90.5 3.543-4.656-.945-2.729-1-7 13.824 15.102 26.811 30.759 38 48 .175.269-1.858 4.661 2.5 5l28.5-11c-8.364 6.434-19.806 12.325-14 25.5 8.521 19.336 38.237-4.183 47-11.5 7.361-6.147 13.413-13.574 20.5-20-3.513 6.79-9.519 14.213-14.5 20-7.059 8.201-32.814 30.011-35 37.5-1.452 4.975-1.031 26.49 4.5 28.5 21.159 7.69 53.586-46.735 61.5-62 3.816-7.36 7.465-14.557 10-22.5l2 1-26 70c.007.634 4.3 1.628 4.5 1.5 7.234-4.616 24.056-74.832 27.5-87 4.402 2.363 8.236-10.038 4-10 8.115-29.22 9.635-46.616 15-75.5.183-.983 1.112-5.244 3-4.5"/><path fill="#155371" d="M128 309c1.055 13.033 11.698 26.997 19 38 11.368 17.13 24.989 38.61 47.5 41 7.768-9.04 8.578-24.227 2.5-34.5-2.121-3.585-7.27-6.378-10-9.5-10.024-11.464-25.574-24.939-34-37-2.491-3.566-3.53-2.884-3-7 13.361 13.921 39.935 45.599 61.5 38 14.774-5.206 6.985-19.911-1.5-27-.284-3.485 2.951-1.646 4.5-1 2.283.952 17.344 7.54 17.5 8.5-24.768 40.772-43.426 86.183-46 134.5-56.033-70.866-81.732-165.09-92-254 2.05-.675 2.797 4.309 3 5.5 8.898 52.186 18.622 100.36 38 150 .764 2.586 3.912-.078 4-1 .438-4.576-20.049-47.585-20-57l.5-2.5c1.924 6.102 5.202 9.819 8.5 15"/><path fill="#a3deec" d="M876 333c-10.172 10.036-20.124 21.154-33.5 27 5.849-11.182 13.398-21.598 20.5-32 21.428-31.385 42.473-61.139 54.5-98-4.393 35.816-22.224 68.685-41.5 98.5-.898 1.389-2.986 3.735 0 4.5"/><path fill="#a3dbeb" d="M147 312c8.23 12.709 19.354 25.066 27 38 1.592 2.694 4.496 6.886 4.5 10-1.701.768-19.396-14.381-22.5-16-6.032-6.668-12.414-12.914-18-20 2.487-1.542 2.634.04 2-2.5-1.194-4.781-12.011-19.565-15-26-9.056-19.498-17.48-42.834-21-64 5.99 12.478 10.662 25.654 17 38 7.556 14.718 17.025 28.641 26 42.5"/><path fill="#aadeea" d="M853 311c-4.62 2.917-26.958 13.397-29 5.5 1.583-5.66 5.933-12.14 10-16.5 12.503-13.403 35.985-22.915 48.5-38 .501.785 2.315 1.903 2.5 2.5 3.403 10.953-22.593 40.561-32 46.5"/><path fill="#b3e4ef" d="M191 303c5.102 9.23 13.338 18.419-5.5 16-9.55-1.226-27.315-15.652-33.5-23-2.771-3.292-25.012-36.427-10.5-33z"/><path fill="#255465" d="M697 324c41.464 25.168 70.133 54.695 100 92-1.121-.157-.828.659-1 1-11.774-13.242-22.754-27.573-35.5-40-13.142-12.813-27.617-24.276-42.5-35-19.1-13.763-37.546-25.086-59-35-17.058-7.883-34.879-14.92-53-20-54.866-15.38-113.156-17.657-169-6-79.775 16.652-161.727 68.857-210 134.5-14.013 19.056-23.601 38.694-33 60 5.484 8.564 4.711-5.983 6-8 .508-.795 5.008-2.472 6-4 59.817-92.143 104-129.434 208-167.5 64.215-17.268 129.08-17.05 193 1 17.975 5.076 33.165 11.127 50 19 19.759 9.241 39.258 20.269 57 33 8.431 6.05 18.685 14.153 26.5 21 10.652 9.333 37.638 42.509 45.5 47-.392 3.456 9.023 9.353 4 12-14.357-19.569-30.102-35.759-48-52-5.931-5.382-10.601-9.894-17-15-29.39-23.454-62.009-42.811-97.5-56-7.943-2.952-18.058-6.338-26.5-7-11.014-5.406-33.006-9.368-45.5-11-109.167-14.258-223.871 26.654-296.5 109-20.675 19.312-56.331 68.078-64 95-3.335.699-4.23 8.495-6 .5-1.254-5.666 1.096-23.735 3-28.5 5.256-13.154 37.58-56.218 48-68.5C352.441 262.962 548.665 233.962 697 324"/><path fill="#6bb9cc" d="M606 287c-3.06 5.112-2.772 6.054 1 10-63.92-18.05-128.785-18.268-193-1 8.955-3.278 26.528-4.021 23-15 55.844-11.657 114.134-9.38 169 6"/><path fill="#058cbe" d="M906 288c.96-3.392 3.057-6.606 4-10 4.236-.038.402 12.363-4 10"/><path fill="#669fb1" d="M414 296c-104 38.066-148.183 75.357-208 167.5-.992 1.528-5.492 3.205-6 4-1.289 2.017-.516 16.564-6 8 9.399-21.306 18.987-40.944 33-60 48.273-65.643 130.225-117.848 210-134.5 3.528 10.979-14.045 11.722-23 15"/><path fill="#fbfdfd" d="M601 299c1.018.5 7.556 4.413 7.5 6-110.486-34.189-221.645-7.17-312 61-11.027 8.32-27.53 21.687-37.5 31 72.629-82.346 187.333-123.258 296.5-109 12.494 1.632 34.486 5.594 45.5 11"/><path fill="#669fb1" d="M659 307c-2.491 3.286-3.748 4.938-2 9-16.835-7.873-32.025-13.924-50-19-3.772-3.946-4.06-4.888-1-10 18.121 5.08 35.942 12.117 53 20"/><path fill="url(#c)" d="M601 299c8.442.662 18.557 4.048 26.5 7 35.491 13.189 68.11 32.546 97.5 56l-77.5-43c-2.523.377-18.41-9.163-18.5-4.5 37.536 21.503 74.252 44.771 104 76.5 6.531 6.966 20.434 16.494 4 18.5 36.092 26.121 62.535 62.613 88 98.5-.089-.013.385 2.795-1 1.5-32.783-47.254-73.184-90.969-121-123.5-11.365-7.732-22.949-14.403-35-21-14.985-8.203-25.956-13.776-42-20-8.667-3.362-16.179-5.356-25-8-53.298-15.979-157.688-25.041-206 8-7.597 1.298-16.043 4.788-23 8-1.134-3.129-2.567-1.518-4.5-1-12.031 3.223-59.064 35.724-71 45-23.389 18.176-46.69 41.724-63.5 66-10.813 12.412-20.129 26.213-30.5 39l16.5-24.5c-7.828 4.726-34.672 51.965-24 14.5 7.669-26.922 43.325-75.688 64-95 9.97-9.313 26.473-22.68 37.5-31 90.355-68.17 201.514-95.189 312-61 .056-1.587-6.482-5.5-7.5-6M228.5 465c-.574.479-5.064 4.496-3 5 .574-.479 5.064-4.496 3-5m-5 6c-.574.479-5.064 4.496-3 5 .574-.479 5.064-4.496 3-5" style="fill:url(#c)"/>/&gt;<path fill="#29a1c4" d="M191 303c-.942-1.705-3.176-4.36-2-6 6.429 4.994 15.602 9.49 21 14 8.485 7.089 16.274 21.794 1.5 27-21.565 7.599-48.139-24.079-61.5-38 .065-.505 1.209-3.848 2-4 6.185 7.348 23.95 21.774 33.5 23 18.838 2.419 10.602-6.77 5.5-16"/><path fill="#2e8fae" d="M834 300c-4.067 4.36-8.417 10.84-10 16.5 2.042 7.897 24.38-2.583 29-5.5 5.174 4.67-1.217 5.591-2 10-8.763 7.317-38.479 30.836-47 11.5-5.806-13.175 5.636-19.066 14-25.5 3.799-2.922 9.056-4.926 13-8z"/><path fill="#2aa9cc" d="M153 307c8.426 12.061 23.976 25.536 34 37-1.742.954-3.163 5.918-3.5 6-.567.139-3.243-6.842-9.5 0-7.646-12.934-18.77-25.291-27-38 1.729-2.614 2.07-5.696 6-5"/><path fill="#458091" d="m718 342-4 7c-17.742-12.731-37.241-23.759-57-33-1.748-4.062-.491-5.714 2-9 21.454 9.914 39.9 21.237 59 35"/><path fill="#2b9fc1" d="M138 324c5.586 7.086 11.968 13.332 18 20-5.166-2.695-5.31-3.494-9 3-7.302-11.003-17.945-24.967-19-38 3.189 5.011 6.294 10.298 10 15"/><path fill="#5c8493" d="M725 362c6.399 5.106 11.069 9.618 17 15l-9 14c-29.748-31.729-66.464-54.997-104-76.5.09-4.663 15.977 4.877 18.5 4.5z"/><path fill="#2e8fae" d="M863 328c-7.102 10.402-14.651 20.818-20.5 32 13.376-5.846 23.328-16.964 33.5-27 3.158-3.116 8.256-12.841 12-8-7.914 15.265-40.341 69.69-61.5 62-5.531-2.01-5.952-23.525-4.5-28.5 2.186-7.489 27.941-29.299 35-37.5z"/><path fill="#0b465c" d="m601 337 15 16c-76.744-28.584-148.996-26.659-224 6-.033-10.309-5.826-7.964 3-14 48.312-33.041 152.702-23.979 206-8"/><path fill="#0a6789" d="M616 353c1.654.616 3.077 2.08 5 2 .071.773.654 1.079 1 2 1.635 4.353 11.828 15.8 15 21.5 4.832 8.685 10.037 19.96 12 29.5-4.325-3.738-22.087-9.115-28-10-.935-1.303-1.998-2.749-3-4-39.346-49.117-117.793-65.269-173-34 11.069-17.817-29.267 10.085-34 10-14.099-2.188-23.811 23.256-16 34-2.766-1.499-3.271-2.974-3.5-3-2.465-.281-19.99 9.288-23.5 11-4.627 2.258-14.252 2.797-17 9l-6 1c2.317-11.125 11.863-40.346 19-48.5 5.26-6.01 20.418-11.199 28-14.5 75.004-32.659 147.256-34.584 224-6"/><path fill="#0e354a" d="M626 345c-3.21.649-5.266 7.119-5 10-1.923.08-3.346-1.384-5-2l-15-16c8.821 2.644 16.333 4.638 25 8"/><path fill="#3389a6" d="M156 344c3.104 1.619 20.799 16.768 22.5 16-.004-3.114-2.908-7.306-4.5-10 6.257-6.842 8.933.139 9.5 0 .337-.082 1.758-5.046 3.5-6 2.73 3.122 7.879 5.915 10 9.5 6.078 10.273 5.268 25.46-2.5 34.5-22.511-2.39-36.132-23.87-47.5-41 3.69-6.494 3.834-5.695 9-3"/><path fill="#326371" d="M796 417c-1.915 3.804-6.442 2.032-10 0-7.862-4.491-34.848-37.667-45.5-47-7.815-6.847-18.069-14.95-26.5-21l4-7c14.883 10.724 29.358 22.187 42.5 35 12.746 12.427 23.726 26.758 35.5 40"/><path fill="#0a334f" d="M618 394c-6.228 1.489-12.143-5.259-18-2-5.372-4.735-10.972-7.103-18-8.5 12.761 11.561 23.286 25.011 29 41.5l-6 6c-13.828-48.898-60.236-72.062-109-66 2.65-10.066-22.881-.969-26 3-2.899.12-6.014 2.412-9 3-11.701 2.302-22.895 5.767-34 10-.111-.3-3.628-4.691-4-5 4.223-4.997 19.119-11.363 22-16 55.207-31.269 133.654-15.117 173 34"/><path fill="#182339" d="M395 345c-8.826 6.036-3.033 3.691-3 14-7.582 3.301-22.74 8.49-28 14.5-7.137 8.154-16.683 37.375-19 48.5-3.534 16.97-4.384 30.743-3 48 3.79 47.275 25.885 87.208 63 116 14.62 11.342 25.589 18.16 43 25 53.305 20.94 112.049 15.304 159-18 .324-.202 1.686.201 2 0 3.675 6.217 12.748 9.602 7 16-3.224 2.17-6.646 4.045-10 6-23.12 13.476-52.065 24.03-79 26-65.337 4.78-131.049-24.647-169-78-25.376-35.674-37.341-83.415-33-127 1.726-17.336 7.562-38.254 15-54 2.111-4.469 7.482-9.649 6-14 8.482-5.165 16.963-10.827 26-15 6.957-3.212 15.403-6.702 23-8"/><path fill="#162035" d="M626 345c16.044 6.224 27.015 11.797 42 20 1.084 5.026 6.074 8.68 9 13l-13 9c-9.993-19.841-21.037-24.331-42-30-.346-.921-.929-1.227-1-2-.266-2.881 1.79-9.351 5-10"/><path fill="#e9f1f3" d="M372 353c-9.037 4.173-17.518 9.835-26 15-6.286 3.827-28.827 17.067-32 22-29.63 20.078-57.506 46.032-81 73 16.81-24.276 40.111-47.824 63.5-66 11.936-9.276 58.969-41.777 71-45 1.933-.518 3.366-2.129 4.5 1"/><path fill="#7c9eae" d="M445 360c-2.881 4.637-17.777 11.003-22 16-.564-.468-11.337-5.897-12-6 4.733.085 45.069-27.817 34-10"/><path fill="#174e6c" d="M664 387c3.238 6.428 6.972 17.001 9 24-6.352-5.871-6.826 2.95-4.5 5 1.148 1.011 2.691-3.72 4.5-.5l-3 3.5c-.939-1.685-15.786-8.68-19-9-.786-1.269-1.059-1.187-2-2-1.963-9.54-7.168-20.815-12-29.5-3.172-5.7-13.365-17.147-15-21.5 20.963 5.669 32.007 10.159 42 30"/><path fill="#073f72" d="M496 365c-5.08.632-13.435 1.548-17 5-1.553-.707-7.175-2.075-9-2 3.119-3.969 28.65-13.066 26-3"/><path fill="#1288b7" d="M605 431c7.388 26.123 4.89 51.143-8 75-7.068-3.57-7.736 6.964-10 9.5-12.757 14.294-25.759 23.632-44 29.5l-1-3c42.849-14.049 60.812-52.783 58.5-96l1.5 22.5c-.598 9.16-4.826 17.447-7 26-.194.763-2.09 6.533 1 3 6.52-16.588 9.306-34.683 7-52.5-7.393-57.129-69.499-90.901-123-74-1.207-.693-.936-.971-1-1 3.565-3.452 11.92-4.368 17-5 48.764-6.062 95.172 17.102 109 66"/><path fill="#234c5a" d="M703 386c10.52 18.598 14.415 34.747 16 56h-3c-.424-4.242-.944-9.346-2-13.5-.363-1.428-3.973-2.751-4-3-.074-.684 2.135-.332 2-1-.627-3.101-.519-8.481-1-11-.19-.993-.85-6.612-1-7-1.288-3.326-20.957-17.367-26-17.5-1.576-3.517-4.787-7.732-7-11-2.926-4.32-7.916-7.974-9-13 12.051 6.597 23.635 13.268 35 21"/><path fill="#034870" d="M603 445c-6.051-8.685-5.382-21.874-13-29.5 1.212 2.535 1.428 6.335 2 8.5-7.29-15.589-19.995-30.32-35-39-21.22-12.275-47.085-15.413-71-10-.586.133-1.427-.142-2 0-.605-1.487-2.709-3.259-4-4 53.501-16.901 115.607 16.871 123 74"/><path fill="#2e5c6d" d="M340 382c-3.081-.439-2.49 3.856-3.5 5-4.383 4.965-21.905 12.855-24.5 17.5-4.643 8.308-5.807 35.487-6 45.5-.059 3.041-.097 5.922 0 9h-4c-.057-1.653.009-3.344 0-5-.035-6.558.373-12.505 1-19 .838-8.684 3.757-17.289 3-26 4.887-5.78 5.118-14.519 8-19 3.173-4.933 25.714-18.173 32-22 1.482 4.351-3.889 9.531-6 14"/><path fill="#b1d2e0" d="M470 368c1.825-.075 7.447 1.293 9 2 .064.029-.207.307 1 1 1.291.741 3.395 2.513 4 4-8.05 1.992-15.3 7.261-22.5 11-1.785.927-.504-2.982-4-1-18.06 10.236-33.01 42.28-39.5 60.5-.504 1.415-1.085 4.035-3 3.5.689-18.282 2.108-29.011 12-45 8.014-12.955 21.917-24.084 34-33 2.986-.588 6.101-2.88 9-3"/><path fill="#dfe5eb" d="M411 370c.663.103 11.436 5.532 12 6 .372.309 3.889 4.7 4 5 3.339 9.031-1.198 18.414-7 25-5.528 2.756-8.473 7.111-16 5-3.029-.849-6.228-5.498-9-7-7.811-10.744 1.901-36.188 16-34"/><path fill="#1f5f81" d="M461 371c-12.083 8.916-25.986 20.045-34 33-1.615.968-5.735 1.369-7 2 5.802-6.586 10.339-15.969 7-25 11.105-4.233 22.299-7.698 34-10"/><path fill="#0181ac" d="m557 385-3.5 8c-8.799-6.18-15.135-9.252-25.5-10-9.92-.716-24.982-.985-34 2-.642-1.066-2.43-2.252-3-3-1.757-2.307-4.558-4.17-5-7 23.915-5.413 49.78-2.275 71 10"/><path fill="#b8e7f3" d="M486 375c.442 2.83 3.243 4.693 5 7l.5 3c-33.845 12.078-59.193 45.893-56.5 83-4.169-1.262-8.157-2.974-12-5-1.953-1.03-3.771-2.6-6-3-.105-.998-1.056-1.113-1-2-.079-3.34-1.111-6.041-1-9 1.915.535 2.496-2.085 3-3.5 6.49-18.22 21.44-50.264 39.5-60.5 3.496-1.982 2.215 1.927 4 1 7.2-3.739 14.45-9.008 22.5-11 .573-.142 1.414.133 2 0"/><path fill="#476a78" d="M790 429c10.933 14.902 41.095 60.066 39 77-.139 1.122.488 3.27-.5 4-1.69.27-2.076-1.801-3.5-2-25.465-35.887-51.908-72.379-88-98.5 16.434-2.006 2.531-11.534-4-18.5l9-14c17.898 16.241 33.643 32.431 48 52"/><path fill="#13081a" d="M684 389c5.333 11.904 9.32 31.985 11 45 8.969 69.477-21.092 136.016-79 175 5.748-6.398-3.325-9.783-7-16 16.747-10.728 36.61-34.058 47-51 7.579-12.358 14.04-24.969 18-39 8.71-30.864 7.901-61.273-1-92-2.028-6.999-5.762-17.572-9-24l13-9c2.213 3.268 5.424 7.483 7 11"/><path fill="#598a99" d="M340 382c-7.438 15.746-13.274 36.664-15 54l-19 14c.193-10.013 1.357-37.192 6-45.5 2.595-4.645 20.117-12.535 24.5-17.5 1.01-1.144.419-5.439 3.5-5"/><path fill="#e8ebef" d="M494 385c26.903 44.714-2.115 100.216-59 83-2.693-37.107 22.655-70.922 56.5-83l-.5-3c.57.748 2.358 1.934 3 3"/><path fill="#029dd1" d="M557 385c15.005 8.68 27.71 23.411 35 39 13.374 50.656 3.044 95.707-50 116-5.04-12.509 2.879-8.181 8-16 .975-.575 2.588-.746 3-2 6.495-.477 15.116-7.018 16-14 39.53-43.099 14.515-111.823-41-125 10.365.748 16.701 3.82 25.5 10z"/><path fill="url(#d)" d="M528 383c55.515 13.177 80.53 81.901 41 125 1.695-13.387-7.012-28.592-21.5-30-31.889-3.1-28.886 46.524 5.5 44-.412 1.254-2.025 1.425-3 2-45.832 27.03-111.025-1.231-115-56 56.885 17.216 85.903-38.286 59-83 9.018-2.985 24.08-2.716 34-2" style="fill:url(#d)"/>/&gt;<path fill="#0caad9" d="M600 392c26.75 23.58 31.363 74.082 20 106-8.214 23.071-28.627 46.215-50 58-10.623 5.857-23.997 10.909-36 13-3.392-1.575-1.151-7.67-3.5-9-1.045-.592-19.51 1.462-24 1-14.847-1.527-37.031-10.68-49.5-19-2.387-1.593-5.648-5.034-8-7l1-1c28.69 23.379 68.234 27.654 102 13 6.639-2.805 10.532.96 13.5 0 5.999-1.941 19.909-15.85 24.5-21 25.383-28.476 33.675-64.423 21-101-5.714-16.489-16.239-29.939-29-41.5 7.028 1.397 12.628 3.765 18 8.5"/><path fill="url(#e)" d="M825 508c1.424.199 1.81 2.27 3.5 2 .988-.73.361-2.878.5-4l2 1c-1.195 7.199 2.88 7.591-4 12-127.295 81.581-147.049 146.341-182 288-.687 2.785-1.671 5.609-2 8.5-1.596.934-3.44 1.533-5 2.5-55.803 34.587-137.16 36.714-199 20l-26-24.5c-8.154-10.22-14.421-21.259-21-32.5 18.366 2.984 39.05 13.344 57 7 22.718 48.475 98.931 49.59 123 1 16.573 1.432 61.454-15.096 70-28.5 9.119-14.302 21.282-65.267 30-86 22.996-54.687 55.24-109.038 105-143-12.254-29.756-31.995-57.171-57-77.5.003-4.068-.697-7.936-1-12-1.585-21.253-5.48-37.402-16-56 47.816 32.531 88.217 76.246 121 123.5 1.385 1.295.911-1.513 1-1.5" style="fill:url(#e)"/>/&gt;<path fill="#325b69" d="M716 442c.259 2.594-.089 5.377 0 8l-21-16c-1.68-13.015-5.667-33.096-11-45 5.043.133 24.712 14.174 26 17.5.15.388.81 6.007 1 7 .481 2.519.373 7.899 1 11 .135.668-2.074.316-2 1 .027.249 3.637 1.572 4 3 1.056 4.154 1.576 9.258 2 13.5"/><path fill="#0d3d6b" d="M618 394c1.002 1.251 2.065 2.697 3 4 23.21 32.336 26.949 70.275 12 107-.749-4.783-8.989-5.18-13-7 11.363-31.918 6.75-82.42-20-106 5.857-3.259 11.772 3.489 18 2"/><path fill="#11b3df" d="M649 408c.941.813 1.214.731 2 2 2.621 4.23 7.583 30.659 8 36.5 2.93 41.051-8.859 73.717-36 103.5-3.493-3.118-10.95-5.44-11-11 8.58-9.452 16.195-22.195 21-34 14.949-36.725 11.21-74.664-12-107 5.913.885 23.675 6.262 28 10"/><path fill="#2d80a2" d="M395 404c2.772 1.502 5.971 6.151 9 7-16.717 35.509-12.862 78.718 9 111l-9 3c-4.083-5.312-8.485-11.324-12-17-10.864-17.543-17.577-37.247-30-54-.258-.348-.75-1.681-1-2l7-40c3.51-1.712 21.035-11.281 23.5-11 .229.026.734 1.501 3.5 3"/><path fill="#44b4d4" d="M427 404c-9.892 15.989-11.311 26.718-12 45-.111 2.959.921 5.66 1 9 .815 34.598 5.301 53.847 33 77 2.352 1.966 5.613 5.407 8 7l-7 13c-15.01-8.38-27.302-18.68-37-33-21.862-32.282-25.717-75.491-9-111 7.527 2.111 10.472-2.244 16-5 1.265-.631 5.385-1.032 7-2"/><path fill="#5e7f8d" d="M303 435c-33.162 26.211-63.323 59.807-82 98-4.279-2.788-13.891-9.05-18-11 20.526-34.544 47.531-64.381 76.5-92 6.567-6.261 21.856-15.508 26.5-21 .757 8.711-2.162 17.316-3 26"/><path fill="#01618e" d="M673 411c8.901 30.727 9.71 61.136 1 92l-7 10.5c6.242-23.533 9.807-48.048 7-72.5-.298-2.593-3.456-21.023-4-22l3-3.5c-1.809-3.22-3.352 1.511-4.5.5-2.326-2.05-1.852-10.871 4.5-5"/><path fill="#1384b5" d="M670 419c.544.977 3.702 19.407 4 22 2.098 60.506-28.212 116.489-79.5 148l-5.5-11c14.144-7.655 23.337-16.299 34-28 27.141-29.783 38.93-62.449 36-103.5-.417-5.841-5.379-32.27-8-36.5 3.214.32 18.061 7.315 19 9"/><path fill="#365d81" d="m368 412-7 40c-3.539-4.516-7.881-9.194-13-12 .443-4.116 1.624-15.895 3-19 2.748-6.203 12.373-6.742 17-9"/><path fill="#036eab" d="M603 445c2.306 17.817-.48 35.912-7 52.5-3.09 3.533-1.194-2.237-1-3 2.174-8.553 6.402-16.84 7-26l-1.5-22.5c2.312 43.217-15.651 81.951-58.5 96-5.545 1.818-12.26 4.779-18 3.5 5.524-3.077 12.175-3.272 18-5.5 53.044-20.293 63.374-65.344 50-116-.572-2.165-.788-5.965-2-8.5 7.618 7.626 6.949 20.815 13 29.5"/><path fill="#183c49" d="M830 458c3.478 6.61 2.858 10.723 3.5 18 .76-5.888.252-11.073 1.5-17 2.092 14.485.556 29.537-1 44-3.378-.145-2.657 1.932-3 4l-2-1c2.095-16.934-28.067-62.098-39-77 5.023-2.647-4.392-8.544-4-12 3.558 2.032 8.085 3.804 10 0 .172-.341-.121-1.157 1-1 7.99 9.98 27.846 32.203 33 42"/><path fill="#1284b4" d="M351 421c-1.376 3.105-2.557 14.884-3 19-2.265 21.036-.886 46.638 7 66.5.988 2.489 9.024 17.165 10.5 17.5 1.228.279 6.765-5.646 9.5-5 11.407 24.37 28.024 41.801 50 57 13.24 9.157 22.493 14.65 38 20 1.443 11.891-7.61 6.41-6.5 17l-8.5-2c-17.411-6.84-28.38-13.658-43-25-25.27-23.313-44.448-52.113-54-85.5-2.506-8.76-2.617-21.319-5-29-.685-2.207-1.771-3.309-4-1.5-1.384-17.257-.534-31.03 3-48z"/><path fill="#073f72" d="m590 526-2-6c2.809-3.45 6.84-10.003 9-14 12.89-23.857 15.388-48.877 8-75l6-6c12.675 36.577 4.383 72.524-21 101"/><path fill="#4c8194" d="M716 450c2.522 74.596-39.879 145.031-104 181l-6-16c3.354-1.955 6.776-3.83 10-6 57.908-38.984 87.969-105.523 79-175z"/><path fill="#87b4c2" d="M303 435c-.627 6.495-1.035 12.442-1 19-24.06 20.249-45.215 46.56-56 76.5 54.459 38.33 87.055 98.517 110 159.5-.838 5.744-3.589 15.53-3 21-24.906-69.436-69.484-137.259-132-178 18.677-38.193 48.838-71.789 82-98"/><path fill="#98cedd" d="M358 563c-4.682 2.882-7.939 10.475-14 10-24.53-34.041-36.674-71.917-38-114-.097-3.078-.059-5.959 0-9l19-14c-4.341 43.585 7.624 91.326 33 127"/><path fill="#5685a6" d="M361 452c.25.319.742 1.652 1 2-2.085 22.24 3.677 45.082 13 65-2.735-.646-8.272 5.279-9.5 5-1.476-.335-9.512-15.011-10.5-17.5-7.886-19.862-9.265-45.464-7-66.5 5.119 2.806 9.461 7.484 13 12"/><path fill="#07a6d9" d="M674 503c-3.96 14.031-10.421 26.642-18 39-.637-6.415 5.381-14.451 8-20.5-7.16.666-7.322 9.646-10 14-17.892 29.086-39.331 51.39-71 65.5-.095-8.002-11.067.67-15 2-33.891 11.465-66.534 14.536-101.5 5-.652.529-.794 4.965-.5 5.5 1.749 3.185 38.608 7.371 44.5 6.5l-12 2c38.157 1.716 76.342-8.977 108.5-29-46.951 33.304-105.695 38.94-159 18l8.5 2c-1.11-10.59 7.943-5.109 6.5-17 40.864 14.097 88.801 13.126 122-16 1.327-.653 2.701-1.297 4-2l5.5 11c51.288-31.511 81.598-87.494 79.5-148 2.807 24.452-.758 48.967-7 72.5z"/><path fill="#0b344a" d="M719 442c.303 4.064 1.003 7.932 1 12-.078 98.435-70.242 183.029-166 203v-3c6.69-1.355 14.454-3.882 21-6 12.998-4.205 25.129-10.341 37-17 64.121-35.969 106.522-106.404 104-181-.089-2.623.259-5.406 0-8z"/><path fill="url(#f)" d="M302 459c2.246 65.654 35.221 127.532 89 165 31.036 21.623 66.115 34.29 104 37 21.609 1.546 37.872.406 59-4 95.758-19.971 165.922-104.565 166-203 25.005 20.329 44.746 47.744 57 77.5-49.76 33.962-82.004 88.313-105 143-8.718 20.733-20.881 71.698-30 86-8.546 13.404-53.427 29.932-70 28.5 28.896-58.336-33.042-115.435-90.5-90-33.017 14.616-47.759 56.441-32.5 89-17.95 6.344-38.634-4.016-57-7-18.558-31.711-23.372-57.439-36-91-22.945-60.983-55.541-121.17-110-159.5 10.785-29.94 31.94-56.251 56-76.5.009 1.656-.057 3.347 0 5" style="fill:url(#f)"/>/&gt;<path fill="#5fa7bf" d="M392 508c-1.645 3.334 3.106 10.343 5 13.5 6.63 11.052 28.899 38.494 30 49 .314 2.998-.548 3.358-2 5.5-21.976-15.199-38.593-32.63-50-57-9.323-19.918-15.085-42.76-13-65 12.423 16.753 19.136 36.457 30 54"/><path fill="#2483ae" d="M417 460c3.333 31.671 6.407 52.33 33 74l-1 1c-27.699-23.153-32.185-42.402-33-77-.056.887.895 1.002 1 2"/><path fill="#5998af" d="M306 459c1.326 42.083 13.47 79.959 38 114 12.757 17.704 29.97 35.512 48 48l-1 3c-53.779-37.468-86.754-99.346-89-165z"/><path fill="#3bc6e8" d="M423 463c.615 62.434 61.458 100.833 120 82 18.241-5.868 31.243-15.206 44-29.5 2.264-2.536 2.932-13.07 10-9.5-2.16 3.997-6.191 10.55-9 14-8.578 10.535-23.563 21.603-36 27-33.766 14.654-73.31 10.379-102-13-26.593-21.67-29.667-42.329-33-74 2.229.4 4.047 1.97 6 3"/><path fill="#16b2de" d="M435 468c3.975 54.769 69.168 83.03 115 56-5.121 7.819-13.04 3.491-8 16-5.825 2.228-12.476 2.423-18 5.5 5.74 1.279 12.455-1.682 18-3.5l1 3c-58.542 18.833-119.385-19.566-120-82 3.843 2.026 7.831 3.738 12 5"/><path fill="#3a6675" d="M228.5 465c2.064.504-2.426 4.521-3 5-2.064-.504 2.426-4.521 3-5"/><path fill="#1fb4db" d="M405 586c-37.115-28.792-59.21-68.725-63-116 2.229-1.809 3.315-.707 4 1.5 2.383 7.681 2.494 20.24 5 29 9.552 33.387 28.73 62.187 54 85.5"/><path fill="#3a6675" d="M223.5 471c2.064.504-2.426 4.521-3 5-2.064-.504 2.426-4.521 3-5"/><path fill="#e2ecf1" d="M569 508c-.884 6.982-9.505 13.523-16 14-34.386 2.524-37.389-47.1-5.5-44 14.488 1.408 23.195 16.613 21.5 30"/><path fill="#036cac" d="M633 505c-4.805 11.805-12.42 24.548-21 34-8.986 9.9-25.984 22.098-38 28l-4-11c21.373-11.785 41.786-34.929 50-58 4.011 1.82 12.251 2.217 13 7"/><path fill="#122a36" d="M834 503c-14.674 136.352-141.884 334.087-287 356l-2-5c32.1-4.489 65.637-19.098 93-36 1.56-.967 3.404-1.566 5-2.5.329-2.891 1.313-5.715 2-8.5-.544 2.06.975 1.891 1 2 .254 1.12-.559 3.214.5 4 .725-.908 1.473-1.451 2.5-2 76.148-40.737 152.157-191.069 173-272 1.306-5.069 6.03-12.064 4-18 .089-.067.889-1.558 1-2 6.88-4.409 2.805-4.801 4-12 .343-2.068-.378-4.145 3-4"/><path fill="#24b7db" d="M404 525c10.131 13.178 24.497 27.594 39 36-10.408 5.724 6.637 13.821 12.5 17 39.994 21.682 88.827 21.999 129.5 2-33.199 29.126-81.136 30.097-122 16-15.507-5.35-24.76-10.843-38-20 1.452-2.142 2.314-2.502 2-5.5-1.101-10.506-23.37-37.948-30-49-1.894-3.157-6.645-10.166-5-13.5 3.515 5.676 7.917 11.688 12 17"/><path fill="#050c14" d="M203 522c4.109 1.95 13.721 8.212 18 11 62.516 40.741 107.094 108.564 132 178 1.463 13.591 14.101 44.179 18 60.5 2.627 10.997 3.35 32.616 7 41.5-2.071 1.122-.86.833-2 0-2.951-17.011-5.775-34.264-10-51-20.122-79.709-59.164-155.131-123-208-8.99-7.446-17.278-13.536-27-20-6.834-4.544-13.288-9.847-21-13-.924-3.592 6.199.145 8 1"/><path fill="#05080d" d="M827 519c-.111.442-.911 1.933-1 2-9.301 7.013-21.682 12.721-31.5 20-85.188 63.161-131.009 165.424-148.5 268-.025-.109-1.544.06-1-2 34.951-141.659 54.705-206.419 182-288"/><path fill="#025795" d="M590 526c-4.591 5.15-18.501 19.059-24.5 21-2.968.96-6.861-2.805-13.5 0 12.437-5.397 27.422-16.465 36-27z"/><path fill="#e5eff3" d="m216 534-7 7c-2.696-1.209-6.355-1.397-9-3-.809-3.327-6.119-12.04-5-17 7.712 3.153 14.166 8.456 21 13"/><path fill="#19b7e2" d="M656 542c-10.39 16.942-30.253 40.272-47 51-.314.201-1.676-.202-2 0-32.158 20.023-70.343 30.716-108.5 29l12-2c-5.892.871-42.751-3.315-44.5-6.5-.294-.535-.152-4.971.5-5.5 34.966 9.536 67.609 6.465 101.5-5 3.096 7.855 10.11.179 15-2 31.669-14.11 53.108-36.414 71-65.5 2.678-4.354 2.84-13.334 10-14-2.619 6.049-8.637 14.085-8 20.5"/><path fill="#c2cace" d="M822 539c-92.057 43.966-143.657 144.521-168 239.5-2.53 9.87-5.435 22.53-5 32.5-1.027.549-1.775 1.092-2.5 2-1.059-.786-.246-2.88-.5-4 17.491-102.576 63.312-204.839 148.5-268 9.818-7.279 22.199-12.987 31.5-20 2.03 5.936-2.694 12.931-4 18"/><path fill="#1ab0db" d="M413 522c9.698 14.32 21.99 24.62 37 33 26.546 14.821 53.66 19.285 84 14 12.003-2.091 25.377-7.143 36-13l4 11c-40.425 19.857-92.053 16.575-131-6-14.503-8.406-28.869-22.822-39-36z"/><path fill="#b7d1dd" d="m243 554-6 3.5c45.946 34.458 80.587 82.858 103 135.5-1.83-.971-1.096 5.237-1 5.5 2.492 6.829 6.502 18.114 8 25.5 2.181 10.755.743 13.099-6 20-.09-35.083-22.929-78.815-44-106.5-7.127-9.364-29.958-36.555-42.5-32.5-4.743 3.686-4.432 5.919-4.5 11-3.262.986-2.311 11.297-2 13.5 3.571 25.325 29.362 67.01 45 87.5 7.028 9.209 14.158 20.385 24 27l-11 3c-45.552-54.571-84.152-127.565-104-196 10.515 3.273 20.613 8.129 32 5.5-7.703-5.694-16.271-11.586-25-15.5l7-7c9.722 6.464 18.01 12.554 27 20"/><path fill="#6399ac" d="M209 541c8.729 3.914 17.297 9.806 25 15.5-11.387 2.629-21.485-2.227-32-5.5-1.424-4.911-1.251-9.922-2-13 2.645 1.603 6.304 1.791 9 3"/><path fill="#37d2f0" d="M623 550c-10.663 11.701-19.856 20.345-34 28-1.299.703-2.673 1.347-4 2-40.673 19.999-89.506 19.682-129.5-2-5.863-3.179-22.908-11.276-12.5-17 38.947 22.575 90.575 25.857 131 6 12.016-5.902 29.014-18.1 38-28 .05 5.56 7.507 7.882 11 11"/><path fill="#507281" d="M822 539c-20.843 80.931-96.852 231.263-173 272-.435-9.97 2.47-22.63 5-32.5 24.343-94.979 75.943-195.534 168-239.5M685 749c14.084 9.167 38.417-21.369 46-31.5 15.974-21.341 45.058-73.237 42-99.5-1.469-12.615-4.215-17.272-17.5-11-28.311 13.365-81.521 107.063-74.5 137.5.375 1.628 2.522 3.538 4 4.5"/><path fill="#47d0ec" d="M534 569c-30.34 5.285-57.454.821-84-14l7-13c12.469 8.32 34.653 17.473 49.5 19 4.49.462 22.955-1.592 24-1 2.349 1.33.108 7.425 3.5 9"/><path fill="#fafcfd" d="m366 762-2 2c-3.887-14.581-9.094-28.759-14-43-3.481-10.105-5.762-18.046-10-28-22.413-52.642-57.054-101.042-103-135.5l6-3.5c63.836 52.869 102.878 128.291 123 208"/><path fill="#7ac1d5" d="m527 641 .5 15 47.5-8c-6.546 2.118-14.31 4.645-21 6-16.967 3.437-34.7 4.576-52 4-37.524-1.25-79.151-15.633-110-37-18.03-12.488-35.243-30.296-48-48 6.061.475 9.318-7.118 14-10 37.951 53.353 103.663 82.78 169 78"/><path fill="#0fb1e2" d="M583 601c-4.89 2.179-11.904 9.855-15 2 3.933-1.33 14.905-10.002 15-2"/><path fill="#020b13" d="M773 618c-10.079 39.123-34.737 90.786-66.5 117-7.351 6.066-9.776 9.701-19.5 7-2.309-24.939 15.231-48.659 25-71 4.005-.759 29.578 12.644 24.5 16-7.967-2.963-15.018-11.092-23.5-11.5-.521 1.681 22.857 10.31 22 15.5-.346.237-1.849.848-2 1l-22.5-13 21.5 14c-.205.235-.41 1.302-2 3l-22-11.5 21 13.5c-1.405 1.327-.119 3.441-3.5 3L705 689.5c2.035 2.589 19.653 11.859 20 13 3.126 10.282-19.606-11.963-23-8 4.254 4.439 21.242 9.481 19 15.5l-20.5-11 18.5 13c-4.995 2.116-14.355-8.675-21-8.5 1.776 2.938 18.079 10.671 18 13-.149 4.416-16.833-9.783-20-8 1.269 2.631 15.681 10.083 16 11 2.742 7.882-15.96-9.512-18-5l15 9c-2.408 3.758-16.711-9.605-17-5l14.5 7.5c1.844 1.742-1.306 2.684-1.5 3-.478-1.687-11.512-8.747-9-4l-2 .5c.604 1.586 2.794 1.34 3 1.5.687 1.136 1.26 2.915 3 1.5-.604-1.586-2.794-1.34-3-1.5-.359-.594-.843-1.307-1-2l9 4c-.212.345.176 1.891 0 2-3.473 2.15-29.423-12.963-7 4.5l-9.5-3.5 2.5 2.5c-3.069.97-3.184 4.621-.5 5.5 4.704 1.539 11.295-6.359 14.5-9 13.458-11.092 24.75-27.311 34-42 4.079-6.477 7.526-13.181 11-20 .704-1.381 1.321-2.582 2-4 4.014-8.388 8.618-15.802 11-25 21.727-63.049-23.439-18.221-39 3.5-8.851 12.355-16.682 27.643-23 41.5-9.775 19.056-17.843 36.771-16 57 .196 2.151.77 4.93 0 7-1.478-.962-3.625-2.872-4-4.5-7.021-30.437 46.189-124.135 74.5-137.5 13.285-6.272 16.031-1.615 17.5 11"/><path fill="#030b11" d="M341 744c-3.233 3.309-3.612 5.649-9 6-2.427.158-2.677-.719-4-1 4.27-.611 9.924-4.13 11-9 2.678-12.12-6.87-30.484-12-41-2.689-11.284-9.053-21.279-15-31-1.739-2.842-2.72-5.583-5-9-5.545-9.31-11.977-20.316-19-28.5-4.471-5.209-27.164-29.573-34-21-2.84 7.047-.304 13.224 1 19.5 5.876 28.288 41.924 89.234 65.5 106 2.614 1.859 12.681 8.446 13.5 1.5.745-6.322-5.949 1.618-8 0 2.927-4.145 10.652-3.982 5.5-8.5l-10.5 5.5 10.5-9.5c-2.24.356-14.459 8.783-14.5 5.5l10.5-8.5-12.5 5.5 11.5-9.5-14.5 7.5 12.5-11.5c-3.389.026-13.081 8.394-15 8-1.335-.274-11.363-15.421-13.5-17.5.289-2.586 17.413-7.62 17.5-12.5-34.942 18.478-16.28 4.165 2-6l11.5 21.5-19 11c.941 2.928 18.492-9.943 19.5-9.5 4.784 9.619 7.129 19.656 9.5 30-7.054 16.349-34.657-15.278-41-23-16.318-19.867-46.337-73.737-46-99 .068-5.081-.243-7.314 4.5-11 12.542-4.055 35.373 23.136 42.5 32.5 21.071 27.685 43.91 71.417 44 106.5"/><path fill="#c1e8f0" d="M307 659c-5.808-8.706-16.518-21.379-24-29-9.314-9.487-30.237-32.557-26-2l-2 1c-1.304-6.276-3.84-12.453-1-19.5 6.836-8.573 29.529 15.791 34 21 7.023 8.184 13.455 19.19 19 28.5"/><path fill="#89cbdb" d="M763 640c.075-.29-.508-3.147 0-6 .291-1.637.753-2.81 1-5 1.57-13.929 4.82-22.696-12-11-4.479 3.115-21.649 19.444-22 24-7.275 3.305-12.472 15.572-17 23-3.895 6.389-8.62 13.411-12 20 6.318-13.857 14.149-29.145 23-41.5 15.561-21.721 60.727-66.549 39-3.5"/><path fill="#0f6b89" d="m764 629-9-3.5 8 8.5c-.508 2.853.075 5.71 0 6-2.382 9.198-6.986 16.612-11 25l-2 4c-3.474 6.819-6.921 13.523-11 20-1.696-.201-2.759 1.15-4 2 .857-5.19-22.521-13.819-22-15.5 8.482.408 15.533 8.537 23.5 11.5 5.078-3.356-20.495-16.759-24.5-16 .649-1.484 3.436-4.766 1-6 4.528-7.428 9.725-19.695 17-23-.439 5.701 3.864 6.109 8 6-2.204.149-.422 3.291 1.5 3 .622-.444-1.333-3.011-1.5-3 1.921-.051 2.616 1.7 4 .5l-8.5-6.5c4.628-.736 11.368 10.026 13.5 3.5l-10.5-8.5c6.012 3.835 8.36 2.394 14.5 4.5l-10.5-8.5 15.5 5.5-14-8 8 1v-3l-5-2c2.625-3.594 5.704.019 9-2l-4.5-3.5 11.5 3.5-9-6.5c16.82-11.696 13.57-2.929 12 11m-5.5-14c-.305.953 4.098 3.976 4.5 2.5-1.398-1.376-2.25-2.988-4.5-2.5m-7.5 33c.242.338-1.507 4.254 4.5 5zc-.567-.792-2.032-2.115-3-1.5zm-22.5-1c-.984.269-11.104 16.092-10.5 17.5l23.5 12.5c-3.747-7.134-13.593-11.207-20.5-15.5.608-2.451 12.502 5.26 13.5 6.5-.684-7.924 6.911 5.701 11.5 3.5 1.046-2.095-19.258-12.61-22-14l11 3-8-8c3.618-3.847 9.657 6.149 15 6l-5-4 2.5-1.5c-1.809-.192-10.376-6.17-11-6m17 3c-2.065.862 2.034 3.834 3.5 2.5-.493-.585-3.302-2.583-3.5-2.5m-29 14v6l22.5 11.5z"/><path fill="#03283b" d="M283 630c1.653 4.992 10.79 14.882 12 19-2.01.228-2.801 1.288-5 2-5.412 1.752-10.475 3.198-15.5 6l2.5 4c-.522.579-3.585 4.1-2.5 5 5.211-2.443 17.221-6.998 19.5-13 .426-1.122 1.267-1.533 1-3 2.825.908 2.72 6.557 3 7-2.011-.791-2.831 1.938-3 2-7.275 2.649-13.224 5.486-19.5 10-7.604-11.949-16.525-26.756-18.5-41-4.237-30.557 16.686-7.487 26 2m-16.5-12c-1.065.107-7.402 4.097-8.5 5.5 1.082 2.278 9.959-3.91 11-5-.33-.754-1.691-.581-2.5-.5m4 4-11.5 6.5c1.308 1.932 1.821 1.024 3.5.5.507-.158 9.152-5.467 8-7m3 4c-4.153 3.142-10.423 4.022-13.5 8.5 2.684.454 5.852-2.788 8-4 .309-.175 8.578-3.144 5.5-4.5m4 2c-.214 2.551-21.975 8.069-15.5 12.5.874.598 18.349-10.719 15.5-12.5"/><path fill="#64a4b8" d="M612 631c-11.871 6.659-24.002 12.795-37 17l-47.5 8-.5-15c26.935-1.97 55.88-12.524 79-26z"/><path fill="#081a29" d="M758.5 615c2.25-.488 3.102 1.124 4.5 2.5-.402 1.476-4.805-1.547-4.5-2.5"/><path fill="#76a9b6" d="M250 616c-.337 25.263 29.682 79.133 46 99l-3 2c-15.638-20.49-41.429-62.175-45-87.5-.311-2.203-1.262-12.514 2-13.5"/><path fill="#046d88" d="M266.5 618c.809-.081 2.17-.254 2.5.5-1.041 1.09-9.918 7.278-11 5 1.098-1.403 7.435-5.393 8.5-5.5"/><path fill="#032738" d="M738 648c-4.136.109-8.439-.299-8-6 .351-4.556 17.521-20.885 22-24l9 6.5-11.5-3.5 4.5 3.5c-3.296 2.019-6.375-1.594-9 2l5 2v3l-8-1 14 8-15.5-5.5 10.5 8.5c-6.14-2.106-8.488-.665-14.5-4.5l10.5 8.5c-2.132 6.526-8.872-4.236-13.5-3.5l8.5 6.5c-1.384 1.2-2.079-.551-4-.5"/><path fill="#173341" d="M685 749c.77-2.07.196-4.849 0-7 .643.072 1.481-.144 2 0 9.724 2.701 12.149-.934 19.5-7 31.763-26.214 56.421-77.877 66.5-117 3.058 26.263-26.026 78.159-42 99.5-7.583 10.131-31.916 40.667-46 31.5"/><path fill="#297690" d="m502 658-7 3c-37.885-2.71-72.964-15.377-104-37l1-3c30.849 21.367 72.476 35.75 110 37"/><path fill="#036d8c" d="M270.5 622c1.152 1.533-7.493 6.842-8 7-1.679.524-2.192 1.432-3.5-.5z"/><path fill="#02273d" d="M764 629c-.247 2.19-.709 3.363-1 5l-8-8.5z"/><path fill="#077591" d="M273.5 626c3.078 1.356-5.191 4.325-5.5 4.5-2.148 1.212-5.316 4.454-8 4 3.077-4.478 9.347-5.358 13.5-8.5"/><path fill="#3cbeda" d="M295 659c-6.34 5.217-12.199 8.557-19 11.5-4.034 9.028 22.442-9.238 24.5-9.5-1.712 4.041-20.944 12.422-21.5 14.5-.259.965 3.374 7.329 4.5 7.5 1.028.156 5.164-3.837 5.5-4 5.919-2.879 11.418-6.444 17.5-9 1.998-2.778-1.424-3.8-1.5-4-2.141-5.605-5.541-6.693-7-9-.28-.443-.175-6.092-3-7-.059-.326.087-.704 0-1-1.21-4.118-10.347-14.008-12-19 7.482 7.621 18.192 20.294 24 29 2.28 3.417 3.261 6.158 5 9-3.16-.629-.378 3.732 0 4.5 4.452 9.034 10.585 17.451 15 26.5 5.13 10.516 14.678 28.88 12 41-2.496.342-1.665-.54-2-2-2.371-10.344-4.716-20.381-9.5-30-1.008-.443-18.559 12.428-19.5 9.5l19-11-11.5-21.5c-18.28 10.165-36.942 24.478-2 6-.087 4.88-17.211 9.914-17.5 12.5 2.137 2.079 12.165 17.226 13.5 17.5 1.919.394 11.611-7.974 15-8L312 724.5l14.5-7.5-11.5 9.5 12.5-5.5-10.5 8.5c.041 3.283 12.26-5.144 14.5-5.5l-10.5 9.5 10.5-5.5c5.152 4.518-2.573 4.355-5.5 8.5 2.051 1.618 8.745-6.322 8 0-.819 6.946-10.886.359-13.5-1.5-23.576-16.766-59.624-77.712-65.5-106l2-1c1.975 14.244 10.896 29.051 18.5 41 6.276-4.514 12.225-7.351 19.5-10m11.5 12c-6.608 6.914-14.355 7.839-22.5 13.5l5.5 8.5c6.269-9.773 30.121-8.29 19.5-21.5zm6 10c-2.442 3.476-23.149 12.101-21.5 14.5 1.275 1.855 30.771-14.661 21.5-14.5"/><path fill="#055a79" d="M277.5 628c2.849 1.781-14.626 13.098-15.5 12.5-6.475-4.431 15.286-9.949 15.5-12.5"/><path fill="#031a2b" d="m751 648-3-1.5c.968-.615 2.433.708 3 1.5"/><path fill="#032939" d="M728.5 647c.624-.17 9.191 5.808 11 6l-2.5 1.5 5 4c-5.343.149-11.382-9.847-15-6l8 8-11-3c2.742 1.39 23.046 11.905 22 14-4.589 2.201-12.184-11.424-11.5-3.5-.998-1.24-12.892-8.951-13.5-6.5 6.907 4.293 16.753 8.366 20.5 15.5L718 664.5c-.604-1.408 9.516-17.231 10.5-17.5"/><path fill="#032738" d="M738 648c.167-.011 2.122 2.556 1.5 3-1.922.291-3.704-2.851-1.5-3"/><path fill="#032333" d="m751 648 4.5 5c-6.007-.746-4.258-4.662-4.5-5"/><path fill="#031623" d="M295 649c.087.296-.059.674 0 1 .267 1.467-.574 1.878-1 3-3.301 1.627-9.063 3.31-12 5 2.198-1.573 5.606-5.157 8-7 2.199-.712 2.99-1.772 5-2"/><path fill="#051e2e" d="M745.5 650c.198-.083 3.007 1.915 3.5 2.5-1.466 1.334-5.565-1.638-3.5-2.5"/><path fill="#036583" d="M290 651c-2.394 1.843-5.802 5.427-8 7-2.031 1.169-2.501.226-5 3l-2.5-4c5.025-2.802 10.088-4.248 15.5-6"/><path fill="#046c8b" d="M294 653c-2.279 6.002-14.289 10.557-19.5 13-1.085-.9 1.978-4.421 2.5-5 3.588.836 3.616-2.01 5-3 2.937-1.69 8.699-3.373 12-5"/><path fill="#0e5067" d="M554 654v3c-21.128 4.406-37.391 5.546-59 4l7-3c17.3.576 35.033-.563 52-4"/><path fill="#3bbeda" d="M298 657c-.048 2.059-2.803 1.838-3 2 .169-.062.989-2.791 3-2"/><path fill="#03283b" d="m305 666-16 13c-.336.163-4.472 4.156-5.5 4-1.126-.171-4.759-6.535-4.5-7.5.556-2.078 19.788-10.459 21.5-14.5-2.058.262-28.534 18.528-24.5 9.5 6.801-2.943 12.66-6.283 19-11.5.197-.162 2.952.059 3-2 1.459 2.307 4.859 3.395 7 9"/><path fill="#031623" d="M282 658c-1.384.99-1.412 3.836-5 3 2.499-2.774 2.969-1.831 5-3"/><path fill="#032536" d="m716.5 664 22.5 17.5-22.5-11.5z"/><path fill="#48cce0" d="M752 665c-.679 1.418-1.296 2.619-2 4z"/><path fill="#25a6ca" d="M712 671c-9.769 22.341-27.309 46.061-25 71-.519-.144-1.357.072-2 0-1.843-20.229 6.225-37.944 16-57 3.38-6.589 8.105-13.611 12-20 2.436 1.234-.351 4.516-1 6"/><path fill="#021320" d="m289 679 16-13c.076.2 3.498 1.222 1.5 4-6.082 2.556-11.581 6.121-17.5 9"/><path fill="#bee9f6" d="M312 668c5.947 9.721 12.311 19.716 15 31-4.415-9.049-10.548-17.466-15-26.5-.378-.768-3.16-5.129 0-4.5"/><path fill="#02293c" d="m306.5 671 2.5.5c10.621 13.21-13.231 11.727-19.5 21.5l-5.5-8.5c8.145-5.661 15.892-6.586 22.5-13.5"/><path fill="#0f8cb4" d="M733 692c-.306.308-.808.779-1 1l-21.5-14z"/><path fill="#011c2c" d="M312.5 681c9.271-.161-20.225 16.355-21.5 14.5-1.649-2.399 19.058-11.024 21.5-14.5"/><path fill="#1291b8" d="M730 696c-.076.082.413.666-1 2l-21-13.5z"/><path fill="#3dcae3" d="M729 698c1.413-1.334.924-1.918 1-2 1.59-1.698 1.795-2.765 2-3 .192-.221.694-.692 1-1 .151-.152 1.654-.763 2-1 1.241-.85 2.304-2.201 4-2-9.25 14.689-20.542 30.908-34 42 .176-.109-.212-1.655 0-2 .194-.316 3.344-1.258 1.5-3l-14.5-7.5c.289-4.605 14.592 8.758 17 5l-15-9c2.04-4.512 20.742 12.882 18 5-.319-.917-14.731-8.369-16-11 3.167-1.783 19.851 12.416 20 8 .079-2.329-16.224-10.062-18-13 6.645-.175 16.005 10.616 21 8.5 1.149-.487 1.555-.805 2-2 2.242-6.019-14.746-11.061-19-15.5 3.394-3.963 26.126 18.282 23 8-.347-1.141-17.965-10.411-20-13l20.5 11.5c3.381.441 2.095-1.673 3.5-3"/><path fill="#78b0c0" d="M392 781c6.579 11.241 12.846 22.28 21 32.5l26 24.5c-18.304-4.947-35.921-13.442-54-19-3.231-2.358-4.831-.721-7-6-3.65-8.884-4.373-30.503-7-41.5-3.899-16.321-16.537-46.909-18-60.5-.589-5.47 2.162-15.256 3-21 12.628 33.561 17.442 59.289 36 91"/><path fill="#7ab5c5" d="M340 693c4.238 9.954 6.519 17.895 10 28l-3 3c-1.498-7.386-5.508-18.671-8-25.5-.096-.263-.83-6.471 1-5.5"/><path fill="#03060c" d="M572 789c-24.069 48.59-100.282 47.475-123-1-15.259-32.559-.517-74.384 32.5-89 57.458-25.435 119.396 31.664 90.5 90m-124-44c-5.679 25.986 3.036 48.331 24 64 4.145 3.098 6.027 4.799 11 7 20.536 9.091 39.139 8.301 59-2 33.79-17.525 44.317-60.294 22-91.5-31.274-43.731-104.371-30.712-116 22.5"/><path fill="#254658" d="m542 814-3-7c1.423-.72 6.358-4.684 8-6 40.183-32.202 16.369-94.785-34-96-25.368-.612-53.124 18.139-58 44l-7-4c11.629-53.212 84.726-66.231 116-22.5 22.317 31.206 11.79 73.975-22 91.5"/><path fill="#0884aa" d="M721 710c-.445 1.195-.851 1.513-2 2l-18.5-13z"/><path fill="#abdce9" d="m513 705-3 4.5c1.041 1.171 4.997-.115 5 1 .004 1.349-6.401-.663-7 1.5-33.618 1.743-55.997 38.597-40 69.5 15.596 30.129 61.837 32.626 82 6.5v7.5l-3.5-2.5-1.5 1.5 2 6.5c-1.642 1.316-6.577 5.28-8 6-16.543 8.373-38.454 8.096-55 0-4.482-2.193-12.35-12.704-16-8-7.592-13.395-15.938-34.415-13-50 4.876-25.861 32.632-44.612 58-44"/><path fill="#87b1c2" d="m547 801-2-6.5 1.5-1.5 3.5 2.5V788c25.374-32.878-1.552-78.098-42-76 .599-2.163 7.004-.151 7-1.5-.003-1.115-3.959.171-5-1l3-4.5c50.369 1.215 74.183 63.798 34 96"/><path fill="#031422" d="M508 712c40.448-2.098 67.374 43.122 42 76-20.163 26.126-66.404 23.629-82-6.5-15.997-30.903 6.382-67.757 40-69.5m-15 7c-27.991 11.375-37.52 43.938-18 68 28.225 34.793 86.208 12.385 82-33-2.9-31.275-36.848-46.034-64-35"/><path fill="#133b4d" d="M296 715c6.343 7.722 33.946 39.349 41 23 .335 1.46-.496 2.342 2 2-1.076 4.87-6.73 8.389-11 9-4.061-.864-7.619-2.728-11-5-9.842-6.615-16.972-17.791-24-27z"/><path fill="#0597c0" d="M557 754c-3.784 5.468 1.83 6.969-9 6-.691-7.007-6.984-17.177-12-22-.379-14.814-21.366-19.111-33.5-20l-18 10 8.5-9c27.152-11.034 61.1 3.725 64 35"/><path fill="#0cbae1" d="M536 738c-8.039-7.729-19.157-10.503-29-13-.121-.031-.582-1.732-1.5-2-8.112-2.371-36.457 14.528-21.5 16-.361.582-.688 1.372-1 2-6.996-5.872-21.467 10.719-12 13-2.555 11.05 1.306 22.367 4 33-19.52-24.062-9.991-56.625 18-68l-8.5 9 18-10c12.134.889 33.121 5.186 33.5 20"/><path fill="#5892a3" d="M364 764c3.769 14.136 5.426 29.243 9 43-3.185-.674-.977 2.773-3 2.5-4.805-.648-39.334-35.552-45-41.5l7-18c5.388-.351 5.767-2.691 9-6 6.743-6.901 8.181-9.245 6-20l3-3c4.906 14.241 10.113 28.419 14 43"/><path fill="#fafcfc" d="M507 725c-.741 5.539-9.05 10.278-13.5 12-4.222 1.634-6.027-3.6-9.5 2-14.957-1.472 13.388-18.371 21.5-16 .918.268 1.379 1.969 1.5 2"/><path fill="#3dcae3" d="m705 729-9-4c-2.512-4.747 8.522 2.313 9 4"/><path fill="#14b3d9" d="M536 738c5.016 4.823 11.309 14.993 12 22 5.531 56.061-89.36 37.633-73-6 1.086-2.897 4.811-3.23 6-5.5 1.318-2.517 1.564-6.62 2-7.5.312-.628.639-1.418 1-2 3.473-5.6 5.278-.366 9.5-2 4.45-1.722 12.759-6.461 13.5-12 9.843 2.497 20.961 5.271 29 13"/><path fill="#3dcae3" d="M696 725c.157.693.641 1.406 1 2-.206-.16-2.396.086-3-1.5z"/><path fill="#026e93" d="M705 731c-3.205 2.641-9.796 10.539-14.5 9-2.684-.879-2.569-4.53.5-5.5l-2.5-2.5 9.5 3.5c-22.423-17.463 3.527-2.35 7-4.5"/><path fill="#3dcae3" d="M697 727c.206.16 2.396-.086 3 1.5-1.74 1.415-2.313-.364-3-1.5"/><path fill="#fbfcfd" d="M483 741c-.436.88-.682 4.983-2 7.5-1.189 2.27-4.914 2.603-6 5.5-1.249-.178-2.853.276-4 0-9.467-2.281 5.004-18.872 12-13"/><path fill="#73b2c4" d="M328 749c1.323.281 1.573 1.158 4 1l-7 18c-7.003-7.352-12.439-13.139-19-21l11-3c3.381 2.272 6.939 4.136 11 5"/><path fill="#5393a8" d="M455 749c-2.938 15.585 5.408 36.605 13 50 1.91 3.37 6.117 6.897 4 10-20.964-15.669-29.679-38.014-24-64z"/><path fill="#0782ab" d="M475 754c-16.36 43.633 78.531 62.061 73 6 10.83.969 5.216-.532 9-6 4.208 45.385-53.775 67.793-82 33-2.694-10.633-6.555-21.95-4-33 1.147.276 2.751-.178 4 0"/><path fill="#cce2e7" d="M376 813c-2.688-1.964-1.986-2.098-3-6-3.574-13.757-5.231-28.864-9-43l2-2c4.225 16.736 7.049 33.989 10 51"/><path fill="#8fc9d9" d="m484 807-1 9c-4.973-2.201-6.855-3.902-11-7 2.117-3.103-2.09-6.63-4-10 3.65-4.704 11.518 5.807 16 8"/><path fill="#427a8e" d="m539 807 3 7c-19.861 10.301-38.464 11.091-59 2l1-9c16.546 8.096 38.457 8.373 55 0"/><path fill="#b4cbd4" d="M638 818c-27.363 16.902-60.9 31.511-93 36-50.41 7.05-118.306-4.565-160-35 18.079 5.558 35.696 14.053 54 19 61.84 16.714 143.197 14.587 199-20"/></svg>