<svg xmlns="http://www.w3.org/2000/svg" width="1024" height="1024"><defs><linearGradient id="a" x1="385.751" x2="639.667" y1="325.985" y2="696.292" gradientUnits="userSpaceOnUse"><stop offset="0%" style="stop-color:#8beefe"/><stop offset="41.203%" style="stop-color:#2eafc1"/><stop offset="100%" style="stop-color:#004877"/></linearGradient></defs><defs><linearGradient id="b" x1="492.591" x2="530.165" y1="390.261" y2="622.238" gradientUnits="userSpaceOnUse"><stop offset="16.596%" style="stop-color:#1eb1e8"/><stop offset="100%" style="stop-color:#2d74a7"/></linearGradient></defs><defs><linearGradient id="c" x1="421.376" x2="490.52" y1="453.929" y2="464.844" gradientUnits="userSpaceOnUse"><stop offset="0%" style="stop-color:#c0d5dd"/><stop offset="100%" style="stop-color:#e9f4f8"/></linearGradient></defs><defs><linearGradient id="d" x1="158.844" x2="163.562" y1="570.382" y2="659.257" gradientUnits="userSpaceOnUse"><stop offset="0%" style="stop-color:#06b5d4"/><stop offset="100%" style="stop-color:#026687"/></linearGradient></defs><defs><linearGradient id="e" x1="866.019" x2="862.512" y1="573.785" y2="659.713" gradientUnits="userSpaceOnUse"><stop offset="0%" style="stop-color:#04accb"/><stop offset="100%" style="stop-color:#035e7e"/></linearGradient></defs><path fill="#031021" d="M562 207c-2.682-.533-2.844-.972-3-1l-38-93c-1.085-5.091-3.732-15.711-6-20-2.892-5.467-8.253-7.029-7-1l-44 113c-.96.177-.377 1.272-4 2l46.5-121c14.856-3.427 13.475 15.212 17.5 25.5 12.459 31.843 28.096 62.625 38 95.5"/><path fill="#026997" d="M515 93c-1.56 0-2.291-.76-4-1-.963-.135-2.021.08-3 0-1.253-6.029 4.108-4.467 7 1"/><path fill="#5aebfb" d="M511 92c-.012 1.99.018 4.01 0 6l-38 101.5c1.372 3.798 9.986-1.18 12-2.5l3 6c-6.557.484-18.118.917-24 2l44-113c.979.08 2.037-.135 3 0"/><path fill="#07bcde" d="M515 93c2.268 4.289 4.915 14.909 6 20 1.212 5.685 2.488 14.188 2 20-1.856-4.64-1.609-8.614-8-7-1.08-6.604-.558-15.318-5-20 .407-2.878.971-4.847 1-8 .018-1.99-.012-4.01 0-6 1.709.24 2.44 1 4 1"/><path fill="#9ff0fc" d="M510 106c-2.981 21.102-7.536 79.555-25 91-2.014 1.32-10.628 6.298-12 2.5L511 98c-.029 3.153-.593 5.122-1 8"/><path fill="#09c8ea" d="M515 126c1.219 7.451 2.302 14.445 3 22 .791 8.557 5.387 45.597-1.5 50-3.656 2.337-10.989-1.501-10.5 4-6.976-.041-11.285.504-18 1l-3-6c17.464-11.445 22.019-69.898 25-91 4.442 4.682 3.92 13.396 5 20"/><path fill="#015171" d="M559 206c-14.25-2.544-38.469-3.914-53-4-.489-5.501 6.844-1.663 10.5-4 6.887-4.403 2.291-41.443 1.5-50 11.457 2.081 7.849-7.876 5-15 .488-5.812-.788-14.315-2-20z"/><path fill="#0081a5" d="M523 133c2.849 7.124 6.457 17.081-5 15-.698-7.555-1.781-14.549-3-22 6.391-1.614 6.144 2.36 8 7"/><path fill="#1e3d54" d="M506 202c14.531.086 38.75 1.456 53 4 .156.028.318.467 3 1 127.335 25.283 235.27 114.879 271 241.5l2 .5c-1.95 2.357-.247 2.542 0 4 3.404 20.051 8.951 39.577 11 60 5.17 51.522 1.028 103.481-12 153.5 1.207 1.826 8.93-1.184 10-2.5l5 3c-.228 1.583.152 3.383 0 5-5.749.915-11.717 1.153-17.5 2-1.644 1.748.562 1.918.5 2-5.746 7.598-13.992 39.82-19 51.5-118.775 277.05-482.152 278.68-603 2-6.634-15.188-12.077-39.753-20-52.5-.247-.397 2.121-2.389.5-3-1.866-.703-6.795.685-9.5-1 1.889-.128 5.743-1.937 8.5-1 1.625-1.781-1.372-2.549-1.5-4-5.25-59.422-17.486-90.232-11-155 .554-5.528.228-11.464 1-17 2-14.339 7.103-28.508 8-43 2.312-.661 3.822-2.754 1-4l2-.5C226.363 320.319 330.458 233.043 460 207c3.623-.728 3.04-1.823 4-2 5.882-1.083 17.443-1.516 24-2 6.715-.496 11.024-1.041 18-1M217 390c-69.362 133.516-42.615 313.824 54 427 63.851 74.796 155.519 119.874 255.5 115 19.122-.932 57.111-5.849 73.5-15 19.007-3.703 40.306-13.632 57.5-23 63.886-34.81 113.549-92.141 145.5-157 29.255-59.386 41.826-121.746 40-188-.876-31.79-3.166-60.131-11-91-24.854-97.932-105.062-187.321-198.5-225-8.969-3.617-28.536-11.185-37.5-12-148.132-46.034-309.533 35.281-379 169"/><path fill="#d5e5f0" d="M596 221c-4.871-.443-8.579-1.537-8 4-28.72-6.448-58.173-6.365-87.5-6-1.368.97.534 32.129 1.5 33.5.788 1.119 24.474.884 27 4.5-165.825-13.565-294.278 133.396-266 296-.578.636-2.981 3.27-3 3.5-.341 4.216 7.151 33.147 9 39 15.481 48.999 56.895 99.83 100 127.5l-6 6c-38.868-32.407-90.112-8.174-105 36-49.715-79.008-71.863-181.83-56-274.5 5.61-32.775 18.474-64.675 30.5-94.5l-15.5-6c69.467-133.719 230.868-215.034 379-169"/><path fill="#96b3c0" d="M588 225c84.339 18.934 170.409 98.209 205 176-19.903 10.755-13.918 47.032-34 58-4.672-16.707-11.048-35.695-21-50-34.026-84.007-118.842-144.625-209-152-2.526-3.616-26.212-3.381-27-4.5-.966-1.371-2.868-32.53-1.5-33.5 29.327-.365 58.78-.448 87.5 6"/><path fill="#99bbc6" d="M596 221c8.964.815 28.531 8.383 37.5 12 93.438 37.679 173.646 127.068 198.5 225l.5 15-17.5-5c-5.148-23.394-12.23-45.028-22-67-34.591-77.791-120.661-157.066-205-176-.579-5.537 3.129-4.443 8-4"/><path fill="#1b3b54" d="M529 257c90.158 7.375 174.974 67.993 209 152 12.919 31.895 18.416 63.501 18 98-.927 76.833-35.203 147.92-96 195-9.569 7.41-21.399 15.149-32 21-58.198 32.121-127.335 38.49-191 20-86.483-25.117-158.431-100.471-174-190-28.278-162.604 100.175-309.565 266-296m-84 9c-212.277 54.341-252.238 349.682-56 455 138.182 74.16 304.218 6.919 353-140 46.836-133.608-41.735-292.211-182-317-37.737-9.216-77.513-7.596-115 2"/><path fill="#7fe8f8" d="M560 264c-11.816-2.088-57.985-6.567-67.5-4-3.909 1.055-.91 5.191-3 6-3.626 1.404-23.874 2.011-30 3-3.168.512-14.639 5.799-15 2l7.5-2.5-7-2.5c37.487-9.596 77.263-11.216 115-2"/><path fill="url(#a)" d="M560 264c140.265 24.789 228.836 183.392 182 317-19.587 55.875-63.508 108.612-115.5 137-73.746 40.267-162.579 39.986-237.5 3-196.238-105.318-156.277-400.659 56-455l7 2.5-7.5 2.5c.361 3.799 11.832-1.488 15-2 6.126-.989 26.374-1.596 30-3 2.09-.809-.909-4.945 3-6 9.515-2.567 55.684 1.912 67.5 4m-126.5 9c-25.601 4.027-80.489 40.324-98.5 59.5l-23 32c33.696-40.487 74.275-72.82 124.5-90.5 1.095-1.453-2.385-1.097-3-1M304 582c23.56 71.189 88.189 124.882 162 138 50.675 9.006 94.296 2.773 140-20 76.669-38.202 123.042-112.643 122-199-.412-34.125-8.807-68.077-25-98-7.83-14.47-15.07-22.999-26-35-166.025-182.294-449.929-18.452-373 214" style="fill:url(#a)"/>/&gt;<path fill="#edfefe" d="M433.5 273c.615-.097 4.095-.453 3 1-50.225 17.68-90.804 50.013-124.5 90.5l23-32c18.011-19.176 72.899-55.473 98.5-59.5"/><path fill="#043f70" d="M677 368c6.359 8.676 11.567 17.729 17 27-1.978-.734-2.677 2.34-4 1.5-1.747-1.11-20.179-27.846-25-33C489.032 175.372 187.799 407.563 333 627a125 125 0 0 0 15 18.5l-6-1.5c-15.982-18.516-28.267-39.624-38-62-76.929-232.452 206.975-396.294 373-214"/><path fill="#1e617e" d="M694 395c1.988 3.393 4.151 6.404 6 10 8.32 16.181 14.57 31.231 19 49l-13 4c-21.743-96.121-117.898-158.459-214.5-151-82.584 6.376-159.438 73.241-174.5 151-3.321 10.935-4.973 19.2-6 29.5-1.612 16.174-2.999 42.61 0 59 3.946 21.563 19.195 56.543 32 75.5l-10 5C187.799 407.563 489.032 175.372 665 363.5c4.821 5.154 23.253 31.89 25 33 1.323.84 2.022-2.234 4-1.5"/><path fill="#08223b" d="M706 458c17.149 75.814-8.737 154.399-68 204-5.097 4.266-10.501 8.263-16 12-3.61 2.453-7.227 4.792-11 7-2.343 1.371-4.592 2.715-7 4-4.475 2.388-9.357 5.003-14 7-4.81 2.069-10.053 4.348-15 6-85.283 28.481-181.401-1.09-232-76-12.805-18.957-28.054-53.937-32-75.5-2.999-16.39-1.612-42.826 0-59 1.027-10.3 2.679-18.565 6-29.5-17.268 89.147 9.596 172.085 89 220 210.552 127.054 417.883-168.502 233-323-115.748-96.725-279.252-37.759-322 103 15.062-77.759 91.916-144.624 174.5-151 96.602-7.459 192.757 54.879 214.5 151"/><path fill="#a7ced7" d="m639 355-7 13c-23.732-19.689-60.538-37.44-91-43-60.074-10.966-136.943 7.243-176 56.5-44.099 55.616-59.613 152.09-7.5 207.5l-5.5-27h44c76.801 158.44 317.454 28.672 224-123 16.15-14.903 11.106-41.516 25-58 20.889 21.358 37.992 46.862 44 76.5-5.023-.127-2.616-9.848-7-12 2.397 5.991-.654 28.7 1 32 .207.412 5.899 1.7 6 2 2.843 8.446-9.788 48.171-13 58-1.51 4.619-2.713 11.144-5 17-1.795 4.596-15.737 35.54-20.5 33.5-1.192-.51-7.229-15.166-9-15-5.71 5.573-26.782 53.012-29.5 54.5-.66.362-4.707-1.236-6.5-.5-2.336.959-12.016 4.461-13 5-4.344 2.38-21.928 22.179-24 22-.359-.031-2.782-3.739-6-4-19.567-1.586-44.385 11.436-65 15-11.061 1.912-22.815 2.875-34 4-17.432 1.754-44.709-3.918-57.5 9-79.404-47.915-106.268-130.853-89-220 42.748-140.759 206.252-199.725 322-103"/><path fill="#f0f8fc" d="M541 325c.728 17.893 3.204 32.617 1 50.5-.466 3.783-3.482 2.726-4 5.5-.224 1.199 1.531 4.915 1 8-6.364-4.964-11.429-15.138-20.5-16-3.026-.287-26.002 4.874-30.5 6-24.599 6.156-46.975 16.646-65 35-5.73 3.545-7.888 7.135-12 12-13.662 16.163-22.735 37.065-26 58-3.867-.071-.431 6.112-4.5 7-4.691 1.024-20.401-12.352-23.5-9.5-6.811 26.135-9.68 53.83-5 80.5l5.5 27c-52.113-55.41-36.599-151.884 7.5-207.5 39.057-49.257 115.926-67.466 176-56.5"/><path fill="#cfe7ee" d="M632 368c3.929 3.259 9.266 9.182 13 13-13.894 16.484-8.85 43.097-25 58-17.266-28.023-49.392-52.188-82-58 .518-2.774 3.534-1.717 4-5.5 2.204-17.883-.272-32.607-1-50.5 30.462 5.56 67.268 23.311 91 43"/><path fill="#82b9c4" d="M406 678c12.791-12.918 40.068-7.246 57.5-9 11.185-1.125 22.939-2.088 34-4 20.615-3.564 45.433-16.586 65-15 3.218.261 5.641 3.969 6 4 2.072.179 19.656-19.62 24-22 .984-.539 10.664-4.041 13-5 1.793-.736 5.84.862 6.5.5 2.718-1.488 23.79-48.927 29.5-54.5 1.771-.166 7.808 14.49 9 15 4.763 2.04 18.705-28.904 20.5-33.5 2.287-5.856 3.49-12.381 5-17 3.212-9.829 15.843-49.554 13-58-.101-.3-5.793-1.588-6-2-1.654-3.3 1.397-26.009-1-32 4.384 2.152 1.977 11.873 7 12-6.008-29.638-23.111-55.142-44-76.5-3.734-3.818-9.071-9.741-13-13l7-13c184.883 154.498-22.448 450.054-233 323"/><path fill="#a1e1e6" d="m703 403-3 2c-1.849-3.596-4.012-6.607-6-10-5.433-9.271-10.641-18.324-17-27 10.93 12.001 18.17 20.53 26 35"/><path fill="#dcecf3" d="M539 389c-6.684 38.84-54.546 25.377-51-10 4.498-1.126 27.474-6.287 30.5-6 9.071.862 14.136 11.036 20.5 16"/><path fill="url(#b)" d="M488 379c-3.546 35.377 44.316 48.84 51 10 .531-3.085-1.224-6.801-1-8 32.608 5.812 64.734 29.977 82 58 93.454 151.672-147.199 281.44-224 123-12.694-26.187-15.52-49.021-11-78 3.265-20.935 12.338-41.837 26-58-9.338 16.18-13.699 32.799-7 51 .036.329-.049.675 0 1 1.858 12.364 24.091 28.9 36 31-2.226 16.775.954 31.733 11 45.5 16.034 21.973 47.929 31.904 75 27.5 4.088-.665 6.58-2.901 7-3 2.962-.7 24.731-4.087 22-9.5l-4-2.5c22.242-12.925 35.793-47.675 31-74.5-.764-4.277-5.704-21.57-11-17.5-10.348-22.442-48.18-39.333-72-35-5.512-16.361-21.334-29.08-38-32-13.272-2.325-25.995-1.427-38 6 18.025-18.354 40.401-28.844 65-35" style="fill:url(#b)"/>/&gt;<path fill="#96b3c0" d="M258 765c2.959 4.703 6.162 9.227 9 14-.331 10.542 3.183 22.299 9 31-5.225.261-7.164 2.082-5 7-96.615-113.176-123.362-293.484-54-427l15.5 6c-12.026 29.825-24.89 61.725-30.5 94.5-15.863 92.67 6.285 195.492 56 274.5"/><path fill="#5c8998" d="M793 401c9.77 21.972 16.852 43.606 22 67 12.383 56.274 8.471 108.314-3 164.5l23-99c3.5-3.821 6.215 14.486 8 15.5 1.826 66.254-10.745 128.614-40 188-5.419-1.01-14.062-21.9-18.5-20-5.979 11.389-11.223 23.275-17.5 34.5-1.384 2.476-6.637 7.878-7 8.5-7.845-22.375-33.32-41.138-56-46-12.344-2.646-31.562-3.019-43 3 .038-1.27-1.01-1.105-2-1-.092-.905 1.017-1.041 1-2 67.842-44.887 112.266-124.524 108-207-.848-16.385-4.605-32.282-9-48 20.082-10.968 14.097-47.245 34-58"/><path fill="#578391" d="M703 403c16.193 29.923 24.588 63.875 25 98h-2c-.326-15.977-3.156-31.58-7-47-4.43-17.769-10.68-32.819-19-49z"/><path fill="#c7d9e1" d="m461 408-2 3c-37.634-2.928-58.845 31.32-55 66-6.699-18.201-2.338-34.82 7-51 4.112-4.865 6.27-8.455 12-12 12.005-7.427 24.728-8.325 38-6"/><path fill="url(#c)" d="M499 440c12.738 37.81-15.82 71.738-55 69-1.586-.111-3.803.035-4 0-11.909-2.1-34.142-18.636-36-31l13-27.5c11.559-15.537 24.9-31.176 43.5-38.5 1.328-3.504-.61-.931-1.5-1l2-3c16.666 2.92 32.488 15.639 38 32" style="fill:url(#c)"/>/&gt;<path fill="#507482" d="M759 459c4.395 15.718 8.152 31.615 9 48h-12c.416-34.499-5.081-66.105-18-98 9.952 14.305 16.328 33.293 21 50"/><path fill="#fcfdfe" d="M404 478c-.049-.325.036-.671 0-1-3.845-34.68 17.366-68.928 55-66 .89.069 2.828-2.504 1.5 1-18.6 7.324-31.941 22.963-43.5 38.5z"/><path fill="#0d2445" d="M571 475c22.075 47.875-8.556 102.094-62 99-29.021-1.68-71.462-31.219-65-65 39.18 2.738 67.738-31.19 55-69 23.82-4.333 61.652 12.558 72 35m-27.5 30c-17.23 2.988-15.884 32.518 1 35 26.752 3.932 28.298-40.081-1-35m-69 31c-11.746 1.894-9.924 24.273 5 21 10.971-2.406 9.32-23.31-5-21"/><path fill="#051020" d="M187 449c2.822 1.246 1.312 3.339-1 4-2.638.755-16.985.415-18 1.5-1.353 1.447-2.819 34.64-3 39.5-.148 3.975.073 8.02 0 12-.657 35.938-.529 79.962 3 115.5.627 6.316 5.229 37.943 8 41.5l-2 4c-.19-.252-2.79 1.384-4-3.5-6.081-24.546-6.066-71.916-7-98.5-.303-8.63.18-17.362 0-26-.402-19.322-1.313-38.662-1-58 .13-8.029 1.347-16.466 2-24.5-8.989-.709-15.172-3.862-18 5.5-2.057 6.809-2.47 29.312-3 38-.97 15.905-.913 32.055-1 48-.222 40.524.483 80.765 9 120.5 1.155 1.715 24.63 4.512 28 4.5.659-.002 1.345.045 2 0 2.705 1.685 7.634.297 9.5 1 1.621.611-.747 2.603-.5 3-10.812-3.44-35.812-.047-43-7.5-32.486-33.684-33.664-138.023-18-180 4.529-12.139 13.772-22.676 16-35zm-65 79c-.268 2.041-.773 3.627-1 6-.963 10.069-1.265 19.884-1 30 .882 33.689 8.892 67.211 24.5 97l2.5-1.5c-6.24-29.05-7.463-58.835-8-88.5-.63-34.852.238-69.961 5-104.5-13.357 17.396-19.207 40.202-22 61.5"/><path fill="#040e1d" d="M832 676c.062-.082-2.144-.252-.5-2 5.783-.847 11.751-1.085 17.5-2 6.454-1.027 12.962-1.641 19.5-2 9.764-38.371 10.624-79.209 10.5-119-.054-17.337-1.273-34.696-2-52-.489-11.65.436-26.308-3-37-1.204-9.64-8.362-6.218-17-5.5 1.099 6.907 1.919 14.519 2 21.5.206 17.647-.153 35.352 0 53-2.518 10.826-.38 22.949-1 34-1.965 35.042-3.996 67.205-9 102l-5-3c4.279-5.26 9.254-49.32 10-58.5 2.343-28.84 2.313-61.452 2-90.5-.094-8.747.403-54.842-3-59.5-1.802-2.466-14.44-1.602-18-2.5-.247-1.458-1.95-1.643 0-4l41 5.5c1.913 11.668 10.605 21.533 15 33 16.308 42.549 15.964 147.824-17 182-7.423 7.696-31.125 4.502-42 6.5m50-143c.249 10.939.151 22.057 0 33-.098 7.103-.691 13.982-1 21-1.139 25.906-3.877 51.283-6.5 77 12.859-21.704 21.261-49.803 24.5-75 1.055-8.212 1.807-16.708 2-25 .774-33.22-4.935-69-23-96.5 1.035 21.758 3.504 43.69 4 65.5"/><path fill="#97d0d8" d="M186 453c-.897 14.492-6 28.661-8 43l-13-2c.181-4.86 1.647-38.053 3-39.5 1.015-1.085 15.362-.745 18-1.5"/><path fill="#70aab3" d="M856 515c-4.213 3.139-5.904-1.671-10-2-2.049-20.423-7.596-39.949-11-60 3.56.898 16.198.034 18 2.5 3.403 4.658 2.906 50.753 3 59.5"/><path fill="#179bb8" d="M726 501c1.641 80.418-49.411 161.348-121 197-30.461 15.17-68.416 23.668-102.5 23-.746-.015-1.777.011-2 0-9.868-.47-20.686-2.207-30.5-4-48.968-8.947-95.511-35.36-128-73l6 1.5a125 125 0 0 1-15-18.5l10-5c50.599 74.91 146.717 104.481 232 76-1.205 8.972 16.597-3.727 19-5.5l-4-.5c4.643-1.997 9.525-4.612 14-7 .697 5.68 9.969.03 7-4 3.773-2.208 7.39-4.547 11-7 4.767 1.733 19.719-7.291 16-12 59.263-49.601 85.149-128.186 68-204l13-4c3.844 15.42 6.674 31.023 7 47"/><path fill="#b7edf4" d="M162 481c-12.977-3.833-15.736-5.002-16-19 2.828-9.362 9.011-6.209 18-5.5-.653 8.034-1.87 16.471-2 24.5"/><path fill="#b6edf6" d="M874 462c1.8 14.414-2.114 13.155-13 19.5l-2-3.5c-.081-6.981-.901-14.593-2-21.5 8.638-.718 15.796-4.14 17 5.5"/><path fill="#89b2bc" d="M843 549c-1.785-1.014-4.5-19.321-8-15.5l-23 99c11.471-56.186 15.383-108.226 3-164.5l17.5 5-.5-15c7.834 30.869 10.124 59.21 11 91"/><path fill="#8de0ec" d="M162 481c-.313 19.338.598 38.678 1 58l-13-32.5-7-6.5c.53-8.688.943-31.191 3-38 .264 13.998 3.023 15.167 16 19"/><path fill="#88dce9" d="M877 499c-3.846 2.98-7.859 9.255-10 13.5-1.468 2.91-7.467 16.21-8 18.5-.153-17.648.206-35.353 0-53l2 3.5c10.886-6.345 14.8-5.086 13-19.5 3.436 10.692 2.511 25.35 3 37"/><path fill="#6ad5e8" d="M139 571c-3.767.281-1.264-4.997-2-6.5-.536-1.095-14.523-2.361-17-.5-.265-10.116.037-19.931 1-30 11.882 3.962 11.846-4.719 1-6 2.793-21.298 8.643-44.104 22-61.5-4.762 34.539-5.63 69.648-5 104.5"/><path fill="#68d7ea" d="M901 564c-3.163.195-8.369-1.346-11-1-5.112-6.643 3.128-37.277-8-30-.496-21.81-2.965-43.742-4-65.5 18.065 27.5 23.774 63.28 23 96.5"/><path fill="#5ec4e5" d="M551 567c-7.209 4.189-11.12 6.498-19.5 9l1.5 3c-.42.099-2.912 2.335-7 3 4.789-7.168-14.425-6.011-18.5-6l1.5-2c53.444 3.094 84.075-51.125 62-99 5.296-4.07 10.236 13.223 11 17.5 4.793 26.825-8.758 61.575-31 74.5"/><path fill="#cfe7ee" d="M385 484c-4.52 28.979-1.694 51.813 11 78h-44c-4.68-26.67-1.811-54.365 5-80.5 3.099-2.852 18.809 10.524 23.5 9.5 4.069-.888.633-7.071 4.5-7"/><path fill="#62c7d6" d="M178 496c-.772 5.536-.446 11.472-1 17-4.282-4.015-9.834-1.43-12-7 .073-3.98-.148-8.025 0-12z"/><path fill="#61cadd" d="M879 551c-13.177-5.43-12.111 10.59-21 14 .62-11.051-1.518-23.174 1-34 .533-2.29 6.532-15.59 8-18.5 2.141-4.245 6.154-10.52 10-13.5.727 17.304 1.946 34.663 2 52"/><path fill="#64cee0" d="M163 539c.18 8.638-.303 17.37 0 26-5.268.573-10.609-15.524-11.5-16-.421-.225-7.852.315-9.5-1 .087-15.945.03-32.095 1-48l7 6.5z"/><path fill="#96e7f4" d="M728 501c1.042 86.357-45.331 160.798-122 199l-1-2c71.589-35.652 122.641-116.582 121-197z"/><path fill="#f0f1f1" d="M543.5 505c29.298-5.081 27.752 38.932 1 35-16.884-2.482-18.23-32.012-1-35"/><path fill="#068ca9" d="M177 513c-6.486 64.768 5.75 95.578 11 155-3.29-1.547-9.618-1.943-12-5-2.771-3.557-7.373-35.184-8-41.5-3.529-35.538-3.657-79.562-3-115.5 2.166 5.57 7.718 2.985 12 7"/><path fill="#436775" d="M768 507c4.266 82.476-40.158 162.113-108 207-.069-3.988.493-8.054 0-12 60.797-47.08 95.073-118.167 96-195z"/><path fill="#62a9d0" d="M444 509c-6.462 33.781 35.979 63.32 65 65l-1.5 2c4.075-.011 23.289-1.168 18.5 6-27.071 4.404-58.966-5.527-75-27.5-10.046-13.767-13.226-28.725-11-45.5.197.035 2.414-.111 4 0"/><path fill="#06809a" d="M856 515c.313 29.048.343 61.66-2 90.5-.746 9.18-5.721 53.24-10 58.5-1.07 1.316-8.793 4.326-10 2.5 13.028-50.019 17.17-101.978 12-153.5 4.096.329 5.787 5.139 10 2"/><path fill="#baf4fb" d="M121 534c.227-2.373.732-3.959 1-6 10.846 1.281 10.882 9.962-1 6"/><path fill="#2dc9e3" d="M890 563c-.424.056-6.018 3.594-8 3 .151-10.943.249-22.061 0-33 11.128-7.277 2.888 23.357 8 30"/><path fill="#f3f5f5" d="M474.5 536c14.32-2.31 15.971 18.594 5 21-14.924 3.273-16.746-19.106-5-21"/><path fill="url(#d)" d="M163 565c.934 26.584.919 73.954 7 98.5 1.21 4.884 3.81 3.248 4 3.5 1.667 2.214 3.646 3.874 5 6-3.37.012-26.845-2.785-28-4.5-8.517-39.735-9.222-79.976-9-120.5 1.648 1.315 9.079.775 9.5 1 .891.476 6.232 16.573 11.5 16" style="fill:url(#d)"/>/&gt;<path fill="url(#e)" d="M879 551c.124 39.791-.736 80.629-10.5 119-6.538.359-13.046.973-19.5 2 .152-1.617-.228-3.417 0-5 5.004-34.795 7.035-66.958 9-102 8.889-3.41 7.823-19.43 21-14" style="fill:url(#e)"/>/&gt;<path fill="#9badb9" d="m437 743-4 10c-20.294-6.378-46.078-18.495-64-30-43.105-27.67-84.519-78.501-100-127.5-1.849-5.853-9.341-34.784-9-39 .019-.23 2.422-2.864 3-3.5 15.569 89.529 87.517 164.883 174 190"/><path fill="#0195b4" d="M139 571c.537 29.665 1.76 59.45 8 88.5l-2.5 1.5c-15.608-29.789-23.618-63.311-24.5-97 2.477-1.861 16.464-.595 17 .5.736 1.503-1.767 6.781 2 6.5"/><path fill="#01adcc" d="M901 564c-.193 8.292-.945 16.788-2 25l-18-2c.309-7.018.902-13.897 1-21 1.982.594 7.576-2.944 8-3 2.631-.346 7.837 1.195 11 1"/><path fill="#62a9d0" d="m533 579-1.5-3c8.38-2.502 12.291-4.811 19.5-9l4 2.5c2.731 5.413-19.038 8.8-22 9.5"/><path fill="#32a8bf" d="M742 581c-48.782 146.919-214.818 214.16-353 140 74.921 36.986 163.754 37.267 237.5-3 51.992-28.388 95.913-81.125 115.5-137"/><path fill="#85e5f3" d="M342 644c32.489 37.64 79.032 64.053 128 73l-4 3c-73.811-13.118-138.44-66.811-162-138 9.733 22.376 22.018 43.484 38 62"/><path fill="#0183a0" d="M899 589c-3.239 25.197-11.641 53.296-24.5 75 2.623-25.717 5.361-51.094 6.5-77z"/><path fill="#10afcd" d="M622 674c5.499-3.737 10.903-7.734 16-12 3.719 4.709-11.233 13.733-16 12"/><path fill="#093550" d="M188 668c.128 1.451 3.125 2.219 1.5 4-2.757-.937-6.611.872-8.5 1-.655.045-1.341-.002-2 0-1.354-2.126-3.333-3.786-5-6l2-4c2.382 3.057 8.71 3.453 12 5"/><path fill="#12b6d2" d="M604 685c2.408-1.285 4.657-2.629 7-4 2.969 4.03-6.303 9.68-7 4"/><path fill="#10b6d2" d="M575 698c4.947-1.652 10.19-3.931 15-6l4 .5c-2.403 1.773-20.205 14.472-19 5.5"/><path fill="#c9f6fd" d="m605 698 1 2c-45.704 22.773-89.325 29.006-140 20l4-3c9.814 1.793 20.632 3.53 30.5 4 .223.011 1.254-.015 2 0 34.084.668 72.039-7.83 102.5-23"/><path fill="#557482" d="M660 702c.493 3.946-.069 8.012 0 12 .017.959-1.092 1.095-1 2-.734.078-11.737 6.169-13 7h-18c10.601-5.851 22.431-13.59 32-21"/><path fill="#497283" d="m704 714-3 15c-40.155-7.736-64.321 21.363-57 60 .019.098-.502-.086 0 2-6.439 2.751-15.365 4.784-20 10-8.268-21.294-5.51-41.234 9-59.5 2.985-3.758 24.252-22.528 28-24.5 11.438-6.019 30.656-5.646 43-3"/><path fill="#84abb7" d="M363 729c30.453 25.391 36.328 64.754 10 95.5 7.669 8.813 17.74 15.459 30 11.5-7.064 79.948 119.886 77.564 170.5 63 42.545-12.242 61.916-58.463 33.5-94l10.5-15 6.5 12c13.947 33.183 43.999 45.016 78 36-15.645 17.832-37.064 31.685-58 43-108.651 58.72-246.36 41.135-333-47.5 17.699 1.137 45.668-13.124 53-29.5 21.367-32.538-10.413-85.664-50-71 4.224-4.977-8.764-3.446-11.5-3-11.618 1.892-30.838 16.072-29.5 29-.918 1.687-1.33 3.256-2 5-2.043 5.324-3.814 9.071-4 15-2.838-4.773-6.041-9.297-9-14 14.888-44.174 66.132-68.407 105-36"/><path fill="#326173" d="M760 760c-3.821 6.535-6.292 17.372-13 23 .258-7.911-3.337-18.306-7-25-7.135-13.041-24.328-26.173-39-29l3-15c22.68 4.862 48.155 23.625 56 46"/><path fill="#96b3c0" d="M659 716c.99-.105 2.038-.27 2 1-3.748 1.972-25.015 20.742-28 24.5-14.51 18.266-17.268 38.206-9 59.5.113.29-.119.717 0 1l-6.5-12-10.5 15c-40.162-50.226-197.13-46.757-204 31-12.26 3.959-22.331-2.687-30-11.5 26.328-30.746 20.453-70.109-10-95.5l6-6c17.922 11.505 43.706 23.622 64 30 75.802 23.823 147.748 12.908 213-30 1.263-.831 12.266-6.922 13-7"/><path fill="#3e687c" d="M803 737c-31.951 64.859-81.614 122.19-145.5 157-17.194 9.368-38.493 19.297-57.5 23 13.9-7.761 32.317-24.901 44-36 20.936-11.315 42.355-25.168 58-43 2.886-.765 3.771-.615 7-2 16.348-7.015 37.422-35.273 38-53 6.708-5.628 9.179-16.465 13-23 .363-.622 5.616-6.024 7-8.5 6.277-11.225 11.521-23.111 17.5-34.5 4.438-1.9 13.081 18.99 18.5 20"/><path fill="#859ca8" d="M646 723c-65.252 42.908-137.198 53.823-213 30l4-10c63.665 18.49 132.802 12.121 191-20z"/><path fill="#ade5ef" d="M701 729c14.672 2.827 31.865 15.959 39 29 3.84 11.395 3.663 18.724 1 30l-3 2.5c1.027-6.823 1.204-6.979 0-13.5-3.259-17.66-16.902-37.242-36-39-22.064-4.149-43.849 7.121-53 27.5l-5 23.5c-7.321-38.637 16.845-67.736 57-60"/><path fill="#5c8294" d="M314 733c-1.854.687-6.659.05-6 3-15.441 1.662-27.375 8.991-35 23-1.338-12.928 17.882-27.108 29.5-29 2.736-.446 15.724-1.977 11.5 3"/><path fill="#d1f4fb" d="M364 804c4.346-9.706 5.196-28.346-3-36-5.218-15.093-22.772-30.828-39-32-4.631-.435-9.374-.498-14 0-.659-2.95 4.146-2.313 6-3 39.587-14.664 71.367 38.462 50 71"/><path fill="#142d45" d="M322 736c-2.459-.178-11.894 1.467-15 2-9.578 1.642-14.086 2.64-22 9-6.99 5.617-8.476 10.82-14 17 .67-1.744 1.082-3.313 2-5 7.625-14.009 19.559-21.338 35-23 4.626-.498 9.369-.435 14 0"/><path fill="#006581" d="M361 768c.387 1.12.671 1.612 1 3l-1 1c-1.083-4.996-6.412-14.712-11-17.5 14.264 23.845 6.659 56.887-23.5 61.5-22.554 3.45-42.32-2.08-48.5-26 .16.619 7.318 7.611 6.5 11 4.689-.242 8.22 2.143 14.5 3 18.103 2.471 38.355-1.508 40-23.5 1.644-21.974-17.789-30.289-32-42.5 3.106-.533 12.541-2.178 15-2 16.228 1.172 33.782 16.907 39 32"/><path fill="#14425c" d="M702 738c-.649-.06-11.343.806-13 1-6.303.738-14.9 3.065-20.5 6-2.511 1.316-.1 2.398-1 3-.922.617-1.91-1.066-2-1-5.482 4.055-9.741 9.925-12.5 16-1.14 1.737-4.149 4.097-2.5 7 1.791-1.7 1.848-5.565 2.5-7 4.773-7.274 18.328-17.823 27-15-32.028 9.896-40.071 39.788-16 64 1.036 1.042 2.146 2.749 3 4-10.303-6.508-14.592-12.774-18.5-25 1.371 22.09 23.451 35.586 43.5 38 4.724.569 13.634 1.264 18 0-7.957 3.14-21.057 7.386-28 1 1.33.163 2.556-.511 3.5 1 2.708-1.279-15.536-6.558-18-8-2.682-1.569-11.538-9.571-13.5-12-2.444-3.025-8.866-15.286-10-20-.502-2.086.019-1.902 0-2l5-23.5c9.151-20.379 30.936-31.649 53-27.5"/><path fill="#07a8c7" d="M307 738c14.211 12.211 33.644 20.526 32 42.5-1.645 21.992-21.897 25.971-40 23.5-7.616-10.277-20.352-19.95-15-34 3.101-4.672 6.914-8.765 11.5-12 2.559-1.805 12.148-4.208 12.5-6 1.44-7.327-10.859-6.987-16-5-2.804-.633-7.521 3.744-7 0 7.914-6.36 12.422-7.358 22-9"/><path fill="#006480" d="M738 777c-5.139 1.948-2.376 10.35-4 15.5-8.545 27.099-51.255 36.249-69 17.5-2.604-2.752-5.541-10.242-7-14 2.817 7.29 11.586 8.775 19 10 24.203 3.999 46.003-4.709 41-33.5-2.724-15.673-23.349-20.073-29-33.5 1.657-.194 12.351-1.06 13-1 19.098 1.758 32.741 21.34 36 39"/><path fill="#07a7c5" d="M689 739c5.651 13.427 26.276 17.827 29 33.5 5.003 28.791-16.797 37.499-41 33.5-6.664-10.738-19.532-20.079-14-34 3.667-9.228 15.759-13.745 24-17.5-1.593-2.861-3.803-5.459-7-6.5-8.672-2.823-22.227 7.726-27 15 2.759-6.075 7.018-11.945 12.5-16 .09-.066 1.078 1.617 2 1 .9-.602-1.511-1.684 1-3 5.6-2.935 14.197-5.262 20.5-6m-3.5 30c-1.817.728-5.133 11.438-4.5 13.5.319 1.039 11.511 6.598 12.5 6.5 9.307-6.074 4.981-25.203-8-20"/><path fill="#093b63" d="M308 752c-11.836-15.352-34.079 10.007-36 22.5-2.933 19.079 7.717 30.819 20.5 42.5-9.811-5.491-19.309-16.87-21.5-28-3.256-16.539 4.777-35.73 21-42 5.141-1.987 17.44-2.327 16 5"/><path fill="#1f526b" d="M292 747c-16.223 6.27-24.256 25.461-21 42-2.581-.756-1.289 2.679-1 3.5 7.664 21.772 29.988 35.773 53 33.5v2c-5.822.89-19.024-3.648-13.5 4-12.097-.793-26.892-12.117-33.5-22-5.817-8.701-9.331-20.458-9-31 .186-5.929 1.957-9.676 4-15 5.524-6.18 7.01-11.383 14-17-.521 3.744 4.196-.633 7 0"/><path fill="#7fe1ec" d="M308 752c-.352 1.792-9.941 4.195-12.5 6-4.586 3.235-8.399 7.328-11.5 12-4.017 6.052-8.029 12.141-6 20 6.18 23.92 25.946 29.45 48.5 26 30.159-4.613 37.764-37.655 23.5-61.5 4.588 2.788 9.917 12.504 11 17.5 5.259 24.25-12.853 51.516-38 54-23.012 2.273-45.336-11.728-53-33.5-.289-.821-1.581-4.256 1-3.5 2.191 11.13 11.689 22.509 21.5 28-12.783-11.681-23.433-23.421-20.5-42.5 1.921-12.493 24.164-37.852 36-22.5"/><path fill="#b8e2e4" d="M680 748c3.197 1.041 5.407 3.639 7 6.5-8.241 3.755-20.333 8.272-24 17.5-7.207 7.25-8.692 14.445-5 24 1.459 3.758 4.396 11.248 7 14l-1 2c-24.071-24.212-16.028-54.104 16-64"/><path fill="#1b445b" d="M747 783c-.578 17.727-21.652 45.985-38 53l2-7c8.105-2.718 27.871-22.171 27-32 1.307-2.882 2.264-5.885 3-9 2.663-11.276 2.84-18.605-1-30 3.663 6.694 7.258 17.089 7 25"/><path fill="#07a7c5" d="M653 763c-.652 1.435-.709 5.3-2.5 7-1.649-2.903 1.36-5.263 2.5-7"/><path fill="#5c8998" d="M364 804c-7.332 16.376-35.301 30.637-53 29.5 86.64 88.635 224.349 106.22 333 47.5-11.683 11.099-30.1 28.239-44 36-16.389 9.151-54.378 14.068-73.5 15-99.981 4.874-191.649-40.204-255.5-115-2.164-4.918-.225-6.739 5-7 6.608 9.883 21.403 21.207 33.5 22-5.524-7.648 7.678-3.11 13.5-4 28.295-4.324 45.578-29.238 39-57-.329-1.388-.613-1.88-1-3 8.196 7.654 7.346 26.294 3 36"/><path fill="#25c8e2" d="M685.5 769c12.981-5.203 17.307 13.926 8 20-.989.098-12.181-5.461-12.5-6.5-.633-2.062 2.683-12.772 4.5-13.5"/><path fill="#017996" d="M299 804c-6.28-.857-9.811-3.242-14.5-3 .818-3.389-6.34-10.381-6.5-11-2.029-7.859 1.983-13.948 6-20-5.352 14.05 7.384 23.723 15 34"/><path fill="#132541" d="M323 828v-2c25.147-2.484 43.259-29.75 38-54l1-1c6.578 27.762-10.705 52.676-39 57"/><path fill="#0f364d" d="M607 805c28.416 35.537 9.045 81.758-33.5 94-50.614 14.564-177.564 16.948-170.5-63 6.87-77.757 163.838-81.226 204-31m-152-16c.659-5.238-13.575.889-15.5 2-22.474 12.969-34.39 34.081-31.5 60.5.103.937 5.202 21.771 8 14.5 4.816 10.499 20.5 22.118 32 24 .158 1.803-.188 1.478 1 3 6.335 8.118 72.294 8.76 84.5 8 10.802-.672 29.208-3.068 39.5-6 20.846-5.939 38.886-21.502 41-44 1.87-19.903-3.892-41.713-21.5-53-3.031-1.943-6.92-5.738-8.5-1-33.698-20.757-92.559-21.694-129-8"/><path fill="#017794" d="M677 806c-7.414-1.225-16.183-2.71-19-10-3.692-9.555-2.207-16.75 5-24-5.532 13.921 7.336 23.262 14 34"/><path fill="#b6f5fb" d="M741 788c-.736 3.115-1.693 6.118-3 9-2.26 4.983-6.456 10.836-10 15-20.544 16.869-38.364 18.298-61 4-.854-1.251-1.964-2.958-3-4l1-2c17.745 18.749 60.455 9.599 69-17.5 1.624-5.15-1.139-13.552 4-15.5 1.204 6.521 1.027 6.677 0 13.5z"/><path fill="#0c0b19" d="M584 797c19.921 12.27 28.295 30.739 26 54-2.001 20.278-16.807 33.215-35 40 .016-.474-.862-6.674-1-7-3.399-10.451-15.508-17.304-25.5-20-20.492-5.53-103.579-9.177-100.5 26-11.5-1.882-27.184-13.501-32-24-15.82-34.492 7.059-64.997 39-77 36.441-13.694 95.302-12.757 129 8m-48.5 4c-.634.278-1.643 6.387-2.5 7.5-13.79 17.899-31.502 18.144-46 1-.777-.919-2.729-7.21-3.5-7.5-1.193-.448-17.497 4.957-20 6-20.25 8.439-50.845 32.959-26 54 1.408 1.192 15.078 8.963 16 9 2.196.087 16.224-7.801 21-9 21.629-5.429 60.67-3.347 82 3 8.164 2.429 6.471 7.786 17 4 34.926-12.56 19.553-42.23-5-56-3.807-2.135-31.264-12.76-33-12"/><path fill="#12738c" d="M455 789c-31.941 12.003-54.82 42.508-39 77-2.798 7.271-7.897-13.563-8-14.5-2.89-26.419 9.026-47.531 31.5-60.5 1.925-1.111 16.159-7.238 15.5-2"/><path fill="#326173" d="M644 791c1.134 4.714 7.556 16.975 10 20 3.091 9.935 18.465 17.832 28 19 6.943 6.386 20.043 2.14 28-1 .308-.089.702.1 1 0l-2 7c-3.229 1.385-4.114 1.235-7 2-34.001 9.016-64.053-2.817-78-36-.119-.283.113-.71 0-1 4.635-5.216 13.561-7.249 20-10"/><path fill="#1ca8be" d="M667 816c22.636 14.298 40.456 12.869 61-4-10.006 11.756-19.927 16.447-36 17-20.049-2.414-42.129-15.91-43.5-38 3.908 12.226 8.197 18.492 18.5 25"/><path fill="#12738b" d="M614 851h-4c2.295-23.261-6.079-41.73-26-54 1.58-4.738 5.469-.943 8.5 1 17.608 11.287 23.37 33.097 21.5 53"/><path fill="#0e1e35" d="M711 829c-.298.1-.692-.089-1 0-4.366 1.264-13.276.569-18 0 16.073-.553 25.994-5.244 36-17 3.544-4.164 7.74-10.017 10-15 .871 9.829-18.895 29.282-27 32"/><path fill="#122237" d="M535.5 801c1.736-.76 29.193 9.865 33 12 24.553 13.77 39.926 43.44 5 56-10.529 3.786-8.836-1.571-17-4-21.33-6.347-60.371-8.429-82-3-4.776 1.199-18.804 9.087-21 9-.922-.037-14.592-7.808-16-9-24.845-21.041 5.75-45.561 26-54 2.503-1.043 18.807-6.448 20-6 .771.29 2.723 6.581 3.5 7.5 14.498 17.144 32.21 16.899 46-1 .857-1.113 1.866-7.222 2.5-7.5"/><path fill="#4693a4" d="M682 830c-9.535-1.168-24.909-9.065-28-19 1.962 2.429 10.818 10.431 13.5 12 2.464 1.442 20.708 6.721 18 8-.944-1.511-2.17-.837-3.5-1"/><path fill="#0e506b" d="M614 851c-2.114 22.498-20.154 38.061-41 44 .107-.79.674-1.205 1-2 .462-1.128.996-1.888 1-2 18.193-6.785 32.999-19.722 35-40z"/><path fill="#ecedec" d="M574 884c-11.449-27.117-96.444-25.679-116.5-10-6.467 5.056-8.302 10.818-7.5 19h-1c-1.188-1.522-.842-1.197-1-3-3.079-35.177 80.008-31.53 100.5-26 9.992 2.696 22.101 9.549 25.5 20"/><path fill="#8f8c8a" d="M574 884c.138.326 1.016 6.526 1 7-.004.112-.538.872-1 2-40.795 6.212-83.267 6.568-124 0-.802-8.182 1.033-13.944 7.5-19 20.056-15.679 105.051-17.117 116.5 10"/><path fill="#43899e" d="M574 893c-.326.795-.893 1.21-1 2-10.292 2.932-28.698 5.328-39.5 6-12.206.76-78.165.118-84.5-8h1c40.733 6.568 83.205 6.212 124 0"/></svg>