<svg xmlns="http://www.w3.org/2000/svg" width="1024" height="1024"><defs><linearGradient id="a" x1="778.432" x2="271.672" y1="304.586" y2="377.65" gradientUnits="userSpaceOnUse"><stop offset="22.852%" style="stop-color:#abdeee"/><stop offset="100%" style="stop-color:#5ebed4"/></linearGradient></defs><defs><linearGradient id="b" x1="558.68" x2="455.778" y1="360.406" y2="629.395" gradientUnits="userSpaceOnUse"><stop offset="0%" style="stop-color:#0b4161"/><stop offset="100%" style="stop-color:#00a6cd"/></linearGradient></defs><defs><linearGradient id="c" x1="544.597" x2="469.429" y1="448.854" y2="544.947" gradientUnits="userSpaceOnUse"><stop offset="0%" style="stop-color:#063043"/><stop offset="100%" style="stop-color:#084659"/></linearGradient></defs><defs><linearGradient id="d" x1="791.962" x2="286.671" y1="494.551" y2="679.282" gradientUnits="userSpaceOnUse"><stop offset="23.978%" style="stop-color:#bfe8f3"/><stop offset="100%" style="stop-color:#42a9be"/></linearGradient></defs><defs><linearGradient id="e" x1="736.604" x2="641.931" y1="666.969" y2="782.026" gradientUnits="userSpaceOnUse"><stop offset="0%" style="stop-color:#d4e9f5"/><stop offset="100%" style="stop-color:#a1c8e2"/></linearGradient></defs><path fill="#128dae" d="M837 406c-3.44-.443-.054 2.664-1 4.5-.537 1.041-13.026 15.72-15 18-22.542 26.036-43.801 38.1-76 49.5l-1-3c34.229-13.807 67.71-42.13 87-73.5-.214-2.627-3.507-5.453-4-6.5-4.724-10.029-9.729-22.737-15-32-11.049-22.975-24.003-44.898-39-65.5C649.104 127.303 417.919 113.661 273 266c-17.525 18.422-33.713 38.229-47 60-10.316 16.903-25.891 46.049-32 64.5-2.029 6.129-3.462 7.037-1 12.5-4.252-2.14-5.18 1.082-9 2-.654-1.126 1.454-3.76-3-3 29.566-79.671 58.896-133.189 129.5-184C513.372 72 763.153 179.062 837 406"/><path fill="url(#a)" d="M812 363c-.219-.384-5.44-5.57-6-6.5-.188-.311.687-7.682-4-4.5-3.799-10.678-11.857-21.957-18-31.5-50.273-78.096-143.157-148.208-240-142 13.801-.013 18.574 31.479 23.5 34.5.933.572 13.377 2.122 16 3 80.35 26.879 158.432 76.665 201.5 151.5 9.38 16.299 14.731 35.171 26 50.5-31.275 35.682-60.497 39.88-100 57-.723.314-2.456-.545-3 .5-.127 16.555.619 32.991-1 49.5-.299-13.146-2.591-30.246-2-43 .483-10.421 5.295-9.721 4-24-10.678-117.743-143.616-185.634-252-160-17.837 4.219-26.237 8.55-42 17-45.694 24.496-74.453 52.248-94 101-7.432 18.535-13.117 36.831-15 57-2.945-1.922-8.136-1.18-11-2-.173-.05-2.828-1.947-3-2-18.707-19.293-25.937-48.074-28-74.5-3.421-43.824 8.216-88.858 27-128-25.486 23.888-45.059 54.406-60 86-6.682 14.13-9.093 30.49-19 43-1.726-23.36 8.898-46.454 20-66.5 12.093-21.836 30.247-40.701 41-63 144.919-152.339 376.104-138.697 500 31.5 14.997 20.602 27.951 42.525 39 65.5M531 190c.247-2.76-2.586-3.557-4-5-6.254-6.382-.577-2.884-2-5.5-8.228-15.13-36.088-3.366-44 9-19.804 30.951 10.95 66.365 44 53-14.538-.666 4.193-7.884 9-14 3.871-4.925 8.273-14.814 7-21-.201-.979-2.742-.014-3-1-1.996-7.644-.336-8.49-7-15.5m39.5 29c5.315 22.599 14.052 44.719 12.5 68.5 47.279 15.239 91.95 46.074 125 83 7.177 8.019 26.987 38.048 33.5 41.5 2.546 1.349 5.055 2.702 8 1 8.445-31.191-11.153-66.212-28.5-91.5-35.82-52.22-89.176-87.177-150.5-102.5" style="fill:url(#a)"/>/&gt;<path fill="#ebf7fa" d="M527 185c-1.575 1.678 3.295 4.258 4 5 6.664 7.01 5.004 7.856 7 15.5.258.986 2.799.021 3 1 1.273 6.186-3.129 16.075-7 21-4.807 6.116-23.538 13.334-9 14-33.05 13.365-63.804-22.049-44-53 7.912-12.366 35.772-24.13 44-9 1.423 2.616-4.254-.882 2 5.5m-21.5-3c-28.489 3.978-31.945 49.413-2 54 44.43 6.806 41.159-59.468 2-54"/><path fill="#fcfefe" d="M802 352c6.648 18.684 6.712 41.966 13 61-1.444 1.83-2.408 3.183-4 5-11.269-15.329-16.62-34.201-26-50.5-43.068-74.835-121.15-124.621-201.5-151.5-2.623-.878-15.067-2.428-16-3-4.926-3.021-9.699-34.513-23.5-34.5 96.843-6.208 189.727 63.904 240 142 6.143 9.543 14.201 20.822 18 31.5"/><path fill="#092a3d" d="M505.5 182c39.159-5.468 42.43 60.806-2 54-29.945-4.587-26.489-50.022 2-54M490 220c16.899 26.332 56.65 1.94 37-26-2.762-3.928-7.16-8.208-12-9-20.368-3.332-36.808 16.601-25 35"/><path fill="#69afc3" d="M515 185v2c-.253-.029-2.623.99-5 1-2.11.008-3.101.655-5 1-6.071 1.102-3.249-1.629-10 4-3.57 2.977-5.601 4.147-7 9-1.626 5.642-1.185 13.001 2 18-11.808-18.399 4.632-38.332 25-35"/><path fill="#f6f9f9" d="M527 194c-4.984-.362-6.067-6.321-12-7v-2c4.84.792 9.238 5.072 12 9"/><path fill="#5b879e" d="M531 190c-.705-.742-5.575-3.322-4-5 1.414 1.443 4.247 2.24 4 5"/><path fill="#71c3d6" d="M527 194c19.65 27.94-20.101 52.332-37 26 7.144 11.213 29.751 12.961 37 0 3.216-5.749 4.636-12.223 2-19-2.668-6.859-4.691-1.254-7.5-3-3.396-2.111-7.83-7.668-11.5-10 2.377-.01 4.747-1.029 5-1 5.933.679 7.016 6.638 12 7"/><path fill="#006e93" d="M505 189c-9.301 1.718 7.494 19.222 9.5 20 10.908 4.229 7.047-9.376 14.5-8 2.636 6.777 1.216 13.251-2 19-4.877 2.094-6.114 5.657-12 7-4.246-11.723-16.269-20.451-20-34 6.751-5.629 3.929-2.898 10-4"/><path fill="#00a6ce" d="M510 188c3.67 2.332 8.104 7.889 11.5 10 2.809 1.746 4.832-3.859 7.5 3-7.453-1.376-3.592 12.229-14.5 8-2.006-.778-18.801-18.282-9.5-20 1.899-.345 2.89-.992 5-1"/><path fill="#014e71" d="M515 227c-17.182 3.922-27.943-8.33-27-25 1.399-4.853 3.43-6.023 7-9 3.731 13.549 15.754 22.277 20 34"/><path fill="#022138" d="M515 227c5.886-1.343 7.123-4.906 12-7-7.249 12.961-29.856 11.213-37 0-3.185-4.999-3.626-12.358-2-18-.943 16.67 9.818 28.922 27 25"/><path fill="#ecf9fc" d="M570.5 219c61.324 15.323 114.68 50.28 150.5 102.5 17.347 25.288 36.945 60.309 28.5 91.5-2.945 1.702-5.454.349-8-1-6.513-3.452-26.323-33.481-33.5-41.5-33.05-36.926-77.721-67.761-125-83 1.552-23.781-7.185-45.901-12.5-68.5"/><path fill="#59c1d8" d="M232 329c-1.943-2.53-2.385-3.576-6-3 13.287-21.771 29.475-41.578 47-60-10.753 22.299-28.907 41.164-41 63"/><path fill="#41a2bb" d="M292 469c-30.144-9.243-85.287-35.564-99-66-2.462-5.463-1.029-6.371 1-12.5 6.109-18.451 21.684-47.597 32-64.5 3.615-.576 4.057.47 6 3-11.102 20.046-21.726 43.14-20 66.5 9.907-12.51 12.318-28.87 19-43 14.941-31.594 34.514-62.112 60-86-18.784 39.142-30.421 84.176-27 128 2.063 26.426 9.293 55.207 28 74.5"/><path fill="#f3f8fa" d="M709 458c-2.481-5.149-2.641.04-7-5-3.865-4.469-8.864-28.694-12-36.5-8.296-20.651-19.923-36.545-35-52.5-38.329-40.561-81.853-59.282-137-67-27.7-3.877-34.63 2.087-58.5 4-1.486.119-6.753-1.159-2.5-3 108.384-25.634 241.322 42.257 252 160"/><path fill="#abbcc9" d="M518 297c-1.825 2.959-1.596 21.361-2.5 22-.784.554-14.123-.365-17 0-5.386.683-15.503 2.012-19.5 5-51.337 7.893-100.192 45.833-123 92-12.508 13.427-20.175 41.212-22 59.5-19.709 197.473 246.7 269.411 328 93.5 8.629-18.672 14.958-38.373 17-59 4.726-47.739-9.238-88.713-40-125l16-21c15.077 15.955 26.704 31.849 35 52.5 3.136 7.806 8.135 32.031 12 36.5-1.736 8.145-.644 18.161 0 26.5.02.257 2.729 7.243 3 2.5-.591 12.754 1.701 29.854 2 43-8.936 91.122-97.606 169.556-188 174-2.4-2.845 9.481-2.3 13-3 80.651-16.039 136.026-66.268 165-142.5-6.84-8.459-9.714-1.007-14.5 1.5-2.473 1.295-2.166-2.115-3.5-1.5-1.138.525-10.027 19.058-12 22-32.701 48.763-74.265 92.074-136 98.5-136.126 14.17-234.665-113.815-190-243 4.944-14.298 14.531-30.23 22-43.5 5.484-7.609 57.989-42.399 59-46 1.078-3.84-8.337-20.718-7-26.5 15.763-8.45 24.163-12.781 42-17-4.253 1.841 1.014 3.119 2.5 3 23.87-1.913 30.8-7.877 58.5-4"/><path fill="#c5d3dd" d="m655 364-16 21c-39.003-46.007-99.912-70.239-160-61 3.997-2.988 14.114-4.317 19.5-5 2.877-.365 16.216.554 17 0 .904-.639.675-19.041 2.5-22 55.147 7.718 98.671 26.439 137 67"/><path fill="#7a92a2" d="M415 315c-1.337 5.782 8.078 22.66 7 26.5-1.011 3.601-53.516 38.391-59 46-7.469 13.27-17.056 29.202-22 43.5l-20-15c19.547-48.752 48.306-76.504 94-101"/><path fill="#032231" d="M639 385c30.762 36.287 44.726 77.261 40 125-.447-14.113-3.507-11.162-16-12 1.207-44.289-16.974-83.853-48.5-114l.5 8c-7.368-18.095-22.92-35.936-44.5-31l13.5-2.5-10-1.5c-74.511-41.969-162.628-11.667-203 62l-15-2c.13-.27-.133-.732 0-1 22.808-46.167 71.663-84.107 123-92 60.088-9.239 120.997 14.993 160 61"/><path fill="url(#b)" d="M574 357c-22.057 8.754-30.438 26.983-37 48-24.218-7.789-41.124-4.53-63 6-53.393 25.702-73.674 90.351-37 139 0 1.22-3.012 3.007-3 3.5.045 1.8 23.249 24.131 28 20.5 5.635 3.912 16.372 9.118 23 11 36.797 10.447 70.18-.899 93-31 6.528-8.611 10.604-14.385 14-25 2.903-9.075 3.69-18.316 6-27.5-1.481-.75-3.169.83-5 1.5 30.569-24.747 36.187-76.159 22-111l-.5-8c31.526 30.147 49.707 69.711 48.5 114-.055 2.025-.794 5.35-1 8-.153 1.964.216 4.052 0 6-6.211 55.989-47.15 108.395-99.5 129-136.711 53.809-262.258-92.888-191.5-222 40.372-73.667 128.489-103.969 203-62m-101.5 3L457 374.5c5.063-4.603 19.462-6.321 15.5-14.5m-47 26c-22.549 17.859-44.73 44.865-51.5 73.5-2.126 8.992-6.989 24.41 8 19 1.294-36.099 21.175-65.887 43.5-92.5m-55 117c-3.217 66.503 70.865 151.326 140.5 119.5-24.139-3.841-47.954-7.25-69.5-19.5-22.364-12.715-45.305-40.537-54.5-64.5-2.557-6.664-5.234-25.661-7-29-.967-1.827-8.015-3.974-9.5-6.5" style="fill:url(#b)"/>/&gt;<path fill="#b2dae8" d="M812 363c5.271 9.263 10.276 21.971 15 32-4.712 5.326-7.671 12.512-12 18-6.288-19.034-6.352-42.316-13-61 4.687-3.182 3.812 4.189 4 4.5.56.93 5.781 6.116 6 6.5"/><path fill="#e0f1f3" d="m574 357 10 1.5-13.5 2.5c21.58-4.936 37.132 12.905 44.5 31 14.187 34.841 8.569 86.253-22 111-3.312 1.212-8.965 5.472-11 6-49.923 12.945-56.114-55.102-50-88 .868-4.669 3.514-11.241 5-16 6.562-21.017 14.943-39.246 37-48"/><path fill="#196a8c" d="M472.5 360c3.962 8.179-10.437 9.897-15.5 14.5z"/><path fill="#72d0e2" d="M425.5 386c-22.325 26.613-42.206 56.401-43.5 92.5-14.989 5.41-10.126-10.008-8-19 6.77-28.635 28.951-55.641 51.5-73.5"/><path fill="#016886" d="M744 475c-9.474 3.822-20.728 5.515-30 10-2.091-2.372-1.509-4.403-2-7-.207-1.092-1.468-1.557-1-3 39.503-17.12 68.725-21.318 100-57 1.592-1.817 2.556-3.17 4-5 4.329-5.488 7.288-12.674 12-18 .493 1.047 3.786 3.873 4 6.5-19.29 31.37-52.771 59.693-87 73.5"/><path fill="#00abd1" d="M537 405c-1.486 4.759-4.132 11.331-5 16-13.942-8.359-32.5-5.33-47 0l-7.5 2-3.5-12c21.876-10.53 38.782-13.789 63-6"/><path fill="#025b74" d="M184 405c19.116 32.884 61.716 57.09 96 71-6.782 8.084 15.687 8.744 21 11-.706 4.32-.818 9.585-1 14h-1l-25.5-6c-23.1-8.158-43.979-21.117-62.5-37-11.464-9.831-21.165-21.541-32-32 .51-5.492 1.612-11.466 1-17 .406-.97.425-5.451 1-7 4.454-.76 2.346 1.874 3 3"/><path fill="#01516b" d="M193 403c13.713 30.436 68.856 56.757 99 66 .172.053 2.827 1.95 3 2v10c-4.507-1.936-10.167-3.039-15-5-34.284-13.91-76.884-38.116-96-71 3.82-.918 4.748-4.14 9-2"/><path fill="#01627b" d="M837 406c1.022 3.14 1.785 5.88 3 9 .757 1.943-2.526 3.987 3 7-.74 1.965-.195 4.839 0 7-5.012-3.458-3.302-1.417-6 0-7.508 3.943-32.112 35.037-45 44-22.266 15.485-50.221 24.23-76.5 30-2.611 1.655-1.976 2.799-2.5 5-4.017.465-2.709-.799-3-3.5-.673-6.258-.189-15.471 0-22 .053-1.827-1.001-4.938 2-4.5.491 2.597-.091 4.628 2 7 .18.205-.424 1.651.5 2 4.133 1.559 25.189-7.119 30.5-9 32.199-11.4 53.458-23.464 76-49.5 1.974-2.28 14.463-16.959 15-18 .946-1.836-2.44-4.943 1-4.5"/><path fill="#042135" d="M179 426a710 710 0 0 0-1 12c-1.055 13.922-3.184 30.189-2 44-3.1 2.629-1.943 7.996-2 12-.745 51.905 6.105 107.374 27 155 3.838 8.749 9.239 18.664 14 27l-3 5c-10.09-2.589-29.317 3.218-39.5-2-10.59-5.426-14.173-30.225-19.5-38.5-2.333-3.624-11.109-8.307-15-13-24.03-28.986-27.851-109.501-10-142 1.3-2.367 8.3-7.117 9-9 3.792-10.194.335-35.443 5-46 6.173-13.97 32.446-8.218 38-21.5.612 5.534-.49 11.508-1 17m-21 1c-5.716 2.294-9.589 2.125-12 9.5-11.084 33.908-4.06 131.697 3 168.5 2.786 14.522 13.005 53.817 22 64.5 9.002 10.692 21.674 2.356 33.5 5.5l1-2c-12.391-22.836-22.664-50.685-28.5-76-.434-1.884-.602-4.103-1-6-11.265-53.682-10.489-113.358-2-167.5-1.204-1.689-13.773 2.606-16 3.5m-38 90c-2.11 15.402-1.454 29.583 0 45 1.373 14.56 3.435 26.167 8 40 3.655 11.077 12.073 34.424 26 31.5-7.707-13.159-6.398-52.317-13-62.5 2.343-5.267-.502-10.849-1-16-1.458-15.081.181-32.375-2-47l-1.5-28c-11.222 8.858-14.628 23.335-16.5 37"/><path fill="#04c7e4" d="m474 411 3.5 12 7.5-2c-55.567 20.425-70.62 98.514-22.5 136 44.038 34.306 104.377 10.494 119.5-41-.879 10.318.376 9.177 10 13-3.396 10.615-7.472 16.389-14 25-8.558 3.278-15.568 11.425-23.5 16-22.558 13.01-43.613 16.296-69.5 15-6.628-1.882-17.365-7.088-23-11-6.826-4.739-19.981-17.342-25-24-36.674-48.649-16.393-113.298 37-139"/><path fill="#015168" d="M371 419c-70.758 129.112 54.789 275.809 191.5 222 52.35-20.605 93.289-73.011 99.5-129 21.727 4.344 15.454-1.394 0-6 .206-2.65.945-5.975 1-8 12.493.838 15.553-2.113 16 12-2.042 20.627-8.371 40.328-17 59-27.268 47.829-75.337 88.082-131.5 95C391.167 681.162 295.139 543.058 356 417Z"/><path fill="#032235" d="m796 690-1-1c11.422-18.039 21.579-37.192 27-58 7.197-16.408 13.425-46.927 16-65 2.602-18.268 4.386-37.666 3-56 .785-4.509 2.944-12.195-1-15 4.453-21.556-2.102-44.235-3-66 2.698-1.417.988-3.458 6 0 3.217 35.58 7.162 71.08 5 107-1.042 17.304-4.589 42.946-8 60-5.272 26.359-15.435 53.162-25.5 78 7.602-2.082 24.943 2.734 31 1 11.506-3.294 24.233-57.959 26.5-70 8.452-44.901 13.725-118.913 5-163.5-4.113-21.017-21.257-12.551-34-19.5-5.526-3.013-2.243-5.057-3-7 12.735 4.44 35.879 3.085 41 18.5 3.838 11.554.788 34.312 4 44 .328.989 10.527 10.703 13 16 13.635 29.205 7.275 104.581-12 131-3.93 5.386-13.306 10.921-16 15-5.454 8.256-9.84 37.599-21.5 40.5l-46 2c-1.064.336-5.506 6.54-6.5 8m92-132c1.019 1.901-1.029 5.697-1 6-11.712 4.655-9.681 25.756-12 37.5-2.377 12.038-5.638 23.952-8 36 15.061-5.2 22.374-21.615 27-35.5 4.676-14.034 5.652-24.436 7-39 1.487-16.076 3.231-29.131 1-46-1.245-9.41-5.327-25.122-12-32-1.736-1.79-3.617-5.155-7-3.5 2.424 19.983-1.995 40.144-2 60-.003 10.422-2.613 11.686 7 16.5"/><path fill="#517488" d="M341 431c-44.665 129.185 53.874 257.17 190 243-.987 3.699 7.355 15.859 7 17.5-.654 3.018-6.165.945-6 4.5-3.519.7-15.4.155-13 3-6.089.299-12.895.223-19 0-117.331-4.284-207.877-108.456-192-225.5l-2-.5c1.883-20.169 7.568-38.465 15-57z"/><path fill="#f0f6f8" d="M356 416c-.133.268.13.73 0 1-60.861 126.058 35.167 264.162 174.5 247 56.163-6.918 104.232-47.171 131.5-95-81.3 175.911-347.709 103.973-328-93.5 1.825-18.288 9.492-46.073 22-59.5"/><path fill="url(#c)" d="M532 421c-6.114 32.898.077 100.945 50 88 2.121 1.434.195 4.71 0 7-15.123 51.494-75.462 75.306-119.5 41-48.12-37.486-33.067-115.575 22.5-136 14.5-5.33 33.058-8.359 47 0" style="fill:url(#c)"/>/&gt;<path fill="#bcdbeb" d="M872 605c-1.134-.874-1.984-.715-3-1 4.043-4.734 8.353-51.136 7-53.5-.66-1.153-3.154.16-4-1 1.684-19.909 2.649-39.991 2-60-.326-10.037-1.87-44.055-4-52-1.58-5.891-20.738-9.184-22-6 4.362 38.273 5.505 77.087 2.5 115.5l-2.5-11c2.162-35.92-1.783-71.42-5-107-.195-2.161-.74-5.035 0-7 12.743 6.949 29.887-1.517 34 19.5 8.725 44.587 3.452 118.599-5 163.5"/><path fill="#e0eef3" d="M176 591c-2.196 4.584-3.896-5.975-4-6.5-9.8-49.525-6.511-105.032-2-155-.497-.944-6.738 1.185-8 1.5.859-4.6-2.165-1.761-4-4 2.227-.894 14.796-5.189 16-3.5-8.489 54.142-9.265 113.818 2 167.5"/><path fill="#338ea4" d="M211 458c-4.359.184-.941 3.547 0 5 .769 36.274 11.916 71.158 24 105 5.586 15.644 13.912 30.773 17 47-29.647-32.084-56.727-68.796-70-111 1.111-7.982 2.344-67.031-.5-69l-3.5 3c.306-4.035.627-7.981 1-12 10.835 10.459 20.536 22.169 32 32"/><path fill="#bddbe9" d="M158 427c1.835 2.239 4.859-.6 4 4-3.76.937-8.824 2.081-10 6.5-3.263 12.259-4.801 50.977-5 65-.469 33.005 3.192 68.101 9 100.5-2.189.646-4.5 2.316-7 2-7.06-36.803-14.084-134.592-3-168.5 2.411-7.375 6.284-7.206 12-9.5"/><path fill="#acc0d0" d="M176 591c.398 1.897.566 4.116 1 6-7.007 1.916-14.034 3.945-21 6-5.808-32.399-9.469-67.495-9-100.5.199-14.023 1.737-52.741 5-65 1.176-4.419 6.24-5.563 10-6.5 1.262-.315 7.503-2.444 8-1.5-4.511 49.968-7.8 105.475 2 155 .104.525 1.804 11.084 4 6.5"/><path fill="#97d0e3" d="M837 429c.898 21.765 7.453 44.444 3 66-7.819 37.848-34.796 68.125-55 99h-1c11.681-22.084 17.131-94.266 22-124 .133-.815 1.13-4.827.5-5-3.467 2.347-6.482 5.811-10 8-.371.231-5.256 3.193-4.5 0 12.888-8.963 37.492-40.057 45-44"/><path fill="#aac0d0" d="M869 604c-.308-.086-.685.076-1 0-6.732-1.628-13.375-4.007-20-6-2.659-.8-5.303-1.384-8-2 3.411-17.054 6.958-42.696 8-60l2.5 11c3.005-38.413 1.862-77.227-2.5-115.5 1.262-3.184 20.42.109 22 6 2.13 7.945 3.674 41.963 4 52 .649 20.009-.316 40.091-2 60 .846 1.16 3.34-.153 4 1 1.353 2.364-2.957 48.766-7 53.5"/><path fill="#56b5cb" d="M182 504c-2.336-7.426-5.317-14.037-6-22-1.184-13.811.945-30.078 2-44l3.5-3c2.844 1.969 1.611 61.018.5 69"/><path fill="#beced9" d="M709 458c1.295 14.279-3.517 13.579-4 24-.271 4.743-2.98-2.243-3-2.5-.644-8.339-1.736-18.355 0-26.5 4.359 5.04 4.519-.149 7 5"/><path fill="#2994ae" d="M211 458c18.521 15.883 39.4 28.842 62.5 37l25.5 6c-25.452 5.65-74.301-16.841-88-38-.941-1.453-4.359-4.816 0-5"/><path fill="url(#d)" d="M299 501h1c-.014.333.01.667 0 1-2.499 82.238 39.161 152.328 111 191 47.168 25.391 93.564 31.644 146 18 57.914-15.07 107.445-60.449 135-112.5l-6-.5c21.413-36.002 18.979-50.944 27-89 1.819 2.335 8.028.524 10.5 0 31.753-6.725 56.429-20.474 82.5-39-4.869 29.734-10.319 101.916-22 124-7.311 13.822-41.45 44.971-54.5 56C591.729 766.433 401.501 757.724 271 635l-32-69.5-4 2.5c-12.084-33.842-23.231-68.726-24-105 13.699 21.159 62.548 43.65 88 38" style="fill:url(#d)"/>/&gt;<path fill="#e1f3f8" d="M806 470c-26.071 18.526-50.747 32.275-82.5 39-2.472.524-8.681 2.335-10.5 0 .067-.319-.075-.685 0-1 .524-2.201-.111-3.345 2.5-5 26.279-5.77 54.234-14.515 76.5-30-.756 3.193 4.129.231 4.5 0 3.518-2.189 6.533-5.653 10-8 .63.173-.367 4.185-.5 5"/><path fill="#033549" d="m306 473 2 .5C292.123 590.544 382.669 694.716 500 699l-2 5c-.66-.026-1.341.035-2 0-25.895-1.379-58.878-10.352-82-22-49.715-25.044-87.003-73.092-104-125.5L300 502c.01-.333-.014-.667 0-1 .182-4.415.294-9.68 1-14 .047-.29 4.536.158.5-4-2.621.546-4.366-1.083-6.5-2v-10c2.864.82 8.055.078 11 2"/><path fill="#052032" d="M711 475c-.468 1.443.793 1.908 1 3-3.001-.438-1.947 2.673-2 4.5-.189 6.529-.673 15.742 0 22 .291 2.701-1.017 3.965 3 3.5-.075.315.067.681 0 1-8.021 38.056-5.587 52.998-27 89-39.285 66.051-109.972 109.021-188 106l2-5c6.105.223 12.911.299 19 0 90.394-4.444 179.064-82.878 188-174 1.619-16.509.873-32.945 1-49.5.544-1.045 2.277-.186 3-.5"/><path fill="#08c1df" d="m744 475 1 3c-5.311 1.881-26.367 10.559-30.5 9-.924-.349-.32-1.795-.5-2 9.272-4.485 20.526-6.178 30-10"/><path fill="#07a4c4" d="M295 481c2.134.917 3.879 2.546 6.5 2 4.036 4.158-.453 3.71-.5 4-5.313-2.256-27.782-2.916-21-11 4.833 1.961 10.493 3.064 15 5"/><path fill="#a9c4d0" d="M138 508c-.432-2.898-1.331-5.986-1.5-9-3.016-.678-2.887 1.835-4.5 3-6.917 4.995-5.653 10.897-12 15 1.872-13.665 5.278-28.142 16.5-37z"/><path fill="#94c0ce" d="M890 485c-1.671 4.598-1.199 11.111-1 16 .775 19.023-.242 38.059 2 57-.642-.286-2.423.289-3 0-9.613-4.814-7.003-6.078-7-16.5.005-19.856 4.424-40.017 2-60 3.383-1.655 5.264 1.71 7 3.5"/><path fill="#03364d" d="M182 504c13.273 42.204 40.353 78.916 70 111 6.287 6.804 12.226 13.63 19 20 130.501 122.724 320.729 131.433 458.5 15 13.05-11.029 47.189-42.178 54.5-56h1c-1.576 2.409-11.011 14.24-3 12-85.92 97.878-196.095 146.31-328 127-52.613-7.702-84.329-25.568-130-49l-57-45c-33.396-33.563-63.548-68.825-82-113-2.081-4.983-7.989-16.194-9-20.5-.694-2.954 2.019-10.309-2-11.5.057-4.004-1.1-9.371 2-12 .683 7.963 3.664 14.574 6 22"/><path fill="#aec6d1" d="M902 517c-6.509 1.162-6.827-13.995-13-16-.199-4.889-.671-11.402 1-16 6.673 6.878 10.755 22.59 12 32"/><path fill="#396175" d="m185 526-1 1c-.61-1.195-6.421-14.435-8-11.5 2.001 15.787.627 31.837 6 47 46.1 62.09 81.632 156.73 140.5 206.5 17.693 14.958 38.865 25.471 57.5 39-57.837-22.247-111.728-61.206-147-112.5-8.838-12.853-16.755-32.216-26-44-1.344-1.714-3.475-4.663-6-2.5-20.895-47.626-27.745-103.095-27-155 4.019 1.191 1.306 8.546 2 11.5 1.011 4.306 6.919 15.517 9 20.5"/><path fill="#04637e" d="M841 510c-.244 1.4-2.303 6.473-3 9-13.356 32.872-32.816 60.589-56 87-8.011 2.24 1.424-9.591 3-12 20.204-30.875 47.181-61.152 55-99 3.944 2.805 1.785 10.491 1 15"/><path fill="#a9cdd8" d="M138 508c2.181 14.625.542 31.919 2 47-2.44.016-4.785 1.178-7 2l-1-55c1.613-1.165 1.484-3.678 4.5-3 .169 3.014 1.068 6.102 1.5 9"/><path fill="#00abd1" d="M592 529c-9.624-3.823-10.879-2.682-10-13 .195-2.29 2.121-5.566 0-7 2.035-.528 7.688-4.788 11-6 1.831-.67 3.519-2.25 5-1.5-2.31 9.184-3.097 18.425-6 27.5"/><path fill="#f8fbfe" d="M902 517c2.231 16.869.487 29.924-1 46a124 124 0 0 0-10-5c-2.242-18.941-1.225-37.977-2-57 6.173 2.005 6.491 17.162 13 16"/><path fill="#f8fcfd" d="m132 502 1 55c-4.362 1.619-8.467 3.95-13 5-1.454-15.417-2.11-29.598 0-45 6.347-4.103 5.083-10.005 12-15"/><path fill="#045266" d="m414 682-3 11c-71.839-38.672-113.499-108.762-111-191l10 54.5c16.997 52.408 54.285 100.456 104 125.5"/><path fill="#33e0f3" d="M370.5 503c1.485 2.526 8.533 4.673 9.5 6.5 1.766 3.339 4.443 22.336 7 29 9.195 23.963 32.136 51.785 54.5 64.5 21.546 12.25 45.361 15.659 69.5 19.5-69.635 31.826-143.717-52.997-140.5-119.5"/><path fill="#032231" d="M662 512c.216-1.948-.153-4.036 0-6 15.454 4.606 21.727 10.344 0 6"/><path fill="#436a7f" d="M838 566c-8.725 9.529-15.427 20.814-24 30.5-8.687 9.815-29.787 31.533-40 38.5-7.33 5-2.377-1.908-5.5 2l-3.5-4c27.754-28.868 62.449-75.758 73-114 .697-2.527 2.756-7.6 3-9 1.386 18.334-.398 37.732-3 56"/><path fill="#2d495b" d="M184 527c24.093 47.16 37.051 73.201 77 113 12.125 12.08 22.41 20.71 36 31 11.417 8.645 22.676 16.683 35 24-2.211 1.65-1.621 1.924-1 4.5 5.776 23.954 20.876 53.195 34 74 3.669 5.816 12.93 14.424 16 20 .394.715.64 8.413 1 9 1.915 3.122 16.619 4.04 19.5 6.5 2.669 2.28.76 5.064 2 6 .505.381 10.268 3.455 12 4 10.254 3.225 23.446 3.908 32 5 1.01.129 12.664 5.694 10.5-1 7.652 1.814 17.502 2.801 25.5 4 3.8.57 12.631-1.62 15.5 5-14.19-.491-30.934-2.004-45-4-25.623-3.637-49.942-10.746-74-20-18.635-13.529-39.807-24.042-57.5-39-58.868-49.77-94.4-144.41-140.5-206.5-5.373-15.163-3.999-31.213-6-47 1.579-2.935 7.39 10.305 8 11.5"/><path fill="#a9daec" d="M765 633c-6.555 6.818-13.917 13.714-21 20-16.734 14.851-34.805 27.603-54 39-.887.527-2.535 1.158-4 2-72.79 41.869-151.3 56.532-235 44 .036-.328-.057-.68 0-1 .549-3.078 1.322-2.2 3-4 131.905 19.31 242.08-29.122 328-127 23.184-26.411 42.644-54.128 56-87-10.551 38.242-45.246 85.132-73 114"/><path fill="#1e7392" d="M267 639c-2.964-.94-4.44-2.796-6 1-39.949-39.799-52.907-65.84-77-113l1-1c18.452 44.175 48.604 79.437 82 113"/><path fill="#008eb0" d="M462 574c-4.751 3.631-27.955-18.7-28-20.5-.012-.493 3-2.28 3-3.5 5.019 6.658 18.174 19.261 25 24"/><path fill="#7a92a2" d="M532 696c-.165-3.555 5.346-1.482 6-4.5.355-1.641-7.987-13.801-7-17.5 61.735-6.426 103.299-49.737 136-98.5 1.973-2.942 10.862-21.475 12-22 1.334-.615 1.027 2.795 3.5 1.5 4.786-2.507 7.66-9.959 14.5-1.5-28.974 76.232-84.349 126.461-165 142.5"/><path fill="#76e0ef" d="M578 554c-22.82 30.101-56.203 41.447-93 31 25.887 1.296 46.942-1.99 69.5-15 7.932-4.575 14.942-12.722 23.5-16"/><path fill="#6b94a2" d="M140 555c.498 5.151 3.343 10.733 1 16-1.806-2.785-4.753-5.07-8-3.5-1.669 12.861 9.037 26.521-5 34.5-4.565-13.833-6.627-25.44-8-40 4.533-1.05 8.638-3.381 13-5 2.215-.822 4.56-1.984 7-2"/><path fill="#6f98a6" d="M891 558a124 124 0 0 1 10 5c-1.348 14.564-2.324 24.966-7 39-12.539-8.117-5.661-16.174-5-27.5.339-5.803-1.688-7.213-2-10.5-.029-.303 2.019-4.099 1-6 .577.289 2.358-.286 3 0"/><path fill="#0d4153" d="M887 564c.312 3.287 2.339 4.697 2 10.5-.661 11.326-7.539 19.383 5 27.5-4.626 13.885-11.939 30.3-27 35.5 2.362-12.048 5.623-23.962 8-36 2.319-11.744.288-32.845 12-37.5"/><path fill="#58c1d6" d="M271 635c-6.774-6.37-12.713-13.196-19-20-3.088-16.227-11.414-31.356-17-47l4-2.5z"/><path fill="#8babb8" d="M838 566c-2.575 18.073-8.803 48.592-16 65-5.354 12.207-18.688 34.559-26 46.5-25.586 41.787-55.503 75.807-97 102.5 1.102-4.013 20.862-28.646 25-35.5 16.888-27.97 34.374-66.724 42-98.5l8-11c10.213-6.967 31.313-28.685 40-38.5 8.573-9.686 15.275-20.971 24-30.5"/><path fill="#0b4153" d="M141 571c6.602 10.183 5.293 49.341 13 62.5-13.927 2.924-22.345-20.423-26-31.5 14.037-7.979 3.331-21.639 5-34.5 3.247-1.57 6.194.715 8 3.5"/><path fill="#4f7e94" d="m848 598-2 3c-.241-.239-2.063.707-2.5-2-7.049 22.636-13.014 46.624-23.5 68.5 3.699.422 21.586 6.006 23.5 5.5 3.085-.816 14.708-35.742 16.5-41 3.103-9.106 7.915-17.911 8-28 .315.076.692-.086 1 0 1.016.285 1.866.126 3 1-2.267 12.041-14.994 66.706-26.5 70-6.057 1.734-23.398-3.082-31-1 10.065-24.838 20.228-51.641 25.5-78 2.697.616 5.341 1.2 8 2"/><path fill="#567689" d="M177 597c5.836 25.315 16.109 53.164 28.5 76l-1 2c-11.826-3.144-24.498 5.192-33.5-5.5-8.995-10.683-19.214-49.978-22-64.5 2.5.316 4.811-1.354 7-2 6.966-2.055 13.993-4.084 21-6m-1.5 6c-.621 5.612-14.29 25.574-14.5 28.5-.161 2.237 15.382 39.874 17.5 40.5 3.579 1.058 15.285-3.248 20-2z"/><path fill="#4e8a99" d="M557 711c-2.728-2.711-7.065.932-7.5 1-6.964 1.08-49.674 5.359-53 3-1.222-.867-.13-8.925-.5-11 .659.035 1.34-.026 2 0 78.028 3.021 148.715-39.949 188-106l6 .5c-27.555 52.051-77.086 97.43-135 112.5"/><path fill="#617789" d="M868 604c-.085 10.089-4.897 18.894-8 28-4.214-6.237-9.52-26.563-14-31l2-3c6.625 1.993 13.268 4.372 20 6"/><path fill="#2f4152" d="M846 601c4.48 4.437 9.786 24.763 14 31-1.792 5.258-13.415 40.184-16.5 41-1.914.506-19.801-5.078-23.5-5.5 10.486-21.876 16.451-45.864 23.5-68.5.437 2.707 2.259 1.761 2.5 2"/><path fill="#2f4355" d="m175.5 603 23 67c-4.715-1.248-16.421 3.058-20 2-2.118-.626-17.661-38.263-17.5-40.5.21-2.926 13.879-22.888 14.5-28.5"/><path fill="#a7daea" d="M795 689c-24.202 38.223-57.835 71.828-96 96 .863-1.198-.066-4.759 0-5 41.497-26.693 71.414-60.713 97-102.5 7.312-11.941 20.646-34.293 26-46.5-5.421 20.808-15.578 39.961-27 58"/><path fill="#497f95" d="m774 635-8 11c.278-1.157 1.364-7.428.5-8-5.605 6.316-12.155 11.507-18.5 17l-4-2c7.083-6.286 14.445-13.182 21-20l3.5 4c3.123-3.908-1.83 3 5.5-2"/><path fill="#4195b1" d="m267 639 57 45c-1.379-.708-2.484 1.516-3.5 1-8.025-4.078-14.916-11.392-23.5-14-13.59-10.29-23.875-18.92-36-31 1.56-3.796 3.036-1.94 6-1"/><path fill="url(#e)" d="M766 646c-7.626 31.776-25.112 70.53-42 98.5-4.138 6.854-23.898 31.487-25 35.5-.066.241.863 3.802 0 5-6.472 4.099-13.278 7.377-20 11 .655-3.161-3.81-.357-4.5 0-2.364 1.222-13.677 8.025-15 8-2.62-.05-.912-2.905-2-3-5.125-.446-5.6 1.985-10.5 4-9.711 2.191-24.178-.785-33 2l-1-4c43.178-20.525 63.743-63.794 73-109 1.465-.842 3.113-1.473 4-2 23.253-4.329 40.707-22.028 58-37 6.345-5.493 12.895-10.684 18.5-17 .864.572-.222 6.843-.5 8" style="fill:url(#e)"/>/&gt;<path fill="#70bdd0" d="M380 808c24.058 9.254 48.377 16.363 74 20l-4 5c-97.032-14.975-186.099-71.382-235-157-4.761-8.336-10.162-18.251-14-27 2.525-2.163 4.656.786 6 2.5 9.245 11.784 17.162 31.147 26 44 35.272 51.294 89.163 90.253 147 112.5"/><path fill="#82abbf" d="M748 655c-17.293 14.972-34.747 32.671-58 37 19.195-11.397 37.266-24.149 54-39z"/><path fill="#70b5cd" d="M324 684c45.671 23.432 77.387 41.298 130 49-1.678 1.8-2.451.922-3 4-35.186-4.383-71.597-15.578-103-32-5.571-2.913-10.64-6.818-16-10-12.324-7.317-23.583-15.355-35-24 8.584 2.608 15.475 9.922 23.5 14 1.016.516 2.121-1.708 3.5-1"/><path fill="#026283" d="M450 833c81.226 12.535 156.827 1.894 229-37 6.722-3.623 13.528-6.901 20-11 38.165-24.172 71.798-57.777 96-96l1 1c-51.474 75.634-102.132 119.563-193 144-64.832 17.435-125.211 17.629-190 0-76.222-20.74-135.005-62.769-182-125.5-3.644-4.864-15.367-26.568-19-27.5l3-5c48.901 85.618 137.968 142.025 235 157"/><path fill="#1b6877" d="M496 704c.37 2.075-.722 10.133.5 11 3.326 2.359 46.036-1.92 53-3 .435-.068 4.772-3.711 7.5-1-52.436 13.644-98.832 7.391-146-18l3-11c23.122 11.648 56.105 20.621 82 22"/><path fill="#81a1af" d="M686 694c-9.257 45.206-29.822 88.475-73 109-5.687 2.703-11.714 5.532-17.5 8-4.195 1.79-6.669-3.781-4.5 7-25.846 2.742-78.89 1.243-101.5-12-17.786-10.417-40.761-47.416-38.5-68 83.7 12.532 162.21-2.131 235-44"/><path fill="#3a5a6f" d="M348 705c-2.422 2.031-3.292.005-3 4.5.896 13.801 23.635 55.56 33 67 17.406 21.264 53.418 40.199 80 46.5 2.164 6.694-9.49 1.129-10.5 1-8.554-1.092-21.746-1.775-32-5-1.732-.545-11.495-3.619-12-4-1.24-.936.669-3.72-2-6-2.881-2.46-17.585-3.378-19.5-6.5-.36-.587-.606-8.285-1-9-3.07-5.576-12.331-14.184-16-20-13.124-20.805-28.224-50.046-34-74-.621-2.576-1.211-2.85 1-4.5 5.36 3.182 10.429 7.087 16 10"/><path fill="#587b8e" d="M451 737c-.057.32.036.672 0 1-2.261 20.584 20.714 57.583 38.5 68 22.61 13.243 75.654 14.742 101.5 12 7.207-.765 17.407-2.813 25-4l-6 5c-36.257 10.421-73.256 14.305-111 13-2.869-6.62-11.7-4.43-15.5-5-7.998-1.199-17.848-2.186-25.5-4-26.582-6.301-62.594-25.236-80-46.5-9.365-11.44-32.104-53.199-33-67-.292-4.495.578-2.469 3-4.5 31.403 16.422 67.814 27.617 103 32"/><path fill="#9ecee3" d="M679 796c-72.173 38.894-147.774 49.535-229 37l4-5c14.066 1.996 30.81 3.509 45 4 37.744 1.305 74.743-2.579 111-13 13.296-3.822 24.385-8.812 37-14 4.9-2.015 5.375-4.446 10.5-4 1.088.095-.62 2.95 2 3 1.323.025 12.636-6.778 15-8 .69-.357 5.155-3.161 4.5 0"/><path fill="#88aec5" d="M614 807c-1.082.342-4.143 3.228-6 3.5l13.5 1.5c1.605 3.252-4.123 1.785-5.5 2-7.593 1.187-17.793 3.235-25 4-2.169-10.781.305-5.21 4.5-7 5.786-2.468 11.813-5.297 17.5-8z"/><path fill="#7290a2" d="M647 805c-12.615 5.188-23.704 10.178-37 14l6-5c1.377-.215 7.105 1.252 5.5-2l-13.5-1.5c1.857-.272 4.918-3.158 6-3.5 8.822-2.785 23.289.191 33-2"/>/&gt;</svg>