<svg xmlns="http://www.w3.org/2000/svg" width="1024" height="1024"><defs><linearGradient id="a" x1="783.851" x2="287.228" y1="337.545" y2="705.364" gradientUnits="userSpaceOnUse"><stop offset="0%" style="stop-color:#f3f7fa"/><stop offset="48.706%" style="stop-color:#b9d3dd"/><stop offset="63.43%" style="stop-color:#89adba"/><stop offset="75.566%" style="stop-color:#90b1bd"/><stop offset="100%" style="stop-color:#4c7683"/></linearGradient></defs><defs><linearGradient id="b" x1="376.402" x2="471.875" y1="363.72" y2="439.674" gradientUnits="userSpaceOnUse"><stop offset="0%" style="stop-color:#37adca"/><stop offset="100%" style="stop-color:#5dcde5"/></linearGradient></defs><defs><linearGradient id="c" x1="452.872" x2="569.273" y1="377.525" y2="498.665" gradientUnits="userSpaceOnUse"><stop offset="0%" style="stop-color:#0d476a"/><stop offset="100%" style="stop-color:#236f90"/></linearGradient></defs><defs><linearGradient id="d" x1="851.343" x2="849.73" y1="414.515" y2="545.505" gradientUnits="userSpaceOnUse"><stop offset="0%" style="stop-color:#39d1ed"/><stop offset="100%" style="stop-color:#0073a4"/></linearGradient></defs><defs><linearGradient id="e" x1="143.259" x2="198.602" y1="442.66" y2="517.4" gradientUnits="userSpaceOnUse"><stop offset="0%" style="stop-color:#13a6cc"/><stop offset="100%" style="stop-color:#01689a"/></linearGradient></defs><path fill="#19daf0" d="M909 95c-8.056 3.461-14.283 13.026-20 20-3.448 4.207-6.553 8.844-10 13-8.822 1.723-16.868 11.343-24 18l-2-3c3.432-2.961 25.574-20.834 26-22.5.621-2.428-2.892-2.337-3-2.5-.415-.629.701-2.721-2-4 13.248-9.192 26.601-18.302 39.5-28 1.041 3.503-3.388 6.944-4.5 9"/><path fill="#0272a2" d="M119 95c-.492 7.575 11.042 16.915 16 23 1.206 1.48 3.795 6.533 5 8-4.443-.094 1.272 8.287 2 9.5 30.595 50.973 69.609 98.601 96 152.5-1.567 1.403-3.171 3.652-5 4-41.634-67.495-83.934-134.635-125-202.5l.5-2.5c3.477 2.618 6.885 5.607 10.5 8"/><path fill="#03a6c5" d="M909 95c-15.701 29.02-33.852 56.834-51 85-3.262 1.537-3.46-.867-6-3 11.212-17.214 27.948-40.035 37-57.5.534-1.03 2.016-4.077 0-4.5 5.717-6.974 11.944-16.539 20-20"/><path fill="#0596c0" d="M289 214c.089.985-1.938 2.831-2 3h-2l-138.5-98-4.5-.5c8.289 8.542 17.012 16.72 26 24.5-3.676 1.646-7.807-7.882-8-3-7.166-6.948-14.213-14.194-21.5-21-.846-.791-2.628-3.478-3.5-1-4.958-6.085-16.492-15.425-16-23 53.915 35.697 116.071 88.777 170 119"/><path fill="#08b5cd" d="M876 118 734 218c-.405-.999-.407-3.649-2-4 44.482-25.6 98.189-69.601 142-100 2.701 1.279 1.585 3.371 2 4"/><path fill="#0185a6" d="M852 177c-.814 1.25-2.846 3.226-4 5l-9-6c13.559-15.674 26.759-32.033 40-48 3.447-4.156 6.552-8.793 10-13 2.016.423.534 3.47 0 4.5-9.052 17.465-25.788 40.286-37 57.5"/><path fill="#019abb" d="M160 140c25.715 24.932 53.623 53.88 81.5 76 10.539 8.362 22.337 18.591 35.5 22-4.58 7.709-9.652 14.826-15 22-43.43-40.579-84.21-87.989-122-134-1.205-1.467-3.794-6.52-5-8 .872-2.478 2.654.209 3.5 1 7.287 6.806 14.334 14.052 21.5 21"/><path fill="#fafdfe" d="M285 217c.783 11.767-9.511 5.975-15.5 3-24.421-12.131-79.154-57.656-101.5-77-8.988-7.78-17.711-15.958-26-24.5l4.5.5z"/><path fill="#f9fdfd" d="M853 143c-16.089 13.881-92.433 75.919-107.5 80-3.898 1.056-5.693.386-9.5 0-.687-1.563-1.347-3.389-2-5l142-100c.108.163 3.621.072 3 2.5-.426 1.666-22.568 19.539-26 22.5"/><path fill="#005282" d="M140 126c37.79 46.011 78.57 93.421 122 134-7.424 9.959-14.688 19.66-24 28-26.391-53.899-65.405-101.527-96-152.5-.728-1.213-6.443-9.594-2-9.5"/><path fill="#0fc6e1" d="M879 128c-13.241 15.967-26.441 32.326-40 48-25.076 28.988-50.329 58.522-79 84-5.489-7.245-11.312-14.158-16-22 13.024-3.569 24.026-12.804 34.5-21 26.561-20.784 51.746-47.895 76.5-71 7.132-6.657 15.178-16.277 24-18"/><path fill="#8ae0f6" d="M168 143c22.346 19.344 77.079 64.869 101.5 77 5.989 2.975 16.283 8.767 15.5-3h2c-3.354 9.176-5.044 12.657-10 21-13.163-3.409-24.961-13.638-35.5-22-27.877-22.12-55.785-51.068-81.5-76 .193-4.882 4.324 4.646 8 3"/><path fill="#194451" d="M719 220v1l-2 2.5c24.403 22.44 43.87 51.339 59 80 2.221 1.813 5.23-3.816 5-5.5.152.252 1.506 1.942 2 2a85 85 0 0 1-5 7.5c9.581 15.365 13.91 33.021 21 49.5-1.081 4.686 1.711 10.574-3 15-34.542-147.478-170.871-236.773-320.5-219-83.05 9.865-157.981 50.396-206.5 119l-2-.5c2.151-1.046 2.587-7.686 3-8.5 3.182-6.263 14.903-19.621 20-25.5 3.889-4.486 17.257-12.129 12-16.5v-1c2.618.544 2.664 1.268 5.5 0 3.682-1.646 18.52-16.241 24-20 114.074-78.253 250.536-75.004 363 4 6.921 4.862 17.126 17.671 24.5 16"/><path fill="#9ff0fc" d="M855 146c-24.754 23.105-49.939 50.216-76.5 71-10.474 8.196-21.476 17.431-34.5 21-2.878-4.813-5.742-9.861-8-15 3.807.386 5.602 1.056 9.5 0 15.067-4.081 91.411-66.119 107.5-80z"/><path fill="url(#a)" d="M796 372c-5.539 65.025 5.521 138.211 0 202-10.318 119.208-116.743 275.482-221.5 332-37.007 19.966-55.208 29.814-97 14C365.467 877.605 237.828 715.896 224 597c-1.341-11.528-.032-19.082 0-30 24.888 96.95 72.193 188.436 143 259.5.858 1.384 2.984-.508 3-1 .074-2.195-25.158-28.078-29-33-82.124-105.206-122.877-244.595-106-378-2.314-1.368-2.83 6.833-3 8-.93 6.388 1.77 23.968-6 24.5.039-24.922 3.319-53.535 0-78 7.364-28.19 19.167-53.597 32-79.5 2.471-4.987 8.975-11.764 11-16.5.118-.275-.087-.696 0-1 48.519-68.604 123.45-109.135 206.5-119 149.629-17.773 285.958 71.522 320.5 219m-500-24c-58.686 123.194-1.773 293.021 136 329 1.766 4.601 14.588 7.745 19.5 9 83.06 21.228 162.697-6.486 219.5-68.5 4.48-4.891 12.85-13.81 14-19.5 150.044-156.9 22.849-411.082-190.5-395-90.295 6.806-160.687 65.623-198.5 145m92.5 330c-64.358 5.673-17.407 151.509 39 123 26.138-13.211 32.264-34.198 71-38 56.485-5.545 58.522 18.88 96 38 44.349 22.626 88.941-72.91 60.5-110.5-20.567-27.183-58.78.698-83.5 7.5-37.778 10.395-80.082 11.19-118 1-18.917-5.084-46.832-22.602-65-21M478 820c-15.331 21.662 1.722 35.245 20.5 44 2.36 1.1 4.777.788 2.5 4-6.182 3.585-9.69 12.974-9 20 2.436 24.808 62.772 5.479 24-21.5 5.517.373 1.808-1.356 2-1.5 14.873-11.166 32.486-10.611 27-37.5-7.003-34.329-51.64-40.638-67-7.5m185.5-18c-16.745 19.246-35.462 36.394-57.5 49.5 15.417-7.095 48.404-30.848 57-45 .902-1.486 2.684-3.257.5-4.5" style="fill:url(#a)"/>/&gt;<path fill="#00668d" d="M848 182c-22.445 34.499-45.83 68.529-65 105-9.852-8.938-15.157-16.648-23-27 28.671-25.478 53.924-55.012 79-84z"/><path fill="#038baf" d="M858 180c-23.042 37.848-46.615 75.374-70 113-.144-3.021-3.145-4.317-5-6 19.17-36.471 42.555-70.501 65-105 1.154-1.774 3.186-3.75 4-5 2.54 2.133 2.738 4.537 6 3"/><path fill="#184352" d="M685 598c-9.125 9.542-21.315 20.217-32 28-175.583 127.893-414.583-28.805-368-240.5 2.801-12.73 8.917-24.663 11-37.5 37.813-79.377 108.205-138.194 198.5-145C707.849 186.918 835.044 441.1 685 598M309 332c-98.081 191.061 92.792 398.547 291 319 35.732-14.34 62.26-33.478 88-62 7.539-8.354 12.658-14.641 19-24 8.916-13.157 15.884-25.195 22-40 36.757-88.982 15.37-187.574-53.5-254-21.758-20.986-50.418-40.541-79.5-49-13.103-8.786-47.538-14.946-63.5-16-93.939-6.202-180.896 43.008-223.5 126"/><path fill="#81b3c4" d="M596 222c10.925 7.325 15.661 19.329 22.5 26 5.51 5.375 21.491 12.843 29 19 59.137 48.487 91.101 120.26 82.5 197.5-2.421 21.744-14.126 39.014-1 60.5-6.116 14.805-13.084 26.843-22 40-3.266-1.206-9.84-8.045-13.5-7-1.352.386-14.711 19.047-17.5 22-24.522 25.959-50.489 45.199-84 58-74.646 28.514-153.971 15.704-215.5-35-82.969-68.372-102.202-187.964-45.5-279.5.329-4.692-19.754 10.558-22 8.5 42.604-82.992 129.561-132.202 223.5-126 15.962 1.054 50.397 7.214 63.5 16m-222 57c-17.054 15.299-34.286 37.722-45 58-57.848 109.48-11.153 242.346 102 291 110.956 47.709 241.21-7.433 282-121 4.201-11.697 8.223-24.687 10-37 12.978-89.946-31.875-177.453-112-219 4.399-8.025-11.774-13.259-18.5-16-58.13-23.689-127.404-17.915-182 12-5.457 2.99-34.85 22.35-37 26-1.108 1.881-.626 4.245.5 6"/><path fill="#000924" d="M302 220v1l-11-3.5c-3.605 17.268-15.539 30.46-25 44.5-7.061 10.479-21.951 27.002-26 38-.184.499.056 1.141-1 1-1.638-2.994-4.13-5.968-6-9 1.829-.348 3.433-2.597 5-4 9.312-8.34 16.576-18.041 24-28 5.348-7.174 10.42-14.291 15-22 4.956-8.343 6.646-11.824 10-21 .062-.169 2.089-2.015 2-3 1.333.747 12.299 5.854 13 6"/><path fill="#000a25" d="M732 214c1.593.351 1.595 3.001 2 4 .653 1.611 1.313 3.437 2 5 2.258 5.139 5.122 10.187 8 15 4.688 7.842 10.511 14.755 16 22 7.843 10.352 13.148 18.062 23 27 1.855 1.683 4.856 2.979 5 6-1.623 2.612-3.704 4.81-5 7-.494-.058-1.848-1.748-2-2-16.423-27.195-42.279-50.369-50-81.5l-12 4.5v-1c1.21-.274 11.451-5.108 13-6"/><path fill="#014773" d="M781 298c.23 1.684-2.779 7.313-5 5.5-15.13-28.661-34.597-57.56-59-80l2-2.5 12-4.5c7.721 31.131 33.577 54.305 50 81.5"/><path fill="#014272" d="M302 221c5.257 4.371-8.111 12.014-12 16.5-5.097 5.879-16.818 19.237-20 25.5-2.832 1.924-2.131.808-4-1 9.461-14.04 21.395-27.232 25-44.5z"/><path fill="#5e8e9e" d="M611 251c-40.703-21.106-83.222-28.072-129-22-38.026 5.044-79.485 24.418-108 50-1.126-1.755-1.608-4.119-.5-6 2.15-3.65 31.543-23.01 37-26 54.596-29.915 123.87-35.689 182-12 6.726 2.741 22.899 7.975 18.5 16"/><path fill="#ddeaf0" d="M729 525c-13.126-21.486-1.421-38.756 1-60.5 8.601-77.24-23.363-149.013-82.5-197.5-7.509-6.157-23.49-13.625-29-19-6.839-6.671-11.575-18.675-22.5-26 29.082 8.459 57.742 28.014 79.5 49 68.87 66.426 90.257 165.018 53.5 254"/><path fill="#3a6c7e" d="M611 251c80.125 41.547 124.978 129.054 112 219-4.12 4.809-1.178 7.226-10 6 6.46-34.04 5.211-63.794-5-97-14.719-47.864-48.824-88.028-91-114-29.579-18.215-63.112-31.222-98-34-10.345-.824-21.926.305-32.5 0-1.824-.053-4.937 1.002-4.5-2 45.778-6.072 88.297.894 129 22"/><path fill="#1c5371" d="M482 229c-.437 3.002 2.676 1.947 4.5 2 10.574.305 22.155-.824 32.5 0-.021 1.672-.981 10.634-1.5 11-1.103.779-22.583.385-27 1-61.024 8.504-119.244 44.303-148.5 99-.301-.1-.704.104-1 0-3.204-1.128-6.856-6.805-12-5 10.714-20.278 27.946-42.701 45-58 28.515-25.582 69.974-44.956 108-50"/><path fill="#3a88a4" d="M617 265c-8.337 8.717-15.971 18.21-23 28-78.272-34.341-169.205-13.625-221 55-9.651-1.362-21.86-2.975-31-6 29.256-54.697 87.476-90.496 148.5-99 4.417-.615 25.897-.221 27-1 .519-.366 1.479-9.328 1.5-11 34.888 2.778 68.421 15.785 98 34"/><path fill="#063859" d="M270 263c-.413.814-.849 7.454-3 8.5l2 .5c-.087.304.118.725 0 1-10.492 6.257-17.468 22.081-23.5 33l-5.5-6c4.049-10.998 18.939-27.521 26-38 1.869 1.808 1.168 2.924 4 1"/><path fill="#b1d1dd" d="M708 379c-9.621.758-18.76 3.547-28 6-1.271.337-2.056.741-3 1 3.525-4.537-2.256-13.356-5-18.5-17.102-32.062-46.065-56.96-78-73.5.157-.221-.158-.78 0-1 7.029-9.79 14.663-19.283 23-28 42.176 25.972 76.281 66.136 91 114"/><path fill="#124050" d="M269 273c-2.025 4.736-8.529 11.513-11 16.5-12.833 25.903-24.636 51.31-32 79.5-.388-2.858-2.105-11.737-3-14l20-47.5c.017-1.381-3.099-4.854-4-6.5 1.056.141.816-.501 1-1l5.5 6c6.032-10.919 13.008-26.743 23.5-33"/><path fill="url(#b)" d="M594 293c-.158.22.157.779 0 1-13.082 18.383-26.422 37.991-35 59-24.92-14.408-51.264-14.531-79-10-1.938.317-3.952 1.169-6 1-.713-1.66-6.253-7.853-8-9-1.513-10.751-22.235-7.69-29.5-3-11.666 7.531-8.118 17.498-11.5 26-1.341 3.372-22.428 25.596-27 32.5-14.691 22.183-34.538 67.658-36 94-2.213 39.888 24.131 78.358 49 107-5.216 1.155-15.249-7.068-19.5-10.5-29.122-23.509-49.008-61.851-53.5-99-1.123-9.285-1.375-20.635-1-30 1.401-35.014 14.847-75.974 36-104 51.795-68.625 142.728-89.341 221-55" style="fill:url(#b)"/>/&gt;<path fill="#dde9f0" d="M677 386c-22.78 6.244-44.811 14.482-67.5 21 2.606 12.33 4.933 22.195 4.5 35-2.056 60.796-60.707 101.997-119 96v-5c70.614 9.091 129.366-52.359 111-122.5-1.934-2.87-20.895 4.625-25.5 5.5-6.106 1.16-12.465.322-18.5 1-4.683-1.517-5.945-3.887-9-7-9.472-16.878-.897-40.109 6-57 8.578-21.009 21.918-40.617 35-59 31.935 16.54 60.898 41.438 78 73.5 2.744 5.144 8.525 13.963 5 18.5"/><path fill="#4a7281" d="M592 638c.684 4.318 4.17 10.992 8 13-198.208 79.547-389.081-127.939-291-319 2.246 2.058 22.329-13.192 22-8.5-56.702 91.536-37.469 211.128 45.5 279.5 61.529 50.704 140.854 63.514 215.5 35"/><path fill="#3c8298" d="M466 335c-18.477-12.13-41.355 3.442-39 25-.215-.339-1.472-1.922-2-2 3.382-8.502-.166-18.469 11.5-26 7.265-4.69 27.987-7.751 29.5 3"/><path fill="#fdfefe" d="M466 335c1.747 1.147 7.287 7.34 8 9 7.616 17.734-4.99 36.556-24 36-4.572-.134-9.285-2.348-13-5-6.956-4.965-6.187-8.991-10-15-2.355-21.558 20.523-37.13 39-25"/><path fill="#002046" d="M341 342c-19.116 35.002-27.965 71.931-26 112 .498 10.151 1.878 20.096 4 30 15.994 74.64 84.697 141.401 160 154 .155 2.558-1.26 3.065-3.5 3-12.723-.367-31.412-11.377-44.5-13-113.153-48.654-159.848-181.52-102-291 5.144-1.805 8.796 3.872 12 5"/><path fill="url(#c)" d="M559 353c-6.897 16.891-15.472 40.122-6 57-63.918-65.121-128.615 26.636-76.5 67 41.582 32.205 103.828-9.145 81.5-59.5 1.441.187 3.055-.394 4-.5 6.035-.678 12.394.16 18.5-1 4.605-.875 23.566-8.37 25.5-5.5 18.366 70.141-40.386 131.591-111 122.5-63.762-8.209-101.464-74.851-75-134 3.804-8.501 9.585-18.358 17-24 3.715 2.652 8.428 4.866 13 5-5.254 1.946 6.093 3.014 6.5 3 11.652-.397 24.388-10.158 25.5-22.5.574-6.375-2.816-11.475-2-17.5 27.736-4.531 54.08-4.408 79 10" style="fill:url(#c)"/>/&gt;<path fill="#1a779a" d="M373 348c-21.153 28.026-34.599 68.986-36 104l-22 2c-1.965-40.069 6.884-76.998 26-112 .296.104.699-.1 1 0 9.14 3.025 21.349 4.638 31 6"/><path fill="#0c3049" d="M480 343c-.816 6.025 2.574 11.125 2 17.5-1.112 12.342-13.848 22.103-25.5 22.5-.407.014-11.754-1.054-6.5-3 19.01.556 31.616-18.266 24-36 2.048.169 4.062-.683 6-1"/><path fill="#000b23" d="M223 355c.895 2.263 2.612 11.142 3 14 3.319 24.465.039 53.078 0 78-.063 40.014-1.882 80.041-2 120-.032 10.918-1.341 18.472 0 30l-3 10c-14.644-11.219-53.44-20.085-69.5-30-2.128-1.314-5.644-4.302-6.5-6.5-3.557-9.129-6.323-55.528-7-68-2.177-40.072-1.457-80.695 3.5-120.5 14.615-4.436 62.618-39.411 75-36 1.966.542 5.663 6.885 6.5 9m-23 34c.423 2.561.6 5.389 1 8 3.811 24.88 6.202 49.831 7 75 .068 2.157.995 4.745 1 5 .028 1.324-.016 2.676 0 4 .211 16.974-.774 37.005-2 54-1.342 18.6-4.702 37.018-7 55.5l20 7c3.432-16.118 1.144-32.315 1-48.5-.231-26.025.079-52.013 0-78-.082-27.257 2.139-56.19 1-83-.042-.989.061-2.013 0-3-.635-10.299-2.47-20.329-4-30.5l-23.5 2.5c-3.751 2.614 4.663 26.93 5.5 32m-60 70c-.193 19.871.405 39.216 2 59 .302 3.751.59 7.268 1 11 1.446 13.174 3.557 26.311 5 39.5l44.5 23.5c2.154.421 1.273-1.738 1.5-2 5.489-6.335 8.409-50.724 9-61 2.513-43.678 2.433-88.046-6-131-.582-2.963-1.316-6.047-2-9-1.193-5.147-4.014-21.516-6-25-.703-1.233-1.802-3.111-3.5-3-5.382.351-34.275 22.334-42.5 24.5-.199 24.536-2.762 48.975-3 73.5"/><path fill="#020a1f" d="m799 597-3-23c5.521-63.789-5.539-136.975 0-202 4.711-4.426 1.919-10.314 3-15 4.387-19.014 18.921-8.979 31.5-3 17.022 8.091 33.988 21.56 51.5 29.5 2.398 47.335 3.98 94.693 0 142-.727 8.639-2.686 38.865-5 45-2.556 6.775-26.15 13.072-33.5 16.5-14.028 6.542-27.825 13.734-42 20zm0-212c-.165 2.97.092 6.022 0 9-.223 7.244 1.106 16.073 1 24-.592 44.33.476 88.693 1 133-5.343 12.103.982 32.931 0 46.5 2.852-.315 20.471-6.028 21-7 1.336-2.458-6.449-47.183-7-55.5-2.54-38.341-1.441-76.958 3-115 .904-7.743 1.799-15.3 3-23 .317-2.032.665-3.993 1-6 .461-2.765 1.536-5.382 2-8a493 493 0 0 1 5-24.5c-.794-2.296-11.476-3.21-14-3.5-3.322-.381-8.914-2.674-11-.5-1.058 1.516-4.804 26.974-5 30.5m34-21c-2.224 3.946-4.715 19.522-6 25-.808 3.444-1.328 6.553-2 10-8.541 43.79-8.342 85.484-6 130 1.097 20.852 2.243 41.771 8 62 1.732 1.955 42.84-18.942 47-22.5.546-12.602 3.592-25.073 5-37.5 3.596-31.743 3.507-64.101 2-96-.796-16.844-2.261-33.645-3-50.5-8.476-1.452-36.103-23.265-41.5-23.5-3.019-.131-2.354.968-3.5 3"/><path fill="#52727d" d="M653 626c-57.08 56.483-144.62 70.946-221 51-137.773-35.979-194.686-205.806-136-329-2.083 12.837-8.199 24.77-11 37.5C238.417 597.195 477.417 753.893 653 626"/><path fill="#0ac4e3" d="M815 355c19.617 4.38 5.733 14.469 9 28-.464 2.618-1.539 5.235-2 8l-23-6c.196-3.526 3.942-28.984 5-30.5 2.086-2.174 7.678.119 11 .5"/><path fill="#0196bf" d="m222 385-22 4c-.837-5.07-9.251-29.386-5.5-32l23.5-2.5c1.53 10.171 3.365 20.201 4 30.5"/><path fill="#d7eef4" d="M824 383c-3.267-13.531 10.617-23.62-9-28 2.524.29 13.206 1.204 14 3.5a493 493 0 0 0-5 24.5"/><path fill="#31aecc" d="M427 360c3.813 6.009 3.044 10.035 10 15-7.415 5.642-13.196 15.499-17 24-7.887 9.44-13.994 27.376-15 39.5-4.312 51.949 40.516 94.41 90 99.5 58.293 5.997 116.944-35.204 119-96 26.8 4.461 51.411 26.189 79 26-.292 3.063-.542 7.124-1 10-14.694 92.242-95.888 143.48-184 147-2.114.084-12.282-.512-13 .5-.679.958.502 12.102 0 14.5-6.151-.509-9.956-.989-16-2-75.303-12.599-144.006-79.36-160-154l19-2c4.492 37.149 24.378 75.491 53.5 99 4.251 3.432 14.284 11.655 19.5 10.5-24.869-28.642-51.213-67.112-49-107 1.462-26.342 21.309-71.817 36-94 4.572-6.904 25.659-29.128 27-32.5.528.078 1.785 1.661 2 2"/><path fill="#f9fcfd" d="m189 364-42 26.5c2.289 19.747-2.093 39.843-4 59.5-.762 7.854-1.33 15.557-1 23.5l-2-14.5c.238-24.525 2.801-48.964 3-73.5 8.225-2.166 37.118-24.149 42.5-24.5 1.698-.111 2.797 1.767 3.5 3"/><path fill="#f9fdfe" d="m881 435-1 14.5c-4.757-16.596-4.552-35.078-6-52.5-.253-3.042 1.828-6.007-.5-8-14.674-6.198-27.312-16.207-40.5-25 1.146-2.032.481-3.131 3.5-3 5.397.235 33.024 22.048 41.5 23.5.739 16.855 2.204 33.656 3 50.5"/><path fill="#1fb9de" d="M195 389c-7.072.608-33.186 17.239-37.5 17-3.648-.202-5.15-6.743-7-9-2.194.521 8.091 22.202 9.5 24-.163 1.163-1.048 7.6-1 8-9.749 1.958-10.813 19.657-12 28-4.978.74-3.963-2.261-4-7 1.907-19.657 6.289-39.753 4-59.5l42-26.5c1.986 3.484 4.807 19.853 6 25"/><path fill="#36d5f0" d="M874 397c-3.663-1.075-3.369 3.047-5 5-1.73 2.071-.364 3.888-4.5 4-4.98.135-30.052-16.061-37.5-17 1.285-5.478 3.776-21.054 6-25 13.188 8.793 25.826 18.802 40.5 25 2.328 1.993.247 4.958.5 8"/><path fill="#5696ac" d="M708 379c10.211 33.206 11.46 62.96 5 97-.365 1.923-.572 4.098-1 6l-20-4c.458-2.876.708-6.937 1-10 2.699-28.27-1.174-57.185-13-83 9.24-2.453 18.379-5.242 28-6"/><path fill="#fdfdfd" d="M222 385c.061.987-.042 2.011 0 3-.152 9.702-13.281 7.385-21 9-.4-2.611-.577-5.439-1-8z"/><path fill="#62c2da" d="M680 385c11.826 25.815 15.699 54.73 13 83-27.589.189-52.2-21.539-79-26 .433-12.805-1.894-22.67-4.5-35 22.689-6.518 44.72-14.756 67.5-21 .944-.259 1.729-.663 3-1"/><path fill="#fcfdfd" d="M822 391c-.335 2.007-.683 3.968-1 6l-22-3c.092-2.978-.165-6.03 0-9z"/><path fill="#003657" d="M553 410c3.055 3.113 4.317 5.483 9 7-.945.106-2.559.687-4 .5 22.328 50.355-39.918 91.705-81.5 59.5-52.115-40.364 12.582-132.121 76.5-67"/><path fill="#1d9bc0" d="m221 471-13 1c-.798-25.169-3.189-50.12-7-75 7.719-1.615 20.848.702 21-9 1.139 26.81-1.082 55.743-1 83"/><path fill="#fcfdfe" d="M195 389c.684 2.953 1.418 6.037 2 9-5.04 3.562-36.793 15.186-38 18.5-.266.732 1.314 2.262 1 4.5-1.409-1.798-11.694-23.479-9.5-24 1.85 2.257 3.352 8.798 7 9 4.314.239 30.428-16.392 37.5-17"/><path fill="#fdfefe" d="m869 402-6.5 19c-.68-3.675-.113-4.285-3-7-4.268-4.014-27.804-11.924-34.5-15 .672-3.447 1.192-6.556 2-10 7.448.939 32.52 17.135 37.5 17 4.136-.112 2.77-1.929 4.5-4"/><path fill="#5fe2f3" d="M821 397c-1.201 7.7-2.096 15.257-3 23-3.121.629-.969-2.398-3-2.5-1.979-.1-11.87 4.207-15 .5.106-7.927-1.223-16.756-1-24z"/><path fill="url(#d)" d="M874 397c1.448 17.422 1.243 35.904 6 52.5l1-14.5c1.507 31.899 1.596 64.257-2 96-8.06 11.778-4.149 27.084-16 37-8.113-5.185-20.355-42.053-24.5-44-7.483-3.516-13.321 1.567-19.5 5-2.342-44.516-2.541-86.21 6-130 6.696 3.076 30.232 10.986 34.5 15 2.887 2.715 2.32 3.325 3 7l6.5-19c1.631-1.953 1.337-6.075 5-5m-10.5 32c-7.132 1.01-12.168 37.21-12.5 43.5-.425 8.053.362 53.5 11.5 53.5 10.996-8.255 12.982-30.303 13.5-43.5.304-7.758-1.525-55.054-12.5-53.5" style="fill:url(#d)"/>/&gt;<path fill="url(#e)" d="M203 529c-29.619-22.357-26.896 25.738-45 39-10.502-9.63-8.469-26.552-15-39-.41-3.732-.698-7.249-1-11v-39.5c3.514 1.127 2.422 11.474 4 .5-3.183 11.691 11.426 73.425 22 33.5 5.329-20.121 2.855-49.858-2-70-.915-3.796-6.908-12.725-7-13.5-.048-.4.837-6.837 1-8 .314-2.238-1.266-3.768-1-4.5 1.207-3.314 32.96-14.938 38-18.5 8.433 42.954 8.513 87.322 6 131" style="fill:url(#e)"/>/&gt;<path fill="#4dd2f2" d="M420 399c-26.464 59.149 11.238 125.791 75 134v5c-49.484-5.09-94.312-47.551-90-99.5 1.006-12.124 7.113-30.06 15-39.5"/><path fill="#92b2bc" d="M224 567c.118-39.959 1.937-79.986 2-120 7.77-.532 5.07-18.112 6-24.5.17-1.167.686-9.368 3-8-16.877 133.405 23.876 272.794 106 378 3.842 4.922 29.074 30.805 29 33-.016.492-2.142 2.384-3 1-70.807-71.064-118.112-162.55-143-259.5"/><path fill="#15a9cd" d="M818 420c-4.441 38.042-5.54 76.659-3 115-3.43 2.956-12.43 12.443-14 16-.524-44.307-1.592-88.67-1-133 3.13 3.707 13.021-.6 15-.5 2.031.102-.121 3.129 3 2.5"/><path fill="#000c20" d="M159 429c.092.775 6.085 9.704 7 13.5 4.855 20.142 7.329 49.879 2 70-10.574 39.925-25.183-21.809-22-33.5.96-6.676-.082-14.391 1-22 1.187-8.343 2.251-26.042 12-28m-9 34c-.707 12.165-.113 27 2 39 1.306 7.417 2.74 14.956 7.5 21 3.384-6.494 4.602-13.831 5.5-21 2.137-17.055 2.731-47.219-4-63-1.003-2.351-1.319-5.209-3.5-7-4.156-.303-7.253 26.748-7.5 31"/><path fill="#000c1a" d="M863.5 429c10.975-1.554 12.804 45.742 12.5 53.5-.518 13.197-2.504 35.245-13.5 43.5-11.138 0-11.925-45.447-11.5-53.5.332-6.29 5.368-42.49 12.5-43.5m-8.5 52c.042 4.111 2.4 41.548 7.5 41 7.856-14.293 9.457-32.808 9.5-49 .035-13.18-.934-29.284-7.5-41-8.928 12.547-9.656 33.621-9.5 49"/><path fill="#24c0e2" d="m161 439-4 6c-.151-.973.803-5.105-1-4.5-.579 7.896-1.663 15.572-2 23.5l-4-1c.247-4.252 3.344-31.303 7.5-31 2.181 1.791 2.497 4.649 3.5 7"/><path fill="#17c5e6" d="M872 473h-4c-.096-10.443.123-20.785-2.5-31-1.898 8.541-2.963 17.268-3.5 26-3.656 4.002-2.076 9.801-7 13-.156-15.379.572-36.453 9.5-49 6.566 11.716 7.535 27.82 7.5 41"/><path fill="#0392be" d="M161 439c6.731 15.781 6.137 45.945 4 63-4.208-5.402 5.605-23.686-4-24-.107-10.54-2.376-22.526-4-33z"/><path fill="#005785" d="M157 445c1.624 10.474 3.893 22.46 4 33 .045 4.464-.305 27.192-4.5 27-1.564-.564-1.373-2.891-1.5-3-1.397-12.4-1.53-25.54-1-38 .337-7.928 1.421-15.604 2-23.5 1.803-.605.849 3.527 1 4.5"/><path fill="#006590" d="M868 473c.026 2.859 1.577 31.651-3.5 30-3.862-1.256-2.83-29.638-2.5-35 .537-8.732 1.602-17.459 3.5-26 2.623 10.215 2.404 20.557 2.5 31"/><path fill="#48c2e3" d="M147 457c-1.082 7.609-.04 15.324-1 22-1.578 10.974-.486.627-4-.5V518c-1.595-19.784-2.193-39.129-2-59l2 14.5c-.33-7.943.238-15.646 1-23.5.037 4.739-.978 7.74 4 7"/><path fill="#2c8ba9" d="M337 452c-.375 9.365-.123 20.715 1 30l-19 2c-2.122-9.904-3.502-19.849-4-30z"/><path fill="#0a9ec8" d="M154 464c-.53 12.46-.397 25.6 1 38-.243-.209-2.184.129-3 0-2.113-12-2.707-26.835-2-39z"/><path fill="#0087b6" d="M862 468c-.33 5.362-1.362 33.744 2.5 35 5.077 1.651 3.526-27.141 3.5-30h4c-.043 16.192-1.644 34.707-9.5 49-5.1.548-7.458-36.889-7.5-41 4.924-3.199 3.344-8.998 7-13"/><path fill="#164862" d="M723 470c-1.777 12.313-5.799 25.303-10 37-.184-6.477 2.293-6.497-6-7 1.854-5.67 3.691-12.188 5-18 .428-1.902.635-4.077 1-6 8.822 1.226 5.88-1.191 10-6"/><path fill="#036896" d="M221 471c.079 25.987-.231 51.975 0 78-1.696 3.221-2.884-.026-4-1.5-3.212-4.241-4.857-9.772-10-12.5 1.226-16.995 2.211-37.026 2-54 14.439 2.372 13.619-8.427 0-4-.005-.255-.932-2.843-1-5z"/><path fill="#1d9bc0" d="M209 481c-.016-1.324.028-2.676 0-4 13.619-4.427 14.439 6.372 0 4"/><path fill="#0077a9" d="M165 502c-.898 7.169-2.116 14.506-5.5 21-4.76-6.044-6.194-13.583-7.5-21 .816.129 2.757-.209 3 0 .127.109-.064 2.436 1.5 3 4.195.192 4.545-22.536 4.5-27 9.605.314-.208 18.598 4 24"/><path fill="#1a779a" d="M712 482c-1.309 5.812-3.146 12.33-5 18-27.702 84.7-109.991 142.555-199 141v-16c88.112-3.52 169.306-54.758 184-147z"/><path fill="#052f4f" d="M713 507c-40.79 113.567-171.044 168.709-282 121 13.088 1.623 31.777 12.633 44.5 13 2.24.065 3.655-.442 3.5-3 6.044 1.011 9.849 1.491 16 2 4.439.368 8.451.921 13 1 89.009 1.555 171.298-56.3 199-141 8.293.503 5.816.523 6 7"/><path fill="#004176" d="M203 529c-.591 10.276-3.511 54.665-9 61-10.114-8.719-26.232-13.044-36-22 18.104-13.262 15.381-61.357 45-39"/><path fill="#00477b" d="M863 568c-10.882 9.105-26.374 12.788-36 23-5.757-20.229-6.903-41.148-8-62 6.179-3.433 12.017-8.516 19.5-5 4.145 1.947 16.387 38.815 24.5 44"/><path fill="#7abcd9" d="M158 568c9.768 8.956 25.886 13.281 36 22-.227.262.654 2.421-1.5 2L148 568.5c-1.443-13.189-3.554-26.326-5-39.5 6.531 12.448 4.498 29.37 15 39"/><path fill="#81c3e0" d="M879 531c-1.408 12.427-4.454 24.898-5 37.5-4.16 3.558-45.268 24.455-47 22.5 9.626-10.212 25.118-13.895 36-23 11.851-9.916 7.94-25.222 16-37"/><path fill="#00457b" d="M221 549c.144 16.185 2.432 32.382-1 48.5l-20-7c2.298-18.482 5.658-36.9 7-55.5 5.143 2.728 6.788 8.259 10 12.5 1.116 1.474 2.304 4.721 4 1.5"/><path fill="#004d80" d="M801 551c1.57-3.557 10.57-13.044 14-16 .551 8.317 8.336 53.042 7 55.5-.529.972-18.148 6.685-21 7 .982-13.569-5.343-34.397 0-46.5"/><path fill="#679aab" d="M707 565c-6.342 9.359-11.461 15.646-19 24l-12-9c2.789-2.953 16.148-21.614 17.5-22 3.66-1.045 10.234 5.794 13.5 7"/><path fill="#144252" d="M799 597c-8.78 30.032-14.592 60.658-27 89.5-36.703 85.313-142.918 215.629-232.5 246.5-36.132 12.451-76.436-10.78-107-30-99.163-62.357-183.767-179.879-208.5-294.5-.856-1.753-2.806-1.351-3-1.5l3-10c13.828 118.896 141.467 280.605 253.5 323 41.792 15.814 59.993 5.966 97-14C679.257 849.482 785.682 693.208 796 574Z"/><path fill="#5a8899" d="M688 589c-25.74 28.522-52.268 47.66-88 62-3.83-2.008-7.316-8.682-8-13 33.511-12.801 59.478-32.041 84-58z"/><path fill="#95b3bf" d="M432 677c76.38 19.946 163.92 5.483 221-51 10.685-7.783 22.875-18.458 32-28-1.15 5.69-9.52 14.609-14 19.5-56.803 62.014-136.44 89.728-219.5 68.5-4.912-1.255-17.734-4.399-19.5-9"/><path fill="#2c8ba9" d="M508 625v16c-4.549-.079-8.561-.632-13-1 .502-2.398-.679-13.542 0-14.5.718-1.012 10.886-.416 13-.5"/><path fill="#133746" d="M388.5 678c18.168-1.602 46.083 15.916 65 21 37.918 10.19 80.222 9.395 118-1 24.72-6.802 62.933-34.683 83.5-7.5 28.441 37.59-16.151 133.126-60.5 110.5-37.478-19.12-39.515-43.545-96-38-38.736 3.802-44.862 24.789-71 38-56.407 28.509-103.358-117.327-39-123M422 799c12.577-4.757 21.883-16.52 33.5-23 38.059-21.231 78.097-19.683 115 3 15.456 9.5 31.627 32.559 51.5 18 31.237-13.182 50.442-72.339 33-101.5-18.859-31.531-68.261 1.625-96.5 7.5-34.305 7.136-70.998 6.761-105-2-16.798-4.328-37.547-16.36-53.5-19-34.562-5.72-43.407 30.018-39 57.5 3.936 24.549 31.78 70.552 61 59.5"/><path fill="#4e747b" d="m400 682-2 4c-59.655-3.086-23.397 121.899 24 109v4c-29.22 11.052-57.064-34.951-61-59.5-4.407-27.482 4.438-63.22 39-57.5"/><path fill="#c5dee5" d="M622 797c-4.861 2.051-11.223 2.473-16.5 3l6.5-4c32.313-10.847 53.396-67.196 38-96.5-14.573-27.738-44.513-5.712-64.5.5-45.679 14.197-87.134 17.949-134 5-16.113-4.452-38.354-18.216-53.5-19l2-4c15.953 2.64 36.702 14.672 53.5 19 34.002 8.761 70.695 9.136 105 2 28.239-5.875 77.641-39.031 96.5-7.5 17.442 29.161-1.763 88.318-33 101.5"/><path fill="#0f354a" d="M398 686c15.146.784 37.387 14.548 53.5 19 46.866 12.949 88.321 9.197 134-5 19.987-6.212 49.927-28.238 64.5-.5 15.396 29.304-5.687 85.653-38 96.5-16.844 2.603-25.718-13.575-37.5-22-36.121-25.828-81.974-29.074-120-5-9.444 5.979-24.254 23.756-32.5 26-47.397 12.899-83.655-112.086-24-109m7 9c-10.305-2.787-17.52-1.353-25 6-20.477 20.129-1.286 79.665 24 90 3.6 1.471 10.193 4.623 13 1 .975.228 3.88.161 5 0 4.577-.657 14.771-12.086 20-16 8.587-6.427 18.063-14.707 28-19 1.94-.838 4.893-1.284 7-2 23.921-8.13 43.039-8.052 67 0 2.208.742 6.237.674 7 1 9.508 4.056 27.929 20.132 37 27 3.035 2.298 6.528 7.992 11 9 2.604.587 5.499-.077 8-1-.402 2.124 6.172 2.088 6.5 2 17.073-4.574 35.485-61.645 32.5-80.5-3.113-19.666-14.765-17.323-29-17.5-1.431-.018-.369-1.39-4-1-12.778 1.372-17.554 6.844-28 10-15.119 4.568-28.375 7.922-44 10-39.702 5.279-67.419 1.307-105-11-8.759-2.868-18.692-10.625-28-9-1.022.178-1.425-.357-3 1"/><path fill="#a7afb3" d="M408 694c7.405 4.996 15.861 13.73 24 17 27.321 10.976 84.523 13.697 114 10 6.448-.809 39.281-7.198 44-9 4.326-1.652 17.826-14.806 23-18 3.631-.39 2.569.982 4 1 12.967 19.733 16.319 47.975 7 70 3.936-17.45 6.962-42.159-8-55-1.659-12.292-17.302 4.991-23 8.5 2.928 20.003 2.213 40.886-3 60.5-.71-6.23-4.34-4.734-6-6 3.893-8.406 10.394-48.893-.5-52-2.374-.677-25.993 6.47-28 8-2.528 1.926-4.799 8.178-4.5 11h-1c.719-2.328-2.454-3.198-3-4-1.989-2.924-3.584-6.133-7.5-7-3.425-.758-53.858-.764-57 0-2.563.623-4.818 4.24-6.5 6-1.229 1.287-3.369 2.658-5 3.5l-1 18.5c-9.937 4.293-19.413 12.573-28 19l-1-3c3.275-2.987 5.293-7.564 8-11 7.172-11.517 23.336-11.563 21-27.5-1.346-9.179-23.885-15.718-31.5-13.5-11.04 3.215-8.975 39.819-1.5 48 .492 2.108.895 2.326 2 4-3.716 3.147-9.273 5.472-10 6-2.019.721-2.836-4.435-3-5.5-.919-5.982-1.872-14.032-2-20-.148-6.899 3.881-34.203 3-37-.888-2.82-15.067-11.75-19-11.5-2.547.162-3.499-.133-6 3.5-8.422 12.231-8.291 43.433-5 57.5-6.41-17.238-6.722-58.316 8-71 1.575-1.357 1.978-.822 3-1"/><path fill="#66777c" d="m436 703-4 8c-8.139-3.27-16.595-12.004-24-17 9.308-1.625 19.241 6.132 28 9"/><path fill="#6a7b7e" d="M613 694c-5.174 3.194-18.674 16.348-23 18l-5-8c10.446-3.156 15.222-8.628 28-10"/><path fill="#1c1711" d="M405 695c-14.722 12.684-14.41 53.762-8 71 2.032 8.687 10.827 23.85 20 26-2.807 3.623-9.4.471-13-1-19.469-21.972-36.192-61.305-24-90 7.48-7.353 14.695-8.787 25-6"/><path fill="#181411" d="M607 791c10.481-3.867 14.809-16.289 17-26 9.319-22.025 5.967-50.267-7-70 14.235.177 25.887-2.166 29 17.5 2.985 18.855-15.427 75.926-32.5 80.5-.328.088-6.902.124-6.5-2"/><path fill="#436a76" d="M380 701c-12.192 28.695 4.531 68.028 24 90-25.286-10.335-44.477-69.871-24-90"/><path fill="#78878b" d="m541 714 5 7c-29.477 3.697-86.679.976-114-10l4-8c37.581 12.307 65.298 16.279 105 11"/><path fill="#90979c" d="M408 705c-4.966 10.445-3.414 21.073-2 32-3.201-.073-2.191 7.91-2 9.5 1.926 15.999 9.066 32.209 18 45.5-1.12.161-4.025.228-5 0-9.173-2.15-17.968-17.313-20-26-3.291-14.067-3.422-45.269 5-57.5 2.501-3.633 3.453-3.338 6-3.5"/><path fill="#ebecee" d="M429 779c-3.88 2.816 1.766 6.956-2.5 5-9.603-4.402-19.168-36.707-20.5-47-1.414-10.927-2.966-21.555 2-32 3.933-.25 18.112 8.68 19 11.5.881 2.797-3.148 30.101-3 37 .128 5.968 1.081 14.018 2 20 .164 1.065.981 6.221 3 5.5"/><path fill="#7f8c90" d="m585 704 5 8c-4.719 1.802-37.552 8.191-44 9l-5-7c15.625-2.078 28.881-5.432 44-10"/><path fill="#e9eaec" d="M616 710c3.54 26.228-7.16 58.213-17 82-4.472-1.008-7.965-6.702-11-9 3.43-.737 1.366-1.615 2-4 5.213-19.614 5.928-40.497 3-60.5 5.698-3.509 21.341-20.792 23-8.5"/><path fill="#90989c" d="M624 765c-2.191 9.711-6.519 22.133-17 26-2.501.923-5.396 1.587-8 1 9.84-23.787 20.54-55.772 17-82 14.962 12.841 11.936 37.55 8 55"/><path fill="#fcfcfc" d="M449 762c.322-.409 1.11-5.263 4-8.5 1.75-1.96 11.753-8.292 12-9 2.644-7.571-7.634-19.49-15.5-20.5-20.424-2.622-15.345 32.802-12.5 45-7.475-8.181-9.54-44.785 1.5-48 7.615-2.218 30.154 4.321 31.5 13.5 2.336 15.937-13.828 15.983-21 27.5"/><path fill="#fbfbfc" d="M584 773c-3.547-2.706-1.526-7.67-4-12.5-1.032-2.014-9.223-8.186-11.5-9.5-6.696-3.863-16.675-3.228-17.5-11-.299-2.822 1.972-9.074 4.5-11 2.007-1.53 25.626-8.677 28-8 10.894 3.107 4.393 43.594.5 52"/><path fill="#e7e9ea" d="M449 762c-2.707 3.436-4.725 8.013-8 11-.211.193-1.769-.196-2 0-1.105-1.674-1.508-1.892-2-4-2.845-12.198-7.924-47.622 12.5-45 7.866 1.01 18.144 12.929 15.5 20.5-.247.708-10.25 7.04-12 9-2.89 3.237-3.678 8.091-4 8.5"/><path fill="#efeff0" d="m547 736-3 19c-23.961-8.052-43.079-8.13-67 0l-1-20c1.682-1.76 3.937-5.377 6.5-6 3.142-.764 53.575-.758 57 0 3.916.867 5.511 4.076 7.5 7"/><path fill="#d0d1d3" d="M477 755c-2.107.716-5.06 1.162-7 2l1-18.5c1.631-.842 3.771-2.213 5-3.5z"/><path fill="#dde0e1" d="m550 740 1 16c-.763-.326-4.792-.258-7-1l3-19c.546.802 3.719 1.672 3 4"/><path fill="#b9bfc2" d="M406 737c1.332 10.293 10.897 42.598 20.5 47 4.266 1.956-1.38-2.184 2.5-5 .727-.528 6.284-2.853 10-6 .231-.196 1.789.193 2 0l1 3c-5.229 3.914-15.423 15.343-20 16-8.934-13.291-16.074-29.501-18-45.5-.191-1.59-1.201-9.573 2-9.5"/><path fill="#c6cacc" d="M584 773c1.66 1.266 5.29-.23 6 6-.634 2.385 1.43 3.263-2 4-9.071-6.868-27.492-22.944-37-27l-1-16h1c.825 7.772 10.804 7.137 17.5 11 2.277 1.314 10.468 7.486 11.5 9.5 2.474 4.83.453 9.794 4 12.5"/><path fill="#abcad4" d="m612 796-6.5 4c5.277-.527 11.639-.949 16.5-3-19.873 14.559-36.044-8.5-51.5-18-36.903-22.683-76.941-24.231-115-3-11.617 6.48-20.923 18.243-33.5 23v-4c8.246-2.244 23.056-20.021 32.5-26 38.026-24.074 83.879-20.828 120 5 11.782 8.425 20.656 24.603 37.5 22"/><path fill="#24576a" d="M518 865c-25.738 1.609-53.396-16.099-40-45 15.36-33.138 59.997-26.829 67 7.5 5.486 26.889-12.127 26.334-27 37.5m-32-25c7.005 16.102 28.125 21.92 41 9 29.121-23.879-13.602-66.459-38-34.5-6.402 8.387-7.151 15.958-3 25.5"/><path fill="#b0cfd7" d="M527 849c10.718-10.755 11.396-25.741-.5-36-21.49-18.533-46.69 2.43-40.5 27-4.151-9.542-3.402-17.113 3-25.5 24.398-31.959 67.121 10.621 38 34.5"/><path fill="#cde1e8" d="M663.5 802c2.184 1.243.402 3.014-.5 4.5-8.596 14.152-41.583 37.905-57 45 22.038-13.106 40.755-30.254 57.5-49.5"/><path fill="#698f9c" d="M527 849c-12.875 12.92-33.995 7.102-41-9-6.19-24.57 19.01-45.533 40.5-27 11.896 10.259 11.218 25.245.5 36"/><path fill="#a8c6ce" d="M478 820c-13.396 28.901 14.262 46.609 40 45-.192.144 3.517 1.873-2 1.5 38.772 26.979-21.564 46.308-24 21.5 6.044 8.588 14.8 12.341 25 9 16.651-5.454 4.735-30.841-8.5-29-4.115.572-7.88 6.418-11.5 8 1.447-4.291 4.712-5.998 8-8.5-.164-.847-3.762.362-4 .5 2.277-3.212-.14-2.9-2.5-4-18.778-8.755-35.831-22.338-20.5-44"/><path fill="#2d5e6e" d="M497 876c-4.785 14.185 8.585 19.145 20 21-10.2 3.341-18.956-.412-25-9-.69-7.026 2.818-16.415 9-20 .238-.138 3.836-1.347 4-.5-3.288 2.502-6.553 4.209-8 8.5"/><path fill="#4e7a88" d="M517 897c-11.415-1.855-24.785-6.815-20-21 3.62-1.582 7.385-7.428 11.5-8 13.235-1.841 25.151 23.546 8.5 29"/></svg>