<svg xmlns="http://www.w3.org/2000/svg" width="1024" height="1024"><defs><linearGradient id="a" x1="311.478" x2="758.402" y1="365.394" y2="558.856" gradientUnits="userSpaceOnUse"><stop offset="0%" style="stop-color:#dae8ec"/><stop offset="16.016%" style="stop-color:#acccd4"/><stop offset="21.766%" style="stop-color:#cbdfe5"/><stop offset="41.273%" style="stop-color:#b0ced7"/><stop offset="100%" style="stop-color:#4c889c"/></linearGradient></defs><defs><linearGradient id="b" x1="622.02" x2="782.614" y1="420.614" y2="659.682" gradientUnits="userSpaceOnUse"><stop offset="0%" style="stop-color:#377588"/><stop offset="100%" style="stop-color:#1f4963"/></linearGradient></defs><defs><linearGradient id="c" x1="408.781" x2="626.632" y1="376.983" y2="571.418" gradientUnits="userSpaceOnUse"><stop offset="0%" style="stop-color:#1a9ecc"/><stop offset="100%" style="stop-color:#03557f"/></linearGradient></defs><defs><linearGradient id="d" x1="503.939" x2="588.868" y1="466.136" y2="479.666" gradientUnits="userSpaceOnUse"><stop offset="0%" style="stop-color:#0a6b94"/><stop offset="100%" style="stop-color:#0e5278"/></linearGradient></defs><path fill="#085d7a" d="M667 222c1.837 1.372 3.919 5.191 5 6-158.283-102.695-361.497-29.023-439 136-.518-1.833-.956-3.385-2-5 33.138-59.1 77.263-112.198 137.5-145 85.671-46.652 217.748-52.319 298.5 8"/><path fill="#e2edf1" d="M672 228c34.655 25.951 57.935 45.9 84 81-1.359 2.482-5.473-3.802-6-4.5-40.489-53.628-78.01-77.273-142-97.5-12.143-3.838-24.466-7.571-37-10-.923-1.674-.715-6.243-1.5-7-1.125-1.084-27.436-3.778-31-4-91.849-5.717-179.193 31.005-241.5 97.5-4.237 4.521-49.79 59.756-44.5 62.5l35.5-42.5c-7.414 12.39-16.221 24.232-23 37-3.732 7.03-17.498 34.826-18 41-.57 7.02 5.885 24.389 7 33 1.725 13.318 3.125 27.109 4 40.5l-9-.5-2 68.5c.982-20.619 3.433-65.319-2-84-2.341-25.28-5.101-50.578-12-75 77.503-165.023 280.717-238.695 439-136"/><path fill="#f5f9fa" d="M571 197c-60.366-11.7-125.749-4.115-180 24.5.31 3.802 22.714-6.524 26.5-5.5 3.444.931 20.154 40.896 18.5 45.5-70.443 26.996-122.006 94.098-141 166-1.521 5.757-1.771 22.209-3 25-2.925 6.644-27.435 5.818-34 3.5-.021-.332.022-.668 0-1-.875-13.391-2.275-27.182-4-40.5-1.115-8.611-7.57-25.98-7-33 .502-6.174 14.268-33.97 18-41 6.779-12.768 15.586-24.61 23-37L252.5 346c-5.29-2.744 40.263-57.979 44.5-62.5 62.307-66.495 149.651-103.217 241.5-97.5 3.564.222 29.875 2.916 31 4 .785.757.577 5.326 1.5 7m-256.5 83c-20.638 3.602-17.415 40.523 8 37 22.002-3.05 20.182-41.918-8-37"/><path fill="url(#a)" d="M571 197c12.534 2.429 24.857 6.162 37 10-1.294 3.959-.405 2.361 2.5 4 29.602 16.706 62.033 29.327 85.5 55.5-12.045-1.781-23.905 5.229-19 18.5 1.701 8.174 12.264 12.408 20 9 3.103-1.367 6.891-4.333 8-7.5 1.998-5.702-.702-8.651.5-13.5 72.952 66.239 54.665 178.047 54.5 267.5-.04 21.648 2.334 26.41-4 49-10.987 39.183-37.222 79.923-70.5 103.5-30.065-17.73-63.332-30.596-98.5-32.5 37.433-16.865 70.099-40.852 94-74.5 125.675-176.93-76.963-401.713-268-300-109.659 58.385-144.827 196.882-72 299.5 24.74 34.861 59.953 58.585 99 75-43.428 4.452-82.955 21.453-121.5 40.5-3.265-2.96-7.015-5.352-10.5-8-16.607-12.619-32.494-29.076-50-41-3.346-5.455-20.597-34.564-21-38.5-.356-3.475 7.483-24.884 9-30.5 12.732-47.15 15.102-77.601 12-127 6.565 2.318 31.075 3.144 34-3.5 1.229-2.791 1.479-19.243 3-25 18.994-71.902 70.557-139.004 141-166 1.654-4.604-15.056-44.569-18.5-45.5-3.786-1.024-26.19 9.302-26.5 5.5 54.251-28.615 119.634-36.2 180-24.5m-130.5 12c-1.88.034-17.181 4.487-17.5 6.5l18 42c2.483 3.102 20.517-3.695 25.5-3.5-2.011-5.583-19.658-44.104-22-45-.649-.248-2.916-.019-4 0M299 624c-2.072 3.959-2.976 14.386-2 18.5 1.599 6.745 10.342 14.865 17 16.5 25.86 6.35 40.27-28.45 21.5-43-11.953-9.266-29.505-5.365-36.5 8m382 25c1.047 2.019 2.489 2.593 4 4 24.982 23.262 56.779-20.272 28.5-38-23.532-14.752-49.944 12.651-32.5 34" style="fill:url(#a)"/>/&gt;<path fill="url(#b)" d="M756 309c12.476 16.8 23.393 33.801 34 52 .278 7.18-5.743 20.626-7 28.5-2.194 13.743-3.657 27.649-5 41.5-2.322-.266-2.832 6.969-3 8.5-2.726 24.909-4.384 59.242-2 84 .028.293.991 7.03 3 4.5 1.114 14.173 3.184 29.563 6 43.5 1.788 8.848 8.995 22.898 10 29.5 1.134 7.446-6.735 14.086-6 21-.335.631-.63 1.301-1 2-20.343 34.418-41.894 68.674-70.5 97-49.38-28.871-129.234-78.853-185-39-4.725 3.376-15.739 19.404-20.5 17-.201-1.133.397-2.161 1-3 8.069-11.22 16.363-14.937 26-24-2.713-2.69-8.997 1.382-9-4 38.047-2.852 76.537-17.27 107-40l47-42c-23.901 33.648-56.567 57.635-94 74.5 35.168 1.904 68.435 14.77 98.5 32.5 33.278-23.577 59.513-64.317 70.5-103.5 6.334-22.59 3.96-27.352 4-49 .165-89.453 18.452-201.261-54.5-267.5-1.202 4.849 1.498 7.798-.5 13.5-1.109 3.167-4.897 6.133-8 7.5 26.935-27.404-25.753-36.653-20-9-4.905-13.271 6.955-20.281 19-18.5-23.467-26.173-55.898-38.794-85.5-55.5-2.905-1.639-3.794-.041-2.5-4 63.99 20.227 101.511 43.872 142 97.5.527.698 4.641 6.982 6 4.5" style="fill:url(#b)"/>/&gt;<path fill="#eff6f8" d="M440.5 209c1.084-.019 3.351-.248 4 0 2.342.896 19.989 39.417 22 45-4.983-.195-23.017 6.602-25.5 3.5l-18-42c.319-2.013 15.62-6.466 17.5-6.5"/><path fill="#0c2943" d="M790 359c.098.634-.025 1.348 0 2-10.607-18.199-21.524-35.2-34-52-26.065-35.1-49.345-55.049-84-81-1.081-.809-3.163-4.628-5-6 41.581 24.443 79.71 62.398 105 103.5 3.267 5.31 17.335 29.195 18 33.5"/><path fill="#18364e" d="m681 586-47 42c201.805-150.573-1.52-458.32-220-341l-1-1c191.037-101.713 393.675 123.07 268 300"/><path fill="#84c5d0" d="M634 628c-30.463 22.73-68.953 37.148-107 40-220.233 16.51-307.754-276.42-113-381 218.48-117.32 421.805 190.427 220 341M330 500c.931 6.704 2.243 11.578 4 18-3.35-.546-1.383 4.2-1 5.5 61.814 209.738 394.691 145.542 363-77.5-12.783-89.964-83.237-161.1-176-165-111.859-4.702-203.191 88.712-195 200.5.341 4.649 1.698 15.43 5 18.5"/><path fill="#15bae6" d="M697 294c-7.736 3.408-18.299-.826-20-9-5.753-27.653 46.935-18.404 20 9m-8.5-23c-3.115.534-11.063 8.082-6 10 2.546.965 8.296-9.554 15.5-5.5-1.33-4.447-5.368-5.208-9.5-4.5m13 9c-.546 10.778-9.423 13.183-18.5 10.5l3.5 2.5c8.035 1.907 18.121-4.335 15-13"/><path fill="#f7fcfb" d="M688.5 271c4.132-.708 8.17.053 9.5 4.5-7.204-4.054-12.954 6.465-15.5 5.5-5.063-1.918 2.885-9.466 6-10"/><path fill="#0cbeea" d="M314.5 280c28.182-4.918 30.002 33.95 8 37-25.415 3.523-28.638-33.398-8-37m5 4c-.636-.028-8.843 1.718-9.5 2.5-1.079 17.621 8.713 4.169 10.5 3.5 1.863-.698 7.053 2.144 7.5-.5.544-3.218-6.007-5.389-8.5-5.5m-9 14c-2.493.615-1.634 5.657 1 5 1.83-.456 2.916-5.966-1-5m23 5-9 10c3.132 1.244 11.985-8.866 9-10"/><path fill="#0a7ca9" d="M701.5 280c3.121 8.665-6.965 14.907-15 13l-3.5-2.5c9.077 2.683 17.954.278 18.5-10.5"/><path fill="#0b95bf" d="M520 281c1.748 3.579-8.152 1.82-9.5 2-113.977 15.213-197.689 93.199-180.5 217-3.302-3.07-4.659-13.851-5-18.5-8.191-111.788 83.141-205.202 195-200.5"/><path fill="#093954" d="M696 446v4l-12-45.5c-2.504-1.744-3.107-13.481-8-10.5-50.602-112.401-195.469-140.99-286-57-11.018 10.222-19.544 19.462-28 32-26.948 39.956-35.982 84.431-28 132 3.729 22.223 11.254 40.971 23 60 46.27 74.961 143.08 104.396 220 75-98.084 36.831-214.246-12.896-243-118-1.757-6.422-3.069-11.296-4-18-17.189-123.801 66.523-201.787 180.5-217 1.348-.18 11.248 1.579 9.5-2 92.763 3.9 163.217 75.036 176 165"/><path fill="#fbfdfd" d="M319.5 284c2.493.111 9.044 2.282 8.5 5.5-.447 2.644-5.637-.198-7.5.5-1.787.669-11.579 14.121-10.5-3.5.657-.782 8.864-2.528 9.5-2.5"/><path fill="#2e5d6c" d="M414 287C219.246 391.58 306.767 684.51 527 668c.003 5.382 6.287 1.31 9 4h-48.5c7.319 8.072 19.988 12.034 22.5 24-.603.839-1.201 1.867-1 3-2.944-1.486-11.848-14.162-17.5-18-55.992-38.021-133.592 10.909-183 39L274 676l34 17c3.485 2.648 7.235 5.04 10.5 8 38.545-19.047 78.072-36.048 121.5-40.5-39.047-16.415-74.26-40.139-99-75-72.827-102.618-37.659-241.115 72-299.5Z"/><path fill="#0f547a" d="M676 394c17.951 39.873 19.253 78.219 11 117.5-.71 3.377-.784 9.317-2 13-.334 1.011-2.648-.013-3 1-.123.354 1.257 4.258 0 7.5-1.027 2.649-1.041 2.953-2 5-18.346 39.133-58.351 78.646-98 96-1.475.607-3.549 1.455-5 2-76.92 29.396-173.73-.039-220-75l9-3c21.428 35.713 58.603 61.878 98 74 49.516 15.235 96.43 7.744 139-21 22.989-15.523 43.932-35.181 57-60 3.979.449 6.661-5.807 8-8.5 16.776-33.745 16.218-67.013 8-103-28.756-125.927-180.577-182.658-276-88.5-.23.154-.777-.157-1 0l-9-14c90.531-83.99 235.398-55.401 286 57"/><path fill="#e2f4fd" d="M310.5 298c3.916-.966 2.83 4.544 1 5-2.634.657-3.493-4.385-1-5"/><path fill="#0a6282" d="M333.5 303c2.985 1.134-5.868 11.244-9 10z"/><path fill="url(#c)" d="M660 551c2.456-4.664 7.871-12.893 6.5-18-8.27 15.554-16.811 31.175-28.5 44.5-7.779 8.868-27.192 26.633-37 32.5-21.265 12.721-61.844 24.151-86.5 25l-50.5-3c-39.397-12.122-76.572-38.287-98-74-9.678-16.13-18.271-39.421-21-58-6.13-41.732 4.183-87.237 28-122 1.238-1.807 4.491-5.831 7-6-10.913 19.477-8.049 39.113 9 54l-2 1c-6-8.131-23.723-6.343-26 4.5-3.164 15.07 12.634 25.027 24 15.5l13 .5c-.79 3.908-2.026 10.725-2 14.5.195 28.674 7.039 53.357 25 76 48.06 60.588 143.887 56.309 187-7.5 57.644-85.315-21.473-195.628-120-175.5-24.331-20.464-61.863-21.515-88-4 95.423-94.158 247.244-37.427 276 88.5 8.218 35.987 8.776 69.255-8 103-1.339 2.693-4.021 8.949-8 8.5" style="fill:url(#c)"/>/&gt;<path fill="#057eac" d="M399 351c-5.757 4.039-15.526 14.8-19 21-2.509.169-5.762 4.193-7 6l-11-9c8.456-12.538 16.982-21.778 28-32z"/><path fill="#fdfeff" d="M488 355c4.654 3.914 15.082 19.222 17 25 3.076 9.265 4.509 22.665 1 32-5.852 15.569-31.458 27.61-47 30-4.743.73-11.144.985-16 1-4.609.014-11.497-.358-16-1-11.819-1.684-28.952-8.099-38-16-17.049-14.887-19.913-34.523-9-54 3.474-6.2 13.243-16.961 19-21 .223-.157.77.154 1 0 26.137-17.515 63.669-16.464 88 4"/><path fill="#2bbfec" d="m421 538 22-15c41.359 50.004 126.518 39.97 151-21.5 24.762-62.173-23.081-126.413-89-121.5-1.918-5.778-12.346-21.086-17-25 98.527-20.128 177.644 90.185 120 175.5-43.113 63.809-138.94 68.088-187 7.5"/><path fill="#0a4a69" d="M231 359c1.044 1.615 1.482 3.167 2 5 6.899 24.422 9.659 49.72 12 75-.176-.605-1.481-2.536-1.5-4 .04 2.044-1.371 5.684-1.5 7-.673-8.262-1.01-16.785-2-25-2.219-18.42-5.764-36.761-11-54.5l-34.5-1.5c-2.759 1.106.834 7.092 1.5 10 .2.876.674 1.625 1 3 1.336 5.64 2.962 11.29 4 17h-2c-.981-4.693-4.95-28.102-9.5-29-.787.274-1.35 1.863-1.5 2-5.03 4.573-4.964 17.838-9 23.5 1.726 3.18 5.552-6.767 11 4.5 2.854 5.902 3.964 16.352 5 23l-3 3c-.755-3.154-.368-3.346-2-6l2-4.5-5.5-18.5c-5.667 1.943-13.507 4.004-12.5 10 .171 1.018 1.471 3.188 2 5-.623.087-1.777-.156-2 0l-3.5-5c-16.914 34.078-17.508 83.404-12.5 121-.682.405-1.985 4.731-2 5-4.745-32.959-7.173-92.459 8-122.5 3.47-6.869 12.486-11.95 14-15 2.279-4.591 3.51-26.3 10.5-28.5 8.499-2.675 32.298 2.006 42.5 0"/><path fill="#4d7385" d="M792 360c-.112.004.061 1.557-2 1-.025-.652.098-1.366 0-2z"/><path fill="#000313" d="M844 387c-.274-.116-.693.102-1 0-3.865-6.858-2.815-15.642-8-22-.232-.285.003-3.415-2.5-3-4.346.889-7.19 25.803-10.5 30 1.575-8.511 4.956-18.33 6-26 .146-1.071 2.094-2.414.5-4h-33c-2.112.99-1.122 3.305-1.5 4-10.283 18.918-10.235 57.463-13 79-1.458 12.38-1.972 28.452-2 41-.024 10.894 1.309 22.132 2 33 1.703 26.788 3.213 57.453 16 81-.254.027-2.685 2.83-5 1-1.005-6.602-8.212-20.652-10-29.5-2.816-13.937-4.886-29.327-6-43.5-2.537-32.271-1.111-64.902 2-97 1.343-13.851 2.806-27.757 5-41.5 1.257-7.874 7.278-21.32 7-28.5 2.061.557 1.888-.996 2-1 8.454-.309 36.115-3.01 42.5-1 4.365 1.374 10.996 22.671 9.5 28"/><path fill="#cde4ea" d="M240 417c-5.747 9.604-23.188 3.016-34 6-1.131-10.513-3.105-21.574-5-32-1.038-5.71-2.664-11.36-4-17 8.493-3.583 21.365-.53 30.5 0 6.742-15.6-22.842-6.686-31-9-1.502 2.537.566 1.74 2 2 6.673 1.211 17.738-1.417 24 0 12.306 2.786-24.72 3.315-26.5 4-.666-2.908-4.259-8.894-1.5-10l34.5 1.5c5.236 17.739 8.781 36.08 11 54.5"/><path fill="#d3e8ed" d="M199 391c4.001 19.14 5.866 38.474 7 58-3.875.482-1.12-6.074-2-8.5-.321-.884-1.967-.392-2-.5-4.096-13.561-3.891-28.966-6-43.5-.099-.681 2.102-.32 2-1-.068-.455-2.999-1.936-4-7.5-1.458-8.106-1.001-17.061-6-24 .15-.137.713-1.726 1.5-2 4.55.898 8.519 24.307 9.5 29"/><path fill="#e9f5f8" d="M828 366c-10.024-2.231-24.522-4.016-34 0 .378-.695-.612-3.01 1.5-4h33c1.594 1.586-.354 2.929-.5 4"/><path fill="#c0dce1" d="M835 365c-8.949 14.52-8.188 34.873-11 51.5l4-4.5c-3.853 23.268-5.131 55.276-5 79l-2.5-6c-.335-.244-3.4 1.285-3.5 1.5-.814 1.744-.065 33.127 0 38.5.175 14.573.98 28.814 2 43.5-3.269-16.602-4.901-33.636-6-50.5-.688-10.561.019-21.539-2-32 .649-.158 1.12-.03 1-1l2-.5c.247-2.04-.356-4.607 0-6.5v-5c1.211-8.549.472-12.841 1-20 .831-1.458 3.483-9.629 0-9 .399-5.819 1.487-13.088 2-21 .445-6.867 2.578-13.525 1-20.5l3 2c-.571-4.493.18-8.068 1-12.5 3.31-4.197 6.154-29.111 10.5-30 2.503-.415 2.268 2.715 2.5 3"/><path fill="#94cdd7" d="m194 388-4 4c-5.448-11.267-9.274-1.32-11-4.5 4.036-5.662 3.97-18.927 9-23.5 4.999 6.939 4.542 15.894 6 24"/><path fill="#cae2e9" d="M828 366c-1.044 7.67-4.425 17.489-6 26-.82 4.432-1.571 8.007-1 12.5l-3-2c1.578 6.975-.555 13.633-1 20.5l-31.5-1c-2.525 1.12-2.051 19.185-2.5 22.5-.114.839-1.988.398-2 .5 2.765-21.537 2.717-60.082 13-79 9.478-4.016 23.976-2.231 34 0"/><path fill="#b5d1d9" d="M197 374c-.326-1.375-.8-2.124-1-3 1.78-.685 38.806-1.214 26.5-4-6.262-1.417-17.327 1.211-24 0-1.434-.26-3.502.537-2-2 8.158 2.314 37.742-6.6 31 9-9.135-.53-22.007-3.583-30.5 0"/><path fill="#91cad6" d="M835 365c5.185 6.358 4.135 15.142 8 22-9.947-3.309-10.935 5.184-13 13-.862 3.262-1.404 8.398-2 12l-4 4.5c2.812-16.627 2.051-36.98 11-51.5"/><path fill="#0793c3" d="M373 378c-23.817 34.763-34.13 80.268-28 122l-11 1c-7.982-47.569 1.052-92.044 28-132z"/><path fill="url(#d)" d="M443 523c-13.792-16.675-20.818-36.29-20-58 .298-7.906 2.212-15.384 4-23 4.503.642 11.391 1.014 16 1-8.291 21.751-3.572 43.599 10 62 18.2 24.677 54.203 34.926 83 26 19.266 18.031 43.914-16.473 21-29 12.2-12.035 13.31-30.837 10-47-6.449-31.489-31.746-40.738-61-43 3.509-9.335 2.076-22.735-1-32 65.919-4.913 113.762 59.327 89 121.5-24.482 61.47-109.641 71.504-151 21.5" style="fill:url(#d)"/>/&gt;<path fill="#07172b" d="M843 387c.307.102.726-.116 1 0 34.989 14.808 30.435 145.279 13 173.5-3.114 5.041-11.239 10.038-13 14-2.395 5.388-2.258 18.648-7 24-5.852 6.605-31.994 2.35-41.5 4.5-3.087 6.399-6.173 12.729-9.5 19-.735-6.914 7.134-13.554 6-21 2.315 1.83 4.746-.973 5-1 4.555-.477 32.068 1.396 33-1.5-4.498-8.731-9.71-20.886-8-30.5.933 4.478 6.036 28.343 10.5 29 4.052.596 10.112-21.41 9.5-22.5-.426-.759-4.373-.446-5.5-1.5-8.725-8.156-10.262-31.119-11.5-43 1.967-.538 2.819 2.117 3 3.5.869 6.635 2.654 37.819 12.5 37.5 3.187-.103 12.272-8.905 13.5-12 .494-1.246.63-1.786 1-3 16.89-47.362 18.218-110.611-2.5-157-8.301 5.652.908 10.132 3.5 18.5 2.597 8.386 5.097 23.635 6 32.5h-3c-1.581-13.324-2.879-27.468-10.5-39-3.478-.1-6.005 23.508-6.5 27l-3-3c.002-.661.002-1.339 0-2-1.684-5.924 10.601-34.231 10-36-1.212-3.566-8.991-7.181-12.5-8-1.749.497-3.994 8.925-4.5 11h-2c2.065-7.816 3.053-16.309 13-13"/><path fill="#b7dae0" d="M202 440c-2.463.012-.172 16.055.5 18 .903-.007.892-18.007-.5-18 .033.108 1.679-.384 2 .5.88 2.426-1.875 8.982 2 8.5 1.221 21.027 2.476 46.649 1 67.5-.079 1.12-.761 8.952-3 8.5.055-3.902 2.802-26.379 2-27.5-.943-1.319-5.067 1.363-4.5-6.5l-2.5 5c.551-26.648.105-54.655-4-81-1.036-6.648-2.146-17.098-5-23l4-4c1.001 5.564 3.932 7.045 4 7.5.102.68-2.099.319-2 1 2.109 14.534 1.904 29.939 6 43.5"/><path fill="#1c7c9e" d="M190 412c-1.985-3.229-11.715-12.105-16-13-1.007-5.996 6.833-8.057 12.5-10l5.5 18.5z"/><path fill="#197399" d="M849 397c-2.013.855-3.444 2.618-5 4-2.303 2.046-8.761 7.26-10 9.5-.393.71 1.998 8.614-4 8.5.685-6.197.519-12.921 2-19 .506-2.075 2.751-10.503 4.5-11 3.509.819 11.288 4.434 12.5 8"/><path fill="#4b8a99" d="M201 391c1.895 10.426 3.869 21.487 5 32 2.097 19.501 1.8 39.421 3 59-.698 11.174-.217 22.789-.5 34l2.5-29.5c1.011-1.082 4.482-.323 6-.5-.569 10.379 8.488 23.375 2 32.5 1.671 2.598 20.586-3.241 21 4.5-.184 3.472-.678 8.924 1 12-1.427 16.162-2.985 35.049-8 50.5-2.134 6.575-3.069 13.499-10 14.5-3.333.482-30.314.61-31-1.5 6.9-13.676 12.055-30.094 11-45.5 1.471-10.098.872-18.923 1-28 2.239.452 2.921-7.38 3-8.5 1.476-20.851.221-46.473-1-67.5-1.134-19.526-2.999-38.86-7-58z"/><path fill="#09213a" d="M696 450c0 24.408-.683 48.079-8 71.5-.892 2.855-3.384 9.819-6 11.5 1.257-3.242-.123-7.146 0-7.5.352-1.013 2.666.011 3-1 1.216-3.683 1.29-9.623 2-13 8.253-39.281 6.951-77.627-11-117.5 4.893-2.981 5.496 8.756 8 10.5z"/><path fill="#93d4e6" d="M839 433c0-.103-1.985.316-2-.5-.114-6.146-.013-10.905 1-17 .112-.671-2.111-.329-2-1 .135-.816 10.857-7.455 8-13.5 1.556-1.382 2.987-3.145 5-4 .601 1.769-11.684 30.076-10 36"/><path fill="#81cae0" d="M190 412c1.632 2.654 1.245 2.846 2 6 3.576 14.944 1.57 32.736 4 48-.021-.101-1.704.376-2-.5-1.548-4.577 1.633-8.142-8-7.5-.631-10.487-2.09-22.658-4-33-1.391-7.53-3.906-13.823-6-21-.529-1.812-1.829-3.982-2-5 4.285.895 14.015 9.771 16 13"/><path fill="#46dcf2" d="M174 404c-3.973 2.773-8.898 20.124-10 25-6.828 30.218-6.604 76.916-1 107.5.177.968 1.117 5.25 3 4.5.062.321-.065.68 0 1 .232 1.143-1.675 2.19 1 7 .217 1.806 1.526 5.928 0 7-4.188-8.499-7.72-26.395-9-36-5.008-37.596-4.414-86.922 12.5-121z"/><path fill="#3bd8f6" d="M855 556c3.904-12.816 6.032-38.549 7-53 1.183-17.657 1.798-35.358 0-53-.903-8.865-3.403-24.114-6-32.5-2.592-8.368-11.801-12.848-3.5-18.5 20.718 46.389 19.39 109.638 2.5 157"/><path fill="#103d62" d="M832 400c-1.481 6.079-1.315 12.803-2 19-1.486 13.444-2.41 27.526-3 41-.366 8.364-.9 17.167-1 25.5-.01.81 2.001.397 2 .5-.028 3.014-1.999 1.711-2 2.5-.018 13.381.144 26.656 1 40 7.34 1.062 7.176-8.681 13 .5.81 4.766 1.591 11.587 3 16 .893 2.799 3.721 12.106 7 9 1.015 1.929 1.662 4.154 4 5-1.228 3.095-10.313 11.897-13.5 12-9.846.319-11.631-30.865-12.5-37.5-.181-1.383-1.033-4.038-3-3.5-1.287-12.355-1.931-26.554-2-39-.131-23.724 1.147-55.732 5-79 .596-3.602 1.138-8.738 2-12z"/><path fill="#76bed5" d="M839 433c.002.661.002 1.339 0 2-.026 7.706-1.905 16.012-2 24-3.709-1.71-6.431-.214-10 1 .59-13.474 1.514-27.556 3-41 5.998.114 3.607-7.79 4-8.5 1.239-2.24 7.697-7.454 10-9.5 2.857 6.045-7.865 12.684-8 13.5-.111.671 2.112.329 2 1-1.013 6.095-1.114 10.854-1 17 .015.816 2 .397 2 .5"/><path fill="#081a2a" d="M176 404c2.094 7.177 4.609 13.47 6 21h-3c-.362-1.865-3.296-16.053-4.5-16-3.739 7.2-6.609 15.134-8.5 23l-2-3c1.102-4.876 6.027-22.227 10-25 .223-.156 1.377.087 2 0"/><path fill="#32ccf2" d="M179 425c7.527 38.788 6.789 90.772-6 128-1.873-.697-1.481 4.124-6-4-.284-2.369.017-4.709-1-7-.065-.32.062-.679 0-1-6.211-32.368-7.706-76.946 0-109 1.891-7.866 4.761-15.8 8.5-23 1.204-.053 4.138 14.135 4.5 16"/><path fill="#3acaf0" d="M859 450c2.251 18.978 2.298 33.845 1 53-.26 3.839.476 8.332 0 12l-19 2c-2.998-26.433-2.723-52.716 1-79 .495-3.492 3.022-27.1 6.5-27 7.621 11.532 8.919 25.676 10.5 39"/><path fill="#083858" d="M567 455c-2.266-.279-1.826.277-2 2-8.41-8.668-4.269 5.914-5 10.5-2.272 14.249-8.146 21.957-16 33.5-6.169 1.659-12.017 7.655-13 14-22.702 9.157-53.498 2.15-68-18-12.053-16.748-12.346-36.569-4-55 15.542-2.39 41.148-14.431 47-30 29.254 2.262 54.551 11.511 61 43"/><path fill="#073a57" d="M195 415c4.105 26.345 4.551 54.352 4 81-.256 12.376-.598 24.705-2 37l-2-1c.127-1.305-.107-2.69 0-4 1.111-13.553 1.387-27.395 1-41-.165-5.78 1.014-16.1 0-21-2.43-15.264-.424-33.056-4-48z"/><path fill="#9fc9d2" d="M240 417c.99 8.215 1.327 16.738 2 25-2.771 28.181 1.729 62.092-1 93-1.678-3.076-1.184-8.528-1-12 .634-11.982 2.199-25.067 2-37-.157-9.406-1.906-18.985-1-28.5l-29.5-1.5c-1.54.683-2.281 22.488-2.5 26-1.2-19.579-.903-39.499-3-59 10.812-2.984 28.253 3.604 34-6"/><path fill="#eaf6fb" d="M387 427c4.263 5.778 3.578 15.325-2 20-11.366 9.527-27.164-.43-24-15.5 2.277-10.843 20-12.631 26-4.5"/><path fill="#9ac5cf" d="M817 423c-.513 7.912-1.601 15.181-2 21-.203 2.963.218 6.04 0 9-.528 7.159.211 11.451-1 20-.222 1.567.28 3.515 0 5-.356 1.893.247 4.46 0 6.5l-2 .5-.5-29h-29l-1.5 30h-2c.028-12.548.542-28.62 2-41 .012-.102 1.886.339 2-.5.449-3.315-.025-21.38 2.5-22.5z"/><path fill="#0f304a" d="M182 425c1.91 10.342 3.369 22.513 4 33 .489 8.124 1.147 20.092 1 28-.198 10.624-2.205 28.816-4 40-1.635 10.191-4.063 20.78-8.5 30-2.367.461-1.288-2.921-1.5-3 12.789-37.228 13.527-89.212 6-128z"/><path fill="#ace8f6" d="M427 442c-1.788 7.616-3.702 15.094-4 23l-27-3c-.026-3.775 1.21-10.592 2-14.5l-13-.5c5.578-4.675 6.263-14.222 2-20l2-1c9.048 7.901 26.181 14.316 38 16"/><path fill="#112d4e" d="M166 432c-7.706 32.054-6.211 76.632 0 109-1.883.75-2.823-3.532-3-4.5-5.604-30.584-5.828-77.282 1-107.5z"/><path fill="#cddde2" d="M778 431c-3.111 32.098-4.537 64.729-2 97-2.009 2.53-2.972-4.207-3-4.5-2.384-24.758-.726-59.091 2-84 .168-1.531.678-8.766 3-8.5"/><path fill="#01040b" d="M245 439c5.433 18.681 2.982 63.381 2 84-.696 14.62-5.28 32.833-5 46-3.809 9.054-4.989 18.995-9 28-.601 1.349-1.407 2.648-2 4-.345.186.04.569-2 1-.602.127-1.364-.077-2 0l-4-2c6.931-1.001 7.866-7.925 10-14.5 5.015-15.451 6.573-34.338 8-50.5 2.729-30.908-1.771-64.819 1-93 .129-1.316 1.54-4.956 1.5-7 .019 1.464 1.324 3.395 1.5 4"/><path fill="#0c2e4a" d="M842 438c-3.723 26.284-3.998 52.567-1 79 .411 3.628.359 7.355 1 11 .944 5.365 2.356 10.811 4 16l-3 1c-1.409-4.413-2.19-11.234-3-16-2.423-14.264-3.82-30.518-4-45-.104-8.424.902-16.705 1-25 .095-7.988 1.974-16.294 2-24z"/><path fill="#d2eaef" d="M202 440c1.392-.007 1.403 17.993.5 18-.672-1.945-2.963-17.988-.5-18"/><path fill="#056f99" d="M459 442c-8.346 18.431-8.053 38.252 4 55l-10 8c-13.572-18.401-18.291-40.249-10-62 4.856-.015 11.257-.27 16-1"/><path fill="#608c9f" d="M815 453c.218-2.96-.203-6.037 0-9 3.483-.629.831 7.542 0 9"/><path fill="#f1f8f8" d="M334 518c28.754 105.104 144.916 154.831 243 118 2.569-.982 3.362-1.283 5-2 6.028-2.48 11.928-3.55 18.5-7 33.623-17.648 66.851-53.152 79.5-89 .959-2.047.973-2.351 2-5 2.616-1.681 5.108-8.645 6-11.5 7.317-23.421 8-47.092 8-71.5v-4c31.691 223.042-301.186 287.238-363 77.5-.383-1.3-2.35-6.046 1-5.5"/><path fill="#0e405d" d="M862 450c1.798 17.642 1.183 35.343 0 53h-2c1.298-19.155 1.251-34.022-1-53z"/><path fill="#88adb5" d="M258 455c.022.332-.021.668 0 1 3.102 49.399.732 79.85-12 127-1.931-1.315-3.944-11.346-4-14-.28-13.167 4.304-31.38 5-46l2-68.5z"/><path fill="#0979a1" d="M565 457c-1.886 18.636-3.081 27.904-16 43-.761-.009-4.042.742-5 1 7.854-11.543 13.728-19.251 16-33.5.731-4.586-3.41-19.168 5-10.5"/><path fill="#061e32" d="M567 455c3.31 16.163 2.2 34.965-10 47-.512-.28-2.234.258-3 0-1.039-.351-4.008-1.988-5-2 12.919-15.096 14.114-24.364 16-43 .174-1.723-.266-2.279 2-2"/><path fill="#6c9fad" d="M242 486c-7.95.667-17.239-.906-25 0-1.518.177-4.989-.582-6 .5l-2.5 29.5c.283-11.211-.198-22.826.5-34 .219-3.512.96-25.317 2.5-26l29.5 1.5c-.906 9.515.843 19.094 1 28.5"/><path fill="#73a7b3" d="M812 485c.12.97-.351.842-1 1-5.376 1.309-23.075 0-30 0l1.5-30h29z"/><path fill="#0c91bd" d="M196 466c1.014 4.9-.165 15.22 0 21l-9-1c.147-7.908-.511-19.876-1-28 9.633-.642 6.452 2.923 8 7.5.296.876 1.979.399 2 .5"/><path fill="#1092bc" d="M837 459c-.098 8.295-1.104 16.576-1 25l-8 2c.001-.103-2.01.31-2-.5.1-8.333.634-17.136 1-25.5 3.569-1.214 6.291-2.71 10-1"/><path fill="#6cddf6" d="M423 465c-.818 21.71 6.208 41.325 20 58l-22 15c-17.961-22.643-24.805-47.326-25-76z"/><path fill="#518e9b" d="M814 478c.28-1.485-.222-3.433 0-5z"/><path fill="#156e96" d="M840 529c-5.824-9.181-5.66.562-13-.5-.856-13.344-1.018-26.619-1-40 .001-.789 1.972.514 2-2.5l8-2c.18 14.482 1.577 30.736 4 45"/><path fill="#127299" d="M196 487c.387 13.605.111 27.447-1 41l-12-2c1.795-11.184 3.802-29.376 4-40z"/><path fill="#78b9c6" d="M823 491c.069 12.446.713 26.645 2 39 1.238 11.881 2.775 34.844 11.5 43 1.127 1.054 5.074.741 5.5 1.5.612 1.09-5.448 23.096-9.5 22.5-4.464-.657-9.567-24.522-10.5-29-2.944-14.126-4.331-28.579-5-43-.065-5.373-.814-36.756 0-38.5.1-.215 3.165-1.744 3.5-1.5z"/><path fill="#397285" d="M242 486c.199 11.933-1.366 25.018-2 37-.414-7.741-19.329-1.902-21-4.5 6.488-9.125-2.569-22.121-2-32.5 7.761-.906 17.05.667 25 0"/><path fill="#468294" d="M781 486c6.925 0 24.624 1.309 30 0 2.019 10.461 1.312 21.439 2 32l-32 1c-.691-10.868-2.024-22.106-2-33z"/><path fill="#7abac7" d="M204 525c-.128 9.077.471 17.902-1 28-.826 5.673-7.552 45.499-14.5 44-2.258-.487-8.165-21.101-7.5-22.5.3-.631 3.797-.815 4.5-1.5 8.934-8.709 10.087-27.602 11.5-40 1.402-12.295 1.744-24.624 2-37l2.5-5c-.567 7.863 3.557 5.181 4.5 6.5.802 1.121-1.945 23.598-2 27.5"/><path fill="#0d597e" d="M463 497c14.502 20.15 45.298 27.157 68 18-.098.633.017 1.348 0 2-.12 4.529 1.435 10.663 5 14-28.797 8.926-64.8-1.323-83-26z"/><path fill="#057eac" d="M345 500c2.729 18.579 11.322 41.87 21 58l-9 3c-11.746-19.029-19.271-37.777-23-60z"/><path fill="#c0e5ef" d="M549 500c.992.012 3.961 1.649 5 2-3.384 4.372-11.707 3.778-13 10-4.554.865-3.814 2.564-6 4-.321.211-3.206.853-4 1 .017-.652-.098-1.367 0-2 .983-6.345 6.831-12.341 13-14 .958-.258 4.239-1.009 5-1"/><path fill="#7ee8fa" d="M557 502c22.914 12.527-1.734 47.031-21 29-3.565-3.337-5.12-9.471-5-14 .794-.147 3.679-.789 4-1 8.582 23.164 21.154-6.877 6-4 1.293-6.222 9.616-5.628 13-10 .766.258 2.488-.28 3 0"/><path fill="#145582" d="M862 503c-.968 14.451-3.096 40.184-7 53-.37 1.214-.506 1.754-1 3-2.338-.846-2.985-3.071-4-5-1.882-3.576-2.791-6.183-4-10-1.644-5.189-3.056-10.635-4-16 15.988-.482 16.009 2.339 18-13 .476-3.668-.26-8.161 0-12z"/><path fill="#fcfcfd" d="M535 516c2.186-1.436 1.446-3.135 6-4 15.154-2.877 2.582 27.164-6 4"/><path fill="#0c9cd0" d="M860 515c-1.991 15.339-2.012 12.518-18 13-.641-3.645-.589-7.372-1-11z"/><path fill="#2a5c75" d="M813 518c1.099 16.864 2.731 33.898 6 50.5-1.02-14.686-1.825-28.927-2-43.5.669 14.421 2.056 28.874 5 43-1.71 9.614 3.502 21.769 8 30.5-.932 2.896-28.445 1.023-33 1.5-12.787-23.547-14.297-54.212-16-81z"/><path fill="#041c35" d="M167 556c18.825 38.204 26.297-6.564 28-24l2 1c-1.413 12.398-2.566 31.291-11.5 40-.703.685-4.2.869-4.5 1.5-.665 1.399 5.242 22.013 7.5 22.5 6.948 1.499 13.674-38.327 14.5-44 1.055 15.406-4.1 31.824-11 45.5.686 2.11 27.667 1.982 31 1.5l4 2c-5.627.684-29.468.967-34.5 0-13.347-2.566-10.555-21.806-14.5-29.5-.572-1.116-8.239-6.243-10-9-5.618-8.794-12.598-28.02-12-38.5.015-.269 1.318-4.595 2-5 1.28 9.605 4.812 27.501 9 36"/><path fill="#17567d" d="M195 528c-.107 1.31.127 2.695 0 4-1.703 17.436-9.175 62.204-28 24 1.526-1.072.217-5.194 0-7 4.519 8.124 4.127 3.303 6 4 .212.079-.867 3.461 1.5 3 4.437-9.22 6.865-19.809 8.5-30z"/><path fill="#47b1d8" d="M660 551c-13.068 24.819-34.011 44.477-57 60l-2-1c9.808-5.867 29.221-23.632 37-32.5 11.689-13.325 20.23-28.946 28.5-44.5 1.371 5.107-4.044 13.336-6.5 18"/><path fill="#09213a" d="M582 634c39.649-17.354 79.654-56.867 98-96-12.649 35.848-45.877 71.352-79.5 89-6.572 3.45-12.472 4.52-18.5 7"/><path fill="#0c7aa7" d="M167 549c-2.675-4.81-.768-5.857-1-7 1.017 2.291.716 4.631 1 7"/><path fill="#271a30" d="M846 544c1.209 3.817 2.118 6.424 4 10-3.279 3.106-6.107-6.201-7-9z"/><path fill="#224a5f" d="M246 583c-1.517 5.616-9.356 27.025-9 30.5.403 3.936 17.654 33.045 21 38.5 2.751 4.485 10.821 19.49 13 22h-2c-15.328-22.98-28.594-46.803-40-72 2.04-.431 1.655-.814 2-1 1.569-.847 4.611-2.395 2-4 4.011-9.005 5.191-18.946 9-28 .056 2.654 2.069 12.685 4 14"/><path fill="#83b0b8" d="M231 601c.593-1.352 1.399-2.651 2-4 2.611 1.605-.431 3.153-2 4"/><path fill="#026a99" d="m601 610 2 1c-42.57 28.744-89.484 36.235-139 21l50.5 3c24.656-.849 65.235-12.279 86.5-25"/><path fill="#437c8e" d="m314 659 1-1c22.921 3.795 37.427-25.743 19-40-10.786-8.346-24.271-6.185-31 6-1.903-.444.099-3.469-4 0 6.995-13.365 24.547-17.266 36.5-8 18.77 14.55 4.36 49.35-21.5 43"/><path fill="#0b223b" d="m685 653 1-2c.083.115 1.889 1.913 2 2 20.469 16.015 44.957-14.089 26-33-18.115-18.071-45.19 5.5-33 29-17.444-21.349 8.968-48.752 32.5-34 28.279 17.728-3.518 61.262-28.5 38"/><path fill="#e0fafb" d="m334 618-1 2c-7.057-5.431-17.118-2.997-24.5 1-1.858 1.006-3.008 4.754-4 5-.568.141-1.378-1.972-1.5-2 6.729-12.185 20.214-14.346 31-6"/><path fill="#1cbbe8" d="m714 620-1 1c-13.888-11.168-33.197-.972-33 16.5.048 4.279 3.743 10.363 6 13.5l-1 2c-1.511-1.407-2.953-1.981-4-4-12.19-23.5 14.885-47.071 33-29"/><path fill="#2296c2" d="M333 620c2.293 1.765 4.083 6.26 5 9-1.15-.168-.865.798-1 1-.99-.438-1.947-2.537-3-3-7.297-18.921-37.654-1.315-29 14 2.764 4.892 5.809 5.306 11 5-.117.044.387 1.693-.5 2-3.107 1.075-6.418.093-9.5 3-.892-3.666 1.517-2.863 1-4.5-1.21-3.834-10.274-9.558-4-19-2.231-.824-5.199 10.956-5 13 .5 5.126 5.455 9.764 9 12.5 2.029 1.565 5.48 4.583 8 5l-1 1c-6.658-1.635-15.401-9.755-17-16.5-.976-4.114-.072-14.541 2-18.5 4.099-3.469 2.097-.444 4 0 .122.028.932 2.141 1.5 2 .992-.246 2.142-3.994 4-5 7.382-3.997 17.443-6.431 24.5-1"/><path fill="#025988" d="M713 621c.123.099-.462 1.181 1 3 .144 3.619-1.168.741-2 1-8.887-18.455-40.099 4.074-27 17 10.853 10.71 26.732-5.048 32-15 3.428 8.32 2.594 17.883-4.5 24-7.449 6.423-16.001 5.634-24.5 2-.111-.087-1.917-1.885-2-2-2.257-3.137-5.952-9.221-6-13.5-.197-17.472 19.112-27.668 33-16.5"/><path fill="#13c9ef" d="M315 658c-2.52-.417-5.971-3.435-8-5 .317.196 1.564-.195 2 0 16.046 9.492 34.098-2.726 30-22-.47-2.212-.965-1.894-1-2-.917-2.74-2.707-7.235-5-9l1-2c18.427 14.257 3.921 43.795-19 40"/><path fill="#32bce3" d="M712 625c-.098.031.306 2.005-.5 2-3.414-.021-6.915-2.68-12-2-6.896.922-14.817 9.636-14.5 17-13.099-12.926 18.113-35.455 27-17"/><path fill="#75e6fc" d="M334 627c-14.2-6.246-23.575 1.192-29 14-8.654-15.315 21.703-32.921 29-14"/><path fill="#1099c5" d="M688 653c8.499 3.634 17.051 4.423 24.5-2 7.094-6.117 7.928-15.68 4.5-24-1.338-3.248-2.865-2.832-3-3-1.462-1.819-.877-2.901-1-3l1-1c18.957 18.911-5.531 49.015-26 33"/><path fill="#01112c" d="M785 624c-18.742 35.387-37.907 69.14-67 97.5 38.741 24.259 82.271-11.576 65-54 15.253 9.562 25.465 30.727 28 48 10.652 72.573-59.188 133.733-129.5 117.5l27.5 12.5c-45.396 17.527-97.681 16.385-144.5 4.5-4.505-1.144-18.085-8.747-19.5-9 1.096.375 4.841 1.184 6 .5.248-.578-7.324-6.562-8-7.5-2.707-3.753-4.151-4.919-1-9 12.31 15.052 40.393 29.794 60 29.5-42.985-10.024-75.589-43.17-80-88-2.387-24.264 4.737 8.248 6 12 7.27 21.604 22.165 44.927 42 56l-15-16h4c-6.246-7.825-11.423-16.82-14-26.5 1.005-2.831 2.978 1.479 4 3 3.802 5.661 7.385 12.46 12 17.5 30.853 33.698 99.544 51.568 142 33-5.69-2.142-15.293-.476-21.5.5-19.133 3.008-26.342 6.026-48 1-38.775-8.998-64.467-36.243-79.5-72 25.397 32.939 80.402 65.974 123 59.5-5.878-2.159-12.09-7.254-17.5-9.5-1.458-.606-2.527 2.593-4 2-5.348-2.154-9.908-7.635-15.5-9-8.597-15.413-18.974-24.146-28-44-3.586-7.888-6.942-15.89-10-24 4.555 5.062 6.973 10.053 11 15 6.401 7.864 10.474 15.903 18.5 23 2.948 2.606 11.138 10.713 11.5 5l-33-59.5c.016-2.953 2.543.54 3 1 2.301 2.315 8.992 11.468 11 14.5 7.57 11.429 12.403 20.362 21 32 23.478 31.785 46.896 51.148 91.5 40 2.637-.659 14.811-5.505 15.5-7.5.059-.17-2.059-2.83-2-3 .376-1.094 17.31-8.322 20.5-10.5 25.788-17.606 36.865-35.678 39.5-66.5.136-1.595.971-6.004-2-5.5v-9.5c-3.485 6.199-3.053 17.831-6 26-15.944 44.199-92.585 62.73-124 24.5 6.828 5.186 14.979 9.713 23 13 29.922 12.261 58.15 3.845 82-16.5l-3-1 16-17c.128-2.648-2.114-.051-3 .5 3.015-6.97 10.226-14.931 8-23 6.03-16.012 3.533-31.828-7.5-45 1.583 5.673 2.982 9.997 3.5 16l-3 1c.045-5.216-.095-11.384-4-15.5 4.799 23.064-1.828 40.385-20 54.5-4.961 1.684-12.84 8.174-18.5 6-2.105-.809.557-1.914.5-2 18.31-3.82 37.028-22.394 35.5-42-11.481 36.44-43.603 38.311-75 26-11.274-4.421-61-37.132-66-37-2.075.055.745 3.17-3 3-1.362-.062-15.694-6.071-19.5-7-9.164-2.237-18.165-5.289-27.5-7l-23-2c14.199-2.684 29.214 1.56 43 5 1.722-1.656-2.049-2.687-3-3-26.37-8.689-73.869-6.459-91.5 18-6.609 6.329-5.939 6.66-8 15-1.146 4.637-1.638 9.31-2.5 14-3.342-3.735-.5-10.385-1.5-14.5-.213-.877-1.965-1.38-2-1.5-9.715-33.419-62.492-40.572-91.5-33l-11 5 28-6c2.375.921 12.443-2.138 12 2-21.569-1.271-41.738 7.129-62 13-1.902.551-1.433-2.166-2-2-21.931 6.429-36.913 20.031-56.5 30-9.413 4.791-18.624 9.467-29 12-28.285 6.905-52.861.821-61.5-30-.749 22.632 15.646 34.881 34.5 43 .711.306 2.322-.544 3 .5-.847 1.124-3.434.105-4 .5-4.865.45-8.685-2.462-13-4-19.642-14.026-28.344-31.937-23-56.5l-7 15.5c.979-6.498 3.383-12.574 4.5-19-13.198 15.443-13.654 29.009-9.5 48 2.791 12.76 5.036 13.322 11 23.5.47.802-1.845 2.641-1 4 1.908 3.07 9.873 9.87 13 13 28.654 28.677 67.28 28.051 101 2.5-42.518 45.563-129.809 11.756-129-51.5-3.155 2.391-1.4 10.026-1 13.5-3.25.199-2.195 8.697-2 10.5 2.979 27.567 29.697 59.801 56.5 67.5 6.996 2.01 22.605 5.275 24.5-3 6.195.93 14.755 1.378 21 1l.5 7c-5.83-1.764-10.036 4.089-16 5-9.72 1.485-17.935-1.854-27-5l12 7-20-8c13.575 13.967 34.562 9.798 52 9l10-5c-4.475.049-9.945 5.072-14 2 4.142 1.997 34.776-16.809 34.5-11.5-9.345 6.788-17.567 13.188-29 16l8.5-.5c36.47-11.762 52.664-41.24 71.5-71 .835-1.319 12.416-23.246 15-18.5-6.261 7.955-10.416 15.081-15 24-.195.379 2.828.42 2 2-6.158 11.753-14.837 22.818-22 34-.102 2.893 1.519.1 2 .5 3.499 2.912 5.301-.458 9.5-4 7.444-6.278 12.82-14.228 18.5-22 1.8-2.463 9.178-15.994 10-16.5 1.446-.89 1.876 1.515 2 1.5-7.453 15.266-12.888 33.126-22 47.5-4.045 6.381-10.937 11.452-15 17.5-2.069 1.817-28.09 17.917-29 14.5-.225-.844 6.984-2.176 5.5-4.5l-10.5 5.5c-.544 3.798 20.098 2.028 23.5 1.5 9.639-1.497 28.895-8.705 38-13 24.075-11.356 41.166-28.974 59.5-47.5-10.477 18.084-20.643 39.717-37.5 52.5-16.435 12.463-50.337 24.104-71 24-13.754-.069-26.629-8.098-41-7l-1 2c50.371 18.489 123.945-1.014 152.5-48 1.198-1.971 2.988-4.008 4-6 3.705-.717 2.612 1.457 2 3.5-3.665 12.227-16.687 29.931-25 39 15.842-9.082 32.178-29.701 39-47 2.993-7.59 5.278-26.092 8-31 .895-1.614.499-2.367 3-1-4.654 49.28-31.528 87.631-81 99 41.268-3.927 62.948-27.755 76-65 .788-2.249 3.733-21.598 7.5-19.5 1.012.614.242 2.788.5 3 .448 1.436-.759 1.902-1 3-.726 3.3-5.131 17.551-5 18.5.034.248 3.949 2.755 4 3 .21 1.009-6.949 17.112-8 19-6.763 12.15-15.069 15.003-24 25 20.366-4.388 36.334-28.671 39.5-48.5 3.584 16.624 17.645 42.228 34.5 48-3.281-.588-63.205-.5-66.5 0-3.226.49-15.549 7.617-21 9-47.098 11.946-98.027 12.664-144-4l27-13c-91.852 23.537-177.56-95.491-102-166-16.364 44.499 27.963 79.685 66.5 53.5-13.88-14.021-25.104-30.164-36-46.5h2c.887 1.021 1.792 1.536 3 2l34.5 44c49.408-28.091 127.008-77.021 183-39 5.652 3.838 14.556 16.514 17.5 18 4.761 2.404 15.775-13.624 20.5-17 55.766-39.853 135.62 10.129 185 39 28.606-28.326 50.157-62.582 70.5-97M510.5 800c-2.067 16.146-13.291 28.793-25.5 38.5l53.5 1.5c-13.493-10.592-23.553-23.076-28-40m-73 8c-23.984 23.695-52.193 34.95-85.5 38.5l21.5-1.5c21.04-3.808 50.745-17.922 63.5-33.5.129-.158 2.954-4.104.5-3.5m147 1c.45 4.686 8.543 7.156 10.5 9.5.168.201-3.029 1.717-1.5 3.5 1.135 1.324 27.868 14.775 31 16 13.637 5.332 28.843 8.482 43.5 8.5l-20-5 16.5 2.5-6.5-3.5 7.5-.5c-9.539-4.935-21.476-2.724-32-5l4.5 2.5c-19.933 1.366-37.103-18.125-53.5-28.5m-193 24c-.828.035-7.107 2.764-9 3-7.523.938-15.521.002-23 2l6 2-11.5 2.5c4.221 2.151 40.976-6.116 40-9-.551-.8-1.575-.539-2.5-.5m53 1c-19.582 13.433-45.772 15.585-68.5 21.5 5.964-.463 16.204 2.813 21.5 1.5 4.044-1.003 3.653-3.909 4-4 16.529-4.348 33.831-6.143 48.5-15.5l-7.5 1.5zm127 1c13.288 13.178 34.033 14.28 52 18 4.01.83 3.653 3.913 4 4 5.039 1.266 13.961-1.746 19.5-1.5z"/><path fill="#1371a9" d="M717 627c-5.268 9.952-21.147 25.71-32 15-.317-7.364 7.604-16.078 14.5-17 5.085-.68 8.586 1.979 12 2 .806.005.402-1.969.5-2 .832-.259 2.144 2.619 2-1 .135.168 1.662-.248 3 3"/><path fill="#1baddd" d="M334 627c1.053.463 2.01 2.562 3 3-9.063 13.578-7.228 10.804-21 16-5.191.306-8.236-.108-11-5 5.425-12.808 14.8-20.246 29-14"/><path fill="#13c9ef" d="M306 651c.112.46.905 1.941 1 2-3.545-2.736-8.5-7.374-9-12.5-.199-2.044 2.769-13.824 5-13-6.274 9.442 2.79 15.166 4 19 .517 1.637-1.892.834-1 4.5"/><path fill="#0182ae" d="M339 631c1.034 16.737-13.915 29.205-30 22-.436-.195-1.683.196-2 0-.095-.059-.888-1.54-1-2 3.082-2.907 6.393-1.925 9.5-3 .887-.307.383-1.956.5-2 13.772-5.196 11.937-2.422 21-16 .135-.202-.15-1.168 1-1 .035.106.53-.212 1 2"/><path fill="#074d6f" d="M309 653c16.085 7.205 31.034-5.263 30-22 4.098 19.274-13.954 31.492-30 22"/><path fill="#093954" d="M582 634c-1.638.717-2.431 1.018-5 2 1.451-.545 3.525-1.393 5-2"/><path fill="#3c7586" d="m308 693-34-17c-1.208-.464-2.113-.979-3-2-2.179-2.51-10.249-17.515-13-22 17.506 11.924 33.393 28.381 50 41"/><path fill="#266690" d="M508 707c.306 2.265-.507 2.276-2 1-.295-7.753-6.118-14.072-12-18-.578-3.723-25.519-15.728-31-13.5 5.397 1.814 11.334 3.095 16.5 5.5 2.543 1.184 11.524 6.013 14.5 8 .128.826-1.539 1.429-1 3-8.499-6.764-4.079-.24-13-1-9.31-6.241-22.689-5.883-33.5-6l5-3c-12.304-1.115-22.253.68-34 3-.395.078-3.725-5.25-3.5 3-2.434.355-5.741-.467-8 0-1.52-1.902 1.298-3.442-2.5-3-6.384.743-24.617 10.82-31.5 14-5.669 2.619-10.951 6.143-16.5 9-.16.083-2.84-2.084-3-2-2.797 1.465-8.669 7.437-13.5 10l-2.5-5c-.662-.105-10.418 8.484-11.5 4 19.587-9.969 34.569-23.571 56.5-30 .567-.166.098 2.551 2 2 20.262-5.871 40.431-14.271 62-13 .443-4.138-9.625-1.079-12-2l-28 6 11-5c29.008-7.572 81.785-.419 91.5 33m-77.5-29c-2.136.173-10.137 2.422-12.5 3.5.016 2.307 18.383.117 17.5-3.5-1.655.091-3.353-.134-5 0m22 0v2l6.5.5z"/><path fill="#4189af" d="M624 683c-5.56 6.238 10.376 6.936 12.5 8 25.418 12.733 52.529 30.131 77 45 .23.14 3.432-1.402 4.5.5.456 4.07-17.344 6.804-20.5 3.5l-1.5 2.5c5.118 6.52 14.048 7.381 20 12-2.074 3.182-13.118-5.703-15.5-6.5-2.522-.844-3.541 2.569-5 2-.547-.213-.591-2.449-2-3-.706-.276-1.496 1.128-4 0-8.148-3.671-48.997-34.576-53-34-2.382.343-1.178 2.585 0 4 2.585 3.104 19.57 11.856 20.5 13.5 1.063 1.88-2.62.22-1 3.5-5.495-3.193-11.388-5.864-17-9-4.782-5.451-11.216-10.467-17.5-14-5.653-3.178-24.739-9.147-27-11-3.031-2.484 4.258-.679 6-1-.276-3.276-7.763-2.059-10.5-3.5 3.547-4.423 27.39 5.91 28 4 .055-.172-3.359-1.411-3-2 3.467-5.692 21.563 16.125 21 8-.128-1.846-23.861-13.372-27.5-14.5-17.602-5.458-44.26-7.168-62-2-2.142.624-5.792.989-5.5 4-3.113.649-6.817 2.823-10-1 3.197-3.345 6.429-6.725 10.5-9 4.612-2.577 15.57-3.286 17-8l-28 12c-2.486 2.719-5.866 4.477-8.5 7 17.631-24.459 65.13-26.689 91.5-18 .951.313 4.722 1.344 3 3-13.786-3.44-28.801-7.684-43-5l23 2c9.335 1.711 18.336 4.763 27.5 7m-43.5-1c.062 2.186 12.32 4.013 13 4 1.947-.038 3.207.431 4.5-1.5zm50 15c-.149 1.945 6.589 4.742 7.5 2.5zm39.5 29c1.658 1.395 3.247 3.712 6 3.5-.324-2.906-4.975-2.971-6-3.5-4.024-3.386-23.332-21.948-28-15.5l16.5 12.5-3-6c4.38 3.783 9.395 6.367 14.5 9m-14-15c.34.2.185.625 3 2 6.332 5.012 11.735 12.336 20 14.5-5.461-6.743-12.445-10.809-20-14.5-1.086-.86-1.831-1.32-3-2-.251-.146-2.076-2.459-3-1.5-.333 2.485 2.307 1.091 3 1.5"/><path fill="#70a5b4" d="M536 672c-9.637 9.063-17.931 12.78-26 24-2.512-11.966-15.181-15.928-22.5-24z"/><path fill="#1b365b" d="M531 692c-25.058 26.214 11.852 32.714 24 54 4.26 9.166 24.121 30.393 32 38l-7.5 11c-6.027-2.087-24.163-28.831-27-29-6.018-.358.447 7.634 1.5 9 15.033 35.757 40.725 63.002 79.5 72 21.658 5.026 28.867 2.008 48-1 6.207-.976 15.81-2.642 21.5-.5-42.456 18.568-111.147.698-142-33-4.615-5.04-8.198-11.839-12-17.5l7 3.5-19.5-39.5 8.5 33c2.577 9.68 7.754 18.675 14 26.5h-4l15 16c-19.835-11.073-34.73-34.396-42-56-1.263-3.752-8.387-36.264-6-12 4.411 44.83 37.015 77.976 80 88-19.607.294-47.69-14.448-60-29.5-13.232-16.18-16.372-38.317-23-57.5-1.592-1.45-1.567-.474-2 1-1.224 4.164 3.484 18.143 4 24 .045.516-2.803-.968-3 1-.506 5.037 16.43 36.426 21 40 1.848 1.445 1.469 2.246 4 .5.676.938 8.248 6.922 8 7.5-1.159.684-4.904-.125-6-.5-16.855-5.772-30.916-31.376-34.5-48-3.166 19.829-19.134 44.112-39.5 48.5 8.931-9.997 17.237-12.85 24-25 1.051-1.888 8.21-17.991 8-19-.051-.245-3.966-2.752-4-3-.131-.949 4.274-15.2 5-18.5 4.344-.383 2.856 10.531 4.5 10 1.457-5.643.828-9.447-3.5-13-.258-.212.512-2.386-.5-3-3.767-2.098-6.712 17.251-7.5 19.5-13.052 37.245-34.732 61.073-76 65 49.472-11.369 76.346-49.72 81-99-2.501-1.367-2.105-.614-3 1-2.722 4.908-5.007 23.41-8 31-6.822 17.299-23.158 37.918-39 47 8.313-9.069 21.335-26.773 25-39 .612-2.043 1.705-4.217-2-3.5 5.138-10.108 7.257-22.128 12-32.5h-2l-20 41 6-2.5c-28.555 46.986-102.129 66.489-152.5 48l1-2c14.371-1.098 27.246 6.931 41 7 20.663.104 54.565-11.537 71-24 16.857-12.783 27.023-34.416 37.5-52.5-18.334 18.526-35.425 36.144-59.5 47.5-9.105 4.295-28.361 11.503-38 13-3.402.528-24.044 2.298-23.5-1.5l10.5-5.5c1.484 2.324-5.725 3.656-5.5 4.5.91 3.417 26.931-12.683 29-14.5-.629.936-1.736 3.805-2.5 5 3.684-.477 6.405-4.444 9-6 43.178-25.885 52.322-42.125 86.5-80 4.863-5.389 25.206-21.216 26-26.5.317-2.11-4.022-15.93-5-17-.934-1.022-2.669-.237-3-.5-.539-1.571 1.128-2.174 1-3 5.882 3.928 11.705 10.247 12 18-2.551-2.18-2.291-5.706-4.5-8l2.5 12.5c2.921 1.724 2.045-3.309 2-4.5 1.493 1.276 2.306 1.265 2-1 .035.12 1.787.623 2 1.5 1 4.115-1.842 10.765 1.5 14.5.862-4.69 1.354-9.363 2.5-14 3.322-3.195 3.676-8.059 5-10.5.529-.975 2.801-4.224 3-4.5 2.634-2.523 6.014-4.281 8.5-7l28-12c-1.43 4.714-12.388 5.423-17 8-4.071 2.275-7.303 5.655-10.5 9m-34.5 55c-2.197 5.916-4.376 12.6-4 19 1.963-5.813 4.78-12.723 4-19"/><path fill="#1c375c" d="M494 690c-2.976-1.987-11.957-6.816-14.5-8-5.166-2.405-11.103-3.686-16.5-5.5 5.481-2.228 30.422 9.777 31 13.5"/><path fill="#315e86" d="M225 697c-1.417 9.403-3.412 16.377 2 25.5.415.699 10.687 11.504 11.5 11.5 1.145-.005 2.75-4 3-4 .361 0 2.61 5.168 4 6 1.862 1.114 7.713 1.363 9.5 2 4.315 1.538 8.135 4.45 13 4-.16.112.415 2.559-3 2.5 7.106 2.061 13.504 2.741 20.5.5 2.615-4.084-3.722-2.734-3.5-3.5.383-1.322 3.976.834 4-2 .009-1.067-5.04-2.672-5-3 .096-.789 4.781.347 2.5-3.5h-9l1.5 3.5c-.267.5-8.348-.332-7 4.5-18.854-8.119-35.249-20.368-34.5-43 8.639 30.821 33.215 36.905 61.5 30l-7 11.5c.511.682 13.274-1.919 15-2.5.653.748 5.095 6.04 5.5 6 3.072-.307 9.274-7.42 13-8l-9.5 9.5c5.333.523 7.398-6.524 12-1-6.25 6.134-15.14 8.561-22 12 2.259 3.475 16.485-7.132 18.5-7.5 3.296-.601-1.424 3.163 3 3 11.945-.439 45.683-33.142 55-36 6.965-2.136 3.77 1.565 4.5 2v1c-3.501 1.434-21.539 13.634-20 16.5 2.848 1.012 7.11-2.004 10-3.5 2.619 5.814-24.523 20.115-10 19-3.257 2.704-6.893 6.499-10 9l-24.5 12c-3.892-1.756 8.044-5.222 9-6 1.275-1.038 5.751-8.224 8-10l-7 4c-.099-6.014-1.327-1.177-5-1-.685.033 1.676-3.068-2-2-5.36 1.557-14.271 8.152-22 10-28.465 6.805-62.757-4.773-81.5-27.5-3.101-3.76-4.697-9.954-9-12.5-4.154-18.991-3.698-32.557 9.5-48-1.117 6.426-3.521 12.502-4.5 19"/><path fill="#40a0c6" d="M430.5 678c1.647-.134 3.345.091 5 0 .883 3.617-17.484 5.807-17.5 3.5 2.363-1.078 10.364-3.327 12.5-3.5"/><path fill="#519abf" d="m452.5 678 6.5 2.5-6.5-.5z"/><path fill="#315f87" d="M801 725c-11.276 29.941-54.859 47.208-84.5 42-8.106-1.424-22.46-9.447-27.5-10-1.957-2.968-1.394-6.613-5.5-7l-1 2c-.927-5.107-5.45-5.004-8.5-7-6.266-4.101-12.996-8.092-18-11-1.62-3.28 2.063-1.62 1-3.5-.93-1.644-17.915-10.396-20.5-13.5-1.178-1.415-2.382-3.657 0-4 4.003-.576 44.852 30.329 53 34 2.504 1.128 3.294-.276 4 0 1.409.551 1.453 2.787 2 3 1.459.569 2.478-2.844 5-2 2.382.797 13.426 9.682 15.5 6.5-5.952-4.619-14.882-5.48-20-12l1.5-2.5c3.156 3.304 20.956.57 20.5-3.5-1.068-1.902-4.27-.36-4.5-.5-24.471-14.869-51.582-32.267-77-45-2.124-1.064-18.06-1.762-12.5-8 3.806.929 18.138 6.938 19.5 7 3.745.17.925-2.945 3-3 5-.132 54.726 32.579 66 37 31.397 12.311 63.519 10.44 75-26 1.528 19.606-17.19 38.18-35.5 42-3.2-4.859-.956-3.069 2.5-6l-14-1c.965 5.224-2.22 3.628-2.5 4.5-.25.779 1.936 4.445 1 6-.756 1.257-5.756-.97-3.5 3.5 10.055.405 20.007-2.027 30-2 1.065.003.937 2.776 3 3 2.472.268 14.324-10.503 13.5-15 16.388-9.211 16.47-19.965 15-37-.518-6.003-1.917-10.327-3.5-16 11.033 13.172 13.53 28.988 7.5 45"/><path fill="#2b496f" d="M255 738c-1.787-.637-7.638-.886-9.5-2-1.39-.832-3.639-6-4-6-.25 0-1.855 3.995-3 4-.813.004-11.085-10.801-11.5-11.5-5.412-9.123-3.417-16.097-2-25.5l7-15.5c-5.344 24.563 3.358 42.474 23 56.5"/><path fill="#34648b" d="M794 697c-.039 4.576-1.259 9.022-2 13.5L775 736c-3.15 1.368-4.763-.08-5 0 18.172-14.115 24.799-31.436 20-54.5 3.905 4.116 4.045 10.284 4 15.5"/><path fill="#4ca2c5" d="m580.5 682 17.5 2.5c-1.293 1.931-2.553 1.462-4.5 1.5-.68.013-12.938-1.814-13-4"/><path fill="#60a5c2" d="M480 692c-8.594-.732-21.592-2.769-30.5-4-5.127-.709-7.254-6.005-15-3l8 4c-10.556.537-26.784.42-34 8l40-5c-2.903 5.209-14.876-.982-19 4l41.5 2.5c-4.546.937-8.879-1.196-13.5-.5-11.884 1.79-31.376 10.291-42.5 18 2.593-1.775 6.606-6.22 9.5-8 9.437-5.805 37.788-10.722 10-11l1.5 2.5c-9.179 3.353-18.943 5.332-28 9.5-12.483 5.745-22.054 15.817-34 22-2.89 1.496-7.152 4.512-10 3.5-1.539-2.866 16.499-15.066 20-16.5-.704.649-9.127 7.847-6.5 9 14.555-9.558 28.284-21.547 46-25-4.546-5.575 1.337-1.647 0-7l-24 8v-4L359 722c7.356-5.881 15.88-10.306 24-15 6.932-4.008 15.278-10.116 22.5-13 8.747-3.493 19.697-4.693 27-8-6.209-.173-12.397 2.11-18.5 3-.225-8.25 3.105-2.922 3.5-3 11.747-2.32 21.696-4.115 34-3l-5 3c10.811.117 24.19-.241 33.5 6"/><path fill="#2e7fa8" d="M480 692c8.921.76 4.501-5.764 13 1 .331.263 2.066-.522 3 .5.978 1.07 5.317 14.89 5 17-.794 5.284-21.137 21.111-26 26.5-3.393-3.312-6.085 3.966-6.5 4-1.344.11-.92-6.442-8 4-.894-2.34 8.219-11.867 3-13-2.46-.534-18.91 30.654-24 33 7.496-12.757 15.085-25.808 24.5-37.5 1.522-1.891-.097-2.886 0-3 2.469-2.903 11.785-7.824 15-11-12.166-3.881-30.081 30.795-32.5 31.5-1.196.349-1.771-.847-2.5-1.5 2.525-.922 6.592-5.37 3-7.5 3.543-4.769 4.183-6.715 8-11 2.314-2.597 9.537-10.019 12-12 6.292-3.883 13.074-6.085 20-8.5-6.381-1.076-15.074 3.586-20 7.5l-3-2c1.684-1.701 3.009-4.019 5-5.5-1.341-.733-2.412-1.398-4-1.5-.509-.033-8.615 1.704-10 2-.178.038-1.531-2.212-3.5-1-.905.557 1.603 2.467 0 3-15.322 5.097-23.811 8.505-36.5 19-4.446-.672-7.972.536-12 2 1.578-1.207 2.343-4.061 3-5 2.709-2.03 6.855-5.531 9-7 11.124-7.709 30.616-16.21 42.5-18 4.621-.696 8.954 1.437 13.5.5l-41.5-2.5c4.124-4.982 16.097 1.209 19-4l-40 5c7.216-7.58 23.444-7.463 34-8l-8-4c7.746-3.005 9.873 2.291 15 3 8.908 1.231 21.906 3.268 30.5 4"/><path fill="#5ba5c0" d="M406 689c-10.088 2.087-16.969 5.657-26 10-2.844 1.368-8.174 6.781-8 1 6.883-3.18 25.116-13.257 31.5-14 3.798-.442.98 1.098 2.5 3"/><path fill="#328ab4" d="m383 707-1-5c2.808-1.52 7.167-2.468 10-4.5-3.8-.887-7.793 1.94-11 3.5l-1-2c9.031-4.343 15.912-7.913 26-10 2.259-.467 5.566.355 8 0 6.103-.89 12.291-3.173 18.5-3-7.303 3.307-18.253 4.507-27 8-7.222 2.884-15.568 8.992-22.5 13"/><path fill="#5ca3c2" d="M639 725c-8.708-4.867-15.765-11.65-25-16-3.361-1.583-38.663-14.197-39.5-11 11.324 4.175 22.517 9.111 32.5 16 8.583 5.923 16.749 14.657 24 22-5.033-4.244-12.633-10.108-18-14-19.994-14.499-36.129-26.593-63-23.5l38.5-3.5-16-4c13.087-.278 25.828 2.247 38.5 5 1.837 1.047 1.281 1.503 3-.5l-3 .5c-22.627-12.896-45.46-8.116-70-3-.292-3.011 3.358-3.376 5.5-4 17.74-5.168 44.398-3.458 62 2 3.639 1.128 27.372 12.654 27.5 14.5.563 8.125-17.533-13.692-21-8-.359.589 3.055 1.828 3 2-.61 1.91-24.453-8.423-28-4 2.737 1.441 10.224.224 10.5 3.5-1.742.321-9.031-1.484-6 1 2.261 1.853 21.347 7.822 27 11 6.284 3.533 12.718 8.549 17.5 14"/><path fill="#2e7da5" d="M611 696c-12.672-2.753-25.413-5.278-38.5-5l16 4-38.5 3.5c26.871-3.093 43.006 9.001 63 23.5-3.881-.504-4.379 1.717-4 5-6.209-5.227-15.112-9.595-22-13 .564-1.918 3.227-1.882.5-4-2.383-1.851-26.031-9.597-29-9-2.555.513-1.123 1.451-1.5 2-2.487 3.625 4.62 5.288 6 7.5l-5 3.5c-2.375-1.758-4.619-2.679-7-4-.719-1.612-3.178-3.471-5-2.5 1.017 1.928 3.81 1.84 5 2.5.757 1.698 1.468 1.417-.5 3-1.068.501-1.787-1.51-3.5-1-4.206 1.253-.416 5.864 1 8-1.605-.345-2.03-2.242-4 .5 8.34 6.561 11.88 14.818 18 23l-9.5-5.5c-.634.387 2.197 7.347 2.5 8-12.148-21.286-49.058-27.786-24-54 3.183 3.823 6.887 1.649 10 1 24.54-5.116 47.373-9.896 70 3"/><path fill="#4589ae" d="M514 709c2.061-8.34 1.391-8.671 8-15-.199.276-2.471 3.525-3 4.5-1.324 2.441-1.678 7.305-5 10.5"/><path fill="#4185ab" d="M384 718c.123-.114 2.434.052 3-1.5-1.11-1.642-2.413.85-3 .5-.73-.435 2.465-4.136-4.5-2-9.317 2.858-43.055 35.561-55 36-4.424.163.296-3.601-3-3-2.015.368-16.241 10.975-18.5 7.5 6.86-3.439 15.75-5.866 22-12-4.602-5.524-6.667 1.523-12 1l9.5-9.5c-3.726.58-9.928 7.693-13 8-.405.04-4.847-5.252-5.5-6 9.606-3.233 25.36-14.886 35-20 4.831-2.563 10.703-8.535 13.5-10 .16-.084 2.84 2.083 3 2 5.549-2.857 10.831-6.381 16.5-9-.174 5.781 5.156.368 8-1l1 2c-6.425 3.125-15.234 8.769-20 13.5 7.464-3.357 13.803-8.604 21-12.5l1 5c-8.12 4.694-16.644 9.119-24 15l-1.5 3 1.5-3 40.5-23v4l24-8c1.337 5.353-4.546 1.425 0 7-17.716 3.453-31.445 15.442-46 25-2.627-1.153 5.796-8.351 6.5-9"/><path fill="#2d7ea6" d="m611 696 3-.5c-1.719 2.003-1.163 1.547-3 .5"/><path fill="#2b466c" d="M782 733c-1.57.883-5.109 2.179-7 3l17-25.5c.741-4.478 1.961-8.924 2-13.5l3-1c1.47 17.035 1.388 27.789-15 37"/><path fill="#6eafc9" d="M382 702c-7.197 3.896-13.536 9.143-21 12.5 4.766-4.731 13.575-10.375 20-13.5 3.207-1.56 7.2-4.387 11-3.5-2.833 2.032-7.192 2.98-10 4.5"/><path fill="#3586ae" d="M415 716c-.493.342-2.664.976-4 2l-1.5-3c-8.755 5.097-15.65 12.978-24.5 18 8.822-7.46 16.687-15.776 27-21.5l-4-2.5c9.057-4.168 18.821-6.147 28-9.5l-1.5-2.5c27.788.278-.563 5.195-10 11-2.894 1.78-6.907 6.225-9.5 8"/><path fill="#3884ab" d="m614 709-.5 5 41.5 33c-13.701-7.616-24.771-19.979-37.5-29-2.052-1.454-8.357-6.237-10.5-4-9.983-6.889-21.176-11.825-32.5-16 .837-3.197 36.139 9.417 39.5 11"/><path fill="#599cbc" d="m630.5 697 7.5 2.5c-.911 2.242-7.649-.555-7.5-2.5"/><path fill="#2e80a9" d="M506 708c.045 1.191.921 6.224-2 4.5l-2.5-12.5c2.209 2.294 1.949 5.82 4.5 8"/><path fill="#3f95b9" d="M587 714c-2.788-1.378-6.116-2.784-9-4-2.257-.951-6.712-4.137-9.5-5-.577-.179-.056 2.498-2 2-2.526-.647-6.063-4.657-9.5-4 .377-.549-1.055-1.487 1.5-2 2.969-.597 26.617 7.149 29 9 2.727 2.118.064 2.082-.5 4"/><path fill="#2f6d97" d="m465 703-16 19c-6.949 4.84-5.634 1.939-8.5 3-1.29.477-2.743 6.36-6.5 2.5.717-1.983 19.06-14.87 21-18 1.191-1.922-.416-2.311 0-4.5 1.385-.296 9.491-2.033 10-2"/><path fill="#4ba0c3" d="M464 710c-2.761 2.789-11.504 9.565-15 12l16-19c1.588.102 2.659.767 4 1.5-1.991 1.481-3.316 3.799-5 5.5"/><path fill="#336991" d="M578 710c-1.924.087-4.283 2.571-4 4.5.231 1.574 20.01 18.516 23 22 2.469 2.878 4.658 7.256 7 10.5 4.171 5.778 10.554 10.123 9 18-4.027-4.947-6.445-9.938-11-15-.274-.304-2.815.577-4-.5-1.03-.937-9.059-19.435-13-14-.325.449 5.818 7.534 6 8 .941 2.409-.317 3.147 0 5.5.149 1.109 1.663 2.76 2 4.5.151.779-3.033 1.792-3 2 1.289 8.161 13.595 22.858 14.5 32.5-10.887-18.851-17.77-41.952-34-56 .487 8.836-8.86-7.238-11.5-10 .063-6.781 3.153.003 5-2.5-1.824-1.631-4.12-4.108-6-5.5l5-3.5c-1.38-2.212-8.487-3.875-6-7.5 3.437-.657 6.974 3.353 9.5 4 1.944.498 1.423-2.179 2-2 2.788.863 7.243 4.049 9.5 5m-10.5 4c-1.906-.167-1.136 3.946 1 3 1.388-.615-.379-2.946-1-3"/><path fill="#2b5a82" d="M455 705c-.416 2.189 1.191 2.578 0 4.5-1.94 3.13-20.283 16.017-21 18 3.757 3.86 5.21-2.023 6.5-2.5 2.866-1.061 1.551 1.84 8.5-3 3.496-2.435 12.239-9.211 15-12l3 2c-.163.129.162.87 0 1-4.848 2.992-9.584 6.645-12 12-3.817 4.285-4.457 6.231-8 11-12.201 16.424-19.48 31.67-28.5 50-1.209-4.315 11.549-25.043 11.5-26.5-.007-.212-1.485-4.944-3-3L415.5 777c-2.108-1.036 10.261-22.008 11.5-23.5-.867-1.318-6.534-.68-8-.5-.124.015-.554-2.39-2-1.5-.822.506-8.2 14.037-10 16.5v-6.5l5-9-5.5-2.5-27.5 44c-.481-.4-2.102 2.393-2-.5 7.163-11.182 15.842-22.247 22-34 .828-1.58-2.195-1.621-2-2 4.584-8.919 8.739-16.045 15-24-2.584-4.746-14.165 17.181-15 18.5l-3-1c7.495-8.258 10.543-16.35 21-25 12.689-10.495 21.178-13.903 36.5-19 1.603-.533-.905-2.443 0-3 1.969-1.212 3.322 1.038 3.5 1"/><path fill="#4e99bb" d="M467 713c.162-.13-.163-.871 0-1 4.926-3.914 13.619-8.576 20-7.5-6.926 2.415-13.708 4.617-20 8.5"/><path fill="#448eb4" d="M551 710c-1.19-.66-3.983-.572-5-2.5 1.822-.971 4.281.888 5 2.5"/><path fill="#327ba4" d="M385 733c-6.951 5.878-14.063 11.241-21 17-14.523 1.115 12.619-13.186 10-19 11.946-6.183 21.517-16.255 34-22l4 2.5c-10.313 5.724-18.178 14.04-27 21.5"/><path fill="#35779f" d="M639 725c5.612 3.136 11.505 5.807 17 9 1.377 2.789 13.661 8.479 16 12-4.856 3.129-1.863-2.547-6 .5-.141 2.878 7.003 4.952 3.5 7.5-3.705-5.071-9.689-2.932-12-4-1.021-.472-2.329-2.905-2.5-3l-41.5-33 .5-5c9.235 4.35 16.292 11.133 25 16"/><path fill="#559cbd" d="M670 726c-5.105-2.633-10.12-5.217-14.5-9l3 6-16.5-12.5c4.668-6.448 23.976 12.114 28 15.5"/><path fill="#5da6c6" d="M656 711c-.693-.409-3.333.985-3-1.5.924-.959 2.749 1.354 3 1.5"/><path fill="#448eb4" d="M558 714c1.88 1.392 4.176 3.869 6 5.5-1.847 2.503-4.937-4.281-5 2.5-3.627-3.795-8.486-6.128-12-10 1.713-.51 2.432 1.501 3.5 1 1.968-1.583 1.257-1.302.5-3 2.381 1.321 4.625 2.242 7 4"/><path fill="#2d4e74" d="M578 710c2.884 1.216 6.212 2.622 9 4 6.888 3.405 15.791 7.773 22 13 3.664 3.084 14.944 18.265 16.5 19 .143.068.733-1.339 3-1 .47.07 1.544 1.943 2 2 .886.111.065-2.787 1-3 1.692-.386 18.961 21.522 26 23 .57.12 2.571-4.253 2.5-4.5-.938-3.282-24.694-22.869-29-26.5-7.251-7.343-15.417-16.077-24-22 2.143-2.237 8.448 2.546 10.5 4 12.729 9.021 23.799 21.384 37.5 29 .171.095 1.479 2.528 2.5 3 2.311 1.068 8.295-1.071 12 4 3.503-2.548-3.641-4.622-3.5-7.5 4.137-3.047 1.144 2.629 6-.5.372-.24 2.09.579 2-1 3.05 1.996 7.573 1.893 8.5 7l1-2c4.106.387 3.543 4.032 5.5 7-6.763-.742-1.031 3.085-4.5 3-1.527-.037-5.962-5.588-8.5-4.5 5.281 6.065 9.217 9.348 16.5 14.5L668 759.5c1.91 4.517 6.406 6.77 10 9.5 31.415 38.23 108.056 19.699 124-24.5 2.947-8.169 2.515-19.801 6-26v9.5c1.479 61.565-85.632 97.464-134.5 69-6.704-3.905-12.897-12.691-18.5-17-1.2-5.624-8.927-11.986-13-15.5l3.5 6.5c-7.146-6.217-11.759-16.133-18.5-22.5-1.52-1.436-2.879-3.064-3 .5-2.008-3.032-8.699-12.185-11-14.5-.457-.46-2.984-3.953-3-1l33 59.5c-5.681-5.375-10.863-11.893-15-18.5-6.621-10.575-9.322-27.499-21.5-31.5l-2.5 4c-2.342-3.244-4.531-7.622-7-10.5-2.99-3.484-22.769-20.426-23-22-.283-1.929 2.076-4.413 4-4.5m88.5 61c-1.66 2.314 2.552 4.729 4 6 5.018 4.406 14.049 10.332 20.5 12.5z"/><path fill="#2f4e74" d="M547 712c3.514 3.872 8.373 6.205 12 10 2.64 2.762 11.987 18.836 11.5 10 16.23 14.048 23.113 37.149 34 56-.905-9.642-13.211-24.339-14.5-32.5-.033-.208 3.151-1.221 3-2-.337-1.74-1.851-3.391-2-4.5 4.309.996 12.186 29.627 16.5 28 .351-.132-1.823-5.22 4.5-3 9.026 19.854 19.403 28.587 28 44 .112.201 2.69 4.646.5 4-8.024-3.214-12.521-9.249-20-14-12.407-7.882-21.275-12.198-33.5-24-7.879-7.607-27.74-28.834-32-38-.303-.653-3.134-7.613-2.5-8l9.5 5.5c-6.12-8.182-9.66-16.439-18-23 1.97-2.742 2.395-.845 4-.5 1.932 2.914 7.176 9.006 11 9.5-2.076-3.9-6.896-8.617-11-9.5-1.416-2.136-5.206-6.747-1-8m17 25c5.329 9.673 10.398 19.444 17.5 28-4.121-10.286-10.78-19.41-17.5-28-.661-1.2-1.314-4.86-3.5-5-1.541 2.417 2.699 3.976 3.5 5"/><path fill="#5da6c6" d="M659 713c-2.815-1.375-2.66-1.8-3-2 1.169.68 1.914 1.14 3 2"/><path fill="#37658e" d="M339 717c-9.64 5.114-25.394 16.767-35 20-1.726.581-14.489 3.182-15 2.5l7-11.5c10.376-2.533 19.587-7.209 29-12 1.082 4.484 10.838-4.105 11.5-4z"/><path fill="#4e99bb" d="M467 713c-2.463 1.981-9.686 9.403-12 12 2.416-5.355 7.152-9.008 12-12"/><path fill="#2e4e73" d="M475 737c-34.178 37.875-43.322 54.115-86.5 80-2.595 1.556-5.316 5.523-9 6 .764-1.195 1.871-4.064 2.5-5 4.063-6.048 10.955-11.119 15-17.5 9.112-14.374 14.547-32.234 22-47.5 1.466-.18 7.133-.818 8 .5-1.239 1.492-13.608 22.464-11.5 23.5l11.5-20.5c1.515-1.944 2.993 2.788 3 3 .049 1.457-12.709 22.185-11.5 26.5 9.02-18.33 16.299-33.576 28.5-50 3.592 2.13-.475 6.578-3 7.5.729.653 1.304 1.849 2.5 1.5 2.419-.705 20.334-35.381 32.5-31.5-3.215 3.176-12.531 8.097-15 11-.097.114 1.522 1.109 0 3-9.415 11.692-17.004 24.743-24.5 37.5 5.09-2.346 21.54-33.534 24-33 5.219 1.133-3.894 10.66-3 13 7.08-10.442 6.656-3.89 8-4 .415-.034 3.107-7.312 6.5-4"/><path fill="#5da6c6" d="M659 713c7.555 3.691 14.539 7.757 20 14.5-8.265-2.164-13.668-9.488-20-14.5"/><path fill="#2d4c72" d="M411 718c-2.08 1.594-3.48 2.827-5 5-2.523 1.89-10.124 4.556-10.5 5-.584.69 2.453 1.748.5 4-4.897 3.015-6.164 5.478-10 9-7.572 6.473-11.654 7.403-18 17-1.775 2.684-3.988 4.04-5 7.5 7.146 2.878 24.809-20.224 26.5-20.5 5.512-.9 1.39 5.585 1.5 8-24.011 26.21-36.936 51.573-77 54-6.245.378-14.805-.07-21-1-41.831-6.279-74.027-31.815-79-75-.4-3.474-2.155-11.109 1-13.5-.809 63.256 86.482 97.063 129 51.5 4.957-3.756 7.347-7.865 10-10 3.107-2.501 6.743-6.296 10-9 6.937-5.759 14.049-11.122 21-17 8.85-5.022 15.745-12.903 24.5-18z"/><path fill="#3c9dbe" d="M567.5 714c.621.054 2.388 2.385 1 3-2.136.946-2.906-3.167-1-3"/><path fill="#60a5c2" d="M384 718v-1c.587.35 1.89-2.142 3-.5-.566 1.552-2.877 1.386-3 1.5"/><path fill="#418eb5" d="M415 716c-2.145 1.469-6.291 4.97-9 7 1.52-2.173 2.92-3.406 5-5 1.336-1.024 3.507-1.658 4-2"/><path fill="#2d7ea6" d="M548 720c4.104.883 8.924 5.6 11 9.5-3.824-.494-9.068-6.586-11-9.5"/><path fill="#60a5c2" d="m359 722-1.5 3z"/><path fill="#366890" d="M613 722c5.367 3.892 12.967 9.756 18 14 4.306 3.631 28.062 23.218 29 26.5.071.247-1.93 4.62-2.5 4.5-7.039-1.478-24.308-23.386-26-23-.935.213-.114 3.111-1 3-.456-.057-1.53-1.93-2-2-2.267-.339-2.857 1.068-3 1-1.556-.735-12.836-15.916-16.5-19-.379-3.283.119-5.504 4-5"/><path fill="#418eb5" d="M406 723c-.657.939-1.422 3.793-3 5-2.558.93-4.711 2.591-7 4 1.953-2.252-1.084-3.31-.5-4 .376-.444 7.977-3.11 10.5-5"/><path fill="#1a3256" d="M793 748c-26.098 16.227-28.965 31.877-67.5 34H701c-8.021-3.287-16.172-7.814-23-13-3.594-2.73-8.09-4.983-10-9.5l24.5 10.5c-7.283-5.152-11.219-8.435-16.5-14.5 2.538-1.088 6.973 4.463 8.5 4.5 3.469.085-2.263-3.742 4.5-3 5.04.553 19.394 8.576 27.5 10 29.641 5.208 73.224-12.059 84.5-42 2.226 8.069-4.985 16.03-8 23"/><path fill="#183155" d="M354 759c-2.653 2.135-5.043 6.244-10 10-33.72 25.551-72.346 26.177-101-2.5-3.127-3.13-11.092-9.93-13-13-.845-1.359 1.47-3.198 1-4-5.964-10.178-8.209-10.74-11-23.5 4.303 2.546 5.899 8.74 9 12.5 18.743 22.727 53.035 34.305 81.5 27.5 7.729-1.848 16.64-8.443 22-10 3.676-1.068 1.315 2.033 2 2 3.673-.177 4.901-5.014 5 1l7-4c-2.249 1.776-6.725 8.962-8 10-.956.778-12.892 4.244-9 6z"/><path fill="#35668e" d="M415 726c-10.457 8.65-13.505 16.742-21 25-.391.431-2.602 1.566-3 2-.11-2.415 4.012-8.9-1.5-8-1.691.276-19.354 23.378-26.5 20.5 1.012-3.46 3.225-4.816 5-7.5 7.429-4.083 11.974-11.468 18-17 3.762-3.216 6.634-5.12 10-9 2.289-1.409 4.442-3.07 7-4 4.028-1.464 7.554-2.672 12-2"/><path fill="#559cbd" d="M670 726c1.025.529 5.676.594 6 3.5-2.753.212-4.342-2.105-6-3.5"/><path fill="#122b4f" d="M645 781c1.786-.583 3.919-4.943 4.5-5 .338-.033 4.783 3.449 5.5 4 5.603 4.309 11.796 13.095 18.5 17 48.868 28.464 135.979-7.435 134.5-69 2.971-.504 2.136 3.905 2 5.5-2.635 30.822-13.712 48.894-39.5 66.5-3.19 2.178-20.124 9.406-20.5 10.5-.059.17 2.059 2.83 2 3-.689 1.995-12.863 6.841-15.5 7.5-44.604 11.148-68.022-8.215-91.5-40m33.5 26c5.556 7.929 17.113 15.223 27 15l-4-3 19.5 1.5z"/><path fill="#112a4d" d="M214 731c4.973 43.185 37.169 68.721 79 75-1.895 8.275-17.504 5.01-24.5 3-26.803-7.699-53.521-39.933-56.5-67.5-.195-1.803-1.25-10.301 2-10.5"/><path fill="#418eb5" d="M396 732c-3.366 3.88-6.238 5.784-10 9 3.836-3.522 5.103-5.985 10-9"/><path fill="#386b95" d="M564 737c-.801-1.024-5.041-2.583-3.5-5 2.186.14 2.839 3.8 3.5 5"/><path fill="#32567d" d="M268 742c.566-.395 3.153.624 4-.5-.678-1.044-2.289-.194-3-.5-1.348-4.832 6.733-4 7-4.5l-1.5-3.5h9c2.281 3.847-2.404 2.711-2.5 3.5-.04.328 5.009 1.933 5 3-.024 2.834-3.617.678-4 2-.222.766 6.115-.584 3.5 3.5-6.996 2.241-13.394 1.561-20.5-.5 3.415.059 2.84-2.388 3-2.5"/><path fill="#3c86ae" d="M674 745c.09 1.579-1.628.76-2 1-2.339-3.521-14.623-9.211-16-12 5.004 2.908 11.734 6.899 18 11"/><path fill="#31557c" d="M752 740c.057.086-2.605 1.191-.5 2 5.66 2.174 13.539-4.316 18.5-6 .237-.08 1.85 1.368 5 0 1.891-.821 5.43-2.117 7-3 .824 4.497-11.028 15.268-13.5 15-2.063-.224-1.935-2.997-3-3-9.993-.027-19.945 2.405-30 2-2.256-4.47 2.744-2.243 3.5-3.5.936-1.555-1.25-5.221-1-6 .28-.872 3.465.724 2.5-4.5l14 1c-3.456 2.931-5.7 1.141-2.5 6"/><path fill="#2e537a" d="M602 750c3.058 8.11 6.414 16.112 10 24-6.323-2.22-4.149 2.868-4.5 3-4.314 1.627-12.191-27.004-16.5-28-.317-2.353.941-3.091 0-5.5-.182-.466-6.325-7.551-6-8 3.941-5.435 11.97 13.063 13 14 1.185 1.077 3.726.196 4 .5"/><path fill="#386b95" d="M564 737c6.72 8.59 13.379 17.714 17.5 28-7.102-8.556-12.171-18.327-17.5-28"/><path fill="#418eb5" d="M386 741c-6.026 5.532-10.571 12.917-18 17 6.346-9.597 10.428-10.527 18-17"/><path fill="#274267" d="M643 793c-.362 5.713-8.552-2.394-11.5-5-8.026-7.097-12.099-15.136-18.5-23 1.554-7.877-4.829-12.222-9-18l2.5-4c12.178 4.001 14.879 20.925 21.5 31.5 4.137 6.607 9.319 13.125 15 18.5"/><path fill="#0d2447" d="M701 782h24.5c38.535-2.123 41.402-17.773 67.5-34 .886-.551 3.128-3.148 3-.5l-16 17 3 1c-23.85 20.345-52.078 28.761-82 16.5"/><path fill="#2d4f74" d="M496.5 747c.78 6.277-2.037 13.187-4 19-.376-6.4 1.803-13.084 4-19"/><path fill="#203b60" d="M655 780c-.717-.551-5.162-4.033-5.5-4-.581.057-2.714 4.417-4.5 5-8.597-11.638-13.43-20.571-21-32 .121-3.564 1.48-1.936 3-.5 6.741 6.367 11.354 16.283 18.5 22.5l-3.5-6.5c4.073 3.514 11.8 9.876 13 15.5"/><path fill="#264066" d="M407 768c-5.68 7.772-11.056 15.722-18.5 22-4.199 3.542-6.001 6.912-9.5 4l27.5-44 5.5 2.5-5 9z"/><path fill="#193357" d="M397 752c-18.836 29.76-35.03 59.238-71.5 71l-8.5.5c11.433-2.812 19.655-9.212 29-16 .276-5.309-30.358 13.497-34.5 11.5 4.055 3.072 9.525-1.951 14-2l-10 5c-17.438.798-38.425 4.967-52-9l20 8-12-7c9.065 3.146 17.28 6.485 27 5 5.964-.911 10.17-6.764 16-5l-.5-7c40.064-2.427 52.989-27.79 77-54 .398-.434 2.609-1.569 3-2z"/><path fill="#25486e" d="M475 792c-1.012 1.992-2.802 4.029-4 6l-6 2.5 20-41h2c-4.743 10.372-6.862 22.392-12 32.5"/><path fill="#25476e" d="M549 795c-1.022-1.521-2.995-5.831-4-3l-8.5-33 19.5 39.5z"/><path fill="#10294c" d="M587 784c12.225 11.802 21.093 16.118 33.5 24 7.479 4.751 11.976 10.786 20 14 2.19.646-.388-3.799-.5-4 5.592 1.365 10.152 6.846 15.5 9 1.473.593 2.542-2.606 4-2 5.41 2.246 11.622 7.341 17.5 9.5-42.598 6.474-97.603-26.561-123-59.5-1.053-1.366-7.518-9.358-1.5-9 2.837.169 20.973 26.913 27 29z"/><path fill="#021736" d="M542 825c-3.151 4.081-1.707 5.247 1 9-2.531 1.746-2.152.945-4-.5-4.57-3.574-21.506-34.963-21-40 .197-1.968 3.045-.484 3-1-.516-5.857-5.224-19.836-4-24 .433-1.474.408-2.45 2-1 6.628 19.183 9.768 41.32 23 57.5"/><path fill="#325a82" d="m666.5 771 24.5 18.5c-6.451-2.168-15.482-8.094-20.5-12.5-1.448-1.271-5.66-3.686-4-6"/><path fill="#10294c" d="M504 776c.241-1.098 1.448-1.564 1-3 4.328 3.553 4.957 7.357 3.5 13-1.644.531-.156-10.383-4.5-10"/><path fill="#2e647a" d="M510.5 800c4.447 16.924 14.507 29.408 28 40l-53.5-1.5c12.209-9.707 23.433-22.354 25.5-38.5"/><path fill="#041937" d="m678.5 807 42.5 13.5-19.5-1.5 4 3c-9.887.223-21.444-7.071-27-15"/><path fill="#0b2c51" d="M437.5 808c2.454-.604-.371 3.342-.5 3.5-12.755 15.578-42.46 29.692-63.5 33.5l-21.5 1.5c33.307-3.55 61.516-14.805 85.5-38.5"/><path fill="#0c2b4f" d="M584.5 809c16.397 10.375 33.567 29.866 53.5 28.5l-4.5-2.5c10.524 2.276 22.461.065 32 5l-7.5.5 6.5 3.5-16.5-2.5 20 5c-14.657-.018-29.863-3.168-43.5-8.5-3.132-1.225-29.865-14.676-31-16-1.529-1.783 1.668-3.299 1.5-3.5-1.957-2.344-10.05-4.814-10.5-9.5"/><path fill="#0b2c51" d="M391.5 833c.925-.039 1.949-.3 2.5.5.976 2.884-35.779 11.151-40 9l11.5-2.5-6-2c7.479-1.998 15.477-1.062 23-2 1.893-.236 8.172-2.965 9-3"/><path fill="#122d52" d="m444.5 834-2 5 7.5-1.5c-14.669 9.357-31.971 11.152-48.5 15.5-.347.091.044 2.997-4 4-5.296 1.313-15.536-1.963-21.5-1.5 22.728-5.915 48.918-8.067 68.5-21.5"/><path fill="#122d51" d="m571.5 835 75.5 20.5c-5.539-.246-14.461 2.766-19.5 1.5-.347-.087.01-3.17-4-4-17.967-3.72-38.712-4.822-52-18"/></svg>