<svg xmlns="http://www.w3.org/2000/svg" width="1024" height="1024"><defs><linearGradient id="a" x1="845.432" x2="294.437" y1="472.749" y2="644.022" gradientUnits="userSpaceOnUse"><stop offset="0%" style="stop-color:#e7ecf0"/><stop offset="100%" style="stop-color:#92a8b4"/></linearGradient></defs><path fill="#0a4665" d="M629 137c-1.664-.382-4.008-.569-6-1-3.254-8.786-21.652-51.952-27.5-55-2.987-1.557-43.855-9.957-46-9-1.777 1.413-1.937 3.968-2.5 6-2.768 9.984.333 22.844 1.5 33 19.761 2.664 8.413-17.924 14.5-26.5 5.967 1.402 4.617 41.57-14 29l1 11.5c-1.624-.113-2.968.119-5 0 1.539-7.204-2.116-52.881-6.5-55-3.338.536-6.31-.676-9.5-1-9.721-.987-27.322-.582-37 1-1.972.322-4.428-.223-6.5 0-.82.323-1.23 1.704-1.5 2l-7 14c.598-9.49-.342-6.5-2-14-.044-.201.521-3.384 1-4 43.451-5.739 80.328-1.618 122.5 10z"/><path fill="#182c36" d="M476 68c-.479.616-1.044 3.799-1 4-2.682-.93-6.178.439-9 1-7.276 1.448-36.203 6.995-40 10.5-2.021 1.866-24.811 46.256-25 49-.061.89-.289 1.941.5 2.5.391.217 5.42-1.848 6.5-2 1.742-.245 3.408-.904 4-1 18.006-2.904 38.866-3.722 56-7 1.09-.209 2.371.138 3.5 0 1.636-1.109 5.198-34.21 5.5-39l7-14c-4.182 4.587-9.596 51.301-4.5 53 1.763-1.604 5.258-1.121 7.5-1 2.308.125 4.685-.048 7 0l3 3c-49.977.939-99.156 10.331-146 27-.033-.138-2.298-.873-2-2 14.898-5.577 29.352-12.941 45.5-15 5.8-3.654 23.361-53.064 30-58 4.427-3.291 43.64-9.962 51.5-11"/><path fill="#b5eaf6" d="M529 69c6.39 10.476 5.25 24.286 4.5 36l-5-28-38.5-2c.482-1.867.984-3.365 2-5 9.678-1.582 27.279-1.987 37-1"/><path fill="#84d7ec" d="M545 125c-17.055-1.003-33.945-.644-51-1-2.315-.048-4.692.125-7 0-3.807-14.898-.82-34.201 3-49l38.5 2 5 28c.75-11.714 1.89-25.524-4.5-36 3.19.324 6.162 1.536 9.5 1 4.384 2.119 8.039 47.796 6.5 55"/><path fill="#22c3e3" d="M492 70c-1.016 1.635-1.518 3.133-2 5-3.82 14.799-6.807 34.102-3 49-2.242-.121-5.737-.604-7.5 1-5.096-1.699.318-48.413 4.5-53 .27-.296.68-1.677 1.5-2 2.072-.223 4.528.322 6.5 0"/><path fill="#07819b" d="M475 72c1.658 7.5 2.598 4.51 2 14-.302 4.79-3.864 37.891-5.5 39-1.129.138-2.41-.209-3.5 0 1.076-1.656 1.525-5.365 1-7-.493-1.535-1.308-1.408-2-2l5-3.5c.209-2.55-2.1-2.052-3-2.5 2.603-7.388 5.256-25.85 2-32.5-1.066-2.176-3.594-1.216-4-1.5-.13-.09-.13-2.138-1-3 2.822-.561 6.318-1.93 9-1"/><path fill="#c3eff9" d="M623 136c-1.131-.245-4.267-1.852-5-2-7.159-7.219-19.474-40.522-25.5-45-7.773-5.776-35.887-4.497-45.5-11 .563-2.032.723-4.587 2.5-6 2.145-.957 43.013 7.443 46 9 5.848 3.048 24.246 46.214 27.5 55"/><path fill="#09a0c1" d="M466 73c.87.862.87 2.91 1 3-6.72 2.65-1.172 2.32-3 5-2.732-1.277-5.075 1.775-6 2-6.059 1.478-20.484 1.823-25.5 4-5.5 2.388-20.566 38.267-24.5 46-1.08.152-6.109 2.217-6.5 2-.789-.559-.561-1.61-.5-2.5.189-2.744 22.979-47.134 25-49 3.797-3.505 32.724-9.052 40-10.5"/><path fill="#05aacd" d="M469 110c-.968-.483-3.819.938-5-1.5-1.845-3.809-.44-19.546-3-24.5.114-.179 1.517-.826 3-3 1.828-2.68-3.72-2.35 3-5 .406.284 2.934-.676 4 1.5 3.256 6.65.603 25.112-2 32.5"/><path fill="#8edcf0" d="M618 134c-21.453-4.333-46.147-7.485-68-9l-1-11.5c18.617 12.57 19.967-27.598 14-29-6.087 8.576 5.261 29.164-14.5 26.5-1.167-10.156-4.268-23.016-1.5-33 9.613 6.503 37.727 5.224 45.5 11 6.026 4.478 18.341 37.781 25.5 45"/><path fill="#13b8d8" d="M464 81c-1.483 2.174-2.886 2.821-3 3-4.624 7.275-6.165 10.398-4 20.5 2.343 10.931 5.236 7.424 10 11.5.692.592 1.507.465 2 2-2.155-.004-13.055 1.417-14 .5-2.767-2.687-2.987-23.57-1-28.5.715-1.775 3.477-4.665 4-7 .925-.225 3.268-3.277 6-2"/><path fill="#016988" d="M458 83c-.523 2.335-3.285 5.225-4 7-1.78-1.525-3.06.12-4 1.5-4.205 6.173-11.539 27.005-16.5 30.5-4.86 3.424-17.673 3.451-21.5 10-.592.096-2.258.755-4 1 3.934-7.733 19-43.612 24.5-46 5.016-2.177 19.441-2.522 25.5-4"/><path fill="#031f2e" d="M469 110c.9.448 3.209-.05 3 2.5l-5 3.5c-4.764-4.076-7.657-.569-10-11.5-2.165-10.102-.624-13.225 4-20.5 2.56 4.954 1.155 20.691 3 24.5 1.181 2.438 4.032 1.017 5 1.5"/><path fill="#038dad" d="M454 90c-1.987 4.93-1.767 25.813 1 28.5.945.917 11.845-.504 14-.5.525 1.635.076 5.344-1 7-17.134 3.278-37.994 4.096-56 7 3.827-6.549 16.64-6.576 21.5-10 4.961-3.495 12.295-24.327 16.5-30.5.94-1.38 2.22-3.025 4-1.5"/><path fill="#334244" d="M545 125c2.032.119 3.376-.113 5 0 21.853 1.515 46.547 4.667 68 9 .733.148 3.869 1.755 5 2 1.992.431 4.336.618 6 1 17.174 3.944 35.123 8.348 51 16-4.861-1.353-8.292.467-10 0-62.485-17.096-106.512-27.249-173-26l-3-3c17.055.356 33.945-.003 51 1"/><path fill="#b4c6d1" d="M497 127c66.488-1.249 110.515 8.904 173 26 1.094 1.613 1.211 3.102 1 5-26.391-4.117-52.042-12.908-78.5-17-74.724-11.556-148.962-6.938-221.5 13.5 95.718-18.318 196.055-17.152 290.5 7.5-8.036 31.394-19.689 62.276-31.5 92.5-2.068 5.292-11.29 30.583-13 33-1.939 2.74-2.898-.974-4 1.5-64.524-28.843-142.779-29.279-207 1-11.686-20.447-21.026-42.639-30-64.5-9.537-23.231-19.253-47.399-25-71.5 46.844-16.669 96.023-26.061 146-27m35.5 31c-30.15 2.864-39.983 16.529-16 39 17.125 16.046 64.435 43.968 88 40 20.319-3.421 38.344-43.003 37-62-33.261-9.753-74.057-20.32-109-17"/><path fill="#f6fafb" d="M671 158c-1.55 13.921-25.191 67.156-32 83.5-6.953 16.691-14.566 33.501-23 49.5-1.078-.507-2.659-1.848-3-2 1.102-2.474 2.061 1.24 4-1.5 1.71-2.417 10.932-27.708 13-33 11.811-30.224 23.464-61.106 31.5-92.5-94.445-24.652-194.782-25.818-290.5-7.5 72.538-20.438 146.776-25.056 221.5-13.5 26.458 4.092 52.109 12.883 78.5 17"/><path fill="#0c4665" d="M349 152c-.298 1.127 1.967 1.862 2 2 5.747 24.101 15.463 48.269 25 71.5 8.974 21.861 18.314 44.053 30 64.5-.163.077-1.218 1.114-3 2-19.105-32.288-31.183-68.237-45-103-1.757-4.42-11.299-32.398-13.5-33-.504-.138-8.273 2.938-10 3-1.495 1.759 13.695 29.988 15.5 34 15.186 33.749 28.821 70.118 49 101-1.385.727-3.124 1.515-4 2-20.035-34.002-35.412-71.087-52-107-4.316-9.343-7.149-18.287-13-27-1.34-1.996-2.26-.142-1-4 7.383-3.006 13.454-3.55 20-6"/><path fill="#0f4865" d="M680 153c1.501.418 3.554.34 6 1l-1 3c-1.625-.588-9.111-3.345-10-1.5-.52 11.802-8.366 25.129-13 36.5-7.05 17.297-12.961 35.204-20 52.5-2.681 6.588-20.829 43.337-21 46-.114 1.78.057 2.417 1.5 3.5 21.037-32.429 34.355-69.083 50.5-104 4.587-9.921 10.891-19.731 15-30 .995.34 1.994.637 3 1-3.52 7.555-6.569 15.417-10 23-4.667 10.317-9.332 20.68-14 31-12.544 27.73-24.963 55.53-40 82-2.553-1.417-8.249-4.707-11-6 8.434-15.999 16.047-32.809 23-49.5 6.809-16.344 30.45-69.579 32-83.5.211-1.898.094-3.387-1-5 1.708.467 5.139-1.353 10 0"/><path fill="#7de1f7" d="M685 157c2.85 1.031 2.799 2.931 3 3-4.109 10.269-10.413 20.079-15 30l-11 2c4.634-11.371 12.48-24.698 13-36.5.889-1.845 8.375.912 10 1.5"/><path fill="#233944" d="M826 243c-3.144 6.693.405 6.68 2 10 2.537 21.974 7.405 43.844 9 66 1.288 17.891 1.167 36.058 1 54-.031 3.32.083 6.682 0 10-.79 31.394-4.065 58.184-9 89-3.546 22.141-7.626 42.262-13 64-.44 1.779-.546 4.23-1 6-19.048 74.314-51.377 150.906-90 217-.145.248.146.752 0 1-25.634 43.662-60.5 93.529-96 129-12.906 12.896-27.751 24.597-42 36-5.221 2.358-11.485 6.207-17 7 68.269-39.904 129.264-132.216 166-201 66.979-125.412 107.639-269.762 97-413.5-1.169-15.795-6.602-60.993-13-74-8.324-16.921-59.422-49.736-77-59.5-17.612-9.782-33.183-16.211-52-23-1.006-.363-2.005-.66-3-1-.201-.069-.15-1.969-3-3l1-3c41.366 11.161 112.729 55.789 140 89"/><path fill="#079ab9" d="M358 189c-2.429.332-7.888.805-8 4-1.805-4.012-16.995-32.241-15.5-34 1.727-.062 9.496-3.138 10-3 2.201.602 11.743 28.58 13.5 33"/><path fill="#152a39" d="M330 162c-28.949 14.437-59.838 26.694-86 46-14.194 8.9-35.335 18.516-41 35-12.023 34.987-14.964 104.852-14 142.5 3.761 146.92 60.707 300.327 143 420.5 29.095 42.488 71.048 95.52 115 123-1.442-.57-2.289 1.292-8-2-19.699-11.357-36.152-30.99-53-46-9.084-12.937-23.432-25.402-33-38-1.659-2.184-3.32-4.752-5-7-24.907-33.329-51.626-76.16-71-113-1.351-2.569-2.661-5.38-4-8-26.926-52.689-52.846-118.523-67-176-.394-1.599-.588-3.27-1-5-4.764-20.01-7.892-40.653-11-61-.327-2.141-.621-3.346-1-6-4.059-28.441-7.333-56.179-8-85-.038-1.657.025-3.343 0-5-.272-17.746-.201-36.315 1-54 .09-1.326.819-3.741 1-6 .934-11.679 2.32-23.411 4-35a559 559 0 0 1 6-34c1.612-2.935 5.962-7.322 1-9 24.9-30.747 93.77-65.842 131-81-1.26 3.858-.34 2.004 1 4"/><path fill="#f7f8fa" d="M532.5 158c34.943-3.32 75.739 7.247 109 17 1.344 18.997-16.681 58.579-37 62-23.565 3.968-70.875-23.954-88-40-23.983-22.471-14.15-36.136 16-39"/><path fill="url(#a)" d="M743 184c-.744 2.488-1.868 1.595-3.5 1-4.631-1.687-16.17-9.247-20-10-4.372-.859-8.03 3.521-12.5 2.5 29.825 17.994 74.725 39.888 96 68 11.696 15.455 16.234 62.126 18 83 10.149 119.997-20.228 250.724-68 360-5.278 12.072-14.781 27.104-19 39-.938 2.644-2.259 3.841 2 3.5-36.736 68.784-97.731 161.096-166 201-1.985 1.16-4.006 2.959-6 4-43.98 22.971-75.632 18.864-117-7-43.952-27.48-85.905-80.512-115-123 2.296-2.512 2.042-3.82 2-7-.248-18.709-2.47-37.54-5.5-56 15.938 13.724 32.346 26.53 50 38 34.967-1.964 70.336-4.275 104.5-12 14.315 1.261 28.678 1.03 43 0 88.068-6.336 204.408-69.703 225-162.5.128-.578 1.289-4.895-.5-4.5l-1.5 6.5c-.422.923-1.777.305-2 .5 1.498-8.313-1.567-19.349-5-27 30.564-113.262-11.793-227.708-115-285 15.037-26.47 27.456-54.27 40-82 8.215 12.274-2.592 28.723 20.5 25 10.383-1.674 34.325-30.94 30-38-1.232-2.012-32.455-14.398-36.5-18 3.431-7.583 6.48-15.445 10-23 18.817 6.789 34.388 13.218 52 23m-11.5 25c-7.503 6.124-11.08 16.093-17.5 23.5-9.303 10.733-20.825 19.203-31 29 31.946 35.158 86.696 28.052 124.5 54.5 2.674-1.578-11.282-57.105-13.5-60.5-1.584-2.425-34.017-28.377-38.5-31.5-7.694-5.36-16.518-9.275-24-15m-303 582c-5.299 4.574-5.109 12.027-4.5 18.5 5.326 56.608 60.048 140.798 124.5 95.5 23.209-16.311 47.842-71.875 49.5-99.5 1.335-22.24-12.448-11.686-24.5-10.5-6.289.619-31.98 3.57-36 3-3.206-.455-11.816-6.262-18-7-13.672-1.632-26.461 2.082-39 7z" style="fill:url(#a)"/>/&gt;<path fill="#6e848e" d="M343 189c-8.166 3.825-37.744 38.259-38 44.5-.139 3.383 3.191 3.018 3 4-2.163 11.109-11.095 27.17-14 40-4.908 21.677-9.328 53.6-12 76-3.819 32.014-5.906 64.26-5 96.5-.583 2.066-.446 6.623-1 8.5-.695 2.357-2.93 3.76-3 4-.176.608 2.174.391 2 1-1.601 5.598-2.424 11.73-4 17.5-9.314 34.096-15.774 40.272-11 79.5C273.526 671.65 367.081 754.498 476 768c2.296.285 4.832.809 7 1-34.164 7.725-69.533 10.036-104.5 12-17.654-11.47-34.062-24.276-50-38 3.03 18.46 5.252 37.291 5.5 56-1.989 1.662-2.292-.238-3-1.5-81.756-145.73-135.694-296.829-130-467 .984-29.422 7.256-59.204 6-88.5 12.476-10.8 23.194-23.812 37-34 26.162-19.306 57.051-31.563 86-46 5.851 8.713 8.684 17.657 13 27"/><path fill="#f6f8fa" d="M743 184c17.578 9.764 68.676 42.579 77 59.5 6.398 13.007 11.831 58.205 13 74 10.639 143.738-30.021 288.088-97 413.5-4.259.341-2.938-.856-2-3.5 4.219-11.896 13.722-26.928 19-39 47.772-109.276 78.149-240.003 68-360-1.766-20.874-6.304-67.545-18-83-21.275-28.112-66.175-50.006-96-68 4.47 1.021 8.128-3.359 12.5-2.5 3.83.753 15.369 8.313 20 10 1.632.595 2.756 1.488 3.5-1"/><path fill="#f6f8fa" d="M667 215c4.668-10.32 9.333-20.683 14-31 4.045 3.602 35.268 15.988 36.5 18 4.325 7.06-19.617 36.326-30 38-23.092 3.723-12.285-12.726-20.5-25"/><path fill="#a5bac5" d="M343 189c16.588 35.913 31.965 72.998 52 107-58.565 32.416-99.992 90.191-118 154-.906-32.24 1.181-64.486 5-96.5 2.672-22.4 7.092-54.323 12-76 2.905-12.83 11.837-28.891 14-40 .191-.982-3.139-.617-3-4 .256-6.241 29.834-40.675 38-44.5"/><path fill="#48d2ee" d="M358 189c13.817 34.763 25.895 70.712 45 103-1.236.615-2.818 1.379-4 2-20.179-30.882-33.814-67.251-49-101 .112-3.195 5.571-3.668 8-4"/><path fill="#3cc9e7" d="M673 190c-16.145 34.917-29.463 71.571-50.5 104-1.443-1.083-1.614-1.72-1.5-3.5.171-2.663 18.319-39.412 21-46 7.039-17.296 12.95-35.203 20-52.5z"/><path fill="#8ea8b3" d="M244 208c-13.806 10.188-24.524 23.2-37 34-1.308 1.133-2.295 2.378-4 1 5.665-16.484 26.806-26.1 41-35"/><path fill="#f8f8fa" d="M731.5 209c7.482 5.725 16.306 9.64 24 15 4.483 3.123 36.916 29.075 38.5 31.5 2.218 3.395 16.174 58.922 13.5 60.5-37.804-26.448-92.554-19.342-124.5-54.5 10.175-9.797 21.697-18.267 31-29 6.42-7.407 9.997-17.376 17.5-23.5"/><path fill="#073958" d="M197 248c-25.26 45.998-36.921 85.199-42 138-2.837 29.5-1.434 52.807 1 82 .008.1-.165.201 0 2 .999 10.861 1.411 22.27 3 33 .094.637-.097 1.364 0 2 24.422 160.025 121.884 335.108 265.5 416 3.639 2.05 10.365 5.809 14.5 6 5.711 3.292 6.558 1.43 8 2 3.448 1.361.194 6.911-5 5-161.484-73.475-261.961-260.469-286-430-.24-1.695-.889-2.184-1-3-.48-3.521-1.945-7.553-2-8-.737-5.988-.373-15.257-1-22-1.499-16.132-4.066-36.111-4-52 .057-13.696 2.298-33.104 4-47 .04-.328-.042-.672 0-1 1.655-13.037 5.229-34.985 8-47 .919-3.987 4.605-12.192 6-17 1.413-4.869 2.399-10.209 4-15 .253-.757 2.935-2.024 1-4 3.778-.643 6.635-6.406 6-11 7.994-14.473 9.624-23.952 21-38 4.962 1.678.612 6.065-1 9"/><path fill="#859ca5" d="M334 799c.042 3.18.296 4.488-2 7-82.293-120.173-139.239-273.58-143-420.5-.964-37.648 1.977-107.513 14-142.5 1.705 1.378 2.692.133 4-1 1.256 29.296-5.016 59.078-6 88.5-5.694 170.171 48.244 321.27 130 467 .708 1.262 1.011 3.162 3 1.5"/><path fill="#0f4662" d="M849 284c.673 1.62 1.77 4.414 2 5 .335.855.633 2.025 1 3 1.724 4.584 3.529 9.336 5 14 1.779 5.643 4.651 12.516 6 18 .06.243-.562 2.493 0 5a386 386 0 0 1 7 42c1.8 16.263 2.927 31.579 3 48 .083 18.584-1.472 33.778-3 52-.621 7.405-1.135 14.616-2 22-.25 2.13.159 6.794 0 8-.108.821-.582.029-1 3-23.671 168.075-140.457 375.928-306 438-3.632-4.144 3.913-2.494 3-6 1.994-1.041 4.015-2.84 6-4 5.515-.793 11.779-4.642 17-7 14.728-6.653 28.179-13.729 41-24 137.257-97.453 220.601-264.631 238-430.5-.654-1.096-2.975-.163-4-.5v-3c1.257-.373 4.185.65 5-.5 4.864-56.35.972-116.511-18-170-5.713-16.108-13.852-28.62-21-43.5-1.595-3.32-5.144-3.307-2-10 9.927 12.09 17.003 26.557 23 41"/><path fill="#6fcbe6" d="M191 282c-2.002.837-7.787 1.348-9 2.5-3.047 2.895-7.468 31.032-8 36.5-.155 1.594-4.407 3.2 1 4-.225.141-3.899 3.254-4 3.5-1.128 2.759-6.463 46.525-6 49.5.142.914-.45 2.412.5 3 2.083.498 1.378-1.973 1.5-2 5.835-1.3 11.895-2.435 18-2 .025 1.657-.038 3.343 0 5-6.344.089-13.777-.026-20 1-3.784.624-6.477 1.812-10 3 5.079-52.801 16.74-92.002 42-138a559 559 0 0 0-6 34"/><path fill="#8cd9ef" d="M862 467c-2.707.804-2.187-.205-4 0 .082-6.419 4.031-32.264 2-36.5-1.388-2.894-5.686.063-6-3 1.364-1.261 5.098.281 6-1 1.21-1.717-.165-40.073-1-42-1.237-2.854-17.634-3.214-21-1.5.083-3.318-.031-6.68 0-10l2.5 4 18.5 2.5c-1.121-.883-1.944.062-2-2-.49-18.074-4.826-35.098-6-53l-14-5.5c-1.595-22.156-6.463-44.026-9-66 7.148 14.88 15.287 27.392 21 43.5 18.972 53.489 22.864 113.65 18 170-.815 1.15-3.743.127-5 .5"/><path fill="#3b494b" d="M613 289c.341.152 1.922 1.493 3 2 2.751 1.293 8.447 4.583 11 6 103.207 57.292 145.564 171.738 115 285-3.196 11.842-7.484 23.272-11 35-5.096 4.447-19.02 31.762-26 40.5-13.352 16.716-33.628 35.081-51 47.5-15.562 11.125-32.272 20.709-50 28-119.809 49.27-264.933-5.538-316-125.5-17.482-41.067-20.254-82.217-17-126.5 1.576-5.77 2.399-11.902 4-17.5.174-.609-2.176-.392-2-1 .07-.24 2.305-1.643 3-4 .554-1.877.417-6.434 1-8.5 18.008-63.809 59.435-121.584 118-154 .876-.485 2.615-1.273 4-2 1.182-.621 2.764-1.385 4-2 1.782-.886 2.837-1.923 3-2 64.221-30.279 142.476-29.843 207-1M278 457c-5.026 23.601-6.933 51.902-5 76 2.009 25.054 9.75 53.125 20 76 81.482 181.849 353.88 184.209 434 2 16.075-36.559 23.263-68.406 22-109-8.771-281.965-413.695-314.111-471-45"/><path fill="#d5f7fc" d="M749 502c-2.89 1.984-1.931-.673-2-2.5-9.797-258.797-388.413-313.159-465-48-.616 2.133-.995 5.796-4 5.5 57.305-269.111 462.229-236.965 471 45"/><path fill="#89bbcb" d="M749 502c1.263 40.594-5.925 72.441-22 109-9.589 2.038-4.443-9.927-9-15 17.69-43.822 20.007-89.32 9-133-46.153-183.156-275.166-238.484-391-88-13.921 18.085-30.44 47.182-37 69-.747 2.486-1.347 4.431-2 7-8.886 23.329-11.002 56.288-9 81l-15 1c-1.933-24.098-.026-52.399 5-76 3.005.296 3.384-3.367 4-5.5 76.587-265.159 455.203-210.797 465 48 .069 1.827-.89 4.484 2 2.5"/><path fill="#353f43" d="M171 288c-5.622.957-18.228-1.414-22.5 0-4.458 1.476-16.017 29.362-18.5 35-2.346 5.327-5.964 10.267-8 16l-2-1c.507-1.428.655-4.081 1-5 1.956-5.207 4.76-10.814 7-16 3.028-7.011 6.897-13.916 10-21 1.227-2.802 6.728-6.482 1.5-8-2.432-.706-21.543-.121-24 1-3.152 1.438-14.237 21.694-16.5 26-2.789 5.307-6.818 14.366-9 20-5.093 13.153-8.495 25.03-11 39a269 269 0 0 0-3 22h-4c.172-1.96-.217-4.051 0-6 .556-4.992 2.06-10.935 3-16 .297-1.6.668-3.385 1-5a305 305 0 0 1 2-9c.698-2.941 1.219-6.111 2-9 1.665-6.156 5.602-13.646 7.5-20l-1-2c-13.831 3.013-20.411 8.667-26.5 21a69 69 0 0 0-4 10c-2.806 8.971-4.733 20.619-6 30-.606 4.489-1.711 9.549-2 14-.075 1.149.03 3.327 0 5-3.216-4.027 1.728-13.429-2-14 1.77-18.677 7.787-53.895 25.5-64 5.228-2.982 15.306-3.793 18.5-6.5 4.303-3.646 17.626-37.795 22.5-39.5h60c2.636-2.037 2.988-5.263 4.5-8 .635 4.594-2.222 10.357-6 11"/><path fill="#5ab6d3" d="M191 282c-1.68 11.589-3.066 23.321-4 35l-13 4c.532-5.468 4.953-33.605 8-36.5 1.213-1.152 6.998-1.663 9-2.5"/><path fill="#374044" d="M976 395c-2.521 1.594.876 6.616-3 6-.262-3.791-.524-7.238-1-11-1.186-9.384-3.262-20.989-6-30-1.263-4.157-2.15-6.149-4-10-6.224-12.954-12.073-17.821-26.5-21l-1 2c3.007 6.798 5.554 13.827 7.5 21a238 238 0 0 1 2 8c.625 2.66 1.444 5.327 2 8 .403 1.934.652 4.049 1 6 .993 5.557 2.436 11.398 3 17 .23 2.282-.174 4.705 0 7l-4-1c-.749-8.173-1.549-14.922-3-23-3.965-22.071-9.187-36.22-19-56-2.386-4.809-13.083-27.186-16.5-29-5.466-2.902-20.376.096-27-1-1.772.956 3.162 7.226 3.5 8 3.225 7.379 6.739 14.632 10 22 1.932 4.367 5.399 9.874 7 14 .274.706-.271 2.28 0 3l-2 1c-1.118-3.013-2.75-6.005-4-9-.774-1.854-2.411-3.702-3-5-2.453-5.405-14.31-32.684-18.5-34-3.812-1.198-17.844.123-22.5 1-.23-.586-1.327-3.38-2-5l60.5 1c5.276 1.8 18.493 35.831 22.5 39.5 2.058 1.885 13.797 3.813 18.5 6.5 18.266 10.437 23.622 44.753 25.5 64"/><path fill="#8997a0" d="M138 296c-21.629-1.84-26.025-.317-34 19.5l24 1.5c-2.24 5.186-5.044 10.793-7 16l-23.5-1c-1.599-1.816 10.861-17.887 1.5-17 2.263-4.306 13.348-24.562 16.5-26 2.457-1.121 21.568-1.706 24-1 5.228 1.518-.273 5.198-1.5 8"/><path fill="#82e7fb" d="M171 288c1.935 1.976-.747 3.243-1 4-7.792-.062-25.814-2.426-27 8.5-.748 6.892 19.322 4.048 23 6.5-1.395 4.808-5.081 13.013-6 17l-30-1c2.483-5.638 14.042-33.524 18.5-35 4.272-1.414 16.878.957 22.5 0"/><path fill="#81e8fc" d="M892 322c.435 3.009-2.67 1.938-4.5 2-8.147.275-16.359-.202-24.5 0-1.349-5.484-4.221-12.357-6-18 3.831-.498 21.44.013 22-4.5.155-1.25-5-8.851-7.5-9.5-4.725-1.227-14.166.903-19.5 0-.367-.975-.665-2.145-1-3 4.656-.877 18.688-2.198 22.5-1 4.19 1.316 16.047 28.595 18.5 34"/><path fill="#8a98a0" d="M924 318c-5.949-1.085-.709 10.652 0 13l-23 1c-1.601-4.126-5.068-9.633-7-14 7.365-3.261 15.582-1.633 23.5-2-5.224-20.173-13.468-21.856-33.5-20-.338-.774-5.272-7.044-3.5-8 6.624 1.096 21.534-1.902 27 1 3.417 1.814 14.114 24.191 16.5 29"/><path fill="#0a3f68" d="M727 463c.121.956-.203 2.082 0 3-5.319.789-7.667-7.016-12.5-5-3.137 1.308.532 22.733 1.5 23.5 1.665 1.32 5.143-.302 7 1 .021.699-6.141.289-7 2-1.077 2.145 1.052 39.255 0 48-11.242 93.415-98.729 170.285-191.5 175.5-176.561 9.925-279.978-189.046-173.5-328.5l-15-7.5c115.834-150.484 344.847-95.156 391 88m-55 153c-.37 2.259-3.136 7.416-1 9.5 43.379-81.369 40.747-182.666-24-252-13.868-14.85-81.903-64.994-93-29-7.203 23.362 12.24 33.058 27 45.5-12.383 9.473-29.658 3.762-44 8-8.856-18.638-16.589-37.852-26.5-56L464 440.5c-4.178 3.23-20.935 3.624-27 4.5-26.206 3.784-52.728 5.189-79 8.5l81 76c-6.16 33.014-18.95 66.772-25 99.5-.255 1.378-1.659 6.249-.5 7 30.208-14.841 60.883-37.954 91.5-51 1.47 6.113 15.81 10.18 19 4 23.674 12.386 46.537 26.254 70 39 1.589.863 14.983 9.591 16 7.5-2.181-8.851-5.833-17.711-8-26.5-1.386-5.622-2.612-11.359-4-17 37.875-9.822 49.454-47.708 72-74 4.448 21.272 5.467 40.293 5 62l-25 36.5c-76.299 89.372-227.185 81.948-289-20-78.886-130.103 44.619-290.587 189.5-254.5 3.997-20.986-26.924-20.827-39-28-11.554 1.441-23.479.86-35 3C330.332 344.155 261.876 524.154 367 635.5c74.287 78.683 199.781 83.149 278.5 8.5zm-65.5-293c-1.07 2.649 7.813 6.666 8.5 5.5.211-3.436-5.917-4.996-8.5-5.5"/><path fill="#24c7eb" d="M170 292c-1.601 4.791-2.587 10.131-4 15-3.678-2.452-23.748.392-23-6.5 1.186-10.926 19.208-8.562 27-8.5"/><path fill="#28c9ec" d="M857 306c-1.471-4.664-3.276-9.416-5-14 5.334.903 14.775-1.227 19.5 0 2.5.649 7.655 8.25 7.5 9.5-.56 4.513-18.169 4.002-22 4.5"/><path fill="#637680" d="M138 296c-3.103 7.084-6.972 13.989-10 21l-24-1.5c7.975-19.817 12.371-21.34 34-19.5"/><path fill="#647580" d="M894 318c-3.261-7.368-6.775-14.621-10-22 20.032-1.856 28.276-.173 33.5 20-7.918.367-16.135-1.261-23.5 2"/><path fill="#0e578f" d="M675 580c-.281 13.07-.887 23.092-3 36l-26.5 28c-78.719 74.649-204.213 70.183-278.5-8.5C261.876 524.154 330.332 344.155 476.5 317c11.521-2.14 23.446-1.559 35-3 12.076 7.173 42.997 7.014 39 28C405.619 305.913 282.114 466.397 361 596.5c61.815 101.948 212.701 109.372 289 20z"/><path fill="#c7d2d7" d="M121 333c-.345.919-.493 3.572-1 5-4.313 12.149-6.363 19.193-9 32-.373 1.812-1.909 4.485-2 5-8.687-.571-17.272-1-26-1 .735-2.975 9.165-27.968 10-29.5.252-.462 5.62-3.661 6.5-7.5l4.5-.5c-7.264-4.003-7.803 1.18-14-1.5 2.182-5.634 6.211-14.693 9-20 9.361-.887-3.099 15.184-1.5 17zm-18.5 12c-4.211.798-7.736 3.057-6 8 9.834 1.33 24.422-11.489 6-8"/><path fill="#2c98be" d="M186 323c-3.273-.044-8.206.252-11 2-5.407-.8-1.155-2.406-1-4l13-4c-.181 2.259-.91 4.674-1 6"/><path fill="#fafcfc" d="M924 318c9.813 19.78 15.035 33.929 19 56h-4c-.344-1.386-.982-.932-1-1-3.532-13.643-9.874-28.327-14-42-.709-2.348-5.949-14.085 0-13"/><path fill="#6ecbe6" d="M838 373c.167-17.942.288-36.109-1-54l14 5.5c1.174 17.902 5.51 34.926 6 53 .056 2.062.879 1.117 2 2l-18.5-2.5z"/><path fill="#0aa5d3" d="m895 327-32 2c-.562-2.507.06-4.757 0-5 8.141-.202 16.353.275 24.5 0 1.83-.062 4.935 1.009 4.5-2 .589 1.298 2.226 3.146 3 5"/><path fill="#6ce1f8" d="M160 324c-2.771 12.015-6.345 33.963-8 47-11.809-1.172-26.578 1.58-38 0 2.15-10.579 4.395-21.846 8-32 2.036-5.733 5.654-10.673 8-16z"/><path fill="#47afcd" d="M186 323c-1.201 17.685-1.272 36.254-1 54-6.105-.435-12.165.7-18 2l-2-1c-.463-2.975 4.872-46.741 6-49.5.101-.246 3.775-3.359 4-3.5 2.794-1.748 7.727-2.044 11-2"/><path fill="#0e304e" d="M606.5 323c2.583.504 8.711 2.064 8.5 5.5-.687 1.166-9.57-2.851-8.5-5.5"/><path fill="#6fe1f8" d="M895 327c1.25 2.995 2.882 5.987 4 9 3.519 9.482 8.063 24.206 10 34 2.116 10.698 4.471 28.211 5 39 .162 3.3-.037 6.691 0 10-1.963.951-3.796-.971-4-1l-3-46.5-37-.5a386 386 0 0 0-7-42z"/><path fill="#82939d" d="m80 351-20-1c6.089-12.333 12.669-17.987 26.5-21l1 2c-1.898 6.354-5.835 13.844-7.5 20"/><path fill="#8695a0" d="m962 350-20 2c-1.946-7.173-4.493-14.202-7.5-21l1-2c14.427 3.179 20.276 8.046 26.5 21"/><path fill="#c3ced4" d="M924 331c4.126 13.673 10.468 28.357 14 42l-25 2c-.229-1.3-1.856-3.759-1-6 5.64-1.209 11.479-1.643 17-3.5.915-1.335-4.058-24.559-6.5-27.5-3.674 15.772 13.73 22.242-11 23-1.981-1.421-.011-23.203-6.5-19-.991-2.948-3.418-5.457-4-7-.271-.72.274-2.294 0-3z"/><path fill="#e4ebf1" d="M672 616c2.113-12.908 2.719-22.93 3-36 .467-21.707-.552-40.728-5-62-4.145-19.822-11.099-37.377-21-55-2.74-4.877-5.887-9.374-9-14-18.648-27.716-34.53-38.373-59-59-14.76-12.442-34.203-22.138-27-45.5 11.097-35.994 79.132 14.15 93 29 64.747 69.334 67.379 170.631 24 252-2.136-2.084.63-7.241 1-9.5"/><path fill="#fbfdfd" d="M83 374h-4c2.505-13.97 5.907-25.847 11-39 6.197 2.68 6.736-2.503 14 1.5l-4.5.5c-.88 3.839-6.248 7.038-6.5 7.5-.835 1.532-9.265 26.525-10 29.5"/><path fill="#6f7f80" d="M905 342c2.906 8.642 4.639 17.974 6 27-.999.149-1.122 1.038-2 1-1.937-9.794-6.481-24.518-10-34l2-1c.582 1.543 3.009 4.052 4 7"/><path fill="#697b7c" d="M122 339c-3.605 10.154-5.85 21.421-8 32-1.08-.149-1.493-1.485-3-1 2.637-12.807 4.687-19.851 9-32z"/><path fill="#fbfdfd" d="M912 369c-.316.068-.675-.048-1 0-1.361-9.026-3.094-18.358-6-27 6.489-4.203 4.519 17.579 6.5 19 24.73-.758 7.326-7.228 11-23 2.442 2.941 7.415 26.165 6.5 27.5-5.521 1.857-11.36 2.291-17 3.5"/><path fill="#2fcbe6" d="M537 398c4.782 10.064 10.612 26.339 16 35-7.966 1.312 1.099 8.585 1 14-2.554-.703-3.481.913-6-2.5-4.102-5.558-11.345-27.501-16-36-2.656-4.849-6.669-12.031-11-15.5-2.79-6.147-6.524-16.176-11-20 .239-.47.332-1.827 1-3l2-2c2.62-3.657 3.805-1.991 4-2.5-3.115-4.66-5.473-6.871-7.5-10.5L473 441.5c-3.679 4.099-29.267 5.612-36 6.5v-3c6.065-.876 22.822-1.27 27-4.5l46.5-98.5c9.911 18.148 17.644 37.362 26.5 56"/><path fill="#fcfdfd" d="M102.5 345c18.422-3.489 3.834 9.33-6 8-1.736-4.943 1.789-7.202 6-8"/><path fill="#b5c1c8" d="M80 351c-.781 2.889-1.302 6.059-2 9H56a69 69 0 0 1 4-10z"/><path fill="#b5c2ca" d="M966 360h-22a238 238 0 0 0-2-8l20-2c1.85 3.851 2.737 5.843 4 10"/><path fill="#40d7ef" d="M513 368c-.082.115-.429-.76-2 2-.668 1.173-.761 2.53-1 3-5.153 10.142-31.249 74.251-35.5 77l-84 11c-7.643 4.546 4.184 7.452 3.5 13-7.073-5.383-14.23-10.637-22-15-.32-2.199 2.952-4.489 4.5-5 10.282-3.393 46.565-4.161 60.5-6 6.733-.888 32.321-2.401 36-6.5l36.5-86.5c2.027 3.629 4.385 5.84 7.5 10.5-.195.509-1.38-1.157-4 2.5"/><path fill="#dae2e7" d="M78 360a305 305 0 0 0-2 9c-22.66-3.667-28.444 7.193-1 5-.94 5.065-2.444 11.008-3 16H50c1.267-9.381 3.194-21.029 6-30z"/><path fill="#d8e0e5" d="M966 360c2.738 9.011 4.814 20.616 6 30l-22 1c-.564-5.602-2.007-11.443-3-17 27.477 2.041 22.347-6.949-1-6-.556-2.673-1.375-5.34-2-8z"/><path fill="#fafbfc" d="M76 369c-.332 1.615-.703 3.4-1 5-27.444 2.193-21.66-8.667 1-5"/><path fill="#1483ae" d="m513 368-2 2c1.571-2.76 1.918-1.885 2-2"/><path fill="#fafcfc" d="M947 374c-.348-1.951-.597-4.066-1-6 23.347-.949 28.477 8.041 1 6"/><path fill="#484e51" d="M912 369c-.856 2.241.771 4.7 1 6 1.802 10.234 3.295 22.624 4 33l-3 1c-.529-10.789-2.884-28.302-5-39 .878.038 1.001-.851 2-1 .325-.048.684.068 1 0"/><path fill="#484c4e" d="M114 371c-.181.889-.707 1.439-1 3-.607 3.239-.515 6.8-1 10-1.47 9.706-2.528 15.924-3 26l-4 1c.015-.333-.017-.668 0-1 .546-10.612 2.142-24.54 4-35 .091-.515 1.627-3.188 2-5 1.507-.485 1.92.851 3 1"/><path fill="#08a4c9" d="M152 371c-.042.328.04.672 0 1-.157 1.629-6.123 3.943-6.5 4-4.546.688-16.258 1.736-21 2-1.677.093-9.307.317-10 0-1.967-.9 2.161-4.627-1.5-4 .293-1.561.819-2.111 1-3 11.422 1.58 26.191-1.172 38 0"/><path fill="#12aed0" d="M910 418c-11.41-1.61-25.215 2.53-37 1-.073-16.421-1.2-31.737-3-48l37 .5z"/><path fill="#11b2d4" d="M148 419h-37c-.299-11.352 2.505-23.55 1-35 .485-3.2.393-6.761 1-10 3.661-.627-.467 3.1 1.5 4 .693.317 8.323.093 10 0 4.742-.264 16.454-1.312 21-2 .377-.057 6.343-2.371 6.5-4-1.702 13.896-3.943 33.304-4 47"/><path fill="#14bbdd" d="M521 393c3.881 8.55 23.224 54.339 28.5 57 19.026 3.166 38.332 4.997 57.5 7 5.26.55 10.696.984 16 1 4.179 1.185 17.007 2.095 17 4.5l-69 60 21 85c1.241 7.616-15.562-4.565-19-6.5-16.413-9.239-31.948-19.795-49-28-4.881-2.349-9.975-7.677-15.5-7l-74 44-2.5-1.5c2.848-10.055 6.599-20.373 9-30.5 4.192-17.68 7.925-35.567 11-53.5-10.649-11.624-23.059-21.321-35-31.5-7.554-6.44-15.097-12.986-23-19 .684-5.548-11.143-8.454-3.5-13l84-11c4.251-2.749 30.347-66.858 35.5-77 4.476 3.824 8.21 13.853 11 20m24.5 67c-15.263 3.186-21.731 40.386 3 38 25.031-2.415 23.755-43.584-3-38"/><path fill="#85939c" d="M939 374c2.849 11.48 3.375 23.228 4 35l-25 1c-.006-.112-.829.515-1-2-.705-10.376-2.198-22.766-4-33l25-2c.018.068.656-.386 1 1"/><path fill="#c4cfd6" d="M83 374c-2.745 11.109-3.19 23.587-4 35-.67 9.429-.038 20.554-1 29.5-.29 2.7 1.017 3.965-3 3.5-.781-15.83-.494-30.228 1-46a269 269 0 0 1 3-22z"/><path fill="#87949d" d="M109 375c-1.858 10.46-3.454 24.388-4 35l-26-1c.81-11.413 1.255-23.891 4-35 8.728 0 17.313.429 26 1"/><path fill="#ccd6da" d="M943 374c1.451 8.078 2.251 14.827 3 23 1.458 15.904 1.859 30.027 1 46-1.296.121-2.735-.188-4 0 1.562-11.396.604-22.611 0-34-.625-11.772-1.151-23.52-4-35z"/><path fill="#07253b" d="M727 466c.914 4.126 1.432 7.827 2 12l-6 3.5 2 80.5c-21.121 86.634-102.015 154.523-190.5 163C380.533 739.75 258.496 602.471 297 451c.333-.874 3.574-2.976 2-7 6.56-21.818 23.079-50.915 37-69l15 7.5C244.522 521.954 347.939 720.925 524.5 711c92.771-5.215 180.258-82.085 191.5-175.5 1.052-8.745-1.077-45.855 0-48 .859-1.711 7.021-1.301 7-2-1.857-1.302-5.335.32-7-1-.968-.767-4.637-22.192-1.5-23.5 4.833-2.016 7.181 5.789 12.5 5"/><path fill="#1b658f" d="M167 379c-.122.027.583 2.498-1.5 2-.95-.588-.358-2.086-.5-3z"/><path fill="#2986a9" d="M185 382c.667 28.821 3.941 56.559 8 85-4.447 1.718-10.395-.981-12 4-2.428-.358-4.447-.792-7-1 .231-2.3-5.694-2.82-8-3-.37-4.888-4.067-33.333-3-35.5 1.039-2.111 6.98-1.909 9-3-.02-.633-8.231-.578-9-2-2.007-3.713 1.129-36.917 2-43.5 6.223-1.026 13.656-.911 20-1"/><path fill="#56bbd8" d="M858 467c-4.46.504-10.656-.334-14 2-3.03-.038-8.163-.95-9.5 2l6.5.5-12 .5c4.935-30.816 8.21-57.606 9-89 3.366-1.714 19.763-1.354 21 1.5.835 1.927 2.21 40.283 1 42-.902 1.281-4.636-.261-6 1 .314 3.063 4.612.106 6 3 2.031 4.236-1.918 30.081-2 36.5"/><path fill="#56b9d8" d="M165 383c-.871 6.583-4.007 39.787-2 43.5.769 1.422 8.98 1.367 9 2-2.02 1.091-7.961.889-9 3-1.067 2.167 2.63 30.612 3 35.5-3.401-.266-6.743-.076-10 1-2.434-29.193-3.837-52.5-1-82 3.523-1.188 6.216-2.376 10-3"/><path fill="#48cce8" d="M111 419c.05 1.911.963 2.174 1 3h-4c-.012-4.161.815-8.059 1-12 .472-10.076 1.53-16.294 3-26 1.505 11.45-1.299 23.648-1 35"/><path fill="#a2adb5" d="M72 390c-.217 1.949.172 4.04 0 6-.22 2.519-.87 4.989-1 7l-23 1c.289-4.451 1.394-9.511 2-14z"/><path fill="#206d9b" d="m640 449-82.5-9c-2.49-1.773-3.007-4.599-4.5-7-5.388-8.661-11.218-24.936-16-35 14.342-4.238 31.617 1.473 44-8 24.47 20.627 40.352 31.284 59 59"/><path fill="#a2aeb6" d="M972 390c.476 3.762.738 7.209 1 11 .058.84.917 1.107 1 3l-23-1c-.121-2.062-.96-4.47-1-5-.174-2.295.23-4.718 0-7z"/><path fill="#eefcfe" d="M554 447c14.332 3.944 36.922 4.159 53 7v3c-19.168-2.003-38.474-3.834-57.5-7-5.276-2.661-24.619-48.45-28.5-57 4.331 3.469 8.344 10.651 11 15.5 4.655 8.499 11.898 30.442 16 36 2.519 3.413 3.446 1.797 6 2.5"/><path fill="#19232b" d="M48 409c-.181 10.053-1.424 17.459 4 26.5 2.129 3.549 16.893 17.934 20 14 .625-2.221-1.05-3.631-1-5.5.252-9.556-1.31-19.709-1-29 .126-3.78.749-8.098 1-12 .13-2.011.78-4.481 1-7h4c-1.494 15.772-1.781 30.17-1 46 .758 15.36 2.279 30.586 6 45.5l33.5 4.5c.21-.117-.388-3.082-.5-4-1.657-13.582-6.622-26.552-8-42-1.038-11.628-1.51-23.328-1-35l4-1c-.185 3.941-1.012 7.839-1 12 .038 13.161 5.176 66.671 13 75.5 3.986 4.498 26.536 2.33 34 3.5.111.816.76 1.305 1 3-5.603-1.081-33.505.487-36.5-1-1.444-.717-.172-6.002-7-8-6.452-1.888-26.808-.621-32-3-6.476-2.968-5.362-31.701-8.5-36.5-.754-1.154-9.349-4.606-11.5-6.5-18.43-16.227-16.697-30.811-14.5-54 3.728.571-1.216 9.973 2 14"/><path fill="#1b232b" d="M867 504c.418-2.971.892-2.179 1-3 5.341-.694 30.277.23 33-2.5 7.945-7.965 13.042-65.651 13-78.5-.001-.333.004-.667 0-1-.037-3.309.162-6.7 0-10l3-1c.171 2.515.994 1.888 1 2 .589 10.384-.012 25.547-1 36-1.454 15.374-5.555 30.51-9 45.5 4.503.044 31.223-1.506 33-3 2.664-2.239 5.683-39.615 6-45.5.859-15.973.458-30.096-1-46l4 1c.04.53.879 2.938 1 5 .232 3.96-.127 8.028 0 12 .307 9.615-.012 19.373 0 29 .002 1.381-1.191 7.718-.5 8 22.407-11.653 24.549-24.172 23.5-48-.083-1.893-.942-2.16-1-3 3.876.616.479-4.406 3-6 1.763 18.062 3.974 37.205-10.5 51-2.935 2.797-15.013 8.732-15.5 9.5-2.553 4.026-3.027 34.006-7.5 36.5-9.314 2.514-25.636.747-34 3-4.646 1.252-4.043 7.195-6 8-4.481 1.844-28.944-.285-35.5 1"/><path fill="#747f88" d="M71 403c-.251 3.902-.874 8.22-1 12l-19.5-1c.834 14.848 2.572 28.965 20.5 30-.05 1.869 1.625 3.279 1 5.5-3.107 3.934-17.871-10.451-20-14-5.424-9.041-4.181-16.447-4-26.5.03-1.673-.075-3.851 0-5z"/><path fill="#758189" d="M974 404c1.049 23.828-1.093 36.347-23.5 48-.691-.282.502-6.619.5-8 17.825-.846 18.909-13.971 21-28.5l-21-.5c-.127-3.972.232-8.04 0-12z"/><path fill="#61707a" d="M105 410c-.017.332.015.667 0 1-.51 11.672-.038 23.372 1 35l-27-2.5c-.447 6.165 1.218 40.18 5.5 42.5 3.688 1.998 24.137 1.428 29.5 2 .112.918.71 3.883.5 4L81 487.5c-3.721-14.914-5.242-30.14-6-45.5 4.017.465 2.71-.8 3-3.5.962-8.946.33-20.071 1-29.5z"/><path fill="#616f79" d="M943 409c.604 11.389 1.562 22.604 0 34-8.618 1.28-17.294 2.421-26 3 .988-10.453 1.589-25.616 1-36z"/><path fill="#49555e" d="M70 415c-.31 9.291 1.252 19.444 1 29-17.928-1.035-19.666-15.152-20.5-30zm881 29c-.012-9.627.307-19.385 0-29l21 .5c-2.091 14.529-3.175 27.654-21 28.5"/><path fill="#0882a0" d="M148 419c-.066 15.889 2.501 35.868 4 52l-34-4c-4.054-14.813-5.32-29.716-6-45-.037-.826-.95-1.089-1-3z"/><path fill="#0883a0" d="M910 418c.204.029 2.037 1.951 4 1 .004.333-.001.667 0 1-6.626 1.559-3.955 18.521-5 25.5-1.165 7.779-3.887 15.026-6 22.5l-33 3c1.528-18.222 3.083-33.416 3-52 11.785 1.53 25.59-2.61 37-1"/><path fill="#08a7c9" d="M914 420c.042 12.849-5.055 70.535-13 78.5-2.723 2.73-27.659 1.806-33 2.5.159-1.206-.25-5.87 0-8 4.047-1.528 23.696.534 25.5 0 3.627-1.073 8.351-20.936 9.5-25 2.113-7.474 4.835-14.721 6-22.5 1.045-6.979-1.626-23.941 5-25.5"/><path fill="#06a6c9" d="M112 422c.68 15.284 1.946 30.187 6 45 .989 3.615 8.044 24.061 10.5 25 3.479 1.331 19.625.043 24.5 1 .055.447 1.52 4.479 2 8-7.464-1.17-30.014.998-34-3.5-7.824-8.829-12.962-62.339-13-75.5z"/><path fill="#50d2e9" d="M553 433c1.493 2.401 2.01 5.227 4.5 7l82.5 9c3.113 4.626 6.26 9.123 9 14-3.573.697-6.451 4.965-9 7-7.861 6.277-15.313 12.54-23 19-13.832 11.624-28.411 22.43-41 35.5.053 6.038 2.899 11.783 4 17.5 2.793 14.509 16.226 57.03 16 67-.11 4.83-1.282 4.353-4 8-6.188-4.673-13.361-8.897-20-13l1-3c3.438 1.935 20.241 14.116 19 6.5l-21-85 69-60c.007-2.405-12.821-3.315-17-4.5-.161-.046.146-2.599-1.5-3-4.173-1.016-10.341-.265-14.5-1-16.078-2.841-38.668-3.056-53-7 .099-5.415-8.966-12.688-1-14"/><path fill="#42545f" d="M106 446c1.378 15.448 6.343 28.418 8 42-5.363-.572-25.812-.002-29.5-2-4.282-2.32-5.947-36.335-5.5-42.5z"/><path fill="#445661" d="M943 443c1.265-.188 2.704.121 4 0-.317 5.885-3.336 43.261-6 45.5-1.777 1.494-28.497 3.044-33 3 3.445-14.99 7.546-30.126 9-45.5 8.706-.579 17.382-1.72 26-3"/><path fill="#c8f3fa" d="M297 451c.653-2.569 1.253-4.514 2-7 1.574 4.024-1.667 6.126-2 7"/><path fill="#11b7d8" d="M437 445v3c-13.935 1.839-50.218 2.607-60.5 6-1.548.511-4.82 2.801-4.5 5 12.777 13.702 28.173 24.412 42 37 6.845 6.232 25.903 22.573 30 29l-18 82.5 1.5 7.5c2.588 1.224 12.271-7.849 12.5-1-8.015 5.102-16.403 13.37-26 15 6.05-32.728 18.84-66.486 25-99.5l-81-76c26.272-3.311 52.794-4.716 79-8.5"/><path fill="#c8f3fa" d="M725 562c6.661-27.322 7.779-56.255 4-84-.568-4.173-1.086-7.874-2-12-.203-.918.121-2.044 0-3 11.007 43.68 8.69 89.178-9 133-72.003 178.364-327.997 181.748-410 8-10.836-22.96-17.94-46.563-20-72-2.002-24.712.114-57.671 9-81-38.504 151.471 83.533 288.75 237.5 274 88.485-8.477 169.379-76.366 190.5-163"/><path fill="#a0effa" d="M623 458c-5.304-.016-10.74-.45-16-1v-3c4.159.735 10.327-.016 14.5 1 1.646.401 1.339 2.954 1.5 3"/><path fill="#cef9fe" d="M394 474c7.903 6.014 15.446 12.56 23 19-.233 1.869-2.242-.869-3.5 0-1.322.914 2.855 2.415.5 3-13.827-12.588-29.223-23.298-42-37 7.77 4.363 14.927 9.617 22 15"/><path fill="#feffff" d="M545.5 460c26.755-5.584 28.031 35.585 3 38-24.731 2.386-18.263-34.814-3-38"/><path fill="#206d9b" d="M649 463c9.901 17.623 16.855 35.178 21 55-22.546 26.292-34.125 64.178-72 74-3.494-14.196-6.593-28.541-11-42.5 21.134-7.015 37.31-25.921 35-49-.131-1.306-2.787-4.852-3-5.5-.099-.3.094-.696 0-1 5.456-5.03 27.475-16.737 21-24 2.549-2.035 5.427-6.303 9-7"/><path fill="#016482" d="M152 471c.627 6.743.263 16.012 1 22-4.875-.957-21.021.331-24.5-1-2.456-.939-9.511-21.385-10.5-25z"/><path fill="#0d6b94" d="M166 467c2.306.18 8.231.7 8 3-2.597-.211-5.382 0-8 0h-10c-.165-1.799.008-1.9 0-2 3.257-1.076 6.599-1.266 10-1"/><path fill="#41a9c6" d="M193 467c.379 2.654.673 3.859 1 6-4.712 1.44-8.987-1.409-13-2 1.605-4.981 7.553-2.282 12-4"/><path fill="#1185a7" d="M858 467c1.813-.205 1.293.804 4 0v3c-2.697-.886-1.986.145-4 0-4.365-.313-9.742-.947-14-1 3.344-2.334 9.54-1.496 14-2"/><path fill="#016483" d="M903 468c-1.149 4.064-5.873 23.927-9.5 25-1.804.534-21.453-1.528-25.5 0 .865-7.384 1.379-14.595 2-22z"/><path fill="#4aaac7" d="M844 469c4.258.053 9.635.687 14 1-2.393 22.93-7.013 45.497-12 68l-30-2c5.374-21.738 9.454-41.859 13-64l12-.5-6.5-.5c1.337-2.95 6.47-2.038 9.5-2"/><path fill="#8dd6ee" d="M862 470c1.025.337 3.346-.596 4 .5C848.601 636.369 765.257 803.547 628 901c.433-.347 2.655-5.886 4-7 100.404-83.149 183.939-224.823 213-352 .301-1.316.692-2.612 1-4 4.987-22.503 9.607-45.07 12-68 2.014.145 1.303-.886 4 0"/><path fill="#4eaecd" d="m166 470 4 33.5-11-.5c-1.589-10.73-2.001-22.139-3-33z"/><path fill="#1e7598" d="M174 470c2.553.208 4.572.642 7 1 4.013.591 8.288 3.44 13 2 3.108 20.347 6.236 40.99 11 61l-27.5 2c-6.655-11.299.747-35.672-18.5-31-.097-.636.094-1.363 0-2l11 .5-4-33.5c2.618 0 5.403-.211 8 0"/><path fill="#0d83ab" d="M619 494c-.517-1.663 1.03-4.232-2-5 7.687-6.46 15.139-12.723 23-19 6.475 7.263-15.544 18.97-21 24"/><path fill="#0f3e64" d="m725 562-2-80.5 6-3.5c3.779 27.745 2.661 56.678-4 84"/><path fill="#536871" d="m604 733 1 7c-25.294 9.552-51.739 16.725-79 18-7.286.341-42.558-3.091-44.5-2-2.114 1.188.101 11.392-5.5 12-108.919-13.502-202.474-96.35-216-207.5-4.774-39.228 1.686-45.404 11-79.5-3.254 44.283-.482 85.433 17 126.5C339.067 727.462 484.191 782.27 604 733"/><path fill="#1c9fc4" d="M619 494c.094.304-.099.7 0 1-4.276 5.513-34.9 27.814-36 31.5-1.447 4.849 1.888 11.153 2 16l-5-.5c-1.101-5.717-3.947-11.462-4-17.5 12.589-13.07 27.168-23.876 41-35.5 3.03.768 1.483 3.337 2 5"/><path fill="#5fe2f6" d="M417 493c11.941 10.179 24.351 19.876 35 31.5-3.075 17.933-6.808 35.82-11 53.5-3.197.084-2.195-7.933-2-9.5 1.637-13.124 8.267-28.17 8-42-.574-1.585-2.91-1.359-3-1.5-4.097-6.427-23.155-22.768-30-29 2.355-.585-1.822-2.086-.5-3 1.258-.869 3.267 1.869 3.5 0"/><path fill="#2787b1" d="M598 592c1.388 5.641 2.614 11.378 4 17h-6c.226-9.97-13.207-52.491-16-67l5 .5c-.112-4.847-3.447-11.151-2-16 1.1-3.686 31.724-25.987 36-31.5.213.648 2.869 4.194 3 5.5 2.31 23.079-13.866 41.985-35 49 4.407 13.959 7.506 28.304 11 42.5"/><path fill="#45a0c1" d="M205 534c.412 1.73.606 3.401 1 5l-26.5 1c-1.623 1.115-1.407 1.799-1.5 3.5-.411 7.497 18.93 62.276 23 73 30.322 79.904 109.677 218.663 178.5 269.5 12.502 9.235 16.927 9.849 6.5-5 16.848 15.01 33.301 34.643 53 46-4.135-.191-10.861-3.95-14.5-6C280.884 840.108 183.422 665.025 159 505c19.247-4.672 11.845 19.701 18.5 31z"/><path fill="#34d3ec" d="M441 578c-2.401 10.127-6.152 20.445-9 30.5l2.5 1.5 74-44c5.525-.677 10.619 4.651 15.5 7-2.561 1.052 1.891 4.564 2.5 5 9.736 6.972 23.823 13.674 34.5 20 .05 3.603.003 3.918-3.5 3-9.741-2.553-41.074-27.899-50-27-4.562.459-59.189 34.71-67.5 40-.229-6.849-9.912 2.224-12.5 1l-1.5-7.5 18-82.5c.09.141 2.426-.085 3 1.5.267 13.83-6.363 28.876-8 42-.195 1.567-1.197 9.584 2 9.5"/><path fill="#75a0ae" d="M288 532c2.06 25.437 9.164 49.04 20 72l-15 5c-10.25-22.875-17.991-50.946-20-76z"/><path fill="#1385ac" d="M846 538c-.308 1.388-.699 2.684-1 4h-30c.454-1.77.56-4.221 1-6z"/><path fill="#1b688b" d="M206 539c14.154 57.477 40.074 123.311 67 176h-9.5c-5.244 1.943 10.367 14.189 13.5 8 19.374 36.84 46.093 79.671 71 113-7.76-1.126 3.257 11.628 5 7 9.568 12.598 23.916 25.063 33 38 10.427 14.849 6.002 14.235-6.5 5-68.823-50.837-148.178-189.596-178.5-269.5-4.07-10.724-23.411-65.503-23-73 .093-1.701-.123-2.385 1.5-3.5z"/><path fill="#3a95b5" d="M845 542c-29.061 127.177-112.596 268.851-213 352l-3-5c35.5-35.471 70.366-85.338 96-129 1.82 4.384 5.638-1.816 0-1 38.623-66.094 70.952-142.686 90-217zm-83.5 172-1 8 4.5-6.5z"/><path fill="#e3fcfe" d="m573 601-1 3c-3.549-2.193-7.44-3.891-11-6-10.677-6.326-24.764-13.028-34.5-20-.609-.436-5.061-3.948-2.5-5 17.052 8.205 32.587 18.761 49 28"/><path fill="#0b96bc" d="M561 598c3.56 2.109 7.451 3.807 11 6 6.639 4.103 13.812 8.327 20 13 2.159 1.63 6.857 1.566 8 7.5 1.057 5.49-4.211-3.511-6 3.5-23.463-12.746-46.326-26.614-70-39-2.015-1.054-10.946-7.997-12.5-8-2.18.427-4.706 3.235-6.5 4-30.617 13.046-61.292 36.159-91.5 51-1.159-.751.245-5.622.5-7 9.597-1.63 17.985-9.898 26-15 8.311-5.29 62.938-39.541 67.5-40 8.926-.899 40.259 24.447 50 27 3.503.918 3.55.603 3.5-3"/><path fill="#206d9b" d="M524 589c-3.19 6.18-17.53 2.113-19-4 1.794-.765 4.32-3.573 6.5-4 1.554.003 10.485 6.946 12.5 8"/><path fill="#6b858f" d="M747 609c-2.457 2.143-13.544 5.857-16 8 3.516-11.728 7.804-23.158 11-35 3.433 7.651 6.498 18.687 5 27"/><path fill="#59818e" d="M727 611c-80.12 182.209-352.518 179.849-434-2l15-5c82.003 173.748 337.997 170.364 410-8 4.557 5.073-.589 17.038 9 15"/><path fill="#7a8a93" d="M526 769v-11c27.261-1.275 53.706-8.448 79-18 19.444-7.343 36.135-15.558 53.5-27l-4.5-8c17.372-12.419 37.648-30.784 51-47.5 6.98-8.738 20.904-36.053 26-40.5 2.456-2.143 13.543-5.857 16-8 .223-.195 1.578.423 2-.5l1.5-6.5c1.789-.395.628 3.922.5 4.5-20.592 92.797-136.932 156.164-225 162.5"/><path fill="#1d719e" d="M602 609c2.167 8.789 5.819 17.649 8 26.5-1.017 2.091-14.411-6.637-16-7.5 1.789-7.011 7.057 1.99 6-3.5-1.143-5.934-5.841-5.87-8-7.5 2.718-3.647 3.89-3.17 4-8z"/><path fill="#687b84" d="m605 740-1-7c17.728-7.291 34.438-16.875 50-28l4.5 8c-17.365 11.442-34.056 19.657-53.5 27"/><path fill="#1b7ba2" d="m761.5 714 3.5 1.5-4.5 6.5z"/><path fill="#3089aa" d="M273 715c1.339 2.62 2.649 5.431 4 8-3.133 6.189-18.744-6.057-13.5-8z"/><path fill="#687b84" d="M526 758v11c-14.322 1.03-28.685 1.261-43 0-2.168-.191-4.704-.715-7-1 5.601-.608 3.386-10.812 5.5-12 1.942-1.091 37.214 2.341 44.5 2"/><path fill="#94cfe5" d="M725 760c.146-.248-.145-.752 0-1 5.638-.816 1.82 5.384 0 1"/><path fill="#08253a" d="m428.5 791 52 7c12.539-4.918 25.328-8.632 39-7 6.184.738 14.794 6.545 18 7 4.02.57 29.711-2.381 36-3 12.052-1.186 25.835-11.74 24.5 10.5-1.658 27.625-26.291 83.189-49.5 99.5-64.452 45.298-119.174-38.892-124.5-95.5-.609-6.473-.799-13.926 4.5-18.5m38.5 22c3.237-4.745 6.651-7.924 10.5-12-9.531-.68-19.015-1.991-28.5-3-4.359-.464-7.932-1.533-12-2-11.603-1.331-11.883 1.243-11 13.5 2.24 31.102 30.289 89.031 61.5 100.5 63.272 23.25 101.837-49.942 107.5-102 1.307-12.016.315-12.892-11-12-13.239 1.044-28.035 6.134-41.5 4 4.617 4.748 8.622 8.506 12.5 14-22.674-27.001-64.633-27.21-88-1"/><path fill="#0693b8" d="M555 814c2.864 4.056 9.988 12.991 7.5 18-4.873-7.119-12.793-14.145-21.5-16-20.706-17.07-47.915-10.609-67 5-8.887 7.268-15.139 15.197-20 25.5.761-11.911 6.375-23.79 13-33.5 23.367-26.21 65.326-26.001 88 1"/><path fill="#0a608d" d="m437 796-8 11.5c7.396 1.533 9.442-2.236 13 5.5 5.973 9.627 19.221-5.1 8-10l-1-5c9.485 1.009 18.969 2.32 28.5 3-3.849 4.076-7.263 7.255-10.5 12-6.625 9.71-12.239 21.589-13 33.5 4.861-10.303 11.113-18.232 20-25.5.185 4.915-5.547 9.981-7 14.5-14.776 45.964 36.548 81.37 73.5 52.5 22.352-17.463 22.164-54.14.5-72 8.707 1.855 16.627 8.881 21.5 16 2.488-5.009-4.636-13.944-7.5-18-3.878-5.494-7.883-9.252-12.5-14 13.465 2.134 28.261-2.956 41.5-4 .992 5.778 5.774 10.933 11 12-5.663 52.058-44.228 125.25-107.5 102-31.211-11.469-59.26-69.398-61.5-100.5-.883-12.257-.603-14.831 11-13.5m133.5 7c-6.857 2.346-2.295 16.101 6 12 6.856-3.39 3.048-15.096-6-12"/><path fill="#095b84" d="M595 808c-5.226-1.067-10.008-6.222-11-12 11.315-.892 12.307-.016 11 12"/><path fill="#09547d" d="m449 798 1 5c-6.38-2.786-11.078 5.039-8 10-3.558-7.736-5.604-3.967-13-5.5l8-11.5c4.068.467 7.641 1.536 12 2"/><path fill="#011a2a" d="M450 803c11.221 4.9-2.027 19.627-8 10-3.078-4.961 1.62-12.786 8-10m-3.5 2c-6.098 1.289-2.166 9.563 3 8 4.117-1.246 3.129-9.296-3-8"/><path fill="#021828" d="M570.5 803c9.048-3.096 12.856 8.61 6 12-8.295 4.101-12.857-9.654-6-12m2 2c-4.088.843-3.855 7.075-1 8 6.414 2.078 8.98-9.645 1-8"/><path fill="#096086" d="M446.5 805c6.129-1.296 7.117 6.754 3 8-5.166 1.563-9.098-6.711-3-8"/><path fill="#096087" d="M572.5 805c7.98-1.645 5.414 10.078-1 8-2.855-.925-3.088-7.157 1-8"/><path fill="#0d2130" d="M541 816c21.664 17.86 21.852 54.537-.5 72-36.952 28.87-88.276-6.536-73.5-52.5 1.453-4.519 7.185-9.585 7-14.5 19.085-15.609 46.294-22.07 67-5m-67 15c-18.865 35.399 12.032 72.168 49.5 62 22.829-6.195 38.996-36.14 25.5-57-11.028-33.427-58.408-36.135-75-5"/><path fill="#e5f2f6" d="M549 836c-5.921-9.152-18.985-19.492-30.5-19l1-5c-25.972-.477-25.59 2.81-41.5 18.5-1.134 1.118-2.928 2.855-4 .5 16.592-31.135 63.972-28.427 75 5"/><path fill="#bddeea" d="M549 836c13.496 20.86-2.671 50.805-25.5 57-37.468 10.168-68.365-26.601-49.5-62 1.072 2.355 2.866.618 4-.5 15.91-15.69 15.528-18.977 41.5-18.5l-1 5c11.515-.492 24.579 9.848 30.5 19m-44.5-11c-32.574 5.08-29.339 61.752 11 57 34.65-4.082 31.86-63.684-11-57"/><path fill="#0c2942" d="M504.5 825c42.86-6.684 45.65 52.918 11 57-40.339 4.752-43.574-51.92-11-57m0 3c-9.084 1.637-21.712 16.267-18 26 5.649-13.987 23.656-18.083 37-13 6.377 2.429 8.449 8.112 13.5 11.5-2.579-16.58-15.431-27.576-32.5-24.5M489 860c-1.22 23.212 40 23.547 44 4 .254-1.24.236-5.715 0-7-3.625-19.73-42.804-19.756-44 3"/><path fill="#a1d0e1" d="M504.5 828c17.069-3.076 29.921 7.92 32.5 24.5-5.051-3.388-7.123-9.071-13.5-11.5-13.344-5.083-31.351-.987-37 13-3.712-9.733 8.916-24.363 18-26"/><path fill="#338fae" d="M348 836c1.68 2.248 3.341 4.816 5 7-1.743 4.628-12.76-8.126-5-7"/><path fill="#4ea6c1" d="M533 857c-7.401 6.112-6.854-5.324-13.5-7-5.429-1.369-18.769.429-21.5 6.5-2.873 6.386 2.988 7.87 0 11.5-4.8-3.096-4.35-9.336-9-8 1.196-22.756 40.375-22.73 44-3"/><path fill="#167ea6" d="M533 857c.236 1.285.254 5.76 0 7-9.45 6.968-24.592 10.714-35 4 2.988-3.63-2.873-5.114 0-11.5 2.731-6.071 16.071-7.869 21.5-6.5 6.646 1.676 6.099 13.112 13.5 7"/><path fill="#115f81" d="M498 868c10.408 6.714 25.55 2.968 35-4-4 19.547-45.22 19.212-44-4 4.65-1.336 4.2 4.904 9 8"/><path fill="#57afcd" d="M632 894c-1.345 1.114-3.567 6.653-4 7-12.821 10.271-26.272 17.347-41 24 14.249-11.403 29.094-23.104 42-36z"/><path fill="#21353f" d="M564 936c.913 3.506-6.632 1.856-3 6-52.066 19.523-69.355 14.589-119-8 5.194 1.911 8.448-3.639 5-5 41.368 25.864 73.02 29.971 117 7"/></svg>