<svg xmlns="http://www.w3.org/2000/svg" width="1024" height="1024"><defs><linearGradient id="a" x1="755.21" x2="278.092" y1="336.862" y2="707.233" gradientUnits="userSpaceOnUse"><stop offset="0%" style="stop-color:#f0f8fa"/><stop offset="24.669%" style="stop-color:#c7e1e9"/><stop offset="38.08%" style="stop-color:#aeccdb"/><stop offset="86.424%" style="stop-color:#587c8f"/></linearGradient></defs><defs><linearGradient id="b" x1="646.936" x2="400.167" y1="272.624" y2="505.059" gradientUnits="userSpaceOnUse"><stop offset="0%" style="stop-color:#f7fafb"/><stop offset="33.628%" style="stop-color:#bcd5de"/><stop offset="100%" style="stop-color:#94b9cb"/></linearGradient></defs><defs><linearGradient id="c" x1="392.787" x2="638.553" y1="363.493" y2="602.759" gradientUnits="userSpaceOnUse"><stop offset="0%" style="stop-color:#003960"/><stop offset="68.805%" style="stop-color:#0089b4"/><stop offset="100%" style="stop-color:#01446a"/></linearGradient></defs><defs><linearGradient id="d" x1="671.273" x2="583.601" y1="413.132" y2="472.711" gradientUnits="userSpaceOnUse"><stop offset="0%" style="stop-color:#1f6790"/><stop offset="100%" style="stop-color:#0788b1"/></linearGradient></defs><defs><linearGradient id="e" x1="385.25" x2="440.386" y1="359.734" y2="452.599" gradientUnits="userSpaceOnUse"><stop offset="0%" style="stop-color:#104f79"/><stop offset="100%" style="stop-color:#0276a1"/></linearGradient></defs><defs><linearGradient id="f" x1="466.587" x2="483.52" y1="335.93" y2="406.939" gradientUnits="userSpaceOnUse"><stop offset="0%" style="stop-color:#256991"/><stop offset="100%" style="stop-color:#197ea7"/></linearGradient></defs><defs><linearGradient id="g" x1="459.052" x2="569.64" y1="352.87" y2="380.553" gradientUnits="userSpaceOnUse"><stop offset="0%" style="stop-color:#2995bb"/><stop offset="100%" style="stop-color:#68c3de"/></linearGradient></defs><defs><linearGradient id="h" x1="611.993" x2="651.26" y1="356.366" y2="435.12" gradientUnits="userSpaceOnUse"><stop offset="0%" style="stop-color:#aae3f2"/><stop offset="100%" style="stop-color:#6ccce6"/></linearGradient></defs><defs><linearGradient id="i" x1="480.476" x2="535.935" y1="481.694" y2="547.423" gradientUnits="userSpaceOnUse"><stop offset="0%" style="stop-color:#4bd9e6"/><stop offset="100%" style="stop-color:#24c1de"/></linearGradient></defs><defs><linearGradient id="j" x1="530.568" x2="715.158" y1="610.605" y2="622.908" gradientUnits="userSpaceOnUse"><stop offset="0%" style="stop-color:#0f8db2"/><stop offset="100%" style="stop-color:#154f79"/></linearGradient></defs><path fill="#c6dae1" d="M270 243c-1.731.359-1.664 1.966-3 3-1.585 1.226-2.615 1.337-4 2-4.546 2.177-7.464 6.028-5-2 2.681-2.681 7.647-10.95 9-14.5.276-.725 1.583-4.283-1-3.5 1.682-2.649 8.634-17.955 9-20.5.863-6.001-1.97-23.178-9-25.5-1.221-.403-2.709-.817-4-1-1.511-23.112-21.129-23.112-38-22-3.057.201-6.969-.87-11.5 0-8.099 1.556-16.029 5.852-24 8l9.5-9c45.019-22.429 95.208 16.517 82 64.5-1.712 6.219-11.288 16.75-10 20.5"/><path fill="#e9f3f5" d="M853 172c-5.87 10.051-12.52-8.667-21.5-9l-1 2c28.338 22.015-9.708 53.73-28.5 28.5-12.826-17.221 1.414-30.822 19-32-5.512-.505-10.998-.852-16.5-1.5-.944-.111-.054-2.874-1-3-4.744-.632-19.308 5.293-24 8l6.5-11c27.432-8.331 48.856-3.719 67 18"/><path fill="#aec7d3" d="M853 172c19.427 23.255 19.709 48.286 0 72l-5-3c1.118-1.283 10.268-13.125 6-14 6.68-11.776 6.355-23.277 2.5-36-4.158 5.945-3.921 14.055-7.5 20.5-17.811 32.071-65.096 15.145-73-16-.932-3.672-1.298-21.636-3.5-22.5L755 184c5.377-13.917 16.289-25.532 31-30l-6.5 11c4.692-2.707 19.256-8.632 24-8 .946.126.056 2.889 1 3 5.502.648 10.988.995 16.5 1.5-17.586 1.178-31.826 14.779-19 32 18.792 25.23 56.838-6.485 28.5-28.5l1-2c8.98.333 15.63 19.051 21.5 9"/><path fill="#edf5f8" d="M262 181c1.334 20.401-23.03 24.015-37.5 16-15.296-8.472-12.946-28.074-.5-38 16.871-1.112 36.489-1.112 38 22"/><path fill="#b0d4de" d="m198 158-9.5 9c7.971-2.148 15.901-6.444 24-8 4.531-.87 8.443.201 11.5 0-12.446 9.926-14.796 29.528.5 38 14.47 8.015 38.834 4.401 37.5-16 1.291.183 2.779.597 4 1 1.297 33.579-31.06 57.49-60.5 36-15.807-11.539-26.768-32.94-19.5-52 3.964-3.544 7.237-5.627 12-8"/><path fill="#7ba6b8" d="M266 182c7.03 2.322 9.863 19.499 9 25.5-.366 2.545-7.318 17.851-9 20.5-6.563 10.338-24.913 22.368-36.5 26-5.019 1.573-10.497.233-15 1-.846.144-.398 1.983-.5 2-1.615.268-.643 1.767-1.5 2-.611.166-10.914-3.382-12-4-2.952-1.68-.089-3.541-1-4-2.342-1.181-2.83 2.06-3 2-10.34-3.647-21.352-19.79-28.5-28-6.934-22.688.596-43.437 18-59-7.268 19.06 3.693 40.461 19.5 52 29.44 21.49 61.797-2.421 60.5-36"/><path fill="#7796a5" d="M854 227c-13.176 23.228-40.993 29.11-65 25-2.491-.426-10.946-3.937-12-2.5l10 8-4 1.5c-1.952-1.015-3.493-3.074-6-3v-1c.07-3.828-10.839-7.716-12-9-.48-.531-3.345-4.147-4-5-12.675-16.505-13.252-38.232-6-57l17.5-11c2.202.864 2.568 18.828 3.5 22.5 7.904 31.145 55.189 48.071 73 16 3.579-6.445 3.342-14.555 7.5-20.5 3.855 12.723 4.18 24.224-2.5 36"/><path fill="#c0e1ea" d="M732 269c3.159 8.269 12.217 13.641 18 20 9.882 10.866 17.857 24.44 30 33-.204 2.278-.951 1.911 0 4.5 1.695 4.616 16.175 21.328 20 28 6.474 11.29 17.716 31.086 22 41.5.325.79.467 3.635 1 5 19.769 50.569 27.293 107.991 21 162 .278-4.871 1.17-38.847 0-40.5-.493-.696-14.861-1.655-17-1.5-3.555-193.955-153.376-337.297-350-311l-1-13c89.932-9.407 182.623 15.753 252.5 73l2 1c.828-.945.028-1.307 1.5-2"/><path fill="#8cb2c3" d="m476 197 1 13c-104.523 13.979-195.963 70.127-240 168-4.649-1.065-12.373-3.666-14-8 8.585-15.694 18.082-31.849 29-46 7.397-9.587 20.5-23.96 29-33 5.333-5.673 13.841-16.448 19-21 43.299-38.2 118.911-67.028 176-73"/><path fill="url(#a)" d="M827 521c2.263 123.443-56.812 229.379-169 283-25.55 12.212-53.036 21.302-81 26-193.825 32.564-354.668-90.922-368-287-3.81-56.042 4.955-113.782 28-165 44.037-97.873 135.477-154.021 240-168 196.624-26.297 346.445 117.045 350 311M466 239c-9.115 1.223-19.724 5.108-29 7-2.041.416-7.116-2.055-7.5-2-7.363 1.048-34.139 13.066-42 17-51.785 25.914-94.471 70.923-120.5 122-127.352 249.904 151.238 495.957 388 364 63.501-35.391 115.804-101.32 133-172.5 2.28-9.437 7.634-35.44 7-44-.114-1.534-2.872.933-3 0-.497-3.615 1.936-11.556-2-13.5.612-29.681-2.896-56.528-11-85-33.244-116.797-147.603-199.688-269-197-14.851.329-29.334 2.032-44 4" style="fill:url(#a)"/>/&gt;<path fill="#6691a3" d="M214 257c1.37 3.711 9.896 3.295 13 3-1.934 2.835 9.937 3.091 10.5 3 .426-.069 7.317-6.828 7.5-2-.13.056-1.867 1.951-2 2-.773.287-6.494 1.92-7 2-27.799 4.414-59.566-12.404-68-40 7.148 8.21 18.16 24.353 28.5 28 .17.06.658-3.181 3-2 .911.459-1.952 2.32 1 4 1.086.618 11.389 4.166 12 4 .857-.233-.115-1.732 1.5-2"/><path fill="#cbe3eb" d="M848 241c-13.145 15.08-31.644 21.03-51.5 17-2.037-.413-9.812-2.517-7.5-6 24.007 4.11 51.824-1.772 65-25 4.268.875-4.882 12.717-6 14"/><path fill="#c2e1e8" d="M258 246c-5.875 5.874-22.88 13.229-31 14-3.104.295-11.63.711-13-3 .102-.017-.346-1.856.5-2 4.503-.767 9.981.573 15-1 11.587-3.632 29.937-15.662 36.5-26 2.583-.783 1.276 2.775 1 3.5-1.353 3.55-6.319 11.819-9 14.5"/><path fill="#0b534a" d="M510 235c3.587 5.766-11.613.579-13 3-9.25.485-18.863 1.569-28 3l-3-2c14.666-1.968 29.149-3.671 44-4"/><path fill="#6fc6c2" d="M779 432c-1.441.03-1.119 1.938-1 3-15.623-51.511-46.412-96.476-86.5-132-52.458-46.486-124.586-68.668-194.5-65 1.387-2.421 16.587 2.766 13-3 121.397-2.688 235.756 80.203 269 197"/><path fill="url(#b)" d="M497 238c69.914-3.668 142.042 18.514 194.5 65 40.088 35.524 70.877 80.489 86.5 132 .857 7.677 3.653 16.193 5 24l-8 18.5c-10.077 12.457-22.607 25.626-27 41.5 3.048-70.554-25.454-138.281-78-185-10.783-9.587-21.664-17.498-34-25-101.537-61.747-231.242-36.768-304 56-11.98 15.275-22.094 31.139-30 49-2.862 6.466-8.038 17.691-10 24l-8-69c39.726-66.327 107.27-115.827 185-128 9.137-1.431 18.75-2.515 28-3" style="fill:url(#b)"/>/&gt;<path fill="#021b15" d="M469 241c-77.73 12.173-145.274 61.673-185 128-16.407 27.393-26.002 48.521-33 80-7.979 35.892-9.03 64.613-4 101 25.082 181.433 239.454 278.252 398 193l2 2C412.726 868.072 147.841 627.579 270 386c33.877-66.994 95.287-118.195 167-140 9.276-1.892 19.885-5.777 29-7z"/><path fill="#10485b" d="m765 246-26 26.5c1.21 4.587 6.14 5.364 9 7.5.763.569 3.32 3.561 4 4l-2 5c-5.783-6.359-14.841-11.731-18-20 4.809-2.263 17.295-12.935 21.5-17 2.139-2.067 7.986-7.688 7.5-11 .655.853 3.52 4.469 4 5"/><path fill="#8eaebf" d="M853 244c-13.716 16.504-35.152 24.837-57 21-.375-.066-4.984-2.323-7-3-1.562-.524-4.34-2.137-6-3l4-1.5-10-8c1.054-1.437 9.509 2.074 12 2.5-2.312 3.483 5.463 5.587 7.5 6 19.856 4.03 38.355-1.92 51.5-17z"/><path fill="#114353" d="M300 270c-5.159 4.552-13.667 15.327-19 21l-4-4c.124-.068 1.835-1.897 2-2 1.393-.869 2.725-1.977 4-3 2.025-1.624 10.257-7.024 10-9.5L267 246c1.336-1.034 1.269-2.641 3-3 2.181 6.35 24.143 22.019 30 27"/><path fill="#d3e6ec" d="M437 246c-71.713 21.805-133.123 73.006-167 140l-3-3c26.029-51.077 68.715-96.086 120.5-122 7.861-3.934 34.637-15.952 42-17 .384-.055 5.459 2.416 7.5 2"/><path fill="#84acbe" d="M263 248c-1.215 1.35-3.866 5.182-5 6-2.104 1.517-1.882 1.922-2 2-.58.381-1.521-1.645-2.5-1-2.935 1.933-5.151 4.544-8.5 6-.183-4.828-7.074 1.931-7.5 2-.563.091-12.434-.165-10.5-3 8.12-.771 25.125-8.126 31-14-2.464 8.028.454 4.177 5 2"/><path fill="#bde6f0" d="m283 282-25-28c1.134-.818 3.785-4.65 5-6 1.385-.663 2.415-.774 4-2l26 26.5c.257 2.476-7.975 7.876-10 9.5"/><path fill="#c1eaf2" d="M777 255c-1.654-1.024-3.076-1.576-5-.5-4.977 2.783-17.883 21.221-24 25.5-2.86-2.136-7.79-2.913-9-7.5l26-26.5c1.161 1.284 12.07 5.172 12 9"/><path fill="#6ed3ed" d="m258 254 25 28c-1.275 1.023-2.607 2.131-4 3l-23-29c.118-.078-.104-.483 2-2"/><path fill="#78d7ee" d="M777 255v1l-24 28c-.244-.148-.766.151-1 0-.68-.439-3.237-3.431-4-4 6.117-4.279 19.023-22.717 24-25.5 1.924-1.076 3.346-.524 5 .5"/><path fill="#41728d" d="m256 256 23 29c-.165.103-1.876 1.932-2 2-25.796 14.009-27.324-2.392-34-24 .133-.049 1.87-1.944 2-2 3.349-1.456 5.565-4.067 8.5-6 .979-.645 1.92 1.381 2.5 1"/><path fill="#497b95" d="M783 259c1.66.863 4.438 2.476 6 3-3.897 3.369-12.013 30.196-13.5 31-3.833 2.072-18.618-6.644-22.5-9l24-28c2.507-.074 4.048 1.985 6 3"/><path fill="#062935" d="M796 265c-1.866 17.164-14.56 40.938-16 57-12.143-8.56-20.118-22.134-30-33l2-5c.234.151.756-.148 1 0 3.882 2.356 18.667 11.072 22.5 9 1.487-.804 9.603-27.631 13.5-31 2.016.677 6.625 2.934 7 3"/><path fill="#072935" d="M243 263c6.676 21.608 8.204 38.009 34 24l4 4c-8.5 9.04-21.603 23.413-29 33l-16-59c.506-.08 6.227-1.713 7-2"/><path fill="#537b8d" d="m636 309-5 9c-1.146-.648-4.783-1.356-6-2-24.958-13.203-42.661-20.275-71-25-20.862-3.478-41.967-5.595-63-2-54.789 4.001-112.258 36.081-147 78l-6.5 5-5.5-7c72.758-92.768 202.463-117.747 304-56"/><path fill="#002342" d="m554 291-3 3c-19.492-5.107-39.83-6.473-60-5 21.033-3.595 42.138-1.478 63 2"/><path fill="url(#c)" d="M491 289c20.17-1.473 40.508-.107 60 5 4.298 1.126 11.596 2.303 15 5-11.558-1.616-28.271-2.493-39 1-6.935-.599-16.762-.151-24 0-48.169 1.005-91.113 23.275-127.5 54-12.687 10.713-48.519 45.515-50.5 60.5-5.409 40.928 19.455 80.233 52 102.5.228.156.77-.153 1 0-1.283 125.744 164.437 144.232 243.5 76 4.616-3.984 9.196-10.493 13.5-14 .163-.133-.163-.867 0-1l2-2c23.673-19.151 54.744-43.956 79.5-61 3.596-2.476 13.637-10.557 15.5-7-6.121 6.536-8.396 17.209-13 24.5-47.086 74.559-158.617 129.881-245 135.5-9.181.597-33.328 2.215-41 1-6.388-1.012-9.45-5.867-15.5-7-1.636 2.88-1.272 5.889-1.5 9-4.048.711-11.054-1.853-13 2-5.097-1.932-14.211-2.063-20-1-28.73-20.919-55.933-53.114-72-85-25.188-49.987-18.295-110.652-1-162 1.93-4.813 3.726-9.327 6-14 7.495-15.403 17.061-30.802 28-44 34.742-41.919 92.211-73.999 147-78" style="fill:url(#c)"/>/&gt;<path fill="#094465" d="m625 316-4 2c-13.078-6.675-40.712-17.002-55-19-3.404-2.697-10.702-3.874-15-5l3-3c28.339 4.725 46.042 11.797 71 25"/><path fill="url(#d)" d="M566 299c14.288 1.998 41.922 12.325 55 19 14.362 7.33 37.417 24.671 49 36 6.364 6.224 18.104 19.745 23 27 26.442 39.183 42.326 86.47 41 134-1.751-.921-1.373-5.802-2-7-1.863-3.557-11.904 4.524-15.5 7-24.756 17.044-55.827 41.849-79.5 61-1.583 1.28-1.89 1.911-2 2-.163.133.163.867 0 1h-1c-2.031-1.824-8.062 1.731-11 3l-8-6c12.794-8.318 21.053-16.751 14-32-.531-1.147-1.33-3.13-2-4 24.189-13.831 46.561-29.909 65-51 1.745 6.096 2.277 13.985 8.5 17 13.497-14.632 14.892-32.007 12.5-51-1.734-13.769-5.334-23.527-11-36-3.824-8.419-6.34-9.687-10-16-14.043-24.221-19.682-33.393-42-52-15.279-12.738-29.622-22.093-48-30-7.752-3.335-15.772-7.034-24-9-3.956-.945-8.007-2.31-12-3-11.251-3.938-27.105-7.972-39-9 10.729-3.493 27.442-2.616 39-1" style="fill:url(#d)"/>/&gt;<path fill="url(#e)" d="M503 300c.662 1.953-3.281 2.726-4.5 3-26.858 6.037-46.63 12.938-68 31-36.447 30.805-56.132 72.79-37.5 120-.479.945-.808 2.585-1 3-8.747 18.88-14.131 39.092-15 60-32.545-22.267-57.409-61.572-52-102.5 1.981-14.985 37.813-49.787 50.5-60.5 36.387-30.725 79.331-52.995 127.5-54" style="fill:url(#e)"/>/&gt;<path fill="url(#f)" d="M527 300c11.895 1.028 27.749 5.062 39 9-32.428-5.607-93.23-4.684-113 29.5-13.765 23.802 5.447 42.373 2 55-.624 2.287-22.991 18.191-27 21.5-16.832 13.894-24.353 17.995-35 39-18.632-47.21 1.053-89.195 37.5-120 21.37-18.062 41.142-24.963 68-31 1.219-.274 5.162-1.047 4.5-3 7.238-.151 17.065-.599 24 0" style="fill:url(#f)"/>/&gt;<path fill="url(#g)" d="M566 309c3.993.69 8.044 2.055 12 3-.831 5.782-13.924 2.181-18.5 3-8.604 1.54-25.102 10.912-20.5 21.5 2.701 6.214 27.571 13.991 35 17.5 1.324.626.936.97 1 1 1.101 9.548-2.157 20.284 0 29.5 1.977 8.451 20.557 34.474 27 41.5l-12-6c-37.361-31.671-115.308-30.165-155-4-2.546-1.203-5.344 3.543-7-1 4.009-3.309 26.376-19.213 27-21.5 3.447-12.627-15.765-31.198-2-55 19.77-34.184 80.572-35.107 113-29.5m-69.5 36c-14.906.177-34.254 11.68-32.5 28.5 1.889 18.124 41.089 18.044 52.5 11.5 8.737-5.011 13.671-19.276 8.5-28.5-3.383-6.035-21.877-11.579-28.5-11.5" style="fill:url(#g)"/>/&gt;<path fill="#88abbe" d="M670 334c6.982 6.255 2.224 9.99 3 13.5.409 1.853 9.394 7.14 9 10.5-2.861-3.172-6.886-6.018-10-9-12.869-12.324-25.396-22.18-41-31l5-9c12.336 7.502 23.217 15.413 34 25"/><path fill="#8cdbed" d="M602 321c-4.34 6.75-9.393 2.478-14.5 4-12.484 3.721-12.08 18.733-13.5 29-7.429-3.509-32.299-11.286-35-17.5-4.602-10.588 11.896-19.96 20.5-21.5 4.576-.819 17.669 2.782 18.5-3 8.228 1.966 16.248 5.665 24 9"/><path fill="#397995" d="M625 316c1.217.644 4.854 1.352 6 2 15.604 8.82 28.131 18.676 41 31l-2 5c-11.583-11.329-34.638-28.67-49-36z"/><path fill="#daf4fa" d="M650 351c1.023 12.557 21.546 22.454 13 37.5-4.448 7.831-13.654 7.566-20.5 4.5-19.876-8.902-44.209-26.906-67.5-38-.064-.03.324-.374-1-1 1.42-10.267 1.016-25.279 13.5-29 5.107-1.522 10.16 2.75 14.5-4 18.378 7.907 32.721 17.262 48 30"/><path fill="#537b8d" d="M748 519c-8.504 30.726-6.115 53.277-22 85-3.679 7.348.22 9.148-10.5 5l2.5-10c34.499-69.447 23.972-156.886-20-220-4.575-6.567-10.713-15.139-16-21 .394-3.36-8.591-8.647-9-10.5-.776-3.51 3.982-7.245-3-13.5 52.546 46.719 81.048 114.446 78 185"/><path fill="#66d6ea" d="M496.5 345c6.623-.079 25.117 5.465 28.5 11.5 5.171 9.224.237 23.489-8.5 28.5-11.411 6.544-50.611 6.624-52.5-11.5-1.754-16.82 17.594-28.323 32.5-28.5"/><path fill="#185b7b" d="M682 358c5.287 5.861 11.425 14.433 16 21l-5 2c-4.896-7.255-16.636-20.776-23-27l2-5c3.114 2.982 7.139 5.828 10 9"/><path fill="url(#h)" d="M692 403c-14.923 4.352-18.524 20.527-15 34-15.145-.859-32.479 12.039-46.5 10-8.292-1.206-22.721-14.698-28.5-21-6.443-7.026-25.023-33.049-27-41.5-2.157-9.216 1.101-19.952 0-29.5 23.291 11.094 47.624 29.098 67.5 38 6.846 3.066 16.052 3.331 20.5-4.5 8.546-15.046-11.977-24.943-13-37.5 22.318 18.607 27.957 27.779 42 52" style="fill:url(#h)"/>/&gt;<path fill="#68b1ca" d="M344 367c-10.939 13.198-20.505 28.597-28 44-7.795 3.335-3.468 11.282-14 3 7.906-17.861 18.02-33.725 30-49l5.5 7z"/><path fill="#7598a9" d="M292 438c-9.063 29.14-11.826 60.547-11 91-.757-2.41-6.642-10.118-8-14.5-6.722-21.687-12.174-45.667-22-65.5 6.998-31.479 16.593-52.607 33-80z"/><path fill="#527b8c" d="M237 378c-23.045 51.218-31.81 108.958-28 165l-23 6c-1.187-19.3-.701-36.842 1-56 2.813-31.683 9.333-55.862 18-86 .719-2.5 6.576-6.797 2-9 6.513-7.413 10.935-18.741 16-28 1.627 4.334 9.351 6.935 14 8"/><path fill="#00345a" d="M698 379c43.972 63.114 54.499 150.553 20 220-3.676 7.4-7.696 13.986-12 21-2.533-5.858 6.385-6 3-13 16.243-27.503 24.105-59.932 25-92 1.326-47.53-14.558-94.817-41-134z"/><path fill="#77aabd" d="M270 386C147.841 627.579 412.726 868.072 647 745c1.867-.981 5.409-2.103 7-3l1 5C418.238 878.957 139.648 632.904 267 383Z"/><path fill="#10495c" d="M878 430c1.196 2.074 2.818 6.453 4 9 .05 3.043-.353 1.57-2 1-6.261-13.538-17.125-26.009-31.5-31 1.026 3.58 9.541 3.894 5 8l-3-4c-1.105.487.153 4.174.5 5l-21.5-15-6.5-2c-.533-1.365-.675-4.21-1-5 23.6-4.351 45.047 15.011 56 34"/><path fill="#0a394c" d="M207 398c4.576 2.203-1.281 6.5-2 9-5.375 2.535-13.324.481-14 8-12.365 9.469-22.427 45.64-25 61-.159.952.147 2.043 0 3l-5 52-2 .5c-.126-2.149.182-4.372 0-6.5-1.11-13.021 1.945-29.883 4-43 1.549-9.886 4.103-25.785 7-35 4.26-13.55 11.894-26.287 21-36.5l-2-1c2.616-2.427 8.213.093 4-4.5 1.913-.023 2.629 1.68 4 .5-1.181-7.199-7.756-4.268-12-1 1.184 1.743 5.279.615 7 .5-1.773 1.889-5.178 3.29-7 5-9.439.747-16.87 6.444-22 14-1.212-2.528-1.291-2.186-3-.5-6.56 6.472-9.644 18.244-12 25.5-.121.089-3.224 1.237-3 0 2.718-7.133 4.973-14.449 9-21 11.089-18.041 30.608-33.511 53-30"/><path fill="#f0f8fa" d="M590 420c8.954 7.59 18.37 21.544 21 33 5.131 22.347-4.31 78.701-17 98-3.357 5.105-9.462 9.253-15.5 10-1.843 1.44.435 2.845.5 3 2.731 6.471 12.222 6.924 17.5 4 6.944-3.848 17.839-25.175 23.5-32 2.305.681 3.982.084 7 4 .67.87 1.469 2.853 2 4 3.674 15.268-1.813 20.923-13.5 29-13.017 8.996-37.449 20.008-52 11-3.472-2.15-5.149-10.489-9.5-6-.007-.07-1.182.162-1-1 .612-.715 3.646-3.91.5-4-29.418 26.516-76.424 21.077-104.5-5-26.982-25.061-23.551-52.057-9-83 7.409-15.756 16.461-28.746 31.5-38 69.829-42.966 125.135 32.231 107.5 98.5 5.453-7.051 8.711-18.736 10-27.5 18.643-64.482-13.398-108.205-81-106-37.41 1.22-74.077 16.7-94 49.5-10.677 17.578-22.63 56.275-18 76.5 11.108 48.528 82.454 75.092 127 73 20.705-.972 41.981-7.556 61.5-14 1.321-.436 4.066-1.134 3.5-3 12.61-1.593 23.682-7.112 35-12 2.938-1.269 8.969-4.824 11-3-52.015 52.474-137.537 64.751-201.5 27-33.231-19.613-47.061-46.374-47.5-85-.2-17.568 3.181-40.711 10-57 6.813-16.274 25.223-38.259 40-48 39.692-26.165 117.639-27.671 155 4m-114 46c-18.68 15.766-26.957 37.621-23 62 11.647 71.767 122.662 52.757 110-28-6.66-42.479-52.691-62.958-87-34"/><path fill="#021a28" d="M193 405c-.332.004-.67-.022-1 0-1.721.115-5.816 1.243-7-.5 4.244-3.268 10.819-6.199 12 1-1.371 1.18-2.087-.523-4-.5"/><path fill="#1f5f71" d="M851 418c.893 2.128 4.311 6.271 6 10l-3 5.5c6.104 9.105 6.556 29.043 11 37.5l-1 1c-2.237-10.417-6.013-22.132-10-32-4.271-10.573-10.188-27.791-22.5-30-2.493 2.057 8.124 27.619 9.5 33 4.469 17.471 7.627 36.964 9 55 1.854 24.339 1.99 49.856-1 74-4.124-.744-2.763 20.149-7 12 .956-6.871 1.604-14.062 2-21 6.293-54.009-1.231-111.431-21-162l6.5 2z"/><path fill="#9de3f0" d="M702 419c1.228 15.57-5.727 24.869-22 23-.422-1.397-2.479-3.008-3-5-3.524-13.473.077-29.648 15-34 3.66 6.313 6.176 7.581 10 16"/><path fill="#195471" d="m170 447-5-1c.101-.299-.103-.702 0-1 1.327-3.84 3.287-8.283 5-12 2.897-6.287 10.017-18.325 15-23 1.822-1.71 5.227-3.111 7-5 .33-.022.668.004 1 0 4.213 4.593-1.384 2.073-4 4.5l2 1c-9.106 10.213-16.74 22.95-21 36.5"/><path fill="#1d4f66" d="M205 407c-8.667 30.138-15.187 54.317-18 86l-5 1c1.193-16.023 2.954-35.534 7-51 1.32-5.047 12.69-29.672 9.5-32-2.332 1.411-5.339 2.345-7.5 4 .676-7.519 8.625-5.465 14-8"/><path fill="#327c8b" d="M185 410c-4.983 4.675-12.103 16.713-15 23-2.829-1.236-8.604-7.001-7-9 5.13-7.556 12.561-13.253 22-14"/><path fill="#50b5bd" d="M880 440c-.276-.096-.665.068-1 0-1.608-.327-.732-2.037-1.5-2-1.903.091-5.669 2.943-6 3-2.281.391-7.071-3.64-7.5 2-1.66-4.648-4.92-10.409-7-15-1.689-3.729-5.107-7.872-6-10-.347-.826-1.605-4.513-.5-5l3 4c4.541-4.106-3.974-4.42-5-8 14.375 4.991 25.239 17.462 31.5 31"/><path fill="#c7e3e6" d="M854 440c-1.877 8.599-6.612 6.964-13 3-1.376-5.381-11.993-30.943-9.5-33 12.312 2.209 18.229 19.427 22.5 30"/><path fill="#b8d7de" d="M189 443c-5.079-1.037-3.338 2.75-6.5 5-.184.131-3.257-2.79-4.5.5-.362.957 1.846 2.713 1 4-1.102 1.678-6.374 4.684-7 6-2.046 4.302-1.955 10.475-3 15-.196.848-1.138 4.554-3 2.5 2.573-15.36 12.635-51.531 25-61 2.161-1.655 5.168-2.589 7.5-4 3.19 2.328-8.18 26.953-9.5 32"/><path fill="#54cae7" d="M316 411c-2.274 4.673-4.07 9.187-6 14-23.569 58.779-23.593 122.783 5 180 48.762 116.548 207.356 151.523 313 92l3 10c-2.896 1.607-6.078 3.553-9 5-120.458 59.661-270.765 8.47-323-116-10.461-24.928-10.752-43.929-18-67-.826-30.453 1.937-61.86 11-91 1.962-6.309 7.138-17.534 10-24 10.532 8.282 6.205.335 14-3"/><path fill="#022e47" d="m508 412-6 2.5 10 2.5c-76.204-1.849-107.766 44.144-114 114-.151 1.688-1.095 5.35-2 7-4.63-20.225 7.323-58.922 18-76.5 19.923-32.8 56.59-48.28 94-49.5"/><path fill="#13799b" d="M589 518c8.771-59.625-14.215-99.477-77-101l-10-2.5 6-2.5c67.602-2.205 99.643 41.518 81 106"/><path fill="#0e7ca0" d="M435 416c-14.777 9.741-33.187 31.726-40 48l-3-7c.192-.415.521-2.055 1-3 10.647-21.005 18.168-25.106 35-39 1.656 4.543 4.454-.203 7 1"/><path fill="#1cb5db" d="M512 417c62.785 1.523 85.771 41.375 77 101-1.289 8.764-4.547 20.449-10 27.5 17.635-66.269-37.671-141.466-107.5-98.5-15.039 9.254-24.091 22.244-31.5 38l-5 1.5 1-9c-11.248 19.12-16.391 49.804-8 71.5l-30-18c6.234-69.856 37.796-115.849 114-114"/><path fill="#44bbdb" d="M602 426c5.779 6.302 20.208 19.794 28.5 21 14.021 2.039 31.355-10.859 46.5-10 .521 1.992 2.578 3.603 3 5 4.806 15.898 7.743 30.428 12 46 .085.31-.088.692 0 1-18.439 21.091-40.811 37.169-65 51-3.018-3.916-4.695-3.319-7-4-.12-.035.582-2.495-1.5-2-1.975 2.355-6.222 2.239-9 4-1.996 1.266-6.198 5.929-8.5 8 2.753-17.996 11.007-35.239 13-53.5 1.181-10.825 1.461-24.239 0-35-.052-.386-.976-6.982-3-4.5-2.63-11.456-12.046-25.41-21-33z"/><path fill="#67c4de" d="m713 455-21 33c-4.257-15.572-7.194-30.102-12-46 16.273 1.869 23.228-7.43 22-23 5.666 12.473 9.266 22.231 11 36"/><path fill="#3997a3" d="M163 424c-1.604 1.999 4.171 7.764 7 9-1.713 3.717-3.673 8.16-5 12-6.377 1.196-12.671.802-17 4 2.356-7.256 5.44-19.028 12-25.5 1.709-1.686 1.788-2.028 3 .5"/><path fill="#013054" d="M311 587c-3.018-.812-1.286 3.797-1 4.5 1.806 4.438 3.259 9.339 5 13.5-28.593-57.217-28.569-121.221-5-180-17.295 51.348-24.188 112.013 1 162"/><path fill="#f6fbfb" d="M154 428c-4.027 6.551-6.282 13.867-9 21-3.45 9.055-6.358 16.276-8 26l-3.5 4c-7.136-7.494-12.566-.311-12.5-14 6.788-13.691 17.576-33.955 33-37"/><path fill="#f0f7f8" d="m894 440 23 40c3.429 10.457 5.852 19.982 7 31-2.54 3.483-5.648 9.123-10.5 10-12.022 2.174-13.08-14.522-14 11-.243-5.368-.96-10.689-1.5-16-2.91-28.604-3.586-50.242-16-77-1.182-2.547-2.804-6.926-4-9l1.5-3c6.435 2.156 10.096 8.005 14.5 13"/><path fill="#3285a6" d="M864 443c3.55 9.937 6.894 22.638 9 33-2.65 1.145-6.857-2.825-8-5-4.444-8.457-4.896-28.395-11-37.5l3-5.5c2.08 4.591 5.34 10.352 7 15"/><path fill="#08463a" d="M790 517c-1.929 93.595-54.846 179.277-136 225-1.591.897-5.133 2.019-7 3l-2-2v-1c7.151-.567 44.332-27.801 51.5-34 37.181-32.154 67.548-79.821 81.5-127 12.445-42.083 12.433-78.928 5-122-1.347-7.807-4.143-16.323-5-24-.119-1.062-.441-2.97 1-3 8.104 28.472 11.612 55.319 11 85"/><path fill="#6ddbdd" d="M879 440c7.041 8.327.561 12.54 1 21.5.019.379 2.816.869 3 2 .372 2.291-2.952 2.571-3 3-.094.844 2.723.466 1 3.5-.493-2.695-3.933-1.899-4 1-.05 2.139 2.178 2.462 3 4.5l-7 1.5c-.063-.321.065-.68 0-1-2.106-10.362-5.45-23.063-9-33 .429-5.64 5.219-1.609 7.5-2 .331-.057 4.097-2.909 6-3 .768-.037-.108 1.673 1.5 2"/><path fill="#1a8ea0" d="M898 516c-.206 17.698-.768 35.443-3 53-2.461 19.356-7.613 29.83-12 47l-5.5 9c-1.156-3.118 8.05-12.973.5-13 7.768-9.349 10.773-51.168 13-64.5.427-2.557 5.645-12.4 5-15-.603-2.432-3.074-1.873-4-3-.448-.546.684-3.655-.5-4.5-1.724-1.23-5.227 1.062-5.5 1-.746-.17-1.982-.681-3-1-.572-.179-2.092-1.872-4-1 .006-6.862-2.15-19.515-3-27-.753-6.628-1.712-13.456-3-20l7-1.5c-.822-2.038-3.05-2.361-3-4.5 4.012 2.294 2.97.814 4-1 1.723-3.034-1.094-2.656-1-3.5.048-.429 3.372-.709 3-3-.184-1.131-2.981-1.621-3-2-.439-8.96 6.041-13.173-1-21.5.335.068.724-.096 1 0 1.647.57 2.05 2.043 2-1 12.414 26.758 13.09 48.396 16 77m-18.5-38c-2.424.583-1.957 4.221 2 3 1.777-1.247-1.825-3.042-2-3m3 35c-3.204.384-3.096 6.981 2 5 3.73-1.45-.922-5.129-2-5"/><path fill="#77d5df" d="M864 472c.068.319-.066.681 0 1 2.321 11.154 3.342 19.596 4 31 .895 15.506.314 29.541-1 45l-1-49.5-16-1.5c-1.373-18.036-4.531-37.529-9-55 6.388 3.964 11.123 5.599 13-3 3.987 9.868 7.763 21.583 10 32"/><path fill="#daedf2" d="m917 480-23-40c10.877 12.338 17.884 24.396 23 40"/><path fill="#5a95ab" d="M189 443c-4.046 15.466-5.807 34.977-7 51-.499 6.698-1.792 13.916-2 20.5-1.189 37.693 6.839 74.921 14 111.5-.835-.253-9.285 1.012-12.5-1-4.258-2.666-15.358-44.503-16.5-51.5-1.511-9.259-.908-21.696-2-31.5.907-11.385-.625-23.039 0-34.5.394-7.221 1.891-21.273 3-28.5.147-.957-.159-2.048 0-3 1.862 2.054 2.804-1.652 3-2.5 1.045-4.525.954-10.698 3-15 .626-1.316 5.898-4.322 7-6 .846-1.287-1.362-3.043-1-4 1.243-3.29 4.316-.369 4.5-.5 3.162-2.25 1.421-6.037 6.5-5"/><path fill="#60cbd3" d="M165 445c-.103.298.101.701 0 1-3.101 9.197-6.561 24.316-8 34l-7-1.5c5.034 3.759-1.595 3.296-1 6 .083.377 5.113 2.835 2 6-5.719 5.815-4.864-12.1-5-15-11.638 19.183.06-20.525 2-26.5 4.329-3.198 10.623-2.804 17-4m-14.5 16c-2.485.61-1.646 5.649 1 5 2.485-.61 1.646-5.649-1-5m1 8c-2.76 1.769 2.169 4.698 3.5 2.5 1.276-2.107-2.081-3.409-3.5-2.5"/><path fill="#277293" d="M170 447c-2.897 9.215-5.451 25.114-7 35-5.954 1.35-1.372 10.947-8 10 .323-3.97 1.416-8.068 2-12 1.439-9.684 4.899-24.803 8-34z"/><path fill="#319cad" d="M148 449c-1.94 5.975-13.638 45.683-2 26.5.136 2.9-.719 20.815 5 15 3.113-3.165-1.917-5.623-2-6-.595-2.704 6.034-2.241 1-6l7 1.5c-.584 3.932-1.677 8.03-2 12-.816 10.031-.173 22.719 0 33 .028 1.685.936 2.706 1 5-2.98 1.272-4.886-2.145-6.5-2-.581.052-3.397 2.446-4.5 3-.446-1.449-1.73-2.327-3-3-1.886-.999-1.455-2.132-7-1-.033-7.952 1.477-13.003 2-20 .195-2.613.744-5.05 1-7.5.023-.222-.159.052 0-2 .364-4.689 1.284-9.263 1-14-2.118-1.617-2.491 2.972-3 4.5-1.206-5.076.204-8.288 1-13 1.642-9.724 4.55-16.945 8-26-.224 1.237 2.879.089 3 0m-1.5 44c-1.96.325-1.355 3.391 1 3 1.96-.325 1.355-3.391-1-3m-3 5c-1.766.443-2.829 4.872 1 4 2.386-.544 1.383-4.598-1-4m0 8c-.989.074-2.397 3.225-1 4 1.759.976 4.272-4.243 1-4m-1 9c-3.213 2.182 3.255 2.159 2.5.5-.299-.658-2.151-.737-2.5-.5"/><path fill="#537e8d" d="M281 529c7.248 23.071 7.539 42.072 18 67-18.184-11.836-29.006-41.219-52-46-5.03-36.387-3.979-65.108 4-101 9.826 19.833 15.278 43.813 22 65.5 1.358 4.382 7.243 12.09 8 14.5"/><path fill="#1ca0bf" d="m563 500-13-20.5c-17.905-21.327-47.996-30.859-72-12.5l-2-1c34.309-28.958 80.34-8.479 87 34"/><path fill="#0d749a" d="M601 546c-2.353 2.117-4.038 4.18-6 6l-1-1c12.69-19.299 22.131-75.653 17-98 2.024-2.482 2.948 4.114 3 4.5 1.461 10.761 1.181 24.175 0 35-1.993 18.261-10.247 35.504-13 53.5"/><path fill="#2590b9" d="M692 489c-.088-.308.085-.69 0-1l21-33c2.392 18.993.997 36.368-12.5 51-6.223-3.015-6.755-10.904-8.5-17"/><path fill="#01415f" d="M395 464c-6.819 16.289-10.2 39.432-10 57-4.453 1.997-3.785-1.854-7-4-.23-.153-.772.156-1 0 .869-20.908 6.253-41.12 15-60z"/><path fill="url(#i)" d="M563 500c12.662 80.757-98.353 99.767-110 28-2.107-20.813 8.158-48.119 25-61 24.004-18.359 54.095-8.827 72 12.5zm-66.5-15c-39.936 6.321-29.411 75.467 17 64 35.571-8.789 28.314-71.172-17-64" style="fill:url(#i)"/>/&gt;<path fill="#aecfd8" d="M783 459c7.433 43.072 7.445 79.917-5 122-2.133-1.859-.284-2.41-3.5-1-13.925 6.104-29.282 28.102-48.5 24 15.885-31.723 13.496-54.274 22-85 4.393-15.874 16.923-29.043 27-41.5z"/><path fill="#b6f6f5" d="M150.5 461c2.646-.649 3.485 4.39 1 5-2.646.649-3.485-4.39-1-5"/><path fill="#ddecef" d="M137 475c-.796 4.712-2.206 7.924-1 13-1.823 5.473-1.548 12.301-2 18-.078.983.055 2.013 0 3-4.181-.502-2.576.974-3 3.5-3.162 18.835-23.541 5.895-23-8.5 2.339-15.914 5.997-24.875 13-39-.066 13.689 5.364 6.506 12.5 14z"/><path fill="#04446a" d="M478 467c-16.842 12.881-27.107 40.187-25 61-3.957-24.379 4.32-46.234 23-62z"/><path fill="#e1fafe" d="M881 470c-1.03 1.814.012 3.294-4 1 .067-2.899 3.507-3.695 4-1"/><path fill="#d0f8fa" d="M151.5 469c1.419-.909 4.776.393 3.5 2.5-1.331 2.198-6.26-.731-3.5-2.5"/><path fill="#217894" d="M873 476c.065.32-.063.679 0 1 1.288 6.544 2.247 13.372 3 20-12.627 1.035-4.165-17.097-12-24-.066-.319.068-.681 0-1l1-1c1.143 2.175 5.35 6.145 8 5"/><path fill="#134e65" d="M876 497c.85 7.485 3.006 20.138 3 27-.008 9.597-3.922 27.019-5 37l-5-1c1.538-12.695 3.419-29.951 3-42.5-.07-2.086-1.563-12.202-4-13.5-.658-11.404-1.679-19.846-4-31 7.835 6.903-.627 25.035 12 24"/><path fill="#04698d" d="M440 485c-14.551 30.943-17.982 57.939 9 83-4.292 2.846-.845 4.461 0 8-8.018-6.633-17.202-17.18-21-27-8.391-21.696-3.248-52.38 8-71.5l-1 9z"/><path fill="#97e1e0" d="M879.5 478c.175-.042 3.777 1.753 2 3-3.957 1.221-4.424-2.417-2-3"/><path fill="#6bc7d7" d="M163 542c-.369-3.317-1.803-7.522-2-11l5-52c-1.109 7.227-2.606 21.279-3 28.5-.625 11.461.907 23.115 0 34.5"/><path fill="#115269" d="M163 482c-2.055 13.117-5.11 29.979-4 43h-4c-.173-10.281-.816-22.969 0-33 6.628.947 2.046-8.65 8-10"/><path fill="#115d74" d="m137 507-3-1c.452-5.699.177-12.527 2-18 .509-1.528.882-6.117 3-4.5.284 4.737-.636 9.311-1 14-.159 2.052.023 1.778 0 2-.256 2.45-.805 4.887-1 7.5"/><path fill="#13100e" d="M496.5 485c45.314-7.172 52.571 55.211 17 64-46.411 11.467-56.936-57.679-17-64m7 5c-10.619.727-10.424 20.757 3 18 9.636-1.979 7.694-18.732-3-18"/><path fill="#f9f9f8" d="M503.5 490c10.694-.732 12.636 16.021 3 18-13.424 2.757-13.619-17.273-3-18"/><path fill="#b2e9ed" d="M146.5 493c2.355-.391 2.96 2.675 1 3-2.355.391-2.96-2.675-1-3"/><path fill="#0c3548" d="M187 493c-1.701 19.158-2.187 36.7-1 56 1.889 30.722 7.115 54.128 17 83-3.721-.295-4.982-4.784-9-6-7.161-36.579-15.189-73.807-14-111.5.208-6.584 1.501-13.802 2-20.5z"/><path fill="#8fcedb" d="M143.5 498c2.383-.598 3.386 3.456 1 4-3.829.872-2.766-3.557-1-4"/><path fill="#5ba4b8" d="M867 549c-2.38 28.005-6.207 48.981-17 75-1.877 1.991-12.337.302-13-1.5 5.26-16.367 9.882-33.396 12-50.5 2.99-24.144 2.854-49.661 1-74l16 1.5z"/><path fill="#a4cdd9" d="M134 509c-1.267 22.93.223 43.356 4 66l-2 1.5c-1.048-3.005-1.192-15.413-2-17-.361-.708-11.653-4.444-14.5-6.5-4.851-3.503-7.708-10.369-12.5-14-.938-12.448-.814-22.658 1-35-.541 14.395 19.838 27.335 23 8.5.424-2.526-1.181-4.002 3-3.5"/><path fill="#011a28" d="M869 560c-2.661 21.962-7.713 41.675-15 62.5 1.226 2.008 18.933-6.797 21-8.5.591-.487 2.673-1.607 3-2 7.55.027-1.656 9.882-.5 13l5.5-9c-.217.851.129 2.055 0 3-6.914 8.256-11.94 25.377-18 35-17.151 12.114-24 22.697-48 12 .119-.248-1.199-2.877 0-5.5 1.904-4.167 5.146-8.796 7-13.5 18.096 4.79 20.925-10.764 26-23 10.793-26.019 14.62-46.995 17-75 1.314-15.459 1.895-29.494 1-45 2.437 1.298 3.93 11.414 4 13.5.419 12.549-1.462 29.805-3 42.5m-16.5 73c-1.779.793-17.645 29.204-19 34l15.5-21.5 6-12c-.371-.664-1.978-.733-2.5-.5"/><path fill="#051d2a" d="M137 507c-.523 6.997-2.033 12.048-2 20 .092 22.499 4.601 54.368 11 76 .695 2.349 1.198 4.662 2 7 2.91 8.488 3.84 4.155 4 4.5.894 1.926 2.941 9.961 2 12.5-.16-.242-1.777-1.699-2-2-7.538-15.252-11.196-33.19-14-50-3.777-22.644-5.267-43.07-4-66 .055-.987-.078-2.017 0-3z"/><path fill="#cde3eb" d="M143.5 506c3.272-.243.759 4.976-1 4-1.397-.775.011-3.926 1-4"/><path fill="url(#j)" d="M732 508c.627 1.198.249 6.079 2 7-.895 32.068-8.757 64.497-25 92-66.952 113.363-219.974 142.198-326 65 5.789-1.063 14.903-.932 20 1 .871.33 9.191 5.56 12 7 1.195.613 2.824 1.909 5 3 17.724 8.888 26.889 16.568 48 20 6.41 1.042 15.761 3.118 22 1 13.432 6.302 90.242-6.528 97-14.5.197-.232.153-5.067 1-6-38.23-1.546-78.766 1.718-114-15.5 86.383-5.619 197.914-60.941 245-135.5 4.604-7.291 6.879-17.964 13-24.5" style="fill:url(#j)"/>/&gt;<path fill="#badde6" d="M925 538c-7.039 4.665-9.18 11.993-15.5 18-1.419 1.349-9.926 4.357-11.5 6.5-.879 1.198.11 6.982-3 6.5 2.232-17.557 2.794-35.302 3-53 .54 5.311 1.257 10.632 1.5 16 .92-25.522 1.978-8.826 14-11 4.852-.877 7.96-6.517 10.5-10a199.5 199.5 0 0 1 1 27"/><path fill="#74bac5" d="M882.5 513c1.078-.129 5.73 3.55 2 5-5.096 1.981-5.204-4.616-2-5"/><path fill="#63a2a8" d="M142.5 515c.349-.237 2.201-.158 2.5.5.755 1.659-5.713 1.682-2.5-.5"/><path fill="#012e45" d="M385 521c.439 38.626 14.269 65.387 47.5 85 63.963 37.751 149.485 25.474 201.5-27h1c-4.304 3.507-8.884 10.016-13.5 14-79.063 68.232-244.783 49.744-243.5-76 3.215 2.146 2.547 5.997 7 4"/><path fill="#e3f0f3" d="m655 747-1-5c81.154-45.723 134.071-131.405 136-225 3.936 1.944 1.503 9.885 2 13.5.128.933 2.886-1.534 3 0 .634 8.56-4.72 34.563-7 44-17.196 71.18-69.499 137.109-133 172.5"/><path fill="#8cb2c3" d="M844 563c-.396 6.938-1.044 14.129-2 21-2.665 19.154-10.858 44.881-18 63-1.854 4.704-5.096 9.333-7 13.5-1.199 2.623.119 5.252 0 5.5-24.261 50.372-86.594 117.954-138 141-5.599 2.51-11.789 4.641-17.5 7l-3.5-10c112.188-53.621 171.263-159.557 169-283 2.139-.155 16.507.804 17 1.5 1.17 1.653.278 35.629 0 40.5"/><path fill="#1a4f60" d="M883 525c-5.288 2.582 2.346 7.109 3 1 .273.062 3.776-2.23 5.5-1 1.184.845.052 3.954.5 4.5.926 1.127 3.397.568 4 3 .645 2.6-4.573 12.443-5 15-2.227 13.332-5.232 55.151-13 64.5-.327.393-2.409 1.513-3 2-.938-2.185-7.54-4.417-8-5.5-.64-1.508 6.385-27.214 7-32 .616-4.796-.526-10.628 0-15.5 1.078-9.981 4.992-27.403 5-37 1.908-.872 3.428.821 4 1m1.5 11c-3.77 1.182-.033 7.099 3 5 1.906-1.319-1.315-5.528-3-5m-5 40c-2.875.768.476 4.53 2 4 .89-.309 3.272-5.409-2-4"/><path fill="#021c2c" d="M159 525c.182 2.128-.126 4.351 0 6.5l2-.5c.197 3.478 1.631 7.683 2 11 1.092 9.804.489 22.241 2 31.5 1.142 6.997 12.242 48.834 16.5 51.5 3.215 2.012 11.665.747 12.5 1 4.018 1.216 5.279 5.705 9 6 3.8 11.097 7.84 23.558 13 34-13.572 12.078-37.789 1.123-48-11-6.524-7.746-9.368-21.002-14-28 .941-2.539-1.106-10.574-2-12.5-.16-.345-1.09 3.988-4-4.5 2.56-2.401 2.819-4.549 7.5-4 1.289.406.672 7.777 5 7 4.077-.732-2.547-4.921-1.5-7.5 1.255-3.09 4.666 2.215 4-3.5-2.597-22.271-4.863-39.088-6-62-.159-3.194-.905-6.577-1-10-.064-2.294-.972-3.315-1-5z"/><path fill="#52a6ae" d="M886 526c-.654 6.109-8.288 1.582-3-1 1.018.319 2.254.83 3 1"/><path fill="#154657" d="M142 528c-1.542.183-1.108 2.856-1 4 .915 9.693 3.476 1.773 6 3.5l-1.5 5.5c4.666-2.268 6.496-1.396 11.5-1 1.137 22.912 3.403 39.729 6 62-5.982-2.371-10.474.662-17 1-6.399-21.632-10.908-53.501-11-76 5.545-1.132 5.114.001 7 1m7.5 64c-1.117-.058-2.325 8.69 2 6 .986-.613-1.035-5.95-2-6"/><path fill="#61a6b6" d="M145 531c-1.374.69-2.275 1.375-4 1-.108-1.144-.542-3.817 1-4 1.27.673 2.554 1.551 3 3"/><path fill="#276476" d="M156 530c.095 3.423.841 6.806 1 10-5.004-.396-6.834-1.268-11.5 1l1.5-5.5c-2.524-1.727-5.085 6.193-6-3.5 1.725.375 2.626-.31 4-1 1.103-.554 3.919-2.948 4.5-3 1.614-.145 3.52 3.272 6.5 2"/><path fill="#0395c0" d="M428 549c3.798 9.82 12.982 20.367 21 27 20.148 16.667 47.235 24.141 73 18 2.987 1.671 6.695.963 10 1-2.739 2.631-2.603 12.914-3 13.5-1.074 1.583-6.403-1.317-6 2.5-44.546 2.092-115.892-24.472-127-73 .905-1.65 1.849-5.312 2-7z"/><path fill="#0783a9" d="M620 536c-5.661 6.825-16.556 28.152-23.5 32-5.278 2.924-14.769 2.471-17.5-4 8.856-1.591 11.096-7.451 16-12 1.962-1.82 3.647-3.883 6-6 2.302-2.071 6.504-6.734 8.5-8 2.778-1.761 7.025-1.645 9-4 2.082-.495 1.38 1.965 1.5 2"/><path fill="#3e7f8c" d="M884.5 536c1.685-.528 4.906 3.681 3 5-3.033 2.099-6.77-3.818-3-5"/><path fill="#85b7c8" d="m917 585-20.5 24c-3.182 3.302-10.939 6.941-13.5 10 .129-.945-.217-2.149 0-3 4.387-17.17 9.539-27.644 12-47 3.11.482 2.121-5.302 3-6.5 1.574-2.143 10.081-5.151 11.5-6.5 6.32-6.007 8.461-13.335 15.5-18-.487 15.47-2.955 32.374-8 47"/><path fill="#80b1c2" d="M138 575c2.804 16.81 6.462 34.748 14 50-6.522-8.779-19.83-15.568-26-25.5L115 582c-4.21-13.817-6.912-28.562-8-43 4.792 3.631 7.649 10.497 12.5 14 2.847 2.056 14.139 5.792 14.5 6.5.808 1.587.952 13.995 2 17z"/><path fill="#416879" d="m577 830 1.5 10 39.5-8c-16.414 5.015-30.573 9.415-48 12l-99 1c-23.847-2.864-47.338-8.111-70-16-77.765-27.071-148.438-89.007-185-163-5.16-10.442-9.2-22.903-13-34-9.885-28.872-15.111-52.278-17-83l23-6c13.332 196.078 174.175 319.564 368 287"/><path fill="#023652" d="M615 576c-7.699 5.005-29.554 14.083-38.5 16-1.901.407-4.927-2.111-6.5 2-.589-.124-2.284-.734-3-1-6.696-2.49-12.301-8.121-13-15 4.351-4.489 6.028 3.85 9.5 6 14.551 9.008 38.983-2.004 52-11 11.687-8.077 17.174-13.732 13.5-29 7.053 15.249-1.206 23.682-14 32"/><path fill="#3f6876" d="M299 596c52.235 124.47 202.542 175.661 323 116 .654 10.405 11.024 30.95 23 30v1c-158.546 85.252-372.918-11.567-398-193 22.994 4.781 33.816 34.164 52 46"/><path fill="#07304a" d="M595 552c-4.904 4.549-7.144 10.409-16 12-.065-.155-2.343-1.56-.5-3 6.038-.747 12.143-4.895 15.5-10z"/><path fill="#082e3f" d="M874 561c-.526 4.872.616 10.704 0 15.5-.615 4.786-7.64 30.492-7 32 .46 1.083 7.062 3.315 8 5.5-2.067 1.703-19.774 10.508-21 8.5 7.287-20.825 12.339-40.538 15-62.5z"/><path fill="#04394e" d="M553 577c-4.103 4.797-24.831 15.53-31 17-25.765 6.141-52.852-1.333-73-18-.845-3.539-4.292-5.154 0-8 28.076 26.077 75.082 31.516 104.5 5 3.146.09.112 3.285-.5 4"/><path fill="#0e3446" d="M849 572c-2.118 17.104-6.74 34.133-12 50.5.663 1.802 11.123 3.491 13 1.5-5.075 12.236-7.904 27.79-26 23 7.142-18.119 15.335-43.846 18-63 4.237 8.149 2.876-12.744 7-12"/><path fill="#047196" d="m615 576 8 6c-11.318 4.888-22.39 10.407-35 12-6.237.788-11.733 1.319-18 0 1.573-4.111 4.599-1.593 6.5-2 8.946-1.917 30.801-10.995 38.5-16"/><path fill="#63bed8" d="m637 576-2 2c.11-.089.417-.72 2-2"/><path fill="#336e7d" d="M879.5 576c5.272-1.409 2.89 3.691 2 4-1.524.53-4.875-3.232-2-4"/><path fill="#007398" d="M554 578c.699 6.879 6.304 12.51 13 15-11.631 1.338-23.208 2.133-35 2-3.305-.037-7.013.671-10-1 6.169-1.47 26.897-12.203 31-17-.182 1.162.993.93 1 1"/><path fill="#87abbe" d="M778 581c-13.952 47.179-44.319 94.846-81.5 127-7.168 6.199-44.349 33.433-51.5 34-11.976.95-22.346-19.595-23-30 2.922-1.447 6.104-3.393 9-5 4.754-2.638 37.651-23.905 38-26.5.274-2.035-7.17-5.377-4-9.5 16.834-14.906 29.265-31.878 41-51 4.304-7.014 8.324-13.6 12-21l-2.5 10c10.72 4.148 6.821 2.348 10.5-5 19.218 4.102 34.575-17.896 48.5-24 3.216-1.41 1.367-.859 3.5 1"/><path fill="#507988" d="M152 625c.223.301 1.84 1.758 2 2 4.632 6.998 7.476 20.254 14 28-26.705-10.15-45.066-46.96-53-73l11 17.5c6.17 9.932 19.478 16.721 26 25.5"/><path fill="#517b8a" d="M917 585c-10.663 30.911-26.006 50.64-52 69 6.06-9.623 11.086-26.744 18-35 2.561-3.059 10.318-6.698 13.5-10z"/><path fill="#004a70" d="M311 587c16.067 31.886 43.27 64.081 72 85 106.026 77.198 259.048 48.363 326-65 3.385 7-5.533 7.142-3 13-11.735 19.122-24.166 36.094-41 51-11.349 10.049-23.825 18.577-37 26-105.644 59.523-264.238 24.548-313-92-1.741-4.161-3.194-9.062-5-13.5-.286-.703-2.018-5.312 1-4.5"/><path fill="#04283b" d="M149.5 592c.965.05 2.986 5.387 2 6-4.325 2.69-3.117-6.058-2-6"/><path fill="#38c4e5" d="M567 593c.716.266 2.411.876 3 1 6.267 1.319 11.763.788 18 0 .566 1.866-2.179 2.564-3.5 3-19.519 6.444-40.795 13.028-61.5 14-.403-3.817 4.926-.917 6-2.5.397-.586.261-10.869 3-13.5 11.792.133 23.369-.662 35-2"/><path fill="#0a3244" d="M163 602c.666 5.715-2.745.41-4 3.5-1.047 2.579 5.577 6.768 1.5 7.5-4.328.777-3.711-6.594-5-7-4.681-.549-4.94 1.599-7.5 4-.802-2.338-1.305-4.651-2-7 6.526-.338 11.018-3.371 17-1"/><path fill="#000713" d="M852.5 633c.522-.233 2.129-.164 2.5.5l-6 12-15.5 21.5c1.355-4.796 17.221-33.207 19-34"/><path fill="#5fc0de" d="M433 669c10.336 5.37 2.802 6.347 7 14.5l-20-.5c-2.176-1.091-3.805-2.387-5-3 1.768-2.785.78-5.989 1-9 .228-3.111-.136-6.12 1.5-9 6.05 1.133 9.112 5.988 15.5 7"/><path fill="#25a2c3" d="M474 668c35.234 17.218 75.77 13.954 114 15.5-.847.933-.803 5.768-1 6-6.758 7.972-83.568 20.802-97 14.5 1.478-.502 8.536-5.135 7.5-8l-35-11c-3.691.118 8.576 14.32 5.5 18-21.111-3.432-30.276-11.112-48-20l20 .5c-4.198-8.153 3.336-9.13-7-14.5 7.672 1.215 31.819-.403 41-1"/><path fill="#2dafcf" d="M416 671c-.22 3.011.768 6.215-1 9-2.809-1.44-11.129-6.67-12-7 1.946-3.853 8.952-1.289 13-2"/><path fill="#6ab8d1" d="m631 707-3-10c13.175-7.423 25.651-15.951 37-26-3.17 4.123 4.274 7.465 4 9.5-.349 2.595-33.246 23.862-38 26.5"/><path fill="#5cbada" d="M490 704c-6.239 2.118-15.59.042-22-1 3.076-3.68-9.191-17.882-5.5-18l35 11c1.036 2.865-6.022 7.498-7.5 8"/><path fill="#527b8c" d="m658 804 3.5 10c5.711-2.359 11.901-4.49 17.5-7-15.44 9.143-32.051 16.115-49 22-4.433 1.539-8.353 1.886-12 3l-39.5 8-1.5-10c27.964-4.698 55.45-13.788 81-26"/><path fill="#274e57" d="M570 844c-34.339 5.093-64.557 5.137-99 1z"/></svg>