<svg xmlns="http://www.w3.org/2000/svg" width="1024" height="1024"><defs><linearGradient id="a" x1="308.3" x2="758.717" y1="297.709" y2="689.543" gradientUnits="userSpaceOnUse"><stop offset="28.476%" style="stop-color:#bad9e6"/><stop offset="100%" style="stop-color:#517d90"/></linearGradient></defs><defs><linearGradient id="b" x1="618.739" x2="555.718" y1="411.408" y2="460.686" gradientUnits="userSpaceOnUse"><stop offset="0%" style="stop-color:#088daf"/><stop offset="100%" style="stop-color:#1eb9d6"/></linearGradient></defs><defs><linearGradient id="c" x1="576.898" x2="441.879" y1="437.207" y2="521.175" gradientUnits="userSpaceOnUse"><stop offset="0%" style="stop-color:#1b4463"/><stop offset="46.541%" style="stop-color:#296181"/><stop offset="100%" style="stop-color:#173856"/></linearGradient></defs><defs><linearGradient id="d" x1="534.962" x2="397.307" y1="489.195" y2="546.222" gradientUnits="userSpaceOnUse"><stop offset="0%" style="stop-color:#56cfe2"/><stop offset="100%" style="stop-color:#088eb0"/></linearGradient></defs><defs><linearGradient id="e" x1="499.535" x2="483.751" y1="705.539" y2="770.654" gradientUnits="userSpaceOnUse"><stop offset="0%" style="stop-color:#7098a9"/><stop offset="100%" style="stop-color:#8eb5c5"/></linearGradient></defs><defs><linearGradient id="f" x1="525.499" x2="605.832" y1="791.111" y2="864.783" gradientUnits="userSpaceOnUse"><stop offset="0%" style="stop-color:#507d90"/><stop offset="100%" style="stop-color:#3f6879"/></linearGradient></defs><path fill="#127896" d="m579 167-1 3c-1.568-.256-3.419.235-5 0-177.589-26.415-346.873 62.64-399 238-.402 1.353-2.64 4.687-3 6-2.459.982-7.262-2.18-9-.5-.872.843-5.035 20.229-6 23.5l-6-1c4.462-23.362 13.723-46.787 18-69 .685-3.556.274-3.329 3-6 28.117-9.988 34.49-37.317 52-60.5C306.24 190.292 443.724 143.491 579 167"/><path fill="#e8f7fb" d="m573 170-.5 5c19.678-1.462 27.34 11.109 39 24l-1 2c-185.54-7.015-378.188 86.263-369.5 296.5.554 13.397 4.878 27.009 3.5 40.5-26.149-23.625-45.382-53.95-58.5-86.5L174 408c52.127-175.36 221.411-264.415 399-238m-230 66c-2.189-4.136-.574-4.539-6-7-22.262-16.291-47.034 17.167-30 37.5 15.529 18.536 50.15-3.763 36-30.5"/><path fill="#0c536d" d="M833 353c.027 1.685 1.731 11.927 2 12.5.486 1.036 2.519-.035 3 1 2.956 6.364 5.129 14.045 8 20 1.371 2.845 2.501-1.759 5 3.5-4.292-.755-2.613 2.222-2 4.5 1.425 5.292 4.661 10.701 6 16 .495 1.96-2.142 1.392-2 2 .764 3.267 3.108 12.244 6 9 6.645 32.46 15.649 65.984 10.5 99.5-2.378-12.021.321-24.336-.5-36.5-.052-.775-1.935-.222-2-1-.249-2.958.499-10.866 0-14-.128-.806-1.848-.189-2-1-.578-3.075 4.051-9.456-3-7.5-6.859-44.391-28.283-97.043-53-134.5-4.356-6.601-15.384-23.182-21-27.5-44.312-55.149-104.695-99.625-173-120-11.966-3.57-24.677-6.987-37-9l1-3c94.497 16.422 172.575 70.883 228 147.5 7.49 10.354 17.049 31.979 26 38.5"/><path fill="url(#a)" d="M578 170c12.323 2.013 25.034 5.43 37 9-2.053 1.706 3.791 3.71 4.5 4 43.522 17.815 83.866 40.563 119 72 11.739 10.504 22.466 25.018 33.5 35-35.269-4.302-43.26 39.913-17.5 58 23.318 16.372 46.698-1.373 41.5-28 21.003 27.043 39.325 64.733 49 98 6.18 21.252 10.156 43.821 11 66-4.251-.69-2.964-12.782-5.5-14-3.071-.034-6.411 1.598-9 3-2.828 1.532-9.693 11.475-12.5 8 2.691-4.175 5.63-7.989 8.5-12-18.944 10.657-25.715 29.871-28.5 50.5-.149 1.107-2.965 1.617-3 2-.395 4.367 2.275 17.153 5 21-1.241-9.599-1.775-22.402 4-30.5-.768 7.506-1.497 14.977 0 22.5 2.318-4.234 2.348-8.495 4-13.5 5.294 13.227 2.97 21.846 20 22-12.008 92.115-73.474 174.754-152 222-8.225-15.92-21.02-28.768-37-37-21.311-10.978-43.209-12.783-67-13 6.464-3.618 14.346-1.309 21.5-3 48.6-11.489 107.226-65.202 132.5-107.5 56.503-94.562 48.459-223.055-38-296.5-12.799-13.378-23.134-19.772-40-27 4.453-2.319-7.794-9.322-10-11-3.487-2.653-6.683-5.716-10.5-8-.595-.356-7.808-5.23-7.5-1-50.99-25.382-95.68-32.911-152.5-25-21.379 2.977-47.395 9.028-65.5 20-19.753 8.274-36.025 18.127-53 31-25.38 19.247-41.146 37.065-58 64-28.036 44.805-40.804 91.545-38 145 .662 12.622 3.212 29.11 6 41.5 3.231 14.361 10.149 28.091 13 42.5-6.314-12.854-10.893-24.229-15-38-23.818-79.866-7.114-162.463 47-225.5 2.109-2.457 33.021-30.568 28.5-32.5-78.17 60.178-105.268 165.028-80.5 259 19.471 73.873 66.091 134.131 135.5 167l20.5 6c-24.837 1.529-39.69 4.397-60 19-13.691 9.844-22.293 20.332-29 36-64.528-33.407-117.242-94.57-147-160.5-7.095-15.719-19.625-46.34-23-62.5-7.778-37.246.881-97.083 11-134 .36-1.313 2.598-4.647 3-6l12 43.5c13.118 32.55 32.351 62.875 58.5 86.5 1.378-13.491-2.946-27.103-3.5-40.5-8.688-210.237 183.96-303.515 369.5-296.5l1-2c-11.66-12.891-19.322-25.462-39-24l.5-5c1.581.235 3.432-.256 5 0M184.5 489c-28.493 2.316-25.28 54.386 7 48 22.442-4.44 20.931-50.27-7-48" style="fill:url(#a)"/>/&gt;<path fill="#cfe7ef" d="M788 299c-.432-.332-5.372-1.457-9-4-2.76-1.935-4.091-2.368-7-5-11.034-9.982-21.761-24.496-33.5-35-35.134-31.437-75.478-54.185-119-72-.709-.29-6.553-2.294-4.5-4 68.305 20.375 128.688 64.851 173 120"/><path fill="#4e8897" d="M337 229c-26.633-12.081-43.064 23.841-25 37.5 18.289 13.83 38.67-11.321 31-30.5 14.15 26.737-20.471 49.036-36 30.5-17.034-20.333 7.738-53.791 30-37.5"/><path fill="#0b4257" d="M337 229c5.426 2.461 3.811 2.864 6 7 7.67 19.179-12.711 44.33-31 30.5-18.064-13.659-1.633-49.581 25-37.5m-17.5 1c-18.873 4.125-18.368 42.863 8 38 20.58-3.796 19.976-44.115-8-38"/><path fill="#0bc5e7" d="M319.5 230c27.976-6.115 28.58 34.204 8 38-26.368 4.863-26.873-33.875-8-38m-5.5 10c-12.23 19.808 16.946 32.17 24 12 5.925-16.942-15.087-26.435-24-12"/><path fill="#afd3de" d="M631 261c5.992 2.983 11.773 6.543 18 9 2.206 1.678 14.453 8.681 10 11-4.252-1.822-10.198-6.134-15-5-38.528-24.49-86.357-37.944-132-39-36.319-.841-65.705 5.052-99 19 18.105-10.972 44.121-17.023 65.5-20 56.82-7.911 101.51-.382 152.5 25"/><path fill="#24a7c2" d="M338 252c-7.885-4.365-18.183-4.522-24-12 8.913-14.435 29.925-4.942 24 12"/><path fill="#5e7b84" d="M512 237c.231 1.599 1.576 11.099 2 11.5 1.627 1.538 6.305-1.275 6 2.5-56.536-1.958-105.931 13.392-151 47l-9-11c16.975-12.873 33.247-22.726 53-31 33.295-13.948 62.681-19.841 99-19"/><path fill="#4a6269" d="M644 276c10.312 6.555 20.82 15.864 30 24 .923 5.333-6.595 5.62-8 10-40.004-35.672-92.204-57.137-146-59 .305-3.775-4.373-.962-6-2.5-.424-.401-1.769-9.901-2-11.5 45.643 1.056 93.472 14.51 132 39"/><path fill="#63cbdc" d="M338 252c-7.054 20.17-36.23 7.808-24-12 5.817 7.478 16.115 7.635 24 12"/><path fill="#04526f" d="M520 251c53.796 1.863 105.996 23.328 146 59 27.349 24.388 52.08 61.181 64 96 6.977 20.38 12.172 46.476 12 68-2.025 253.538-358.717 318.445-449 87-11.915-30.544-16.765-63.359-15-96 2.055-38.003 15.071-78.289 36-110 13.595-20.6 35.207-42.241 55-57 45.069-33.608 94.464-48.958 151-47m56 439c50.503-13.292 96.791-50.797 124-95 138.032-224.246-181.46-452.741-358-252.5C193.248 511.222 371.655 743.783 576 690"/><path fill="#d2eff6" d="M649 270c-6.227-2.457-12.008-6.017-18-9-.308-4.23 6.905.644 7.5 1 3.817 2.284 7.013 5.347 10.5 8"/><path fill="#097398" d="M700 595c-1.881-14.556 1.246-28.003 4-42 23.619-120.045 1.601-197.343-109-257-19.237-10.376-25.289-17.514-49.5-22-107.375-19.893-201.92 41.156-230.5 145-3.481 12.648-5.817 24.878-7 38-3.025 33.564 2.271 56.312 12 88 8.83 28.761 14.628 41.517 35 64.5 58.394 65.878 149.627 90.128 233 59.5-10.049 6.364-14.99 5.214-12 21-204.345 53.783-382.752-178.778-234-347.5C518.54 142.259 838.032 370.754 700 595"/><path fill="#c0e8f1" d="M595 296c-.28 1.775-2.713.794-4 1 2.119-2.095-2.223-2.636-3.5-3-99.576-28.366-198.892 1.236-254.5 91.5-6.602 10.717-10.257 23.468-18 33.5 28.58-103.844 123.125-164.893 230.5-145 24.211 4.486 30.263 11.624 49.5 22"/><path fill="#8bb1bd" d="M659 281c16.866 7.228 27.201 13.622 40 27 30.416 31.791 52.691 74.329 59 118-1.991-.346-6.679.711-8-.5-.939-.861-5.455-20.511-7-24.5-15.646-40.403-36.574-72.262-69-101-9.18-8.136-19.688-17.445-30-24 4.802-1.134 10.748 3.178 15 5"/><path fill="#9ce2ed" d="M591 297c-7.717 1.235-15.394 3.315-23 5-11.276 2.498-46.926 11.628-54.5 19-3.264 3.177.897.884 1.5 3 .492 1.725.449 4.492 0 6-.564 1.894-3.034 3.899-3 6l-22 2c-1.157-1.049-2.748-2.033-4-3l2.5-10-13.5 4c-3.069-1.499-6.151-4.995-10.5-6-42.877-9.905-81.264 27.06-81.5 69-30.407 40.527-35.075 103.375-14 149-.135-.269-2.733-1.851-4-4.5-1.568-3.28-6.008-22.087-7-23-.708-.651-6.282-.789-8.5-2.5-19.389-14.959-22.816-39.906-41.5-54 1.183-13.122 3.519-25.352 7-38 7.743-10.032 11.398-22.783 18-33.5 55.608-90.264 154.924-119.866 254.5-91.5 1.277.364 5.619.905 3.5 3"/><path fill="#b1dfe9" d="m268 542-5 1c-24.768-93.972 2.33-198.822 80.5-259 4.521 1.932-26.391 30.043-28.5 32.5-54.114 63.037-70.818 145.634-47 225.5"/><path fill="#7597a3" d="M369 298c-19.793 14.759-41.405 36.4-55 57l-12-4c16.854-26.935 32.62-44.753 58-64z"/><path fill="#093f55" d="M772 290c2.909 2.632 4.24 3.065 7 5 6.044 7.212 15.105 15.292 17 25 5.198 26.627-18.182 44.372-41.5 28-25.76-18.087-17.769-62.302 17.5-58m-11.5 8c-23.641 4.233-18.213 46.335 6 50 35.652 5.397 29.128-56.29-6-50"/><path fill="#accbd8" d="M788 299c5.616 4.318 16.644 20.899 21 27.5 24.717 37.457 46.141 90.109 53 134.5 2.773 17.946 4.202 37.858 3 56 .125-23.057-5.149-71.59-14-92.5-.329-.777-3.903-8.293-6-6.5-9.675-33.267-27.997-70.957-49-98-1.895-9.708-10.956-17.788-17-25 3.628 2.543 8.568 3.668 9 4"/><path fill="#239dbb" d="M704 553c-5.134 5.079-6.599 13.301-10 19.5-1.12 2.041-1.95-.59-2-.5l6-23.5c-17.674-1.911-21.706-31.607-37-37.5 7.735-40.786.582-85.156-24-119 18.845-30.921-10.146-62.513-42-44-6.362-4.067-13.06-8-20-11 6.308-10.853-6.493-23.721-7-35 7.606-1.685 15.283-3.765 23-5 1.287-.206 3.72.775 4-1 110.601 59.657 132.619 136.955 109 257"/><path fill="#0abfe3" d="M760.5 298c35.128-6.29 41.652 55.397 6 50-24.213-3.665-29.641-45.767-6-50m-8.5 33c4.775 9.231 16.392 13.315 25.5 7 9.859-6.836 9.17-19.358 2.5-28-14.766-19.133-39.349-.938-28 21"/><path fill="#5e7b84" d="m743 401-13 5c-11.92-34.819-36.651-71.612-64-96 1.405-4.38 8.923-4.667 8-10 32.426 28.738 53.354 60.597 69 101"/><path fill="#40b5cf" d="M568 302c.507 11.279 13.308 24.147 7 35-18.785-8.12-39.379-13.087-60-13-.603-2.116-4.764.177-1.5-3 7.574-7.372 43.224-16.502 54.5-19"/><path fill="#23a7c3" d="M780 310c-7.313 10.416-19.06 11.79-28 21-11.349-21.938 13.234-40.133 28-21"/><path fill="#4e798a" d="M583 715c-1.446-.013-4.5.7-5-1 4.873-1.417 9.28-3.299 14-5 43.583-15.711 78.194-41.974 108-77 49.582-58.265 69.017-129.741 58-206-6.309-43.671-28.584-86.209-59-118 86.459 73.445 94.503 201.938 38 296.5-25.274 42.298-83.9 96.011-132.5 107.5-7.154 1.691-15.036-.618-21.5 3"/><path fill="#6acfdf" d="M752 331c8.94-9.21 20.687-10.584 28-21 6.67 8.642 7.359 21.164-2.5 28-9.108 6.315-20.725 2.231-25.5-7"/><path fill="#e9f5f9" d="M475 329c3.978 1.944 7.417 3.232 11 6 1.252.967 2.843 1.951 4 3 11.562 10.482 19.179 27.393 20 43 .086 1.638.033 3.357 0 5-.304 15.337-5.783 29.536-16 41-5.934 6.658-18.585 15.924-27 19-11.172 4.083-32.794 6.248-44 2-.264-.1-.471-2.038-4-4-17.362-9.654-27.337-23.989-30-44-.591-4.443.428-9.901 0-14.5-1.994 1.957-4.336 4.282-6 6.5.236-41.94 38.623-78.905 81.5-69 4.349 1.005 7.431 4.501 10.5 6"/><path fill="#16819f" d="M575 337c6.94 3 13.638 6.933 20 11-1.213.705-3.865 2.947-5 4-22.1-14.26-48.699-21.435-75-22 .449-1.508.492-4.275 0-6 20.621-.087 41.215 4.88 60 13"/><path fill="#479aad" d="M486 335c-3.583-2.768-7.022-4.056-11-6l13.5-4z"/><path fill="#10aacd" d="M590 352c-.718.666-4.806 4.704-5 5-21.531-13.908-47.481-20.674-73-21-.034-2.101 2.436-4.106 3-6 26.301.565 52.9 7.74 75 22"/><path fill="url(#b)" d="M512 336c25.519.326 51.469 7.092 73 21-22.532 34.438 22.008 67.364 48 40 26.381 37.323 31.542 88.965 17 132-2.715 8.034-8.483 19.392-14 26-7.312-18.958-34.479-24.48-51-15 52.08-63.698 6.29-158.824-75-159-.821-15.607-8.438-32.518-20-43z" style="fill:url(#b)"/>/&gt;<path fill="#e7f5f9" d="M637 392c-.282.462-3.46 4.432-4 5-25.992 27.364-70.532-5.562-48-40 .194-.296 4.282-4.334 5-5 1.135-1.053 3.787-3.295 5-4 31.854-18.513 60.845 13.079 42 44"/><path fill="#8fb5c2" d="M314 355c-20.929 31.711-33.945 71.997-36 110-1.641-1.019-1.603-3.865-2 .5-.928 10.209.686 21.643 0 32l-12-1.5c-2.804-53.455 9.964-100.195 38-145z"/><path fill="#1a5266" d="m926 473-4 5c-1.958-28.979-5.177-39.988-17-66-2.537-5.583-3.553-11.617-7-17-8.065-12.594-24.446-22.401-39-24-.77-1.237-.868-1.208-2-2l-4.5-5c-6.024 3.718.872 10.272 1.5 12.5 2.776 9.845 7.194 22.06 9 29 3.373 12.961 5.959 28.108 7 41-5.603-4.76-4.969-15.982-7-23-2.905-10.039-7.565-24.168-12-33.5-2.499-5.259-3.629-.655-5-3.5-2.871-5.955-5.044-13.636-8-20-.481-1.035-2.514.036-3-1-.269-.573-1.973-10.815-2-12.5 12.48 9.092 27.181 8.843 40.5 14 2.377.92 23.509 11.546 24.5 12.5 11.734 11.292 25.766 75.815 28 93.5"/><path fill="#146a84" d="M171 361c-2.726 2.671-2.315 2.444-3 6-2.232-.138-4.063 2.308-5 4-14.654 1.42-31.067 11.227-39 24-5.963 3.653-7.364 7.495-12 12 9.53-24.17 11.208-30.945 37.5-41 6.279-2.401 15.654-2.923 21.5-5"/><path fill="#102733" d="M857 369c-1.094-.765-2.606-.893-3.5-2-3.353.762 4.536 16.274 5.5 19.5 10.249 34.288 17.006 69.679 19 105.5 2.154 38.698-.811 76.856-10 114.5-3.09 12.66-13.526 34.606-15 45-.111.783 2.006.397 2 .5-.497 8.65-3.053 2.223-5.5 4-1.837 1.335-1.364 2.902-1.5 3-5.94 4.301-17.15 8.991-21 13.5-6.882 8.06-16.42 29.371-24 40-26.889 37.705-61.74 69.109-101 93.5v-4c17.614-6.954 58.362-44.562 72-59.5 52.218-57.195 89.972-145.493 91-223.5.009-.662-.004-1.338 0-2 1.202-18.142-.227-38.054-3-56 7.051-1.956 2.422 4.425 3 7.5.152.811 1.872.194 2 1 .499 3.134-.249 11.042 0 14 .065.778 1.948.225 2 1 .821 12.164-1.878 24.479.5 36.5 5.149-33.516-3.855-67.04-10.5-99.5-2.892 3.244-5.236-5.733-6-9-.142-.608 2.495-.04 2-2-1.339-5.299-4.575-10.708-6-16-.613-2.278-2.292-5.255 2-4.5 4.435 9.332 9.095 23.461 12 33.5 2.031 7.018 1.397 18.24 7 23-1.041-12.892-3.627-28.039-7-41-1.806-6.94-6.224-19.155-9-29-.628-2.228-7.524-8.782-1.5-12.5z"/><path fill="#e4f9fc" d="M168 367c-4.277 22.213-13.538 45.638-18 69-3.665 19.188-5.993 39.497-7 59l-7 11.5c.676-41.605 8.549-86.529 23-125.5 1.036-2.794 2.699-7.65 4-10 .937-1.692 2.768-4.138 5-4"/><path fill="#dff6fa" d="M857 369c1.132.792 1.23.763 2 2 .833 1.338 2.038 7.542 3 10 15.48 39.551 22.529 85.123 24 127.5l-8-16.5c-1.994-35.821-8.751-71.212-19-105.5-.964-3.226-8.853-18.738-5.5-19.5.894 1.107 2.406 1.235 3.5 2"/><path fill="#658286" d="m898 395-36-14c-.962-2.458-2.167-8.662-3-10 14.554 1.599 30.935 11.406 39 24"/><path fill="#6b8d90" d="M163 371c-1.301 2.35-2.964 7.206-4 10-10.076 3.085-26.285 8.662-35 14 7.933-12.773 24.346-22.58 39-24"/><path fill="#acd6de" d="M159 381c-14.451 38.971-22.324 83.895-23 125.5l7-11.5c-1.298 25.138-.273 44.145 3 69 2.785 21.15 7.036 41.554 13 62-3.812-3.242-1.538-.574-5 0-10.774-33.233-17.274-71.508-17-106.5l-10 32c-8.881 8.341-9.193 6.873-18 2.5 1.193-1.996 3.904-3.398 5-5.5 5.341-10.238 3.066-45.972 4-60 1.707-25.632 5.13-51.283 5-77l-6 .5c2.541-5.468 3.686-11.664 7-17 8.715-5.338 24.924-10.915 35-14"/><path fill="#82e0eb" d="M585 540c-2.261 1.298-11.17 10.489-12 13-78.095 61.661-188.421-14.877-154-109 3.529 1.962 3.736 3.9 4 4-20.151 55.201 20.035 117.52 78.5 122 80.589 6.175 131.251-86.517 79.5-150-1.899-2.329-3.951-3.925-6-6-17.427-17.645-39.5-28.559-65-28 .033-1.643.086-3.362 0-5 81.29.176 127.08 95.302 75 159"/><path fill="#a8d0d8" d="M898 395c3.447 5.383 4.463 11.417 7 17l-6 .5 6 131 8 11.5c-8.858 4.048-12.411 3.161-19-4.5l-9-29c-1.371 38.842-8.502 85.218-23 121.5-1.189 2.975-3.429 8.791-7 9 .006-.103-2.111.283-2-.5 1.474-10.394 11.91-32.34 15-45 9.189-37.644 12.154-75.802 10-114.5l8 16.5c-1.471-42.377-8.52-87.949-24-127.5z"/><path fill="#1481a1" d="M389 400c-2.152-1.373-2.244-1.41-4 .5-6.881 7.486-17.887 36.643-20 47-21.793 106.812 69.965 195.755 176 175.5l1 6c-56.544 10.373-116.744-8.107-153-54-7.758-9.821-14.379-22.785-20-34-21.075-45.625-16.407-108.473 14-149 1.664-2.218 4.006-4.543 6-6.5.428 4.599-.591 10.057 0 14.5"/><path fill="url(#c)" d="M575 414c-6.564-2.945-16.559.799-19 7.5-9.1 24.974 35.667 26.458 25-1.5 51.751 63.483 1.089 156.175-79.5 150-58.465-4.48-98.651-66.799-78.5-122 11.206 4.248 32.828 2.083 44-2-34.404 49.134 22.772 111.042 73.5 78 40.351-26.282 24.143-93.978-22-99-8.068-.878-16.641.176-24.5 2 10.217-11.464 15.696-25.663 16-41 25.5-.559 47.573 10.355 65 28" style="fill:url(#c)"/>/&gt;<path fill="#137f9f" d="M661 511c-1.271 6.7-3.774 13.558-6 20l-5-2c14.542-43.035 9.381-94.677-17-132 .54-.568 3.718-4.538 4-5 24.582 33.844 31.735 78.214 24 119"/><path fill="#48a4bb" d="M124 395c-3.314 5.336-4.459 11.532-7 17-2.011 4.327-7.862 13.69-9 17l-2 1.5V424c1.813-6.035 3.701-11.17 6-17 4.636-4.505 6.037-8.347 12-12"/><path fill="url(#d)" d="M389 400c2.663 20.011 12.638 34.346 30 44-34.421 94.123 75.905 170.661 154 109-4.969 15.024 5.374 30.043 19 36 .016.66-.034 1.341 0 2-3.547 2.026 1.426 5.602 0 9.5-.356.973-8.234 5.3-10 6.5-12.025 8.172-26.808 13.289-41 16-106.035 20.255-197.793-68.688-176-175.5 2.113-10.357 13.119-39.514 20-47 1.756-1.91 1.848-1.873 4-.5" style="fill:url(#d)"/>/&gt;<path fill="#7597a3" d="M758 426c11.017 76.259-8.418 147.735-58 206-2.927-2.752-8.504-4.412-8-9 33.255-41.276 53.914-95.51 50-149 .172-21.524-5.023-47.62-12-68l13-5c1.545 3.989 6.061 23.639 7 24.5 1.321 1.211 6.009.154 8 .5"/><path fill="#e5f3f5" d="M109 554c-.536-.266-3.849-.43-5-1-6.223-39.351-9.19-85.621 4-124 1.138-3.31 6.989-12.673 9-17l6-.5c.13 25.717-3.293 51.368-5 77-.934 14.028 1.341 49.762-4 60-1.096 2.102-3.807 3.504-5 5.5"/><path fill="#e5f2f5" d="M905 412c11.823 26.012 15.042 37.021 17 66 1.891 27.985.454 46.634-4 74-1.677 1.516-2.975 2.075-5 3l-8-11.5-6-131z"/><path fill="#124e65" d="M171 414c-10.119 36.917-18.778 96.754-11 134 9.031 104.384 71.484 201.732 161 255 .002.985-.193 3.714 0 4-40.991-25.438-73.601-53.037-102-92.5-8.089-11.24-23.408-42.007-31.5-48.5-11.255-9.032-27.969-9.066-41-14-3.211-1.216-21.885-11.46-23.5-13.5-4.021-5.078-16.591-41.797-19-50-2.14-7.288-3.483-15.057-5-22.5 6.03 6.066 2.198 23.657 12 24 8.006 25.75 18.512 48.28 48 53 .777 1.684 6.368 11.599 9 7.5.705-1.098-7.895-20.71-9-24.5-5.964-20.446-10.215-40.85-13-62 11.517-4.57 6.586 8.328 11 14.5-1.064-11.395-4.863-22.651-6-34-3.564-35.564-4.97-73.709 5-107.5.965-3.271 5.128-22.657 6-23.5 1.738-1.68 6.541 1.482 9 .5"/><path fill="#edf6fa" d="M575 414c2.049 2.075 4.101 3.671 6 6 10.667 27.958-34.1 26.474-25 1.5 2.441-6.701 12.436-10.445 19-7.5"/><path fill="#94b7c5" d="M865 517c-.004.662.009 1.338 0 2-.355 3.672-9.508 11.897-10 13-.15-15.973 1.611-31.949 1-48-.844-22.179-4.82-44.748-11-66 2.097-1.793 5.671 5.723 6 6.5 8.851 20.91 14.125 69.443 14 92.5"/><path fill="#1e5569" d="M108 429c-13.19 38.379-10.223 84.649-4 124 1.984 12.548 3.191 24.749 7 37-9.802-.343-5.97-17.934-12-24-11.488-47.054-6.792-96.095 7-142v6.5z"/><path fill="#03295e" d="M467 446c8.415-3.076 21.066-12.342 27-19 7.859-1.824 16.432-2.878 24.5-2 46.143 5.022 62.351 72.718 22 99-50.728 33.042-107.904-28.866-73.5-78"/><path fill="#256076" d="M156 437c-9.97 33.791-8.564 71.936-5 107.5 1.137 11.349 4.936 22.605 6 34-4.414-6.172.517-19.07-11-14.5-3.273-24.855-4.298-43.862-3-69 1.007-19.503 3.335-39.812 7-59z"/><path fill="#5dc9dc" d="M369 541c5.621 11.215 12.242 24.179 20 34-26.701 9.14-44.224-27.177-69-30-9.729-31.688-15.025-54.436-12-88 18.684 14.094 22.111 39.041 41.5 54 2.218 1.711 7.792 1.849 8.5 2.5.992.913 5.432 19.72 7 23 1.267 2.649 3.865 4.231 4 4.5"/><path fill="#b4dae3" d="M278 465c-1.765 32.641 3.085 65.456 15 96 .451 7.602 6.113 18.467 10 25.5 54.74 99.049 177.37 147.103 285 109.5l4 13c-4.72 1.701-9.127 3.583-14 5-21.203 6.165-42.895 9.886-65 11-7.386.045-14.631-.742-22-1-18.02-.301-36.484-7.929-54-9l-51.5-24c-44.241-26.747-79.65-64.482-102.5-111-2.851-14.409-9.769-28.139-13-42.5-2.788-12.39-5.338-28.878-6-41.5l12 1.5c.686-10.357-.928-21.791 0-32 .397-4.365.359-1.519 2-.5"/><path fill="#b8d7e2" d="M829 481c-6.062 9.405-7.235 12.041-11 22.5-.096.266-3.262.049-4 4-.251 1.344 1.433.263 1 4.5-5.775 8.098-5.241 20.901-4 30.5-2.725-3.847-5.395-16.633-5-21 .035-.383 2.851-.893 3-2 2.785-20.629 9.556-39.843 28.5-50.5-2.87 4.011-5.809 7.825-8.5 12"/><path fill="#3f697a" d="M856 484c.611 16.051-1.15 32.027-1 48-.39.873-.968 1.893-1 2-3.472 2.883-6.585 3.616-11 4 4.267-7.557 3.999-13.646 4-22 0-5.715-.847-21.441-8.5-23-10.034-2.044-13.661 13.858-16.5 21-1.047 2.635-1.734 3.165-3 7-1.652 5.005-1.682 9.266-4 13.5-1.497-7.523-.768-14.994 0-22.5.433-4.237-1.251-3.156-1-4.5.738-3.951 3.904-3.734 4-4 3.765-10.459 4.938-13.095 11-22.5 2.807 3.475 9.672-6.468 12.5-8 2.589-1.402 5.929-3.034 9-3 2.536 1.218 1.249 13.31 5.5 14"/><path fill="#174355" d="M848 659c.136-.098-.337-1.665 1.5-3 2.447-1.777 5.003 4.65 5.5-4 3.571-.209 5.811-6.025 7-9 4.299-.545 10.583-2.335 14.5-4 29.339-12.47 36.831-58.313 41.5-87 4.454-27.366 5.891-46.015 4-74l4-5c3.494 27.651 4.12 50.693 0 78.5-2.301 15.535-19.577 80.135-29.5 89.5-9.126 8.613-35.849 16.826-48.5 18"/><path fill="#effbfc" d="M692 623c-26.275 32.613-64.442 59.179-104 73-107.63 37.603-230.26-10.451-285-109.5-3.887-7.033-9.549-17.898-10-25.5 90.283 231.445 446.975 166.538 449-87 3.914 53.49-16.745 107.724-50 149"/><path fill="#53808a" d="M184.5 489c27.931-2.27 29.442 43.56 7 48-32.28 6.386-35.493-45.684-7-48m-2 3c-22.235 3.836-18.8 43.857 4 43 25.559-.961 24.641-47.942-4-43"/><path fill="#0a3a50" d="M182.5 492c28.641-4.942 29.559 42.039 4 43-22.8.857-26.235-39.164-4-43m0 3c-19.777 3.084-16.431 39.583 5 38 20.37-1.505 22.187-42.239-5-38"/><path fill="#26b6d4" d="M847 516c-11.275 1.462-25.842-4.391-22 12-.093-.211-2.181-.153-3-3.5-.667-2.729.478-7.456 0-10.5 2.839-7.142 6.466-23.044 16.5-21 7.653 1.559 8.5 17.285 8.5 23"/><path fill="#07c0e4" d="M182.5 495c27.187-4.239 25.37 36.495 5 38-21.431 1.583-24.777-34.916-5-38m-9.5 15c-2.299 17.38 21.401 24.28 26 6 5.31-21.107-23.669-23.62-26-6"/><path fill="#1ea3c0" d="M199 516c-10.061 1.437-16.922-10.036-26-6 2.331-17.62 31.31-15.107 26 6"/><path fill="#66ccde" d="M199 516c-4.599 18.28-28.299 11.38-26-6 9.078-4.036 15.939 7.437 26 6"/><path fill="#3fb4ce" d="M692 572c-3.871 6.911-5.796 13.37-11 20.5-27.187 37.252-55.543 52.779-93 76.5-83.373 30.628-174.606 6.378-233-59.5-20.372-22.983-26.17-35.739-35-64.5 24.776 2.823 42.299 39.14 69 30 36.256 45.893 96.456 64.373 153 54 10.75-1.972 24.468-5.494 34-11 10.66 18.485 53.372 21.65 65 4.5 7.494-11.052 10.272-42.488-6-46.5 1.936-3.952 3.16-7.489 3-12 7.887-9.314 13.021-21.482 17-33 2.226-6.442 4.729-13.3 6-20 15.294 5.893 19.326 35.589 37 37.5z"/><path fill="#21586d" d="M825 528c4.327 9.756 7.01 10.957 18 10 4.415-.384 7.528-1.117 11-4-.101.335.564 3.422 0 7-5.381.626-9.354 2.051-15 2-17.03-.154-14.706-8.773-20-22 1.266-3.835 1.953-4.365 3-7 .478 3.044-.667 7.771 0 10.5.819 3.347 2.907 3.289 3 3.5"/><path fill="#64d5e8" d="M847 516c-.001 8.354.267 14.443-4 22-10.99.957-13.673-.244-18-10-3.842-16.391 10.725-10.538 22-12"/><path fill="#4a666e" d="M154 626c1.324 4.085 3.718 14.222 5 17-29.488-4.72-39.994-27.25-48-53-3.809-12.251-5.016-24.452-7-37 1.151.57 4.464.734 5 1 8.807 4.373 9.119 5.841 18-2.5l10-32c-.274 34.992 6.226 73.267 17 106.5"/><path fill="#698d9b" d="M702 802c-1.299.513-2.167 2.358-3 1.5-.981-2.186-.5-5.74-1-7.5 82.024-49.219 135.526-128.496 153-222.5 1.954-10.511 1.431-22.536 3-32.5.564-3.578-.101-6.665 0-7 .032-.107.61-1.127 1-2 .492-1.103 9.645-9.328 10-13-1.028 78.007-38.782 166.305-91 223.5-13.638 14.938-54.386 52.546-72 59.5"/><path fill="#425c64" d="M913 555c2.025-.925 3.323-1.484 5-3-4.669 28.687-12.161 74.53-41.5 87-3.917 1.665-10.201 3.455-14.5 4 14.498-36.282 21.629-82.658 23-121.5l9 29c6.589 7.661 10.142 8.548 19 4.5"/><path fill="#2298b4" d="M655 531c-3.979 11.518-9.113 23.686-17 33-.038-1.087-1.592-7.941-2-9 5.517-6.608 11.285-17.966 14-26z"/><path fill="#ddf5f9" d="M636 555c.408 1.059 1.962 7.913 2 9 .16 4.511-1.064 8.048-3 12-1.201 2.451-6.007 8.545-8 10-10.89 7.949-23.034 8.231-35 3-13.626-5.957-23.969-20.976-19-36 .83-2.511 9.739-11.702 12-13 16.521-9.48 43.688-3.958 51 15"/><path fill="#325c6c" d="M854 541c-1.569 9.964-1.046 21.989-3 32.5-17.474 94.004-70.976 173.281-153 222.5-3.272-11.523-5.45-20.258-11-31 78.526-47.246 139.992-129.885 152-222 5.646.051 9.619-1.374 15-2"/><path fill="#84abba" d="M268 542c4.107 13.771 8.686 25.146 15 38 22.85 46.518 58.259 84.253 102.5 111l51.5 24c-6.219-.38-11.925.626-18 1l-20.5-6c-69.409-32.869-116.029-93.127-135.5-167Z"/><path fill="#709cae" d="M330 771c-3.441 8.037-9.014 23.506-9 32-89.516-53.268-151.969-150.616-161-255 3.375 16.16 15.905 46.781 23 62.5 29.758 65.93 82.472 127.093 147 160.5"/><path fill="#7ab3c6" d="M704 553c-2.754 13.997-5.881 27.444-4 42-27.209 44.203-73.497 81.708-124 95-2.99-15.786 1.951-14.636 12-21 37.457-23.721 65.813-39.248 93-76.5 5.204-7.13 7.129-13.589 11-20.5.05-.09.88 2.541 2 .5 3.401-6.199 4.866-14.421 10-19.5"/><path fill="#5dc9dc" d="M576 618c4.148-2.396 12.772-4.565 6-11 1.766-1.2 9.644-5.527 10-6.5 1.426-3.898-3.547-7.474 0-9.5.089 1.724.705 8.414 1 9.5.145.534 3.232.048 4 3 .398 1.529-4.495 9.394 2.5 11.5 14.135 4.257 31.253-14.415 27.5-29 1.993-1.455 6.799-7.549 8-10 16.272 4.012 13.494 35.448 6 46.5-11.628 17.15-54.34 13.985-65-4.5"/><path fill="#9ce2ed" d="M592 591c-.034-.659.016-1.34 0-2 11.966 5.231 24.11 4.949 35-3 3.753 14.585-13.365 33.257-27.5 29-6.995-2.106-2.102-9.971-2.5-11.5-.768-2.952-3.855-2.466-4-3-.295-1.086-.911-7.776-1-9.5"/><path fill="#32a6bf" d="M576 618c-9.532 5.506-23.25 9.028-34 11l-1-6c14.192-2.711 28.975-7.828 41-16 6.772 6.435-1.852 8.604-6 11"/><path fill="#8bb1bd" d="M700 632c-29.806 35.026-64.417 61.289-108 77l-4-13c39.558-13.821 77.725-40.387 104-73-.504 4.588 5.073 6.248 8 9"/><path fill="#6a8187" d="M159 626c1.105 3.79 9.705 23.402 9 24.5-2.632 4.099-8.223-5.816-9-7.5-1.282-2.778-3.676-12.915-5-17 3.462-.574 1.188-3.242 5 0"/><path fill="#224252" d="M578 714c.5 1.7 3.554.987 5 1 23.791.217 45.689 2.022 67 13l-3 3c-.96-.139-2.023.083-3 0-21.063-9.161-47.306-9.432-70-7-1.758-3.406-11.366-2.195-14.5-2-16.437 1.022-29.725 2.898-46.5 3 22.105-1.114 43.797-4.835 65-11"/><path fill="#1b3948" d="M437 715c17.516 1.071 35.98 8.699 54 9-7.869-.275-21.688-1.576-28.5-1-.753.064-7.302.949-6.5 3-21.954-3-47.282-3.707-69 1-.7-1.92 3.389-2.771 4.5-3 22.304-4.603 45.444-.055 68-1l-20-6c-19.039-.215-40.012.418-58 7-3.052 1.117-11.808 4.216-11.5 8-2.041.884-9.21 4.76-11 6v-3c20.31-14.603 35.163-17.471 60-19 6.075-.374 11.781-1.38 18-1"/><path fill="#325868" d="M387 727c-4.91 1.064-12.492 3.047-17 5-.308-3.784 8.448-6.883 11.5-8 17.988-6.582 38.961-7.215 58-7l20 6c-22.556.945-45.696-3.603-68 1-1.111.229-5.2 1.08-4.5 3"/><path fill="#4e7685" d="M574 724c-19.086 2.046-38.087 9.189-57.5 10-23.151.967-39.081-5.073-60.5-8-.802-2.051 5.747-2.936 6.5-3 6.812-.576 20.631.725 28.5 1 7.369.258 14.614 1.045 22 1 16.775-.102 30.063-1.978 46.5-3 3.134-.195 12.742-1.406 14.5 2"/><path fill="url(#e)" d="m644 731-48 34c-55.318 7.909-103.845 8.947-159.5 2-15.308-1.911-65.333-14.382-76-12-14.637 3.268-13.839 22.808-3.5 32l-30 20c-.625-.341-1.373-.662-2-1 3.521-23.214 13.722-53.954 34-68 1.79-1.24 8.959-5.116 11-6 4.508-1.953 12.09-3.936 17-5 21.718-4.707 47.046-4 69-1 21.419 2.927 37.349 8.967 60.5 8 19.413-.811 38.414-7.954 57.5-10 22.694-2.432 48.937-2.161 70 7" style="fill:url(#e)"/>/&gt;<path fill="#010509" d="M687 765c5.55 10.742 7.728 19.477 11 31 .5 1.76.019 5.314 1 7.5.833.858 1.701-.987 3-1.5v4c-10.023 6.227-19.755 12.981-31 17 .033-1.167 1.603-1.017 0-3 7.911-4.098 15.492-9.033 23.5-13 1.361-2.392-.254-5.332-.5-8-1.792-19.469-14.359-44.546-29.5-57-2.119-1.743-15.911-10.77-17.5-11l3-3c15.98 8.232 28.775 21.08 37 37"/><path fill="#547d8d" d="M647 731c1.589.23 15.381 9.257 17.5 11 15.141 12.454 27.708 37.531 29.5 57-4.446 2.48-8.614 5.407-13 8l-18-21c13.568-11.799 5.611-32.659-12.5-32-11.233.408-39.74 8.89-54.5 11l48-34c.977.083 2.04-.139 3 0"/><path fill="#020508" d="M359 735v3c-20.278 14.046-30.479 44.786-34 68-.182-.098-3.885 1.171-4 1-.193-.286.002-3.015 0-4-.014-8.494 5.559-23.963 9-32 6.707-15.668 15.309-26.156 29-36"/><path fill="#01060b" d="M663 786c-4.475 3.891-9.671 4.364-15 6-25.143 7.719-59.624 12.413-86 15-60.111 5.896-123.34 2.446-182-12-8.918-2.196-15.343-1.193-23-8-10.339-9.192-11.137-28.732 3.5-32 10.667-2.382 60.692 10.089 76 12 55.655 6.947 104.182 5.909 159.5-2 14.76-2.11 43.267-10.592 54.5-11 18.111-.659 26.068 20.201 12.5 32m-18-27c-41.308 5.927-79.452 16.148-122.5 17-46.992.93-89.158-9.387-134.5-13-10.413-2.155-20.904-7.433-30-1-7.217 5.104-6.065 13.098-1 19.5 6.48 8.19 64.316 17.787 77.5 19.5 59.123 7.683 116.027 5.472 174.5-5 11.113-1.99 42.669-6 50.5-12 8.025-6.148 8.306-17.595.5-23-6.438-4.458-7.701-3.047-15-2"/><path fill="#0f8bae" d="M660 761c7.108 7.848 4.358 23.753-8 23.5 1.527-1.898 7.366-15.232 3.5-15.5-1.364-.095-1.536 4-2 4-.279 0-.852-3.229-2.5-5-1.92-2.064-3.063-3.696-6-4.5l5-1-5-3.5c7.299-1.047 8.562-2.458 15 2"/><path fill="#12b8d7" d="M388 763c-5.909-.471-13.236.248-19.5-1l-4.5 3.5-.5 5.5c1.117-6.956 11.043-9.787 16-6 2.189 1.672-.133 5.041.5 7-.882.336-5.206 2.916-4 4.5 63.266 10.726 125.836 18.984 190.5 12.5 17.237-1.728 58.749-6.52 74-11 5.431-1.595 4.575-3.299 6.5-6 .966-1.356.512-3.414 4-4 1.648 1.771 2.221 5 2.5 5 .464 0 .636-4.095 2-4 3.866.268-1.973 13.602-3.5 15.5 12.358.253 15.108-15.652 8-23.5 7.806 5.405 7.525 16.852-.5 23-7.831 6-39.387 10.01-50.5 12-27.508.329-55.516 5.432-83.5 6-28.84.585-142.283-6.564-163-22-6.76-5.037-6.214-10.324-4.5-18 9.096-6.433 19.587-1.155 30 1"/><path fill="#0ba9c8" d="M651 768c-3.488.586-3.034 2.644-4 4-4.219 3.242-6.488 1.913-12 3-48.883 4.467-97.011 13.52-146.5 11-16.111-.82-103.245-16.003-108.5-14-.633-1.959 1.689-5.328-.5-7-4.957-3.787-14.883-.956-16 6l.5-5.5 4.5-3.5c6.264 1.248 13.591.529 19.5 1 45.342 3.613 87.508 13.93 134.5 13 43.048-.852 81.192-11.073 122.5-17l5 3.5-5 1c2.937.804 4.08 2.436 6 4.5"/><path fill="#baf2fa" d="M358 762c-1.714 7.676-2.26 12.963 4.5 18 20.717 15.436 134.16 22.585 163 22 27.984-.568 55.992-5.671 83.5-6-58.473 10.472-115.377 12.683-174.5 5-13.184-1.713-71.02-11.31-77.5-19.5-5.065-6.402-6.217-14.396 1-19.5"/><path fill="#bbf1f7" d="M635 775c-85.56 16.87-166.847 16.565-252.5 0-2.116-.846-1.938-1.26-2.5-3 5.255-2.003 92.389 13.18 108.5 14 49.489 2.52 97.617-6.533 146.5-11"/><path fill="#011c27" d="M635 775c5.512-1.087 7.781.242 12-3-1.925 2.701-1.069 4.405-6.5 6-15.251 4.48-56.763 9.272-74 11-64.664 6.484-127.234-1.774-190.5-12.5-1.206-1.584 3.118-4.164 4-4.5.562 1.74.384 2.154 2.5 3 85.653 16.565 166.94 16.87 252.5 0"/><path fill="url(#f)" d="M681 807c-78.263 46.266-160.244 53.391-249 38l83-27c15.935-.204 32.195-2.122 48-4 16.533-1.965 73.931-10.387 85.5-19 2.99-2.226.075-1.41-.5-3 5.329-1.636 10.525-2.109 15-6z" style="fill:url(#f)"/>/&gt;<path fill="#638ea1" d="m380 795-2.5 3c43.016 14.058 92.066 20.581 137.5 20l-83 27c-6.951-1.205-15.171-4.716-22-2-33.447-9.079-53.242-19.775-83-36l30-20c7.657 6.807 14.082 5.804 23 8"/><path fill="#79a0af" d="m563 814-1-7c26.376-2.587 60.857-7.281 86-15 .575 1.59 3.49.774.5 3-11.569 8.613-68.967 17.035-85.5 19"/><path fill="#97bac9" d="m562 807 1 7c-15.805 1.878-32.065 3.796-48 4-45.434.581-94.484-5.942-137.5-20l2.5-3c58.66 14.446 121.889 17.896 182 12"/><path fill="#6c93a2" d="M671 820c-78.008 40.407-176.873 45.836-261 23 6.829-2.716 15.049.795 22 2 88.756 15.391 170.737 8.266 249-38 4.386-2.593 8.554-5.52 13-8 .246 2.668 1.861 5.608.5 8-8.008 3.967-15.589 8.902-23.5 13"/><path fill="#083e56" d="M325 806c.627.338 1.375.659 2 1 29.758 16.225 49.553 26.921 83 36 84.127 22.836 182.992 17.407 261-23 1.603 1.983.033 1.833 0 3-.009.311-.06.705 0 1-12.425 4.444-24.721 12.624-37 17-11.718 4.176-25.805 7.115-38 10-57.631 13.634-101.038 11.706-159 2-11.937-1.999-26.061-7.007-37-8-11.686-4.002-23.139-9.554-35-13-15.692-6.759-29.642-16.09-44-25 .115.171 3.818-1.098 4-1"/></svg>