<svg xmlns="http://www.w3.org/2000/svg" width="1024" height="1024"><defs><linearGradient id="a" x1="787.98" x2="715.561" y1="171.023" y2="186.234" gradientUnits="userSpaceOnUse"><stop offset="0%" style="stop-color:#006879"/><stop offset="100%" style="stop-color:#008099"/></linearGradient></defs><defs><linearGradient id="b" x1="744.63" x2="726.971" y1="260.908" y2="320.339" gradientUnits="userSpaceOnUse"><stop offset="0%" style="stop-color:#33525f"/><stop offset="100%" style="stop-color:#427a88"/></linearGradient></defs><defs><linearGradient id="c" x1="708.964" x2="381.609" y1="312.162" y2="332.724" gradientUnits="userSpaceOnUse"><stop offset="16.768%" style="stop-color:#78a9b4"/><stop offset="55.488%" style="stop-color:#cde1e5"/><stop offset="89.634%" style="stop-color:#f6fafb"/></linearGradient></defs><defs><linearGradient id="d" x1="614.559" x2="408.926" y1="527.4" y2="539.69" gradientUnits="userSpaceOnUse"><stop offset="0%" style="stop-color:#055c8d"/><stop offset="43.689%" style="stop-color:#113662"/><stop offset="100%" style="stop-color:#066da1"/></linearGradient></defs><defs><linearGradient id="e" x1="505.769" x2="517.985" y1="475.225" y2="585.551" gradientUnits="userSpaceOnUse"><stop offset="0%" style="stop-color:#191228"/><stop offset="100%" style="stop-color:#19244a"/></linearGradient></defs><defs><linearGradient id="f" x1="195.99" x2="330.732" y1="638.709" y2="756.546" gradientUnits="userSpaceOnUse"><stop offset="0%" style="stop-color:#d2e2e8"/><stop offset="100%" style="stop-color:#639ead"/></linearGradient></defs><defs><linearGradient id="g" x1="509.679" x2="556.389" y1="787.911" y2="793.129" gradientUnits="userSpaceOnUse"><stop offset="0%" style="stop-color:#812b48"/><stop offset="100%" style="stop-color:#5d1228"/></linearGradient></defs><path fill="#013849" d="m307 257-6 .5 19 41.5c-7.306-13.227-15.172-25.647-21-39.5-2.757-2.869-2.448-.591-4-.5-5.511.323-14.654 3.197-21 4-3.166.4-6.803-.35-10 0-1.019.112-1.311-2.028-3 .5 1.447 2.613.746 4.881 1 7.5l1 41c-1.251-6.749-8.023-46.8-10-49.5-1.303-1.779-19.411-6.454-23.5-8.5-97.388-48.729-33.743-196.877 71-158 70.556 26.188 74.272 126.565 6 158-1.427 1.246.288 1.851.5 3M200 130c-3.776 5.501-5.335 7.672-8 14-7.747 18.397-11.566 57.995 4 73-.185 2.205 2.032 3.427 3 5 4.714 7.663 10.158 15.261 18 20 11.943 11.14 30.359 17.636 47 18 41.211.902 81.533-31.57 86-73 2.965-27.501-7.562-52.803-28-71-39.024-34.746-92.495-28.98-122 14"/><path fill="#71d4e9" d="m322 116-3 3c-4.927-5.2-9.618-7.948-16-11-6.586-3.15-11.777-4.753-19-6-12.71-2.194-29.197-4.147-40 3-13.644 1.533-27.912 11.122-35 23-2.852-3.286-4.664 3.662-9 2 29.505-42.98 82.976-48.746 122-14"/><path fill="#08202a" d="M745 351c-.705-.657-3.891-2.107-6-4l16-86c.567-3.402 2.656-6.179.5-10-6.864.3-13.739-.446-20.5-1-2.71-.222-4.427-2.438-8-2-1.032.127-.827-1.258-2-.5-1.279.826-13.754 20.283-16 23.5l-1-2.5c-7.733 9.926-14.747 20.837-24 29.5 12.401-15.145 22.804-37.569 35-53.5-54.174-22.282-65.673-98.451-18.5-134.5 29.596-22.617 70.781-18.857 99 4 52.317 42.377 30.37 123.436-34.5 136.5zm-66-206c-6.761 18.696-7.093 31.043-1 50 3.849 11.976 9.56 20.923 18 30 7.774 8.361 11.613 11.279 22 16 77.98 35.445 143.159-66.706 80-123-9.231-8.228-16.098-12.438-28-16-38.885-11.637-76.866 3.915-91 43"/><path fill="#37cdec" d="m770 102 1 5c-3.624-1.11-9.488-3.609-13-4-11.657-1.297-27.249-.39-37 6-5.375 1.654-13.812 8.075-18 12-6.406 6.003-12.881 14.311-15 23-1.708.033-6.304 2.006-9 1 14.134-39.085 52.115-54.637 91-43"/><path fill="#00a9d1" d="M284 102c45.941 43.799 9.206 116.153-49.5 120-4.381.287-14.933-.013-18.5-3 9.778-3.486 30.474-12.686 38.5-19 22.098-17.385 41.286-63.031 15.5-84-3.249-11.858-16.132-12.109-26-11 10.803-7.147 27.29-5.194 40-3"/><path fill="#0086a2" d="M303 108c13.433 12.724 22.419 26.149 24 45 3.222 38.405-28.19 75.606-67 79-15.336 1.341-35.065-1.433-47-12a91 91 0 0 0 3-1c3.567 2.987 14.119 3.287 18.5 3 58.706-3.847 95.441-76.201 49.5-120 7.223 1.247 12.414 2.85 19 6"/><path fill="#2eafc8" d="m798 118-2 4c-3.617-4.036-6.966-5.318-11-8-7.164-4.763-5.219-4.31-14-7l-1-5c11.902 3.562 18.769 7.772 28 16"/><path fill="#00a9d0" d="M758 103c35.924 29.778 25.859 88.244-18.5 103-10.073 3.351-26.034-.397-23.5 13-12.92-2.641-20.826-7.427-30.5-16-3.725 1.913 12.395 19.513 10.5 22-8.44-9.077-14.151-18.024-18-30 25.37 6.403 53.038.509 70-20.5 12.683-15.709 20.839-46.776 0-58.5-4.521-9.681-18.079-9.746-27-7 9.751-6.39 25.343-7.297 37-6"/><path fill="#008fad" d="M771 107c8.781 2.69 6.836 2.237 14 7 1.779 7.511 8.458 13.258 11 20.5 17.692 50.41-30.063 94.706-80 84.5-2.534-13.397 13.427-9.649 23.5-13 44.359-14.756 54.424-73.222 18.5-103 3.512.391 9.376 2.89 13 4"/><path fill="#dbf0f3" d="M270 116c8.338 30.433-54.605 58.662-63 21 .639-1.232 1.394-7.985 2-9 7.088-11.878 21.356-21.467 35-23 9.868-1.109 22.751-.858 26 11m-39.5-2c-.582.261-8.332 8.885-8.5 9.5-2.806 10.251 14.301 15.881 21.5 11.5 11.781-7.169-.139-26.762-13-21"/><path fill="#dff1f4" d="M748 116c3.405 7.291 1.388 9.701-1 16 12.32-29.747-46.36-15.818-42-1.5 2.569 8.435 32.033 2.294 39 7.5-7.303 9.779-20.371 14.66-32.5 13-2.897-.397-7.843-4.663-9.5-5-7.254-7.32-4.176-17.266 1-25 4.188-3.925 12.625-10.346 18-12 8.921-2.746 22.479-2.681 27 7"/><path fill="#007b95" d="M319 119c8.987 9.485 14.231 22.488 17 35l-9-1c-1.581-18.851-10.567-32.276-24-45 6.382 3.052 11.073 5.8 16 11"/><path fill="#fafcfd" d="M230.5 114c12.861-5.762 24.781 13.831 13 21-7.199 4.381-24.306-1.249-21.5-11.5.168-.615 7.918-9.239 8.5-9.5"/><path fill="url(#a)" d="M796 122c40.576 45.282 10.49 114.749-48.5 121l-29.5-2c-10.387-4.721-14.226-7.639-22-16 1.895-2.487-14.225-20.087-10.5-22 9.674 8.573 17.58 13.359 30.5 16 49.937 10.206 97.692-34.09 80-84.5-2.542-7.242-9.221-12.989-11-20.5 4.034 2.682 7.383 3.964 11 8" style="fill:url(#a)"/>/&gt;<path fill="#f9fcfc" d="M747 132c-1.023 2.7-1.144 3.514-3 6-6.967-5.206-36.431.935-39-7.5-4.36-14.318 54.32-28.247 42 1.5"/><path fill="#4ccde3" d="M216 219c-.888.317-2.113.722-3 1-3.668 1.149-10.027 1.766-14 2-.968-1.573-3.185-2.795-3-5 .115.111 2.705-.659 2.5 2 3.337-3.394.47-5.871.5-6.5.514-10.852-2.635-9.861-4-19-2.626-17.587-.396-32.122 6-48.5.748-1.916 4.881-5.844 6-8 8.395 37.662 71.338 9.433 63-21 25.786 20.969 6.598 66.615-15.5 84-8.026 6.314-28.722 15.514-38.5 19"/><path fill="#008aaa" d="M350 187c-5.402 7.431-7.21 16.596-12 24.5-20.361 33.597-39.964 32.986-71.5 44.5-2.883 1.053-2.815-.503-2.5 4-16.641-.364-35.057-6.86-47-18-.209-4.43 5.238 3.398 6.5 4 11.404 5.441 24.747 7.415 37.5 7 52.506-1.708 86.187-48.454 75-99-2.769-12.512-8.013-25.515-17-35l3-3c20.438 18.197 30.965 43.499 28 71"/><path fill="#4fd2e9" d="M678 195c-6.093-18.957-5.761-31.304 1-50 2.696 1.006 7.292-.967 9-1 4.693-.09 9.491 1.082 14 2 1.657.337 6.603 4.603 9.5 5 12.129 1.66 25.197-3.221 32.5-13 1.856-2.486 1.977-3.3 3-6 2.388-6.299 4.405-8.709 1-16 20.839 11.724 12.683 42.791 0 58.5-16.962 21.009-44.63 26.903-70 20.5"/><path fill="#0086a3" d="m718 241 29.5 2c58.99-6.251 89.076-75.718 48.5-121l2-4c63.159 56.294-2.02 158.445-80 123"/><path fill="#07acd1" d="M702 146c-4.509-.918-9.307-2.09-14-2 2.119-8.689 8.594-16.997 15-23-5.176 7.734-8.254 17.68-1 25"/><path fill="#0ebde2" d="M209 128c-.606 1.015-1.361 7.768-2 9-1.119 2.156-5.252 6.084-6 8l-9-1c2.665-6.328 4.224-8.499 8-14 4.336 1.662 6.148-5.286 9-2"/><path fill="#2ac9e9" d="M201 145c-6.396 16.378-8.626 30.913-6 48.5 1.365 9.139 4.514 8.148 4 19-.03.629 2.837 3.106-.5 6.5.205-2.659-2.385-1.889-2.5-2-15.566-15.005-11.747-54.603-4-73z"/><path fill="#006476" d="M336 154c11.187 50.546-22.494 97.292-75 99l-1-21c38.81-3.394 70.222-40.595 67-79z"/><path fill="#02687c" d="M350 187c-4.467 41.43-44.789 73.902-86 73-.315-4.503-.383-2.947 2.5-4 31.536-11.514 51.139-10.903 71.5-44.5 4.79-7.904 6.598-17.069 12-24.5"/><path fill="#007b95" d="M213 220c11.935 10.567 31.664 13.341 47 12l1 21c-12.753.415-26.096-1.559-37.5-7-1.262-.602-6.709-8.43-6.5-4-7.842-4.739-13.286-12.337-18-20 3.973-.234 10.332-.851 14-2"/><path fill="#f8fafb" d="M727 248c-8.455 11.623-14.6 24.763-22 37-4.842 8.008-10.887 15.508-15 24-.489-.421-4.142-.581-4-3.5 8.436-10.994 15.103-23.189 23-34.5 2.246-3.217 14.721-22.674 16-23.5 1.173-.758.968.627 2 .5"/><path fill="#7da1ac" d="M735 250c-4.526 12.142-7.96 24.695-12 37-3.623-1.783-.184 3.683-6.5 3-2.193-.237-8.007-5.826-11.5-5 7.4-12.237 13.545-25.377 22-37 3.573-.438 5.29 1.778 8 2"/><path fill="url(#b)" d="M755 261c-4.232 25.406-17.652 53.364-23 79-6.174-5.27-14.554-12-21-17 3.519-12.144 8.061-24.003 12-36 4.04-12.305 7.474-24.858 12-37 6.761.554 13.636 1.3 20.5 1 2.156 3.821.067 6.598-.5 10" style="fill:url(#b)"/>/&gt;<path fill="#01465a" d="M307 257c.51 2.763 24.719 48.602 27.5 49 19.08-12.409 40.363-21.996 62-29 5.118-1.657 11.736-1.657 16.5-3v1c-10.434 1.362-19.458 6.244-29 10-1.093.43-1.863.945-2 1-17.975 7.254-35.411 14.749-52 25-.042-.62-3.809-1.077-4-1-1.564-3.894-3.992-7.364-6-11l-19-41.5z"/><path fill="url(#c)" d="M684 298c9.253-8.663 16.267-19.574 24-29.5l1 2.5c-7.897 11.311-14.564 23.506-23 34.5-.142 2.919 3.511 3.079 4 3.5 6.383 5.494 14.942 9.301 21 14 6.446 5 14.826 11.73 21 17 2.108 1.8 4.519 4.773 7 7 2.109 1.893 5.295 3.343 6 4 9.82 9.143 23.2 24.498 32 35-4.911 3.212-6.043-.867-11-3-22.035-15.31-45.372-28.387-70.5-38-21.051-8.053-56.296-19.723-78-24-3.128-.616-8.515-1.932-10.5 1-102.552-22.465-259.455.934-343 68 11.495-12.636 27.231-22.414 42-31 21.963-12.769 42.968-20.158 65.5-29-11.298 2.152-22.806 6.188-35 5-5.854-6.109 10.989-6.171 9.5-12 41.164-22.779 81.081-36.266 126-50l-.5-3c-19.42.979-39.242 4.453-58 10l-.5-5v-1c10.771-3.036 21.473-7.744 32.5-10 79.831-16.332 163.979-2.023 234 39 2.237-.12 3.062-3.244 4.5-5" style="fill:url(#c)"/>/&gt;<path fill="#244a56" d="M320 299c2.008 3.636 4.436 7.106 6 11-.311.126-5.716 2.822-6 3-4.355-7.194-8.553-15.358-12-23-4.568-10.128-8.331-20.886-13-31 1.552-.091 1.243-2.369 4 .5 5.828 13.853 13.694 26.273 21 39.5"/><path fill="#3b5763" d="M295 259c4.669 10.114 8.432 20.872 13 31l-23 6a672 672 0 0 1-11-33c6.346-.803 15.489-3.677 21-4"/><path fill="#255a68" d="M739 347c-2.481-2.227-4.892-5.2-7-7 5.348-25.636 18.768-53.594 23-79z"/><path fill="#fafcfd" d="m264 263 16 82c-.4.314.57 1.95-4 4-1.354-26.314-11.484-52.031-14-78-.254-2.619.447-4.887-1-7.5 1.689-2.528 1.981-.388 3-.5"/><path fill="#7eadbb" d="M274 263a672 672 0 0 0 11 33c4.011 11.071 8.158 22.259 13 33-4.427 3.437-10.326 11.187-15 15-1.034.843-2.876.902-3 1l-16-82c3.197-.35 6.834.4 10 0"/><path fill="#c2e0e8" d="M472 273c-4.019-1.752-11.208-.65-15.5 0-36.988 5.601-83.836 23.145-115.5 43-1.314-3.025-1.635-1.727-3.5-1-5.345 2.083-55.576 39.777-53.5 42.5 6.831 2.399 16.424-2.188 22 1.5-14.769 8.586-30.505 18.364-42 31-3.396 2.726-6.531 5.83-10 8.5l6-.5c-14.109 8.788-26.661 20.108-41 28.5 19.358-28.041 39.888-57.277 65-80.5 12.872-11.903 31.081-25.781 46-35 16.589-10.251 34.025-17.746 52-25l1.5 5 .5-6c9.542-3.756 18.566-8.638 29-10l.5 5c18.758-5.547 38.58-9.021 58-10z"/><path fill="#5ca0b2" d="M276 349c-1.785.801-2.832 1.388-5 1-.25-9.223-6.096-27.725-8-38l-1-41c2.516 25.969 12.646 51.686 14 78"/><path fill="#fcfdfd" d="M472 273c-44.919 13.734-84.836 27.221-126 50-16.372 9.06-31.815 19.213-48 28.5 12.85-13.493 27.217-25.603 43-35.5 31.664-19.855 78.512-37.399 115.5-43 4.292-.65 11.481-1.752 15.5 0"/><path fill="#a8cdd6" d="m384 285-.5 6-1.5-5c.137-.055.907-.57 2-1"/><path fill="#90c1cd" d="M723 287c-3.939 11.997-8.481 23.856-12 36-6.058-4.699-14.617-8.506-21-14 4.113-8.492 10.158-15.992 15-24 3.493-.826 9.307 4.763 11.5 5 6.316.683 2.877-4.783 6.5-3"/><path fill="#436a76" d="M308 290c3.447 7.642 7.645 15.806 12 23-4.49 2.814-17.431 12.453-22 16-4.842-10.741-8.989-21.929-13-33z"/><path fill="#076278" d="M330 311c-14.919 9.219-33.128 23.097-46 35l-1-2c4.674-3.813 10.573-11.563 15-15 4.569-3.547 17.51-13.186 22-16 .284-.178 5.689-2.874 6-3 .191-.077 3.958.38 4 1"/><path fill="#6caabb" d="M607 322c10.025 2.196 20.063 5.36 30 8l1 5c-125.324-32.311-268.862-4.981-378 63l-6 .5c3.469-2.67 6.604-5.774 10-8.5 83.545-67.066 240.448-90.465 343-68"/><path fill="#e0f0f4" d="M341 316c-15.783 9.897-30.15 22.007-43 35.5 16.185-9.287 31.628-19.44 48-28.5 1.489 5.829-15.354 5.891-9.5 12 12.194 1.188 23.702-2.848 35-5-22.532 8.842-43.537 16.231-65.5 29-5.576-3.688-15.169.899-22-1.5-2.076-2.723 48.155-40.417 53.5-42.5 1.865-.727 2.186-2.025 3.5 1"/><path fill="#023e53" d="M638 335c57.227 14.754 108.342 44.95 158 76 1.078 1.642 1.984 3.343 3 5l-4 1.5c-57.042-43.94-125.205-74.474-196.5-86.5-.789-.133-8.051-1.692-7.5 1-48.34-10.413-99.126-8.874-146 2-.576-2.795-9.879-.363-11.5 0-77.726 17.39-159.307 52.008-220 104l-3.5-1c17.632-29.743 34.671-57.273 61-80.5-.04-2.165.058-4.346 0-6.5 2.168.388 3.215-.199 5-1 4.57-2.05 3.6-3.686 4-4 .124-.098 1.966-.157 3-1l1 2c-25.112 23.223-45.642 52.459-65 80.5 14.339-8.392 26.891-19.712 41-28.5 109.138-67.981 252.676-95.311 378-63"/><path fill="#7aeff8" d="M766 383c-19.594-8.43-38.05-22.384-58.5-31-21.683-9.135-47.67-15.934-70.5-22-9.937-2.64-19.975-5.804-30-8 1.985-2.932 7.372-1.616 10.5-1 21.704 4.277 56.949 15.947 78 24 25.128 9.613 48.465 22.69 70.5 38"/><path fill="#67919b" d="M591 332c53.716 11.571 159.858 56.298 200.5 93 2.766 2.498 5.437 3.969 3.5 8-30.732-14.038-56.977-25.563-89-37-27.783-9.923-55.823-20.637-85-26-6.547-4.326-13.965-8.487-21-12-59.687-29.804-124.597-28.082-183 4-24.143 4.348-46.582 14.723-69 24-24.674 10.21-46.354 20.749-70 33-4.633 2.4-9.366 4.482-14 7-9.553 5.192-23.593 10.762-32 17v-1c68.237-58.285 124.964-87.578 213-108 46.874-10.874 97.66-12.413 146-2"/><path fill="#3a6b76" d="M799 416c3.67 5.984 10.484 14.203 12 21-.526 3.246-8.541-.017-11-1-.818-.327-2.59-1.371-4-2-.065-.029.336-.39-1-1 1.937-4.031-.734-5.502-3.5-8-40.642-36.702-146.784-81.429-200.5-93-.551-2.692 6.711-1.133 7.5-1 71.295 12.026 139.458 42.56 196.5 86.5z"/><path fill="#4999aa" d="M766 383c4.957 2.133 6.089 6.212 11 3 6.952 8.296 13.033 15.91 19 25-49.658-31.05-100.773-61.246-158-76l-1-5c22.83 6.066 48.817 12.865 70.5 22 20.45 8.616 38.906 22.57 58.5 31"/><path fill="#346773" d="M445 334c-88.036 20.422-144.763 49.715-213 108-7.445 6.359-16.795 10.023-23 19-1.338-.937-2.821-1.447-4 0-9.594-12.096-.043-15.493 5-24l3.5 1c60.693-51.992 142.274-86.61 220-104 1.621-.363 10.924-2.795 11.5 0"/><path fill="#034658" d="M600 358c-1.707 1.582 1.491 3.34 2.5 4 76.387 49.96 123.714 117.741 109.5 212-3.01.511-8.911-1.355-11 1.5-1.074 1.469-7.481 28.915-10 35-5.515 13.32-16.121 30.141-25 41.5-67.422 86.247-203.408 101.963-286.5 29-10.849-9.527-18.729-21.538-29.5-31-57.217-86.535-43.551-203.118 38-269 9.474-7.654 18.354-13.152 29-19 58.403-32.082 123.313-33.804 183-4M464 711c66.117 17.819 125.193-10.381 176-51-36.426 37.808-79.005 52.198-130 60.5 12.941.314 27.738-2.324 40.5-5.5 44.303-11.026 85.3-38.593 110-77-2.989 2.91-5.547 6.034-8.5 9 13.759-18.258 23.193-38.929 29-61 2.863-10.883 5.358-20.655 6-32 1.58-27.944-3.472-56.579-15-82 .389-2.96 10.23-4.485 10.5-5 2.359-4.494-11.086-26.939-14.5-32 5.854-3.401-2.528-11.266-6-15.5-108.635-132.505-317.965-66.714-338 103-9.958 84.356 58.424 172.338 140 188.5"/><path fill="#002834" d="M668 435c-20.234-29.997-48.966-50.638-81.5-65-1.031-.455.03-2.565-1-3-32.536-13.753-77.763-16.184-112.5-8-180.612 42.551-190.915 302.974-9 352-81.576-16.162-149.958-104.144-140-188.5 20.035-169.714 229.365-235.505 338-103 3.472 4.234 11.854 12.099 6 15.5"/><path fill="#005d78" d="M668 435c3.414 5.061 16.859 27.506 14.5 32-.27.515-10.111 2.04-10.5 5-29.271-64.545-95.805-103.679-166-102-11.731.281-19.044.497-31 3l-2-14c34.737-8.184 79.964-5.753 112.5 8 1.03.435-.031 2.545 1 3 32.534 14.362 61.266 35.003 81.5 65"/><path fill="#0b2e38" d="M621 370c83.224 54.991 121.519 164.956 76 257 5.531-13.107 12.86-38.806 15-53 14.214-94.259-33.113-162.04-109.5-212-1.009-.66-4.207-2.418-2.5-4 7.035 3.513 14.453 7.674 21 12"/><path fill="#26a4cb" d="m473 359 2 14c-89.538 18.749-146.397 105.46-131 195.5 3.366 19.681 11.169 39.684 34.5 39.5l1-2c-69.108-105.883 8.899-194.503 111-228 4.841-1.588 16.704-.285 15.5-8 70.195-1.679 136.729 37.455 166 102 11.528 25.421 16.58 54.056 15 82l-20-.5c1.577 4.036-4.788 26.826-4 28 .627.934 15.488 2.644 18 4.5-5.807 22.071-15.241 42.742-29 61-2.257 2.267-6.486 4.354-7 8-1.182 1.361-3.484 3.426-5 5-50.807 40.619-109.883 68.819-176 51-181.915-49.026-171.612-309.449 9-352m-64 219c58.21 123.856 264.508 62.313 201-102.5-.573-1.488-1.201-3.086-3-1.5-4.177-17.811-20.993-36.634-40-38-35.024-19.509-83.218-19.254-117 3 16.752-47.571-28.005-24.548-46.5-7-20.042 19.015-35.962 50.73-37.5 78.5-1.787 32.265 12.712 84.855 51 88z"/><path fill="#a5bfc6" d="M417 362c-10.646 5.848-19.526 11.346-29 19-34.77 23.532-58.801 62.717-70 103-.157-5.409-6.138-5.814-11-8 6.954-33.264 19.62-63.456 41-90 22.418-9.277 44.857-19.652 69-24"/><path fill="#bdd2d8" d="M506 370c1.204 7.715-10.659 6.412-15.5 8-102.101 33.497-180.108 122.117-111 228l-1 2c-23.331.184-31.134-19.819-34.5-39.5-15.397-90.04 41.462-176.751 131-195.5 11.956-2.503 19.269-2.719 31-3"/><path fill="#99c1cb" d="M706 396c-3.717 7.759-1.622 17.99-3 26.5-.416 2.57-4.974 7.529-5 8-.125 2.255 18.239 33.34 21 40 16.865 40.68 23.823 85.477 20 129.5-13.593 19.086-28.115 37.165-40 57.5-53.175 90.98-67.891 205.547-192 233.5l-3-10.5c3.97-2.886 8.814-.765 13-1.5 15.53-2.728 29.675-8.068 38-22.5-.414-.939-4.344 1.191-5 1.5 18.827-21.555 30.986-45.462 41-72 .588-1.558 8.493-15.42 4.5-16-9.154 9.127-20.122 5.955-30.5 1-1.31-.64-.936-.971-1-1 .08-12.267 15.265-23.372 13-38 39.646-12.286 77.869-40.431 102-74 6.787-9.441 13.469-20.263 18-31 45.519-92.044 7.224-202.009-76-257 29.177 5.363 57.217 16.077 85 26"/><path fill="#fafdfd" d="M388 381c-81.551 65.882-95.217 182.465-38 269 16.741 25.319 43.463 51.029 70 66l-2 5c-14.599-8.585-25.826-17.483-39-28-48.237-47.011-73.17-111.717-67-179.5.73-8.021 6.182-23.261 6-29.5 11.199-40.283 35.23-79.468 70-103"/><path fill="#d5e9ee" d="M348 386c-21.38 26.544-34.046 56.736-41 90-14.635 70.004-4.227 142.619 46 196-6.083 5.582-9.93 13.935-18 17-7.789-9.594-16.18-18.958-25.5-27-1.809-.62-.553 2.857-.5 3-23.569-35.93-70.48-52.43-98.5-81-11.19-11.41-8.531-11.403-13.5-25l7.5-5 25.5 34.5 2-1c-4.544-57.161 15.855-117.533 49-164l-3-4.5c23.646-12.251 45.326-22.79 70-33"/><path fill="#7faeb8" d="M795 433c1.336.61.935.971 1 1-.186 50.48-10.531 99.78-38 142.5-5.485 8.53-13.601 15.92-19 23.5 3.823-44.023-3.135-88.82-20-129.5-2.761-6.66-21.125-37.745-21-40 .026-.471 4.584-5.43 5-8 1.378-8.51-.717-18.741 3-26.5 32.023 11.437 58.268 22.962 89 37"/><path fill="#dde9eb" d="M450 439c-43.025 28.343-63.173 91.821-41 139l8 20.5c-38.288-3.145-52.787-55.735-51-88 1.538-27.77 17.458-59.485 37.5-78.5 18.495-17.548 63.252-40.571 46.5 7"/><path fill="#fafdfd" d="m278 419 3 4.5c-33.145 46.467-53.544 106.839-49 164l-2 1-25.5-34.5-7.5 5c-1.597-4.371-4.034-8.283-5-13-.46-2.247-1.978-7.774-2-9-.008-.427 2.644-3.168 3-8 3.553-11.015 6.001-22.631 10-33.5 4.749-12.908 15.266-38.696 24-47.5l2.5 7 34.5-29c4.634-2.518 9.367-4.6 14-7"/><path fill="url(#d)" d="M567 436c-20.476-1.472-33.325 13.226-34 33-13.976-2.628-28.892-4.922-43-1 3.595-29.215-29.009-7.87-39.5 1-21.292 18.002-35.638 51.963-27.5 79.5 3.824 12.939 18.741 15.111 22 .5 14.984 62.164 116.744 62.637 132-2.5 2.077-8.866-.322-18.254 3-26.5 24.103-1.369 31.774-25.644 27-46 1.799-1.586 2.427.012 3 1.5C673.508 640.313 467.21 701.856 409 578c-22.173-47.179-2.025-110.657 41-139 33.782-22.254 81.976-22.509 117-3" style="fill:url(#d)"/>/&gt;<path fill="#d6eaee" d="M227 448c1.79-1.804 2.842-3.399 5-5 8.407-6.238 22.447-11.808 32-17l-34.5 29z"/><path fill="#669199" d="M800 436c.821 4.327 7.579 19.987 11 12l29 85-8.5-2c-1.839 1.785.541 3.803.5 4-.643 3.1-1.917 8.077-3 11-.07.188-2.659-.467-3 .5-7.593 21.523-1.866 24.897-21.5 41.5-14.409 12.184-33.016 19.438-46.5 33-5.932 4.34-12.278 9.359-18 14-42.874 34.774-83.056 99.253-77 156 1.773 16.613 4.759 25.254 12 40 3.117 6.348 6.152 10.699 10 16.5-77.213 60.43-170.637 75.867-264 45.5 20.597.658 41.368 3.673 62 2 7.091-.575 16.97-2.417 24-4 124.109-27.953 138.825-142.52 192-233.5 11.885-20.335 26.407-38.414 40-57.5 5.399-7.58 13.515-14.97 19-23.5 27.469-42.72 37.814-92.02 38-142.5 1.41.629 3.182 1.673 4 2"/><path fill="#f8f7f7" d="M567 436c19.007 1.366 35.823 20.189 40 38 4.774 20.356-2.897 44.631-27 46-27.347 1.553-47.875-25.37-47-51 .675-19.774 13.524-34.472 34-33"/><path fill="#458798" d="M811 437c.748 3.354 1.355 7.836 0 11-3.421 7.987-10.179-7.673-11-12 2.459.983 10.474 4.246 11 1"/><path fill="#9cb7be" d="M232 442v1c-2.158 1.601-3.21 3.196-5 5-8.734 8.804-19.251 34.592-24 47.5-3.999 10.869-6.447 22.485-10 33.5.842-11.429 2.525-22.606 3-34 3.636-10.931 6.37-24.407 13-34 6.205-8.977 15.555-12.641 23-19"/><path fill="#dee0e2" d="M490 468c-32.316 8.984-52.728 48.941-45 81-3.259 14.611-18.176 12.439-22-.5-8.138-27.537 6.208-61.498 27.5-79.5 10.491-8.87 43.095-30.215 39.5-1"/><path fill="#055368" d="M209 461c-6.63 9.593-9.364 23.069-13 34-3.983 11.974-7.353 24.268-12 36 .807-10.179 4.964-25.532 8-35.5 1.358-4.458 11.389-32.522 13-34.5 1.179-1.447 2.662-.937 4 0"/><path fill="url(#e)" d="M533 469c-.875 25.63 19.653 52.553 47 51-3.322 8.246-.923 17.634-3 26.5-15.256 65.137-117.016 64.664-132 2.5-7.728-32.059 12.684-72.016 45-81 14.108-3.922 29.024-1.628 43 1m-50.5 15c-17.667.768-16.088 25.996 3 24 15.998-1.673 14.705-24.769-3-24" style="fill:url(#e)"/>/&gt;<path fill="#97aeb5" d="M318 484c.182 6.239-5.27 21.479-6 29.5-6.17 67.783 18.763 132.489 67 179.5-8.57-6.842-17.978-12.475-26-21-50.227-53.381-60.635-125.996-46-196 4.862 2.186 10.843 2.591 11 8"/><path fill="#f5f3f4" d="M482.5 484c17.705-.769 18.998 22.327 3 24-19.088 1.996-20.667-23.232-3-24"/><path fill="#cbe1e7" d="M193 529c-.356 4.832-3.008 7.573-3 8-7.804.063-6.438-.48-6-6 4.647-11.732 8.017-24.026 12-36-.475 11.394-2.158 22.571-3 34"/><path fill="#3d8191" d="M840 533c.428 3.542-5.238 1.51-8 2 .041-.197-2.339-2.215-.5-4z"/><path fill="#034053" d="M197 559c4.969 13.597 2.31 13.59 13.5 25 28.02 28.57 74.931 45.07 98.5 81 3.837 10.327 24.072 33.158 31 46.5 22.247 42.846 32.633 96.309-4 134.5-.653-.058-1.341.027-2 0 4.862-6.043 6.279-8.137 10-15 33.401-61.604-6.019-128.053-48-174-18.922-20.709-32.938-29.186-54-46-20.717-16.539-45.596-30.216-52.5-58-1.203 2.611-1.797 4.661-3.5 7-.178.244-2.398-.523-3 .5-9.409 15.985 8.133 26.704 19 36.5 27.163 24.485 60.203 40.988 85 68.5 44.21 49.051 70.894 117.772 45 182.5-.468.577-4.066 2.841-4 3.5 9.835 6.109 43.495 33.747 53 33.5 57.217 33.763 126.449 38.099 191 27-68.668 18.84-150.324 2.545-211.5-32-9.627-5.436-18.597-12.193-28-18-33.158-20.479-64.892-39.257-90.5-70.5-33.816-41.257-63.672-111.826-67-165-1.481-23.665-5.787-67.097 17-80.5.966 4.717 3.403 8.629 5 13m1 146c5.392 14.312 11.724 28.561 19 42 7.021 12.968 14.93 25.383 24 37 17.579 22.516 47.394 50.111 74 61 1.956.8 10.272 4.483 11.5 4 7.609-16.529 12.657-37.675 12.5-56-.327-38.158-18.134-74.882-40-105-31.787-43.783-67.06-56.777-103-91-6.355-6.051-10.97-14.067-17.5-20-2.944 44.565 3.858 86.476 19.5 128"/><path fill="#073d4e" d="M829 546c7.932 5.044 14.438 16.433 16 25.5 17.895 103.848-49.569 230.613-142 277.5-2.308 1.171-7.859 1.446-9 2-6.951-.955-10.431-15.235-12-21.5-9.573-38.216-2.053-75.879 15-110.5 8.35-16.952 22.418-37.904 35-52 23.296-26.099 53.699-42.491 80-65 10.569-9.046 29.612-21.891 27-37.5-.079-.474-3.563-8.832-6-7.5-.224-1.321-.924-5.013-3-4.5-8.072 35.665-45.401 49.04-72 68.5 13.484-13.562 32.091-20.816 46.5-33 19.634-16.603 13.907-19.977 21.5-41.5.341-.967 2.93-.312 3-.5M686 758c-2.691 11.719-4.148 25.947-4 38 .096 7.848 5.296 52.547 13.5 53 .659.036 9.992-5.44 11.5-6.5-3.058-2.158-3.009-5.655-4-8.5-.714-2.255 1.965-4.079 3.5-5 8.199-4.918 22.511-8.718 32-14 36.078-20.083 52.497-42.726 70.5-79 17.779-35.822 30.53-77.32 33-117.5.435-7.082 1.257-30.246 0-36-.51-2.336-2.878.102-3-1.5.485-.731 4.262-4.725 1.5-5l-22 25c-54.802 38.579-116.466 87.167-132.5 157"/><path fill="#1fbce0" d="M833 557c2.645 15.609-13.355 31.147-24 41-24.917 23.064-57.529 40.42-82 65-17.057 17.133-25.533 31.419-36 53-13.364 27.555-21.486 50.887-20 82.5.511 10.862 4.913 21.582 4 32.5-7.241-14.746-10.227-23.387-12-40 .249-60.491 37.072-113.731 77-156 5.722-4.641 12.068-9.66 18-14 26.599-19.46 63.928-32.835 72-68.5 2.076-.513 2.776 3.179 3 4.5"/><path fill="#0a8fb1" d="m242 611-4 6c-11.229-8.707-23.867-15.862-34-26-8.293-8.297-17.719-18.531-18-31 1.703-2.339 2.297-4.389 3.5-7 6.904 27.784 31.783 41.461 52.5 58"/><path fill="#2792b7" d="M687 554c-.642 11.345-3.137 21.117-6 32-2.512-1.856-17.373-3.566-18-4.5-.788-1.174 5.577-23.964 4-28z"/><path fill="#0c667c" d="m812 602-3-4c10.645-9.853 26.645-25.391 24-41 2.437-1.332 5.921 7.026 6 7.5 2.612 15.609-16.431 28.454-27 37.5"/><path fill="#055e74" d="M186 560c.281 12.469 9.707 22.703 18 31l-2 6c-10.867-9.796-28.409-20.515-19-36.5.602-1.023 2.822-.256 3-.5"/><path fill="#1d6376" d="M712 574c-2.14 14.194-9.469 39.893-15 53-4.531 10.737-11.213 21.559-18 31l-13-6c8.879-11.359 19.485-28.18 25-41.5 2.519-6.085 8.926-33.531 10-35 2.089-2.855 7.99-.989 11-1.5"/><path fill="#d8eaef" d="M839 581c-6.918 10.42-20.391 21.812-30 30-16.28 13.873-31.646 25.235-48 40-11.23 10.138-22.66 17.207-32 29.5-16.5 21.717-30.063 52.431-40 77.5-.15.01-.586 2.105-3 0 16.034-69.833 77.698-118.421 132.5-157l22-25c2.762.275-1.015 4.269-1.5 5"/><path fill="#8dbcc9" d="M196 597c-1.718.21 1.835 3.849 2 4-2.42 34.57 3.597 66.093 16 98l-16 6c-15.642-41.524-22.444-83.435-19.5-128 6.53 5.933 11.145 13.949 17.5 20"/><path fill="#376a76" d="M809 736c-14.369 1.366-27.442 9.617-41.5 13-11.936 2.872-24.368 3.474-36.5 5 30.81-40.827 74.273-77.896 81-131.5l-3-11.5c9.609-8.188 23.082-19.58 30-30 .122 1.602 2.49-.836 3 1.5 1.257 5.754.435 28.918 0 36-2.47 40.18-15.221 81.678-33 117.5"/><path fill="#308597" d="M238 617c17.406 13.496 37.349 25.456 53 41 35.97 35.722 64.916 102.342 57 153.5-.845 5.462-7.421 13.792-4 19.5-3.721 6.863-5.138 8.957-10 15-.667.829-1.5 1.383-2 2 25.894-64.728-.79-133.449-45-182.5-24.797-27.512-57.837-44.015-85-68.5l2-6c10.133 10.138 22.771 17.293 34 26"/><path fill="#ccdfe5" d="m299 688-7 6c-27.516-41.113-58.759-60.888-94-93-.165-.151-3.718-3.79-2-4 35.94 34.223 71.213 47.217 103 91"/><path fill="#4aa1b5" d="M812 602c-26.301 22.509-56.704 38.901-80 65l-5-4c24.471-24.58 57.083-41.936 82-65z"/><path fill="url(#f)" d="M292 694c15.991 23.893 26.949 47.895 32 76.5.663 3.753.334 17.928 1 19.5-22.789-3.975-52.662-12.776-71-27-2.319-1.799-4.943-3.94-7-6-15.155-15.18-25.353-38.328-33-58-12.403-31.907-18.42-63.43-16-98 35.241 32.112 66.484 51.887 94 93" style="fill:url(#f)"/>/&gt;<path fill="#49daf6" d="M296 657c-1.203 3.279-2.536 1.289-5 1-15.651-15.544-35.594-27.504-53-41l4-6c21.062 16.814 35.078 25.291 54 46"/><path fill="#4c8796" d="M731 754c-1.735.218-2.202.908-3 1-9.322 1.069-19.015.659-29 2-.715-3.543 1.729-10.152 3-13.5 13.121-34.57 35.983-64.131 59-92.5 16.354-14.765 31.72-26.127 48-40l3 11.5c-6.727 53.604-50.19 90.673-81 131.5"/><path fill="#053b4e" d="M740 635c-39.928 42.269-76.751 95.509-77 156-6.056-56.747 34.126-121.226 77-156"/><path fill="#edf4f5" d="M640 660c1.516-1.574 3.818-3.639 5-5 2.522-2.903 4.57-4.775 7-8 2.953-2.966 5.511-6.09 8.5-9-24.7 38.407-65.697 65.974-110 77-12.762 3.176-27.559 5.814-40.5 5.5 50.995-8.302 93.574-22.692 130-60.5"/><path fill="#034658" d="M645 655c.514-3.646 4.743-5.733 7-8-2.43 3.225-4.478 5.097-7 8"/><path fill="#348095" d="m666 652 13 6c-24.131 33.569-62.354 61.714-102 74-29.751 9.219-57.282 10.953-88 7-24.212-3.116-47.786-11.032-69-23-26.537-14.971-53.259-40.681-70-66 10.771 9.462 18.651 21.473 29.5 31 83.092 72.963 219.078 57.247 286.5-29"/><path fill="#7aadbb" d="M699 757c-.947.127-1.055.876-2 1-2.463.322-5.419-.172-8 0 9.937-25.069 23.5-55.783 40-77.5 9.34-12.293 20.77-19.362 32-29.5-23.017 28.369-45.879 57.93-59 92.5-1.271 3.348-3.715 9.957-3 13.5"/><path fill="#0ea4ca" d="M344 831c-3.421-5.708 3.155-14.038 4-19.5 7.916-51.158-21.03-117.778-57-153.5 2.464.289 3.797 2.279 5-1 41.981 45.947 81.401 112.396 48 174"/><path fill="#778f95" d="M335 689c38.025 46.835 67.617 118.339 6 160-1.845-1.284-2.642-2.79-5-3 36.633-38.191 26.247-91.654 4-134.5-6.928-13.342-27.163-36.173-31-46.5-.053-.143-1.309-3.62.5-3 9.32 8.042 17.711 17.406 25.5 27"/><path fill="#338c9f" d="M732 667c-12.582 14.096-26.65 35.048-35 52l-6-3c10.467-21.581 18.943-35.867 36-53z"/><path fill="#b0d1d9" d="M379 693c13.174 10.517 24.401 19.415 39 28 22.395 13.169 46.441 23.561 72.5 27-4.79-2.127-.6-4.577-1.5-9 30.718 3.953 58.249 2.219 88-7 2.265 14.628-12.92 25.733-13 38-25.626-11.764-33.122-11.563-54.5 8-3.559-6.747-10.669-13.952-18.5-15-25.833-7.515-41.986 24.658-66.5 3-4.076 9.17 2.9 14.181 5.5 20 5.817 13.016 12.216 28.712 19 41-23.553 12.195-47.287 27.197-62 50-17.306-9.276-29.877-16.78-46-28 61.617-41.661 32.025-113.165-6-160 8.07-3.065 11.917-11.418 18-17 8.022 8.525 17.43 14.158 26 21"/><path fill="#9dc6d1" d="M339 793c-2.192-.883-12.083-1.348-13-2-.331-.235-.466.261-1-1-.666-1.572-.337-15.747-1-19.5-5.051-28.605-16.009-52.607-32-76.5l7-6c21.866 30.118 39.673 66.842 40 105"/><path fill="#75a9b7" d="M214 699c7.647 19.672 17.845 42.82 33 58l-7 5c-5.77-5.153-15.409-15.451-23-15-7.276-13.439-13.608-27.688-19-42z"/><path fill="#d4e8ed" d="M489 739c.9 4.423-3.29 6.873 1.5 9-26.059-3.439-50.105-13.831-72.5-27l2-5c21.214 11.968 44.788 19.884 69 23"/><path fill="#3a7c8b" d="M697 719c-17.053 34.621-24.573 72.284-15 110.5 1.569 6.265 5.049 20.545 12 21.5-11.532 5.602-30.991 23.201-44.5 31-13.214 7.629-29.587 13.265-42.5 22-12.596 3.82-22.062 5.776-35 8-64.551 11.099-133.783 6.763-191-27 .652-.017 8.201-3.197 12-3 8.839.458 19.421 8.21 28 11 93.363 30.367 186.787 14.93 264-45.5-3.848-5.801-6.883-10.152-10-16.5.913-10.918-3.489-21.638-4-32.5-1.486-31.613 6.636-54.945 20-82.5z"/><path fill="#234a54" d="M809 736c-18.003 36.274-34.422 58.917-70.5 79-9.489 5.282-23.801 9.082-32 14-1.535.921-4.214 2.745-3.5 5-5.924-17-8.742-26.228-9-45-.009-.662-.001-1.338 0-2l34-32c.798-.092 1.265-.782 3-1 12.132-1.526 24.564-2.128 36.5-5 14.058-3.383 27.131-11.634 41.5-13"/><path fill="#416570" d="M240 762c3.286 2.935 6.832 5.972 10 9 1.743 1.666 3.256 4.335 5 6-7.168-6.684-8.963.625-14 7-9.07-11.617-16.979-24.032-24-37 7.591-.451 17.23 9.847 23 15"/><path fill="#2c5a64" d="m728 755-34 32c.009-9.898.805-19.366 3-29 .945-.124 1.053-.873 2-1 9.985-1.341 19.678-.931 29-2"/><path fill="#5a8a97" d="M247 757c2.057 2.06 4.681 4.201 7 6l-4 8c-3.168-3.028-6.714-6.065-10-9z"/><path fill="#5893a2" d="M689 758c2.581-.172 5.537.322 8 0-2.195 9.634-2.991 19.102-3 29-.001.662-.009 1.338 0 2l-12 7c-.148-12.053 1.309-26.281 4-38 2.414 2.105 2.85.01 3 0"/><path fill="#350005" d="M491 763c-24.356-3.26-38.146 19.848-62.5 11-5.309 2.943 22.802 21.678 25.5 23 25.923 12.699 46.604 21.285 75 13 13.353-3.896 29.664-12.989 41-21l1.5 8c-10.918 7.435-22.414 12.753-34.5 18-50.784 22.046-63.944-2.346-104-28-.906-.58-1.81-1.222-3-1-2.6-5.819-9.576-10.83-5.5-20 24.514 21.658 40.667-10.515 66.5-3"/><path fill="url(#g)" d="M564 770c.064.029-.31.36 1 1 .271.132 1.803 2.735 4.5 4 3.737 1.752 9.607 1.64 13.5 3.5.845 1.886-11.208 9.234-13 10.5-11.336 8.011-27.647 17.104-41 21-3.659-4.481-10.239 1.738-12.5 2-24.541 2.848-39.645-13.203-62.5-15-2.698-1.322-30.809-20.057-25.5-23 24.354 8.848 38.144-14.26 62.5-11 7.831 1.048 14.941 8.253 18.5 15 21.378-19.563 28.874-19.764 54.5-8m-88.5 0c-9.636 4.22 12.753 7.611 15 7 7.539-6.141-11.136-8.692-15-7" style="fill:url(#g)"/>/&gt;<path fill="#3b6873" d="M325 790c.534 1.261.669.765 1 1-.678 14.501-2.048 25.211-6 39-26.819-12.209-44.471-33.404-65-53-1.744-1.665-3.257-4.334-5-6l4-8c18.338 14.224 48.211 23.025 71 27"/><path fill="#fcfbfb" d="M475.5 770c3.864-1.692 22.539.859 15 7-2.247.611-24.636-2.78-15-7"/><path fill="#5f0f25" d="M591 786c-5.664 2.541-7.748 12.612-11 18.5-23.902 43.282-70.623 104.867-115 42.5 30.128 18.813 66.389 1.837 72-32 12.086-5.247 23.582-10.565 34.5-18l-1.5-8c1.792-1.266 13.845-8.614 13-10.5-3.893-1.86-9.763-1.748-13.5-3.5-2.697-1.265-4.229-3.868-4.5-4 10.378 4.955 21.346 8.127 30.5-1 3.993.58-3.912 14.442-4.5 16"/><path fill="#2f5560" d="M255 777c20.529 19.596 38.181 40.791 65 53-1.493 5.211-2.066 10.175-5 15-26.606-10.889-56.421-38.484-74-61 5.037-6.375 6.832-13.684 14-7"/><path fill="#230106" d="M433 787c.119 3.508 3.863 7.428 5 10 2.479 5.608 3.897 11.091 7 17 5.463 10.402 13.23 23.485 20 33 44.377 62.367 91.098.782 115-42.5 3.252-5.888 5.336-15.959 11-18.5-10.014 26.538-22.173 50.445-41 72-11.861 5.588-22.6 18.225-39 17-10.307.241-14.851 1.224-24-3-14.795-6.831-30.21-30.889-38-45-6.784-12.288-13.183-27.984-19-41 1.19-.222 2.094.42 3 1"/><path fill="#87314e" d="M537 815c-5.611 33.837-41.872 50.813-72 32-6.77-9.515-14.537-22.598-20-33 3.293.124.58-2.029 3.5-1 4.086 1.439 18.81 17.97 25 22 14.228 9.264 33.125 15.186 44.5-.5-22.791.15-39.42-8.875-57.5-21.5-7.155-4.996-14.893-14.109-22.5-16-1.137-2.572-4.881-6.492-5-10 40.056 25.654 53.216 50.046 104 28"/><path fill="#488090" d="M703 834c.991 2.845.942 6.342 4 8.5-1.508 1.06-10.841 6.536-11.5 6.5-8.204-.453-13.404-45.152-13.5-53l12-7c.258 18.772 3.076 28 9 45"/><path fill="#3c7481" d="M339 793c.157 18.325-4.891 39.471-12.5 56-1.228.483-9.544-3.2-11.5-4 2.934-4.825 3.507-9.789 5-15 3.952-13.789 5.322-24.499 6-39 .917.652 10.808 1.117 13 2"/><path fill="#9c445f" d="M445 814c-3.103-5.909-4.521-11.392-7-17 7.607 1.891 15.345 11.004 22.5 16 18.08 12.625 34.709 21.65 57.5 21.5-11.375 15.686-30.272 9.764-44.5.5-6.19-4.03-20.914-20.561-25-22-2.92-1.029-.207 1.124-3.5 1"/><path fill="#76314b" d="M529 810c-28.396 8.285-49.077-.301-75-13 22.855 1.797 37.959 17.848 62.5 15 2.261-.262 8.841-6.481 12.5-2"/><path fill="#99c1cb" d="M449 827c7.79 14.111 23.205 38.169 38 45-2.449 7.609-4.948 14.856-4 23-20.632 1.673-41.403-1.342-62-2-8.579-2.79-19.161-10.542-28-11-1.142-2.175-3.972-3.913-6-5 14.713-22.803 38.447-37.805 62-50"/><path fill="#8cbac8" d="M336 846c2.358.21 3.155 1.716 5 3 16.123 11.22 28.694 18.724 46 28 2.028 1.087 4.858 2.825 6 5-3.799-.197-11.348 2.983-12 3-9.505.247-43.165-27.391-53-33.5-.066-.659 3.532-2.923 4-3.5.5-.617 1.333-1.171 2-2 .659.027 1.347-.058 2 0"/><path fill="#24819d" d="M703 849c-27.519 25.067-60.282 44.168-96 55 12.913-8.735 29.286-14.371 42.5-22 13.509-7.799 32.968-25.398 44.5-31 1.141-.554 6.692-.829 9-2"/><path fill="#525e68" d="m517 879-6-4c16.4 1.225 27.139-11.412 39-17 .656-.309 4.586-2.439 5-1.5-8.325 14.432-22.47 19.772-38 22.5"/><path fill="#7faeb8" d="m511 875 6 4c-4.186.735-9.03-1.386-13 1.5l3 10.5c-7.03 1.583-16.909 3.425-24 4-.948-8.144 1.551-15.391 4-23 9.149 4.224 13.693 3.241 24 3"/></svg>