<svg xmlns="http://www.w3.org/2000/svg" width="1024" height="1024"><defs><linearGradient id="a" x1="739.885" x2="343.417" y1="165.602" y2="291.573" gradientUnits="userSpaceOnUse"><stop offset="0%" style="stop-color:#dcf0f7"/><stop offset="100%" style="stop-color:#9bc5d3"/></linearGradient></defs><defs><linearGradient id="b" x1="528.256" x2="484.359" y1="256.134" y2="285.833" gradientUnits="userSpaceOnUse"><stop offset="0%" style="stop-color:#46f1fc"/><stop offset="100%" style="stop-color:#27d5f1"/></linearGradient></defs><defs><linearGradient id="c" x1="312.544" x2="203.86" y1="276.522" y2="387.033" gradientUnits="userSpaceOnUse"><stop offset="0%" style="stop-color:#639bad"/><stop offset="100%" style="stop-color:#468298"/></linearGradient></defs><defs><linearGradient id="d" x1="245.781" x2="341.672" y1="442.178" y2="507.455" gradientUnits="userSpaceOnUse"><stop offset="0%" style="stop-color:#085b79"/><stop offset="100%" style="stop-color:#1f768e"/></linearGradient></defs><defs><linearGradient id="e" x1="233.284" x2="304.242" y1="458.088" y2="460.545" gradientUnits="userSpaceOnUse"><stop offset="0%" style="stop-color:#139ab9"/><stop offset="100%" style="stop-color:#25b1e2"/></linearGradient></defs><defs><linearGradient id="f" x1="790.493" x2="566.67" y1="483.101" y2="506.088" gradientUnits="userSpaceOnUse"><stop offset="0%" style="stop-color:#189bd5"/><stop offset="33.778%" style="stop-color:#52b7d3"/><stop offset="100%" style="stop-color:#63daf5"/></linearGradient></defs><defs><linearGradient id="g" x1="753.028" x2="665.029" y1="503.878" y2="504.231" gradientUnits="userSpaceOnUse"><stop offset="0%" style="stop-color:#0a7192"/><stop offset="100%" style="stop-color:#3ebbd1"/></linearGradient></defs><defs><linearGradient id="h" x1="345.822" x2="327.022" y1="436.24" y2="551.719" gradientUnits="userSpaceOnUse"><stop offset="0%" style="stop-color:#050e3f"/><stop offset="100%" style="stop-color:#166988"/></linearGradient></defs><defs><linearGradient id="i" x1="696.282" x2="653.647" y1="443.49" y2="548.138" gradientUnits="userSpaceOnUse"><stop offset="0%" style="stop-color:#050e3f"/><stop offset="100%" style="stop-color:#146787"/></linearGradient></defs><defs><linearGradient id="j" x1="518.121" x2="500.706" y1="695.883" y2="754.344" gradientUnits="userSpaceOnUse"><stop offset="0%" style="stop-color:#6398ac"/><stop offset="100%" style="stop-color:#a4cce2"/></linearGradient></defs><path fill="#034d6a" d="m548 124-3 2c-11.886-1.073-24.042-2.238-36-2-44.411.884-93.928 12.745-135 29-20.706 6.517-40.703 18.249-60 28 2.087-1.522 7.975-7.765 13-9.5l-2-2.5c68.861-36.533 144.638-54.198 223-45"/><path fill="#e0eff4" d="m509 124-1 5c-4.864.118-7 .68-11 4-.333.013-.667-.015-1 0-36.265 1.599-84.983 8.35-122 20 41.072-16.255 90.589-28.116 135-29"/><path fill="#f5f9fb" d="M545 126c97.1 8.764 202.26 62.699 260 142 7.188 9.872 35.359 54.945 37 64.5.048.281-.243 5.503-1.5 5.5-3.271-4.299-7.602-9.351-11.5-13l4 .5c.516-2.483-.984-4.035-2-6-6.309-12.203-37.354-47.609-48-59-61.232-65.516-183.22-130.475-274-131.5a28 28 0 0 0-1 0l1-5c11.958-.238 24.114.927 36 2"/><path fill="#0a6f8b" d="M789 246c.978 1.041 2.092 2.018 3 3 2.41 2.607 5.663 5.35 8 8 2.26 2.563 4.618 6.172 7 9l-2 2c-57.74-79.301-162.9-133.236-260-142l3-2c97.498 11.444 174.454 51.146 241 122"/><path fill="#4e99b3" d="M508 129a28 28 0 0 1 1 0v1c-3.817.004-8.289 2.854-12 3 4-3.32 6.136-3.882 11-4"/><path fill="url(#a)" d="M829 325c-62.607-58.604-201.399-128.056-288-125-33.781-4.906-67.636-1.12-101 4-3.841.59-9.374.343-13 1-48.112-4.748-131.206-4.261-174 21 17.741-18.299 40.641-30.15 61-45 19.297-9.751 39.294-21.483 60-28 37.017-11.65 85.735-18.401 122-20-21.557 16.741-5.632 47.397 20.5 42 15.447-3.19 23.425-31.066 8.5-39-3.66-3.556-10.942-6.005-16-6v-1c90.78 1.025 212.768 65.984 274 131.5 10.646 11.391 41.691 46.797 48 59 1.016 1.965 2.516 3.517 2 6z" style="fill:url(#a)"/>/&gt;<path fill="#e1f3f7" d="M509 130c5.058-.005 12.34 2.444 16 6 10.182 9.894 7.042 29.762-5.5 36-.911.453-10.786 2.12-12 2-2.41-.239-9.884-3.323-12-5-11.699-9.269-9.135-27.174 1.5-36 3.711-.146 8.183-2.996 12-3m-1.5 4c-22.444 3.258-19.638 39.077 6 35 20.785-3.305 16.861-38.319-6-35"/><path fill="#4b98ac" d="M497 133c-10.635 8.826-13.199 26.731-1.5 36 2.116 1.677 9.59 4.761 12 5 1.214.12 11.089-1.547 12-2 12.542-6.238 15.682-26.106 5.5-36 14.925 7.934 6.947 35.81-8.5 39-26.132 5.397-42.057-25.259-20.5-42 .333-.015.667.013 1 0"/><path fill="#508799" d="M507.5 134c22.861-3.319 26.785 31.695 6 35-25.638 4.077-28.444-31.742-6-35m-1 2c-.545.346-7.379 9.866-7.5 10.5-2.232 11.726 7.747 13.448 15.5 17.5 1.394.729-3.357 2.873 0 3 14.362-6.114 15.187-22.219 2-30-.361 3.065-7.494-2.59-10-1"/><path fill="#45c4d7" d="M506.5 136c2.506-1.59 9.639 4.065 10 1 13.187 7.781 12.362 23.886-2 30-3.357-.127 1.394-2.271 0-3-7.753-4.052-17.732-5.774-15.5-17.5.121-.634 6.955-10.154 7.5-10.5"/><path fill="#062740" d="m325 169 2 2.5c-5.025 1.735-10.913 7.978-13 9.5-20.359 14.85-43.259 26.701-61 45-16.227 9.579-41.102 42.873-52 59-4.855-1.882 3.216-5.104 1-9 5.175-6.582 9.931-13.388 15-20 1.215-1.585 9.353-7.555 9-9.5-9.604-6.132-18.769-12.857-28-19.5-5.506-3.962-11.599-7.115-17-11-4.171-3-7.811-7.022-12-10-.221-.157-.778.157-1 0-25.524-18.114-50.758-36.687-77.5-53-2.301-.206-1.467 2.53-1.5 4-.127 5.673 4.347 24.022 6 30.5 2.746 10.764 34.247 95.703 39 98 10.328-8.373 14.288-21.637 20-33 .465-.925 1.93-.357 2-.5-.074.642.147 1.49 0 2-2.168 7.54-20.8 32.491-21 34.5-.099.997 3.8 8.425 4.5 8.5 3.06.328 20.682-33.892 24.5-38 .89.965.9 2.878 1 3-2.761 4.898-24.962 35.247-25 37.5-.009.537 4.107 7.548 5 9.5l-1 2c-25.021-50.653-51.972-103.602-56.5-161l141 95c28.496-32.562 58.541-55.862 96.5-76"/><path fill="#063450" d="M933 155h-1l-3.5-2c-36.989 24.183-72.389 50.599-108.5 76-3.696 2.6-7.319 5.414-11 8-5.648 3.968-11.94 7.217-17 12-.908-.982-2.022-1.959-3-3 49.198-30.319 93.696-68.7 144.5-96 1.882 1.729-.485 4.749-.5 5"/><path fill="#e8f4f9" d="M168 206c-.153 4.446-.074 7.451-1 12a2139 2139 0 0 1-74-58c-.972-.797-1.62-3.614-4-3 .033-1.47-.801-4.206 1.5-4 26.742 16.313 51.976 34.886 77.5 53"/><path fill="#f6fcfc" d="M932 155c-.451 1.214-.997 2.103-2 3-.735.658-1.789 1.838-2 2-25.26 19.423-51.426 37.561-75 59-.382-1.087-1.363-1.616-1-3-.075-1.284 1.239-8.031-2-6.5 1.326 3.728-2.691 3.656-3 5-1.404 6.099 4.151 7.531-1.5 10.5l-4.5-8.5c.152 3.532.259 9.209 1 12.5l-17 12c-1.747-3.276-3.279-6.71-5-10 .163-.425-.085-1.369 0-2 36.111-25.401 71.511-51.817 108.5-76z"/><path fill="#084b66" d="m890 278-3 1c18.395-37.919 38.085-78.872 43-121 1.003-.897 1.549-1.786 2-3h1c-2.273 39.158-26.173 87.787-43 123"/><path fill="#498599" d="m93 160 61.5 91c2.528-.192 11.673-28.939 12.5-33 .926-4.549.847-7.554 1-12 .222.157.779-.157 1 0 .427 4.861-.131 9.224-1 14-2.016 11.081-7.083 21.966-12 32-.07.143-1.535-.425-2 .5-5.712 11.363-9.672 24.627-20 33-4.753-2.297-36.254-87.236-39-98-1.653-6.478-6.127-24.827-6-30.5 2.38-.614 3.028 2.203 4 3"/><path fill="#5ba3b5" d="M887 279c-.63 1.3-1.345 2.668-2 4-9.559-9.57-14.463-22.155-20-34l63-89c.211-.162 1.265-1.342 2-2-4.915 42.128-24.605 83.081-43 121"/><path fill="#98c4d6" d="M167 218c-.827 4.061-9.972 32.808-12.5 33L93 160a2139 2139 0 0 0 74 58"/><path fill="#bae0eb" d="m928 160-63 89c-5.064-10.833-8.055-18.768-12-30 23.574-21.439 49.74-39.577 75-59"/><path fill="#428ea2" d="M541 200c-.97.034-2.031-.367-2 1-24.933-1.741-50.224-1.802-75 1-.33.033-.67-.036-1 0-5.039.219-10.033 1.264-15 2-2.605.386-5.403.582-8 1v-1c33.364-5.12 67.219-8.906 101-4"/><path fill="#f5f9fb" d="M539 201c88.293 6.165 250.751 66.609 302 142.5 30.251 44.796 20.439 153.371 9 204.5-5.293 23.66-13.289 46.141-21 69-2.677 3.367-1.112 1.396-3-1 5.23-.569.835-3.529 1-4.5 5.917-34.798 18.826-63.71 23-102.5 16.121-149.83-53.722-221.352-186-274-59.266-23.589-136.088-39.459-200-33 24.776-2.802 50.067-2.741 75-1"/><path fill="#065d7a" d="M541 200c86.601-3.056 225.393 66.396 288 125 3.898 3.649 8.229 8.701 11.5 13 1.257.003 1.548-5.219 1.5-5.5-1.641-9.555-29.812-54.628-37-64.5l2-2c6.223 7.387 13.233 14.291 19 22 12.11 16.188 19.992 34.218 31 51-3.378 7.339-6.983 13.74-6 22 1.007 8.461 6.192 20.373 8 29.5 2.243 11.322-.84 31.27 9 37.5-.344 1.273-1.523 1.736-2 3-1.447 3.834 1.283 38.272 1 46.5-.217 6.298-1.638 13.16-2 19.5-6.832 16.281-9.737 33.904-14 51h-1c11.439-51.129 21.251-159.704-9-204.5-51.249-75.891-213.707-136.335-302-142.5-.031-1.367 1.03-.966 2-1"/><path fill="#498397" d="M427 205c-40.425 7.319-83.742 23.012-121 40-51.495 23.48-103.878 54.96-139 100 11.578-16.404 21.672-41.756 34-60 10.898-16.127 35.773-49.421 52-59 42.794-25.261 125.888-25.748 174-21"/><path fill="#eff5f6" d="M463 202c-.102.011.334 1.91-.5 2-4.527.49-10.496 2.047-14.5 0 4.967-.736 9.961-1.781 15-2"/><path fill="#b4d0df" d="m664 235-3.5 14c-25.665-8.041-52.183-16.59-79.5-12.5 5.715 21.47 17.035 42.92 23 64 .811 2.868-.026 9.941 1 14 2.825 11.179 7.716 22.105 10 33.5-37.793 15.344-74.536 53.385-89 91.5-8.67 22.846-4.175 38.53-5 63-.062 1.827 1.009 4.935-2 4.5-.951-13.138-.643-26.346 0-39.5-9.141 38.535-.878 83.131 20 116.5-5.301.723 4.476 13.562 6 16-14.019 8.793-34.025 14.501-50.5 16-8.959.815-26.07 2.772-31.5-6 5.029-6.524 11.757-16.823 13-25 16.04-25.838 25.164-59.642 25-90 4.768-58.681-32.515-114.537-83-142 .009-6.384 3.19-12.288 4-18.5 1.633-12.532 4.169-38.857 4-51-.311-22.346-10.853-48.455-9-72l-37 7.5c19.522-6.305 39.724-10.739 60-14 2.597-.418 5.395-.614 8-1 4.004 2.047 9.973.49 14.5 0 .834-.09.398-1.989.5-2 .33-.036.67.033 1 0 63.912-6.459 140.734 9.411 200 33m-196-7c-30.71 23.678-29.099 75.339 5.5 95 37.046 21.051 85.065 3.418 93.5-39 11.62-58.435-54.328-90.443-99-56"/><path fill="#154f69" d="M440 204v1c-20.276 3.261-40.478 7.695-60 14-22.58 6.273-44.591 14.539-66 24-2.284 1.009-4.759 1.965-7 3l-1-1c37.258-16.988 80.575-32.681 121-40 3.626-.657 9.159-.41 13-1"/><path fill="#d2e9f2" d="M181 216c-1.348-.067-4.266 6.882-5 9l-8-5c.869-4.776 1.427-9.139 1-14 4.189 2.978 7.829 7 12 10"/><path fill="#98cfdd" d="M852 216c.357 6.105.904 10.014 3 16.5 2.873 8.889 16.164 21.059-1 21.5-3.783-7.646-9.991-16.08-12-25-.741-3.291-.848-8.968-1-12.5l4.5 8.5c5.651-2.969.096-4.401 1.5-10.5.309-1.344 4.326-1.272 3-5 3.239-1.531 1.925 5.216 2 6.5"/><path fill="#85b6c7" d="M418 353c-6.546-3.561-33.313-15.464-39-14-.26-2.504-9.14-3.933-10.5-4-22.206-1.1-47.163.501-68.5 7l14-99c21.409-9.461 43.42-17.727 66-24l37-7.5c-1.853 23.545 8.689 49.654 9 72 .169 12.143-2.367 38.468-4 51-.81 6.212-3.991 12.116-4 18.5"/><path fill="#034260" d="m567 284-2-3c5.044-40.773-26.482-67.564-66-62-10.452 1.472-21.732 5.456-30 12l-1-3c44.672-34.443 110.62-2.435 99 56"/><path fill="#e8f5fa" d="M181 216c5.401 3.885 11.494 7.038 17 11 .293 1.925-.706 3.158-1 5-.941 2.014-2.07 3.981-3 6l-18-11c.173-.496-.172-1.502 0-2 .734-2.118 3.652-9.067 5-9"/><path fill="#438fa2" d="M853 219c3.945 11.232 6.936 19.167 12 30 5.537 11.845 10.441 24.43 20 34-2.136 4.349-4.792 8.569-7 13-8.125-12.365-16.153-24.857-23-38-.342-.656-.657-3.307-1-4 17.164-.441 3.873-12.611 1-21.5-2.096-6.486-2.643-10.395-3-16.5-.363 1.384.618 1.913 1 3"/><path fill="#30d1e8" d="M565 281c-.654 5.286-3.688 10.331-6 15l-13-4c21.83-37.59-10.055-71.917-50-66 1.6-4.244 5.981.181 3-7 39.518-5.564 71.044 21.227 66 62"/><path fill="#12a0bf" d="M499 219c2.981 7.181-1.4 2.756-3 7-13.783 2.042-26.847 8.77-31 23l-7-1.5c-.714 1.951 8.895 3.194 3.5 7.5l-6.5-4c3.084-7.897 7.267-14.67 14-20 8.268-6.544 19.548-10.528 30-12"/><path fill="#7eb2c6" d="M176 225c-.172.498.173 1.504 0 2-3.738 10.73-7.291 21.645-12 32-1.783-1.934-5.684-3.522-8-5 .147-.51-.074-1.358 0-2 4.917-10.034 9.984-20.919 12-32z"/><path fill="url(#b)" d="M546 292c-9.617 16.56-26.438 22.892-45 20l-1-5c1.241.253 2.496 1.683 4.5 1-10.245-7.887-25.191-12.005-32-25-1.505-.539-1.421.957-1.5 1-1.425.769-1.142 2.717-3 3-5.829-12.164-6.862-24.767-3-38 4.153-14.23 17.217-20.958 31-23 39.945-5.917 71.83 28.41 50 66m-48.5-61c-1.13.025-5.725 3.88-5 6l7.5-3.5c.283-2.646-.101-2.553-2.5-2.5m9 1c-1.36.596-1.653 2.135-1.5 3.5.25 2.235 33.295 29.171 37 20 4.928-12.199-27.054-27.2-35.5-23.5m25 27c-3.379 2.561 3.892 8.697 6.5 5.5 2.239-2.745-4.569-6.964-6.5-5.5" style="fill:url(#b)"/>/&gt;<path fill="#a6cbd9" d="M194 238c-5.851 12.696-13.267 23.053-20 35-3.614-3.108-5.997-7.348-9-11-.1-.122-.11-2.035-1-3 4.709-10.355 8.262-21.27 12-32z"/><path fill="#daedf4" d="M217 256c-4.433-4.085-10.165-6.546-15-10-.058-.041-.148-.364-1-1-1.871-1.397-3.453-3.806-6-4 1.283-3.037 1.499-5.858 2-9 .294-1.842 1.293-3.075 1-5 9.231 6.643 18.396 13.368 28 19.5.353 1.945-7.785 7.915-9 9.5"/><path fill="#00142c" d="M469 231c-6.733 5.33-10.916 12.103-14 20-10.961 28.067-2.533 58.281 26 71 30.912 13.78 62.866 4.563 78-26 2.312-4.669 5.346-9.714 6-15l2 3c-8.435 42.418-56.454 60.051-93.5 39-34.599-19.661-36.21-71.322-5.5-95z"/><path fill="#91c9d9" d="M820 231c-1.262 3.287.429 5.125 2 8.5 2.539 5.454 21.157 32.965 21 35-.038.49-3.846 3.519-4.5 4.5-4.111.27-17.755-30.868-21.5-31-.333-.012-.667.009-1 0l-7-11c3.681-2.586 7.304-5.4 11-8-.085.631.163 1.575 0 2"/><path fill="#ceeaf3" d="M842 229c2.009 8.92 8.217 17.354 12 25 .343.693.658 3.344 1 4l-12 14c-6.012-10.304-12.384-20.466-18-31z"/><path fill="#d2fbf9" d="M497.5 231c2.399-.053 2.783-.146 2.5 2.5l-7.5 3.5c-.725-2.12 3.87-5.975 5-6"/><path fill="#39889c" d="M825 241c5.616 10.534 11.988 20.696 18 31 5.845 10.017 17.714 34.131 24 41.5 2.445 2.865 1.245.232 3-.5-.99 2.112-1.692 4.949-3 7-.984 1.543-1.553 3.416-2.5 5-4.019 1.43-23.615-44.056-27.5-44h-1l-19-33c3.745.132 17.389 31.27 21.5 31 .654-.981 4.462-4.01 4.5-4.5.157-2.035-18.461-29.546-21-35-1.571-3.375-3.262-5.213-2-8.5 1.721 3.29 3.253 6.724 5 10"/><path fill="#246178" d="M195 241c-2.353 5.57-20.044 32.507-20 34.5.046 2.096 3.326 3.891 4.5 5.5l21.5-36c.852.636.942.959 1 1-6.562 12.364-13.225 24.754-20 37l-26.5 43c-.594.047-5.68-8.659-6.5-10 10.697-12.139 16.986-28.781 25-43 6.733-11.947 14.149-22.304 20-35 .93-2.019 2.059-3.986 3-6-.501 3.142-.717 5.963-2 9"/><path fill="#fcfefe" d="M506.5 232c8.446-3.7 40.428 11.301 35.5 23.5-3.705 9.171-36.75-17.765-37-20-.153-1.365.14-2.904 1.5-3.5"/><path fill="#dfeff5" d="M664 235c132.278 52.648 202.121 124.17 186 274-3.795 10.715-3.835 22.42-6 33.5-4.135 21.165-12.167 42.953-20 68-.407 1.303 1.245 1.724 1 2.5-.033.106-1.721-.375-2 .5-1.097 3.441-1.108 7.798-2 10.5-2.562 7.764-5.277 15.315-8 23l-3.5-9c-1.998-.556-9.444 18.653-10.5 21-12.776-7.884-10.63-26.366-12-39.5-.895-2.008-4.177.06-5 .5 6.235-7.547 14.018-14.265 20-22 17.182-4.999 29.151-35.262 32-51.5.506-2.884 1.665-8.841-1-10.5 5.378-23.385 5.367-45.4 1-69-5.246-28.346-19.066-52.627-38-74-25.906-29.244-57.336-46.744-96-53-30.258-4.896-56.117-3.727-85 8-2.284-11.395-7.175-22.321-10-33.5-1.026-4.059-.189-11.132-1-14-5.965-21.08-17.285-42.53-23-64 27.317-4.09 53.835 4.459 79.5 12.5z"/><path fill="#f5fbfd" d="m816 248-16 9c-2.337-2.65-5.59-5.393-8-8 5.06-4.783 11.352-8.032 17-12z"/><path fill="#6da4b9" d="m201 245-21.5 36c-1.174-1.609-4.454-3.404-4.5-5.5-.044-1.993 17.647-28.93 20-34.5 2.547.194 4.129 2.603 6 4"/><path fill="url(#c)" d="M300 342c-4.312 1.314-12.422 5.042-17 7-34.67 12.604-66.695 39.002-82 73-1.475.326-2.958-6.145-3-6.5-3.922-33.356 4.513-64.543 6-96 .131-2.776.884-5.638-2-7.5 29.399-25.638 69.566-49.637 105-66 2.241-1.035 4.716-1.991 7-3z" style="fill:url(#c)"/>/&gt;<path fill="#042036" d="m306 245 1 1c-35.434 16.363-75.601 40.362-105 66-14.337 12.503-29.215 26.658-36 45-2.293-2.556-2.647-6.061-4-9 2.742.625 3.753-1.233 5-3 35.122-45.04 87.505-76.52 139-100"/><path fill="#97c0d0" d="M217 256c-5.069 6.612-9.825 13.418-15 20-2.897 3.685-10.161 9.03-13 13l-7-5c.141-.255-.141-.745 0-1 6.775-12.246 13.438-24.636 20-37 4.835 3.454 10.567 5.915 15 10"/><path fill="#03769a" d="M465 249c-3.862 13.233-2.829 25.836 3 38 4.099 8.555 12.375 16.885 21 21-1.372 5.75-1.128 15.124-8 14-28.533-12.719-36.961-42.933-26-71l6.5 4c5.395-4.306-4.214-5.549-3.5-7.5z"/><path fill="#c2e3ed" d="m817 248 19 33-10 7c-5.767-7.709-12.777-14.613-19-22-2.382-2.828-4.74-6.437-7-9l16-9c.333.009.667-.012 1 0"/><path fill="#28667c" d="M164 259c-3.818 4.108-21.44 38.328-24.5 38-.7-.075-4.599-7.503-4.5-8.5.2-2.009 18.832-26.96 21-34.5 2.316 1.478 6.217 3.066 8 5"/><path fill="#64aabc" d="M878 296c-2.827 5.675-5.317 11.278-8 17-1.755.732-.555 3.365-3 .5-6.286-7.369-18.155-31.483-24-41.5l12-14c6.847 13.143 14.875 25.635 23 38"/><path fill="#fafefc" d="M531.5 259c1.931-1.464 8.739 2.755 6.5 5.5-2.608 3.197-9.879-2.939-6.5-5.5"/><path fill="#3c788d" d="M165 262c3.003 3.652 5.386 7.892 9 11-8.014 14.219-14.303 30.861-25 43-1.24-2.028-3.043-4.908-4-7-.893-1.952-5.009-8.963-5-9.5.038-2.253 22.239-32.602 25-37.5"/><path fill="#011529" d="M201 285c-12.328 18.244-22.422 43.596-34 60-1.247 1.767-2.258 3.625-5 3-5.702-12.383-11.957-24.766-18-37l1-2c.957 2.092 2.76 4.972 4 7 .82 1.341 5.906 10.047 6.5 10l26.5-43c-.141.255.141.745 0 1-3.335 6.021-25.677 40.987-26 43.5-.093.723 4.791 13.332 5.5 13.5 11.019-15.734 16.392-36.466 27.5-52 2.839-3.97 10.103-9.315 13-13 2.216 3.896-5.855 7.118-1 9"/><path fill="#031d30" d="M868 324c.029-.204-.383-3.851-1-4 1.308-2.051 2.01-4.888 3-7 2.683-5.722 5.173-11.325 8-17 2.208-4.431 4.864-8.651 7-13 .655-1.332 1.37-2.7 2-4l3-1c-7.324 15.327-14.638 30.693-22 46"/><path fill="#073d56" d="M867 320c.617.149 1.029 3.796 1 4-1.567 11.058-15.241 24.838-17 37-.983-8.26 2.622-14.661 6-22 .78-1.696 7.147-8.185 7-10.5-.21-3.322-25.876-39.725-27-47.5 3.885-.056 23.481 45.43 27.5 44 .947-1.584 1.516-3.457 2.5-5"/><path fill="#4d9bae" d="M857 339c-11.008-16.782-18.89-34.812-31-51l10-7h1c1.124 7.775 26.79 44.178 27 47.5.147 2.315-6.22 8.804-7 10.5"/><path fill="#69fafa" d="M500 307c-11.926-2.433-22.483-13.16-29-23 .079-.043-.005-1.539 1.5-1 6.809 12.995 21.755 17.113 32 25-2.004.683-3.259-.747-4.5-1"/><path fill="#337084" d="M189 289c-11.108 15.534-16.481 36.266-27.5 52-.709-.168-5.593-12.777-5.5-13.5.323-2.513 22.665-37.479 26-43.5z"/><path fill="#19ddf6" d="m500 307 1 5c-3.802-.592-8.519-2.339-12-4-8.625-4.115-16.901-12.445-21-21 1.858-.283 1.575-2.231 3-3 6.517 9.84 17.074 20.567 29 23"/><path fill="#12a0bf" d="M559 296c-15.134 30.563-47.088 39.78-78 26 6.872 1.124 6.628-8.25 8-14 3.481 1.661 8.198 3.408 12 4 18.562 2.892 35.383-3.44 45-20z"/><path fill="#24556c" d="M201 422c-.54.946-1.3 2.683-2 4-4.57 4.535-6.283 11.009-8 17-45.273 113.423 52.168 221.258 168.5 213 10.807-.767 24.968-6.474 33.5-4-62.884 27.106-136.004 24.169-184-29.5-16.828-18.818-26.281-56.147-32-81-7.63-33.161-11.293-66.942-13-101l-4 3c.7-8.572-.501-17.02-1-25.5-.22-3.742.979-8.733-1-12 1.677-16.337 2.234-33.411 8-49 6.785-18.342 21.663-32.497 36-45 2.884 1.862 2.131 4.724 2 7.5-1.487 31.457-9.922 62.644-6 96 .042.355 1.525 6.826 3 6.5"/><path fill="#b7d7e3" d="M379 339c-.931.24-2.275-2.98-2 2-8.595-1.844-34.166-6.427-41.5-4-1.49.493-7.508 10.479-10 12-10.867-3.953-32.653 9.927-40 10-3.933.039-5.215-4.698-5.5-8 .401-.184 1.842-1.505 3-2 4.578-1.958 12.688-5.686 17-7 21.337-6.499 46.294-8.1 68.5-7 1.36.067 10.24 1.496 10.5 4"/><path fill="#a7cedc" d="M377 341c39.411 8.455 78.231 36.264 100 70-3.081-3.371-8.986 8.784-9 9.5-.072 3.803 15.378 21.899 9 26.5-15.348-44.733-50.699-77.586-96-91-28.516-8.444-51.202-8.632-80-1-9.446 2.503-19.304 6.573-28 11 3.595-5.775 2.963-5.865-2-11 2.95-1.567 6.006-2.627 9-4 .285 3.302 1.567 8.039 5.5 8 7.347-.073 29.133-13.953 40-10 2.492-1.521 8.51-11.507 10-12 7.334-2.427 32.905 2.156 41.5 4"/><path fill="#9ccad8" d="M700 340c.823 17.309 24.922 9.233 34 21-57.721-23.217-124.434-10.045-166 37-17.317 15.123-30.037 39.252-36 61.5-6.096 22.744-6.118 43.632-1 65.5 3.151 13.464 7.663 26.718 14 39-4.092-2.079-4.068 3.101-9 2-10.307-20.133-15.351-36.203-17-59 3.009.435 1.938-2.673 2-4.5.825-24.47-3.67-40.154 5-63 14.464-38.115 51.207-76.156 89-91.5 28.883-11.727 54.742-12.896 85-8"/><path fill="#eef7fa" d="M379 339c5.687-1.464 32.454 10.439 39 14 50.485 27.463 87.768 83.319 83 142-.03-5.524-.516-10.552-1-16-2.277-25.638-9.021-46.336-23-68-21.769-33.736-60.589-61.545-100-70-.275-4.98 1.069-1.76 2-2"/><path fill="#b5d5e0" d="M796 393c-.717 4.487 5.375 8.799 7 11.5 1.981 3.293 5.644 13.936 7 17 8.567 19.351 22.457 50.941 22 72-.042 1.924-1.764 9.062-2 13.5-11.223 39.627-25.897 79.917-59.5 106-73.098 56.74-183.334 32.725-225.5-49-6.337-12.282-10.849-25.536-14-39l3-2c.06.322-.064.679 0 1 10.282 51.625 55.096 98.111 106 111 7.339 1.858 14.337 3.717 22 4 20.599 2.29 42.727.73 62-7 1.088-.436 1.735-.887 2-1 120.5-41.152 133.806-206.469 19-265a137 137 0 0 0-11-5c-9.078-11.767-33.177-3.691-34-21 38.664 6.256 70.094 23.756 96 53"/><path fill="#153041" d="M283 349c-1.158.495-2.599 1.816-3 2-2.994 1.373-6.05 2.433-9 4-28.887 15.344-53.711 38.453-70 67 15.305-33.998 47.33-60.396 82-73"/><path fill="#0d5782" d="M381 356c-1.889 2.394-8.466.576-8 4-26.564-6.492-54.011-7.031-80 2-2.814-5.907 7.733-2.5 8-7 28.798-7.632 51.484-7.444 80 1"/><path fill="#095174" d="M734 361a137 137 0 0 1 11 5l-3 8c-46.374-23.235-90.854-25.249-136 1-16.366 9.516-31.51 20.852-42 37-2.657.209-3.35-1.739-3-4 2.382-3.222 4.297-6.941 7-10 41.566-47.045 108.279-60.217 166-37"/><path fill="#8abcc7" d="M273 366c-65.904 33.554-95.106 106.24-74 177-1.054-.244-6.866 2.154-7 2.5-.294.759 4.33 13.683 5 15.5-18.241-36.774-17.105-79.241-6-118 2.032-5.091 5.402-12.116 8-17 .7-1.317 1.46-3.054 2-4 16.289-28.547 41.113-51.656 70-67 4.963 5.135 5.595 5.225 2 11"/><path fill="#05344e" d="M301 355c-.267 4.5-10.814 1.093-8 7-77.488 26.928-111.104 122.536-73 194l-11 5c-1.7-3.083-4.005-7.963-7-10-.783-2.173-2.497-6.312-3-8-21.106-70.76 8.096-143.446 74-177 8.696-4.427 18.554-8.497 28-11"/><path fill="url(#d)" d="M373 360c23.547 5.755 38.63 17.345 57 32l-3 2c-19.524-16.101-41.924-26.191-67-30-2.374-.361-4.587-.764-7-1-92.368-9.052-155.594 78.32-116 164 8.248 17.849 18.369 32.034 35 43l41 55c-3.448-1.296-14.373-1.584-20.5-4-30.443-12.003-57.137-36.188-72.5-65-38.104-71.464-4.488-167.072 73-194 25.989-9.031 53.436-8.492 80-2" style="fill:url(#d)"/>/&gt;<path fill="#0f6a91" d="M477 447c2.818 8.212 5.908 18.426 7 27 .042.328-.039.671 0 1l-10 4c-1.558-17.104-5.681-37.732-16-53 1.17-16.035-16.27-24.642-28-34-18.37-14.655-33.453-26.245-57-32-.466-3.424 6.111-1.606 8-4 45.301 13.414 80.652 46.267 96 91"/><path fill="#1687c0" d="M742 374c2.226 1.115 4.8 2.724 7 4l-2 3c-14.525-9.234-32.053-13.75-49-16-25.592-3.398-68.711.824-88 20l-5-4c.264-.443.825-4.921 1-6 45.146-26.249 89.626-24.235 136-1"/><path fill="url(#e)" d="M353 363c-8.136 4.356-16.372 3.335-24.5 9-8.596 5.991-19.574 24.229-19.5 35-31.632 7.566-56.954 33.923-63 66-2.814 14.932-3.232 25.082 1 40l-3.5-7c-3.751 9.824 3.4 21.505 8.5 30-2.264 8.583 7.583 13.808 10 21-10.312-9.73-17.288-18.148-25-30-39.594-85.68 23.632-173.052 116-164" style="fill:url(#e)"/>/&gt;<path fill="#59d9f7" d="m360 364-5.5 4c17 4.694 33.226 10.103 48.5 19 4.787 2.788 28.321 22.028 31.5 21 .908-.294.304-1.625.5-2 .348-.666.854-1.264 1-2 3.05 3.099 5.219 2.276 10 9 14.65 20.601 15.76 41.614 14 66.5-.268 3.787-1.447 12.428-4 15.5-1.871.258-7.505 2.024-8.5 2-6.939-.168-11.042-2.576-17.5-2 .218-16.798-3.904-35.776-15-49 13.168-27.136-9.16-43.99-35.5-41-5.598.635-11.026 5.112-16.5 5-21.168-.431-24.975-9.942-54-3-.074-10.771 10.904-29.009 19.5-35 8.128-5.665 16.364-4.644 24.5-9 2.413.236 4.626.639 7 1"/><path fill="url(#f)" d="M698 365c-5.994 6.393 15.643 8.849 20.5 11 4.848 2.147 10.888 5.332 15.5 8 5.607 3.243 30.888 24.631 34.5 23 1.903-.859 1.555-3.302 1.5-5 17.138 15.242 26.665 38.601 29 61.5 9.552 93.68-80.785 165.723-168.5 128.5 7.959 21.884 21.536 26.714 42.5 32.5-8.652 2.589-20.619-5.297-28-.5-34.501-9.142-62.574-33.219-81-63-6.409-15.77-2.39-32.155-3-48.5-.377-10.102-3.113-22.061-3-32.5l4 4.5c-.749-15.147 3.515-30.426 10-44 4.255-8.907 31.47-49.008 38-55.5 19.289-19.176 62.408-23.398 88-20m0 45c-46.595-21.25-102.849 13.857-113 62-2.323 11.019-2.709 21.761-1 33l-5 1.5c6.962 37.324 39.675 68.639 77 75.5 26.491 4.869 50.661 1.024 73-14 43.151-29.021 52.711-85.68 19-126 1.192-3.837 4.779-6.665 4-12.5-.111-.829-6.957-12.712-8-14-11.523-14.235-31.357-17.004-46-5.5M579.5 535c9.438 23.869 31.103 38.281 54 48l14.5 3.5c-28.174-9.367-51.598-27.07-68.5-51.5" style="fill:url(#f)"/>/&gt;<path fill="#d7fbfd" d="M427 394c2.759 2.275 6.295 7.251 9 10-.146.736-.652 1.334-1 2-6.904-5.043-12.064-12.594-19.5-17-1.893-1.121-13.032-7.761-12.5-2-15.274-8.897-31.5-14.306-48.5-19l5.5-4c25.076 3.809 47.476 13.899 67 30"/><path fill="#90c2d5" d="M747 381c6.515 4.142 15.499 11.24 19 18-7.26-5.627-14.22-9.912-22.5-14l-9.5-1c-4.612-2.668-10.652-5.853-15.5-8-4.857-2.151-26.494-4.607-20.5-11 16.947 2.25 34.475 6.766 49 16"/><path fill="#033754" d="M726 631c2.723-1.159 24.752-12.752 25.5-14 1.513-2.525-2.486-6.971-1.5-10 81.94-53.403 84.796-179.24-1-229-2.2-1.276-4.774-2.885-7-4l3-8c114.806 58.531 101.5 223.848-19 265"/><path fill="#1a8db5" d="M605 381c-11.629 19.543-30.424 26.86-40 55l-11-2c3.199-8.647 4.832-14.044 10-22 10.49-16.148 25.634-27.484 42-37-.175 1.079-.736 5.557-1 6"/><path fill="url(#g)" d="M750 607c-7.603 4.955-18.49 11.095-27 14-11.701 3.995-24.71 6.209-37 7-12.934.833-26.358-.035-39-3-.109-.026.018-.465-2-1 7.381-4.797 19.348 3.089 28 .5-20.964-5.786-34.541-10.616-42.5-32.5 87.715 37.223 178.052-34.82 168.5-128.5-2.335-22.899-11.862-46.258-29-61.5-1.873-1.666-2.641-1.946-4-3-3.501-6.76-12.485-13.858-19-18l2-3c85.796 49.76 82.94 175.597 1 229" style="fill:url(#g)"/>/&gt;<path fill="#26aedb" d="M610 385c-6.53 6.492-33.745 46.593-38 55.5-6.485 13.574-10.749 28.853-10 44l-4-4.5c.147-13.625 2.618-31.121 7-44 9.576-28.14 28.371-35.457 40-55z"/><path fill="#cadbdf" d="M766 399c1.359 1.054 2.127 1.334 4 3 .055 1.698.403 4.141-1.5 5-3.612 1.631-28.893-19.757-34.5-23l9.5 1c8.28 4.088 15.24 8.373 22.5 14"/><path fill="#f7fefe" d="M435 406c-.196.375.408 1.706-.5 2-3.179 1.028-26.713-18.212-31.5-21-.532-5.761 10.607.879 12.5 2 7.436 4.406 12.596 11.957 19.5 17"/><path fill="#1981b5" d="M458 426c-1.894-2.802-9.097-10.394-12-13-4.781-6.724-6.95-5.901-10-9-2.705-2.749-6.241-7.725-9-10l3-2c11.73 9.358 29.17 17.965 28 34"/><path fill="#97becf" d="M834 467c1.357 23.784 1.688 45.63-4 69-3.997 16.423-12.359 34.09-22 48l19-42.5c.136-9.073 4.613-20.257 5-29 .083-1.874-2.017-5.178-2-5.5.236-4.438 1.958-11.576 2-13.5.457-21.059-13.433-52.649-22-72-1.356-3.064-5.019-13.707-7-17-1.625-2.701-7.717-7.013-7-11.5 18.934 21.373 32.754 45.654 38 74"/><path fill="#e2f5fa" d="M568 398c-2.703 3.059-4.618 6.778-7 10-25.963 35.108-35.104 71.661-27 115l-3 2c-5.118-21.868-5.096-42.756 1-65.5 5.963-22.248 18.683-46.377 36-61.5"/><path fill="#fafcfc" d="M748 442c-.739 2.378-.292 5.772-2 9-.604 1.141-4.099 6.053-5 7-.505.531-5.646 4.801-6 5-25.918 14.577-55.455-7.906-48-37 .451-1.758 4.727-9.415 6-11 .263-.327 4.71-4.772 5-5 14.643-11.504 34.477-8.735 46 5.5 1.043 1.288 7.889 13.171 8 14 .779 5.835-2.808 8.663-4 12.5m-47.5-27-4.5 4.5c-.216 5.323 38.184 19.132 45 20-13.072-8.45-32.444-10.404-40.5-24.5"/><path fill="#001633" d="M363 410c.356 2.967-3.938 4.52-5 6-2.408-2.16-2.029-5.438-5.5-7-9.569-4.305-40.074.433-50.5 4-20.588 7.044-36.627 22.87-46 42-3.337 6.81-5.41 10.17-7 18h-3c6.046-32.077 31.368-58.434 63-66 29.025-6.942 32.832 2.569 54 3"/><path fill="#001530" d="M698 410c-.29.228-4.737 4.673-5 5-5.392-14.072-36.307-6.561-48-3-25.095 7.643-44.368 26.275-53 51-1.144 3.278-2.915 6.649-4 10l-3-1c10.151-48.143 66.405-83.25 113-62"/><path fill="#fafefe" d="M415 446c-.669 1.38-2.341 5.053-3 6-1.781 2.56-9.454 10.621-12 12-26.732 14.48-55.331-11.259-46-40 .412-1.269 3.276-6.991 4-8 1.062-1.48 5.356-3.033 5-6 5.474.112 10.902-4.365 16.5-5 26.34-2.99 48.668 13.864 35.5 41"/><path fill="#021b30" d="M159 418c-4.194 77.024 11.962 154.252 40 225.5 3.069 7.799 20.665 41.634 21 45.5h-4c-35.655-79.771-63.733-168.979-59-257.5-1.037-1.419-7.135.162-9 .5-13.14 2.382-24.133 12.083-26 25.5-5.299 38.088 37.107 195.567 63 225 9.582 10.892 21.726 8.316 35 8.5 1.642-1.647 2.742.775 4 2.5 9.034 12.388 17.271 31.276 27 45 58.462 82.47 153.335 145.229 257 145.5 115.527.302 227.738-76.325 280-177 .837-1.612 1.913-2.816 3-5 5.941-5.361 10.409-14.909 14-22 10.349-20.438 16.708-41.385 24-63 7.711-22.859 15.707-45.34 21-69h1c-11.906 47.752-25.575 95.468-47 140l.5 3c6.878-.68 14.926 1.747 21-2 2.187-1.349 22.327-34.91 24.5-39.5 17.906-37.826 37.614-112.81 43-154.5l4-1c-1.086 9.076-2.442 18.003-4 27-8.335 48.129-25.402 92.634-44 137.5-.279 8.74 19.226-9.817 21-11.5-10.566 13.562-15.742 11.575-25 20.5-4.623 4.457-13.755 23.268-19.5 25.5-6.754 2.623-21.771-1.27-25 0-2.434.957-23.32 38.567-27.5 44.5-22.824 32.393-52.892 65.129-85 88.5-4.679 3.406-10.109 6.85-15 10-21.574 13.893-47.652 26.912-72 35-6.929 2.302-13.904 4.242-21 6-51.892 12.858-89.208 10.396-141 1-6.018-1.092-14.555-5.052-20-5-25.653-9.958-51.798-21.028-75-36-4.997-3.224-10.185-7.419-15-11-35.902-26.695-68.657-65.089-93-102.5-2.681-4.121-15.796-30.065-17.5-30.5-6.517-1.663-17.018 3.982-28-2-6.751-3.677-49.257-48.705-54.5-57l2-2c6.533 10.158 13.659 18.836 24 25.5.1 3.25-3.647-2.35-4 0-.123.816 10.513 8.716 13 8-12.949-27.246-23.122-55.673-32-84.5-9.845-31.968-23.33-76.688-22-110 1.264-31.651 11.662-36.296 40-45.5-.309-6.542.336-13.034 1-19.5 1.979 3.267.78 8.258 1 12"/><path fill="#056a8e" d="M358 416c-.724 1.009-3.588 6.731-4 8h-1l1.5-5c-11.933 1.314-25.322-2.549-37-1-2.573.341-20.15 6.711-22.5 8l7-13c10.426-3.567 40.931-8.305 50.5-4 3.471 1.562 3.092 4.84 5.5 7"/><path fill="#097395" d="M693 415c-1.273 1.585-5.549 9.242-6 11-53.397-8.568-101.132 42.919-78 95l-17 6c-2.192-4.023-4.686-8.603-6-13l2-41c1.085-3.351 2.856-6.722 4-10l10.5 1 42.5-52c11.693-3.561 42.608-11.072 48 3"/><path fill="#277b9b" d="M564 412c-5.168 7.956-6.801 13.353-10 22-10.403 28.118-14.818 58.309-8 88l-12 2c-.064-.321.06-.678 0-1-8.104-43.339 1.037-79.892 27-115-.35 2.261.343 4.209 3 4"/><path fill="#c7e2e8" d="M477 411c13.979 21.664 20.723 42.362 23 68 .011 33.612-4.136 60.445-20 90-4.094-3.218.1-11.995-5-13 6.191-14.192 12.002-31.993 13-47.5.659-10.232.616-26.251-4-34.5-1.092-8.574-4.182-18.788-7-27 6.378-4.601-9.072-22.697-9-26.5.014-.716 5.919-12.871 9-9.5"/><path fill="#015780" d="m645 412-42.5 52-10.5-1c8.632-24.725 27.905-43.357 53-51"/><path fill="#00557f" d="M295 426c-12.956 7.105-21.229 20.407-26 34l-13-5c9.373-19.13 25.412-34.956 46-42z"/><path fill="#26aadb" d="M458 426c10.319 15.268 14.442 35.896 16 53 .142 1.555-.067 2.877 0 4-5.489 6.405-8.44 12.628-17.5 14-.781.118-.398-2.014-.5-2 2.553-3.072 3.732-11.713 4-15.5 1.76-24.886.65-45.899-14-66.5 2.903 2.606 10.106 10.198 12 13"/><path fill="#c0d8e3" d="M700.5 415c8.056 14.096 27.428 16.05 40.5 24.5-6.816-.868-45.216-14.677-45-20z"/><path fill="#2b5b72" d="M393 652c31.399-13.535 64.742-37.589 83-67-1.243 8.177-7.971 18.476-13 25-36.61 47.493-61.77 46.353-113 64-8.344 2.874-18.839 6.023-21 16l-54 9.5c38.766 63.007 94.001 116.202 161.5 147.5 7.542 3.497 64.404 26.562 68 26 3.874-.605.216-39.164 1.5-44 .333.008.667-.004 1 0l3 53c-.924.406-1.901.851-2 2-103.665-.271-198.538-63.03-257-145.5-9.729-13.724-17.966-32.612-27-45-1.258-1.725-2.358-4.147-4-2.5-.026-.658.057-1.347 0-2-.335-3.866-17.931-37.701-21-45.5-28.038-71.248-44.194-148.476-40-225.5.499 8.48 1.7 16.928 1 25.5l4-3c1.707 34.058 5.37 67.839 13 101 5.719 24.853 15.172 62.182 32 81 47.996 53.669 121.116 56.606 184 29.5"/><path fill="#097898" d="M353 424c-1.784.029-.439 2.639-1.5 3-2.393.815-22.997-1.704-29-1-23.347 2.736-47.741 24.996-54.5 47-2.25-2.44.211-10.753 1-13 4.771-13.593 13.044-26.895 26-34 2.35-1.289 19.927-7.659 22.5-8 11.678-1.549 25.067 2.314 37 1z"/><path fill="url(#h)" d="M354 424c-9.331 28.741 19.268 54.48 46 40 5.944 11.741 9.411 26.949 8 40-6.089 56.319-88.801 77.242-126 36-14.529-16.109-19.435-37.007-16-58 .572-3.498.944-5.561 2-9 6.759-22.004 31.153-44.264 54.5-47 6.003-.704 26.607 1.815 29 1 1.061-.361-.284-2.971 1.5-3zm-57.5 98c-7.777 2.286-7.165 20.054 2 20 11.142-.065 13.853-24.661-2-20" style="fill:url(#h)"/>/&gt;<path fill="#24504f" d="M199 426c-2.598 4.884-5.968 11.909-8 17 1.717-5.991 3.43-12.465 8-17"/><path fill="url(#i)" d="M687 426c-7.455 29.094 22.082 51.577 48 37 8.221 12.311 12.428 26.149 11 41-6.454 67.123-108.32 81.573-137 17-23.132-52.081 24.603-103.568 78-95m-51.5 96c-8.347 2.455-8.152 20.612 2 20 11.398-.688 13.032-24.421-2-20" style="fill:url(#i)"/>/&gt;<path fill="#147b95" d="m910 548-1-1c2.495-17.231 4.372-48.237-3-64-1.275-2.726-3.82-5.414-6-7.5l-2 1c-.929 5.698-.325 11.861-1 17.5l-4 1c1.65-12.773 5.292-48.138-5.5-56-1.699-1.238-16.772-7.192-19.5-8-.503-.149-1.359.075-2 0 .477-1.264 1.656-1.727 2-3 8.108 5.133 25.402 6.552 29 18.5 1.749 5.81-.125 14.895 1 20 .786 3.568 9.155 12.555 11 18 6.635 19.581 3.935 43.622 1 63.5"/><path fill="#2f6075" d="M216 689c-7.621 0-14.901.346-22-3l-26-58c-12.019-65.367-20-125.203-20-192v-4c1.865-.338 7.963-1.919 9-.5-4.733 88.521 23.345 177.729 59 257.5"/><path fill="#8ebccc" d="M868 431c1.688 25.908 8.195 51.658 10 77.5 2.84 40.654-6.688 79.001-21 117-6.469 17.176-15.406 35.795-26 50.5 18.197-52.4 30.78-122.646 34-179 .362-6.34 1.783-13.202 2-19.5.283-8.228-2.447-42.666-1-46.5.641.075 1.497-.149 2 0"/><path fill="#ecf9fa" d="M893 495c-5.386 41.69-25.094 116.674-43 154.5-2.173 4.59-22.313 38.151-24.5 39.5-6.074 3.747-14.122 1.32-21 2l-.5-3c15.025 2.577 21.791 2.999 27-12 10.594-14.705 19.531-33.324 26-50.5 14.312-37.999 23.84-76.346 21-117-1.805-25.842-8.312-51.592-10-77.5 2.728.808 17.801 6.762 19.5 8 10.792 7.862 7.15 43.227 5.5 56"/><path fill="#dfeff3" d="M148 432v4c-38.067 5.976-21.183 62.283-16 88.5 6.562 33.192 17.717 73.017 30 104.5 3.975 10.189 20.439 48.404 27 54.5 1.732 1.609 3.008 1.561 5 2.5 7.099 3.346 14.379 3 22 3h4c.057.653-.026 1.342 0 2-13.274-.184-25.418 2.392-35-8.5-25.893-29.433-68.299-186.912-63-225 1.867-13.417 12.86-23.118 26-25.5"/><path fill="#32a9cb" d="M565 436c-4.382 12.879-6.853 30.375-7 44-.113 10.439 2.623 22.398 3 32.5.61 16.345-3.409 32.73 3 48.5-7.424-11.999-14.747-24.833-18-39-6.818-29.691-2.403-59.882 8-88z"/><path fill="#6fa5b7" d="M148 436c0 66.797 7.981 126.633 20 192-2.871-2.099-3.638-.586-6 1-12.283-31.483-23.438-71.308-30-104.5-5.183-26.217-22.067-82.524 16-88.5"/><path fill="#003661" d="m729 568-2-2.5c19.099-12.968 33.378-33.406 36-56.5 1.747-15.386-.013-24.715-5-39-2.141-6.133-5.535-17.465-12-19 1.708-3.228 1.261-6.622 2-9 33.711 40.32 24.151 96.979-19 126"/><path fill="#24504f" d="M197 561c6.437 17.456 24.601 39.67 38.5 52 46.83 41.542 111.706 51.207 168.5 24 32.087-13.004 59.677-37.59 76-68 15.864-29.555 20.011-56.388 20-90 .484 5.448.97 10.476 1 16 .164 30.358-8.96 64.162-25 90-18.258 29.411-51.601 53.465-83 67-8.532-2.474-22.693 3.233-33.5 4-116.332 8.258-213.773-99.577-168.5-213-11.105 38.759-12.241 81.226 6 118"/><path fill="#00456f" d="M430 495c-.408 31.4-15.812 56.709-42 73-1.426-2.215-1.352-2.206.5-4 17.717-17.159 32.891-27.558 36.5-55 2.529-19.23-1.022-41.365-13-57 .659-.947 2.331-4.62 3-6 11.096 13.224 15.218 32.202 15 49"/><path fill="#015780" d="M758 470c-10.134 4.251-8.945-7.071-17-12 .901-.947 4.396-5.859 5-7 6.465 1.535 9.859 12.867 12 19"/><path fill="#0e7596" d="M425 509c-5.996 2.137-10.912-4.659-17-5 1.411-13.051-2.056-28.259-8-40 2.546-1.379 10.219-9.44 12-12 11.978 15.635 15.529 37.77 13 57"/><path fill="#046389" d="M269 460c-.789 2.247-3.25 10.56-1 13-1.056 3.439-1.428 5.502-2 9l-18-1c-.51-2.88.454-5.313 1-8 1.59-7.83 3.663-11.19 7-18z"/><path fill="#0b7395" d="M758 470c4.987 14.285 6.747 23.614 5 39l-17-5c1.428-14.851-2.779-28.689-11-41 .354-.199 5.495-4.469 6-5 8.055 4.929 6.866 16.251 17 12"/><path fill="#1d494d" d="M519 507c1.649 22.797 6.693 38.867 17 59 46.271 90.383 159.899 112.497 240 51l-37 30c-1.627.995-3.541 1.688-5 3-16.962 3.416-36.2 10.266-53.5 11-51.659 2.191-114.327-33.57-141.5-77-20.878-33.369-29.141-77.965-20-116.5-.643 13.154-.951 26.362 0 39.5"/><path fill="#1a6a88" d="M833 536c-.955 4.151-2.824 7.449-4 11l1-11c5.688-23.37 5.357-45.216 4-69 4.367 23.6 4.378 45.615-1 69"/><path fill="#3d788c" d="M139 581h-9c-5.261-25.481-12.023-59.941-21-83-.406-1.043.919-3.735-1-4 1.648-6.845 6.232-12.973 7-20 .344-.639-.138-2.794 2-3-1.33 33.312 12.155 78.032 22 110"/><path fill="#033a60" d="m588 473-2 41a66 66 0 0 1-2-9c-1.709-11.239-1.323-21.981 1-33z"/><path fill="#003a5b" d="M249 473c-.546 2.687-1.51 5.12-1 8v36c-.403-1.105-.668-2.831-1-4-4.232-14.918-3.814-25.068-1-40z"/><path fill="#0b2034" d="M108 494c-1.591 6.608-2.605 13.194-3 20h-2c.996-16.135 4.55-26.162 12-40-.768 7.027-5.352 13.155-7 20"/><path fill="#e2f6f9" d="M475 556c-5.224 11.976-10.898 20.837-19 31l-2-3c24.294-30.381 34.529-70.378 30-109-.039-.329.042-.672 0-1 4.616 8.249 4.659 24.268 4 34.5-.998 15.507-6.809 33.308-13 47.5"/><path fill="#307994" d="M484 475c4.529 38.622-5.706 78.619-30 109-29.087 36.375-75.819 56.165-122 55-5.538-1.198-10.174-8.778-14-11 59.942 6.048 122.464-27.157 146-83.5 8.876-21.247 11.363-38.577 10-61.5-.067-1.123.142-2.445 0-4z"/><path fill="#7dbfd5" d="M906 483c.975 12.619-6.763 23.798-7 35.5-.265 13.094 1.062 24.933 0 39-.785 10.395-.668 19.64-3 31.5-.33 1.68-.597 3.329-1 5-1.784 7.397-11.055 29.901-15 36-.398.616-3.045.917-3 3.5l-2-1 22-109-4-2.5c1.558-8.997 2.914-17.924 4-27 .675-5.639.071-11.802 1-17.5l2-1c2.18 2.086 4.725 4.774 6 7.5"/><path fill="#0f7698" d="M266 482c-3.435 20.993 1.471 41.891 16 58-3.246 3.465-10.985 5.362-10 11-8.555-8.387-19.892-22.746-24-34v-36z"/><path fill="#279db5" d="M318 628c-1.105-.642-4.416-2.781-5-3l-41-55c15.673 10.334 41.671 21.072 60 18.5l-11.5-.5c-23.455-6.061-39.281-12.865-58.5-31-2.417-7.192-12.264-12.417-10-21 12.851 21.409 36.505 38.56 61 44 26.143 5.806 52.323 2.107 75-12 26.188-16.291 41.592-41.6 42-73 6.458-.576 10.561 1.832 17.5 2 .995.024 6.629-1.742 8.5-2 .102-.014-.281 2.118.5 2 9.06-1.372 12.011-7.595 17.5-14 1.363 22.923-1.124 40.253-10 61.5-23.536 56.343-86.058 89.548-146 83.5"/><path fill="#f2fcfe" d="M909 547c-1.969 13.601-6.25 30.007-13 42 2.332-11.86 2.215-21.105 3-31.5 1.062-14.067-.265-25.906 0-39 .237-11.702 7.975-22.881 7-35.5 7.372 15.763 5.495 46.769 3 64"/><path fill="#e0f0f5" d="M109 498c-3.19 16.433.564 32.793 2 49 .366 4.128-1.381 11.12-1 15-4.471-15.408-5.928-31.987-5-48 .395-6.806 1.409-13.392 3-20 1.919.265.594 2.957 1 4"/><path fill="#36687d" d="M831 676c-5.209 14.999-11.975 14.577-27 12 21.425-44.532 35.094-92.248 47-140 4.263-17.096 7.168-34.719 14-51-3.22 56.354-15.803 126.6-34 179"/><path fill="#66acc2" d="M130 581c3.226 15.624 8.285 31.879 6 48-4.613-7.648-9.504-18.661-13-27l-12-55c-1.436-16.207-5.19-32.567-2-49 8.977 23.059 15.739 57.519 21 83"/><path fill="#218da7" d="M425 509c-3.609 27.442-18.783 37.841-36.5 55-1.852 1.794-1.926 1.785-.5 4-22.677 14.107-48.857 17.806-75 12 .837-4.063-.915-3.601-3.5-5-15.846-8.576-23.743-10.513-37.5-24-.985-5.638 6.754-7.535 10-11 37.199 41.242 119.911 20.319 126-36 6.088.341 11.004 7.137 17 5"/><path fill="#1b87a3" d="M763 509c-2.622 23.094-16.901 43.532-36 56.5l2 2.5c-22.339 15.024-46.509 18.869-73 14 .694-4.075-.676-3.662-3.5-5-26.864-12.726-45.349-22.194-60.5-50l17-6c28.68 64.573 130.546 50.123 137-17z"/><path fill="#0dc4d9" d="M584 505a66 66 0 0 0 2 9c1.314 4.397 3.808 8.977 6 13 15.151 27.806 33.636 37.274 60.5 50 2.824 1.338 4.194.925 3.5 5-37.325-6.861-70.038-38.176-77-75.5z"/><path fill="#04b6cb" d="M247 513c.332 1.169.597 2.895 1 4 4.108 11.254 15.445 25.613 24 34 13.757 13.487 21.654 15.424 37.5 24 2.585 1.399 4.337.937 3.5 5-24.495-5.44-48.149-22.591-61-44-5.1-8.495-12.251-20.176-8.5-30z"/><path fill="#73b0bc" d="M808 584c-8.764 12.645-19.837 23.662-32 33-80.101 61.497-193.729 39.383-240-51 4.932 1.101 4.908-4.079 9-2 42.166 81.725 152.402 105.74 225.5 49 33.603-26.083 48.277-66.373 59.5-106-.017.322 2.083 3.626 2 5.5-.387 8.743-4.864 19.927-5 29z"/><path fill="#b2d4de" d="M826 616c-.786-.998-2.919-.523-1-3 .245-.776-1.407-1.197-1-2.5 7.833-25.047 15.865-46.835 20-68 2.165-11.08 2.205-22.785 6-33.5-4.174 38.79-17.083 67.702-23 102.5-.165.971 4.23 3.931-1 4.5"/><path fill="#176986" d="M105 514c-.928 16.013.529 32.592 5 48 1.192 12.133 8.328 27.628 13 39l-3 1c-10.551-26.85-18.797-58.885-17-88z"/><path fill="#4191b0" d="M546 522c3.253 14.167 10.576 27.001 18 39 18.426 29.781 46.499 53.858 81 63 2.018.535 1.891.974 2 1-2.202 4.383-1.693 10.115-7 10-50.904-12.889-95.718-59.375-106-111z"/><path fill="#2f6075" d="M880 630h1c-2.96 4.992-7.545 12.565-11 17-1.774 1.683-21.279 20.24-21 11.5 18.598-44.866 35.665-89.371 44-137.5l4 2.5-22 109 2 1c-.045-2.583 2.602-2.884 3-3.5"/><path fill="#fdfdfd" d="M296.5 522c15.853-4.661 13.142 19.935 2 20-9.165.054-9.777-17.714-2-20"/><path fill="#fdfdfe" d="M635.5 522c15.032-4.421 13.398 19.312 2 20-10.152.612-10.347-17.545-2-20"/><path fill="#8ee7f4" d="M262 557c19.219 18.135 35.045 24.939 58.5 31l11.5.5c-18.329 2.572-44.327-8.166-60-18.5-16.631-10.966-26.752-25.151-35-43 7.712 11.852 14.688 20.27 25 30"/><path fill="#e0f7f8" d="M579.5 535c16.902 24.43 40.326 42.133 68.5 51.5l-14.5-3.5c-22.897-9.719-44.562-24.131-54-48"/><path fill="#1d4c5c" d="M829 547c-6.188 18.681-14.904 35.359-27 51-5.982 7.735-13.765 14.453-20 22-6.704 3.586-16.666 14.022-24.5 19-5.05 3.209-14.179 5.357-18.5 8l37-30c12.163-9.338 23.236-20.355 32-33 9.641-13.91 18.003-31.577 22-48z"/><path fill="#a2c7dc" d="M802 598c12.096-15.641 20.812-32.319 27-51 1.176-3.551 3.045-6.849 4-11 2.665 1.659 1.506 7.616 1 10.5-2.849 16.238-14.818 46.501-32 51.5"/><path fill="#5ba3b0" d="M199 543c.503 1.688 2.217 5.827 3 8 22.043 61.135 85.469 99.505 150 93 .259 1.554-.601 5.097.5 6 2.601 2.133 45.619-10.617 51.5-13-56.794 27.207-121.67 17.542-168.5-24-13.899-12.33-32.063-34.544-38.5-52-.67-1.817-5.294-14.741-5-15.5.134-.346 5.946-2.744 7-2.5"/><path fill="#92ccdf" d="M123 602c-.119-.284.117-.715 0-1-4.672-11.372-11.808-26.867-13-39-.381-3.88 1.366-10.872 1-15z"/><path fill="#0d4861" d="M910 548c-2.604 17.638-6.799 31.518-13 48l-2-2c.403-1.671.67-3.32 1-5 6.75-11.993 11.031-28.399 13-42z"/><path fill="#b0d6de" d="M209 561c25.821 46.836 68.532 76.626 123 78 46.181 1.165 92.913-18.625 122-55l2 3c-24.996 31.354-63.784 52.946-104 57-64.531 6.505-127.957-31.865-150-93 2.995 2.037 5.3 6.917 7 10"/><path fill="#19495e" d="M220 556c15.363 28.812 42.057 52.997 72.5 65 6.127 2.416 17.052 2.704 20.5 4 .584.219 3.895 2.358 5 3 3.826 2.222 8.462 9.802 14 11-54.468-1.374-97.179-31.164-123-78z"/><path fill="#8dbdc9" d="M480 569c-16.323 30.41-43.913 54.996-76 68-5.881 2.383-48.899 15.133-51.5 13-1.101-.903-.241-4.446-.5-6 40.216-4.054 79.004-25.646 104-57 8.102-10.163 13.776-19.024 19-31 5.1 1.005.906 9.782 5 13"/><path fill="#2f6075" d="M139 581c8.878 28.827 19.051 57.254 32 84.5-2.487.716-13.123-7.184-13-8 .353-2.35 4.1 3.25 4 0-10.341-6.664-17.467-15.342-24-25.5-.661-1.028-1.368-1.952-2-3 2.285-16.121-2.774-32.376-6-48z"/><path fill="#508091" d="M539 584c27.173 43.43 89.841 79.191 141.5 77 17.3-.734 36.538-7.584 53.5-11-.588.529-8.046 11.434-9 13-12.717 6.93-33.776 6.464-48.5 6-53.542-1.686-102.553-22.706-131.5-69-1.524-2.438-11.301-15.277-6-16"/><path fill="#051526" d="M897 596c-5.046 13.413-8.629 21.57-16 34h-1c3.945-6.099 13.216-28.603 15-36z"/><path fill="#85b6c7" d="M545 600c28.947 46.294 77.958 67.314 131.5 69 14.724.464 35.783.93 48.5-6-6.089 9.994-10.682 23.908-17 34.5-16.011 26.841-32.55 54.161-54 77 9.348 8.373 16.374 21.524 20 33.5-39.428 26.775-83.962 54.146-133 56 27.681-16.521 58.25-33.471 81.5-56 9.439-9.146 18.051-12.609 5.5-24 17.717-15.229 59.393-66.55 61-89.5.531-7.582-5.157-15.97-12.5-18.5-2.649-.913-11.374-1.566-6.5 3-5.759.215-33.871 11.903-38 16-18.675 7.375-37.186 15.107-57 19-56.407 11.084-115.046 4.087-169-14-6.423-2.443-12.636-5.469-19-8-7.602-3.024-29.173-14.61-36-15l-1-3c51.23-17.647 76.39-16.507 113-64 5.43 8.772 22.541 6.815 31.5 6 16.475-1.499 36.481-7.207 50.5-16"/><path fill="#094767" d="M123 601c.117.285-.119.716 0 1 3.496 8.339 8.387 19.352 13 27 .632 1.048 1.339 1.972 2 3l-2 2c-6.463-10.224-11.584-20.761-16-32z"/><path fill="#095174" d="M726 631c-.265.113-.912.564-2 1l-1-11c8.51-2.905 19.397-9.045 27-14-.986 3.029 3.013 7.475 1.5 10-.748 1.248-22.777 12.841-25.5 14"/><path fill="#96c8d6" d="M825 613c-1.919 2.477.214 2.002 1 3 1.888 2.396.323 4.367 3 1-7.292 21.615-13.651 42.562-24 63l16-56c.892-2.702.903-7.059 2-10.5.279-.875 1.967-.394 2-.5"/><path fill="#b4cfdf" d="M799 659c-20.864 46.363-32.733 72.448-71 108-16.457 15.289-35.44 28.397-54 41-3.626-11.976-10.652-25.127-20-33.5 21.45-22.839 37.989-50.159 54-77 6.318-10.592 10.911-24.506 17-34.5.954-1.566 8.412-12.471 9-13 1.459-1.312 3.373-2.005 5-3 4.321-2.643 13.45-4.791 18.5-8 7.834-4.978 17.796-15.414 24.5-19 .823-.44 4.105-2.508 5-.5 1.37 13.134-.776 31.616 12 39.5"/><path fill="#1d6580" d="m723 621 1 11c-19.273 7.73-41.401 9.29-62 7 8.42.311 29.353 1.677 24-11 12.29-.791 25.299-3.005 37-7"/><path fill="#4a8da4" d="M805 680c-3.591 7.091-8.059 16.639-14 22 9.027-18.134 15.298-36.085 22-55 2.723-7.685 5.438-15.236 8-23z"/><path fill="#277b9b" d="M686 628c5.353 12.677-15.58 11.311-24 11-7.663-.283-14.661-2.142-22-4 5.307.115 4.798-5.617 7-10 12.642 2.965 26.066 3.833 39 3"/><path fill="#488095" d="m168 628 26 58c-1.992-.939-3.268-.891-5-2.5-6.561-6.096-23.025-44.311-27-54.5 2.362-1.586 3.129-3.099 6-1"/><path fill="#e9eff3" d="M813 647c-6.702 18.915-12.973 36.866-22 55-1.087 2.184-2.163 3.388-3 5-19.56 20.443-34.669 46.212-54.5 67l-5.5-7c38.267-35.552 50.136-61.637 71-108 1.056-2.347 8.502-21.556 10.5-21z"/><path fill="#bfdfe7" d="m350 674 1 3c-38.103-2.176-6.548 53.994 6 66 39.177 56.72 111.727 84.052 179 75 30.413-4.092 62.769-18.229 86-38 22.271-16.169 50.005-45.775 60-71.5 2.622-6.748 5.965-14.321 3-21-2.625-5.914-8.688-8.736-15-8.5-4.874-4.566 3.851-3.913 6.5-3 7.343 2.53 13.031 10.918 12.5 18.5-1.607 22.95-43.283 74.271-61 89.5-32.707 28.115-77.534 45.474-121 45-.333-.004-.667.008-1 0-55.59-1.289-104.108-27.166-140-68.5-10.941-12.601-40.364-54.967-37-70.5 2.161-9.977 12.656-13.126 21-16"/><path fill="#112028" d="M387 692c-2.449.76-1.67 1.819-1 3.5 1.984 4.976 4.734 10.579 7 15.5 22.925 49.785 82.122 57.644 132 54-1.892 2.511-12.675 2.973-15.5 3-34.426.325-84.358-8.646-107.5-36.5-9.625-11.585-16.853-35.887-29.5-44.5-13.553-9.23-41.275-12.599-38.5 11.5.652 5.665 19.892 40.001 23 44.5-12.548-12.006-44.103-68.176-6-66 6.827.39 28.398 11.976 36 15"/><path fill="#0f2a4b" d="M670 679c6.312-.236 12.375 2.586 15 8.5 2.965 6.679-.378 14.252-3 21-9.995 25.725-37.729 55.331-60 71.5-17.647 12.812-46.551 27.353-67.5 33-5.294 1.427-14.818.508-18.5 5-67.273 9.052-139.823-18.28-179-75-3.108-4.499-22.348-38.835-23-44.5-2.775-24.099 24.947-20.73 38.5-11.5 12.647 8.613 19.875 32.915 29.5 44.5 23.142 27.854 73.074 36.825 107.5 36.5 2.825-.027 13.608-.489 15.5-3 37.658-2.752 83.999-15.677 98-55 2.685-3.724 6.344-12.364 9-15 4.129-4.097 32.241-15.785 38-16M507 816c9.143-.757 37.638-6.171 42-14.5 9.24-17.641-9.058-16.216-20-14.5-14.168 2.222-20.005 3.027-35 2-5.826-.399-11.328-2.59-17-3-6.647-.48-21.918-3.147-24 6.5-4.906 22.738 40.007 24.659 54 23.5"/><path fill="#4c8498" d="M329 690c-3.364 15.533 26.059 57.899 37 70.5 35.892 41.334 84.41 67.211 140 68.5-1.284 4.836 2.374 43.395-1.5 44-3.596.562-60.458-22.503-68-26-67.499-31.298-122.734-84.493-161.5-147.5Z"/><path fill="url(#j)" d="M406 700c53.225 20.244 105.837 25.854 162.5 17 1.377-.215 7.057-.821 6.5-3 19.814-3.893 38.325-11.625 57-19-2.656 2.636-6.315 11.276-9 15-35.298 48.958-83.913 55.544-142.5 48-35.342-4.551-53.64-11.41-76.5-38.5-2.408-2.854-10.033-19.183-11-8.5-2.266-4.921-5.016-10.524-7-15.5-.67-1.681-1.449-2.74 1-3.5 6.364 2.531 12.577 5.557 19 8" style="fill:url(#j)"/>/&gt;<path fill="#4c8497" d="M575 714c.557 2.179-5.123 2.785-6.5 3-56.663 8.854-109.275 3.244-162.5-17 53.954 18.087 112.593 25.084 169 14"/><path fill="#eaf8fb" d="M623 710c-14.001 39.323-60.342 52.248-98 55-49.878 3.644-109.075-4.215-132-54 .967-10.683 8.592 5.646 11 8.5 22.86 27.09 41.158 33.949 76.5 38.5 58.587 7.544 107.202.958 142.5-48"/><path fill="#bfd6e1" d="M508 884c.099-1.149 1.076-1.594 2-2 9.761-4.293 21.614-12.398 31-18 49.038-1.854 93.572-29.225 133-56 18.56-12.603 37.543-25.711 54-41l5.5 7c19.831-20.788 34.94-46.557 54.5-67-52.262 100.675-164.473 177.302-280 177"/><path fill="#0a1319" d="M622 780c-23.231 19.771-55.587 33.908-86 38 3.682-4.492 13.206-3.573 18.5-5 20.949-5.647 49.853-20.188 67.5-33"/><path fill="#69a3b5" d="M628 784c12.551 11.391 3.939 14.854-5.5 24-23.25 22.529-53.819 39.479-81.5 56-9.386 5.602-21.239 13.707-31 18l-3-53c43.466.474 88.293-16.885 121-45"/><path fill="#427e97" d="m477 786-2 3c-1.586.205-4.677.584-5 2.5-.935 5.549 11.82 4.716 14 5.5 8.307 2.987 12.973 7.331 23 8v11c-13.993 1.159-58.906-.762-54-23.5 2.082-9.647 17.353-6.98 24-6.5"/><path fill="#295d7a" d="M507 816v-11c11.685.779 16.235-1.261 25-8.5l-12-5.5c1.061-.11 16.846-1.154 9-4 10.942-1.716 29.24-3.141 20 14.5-4.362 8.329-32.857 13.743-42 14.5"/><path fill="#43889f" d="M494 789c8.137 4.346 17.292 2.903 26 2l12 5.5c-8.765 7.239-13.315 9.279-25 8.5-10.027-.669-14.693-5.013-23-8 2.721-7.477-1.951-8.911-9-8l2-3c5.672.41 11.174 2.601 17 3"/><path fill="#182c3d" d="M529 787c7.846 2.846-7.939 3.89-9 4-8.708.903-17.863 2.346-26-2 14.995 1.027 20.832.222 35-2"/><path fill="#4da0b7" d="M475 789c7.049-.911 11.721.523 9 8-2.18-.784-14.935.049-14-5.5.323-1.916 3.414-2.295 5-2.5"/><path fill="#4d798c" d="M601 871c7.239 3.832 50.131 8.994 52 15.5.826 2.875-1.624 4.925-3.5 6.5-23.363 19.619-251.506 19.984-276 1-3.036-2.353-6.506-5.419-3-9 1.748-1.785 44.616-11.963 48.5-12 5.445-.052 13.982 3.908 20 5-5.746 4.634-16.055 2.961-23 4.5-5.402 6.749 58.766 13.27 62.5 13.5 21.898 1.349 120.203.794 134-12 1.273-1.18 2.332-2.203 1-4-4.836 1.499-11.983 1.413-17 1-3.727-.307-13.473-1.673-16.5-4 7.096-1.758 14.071-3.698 21-6"/><path fill="#265165" d="M580 877c3.027 2.327 12.773 3.693 16.5 4 5.017.413 12.164.499 17-1 1.332 1.797.273 2.82-1 4-13.797 12.794-112.102 13.349-134 12-3.734-.23-67.902-6.751-62.5-13.5 6.945-1.539 17.254.134 23-4.5 51.792 9.396 89.108 11.858 141-1"/></svg>