<svg xmlns="http://www.w3.org/2000/svg" width="1024" height="1024"><defs><linearGradient id="a" x1="298.304" x2="747.532" y1="153.519" y2="307.854" gradientUnits="userSpaceOnUse"><stop offset="0%" style="stop-color:#5c8c9e"/><stop offset="74.737%" style="stop-color:#deeef2"/></linearGradient></defs><defs><linearGradient id="b" x1="744.411" x2="292.6" y1="461.996" y2="494.801" gradientUnits="userSpaceOnUse"><stop offset="0%" style="stop-color:#ddedf1"/><stop offset="48.786%" style="stop-color:#a3c5d0"/><stop offset="100%" style="stop-color:#548597"/></linearGradient></defs><defs><linearGradient id="c" x1="344.526" x2="670.521" y1="385.825" y2="453.768" gradientUnits="userSpaceOnUse"><stop offset="0%" style="stop-color:#006e84"/><stop offset="100%" style="stop-color:#1e9fbb"/></linearGradient></defs><defs><linearGradient id="d" x1="579.153" x2="412.451" y1="320.706" y2="494.751" gradientUnits="userSpaceOnUse"><stop offset="0%" style="stop-color:#19b8db"/><stop offset="84.232%" style="stop-color:#0094c0"/></linearGradient></defs><defs><linearGradient id="e" x1="626.343" x2="557.208" y1="338.596" y2="382.69" gradientUnits="userSpaceOnUse"><stop offset="0%" style="stop-color:#f6feff"/><stop offset="100%" style="stop-color:#c8e3ec"/></linearGradient></defs><defs><linearGradient id="f" x1="553.426" x2="456.112" y1="361.824" y2="477.284" gradientUnits="userSpaceOnUse"><stop offset="0%" style="stop-color:#074d71"/><stop offset="100%" style="stop-color:#043057"/></linearGradient></defs><defs><linearGradient id="g" x1="842.097" x2="830.996" y1="413.769" y2="530.241" gradientUnits="userSpaceOnUse"><stop offset="0%" style="stop-color:#45d8f0"/><stop offset="100%" style="stop-color:#0d889e"/></linearGradient></defs><defs><linearGradient id="h" x1="241.391" x2="234.995" y1="462.236" y2="547.997" gradientUnits="userSpaceOnUse"><stop offset="0%" style="stop-color:#639aaa"/><stop offset="100%" style="stop-color:#48798a"/></linearGradient></defs><defs><linearGradient id="i" x1="775.874" x2="775.018" y1="464.834" y2="549.829" gradientUnits="userSpaceOnUse"><stop offset="0%" style="stop-color:#619bab"/><stop offset="100%" style="stop-color:#47798a"/></linearGradient></defs><defs><linearGradient id="j" x1="649.894" x2="361.344" y1="775.469" y2="813.153" gradientUnits="userSpaceOnUse"><stop offset="0%" style="stop-color:#a0c2cd"/><stop offset="100%" style="stop-color:#6392a4"/></linearGradient></defs><defs><linearGradient id="k" x1="502.099" x2="503.755" y1="823.524" y2="857.483" gradientUnits="userSpaceOnUse"><stop offset="0%" style="stop-color:#15aed0"/><stop offset="100%" style="stop-color:#05849c"/></linearGradient></defs><path fill="#0a3a4e" d="M802 320c.493 2.732-.403 9.163 3 11.5-45.923 12.305-62.483 74.915-66 117-.32 3.832-.577 9.961 1 13.5-.483 16.254 1.073 34.979 4 51 3.169 17.345 9.055 30.006 15 46 .109.293-.111.708 0 1 4.416 11.652 8.913 34.014 23 40-3.121 4.946-3.775 11.387-5 17-2.614 3.966-10.055-4.283-12-6.5-16.816-19.169-30.138-71.212-32-96.5-1.408-19.127-.225-39.853 1-59 1.947-30.441 9.927-77.796 27-103.5 3.505-5.277 26.47-24.202 27-26 1.342-4.552-6.13-18.888-8.5-23.5-6.921 6.534-13.176 13.909-20.5 20-5.729 4.764-25.744 22.22-33.5 18-.841-.457-4.66-14.719-6.5-18l2-4c5.183 5.821 11.117 12.306 19.5 8 6.621-3.401 23.474-26.782 27.5-34 1.193-2.14 5.563-4.804 5-8.5-22.607-44.816-57.894-93.201-103-117.5-30.962-22.217-72.285-37.91-110-44-142.405-22.996-260.77 50.676-325 174.5 6.365 3.991 36.698 28.437 41.5 28.5 5.899.078 16.765-21.484 20.5-26.5 47.647-63.98 109.456-107.886 192-111.5l1.5 8c.596-.392 1.694-1.997 2-2 17.339-.19 33.216 1.904 48 4 8.011 1.136 16.585.081 23.5 5-14.57-3.498-31.007-5.364-46-6-55.274-2.344-106.357 9.842-152 41-35.96 24.548-64.087 60.85-84.5 99-14.413-15.168-30.729-22.618-51-27-2.174-.361-2.062 3.334-2.5 4-1.439 2.191-9.424 18.163-9 19.5 14.38 9.333 33.174 26.145 42 41 30.992 52.162 23.175 193.535-11 244-2.506 3.701-4.039.79-5 2-.356.448-1.05 7.971-5 9.5-1.507-5.475-1.321-16.545-4-24 3.183-3.32.133-9.326 1-12.5 1.262-4.62 11.198-17.783 14-24 1.182-2.622 3.939-8.699 3-11.5 5.176-12.188 9.929-23.945 12-37 9.066-30.108 8.596-63.126 3-94-3.572-19.706-10.184-36.719-20-54-14.192-24.983-23.936-38.68-55-39l1-2c1.911-.068 9.79.955 10 .5.589-1.276-2.067-2.661-2-3 1.742-8.788 16.045-36.876 21-46 116.513-214.539 429.008-243.282 554-22 10.604 18.773 20.137 38.093 24 59.5"/><path fill="url(#a)" d="M560 122c-3.026 3.486-1.522 2.816 2.5 4 10.151 2.987 23.217 3.161 33.5 7.5-12.975 1.164-27.956-4.209-40-.5-13.205-2.183-27.329-6.246-40.5-5 45.889 9.672 92.222 20.136 133 44 49.524 28.983 87.069 73.541 119.5 120-4.026 7.218-20.879 30.599-27.5 34-8.383 4.306-14.317-2.179-19.5-8-25.332-28.451-30.821-52.451-67-78-23.475-18.88-51.281-33.24-80-42-27.695-8.447-55.812-12.278-85-11-82.544 3.614-144.353 47.52-192 111.5-3.735 5.016-14.601 26.578-20.5 26.5-4.802-.063-35.135-24.509-41.5-28.5C299.23 172.676 417.595 99.004 560 122" style="fill:url(#a)"/>/&gt;<path fill="#b1cad4" d="M670 166c-34.743-18.717-75.324-26.608-114-33 12.044-3.709 27.025 1.664 40 .5-10.283-4.339-23.349-4.513-33.5-7.5-4.022-1.184-5.526-.514-2.5-4 37.715 6.09 79.038 21.783 110 44"/><path fill="#fdfdfe" d="M556 133c38.676 6.392 79.257 14.283 114 33 45.106 24.299 80.393 72.684 103 117.5.563 3.696-3.807 6.36-5 8.5-32.431-46.459-69.976-91.017-119.5-120-40.778-23.864-87.111-34.328-133-44 13.171-1.246 27.295 2.817 40.5 5"/><path fill="#0b4d63" d="m574 198-4 6c-1.99-.552-4.241-1.578-6-2-6.915-4.919-15.489-3.864-23.5-5-14.784-2.096-30.661-4.19-48-4-.306.003-1.404 1.608-2 2l-1.5-8c29.188-1.278 57.305 2.553 85 11"/><path fill="#85afbe" d="m518 196-.5 4c-52.375-2.97-105.236 15.021-145.5 48l-6-11c45.643-31.158 96.726-43.344 152-41"/><path fill="url(#b)" d="M564 202c1.759.422 4.01 1.448 6 2 17.204 4.773 41.579 15.039 57 24 32.568 18.925 73.564 61.129 92 94 1.84 3.281 5.659 17.543 6.5 18 7.756 4.22 27.771-13.236 33.5-18-17.811 42.962-26.626 85.816-32 132-2 17.19-3.986 34.765-5 52-1.333 22.654.784 47.744-1 70-2.303 28.726-39.952 129.13-57 154.5-21.524 32.03-56.814 30.475-85.5 8.5-13.098-10.034-21.227-29.736-36-35-11.273-4.017-43.151-5.632-55-4-24.653 3.396-31.307 32.954-50 45-86.273 55.594-117.788-68.096-136.5-128.5-4.347-14.033-9.883-28.063-9-43-2.473.452-3.11 5.345-4 7.5.344-39.036 2.815-78.983 1-118 16.619 90.4 99.608 168.956 194 167.5-96.899-10.867-168.5-86.384-186-180.5-15.359-82.606 10.727-149.356 75-202 40.264-32.979 93.125-50.97 145.5-48l.5-4c14.993.636 31.43 2.502 46 6m15 39c20.619 7.462 42.991 22.531 58.5 38 1.104-1.925 1.304-1.712.5-3.5-4.046-8.991-47.522-31.162-58-35.5-6.1-2.525-12.103-6.105-18.5-8-80.94-23.974-184.576 10.861-218 92 13.236-17.393 24.328-35.52 41-50 51.764-44.959 130.734-56.076 194.5-33m-133 6c-156.686 54.119-161.679 281.92-4 340 112.781 41.542 236.108-32.495 247-153a189.6 189.6 0 0 0 0-34c-2.429-26.781-11.41-52.043-25-75-4.69-7.923-8.252-12.869-14-20-7.03-8.723-14.525-16.678-23-24-13.58-11.731-28.474-21.797-45-29-14.617-6.371-26.291-9.414-42-12-31.232-5.141-62.577-3.853-94 7m249.5 132 2.5 22.5C708.306 580.279 504.17 674.518 373.5 557l-1 2c-2.89-2.77-5.589-5.754-8.5-8.5-.759-.716 1.08-1.922 1-2-1.476-1.431-2.411.591-2.5.5-22.266-22.799-38.118-51.807-46.5-82.5-2.273-.581-2.281 2.744-2 4 9.493 42.373 55.11 95.301 92.5 116.5 146.634 83.137 324.333-42.645 289-208" style="fill:url(#b)"/>/&gt;<path fill="#0e6881" d="M654 240c-1.489-1.052-19.951-12.945-22.5-14-1.615-.668-5.506-2.167-4.5 2-15.421-8.961-39.796-19.227-57-24l4-6c28.719 8.76 56.525 23.12 80 42"/><path fill="#a1cad6" d="m580 240-1 1c-63.766-23.076-142.736-11.959-194.5 33-16.672 14.48-27.764 32.607-41 50 33.424-81.139 137.06-115.974 218-92 6.397 1.895 12.4 5.475 18.5 8"/><path fill="#1497b3" d="M654 240c36.179 25.549 41.668 49.549 67 78l-2 4c-18.436-32.871-59.432-75.075-92-94-1.006-4.167 2.885-2.668 4.5-2 2.549 1.055 21.011 12.948 22.5 14"/><path fill="#6393a4" d="M372 248c-64.273 52.644-90.359 119.394-75 202l-8-1c-1.287-13.885-7.827-42.827-12-56.5-8.855-29.009-28.57-57.477-49-79.5.438-.666.326-4.361 2.5-4 20.271 4.382 36.587 11.832 51 27 20.413-38.15 48.54-74.452 84.5-99z"/><path fill="#036d81" d="m540 240-1 7c-32.759-4.276-60.884-2.53-92 8l-1-8c31.423-10.853 62.768-12.141 94-7"/><path fill="#1e99b2" d="m582 252-3 6c-13.008-5.517-24.205-7.93-38-10-.949-.142-1.062-.878-2-1l1-7c15.709 2.586 27.383 5.629 42 12"/><path fill="#eef8fb" d="m579 241 1-1c10.478 4.338 53.954 26.509 58 35.5.804 1.788.604 1.575-.5 3.5-15.509-15.469-37.881-30.538-58.5-38"/><path fill="url(#c)" d="M539 247c.938.122 1.051.858 2 1 1.164 8.572 3.617 17.072 7 25-113.657-22.785-202.82 61.896-183 177 .327 1.897.601 4.212 1 6 4.257 19.096 12.747 35.953 24 52-1.854-1.92-9.191-10.529-9-5-2.403-3.408-13.555-24.559-16.5-24-2.055.39-1.55.576-1.5 2.5 11.854 22.854 28.704 41.918 49 57.5 127.68 98.026 293.759-30.697 233-188-1.419-3.673-3.288-9.889-5-13l28.5 25c2.369-.45-.185-4.958-.5-6l3-4c6.929 17.767 11.193 30.512 13 50 1.034 11.149.966 20.844 0 32-7.894 91.155-91.446 161.419-182 159-191.383-5.112-235.179-278.025-55-339 31.116-10.53 59.241-12.276 92-8" style="fill:url(#c)"/>/&gt;<path fill="#014d64" d="M447 255c-180.179 60.975-136.383 333.888 55 339-.987 2.62-11.436 3.13-13.5 3-13.667-.863-28.271-6.351-42-11-.218-.074-5.637-1.124-4.5 1-157.679-58.08-152.686-285.881 4-340z"/><path fill="#81e6f6" d="M579 258c15.151 6.426 32.583 18.162 45 29 6.003 5.24 16.112 14.966 21 21 1.648 2.034 13.274 17.403 13 18.5-.161.644-8.637 3.25-8 6.5-23.201-23.965-58.029-45.648-90-54.5l42 29.5c-10.393-2.164-17.42-2.838-28 0-10.827-10.642-19.939-20.794-26-35-3.383-7.928-5.836-16.428-7-25 13.795 2.07 24.992 4.483 38 10"/><path fill="#25bcdb" d="m627 281-3 6c-12.417-10.838-29.849-22.574-45-29l3-6c16.526 7.203 31.42 17.269 45 29"/><path fill="url(#d)" d="M548 273c6.061 14.206 15.173 24.358 26 35-3.528.946-15.107 6.738-18 9-44.104-19.754-101.457-7.548-131 31-25.925 5.45-39.231 31.402-35 56 1.459 8.482 4.423 14.319 10 21-.655 22.745 14.271 49.102 30 65.5 70.052 73.029 194.433 19.877 183-81.5 3.625-1.674 11.91-8.045 15-11 1.696.101.776 1.925 1 3 13.92 66.946-49.024 135.254-115 139-17.807 1.011-37.661-1.321-53.5-10 .015 8.511 19.84 5.04 15.5 14-22.228-6.369-49.466-18.593-66-35-19.789-19.636-34.413-48.508-37-76.5-2.598-1.914-2.022 7.113-2 7.5l-6 10c-19.82-115.104 69.343-199.785 183-177" style="fill:url(#d)"/>/&gt;<path fill="#9ff0fc" d="M650 333c6.446 6.658 15.349 15.236 18 24 .315 1.042 2.869 5.55.5 6L640 338c-8.988-16.334-19.35-26.117-38-30l-42-29.5c31.971 8.852 66.799 30.535 90 54.5"/><path fill="#69e7fa" d="M650 305c-3.337-.402-3.912-.048-5 3-4.888-6.034-14.997-15.76-21-21l3-6c8.475 7.322 15.97 15.277 23 24"/><path fill="#77a1af" d="m734 455-7-1c5.374-46.184 14.189-89.038 32-132 7.324-6.091 13.579-13.466 20.5-20 2.37 4.612 9.842 18.948 8.5 23.5-.53 1.798-23.495 20.723-27 26-17.073 25.704-25.053 73.059-27 103.5"/><path fill="#38c3df" d="M650 305c5.748 7.131 9.31 12.077 14 20-11.22-1.411 2.869 15.508 5 20.5.786 1.84 1.35 5.834 2 7.5l-3 4c-2.651-8.764-11.554-17.342-18-24-.637-3.25 7.839-5.856 8-6.5.274-1.097-11.352-16.466-13-18.5 1.088-3.048 1.663-3.402 5-3"/><path fill="url(#e)" d="M602 308c18.65 3.883 29.012 13.666 38 30 1.712 3.111 3.581 9.327 5 13-1.486 11.217-.947 22.524-6 33-1.671 3.464-8.1 11.227-11 14-3.09 2.955-11.375 9.326-15 11-4.249 1.962-10.286 3.448-15 4-41.694 4.883-72.858-39.538-56-78 1.739-3.968 10.58-15.327 14-18 2.893-2.262 14.472-8.054 18-9 10.58-2.838 17.607-2.164 28 0" style="fill:url(#e)"/>/&gt;<path fill="#00618f" d="M556 317c-3.42 2.673-12.261 14.032-14 18 .267-2.014-5.224-3.655-6.5-4-29.566-8.001-57.444.166-82 17l2.5 3c-1.779-.687-2.693-.628-4-1-9.647-2.75-16.779-4.149-27-2 29.543-38.548 86.896-50.754 131-31"/><path fill="#2f5f70" d="M289 449c.425 4.589-.202 9.666 0 14 1.815 39.017-.656 78.964-1 118-11.319 27.397-16.896 56.513-36 81-4.08-10.796-8.937-21.876-12-33 3.95-1.529 4.644-9.052 5-9.5.961-1.21 2.494 1.701 5-2 34.175-50.465 41.992-191.838 11-244-8.826-14.855-27.62-31.667-42-41-.424-1.337 7.561-17.309 9-19.5 20.43 22.023 40.145 50.491 49 79.5 4.173 13.673 10.713 42.615 12 56.5"/><path fill="#0c2e3f" d="M839 334c-36.044-7.057-65.362 9.358-76 44-15.446 22.632-22.187 56.626-23 84-1.577-3.539-1.32-9.668-1-13.5 3.517-42.085 20.077-104.695 66-117-3.403-2.337-2.507-8.768-3-11.5 2.718 1.362 3.33 11.371 4.5 12 1.537.827 22.127-1.793 32.5 2"/><path fill="#139ab6" d="M664 325c13.59 22.957 22.571 48.219 25 75l-5 3c-1.807-19.488-6.071-32.233-13-50-.65-1.666-1.214-5.66-2-7.5-2.131-4.992-16.22-21.911-5-20.5"/><path fill="url(#f)" d="M542 335c-16.858 38.462 14.306 82.883 56 78-3.328 10.968-3.185 22.546-7 33.5-29.895 85.834-152.689 73.454-176-9.5 63.355 28.754 102.144-62.376 41-86l-2.5-3c24.556-16.834 52.434-25.001 82-17 1.276.345 6.767 1.986 6.5 4m-18.5 39c-19.965 3.34-14.323 37.937 9 33 18.56-3.929 12.497-36.596-9-33" style="fill:url(#f)"/>/&gt;<path fill="#356376" d="m195 331-1 2c-6.415-.066-12.726-.069-19 1.5 11.448 8.197 19.192 19.821 25 32.5.813 6.748 3.434 13.333 5 20l2 28c-1.782-10.549-6.266-30.502-13-38.5-4.869-5.782-17.59-13.785-22-4.5-10.765.301-17.637 19.728-20 29l-3 3c.624-4.203 1.778-8.24 2-12.5-3.585-2.34-3.693-1.549-6 1.5 3.247-15.715 12.539-56.275 30.5-61 4.567-1.202 14.411-.82 19.5-1"/><path fill="#e2eff2" d="M194 333c31.064.32 40.808 14.017 55 39l-1.5 6c-7.987-.179-15.321-3.408-23-5-2.898-.601-15.54-.284-17-1-1.512-.741-5.569-18.015-10.5-17.5 10.653 17.75 16.822 38.657 20 59 3.1 19.839 5.41 40.284-1 58.5.853-33.581-1.982-74.397-16-105-5.808-12.679-13.552-24.303-25-32.5 6.274-1.569 12.585-1.566 19-1.5"/><path fill="#edf5f6" d="M839 334v1c-8.947 5.973-15.725 14.721-21 24-10.345 18.196-13.967 36.559-17 57-4.439-.932-3.907.738-4-4-.038-1.917.869-2.009 1-3 2.765-20.984 11.593-40.131 20.5-59l-13 23c-14.61-2.381-28.482 6.91-42.5 5 10.638-34.642 39.956-51.057 76-44"/><path fill="#0c2e3f" d="m874 440-3 13c-.498-14.879-2.772-29.361-5-44-3.727-24.492-8.158-56.735-27-74v-1c8.097 2.961 8.036 2.772 13 10.5 14.568 22.682 20.309 68.67 22 95.5"/><path fill="#366577" d="m866 409-2 2c-.951-9.1-12.57-36.273-22-38-.498-.985-1.308-2.181-2-3-8.414-9.967-16.043 9.105-24-3 .743-1.743 3.381-6.446 2-8 5.275-9.279 12.053-18.027 21-24 18.842 17.265 23.273 49.508 27 74"/><path fill="#b7e2f1" d="M452 350c-7.209 3.667-16.192-.134-24.5 1-21.81 2.977-39.825 32.037-37.5 53-4.231-24.598 9.075-50.55 35-56 10.221-2.149 17.353-.75 27 2"/><path fill="#b1d2e2" d="M456 351c61.144 23.624 22.355 114.754-41 86-5.593-2.539-11.066-7.287-15-12-5.577-6.681-8.541-12.518-10-21-2.325-20.963 15.69-50.023 37.5-53 8.308-1.134 17.291 2.667 24.5-1 1.307.372 2.221.313 4 1m-21.5 13c-40.083 2.715 1.08 26.727 20 23 6.26-1.233 12.397-7.161 9.5-13.5-3.635-7.954-21.834-10.019-29.5-9.5"/><path fill="#d2e9ee" d="M798 409c-5.043 1.219-9.944 2.797-15 4 4.856-6.823 11.205-21.222 1.5-26-11.156-5.493-19.906 7.408-16.5 17.5 1.523 4.513 8.77 5.919 5 10.5-10.237 3.245-25.506 7.735-28 19-.602 2.717-1.518 6.845-1 9.5.159.814 1.944 1.388 2 1.5l-2 68c-2.927-16.021-4.483-34.746-4-51 .813-27.374 7.554-61.368 23-84 14.018 1.91 27.89-7.381 42.5-5l13-23c-8.907 18.869-17.735 38.016-20.5 59"/><path fill="#21c5e8" d="M412 539c.656-1.609-3.763-4.849-5-6 2.231-2.537-.253-3.315 4-2 12.679 10.415 30.916 20.185 47 24 11.112 8.157 24.567 7.618 37.5 9-1.779-5.231-8.751-1.111-12-5 15.754.297 31.585.588 47-3 .856-.199.4-1.976.5-2 72.239-17.554 125.976-72.229 115-151.5-.765-5.525-2.687-15.572-7-18.5 5.053-10.476 4.514-21.783 6-33 60.759 157.303-105.32 286.026-233 188"/><path fill="#b1dce7" d="M249 372c9.816 17.281 16.428 34.294 20 54-4.919 3.075-32.077-14.513-34-10.5 9.785 7.232 39.179 12.919 32 27.5-6.568 13.34-32.515 15.908-45 21.5-.657 30.839-5.004 60.426-15 89.5-.023.067-.508-.382-1 1l-1-6c6.458-23.266 10.386-52.84 11-77 6.41-18.216 4.1-38.661 1-58.5-3.178-20.343-9.347-41.25-20-59 4.931-.515 8.988 16.759 10.5 17.5 1.46.716 14.102.399 17 1 7.679 1.592 15.013 4.821 23 5z"/><path fill="#041821" d="M816 367c-15.172 35.611-17.237 78.575-15 117 1.543 26.517 9.385 86.462 25 107.5 9.134 12.307 13.741 10.26 22-2 12.091-17.949 20.392-65.071 22-87 .487-6.646 2.436-15.554-2-19.5 2.895.16 2.721-1.343 3-3.5.903-6.971.248-19.085 0-26.5l3-13c1.99 31.579-2.074 144.861-32.5 162-9.151 5.155-49.503 2.248-59.5-2-14.087-5.986-18.584-28.348-23-40 4.04 9.314 18.748 33.889 27.5 38 10.052 4.722 32.697 3.27 44 4-10.031-16.496-17.337-32.334-22.5-51-12.066-43.625-13.633-90.296-7-135 3.033-20.441 6.655-38.804 17-57 1.381 1.554-1.257 6.257-2 8"/><path fill="#f8fdff" d="M434.5 364c7.666-.519 25.865 1.546 29.5 9.5 2.897 6.339-3.24 12.267-9.5 13.5-18.92 3.727-60.083-20.285-20-23"/><path fill="#061821" d="M216 472c-.614 24.16-4.542 53.734-11 77-4.956 17.856-12.409 36.662-25 50.5.161.82 1.393.38 2 .5 8.309 1.636 34.409-.733 43-3 .299-.079 4.847 1.335 6-1.5l-6 .5c12.071-10.385 22.609-22.713 28-38l1-1c.939 2.801-1.818 8.878-3 11.5-2.802 6.217-12.738 19.38-14 24-.867 3.174 2.183 9.18-1 12.5-.661-1.839-1.067-5.327-2.5-6-21.569.385-54.982 16.742-70.5-4.5-20.618-28.224-25.949-106.806-25-141.5 4.78.892 2.128-3.077 3.5-6l1.5 4c-.175 3.101-.906 5.948-1 9-1.041 33.91 2.969 82.839 15 114.5 6.324 16.642 16.646 38.279 30 11.5 19.159-25.472 26.531-101.104 26-133-.369-22.151-2.944-44.473-8-66-1.566-6.667-4.187-13.252-5-20 14.018 30.603 16.853 71.419 16 105"/><path fill="#488ea4" d="M840 370c-6.198-3.406-13.755 2.06-18 6.5-13.709 14.34-17.332 55.095-18 74.5-.342 9.945-.628 22.166 0 32l-3 1c-2.237-38.425-.172-81.389 15-117 7.957 12.105 15.586-6.967 24 3"/><path fill="#19343c" d="M207 415c1.397 8.268 2.605 17.656 3 26-3.981.047.079 5.17-5 4-.646-19.001-3.971-59.267-22-69-3.639-1.965-6.319-4.131-11-4 4.41-9.285 17.131-1.282 22 4.5 6.734 7.998 11.218 27.951 13 38.5"/><path fill="#226b74" d="M840 370c.692.819 1.502 2.015 2 3-1.109-.203-3.857-.184-5 0-22.338 3.603-27.379 62.446-28 80l-5-2c.668-19.405 4.291-60.16 18-74.5 4.245-4.44 11.802-9.906 18-6.5"/><path fill="#f3fcfe" d="M172 372c4.681-.131 7.361 2.035 11 4-4.574.611-6.378-2.164-11.5 0-13.364 5.647-21.683 67.764-22.5 82-.642 11.181-.08 23.68 0 35-2.163.623-2.915-6.501-3-7.5-1.941-22.895 3.077-46.157 5.5-68.5l-2.5 3.5c.124-6.501 1.382-13.152 3-19.5 2.363-9.272 9.235-28.699 20-29"/><path fill="url(#g)" d="M865 457c-2.067-.761-2.918 5.643-3 6.5-1.407 14.63-.766 29.567-3 44.5l-3-7c.371-2.392.691-5.073 1-7.5.028-.222-.266.435 0-2 .598-5.472 2.899-43.878 2-46-.816-1.927-.771-2.182-3-1 1.834 27.73-2.228 55.802-9.5 82.5l2.5 3c-2.072 5.997-6.325 20.008-14.5 20-4.964-.005-7.719-7.985-12.5-6-11.754-23.591-13.932-64.667-13-91 .621-17.554 5.662-76.397 28-80 20.056 17.344 25.555 58.053 28 84" style="fill:url(#g)"/>/&gt;<path fill="#f4fdfe" d="M842 373c9.43 1.727 21.049 28.9 22 38 .221 2.114-.153 4.36 0 6.5-1.066 1.039-1.75-2.981-2.5-2.5-2.296 1.472 9.634 46.821 4.5 54-.188-3.727-.643-8.214-1-12-2.445-25.947-7.944-66.656-28-84 1.143-.184 3.891-.203 5 0"/><path fill="#dbeef5" d="M523.5 374c21.497-3.596 27.56 29.071 9 33-23.323 4.937-28.965-29.66-9-33m0 10c-9.643 1.716-7.532 14.813 1 16 16.248 2.26 14.811-18.813-1-16"/><path fill="#26c8e5" d="M183 376c18.029 9.733 21.354 49.999 22 69 .824 24.212-1.91 48.388-7 72-2.733-5.074.676-12.981 1-19.5 1.201-24.15.3-72.793-8-95-1.763-4.717-7.551-17.06-13-10 1.893 15.243.438 57.994-12.5 67.5-2.004 1.472-8.247 2.136-8.5 2.5-2.073 2.981 2.48 42.745 5 49l-2 1c-1.445-.808-5.597-21.655-6-25-.539-4.477 3.189-17.522-3-16.5-.055-3.99 1.338-11.274-2-13 .817-14.236 9.136-76.353 22.5-82 5.122-2.164 6.926.611 11.5 0"/><path fill="#ecf6fa" d="M695.5 379c35.333 165.355-142.366 291.137-289 208-37.39-21.199-83.007-74.127-92.5-116.5-.281-1.256-.273-4.581 2-4 8.382 30.693 24.234 59.701 46.5 82.5.089.091 1.024-1.931 2.5-.5.08.078-1.759 1.284-1 2 2.911 2.746 5.61 5.73 8.5 8.5l1-2C504.17 674.518 708.306 580.279 698 401.5z"/><path fill="#eff8fa" d="M523.5 384c15.811-2.813 17.248 18.26 1 16-8.532-1.187-10.643-14.284-1-16"/><path fill="#0aacd3" d="M531 554c-17.999-1.919-37.58-5.009-55-10 4.34-8.96-15.485-5.489-15.5-14 15.839 8.679 35.693 11.011 53.5 10-.351 4.356.537 2.49 3 2.5 64.84.252 117.271-57.121 116-121-.105-5.291-.319-17.177-4-20.5-.224-1.075.696-2.899-1-3 2.9-2.773 9.329-10.536 11-14 4.313 2.928 6.235 12.975 7 18.5 10.976 79.271-42.761 133.946-115 151.5"/><path fill="#c1dce4" d="M783 413c-3.415.813-6.66.941-10 2 3.77-4.581-3.477-5.987-5-10.5-3.406-10.092 5.344-22.993 16.5-17.5 9.705 4.778 3.356 19.177-1.5 26"/><path fill="#4b92a9" d="m213 453-2 5.5-1-15.5c-.023-.66.031-1.341 0-2-.395-8.344-1.603-17.732-3-26l-2-28c5.056 21.527 7.631 43.849 8 66"/><path fill="#0e3244" d="M149 404c-2.479 16.693-5.025 29.75-6 47l-1.5-4c-1.372 2.923 1.28 6.892-3.5 6 .551-20.154 2.93-40.3 7-60 2.307-3.049 2.415-3.84 6-1.5-.222 4.26-1.376 8.297-2 12.5"/><path fill="#0b889e" d="M198 517c-.782 3.629-.962 7.367-2 11-1.03 3.606-2.566 7.518-4 11-14.682 17.809-22.525 8.224-30-8.5-.712-1.592-1.741-12.396-2-13-.11-.257-3.287-4.465-5-2.5-2.678-14.645-3.797-29.166-4-44 6.189-1.022 2.461 12.023 3 16.5.403 3.345 4.555 24.192 6 25l2-1c-2.52-6.255-7.073-46.019-5-49 .253-.364 6.496-1.028 8.5-2.5 12.938-9.506 14.393-52.257 12.5-67.5 5.449-7.06 11.237 5.283 13 10 8.3 22.207 9.201 70.85 8 95-.324 6.519-3.733 14.426-1 19.5"/><path fill="#06637e" d="m689 434-5 1c.966-11.156 1.034-20.851 0-32l5-3a189.6 189.6 0 0 1 0 34"/><path fill="#7edbe7" d="M152 401c-1.618 6.348-2.876 12.999-3 19.5l2.5-3.5c-2.423 22.343-7.441 45.605-5.5 68.5.085.999.837 8.123 3 7.5.05 7.117 1.618 17.231-1 23-2.12-18.069-3.386-33.306-4-51.5-.062-1.829 1.009-4.935-2-4.5.094-3.052.825-5.899 1-9 .975-17.25 3.521-30.307 6-47z"/><path fill="#6dd4ee" d="M514 540c65.976-3.746 128.92-72.054 115-139 3.681 3.323 3.895 15.209 4 20.5 1.271 63.879-51.16 121.252-116 121-2.463-.01-3.351 1.856-3-2.5"/><path fill="#004576" d="M613 409c11.433 101.377-112.948 154.529-183 81.5-15.729-16.398-30.655-42.755-30-65.5 3.934 4.713 9.407 9.461 15 12 23.311 82.954 146.105 95.334 176 9.5 3.815-10.954 3.672-22.532 7-33.5 4.714-.552 10.751-2.038 15-4"/><path fill="#9bbbc7" d="M798 409c-.131.991-1.038 1.083-1 3-18.237 5.833-37.165 9.102-52 22 2.494-11.265 17.763-15.755 28-19 3.34-1.059 6.585-1.187 10-2 5.056-1.203 9.957-2.781 15-4"/><path fill="#7be0f2" d="M871 453c.248 7.415.903 19.529 0 26.5-.279 2.157-.105 3.66-3 3.5h-1c.066-4.067-.782-9.684-1-14 5.134-7.179-6.796-52.528-4.5-54 .75-.481 1.434 3.539 2.5 2.5-.153-2.14.221-4.386 0-6.5l2-2c2.228 14.639 4.502 29.121 5 44"/><path fill="#b5e0ea" d="M801 416c-6.633 44.704-5.066 91.375 7 135-.417.117-1.956.897-2 1-10.778-27.225-13.795-57.172-14-86.5-1.594-3.36-39.891-8.223-46-20.5-.056-.112-1.841-.686-2-1.5-.518-2.655.398-6.783 1-9.5 14.835-12.898 33.763-16.167 52-22 .093 4.738-.439 3.068 4 4"/><path fill="#edf4f7" d="M269 426c5.596 30.874 6.066 63.892-3 94 .016-.102-2.12.28-2-.5 3.882-25.303 8.123-50.953 3-76.5 7.179-14.581-22.215-20.268-32-27.5 1.923-4.013 29.081 13.575 34 10.5"/><path fill="#08bce8" d="M410 509c-7.615-.422-12.656-13.445-20-11-1.818-2.695-4.336-5.216-6-8 .218-5.236-5.492-10.914-7-15.5-2.224-6.764-5.588-27.285-6-34.5-.022-.387-.598-9.414 2-7.5 2.587 27.992 17.211 56.864 37 76.5"/><path fill="#034058" d="M689 434c-10.892 120.505-134.219 194.542-247 153-1.137-2.124 4.282-1.074 4.5-1 13.729 4.649 28.333 10.137 42 11 2.064.13 12.513-.38 13.5-3 90.554 2.419 174.106-67.845 182-159z"/><path fill="#027aa4" d="M384 490c-6.684-11.183-10.711-23.265-18-34-.399-1.788-.673-4.103-1-6l6-10c.412 7.215 3.776 27.736 6 34.5 1.508 4.586 7.218 10.264 7 15.5"/><path fill="#0e1f2a" d="M210 441c.031.659-.023 1.34 0 2 .912 26.239-2.527 62.925-10 88l-4-3c1.038-3.633 1.218-7.371 2-11 5.09-23.612 7.824-47.788 7-72 5.079 1.17 1.019-3.953 5-4"/><path fill="#487c8f" d="M213 453c.531 31.896-6.841 107.528-26 133-8.272 10.998-13.574 16.114-22 2.5-9.535-15.406-14.558-48.285-17-66.5l3-1c1.028 9.978 11.16 38.813 22.5 41 15.789 3.045 22.996-19.244 26.5-31 7.473-25.075 10.912-61.761 10-88l1 15.5z"/><path fill="url(#h)" d="M266 520c-2.071 13.055-6.824 24.812-12 37l-1 1-46-4c9.996-29.074 14.343-58.661 15-89.5 12.485-5.592 38.432-8.16 45-21.5 5.123 25.547.882 51.197-3 76.5-.12.78 2.016.398 2 .5" style="fill:url(#h)"/>/&gt;<path fill="url(#i)" d="M806 552c-.316.743.551 2.444-.5 3-8.09 4.278-36.488 3.256-46.5 4-5.945-15.994-11.831-28.655-15-46l2-68c6.109 12.277 44.406 17.14 46 20.5.205 29.328 3.222 59.275 14 86.5" style="fill:url(#i)"/>/&gt;<path fill="#bdeaf0" d="M856 501c-1.255 8.092-4.343 21.311-7 29l-2.5-3c7.272-26.698 11.334-54.77 9.5-82.5 2.229-1.182 2.184-.927 3 1 .899 2.122-1.402 40.528-2 46-.266 2.435.028 1.778 0 2-.309 2.427-.629 5.108-1 7.5"/><path fill="#477787" d="M297 450c17.5 94.116 89.101 169.633 186 180.5-94.392 1.456-177.381-77.1-194-167.5-.202-4.334.425-9.411 0-14z"/><path fill="#1b3039" d="M809 453c-.932 26.333 1.246 67.409 13 91 20.387 40.918 34.401-18.627 37-36 2.234-14.933 1.593-29.87 3-44.5.082-.857.933-7.261 3-6.5.357 3.786.812 8.273 1 12 .218 4.316 1.066 9.933 1 14-.266 16.471-9.851 83.975-34.5 80-18.945-3.056-27.509-64.465-28.5-80-.628-9.834-.342-22.055 0-32z"/><path fill="#578595" d="M734 455c-1.225 19.147-2.408 39.873-1 59-1.262-1.371-8.2-1.683-8.5-2-1.539-1.623 1.276-6.305-2.5-6 1.014-17.235 3-34.81 5-52z"/><path fill="#f8fdfe" d="M384 490c1.664 2.784 4.182 5.305 6 8 20.672 30.634 42.955 44.615 77.5 58-2.008.993-7.265-.47-9.5-1-16.084-3.815-34.321-13.585-47-24-8.007-6.578-13.959-15.71-21-23-11.253-16.047-19.743-32.904-24-52 7.289 10.735 11.316 22.817 18 34"/><path fill="#143948" d="M151 471c.203 14.834 1.322 29.355 4 44 .312 1.708.635 3.314 1 5-3.545.755-1.029-3.858-2.5-5-5.185 2.458-2.819 2.902-2.5 6l-3 1c-.153-1.14.302-3.426 0-6 2.618-5.769 1.05-15.883 1-23-.08-11.32-.642-23.819 0-35 3.338 1.726 1.945 9.01 2 13"/><path fill="#f4f9f9" d="M148 516c.302 2.574-.153 4.86 0 6 2.442 18.215 7.465 51.094 17 66.5 8.426 13.614 13.728 8.498 22-2.5-13.354 26.779-23.676 5.142-30-11.5-12.031-31.661-16.041-80.59-15-114.5 3.009-.435 1.938 2.671 2 4.5.614 18.194 1.88 33.431 4 51.5"/><path fill="#a8e2ec" d="M381 503c9.211 13.06 14.161 18.992 26 30 1.237 1.151 5.656 4.391 5 6-20.296-15.582-37.146-34.646-49-57.5-.05-1.924-.555-2.11 1.5-2.5 2.945-.559 14.097 20.592 16.5 24"/><path fill="#326375" d="M804 483c.991 15.535 9.555 76.944 28.5 80 24.649 3.975 34.234-63.529 34.5-80h1c4.436 3.946 2.487 12.854 2 19.5-1.608 21.929-9.909 69.051-22 87-8.259 12.26-12.866 14.307-22 2-15.615-21.038-23.457-80.983-25-107.5Z"/><path fill="#7dd8f1" d="M410 509c16.534 16.407 43.772 28.631 66 35 17.42 4.991 37.001 8.081 55 10-.1.024.356 1.801-.5 2-15.415 3.588-31.246 3.297-47 3 3.249 3.889 10.221-.231 12 5-12.933-1.382-26.388-.843-37.5-9 2.235.53 7.492 1.993 9.5 1-34.545-13.385-56.828-27.366-77.5-58 7.344-2.445 12.385 10.578 20 11"/><path fill="#0ea5cd" d="M390 508c7.041 7.29 12.993 16.422 21 23-4.253-1.315-1.769-.537-4 2-11.839-11.008-16.789-16.94-26-30-.191-5.529 7.146 3.08 9 5"/><path fill="#016c81" d="M859 508c-2.599 17.373-16.613 76.918-37 36 4.781-1.985 7.536 5.995 12.5 6 8.175.008 12.428-14.003 14.5-20 2.657-7.689 5.745-20.908 7-29z"/><path fill="#2e606f" d="M733 514c1.862 25.288 15.184 77.331 32 96.5 1.945 2.217 9.386 10.466 12 6.5-3.573 16.368-10.002 35.279-16 52l-40-93c1.784-22.256-.333-47.346 1-70 3.776-.305.961 4.377 2.5 6 .3.317 7.238.629 8.5 2"/><path fill="#016a81" d="M192 539c-16.993 41.267-31.131 3.5-36-19a154 154 0 0 1-1-5c1.713-1.965 4.89 2.243 5 2.5.259.604 1.288 11.408 2 13 7.475 16.724 15.318 26.309 30 8.5"/><path fill="#1a2f39" d="M156 520c4.869 22.5 19.007 60.267 36 19 1.434-3.482 2.97-7.394 4-11l4 3c-3.504 11.756-10.711 34.045-26.5 31-11.34-2.187-21.472-31.022-22.5-41-.319-3.098-2.685-3.542 2.5-6 1.471 1.142-1.045 5.755 2.5 5"/><path fill="#eaf1f1" d="M206 555c-5.704 16.038-10.871 33.171-24 45-.607-.12-1.839.32-2-.5 12.591-13.838 20.044-32.644 25-50.5z"/><path fill="#435965" d="M759 560c-.111-.292.109-.707 0-1 10.012-.744 38.41.278 46.5-4 1.051-.556.184-2.257.5-3 .044-.103 1.583-.883 2-1 5.163 18.666 12.469 34.504 22.5 51-11.303-.73-33.948.722-44-4-8.752-4.111-23.46-28.686-27.5-38"/><path fill="#445965" d="M253 558c-5.391 15.287-15.929 27.615-28 38v1c-8.591 2.267-34.691 4.636-43 3 13.129-11.829 18.296-28.962 24-45 .492-1.382.977-.933 1-1z"/><path fill="#0b394d" d="m721 576 40 93c-30.76 85.747-96.824 194.518-181 236-52.815 26.027-95.182 26.652-148 0-97.37-49.132-143.406-146.167-180-243 19.104-24.487 24.681-53.603 36-81 .89-2.155 1.527-7.048 4-7.5-.883 14.937 4.653 28.967 9 43 18.712 60.404 50.227 184.094 136.5 128.5 18.693-12.046 25.347-41.604 50-45 11.849-1.632 43.727-.017 55 4 14.773 5.264 22.902 24.966 36 35 28.686 21.975 63.976 23.53 85.5-8.5 17.048-25.37 54.697-125.774 57-154.5m-5 54c-10.472 36.373-23.489 70.032-42 103-29.464 37.343-44.914 44.414-90 24l-39.5-41c-7.2-3.138-58.254-3.836-65-1-2.249.945-27.067 29.539-34 35-24.364 19.191-45.503 26.169-76 14-18.761-7.486-34.315-35.097-43.5-52.5-15.698-29.743-26.905-62.881-33-96-3.374-1.718-1.496 3.366-2 4.5-5.283 11.894-10.488 24.209-17 35.5-8.417 14.596-15.369 9.019-8 28 20.611 53.086 83.969 154.745 133 184 1.537.917 2.39 1.723 4 .5 16.717 16.325 35.922 21.437 57 29 30.888 11.082 45.964 20.754 80 6 6.282-.279 9.546-3.014 15-5 23.377-8.511 44.992-22.09 62-40 1.833 1.305 6.223-2.885 7.5-4 27.157-23.702 51.844-54.827 71.5-85 8.583-13.175 48.252-80.186 48-91.5-.016-.72-4.213-11.13-5-13.5-5.097-15.352-13.543-30.846-18-46.5-.544-1.911.605-3.321 1-5-3.961 3.394-4.482 12.226-6 17.5"/><path fill="#85a5ad" d="M225 597v-1l6-.5c-1.153 2.835-5.701 1.421-6 1.5"/><path fill="#2a5868" d="m739 664-43 105c-19.656 30.173-44.343 61.298-71.5 85-1.277 1.115-5.667 5.305-7.5 4 43.286-45.581 74.859-112.278 90-173 4.259-17.08 8.268-37.932 9-55 1.518-5.274 2.039-14.106 6-17.5-.395 1.679-1.544 3.089-1 5 4.457 15.654 12.903 31.148 18 46.5"/><path fill="#89b6c5" d="M584 757c-3.195-1.446-7.999-5.834-8.5-6-2.895-.958-1.162 1.968-4.5 1-4.555-3.419-9.095-7.082-14-10 .592-2.763-10.124-14.946-11-15.5-9.097-5.76-62.038-5.332-71.5 1.5-1.147.828-18.769 19.289-19.5 20.5-1.632 2.704-.076 1.918 0 4.5-35.862 24.19-57.917 32.613-98 7.5 32.639 28.72 65.758 19.234 98-3.5l5 1.5c-24.845 32.178-69.586 38.722-101.5 12.5-24.847-20.415-34.734-52.165-50.5-79-6.569-23.831-12.283-47.722-17-72 .504-1.134-1.374-6.218 2-4.5 6.095 33.119 17.302 66.257 33 96 9.185 17.403 24.739 45.014 43.5 52.5 30.497 12.169 51.636 5.191 76-14 6.933-5.461 31.751-34.055 34-35 6.746-2.836 57.8-2.138 65 1z"/><path fill="#305e6f" d="M308 692c16.509 59.888 49.986 132.044 95 176-1.61 1.223-2.463.417-4-.5-49.031-29.255-112.389-130.914-133-184-7.369-18.981-.417-13.404 8-28 6.512-11.291 11.717-23.606 17-35.5 4.717 24.278 10.431 48.169 17 72"/><path fill="#97bfcd" d="M707 685c-.963-.938-5.767 6.124-6 6.5-9.282 15.015-16.232 27.853-27 41.5 18.511-32.968 31.528-66.627 42-103-.732 17.068-4.741 37.92-9 55"/><path fill="#3e6c7b" d="M739 664c.787 2.37 4.984 12.78 5 13.5.252 11.314-39.417 78.325-48 91.5z"/><path fill="url(#j)" d="M707 685c-15.141 60.722-46.714 127.419-90 173-17.008 17.91-38.623 31.489-62 40-2.535.048-12.901 2.257-14.5 3-.915.425-.366 1.942-.5 2-2.371.105-7.963-2.114-9-2 40.604-19.2 53.811-71.104 23-105.5-52.844-58.994-150.125 12.363-99 86.5 3.851 5.584 8.373 12.333 15 14.5l-10 .5c-21.078-7.563-40.283-12.675-57-29-45.014-43.956-78.491-116.112-95-176 15.766 26.835 25.653 58.585 50.5 79 31.914 26.222 76.655 19.678 101.5-12.5l-5-1.5c6.917-4.877 13.751-14.264 21.5-18 18.09-8.722 59.134-6.007 77 3 3.416 1.722 12.617 10.396 15 11 1.368.347 1.713-1.228 2.5-1 3.338.968 1.605-1.958 4.5-1 .501.166 5.305 4.554 8.5 6 45.086 20.414 60.536 13.343 90-24 10.768-13.647 17.718-26.485 27-41.5.233-.376 5.037-7.438 6-6.5" style="fill:url(#j)"/>/&gt;<path fill="#92c1cf" d="M557 742c-17.391-10.346-41.321-12.973-61.5-11-21.628 2.115-24.647 11.306-40.5 22-.076-2.582-1.632-1.796 0-4.5.731-1.211 18.353-19.672 19.5-20.5 9.462-6.832 62.403-7.26 71.5-1.5.876.554 11.592 12.737 11 15.5"/><path fill="#eef8fa" d="M557 742c4.905 2.918 9.445 6.581 14 10-.787-.228-1.132 1.347-2.5 1-2.383-.604-11.584-9.278-15-11-17.866-9.007-58.91-11.722-77-3-7.749 3.736-14.583 13.123-21.5 18-32.242 22.734-65.361 32.22-98 3.5 40.083 25.113 62.138 16.69 98-7.5 15.853-10.694 18.872-19.885 40.5-22 20.179-1.973 44.109.654 61.5 11"/><path fill="#021a25" d="M531 901c-4.505.494-11.122 3.828-14.5 4-25.391 1.295-44.304-3.708-61.5-23-51.125-74.137 46.156-145.494 99-86.5 30.811 34.396 17.604 86.3-23 105.5m-65-105c10.331 10.386-11.291 18.95-15.5 29l.5-9.5c-1.451-1.54-2.491.958-3 2-2.177 4.456-6.099 31.804-4 36 .59.797 2.515-1.252 3-.5 1.973 21.902 22.473 43.442 44 46 .967.115.579-1.178 3-1 5.512 6.797 23.256 3.159 30.5 1 86.596-25.812 26.107-163.244-53-111-1.102.728-17.458 14.689-12 14 1.98-2.241 4.223-4.09 6.5-6"/><path fill="#135b73" d="M494 898c125.984 9.242 61.12-176.748-28-102-2.277 1.91-4.52 3.759-6.5 6-5.458.689 10.898-13.272 12-14 79.107-52.244 139.596 85.188 53 111-7.244 2.159-24.988 5.797-30.5-1"/><path fill="#01283a" d="M494 898c-2.421-.178-2.033 1.115-3 1-16.858-6.242-28.744-16.23-38-31.5-2.574-4.246-3.056-9.931-6-14.5-.485-.752-2.41 1.297-3 .5-2.099-4.196 1.823-31.544 4-36 .509-1.042 1.549-3.54 3-2l-.5 9.5c4.209-10.05 25.831-18.614 15.5-29 89.12-74.748 153.984 111.242 28 102m-29-72c-4.238 6.221-8.16 21.72 0 26.5.563-6.609-4.003-14.03 2-19.5-1.296 8.352-.879 11.995 1 20 1.577 6.719 1.954 7.478 6 13 .829 1.132 3.701 5.738 4 6-3.326.806 5.58 8.659 6 9 3.307 2.682 14.762 13.377 17 3 8.903.381 9.116 1.013 18-2 14.779 2.831 30.485-18.871 33-31.5 2.739-13.752-1.928-31.31-11-40.5-5.095-12.65-24.492-19.569-37-16-.191-.094.454-2.766-.5-3-20.694-1.413-33.836 16.992-41 34z"/><path fill="#02456d" d="M504 794c12.146 5.946 25.569 4.421 37 16 9.072 9.19 13.739 26.748 11 40.5-2.515 12.629-18.221 34.331-33 31.5 30.912-10.484 38.819-56.556 9.5-74-17.805-10.594-41.412-8.322-53.5 9-1.033.828-2.916 3.828-4 5-.245.265-3.76.713-6 4l-2.5-1c7.164-17.008 20.306-35.413 41-34 .954.234.309 2.906.5 3"/><path fill="#0380af" d="M541 810c-11.431-11.579-24.854-10.054-37-16 12.508-3.569 31.905 3.35 37 16"/><path fill="#051d32" d="M519 882c-8.884 3.013-9.097 2.381-18 2-6.323-.271-11.07-.143-17-3-.42-.341-9.326-8.194-6-9 19.363 16.925 51.855 8.301 61-15 5.147-13.115 4.094-18.806-2-31-12.772-25.557-41.419-25.484-62-9 12.088-17.322 35.695-19.594 53.5-9 29.319 17.444 21.412 63.516-9.5 74"/><path fill="#93ebfb" d="m537 826-6 5c-1.618-4.295-7.154-10.509-11-13-11.649-7.545-30.195-4.076-38 8l-11-3v-1c1.084-1.172 2.967-4.172 4-5 20.581-16.484 49.228-16.557 62 9"/><path fill="url(#k)" d="M520 818c14.032 20.035 9.838 42.352-14 51-7.888.264-12.175-4.143-18-5-2.937-3.817-7.415-8.392-9-13-2.925-8.506-1.919-17.39 3-25 7.805-12.076 26.351-15.545 38-8" style="fill:url(#k)"/>/&gt;<path fill="#021e28" d="M531 831c2.724 7.23 2.222 14.001-1 21-3.462 7.522-15.279 16.708-24 17 23.838-8.648 28.032-30.965 14-51 3.846 2.491 9.382 8.705 11 13"/><path fill="#017aaf" d="M471 822v1c-2.679 2.735-3.437 6.373-4 10-6.003 5.47-1.437 12.891-2 19.5-8.16-4.78-4.238-20.279 0-26.5 2.24-3.287 5.755-3.735 6-4"/><path fill="#29cdee" d="M482 826c-4.919 7.61-5.925 16.494-3 25l-11 2c-1.879-8.005-2.296-11.648-1-20 .563-3.627 1.321-7.265 4-10z"/><path fill="#1599b2" d="m539 857-9-5c3.222-6.999 3.724-13.77 1-21l6-5c6.094 12.194 7.147 17.885 2 31"/><path fill="#0c9ebb" d="M479 851c1.585 4.608 6.063 9.183 9 13-1.772-.261-12.642.578-14 2-4.046-5.522-4.423-6.281-6-13z"/><path fill="#10566e" d="M491 899c-21.527-2.558-42.027-24.098-44-46 2.944 4.569 3.426 10.254 6 14.5 9.256 15.27 21.142 25.258 38 31.5"/><path fill="#087a8c" d="M539 857c-9.145 23.301-41.637 31.925-61 15-.299-.262-3.171-4.868-4-6 1.358-1.422 12.228-2.261 14-2 5.825.857 10.112 5.264 18 5 8.721-.292 20.538-9.478 24-17z"/><path fill="#003451" d="M501 884c-2.238 10.377-13.693-.318-17-3 5.93 2.857 10.677 2.729 17 3"/><path fill="#a8cad5" d="M531 901c1.037-.114 6.629 2.105 9 2-34.036 14.754-49.112 5.082-80-6l10-.5c-6.627-2.167-11.149-8.916-15-14.5 17.196 19.292 36.109 24.295 61.5 23 3.378-.172 9.995-3.506 14.5-4m24-3c-5.454 1.986-8.718 4.721-15 5 .134-.058-.415-1.575.5-2 1.599-.743 11.965-2.952 14.5-3"/></svg>