<svg xmlns="http://www.w3.org/2000/svg" width="1024" height="1024"><defs><linearGradient id="a" x1="221.387" x2="193.37" y1="277.753" y2="319.166" gradientUnits="userSpaceOnUse"><stop offset="0%" style="stop-color:#11a4c7"/><stop offset="100%" style="stop-color:#0b8ab1"/></linearGradient></defs><defs><linearGradient id="b" x1="504.027" x2="493.303" y1="476.386" y2="547.583" gradientUnits="userSpaceOnUse"><stop offset="0%" style="stop-color:#098bac"/><stop offset="100%" style="stop-color:#30bdda"/></linearGradient></defs><defs><linearGradient id="c" x1="704.614" x2="338.782" y1="534.159" y2="616.57" gradientUnits="userSpaceOnUse"><stop offset="0%" style="stop-color:#4d8ba2"/><stop offset="77.067%" style="stop-color:#a4eefb"/></linearGradient></defs><defs><linearGradient id="d" x1="533.847" x2="497.464" y1="468.987" y2="578.08" gradientUnits="userSpaceOnUse"><stop offset="0%" style="stop-color:#0e2257"/><stop offset="100%" style="stop-color:#6097b6"/></linearGradient></defs><defs><linearGradient id="e" x1="846.085" x2="843.51" y1="504.479" y2="637.454" gradientUnits="userSpaceOnUse"><stop offset="0%" style="stop-color:#88a2ae"/><stop offset="100%" style="stop-color:#49636c"/></linearGradient></defs><defs><linearGradient id="f" x1="732.62" x2="345.6" y1="519.542" y2="685.244" gradientUnits="userSpaceOnUse"><stop offset="0%" style="stop-color:#265780"/><stop offset="15.202%" style="stop-color:#3b86ae"/><stop offset="79.097%" style="stop-color:#76d6f0"/></linearGradient></defs><defs><linearGradient id="g" x1="571.263" x2="453.1" y1="576.691" y2="597.608" gradientUnits="userSpaceOnUse"><stop offset="0%" style="stop-color:#051852"/><stop offset="100%" style="stop-color:#45709b"/></linearGradient></defs><path fill="#045470" d="M172 127c-4.381 12.171-1.164 28.907 0 42 4.427 49.794 24.234 140.901 49 184-3.829-.91-2.837 1.157-4 3-1.603 2.541-3.171 5.036-4 8-.627 2.24-1.667 2.769-2 6-1.678-.124-1.917-.34-3 1-7.961 9.847-11.876 25.83-12 38-.757 74.221 3.972 147.044 2 223-.476 18.354-3.058 21.336 2 40 1.911 7.05 5.272 15.139 8 22-2.401.18-3.338-3.761-4-5.5-18.887-49.628-.637-136.502-5-194-.089-1.176-.752-8.928-3-8.5-1.138-29.789-3.284-59.353-6-89-.211-2.302-.109-2.668-2-4 1.243-1.159 2.977-2.022 4-3.5l23-44c-30.503-69.651-48.061-147.543-46-224 1.86.544 2.267 3.771 3 5.5"/><path fill="#159ec0" d="M853 151c-2.859.738-2.569 10.829-3 15-.849.693-4.867 4.673-5 5-7.299 17.914-7.684 50.198-16 69.5-12.856 41.444-20.538 60.021-54 87.5l-10-11c32.143-31.605 52.801-72.592 67-115 6.235-18.621 13.909-39.299 14-59 .516-1.604 2.504-5.754 1-7 1.782-4.323 2.92-10.974 6-14.5-.226 9.819.307 19.697 0 29.5"/><path fill="#15b4d8" d="M253 249c7.294 11.817 22.705 16.424 33 24 4.875 3.588 5.515 2.295 8 8-1.413-1.333-2.992-.647-4-1-15.225-5.329-35.276-22.743-47-34-2.895-2.779-2.533-.532-3-1-1.915-1.919-5.472-12.878-12-11-.376-.677 2.092-2.297 2-2.5-1.396-3.079-15.552-16.89-19-22-5.321-7.887-10.268-16.252-15-24.5-7.76-13.526-14.254-27.484-21-41.5 2.482 21.539 8.969 42.173 16 62.5.827 2.39 1.258 6.006 2 8-7.563-15.521-10.815-33.307-16.5-49l-4.5 4c-1.164-13.093-4.381-29.829 0-42 20.466 48.292 38.956 88.058 81 122"/><path fill="#0a8cb9" d="M846 143c-3.95 12.274-10.852 24.689-17 36-9.783 17.998-19.934 29.824-31 46-16.011 18.269-35.397 30.461-55 44v-1c50.05-30.987 81.907-78.407 104-132 1.504 1.246-.484 5.396-1 7"/><path fill="#97e7fd" d="M196 185c-2.236.086-4.413-3.918-5 .5-.426 3.205 14.152 29.496 17 34 12.323 19.491 28.104 36.937 47.5 49.5 1.966-7.961-25.116-14.847-12.5-23 11.724 11.257 31.775 28.671 47 34l-15.5 31c-26.206-27.639-51.691-55.798-71.5-88.5-2.508-4.14-6.556-18.372-12-16.5-7.031-20.327-13.518-40.961-16-62.5 6.746 14.016 13.24 27.974 21 41.5"/><path fill="#95e4fa" d="M832 202c-8.907 5.507-14.457 22.931-22 34.5-20.442 31.353-48.262 59.669-74 86.5-5.999-12.169-14.163-28.324-8-42 10.608-3.703 22.329-10.43 31.5-17 4.239-3.037 15.936-16.149 18-17 3.648-1.503 2.415.237 4.5 2-.406.518 1.7 1.625 1 2.5-4.855 6.069-11.986 10.06-17 16 .28 2.167 5.902-2.114 6.5-2.5 10.232-6.595 24.224-21.639 31.5-31.5 3.989-5.406 27.596-45.056 28-49 .23-2.247-1.586-3.999-3-5.5 6.148-11.311 13.05-23.726 17-36-.091 19.701-7.765 40.379-14 59"/><path fill="#094d6d" d="M853 151c-2.034 64.994-20.169 135.174-46 194.5l2 4.5c-.208-.243-4.276-2.332-5-4 25.464-50.164 40.225-124.123 46-180 .431-4.171.141-14.262 3-15"/><path fill="url(#a)" d="M193 214c13.286 35.685 41.145 85.428 70.5 110 1.747 1.463 13.111 10.958 14 11 1.72.081 4.234-8.49 7.5-8-7.398 13.551-24.29 33.432-39.5 38-15.068 4.526-17.595.017-24.5-12-24.766-43.099-44.573-134.206-49-184l4.5-4c5.685 15.693 8.937 33.479 16.5 49" style="fill:url(#a)"/>/&gt;<path fill="#4bceeb" d="M850 166c-5.775 55.877-20.536 129.836-46 180-7.23 14.243-9.082 24.796-27.5 19-17.459-5.495-32.832-26.444-40.5-42 25.738-26.831 53.558-55.147 74-86.5 7.543-11.569 13.093-28.993 22-34.5-14.199 42.408-34.857 83.395-67 115-6.326 6.22-13.322 11.958-21 16.5 2.754 5.403 6.693 8.571 11 12.5 9.096 8.296 29.076 23.465 39 10.5 19.584-25.583 50.114-148.263 53-179 .2-2.129.838-5.458-2-6.5.133-.327 4.151-4.307 5-5"/><path fill="#03628b" d="M755 346c5.84-7.072 12.991-12.244 20-18 33.462-27.479 41.144-46.056 54-87.5 8.316-19.302 8.701-51.586 16-69.5 2.838 1.042 2.2 4.371 2 6.5-2.886 30.737-33.416 153.417-53 179-9.924 12.965-29.904-2.204-39-10.5"/><path fill="#7de0fa" d="M782 249c1.15-1.467 1.395-2.151 2-3 .194-.272.707.831 4-4 3.773-5.535 6.247-11.514 10-17 11.066-16.176 21.217-28.002 31-46 1.414 1.501 3.23 3.253 3 5.5-.404 3.944-24.011 43.594-28 49-7.276 9.861-21.268 24.905-31.5 31.5-.598.386-6.22 4.667-6.5 2.5 5.014-5.94 12.145-9.931 17-16 .7-.875-1.406-1.982-1-2.5"/><path fill="#7ee1fa" d="M196 185c4.732 8.248 9.679 16.613 15 24.5 3.448 5.11 17.604 18.921 19 22 .092.203-2.376 1.823-2 2.5 1.978 3.558 7.933 16.531 12 11 .467.468.105-1.779 3 1-12.616 8.153 14.466 15.039 12.5 23-19.396-12.563-35.177-30.009-47.5-49.5-2.848-4.504-17.426-30.795-17-34 .587-4.418 2.764-.414 5-.5"/><path fill="#055772" d="m639 210-4 4c-133.99-48.231-234.709-17.241-347 57-.543.359-2.569-.745-2 2-10.295-7.576-25.706-12.183-33-24 3.604 2.909 24.782 19.007 27.5 19 104.313-81.898 233.082-103.781 358.5-58"/><path fill="#fafcfc" d="M635 214c34.71 12.494 70.761 33.636 98 58-2.275.018-6.128-.424-8 0-71.782-54.387-159.194-77.114-249-71-66.793 4.548-130.309 27.264-181 71-2.156-.496-4.801.839-7-1 112.291-74.241 213.01-105.231 347-57"/><path fill="#a4bdc5" d="M725 272c-4.913 1.113-10.475 6.996-12 12-3.841-1.208-6.983-5.066-10-7-64.553-49.439-144.855-70.37-226-63l-1-13c89.806-6.114 177.218 16.613 249 71"/><path fill="#d4e1e6" d="m476 201 1 13c-8.346.758-60.895 8.358-64.5 12-.716.723 1.176 8.232 1.5 10-38.181 10.806-73.477 28.098-107 49-2.14-6.724-4.484-11.271-12-13 50.691-43.736 114.207-66.452 181-71"/><path fill="#61d7f4" d="M290 280c1.008.353 2.587-.333 4 1 6.192 14.215-1.859 32.92-9 46-3.266-.49-5.78 8.081-7.5 8-.889-.042-12.253-9.537-14-11-29.355-24.572-57.214-74.315-70.5-110-.742-1.994-1.173-5.61-2-8 5.444-1.872 9.492 12.36 12 16.5 19.809 32.702 45.294 60.861 71.5 88.5z"/><path fill="#064861" d="M743 268v1c-1.652 1.141-3.454 1.903-5 3-1.482-.17-3.337-.013-5 0-27.239-24.364-63.29-45.506-98-58l4-4c39.324 14.354 70.042 33.955 104 58"/><path fill="#ecf2f4" d="M703 277c-57.285-36.719-136.995-57.145-205-55-28.411.896-56.776 6.295-84 14-.324-1.768-2.216-9.277-1.5-10 3.605-3.642 56.154-11.242 64.5-12 81.145-7.37 161.447 13.561 226 63"/><path fill="#7b9ca9" d="M498 222c.278 4.115 8.033 1.023 9.5 2 9.546 6.361-21.197 1.876-20.5 6-64.04 4.218-124.328 26.931-178 61-.143-1.272-1.521-4.496-2-6 33.523-20.902 68.819-38.194 107-49 27.224-7.705 55.589-13.104 84-14"/><path fill="#6c8993" d="M703 277c3.017 1.934 6.159 5.792 10 7-.179.587-.885 4.154-1 5-40.655-29.069-88.821-45.838-138-54-29.374-4.875-57.185-6.964-87-5-.697-4.124 30.046.361 20.5-6-1.467-.977-9.222 2.115-9.5-2 68.005-2.145 147.715 18.281 205 55"/><path fill="#2dc8e7" d="M798 225c-3.753 5.486-6.227 11.465-10 17-2.369-3.437-6.861 1.58-4 4-.605.849-.85 1.533-2 3-2.085-1.763-.852-3.503-4.5-2-2.064.851-13.761 13.963-18 17-9.171 6.57-20.892 13.297-31.5 17 2.113-4.689 6.206-6.309 10-9 1.546-1.097 3.348-1.859 5-3 19.603-13.539 38.989-25.731 55-44"/><path fill="#dde8ec" d="m574 235-2.5 13c33.272 7.883 66.816 18.476 95.5 37.5-29.736-11.939-59.769-22.744-91.5-28.5-4.306 26.142-14.187 50.307-23 75l-5.5.5 15 2.5c-26.282-1.265-47.584 7.074-71.5 19 7.856-10.224 18.098-18.885 25.5-29.5.907-1.301 10.3-15.442 7.5-15.5-36.555 19.218-72.98 28.94-106.5 54l-2-.5 18.5-21.5c-31.825 13.195-60.63 31.457-83 58l16-32c-29.827 21.69-57.494 49.069-76.5 81-4.522-8.505 6.014-20.786 9-29.5-4.414 1.485-12.703 9.989-15 13.5l-13-8c.981-3.294 5.034-12.501 5-14.5-.105-6.167-11.508-25.918-13-33.5 24.376-16.81 49.445-54.363 46-85 53.672-34.069 113.96-56.782 178-61 29.815-1.964 57.626.125 87 5"/><path fill="#b0ebfd" d="M240 245c-4.067 5.531-10.022-7.442-12-11 6.528-1.878 10.085 9.081 12 11"/><path fill="#bed2d9" d="M712 289c-3.866 28.555 16.809 62.211 38 80-3.261 3.567-2.857 8.537-4 12-25.223 15.984-56.336 7.054-84.5 9 17.17-5.664 44.645 2.115 55-18-33.593-.728-68 1.978-101.5 1l-1-1c8.595-5.346 31.767-4.678 41.5-10-35.129-16.222-74.544-12.579-112-8l54.5-12.5c-11.699-2.916-23.899-5.918-36-6.5l-15-2.5 5.5-.5c8.813-24.693 18.694-48.858 23-75 31.731 5.756 61.764 16.561 91.5 28.5-28.684-19.024-62.228-29.617-95.5-37.5l2.5-13c49.179 8.162 97.345 24.931 138 54"/><path fill="#bfeffd" d="M788 242c-3.293 4.831-3.806 3.728-4 4-2.861-2.42 1.631-7.437 4-4"/><path fill="#0a425f" d="M288 271c2.199 1.839 4.844.504 7 1 7.516 1.729 9.86 6.276 12 13 .479 1.504 1.857 4.728 2 6 3.445 30.637-21.624 68.19-46 85-13.875 9.568-39.042 21.263-53 7 .352-2.393-1.203-9.35-2-12 1.083-1.34 1.322-1.124 3-1-.35 3.401-.34 7.778 1 11 5.513 13.251 32.096 3.876 41.5-1 15.224-7.895 32.081-26.233 40.5-41 9.307-16.325 24.207-57.297-1-64.5 6.754 4.401 5.297 11.998 5 19.5-1.071 27.055-36.677 82.892-67.5 75-6.607-1.692-7.719-13.374-13.5-13 1.163-1.843.171-3.91 4-3 6.905 12.017 9.432 16.526 24.5 12 15.21-4.568 32.102-24.449 39.5-38 7.141-13.08 15.192-31.785 9-46-2.485-5.705-3.125-4.412-8-8-.569-2.745 1.457-1.641 2-2"/><path fill="#0b364c" d="M738 272c-3.794 2.691-7.887 4.311-10 9-6.163 13.676 2.001 29.831 8 42 7.668 15.556 23.041 36.505 40.5 42 18.418 5.796 20.27-4.757 27.5-19 .724 1.668 4.792 3.757 5 4 9.32 10.892 14.638 31.426 22 40.5 6.559 8.084 30.124 15.321 35 23 4.025 6.338 1.579 11.892 3 16 1.692 4.893 22.02 21.01 26 29 15.196 30.512 13.48 96.596-2 127-4.7 9.232-23.366 26.075-26 35-1.314 4.451 1.296 8.494-2 15-4.07 8.033-28.858 17.79-33 24-2.999 4.496-6.993 24.053-10 31-98.722 228.087-390.023 285.165-560 99-40.082-43.9-50.931-76.042-72-129.5-.244-.619.121-3.84 0-4 2.85.157 2.757-1.317 3-3.5 1.106-9.939 5.112-66.888 3-72.5 2.013-31.272 1.195-62.723 0-94 2.248-.428 2.911 7.324 3 8.5 4.363 57.498-13.887 144.372 5 194 .662 1.739 1.599 5.68 4 5.5 32.005 80.494 110.091 150.65 191 180 21.297 7.726 44.48 13.964 67 17 26.022 3.508 56.16 4.906 82 0 .918-.174 1.074-.808 2-1 28.872-.593 60.055-9.838 87-21 79.556-32.957 146.221-99.938 178-180 16.587-41.79 7.411-71.654 6-116-.584-18.355-.943-36.62-1-55-.044-14.319.033-28.681 0-43 1.269-1.261 2.004-3.431 4-4-1.552 7.808.195 24.868 0 34-1.073 50.252 1.218 100.448 5 150.5 1.134 2.031 29.06-15.849 31-18 6.062-6.72 5.232-12.931 5-21.5.953-50.828-1.341-101.626-1-152.5.07-10.406 4.906-41.811 0-49-3.969-5.817-25.119-13.305-31.5-18.5-2.094 1.154-1.112 2.741-1.5 4-1.879 6.103-6.659 57.367-5 61-.925 1.786-4.566 1.561-6 2-.985-15.044 7.27-43.546 5-57 3.485-11.942-6.681-27.588-13-38-2.682-4.419-4.643-9.337-8.5-13-11.048 25.866-35.839 10.423-50.5-3-3.969-3.633-8.887-9.544-12-14-10.616-15.196-17.691-33.248-17-52 .211-5.716-1.344-6.834 4.5-12-29.537 8.292-8.836 54.746 3.5 72 4.933 6.899 9.887 11.339 16 17 15.59 14.437 41.255 34.408 62 18-.117.295.128.739 0 1-6.357 12.968-27.845 5.505-38 1-7.067-3.135-16.088-9.037-22-14-21.191-17.789-41.866-51.445-38-80 .115-.846.821-4.413 1-5 1.525-5.004 7.087-10.887 12-12 1.872-.424 5.725.018 8 0 1.663-.013 3.518-.17 5 0m132 177c-2.023 17.014-1.989 40.521-2 58-.006 10.435.654 20.627 1 31 .204 6.113 2.216 65.533 5.5 66 1.881-4.087 13.941-15.517 14.5-18.5.676-3.609-3.404-38.589-4-45.5-.198-2.292.202-4.709 0-7-.033-10.985.044-22.015 0-33l6-43.5-18.5-17.5c-1.478.207-2.284 8.181-2.5 10m22 26c-2.23 14.96-2.909 28.874-3 44-.027 4.52.594 54.781 3.5 55 6.518-16.032 11.041-36.676 10.5-54-.161-5.149-.184-8.828-1-14-1.988-13.674-3.057-28.784-9.5-41-1.244 3.155-.025 6.811-.5 10"/><path fill="#e1eff4" d="M294 339c3.131-12.857 11.198-25.692 9-39.5-.408-2.562-.631-6.709-5-5.5.297-7.502 1.754-15.099-5-19.5 25.207 7.203 10.307 48.175 1 64.5"/><path fill="#f6fafb" d="M724 286c-4.119-.486-2.625.901-3 3.5-3.11 21.569.932 31.944 10 50.5.356.728 2.666 5.554 1 6-12.336-17.254-33.037-63.708-3.5-72-5.844 5.166-4.289 6.284-4.5 12"/><path fill="#81a1ae" d="M724 286c-.691 18.752 6.384 36.804 17 52-4.719.946-4.872 6.984-10 2-9.068-18.556-13.11-28.931-10-50.5.375-2.599-1.119-3.986 3-3.5"/><path fill="#779eae" d="M294 339c-8.419 14.767-25.276 33.105-40.5 41-9.404 4.876-35.987 14.251-41.5 1-.093-4.049 4.927-14.475 1-17 .829-2.964 2.397-5.459 4-8 5.781-.374 6.893 11.308 13.5 13 30.823 7.892 66.429-47.945 67.5-75 4.369-1.209 4.592 2.938 5 5.5 2.198 13.808-5.869 26.643-9 39.5"/><path fill="#1b0708" d="M562 335c12.101.582 24.301 3.584 36 6.5L543.5 354c37.456-4.579 76.871-8.222 112 8-9.733 5.322-32.905 4.654-41.5 10-1.184.737-1.823.746-.5 2 1.535.548 1.41-1.003 1.5-1 33.5.978 67.907-1.728 101.5-1-10.355 20.115-37.83 12.336-55 18 28.164-1.946 59.277 6.984 84.5-9-5.583 16.91-21.133 30.305-37 38.5 16.385 6.155 37.047 6.773 46 24l-16-1c11.839 9.178 16.381 21.367 32 25.5 19.275 5.1 31.216.443 49-5 1.434-.439 5.075-.214 6-2 .196.428 3.264-1.589 3 2.5-.029.45-4.418 4.572-5 7.5-1.996.569-2.731 2.739-4 4-15.387 15.287-33.669 21.744-55 22-6.017.072-12.079.37-18-1 .119-6.393-1.245-.906-6-3-15.691-6.91-30.562-17.816-45-27-49.814-31.686-77.591-49.915-138-62-102.398-20.485-215.146 11.013-279 96-.764 1.017-2.628 2.037-4 4-3.877 5.548-6.088 12.618-11 17.5.424-8.576 3.863-16.404 6-24.5l1.5 2c.956-1.573 1.502-3.471 2.5-5 2.319-3.551 4.905-7.339 7-11 24.304-24.415 54.134-50.18 85.5-65 8.181-3.866 25.467-5.64 29.5-15 61.816-15.683 122.49-21.218 185.5-7 6.326 1.428 54.612 16.385 56 19 .649 1.223-3.155 2.905-1 6 1.316 1.89 35.084 16.208 41.5 20 27.137 16.041 66.131 56.124 99.5 50 2.69-.494 13.087-9.07 15.5-5-3.764 2.251-7.168 4.01-11.5 5-1.755 2.759 2.925 2.163 4 2 3.069-.466 19.704-9.683 23-12 2.554-1.795 18.631-14.754 14-16-1.406-.378-22.258 7.496-28 8-6.034.529-12.544.146-18.5-1-6.48-1.247-16.598-6.193-22-10-9.917-6.988-15.052-21.686-28-20-.894-1.756-1.342-2.063 1-3 4.458 1.284 14.425-.557 19.5 2 11.694-3.117-26.932-16.337-29-17-6.315-2.026-14.745-2.439-21.5-4-3.547-.82-3.835-3.348-6-4-2.011-7.747 14.421-5.031 20.5-7 3.939-1.276 15.967-10.796 19-14 1.181-1.247 4.815-3.187 2-5-5.753 5.24-14.186 5.128-21.5 7-23.096-1.576-46.115-2.134-69-6l58.5-12c6.781.826-3.594 1.359 0 4l11-8c-3.616-1.492-4.731 2-5 2-41.887-.023-69.984-1.299-112.5 2-1.899.147-3.296-.032-5 0 2.632-1.31 8.017-5.401 10.5-6 .217-.052.241 3.023 4 2 8.844-2.406 21.317-9.256 28-11 3.296-.86 11.781 1.916 15.5-2.5-36.535-16.146-78.124-7.143-116.5-3.5l49-18c-38.755-7.468-80.935 6.269-109 33l8.5-14c1.573 2.551 2.634 1.335 4.5 0 4.041-2.89 40.261-42.962 36-45-2.078.039-4.064 2.303-5.5 3-32.061 15.555-66.377 25.705-96 46 33.52-25.06 69.945-34.782 106.5-54 2.8.058-6.593 14.199-7.5 15.5-7.402 10.615-17.644 19.276-25.5 29.5 23.916-11.926 45.218-20.265 71.5-19m105.5 56c10.61 4.117 23.376 2.26 34.5 3.5-10.973-3.642-23.131-2.511-34.5-3.5"/><path fill="#463030" d="m478 359 35-42c1.436-.697 3.422-2.961 5.5-3 4.261 2.038-31.959 42.11-36 45-1.866 1.335-2.927 2.551-4.5 0"/><path fill="#61514c" d="m478 359-8.5 14c28.065-26.731 70.245-40.468 109-33l-49 18c38.376-3.643 79.965-12.646 116.5 3.5-3.719 4.416-12.204 1.64-15.5 2.5-6.683 1.744-19.156 8.594-28 11-3.759 1.023-3.783-2.052-4-2-2.483.599-7.868 4.69-10.5 6-13.552.255-27.808-3.567-41.5-4-27.08-.855-54.158.751-81 4l21-46L382 404c-.523-5.894 6.495-15.943 10-20 5.146-5.957 18.307-15.996 25-21 29.623-20.295 63.939-30.445 96-46z"/><path fill="#1f7998" d="M775 328c-7.009 5.756-14.16 10.928-20 18-4.307-3.929-8.246-7.097-11-12.5 7.678-4.542 14.674-10.28 21-16.5z"/><path fill="#362626" d="M588 379c1.704-.032 3.101.147 5 0 15.779 4.464 31.792 9.262 48 12 22.885 3.866 45.904 4.424 69 6-6.481 1.659-13.014 4.539-19.5 6-12.344 2.78-33.53 3.451-44 7-.312.106-1.978 1.5-1 2 12.728 2.653 32.838.488 44.5 4 2.165.652 2.453 3.18 6 4l-3.5 3c.718.935 15.348 4.777 18 6 3.302 1.523 15.573 9.733 16.5 10-2.342.937-1.894 1.244-1 3 4.068 7.991 19.942 16.464 28 20 5.402 3.807 15.52 8.753 22 10l-2 3c-5.653-1.285-14.36-3.017-19.5-5-10.631-4.102-68.986-38.622-75.5-33-1.601 1.382-.957 2.251-1 4-6.416-3.792-40.184-18.11-41.5-20-2.155-3.095 1.649-4.777 1-6-1.388-2.615-49.674-17.572-56-19-63.01-14.218-123.684-8.683-185.5 7-3.488.885-12.219 5.007-15 3.5-.49-1.166 1.085-1.541 1-2.5l104.5-71-21 46c26.842-3.249 53.92-4.855 81-4 13.692.433 27.948 4.255 41.5 4"/><path fill="#c0d4de" d="M741 338c3.113 4.456 8.031 10.367 12 14-2.568 3.573-6.823 6.553-5 11-6.113-5.661-11.067-10.101-16-17 1.666-.446-.644-5.272-1-6 5.128 4.984 5.281-1.054 10-2"/><path fill="#231113" d="M417 363c-6.693 5.004-19.854 15.043-25 21-1.443-1.001 2.401-4.139 3-5 7.466-6.965 25.809-20.78 30-29.5.4-.832 1.588-2.876-.5-2.5-2.113 2.376-10.26 3.652-12 5-1.23.953 1.3 1.194-1.5 4h-1c2.153-3.322-1.513-1.457-2.5-1-20.193 9.344-52.7 37.76-65.5 56-2.369-.65-.132-1.923 0-3l20.5-36c-36.179 27.126-68.732 66.175-85.5 108.5-1.222 3.085-3.793 10.205-3 13.5-.998 1.529-1.544 3.427-2.5 5l-1.5-2c1.75-6.63 6.431-18.497 7-24 5.112-7.874 8.211-16.953 13-25 19.006-31.931 46.673-59.31 76.5-81l-16 32c22.37-26.543 51.175-44.805 83-58L415 362.5z"/><path fill="#635450" d="M395 379c5.622-8.083 8.678-15.662 16-23 2.8-2.806.27-3.047 1.5-4 1.74-1.348 9.887-2.624 12-5 2.088-.376.9 1.668.5 2.5-4.191 8.72-22.534 22.535-30 29.5"/><path fill="#637e8a" d="M812 368c-.679 4.638-.148 8.309-2 13-20.745 16.408-46.41-3.563-62-18-1.823-4.447 2.432-7.427 5-11 14.661 13.423 39.452 28.866 50.5 3 3.857 3.663 5.818 8.581 8.5 13"/><path fill="#64524e" d="M410 356c-23.755 19.544-48.24 52.29-73.5 69-.32.212-4.005 2.913-3.5.5 4.183-4.359 5.414-9.39 9-14.5 12.8-18.24 45.307-46.656 65.5-56 .987-.457 4.653-2.322 2.5 1"/><path fill="#463030" d="M411 356c-7.322 7.338-10.378 14.917-16 23-.599.861-4.443 3.999-3 5-3.505 4.057-10.523 14.106-10 20 .085.959-1.49 1.334-1 2.5 2.781 1.507 11.512-2.615 15-3.5-4.033 9.36-21.319 11.134-29.5 15-31.366 14.82-61.196 40.585-85.5 65 19.17-33.502 40.87-66.033 66-95.5.35-.411 3.017-3.949 3-1-3.919 6.41-7.084 14.028-8 21.5-.132 1.077-2.369 2.35 0 3-3.586 5.11-4.817 10.141-9 14.5-.505 2.413 3.18-.288 3.5-.5 25.26-16.71 49.745-49.456 73.5-69z"/><path fill="#9fc5d2" d="M212 381c-1.34-3.222-1.35-7.599-1-11 .333-3.231 1.373-3.76 2-6 3.927 2.525-1.093 12.951-1 17"/><path fill="#c2d2d9" d="M825 406c-.684-4.052-12.238-19.407-15-24 .128-.261-.117-.705 0-1 1.852-4.691 1.321-8.362 2-13 6.319 10.412 16.485 26.058 13 38"/><path fill="#9bbac4" d="M772 383c-1.008 7.237-17.527 30.193-18 34.5-.814 7.412 16.293 40.314 17 50.5-15.619-4.133-20.161-16.322-32-25.5l16 1c-8.953-17.227-29.615-17.845-46-24 15.867-8.195 31.417-21.59 37-38.5 1.143-3.463.739-8.433 4-12 5.912 4.963 14.933 10.865 22 14"/><path fill="#fbfdfd" d="M210 383c-.399 2.712-5.424 12.878-7 16-1.413 2.799-4.165 8.564-7 10 .124-12.17 4.039-28.153 12-38 .797 2.65 2.352 9.607 2 12"/><path fill="#675550" d="M342 408c.916-7.472 4.081-15.09 8-21.5.017-2.949-2.65.589-3 1-25.13 29.467-46.83 61.998-66 95.5-2.095 3.661-4.681 7.449-7 11-.793-3.295 1.778-10.415 3-13.5 16.768-42.325 49.321-81.374 85.5-108.5z"/><path fill="#777584" d="M615 373c-.09-.003.035 1.548-1.5 1-1.323-1.254-.684-1.263.5-2z"/><path fill="#5e4f4a" d="M641 391c-16.208-2.738-32.221-7.536-48-12 42.516-3.299 70.613-2.023 112.5-2 .269 0 1.384-3.492 5-2l-11 8c-3.594-2.641 6.781-3.174 0-4z"/><path fill="#a9c7d0" d="M271 424c-5.52 18.53-10.84 32.722-14 52.5-.867 5.425 1.771 26.48-7 20-.817 27.19 2.277 54.226 9 80.5h-5c-9.971-37.276-6.577-55.027-6-91.5.312-19.725-15.539-49.374-27-66-4.796-6.957-12.811-13.659-18-20.5 1.576-3.122 6.601-13.288 7-16 13.958 14.263 39.125 2.568 53-7 1.492 7.582 12.895 27.333 13 33.5.034 1.999-4.019 11.206-5 14.5"/><path fill="#537d8a" d="M825 406c2.27 13.454-5.985 41.956-5 57-17.784 5.443-29.725 10.1-49 5-.707-10.186-17.814-43.088-17-50.5.473-4.307 16.992-27.263 18-34.5 10.155 4.505 31.643 11.968 38-1 2.762 4.593 14.316 19.948 15 24"/><path fill="#524642" d="M690 416c-11.662-3.512-31.772-1.347-44.5-4-.978-.5.688-1.894 1-2 10.47-3.549 31.656-4.22 44-7 6.486-1.461 13.019-4.341 19.5-6 7.314-1.872 15.747-1.76 21.5-7 2.815 1.813-.819 3.753-2 5-3.033 3.204-15.061 12.724-19 14-6.079 1.969-22.511-.747-20.5 7"/><path fill="#685a5e" d="M667.5 391c11.369.989 23.527-.142 34.5 3.5-11.124-1.24-23.89.617-34.5-3.5"/><path fill="#024764" d="M190 397c-4.24-.625-8.585 4.12-12 6-5.396 2.971-18.74 7.709-21 13.5-2.595 6.652-.065 18.912 0 26.5.473 55.214-3.269 112.986-2 167 .116 4.957 2.704 6.456 3 8.5.342 2.361-1.987 8.148-1 12 2.292 8.942 28.172 19.116 33 25.5.121.16-.244 3.381 0 4-6.375-7.098-29.17-16.941-33-24.5-3.283-6.48-.671-10.824-2-15-3.043-9.557-22.559-27.628-28-40-13.497-30.69-15.251-94.483 1-124 3.469-6.301 25.016-24.495 26-28 .812-2.891-2.184-8.405 2-15 4.172-6.576 25.177-14.139 32-20.5 1.891 1.332 1.789 1.698 2 4m-57 65c2.141 35.772 3.227 63.95 2 100-.184 5.406-3.084 20.895-2 24.5.54 1.797 13.372 15.411 15 19 3.273-39.612 7.313-79.15 6-119-.434-13.159-.518-28.622-3-41.5-.201-1.045-.756-5.704-1.5-6-1.918 3.65-18.02 15.594-18.5 17.5-.206.819 1.983 5.208 2 5.5m-14 51c-.857 20.259 2.031 43.665 11 61.5 3.907-34.184 3.625-66.425 0-100.5-.346-3.251.653-6.809-.5-10-6.223 14.469-9.828 33.106-10.5 49"/><path fill="#9cb5c0" d="M190 397c2.716 29.647 4.862 59.211 6 89 1.195 31.277 2.013 62.728 0 94-4.791-12.73-22.506-4.546-28-10l1-104.5 10 53-1-115.5c3.415-1.88 7.76-6.625 12-6"/><path fill="#ecf3f4" d="M865 616c-1.369-50.451-4.581-101.334-4-152 .137-11.947 5.511-34.498 3-44.5-1.789-7.128-26.322-14.736-33-19.5.388-1.259-.594-2.846 1.5-4 6.381 5.195 27.531 12.683 31.5 18.5 4.906 7.189.07 38.594 0 49-.341 50.874 1.953 101.672 1 152.5"/><path fill="#648d98" d="m558 404-1 2c-43.194-13.011-86.462-5.782-124 18-3.993 2.53-9.34 5.091-13 8-37.377 9.37-73.144 28.867-105 50-12.341 8.187-23.949 17.421-36 26v-8c63.854-84.987 176.602-116.485 279-96"/><path fill="#b8cfd6" d="M254 577c5.059 18.914 12.89 35.892 22 53 8.344 15.67 17.509 30.348 29 44-35.36 19.66-58.539-33.959-90-19.5-.002.834.003 1.677 0 2.5-.423-.105-1.939-.907-2-1-5.147-7.831-8.891-16.77-15-24 1.972-75.956-2.757-148.779-2-223 2.835-1.436 5.587-7.201 7-10 5.189 6.841 13.204 13.543 18 20.5 11.461 16.626 27.312 46.275 27 66-.577 36.473-3.971 54.224 6 91.5"/><path fill="#1d5f6b" d="M557 406c24.292 7.317 51.357 26.126 68 45 6.592 7.476 12.139 15.281 17 24l-5 1c-1.056-1.868-2.865-3.229-4-5-41.428-64.651-125.027-84.124-192-46-1.567.892-5.89 2.274-7 3l-1-4c37.538-23.782 80.806-31.011 124-18"/><path fill="#ccd9de" d="M861 464c-6.691 11.226 3.791 33.523-14.5 32-13.528-1.126-11.991-11.358-22.5 9 .195-9.132-1.552-26.192 0-34 .582-2.928 4.971-7.05 5-7.5.264-4.089-2.804-2.072-3-2.5-1.659-3.633 3.121-54.897 5-61 6.678 4.764 31.211 12.372 33 19.5 2.511 10.002-2.863 32.553-3 44.5m-22.5-47-1 37c1.643-5.733 8.687-24.909 8.5-29.5-.186-4.563-4.894-5.12-7.5-7.5"/><path fill="#c3d3da" d="m178 403 1 115.5-10-53-1 104.5c-2.758-2.738-1.985-5.084-2-8.5-2.978-5.845-3.77 15.85-4 17-.171.856-1.979 1.377-2 1.5.115-46.875 1.445-93.726-1-140.5l-2 3.5c-.065-7.588-2.595-19.848 0-26.5 2.26-5.791 15.604-10.529 21-13.5m-3.5 24c-11.766 6.276-2.859 21.272-1 32 2.017-3.347 2.905-31.455 1-32m-11 73c-1.275 5.879-2.989 47.568-1 49 .155.111 2.249-1.528 3.5-1.5z"/><path fill="#466770" d="m696 466-7 15c-20.737-10.93-42.15-21.478-64-30-16.643-18.874-43.708-37.683-68-45l1-2c60.409 12.085 88.186 30.314 138 62"/><path fill="#498290" d="m633 471-3 1c-39.402-57.664-110.561-78.342-175-50-4.944 2.175-10.377 4.211-15 7l1-4c66.973-38.124 150.572-18.651 192 46"/><path fill="#023044" d="M630 472v1c-1.504-1.646-3.859-2.156-4.5-5-2.754 9.269-12.492-8.651-17-13-39.536-38.144-102.169-51.971-152-26l-1.5-7c64.439-28.342 135.598-7.664 175 50"/><path fill="#06708f" d="M630 473c9.901 10.838 19.059 38.032 21 52.5 8.907 66.388-30.83 129.62-94 150.5-10.855 3.588-21.83 5.382-31.5 8l-31-1c-39.6-6.19-76.862-27.934-98.5-62 2.087 2.246 5.3 5.556 8 4 3.206 8.863 8.455 13.363 18 14 13.048 13.675 30.005 22.367 47.5 29l2.5-8c2.453.89 5.63 2.358 8 3-2.615 7.979 5.715 11.63 6 1 17.153 3.588 38.075 4.954 54-1.5-20.569 3.386-40.233 1.585-60-4.5l8-27c41.927 12.183 92.034-3.494 112-44 9.764-19.808 12.883-45.038 5-66-.048-.191-.883-2.715-1-3-.156-.88.258-2.475 0-3 1.446.224 1.388.24 2-1 7.872 5.528 8.249 24.257 8 33.5-1.278 47.361-37.632 90.03-84 99 69.227-8.318 105.583-83.059 80-146-2.972-1.645-1.773 2.067-2 3.5-23.111-36.912-62.922-60.564-107.5-55-11.223 1.401-24.77 9.798-34 11-7.188.936-22.848-1.525-31-1-2.704.174-20.983 1.568-22 2-1.926.818-15.805 21.26-17.5 24.5-14.868 28.427-17.417 58.56-10 89.5l-10 1c-8.689-41.629 2.368-85.951 30-118 7.944-9.213 23.603-22.727 34-29 4.623-2.789 10.056-4.825 15-7l1.5 7c49.831-25.971 112.464-12.144 152 26 4.508 4.349 14.246 22.269 17 13 .641 2.844 2.996 3.354 4.5 5"/><path fill="#f5f8f9" d="M838.5 417c2.606 2.38 7.314 2.937 7.5 7.5.187 4.591-6.857 23.767-8.5 29.5z"/><path fill="#b2ccd4" d="M290 448c-4.789 8.047-7.888 17.126-13 25 1.65-15.96-4.545-23.351 7-41 2.297-3.511 10.586-12.015 15-13.5-2.986 8.714-13.522 20.995-9 29.5"/><path fill="#564744" d="M727 439c-.927-.267-13.198-8.477-16.5-10-2.652-1.223-17.282-5.065-18-6l3.5-3c6.755 1.561 15.185 1.974 21.5 4 2.068.663 40.694 13.883 29 17-5.075-2.557-15.042-.716-19.5-2"/><path fill="#bed2d9" d="M284 432c-11.545 17.649-5.35 25.04-7 41-.569 5.503-5.25 17.37-7 24-2.137 8.096-5.576 15.924-6 24.5 4.912-4.882 7.123-11.952 11-17.5-4.937 98.887 63.511 190.406 156 221l-1 12c-30.01-9.801-58.49-24.05-82.5-45l-8.5 10c-24.511-20.399-45.193-45.807-60-74-8.579-16.334-15.408-33.055-20-51-6.723-26.274-9.817-53.31-9-80.5 8.771 6.48 6.133-14.575 7-20 3.16-19.778 8.48-33.97 14-52.5z"/><path fill="#168aa1" d="m433 424 1 4c-9.825 6.429-22.218 19.03-30 28-3.41 3.931-5.917 6.654-9 11-2.373-.186-5.514 1.061-5-2 8.066-11.826 18.76-24.067 30-33 3.66-2.909 9.007-5.47 13-8"/><path fill="#56afc7" d="m441 425-1 4c-10.397 6.273-26.056 19.787-34 29l-2-2c7.782-8.97 20.175-21.571 30-28 1.11-.726 5.433-2.108 7-3"/><path fill="#f9fbfc" d="M174.5 427c1.905.545 1.017 28.653-1 32-1.859-10.728-10.766-25.724 1-32"/><path fill="#7fc1d1" d="M420 432c-11.24 8.933-21.934 21.174-30 33-.149.218-1.879 1.812-2 2-23.603 4.385-47.013 14.318-66 29l-7-14c31.856-21.133 67.623-40.63 105-50"/><path fill="#473836" d="M774 475c5.273 1.198 11.444 4.03 17 4-45.052 6.853-74.554-24.62-112-42 6.514-5.622 64.869 28.898 75.5 33 5.14 1.983 13.847 3.715 19.5 5"/><path fill="#2a1c1d" d="M791 479c5.84-.031 11.246-3.168 17-3.5.453 1.248-13.19 9.417-15 10.5-2.413-4.07-12.81 4.506-15.5 5-33.369 6.124-72.363-33.959-99.5-50 .043-1.749-.601-2.618 1-4 37.446 17.38 66.948 48.853 112 42"/><path fill="#f8fcfd" d="M151 445c-2.43-.001-2.82 2.812-3 3-4.596 4.795-10.02 9.561-15 14-.017-.292-2.206-4.681-2-5.5.48-1.906 16.582-13.85 18.5-17.5.744.296 1.299 4.955 1.5 6"/><path fill="#ebf2f3" d="M160 580c-1.592 9.239-1.043 17.662-2 26.5-.153 1.414-.598 4.044-3 3.5-1.269-54.014 2.473-111.786 2-167l2-3.5c2.445 46.774 1.115 93.625 1 140.5"/><path fill="#f9fcfd" d="M885 500c-.024-5.939.967-37.026 0-39.5-.445-1.139-12.117-11.594-15-11.5.216-1.819 1.022-9.793 2.5-10l18.5 17.5z"/><path fill="#4e4341" d="M754 462c-8.058-3.536-23.932-12.009-28-20 12.948-1.686 18.083 13.012 28 20"/><path fill="#6cd0ec" d="M135 562c5.437-6.966.93-37.182 4-41.5 1.026-1.443 9.446.238 10.5-.5 3.406-2.384.8-63.482-1.5-72 .18-.188.57-3.001 3-3 2.482 12.878 2.566 28.341 3 41.5 1.313 39.85-2.727 79.388-6 119-1.628-3.589-14.46-17.203-15-19-1.084-3.605 1.816-19.094 2-24.5"/><path fill="#abe2f3" d="M135 562c1.227-36.05.141-64.228-2-100 4.98-4.439 10.404-9.205 15-14 2.3 8.518 4.906 69.616 1.5 72-1.054.738-9.474-.943-10.5.5-3.07 4.318 1.437 34.534-4 41.5"/><path fill="url(#b)" d="M608 504c-.593 3.746-.06 6.067-2 10-.612 1.24-.554 1.224-2 1-43.64-88.741-176.153-69.614-179 28-10.173.245-21.543.473-30 7l-2-15.5c-3.164 15.557-2.22 31.754 2 47 3.68 13.295 14.32 21.446 8 35.5-5.852-14.56-13.261-26.401-17-42-7.417-30.94-4.868-61.073 10-89.5 1.695-3.24 15.574-23.682 17.5-24.5 1.017-.432 19.296-1.826 22-2 8.152-.525 23.812 1.936 31 1 9.23-1.202 22.777-9.599 34-11 44.578-5.564 84.389 18.088 107.5 55" style="fill:url(#b)"/>/&gt;<path fill="#cbeaf5" d="M885 500c.044 10.985-.033 22.015 0 33-.304-3.44-1.417-23.418-2-24.5-1.038-1.925-12.481-1.486-15-1.5.011-17.479-.023-40.986 2-58 2.883-.094 14.555 10.361 15 11.5.967 2.474-.024 33.561 0 39.5"/><path fill="url(#c)" d="M689 481c6.532 3.443 13.155 8.803 19 12 15.118 164.532-166.585 267.162-305.5 181-41.263-25.593-79.69-76.214-88.5-124.5-2.55-13.975-1.643-28.573-4-42.5 3.832-3.42 8.104-7.987 12-11 18.987-14.682 42.397-24.615 66-29-31.437 48.627-31.264 109.664 0 158 20.577 31.812 57.467 58.67 95 66 122.281 23.882 220.938-104.891 159-216-4.861-8.719-10.408-16.524-17-24 21.85 8.522 43.263 19.07 64 30" style="fill:url(#c)"/>/&gt;<path fill="#aaf2fd" d="M406 458c-27.632 32.049-38.689 76.371-30 118 2.432 11.654 11.964 36.351 20 45 21.638 34.066 58.9 55.81 98.5 62l31 1c9.67-2.618 20.645-4.412 31.5-8l1 3c-26.968 9.235-46.548 11.542-75 6-35.691-6.952-72.849-33.259-92-64-29.436-47.252-28.205-108.601 4-154 3.083-4.346 5.59-7.069 9-11z"/><path fill="url(#d)" d="M604 515c.258.525-.156 2.12 0 3-12.04-29.193-64.738-16.69-53 22-27.176-8.301-55.472-5.678-79.5 10-11.962 7.805-29.283 27.149-29.5 42-4.425 2.528-10.857-12.364-12-15.5-3.861-10.592-5.326-22.323-5-33.5 2.847-97.614 135.36-116.741 179-28" style="fill:url(#d)"/>/&gt;<path fill="#e2eff2" d="m130 474-11 39c.672-15.894 4.277-34.531 10.5-49 1.153 3.191.154 6.749.5 10"/><path fill="url(#e)" d="M865 616c.232 8.569 1.062 14.78-5 21.5-1.94 2.151-29.866 20.031-31 18-3.782-50.052-6.073-100.248-5-150.5 10.509-20.358 8.972-10.126 22.5-9 18.291 1.523 7.809-20.774 14.5-32-.581 50.666 2.631 101.549 4 152" style="fill:url(#e)"/>/&gt;<path fill="#0bbcdf" d="M395 467c-32.205 45.399-33.436 106.748-4 154l-3 4c-31.264-48.336-31.437-109.373 0-158 .121-.188 1.851-1.782 2-2-.514 3.061 2.627 1.814 5 2"/><path fill="#372828" d="M793 486c1.81-1.083 15.453-9.252 15-10.5-5.754.332-11.16 3.469-17 3.5-5.556.03-11.727-2.802-17-4l2-3c5.956 1.146 12.466 1.529 18.5 1 5.742-.504 26.594-8.378 28-8 4.631 1.246-11.446 14.205-14 16-3.296 2.317-19.931 11.534-23 12-1.075.163-5.755.759-4-2 4.332-.99 7.736-2.749 11.5-5"/><path fill="#e4f1f4" d="M902 506c-.016-.102-1.853.346-2-.5-1.721-9.908-2.34-22.148-8-30.5.475-3.189-.744-6.845.5-10 6.443 12.216 7.512 27.326 9.5 41"/><path fill="#2c475c" d="M741 493c1.758 5.482 1.925 11.292 2 17-11.501-4.815-23.743-10.842-35-17-5.845-3.197-12.468-8.557-19-12l7-15c14.438 9.184 29.309 20.09 45 27"/><path fill="#6dcae1" d="M637 476c45.292 80.102 6.259 173.805-79 203l-1-3c63.17-20.88 102.907-84.112 94-150.5-1.941-14.468-11.099-41.662-21-52.5v-1l3-1c1.135 1.771 2.944 3.132 4 5"/><path fill="#158aad" d="m119 513 11-39c3.625 34.075 3.907 66.316 0 100.5-8.969-17.835-11.857-41.241-11-61.5"/><path fill="#128daa" d="M483 691v-6c28.452 5.542 48.032 3.235 75-6 85.259-29.195 124.292-122.898 79-203l5-1c61.938 111.109-36.719 239.882-159 216"/><path fill="#7da3ae" d="m820 518-22 4c4.624-5.812 8.351-12.866 10.5-20l-43.5-5c21.331-.256 39.613-6.713 55-22 .033 14.319-.044 28.681 0 43"/><path fill="#65acc3" d="M902 506c.816 5.172.839 8.851 1 14l-14-1c.091-15.126.77-29.04 3-44 5.66 8.352 6.279 20.592 8 30.5.147.846 1.984.398 2 .5"/><path fill="#78a7bc" d="M322 496c-3.896 3.013-8.168 7.58-12 11-9.488 8.467-16.304 22.894-30 25a285 285 0 0 1-1-24c12.051-8.579 23.659-17.813 36-26z"/><path fill="url(#f)" d="M743 510c1.362 103.091-72.746 190.788-171 216-132.872 34.095-280.375-53.001-292-194 13.696-2.106 20.512-16.533 30-25 2.357 13.927 1.45 28.525 4 42.5 8.81 48.286 47.237 98.907 88.5 124.5 138.915 86.162 320.618-16.468 305.5-181 11.257 6.158 23.499 12.185 35 17" style="fill:url(#f)"/>/&gt;<path fill="#172631" d="M747 496c-.251 13.408.111 26.554-1 40-2.25 27.234-12.924 61-26 85-5.872 10.778-15.032 23.645-23 33-22.104 25.953-54.946 49.272-86 63-10.88 1.151-25.624 10.867-36 11.5-1.465.089-3.469-.383-3-2.5 98.254-25.212 172.362-112.909 171-216-.075-5.708-.242-11.518-2-17 4.755 2.094 6.119-3.393 6 3"/><path fill="#4c5d63" d="m765 497 43.5 5c-2.149 7.134-5.876 14.188-10.5 20-5.199 6.535-11.868 12.373-20 15 1.139-9.195.983-20.653 1-30 .93-.777 4.646-6.347 3.5-7-7.993 6.488-20.481 5.706-31 4 2.756 7.703 18.528 7.13 24.5 5-.329 10.061-1.581 20.059-3 30-9.287.439-18.192.001-27-3 1.111-13.446.749-26.592 1-40 5.921 1.37 11.983 1.072 18 1"/><path fill="#a0b8c2" d="m163.5 500 2.5 47.5c-1.251-.028-3.345 1.611-3.5 1.5-1.989-1.432-.275-43.121 1-49"/><path fill="#1e3d4e" d="M279 508c0 8.216.326 15.82 1 24 11.625 140.999 159.128 228.095 292 194-.469 2.117 1.535 2.589 3 2.5 10.376-.633 25.12-10.349 36-11.5-.275.122-2.761 1.9-3 2-56.164 23.54-119.253 25.102-177 6-92.489-30.594-160.937-122.113-156-221 1.372-1.963 3.236-2.983 4-4z"/><path fill="#16b8d4" d="M606 514c1.94-3.933 1.407-6.254 2-10 .227-1.433-.972-5.145 2-3.5 25.583 62.941-10.773 137.682-80 146 46.368-8.97 82.722-51.639 84-99 .249-9.243-.128-27.972-8-33.5"/><path fill="#7ca0aa" d="M779 507c-.138.116-2.83 1.939-3 2-5.972 2.13-21.744 2.703-24.5-5 10.519 1.706 23.007 2.488 31-4 1.146.653-2.57 6.223-3.5 7"/><path fill="#fefefe" d="M604 518c.117.285.952 2.809 1 3 4.045 16.103-5.32 33.143-22 36-11.569 1.981-28.292-4.777-32-17-11.738-38.69 40.96-51.193 53-22"/><path fill="#0a3d52" d="M779 507c-.017 9.347.139 20.805-1 30-.538 4.344-2.206 9.532-3 14-25.718 144.628-159.518 231.775-303 213-63.996-8.374-125.421-40.6-167-90-11.491-13.652-20.656-28.33-29-44l3-2c14.807 28.193 35.489 53.601 60 74 53.149 44.233 146.596 74.918 215 57 115.789-16.53 202.505-104.409 219-220 1.419-9.941 2.671-19.939 3-30 .17-.061 2.862-1.884 3-2"/><path fill="#b0e4f5" d="M885 533c.202 2.291-.198 4.708 0 7l-16-2c-.346-10.373-1.006-20.565-1-31 2.519.014 13.962-.425 15 1.5.583 1.082 1.696 21.06 2 24.5"/><path fill="#5b7e89" d="M820 518c.057 18.38.416 36.645 1 55-3.85 10.836-6.496 22.029-10 33-17.43-16.839-7.551-46.984-36-55 .794-4.468 2.462-9.656 3-14 8.132-2.627 14.801-8.465 20-15z"/><path fill="#2483a2" d="M903 520c.541 17.324-3.982 37.968-10.5 54-2.906-.219-3.527-50.48-3.5-55z"/><path fill="#21426c" d="m600 587-17-30c16.68-2.857 26.045-19.897 22-36 7.883 20.962 4.764 46.192-5 66"/><path fill="#fdfeff" d="M395 550c-1.374 7.097 11.731 50.116 16.5 51 .83.154 8.918-4.954 16-4 4.081.55 15.03 8.094 16.5 12 5.712 15.174-5.986 23.435-6 25.5-.008 1.125 15.801 12.231 18 13.5l-2 3c-4.152-2.233-18.317-13.796-19.5-14-.624-.108-8.34 2.278-12.5 2-9.545-.637-14.794-5.137-18-14-.999-2.761-.535-6.842-1-8 6.32-14.054-4.32-22.205-8-35.5-4.22-15.246-5.164-31.443-2-47z"/><path fill="url(#g)" d="M551 540c3.708 12.223 20.431 18.981 32 17l17 30c-19.966 40.506-70.073 56.183-112 44-11.554-3.357-33.84-16.177-41-26-3.682-5.051-5.094-6.542-5-13 .217-14.851 17.538-34.195 29.5-42 24.028-15.678 52.324-18.301 79.5-10m20.5 26c-14.264 1.455-12.646 25.997 3 25 15.149-.965 13.105-26.643-3-25" style="fill:url(#g)"/>/&gt;<path fill="#759ca7" d="M773 539c-16.495 115.591-103.211 203.47-219 220 12.339-3.232 13.107-1.292 11-15 16.179-3.322 31.711-7.663 47-14 36.28-15.037 68.434-39.505 93-70 8.979-11.146 17.628-22.412 24-35.5l-9-3.5c13.076-24 23.75-57.766 26-85 8.808 3.001 17.713 3.439 27 3"/><path fill="#7ed6ef" d="M885 540c.596 6.911 4.676 41.891 4 45.5-.559 2.983-12.619 14.413-14.5 18.5-3.284-.467-5.296-59.887-5.5-66z"/><path fill="#86e6fa" d="M425 543c-.326 11.177 1.139 22.908 5 33.5 1.143 3.136 7.575 18.028 12 15.5-.094 6.458 1.318 7.949 5 13l-3 4c-1.47-3.906-12.419-11.45-16.5-12-7.082-.954-15.17 4.154-16 4-4.769-.884-17.874-43.903-16.5-51 8.457-6.527 19.827-6.755 30-7"/><path fill="#7196a1" d="M811 606c-39.446 123.508-106.011 169.573-212 232-4.866 2.866-9.706 1.583-9.5 9-1.299-1.357.833-3.46-2-4-1.341-.256-21.338 9.74-25 11-35.384 12.176-52.399 16.779-90.5 11-11.81-1.791-27.711-5.901-39.5-9-5.582-1.467-36.134-13.741-38-13-.551.219-5.375 9.611-5.5 10.5-1.209 8.609 2.619 16.641 10 20.5-80.909-29.35-158.995-99.506-191-180-2.728-6.861-6.089-14.95-8-22 7.767-3.767 10.62-7.922 13-16 .061.093 1.577.895 2 1-.042 10.541 57.731 70.125 68.5 80 24.317 22.299 46.902 40.55 78 53 3.48 1.393 25.328 9.371 27 9 1.089-.242 12.311-9.006 19-11 20.008-5.965 53.978-2.228 64.5-24 143.482 18.775 277.282-68.372 303-213 28.449 8.016 18.57 38.161 36 55M686.5 732c-9.844 1.615-14.808 19.08-5 25 10.967 6.619 23.755-3.09 21.5-15.5-1.17-6.437-11.22-10.366-16.5-9.5M481 845c24.867 33.268 80.017 4.948 65-37.5-3.455-9.768-17.793-21.096-28-22.5-.641-.088-1.349.053-2 0 1.984-2.889-.674-1.933-2.5-2-13.059-.477-15.282.363-25 7-4.743 3.24-16.189 14.819-17.5 22.5-1.477 8.656.846 27.992 10 32.5"/><path fill="#5f8896" d="M168 570c5.494 5.454 23.209-2.73 28 10 2.112 5.612-1.894 62.561-3 72.5-.243 2.183-.15 3.657-3 3.5-4.828-6.384-30.708-16.558-33-25.5-.987-3.852 1.342-9.639 1-12-.296-2.044-2.884-3.543-3-8.5 2.402.544 2.847-2.086 3-3.5.957-8.838.408-17.261 2-26.5.021-.123 1.829-.644 2-1.5.23-1.15 1.022-22.845 4-17 .015 3.416-.758 5.762 2 8.5"/><path fill="#fdfdfe" d="M571.5 566c16.105-1.643 18.149 24.035 3 25-15.646.997-17.264-23.545-3-25"/><path fill="#3c5d67" d="M815 689c-1.406-.12-2.19-3.078-4-1.5-.911.794-8.12 18.689-10 22-38.535 67.855-95.014 122.997-164 159.5-26.945 11.162-58.128 20.407-87 21 107.984-22.414 241.938-140.511 265-250.5.246-1.171 1.88-4.783-.5-4.5C777.613 746.354 691.233 829.902 583 872c-3.028-14.99 15.751-20.699 16-34 105.989-62.427 172.554-108.492 212-232 3.504-10.971 6.15-22.164 10-33 1.411 44.346 10.587 74.21-6 116"/><path fill="#43c2e0" d="M386 575c3.739 15.599 11.148 27.44 17 42 .465 1.158.001 5.239 1 8-2.7 1.556-5.913-1.754-8-4-8.036-8.649-17.568-33.346-20-45z"/><path fill="#3b6573" d="M259 577c4.592 17.945 11.421 34.666 20 51l-3 2c-9.11-17.108-16.941-34.086-22-53z"/><path fill="#33b9d6" d="m488 631-8 27c-7.039-2.167-17.719-6.375-24-10-2.199-1.269-18.008-12.375-18-13.5.014-2.065 11.712-10.326 6-25.5l3-4c7.16 9.823 29.446 22.643 41 26"/><path fill="#09a6c7" d="M483 685v6c-37.533-7.33-74.423-34.188-95-66l3-4c19.151 30.741 56.309 57.048 92 64"/><path fill="#9bbac4" d="m705 660-8-6c7.968-9.355 17.128-22.222 23-33l9 3.5c-6.372 13.088-15.021 24.354-24 35.5"/><path fill="#93b4bd" d="M213 656c-2.38 8.078-5.233 12.233-13 16-5.058-18.664-2.476-21.646-2-40 6.109 7.23 9.853 16.169 15 24"/><path fill="#7c9aa3" d="M550 890c-.926.192-1.082.826-2 1l-15.5-2c17.301-4.312 33.943-10.56 50.5-17 108.233-42.098 194.613-125.646 231.5-237 2.38-.283.746 3.329.5 4.5C791.938 749.489 657.984 867.586 550 890"/><path fill="#2bb4d3" d="M454 651c5.567 2.994 12.117 6.867 18 9l-2.5 8c-17.495-6.633-34.452-15.325-47.5-29 4.16.278 11.876-2.108 12.5-2 1.183.204 15.348 11.767 19.5 14"/><path fill="#72ecfc" d="M480 658c19.767 6.085 39.431 7.886 60 4.5-15.925 6.454-36.847 5.088-54 1.5-2.047-.428-4.679-.642-6-1-2.37-.642-5.547-2.11-8-3-5.883-2.133-12.433-6.006-18-9l2-3c6.281 3.625 16.961 7.833 24 10"/><path fill="#93b4bd" d="M305 674c41.579 49.4 103.004 81.626 167 90-10.522 21.772-44.492 18.035-64.5 24-6.689 1.994-17.911 10.758-19 11-1.672.371-23.52-7.607-27-9-31.098-12.45-53.683-30.701-78-53-10.769-9.875-68.542-69.459-68.5-80 .003-.823-.002-1.666 0-2.5 31.461-14.459 54.64 39.16 90 19.5m20.5 59c-15.148 3.21-13.26 30.205 7 26 14.28-2.964 13.65-30.376-7-26"/><path fill="#bed2d9" d="M705 660c-24.566 30.495-56.72 54.963-93 70-3.263-2.57-4.202-6.922-4-11 .239-.1 2.725-1.878 3-2 31.054-13.728 63.896-37.047 86-63z"/><path fill="#0ca2c3" d="M486 664c-.285 10.63-8.615 6.979-6-1 1.321.358 3.953.572 6 1"/><path fill="#86a5ad" d="M815 689c-31.779 80.062-98.444 147.043-178 180 68.986-36.503 125.465-91.645 164-159.5 1.88-3.311 9.089-21.206 10-22 1.81-1.578 2.594 1.38 4 1.5"/><path fill="#97b7c1" d="M430 737c47.062 15.37 86.325 16.994 135 7 2.107 13.708 1.339 11.768-11 15-68.404 17.918-161.851-12.767-215-57l8.5-10c24.01 20.95 52.49 35.199 82.5 45"/><path fill="#dde8ec" d="M608 719c-.202 4.078.737 8.43 4 11-15.289 6.337-30.821 10.678-47 14-48.675 9.994-87.938 8.37-135-7l1-12c57.747 19.102 120.836 17.54 177-6"/><path fill="#053652" d="M686.5 732c5.28-.866 15.33 3.063 16.5 9.5 2.255 12.41-10.533 22.119-21.5 15.5-9.808-5.92-4.844-23.385 5-25m-4 4-3 5 4.5-4.5zm11 0c-.758.139 1.278 2.411-1 3-.616.159.004-2.434-2-2-1.575.341 2.735 4.769-3 2-1.001 7.661-8.913 3.801-6 14l-3.5-5.5c.555 12.93 18.371 12.408 23 2-5.242 3.219-9.946 10.004-17 5 13.149 4.332 19.058-20.249 9.5-18.5"/><path fill="#043854" d="M325.5 733c20.65-4.376 21.28 23.036 7 26-20.26 4.205-22.148-22.79-7-26m-4 4c-.574.479-5.064 4.496-3 5 .574-.479 5.064-4.496 3-5m9 0c-4.053 1.55-14.144 14.261-6 17 10.778 3.624 19.817-14.989 9-17-.696-.129-.262 1.961-1 2-.303.016-1.784-2.083-2-2m-13 12c-.914 2.733 2.472 6.377 5 7z"/><path fill="#58adc8" d="m682.5 736 1.5.5-4.5 4.5z"/><path fill="#0093b7" d="M693.5 736c9.558-1.749 3.649 22.832-9.5 18.5 7.054 5.004 11.758-1.781 17-5-4.629 10.408-22.445 10.93-23-2l3.5 5.5c-2.913-10.199 4.999-6.339 6-14 5.735 2.769 1.425-1.659 3-2 2.004-.434 1.384 2.159 2 2 2.278-.589.242-2.861 1-3"/><path fill="#4ac0d9" d="M321.5 737c2.064.504-2.426 4.521-3 5-2.064-.504 2.426-4.521 3-5"/><path fill="#0096b9" d="M330.5 737c.216-.083 1.697 2.016 2 2 .738-.039.304-2.129 1-2 10.817 2.011 1.778 20.624-9 17-8.144-2.739 1.947-15.45 6-17"/><path fill="#02819f" d="m317.5 749 5 7c-2.528-.623-5.914-4.267-5-7"/><path fill="#cae3e7" d="M516 785c-18.5-1.494-35.709 7.333-41 26-3.485 12.294-1.715 23.678 6 34-9.154-4.508-11.477-23.844-10-32.5 1.311-7.681 12.757-19.26 17.5-22.5 9.718-6.637 11.941-7.477 25-7 1.826.067 4.484-.889 2.5 2"/><path fill="#03132c" d="M516 785c.651.053 1.359-.088 2 0l-1 2c-16.703-2.026-35.406 7.911-40 25l-2-1c5.291-18.667 22.5-27.494 41-26"/><path fill="#013d5a" d="M481 845c-7.715-10.322-9.485-21.706-6-34l2 1c-.328 1.221-.906 6.385-1 8-1.028 17.701 12.41 34.903 30.5 37-1.903-3.539-10.173-6.053-6-10 5.256 2.015 17.656 1.109 22-2 1.104-.79.125-3.174.5-3.5 2.552-2.216 12.087-10.606 13-13 2.98-7.815.154-21.56-7-26.5-4.703-3.248-2.448 3.019-9 2-.373-1.337-.782-.836-1-1-14.934-11.236-36.885 15.98-33.5 31-16.48-24.242 18.759-54.127 41-37 4.786-1.192 3.275-5.533-2.5-7-1.134-.934-5.994-2.878-7-3l1-2c10.207 1.404 24.545 12.732 28 22.5 15.017 42.448-40.133 70.768-65 37.5m50.5-50c.343 6.3 6.487 9.779 8.5 15.5 1.958 5.565 1.578 22.386 0 27-2.177 6.365-9.966 9.504-12.5 15.5 21.495-10.423 25.733-45.984 4-58"/><path fill="#e0f3f4" d="M517 787c1.006.122 5.866 2.066 7 3-21.869-5.555-47.086 10.118-46 34-.39-1.096-1.018-3.306-2-4 .094-1.615.672-6.779 1-8 4.594-17.089 23.297-27.026 40-25"/><path fill="#007096" d="M524 790c5.775 1.467 7.286 5.808 2.5 7-22.241-17.127-57.48 12.758-41 37-3.385-15.02 18.566-42.236 33.5-31-1.65-1.168-2.946 1.867-1.5 3 .819-.345 2.12-2.561 1.5-3 .218.164.627-.337 1 1 .144.518-.072 1.357 0 2-5.265 1.467-23.826 31.892-29.5 37-.745-3.035-10.13-8.896-10.5-9.5-.27-.44-.814-6.17-2-9.5-1.086-23.882 24.131-39.555 46-34"/><path fill="#056e88" d="M531.5 795c21.733 12.016 17.495 47.577-4 58 2.534-5.996 10.323-9.135 12.5-15.5 1.578-4.614 1.958-21.435 0-27-2.013-5.721-8.157-9.2-8.5-15.5"/><path fill="#8acee2" d="M529 802c-3.721 8.128-7.941 3.705-9 4-.072-.643.144-1.482 0-2 6.552 1.019 4.297-5.248 9-2"/><path fill="#0085aa" d="M476 820c.982.694 1.61 2.904 2 4 1.186 3.33 1.73 9.06 2 9.5.37.604 9.755 6.465 10.5 9.5 5.674-5.108 24.235-35.533 29.5-37 1.059-.295 5.279 4.128 9-4 7.154 4.94 9.98 18.685 7 26.5-.913 2.394-10.448 10.784-13 13-.375.326.604 2.71-.5 3.5-4.344 3.109-16.744 4.015-22 2-4.173 3.947 4.097 6.461 6 10-18.09-2.097-31.528-19.299-30.5-37"/><path fill="#6acfe0" d="M519 803c.62.439-.681 2.655-1.5 3-1.446-1.133-.15-4.168 1.5-3"/><path fill="#4b6e79" d="M583 872c-16.557 6.44-33.199 12.688-50.5 17l15.5 2c-25.84 4.906-55.978 3.508-82 0-5.569-8.332 3.996-17.757 6-26 38.101 5.779 55.116 1.176 90.5-11 3.662-1.26 23.659-11.256 25-11 2.833.54.701 2.643 2 4-.206-7.417 4.634-6.134 9.5-9-.249 13.301-19.028 19.01-16 34"/><path fill="#5b7e89" d="M472 865c-2.004 8.243-11.569 17.668-6 26-22.52-3.036-45.703-9.274-67-17-7.381-3.859-11.209-11.891-10-20.5.125-.889 4.949-10.281 5.5-10.5 1.866-.741 32.418 11.533 38 13 11.789 3.099 27.69 7.209 39.5 9"/></svg>