<svg xmlns="http://www.w3.org/2000/svg" width="1024" height="1024"><defs><linearGradient id="a" x1="441.794" x2="352.867" y1="189.803" y2="237.687" gradientUnits="userSpaceOnUse"><stop offset="0%" style="stop-color:#55badb"/><stop offset="100%" style="stop-color:#359bc4"/></linearGradient></defs><defs><linearGradient id="b" x1="588.48" x2="248.815" y1="420.832" y2="593.425" gradientUnits="userSpaceOnUse"><stop offset="0%" style="stop-color:#d7eff8"/><stop offset="100%" style="stop-color:#9bd8ec"/></linearGradient></defs><defs><linearGradient id="c" x1="345.55" x2="358.919" y1="488.849" y2="602.062" gradientUnits="userSpaceOnUse"><stop offset="0%" style="stop-color:#2394b4"/><stop offset="100%" style="stop-color:#01bbe4"/></linearGradient></defs><defs><linearGradient id="d" x1="389.117" x2="357.44" y1="470.837" y2="574.087" gradientUnits="userSpaceOnUse"><stop offset="0%" style="stop-color:#24284f"/><stop offset="100%" style="stop-color:#07789b"/></linearGradient></defs><defs><linearGradient id="e" x1="679.096" x2="645.478" y1="473.331" y2="574.913" gradientUnits="userSpaceOnUse"><stop offset="0%" style="stop-color:#24284f"/><stop offset="100%" style="stop-color:#077497"/></linearGradient></defs><defs><linearGradient id="f" x1="636.628" x2="653.915" y1="488.585" y2="603.29" gradientUnits="userSpaceOnUse"><stop offset="0%" style="stop-color:#2494b5"/><stop offset="100%" style="stop-color:#01b8e1"/></linearGradient></defs><defs><linearGradient id="g" x1="260.55" x2="347.608" y1="615.262" y2="717.129" gradientUnits="userSpaceOnUse"><stop offset="0%" style="stop-color:#64a1b7"/><stop offset="100%" style="stop-color:#3b87a0"/></linearGradient></defs><defs><linearGradient id="h" x1="365.524" x2="393.519" y1="666.202" y2="736.858" gradientUnits="userSpaceOnUse"><stop offset="0%" style="stop-color:#81adc1"/><stop offset="100%" style="stop-color:#4d8ba4"/></linearGradient></defs><path fill="#1b97ca" d="M561 157c15.608 12.167 29.189 27.318 41 43l-3 2c-14.107-18.751-30.746-34.147-51-46-60.023-35.128-134.404-40.199-199-14l-1-3c69.218-31.978 151.611-29.852 213 18"/><path fill="#7dcfea" d="m548 156 27 38c-18.749-15.821-43.529-27.621-66.5-36 18.082 10.322 32.381 24.101 47.5 38-3.665.688-3.721 4.346-4 7-5.195-6.126-10.948-10.816-17-16-26.896-23.037-62.105-40.596-98-43-23.522-1.576-54.765 2.049-77 10l-1-4c4.031-1.674 11.887-2.85 13.5-7-14.813.463-28.949 5.407-42.5 11 1.156-5.384 13.874-9.921 19-12 64.596-26.199 138.977-21.128 199 14m-113.5-26c-1.086.134-7.539.978-7 3 38.765-5.325 76.25 9.278 109.5 27.5-27.657-22.993-66.466-34.943-102.5-30.5"/><path fill="#f2fbfc" d="M434.5 130c36.034-4.443 74.843 7.507 102.5 30.5-33.25-18.222-70.735-32.825-109.5-27.5-.539-2.022 5.914-2.866 7-3"/><path fill="#0d588f" d="m348 139 1 3c-5.126 2.079-17.844 6.616-19 12-13.317 5.497-35.033 17.652-44 29h-1c19.492-19.952 37.692-32.308 63-44"/><path fill="#70daf8" d="M359 150c-25.458 10.57-51.046 19.111-73.5 36-2.627.244.062-2.446.5-3 8.967-11.348 30.683-23.503 44-29 13.551-5.593 27.687-10.537 42.5-11-1.613 4.15-9.469 5.326-13.5 7"/><path fill="#1e7db1" d="m437 144-1 3c-1.85-.215-3.254-.937-4-1-27.307-2.309-50.176 3.58-76 11-1.71-.901 3.765-2.916 4-3 22.235-7.951 53.478-11.576 77-10"/><path fill="#1998cb" d="m535 187-2 3c-14.523-12.367-39.108-26.317-57-33-12.938-4.833-26.176-8.391-40-10l1-3c35.895 2.404 71.104 19.963 98 43"/><path fill="#61bbda" d="m432 146 1 4c-14.436-2.156-30.683-2.196-44.5 2 52.391-3.075 102.47 20.444 141 54l-9.5-12c-3.561-7.397-10.906-13.278-17.5-18-6.346-4.544-23.847-11.254-27-14-2.907-2.531 1.012-2.303.5-5 17.892 6.683 42.477 20.633 57 33 18.896 16.09 35.505 39.688 44 63-14.238-2.996-30.52-6.011-45-7-45.178-57.294-108.068-94.448-183-83-3.518.538-7.532 1.226-11 2-.522-1.999 7.973-6.842 8.5-7 2.889-.864 2.614 2.113 3 2 1.899-.558 4.446-2.41 6.5-3 25.824-7.42 48.693-13.309 76-11"/><path fill="#85d3ec" d="M436 147c13.824 1.609 27.062 5.167 40 10 .512 2.697-3.407 2.469-.5 5 3.153 2.746 20.654 9.456 27 14 6.594 4.722 13.939 10.603 17.5 18-19.333-17.348-61.399-40.177-87-44l-1-4c.746.063 2.15.785 4 1"/><path fill="#f5fcfc" d="M433 150c25.601 3.823 67.667 26.652 87 44l9.5 12c-38.53-33.556-88.609-57.075-141-54 13.817-4.196 30.064-4.156 44.5-2"/><path fill="#46aacf" d="M360 154c-.235.084-5.71 2.099-4 3-2.054.59-4.601 2.442-6.5 3-.386.113-.111-2.864-3-2-.527.158-9.022 5.001-8.5 7-2.359.526-5.222 2.32-7.5 3-.545.163-.153-2.61-2-2-3.693 1.22-25.444 13.275-30 16-8.693 5.201-16.888 11.291-24.5 18-.882.629-3.824 1.434-5 3 2.386-8.683 10.149-14.011 16-20h1c-.438.554-3.127 3.244-.5 3 22.454-16.889 48.042-25.43 73.5-36z"/><path fill="#7bc0dd" d="M566 152c3.574 3.689 11.377 7.825 16 10l15 16.5c2.967 3.902 20.498 33.868 21 37 .242 1.511-.596 3.706-2 4.5-4.257-7.193-9-13.362-14-20-11.811-15.682-25.392-30.833-41-43 .43-4.263 1.124-4.531 5-5"/><path fill="#8be3fb" d="M586 155c7.218 3.623 13.994 7.96 21 12 19.96 14.438 38.735 30.523 51.5 52-17.828-18.728-36.341-37.175-59-50-5.511-3.119-11.981-4.403-17.5-7-4.623-2.175-12.426-6.311-16-10 6.74-.816 13.55 2.065 20 3"/><path fill="#03467a" d="M592 156c11.25 5.003 22.7 10.212 33 17 38.73 25.526 73.541 73.923 85 119 1.732 6.811 4.611 15.273 3 22-13.231-56.122-55.995-118.162-106-147-7.006-4.04-13.782-8.377-21-12 2.077.301 3.958.631 6 1"/><path fill="#3e9dc2" d="M599 202c14.833 19.716 26.977 43.42 33 67.5-17.513-5.453-35.025-12.58-53-16.5-4.937-17.955-14.998-35.849-27-50 .279-2.654.335-6.312 4-7 9.635 8.858 18.553 18.46 28.5 27l-17-24 30.5 20.5c-6.979-9.237-14.101-17.991-23-25.5l-27-38c20.254 11.853 36.893 27.249 51 46"/><path fill="#4ec6ed" d="M639 171c15.456 9.13 28.829 19.955 42 32l21.5 37c-15.307-21.305-35.182-47.401-58-61-3.696-2.203-16.045-9.318-19.5-6-10.3-6.788-21.75-11.997-33-17 19.862 3.593 28.812 6.511 47 15"/><path fill="#8ee7fc" d="M575 194c8.899 7.509 16.021 16.263 23 25.5L567.5 199l17 24c-9.947-8.54-18.865-18.142-28.5-27-15.119-13.899-29.418-27.678-47.5-38 22.971 8.379 47.751 20.179 66.5 36"/><path fill="#118abc" d="M532 246c-7.626-.521-16.237.012-24 0 .474-2.507-.266-3.888-1-6-6.595-18.988-57.359-52.346-76.5-58-18.628-5.503-48.311-2.85-67.5 1v-4c13.908-3.182 27.593-5.539 42-5.5-16.216-4.292-35.28-5.642-52-4.5-4.072-1.837-4.514-.619-4-6 74.932-11.448 137.822 25.706 183 83"/><path fill="#2f8eb4" d="M607 167c50.005 28.838 92.769 90.878 106 147-.25 1.043.716 2.9-1 3-20.97-16.73-39.614-26.672-63-39-2.507-1.322-13.642-5.816-14-6.5-.492-.94-1.338-15.902-3-21-2.36-7.24-11.761-23.337-16-30.5 1.404-.794 2.242-2.989 2-4.5-.502-3.132-18.033-33.098-21-37L582 162c5.519 2.597 11.989 3.881 17.5 7 22.659 12.825 41.172 31.272 59 50-12.765-21.477-31.54-37.562-51.5-52"/><path fill="#064682" d="M349 163c-.514 5.381-.072 4.163 4 6-28.829 1.969-55.913 14.541-79 31 7.612-6.709 15.807-12.799 24.5-18 4.556-2.725 26.307-14.78 30-16 1.847-.61 1.455 2.163 2 2 2.278-.68 5.141-2.474 7.5-3 3.468-.774 7.482-1.462 11-2"/><path fill="#1e86b2" d="M681 203c29.245 26.747 52.94 61.941 65 100l-2.5 12c-1.027.12-13.278-11.79-14.5-13.5-7.521-10.523-.317-18.94-19-9.5-11.459-45.077-46.27-93.474-85-119 3.455-3.318 15.804 3.797 19.5 6 22.818 13.599 42.693 39.695 58 61z"/><path fill="#002b5d" d="M696 209c19.169 20.924 34.835 43.864 48 69 4.111 14.157 9.221 29.331 11 44 1.151 9.494.59 18.538 1 28l-2-1c-.223-17.386-2.845-29.733-8-46-12.06-38.059-35.755-73.253-65-100-13.171-12.045-26.544-22.87-42-32 24.399 11.388 36.082 23.042 57 38"/><path fill="#0b598e" d="M363 179v4c-7.007 1.406-16.816 4.219-23 8-12.023 3.012-21.717 9.456-33 14 7.344-5.25 14.421-9.314 22-14 11.928-5.349 20.985-9.023 34-12"/><path fill="url(#a)" d="M507 240c-54.698-33.055-121.777-41.65-181-15-24.636 8.064-48.387 22.187-68 39l-2-5c24.691-27.58 59.635-59.504 96.5-68 7.696-1.774 24.364-1.498 29-3 .301-.098 1.981-1.499 1-2-13.923 1.114-28.862 1.583-42.5 5 6.184-3.781 15.993-6.594 23-8 19.189-3.85 48.872-6.503 67.5-1 19.141 5.654 69.905 39.012 76.5 58m-183.5-25c-13.559 1.285-43.44 23.312-53.5 33.5 17.293-13.782 37.448-24.144 56.5-33.5-.991.062-2.016-.093-3 0" style="fill:url(#a)"/>/&gt;<path fill="#2bbfee" d="m256 259-13 12.5c7.604-7.283 13.604-16.817 18-26.5 13.991-14.804 29.382-28.122 46-40 11.283-4.544 20.977-10.988 33-14 13.638-3.417 28.577-3.886 42.5-5 .981.501-.699 1.902-1 2-4.636 1.502-21.304 1.226-29 3-36.865 8.496-71.809 40.42-96.5 68"/><path fill="#0d79ae" d="M552 203c12.002 14.151 22.063 32.045 27 50-.599-.131-1.398.127-2 0-8.495-23.312-25.104-46.91-44-63l2-3c6.052 5.184 11.805 9.874 17 16"/><path fill="#0b3d6c" d="M329 191c-7.579 4.686-14.656 8.75-22 14-16.618 11.878-32.009 25.196-46 40-7.595 8.036-14.819 15.782-21 25 19.758-35.353 52.316-62.551 89-79"/><path fill="#194985" d="M274 200c-3.665 3.231-6.571 7.92-10.5 11-3.099-1.81 4.247-7.022 5.5-8 1.176-1.566 4.118-2.371 5-3"/><path fill="#076183" d="M602 200c5 6.638 9.743 12.807 14 20 4.239 7.163 13.64 23.26 16 30.5 1.662 5.098 2.508 20.06 3 21 .358.684 11.493 5.178 14 6.5-4.175-.294-3.03 5.638-4.5 7-1.798 1.666-8.97-6.838-9.5-2-78.329-32.313-176.525-32.346-254 3-.157-4.064-4.823 1.686-6 .5-.528-.532-2.311-9.799-3-11.5 3.509-1.739 9.711-2.436 9-7 18.034-1.048 44.1-12.139 65-16 5.843-1.079 14.898-3.387 20-4 10.904-1.31 22.01-1.674 33-2 2.98-.088 6.017-.005 9 0 7.763.012 16.374-.521 24 0 14.48.989 30.762 4.004 45 7 .602.127 1.401-.131 2 0 17.975 3.92 35.487 11.047 53 16.5-6.023-24.08-18.167-47.784-33-67.5z"/><path fill="#0978ad" d="M507 240c.734 2.112 1.474 3.493 1 6-2.983-.005-6.02-.088-9 0-41.172-33.757-93.347-37.682-144-26l-29 5c59.223-26.65 126.302-18.055 181 15"/><path fill="#258eba" d="M715 220c1.146.848 3.595 3.949 5 5-4.138 1.434.9 4.159 3 6 4.844 5.875 9.37 11.96 14 18-5.217 4.506 3.963 13.702 6 20.5.863 2.881.462 6.649 1 8.5-13.165-25.136-28.831-48.076-48-69 5.407 3.866 12.556 6.232 19 11"/><path fill="#3a9fc5" d="M499 246c-10.99.326-22.096.69-33 2-22.935-20.255-55.072-20.831-84-19-7.707.488-13.295.807-21 2 .146-8.083-10.452-1.315-11.5-2-1.21-.791.206-3.161-1-4-2.209-1.537-13.454 6.239-13.5 0 6.431-1.98 13.427-3.484 20-5 50.653-11.682 102.828-7.757 144 26"/><path fill="#41c4ea" d="M323.5 215c.984-.093 2.009.062 3 0-19.052 9.356-39.207 19.718-56.5 33.5 10.06-10.188 39.941-32.215 53.5-33.5"/><path fill="#094072" d="M355 220c-6.573 1.516-13.569 3.02-20 5-48.909 15.058-61.679 30.355-98 62 5.081-8.802 13.377-16.465 21-23 19.613-16.813 43.364-30.936 68-39z"/><path fill="#042c5a" d="M796 313c-12.402-30.605-49.788-68.382-76-88-1.405-1.051-3.854-4.152-5-5 35.522 21.1 67.149 53.545 81 93"/><path fill="#27b8e8" d="M361 231c-20.693 3.204-36.11 8.599-55 17-38.486 17.116-63.946 40.217-91 72 4.334-11.081 9.366-21.545 15-32l.5 5c1.524-3.739 4.284-4.069 6.5-6 36.321-31.645 49.091-46.942 98-62 .046 6.239 11.291-1.537 13.5 0 1.206.839-.21 3.209 1 4 1.048.685 11.646-6.083 11.5 2"/><path fill="#0b678c" d="M796 313c13.555 33.451 9.772 75.484 2 110-8.23-16.32-18.593-31.998-29-47 14.37-55.493-3.748-107.961-46-145-2.1-1.841-7.138-4.566-3-6 26.212 19.618 63.598 57.395 76 88"/><path fill="#04679c" d="M466 248c-5.102.613-14.157 2.921-20 4-15.692-14.053-43.308-17.367-64-17v-6c28.928-1.831 61.065-1.255 84 19"/><path fill="#02487e" d="M382 229v6c-10.987.195-22.225 2.064-33 4-11.817 2.123-23.507 5.617-35 9-1.892.557-9.439 3.757-10 2.5l2-2.5c18.89-8.401 34.307-13.796 55-17 7.705-1.193 13.293-1.512 21-2"/><path fill="#002149" d="M769 376c-.081-.116-.463.172-2-2 1.815-8.346 5.234-20.873 3-29 3.482-35.238-12.23-68.905-33-96-4.63-6.04-9.156-12.125-14-18 42.252 37.039 60.37 89.507 46 145"/><path fill="#1b88b4" d="M382 235c20.692-.367 48.308 2.947 64 17-20.9 3.861-46.966 14.952-65 16-37.328 2.17-66.088 2.222-101 19-.53-1.051-7.159-.156-7.5 0-24.902 11.385-43.722 34.574-62.5 52.5-2.76 2.635-1.886.823-2-1.5.353-1.156 1.76-3.283 2-4 .653-.161 1.474-.641 2-1 14.351-9.798 33.188-34.602 47.5-47 28.104-24.344 51.098-34.94 87-44 .958-.242 4.522-1.115 2.5-3 10.775-1.936 22.013-3.805 33-4m-9.5 10c-37.929 1.459-75.838 18.883-105.5 41.5 38.201-23.043 81.765-35.896 126.5-38.5 1.316-2.306-8.207-2.934-9-3-3.633-.301-8.29-.143-12 0"/><path fill="#1cb6e8" d="M212 333c23.35-38.216 61.245-66.621 102-85 11.493-3.383 23.183-6.877 35-9 2.022 1.885-1.542 2.758-2.5 3-35.902 9.06-58.896 19.656-87 44-14.312 12.398-33.149 37.202-47.5 47"/><path fill="#1388b7" d="m256 259 2 5c-7.623 6.535-15.919 14.198-21 23-2.216 1.931-4.976 2.261-6.5 6l-.5-5c3.776-7.007 5.273-10.949 10-18 6.181-9.218 13.405-16.964 21-25-4.396 9.683-10.396 19.217-18 26.5z"/><path fill="#1fb6e9" d="M372.5 245c3.71-.143 8.367-.301 12 0 .793.066 10.316.694 9 3-44.735 2.604-88.299 15.457-126.5 38.5 29.662-22.617 67.571-40.041 105.5-41.5"/><path fill="#02305b" d="m306 248-2 2.5c.561 1.257 8.108-1.943 10-2.5-40.755 18.379-78.65 46.784-102 85-.526.359-1.347.839-2 1 1.597-4.776 3.168-9.314 5-14 27.054-31.783 52.514-54.884 91-72"/><path fill="#117ba4" d="M770 345c-1.257-4.573-10.189-20.721-15-23-1.779-14.669-6.889-29.843-11-44-.538-1.851-.137-5.619-1-8.5-2.037-6.798-11.217-15.994-6-20.5 20.77 27.095 36.482 60.762 33 96"/><path fill="url(#b)" d="M635 283c11.605 4.787 22.122 10.841 33 17-36.878-17.714-76.459-29.173-117.5-33-2.692-.348-.838 4.389-.5 5 1.277 2.31 27.977 7.492 32.5 9 6.224 2.074 12.754 6.017 18.5 8l-5 2c-86.649-30.009-175.164-12.521-249.5 38-19.492 13.247-43.805 30.386-55 51 21.698-23.083 54.556-42.858 83-57 36.156-17.976 121.141-43.281 160-33 4.322 1.144 2.656 2.167 4.5 5-5.124 17.437-6.076 31.09-14 49-5.748 12.992-14.88 26.905-21 41-11.317 26.065-19.731 51.212-26 79-11.88-23.507-29.813-40.196-53-52-61.911-31.519-136.491-9.213-167 54-12.066 24.999-15.168 45.075-11 72-2.915 1.045-3.079 10.149-3 12.5 1.83 54.563 48.669 102.541 102 109.5-11.503 21.032-12.217 45.634-15 69-70.755-55.527-103.663-143.579-113-231 7.153-45.297 28.875-90.464 58-125.5 5.717-6.877 32.167-30.968 34-35 1.291-2.84-1.236-.23-1-3.5 21.577-18.6 45.96-36.12 72-48 77.475-35.346 175.671-35.313 254-3" style="fill:url(#b)"/>/&gt;<path fill="#d1dfeb" d="M668 300c18.318 10.371 36.262 21.888 52 36 38.513 34.535 67.886 80.495 83 130-1.393 3.711-4.792-3.126-5-3.5-2.483-4.479-14.557-35.192-16.5-35.5-7.768 7.101-21.455 6.416-26.5 16-9.57-11.564-21.956-20.913-35-28-33.585-18.247-66.3-19.419-103-10 3.938-2.046 7.973-2.778 12-4.5-7.772-35.457-37.968-48.698-67.5-62.5-1.594-.745-2.76-3.931-3-4-2.342-.671-28.579 9.613-33.5 10 7.924-17.91 8.876-31.563 14-49 .312-1.06-.582-3.328.5-4 38.427 2.865 75.729 12.852 111 28-16.206-12.01-35.361-21.372-54.5-28l5-2c34.166 11.791 69.832 21.073 100.5 41 8.954.91-5.717-8.478-8-10-26.98-17.982-75.196-31.132-107-40-11.88-3.313-24.284-6.127-36.5-8-.338-.611-2.192-5.348.5-5 41.041 3.827 80.622 15.286 117.5 33"/><path fill="#00376d" d="M381 268c.711 4.564-5.491 5.261-9 7-5.852 2.9-12.232 5.123-18 8-17.175-5.66-35.91-2.818-53 2-44.671 12.593-75.333 45.105-97 84.5-.338.614-2.639 6.06-4 2.5.094-.979.742-3.386 1-5 20.988-33.74 42.165-62.298 79-80 34.912-16.778 63.672-16.83 101-19"/><path fill="#fbfbfc" d="M601 289c-5.746-1.983-12.276-5.926-18.5-8-4.523-1.508-31.223-6.69-32.5-9 12.216 1.873 24.62 4.687 36.5 8 31.804 8.868 80.02 22.018 107 40 2.283 1.522 16.954 10.91 8 10-30.668-19.927-66.334-29.209-100.5-41"/><path fill="#0e5168" d="M381 286c-26.04 11.88-50.423 29.4-72 48-142.802 123.097-132.304 322.479 17 435 43.171 32.535 93.785 54.904 148 61l-1 11c-8.33.871-17.367 4.703-25 8-.492-2.801-1.305-11.819-3.5-13-2.25-1.211-22.357-3.84-26.5-4-1.588-1.214-2.122-1.429-4-2-85.322-25.932-152.773-85.275-191-165.5-2.926-6.141-10.23-31.085-14-33.5 3.093.957-.45-3.839-1-6-6.526-25.635-10.461-51.44-11-78-.311-15.298.111-29.821 2-45 1.825-14.668 6.554-36.927 11-51 .522-1.654 1.399-3.285 2-5 17.177-49.038 49.971-92.492 89-126 4.068-.949 25.384-19.863 30-24 8.674-1.857 15.41-9.215 23-13 5.768-2.877 12.148-5.1 18-8 .689 1.701 2.472 10.968 3 11.5 1.177 1.186 5.843-4.564 6-.5"/><path fill="#f9fcfd" d="M596 291c19.139 6.628 38.294 15.99 54.5 28-35.271-15.148-72.573-25.135-111-28-1.082.672-.188 2.94-.5 4-1.844-2.833-.178-3.856-4.5-5-38.859-10.281-123.844 15.024-160 33-28.444 14.142-61.302 33.917-83 57 11.195-20.614 35.508-37.753 55-51 74.336-50.521 162.851-68.009 249.5-38"/><path fill="#0e5168" d="M649 278c23.386 12.328 42.03 22.27 63 39 5.518 4.403 10.756 9.275 16 14-1.252.456-4.137 5.905-4.5 6-.478.125-3.622-5.328-3.5-1-15.738-14.112-33.682-25.629-52-36-10.878-6.159-21.395-12.213-33-17 .53-4.838 7.702 3.666 9.5 2 1.47-1.362.325-7.294 4.5-7"/><path fill="#117fa8" d="M354 283c-7.59 3.785-14.326 11.143-23 13-8.822 1.889-20.945.959-31 3-1.843-10.489-22.161 2.622-29 1.5l30-15.5c17.09-4.818 35.825-7.66 53-2"/><path fill="#0fa0d3" d="M300 299c-38.571 7.831-86.877 42.722-100 81 .175-2.628-.25-5.387 0-8 1.361 3.56 3.662-1.886 4-2.5 21.667-39.395 52.329-71.907 97-84.5l-30 15.5c6.839 1.122 27.157-11.989 29-1.5"/><path fill="#0fa9dc" d="M280 287c-36.835 17.702-58.012 46.26-79 80 1.563-9.789 4.106-19.533 7-29 .114 2.323-.76 4.135 2 1.5 18.778-17.926 37.598-41.115 62.5-52.5.341-.156 6.97-1.051 7.5 0"/><path fill="#0f6d92" d="M746 303c5.155 16.267 7.777 28.614 8 46 .022 1.736 1.009 6.705-1.5 7-7.639-8.876-15.807-17.167-24.5-25-5.244-4.725-10.482-9.597-16-14 1.716-.1.75-1.957 1-3 1.611-6.727-1.268-15.189-3-22 18.683-9.44 11.479-1.023 19 9.5 1.222 1.71 13.473 13.62 14.5 13.5z"/><path fill="#002c61" d="M331 296c-4.616 4.137-25.932 23.051-30 24-5.358 1.25-15.754-.35-22.5 1-33.717 6.748-63.644 35.176-79 65-1.299-.787.077-4.767.5-6 13.123-38.278 61.429-73.169 100-81 10.055-2.041 22.178-1.111 31-3"/><path fill="#096383" d="M770 345c2.234 8.127-1.185 20.654-3 29-9.13-12.902-10.288-7.553-11-24-.41-9.462.151-18.506-1-28 4.811 2.279 13.743 18.427 15 23"/><path fill="#063a4b" d="m754 349 2 1c.712 16.447 1.87 11.098 11 24 1.537 2.172 1.919 1.884 2 2 10.407 15.002 20.77 30.68 29 47 4.99 9.896 7.514 21.147 13 31 1.044 1.874.392 4.641 3 6-5.882 3.776 4.199 3.669 5 5.5 4.161 9.507-2.953 40.582 14 38l-3-40.5c1.588.441 3.515.607 5 1-.895 1.436-1.166 2.23-1 4 1.032 10.991 2.151 21.983 3 33-1.712.403-.445 3.17-2.5 4-.565.228-1.711-.152-2.5 0-2.008.386-7.959-.727-9 .5 2.212 13.74 2.239 27.625 2 41.5-.243 14.097-.889 26.049-3 40-2.185 14.438-6.694 33.009-11 47-.738 2.398-1.484 6.496-2 8-30.733 89.485-112.922 163.281-202 190-.306.092-.694-.091-1 0-.174.052-.625-1.829-3.5-1-4 1.154-25.064 5.049-26 6-.666.677-1.336 7.354-1.5 9-.274-2.736-1.445-6.091-1.5-9-16.244 1.879-34.252 4.517-50.5 5-16.437.488-33.822-2.692-50-1l1-11c54.963 6.181 109.536-.768 160-23 101.719-44.811 177.224-143.811 181-257 .639-19.143-1.359-39.272-5-58-1.718-8.839-4.379-17.415-7-26-15.114-49.505-44.487-95.465-83-130-.122-4.328 3.022 1.125 3.5 1 .363-.095 3.248-5.544 4.5-6 8.693 7.833 16.861 16.124 24.5 25 2.509-.295 1.522-5.264 1.5-7"/><path fill="#afe3f4" d="M218 498c-16.313 103.305 27.473 202.263 109 265l1 2-2 4c-149.304-112.521-159.802-311.903-17-435-.236 3.27 2.291.66 1 3.5-1.833 4.032-28.283 28.123-34 35-29.125 35.036-50.847 80.203-58 125.5"/><path fill="#b6cddd" d="M617 405c-4.676 2.43-12.524 5.822-18 9-.252-1.498.59-5.228-.5-6-1.755-1.243-36.139 1.649-43 1-19.538-1.847-37.956-9.847-51.5-24 6.12-14.095 15.252-28.008 21-41 4.921-.387 31.158-10.671 33.5-10 .24.069 1.406 3.255 3 4 29.532 13.802 59.728 27.043 67.5 62.5-4.027 1.722-8.062 2.454-12 4.5"/><path fill="#91b7c7" d="M599 414c-24.125 14.002-42.034 33.436-53 59-8.967 20.903-13.919 40.885-10 64-.032-.105-1.712.377-2-.5-.553-1.683-.661-9.908-1.5-10.5l-41.5 1c1.201-22.563-2.869-42.953-13-63 6.269-27.788 14.683-52.935 26-79 13.544 14.153 31.962 22.153 51.5 24 6.861.649 41.245-2.243 43-1 1.09.772.248 4.502.5 6"/><path fill="#152f33" d="m425 412-1 1c-59.925-30.977-136.557-6.386-165 55l-1-2c30.509-63.213 105.089-85.519 167-54"/><path fill="#f3f9fa" d="M424 413c12.404 6.412 24.69 16.65 34 27-72.649-72.822-197.386-30.849-208 71.5l-2-1.5c.879-13.796 5.197-29.477 11-42 28.443-61.386 105.075-85.977 165-55"/><path fill="#163234" d="m720 415-1 1c-61.313-33.933-144.821-7.1-172 58l-1-1c10.966-25.564 28.875-44.998 53-59 5.476-3.178 13.324-6.57 18-9 36.7-9.419 69.415-8.247 103 10"/><path fill="#f5fafb" d="M719 416c17.971 9.946 37.646 30.766 47 49-12.457-16.056-24.032-27.91-41-39-65.693-42.937-145.087-16.037-177 53.5L538 510c1.049-10.637 4.896-26.169 9-36 27.179-65.1 110.687-91.933 172-58"/><path fill="#bbdde7" d="M458 440c7.061 7.85 13.277 16.504 18 26-4.78.392-12.181-19.096-15.5-19l-9.5 10c-1.3-1.705-6.401-7.413-8-9-18.87-24.076-50.418-34.733-80.5-32-4.366.397-1.517.36-.5 2-62.435 2.899-109.044 65.236-93 126 1.273 4.823 3.066 9.424 5 14-5.528-5.831-9.972 3.593-17 5-7.502-17.873-10.246-33.454-9-53l2 1.5c10.614-102.349 135.351-144.322 208-71.5"/><path fill="#bedee7" d="M725 426c-2.25 3.703-6.021 6.37-5 11-19.809-15.007-39.764-19.903-64.5-19-1.826.067-4.484-.889-2.5 2-56.135 2.567-100.784 52.123-97 108 .891 13.161 3.403 23.15 9 35-9.081-15.139-6.217-7.277-20-2-6.711-17.86-8.892-31.802-7-51l10-30.5c31.913-69.537 111.307-96.437 177-53.5"/><path fill="#21424a" d="M478 464c10.131 20.047 14.201 40.437 13 63-.05.948-.92 1.029-1 2-.379 4.6-.084 8.158-1 13-5.761 30.451-26.113 60.229-52 77-20.998 13.604-42.987 19.792-68 20-60.269.502-112.688-40.854-122-101-4.168-26.925-1.066-47.001 11-72l1 2c-5.803 12.523-10.121 28.204-11 42-1.246 19.546 1.498 35.127 9 53 14.853 35.388 51.852 64.616 90 70 48.749 6.88 98.328-13.269 124-56 20.636-34.349 22.964-74.885 5-111-4.723-9.496-10.939-18.15-18-26-9.31-10.35-21.596-20.588-34-27l1-1c23.187 11.804 41.12 28.493 53 52"/><path fill="#213e46" d="M755 443c16.762 20.255 20.788 37.1 26 62 .679 3.243 1.465 6.759 2 10l-5 32.5C748.962 660.817 595.027 674.71 544 570c-1.389-4.119-1.565-8.179-4-12-2.26-6.138-2.256-15.279-4-21-3.919-23.115 1.033-43.097 10-64l1 1c-4.104 9.831-7.951 25.363-9 36-1.892 19.198.289 33.14 7 51 57.323 152.557 295.392 49.014 221-96-9.354-18.234-29.029-39.054-47-49l1-1c13.044 7.087 25.43 16.436 35 28"/><path fill="#f3f8f8" d="M443 448c-20.462-20.306-52.406-31.328-81-30-1.017-1.64-3.866-1.603.5-2 30.082-2.733 61.63 7.924 80.5 32"/><path fill="#194f60" d="M362 418c28.594-1.328 60.538 9.694 81 30 1.599 1.587 6.7 7.295 8 9 12.245 16.061 19.562 37.966 20 58h-9c-11.563-126.17-205.548-104.57-186 26l-7 3c-16.044-60.764 30.565-123.101 93-126"/><path fill="#f3f9f9" d="M720 437c4.979 3.772 7.942 7.503 12 12-21.641-19.626-49.498-30.349-79-29-1.984-2.889.674-1.933 2.5-2 24.736-.903 44.691 3.993 64.5 19"/><path fill="#194e5e" d="M653 420c29.502-1.349 57.359 9.374 79 29 15.734 17.436 27.265 37.024 29 61l-10 2c-15.242-115.545-187.69-99.728-187 15l-8 1c-3.784-55.877 40.865-105.433 97-108"/><path fill="#91bcca" d="M766 465c74.392 145.014-163.677 248.557-221 96 13.783-5.277 10.919-13.139 20 2 6.585 13.941 16.135 24.516 28 34 2.685 2.146 5.078 4.139 8 6 46.189 39.27 128.991 16.942 149-40 8.8-16.971 12.39-33.787 11-53-1.735-23.976-13.266-43.564-29-61-4.058-4.497-7.021-8.228-12-12-1.021-4.63 2.75-7.297 5-11 16.968 11.09 28.543 22.944 41 39"/><path fill="#b6cddd" d="M803 466c2.621 8.585 5.282 17.161 7 26-4.324 1.006 1.685 8.603-.5 10-1.207.772-24.861 2.311-28.5 3-5.212-24.9-9.238-41.745-26-62 5.045-9.584 18.732-8.899 26.5-16 1.943.308 14.017 31.021 16.5 35.5.208.374 3.607 7.211 5 3.5"/><path fill="#031419" d="M462 515c.399 4.35.221 10.548 0 15h-3c.729-15.424-.81-22.81-6-37-13.581-37.128-49.556-60.249-89-59-15.185.481-33.158 5.052-45 15-6.244.625-9.075 5.526-13 9-26.537 23.493-36.482 62.718-24 96l-2 1c-1.55-4.361-3.319-9.448-4-14-19.548-130.57 174.437-152.17 186-26"/><path fill="#021319" d="M751 512c1.104 8.368.81 15.603 0 24l-2-3c.821-14.695-.551-22.339-5-36-11.211-34.427-44.743-59.281-81-61-17.239-.817-38.428 3.457-52 14-9.376.807-10.98 6.237-16 11-26.366 25.018-35.429 59.127-23 94l-3 1c-2.461-7.716-4.952-21.023-5-29-.69-114.728 171.758-130.545 187-15"/><path fill="#2283a0" d="M364 434c1.367 2.069 2.318 15.699 3 16.5.976 1.146 7.069-.533 7 3.5-11.132-.53-23.455.83-33 7-3.646-6.535-14.267-12.774-22-12 11.842-9.948 29.815-14.519 45-15"/><path fill="#277288" d="m453 493-.5 8-16.5 1c-7.64-27.39-33.757-46.655-62-48 .069-4.033-6.024-2.354-7-3.5-.682-.801-1.633-14.431-3-16.5 39.444-1.249 75.419 21.872 89 59"/><path fill="#22829d" d="m663 436 3 20c-12.095-.861-24.099.398-35 6-3.261-5.895-13.155-12.589-20-12 13.572-10.543 34.761-14.817 52-14"/><path fill="#287187" d="m744 497-18 7c-7.343-26.724-32.596-46.049-60-48l-3-20c36.257 1.719 69.789 26.573 81 61"/><path fill="#0a1819" d="M212 446c-.601 1.715-1.478 3.346-2 5-5.204 1.697-10.651 2.85-16 4-.6.129-1.402-.131-2 0-3.652.802-15.105 2.826-17.5 4-8.283 4.06-12.065 36.292-13.5 46-1.668 11.285-2.695 20.51-3 32-.105 3.955-.117 7.019 0 11 .338 11.521 6.182 58.449 12 66.5 3.114 4.309 31.368 9.295 38 10.5.55 2.161 4.093 6.957 1 6-6.52-4.177-36.46-8.319-41-12.5-2.67-2.459-12.068-39.242-13-45-4.008-24.759-2.494-92.587 12-113 3.587-5.052 37.178-11.304 45-14.5"/><path fill="#9bc7d5" d="M476 466c17.964 36.115 15.636 76.651-5 111-3.429-4.067-8.68-5.722-14-6 .205-.411 2.159-4.78 1-5 9.275-15.872 13.401-32.692 13-51-.438-20.034-7.755-41.939-20-58l9.5-10c3.319-.096 10.72 19.392 15.5 19"/><path fill="#fefefe" d="M341 461c.615 1.103 1.701 2.918 2 4 5.668 20.5-10.81 42.462-31 30-.181-.111-2.67-2.623-3-3-7.793-8.897-7.461-23.82-3-34 3.925-3.474 6.756-8.375 13-9 7.733-.774 18.354 5.465 22 12m270-11c6.845-.589 16.739 6.105 20 12 .615 1.112 1.699 2.912 2 4 5.971 21.565-10.921 41.782-32 29-.455-1.74-1.951-1.867-2-2-4.304-11.76-9.328-17.874-4-32 5.02-4.763 6.624-10.193 16-11"/><path fill="#95bec9" d="M199 502h-9c1.167-15.693 1.46-31.482 4-47 5.349-1.15 10.796-2.303 16-4-4.446 14.073-9.175 36.332-11 51"/><path fill="#081216" d="M374 454c28.243 1.345 54.36 20.61 62 48 2.688 9.635 3.884 17.825 3 28-.709 8.165-3.513 15.668-7 23 21.17-52.542-19.259-103.661-75.5-94-3.486.599-11.143 2.912-13.5 6-.299-1.082-1.385-2.897-2-4 9.545-6.17 21.868-7.53 33-7"/><path fill="#091517" d="M809 642c.516-1.504 1.262-5.602 2-8 6.658-1.403 36.611-6.049 40-9.5 1.669-1.699.866-3.507 1-5.5 4.481-5.777 8.731-28.684 10-37 2.223-14.563 2.571-26.384 2-41-.176-4.494-1.735-30.981-3-33-.514-.82-.464-.619-1-1-.17-3.329-.365-7.803-1-11-1.153-5.802-6.2-26.571-10.5-29-.93-.526-11.05-2.352-13.5-3-1.485-.393-3.412-.559-5-1-4.013-1.114-12.889-1.379-16-3-2.608-1.359-1.956-4.126-3-6 7.02 3.302 39.146 8.785 43 12.5 2.735 2.636 12.046 38.222 13 44 3.91 23.692 2.136 94.969-12 114-4.669 6.285-37.632 12.114-46 17.5"/><path fill="#e2f1f4" d="m185 501-24 4c1.435-9.708 5.217-41.94 13.5-46 2.395-1.174 13.848-3.198 17.5-4-1.876 15.201-5.533 30.801-7 46"/><path fill="#628792" d="M194 455c-2.54 15.518-2.833 31.307-4 47-1.133 15.237-3.012 29.56-3 45 .01 12.882 2.17 26.122 2 39a227 227 0 0 0-4-1c1.552-12.319-1.743-24.779-2-37-.046-2.195-.002-4.764 0-7 .009-12.935.762-27.174 2-40 1.467-15.199 5.124-30.799 7-46 .598-.131 1.4.129 2 0"/><path fill="#091217" d="M666 456c27.404 1.951 52.657 21.276 60 48 3.168 11.529 3.522 16.951 2 29-1.261 9.981-4.616 19.507-10 28-2.015 3.179-6.17 8.835-10 10 .229-.224 3.198-4.022 4-5 45.688-55.751-16.516-128.06-79-100-.301-1.088-1.385-2.888-2-4 10.901-5.602 22.905-6.861 35-6"/><path fill="url(#c)" d="M309 492c-20.916 32.667-4.771 76.24 29 92 28.538 13.318 62.94 4.958 85-17 .862.609.621 2.965 1 4-5.177 15.39-23.11 23.354-31 36-28.115 8.109-56.412 2.994-80-14-12.158-8.759-25.717-24.914-31-39-12.482-33.282-2.537-72.507 24-96-4.461 10.18-4.793 25.103 3 34m86.5 100c-2.413.938-1.935 5.115 1 5 2.708-.106 3.298-6.67-1-5" style="fill:url(#c)"/>/&gt;<path fill="url(#d)" d="M432 553c-2.251 4.732-5.292 10.309-9 14-22.06 21.958-56.462 30.318-85 17 27.86 5.246 4.248-2.002-3.5-7-20.254-13.066-31.35-36.335-28.5-60.5.826-7.006 5.822-14.165 6-21.5 20.19 12.462 36.668-9.5 31-30 2.357-3.088 10.014-5.401 13.5-6 56.241-9.661 96.67 41.458 75.5 94m-33 1c-11.881 3.142-1.281 23.823 9 15l4.5 2 1.5-2.5c3.105-6.938-3.29-17.357-10.5-18.5-.31-.049-7.086 1.152-4.5 4" style="fill:url(#d)"/>/&gt;<path fill="url(#e)" d="M712 566c-3.337-6.097 2.171-13.531-6.5-17 1.691 5.208-2.444 7.997-2.5 8.5-.035.314 2.06 5.69 2 6-2.323 12.023-11.383 15.459-20 22.5-7.787 3.496-11.296 4.957-20 6-4.937.277-6.076-3.893-6.5-4-7.121-1.804-15.34-.91-24-4-3.225-1.151-9.466-4.976-12.5-7-16.765-11.184-27.71-32.203-27-52.5.324-9.257 7.727-22.893 6-29.5 21.079 12.782 37.971-7.435 32-29 62.484-28.06 124.688 44.249 79 100m-22.5-13c-8.622 1.981-7.444 19.556 5 17 9.7-1.992 7.644-19.905-5-17" style="fill:url(#e)"/>/&gt;<path fill="#a3ccd6" d="M814 460c3.111 1.621 11.987 1.886 16 3l3 40.5c-16.953 2.582-9.839-28.493-14-38-.801-1.831-10.882-1.724-5-5.5"/><path fill="url(#f)" d="M599 493c-20.424 30.6-7.55 70.106 22 89 15.34 9.808 25.705 12.192 44 10 8.704-1.043 12.213-2.504 20-6 7.653-3.436 17.013-9.146 23-15 3.83-1.165 7.985-6.821 10-10h1c-.168 16.755-14.218 29.359-27 38.5 4.529-.348 26.859-10.968 28-13.5l1 1c-48.356 42.358-126.555 30.973-149-32-12.429-34.873-3.366-68.982 23-94-5.328 14.126-.304 20.24 4 32m86.5 100c-1.502.111-4.108 5.001-1 6 2.712.872 5.561-6.336 1-6" style="fill:url(#f)"/>/&gt;<path fill="#93bdc7" d="M859 496c-3.471 2.271-5.997 2.562-10 3-8.973-5.696-6.386-17.595-12-25-.392-1.779.512-6.148-3-6-.166-1.77.105-2.564 1-4 2.45.648 12.57 2.474 13.5 3 4.3 2.429 9.347 23.198 10.5 29"/><path fill="#d8edf4" d="M837 474c1.833 8.324 2.5 16.65 4 25 .26 1.445-1.567 3.103.5 5 2.759.77 17.494 2.285 18.5 3 .536.381.486.18 1 1l-22-3c-.015-.223-1.688.051-2-4-.849-11.017-1.968-22.009-3-33 3.512-.148 2.608 4.221 3 6"/><path fill="#64909e" d="M849 499c-2.299.252-5.778.604-8 0-1.5-8.35-2.167-16.676-4-25 5.614 7.405 3.027 19.304 12 25"/><path fill="#031318" d="M312 495c-.178 7.335-5.174 14.494-6 21.5-2.85 24.165 8.246 47.434 28.5 60.5 7.748 4.998 31.36 12.246 3.5 7-33.771-15.76-49.916-59.333-29-92 .33.377 2.819 2.889 3 3"/><path fill="#91b7c7" d="M810 492c3.641 18.728 5.639 38.857 5 58l-5-1c.153-10.037.711-20.582-1-30.5-4.813 14.909-7.541 30.527-12 45.5-4.357 3.539-6.79.425-12 1 3.647-21.449 1.34-29.771-2-50-.535-3.241-1.321-6.757-2-10 3.639-.689 27.293-2.228 28.5-3 2.185-1.397-3.824-8.994.5-10"/><path fill="#2283a0" d="M459 530c-.222 4.693-1.098 8.468-2 13 1.694-13.282-9.677-6.484-18-13 .884-10.175-.312-18.365-3-28l16.5-1 .5-8c5.19 14.19 6.729 21.576 6 37"/><path fill="#031419" d="M601 495c1.727 6.607-5.676 20.243-6 29.5-.71 20.297 10.235 41.316 27 52.5l-1 5c-29.55-18.894-42.424-58.4-22-89 .049.133 1.545.26 2 2"/><path fill="#a5cedc" d="M859 496c.635 3.197.83 7.671 1 11-1.006-.715-15.741-2.23-18.5-3-2.067-1.897-.24-3.555-.5-5 2.222.604 5.701.252 8 0 4.003-.438 6.529-.729 10-3"/><path fill="#22829d" d="M744 497c4.449 13.661 5.821 21.305 5 36-.286 5.124-1.755 10.039-3 15 3.301-15.558-7.061-10.167-18-15 1.522-12.049 1.168-17.471-2-29z"/><path fill="url(#g)" d="M331 729c.141.683.643 1.416 1 2l-5 32c-81.527-62.737-125.313-161.695-109-265 9.337 87.421 42.245 175.473 113 231" style="fill:url(#g)"/>/&gt;<path fill="#7caab7" d="M185 501c-1.238 12.826-1.991 27.065-2 40l-25-4c.305-11.49 1.332-20.715 3-32z"/><path fill="#547b86" d="M839 505c.827 12.249.719 25.617 1 38 .079 3.483-1.047 6.929-1 11l-2.5 7-1.5-10c.035-1.323-.019-2.676 0-4 .194-13.585 1.066-29.018-3-42 .789-.152 1.935.228 2.5 0 2.055-.83.788-3.597 2.5-4 .312 4.051 1.985 3.777 2 4"/><path fill="#83adb8" d="M199 502c-1.889 15.179-2.311 29.702-2 45h-10c-.012-15.44 1.867-29.763 3-45z"/><path fill="#cbe5ee" d="M832 505c4.066 12.982 3.194 28.415 3 42h-10c.239-13.875.212-27.76-2-41.5 1.041-1.227 6.992-.114 9-.5"/><path fill="#74a3b1" d="M861 508c1.265 2.019 2.824 28.506 3 33l-24 2c-.281-12.383-.173-25.751-1-38z"/><path fill="#30687b" d="M761 510c1.39 19.213-2.2 36.029-11 53-1.753 3.38-3.878 5.934-6 9-7.826 3.351 2.771-13.11 4-17.5 1.725-6.16 2.386-12.138 3-18.5.81-8.397 1.104-15.632 0-24z"/><path fill="#356c7f" d="M471 515c.401 18.308-3.725 35.128-13 51-2.594 4.438-6.619 9.087-10 13l-1-4c8.9-13.007 14.213-29.17 15-45 .221-4.452.399-10.65 0-15z"/><path fill="#375b69" d="M783 515c3.34 20.229 5.647 28.551 2 50-2.671 15.711-11.435 36.275-21 49-35.579 47.334-104.139 58.473-156 33-35.136-17.258-51.882-41.051-64-77 51.027 104.71 204.962 90.817 234-22.5z"/><path fill="#275568" d="M810 549c-1.624 106.881-82.749 215.145-180 256-80.858 33.969-179.605 28.138-257-12 6.72-6.785 6.246-19.84 8-29 25.403 12.097 52.543 22.351 80.5 27 2.487.414 12.639 2.199 14.5 0 22.849 6.668 44.298 7.972 67 0h22.5c95.305-17.481 171.107-82.989 210.5-170 8.668-19.145 14.988-36.814 21-57 4.459-14.973 7.187-30.591 12-45.5 1.711 9.918 1.153 20.463 1 30.5"/><path fill="#7da8bb" d="M536 537c1.744 5.721 1.74 14.862 4 21-.196-.308-2.305-3.004-2.5-3L494 569c-.052-11.768-1.657-23.628-2-35.5-.053-1.825 1.002-4.937-2-4.5.08-.971.95-1.052 1-2l41.5-1c.839.592.947 8.817 1.5 10.5.288.877 1.968.395 2 .5"/><path fill="#30687b" d="M564 527c.048 7.977 2.539 21.284 5 29 1.86 5.833 7.464 16.356 11 21.5 2.473 3.598 15.127 15.431 15.5 16.5.461 1.32-1.45 2.629-2.5 3-11.865-9.484-21.415-20.059-28-34-5.597-11.85-8.109-21.839-9-35z"/><path fill="#66bfd9" d="M494 569c.151 34.374-6.164 62.452-29 89-21.596 2.383-29.859 29.764-46.5 39-8.593 4.769-13.669 2.969-20.5 5l31-58c.184-.106 2.066-2.413 3-3 33.339-20.952 59.268-58.616 57-99 .916-4.842.621-8.4 1-13 3.002-.437 1.947 2.675 2 4.5.343 11.872 1.948 23.732 2 35.5"/><path fill="#159abe" d="M457 543c-4.357 21.887-12.232 24.865-22 41-2.506 1.401-4.664 3.368-7 5-1.988-5.151-.643-12.244-2-17.5-.223-.864-1.961-.395-2-.5-.379-1.035-.138-3.391-1-4 3.708-3.691 6.749-9.268 9-14 3.487-7.332 6.291-14.835 7-23 8.323 6.516 19.694-.282 18 13"/><path fill="#033a5a" d="M462 530c-.787 15.83-6.1 31.993-15 45-4.165 6.088-9.262 10.904-14.5 16-.173-1.393 1.902-6.013 2.5-7 9.768-16.135 17.643-19.113 22-41 .902-4.532 1.778-8.307 2-13z"/><path fill="#1596b9" d="M746 548c-4.613 18.381-11.184 26.898-25 39l-1-1c1.111-2.467 2.374-24.558-1-25h-1c5.384-8.493 8.739-18.019 10-28 10.939 4.833 21.301-.558 18 15"/><path fill="#064769" d="M751 536c-.614 6.362-1.275 12.34-3 18.5-1.229 4.39-11.826 20.851-4 17.5-5.19 7.498-10.676 13.963-17.5 20l7-11c-4.032 2.94-7.91 9.17-11.5 12-1.833 1.444-6.264 4.843-8 6-7.774 5.179-25.447 13.11-34.5 15-8.095 1.69-25.626.585-30 2-.301.097-1.981 1.499-1 2h12c-20.332 4.368-42.072-3.9-59.5-15-2.922-1.861-5.315-3.854-8-6 1.05-.371 2.961-1.68 2.5-3-.373-1.069-13.027-12.902-15.5-16.5-3.536-5.144-9.14-15.667-11-21.5l3-1c22.445 62.973 100.644 74.358 149 32 13.816-12.102 20.387-20.619 25-39 1.245-4.961 2.714-9.876 3-15z"/><path fill="#fafcfd" d="M183 541c-.002 2.236-.046 4.805 0 7h-25c-.117-3.981-.105-7.045 0-11z"/><path fill="#2e7488" d="M247 538c9.312 60.146 61.731 101.502 122 101 3.215 11.364-17.721 11.986-22 21-.329-.039-.672.043-1 0-53.331-6.959-100.17-54.937-102-109.5-.079-2.351.085-11.455 3-12.5"/><path fill="#356c7f" d="M280 555c7.42 20.874 16.531 27.43 32 41 1.195 1.049 2.417 2.565 4 3.5l-5 .5c-24.4-16.118-22.009-26.188-37-42-1.934-4.576-3.727-9.177-5-14l7-3c.681 4.552 2.45 9.639 4 14"/><path fill="#cde6ec" d="M864 541c.571 14.616.223 26.437-2 41l-23 6c-.072-11.365.13-22.652 0-34-.047-4.071 1.079-7.517 1-11z"/><path fill="#4d8395" d="m432 641 5-22c25.887-16.771 46.239-46.549 52-77 2.268 40.384-23.661 78.048-57 99"/><path fill="#8cb6c1" d="M197 547c.539 26.56 4.474 52.365 11 78-6.632-1.205-34.886-6.191-38-10.5-5.818-8.051-11.662-54.979-12-66.5h25c.257 12.221 3.552 24.681 2 37-3.203-.769-20.29-4.853-21-2.5 3.971 7.023 4.01 25.468 9 31 4.061 4.501 25.475 7.349 32 9l-7-35c-3.146-.447-5.89-.69-9-1.5.17-12.878-1.99-26.118-2-39z"/><path fill="#d6ecf3" d="M835 547c-.019 1.324.035 2.677 0 4-.126 4.834-1.06 34.932-2 36.5-.379.632-7.544 1.763-9 1.5-.165-.921-1.035-1.909-2-2 2.111-13.951 2.757-25.903 3-40z"/><path fill="#10476b" d="M712 566c-.802.978-3.771 4.776-4 5-5.987 5.854-15.347 11.564-23 15 8.617-7.041 17.677-10.477 20-22.5.06-.31-2.035-5.686-2-6 .056-.503 4.191-3.292 2.5-8.5 8.671 3.469 3.163 10.903 6.5 17"/><path fill="#418099" d="M815 550c-3.776 113.189-79.281 212.189-181 257l-4-2c97.251-40.855 178.376-149.119 180-256z"/><path fill="#277da1" d="M408 569c6.909-5.93 1.502-17.777-9-15-2.586-2.848 4.19-4.049 4.5-4 7.21 1.143 13.605 11.562 10.5 18.5l-1.5 2.5z"/><path fill="#255260" d="M839 554c.13 11.348-.072 22.635 0 34 .079 12.386.046 24.629-1 37-.219.073-.145 2.173-3.5 3-2.225.548-18.875 3.383-19.5 2.5 3.286-9.536 10.69-32.077 9-41.5 1.456.263 8.621-.868 9-1.5.94-1.568 1.874-31.666 2-36.5l1.5 10z"/><path fill="#fdfdfe" d="M689.5 553c12.644-2.905 14.7 15.008 5 17-12.444 2.556-13.622-15.019-5-17"/><path fill="#073955" d="m313 593-1 3c-15.469-13.57-24.58-20.126-32-41l2-1c5.283 14.086 18.842 30.241 31 39"/><path fill="#fbfcfd" d="M408 569c-10.281 8.823-20.881-11.858-9-15 10.502-2.777 15.909 9.07 9 15"/><path fill="#9bc7d5" d="M274 558c14.991 15.812 12.6 25.882 37 42 9.503 6.277 23.173 13.79 34 17 5.445 1.614 9.298 2.465 15 3-.017 1.819-1.914 12.692-2.5 13-.465.244-9.777-3.66-10.5 0-38.148-5.384-75.147-34.612-90-70 7.028-1.407 11.472-10.831 17-5"/><path fill="#6999ae" d="M540 558c2.435 3.821 2.611 7.881 4 12 12.118 35.949 28.864 59.742 64 77l-38 29c-12.54-12.921-19.833-23.243-40.5-16-5.447 1.909-12.081 10.012-18 11-12.922 2.156-16.133-7.84-27-11-4.608-1.34-14.782-2.521-19.5-2 22.836-26.548 29.151-54.626 29-89l43.5-14c.195-.004 2.304 2.692 2.5 3"/><path fill="#51e9fb" d="M720 586c-1.141 2.532-23.471 13.152-28 13.5 12.782-9.141 26.832-21.745 27-38.5 3.374.442 2.111 22.533 1 25"/><path fill="#a5ddeb" d="M601 603c17.428 11.1 39.168 19.368 59.5 15h-12c-.981-.501.699-1.903 1-2 4.374-1.415 21.905-.31 30-2 9.053-1.89 26.726-9.821 34.5-15 .356 2.739 12.569-5.053 8-6 3.59-2.83 7.468-9.06 11.5-12l-7 11c6.824-6.037 12.31-12.502 17.5-20 2.122-3.066 4.247-5.62 6-9-20.009 56.942-102.811 79.27-149 40"/><path fill="#6d9cb0" d="M797 564c-6.012 20.186-12.332 37.855-21 57l-12-7c9.565-12.725 18.329-33.289 21-49 5.21-.575 7.643 2.539 12-1"/><path fill="#b2eaf7" d="M457 571c-16.634 33.425-60.85 52.393-97 49-5.702-.535-9.555-1.386-15-3 38.981 3.387 76.943-7.848 103-38 3.381-3.913 7.406-8.562 10-13 1.159.22-.795 4.589-1 5"/><path fill="#34e0f7" d="M428 589c-9.296 6.496-24.192 14.883-35 18 7.89-12.646 25.823-20.61 31-36 .039.105 1.777-.364 2 .5 1.357 5.256.012 12.349 2 17.5"/><path fill="#7daab9" d="M471 577c-25.672 42.731-75.251 62.88-124 56 .723-3.66 10.035.244 10.5 0 .586-.308 2.483-11.181 2.5-13 36.15 3.393 80.366-15.575 97-49 5.32.278 10.571 1.933 14 6"/><path fill="#05537f" d="M448 579c-26.057 30.152-64.019 41.387-103 38-10.827-3.21-24.497-10.723-34-17l5-.5c-1.583-.935-2.805-2.451-4-3.5l1-3c23.588 16.994 51.885 22.109 80 14 10.808-3.117 25.704-11.504 35-18 2.336-1.632 4.494-3.599 7-5-.598.987-2.673 5.607-2.5 7 5.238-5.096 10.335-9.912 14.5-16z"/><path fill="#002f40" d="M665 592c-18.295 2.192-28.66-.192-44-10l1-5c3.034 2.024 9.275 5.849 12.5 7 8.66 3.09 16.879 2.196 24 4 .424.107 1.563 4.277 6.5 4"/><path fill="#31535a" d="M185 585c1.255.301 2.732.67 4 1 3.11.81 5.854 1.053 9 1.5l7 35c-6.525-1.651-27.939-4.499-32-9-4.99-5.532-5.029-23.977-9-31 .71-2.353 17.797 1.731 21 2.5"/><path fill="#4a7987" d="M862 582c-1.269 8.316-5.519 31.223-10 37-5.487 7.074-9.608 4.537-14 6 1.046-12.371 1.079-24.614 1-37z"/><path fill="#6596a4" d="M824 589c1.69 9.423-5.714 31.964-9 41.5.625.883 17.275-1.952 19.5-2.5 3.355-.827 3.281-2.927 3.5-3 4.392-1.463 8.513 1.074 14-6-.134 1.993.669 3.801-1 5.5-3.389 3.451-33.342 8.097-40 9.5 4.306-13.991 8.815-32.562 11-47 .965.091 1.835 1.079 2 2"/><path fill="#50d6ef" d="M395.5 592c4.298-1.67 3.708 4.894 1 5-2.935.115-3.413-4.062-1-5"/><path fill="#56ddf4" d="M685.5 593c4.561-.336 1.712 6.872-1 6-3.108-.999-.502-5.889 1-6"/><path fill="#52a9bd" d="M722 593c4.569.947-7.644 8.739-8 6 1.736-1.157 6.167-4.556 8-6"/><path fill="#477d93" d="M776 621c-39.393 87.011-115.195 152.519-210.5 170H543c22.42-7.873 35.194-25.561 48-44.5 2.945-4.355 22.776-37.621 23-40 1.305-13.867-9.292-3.936-15.5-4.5-11.135-1.011-21.623-18.914-28.5-26l38-29c51.861 25.473 120.421 14.334 156-33z"/><path fill="#456875" d="M432 641c-.934.587-2.816 2.894-3 3-25.757 14.874-52.315 19.499-82 16 4.279-9.014 25.215-9.636 22-21 25.013-.208 47.002-6.396 68-20z"/><path fill="url(#h)" d="m429 644-31 58c-7.383 2.195-3.136 11.387-1 16-10.823 14.045-12.684 28.334-16 45-9.366-4.814-44.46-24.575-49-32-.357-.584-.859-1.317-1-2 2.783-23.366 3.497-47.968 15-69 .328.043.671-.039 1 0 29.685 3.499 56.243-1.126 82-16" style="fill:url(#h)"/>/&gt;<path fill="#1f3b42" d="M465 658c4.718-.521 14.892.66 19.5 2 10.867 3.16 14.078 13.156 27 11 5.919-.988 12.553-9.091 18-11 20.667-7.243 27.96 3.079 40.5 16 6.877 7.086 17.365 24.989 28.5 26 6.208.564 16.805-9.367 15.5 4.5-.224 2.379-20.055 35.645-23 40-12.806 18.939-25.58 36.627-48 44.5-22.702 7.972-44.151 6.668-67 0-30.435-8.882-65.864-44.632-79-73-2.136-4.613-6.383-13.805 1-16 6.831-2.031 11.907-.231 20.5-5 16.641-9.236 24.904-36.617 46.5-39m-67 46c-3.256 1.207-2.048 6.697-1 9.5 6.187 16.547 46.293 57.307 63 65.5 30.99 15.198 73.12 18.487 101.5-4 10.335-8.189 44.391-54.135 46.5-66 .304-1.712 2.494-2.922-.5-5-20.557 5.32-32.764-18.263-46.5-30-17.637-15.071-18.173-11.917-37-2-4.083 2.151-10.609 3.176-13 7-.982.052-2.016.03-3 0-15.741-6.293-24.643-19.144-43.5-17-19.933 2.267-28.894 29.709-46 38-7.764 3.763-15.967 2.32-20.5 4"/><path fill="#b99ba3" d="M508 679c-11.156-.345-16.598-7.982-25.5-10-26.755-6.066-42.08 10.401-53 32 17.368-18.859 22.734-34.846 53-28 6.161 1.394 15.271 9.041 21 10 15.235 2.55 33.147-6.6 49-3 12.054 2.737 20.759 16.382 32 21-14.802-13.695-25.11-31.177-48-29-7.342.698-17.52 6.58-25.5 7 2.391-3.824 8.917-4.849 13-7 14.226-2.425 23.205-4.273 37 2 13.736 11.737 25.943 35.32 46.5 30 2.994 2.078.804 3.288.5 5-2.226-2.079-2.775-.063-3 0-2.669.749-5.188 1.768-8 2-20.858 1.721-42.745 2.58-63.5 4-34.565 2.366-44.271-6.222-73-9-18.579-1.797-36.968 3.909-55.5 3-.8-.509-4.451-3.046-5-1-1.48-1.389-2.655-1.304-2-4 4.533-1.68 12.736-.237 20.5-4 17.106-8.291 26.067-35.733 46-38 18.857-2.144 27.759 10.707 43.5 17"/><path fill="#faf5f6" d="M561 674c-13.795-6.273-22.774-4.425-37-2 18.827-9.917 19.363-13.071 37 2"/><path fill="#fcfbfb" d="M508 679c.984.03 2.018.052 3 0 7.98-.42 18.158-6.302 25.5-7 22.89-2.177 33.198 15.305 48 29-11.241-4.618-19.946-18.263-32-21-15.853-3.6-33.765 5.55-49 3-5.729-.959-14.839-8.606-21-10-30.266-6.846-35.632 9.141-53 28 10.92-21.599 26.245-38.066 53-32 8.902 2.018 14.344 9.655 25.5 10"/><path fill="#a3858f" d="M400 708c14.94 14.022 40.693 18.266 60 22 19.679 21.055 52.465 20.066 78.5 13 12.313-3.342 22.355-10.467 33.5-16 8.741-4.339 17.505-8.103 26-13 2.033 2.672.134 2.94-1 5-11.524 20.926-26.23 38.255-43 55l.5-5c-30.857 7.782-59.369-1.667-89-9-4 1.629 5.804 10.404 8 12 17.988 13.078 47.668 12.067 68.5 8.5-26.144 12.06-55.2 3.426-82-1.5-16.707-8.193-56.813-48.953-63-65.5-1.048-2.803-2.256-8.293 1-9.5-.655 2.696.52 2.611 2 4"/><path fill="#774c63" d="M597 711c-.982 3.343-8.537 5.868-11.5 7-51.32 19.611-133.074 21.176-180.5-9 18.532.909 36.921-4.797 55.5-3 28.729 2.778 38.435 11.366 73 9 20.755-1.42 42.642-2.279 63.5-4"/><path fill="#5e0d2a" d="M405 709c47.426 30.176 129.18 28.611 180.5 9 2.963-1.132 10.518-3.657 11.5-7 2.812-.232 5.331-1.251 8-2-1.545 2.481-4.611 3.623-7 5-8.495 4.897-17.259 8.661-26 13-38.202 14.005-73.022 10.539-112 3-19.307-3.734-45.06-7.978-60-22 .549-2.046 4.2.491 5 1"/><path fill="#c8b1b9" d="M608 709c-2.109 11.865-36.165 57.811-46.5 66-28.38 22.487-70.51 19.198-101.5 4 26.8 4.926 55.856 13.56 82 1.5-20.832 3.567-50.512 4.578-68.5-8.5-2.196-1.596-12-10.371-8-12 29.631 7.333 58.143 16.782 89 9l-.5 5c-.864.862-4.01 2.182-3.5 4 2.207-1.269 4.99-2.506 7-4 10.798-8.026 33.463-38.212 39.5-50.5.099-.202 1.535-4.585 0-4.5 1.134-2.06 3.033-2.328 1-5 2.389-1.377 5.455-2.519 7-5 .225-.063.774-2.079 3 0"/><path fill="#3b97b4" d="M476 791c-1.861 2.199-12.013.414-14.5 0-27.957-4.649-55.097-14.903-80.5-27 .062-.321-.064-.679 0-1 3.316-16.666 5.177-30.955 16-45 13.136 28.368 48.565 64.118 79 73"/><path fill="#e9dae0" d="M554 774c16.77-16.745 31.476-34.074 43-55 1.535-.085.099 4.298 0 4.5-6.037 12.288-28.702 42.474-39.5 50.5-2.01 1.494-4.793 2.731-7 4-.51-1.818 2.636-3.138 3.5-4"/><path fill="#866876" d="M572 727c-11.145 5.533-21.187 12.658-33.5 16-26.035 7.066-58.821 8.055-78.5-13 38.978 7.539 73.798 11.005 112-3"/><path fill="#265a71" d="M381 763c-.064.321.062.679 0 1-1.754 9.16-1.28 22.215-8 29-15.927-8.26-30.187-18.042-45-28l-1-2 5-32c4.54 7.425 39.634 27.186 49 32"/><path fill="#349ab8" d="M373 793c77.395 40.138 176.142 45.969 257 12l4 2c-50.464 22.232-105.037 29.181-160 23-54.215-6.096-104.829-28.465-148-61l2-4c14.813 9.958 29.073 19.74 45 28"/><path fill="#091719" d="M418 832c.645 6.435-.428 12.657-1 19-1.359 15.069-5.379 17.933 12 25-2.631-.724-7.68-.219-11.5-4-2.201 1.312 4.149 8.275 5 9 16.892 14.403 79.825 14.7 102.5 14 9.801-.303 20.269-.827 30-2 15.074-1.816 50.602-7.945 52-28 .58-8.326-6.926-22.568-1-33 .306-.091.694.092 1 0-6.479 19.893 10.427 30.42-1 47.5-20.974 31.35-161.962 30.833-187 3-16.308-18.128-2.836-30.922-5-52.5 1.878.571 2.412.786 4 2"/><path fill="#6d9ba6" d="M448 849c.057.324-.054.676 0 1l-31 1c.572-6.343 1.645-12.565 1-19 4.143.16 24.25 2.789 26.5 4 2.195 1.181 3.008 10.199 3.5 13"/><path fill="#5c858d" d="M606 832c-5.926 10.432 1.58 24.674 1 33-8.642 6.513-19.265 13.454-30 16-2.449-11.445-.861-23.613-2-35 .164-1.646.834-8.323 1.5-9 .936-.951 22-4.846 26-6 2.875-.829 3.326 1.052 3.5 1"/><path fill="#254147" d="M575 846c1.139 11.387-.449 23.555 2 35-4.427 1.05-11.951 1.314-17 2 .645-4.144 4.854-.275 8-3.5.692-.709 4.94-19.007 3.5-19.5l-54.5 5c-.065-.651.045-1.345 0-2-.665-9.75-5.957-16.877 6-21 16.248-.483 34.256-3.121 50.5-5 .055 2.909 1.226 6.264 1.5 9"/><path fill="#38545a" d="M473 841c16.178-1.692 33.563 1.488 50 1-11.957 4.123-6.665 11.25-6 21-2.06-.545-1.891.977-2 1-10.888 2.275-45.091-1.516-57-4-1.821-.38-9.773-1.048-10-1.5-.543-1.081.34-6.451 0-8.5-.054-.324.057-.676 0-1 7.633-3.297 16.67-7.129 25-8"/><path fill="#bbd8de" d="M448 850c.34 2.049-.543 7.419 0 8.5.227.452 8.179 1.12 10 1.5-6.913-1.469-.832 18.444 0 19.5 2.216 2.812 10.539 3.985 14 5-2.882 2.102-8.452-.26-12-.5-9.919-.547-7.103-16.72-10.5-24-4.723 4.327 1.569 19.077-5.5 21-.252-.771 1.557-1.38 1-2.5-.577-1.16-11.484-5.703-12-4l9.5 6.5c-4.401-1.745-8.945-3.746-13.5-5-17.379-7.067-13.359-9.931-12-25z"/><path fill="#57787f" d="M460 884c-6.846-.464-6.992-.124-13.5-2-.152-.044-1.509 1.855-3 1-1.184-.679.781-1.14.5-2 7.069-1.923.777-16.673 5.5-21 3.397 7.28.581 23.453 10.5 24"/><path fill="#89aaaf" d="m515 864 3 22c-.36.568-.841 1.323-1 2-9.795.164-19.565 1.2-29.5 1-2.181-.044-22.714-4.084-22.5.5l1.5 1.5 58.5 4c-22.675.7-85.608.403-102.5-14-.851-.725-7.201-7.688-5-9 3.82 3.781 8.869 3.276 11.5 4 4.555 1.254 9.099 3.255 13.5 5l-9.5-6.5c.516-1.703 11.423 2.84 12 4 .557 1.12-1.252 1.729-1 2.5.281.86-1.684 1.321-.5 2 1.491.855 2.848-1.044 3-1 6.508 1.876 6.654 1.536 13.5 2 3.548.24 9.118 2.602 12 .5-3.461-1.015-11.784-2.188-14-5-.832-1.056-6.913-20.969 0-19.5 11.909 2.484 46.112 6.275 57 4"/><path fill="#36545a" d="M560 883c-13.287 1.806-27.625 2.807-41 2-.085-6.727-1.336-13.333-2-20l54.5-5c1.44.493-2.808 18.791-3.5 19.5-3.146 3.225-7.355-.644-8 3.5"/><path fill="#b0cad0" d="M517 863c.045.655-.065 1.349 0 2 .664 6.667 1.915 13.273 2 20-1.147-.167-.857.774-1 1l-3-22c.109-.023-.06-1.545 2-1"/><path fill="#6a8e94" d="M607 865c-1.398 20.055-36.926 26.184-52 28 .366-4.387 7.512-2.443 2.5-8-13.267 3.359-26.96 2.773-40.5 3 .159-.677.64-1.432 1-2 .143-.226-.147-1.167 1-1 13.375.807 27.713-.194 41-2 5.049-.686 12.573-.95 17-2 10.735-2.546 21.358-9.487 30-16"/><path fill="#93b3b6" d="M555 893c-9.731 1.173-20.199 1.697-30 2l-58.5-4-1.5-1.5c-.214-4.584 20.319-.544 22.5-.5 9.935.2 19.705-.836 29.5-1 13.54-.227 27.233.359 40.5-3 5.012 5.557-2.134 3.613-2.5 8"/></svg>