<svg viewBox="0 0 100 100" xmlns="http://www.w3.org/2000/svg">
  <!-- Gem shape with facets -->
  <g id="gem">
    <!-- Top facet -->
    <polygon points="50,10 30,30 70,30" fill="#4a90e2" opacity="0.9"/>
    
    <!-- Upper facets -->
    <polygon points="30,30 10,40 20,50 40,40" fill="#5ba0f2" opacity="0.8"/>
    <polygon points="70,30 90,40 80,50 60,40" fill="#5ba0f2" opacity="0.8"/>
    
    <!-- Center facets -->
    <polygon points="30,30 40,40 50,35" fill="#6bb0ff" opacity="0.85"/>
    <polygon points="70,30 60,40 50,35" fill="#6bb0ff" opacity="0.85"/>
    
    <!-- Lower center -->
    <polygon points="40,40 20,50 30,70 50,60" fill="#3a80d2" opacity="0.9"/>
    <polygon points="60,40 80,50 70,70 50,60" fill="#3a80d2" opacity="0.9"/>
    
    <!-- Bottom facets -->
    <polygon points="20,50 10,60 20,80 30,70" fill="#2a70c2" opacity="0.95"/>
    <polygon points="80,50 90,60 80,80 70,70" fill="#2a70c2" opacity="0.95"/>
    
    <!-- Bottom point -->
    <polygon points="30,70 20,80 50,90" fill="#1a60b2" opacity="1"/>
    <polygon points="70,70 80,80 50,90" fill="#1a60b2" opacity="1"/>
    
    <!-- Center bottom -->
    <polygon points="30,70 50,60 70,70 50,90" fill="#2a70c2" opacity="0.85"/>
    
    <!-- Highlight -->
    <polygon points="50,10 45,20 55,20" fill="#ffffff" opacity="0.7"/>
    <polygon points="40,25 35,30 45,30" fill="#ffffff" opacity="0.5"/>
  </g>
</svg>