<svg xmlns="http://www.w3.org/2000/svg" width="1024" height="1024"><defs><linearGradient id="a" x1="325.533" x2="194.905" y1="409.285" y2="755.459" gradientUnits="userSpaceOnUse"><stop offset="0%" style="stop-color:#8bd5e8"/><stop offset="100%" style="stop-color:#6cb0c9"/></linearGradient></defs><defs><linearGradient id="b" x1="438.152" x2="545.875" y1="290.388" y2="588.524" gradientUnits="userSpaceOnUse"><stop offset="0%" style="stop-color:#003a5d"/><stop offset="21.136%" style="stop-color:#005a84"/><stop offset="100%" style="stop-color:#04a3c1"/></linearGradient></defs><defs><linearGradient id="c" x1="514.406" x2="510.628" y1="297.282" y2="565.255" gradientUnits="userSpaceOnUse"><stop offset="0%" style="stop-color:#20698c"/><stop offset="100%" style="stop-color:#13c8e0"/></linearGradient></defs><defs><linearGradient id="d" x1="667.209" x2="626.925" y1="376.843" y2="474.889" gradientUnits="userSpaceOnUse"><stop offset="0%" style="stop-color:#024b74"/><stop offset="100%" style="stop-color:#036f9b"/></linearGradient></defs><defs><linearGradient id="e" x1="573.57" x2="429.47" y1="408.756" y2="604.419" gradientUnits="userSpaceOnUse"><stop offset="0%" style="stop-color:#9ab5c1"/><stop offset="100%" style="stop-color:#5c7b87"/></linearGradient></defs><defs><linearGradient id="f" x1="499.214" x2="527.006" y1="375.238" y2="477.53" gradientUnits="userSpaceOnUse"><stop offset="0%" style="stop-color:#031234"/><stop offset="100%" style="stop-color:#1e345f"/></linearGradient></defs><defs><linearGradient id="g" x1="755.191" x2="260.192" y1="503.573" y2="719.388" gradientUnits="userSpaceOnUse"><stop offset="24.444%" style="stop-color:#a6d9e8"/><stop offset="100%" style="stop-color:#508ba3"/></linearGradient></defs><defs><linearGradient id="h" x1="689.005" x2="541.233" y1="752.25" y2="874.836" gradientUnits="userSpaceOnUse"><stop offset="0%" style="stop-color:#b8cdd4"/><stop offset="100%" style="stop-color:#85adb7"/></linearGradient></defs><defs><linearGradient id="i" x1="471.308" x2="320.833" y1="788.692" y2="899.716" gradientUnits="userSpaceOnUse"><stop offset="0%" style="stop-color:#6b939f"/><stop offset="100%" style="stop-color:#355b65"/></linearGradient></defs><defs><linearGradient id="j" x1="617.763" x2="399.436" y1="726.069" y2="930.359" gradientUnits="userSpaceOnUse"><stop offset="13.043%" style="stop-color:#253946"/><stop offset="100%" style="stop-color:#081822"/></linearGradient></defs><path fill="#065b81" d="m119 138-4.5-4c-1.711.59-2.258 4.753-2.5 5-2.915 2.968-3.435 2.431-6 4-1.14.697-6.478 1.336-7 2.5-1.42 3.166 5.967 10.326 7 12.5.651 1.369 1.382 2.698 2 4 37.122 78.201 79.844 154.107 118 232-.148 1.698.961 2.132 1 4-1.146.101-1.598 1.074-2 2-2.45 5.639-3.065 13.732-8 18 .193-2.475 3.775-8.842 5-11.5l-128-258c-16.887-6.909-31.294-12.428-29-34 3.885-36.527 61.415-32.432 58 7-.432 4.992-6.265 11.911-4 16.5m-50-19c.173 1.927-1.286 2.316-1 3.5 3.78 15.676 25.499 21.381 38.5 14.5 8.231-4.356 14.134-17.881 10.5-26-8.404-30.075-50.974-25.177-48 8"/><path fill="#005a83" d="M803 402c-6.447 2.901-7.477-5.732-6-10l115-222.5c.25-3.723 2.857-5.491 3-9.5.012-.326.028-.677 0-1l8-12.5c-.46-2.959-4.987-2.019-7-3.5-2.192-1.613-4.212-2.667-6-4-1.024-.763.742-9.03-7 1 3.234-5.863-2.445-10.96-3-16.5-4.466-44.54 53.549-44.035 57-9 2.186 22.188-11.765 26.517-29 34zm102-291c-4.861 31.072 37.243 40.126 47 14 13.705-36.698-41.894-46.638-47-14"/><path fill="#c8d3d7" d="M952 125c-2.85-.015-.596-8.092-1-12-.719-6.951-2.208-8.55-8-13-4.006-3.078-12.649-6.5-17.5-5-1.02.315-4.112 4.8-5 5-3.843.869-2.571-5.203-10.5 5-1.53 1.969-2.425 5.738-5 6 5.106-32.638 60.705-22.698 47 14"/><path fill="#d6dedf" d="M117 111c-.087-.194-1.461-.655-3-3-1.447-2.205-6.419-9.294-8.5-10-2.849-.967-1.208 3.938-3 3-1.409-.737-3.836-6.663-7-7-3.73-.397-13.211 4.123-16.5 6-7.175 4.096-6.752 5.06-8 14-.332 2.382-1.254 3.482 0 6.5l-2-1.5c-2.974-33.177 39.596-38.075 48-8"/><path fill="#96b0ba" d="M114 108c-.266 6.469-4.797 8.942-7 12-.242-10.976-21.223-3.804-29.5-8-4.951-3.47 3.057-8.24 1.5-12 3.289-1.877 12.77-6.397 16.5-6 3.164.337 5.591 6.263 7 7 1.792.938.151-3.967 3-3 2.081.706 7.053 7.795 8.5 10"/><path fill="#97b1bc" d="m943 100 2.5 11c-10.897 4.802-24.289-.917-32.5 8-2.305-5.596-3.648-7.191-3-14 7.929-10.203 6.657-4.131 10.5-5 .888-.2 3.98-4.685 5-5 4.851-1.5 13.494 1.922 17.5 5"/><path fill="#78949f" d="M79 100c1.557 3.76-6.451 8.53-1.5 12 8.277 4.196 29.258-2.976 29.5 8-.368.51 1.059 1.432 1 1.5-9.737 11.349-21.99 10.866-31-1-1.629-2.145-1.348-9.499-6-6.5 1.248-8.94.825-9.904 8-14"/><path fill="#7995a1" d="M951 113c-5.088-1.934-5.225 8.895-10.5 13-9.974 7.761-16.183 3.261-24-3-1.191-.954-2.862 1.076-3 1-1.139-.628.402-2.809-.5-5 8.211-8.917 21.603-3.198 32.5-8l-2.5-11c5.792 4.45 7.281 6.049 8 13"/><path fill="#526e7c" d="M913 119c.902 2.191-.639 4.372.5 5 .138.076 1.809-1.954 3-1 7.817 6.261 14.026 10.761 24 3 5.275-4.105 5.412-14.934 10.5-13 .404 3.908-1.85 11.985 1 12-9.757 26.126-51.861 17.072-47-14 2.575-.262 3.47-4.031 5-6-.648 6.809.695 8.404 3 14"/><path fill="#516d7c" d="M117 111c3.634 8.119-2.269 21.644-10.5 26-13.001 6.881-34.72 1.176-38.5-14.5-.286-1.184 1.173-1.573 1-3.5l2 1.5c-1.254-3.018-.332-4.118 0-6.5 4.652-2.999 4.371 4.355 6 6.5 9.01 11.866 21.263 12.349 31 1 .059-.068-1.368-.99-1-1.5 2.203-3.058 6.734-5.531 7-12 1.539 2.345 2.913 2.806 3 3"/><path fill="#1e7395" d="M119 138c43.952 62.56 92.096 122.056 139.5 182 40.868-67.758 98.659-115.982 175.5-137l1.5 2c-33.121 11.163-65.936 31.716-91.5 53-64.961 54.086-112.67 135.061-118 220.5-2.925 46.882-2.701 95.469-4 142.5l-3 21.5-4-4c-.765 6.292-5.458 13.549-6 19.5-4.439 6.219-7.421 12.432-14 17-.156-3.753-6.036 2.955-6.5 3-3.26.317-13.285-.93-16.5-2.5 39.531 2.984 38.059-54.788 41-82.5.86-8.103 1.433-15.864 2-24 .891-12.78 2.092-25.049 2-38-.069-9.733-.329-19.303-1-29-1.276-18.432-4.725-56.967-14-72-1.698-2.752-2.611-3.833-5-6-1.285-1.165-2.846-4.362-4.5-5-7.802-3.009-45.578 2.701-53.5 7-5.016 2.722 3.724 6.099-4 7-.04-.058-.685-.676-1-1 1.746-1.469-4.164-4.997-4.5-5-1.168-.01-4.928 5.289-5.5 2.5l10-7.5c11.413-4.538 46.217-10.678 57.5-8 13.155 3.122 25.968 32.267 25 45 3.652-5.275.093-15.769.5-21 4.935-4.268 5.55-12.361 8-18 2.456 1.659 2.054.559 2-2-.039-1.868-1.148-2.302-1-4 1.188-2.151 2.4-7.196 2-9.5-1.191-6.852-30.329-58.688-36-69.5l16-10c11.166 16.517 21.768 33.717 34.5 49 1.761.322 1.668-1.893 2.5-3 1.549-2.063 7.142-13.435 8-16 .995-2.973 2.982-1.34 1-6.5-45.035-59.082-85.465-121.294-134-177.5-2.893-3.35-5.35-8.375-8-12 .242-.247.789-4.41 2.5-5z"/><path fill="#1c7295" d="m910 139-6 11c-7.781 2.034-40.147 46.366-47 55.5-30.617 40.808-57.516 84.53-90 124-.173 1.61 2.626 3.474 3 4.5 1.844 5.058 4.613 11.845 8 16 .224.275-.095 3.323 2.5 3 12.299-15.556 23.42-32.448 34.5-49l16 9c-12.351 23.477-24.124 47.29-37 70.5l3 8.5c-1.477 4.268-.447 12.901 6 10-3.799 7.78 4.472 19.491 4.5 29 1.037-10.688 6.214-25.27 15-32 11.032-8.449 34.365-4.676 48-2 7.877 1.546 25.195 6.138 29.5 12.5 20.854 30.821 16.325 195.256 0 230-1.18 2.511-4.458 9.116-6.5 10.5-7.77 5.269-45.279 11.09-55 10-12.465-1.397-16.539-10.678-24.5-18.5-5.538 49.784-12.538 99.986-27 148-3.374 11.203-7.81 24.906-14 34.5-.088-.751-.132-1.107-1-1 2.148-3.457-3.945-14.128-5-16 8.725-19.868 15.234-44.041 20-65.5 36.03-162.229 39.106-345.974-78-474.5-1.211-1.33-4.962-2.308-1-3.5-27.617-28.121-52.997-50.08-88.5-67.5-1.85-.908-3.193-.58-1.5-3 62.052 24.103 111.233 70.271 145.5 127L903 140c7.742-10.03 5.976-1.763 7-1m-86 266c-23.891 20.972-9.929 56.549-8 83 .529 7.255.576 14.725 1 22 .49 8.406.81 16.564 1 25 .045 1.988-.026 4.011 0 6 .138 10.557 1.035 21.57 1 32-.081 24.12-15.023 78.052 22.5 82 14.092 1.483 40.844-4.548 50.5-14 2.896-2.835 9.77-10.727 9-15.5-.232-1.438-3.751-.353-5-3-7.488-15.867-9.475-42.778-11-60.5v-78c.858-10.277 3.378-50.939 11.5-56 1.198-.746 5.173 1.873 5.5-.5.107-.777-5.009-13.208-6-14.5-1.324-1.726-2.699-4.511-5.5-4-3.126 2.448-4.875 5.49-6.5 9l-4-1c.737-2.558 1.332-5.397 2-8 .031-.121 1.69-.64 2-1.5-1.41-5.587-46.756-10.445-53.5-8.5-2.97.856-4.582 4.316-6.5 6m67 149c.372 14.705.361 23.022 2 38 1.148 10.49-1.588 24.86 8.5 32 3.096-.802 6.19-26.978 6.5-31.5.119-1.731 1.214-8.655-2-8.5.709-4.275.369-3.306 0-7 1.059-2.904 1.615-6.944 2-10 3.225-25.6 3.774-66.665 2-92.5-.325-4.734-5.492-42.584-7.5-43.5-10.264-.46-6.484 16.234-7.5 23.5-4.883 34.924-4.905 63.694-4 99.5"/><path fill="#3f92af" d="M120 151c-2.443-2.294-3.875.002-5 0-.202 0-3.073-1.212-4-.5 21.844 32.492 40.947 67.24 62 100.5l-12 6c-16.827-31.489-35.395-62.345-51-94.5-.457-.942-2.097-4.24-2-.5-.618-1.302-1.349-2.631-2-4 6.099-6.512 2.416-8.2 0-15 2.565-1.569 3.085-1.032 6-4 2.65 3.625 5.107 8.65 8 12"/><path fill="#4093b0" d="M916 143c-6.497 8.973-1.556 9.536-1 16 .028.323.012.674 0 1-19.497 32.09-37.205 65.803-55 99l-11-7c7.353-11.635 13.771-24.23 21-36 7.604-12.382 36.498-52.735 40-61.5 2.192-5.486-.841-3.254-4-3.5-.111-.009.157-1.564-2-1l6-11c1.788 1.333 3.808 2.387 6 4"/><path fill="#297c99" d="M106 143c2.416 6.8 6.099 8.488 0 15-1.033-2.174-8.42-9.334-7-12.5.522-1.164 5.86-1.803 7-2.5"/><path fill="#297a99" d="M915 159c-.556-6.464-5.497-7.027 1-16 2.013 1.481 6.54.541 7 3.5z"/><path fill="#4eafcb" d="M115 151c10.864 15.309 21.341 31.293 33 46-3.148 1.194-2.399-.306-1.5 2 10.492 26.903 56.337 91.906 74.5 119.5 7.371 11.199 15.373 22.231 24 32.5-.832 1.107-.739 3.322-2.5 3-12.732-15.283-23.334-32.483-34.5-49-12.021-17.782-23.521-35.865-35-54-21.053-33.26-40.156-68.008-62-100.5.927-.712 3.798.5 4 .5"/><path fill="#f9fdfe" d="M120 151c48.535 56.206 88.965 118.418 134 177.5 1.982 5.16-.005 3.527-1 6.5-25.367-33.604-48.373-69.085-74-102.5-9.487-12.371-21.34-23.315-31-35.5-11.659-14.707-22.136-30.691-33-46 1.125.002 2.557-2.294 5 0"/><path fill="#fafdfd" d="M906 151 770 334c-.374-1.026-3.173-2.89-3-4.5 32.484-39.47 59.383-83.192 90-124 6.853-9.134 39.219-53.466 47-55.5 2.157-.564 1.889.991 2 1"/><path fill="#4ebad6" d="M870 216c-3.196-.601-2.891-2.001-6 .5-7.765 6.245-48.573 79.336-58 94-8.665 13.479-17.79 27.129-28 39.5-3.387-4.155-6.156-10.942-8-16l136-183c3.159.246 6.192-1.986 4 3.5-3.502 8.765-32.396 49.118-40 61.5"/><path fill="#33a1c9" d="M161 257c10.308 19.29 20.853 38.653 31 58 5.671 10.812 34.809 62.648 36 69.5.4 2.304-.812 7.349-2 9.5-38.156-77.893-80.878-153.799-118-232-.097-3.74 1.543-.442 2 .5 15.605 32.155 34.173 63.011 51 94.5"/><path fill="#34a4cb" d="M915 160c-.143 4.009-2.75 5.777-3 9.5L797 392l-3-8.5c12.876-23.21 24.649-47.023 37-70.5 9.492-18.042 19.362-36.02 29-54 17.795-33.197 35.503-66.91 55-99"/><path fill="#045a7c" d="M618 193c-1.693 2.42-.35 2.092 1.5 3 35.503 17.42 60.883 39.379 88.5 67.5-3.962 1.192-.211 2.17 1 3.5 39.4 50.637 58.836 108.389 56 173-.456 10.395-1.348 20.742-3 31-22.414 139.164-154.751 226.241-292 205-118.006-18.263-203.356-118.763-209-237-.754-15.803-.051-32.331 2-48 7.32-55.922 37.346-112.764 80-149.5.844-.727 3.412-2.724 1-3.5 25.564-21.284 58.379-41.837 91.5-53l-1.5-2c67.685-18.514 118.861-15.302 184 10M271 471c27.092 166.955 219.07 254.677 365 170 23.042-11.68 61.916-43.806 75-66 86.24-114.518 54.902-286.452-68-361-186.219-112.954-406.359 45.268-372 257"/><path fill="#ecf3f6" d="m643 214-2 11.5-20 32.5c-1.938-1.216-6.645-3.057-9-4-40.155-31.606-113.655-32.295-160-17-28.506 9.408-52.926 23.919-75 44-21.755 19.791-40.167 43.499-51 71-3.522-.375-5.8 5.096-7 7.5-15.071 30.186-21.028 65.936-20 99.5-1.799-14.35-2.583-28.522-2-43 1.354-33.663 12.164-49.495 18-78.5 4.267-21.203-1.89-37.366-17-11-21.541 37.586-28.774 102.275-22 144.5h-5c-34.359-211.732 185.781-369.954 372-257"/><path fill="#4cbad7" d="M253 335c-.858 2.565-6.451 13.937-8 16-8.627-10.269-16.629-21.301-24-32.5-18.163-27.594-64.008-92.597-74.5-119.5-.899-2.306-1.648-.806 1.5-2 9.66 12.185 21.513 23.129 31 35.5 25.627 33.415 48.633 68.896 74 102.5"/><path fill="#d0dfe4" d="M711 575c36.108-61.249 52.194-141.062 32-210.5-2.237-7.692-3.778-21.173-12.5-15.5-13.839 9.001-.168 16.127 2.5 22.5 1.206 2.882 5.901 20.056 2.5 21.5l-4.5-2c-1.564-5.662-1.737-12.886-7-16.5 5.505 10.274 5.748 22.075 7 33.5 1.145 57.104-16.844 116.583-53 161-22.727 27.92-56.936 52.13-91 64 1.372-7.758 4.501-16.161 2-24 1.288-.661 3.777-2.886 4-3 9.183 1.463 49.534-27.72 57.5-35 14.312-13.08 27.817-30.647 36.5-48 11.134-18.002 18.12-37.169 22-58 13.113-70.408-9.08-137.607-61.5-186-.852-.787-2.624-3.482-3.5-1-7.306-6.845-13.989-14.345-23-20l20-32.5 2-11.5c122.902 74.548 154.24 246.482 68 361m-45.5-329c-1.725.448-3.763 7.67-3.5 9.5.345 2.405 24.939 32.153 29 39 7.195 12.13 13.531 27.873 19 41 3.335 3.499 17.384-3.063 18-7 .584-3.729-19.323-35.847-23-41-4.122-5.777-34.984-42.672-39.5-41.5m55 120 3 6c1.6-.49-.819-6.572-3-6"/><path fill="#47a9c7" d="M870 216c-7.229 11.77-13.647 24.365-21 36-10.974 17.366-22.565 34.917-34 52-11.08 16.552-22.201 33.444-34.5 49-2.595.323-2.276-2.725-2.5-3 10.21-12.371 19.335-26.021 28-39.5 9.427-14.664 50.235-87.755 58-94 3.109-2.501 2.804-1.101 6-.5"/><path fill="#7e9eaa" d="M612 254c1.376 1.083 7.102 5.22 7 6.5l-12 13c8.004 4.493 15.009 9.552 22 15.5-44.604-30.677-97.018-44.446-151-35-4.054-1.467-10.89.065-15 1l-11-18c46.345-15.295 119.845-14.606 160 17"/><path fill="#547b88" d="m452 237 11 18c-26.715 6.078-56.985 22.417-78 40-2.889-5.065-11.107-7.568-8-14 22.074-20.081 46.494-34.592 75-44"/><path fill="url(#a)" d="M263 391c-14.892 33.953-15.083 72.411-19 109-1.767 16.506-5.99 32.79-7 49.5-4.715 78.025 10.848 160.976 38 233.5-8.121 7.279-13.105 12.757-19 22-12.692-34.974-22.054-71.677-28-108.5-5.548-34.354-6.955-60.944-6-95.5 1.299-47.031 1.075-95.618 4-142.5 5.33-85.439 53.039-166.414 118-220.5 2.412.776-.156 2.773-1 3.5-42.654 36.736-72.68 93.578-80 149.5" style="fill:url(#a)"/>/&gt;<path fill="#b8cdd5" d="M665.5 246c4.516-1.172 35.378 35.723 39.5 41.5 3.677 5.153 23.584 37.271 23 41-.616 3.937-14.665 10.499-18 7-5.469-13.127-11.805-28.87-19-41-4.061-6.847-28.655-36.595-29-39-.263-1.83 1.775-9.052 3.5-9.5"/><path fill="#3084a4" d="M173 251c11.479 18.135 22.979 36.218 35 54l-16 10c-10.147-19.347-20.692-38.71-31-58z"/><path fill="#011c37" d="M629 289c34.792 29.604 62.466 70.141 70 116 4.909 29.883 2.305 57.601-8 86l-3-3c5.775-17.236 12.112-61.345 7-78-6.779-40.857-27.708-79.438-58.5-107-3.876-3.469-11.348-12.048-16.5-10-7.971-6.498-18.635-12.849-29-13 .787-3.027-4.584-5.205-6.5-6-17.775-7.378-39.387-12.373-58.5-13 .157-2.85-1.317-2.758-3.5-3-81.656-9.057-170.754 54.088-193.5 132 14.168-67.788 82.046-124.284 149-136 53.982-9.446 106.396 4.323 151 35"/><path fill="#3084a4" d="M860 259c-9.638 17.98-19.508 35.958-29 54l-16-9c11.435-17.083 23.026-34.634 34-52z"/><path fill="#204f5e" d="M478 254c-66.954 11.716-134.832 68.212-149 136-15.038 51.509 2.931 105.936 34 147 10.366 13.7 25.668 31.285 39 42l20.5 20c-63.095-32.963-106.07-94.884-109.5-167l3 5.5c.287-51.788 29.556-109.497 69-142.5 21.015-17.583 51.285-33.922 78-40 4.11-.935 10.946-2.467 15-1"/><path fill="#4c7a8a" d="M621 258c9.011 5.655 15.694 13.155 23 20 2.679 2.51 5.469 5.347 8 8l-7 14c-4.847-4.141-10.793-7.419-16-11-6.991-5.948-13.996-11.007-22-15.5l12-13c.102-1.28-5.624-5.417-7-6.5 2.355.943 7.062 2.784 9 4"/><path fill="#004262" d="M526 261c-163.329-5.361-255.204 191.645-126 301l-2 7c-12.5-9.881-23.328-21.253-35-32-31.069-41.064-49.038-95.491-34-147 22.746-77.912 111.844-141.057 193.5-132 2.183.242 3.657.15 3.5 3"/><path fill="url(#b)" d="M526 261c19.113.627 40.725 5.622 58.5 13 1.916.795 7.287 2.973 6.5 6-11.375-.166-20.06 3.983-27 13-77.105-22.919-167.003 25.705-188 103.5-19.594 72.597 40.409 169.246 116.5 178.5 36.353 4.421 91.613-11.51 116.5-39.5 7.871-8.852 22.173-38.73 29-42.5-11.394 11.055-20.21 49.704-4 58-14.863 15.082-32.321 28.628-52 37-61.758 26.274-130.833 17.306-182-26-129.204-109.355-37.329-306.361 126-301" style="fill:url(#b)"/>/&gt;<path fill="#d9f2f9" d="M767 807c-6.555-11.636-16.566-21.833-27-30 30.87-105.486 43.823-224.083 28-333.5-.376-2.598 1.12-3.986-3-3.5 2.836-64.611-16.6-122.363-56-173 117.106 128.526 114.03 312.271 78 474.5-4.766 21.459-11.275 45.632-20 65.5"/><path fill="#1b5d74" d="M709 465c1.633-21.784-2.279-40.103-7-61-6.831-30.236-16.009-55.196-35-80 1.666-.996 9.92-6.19 10-7.5.245-4.012-21.154-26.469-25-30.5-2.531-2.653-5.321-5.49-8-8 .876-2.482 2.648.213 3.5 1 52.42 48.393 74.613 115.592 61.5 186"/><path fill="#fefefe" d="M591 280c10.365.151 21.029 6.502 29 13 29.756 24.26 42.674 70.232 24 105-7.554 14.065-25.858 28.184-42.5 23-12.317-3.837-19.093-31.295-24.5-42.5-12.768-26.462-35.38-56.422-13-85.5 6.94-9.017 15.625-13.166 27-13"/><path fill="#2f6678" d="M385 295c-39.444 33.003-68.713 90.712-69 142.5l-3-5.5c-1.355-28.486 2.644-53.711 13-80 10.833-27.501 29.245-51.209 51-71-3.107 6.432 5.111 8.935 8 14"/><path fill="#356e81" d="M667 324c-5.291-6.911-15.499-18.445-22-24l7-14c3.846 4.031 25.245 26.488 25 30.5-.08 1.31-8.334 6.504-10 7.5"/><path fill="url(#c)" d="M564 293c-22.38 29.078.232 59.038 13 85.5 5.407 11.205 12.183 38.663 24.5 42.5 16.642 5.184 34.946-8.935 42.5-23 12.691 29.6 9.315 63.671-2 93-2.438.376-2.492 1.167-4 2-6.827 3.77-21.129 33.648-29 42.5-24.887 27.99-80.147 43.921-116.5 39.5-76.091-9.254-136.094-105.903-116.5-178.5 20.997-77.795 110.895-126.419 188-103.5m-59.5 70c-92.053 9.755-67.331 153.805 26 135 81.685-16.459 57.409-143.839-26-135" style="fill:url(#c)"/>/&gt;<path fill="#6e99a6" d="M645 300c6.501 5.555 16.709 17.089 22 24 18.991 24.804 28.169 49.764 35 80l-3 1c-7.534-45.859-35.208-86.396-70-116 5.207 3.581 11.153 6.859 16 11"/><path fill="url(#d)" d="M695 410c-.097-.315-2.902-.044-2.5-5-3.967-3.014-1.42 25.66-1.5 27.5-.445 10.293-2.046 20.737-3 31L669 524c-19.862 31.71-48.362 58.862-83 74l-4-10c19.679-8.372 37.137-21.918 52-37 8.367 4.282 24.821-23.271 26-30.5 2.437-14.943.379-32.331-18-29.5 11.315-29.329 14.691-63.4 2-93 18.674-34.768 5.756-80.74-24-105 5.152-2.048 12.624 6.531 16.5 10 30.792 27.562 51.721 66.143 58.5 107m-33.5-46c-3.348 1.063-.549 6.955 3 6 3.69-.993-1.327-6.531-3-6m19 32c-4.953.804-.703 10.28 3 10 5.378-.406-.289-10.44-3-10m-8 46c-5.741 3.253 1.144 11.966 6 8 5.099-4.165-2.331-7.403-6-8" style="fill:url(#d)"/>/&gt;<path fill="url(#e)" d="m297 416-3-2.5c-4.977 45.993 3.155 87.198 27 126.5 78.47 129.337 262.756 152.71 357 29 36.156-44.417 54.145-103.896 53-161 1.852 16.898 2.945 32.274 1 49.5-1.953 17.298-9.949 34.458-11 51 16.816-35.951 20.603-79.122 10-117.5l4.5 2c3.401-1.444-1.294-18.618-2.5-21.5-2.668-6.373-16.339-13.499-2.5-22.5 8.722-5.673 10.263 7.808 12.5 15.5 20.194 69.438 4.108 149.251-32 210.5-13.084 22.194-51.958 54.32-75 66-42.163 21.372-114.059 33.125-160.5 25-92.178-16.127-184.505-101.526-199.5-195-6.774-42.225.459-106.914 22-144.5 15.11-26.366 21.267-10.203 17 11-5.836 29.005-16.646 44.837-18 78.5" style="fill:url(#e)"/>/&gt;<path fill="#97b3bc" d="M326 352c-10.356 26.289-14.355 51.514-13 80 3.43 72.116 46.405 134.037 109.5 167L402 579c15.984 12.847 34.457 21.977 54 28-5.858 3.008 14.801 11.513 16.5 12 24.49 7.016 85.352 4.657 107.5-8 1.473 1.075 7.777-1.373 9-2 2.501 7.839-.628 16.242-2 24-99.711 34.747-210.238-8.92-263-99-12.644-21.587-21.886-50.167-25-75-1.028-33.564 4.929-69.314 20-99.5 1.2-2.404 3.478-7.875 7-7.5"/><path fill="url(#f)" d="M504.5 363c83.409-8.839 107.685 118.541 26 135-93.331 18.805-118.053-125.245-26-135m31 20c-20.689 2.589-18.45 38.06 6 35 21.041-2.633 18.419-38.056-6-35m-66 58c-7.532 1.912-8.753 15.632-1 19 16.622 7.22 19.885-23.795 1-19" style="fill:url(#f)"/>/&gt;<path fill="#f4f9fa" d="M661.5 364c1.673-.531 6.69 5.007 3 6-3.549.955-6.348-4.937-3-6"/><path fill="#9db2c1" d="M720.5 366c2.181-.572 4.6 5.51 3 6z"/><path fill="#f8fafb" d="M731 391c10.603 38.378 6.816 81.549-10 117.5 1.051-16.542 9.047-33.702 11-51 1.945-17.226.852-32.602-1-49.5-1.252-11.425-1.495-23.226-7-33.5 5.263 3.614 5.436 10.838 7 16.5"/><path fill="#aee5f5" d="M535.5 383c24.419-3.056 27.041 32.367 6 35-24.45 3.06-26.689-32.411-6-35"/><path fill="#64a9bf" d="M261 439c-3.009-.435-1.938 2.673-2 4.5-2.693 79.891 28.67 156.482 93 204.5l-2 3c-11.265-6.547-29.811-.123-36 11-22.967-37.812-48.552-74.414-61-117.5l-9-44.5c3.917-36.589 4.108-75.047 19-109-2.051 15.669-2.754 32.197-2 48"/><path fill="#fbfcfc" d="M680.5 396c2.711-.44 8.378 9.594 3 10-3.703.28-7.953-9.196-3-10"/><path fill="#deeaea" d="m197 404-57 6c-.353-.924-2.901-1.98-1-4 7.922-4.299 45.698-10.009 53.5-7 1.654.638 3.215 3.835 4.5 5"/><path fill="#a4d5dc" d="M225 400c.402-.926.854-1.899 2-2 .054 2.559.456 3.659-2 2"/><path fill="#dde9e9" d="M882 409c-11.344-.982-22.609-4.483-34-5-8.198-.372-15.939 1.521-24 1 1.918-1.684 3.53-5.144 6.5-6 6.744-1.945 52.09 2.913 53.5 8.5-.31.86-1.969 1.379-2 1.5"/><path fill="#015d89" d="M134 412c-8.63-8.883-11.27 11.822-15 17.5.417.92 3.533-1.953 5.5-1.5 9.004 2.074 12.905 55.763 13.5 65l-5 1c-.469-8.4-5.165-62.488-11.5-64-.209-.05-3.068 1.937-3.5 2.5.561 14.867-4.958 29.35-6 44-.934 13.139-2.306 63.37 0 74 .437 2.015 3.98 2.654 3 5.5-.016 6.825-.814 14.37 1 21-1.366 9.707 2.012 22.757 13 13-.624 4.766.465 10.351-1 16.5-.891 3.74-7.814 15.842-8 18-.393 4.556 5.501 11.168 2 13.5-16.04-34.843-22.386-200.915 1-229.5 3.657-4.47 5.986-4.506 11-6.5l-10 7.5c.572 2.789 4.332-2.51 5.5-2.5.336.003 6.246 3.531 4.5 5"/><path fill="#cbdce2" d="M197 404c2.389 2.167 3.302 3.248 5 6-10.456-1.958-49.981-6.343-53 7.5-.792 3.631.392 10.592 1 14.5-1.784-2.719-1.211-1.299-4-1-1.561-7.129-3.4-14.192-6-21z"/><path fill="#346f82" d="M709 465c-3.88 20.831-10.866 39.998-22 58-23.804 38.489-54.054 62.559-94 83-2.198-.35-5.158-.935-2.5-4 1.174-1.354 25.784-14.107 31-18 29.188-21.782 57.07-58.744 69.5-93 10.305-28.399 12.909-56.117 8-86l3-1c4.721 20.897 8.633 39.216 7 61"/><path fill="#afc4cd" d="M848 404c.715 4.638 10.65 4.823 14 6-9.174 27.037-8.527 52.039-8 80l-38-2c-1.929-26.451-15.891-62.028 8-83 8.061.521 15.802-1.372 24-1m-18.5 4c-8.549 1.632-14.363 24.694-7 31 1.128-3.953 12.984-27.973 12.5-29.5-.548-1.728-4.025-1.782-5.5-1.5"/><path fill="#c9dbe2" d="M882 409c-.668 2.603-1.263 5.442-2 8-2.394 8.311-5.629 16.318-7 25-7.017-14.286 10.95-24.286-11-32-3.35-1.177-13.285-1.362-14-6 11.391.517 22.656 4.018 34 5"/><path fill="#3d6b7f" d="M139 406c-1.901 2.02.647 3.076 1 4 2.6 6.808 4.439 13.871 6 21 4.857 22.185 5.103 40.567 6 63 .199 4.971-.121 10.023 0 15 .168 6.903-.773 15.439 0 22 .039.329-.052.676 0 1-3.795.129-4.296 4.153-5 7 .061-13.531 1.365-26.928 1-40.5-.438-16.294-4.829-73.535-13-85.5 7.724-.901-1.016-4.278 4-7"/><path fill="#004c76" d="M695 410c5.112 16.655-1.225 60.764-7 78-4.244 12.666-11.973 24.781-19 36l19-60.5c.954-10.263 2.555-20.707 3-31 .08-1.84-2.467-30.514 1.5-27.5-.402 4.956 2.403 4.685 2.5 5"/><path fill="#c5d6dd" d="M202 410c9.275 15.033 12.724 53.568 14 72-2.776 3.676-8.246 3.29-13 4-11.079 1.654-21.949 3.095-33 5-5.963 1.028-12.131 1.404-18 3-.897-22.433-1.143-40.815-6-63 2.789-.299 2.216-1.719 4 1 .401.611-.628 3.141.5 4 1.851-1.713-.469-3.801-.5-4-.608-3.908-1.792-10.869-1-14.5 3.019-13.843 42.544-9.458 53-7.5m-.5 31c-1.277.072-.068 5.22.5 1.5.174-.624-.012-1.527-.5-1.5"/><path fill="#fafcfc" d="M829.5 408c1.475-.282 4.952-.228 5.5 1.5.484 1.527-11.372 25.547-12.5 29.5-7.363-6.306-1.549-29.368 7-31"/><path fill="#f4fafc" d="M134 412c.315.324.96.942 1 1 8.171 11.965 12.562 69.206 13 85.5.365 13.572-.939 26.969-1 40.5-1.715 6.931-.367 12.374-1 19-.032.33.031.67 0 1-3.001.438-1.947-2.674-2-4.5-.339-11.717 1.651-23.27 1-35l-2 17-4 4.5c.599-15.87.02-32.168-1-48-.595-9.237-4.496-62.926-13.5-65-1.967-.453-5.083 2.42-5.5 1.5 3.73-5.678 6.37-26.383 15-17.5"/><path fill="#fafdfe" d="M896 413c-10.421 8.783-11.234 23.585-13 36l-9 74c-.277-23.432.844-85.225 10-105 1.625-3.51 3.374-6.552 6.5-9 2.801-.511 4.176 2.274 5.5 4"/><path fill="#d4e1e6" d="M873 442c-2.697 17.078-2.28 34.757-3 52l-16-3c-.008-.333.006-.667 0-1-.527-27.961-1.174-52.963 8-80 21.95 7.714 3.983 17.714 11 32"/><path fill="#4b6977" d="M297 416c-.583 14.478.201 28.65 2 43 3.114 24.833 12.356 53.413 25 75 1.632 3.905-.599 3.174-3 6-23.845-39.302-31.977-80.507-27-126.5z"/><path fill="#ddeff3" d="M885 484c-1.461 17.495-2.398 34.389-2 52-1.449.507-3.943-6.123-4-6.5-2.755-18.2 1.254-61.187 4-80.5 1.766-12.415 2.579-27.217 13-36 .991 1.292 6.107 13.723 6 14.5-.327 2.373-4.302-.246-5.5.5-8.122 5.061-10.642 45.723-11.5 56"/><path fill="#38687d" d="M884 418c-9.156 19.775-10.277 81.568-10 105 .044 3.749.906 6.817 1 10l-5-1c.129-.596-.05-1.357 0-2 .832-10.753-.474-24.652 0-36 .72-17.243.303-34.922 3-52 1.371-8.682 4.606-16.689 7-25z"/><path fill="#0499ce" d="M133 494c1.8 32.226.186 64.035-4 96-10.988 9.757-14.366-3.293-13-13 3.869-27.491 2.473-48.174 2-76-.164-9.655 3.799-22.021-1.5-30-2.137.102-2.47 28.776-2.5 32-.165 17.637 1.042 35.349 1 53 .98-2.846-2.563-3.485-3-5.5-2.306-10.63-.934-60.861 0-74 1.042-14.65 6.561-29.133 6-44 .432-.563 3.291-2.55 3.5-2.5 6.335 1.512 11.031 55.6 11.5 64m-13.5-38c-1.955 3.915-5.562 11.006-1 14z"/><path fill="#06a7da" d="M908 567c-3.009.435-1.938-2.671-2-4.5-.691-20.436 1.096-41.02 1-61.5-.07-14.974 2.661-31.243-4.5-45-.015 4.568-.64 10.027-.5 14.5.028.904 2.982.097 3 1 .007.362-2.011 1.643-2 2 .289 9.444.978 19.117 1 28.5.053 22.854-1.282 45.026 0 68-6.355-10.14 5.464-18.506-13-16-.905-35.806-.883-64.576 4-99.5 1.016-7.266-2.764-23.96 7.5-23.5 2.008.916 7.175 38.766 7.5 43.5 1.774 25.835 1.225 66.9-2 92.5"/><path fill="#cbdce2" d="M150 432c.031.199 2.351 2.287.5 4-1.128-.859-.099-3.389-.5-4"/><path fill="#428297" d="M261 439c5.644 118.237 90.994 218.737 209 237l-1 19c-42.786-5.106-82.711-21.406-117-47-64.33-48.018-95.693-124.609-93-204.5.062-1.827-1.009-4.935 2-4.5"/><path fill="url(#g)" d="M740 777c-102.793-80.461-366.583-82.211-465 6-27.152-72.524-42.715-155.475-38-233.5 1.01-16.71 5.233-32.994 7-49.5l9 44.5c12.448 43.086 38.033 79.688 61 117.5-14.687 26.398 13.871 52.385 37.5 35 13.571-9.984 12.728-37.73-1.5-46l2-3c34.289 25.594 74.214 41.894 117 47 90.322 10.779 182.71-22.274 241-92.5 28.734-34.618 54.402-85.943 52-131.5 1.652-10.258 2.544-20.605 3-31 4.12-.486 2.624.902 3 3.5 15.823 109.417 2.87 228.014-28 333.5m-61.5-132c-31.053 4.679-33.134 60.845 7 54 29.333-5.003 27.314-59.17-7-54" style="fill:url(#g)"/>/&gt;<path fill="#ebf3f6" d="M201.5 441c.488-.027.674.876.5 1.5-.568 3.72-1.777-1.428-.5-1.5"/><path fill="#98d9ee" d="M469.5 441c18.885-4.795 15.622 26.22-1 19-7.753-3.368-6.532-17.088 1-19"/><path fill="#f9fcfd" d="M672.5 442c3.669.597 11.099 3.835 6 8-4.856 3.966-11.741-4.747-6-8"/><path fill="#9cdfe8" d="M883 536c.199 8.815 1.249 17.27 2 26 1.525 17.722 3.512 44.633 11 60.5 1.249 2.647 4.768 1.562 5 3 .77 4.773-6.104 12.665-9 15.5-12.328-23.334-14.025-54.555-16-81-.66-8.842-.738-18.115-1-27-.094-3.183-.956-6.251-1-10l9-74c-2.746 19.313-6.755 62.3-4 80.5.057.377 2.551 7.007 4 6.5"/><path fill="#f0fbfc" d="m119.5 456-1 14c-4.562-2.994-.955-10.085 1-14"/><path fill="#ecf9fb" d="m907 501-3 1c-.022-9.383-.711-19.056-1-28.5-.011-.357 2.007-1.638 2-2-.018-.903-2.972-.096-3-1-.14-4.473.485-9.932.5-14.5 7.161 13.757 4.43 30.026 4.5 45"/><path fill="#7a9aa6" d="M276 471c14.995 93.474 107.322 178.873 199.5 195 46.441 8.125 118.337-3.628 160.5-25-145.93 84.677-337.908-3.045-365-170z"/><path fill="#f2fbfb" d="m118 501-4 2c.03-3.224.363-31.898 2.5-32 5.299 7.979 1.336 20.345 1.5 30"/><path fill="#6da4b6" d="m469 695 1-19c137.249 21.241 269.586-65.836 292-205 2.402 45.557-23.266 96.882-52 131.5-58.29 70.226-150.678 103.279-241 92.5"/><path fill="#a7bcc5" d="M217 511c-4.578.323-8.517-1.41-13-2l-1-23c4.754-.71 10.224-.324 13-4 .671 9.697.931 19.267 1 29"/><path fill="#316178" d="M885 562c-.751-8.73-1.801-17.185-2-26-.398-17.611.539-34.505 2-52z"/><path fill="#8da6b1" d="m203 486 1 23c-11.427-1.504-23.452-2.602-35-2l1-16c11.051-1.905 21.921-3.346 33-5"/><path fill="#025275" d="M691 491c-12.43 34.256-40.312 71.218-69.5 93-5.216 3.893-29.826 16.646-31 18-2.658 3.065.302 3.65 2.5 4-.223.114-2.712 2.339-4 3-1.223.627-7.527 3.075-9 2 3.079-1.759 7.19-4.497 8.5-8-42.936 16.196-88.641 17.516-132.5 4-19.543-6.023-38.016-15.153-54-28-13.332-10.715-28.634-28.3-39-42 11.672 10.747 22.5 22.119 35 32 53.409 42.22 124.115 56.921 188 29 34.638-15.138 63.138-42.29 83-74 7.027-11.219 14.756-23.334 19-36z"/><path fill="#8ca6b1" d="M854 490c.006.333-.008.667 0 1 .138 5.596-.325 11.48 0 17l-37 2c-.424-7.275-.471-14.745-1-22z"/><path fill="#abc1ca" d="m170 491-1 16c-5.473.285-11.498 1.432-17 2-.121-4.977.199-10.029 0-15 5.869-1.596 12.037-1.972 18-3"/><path fill="#fdfefe" d="M642 491c18.379-2.831 20.437 14.557 18 29.5-1.179 7.229-17.633 34.782-26 30.5-16.21-8.296-7.394-46.945 4-58 1.508-.833 1.562-1.624 4-2"/><path fill="#abc2cb" d="M870 494c-.474 11.348.832 25.247 0 36-4.733.019-9.26-.831-14-1-.535-6.966-1.594-14.101-2-21-.325-5.52.138-11.404 0-17z"/><path fill="#466777" d="M139 541c-.81 21.472-4.366 59.953-12 79.5-1.545 3.955-5.829 5.4-6 6-.245.857 5.745 14.519 8.5 15.5 8.226-1.205 15.534-72.809 16.5-83 .031-.33-.032-.67 0-1 17.954 13.139 45.203 12.554 67 15-2.941 27.712-1.469 85.484-41 82.5 3.215 1.57 13.24 2.817 16.5 2.5.464-.045 6.344-6.753 6.5-3-11.433 7.938-30.611 4.979-44.5 2-15.754-3.378-22.018-4.92-28.5-19 3.501-2.332-2.393-8.944-2-13.5.186-2.158 7.109-14.26 8-18 1.465-6.149.376-11.734 1-16.5 4.186-31.965 5.8-63.774 4-96l5-1c1.02 15.832 1.599 32.13 1 48"/><path fill="#3ecaeb" d="M116 577c-1.814-6.63-1.016-14.175-1-21 .042-17.651-1.165-35.363-1-53l4-2c.473 27.826 1.869 48.509-2 76"/><path fill="#47d2ed" d="M908 567c-.385 3.056-.941 7.096-2 10-.04-.398-1.73-2.154-2-7-1.282-22.974.053-45.146 0-68l3-1c.096 20.48-1.691 41.064-1 61.5.062 1.829-1.009 4.935 2 4.5"/><path fill="#c0d2da" d="M204 509c4.483.59 8.422 2.323 13 2 .092 12.951-1.109 25.22-2 38-1.116.156-.826-.643-1-1-13.463-27.563-36.149-18.698-62-17-.773-6.561.168-15.097 0-22 5.502-.568 11.527-1.715 17-2 11.548-.602 23.573.496 35 2"/><path fill="#9bb4be" d="M854 508c.406 6.899 1.465 14.034 2 21-13.192-.472-25.822.416-38 6-.19-8.436-.51-16.594-1-25z"/><path fill="#93d9e2" d="M146 559c-.966 10.191-8.274 81.795-16.5 83-2.755-.981-8.745-14.643-8.5-15.5.171-.6 4.455-2.045 6-6 7.634-19.547 11.19-58.028 12-79.5l4-4.5 2-17c.651 11.73-1.339 23.283-1 35 .053 1.826-1.001 4.938 2 4.5"/><path fill="#0f3e58" d="M593 606c39.946-20.441 70.196-44.511 94-83-8.683 17.353-22.188 34.92-36.5 48-7.966 7.28-48.317 36.463-57.5 35"/><path fill="#819ca8" d="M214 548c-5.162.312-10.913-4.155-15.5-5-13.304-2.451-44.06 4.282-46.5-11-.052-.324.039-.671 0-1 25.851-1.698 48.537-10.563 62 17"/><path fill="#78939f" d="M856 529c.308 4.01.547 8.005 1 12-12.727 2.124-26.236 1.174-39 0-.026-1.989.045-4.012 0-6 12.178-5.584 24.808-6.472 38-6"/><path fill="#87a4b1" d="M870 530c-.05.643.129 1.404 0 2-1.47 6.8-7.025 8.003-13 9-.453-3.995-.692-7.99-1-12 4.74.169 9.267 1.019 14 1"/><path fill="#688694" d="M152 532c2.44 15.282 33.196 8.549 46.5 11 4.587.845 10.338 5.312 15.5 5 .174.357-.116 1.156 1 1-.567 8.136-1.14 15.897-2 24-21.797-2.446-49.046-1.861-67-15 .633-6.626-.715-12.069 1-19 .704-2.847 1.205-6.871 5-7"/><path fill="#60808e" d="M875 533c.262 8.885.34 18.158 1 27-15.973 12.602-38.035 8.952-57 13 .035-10.43-.862-21.443-1-32 12.764 1.174 26.273 2.124 39 0 5.975-.997 11.53-2.2 13-9z"/><path fill="#395866" d="M587 633c34.064-11.87 68.273-36.08 91-64-94.244 123.71-278.53 100.337-357-29 2.401-2.826 4.632-2.095 3-6 52.762 90.08 163.289 133.747 263 99"/><path fill="#0086c0" d="M904 570c.27 4.846 1.96 6.602 2 7 .369 3.694.709 2.725 0 7-1.629 9.819-3.145 10.273-13 8-1.639-14.978-1.628-23.295-2-38 18.464-2.506 6.645 5.86 13 16"/><path fill="#446473" d="M876 560c1.975 26.445 3.672 57.666 16 81-9.656 9.452-36.408 15.483-50.5 14-37.523-3.948-22.581-57.88-22.5-82 18.965-4.048 41.027-.398 57-13"/><path fill="#007492" d="m582 588 4 10c-63.885 27.921-134.591 13.22-188-29l2-7c51.167 43.306 120.242 52.274 182 26"/><path fill="#015e8d" d="M893 592c9.855 2.273 11.371 1.819 13-8 3.214-.155 2.119 6.769 2 8.5-.31 4.522-3.404 30.698-6.5 31.5-10.088-7.14-7.352-21.51-8.5-32"/><path fill="#0a4159" d="M222 601c-.955 34.556.452 61.146 6 95.5 5.946 36.823 15.308 73.526 28 108.5-3.269 5.125-4.608 10.714-8.5 15-.868-3.653-2.842-6.724-4.5-10-14.915-29.471-36.92-139.96-34-172 .542-5.951 5.235-13.208 6-19.5l4 4z"/><path fill="#c9d9de" d="M580 611c-22.148 12.657-83.01 15.016-107.5 8-1.699-.487-22.358-8.992-16.5-12 43.859 13.516 89.564 12.196 132.5-4-1.31 3.503-5.421 6.241-8.5 8"/><path fill="#086389" d="M678.5 645c34.314-5.17 36.333 48.997 7 54-40.134 6.845-38.053-49.321-7-54m-11.5 9c-2.824 2.274-6.523 5.635-8 9-16.769 38.204 57.756 45.581 41-2.5l3 1c-9.235-13.865-21.214-19.408-36-7.5"/><path fill="#01b2e0" d="M659 663c15.341-5.5 25.175-14.026 38 1.5-2.383-10.551-15.296-12.727-24.5-11.5-1.412.188-2.094 4.794-5.5 1 14.786-11.908 26.765-6.365 36 7.5l-3-1c16.756 48.081-57.769 40.704-41 2.5"/><path fill="#065d82" d="M350 651c14.228 8.27 15.071 36.016 1.5 46-23.629 17.385-52.187-8.602-37.5-35 6.189-11.123 24.735-17.547 36-11m-32 11c-3.012 2.581-4.125 4.039-5 8-6.996 31.678 45.238 39.269 44 4.5l3 3c2.899-25.036-28.749-36.112-42-15.5"/><path fill="#01b2e0" d="M313 670c3.006-1.195 6.874-7.823 9.5-9 .245-.11 1.68 2.524 3 2 2.176-.863 6.58-4.905 7-5 8.485-1.916 15.408 5.298 20.5 10.5-2.954-15.149-25.472-14.664-35-6.5 13.251-20.612 44.899-9.536 42 15.5l-3-3c1.238 34.769-50.996 27.178-44-4.5"/><path fill="#e1f5fb" d="M659 663c1.477-3.365 5.176-6.726 8-9 3.406 3.794 4.088-.812 5.5-1 9.204-1.227 22.117.949 24.5 11.5-12.825-15.526-22.659-7-38-1.5"/><path fill="#cff0f7" d="M313 670c.875-3.961 1.988-5.419 5-8 9.528-8.164 32.046-8.649 35 6.5-5.092-5.202-12.015-12.416-20.5-10.5-.42.095-4.824 4.137-7 5-1.32.524-2.755-2.11-3-2-2.626 1.177-6.494 7.805-9.5 9"/><path fill="#09354a" d="M740 777c10.434 8.167 20.445 18.364 27 30 1.055 1.872 7.148 12.543 5 16-2.637 4.244-8.256 3.55-13 6-2.331-41.029-84.591-75.362-118.5-85-65.274-18.553-134.595-20.97-201.5-11-44.415 6.619-171.25 39.244-176 95-3.048-1.699-11.87-1.705-14-3-2.395-1.456-6.658-11.588-6-15 1.658 3.276 3.632 6.347 4.5 10 3.892-4.286 5.231-9.875 8.5-15 5.895-9.243 10.879-14.721 19-22 98.417-88.211 362.207-86.461 465-6"/><path fill="url(#h)" d="M759 829c2.918 51.362-110.541 81.081-149.5 88-27.3 4.848-55.764 7.41-83.5 8l42-29c33.499-3.184 144.945-20.431 155-58.5 11.213-42.455-85.763-71.182-115.5-77.5-44.839-9.527-90.879-10.754-136.5-7-6.176-10.735-22.427-13.234-32-20 66.905-9.97 136.226-7.553 201.5 11 33.909 9.638 116.169 43.971 118.5 85" style="fill:url(#h)"/>/&gt;<path fill="url(#i)" d="M439 733c9.573 6.766 25.824 9.265 32 20-44.678 3.677-121.009 18.305-155.5 48-62.515 53.822 58.467 82.461 94 89 51.593 9.494 106.262 10.965 158.5 6l-42 29c-8.931.19-18.071.224-27 0-38.751-.97-82.936-6.44-120.5-16-32.968-8.39-119.15-38.148-115.5-81 4.75-55.756 131.585-88.381 176-95" style="fill:url(#i)"/>/&gt;<path fill="url(#j)" d="M568 896c-52.238 4.965-106.907 3.494-158.5-6-35.533-6.539-156.515-35.178-94-89 34.491-29.695 110.822-44.323 155.5-48 45.621-3.754 91.661-2.527 136.5 7 29.737 6.318 126.713 35.045 115.5 77.5-10.055 38.069-121.501 55.316-155 58.5m-77-93c-7.549.298-8.541 15.209-8 21 .279 2.99 1.662 6.307 3 9 3.876 7.799 13.163 14.368 22 15-.603-.012-4.545 2.178-10.5 2-4.12-.123-20.875-5.144-21.5-2.5 20.206 19.282 50.654 19.384 70-1l-22.5 3.5c-4.092 1.88-8.025-2.009-8.5-2 23.823-4.598 32.343-36.275 11-50-3.901-2.509-10.593-4.478-15.5-4-5.082.496-16.111 4.967-19.5 9" style="fill:url(#j)"/>/&gt;<path fill="#0b5c80" d="M526 798c.504 5.019 6.65 8.777 8 13.5 6.485 22.688-16.626 44.274-37.5 30.5-3.34-2.204-5.989-10.766-10.5-9-1.338-2.693-2.721-6.01-3-9 3.296-6.447 3.101-15.17 8-21 3.389-4.033 14.418-8.504 19.5-9 4.907-.478 11.599 1.491 15.5 4m-27 5c-23.263 10.838-6.347 45.525 18.5 38 5.137-1.556 13.621-10.826 14.5-16 .486-2.861.038-13.768-2.5-15-.164-.079-1.514 1.877-3.5 1-3.624-11.071-18.026-12.181-27-8"/><path fill="#4d7a87" d="M515 848c-2.315.046-4.685.045-7 0-8.837-.632-18.124-7.201-22-15 4.511-1.766 7.16 6.796 10.5 9 20.874 13.774 43.985-7.812 37.5-30.5-1.35-4.723-7.496-8.481-8-13.5 21.343 13.725 12.823 45.402-11 50"/><path fill="#e5f6fa" d="M526 811c-.082-.036.018 1.577-1.5 1-1.145-.436-7.655-10.564-15-10-3.404.261-8.834 8.409-11.5 4 .743-.976 1.499-1.127 1-3 8.974-4.181 23.376-3.071 27 8"/><path fill="#54757d" d="M491 803c-4.899 5.83-4.704 14.553-8 21-.541-5.791.451-20.702 8-21"/><path fill="#4abfdd" d="M526 811c1.986.877 3.336-1.079 3.5-1 2.538 1.232 2.986 12.139 2.5 15l-40.5-3c-.329-8.316 2.088-10.204 6.5-16 2.666 4.409 8.096-3.739 11.5-4 7.345-.564 13.855 9.564 15 10 1.518.577 1.418-1.036 1.5-1"/><path fill="#7ad2e4" d="M498 806c-4.412 5.796-6.829 7.684-6.5 16l40.5 3c-.879 5.174-9.363 14.444-14.5 16-24.847 7.525-41.763-27.162-18.5-38 .499 1.873-.257 2.024-1 3"/><path fill="#152a36" d="M773 824c4.832 41.175-62.808 72.936-94.5 84-62.267 21.738-133.83 27.122-199.5 24 .292-.011 4.995-1.953 5.5-2 2.075-.193 20.902 1.272 18.5-2.5l-4-2.5c8.929.224 18.069.19 27 0 27.736-.59 56.2-3.152 83.5-8 38.959-6.919 152.418-36.638 149.5-88 4.744-2.45 10.363-1.756 13-6 .868-.107.912.249 1 1"/><path fill="#1d4253" d="M263 828c-3.65 42.852 82.532 72.61 115.5 81 37.564 9.56 81.749 15.03 120.5 16l4 2.5c2.402 3.772-16.425 2.307-18.5 2.5-.505.047-5.208 1.989-5.5 2-56.424 2.14-173.596-25.872-213-68.5-9.529-10.309-17.908-24.109-17-38.5 2.13 1.295 10.952 1.301 14 3"/><path fill="#13242e" d="M508 848c2.315.045 4.685.046 7 0 .475-.009 4.408 3.88 8.5 2l22.5-3.5c-19.346 20.384-49.794 20.282-70 1 .625-2.644 17.38 2.377 21.5 2.5 5.955.178 9.897-2.012 10.5-2"/></svg>