<svg xmlns="http://www.w3.org/2000/svg" width="1024" height="1024"><defs><linearGradient id="a" x1="471.568" x2="607.696" y1="176.618" y2="220.416" gradientUnits="userSpaceOnUse"><stop offset="0%" style="stop-color:#55c0dc"/><stop offset="100%" style="stop-color:#2ba4c3"/></linearGradient></defs><defs><linearGradient id="b" x1="396.856" x2="609.99" y1="190.116" y2="248.55" gradientUnits="userSpaceOnUse"><stop offset="0%" style="stop-color:#65cbe6"/><stop offset="100%" style="stop-color:#148fb0"/></linearGradient></defs><defs><linearGradient id="c" x1="614.662" x2="167.507" y1="363.223" y2="413.741" gradientUnits="userSpaceOnUse"><stop offset="6.889%" style="stop-color:#0d8cae"/><stop offset="76.445%" style="stop-color:#89e2f6"/></linearGradient></defs><defs><linearGradient id="d" x1="442.803" x2="664.232" y1="489.428" y2="731.405" gradientUnits="userSpaceOnUse"><stop offset="0%" style="stop-color:#e0f1f6"/><stop offset="100%" style="stop-color:#8aa1af"/></linearGradient></defs><defs><linearGradient id="e" x1="699.786" x2="863.82" y1="508.192" y2="569.165" gradientUnits="userSpaceOnUse"><stop offset="0%" style="stop-color:#024b6f"/><stop offset="100%" style="stop-color:#155f95"/></linearGradient></defs><defs><linearGradient id="f" x1="371.298" x2="371.695" y1="533.871" y2="602.87" gradientUnits="userSpaceOnUse"><stop offset="0%" style="stop-color:#183c48"/><stop offset="100%" style="stop-color:#29879c"/></linearGradient></defs><defs><linearGradient id="g" x1="644.567" x2="650.279" y1="533.179" y2="602.946" gradientUnits="userSpaceOnUse"><stop offset="0%" style="stop-color:#173a46"/><stop offset="100%" style="stop-color:#20778b"/></linearGradient></defs><path fill="#0d799a" d="m605 162-2 6c-5.103-2.928-12.595-6.728-18-9a199 199 0 0 0-5-2c-5.661-4.909-16.156-8.12-23.5-10-33.023-8.455-63.563-6.005-97-4-5.18 1.043-37.959 11.369-40 11-.361-.065-.971-1.166-1.5-1.5l5-3.5c61.968-18.679 124.486-18.821 182 13"/><path fill="#158fb0" d="M580 157c-71.212-27.617-156.217-11.901-222 23.5 11.004-1.036 22.471-4.266 33-7.5 41.786-5.203 83.268 1.673 122.5 16 12.39 4.525 24.753 12.354 36.5 17l-2 2c-55.755-20.94-111.069-40.172-171.5-26-.92.216-4.201 1.284-3.5 3-41.598 7.318-79.073 28.544-106 61.5 13.64-7.956 28.494-12.588 43-18.5 54.769-13.17 110.828 3.778 165 12l-2 4c-9.67-1.432-19.317-2.655-29-4-49.468-6.869-109.907-16.784-157.5 4-48.945 21.375-83.477 70.151-106.5 116.5l28-24.5c29.417-19.865 77.43-29.315 112.5-26 .932.088 10.25.671 9 3-28.499.612-58.318 3.65-84.5 15-55.729 15.881-91.61 71.199-100 126-2.885 18.846-3.945 37.907-2.5 57 18.304-94.012 104.109-159.466 193.5-181 7.154-1.723 13.735-2.888 21-4 5.801-.888 11.763-1.704 17.5-3l16 1c-51.696 8.936-102.058 19.387-145.5 50-24.185 17.043-44.861 38.972-62 63-17.653 24.748-30.252 49.507-37 79.5-1.386 6.16-2.848 14.23-2.5 20.5 31-64.771 95.123-111.054 164.5-126-78.763 27.405-170.751 102.942-176 192h-3c.033-19.421 5.772-35.938 9-54.5 3.609-20.756-2.042-48.52-1-72 1.375-31.002 8.002-60.807 23-88 18.795-34.077 45.584-85.395 72-113 54.605-57.063 113.833-103.24 191-126.5l-5 3.5c.529.334 1.139 1.435 1.5 1.5 2.041.369 34.82-9.957 40-11 33.437-2.005 63.977-4.455 97 4 7.344 1.88 17.839 5.091 23.5 10"/><path fill="#89def6" d="M580 157c1.62.628 3.401 1.328 5 2 4.632 5.854 11.486 27.08 1.5 30-5.087 1.487-29.586-14.926-37-18-55.946-23.197-103.552-14.88-158.5 2-10.529 3.234-21.996 6.464-33 7.5 65.783-35.401 150.788-51.117 222-23.5"/><path fill="url(#a)" d="M585 159c5.405 2.272 12.897 6.072 18 9 .547.314 2.577 2.115 4 3 8.605 12.137 13.464 17.598 18 32-10.794 29.864-54.174 11.237-75 3-11.747-4.646-24.11-12.475-36.5-17-39.232-14.327-80.714-21.203-122.5-16 54.948-16.88 102.554-25.197 158.5-2 7.414 3.074 31.913 19.487 37 18 9.986-2.92 3.132-24.146-1.5-30" style="fill:url(#a)"/>/&gt;<path fill="#005e7d" d="M665 200c4.673 4.379 14.942 4.965 21.5 7 21.852 6.781 51.958 21.723 69 37 1.934 1.734 1.849 1.878.5 4-4.655-3.753-13.581-8.933-19-12-26.04-14.738-55.922-22.051-82-2-13.642 10.489-19.37 19.202 2.5 22 33.264 4.256 55.681-5.678 91 8 7.14 2.765 33.933 20.735 36 21 1.326.17 1.708-.739 2.5-1.5-1.86-.879-1.554-2.611-2-3.5.095-3.565 1.479-2.594 4-2 14.66 21.741 41.559 61.112 50 84.5 11.222 31.09 13.855 65.599 13 98.5-.123-.218-1.721-1.823-3-4-.069-24.153-2.643-63.535-13-85.5-.94-1.993-1.488-2.984-4-2.5-8.742-28.531-25.562-54.568-51-71 .231-3.866-6.785-7.486-9.5-9-28.301-15.782-109.617-36.889-138-20-5.603 3.334-11.746 21.267-12.5 28-40.191 88.258-110.233 122.844-202 143-1.678-1.238-10.616-5.255-13-6-2.417-.755-4.376-1.852-7-2-7.016-.396-23.142 2.374-29 6-17.947-1.517-70.724 16.151-88.5 24-2.263.999-7.77 3.407-8.5 6-.394-.625-1.938-1.893-2-3 2.537-1.611 8.691-3.503 11-5 21.817-9.586 43.817-18.122 67-24 46.374-11.758 88.755-16.803 135-33 67.848-23.763 117.083-62.606 142-132.5 1.832-5.139 6.558-17.574 4-20.5-.174-.2.382-1.844-.5-2-26.231 16.818-62.678 11.907-92.5 8l1-6c22.584 2.376 87.693 6.323 103-13.5 19.893-25.762-14.684-53.484-34-65.5-1.423-.885-3.453-2.686-4-3l2-6c10.397 5.752 20.791 11.738 29.5 20 3.343 3.171 12.924 17.624 14 18 2.849.996 12.397-.541 16.5 0m-16.5 2c3.924 10.791 3.743 20.02 1 31 6.9-3.739 8.695-36.791-1-31"/><path fill="url(#b)" d="M538 250c-21.117-2.221-42.03-6.817-63-10-54.172-8.222-110.231-25.17-165-12 47.785-19.475 76.624-26.913 130.5-20 16.908 2.169 81.56 22.022 92 18 14.441-5.564-27.494-28.033-32-30-39.158-17.092-85.973-18.306-127.5-11-.701-1.716 2.58-2.784 3.5-3 60.431-14.172 115.745 5.06 171.5 26 12.297 4.619 25.393 13.615 38.5 17 16.596 4.286 45.894 7.571 41.5-18.5-1.088-6.456-2.907-3.205-3-3.5-4.536-14.402-9.395-19.863-18-32 19.316 12.016 53.893 39.738 34 65.5-15.307 19.823-80.416 15.876-103 13.5" style="fill:url(#b)"/>/&gt;<path fill="#90dff7" d="M310 228c-14.506 5.912-29.36 10.544-43 18.5 26.927-32.956 64.402-54.182 106-61.5 41.527-7.306 88.342-6.092 127.5 11 4.506 1.967 46.441 24.436 32 30-10.44 4.022-75.092-15.831-92-18-53.876-6.913-82.715.525-130.5 20"/><path fill="#015573" d="M789 278c-2.521-.594-3.905-1.565-4 2-3.894-7.758-21.832-26.221-29-32 1.349-2.122 1.434-2.266-.5-4-17.042-15.277-47.148-30.219-69-37-6.558-2.035-16.827-2.621-21.5-7 53.236 7.02 94.293 33.945 124 78"/><path fill="#0b799a" d="m548 208 2-2c20.826 8.237 64.206 26.864 75-3 .093.295 1.912-2.956 3 3.5 4.394 26.071-24.904 22.786-41.5 18.5-13.107-3.385-26.203-12.381-38.5-17"/><path fill="#067c9e" d="M648.5 202c9.695-5.791 7.9 27.261 1 31 2.743-10.98 2.924-20.209-1-31"/><path fill="#1197ba" d="M737 236c-3.853 3.46 11.25 14.317 4.5 17-1.82.723-12.981-7.148-15.5-8 1.512.069.125-4.313 0-4.5-6.923-10.345-55.976-19.589-56 1.5-4.708.489-9.432 3.2-14.5 2l-.5-10c26.078-20.051 55.96-12.738 82 2"/><path fill="#2cacd0" d="M726 245c-19.287-6.525-36.223-5.055-56-3 .024-21.089 49.077-11.845 56-1.5.125.187 1.512 4.569 0 4.5"/><path fill="#aeeefd" d="M444 240c-1.803 2.798-1.399 3.676 1.5 5 6.254 2.857 23.565 4.989 31.5 7l-1 4c-62.038-15.172-119.098-16.643-178.5 9-34.559 14.919-67.64 40.431-89.5 71l-28 24.5c23.023-46.349 57.555-95.125 106.5-116.5 47.593-20.784 108.032-10.869 157.5-4"/><path fill="#0686a8" d="M670 242c19.777-2.055 36.713-3.525 56 3 2.519.852 13.68 8.723 15.5 8 6.75-2.683-8.353-13.54-4.5-17 5.419 3.067 14.345 8.247 19 12 7.168 5.779 25.106 24.242 29 32 .446.889.14 2.621 2 3.5-.792.761-1.174 1.67-2.5 1.5-2.067-.265-28.86-18.235-36-21-35.319-13.678-57.736-3.744-91-8-21.87-2.798-16.142-11.511-2.5-22l.5 10c5.068 1.2 9.792-1.511 14.5-2"/><path fill="url(#c)" d="M473 244c21.366 3.164 42.544 9.189 64 12 29.822 3.907 66.269 8.818 92.5-8 .882.156.326 1.8.5 2-3.768 3.066-5.651 7.941-8 12-17.26 25.191-35.863 49.289-58.5 70-10.297 9.421-45.394 38.501-57.5 41-67.042 13.84-130.694 14.581-198 38-69.377 14.946-133.5 61.229-164.5 126-.348-6.27 1.114-14.34 2.5-20.5 6.748-29.993 19.347-54.752 37-79.5l62-63c43.442-30.613 93.804-41.064 145.5-50l-16-1c-5.737 1.296-11.699 2.112-17.5 3 .355-1.535-2.572-4.584-3.5-5-14.841-6.649-90.325 1.821-108.5 7 26.182-11.35 56.001-14.388 84.5-15 1.25-2.329-8.068-2.912-9-3-35.07-3.315-83.083 6.135-112.5 26 21.86-30.569 54.941-56.081 89.5-71 59.402-25.643 116.462-24.172 178.5-9 11.366 2.78 23.577 5.863 34.5 10 22.236 8.422 56.661 38.474 72.5 8.5-36.293-1.474-71.014-13.633-106-22.5-7.935-2.011-25.246-4.143-31.5-7-2.899-1.324-3.303-2.202-1.5-5 9.683 1.345 19.33 2.568 29 4" style="fill:url(#c)"/>/&gt;<path fill="#0d799a" d="m538 250-1 6c-21.456-2.811-42.634-8.836-64-12l2-4c20.97 3.183 41.883 7.779 63 10"/><path fill="#0d87aa" d="m484 403-3-10c55.263-22.935 111.284-79.65 141-131 2.349-4.059 4.232-8.934 8-12 2.558 2.926-2.168 15.361-4 20.5-24.917 69.894-74.152 108.737-142 132.5"/><path fill="#48c2e6" d="m476 256 1-4c34.986 8.867 69.707 21.026 106 22.5-15.839 29.974-50.264-.078-72.5-8.5-10.923-4.137-23.134-7.22-34.5-10"/><path fill="#68d4f1" d="M622 262c-29.716 51.35-85.737 108.065-141 131-39.958 16.583-90.749 27.178-133 40-4.109 1.247-26.068 9.205-27.5 9-4.894-.699 6.094-5.62 7-6 42.813-17.938 94.669-25.27 139-43 6.421-2.568 24.647-8.328 24.5-15 5.196-1.096 11.272-.887 15-5 12.106-2.499 47.203-31.579 57.5-41 22.637-20.711 41.24-44.809 58.5-70"/><path fill="#006888" d="M781 298c-31.784-20.531-104.159-45.605-133-11-6.286-3.016-12.923-5.632-19.5-8-1.511.614-3.677 11.191-4.5 13-.677 1.488-2.274 3.405-3 5 .754-6.733 6.897-24.666 12.5-28 28.383-16.889 109.699 4.218 138 20 2.715 1.514 9.731 5.134 9.5 9"/><path fill="#29a3c6" d="M781 298c25.438 16.432 42.258 42.469 51 71 5.681 18.543 10.817 39.626 6.5 59-43.484-56.388-98.697-121.075-173.5-131-5.272-3.394-11.379-7.304-17-10 28.841-34.605 101.216-9.531 133 11m-86.5-10c-2.294.292-6.312 1.369-8.5 2.5-.288 2.922 41.137 8.073 46.5 9.5 28.819 7.67 49.277 23.595 69.5 44.5-.927-40.415-75.995-60.504-107.5-56.5"/><path fill="#fcfdfd" d="M648 287c5.621 2.696 11.728 6.606 17 10 11.154 7.18 22.605 16.657 32 26 5.845 5.812 11.882 12.541 17 19 15.975 20.16 29.068 43.868 38 68l-39-48c-13.842-19.507-34.306-36.688-54-50-7.088-5.955-13.07-8.72-21-13-4.561-2.462-8.874-5.671-14-7 .823-1.809 2.989-12.386 4.5-13 6.577 2.368 13.214 4.984 19.5 8"/><path fill="#30b0d4" d="M694.5 288c31.505-4.004 106.573 16.085 107.5 56.5-20.223-20.905-40.681-36.83-69.5-44.5-5.363-1.427-46.788-6.578-46.5-9.5 2.188-1.131 6.206-2.208 8.5-2.5"/><path fill="#badae4" d="M638 299c-29.966 84.395-108.401 151.221-197 166-3.356-4.578-18.167-22.172-22-25 91.767-20.156 161.809-54.742 202-143 .726-1.595 2.323-3.512 3-5 5.126 1.329 9.439 4.538 14 7"/><path fill="#04789b" d="M832 369c2.512-.484 3.06.507 4 2.5 10.357 21.965 12.931 61.347 13 85.5-26.278-44.722-61.005-78.302-105-107-6.917-4.512-13.82-8.903-21-13-8.513-4.857-17.811-8.599-26-14-9.395-9.343-20.846-18.82-32-26 74.803 9.925 130.016 74.612 173.5 131 4.317-19.374-.819-40.457-6.5-59"/><path fill="url(#d)" d="M659 312c24.153 20.294 53.888 66.988 65 96.5 2.177 5.783 10.218 30.852 10 35.5-20.764-11.416-41.923-18.919-66-19 .437-3.002-2.675-1.947-4.5-2-44.069-1.271-58.556 7.604-83.5 42-31.671 43.672-36.521 95.218-32 146.5.454 5.15 1.421 19.599 3 26 .212.86 1.963.397 2 .5.267.75-1.589 1.424-1 2.5 2.837 5.185 9.202 6.183 14.5 5.5l8.5-5c1.802-.152 6.119-4.018 6.5-4 3.694.174 22.185 20.682 27 24 25.476 17.558 74.674 19.332 103 8-35.06 104.979-144.078 152.099-249 149-1.623 1.233-1.852 1.836 0 3 7.027 4.417 21.571 3.149 28.5 8-112.889-11.513-170.809-63.435-203-170 2.679-.378 1.785-1.232 4.5 0 7.33 3.326 14.082 10.004 23 13 36.019 12.099 79.869 1.834 110-20 2.74-1.985 12.99-13.752 15-14 2.887-.356 19.729 8.696 22.5 1.5.773-2.008-.074-16.695 0-20.5.039-1.988.01-4.011 0-6l7-4c-.101 7.421-1.824 14.951-1 22.5 2.853-19.97 3.835-43.354 3-64-1.51-37.318-8.71-72.094-31-102.5 88.599-14.779 167.034-81.605 197-166 7.93 4.28 13.912 7.045 21 13M465 726c-5.997-2.345-25.885-16.012-16 3 3.71 7.135 14.777 14.686 17 18.5 3.282 5.629 2.755 13.883 9 22 20.823 27.066 65.004 20.038 76-12.5 1.009-2.985 1.598-7.759 2-11 3.524-2.607 7.393-8.349 10-12 16.144-22.612 4.648-15.678-11-9-2.156-1.295-1.693-4.231-3-6-1.196-1.618-19.34-19.314-21-15.5l5.5 5.5c-2.455-.541-6.591-4.427-8.5-5l-7-5c11.438.098 17.442 3.503 25.5 12-15.863-24.859-52.752-21.038-69.5 1.5-3.256 4.381-3.65 13.228-9 13.5" style="fill:url(#d)"/>/&gt;<path fill="#70858e" d="M713 362c14.321 20.181 38.256 69.634 37 94h-1c-.316-2.719-13.242-9.807-16-11 .835.101.964-.229 1-1 .218-4.648-7.823-29.717-10-35.5-11.112-29.512-40.847-76.206-65-96.5 19.694 13.312 40.158 30.493 54 50"/><path fill="#b5f1fe" d="M357 326c-7.265 1.112-13.846 2.277-21 4 .483-3.038-5.02-2.165-6.5-2-28.218 3.143-79.672 21.127-104 36-36.014 22.018-59.837 53.996-80.5 90 8.39-54.801 44.271-110.119 100-126 18.175-5.179 93.659-13.649 108.5-7 .928.416 3.855 3.465 3.5 5"/><path fill="#024664" d="m723 337-9 5c-5.118-6.459-11.155-13.188-17-19 8.189 5.401 17.487 9.143 26 14"/><path fill="#6fd3ec" d="M336 330c-89.391 21.534-175.196 86.988-193.5 181-1.445-19.093-.385-38.154 2.5-57 20.663-36.004 44.486-67.982 80.5-90 24.328-14.873 75.782-32.857 104-36 1.48-.165 6.983-1.038 6.5 2"/><path fill="url(#e)" d="M744 350c-1.169 1.727-2.982.741-1.5 4 1.31 2.88 42.179 33.475 49 40 66.704 63.809 101.965 154.348 94.5 242.5-.039.463-5.244 7.562 1 7.5-3.384 18.157-9.296 34.367-17 51l-34 49.5c-5.018 6.379-8.254 6.312-15 9.5 14.534-15.458 23.242-28.65 32-48 31.368-69.299 20.317-144.518-14-210.5 7.486 19.688 14.754 39.568 18 60.5-2.423 2.378.966 5.185-4 5.5 6.703 43.231.636 83.439-18 122.5 6.179-54.126-7.657-108.554-31-157 3.513-2.509 11.004-6.512 11.5-11-7.902 7.609-32.178 14.17-42 11-3.009-.971-.24-3.101-2.5-4v-1c15.902-5.567 36.488-11.145 44.5-27a223 223 0 0 1-6.5 5c.934-7.888-3.451-11.562-7-17-.692-1.06-.96-.942-1-1-8.047-11.754-20.734-27.561-34-33-1.298-5.98-4.816-17.726-9-22-1.592-6.199-3.825-11.124-6-17-8.932-24.132-22.025-47.84-38-68l9-5c7.18 4.097 14.083 8.488 21 13" style="fill:url(#e)"/>/&gt;<path fill="#064264" d="M849 457c1.279 2.177 2.877 3.782 3 4 31.784 56.166 46.994 118.645 35 183-6.244.062-1.039-7.037-1-7.5 7.465-88.152-27.796-178.691-94.5-242.5-6.821-6.525-47.69-37.12-49-40-1.482-3.259.331-2.273 1.5-4 43.995 28.698 78.722 62.278 105 107"/><path fill="#a8bcc5" d="M752 410c2.175 5.876 4.408 10.801 6 17 6.059 23.591 15.922 66.112-22 60.5 7.244-7.894 13.446-20.746 14-31.5 1.256-24.366-22.679-73.819-37-94z"/><path fill="#c2f9fe" d="M506 373c-3.728 4.113-9.804 3.904-15 5-46.991 9.908-95.895 11.193-142.5 23C243.953 427.487 139.526 509.312 134 624.5c-2.442.603-2.94-9.852-3-11-.197-3.794.794-7 1-10.5 5.249-89.058 97.237-164.595 176-192 67.306-23.419 130.958-24.16 198-38"/><path fill="#a5effd" d="M183 437c17.139-24.028 37.815-45.957 62-63z"/><path fill="#1796b7" d="m348 433 1 3c-23.183 5.878-45.183 14.414-67 24 5.746-3.727 10.082-9.847 18-11.5-1.899-1.65-8.347 1.637-10.5 2.5-32.631 13.089-67.748 38.414-88 67l6.5-5c-15.586 17.446-27.816 37.896-36 60-19.41 52.422-10.1 119.184 14 169-33.963-32.676-57.079-92-57-139h3c-.206 3.5-1.197 6.706-1 10.5.06 1.148.558 11.603 3 11 5.526-115.188 109.953-197.013 214.5-223.5 46.605-11.807 95.509-13.092 142.5-23 .147 6.672-18.079 12.432-24.5 15-44.331 17.73-96.187 25.062-139 43-.906.38-11.894 5.301-7 6 1.432.205 23.391-7.753 27.5-9"/><path fill="#239ebf" d="m481 393 3 10c-46.245 16.197-88.626 21.242-135 33l-1-3c42.251-12.822 93.042-23.417 133-40"/><path fill="#fcfcfd" d="M668 425c-26.554-.089-52.882 9.156-69 31-50.447 33.178-43.413 104.896-46.5 158-5.179-50.556-1.673-105.938 27.5-149 24.944-34.396 39.431-43.271 83.5-42 1.825.053 4.937-1.002 4.5 2"/><path fill="#314951" d="M668 425c24.077.081 45.236 7.584 66 19-.036.771-.165 1.101-1 1-38.375-16.602-99.172-11.192-133.5 13l-.5-2c16.118-21.844 42.446-31.089 69-31"/><path fill="#141113" d="M767 449c.603 2.78.531 6.241 1 9l-5 23.5c3.436 2.012 5.646-1.565 8-2.5 3.066-1.217 5.198-3.196 8-3.5.333.734-5.939 6.569-7 7.5-7.247 6.356-16.607 10.015-25 14.5 8.423.949 17.774.23 26-1.5 10.259-2.157 20.177-7.277 28-14 .04.058.308-.06 1 1-8.306 8.095-17.885 14.362-28 20-3.24 1.806-7.586 2.905-11 4.5 1.83 2.948 7.247 2.26 10 2.5 16.056 1.399 23.698-.875 36-10a223 223 0 0 0 6.5-5c-8.012 15.855-28.598 21.433-44.5 27-2.6.91-5.433 1.427-8 2.5 1.645 2.915 9.753 2.333 8-1.5 2.26.899-.509 3.029 2.5 4 9.822 3.17 34.098-3.391 42-11-.496 4.488-7.987 8.491-11.5 11-10.182 7.272-19.741 11.043-31 16-3.091 1.361-14.925 3.998-16 6.5-.859 17.643-3.696 35.025-10 51.5-22.729 59.397-102.915 78.097-152.5 39-10.443-8.234-23.614-34.97-35.5-22-1.037-39.263 1.233-68.063 23-102 23.5-36.639 67.369-52.554 109.5-43 8.945 2.028 16.896 9.297 25.5 6 5.863-2.247 10.098-6.954 13.5-12 3.619 1.052-8.915 15.296-8.5 16.5.15.435 7.138 3.767 8.5 3.5 5.805-1.137 18.035-24.452 18.5-31h1c-.554 10.754-6.756 23.606-14 31.5 37.922 5.612 28.059-36.909 22-60.5 4.184 4.274 7.702 16.02 9 22m-142 57c-.75.089-1.107.131-1 1-11.581-5.205-17.863 1.013-26 8-13.395 11.501-24.617 31.998-29 49-2.261 8.771-5.782 30.381-3 38.5.41 1.197 4.68 3.922 5 4.5 13.483 24.33 32.217 38.691 59 46 47.301 12.908 89.636-4.037 112-48 8.54-16.789 18.075-48.75 10-66.5-7.354-16.166-54.816-42.599-72-46.5-21.489-4.878-46.898-1.25-66 9.5z"/><path fill="#3e5e6a" d="M399 432c9.181 7.468 18.915 14.891 21 27.5-9.689-5.548-19.442-10.67-30-14.5-4.152-1.506-16.685-6.72-20-7 5.858-3.626 21.984-6.396 29-6"/><path fill="#adc2ca" d="M406 434c56.688 37.063 64.852 112.345 64 175l-7 4c-.172-32.985-5.977-68.901-24-97-.605-23.581-31.343-45.272-52-52-2.822-6.522 3.281-12.259 3-19 10.558 3.83 20.311 8.952 30 14.5-2.085-12.609-11.819-20.032-21-27.5 2.624.148 4.583 1.245 7 2"/><path fill="#616e75" d="M419 440c3.833 2.828 18.644 20.422 22 25 22.29 30.406 29.49 65.182 31 102.5.835 20.646-.147 44.03-3 64-.824-7.549.899-15.079 1-22.5.852-62.655-7.312-137.937-64-175 2.384.745 11.322 4.762 13 6"/><path fill="#abbec6" d="M733 445c2.758 1.193 15.684 8.281 16 11-.465 6.548-12.695 29.863-18.5 31-1.362.267-8.35-3.065-8.5-3.5-.415-1.204 12.119-15.448 8.5-16.5-3.402 5.046-7.637 9.753-13.5 12-33.928-16.469-58.792-28.785-95.5-10-14.128 7.23-40.839 29.879-39.5 47-21.767 33.937-24.037 62.737-23 102 .151 5.727-1.278 12.127 0 18-1.043-.317-4.661 1.539-6 2-.037-.103-1.788.36-2-.5-1.579-6.401-2.546-20.85-3-26-4.521-51.282.329-102.828 32-146.5-29.173 43.062-32.679 98.444-27.5 149 3.087-53.104-3.947-124.822 46.5-158l.5 2c34.328-24.192 95.125-29.602 133.5-13"/><path fill="#c4e2e8" d="M370 438c3.315.28 15.848 5.494 20 7 .281 6.741-5.822 12.478-3 19-26.375-8.591-46.365-4.985-70.5 8-2.246 1.208-10.589 5.046-8.5 8-9.641 1.171-15.072-7.401-21.5-14-1.729 4.321 11.599 15.484 11.5 16.5-.092.95-7.784 4.704-9.5 4.5-3.95-.469-13.168-15.303-15.5-19 .73-2.593 6.237-5.001 8.5-6 17.776-7.849 70.553-25.517 88.5-24"/><path fill="#ccf6fc" d="M282 460c-2.309 1.497-8.463 3.389-11 5-1.835 1.165-.736 2.832-1 3-2.896 1.845-6.543 2.98-10 5-3.458 2.02-7.96 2.975-10 7-5.741-1.361-3.058.16-5 1-5.812 2.515-8.566 6.489-13 10-.853.675-1.37 1.484-2 2-4.771 3.903-6.696 5.84-11 10-3.655 3.534-7.418 5.991-11 10l-6.5 5c20.252-28.586 55.369-53.911 88-67 2.153-.863 8.601-4.15 10.5-2.5-7.918 1.653-12.254 7.773-18 11.5"/><path fill="#0e416e" d="M801 482c-7.823 6.723-17.741 11.843-28 14l-1-13c1.061-.931 7.333-6.766 7-7.5-2.802.304-4.934 2.283-8 3.5-1.226-6.969-1.812-14.014-3-21-.469-2.759-.397-6.22-1-9 13.266 5.439 25.953 21.246 34 33"/><path fill="#a5b5bc" d="M771 479c-2.354.935-4.564 4.512-8 2.5l5-23.5c1.188 6.986 1.774 14.031 3 21"/><path fill="#899ea6" d="M387 464c20.657 6.728 51.395 28.419 52 52-18.936-29.522-63.896-50.994-98.5-46-10.535 1.521-22.882 8.832-32.5 10-2.089-2.954 6.254-6.792 8.5-8 24.135-12.985 44.125-16.591 70.5-8"/><path fill="#81959d" d="M717 479c-8.604 3.297-16.555-3.972-25.5-6-42.131-9.554-86 6.361-109.5 43-1.339-17.121 25.372-39.77 39.5-47 36.708-18.785 61.572-6.469 95.5 10"/><path fill="#141114" d="M273 468c2.332 3.697 11.55 18.531 15.5 19 1.716.204 9.408-3.55 9.5-4.5.099-1.016-13.229-12.179-11.5-16.5 6.428 6.599 11.859 15.171 21.5 14 9.618-1.168 21.965-8.479 32.5-10 34.604-4.994 79.564 16.478 98.5 46 18.023 28.099 23.828 64.015 24 97 .01 1.989.039 4.012 0 6-4.906-3.623-6.647-6.981-13.5-4-2.953 1.285-21.158 23.181-28 28-48.782 34.357-123.302 16.503-146.5-39-7.228-17.294-11.241-35.724-12-54.5-1.5-3.626-12.803-5.084-16-6.5-5.249-2.325-10.87-4.497-16-7-8.783-4.285-18.313-9.166-24.5-17 13.141 5.794 26.039 9.136 40.5 8 3.104-.244 6.124.147 9-1.5.753-1.789-7.635-3.82-9-4.5-9.863-4.915-20.945-9.062-28-18 10.288 5.106 15.615 6.452 27 6 2.099-.083 6.895 1.833 10-.5-2.011-2.381-6.062-2.994-9-4.5-5.68-2.912-13.388-5.539-17-11 .63-.516 1.147-1.325 2-2 4.277 1.592 8.527 2.999 13 4 8.756 1.959 17.952 3.63 27 2.5-8.617-4.813-17.504-7.653-25-14.5-.784-.716-1.768-1.118-2-2 1.942-.84-.741-2.361 5-1 2.775.658 5.911 3.247 9 4 7.896 1.925 15.779 4.266 24 4.5L270 468c.264-.168-.835-1.835 1-3 .062 1.107 1.606 2.375 2 3m56 29c-8.334.824-13.006 5.374-20 9-35.53 18.418-49.902 29.593-41 71.5 4.954 23.321 14.629 39.57 32 55.5 4.096 3.756 6.285 5.807 11 9 24.469 16.568 51.632 20.857 80 11 24.308-3.934 44.778-23.844 57-44 1.256-2.071 6.601-6.131 7-7.5 1.595-5.469-1.52-28.942-3-35.5-5.835-25.852-25.015-54.069-49-66-18.105-9.006-39.338-12.122-59.5-9-3.568.553-12.221 2.714-14.5 6"/><path fill="#bedae2" d="m259 484 1-11c3.457-2.02 7.104-3.155 10-5l13 20.5c-8.221-.234-16.104-2.575-24-4.5"/><path fill="#e7f6f8" d="m260 473-1 11c-3.089-.753-6.225-3.342-9-4 2.04-4.025 6.542-4.98 10-7"/><path fill="#095b7f" d="m247 483-2 12c-4.473-1.001-8.723-2.408-13-4 4.434-3.511 7.188-7.485 13-10 .232.882 1.216 1.284 2 2"/><path fill="#dcedf1" d="m245 495 2-12c7.496 6.847 16.383 9.687 25 14.5-9.048 1.13-18.244-.541-27-2.5"/><path fill="#93abb5" d="m772 483 1 13c-8.226 1.73-17.577 2.449-26 1.5 8.393-4.485 17.753-8.144 25-14.5"/><path fill="#124573" d="M809 500c-12.302 9.125-19.944 11.399-36 10l1-7c10.115-5.638 19.694-11.905 28-20 3.549 5.438 7.934 9.112 7 17"/><path fill="#1e4c56" d="m403 500-2 9c-11.572-5.341-21.826-6.669-34.5-6-2.449.129-12.333 4.13-13 4-.868-.17-7.298-10.077-13-12-1.192-.402-8.343-1.193-7.5 2-1.289-.045-2.725-.126-4 0 2.279-3.286 10.932-5.447 14.5-6 20.162-3.122 41.395-.006 59.5 9"/><path fill="#235f6c" d="M680 492c18.395 11.209 32.164 21.632 41 42 .658 4.403-4.491 4.803-5 7.5-.24 1.268 1.637 6.152 2 8.5-1.758.474-2.085 3.3-4 .5-8.698-12.717-3.964-12.662-17-24.5-.204-.185-1.768-.8-2-1-27.563-23.712-34.028-23.284-70-19l-11-4.5c19.102-10.75 44.511-14.378 66-9.5"/><path fill="#a1bfc9" d="M742 605c-18.886 16.217-35.386 28.404-59 37v-5c14.982-5.505 31.011-19.726 38-34 10.89-22.24 9.724-46.586 0-69-8.836-20.368-22.605-30.791-41-42 17.184 3.901 64.646 30.334 72 46.5 8.075 17.75-1.46 49.711-10 66.5"/><path fill="#0d4870" d="M247 504c-3.306-.519-.265 2.219-1 5-11.385.452-16.712-.894-27-6 4.304-4.16 6.229-6.097 11-10 3.612 5.461 11.32 8.088 17 11"/><path fill="#0f2a34" d="M401 509c8.608 3.973 19.458 13.261 25 21-5.553-1.793-11.863 4.814-16 8-14.015-17.029-35.438-19.462-56-16 .604-14.028-6.168-24.477-21-25-.843-3.193 6.308-2.402 7.5-2 5.702 1.923 12.132 11.83 13 12 .667.13 10.551-3.871 13-4 12.674-.669 22.928.659 34.5 6"/><path fill="#5da7ce" d="M853 706c-15.64 27.993-38.343 49.859-60 73-2.601 2.053-5.336 4.027-8 6l-3-5c6.387-5.452 13.04-11.626 15.5-20-9.429 7.796-18.665 15.708-28.5 23l-2-6c39.01-31.625 74.078-62.431 84-115 9.736-29.788 10.79-75.11 6-106-3.246-20.932-10.514-40.812-18-60.5 34.317 65.982 45.368 141.201 14 210.5"/><path fill="#fefefe" d="M329 497c1.275-.126 2.711-.045 4 0 14.832.523 21.604 10.972 21 25-.056 1.294.201 2.808 0 4-1.856 11.018-14.265 22.722-25 25-5.314 1.128-9.705 1.754-15 0-7.787-2.58-12.43-11.468-13-19-.933-12.336 2.546-15.672 8-26 6.994-3.626 11.666-8.176 20-9"/><path fill="#1b6473" d="M452 566c-2.706 10.559-6.927 20.407-12 30-2.579.099-3.69-2.409-5-4-.227-.276-.765-1.705-1-2 10.025-17.912 3.268-44.265-8-60-5.542-7.739-16.392-17.027-25-21l2-9c23.985 11.931 43.165 40.148 49 66"/><path fill="#0e4773" d="M247 521v6c-14.461 1.136-27.359-2.206-40.5-8 6.187 7.834 15.717 12.715 24.5 17-1.917 3.29-4.262 6.629-6 10-27.671-12.321-37.536 7.386-46 30l-7-3c8.184-22.104 20.414-42.554 36-60 3.582-4.009 7.345-6.466 11-10 7.055 8.938 18.137 13.085 28 18"/><path fill="#0f2b36" d="M695 525c-6.119 1.74-16.236 4.357-10 11-1.25-1.385-3.502-2.792-5-4-12.791-10.312-30.081-15.317-46-9-.242-6.107-4.135-13.364-10-16-.107-.869.25-.911 1-1 35.972-4.284 42.437-4.712 70 19"/><path fill="#b5c6c9" d="m774 503-1 7c-2.753-.24-8.17.448-10-2.5 3.414-1.595 7.76-2.694 11-4.5"/><path fill="#f0f3f2" d="M247 504c2.938 1.506 6.989 2.119 9 4.5-3.105 2.333-7.901.417-10 .5.735-2.781-2.306-5.519 1-5"/><path fill="#fefefe" d="M624 507c5.865 2.636 9.758 9.893 10 16 .026.656.041 1.346 0 2-.851 13.629-14.104 22.82-27 21-.398-.056-3.808-.924-4-1-5.812-2.305-8.859-9.17-9-15-.155-6.408 1.947-9.419 4-15 8.137-6.987 14.419-13.205 26-8"/><path fill="#a0c1cb" d="M301 532c-17.608 27.637-10.832 70.366 14 92l-4 6c-1.823-1.001-4.094-2.18-6-3-.115-.049-.891-2.652-2-1.5l-3 7.5c-17.371-15.93-27.046-32.179-32-55.5-8.902-41.907 5.47-53.082 41-71.5-5.454 10.328-8.933 13.664-8 26"/><path fill="#2c6674" d="M598 515c-2.053 5.581-4.155 8.592-4 15-11.026 18.234-15.751 39.507-8 60 .11.292-.117.716 0 1l-6 5c-5.223-10.547-8.744-20.35-11-32 4.383-17.002 15.605-37.499 29-49"/><path fill="#298396" d="M410 538c13.427 16.315 7.752 31.547 24 52 .235.295.773 1.724 1 2-2.628 4.311-5.331 7.518-9 11-1.74 2.484-5.028 1.501-6 2 .297-3.103.034-5.08-1-8-.056-.158 1.022-2.061-1.5-3-12.224-4.549-12.061 11.739-21.5 15.5l-2-3.5c46.026-28.323 12.089-97.835-40-80 .201-1.192-.056-2.706 0-4 20.562-3.462 41.985-1.029 56 16"/><path fill="#266a7b" d="m680 532-2 3c-13.339-11.371-27.061-12.413-44-10 .041-.654.026-1.344 0-2 15.919-6.317 33.209-1.312 46 9"/><path fill="#f8faf9" d="M247 527v-6c1.365.68 9.753 2.711 9 4.5-2.876 1.647-5.896 1.256-9 1.5"/><path fill="#afbfc1" d="M771 522v1c1.753 3.833-6.355 4.415-8 1.5 2.567-1.073 5.4-1.59 8-2.5"/><path fill="url(#f)" d="M394 606c-16.087 9.899-38.349 9.412-53-3-7.243-6.136-12.283-17.103-15-26 4.287-5.051.821-8.629 1-13 .197-4.808 1.043-8.396 2-13 10.735-2.278 23.144-13.982 25-25 52.089-17.835 86.026 51.677 40 80" style="fill:url(#f)"/>/&gt;<path fill="url(#g)" d="M678 535c37.115 31.641 6.089 89.147-42.5 76-9.523-2.577-29.714-16.05-34.5-25 2.919-.966 1.616-2.262 1.5-4-.777-11.623-6.655-26.615 4.5-36 12.896 1.82 26.149-7.371 27-21 16.939-2.413 30.661-1.371 44 10" style="fill:url(#g)"/>/&gt;<path fill="#1b4c5b" d="M695 525c.232.2 1.796.815 2 1 11.075 13.991 16.181 29.927 14 48l-14-2c.994-12.885-3.361-26.427-12-36-6.236-6.643 3.881-9.26 10-11"/><path fill="#1098b6" d="M718 550c.418 2.706 2.615 6.889 3 9.5 1.016 6.895-2.694 33.459 6 12l-6 31.5c-6.989 14.274-23.018 28.495-38 34-39.563 14.536-83.405-1.835-103-39-.197-.374.197-1.602 0-2l6-5c17.693 42.949 79.475 50.617 110 16 8.521-9.664 13.445-20.119 15-33 2.181-18.073-2.925-34.009-14-48 13.036 11.838 8.302 11.783 17 24.5 1.915 2.8 2.242-.026 4-.5"/><path fill="#014375" d="M835 684c-9.37 19.64-20.635 37.071-35 53.5-2.961 3.386-19.365 17.776-20 19-.235.454-.157 2.198.5 2.5 29.573-25.083 58.259-59.549 70.5-97-9.922 52.569-44.99 83.375-84 115-16.438 13.326-33.582 26.262-50.5 39-17.463 13.148-40.04 19.83-44.5 45l-.5-8-6.5 10c23.576-59.927 91.457-73.294 87-150.5-.429-7.429-.421-17.998-7-22.5 13.824-40.021 21.971-88.893 27-132 .579-4.966 1.303-9.961 1-15 11.259-4.957 20.818-8.728 31-16 23.343 48.446 37.179 102.874 31 157"/><path fill="#154252" d="M426 530c11.268 15.735 18.025 42.088 8 60-16.248-20.453-10.573-35.685-24-52 4.137-3.186 10.447-9.793 16-8"/><path fill="#2f5764" d="M594 530c.141 5.83 3.188 12.695 9 15-3.353 10.404-7.001 25.166-5 36l-12 9c-7.751-20.493-3.026-41.766 8-60"/><path fill="#1394b1" d="M301 532c.57 7.532 5.213 16.42 13 19-4.557 3.436-5.632 11.076-4 16-1.804 3.839-.27 4.928 0 8 .471 5.363 8.96 27.06 14.5 28 2.097.356 8.836-6.003 10.5 2-15.417-6.397-7.202 13.931 2.5 19 2.97 1.552 5.685.388 7.5 1 20.997 7.075 46.467 7.489 66.5-8 5.511-4.261 4.478-6.707 9-11 .267-.253 1.659.646 5.5-3 3.669-3.482 6.372-6.689 9-11 1.31 1.591 2.421 4.099 5 4-.199.377.199 1.642 0 2-25.007 45.046-84.378 61.39-125 26-24.832-21.634-31.608-64.363-14-92"/><path fill="#2390a5" d="M685 536c8.639 9.573 12.994 23.115 12 36-.888 11.509-13.092 26.913-13 28.5.045.778 10.232 10.747 12 6.5-30.525 34.617-92.307 26.949-110-16-.117-.284.11-.708 0-1l12-9c.526 2.847 1.987 3.105 3 5 4.786 8.95 24.977 22.423 34.5 25 48.589 13.147 79.615-44.359 42.5-76l2-3c1.498 1.208 3.75 2.615 5 4"/><path fill="#1c8ba2" d="m721 603 6-31.5c-8.694 21.459-4.984-5.105-6-12-.385-2.611-2.582-6.794-3-9.5-.363-2.348-2.24-7.232-2-8.5.509-2.697 5.658-3.097 5-7.5 9.724 22.414 10.89 46.76 0 69"/><path fill="#124674" d="M247 543c1.438 16.598 3.525 33.691 7 50-1.985 9.228 4.697 20.524 3 29.5-.352 1.86-8.575 13.157-10 17-19.288 52.005 3.361 99.782 35 140.5-6.272-1.503-15.219-10.541-20-15.5-38.341-39.767-50.716-100.348-30-152 3.353-8.36 25.823-37.361 5.5-39.5-4.754-.5-8.79 1.827-11.5 5.5-4.488 6.083-15.666 51.704-16 60.5-2.804-.688-2.888 4.081-3 5.5-1.409 17.911 3.779 33.803 7 51 .571 3.051-1.037 3.322-1 3.5-18.283-51.069-12.595-105.284 12-153 1.738-3.371 4.083-6.71 6-10 5.13 2.503 10.751 4.675 16 7"/><path fill="#1569a3" d="M225 546c-24.595 47.716-30.283 101.931-12 153 .121.587-.178 5.812 0 6.5 7.782 29.995 45.784 77.503 70 99.5 3.927 3.567 8.27 6.699 12 10.5-.061 2.632-11.973-1.908-14-2.5 1.234-1.955 1.539-2.414-.5-4-12.997-10.109-31.213-16.18-46.5-29-.168-2.2 5.076-7.897 5-8.5-.26-2.07-24.233-23.424-29-30-27.836-38.402-38.812-91.829-28-138-1.891 4.647-6.243.108-10 .5 1.902-9.88 3.448-18.51 7-28 8.464-22.614 18.329-42.321 46-30"/><path fill="#fdfdfd" d="M275 604c-1.73.698-.345 6.388 0 7.5 4.883 15.746 8.24 31.743 13 47.5 32.191 106.565 90.111 158.487 203 170 12.758 1.301 28.125 1.869 41 2 1.978.02 5.789-.784 7 1-71.464 6.732-156.832-2.383-207-58.5-23.629-26.43-39.95-58.741-53-91.5-8.78-29.231-18.769-59.756-25-89-3.475-16.309-5.562-33.402-7-50 3.197 1.416 14.5 2.874 16 6.5.759 18.776 4.772 37.206 12 54.5"/><path fill="#92abb6" d="M772 558c-1.649-.807-2.901 2.896-3 3.5-24.358 147.857-64.269 254.887-230 270.5-1.211-1.784-5.022-.98-7-1 1.253-5.225 8.011-.933 8.5-1 34.086-4.67 83.702-18.616 114-38 58.059-37.144 93.098-124.071 92.5-191 6.304-16.475 9.141-33.857 10-51.5 1.075-2.502 12.909-5.139 16-6.5.303 5.039-.421 10.034-1 15"/><path fill="#124451" d="M607 546c-11.155 9.385-5.277 24.377-4.5 36 .116 1.738 1.419 3.034-1.5 4-1.013-1.895-2.474-2.153-3-5-2.001-10.834 1.647-25.596 5-36 .192.076 3.602.944 4 1"/><path fill="#1f5d6f" d="M329 551c-.957 4.604-1.803 8.192-2 13-5.082-5.063-13.848-3.708-17 3-1.632-4.924-.557-12.564 4-16 5.295 1.754 9.686 1.128 15 0"/><path fill="#2e7cb0" d="M851 662c-12.241 37.451-40.927 71.917-70.5 97-.657-.302-.735-2.046-.5-2.5.635-1.224 17.039-15.614 20-19 14.365-16.429 25.63-33.86 35-53.5 18.636-39.061 24.703-79.269 18-122.5 4.966-.315 1.577-3.122 4-5.5 4.79 30.89 3.736 76.212-6 106"/><path fill="#41535c" d="M772 558c-5.029 43.107-13.176 91.979-27 132-11.541 33.412-38.967 89.522-69.5 111-68.294 48.04-240.448 44.917-314 9-33.493-16.355-57.524-58.561-71.5-92-5.694-13.623-7.139-23.146-11-36 13.05 32.759 29.371 65.07 53 91.5 50.168 56.117 135.536 65.232 207 58.5 165.731-15.613 205.642-122.643 230-270.5.099-.604 1.351-4.307 3-3.5"/><path fill="#fcfdfe" d="M327 564c-.179 4.371 3.287 7.949-1 13-3.951 4.654-13.43 3.847-16-2-.27-3.072-1.804-4.161 0-8 3.152-6.708 11.918-8.063 17-3"/><path fill="#678694" d="M580 596c.197.398-.197 1.626 0 2l-9 9c-.32-.578-4.59-3.303-5-4.5-2.782-8.119.739-29.729 3-38.5 2.256 11.65 5.777 21.453 11 32"/><path fill="#7594a0" d="m448 609-8-11c.199-.358-.199-1.623 0-2 5.073-9.593 9.294-19.441 12-30 1.48 6.558 4.595 30.031 3 35.5-.399 1.369-5.744 5.429-7 7.5"/><path fill="#196578" d="M711 574c-1.555 12.881-6.479 23.336-15 33-1.768 4.247-11.955-5.722-12-6.5-.092-1.587 12.112-16.991 13-28.5z"/><path fill="#105e95" d="M179 576c-3.552 9.49-5.098 18.12-7 28-3.21 16.682-5.255 28.762-5 46 1.172 79.343 36.179 140.265 114 163 2.027.592 13.939 5.132 14 2.5-3.73-3.801-8.073-6.933-12-10.5-2.502-11.841-16.279-21.724-24-31.5-29.248-37.036-50.845-85.97-49-134.5.334-8.796 11.512-54.417 16-60.5 2.71-3.673 6.746-6 11.5-5.5 20.323 2.139-2.147 31.14-5.5 39.5-20.716 51.652-8.341 112.233 30 152 4.781 4.959 13.728 13.997 20 15.5 14.056 18.09 39.253 37.783 50.5 54 .987 1.423 1.751 3.203 1.5 5-53.481-43.143-104.826-7.756-148-97-24.1-49.816-33.41-116.578-14-169Z"/><path fill="#1e849a" d="M326 577c2.717 8.897 7.757 19.864 15 26-3.582 1.161-.321 3.664 1 6-.296-.274-6.19-3.664-7-4-1.664-8.003-8.403-1.644-10.5-2-5.54-.94-14.029-22.637-14.5-28 2.57 5.847 12.049 6.654 16 2"/><path fill="#0e355e" d="M279 682c3.861 12.854 5.306 22.377 11 36-5.645 18.033-2.024 39.348 5 56.5 10.678 26.075 40.367 45.278 48 74-3.575-2.11-5.904-7.002-9-9.5.251-1.797-.513-3.577-1.5-5-11.247-16.217-36.444-35.91-50.5-54-31.639-40.718-54.288-88.495-35-140.5 1.425-3.843 9.648-15.14 10-17 1.697-8.976-4.985-20.272-3-29.5 6.231 29.244 16.22 59.769 25 89"/><path fill="#279fb7" d="M419 597c-12.81-8.522-18.481 15.753-3.5 12 .558-.14 2.805-3.129 4.5-4 .972-.499 4.26.484 6-2-3.841 3.646-5.233 2.747-5.5 3-4.522 4.293-3.489 6.739-9 11-20.033 15.489-45.503 15.075-66.5 8 8.154-1.93.379-12.865-3-16-1.321-2.336-4.582-4.839-1-6 14.651 12.412 36.913 12.899 53 3l2 3.5c9.439-3.761 9.276-20.049 21.5-15.5 2.522.939 1.444 2.842 1.5 3"/><path fill="#fbfcfd" d="M419 597c1.034 2.92 1.297 4.897 1 8-1.695.871-3.942 3.86-4.5 4-14.981 3.753-9.31-20.522 3.5-12"/><path fill="#b9d9e1" d="M448 609c-12.222 20.156-32.692 40.066-57 44-28.599 4.629-56.254-9.954-80-23l4-6c40.622 35.39 99.993 19.046 125-26z"/><path fill="#b9dce3" d="M683 637v5c-18.185 6.619-33.519 9.593-53 11-26.783-7.309-45.517-21.67-59-46l9-9c19.595 37.165 63.437 53.536 103 39"/><path fill="#5a727d" d="M532 831c-12.875-.131-28.242-.699-41-2-6.929-4.851-21.473-3.583-28.5-8-1.852-1.164-1.623-1.767 0-3 104.922 3.099 213.94-44.021 249-149-28.326 11.332-77.524 9.558-103-8-4.815-3.318-23.306-23.826-27-24-.381-.018-4.698 3.848-6.5 4-3.297.279-8.182-.383-11.5-1-4.543-.844-4.212-3.913-4.5-4-1.278-5.873.151-12.273 0-18 11.886-12.97 25.057 13.766 35.5 22 49.585 39.097 129.771 20.397 152.5-39 .598 66.929-34.441 153.856-92.5 191-30.298 19.384-79.914 33.33-114 38-.489.067-7.247-4.225-8.5 1"/><path fill="#2a7eb7" d="M234 780c-34.319-28.78-53.873-69.827-62-113.5-.72-3.868 1.275-18.07-5-16.5-.255-17.238 1.79-29.318 5-46 3.757-.392 8.109 4.147 10-.5-10.812 46.171.164 99.598 28 138 4.767 6.576 28.74 27.93 29 30 .076.603-5.168 6.3-5 8.5"/><path fill="#fbfefe" d="M335 605c.81.336 6.704 3.726 7 4 3.379 3.135 11.154 14.07 3 16-1.815-.612-4.53.552-7.5-1-9.702-5.069-17.917-25.397-2.5-19"/><path fill="#82a1ae" d="M463 619c-.074 3.805.773 18.492 0 20.5-2.771 7.196-19.613-1.856-22.5-1.5-2.01.248-12.26 12.015-15 14-30.131 21.834-73.981 32.099-110 20-8.918-2.996-15.67-9.674-23-13-2.715-1.232-1.821-.378-4.5 0-4.76-15.757-8.117-31.754-13-47.5-.345-1.112-1.73-6.802 0-7.5 23.198 55.503 97.718 73.357 146.5 39 6.842-4.819 25.047-26.715 28-28 6.853-2.981 8.594.377 13.5 4"/><path fill="#c9e7ed" d="M630 653c19.481-1.407 34.815-4.381 53-11 23.614-8.596 40.114-20.783 59-37-22.364 43.963-64.699 60.908-112 48"/><path fill="#b9d9e1" d="M305 627c-1.451 6.317 18.734 16.215 19 17.5.036.173-1.476 2.962-2.5 2.5l-10.5-5c-4.715-3.193-6.904-5.244-11-9l3-7.5c1.109-1.152 1.885 1.451 2 1.5"/><path fill="#ceeef3" d="M311 630c23.746 13.046 51.401 27.629 80 23-28.368 9.857-55.531 5.568-80-11l10.5 5c1.024.462 2.536-2.327 2.5-2.5-.266-1.285-20.451-11.183-19-17.5 1.906.82 4.177 1.999 6 3"/><path fill="#fcfdfd" d="M559 636c.288.087-.043 3.156 4.5 4 3.318.617 8.203 1.279 11.5 1l-8.5 5c-5.298.683-11.663-.315-14.5-5.5-.589-1.076 1.267-1.75 1-2.5 1.339-.461 4.957-2.317 6-2"/><path fill="#0d568c" d="M210 639c-1.845 48.53 19.752 97.464 49 134.5 7.721 9.776 21.498 19.659 24 31.5-24.216-21.997-62.218-69.505-70-99.5-.178-.688.121-5.913 0-6.5-.037-.178 1.571-.449 1-3.5-3.221-17.197-8.409-33.089-7-51 .112-1.419.196-6.188 3-5.5"/><path fill="#39a1d3" d="M234 780c15.287 12.82 33.503 18.891 46.5 29 2.039 1.586 1.734 2.045.5 4-77.821-22.735-112.828-83.657-114-163 6.275-1.57 4.28 12.632 5 16.5 8.127 43.673 27.681 84.72 62 113.5"/><path fill="#074576" d="M870 695c-15.172 32.755-37.481 60.189-65.5 83-45.926 37.39-107.086 54.644-144 103-1.948-1.168 3.55-15.585 4.5-18l6.5-10 .5 8 31.5-25c26.945-17.178 55.785-31.95 81.5-51 2.664-1.973 5.399-3.947 8-6 9.217-7.275 19.993-16.484 28-25 6.746-3.188 9.982-3.121 15-9.5z"/><path fill="#524552" d="M518 699c-20.07-.172-38.048 5.859-44 27 8.892 8.639 73.16 6.249 76-.5.128-.303-3.654-5.408-1-6.5 1.307 1.769.844 4.705 3 6-32.105 13.701-53.468 14.114-87 1 5.35-.272 5.744-9.119 9-13.5 16.748-22.538 53.637-26.359 69.5-1.5-8.058-8.497-14.062-11.902-25.5-12"/><path fill="#e2dfe3" d="m518 699 7 5c-22.638-6.791-40.063 1.737-51 22 5.952-21.141 23.93-27.172 44-27"/><path fill="#907885" d="M525 704c1.909.573 6.045 4.459 8.5 5l-5.5-5.5c1.66-3.814 19.804 13.882 21 15.5-2.654 1.092 1.128 6.197 1 6.5-2.84 6.749-67.108 9.139-76 .5 10.937-20.263 28.362-28.791 51-22"/><path fill="#86c7e5" d="M853 706c-8.758 19.35-17.466 32.542-32 48-8.007 8.516-18.783 17.725-28 25 21.657-23.141 44.36-45.007 60-73"/><path fill="#7f6775" d="M563 734c-32.444 32.052-84.267 29.961-114-5-9.885-19.012 10.003-5.345 16-3 33.532 13.114 54.895 12.701 87-1 15.648-6.678 27.144-13.612 11 9"/><path fill="#544652" d="M563 734c-2.607 3.651-6.476 9.393-10 12-23.231 17.187-58.191 19.135-83 4.5 16.003 41.803 58.058 44.57 81 6.5-10.996 32.538-55.177 39.566-76 12.5-6.245-8.117-5.718-16.371-9-22-2.223-3.814-13.29-11.365-17-18.5 29.733 34.961 81.556 37.052 114 5"/><path fill="#8e7380" d="M553 746c-.402 3.241-.991 8.015-2 11-22.942 38.07-64.997 35.303-81-6.5 24.809 14.635 59.769 12.687 83-4.5"/><path fill="#96cde6" d="M782 780c-4.541 3.876-22.299 15.577-27.5 16-1.243.101-3.75-.142-3-2 5.993-3.323 12.006-6.926 17.5-11 9.835-7.292 19.071-15.204 28.5-23-2.46 8.374-9.113 14.548-15.5 20"/><path fill="#408bb8" d="M769 783c-5.494 4.074-11.507 7.677-17.5 11-.75 1.858 1.757 2.101 3 2 5.201-.423 22.959-12.124 27.5-16l3 5c-25.715 19.05-54.555 33.822-81.5 51L672 861c4.46-25.17 27.037-31.852 44.5-45 16.918-12.738 34.062-25.674 50.5-39z"/></svg>