<svg xmlns="http://www.w3.org/2000/svg" width="1024" height="1024"><defs><linearGradient id="a" x1="736.243" x2="283.722" y1="418.77" y2="474.986" gradientUnits="userSpaceOnUse"><stop offset="0%" style="stop-color:#09628d"/><stop offset="75.877%" style="stop-color:#1e81a9"/></linearGradient></defs><defs><linearGradient id="b" x1="632.379" x2="648.491" y1="525.237" y2="572.569" gradientUnits="userSpaceOnUse"><stop offset="0%" style="stop-color:#002b4f"/><stop offset="100%" style="stop-color:#01507a"/></linearGradient></defs><defs><linearGradient id="c" x1="404.03" x2="371.926" y1="531.691" y2="582.379" gradientUnits="userSpaceOnUse"><stop offset="0%" style="stop-color:#002b4e"/><stop offset="100%" style="stop-color:#015783"/></linearGradient></defs><defs><linearGradient id="d" x1="273.34" x2="786.336" y1="712.1" y2="714.018" gradientUnits="userSpaceOnUse"><stop offset="0%" style="stop-color:#b4d5de"/><stop offset="100%" style="stop-color:#769faa"/></linearGradient></defs><defs><linearGradient id="e" x1="708.156" x2="461.512" y1="607.43" y2="686.471" gradientUnits="userSpaceOnUse"><stop offset="0%" style="stop-color:#002a47"/><stop offset="100%" style="stop-color:#084766"/></linearGradient></defs><defs><linearGradient id="f" x1="714.768" x2="440.392" y1="738.235" y2="811.539" gradientUnits="userSpaceOnUse"><stop offset="0%" style="stop-color:#56808b"/><stop offset="100%" style="stop-color:#6e9ba4"/></linearGradient></defs><path fill="#1c3f4d" d="M333 239c-.891.139-1.108-1.138-2-1 2.146-10.541-19.468-7.807-26-7-2.821.348-10.419.81-12.5 2-4.204 2.404-8.846 23.832-10.5 30-1.42 5.296-2.608 10.696-4 16h-1c2.508-6.283 13.579-46.196 15-53.5.866-4.453 4.685-46.639 4-49-.228-.788-10.311-6.507-13-10-9.908-12.873-9.117-32.82 3.5-43.5 28.481-24.109 72.694 14.443 41 48-.717.759-7.294 3.955-7.5 4.5-.886 2.346 3.205 47.046 4 50 1.299 4.824 11.62 4.374 9 13.5m-55-95c-.555 8.371 1.18 11.305 5 18 22.872 40.09 79.547-11.606 41-38-7.904-5.412-11.334-7.402-22-6-12.287 1.615-23.18 13.627-24 26m16 76c-.078 2.853-2.949 7.157.5 10 6.323-2.129 14.136-1.505 20.5-2 1.667-.13 7.225.532 8-.5-1.254-8.777-1.243-17.694-2-26.5-.671-7.805-1.793-15.636-2-23.5l-20.5-.5c-2.423.979-4.355 37.711-4.5 43"/><path fill="#1d5162" d="M827 463c-.012.333.014.667 0 1-.418 10.149-3.038 23.944-4 35-.296 3.398-1 6.4-1 10-2.764 1.994-2.121-.759-2-2.5 2.84-40.771 14.678-100.708-28-123.5v-1c9.721 4.548 17.387 11.093 24.5 19 .214-4.483-2.785-8.189-4.5-12-31.051-69.015-97.789-134.575-167-165-179.835-79.056-376.661 7.207-446 187.5l21.5-20.5c32.613-23.624 92.953-28.823 132.5-32 2.439 2.252-7.099 2.956-7.5 3-43.365 4.772-98.997 7.488-131.5 40-5.833 5.834-6.895 6.462-11 14-1.819 3.341-5.317 7.095-6 11.5-3.913 25.225 3.585 58.746 4 84.5-1.46-.719-2.542-1.231-4-2-.988-10.966-1.674-22.075-3-33-.847-6.977-.88-11.524-4-18-.175-.364.113-1.155-1-1 5.308-10.017-1.595-25.81 0-37.5 2.437-17.854 32.768-71.534 44-88 7.955-11.662 41.194-46.469 44-53.5h1c5.277-6.572 52.332-37.717 53-41 .892-.138 1.109 1.139 2 1 2.387-.372 35.436-19.94 42.5-23 85.48-37.027 183.474-36.859 269 0 5.979 2.577 34.918 20.293 37 20 .665-.094 6.588-8.705 9.5-9.5-2.21-8.472 5.798-45.159 4-50-.571-1.536-14.014-9.656-17-18-17.92-50.075 68.67-59.414 60-5-2.116 13.278-18.621 21.51-19 23-.618 2.431 3.101 45.852 4 50 .797 3.679 16.533 50.512 18 53 2.998 5.085 14.461 13.496 19 19 44.71 54.218 69.632 91.02 67 164.5M678 144c-.552 8.044 1.256 11.499 5 18 3.565 6.192 2.937 6.315 10 10 24.806 12.942 50.527-10.259 42-36-2.003-6.046-5.187-8.562-10-12-7.339-5.241-11.502-6.805-21-6-13.024 1.104-25.081 12.613-26 26m21 84c5.361.129 10.78.824 16 1 2.589.087 5.356 1.718 7-.5-1.591-8.34-1.308-17.065-2-25.5-.695-8.481-1.436-16.995-2-25.5-.435-.612-13.058.42-15 .5-1.934.079-5.956-3.104-7-.5l-4 50c2.125 3.406 5.641.467 7 .5m-13 5c-1.278 1.767-1.583 3.089-.5 5l51 38c1.383-.911-6.887-27.82-8.5-30-.241-3.07-2.067-12.51-4.5-14-3.123-1.912-34.565-3.057-37.5 1"/><path fill="#a9d2de" d="M278 144c.82-12.373 11.713-24.385 24-26 1.888 3.353 6.504 2.303 9 6.5 7.714 12.972-4.333 35.793-21.5 31.5-5.532-1.384-7.348-9.153-11.5-12m15.5-20c-10.683 1.977-13.43 21.714-2 23 13.935 1.568 22.87-26.861 2-23"/><path fill="#79a5b0" d="M324 124c12.486 30.088-13.21 47.308-41 38-3.82-6.695-5.555-9.629-5-18 4.152 2.847 5.968 10.616 11.5 12 17.167 4.293 29.214-18.528 21.5-31.5-2.496-4.197-7.112-3.147-9-6.5 10.666-1.402 14.096.588 22 6"/><path fill="#b3dce6" d="M704 118c25.235 17.501-7.32 58.824-26 26 .919-13.387 12.976-24.896 26-26m-10.5 6c-9.875 1.929-13.843 21.509-2 23 15.388 1.938 22.122-26.932 2-23"/><path fill="#85b3bf" d="M725 124c9.957 31.192-13.634 47.062-42 38-3.744-6.501-5.552-9.956-5-18 18.68 32.824 51.235-8.499 26-26 9.498-.805 13.661.759 21 6"/><path fill="#fcfefe" d="M293.5 124c20.87-3.861 11.935 24.568-2 23-11.43-1.286-8.683-21.023 2-23"/><path fill="#5c8993" d="M283 162c27.79 9.308 53.486-7.912 41-38 38.547 26.394-18.128 78.09-41 38"/><path fill="#fcfefe" d="M693.5 124c20.122-3.932 13.388 24.938-2 23-11.843-1.491-7.875-21.071 2-23"/><path fill="#6696a1" d="M735 136c-1.027 5.017-.015 8.399-1 14-5.237 4.304-7.349 11.974-13.5 16-7.075 4.631-15.306 5.377-23.5 5-.285-.013-4.369-3.225-4 1-7.063-3.685-6.435-3.808-10-10 28.366 9.062 51.957-6.808 42-38 4.813 3.438 7.997 5.954 10 12"/><path fill="#6fabb8" d="M693 172c-.369-4.225 3.715-1.013 4-1-3.225 1.45 3.271 2.978 3.5 3 18.044 1.698 30.288-5.744 33.5-24 .985-5.601-.027-8.983 1-14 8.527 25.741-17.194 48.942-42 36"/><path fill="#518590" d="M734 150c-3.212 18.256-15.456 25.698-33.5 24-.229-.022-6.725-1.55-3.5-3 8.194.377 16.425-.369 23.5-5 6.151-4.026 8.263-11.696 13.5-16"/><path fill="#f4fbfc" d="m321 201-5 1c-.077-2.72-.377-20.622-1-21.5-.893-1.259-11.16-.097-13.5-.5l-.5 44.5c-4.862 4.148-5.819-1.097-7-4.5.145-5.289 2.077-42.021 4.5-43l20.5.5c.207 7.864 1.329 15.695 2 23.5"/><path fill="#f8fcfc" d="M703 178c-.248 1.906-2.375.056-3 2-3.245 10.09 3.211 36.197-1 48-1.359-.033-4.875 2.906-7-.5l4-50c1.044-2.604 5.066.579 7 .5"/><path fill="#b5e2ef" d="m720 203-5-3c-.608-14.499 3.568-22.949-15-20 .625-1.944 2.752-.094 3-2 1.942-.08 14.565-1.112 15-.5.564 8.505 1.305 17.019 2 25.5"/><path fill="#6b9eaa" d="M316 202c.243 8.542.559 17.562-1 26-6.364.495-14.177-.129-20.5 2-3.449-2.843-.578-7.147-.5-10 1.181 3.403 2.138 8.648 7 4.5l.5-44.5c2.34.403 12.607-.759 13.5.5.623.878.923 18.78 1 21.5"/><path fill="#71a7b3" d="M715 200c.404 9.619-.297 19.372 0 29-5.22-.176-10.639-.871-16-1 4.211-11.803-2.245-37.91 1-48 18.568-2.949 14.392 5.501 15 20"/><path fill="#e0eff5" d="m645 224-3 2c-21.852-8.165-80.624-19.644-104.5-22-21.281-2.1-43.425-1.636-64.5 1.5 71.119-1.477 144.239 18.346 200 62.5-83.63-30.407-258.582-42.762-339.5-4l-14 9c60.074-32.166 127.847-33.972 194.5-30l-1 12c-60.867-5.497-74.857 79.151-17 98 .435 3.009-2.673 1.938-4.5 2-46.231 1.558-92.299.289-138.5 4-39.547 3.177-99.887 8.376-132.5 32L199 411.5C268.339 231.207 465.165 144.944 645 224"/><path fill="#8bc4d5" d="M720 203c.692 8.435.409 17.16 2 25.5-1.644 2.218-4.411.587-7 .5-.297-9.628.404-19.381 0-29z"/><path fill="#7cbbcc" d="M321 201c.757 8.806.746 17.723 2 26.5-.775 1.032-6.333.37-8 .5 1.559-8.438 1.243-17.458 1-26z"/><path fill="#a7c9d8" d="M642 226c10.757 4.019 29.412 15.524 39.5 22 30.471 19.561 62.841 47.041 82.5 77-12.866-13.083-32.765-28.465-49-37-13.397-7.253-27.678-14.793-42-20-55.761-44.154-128.881-63.977-200-62.5 21.075-3.136 43.219-3.6 64.5-1.5 23.876 2.356 82.648 13.835 104.5 22"/><path fill="#b8d0d8" d="M812 389c-2.241 1.001-1.245 2.323-4 1-.938-2.453-4.18-7.471-6-9-8.943-19.888-22.622-40.363-38-56-19.659-29.959-52.029-57.439-82.5-77-10.088-6.476-28.743-17.981-39.5-22l3-2c69.211 30.425 135.949 95.985 167 165"/><path fill="#6595a0" d="M331 238c-.668 3.283-47.723 34.428-53 41 1.392-5.304 2.58-10.704 4-16 4.836.883 5.542-11.292 7-13.5 2.132-3.228 24.204-13.811 16-18.5 6.532-.807 28.146-3.541 26 7"/><path fill="#e3f3f8" d="M728 246c-.855-1.155-20.272-14.37-21.5-14-1.609.484.963 2.582 0 3-6.633-2.791-13.372-1.955-20.5-2 2.935-4.057 34.377-2.912 37.5-1 2.433 1.49 4.259 10.93 4.5 14"/><path fill="#d8f4fa" d="M305 231c8.204 4.689-13.868 15.272-16 18.5-1.458 2.208-2.164 14.383-7 13.5 1.654-6.168 6.296-27.596 10.5-30 2.081-1.19 9.679-1.652 12.5-2"/><path fill="#71a4b0" d="M728 246c1.613 2.18 9.883 29.089 8.5 30l-51-38c-1.083-1.911-.778-3.233.5-5 7.128.045 13.867-.791 20.5 2 .963-.418-1.609-2.516 0-3 1.228-.37 20.645 12.845 21.5 14"/><path fill="#34646e" d="M673 268c14.322 5.207 28.603 12.747 42 20-8.463-4.449-19.06-7.441-28-11-56.861-22.638-111.789-30.352-173-34-66.653-3.972-134.426-2.166-194.5 30l14-9c80.918-38.762 255.87-26.407 339.5 4"/><path fill="#9cc3cf" d="M687 277c24.986 24.943 48.624 52.065 58 87-52.795-7.916-106.23-6.722-159.5-9-1.502 2.537.567 1.74 2 2 41.246 7.487 107.48-2.287 148.5 11 7.493 2.427 41.457 31.442 47 38.5 19.772 25.178 21.92 70.22 15 100.5-8.159 4.875-16.768 6.838-26 8l2-11c5.012-3.568 11.395-11.729 17-15.5-1.385-2.251-5.704 2.771-7 3.5-5.26-11.49 2.456-29.23 0-41.5-.195-.976-2.767-.02-3-1-4.431-18.674-8.485-29.389-24.5-41.5-55.913-42.281-253.008-36.047-326-34-49.098 1.377-160.138 2.92-190.5 47.5-14.851 21.806-6.422 49.21-5 73.5-3.25-2.096-5.507-1.871-8-6-3.121-5.171-6.851-30.026-8-37.5-2.514-16.348-3.333-33.104-5-49.5 32.503-32.512 88.135-35.228 131.5-40 .401-.044 9.939-.748 7.5-3 46.201-3.711 92.269-2.442 138.5-4 1.827-.062 4.935 1.009 4.5-2 13.217 2.343 25.261 2.752 37.5-4 42.248-23.308 26.275-89.776-20.5-94l1-12c61.211 3.648 116.139 11.362 173 34"/><path fill="#5f7d87" d="M513 255c46.775 4.224 62.748 70.692 20.5 94-12.239 6.752-24.283 6.343-37.5 4-57.857-18.849-43.867-103.497 17-98m-29 89c21.821 12.829 53.019 6.244 65-17 23.005-44.631-28.434-89.664-68.5-62-28.247 19.504-25.858 61.739 3.5 79"/><path fill="#b5f1fe" d="M549 327v-4.5l-2.5-1.5c-.853 2.505-2.907 4.105-4.5 6l-3-2c.124-.266-.113-.702 0-1 15.217-23.409 1.214-52.475-26-56-24.652-3.193-45.036 14.819-43 40 .668 8.266 6.239 17.439 12 23 .133.128.912 1.93 1 2-4.781 1.094-1.522 4.922 1 7v4c-29.358-17.261-31.747-59.496-3.5-79 40.066-27.664 91.505 17.369 68.5 62"/><path fill="#42859e" d="m513 268-9.5 1 .5 5c-1.164-.519-2.341-1.985-2.5-2-.181-.017-1.574.79-3.5 1-7.596.827-18.27 7.936-22 14.5-3.485 6.132-2.42 14.896-6 20.5-2.036-25.181 18.348-43.193 43-40"/><path fill="#4fa1bf" d="M539 324c.65-1.716 2.353-8.166.5-10 .662 6.215-8.097 6.919-1.5 9.5-.267.994-10.82 10.396-12.5 11.5-2.436 1.601-11.268 1.92-6.5 5-.841.217-2.064-.157-3 0-7.229-1.941-15.294-.45-22.5-3-1.572-.556-8.019-8.755-11.5-6-5.761-5.561-11.332-14.734-12-23 3.58-5.604 2.515-14.368 6-20.5 3.73-6.564 14.404-13.673 22-14.5-8.24 7.788-17.765 11.964-22 23.5 3.218 3.879 2.503 11.803 4 18.5 1.496 6.692 2.476 10.398 9.5 15 17.501 11.467 36.409 6.272 46.5-11.5 1.511-2.661 8.176-18.874 2-11-.423-1.923-.503-5.965-1-7.5 4.586 2.393-.661-11.886-1-12.5-3.84-6.946-21.182-18.053-28-12.5-.572-.069-1.582-.133-2 0 .068-1.564-1.451-.755-2-1l-.5-5 9.5-1c27.214 3.525 41.217 32.591 26 56"/><path fill="#dff6fc" d="M504 274c.549.245 2.068-.564 2 1-3.822 1.216-16.504 24.022-23 26-3.22 1.119-1.815 5.853-2 9-.042.723 1.98 4.528 1 6.5l-2-1.5c-1.497-6.697-.782-14.621-4-18.5 4.235-11.536 13.76-15.712 22-23.5 1.926-.21 3.319-1.017 3.5-1 .159.015 1.336 1.481 2.5 2"/><path fill="#1688b4" d="M537 300c-2.912-8.99-13.171-23.978-24-20a5.72 5.72 0 0 0-5-5c6.818-5.553 24.16 5.554 28 12.5.339.614 5.586 14.893 1 12.5"/><path fill="#94e1f7" d="M508 275a5.72 5.72 0 0 1 5 5c.072.62.096 1.389 0 2-1.251 7.965-20.584 29.245-30 19 6.496-1.978 19.178-24.784 23-26 .418-.133 1.428-.069 2 0"/><path fill="#5a8995" d="M715 288c16.235 8.535 36.134 23.917 49 37 15.378 15.637 29.057 36.112 38 56-14.015-11.774-39.416-14.364-57-17-9.376-34.935-33.014-62.057-58-87 8.94 3.559 19.537 6.551 28 11"/><path fill="#25c2e8" d="M537 300c.497 1.535.577 5.577 1 7.5 6.176-7.874-.489 8.339-2 11-10.091 17.772-28.999 22.967-46.5 11.5-7.024-4.602-8.004-8.308-9.5-15l2 1.5c.98-1.972-1.042-5.777-1-6.5 15.068 5.291 47.252-12.075 32-28 .096-.611.072-1.38 0-2 10.829-3.978 21.088 11.01 24 20"/><path fill="#4dceed" d="M481 310c.185-3.147-1.22-7.881 2-9 9.416 10.245 28.749-11.035 30-19 15.252 15.925-16.932 33.291-32 28"/><path fill="#468ca8" d="M539 324c-.113.298.124.734 0 1-2.368 5.072-14.628 13.612-20 15-4.768-3.08 4.064-3.399 6.5-5 1.68-1.104 12.233-10.506 12.5-11.5-6.597-2.581 2.162-3.285 1.5-9.5 1.853 1.834.15 8.284-.5 10"/><path fill="#82dbf4" d="M549 327c-11.981 23.244-43.179 29.829-65 17v-4c19.709 16.24 44.504 3.054 58-13 1.593-1.895 3.647-3.495 4.5-6l2.5 1.5z"/><path fill="#8eebfd" d="M542 327c-13.496 16.054-38.291 29.24-58 13-2.522-2.078-5.781-5.906-1-7 9.126 7.244 21.748 8.892 33 7 .936-.157 2.159.217 3 0 5.372-1.388 17.632-9.928 20-15z"/><path fill="#4085a3" d="M516 340c-11.252 1.892-23.874.244-33-7-.088-.07-.867-1.872-1-2 3.481-2.755 9.928 5.444 11.5 6 7.206 2.55 15.271 1.059 22.5 3"/><path fill="#27606f" d="M745 364c17.584 2.636 42.985 5.226 57 17 1.82 1.529 5.062 6.547 6 9-2.976-1.429-7.003-6.634-9.5-8-16.183-8.853-35.256-12.599-53.5-14-1.864-.143-6.858-2.744-9 0-41.02-13.287-107.254-3.513-148.5-11-1.433-.26-3.502.537-2-2 53.27 2.278 106.705 1.084 159.5 9"/><path fill="#60909e" d="M745 368c15.122 4.903 32.852 7.444 47 15 42.678 22.792 30.84 82.729 28 123.5-.121 1.741-.764 4.494 2 2.5v2c-14.887 5.616-31.176 10.221-47 13l-1-6c5.25-.851 22.617-4.947 24-11 6.92-30.28 4.772-75.322-15-100.5-5.543-7.058-39.507-36.073-47-38.5 2.142-2.744 7.136-.143 9 0"/><path fill="#81acb6" d="M808 390c2.755 1.323 1.759.001 4-1 1.715 3.811 4.714 7.517 4.5 12-7.113-7.907-14.779-14.452-24.5-19-.152-.071-1.303-3.35-3-1.5l3 1.5v1c-14.148-7.556-31.878-10.097-47-15 18.244 1.401 37.317 5.147 53.5 14 2.497 1.366 6.524 6.571 9.5 8"/><path fill="#b9f0fc" d="M784 492c-2.977 1.674-5.857 3.635-9 5 2.166-33.023 10.527-59.593-18.5-83-52.38-42.24-208.295-36.646-276-36-54.741.522-196.283-3.072-231.5 43.5-18.456 24.407-6.823 49.864-8 77.5-2.887-1.254-3.988-2.702-6-4-1.422-24.29-9.851-51.694 5-73.5 30.362-44.58 141.402-46.123 190.5-47.5 72.992-2.047 270.087-8.281 326 34 16.015 12.111 20.069 22.826 24.5 41.5.233.98 2.805.024 3 1 2.456 12.27-5.26 30.01 0 41.5"/><path fill="#0a4c6b" d="M775 497c-1.553.675-3.408 1.394-5 2 3.524-6.624 4.762-16.676 5-24.5 2.589-85.094-95.24-88.943-160-92.5-72.101-3.961-144.389-.998-216.5 2-3.776.157-13.796.356-16.5 3-.333.011-.667-.01-1 0 .76-3.26-3.416-1.481-5 0-.333.011-.667-.011-1 0-10.492.358-21.943-1.38-32 3-1.471.165-5.937 1.786-7.5 2-4.166.57-3.703-2.046-4-2-.569.088-2.412 2.896-3 3-3.223.57-2.462-2.105-3-2-1.19.232-1.556 2.903-2 3-12.416 2.722-20.462 4.18-32.5 9 .865-4.193-2.45-2.685-4.5-2-28.252 9.434-46.646 29.024-46.5 59.5.018 3.8 3.064 36.334 4 38 1.128 2.008 6.004 2.407 7-2.5-1.944 7.85 5.789 3.196 7 8-5.363-1.31-11.975-2.817-17-5 1.177-27.636-10.456-53.093 8-77.5 35.217-46.572 176.759-42.978 231.5-43.5 67.705-.646 223.62-6.24 276 36 29.027 23.407 20.666 49.977 18.5 83"/><path fill="#208eb2" d="M615 382c1.357 6.864-4.479 2.203-8 5-41.391-1.945-83.544-1.976-125-2-33.461-.019-66.601.926-100 2 2.704-2.644 12.724-2.843 16.5-3 72.111-2.998 144.399-5.961 216.5-2"/><path fill="#385f6b" d="m792 382-3-1.5c1.697-1.85 2.848 1.429 3 1.5"/><path fill="#106189" d="M770 499c-.767.292-1.231.716-2 1 2.068-32.359 8.649-58.129-20.5-80-35.461-26.607-97.231-30.967-140.5-33 3.521-2.797 9.357 1.864 8-5 64.76 3.557 162.589 7.406 160 92.5-.238 7.824-1.476 17.876-5 24.5"/><path fill="#4398b9" d="M381 387c-1.655.052-3.346-.054-5 0 1.584-1.481 5.76-3.26 5 0"/><path fill="#0c5377" d="m482 385 105 8c-6.019-.134-13.076-.403-19 0-13.881-1.077-28.079-1.772-42-2-62.544-1.022-133.251.097-194 14 .562-3.265-7.544-1.212-8.5-1-47.596 10.571-63.955 24.987-65.5 74-.002.071-.982-.305-1 1-.07 5.12 2.472 2.826 1 10-.074.361-4.637-.332 2 4 2.02 3.276.155 7.694 2 11-.232 1.75-2.807.291-4 0-1.211-4.804-8.944-.15-7-8 1.093-5.384-3.749-23.25-4-30.5-1.206-34.903 12.837-50.023 44-62.5 12.038-4.82 20.084-6.278 32.5-9 .444-.097.81-2.768 2-3 .538-.105-.223 2.57 3 2 .588-.104 2.431-2.912 3-3 .297-.046-.166 2.57 4 2 1.563-.214 6.029-1.835 7.5-2 10.588-1.19 21.488-1.062 32-3 .333-.011.667.011 1 0 1.654-.054 3.345.052 5 0 .333-.01.667.011 1 0 33.399-1.074 66.539-2.019 100-2"/><path fill="#013350" d="M607 387c43.269 2.033 105.039 6.393 140.5 33 29.149 21.871 22.568 47.641 20.5 80-4.188 1.543-8.765 1.784-13 3 .15-1.278-.233-2.772 0-4 .441-2.326.916-5.834 3-7.5-.257-.862-3.315.253-4 .5l-1-1c7.902-4.176 4.922-3.353 6-12 .261-2.092-.003-1.84 0-2 .742-47.545-47.293-69.868-89-73-25.894-5.724-56.441-10.407-83-11l-105-8c41.456.024 83.609.055 125 2"/><path fill="#2d84a3" d="M375 387c-10.512 1.938-21.412 1.81-32 3 10.057-4.38 21.508-2.642 32-3"/><path fill="#fafdfe" d="M526 391c-7.761 6.903-27.489-5.352-27 9-59.916 1.484-152.585 7.012-204.5 38-3.634 2.169-7.796 6.114-11 9-6.252-32.378 25.208-36.669 48.5-42 60.749-13.903 131.456-15.022 194-14"/><path fill="#cee6ef" d="M568 393c-6.602.45-18.979-.799-16 7-17.579-.225-35.431-.435-53 0-.489-14.352 19.239-2.097 27-9 13.921.228 28.119.923 42 2"/><path fill="#96c6d7" d="M587 393c26.559.593 57.106 5.276 83 11-38.533-2.893-79.109-3.501-118-4-2.979-7.799 9.398-6.55 16-7 5.924-.403 12.981-.134 19 0"/><path fill="#136991" d="M291 403c-31.163 12.477-45.206 27.597-44 62.5.251 7.25 5.093 25.116 4 30.5-.996 4.907-5.872 4.508-7 2.5-.936-1.666-3.982-34.2-4-38-.146-30.476 18.248-50.066 46.5-59.5 2.05-.685 5.365-2.193 4.5 2"/><path fill="url(#a)" d="M499 400c17.569-.435 35.421-.225 53 0 38.891.499 79.467 1.107 118 4 41.707 3.132 89.742 25.455 89 73-7.59 4.673-18.96 10.91-27.5 13-3.701.906-27.367 4.448-27.5.5 18.127-6.66 39.769-16.389 45.5-36.5-10.183 15.891-30.953 29.632-49.5 32-1.854-1.63-5.592-3.812-8-4 11.832-7.652 23.33-15.294 31-27.5l-2-.5c-39.2-30.96-102.661-33.907-151-36-18.697-.81-37.266-1.289-56-1-46.359.715-93.744 3.937-139 14-26.252 5.837-53.942 13.244-74 32-2.387-2.233-3.8-5.159-6.5-7-.444 2.425 3.098 7.272 4.5 9-3.951 3.237-6.118 9.009-7 14-10.549-5.166-17.743-13.501-26-21.5 4.748 9.263 15.753 20.837 25 25.5l-2 8c-11.123-1.503-21.864-6.694-31-13 1.545-49.013 17.904-63.429 65.5-74 .956-.212 9.062-2.265 8.5 1-23.292 5.331-54.752 9.622-48.5 42 3.204-2.886 7.366-6.831 11-9 51.915-30.988 144.584-36.516 204.5-38" style="fill:url(#a)"/>/&gt;<path fill="#c8dfe8" d="M227 489c-4.534 1.021 4.97 8.101 6 9l-3 15c-3.445-1.041-8.3-5.063-12-4-1.507-1.015-3.441-1.532-5-2.5h5L203 416c4.105-7.538 5.167-8.166 11-14 1.667 16.396 2.486 33.152 5 49.5 1.149 7.474 4.879 32.329 8 37.5"/><path fill="#e6edf1" d="M218 509c1.027.692 1.847 1.399 3 2-1.381 2.914-1.901 7.911-6 7-6.182-2.192-8.229-3.158-14-6-.415-25.754-7.913-59.275-4-84.5.683-4.405 4.181-8.159 6-11.5l15 90.5h-5c1.559.968 3.493 1.485 5 2.5"/><path fill="#68b5d1" d="M514 417c-.292 3.751 1.332 6.642 1 10.5-1.18 13.695-25.737 81.045-36.5 88.5-2.387 1.654-5.366 3.426-8.5 3-13.104-38.886-53.011-60.757-93-57l-2-31c45.256-10.063 92.641-13.285 139-14"/><path fill="#30abca" d="M570 418c2.234 5.061-6.954 13.708-7 16.5-.066 3.952 15.63 34.035 19 39.5-15.959 10.173-29.593 29.875-37 47-7.615 17.604-11.14 37.857-10.5 57-18.229 2.362-35.923 7.644-54.5 6 .401-20.997-.766-37.971-10-57 3.268-3.359 1.003-5.023 0-8 3.134.426 6.113-1.346 8.5-3 10.763-7.455 35.32-74.805 36.5-88.5.332-3.858-1.292-6.749-1-10.5 18.734-.289 37.303.19 56 1"/><path fill="#1d88af" d="M721 454c-8.18 9.279-21.08 22.229-34 24l-9-5.5c5.979-5.392 13.994-11.384 16.5-19.5-7.221 6.911-12.156 13.782-21.5 18-28.441-13.747-64.114-14.138-91 3-3.37-5.465-19.066-35.548-19-39.5.046-2.792 9.234-11.439 7-16.5 48.339 2.093 111.8 5.04 151 36"/><path fill="#97c6dc" d="m375 431 2 31c-11.952 1.123-23.672 6.499-35 10-9.463-5.007-15.348-10.011-22.5-18 2.579 7.847 12.169 15.879 19.5 20-1.972 1.681-4.484 3.269-7 4-1.32.383-2.18 1.978-2.5 2-7.26.51-23.083-11.932-28.5-17 20.058-18.756 47.748-26.163 74-32"/><path fill="#010b11" d="M687 478c-1.092.15-2.399 1.062-5 1-.69-.017-5.727-.807-8.5-1-1.029-.071-1.677-3.015-2-3-2.453.117-15.849 7.755-21 6l13.5-7c5.801-.11 4.818-1.112 9-3 9.344-4.218 14.279-11.089 21.5-18-2.506 8.116-10.521 14.108-16.5 19.5z"/><path fill="#00050a" d="M692 482c-4.174-.326-8.21 1.781-12.5 1l2.5-4c2.601.062 3.908-.85 5-1 12.92-1.771 25.82-14.721 34-24l2 .5c-7.67 12.206-19.168 19.848-31 27.5"/><path fill="#050c12" d="M342 472c2.69 1.423 2.622 1.715 6 3 7.794 2.965 14.957 4.786 23.5 6-10.027 2.825-23.599-1.997-32.5-7-7.331-4.121-16.921-12.153-19.5-20 7.152 7.989 13.037 12.993 22.5 18"/><path fill="#01060a" d="M759 477c-.003.16.261-.092 0 2-11.311 10.915-26.773 12.594-40 18.5 1.154 4.156 30.031-4.402 34-6.5l1 1c-6.358 2.292-11.051 6.033-19 8-11.308 2.798-24.907 4.4-36.5 2-9.103-1.884-16.392-10.008-26-11-1.415 1.913-.159 2.727 1 4 1.299 1.426 31.108 19.623 33 20 2.039.406 1.338-2.107 2-2 17.919 2.903 38.883 3.619 54-8-15.234 3.274-30.479 11.271-46.5 6.5 14.298-.141 25.772-4.702 39-8.5 4.235-1.216 8.812-1.457 13-3 .769-.284 1.233-.708 2-1 1.592-.606 3.447-1.325 5-2 3.143-1.365 6.023-3.326 9-5 1.296-.729 5.615-5.751 7-3.5-5.605 3.771-11.988 11.932-17 15.5-8.274 5.89-16.559 11.09-27 11.5 8.386 1.193 16.666.549 25-.5 9.232-1.162 17.841-3.125 26-8-1.383 6.053-18.75 10.149-24 11-.933.151-1.18.833-3 1-17.962 1.649-43.526-2.963-62-3.5 21.023 12.662 33.208 24.029 59 23.5 10.205-.209 37.723-4.655 45-12 3.127-3.156 3.603-2.876 3-8.5-2.53-2.096-3.794 1.444-4 1.5-16.425 4.495-23.204 9.49-42 10-12.383.336-31.641-.414-41-9.5 17.364 3.754 22.939 7.131 41 4.5 1.776-.259 3.383-.716 5-1 15.824-2.779 32.113-7.384 47-13 1.797-.678 2.853-1.453 5-2v1c-4.784 4.125-8.528 2.885-7 11.5l11-5c-2.98 2.521-6.022 4.993-9 7.5-1.368 1.151-3.399 3.577-4 4-.312.22-2.928 1.348-4 2-13.463 8.189-32.079 14.072-48 14-3.266-.015-11.552-1.205-15-2-3.752-.865-14.415-5.198-18-7-27.014-13.582-46.477-37.206-79-45-9.507-2.278-18.178-3.38-28-3-8.925.345-17.254 2.773-26 4 31.356-15.279 65.737-.625 100-5 18.547-2.368 39.317-16.109 49.5-32-5.731 20.111-27.373 29.84-45.5 36.5.133 3.948 23.799.406 27.5-.5 8.54-2.09 19.91-8.327 27.5-13"/><path fill="#040c10" d="M301 463c5.417 5.068 21.24 17.51 28.5 17 .32-.022 1.18-1.617 2.5-2l3.5 4c-4.563 2.655-9.012.506-12.5 1-7.463-6.323-17.69-10.223-24-18-1.402-1.728-4.944-6.575-4.5-9 2.7 1.841 4.113 4.767 6.5 7"/><path fill="#02090d" d="M292 479c12.573 6.157 15.338 5.741 28 5-.1 3.031-2.434 2.478 1.5 3 31.182 4.135 62.794-9.164 93 1l-2.5 4c-8.561-2.514-18.053-4.97-27-5-9.509-.032-17.99 2.545-27 5-18.818 5.127-25.223 12.14-41 19-3.803 1.653-11.244 3.57-15.5 5l3-3c-20.393 1.762-38.325-2.251-57-10 15.461 11.021 34.489 11.251 52.5 13.5-9.033 3.58-18.932.049-27.5.5-10.101.531-15.523 3.554-27.5 2-7.45-.966-17.331-4.523-24-8-1.153-.601-1.973-1.308-3-2 3.7-1.063 8.555 2.959 12 4 2.12.641 5.837 1.565 8 2 1.933.389 5.654-.184 7 0 2.143.292 5.421 1.071 7.5 2l14.5-1.5c-8.171-1.921-15.727-4.209-23-8.5-.793-.468-2.542-1.987-4-3-1.968-1.367-5.015-4.266-7-6-1.03-.899-10.534-7.979-6-9 2.493 4.129 4.75 3.904 8 6 2.012 1.298 3.113 2.746 6 4 5.025 2.183 11.637 3.69 17 5 1.193.291 3.768 1.75 4 0 2.729 4.889 18.653 5.494 24 6 7.587.717 16.96 2.312 24.5 1 9.899-1.722 25.562-15.52 35.5-19.5-7.797-2.377-12.015 5.473-17.5 7.5-12.311 4.549-23.582 4.385-36.5 3-8.932-.957-24.498-4.103-32-9-6.637-4.332-2.074-3.639-2-4 10.946 5.27 24.634 10.294 37 10 3.403-.081 31.195-4.986 32.5-6 .849-.659.862-1.35 0-2-5.691 2.385-12.872-1.47-18.5-3-5.854-1.592-12.404-2.178-18-5-9.247-4.663-20.252-16.237-25-25.5 8.257 7.999 15.451 16.334 26 21.5"/><path fill="#061d2a" d="M190 459c-6.258 4.732-9.53 11.533-13 18-1.887 3.516-3.681 6.09-5 10-6.194 18.367-2.2 47.229 0 67.5 1.423 13.116 4.192 26.421 6 39.5.361 8.665 2.64 16.575 4 25 1.215 7.525 2.213 15.622 4 23 1.942 8.019 4.199 17.27 7 25 1.982 5.472 6.739 17.075 10 21.5 4.934 6.696 22.135 15.234 24 19.5-7.112-4.008-21.417-11.199-26-17.5-3.103-4.267-5.684-16.231-9-20-4.218-4.793-9.426-3.454-12.5-5.5-6.217-4.138-8.488-13.152-13-17-3.362-2.867-10.002-3.651-14.5-8.5-2.441-2.631-6.156-12.598-8.5-13.5-.587-.226-6.379 2.323-11.5-2.5-8.484-7.989-14.064-50.367-10-61 8.313-12.436 20.985-24.887 29-37 .787-1.19.721-6.562 1-7 2.631-4.129 11.725-11.184 12-12 .667-1.98-.699-7.241 0-9 6.777-17.045 18.297-26.852 25-39.5 1.113-.155.825.636 1 1m-33 58c-6.891 12.825-1.152 28.268 0 42 .594 7.081 1.156 13.947 2 21 1.705 14.245 3.103 25.848 6 40 3.229 15.778 4.186 38.094 21.5 45L176 613c-2.578-15.608-4.979-31.303-7-47-2.37-18.41-4.27-36.911-5-55.5-2.155-.15-6.195 5.002-7 6.5m-18 69a302 302 0 0 0 5 28c.784 3.423.595 7.229 2 11 3.15 8.456 11.769 18.345 20.5 21-2.784-9.195-4.83-18.516-6.5-28-1.171-6.651-2.05-13.316-3-20a738 738 0 0 1-3-24c-1.558-14.305-2.76-28.609-3.5-43-1.512 3.895-14.922 17.548-15.5 19.5-.94 3.176 3.259 29.764 4 35.5m-11-26c-3.437 2.904-4.238 3.641-5 8.5-1.505 9.604 4.022 54.082 14.5 56.5 7.293 1.683 4.028-6.18 3.5-10-2.644-19.116-7.488-38.15-9-57.5-2.083-1.676-3.195 1.82-4 2.5"/><path fill="#3c6e7b" d="M194 477h-17c3.47-6.467 6.742-13.268 13-18 3.12 6.476 3.153 11.023 4 18"/><path fill="#12698d" d="M673 471c-4.182 1.888-3.199 2.89-9 3-4.876.092-13.411-2.943-18.5-3-41.014-.459-72.391 11.225-94.5 47-4.286-.257-3.476 8.038-6 3 7.407-17.125 21.041-36.827 37-47 26.886-17.138 62.559-16.747 91-3"/><path fill="#347692" d="M470 519c1.003 2.977 3.268 4.641 0 8-22.632-46.637-72.629-64.717-122-52-3.378-1.285-3.31-1.577-6-3 11.328-3.501 23.048-8.877 35-10 39.989-3.757 79.896 18.114 93 57"/><path fill="#051925" d="M789 707c1.001-1.122 1.854-.929 2-2 24.304-3.374 34.96-44.183 40-64 4.838-19.024 9.487-43.517 12-63 1.678-13.01 2.393-25.889 3-39 .847-18.293 3.903-38.032-3-55-3.277-8.054-8.483-15.545-16-20 .014-.333-.012-.667 0-1 11.894 4.876 20.188 21.72 24 33.5.795 2.458-.802 8.575 0 11 .248.75 8.302 6.585 10 9 8.421 11.976 17.456 27.555 24 38 1.512 2.414 8.812 9.354 9 10 2.387 8.199-3.16 46.39-8 54-5.096 8.013-10.984 4.542-14.5 6.5-.94.524-3.306 10.679-9 15-4.788 3.633-11.937 3.691-14 5-2.199 1.396-6.768 15.409-12 19-3.884 2.666-9.564 2.113-12.5 5.5-2.48 2.862-6.535 18.254-10 23-4.92 6.739-16.605 13.056-25 14.5m59-143c-1.548 14.553-3.472 28.603-6 43-3.372 19.204-8.228 38.025-12.5 57 15.01-5.795 20.693-33.052 23.5-48 1.136-6.05 4.745-28.204 4-33l1-4c-.207 3.915.039 11.024 0 15.5-.019 2.148-2.71 2.651 2 2.5-.9 6.691-1.804 13.356-3 20-1.577 8.758-3.926 17.275-5.5 26 14.072-5.31 15.223-8.31 18.5-22 2.572-10.744 4.4-24.849 6-36 .872-6.08 5.94-30.919 5-34.5-.306-1.167-12.192-18.103-15-18.5-.116-1.897 1.178-.84 1-1.5-.208-.773-3.23-2.081-4-3.5-.62-4.992-1.817-4.685-4-8-1.252-1.901-4.542-8.494-8-5.5.042 16.872-1.221 33.773-3 50.5m26 50c-.704 5.115-4.493 11.663 4.5 8 10.915-4.445 16.119-51.448 9.5-59-.456-.52-1.871-3.003-2.5-3-.996-.233-2.086.766-2.5 1.5-1.308 2.32-8.122 46.119-9 52.5"/><path fill="#6b9eac" d="m843 484 .5 9c-7.327-.393-14.619 1.661-20.5 6 .962-11.056 3.582-24.851 4-35 7.517 4.455 12.723 11.946 16 20"/><path fill="#96c6db" d="M323 483c-1.654.234-2.343.962-3 1-12.662.741-15.427 1.157-28-5 .882-4.991 3.049-10.763 7-14 6.31 7.777 16.537 11.677 24 18"/><path fill="#07202d" d="M470 527c9.234 19.029 10.401 36.003 10 57h-1c-.448-20.609-15.21-63.486-35-73-8.056-9.789-20.03-15.485-32-19l2.5-4c-30.206-10.164-61.818 3.135-93-1-3.934-.522-1.6.031-1.5-3 .657-.038 1.346-.766 3-1 3.488-.494 7.937 1.655 12.5-1l-3.5-4c2.516-.731 5.028-2.319 7-4 8.901 5.003 22.473 9.825 32.5 7-8.543-1.214-15.706-3.035-23.5-6 49.371-12.717 99.368 5.363 122 52"/><path fill="#031d2c" d="m664 474-13.5 7c5.151 1.755 18.547-5.883 21-6 .323-.015.971 2.929 2 3 2.773.193 7.81.983 8.5 1l-2.5 4c4.29.781 8.326-1.326 12.5-1 2.408.188 6.146 2.37 8 4-34.263 4.375-68.644-10.279-100 5-12.777 6.226-23.463 14.663-33 25-16.861 18.276-26.22 36.883-29 62-3.356-2.043-2.281-12.241-2-15.5 1.35-15.67 6.731-31.121 15-44.5 22.109-35.775 53.486-47.459 94.5-47 5.089.057 13.624 3.092 18.5 3"/><path fill="#70a4b2" d="M194 477c1.326 10.925 2.012 22.034 3 33-.879-.464-4.949-2.34-6-2-3.929-2.642-18.63-9.479-19-10.5-.231-.637 2.073-9.322 0-10.5 1.319-3.91 3.113-6.484 5-10z"/><path fill="#0a1d25" d="M289 491c6.348.858 15.787 3.142 20-3 5.628 1.53 12.809 5.385 18.5 3 .862.65.849 1.341 0 2-1.305 1.014-29.097 5.919-32.5 6 2.438-2.891-.916-3.54-2.5-4-13.132-3.81-25.683-4.569-35.5-16 .018-1.305.998-.929 1-1 9.136 6.306 19.877 11.497 31 13"/><path fill="#2888ac" d="M295 499c-12.366.294-26.054-4.73-37-10 1.472-7.174-1.07-4.88-1-10 9.817 11.431 22.368 12.19 35.5 16 1.584.46 4.938 1.109 2.5 4"/><path fill="#0d6086" d="M753 491c-3.969 2.098-32.846 10.656-34 6.5 13.227-5.906 28.689-7.585 40-18.5-1.078 8.647 1.902 7.824-6 12"/><path fill="#a2c8d9" d="M309 488c-4.213 6.142-13.652 3.858-20 3l2-8c5.596 2.822 12.146 3.408 18 5"/><path fill="#d2f6fc" d="M846 539c-7.261 6.807-16.109 13.028-26.5 13l2.5-28c2.978-2.507 6.02-4.979 9-7.5l-11 5c-1.528-8.615 2.216-7.375 7-11.5.352-.304 1.638-.669 2-1.5-1.694-1.628-1.9.475-2 .5-2.147.547-3.203 1.322-5 2v-2c0-3.6.704-6.602 1-10 5.881-4.339 13.173-6.393 20.5-6l-.5-9c6.903 16.968 3.847 36.707 3 55"/><path fill="#beeffa" d="M191 508c2.18 1.466 4.52 4.525 7 6l-1 9c-4.51-2.871-11.78-9.458-16-11-.097-.035-.332-2.135-2-.5l2 1.5c5.671 4.526 13.148 12.269 19 16-.033 15.937 2.041 32.196 4 48-8.579 5.239-17.377 9.853-25.5 1 .216 5.018-.702 11.135-.5 16-1.808-13.079-4.577-26.384-6-39.5-2.2-20.271-6.194-49.133 0-67.5 2.073 1.178-.231 9.863 0 10.5.37 1.021 15.071 7.858 19 10.5"/><path fill="#20576f" d="m385 487 29 10c-.565-.148-10.918-1.948-11.5-2-18.469-1.643-37.936.937-53.5 11.5 3.374 3.069 8.378 2.359 12 4.5 2.34 1.383 4.414 5.587 5 6-8.978-10.662-30.835-9.133-35 5-3.01-.544-4.753 1.816-7 3 7.312-14.869 20.819-24.046 34-33 9.01-2.455 17.491-5.032 27-5"/><path fill="#60737c" d="M412 492c11.97 3.515 23.944 9.211 32 19-.18-.087-3.063.251-4 0-4.529-3.862-20.275-12.501-26-14l-29-10c8.947.03 18.439 2.486 27 5"/><path fill="#516167" d="m626 487-32.5 13c-8.779 5.618-16.74 9.879-23.5 18l-3-2c9.537-10.337 20.223-18.774 33-25 8.746-1.227 17.075-3.655 26-4"/><path fill="#164b67" d="M654 490c10.475 8.161 17.375 12.693 26 23-5.748 1.969-11.562-5.702-16.5-8-26.359-12.268-57.794-11.067-81.5 6.5 2.909 2.65 19.191-1.912 18 4.5-9.659-4.505-28.196-.593-31 10 .256-2.371 1.531-5.727-1-5 .648-.91 1.297-2.156 2-3 6.76-8.121 14.721-12.382 23.5-18l32.5-13c9.822-.38 18.493.722 28 3"/><path fill="#5b7279" d="M733 535c2.664 6.844-1.76 13.69-4 20-.795-1.214-2.811-2.063-4-3-10.474-8.256-21.332-15.545-33-22-3.331-6.918-7.199-11.263-12-17-8.625-10.307-15.525-14.839-26-23 32.523 7.794 51.986 31.418 79 45"/><path fill="#0d2832" d="m286 510 6-8c12.918 1.385 24.189 1.549 36.5-3 5.485-2.027 9.703-9.877 17.5-7.5-9.938 3.98-25.601 17.778-35.5 19.5-7.54 1.312-16.913-.283-24.5-1"/><path fill="#0c252f" d="M735 500c2.371 3.655 17.865 3.594 20-1-.233 1.228.15 2.722 0 4-13.228 3.798-24.702 8.359-39 8.5 16.021 4.771 31.266-3.226 46.5-6.5-15.117 11.619-36.081 10.903-54 8-.662-.107.039 2.406-2 2-1.892-.377-31.701-18.574-33-20-1.159-1.273-2.415-2.087-1-4 9.608.992 16.897 9.116 26 11 11.593 2.4 25.192.798 36.5-2"/><path fill="#156387" d="M755 499c-2.135 4.594-17.629 4.655-20 1 7.949-1.967 12.642-5.708 19-8 .685-.247 3.743-1.362 4-.5-2.084 1.666-2.559 5.174-3 7.5"/><path fill="#6a7d82" d="M358 492c-13.181 8.954-26.688 18.131-34 33-1.269.669-.937.969-1 1-4.701 2.327-10.127 3.983-15 6l-12.5 4-1.5-9c6.582-4.098 12.668-8.575 19-13 .673-.47 3.745-.592 4-3 15.777-6.86 22.182-13.873 41-19"/><path fill="#4795b6" d="m292 502-6 8c-5.347-.506-21.271-1.111-24-6-1.845-3.306.02-7.724-2-11 7.502 4.897 23.068 8.043 32 9"/><path fill="#09567c" d="M414 497c5.725 1.499 21.471 10.138 26 14 2.996 2.555 11.224 12.578 13 16 4.057 7.819 6.536 20.184 7 29 .219 4.156.367 9.93 0 14l-2-1.5c.066 3.726-.875 8.02-2 11.5l-8-2c.339-3.435-.001-5.728-1-9-.656-2.148-1.014-2.292-2-4 4.791-34.407-29.374-60.573-61.5-60l-22.5 6c-3.622-2.141-8.626-1.431-12-4.5 15.564-10.563 35.031-13.143 53.5-11.5.582.052 10.935 1.852 11.5 2"/><path fill="url(#b)" d="M680 513c4.801 5.737 8.669 10.082 12 17 6.434 13.362 10.105 27.948 9 43-.039-1.176-1.058-11.07-2.5-11-1.603 4.449-3.613 8.691-5.5 13l-9-5.5-7.5-19.5c-5.7-1.352-1.996 17.272-2.5 22-27.688-2.516-48.902 35.631-79 19.5 18.022 21.628 52.341 20.647 70-.5-15.084 23.939-54.005 23.061-71 2-8.002-9.916-11.416-24.741-9-37 .386-1.958.838-4.006 1-6 21.895 2.765 32.148-25.537 14-34 1.191-6.412-15.091-1.85-18-4.5 23.706-17.567 55.141-18.768 81.5-6.5 4.938 2.298 10.752 9.969 16.5 8" style="fill:url(#b)"/>/&gt;<path fill="#9ac8d6" d="M240 504c-4.789.546-.881 6.708-2 11-2.163-.435-5.88-1.359-8-2l3-15c1.985 1.734 5.032 4.633 7 6"/><path fill="#0e3341" d="M317 511c-.255 2.408-3.327 2.53-4 3-24.055 10.708-36.977 25.317-65 25v-8c2.92.084 48.887-3.108 44-9.5-9.59-1.676-20.887 9.746-30 5l9.5-3.5h-24l6.5 3.5c-2.573 1.815-6.128-.356-8-.5l-1-7c11.977 1.554 17.399-1.469 27.5-2 8.568-.451 18.467 3.08 27.5-.5-18.011-2.249-37.039-2.479-52.5-13.5 18.675 7.749 36.607 11.762 57 10l-3 3c4.256-1.43 11.697-3.347 15.5-5"/><path fill="#cdeff7" d="M240 504c1.458 1.013 3.207 2.532 4 3l1 8c-1.346-.184-5.067.389-7 0 1.119-4.292-2.789-10.454 2-11"/><path fill="#0a4e71" d="m774 504-2 11c-8.334 1.049-16.614 1.693-25 .5 10.441-.41 18.726-5.61 27-11.5"/><path fill="#024b76" d="M445 565c-3.045-5.274-10.246-7.974-11-14.5l-2 3.5c-2.109-2.57-11.866-2.039-15-1l15-2.5c-4.532-19.137-23.097-32.684-42.5-34.5-5.219-.489-21.418 2.325-22.5 2-1.38-.415-.942-.959-1-1-.586-.413-2.66-4.617-5-6l22.5-6c32.126-.573 66.291 25.593 61.5 60"/><path fill="#05090d" d="M197 510c1.458.769 2.54 1.281 4 2 5.771 2.842 7.818 3.808 14 6 12.285 4.357 17.211 6.939 31 8 1.872.144 5.427 2.315 8 .5l-6.5-3.5h24l-9.5 3.5c9.113 4.746 20.41-6.676 30-5 4.887 6.392-41.08 9.584-44 9.5-5.107-.147-12.035-.936-17-2-10.078-2.16-20.171-7.882-29-13-1.481-.859-3.112-1.472-4-2-2.48-1.475-4.82-4.534-7-6 1.051-.34 5.121 1.536 6 2"/><path fill="#165c77" d="m245 515-1-8c7.273 4.291 14.829 6.579 23 8.5l-14.5 1.5c-2.079-.929-5.357-1.708-7.5-2"/><path fill="#24596b" d="M827 510v-1c.1-.025.306-2.128 2-.5-.362.831-1.648 1.196-2 1.5"/><path fill="#93e8f8" d="M169 566c-2.091 5.452-3.439 12.05-10 14-.844-7.053-1.406-13.919-2-21v-42c.805-1.498 4.845-6.65 7-6.5.73 18.589 2.63 37.09 5 55.5"/><path fill="#fdfefe" d="M366 517c.058.041-.38.585 1 1 9.647 15.605-5.563 30.861-22 28-.397-.069-6.28-3.475-7-4-6.443-4.694-9.306-12.177-7-20 4.165-14.133 26.022-15.662 35-5"/><path fill="#94a5a6" d="M444 511c19.79 9.514 34.552 52.391 35 73 .115 5.271.097 9.78-1 15h-2c.602-3.196-.501-6.839-1-10 1.64 1.017 1.603 3.866 2-.5 1.128-12.411-7.048-36.669-13-48-2.247-4.278-6.903-10.691-11-13.5-1.776-3.422-10.004-13.445-13-16 .937.251 3.82-.087 4 0"/><path fill="#619bae" d="M181 512v1l-2-1.5c1.668-1.635 1.903.465 2 .5"/><path fill="#a9d2e0" d="m245 519 1 7c-13.789-1.061-18.715-3.643-31-8 4.099.911 4.619-4.086 6-7 6.669 3.477 16.55 7.034 24 8"/><path fill="#03080b" d="M197 523c1.774 1.129 3.137 2.932 5 4 8.976 5.148 18.72 9.262 29 11 5.372.908 11.533.938 17 1 28.023.317 40.945-14.292 65-25-6.332 4.425-12.418 8.902-19 13-4.548 2.832-8.589 6.16-13 9-2.687 1.73-15.754 4.234-15 10.5 15.11 26.36 28.649 56.269 54 74.5-18.765-11.246-32.79-30.372-44-49-1.632-2.712-9.253-20.672-10.5-21-3.788 1.379-8.542 1.29-12.5 1-1.311-.096-2.7.141-4 0-9.192-.998-18.197-2.099-27-5-1.56-.514-6.053-3.042-8-4-1.35-.664-4.37-1.606-5-2-.2-.125-5.706-3.674-2.5-4 9.634 4.375 20.321 8.927 31 10 3.035.305 31.509 1.398 24.5-3.5-1.59-1.111-23.306.063-27.5-.5-10.351-1.39-23.688-7.618-32.5-13-.558-.341-1.452-.651-2-1-5.852-3.731-13.329-11.474-19-16v-1c4.22 1.542 11.49 8.129 16 11"/><path fill="#9bebfa" d="M859 519c-1.913 9.518-3.564 24.631-3 34.5.057 1.001 1.859 10.383 4 10.5-.412 4.957-1.733 9.947-2 15l-1 4c-.683-4.392-4.737-6.102-6-9.5-1.112-2.993 1.843-12.113-3-9.5 1.779-16.727 3.042-33.628 3-50.5 3.458-2.994 6.748 3.599 8 5.5"/><path fill="#3c6775" d="M202 516v11c-1.863-1.068-3.226-2.871-5-4l1-9c.888.528 2.519 1.141 4 2"/><path fill="#fdfefe" d="M600 516c18.148 8.463 7.895 36.765-14 34-9.6-1.213-19.526-14.457-17-24 2.804-10.593 21.341-14.505 31-10"/><path fill="#0d2d39" d="m771 519-1 6c-18.061 2.631-23.636-.746-41-4.5 9.359 9.086 28.617 9.836 41 9.5-2.455.726-3.123 6.531-2 9-25.792.529-37.977-10.838-59-23.5 18.474.537 44.038 5.149 62 3.5"/><path fill="#d9e8ec" d="M231 529v9c-10.28-1.738-20.024-5.852-29-11v-11c8.829 5.118 18.922 10.84 29 13"/><path fill="url(#c)" d="M417 553c-15.873 5.261-9.751 25.221-12.5 29-3.677 5.054-30.464 9.026-37 8-3.045-.478-16.615-9.074-17.5-5.5 2.741 3.485 6.673 8.585 10 11.5l-1 1c-16.788-13.257-18.652-30.949-14-51 16.437 2.861 31.647-12.395 22-28 1.082.325 17.281-2.489 22.5-2 19.403 1.816 37.968 15.363 42.5 34.5z" style="fill:url(#c)"/>/&gt;<path fill="#6a8187" d="M570 518c-.703.844-1.352 2.09-2 3-4.919 6.912-8.346 13.719-10 22-6.198 9.924-10.589 21.858-14 33-.864 2.823-5.904 16.808-6 18-1.242-4.141-.471-11.741 0-16 2.78-25.117 12.139-43.724 29-62z"/><path fill="#d7f3f9" d="M157 559c-1.152-13.732-6.891-29.175 0-42z"/><path fill="#1d87ae" d="M551 518c-8.269 13.379-13.65 28.83-15 44.5-.281 3.259-1.356 13.457 2 15.5-.471 4.259-1.242 11.859 0 16-.474 5.869 13.282 16.537 18.5 20 11.907 7.901 25.175 11.736 38.5 16 20.075 6.424 25.205 10.253 48 8-2.38 5.517-14.834-2.292-14 6-11.468 1.701-38.749 24.438-51.5 32-15.873 9.413-49.075 28.645-65.5 34-3.912 1.275-7.908 2.381-12 3-57.554 8.704-134.863-8.641-180.5-45-4.037-3.216-8.104-13.143-11.5-6-17.268-27.221-26.65-57.923-34.5-89l2.5-1c11.21 18.628 25.235 37.754 44 49 6.578 4.73 10.351 7.049 18 10-1.482 3.294-8.589-4.408-7.5 1 39.922 21.714 88.865 11.374 126-11 9.761-5.881 19.079-10.477 21.5-22 1.097-5.22 1.115-9.729 1-15h1c18.577 1.644 36.271-3.638 54.5-6-.64-19.143 2.885-39.396 10.5-57 2.524 5.038 1.714-3.257 6-3"/><path fill="#cfe6eb" d="M775 524c-1.617.284-3.224.741-5 1l1-6c1.82-.167 2.067-.849 3-1z"/><path fill="#8bbac5" d="m813 527-1-7c.206-.056 1.47-3.596 4-1.5.603 5.624.127 5.344-3 8.5"/><path fill="#e6fbfe" d="M863 527c1.243 10.002-2.113 26.328-3 37-2.141-.117-3.943-9.499-4-10.5-.564-9.869 1.087-24.982 3-34.5 2.183 3.315 3.38 3.008 4 8"/><path fill="#709aa5" d="m812 520 1 7c-7.277 7.345-34.795 11.791-45 12-1.123-2.469-.455-8.274 2-9 18.796-.51 25.575-5.505 42-10"/><path fill="#07648e" d="M569 526c-.011.102-1.994-.313-2 .5-.082 11.961 10.605 17.947 3 27l-1 8.5c-2.943 5.053-4.85 9.986-4 16-.916.5-4.885 2.245-5 2.5-.17.378.802 2.264 1 3.5l-1 1c-4.505-15.875-5.289-25.535-2-42 1.654-8.281 5.081-15.088 10-22 2.531-.727 1.256 2.629 1 5"/><path fill="#0979a9" d="M331 522c-2.306 7.823.557 15.306 7 20-3.451 7.278-5.912 15.843-6 24-1.31 1.859-2.85.951-3 1l-.5-8c-6.664.854-8.15 8.972-15.5 7-.483-14.44 4.068-27.231 10-40 .063-.031-.269-.331 1-1 2.247-1.184 3.99-3.544 7-3"/><path fill="#73adbc" d="M846 539c-.607 13.111-1.322 25.99-3 39-10.81 7.042-20.444 9.529-30-1 2.423-16.117 3.966-32.708 5-49 .601-.423 2.632-2.849 4-4l-2.5 28c10.391.028 19.239-6.193 26.5-13"/><path fill="#e3f5fa" d="M323 526c-5.932 12.769-10.483 25.56-10 40 .072 2.164.641 6.847 1 9 3.337 20.004 18.065 36.966 31.5 49 1.821 1.632 1.863 1.918-.5 3-20.717-9.935-31.818-22.926-44-42 2.443-1.021 3.227-4.141 3-6.5-1.07-11.108-10.292-27.852-10-40.5 4.823-1.62 9.335-4.069 14-6 4.873-2.017 10.299-3.673 15-6"/><path fill="#7a9296" d="M475 589c-1.731-10.959-8.222-24.222-15-33-.464-8.816-2.943-21.181-7-29 4.097 2.809 8.753 9.222 11 13.5 5.952 11.331 14.128 35.589 13 48-.397 4.366-.36 1.517-2 .5"/><path fill="#024b7a" d="M569 526c-2.526 9.543 7.4 22.787 17 24-.162 1.994-.614 4.042-1 6-5.626.821-4.643 15.388-7 17.5-2.428 2.176-4.867-4.314-6 4.5-2.565-8.728-1.456-16.508 4-23.5-3.121.877-5.499 4.923-7 7.5l1-8.5c7.605-9.053-3.082-15.039-3-27 .006-.813 1.989-.398 2-.5"/><path fill="#5c6a6d" d="M308 532c-4.665 1.931-9.177 4.38-14 6-4.195 1.409-8.524 2.777-13 3-.134-1.639.09-3.353 0-5 4.411-2.84 8.452-6.168 13-9l1.5 9z"/><path fill="#1f586e" d="M866 532c.801 13.122-2.538 32.359-4 46-.688 6.416-1.13 12.533-2 19-4.71.151-2.019-.352-2-2.5.039-4.476-.207-11.585 0-15.5.267-5.053 1.588-10.043 2-15 .887-10.672 4.243-26.998 3-37 .77 1.419 3.792 2.727 4 3.5.178.66-1.116-.397-1 1.5"/><path fill="#1f5363" d="M818 528c-1.034 16.292-2.577 32.883-5 49-3.108 20.67-7.991 41.474-12 62-2.227 11.402-3.508 23.151-6 34.5-1.24 5.646-10.005 28.393-8 32 1.307-.15 2.688-.318 4-.5-.146 1.071-.999.878-2 2-2.327 2.607-15.682 39.268-20 47.5-24.705 47.102-65.524 91.866-111 119.5-5.182 3.149-10.603 6.229-16 9-80.392 41.27-183.922 42.815-265 2-4.879-2.456-11.114-7.048-16-10-56.57-34.183-113.87-101.055-132-165-3.031-10.691-6.471-27.422-9-39-2.455-11.24-4.926-22.69-7-34-2.048-11.166-4.351-22.814-6-34-1.254-8.501-1.938-17.433-3-26-1.959-15.804-4.033-32.063-4-48 .548.349 1.442.659 2 1l8 60c.77 8.109 1.942 15.957 3 24 14.552 110.638 65.365 206.249 165 261 53.218 29.244 104.859 39.56 166 32 1.22-.151 3.195-.732 5-1 10.303-1.53 19.998-4.288 30-7 165.555-44.884 214.707-190.221 233-344 .836-7.03.558-11.76 1-18 .053-.751.72-1.55 1-3 .29-1.504 1.928-1.647 0-4 1.072-.652 3.688-1.78 4-2"/><path fill="#a6d1dd" d="M248 531v8c-5.467-.062-11.628-.092-17-1v-9c4.965 1.064 11.893 1.853 17 2"/><path fill="#c4dfe8" d="M209 541c-4.403 11.849 1.037 27.177 2 39.5.23 2.943-1.079 8.668-1 9.5l-8-60c8.812 5.382 22.149 11.61 32.5 13 4.194.563 25.91-.611 27.5.5 7.009 4.898-21.465 3.805-24.5 3.5-10.679-1.073-21.366-5.625-31-10-3.206.326 2.3 3.875 2.5 4"/><path fill="#c1e0e8" d="M725 552c-4.041 6.978-8.523 13.698-11 21.5-.573 1.804-3.851 13.17-1 14.5-9.312 14.568-20.232 26.934-35 36-1.686-2.039-4.548 1.765-2-3 10.122-7.885 14.446-14.362 19-25 1.861-4.348 3.131-7.203 4-12 .747-4.123 2.153-6.331 2-11 1.105-15.052-2.566-29.638-9-43 11.668 6.455 22.526 13.744 33 22"/><path fill="#7ba5b3" d="M814 534c-15.407 10.438-30.424 11.516-48 12v-2c15.921.072 34.537-5.811 48-14 1.928 2.353.29 2.496 0 4"/><path fill="#b4f0fa" d="M154 574c-6.142 2.499-7.095 12.725-15 12-.741-5.736-4.94-32.324-4-35.5.578-1.952 13.988-15.605 15.5-19.5.74 14.391 1.942 28.695 3.5 43"/><path fill="#a8eaf6" d="m876 585-14-7c1.462-13.641 4.801-32.878 4-46 2.808.397 14.694 17.333 15 18.5.94 3.581-4.128 28.42-5 34.5"/><path fill="#010508" d="M813 537c-2.2.969-4.291 2.298-6 4-.597.595-.35-.475-2 2-11.995 3.545-23.325 8.196-36 9-1.647.104-3.349-.069-5 0-.66.028-1.339-.014-2 0-1.907.041-10.346-2.241-12-2l-3 1.5c-9.706 24.919-25.476 47.745-47 63.5 8.591-8.867 17.745-17.415 25-27.5 8.342-11.596 16.975-34.919 25-42.5 4.659 3.989 10.876 1.141 16 1 17.576-.484 32.593-1.562 48-12-.28 1.45-.947 2.249-1 3"/><path fill="#092733" d="M751 542c.188.915-.441 2.472-1 3-8.025 7.581-16.658 30.904-25 42.5-7.255 10.085-16.409 18.633-25 27.5-12.711 9.304-20.812 13.374-36 18l-2-1c5.743-1.953 10.865-4.847 16-8 14.768-9.066 25.688-21.432 35-36 6.562-10.266 11.915-21.489 16-33 2.24-6.31 6.664-13.156 4-20 3.585 1.802 14.248 6.135 18 7"/><path fill="#0a2d3b" d="M281 536c.09 1.647-.134 3.361 0 5 .945 11.552 13.473 33.78 20 44 12.182 19.074 23.283 32.065 44 42 9.883 4.74 19.868 9.051 31 10v2c-13.378-.425-25.609-3.22-38-8-7.649-2.951-11.422-5.27-18-10-25.351-18.231-38.89-48.14-54-74.5-.754-6.266 12.313-8.77 15-10.5"/><path fill="#759fa9" d="m812 555-8 11.5 3-25.5c1.709-1.702 3.8-3.031 6-4-.442 6.24-.164 10.97-1 18"/><path fill="#c1cdce" d="M301 585c-6.527-10.22-19.055-32.448-20-44 4.476-.223 8.805-1.591 13-3-.292 12.648 8.93 29.392 10 40.5.227 2.359-.557 5.479-3 6.5"/><path fill="#adced9" d="M214 543c7.111 28.584 12.015 58.155 20 86.5 13.086 46.454 30.729 88.376 54 130.5 15.705 28.429 33.594 48.451 49.5 74 1.116 1.793 2.132 2.168 1.5 5-1.211-.728-5.743-3.836-7-2-49.339-42.019-79.951-93.641-101-154.5-.824-2.382-2.723-.166-3-1-6.221-18.754-8.639-44.22-12-64-.118-.693-1.01-7.838-3-3.5-1.058-8.043-2.23-15.891-3-24-.079-.832 1.23-6.557 1-9.5-.963-12.323-6.403-27.651-2-39.5.63.394 3.65 1.336 5 2"/><path fill="#577c84" d="m807 541-3 25.5 8-11.5c-18.293 153.779-67.445 299.116-233 344-7.945.187-17.675 2.258-25.5 4-1.207.269-5.166 1.051-4.5 3-1.805.268-3.78.849-5 1l-3-4c94.664-13.824 172.208-70.597 217-154.5 29.809-55.837 37.109-116.011 46-178L781 614c6.026-18.3 14.134-56.198 24-71 1.65-2.475 1.403-1.405 2-2"/><path fill="#65defc" d="M345 546c-4.652 20.051-2.788 37.743 14 51 12.707 10.035 26.03 13.111 42 9l4 20c-11.199 2.411-22.938 3.026-34 0-27.548-7.535-39.282-33.805-39-60 .088-8.157 2.549-16.722 6-24 .72.525 6.603 3.931 7 4"/><path fill="#093e56" d="M766 544v2c-5.124.141-11.341 2.989-16-1 .559-.528 1.188-2.085 1-3 3.448.795 11.734 1.985 15 2"/><path fill="#ebf1f3" d="M222 547c19.199 72.401 42.083 144.19 76 211l-10 2c-23.271-42.124-40.914-84.046-54-130.5-7.985-28.345-12.889-57.916-20-86.5 1.947.958 6.44 3.486 8 4"/><path fill="#b6e0ed" d="M560 585c.088.309-.094.696 0 1l-16-10c3.411-11.142 7.802-23.076 14-33-3.289 16.465-2.505 26.125 2 42"/><path fill="url(#d)" d="M805 543c-9.866 14.802-17.974 52.7-24 71-2.217 6.733-4.741 13.308-7 20-64.837 137.033-194.777 274.74-361 243-16.386-8.098-39.992-13.544-55-25-2.104-1.606-3.245-3.172-5-5-18.091-18.842-42.74-64.851-55-89-33.917-66.81-56.801-138.599-76-211 8.803 2.901 17.808 4.002 27 5-2.939 1.748-1.547 4.791-1 7.5 7.137 35.344 26.771 88.858 48 118 70.61 96.93 292.759 98.281 385.5 36.5 48.078-32.028 77.367-107.151 87.5-162 12.675-.804 24.005-5.455 36-9M453 826c3.525 11.807 12.263 22.766 24 27 22.302 12.15 50.896 12.575 71-4 5.359-4.418 16.523-19.735 18-26 1.24-5.263-6.98-5.405-10-7-11.84-6.251-24.111-20.917-36.5-20-1.846.137-5.966 2.709-7.5 3-10.223 1.941-7.871-2.275-15.5-3-13.464-1.279-20.802 11.991-31 18-4.55 2.681-24.032 3.985-12.5 12" style="fill:url(#d)"/>/&gt;<path fill="#1d93c5" d="M445 565c.986 1.708 1.344 1.852 2 4-1.696 8.826-8.404-1.495-14-1 .367-3.608 1.346-11.141-1-14l2-3.5c.754 6.526 7.955 9.226 11 14.5"/><path fill="#14a8dc" d="M693 575c-.786 1.796-1.481 4.079-2 6-.427.077-1.873.874-2 1-6.562-.276-9.949-6.021-16-8 .178-.972.902-1.081 1-2 .504-4.728-3.2-23.352 2.5-22l7.5 19.5z"/><path fill="#487d90" d="M750 550c.641 5.307-3.516 10.74-6 15-32.746 56.155-51.896 69.643-115 79-.834-8.292 11.62-.483 14-6 8.516-.842 13.14-2.606 21-5 15.188-4.626 23.289-8.696 36-18 21.524-15.755 37.294-38.581 47-63.5z"/><path fill="url(#e)" d="M762 552c-10.721 32.646-19.976 66.38-38 96-23.873 39.231-53.571 63.862-97 79-15.682 5.466-36.454 11.371-51.5 14-2.196.384-10.57-1.497-13 2-44.901 5.965-119.093 4.066-163-14-3.049-1.254-3.467-2.323.5-2 5.244 1.912 29.744 8.629 32.5 9 10.98 1.477 40.045-10.286 52-15 5.192-2.047 11.183-4.285 15.5-8 4.092-.619 8.088-1.725 12-3 57.151-5.784 110.671-30.012 159.5-59 9.502-5.641 49.449-30.077 54.5-36.5 7.535-9.582 16.206-37.028 18-49.5 2.484-4.26 6.641-9.693 6-15 1.654-.241 10.093 2.041 12 2" style="fill:url(#e)"/>/&gt;<path fill="#0e5980" d="m276 572-2.5 1c7.85 31.077 17.232 61.779 34.5 89 19.83 31.26 57.543 52.433 92 65-3.967-.323-3.549.746-.5 2 43.907 18.066 118.099 19.965 163 14 2.43-3.497 10.804-1.616 13-2 15.046-2.629 35.818-8.534 51.5-14 2.318 4.792 12.126-3.189 16.5-5 32.993-13.663 49.596-23.176 70.5-53.5 3.59-5.207 8.747-14.768 10-20.5 18.024-29.62 27.279-63.354 38-96 .661-.014 1.34.028 2 0-11.285 51.734-35.887 121.811-80.5 154-89.133 64.312-313.394 64.405-382.5-31.5-25.017-34.718-37.17-81.622-48-122.5 3.958.29 8.712.379 12.5-1 1.247.328 8.868 18.288 10.5 21"/><path fill="#a6edfc" d="M253 552c10.83 40.878 22.983 87.782 48 122.5 69.106 95.905 293.367 95.812 382.5 31.5 44.613-32.189 69.215-102.266 80.5-154 1.651-.069 3.353.104 5 0-10.133 54.849-39.422 129.972-87.5 162-92.741 61.781-314.89 60.43-385.5-36.5-21.229-29.142-40.863-82.656-48-118-.547-2.709-1.939-5.752 1-7.5 1.3.141 2.689-.096 4 0"/><path fill="#4087a3" d="M432 554c2.346 2.859 1.367 10.392 1 14-.898 8.819-1.818 11.92-7 19 .207-2.134 6.579-17.008 4.5-18-17.047 3.108-35.664 11.436-13 26 .656.002 4.455-3.169 5.5-4 .182 1.056-.384 2.259-1 3-1.346 1.618-3.627 2.193-5 3-16.165 9.498-32.584 12.692-50 4 .652-3.808-1.106-2.027-4-3-1.15-.809-1.943-1.074-3-2-3.327-2.915-7.259-8.015-10-11.5.885-3.574 14.455 5.022 17.5 5.5 6.536 1.026 33.323-2.946 37-8 2.749-3.779-3.373-23.739 12.5-29 3.134-1.039 12.891-1.57 15 1"/><path fill="#93aaaf" d="M729 555c-4.085 11.511-9.438 22.734-16 33-2.851-1.33.427-12.696 1-14.5 2.477-7.802 6.959-14.522 11-21.5 1.189.937 3.205 1.786 4 3"/><path fill="#40d0f7" d="M572 578c-.428 3.329 5.205 20.461 7.5 21 .764.18 12.845-4.542 14.5-6 16.995 21.061 55.916 21.939 71-2 4.978-5.961 6.587-9.266 8-17 6.051 1.979 9.438 7.724 16 8-2.567 2.543-6.888 20.915-11 25-21.416 18.445-33.244 26.328-63 20-19.938-4.24-47.091-28.406-50-49-.85-6.014 1.057-10.947 4-16 1.501-2.577 3.879-6.623 7-7.5-5.456 6.992-6.565 14.772-4 23.5"/><path fill="#e3f5fa" d="M475 589c.499 3.161 1.602 6.804 1 10-2.52 13.38-45.222 28.449-57 32 21.817-11.306 38.779-36.336 41-61 .367-4.07.219-9.844 0-14 6.778 8.778 13.269 22.041 15 33"/><path fill="#26a3d1" d="M585 556c-2.416 12.259.998 27.084 9 37-1.655 1.458-13.736 6.18-14.5 6-2.295-.539-7.928-17.671-7.5-21 1.133-8.814 3.572-2.324 6-4.5 2.357-2.112 1.374-16.679 7-17.5"/><path fill="#4a8391" d="m141 615-13-55c.805-.68 1.917-4.176 4-2.5 1.512 19.35 6.356 38.384 9 57.5"/><path fill="#089bd1" d="M329 567c-5.499 1.797-8.815 7.361-15 8-.359-2.153-.928-6.836-1-9 7.35 1.972 8.836-6.146 15.5-7z"/><path fill="#305a65" d="M141 615c.528 3.82 3.793 11.683-3.5 10-10.478-2.418-16.005-46.896-14.5-56.5.762-4.859 1.563-5.596 5-8.5z"/><path fill="#5fa0b0" d="m888 563-14 51c.878-6.381 7.692-50.18 9-52.5.414-.734 1.504-1.733 2.5-1.5.629-.003 2.044 2.48 2.5 3"/><path fill="#0175b1" d="M701 573c.153 4.669-1.253 6.877-2 11-.876-1.792-6.936-3.193-8-3 .519-1.921 1.214-4.204 2-6 1.887-4.309 3.897-8.551 5.5-13 1.442-.07 2.461 9.824 2.5 11"/><path fill="#66aabc" d="M857 583c.745 4.796-2.864 26.95-4 33-5.035-.958-8.893-4.338-11-9 2.528-14.397 4.452-28.447 6-43 4.843-2.613 1.888 6.507 3 9.5 1.263 3.398 5.317 5.108 6 9.5"/><path fill="#3e6d7b" d="m874 614 14-51c6.619 7.552 1.415 54.555-9.5 59-8.993 3.663-5.204-2.885-4.5-8"/><path fill="#0d5a7f" d="M512 710c16.425-5.355 49.627-24.587 65.5-34 12.751-7.562 40.032-30.299 51.5-32 63.104-9.357 82.254-22.845 115-79-1.794 12.472-10.465 39.918-18 49.5-5.051 6.423-44.998 30.859-54.5 36.5-48.829 28.988-102.349 53.216-159.5 59"/><path fill="#5697a8" d="m176 613-11 7c-2.897-14.152-4.295-25.755-6-40 6.561-1.95 7.909-8.548 10-14 2.021 15.697 4.422 31.392 7 47"/><path fill="#0abcf3" d="M371 626c-12.521 12.422 30.154 9.321 36 8-9.612 3.058-20.916 3.86-31 3-11.132-.949-21.117-5.26-31-10 2.363-1.082 2.321-1.368.5-3-13.435-12.034-28.163-28.996-31.5-49 6.185-.639 9.501-6.203 15-8 .15-.049 1.69.859 3-1-.282 26.195 11.452 52.465 39 60"/><path fill="#40b6dd" d="M447 569c.999 3.272 1.339 5.565 1 9-.498 5.053-3.825 10.514-6 15-5.879-.464-14.908 6.923-20 1 .616-.741 1.182-1.944 1-3 2.525-2.009 1.971-2.595 3-4 5.182-7.08 6.102-10.181 7-19 5.596-.495 12.304 9.826 14 1"/><path fill="#071e38" d="M460 570c-2.221 24.664-19.183 49.694-41 61-17.598 5.305-23.102 8.632-43 8v-2c10.084.86 21.388.058 31-3 16.743-3.784 31.973-19.776 40-34 3.593-6.366 6.745-13.023 9-20 1.125-3.48 2.066-7.774 2-11.5z"/><path fill="#85b5c7" d="M426 587c-1.029 1.405-.475 1.991-3 4-1.045.831-4.844 4.002-5.5 4-22.664-14.564-4.047-22.892 13-26 2.079.992-4.293 15.866-4.5 18"/><path fill="#3b5f6a" d="M541 903c-7.759 1.133-18.353 2.661-26 3l57.5-12C695.429 859.867 737.383 742.485 774 634c2.259-6.692 4.783-13.267 7-20l23-43.5c-8.891 61.989-16.191 122.163-46 178-44.792 83.903-122.336 140.676-217 154.5"/><path fill="#298aaf" d="M674 572c-.098.919-.822 1.028-1 2-1.413 7.734-3.022 11.039-8 17-17.659 21.147-51.978 22.128-70 .5 30.098 16.131 51.312-22.016 79-19.5"/><path fill="#5c92a0" d="M157 598c-5.9 3.442-11.551 10.105-13 16a302 302 0 0 1-5-28c7.905.725 8.858-9.501 15-12a738 738 0 0 0 3 24"/><path fill="#e3f5fb" d="M560 586c5.355 17.369 18.057 35.782 35 43v1c-13.325-4.264-26.593-8.099-38.5-16-5.218-3.463-18.974-14.131-18.5-20 .096-1.192 5.136-15.177 6-18z"/><path fill="#72a7b6" d="M204 577c1.062 8.567 1.746 17.499 3 26-6.888 6.398-15.596 7.297-24.5 5l-.5 11c-1.36-8.425-3.639-16.335-4-25-.202-4.865.716-10.982.5-16 8.123 8.853 16.921 4.239 25.5-1"/><path fill="#537d86" d="M843 578c-2.513 19.483-7.162 43.976-12 63-9.646 2.707-21.129 4.489-30-2 4.009-20.526 8.892-41.33 12-62 9.556 10.529 19.19 8.042 30 1"/><path fill="#0c90c4" d="M456 580c-2.255 6.977-5.407 13.634-9 20l-19 15c4.62-8.029 9.774-13.283 14-22 2.175-4.486 5.502-9.947 6-15z"/><path fill="#0590cb" d="M565 578c2.909 20.594 30.062 44.76 50 49l-.5 4 24.5 4c-4.161.436-8.931.907-13 2-9.849-.661-22.363-4.175-31-9-12.548-7.01-31.727-29.812-34-44-.198-1.236-1.17-3.122-1-3.5.115-.255 4.084-2 5-2.5"/><path fill="#5c8d9b" d="M876 585c-1.6 11.151-3.428 25.256-6 36l-13-4c1.196-6.644 2.1-13.309 3-20 .87-6.467 1.312-12.584 2-19z"/><path fill="#028fd2" d="M699 584c-.869 4.797-2.139 7.652-4 12-2.457-6.03-12.823 7.403-17 11 4.112-4.085 8.433-22.457 11-25 .127-.126 1.573-.923 2-1 1.064-.193 7.124 1.208 8 3"/><path fill="#051837" d="M595 628v1c-16.943-7.218-29.645-25.631-35-43-.094-.304.088-.691 0-1l1-1c2.273 14.188 21.452 36.99 34 44"/><path fill="#3dcaf2" d="M442 593c-4.226 8.717-9.38 13.971-14 22-6.148 5.506-15.025 9.283-23 11l-4-20c5.844-1.504 12.198-4.175 16-9 1.373-.807 3.654-1.382 5-3 5.092 5.923 14.121-1.464 20-1"/><path fill="#009bde" d="M695 596c-4.554 10.638-8.878 17.115-19 25-12.972 10.105-21.104 12.334-37 14l-24.5-4 .5-4c29.756 6.328 41.584-1.555 63-20 4.177-3.597 14.543-17.03 17-11"/><path fill="#0a4a76" d="M363 598c1.249.879 1.793 1.899 4 3 17.416 8.692 33.835 5.498 50-4-3.802 4.825-10.156 7.496-16 9-15.97 4.111-29.293 1.035-42-9l1-1c1.057.926 1.85 1.191 3 2"/><path fill="#4e7b87" d="m160 618-14 7c-1.405-3.771-1.216-7.577-2-11 1.449-5.895 7.1-12.558 13-16 .95 6.684 1.829 13.349 3 20"/><path fill="#429bbb" d="M367 601c-2.207-1.101-2.751-2.121-4-3 2.894.973 4.652-.808 4 3"/><path fill="#019bdb" d="M447 600c-8.027 14.224-23.257 30.216-40 34-5.846 1.321-48.521 4.422-36-8 11.062 3.026 22.801 2.411 34 0 7.975-1.717 16.852-5.494 23-11z"/><path fill="#64a5ba" d="M478 599c-2.421 11.523-11.739 16.119-21.5 22-37.135 22.374-86.078 32.714-126 11-1.089-5.408 6.018 2.294 7.5-1 12.391 4.78 24.622 7.575 38 8 19.898.632 25.402-2.695 43-8 11.778-3.551 54.48-18.62 57-32z"/><path fill="#57838e" d="M213 637c-8.801 6.101-17.26 4.052-27 5-1.787-7.378-2.785-15.475-4-23l.5-11c8.904 2.297 17.612 1.398 24.5-5 1.649 11.186 3.952 22.834 6 34"/><path fill="#477681" d="M853 616c-2.807 14.948-8.49 42.205-23.5 48 4.272-18.975 9.128-37.796 12.5-57 2.107 4.662 5.965 8.042 11 9"/><path fill="#d3ddde" d="M332 837c8.75 7.452 17.134 12.929 26 19 12.148 8.318 21.503 15.058 35 22-2.72 4.933-10.673-6.257-15-3-99.635-54.751-150.448-150.362-165-261 1.99-4.338 2.882 2.807 3 3.5 3.361 19.78 5.779 45.246 12 64 .277.834 2.176-1.382 3 1 21.049 60.859 51.661 112.481 101 154.5"/><path fill="#406d79" d="m165 620 11-7 10.5 52c-17.314-6.906-18.271-29.222-21.5-45"/><path fill="#435e64" d="M870 621c-3.277 13.69-4.428 16.69-18.5 22 1.574-8.725 3.923-17.242 5.5-26z"/><path fill="#3b5c64" d="m146 625 14-7c1.67 9.484 3.716 18.805 6.5 28-8.731-2.655-17.35-12.544-20.5-21"/><path fill="#6bd8f5" d="M676 621c-2.548 4.765.314.961 2 3-5.135 3.153-10.257 6.047-16 8-12.286 4.178-22.936 5.876-36 5 4.069-1.093 8.839-1.564 13-2 15.896-1.666 24.028-3.895 37-14"/><path fill="#11466e" d="M626 637c13.064.876 23.714-.822 36-5l2 1c-7.86 2.394-12.484 4.158-21 5-22.795 2.253-27.925-1.576-48-8v-2c8.637 4.825 21.151 8.339 31 9"/><path fill="url(#f)" d="M515 906c-22.461.996-44.265-2.025-66-7 3.741.099.44-1.547-.5-2-12.538-6.045-24.842-14.733-35.5-20 166.223 31.74 296.163-105.967 361-243-36.617 108.485-78.571 225.867-201.5 260Z" style="fill:url(#f)"/>/&gt;<path fill="#4b686f" d="m220 671-27-4c-2.801-7.73-5.058-16.981-7-25 9.74-.948 18.199 1.101 27-5 2.074 11.31 4.545 22.76 7 34"/><path fill="#42595f" d="M831 641c-5.04 19.817-15.696 60.626-40 64-1.312.182-2.693.35-4 .5-2.005-3.607 6.76-26.354 8-32 2.492-11.349 3.773-23.098 6-34.5 8.871 6.489 20.354 4.707 30 2"/><path fill="#18678e" d="M627 727c43.429-15.138 73.127-39.769 97-79-1.253 5.732-6.41 15.293-10 20.5-20.904 30.324-37.507 39.837-70.5 53.5-4.374 1.811-14.182 9.792-16.5 5"/><path fill="#0e5f88" d="M500 713c-4.317 3.715-10.308 5.953-15.5 8-11.955 4.714-41.02 16.477-52 15-2.756-.371-27.256-7.088-32.5-9-34.457-12.567-72.17-33.74-92-65 3.396-7.143 7.463 2.784 11.5 6 45.637 36.359 122.946 53.704 180.5 45"/><path fill="#40575c" d="M220 671c2.529 11.578 5.969 28.309 9 39-1.147-.1-1.596-1.075-2-2-1.865-4.266-19.066-12.804-24-19.5-3.261-4.425-8.018-16.028-10-21.5z"/><path fill="#d0e4eb" d="M298 758c12.26 24.149 36.909 70.158 55 89-2.398 2.545-.487 2.012-3 .5-3.759-2.261-6.691-5.909-11-8.5.632-2.832-.384-3.207-1.5-5-15.906-25.549-33.795-45.571-49.5-74z"/><path fill="#59030c" d="M512 799c-1.146 6.167 8.085 1.91 13.5 4 7.139 2.756 19.548 19.23 30.5 13 3.02 1.595 11.24 1.737 10 7-2.905-5.107-10.894-2.787-16-2.5 13.27 11.162-7.212 17.969-2 28.5-20.104 16.575-48.698 16.15-71 4 2.555.218 37.813 12.594 28.5 2-1.544-1.756-19.473-.661-16.5-9 12.074 1.519 35.304-1.225 32.5-18-1.72-2.171-17.216-.334-21-1-10.808-1.901-18.286-4.506-31-6-4.394-.516-13.719-7.516-15.5 1-1.24-.798-.797-.944-1.5-2l-1.5 1.5c1.391 1.156 1.533 2.934 2 4.5-11.532-8.015 7.95-9.319 12.5-12 10.198-6.009 17.536-19.279 31-18 7.629.725 5.277 4.941 15.5 3m-8.5 2c-4.013.992-2.857 9.12 2 8 4.691-1.082 2.9-9.211-2-8m-15 3c-1.239.211-5.431 3.22-6.5 4.5 2.583 3.53 11.495-3.349 11-4-1.06-.735-3.287-.707-4.5-.5"/><path fill="#7a0e20" d="M556 816c-10.952 6.23-23.361-10.244-30.5-13-5.415-2.09-14.646 2.167-13.5-4 1.534-.291 5.654-2.863 7.5-3 12.389-.917 24.66 13.749 36.5 20"/><path fill="#fbfbfa" d="M503.5 801c4.9-1.211 6.691 6.918 2 8-4.857 1.12-6.013-7.008-2-8"/><path fill="#f0e7e5" d="M488.5 804c1.213-.207 3.44-.235 4.5.5.495.651-8.417 7.53-11 4 1.069-1.28 5.261-4.289 6.5-4.5"/><path fill="#8e253a" d="M489 846c-21.742-2.735-20.896-14.921-35-24 1.781-8.516 11.106-1.516 15.5-1 12.714 1.494 20.192 4.099 31 6 3.784.666 19.28-1.171 21 1 2.804 16.775-20.426 19.519-32.5 18m-5.5-20c-9.536 2.185-4.626 17.351 6 14 7.153-2.256 4.621-16.433-6-14"/><path fill="#790716" d="M454 822c14.104 9.079 13.258 21.265 35 24-2.973 8.339 14.956 7.244 16.5 9 9.313 10.594-25.945-1.782-28.5-2-11.737-4.234-20.475-15.193-24-27-.467-1.566-.609-3.344-2-4.5l1.5-1.5c.703 1.056.26 1.202 1.5 2m112 1c-1.477 6.265-12.641 21.582-18 26-5.212-10.531 15.27-17.338 2-28.5 5.106-.287 13.095-2.607 16 2.5"/><path fill="#fcfbf9" d="M483.5 826c10.621-2.433 13.153 11.744 6 14-10.626 3.351-15.536-11.815-6-14"/><path fill="#6a8c95" d="M339 839c4.309 2.591 7.241 6.239 11 8.5 2.513 1.512.602 2.045 3-.5 1.755 1.828 2.896 3.394 5 5v4c-8.866-6.071-17.25-11.548-26-19 1.257-1.836 5.789 1.272 7 2"/><path fill="#50777f" d="M413 877c10.658 5.267 22.962 13.955 35.5 20 .94.453 4.241 2.099.5 2-21.937-5.021-36.084-10.756-56-21-13.497-6.942-22.852-13.682-35-22v-4c15.008 11.456 38.614 16.902 55 25"/><path fill="#aad2dc" d="M393 878c19.916 10.244 34.063 15.979 56 21 21.735 4.975 43.539 7.996 66 7 7.647-.339 18.241-1.867 26-3l3 4c-61.141 7.56-112.782-2.756-166-32 4.327-3.257 12.28 7.933 15 3"/><path fill="#8bbcc6" d="M579 899c-10.002 2.712-19.697 5.47-30 7-.666-1.949 3.293-2.731 4.5-3 7.825-1.742 17.555-3.813 25.5-4"/></svg>