<svg xmlns="http://www.w3.org/2000/svg" width="1024" height="1024"><defs><linearGradient id="a" x1="205.607" x2="823.154" y1="382.764" y2="640.053" gradientUnits="userSpaceOnUse"><stop offset="0%" style="stop-color:#c9e5ed"/><stop offset="36.472%" style="stop-color:#a1c9d4"/><stop offset="46.637%" style="stop-color:#a7d5e0"/><stop offset="70.703%" style="stop-color:#719ba7"/><stop offset="86.697%" style="stop-color:#6295a3"/><stop offset="100%" style="stop-color:#376875"/></linearGradient></defs><defs><linearGradient id="b" x1="647.848" x2="386.054" y1="340.212" y2="560.276" gradientUnits="userSpaceOnUse"><stop offset="0%" style="stop-color:#0a77a6"/><stop offset="45.906%" style="stop-color:#44cae4"/><stop offset="100%" style="stop-color:#0b8dbe"/></linearGradient></defs><defs><linearGradient id="c" x1="498.777" x2="553.681" y1="405.784" y2="498.787" gradientUnits="userSpaceOnUse"><stop offset="0%" style="stop-color:#001749"/><stop offset="100%" style="stop-color:#00528c"/></linearGradient></defs><path fill="#022c48" d="M824 126c.243-.752 1.139-14.631 1-15.5-.925-5.794-5.653-10.41-10-13.5-4.497-3.196-9.086-6-15-6-10.789 0-23.39 10.484-25 21-.554 3.621.106 7.481 1 11 6.066 23.871 41.141 24.186 48 3-4.733 12.643-8.876 8.065-6 23-.893-2.879-2.537-6.067-3.5-9-.6-.266-11.666 3.368-12.5 4-.247.188-1.724-.411-2 .5-.45 1.487 2.469 24.791 2 31-1.726 22.847-12.465 42.358-24 61.5.276 2.082 11.161 12.433 13 15 4.095 5.716 7.446 11.512 12 17 .858 1.033 1.762 6.205 4.5 6 15.372-21.52 19.857-51.351 18.5-77.5-.58-11.17-4.736-37.975-8-48.5 7.268 37.74 16.437 63.875 4 103.5-1.532 4.88-13.204 25.516-13 27 .172 1.25 12.263 17.776 14 21 13.361 24.791 25.728 50.595 33 78 11.085 1.159 23.128 2.046 32.5 8.5 4.704 3.239 7.811 9.566 11.5 13-1.889.244-.186.88 0 2 .155.935-.219 2.142 0 3l-1 1c-.7-2.017-.986-4.052-2-6-5.722-10.987-20.925-18.714-33-19-1.762-.042-6.287-.608-7 1.5 9.934 41.369 15.611 83.783 15 126.5-.631 44.12-9.574 88.726-19 131.5.541.928 2.099.391 3 .5 34.912 4.212 42.961-36.504 47-61 4.566-27.692 6.022-54.879 5-83 .124-.175-.151-1.171 1-1h1c.49 38.986-.788 78.233-10.5 116 32.173-27.886 30.76-88.31 28.5-128-.603-10.581-1.314-23.122-3-33.5-1.546-9.513-6.864-20.858-8-29.5-.099-.754.244-1.106 1-1 15.609 36.694 17.322 120.262 6 158.5-5.404 18.25-21.562 36.16-34 50-13.733 15.28-33.838 10.66-39 15-1.792 1.507-12.965 37.349-16 44C789.186 787.91 702.636 869.805 593 894c-59.807 5.456-95.075 12.731-157 1-116.055-21.986-204.131-108.359-251-213.5-2.497-5.601-11.712-35.522-13-37-2.54-2.913-26.453-3.893-36.5-12.5-5.053-4.329-7.479-12.202-10.5-15.5-27.129-29.618-31.37-40.551-34-83-3.052-49.252-1.48-116.964 42.5-146.5 7.991-5.367 31.358-8.232 32.5-9.5 1.79-1.987 15.453-42.386 19-50 7.894-16.944 17.549-33.506 28-49-26.451-41.874-21.409-93.245-7-138.5 1.144 4.661-7.041 31.89-8 39.5-2.641 20.957-2.203 44.957 3 65.5 1.156 4.563 9.56 27.141 13.5 28 1.518.621 2.306-1.874 2.5-2 2.589-1.682 1.812-2.805 2-3 6.509-6.725 11.439-14.553 17-22 .993-1.33 8.962-8.847 9-9.5-20.542-25.637-28.481-58.902-24-91.5-2.683-3.077-10.261-3.577-15-7-17.062-12.322-11.549-44.192 9.5-48 31.94-5.778 45.35 34.058 22 49-7.463 4.776-13.826.847-15.5 10.5-4.686 27.022 6.722 62.877 24.5 83.5 138.054-154.921 391.374-156.246 529 0 18.514-21.243 28.225-53.415 24.5-81.5-1.716-12.938-4.809-6.286-13.5-11.5-11.535-6.92-16.31-22.077-11.5-34.5 10.853-28.027 62.852-16.498 49 20.5M211 95c-4.762 2.602-8.605 6.053-11 11-5.963 12.318-.101 31.041 14 34 23.931 5.022 46.163-26.743 24-43-9.624-7.06-17.007-7.46-27-2m-41 527c37.516 153.037 175.759 280.421 339 274 121.712 9.535 236.225-65.927 298-166.5C935.372 520.503 858.009 200.855 606 134c-33.448-8.873-63.335-12.356-98-12-257.095 2.639-410.66 263.85-338 500m-42-226c-6.957 9.402-8.195 19.645-10 31-3.682 23.164-3.748 46.66-4 70-.301 27.879-.355 55.384 4 83 5.125 32.5 12.379 60.118 51.5 61-6.338-20.76-10.333-41.517-13.5-63-3.392-23.009-5.604-44.672-6-68-.715-42.135 2.214-87.197 14-127.5-.781-2.108-5.203-1.561-7-1.5-10.761.368-22.731 6.527-29 15m-33 74c-2.888 34.156-3.734 104.775 18 132 2.201 2.757 6.103 8.257 10 8.5-10.512-29.077-10.598-61.792-11-92.5-.139-10.6-.305-21.409 0-32 .716-24.905 2.254-50.552 7-75 .241-1.242 3.289-7.857 3-8.5-21.098 7.755-25.3 47.404-27 67.5"/><path fill="#1494c5" d="M238 97c-1.22 5.882 3.125 9.873 2 16.5-1.696 9.99-17.197 17.674-26.5 15.5l-11.5-4c-1.786-5.586-2.342-6.738-2-13 21.663 31.673 51.579-18.532 11-17 9.993-5.46 17.376-5.06 27 2"/><path fill="#1ccff6" d="m800 91-3 3.5c21.404 6.957 8.579 33.635-10.5 27.5-5.791-1.862-5.769-10.023-11.5-10 1.61-10.516 14.211-21 25-21m-10.5 8c-7.92 3.004 3.473 16.309 10 11 2.929-6.234-4.253-13.18-10-11"/><path fill="#1297c8" d="M815 97c-.152 5.846 3.17 9.776 2 16.5-1.807 10.389-15.976 16.611-25.5 15.5-5.108-.596-10.491-6.792-15.5-6-.894-3.519-1.554-7.379-1-11 5.731-.023 5.709 8.138 11.5 10 19.079 6.135 31.904-20.543 10.5-27.5l3-3.5c5.914 0 10.503 2.804 15 6"/><path fill="#1accf5" d="M211 95c40.579-1.532 10.663 48.673-11 17 .113-2.069 1.945-4.984 0-6 2.395-4.947 6.238-8.398 11-11m1.5 4c-.631.217-1.701 1.986-2.5 2.5-3.444 8.683 16.287 14.937 13 3-.666-2.417-7.469-6.543-10.5-5.5"/><path fill="#14749d" d="M214 140c-6.809-7.32-8.676-4.602-12-15l11.5 4c9.303 2.174 24.804-5.51 26.5-15.5 1.125-6.627-3.22-10.618-2-16.5 22.163 16.257-.069 48.022-24 43"/><path fill="#13749f" d="M824 126c-6.859 21.186-41.934 20.871-48-3 5.009-.792 10.392 5.404 15.5 6 9.524 1.111 23.693-5.111 25.5-15.5 1.17-6.724-2.152-10.654-2-16.5 4.347 3.09 9.075 7.706 10 13.5.139.869-.757 14.748-1 15.5"/><path fill="#c6f8fb" d="M212.5 99c3.031-1.043 9.834 3.083 10.5 5.5 3.287 11.937-16.444 5.683-13-3 .799-.514 1.869-2.283 2.5-2.5"/><path fill="#caf6fb" d="M789.5 99c5.747-2.18 12.929 4.766 10 11-6.527 5.309-17.92-7.996-10-11"/><path fill="#aff4f7" d="M200 112c-.342 6.262.214 7.414 2 13 3.324 10.398 5.191 7.68 12 15-14.101-2.959-19.963-21.682-14-34 1.945 1.016.113 3.931 0 6"/><path fill="url(#a)" d="m508 122 7.5 4c12.384-.109 25.725-1.131 38 0 17.573 1.619 34.98 6.506 52.5 8 252.009 66.855 329.372 386.503 201 595.5C745.225 830.073 630.712 905.535 509 896c-53.647-4.203-94.369-14.13-142-38-8.41-10.978-25.125-16.273-38-21-66.885-41.651-117.274-105.525-146-178.5-2.477-12.338-9.834-26.21-13-36.5-72.66-236.15 80.905-497.361 338-500m-14.5 8c-124.429 5.157-245.958 87.761-292.5 203.5-27.819 69.179-35.283 146.761-25.5 220.5-2.603-56.387-.432-110.472 16.5-164.5C231.859 262.317 361.166 150.106 494.5 134c12.131-1.465 24.776-1.466 37-2-10.912-3.133-26.094-2.493-38-2M247 483c31.541 113.558 122.819 194.6 242 204 63.823 5.034 120.533-10.863 173-46 128.499-86.054 166.465-266.902 57-385-17.535-18.918-40.661-39.1-63-52-4.181-1.182-10.279-9.273-11.5-10-4.249-2.531-7.642-.816-8-1-4.009-2.063-10.855-7.003-15.5-9-202.281-86.948-434.909 79.707-374 299m78 248c-.423 16.667-.324 36.264 0 53 .453 23.409 5.002 26.007 28 31-2.317 1.949 2.948 2.903 3.5 3 43.319 7.646 87.329 16.185 131.5 10 37.673.968 173.731-2.936 203.5-17 8.591-4.059 13.049-13.076 7.5-22 1.221-8.793-.089-66.64-2-74.5-8.714-35.837-72.628-13.309-98.5-10.5-88.827 9.643-146.794-1.002-232.5-9-30.429-2.839-40.226 5.527-41 36m53.5 126c-1.445 2.012 5.174 4.642 5.5 4.5 3.231-1.411-4.558-4.436-5.5-4.5" style="fill:url(#a)"/>/&gt;<path fill="#e4f4f7" d="M606 134c-17.52-1.494-34.927-6.381-52.5-8-12.275-1.131-25.616-.109-38 0l-7.5-4c34.665-.356 64.552 3.127 98 12"/><path fill="#fdfefe" d="M493.5 130c11.906-.493 27.088-1.133 38 2-12.224.534-24.869.535-37 2C361.166 150.106 231.859 262.317 192 389.5c-16.932 54.028-19.103 108.113-16.5 164.5-9.783-73.739-2.319-151.321 25.5-220.5C247.542 217.761 369.071 135.157 493.5 130"/><path fill="#bbf0f3" d="M221 145c-2.323.813-4.496-.785-6-1-5.013-.718-8.466 2.961-10 8.5-1.331 4.805-3.742 29.06-4 35-1.164 26.757 1.841 58.369 18 80.5-.188.195.589 1.318-2 3-.653-4.619-8.425-10.653-10-13.5-.748-1.352-.368-12.423-6-12.5-5.203-20.543-5.641-44.543-3-65.5.959-7.61 9.144-34.839 8-39.5-.139-.567.068-1.363 0-2 4.739 3.423 12.317 3.923 15 7"/><path fill="#2a6f87" d="M818 149c3.264 10.525 7.42 37.33 8 48.5 1.357 26.149-3.128 55.98-18.5 77.5-2.738.205-3.642-4.967-4.5-6 10.575-14.343 16.063-39.591 17-57.5.718-13.733 1.179-55.069-15-58.5-.399-3.078-2.892-5.644-3-9 .834-.632 11.9-4.266 12.5-4 .963 2.933 2.607 6.121 3.5 9"/><path fill="#39adc9" d="M215 144c-6.357 35.961 1.312 71.677 21 102-5.561 7.447-10.491 15.275-17 22-16.159-22.131-19.164-53.743-18-80.5.258-5.94 2.669-30.195 4-35 1.534-5.539 4.987-9.218 10-8.5"/><path fill="#317f99" d="M221 145c-4.481 32.598 3.458 65.863 24 91.5-.038.653-8.007 8.17-9 9.5-19.688-30.323-27.357-66.039-21-102 1.504.215 3.677 1.813 6 1"/><path fill="#aaecf3" d="M802 144c.108 3.356 2.601 5.922 3 9 1.014 7.829 2.527 20.87 3 29-5.215 6.174-6.111 28.393-11 33.5-2.294 2.396-3.687-.763-6 1-1.833 1.397-7.87 18.852-13 20.5 11.535-19.142 22.274-38.653 24-61.5.469-6.209-2.45-29.513-2-31 .276-.911 1.753-.312 2-.5"/><path fill="#3995b1" d="M803 269c-4.554-5.488-7.905-11.284-12-17 16.552-19.468 18.432-45.4 17-70-.473-8.13-1.986-21.171-3-29 16.179 3.431 15.718 44.767 15 58.5-.937 17.909-6.425 43.157-17 57.5"/><path fill="#6cb1c9" d="m621 184-44.5-13c-41.681-8.217-85.055-10.803-126.5 0-23.25 4.411-47.029 13.285-67 26-15.366 7.299-28.742 17.611-42 28-81.935 64.204-118.181 151.046-92 255l-2 3C186.091 263.707 418.719 97.052 621 184"/><path fill="#e3f2f5" d="M621 184c4.645 1.997 11.491 6.937 15.5 9 .358.184 3.751-1.531 8 1 1.221.727 7.319 8.818 11.5 10-14.988-8.655-36.492-17.629-53-23-26.744-8.701-54.782-14.078-83-15-22.885-.748-47.536.738-70 5 41.445-10.803 84.819-8.217 126.5 0z"/><path fill="#aad5e2" d="M520 166c.919 16.927 3.185 41.127-9 54-.333.013-.667-.016-1 0-22.174 1.065-93.745 15.327-108.5 31-12.262 13.025 28.051-10.528 27.5-6-16.424 6.427-35.775 17.529-50 28-38.15 28.083-65.931 70.263-78 116-51.793 196.276 172.903 343.766 335.5 227 61.22-43.964 96.935-118.222 89.5-194 .025.1 1.781-.36 2 .5 2.139 8.405 2.392 18.851 9 26.5-1.236 76.446-52.096 157.301-120 192-53.453 27.315-118.617 33.456-176 15-42.303-13.606-84.027-43.864-111-79-22.073-28.753-30.417-70.494-62.5-86-4.386-2.12-11.756-5.198-16.5-4-.678-2.329-1.405-4.636-2-7-26.181-103.954 10.065-190.796 92-255-10.12 22.258 35.328 15.324 46.5 13 17.038-3.544 51.488-21.865 49.5-42.5-2.057-21.353-43.845-3.323-54 1.5 19.971-12.715 43.75-21.589 67-26 22.464-4.262 47.115-5.748 70-5m-194.5 92c-35.205.023-75.143 83.312-16 56 10.094-4.661 29.089-22.445 31.5-33.5 2.551-11.694-2.517-22.508-15.5-22.5"/><path fill="#93c2d0" d="M603 181c-4.416 15.288-10.183 40.605-23 51-23.073-10.644-44.001-12.996-69-12 12.185-12.873 9.919-37.073 9-54 28.218.922 56.256 6.299 83 15"/><path fill="#639aa9" d="M656 204c22.339 12.9 45.465 33.082 63 52l30 41.5c73.977 131.162 3.773 296.281-127 357.5l-5-14c67.904-34.699 118.764-115.554 120-192 .594-36.772-11.931-81.607-30-113.5-3.174-5.602-15.333-29.351-19-16.5-25.745-36.655-73.87-70.145-117-82 3.544-1.758 5.781-2.389 9-5 12.817-10.395 18.584-35.712 23-51 16.508 5.371 38.012 14.345 53 23"/><path fill="#44c0d9" d="M808 182c1.432 24.6-.448 50.532-17 70-1.839-2.567-12.724-12.918-13-15 5.13-1.648 11.167-19.103 13-20.5 2.313-1.763 3.706 1.396 6-1 4.889-5.107 5.785-27.326 11-33.5"/><path fill="#fefeff" d="M341 225c13.258-10.389 26.634-20.701 42-28 10.155-4.823 51.943-22.853 54-1.5 1.988 20.635-32.462 38.956-49.5 42.5-11.172 2.324-56.62 9.258-46.5-13"/><path fill="#75adbd" d="M580 232c-3.219 2.611-5.456 3.242-9 5-20.86-5.734-44.351-8.621-66-8-1.085-4.536 3.085-5.567 5-9 .333-.016.667.013 1 0 24.999-.996 45.927 1.356 69 12"/><path fill="#91c3d1" d="M510 220c-1.915 3.433-6.085 4.464-5 9-24.357.699-53.354 7.138-76 16 .551-4.528-39.762 19.025-27.5 6 14.755-15.673 86.326-29.935 108.5-31"/><path fill="#01486e" d="M505 229c21.649-.621 45.14 2.266 66 8 43.13 11.855 91.255 45.345 117 82 25.726 36.627 27.808 61.967 38 103 7.435 75.778-28.28 150.036-89.5 194C473.903 732.766 249.207 585.276 301 389l4 3.5c2.218-8.685 6.272-16.457 10-24.5-5.124 22.797-10.051 44.377-10 68 .063 29.14 6.357 55.691 18 82 6.584 14.878 14.825 29.692 25 42.5 2.562 3.224 31.813 34.863 34 30-16.942-18.821-31.853-40.274-42-63.5-15.108-34.581-19.589-64.321-15-102 5.218-42.845 24.408-84.094 54-115.5 4.784-5.077 30.083-25.16 31-27 2.108-4.232-.961-10.472-5.5-11.5-6.688-1.514-18.747 5.319-24.5 9l-1-7c14.225-10.471 33.576-21.573 50-28 22.646-8.862 51.643-15.301 76-16M348 381c-4.488 5.3-8.174 15.701-10 22.5-22.294 83.033 16.851 167.948 94 204.5l-3 27.5c35.826 15.22 76.397 19.388 115 13.5 70.419-10.74 132.035-58.958 160-124 12.728-29.603 19.553-61.002 18-93.5-.538-11.254-1.15-40.428-17-38.5-2.694-10.909-7.073-22.901-12-33-2.821-5.783-7.541-15.645-12-20l-27.5-35c-2.344 1.828-.896 1.394-.5 2.5.903 2.524 8.855 10.977 11 15 2.077 3.895 3.04 8.538 5 12.5 9.594 19.387 17.339 35.552 22 57 1.578 7.263 3.288 14.579 4 22-1.516 5.512-2.726 3.928-8 4-4.528-74.016-63.671-141.399-137-153-77.319-12.232-193.2 25.848-202 116"/><path fill="#2696ae" d="M217 271c-.194.126-.982 2.621-2.5 2-3.94-.859-12.344-23.437-13.5-28 5.632.077 5.252 11.148 6 12.5 1.575 2.847 9.347 8.881 10 13.5"/><path fill="#477380" d="M719 256c109.465 118.098 71.499 298.946-57 385-4.088-.231.411-3.168-4.5-2-5.061 1.203-27.062 16.376-35 20-40.765 18.608-86.695 26.85-131.5 24-77.046-4.901-153.157-49.559-198-111.5-.321-.443-3.209-4.255 0-3.5 5.414 7.336 10.858 14.257 17 21 34.391 37.758 80.903 66.7 130 81 63.135 18.389 122.712 12.755 182-15 130.773-61.219 200.977-226.338 127-357.5z"/><path fill="#fefeff" d="M325.5 258c12.983-.008 18.051 10.806 15.5 22.5-2.411 11.055-21.406 28.839-31.5 33.5-59.143 27.312-19.205-55.977 16-56"/><path fill="#eaf9fb" d="M550 265c.511 2.07-2.024 2.679-3.5 3-11.844 2.576-23.613 4.112-35.5 7-9.128 2.218-18.531 3.627-27 8-4.317.25-6.101 2.754-7 3-7.911 2.165-16.672 4.216-23.5 10-3.783.076-2.058-8.522-6-10-4.696-1.761-19.87 5.001-22.5 9.5-6.08 10.398 13.492 17.316 15 23 4.27 16.09-13.365 28.567-28.5 25.5-2.279-.462-6.57-4.998-7-5-2.736-.01-22.998 26.375-25.5 30.5-4.023 6.633-19.465 39.581-18 45.5-14.767 3.125-13.937-24.401-13-34 8.8-90.152 124.681-128.232 202-116"/><path fill="url(#b)" d="M687 418c3.829 62.582-21.611 121.328-72 158.5l13.5-8.5c12.376-12.517 25.83-25.171 35.5-40 2.165.711 2.826 4.254 6 2.5 1.469-.812 12.584-26.754 14-30.5 3.002-7.941 6.324-16.684 8-25 2.67-13.246 4-27.455 4-41 1.351-2.808 9.496-2.667 10-3.5 2.085-3.449-3.739-34.507-5-40.5-2.162-10.274-5.909-19.814-8-30 4.927 10.099 9.306 22.091 12 33 9.103 36.856 9.22 80.51-8 115-31.928 63.948-87.203 110.315-161 117-38.726 3.508-69.07-.45-104-17-77.149-36.552-116.294-121.467-94-204.5 1.826-6.799 5.512-17.2 10-22.5-.937 9.599-1.767 37.125 13 34 .158.637 7.939 9.66 8.5 10 13.141 7.967 37.685-8.43 48.5-16-.666 7.828 1.083 14.789 4 22-14.161 80.497 76.843 135.34 144 89 84.655-58.414 19.001-193.349-77-160-7.408-3.04-15.251-2.772-23-2 10.109-7.124 24.765-28.892 31-40 4.359-7.766 5.992-11.654 9-20 2.511-6.967 7.551-14.626 5-23 11.887-2.888 23.656-4.424 35.5-7 1.476-.321 4.011-.93 3.5-3 73.329 11.601 132.472 78.984 137 153M529.5 290c-6.242 1.254-9.396 9.617-3 13 13.016 6.885 20.422-16.5 3-13m139 179c-2.513 3.757-9.992 26.799-7 29 9.166 6.741 12.353-29.478 7-29m-18 57c-2.13-.949-20.461 19.966-24 23-22.086 18.934-43.968 26.85-68.5 40.5 36.693-.832 76.125-31.878 92.5-63.5" style="fill:url(#b)"/>/&gt;<path fill="#a6d3e3" d="M325 425c-3.321 2.792-15.389-.443-16.5 0-3.679 1.467 1.086 10.242-3.5 11-.051-23.623 4.876-45.203 10-68 .734-1.583.749-2.466 1-3 1.826-3.888 4.03-8.141 6-12 13.211-25.874 33.08-57.055 58-73 5.753-3.681 17.812-10.514 24.5-9 4.539 1.028 7.608 7.268 5.5 11.5-.917 1.84-26.216 21.923-31 27-29.592 31.406-48.782 72.655-54 115.5"/><path fill="#0c769d" d="M380 280c-24.92 15.945-44.789 47.126-58 73-4.58.526-6.563 8.215-6 12-.251.534-.266 1.417-1 3-3.728 8.043-7.782 15.815-10 24.5l-4-3.5c12.069-45.737 39.85-87.917 78-116z"/><path fill="#2989b1" d="M511 275c2.551 8.374-2.489 16.033-5 23-3.463-8.922-12.038-15.576-22-15 8.469-4.373 17.872-5.782 27-8"/><path fill="#46a1c3" d="M484 283c9.962-.576 18.537 6.078 22 15-3.008 8.346-4.641 12.234-9 20-5.101-1.961-2.508-6.387-3-8.5-2.739-11.775-6.322-17.404-17-23.5.899-.246 2.683-2.75 7-3"/><path fill="#53afcc" d="M477 286c10.678 6.096 14.261 11.725 17 23.5.492 2.113-2.101 6.539 3 8.5-6.235 11.108-20.891 32.876-31 40-19.203 13.533-45.388 20.292-48 51-10.815 7.57-35.359 23.967-48.5 16-.561-.34-8.342-9.363-8.5-10-1.465-5.919 13.977-38.867 18-45.5 2.502-4.125 22.764-30.51 25.5-30.5.43.002 4.721 4.538 7 5 15.135 3.067 32.77-9.41 28.5-25.5-1.508-5.684-21.08-12.602-15-23 2.63-4.499 17.804-11.261 22.5-9.5 3.942 1.478 2.217 10.076 6 10 6.828-5.784 15.589-7.835 23.5-10m-11.5 44c-5.032 1.993-2.164 9.296 4 8 6.956-1.462 2.631-10.627-4-8"/><path fill="#e9f7fb" d="M529.5 290c17.422-3.5 10.016 19.885-3 13-6.396-3.383-3.242-11.746 3-13"/><path fill="#269db3" d="M681 340c-.259-.253-2.155.295-2.5 0-3.328-2.846-5.918-9.29-9.5-5-1.96-3.962-2.923-8.605-5-12.5-2.145-4.023-10.097-12.476-11-15-.396-1.106-1.844-.672.5-2.5z"/><path fill="#87bccc" d="M737 449c-6.608-7.649-6.861-18.095-9-26.5-.219-.86-1.975-.4-2-.5-10.192-41.033-12.274-66.373-38-103 3.667-12.851 15.826 10.898 19 16.5 18.069 31.893 30.594 76.728 30 113.5"/><path fill="#f1fcfe" d="M465.5 330c6.631-2.627 10.956 6.538 4 8-6.164 1.296-9.032-6.007-4-8"/><path fill="#108aa9" d="M681 340c4.459 4.355 9.179 14.217 12 20 2.091 10.186 5.838 19.726 8 30l-10 2c-4.661-21.448-12.406-37.613-22-57 3.582-4.29 6.172 2.154 9.5 5 .345.295 2.241-.253 2.5 0"/><path fill="#01486e" d="M322 353c-1.97 3.859-4.174 8.112-6 12-.563-3.785 1.42-11.474 6-12"/><path fill="url(#c)" d="m566 520-1-1c33.057-13.64 1.831-62.702-25-31-1.568 1.852-2.719 1.744-4 5-4.842 2.133-3.315 11.046-4 16-19.329-6.157-37.615-5.811-56-17-14.232-8.662-36.792-42.769-39.5-44-8.402-3.818-5.299 15.696-3.5 19-5.782-7.98-.777-16.553-4-25 38.404 29.574 90.101-14.124 80-57.5-2.172-9.326-10.884-20.759-20-24.5 96.001-33.349 161.655 101.586 77 160" style="fill:url(#c)"/>/&gt;<path fill="#d4fbfe" d="M489 360c9.116 3.741 17.828 15.174 20 24.5 10.101 43.376-41.596 87.074-80 57.5-1.479-3.877-5.13-6.378-7-11-2.917-7.211-4.666-14.172-4-22 2.612-30.708 28.797-37.467 48-51 7.749-.772 15.592-1.04 23 2"/><path fill="#17a6cf" d="m157 381-5 17c-2.086-8.24-18.68-4.898-23 0l-1-2c6.269-8.473 18.239-14.632 29-15"/><path fill="#217790" d="m150 510-7.5-1c-2.965 23.883.441 48.228 3.5 72-11.014 2.728-17.119 1.85-28-1-4.355-27.616-4.301-55.121-4-83 2.717 2.087 26.232 14.906 28 10.5 1.753-22.64-.182-45.963 2-68.5.606-6.254 2.015-12.766 3-19 .998-6.317 6.288-16.911 5-22l5-17c1.797-.061 6.219-.608 7 1.5-11.786 40.303-14.715 85.365-14 127.5"/><path fill="#206f87" d="m864 381 5 17c-1.101 4.393 3.114 13.556 4 19 1.136 6.978 3.246 15.157 4 22 2.201 19.98 3.205 48.769 3 69-2.63.39-5.023 1.614-8 1 .611-42.717-5.066-85.131-15-126.5.713-2.108 5.238-1.542 7-1.5"/><path fill="#1ba3cb" d="M897 400h-3c-2.922-6.425-22.686-11.23-25-2l-5-17c12.075.286 27.278 8.013 33 19"/><path fill="#119ac0" d="M701 390c1.261 5.993 7.085 37.051 5 40.5-.504.833-8.649.692-10 3.5 0-6.654-.366-13.393-1-20-.712-7.421-2.422-14.737-4-22z"/><path fill="#48e4fc" d="M152 398c1.288 5.089-4.002 15.683-5 22-13.717 6.006-27.893-10.786-18-22 4.32-4.898 20.914-8.24 23 0"/><path fill="#0c769e" d="M704 525c-.637-3.629-9.359-3.445-10-6.5-.383-1.827 5.094-7.381 3-10.5 17.22-34.49 17.103-78.144 8-115 15.85-1.928 16.462 27.246 17 38.5 1.553 32.498-5.272 63.897-18 93.5"/><path fill="#52e7fc" d="M894 400c6.123 13.463-8.853 28.195-21 17-.886-5.444-5.101-14.607-4-19 2.314-9.23 22.078-4.425 25 2"/><path fill="#1fcff5" d="M129 398c-9.893 11.214 4.283 28.006 18 22-.985 6.234-2.394 12.746-3 19-5.355.548-9.88-.296-14.5-3-4.163-2.437-6.564-10.899-11.5-9 1.805-11.355 3.043-21.598 10-31z"/><path fill="#20d0f6" d="M897 400c1.014 1.948 1.3 3.983 2 6 2.436 7.017 3.819 14.683 5 22-5.056-4.44-6.541 4.964-11.5 8-4.882 2.989-9.836 3.442-15.5 3-.754-6.843-2.864-15.022-4-22 12.147 11.195 27.123-3.537 21-17z"/><path fill="#30526c" d="M918 420c-.756-.106-1.099.246-1 1h-1c-1.552-7.746-7.567-17.369-16-19-.186-1.12-1.889-1.756 0-2 9.565 8.904 10.717 2.878 18 20"/><path fill="#f2fbfb" d="M119 411c-2.082-1.739-5.006 2.247-6 3.5-7.386 9.303-14.351 43.76-16 56.5l-2-1c1.7-20.096 5.902-59.745 27-67.5.289.643-2.759 7.258-3 8.5"/><path fill="#e7f8fa" d="M916 421c-5.137-2.63-7.731-12.285-14-10-.483-2.044-1.515-4.097-2-6-.219-.858.155-2.065 0-3 8.433 1.631 14.448 11.254 16 19"/><path fill="#104d6c" d="M902 411c5.862 24.817 7.321 50.537 8 76 .08 2.984-.038 6.014 0 9h-1c-1.625-22.623-1.378-45.555-5-68-1.181-7.317-2.564-14.983-5-22l1-1c.485 1.903 1.517 3.956 2 6"/><path fill="#9dd8e3" d="M119 411c-4.746 24.448-6.284 50.095-7 75l-16-3c-.195-4.555.443-7.694 1-12 1.649-12.74 8.614-47.197 16-56.5.994-1.253 3.918-5.239 6-3.5"/><path fill="#9dd8e4" d="M916 421h1c1.136 8.642 6.454 19.987 8 29.5 1.686 10.378 2.397 22.919 3 33.5-6.541.736-13.347-2.294-18 3-.679-25.463-2.138-51.183-8-76 6.269-2.285 8.863 7.37 14 10"/><path fill="#0c769e" d="M696 434c0 13.545-1.33 27.754-4 41-10.526-2.728-9.238 17.27-12 24-2.391 5.827-12.333 23.376-16 29-9.67 14.829-23.124 27.483-35.5 40l-13.5 8.5c50.389-37.172 75.829-95.918 72-158.5 5.274-.072 6.484 1.512 8-4 .634 6.607 1 13.346 1 20"/><path fill="#82d0e5" d="M325 425c-4.589 37.679-.108 67.419 15 102-4.586-.171-5.199-12.538-7.5-13l-9.5 4c-11.643-26.309-17.937-52.86-18-82 4.586-.758-.179-9.533 3.5-11 1.111-.443 13.179 2.792 16.5 0"/><path fill="#25b3d6" d="M144 439c-2.182 22.537-.247 45.86-2 68.5-1.768 4.406-25.283-8.413-28-10.5.252-23.34.318-46.836 4-70 4.936-1.899 7.337 6.563 11.5 9 4.62 2.704 9.145 3.548 14.5 3"/><path fill="#24b2d5" d="M904 428c3.622 22.445 3.375 45.377 5 68-1.151-.171-.876.825-1 1-3.755 5.283-21.536 10.04-28 11 .205-20.231-.799-49.02-3-69 5.664.442 10.618-.011 15.5-3 4.959-3.036 6.444-12.44 11.5-8"/><path fill="#003a70" d="M429 442c3.223 8.447-1.782 17.02 4 25 .078.143.915-.143 1 0 9.858 32.596 49.603 55.128 82.5 52 1.791-.17 14.095-3.189 15-4 3.244-2.908.191-3.764.5-6 .685-4.954-.842-13.867 4-16-4.568 11.608-.898 23.625 12 27 5.613 1.469 11.632 1.215 17-1l1 1c-67.157 46.34-158.161-8.503-144-89 1.87 4.622 5.521 7.123 7 11"/><path fill="#566d80" d="m476 492-3 7.5c-1.53 1.392-18.158-10.441-20.5-12.5-2.789-2.452-17.13-17.685-18.5-20-.085-.143-.922.143-1 0-1.799-3.304-4.902-22.818 3.5-19 2.708 1.231 25.268 35.338 39.5 44"/><path fill="#215b83" d="M476 492c18.385 11.189 36.671 10.843 56 17-.309 2.236 2.744 3.092-.5 6-.905.811-13.209 3.83-15 4-32.897 3.128-72.642-19.404-82.5-52 1.37 2.315 15.711 17.548 18.5 20 2.342 2.059 18.97 13.892 20.5 12.5z"/><path fill="#24c9e9" d="M668.5 469c5.353-.478 2.166 35.741-7 29-2.992-2.201 4.487-25.243 7-29"/><path fill="#b4eced" d="M97 471c-.557 4.306-1.195 7.445-1 12 .455 10.633 2.152 23.729 3 35 .807 10.724.533 21.832 2 32.5 2.357 17.138 9.53 34.365 12 51.5-21.734-27.225-20.888-97.844-18-132Z"/><path fill="#1b97b9" d="M692 475c-1.676 8.316-4.998 17.059-8 25l-4-1c2.762-6.73 1.474-26.728 12-24"/><path fill="#80c4d6" d="M565 519c-5.368 2.215-11.387 2.469-17 1 10.418-6.037 22.479-10.306 16-25-3.667-8.317-17.694-13.141-22-6l-2-1c26.831-31.702 58.057 17.36 25 31"/><path fill="#65919e" d="M251 487c8.609 29.559 23.828 56.378 42 81-3.209-.755-.321 3.057 0 3.5 44.843 61.941 120.954 106.599 198 111.5l-2 4c-119.181-9.4-210.459-90.442-242-204l2-3c.595 2.364 1.322 4.671 2 7"/><path fill="#80c2d0" d="M112 486c-.305 10.591-.139 21.4 0 32H99c-.848-11.271-2.545-24.367-3-35z"/><path fill="#69a8b7" d="M928 484c2.26 39.69 3.673 100.114-28.5 128 9.712-37.767 10.99-77.014 10.5-116-.038-2.986.08-6.016 0-9 4.653-5.294 11.459-2.264 18-3"/><path fill="#87bccc" d="M330 577c-6.774 3.457-16.173 4.752-20 12-6.142-6.743-11.586-13.664-17-21-18.172-24.622-33.391-51.441-42-81 4.744-1.198 12.114 1.88 16.5 4 32.083 15.506 40.427 57.247 62.5 86"/><path fill="#c3f7fd" d="M564 495c1.155 10.239-12.363 16.663-21.5 16-4.035-1.703-2.345-18.94-.5-22 4.306-7.141 18.333-2.317 22 6"/><path fill="#afeaf4" d="M542 489c-1.845 3.06-3.535 20.297.5 22 9.137.663 22.655-5.761 21.5-16 6.479 14.694-5.582 18.963-16 25-12.898-3.375-16.568-15.392-12-27 1.281-3.256 2.432-3.148 4-5z"/><path fill="#20778e" d="M908 497c1.022 28.121-.434 55.308-5 83-9.742 2.669-19.046 4.591-29 1 3.588-21.694 5.777-50.947 6-73 6.464-.96 24.245-5.717 28-11"/><path fill="#35cde6" d="M684 500c-1.416 3.746-12.531 29.688-14 30.5-3.174 1.754-3.835-1.789-6-2.5 3.667-5.624 13.609-23.173 16-29z"/><path fill="#20a2c4" d="M704 525c-27.965 65.042-89.581 113.26-160 124l-8-24c73.797-6.685 129.072-53.052 161-117 2.094 3.119-3.383 8.673-3 10.5.641 3.055 9.363 2.871 10 6.5"/><path fill="#0b4e65" d="M880 508c-.223 22.053-2.412 51.306-6 73-3.404 20.577-9.613 41.046-18 60-.901-.109-2.459.428-3-.5 9.426-42.774 18.369-87.38 19-131.5 2.977.614 5.37-.61 8-1"/><path fill="#155c72" d="M150 510c.396 23.328 2.608 44.991 6 68-3.388 1.645-6.43 2.116-10 3-3.059-23.772-6.465-48.117-3.5-72z"/><path fill="#37bee2" d="M340 527c10.147 23.226 25.058 44.679 42 63.5-2.187 4.863-31.438-26.776-34-30-10.175-12.808-18.416-27.622-25-42.5l9.5-4c2.301.462 2.914 12.829 7.5 13"/><path fill="#67a5b4" d="M112 518c.402 30.708.488 63.423 11 92.5-3.897-.243-7.799-5.743-10-8.5-2.47-17.135-9.643-34.362-12-51.5-1.467-10.668-1.193-21.776-2-32.5z"/><path fill="#4fc8de" d="M650.5 526c-16.375 31.622-55.807 62.668-92.5 63.5 24.532-13.65 46.414-21.566 68.5-40.5 3.539-3.034 21.87-23.949 24-23"/><path fill="#639aa9" d="M330 577c26.973 35.136 68.697 65.394 111 79l-1 14c-49.097-14.3-95.609-43.242-130-81 3.827-7.248 13.226-8.543 20-12"/><path fill="#0a556d" d="M156 578c3.167 21.483 7.162 42.24 13.5 63-39.121-.882-46.375-28.5-51.5-61 10.881 2.85 16.986 3.728 28 1 3.57-.884 6.612-1.355 10-3"/><path fill="#0c586f" d="M903 580c-4.039 24.496-12.088 65.212-47 61 8.387-18.954 14.596-39.423 18-60 9.954 3.591 19.258 1.669 29-1"/><path fill="#0c769e" d="m536 625 8 24c-38.603 5.888-79.174 1.72-115-13.5l3-27.5c34.93 16.55 65.274 20.508 104 17"/><path fill="#a0d6df" d="M329 837c12.275 7.644 25.076 14.523 38 21 47.631 23.87 88.353 33.797 142 38-163.241 6.421-301.484-120.963-339-274 3.166 10.29 10.523 24.162 13 36.5 28.726 72.975 79.115 136.849 146 178.5"/><path fill="#52808c" d="M662 641c-52.467 35.137-109.177 51.034-173 46l2-4c44.805 2.85 90.735-5.392 131.5-24 7.938-3.624 29.939-18.797 35-20 4.911-1.168.412 1.769 4.5 2"/><path fill="#4f818f" d="m617 641 5 14c-59.288 27.755-118.865 33.389-182 15l1-14c57.383 18.456 122.547 12.315 176-15"/><path fill="#208298" d="M366 695c8.386 5.406 23.334 8.35 33.5 10 80.823 13.12 154.296 7.669 234.5-3l2 9c-73.18 9.596-146.89 14.211-220.5 5-12.929-1.618-52.252-11.9-61-11-15.621 1.608-15.276 19.112-14.5 31-.152 1.296.116 2.695 0 4-4.035-.16-.827-5.926-2.5-8-1.39-1.724-10.007-.736-12.5-1 .774-30.473 10.571-38.839 41-36"/><path fill="#052b48" d="M699 789c-1.328 9.56-5.065 14.592-14 18 16.516-11.279 11.551-45.73 11-65-.403-14.102 3.339-33.617-11.5-42-12.919-7.298-36.018.074-50.5 2-80.204 10.669-153.677 16.12-234.5 3-10.166-1.65-25.114-4.594-33.5-10 85.706 7.998 143.673 18.643 232.5 9 25.872-2.809 89.786-25.337 98.5 10.5 1.911 7.86 3.221 65.707 2 74.5"/><path fill="#257182" d="m696 742-12-1c-.37-10.258 2.487-26.625-7.5-33-8.69-5.547-29.47 1.554-40.5 3l-2-9c14.482-1.926 37.581-9.298 50.5-2 14.839 8.383 11.097 27.898 11.5 42"/><path fill="#061d36" d="M636 711c11.03-1.446 31.81-8.547 40.5-3 9.987 6.375 7.13 22.742 7.5 33 .384 10.649 1.493 38.346-2 47-2.313-19.358 3.036-45.936 0-64.5-.132-.809-1.813-.18-2-1-4.563-20.002-13.87-13.611-30.5-10.5l2.5 6c-3.819-3.997-5.054-5.019-10.5-5-19.601.069-53.07 8.28-75.5 10-13.373 1.025-31.633-.787-44 1-2.35.34-4.047-.953-6 1.5-1.436 1.804-.612 4.605-1 6.5-8.717 42.544 31.337 35.205 60 34 9.638-.405 19.419-.973 29-2l.5 4c15.819 2.112 37.225-1.195 50.5 7-10.481-5.457-74.154-7.479-89-7-15.424.498-42.94.036-51 15.5l-6 23.5c-.197-8.528 2.178-14.72-1-23l3.5 3c3.422-10.124 11.253-16.03 21.5-18.5-25.096-7.133-22.154-20.64-19-43-.857-1.142-4.529-.177-6-.5-17.648-3.871-49.272-1.181-69.5-3-17.619-1.584-39.433-8.098-55.5-9-16.15-.907-21.239 25.946-18 39-.804-.584-2.742-1.035-3-1.5-1.711-14.026 1.949-25.316 10.5-38.5-21.458-10.795-30.184 4.206-32.5 24-.776-11.888-1.121-29.392 14.5-31 8.748-.9 48.071 9.382 61 11 73.61 9.211 147.32 4.596 220.5-5"/><path fill="#1d181d" d="M365 752c13.593 9.862 112.19 14.874 130 11 13.804-3.002 14.574-9.257 15-22 .138-4.128-.112-7.98-1-12-.309-1.399-.894-2.582-1-4 1.471.323 5.143-.642 6 .5-3.154 22.36-6.096 35.867 19 43-10.247 2.47-18.078 8.376-21.5 18.5l-3.5-3c-3.101-8.079-5.629-8.087-13-10-1.023-.265-1.386-.722-3-1-20.51-3.535-96.725-4.306-116.5 0-14.052 3.06-18.973 15.076-13.5 28-6.612-1.876-18.104-5.802-21-12.5-2.976-6.884-1.784-39.69-1-48.5.116-1.305-.152-2.704 0-4 2.316-19.794 11.042-34.795 32.5-24-8.551 13.184-12.211 24.474-10.5 38.5.258.465 2.196.916 3 1.5"/><path fill="#131018" d="M682 788c-4.508 11.167-32.37 19.107-44 16 5.803-.82 22.526-1.239 24-6 2.182-7.048.554-19.067-7-23-13.275-8.195-34.681-4.888-50.5-7l-.5-4c11.925-1.278 28.649-3.028 40-6 2.748-.72 10.757-2.596 12.5-4 7.79-6.276 1.809-29.397-4.5-36l-2.5-6c16.63-3.111 25.937-9.502 30.5 10.5.187.82 1.868.191 2 1 3.036 18.564-2.313 45.142 0 64.5"/><path fill="#d0d7d9" d="M383 713c-1.469 1.563-3.445 2.505-5 4-3.315 3.187-4.047 5.115-6 9-5.063 10.076-11.533 28.836 6 27.5-4.525-3.846.88-23.352 4.5-24.5 2.524-.801 44.287 9.059 52 10 19.843 2.421 45.69 4.801 65.5 4 .333-.013.668.019 1 0 1.175 8.514-1.359 13.333-6 20-17.81 3.874-116.407-1.138-130-11-3.239-13.054 1.85-39.907 18-39"/><path fill="#737c80" d="M508 725c.106 1.418.691 2.601 1 4-1.33 2.002-8.176 2.944-11 3-17.614.349-103.507-12.053-109-10-.893-5.294-8.232-.988-11-5 1.555-1.495 3.531-2.437 5-4 16.067.902 37.881 7.416 55.5 9 20.228 1.819 51.852-.871 69.5 3"/><path fill="#606669" d="M652 718c6.309 6.603 12.29 29.724 4.5 36-1.743 1.404-9.752 3.28-12.5 4 6.425-11.708 7.82-23.808-7-29-.335-1.546.474-6.83 0-7.5-1.955-2.762-58.762 9.266-67 8.5-.808-1.531-5.014-3.886-4-7 22.43-1.72 55.899-9.931 75.5-10 5.446-.019 6.681 1.003 10.5 5"/><path fill="#859094" d="M389 722c-5.471 2.044-6.176 8.902-17 4 1.953-3.885 2.685-5.813 6-9 2.768 4.012 10.107-.294 11 5"/><path fill="#97a1a4" d="m498 732 2 11c-19.81.801-45.657-1.579-65.5-4-7.713-.941-49.476-10.801-52-10-3.62 1.148-9.025 20.654-4.5 24.5-17.533 1.336-11.063-17.424-6-27.5 10.824 4.902 11.529-1.956 17-4 5.493-2.053 91.386 10.349 109 10"/><path fill="#727b7f" d="M637 729c-19.856 5.065-40.607 8.865-61 11-4.237-1.461-3.189-3.839-5-7-.664-1.159-.781-2.585-1-3 8.238.766 65.045-11.262 67-8.5.474.67-.335 5.954 0 7.5"/><path fill="#757f82" d="M566 723c-1.014 3.114 3.192 5.469 4 7 .219.415.336 1.841 1 3l-3.5-3h-46l.5-6c12.367-1.787 30.627.025 44-1"/><path fill="#97a0a3" d="m522 724-.5 6h46l3.5 3c1.811 3.161.763 5.539 5 7-.977.102-2.022-.095-3 0-6.315.611-50.355 4.521-52.5 3-.793-.563-1.117-9.121.5-10.5l-6-.5c.388-1.895-.436-4.696 1-6.5 1.953-2.453 3.65-1.16 6-1.5"/><path fill="#7e888c" d="M510 741c-3.491 2.572-5.161 1.781-9 2-.332.019-.667-.013-1 0l-2-11c2.824-.056 9.67-.998 11-3 .888 4.02 1.138 7.872 1 12"/><path fill="#879093" d="M644 758c-11.351 2.972-28.075 4.722-40 6-9.581 1.027-19.362 1.595-29 2-.485-8.705 1.456-17.848-2-26 .978-.095 2.023.102 3 0 20.393-2.135 41.144-5.935 61-11 14.82 5.192 13.425 17.292 7 29"/><path fill="#1e6572" d="M340 740c-.784 8.81-1.976 41.616 1 48.5 2.896 6.698 14.388 10.624 21 12.5 3.685 1.045 7.128 2.33 11 3-8.187 3.698 2.264 6.497-2 9-20.831-3.373-47.631-.801-46-29-.324-16.736-.423-36.333 0-53 2.493.264 11.11-.724 12.5 1 1.673 2.074-1.535 7.84 2.5 8"/><path fill="#cfd7d9" d="M573 740c3.456 8.152 1.515 17.295 2 26-28.663 1.205-68.717 8.544-60-34l6 .5c-1.617 1.379-1.293 9.937-.5 10.5 2.145 1.521 46.185-2.389 52.5-3"/><path fill="#8e9a9f" d="M510 741c-.426 12.743-1.196 18.998-15 22 4.641-6.667 7.175-11.486 6-20 3.839-.219 5.509.572 9-2"/><path fill="#1c616d" d="M696 742c.551 19.27 5.516 53.721-11 65-10.176 3.881-28.565 5.311-40 7-8.252-5.803-13.979 6.469-17-9 3.267-.424 6.778-.545 10-1 11.63 3.107 39.492-4.833 44-16 3.493-8.654 2.384-36.351 2-47z"/><path fill="#e9f7f9" d="M566 768c-2.849 4.973-16.637.124-18 6-6.295.199-9.287-2.011-17.5 1-14.902 5.463-15.938 20.14-16 34l81-4c2.504-.97 4.988-2.099 7.5-3l59-4c-1.474 4.761-18.197 5.18-24 6-3.222.455-6.733.576-10 1-78.149 10.144-177.262 12.449-255-1-3.872-.67-7.315-1.955-11-3-5.473-12.924-.552-24.94 13.5-28 19.775-4.306 95.99-3.535 116.5 0 .502 2.847-2.812 2.137-4.5 2-36.178-2.944-72.84-.271-109 0-1.098 1.553-2.117 2.68-3.5 4 .544-4.052-6.165-.261-6.5 0-5.149 4.003-8.58 18.458-4 21 1.408.782 2.885-1.102 3.5-1 37.194 6.178 87.288 10.056 125 10 5.105-.008 12.982 1.355 16-2l6-23.5c8.06-15.464 35.576-15.002 51-15.5"/><path fill="#798286" d="M655 775c7.554 3.933 9.182 15.952 7 23l-59 4c2.036-.73 7.052 1.323 7-3.5-.008-.763-6.937-11.909-8-13-12.974-13.313-36.917-12.041-54-11.5 1.363-5.876 15.151-1.027 18-6 14.846-.479 78.519 1.543 89 7"/><path fill="#d0d7d9" d="M548 774c17.083-.541 41.026-1.813 54 11.5 1.063 1.091 7.992 12.237 8 13 .052 4.823-4.964 2.77-7 3.5-2.512.901-4.996 2.03-7.5 3l-81 4c.062-13.86 1.098-28.537 16-34 8.213-3.011 11.205-.801 17.5-1m-53 0c2.381 12.51 3.08 22.945-2 35-37.712.056-87.806-3.822-125-10-.634-7.572 1.486-14.738 7-20 1.383-1.32 2.402-2.447 3.5-4 36.16-.271 72.822-2.944 109 0 1.688.137 5.002.847 4.5-2 1.614.278 1.977.735 3 1"/><path fill="#8b989d" d="M508 784c3.178 8.28.803 14.472 1 23-3.018 3.355-10.895 1.992-16 2 5.08-12.055 4.381-22.49 2-35 7.371 1.913 9.899 1.921 13 10"/><path fill="#9faeb5" d="M375 779c-5.514 5.262-7.634 12.428-7 20-.615-.102-2.092 1.782-3.5 1-4.58-2.542-1.149-16.997 4-21 .335-.261 7.044-4.052 6.5 0"/><path fill="#bdf2f7" d="M371 813c90.639 14.677 183.189 14.413 274 1 11.435-1.689 29.824-3.119 40-7 8.935-3.408 12.672-8.44 14-18 5.549 8.924 1.091 17.941-7.5 22-29.769 14.064-165.827 17.968-203.5 17-40.208-1.033-96.084-4.551-135-13-22.998-4.993-27.547-7.591-28-31-1.631 28.199 25.169 25.627 46 29"/><path fill="#257182" d="M628 805c3.021 15.469 8.748 3.197 17 9-90.811 13.413-183.361 13.677-274-1 4.264-2.503-6.187-5.302 2-9 77.738 13.449 176.851 11.144 255 1"/><path fill="#658a96" d="M488 828c-44.171 6.185-88.181-2.354-131.5-10-.552-.097-5.817-1.051-3.5-3 38.916 8.449 94.792 11.967 135 13"/><path fill="#678b97" d="M367 858c-12.924-6.477-25.725-13.356-38-21 12.875 4.727 29.59 10.022 38 21"/><path fill="#6a8e9a" d="M378.5 857c.942.064 8.731 3.089 5.5 4.5-.326.142-6.945-2.488-5.5-4.5"/></svg>