<svg xmlns="http://www.w3.org/2000/svg" width="1024" height="1024"><defs><linearGradient id="a" x1="386.773" x2="627.526" y1="127.427" y2="292.66" gradientUnits="userSpaceOnUse"><stop offset="0%" style="stop-color:#619db1"/><stop offset="100%" style="stop-color:#a9d7e4"/></linearGradient></defs><defs><linearGradient id="b" x1="267.446" x2="366.543" y1="229.86" y2="284.162" gradientUnits="userSpaceOnUse"><stop offset="0%" style="stop-color:#568fa3"/><stop offset="100%" style="stop-color:#7ab2c3"/></linearGradient></defs><defs><linearGradient id="c" x1="250.843" x2="725.02" y1="424.356" y2="516.253" gradientUnits="userSpaceOnUse"><stop offset="0%" style="stop-color:#4b8396"/><stop offset="100%" style="stop-color:#9cd0de"/></linearGradient></defs><defs><linearGradient id="d" x1="391.788" x2="676.901" y1="286.425" y2="422.684" gradientUnits="userSpaceOnUse"><stop offset="0%" style="stop-color:#4b6877"/><stop offset="89.24%" style="stop-color:#759aab"/></linearGradient></defs><defs><linearGradient id="e" x1="206.761" x2="202.187" y1="353.629" y2="455.526" gradientUnits="userSpaceOnUse"><stop offset="0%" style="stop-color:#83aabc"/><stop offset="100%" style="stop-color:#d2ebf4"/></linearGradient></defs><defs><linearGradient id="f" x1="272.614" x2="410.727" y1="652.218" y2="713.258" gradientUnits="userSpaceOnUse"><stop offset="0%" style="stop-color:#3f768a"/><stop offset="100%" style="stop-color:#4f8ca1"/></linearGradient></defs><path fill="#023247" d="M891 407c-.496-.672-2.792-3.861-3-4 .516-7.131-1.278-14.156-3-21-3.277-13.021-2.896-16.893-14-25-7.449-5.439-31.468-18.566-40-20 2.525-2.923-.953-4.142-4-4l8 .5c-1.809-4.744-2.538-10.95-4-15.5-2.377-7.398-6.619-14.092-10-21-9.116-18.625-20.352-35.949-33.5-52-1.505.141-12.604 21.874-14.5 25-14.511 23.924-29.345 44.66-46 67-1.61 2.159-9.775 9.727-10 10.5-1.442 4.95 1.457 16.545 1 23-7.05 99.537-79.214 206.231-185.5 214.5-136.365 10.609-208.093-85.655-227.5-209-1.568-6.275 2.518-17.07 1-22.5-.423-1.512-16.337-20.907-19-25a5015 5015 0 0 1-51-80c-2.227-1.02-7.832 8.897-9 10.5-10.508 14.43-20.971 33.008-29 49-2.355 4.691-3.97 9.226-6 14-1.418 3.335-6.068 7.128-6 12.5 1.856 1.598 3.186-.781 5-.5l1 3c-3.31-.101-27.342 11.541-31.5 14-1.675.991-9.083 4.753-8.5 6.5 25.997 30.049 39.081 74.132 48 112.5 6.885 29.616 12.522 63.704 15 94 1.377 16.832 4.515 34.091-1 50.5 1.6 1.982 37.521-2.423 42-4.5.745 1.77-1.059 3.278-1 4-34.646-.719-53.676 16.557-78-15.5-31.519-41.539-48.596-115.177-52-166.5.387 36.273 15.117 85.534 36 118 18.572 28.873 25.892 15.019 28-12 3.242-41.546-8.012-104.966-43-131-1.823-1.357-3.924-2.899-5-5 1.917-.124 4.253.301 6 0 1.522-.262 3.61.332 5 0 14.029 9.341 17.078 25.881 26 39 8.162 32.569 19.449 76.815 19 110-.119 8.801-2.02 45.539-17.5 39L167 578.5c5.819 10.542 28.397 46.616 43.5 36.5 8.499-5.692 2.686-53.245 1.5-64-4.549-41.252-27.535-162.495-58-189-1.991-1.733-2.693-4.497-5.5-4-6.537 1.158-12.592 25.079-13.5 31-.478 3.119-.882 6.838-1 10l-2-1c3.699-16.74 2.5-31.598 17.5-43 5.585-4.245 30.484-14.427 32.5-17.5 5.179-7.894 12.843-31.891 19-43 137.9-248.812 538.399-235.422 638 35 .622 1.688.772 8.602 1 9 1.216 2.127 32.837 14.575 39 22 8.984 10.823 9.749 33.106 12 46.5M474 123c-34.024 3.427-67.106 12.073-99 24-4.288 1.603-29.469 9.381-30 13l34.5 140c82.999-41.55 180.412-39.781 264-1 7.705-21.541 10.708-44.482 16.5-66.5.879-3.34 2.942-3.277 3-3.5l-15 73 66.5 43c22.023-21.796 38.173-48.384 53.5-75 .959-1.665 2.001-3.209 3-5 4.2-7.532 9.17-15.316 14-22.5-28.624-35.05-64.68-63.226-104.5-84.5-1.408.395-4.002 11.062-4.5 13-.356 1.387-.983.931-1 1h-1c.143-.57-.126-1.406 0-2 .368-1.732 2.154-11.886 2-12.5-.647-2.575-30.869-14.844-35.5-16.5-51.704-18.486-111.897-23.5-166.5-18m-137 40c-7.634 2.734-20.321 10.502-27.5 15-27.117 16.992-53.743 40.39-71.5 67l66 101.5c5.973 5.881 9.922-2.544 15-6.5 14.329-11.161 42.89-26.645 53-36 .123-.114 2.434.053 3-1.5-9.516-47.408-21.043-95.071-34.5-141.5-1.148-.483-3.31 1.932-3.5 2m108 118c-38.113 8.812-86.557 31.636-116.5 57-5.513 4.67-14.647 11.547-15.5 18-.556 4.205-.565 9.3 2 13-1.035 2.022-2.324 10.9 1 10 .263 8.531 4.522 22.5 7 31 21.793 74.741 75.072 149.38 157.5 160 63.842 8.226 121.266-8.099 163.5-57 25.927-30.02 43.847-65.949 55-104 3.778-12.888 5.959-24.773 8-38 .253-1.642.781-3.202 1-5 .343-2.819 3.262-10.389 3-13-.166-1.651-.763-2.091-1-3.5-70.016-65.785-171.462-90.128-265-68.5"/><path fill="#bddde8" d="M674 170c-14.864-5.182-28.723-13.611-43.5-19-42.093-15.35-86.689-21.07-131.5-19l-25-9c54.603-5.5 114.796-.486 166.5 18 4.631 1.656 34.853 13.925 35.5 16.5.154.614-1.632 10.768-2 12.5"/><path fill="url(#a)" d="m474 123 25 9c-28.567 1.32-57.419 7.059-84.5 16 29.871-4.812 71.613-15.773 101.5-10 8.232 1.59 28.063 10.212 36.5 14 39.137 17.573 75.454 45.322 107 74l14.5-44c-3.557 15.846-6.91 31.27-11 47-.058.223-2.121.16-3 3.5-5.792 22.018-8.795 44.959-16.5 66.5-83.588-38.781-181.001-40.55-264 1L345 160c10.077-.013 19.925-7.184 29.5-11 .849-.338 4.268-2.159.5-2 31.894-11.927 64.976-20.573 99-24" style="fill:url(#a)"/>/&gt;<path fill="#fbfdfe" d="M499 132c44.811-2.07 89.407 3.65 131.5 19 14.777 5.389 28.636 13.818 43.5 19-.126.594.143 1.43 0 2-.413 1.645-1.674 7.703-3.5 8-46.343-26.982-100.367-43.757-154.5-42-29.887-5.773-71.629 5.188-101.5 10 27.081-8.941 55.933-14.68 84.5-16"/><path fill="#d7ebf3" d="M674 172h1c-.606 2.426-.181 6.351-1 10l-14.5 44c-31.546-28.678-67.863-56.427-107-74-8.437-3.788-28.268-12.41-36.5-14 54.133-1.757 108.157 15.018 154.5 42 1.826-.297 3.087-6.355 3.5-8"/><path fill="#7fb9cc" d="M375 147c3.768-.159.349 1.662-.5 2-9.575 3.816-19.423 10.987-29.5 11 .531-3.619 25.712-11.397 30-13"/><path fill="#d9edf4" d="M771 265c-11.183-19.893-23.784-38.3-40.5-54-16.51-15.507-36.316-26.717-54.5-40 .498-1.938 3.092-12.605 4.5-13 39.82 21.274 75.876 49.45 104.5 84.5-4.83 7.184-9.8 14.968-14 22.5"/><path fill="#daeef4" d="m372 304-34-137c3.11-2.663 2.537-3.47-1-4 .19-.068 2.352-2.483 3.5-2 13.457 46.429 24.984 94.092 34.5 141.5-.566 1.553-2.877 1.386-3 1.5"/><path fill="#93c6d6" d="M337 163c3.537.53 4.11 1.337 1 4-9.428 8.073-33.203 18.911-45.5 28-15.198 11.233-29.451 24.429-42.5 38-3.873 4.028-8.019 8.061-12 12 17.757-26.61 44.383-50.008 71.5-67 7.179-4.498 19.866-12.266 27.5-15"/><path fill="url(#b)" d="m338 167 34 137c-10.11 9.355-38.671 24.839-53 36l-69-107c13.049-13.571 27.302-26.767 42.5-38 12.297-9.089 36.072-19.927 45.5-28" style="fill:url(#b)"/>/&gt;<path fill="#f1f9fc" d="M771 265c-.999 1.791-2.041 3.335-3 5l-28.5 40-74-78-17.5 70 15-73c4.09-15.73 7.443-31.154 11-47 .819-3.649.394-7.574 1-10 .017-.069.644.387 1-1 18.184 13.283 37.99 24.493 54.5 40 16.716 15.7 29.317 34.107 40.5 54"/><path fill="#d5ebf3" d="M768 270c-15.327 26.616-31.477 53.204-53.5 75L648 302l17.5-70 74 78z"/><path fill="#4e8699" d="M319 340c-5.078 3.956-9.027 12.381-15 6.5L238 245c3.981-3.939 8.127-7.972 12-12z"/><path fill="#a8d5e2" d="M821 297c-7.133 10.026-19.557 18.91-27 28l-21-55c1.896-3.126 12.995-24.859 14.5-25 13.148 16.051 24.384 33.375 33.5 52"/><path fill="url(#c)" d="M305 376c-.27-1.715-.989-4.941-2-6.5.008 22.924 4.845 45.616 11 67.5 14.407 51.221 38.514 95.559 83 126 48.232 33.004 113.559 40.911 170 27 .877-.216 2.14.227 3 0 8.548 3.186 17.583 6.431 25.5 11 9.994 5.768 47.457 39.223 52 40 6.594 1.128 9.366-2.921 13.5-7.5 51.808-57.39 53.967-156.087 78-223 4.641-12.921 26.575-46.887 35-60 2.999-4.668 7.248-11.537 12-14.5-42.801 61.039-57.569 153.769-59 227-10.883 19.483-21.637 39.065-35 57-7.241 9.718-60.644 72.457-67.5 74-8.173 1.317-15.462-4.239-23-6-28.228-6.595-57.228-12.908-86.5-9-14.42-.235-37.003 1.708-51 5-19.352-1.922-37.06 10.295-55.5 15-37.864-35.67-65.033-80.944-87.5-127.5-5.933-12.295-19.358-52.592-25-60-2.828-3.714-6.151-3.586-10-2.5-.515.145-1.358-.073-2 0-1.462-11.668-2.873-23.438-5-35l-3-112.5c-1.1-5.883-43.971-97.59-48-101.5-.051-.049.131-1.185-1-1 1.168-1.603 6.773-11.52 9-10.5a5015 5015 0 0 0 51 80c2.663 4.093 18.577 23.488 19 25 1.518 5.43-2.568 16.225-1 22.5" style="fill:url(#c)"/>/&gt;<path fill="#95cfda" d="m228 260-30 48c8.029-15.992 18.492-34.57 29-49 1.131-.185.949.951 1 1"/><path fill="#5e9bae" d="M279 474c-6.756-36.73-29.13-114.341-58.5-138-8.25-6.646-18.666-10.467-28.5-14 2.03-4.774 3.645-9.309 6-14l30-48c4.029 3.91 46.9 95.617 48 101.5z"/><path fill="#c2e2ec" d="M794 325c-2.94 3.59-5.35 7.22-8 11-4.752 2.963-9.001 9.832-12 14.5-8.425 13.113-30.359 47.079-35 60-24.033 66.913-26.192 165.61-78 223-4.134 4.579-6.906 8.628-13.5 7.5-4.543-.777-42.006-34.232-52-40-7.917-4.569-16.952-7.814-25.5-11 74.453-19.625 128.098-92.276 143-165 2.573-12.556 4.774-25.742 6-38.5.742-7.719-1.053-34.293 0-38 .555-1.954 9.461-7.963 8-11.5 16.655-22.34 31.489-43.076 46-67z"/><path fill="#5898ab" d="M711 353c-66.632-54.519-144.185-82.144-231-73-12 1.264-24.289 3.167-36 6l1-5c93.538-21.628 194.984 2.715 265 68.5.237 1.409.834 1.849 1 3.5"/><path fill="#3b7082" d="M711 353c.262 2.611-2.657 10.181-3 13-62.087-55.37-142.367-82.969-226-75l-2-11c86.815-9.144 164.368 18.481 231 73"/><path fill="#2a5667" d="m480 280 2 11c-41.553 3.959-83.377 19.656-118.5 41-7.605 4.621-45.597 31.332-48.5 37-2.565-3.7-2.556-8.795-2-13 37.613-31.132 83.02-58.392 131-70 11.711-2.833 24-4.736 36-6"/><path fill="#407b8f" d="m445 281-1 5c-47.98 11.608-93.387 38.868-131 70 .853-6.453 9.987-13.33 15.5-18 29.943-25.364 78.387-48.188 116.5-57"/><path fill="#0d1d28" d="M708 366c-.219 1.798-.747 3.358-1 5-101.255-92.045-245.234-103.698-358-24-12.137 8.578-23.985 17.45-34 28.5-.533 1.968.972 2.596 1 3.5-3.324.9-2.035-7.978-1-10 2.903-5.668 40.895-32.379 48.5-37 35.123-21.344 76.947-37.041 118.5-41 83.633-7.969 163.913 19.63 226 75"/><path fill="url(#d)" d="M707 371c-2.041 13.227-4.222 25.112-8 38-48.592-43.293-107.051-71.87-173-75-62.082-2.946-118.748 10.06-169 47-3.724-11.335-7.201-21.801-8-34 112.766-79.698 256.745-68.045 358 24" style="fill:url(#d)"/>/&gt;<path fill="#73adc0" d="M831 318c-31.742 3.594-50.869 41.075-62 67.5-20.184 47.914-31.169 109.592-33 161.5-2.087 5.815-6.068 10.751-9 16 1.431-73.231 16.199-165.961 59-227 2.65-3.78 5.06-7.41 8-11 7.443-9.09 19.867-17.974 27-28 3.381 6.908 7.623 13.602 10 21"/><path fill="#2d5262" d="M827 333c-11.885.556-33.836 35.384-39 45.5-25.027 49.024-52.953 180.137-30 230 2.175 4.724 7.326 2.688 6 10.5-10.87-1-16.699-5.961-25-12-1.027-4.83-1.53-10.094-2-15-1.084-11.328-.318-22.769-2-34 .348-.729 2.925-4.066 3-4.5.707-4.062-2.012-6.16-2-6.5 1.831-51.908 12.816-113.586 33-161.5 11.131-26.425 30.258-63.906 62-67.5 1.462 4.55 2.191 10.756 4 15.5z"/><path fill="#2b5262" d="M279 474c2.127 11.562 3.538 23.332 5 35 .495 3.949.57 8.068 1 12-1.839 8.254-.984 17.095-1 25.5-.001.375-2.005 1.632-2 2 .069 4.713 2.899 5.399 3 10.5.123 6.219.027 12.729 0 19-.106 25.014 2.486 52.797-8 76-5.074-12.024-11.525-24.209-15-36.5 7.787-3.417 9.365-18.089 10-26 .127-1.581 1.07-6.943-2-6.5 8.977-60.057-12.081-175.601-48-225.5-6.785-9.426-18.917-23.627-31-25.5-1.814-.281-3.144 2.098-5 .5-.068-5.372 4.582-9.165 6-12.5 9.834 3.533 20.25 7.354 28.5 14 29.37 23.659 51.744 101.27 58.5 138"/><path fill="#020a0f" d="M827 333c3.047-.142 6.525 1.077 4 4-12.911-2.169-31.385 27.322-37 37.5-12.123 21.976-22.309 53.026-28 77.5-6.35 27.308-11.179 59.99-12 88-.395 13.473-.714 62.131 10.5 70 .502.352 4.582 1.77 5.5 2-.819 1.172-.75 1.797-1 3-1.375 6.613-6.283 17.349-9 24h-4c.295-.76.711-1.238 1-2 1.765-4.66 6.285-13.79 7-18 1.326-7.812-3.825-5.776-6-10.5-22.953-49.863 4.973-180.976 30-230 5.164-10.116 27.115-44.944 39-45.5"/><path fill="#030a0f" d="M270 585c-1.75 11.71-3.536 24.021-13 32-.066-.168-1.757-.046-2-3-.059-.722 1.745-2.23 1-4 6.575-3.049 8.68-13.618 10-20.5 2.751-14.341 2.361-32.815 2-47.5-.716-29.159-5.349-60.668-12-89-7.155-30.478-21.796-74.462-42-98.5-3.668-4.364-16.554-17.334-22-17.5l-1-3c12.083 1.873 24.215 16.074 31 25.5 35.919 49.899 56.977 165.443 48 225.5"/><path fill="#b6d6e3" d="m526 334-3 2c-23.732-1.736-49.088 4.958-69 18-38.318 25.098-56.424 72.621-45 117-19.413-30.547-39.699-52.85-52-89-.102-.299.099-.7 0-1 50.252-36.94 106.918-49.946 169-47"/><path fill="#ddeef5" d="M699 409c-11.153 38.051-29.073 73.98-55 104-25.967 16.713-56.144 31.204-88 27 14.649-5.845 29.754-17.012 40-29 33.52-39.222 33.701-93.312 2.5-134 1.553 5.484 1.256 10.431 1.5 16-6.024 30.454-49.427 20.998-62-.5-6.929-11.848-9.443-33.209 4-41.5 4.881-3.01 10.88-3.741 16.5-4-8.494-6.117-24.304-10.181-35.5-11l3-2c65.949 3.13 124.408 31.707 173 75"/><path fill="#027fc3" d="M523 336c11.196.819 27.006 4.883 35.5 11-5.62.259-11.619.99-16.5 4-.831-2.012-5.865.459-7 1-24.028-7.852-56.09-1.148-77 13l-4-11c19.912-13.042 45.268-19.736 69-18"/><path fill="#c9e7f0" d="M831 337c8.532 1.434 32.551 14.561 40 20-5.003 3.889-9.911 9.865-12 16-8.151 10.454-13.122 23.659-18 36-7.826 19.799-13.209 39.267-18 60l-57-17c5.691-24.474 15.877-55.524 28-77.5 5.615-10.178 24.089-39.669 37-37.5"/><path fill="url(#e)" d="M192 337c5.446.166 18.332 13.136 22 17.5 20.204 24.038 34.845 68.022 42 98.5l-56 17c-8.919-38.368-22.003-82.451-48-112.5-.583-1.747 6.825-5.509 8.5-6.5 4.158-2.459 28.19-14.101 31.5-14" style="fill:url(#e)"/>/&gt;<path fill="#fafdfd" d="m713 425-27 59.5c-27.619 47.615-64.544 84.403-119 98.5-53.885 13.949-120.08 7.417-167-24-32.999-22.096-61.981-65.208-77-101.5-2.567-6.202-3.516-16.811-9-20.5-6.155-21.884-10.992-44.576-11-67.5 1.011 1.559 1.73 4.785 2 6.5 19.407 123.345 91.135 219.609 227.5 209 106.286-8.269 178.45-114.963 185.5-214.5.457-6.455-2.442-18.05-1-23 .225-.773 8.39-8.341 10-10.5 1.461 3.537-7.445 9.546-8 11.5-1.053 3.707.742 30.281 0 38-1.226 12.758-3.427 25.944-6 38.5"/><path fill="#3a5967" d="M357 381c.099.3-.102.701 0 1l-34 28c-2.478-8.5-6.737-22.469-7-31-.028-.904-1.533-1.532-1-3.5 10.015-11.05 21.863-19.922 34-28.5.799 12.199 4.276 22.665 8 34"/><path fill="#02b3ee" d="M535 352c-5.184 2.471-9.639 6.694-12 12-26.588-6.288-60.37 10.087-76 32l-9-11c5.84-7.55 12.051-14.622 20-20 20.91-14.148 52.972-20.852 77-13"/><path fill="#a1aaac" d="M542 351c-13.443 8.291-10.929 29.652-4 41.5 12.573 21.498 55.976 30.954 62 .5.237 5.417 1.34 8.318 0 14-1.134 4.809-5.849 13.399-10 16-1.775 1.112-7.69 2.592-10 3-24.045 4.248-54.468-18.372-59-42-1.514-7.893-1.283-12.62 2-20 2.361-5.306 6.816-9.529 12-12 1.135-.541 6.169-3.012 7-1"/><path fill="#0064a7" d="M458 365c-7.949 5.378-14.16 12.45-20 20-47.848 61.851-2.285 148.879 74 150l37 7c-49.383 15.598-102.132-1.537-129-46.5-4.316-7.222-6.862-17.989-11-24.5-11.424-44.379 6.682-91.902 45-117z"/><path fill="#3e6878" d="M885 382c1.919 12.782-6.642 10.209-10 20-1.795-.282-4.498.422-6 0-2.799-.787-8.016-6.494-11-8 2.715-9.535 4.696-19.483 9-28.5-3.063-.352-6.279 5.293-8 7.5 2.089-6.135 6.997-12.111 12-16 11.104 8.107 10.723 11.979 14 25"/><path fill="#3c7080" d="M154 362c4.453 10.65 7.626 21.98 11 33-4.711.699-8.59 5.947-13 7-1.39.332-3.478-.262-5 0-1.229-6.17-7.601-9.285-12-13 .908-5.921 6.963-29.842 13.5-31 2.807-.497 3.509 2.267 5.5 4"/><path fill="#86c0d0" d="M212 551c-4.071.04-.285-5.398-3.5-7-2.206-1.099-7.431 1.228-10 1v16l-1.5-10c.449-33.185-10.838-77.431-19-110-3.876-15.467-8.337-30.767-13-46-3.374-11.02-6.547-22.35-11-33 30.465 26.505 53.451 147.748 58 189"/><path fill="#0c1d29" d="M523 364c-3.283 7.38-3.514 12.107-2 20 .482 28.557 31.282 50.43 59 47.5l-.5 22.5 2.5-8.5-2-19.5c2.31-.408 8.225-1.888 10-3 10.009 20.656.744 50.757-13 68-11.738 14.727-33.446 25.921-52 28-67.715 7.587-119.765-64.447-78-123 15.63-21.913 49.412-38.288 76-32m-25.5 111c-19.944 1.479-18.191 35.46 5 32 18.315-2.733 14.937-33.479-5-32"/><path fill="#5b7b86" d="M858 394c-3.949 13.873-9.262 27.536-11 42-8.349 21.629-17.904 66.805-20 90l-13-2.5L841 409c4.878-12.341 9.849-25.546 18-36 1.721-2.207 4.937-7.852 8-7.5-4.304 9.017-6.285 18.965-9 28.5"/><path fill="#42a2d3" d="m596 511-10-8c.697-.797 1.332-2.161 2-3 21.042-26.408 29.383-62.254 12-93 1.34-5.682.237-8.583 0-14-.244-5.569.053-10.516-1.5-16 31.201 40.688 31.02 94.778-2.5 134"/><path fill="#7fa9c0" d="M409 471c4.138 6.511 6.684 17.278 11 24.5 26.868 44.963 79.617 62.098 129 46.5 2.202-.695 4.768-1.109 7-2 31.856 4.204 62.033-10.287 88-27-42.234 48.901-99.658 65.226-163.5 57-82.428-10.62-135.707-85.259-157.5-160l34-28c12.301 36.15 32.587 58.453 52 89"/><path fill="#7baab9" d="M888 403c-3.474-2.313-6.062-.786-8-1-1.603-.177-3.445.244-5 0 3.358-9.791 11.919-7.218 10-20 1.722 6.844 3.516 13.869 3 21"/><path fill="#050a13" d="m580 426 2 19.5-2.5 8.5.5-22.5c-27.718 2.93-58.518-18.943-59-47.5 4.532 23.628 34.955 46.248 59 42"/><path fill="#0098d9" d="M447 396c-41.765 58.553 10.285 130.587 78 123l4 15c-5.962.829-10.959 1.089-17 1-76.285-1.121-121.848-88.149-74-150z"/><path fill="#76b0c0" d="M147 402c-1.747.301-4.083-.124-6 0-3.273.211-4.522 1.779-7.5 2-.742-.398.458-3.869.5-5 .118-3.162.522-6.881 1-10 4.399 3.715 10.771 6.83 12 13"/><path fill="#2f5766" d="M869 402c-9.093 9.251-17.308 21.846-22 34 1.738-14.464 7.051-28.127 11-42 2.984 1.506 8.201 7.213 11 8"/><path fill="#2f6270" d="M165 395c4.663 15.233 9.124 30.533 13 46-8.922-13.119-11.971-29.659-26-39 4.41-1.053 8.289-6.301 13-7"/><path fill="#1c7a95" d="M134 399c-.042 1.131-1.242 4.602-.5 5 2.978-.221 4.227-1.789 7.5-2 1.076 2.101 3.177 3.643 5 5l-1 2-5 3c-.748-.223-2.038.104-3 0-14.276-1.549-5.386 11.111-12 19 .081-10.678 4.631-22.28 7-33z"/><path fill="#2f859c" d="M888 403c.208.139 2.504 3.328 3 4 13.634 18.482 2.023 65.891-3 87l-1-1c7.154-25.118 11.308-56.117 5-81.5-2.411-1.718-5.182.235-7 .5.48-2.68-5.722-3.393-8-3l-1-2c1.606-1.219 4.089-2.494 4-5 1.938.214 4.526-1.313 8 1"/><path fill="#002d3f" d="M875 402c1.555.244 3.397-.177 5 0 .089 2.506-2.394 3.781-4 5-33.117 25.136-43.48 79.499-43 119.5.098 8.13.973 35.032 9 38.5 10.67 4.61 18.953-14.919 23-22 8.521-14.91 17.299-33.496 22-50l1 1c-6.393 26.866-35.2 118.158-65.5 124l-53.5-3c.25-1.203.181-1.828 1-3 7.935 1.993 28.938 2.694 38 3 4.682.158 9.868 1.949 14.5 1 12.009-2.46 27.885-28.019 33.5-38.5-4.71.944-10.221 11.725-14.5 12.5-19.608 3.553-15.51-52.826-14.5-64 2.096-23.195 11.651-68.371 20-90 4.692-12.154 12.907-24.749 22-34 1.502.422 4.205-.282 6 0"/><path fill="#02c7e6" d="M189 538h-4c4.42-35.401-8.493-106.905-40-129l1-2c34.988 26.034 46.242 89.454 43 131"/><path fill="#46d7f8" d="m588 500-11-9c13.744-17.243 23.009-47.344 13-68 4.151-2.601 8.866-11.191 10-16 17.383 30.746 9.042 66.592-12 93"/><path fill="#0095c1" d="M877 409c-22.361 3.858-38.63 81.358-40 100.5-1.057 14.766-1.926 36.579 7 48.5-.247.267-.692 5.867-2 7-8.027-3.468-8.902-30.37-9-38.5-.48-40.001 9.883-94.364 43-119.5z"/><path fill="#003e4c" d="M145 409c31.507 22.095 44.42 93.599 40 129-2.577 20.639-6.519 26.812-21 8-5.14-6.677-15.691-26.897-18-35 21.257 13.842 29.343-35.097 28-48.5-1.467-14.633-19.126-46.077-34-50.5z"/><path fill="#3c5d6b" d="M827 526c-1.01 11.174-5.108 67.553 14.5 64 4.279-.775 9.79-11.556 14.5-12.5-5.615 10.481-21.491 36.04-33.5 38.5-4.632.949-9.818-.842-14.5-1-4.645-17-2.491-33.718-1-51 2.611-30.27 9.147-65.346 16-95 4.791-20.733 10.174-40.201 18-60l-27 114.5z"/><path fill="#003949" d="M885 412c-12.409 1.807-18.021 11.584-24 21-4.271 6.727-10.876 17.685-12 25.5-1.95 13.559 3.841 64.996 27 53.5-3.078 8.773-9.778 21.233-15 29-3.879 5.77-6.524 9.922-11.5 15-.607.62-5.302 1.785-5.5 2-8.926-11.921-8.057-33.734-7-48.5 1.37-19.142 17.639-96.642 40-100.5 2.278-.393 8.48.32 8 3"/><path fill="#3dedfd" d="M137 412c-2.605 4.691-.622 4.003 2 6-2.85-.157-2.758 1.316-3 3.5-.311 2.798-.276 35.479 1.5 35.5 2.225-11.561 1.947-25.968 9.5-35 15.606 12.188 6.329 10.279 6 22.5-.303 11.249 3.224 24.21-2 35-4.319 8.922-8.653 4.113-10 6-.367.515 3.683 9.985 4 12 .515 3.277-2.094 2.433-2 3 .22 1.326 3.892 5.578 4 6 .271 1.058-1.63 2.29-1 4.5 2.309 8.103 12.86 28.323 18 35l-3 4c-20.883-32.466-35.613-81.727-36-118a48 48 0 0 1 0-1c6.614-7.889-2.276-20.549 12-19"/><path fill="#3ae8fd" d="M887 493c-4.701 16.504-13.479 35.09-22 50l-4-2c5.222-7.767 11.922-20.227 15-29 2.043-5.825.375-7.205 1-11.5.066-.457 4.146-6.624 4-7-.598-1.535-13.742-7.236-14-8-.322-.954 1.542-13.166 1-17-.4-2.827-3.738-9.181-4-11-.774-5.37.946-12.879 0-18-.097-.524-3.805-1.965-3-6.5 5.979-9.416 11.591-19.193 24-21 1.818-.265 4.589-2.218 7-.5 6.308 25.383 2.154 56.382-5 81.5m-3.5-76c-13.906 7.466-5.624 6.775-3.5 13.5 1.742 5.517 1.683 12.883 5.5 17.5.599-4.527 1.734-29.86-2-31"/><path fill="#1de0fb" d="M140 412c14.874 4.423 32.533 35.867 34 50.5 1.343 13.403-6.743 62.342-28 48.5-.63-2.21 1.271-3.442 1-4.5-.108-.422-3.78-4.674-4-6-.094-.567 2.515.277 2-3-.317-2.015-4.367-11.485-4-12 1.347-1.887 5.681 2.922 10-6 5.224-10.79 1.697-23.751 2-35 .329-12.221 9.606-10.312-6-22.5-2.815-2.198-5.656-2.215-8-4-2.622-1.997-4.605-1.309-2-6 .962.104 2.252-.223 3 0"/><path fill="#f6fdfc" d="M883.5 417c3.734 1.14 2.599 26.473 2 31-3.817-4.617-3.758-11.983-5.5-17.5-2.124-6.725-10.406-6.034 3.5-13.5"/><path fill="#fafffd" d="M139 418c2.344 1.785 5.185 1.802 8 4-7.553 9.032-7.275 23.439-9.5 35-1.776-.021-1.811-32.702-1.5-35.5.242-2.184.15-3.657 3-3.5"/><path fill="#d2ecf3" d="M713 425c-14.902 72.724-68.547 145.375-143 165-.86.227-2.123-.216-3 0v-7c54.456-14.097 91.381-50.885 119-98.5z"/><path fill="#15d6fa" d="M876 512c-23.159 11.496-28.95-39.941-27-53.5 1.124-7.815 7.729-18.773 12-25.5-.805 4.535 2.903 5.976 3 6.5.946 5.121-.774 12.63 0 18 .262 1.819 3.6 8.173 4 11 .542 3.834-1.322 16.046-1 17 .258.764 13.402 6.465 14 8 .146.376-3.934 6.543-4 7-.625 4.295 1.043 5.675-1 11.5"/><path fill="#8ac3d5" d="m400 559-3 4c-44.486-30.441-68.593-74.779-83-126 5.484 3.689 6.433 14.298 9 20.5 15.019 36.292 44.001 79.404 77 101.5"/><path fill="#6495a8" d="M823 469c-6.853 29.654-13.389 64.73-16 95l-53-24c.821-28.01 5.65-60.692 12-88z"/><path fill="#78b1c4" d="m268 542-53 22c-2.478-30.296-8.115-64.384-15-94l56-17c6.651 28.332 11.284 59.841 12 89"/><path fill="#fdfefe" d="M497.5 475c19.937-1.479 23.315 29.267 5 32-23.191 3.46-24.944-30.521-5-32"/><path fill="#02b3ee" d="M588 500c-.668.839-1.303 2.203-2 3-14.479 16.553-35.033 27.944-57 31l-4-15c18.554-2.079 40.262-13.273 52-28z"/><path fill="#037ec0" d="M596 511c-10.246 11.988-25.351 23.155-40 29-2.232.891-4.798 1.305-7 2l-37-7c6.041.089 11.038-.171 17-1 21.967-3.056 42.521-14.447 57-31z"/><path fill="#467b8f" d="M464 684c-19.806 4.658-43.622 17.062-54 35-12.711.226-54.647-57.417-63-69.5-8.809-12.741-60.287-93.194-62-102-.139-.713 1.293-11.53 1-14.5v-24c3.849-1.086 7.172-1.214 10 2.5 5.642 7.408 19.067 47.705 25 60 22.467 46.556 49.636 91.83 87.5 127.5 18.44-4.705 36.148-16.922 55.5-15"/><path fill="#5392a5" d="M286 509v24c-.391-3.97-.571-8.079-1-12-.43-3.932-.505-8.051-1-12 .642-.073 1.485.145 2 0"/><path fill="#052e41" d="M286 533c.293 2.97-1.139 13.787-1 14.5 1.713 8.806 53.191 89.259 62 102 8.353 12.083 50.289 69.726 63 69.5 1.782-.032 23.679-17.325 29.5-20 37.965-17.447 100.228-13.138 139.5-1-36.829-11.544-111.457-13.064-145.5 6-24.178 13.539-20.079 19.434-18.5 45h-4c-.437-4.205-.413-24.367-1-25.5-.355-.686-10.672-5.094-13.5-7.5-25.678-21.849-53.117-64.195-71.5-93-13.416-21.022-24.187-45.02-40-64-.101-5.101-2.931-5.787-3-10.5-.005-.368 1.999-1.625 2-2 .016-8.405-.839-17.246 1-25.5.429 3.921.609 8.03 1 12"/><path fill="#01abd9" d="M189 538c-2.108 27.019-9.428 40.873-28 12l3-4c14.481 18.812 18.423 12.639 21-8z"/><path fill="#4d7383" d="M807 564c-1.491 17.282-3.645 34 1 51-9.062-.306-30.065-1.007-38-3-.918-.23-4.998-1.648-5.5-2-11.214-7.869-10.895-56.527-10.5-70z"/><path fill="#01abd9" d="M865 543c-4.047 7.081-12.33 26.61-23 22 1.308-1.133 1.753-6.733 2-7 .198-.215 4.893-1.38 5.5-2 4.976-5.078 7.621-9.23 11.5-15z"/><path fill="#548da1" d="M268 542c.361 14.685.751 33.159-2 47.5-1.32 6.882-3.425 17.451-10 20.5-4.479 2.077-40.4 6.482-42 4.5 5.515-16.409 2.377-33.668 1-50.5z"/><path fill="#4f8ba0" d="M212 551c1.186 10.755 6.999 58.308-1.5 64-15.103 10.116-37.681-25.958-43.5-36.5l12.5 11.5c15.48 6.539 17.381-30.199 17.5-39l1.5 10v-16c2.569.228 7.794-2.099 10-1 3.215 1.602-.571 7.04 3.5 7"/><path fill="#053042" d="M735 558c-1.893 3.971-4.818 8.07-7 12-3.895 7.016-8.051 13.98-12 21-4.705 8.363-10.539 18.327-15 26-1.717-.272-3.087 1.312-4 2.5-18.067 23.518-33.04 51.736-52 76-4.205 5.382-27.358 28.051-28 30-1.389 4.214-.92 28.645-2 36.5-2.897-3.824-.546.043-4 0 .605-6.478 2.572-34.508 1-39.5-1.008-3.201-6.628-3.548-7-4-.48-.583-4.285-7.867-5-8.5 4.407.5 11.659 11.039 15 11 9.481-.111 70.511-86.81 77-101 13.363-17.935 24.117-37.517 35-57 2.932-5.249 6.913-10.185 9-16-.012.34 2.707 2.438 2 6.5-.075.434-2.652 3.771-3 4.5"/><path fill="#5791a3" d="m737 592-9-22c2.182-3.93 5.107-8.029 7-12 1.682 11.231.916 22.672 2 34"/><path fill="url(#f)" d="M325 623c13.627 33.935 37.443 64.034 62 91-.464 29.179.988 59.641 8 88-3.918 1.693-3.549 1.91-7.5 0-38.524-18.626-87.975-118.144-100.5-158.5-.312-1.005-2.687.005-3-1 2.817-19.855 3.578-39.93 3-60-.053-1.824 1.002-4.937-2-4.5.027-6.271.123-12.781 0-19 15.813 18.98 26.584 42.978 40 64" style="fill:url(#f)"/>/&gt;<path fill="#aad8e5" d="M567 583v7c-56.441 13.911-121.768 6.004-170-27l3-4c46.92 31.417 113.115 37.949 167 24"/><path fill="#72afc1" d="M737 592c.47 4.906.973 10.17 2 15 2.436 11.452 5.656 25.159 18 30-.289.762-.705 1.24-1 2-5.865 15.092-12.878 29.494-20 44-8.638-11.471-7.654-18.046-10-31-3.661-20.218-5.39-40.949-10-61 3.949-7.02 8.105-13.984 12-21z"/><path fill="#5393a7" d="M395 802c2.312 9.349 6.328 17.865 9 27-60.635-40.704-99.228-109.184-127-175 10.486-23.203 7.894-50.986 8-76 3.002-.437 1.947 2.676 2 4.5.578 20.07-.183 40.145-3 60 .313 1.005 2.688-.005 3 1 12.525 40.356 61.976 139.874 100.5 158.5 3.951 1.91 3.582 1.693 7.5 0"/><path fill="#072b3d" d="M277 654c27.772 65.816 66.365 134.296 127 175 6.439 4.322 13.132 8.407 20 12 1.273.666.937.967 1 1l-2 2c-9.571-4.741-19.342-9.76-28-16-64.69-46.624-109.591-138.219-138-211 9.464-7.979 11.25-20.29 13-32 3.07-.443 2.127 4.919 2 6.5-.635 7.911-2.213 22.583-10 26 3.475 12.291 9.926 24.476 15 36.5"/><path fill="#9ed1de" d="M726 652c-26.81 52.941-51.722 108.091-92.5 152l-.5-87c28.465-32.038 46.671-63.312 68-100 4.461-7.673 10.295-17.637 15-26 4.61 20.051 6.339 40.782 10 61"/><path fill="#355b6b" d="M764 619c-.715 4.21-5.235 13.34-7 18-12.344-4.841-15.564-18.548-18-30 8.301 6.039 14.13 11 25 12"/><path fill="#cfeaf3" d="M701 617c-21.329 36.688-39.535 67.962-68 100-1.54 1.734-9.736 7.705-10 8.5-.232 38.834-7.719 76.917-20 113.5-1.535.839-4.939 4.32-7 3 8.265-27.798 15-50.907 19-80 1.08-7.855.611-32.286 2-36.5.642-1.949 23.795-24.618 28-30 18.96-24.264 33.933-52.482 52-76 .913-1.188 2.283-2.772 4-2.5"/><path fill="#75b1c3" d="M615 721c-19.771-31.431-65.194-41.433-100-42 29.272-3.908 58.272 2.405 86.5 9 7.538 1.761 14.827 7.317 23 6 6.856-1.543 60.259-64.282 67.5-74-6.489 14.19-67.519 100.889-77 101"/><path fill="#9eccdb" d="M411 749c3.38 32.505 7.98 65.816 18.5 96-1.17-2.145-3.012-2.215-4.5-3-.063-.033.273-.334-1-1-3.267-9.743-7.582-19.474-10-29.5-4.555-18.89-8.062-75.765-15-88-1.828-3.223-9.536-6.794-12-9.5-24.557-26.966-48.373-57.065-62-91 18.383 28.805 45.822 71.151 71.5 93 2.828 2.406 13.145 6.814 13.5 7.5.587 1.133.563 21.295 1 25.5"/><path fill="#063347" d="M760 639c-27.767 67.973-69.635 146.215-131 189-10.56 7.363-22.213 13.756-34 19-.697-3.088.769-4.225 1-5 2.061 1.32 5.465-2.161 7-3 65.162-35.61 101.111-91.053 133-156 7.122-14.506 14.135-28.908 20-44z"/><path fill="#7fbdce" d="M736 683c-31.889 64.947-67.838 120.39-133 156 12.281-36.583 19.768-74.666 20-113.5.264-.795 8.46-6.766 10-8.5l.5 87c40.778-43.909 65.69-99.059 92.5-152 2.346 12.954 1.362 19.529 10 31"/><path fill="#c6e4ed" d="M515 679c34.806.567 80.229 10.569 100 42-3.341.039-10.593-10.5-15-11-5.31-4.698-14.265-9.889-21-12-39.272-12.138-101.535-16.447-139.5 1-5.821 2.675-27.718 19.968-29.5 20 10.378-17.938 34.194-30.342 54-35 13.997-3.292 36.58-5.235 51-5"/><path fill="#09455a" d="M579 698c6.735 2.111 15.69 7.302 21 12 .715.633 4.52 7.917 5 8.5.372.452 5.992.799 7 4 1.572 4.992-.395 33.022-1 39.5-2.666 28.529-10.328 56.374-20.5 83-48.669 20.8-106.974 22.724-155.5.5-11.475-30.635-17.974-63.708-20-96.5-1.579-25.566-5.678-31.461 18.5-45 34.043-19.064 108.671-17.544 145.5-6m-140 44c-.019.347.899 2.081 1 4 1.694 32.304 24.964 89.56 61.5 94 51.352 6.24 71.204-37.479 80.5-80 1.69-7.73 4.445-11.588 3-20-6.699-39-143.675-41.513-146 2"/><path fill="#0093ce" d="M585 740c-32.524-20.753-79.082-25.297-115.5-14-10.98 3.406-19.789 12.103-30.5 16 2.325-43.513 139.301-41 146-2"/><path fill="#478094" d="M424 841c-6.868-3.593-13.561-7.678-20-12-2.672-9.135-6.688-17.651-9-27-7.012-28.359-8.464-58.821-8-88 2.464 2.706 10.172 6.277 12 9.5 6.938 12.235 10.445 69.11 15 88 2.418 10.026 6.733 19.757 10 29.5"/><path fill="#23e4fa" d="M585 740c1.445 8.412-1.31 12.27-3 20l-4-3c1.638-8.298 5.717-10.89-1.5-17-21.761-18.423-77.025-16.556-103-9-10.927 3.178-22.255 12.687-29.5 15-.98.313-2.787-.201-4 0-.101-1.919-1.019-3.653-1-4 10.711-3.897 19.52-12.594 30.5-16 36.418-11.297 82.976-6.753 115.5 14"/><path fill="#003a4c" d="M578 757c-5.993 30.365-24.261 74.861-59.5 78-50.067 4.46-65.305-50.304-74.5-89 7.245-2.313 18.573-11.822 29.5-15 25.975-7.556 81.239-9.423 103 9 7.217 6.11 3.138 8.702 1.5 17m-128-4c.875 4.895 2.551 9.302 4 14 2.358 7.647 4.729 16.787 8 24 11.828 26.08 29.143 42.283 57.5 40 21.418-1.725 59.276-39.036 32-60-24.02-18.462-59.15-16.02-81.5 3-1.186 1.009-1.291 2.076-2.5 3-2.766-3.448 5.646-9.493 8-11 27.379-17.528 73.189-12.976 90 17 .902-.561 1.855-9.843 2.5-11.5.165-.424 2.722.104 4-4 .174-.557 1.917-10.626 2-11.5.184-1.949 1.072-4.281 1-4.5-.722-2.185-14.992-8.522-18-9.5 2.401-1.9 2.465-1.701-.5-3-28.918-12.666-81.204-5.466-108 11-.904 1.129 1.47 2.835 1.5 3"/><path fill="#037ca3" d="M557 742c-2.188-.712-4.779-1.487-7-2-32.649-7.54-70.997-3.88-100 13-.03-.165-2.404-1.871-1.5-3 26.796-16.466 79.082-23.666 108-11 2.965 1.299 2.901 1.1.5 3"/><path fill="#1de4fc" d="m550 740-2 3c-19.494-5.229-85.171-6.144-93 17-.773 2.284 1.307 5.041-1 7-1.449-4.698-3.125-9.105-4-14 29.003-16.88 67.351-20.54 100-13"/><path fill="#003b4e" d="M548 743c9.387 2.518 14.693 3.915 22 11l-2.5 5c-10.966-13.603-55.398-21.383-69.5-15.5-.279.116.533 3.132-.5 3.5-3.568 1.27-11.061 1.242-15 3-4.807 2.146-10.794 7.555-15 10-1.049.61-1.986-1.636-3-1-1.827 1.146-5.164 13.732-9.5 1 7.829-23.144 73.506-22.229 93-17"/><path fill="#01bbee" d="M557 742c3.008.978 17.278 7.315 18 9.5.072.219-.816 2.551-1 4.5-2.773.541-2.535-.58-4-2-7.307-7.085-12.613-8.482-22-11l2-3c2.221.513 4.812 1.288 7 2"/><path fill="#0793c2" d="M570 754c1.465 1.42 1.227 2.541 4 2-.083.874-1.826 10.943-2 11.5-1.278 4.104-3.835 3.576-4 4-.645 1.657-1.598 10.939-2.5 11.5-16.811-29.976-62.621-34.528-90-17-2.354 1.507-10.766 7.552-8 11 1.209-.924 1.314-1.991 2.5-3l-8 17c-3.271-7.213-5.642-16.353-8-24 2.307-1.959.227-4.716 1-7 4.336 12.732 7.673.146 9.5-1 1.014-.636 1.951 1.61 3 1 4.206-2.445 10.193-7.854 15-10 3.939-1.758 11.432-1.73 15-3 1.033-.368.221-3.384.5-3.5 14.102-5.883 58.534 1.897 69.5 15.5z"/><path fill="#0099d1" d="M444 746c9.195 38.696 24.433 93.46 74.5 89 35.239-3.139 53.507-47.635 59.5-78l4 3c-9.296 42.521-29.148 86.24-80.5 80-36.536-4.44-59.806-61.696-61.5-94 1.213-.201 3.02.313 4 0"/><path fill="#02141f" d="M415 749c2.026 32.792 8.525 65.865 20 96.5 48.526 22.224 106.831 20.3 155.5-.5 10.172-26.626 17.834-54.471 20.5-83 3.454.043 1.103-3.824 4 0-4 29.093-10.735 52.202-19 80-.231.775-1.697 1.912-1 5-57.106 25.406-115.973 24.754-172-3l2-2c1.488.785 3.33.855 4.5 3-10.52-30.184-15.12-63.495-18.5-96z"/><path fill="#015f79" d="m462 791 8-17c22.35-19.02 57.48-21.462 81.5-3 27.276 20.964-10.582 58.275-32 60-28.357 2.283-45.672-13.92-57.5-40m29 17c1.031 1.221 2.507 5.747 1 0v-1c.207.324 2.83 1.188 4 2.5.443.497 1.045 5.79 3.5 7.5 2.424 1.689 9.259 1.505 12 2 .807.146.204 1.905 1 2 14.84 1.773 19.83-1.782 28.5-12 5.582-6.578 12.247-12.237 7-21.5-9.79-17.282-44.17-18.564-57-3-7.851 9.524-7.067 15.132 0 23.5"/><path fill="#16d5fb" d="m541 809-8.5 4c.738-2.935 2.799-3.537 4.5-7 5.151-10.487-7.206-21.214-16.5-27-.368-.229-5.256-3.193-4.5 0-8.532-4.076-17.093-.398-23 6.5-7.709 9.003-6.731 12.54-1 21.5v1h-1c-7.067-8.368-7.851-13.976 0-23.5 12.83-15.564 47.21-14.282 57 3 5.247 9.263-1.418 14.922-7 21.5"/><path fill="#005361" d="M516 779c5.826 2.783 20.183 19.612 21 27-1.701 3.463-3.762 4.065-4.5 7l8.5-4c-8.67 10.218-13.66 13.773-28.5 12-.796-.095-.193-1.854-1-2-2.741-.495-9.576-.311-12-2-2.455-1.71-3.057-7.003-3.5-7.5-1.17-1.312-3.793-2.176-4-2.5-5.731-8.96-6.709-12.497 1-21.5 5.907-6.898 14.468-10.576 23-6.5"/><path fill="#018bb4" d="M537 806c-.817-7.388-15.174-24.217-21-27-.756-3.193 4.132-.229 4.5 0 9.294 5.786 21.651 16.513 16.5 27"/><path fill="#02101f" d="M492 808c1.507 5.747.031 1.221-1 0z"/></svg>