<svg xmlns="http://www.w3.org/2000/svg" width="1024" height="1024"><defs><linearGradient id="a" x1="345.735" x2="705.983" y1="172.352" y2="207.929" gradientUnits="userSpaceOnUse"><stop offset="18.508%" style="stop-color:#d7f3f5"/><stop offset="91.989%" style="stop-color:#8dcedd"/><stop offset="100%" style="stop-color:#5cb5d4"/></linearGradient></defs><defs><linearGradient id="b" x1="282.587" x2="355.61" y1="189.357" y2="880.51" gradientUnits="userSpaceOnUse"><stop offset="31.655%" style="stop-color:#cddfe9"/><stop offset="100%" style="stop-color:#92acc2"/></linearGradient></defs><defs><linearGradient id="c" x1="757.205" x2="657.714" y1="245.126" y2="294.346" gradientUnits="userSpaceOnUse"><stop offset="0%" style="stop-color:#9ebfd1"/><stop offset="100%" style="stop-color:#c4dae6"/></linearGradient></defs><defs><linearGradient id="d" x1="579.453" x2="753.427" y1="565.728" y2="772.206" gradientUnits="userSpaceOnUse"><stop offset="18.889%" style="stop-color:#739ba8"/><stop offset="100%" style="stop-color:#4a717f"/></linearGradient></defs><defs><linearGradient id="e" x1="333.202" x2="392.463" y1="384.777" y2="590.409" gradientUnits="userSpaceOnUse"><stop offset="0%" style="stop-color:#1a3246"/><stop offset="93.458%" style="stop-color:#3bd4f4"/></linearGradient></defs><defs><linearGradient id="f" x1="644.621" x2="693.632" y1="386.765" y2="547.457" gradientUnits="userSpaceOnUse"><stop offset="0%" style="stop-color:#1a3347"/><stop offset="100%" style="stop-color:#2fb7dc"/></linearGradient></defs><defs><linearGradient id="g" x1="340.386" x2="382.885" y1="406.016" y2="526.755" gradientUnits="userSpaceOnUse"><stop offset="0%" style="stop-color:#002f52"/><stop offset="100%" style="stop-color:#1173a4"/></linearGradient></defs><defs><linearGradient id="h" x1="646.719" x2="690.369" y1="406.488" y2="525.752" gradientUnits="userSpaceOnUse"><stop offset="0%" style="stop-color:#012f51"/><stop offset="100%" style="stop-color:#1176a7"/></linearGradient></defs><defs><linearGradient id="i" x1="627.755" x2="689.103" y1="490.431" y2="594.726" gradientUnits="userSpaceOnUse"><stop offset="0%" style="stop-color:#2692ba"/><stop offset="100%" style="stop-color:#39d2f4"/></linearGradient></defs><defs><linearGradient id="j" x1="577.553" x2="601.909" y1="715.996" y2="742.506" gradientUnits="userSpaceOnUse"><stop offset="0%" style="stop-color:#986379"/><stop offset="100%" style="stop-color:#804d62"/></linearGradient></defs><defs><linearGradient id="k" x1="549.787" x2="454.811" y1="767.303" y2="798.602" gradientUnits="userSpaceOnUse"><stop offset="0%" style="stop-color:#b18192"/><stop offset="100%" style="stop-color:#cea3b2"/></linearGradient></defs><path fill="#58a8b9" d="m743 157-2 2c-22.894-18.953-75.618-48.702-104.5-54-1.463-.268-5.083-.745-4.5 2-93.812-29.412-182.907-32.268-273 9-7.584 3.474-14.697 6.999-22 11-7.231 3.961-41.938 23.219-44 29.5-.778 2.368 2.934 13.953 4 17 7.252 20.732 22.854 41.872 37 58.5 1.869 2.197 5.147 6.031 7 8 14.358 15.251 29.436 28.682 48.5 38l-2.5 5c-35.207-19.211-63.295-44.011-85-78-.347-.543-.656-1.453-1-2l-16.5-36c-52.387 46.137-90.484 107.916-108.5 175.5-.771.77-1.937-3.561-9-2.5 13.064-56.811 42.071-113.143 81-156.5C373.54 43.681 602.265 35.04 743 157"/><path fill="url(#a)" d="M632 107c32.361 10.146 62.457 25.193 90 45 .661 1.958 2.599 2.779 4 4-39.241 93.731-139.037 145.968-239 138-39.61-3.157-133.075-35.715-151-74-5.974-12.759 2.648-19.97 2-24.5-.217-1.517-5.874-4.63-6-5-.984-2.887 7.009-23.075 9-27 7.514-14.818 27.911-29.214 18-47.5 90.093-41.268 179.188-38.412 273-9m45.5 47c-3.973 2.422 9.275 6.69 10.5 6.5.28-.943-9.398-7.172-10.5-6.5" style="fill:url(#a)"/>/&gt;<path fill="#38808f" d="M741 159c21.876 18.11 51.074 54.638 65 79.5 7.934 14.165 31.821 68.761 31 82.5-18.713-59.96-52.777-115.491-100-157 .286-1.195 2.813-4.53-1-1.5-8.966 22.167-21.943 45.133-36 64.5-19.747 27.206-46.675 49.231-77 64-67.51 32.879-145.673 32.267-214 3-7.705-3.301-14.668-6.999-22-11l2.5-5c-19.064-9.318-34.142-22.749-48.5-38 25.02 24.454 57.357 44.918 91 55 77.32 26.162 164.104 11.965 228.5-38 31.129-24.153 60.378-61.614 70.5-99.5-.233-.581-7.828-4.657-9-5.5-27.543-19.807-57.639-34.854-90-45-.583-2.745 3.037-2.268 4.5-2 28.882 5.298 81.606 35.047 104.5 54"/><path fill="#c5eef8" d="M359 116c9.911 18.286-10.486 32.682-18 47.5-1.991 3.925-9.984 24.113-9 27 .126.37 5.783 3.483 6 5 .648 4.53-7.974 11.741-2 24.5-1.513 2.036-4.051 1.534-5 2l-30-55.5c1.628-6.242.3-10.041 4-15.5 5.814-8.578 24.145-16.614 32-24 7.303-4.001 14.416-7.526 22-11"/><path fill="#378e9d" d="M337 127c-7.855 7.386-26.186 15.422-32 24-2.018.407-9.769 7.539-10 8.5-2.583 10.759 26.354 54.458 34 64.5 1.761 2.313 3.813 5.294 5 8-14.146-16.628-29.748-37.768-37-58.5-1.066-3.047-4.778-14.632-4-17 2.062-6.281 36.769-25.539 44-29.5"/><path fill="#dcf4f9" d="M331 222c-.127.062-.783 2.182-2 2-7.646-10.042-36.583-53.741-34-64.5.231-.961 7.982-8.093 10-8.5-3.7 5.459-2.372 9.258-4 15.5z"/><path fill="#125368" d="M432 295c18.778 5.627 39.436 8.724 59 10 92.671 6.042 198.189-42.486 234-132.5 3.024-7.601 6.626-11.597 1-16.5-1.401-1.221-3.339-2.042-4-4 1.172.843 8.767 4.919 9 5.5-10.122 37.886-39.371 75.347-70.5 99.5-64.396 49.965-151.18 64.162-228.5 38"/><path fill="#dfeff2" d="M677.5 154c1.102-.672 10.78 5.557 10.5 6.5-1.225.19-14.473-4.078-10.5-6.5"/><path fill="#4697b6" d="M491 305c-5.197-3.799-4.173-4.352-4-11 99.963 7.968 199.759-44.269 239-138 5.626 4.903 2.024 8.899-1 16.5-35.811 90.014-141.329 138.542-234 132.5"/><path fill="#408a9a" d="m852 332-12-1c-.551-1.462-.905-3.345-1-3.5-.688-1.13-.935.55-2 .5-.071-.003.163-1.183-1-1 1.259-2.61.845-3.409 1-6 .821-13.739-23.066-68.335-31-82.5-13.926-24.862-43.124-61.39-65-79.5l2-2c53.442 46.312 91.041 106.316 109 175"/><path fill="#19576a" d="M737 164c-2.47 10.318-11.506 25.599-17 35-5.781 9.892-11.761 19.88-20 28 14.057-19.367 27.034-42.333 36-64.5 3.813-3.03 1.286.305 1 1.5"/><path fill="#89aebb" d="M837 321c-.155 2.591.259 3.39-1 6-.748 1.55-1.92 1.884-2 2-1.903-2.357-4.589 2.676-6.5 3-6.61 1.122-13.087-1.309-19.5-2-1.407-4.749-4.828-8.471-5-9-.098-.301.099-.699 0-1-12.805-38.781-28.561-68.196-57-99.5-6.684-7.358-17.282-19.799-26-21.5 5.494-9.401 14.53-24.682 17-35 47.223 41.509 81.287 97.04 100 157"/><path fill="#1c6e7c" d="M301 203c-6.636-10.554-11.757-21.956-17.5-33-67.016 62.15-110.523 152.585-115.5 244.5-2.935 54.207 3.53 108.396 13 161.5 5.922 33.206 10.441 47.163 25 79 29.957 79.126 86.422 163.308 154 217 11.489 9.128 23.536 17.217 36 25 38.702 24.168 79.397 39.35 126 37 48.682.801 99.216-24.524 137.5-53C797.728 778.186 882.841 546.032 852 377.5c-.125-.681-.934-6.888-3-4.5-1.971-12.436-4.654-30.474-9-42l12 1c.669 2.559 2.639 5.043 2 8-10.803-.891-2.237 5.037 2 7 .326 15.634 5.406 30.986 7 46.5 1.544 15.023 2.003 32.348 2 47.5-.002 11.325-.041 23.762-1 35-.179 2.093-.78 4.695-1 7-1.78 18.662-5.576 43.934-9 62.5-.679 3.681-7.71 25.644-6.5 26.5l6.5 1c-55.102 263.821-313.496 538.52-554 261.5-63.33-72.947-109.147-169.391-130-263.5 1.343.118 5.179.788 5-1.5-11.96-29.05-14.812-61.354-17-92.5-.855-12.167-2.025-23.632-2-36 .03-14.673.508-30.9 2-45.5 1.322-12.932 9.521-39.605 9-49.5-.133-2.519-.831-2.53-1-5 .069-.014-.36-.796 1-1 7.063-1.061 8.229 3.27 9 2.5 18.016-67.584 56.113-129.363 108.5-175.5z"/><path fill="url(#b)" d="M301 203c.344.547.653 1.457 1 2-6.046 1.578-13.423 10.413-18 15.5-28.971 32.202-53.476 73.775-68 114.5-6.121-6.96-20.965-4.089-12 5-4.324-2.397-8.196-6.348-11.5-10 1.09 10.715 11.331 16.689 19.5 22l-4 20c-7.513-.181-12.79-1.163-20-2.5 6.77 2.566 12.664 7.39 19 10.5-10.653 150.8 23.935 307.912 123 424.5l19 18c-35.264-44.073-60.126-96.298-80-149-32.649-86.577-52.765-180.394-48-273.5 3.109 2.905 13.933 3.609 18 5-25.605 75.544 7.784 194.136 87 225 13.091 48.566 30.314 96.644 56 140 6.933 11.702 14.843 22.166 23 33 18.605 24.709 39.175 47.209 64 66-12.902 6.212-25.549 11.115-39 16-55.47-25.818-102.949-64.534-145.5-108 35.726 44.311 78.578 82.469 124.5 116-3.696-.184-9.14 3.608-13 4-12.464-7.783-24.511-15.872-36-25-66.286-59.682-116.994-136.076-154-217-9.77-25.807-16.674-52.717-25-79-9.47-53.104-15.935-107.293-13-161.5 4.977-91.915 48.484-182.35 115.5-244.5 5.743 11.044 10.864 22.446 17.5 33" style="fill:url(#b)"/>/&gt;<path fill="url(#c)" d="M803 320c-10.941 2.979-21.592 9.241-32 13l-13-9c10.999-8.959 24.384-19.994 20.5-36-8.901 13.485-20.14 23.813-34 32-1.016.5-2.507-2.323-2.5-2.5.069-1.625 18.859-15.647 23-23 3.341-5.933 7.204-14.81 5.5-21.5-5.823 9.065-27.151 34.364-37 37-1.172.313-20.86-5.13-23.5-6-1.922-.633-4.087-1.343-6-2-1.864-.64-6.957-1.309-7-3.5 2.982-1.629 13.079-24.664 10.5-25.5-5.688 10.49-11.982 18.728-20.5 27-9.346-2.052-19.578-1.272-29 0l-35-9c30.325-14.769 57.253-36.794 77-64 8.239-8.12 14.219-18.108 20-28 8.718 1.701 19.316 14.142 26 21.5 28.439 31.304 44.195 60.719 57 99.5" style="fill:url(#c)"/>/&gt;<path fill="#f3f9fb" d="M302 205c21.705 33.989 49.793 58.789 85 78 7.332 4.001 14.295 7.699 22 11l-3 17c-25.006-11.962-38.334-9.066-63-12-12.372-1.472-14.766-12.957-22.5-22-2.554.884 7.413 20.772 9.5 22.5-.212.495-4.069 1.184-5 1.5-9.233 3.139-19.997 3.487-28 10-16.964-9.176-30.896-23.395-40.5-40 .457 21.244 13.255 33.493 28.5 46l-3 3c-13.909-8.209-25.429-18.923-33.5-33-2.393 14.164 10.598 28.184 20.5 37l-15 9c-9.908-4.277-18.942-10.591-29-14.5 9.153 13.486 21.215 25.122 36.5 31.5 2.03 2.711-2.401 1.853-2.5 2-3.706.242-7.375-.467-11-1-11.111-1.633-24.498-3.24-35-7 .587-3.119 1.944-6.04 3-9 14.524-40.725 39.029-82.298 68-114.5 4.577-5.087 11.954-13.922 18-15.5"/><path fill="#73bed6" d="M487 294c-.173 6.648-1.197 7.201 4 11-19.564-1.276-40.222-4.373-59-10-33.643-10.082-65.98-30.546-91-55-1.853-1.969-5.131-5.803-7-8-1.187-2.706-3.239-5.687-5-8 1.217.182 1.873-1.938 2-2 .949-.466 3.487.036 5-2 17.925 38.285 111.39 70.843 151 74"/><path fill="#12212c" d="M297 311c7.135 3.859 17.133 8.163 25 10 4.117.962 28.708 5.005 30 2.5-11.007-3.864-16.374-22.424-27-21.5v-1c.931-.316 4.788-1.005 5-1.5-2.087-1.728-12.054-21.616-9.5-22.5 7.734 9.043 10.128 20.528 22.5 22l-4 2.5c1.865.827 3.468 2.227 5 3.5 3.629 3.016 9.79 6.618 14 9 12.028 6.805 19.922 9.202 33 13 5.064 1.47 10.201 2.754 15 5-1.456 2.869-5.349-1.036-6 .5 12.558 23.006 39.937 29.778 56 51.5 4.88 6.599 10.284 17.295 13 25 2.285 6.484 3.681 13.26 5 20 1.361 6.959 2.481 13.913 3 21l-8-2c-5.257-49.461-37.911-88.573-87-99-35.509-7.542-77.318 3.194-102 31-13.837 9.85-27.341 45.499-30 62-2.169 2.928-4.485 3.35-8 3 2.223-22.098 10.761-45.58 25-62.5-2.997-2.08-8.738 3.729-11 4.5-1.585.541-5.417 1.657-7 2-1.231.266-3.363.93-4 1-7.71.848-13.778-.855-21-3-4.642-1.378-12.564-4.822-17-7-6.336-3.11-12.23-7.934-19-10.5 7.21 1.337 12.487 2.319 20 2.5 10.577.255 21.537-.569 32-2 2.202-.301 4.937.608 7-.5-4.16-3.386-7.68-4.083-13-6.5-8.108-3.685-14.336-6.017-22-11-8.169-5.311-18.41-11.285-19.5-22 3.304 3.652 7.176 7.603 11.5 10 2.862 1.586 5.921 2.898 9 4 10.502 3.76 23.889 5.367 35 7-9.497 1.811-20.995-1.804-30.5-4l-2.5 3.5 34.5 15.5c4.845-3.513 6.365-9.373 9.5-14 .099-.147 4.53.711 2.5-2-15.285-6.378-27.347-18.014-36.5-31.5 10.058 3.909 19.092 10.223 29 14.5 4.494 1.94 8.279 3.528 13 5 10.445 3.257 20.802 6.854 32 4.5-9.366-3.667-18.131-9.223-26-15.5-1.116-.89-3.587-2.632-4-3-9.902-8.816-22.893-22.836-20.5-37 8.071 14.077 19.591 24.791 33.5 33 5.166 3.049 12.236 6.8 18 8.5-4.093-4.822-10.251-7.604-15-11.5-15.245-12.507-28.043-24.756-28.5-46 9.604 16.605 23.536 30.824 40.5 40"/><path fill="#10202b" d="M704 302c.031 1.349-1.019.991-2 1-.324.003-.684.044-1 0-1.811-.251-3.82-1.599-5.5-1-1.48.527-15.838 21.724-22.5 21.5 12.221 1.195 25.167-.175 37-3.5 6.243-1.754 12.192-4.665 18-7.5.653-2.763-15.627-6.336-18-7.5v-1c2.64.87 22.328 6.313 23.5 6 9.849-2.636 31.177-27.935 37-37 1.704 6.69-2.159 15.567-5.5 21.5-4.141 7.353-22.931 21.375-23 23-.007.177 1.484 3 2.5 2.5 13.86-8.187 25.099-18.515 34-32 3.884 16.006-9.501 27.041-20.5 36-1.575 1.283-4.768 4.15-6 5-8.184 5.646-17.451 10.947-27 13.5 11.731 2.411 22.301-2.34 33-5.5 4.358-1.287 8.724-2.456 13-4 10.408-3.759 21.059-10.021 32-13 .099.301-.098.699 0 1-1.187 7.253-36.557 28.194-36 30.5.239.988 2.77.252 3 .5 2.035 2.199 6.281 10.783 7.5 11 4.75.845 29.282-13.73 34.5-17 7.886-4.942 16.537-9.093 22-17 .08-.116 1.252-.45 2-2 1.163-.183.929.997 1 1-3.041 11.132-15.163 19.853-25 25-6.055 3.168-15.849 6.599-22.5 9-2.654.958-15.506 1.427-14.5 6 1.622 3.249 7.595 2.697 11 3 4.755 4.514 12.536 2.848 19.5 6-3.755 4.154 4.927 1.791 4.5 6-3.797 1.481-8.553 5.115-13 6-5.79 1.152-9.345.648-15 0-.98-.112-3.737-.733-5-1-7.294-1.544-13.263-4.703-20-7.5 4.737 6.241 9.431 12.484 13 19.5 5.312 10.443 9.954 23.44 12 35-3.8 4.315 4.91 17.251-5 16-2.277-21.532-11.229-44.591-24-62-40.216-54.819-118.039-54.416-166.5-10-1.387 1.271-3.082 1.993-1.5 4-1.118.831-2.041 2.122-3 3-15.526 14.223-25.169 44.316-27 65-5.604 4.81 1.096 18.967-8 17-.309-12.58 1.257-30.762 4-43 2.915-13.006 9.947-25.754 15-38 13.123-19.299 51.439-34.438 61-53.5 1.643-3.275.561-1.421-1-3.5 4.562-.856 9.087-3.612 13-6 .516 2.45 2.891 1.423 4.5 1 9.886-2.596 18.83-7.768 27.5-13 4.796-2.894 8.741-5.285 13-9 1.186-1.034 1.944-1.975 3-3 8.518-8.272 14.812-16.51 20.5-27 2.579.836-7.518 23.871-10.5 25.5.043 2.191 5.136 2.86 7 3.5"/><path fill="#bbd3df" d="m623 291 35 9c-134.007 18.098-157.599 217.551-74 303-13.757 37.705-40.134 78.33-79 93-18.573-5.776-22.969-15.971-45.5-4-15.216 8.084-44.761 50.204-54 52-5.757 1.119-10.754-5.21-14.5 1.5-.168 8.003 7.865 10.375 14 11.5-5.436 7.865-14.571 9.845-23 13-25.686-43.356-42.909-91.434-56-140 157.86 61.504 232.522-246.04 80-319l3-17c68.327 29.267 146.49 29.879 214-3"/><path fill="#0a4a60" d="M406 311c152.522 72.96 77.86 380.504-80 319-79.216-30.864-112.605-149.456-87-225 1.737-5.126 3.962-10.005 6-15 .637-.07 2.769-.734 4-1-16.61 27.243-18.887 61.703-16 93 2.481 26.891 10.281 52.268 23 76 13.03 24.313 31.226 45.822 55 60 67.714 40.381 129.562-.62 158-65 14.307-32.39 20.301-65.606 18-101-.655-10.072-1.831-20.141-4-30-7.156-32.527-24.469-63.568-49-86-3.876-3.544-5.888-4.967-10-8-18.724-13.811-34.387-21.009-58-24-4.39-.556-6.931.027-11 0-3.529-.023-9.15-3.201-11 1-1.532-1.273-3.135-2.673-5-3.5l4-2.5c24.666 2.934 37.994.038 63 12"/><path fill="#08465e" d="M687 300c-1.056 1.025-1.814 1.966-3 3-3.99.587-7.917.803-12 1-2.486.12-8.369-.321-11 0-22.401 2.731-40.757 10.062-59 23-3.996 2.834-7.379 5.73-11 9-31.732 28.654-51.947 75.484-54 118-.677 14.017.926 31.037 3 45 2.723 18.336 7.653 36.039 15 53 65.442 151.081 223.145 72.387 238-66 3.544-33.011-2.234-67.974-16-98 1.263.267 4.02.888 5 1 .121 6.233 4.276 11.36 6 17 17.933 58.676 1.761 81.071-6 134-6.744 9.762-10.655 21.475-17 31.5-41.702 65.882-121.078 92.749-181 31.5-83.599-85.449-60.007-284.902 74-303 9.422-1.272 19.654-2.052 29 0"/><path fill="#32899e" d="M325 301v1c-.07.006.396.564-1 1-1.381.432-3.66.079-5 1.5.743 1.833 1.365 3.632 2 5.5-.688 5.35-2.636 7.083 1 11-7.867-1.837-17.865-6.141-25-10 8.003-6.513 18.767-6.861 28-10"/><path fill="#267389" d="M322 321c-3.636-3.917-1.688-5.65-1-11 .625 1.839 2.532 6.424 5 6.5l-2-13.5c1.396-.436.93-.994 1-1 10.626-.924 15.993 17.636 27 21.5-1.292 2.505-25.883-1.538-30-2.5"/><path fill="#347e93" d="M684 303c-4.259 3.715-8.204 6.106-13 9l1-8c4.083-.197 8.01-.413 12-1"/><path fill="#1e657c" d="m701 303-5.5 18c.936.322 8.31-15.349 6.5-18 .981-.009 2.031.349 2-1 1.913.657 4.078 1.367 6 2v1c-5.581 4.464-1.861 9.823 0 15-11.833 3.325-24.779 4.695-37 3.5 6.662.224 21.02-20.973 22.5-21.5 1.68-.599 3.689.749 5.5 1"/><path fill="#5dafc3" d="m324 303 2 13.5c-2.468-.076-4.375-4.661-5-6.5-.635-1.868-1.257-3.667-2-5.5 1.34-1.421 3.619-1.068 5-1.5"/><path fill="#438fa7" d="M355 304c2.294-.473 3.604 7.487 3 10-4.21-2.382-10.371-5.984-14-9 1.85-4.201 7.471-1.023 11-1"/><path fill="#1c6a83" d="m366 304 25 23c-13.078-3.798-20.972-6.195-33-13 .604-2.513-.706-10.473-3-10 4.069.027 6.61-.556 11 0"/><path fill="#1a6983" d="m672 304-1 8c-8.67 5.232-17.614 10.404-27.5 13-1.609.423-3.984 1.45-4.5-1 6.893-4.206 16.984-13.409 22-20 2.631-.321 8.514.12 11 0"/><path fill="#59a3b3" d="M701 303c.316.044.676.003 1 0 1.81 2.651-5.564 18.322-6.5 18z"/><path fill="#94d5de" d="M424 328c3.451 4.586 4.905 16.303 7 20-9.747-7.445-20.36-13.727-28.5-23-1.632 2.683 4.676 4.683 3.5 7-4.799-2.246-9.936-3.53-15-5l-25-23c23.613 2.991 39.276 10.189 58 24"/><path fill="#90d6df" d="M639 324c-3.913 2.388-8.438 5.144-13 6-1.405.264-4.254 1.785-5 .5-.986-1.697 5.692-4.36 2.5-5.5-6.816 9.009-17.421 13.717-25.5 21-7.262 2.028 5.944-15.246 4-19 18.243-12.938 36.599-20.269 59-23-5.016 6.591-15.107 15.794-22 20"/><path fill="#2d8298" d="M710 320c-1.861-5.177-5.581-10.536 0-15 2.373 1.164 18.653 4.737 18 7.5-5.808 2.835-11.757 5.746-18 7.5"/><path fill="#749db0" d="m282 320 3-3c4.749 3.896 10.907 6.678 15 11.5-5.764-1.7-12.834-5.451-18-8.5"/><path fill="#9cbfd0" d="M808 330c1.378 4.648 2.512 11.108 3 16l-41 6c-.23-.248-2.761.488-3-.5-.557-2.306 34.813-23.247 36-30.5.172.529 3.593 4.251 5 9"/><path fill="#86bfce" d="m273 327-6 11c-4.721-1.472-8.506-3.06-13-5l15-9c.413.368 2.884 2.11 4 3"/><path fill="#76afc2" d="M771 333c-4.276 1.544-8.642 2.713-13 4l-6-8c1.232-.85 4.425-3.717 6-5z"/><path fill="#264456" d="M431 348c4.414 7.791 17.945 18.342 23 27 1.217 3.127 5.824 8.304 2 9-16.063-21.722-43.442-28.494-56-51.5.651-1.536 4.544 2.369 6-.5 1.176-2.317-5.132-4.317-3.5-7 8.14 9.273 18.753 15.555 28.5 23"/><path fill="#274759" d="M626 330c1.561 2.079 2.643.225 1 3.5-9.561 19.062-47.877 34.201-61 53.5.971-2.352 1.435-7.433 4-10 8.769-11.466 17.233-21.293 28-31 8.079-7.283 18.684-11.991 25.5-21 3.192 1.14-3.486 3.803-2.5 5.5.746 1.285 3.595-.236 5-.5"/><path fill="#4f99b1" d="m267 338 6-11c7.869 6.277 16.634 11.833 26 15.5-11.198 2.354-21.555-1.243-32-4.5"/><path fill="#4aa7bc" d="M598 346c-10.767 9.707-19.231 19.534-28 31l21-41c3.621-3.27 7.004-6.166 11-9 1.944 3.754-11.262 21.028-4 19"/><path fill="url(#d)" d="M840 331c4.346 11.526 7.029 29.564 9 42 .801 5.051 1.397 9.92 2 15 .933 46.526 3.289 93.446-5 139.5C823.77 651.007 716.904 854.022 599 909c-60.064 28.007-134.957 22.793-189-16 6.297-3.227 13.354-5.586 20-8 13.451-4.885 26.098-9.788 39-16 23.877-11.497 49.394-25.267 67-45 30.81-9.044 54.682-29.878 68-59 1.043-1.186 1.934-3.029 3-4 1.22-1.111 1.465-1.953 3-3 1.435-.978 1.694-.18 3-1 6.729 1.493 20.585-4.703 18-12.5-1.952-5.889-8.96-.477-9.5-.5-26.28-1.133-43.474-63.393-85-57-13.067 2.012-15.44 13.994-31.5 9 38.866-14.67 65.243-55.295 79-93 59.922 61.249 139.298 34.382 181-31.5 6.345-10.025 10.256-21.738 17-31.5-2.691 18.354-2.086 39.242-5 58.5-9.3 61.467-31.702 107.274-54 163.5-.062.156-3.33 1.269-1.5 3 1.578-.594 1.352-2.815 1.5-3 9.042-11.32 18.994-29.517 26-42.5 47.237-87.537 82.788-193.181 75-294-1.084-14.038-3.252-31.748-8-44.5 5.67-2.677 11.324-5.775 17-8.5-5.809 1.218-11.293-.152-17-.5-.413-1.748-.834-3.158-1-5-.387-4.296.022-10.515-3-14 9.837-5.147 21.959-13.868 25-25 1.065.05 1.312-1.63 2-.5.095.155.449 2.038 1 3.5" style="fill:url(#d)"/>/&gt;<path fill="#4da1b6" d="M434 336c6.045 12.837 14.226 24.167 20 39-5.055-8.658-18.586-19.209-23-27-2.095-3.697-3.549-15.414-7-20 4.112 3.033 6.124 4.456 10 8"/><path fill="#8ab3c6" d="M834 329c-5.463 7.907-14.114 12.058-22 17h-1c-.488-4.892-1.622-11.352-3-16 6.413.691 12.89 3.122 19.5 2 1.911-.324 4.597-5.357 6.5-3"/><path fill="#4488a1" d="m752 329 6 8c-10.699 3.16-21.269 7.911-33 5.5 9.549-2.553 18.816-7.854 27-13.5"/><path fill="#b5d4e0" d="M216 335c-1.056 2.96-2.413 5.881-3 9-3.079-1.102-6.138-2.414-9-4-8.965-9.089 5.879-11.96 12-5"/><path fill="#83cddb" d="M483 422c-5.952 8.405-8.54-9.896-12-14.5-1.914-2.547-1.734-.111-2 1.5-2.716-7.705-8.12-18.401-13-25 3.824-.696-.783-5.873-2-9-5.774-14.833-13.955-26.163-20-39 24.531 22.432 41.844 53.473 49 86"/><path fill="#8ad7e2" d="M570 377c-2.565 2.567-3.029 7.648-4 10-5.053 12.246-12.085 24.994-15 38-6.593 5.432-5.069 20.947-8 27-1.389 2.868-3.565 2.815-6 2 2.053-42.516 22.268-89.346 54-118z"/><path fill="#06455c" d="M854 340c.875.072 15.819 5.446 16.5 6 2.184 1.776 1.621 5.684 5 8 4.595 3.149 24.424 10.337 26.5 13.5 10.003 39.939 18.412 74.22 12 115.5-1.294-1.754-4.066-2.764-6-3 .903-10.209 1.005-19.794 1-30-.006-12.07.367-23.97-1-36-1.074-9.448-7.508-41.559-14.5-47l-20.5-8.5c4.442 9.777 3.892 20.961 5 31.5 1.865 17.736 3.466 32.998 4 51h-3c-.49-16.183-1.982-36.452-4-52.5-.569-4.527-5.02-35.402-6-37-1.399-2.282-10.331-3.263-13-4.5-4.237-1.963-12.803-7.891-2-7"/><path fill="#095b72" d="M166 341c.169 2.47.867 2.481 1 5-2.487.441-12.074 2.03-13.5 3-4.568 3.109-6.622 37.261-7.5 45h-4c1.229-11.781 3.142-23.974 6-35.5-.89-1.862-6.035 2.08-7 2.5-22.084 9.615-21.791 18.762-26 42-3.232 17.848-3.003 28.912-3 47 .002 10.781.008 19.119 1 30 .03.33-.032.67 0 1l-5 1c-6.907-42.585.759-72.133 11-113.5 2.561-4.44 21.773-10.129 26.5-14.5 3.305-3.056 3.654-7.873 5-9 .614-.514 13.452-3.596 15.5-4"/><path fill="#25a2c1" d="M167 346c.521 9.895-7.678 36.568-9 49.5-1.492 14.6-1.97 30.827-2 45.5l-14 3c.394-16.848 2.105-33.301 4-50 .878-7.739 2.932-41.891 7.5-45 1.426-.97 11.013-2.559 13.5-3"/><path fill="#23445b" d="M382 349v3c-28.26-5.963-58.961.591-81 19.5.511 3.503 9.907-1.398 10 4.5-7.724-2.094-11.811-2.75-20-1-2.325.497-9.017 3.588-11 5 24.682-27.806 66.491-38.542 102-31"/><path fill="#20445d" d="m753 389-6 3c-33.054-45.421-96.082-56.741-140-19.5.546.89 3.899.513 5 .5v1c-9.881-.856-19.243 3.239-27 9-1.582-2.007.113-2.729 1.5-4 48.461-44.416 126.284-44.819 166.5 10"/><path fill="#394c55" d="M811 346h1c-5.218 3.27-29.75 17.845-34.5 17-1.219-.217-5.465-8.801-7.5-11z"/><path fill="#475a63" d="M248 351c3.625.533 7.294 1.242 11 1-3.135 4.627-4.655 10.487-9.5 14L215 350.5l2.5-3.5c9.505 2.196 21.003 5.811 30.5 4"/><path fill="#1d9bbb" d="M879 441c.03.992-.023 2.007 0 3l-14-3c.003-15.152-.456-32.477-2-47.5-1.594-15.514-6.674-30.866-7-46.5 2.669 1.237 11.601 2.218 13 4.5.98 1.598 5.431 32.473 6 37 2.018 16.048 3.51 36.317 4 52.5"/><path fill="#236789" d="M469 448c2.102 19.773 1.235 39.629-3 59l-6 7.5c17.058-61.594-8.726-147.883-78-162.5v-3c49.089 10.427 81.743 49.539 87 99"/><path fill="url(#e)" d="M382 352c69.274 14.617 95.058 100.906 78 162.5l6-7.5c-25.973 118.803-163.787 139.504-207 20-.476-11.508-4.214-22.94-5-34.5-.47-6.92-.234-15.496 0-22.5l4.5-25 .5 5.5c4.23 5.231 7.747 10.339 14 5.5 4.249-3.288 7.606-9.465 5-15 6.516 4.613 10.439 8.383 19 9-18.655 60.04 52.606 121.513 105.5 77 38.084-32.05 30.522-96.825-7.5-126 3.159-34.201-55.362-51.13-70-18-4.046-3.449-8.867-5.609-14-7-.093-5.898-9.489-.997-10-4.5 22.039-18.909 52.74-25.463 81-19.5" style="fill:url(#e)"/>/&gt;<path fill="url(#f)" d="M747 392c25.005 34.36 30.945 83.714 19 124-3.098 10.447-8.253 22.974-15 31.5-1.425 1.8-14.439 14.481-15.5 14.5-4.89.086 2.655-23.35-11-23-3.063.079-27.573 18.201-35 21-35.628 13.427-73.679 1.698-95.5-29.5-3.074-4.395-10.332-22.91-11.5-23.5-.779-.394-16.286 3.497-17 4-1.338.941.616 4.485-1.5 5-3.506-19.395-4.642-35.285-3-55l3.5-10c3.024-.712 3.211 2.277 5.5 3 11.807 3.73 15.247.562 15-12 4.385 3.704 13.327 7.519 19 8-11.277 32.581 10.62 77.044 43.5 88 80.021 26.664 118.963-87.183 54.5-137 5.934-10.115-8.77-25.223-17.5-30-18.688-10.225-42.246-8.538-52.5 12-4.569-3.741-14.19-8.497-20-9v-1l3-.5c-1.893-1.776-2.848.498-3 .5-1.101.013-4.454.39-5-.5 43.918-37.241 106.946-25.921 140 19.5" style="fill:url(#f)"/>/&gt;<path fill="#f9fbfc" d="m234 363-3 4.5 9 2.5c-10.463 1.431-21.423 2.255-32 2l4-20c7.664 4.983 13.892 7.315 22 11"/><path fill="#8db6c9" d="M812 353c3.022 3.485 2.613 9.704 3 14l-40 1c-1.006-4.573 11.846-5.042 14.5-6 6.651-2.401 16.445-5.832 22.5-9"/><path fill="#a0f9fe" d="m908 414-2 1.5c-2.616-21.868-8.923-20.795-28-25.5-1.108-10.539-.558-21.723-5-31.5l20.5 8.5c6.992 5.441 13.426 37.552 14.5 47"/><path fill="#2df4fc" d="M142 394c-1.738 16.661-3.605 34.283-4 51l-26 5c-.003-18.088-.232-29.152 3-47 7.379-5.23 13.686-10.805 23-12.5-2.081-9.639 6.445-21.353 3-29.5.965-.42 6.11-4.362 7-2.5-2.858 11.526-4.771 23.719-6 35.5"/><path fill="#c3fbfe" d="M115 403c4.209-23.238 3.916-32.385 26-42 3.445 8.147-5.081 19.861-3 29.5-9.314 1.695-15.621 7.27-23 12.5"/><path fill="#61a0b0" d="m240 370-9-2.5 3-4.5c5.32 2.417 8.84 3.114 13 6.5-2.063 1.108-4.798.199-7 .5"/><path fill="#708aa3" d="M395 401c-12.189-9.352-25.93-14.636-41.5-11-2.272.531-15.595 7.461-16.5 9-4.213-5.067-6.874-11.631-12-16 14.638-33.13 73.159-16.201 70 18"/><path fill="#728da6" d="M702 401c-12.695-9.81-25.009-14.707-41.5-11-2.873.646-15.258 6.77-16.5 9-3.543-5.529-6.807-11.747-12-16 10.254-20.538 33.812-22.225 52.5-12 8.73 4.777 23.434 19.885 17.5 30"/><path fill="#a0cad7" d="M815 367c.166 1.842.587 3.252 1 5-9.803-.598-20.328-.139-30-1-3.405-.303-9.378.249-11-3z"/><path fill="#1d3743" d="M816 372c5.707.348 11.191 1.718 17 .5-5.676 2.725-11.33 5.823-17 8.5-1.54.727-4.331 1.349-6 2 .427-4.209-8.255-1.846-4.5-6-6.964-3.152-14.745-1.486-19.5-6 9.672.861 20.197.402 30 1"/><path fill="#21425a" d="M612 373c.152-.002 1.107-2.276 3-.5z"/><path fill="#0b3847" d="M522 934c25.398-1.281 50.858-9.015 74-19 181.469-78.295 277.044-341.289 255-527-.603-5.08-1.199-9.949-2-15 2.066-2.388 2.875 3.819 3 4.5 30.841 168.532-54.272 400.686-192.5 503.5-38.284 28.476-88.818 53.801-137.5 53"/><path fill="#a7bccd" d="M311 376c5.133 1.391 9.954 3.551 14 7 5.126 4.369 7.787 10.933 12 16-1.459 2.482.615 15.086 0 19.5-2.572 18.452-21.725 32.817-40 31.5-8.561-.617-12.484-4.387-19-9-1.623-1.149-4.987-6.629-7-7l-5-20c1.54-3.626 2.734-9.34 7-11-5.97 20.795 18.053 26.914 27 11.5 9.408-16.208-4.606-31.527-20-21.5-1.471-.53 1.658-5.066 2-5.5 2.237-2.837 11.835-9.067 9-12.5 8.189-1.75 12.276-1.094 20 1m301-2c5.81.503 15.431 5.259 20 9 5.193 4.253 8.457 10.471 12 16-1.221 2.192 1.456 11.853 1 16.5-1.888 19.246-21.596 36.144-41 34.5-5.673-.481-14.615-4.296-19-8-1.906-1.61-4.21-5.009-6-7l-7-24c.764-2.444 3.306-5.41 4-7.5.175-.527-2.623-.17-2-2 1.717-5.047 6.215-10.4 8-15.5.959-.878 1.882-2.169 3-3 7.757-5.761 17.119-9.856 27-9m-18.5 16c-15.991 2.256-20.224 30.071-5 33 22.445 4.319 31.41-36.725 5-33"/><path fill="#c2d3de" d="M280 393c-1.772 1.155-6.373 7.815-7 10-4.266 1.66-5.46 7.374-7 11-7.541 17.758-11.356 36.686-12 56-.234 7.004-.47 15.58 0 22.5.786 11.56 4.524 22.992 5 34.5-9.779-27.043-13.595-56.492-9-85 2.659-16.501 16.163-52.15 30-62 1.983-1.412 8.675-4.503 11-5 2.835 3.433-6.763 9.663-9 12.5-.342.434-3.471 4.97-2 5.5"/><path fill="#ebf0f4" d="M224 387c1.125 6.277-7.91 8.412-3 13-4.765 93.106 15.351 186.923 48 273.5 19.874 52.702 44.736 104.927 80 149l-19-18C230.935 687.912 196.347 530.8 207 380c4.436 2.178 12.358 5.622 17 7"/><path fill="#29afd6" d="M777 388c13.766 30.026 19.544 64.989 16 98l-9-57.5c-3.301-7.023-4.915-14.917-8-22-.529-1.215-3.388-8.607-6-6.5-3.569-7.016-8.263-13.259-13-19.5 6.737 2.797 12.706 5.956 20 7.5"/><path fill="#79bece" d="M242 445c-4.096 40.721 5.224 81.324 28 115-6.839-4.332-5.997-5.832-14-2-12.719-23.732-20.519-49.109-23-76l8-50.5c2.321-15.695 13.749-29.577 15-44.5 2.262-.771 8.003-6.58 11-4.5-14.239 16.92-22.777 40.402-25 62.5"/><path fill="#86aec4" d="M816 381c4.748 12.752 6.916 30.462 8 44.5 7.788 100.819-27.763 206.463-75 294-7.006 12.983-16.958 31.18-26 42.5 22.298-56.226 44.7-102.033 54-163.5 2.914-19.258 2.309-40.146 5-58.5 7.761-52.929 23.933-75.324 6-134 7.022.451 13.127 3.332 18-3.5.508-4.352-15.079-4.989-9-13.5 4.447-.885 9.203-4.519 13-6 1.669-.651 4.46-1.273 6-2"/><path fill="#d3dee6" d="M572 411c-5.09 16.289-9.578 32.924-11 50-1.642 19.715-.506 35.605 3 55 .517 2.858-.069 5.708 0 6-7.379-22.302-11.079-47.511-9-71 1.831-20.684 11.474-50.777 27-65-1.785 5.1-6.283 10.453-8 15.5-.623 1.83 2.175 1.473 2 2-.694 2.09-3.236 5.056-4 7.5"/><path fill="#63a7bc" d="M245 390c-2.038 4.995-4.263 9.874-6 15-4.067-1.391-14.891-2.095-18-5-4.91-4.588 4.125-6.723 3-13 7.222 2.145 13.29 3.848 21 3"/><path fill="#8fdae6" d="M256 387c-1.251 14.923-12.679 28.805-15 44.5l-8 50.5c-2.887-31.297-.61-65.757 16-93 1.583-.343 5.415-1.459 7-2"/><path fill="#7199a8" d="M596 915c.505-3.965 5.219-1.387 3-6 117.904-54.978 224.77-257.993 247-381.5 8.289-46.054 5.933-92.974 5-139.5 22.044 185.711-73.531 448.705-255 527"/><path fill="url(#g)" d="M395 401c38.022 29.175 45.584 93.95 7.5 126-52.894 44.513-124.155-16.96-105.5-77 18.275 1.317 37.428-13.048 40-31.5.615-4.414-1.459-17.018 0-19.5.905-1.539 14.228-8.469 16.5-9 15.57-3.636 29.311 1.648 41.5 11m-9.5 80c-17.686 2.268-15.601 33.245 6 29 16.087-3.161 13.271-31.471-6-29" style="fill:url(#g)"/>/&gt;<path fill="url(#h)" d="M702 401c64.463 49.817 25.521 163.664-54.5 137-32.88-10.956-54.777-55.419-43.5-88 19.404 1.644 39.112-15.254 41-34.5.456-4.647-2.221-14.308-1-16.5 1.242-2.23 13.627-8.354 16.5-9 16.491-3.707 28.805 1.19 41.5 11m-9.5 80c-12.854 1.647-16.162 23.402-4 28 25.192 9.524 28.532-31.143 4-28" style="fill:url(#h)"/>/&gt;<path fill="#21769c" d="M753 389c12.771 17.409 21.723 40.468 24 62 1.716 16.22.906 49.744-7 63-1.831 3.07-.599 6.229-4 2 11.945-40.286 6.005-89.64-19-124z"/><path fill="#508ca3" d="M797 389c-6.079 8.511 9.508 9.148 9 13.5-4.873 6.832-10.978 3.951-18 3.5-1.724-5.64-5.879-10.767-6-17 5.655.648 9.21 1.152 15 0"/><path fill="#c0f4fd" d="M273 403c.627-2.185 5.228-8.845 7-10 15.394-10.027 29.408 5.292 20 21.5-8.947 15.414-32.97 9.295-27-11.5"/><path fill="#bef3fc" d="M593.5 390c26.41-3.725 17.445 37.319-5 33-15.224-2.929-10.991-30.744 5-33"/><path fill="#2cf3fc" d="M908 414c1.367 12.03.994 23.93 1 36l-26-4c-.04-2.195-.992-4.745-1-5-.534-18.002-2.135-33.264-4-51 19.077 4.705 25.384 3.632 28 25.5z"/><path fill="#093d50" d="M146 394c-1.895 16.699-3.606 33.152-4 50-.015.661.012 1.339 0 2h-4c.007-.333-.008-.667 0-1 .395-16.717 2.262-34.339 4-51z"/><path fill="#2f7c99" d="M793 486c-14.855 138.387-172.558 217.081-238 66l9-13c1.67 3.495 3.185 7.68 5 11 46.264 84.611 137.649 88.099 189 7 22.876-33.74 31.061-82.097 24-122-2.046-11.56-6.688-24.557-12-35 2.612-2.107 5.471 5.285 6 6.5 3.085 7.083 4.699 14.977 8 22z"/><path fill="#629fb1" d="M483 422c2.169 9.859 3.345 19.928 4 30-9.974 3.343-7.451-12.047-9-19.5-.349-1.679-.952-6.203-4-3.5-1.319-6.74-2.715-13.516-5-20 .266-1.611.086-4.047 2-1.5 3.46 4.604 6.048 22.905 12 14.5"/><path fill="#15334a" d="M579 435c-9.736-3.179-12.927 12.445-9 19-2.289-.723-2.476-3.712-5.5-3l-3.5 10c1.422-17.076 5.91-33.711 11-50z"/><path fill="#14344a" d="M271 434c-11.112-2.047-14.81 26.318 2 22-6.253 4.839-9.77-.269-14-5.5l-.5-5.5-4.5 25c.644-19.314 4.459-38.242 12-56z"/><path fill="#40a1ba" d="M547 468c.483 19.712 5.594 39.21 11 58-.039-.095-1.155 2.602-2 .5-3.32-8.255-5.191-22.037-7-31-.104-.515-1.577-4.821-2-8.5-1.204-10.485-.004-20.652-1-31.5-.251-2.738.971-3.957-3-3.5 2.931-6.053 1.407-21.568 8-27-2.743 12.238-4.309 30.42-4 43"/><path fill="#4c8295" d="M487 452c2.301 35.394-3.693 68.61-18 101l-7-14c12.318-26.795 17.139-59.789 15-89-.519-7.087-1.639-14.041-3-21 3.048-2.703 3.651 1.821 4 3.5 1.549 7.453-.974 22.843 9 19.5"/><path fill="#d3f7fd" d="M271 434c2.013.371 5.377 5.851 7 7 2.606 5.535-.751 11.712-5 15-16.81 4.318-13.112-24.047-2-22"/><path fill="#d3f0f6" d="M579 435c1.79 1.991 4.094 5.39 6 7 .247 12.562-3.193 15.73-15 12-3.927-6.555-.736-22.179 9-19"/><path fill="#00375b" d="M782 435c7.061 39.903-1.124 88.26-24 122-52.281 77.108-141.768 70.149-189-7-1.815-3.32-3.33-7.505-5-11-2.026-4.241-4.222-8.663-6-13-5.406-18.79-10.517-38.288-11-58 9.096 1.967 2.396-12.19 8-17-2.079 23.489 1.621 48.698 9 71 5.215 22.088 25.296 51.179 43.5 65 67.322 51.112 145.73-.437 162.5-73 7.906-13.256 8.716-46.78 7-63 9.91 1.251 1.2-11.685 5-16"/><path fill="#027ca2" d="M156 441c-.025 12.368 1.145 23.833 2 36-3.351-1.091-13.008.04-16 1-.449-10.522-.193-21.459 0-32 .012-.661-.015-1.339 0-2z"/><path fill="#00739c" d="M879 444c.262 11.468-.511 22.599-1 34l-14-2c.959-11.238.998-23.675 1-35z"/><path fill="#041725" d="M882 441c.008.255.96 2.805 1 5 .202 11.088-.454 21.963-1 33-1.197 24.215-4.984 47.972-7.5 72 4.327-5.123 22.038-11.27 24.5-16.5 3.634-7.719 8.096-44.273 9-54.5 1.934.236 4.706 1.246 6 3-1.155 7.436-9.74 50.335-12 54.5-2.393 4.411-22.448 13.289-27.5 17.5-6.363 5.304-5.95 14.468-19.5 14 .612-2.839-4.756-1.443 1-4 2.369-1.052 10.976-2.861 12-4.5 1.237-1.98 7.346-40.649 8-46 1.474-12.069 1.481-24.41 2-36.5.489-11.401 1.262-22.532 1-34-.023-.993.03-2.008 0-3z"/><path fill="#003d60" d="M259 527c43.213 119.504 181.027 98.803 207-20 4.235-19.371 5.102-39.227 3-59l8 2c2.139 29.211-2.682 62.205-15 89-2.814 6.121-8.077 14.397-12 20-44.9 64.132-122.299 71.864-173 10-2.152-2.714-5.15-6.265-7-9-22.776-33.676-32.096-74.279-28-115 3.515.35 5.831-.072 8-3-4.595 28.508-.779 57.957 9 85"/><path fill="#01a6cf" d="M138 445c-.008.333.007.667 0 1-.219 11.051.485 21.99 1 33l-26 1c-.992-10.881-.998-19.219-1-30z"/><path fill="#03252f" d="M142 446c-.193 10.541-.449 21.478 0 32-3.399 1.091-.917 1.552-3 3-.035-.658.031-1.341 0-2-.515-11.01-1.219-21.949-1-33z"/><path fill="#009bc8" d="M909 450c.005 10.206-.097 19.791-1 30-8.132-.992-17.647.472-26-1 .546-11.037 1.202-21.912 1-33z"/><path fill="#548a9e" d="M547 487c-3.435 4.406 2.404 14.198-7 12-2.074-13.963-3.677-30.983-3-45 2.435.815 4.611.868 6-2 3.971-.457 2.749.762 3 3.5.996 10.848-.204 21.015 1 31.5"/><path fill="#01456e" d="M158 477c2.188 31.146 5.04 63.45 17 92.5.179 2.288-3.657 1.618-5 1.5-2.566-.226-11.437-4.184-14-6-3.766-11.949-7.059-25.089-9-37.5-2.524-16.14-4.304-33.178-5-49.5 2.992-.96 12.649-2.091 16-1"/><path fill="#00456f" d="M878 478c-.519 12.09-.526 24.431-2 36.5-.654 5.351-6.763 44.02-8 46-1.024 1.639-9.631 3.448-12 4.5-2.672-2.043-3.104-.052-3-4.5.199-8.535 7.655-28.426 9-39 1.591-12.515 1.178-25.919 1-38.5.22-2.305.821-4.907 1-7z"/><path fill="#051626" d="M142 478c.696 16.322 2.476 33.36 5 49.5 1.941 12.411 5.234 25.551 9 37.5-6.454-4.573-3.426-5.769-7.5-9-5.504-4.365-25.44-13.546-28.5-18.5-3.617-5.856-10.481-46.137-12-55.5l5-1c1.022 10.479 5.747 45.418 10 53.5 2.871 5.457 19.612 11.636 24.5 16.5-3.889-23.245-7.252-46.408-8.5-70 2.083-1.448-.399-1.909 3-3"/><path fill="#00548f" d="M139 479c.031.659-.035 1.342 0 2 1.248 23.592 4.611 46.755 8.5 70-4.888-4.864-21.629-11.043-24.5-16.5-4.253-8.082-8.978-43.021-10-53.5-.032-.33.03-.67 0-1z"/><path fill="#00508b" d="M908 480c-.904 10.227-5.366 46.781-9 54.5-2.462 5.23-20.173 11.377-24.5 16.5 2.516-24.028 6.303-47.785 7.5-72 8.353 1.472 17.868.008 26 1"/><path fill="#dbeef5" d="M385.5 481c19.271-2.471 22.087 25.839 6 29-21.601 4.245-23.686-26.732-6-29"/><path fill="#dceef5" d="M692.5 481c24.532-3.143 21.192 37.524-4 28-12.162-4.598-8.854-26.353 4-28"/><path fill="#06384d" d="M856 565c-5.756 2.557-.388 1.161-1 4-.282 1.305-.706 2.591-1 4l-6.5-1c-1.21-.856 5.821-22.819 6.5-26.5 3.424-18.566 7.22-43.838 9-62.5.178 12.581.591 25.985-1 38.5-1.345 10.574-8.801 30.465-9 39-.104 4.448.328 2.457 3 4.5"/><path fill="#447589" d="M558 526c1.778 4.337 3.974 8.759 6 13l-9 13c-7.347-16.961-12.277-34.664-15-53 9.404 2.198 3.565-7.594 7-12 .423 3.679 1.896 7.985 2 8.5 1.809 8.963 3.68 22.745 7 31 .845 2.102 1.961-.595 2-.5"/><path fill="url(#i)" d="M766 516c3.401 4.229 2.169 1.07 4-2-16.77 72.563-95.178 124.112-162.5 73-18.204-13.821-38.285-42.912-43.5-65-.069-.292.517-3.142 0-6 2.116-.515.162-4.059 1.5-5 .714-.503 16.221-4.394 17-4 1.168.59 8.426 19.105 11.5 23.5 21.821 31.198 59.872 42.927 95.5 29.5 7.427-2.799 31.937-20.921 35-21 13.655-.35 6.11 23.086 11 23 1.061-.019 14.075-12.7 15.5-14.5 6.747-8.526 11.902-21.053 15-31.5" style="fill:url(#i)"/>/&gt;<path fill="#51899b" d="M469 553c-28.438 64.38-90.286 105.381-158 65l8-12c50.24 23.795 105.881.394 131-47 3.923-5.603 9.186-13.879 12-20z"/><path fill="#30caea" d="M758 557c-51.351 81.099-142.736 77.611-189-7 47.232 77.149 136.719 84.108 189 7"/><path fill="#67a1b2" d="M270 560c1.85 2.735 4.848 6.286 7 9 11.611 14.642 24.709 28.81 42 37l-8 12c-23.774-14.178-41.97-35.687-55-60 8.003-3.832 7.161-2.332 14 2"/><path fill="#d4f0f6" d="M319 606c-17.291-8.19-30.389-22.358-42-37 50.701 61.864 128.1 54.132 173-10-25.119 47.394-80.76 70.795-131 47"/><path fill="#104b59" d="M206 655c-14.559-31.837-19.078-45.794-25-79 8.326 26.283 15.23 53.193 25 79m154 217c-67.578-53.692-124.043-137.874-154-217 37.006 80.924 87.714 157.318 154 217"/><path fill="#592a39" d="M505 696c16.06 4.994 18.433-6.988 31.5-9 41.526-6.393 58.72 55.867 85 57 .54.023 7.548-5.389 9.5.5 2.585 7.797-11.271 13.993-18 12.5 5.278-3.312 12.394-2.773 15-9.5-29.185 2.475-37.142-34.208-61-47.5-8.952-8.192-20.855-11.794-32.5-8-5.301 1.727-13.149 9.645-18 11-17.42 4.867-26.431-19.237-51-11-22.163 7.43-47.755 53.767-61 56-2.286.385-11.389-2.041-11.5-.5 3.173 6.24 10.911 7.303 17 9.5-1.783 1.558-3.212.328-5 0-6.135-1.125-14.168-3.497-14-11.5 3.746-6.71 8.743-.381 14.5-1.5 9.239-1.796 38.784-43.916 54-52 22.531-11.971 26.927-1.776 45.5 4"/><path fill="#b78c9d" d="M567 700c-.175-.097-3.815.077-4 0-9.552-3.981-22.155-13.317-29.5 0 10.431-3.778 17-.699 26.5 3v1c-21.929-8.567-40.224 32.775-10 24l6 16c-3.34-2.283-32.34-7.491-38-8-17.204-1.548-35.83 1.115-52.5 6-6.361 1.864-30.88 11.09-36 14-1.272.723-2.465 3.457-2.5 5-2.784-.277-10.355-.599-12-1-.315-.077-.689.082-1 0-1.259-.334-3.205-2.713-4-3-6.089-2.197-13.827-3.26-17-9.5.111-1.541 9.214.885 11.5.5 13.245-2.233 38.837-48.57 61-56 24.569-8.237 33.58 15.867 51 11 4.851-1.355 12.699-9.273 18-11 11.645-3.794 23.548-.192 32.5 8m-95.5-7c-3.791.422-18.826 8.465-15.5 13.5 1.244 1.883 12.081-7.887 15.5-8.5 5.326-.955 10.959.352 16 2-2.455-6.122-10.15-7.65-16-7"/><path fill="#fdfbfc" d="M471.5 693c5.85-.65 13.545.878 16 7-5.041-1.648-10.674-2.955-16-2-3.419.613-14.256 10.383-15.5 8.5-3.326-5.035 11.709-13.078 15.5-13.5"/><path fill="#fbf9fa" d="M563 700c.447 2.402 6.88 4.631 3.5 7-1.706-1.843-4.219-3.112-6.5-4-9.5-3.699-16.069-6.778-26.5-3 7.345-13.317 19.948-3.981 29.5 0"/><path fill="url(#j)" d="M567 700c23.858 13.292 31.815 49.975 61 47.5-2.606 6.727-9.722 6.188-15 9.5-1.306.82-1.565.022-3 1-17.324-.026-33.973-2.98-51-5-.159-1.247-.757-7.613-1-8 1.606-.179 3.653.507 5-.5.014-.577-4.817-1.264-5 .5-.059-.095-1.683-.783-2-1l-6-16c9.038-2.624 17.901-16.081 10-24v-1c2.281.888 4.794 2.157 6.5 4 3.38-2.369-3.053-4.598-3.5-7 .185.077 3.825-.097 4 0" style="fill:url(#j)"/>/&gt;<path fill="#7c5064" d="M560 704c7.901 7.919-.962 21.376-10 24-30.224 8.775-11.929-32.567 10-24"/><path fill="#a47486" d="M518 736c-.062 16.484-13.002 3.365-20 13-3.504.988-11.239 2.433-12 5-4.948.656-10.159.514-15 2l-38 6c-.931-.029-4.071-.808-6-1 .035-1.543 1.228-4.277 2.5-5 5.12-2.91 29.639-12.136 36-14 16.67-4.885 35.296-7.548 52.5-6"/><path fill="#966378" d="M556 744c.317.217 1.941.905 2 1 .243.387.841 6.753 1 8-6.314-.749-12.689-1.25-19-2-17.017-2.022-24.86-6.833-42-2 6.998-9.635 19.938 3.484 20-13 5.66.509 34.66 5.717 38 8"/><path fill="#966378" d="M558 745c.183-1.764 5.014-1.077 5-.5-1.347 1.007-3.394.321-5 .5"/><path fill="#d1a9b4" d="m540 751-1 3c-11.374-1.608-22.123-6.018-33.5-5-5.037.451-13.415 4.194-19.5 5 .761-2.567 8.496-4.012 12-5 17.14-4.833 24.983-.022 42 2"/><path fill="#79475a" d="M539 754c10.245 1.448 20.807 3.829 31 5-2.004 1.802-6.388 1-9 1h-9c-18.106-.003-32.991 5.155-50.5 4-9.035-.596-20.548-4.906-30.5-5v-3c4.841-1.486 10.052-1.344 15-2 6.085-.806 14.463-4.549 19.5-5 11.377-1.018 22.126 3.392 33.5 5"/><path fill="#af788b" d="M559 753c17.027 2.02 33.676 4.974 51 5-1.535 1.047-1.78 1.889-3 3-12.535.358-24.54-.569-37-2-10.193-1.171-20.755-3.552-31-5l1-3c6.311.75 12.686 1.251 19 2"/><path fill="#632e41" d="M471 756v3c-4.47-.042-8.564.971-13 1-7.512.048-15.85 2.289-25 2z"/><path fill="#90aebe" d="M410 757c.795.287 2.741 2.666 4 3 4.985 10.86 12.961 22.221 21 31-9.426 4.053-22.861 4.418-30 12-8.157-10.834-16.067-21.298-23-33 8.429-3.155 17.564-5.135 23-13 1.788.328 3.217 1.558 5 0"/><path fill="url(#k)" d="M427 761c1.929.192 5.069.971 6 1 9.15.289 17.488-1.952 25-2 .792 4.595 9.038 2.794 14.5 5 5.056 2.042 12.719 10.34 19 12 23.34 6.167 38.063-14.921 60.5-17h9c.074 8.416.329 16.639-1 25-13.199 9.619-25.195 18.484-42 21-20.243 3.031-41.973.669-61.5-5 2.469 5.699 12.887 10.69 18.5 13l-2 1c-26.121-10.999-43.934-31.02-58-55 1.645.401 9.216.723 12 1m15.5 4c-.976.061-7.964 4.101-5 6 4.571 1.058 12.234-6.45 5-6m8 0c-.215-.003-3.627 2.292-3.5 2.5 3.119 2.672 6.582-2.451 3.5-2.5m-14 8c-.215.014-3.518 2.152-3.5 2.5.292 5.577 13.889-3.191 3.5-2.5" style="fill:url(#k)"/>/&gt;<path fill="#af7f90" d="M471 759c9.952.094 21.465 4.404 30.5 5 17.509 1.155 32.394-4.003 50.5-4-22.437 2.079-37.16 23.167-60.5 17-6.281-1.66-13.944-9.958-19-12-5.462-2.206-13.708-.405-14.5-5 4.436-.029 8.53-1.042 13-1"/><path fill="#86566c" d="M607 761c-1.066.971-1.957 2.814-3 4-6.799 7.729-10.695 17.655-19 23 .505-.898 4.9-9.146 2.5-10-8.976 12.812-21.618 24.538-36 31 3.009-8.114 7.102-15.203 8.5-24 1.329-8.361 1.074-16.584 1-25 2.612 0 6.996.802 9-1 12.46 1.431 24.465 2.358 37 2"/><path fill="#5e3043" d="M473 815c24.379 10.266 46.574 12.173 72 3 11.359-4.098 34.055-19.441 40-30 8.305-5.345 12.201-15.271 19-23-13.318 29.122-37.19 49.956-68 59-38.742 11.372-74.65-4.224-101-33-8.039-8.779-16.015-20.14-21-31 .311.082.685-.077 1 0 14.066 23.98 31.879 44.001 58 55"/><path fill="#6695a9" d="M723 762c-.148.185.078 2.406-1.5 3-1.83-1.731 1.438-2.844 1.5-3"/><path fill="#fcfbfb" d="M442.5 765c7.234-.45-.429 7.058-5 6-2.964-1.899 4.024-5.939 5-6"/><path fill="#f8f8fa" d="M450.5 765c3.082.049-.381 5.172-3.5 2.5-.127-.208 3.285-2.503 3.5-2.5"/><path fill="#faf9fb" d="M436.5 773c10.389-.691-3.208 8.077-3.5 2.5-.018-.348 3.285-2.486 3.5-2.5"/><path fill="#6f8c9a" d="M430 885c-6.646 2.414-13.703 4.773-20 8-.333-.012-.668.017-1 0-45.922-33.531-88.774-71.689-124.5-116 42.551 43.466 90.03 82.182 145.5 108"/><path fill="#a47386" d="M585 788c-5.945 10.559-28.641 25.902-40 30l5-6.5c-10.906 1.836-22.302 7.456-34 8.5 4.399-3.976 3.486-8.258 2-14 16.805-2.516 28.801-11.381 42-21-1.398 8.797-5.491 15.886-8.5 24 14.382-6.462 27.024-18.188 36-31 2.4.854-1.995 9.102-2.5 10"/><path fill="#80a1b1" d="M435 791c26.35 28.776 62.258 44.372 101 33-17.606 19.733-43.123 33.503-67 45-24.825-18.791-45.395-41.291-64-66 7.139-7.582 20.574-7.947 30-12"/><path fill="#b58697" d="M518 806c1.486 5.742 2.399 10.024-2 14-15.06 1.344-27.187-.314-41-6-5.613-2.31-16.031-7.301-18.5-13 19.527 5.669 41.257 8.031 61.5 5"/><path fill="#cfa7b1" d="M545 818c-25.426 9.173-47.621 7.266-72-3l2-1c13.813 5.686 25.94 7.344 41 6 11.698-1.044 23.094-6.664 34-8.5z"/><path fill="#5c7f8c" d="M409 893c.332.017.667-.012 1 0 54.043 38.793 128.936 44.007 189 16 2.219 4.613-2.495 2.035-3 6-23.142 9.985-48.602 17.719-74 19-46.603 2.35-87.298-12.832-126-37 3.86-.392 9.304-4.184 13-4"/></svg>