<svg xmlns="http://www.w3.org/2000/svg" width="1024" height="1024"><defs><linearGradient id="a" x1="208.208" x2="766.337" y1="384.816" y2="500.541" gradientUnits="userSpaceOnUse"><stop offset="33.158%" style="stop-color:#bddbe8"/><stop offset="100%" style="stop-color:#85aabe"/></linearGradient></defs><defs><linearGradient id="b" x1="419.975" x2="417.62" y1="315.983" y2="426.958" gradientUnits="userSpaceOnUse"><stop offset="0%" style="stop-color:#f7fcfe"/><stop offset="100%" style="stop-color:#83d3e0"/></linearGradient></defs><defs><linearGradient id="c" x1="679.618" x2="333.778" y1="503.248" y2="513.77" gradientUnits="userSpaceOnUse"><stop offset="23.988%" style="stop-color:#96e3f6"/><stop offset="100%" style="stop-color:#54bacd"/></linearGradient></defs><defs><linearGradient id="d" x1="563.379" x2="444.212" y1="445.158" y2="491.884" gradientUnits="userSpaceOnUse"><stop offset="0%" style="stop-color:#151e2a"/><stop offset="100%" style="stop-color:#0f5563"/></linearGradient></defs><path fill="#046d9b" d="m563 174 29 10c-63.466-15.156-138.679-7.489-199 16-.167-2.422 3.735-3.31 5.5-4 22.446-8.771 46.621-13.264 70-19 1.343-.33 9.165 3.996 7.5-5 29.02-3 58.166-2.294 87 2"/><path fill="#0987b8" d="M476 172c1.665 8.996-6.157 4.67-7.5 5-23.379 5.736-47.554 10.229-70 19-1.765.69-5.667 1.578-5.5 4-85.168 33.164-155.446 102.298-190 187-8.133 6.663-6.516 25.809-16 28 3.251-11.561 7.946-22.464 11-34 8.253-4.559 4.458-8.453 6-12 46.41-106.773 156.355-185.044 272-197"/><path fill="#024e70" d="m800 335 25 53c3.377 9.988 7.299 19.76 10 30-.607 10.55-.322 28.688 8 36 1.179 7.019 2.04 14.883 3 22 .492 28.55-1.442 57.269-10 84.5l-3-2.5c17.718-94.054-7.603-182.986-66-257-33.408-42.342-76.923-75.308-126-98-14.204-6.568-33.997-15.417-49-19l-29-10c101.657 15.139 182.946 75.871 237 161"/><path fill="url(#a)" d="M592 184c15.003 3.583 34.796 12.432 49 19l-5.5 5c52.286 20.471 99.236 62.364 131.5 108 2.089 2.954 4.016 5.979 6 9 8.435 41.732 12.793 83.745 10 126.5-6.968 106.65-56.737 207.813-159 250.5-17.309-7.066-39.607-8.181-58-6v-3c124.71-33.085 196.82-158.637 167-284-8.594-36.128-24.837-68.033-49-96-132.825-153.738-386.457-77.018-407 125-2.665 26.211-.742 55.184 4 81 17.425 94.857 79.41 140.715 164.5 172 1.996.734 4.221 1.011 3.5 4-21.226-1.073-38.042 1.33-57 11-10.167-3.286-20.073-7.068-30-11-86.125-34.11-137.953-97.32-167-184.5-3.975-11.931-5.615-27.294-12-37.5.265-4.145.565-8.877 1-13 2.752-26.102 9.161-48.882 19-73 34.554-84.702 104.832-153.836 190-187 60.321-23.489 135.534-31.156 199-16m-94.5 4c-125.183 7.711-242.49 98.487-274.5 220.5C280.448 245.697 468.517 156.481 633.5 206c-41.812-16.125-91.161-20.762-136-18" style="fill:url(#a)"/>/&gt;<path fill="#fdfdfe" d="M497.5 188c44.839-2.762 94.188 1.875 136 18-164.983-49.519-353.052 39.697-410.5 202.5C255.01 286.487 372.317 195.711 497.5 188"/><path fill="#bcd4df" d="M767 301c-5.586 3.676 3.305 10.217 0 15-32.264-45.636-79.214-87.529-131.5-108l5.5-5c49.077 22.692 92.592 55.658 126 98"/><path fill="#0e1e2e" d="m684 313-1 1c-37.057-43.011-84.545-69.336-141-77-116.835-15.862-226.68 54.309-257 169-2.776 10.501-4.975 21.152-6 32h-2c20.543-202.018 274.175-278.738 407-125"/><path fill="#f5f9fb" d="M542 237c-3.754 1.538-5.932 8.156-1.5 10-6.849.05-13.714-1.734-20.5-2-113.096-4.442-181.776 59.193-221 158-.368.928-1.029 4.914-1.5 5-.69.125-.277-2-1-2H285c30.32-114.691 140.165-184.862 257-169"/><path fill="#d3e4ec" d="M683 314c18.145 21.06 33.885 47.245 42 74l-15 5c-.567-1.359-.972-.935-1-1-27.54-71.289-97.803-126.761-174-136-14.802-1.795-30.12-2.088-45-1-1.984-2.888.67-1.933 2.5-2 8.511-.311 31.077 4.104 27.5-8 6.786.266 13.651 2.05 20.5 2-4.432-1.844-2.254-8.462 1.5-10 56.455 7.664 103.943 33.989 141 77"/><path fill="#b0cdd8" d="M520 245c3.577 12.104-18.989 7.689-27.5 8-1.83.067-4.484-.888-2.5 2-5.891.431-12.182 1.048-18 2-51.97 8.5-97.26 37.795-129 79-17.242 22.383-30.897 46.294-38 74 .033-4.455-1.205-6.348-6-7 39.224-98.807 107.904-162.442 221-158"/><path fill="#1e5d70" d="M535 256c-1.301 2.031-3.653 1.099.5 2 60.938 13.225 101.752 32.179 141.5 82l-11 8c-44.572-60.406-119.384-86.983-193-74l-1-17c5.818-.952 12.109-1.569 18-2 14.88-1.088 30.198-.795 45 1"/><path fill="#102f3b" d="M709 392c-7.243-16.892-20.486-37.568-32-52-39.748-49.821-80.562-68.775-141.5-82-4.153-.901-1.801.031-.5-2 76.197 9.239 146.46 64.711 174 136"/><path fill="#367e91" d="M473 274c-45.145 7.962-89.95 36.017-118 72l-12-10c31.74-41.205 77.03-70.5 129-79z"/><path fill="#0c1f25" d="M666 348c39.758 53.881 50.258 123.171 26 186-33.126 85.797-120.932 135.686-212 124-18.486-2.372-36.952-7.57-54-15-27.225-11.866-54.797-33.424-73-57-54.224-70.229-52.229-170.435 2-240 28.05-35.983 72.855-64.038 118-72 73.616-12.983 148.428 13.594 193 74m-322 21c-46.728 79.101-34.787 176.972 34 239 23.105 20.834 47.872 34.107 78 42 21.717 5.689 40.281 8.272 63 7 55.273-3.096 108.36-31.509 142-75 5.798-7.496 17.25-22.428 21-30.5 2.613-5.624-.26-4.762 0-5.5 2.941.749 4.002-2.498 5-4.5 10.614-21.281 16.58-56.852 16-80.5-4.705-191.724-259.825-259.884-359-92"/><path fill="#1a6074" d="M703 461c-3.963 1.183-1.381 8.508-2 11.5-.201.972-2.826.032-3 1-1.465 8.148 1.71 23.35-6 28.5-.689-2.969.962-3.378-4-3 .393-2.882.851-4.847 1-8 .133-2.832 1.147-7.05 1-9 11.167-66.076-32.588-135.301-85.5-172-47.391-32.869-113.447-35.528-165-11-3.017 1.436-10.716 4.364-10.5 8-25.172 1.367-69.706 38.674-78 62-3.745.819-3.307 3.521-7 0 99.175-167.884 354.295-99.724 359 92"/><path fill="#39aeca" d="M690 482c-1.023-13.529-11.498-27.902-25-30-.02-.332.023-.668 0-1-.169-2.489-.771-3.966-1-6-9.513-84.582-85.168-138.943-168-134 13.593-26.577-41.026-21.199-16 2-4.653.605-9.954 1.474-14 4-9.542-6.522-25.443-10.627-37-10-.216-3.636 7.483-6.564 10.5-8 51.553-24.528 117.609-21.869 165 11 52.912 36.699 96.667 105.924 85.5 172"/><path fill="#fcfefe" d="M496 311c-3.488.208-11.935 1.471-16 2-25.026-23.199 29.593-28.577 16-2"/><path fill="#98c2d1" d="M833 558c-4.41 23.412-14.531 53.581-25 75-22.322 45.672-61.832 89.576-103 119-4.08-2.419-7.111-4.096-11-7 137.028-98.041 172.456-277.711 79-420-1.984-3.021-3.911-6.046-6-9 3.305-4.783-5.586-11.324 0-15 58.397 74.014 83.718 162.946 66 257"/><path fill="url(#b)" d="M429 307c11.557-.627 27.458 3.478 37 10 .322.22 5.724 4.723 6 5 12.71 12.753 18.687 39.569 16 57-.238 1.545-3.161 8.557-4 11-.461 1.342-1.447 2.667-2 4-25.249 9.522-44.764 32.631-50 59-4.734.066-2.232 8.414-3 9.5-8.501 3.872-4.793-8.3-6.5-9.5-2.011-1.413-26.464 2.292-34.5-4.5-.564-.477-7.003-8.815-9-11-.994-1.087 1.105-2.882 1-3-1.539-1.731-5.954-5.043-8-6.5 2.99-.965 4.213-2.666 6-5 1.643-2.146 5.741-4.354 4-8.5-1.795-4.274-6.583-.527-7-.5-6.084.402-5.834-.255-11 7-.092-.341-4.496-4.034-5-5-7.999-15.342-14.084-24.452-10-43 .253-1.148 1.546-2.723 2-4 8.294-23.326 52.828-60.633 78-62" style="fill:url(#b)"/>/&gt;<path fill="#0c4e63" d="m664 445-6-3c-.33-1.032-.686-1.898-1-3a421 421 0 0 0-3-10c-6.982-22.409-12.27-39.115-29-57-1.488-1.591-1.406-3.725-5-6-3.278-6.849-10.394-10.543-16-15-39.577-31.46-82.263-40.328-132-29-.276-.277-5.678-4.78-6-5 4.046-2.526 9.347-3.395 14-4 4.065-.529 12.512-1.792 16-2 82.832-4.943 158.487 49.418 168 134"/><path fill="#547189" d="m733 409-2 2c-.983-7.9-3.711-15.452-6-23-8.115-26.755-23.855-52.94-42-74l1-1c24.163 27.967 40.406 59.872 49 96"/><path fill="#1582af" d="M604 351c-2.614 12.453-21.146 18.498-16.5 32 1.607.778 21.97-21.051 29-20 .228.034 2.337 2.264 3.5 3 3.594 2.275 3.512 4.409 5 6l-38 31c-6.277-2.922-14.123-3.787-21-3-.64-4.709-6.283-8.389-10-11 .717-4.084 23.387-33.272 19.5-36-1.172-.823-2.297 2.363-4 2-.769-.164-2.878-6.035-4.5-2.5L547 384c-18.954-8.836-38.658-10.283-59-5 2.687-17.431-3.29-44.247-16-57 49.737-11.328 92.423-2.46 132 29"/><path fill="#5f94ab" d="M694 745c-2.492-1.862-41.612-38.131-43-33.5 28.27 19.117 48.917 55.8 85 60.5v2c-2.592-.032-7.62-1.032-7 2-.804-.246-2.231.255-3 0l-32.5-19c-22.317-15.995-43.907-44.553-69.5-55 102.263-42.687 152.032-143.85 159-250.5 2.793-42.755-1.565-84.768-10-126.5 93.456 142.289 58.028 321.959-79 420"/><path fill="#023f59" d="M800 335c3.151 4.963 17.821 32.989 19.5 34 12.491 7.52 42.049 4.877 54.5 18.5 29.932 32.75 37.333 119.666 27 161-2.745 10.98-24.949 61.796-33.5 66.5-3.153 1.735-48.239 16.291-54.5 18-1.303.356-3.484-.238-5 0 10.469-21.419 20.59-51.588 25-75l3 2.5c8.558-27.231 10.492-55.95 10-84.5.203 1.506-.839 4.443 1 5 .431 7.923 1.886 16.16 2 24 .376 25.746.366 51.464-6 76.5-2.455 9.656-9.898 22.313-11 31.5-.018.151-2.272 1.149-.5 3 13.743-8.345 36.558-9.654 45.5-24 11.786-18.91 16.781-58.767 18-81 2.021-36.877-1.114-77.931-20.5-110 12.118 35.516 14.566 72.554 13.5 110-.581 20.428-3.21 62.081-12 80-1.017 2.073-1.591 2.482-3 4 7.91-30.768 10.76-63.092 11-95 .225-29.968-1.462-55.929-9-85-1.393-5.372-2.265-17.717-6.5-21-1.813-1.405-41.711-13.151-44-13-1.377.091-2.734-.559-2.5 1.5 1.059 1.561 2.415 3.769 3 5.5z"/><path fill="#4597ac" d="M355 346c-54.229 69.565-56.224 169.771-2 240l-13 11h-1c-10.336-12.493-19.422-26.608-26-41.5-14.934-33.81-19.193-67.136-16-104 1.048-12.094 7.928-31.758 8-41.5 7.103-27.706 20.758-51.617 38-74z"/><path fill="#367e91" d="M677 340c11.514 14.432 24.757 35.108 32 52 .028.065.433-.359 1 1 6.529 15.647 10.179 33.193 12 50 1.475 41.6-3.825 84.514-24 121.5-28.082 51.482-106.489 96.476-164.5 98.5-1.76.061-4.97.909-4.5-2 73.661-6.548 135.376-52.184 162-119.5.464-1.172 2.314-6.466 1-7.5 24.258-62.829 13.758-132.119-26-186z"/><path fill="#1a90bc" d="M556 389c-2.505-1.759-6.188-3.689-9-5l20-31.5c1.622-3.535 3.731 2.336 4.5 2.5 1.703.363 2.828-2.823 4-2 3.887 2.728-18.783 31.916-19.5 36"/><path fill="#0173a5" d="M620 366c-1.163-.736-3.272-2.966-3.5-3-7.03-1.051-27.393 20.778-29 20-4.646-13.502 13.886-19.547 16.5-32 5.606 4.457 12.722 8.151 16 15"/><path fill="#02415a" d="M204 369c-1.542 3.547 2.253 7.441-6 12-9.984 5.515-42.069 7.471-47 17.5-1.283 2.611-3.029 12.764-4 16.5-6.544 25.177-8.974 54.919-9 81v1c.003.993-.01 2.007 0 3 .035 3.376.897 5.791 1 9 .911 28.301 3.224 56.682 9.5 84l-1.5-1c-7.973-26.343-12.109-53.445-13-81-1.196-36.978 2.299-73.787 13.5-109-18.66 31.183-22.213 72.12-20.5 108 1.036 21.701 7.516 63.799 19 82 1.614 2.558 2.52 4.08 5 6 9.795 7.583 28.799 9.787 39.5 17 1.93-1.192.815-2.418.5-4-1.203-6.045-6.868-16.745-9-24-11.787-40.11-12.068-72.684-7-114 3.667 14.861 1.426 31.003 3 46.5 2.462 24.242 9.74 47.486 15 71 6.024-1.129 3.125 11.281 9 13.5 5.53 14.659 12.113 28.512 20 42-3.401-1.354-4.688-4.805-7-1-2.838-4.52-5.055-11.809-9.5-15-12.705-9.122-46.166-11.523-56.5-22.5-42.728-45.385-41.37-172.715-1-219 11.475-13.156 39.593-14.006 56-19.5"/><path fill="#3b8898" d="M351 369c-.454 1.277-1.747 2.852-2 4-3.797 1.116-6.414 7.274-8 10.5-16.465 33.5-21.364 71.327-14 108l4-1c3.404 33.697 19.827 68.17 42 93.5-3.731.202-1.757 1.453-.5 3 6.13 7.544 18.325 12.074 5.5 21-68.787-62.028-80.728-159.899-34-239 3.693 3.521 3.255.819 7 0"/><path fill="#127ca9" d="M654 429c-11.03.522-22.353 2.259-33 5-5.202 1.339-10.593 4.02-16 5 2.094-13.322-5.655-30.254-18-36l38-31c16.73 17.885 22.018 34.591 29 57"/><path fill="url(#c)" d="M349 373c-4.084 18.548 2.001 27.658 10 43-4.601 12.307-7.215 25.844-8 39-1.429 23.947 1.163 41.651 9 64 2.88 8.212 5.798 14.434 10 22 24.269 43.701 70.469 75.234 121 79 21.581 1.609 44.673-.34 65-8 69.503-19.688 113.206-88.861 109-160 13.502 2.098 23.977 16.471 25 30 .147 1.95-.867 6.168-1 9l-30 65.5 5 2.5c-2.587 4.024-4.154 6.209-7 10-.046-11.863-20.691 15.473-17 20-1.418.67-16.048 15.851-20.5 19-30.839 21.813-76.918 34.18-114.5 35-14.117.308-33.383-1.407-47-5-29.385-7.753-65.053-31.213-85-54-22.173-25.33-38.596-59.803-42-93.5l-4 1c-7.364-36.673-2.465-74.5 14-108 1.586-3.226 4.203-9.384 8-10.5" style="fill:url(#c)"/>/&gt;<path fill="#054e69" d="M547 384c2.812 1.311 6.495 3.241 9 5 3.717 2.611 9.36 6.291 10 11-2.369.271-6.787 1.92-9 3-18.762-20.001-48.306-21.629-73-13 .839-2.443 3.762-9.455 4-11 20.342-5.283 40.046-3.836 59 5"/><path fill="#fcfdfd" d="M187 415c-2.518 8.954-7.4 25.272-8 34-2.418 1.373-1.657 3.96-2 6h-2c2.962-16.155 4.428-32.648 9-48.5l-37 8.5c.971-3.736 2.717-13.889 4-16.5 4.931-10.029 37.016-11.985 47-17.5-3.054 11.536-7.749 22.439-11 34m-5.5-15c-4.775.072-16.297 4.096-21.5 5.5 2.145 1.267 27.254-4.012 24.5-5.5-1 .01-2-.015-3 0M875 415l-36-8.5c6.031 24.544 6.642 49.505 8 74.5-1.839-.557-.797-3.494-1-5-.96-7.117-1.821-14.981-3-22-1.992-11.863-4.929-24.354-8-36-2.701-10.24-6.623-20.012-10-30-.585-1.731-1.941-3.939-3-5.5-.234-2.059 1.123-1.409 2.5-1.5 2.289-.151 42.187 11.595 44 13 4.235 3.283 5.107 15.628 6.5 21m-36.5-15 7 4 17.5 1.5z"/><path fill="url(#d)" d="M557 403c-41.842 20.421-7.527 85.964 34 57 .849-.103.941.236 1 1-5.18 6.85-4.808 18.596-8 27.5-1.271 3.545-4.992 9.995-7 13.5l-29.5 28c-5.055 1.869-9.051 5.959-14 8-5.22 2.152-13.447 1.723-17.5 6-20.251 2.209-30.323-2.551-48-10-26.47-16.14-40.515-40.56-38-72 20.191-18.451 41.424-42.501 52-68 .553-1.333 1.539-2.658 2-4 24.694-8.629 54.238-7.001 73 13" style="fill:url(#d)"/>/&gt;<path fill="#026995" d="M203 387c-9.839 24.118-16.248 46.898-19 73-6.527 1.483-5.279-6.951-5-11 .6-8.728 5.482-25.046 8-34 9.484-2.191 7.867-21.337 16-28"/><path fill="#b0cdd8" d="M731 411c3.564 28.639.264 61.7-7 89.5-.491 1.88-2.131 8.81-5 8.5 4.739-23.555 5.586-42.138 3-66-1.821-16.807-5.471-34.353-12-50l15-5c2.289 7.548 5.017 15.1 6 23"/><path fill="#79a9b2" d="M482 394c-10.576 25.499-31.809 49.549-52 68 .249-3.111 1.407-6.016 2-9 5.236-26.369 24.751-49.478 50-59"/><path fill="#a0c8da" d="M181.5 400c1-.015 2 .01 3 0 2.754 1.488-22.355 6.767-24.5 5.5 5.203-1.404 16.725-5.428 21.5-5.5"/><path fill="#fefefe" d="M566 400c6.877-.787 14.723.078 21 3 12.345 5.746 20.094 22.678 18 36-.974 6.199-8.767 17.35-14 21-41.527 28.964-75.842-36.579-34-57 2.213-1.08 6.631-2.729 9-3"/><path fill="#a9cbdc" d="m838.5 400 24.5 5.5-17.5-1.5z"/><path fill="#fafcfc" d="M895 511h-7c1.066-37.446-1.382-74.484-13.5-110 19.386 32.069 22.521 73.123 20.5 110"/><path fill="#fbfcfc" d="m134 511-7-1c-1.713-35.88 1.84-76.817 20.5-108-11.201 35.213-14.696 72.022-13.5 109"/><path fill="#d3e4ec" d="M305 410c-.072 9.742-6.952 29.406-8 41.5-3.193 36.864 1.066 70.19 16 104 6.578 14.892 15.664 29.007 26 41.5-26.94-18.825-46.475-45.977-55-78-7.003-26.306-7.561-53.895-5-81 1.025-10.848 3.224-21.499 6-32h11.5c.723 0 .31 2.125 1 2 .471-.086 1.132-4.072 1.5-5 4.795.652 6.033 2.545 6 7"/><path fill="#8ac0d6" d="M175 455c-2.337 12.745-5.321 25.472-6 38.5-1.863 4.473-25.465-.772-31 2.5.026-26.081 2.456-55.823 9-81l37-8.5c-4.572 15.852-6.038 32.345-9 48.5"/><path fill="#8abfd6" d="M875 415c7.538 29.071 9.225 55.032 9 85l-32.5 1-2.5 4c-.114-7.84-1.569-16.077-2-24-1.358-24.995-1.969-49.956-8-74.5zm-23.5 82c-1.502 2.537.567 1.74 2 2 6.735 1.224 20.533.213 27.5-1.5z"/><path fill="#5a8aa1" d="M566 693c-26.062 6.914-54.131 9.024-81 6-3.448-.388-24.023-3.468-25-5.5-.071-3.575 3.839-16.75 6-18.5 39.626 7.474 83.312 6.98 120-11 67.303-23.768 118.892-84.881 133-155 2.869.31 4.509-6.62 5-8.5 7.264-27.8 10.564-60.861 7-89.5l2-2c29.82 125.363-42.29 250.915-167 284"/><path fill="#f9feff" d="M378 423c-4.103-1.22-5.166-5.532-3-9 .417-.027 5.205-3.774 7 .5 1.741 4.146-2.357 6.354-4 8.5"/><path fill="#8eeafa" d="M375 414c-2.166 3.468-1.103 7.78 3 9-1.787 2.334-3.01 4.035-6 5-2.253-1.605-5.057-4.161-8-4-.036-.961.203-2.252 0-3 5.166-7.255 4.916-6.598 11-7"/><path fill="#35b8cd" d="M364 421c.203.748-.036 2.039 0 3 .136 3.586-2.441 10.431-3 15-6.454 4.18.685 18.778-10 16 .785-13.156 3.399-26.693 8-39 .504.966 4.908 4.659 5 5"/><path fill="#2089aa" d="M843 454c-8.322-7.312-8.607-25.45-8-36 3.071 11.646 6.008 24.137 8 36"/><path fill="#27c9e3" d="M372 428c2.046 1.457 6.461 4.769 8 6.5.105.118-1.994 1.913-1 3 1.997 2.185 8.436 10.523 9 11 8.036 6.792 32.489 3.087 34.5 4.5 1.707 1.2-2.001 13.372 6.5 9.5.768-1.086-1.734-9.434 3-9.5-.593 2.984-1.751 5.889-2 9-2.515 31.44 11.53 55.86 38 72-.447-.188-5.774.021-9.5-2-6.93-3.76-13.654-13.259-19-19-2.693 1.445 3.633 8.568 5 10 10.944 11.458 35.256 24.612 50.5 27l4 60.5c-18.002-.469-34.975-5.337-52-10.5-30.009-12.889-53.972-35.222-71-63-3.135-5.114-5.044-14.588-9-19-10.392-27.839-9.49-50.483-6-79 .559-4.569 3.136-11.414 3-15 2.943-.161 5.747 2.395 8 4m-3.5 2c-3.945 1.17-5.274 15.951-1 17 6.398 1.57 11.543-20.128 1-17"/><path fill="#2a88ac" d="M654 429a421 421 0 0 1 3 10l-27.5-1-8.5-4c10.647-2.741 21.97-4.478 33-5"/><path fill="#7cf2ff" d="M368.5 430c10.543-3.128 5.398 18.57-1 17-4.274-1.049-2.945-15.83 1-17"/><path fill="#1ca0c2" d="M657 439c.314 1.102.67 1.968 1 3 1.484 4.637-2.985 8.618 7 9 .023.332-.02.668 0 1 4.206 71.139-39.497 140.312-109 160-3.666 1.039-31.179 6.992-32.5 6-1.095-.822-.245-4.481-.5-6 27.474-2.486 48.814-11.841 71-27 23.162-15.826 41.458-34.859 52-61.5-4.708.761-2.518 7.57-9 6 6.431.997-5.937 18.936-8 21-11.559 11.564-26.359-4.678-36-13-.871-.752 1.485-1.613.5-2.5-5.863-5.276-15.111-7.669-19.5-16 12.6-16.694 19.664-36.562 18-58-.059-.764-.151-1.103-1-1 5.233-3.65 13.026-14.801 14-21 5.407-.98 10.798-3.661 16-5l8.5 4z"/><path fill="#486f84" d="M279 438c-2.561 27.105-2.003 54.694 5 81h-3c-4.742-25.816-6.665-54.789-4-81z"/><path fill="#199cb9" d="M361 439c-3.49 28.517-4.392 51.161 6 79-3.132-3.493-3.589-3.651-7 1-7.837-22.349-10.429-40.053-9-64 10.685 2.778 3.546-11.82 10-16"/><path fill="#1f87a4" d="M664 445c.229 2.034.831 3.511 1 6-9.985-.382-5.516-4.363-7-9z"/><path fill="#1f5d70" d="M719 509c-14.108 70.119-65.697 131.232-133 155-29.139 10.29-56.297 15.068-87.5 14-5.513-.189-29.31-5.583-32.5-3-25.81-4.868-53.133-13.749-74-30 1.636.944 12.815 7.329 13.5 7 .705-.339 6.296-13.658 7-14 1.604-.781 10.463 7.023 13.5 5 17.048 7.43 35.514 12.628 54 15l13.5 4c11.894.245 23.664.052 35.5-1-.47 2.909 2.74 2.061 4.5 2 58.011-2.024 136.418-47.018 164.5-98.5 20.175-36.986 25.475-79.9 24-121.5 2.586 23.862 1.739 42.445-3 66"/><path fill="#005379" d="M184 460c-.435 4.123-.735 8.855-1 13-2.886 45.211 3.058 88.741 19 131-5.875-2.219-2.976-14.629-9-13.5-5.26-23.514-12.538-46.758-15-71-1.574-15.497.667-31.639-3-46.5.74-6.032.985-11.96 2-18 .343-2.04-.418-4.627 2-6-.279 4.049-1.527 12.483 5 11"/><path fill="#23abcb" d="M177 455c-1.015 6.04-1.26 11.968-2 18-5.068 41.316-4.787 73.89 7 114-5.472-1.808-4.341-9.129-5-11.5-4.123-14.838-8.015-32.289-10-46-.742-5.126.541-11.677 0-17l-28-3.5c-.103-3.209-.965-5.624-1-9l30-1.5-30-1.5v-1c5.535-3.272 29.137 1.973 31-2.5.679-13.028 3.663-25.755 6-38.5z"/><path fill="#0894ba" d="M574 519c-2.343 3.105-5.339 6.147-8 9-18.964 20.332-44.498 26.151-71 22-15.244-2.388-39.556-15.542-50.5-27-1.367-1.432-7.693-8.555-5-10 5.346 5.741 12.07 15.24 19 19 3.726 2.021 9.053 1.812 9.5 2 17.677 7.449 27.749 12.209 48 10 25.071-2.735 48.663-20.46 61-42 2.008-3.505 5.729-9.955 7-13.5 3.192-8.904 2.82-20.65 8-27.5 1.664 21.438-5.4 41.306-18 58"/><path fill="#2a8093" d="M703 461c.58 23.648-5.386 59.219-16 80.5-.998 2.002-2.059 5.249-5 4.5 3.076-8.741 11.87-35.942 10-44 7.71-5.15 4.535-20.352 6-28.5.174-.968 2.799-.028 3-1 .619-2.992-1.963-10.317 2-11.5"/><path fill="#83a2b6" d="M362 695c-47.019-10.548-93.116-29.888-138-48-.746-.301-1.252-.702-2-1-7.887-13.488-14.47-27.341-20-42-15.942-42.259-21.886-85.789-19-131 6.385 10.206 8.025 25.569 12 37.5 29.047 87.18 80.875 150.39 167 184.5"/><path fill="#7be9fb" d="M688 499c-3.101 22.757-11.701 40.867-24 60l-5-2.5 30-65.5c-.149 3.153-.607 5.118-1 8"/><path fill="#8ac3da" d="M138 500c-.01-.993.003-2.007 0-3l30 1.5z"/><path fill="#3e84a3" d="m851.5 497 29.5.5c-6.967 1.713-20.765 2.724-27.5 1.5-1.433-.26-3.502.537-2-2"/><path fill="#399eb4" d="M692 502c1.87 8.058-6.924 35.259-10 44-.26.738 2.613-.124 0 5.5-3.75 8.072-15.202 23.004-21 30.5-3.76-.35-8.071 9.64-10.5 10-2.267.336-5.489-4.051-9.5-3 5.233-6.79 10.839-13.127 16-20 2.846-3.791 4.413-5.976 7-10 12.299-19.133 20.899-37.243 24-60 4.962-.378 3.311.031 4 3"/><path fill="#197b9e" d="M873 595c-7.02 7.562-31.238 11.3-41 18 1.102-9.187 8.545-21.844 11-31.5 6.366-25.036 6.376-50.754 6-76.5l2.5-4 32.5-1c-.24 31.908-3.09 64.232-11 95"/><path fill="#051a28" d="M577 502c-12.337 21.54-35.929 39.265-61 42 4.053-4.277 12.28-3.848 17.5-6 4.949-2.041 8.945-6.131 14-8z"/><path fill="#006b94" d="M182 587c2.132 7.255 7.797 17.955 9 24-8.715.253-16.036-6.943-23.5-10-.373-.153-5.654-.101-8-1-1.596-.612-7.843-6.358-8.5-2-2.48-1.92-3.386-3.442-5-6h1l1.5 1c-6.276-27.318-8.589-55.699-9.5-84l28 3.5c.541 5.323-.742 11.874 0 17 1.985 13.711 5.877 31.162 10 46 .659 2.371-.472 9.692 5 11.5"/><path fill="#0ceafb" d="M134 511c.891 27.555 5.027 54.657 13 81h-1c-11.484-18.201-17.964-60.299-19-82z"/><path fill="#0eedfc" d="M895 511c-1.219 22.233-6.214 62.09-18 81l-1-1c8.79-17.919 11.419-59.572 12-80z"/><path fill="#0e7890" d="M367 518c3.956 4.412 5.865 13.886 9 19-1.523-1.551-4.629 1.964-6 4-4.202-7.566-7.12-13.788-10-22 3.411-4.651 3.868-4.493 7-1"/><path fill="#779fb2" d="M284 519c8.525 32.023 28.06 59.175 55 78h1c14.996 16.815 32.363 36.666 52 48 20.867 16.251 48.19 25.132 74 30-2.161 1.75-6.071 14.925-6 18.5.977 2.032 21.552 5.112 25 5.5l-1 3c-12.759-3.131-21.281-6.306-35-7 .721-2.989-1.504-3.266-3.5-4-85.09-31.285-147.075-77.143-164.5-172Z"/><path fill="#15b8d9" d="M594 585c-.696-7.875-21.246-26.55-22-31.5-.275-1.804.799-3.01 1.5-4.5l18 21 2.5-.5c-.658-4.574-9.937-10.539-9-14 .438-1.62 4.227.01 4-2-.324-2.868-17.77-24.986-23-25.5 2.661-2.853 5.657-5.895 8-9 4.389 8.331 13.637 10.724 19.5 16 .985.887-1.371 1.748-.5 2.5 9.641 8.322 24.441 24.564 36 13 2.063-2.064 14.431-20.003 8-21 6.482 1.57 4.292-5.239 9-6-10.542 26.641-28.838 45.674-52 61.5"/><path fill="#35d5f1" d="M594 585c-22.186 15.159-43.526 24.514-71 27-10.285.931-24.783 1.063-35 0-14.158-1.474-28.084-6.453-41-12 17.025 5.163 33.998 10.031 52 10.5l-4-60.5c26.502 4.151 52.036-1.668 71-22 5.23.514 22.676 22.632 23 25.5.227 2.01-3.562.38-4 2-.937 3.461 8.342 9.426 9 14l-2.5.5-18-21c-.701 1.49-1.775 2.696-1.5 4.5.754 4.95 21.304 23.625 22 31.5"/><path fill="#5eb1c3" d="M529 661c-11.836 1.052-23.606 1.245-35.5 1l-13.5-4c91.068 11.686 178.874-38.203 212-124 1.314 1.034-.536 6.328-1 7.5-26.624 67.316-88.339 112.952-162 119.5"/><path fill="#0e5e72" d="M376 537c17.028 27.778 40.991 50.111 71 63 12.916 5.547 26.842 10.526 41 12-2.13 7.851 4.682 4.583 3 8-50.531-3.766-96.731-35.299-121-79 1.371-2.036 4.477-5.551 6-4"/><path fill="#e9fdfe" d="M657 569c-5.161 6.873-10.767 13.21-16 20-.338.088-.757-.115-1 0-3.691-4.527 16.954-31.863 17-20"/><path fill="#69c9df" d="M661 582c-33.64 43.491-86.727 71.904-142 75 .495-4.331-10.926-1.536-11.5-2-1.007-.813-2.777-9.966-2.5-12 37.582-.82 83.661-13.187 114.5-35 4.452-3.149 19.082-18.33 20.5-19 .243-.115.662.088 1 0 4.011-1.051 7.233 3.336 9.5 3 2.429-.36 6.74-10.35 10.5-10"/><path fill="#4b97a7" d="M373 584c19.947 22.787 55.615 46.247 85 54l-2 12c-30.128-7.893-54.895-21.166-78-42 12.825-8.926.63-13.456-5.5-21-1.257-1.547-3.231-2.798.5-3"/><path fill="#367e91" d="M353 586c18.203 23.576 45.775 45.134 73 57-3.037 2.023-11.896-5.781-13.5-5-.704.342-6.295 13.661-7 14-.685.329-11.864-6.056-13.5-7-19.637-11.334-37.004-31.185-52-48z"/><path fill="#2195b6" d="M877 592c-8.942 14.346-31.757 15.655-45.5 24-1.772-1.851.482-2.849.5-3 9.762-6.7 33.98-10.438 41-18 1.409-1.518 1.983-1.927 3-4z"/><path fill="#1296b8" d="M191 611c.315 1.582 1.43 2.808-.5 4-10.701-7.213-29.705-9.417-39.5-17 .657-4.358 6.904 1.388 8.5 2 2.346.899 7.627.847 8 1 7.464 3.057 14.785 10.253 23.5 10"/><path fill="#0b7e99" d="M556 612c-20.327 7.66-43.419 9.609-65 8 1.682-3.417-5.13-.149-3-8 10.217 1.063 24.715.931 35 0 .255 1.519-.595 5.178.5 6 1.321.992 28.834-4.961 32.5-6"/><path fill="#1479a1" d="M813 633c-14.809 31.683-33.881 61.555-58 87 .039-.081-2.014.796-1.5-1 .623-2.179 6.045-2.506 1-6L710 755c-2.219-1.109-3.115-1.882-5-3 41.168-29.424 80.678-73.328 103-119 1.516-.238 3.697.356 5 0"/><path fill="#5ab7ca" d="M505 643c-.277 2.034 1.493 11.187 2.5 12 .574.464 11.995-2.331 11.5 2-22.719 1.272-41.283-1.311-63-7l2-12c13.617 3.593 32.883 5.308 47 5"/><path fill="#014469" d="M222 646c.748.298 1.254.699 2 1 10.609 17.528 23.519 33.64 37 49l-6-1.5c17.238 22.477 38.616 41.104 60 59.5-3.033 1.684-5.791 2.727-9 4-27.326-23.667-51.93-50.38-72-80.5-6.977-10.471-12.362-21.927-19-32.5 2.312-3.805 3.599-.354 7 1"/><path fill="#427f9c" d="M362 695c9.927 3.932 19.833 7.714 30 11-10.591 5.402-19.854 13.556-29 21l-2-7c4.186-3.474 8.376-6.632 13-9.5-21.441 8.416-35.639 28.276-55 40.5-21.082-16.497-40.35-34.891-58-55-13.481-15.36-26.391-31.472-37-49 44.884 18.112 90.981 37.452 138 48"/><path fill="#103646" d="M586 664c-36.688 17.98-80.374 18.474-120 11 3.19-2.583 26.987 2.811 32.5 3 31.203 1.068 58.361-3.71 87.5-14"/><path fill="#1e2341" d="M306 758c3.209-1.273 5.967-2.316 9-4 1.897-1.053 3.043-2.396 4-3 19.361-12.224 33.559-32.084 55-40.5-4.624 2.868-8.814 6.026-13 9.5-26.602 22.079-48.381 55.211-87.5 53-14.528-.821-36.604-12.505-45.5-24-11.097-14.34-12.115-33.456-2-48.5-1.274-2.191-2.957-.41-4.5.5-5.412 3.193-10.259 12.202-13.5 17.5 3.906 2.32 4.517-5.447 5.5-5.5 1.767-.095.064 14.333.5 17.5 1.809 13.127 14.47 34.405 25 42.5l-10.5 13c-2.43-3.019-5.855-5.272-8.5-8-5.951-6.139-13.932-18.956-15-27.5-1.436-11.489 3.306-19.885 2.5-30.5-16.909 24.264-4.992 51.559 12.5 71.5 17.579 20.04 64.739 41.965 90.5 49.5 1.75.512 11.409 3.466 12.5 1 .888.219 2.099-.207 3 0-.243 2.541 3.852 4.014 3 1 1.389.287 3.246.863 4 1 25.61 4.654 39.026 6.245 64-1 2.006 5.584 7.055.076 7.5 0 1.974-.335 3.37 1.481 6 1 2.719-.497 12.443-3.185 17.5-5l7 3c-59.924 20.817-137.205 8.804-190.5-26-48.845-31.898-73.257-94.967-8.5-123.5-35.329 27.066 3.987 68.369 36.5 71.5 13.251 1.276 21.714-1.325 33.5-6"/><path fill="#1c213f" d="M563 831c6.959-10.312.73-7.049-5.5-13-6.392-6.107-16.899-18.744-18.5-27.5-.268-1.464-.745-5.082 2-4.5 4.204 9.928 23.168 31.9 32.5 36 .934.41 2.839 1.601 2.5-.5-8.138-6.988-13.488-16.22-20-24.5l3-2c1.133 1.667 3.317 3.093 4 4 5.735 7.612 13.953 17.88 22 23 4.672 3.435 10.468 9.428 15.5 12 53.824 27.515 120.485 10.242 171-19 30.922-17.9 63.399-51.946 45-90-.166 8.213 2.571 16.061 1.5 24.5-.695 5.476-6.606 15.578-10 20.5-19.693-1.687 3.967-16.206-1-26-.344-.679-.857-1.257-1-2 3.898-8.404 3.52-21.618 1-30.5l5.5 7.5c4.961-5.118-15.883-24.082-17.5-20.5 8.835 10.497 10.727 23.758 7 36.5-7.49 25.611-41.319 40.215-66 37-36.083-4.7-56.73-41.383-85-60.5 1.388-4.631 40.508 31.638 43 33.5 3.889 2.904 6.92 4.581 11 7 1.885 1.118 2.781 1.891 5 3 2.152 1.076 3.647 2.056 6 3 12.038 4.829 21.007 7.335 34.5 6 32.495-3.215 70.197-44.077 37-72 57.452 23.68 45.525 78.55 5 113-57.186 48.614-164.285 63.532-229.5 26"/><path fill="#043653" d="M261 696c17.65 20.109 36.918 38.503 58 55-.957.604-2.103 1.947-4 3-21.384-18.396-42.762-37.023-60-59.5z"/><path fill="#a0c0d0" d="M566 693v3c-14.907 1.768-45.362 14.971-54.5 15-2.994.009-21.768-7.594-27.5-9l1-3c26.869 3.024 54.938.914 81-6"/><path fill="#1a203e" d="M449 695c13.719.694 22.241 3.869 35 7 5.732 1.406 24.506 9.009 27.5 9 9.138-.029 39.593-13.232 54.5-15 18.393-2.181 40.691-1.066 58 6 25.593 10.447 47.183 39.005 69.5 55l32.5 19c-17.153-5.686-33.611-15.07-48-26-.594-.451-1.648-1.934-3-3-1.204-.949-3.825-1.86-4-2-36.815-29.464-45.786-51.889-102.5-46-.505.052-6.711 1.124-2.5 3-4.203-.059-4.345-2.097-5.5-2-.932.078-3.752 2.967-4 3-9.794 1.293-21.269 2.381-30 7 32.124-7.562 65.473-1.115 91 20 1.871 1.548 8.619 7.007 7.5 10-4.865-2.455-10.389-8.194-15.5-11-22.193-12.185-61.11-22.943-83.5-9-2.881.61-11.884 6.896-13.5 7-4.373.28-9.401-4.943-13.5-6-25.049-15.725-67.867-3.745-91.5 11-2.546 1.588-11.2 11.058-13.5 8 6.711-4.161 13.793-13.25 21.5-18 24.609-15.168 56.358-18.95 84-11-8.06-3.546-22.605-8.457-31.5-9-20.677-5.01-45.425-4.595-65.5 3-23.862 9.028-41.104 31.939-61.5 47-13.371 9.874-23.746 17.272-40 22 25.375-10.773 41.677-30.459 62-47 9.146-7.444 18.409-15.598 29-21 18.958-9.67 35.774-12.073 57-11"/><path fill="#3e4766" d="M806 742c-1.289 2.779-5.586 5.427-6 6-.135-4.509 5.707-9.121 2-13 3.727-12.742 1.835-26.003-7-36.5 1.617-3.582 22.461 15.382 17.5 20.5l-5.5-7.5c2.52 8.882 2.898 22.096-1 30.5"/><path fill="#404b6a" d="M228 749c-9.379 5.846 17.18 20.267 22.5 22 14.222 4.633 29.159 2.721 44 3 1.271.024 2.911-3.215 2.5 2-7.206 1.79-14.647 1.823-22 2.5-2.938 7.938 12.635 3.296 17.5 4.5l-3.5 4c-16.77.472-36.405-3.549-50-14-10.53-8.095-23.191-29.373-25-42.5-.436-3.167 1.267-17.595-.5-17.5-.983.053-1.594 7.82-5.5 5.5 3.241-5.298 8.088-14.307 13.5-17.5 1.543-.91 3.226-2.691 4.5-.5-10.115 15.044-9.097 34.16 2 48.5"/><path fill="#7c8ca5" d="M468 702c-3.625-.221-15.097.674-19.5 1-21.525 1.595-50.821 13.077-57.5 37.5-.127 2.648 2.11.052 3-.5 2.3 3.058 10.954-6.412 13.5-8 23.633-14.745 66.451-26.725 91.5-11-9.261-2.389-20.213-3.905-30-3-.331.031-.671-.035-1 0-1.082-1.794-3.595-2.234-5.5-2-21.51 2.644-74.948 44.899-102.5 56-7.424 2.991-14.703 6.801-23 6.5 6.031-3.772 15.049-7.15 20.5-11.5.228-.182 5.939-4.66 3-5-7.621 7.192-16.963 11.237-26.5 15-14.258-15.875 11.118-11.404 7-25 20.396-15.061 37.638-37.972 61.5-47 20.075-7.595 44.823-8.01 65.5-3"/><path fill="#7989a3" d="M671 745c-5.294 7.47 2.064 11.999 4 2 1.352 1.066 2.406 2.549 3 3-10.598 5.217 16.014 14.535 16 18.5-.002.562-7.106 5.936-5 9.5-8.802-3.312-19.39-9.097-26.5-15-2.477 1.271 5.614 6.746 6 7 2.575 1.697 9.59 3.664 12.5 6.5.22 4.269-19.621-4.913-21-5.5-27.991-11.91-51.811-30.643-78.5-45-.951-.512-6.82-3.979-6.5 0-14.184-9.489-30.02-15.651-46-6-.941.174-2.071-.197-3 0 22.39-13.943 61.307-3.185 83.5 9 5.111 2.806 10.635 8.545 15.5 11 .143.072.972 2.609 2.5 2 4.777-10.56-10.671-22.776-19-28-13.264-8.32-26.847-11.782-42.5-12-4.211-1.876 1.995-2.948 2.5-3 56.714-5.889 65.685 16.536 102.5 46"/><path fill="#6c7c98" d="M566 702c15.653.218 29.236 3.68 42.5 12 8.329 5.224 23.777 17.44 19 28-1.528.609-2.357-1.928-2.5-2 1.119-2.993-5.629-8.452-7.5-10-25.527-21.115-58.876-27.562-91-20 8.731-4.619 20.206-5.707 30-7 .248-.033 3.068-2.922 4-3 1.155-.097 1.297 1.941 5.5 2"/><path fill="#6d7d99" d="M394 740c-.89.552-3.127 3.148-3 .5 6.679-24.423 35.975-35.905 57.5-37.5 4.403-.326 15.875-1.221 19.5-1 8.895.543 23.44 5.454 31.5 9-27.642-7.95-59.391-4.168-84 11-7.707 4.75-14.789 13.839-21.5 18"/><path fill="#1885af" d="M755 720c-5.975 12.404-29.242 27.721-39 38-2.353-.944-3.848-1.924-6-3l44.5-42c5.045 3.494-.377 3.821-1 6-.514 1.796 1.539.919 1.5 1"/><path fill="#2f3959" d="M575 726c6.657 4.454 13.301 5.367 8 13-17.714-13.436-31.184-23.217-54-19 15.98-9.651 31.816-3.489 46 6"/><path fill="#546583" d="M468 718c-9.801 1.043-33.917 12.361-38 21.5-.091.204 3.234.462 2 4-.237.679-13.234 8.529-8 10.5-1.4 1.577-4.57 4.824-4.5 7l8.5-8c-6.499 8.118-7.234 15.064-17 24-9.78 8.949-31.102 21.038-43.5 26-.351.141-8.067 3.48-7.5 1 13.191-6.757 25.705-18.79 34-31l13.5-18c-23.964 21.365-55.343 43.663-89 42l29-14c3.097-4.203 12.217-4.878 12.5-11 27.552-11.101 80.99-53.356 102.5-56 1.905-.234 4.418.206 5.5 2"/><path fill="#3a4a69" d="M468 718c.329-.035.669.031 1 0-6.534 11.023-21.333 13.763-31.5 22-3.315 2.686-10.385 10.492-13.5 14-5.234-1.971 7.763-9.821 8-10.5 1.234-3.538-2.091-3.796-2-4 4.083-9.139 28.199-20.457 38-21.5"/><path fill="#121532" d="M499 721c4.099 1.057 9.127 6.28 13.5 6 1.616-.104 10.619-6.39 13.5-7 .929-.197 2.059.174 3 0 22.816-4.217 36.286 5.564 54 19 1.963 1.489 3.288 3.512 5 5-.25 1.146 3.592 2.476.5 3-4.218.715-21.689-17.794-27.5-10.5 7.343 3.914 15.462 9.061 20.5 15.5l1-2c5.591 4.794 10.183 12.564 11.5 20-9.921-14.444-26.009-26.402-43-31-2.377-.643-17.554-5.034-18-1.5 6.485 4.804 47.579 48.544 47 52-.047.281-3.596 2.188-5.5 1.5-3.632-1.312-16.884-17.086-22.5-19l-9-10.5c4.937 11.384 8.959 23.143 16 33.5l-3 2c-6.481-8.241-12.822-16.333-20-24-1.74-1.859-9.844-12.297-11.5-12-4.462 22.742 10.119 37.882 18 57-17.334-13.773-36.136-32.335-33-56-2.651 8.052-7.649 15.633-10.5 23.5-2.262 6.241-.949 14.181-5 21-1.653 2.782-9.752 10.781-14 9l18-31c-1.229-5.028-1.303-17.409 0-22 1.418-4.998 12.86-15.663 8.5-24.5-3.576 16.094-13.15 25.785-22.5 38-11.855 15.486-24.938 30.957-38 45.5 13.31-4.454 31.102-23.279 37-36.5-.553 26.776-32.504 45.927-55 54-5.057 1.815-14.781 4.503-17.5 5-2.63.481-4.026-1.335-6-1-.445.076-5.494 5.584-7.5 0 17.92-5.199 27.826-9.976 42-22 3.397-2.882 5.945-5.849 9-9 14.329-14.778 26.196-30.991 30.5-51-2.15 3.23-4.351 6.655-6.5 10l-29 22.5c-.746-5.688 5.332-11.106 9-16 10.763-14.362 24.13-27.508 37-40-.541-4.482-16.117 1.987-18 2.5-17.766 4.843-27.034 12.063-39 26-3.937-2.681 1.036-7.93 3-10.5 6.954-9.099 17.034-13.332 26-20-1.928-6.524-30.544 14.431-33 17.5l-8.5 8c-.07-2.176 3.1-5.423 4.5-7 3.115-3.508 10.185-11.314 13.5-14 10.167-8.237 24.966-10.977 31.5-22 9.787-.905 20.739.611 30 3"/><path fill="#424e6c" d="M220 778c2.923 8.673 18.289 21.345 26.5 25 1.285.572 5.832-.576 7 0 1.764.871-1.451 3.001 1 5 3.748 3.056 27.018 5.697 33 7 .558.122 1.43 3.857 2 4 36.159 9.1 84.348-3.385 112-28 3.031-2.698 13.021-10.52 9.5-14 9.766-8.936 10.501-15.882 17-24 2.456-3.069 31.072-24.024 33-17.5-8.966 6.668-19.046 10.901-26 20-1.964 2.57-6.937 7.819-3 10.5-1.939 2.259-12.008 10.463-5 11-8.246 6.669-15.74 14.913-24.5 21-29.484 20.489-59.842 28.412-96 26l24 7-51-8c11.033 11.031 28.668 15.336 43.5 19-1.091 2.466-10.75-.488-12.5-1-25.761-7.535-72.921-29.46-90.5-49.5-17.492-19.941-29.409-47.236-12.5-71.5.806 10.615-3.936 19.011-2.5 30.5 1.068 8.544 9.049 21.361 15 27.5"/><path fill="#52617e" d="M363 727c-20.323 16.541-36.625 36.227-62 47-.498.145-2.936 1.736-4 2 .411-5.215-1.229-1.976-2.5-2-14.841-.279-29.778 1.633-44-3-5.32-1.733-31.879-16.154-22.5-22 8.896 11.495 30.972 23.179 45.5 24 39.119 2.211 60.898-30.921 87.5-53z"/><path fill="#51617f" d="m660 771 44.5 26c-24.076 2.133-48.542-10.819-68-24-3.043-2.062-21.373-18.727-22.5-16.5 5.78 4.11 9.627 10.119 14 15.5 11.465 14.106 21.37 26.901 39 34-3.464.612-11.351-2.596-14.5-4-9.094-4.054-51.471-27.997-50.5-37.5.133-1.297 3.323-1.088 3-3-.102-.602-6.341-9.199-7-10-2.802-3.406-6.922-4.825-10-7.5-1.712-1.488-3.037-3.511-5-5 5.301-7.633-1.343-8.546-8-13-.32-3.979 5.549-.512 6.5 0 26.689 14.357 50.509 33.09 78.5 45"/><path fill="#444e6c" d="M585 822c41.63 26.484 117.068 31.501 158.5 2l-49 7c3.564-5.778 15.503-2.373 20-7-39.584 2.943-64.347-6.016-95.5-28-.192-1.199 1.677-4.917 2.5-5 1.313-.133 16.512 13.526 21 16 32.82 18.09 70.511 15.981 104 7 2.548-.683 22.791-6.184 22.5-7.5-3.643-1.428-14.976 5.287-14.5-1.5 19.957-2.072 42.316-18.784 53.5-35 3.394-4.922 9.305-15.024 10-20.5 1.071-8.439-1.666-16.287-1.5-24.5 18.399 38.054-14.078 72.1-45 90-50.515 29.242-117.176 46.515-171 19-5.032-2.572-10.828-8.565-15.5-12"/><path fill="#2f3959" d="M588 744c3.078 2.675 7.198 4.094 10 7.5.659.801 6.898 9.398 7 10 .323 1.912-2.867 1.703-3 3-.971 9.503 41.406 33.446 50.5 37.5 3.149 1.404 11.036 4.612 14.5 4 2.195.884 4.634 1.414 6.5 3v-9L628 772c-4.373-5.381-8.22-11.39-14-15.5 1.127-2.227 19.457 14.438 22.5 16.5 19.458 13.181 43.924 26.133 68 24L660 771c1.379.587 21.22 9.769 21 5.5-2.91-2.836-9.925-4.803-12.5-6.5-.386-.254-8.477-5.729-6-7 7.11 5.903 17.698 11.688 26.5 15 12.633 4.753 29.477 8.552 43 9 34.549 1.144 58.223-13.274 75-43 4.967 9.794-18.693 24.313 1 26-11.184 16.216-33.543 32.928-53.5 35-.476 6.787 10.857.072 14.5 1.5.291 1.316-19.952 6.817-22.5 7.5-33.489 8.981-71.18 11.09-104-7-4.488-2.474-19.687-16.133-21-16-.823.083-2.692 3.801-2.5 5-7.796-5.501-14.631-11.004-22-17-.73-5.093-.317-5.094-3-9-1.317-7.436-5.909-15.206-11.5-20l-1 2c-5.038-6.439-13.157-11.586-20.5-15.5 5.811-7.294 23.282 11.215 27.5 10.5 3.092-.524-.75-1.854-.5-3"/><path fill="#4f5875" d="M800 748c-18.214 25.192-34.661 26.367-64 26v-2c24.681 3.215 58.51-11.389 66-37 3.707 3.879-2.135 8.491-2 13"/><path fill="#232a4a" d="M472 771c-9.394 14.625-17.463 30.829-32 41.5l.5 2.5 7.5-3c-3.055 3.151-5.603 6.118-9 9-32.24 17.348-69.274 25.434-106 23-.754-.137-2.611-.713-4-1-1.496-.31-2.079-.788-3-1-.901-.207-2.112.219-3 0-14.832-3.664-32.467-7.969-43.5-19l51 8-24-7c36.158 2.412 66.516-5.511 96-26 8.76-6.087 16.254-14.331 24.5-21 1.423-1.151 3.316-3.309 5-3.5-5.23 14.344-18.382 23.598-28 35 2.302 1.938 9.51-2.34 11.5-3.5 23.886-13.924 41.083-42.346 55.5-65 1.883-.513 17.459-6.982 18-2.5-12.87 12.492-26.237 25.638-37 40-3.668 4.894-9.746 10.312-9 16z"/><path fill="#222949" d="M551 739c14.125 21.127 26.033 42.95 46.5 59 1.232.966 20.352 14.675 20.5 9.5.061-2.146-27.541-25.663-27-33 2.161.615 4.152 2.996 6 4.5 7.369 5.996 14.204 11.499 22 17 31.153 21.984 55.916 30.943 95.5 28-4.497 4.627-16.436 1.222-20 7l49-7c-41.432 29.501-116.87 24.484-158.5-2-8.047-5.12-16.265-15.388-22-23 4.913-9.293-10.154-16.604-11-27 5.616 1.914 18.868 17.688 22.5 19 1.904.688 5.453-1.219 5.5-1.5.579-3.456-40.515-47.196-47-52 .446-3.534 15.623.857 18 1.5"/><path fill="#242c4b" d="m536 773 5 13c-2.745-.582-2.268 3.036-2 4.5 1.601 8.756 12.108 21.393 18.5 27.5 6.23 5.951 12.459 2.688 5.5 13-.959-.552-1.762-1.246-3-1-1.42-9.52-1.866 4.891-2.5 5-10.678-5.511-20.849-11.084-30-19L514 802c-.809-1.284-2.077-2.368-2.5-4-8.891 20.007-27.068 31.975-45.5 42.5 4.496 3.631 5.455-1.291 8.5-2.5 11.478-4.559 21.058-11.238 30.5-21.5 1.826-1.985 3.823-6.149 5.5-8.5 2.156-.468 14.973 18.392 17 20 .088.07 1.133-1.656 2-1 4.417 3.34 10.549 7.717 15.5 10l-1 3c-13.171-6.264-23.377-15.771-33.5-26-20.746 27.22-56.274 38.143-89.5 37.5 10.949-4.254 26.303-8.19 35.5-15.5 1.336-1.062 5.695-3.832 4-6-7.238 6.795-16.792 8.975-25.5 12l-7-3c22.496-8.073 54.447-27.224 55-54 .643-1.443 4.277-10.339 1-9 9.35-12.215 18.924-21.906 22.5-38 4.36 8.837-7.082 19.502-8.5 24.5-1.303 4.591-1.229 16.972 0 22l-18 31c4.248 1.781 12.347-6.218 14-9 4.051-6.819 2.738-14.759 5-21 2.851-7.867 7.849-15.448 10.5-23.5-3.136 23.665 15.666 42.227 33 56-7.881-19.118-22.462-34.258-18-57 1.656-.297 9.76 10.141 11.5 12"/><path fill="#515e7c" d="M471 740c-14.417 22.654-31.614 51.076-55.5 65-1.99 1.16-9.198 5.438-11.5 3.5 9.618-11.402 22.77-20.656 28-35-1.684.191-3.577 2.349-5 3.5-7.008-.537 3.061-8.741 5-11 11.966-13.937 21.234-21.157 39-26"/><path fill="#53607f" d="M594 770c2.683 3.906 2.27 3.907 3 9-1.848-1.504-3.839-3.885-6-4.5-.541 7.337 27.061 30.854 27 33-.148 5.175-19.268-8.534-20.5-9.5-20.467-16.05-32.375-37.873-46.5-59 16.991 4.598 33.079 16.556 43 31"/><path fill="#424d6b" d="M807 744c-16.777 29.726-40.451 44.144-75 43 2.112-3.627 6.136-4.154 5-8.5-2.489-1.489-5.255-1.661-8-2.5-.62-3.032 4.408-2.032 7-2 29.339.367 45.786-.808 64-26 .414-.573 4.711-3.221 6-6 .143.743.656 1.321 1 2"/><path fill="#657490" d="M675 747c-1.936 9.999-9.294 5.47-4-2 .175.14 2.796 1.051 4 2"/><path fill="#576582" d="M726 776c.769.255 2.196-.246 3 0 2.745.839 5.511 1.011 8 2.5 1.136 4.346-2.888 4.873-5 8.5-13.523-.448-30.367-4.247-43-9-2.106-3.564 4.998-8.938 5-9.5.014-3.965-26.598-13.283-16-18.5 14.389 10.93 30.847 20.314 48 26"/><path fill="#5e6c88" d="M334 777c-14.693 5.797-29.097 9.552-45 10l3.5-4c-4.865-1.204-20.438 3.438-17.5-4.5 7.353-.677 14.794-.71 22-2.5 1.064-.264 3.502-1.855 4-2 16.254-4.728 26.629-12.126 40-22 4.118 13.596-21.258 9.125-7 25"/><path fill="#303a5a" d="m394 773-27.5 19c-3.35 3.698-28.016 10.778-29 12-.623.773-.839 6.921-.5 7.5 1.041 1.775 20.143-6.036 23-7.5-.567 2.48 7.149-.859 7.5-1 12.398-4.962 33.72-17.051 43.5-26 3.521 3.48-6.469 11.302-9.5 14-27.652 24.615-75.841 37.1-112 28-.57-.143-1.442-3.878-2-4-5.982-1.303-29.252-3.944-33-7-2.451-1.999.764-4.129-1-5-1.168-.576-5.715.572-7 0-8.211-3.655-23.577-16.327-26.5-25 2.645 2.728 6.07 4.981 8.5 8l10.5-13c13.595 10.451 33.23 14.472 50 14 15.903-.448 30.307-4.203 45-10 9.537-3.763 18.879-7.808 26.5-15 2.939.34-2.772 4.818-3 5-5.451 4.35-14.469 7.728-20.5 11.5 8.297.301 15.576-3.509 23-6.5-.283 6.122-9.403 6.797-12.5 11l-29 14c33.657 1.663 65.036-20.635 89-42z"/><path fill="#36405e" d="M552 772c.846 10.396 15.913 17.707 11 27-.683-.907-2.867-2.333-4-4-7.041-10.357-11.063-22.116-16-33.5z"/><path fill="#37405e" d="m448 812-7.5 3-.5-2.5c14.537-10.671 22.606-26.875 32-41.5 2.149-3.345 4.35-6.77 6.5-10-4.304 20.009-16.171 36.222-30.5 51"/><path fill="#1b213f" d="M667 806c-17.63-7.099-27.535-19.894-39-34l45.5 28v9c-1.866-1.586-4.305-2.116-6.5-3"/><path fill="#1f2645" d="M394 773c-8.295 12.21-20.809 24.243-34 31-2.857 1.464-21.959 9.275-23 7.5-.339-.579-.123-6.727.5-7.5.984-1.222 25.65-8.302 29-12z"/><path fill="#3c4766" d="M556 797c6.512 8.28 11.862 17.512 20 24.5.339 2.101-1.566.91-2.5.5-9.332-4.1-28.296-26.072-32.5-36l-5-13c7.178 7.667 13.519 15.759 20 24"/><path fill="#3a4563" d="M483 785c-5.898 13.221-23.69 32.046-37 36.5 13.062-14.543 26.145-30.014 38-45.5 3.277-1.339-.357 7.557-1 9"/><path fill="#424b69" d="M514 802c10.674 16.931 23.669 30.341 43 37.5-1.88 2.572-10.003-1.579-12-2.5-4.951-2.283-11.083-6.66-15.5-10-.867-.656-1.912 1.07-2 1-2.027-1.608-14.844-20.468-17-20-1.677 2.351-3.674 6.515-5.5 8.5-9.442 10.262-19.022 16.941-30.5 21.5-3.045 1.209-4.004 6.131-8.5 2.5 18.432-10.525 36.609-22.493 45.5-42.5.423 1.632 1.691 2.716 2.5 4"/><path fill="#191d3b" d="M560 830c11.11 12.507 28.323 16.571 43.5 22-20.652-.635-40.769-3.092-59.5-12l1-3c1.997.921 10.12 5.072 12 2.5-19.331-7.159-32.326-20.569-43-37.5l13.5 14c9.151 7.916 19.322 13.489 30 19 .634-.109 1.08-14.52 2.5-5"/><path fill="#3e4866" d="M439 821c-14.174 12.024-24.08 16.801-42 22-24.974 7.245-38.39 5.654-64 1 36.726 2.434 73.76-5.652 106-23"/><path fill="#384362" d="M329 843c.852 3.014-3.243 1.541-3-1 .921.212 1.504.69 3 1"/></svg>