<svg xmlns="http://www.w3.org/2000/svg" width="1024" height="1024"><defs><linearGradient id="a" x1="624.872" x2="237.783" y1="343.681" y2="481.825" gradientUnits="userSpaceOnUse"><stop offset="0%" style="stop-color:#4fbdd7"/><stop offset="95.864%" style="stop-color:#91e7f8"/></linearGradient></defs><defs><linearGradient id="b" x1="421.566" x2="613.837" y1="300.03" y2="786.404" gradientUnits="userSpaceOnUse"><stop offset="0%" style="stop-color:#46a6c4"/><stop offset="52.964%" style="stop-color:#2885a3"/><stop offset="61.568%" style="stop-color:#36a8cc"/><stop offset="100%" style="stop-color:#237699"/></linearGradient></defs><defs><linearGradient id="c" x1="276.839" x2="751.557" y1="392.507" y2="611.987" gradientUnits="userSpaceOnUse"><stop offset="21.797%" style="stop-color:#e0f1f6"/><stop offset="100%" style="stop-color:#759caa"/></linearGradient></defs><defs><linearGradient id="d" x1="167.581" x2="211.728" y1="497.965" y2="613.841" gradientUnits="userSpaceOnUse"><stop offset="0%" style="stop-color:#55cae4"/><stop offset="100%" style="stop-color:#247991"/></linearGradient></defs><defs><linearGradient id="e" x1="647.605" x2="382.634" y1="643.535" y2="647.461" gradientUnits="userSpaceOnUse"><stop offset="0%" style="stop-color:#055b78"/><stop offset="100%" style="stop-color:#0b4958"/></linearGradient></defs><defs><linearGradient id="f" x1="869.92" x2="862.078" y1="501.919" y2="567.452" gradientUnits="userSpaceOnUse"><stop offset="0%" style="stop-color:#46c5e1"/><stop offset="100%" style="stop-color:#2d93bb"/></linearGradient></defs><defs><linearGradient id="g" x1="388.695" x2="379.824" y1="459.173" y2="541.698" gradientUnits="userSpaceOnUse"><stop offset="0%" style="stop-color:#0b4553"/><stop offset="100%" style="stop-color:#0984a2"/></linearGradient></defs><defs><linearGradient id="h" x1="698.706" x2="687.182" y1="459.759" y2="540.945" gradientUnits="userSpaceOnUse"><stop offset="0%" style="stop-color:#093a45"/><stop offset="100%" style="stop-color:#0c819d"/></linearGradient></defs><defs><linearGradient id="i" x1="643.955" x2="670.961" y1="497.414" y2="556.538" gradientUnits="userSpaceOnUse"><stop offset="0%" style="stop-color:#0b223a"/><stop offset="100%" style="stop-color:#194c61"/></linearGradient></defs><defs><linearGradient id="j" x1="337.11" x2="362.743" y1="498.73" y2="557.373" gradientUnits="userSpaceOnUse"><stop offset="0%" style="stop-color:#091c40"/><stop offset="100%" style="stop-color:#092e67"/></linearGradient></defs><defs><linearGradient id="k" x1="372.643" x2="287.429" y1="532.167" y2="554.135" gradientUnits="userSpaceOnUse"><stop offset="0%" style="stop-color:#0693b2"/><stop offset="100%" style="stop-color:#135f73"/></linearGradient></defs><defs><linearGradient id="l" x1="662.48" x2="602.107" y1="532.645" y2="561.697" gradientUnits="userSpaceOnUse"><stop offset="0%" style="stop-color:#0597b7"/><stop offset="100%" style="stop-color:#15687e"/></linearGradient></defs><path fill="#165669" d="M196 163c-4.21-.847-12.981-2.113-17-2 2.544-2.063 16.001-.409 17 2"/><path fill="#2e9ab8" d="M880 184c-1.512 1.931.639 5.785 1 8l-9 2c-.259-4.763-1.047-14.924-8-10-.084-4.047-5.301-8.961-1-12.5-2.406-1.004-3.944-3.015-6-4.5-11.133-8.043-29.391-6.991-41 0v-1c21.452-13.297 52.518-5.174 64 18"/><path fill="#54c0dc" d="M179 161c4.019-.113 12.79 1.153 17 2 .089.215-.02.649 0 1 .017.292-2.487 3.456-2 5.5.367 1.541 6.315 7.681 7 13 1.457 11.318-4.89 26.225-14.5 32.5-9.603 6.271-17.797.913-16.5 16.5.679.957 4.7.458 6 .5.146 7.594 1.495 7.449-6 9l-12-2c-35.97-20.926-18.936-76.877 21-78m-15 47c7.822 3.686 19.354-3.334 23-10.5 9.392-18.458-10.339-31.032-23-17.5-13.174-5.356 1.004-10.449 5.5-16-15.181 5.589-25.017 17.324-26.5 33.5-.413 4.506.786 23.5 7.5 23.5 2.044 0 4.663-6.733 5-7 1.01-.801 5.625 2.66 8.5-6"/><path fill="#88e4f2" d="m857 167-22.5-1c-2.223 1.068-5.13 1.51-7.5 2-2.145.444-4.961.137-7.5 1-3.913 1.33-7.602 6.304-11.5 6 2.058-2.757 5.047-6.222 8-8 11.609-6.991 29.867-8.043 41 0"/><path fill="#165669" d="M290 281c-.341.174-2.142 2.965-6 3-10.972-3.825-60.894-59.668-65.5-59-1.916.278-6.747 8.667-8.5 10-4.505 3.425-13.093 6.154-16 9-.099.097-.445-.315-1 1-1.579 3.742 1.106 4.12 0 7-8.527-8.821-22.087-5.488-35-13l12 2c47.982 13.021 74.272-60.051 29-76-1.086-.383-1.617-1.363-3-1-.02-.351.089-.785 0-1 21.739 4.375 29.171 22.365 29 43.5-.027 3.386-3.444 9.748-3 13 .705 5.159 46.324 47.644 53.5 53.5 3.72 3.036 9.563 7.398 14.5 8"/><path fill="#83e1f2" d="M164 180c-6.17 6.595-9.475 23.535 0 28-2.875 8.66-7.49 5.199-8.5 6-.337.267-2.956 7-5 7-6.714 0-7.913-18.994-7.5-23.5 1.483-16.176 11.319-27.911 26.5-33.5-4.496 5.551-18.674 10.644-5.5 16"/><path fill="#3b8eae" d="M199 165c2.687 7.416 9.045 10.759 11 19.5 5.154 23.049-9.156 48.296-34 47.5-1.3-.042-5.321.457-6-.5-1.297-15.587 6.897-10.229 16.5-16.5 9.61-6.275 15.957-21.182 14.5-32.5-.685-5.319-6.633-11.459-7-13-.487-2.044 2.017-5.208 2-5.5 1.383-.363 1.914.617 3 1"/><path fill="#217394" d="M170 241c7.495-1.551 6.146-1.406 6-9 24.844.796 39.154-24.451 34-47.5-1.955-8.741-8.313-12.084-11-19.5 45.272 15.949 18.982 89.021-29 76"/><path fill="#247697" d="M816 166v1c-2.953 1.778-5.942 5.243-8 8-7.616 10.202-7.795 21.597 0 32.5 8.281 11.583 27.161 13.187 39 7.5 1.563 5.17 8.449 6.598 6.5 12 12.872-5.069 19.222-19.72 18.5-33l9-2c10.698 65.614-93.209 66.562-82-2 2.822-11.005 7.616-18.184 17-24"/><path fill="#56cfe9" d="M857 167c2.056 1.485 3.594 3.496 6 4.5-4.301 3.539.916 8.453 1 12.5.076 3.693-.324 5.56-1 9-1.661-7.341-6.54-1.194-11-7-.676-13.481-14.471-16.31-25-11v-7c2.37-.49 5.277-.932 7.5-2z"/><path fill="#46b8d8" d="M827 168v7c-22.509 11.352-6.44 44.355 16.5 28 5.038-3.592 8.817-10.685 8.5-17 4.46 5.806 9.339-.341 11 7-1.6 8.141-8.488 18.391-16 22-11.839 5.687-30.719 4.083-39-7.5-7.795-10.903-7.616-22.298 0-32.5 3.898.304 7.587-4.67 11.5-6 2.539-.863 5.355-.556 7.5-1"/><path fill="#c6f7fd" d="M852 186c.317 6.315-3.462 13.408-8.5 17-22.94 16.355-39.009-16.648-16.5-28 10.529-5.31 24.324-2.481 25 11"/><path fill="#cdf7fd" d="M164 208c-9.475-4.465-6.17-21.405 0-28 12.661-13.532 32.392-.958 23 17.5-3.646 7.166-15.178 14.186-23 10.5"/><path fill="#3b90ad" d="M872 194c.722 13.28-5.628 27.931-18.5 33 1.949-5.402-4.937-6.83-6.5-12 7.512-3.609 14.4-13.859 16-22 .676-3.44 1.076-5.307 1-9 6.953-4.924 7.741 5.237 8 10"/><path fill="#05546c" d="M718 765c15.437-15.831 27.322-33.778 41-51 6.032-7.596 14.087-13.789 20-21.5 4.264-5.561 20.374-35.42 22.5-36.5 2.709-1.376 1.242 2.707 6.5-2 17.08 10.934 44.189-25.472 50-39 18.857-30.599 27.87-73.931 28-110 .103-28.582-6.279-70.116-24-93-2.111-2.726-3.347-4.607-6-7-4.403-3.972-8.556-8.438-14.5-10-25.161-6.61-8.583 14.304-5.5 28.5 9.086 41.844 8.57 84.362 3 126.5-.085.642.089 1.36 0 2-5.631 5.043-7.659 4.818-9-3 .655-4.308.543-8.024 1-12 13.693-119.12-21.645-201.206-126.5-261-105.942-60.413-241.409-65.729-353.5-19 21.368-12.679 46.881-17.29 69.5-25 16.591-.723 33.682-5.997 51-6-.242-6.778 4.482-1.58 5.5-6 87.967-5.072 180.572 14.707 253.5 65 2.667.08 36.546-29.741 41-34 3.71-3.548 26.581-25.395 27.5-27.5 2.167-4.964-3.214-20.967 0-33.5-11.209 68.562 92.698 67.614 82 2-.361-2.215-2.512-6.069-1-8 11.651 23.516-2.314 53.604-27.5 61-3.044.894-12.142.067-15 1-11.294 3.688-47.805 66.695-56.5 79.5 8.827 11.131 18.315 22.013 26 34 2.716 4.236 14.813 30.067 16.5 30.5.775.199 11.382-1.118 16 0 55.874 13.522 53.294 137.987 42.5 180.5-5.665 22.31-34.591 80.567-56.5 89.5-5.941 2.422-18.847 1.436-23 3-3.318 1.249-35.347 49.88-41.5 57.5-12.737 15.775-27.607 31.349-43 44.5m32-468c3.096 2.505 5.892 5.467 9 8 4.399 3.584 8.498 7.499 13 11 1.434 1.115 4.289 6.318 6.5 6 15.721-26.129 36.201-49.371 51.5-75.5-.68-.902-4.791-2.314-5-2.5-3.234-2.874-6.08-4.511-9-7-3.695-3.151-7.952-8.692-12-11-.109-.062-.679-1.707-1.5-2-19.766 23.4-44.883 41.835-65.5 64.5.086.832 11.215 7.056 13 8.5"/><path fill="#086789" d="M477 220c-1.018 4.42-5.742-.778-5.5 6-17.318.003-34.409 5.277-51 6-22.619 7.71-48.132 12.321-69.5 25-64.2 26.764-123.797 72.048-149 139-7.172 19.054-10.305 34.883-13 55l-5 18.5c.709 20.067-.933 40.549-1 61-.003 1.018 4.639 5.747-2 9.5-5.728-49.911-3.139-101.042 14-148.5-9.814-3.723-20.47 6.569-27 13.5-6.639 7.046-7.758 9.769-12 18-1.552 3.012-3.685 5.784-5 9-2.897-3.824-.546.043-4 0 7.418-18.553 16.222-32.12 34.5-41 3.104-1.508 10.717-1.881 13-3 5.361-2.627 12.372-21.999 16.5-28.5 8.527-13.431 18.258-26.247 29-38L193 252c1.106-2.88-1.579-3.258 0-7 15.078 25.616 32.946 50.574 50.5 74 .787-.052 2.927-3.558 3.5-4 7.036-5.431 13.108-12.43 20-18 5.484-4.433 12.326-7.504 17-13 3.858-.035 5.659-2.826 6-3 68.211-34.942 106.429-56.354 187-61"/><path fill="#cfd9dd" d="m804 226-54 71c-1.785-1.444-12.914-7.668-13-8.5 20.617-22.665 45.734-41.1 65.5-64.5.821.293 1.391 1.938 1.5 2"/><path fill="#6e8e9a" d="M284 284c-4.674 5.496-11.516 8.567-17 13l-57-62c1.753-1.333 6.584-9.722 8.5-10 4.606-.668 54.528 55.175 65.5 59"/><path fill="url(#a)" d="M831 537h-1c30.214-244.731-214.372-335.037-417-292-40.693 8.643-82.333 23.723-116.5 48-4.732 3.363-19.725 12.654-16.5 18-9.021 6.771-40.49 39.32-38 50.5 1.966 8.828 18.423 9.499 25.5 8.5 14.866-2.099 91.776-46.984 95.5-62.5 7.298-30.407-28.017-24.127-45-17.5 25.386-20.043 64.029-35.011 96-41 55.321-10.362 167.159-5.947 204 43.5 2.57 3.45 10.784 14.423 7.5 17.5-6.703 6.28-48.289.795-60 1-108.046 1.892-285.641 21.64-350.5 122.5-3.374 5.246-12.081 28.714-13.5 29.5-3.37 1.865-2.507-4.811-2.5-6.5.091-22.193 6.925-49.236 12-71 .164-.703 3.008-4.703 3-5l-2-1c-1.78 5.541-5.904 11.315-8 16.5h-2c25.203-66.952 84.8-112.236 149-139 112.091-46.729 247.558-41.413 353.5 19C809.355 335.794 844.693 417.88 831 537" style="fill:url(#a)"/>/&gt;<path fill="#a5acb1" d="m816 237-57 68c-3.108-2.533-5.904-5.495-9-8l54-71c4.048 2.308 8.305 7.849 12 11"/><path fill="url(#b)" d="M830 537c-27.942 226.328-282.654 346.487-480.5 238C225.335 706.916 149.479 530.881 204 396c2.096-5.185 6.22-10.959 8-16.5l2 1c.008.297-2.836 4.297-3 5-5.075 21.764-11.909 48.807-12 71-.007 1.689-.87 8.365 2.5 6.5 1.419-.786 10.126-24.254 13.5-29.5C279.859 332.64 457.454 312.892 565.5 311c11.711-.205 53.297 5.28 60-1 3.284-3.077-4.93-14.05-7.5-17.5-36.841-49.447-148.679-53.862-204-43.5l-1-4c202.628-43.037 447.214 47.269 417 292M337 356c-37.259 14.622-71.559 36.2-94 70-33.169 49.959-35.135 116.401-7 169 34.63 64.741 99.766 68.748 166.5 74 87.422 6.881 194.819 6.256 281.5-6 102.879-14.547 151.41-126.049 110-217-38.051-83.574-151.815-108.156-235-114-74.41-5.228-151.993-3.473-222 24m-94.5 273c4.181 31.113 55.326 99.53 86 103 23.884 2.702 28.776-26.217 16.5-43.5-13.705-19.294-33.845-19.79-52.5-28.5-17.716-8.272-35.367-17.849-50-31M437 743c2.709 4.642 4.355 9.191 8 13.5 39.219 46.361 122.58 39.191 145-19.5 14.59-24.054 8.472-48.252-23.5-45-25.864 2.631-41.932 10.405-72 8-17.545-1.404-53.2-16.994-65.5 1.5-10.04 15.096.689 28.974 8 41.5" style="fill:url(#b)"/>/&gt;<path fill="#a8aeb4" d="M267 297c-6.892 5.57-12.964 12.569-20 18l-53-71c2.907-2.846 11.495-5.575 16-9z"/><path fill="#638592" d="m825 244-53 72c-4.502-3.501-8.601-7.416-13-11l57-68c2.92 2.489 5.766 4.126 9 7"/><path fill="#d7e0e2" d="M247 315c-.573.442-2.713 3.948-3.5 4-17.554-23.426-35.422-48.384-50.5-74 .555-1.315.901-.903 1-1z"/><path fill="#8da2aa" d="m772 316 53-72c.209.186 4.32 1.598 5 2.5-15.299 26.129-35.779 49.371-51.5 75.5-2.211.318-5.066-4.885-6.5-6"/><path fill="#6dcce7" d="m413 245 1 4c-31.971 5.989-70.614 20.957-96 41-9.532 3.719-29.928 14.941-38 21-3.225-5.346 11.768-14.637 16.5-18 34.167-24.277 75.807-39.357 116.5-48"/><path fill="#eff" d="M280 311c8.072-6.059 28.468-17.281 38-21 16.983-6.627 52.298-12.907 45 17.5-3.724 15.516-80.634 60.401-95.5 62.5-7.077.999-23.534.328-25.5-8.5-2.49-11.18 28.979-43.729 38-50.5"/><path fill="#0a6785" d="M559 332c.669 3.689-4.955 4.985-7.5 5-3.229.02-18.833-2.91-22-3-34.101-.974-66.364.708-98 5-1.13.153-13.269-2.096-13.5 3-27.463 4.103-54.21 10.414-78 20l-3-6c70.007-27.473 147.59-29.228 222-24"/><path fill="#054a5f" d="m794 446-7 1c-48.451-109.393-269.041-119.935-369-105 .231-5.096 12.37-2.847 13.5-3 31.636-4.292 63.899-5.974 98-5 3.167.09 18.771 3.02 22 3 2.545-.015 8.169-1.311 7.5-5 83.185 5.844 196.949 30.426 235 114"/><path fill="url(#c)" d="M787 447c36.963 83.457-1.839 189.948-97 207-74.683 13.382-172.181 12.239-248.5 9-69.734-2.959-162.538-.769-199.5-70-26.899-50.383-24.775-119.509 9-166 20.92-28.796 56.417-51.87 89-65 23.79-9.586 50.537-15.897 78-20 99.959-14.935 320.549-4.393 369 105M619 620c82.893 36.797 169.454-24.796 159.5-114l-3.5 5c-1.622-21.588-10.918-41.23-24-58-19.363-24.823-45.203-38.782-77-41l-28.5-4C538.053 429.052 515.742 574.162 619 620M301 426c-6.6 2.618-6.461-1.039-15.5 5-46.623 31.149-52.831 105.279-23.5 150.5 70.101 108.077 244.195 26.089 204-97l-4 2.5c-21.627-73.32-97.634-86.139-161-61" style="fill:url(#c)"/>/&gt;<path fill="#2a80ae" d="M340 362c-32.583 13.13-68.08 36.204-89 65l-8-1c22.441-33.8 56.741-55.378 94-70z"/><path fill="url(#d)" d="M181 540c4.369 38.07 13.439 82.003 34 114.5-12.524 6.907-29.089-12.264-37-22-25.611-31.518-36.633-73.552-39-113.5 5.131-.153 2.027-12.65 3-16.5.785-3.108 7.228-11.737 10.5-12.5 5.188-1.21 7.789 1.732 10.5 2 2.103.208 3.975.694 6-.5-.262-8.256-.037-16.317 1-24.5 2.476-19.539 5.255-39.715 10-58.5-4.971-1.101-8.292.771-12-3.5 6.53-6.931 17.186-17.223 27-13.5-17.139 47.458-19.728 98.589-14 148.5" style="fill:url(#d)"/>/&gt;<path fill="#299dbe" d="M856 405c-1.826 4.91-8.475 1.357-10 5.5-2.265 6.152 3.835 27.659 5 35.5 5.522 37.178 8.269 66.195 3 104h-15c5.57-42.138 6.086-84.656-3-126.5-3.083-14.196-19.661-35.11 5.5-28.5 5.944 1.562 10.097 6.028 14.5 10"/><path fill="#99e2f2" d="M204 396c-54.521 134.881 21.335 310.916 145.5 379C547.346 883.487 802.058 763.328 830 537h1c-.457 3.976-.345 7.692-1 12-4.462 29.359-10.354 50.785-22 78-12.714 29.71-31.698 61.637-53 86-208.738 238.727-609.73 64.367-566-262 2.695-20.117 5.828-35.946 13-55z"/><path fill="#b7f9fd" d="M170 467c-2.012-7.153-2.609-1.961-8-2 1.41-11.297 6.474-26.424 10-37.5.252-.793 2.284 1.338 3-1 8.173-26.69-15.147.899-19.5 8.5l.5-12c4.242-8.231 5.361-10.954 12-18 3.708 4.271 7.029 2.399 12 3.5-4.745 18.785-7.524 38.961-10 58.5"/><path fill="#4fdbef" d="m862 412 5 14.5c-1.131 4.265-9.585-6.324-14 1-3.45 5.722 1.161 12.014 2 17.5l-4 1c-1.165-7.841-7.265-29.348-5-35.5 1.525-4.143 8.174-.59 10-5.5 2.653 2.393 3.889 4.274 6 7"/><path fill="#d6eaf1" d="M674 412c-43.048-3.002-82.024 17.521-103 55-32.571 58.198-5.633 127.817 56 151l-8 2c-103.258-45.838-80.947-190.948 26.5-212z"/><path fill="#093a44" d="M462 487c34.63 117.405-124.636 190.831-193 95.5-37.734-52.619-22.552-122.908 32-156.5 63.366-25.139 139.373-12.32 161 61m-143-44c4.164.848 12.968.436 15 5-15.898-6.37-41.652-5.608-50 12-14.747 8.981-21.515 29.627-25 46 .739-3.974-.202-11.548 3-16.5-5.926-3.036-8.588-.264-9 6-.047.716 2.06.287 2 1-.735 8.682-2.843 17.228-1 26 3.445-2.767 2.2-10.872 3-15 .165-.849 1.979-.399 2-.5-.483 3.207-1.787 7.995-2 11-6.266 88.192 101.773 133.325 167.5 80 6.909-5.605 27.062-30.484 28.5-38.5.995-5.548-1.46 1.45-4 0 1.221-1.623 2.592-4.613 3-6.5 19.008-87.849-63.596-157.623-144.5-113 4.233 2.705 6.824 2.048 11.5 3m-68.5 74c-1.477 4.976.673 10.036 1 15 1.105-3.545 1.492-12.044-1-15"/><path fill="#08343c" d="M674 412c31.797 2.218 57.637 16.177 77 41l15 29.5c10.871 50.016 1.437 84.569-38 118.5-16.577 14.263-26.345 20.081-49.5 20-.246-.001-4.21-1.326-4.5-2 20.774-2.659 44.032-13.665 59-28 12.043-11.534 23.416-28.53 27-45 17.864-82.101-70.468-150.125-144-107-7.179-1.933-.796 2.194-2.5 3-4.554 2.154-9.468 2.388-15 6-.465.303-9.546 7.746-6.5 9-.794 1.195-2.659 4.74-3 6-6.743 4.447-12.833 14.761-16 22-4.362 1.913-3.567 3.195-8 .5l6-18.5c20.976-37.479 59.952-58.002 103-55"/><path fill="#d5fbfe" d="M886 505c-3.791.313-1.232-5.162-2-6.5-.388-.675-3.417 1.386-4.5.5-6.927-5.666-5.991-11.784-19.5-8.5.522-15.269-2.701-30.467-5-45.5-.839-5.486-5.45-11.778-2-17.5 4.415-7.324 12.869 3.265 14-1l-5-14.5c17.721 22.884 24.103 64.418 24 93"/><path fill="#e0fcfd" d="M162 465c-.214 1.715-.916 2.37-1 4-6.284-.63-13.103 5.081-17 9.5-1.842 2.088-.919 8.875-5 4.5 1.518-16.548 5.707-35.606 12-51 1.315-3.216 3.448-5.988 5-9l-.5 12c4.353-7.601 27.673-35.19 19.5-8.5-.716 2.338-2.748.207-3 1-3.526 11.076-8.59 26.203-10 37.5"/><path fill="#eff9fb" d="M301 426c-54.552 33.592-69.734 103.881-32 156.5 68.364 95.331 227.63 21.905 193-95.5l4-2.5c40.195 123.089-133.899 205.077-204 97-29.331-45.221-23.123-119.351 23.5-150.5 9.039-6.039 8.9-2.382 15.5-5"/><path fill="#198399" d="M760 546c-5.537 4.46-6.945-.966-12-3 6.053-19.302 5.528-38.203-2-57-14.58-36.406-57.127-58.223-95.5-52-5.752.933-26.206 10.289-29 9-1.65-.761 1.079-2.594 0-3-.545-.205-3.742 1.838-6 1-1.156-.429 1.074-1.845.5-2 73.532-43.125 161.864 24.899 144 107"/><path fill="#0c6e8e" d="M251 427c-33.775 46.491-35.899 115.617-9 166l-6 2c-28.135-52.599-26.169-119.041 7-169z"/><path fill="#198da6" d="m452 553-14-3c7.272-17.447 8.887-36.844 4-55-10.082-37.46-50.458-63.335-88.5-62-11.427.401-24.693 4.122-34.5 10-4.676-.952-7.267-.295-11.5-3 80.904-44.623 163.508 25.151 144.5 113"/><path fill="url(#e)" d="M151 432c-6.293 15.394-10.482 34.452-12 51-1.146 12.491-.739 23.536 0 36 2.367 39.948 13.389 81.982 39 113.5 7.911 9.736 24.476 28.907 37 22-20.561-32.497-29.631-76.43-34-114.5 6.639-3.753 1.997-8.482 2-9.5.067-20.451 1.709-40.933 1-61l5-18.5c-43.73 326.367 357.262 500.727 566 262-.189 3.646 1.779 1.046 4 1-13.678 17.222-25.563 35.169-41 51-166.991 171.257-354.659 95.565-480-74.5-2.931-3.977-17.765-28.864-19.5-29.5-3.073-1.127-12.355-.922-18-3-65.795-24.227-75.869-170.056-53.5-226 3.454.043 1.103-3.824 4 0" style="fill:url(#e)"/>/&gt;<path fill="#135462" d="M442 495c-2.464.65-15.396 1.919-16 3.5-.434 1.136 4.339 19.766 4 24-.627 7.826-12.576 33.117-19 40.5-.078.09-1.887.882-2 1 2.289-5.837 7.52-10.766 10-16.5 6.699-15.488 7.204-42.39 2-57-1.614-4.529-6.834-10.195-9-14-.923-1.621 2.921-1.378 2-3-11.386-20.043-43.647-29.938-65.5-26.5-6.413 1.009-7.705 1.256-5.5 6-3.292-1.146-5.552-3.619-9-5-2.032-4.564-10.836-4.152-15-5 9.807-5.878 23.073-9.599 34.5-10 38.042-1.335 78.418 24.54 88.5 62"/><path fill="#114b56" d="m746 486-15 3c-13.966-30.529-39.705-45.495-73.5-42-1.955.202-12.49 1.597-10.5 5-13.385-10.78-44.645-10.581-55 5-3.046-1.254 6.035-8.697 6.5-9 5.532-3.612 10.446-3.846 15-6 1.704-.806-4.679-4.933 2.5-3 .574.155-1.656 1.571-.5 2 2.258.838 5.455-1.205 6-1 1.079.406-1.65 2.239 0 3 2.794 1.289 23.248-8.067 29-9 38.373-6.223 80.92 15.594 95.5 52"/><path fill="#c3e0ea" d="M334 448c3.448 1.381 5.708 3.854 9 5 3.866 8.319 7.688 8.307 9 20 3.327 29.665-32.458 39.939-55 28-1.732-1.639-3.944-1.98-5-3-8.704-13.036-15.518-22.143-8-38 8.348-17.608 34.102-18.37 50-12"/><path fill="#b5d5e2" d="M647 452c5.227 4.21 6.592 10.793 10 16 5.935 31.666-27.316 45.529-53 34-1.765-2.004-4.762-2.796-6-4-7.914-10.43-12.645-21.533-9-35 .341-1.26 2.206-4.805 3-6 10.355-15.581 41.615-15.78 55-5"/><path fill="url(#f)" d="M886 505c-.13 36.069-9.143 79.401-28 110 3.362-7.826 8.089-26.07 3-33.5-2.134-3.115-6.835-5.626-10.5-4.5-3.588 1.102.247 8.19-4.5 5.5.477-3.604 2.274-6.138 3-9.5 1.629-7.548 3.936-15.365 5-23 5.269-37.805 2.522-66.822-3-104l4-1c2.299 15.033 5.522 30.231 5 45.5 13.509-3.284 12.573 2.834 19.5 8.5 1.083.886 4.112-1.175 4.5-.5.768 1.338-1.791 6.813 2 6.5" style="fill:url(#f)"/>/&gt;<path fill="#01374f" d="M794 446c41.41 90.951-7.121 202.453-110 217-1.239-7.448 8.014-1.742 6-9 95.161-17.052 133.963-123.543 97-207z"/><path fill="url(#g)" d="M409 564c-3.277 3.42-4.79 1.832-5 2 .07-5.05-2.671-11.234-8-13 1.054-5.296-2.313-3.959-5-7 12.851-24.913 5.008-48.795-16.5-65l-22.5-8c-1.312-11.693-5.134-11.681-9-20-2.205-4.744-.913-4.991 5.5-6 21.853-3.438 54.114 6.457 65.5 26.5.921 1.622-2.923 1.379-2 3 2.166 3.805 7.386 9.471 9 14 5.204 14.61 4.699 41.512-2 57-2.48 5.734-7.711 10.663-10 16.5" style="fill:url(#g)"/>/&gt;<path fill="url(#h)" d="M731 489c.573 11.48 1.21 23.01 5 31.5.076 1.323-6.139 20.398-7 22.5l-9 17c-1.301 1.726-2.863 3.172-4 5-1.932.075-2.926 1.449-5 1 .792-8.495-7.055-14.901-15-15 19.145-28.86 5.492-64.91-26.5-76-9.13-3.165-4.687 4.94-12.5-7-3.408-5.207-4.773-11.79-10-16-1.99-3.403 8.545-4.798 10.5-5 33.795-3.495 59.534 11.471 73.5 42" style="fill:url(#h)"/>/&gt;<path fill="#072b31" d="M751 453c13.082 16.77 22.378 36.412 24 58 2.783 37.031-13.17 69.665-42 92 .131-4.733-5.773 4.87-5-2 39.437-33.931 48.871-68.484 38-118.5z"/><path fill="#1a94ae" d="M284 460c-7.518 15.857-.704 24.964 8 38-5.682-5.486-9.973-8.36-12.5-17-.614-.062-5.998 9.313-6.5 10.5-1.766 4.178-5.964 22.352-6 26.5h-10c.213-3.005 1.517-7.793 2-11 .066-.319-.06-.678 0-1 3.485-16.373 10.253-37.019 25-46"/><path fill="#6ddff2" d="M170 467c-1.037 8.183-1.262 16.244-1 24.5-2.025 1.194-3.897.708-6 .5-.122-7.746-2.407-15.103-2-23 .084-1.63.786-2.285 1-4 5.391.039 5.988-5.153 8 2"/><path fill="#1b94ae" d="M589 463c-3.645 13.467 1.086 24.57 9 35-4.819-4.683-11.361-7.699-11.5-16-4.667 7.223-8.095 14.498-9.5 23-2.849 5.212-5.342 1.846-10 2 1.21-7.561 2.93-14.982 6-22 3.167-7.239 9.257-17.553 16-22"/><path fill="#05364b" d="M573 485c-3.07 7.018-4.79 14.439-6 22-10.654 66.588 39.202 120.678 107 112 .29.674 4.254 1.999 4.5 2 23.155.081 32.923-5.737 49.5-20-.773 6.87 5.131-2.733 5 2-31.915 24.725-68.038 29.279-106 15-61.633-23.183-88.571-92.802-56-151l-6 18.5c4.433 2.695 3.638 1.413 8-.5"/><path fill="url(#i)" d="M696 551c-.43.648-10.361 10.557-11 11-33.086 22.914-78.987.523-81-38.5-.448-8.677 5.712-15.016 0-21.5 25.684 11.529 58.935-2.334 53-34 7.813 11.94 3.37 3.835 12.5 7 31.992 11.09 45.645 47.14 26.5 76" style="fill:url(#i)"/>/&gt;<path fill="#b9f3fa" d="M161 469c-.407 7.897 1.878 15.254 2 23-2.711-.268-5.312-3.21-10.5-2-3.272.763-9.715 9.392-10.5 12.5-.973 3.85 2.131 16.347-3 16.5-.739-12.464-1.146-23.509 0-36 4.081 4.375 3.158-2.412 5-4.5 3.897-4.419 10.716-10.13 17-9.5"/><path fill="url(#j)" d="M391 546c-1.243 2.409-2.843 4.554-4 7-3.316 1.37-6.87 7.745-9 9-38.479 22.678-83.695-2.021-80-46.5.735-8.845 7.991-5.991-1-14.5 22.542 11.939 58.327 1.665 55-28l22.5 8c21.508 16.205 29.351 40.087 16.5 65" style="fill:url(#j)"/>/&gt;<path fill="url(#k)" d="M292 498c1.056 1.02 3.268 1.361 5 3 8.991 8.509 1.735 5.655 1 14.5-3.695 44.479 41.521 69.178 80 46.5.433 9.646 10.443 15.764 19 12 1.523 5.1-.412 10.474 4 14-14.387 13.369-44.435 16.141-63.5 13-38.817-6.396-70.839-43.488-70.5-83 .036-4.148 4.234-22.322 6-26.5.502-1.187 5.886-10.562 6.5-10.5 2.527 8.64 6.818 11.514 12.5 17" style="fill:url(#k)"/>/&gt;<path fill="url(#l)" d="M598 498c1.238 1.204 4.235 1.996 6 4 5.712 6.484-.448 12.823 0 21.5 2.013 39.023 47.914 61.414 81 38.5-.188 9.094 10.59 15.085 18 13 1.437 2.653 2.185 12.24 4 14-61.651 37.153-142.339-9.326-130-84 1.405-8.502 4.833-15.777 9.5-23 .139 8.301 6.681 11.317 11.5 16" style="fill:url(#l)"/>/&gt;<path fill="#126f87" d="M746 486c7.528 18.797 8.053 37.698 2 57-3.137 10.004-11.373 22.824-18 31-3.086-1.492-10.838-9.122-14-9 1.137-1.828 2.699-3.274 4-5 4.076-5.407 6.458-10.797 9-17 .861-2.102 7.076-21.177 7-22.5-3.79-8.49-4.427-20.02-5-31.5z"/><path fill="#064559" d="M259 506c-.06.322.066.681 0 1-.021.101-1.835-.349-2 .5-.8 4.128.445 12.233-3 15-1.843-8.772.265-17.318 1-26 .06-.713-2.047-.284-2-1 .412-6.264 3.074-9.036 9-6-3.202 4.952-2.261 12.526-3 16.5"/><path fill="#107b96" d="M442 495c4.887 18.156 3.272 37.553-4 55-3.96 9.5-12.414 16.214-16 23l-11-10c6.424-7.383 18.373-32.674 19-40.5.339-4.234-4.434-22.864-4-24 .604-1.581 13.536-2.85 16-3.5"/><path fill="#1bb3d3" d="M707 589c.505.49 12.812 4.151 13.5 4 .329-.072 2.277-3.411 4.5-5 1.154-.825 2.94-1.107 4-2l4 5c-14.968 14.335-38.226 25.341-59 28-67.798 8.678-117.654-45.412-107-112 4.658-.154 7.151 3.212 10-2-12.339 74.674 68.349 121.153 130 84"/><path fill="#94b8c6" d="m619 620 8-2c37.962 14.279 74.085 9.725 106-15 28.83-22.335 44.783-54.969 42-92l3.5-5c9.954 89.204-76.607 150.797-159.5 114"/><path fill="#1e7e91" d="M250.5 517c2.492 2.956 2.105 11.455 1 15-.327-4.964-2.477-10.024-1-15"/><path fill="#18b2d2" d="M267 518c-.339 39.512 31.683 76.604 70.5 83 19.065 3.141 49.113.369 63.5-13 3.093 2.472 16.796 8.602 16 0 3.715 2.143 2.693-1.965 3-4 .53-3.512-.14-6.95 2-11 3.586-6.786 12.04-13.5 16-23l14 3c-.408 1.887-1.779 4.877-3 6.5 2.54 1.45 4.995-5.548 4 0-1.438 8.016-21.591 32.895-28.5 38.5-65.727 53.325-173.766 8.192-167.5-80z"/><path fill="#0b5e75" d="M729 543c-2.542 6.203-4.924 11.593-9 17z"/><path fill="#16a1c1" d="M760 546c-3.584 16.47-14.957 33.466-27 45l-4-5c.208-.175 1.901.37 2-.5-1.605-1.191-3.088-3.896-5-4.5-.787-3.708 1.676-4.133 4-7 6.627-8.176 14.863-20.996 18-31 5.055 2.034 6.463 7.46 12 3"/><path fill="#13afce" d="M396 553c-3.118-1.033-6.018-1.233-9 0 1.157-2.446 2.757-4.591 4-7 2.687 3.041 6.054 1.704 5 7"/><path fill="#023e58" d="M839 552c-.869 6.258-1.816 12.8-3 19-5.018 26.267-11.875 50.152-24 74l-6-1.5c-.939-.705 9.716-16.612 2-16.5 11.646-27.215 17.538-48.641 22-78 1.341 7.818 3.369 8.043 9 3"/><path fill="#1d77a8" d="M854 550c-1.064 7.635-3.371 15.452-5 23l-13-2c1.184-6.2 2.131-12.742 3-19 .089-.64-.085-1.358 0-2z"/><path fill="#f7fefe" d="M711 566c-.281 3.013-4.821 8.106-8 9-7.41 2.085-18.188-3.906-18-13 .639-.443 10.57-10.352 11-11 7.945.099 15.792 6.505 15 15"/><path fill="#fbfefe" d="M396 553c5.329 1.766 8.07 7.95 8 13-1.124.899-.688 5.223-7 8-8.557 3.764-18.567-2.354-19-12 2.13-1.255 5.684-7.63 9-9 2.982-1.233 5.882-1.033 9 0"/><path fill="#0ab6ee" d="M422 573c-2.14 4.05-1.47 7.488-2 11-1.515-2.368-3.816-5.758-6-2.5-.333 1.751 2.967 6.144 3 6.5.796 8.602-12.907 2.472-16 0-4.412-3.526-2.477-8.9-4-14 6.312-2.777 5.876-7.101 7-8 .21-.168 1.723 1.42 5-2 .113-.118 1.922-.91 2-1z"/><path fill="#0bb0e9" d="M716 565c3.162-.122 10.914 7.508 14 9-2.324 2.867-4.787 3.292-4 7-1.601-.505-1.317-1.68-3 .5l2 6.5c-2.223 1.589-4.171 4.928-4.5 5-.688.151-12.995-3.51-13.5-4-1.815-1.76-2.563-11.347-4-14 3.179-.894 7.719-5.987 8-9 2.074.449 3.068-.925 5-1"/><path fill="#12588e" d="M849 573c-.726 3.362-2.523 5.896-3 9.5 4.747 2.69.912-4.398 4.5-5.5 3.665-1.126 8.366 1.385 10.5 4.5 5.089 7.43.362 25.674-3 33.5-5.811 13.528-32.92 49.934-50 39 5.074-4.542 2.421-5.895 4-9 12.125-23.848 18.982-47.733 24-74z"/><path fill="#e8f9fc" d="M420 584c-.307 2.035.715 6.143-3 4-.033-.356-3.333-4.749-3-6.5 2.184-3.258 4.485.132 6 2.5"/><path fill="#f1f9f8" d="M726 581c1.912.604 3.395 3.309 5 4.5-.099.87-1.792.325-2 .5-1.06.893-2.846 1.175-4 2l-2-6.5c1.683-2.18 1.399-1.005 3-.5"/><path fill="#054a60" d="M242 593c36.962 69.231 129.766 67.041 199.5 70 76.319 3.239 173.817 4.382 248.5-9 2.014 7.258-7.239 1.552-6 9-86.681 12.256-194.078 12.881-281.5 6-66.734-5.252-131.87-9.259-166.5-74z"/><path fill="#064e6c" d="M812 645c-1.579 3.105 1.074 4.458-4 9-5.258 4.707-3.791.624-6.5 2-2.126 1.08-18.236 30.939-22.5 36.5-5.913 7.711-13.968 13.904-20 21.5-2.221.046-4.189 2.646-4-1 21.302-24.363 40.286-56.29 53-86 7.716-.112-2.939 15.795-2 16.5z"/><path fill="#cce9f2" d="M242.5 629c14.633 13.151 32.284 22.728 50 31 18.655 8.71 38.795 9.206 52.5 28.5 12.276 17.283 7.384 46.202-16.5 43.5-30.674-3.47-81.819-71.887-86-103"/><path fill="#121c1e" d="M590 737c-4.59 7.567-11.345 13.301-18 19 .109-1.633-1.359-6.836-2-8 11.167-7.769 9.968-11.112-.5-19-17.674-13.318-38.098-10.233-57.5-9-8.985.571-11.041-3.104-18.5-4-17.866-2.147-39.957 7.939-48.5 24-14.184-6.505 3.003 11.996 7 15v2c-5.546-4.427-10.399-8.597-15-14-7.311-12.526-18.04-26.404-8-41.5 12.3-18.494 47.955-2.904 65.5-1.5 30.068 2.405 46.136-5.369 72-8 31.972-3.252 38.09 20.946 23.5 45"/><path fill="#4f4d45" d="M512 720c-1.327 3.497-1.467 9.512 2 12-.792.669-2.267 3.962-2.5 4-.618.1-6.177-5.441-11-6-13.824-1.603-39.997 6.592-45.5 21-2.254-2.361-8.184-10.167-10-11 8.543-16.061 30.634-26.147 48.5-24 7.459.896 9.515 4.571 18.5 4"/><path fill="#454137" d="M570 748c-11.357-20.634-35.662-33.178-56-16-3.467-2.488-3.327-8.503-2-12 19.402-1.233 39.826-4.318 57.5 9 10.468 7.888 11.667 11.231.5 19"/><path fill="#5f6059" d="M570 748c.641 1.164 2.109 6.367 2 8-36.261 31.056-82.917 30.601-120 1v-2c1.502 1.129 13.722 10.408 14 5.5-4.385-2.759-7.465-5.797-11-9.5 5.503-14.408 31.676-22.603 45.5-21 4.823.559 10.382 6.1 11 6 .233-.038 1.708-3.331 2.5-4 20.338-17.178 44.643-4.634 56 16"/><path fill="#9ae4f2" d="M437 743c4.601 5.403 9.454 9.573 15 14 37.083 29.601 83.739 30.056 120-1 6.655-5.699 13.41-11.433 18-19-22.42 58.691-105.781 65.861-145 19.5-3.645-4.309-5.291-8.858-8-13.5"/><path fill="#2c2c28" d="M445 740c1.816.833 7.746 8.639 10 11 3.535 3.703 6.615 6.741 11 9.5-.278 4.908-12.498-4.371-14-5.5-3.997-3.004-21.184-21.505-7-15"/></svg>