<svg xmlns="http://www.w3.org/2000/svg" width="1024" height="1024"><defs><linearGradient id="a" x1="217.785" x2="783.502" y1="312.705" y2="691.817" gradientUnits="userSpaceOnUse"><stop offset="0%" style="stop-color:#fdfeff"/><stop offset="20.411%" style="stop-color:#b1cad5"/><stop offset="100%" style="stop-color:#668694"/></linearGradient></defs><defs><linearGradient id="b" x1="688.676" x2="841.505" y1="565.024" y2="701.656" gradientUnits="userSpaceOnUse"><stop offset="0%" style="stop-color:#517685"/><stop offset="100%" style="stop-color:#3c6172"/></linearGradient></defs><defs><linearGradient id="c" x1="772.885" x2="252.586" y1="421.362" y2="532.325" gradientUnits="userSpaceOnUse"><stop offset="0%" style="stop-color:#e8f6fb"/><stop offset="100%" style="stop-color:#8bc9e2"/></linearGradient></defs><defs><linearGradient id="d" x1="611.63" x2="394.891" y1="370.089" y2="532.771" gradientUnits="userSpaceOnUse"><stop offset="0%" style="stop-color:#074a6d"/><stop offset="100%" style="stop-color:#1ea4c9"/></linearGradient></defs><defs><linearGradient id="e" x1="450.189" x2="575.002" y1="420.872" y2="484.29" gradientUnits="userSpaceOnUse"><stop offset="0%" style="stop-color:#0b2e45"/><stop offset="100%" style="stop-color:#204c62"/></linearGradient></defs><path fill="#041626" d="M827 311c-28.156-68.245-74.798-120.846-139-157-205.614-115.787-450.285-11.584-511 215.5-61.429 229.752 5.253 470.531 258 526.5 177.313 39.265 362.574-51.783 413-230.5 27.15-96.224 17.75-256.564-19-349.5 5.516 13.849 11.42 27.226 16 41.5 2.4 7.481 8.951 40.839 11 44 1.148 1.771 10.427 3.608 13.5 5.5 26.034 16.025 41.697 36.046 47.5 66.5 8.281 43.455 12.972 152.85-30.5 179.5-8.98 5.505-18.608 4.961-25 7-1.252.399-11.038 4.09-11.5 4.5-1.501 1.334-10.773 32.696-13 38-13.285 31.645-30.941 60.227-53 86.5-133.395 158.88-403.579 156.736-540 3-33.61-37.876-57.154-77.992-70-127.5-1.61-2.16-5.843.314-8.5-.5-8.719-2.671-24.984-6.983-33-12-43.94-27.499-40.25-173.393-16.5-212.5 9.29-15.298 33.601-34.685 51-38C196.257 261.125 286.273 134.605 435.5 111 614.482 82.689 756.982 141.26 827 311m-665 97c-6.595.951-15.185 7.979-20 12.5-.631 19.989-4.289 39.642-6 59.5-2.549 29.587-4.296 59.126-3 89 .363 8.36 1.245 16.681 2 25 1.211 13.352 3.214 37.3 7 49.5 3.052 9.835 5.84 11.674 16 14-11.934-18-14.007-38.57-16-59.5-1.067-11.211-1.663-22.736-2-34-.348-11.649-.106-23.353 0-35h2c-1.049 23.565.365 116.191 19 130.5 2.02 1.551 9.649 3.494 11 1 1.382-2.552-9.976-49.139-11-57-4.861-37.325-5.088-79.372-3-117 .574-10.34 9.206-75.222 7-78.5-2.371-2.093-2.852-.021-3 0m697 2c4.641 83.543 14.055 169.266-8 251.5.735 1.195 6.39-.907 7.5-1.5 19.883-10.619 20.992-95.549 21.5-117 .184-7.754.043-15.258 0-23h2c.533 15.002.621 28.981 0 44-1.312 31.744-2.678 65.198-18 93.5.254.563 11.046-4.081 11.5-4.5 5.004-4.618 14.648-72.777 12.5-81 2.831-31.083 1.074-62.027-2-93-1.937-19.52-6.614-38.764-7-58.5-2.768-3.227-16.705-14.129-20-10.5m28 50c2.729 21.394 5.389 43.415 6 65 .467 16.487.154 35.566-1 52-1.753 24.966-5.844 49.541-13 73.5 1.097 5.752 19.707-12.126 21-14 1.698-2.46 2.717-5.781 4-8.5 4.107-8.701 10.487-28.69 11-38 5.133-40.099 6.079-85.626-4-125-5.017-19.6-12.325-32.568-29.5-44 .536 13.127 3.848 26.048 5.5 39M105 583c.227 10.579 8.246 37.126 13 47 4.865 10.104 12.972 18.384 24 21.5-7.11-24.503-10.352-50.041-12-75.5-1.175-18.162-1.644-36.799-1-55 .703-19.851 2.882-40.249 5-60 .524-4.882 6.49-37.468 4.5-39-46.233 32.581-34.533 111.14-33.5 161"/><path fill="url(#a)" d="M688 154c5.204 7.608 14.453 11.79 21.5 18 78.677 69.34 129.281 199.862 132.5 303.5 2.84 91.431-17.317 205.063-88 268.5-22.305-7.498-41.435 17.914-37 39-62.788 61.03-141.744 100.07-229.5 109-17.284 1.759-35.977.313-52.5 4-252.747-55.969-319.429-296.748-258-526.5C237.715 142.416 482.386 38.213 688 154M251 329c-69.074 103.363-78.162 288.45 32 368 75.205 57.228 186.07 71.82 278.5 63 58.444-5.577 123.995-23.288 171.5-58 31.873-21.068 36.61-37.828 60-62 2.643-2.732 11.228-11.335 9.5-4 6.079-11.165 11.403-23.674 12.5-36.5l-4-.5c30.318-96.103 5.396-227.44-62-303-125.285-152.609-395.143-137.275-498 33m-22.5 330c21.081 39.697 58.907 70.263 100 88 6.898 2.977 25.608 10.956 32 12 1.87.306 3.329 1.364 4.5-.5-52.318-24.309-102.512-51.154-136.5-99.5m537 36c-92.142 90.316-266.992 107.159-386 70-4.262-1.331-8.456-4.815-9-5-1.296-.44-3.738 3.18-3-1l-2.5 3.5c104.723 35.276 238.07 35.095 337.5-16.5 12.864-6.675 58.077-36.797 63.5-48.5.618-1.333 1.655-.718-.5-2.5m-489 48c-24.835 1.495-32.843 41.819-12 55 37.934 23.989 52.991-57.467 12-55" style="fill:url(#a)"/>/&gt;<path fill="url(#b)" d="M827 311c.656 1.59 1.36 3.394 2 5 36.75 92.936 46.15 253.276 19 349.5C797.574 844.217 612.313 935.265 435 896c16.523-3.687 35.216-2.241 52.5-4 87.756-8.93 166.712-47.97 229.5-109 6.984 33.204 58.726 24.277 53-17.5-.945-6.895-9.278-19.24-16-21.5 70.683-63.437 90.84-177.069 88-268.5-3.219-103.638-53.823-234.16-132.5-303.5-7.047-6.21-16.296-10.392-21.5-18 64.202 36.154 110.844 88.755 139 157" style="fill:url(#b)"/>/&gt;<path fill="#041222" d="M749 296c-133.928-150.151-385.771-134.941-498 33 102.857-170.275 372.715-185.609 498-33"/><path fill="#164a66" d="M749 296c67.396 75.56 92.318 206.897 62 303-4.496 14.251-11.42 27.665-18 41-23.39 24.172-28.127 40.932-60 62-116.842 77.234-335.716 77.527-450-5-110.162-79.55-101.074-264.637-32-368 112.229-167.941 364.072-183.151 498-33m-367-63c-9.938 4.332-19.619 9.614-29 15-15.151 8.699-27.142 17.134-40 29-11.711 10.808-25.21 25.394-35 38-57.357 73.858-77.944 197.608-45 285.5 31.469 83.957 117.641 122.582 201 135.5 33.71 5.224 66.941 6.596 101 5 199.94-9.367 316.768-124.245 258-331a307 307 0 0 0-22-56c-16.251-31.833-39.121-59.596-66-83-75.611-65.834-188.076-82.426-283.5-55-12.564 3.611-29.206 9.308-39.5 17"/><path fill="#041626" d="M705 271c-90.186-72.514-217.86-83.825-323-38 10.294-7.692 26.936-13.389 39.5-17 95.424-27.426 207.889-10.834 283.5 55"/><path fill="#9cbecb" d="M705 271c26.879 23.404 49.749 51.167 66 83l-12 8c-2.891-4.77-29.764-44.825-34.5-42-2.146 1.606 2.335 6.171 3.5 8-50.586-59.675-123.427-88.403-201-90 .437-3.002-2.676-1.947-4.5-2-82.148-2.368-169.038 33.848-226.5 92-1.42-2.239-12.466-15.839-13.5-16-.492-.077-2.574 3.779-4.5 3 9.79-12.606 23.289-27.192 35-38l40-29c9.381-5.386 19.062-10.668 29-15 105.14-45.825 232.814-34.514 323 38"/><path fill="#e8f6fa" d="M527 238c-27.367-.563-54.807 1.873-81 10-66.199 13.877-145.127 69.725-181 127h-5c9.24-15.839 23.105-33.95 36-47 57.462-58.152 144.352-94.368 226.5-92 1.824.053 4.937-1.002 4.5 2"/><path fill="#021627" d="M527 238c77.573 1.597 150.414 30.325 201 90 3.062 4.808 6.616 9.421 10 14-10.505-9.251-19.764-19.984-30.5-29-71.832-60.326-169.797-84.224-261.5-65 26.193-8.127 53.633-10.563 81-10"/><path fill="#41a0bf" d="M738 342c9.48 12.828 18.171 22.304 26 37 4.05 7.602 8.888 16.467 10.5 25-85.427-122.062-235.37-180.657-377-118-63.3 28.004-110.583 74.842-152 129-1.384-1.21.208-1.833.5-3 2.634-10.51 13.05-27.5 19-37 35.873-57.275 114.801-113.123 181-127 91.703-19.224 189.668 4.674 261.5 65 10.736 9.016 19.995 19.749 30.5 29"/><path fill="#05192e" d="m353 248-40 29c12.858-11.866 24.849-20.301 40-29"/><path fill="url(#c)" d="m764 379 2-4c7.952 15.377 12.833 25.949 17 43 28.698 117.433-36.389 216.085-146 255-54.233 19.254-124.986 24.717-182 17-137.405-18.598-261.39-132.054-211-280l2 2c-.292 1.167-1.884 1.79-.5 3 41.417-54.158 88.7-100.996 152-129 141.63-62.657 291.573-4.062 377 118-1.612-8.533-6.45-17.398-10.5-25m-301-97c-60.441 13.316-114.762 72.019-126 132.5-21.571 116.088 71.322 219.24 189 208.5 104.119-9.503 175.855-107.731 155-210-5.881-28.838-17.857-52.139-37-74l-18-18c-26.042-23.143-56.088-38.171-91-43-24.081-3.331-48.657-3.15-72 4" style="fill:url(#c)"/>/&gt;<path fill="#073b5a" d="M535 278c-10.005 1.94-20.498-1.262-30.5-1-12.613.331-29.226 2.296-41.5 5 23.343-7.15 47.919-7.331 72-4"/><path fill="#106789" d="M535 278c34.912 4.829 64.958 19.857 91 43 4.827 4.289 13.78 13.181 18 18 19.143 21.861 31.119 45.162 37 74-1.304 13.871 2.458 27.477 2 41.5-2.453 75.036-53.74 137.166-123.5 160.5l-33.5 8c-117.678 10.74-210.571-92.412-189-208.5 11.238-60.481 65.559-119.184 126-132.5 12.274-2.704 28.887-4.669 41.5-5 10.002-.262 20.495 2.94 30.5 1m-164 84c-20.872 32.397-29.22 68.343-25 107 16.996 155.706 229.985 197.45 307 60 28.617-51.074 29.727-121.112-7-168-3.139-12.983-11.689-23.001-24-28-23.483-26.144-63.157-42.139-98-45-61.9-5.082-119.445 21.918-153 74"/><path fill="#049ac5" d="m524 288-6 11c-46.81-2.444-90.881 14.682-123 48.5-2.851 3.001-14.236 20.27-15.5 20.5-.512.093-7.424-5.024-8.5-6 33.555-52.082 91.1-79.082 153-74"/><path fill="#017ca9" d="M622 333c-6.413-2.604-15.124-4.905-22-5-23.171-17.284-53.083-27.49-82-29l6-11c34.843 2.861 74.517 18.856 98 45"/><path fill="url(#d)" d="M518 299c28.917 1.51 58.829 11.716 82 29-20.86-.288-38.997 11.253-46 31-33.348-16.512-73.12-16.773-105 3-27.041 1.044-52.798 33.467-47 59.5 1.436 6.448 15.39 12.862 21 13.5l-1 1c-15.654-12.31-18.313 18.984-2 15 .333 21.2 9.406 40.983 23 57 23.971 28.243 71.546 41.593 104 21 13.592-6.067 24.103-15.268 33-27 3.156-4.161 6.781-8.212 9-13 4.887 3.095 3.788 11.739 4 16.5l2.5.5c16.475-23.595 18.646-52.529 12.5-80 18.709-1.553 30.386-11.816 36-29 1.528-4.677 2.434-6.844 3-12 2.61 1.521 4.964 7.742 6 10.5 16.174 43.043 11.176 91.071-12 130.5-65.213 110.948-238.135 96.509-278-29.5-1.421-4.493-4.201-25.884-5-27-1.343-1.875-9.417 1.089-12-.5-4.22-38.657 4.128-74.603 25-107 1.076.976 7.988 6.093 8.5 6 1.264-.23 12.649-17.499 15.5-20.5 32.119-33.818 76.19-50.944 123-48.5m100 135c-3.124 13.889 8.293 23.686 21.5 17 16.478-8.342 5.36-29.254-11.5-26-3.256.629-9.221 5.537-10 9m-220.5 12c-3.492.642-8.63 11.081-2 13 10.646 3.081 9.672-14.41 2-13" style="fill:url(#d)"/>/&gt;<path fill="#031325" d="M829 316c-.64-1.606-1.344-3.41-2-5 .715 1.733 1.309 3.252 2 5"/><path fill="#3c9fbf" d="M296 328c-12.895 13.05-26.76 31.161-36 47-6.6 11.313-11.764 22.563-16 35-50.39 147.946 73.595 261.402 211 280 .89 12.489-25.056 32.365-24 42.5.294 2.823 3.511.167 3 3.5-83.359-12.918-169.531-51.543-201-135.5-32.944-87.892-12.357-211.642 45-285.5 1.926.779 4.008-3.077 4.5-3 1.034.161 12.08 13.761 13.5 16"/><path fill="#c6e8f3" d="M759 362c2.886 4.762 4.516 8.197 7 13l-2 4c-7.829-14.696-16.52-24.172-26-37-3.384-4.579-6.938-9.192-10-14-1.165-1.829-5.646-6.394-3.5-8 4.736-2.825 31.609 37.23 34.5 42"/><path fill="#002845" d="M644 339c-4.22-4.819-13.173-13.711-18-18z"/><path fill="#d9f2f9" d="M600 328c6.876.095 15.587 2.396 22 5 12.311 4.999 20.861 15.017 24 28 1.976 8.174 1.904 15.764 1 24-.566 5.156-1.472 7.323-3 12-5.607 2.977-7.79 9.367-13.5 13-6.447 4.102-18.407 6.879-26 7-8.961.142-23.517-5.19-30-5-1.35.04-1.98 2.082-2.5 3-14.882-11.302-21.894-23.865-21-43 .166-3.561 1.057-7.567 2-11 .03-.108.483-.542 1-2 7.003-19.747 25.14-31.288 46-31m-8.5 8c-22.355 3.999-11.218 28.087 6 31 38.431 6.502 28.748-37.216-6-31m-30 40c-1.196.313-4.57 2.715-4.5 4.5 16.091 34.32 82.749 48.229 84.5-1.5-12.129 3.893-27.299 5.283-40 4-12.295-1.242-27.608-10.238-40-7"/><path fill="#fdfefe" d="M591.5 336c34.748-6.216 44.431 37.502 6 31-17.218-2.913-28.355-27.001-6-31"/><path fill="#04b2df" d="M554 359c-.517 1.458-.97 1.892-1 2-13.234-8.25-34.403-3.825-49-1-9.799.283-28.67 3.116-36 10-3.523-5.431-12.934-8.234-19-8 31.88-19.773 71.652-19.512 105-3"/><path fill="#61b6d1" d="M793 410c.245 8.032-2.735 7.095-10 8-4.167-17.051-9.048-27.623-17-43-2.484-4.803-4.114-8.238-7-13l12-8c9.189 18 16.47 36.545 22 56"/><path fill="#0095cf" d="M553 361c-.943 3.433-1.834 7.439-2 11-6.742-3.296-13.657-7.162-21-9-7.726-1.934-18.024-3.23-26-3 14.597-2.825 35.766-7.25 49 1"/><path fill="#123a52" d="M504 360c7.976-.23 18.274 1.066 26 3 .267 11.27-12.517.861-18.5 3-1.522.544-15.142 22.636-18.5 26.5-11.095 12.768-21.699 19.796-34 27.5 9.877-10.987 17.243-37.292 9-50 7.33-6.884 26.201-9.717 36-10"/><path fill="#089fc7" d="M653 529c-4.139 1.854-6.867-4.069-12-3 23.176-39.429 28.174-87.457 12-130.5-1.036-2.758-3.39-8.979-6-10.5.904-8.236.976-15.826-1-24 36.727 46.888 35.617 116.926 7 168"/><path fill="#e0f4f9" d="M449 362c6.066-.234 15.477 2.569 19 8 8.243 12.708.877 39.013-9 50-12.02 7.528-19.332 16.894-36 15-5.61-.638-19.564-7.052-21-13.5-5.798-26.033 19.959-58.456 47-59.5m-5.5 11c-10.538 1.143-27.802 14.605-14 23 20.684 12.581 44.233-26.279 14-23"/><path fill="url(#e)" d="M551 372c-.894 19.135 6.118 31.698 21 43 8.271 6.281 10.183 8.229 21 10 4.139 11.723 2.263 29.091 1 42l-14 35c-8.897 11.732-19.408 20.933-33 27-37.154 16.585-75.632 6.559-104-21-13.594-16.017-22.667-35.8-23-57 5.604-1.369 6.575-11.403 2-15l1-1c16.668 1.894 23.98-7.472 36-15 12.301-7.704 22.905-14.732 34-27.5 3.358-3.864 16.978-25.956 18.5-26.5 5.983-2.139 18.767 8.27 18.5-3 7.343 1.838 14.258 5.704 21 9" style="fill:url(#e)"/>/&gt;<path fill="#fdfefe" d="M443.5 373c30.233-3.279 6.684 35.581-14 23-13.802-8.395 3.462-21.857 14-23"/><path fill="#addbeb" d="M265 375c-5.95 9.5-16.366 26.49-19 37l-2-2c4.236-12.437 9.4-23.687 16-35z"/><path fill="#ace2f7" d="M561.5 376c12.392-3.238 27.705 5.758 40 7 12.701 1.283 27.871-.107 40-4-1.751 49.729-68.409 35.82-84.5 1.5-.07-1.785 3.304-4.187 4.5-4.5"/><path fill="#97e0f8" d="M608 426c-4.971.413-10.113-.2-15-1-10.817-1.771-12.729-3.719-21-10 .52-.918 1.15-2.96 2.5-3 6.483-.19 21.039 5.142 30 5 7.593-.121 19.553-2.898 26-7 5.71-3.633 7.893-10.023 13.5-13-5.614 17.184-17.291 27.447-36 29"/><path fill="#2984a5" d="M165 408c-14.698 33.615-19.606 74.421-22 111-2.8-15.25 1.02-31.322 2-46.5.022-.339-2.023-6.161-2-6.5.708-10.55 5.137-27.855 9-38.5 2.437-6.717 6.485-13.301 10-19.5.148-.021.629-2.093 3 0"/><path fill="#1ffafc" d="M162 408c-3.515 6.199-7.563 12.783-10 19.5-3.863 10.645-8.292 27.95-9 38.5-.469 3.752-1.912 7.178-2 11l-5 3c1.711-19.858 5.369-39.511 6-59.5 4.815-4.521 13.405-11.549 20-12.5"/><path fill="#16445f" d="M142 529c.154-3.46.781-6.656 1-10 2.394-36.579 7.302-77.385 22-111 2.206 3.278-6.426 68.16-7 78.5-2.088 37.628-1.861 79.675 3 117 1.024 7.861 12.382 54.448 11 57-1.351 2.494-8.98.551-11-1-18.635-14.309-20.049-106.935-19-130.5"/><path fill="#1ffbfe" d="M886 479c-1.913 2.848-2.031 1.282-5 0-1.207-16.656-9.946-46.283-18-61-1.395-2.548-2.941-5.282-4-8 3.295-3.629 17.232 7.273 20 10.5.386 19.736 5.063 38.98 7 58.5"/><path fill="#84cbe2" d="M535 741c11.918-17.448 37.942-23.062 56.5-33 10.758-5.761 35.218-18.819 42.5-27.5 1.57-1.872 3.565-4.749 3-7.5 109.611-38.915 174.698-137.567 146-255 7.265-.905 10.245.032 10-8 58.768 206.755-58.06 321.633-258 331"/><path fill="#17455f" d="m863 418 12 62.5 5 62.5c-.508 21.451-1.617 106.381-21.5 117-1.11.593-6.765 2.695-7.5 1.5 22.055-82.234 12.641-167.957 8-251.5 1.059 2.718 2.605 5.452 4 8"/><path fill="#094b6c" d="m526 623 33.5-8c69.76-23.334 121.047-85.464 123.5-160.5.458-14.023-3.304-27.629-2-41.5 20.855 102.269-50.881 200.497-155 210"/><path fill="#287e9f" d="M881 479c.057.78-1.115 1.061-1 3 .693 11.692-.067 25.988 0 38 .043 7.742.184 15.246 0 23l-5-62.5-12-62.5c8.054 14.717 16.793 44.344 18 61"/><path fill="#1ffafe" d="M911 465c-2.229 1.686-2.135 12.788-2 15-3.327-10.033-12.217-16.747-22-20-1.652-12.952-4.964-25.873-5.5-39 17.175 11.432 24.483 24.4 29.5 44"/><path fill="#32f7f9" d="M134 461c-10 1.481-21.538 11.787-24 21.5-2.716 10.714-3.748 44.478-4 57-.09 4.463-.133 9.433 2 13.5-1.243 4.953-3.111 24.806-3 30-1.033-49.86-12.733-128.419 33.5-161 1.99 1.532-3.976 34.118-4.5 39"/><path fill="#3fc1e1" d="M608 426c6.146 27.471 3.975 56.405-12.5 80l-2.5-.5c-.212-4.761.887-13.405-4-16.5 3.926-8.471 4.188-13.707 5-22 1.263-12.909 3.139-30.277-1-42 4.887.8 10.029 1.413 15 1"/><path fill="#fafdfe" d="M618 434c.779-3.463 6.744-8.371 10-9 8.894-.059 24.814 13.41 12.5 21-10.34 6.373-22.572.152-22.5-12"/><path fill="#b3f5fb" d="M618 434c-.072 12.152 12.16 18.373 22.5 12 12.314-7.59-3.606-21.059-12.5-21 16.86-3.254 27.978 17.658 11.5 26-13.207 6.686-24.624-3.111-21.5-17"/><path fill="#f6fbfd" d="M422 436c4.575 3.597 3.604 13.631-2 15-16.313 3.984-13.654-27.31 2-15"/><path fill="#fbfdfe" d="M397.5 446c7.672-1.41 8.646 16.081-2 13-6.63-1.919-1.492-12.358 2-13"/><path fill="#19bbe1" d="M909 480c1.415 23.119 6.477 46.706 3 70-2.102-6.871-15.453-17.795-19-25-.611-21.585-3.271-43.606-6-65 9.783 3.253 18.673 9.967 22 20"/><path fill="#1bbce1" d="M134 461c-2.118 19.751-4.297 40.149-5 60-2.879 12.487-17.972 19.931-21 32-2.133-4.067-2.09-9.037-2-13.5.252-12.522 1.284-46.286 4-57 2.462-9.713 14-20.019 24-21.5"/><path fill="#47edf4" d="M915 590c.316-5.724-1.487-35.055-3-40 3.477-23.294-1.585-46.881-3-70-.135-2.212-.229-13.314 2-15 10.079 39.374 9.133 84.901 4 125"/><path fill="#0e4f75" d="M143 519c-.219 3.344-.846 6.54-1 10h-2c.157-17.273.602-34.754 1-52 .088-3.822 1.531-7.248 2-11-.023.339 2.022 6.161 2 6.5-.98 15.178-4.8 31.25-2 46.5"/><path fill="#bceced" d="M589 489c-2.219 4.788-5.844 8.839-9 13l14-35c-.812 8.293-1.074 13.529-5 22"/><path fill="#19e2f7" d="M641 526c5.133-1.069 7.861 4.854 12 3-77.015 137.45-290.004 95.706-307-60 2.583 1.589 10.657-1.375 12 .5.799 1.116 3.579 22.507 5 27 39.865 126.009 212.787 140.448 278 29.5"/><path fill="#008cb9" d="M140 529c-.106 11.647-.348 23.351 0 35l-7 5c-1.296-29.874.451-59.413 3-89l5-3c-.398 17.246-.843 34.727-1 52"/><path fill="#0085b4" d="M886 479c3.074 30.973 4.831 61.917 2 93-.242-.925-4.016-7.888-6-8 .621-15.019.533-28.998 0-44-.451-12.693-.156-25.395-2-38-.115-1.939 1.057-2.22 1-3 2.969 1.282 3.087 2.848 5 0"/><path fill="#094d7e" d="M882 520h-2c-.067-12.012.693-26.308 0-38 1.844 12.605 1.549 25.307 2 38"/><path fill="#69def0" d="M547 529c-32.454 20.593-80.029 7.243-104-21 28.368 27.559 66.846 37.585 104 21"/><path fill="#0086b3" d="M130 576c-10.743 8.851-18.462 17.818-17 32.5.605 6.08 6.777 14.718 5 21.5-4.754-9.874-12.773-36.421-13-47-.111-5.194 1.757-25.047 3-30 3.028-12.069 18.121-19.513 21-32-.644 18.201-.175 36.838 1 55"/><path fill="#0083b2" d="M912 550c1.513 4.945 3.316 34.276 3 40-.513 9.31-6.893 29.299-11 38 4.668-22.299 9.667-36.056-12-51 1.154-16.434 1.467-35.513 1-52 3.547 7.205 16.898 18.129 19 25"/><path fill="#00679c" d="M140 564c.337 11.264.933 22.789 2 34-3.985-1.316-.072-5.472-7-4-.755-8.319-1.637-16.64-2-25z"/><path fill="#004f88" d="M888 572c2.148 8.223-7.496 76.382-12.5 81-.454.419-11.246 5.063-11.5 4.5 15.322-28.302 16.688-61.756 18-93.5 1.984.112 5.758 7.075 6 8"/><path fill="#004882" d="M118 630c1.777-6.782-4.395-15.42-5-21.5-1.462-14.682 6.257-23.649 17-32.5 1.648 25.459 4.89 50.997 12 75.5-11.028-3.116-19.135-11.396-24-21.5"/><path fill="#00447f" d="M904 628c-1.283 2.719-2.302 6.04-4 8.5-1.293 1.874-19.903 19.752-21 14 7.156-23.959 11.247-48.534 13-73.5 21.667 14.944 16.668 28.701 12 51"/><path fill="#004b85" d="M142 598c1.993 20.93 4.066 41.5 16 59.5-10.16-2.326-12.948-4.165-16-14-3.786-12.2-5.789-36.148-7-49.5 6.928-1.472 3.015 2.684 7 4"/><path fill="#8daab5" d="M793 640c6.58-13.335 13.504-26.749 18-41l4 .5c-1.097 12.826-6.421 25.335-12.5 36.5 1.728-7.335-6.857 1.268-9.5 4"/><path fill="#e0f1f6" d="M228.5 659c33.988 48.346 84.182 75.191 136.5 99.5-1.171 1.864-2.63.806-4.5.5-6.392-1.044-25.102-9.023-32-12-41.093-17.737-78.919-48.303-100-88"/><path fill="#61b6d1" d="M637 673c.565 2.751-1.43 5.628-3 7.5-7.282 8.681-31.742 21.739-42.5 27.5-18.558 9.938-44.582 15.552-56.5 33-34.059 1.596-67.29.224-101-5 .511-3.333-2.706-.677-3-3.5-1.056-10.135 24.89-30.011 24-42.5 57.014 7.717 127.767 2.254 182-17"/><path fill="#a3b9c2" d="M765.5 695c2.155 1.782 1.118 1.167.5 2.5-5.423 11.703-50.636 41.825-63.5 48.5-99.43 51.595-232.777 51.776-337.5 16.5l2.5-3.5c-.738 4.18 1.704.56 3 1 .544.185 4.738 3.669 9 5 119.008 37.159 293.858 20.316 386-70"/><path fill="#041626" d="M733 702c-47.505 34.712-113.056 52.423-171.5 58-92.43 8.82-203.295-5.772-278.5-63 114.284 82.527 333.158 82.234 450 5"/><path fill="#041020" d="M276.5 743c40.991-2.467 25.934 78.989-12 55-20.843-13.181-12.835-53.505 12-55m22.5 35c1.25-8.737-.048-13.685-4-21-16.628-30.775-52.175 4.96-35 32.5 11.965 19.186 36.135 8.533 39-11.5"/><path fill="#081222" d="M754 744c6.722 2.26 15.055 14.605 16 21.5 5.726 41.777-46.016 50.704-53 17.5-4.435-21.086 14.695-46.498 37-39m-34 40c2.938 12.085 15.357 18.747 27 17 10.056-1.509 20.06-14.222 21-24 4.575-47.578-58.647-36.797-48 7"/><path fill="#13c0dc" d="M295 757c-2.322.993-1.282 2.586-1 4-5.462 2.134-7.466-7.8-13.5-9-8.938-1.778-18.17 7.371-18.5 16-6.573 13.019 4.226 31.879 19.5 29 5.803-1.094 14.034-11.919 14.5-17.5.122-1.467-2.335-9.157-3-10.5l3-2c.713 3.495-.224 10.801 3 11-2.865 20.033-27.035 30.686-39 11.5-17.175-27.54 18.372-63.275 35-32.5"/><path fill="#1bcfe6" d="M768 777c-4.776-.441 1.468-8.604-6-7-.036-.329.055-.679 0-1-.277-1.63-.384-3.447-1-5 .436-12.799-19.672-21.292-27-10-3.836 2.556-4.651 6.451-7 10-.785 1.185-.995 4.144-3 2.5l6.5-13.5c-6.206 5.719-7.359 12.205-7.5 20-4.502 1.843-.566 7.762-3 11-10.647-43.797 52.575-54.578 48-7"/><path fill="#b5e6ed" d="M761 764c-4.436-11.19-16.553-16.96-27-10 7.328-11.292 27.436-2.799 27 10"/><path fill="#2ca8d1" d="M761 764c.616 1.553.723 3.37 1 5-7.91 18.763-30.062 12.759-35-5 2.349-3.549 3.164-7.444 7-10 10.447-6.96 22.564-1.19 27 10"/><path fill="#1b9eca" d="M294 761c.428 2.148 1.65 4.286 2 6l-3 2c-.51-1.028-3.121-6.703-4.5-6-1.6 16.674-27.39 28.301-26.5 5 .33-8.629 9.562-17.778 18.5-16 6.034 1.2 8.038 11.134 13.5 9"/><path fill="#00519d" d="M727 764c4.938 17.759 27.09 23.763 35 5 .055.321-.036.671 0 1 .708 6.523.549 8.566-2 15-14.833 16.314-26.41 8.14-37-7-.088-.577-.021-3.85 0-5 .141-7.795 1.294-14.281 7.5-20l-6.5 13.5c2.005 1.644 2.215-1.315 3-2.5"/><path fill="#0ce0f2" d="M299 778c-3.224-.199-2.287-7.505-3-11-.35-1.714-1.572-3.852-2-6-.282-1.414-1.322-3.007 1-4 3.952 7.315 5.25 12.263 4 21"/><path fill="#004f9b" d="M293 769c.665 1.343 3.122 9.033 3 10.5-.466 5.581-8.697 16.406-14.5 17.5-15.274 2.879-26.073-15.981-19.5-29-.89 23.301 24.9 11.674 26.5-5 1.379-.703 3.99 4.972 4.5 6"/><path fill="#04a0ca" d="M768 777c-.94 9.778-10.944 22.491-21 24l-2-3c8.042-.601 12.303-6.192 15-13 2.549-6.434 2.708-8.477 2-15 7.468-1.604 1.224 6.559 6 7"/><path fill="#02add1" d="M723 778c1.769 11.56 9.189 20.958 22 20l2 3c-11.643 1.747-24.062-4.915-27-17 2.434-3.238-1.502-9.157 3-11-.021 1.15-.088 4.423 0 5"/><path fill="#0073b0" d="M760 785c-2.697 6.808-6.958 12.399-15 13-12.811.958-20.231-8.44-22-20 10.59 15.14 22.167 23.314 37 7"/></svg>