<svg xmlns="http://www.w3.org/2000/svg" width="1024" height="1024"><defs><linearGradient id="a" x1="592.203" x2="868.375" y1="237.903" y2="329.61" gradientUnits="userSpaceOnUse"><stop offset="0%" style="stop-color:#9dc0cb"/><stop offset="100%" style="stop-color:#2f637a"/></linearGradient></defs><defs><linearGradient id="b" x1="251.676" x2="775.322" y1="324.897" y2="708.298" gradientUnits="userSpaceOnUse"><stop offset="0%" style="stop-color:#f3f8f9"/><stop offset="44.684%" style="stop-color:#c1dfe6"/><stop offset="100%" style="stop-color:#608c9c"/></linearGradient></defs><defs><linearGradient id="c" x1="419.862" x2="728.382" y1="341.105" y2="413.936" gradientUnits="userSpaceOnUse"><stop offset="0%" style="stop-color:#346f95"/><stop offset="100%" style="stop-color:#024c7d"/></linearGradient></defs><defs><linearGradient id="d" x1="673.737" x2="540.049" y1="398.335" y2="407.474" gradientUnits="userSpaceOnUse"><stop offset="0%" style="stop-color:#09315c"/><stop offset="100%" style="stop-color:#1c4b74"/></linearGradient></defs><defs><linearGradient id="e" x1="842.835" x2="871.56" y1="413.901" y2="614.859" gradientUnits="userSpaceOnUse"><stop offset="0%" style="stop-color:#9ec3cd"/><stop offset="100%" style="stop-color:#79a5b3"/></linearGradient></defs><defs><linearGradient id="f" x1="186.587" x2="147.941" y1="415.63" y2="612.879" gradientUnits="userSpaceOnUse"><stop offset="0%" style="stop-color:#c6dee5"/><stop offset="100%" style="stop-color:#8fb7c4"/></linearGradient></defs><defs><linearGradient id="g" x1="535.865" x2="638.712" y1="513.681" y2="519.281" gradientUnits="userSpaceOnUse"><stop offset="0%" style="stop-color:#50d1fe"/><stop offset="100%" style="stop-color:#17afe1"/></linearGradient></defs><defs><linearGradient id="h" x1="322.384" x2="610.541" y1="487.928" y2="691.827" gradientUnits="userSpaceOnUse"><stop offset="0%" style="stop-color:#367ca5"/><stop offset="100%" style="stop-color:#004678"/></linearGradient></defs><path fill="#0b2944" d="M885 408h-1c-17.248-25.943-37.071-18.132-49 7l-1-1c.638-1.77 2.166-4.97 2-6.5-.333-3.068-18.877-35.971-22-41-35.78-57.623-93.393-109.053-155-137.5 1.604-3.111.308-2.968 3.5-2 8.616 2.611 31.444 16.583 40 22 58.948 37.323 105.484 92.464 136 155 6.183-11.234 18.771-17.083 31.5-12.5C825.54 280.645 727.998 192.844 613.5 159c-4.675 17.167-19.737 34.16-34.5 44-1.584 1.056-4.04 1.433-5 2 7.976-8.221 18.51-15.924 26-24.5 1.05-1.203 6.274-7.579 4-9.5 2.333-3.567 4.594-7.072 5-11.5-11.459-8.17-10.763 2.85-17 10-5.205 5.967-11.525 11.915-18 16.5-5.305 3.757-12.011 7.503-18 10-20.091 8.375-38.395 10.355-60 8-22.506-2.453-46.911-11.953-62-29.5-7.012-8.154-7.242-20.718-19.5-16.5-2.821 1.822-.45 3.734.5 6l-2 3c-.338-.579-.649-1.436-1-2-.971-1.557-1.563-3.407-2.5-5-105.984 24.465-205.115 98.801-249.5 199.5-1.798 4.08-13.513 30.211-9.5 31.5 18.66-5.852 27.054 2.22 35.5 17 1.872 3.276 3.391 8.416 5 12h-2c-9.868-24.1-30.451-41.107-50-14h-1c1.935-3.58 8.792-10.8 9-11.5.157-.527-1.386-7.125 0-11C191.209 259.863 296.653 181.593 422.5 153c3.647-12.895 5.679-25.723 12.5-37.5 20.743-35.813 83.951-40.302 119.5-27.5 28.235 10.169 40.198 38.934 47 66 88.333 22.617 174.578 80.038 227.5 154.5 22.063 31.043 37.279 66.752 56 99.5M478 91c-15.052 3.697-29.945 11.207-39 24.5-32.372 47.522 16.071 78.725 59 83.5 26.687 2.968 61.541-6.252 82-24 19.883-17.249 18.128-40.895 3-61-20.959-27.855-74.072-30.597-105-23"/><path fill="#7aa4b2" d="M583 114c5.56 21.97 11.53 38.561-8 55-21.837 18.381-44.513 17-70 21 5.018-16.207-22.815-8.112-17-25 6.527.926 12.426 1.087 19 1 23.045-.307 56.868-3.582 65-29.5 6.988-22.272-9.321-38.023-30-41.5-17.366-2.92-57.503-3.448-73 4 .04-5.196 14.433-2.213 9-8 30.928-7.597 84.041-4.855 105 23"/><path fill="#b9d9e1" d="M469 99c-9.447 4.54-6.538 5.417-11 12-14.171 20.906-9.38 30.213 10 45 2.45 1.87 3.768 5.446 7.5 7 3.272 1.362 8.902 1.49 12.5 2-5.815 16.888 22.018 8.793 17 25-9.691 1.521-1.005 6.284-7 9-42.929-4.775-91.372-35.978-59-83.5 9.055-13.293 23.948-20.803 39-24.5 5.433 5.787-8.96 2.804-9 8"/><path fill="#034d68" d="m542 95 13 7.5c-.567 1.121-17.974-7.159-21-4l4 3.5c-9.208-1.986-35.01.078-36.5-1-2.627-1.9 3.663-6.222-12-5-9.54.744-24.872 8.171-30.5 16l-1-1c4.462-6.583 1.553-7.46 11-12 15.497-7.448 55.634-6.92 73-4"/><path fill="#042d4a" d="M507 166c-1.512-1.954-12.121-1.062-12-5 21.197 2.368 72.115.779 73-29 .429-14.433-12.324-24.843-25-29-1.618-.531-3.375-.65-5-1l-4-3.5c3.026-3.159 20.433 5.121 21 4L542 95c20.679 3.477 36.988 19.228 30 41.5-8.132 25.918-41.955 29.193-65 29.5"/><path fill="#008da5" d="M538 102c1.625.35 3.382.469 5 1-1.063 4.393-3.991 7.725-2 12-13.082-6.558-40.433-5.961-54-1 3.39-16.035-11.773-8.235-2 1-1.703.787-2.739 2.961-4 4-1.695 1.396-4.181-3.244-5 5-4.052-1.096-6.724-4.081-8 2-22.599 2.054-3.077 13.864 2 20 2.334 2.821 3.783 6.302 4 10-1.601-.676-3.256-.909-5-2-15.098-9.44-20.778-27.005-10-42 5.628-7.829 20.96-15.256 30.5-16 15.663-1.222 9.373 3.1 12 5 1.49 1.078 27.292-.986 36.5 1"/><path fill="#006582" d="M568 132c-7.307 2.119-17.86 15.243-24.5 17-3.256.862-51.797 1.561-54 0-1.158-.821-.188-6.255-.5-8 11.419 1.88 45.405 2.155 54.5-4 9.148-6.191 7.12-17.178-2.5-22-1.991-4.275.937-7.607 2-12 12.676 4.157 25.429 14.567 25 29"/><path fill="#f4fdfc" d="M487 114c-.744.272-1.284.669-2 1-9.773-9.235 5.39-17.035 2-1"/><path fill="#000d1d" d="M541 115c9.62 4.822 11.648 15.809 2.5 22-9.095 6.155-43.081 5.88-54.5 4-6.758-1.112-9.516-2.348-15-6 1.892-2.499 2.753-3.699 3-7 4.987-1.111 5.892-4.698 4-9 1.261-1.039 2.297-3.213 4-4 .716-.331 1.256-.728 2-1 13.567-4.961 40.918-5.558 54 1m-31.5 1c-3.654.769-3.258 9.363 1 9 3.934-.335 4.655-10.19-1-9"/><path fill="#072645" d="M459 112c-10.778 14.995-5.098 32.56 10 42l-1 2c-19.38-14.787-24.171-24.094-10-45z"/><path fill="#37657a" d="m580 175-5-6c19.53-16.439 13.56-33.03 8-55 15.128 20.105 16.883 43.751-3 61"/><path fill="#fbfcfc" d="M509.5 116c5.655-1.19 4.934 8.665 1 9-4.258.363-4.654-8.231-1-9"/><path fill="#f3faf7" d="M481 119c1.892 4.302.987 7.889-4 9 .174-2.323-1.052-3.472-1-4 .819-8.244 3.305-3.604 5-5"/><path fill="#0edefe" d="M476 124c-.052.528 1.174 1.677 1 4-.247 3.301-1.108 4.501-3 7-2.404-1.601-7.967.379-6-9 1.276-6.081 3.948-3.096 8-2"/><path fill="#00acc9" d="M468 126c-1.967 9.379 3.596 7.399 6 9 5.484 3.652 8.242 4.888 15 6 .312 1.745-.658 7.179.5 8 2.203 1.561 50.744.862 54 0 6.64-1.757 17.193-14.881 24.5-17-.885 29.779-51.803 31.368-73 29-3.654-.408-7.418-1.175-11-2 2.355-1.467 5.65-8.075 3.5-10l-17.5-3c-5.077-6.136-24.599-17.946-2-20"/><path fill="#0dd4f3" d="M484 159c-4.065-.937-6.052-1.333-10-3-.217-3.698-1.666-7.179-4-10l17.5 3c2.15 1.925-1.145 8.533-3.5 10"/><path fill="#124d68" d="M474 156c3.948 1.667 5.935 2.063 10 3 3.582.825 7.346 1.592 11 2-.121 3.938 10.488 3.046 12 5-6.574.087-12.473-.074-19-1-3.598-.51-9.228-.638-12.5-2-3.732-1.554-5.05-5.13-7.5-7l1-2c1.744 1.091 3.399 1.324 5 2"/><path fill="#517f91" d="M604 171c-5.475 8.372-17.701 17.516-26 23l-4-8c6.475-4.585 12.795-10.533 18-16.5 6.237-7.15 5.541-18.17 17-10-.406 4.428-2.667 7.933-5 11.5"/><path fill="#b4d9e2" d="M496 204c-3.699 3.748-4.892 2.187-4 9-25.868-3.365-66.388-23.678-77-49-.95-2.266-3.321-4.178-.5-6 12.258-4.218 12.488 8.346 19.5 16.5 15.089 17.547 39.494 27.047 62 29.5"/><path fill="url(#a)" d="M659 229c-25.466-11.759-52.581-20.112-80-26 14.763-9.84 29.825-26.833 34.5-44C727.998 192.844 825.54 280.645 870 391.5c-12.729-4.583-25.317 1.266-31.5 12.5-30.516-62.536-77.052-117.677-136-155-8.556-5.417-31.384-19.389-40-22-3.192-.968-1.896-1.111-3.5 2" style="fill:url(#a)"/>/&gt;<path fill="#dfeff3" d="M412 165c-98.006 26.937-185.37 89.177-235 178.5 47.005-61.94 102.675-116.224 174.5-148.5 19.191-8.624 39.279-13.972 59-21 1.415-.504 4.035-1.084 3.5-3 6.612 11.219 14.833 20.418 23.5 30-74.317 14.725-145.422 56.928-195.5 113.5-3.871 4.373-14.588 16.638-17 21-2.016 3.645-1.653 1.915 0 5.5-15.401 20.815-27.804 43.696-39 67-8.446-14.78-16.84-22.852-35.5-17-4.013-1.289 7.702-27.42 9.5-31.5C204.385 258.801 303.516 184.465 409.5 160c.937 1.593 1.529 3.443 2.5 5"/><path fill="#739dac" d="M492 213c.968.126 2.025-.102 3 0v9c-8.872-.863-18.061-2.122-26.5-5-5.975-2.037-24.798-13.806-28-14-3.47-.21-32.447 8.248-38 10-68.108 21.485-135.162 70.78-177.5 128-1.653-3.585-2.016-1.855 0-5.5 2.412-4.362 13.129-16.627 17-21 50.078-56.572 121.183-98.775 195.5-113.5-8.667-9.582-16.888-18.781-23.5-30-.298-.506-.7-3.486-1-4l2-3c10.612 25.322 51.132 45.635 77 49"/><path fill="#fcfdfc" d="M412 165c.351.564.662 1.421 1 2 .3.514.702 3.494 1 4 .535 1.916-2.085 2.496-3.5 3-19.721 7.028-39.809 12.376-59 21-71.825 32.276-127.495 86.56-174.5 148.5 49.63-89.323 136.994-151.563 235-178.5"/><path fill="#6692a2" d="M580 175c-20.459 17.748-55.313 26.968-82 24 5.995-2.716-2.691-7.479 7-9 25.487-4 48.163-2.619 70-21z"/><path fill="#416d81" d="M574 205c-25.99 15.347-48.64 19.954-79 17v-9c25.452 2.672 40.693.426 64-9 8.623-3.487 11.277-4.897 19-10 8.299-5.484 20.525-14.628 26-23 2.274 1.921-2.95 8.297-4 9.5-7.49 8.576-18.024 16.279-26 24.5"/><path fill="#6896a5" d="M578 194c-7.723 5.103-10.377 6.513-19 10l-3-8c5.989-2.497 12.695-6.243 18-10z"/><path fill="#82afba" d="M559 204c-23.307 9.426-38.548 11.672-64 9-.975-.102-2.032.126-3 0-.892-6.813.301-5.252 4-9 21.605 2.355 39.909.375 60-8z"/><path fill="url(#b)" d="M495 222c30.36 2.954 53.01-1.653 79-17 .96-.567 3.416-.944 5-2 27.419 5.888 54.534 14.241 80 26 61.607 28.447 119.22 79.877 155 137.5 3.123 5.029 21.667 37.932 22 41 .166 1.53-1.362 4.73-2 6.5-4.346 12.049-12.13 23.161-16 37.5-10.09 37.388-18.584 148.985 6 179 9.706 11.851 17.964 2.641 7 20.5-31.667 51.583-90.371 106.091-144 134-48.68 25.333-102.969 39.982-158 42-31.377 1.151-63.224-.889-94-7-20.464-4.063-42.479-10.684-62-18-19.78-7.413-40.958-18.041-59-29-8.507-5.167-16.947-11.145-25-17-20.961-15.241-42.681-34.216-60-53.5-5.971-6.648-40.412-50.183-41-55.5-.066-.594-.126-1.468 0-2 .569-2.401 8.563-7.903 10-10.5 22.798-41.198 20.168-160.154-2-201.5.426-5.049-3.155-8.891-5-13-1.609-3.584-3.128-8.724-5-12 11.196-23.304 23.599-46.185 39-67 42.338-57.22 109.392-106.515 177.5-128 5.553-1.752 34.53-10.21 38-10 3.202.194 22.025 11.963 28 14 8.439 2.878 17.628 4.137 26.5 5m-163 81c-11.35 10.136-22.526 21.299-31 34-39.439 47.981-57.311 108.577-57 170.5l2.5 18.5c-5.694-73.41 19.327-146.282 68.5-200.5 131.233-144.698 376.413-98.062 444 85 31.521 85.377 19.771 179.748-39 250 2.983 2.602 9.184-4.969 11-7 62.427-69.848 67.875-185.19 25-266-82.607-155.696-288.434-205.557-424-84.5m28 400c2.549 2.031 18.228 14.829 19.5 15 2.245.302-.095-2.947 2-3 2.213-.056 33.147 16.637 40 19 15.425 5.319 33.288 9.245 49.5 11 14.547 5.717 57.54 3.06 74 1 281.445-35.225 290.072-437.253 13-487-9.811-1.762-18.927-3.695-29-4-1.655-.05-3.343.015-5 0-184.592-11.932-321.631 179.579-243 350.5 17.135 37.246 47.095 72.081 79 97.5m26.5 19c-2.403 1.511-.257 3.807 1 5 2.435 2.312 24.458 12.991 29 15 42.318 18.717 84.637 23.352 130.5 15.5-.938-.594-2.879-3.364-3.5-3.5-5.732-1.257-35.053 2.375-45 2-39.948-1.507-77.991-13.406-112-34" style="fill:url(#b)"/>/&gt;<path fill="#2b5870" d="M301 337c9.662-11.754 21.948-21.756 31-34 135.566-121.057 341.393-71.196 424 84.5 42.875 80.81 37.427 196.152-25 266-1.816 2.031-8.017 9.602-11 7 58.771-70.252 70.521-164.623 39-250-67.587-183.062-312.767-229.698-444-85-49.173 54.218-74.194 127.09-68.5 200.5l-2.5-18.5c-.311-61.923 17.561-122.519 57-170.5"/><path fill="#0f4162" d="M524 255c-139.351-1.25-263.558 107.226-263 250 .004.993-.018 2.007 0 3 .975 55.313 21.058 107.9 56 150.5 12.654 15.427 30.099 27.248 42 41 1.269 1.467 2.564 1.372 1 3.5-31.905-25.419-61.865-60.254-79-97.5-78.631-170.921 58.408-362.432 243-350.5"/><path fill="#18557c" d="M529 255c-2.384 3.134 1.875 1.414 2 2.5.391 3.399-1.769 5.407-1.5 5.5 5.926 2.048 21.159 1.568 28.5 3 9.612 1.875 19.678 4.963 29 8-.46 5.923-1.562 5.953 3 10-15.681-5.729-33.371-10.799-50-13-.967-.128-2.029.116-3 0-2.735-4.836-21.907-1.878-23.5-3-1.304-.918.304-5.082-1-6-3.597-2.534-71.063 5.982-75 10-.697.711 2.807 5.181 1.5 7.5-.642 1.139-8.196.896-8 4.5-8.771 3.198-16.58 7.152-25 11-18.097 8.269-31.684 12.071-46 28-.76-2.057-5.975 2.542-6.5 3-20.768 18.109-48.397 49.393-61.5 73.5-11.511 21.178-29.191 73.489-22 96.5l-9 9c-.558-142.774 123.649-251.25 263-250 1.657.015 3.345-.05 5 0"/><path fill="#073d63" d="M558 259v7c-7.341-1.432-22.574-.952-28.5-3-.269-.093 1.891-2.101 1.5-5.5-.125-1.086-4.384.634-2-2.5 10.073.305 19.189 2.238 29 4"/><path fill="#022546" d="m545 746-5-10c64.544-9.015 134.583-50.078 170-105.5 3.223-5.043 8.181-12.599 8-18.5 27.057-43.938 34.168-109.075 23-159-14.507-59.762-54.301-109.369-101.5-147-.779-.144-1.902.213-2.5 0-1.779-1.292-4.079-3.045-6-4 .173-.93 2.018-4.254 2-4.5-.481-6.561-38.569-21.079-46-23.5-9.322-3.037-19.388-6.125-29-8v-7c277.072 49.747 268.445 451.775-13 487"/><path fill="#317992" d="M537 271c-32.053-3.814-56.192-1.348-87 7-6.751 1.829-12.445 3.61-19 6-.196-3.604 7.358-3.361 8-4.5 1.307-2.319-2.197-6.789-1.5-7.5 3.937-4.018 71.403-12.534 75-10 1.304.918-.304 5.082 1 6 1.593 1.122 20.765-1.836 23.5 3"/><path fill="#70acbd" d="M537 271c.971.116 2.033-.128 3 0l-5 17c-28.083-1.307-53.08 2.021-80 9 2.066-6.702-4.069-12.55-5-19 30.808-8.348 54.947-10.814 87-7"/><path fill="#438fb0" d="M590 284c1.675 1.486 34.914 14.975 41 18 1.921.955 4.221 2.708 6 4-21.873-7.788-78.386-16.901-102-18l5-17c16.629 2.201 34.319 7.271 50 13"/><path fill="#073d63" d="M631 302c-6.086-3.025-39.325-16.514-41-18-4.562-4.047-3.46-4.077-3-10 7.431 2.421 45.519 16.939 46 23.5.018.246-1.827 3.57-2 4.5"/><path fill="#6c9bad" d="M450 278c.931 6.45 7.066 12.298 5 19-10.489 2.719-20.642 6.865-31 10-3.562-4.565-12.807-4.292-18-7 .489-1.946 1.494-3.111 0-5 8.42-3.848 16.229-7.802 25-11 6.555-2.39 12.249-4.171 19-6"/><path fill="url(#c)" d="M535 288c23.614 1.099 80.127 10.212 102 18 .598.213 1.721-.144 2.5 0 47.199 37.631 86.993 87.238 101.5 147-4.971-9.554-16.289-10.72-26.5-8-1.833.488-12.039 6.534-13.5 8-2.009-9.928-10.23-16.914-15-25.5-37.811-68.059-88.377-110.019-169.5-110.5-.364-.002-4.005-3.67-7-2-1.325 1.072 2.392 1.174 1.5 2-8.74 8.087-7.43 15.97-13 22.5-1.802 2.113-1.692 1.901-2-.5.968-1.85 4.116-4.342 2.5-7-.951 2.292-2.849 4.278-2.5 7-6.314 12.069-12.154 25.292-20 36 .532-3.494.837-7.556 0-11l18-37.5c-.588-4.527-10.261 6.072-11 7-4.743 5.955-7.012 14.096-11 20.5l-15.5-25-28.5 13c-.034-.137-1.951-1.867-2-2-2.884-7.84-4.326-10.444-12-15-22.731-13.496-44.33-2.376-63 12 3.074-3.777 3.92-8.347 9-14 14.316-15.929 27.903-19.731 46-28 1.494 1.889.489 3.054 0 5-5.016 19.948 3.649 11.343 18 7 10.358-3.135 20.511-7.281 31-10 26.92-6.979 51.917-10.307 80-9" style="fill:url(#c)"/>/&gt;<path fill="#71a5bc" d="M424 307c-14.351 4.343-23.016 12.948-18-7 5.193 2.708 14.438 2.435 18 7"/><path fill="#0c2842" d="M301 337c8.474-12.701 19.65-23.864 31-34-9.052 12.244-21.338 22.246-31 34"/><path fill="url(#d)" d="M701 453c-.127.128-.245 2.233-2 3-.135-.308-3.999-5.111-4.5-5L657 490c5.79-6.144 35.551-34.443 36-39.5.217-2.447-.605-4.912-2.5-6.5-4.545-3.81-101.939-17.229-116.5-20-12.428-15.116-18.573-35.395-28-52.5-4.822-8.75-10.926-17.008-16-25.5-4.982-8.339-9.061-17.296-14-25.5-.926-1.539-2.74-4.213-5-3.5.892-.826-2.825-.928-1.5-2 2.995-1.67 6.636 1.998 7 2 81.123.481 131.689 42.441 169.5 110.5 4.77 8.586 12.991 15.572 15 25.5" style="fill:url(#d)"/>/&gt;<path fill="#1abee6" d="M511 317c2.26-.713 4.074 1.961 5 3.5 4.939 8.204 9.018 17.161 14 25.5 10.65 21.274 20.756 43.043 32 64-13.419-13.08-18.983-34.689-28-50.5-1.134-1.988-8.843-14.3-11-11.5-4.417-5.872-11.663-11.281-17-3.5-1.603 2.337-1.625 8.367-2 9-1 1.687-5.512 6.081-7 9-4.432 8.694-6.995 18.226-12 26.5-.844-3.234-2.134-13.034-5.5-14-.194-.056-2.812 2.171-3.5 2 .135-.581-.095-1.376 0-2 7.846-10.708 13.686-23.931 20-36 .308 2.401.198 2.613 2 .5 5.57-6.53 4.26-14.413 13-22.5"/><path fill="#d1dde4" d="m414 325-35 24c-8.778-4.792-17.54-1.948-26.5-4-2.947-.675-4.409-.574-4.5-4 1.004-1.274 1.978-2.744 3-4 18.67-14.376 40.269-25.496 63-12"/><path fill="#2985a3" d="M360 323c-5.08 5.653-5.926 10.223-9 14-1.022 1.256-1.996 2.726-3 4-4.25 5.395-7.743 8.908-12 15-1.302 1.864-4.381 4.567-6 7-2.17.473-2.663-1.278-4.5 0-2.199 1.529-17.603 26.588-19.5 30.5-2.761 5.694-5.784 7.554-1 12.5-.222.439-.455 1.898-1 3-12.617 25.53-23.437 45.458-17 75.5.928 4.331 3.18 3.172 4 10.5.444 3.969-.321 9.722 0 14 .025.331-.026.669 0 1-5.776-.087-10.718-2.178-15-6-1.089-.972-5.66-6.912-6-8-7.191-23.011 10.489-75.322 22-96.5 13.103-24.107 40.732-55.391 61.5-73.5.525-.458 5.74-5.057 6.5-3"/><path fill="#e2e6e9" d="M426 340c-6.583 15.74-22.339 9.776-35 11-2.635.255-6.511.356-9 1-.441-1.461-1.738-2.311-3-3l35-24c7.674 4.556 9.116 7.16 12 15"/><path fill="#3d678a" d="M476 364c-.09-.37-2.448-5.645-3-7-.434-1.066-1.329-1.648-1-3 3.988-6.404 6.257-14.545 11-20.5.739-.928 10.412-11.527 11-7z"/><path fill="#387091" d="M472 354c-.329 1.352.566 1.934 1 3-3.49-.586-1.329 3.198-2 5-7.933 21.31-21.644 40.68-36 58-1.068 1.289-2.313 2.175-3 3-13.757-.194-27.958 3.893-41.5 6-2.862.445-5.224-1.044-5.5-1l-1-3c21.917-1.999 44.3-26.637 38-49 6.591-8.279 8.458-23.943 6-34l28.5-13z"/><path fill="#1abee6" d="M496 339c-.349-2.722 1.549-4.708 2.5-7 1.616 2.658-1.532 5.15-2.5 7"/><path fill="#739caf" d="M428 342c2.458 10.057.591 25.721-6 34-5.272-18.714-24.47-17.827-39-12l8-13c12.661-1.224 28.417 4.74 35-11 .049.133 1.966 1.863 2 2"/><path fill="#f7f9fa" d="M379 349c1.262.689 2.559 1.539 3 3-11.352 2.937-20.186 14.749-29 20-17.07 10.168-13.563-3.648-17-16 4.257-6.092 7.75-9.605 12-15 .091 3.426 1.553 3.325 4.5 4 8.96 2.052 17.722-.792 26.5 4"/><path fill="#71dbef" d="M523 348c3.153 4.192 4.567 10.39 7 15-4.652 2.92-1.22 20.862 0 26.5 1.326 6.128 14.09 41.854 17 46 7.095 10.107 17.069 5.563 27 4.5-8.111 30.551-7.088 63.884-24 91.5-5.283 8.627-19.389 19.756-23 27-3.468 6.957-1.268 13.933-7 17.5-6.137-27.398-14.516-54.543-21-82-.302-22.767-7.795-45.067-11-67.5-1.562-10.934.827-22.835-3-37.5 5.005-8.274 7.568-17.806 12-26.5 1.488-2.919 6-7.313 7-9 .375-.633.397-6.663 2-9 5.337-7.781 12.583-2.372 17 3.5"/><path fill="#0b3458" d="M574 424c-.25-.048-4.393.596-5 1-2.029-5.128-4.396-10.146-7-15-11.244-20.957-21.35-42.726-32-64 5.074 8.492 11.178 16.75 16 25.5 9.427 17.105 15.572 37.384 28 52.5"/><path fill="#63daf2" d="M562 410c2.604 4.854 4.971 9.872 7 15 2.284 1.968 5.221 2.293 8 3l-2 6c-.889-.446-6.04-.729-6.5-1-10.044-5.922-31.384-56.514-38.5-70-2.433-4.61-3.847-10.808-7-15 2.157-2.8 9.866 9.512 11 11.5 9.017 15.811 14.581 37.42 28 50.5"/><path fill="#5db0cb" d="m391 351-8 13c-15.781 6.329-42.149 31.071-31 49.5 1.06 1.753 18.33 11.134 20 11.5l-2 5c-6.606 3.742-14.705 4.456-22 6-7.329 1.551-22.409.026-26 8.5-3.214 7.584 5.136 14.947 10 20.5-11.506 2.483-14.427 13.827-22 21-5.428 5.141-10.915 10.644-19 9-.82-7.328-3.072-6.169-4-10.5-6.437-30.042 4.383-49.97 17-75.5 3.622 1.436-.778 10.08 3 12.5 1.967 1.26 6.368.473 8.5-.5 5.899-2.692 30.262-42.049 37.5-49 8.814-5.251 17.648-17.063 29-20 2.489-.644 6.365-.745 9-1"/><path fill="#abd6e2" d="M353 372c-7.238 6.951-31.601 46.308-37.5 49-2.132.973-6.533 1.76-8.5.5-3.778-2.42.622-11.064-3-12.5.545-1.102.778-2.561 1-3 7.135-14.097 16.251-29.853 25-43 1.619-2.433 4.698-5.136 6-7 3.437 12.352-.07 26.168 17 16"/><path fill="#b6b1b4" d="M473 357c.552 1.355 2.91 6.63 3 7 .837 3.444.532 7.506 0 11-.095.624.135 1.419 0 2-2.842-.707-3.688-12.314-5-15 .671-1.802-1.49-5.586 2-5"/><path fill="#d6dbdf" d="M422 376c6.3 22.363-16.083 47.001-38 49-2.529.231-9.877.466-12 0-1.67-.366-18.94-9.747-20-11.5-11.149-18.429 15.219-43.171 31-49.5 14.53-5.827 33.728-6.714 39 12"/><path fill="#379bb7" d="M330 363c-8.749 13.147-17.865 28.903-25 43-4.784-4.946-1.761-6.806 1-12.5 1.897-3.912 17.301-28.971 19.5-30.5 1.837-1.278 2.33.473 4.5 0"/><path fill="#6085a5" d="M476 377c-.327 1.411-.674 1.943-1 3-1.556 5.044-20.138 42.69-23 45-2.313.097-4.692-.14-7 0l-.5-6-9.5 1c14.356-17.32 28.067-36.69 36-58 1.312 2.686 2.158 14.293 5 15"/><path fill="#c4ebf6" d="M530 363c7.116 13.486 28.456 64.078 38.5 70 .46.271 5.611.554 6.5 1 .835.419 8.022 5.015 8 5.5-2.424 2.758-5.497.125-9 .5-9.931 1.063-19.905 5.607-27-4.5-2.91-4.146-15.674-39.872-17-46-1.22-5.638-4.652-23.58 0-26.5"/><path fill="#e8f4fe" d="M485 389c3.827 14.665 1.438 26.566 3 37.5 3.205 22.433 10.698 44.733 11 67.5-2.974-12.596-5.192-25.382-8-38-2.967-13.337-6.27-26.71-9.5-40-1.339 6.391-5.497 22.165-12 25-6.732 2.935-12.341-1.288-19-1-5.442.236-10.988 4.167-16.5 3 8.989-6.456 16.339-7.641 25-13.5 1.022-13.436 17.746-34.437 19-46 .11-1.011-1.188-4.138-3-3.5.326-1.057.673-1.589 1-3 .688.171 3.306-2.056 3.5-2 3.366.966 4.656 10.766 5.5 14"/><path fill="#63d9fb" d="M434 443c-1.902 1.366-5.115 1.628-5 5-2.35 1.273-4.925 5.097-8 4.5l4.5-17.5c-7.672.639-15.34-.029-23 1-17.881 2.402-40.076 9.819-57.5 11-3.531.239-7.665-2.484-12 0 .674-1.234 1.462-2.087 2.5-3l116-17 .5-2c2.862-2.31 21.444-39.956 23-45 1.812-.638 3.11 2.489 3 3.5-1.254 11.563-17.978 32.564-19 46-8.661 5.859-16.011 7.044-25 13.5"/><path fill="url(#e)" d="M884 408c2.325 3.497 14.367 29.615 11.5 31-1.65-2.811-4.068-10.079-7.5-11 4.113-7.639-7.614-7.748-12.5-5-17.955 10.098-22.995 84.586-20.5 103.5.085.644 1.179 5.363 3 4.5.219 17.34 3.386 58.385 15 71.5 6.565 7.414 12.897 7.082 18-1.5 3.361 5.448-5.504 17.008-6 20h-1c.221-.854-.327-1.759 1-2.5-2.001-2.061-7.376 4.45-10.5 5.5-10.407 3.498-21.956 2.101-32.5 0-6.349-6.301-11.833-16.612-15-25-17.595-46.604-13.423-138.869 8-184 11.929-25.132 31.752-32.943 49-7" style="fill:url(#e)"/>/&gt;<path fill="url(#f)" d="M189 420c.382.932.635 3.018 1 4 11.156 30.064 16.131 68.986 16 101-.117 28.652-4.752 79.694-27 100-14.152 4.242-26.897-2.023-41-3-.221-.276-2.352-1.684-3-2-.257-5.483-6.787-13.815-5-20 .821 1.129.919 1.175 2 2 13.923 19.934 25.637-15.345 28-26.5 7.754-36.608-.892-65.846 1-99.5.459-8.154 2.966-6.068 3-6.5.697-8.781-10.625-43.546-19.5-47.5-5.116-2.279-8.488.516-13.5 0 1.75-4.624 5.162-12.064 8-16 19.549-27.107 40.132-10.1 50 14" style="fill:url(#f)"/>/&gt;<path fill="#01152a" d="M139 406c-2.838 3.936-6.25 11.376-8 16-1.595 4.215-3.141 9.037-4 13.5 22.768-25.155 30.639 25.502 34 40.5-1.892 33.654 6.754 62.892-1 99.5-2.363 11.155-14.077 46.434-28 26.5 11.634 8.877 14.246-1.251 18-10 13.98-32.582 12.877-95.078 5-129.5-13.447-58.762-27.297-12.448-30 16.5-.377 4.033-.801 7.934-1 12-.488 9.954-.448 22.031 0 32 .194 4.311.63 8.695 1 13 1.73 20.101 8.801 79.679 26 25.5.406-1.28 1.028-4.434 3-2.5-.887 5.508-5.837 29.191-12.5 30-9.502 1.153-10.269-18.724-15.5-21.5l4 17.5c-3.006-4.625-3.387-9.002-7-12-8.404-48.939-8.785-122.999 15-167z"/><path fill="#00162b" d="M898 573c-1.176 3.469-3.862 7.878-6 11l4-21.5c-9.835 36.638-22.225 32.143-28-2.5 2.052-1.882 2.452 1.006 3 2.5 2.774 7.561 5.045 21.348 15 21 7.805-5.497 12.484-56.757 12-67.5.772-19.984.684-52.009-7-70.5-14.444-34.76-25.374 23.718-27 35-4.25 29.488-4.031 85.258 8 112.5 4.818 10.91 11.039 18.799 20 5 .238 1.224-.439 2.057-1 3-5.103 8.582-11.435 8.914-18 1.5-11.614-13.115-14.781-54.16-15-71.5-.265-21.03 3.077-79.017 15-95.5 3.062-4.233 9.744-8.911 15-7.5 3.432.921 5.85 8.189 7.5 11 2.867-1.385-9.175-27.503-11.5-31h1c19.925 34.855 25.801 127.24 13 165"/><path fill="#2b5970" d="M835 415c-21.423 45.131-25.595 137.396-8 184-4.931-.108-2.021 5.863-1 8.5 5.206 13.443 24.425 33.476 40 31.5 1.056 4.322 1.664 10.697 1 15-.141.916-.797 1.048-1 2l-35-5c10.964-17.859 2.706-8.649-7-20.5-24.584-30.015-16.09-141.612-6-179 3.87-14.339 11.654-25.451 16-37.5z"/><path fill="#a6e6fe" d="M491 456c-7.495.771-54.025 4.274-56 .5-.729-1.393.53-8.679 0-11-.618-1.214-5.267 2.103-6 2.5-.115-3.372 3.098-3.634 5-5 5.512 1.167 11.058-2.764 16.5-3 6.659-.288 12.268 3.935 19 1 6.503-2.835 10.661-18.609 12-25 3.23 13.29 6.533 26.663 9.5 40"/><path fill="#2a82a5" d="M445 425c-4.431.27-13.405 3.735-14 1-.182-1.055.383-2.26 1-3 .687-.825 1.932-1.711 3-3l9.5-1z"/><path fill="#385c6f" d="M191 420c1.845 4.109 5.426 7.951 5 13-1.373-2.561-3.643-7.523-6-9-.365-.982-.618-3.068-1-4z"/><path fill="#d4eaef" d="M161 476c-3.361-14.998-11.232-65.655-34-40.5.859-4.463 2.405-9.285 4-13.5 5.012.516 8.384-2.279 13.5 0 8.875 3.954 20.197 38.719 19.5 47.5-.034.432-2.541-1.654-3 6.5"/><path fill="#c3dfe6" d="M888 428c-5.256-1.411-11.938 3.267-15 7.5-11.923 16.483-15.265 74.47-15 95.5-1.821.863-2.915-3.856-3-4.5-2.495-18.914 2.545-93.402 20.5-103.5 4.886-2.748 16.613-2.639 12.5 5"/><path fill="#116d92" d="M432 423c-.617.74-1.182 1.945-1 3-16.319 4.586-32.067 7.207-49 8 1.833-2.16 2.231-3.67 0-5 1.642-.264 2.166-.867 3-1 .276-.044 2.638 1.445 5.5 1 13.542-2.107 27.743-6.194 41.5-6"/><path fill="#789fac" d="M196 433c22.168 41.346 24.798 160.302 2 201.5-1.437 2.597-9.431 8.099-10 10.5-5.149-1.068-5.351-7.921-10-10-.548-.245-2.068.564-2-1 29.083-18.804 33.659-77.902 30-109 .131-32.014-4.844-70.936-16-101 2.357 1.477 4.627 6.439 6 9"/><path fill="#05152c" d="M574 424c14.561 2.771 111.955 16.19 116.5 20 1.895 1.588 2.717 4.053 2.5 6.5-.449 5.057-30.21 33.356-36 39.5-6.322 6.708-47.955 47.141-49 50.5-.998 3.207 2.308 19.289 3 24 .519 3.536 2.96 4.233 3 4.5 1.665 11.172 2.085 24.108 4 36 2.085 12.952 5.589 25.923 7 39 1.238 11.476 5.954 23.316-12 19-31.2-20.592-69.913-34.419-101.5-55l-107 57c-5.004-.055-7.934.537-8.5-5 1.192 3.412 5.532 3.589 8.5 3 3.535-.701 39.764-21.46 46.5-25 20.321-10.679 40.11-22.424 60.5-33 20.018 11.206 40.151 22.43 60.5 33 7.107 3.692 46.385 25.784 50.5 24 4.545-1.97.054-20.637-.5-25-4.107-32.367-12.047-64.449-18-96.5 21.303-21.529 43.105-42.58 64-64.5 5.032-5.279 27.481-22.776 22.5-30-1.038-1.506-7.848-1.602-9.5-2-31.592-7.602-66.821-9.049-99-16-1.456-.314-3.625.35-5 0-2.779-.707-5.716-1.032-8-3 .607-.404 4.75-1.048 5-1"/><path fill="#4c84a3" d="m384 425 1 3c-.834.133-1.358.736-3 1-2.721.437-11.749 4.824-12 1l2-5c2.123.466 9.471.231 12 0"/><path fill="#0a2e59" d="M445 425c2.308-.14 4.687.097 7 0l-.5 2-116 17c-1.038.913-1.826 1.766-2.5 3-4.03 7.383 10.468 17.097 15 22 6.245 6.756 12.767 13.233 19 20 16.038 17.413 32.087 34.921 48 52.5-6.051 36.36-14.505 72.565-20 109-.11.727-.927 8.029 2 3.5-.075.647.067 1.351 0 2-.198 1.914-1.504-.932-1 4 .566 5.537 3.496 4.945 8.5 5l107-57c31.587 20.581 70.3 34.408 101.5 55 2.33 1.538 3.397 3.731 7 3.5 3.236 4.803-44.356 22.283-48.5 23.5-24.308 7.14-50.173 10.79-75.5 9-23.93-1.692-44.769-8.148-66.5-18-3.044-1.38-15.757-10.758-17-11-4.674-.909-7.164 2.839-9 3-17.405 1.524-15.612-8.928-14.5-22 3.029-35.607 16.531-74.238 19-110.5-21.256-18.926-40.006-41.085-60-61.5 7.912-6.682-12.461-16.877-16-23.5-8.084-15.13 8.706-12.969 17-14.5 4.794-.885 31.096-4.144 32.5-5 .957-.584.315-1.782.5-2 16.933-.793 32.681-3.414 49-8 .595 2.735 9.569-.73 14-1"/><path fill="url(#g)" d="M582 428c4.189 6.237 14.967 4.048 20.5 5 25.84 4.443 52.271 11.618 78.5 11 1.652.398 8.462.494 9.5 2 4.981 7.224-17.468 24.721-22.5 30l-32.5 25c2.125-8.827 46.442-43.212 46.5-46.5.135-7.62-28.755 2.622-33.5 5.5-4.961 3.009-61.115 61.393-63.5 66-11.908 22.995 1.69 52.34-1 77-1.972 2.25-1.774 3.448-5.5 3-7.25-.872-46.625-20.641-57.5-25 .69-2.156-.679-3.568-1-5 5.732-3.567 3.532-10.543 7-17.5 3.611-7.244 17.717-18.373 23-27 16.912-27.616 15.889-60.949 24-91.5 3.503-.375 6.576 2.258 9-.5.022-.485-7.165-5.081-8-5.5l2-6c1.375.35 3.544-.314 5 0" style="fill:url(#g)"/>/&gt;<path fill="#15d0f3" d="M681 444c-26.229.618-52.66-6.557-78.5-11-5.533-.952-16.311 1.237-20.5-5 32.179 6.951 67.408 8.398 99 16"/><path fill="#1283a6" d="M382 434c-.185.218.457 1.416-.5 2-1.404.856-27.706 4.115-32.5 5l-1-5c7.295-1.544 15.394-2.258 22-6 .251 3.824 9.279-.563 12-1 2.231 1.33 1.833 2.84 0 5"/><path fill="#28d0e2" d="M150 592c-4.94-2.377-6.439 3.395-12.5 2-3.346-.77-5.784-6.359-7.5-9l-4-17.5c5.231 2.776 5.998 22.653 15.5 21.5 6.663-.809 11.613-24.492 12.5-30 2.075-12.885 2.197-25.967 2-39 1.064-8.669.428-21.929-1-30.5-1.071-6.428-3.625-13.901-7-19.5-.215-3.166-4.199-23.193-10-16.5-4.325 4.99-2.614 27.286 1 33.5-2.175-1.065-3.271-2.979-3.5-3-2.969-.276-6.974 8.026-10.5-5 2.703-28.948 16.553-75.262 30-16.5 7.877 34.422 8.98 96.918-5 129.5"/><path fill="#03b0c4" d="M898 516c-.062-1.373-.997-22.022-4-16.5-.797 1.466-3.386 27.191-5 33-.775 2.791-6.167 19.112-8.5 19.5-10.671-5.585-10.877-20.974-14.5-31.5-.053 13.145-.164 26.521 2 39.5 5.775 34.643 18.165 39.138 28 2.5l-4 21.5c-1.985 2.9-4.798 9.195-8.5 10-4.747 1.033-7.079-2.921-11.5-1-12.031-27.242-12.25-83.012-8-112.5 1.626-11.282 12.556-69.76 27-35 7.684 18.491 7.772 50.516 7 70.5m-17.5-64c-7.172 1.435-9.527 38.174-1 38 7.251-.148 10.028-39.807 1-38"/><path fill="#06afe3" d="M429 448c.733-.397 5.382-3.714 6-2.5.53 2.321-.729 9.607 0 11 1.975 3.774 48.505.271 56-.5 2.808 12.618 5.026 25.404 8 38 6.484 27.457 14.863 54.602 21 82 .321 1.432 1.69 2.844 1 5-9.68-3.879-25.723-14.559-36.5-10-4.221 1.785-29.488 30.796-37 37-15.988 13.203-39.339 21.004-46 42L416 546c.368-1.716 1.332-4.274 2-6 .095.138 2.29-.263 3 1.5.828 2.057-1.237 4.061-1 5 1.618 6.403 4.424 22.085 7 27 .891 1.701 1.991 2.565 3 1 .623-.966-.854-18.065 0-23 2.145-12.398 12.296-28.579 10-42-1.195-6.989-25.854-31.072-32.5-36.5-3.037-2.481-22.543-13.162-22.5-14.5.056-1.762 6.247-1.631 6.5-3.5l-46.5-8c17.424-1.181 39.619-8.598 57.5-11 7.66-1.029 15.328-.361 23-1l-4.5 17.5c3.075.597 5.65-3.227 8-4.5"/><path fill="#0d9dc8" d="m348 436 1 5c-8.294 1.531-25.084-.63-17 14.5 3.539 6.623 23.912 16.818 16 23.5h-1c-1.537-2.844-4.763-3.924-7-6-2.08-1.93-6.226-5.975-8-8-4.864-5.553-13.214-12.916-10-20.5 3.591-8.474 18.671-6.949 26-8.5"/><path fill="#106ca6" d="M741 453c11.168 49.925 4.057 115.062-23 159-43.973 71.407-137.774 103.303-218.5 90-.604-.1-4.307-1.351-3.5-3 25.327 1.79 51.192-1.86 75.5-9 4.144-1.217 51.736-18.697 48.5-23.5-3.603.231-4.67-1.962-7-3.5 17.954 4.316 13.238-7.524 12-19 2.028-.546 1.899.953 2 1v17.5l2.5 1.5c55.059-40.84 88.17-105.939 77.5-175.5-.912-5.947-5.857-27.61-8-32.5 1.755-.767 1.873-2.872 2-3 1.461-1.466 11.667-7.512 13.5-8 10.211-2.72 21.529-1.554 26.5 8"/><path fill="#4cd1fb" d="m345 447 46.5 8c-.253 1.869-6.444 1.738-6.5 3.5-.043 1.338 19.463 12.019 22.5 14.5 6.646 5.428 31.305 29.511 32.5 36.5 2.296 13.421-7.855 29.602-10 42-.854 4.935.623 22.034 0 23-1.009 1.565-2.109.701-3-1-2.576-4.915-5.382-20.597-7-27-.237-.939 1.828-2.943 1-5-.71-1.763-2.905-1.362-3-1.5-.265-.385-.757-1.703-1-2 3.219.091 2.245-1.582 1-3.5-10.277-15.832-43.89-43.897-58.5-55.5-3.919-3.112-6.887-9.993-11.5-10-4.532-4.903-19.03-14.617-15-22 4.335-2.484 8.469.239 12 0"/><path fill="#003b6a" d="M699 456c2.143 4.89 7.088 26.553 8 32.5 10.67 69.561-22.441 134.66-77.5 175.5l-2.5-1.5V645c.51.239 1.833-.367 2.5 1 1.506-1.581-4.762-32.53-5.5-37.5-.404-2.723-1.386-5.567-2-9.5-.7-4.49 2.172-6.274 2-7.5-.174-1.242-1.836 1.246-2 0-.629-4.785-2.018-25.121-8-22.5-.04-.267-2.481-.964-3-4.5-.692-4.711-3.998-20.793-3-24 1.045-3.359 42.678-43.792 49-50.5l37.5-39c.501-.111 4.365 4.692 4.5 5m-65.5 88c-8.418.928-13.876 17.741-5 22 16.35 7.846 19.75-23.626 5-22m37 17c-2.296.39-12.368 9.438-13.5 11.5-3.733 6.801-5.818 33.176.5 36.5 22.43 11.799 40.244-24.276 28.5-40.5-3.222-4.451-10.181-8.403-15.5-7.5"/><path fill="#fcfefe" d="M148 470c.28 4.129.14 12.994-2 16.5-4.204 6.889-5.413 1.277-7 .5-3.614-6.214-5.325-28.51-1-33.5 5.801-6.693 9.785 13.334 10 16.5"/><path fill="#3ecaf4" d="M668 476c-20.895 21.92-42.697 42.971-64 64.5 5.953 32.051 13.893 64.133 18 96.5-4.322.044-3.639-11.436-4-12.5-.148-.435-3.131-6.497-3.5-6.5-7.695-.063 1.171 14.422-.5 20.5-.122.443-6.049 6.412-6.5 6.5-3.207.628-33.421-17.858-39-20-8.285 11.491 6.686 6.495 12.5 14.5l-9-1.5c-20.349-10.57-40.482-21.794-60.5-33-20.39 10.576-40.179 22.321-60.5 33l-11 2.5c2.991-1.089 21.898-11.852 10.5-13.5-1.66-.24-26.836 13.108-30 15-5.691 3.403-14.644 12.988-19 15-2.82 1.302-2.562 1.453-4.5-1 .067-.649-.075-1.353 0-2 3.951-33.888 11.801-74.472 19-108l-14.5 104c6.661-20.996 30.012-28.797 46-42 7.512-6.204 32.779-35.215 37-37 10.777-4.559 26.82 6.121 36.5 10 10.875 4.359 50.25 24.128 57.5 25 3.726.448 3.528-.75 5.5-3 .159 3.228 15.504 2.191 16 1.5-2.032-7.317 6.641-23.695 6-29-.646-5.347-13.099-8.833-14-12-2.569-9.037 16.947-27.13-7-37.5 2.385-4.607 58.539-62.991 63.5-66 4.745-2.878 33.635-13.12 33.5-5.5-.058 3.288-44.375 37.673-46.5 46.5z"/><path fill="#fcfefd" d="M880.5 452c9.028-1.807 6.251 37.852-1 38-8.527.174-6.172-36.565 1-38"/><path fill="#40c8eb" d="M340 473c-2.789 7.562-8.286 12.755-10 21-.066.319.058.677 0 1-1.586.484-4.688 2.138-6 3-3.969.23-.818-5.846-2.5-7-.544-.373-9.189-1.299-11.5-5 7.573-7.173 10.494-18.517 22-21 1.774 2.025 5.92 6.07 8 8"/><path fill="#42d8f8" d="M417 538c-13.537-16.543-35.374-32.68-50-49-6.233-6.767-12.755-13.244-19-20 4.613.007 7.581 6.888 11.5 10 14.61 11.603 48.223 39.668 58.5 55.5 1.245 1.918 2.219 3.591-1 3.5"/><path fill="#12bfd1" d="M156 520c-.608 4.955-7.711 30.877-12.5 32-6.431-.969-7.791-11.695-9.5-17-1.414-4.389-2.04-8.55-3-13-1.971-9.138-1.987-19.492-4-27.5-.641-2.55.078-2.343-3-3.5.199-4.066.623-7.967 1-12 3.526 13.026 7.531 4.724 10.5 5 .229.021 1.325 1.935 3.5 3 1.587.777 2.796 6.389 7-.5 2.14-3.506 2.28-12.371 2-16.5 3.375 5.599 5.929 13.072 7 19.5 1.428 8.571 2.064 21.831 1 30.5"/><path fill="#2f80a9" d="m347 479-17 15c1.714-8.245 7.211-13.438 10-21 2.237 2.076 5.463 3.156 7 6"/><path fill="#26537d" d="M389 651c-34.341-36.707-68.185-104.682-59-156 .058-.323-.066-.681 0-1l17-15h1c19.994 20.415 38.744 42.574 60 61.5-2.469 36.262-15.971 74.893-19 110.5"/><path fill="#32b1d7" d="M324 498c-9.67 6.355-20.69 13.438-33 11-.321-4.278.444-10.031 0-14 8.085 1.644 13.572-3.859 19-9 2.311 3.701 10.956 4.627 11.5 5 1.682 1.154-1.469 7.23 2.5 7"/><path fill="#0b1f36" d="M417 538c.243.297.735 1.615 1 2-.668 1.726-1.632 4.284-2 6-7.199 33.528-15.049 74.112-19 108-2.927 4.529-2.11-2.773-2-3.5 5.495-36.435 13.949-72.64 20-109-15.913-17.579-31.962-35.087-48-52.5 14.626 16.32 36.463 32.457 50 49"/><path fill="#005a75" d="m131 522-7 1c-.448-9.969-.488-22.046 0-32 3.078 1.157 2.359.95 3 3.5 2.013 8.008 2.029 18.362 4 27.5"/><path fill="#07658a" d="M270 496c.34 1.088 4.911 7.028 6 8-1.173 1.789-1.931-1.708-2 2.5-.938 57.601 28.991 115.935 65 159 2.436 2.913 22.855 19.454 14.5 21.5-2.41.59-31.046-31.068-34.5-35.5-26.082-33.47-43.659-73.972-50-116-1.39-9.216 2.782-27.547-8-27.5-.018-.993.004-2.007 0-3z"/><path fill="url(#h)" d="M330 495c-9.185 51.318 24.659 119.293 59 156-1.112 13.072-2.905 23.524 14.5 22 1.836-.161 4.326-3.909 9-3 1.243.242 13.956 9.62 17 11 21.731 9.852 42.57 16.308 66.5 18-.807 1.649 2.896 2.9 3.5 3 80.726 13.303 174.527-18.593 218.5-90 .181 5.901-4.777 13.457-8 18.5-35.417 55.422-105.456 96.485-170 105.5-24.876 3.475-46.179 3.395-71-1-106.156-18.797-169.96-124.402-178-225-.026-.331.025-.669 0-1 12.31 2.438 23.33-4.645 33-11 1.312-.862 4.414-2.516 6-3" style="fill:url(#h)"/>/&gt;<path fill="#005671" d="M898 516c.484 10.743-4.195 62.003-12 67.5-9.955.348-12.226-13.439-15-21-.548-1.494-.948-4.382-3-2.5-2.164-12.979-2.053-26.355-2-39.5 3.623 10.526 3.829 25.915 14.5 31.5 2.333-.388 7.725-16.709 8.5-19.5 1.614-5.809 4.203-31.534 5-33 3.003-5.522 3.938 15.127 4 16.5"/><path fill="#19547b" d="M276 504c4.282 3.822 9.224 5.913 15 6 8.04 100.598 71.844 206.203 178 225 .46 6.825-5.199 7.171 2 10-16.212-1.755-34.075-5.681-49.5-11-6.853-2.363-37.787-19.056-40-19-2.095.053.245 3.302-2 3-1.272-.171-16.951-12.969-19.5-15 1.564-2.128.269-2.033-1-3.5-11.901-13.752-29.346-25.573-42-41-34.942-42.6-55.025-95.187-56-150.5 10.782-.047 6.61 18.284 8 27.5 6.341 42.028 23.918 82.53 50 116 3.454 4.432 32.09 36.09 34.5 35.5 8.355-2.046-12.064-18.587-14.5-21.5-36.009-43.065-65.938-101.399-65-159 .069-4.208.827-.711 2-2.5"/><path fill="#005a75" d="M154 559c-1.972-1.934-2.594 1.22-3 2.5-17.199 54.179-24.27-5.399-26-25.5l9-1c1.709 5.305 3.069 16.031 9.5 17 4.789-1.123 11.892-27.045 12.5-32 .197 13.033.075 26.115-2 39"/><path fill="#00738e" d="M131 522c.96 4.45 1.586 8.611 3 13l-9 1c-.37-4.305-.806-8.689-1-13z"/><path fill="#061c32" d="M176 634c-16.971 10.972-28.811 5.781-39.5-10-2.14 3.317-1.639 7.332-1.5 11 1.712 45.08 52.881 119.868 83 153 84.044 92.451 209.417 134.273 333.5 123 119.506-10.857 225.978-82.144 288.5-183 14.372-22.627 30.826-49.36 39-75 1.413-4.433 7.473-22.472 4-25.5-5.16 4.017-9.984 10.61-17 11.5-15.575 1.976-34.794-18.057-40-31.5-1.021-2.637-3.931-8.608 1-8.5 3.167 8.388 8.651 18.699 15 25 11.813 11.723 37.288 15.206 42-3h1c-.749 4.517 2.088 10.411 1 15.5-17.913 83.783-94.408 174.373-165 220.5-20.497 13.393-48.03 27.554-71 36-86.847 31.934-185.065 28.285-273 3-28.553-9.96-56.293-21.997-82-38-62.725-39.048-126.291-108.052-151-178.5-9.158-26.11-7.796-33.828-9-59.5.648.316 2.779 1.724 3 2 12.25 15.255 26.115 16.586 41 3 22.248-20.306 26.883-71.348 27-100 3.659 31.098-.917 90.196-30 109"/><path fill="#83ddfd" d="M584 603c2.69-24.66-10.908-54.005 1-77 23.947 10.37 4.431 28.463 7 37.5.901 3.167 13.354 6.653 14 12 .641 5.305-8.032 21.683-6 29-.496.691-15.841 1.728-16-1.5"/><path fill="#fcfcfd" d="M633.5 544c14.75-1.626 11.35 29.846-5 22-8.876-4.259-3.418-21.072 5-22"/><path fill="#fefefe" d="M670.5 561c5.319-.903 12.278 3.049 15.5 7.5 11.744 16.224-6.07 52.299-28.5 40.5-6.318-3.324-4.233-29.699-.5-36.5 1.132-2.062 11.204-11.11 13.5-11.5"/><path fill="#005686" d="M622 599c-2.935-.708-2.64 4.647-1 6.5l-3-.5c-1.915-11.892-2.335-24.828-4-36 5.982-2.621 7.371 17.715 8 22.5.164 1.246 1.826-1.242 2 0 .172 1.226-2.7 3.01-2 7.5"/><path fill="#3696a4" d="M130 585c1.716 2.641 4.154 8.23 7.5 9 6.061 1.395 7.56-4.377 12.5-2-3.754 8.749-6.366 18.877-18 10-1.081-.825-1.179-.871-2-2-3.708-5.098-5.861-20.367-7-27 3.613 2.998 3.994 7.375 7 12"/><path fill="#3491a0" d="M892 598c-8.961 13.799-15.182 5.91-20-5 4.421-1.921 6.753 2.033 11.5 1 3.702-.805 6.515-7.1 8.5-10 2.138-3.122 4.824-7.531 6-11-.326 7.446-1.893 18.675-6 25"/><path fill="#023461" d="M622 599c.614 3.933 1.596 6.777 2 9.5.738 4.97 7.006 35.919 5.5 37.5-.667-1.367-1.99-.761-2.5-1-.101-.047.028-1.546-2-1-1.411-13.077-4.915-26.048-7-39l3 .5c-1.64-1.853-1.935-7.208 1-6.5"/><path fill="#0da4d5" d="M622 637c.554 4.363 5.045 23.03.5 25-4.115 1.784-43.393-20.308-50.5-24l9 1.5c-5.814-8.005-20.785-3.009-12.5-14.5 5.579 2.142 35.793 20.628 39 20 .451-.088 6.378-6.057 6.5-6.5 1.671-6.078-7.195-20.563.5-20.5.369.003 3.352 6.065 3.5 6.5.361 1.064-.322 12.544 4 12.5"/><path fill="#a9cfd8" d="M884 621c-4.712 18.206-30.187 14.723-42 3 10.544 2.101 22.093 3.498 32.5 0 3.124-1.05 8.499-7.561 10.5-5.5-1.327.741-.779 1.646-1 2.5"/><path fill="#add2da" d="M179 625c-14.885 13.586-28.75 12.255-41-3 14.103.977 26.848 7.242 41 3"/><path fill="#89b0bd" d="M176 634c-.068 1.564 1.452.755 2 1 2.023 2.773 5.245 13.884 10 12 .588 5.317 35.029 48.852 41 55.5 17.319 19.284 39.039 38.259 60 53.5-.604 2.264-1.959 1.846-3.5 1-26.068-14.305-66.147-60.225-84.5-84.5-2.425-3.208-14.121-23.217-15.5-23.5-1.41-.289-8.18 5.538-10 6-8.456 2.145-21.674.829-29-4-6.103-4.023-7.66-10.617-11.5-16-.139-3.668-.64-7.683 1.5-11 10.689 15.781 22.529 20.972 39.5 10"/><path fill="#01a4d8" d="M451 638c-6.736 3.54-42.965 24.299-46.5 25-2.968.589-7.308.412-8.5-3-.504-4.932.802-2.086 1-4 1.938 2.453 1.68 2.302 4.5 1 4.356-2.012 13.309-11.597 19-15 3.164-1.892 28.34-15.24 30-15 11.398 1.648-7.509 12.411-10.5 13.5z"/><path fill="#76a5b4" d="m879 653-12 1c.664-4.303.056-10.678-1-15 7.016-.89 11.84-7.483 17-11.5 3.473 3.028-2.587 21.067-4 25.5"/><path fill="#bad5dd" d="M289 756c8.053 5.855 16.493 11.833 25 17-2.862 8.762-3.436 16.637 7.5 15l-.5 3c-21.467-3.531-36.975 7.435-27 30-5.693-5.055-11.276-1.072-18.5-2-7.322-.941-22.005-4.976-28-9-2.645-1.775-5.702-8.152-8-9-2.697-.995-5.727 1.135-6 1-4.883-2.413-9.365-12.418-15.5-14-30.119-33.132-81.288-107.92-83-153 3.84 5.383 5.397 11.977 11.5 16 7.326 4.829 20.544 6.145 29 4 1.82-.462 8.59-6.289 10-6 1.379.283 13.075 20.292 15.5 23.5 18.353 24.275 58.432 70.195 84.5 84.5 1.541.846 2.896 1.264 3.5-1"/><path fill="#537384" d="M188 645c-.126.532-.066 1.406 0 2-4.755 1.884-7.977-9.227-10-12 4.649 2.079 4.851 8.932 10 10"/><path fill="#47788b" d="M866 656c-3.873 18.179-20.894 46.8-31 63-29.645 47.521-70.199 90.105-117 121l-2-6c3.444-1.902 11.916-11.7 13-15.5 7.81-27.374-17.312-33.75-38-24.5l-4-9c53.629-27.909 112.333-82.417 144-134z"/><path fill="#bad5dd" d="M879 653c-8.174 25.64-24.628 52.373-39 75l-2-.5c5.642-5.71 3.491-5.718-3-8.5 10.106-16.2 27.127-44.821 31-63 .203-.952.859-1.084 1-2z"/><path fill="#8cb2bd" d="M840 728c-62.522 100.856-168.994 172.143-288.5 183-124.083 11.273-249.456-30.549-333.5-123 6.135 1.582 10.617 11.587 15.5 14 .273.135 3.303-1.995 6-1 2.298.848 5.355 7.225 8 9 5.995 4.024 20.678 8.059 28 9 7.224.928 12.807-3.055 18.5 2 8.859 20.042 50.283 26.091 54 1.5 2.536-16.776-11.486-28.948-27-31.5l.5-3c-10.936 1.637-10.362-6.238-7.5-15 18.042 10.959 39.22 21.587 59 29l-6 12.5 10 4.5c-1.707.259-4.902-.172-3.5 3 43.237 15.45 88.494 23.033 134.5 23l-27 50.5-6 1c86.083 8.396 170.765-8.815 243-56.5 46.801-30.895 87.355-73.479 117-121 6.491 2.782 8.642 2.79 3 8.5z"/><path fill="#608a9a" d="M386.5 722c34.009 20.594 72.052 32.493 112 34 9.947.375 39.268-3.257 45-2 .621.136 2.562 2.906 3.5 3.5-45.863 7.852-88.182 3.217-130.5-15.5-4.542-2.009-26.565-12.688-29-15-1.257-1.193-3.403-3.489-1-5"/><path fill="#073d63" d="m540 736 5 10c-16.46 2.06-59.453 4.717-74-1-7.199-2.829-1.54-3.175-2-10 24.821 4.395 46.124 4.475 71 1"/><path fill="#36667b" d="m687 785 4 9c-9.251 4.136-18.842 15.262-18 26-4.552-.472-11.581-6.621-15.5-7-5.765-.558-8.75 3.086-12.5 4-62.675 15.272-103.921 23.251-170 19 2.268-5.115 7.068-.047 7.5 0 13.856 1.502 31.399-2.577 46 0l.5-9c55.031-2.018 109.32-16.667 158-42"/><path fill="#04162d" d="M321 791c15.514 2.552 29.536 14.724 27 31.5-3.717 24.591-45.141 18.542-54-1.5-9.975-22.565 5.533-33.531 27-30m-10.5 2c-27.712 3.978-15.502 46.99 16 43 31.148-3.946 18.157-47.903-16-43"/><path fill="#02152d" d="M716 834c-13.796 7.619-41.441 5.88-43-14-.842-10.738 8.749-21.864 18-26 20.688-9.25 45.81-2.874 38 24.5-1.084 3.8-9.556 13.598-13 15.5m-14.5-41c-27.584 3.857-34.21 40.276-5 43 33.522 3.126 44.225-48.485 5-43"/><path fill="#026487" d="M310.5 793c34.157-4.903 47.148 39.054 16 43-31.502 3.99-43.712-39.022-16-43m4 8c-14.526 3.153-11.25 31.034 8 28 16.899-2.663 12.589-32.469-8-28"/><path fill="#014e70" d="M701.5 793c39.225-5.485 28.522 46.126-5 43-29.21-2.724-22.584-39.143 5-43m-3 8c-10.355 2.175-14.684 20.078-4 26 23.543 13.048 31.177-31.709 4-26"/><path fill="#02142c" d="M314.5 801c20.589-4.469 24.899 25.337 8 28-19.25 3.034-22.526-24.847-8-28m1 4c-8.128 1.907-8.802 15.679-1 19 18.28 7.781 20.116-23.486 1-19"/><path fill="#01132a" d="M698.5 801c27.177-5.709 19.543 39.048-4 26-10.684-5.922-6.355-23.825 4-26m0 4c-9.545 2.556-9.085 23.043 6 20 11.612-2.342 10.079-24.305-6-20"/><path fill="#6b96a6" d="m435 820-2 11c-12.409-2.231-47.048-13.36-56-12l-10-4.5 6-12.5c19.521 7.316 41.536 13.937 62 18"/><path fill="#9ebec6" d="M315.5 805c19.116-4.486 17.28 26.781-1 19-7.802-3.321-7.128-17.093 1-19"/><path fill="#80a9b4" d="M698.5 805c16.079-4.305 17.612 17.658 6 20-15.085 3.043-15.545-17.444-6-20"/><path fill="#6b96a6" d="M673 820c1.559 19.88 29.204 21.619 43 14l2 6c-72.235 47.685-156.917 64.896-243 56.5l6-1 27-50.5c34.542-.025 108.525-6.591 138.5-23 5.242-2.87.973-2.425-1.5-5 3.75-.914 6.735-4.558 12.5-4 3.919.379 10.948 6.528 15.5 7"/><path fill="#cbe0e5" d="M645 817c2.473 2.575 6.742 2.13 1.5 5-29.975 16.409-103.958 22.975-138.5 23-46.006.033-91.263-7.55-134.5-23-1.402-3.172 1.793-2.741 3.5-3 8.952-1.36 43.591 9.769 56 12 14.475 2.602 27.294 4.054 42 5 66.079 4.251 107.325-3.728 170-19"/><path fill="#49798c" d="m529 827-.5 9c-14.601-2.577-32.144 1.502-46 0-.432-.047-5.232-5.115-7.5 0-14.706-.946-27.525-2.398-42-5l2-11c30.776 6.111 62.623 8.151 94 7"/></svg>