<svg xmlns="http://www.w3.org/2000/svg" width="1024" height="1024"><defs><linearGradient id="a" x1="309.82" x2="703.693" y1="168.581" y2="178.585" gradientUnits="userSpaceOnUse"><stop offset="15.482%" style="stop-color:#d4e8f1"/><stop offset="100%" style="stop-color:#90b2c3"/></linearGradient></defs><defs><linearGradient id="b" x1="569.892" x2="816.749" y1="416.361" y2="615.235" gradientUnits="userSpaceOnUse"><stop offset="0%" style="stop-color:#407e94"/><stop offset="100%" style="stop-color:#296980"/></linearGradient></defs><defs><linearGradient id="c" x1="363.06" x2="220.334" y1="287.145" y2="691.707" gradientUnits="userSpaceOnUse"><stop offset="0%" style="stop-color:#fdfdfe"/><stop offset="100%" style="stop-color:#badeea"/></linearGradient></defs><defs><linearGradient id="d" x1="350.335" x2="418.516" y1="435.993" y2="494.741" gradientUnits="userSpaceOnUse"><stop offset="0%" style="stop-color:#0d8ded"/><stop offset="100%" style="stop-color:#06b9e6"/></linearGradient></defs><defs><linearGradient id="e" x1="525.748" x2="512.403" y1="391.354" y2="553.807" gradientUnits="userSpaceOnUse"><stop offset="0%" style="stop-color:#202c53"/><stop offset="100%" style="stop-color:#085f86"/></linearGradient></defs><defs><linearGradient id="f" x1="200.325" x2="221.526" y1="605.415" y2="653.99" gradientUnits="userSpaceOnUse"><stop offset="0%" style="stop-color:#565c5f"/><stop offset="100%" style="stop-color:#353c40"/></linearGradient></defs><path fill="#2c7c96" d="M522 101c1.612.287 4.076 1.819 6.5 1l-1.5 3c-94.908-1.67-196.374 27.422-262 98.5 1.586.29 3.032 2.018 4 2.5v1c-2.123-.459-3.509-1.39-5.5-2-24.745 29.221-45.725 63.547-59.5 99.5-5.047 13.172-15.073 41.427-17 54.5l-2-1c2.164-5.328 3.072-17.097 5-23.5C231.069 198.122 323.663 118.806 466.5 103c13.8-1.527 42.74-4.271 55.5-2"/><path fill="#0d4059" d="M839 363c-.128.78-.656 1.183-1 2-1.585 3.766-5.116 5.63-8 14-3.999 5.651-7.042 14.869-9 21.5-13.565 45.928-21.991 102.649-26 150.5-.749 8.94-1.558 18.047-2 27-1.063 21.521-3.029 51.726 1 72.5.15.773.92 6.863 3 4.5.315 1.525-.121 6.672 0 7h-1c-2.381-3.04-2.188-2.606-4 .5-9.53 16.337-18.734 52.019-28 72-7.887 17.008-17.257 33.501-27 49.5l-7-4c8.839-14.403 17.513-29.337 25-44.5 6.805-13.782 35.441-74.865 37-86 .597-4.261-2.045-16.085-2-21 .613-66.499 7.958-202.385 41-259 1.166-1.997 5.874-4.63 6-5 .539-1.582-4.171-28.894-5-33-11.377-56.329-39.972-112.606-82.5-151.5-8.602 7.675-16.053 16.223-25.5 23-4.833 3.467-10.765 7.173-16 10-5.558 3.002-15.245 7.788-21 10-23.388 8.991-54.022 14.327-79 17-.226-1.755-4.958-2.868-6-3 43.68-4.538 83.555-13.864 120-39 8.754-6.037 16.914-12.609 25-19.5-31.343-24.586-70.397-42.673-108.5-54.5-9.691-3.008-20.596-4.873-29.5-7-23.306-5.567-39.571-9.365-64-11-5.255-.352-10.765-.876-16-1-.661-.016-1.339.012-2 0l1.5-3c-2.424.819-4.888-.713-6.5-1 115.557-2.04 236.589 45.391 288 154.5 15.863 33.667 23.918 70.733 29 107.5"/><path fill="#f3f8fa" d="M527 105c.661.012 1.339-.016 2 0 1.779 6.748-4.728 14.218 1 19-85.189-7.11-185.803 24.65-246 86-3.628-1.044-12.411-2.71-15-4-.968-.482-2.414-2.21-4-2.5 65.626-71.078 167.092-100.17 262-98.5"/><path fill="#d3e8f0" d="M545 106c-.32 1.498-4.024 1.077-.5 3 4.234 2.311 15.54 3.88 21 6 24.02 9.324 47.732 22.813 65.5 41.5-33.067-12.953-64.895-29.487-101-32.5-5.728-4.782.779-12.252-1-19 5.235.124 10.745.648 16 1"/><path fill="url(#a)" d="M609 117c43.121 17.971 82.881 45.106 113 81-36.445 25.136-76.32 34.462-120 39-12.62-1.594-37.218 2.808-51.5 3-66.934.901-137.793-4.122-203.5-16 .306-3.232-2.433-.73-1-3.5 1.309-2.529 22.633-20.439 26.5-23.5 37.313-29.536 84.887-56.879 133-61 1.657-1.282-1.381-2.825-2-3-8.121-2.302-42.137 1.244-52 3-52.509 9.348-95.726 44.608-131.5 82-12.009-2.637-24.161-4.593-36-8 60.197-61.35 160.811-93.11 246-86 36.105 3.013 67.933 19.547 101 32.5-17.768-18.687-41.48-32.176-65.5-41.5-5.46-2.12-16.766-3.689-21-6-3.524-1.923.18-1.502.5-3 24.429 1.635 40.694 5.433 64 11" style="fill:url(#a)"/>/&gt;<path fill="#387288" d="M722 198c-30.119-35.894-69.879-63.029-113-81 8.904 2.127 19.809 3.992 29.5 7 38.103 11.827 77.157 29.914 108.5 54.5-8.086 6.891-16.246 13.463-25 19.5"/><path fill="#fafbfc" d="M347 224c-9.066-1.639-18.023-4.029-27-6 35.774-37.392 78.991-72.652 131.5-82 9.863-1.756 43.879-5.302 52-3 .619.175 3.657 1.718 2 3-48.113 4.121-95.687 31.464-133 61-3.867 3.061-25.191 20.971-26.5 23.5-1.433 2.77 1.306.268 1 3.5"/><path fill="url(#b)" d="M730 780c-4.589 7.477-8.954 15.884-14 23-26.91 37.949-62.721 68.747-103.5 91-1.54.84-6.129 3.36-7.5 1 36.93-20.237 64.289-48.473 89-82 58.639-79.562 73.978-161.901 86-258.5 3.658-29.39 9.32-68.451 8-97.5 3.524-88.576-14.259-180.139-64-254 9.447-6.777 16.898-15.325 25.5-23 42.528 38.894 71.123 95.171 82.5 151.5.829 4.106 5.539 31.418 5 33-.126.37-4.834 3.003-6 5-33.042 56.615-40.387 192.501-41 259-.045 4.915 2.597 16.739 2 21-1.559 11.135-30.195 72.218-37 86-7.487 15.163-16.161 30.097-25 44.5" style="fill:url(#b)"/>/&gt;<path fill="#89b3c5" d="M788 457c-.726-15.97 1.346-16.451-15-17.5-1.314-61.828-9.046-126.721-38-182-8.043-15.356-19.601-28.811-27-44.5 5.235-2.827 11.167-6.533 16-10 49.741 73.861 67.524 165.424 64 254"/><path fill="#ecf5f9" d="M269 207c3.419.74 8.287 2.862 12 4-28.937 36.799-56.626 78.727-69 124.5-4.206 15.556-5.196 32.104-10 47.5-1.767-2.744-3.876-7.649-7-7-3.994-8.31-9.216-8.751-8-17 1.927-13.073 11.953-41.328 17-54.5 13.775-35.953 34.755-70.279 59.5-99.5 1.991.61 3.377 1.541 5.5 2"/><path fill="#266f86" d="M284 210c11.839 3.407 23.991 5.363 36 8 8.977 1.971 17.934 4.361 27 6 65.707 11.878 136.566 16.901 203.5 16 14.282-.192 38.88-4.594 51.5-3 1.042.132 5.774 1.245 6 3-4.932.528-10.054.619-15 1-78.931 6.086-175.414 1.43-253-14-7.8-1.551-15.282-3.079-23-5-13.04-3.245-23.519-7.174-36-11-3.713-1.138-8.581-3.26-12-4v-1c2.589 1.29 11.372 2.956 15 4"/><path fill="#bee1ee" d="M317 222c-36.235 35.792-67.899 76.027-83 125.5-7.028 23.025-9.492 47.355-16 70.5-4.224-11.958-9.114-24.309-16-35 4.804-15.396 5.794-31.944 10-47.5 12.374-45.773 40.063-87.701 69-124.5 12.481 3.826 22.96 7.755 36 11"/><path fill="#79a9bc" d="M708 213c7.399 15.689 18.957 29.144 27 44.5 28.954 55.279 36.686 120.172 38 182 16.346 1.049 14.274 1.53 15 17.5 1.32 29.049-4.342 68.11-8 97.5-12.022 96.599-27.361 178.938-86 258.5-28.263 34.811-62.084 65.736-103 85l-6 .5c78.767-57.459 131.199-137.314 157-231 20.92-75.963 31.474-160.724 29.5-239.5L739 462c-2.272-32.991-12.757-60.551-28-89-8.537-15.934-18.033-31.24-30-45 8.999-10.351 10.24-25.35 11-38.5 1.194-20.677.002-46.674-5-66.5 5.755-2.212 15.442-6.998 21-10"/><path fill="url(#c)" d="M340 227c-74.905 68.348-85.817 169.586-81 266 3.739 74.834 16.94 155.332 38 227 3.94 13.409 8.214 25.9 13 39 8.095 22.157 16.068 46.093 29 66-49.134-52-72.505-123.798-98-189.5-.458-1.18-2.285-5.824-4-5.5 12.18-59.432 1.078-149.604-18-207-.386-1.163-.22-2.791-1-5 6.508-23.145 8.972-47.475 16-70.5 15.101-49.473 46.765-89.708 83-125.5 7.718 1.921 15.2 3.449 23 5" style="fill:url(#c)"/>/&gt;<path fill="#9dc7d7" d="M687 223c5.002 19.826 6.194 45.823 5 66.5-.76 13.15-2.001 28.149-11 38.5-20.059-23.066-59.636-52.927-88-64-3.03-6.273-.395-15.784 0-23 4.946-.381 10.068-.472 15-1 24.978-2.673 55.612-8.009 79-17"/><path fill="#cbe8f3" d="M593 241c-.395 7.216-3.03 16.727 0 23-150.107-58.602-310.481 58.331-304 218-2.259 4.904.035 24.605-2.5 10l-27.5 1c-4.817-96.414 6.095-197.652 81-266 77.586 15.43 174.069 20.086 253 14"/><path fill="#0f4760" d="M593 264c28.364 11.073 67.941 40.934 88 64 11.967 13.76 21.463 29.066 30 45 48.417 99.193 15.327 220.036-76 281-94.295 62.945-216.279 44.98-293-36-13.552-16.931-19.033-29.156-29-47.5-1.788-3.292-2.622 1.632-3 0-.476-2.054 1.435-3.098 1-4-.589-1.221-1.412 1.222-2 0-10.461-21.751-18.923-57.961-20-84.5-6.481-159.669 153.893-276.602 304-218m-238 55c-68.704 70.683-83.133 174.44-34 261 7.005 12.341 14.678 22.374 24 33 105.269 119.991 301.334 92.903 366-54 29.687-67.442 23.943-144.497-16-206.5-1.983-3.078-5.191-8.56-9-9.5-1.665-8.179-25.675-31.481-33-37-2.684-2.022-5.22-4.074-8-6-86.395-70.81-213.044-60.172-290 19"/><path fill="#82b5c0" d="M645 300c-11.363-7.871-35.909-22.441-50.5-28-2.672-1.018-14.752-6.906-12.5 0-1.832-.204-3.772-1.627-5.5-1-2.417.877-6.832 7.829-4.5 12 1.678 3.002 9.665 5.213 13 6 .823.194 1.675 2.19 4 0 1.724 3.478 21.749 10.403 24.5 14 2.431 3.179.151 6.199-3.5 6-122.71-73.284-278.964 9.234-289 150-.007-.16-1.97-1.938-2-2.5-.133-2.468 2.967-13.134 2-15-1.254-2.419-4.422-.917-5-2-1.15-2.154 9.708-34.285 9-36-.276-.667-11.958-1.762-14-3.5 7.395-20.885 17.724-40.433 32-57.5-.81-3.061-3.373 3.2-4-2 .353-2.272 17.287-17.081 16-21.5 76.956-79.172 203.605-89.81 290-19m-128.5-35c-1.26-.202-7.373 5.012-3 7 5.669 2.577 7.873-6.218 3-7m-132 43c-4.782.391-4.633 11.083 1 12 3.908-2.258 4.39-12.44-1-12m-36 40c-3.638.785 1.953 6.499 4 5 2.288-1.676-.699-5.712-4-5"/><path fill="#134f6c" d="M516.5 265c4.873.782 2.669 9.577-3 7-4.373-1.988 1.74-7.202 3-7"/><path fill="#e8f6f8" d="M645 300c2.78 1.926 5.316 3.978 8 6 .774 1.838 3.42 6.908-.5 7-1.93.045-25.621-19.775-31-23-10.548-6.324-26.642-14.651-38.5-17-1.379-.273-.93-.992-1-1-2.252-6.906 9.828-1.018 12.5 0 14.591 5.559 39.137 20.129 50.5 28"/><path fill="#09293f" d="M582 272c.07.008-.379.727 1 1 5.528 3.823 4.865 13.711 6 16-2.325 2.19-3.177.194-4 0 5.113-8.814-11.422-19.91-13-6-2.332-4.171 2.083-11.123 4.5-12 1.728-.627 3.668.796 5.5 1"/><path fill="#a9d7e1" d="M653 306c7.325 5.519 31.335 28.821 33 37 .22 1.083 1.383 1.39 1 2.5-2.58 3.731-4.443.714-8 3.5.359-4.568-1.701-8.361-4.5-12 .957 5.229-3.724 1.761-8 4-2.915 1.526-2.294 4.748-2.5 5-1.345 1.643-3.717 3.817-6 4-11.7-13.959-32.383-31.673-48-41 3.651.199 5.931-2.821 3.5-6-2.751-3.597-22.776-10.522-24.5-14-1.135-2.289-.472-12.177-6-16 11.858 2.349 27.952 10.676 38.5 17 5.379 3.225 29.07 23.045 31 23 3.92-.092 1.274-5.162.5-7"/><path fill="#1e7393" d="M585 289c-3.335-.787-11.322-2.998-13-6 1.578-13.91 18.113-2.814 13 6"/><path fill="#013655" d="M610 309c15.617 9.327 36.3 27.041 48 41 33.802 40.328 48.485 91.714 42 144-2.984 24.059-11.034 48.884-23 70-30.783 54.322-90.757 91.1-153 95-69.987 4.385-78.465-15.385-133-40-42.034-35.021-65.809-80.146-70-135-.624-8.168.339-16.768 0-25 10.036-140.766 166.29-223.284 289-150M330 473c.508 41.62 16.865 82.441 45 113-9.936 5.103 8.15 19.283 13.5 24 55.186 48.652 129.203 58.351 195.5 27 16.172-7.648 30.394-17.467 44-29 43.379-36.769 68.584-93.424 64-151-6.493-81.547-80.595-150.864-160.5-160-101.766-11.636-202.769 72.09-201.5 176"/><path fill="#055177" d="m692 457-18-3c-12.015-86.481-92.567-154.855-180.5-149-73.615 4.902-148.363 76.53-147.5 152-.315 2.498-.007 3.59 0 6-4.451 2.309-1.256 12.421-1 16l-2.5-8-12.5 2c-1.269-103.91 99.734-187.636 201.5-176 79.905 9.136 154.007 78.453 160.5 160"/><path fill="#1c6c9a" d="M674 454c.825 5.94 1.848 11.985 2 18-17.073-2.446-28.78-23.601-42.5-31-2.136-1.152-5.023-2.883-7.5-1-4.881-11.278-17.55-27.855-26-37-11.531-12.479-25.485-23.764-41.5-30-15.286-5.952-37.925-10.775-53.5-6-21.922-47.779-104.43-32.001-103 22-35.537-24.084-30.688 21.553-19 41.5-19.961-3.139-34.417 5.995-37 26.5-.863-75.47 73.885-147.098 147.5-152 87.933-5.855 168.485 62.519 180.5 149"/><path fill="#124963" d="M384.5 308c5.39-.44 4.908 9.742 1 12-5.633-.917-5.782-11.609-1-12"/><path fill="#def1f4" d="M311 400c-7.907 22.332-11.486 40.083-12 64-.333 15.507.874 30.702 3 46 1.74 12.521 3.665 25.335 8 37.5 1.875 5.262 14.901 27.371 15 29 .186 3.052-1.244 3.839-4 3.5-49.133-86.56-34.704-190.317 34-261 1.287 4.419-15.647 19.228-16 21.5.627 5.2 3.19-1.061 4 2-14.276 17.067-24.605 36.615-32 57.5"/><path fill="#0f4a6c" d="M679 349c-.535 6.82-4.226 8.431-10 5 13.464-1.125-2.671-13.483-3-4-.638-1.065-2.459-2.229-2-4 .206-.252-.415-3.474 2.5-5 4.276-2.239 8.957 1.229 8-4 2.799 3.639 4.859 7.432 4.5 12"/><path fill="#9fe0fd" d="M505 367c.85 1.853 3.819 12.918 4 15 3.476 40.056-38.143 68.482-75 54-1.962-1.857-5.675-2.696-6-3-2.894-2.704-6.232-5.214-9-8-1.281-1.29-5.348-5.109-6-6-5.498-7.516-10.751-20.608-11-30-1.43-54.001 81.078-69.779 103-22"/><path fill="#82b5c0" d="M711 559c-.111-11.336 12.875-25.633 8-36 3.571-14.722 5.61-30.825 6-46a279 279 0 0 0-1-31.5c-.729-8.145-5.506-19.666-6-27-.171-2.531 2.985-.968 3-2 .225-15.234-11.714-9.648-22-6 8.183 21.083 10.348 42.964 10 65.5-.056 3.631.236 7.387 0 11l-3.5 9-5.5-2c6.485-52.286-8.198-103.672-42-144 2.283-.183 4.655-2.357 6-4-.459 1.771 1.362 2.935 2 4 .996 1.663.059 2.253 3 4 5.774 3.431 9.465 1.82 10-5 3.557-2.786 5.42.231 8-3.5.383-1.11-.78-1.417-1-2.5 3.809.94 7.017 6.422 9 9.5 39.943 62.003 45.687 139.058 16 206.5"/><path fill="#0578a6" d="M669 354c-2.941-1.747-2.004-2.337-3-4 .329-9.483 16.464 2.875 3 4"/><path fill="#143d55" d="M348.5 348c3.301-.712 6.288 3.324 4 5-2.047 1.499-7.638-4.215-4-5"/><path fill="#20252a" d="M187 359c-1.216 8.249 4.006 8.69 8 17 8.935 18.592 13.583 38.945 18 59 15.235 69.184 21.948 143.206 18 214-.022.067-.493-.38-1 1-.984 2.675-1.573 5.015-1 8-1.92 4.81-3.592 13.509-9.5 15-3.802.96-29.479 1.038-35.5 1l3-8c-.059 1.68.892 2.164 1 4 .007.125-3.36-.415-1.5 2 4.835-1.931 10.019-.629 15-1 .777-.058.222-1.936 1-2 5.873-.481 15.696 2.167 19.5-2 7.131-7.812 6.459-74.647 6-89-.439-13.736-1.765-29.245-3-43-1.222-13.612-3.123-27.456-5-41-4.003-28.88-9.113-57.014-17-85-3.241-11.5-5.845-24.632-12-35-1.662-2.799-3.816-8.021-7.5-9-6.192-1.647-28.245 3.728-33.5 9-.701-.677-2.091-1.506-3-2 7.887-5.699 25.787-8.227 35.5-9 1.23-.509 1.907-3.54 2.5-5z"/><path fill="#222c2f" d="M883 411c-.643-.045-1.364-.072-2 0l-4-35.5c-2.614-2.558-8.338 10.021-9 11.5-1.291 2.882-1.601 6.666-4 9 .017-.254-.573-4.423-1-5 2.32-6.231 4.269-12.517 9-17.5.408-2.163-1.682-1.253-2-1.5-5.712-4.437-24.536-7.147-32-7 .344-.817.872-1.22 1-2 7.359-.511 36.581 6.003 40 11.5 3.408 5.48 3.256 29.109 4 36.5"/><path fill="#88969b" d="m191 374 2.5 13c-3.931 2.891-12.576 1.004-15 2-1.252.514-3.615 7.517-12.5 6-.902-1.926-3.713-7.41-6-8-.299-.966-4.478-14.343-7-10-.117-.177-2.469-2.487-3-3 5.255-5.272 27.308-10.647 33.5-9 3.684.979 5.838 6.201 7.5 9"/><path fill="#126189" d="M600 403c-3.352 3.782-12.636 3.163-13 9-19.597-21.709-49.186-31.002-78-30-.181-2.082-3.15-13.147-4-15 15.575-4.775 38.214.048 53.5 6 16.015 6.236 29.969 17.521 41.5 30"/><path fill="#8a999c" d="M870 372c-3.716 5.873-8.644 10.834-12 17-10.317-1.725-21.593 4.124-31 0 .989-3.23 1.915-6.85 3-10 2.884-8.37 6.415-10.234 8-14 7.464-.147 26.288 2.563 32 7"/><path fill="#131b22" d="M150 374c.531.513 2.883 2.823 3 3 4.016 6.08 5.657 16.168 9 23 14.35 56.375 25.097 113.547 28 172-.178 19.139 2.706 38.359 0 57.5l3-6.5c-.031.377 2.081 5.619 1 7.5-.662 1.153-3.34-.153-4 1-.86 1.503-2.852 30.266-3 34.5l-3 8c-.86-.005-1.511 1.531-3.5 1-5.426-1.447-10.99-24.093-11.5-30 2.156 5.009 7.445 24.12 10 26.5 3.328 3.1 4.379-4.07 5-6.5 1.706-6.671 2.401-17.84 3-25 .537-6.419.825-13.546 1-20 .422-15.591-.284-31.434-1-47-1.662-36.121-6.257-72.511-13-108-.58-3.054-1.965-2.823-2-3-1.822-9.182-2.406-20.099-5-30-1.402-5.351-2.28-10.702-4-16l-16.5-41c-4.855-.134-5.825 30.726-6.5 35-.049-.008-.95-.006-1 0 1.04-11.442-1.465-31.16 8-38 .909.494 2.299 1.323 3 2"/><path fill="#fbfcfd" d="M863 391c-7.154 19.218-11.56 38.964-16 59l-1-27.5-26-.5c.637-2.431 1.461-5.076 2-7.5.729-3.278-2.452-1.975-2-4 .194-.868 1.972-1.378 2-1.5 32.023 6.459 24.892.409 36-20 3.356-6.166 8.284-11.127 12-17 .318.247 2.408-.663 2 1.5-4.731 4.983-6.68 11.269-9 17.5"/><path fill="#4e7180" d="M739 462c3.35 48.634-7.719 96.685-35 137-18.127 26.788-43.15 48.709-71 65l2-10c91.327-60.964 124.417-181.807 76-281 15.243 28.449 25.728 56.009 28 89"/><path fill="#adb8ba" d="M203 409c-24.891 1.024-25.868 9.763-37-14 8.885 1.517 11.248-5.486 12.5-6 2.424-.996 11.069.891 15-2l-2.5-13c6.155 10.368 8.759 23.5 12 35"/><path fill="#8ea1a5" d="M163 416c-1.312-4.041-12.212-36.142-19-26.5-.55.781-2.451 18.079-2 19 .24.49 7.771 3.014 9.5 4.5 7.375 6.339 8.693 13.997 15.5 19 2.594 9.901 3.178 20.818 5 30-2.073-6.825-5.776-19.924-12-23-3.289-10.44-6.179-18.193-15-25-1.208-.932-3.394-3.749-5-4 .675-4.274 1.645-35.134 6.5-35z"/><path fill="#c0d1d7" d="M160 387c1.209 3.908 1.244 10.031 2 13-3.343-6.832-4.984-16.92-9-23 2.522-4.343 6.701 9.034 7 10"/><path fill="#898f91" d="M881 411c-.644.073-1.523-.153-2 0 .045-1.24-1.026-1.154-2-1 4.164-2.316 1.379-20.814-.5-22-.563-.356-6.815.687-8.5-1 .662-1.479 6.386-14.058 9-11.5z"/><path fill="#778b92" d="M202 383c6.886 10.691 11.776 23.042 16 35 .78 2.209.614 3.837 1 5l-6 12c-4.417-20.055-9.065-40.408-18-59 3.124-.649 5.233 4.256 7 7"/><path fill="#a6c2c8" d="M827 389c-2.029 6.626-3.463 13.249-5 20-.028.122-1.806.632-2 1.5-.452 2.025 2.729.722 2 4-.539 2.424-1.363 5.069-2 7.5-.042.162-2.546-.177-3 1.5-1.05 3.873 2.597 3.035 2 6-3.348 16.616-9.172 32.849-10 50-3.781-7.154-4.371 11.525-5 15.5-2.473 15.637-4.303 31.253-6 47-.259 2.402.753 8.531-3 9 4.009-47.851 12.435-104.572 26-150.5 1.958-6.631 5.001-15.849 9-21.5-1.085 3.15-2.011 6.77-3 10"/><path fill="url(#d)" d="M402 389c.249 9.392 5.502 22.484 11 30-26.711 33.696-22.916 78.913-1 114 2.453 3.928 7.043 10.62 10 14-14.599-2.898-32.145-9.973-44-19-20.5-15.61-31.921-39.288-32-65-.007-2.41-.315-3.502 0-6 2.583-20.505 17.039-29.639 37-26.5-11.688-19.947-16.537-65.584 19-41.5" style="fill:url(#d)"/>/&gt;<path fill="url(#e)" d="M587 412c8.205 9.089 14.296 20.43 18 32 3.896 12.172 5.454 20.036 5 33-.585 16.711-6.042 34.043-15 48-40.073 62.435-141.699 47.214-168-21 9.824.734 18.301.21 23-10 8.389.377 11.197-6.904 12-14 1.878-16.606-16.764-33.366-28-44 36.857 14.482 78.476-13.944 75-54 28.814-1.002 58.403 8.291 78 30m-81.5 17c-51.563 5.414-42.73 86.049 13 80 50.163-5.445 44.411-86.028-13-80" style="fill:url(#e)"/>/&gt;<path fill="#f8fafb" d="M166 395c11.132 23.763 12.109 15.024 37 14 7.887 27.986 12.997 56.12 17 85-1.464 3.488-3.76 1.03-6.5 3-27.368 19.681-23.224 45.276-23.5 75-2.903-58.453-13.65-115.625-28-172-.756-2.969-.791-9.092-2-13 2.287.59 5.098 6.074 6 8m28 82c-4.173 2.514-5.468 6.015-2 10.5 2.493 3.224 10.2 2.308 4.5 5.5 5.363 3.14 11.382 2.074 12.5-5 1.617-10.23-6.757-15.966-15-11"/><path fill="#6a767a" d="M877 410c-14.541 2.294-16.379 19.827-24 29 2.545-11.612 10.354-33.063 11-43 2.399-2.334 2.709-6.118 4-9 1.685 1.687 7.937.644 8.5 1 1.879 1.186 4.664 19.684.5 22"/><path fill="#6a787d" d="M163 416c1.72 5.298 2.598 10.649 4 16-6.807-5.003-8.125-12.661-15.5-19-1.729-1.486-9.26-4.01-9.5-4.5-.451-.921 1.45-18.219 2-19 6.788-9.642 17.688 22.459 19 26.5"/><path fill="#aeb9bb" d="M858 389c-11.108 20.409-3.977 26.459-36 20 1.537-6.751 2.971-13.374 5-20 9.407 4.124 20.683-1.725 31 0"/><path fill="#0f1317" d="M864 396c-.646 9.937-8.455 31.388-11 43-.995 4.539-2.097 9.436-3 14-6.93 35.042-11.745 69.297-14 105-1.413 22.37-2.812 47.682-2 70 .172 4.713.597 10.251 1 15 .303 3.57.558 7.471 1 11 .721 5.758 1.76 14.977 6 19v1c-1.772.753-36.458-.553-38.5-1-4.869-1.067-7.733-6.165-7.5-11h1c.111.3 3.757 4.791 4 5 6.682 5.749 23.893 2.575 33.5 5l.5-2c1.178-4.687-1.46-12.962-2-18.5-.226-2.315.025-1.778 0-2-.921-8.253-1.316-16.339-3-24.5.649-14.867 2.584-31.186 1-46-.417-12.846 4.02-29.705 3-42l13-87c4.44-20.036 8.846-39.782 16-59 .427.577 1.017 4.746 1 5"/><path fill="#a9d7e1" d="M321 459c.339 8.232-.624 16.832 0 25-3.442 9.298 3.655 9.99-7 12l1-41.5c-4.171-.794-.731 7.271-2.5 8.5-.556.386-11.217-.064-13.5 1 .514-23.917 4.093-41.668 12-64 2.042 1.738 13.724 2.833 14 3.5.708 1.715-10.15 33.846-9 36 .578 1.083 3.746-.419 5 2 .967 1.866-2.133 12.532-2 15 .03.562 1.993 2.34 2 2.5"/><path fill="#0b80a9" d="M626 440c9.257 21.39 10.03 42.791 4 65-8.659 31.894-34.824 56.402-64 70l-1-11c15.564-7.418 30.446-19.644 40-34 10.376-15.59 16.37-34.163 17-53 .194-5.814-.766-33.677-6.5-35-.521-.12-8.517 3.032-10.5 2-3.704-11.57-9.795-22.911-18-32 .364-5.837 9.648-5.218 13-9 8.45 9.145 21.119 25.722 26 37"/><path fill="#5e8f9b" d="m725 477-16-1c.348-22.536-1.817-44.417-10-65.5 10.286-3.648 22.225-9.234 22 6-.015 1.032-3.171-.531-3 2 .494 7.334 5.271 18.855 6 27a279 279 0 0 1 1 31.5"/><path fill="#176684" d="M140 410c1.606.251 3.792 3.068 5 4-5.052-2.234-3.736.892-4 1-4.849 1.989-13.517 4.776-10 12-4.09 10.034-1.436 28.545-1 40l-2 1c-.385-10.968-1.8-38.102 0-47.5.924-4.822 6.572-9.966 11-10.5.05-.006.951-.008 1 0"/><path fill="#8ea5ab" d="M877 410c.974-.154 2.045-.24 2 1-7.485 2.404-13.742 18.163-16 25-7.962.68-4.969 20.149-13 17 .903-4.564 2.005-9.461 3-14 7.621-9.173 9.459-26.706 24-29"/><path fill="#154762" d="M881 411c.636-.072 1.357-.045 2 0 6.304.439 9.908 4.409 11 10.5 4.803 26.798-3.272 88.534-7 117.5l-2-1c3.672-27.421 7.966-59.49 8-87 .009-6.96.328-17.366-1-24-2.513-12.552-10.078-16.989-19-6-7.975 9.822-11.374 34.315-14 47l-3-1c1.995-9.969 3.837-21.423 7-31 2.258-6.837 8.515-22.596 16-25 .477-.153 1.356.073 2 0"/><path fill="#123b53" d="M145 414c8.821 6.807 11.711 14.56 15 25 .455 1.443.489 5.119 1 7l-2 4c-2.543-10.091-3.685-20.22-10-29-2.007-2.79-4.235-5.609-8-6 .264-.108-1.052-3.234 4-1"/><path fill="#44c6e3" d="M141 415c3.765.391 5.993 3.21 8 6-8.219-3.464-14.378-2.887-18 6-3.517-7.224 5.151-10.011 10-12"/><path fill="#3cbcdb" d="M892 427c-4.031-9.461-10.047-9.704-19-6 8.922-10.989 16.487-6.552 19 6"/><path fill="#c5f0fc" d="M149 421c6.315 8.78 7.457 18.909 10 29 3.327 13.201 5.815 26.566 8 40-5.346-7.392-4.607-19.529-7-28.5-3.252 4.701.583 13.952 1 20.5-1.92.7-2.771-3.389-3-4.5-2.313-11.204-4.52-28.515-10-38.5-.761-1.386-1.135-2.992-2.5-4-.675.885-1.932 1.624-2.5 2.5-5.173 7.966-2.571 87.827 0 100.5-2.479-.336-2.809-8.473-3-10.5-3.153-33.492-8.602-70.141-3-103-8.175 8.132-4.593 26.974-5 39-.062 1.83 1.009 4.935-2 4.5-.014-.333.013-.667 0-1-.436-11.455-3.09-29.966 1-40 3.622-8.887 9.781-9.464 18-6"/><path fill="#0e97c4" d="M419 425c-11.121 18.614-12.148 41.884-8 63 2.148 10.937 9.819 27.594 16 37l-15 8c-21.916-35.087-25.711-80.304 1-114 .652.891 4.719 4.71 6 6"/><path fill="#c9f0fa" d="M892 427c1.328 6.634 1.009 17.04 1 24-5.398-6.882 1.318-22.113-8-26.5 5.833 36.859-1.456 76.495-5.5 113.5-.544-27.757 5.188-58.996 2.5-86.5-.149-1.528-3.18-17.236-6-15.5l-14 48c.078-2.935.276-8.33-.5-11l-5.5 12c.986-5.702 1.825-11.324 3-17 2.626-12.685 6.025-37.178 14-47 8.953-3.704 14.969-3.461 19 6"/><path fill="#c0c9cb" d="m820 422 26 .5 1 27.5-13 87c-.834-10.055-16.623-34.48-25-40.5-1.88-1.351-2.234-1.99-5-1.5.629-3.975 1.219-22.654 5-15.5.828-17.151 6.652-33.384 10-50 .597-2.965-3.05-2.127-2-6 .454-1.677 2.958-1.338 3-1.5m.5 49c-9.964 1.18-13.858 25.516 2 24 1.386-2.734 7.656-6.688 8.5-8.5 2.919-6.267-2.887-16.402-10.5-15.5"/><path fill="#7f949c" d="M237 630c-1.565 7.636-3.897 12.585-6 19 3.948-70.794-2.765-144.816-18-214l6-12c19.078 57.396 30.18 147.568 18 207"/><path fill="#20bbe5" d="M143 538c.74 3.649 1.703 4.376 3 7 1.545 3.127 2 6.111 6 6.5-.529.334-1.138 1.434-1.5 1.5-2.943.535-7.29-4.471-9.5-3.5l13 66.5c-.1.002.173 1.685-2 0-8.131-20.197-11.988-53.887-15-76-3.217-23.614-6.003-48.173-7-72 3.009.435 1.938-2.67 2-4.5.407-12.026-3.175-30.868 5-39-5.602 32.859-.153 69.508 3 103 .191 2.027.521 10.164 3 10.5"/><path fill="#1ebcec" d="M893 451c-.034 27.51-4.328 59.579-8 87-1.969 14.701-11.298 83.239-21.5 90-6.908 4.578-8.596 1.781-12.5-3 5.007 4.998 4.058 1.704 6 1 5.491-1.99 6.424-3.695 9-9 8.677-17.867 7.84-47.18 14-66.5l-9.5 1.5 5.5-7.5c-8.346 2.089-12.901-7.331-16-13.5-.343-.683-.858-1.254-1-2 4.983-31.056 10.09-62.309 17-93 2.82-1.736 5.851 13.972 6 15.5 2.688 27.504-3.044 58.743-2.5 86.5 4.044-37.005 11.333-76.641 5.5-113.5 9.318 4.387 2.602 19.618 8 26.5"/><path fill="#21beec" d="M428 433c-2.24 8.642-7.054 17.854-5 27-4.701 2.455-5.854 13.81-5 18.5.048.266 2.642 2.698 3 4.5-1.063 5.452-5.064 4.192-10 5-4.148-21.116-3.121-44.386 8-63 2.768 2.786 6.106 5.296 9 8"/><path fill="#6499ae" d="M591 898c-94.797 44.632-195.499 13.98-252-73-12.932-19.907-20.905-43.843-29-66l38-8c11.905 28.614 59.273 94.901 83.5 114 77.399 61.017 176.008 10.118 225.5-60.5 15.647-22.326 51.705-97.681 18-115.5-1.019-8.13 39.983-50.481 44-43.5l1 14c.964-21.644-1.294-43.768-16-60.5 27.281-40.315 38.35-88.366 35-137l32.5-34c1.974 78.776-8.58 163.537-29.5 239.5-25.801 93.686-78.233 173.541-157 231z"/><path fill="#122247" d="M505.5 429c57.411-6.028 63.163 74.555 13 80-55.73 6.049-64.563-74.586-13-80"/><path fill="#028ac9" d="M434 436c11.236 10.634 29.878 27.394 28 44-3.241-7.476-15.798-3.417-16.5-4-1.403-1.164.181-6.866-.5-8.5-2.189-5.251-16.555-10.343-22-7.5-2.054-9.146 2.76-18.358 5-27 .325.304 4.038 1.143 6 3"/><path fill="#1cb8ea" d="M148 439c4.25 30.024 10.302 59.822 14 90 .04.328-.04.672 0 1-2.49 7.697-6.71 15.766-16 15-1.297-2.624-2.26-3.351-3-7-2.571-12.673-5.173-92.534 0-100.5.568-.876 1.825-1.615 2.5-2.5 1.365 1.008 1.739 2.614 2.5 4"/><path fill="#5b6061" d="M863 436c-3.163 9.577-5.005 21.031-7 31-5.787 28.918-10.805 62.727-13 92l-7-1c2.255-35.703 7.07-69.958 14-105 8.031 3.149 5.038-16.32 13-17"/><path fill="#0c8cb8" d="M859 529c-3.112 19.393-5.715 34.033-6 55-7.757-2.71-6.279 14.687 0 14 .209 9.231-2.225 19.876 4 28-1.942.704-.993 3.998-6-1-12.918-15.817-2.709-82.796 0-105l6 5.5c1.701-13.812 4.627-27.529 5-41.5l14-48c-6.91 30.691-12.017 61.944-17 93"/><path fill="#0290c1" d="M161 482c.15 2.359-1.358 6.636-1 10.5.976 10.547 4.325 22.197 5 33l6-8.5c2.651 21.116 5.747 45.869 6 67h-8c-.103-15.009-.362-37.054-3-51.5-.286-1.563-.63-5.401-4-3.5-3.698-30.178-9.75-59.976-14-90 5.48 9.985 7.687 27.296 10 38.5.229 1.111 1.08 5.2 3 4.5"/><path fill="#585e5f" d="M172 462c.564 1.857-1.273 5.202 2 3 6.743 35.489 11.338 71.879 13 108-5.39-1.29-3.662 1.765-7 3-1.862-39.07-8.797-92.432-19-130-.511-1.881-.545-5.557-1-7 6.224 3.076 9.927 16.175 12 23"/><path fill="#148aad" d="M676 472c.588 23.309-4.208 50.446-13 72-1.925-1.092-6.734-3.249-7-5.5-.338-2.861 14.269-31.78 12-38-3.079-8.443-9.822 22.178-12.5 22.5L630 505c6.03-22.209 5.257-43.61-4-65 2.477-1.883 5.364-.152 7.5 1 13.72 7.399 25.427 28.554 42.5 31"/><path fill="#1293bf" d="M622 477h-12c.454-12.964-1.104-20.828-5-33 1.983 1.032 9.979-2.12 10.5-2 5.734 1.323 6.694 29.186 6.5 35"/><path fill="#0b121c" d="M180 576c.713 14.955 2.303 30.531-3 45-1.577 4.304-4.047 6.512-6 10-.295.527-2.706.693-3 2-.696 3.09 2.865 7.162 0 10-.772-1.614-1.55-7.968-2-8.5-.923-1.092-8.866-2.185-13-8-8.116-11.415-15.814-68.883-18-85.5l2-1c3.012 22.113 6.869 55.803 15 76 14.259 35.417 24.092.381 25-18 .227-4.598.055-9.389 0-14-.253-21.131-3.349-45.884-6-67-1.12-8.92-2.555-18.113-4-27-2.185-13.434-4.673-26.799-8-40l2-4c10.203 37.568 17.138 90.93 19 130"/><path fill="#0d698f" d="M692 457c4.584 57.576-20.621 114.231-64 151l-5-8c15.876-15.183 31.661-35.556 40-56 8.792-21.554 13.588-48.691 13-72-.152-6.015-1.175-12.06-2-18z"/><path fill="#c5eaf1" d="M314 496c-6.421 1.211-.789 16.474-12 14-2.126-15.298-3.333-30.493-3-46 2.283-1.064 12.944-.614 13.5-1 1.769-1.229-1.671-9.294 2.5-8.5z"/><path fill="#cff4fc" d="M462 480c-.803 7.096-3.611 14.377-12 14-7.675-.344-8.369-7.331-9.5-8-.847-.501-14.1 5.335-18.5-2-.297-1.38-.986-.931-1-1-.358-1.802-2.952-4.234-3-4.5-.854-4.69.299-16.045 5-18.5 5.445-2.843 19.811 2.249 22 7.5.681 1.634-.903 7.336.5 8.5.702.583 13.259-3.476 16.5 4"/><path fill="#19bdec" d="M167 490c1.445 8.887 2.88 18.08 4 27l-6 8.5c-.675-10.803-4.024-22.453-5-33-.358-3.864 1.15-8.141 1-10.5-.417-6.548-4.252-15.799-1-20.5 2.393 8.971 1.654 21.108 7 28.5"/><path fill="#8ea1a5" d="M174 465c-3.273 2.202-1.436-1.143-2-3 .035.177 1.42-.054 2 3"/><path fill="#1586ab" d="M346 463c.079 25.712 11.5 49.39 32 65-5.716 4.647-6.843 14.329-15 16-11.777-21.973-16.234-40.3-18-65-.256-3.579-3.451-13.691 1-16"/><path fill="#1e3e5f" d="M130 468c.997 23.827 3.783 48.386 7 72l-2 1c-3.066-23.31-6.179-49.587-7-73l2-1c.013.333-.014.667 0 1"/><path fill="#0a121a" d="M859 468c-1.175 5.676-2.014 11.298-3 17-2.036 11.772-3.552 23.13-5 35-2.709 22.204-12.918 89.183 0 105 3.904 4.781 5.592 7.578 12.5 3 10.202-6.761 19.531-75.299 21.5-90l2 1c-2.235 17.363-9.877 76.773-19 88.5-2.801 3.6-7.341 6.373-12 6.5-.803.022-2.199-1.734-4-1-.561-3.397-2.999-3.541-4-6-10.07-24.735-6.973-41.698-5-68 2.195-29.273 7.213-63.082 13-92z"/><path fill="#106a91" d="M345 479c1.766 24.7 6.223 43.027 18 65 8.089 15.092 23.213 34.598 36 46l-6 12c-6.075-5.111-12.617-10.153-18-16-28.135-30.559-44.492-71.38-45-113l12.5-2z"/><path fill="#1d5779" d="M820.5 471c7.613-.902 13.419 9.233 10.5 15.5-.844 1.812-7.114 5.766-8.5 8.5-15.858 1.516-11.964-22.82-2-24m-4.5 8c-2.45 13.654 13.62 14.3 14 2.5-3.155-4.662-7.632-2.566-12-4.5 4.115-3.143 4.693-1.873 10-1.5-10.684-10.631-21.549 12.73-10 16l-3-3c-.211-2.236.169-7.541 1-9.5"/><path fill="#bcdae3" d="M818 477c-.976.745-1.406.601-2 2-.831 1.959-1.211 7.264-1 9.5l3 3c-11.549-3.27-.684-26.631 10-16-5.307-.373-5.885-1.643-10 1.5"/><path fill="#16bcea" d="M862 484c-.373 13.971-3.299 27.688-5 41.5l-6-5.5c1.448-11.87 2.964-23.228 5-35l5.5-12c.776 2.67.578 8.065.5 11"/><path fill="#192d44" d="m209 488-6.5 3c8.251-8.488 2.331-16.929-8.5-14 8.243-4.966 16.617.77 15 11"/><path fill="#0a7fb3" d="M209 488c-1.118 7.074-7.137 8.14-12.5 5 5.7-3.192-2.007-2.276-4.5-5.5-3.468-4.485-2.173-7.986 2-10.5 10.831-2.929 16.751 5.512 8.5 14z"/><path fill="#46737e" d="M725 477c-.39 15.175-2.429 31.278-6 46-24.918 102.731-126.94 171.133-231.5 160-9.492-1.011-65.096-14.014-69-20-2.453-3.76 3.808-11.287 5.5-15 6.28 3.023 12.42 5.664 19 8 43.52 15.453 91.779 16.573 135.5 1 1.415-.504 4.035-1.085 3.5-3 56.541-18.466 104.168-70.444 120-128 3.319-12.065 6.186-26.522 7-39 .236-3.613-.056-7.369 0-11z"/><path fill="#20b8e4" d="M622 477c-.63 18.837-6.624 37.41-17 53l-10-5c8.958-13.957 14.415-31.289 15-48z"/><path fill="#0681b5" d="M816 479c.594-1.399 1.024-1.255 2-2 4.368 1.934 8.845-.162 12 4.5-.38 11.8-16.45 11.154-14-2.5"/><path fill="#9dc7d7" d="M342 618c68.101 85.08 195.852 100.471 289 48-.127 5.584-17.826 27.781-18 29.5-.198 1.959 6.482 13.928 9 15.5-.948 1.081-1.374 1.184-1 3-37.512 34.634-66.868 68.404-124 55 3.856-2.121-1.059-2.518-2.5-3-20.633-6.896-44.449-15.696-63-27-23.32-14.21-44.598-44.824-75-40-11.927 1.893-16.293 9.792-16.5 21h-43c-21.06-71.668-34.261-152.166-38-227l27.5-1c2.535 14.605.241-5.096 2.5-10 1.077 26.539 9.539 62.749 20 84.5.588 1.222 1.411-1.221 2 0 .435.902-1.476 1.946-1 4 .378 1.632 1.212-3.292 3 0 9.967 18.344 15.448 30.569 29 47.5"/><path fill="#12e3fa" d="M422 484c1.865 8.667 1.581 11.133 5 20 26.301 68.214 127.927 83.435 168 21l10 5c-9.554 14.356-24.436 26.582-40 34-25.315 12.066-56.181 15.244-83 6-19.832-6.836-43.484-27.474-55-45-6.181-9.406-13.852-26.063-16-37 4.936-.808 8.937.452 10-5 .014.069.703-.38 1 1"/><path fill="#82b5c0" d="M391 619c-2.155-.973-4.233-3.041-4.5-3-.302.047-2.512 4.182-3.5 5-4.644-3.864-21.857-22.949-23.5-23-1.068-.033-15.508 11.691-14.5 15-9.322-10.626-16.995-20.659-24-33 2.756.339 4.186-.448 4-3.5-.099-1.629-13.125-23.738-15-29-4.335-12.165-6.26-24.979-8-37.5 11.211 2.474 5.579-12.789 12-14 10.655-2.01 3.558-2.702 7-12 4.191 54.854 27.966 99.979 70 135m-73.5-79c-1.342.995-1.529 8.476-.5 10.5l-3.5-5.5c-1.999.546 3.438 15.868 11 14 9.3-3.376-2.865-22.066-7-19"/><path fill="#046294" d="M450 494c-4.699 10.21-13.176 10.734-23 10-3.419-8.867-3.135-11.333-5-20 4.4 7.335 17.653 1.499 18.5 2 1.131.669 1.825 7.656 9.5 8"/><path fill="#a9d7e1" d="M709 487c-.814 12.478-3.681 26.935-7 39-1.863-1.564-2.32-.086-3 1.5-6.378 14.88-9.215 24.079-18 38.5l-4-2c11.966-21.116 20.016-45.941 23-70l5.5 2z"/><path fill="#abb5b8" d="m225 535-1.5 6-5-7c-3.06-.475-25.488 30.189-26.5 35.5-1.212 6.361.202 30.573 1 38 .29 2.7-1.017 3.965 3 3.5-1.809 5.406-2.486 5.643-3 12l-3 6.5c2.706-19.141-.178-38.361 0-57.5.276-29.724-3.868-55.319 23.5-75 2.74-1.97 5.036.488 6.5-3 1.877 13.544 3.778 27.388 5 41"/><path fill="#909799" d="M834 537c1.02 12.295-3.417 29.154-3 42-2.001-18.713-14.793-29.63-25-44.5l-8 7.5c1.697-15.747 3.527-31.363 6-47 2.766-.49 3.12.149 5 1.5 8.377 6.02 24.166 30.445 25 40.5"/><path fill="#17b5d9" d="M663 544c-8.339 20.444-24.124 40.817-40 56-10.112 9.67-29.897 25.372-42 32-44.229 24.222-88.351 23.501-134 4-.515-4.686 4.354-12.195.5-16-.955-.943-20.017-9.386-24-12-8.036-5.274-17.363-11.636-24.5-18-12.787-11.402-27.911-30.908-36-46 8.157-1.671 9.284-11.353 15-16 11.855 9.027 29.401 16.102 44 19 14.541 16.62 35.083 28.854 56 35 33.094 9.723 56.919 7.486 88-7 29.176-13.598 55.341-38.106 64-70l25.5 18c2.678-.322 9.421-30.943 12.5-22.5 2.269 6.22-12.338 35.139-12 38 .266 2.251 5.075 4.408 7 5.5"/><path fill="#60939f" d="M711 559c-64.666 146.903-260.731 173.991-366 54-1.008-3.309 13.432-15.033 14.5-15 1.643.051 18.856 19.136 23.5 23 13.414 11.162 25.174 19.382 41 27-1.692 3.713-7.953 11.24-5.5 15 3.904 5.986 59.508 18.989 69 20 104.56 11.133 206.582-57.269 231.5-160 4.875 10.367-8.111 24.664-8 36"/><path fill="#0b80a9" d="M427 525c11.516 17.526 35.168 38.164 55 45-.754 3.348-.121 10.778-4 12-20.917-6.146-41.459-18.38-56-35-2.957-3.38-7.547-10.072-10-14z"/><path fill="#f5fbfd" d="M702 526c-15.832 57.556-63.459 109.534-120 128-3.99 1.303-30.856 9.376-32.5 9-.398-.091-3.541-2.869-2-4 56.101-9.898 104.094-44.729 133.5-93 8.785-14.421 11.622-23.62 18-38.5.68-1.586 1.137-3.064 3-1.5"/><path fill="#013f60" d="M169 584c.032 4.629.185 9.38 0 14-.442 11.07.661 43.989-14 18 3.315 1.446 4.452 5.551 8.5 6 8.244-29.753 2.136-61.859-1.5-92-.04-.328.04-.672 0-1 3.37-1.901 3.714 1.937 4 3.5 2.638 14.446 2.897 36.491 3 51.5"/><path fill="#013452" d="M859 529c.142.746.657 1.317 1 2-2.789 8.959-4.299 21.138-5 30.5-.606 8.09-2.907 58.605 3.5 60.5l7.5-5c-2.576 5.305-3.509 7.01-9 9-6.225-8.124-3.791-18.769-4-28-.105-4.636-.063-9.362 0-14 .285-20.967 2.888-35.607 6-55"/><path fill="#006991" d="M155 616c-.188-.082-.669-.007-1 0l-13-66.5c2.21-.971 6.557 4.035 9.5 3.5.362-.066.971-1.166 1.5-1.5-4-.389-4.455-3.373-6-6.5 9.29.766 13.51-7.303 16-15 3.636 30.141 9.744 62.247 1.5 92-4.048-.449-5.185-4.554-8.5-6"/><path fill="#006a94" d="m866 617-7.5 5c-6.407-1.895-4.106-52.41-3.5-60.5.701-9.362 2.211-21.541 5-30.5 3.099 6.169 7.654 15.589 16 13.5l-5.5 7.5 9.5-1.5c-6.16 19.32-5.323 48.633-14 66.5"/><path fill="#848c8f" d="M225 535c1.235 13.755 2.561 29.264 3 43-3.608 3.161-3.682-3.044-4.5-3-1.165.063-15.151 14.856-16.5 16.5-4.672 5.693-8.65 12.479-11 19.5-4.017.465-2.71-.8-3-3.5-.798-7.427-2.212-31.639-1-38 1.012-5.311 23.44-35.975 26.5-35.5l5 7z"/><path fill="#6f7577" d="M831 579c1.584 14.814-.351 31.133-1 46-4.163-20.183-15.164-34.83-30.5-48-1.138-.024-3.04 3.117-3.5 4l-3-3c.442-8.953 1.251-18.06 2-27 3.753-.469 2.741-6.598 3-9l8-7.5c10.207 14.87 22.999 25.787 25 44.5"/><path fill="#0b5273" d="M317.5 540c4.135-3.066 16.3 15.624 7 19-7.562 1.868-12.999-13.454-11-14l3.5 5.5c-1.029-2.024-.842-9.505.5-10.5"/><path fill="#292c31" d="M843 559c-1.973 26.302-5.07 43.265 5 68l-14 1c-.812-22.318.587-47.63 2-70z"/><path fill="#0e97c4" d="M566 575c-31.081 14.486-54.906 16.723-88 7 3.879-1.222 3.246-8.652 4-12 26.819 9.244 57.685 6.066 83-6z"/><path fill="#cdeef7" d="M681 566c-29.406 48.271-77.399 83.102-133.5 93-1.541 1.131 1.602 3.909 2 4 1.644.376 28.51-7.697 32.5-9 .535 1.915-2.085 2.496-3.5 3-43.721 15.573-91.98 14.453-135.5-1 5.237-1.237 9.921 2.468 15.5 3 .863.082 1.752-3.029 2-3 8.73 1.011 19.258 5.259 29 6 8.377.637 22.714.761 31 0 2.739-.252 3.957.971 3.5-3 62.243-3.9 122.217-40.678 153-95z"/><path fill="#282c30" d="M187 573c.716 15.566 1.422 31.409 1 47l-11 1c5.303-14.469 3.713-30.045 3-45 3.338-1.235 1.61-4.29 7-3"/><path fill="url(#f)" d="M228 578c.459 14.353 1.131 81.188-6 89l-34 3c-.108-1.836-1.059-2.32-1-4 .148-4.234 2.14-32.997 3-34.5.66-1.153 3.338.153 4-1 1.081-1.881-1.031-7.123-1-7.5.514-6.357 1.191-6.594 3-12 2.35-7.021 6.328-13.807 11-19.5 1.349-1.644 15.335-16.437 16.5-16.5.818-.044.892 6.161 4.5 3" style="fill:url(#f)"/>/&gt;<path fill="#2b3033" d="M830 625c1.684 8.161 2.079 16.247 3 24.5.025.222-.226-.315 0 2 .54 5.538 3.178 13.813 2 18.5l-34-3c-.243-.209-3.889-4.7-4-5-.121-.328.315-5.475 0-7-2.592-12.545-5.93-64.533-1-74 .46-.883 2.362-4.024 3.5-4 15.336 13.17 26.337 27.817 30.5 48"/><path fill="#4c737e" d="M796 581c-4.93 9.467-1.592 61.455 1 74-2.08 2.363-2.85-3.727-3-4.5-4.029-20.774-2.063-50.979-1-72.5z"/><path fill="#08b3e4" d="M177 584c.055 4.611.227 9.402 0 14h-8c.185-4.62.032-9.371 0-14z"/><path fill="#0ab8e3" d="M853 584c-.063 4.638-.105 9.364 0 14-6.279.687-7.757-16.71 0-14"/><path fill="#076588" d="M393 602c16.539 13.913 33.967 25.442 54 34 45.649 19.501 89.771 20.222 134-4l3 5c-66.297 31.351-140.314 21.652-195.5-27-5.35-4.717-23.436-18.897-13.5-24 5.383 5.847 11.925 10.889 18 16"/><path fill="#148aad" d="M447 636c-20.033-8.558-37.461-20.087-54-34l6-12c7.137 6.364 16.464 12.726 24.5 18 3.983 2.614 23.045 11.057 24 12 3.854 3.805-1.015 11.314-.5 16"/><path fill="#0684b6" d="M177 598c-.908 18.381-10.741 53.417-25 18 2.173 1.685 1.9.002 2 0 .331-.007.812-.082 1 0 14.661 25.989 13.558-6.93 14-18z"/><path fill="#7babbf" d="M675 689c-23.528-12.439-39.416 6.517-53 22-2.518-1.572-9.198-13.541-9-15.5.174-1.719 17.873-23.916 18-29.5.123-.069 1.878-1.929 2-2 27.85-16.291 52.873-38.212 71-65 14.706 16.732 16.964 38.856 16 60.5l-1-14c-4.017-6.981-45.019 35.37-44 43.5"/><path fill="#148aad" d="M628 608c-13.606 11.533-27.828 21.352-44 29l-3-5c12.103-6.628 31.888-22.33 42-32z"/><path fill="#a9d7e1" d="M391 619c54.535 24.615 63.013 44.385 133 40 .457 3.971-.761 2.748-3.5 3-8.286.761-22.623.637-31 0-9.742-.741-20.27-4.989-29-6-.248-.029-1.137 3.082-2 3-5.579-.532-10.263-4.237-15.5-3-6.58-2.336-12.72-4.977-19-8-15.826-7.618-27.586-15.838-41-27 .988-.818 3.198-4.953 3.5-5 .267-.041 2.345 2.027 4.5 3"/><path fill="#6b8994" d="m635 654-2 10c-.122.071-1.877 1.931-2 2-93.148 52.471-220.899 37.08-289-48 76.721 80.98 198.705 98.945 293 36"/><path fill="#525658" d="M188 620c-.175 6.454-.463 13.581-1 20-1.336-5.414-6.236-1.828-8.5-3-.794-.411-3.422-6.36-7.5-6 1.953-3.488 4.423-5.696 6-10z"/><path fill="#4d5254" d="M848 627c1.001 2.459 3.439 2.603 4 6 .219 1.325-.887 5.614-1 8l-16 2c-.403-4.749-.828-10.287-1-15z"/><path fill="#d7ecf2" d="M339 825c56.501 86.98 157.203 117.632 252 73 40.916-19.264 74.737-50.189 103-85-24.711 33.527-52.07 61.763-89 82-41.034 22.486-79.54 26.19-126 26-24.401-2.058-47.747-8-70-18l-46.5-35c-43.377-40.638-75.566-91.339-101.5-144.5L230 650c.507-1.38.978-.933 1-1 2.103-6.415 4.435-11.364 6-19 1.715-.324 3.542 4.32 4 5.5 25.495 65.702 48.866 137.5 98 189.5"/><path fill="#6a7073" d="M187 640c-.599 7.16-1.294 18.329-3 25-2.609-.754-1.529 3.238-4 1.5-4.495-3.161-7.353-28.423-12-33.5.294-1.307 2.705-1.473 3-2 4.078-.36 6.706 5.589 7.5 6 2.264 1.172 7.164-2.414 8.5 3"/><path fill="#9fb5bc" d="M184 665c-.621 2.43-1.672 9.6-5 6.5-2.555-2.38-7.844-21.491-10-26.5-.131-.305-.671-1.313-1-2 2.865-2.838-.696-6.91 0-10 4.647 5.077 7.505 30.339 12 33.5 2.471 1.738 1.391-2.254 4-1.5"/><path fill="#4e757e" d="M856 634c-2.527 7.317-7.428 37.208-14 40v-1c1.619-6.641 8.326-13.924 6-21 1.631-3.994 1.837-2.402 2-7 3.857.1 1.041-1.847 1-3a12 12 0 0 1 0-1c.113-2.386 1.219-6.675 1-8 1.801-.734 3.197 1.022 4 1"/><path fill="#677174" d="M851 641a12 12 0 0 0 0 1c-1.559.08-.959 1.847-1 3-.163 4.598-.369 3.006-2 7-.787 1.926-5.247 13.94-6.5 14-4.478-.804-.989-17.576-5.5-12-.442-3.529-.697-7.43-1-11z"/><path fill="#8ea4a9" d="M850 645c.041-1.153-.559-2.92 1-3 .041 1.153 2.857 3.1-1 3"/><path fill="#0b3b55" d="M409 903c-68.358-30.717-118.946-105.58-150-171.5-7.72-16.388-26.944-57.579-30-73.5-.573-2.985.016-5.325 1-8l31 73.5c25.934 53.161 58.123 103.862 101.5 144.5z"/><path fill="#b8c7ca" d="M848 652c2.326 7.076-4.381 14.359-6 21-4.24-4.023-5.279-13.242-6-19 4.511-5.576 1.022 11.196 5.5 12 1.253-.06 5.713-12.074 6.5-14"/><path fill="#59646a" d="M222 667c-3.804 4.167-13.627 1.519-19.5 2-.778.064-.223 1.942-1 2-4.981.371-10.165-.931-15 1-1.86-2.415 1.507-1.875 1.5-2z"/><path fill="#596368" d="m835 670-.5 2c-9.607-2.425-26.818.749-33.5-5z"/><path fill="#d9ecf4" d="M675 689c33.705 17.819-2.353 93.174-18 115.5-49.492 70.618-148.101 121.517-225.5 60.5-24.227-19.099-71.595-85.386-83.5-114-4.023-9.668-8.198-20.31-8-31 .207-11.208 4.573-19.107 16.5-21 30.402-4.824 51.68 25.79 75 40 18.551 11.304 42.367 20.104 63 27 1.441.482 6.356.879 2.5 3-24.572-5.765-59.079-24.294-80.5-38-15.67-10.026-26.224-25.252-46.5-28-56.902-7.713-8.543 67.185 5 86.5 12.246 17.465 28.015 35.366 43 50.5 15.606 31.89 70.849 44.655 103 42 55.808-4.609 100.359-41.15 133-84.5 14.562-19.339 55.465-94.478 16.5-106.5-23.002-7.097-35.192 9.79-49.5 23-.374-1.816.052-1.919 1-3 13.584-15.483 29.472-34.439 53-22"/><path fill="#153661" d="m521 882-6.5-2c4.238.113 9.673-1.389 13.5-3 1.578 2.281 5.121 2.349 7.5 2 25.695-3.769 97.119-47.457 107.5-71.5 1.913-4.43.384-5.035-4-6.5 13.984-18.624 32.411-56.168 18-78.5-14.524-22.507-37.478 7.218-50 15.5 6.247-6.869 10.883-14.315 16-22 1.621-1.573 4.543-3.362 6-5.5-3.54-1.104-4.897 3.843-6 5.5-24.333 23.623-58.21 57.068-94 59-30.776 1.661-81.666-22.455-108-39-11.654-7.322-21.705-18.302-33.5-25-5.545-3.149-12.698-4.1-17.5-8 20.276 2.748 30.83 17.974 46.5 28 21.421 13.706 55.928 32.235 80.5 38 57.132 13.404 86.488-20.366 124-55 14.308-13.21 26.498-30.097 49.5-23 38.965 12.022-1.938 87.161-16.5 106.5-32.641 43.35-77.192 79.891-133 84.5"/><path fill="#1c4270" d="M370 703c4.802 3.9 11.955 4.851 17.5 8 11.795 6.698 21.846 17.678 33.5 25l-2 5c-10.604-6.114-49.614-30.092-54-5.5-4.591 25.745 30.008 68.704 49 84.5-.912 7.161.89 13.644 4 20-14.985-15.134-30.754-33.035-43-50.5-13.543-19.315-61.902-94.213-5-86.5"/><path fill="#3faeef" d="M623 716c1.103-1.657 2.46-6.604 6-5.5-1.457 2.138-4.379 3.927-6 5.5"/><path fill="#161b3c" d="M639 801c-2.996 3.99-8.442 8.974-12 13-1.955-.675-2.672-2.655-4-4-.922-.934-1.772-1.596-3-2-.288-.637-.633-1.436-1-2-13.037-20.073-51.224-20.127-70.5-18-9.936 1.096-21.139 6.132-34.5 7-1.937.126-7.322-1.322-11-1-8.492-1.903-17.317-2.544-26-3-.91-.824.171-4.706-.5-5-1.145-.502-22.796-.231-25 0-14.451 1.517-29.682 9.558-35.5 23.5-.654 1.567-2.212 3.812 1 3.5-.476 1.024-2.952 6.622-3 7-18.992-15.796-53.591-58.755-49-84.5 4.386-24.592 43.396-.614 54 5.5 22.168 12.783 40.094 27.762 66 35 47.487 13.267 89.571-2.342 122-38 12.522-8.282 35.476-38.007 50-15.5 14.411 22.332-4.016 59.876-18 78.5"/><path fill="#3faeef" d="M607 738c-32.429 35.658-74.513 51.267-122 38l41.5 3 2.5-4c35.79-1.932 69.667-35.377 94-59-5.117 7.685-9.753 15.131-16 22"/><path fill="#7cabbf" d="M340 720c-.198 10.69 3.977 21.332 8 31l-38 8c-4.786-13.1-9.06-25.591-13-39z"/><path fill="#3082c1" d="m529 775-2.5 4-41.5-3c-25.906-7.238-43.832-22.217-66-35l2-5c26.334 16.545 77.224 40.661 108 39"/><path fill="#125874" d="M737 784c-5.515 9.057-9.779 15.433-16 24l-5-5c5.046-7.116 9.411-15.523 14-23z"/><path fill="#4b3b41" d="M477 791c-20.516-1.078-42.658-1.824-55 18-1.39.432-.932.982-1 1-.31.083-.683-.073-1 0-.1.023.36-1.648-.5-2-1.909 1.126-1.824 3.545-2.5 5-3.212.312-1.654-1.933-1-3.5 5.818-13.942 21.049-21.983 35.5-23.5 2.204-.231 23.855-.502 25 0 .671.294-.41 4.176.5 5"/><path fill="#3a2f38" d="M619 806c-12.207-7.187-27.593-14.125-42-15-31.367-1.906-69.579 9.208-85 39-2.119-.949-.486-4.414 0-6l27-25.5c-.436-3.46-2.642-2.19-5-1.5v-2c13.361-.868 24.564-5.904 34.5-7 19.276-2.127 57.463-2.073 70.5 18"/><path fill="#fbdfd2" d="M477 791c8.683.456 17.508 1.097 26 3-31.561 2.763-50.882 5.649-81 15 12.342-19.824 34.484-19.078 55-18"/><path fill="#e1d3cb" d="m577 791-47.5 9c-15.945 6.865-26.85 16.681-37.5 30 15.421-29.792 53.633-40.906 85-39"/><path fill="#b9a09d" d="M619 806c.367.564.712 1.363 1 2 .129.286-.14.761 0 1-14.689-5.683-30.639 1.132-42 11-18.314 6.408-32.06 23.262-50.5 30-40.139 14.666-90.074 2.251-106.5-40 .068-.018-.39-.568 1-1 30.118-9.351 49.439-12.237 81-15 3.678-.322 9.063 1.126 11 1v2c-6.899 2.018-19.879 20.086-22 27-.486 1.586-2.119 5.051 0 6 10.65-13.319 21.555-23.135 37.5-30l47.5-9c14.407.875 29.793 7.813 42 15"/><path fill="#131728" d="M492 824c2.121-6.914 15.101-24.982 22-27 2.358-.69 4.564-1.96 5 1.5z"/><path fill="#274874" d="M528 877c3.847-1.62 9.682-5.352 13-8 34.705-3.992 63.716-29.788 86-55 3.558-4.026 9.004-9.01 12-13 4.384 1.465 5.913 2.07 4 6.5-10.381 24.043-81.805 67.731-107.5 71.5-2.379.349-5.922.281-7.5-2"/><path fill="#21708d" d="M721 808c-58.679 80.814-140.669 121.544-242 113 46.46.19 84.966-3.514 126-26 1.371 2.36 5.96-.16 7.5-1 40.779-22.253 76.59-53.051 103.5-91z"/><path fill="#04071a" d="M620 809c.883 1.507 1.888.63 2 2-1.01.691-14.554-1.52-18.5-1-28.664 3.774-42.454 43.001-62.5 59-3.318 2.648-9.153 6.38-13 8-3.827 1.611-9.262 3.113-13.5 3l6.5 2c-32.151 2.655-87.394-10.11-103-42-3.11-6.356-4.912-12.839-4-20 .048-.378 2.524-5.976 3-7 .676-1.455.591-3.874 2.5-5 .86.352.4 2.023.5 2-11.016 46.192 62.371 72.947 97.5 66 32.118-6.352 39.707-37.938 60.5-56 11.361-9.868 27.311-16.683 42-11"/><path fill="#685151" d="M623 810c.169 1.15-.809.869-1 1-.112-1.37-1.117-.493-2-2-.14-.239.129-.714 0-1 1.228.404 2.078 1.066 3 2"/><path fill="#9a786b" d="M578 820c-20.793 18.062-28.382 49.648-60.5 56-35.129 6.947-108.516-19.808-97.5-66 .317-.073.69.083 1 0 16.426 42.251 66.361 54.666 106.5 40 18.44-6.738 32.186-23.592 50.5-30"/><path fill="#182044" d="M622 811c.191-.131 1.169.15 1-1 1.328 1.345 2.045 3.325 4 4-22.284 25.212-51.295 51.008-86 55 20.046-15.999 33.836-55.226 62.5-59 3.946-.52 17.49 1.691 18.5 1"/></svg>