<svg xmlns="http://www.w3.org/2000/svg" width="1024" height="1024"><defs><linearGradient id="a" x1="304.493" x2="470.474" y1="239.12" y2="241.578" gradientUnits="userSpaceOnUse"><stop offset="0%" style="stop-color:#d3eff8"/><stop offset="100%" style="stop-color:#f5fafc"/></linearGradient></defs><defs><linearGradient id="b" x1="432.255" x2="684.85" y1="237.556" y2="251.867" gradientUnits="userSpaceOnUse"><stop offset="0%" style="stop-color:#bfd8e2"/><stop offset="100%" style="stop-color:#96b6c6"/></linearGradient></defs><defs><linearGradient id="c" x1="642.934" x2="346.207" y1="261.801" y2="317.989" gradientUnits="userSpaceOnUse"><stop offset="0%" style="stop-color:#b6deed"/><stop offset="67.55%" style="stop-color:#f2fbfd"/><stop offset="100%" style="stop-color:#c6e9f5"/></linearGradient></defs><defs><linearGradient id="d" x1="335.229" x2="682.604" y1="496.842" y2="602.197" gradientUnits="userSpaceOnUse"><stop offset="9.917%" style="stop-color:#c5eaf4"/><stop offset="100%" style="stop-color:#74a3b5"/></linearGradient></defs><path fill="#1e5e74" d="M838 139c-4.109 2.238-5.694 6.325-8 10-8.973 8.575-15.679 19.1-23 29-2.488 3.364-5.531 6.605-8 10-6.215.719 1.965-9.48 3-11 9.922-14.57 24.966-26.748 35.5-41 .855.238.424 2.065.5 3"/><path fill="#265769" d="M219 182c-.928-.622-3.095.05-3.5-3l-.5 6c-10.079-13.817-19.58-28.209-31-41h-1c-.096-1.529-.962-5.222-2-6.5h2z"/><path fill="#89b9cb" d="M837 145c-3.212 4.12-3.44 11.95-4 17l-80 198.5c-11.168 36.783-42.811 82.483-51 118.5-5.95-6.512-7.961-18.211-14-24.5-1.583-1.649-3.225-3.361-5-.5-15.671-30.659-59.101-81.679-94-89-22.556-10.913-48.915-17.33-74-18l3.5-2-20.5-1c46.857-2.74 88.748 5.573 128.5 31 5.128 3.28 27.183 22.65 29 23 7.401 1.426 13.455-9.264 17.5-14 30.865-32.761 59.639-71.088 85-108.5 28.672-42.297 46.114-85.257 72-126.5 2.306-3.675 3.891-7.762 8-10 .228 2.82-.95 4.026-1 6M694.5 403c-15.667 2.966-13.486 38.099 9 32 12.597-3.417 11.805-35.938-9-32"/><path fill="#295d72" d="m527 140-6 3c-68.36-1.371-182.811 18.599-232 68-2.833 2.845-7.475 6.1-10 9-6.304-.215-7.989 6.17-13 9 23.717-29.974 50.041-46.833 85.5-60 55.691-20.68 115.971-30.624 175.5-29"/><path fill="#1b4052" d="m723 200-2 2c-3.573-3.217-9.468-9.97-13-12-3.075-4.066-7.964-8.736-12.5-11-39.385-19.656-130.184-35.111-174.5-36l6-3c42.227 1.152 85.141 9.019 125.5 21 35.723 10.605 43.451 14.23 70.5 39"/><path fill="url(#a)" d="M521 143c44.316.889 135.115 16.344 174.5 36 4.536 2.264 9.425 6.934 12.5 11-34.126-19.616-137.565-34.126-178-35-54.373-1.176-130.761 1.728-133.5 73 14.726-50.664 65.63-45.599 91.5-7-5.658 2.763-14.257 9.105-17 15-3.746 4.843-4.247 5.748-5 12-.961 7.983.006 12.683 4 20-6.65 1.919-5.779-16.106-7.5-16-8.082 19.434 3.699 29.399 20 37 2.36 1.101 4.777.788 2.5 4-7.175.079-8.902 2.159-3.5 7 5.436 4.871 11.805 3.836 18.5 4l2 1c-12.933.512-26.187 2.176-39 4-35.231 5.016-61.904 13.975-93 31v-6.5L289 211c49.189-49.401 163.64-69.371 232-68m-199 90c.312.604-1.06 1.41-1 1.5 11.606 17.418 57.403 3.002 54-21l-3.5 2.5c.75-2.015 4.148-7.555-1.5-7 3.88-40.738-66.929-12.663-48 24m75.5 51c-3.552-.471 4.988 34.275 7 38 3.742-.012-7.143-34.283-7-38" style="fill:url(#a)"/>/&gt;<path fill="#306e7f" d="M187 155c1.207 7.316 2.039 15.573 3 23 2.475 19.137 4.357 34.857 8 54-2.938-.536-2.177 3.987-2 5.5 5.969 50.92 27.383 129.873 41 181 10.73 40.289 28.576 109.308 44 146 2.475 5.887 6.518 7.822 8 10.5 4.388 7.93 9.19 19.058 15 27-14.229-9.481-29.627-19.504-38-35-9.531-31.986-18.796-88.013-30-114.5-1.337-3.16-1.676-5.367-6-4.5 2.046-2.432 3.691-3.86 3-7.5-21.648-97.991-43.688-195.994-50-296.5h1c.42 3.613 2.429 7.538 3 11"/><path fill="#f3fcfd" d="M215 185c.678.93 1.323 2.069 2 3l-5-.5c35.534 77.548 96.73 140.434 146 209.5-4.779-1.796-25.285-26.889-30-32.5-33.209-39.516-74.397-92.581-100-137-5.614-9.74-34.576-72.67-38.5-74.5-3.089-1.441-.213 1.399-2.5 2-.571-3.462-2.58-7.387-3-11 11.42 12.791 20.921 27.183 31 41"/><path fill="#195565" d="m801 384-12 51.5c-8.472 48.439-21.645 99.575-37 146.5-.078.238-2.921 3.763-3 4l-1-1c.662-1.094 3.718-3.728.5-4l-54 34c3.818-16.682 11.884-32.667 13.5-50 3.238.76 3.922 3.865 7 6 8.215 5.7 14.9 5.615 22-2.5 40.605-122.744 77.561-253.789 94-382.5 1.012-7.925 1.121-16.074 2-24 .56-5.05.788-12.88 4-17-2.036 80.872-19.771 160.148-36 239"/><path fill="#edfbfd" d="M673 384c15.681-18.36 32.531-40.954 47-60.5 34.461-46.553 69.578-96.581 91.5-149.5l-4.5 4c7.321-9.9 14.027-20.425 23-29-25.886 41.243-43.328 84.203-72 126.5-25.361 37.412-54.135 75.739-85 108.5"/><path fill="#9fcfdf" d="M358 397c2.513.944 4.853 1.547 7.5 1 5.018-1.036 31.063-22.394 39-27 29.911-17.357 59.086-24.987 93.5-27l20.5 1-3.5 2c-20.051-.535-40.952 2.006-60 8-49.545 9.757-99.44 55.971-120 101-9.101 2.718-11.683 16.61-18 23-46.922-98.304-87.441-199.471-127-301-.961-7.427-1.793-15.684-3-23 2.287-.601-.589-3.441 2.5-2 3.924 1.83 32.886 64.76 38.5 74.5 25.603 44.419 66.791 97.484 100 137 4.715 5.611 25.221 30.704 30 32.5m-37.5 6c-15.668 3.254-16.29 34.712 4 33 18.214-1.537 19.012-37.779-4-33"/><path fill="url(#b)" d="m530 155 47.5 13c15.887 6.05 39.197 19.802 50.5 32.5 11.722 13.17 16.139 32.348 35.5 37.5 10.986 2.923 13.85-2.886 22.5 7.5.878 1.054 5.634 9.784 6 11 1.463 4.864-.68 11.576 3 14.5-15.15 22.2-30.889 44.884-52 62-16.068-8.819-36.868-17.172-55-20-14.514-8.576-67.763-8.722-86-8l-2-1c15.563.382 39.375.635 51.5-9 18.923-15.038 17.261-41.515 5.5-60.5-.602-.972-7.947-12.321-9-7.5-1.794-1.894-5.162-2.804-7-4-17.213-11.201-34.461-11.052-53-2-25.87-38.599-76.774-43.664-91.5 7 2.739-71.272 79.127-74.176 133.5-73" style="fill:url(#b)"/>/&gt;<path fill="#7fa2b2" d="M708 190c3.532 2.03 9.427 8.783 13 12 3.167 2.852 6.047 6.867 9 10-9.605 20.801-22.113 40.116-35 59-3.68-2.924-1.537-9.636-3-14.5-.366-1.216-5.122-9.946-6-11-8.65-10.386-11.514-4.577-22.5-7.5-19.361-5.152-23.778-24.33-35.5-37.5-11.303-12.698-34.613-26.45-50.5-32.5L530 155c40.435.874 143.874 15.384 178 35m-43.5-3c-30.606 3.156-12.571 50.32 18 46 30.427-4.3 10.511-48.94-18-46"/><path fill="#518798" d="M833 162c-.879 7.926-.988 16.075-2 24-3.254 1.747-5.154 11.584-6 15.5-24.867 115.114-47.971 225.769-96 334-2.889 6.511-15.804 27.194-16 32-.022.54 4.104 2.69 2 3.5-3.078-2.135-3.762-5.24-7-6 2.055-22.043-3.715-52.694-10-74 6.455-.744 3.073-7.924 4-12 8.189-36.017 39.832-81.717 51-118.5z"/><path fill="url(#c)" d="M673 384c-4.045 4.736-10.099 15.426-17.5 14-1.817-.35-23.872-19.72-29-23-39.752-25.427-81.643-33.74-128.5-31-34.414 2.013-63.589 9.643-93.5 27-7.937 4.606-33.982 25.964-39 27-2.647.547-4.987-.056-7.5-1-49.27-69.066-110.466-131.952-146-209.5l5 .5c43.91 60.362 85.63 123.118 137.5 177 36.183-23.418 69.52-39.2 112.5-46 42.272-6.688 78.808-4.436 120 7 30.038 8.339 52.997 22.358 79.5 38 37.997-40.007 68.287-86.44 100.5-131 10.774-14.904 21.2-30.147 32-45 2.469-3.395 5.512-6.636 8-10l4.5-4c-21.922 52.919-57.039 102.947-91.5 149.5-14.469 19.546-31.319 42.14-47 60.5" style="fill:url(#c)"/>/&gt;<path fill="#1a465a" d="M799 188c-10.8 14.853-21.226 30.096-32 45-6.257-4.14-7.537.412-10 0l45-56c-1.035 1.52-9.215 11.719-3 11"/><path fill="#77abbc" d="M317 479c1.817 3.808-1.417 6.066 6 9a570 570 0 0 0-2 6c-2.866 8.784-4.406 18.85-7 28-1.926 6.794-8.111 16.375-9 23.5-.886 7.099 2.584 16.64 2 20.5-20.536-43.998-38.515-89.427-54-135.5-21.127-62.857-42.63-133.49-55-198.5-3.643-19.143-5.525-34.863-8-54 39.559 101.529 80.078 202.696 127 301"/><path fill="#467d8d" d="M219 182c8.773 5.881 38.308 49.395 41.5 50 2.632.399 3.581-1.916 5.5-3 5.011-2.83 6.696-9.215 13-9-1.851 2.126-7.292 6.925-7 9.5 26.26 40.825 49.308 84.526 83.5 119.5 2.094.353 11.665-7.448 14.5-9 31.096-17.025 57.769-25.984 93-31 8.483 1.823.827 7.738 4 10-42.98 6.8-76.317 22.582-112.5 46-51.87-53.882-93.59-116.638-137.5-177-.677-.931-1.322-2.07-2-3l.5-6c.405 3.05 2.572 2.378 3.5 3"/><path fill="#2d6a7c" d="M831 186c-16.439 128.711-53.395 259.756-94 382.5-7.1 8.115-13.785 8.2-22 2.5 2.104-.81-2.022-2.96-2-3.5.196-4.806 13.111-25.489 16-32 48.029-108.231 71.133-218.886 96-334 .846-3.916 2.746-13.753 6-15.5"/><path fill="#0d324d" d="M664.5 187c28.511-2.94 48.427 41.7 18 46-30.571 4.32-48.606-42.844-18-46m-9.5 25c4.621 11.253 14.663 16.903 27 16 13.617-.997 14.596-13.037 8-23.5-10.368-16.445-46.41-20.286-35 7.5"/><path fill="#32718d" d="M370 209c-1.982 20.811-30.211 36.294-48 24-18.929-36.663 51.88-64.738 48-24m-30-12c.061.321-.082.692 0 1-2.508.107-3.498 2.97-5 4-3.501 2.4-8.098 3.221-10 9l-1.5-3c-10.039 16.401 1.709 28.272 19.5 24 1.139-.273 9.069-4.245 10-5 8.013-.828 14.425-15.748 13-22.5-2.049-9.705-24.381-12.594-26-7.5"/><path fill="#0680b1" d="M682 228c-4.496-5.333-.999-5.076-1-5.5-.013-8.022-.49-10.083-3-17.5-.432-1.275.47-4.65 0-5.5-3.586-6.491-22.399-4.437-22 6.5.225 6.163 6.408 9.129 10 13.5l-11-7.5c-11.41-27.786 24.632-23.945 35-7.5 6.596 10.463 5.617 22.503-8 23.5"/><path fill="#082e4d" d="M353 227c2.437-1.977 8.215-9.988 9-13 3.748-14.381-10.117-18.474-22-17 1.619-5.094 23.951-2.205 26 7.5 1.425 6.752-4.987 21.672-13 22.5"/><path fill="#daf6f9" d="M678 205c-3.188 13.479-14.078 6.631-22 1-.399-10.937 18.414-12.991 22-6.5.47.85-.432 4.225 0 5.5"/><path fill="#02aad9" d="M362 214c-6.094.353-6.973-7.718-11.5-11-2.371-1.719-9.587-1.563-10.5-5-.082-.308.061-.679 0-1 11.883-1.474 25.748 2.619 22 17"/><path fill="#0ec4e9" d="M362 214c-.785 3.012-6.563 11.023-9 13-.931.755-8.861 4.727-10 5l3.5-4-1-2c-4.428-.074-8.115 1.659-13 1-.773-.104-5.315-1.205-1.5-3 16.09 5.379 21.472-19.942 4-22 1.502-1.03 2.492-3.893 5-4 .913 3.437 8.129 3.281 10.5 5 4.527 3.282 5.406 11.353 11.5 11"/><path fill="#113247" d="M723 200c4.76 4.359 31.663 32.609 34 33 2.463.412 3.743-4.14 10 0-32.213 44.56-62.503 90.993-100.5 131-26.503-15.642-49.462-29.661-79.5-38-.322-2.412 5.343-10.975 5-11.5-.348-.533-2.186-.428-4-1.5 18.132 2.828 38.932 11.181 55 20 3.28 1.8 19.897 15.195 21.5 15 32.943-34.749 56.261-77.149 81.5-117.5.345-5.204-12.206-14.475-16-18.5-2.953-3.133-5.833-7.148-9-10z"/><path fill="#d4f6fb" d="M335 202c17.472 2.058 12.09 27.379-4 22-6.364-2.127-7.912-7.19-6-13 1.902-5.779 6.499-6.6 10-9"/><path fill="#33ceee" d="M682 228c-12.337.903-22.379-4.747-27-16l11 7.5c-3.592-4.371-9.775-7.337-10-13.5 7.922 5.631 18.812 12.479 22-1 2.51 7.417 2.987 9.478 3 17.5.001.424-3.496.167 1 5.5"/><path fill="#08a6d6" d="M325 211c-1.912 5.81-.364 10.873 6 13-3.815 1.795.727 2.896 1.5 3 4.885.659 8.572-1.074 13-1l1 2-3.5 4c-17.791 4.272-29.539-7.599-19.5-24z"/><path fill="#d0e6ee" d="M322 233c17.789 12.294 46.018-3.189 48-24 5.648-.555 2.25 4.985 1.5 7l3.5-2.5c3.403 24.002-42.394 38.418-54 21-.06-.09 1.312-.896 1-1.5"/><path fill="#accedc" d="M370 340c-2.835 1.552-12.406 9.353-14.5 9-34.192-34.974-57.24-78.675-83.5-119.5-.292-2.575 5.149-7.374 7-9.5 2.525-2.9 7.167-6.155 10-9l81 122.5z"/><path fill="#6e94a5" d="M643 333c21.111-17.116 36.85-39.8 52-62 12.887-18.884 25.395-38.199 35-59 3.794 4.025 16.345 13.296 16 18.5-25.239 40.351-48.557 82.751-81.5 117.5-1.603.195-18.22-13.2-21.5-15"/><path fill="#0c7aa4" d="M541 223v6c-.488-.461-5.084-3.491-6-4-10.679-5.935-15.462-4.046-26.5-5-.938-.081-.052-2.852-1-3-9.069-1.413-30.786 11.613-36.5 19 2.743-5.895 11.342-12.237 17-15 18.539-9.052 35.787-9.201 53 2"/><path fill="#05a8d3" d="M535 225c1.363 6.411 9.432 8.627 12 15.5 7.812 20.906-15.208 35.832-33.5 37.5-1.667.152-5.009.836-4.5-2 .981.008 2.03.091 3 0 30.62-2.874 40.689-37.797 6-46.5l5.5-4.5c-20.933-7.694-56.749 5.905-53.5 31-5.876 2.589-1.026-4.904-4-8 .753-6.252 1.254-7.157 5-12 5.714-7.387 27.431-20.413 36.5-19 .948.148.062 2.919 1 3 11.038.954 15.821-.935 26.5 5"/><path fill="#10d2f2" d="M512 276c7.54-10.946 7.051-23.904-2-34-.755-28.296-41.049-11.355-35 13.5.071.293 3.303 3.485 4 4.5 6.024 8.77 19.592 15.915 30 16-.509 2.836 2.833 2.152 4.5 2 18.292-1.668 41.312-16.594 33.5-37.5-2.568-6.873-10.637-9.089-12-15.5.916.509 5.512 3.539 6 4 32.054 30.298-16.792 67.679-55 48-8.488-4.372-14.724-11.144-16-21-3.249-25.095 32.567-38.694 53.5-31l-5.5 4.5c34.689 8.703 24.62 43.626-6 46.5"/><path fill="#144a66" d="M548 227c15.826 16.703 10.137 43.64-9 55-.601.357-1.361.685-2 1-15.012 7.407-31.603 8.201-47 2l-11-8.5 7 .5c38.208 19.679 87.054-17.702 55-48v-6c1.838 1.196 5.206 2.106 7 4"/><path fill="#9dbecd" d="M500 304c-6.695-.164-13.064.871-18.5-4-5.402-4.841-3.675-6.921 3.5-7 5.271-.058 12.534 3.831 18.5 4 9.275.263 28.948-4.125 36.5-10 .533-.415 3.127-2.051 3-2.5-.198-.7-3.861-1.074-4-2.5 19.137-11.36 24.826-38.297 9-55 1.053-4.821 8.398 6.528 9 7.5 11.761 18.985 13.423 45.462-5.5 60.5-12.125 9.635-35.937 9.382-51.5 9"/><path fill="#f3fdff" d="M510 242c.225 8.426-6.048 17.499-14.5 19-6.544 1.162-11.191-3.802-16.5-1-.697-1.015-3.929-4.207-4-4.5-6.049-24.855 34.245-41.796 35-13.5"/><path fill="#568fa0" d="M198 232c12.37 65.01 33.873 135.643 55 198.5 15.485 46.073 33.464 91.502 54 135.5-.967 6.395-12.191 10.193-18 9-1.482-2.678-5.525-4.613-8-10.5-15.424-36.692-33.27-105.711-44-146-13.617-51.127-35.031-130.08-41-181-.177-1.513-.938-6.036 2-5.5"/><path fill="#63eafb" d="M512 276c-.97.091-2.019.008-3 0-10.408-.085-23.976-7.23-30-16 5.309-2.802 9.956 2.162 16.5 1 8.452-1.501 14.725-10.574 14.5-19 9.051 10.096 9.54 23.054 2 34"/><path fill="#136c96" d="M470 256c1.276 9.856 7.512 16.628 16 21l-7-.5 11 8.5c-8.111-3.266-15.69-9.103-20-17-3.994-7.317-4.961-12.017-4-20 2.974 3.096-1.876 10.589 4 8"/><path fill="#cfe6ee" d="M470 268c4.31 7.897 11.889 13.734 20 17 15.397 6.201 31.988 5.407 47-2l3 4c-7.552 5.875-27.225 10.263-36.5 10-5.966-.169-13.229-4.058-18.5-4 2.277-3.212-.14-2.899-2.5-4-16.301-7.601-28.082-17.566-20-37 1.721-.106.85 17.919 7.5 16"/><path fill="#d1e7ef" d="m540 287-3-4c.639-.315 1.399-.643 2-1 .139 1.426 3.802 1.8 4 2.5.127.449-2.467 2.085-3 2.5"/><path fill="#cee3eb" d="M397.5 284c-.143 3.717 10.742 37.988 7 38-2.012-3.725-10.552-38.471-7-38"/><path fill="#1d4d61" d="M502 305c18.237-.722 71.486-.576 86 8 1.814 1.072 3.652.967 4 1.5.343.525-5.322 9.088-5 11.5-41.192-11.436-77.728-13.688-120-7-3.173-2.262 4.483-8.177-4-10 12.813-1.824 26.067-3.488 39-4"/><path fill="#236177" d="M515 347c25.085.67 51.444 7.087 74 18-.391-.082-6.504.282-8 0-38.188-15.287-72.818-17.741-113-9 4.059-4.218-11.697-1.257-13-1 19.048-5.994 39.949-8.535 60-8"/><path fill="#e9f8fc" d="M581 365c38.479 15.403 68.385 42.229 90 77-46.528-63.739-109.498-87.678-187.5-83-4.256.255-25.3 4.569-27 4-.191-.064.027-3.311-.5-4 4.04-1.175 7.887-2.105 12-3 40.182-8.741 74.812-6.287 113 9"/><path fill="#569aae" d="M468 356c-4.113.895-7.96 1.825-12 3-64.058 18.627-115.448 73.795-133 138l-2-3c.646-1.979 1.33-4.023 2-6 3.628-10.711 7.302-21.711 12-32 20.56-45.029 70.455-91.243 120-101 1.303-.257 17.059-3.218 13 1"/><path fill="url(#d)" d="M671 442c39.795 64.016 45.267 133.275 7 200-57.732 100.666-191.207 131.244-285 60-18.198-13.823-35.027-33.599-47-53-28.907-46.839-37.701-98.222-23-152 17.552-64.205 68.942-119.373 133-138 .527.689.309 3.936.5 4 1.7.569 22.744-3.745 27-4 78.002-4.678 140.972 19.261 187.5 83M385 652c5.187 5.927 11.064 12.92 17 18 1.789 1.531 3.192 2.577 5 4 1.721 1.354 2.94 2.522 5 4 50.33 40.79 125.6 43.001 181 11 42.677-24.652 70.599-69.921 79-118 18.975-108.594-69.515-197.163-177.5-190-135.038 8.958-198.242 169.607-109.5 271" style="fill:url(#d)"/>/&gt;<path fill="#0c2838" d="M589 365c34.899 7.321 78.329 58.341 94 89 5.989 11.718 11.264 24.334 15 37 6.285 21.306 12.055 51.957 10 74-1.616 17.333-9.682 33.318-13.5 50l54-34c3.218.272.162 2.906-.5 4-8.963 14.807-44.597 26.628-56.5 39-4.777 4.965-4.925 10.804-7.5 15-.763 1.244-2.221 2.759-3 4l-3-1c38.267-66.725 32.795-135.984-7-200-21.615-34.771-51.521-61.597-90-77 1.496.282 7.609-.082 8 0"/><path fill="#49869a" d="M672 571c-5.536 1.085-8.095-1.948-9-7 15.088-121.923-118.35-208.849-226.5-152-84.147 44.232-107.484 157.989-45.5 231l-6 9c-88.742-101.393-25.538-262.042 109.5-271 107.985-7.163 196.475 81.406 177.5 190"/><path fill="#0b2a3a" d="M801 384c.876 10.998-13.802 55.225-11 62.5.815 2.117 20.138 12.185 23 20.5l-2 2c-.541-2.645-3.43-6.172-5.5-8-2.064.453-3.844 12.665-4.5 15l-3-2c3.345-13.95 8.639-15.334-8-23.5-6.466 19.435-9.802 39.748-15 59.5-4.825 18.337-10.181 36.638-15 55-1.391 5.299-2.601 10.689-4 16-.77 2.924-1.215 6.046-2 9-3.018-3.069 2.56-5.665-2-8 15.355-46.925 28.528-98.061 37-146.5z"/><path fill="#061e35" d="M663 564c-5.433 43.901-35.345 88.195-73 111-43.435 26.305-104.633 26.61-150 5-16.479-7.849-37.203-23.104-49-37-61.984-73.011-38.647-186.768 45.5-231 108.15-56.849 241.588 30.077 226.5 152m-286 43c18.171 38.547 51.308 67.667 93 78 27.951 6.927 52.078 6.173 80-1 79.573-20.443 126.007-108.41 98-186-67.658-187.439-355.779-70.848-271 109"/><path fill="#075276" d="m648 498-20 3c-57.844-140.582-287.646-74.637-237 89 .533 1.721 3.8 6.098 3 7.5-6.396-1.157-12.073 6.049-17 9.5-84.779-179.848 203.342-296.439 271-109"/><path fill="#eff9fb" d="M320.5 403c23.012-4.779 22.214 31.463 4 33-20.29 1.712-19.668-29.746-4-33m0 3c-11.44 2.587-12.899 29.806 5 27 13.27-2.081 12.101-30.868-5-27"/><path fill="#f0f8fa" d="M694.5 403c20.805-3.938 21.597 28.583 9 32-22.486 6.099-24.667-29.034-9-32m2 3c-10.094 1.518-11.484 20.104-4 25 18.678 12.219 24.457-28.076 4-25"/><path fill="#12354a" d="M320.5 406c17.101-3.868 18.27 24.919 5 27-17.899 2.806-16.44-24.413-5-27"/><path fill="#0d1c2e" d="M696.5 406c20.457-3.076 14.678 37.219-4 25-7.484-4.896-6.094-23.482 4-25"/><path fill="#0c7499" d="M628 501c2.52 6.125 4.952 12.182 7 18.5-17.728 1.668-15.836-11.623-21-22-17.168-34.503-62.641-52.849-99.5-55.5-.61.629.274 3.267.5 4-12.094-16.646-41.203-11.933-47 8-14.339 4.571-27.168 12.48-37 24-5.982 7.009-14.099 15.234-8 25.5 4.122 6.939 18.212 7.559 23 1.5l2 2c-9.417 12.409-19.986 41.518-18 57l-39 26c-50.646-163.637 179.156-229.582 237-89"/><path fill="#fcfeff" d="M515 446c1.113 3.616 4.479 7.494 5 11.5 1.76 13.534-5.346 21.515-15 29.5-2.066.231-10.958 2.333-13 3-3.836-2.109-11.59-3.628-15-6-7.138-4.966-10.132-13.671-10-22 .041-2.578.286-5.546 1-8 5.797-19.933 34.906-24.646 47-8"/><path fill="#0e8baf" d="m628 501 20-3c28.007 77.59-18.427 165.557-98 186-4.026-4.016-11.257 1.649-13.5 2-14.703 2.3-32.463.97-46 0-2.731-.196-9.478.371-12 0-.485-.071-6.641-4.61-8.5-1-41.692-10.333-74.829-39.453-93-78 4.927-3.451 10.604-10.657 17-9.5.8-1.402-2.467-5.779-3-7.5l39-26c.888 6.919 5.641 13.581 8 20-1.203-.509-1.932-1.408-3.5-1-5.57 1.449-24.414 26.617-32.5 29.5 6.683 10.194 14.991 18.558 24 26.5 69.555 61.321 178.054 31.455 204-57 2.562-6.392 4.995-12.611 6-19.5L590.5 550c-.591-19.068-10.204-35.919-22-50l-6.5 8c-13.776-14.541-37.064-23.232-57-21 9.654-7.985 16.76-15.966 15-29.5-.521-4.006-3.887-7.884-5-11.5-.226-.733-1.11-3.371-.5-4 36.859 2.651 82.332 20.997 99.5 55.5 5.164 10.377 3.272 23.668 21 22-2.048-6.318-4.48-12.375-7-18.5"/><path fill="#12384c" d="M266 567c1.579 5.3 2.99 12.69 5 19 .8 2.513 1.259 5.736 2 8-2.311 1.146-3.717 2.437-4 5h-1c.31-4.931-1.871-9.391-3-14-1.785-7.288-3.236-14.711-5-22-4.35-17.968-8.701-36.017-13-54-1.531-6.405-12.409-59.035-15.5-59-1.062 2.399-10.152 7.372-10.5 8.5-.812 2.635 11.22 46.711 13 53.5 4.971 18.964 12.329 37.628 17 56 1.257 4.943 2.877 10.106 4 15 1.423 6.204 1.735 14.404 3 21 1.319 6.878 2.059 22.885 6 28.5 1.692 2.411 10.102-.543 13 .5.028.191 3 1.795-1 2-11.087-2.919-21.067 5.409-31-5.5-19.279-21.172-41.952-125.849-38-154 2.589-18.446 14.627-17.546 23-27.5 4.324-.867 4.663 1.34 6 4.5 11.204 26.487 20.469 82.514 30 114.5m-52-57c1.257 9.682 3.905 21.319 6 31 1.801 8.322 3.681 16.813 6 25 3.227 11.394 8.006 22.835 12 34 .751 3.363 8.095 23.643 10.5 24 11.32-3.473 6.376-11.743 4.5-21-2.768-13.655-7.67-28.201-11-42-1.039-4.305-2.984-8.749-4-13-3.314-13.872-5.642-28.148-9-42-3.561-14.689-6.864-29.591-11.5-44-10.362-3.349-3.933 44.664-3.5 48m41.5 114c-.368-.027-6.702 1.715-6.5 3.5 2.108 5.2 5.686 4.44 10.5 5.5 2.867-1.022 1.184-8.618-4-9"/><path fill="#99cada" d="M247 509c-3.391 4.095-8.646 2.244-13 3-1.78-6.789-13.812-50.865-13-53.5.348-1.128 9.438-6.101 10.5-8.5 3.091-.035 13.969 52.595 15.5 59"/><path fill="#509fad" d="M798 474c-2.954 12.318-7.578 23.942-11 36-2.413 1.47-5.347 1.129-8 1-1.702-.083-2.485.099-4-1 5.198-19.752 8.534-40.065 15-59.5 16.639 8.166 11.345 9.55 8 23.5"/><path fill="#6197aa" d="M702 479c-.927 4.076 2.455 11.256-4 12-3.736-12.666-9.011-25.282-15-37 1.775-2.861 3.417-1.149 5 .5 6.039 6.289 8.05 17.988 14 24.5"/><path fill="#178eb1" d="M468 454c-.714 2.454-.959 5.422-1 8-9.564 1.864-20.86 12.297-29 15-1.442.479-4.922-.197-7 1 9.832-11.52 22.661-19.429 37-24"/><path fill="#86bac9" d="M335 456c-4.698 10.289-8.372 21.289-12 32-7.417-2.934-4.183-5.192-6-9 6.317-6.39 8.899-20.282 18-23"/><path fill="#73c2cf" d="M811 469c1.866 9.124-2.352 31.959-4 42l-14-4c2.785-10.275 5.121-20.746 8-31 .656-2.335 2.436-14.547 4.5-15 2.07 1.828 4.959 5.355 5.5 8"/><path fill="#acddea" d="m229 506-15 4c-.433-3.336-6.862-51.349 3.5-48 4.636 14.409 7.939 29.311 11.5 44"/><path fill="#0b82a9" d="M467 462c-.132 8.329 2.862 17.034 10 22-8.548 7.09-22.266 14.127-29 23l-2-2c6.423-8.129.77-23.297-8-28 8.14-2.703 19.436-13.136 29-15"/><path fill="#1b4d5e" d="M742 637c-.059-.643.125-1.383 0-2 2.325-.32 13.024-.682 14-1.5 1.578-1.324 5.119-26.464 6-30.5 1.432-6.561 2.398-13.548 4-20 1.411-5.685 3.507-11.363 5-17 3.896-14.711 8.789-29.322 13-44 1.174-4.094 1.892-8.095 3-12 3.422-12.058 8.046-23.682 11-36l3 2c-2.879 10.254-5.215 20.725-8 31-3.336 12.31-6.737 24.665-10 37-1.955 7.391-5.067 14.65-7 22-1.84 6.997-4.342 14.005-6 21-1.368 5.769-3.127 12.192-4 18-.926 6.166-5.662 18.731 4.5 19 7.016.186 7.473-11.888 9.5-17 2.382-6.008 4.954-11.829 7-18 2.836-8.553 4.606-17.353 7-26 1.461-5.278 3.68-10.609 5-16 2.898-11.841 6.025-23.965 8-36 1.648-10.041 5.866-32.876 4-42l2-2c9.512 27.638-16.433 128.129-32 154.5-13.816 23.405-21.954 8.474-39 15.5m19.5-13c-.786.385-3.524 8.033-2 9 3.437.397 13.392.445 13.5-4.5.079-3.627-10.643-4.92-11.5-4.5"/><path fill="#64d8ee" d="M438 477c8.77 4.703 14.423 19.871 8 28-4.788 6.059-18.878 5.439-23-1.5-6.099-10.266 2.018-18.491 8-25.5 2.078-1.197 5.558-.521 7-1"/><path fill="#1093b9" d="M492 490c-20.951 6.843-37.38 27.029-43 48-13.358 1.178-19.003 22.973-7 28v1c-2.605 8.087 3.81 20.125 8 27-6.773 2.649-7.124-7.937-12-10-2.359-6.419-7.112-13.081-8-20-1.986-15.482 8.583-44.591 18-57 6.734-8.873 20.452-15.91 29-23 3.41 2.372 11.164 3.891 15 6"/><path fill="#0f4d6f" d="M505 487c19.936-2.232 43.224 6.459 57 21 10.15 10.714 18.615 29.014 18 44-1.993 48.559-53.9 75.1-97 58-8.438-3.348-18.168-10.503-24-17.5-6.74-8.085-9.331-19.636-17-25.5v-1c23.552 9.863 30.425-30.066 7-28 5.62-20.971 22.049-41.157 43-48 2.042-.667 10.934-2.769 13-3m48.5 79c-11.01 1.947-13.183 20.463-2 24 21.57 6.822 23.959-27.883 2-24"/><path fill="#26586b" d="M323 497c-14.701 53.778-5.907 105.161 23 152l-3 2c-2.399-3.355-3.658-8.251-7-11-.993-3.804-2.735-9.156-5.5-12-7.549-7.764-34.246-20.802-45-29-5.19-3.956-9.492-8.868-14.5-13-2.01-6.31-3.421-13.7-5-19 8.373 15.496 23.771 25.519 38 35 6.161 8.422 14.756 18.696 25 21.5-6.313-17.366-11.171-34.902-15-53V522c2.594-9.15 4.134-19.216 7-28z"/><path fill="#1db9d8" d="M630 582c-24.152 60.258-85.389 96.625-150.5 84-20.109-3.899-36.295-17.258-53.5-27-9.009-7.942-17.317-16.306-24-26.5 8.086-2.883 26.93-28.051 32.5-29.5 1.568-.408 2.297.491 3.5 1 4.876 2.063 5.227 12.649 12 10 7.9 12.961 15.432 16.599 30 22 50.32 18.658 105.455-9.024 105-65.5l-3.5 7.5-1.5-6c.615-14.986-7.85-33.286-18-44l6.5-8c11.796 14.081 21.409 30.932 22 50l45.5 12.5c-1.005 6.889-3.438 13.108-6 19.5"/><path fill="#daf1f7" d="M229 506c3.358 13.852 5.686 28.128 9 42-2.465-.822-12.532 3.364-13.5 3-2.215-.834-.506-11.013-4.5-10-2.095-9.681-4.743-21.318-6-31z"/><path fill="#cff1f7" d="M807 511c-1.975 12.035-5.102 24.159-8 36l-16-3c3.263-12.335 6.664-24.69 10-37z"/><path fill="#e0f4f9" d="M260 563c-1.299 3.434-5.201 5.051-9 5-4.671-18.372-12.029-37.036-17-56 4.354-.756 9.609 1.095 13-3 4.299 17.983 8.65 36.032 13 54"/><path fill="#93c7d3" d="M779 511c1.053 6.727-4.84 11.387 5 11-4.211 14.678-9.104 29.289-13 44-3.851-2.627-6.456-2.537-11-1 4.819-18.362 10.175-36.663 15-55 1.515 1.099 2.298.917 4 1"/><path fill="#dbf4f9" d="M784 522c-9.84.387-3.947-4.273-5-11 2.653.129 5.587.47 8-1-1.108 3.905-1.826 7.906-3 12"/><path fill="#488293" d="M304 602c-5.81-7.942-10.612-19.07-15-27 5.809 1.193 17.033-2.605 18-9 .584-3.86-2.886-13.401-2-20.5.889-7.125 7.074-16.706 9-23.5v48.5c3.829 18.098 8.687 35.634 15 53-10.244-2.804-18.839-13.078-25-21.5"/><path fill="#fafdfe" d="M442 566c-12.003-5.027-6.358-26.822 7-28 23.425-2.066 16.552 37.863-7 28"/><path fill="#e6f7fb" d="M238 548c1.016 4.251 2.961 8.695 4 13-2.001 6.879-10.222 2.769-16 5-2.319-8.187-4.199-16.678-6-25 3.994-1.013 2.285 9.166 4.5 10 .968.364 11.035-3.822 13.5-3"/><path fill="#b0e6ee" d="M799 547c-1.32 5.391-3.539 10.722-5 16l-18 3c1.933-7.35 5.045-14.609 7-22z"/><path fill="#45e0f4" d="M480 616c4.422.818 2.779-2.677 3-6 43.1 17.1 95.007-9.441 97-58l1.5 6 3.5-7.5c.455 56.476-54.68 84.158-105 65.5"/><path fill="#71b2c2" d="M253 603c-9.961 2.356-7.488-12.26-12.5-18-6.483 2.392-3.7 9.63-2.5 15-3.994-11.165-8.773-22.606-12-34 5.778-2.231 13.999 1.879 16-5 3.33 13.799 8.232 28.345 11 42"/><path fill="#a6d3e0" d="M265 585c-4.08-1.885-5.671-5.493-10-2-1.123-4.894-2.743-10.057-4-15 3.799.051 7.701-1.566 9-5 1.764 7.289 3.215 14.712 5 22"/><path fill="#57a8b5" d="M794 563c-2.394 8.647-4.164 17.447-7 26-4.947.662-6.074-3.9-6.5-4-.551-.129-7.663 2.347-10.5 2 1.658-6.995 4.16-14.003 6-21z"/><path fill="#9fcbda" d="M672 571c-8.401 48.079-36.323 93.348-79 118-2.181-5.256-6.653-8.668-3-14 37.655-22.805 67.567-67.099 73-111 .905 5.052 3.464 8.085 9 7"/><path fill="#6eacbb" d="M771 566c-1.493 5.637-3.589 11.315-5 17l-10-2c1.399-5.311 2.609-10.701 4-16 4.544-1.537 7.149-1.627 11 1"/><path fill="#fbfdfe" d="M553.5 566c21.959-3.883 19.57 30.822-2 24-11.183-3.537-9.01-22.053 2-24"/><path fill="#2dcbe8" d="M483 610c-.221 3.323 1.422 6.818-3 6-14.568-5.401-22.1-9.039-30-22-4.19-6.875-10.605-18.913-8-27 7.669 5.864 10.26 17.415 17 25.5 5.832 6.997 15.562 14.152 24 17.5"/><path fill="#70a5b6" d="M265 585c1.129 4.609 3.31 9.069 3 14l-10 5c-1.265-6.596-1.577-14.796-3-21 4.329-3.493 5.92.115 10 2"/><path fill="#468797" d="M766 583c-1.602 6.452-2.568 13.439-4 20l-10-2c.85-3.092 1.112-7.661 2-11 .785-2.954 1.23-6.076 2-9z"/><path fill="#d7fbfd" d="M426 639c17.205 9.742 33.391 23.101 53.5 27 65.111 12.625 126.348-23.742 150.5-84-25.946 88.455-134.445 118.321-204 57"/><path fill="#163b4d" d="M754 590c-.888 3.339-1.15 7.908-2 11-2.165 7.873-11.48 26.719-10 34 .125.617-.059 1.357 0 2-2.15.886-3.895 3.545-5 5.5-6.995 12.374-13.304 38.131-20 53-26.996 59.942-69.322 134.068-128.5 166.5-20.625 11.304-59.444 26.975-82.5 26v-2c14.582.791 25.177-1.969 38-9 9.257-1.321 17.2-7.586 25-12 45.388-25.684 73.879-59.984 102-103 36.245-55.442 57.23-113.504 78-176 .079-.237 2.922-3.762 3-4 4.56 2.335-1.018 4.931 2 8"/><path fill="#5294a5" d="M253 603c1.876 9.257 6.82 17.527-4.5 21-2.405-.357-9.749-20.637-10.5-24-1.2-5.37-3.983-12.608 2.5-15 5.012 5.74 2.539 20.356 12.5 18"/><path fill="#2a6173" d="M749 586c-20.77 62.496-41.755 120.558-78 176-1.817.842-3.926-1.326-4-2.5-.157-2.5 19.207-37.966 22-45 12.855-32.378 20.362-66.883 34-99-1.416-2.521-22.419 10.362-24.5 11.5-1.552.849-1.636-2.193-2-2-.727.385-3.304 7.473-4.5 9-1.926 2.459-5.483 6.684-8 5 2.575-4.196 2.723-10.035 7.5-15 11.903-12.372 47.537-24.193 56.5-39z"/><path fill="#3e919f" d="M787 589c-2.046 6.171-4.618 11.992-7 18-5.169-3.995-7.013-4.625-14-2 .873-5.808 2.632-12.231 4-18 2.837.347 9.949-2.129 10.5-2 .426.1 1.553 4.662 6.5 4"/><path fill="#7aafbe" d="M336 640c-.57-.469-10.29-4.391-12.5-6-6.514-4.743-12.481-10.393-19-15-.931.829-1.432 1.123-1.5 2.5-.128 2.59 14.752 43.027 17 49 22.911 60.86 56.447 120.458 101 168 6.871 7.332 16.468 13.799 22.5 20.5 1.668 1.853 2.081 1.621.5 4-87.612-48.321-141.181-177.929-171-269-.741-2.264-1.2-5.487-2-8 5.008 4.132 9.31 9.044 14.5 13 10.754 8.198 37.451 21.236 45 29 2.765 2.844 4.507 8.196 5.5 12"/><path fill="#336a7a" d="M444 863c2.542 1.402 4.906 3.645 7.5 5 2.164 1.13-.17-3.086 2-2 19.705 9.866 28.09 18.676 52.5 20v2c-74.373-3.146-141.203-78.661-175-138.5-19.487-34.502-30.504-72.788-48-106-1.594-3.026-3.184-7.495-7-8.5 4-.205 1.028-1.809 1-2-1.15-7.882-8.565-28.889-8-34 .283-2.563 1.689-3.854 4-5 29.819 91.071 83.388 220.679 171 269"/><path fill="#407b8c" d="M268 599h1c-.565 5.111 6.85 26.118 8 34-2.898-1.043-11.308 1.911-13-.5-3.941-5.615-4.681-21.622-6-28.5z"/><path fill="#256675" d="M762 603c-.881 4.036-4.422 29.176-6 30.5-.976.818-11.675 1.18-14 1.5-1.48-7.281 7.835-26.127 10-34z"/><path fill="#318291" d="M780 607c-2.027 5.112-2.484 17.186-9.5 17-10.162-.269-5.426-12.834-4.5-19 6.987-2.625 8.831-1.995 14 2"/><path fill="#49798b" d="M671 762c-28.121 43.016-56.612 77.316-102 103 9.406-10.48 20.597-18.945 30-29.5 42.219-47.391 73.067-137.592 94-198 .29-.838 1.582-4.25-1-3.5 1.196-1.527 3.773-8.615 4.5-9 .364-.193.448 2.849 2 2 2.081-1.138 23.084-14.021 24.5-11.5-13.638 32.117-21.145 66.622-34 99-2.793 7.034-22.157 42.5-22 45 .074 1.174 2.183 3.342 4 2.5"/><path fill="#a2d0de" d="M336 640c3.342 2.749 4.601 7.645 7 11 8.593 12.021 14.553 22.858 25 34-.846 1.248-5.009-.457-3 3.5 1.852 3.649 16.547 17.261 20.5 20.5 12.806 10.493 30.04 20.168 45.5 26 1.345 1.235 2.935 1.632 4 3-16.703-2.228-29.276 2.183-32 20.5-8.461 56.896 28.926 81.725 79.5 86.5 42.154 3.98 103.459 3.259 124.5-40-10.646 25.031-38.98 58.828-63 72-12.823 7.031-23.418 9.791-38 9-24.41-1.324-32.795-10.134-52.5-20-2.17-1.086.164 3.13-2 2-2.594-1.355-4.958-3.598-7.5-5 1.581-2.379 1.168-2.147-.5-4-6.032-6.701-15.629-13.168-22.5-20.5-44.553-47.542-78.089-107.14-101-168-2.248-5.973-17.128-46.41-17-49 .068-1.377.569-1.671 1.5-2.5 6.519 4.607 12.486 10.257 19 15 2.21 1.609 11.93 5.531 12.5 6"/><path fill="#83bfcd" d="M255.5 624c5.184.382 6.867 7.978 4 9-4.814-1.06-8.392-.3-10.5-5.5-.202-1.785 6.132-3.527 6.5-3.5"/><path fill="#23697a" d="M761.5 624c.857-.42 11.579.873 11.5 4.5-.108 4.945-10.063 4.897-13.5 4.5-1.524-.967 1.214-8.615 2-9"/><path fill="#78a8b9" d="M569 865c-7.8 4.414-15.743 10.679-25 12 24.02-13.172 52.354-46.969 63-72 7.269-14.944 12.74-35.177 8-51.5-7.69-26.48-30.54-12.802-50-9.5 18.235-8.177 37.534-14.23 54.5-25 6.592-4.185 20.124-11.151 16.5-19 20.89-17.242 31.001-34.706 45-57 .779-1.241 2.237-2.756 3-4 2.517 1.684 6.074-2.541 8-5 2.582-.75 1.29 2.662 1 3.5-20.933 60.408-51.781 150.609-94 198-9.403 10.555-20.594 19.02-30 29.5"/><path fill="#204d5e" d="M681 643c-13.999 22.294-24.11 39.758-45 57-28.954 23.897-73.645 41.202-111 44-31.664 2.372-65.709-3.591-95-16-12.845-5.442-26.755-13.726-38-22l1-4c93.793 71.244 227.268 40.666 285-60z"/><path fill="#a4cfde" d="M440 680c2.754 1.965-.91 12.697-2.5 13-8.346-5.091-17.553-9.297-25.5-15-2.06-1.478-3.279-2.646-5-4l-5-4c-5.936-5.08-11.813-12.073-17-18l6-9c11.797 13.896 32.521 29.151 49 37"/><path fill="#3c798a" d="M346 649c11.973 19.401 28.802 39.177 47 53l-1 4c-8.419-6.195-16.861-13.386-24-21-10.447-11.142-16.407-21.979-25-34z"/><path fill="#c7eff7" d="M407 674c-1.808-1.423-3.211-2.469-5-4zm186 15c-55.4 32.001-130.67 29.79-181-11 7.947 5.703 17.154 9.909 25.5 15 1.59-.303 5.254-11.035 2.5-13 45.367 21.61 106.565 21.305 150-5-3.653 5.332.819 8.744 3 14"/><path fill="#0eb7d4" d="M550 684c-27.922 7.173-52.049 7.927-80 1 1.859-3.61 8.015.929 8.5 1 2.522.371 9.269-.196 12 0 13.537.97 31.297 2.3 46 0 2.243-.351 9.474-6.016 13.5-2"/><path fill="#88bac8" d="M368 685c7.139 7.614 15.581 14.805 24 21 11.245 8.274 25.155 16.558 38 22-4.254 3.397-1.616 4.599 1 7-15.46-5.832-32.694-15.507-45.5-26-3.953-3.239-18.648-16.851-20.5-20.5-2.009-3.957 2.154-2.252 3-3.5"/><path fill="#5a8e9e" d="M565 744c-18.047 3.062-30.155 5.612-49 6l-5.5-3c1.256-1.792 19.026.778 14.5-3 37.355-2.798 82.046-20.103 111-44 3.624 7.849-9.908 14.815-16.5 19-16.966 10.77-36.265 16.823-54.5 25"/><path fill="#70a7b5" d="M525 744c4.526 3.778-13.244 1.208-14.5 3l5.5 3c-36.244.746-50.441-7.925-81-12-1.065-1.368-2.655-1.765-4-3-2.616-2.401-5.254-3.603-1-7 29.291 12.409 63.336 18.372 95 16"/><path fill="#e6f6fa" d="M607 805c-21.041 43.259-82.346 43.98-124.5 40-50.574-4.775-87.961-29.604-79.5-86.5 2.724-18.317 15.297-22.728 32-20.5 30.559 4.075 44.756 12.746 81 12 18.845-.388 30.953-2.938 49-6 19.46-3.302 42.31-16.98 50 9.5 4.74 16.323-.731 36.556-8 51.5m-65-52c-25.69 1.585-53.584 2.023-79-2-13.027-2.062-32.471-10.811-44-8-22.968 5.6-11.578 53.118-2 68.5 24.604 39.511 135.392 38.935 170.5 15.5 16.976-11.332 26.759-43.026 25.5-62.5-2.905-44.92-44.722-8.822-71-11.5"/><path fill="#060a13" d="M419 743c-25.726 21.089-4.385 74.338 23.5 86 6.725-11.982 8.564-20.966 25-20 3.005.177 12.348 3.852 15 4 26.805 1.498 52.743-.972 80-3l12 19c15.469-4.969 27.984-21.032 32.5-36.5 3.102-10.627 6.75-45.616-6.5-49.5-5.433-1.593-37.33 8.896-47.5 10-4.511.49-7.988-.186-11 0 26.278 2.678 68.095-33.42 71 11.5 1.259 19.474-8.524 51.168-25.5 62.5-35.108 23.435-145.896 24.011-170.5-15.5-9.578-15.382-20.968-62.9 2-68.5m39.5 69c-2.414.758-11.317 16.671-10.5 18.5l25.5 7.5 7.5-22.5c-.684-2.135-19.963-4.297-22.5-3.5m96 0c-1.336.017-15.999 2.822-16.5 3.5l7.5 22.5 24.5-7.5c-3.711-10.92-2.162-18.669-15.5-18.5m-69 3c-3.66 1.394-5.342 18.571-7.5 22.5 1.101 3.311 23.447 2.378 27.5 2.5l2.5-22.5c-1.319-1.828-20.313-3.333-22.5-2.5m44 0c-4.465-.328-14.222 1.909-19.5 1.5-1.821 3.602-1.43 22.228 1.5 23.5l28.5-2.5c-4.81-6.251-1.118-21.811-10.5-22.5"/><path fill="#101a2c" d="M463 751c-5.813 2.966-8.379-3.478-11 5-1.756.024-2.734-1.364-3.5-1-2.823 1.34-8.22 25.659-6 30 .953.678 19.427-1.16 21-2 2.539-1.356 5.809-20.184 5.5-22 2.546 3.752 1.487-1.323 6-2-1.889 6.043-9.382 22.637-.5 25 2.311.615 28.787-1.112 30-2 3.905-2.861-.169-16.698-.5-21 3.227 1.323 1.44 1.529 2.5 4 .803-6.327 1.474-2.596 2.5-3 .741 3.763-1.631 16.866 1.5 19 2.849 1.941 36.02 1.896 37.5-1.5 1.283-2.944-2.699-18.436-5.5-19.5-1.337-.508-6.341.163-8.5 0l-1.5-2c5.268-.907 10.419 1.258 15.5 1-.219 1.162 4.645 22.183 5.5 23 1.959 1.872 21.145 4.545 22.5 1.5 1.294-2.908-5.63-26.739-7.5-27.5-6.83.688-13.645 2.652-20.5 3 1.3-6.895 8.047 1.59 5-6 10.17-1.104 42.067-11.593 47.5-10 13.25 3.884 9.602 38.873 6.5 49.5-4.516 15.468-17.031 31.531-32.5 36.5l-12-19c-27.257 2.028-53.195 4.498-80 3-2.652-.148-11.995-3.823-15-4-16.436-.966-18.275 8.018-25 20-27.885-11.662-49.226-64.911-23.5-86 11.529-2.811 30.973 5.938 44 8m-33.5 0c-3.438 1.058-10.452 28.68-3 33 16.483 9.555 10.445-21.12 17.5-28.5-.416-1.471-13.183-4.905-14.5-4.5m156 1c-.646-.062-12.218 2.915-12.5 3.5 5.197 9.515 6.096 20.108 8.5 30.5 20.656 6.812 11.43-33.283 4-34"/><path fill="#5f7f91" d="M429.5 751c1.317-.405 14.084 3.029 14.5 4.5-7.055 7.38-1.017 38.055-17.5 28.5-7.452-4.32-.438-31.942 3-33"/><path fill="#0b3148" d="M463 751c25.416 4.023 53.31 3.585 79 2 3.012-.186 6.489.49 11 0 3.047 7.59-3.7-.895-5 6-5.081.258-10.232-1.907-15.5-1l1.5 2c-7.389-.559-18.001-.753-25 2-1.026.404-1.697-3.327-2.5 3-1.06-2.471.727-2.677-2.5-4-2.093-.858-26.241-2.414-29-2-4.513.677-3.454 5.752-6 2-.238-1.396-.017-2.033-1.5-3-5.241-.054-10.25-2.073-15.5-2 2.621-8.478 5.187-2.034 11-5"/><path fill="#658597" d="M585.5 752c7.43.717 16.656 40.812-4 34-2.404-10.392-3.303-20.985-8.5-30.5.282-.585 11.854-3.562 12.5-3.5"/><path fill="#94b3c3" d="M452 756c5.25-.073 10.259 1.946 15.5 2 1.483.967 1.262 1.604 1.5 3 .309 1.816-2.961 20.644-5.5 22-1.573.84-20.047 2.678-21 2-2.22-4.341 3.177-28.66 6-30 .766-.364 1.744 1.024 3.5 1"/><path fill="#87a7b7" d="M548 759c6.855-.348 13.67-2.312 20.5-3 1.87.761 8.794 24.592 7.5 27.5-1.355 3.045-20.541.372-22.5-1.5-.855-.817-5.719-21.838-5.5-23"/><path fill="#a8c7d5" d="M504 761c.331 4.302 4.405 18.139.5 21-1.213.888-27.689 2.615-30 2-8.882-2.363-1.389-18.957.5-25 2.759-.414 26.907 1.142 29 2"/><path fill="#acccd9" d="M534 760c2.159.163 7.163-.508 8.5 0 2.801 1.064 6.783 16.556 5.5 19.5-1.48 3.396-34.651 3.441-37.5 1.5-3.131-2.134-.759-15.237-1.5-19 6.999-2.753 17.611-2.559 25-2"/><path fill="#aacedb" d="M458.5 812c2.537-.797 21.816 1.365 22.5 3.5l-7.5 22.5-25.5-7.5c-.817-1.829 8.086-17.742 10.5-18.5"/><path fill="#aacbd9" d="M554.5 812c13.338-.169 11.789 7.58 15.5 18.5l-24.5 7.5-7.5-22.5c.501-.678 15.164-3.483 16.5-3.5"/><path fill="#bbe1eb" d="M485.5 815c2.187-.833 21.181.672 22.5 2.5l-2.5 22.5c-4.053-.122-26.399.811-27.5-2.5 2.158-3.929 3.84-21.106 7.5-22.5"/><path fill="#c3e7ef" d="M529.5 815c9.382.689 5.69 16.249 10.5 22.5l-28.5 2.5c-2.93-1.272-3.321-19.898-1.5-23.5 5.278.409 15.035-1.828 19.5-1.5m-7 3c-2.831.081-8.354 2.016-11.5 2.5l21.5-.5c-1.864-.719-8.416-2.045-10-2"/><path fill="#a2d1da" d="M522.5 818c1.584-.045 8.136 1.281 10 2l-21.5.5c3.146-.484 8.669-2.419 11.5-2.5"/></svg>