<svg xmlns="http://www.w3.org/2000/svg" width="1024" height="1024"><defs><linearGradient id="a" x1="161.473" x2="249.091" y1="196.094" y2="305.287" gradientUnits="userSpaceOnUse"><stop offset="0%" style="stop-color:#437e8d"/><stop offset="100%" style="stop-color:#1f5c70"/></linearGradient></defs><defs><linearGradient id="b" x1="863.777" x2="779.662" y1="195.59" y2="306.25" gradientUnits="userSpaceOnUse"><stop offset="0%" style="stop-color:#3a7686"/><stop offset="100%" style="stop-color:#1c5368"/></linearGradient></defs><defs><linearGradient id="c" x1="168.481" x2="312.529" y1="156.925" y2="235.323" gradientUnits="userSpaceOnUse"><stop offset="0%" style="stop-color:#dcf0f5"/><stop offset="100%" style="stop-color:#89bbca"/></linearGradient></defs><defs><linearGradient id="d" x1="793.571" x2="734.766" y1="111.125" y2="265.29" gradientUnits="userSpaceOnUse"><stop offset="0%" style="stop-color:#b2d0d8"/><stop offset="100%" style="stop-color:#478294"/></linearGradient></defs><defs><linearGradient id="e" x1="821.304" x2="197.306" y1="485.16" y2="486.833" gradientUnits="userSpaceOnUse"><stop offset="0%" style="stop-color:#79a6b5"/><stop offset="32.212%" style="stop-color:#d8e7ed"/><stop offset="40.064%" style="stop-color:#e7f1f4"/><stop offset="43.75%" style="stop-color:#ebf3f5"/><stop offset="47.276%" style="stop-color:#ecf4f6"/><stop offset="65.705%" style="stop-color:#d2eaf0"/><stop offset="100%" style="stop-color:#6ad1e9"/></linearGradient></defs><defs><linearGradient id="f" x1="634.27" x2="382.326" y1="310.207" y2="374.425" gradientUnits="userSpaceOnUse"><stop offset="23.846%" style="stop-color:#f7f8f9"/><stop offset="100%" style="stop-color:#b3ccd4"/></linearGradient></defs><defs><linearGradient id="g" x1="542.511" x2="482.569" y1="452.479" y2="588.89" gradientUnits="userSpaceOnUse"><stop offset="0%" style="stop-color:#03184a"/><stop offset="100%" style="stop-color:#0373a4"/></linearGradient></defs><defs><linearGradient id="h" x1="715.515" x2="738.293" y1="457.952" y2="514.54" gradientUnits="userSpaceOnUse"><stop offset="0%" style="stop-color:#859fa8"/><stop offset="100%" style="stop-color:#698791"/></linearGradient></defs><defs><linearGradient id="i" x1="615.923" x2="793.345" y1="678.845" y2="731.253" gradientUnits="userSpaceOnUse"><stop offset="0%" style="stop-color:#9cc0cb"/><stop offset="100%" style="stop-color:#578190"/></linearGradient></defs><defs><linearGradient id="j" x1="583.151" x2="482.912" y1="735.257" y2="890.747" gradientUnits="userSpaceOnUse"><stop offset="0%" style="stop-color:#347281"/><stop offset="76.757%" style="stop-color:#4996a1"/><stop offset="100%" style="stop-color:#2f7282"/></linearGradient></defs><defs><linearGradient id="k" x1="575.74" x2="427.889" y1="806.161" y2="812.799" gradientUnits="userSpaceOnUse"><stop offset="0%" style="stop-color:#dbe4e6"/><stop offset="54.054%" style="stop-color:#628690"/><stop offset="100%" style="stop-color:#3a565d"/></linearGradient></defs><path fill="#115467" d="M378 216c.771.76 1.932 3.699 2 5-55.526 20.623-107.34 54.896-146 100-2.977-1.188-2.131-2.671-1-5 .591-1.217 5.734-7.547 7-9 3.3-3.788 8.32-6.52 11-11 37.902-29.912 72.767-61.928 120.5-77 2.172-1.822 1.36-1.376 0-3-1.775-2.119-12.427-8.495-15.5-11-36.911-30.095-63.406-46.765-106-68-12.892-6.427-66.672-36.049-78.5-29-1.808 1.077-3.226 4.717-3.5 6.5-1.985 12.92 10.905 54.814 15 69.5 7.736 27.745 17.615 58.16 28 85-.294 2.682-5.266-3.686-6-5 2.247-1.03.515-3.938 0-5.5-10.349-31.401-23.02-62.314-31-94.5-2.879-11.61-7.55-28.081-9-39.5-.706-5.559 3.788-22.686-4.5-19.5-3.024 1.162-4.194 14.216-4.5 17.5-2.163 23.178.799 50.355 3 73.5l-3 1c-2.466-21.888-7.598-67.338-1-87.5 2.554-7.806 13.333-7.217 20.5-6.5 37.156 3.716 121.662 54.591 154 77 11.757 8.147 39.373 26.997 48.5 36"/><path fill="#185f74" d="m866 196-3-3c.689-7.914 2.737-16.625 3-24.5.291-8.719 1.114-61.295-5.5-63.5-8.173-2.725-2.963 9.31-3.5 16.5-.595 7.968-3.334 17.551-5 25.5-3.812 18.183-10.444 39.577-16 57.5-6.02 19.418-14.821 39.021-19 58.5-7.782 19.736-14.975 39.788-26 58-1.148.176-.902-.88-1-1-1.335-4.772-5.927-11.211-9-15l2-1c1.065 1.275 7.19 10.01 9 8.5 7.619-17.725 15.216-35.434 22-53.5 8.74-23.278 44.44-129.16 39-147.5-.09-.305-4.196-4.407-4.5-4.5-12.19-3.71-68.022 24.954-81.5 32-4.611 2.41-9.377 4.612-14 7 3.469-2.157 8.106-6.008 11-9 20.599-10.775 59.196-31.471 81.5-34 21.167-2.4 21.849 4.419 23.5 23.5 1.861 21.517-.638 47.939-3 69.5"/><path fill="url(#a)" d="M174 164c1.547 13.785 5.89 29.229 10 42.5 4.691 15.149 13.711 44.448 21 57.5.734 1.314 5.706 7.682 6 5 6.045 15.622 13.212 32.854 22 47-1.131 2.329-1.977 3.812 1 5-11.925 13.913-25.64 32.71-34 49l-17-56c-2.129-7.408-5.002-14.739-7-22-8.478-31.256-13.939-63.81-17-96-2.201-23.145-5.163-50.322-3-73.5.306-3.284 1.476-16.338 4.5-17.5 8.288-3.186 3.794 13.941 4.5 19.5 1.45 11.419 6.121 27.89 9 39.5" style="fill:url(#a)"/>/&gt;<path fill="url(#b)" d="M863 193c-2.156 24.756-5.281 50.109-11 74.5-5.678 24.216-28.06 72.45-30 91-.546 5.224 1.832 14.011 3 19.5l-34-57c11.025-18.212 18.218-38.264 26-58 13.475-34.175 25.115-68.763 34-104.5.641-2.576 2.33-9.131 1-11.5 1.666-7.949 4.405-17.532 5-25.5.537-7.19-4.673-19.225 3.5-16.5 6.614 2.205 5.791 54.781 5.5 63.5-.263 7.875-2.311 16.586-3 24.5" style="fill:url(#b)"/>/&gt;<path fill="#f3f9fa" d="M250 137c2.23 7.206 11.253 8.298 17.5 12 25.837 15.308 52.816 31.897 74 53-18.484-12.053-36.172-25.472-55-37-15.452-9.46-95.053-54.948-108-53-1.994.3-2.775.15-3.5 2.5-2.499 8.099 11.719 55.402 15 66.5-2.133-1.806-4.457 1.905-7 3-4.095-14.686-16.985-56.58-15-69.5.274-1.783 1.692-5.423 3.5-6.5 11.828-7.049 65.608 22.573 78.5 29"/><path fill="#b6d1d6" d="M814 259c-6.338 4.094-1.498 13.45-12 6 13.588-30.729 30.218-78.897 38-111.5 1.345-5.635 8.8-39.123 5.5-41.5-60.519 16.286-111.661 56.39-164.5 88.5 25.712-23.153 55.557-41.216 86.5-56.5l-.5-5c13.478-7.046 69.31-35.71 81.5-32 .304.093 4.41 4.195 4.5 4.5 5.44 18.34-30.26 124.222-39 147.5"/><path fill="url(#c)" d="M250 137c42.594 21.235 69.089 37.905 106 68-43.733 23.245-84.06 55.05-113 95.5 1.097 1.094 7.191-3.862 8-4.5-2.68 4.48-7.7 7.212-11 11-2.214-11.644-10.838-22.472-16-33.5-13.066-27.915-25.237-62.853-34-92.5-3.281-11.098-17.499-58.401-15-66.5.725-2.35 1.506-2.2 3.5-2.5 12.947-1.948 92.548 43.54 108 53 18.828 11.528 36.516 24.947 55 37-21.184-21.103-48.163-37.692-74-53-6.247-3.702-15.27-4.794-17.5-12" style="fill:url(#c)"/>/&gt;<path fill="url(#d)" d="M802 265c-5.482 12.396-12.305 24.807-20 36-32.148-38.677-69.788-72.234-115-95 32.137-26.658 51.004-38.241 86-60 4.623-2.388 9.389-4.59 14-7l.5 5c-30.943 15.284-60.788 33.347-86.5 56.5 52.839-32.11 103.981-72.214 164.5-88.5 3.3 2.377-4.155 35.865-5.5 41.5-7.782 32.603-24.412 80.771-38 111.5" style="fill:url(#d)"/>/&gt;<path fill="#0b475a" d="M764 137c-2.894 2.992-7.531 6.843-11 9-34.996 21.759-53.863 33.342-86 60-3.296 2.734-8.676 8.115-12 10-1 .567-1.792 1.079-2.5 2-3.649.303-2.344-1.964-2.5-2 2.946-2.109 5.493-4.895 8-7.5 26.816-27.868 70.326-52.84 106-71.5"/><path fill="#a7cccf" d="M817 263c4.179-19.479 12.98-39.082 19-58.5 5.556-17.923 12.188-39.317 16-57.5 1.33 2.369-.359 8.924-1 11.5-8.885 35.737-20.525 70.325-34 104.5"/><path fill="#daecf0" d="M205 264c-7.289-13.052-16.309-42.351-21-57.5-4.11-13.271-8.453-28.715-10-42.5 7.98 32.186 20.651 63.099 31 94.5.515 1.562 2.247 4.47 0 5.5"/><path fill="#cfeaf1" d="M190 181c8.763 29.647 20.934 64.585 34 92.5 5.162 11.028 13.786 21.856 16 33.5-1.266 1.453-6.409 7.783-7 9-8.788-14.146-15.955-31.378-22-47-10.385-26.84-20.264-57.255-28-85 2.543-1.095 4.867-4.806 7-3"/><path fill="#267a8e" d="M650 216c.156.036-1.149 2.303 2.5 2 .708-.921 1.5-1.433 2.5-2 5.956 4.162 13.456 7.769 20 11-5.799 1.302 7.896 8.288 9 9-96.321-46.141-203.658-52.268-304-15-.068-1.301-1.229-4.24-2-5 75.974-29.945 159.762-31.375 238.5-11 11.282 2.919 22.129 8.376 33.5 11"/><path fill="#103146" d="M866 196c-2.261 20.636-6.421 46.263-11 66.5-5.253 23.216-32.463 91.924-29 109 1.688 8.324 9.81 31.927 13 41 1.684 4.789 13.726 37.344 15 39 1.399 1.818 2.671 1.265 3 1.5-2.733 1.343-.967 2.92 1 5 4.337 20.427 1.297 42.357-2 63-.644 4.03-1.204 7.991-2 12-.451 2.272-.483 5.802-1 8-.953 4.054-6.227 12.222-6 17.5l2-1.5c-.458 5.858 2.861 16.639 3 22.5.339 14.336.378 28.822-2 43 .751.895 3.677.508 5 .5.093 8.085 8.912-2.572 12 0-5.892 3.891-17.35 4.798-18 5.5-1.294 1.397-6.804 30.775-9 37-30.185 85.568-114.885 165.021-203 186.5-76.194 18.573-175.953 18.215-252-1-28.674-7.245-57.309-18.319-83-33h8.5c7.779 4.384 16.253 8.755 24.5 12 8.654 3.405 17.106 7.167 26 10 91.682 29.207 255.408 31.915 340.5-17l20-14c-42.088-27.174-86.014-41.249-135.5-48-26.425-3.605-53.28-6.02-80-6-23.381.018-49.337 1.809-72.5 5-16.999 2.342-53.007 14.234-66.5 14 30.548-12.642 63.329-17.167 96-21 15.849 1.146 34.54-2.424 51-2 73.602 1.896 148.959 14.406 210.5 57 3.628-2.158 6.245-5.395 9.5-8 14.379-11.51 26.679-24.359 39-38 51.512-57.032 73.917-101.204 64-180.5-.164-1.315-1.144-6.152-3-6.5-.019-.332.02-.668 0-1-.043-.719-.672-10.109-3.5-10-1.609 2.44-5.96 9.513-8 11-12.969 9.45-54.927 23.538-72 25-4.904.42-16.94 1.274-20.5-2 5.574.042 10.511-.45 16-1 24.568-2.461 74.509-19.496 88-41.5 7.302-11.91 21.623-78.229 20-92-1.119-9.499-9.586-21.652-10-32-3.471 1.755.761 13.669 1 18 4.188 75.957-25.762 136.344-110 136.5-15.089.028-30.764-3.021-45.5-6-.944.301-2.672 5.388-3.5 7l13-55-7.5 46c24.6 4.614 43.325 6.528 67.5 1 3.062-.378 8.119.616 10-3 99.732-31.638 72.441-120.744 56-198-1.168-5.489-3.546-14.276-3-19.5 1.94-18.55 24.322-66.784 30-91 5.719-24.391 8.844-49.744 11-74.5zm-10.5 291c-1.218 1.195-5.245 28.86-6.5 33.5-2.329 8.613-12.17 29.419-13 35-.889 5.981 4.487 20.778 5 28 1.259 17.724 1.266 35.763.5 53.5 2.869-.018 2.061-2.181 2.5-3.5 8.856-26.597-.64-49.632 0-73 .529-19.318 16.574-47.93 13.5-71.5-.179-1.373-.419-3.55-2-2"/><path fill="#092840" d="M159 196c3.061 32.19 8.522 64.744 17 96-9.071-32.973-16.059-60.024-20-95z"/><path fill="url(#e)" d="M684 236c2.007 1.295 3.891 2.707 6 4 3.936 6.27 13.228 10.206 19.5 15 55.184 42.183 127.267 132.421 121.5 205.5-3.513 44.516-32.871 88.673-83 78.5 2.456-30.766-3.498-64.9-13-94-79.216-242.599-452.581-191.856-459 76-.115 4.802-1.252 14.34-1 18-5.12 6.235-5.772 33.112.5 37 7.876 4.883 48.489 1.682 59.5 3l-57.5-1c5.203 6.954 20.823 5.45 29.5 6-6.295 4.539-14.192-.025-21.5 4-15.23 8.388 5.146 41.909 11.5 52.5 29.951 49.922 106.713 108.215 166 112.5-32.671 3.833-65.452 8.358-96 21-.656-.011-1.356.076-2 0-23.948-2.835-76.027-48.888-91-68.5-30.853-40.411-42.087-84.178-40-135-1.567 10.551-1.347 21.849-1 32.5l-5-2c8.986-42.351.578-141.366-28-175.5-2.707-3.233-15.805-12.955-16-14-.723-3.871 13.12-35.888 16-41.5 8.36-16.29 22.075-35.087 34-49 38.66-45.104 90.474-79.377 146-100 100.342-37.268 207.679-31.141 304 15m-198.5-22c-111.094 5.577-242.446 75.105-267.5 191.5 26.166-68.648 86.473-125.745 152.5-156.5 88.415-41.184 192.684-36.42 281 2-50.027-27.773-108.7-39.877-166-37" style="fill:url(#e)"/>/&gt;<path fill="#6c8d97" d="M251 296c-.809.638-6.903 5.594-8 4.5 28.94-40.45 69.267-72.255 113-95.5 3.073 2.505 13.725 8.881 15.5 11 1.36 1.624 2.172 1.178 0 3-47.733 15.072-82.598 47.088-120.5 77"/><path fill="#4d6e79" d="M782 301c.855 1.029.899 2.879 1 3l-2 1c-27.455-33.858-67.438-58.957-106-78-6.544-3.231-14.044-6.838-20-11 3.324-1.885 8.704-7.266 12-10 45.212 22.766 82.852 56.323 115 95"/><path fill="#fcfdfe" d="M485.5 214c57.3-2.877 115.973 9.227 166 37-88.316-38.42-192.585-43.184-281-2-66.027 30.755-126.334 87.852-152.5 156.5C243.054 289.105 374.406 219.577 485.5 214"/><path fill="#1d4d5e" d="M675 227c38.562 19.043 78.545 44.142 106 78 3.073 3.789 7.665 10.228 9 15-.372-.457-1.443 1.069-1.5 1-30.965-37.428-57.819-56.066-98.5-81-2.109-1.293-3.993-2.705-6-4-1.104-.712-14.799-7.698-9-9"/><path fill="#577c8a" d="M790 320c.098.12-.148 1.176 1 1l34 57c16.441 77.256 43.732 166.362-56 198-2.574.817-7.698 2.474-10 3-2.328.288-15.83 2.492-16.5 2-.631-.463-1.298-13.165-4.5-15 7.797-5.153 9.327-18.577 10-27 50.129 10.173 79.487-33.984 83-78.5 5.767-73.079-66.316-163.317-121.5-205.5-6.272-4.794-15.564-8.73-19.5-15 40.681 24.934 67.535 43.572 98.5 81 .057.069 1.128-1.457 1.5-1"/><path fill="#8ab3bf" d="M814 259c-6.784 18.066-14.381 35.775-22 53.5-1.81 1.51-7.935-7.225-9-8.5-.101-.121-.145-1.971-1-3 7.695-11.193 14.518-23.604 20-36 10.502 7.45 5.662-1.906 12-6"/><path fill="#053c53" d="m735 445-2 2c-8.386-24.117-26.439-53.471-44-72-3.04-3.207-10.813-12.554-14-14-87.224-84.245-242.415-85.45-328 2-4.103 2.261-12.293 9.457-13 14-5.541 3.688-9.092 9.796-13 15-23.549 31.359-36.063 67.017-41 106-.967 7.635-.613 15.416-2 23h-2c6.419-267.856 379.784-318.599 459-76"/><path fill="#092840" d="M183 314c-5.112-5.763-5.155-15.197-7-22 1.998 7.261 4.871 14.592 7 22"/><path fill="url(#f)" d="M675 361c-14.964-6.789-33.559 3.617-29 21-67.557-55.186-158.489-67.234-235.5-23L377 382c3.712-17.12-14.551-27.512-30-19 85.585-87.45 240.776-86.245 328-2" style="fill:url(#f)"/>/&gt;<path fill="#09283f" d="M200 370c-2.88 5.612-16.723 37.629-16 41.5.195 1.045 13.293 10.767 16 14 28.578 34.134 36.986 133.149 28 175.5-5.099 24.032-21.5 49.671-48.5 50-4.162 3.676 16.089 45.219 19.5 51.5 22.396 41.238 56.472 77.759 94 105.5l-1 1.5 4 5.5c-38.134-23.469-77.649-69.37-99-108.5-11.859-21.735-26.377-50.268-19-75-.67-1.937-25.363-10.252-28.5-12.5-23.964-17.172-21.27-130.003-4.5-152.5 15.328-20.562 28.548 11.091 32 24 2.44 9.123 4.319 23.027 5 32.5.094 1.314-.067 2.681 0 4 .185 3.624-.016 7.364 0 11 .013 2.98.098 6.024 0 9-.043 1.322.07 2.681 0 4-.546 10.33-2.29 31.588-5 41-2.364 8.209-9.734 20.743-17 25.5 19.81 11.519 35.322 17.81 46-8l2 1.5c-3.555 5.67-6.091 15.742-12.5 19-11.123 5.654-18.344-4.345-16.5 17.5 33.218 2.254 46.816-38.328 49-65 4.143-50.586-5.721-130.261-42.5-167.5-4.534-.293-6.712 27.57-4.5 29.5.672.586 7.056-1.123 9.5-.5 29.376 7.485 28.763 94.903 27.5 119-3.049.108-2.463 2.427-3-1.5-.712-5.207 1.113-15.062 1-21.5-.147-8.322-.304-17.743-1-26-1.222-14.496-3.653-30.613-9-43.5 1.719 4.423-.118 9.315 0 13.5-.302-10.496-4.994-36.955-19.5-36-2.205.145-31.167 15.592-30.5 8.5.131-1.391 19.481-9.035 22-11-5.98-19.899 3.173-40.568 10-59 1.456-3.931 8.547-14.096 9-17 .861-5.527-11.506-46.82-14-55.5zm-52 102c-7.682 13.259-10.775 49.275-11 65-.229 16.021-.848 36.697 7 51 1.885 3.436 3.418 8.401 9 8 3.072-.22 7.346-6.034 8-8.5.289-1.091-.34-17.243 0-21.5 1.263-15.825 3.967-37.999 4-53.5.016-7.35-3.554-15.331-2-22.5 6.91 23.966 9.004 73.03 3 97-2.291 9.145-8.478 20.753-19 13-2.049-5.241-5.956-11.059-8-16.5-.538 5.833 8.312 33.101 14 33.5 14.834 1.04 26.278-61.357 25-72.5-3.133-1.666-1.777 3.114-2 4.5-2.881 1.983-1.944-.673-2-2.5-.356-11.577.192-22.938-1-34.5-.954-9.249-5.37-42.933-15.5-45-6.152-1.255-6.934.572-9.5 5"/><path fill="#798f96" d="M646 382c2.25 8.577 12.657 12.5 18 19 9.054 11.015 18.436 25.25 25 38 13.677 26.567 20.606 54.202 23 84-.009.333.012.667 0 1-.561 15.017-3.049 31.082-10 44.5 10.321.129 26.895 3.517 36-2.5 3.202 1.835 3.869 14.537 4.5 15 .67.492 14.172-1.712 16.5-2-24.175 5.528-42.9 3.614-67.5-1l7.5-46c-7.054-275.33-436.543-225.504-364 47-11.011-1.318-51.624 1.883-59.5-3-6.272-3.888-5.62-30.765-.5-37 2.165 31.452 18.378 33.564 46.5 30-4.941-14.798-9.474-29.13-9.5-45-.012-7.37 1.718-21.472 3-29 3.684-21.625 13.593-43.916 23-63.5l20-30.5c2.696-.464 18.396-16.214 19-19l33.5-23c77.011-44.234 167.943-32.186 235.5 23"/><path fill="#072747" d="m699 532-13 55c-29.498 57.429-63.78 94.76-129.5 111-89.039 22.002-188.58-27.08-220-114-7.474-.268-15.047.366-22.5 0-2.312-.114-4.693.146-7 0-8.677-.55-24.297.954-29.5-6l57.5 1c-72.543-272.504 356.946-322.33 364-47M396 399c-21.736 18.456-39.349 41.203-50 68-28.309 71.224-3.715 140.469 55 186 4.364 3.384 8.318 6.966 13 10 2.571 1.666 5.357 3.47 8 5 50.619 29.304 100.138 34.331 155 13 27.007-10.501 52.877-28.098 71-51 4.865-2.624 6.85-8.028 10-12 1.159-1.461 1.479-2.297 2-3 16.964-22.885 27.269-46.053 30-75 4.038-42.795-12.09-91.038-43-121-3.667-10.607-15.789-20.344-26-25-22.992-17.678-50.782-28.82-79.5-33-53.265-7.754-104.326 3.039-145.5 38"/><path fill="#1c427d" d="M621 394c-24.833-11.323-57.926-6.962-64 24-1.44 7.343-1.309 15.592 0 23-27.482-11.137-55.231-14.649-83-2-6.877-14.955-24.775-27.62-38.5-12-5.338-14.098-28.762-16.024-39.5-28 41.174-34.961 92.235-45.754 145.5-38 28.718 4.18 56.508 15.322 79.5 33"/><path fill="#030f22" d="M377 382c-.604 2.786-16.304 18.536-19 19-12.605 2.169-25.93-11.593-24-24 .707-4.543 8.897-11.739 13-14 15.449-8.512 33.712 1.88 30 19m-37 0c.303 6.04 1.145 12.229 9.5 14 25.09 5.317 33.336-36.382 4.5-32-3.517.534-14.03 8.678-15 11.5-.107.311.886 4.217 1 6.5"/><path fill="#0d2c41" d="M675 361c3.187 1.446 10.96 10.793 14 14l-3 19.5c-6.126 7.94-12.63 8.634-22 6.5-5.343-6.5-15.75-10.423-18-19-4.559-17.383 14.036-27.789 29-21m-10.5 1c-24.232.635-17.719 39.996 8 35 19.458-3.78 14.794-35.597-8-35"/><path fill="#f3f6f6" d="M664.5 362c22.794-.597 27.458 31.22 8 35-25.719 4.996-32.232-34.365-8-35m-4.5 4c-3.249.976-2.238 1.286-4 3-13.127 12.771 6.338 32.491 20.5 23 14.785-9.908 1.511-31.407-16.5-26"/><path fill="#144459" d="M354 364c-.758 8.447-2.609 21.871 3 27.5-2.072 3.429-18.079-4.032-17-9.5-.114-2.283-1.107-6.189-1-6.5.97-2.822 11.483-10.966 15-11.5"/><path fill="#466b75" d="M340 382c-1.079 5.468 14.928 12.929 17 9.5-5.609-5.629-3.758-19.053-3-27.5 28.836-4.382 20.59 37.317-4.5 32-8.355-1.771-9.197-7.96-9.5-14"/><path fill="#184f64" d="M656 369c2.392 1.522-1.681 3.966-1 8.5.081.543 4.647 9.591 5.5 9.5 4.701-.504 3.557-17.916-.5-21 18.011-5.407 31.285 16.092 16.5 26-14.162 9.491-33.627-10.229-20.5-23"/><path fill="#376c7b" d="M660 366c4.057 3.084 5.201 20.496.5 21-.853.091-5.419-8.957-5.5-9.5-.681-4.534 3.392-6.978 1-8.5 1.762-1.714.751-2.024 4-3"/><path fill="#d9e5ea" d="M689 375c17.561 18.529 35.614 47.883 44 72 5.603 16.114 14.894 59.127 12 75-3-26.963-7.364-52.573-17-78-1.283-3.386-10.828-26.564-12-27.5-2.784-2.223-6.11 3.771-5.5 6.5-2.698-.724-.809-2.947-2.5-5-10.136-12.31-21.404 2.778-11 11-1.283.84-5.335 8.688-8 10-6.564-12.75-15.946-26.985-25-38 9.37 2.134 15.874 1.44 22-6.5z"/><path fill="#b7cfd6" d="M334 377c-1.93 12.407 11.395 26.169 24 24l-20 30.5c-9.407 19.584-19.316 41.875-23 63.5h-2c.121-3.619 1.864-14.306 1-16.5-.544-1.382-21.35-14.666-24-17.5 6.552-22.602 12.166-29.502 23-47.5 3.744-6.219 3.157-15.341 8-21.5 3.908-5.204 7.459-11.312 13-15m-9 53c6.743.194 9.87-5.693 7-12-7.513-16.511-25.972 11.455-7 12"/><path fill="#7d89ac" d="M621 394c10.211 4.656 22.333 14.393 26 25 6.67 19.295 5.099 34.839-7 51-3.174-4.692-9.54-7.891-10-14 10.242-8.318 15.34-23.936 10-36.5-.794-1.868-4.158-2.533-5-4-1.73-3.012-.499-7.035-4.5-10.5-11.744-10.172-45.053-7.644-58 0-5.759 3.4-9.321 10.808-15.5 13 6.074-30.962 39.167-35.323 64-24"/><path fill="#ebf2f2" d="M290 461c-3.582 12.355-6.141 24.253-8 37h-2c4.937-38.983 17.451-74.641 41-106-4.843 6.159-4.256 15.281-8 21.5-10.834 17.998-16.448 24.898-23 47.5"/><path fill="#dee0ea" d="M630 456c-11.551 9.382-34.048 11.032-48 8-7.414-1.611-15.653-7.852-21-13-1.015-3.266-3.382-6.501-4-10-1.309-7.408-1.44-15.657 0-23 6.179-2.192 9.741-9.6 15.5-13 12.947-7.644 46.256-10.172 58 0 4.001 3.465 2.77 7.488 4.5 10.5.842 1.467 4.206 2.132 5 4 5.34 12.564.242 28.182-10 36.5"/><path fill="#0d679a" d="M474 439c-13.69 6.236-32.912 23.799-40 37l-19-9c1.446-3.828 3.477-7.958 4-12 1.37-1.447 3.29-2.333 4.5-4l-1-2c-1.354-.041-22.636 12.283-23.5 13.5-.065.091 1.59 1.042 1 2-5.74 9.325-6.566 18.602-12 27.5-.25-2.855-.984-19.512-2.5-20-8.494 4.031-7.996 4.195-8.5 13-6.967-10.208-21.443-10.466-31-18 10.651-26.797 28.264-49.544 50-68 10.738 11.976 34.162 13.902 39.5 28 13.725-15.62 31.623-2.955 38.5 12"/><path fill="#06223b" d="M708 418c2.994 12.458-10.07 10.391-11 11-10.404-8.222.864-23.31 11-11"/><path fill="#07253e" d="M332 418c-3.784 2.201-7.332 7.637-7 12-18.972-.545-.513-28.511 7-12"/><path fill="#48b6cb" d="m208 611 1.5 1c6.293-15.201 7.635-32.492 8.5-49 1.263-24.097 1.876-111.515-27.5-119-2.444-.623-8.828 1.086-9.5.5-2.212-1.93-.034-29.793 4.5-29.5 36.779 37.239 46.643 116.914 42.5 167.5-2.184 26.672-15.782 67.254-49 65-1.844-21.845 5.377-11.846 16.5-17.5 6.409-3.258 8.945-13.33 12.5-19"/><path fill="#a8c0c8" d="m728 444-3.5-5h-3c-.693 4.819-15.134 11.559-15.5 12.5-1.581 4.064 6.336 59.526 6 71.5-2.394-29.798-9.323-57.433-23-84 2.665-1.312 6.717-9.16 8-10 .93-.609 13.994 1.458 11-11 1.691 2.053-.198 4.276 2.5 5-.61-2.729 2.716-8.723 5.5-6.5 1.172.936 10.717 24.114 12 27.5"/><path fill="#1b5670" d="M332 418c2.87 6.307-.257 12.194-7 12-.332-4.363 3.216-9.799 7-12"/><path fill="#1c427d" d="m690 540-13-3c1.201-20.126-1.53-40.785-9-59.5.331 11.518 5.898 22.529 7 34 .633 6.589.356 16.751 0 23.5l-14-1c1.058-9.839 1.241-19.596 1-29.5-3.838 2.472-1.683 13.523-2 18.5l-8-2c.691-2.704 3.761-16.039 3-17.5L634.5 514c-2.441-.871-4.408-17.254-5.5-20.5-1.217-3.618-4.982-5.345-5-9.5 7.625-3.556 11.058-7.399 16-14 12.099-16.161 13.67-31.705 7-51 30.91 29.962 47.038 78.205 43 121"/><path fill="url(#g)" d="M557 441c.618 3.499 2.985 6.734 4 10 5.668 18.239 12.488 34.236 34 37 .025.066.515-.382 1 1 6.363 18.115 6.764 37.722 1 56-3.204 10.16-11.005 22.973-18 31-.124.143-.577.536-1 1-1.17 1.282-3.704 3.802-5 5-33.67 31.138-80.985 29.955-117 4-25.621-24.006-36.283-56.187-29-91 1.292-6.173 4.033-13.475 7-19 7.088-13.201 26.31-30.764 40-37 27.769-12.649 55.518-9.137 83 2m-19.5 2c-37.086 3.791-21.302 56.409 9 39 19.262-11.066 17.584-41.717-9-39m21 44c-12.739 1.144-26.59 33.006 0 39 9.463 2.133 22.348-4.005 24.5-13.5 1.514-6.68-.565-15.411-6.5-19.5-1.591-1.096-16.576-6.128-18-6" style="fill:url(#g)"/>/&gt;<path fill="#5e8f9b" d="M746 597c-9.997-1.712-10.739.411-11-11 84.238-.156 114.188-60.543 110-136.5-.239-4.331-4.471-16.245-1-18 .414 10.348 8.881 22.501 10 32 1.623 13.771-12.698 80.09-20 92-13.491 22.004-63.432 39.039-88 41.5"/><path fill="url(#h)" d="M728 444c9.636 25.427 14 51.037 17 78-.264 1.45.6 5.217-.5 6l-32.5-4c.012-.333-.009-.667 0-1 .336-11.974-7.581-67.436-6-71.5.366-.941 14.807-7.681 15.5-12.5h3z" style="fill:url(#h)"/>/&gt;<path fill="#fefefe" d="M537.5 443c26.584-2.717 28.262 27.934 9 39-30.302 17.409-46.086-35.209-9-39"/><path fill="#4f656c" d="M735 445c9.502 29.1 15.456 63.234 13 94-.673 8.423-2.203 21.847-10 27-9.105 6.017-25.679 2.629-36 2.5 6.951-13.418 9.439-29.483 10-44.5l32.5 4c1.1-.783.236-4.55.5-6 2.894-15.873-6.397-58.886-12-75z"/><path fill="#1e5a7a" d="M419 455c-14.599 15.424-22.058 28.858-25 50.5-.717 5.27 1.535 16.963 0 20.5-6.463-10.841-4.98-22.34-6-34 5.434-8.898 6.26-18.175 12-27.5.59-.958-1.065-1.909-1-2 .864-1.217 22.146-13.541 23.5-13.5l1 2c-1.21 1.667-3.13 2.553-4.5 4"/><path fill="#6c7999" d="M582 464c4.811 7.913 9.648 15.24 13 24-21.512-2.764-28.332-18.761-34-37 5.347 5.148 13.586 11.389 21 13"/><path fill="#020312" d="M867 623c-3.088-2.572-11.907 8.085-12 0 17.222-.104 27.422-38.502 29-52 1.589-13.6 1.84-29.338 1-43-1.899-30.907-6.086-47.885-27-70-1.967-2.08-3.733-3.657-1-5 2.82 2.013 7.849 2.937 11.5 6 29.759 24.966 32.041 141.847-1.5 164"/><path fill="#64c1df" d="M415 467c-7.026 18.601-10.369 38.173-6.5 58l11.5.5c-10.122 3.44-11.939-2.534-10 9.5 1.624 10.083 8.063 23.923 13 33-3.414-1.59-6.233 3.396-10 5-9.149-15.781-14.883-28.159-20-46 .034-.062.415.349 1-1 1.535-3.537-.717-15.23 0-20.5 2.942-21.642 10.401-35.076 25-50.5-.523 4.042-2.554 8.172-4 12"/><path fill="#839bbd" d="M640 470c-4.942 6.601-8.375 10.444-16 14-9.316 4.345-17.712 5.761-28 5-.485-1.382-.975-.934-1-1-3.352-8.76-8.189-16.087-13-24 13.952 3.032 36.449 1.382 48-8 .46 6.109 6.826 9.308 10 14"/><path fill="#d9e1e3" d="M885 528c-1.074 2.625-1.609 6.247-2 9-2.426.638-3.369-2.969-5.5-4-1.188-.575-2.806 1.43-5 0-5.603-3.65-8.908-11.966-16.5-12 3.297-20.643 6.337-42.573 2-63 20.914 22.115 25.101 39.093 27 70"/><path fill="#5d808a" d="M313 495c-.324 9.69-1.867 19.3-2 29l-32.5 4c-1.738-2.391.266-5.236.5-7 1.008-7.611 1.894-15.413 3-23 1.859-12.747 4.418-24.645 8-37 2.65 2.834 23.456 16.118 24 17.5.864 2.194-.879 12.881-1 16.5"/><path fill="#bff5f7" d="M173 512c-4.305-1.611-3.211-9.868-4-13.5-.399-1.835-2.952-2.793-3-3-.149-.636 2.151-.365 2-1-1.083-4.554-2.776-6.926-4-10.5-2.873-8.387-3.757-20.014-16-12 2.566-4.428 3.348-6.255 9.5-5 10.13 2.067 14.546 35.751 15.5 45"/><path fill="#0288b9" d="M377 485c-.914 15.982 1.389 32.26 15 42-3.404 7.54-4.261 7.92-4 17.5.107 3.933 4.403 20.542 4 22-.164.593-10 2.206-11 5.5-1.023-1.323-1.448-2.456-3.5-2l-.5 2.5c2.342 4.826 4.674 9.678 7 14.5-2.223-.254-13.691 7.742-14 8.5-1.091 2.674 26.034 34.374 30.5 38.5 21.981 20.304 52.28 35.398 78.5 40-2.258 1.978 2.742 2.844 3.5 3 24.592 5.061 49.848 3.836 74-3 1.415-.4 5.836-1.788 5.5-4 4.387-.894 8.873-3.232 12.5-4 3.415-.724 3.662 3.032 4 3 14.373-1.365 50.844-33.885 61.5-45l5.5 8c.723-.91 1.477-1.448 2.5-2-18.123 22.902-43.993 40.499-71 51l-7.5 2c-1.363-1.785-.487-8.469-3-9-5.122-1.083 2.713 11.197-3 11-3.708-.128-1.753-8.112-3-9-44.249 16.71-95.667 5.993-135-18-4.467-.134-5.091 7.349-3.5 10-2.643-1.53-5.429-3.334-8-5 9.765-8.659-1.06-13.564-8.5-18l-4.5 8c-58.715-45.531-83.309-114.776-55-186 9.557 7.534 24.033 7.792 31 18"/><path fill="#0288b9" d="M434 476c-2.967 5.525-5.708 12.827-7 19-6.922 12.91-5.76 30.777-3 45-.688-1.361-3.129-6.875-3.5-7-.506-.171-8.792 1.845-10.5 2-1.939-12.034-.122-6.06 10-9.5l-11.5-.5c-3.869-19.827-.526-39.399 6.5-58z"/><path fill="#31e7fb" d="M164 484h-3c-.646-1.543-.297-3.823-2-6-4.465-5.708-9.793-3.332-9 5-9.842 16.842-8.849 41.29-5 60 .019.572 2.113 3.657-1 5-.422-2.881-2.389-10.913-4-13.5 1.499 8.935-1.068 20.999 4 28.5-.089 1.329-.994.93-1 1-.454 5.112-.813 9.39 0 14.5-5.743-12.403-1.063-29.12-6-41.5.225-15.725 3.318-51.741 11-65 12.243-8.014 13.127 3.613 16 12"/><path fill="#79a2af" d="M215 514c-1.801.284-3.583.74-5 2-1.506-10.497-3.701-21.375-4-32-.118-4.185 1.719-9.077 0-13.5 5.347 12.887 7.778 29.004 9 43.5"/><path fill="#afd4e3" d="M388 492c1.02 11.66-.463 23.159 6 34-.585 1.349-.966.938-1 1-.072.133-.94-.132-1 0-13.611-9.74-15.914-26.018-15-42 .504-8.805.006-8.969 8.5-13 1.516.488 2.25 17.145 2.5 20"/><path fill="#027eb3" d="M159 478c-7.118 1.153-1.395 13.62-1 18.5 1.245 15.396-1.099 31.037-1 48l4 21.5c-.34 4.257.289 20.409 0 21.5-.654 2.466-4.928 8.28-8 8.5V494.5c-.663-.829-1.91-3.723-2-4.5-.272-2.343-.767-4.552-1-7-.793-8.332 4.535-10.708 9-5"/><path fill="#0288b9" d="M677 537c-.758 12.69-4.544 29.525-9 41.5-2.209 5.937-15.921 27.346-16 29-.157 3.274 5.61 5.597 8 7.5-.521.703-.841 1.539-2 3-9.892-10.426-8.87-4.558-16 3l-54.5 39-5.5-11c10.969-6.087 29.495-20.311 38-29.5 1.905-2.058 12.44-12.657 6.5-12.5-9.868 11.941-21.581 22.443-34.5 31 .055-3.865-11.972-18.356-12-19.5-.077-3.148 33.12-20.906 18-26.5 3.738-4.297 10.339-12.26 13-17l-.5 14c1.183-1.9 11.115-12.998 12-13 1.075-.003 13.105 12.612 18 11 .491-.162 3.556-5.179 3.5-5.5-.848-4.906-19.037-5.844-15-14.5l15.5 11 2.5-1.5c7.713-17.496 11.785-34.444 13-53.5.317-4.977-1.838-16.028 2-18.5.241 9.904.058 19.661-1 29.5-.928 8.627-2.644 18.16-5 26.5-1.433 5.075-11.182 23.647-11 25 .241 1.791 10.921 8.011 14 5 7.589-7.422 15.408-44.297 16-55.5.356-6.749.633-16.911 0-23.5-1.102-11.471-6.669-22.482-7-34 7.47 18.715 10.201 39.374 9 59.5m-34.5 54c-10.252 2.919 4.495 14.408 7 14 1.34-.218 4.267-6.217 5.5-7.5-3.285-1.11-8.914-7.521-12.5-6.5"/><path fill="#015c8c" d="M159 478c1.703 2.177 1.354 4.457 2 6 .872 2.084 1.374 3.828 2 6-1.554 7.169 2.016 15.15 2 22.5-.033 15.501-2.737 37.675-4 53.5l-4-21.5c-.099-16.963 2.245-32.604 1-48-.395-4.88-6.118-17.347 1-18.5"/><path fill="#f7fdfc" d="M151 490c-5.072 15.186-6.537 36.405-6 53-3.849-18.71-4.842-43.158 5-60 .233 2.448.728 4.657 1 7"/><path fill="#02a1d1" d="M164 484c1.224 3.574 2.917 5.946 4 10.5.151.635-2.149.364-2 1 .048.207 2.601 1.165 3 3 .789 3.632-.305 11.889 4 13.5 1.192 11.562.644 22.923 1 34.5.056 1.827-.881 4.483 2 2.5-2.35 14.574-3.626 19.72-8 33.5-.123.388 3.038 9.521-2 4.5 6.004-23.97 3.91-73.034-3-97-.626-2.172-1.128-3.916-2-6z"/><path fill="#1c6c9d" d="M652 521c-5.115 20.012-15.514 29.947-23 46-4.037 8.656 14.152 9.594 15 14.5.056.321-3.009 5.338-3.5 5.5-4.895 1.612-16.925-11.003-18-11-.885.002-10.817 11.1-12 13l.5-14c3.669-6.537 6.721-15.414 9-22.5-1.748-1.643-1.916.56-2 .5-5.781-4.142-14.124-6.395-21-8 5.764-18.278 5.363-37.885-1-56 10.288.761 18.684-.655 28-5 .018 4.155 3.783 5.882 5 9.5 1.092 3.246 3.059 19.629 5.5 20.5l20.5-10.5c.761 1.461-2.309 14.796-3 17.5"/><path fill="#fefefe" d="M558.5 487c1.424-.128 16.409 4.904 18 6 5.935 4.089 8.014 12.82 6.5 19.5-2.152 9.495-15.037 15.633-24.5 13.5-26.59-5.994-12.739-37.856 0-39"/><path fill="#2a5261" d="M855.5 487c1.581-1.55 1.821.627 2 2 3.074 23.57-12.971 52.182-13.5 71.5-.64 23.368 8.856 46.403 0 73-.439 1.319.369 3.482-2.5 3.5.766-17.737.759-35.776-.5-53.5-.513-7.222-5.889-22.019-5-28 .83-5.581 10.671-26.387 13-35 1.255-4.64 5.282-32.305 6.5-33.5"/><path fill="#01adda" d="M153 596c-5.582.401-7.115-4.564-9-8l-1-24c.006-.07.911.329 1-1 .321-4.821.705-10.183 0-15 3.113-1.343 1.019-4.428 1-5-.537-16.595.928-37.814 6-53 .09.777 1.337 3.671 2 4.5z"/><path fill="#86a4aa" d="M315 495c-1.282 7.528-3.012 21.63-3 29h-1c.133-9.7 1.676-19.31 2-29z"/><path fill="#eaf6fb" d="M456 586c-22.09-15.92-20.676-23.595-32-46-2.76-14.223-3.922-32.09 3-45-7.283 34.813 3.379 66.994 29 91"/><path fill="#98b5b8" d="M282 498c-1.106 7.587-1.992 15.389-3 23h-1c1.387-7.584 1.033-15.365 2-23z"/><path fill="#a8c3ca" d="M215 514c.696 8.257.853 17.678 1 26-12.111-3.738-5.435 19.823-8 28 .082-3.562-.713-9.195-1-13-.486-6.442-.949-7.752-2-12-.423-1.71.734-7.121-.5-8l-22.5 3c-.016-3.636.185-7.376 0-11l24-3c.384 1.102-.891 4.154 2 2.5.497-5.735-2.348-6.635 2-10.5 1.417-1.26 3.199-1.716 5-2"/><path fill="#cedfe3" d="m206 524-24 3c-.067-1.319.094-2.686 0-4 3.73-.679 20.135-5.155 22.5-4 1.267.619 1.178 4.077 1.5 5"/><path fill="#4f6870" d="M278 521h1c-.234 1.764-2.238 4.609-.5 7l32.5-4h1c.026 15.87 4.559 30.202 9.5 45-28.122 3.564-44.335 1.452-46.5-30-.252-3.66.885-13.198 1-18z"/><path fill="#0d679a" d="M660 523c-1.215 19.056-5.287 36.004-13 53.5l-2.5 1.5-15.5-11c7.486-16.053 17.885-25.988 23-46z"/><path fill="#b8c9cf" d="M883 537c-.292 2.06.266 4.416 0 6.5-.101.794-1.902.207-2 1-.038.309 2.701-.088 2 4-.145.845-1.981.399-2 .5-8.895-3.824-18.092-9.998-27-16 .796-4.009 1.356-7.97 2-12 7.592.034 10.897 8.35 16.5 12 2.194 1.43 3.812-.575 5 0 2.131 1.031 3.074 4.638 5.5 4"/><path fill="#05bdeb" d="M413 573c2.046 3.529 10.916 14.553 11 15.5.068.767-2.985 5.272-2 9 1.649 6.243 31.558 24.857 38.5 27.5 48.208 18.356 103.693 5.859 137.5-33 15.12 5.594-18.077 23.352-18 26.5.028 1.144 12.055 15.635 12 19.5-75.63 50.09-165.977 20.472-208-56.5-.703-1.287-2.695-9.106-3-9.5 1-3.294 10.836-4.907 11-5.5.403-1.458-3.893-18.067-4-22-.261-9.58.596-9.96 4-17.5.06-.132.928.133 1 0 5.117 17.841 10.851 30.219 20 46"/><path fill="#527782" d="M884 571c-8.63.693-14.702-7.976-20.5-12-3.857-2.677-11.98-4.287-12-9-.783 1.632-2.382 5.494-2.5 7l-2 1.5c-.227-5.278 5.047-13.446 6-17.5 5.881.64 24.476 20.718 29 14.5.193-.266-1.402-4.344-1-6.5.019-.101 1.855.345 2-.5.701-4.088-2.038-3.691-2-4 .098-.793 1.899-.206 2-1 .266-2.084-.292-4.44 0-6.5.391-2.753.926-6.375 2-9 .84 13.662.589 29.4-1 43"/><path fill="#05bdeb" d="M424 540c11.324 22.405 9.91 30.08 32 46 36.015 25.955 83.33 27.138 117-4l15 16c-30.003 34.183-103.499 35.981-137.5 7-10.72-9.137-1.868-8.492-4.5-13.5-9.608 5.158-6.566-.667-9-4-4.886-6.692-9.927-12.012-14-19.5-4.937-9.077-11.376-22.917-13-33 1.708-.155 9.994-2.171 10.5-2 .371.125 2.812 5.639 3.5 7"/><path fill="#7c9aa3" d="M881 549c-.402 2.156 1.193 6.234 1 6.5-4.524 6.218-23.119-13.86-29-14.5.517-2.198.549-5.728 1-8 8.908 6.002 18.105 12.176 27 16"/><path fill="#f4fcfd" d="M144 548c.705 4.817.321 10.179 0 15-5.068-7.501-2.501-19.565-4-28.5 1.611 2.587 3.578 10.619 4 13.5"/><path fill="#0d679a" d="M675 535c-.592 11.203-8.411 48.078-16 55.5-3.079 3.011-13.759-3.209-14-5-.182-1.353 9.567-19.925 11-25 2.356-8.34 4.072-17.873 5-26.5z"/><path fill="#87a9b2" d="m205 543-23 4c.098-2.976.013-6.02 0-9l22.5-3c1.234.879.077 6.29.5 8"/><path fill="#e3f9fa" d="m143 564 1 24c-7.848-14.303-7.229-34.979-7-51 4.937 12.38.257 29.097 6 41.5-.813-5.11-.454-9.388 0-14.5"/><path fill="#0d679a" d="M690 540c-2.731 28.947-13.036 52.115-30 75-2.39-1.903-8.157-4.226-8-7.5.079-1.654 13.791-23.063 16-29 4.456-11.975 8.242-28.81 9-41.5z"/><path fill="#2d5866" d="M216 540c.113 6.438-1.712 16.293-1 21.5.537 3.927-.049 1.608 3 1.5-.865 16.508-2.207 33.799-8.5 49l-1.5-1-2-1.5c-10.678 25.81-26.19 19.519-46 8 7.266-4.757 14.636-17.291 17-25.5 7.47-.513 16.124 4.827 23.5 7 5.312-.977 7.388-26.175 7.5-31 2.565-8.177-4.111-31.738 8-28"/><path fill="#648c97" d="M205 543c1.051 4.248 1.514 5.558 2 12-8.061-1.527-18.024.576-25-4 .07-1.319-.043-2.678 0-4z"/><path fill="#09e6fb" d="M153 617c-3.967-5.243-3.927-11.697-6-17 10.522 7.753 16.709-3.855 19-13 5.038 5.021 1.877-4.112 2-4.5 4.374-13.78 5.65-18.926 8-33.5.223-1.386-1.133-6.166 2-4.5 1.278 11.143-10.166 73.54-25 72.5"/><path fill="#0288b9" d="M618 553c-4.121 14.851-12.299 28.527-23.5 39-1.127.116-16.426-12.56-15.5-16 6.995-8.027 14.796-20.84 18-31 6.876 1.605 15.219 3.858 21 8"/><path fill="#2f5e6d" d="M884 571c-1.578 13.498-11.778 51.896-29 52-1.323.008-4.249.395-5-.5 2.378-14.178 2.339-28.664 2-43-.139-5.861-3.458-16.642-3-22.5.118-1.506 1.717-5.368 2.5-7 .02 4.713 8.143 6.323 12 9 5.798 4.024 11.87 12.693 20.5 12"/><path fill="#446d7a" d="M207 555c.287 3.805 1.082 9.438 1 13-.112 4.825-2.188 30.023-7.5 31-7.376-2.173-16.03-7.513-23.5-7 2.71-9.412 4.454-30.67 5-41 6.976 4.576 16.939 2.473 25 4"/><path fill="#71e0fb" d="M611 575c-2.661 4.74-9.262 12.703-13 17-33.807 38.859-89.292 51.356-137.5 33-6.942-2.643-36.851-21.257-38.5-27.5-.985-3.728 2.068-8.233 2-9-.084-.947-8.954-11.971-11-15.5 3.767-1.604 6.586-6.59 10-5 4.073 7.488 9.114 12.808 14 19.5 2.434 3.333-.608 9.158 9 4 2.632 5.008-6.22 4.363 4.5 13.5 34.001 28.981 107.497 27.183 137.5-7 1.342-1.529 3.813-2.661 5-4.5 0-2.223-16.11-11.395-15-16.5.423-.464.876-.857 1-1-.926 3.44 14.373 16.116 15.5 16 11.201-10.473 19.379-24.149 23.5-39 .084.06.252-2.143 2-.5-2.279 7.086-5.331 15.963-9 22.5"/><path fill="#446470" d="M834 574c-1.242.527-2.033 3.18-3 4-13.611 11.541-36.913 21.969-54 27-3.464-9.507-5.306-3.669-13.5-2-5.78 1.177-27.225 5.428-31.5 5-8.521-.854-3.425-6.466-5.5-8-.706-.522-7.507 1.272-7.5-3 3.583.176 7.189.971 11 1 3.56 3.274 15.596 2.42 20.5 2 17.073-1.462 59.031-15.55 72-25 2.04-1.487 6.391-8.56 8-11 2.828-.109 3.457 9.281 3.5 10"/><path fill="#042b42" d="M365 774c2.247 3.37-2.463 1.079-6 2-30.488-16.406-56.828-30.992-80-57.5-29.698-33.974-44.527-70.214-46-115.5-.347-10.651-.567-21.949 1-32.5-2.087 50.822 9.147 94.589 40 135 14.973 19.612 67.052 65.665 91 68.5"/><path fill="#62daf8" d="M381 572c.305.394 2.297 8.213 3 9.5 42.023 76.972 132.37 106.59 208 56.5 12.919-8.557 24.632-19.059 34.5-31 5.94-.157-4.595 10.442-6.5 12.5-8.505 9.189-27.031 23.413-38 29.5-70.851 39.317-162.887 10.791-198-62-2.326-4.822-4.658-9.674-7-14.5l.5-2.5c2.052-.456 2.477.677 3.5 2"/><path fill="#99b6bc" d="M834 575c.649 11.154-.345 24.723-1 36-.031-8.812-.973-19.333-3-28 .886-1.015 3.488-3.862 1-5 .967-.82 1.758-3.473 3-4 .02.332-.019.668 0 1"/><path fill="#365e6e" d="m773 762-4-9c31.612-33.29 64.164-95.783 64-142 .655-11.277 1.649-24.846 1-36 1.856.348 2.836 5.185 3 6.5 9.917 79.296-12.488 123.468-64 180.5"/><path fill="#798f96" d="M769 576c-1.881 3.616-6.938 2.622-10 3 2.302-.526 7.426-2.183 10-3"/><path fill="#0288b9" d="m588 598-15-16c1.296-1.198 3.83-3.718 5-5-1.11 5.105 15 14.277 15 16.5-1.187 1.839-3.658 2.971-5 4.5"/><path fill="#d5e6e9" d="M831 578c2.488 1.138-.114 3.985-1 5-22.201 25.431-69.996 34.207-102 33-1.804-.068-8.023-1.017-7-3 3.073 1.111 6.046.087 9 0 17.329-.512 30.546-3.156 47-8 17.087-5.031 40.389-15.459 54-27"/><path fill="#8fb9c3" d="M735 586c.261 11.411 1.003 9.288 11 11-5.489.55-10.426 1.042-16 1-3.811-.029-7.417-.824-11-1-6.996-.344-13.782-.906-20.5-3-9.581 18.589-20.671 36.235-34.5 52-20.335 23.182-49.066 44.86-78 56-43.177 16.623-93.974 17.011-138 3-15.883-5.055-34.114-14.823-48-24-24.188-15.986-42.346-35.191-58-59.5-2.56-3.975-13.073-26.883-14.5-27.5-1.846-.798-15.548.415-18.5 1 5.575-3.734 3.32-4.886 5-11 7.453.366 15.026-.268 22.5 0 31.42 86.92 130.961 136.002 220 114 65.72-16.24 100.002-53.571 129.5-111 .828-1.612 2.556-6.699 3.5-7 14.736 2.979 30.411 6.028 45.5 6"/><path fill="#d6f9fb" d="M147 600c2.073 5.303 2.033 11.757 6 17-5.688-.399-14.538-27.667-14-33.5 2.044 5.441 5.951 11.259 8 16.5"/><path fill="url(#i)" d="M833 611c.164 46.217-32.388 108.71-64 142-6.903 7.269-48.457 37.368-49 40.5-.659 3.805 5.601 8.501 9.5 8.5.626 0 3.113-4.854 4.5-2-3.255 2.605-5.872 5.842-9.5 8-61.541-42.594-136.898-55.104-210.5-57v-2c92.986-.323 175.145-47.737 214-133 32.004 1.207 79.799-7.569 102-33 2.027 8.667 2.969 19.188 3 28m-126 90c-26.66 21.955 1.064 62.818 32 48 40.337-19.321 4.02-77.663-32-48" style="fill:url(#i)"/>/&gt;<path fill="#65939f" d="M314 584c-1.68 6.114.575 7.266-5 11-2.624.519-9.932 1.583-11 5.5-.445 1.632 9.122 18.723 11 22 35.926 62.687 103.203 111.587 176 119.5.657 3.987-1.792 3.108-4.5 3-8.543-.339-18.972-5.479-28-5-.948 2.204 6.872 3.724 8 4 15.477 3.785 37.547 5.055 53.5 5v2c-16.46-.424-35.151 3.146-51 2-59.287-4.285-136.049-62.578-166-112.5-6.354-10.591-26.73-44.112-11.5-52.5 7.308-4.025 15.205.539 21.5-4 2.307.146 4.688-.114 7 0"/><path fill="#05bdeb" d="M384 587c35.113 72.791 127.149 101.317 198 62l5.5 11 54.5-39c-.551.584-1.451 2.428-2 3-10.656 11.115-47.127 43.635-61.5 45-.338.032-.585-3.724-4-3-3.627.768-8.113 3.106-12.5 4-31.358 6.392-50.478 9.709-83 4-26.22-4.602-56.519-19.696-78.5-40-4.466-4.126-31.591-35.826-30.5-38.5.309-.758 11.777-8.754 14-8.5"/><path fill="#0d679a" d="M642.5 591c3.586-1.021 9.215 5.39 12.5 6.5-1.233 1.283-4.16 7.282-5.5 7.5-2.505.408-17.252-11.081-7-14"/><path fill="#5d7981" d="m400 681-4.5 7c15.715 10.38 32.413 19.463 50.5 25 47.222 14.457 94.848 12.696 141-4 9.3-3.364 32.915-12.261 39.5-19 2.305-2.359-.408-3.7.5-4.5 8.773-7.729 34.075-26.25 38.5-35.5.697-1.456-.16-3.313-1.5-4 13.829-15.765 24.919-33.411 34.5-52 6.718 2.094 13.504 2.656 20.5 3-.007 4.272 6.794 2.478 7.5 3 2.075 1.534-3.021 7.146 5.5 8l-2 5c-2.954.087-5.927 1.111-9 0-50.343 86.682-132.801 140.218-236 129-72.797-7.913-140.074-56.813-176-119.5-1.878-3.277-11.445-20.368-11-22 1.068-3.917 8.376-4.981 11-5.5 2.952-.585 16.654-1.798 18.5-1 1.427.617 11.94 23.525 14.5 27.5 15.654 24.309 33.812 43.514 58 59.5"/><path fill="#547884" d="M777 605c-16.454 4.844-29.671 7.488-47 8l2-5c4.275.428 25.72-3.823 31.5-5 8.194-1.669 10.036-7.507 13.5 2"/><path fill="#3fb3c8" d="M233 603c1.473 45.286 16.302 81.526 46 115.5 23.172 26.508 49.512 41.094 80 57.5-2.733.712-5.356 1.991-8 3-4.074 1.555-8.115 4.292-12 6-15.783 6.939-31.302 13.939-46 23-37.528-27.741-71.604-64.262-94-105.5-3.411-6.281-23.662-47.824-19.5-51.5 27-.329 43.401-25.968 48.5-50z"/><path fill="#0d679a" d="M658 618c-3.15 3.972-5.135 9.376-10 12-1.023.552-1.777 1.09-2.5 2l-5.5-8c.549-.572 1.449-2.416 2-3 7.13-7.558 6.108-13.426 16-3"/><path fill="#6b8a95" d="M728 616c-38.855 85.263-121.014 132.677-214 133-15.953.055-38.023-1.215-53.5-5-1.128-.276-8.948-1.796-8-4 9.028-.479 19.457 4.661 28 5 2.708.108 5.157.987 4.5-3 103.199 11.218 185.657-42.318 236-129-1.023 1.983 5.196 2.932 7 3"/><path fill="#05bdeb" d="M414 663c-4.682-3.034-8.636-6.616-13-10l4.5-8c7.44 4.436 18.265 9.341 8.5 18"/><path fill="#49646f" d="m587 709-1-7c28.934-11.14 57.665-32.818 78-56 1.34.687 2.197 2.544 1.5 4-4.425 9.25-29.727 27.771-38.5 35.5-.908.8 1.805 2.141-.5 4.5-6.585 6.739-30.2 15.636-39.5 19"/><path fill="#05bdeb" d="M577 681c-54.862 21.331-104.381 16.304-155-13-1.591-2.651-.967-10.134 3.5-10 39.333 23.993 90.751 34.71 135 18 1.247.888-.708 8.872 3 9 5.713.197-2.122-12.083 3-11 2.513.531 1.637 7.215 3 9z"/><path fill="#ecfafe" d="M479 674c32.522 5.709 51.642 2.392 83-4 .336 2.212-4.085 3.6-5.5 4-24.152 6.836-49.408 8.061-74 3-.758-.156-5.758-1.022-3.5-3"/><path fill="#46636d" d="M448 705c-.214 3.45 1.142 6.062-2 8-18.087-5.537-34.785-14.62-50.5-25l4.5-7c13.886 9.177 32.117 18.945 48 24"/><path fill="#072439" d="M739 749c-29.012 6.775-51.719-24.064-32-48 36.02-29.663 72.337 28.679 32 48m-17.5-52c-26.344 4.514-21.07 50.668 10 49 32.667-1.753 24.628-54.934-10-49"/><path fill="#8cabaf" d="M721.5 697c34.628-5.934 42.667 47.247 10 49-31.07 1.668-36.344-44.486-10-49m-5.5 36c1.541 4.5.057 5.106.5 6 .268.541 10.399 4.938 11 5 19.496 2.026 28.031-17.553 16.5-33-19.536-26.17-51.615 4.136-29.5 26z"/><path fill="#d5e7ec" d="M707 701c-19.719 23.936 2.988 54.775 32 48-30.936 14.818-58.66-26.045-32-48"/><path fill="#577379" d="M744 711c-.246 6.065-8.14-3.373-11.5-4-7.555-1.41-15.807 1.877-18.5 9.5-2.627 7.434-.076 10.44 2 16.5l-1.5 4c-22.115-21.864 9.964-52.17 29.5-26"/><path fill="#304f5c" d="m586 702 1 7c-46.152 16.696-93.778 18.457-141 4 3.142-1.938 1.786-4.55 2-8 44.026 14.011 94.823 13.623 138-3"/><path fill="#15495f" d="M744 711c11.531 15.447 2.996 35.026-16.5 33-.601-.062-10.732-4.459-11-5-.443-.894 1.041-1.5-.5-6-2.076-6.06-4.627-9.066-2-16.5 2.693-7.623 10.945-10.91 18.5-9.5 3.36.627 11.254 10.065 11.5 4"/><path fill="#517b89" d="M773 762c-12.321 13.641-24.621 26.49-39 38-1.387-2.854-3.874 2-4.5 2-3.899.001-10.159-4.695-9.5-8.5.543-3.132 42.097-33.231 49-40.5z"/><path fill="#184659" d="m506 755-.5 5c16.861-.111 33.716.878 50.5 2 .346 4.34-.514 2.501-3 2.5-8.225-.005-16.28-.014-24.5.5l7-1c1.048-.499-1.859-1.988-2-2-9.078-.788-36.772 2.291-48 3-.45.028-10.726.685-8.5 3-34.574 1.141-61.206-2.158-94.5 12-15.212 6.469-40.7 20.711-37.5 40l-9-1.5-1 11.5c-8.247-3.245-16.721-7.616-24.5-12H302c-1.835-1.049-4.146-1.859-6-3l-4-5.5 1-1.5c14.698-9.061 30.217-16.061 46-23 .558 4.578 14.83-3.179 12-6 2.644-1.009 5.267-2.288 8-3 3.537-.921 8.247 1.37 6-2 .644.076 1.344-.011 2 0 13.493.234 49.501-11.658 66.5-14 23.163-3.191 49.119-4.982 72.5-5"/><path fill="#2c6774" d="M586 761c-2.039 5.322-5.531 3.086-11 3-6.964-.109-12.536-1.568-19-2-16.784-1.122-33.639-2.111-50.5-2l.5-5c26.72-.02 53.575 2.395 80 6"/><path fill="url(#j)" d="m361 840-16-20c-3.2-19.289 22.288-33.531 37.5-40 33.294-14.158 59.926-10.859 94.5-12 43.982-1.452 88.635-5.261 131.5 8L575 764c5.469.086 8.961 2.322 11-3 49.486 6.751 93.412 20.826 135.5 48l-20 14c-85.092 48.915-248.818 46.207-340.5 17m92-57c-13.881 1.248-54.06 8.073-65 15-14.721 9.321 1.918 18.598 11 24 15.541 9.244 27.161 10.085 45 12 12.216 1.311 24.711 1.62 37 2l-1.5 2c41.2-.335 82.479 4.019 123-5 36.777-8.185 84.747-31.526 20-52 1.965 5.353 8.962 7.509 12.5 11.5 2.25 2.539.852 4.792 1 5 .757 1.067 2.498.376 5 4.5-1.221-.49-1.355-1.083-3-1-19.146-14.841-50.333-19.543-74.5-22-35.515-3.61-76.061-4.05-110.5 4" style="fill:url(#j)"/>/&gt;<path fill="#193048" d="M556 762c6.464.432 12.036 1.891 19 2l33.5 12c-42.865-13.261-87.518-9.452-131.5-8-2.226-2.315 8.05-2.972 8.5-3 11.228-.709 38.922-3.788 48-3 .141.012 3.048 1.501 2 2l-7 1c8.22-.514 16.275-.505 24.5-.5 2.486.001 3.346 1.84 3-2.5"/><path fill="#348190" d="M638 801c-7.38.374-3.849-1.464-5.5-2-55.411-17.984-120.167-21.333-179.5-16 34.439-8.05 74.985-7.61 110.5-4 24.167 2.457 55.354 7.159 74.5 22"/><path fill="#092f46" d="M339 785c3.885-1.708 7.926-4.445 12-6 2.83 2.821-11.442 10.578-12 6"/><path fill="#86b7bf" d="M481 836c36.744 1.136 121.294-.758 152.5-20 6.007-3.704 11.228-7.856 7.5-14-2.502-4.124-4.243-3.433-5-4.5-.148-.208 1.25-2.461-1-5-3.538-3.991-10.535-6.147-12.5-11.5 64.747 20.474 16.777 43.815-20 52-40.521 9.019-81.8 4.665-123 5z"/><path fill="#081632" d="M638 801c1.645-.083 1.779.51 3 1 3.728 6.144-1.493 10.296-7.5 14-31.206 19.242-115.756 21.136-152.5 20-12.289-.38-24.784-.689-37-2l-1.5-4c3.514-1.494 22.236 3.301 20.5-3 12.023 1.195 23.947 1.396 36 2 1.981.099 4.016-.08 6 0 36.496 1.463 57.711 1.218 94-7 23.092-5.229 61.175-11.999 14-26-8.288-2.46-17.461-4.632-26-6-53.095-8.506-113.074-8.548-165 5.5l7 1.5c-8.146 1.327-15.886 2.222-24 4-6.735 1.476-11.845 1.84-18.5 6l1.5-9c10.94-6.927 51.119-13.752 65-15 59.333-5.333 124.089-1.984 179.5 16 1.651.536-1.88 2.374 5.5 2"/><path fill="#144961" d="M587 790c-1.516 2.246-4.165 2.096-6.5 2-59.095-2.423-91.894-4.708-151.5 5l-7-1.5c51.926-14.048 111.905-14.006 165-5.5"/><path fill="url(#k)" d="M587 790c8.539 1.368 17.712 3.54 26 6 1.957 1.901 5.889 1.217 5.5 5-9.271 3.637-18.94 5.472-28.5 8-28.147 7.444-57.534 11.071-85 20-1.984-.08-4.019.099-6 0l-71-9c-8.078-5.174-21.331-8.037-23-19 8.114-1.778 15.854-2.673 24-4 59.606-9.708 92.405-7.423 151.5-5 2.335.096 4.984.246 6.5-2" style="fill:url(#k)"/>/&gt;<path fill="#d3dfe0" d="M599 822c-.246-1.653-2.72-.96-4-1-8.042-.25-5.889-.477-7-8 1.701-.789 3.723-1.146 2-4 9.56-2.528 19.229-4.363 28.5-8 .389-3.783-3.543-3.099-5.5-5 47.175 14.001 9.092 20.771-14 26"/><path fill="#081b32" d="M405 801c1.669 10.963 14.922 13.826 23 19-2.911.208-18.228-2.946-18-.5 3.259 1.639 7.23 1.941 11 2.5-2.165 8.655-15.911-1.686-22 0-9.082-5.402-25.721-14.679-11-24l-1.5 9c6.655-4.16 11.765-4.524 18.5-6"/><path fill="#628994" d="M588 813c-6.093 2.826-54.18 11.451-13.5 10 .249-.009-.17.171 2 0 6.089-.481 12.579-.53 18.5-2 1.28.04 3.754-.653 4 1-36.289 8.218-57.504 8.463-94 7 27.466-8.929 56.853-12.556 85-20 1.723 2.854-.299 3.211-2 4"/><path fill="#a6bdc1" d="M595 821c-5.921 1.47-12.411 1.519-18.5 2-2.17.171-1.751-.009-2 0-40.68 1.451 7.407-7.174 13.5-10 1.111 7.523-1.042 7.75 7 8"/><path fill="#216376" d="m345 820 16 20c-8.894-2.833-17.346-6.595-26-10l1-11.5z"/><path fill="#4c838a" d="m428 820 71 9c-12.053-.604-23.977-.805-36-2-13.451-1.337-28.671-3.023-42-5-3.77-.559-7.741-.861-11-2.5-.228-2.446 15.089.708 18 .5"/><path fill="#0e2440" d="M421 822c13.329 1.977 28.549 3.663 42 5 1.736 6.301-16.986 1.506-20.5 3l1.5 4c-17.839-1.915-29.459-2.756-45-12 6.089-1.686 19.835 8.655 22 0"/>/&gt;</svg>