<svg xmlns="http://www.w3.org/2000/svg" width="1024" height="1024"><defs><linearGradient id="a" x1="712.53" x2="512.896" y1="152.358" y2="164.464" gradientUnits="userSpaceOnUse"><stop offset="0%" style="stop-color:#1f6da0"/><stop offset="100%" style="stop-color:#1c93bf"/></linearGradient></defs><defs><linearGradient id="b" x1="721.547" x2="554.786" y1="296.3" y2="338.426" gradientUnits="userSpaceOnUse"><stop offset="0%" style="stop-color:#7b8e9c"/><stop offset="100%" style="stop-color:#92a8b3"/></linearGradient></defs><defs><linearGradient id="c" x1="448.938" x2="321.464" y1="277.681" y2="333.101" gradientUnits="userSpaceOnUse"><stop offset="0%" style="stop-color:#c5d6dc"/><stop offset="100%" style="stop-color:#ebeff0"/></linearGradient></defs><defs><linearGradient id="d" x1="328.669" x2="688.311" y1="486.757" y2="585.687" gradientUnits="userSpaceOnUse"><stop offset="20.107%" style="stop-color:#d2ebef"/><stop offset="100%" style="stop-color:#7dabc4"/></linearGradient></defs><defs><linearGradient id="e" x1="289.781" x2="439.432" y1="510.003" y2="710.265" gradientUnits="userSpaceOnUse"><stop offset="0%" style="stop-color:#61c6da"/><stop offset="100%" style="stop-color:#55a4bf"/></linearGradient></defs><defs><linearGradient id="f" x1="532.214" x2="709.211" y1="562.174" y2="680.669" gradientUnits="userSpaceOnUse"><stop offset="0%" style="stop-color:#3294bb"/><stop offset="100%" style="stop-color:#2a627d"/></linearGradient></defs><defs><linearGradient id="g" x1="434.352" x2="593.936" y1="470.969" y2="610.529" gradientUnits="userSpaceOnUse"><stop offset="0%" style="stop-color:#0eb1d6"/><stop offset="100%" style="stop-color:#187fa8"/></linearGradient></defs><defs><linearGradient id="h" x1="479.676" x2="542.875" y1="507.065" y2="573.922" gradientUnits="userSpaceOnUse"><stop offset="0%" style="stop-color:#00153e"/><stop offset="100%" style="stop-color:#043b75"/></linearGradient></defs><defs><linearGradient id="i" x1="200.958" x2="201.044" y1="501.631" y2="548.63" gradientUnits="userSpaceOnUse"><stop offset="0%" style="stop-color:#22b1d1"/><stop offset="100%" style="stop-color:#3387a4"/></linearGradient></defs><defs><linearGradient id="j" x1="306.663" x2="587.935" y1="617.994" y2="853.738" gradientUnits="userSpaceOnUse"><stop offset="0%" style="stop-color:#8ea3af"/><stop offset="100%" style="stop-color:#788a99"/></linearGradient></defs><defs><linearGradient id="k" x1="210.879" x2="213.401" y1="566.246" y2="631.197" gradientUnits="userSpaceOnUse"><stop offset="0%" style="stop-color:#264e66"/><stop offset="100%" style="stop-color:#283546"/></linearGradient></defs><defs><linearGradient id="l" x1="179.385" x2="199.556" y1="573.197" y2="649.578" gradientUnits="userSpaceOnUse"><stop offset="0%" style="stop-color:#336b8a"/><stop offset="100%" style="stop-color:#20364c"/></linearGradient></defs><path fill="#013542" d="M780 318c2.097 2.305 5.853 2.768 8 5 1.671 1.737 9.623 15.239 11 18 .817 1.639 7.822 17.33 6.5 18-3.87-3.625-4.965-10.377-7.5-14.5-.626-1.017-2.86-.269-3-.5-3.453-5.677-4.185-10.922-9-17-10.574-13.349-11.921-6.039-26.5-2l-1.5 1.5c-.066.658 3.648 3.02 4 3.5 6.141 8.374 11.279 16.969 14.5 27 16.916-5.852 14.052-9.893 10-25 .967-.313 6.088 13.609 6.5 15 2.021 6.829 3.126 16.306 4 23.5 5.651.342 8.868-10.085 9.5-10.5.296-.195.549 2.911 2 2 6.955-4.366 10.835-10.135 9.5-18.5-.525-3.288-5.805-8.898-6-9.5-2.942-9.109-2.149-13.655-8-22-2.264-3.229-6.595-10.269-12-7 3.566-1.658 4.858-3.719 10 0 2.707 1.958 12.529 21.088 14 25 2.132 5.671 2.762 15.33 5.5 21 3.123.114 4.74-19.564 4.5-22-.96-9.762-13.014-32.88-23-35-11.314-2.402-15.61 13.674-14.5 14 1.146-1.102 2-2.302 3.5-3-1.576.953-8.81 12.539-10 13-.446-5.88 11.512-21.812 12-24.5.345-1.897-1.719-10.803-1-15 4.945-28.849 40.385-33.205 50-58 6.552-16.898 6.455-33.864-2.5-49.5 16.325 22.155 29.367 43.565 10.5 69.5-10.598 14.569-33.789 21.289-38 40-4.312 19.16 7.684 26.224 15 42.5 1.704 3.791.403 9.219 6 14-1.165-.302-1.68-1.257-2.5-2-3.475-1.11-4.683 9.883-4.5 10.5.512 1.726 8.829 2.439 9.5 4.5 14.484-2.387 29.032-4.834 37.5-18.5.378-5.501-14.337 11.752-15 5.5 3.649-2.446 5.759-8.593 8-12 5.814-3.146 11.958-10.826 16-16 16.497-12.651 40.142-12.136 54-28-10.957 16.703-25.78 15.788-40.5 27-21.74 16.559-21.328 40.501-55 44-5.338.555-13.053-2.319-15-2-2.632.432-35.062 30.85-41.5 33.5l9.5 46.5c5.487-5.383 17.465-18.427 26-16 1.801.512 10.011 13.239 14 16 11.92 8.25 37.636 12.14 43.5 28.5 13.525 37.734-19.088 176.717-48 205-12.905 12.624-23.114-2.166-35.5.5-.657.141-5.277 4.427-7 5-2.621.872-7.395-1.145-8-1-2.619.628-17.227 42.563-20.5 49.5-26.166 55.459-68.063 110.974-114 151.5-3.587 3.164-7.404 7.047-11 10-4.606 3.783-10.172 7.382-15 11l1-4c92.619-69.044 162.729-188.371 176-303.5 7.505-65.102 2.724-170.753-25-230.5-3.433-7.398-5.224-10.42-10-17-44.39-61.162-151.947-97.348-225-101-69.552-3.477-144.563 13.101-205 47l1-6c11.877-6.587 24.025-11.046 36-17 2.401 3.687 14.138-1.857 17-3.5 1.336-.767-1.117-2.434-1-2.5 7.098-3.97 26.026-9.009 34.5-11 13.352-3.137 39.571-4.101 50-8 4.322-1.616 19.738-15.359 26-19 49.885-29.004 83.193-24.835 137-23 65.512 2.234 79.675-86.14 17-82-25.508 1.685-32.735 18.092-50 31-20.342 15.208-81.356 34.952-107 37-41.44 3.309-62.928-10.019-99.5-22v-3c3.676 1.219 2.973 2.822 3.5 3 .582.197.418-2.197 1-2 23.416 7.933 45.627 19.479 71 21 16.212.972 64.94-5.654 77.5-15l40.5-15c20.026-12.444 33.867-36.239 59-39 56.891-6.25 61.44 58.485 20 82-20.406 11.58-38.477 3.294-60 3-46.095-.629-83.644 10.575-121.5 36.5 5.881 1.519 13.392.73 19.5 1.5 8.179 1.031 21.026 5.563 30 3 1.299-.371 16.559-14.556 21-17 25.251-13.893 45.544-11.134 72.5-7 26.755 4.104 48.584 13.425 73.5-6 5.739-4.474 16.601-18.643 18.5-25.5.075-.269.602-5.621-1-5.5 17.637-30.898-4.845-57.116-31.5-71-73.972-38.53-88.288 12.798-134 55-.852.787-2.624 3.482-3.5 1 19.006-16.477 36.137-43.2 54-58 49.254-40.808 127.504 12.92 133 72l-7 34.5c-3.363 7.114-7.169 13.274-12 19.5-3.201.721-.348-2.993 0-3.5 6.611-9.627 12.801-22.359 14-31 .267-1.925-1.269-3.303-1-6 1.116-11.194 1.166-10.741 0-22-.378-3.647.513-16.247-5-16 1.178 21.391-5.056 40.854-21 55.5-29.829 27.4-55.406 11.511-89.5 9-27.169-2.001-56.784 2.394-77.5 21.5 12.319 1.57 24.743 2.55 37 4.5 48.219 7.672 82.969 19.731 124 42 3.393 1.841 20.22 13.92 21.5 14 7.306.455 32.119-21.302 36.5-28.5l-15 8c36.262-29.807 51.719-67.769 41-114.5-1.184-5.162-3.007-12.18-5-17 .584-.619 3.958-2.268 4-2.5.242-1.344-9.451-22.366-11-25-22.628-38.481-77.008-61.558-120.5-61.5l11.5 7c-.332-.023-.668.019-1 0-34.768-15.266-74.424.439-100.5 25-17.742 16.711-30.708 43.15-56.5 50-26.951 7.158-46.532-1.985-71-10-17.07-5.591-30.779-12.491-49-16l2-3c43.377 8.986 93.399 49.135 135.5 18 36.41-26.927 42.277-68.603 103-75C728.314 34.853 808.952 103.569 784 213.5c-7.82 34.451-32.772 61.718-61 81 6.248 1.872 31.3 29.125 33.5 29.5 2.069.353 13.171-5.108 16-6 1.791-.565 5.574.525 7.5 0m24-56c-2.483 2.332-10.77 14.59-4 16 3.479.724 1.724-.911 4-4 .685-.929 1.313-2.012 2-3 4.57 5.313 5.804-7.318 10.5-10 .803-.459 2.692 1.856 4 1 11.543-7.548 28.513-20.078 33.5-33 4.36-11.297 5.357-23.961-2-34-.096-.711-.758-4.911-2-4.5 1.54 38.13-21.319 49.652-46 71.5m6.5 17-.5 1.5.5.5 1.5-1.5zm-9 1c-1.728.642-3.284 8.273-2.5 9.5.298.466 8.988 2.839 10.5 3.5-3.297-2.716-.352-10.391-1.5-12.5-.156-.286-6.194-.614-6.5-.5m-11 72c-6.892 11.32-13.985 16.75-6 30 13.29-8.47 11.508-17.454 6-30m4.5 86c-.213 2.284 2.614 14.746 3 19 .587 6.465 2.602 13.575 3 20 .245 3.961-.218 8.036 0 12 .98 17.804 1.86 36.223 1 54-.228 4.703-1.552 11.47-2 17-.139 1.713.058 2.36 0 3-2.944 32.262-8.741 64.74-19 95.5l1.5 2.5c1.257-2.319 7.262-2.545 8-3 5.917-3.651 22.576-29.425 25.5-36.5.064-.155-2.064-1.844-2-2 6.95-16.933 15.519-33.497 15-52 3.06-3.006 5.114-10.826 6-15.5 3.41-17.998 5.372-36.131 6-54.5 1.419-1.484 2.355 1.096 4 .5-.131 18.967-2.403 38.4-6 57-6.21 32.108-21.724 80.997-45.5 104-.451.436-14.216 8.333-4 6 .835-.191 3.694-4.645 8-5 17.14-1.415 21.42 15.86 37.5-9.5 22.215-35.035 53.431-150.449 41-189-1.964-6.092-8.647-13.51-15-14.5-4.894-4.213-9.991-4.974-15-8-5.115-3.09-10.671-3.928-12.5-5-2.947-1.728-9.484-11.922-14-13-6.754-1.612-23.856 10.089-24.5 17"/><path fill="#1f7194" d="M776 139c-18.056-43.676-90.793-74.757-136-63-15.395 1.108-29.072 7.158-42 15-3.176 1.927-5.993 3.842-9 6l-7-9c19.635-12.7 38.08-24.952 62.5-27 28.186-2.364 65.773 8.77 90.5 22 .875.603 2.616 1.705 3 2 .558.343 1.98 4.3 4 2.5-.647-1.898-3.603-2.195-4-2.5-.891-.547-1.163-1.017-3-2-12.485-8.595-30.826-16.228-45.5-20-5.994-1.54-24.167-5.628-29.5-6l-11.5-7c43.492-.058 97.872 23.019 120.5 61.5 1.549 2.634 11.242 23.656 11 25-.042.232-3.416 1.881-4 2.5"/><path fill="#2890b4" d="M659 57c-69.552-3.978-97.6 57.043-157 77-.152-.492.077-1.361 0-2 25.792-6.85 38.758-33.289 56.5-50 26.076-24.562 65.732-40.266 100.5-25"/><path fill="#68bed3" d="M735 83c-24.727-13.23-62.314-24.364-90.5-22-24.42 2.048-42.865 14.3-62.5 27-15.679 10.14-29.876 22.496-46 32-10.698 6.306-21.522 12.542-33.5 16-.893-.378-.323-1.424-.5-2 59.4-19.957 87.448-80.978 157-77 .332.019.668-.023 1 0 5.333.372 23.506 4.46 29.5 6 14.674 3.772 33.015 11.405 45.5 20"/><path fill="#388faf" d="M776 139c1.993 4.82 3.816 11.838 5 17-2.305 7.22 5.018 17.627 0 24-1.081-29.856-13.478-62.718-42-76-.653-.539-1.102-1.312-2-2-21.897-16.772-69.809-27.957-97-26 45.207-11.757 117.944 19.324 136 63"/><path fill="#165474" d="M737 102c-1.549 6.514 10.62 12.825 15 18.5 12.107 15.685 16.37 45.326 14 61-.084.558-2.362 8.297-3 10-3.257 8.696-13.394 17.412-16 26.5-17.59 19.834-34.871 29.143-59 39.5-.506 1.915 2.897.674 3.5.5 31.031-8.968 57.409-27.547 69.5-58 14.29-35.99 6.488-72.467-22-96 28.522 13.282 40.919 46.144 42 76 1.143 31.59-19.145 78.256-50.5 90-10.749 4.026-22.774 3.242-33.5 7-41.031-22.269-75.781-34.328-124-42-.598-2.152 5.229-2.818 6.5-3 29.225-4.196 59.355-4.126 88-12 12.162-3.343 28.538-8.688 35.5-20 15.944-14.646 22.178-34.109 21-55.5 5.513-.247 4.622 12.353 5 16 1.166 11.259 1.116 10.806 0 22-.269 2.697 1.267 4.075 1 6-1.199 8.641-7.389 21.373-14 31-.348.507-3.201 4.221 0 3.5-7.61 9.806-18.274 17.68-26.5 27l-8.5 3.5c4.801 1.745 11.92-3.585 15.5-6.5 21.897-17.831 41.209-48.88 38.5-78-5.496-59.08-83.746-112.808-133-72l-4-6c12.928-7.842 26.605-13.892 42-15 27.191-1.957 75.103 9.228 97 26"/><path fill="#68bed3" d="M738 85c-.384-.295-2.125-1.397-3-2 1.837.983 2.109 1.453 3 2m0 0c.397.305 3.353.602 4 2.5-2.02 1.8-3.442-2.157-4-2.5"/><path fill="url(#a)" d="M717 170c-15.872 27.806-62.138 35.566-91 37-26.956-4.134-47.249-6.893-72.5 7-4.441 2.444-19.701 16.629-21 17-8.974 2.563-21.821-1.969-30-3-6.108-.77-13.619.019-19.5-1.5 37.856-25.925 75.405-37.129 121.5-36.5 21.523.294 39.594 8.58 60-3 41.44-23.515 36.891-88.25-20-82-25.133 2.761-38.974 26.556-59 39L545 159c.404-.301 1.168-2.412 3-4 .876 2.482 2.648-.213 3.5-1 45.712-42.202 60.028-93.53 134-55 26.655 13.884 49.137 40.102 31.5 71" style="fill:url(#a)"/>/&gt;<path fill="#2295bd" d="M589 97c-15.795 11.336-28.127 24.726-45 36l-8-13c16.124-9.504 30.321-21.86 46-32z"/><path fill="#237791" d="M602 97c-17.863 14.8-34.994 41.523-54 58-1.832 1.588-2.596 3.699-3 4-12.56 9.346-61.288 15.972-77.5 15-25.373-1.521-47.584-13.067-71-21-.582-.197-.418 2.197-1 2-.527-.178.176-1.781-3.5-3-31.696-10.509-28.502-8.962-61.5-5-2.675.321-10.978-1.446-14-1-.841.124-.399 1.982-.5 2-.271.049-5.039-.17-5.5 0-16.041 5.917-23.331 17.298-26.5 32-3.084 14.311-6.868 23.403 1 38.5 17.897 34.341 67.5 9.715 91 35-2.914.927-5.372 3.194-8 4.5-11.975 5.954-24.123 10.413-36 17-7.124 3.951-14.163 7.509-21 12-16.572-6.775-30.14-11.068-44-23-20.932-30.438-13.361-65.767 8-93.5 24.636-31.985 56.739-40.517 96-36.5 18.854 1.929 32.42 8.437 50 13 54.293 14.092 74.519 18.393 123-14 16.873-11.274 29.205-24.664 45-36 3.007-2.158 5.824-4.073 9-6z"/><path fill="#08707c" d="m384 103-2 3c-1.608-.31-3.454-.751-5-1-77.714-12.532-168.486 35.624-135 125l-5 5c-38.894-96.032 62.554-149.494 147-132"/><path fill="#5cd9ef" d="m377 105-1 11c-18.172-2.62-33.527-3.077-51.5 1-46.977 10.655-98.383 56.68-77 109-16.614-70.014 59.82-109.166 119.5-107 1.073 2.698-2.062 10.909-1 12.5.977 1.465 5.527-1.131 5 2.5-39.261-4.017-71.364 4.515-96 36.5-21.361 27.733-28.932 63.062-8 93.5-10.124-8.715-20.304-21.467-25-34-33.486-89.376 57.286-137.532 135-125"/><path fill="#0b3a51" d="M739 104c28.488 23.533 36.29 60.01 22 96-4.218 6.545-8.844 12.185-14 18 2.606-9.088 12.743-17.804 16-26.5.638-1.703 2.916-9.442 3-10 2.37-15.674-1.893-45.315-14-61-4.38-5.675-16.549-11.986-15-18.5.898.688 1.347 1.461 2 2"/><path fill="#37c1e0" d="M382 106c18.221 3.509 31.93 10.409 49 16-.149 2.84-1.389 4.979-1 8-17.78-4.538-35.774-11.372-54-14l1-11c1.546.249 3.392.69 5 1"/><path fill="#fefefe" d="M384 252c-22.243-25.654-61.229-8.659-85.5-25-15.317-10.312-18.265-30.312-13.5-47 4.698-16.453 19.209-26.518 35-30 30.452-6.715 43.403-4.368 72 5 36.572 11.981 58.06 25.309 99.5 22 25.644-2.048 86.658-21.792 107-37 17.265-12.908 24.492-29.315 50-31 62.675-4.14 48.512 84.234-17 82-53.807-1.835-87.115-6.004-137 23-6.262 3.641-21.678 17.384-26 19-10.429 3.899-36.648 4.863-50 8-8.474 1.991-27.402 7.03-34.5 11"/><path fill="#c2fafe" d="M376 116c18.226 2.628 36.22 9.462 54 14 .242 1.881 3.572.214 2.5 2-3.008.098-5.683-1.291-8.5-2-18.687-4.705-37.587-10.296-57-11-59.68-2.166-136.114 36.986-119.5 107-21.383-52.32 30.023-98.345 77-109 17.973-4.077 33.328-3.62 51.5-1"/><path fill="#37c1e0" d="m424 130-3 17c-17.58-4.563-31.146-11.071-50-13 .527-3.631-4.023-1.035-5-2.5-1.062-1.591 2.073-9.802 1-12.5 19.413.704 38.313 6.295 57 11"/><path fill="#1da9cf" d="M544 133c-48.481 32.393-68.707 28.092-123 14l3-17c2.817.709 5.492 2.098 8.5 2 1.072-1.786-2.258-.119-2.5-2-.389-3.021.851-5.16 1-8 24.468 8.015 44.049 17.158 71 10 .077.639-.152 1.508 0 2 .177.576-.393 1.622.5 2 11.978-3.458 22.802-9.694 33.5-16z"/><path fill="#0e717d" d="M392 152v3c-28.597-9.368-41.548-11.715-72-5-1.28-2.659-1.077-4.036-4-2 .101-.018-.341-1.876.5-2 3.022-.446 11.325 1.321 14 1 32.998-3.962 29.804-5.509 61.5 5"/><path fill="#0e7b89" d="M316 148c2.923-2.036 2.72-.659 4 2-15.791 3.482-30.302 13.547-35 30h-1c3.169-14.702 10.459-26.083 26.5-32 .461-.17 5.229.049 5.5 0"/><path fill="#1d679a" d="M697 277c10.726-3.758 22.751-2.974 33.5-7 31.355-11.744 51.643-58.41 50.5-90 5.018-6.373-2.305-16.78 0-24 10.719 46.731-4.738 84.693-41 114.5l15-8c-4.381 7.198-29.194 28.955-36.5 28.5-1.28-.08-18.107-12.159-21.5-14"/><path fill="#7cb6b9" d="M190 165v-1c1.331-1.058 3.212-5.802 6-4.5-1.087 3.361-4.207 3.582-6 5.5"/><path fill="#09262e" d="M190 164v1c-14.185 15.176-16.295 23.253-13 44.5 5.677 36.605 46.852 39.407 51 67 .805 5.353-1.602 14.674-1 18 .223 1.233 11.033 21.204 12 22 2.089 1.72 21.297 2.258 25 7.5-.334.346-.715.696-1 1-14.534-6.039-21.909-10.793-31 5-3.18 5.524-3.417 8.138-5 14-4.288-9.281-12.659 17.9-12 20.5.268 1.057 5.999 5.418 7 7l2-1c1.101-2.051-1.077-9.503-1-10 .441-2.85 3.245-10.259 4-13.5 4.04-3.732 3.909-9.966 7-15 .692-1.127.959-.942 1-1-1.328 4.665-2.131 9.223-3 14-.081.443-2.92 3.703-2 8-6.847 4.159-6.093 26.956 2.5 28 3.534-2.781 4.798-8.492 6.5-13 5.622-8.244 7.085-18.331 12-27 2.566 2.093 3.697-.312 6-2-26.422 51.377-34.049 114.906-33 172.5 2.133 117.172 34.434 216.885 111 305.5 32.655 37.794 80.358 80.312 126 101 10.326 4.68 18.119 7.079 29 10 50.801 13.639 89.799-12.031 130-42l-1 4c-98.044 73.466-136.023 55.577-229-11-2.921-2.092-6.1-7.12-10-8-60.379-55.195-110.95-123.37-135-202.5-2.564-3.354-6.483.856-10.5.5-3.844-.341-7.84-5.773-11-6-11.382-.817-19.939 15.239-34.5-1.5-28.392-32.639-60.499-162.851-46-203 5.886-16.3 28.813-18.926 40.5-26.5 17.47-11.322 12.887-30.68 41-5l9.5-41.5c-6.411-3.135-37.783-37.018-40.5-37.5-.801-.142-10.833 3.288-16 3-28.43-1.585-32.512-27.158-51-42-19.833-15.922-37.39-11.107-46.5-40h1c6.71 11.591 17.616 14.659 29 20v1c-8.428-3.729-16.939-6.93-25-11.5 6.725 12.122 17.16 12.932 28 17.5-4.996 4.898 2.6 1.897 3 2 5.222 1.345 8.391 3.683 13 6-7.549 1.128 5.733 8.012 7 9.5 5.098 5.985 8.686 13.43 14 19.5 8.921 10.19 27.586 21.18 41.5 14 1.51-.779.215-11.53-2.5-12 5.219-4.06 2.823-8.394 5-13 8.253-17.459 19.334-24.564 13-45.5-4.434-14.657-25.996-21.711-35-34-19.092-26.057-5.026-60.209 18-78.5m-18 28c-17.037 27.082-.502 55.233 26 67 3.038 5.062 9.383 10.091 11 15.5 1.653 5.53.801 14.029 2 20 4.492-2.886 7.558-3.587 13-2.5l2-.5c6.375-42.345-41.771-39.484-50-78-1.69-7.909-2.065-18.873-1-27-2.224-1.835-2.906 4.758-3 5.5m43 103c-4.282 1.738-15.559 18.865-17 23.5-1.382 4.445-1.825 5.295 1 9.5-1.062.204-4.636.531-5 1.5-.253 8.149-.587 16.149 5.5 22.5.99-9.326 2.752-14.572 6.5-23 3.058-6.877 7.673-18.687 14-23 .848-.578 4.148-2.968 4.5-3 3.224-.289 3.81 1.69 5.5 3-4.655.608-2.252-3.274-9 2-2.432 1.901-4.602 5.255-6 8-2.505 4.917-4.548 9.258-4 15-6.37-.109-8.47 19.091-7 24.5.839 3.088 4.814 4.039 6.5 6.5l3.5-.5c-2.315-4.949 10.188-20.255 8-23.5 4.771-3.445 7.788-10.177 11-15 .196-.294 4.879-2.182 5-5 .081-1.885-6.207-10.61-8-12 1.2-.157 2.249.441 2-1.5-4.564-6.372-7.56-13.33-17-9.5m-28 140-1-1c-13.086 2.976-29.211 11.286-37 22-.224.309-2.807.041-4 4.5-1.774 6.632 1.022 5.143 1 5.5-.04.658.032 1.341 0 2-1.821-.862-2.915 3.856-3 4.5-3.572 27.077 6.624 71.152 14 97.5-.64 12.904 24.943 78.555 34 88.5 13.463 14.785 27.974-5.825 42.5 6.5-29.063-27.414-43.37-66.536-51.5-105 .8-.081 1.145-.678 2-1 6.806 27.545 16.313 64.53 35 86.5 2.719 3.197 20.24 19.533 21 11-10.037-32.952-15.022-67.186-18-101.5-.836-9.633-1.595-19.332-2-29 1.545-.591 2.702-1.802 3-3.5 2.145-12.234-1.639-34.83-1-48 .558-11.504 6.591-33.954 6-44-.081-1.382.551-2.733-1.5-2.5-.253 2.513-2.754 3.841-3.5 6-11.49-15.927-26.444-17.472-36 1"/><path fill="#22749b" d="M735 169c2.709 29.12-16.603 60.169-38.5 78-3.58 2.915-10.699 8.245-15.5 6.5l8.5-3.5c8.226-9.32 18.89-17.194 26.5-27 4.831-6.226 8.637-12.386 12-19.5z"/><path fill="#145474" d="M626 207c28.862-1.434 75.128-9.194 91-37 1.602-.121 1.075 5.231 1 5.5-1.899 6.857-12.761 21.026-18.5 25.5-24.916 19.425-46.745 10.104-73.5 6"/><path fill="#044d57" d="M285 180c-4.765 16.688-1.817 36.688 13.5 47 24.271 16.341 63.257-.654 85.5 25-.117.066 2.336 1.733 1 2.5-2.862 1.643-14.599 7.187-17 3.5 2.628-1.306 5.086-3.573 8-4.5-23.5-25.285-73.103-.659-91-35-7.868-15.097-4.084-24.189-1-38.5z"/><path fill="#62c6dd" d="M224 292c4.049-19.901-20.642-35.271-34-47-14.874-19.427-21.494-25.436-18-53 .094-.742.776-7.335 3-5.5-1.065 8.127-.69 19.091 1 27 8.229 38.516 56.375 35.655 50 78z"/><path fill="#82d1e5" d="M852 195c2.572 19.067-13.903 42.941-28.5 55-4.239 3.502-17.367 9.997-19.5 12 24.681-21.848 47.54-33.37 46-71.5 1.242-.411 1.904 3.789 2 4.5"/><path fill="#2d6f8a" d="M172 192c-3.494 27.564 3.126 33.573 18 53 2.164 2.827 7.954 7.493 9 9.5.391.75-1.921 2.965-1 4.5-26.502-11.767-43.037-39.918-26-67"/><path fill="#499dbf" d="M854 229c2.161-24.867-4.564-.821-9 5.5-9.816 13.988-26.723 18.854-39 36.5-.687.988-1.315 2.071-2 3-2.3-3.979-3.885.668-4 4-6.77-1.41 1.517-13.668 4-16 2.133-2.003 15.261-8.498 19.5-12 14.597-12.059 31.072-35.933 28.5-55 7.357 10.039 6.36 22.703 2 34"/><path fill="#1c83b1" d="M573 235c-12.257-1.95-24.681-2.93-37-4.5 20.716-19.106 50.331-23.501 77.5-21.5 34.094 2.511 59.671 18.4 89.5-9-6.962 11.312-23.338 16.657-35.5 20-28.645 7.874-58.775 7.804-88 12-1.271.182-7.098.848-6.5 3"/><path fill="#25769e" d="M747 218c5.156-5.815 9.782-11.455 14-18-12.091 30.453-38.469 49.032-69.5 58-.603.174-4.006 1.415-3.5-.5 24.129-10.357 41.41-19.666 59-39.5"/><path fill="#276e95" d="M854 229c-4.987 12.922-21.957 25.452-33.5 33-1.308.856-3.197-1.459-4-1-4.696 2.682-5.93 15.313-10.5 10 12.277-17.646 29.184-22.512 39-36.5 4.436-6.321 11.161-30.367 9-5.5"/><path fill="#045966" d="M267 264c13.86 11.932 27.428 16.225 44 23-2.233 1.467-3.801 3.469-6 5-29.919-9.471-55.912-27.155-68-57l5-5c4.696 12.533 14.876 25.285 25 34"/><path fill="#e8eef1" d="m536 234-10 2.5c1.262 2.648 4.532 6.669 5 9.5-71.981-1.717-146.276 11.152-208 49-7.722 4.735-14.794 10.552-22 16-9.044 6.838-21.933 14.409-27 25-19.954 6.469-27.446 37.408-7 51-16.474 39.278-23.357 83.429-25 126-4.302 111.475 33.669 219.758 105 305-6.224 8.367-5.465.144-12-1-76.566-88.615-108.867-188.328-111-305.5-1.049-57.594 6.578-121.123 33-172.5 27.093-19.862 40.737-39.343 74-58 60.437-33.899 135.448-50.477 205-47"/><path fill="#bfcdd6" d="M761 335c-16.92-10.982-31.276-25.209-48.5-36-53.919-33.779-117.915-51.483-181.5-53-.468-2.831-3.738-6.852-5-9.5l10-2.5c73.053 3.652 180.61 39.838 225 101"/><path fill="#27586f" d="M224 292c-5.442-1.087-8.508-.386-13 2.5-1.199-5.971-.347-14.47-2-20-1.617-5.409-7.962-10.438-11-15.5-.921-1.535 1.391-3.75 1-4.5-1.046-2.007-6.836-6.673-9-9.5 13.358 11.729 38.049 27.099 34 47"/><path fill="#b8cbd2" d="M531 246c2.516 15.229.087 31.381-4 46-22.753-1.128-46.685.554-69 5-3.095-2.705 2.61-7.384 3-10.5.341-2.723.171-15.59-2.5-16.5-1.681-.573-30.442 5.092-35 6-21.265 4.235-77.877 23.744-95 22-.485-.049-5.083-1.976-5.5-3 61.724-37.848 136.019-50.717 208-49"/><path fill="url(#b)" d="M761 335c4.776 6.58 6.567 9.602 10 17l-2 2c-10.125-41.611-78.283-6.675-54 26l-5 1c-44.31-53.601-113.593-85.559-183-89 4.087-14.619 6.516-30.771 4-46 63.585 1.517 127.581 19.221 181.5 53 17.224 10.791 31.58 25.018 48.5 36" style="fill:url(#b)"/>/&gt;<path fill="#9fbac0" d="M81 269h-1c-.507-1.607-3.75-3.763-1.5-7 1.671 2.2 1.167 4.698 2.5 7"/><path fill="#0a3437" d="m938 279-12 5c7.971-5.346 14.746-10.247 17.5-20 1.757 4.637-3.281 11.165-5.5 15"/><path fill="url(#c)" d="M458 297c-15.75 3.138-38.607 10.628-53.5 17-15.273 6.535-34.771 22.369-47.5 27-7.059 2.568-20.349 2.294-27.5 0-1.938-.622-24.583-16.255-25.5-17.5-2.784-3.779-1.138-8.565-3-12.5 7.206-5.448 14.278-11.265 22-16 .417 1.024 5.015 2.951 5.5 3 17.123 1.744 73.735-17.765 95-22 4.558-.908 33.319-6.573 35-6 2.671.91 2.841 13.777 2.5 16.5-.39 3.116-6.095 7.795-3 10.5" style="fill:url(#c)"/>/&gt;<path fill="#225d7f" d="M804 274c-2.276 3.089-.521 4.724-4 4 .115-3.332 1.7-7.979 4-4"/><path fill="#03434c" d="m332 275-1 6c-33.263 18.657-46.907 38.138-74 58-2.303 1.688-3.434 4.093-6 2 2.562-4.518 4.781-7.096 8-11 1.003-1.217 3.437-4.4 4-5 .285-.304.666-.654 1-1 10.488-10.875 28.373-23.211 41-32 2.199-1.531 3.767-3.533 6-5 6.837-4.491 13.876-8.049 21-12"/><path fill="#65b7d2" d="M938 279c-.256.442-.227.821-1 2-13.858 15.864-37.503 15.349-54 28 .214-.274 4.817-5.7 3.5-6-4.326 2.259-8.068 5.636-11.5 9 9.369-11.77 17.162-15.669 32.5-17-5.862-3.164 2.368-1.395 3.5-5 .105-.038.533-.5 2-1 1.86 3.125 3.431-.617 4-1 .059-.039-.146-.305 1-1 1.412 2.416 5.047-1.576 6-2 .551-.245 2.068.564 2-1z"/><path fill="#6abed5" d="M110 290c17.686 7.825 30.024 9.145 40 27-7.442-3.32-11.417-7.725-19-12-.83-.468-1.271-.633-2-1-4.609-2.317-7.778-4.655-13-6-.426-1.144-2.016-1.585-3-2-10.84-4.568-21.275-5.378-28-17.5 8.061 4.57 16.572 7.771 25 11.5"/><path fill="#246c96" d="m810.5 279 1.5.5-1.5 1.5-.5-.5z"/><path fill="#15354c" d="M801.5 280c.306-.114 6.344.214 6.5.5 1.148 2.109-1.797 9.784 1.5 12.5-1.512-.661-10.202-3.034-10.5-3.5-.784-1.227.772-8.858 2.5-9.5"/><path fill="#0a3437" d="M924 285c-.953.424-4.588 4.416-6 2 1.772-1.075 3.778-2.239 6-2"/><path fill="#105456" d="M917 288c-.569.383-2.14 4.125-4 1 1.33-.453 2.123-1.512 4-1"/><path fill="#12414c" d="M185 326c-11.673 6.354-15.922 5.185-27.5-2-1.146.584.188 4.093.5 5-7.178-1.014-5.712-7.905-8-12-9.976-17.855-22.314-19.175-40-27v-1c9.212 4.322 24.815 7.666 32.5 14 12.692 10.461 17.429 34.573 42.5 23"/><path fill="#143f43" d="M911 290c-1.132 3.605-9.362 1.836-3.5 5-15.338 1.331-23.131 5.23-32.5 17-2.384 2.336-1.867 2.878-2 3-.897 1.322-2.419 2.665-4 5-5.98 5.314-16.579 11.798-24.5 12-.786.02.386-1.66-2-2-.656-.094-.371 2.189-1 2-3.431-1.03-3.627-4.413-4.5-5 24.871 10.005 29.589-13.914 42.5-24 7.269-5.678 22.555-9.811 31.5-13"/><path fill="#073d42" d="M527 292c69.407 3.441 138.69 35.399 183 89 12.269 14.842 25.984 34.91 37 51-1.672 2.084-.79 3.441 0 5.5 42.133 109.826 27.299 218.847-66 296.5-24.751 20.6-55.172 36.841-86 46-92.202 27.394-194.523 9.675-266-56-39.286-43.826-72.099-109.516-75-169-.523-10.716.204-21.335 1-32 .278-3.726.554-7.297 1-11 5.234-43.434 23.811-90.725 51-125 14.045-17.706 31.976-32.528 50-46 12.729-4.631 32.227-20.465 47.5-27 14.893-6.372 37.75-13.862 53.5-17 22.315-4.446 46.247-6.128 69-5m-67 9c-89.259 16.991-161.727 78.666-190 165-39.701 121.23 18.438 253.081 136 303 95.918 40.728 216.021 24.021 289-53 122.24-118.982 85.837-321.978-68-394-54.301-25.422-107.647-32.298-167-21"/><path fill="#8fd9ea" d="m803 294 7 7.5-8 3.5c-5.142-3.719-6.434-1.658-10 0-1.5.698-2.354 1.898-3.5 3-1.11-.326 3.186-16.402 14.5-14"/><path fill="#a9e7f2" d="M230 306c-1.69-1.31-2.276-3.289-5.5-3-.352.032-3.652 2.422-4.5 3-2.984-3.521-4.894-2.94-9-2.5l4-8.5c9.44-3.83 12.436 3.128 17 9.5.249 1.941-.8 1.343-2 1.5"/><path fill="#367daa" d="M826 329c-4.701-1.801-5.854-2.675-10 1-1.471-3.912-11.293-23.042-14-25l8-3.5-7-7.5c9.986 2.12 22.04 25.238 23 35"/><path fill="#4285b0" d="M220 306c-6.327 4.313-10.942 16.123-14 23-4.016-1.687-2.721-1.823-7-1-2.825-4.205-2.382-5.055-1-9.5 1.441-4.635 12.718-21.762 17-23.5l-4 8.5c4.106-.44 6.016-1.021 9 2.5"/><path fill="#346e89" d="M116 298c-.4-.103-7.996 2.898-3-2 .984.415 2.574.856 3 2"/><path fill="#edfbfd" d="M627 322c-2.537 2.231-3.315-.253-2 4-31.161-14.995-67.465-23.144-102-24-24.105-.597-48.508 1.824-72 7l9-8c59.353-11.298 112.699-4.422 167 21"/><path fill="#e1fafc" d="m460 301-9 8c-3.796.836-8.2 2.96-12 4-51.148 13.993-95.931 44.599-129 86-17.757 22.232-22.23 39.438-35 62.5-.163.294-5.03 7.139-5 4.5 28.273-86.334 100.741-148.009 190-165"/><path fill="#b3e5f1" d="m523 302-9.5 15 31 1-.5 3c-27.177-3.646-53.156-3.121-80 2-7.348-4.492-19.664-2.79-25-10 3.8-1.04 8.204-3.164 12-4 23.492-5.176 47.895-7.597 72-7"/><path fill="#53add1" d="M625 326c33.81 16.27 63.742 41.985 87 71l-10 22c-24.566-40.49-68.419-72.042-113-87-14.764-4.954-29.516-8.923-45-11l.5-3-31-1 9.5-15c34.535.856 70.839 9.005 102 24"/><path fill="#1f6b93" d="M883 309c-4.042 5.174-10.186 12.854-16 16 1.305-1.984 1.849-4.777 2-5 2.179-1.936 3.636-4.666 4-5 .496-.731 1.847-2.808 2-3 3.432-3.364 7.174-6.741 11.5-9 1.317.3-3.286 5.726-3.5 6"/><path fill="#1c455f" d="M129 304c.729.367 1.17.532 2 1 3.575 2.992 23.233 22.522 23 25.5-.039.497-2.811 3.071-4 2.5-5.314-6.07-8.902-13.515-14-19.5-1.267-1.488-14.549-8.372-7-9.5"/><path fill="#7ec9de" d="m804 312-1.5 4c-7.385-3.574-15.18-5.721-15 5l4.5-3.5-4 5.5c-2.147-2.232-5.903-2.695-8-5 .558-.152 1.552.173 2 0 1.19-.461 8.424-12.047 10-13 5.405-3.269 9.736 3.771 12 7"/><path fill="#1f374c" d="M150 317c2.288 4.095.822 10.986 8 12 2.979 8.668 25.056 10.624 31 6 2.715.47 4.01 11.221 2.5 12-13.914 7.18-32.579-3.81-41.5-14 1.189.571 3.961-2.003 4-2.5.233-2.978-19.425-22.508-23-25.5 7.583 4.275 11.558 8.68 19 12"/><path fill="#99dfee" d="M230 306c1.793 1.39 8.081 10.115 8 12-5.155.23-8.138-4.805-12.5-7-1.307-.657-2.916 3.798-4.5-3 6.748-5.274 4.345-1.392 9-2"/><path fill="#60b0d0" d="M238 318c-.121 2.818-4.804 4.706-5 5-1.274-1.55-6.186-8.799-7.5-9-2.51-.385-7.788 6.311-10.5 2 1.398-2.745 3.568-6.099 6-8 1.584 6.798 3.193 2.343 4.5 3 4.362 2.195 7.345 7.23 12.5 7"/><path fill="#dee5e7" d="M301 311c1.862 3.935.216 8.721 3 12.5.917 1.245 23.562 16.878 25.5 17.5 7.151 2.294 20.441 2.568 27.5 0-18.024 13.472-35.955 28.294-50 46l-4-3c24.887-23.815-6.952-55.148-29-48 5.067-10.591 17.956-18.162 27-25"/><path fill="#4283ad" d="M804 312c5.851 8.345 5.058 12.891 8 22l-13 7c-1.377-2.761-9.329-16.263-11-18l4-5.5-4.5 3.5c-.18-10.721 7.615-8.574 15-5z"/><path fill="#65b7d2" d="M875 312c-.153.192-1.504 2.269-2 3 .133-.122-.384-.664 2-3"/><path fill="#68cada" d="M439 313c5.336 7.21 17.652 5.508 25 10-31.844 6.075-68.404 21.274-94 41-4.831-.615-12.696 7.537-16.5 11-9.209 8.383-17.776 17.819-25 28-2.728-7.904-12.269-.478-18.5-4 33.069-41.401 77.852-72.007 129-86"/><path fill="#4988b1" d="M233 323c-3.212 4.823-6.229 11.555-11 15-1.069-1.585-9.322-6.971-11-7-.548-5.742 1.495-10.083 4-15 2.712 4.311 7.99-2.385 10.5-2 1.314.201 6.226 7.45 7.5 9"/><path fill="#65b7d2" d="M869 320c1.581-2.335 3.103-3.678 4-5-.364.334-1.821 3.064-4 5"/><path fill="#025157" d="M544 321c15.484 2.077 30.236 6.046 45 11l-2 4c-34.026-11.557-67.105-14.383-103-11-38.156 3.597-76.292 18.479-107 41-78.925 57.884-105.001 159.168-65 249l-4 3c-6.195-13.999-11.998-31.994-15-47-5.971-29.844-6.258-58.063 0-88 9.256-44.28 41.385-91.553 77-119 25.596-19.726 62.156-34.925 94-41 26.844-5.121 52.823-5.646 80-2"/><path fill="#8cd2e4" d="M263 325c-.563.6-2.997 3.783-4 5-7.519-4.56-18.625-9.416-22.5 2-1.231 1.019 1.206-4.817-1.5-1-.041.058-.308-.127-1 1l-2-2c9.091-15.793 16.466-11.039 31-5"/><path fill="#aae7f3" d="M786 327c-2.904-.322-1.989-2.619-6-4-.595-1.629-2.867-1.286-4-.5 1.008 1.118 2.921.128 4 .5.612 1.673-16.364 5.537-18 7-.352-.48-4.066-2.842-4-3.5l1.5-1.5c14.579-4.039 15.926-11.349 26.5 2"/><path fill="#65b7d2" d="M867 325c-2.241 3.407-4.351 9.554-8 12-8.906 5.97-16.225 2.273-25 0-5.597-4.781-4.296-10.209-6-14 3.71.405 6.004 1.985 9 4 .873.587 1.069 3.97 4.5 5 .629.189.344-2.094 1-2 2.386.34 1.214 2.02 2 2 7.921-.202 18.52-6.686 24.5-12-.151.223-.695 3.016-2 5"/><path fill="#78cae0" d="M194 322c-2.177 4.606.219 8.94-5 13-5.944 4.624-28.021 2.668-31-6-.312-.907-1.646-4.416-.5-5 11.578 7.185 15.827 8.354 27.5 2 2.911-1.585 5.402-3.797 9-4"/><path fill="#7ed9e8" d="M695 716c85.452-90.186 95.584-220.963 17-319-23.258-29.015-53.19-54.73-87-71-1.315-4.253-.537-1.769 2-4 153.837 72.022 190.24 275.018 68 394"/><path fill="#3980ab" d="M780 323c-1.079-.372-2.992.618-4-.5 1.133-.786 3.405-1.129 4 .5m6 4c4.815 6.078 5.547 11.323 9 17l-2 3c-.412-1.391-5.533-15.313-6.5-15 4.052 15.107 6.916 19.148-10 25-3.221-10.031-8.359-18.626-14.5-27 1.636-1.463 18.612-5.327 18-7 4.011 1.381 3.096 3.678 6 4m-6.5 2c-.612.793-1.708.914-1 2 1.391 2.132 2.238-.164 1-2"/><path fill="#4a7c88" d="M587 336c275.574 93.601 106.35 501.634-159 390l11-16c136.867 49.074 286.969-53.954 265-203.5C687.824 396.392 577.081 337.736 473 352c1.691-4.329 16.797-2.003 18-3.5l-7-23.5c35.895-3.383 68.974-.557 103 11"/><path fill="#4792bb" d="M259 330c-3.219 3.904-5.438 6.482-8 11-4.915 8.669-6.378 18.756-12 27 .176-.466-.17-1.495 0-2 1.868-5.536 4.53-10.814 6-16.5-4.199 3.8-7.007-6.134-13-4.5.869-4.777 1.672-9.335 3-14 2.706-3.817.269 2.019 1.5 1 3.875-11.416 14.981-6.56 22.5-2m-17.5-1c-1.516.302.609 3.188 1 3 .97-.465 1.023-3.403-1-3"/><path fill="#609aa1" d="m484 325 7 23.5c-1.203 1.497-16.309-.829-18 3.5-27.844 3.816-59.62 14.349-83 30 1.9-8.667-11.029-9.366-13-16 30.708-22.521 68.844-37.403 107-41"/><path fill="#194462" d="M206 329c-3.748 8.428-5.51 13.674-6.5 23-6.087-6.351-5.753-14.351-5.5-22.5.364-.969 3.938-1.296 5-1.5 4.279-.823 2.984-.687 7 1"/><path fill="#144a69" d="M826 329c.24 2.436-1.377 22.114-4.5 22-2.738-5.67-3.368-15.329-5.5-21 4.146-3.675 5.299-2.801 10-1"/><path fill="#85c1d9" d="M241.5 329c2.023-.403 1.97 2.535 1 3-.391.188-2.516-2.698-1-3"/><path fill="#94cfdf" d="M779.5 329c1.238 1.836.391 4.132-1 2-.708-1.086.388-1.207 1-2"/><path fill="#2f7ca1" d="M234 332c-3.091 5.034-2.96 11.268-7 15 .207-.889-.23-2.147 0-3 1.583-5.862 1.82-8.476 5-14z"/><path fill="#173246" d="M834 337c8.775 2.273 16.094 5.97 25 0 .663 6.252 15.378-11.001 15-5.5-8.468 13.666-23.016 16.113-37.5 18.5-.671-2.061-8.988-2.774-9.5-4.5-.183-.617 1.025-11.61 4.5-10.5.82.743 1.335 1.698 2.5 2"/><path fill="#1f3c55" d="M211 331c1.678.029 9.931 5.415 11 7 2.188 3.245-10.315 18.551-8 23.5l-3.5.5c-1.686-2.461-5.661-3.412-6.5-6.5-1.47-5.409.63-24.609 7-24.5"/><path fill="#002933" d="M702 419c28.754 47.392 36.569 109.324 24 163-4.787 20.444-13.166 41.048-24 59-31.526 52.239-92.073 93.51-152 104-7.705 1.349-15.167 2.464-23 3-36.832 2.522-70.436-4.148-104-19-.417-3.395-5.746-2.684-1-6 2.012.925 3.963 2.143 6 3 265.35 111.634 434.574-296.399 159-390l2-4c44.581 14.958 88.434 46.51 113 87"/><path fill="#04272e" d="M769 354c2.245 9.228 1.105 18.941-4 27-11.474 18.114-38.46 14.528-50-1-24.283-32.675 43.875-67.611 54-26m-31-15c-35.924 10.876-24.672 58.885 11 49 28.111-7.79 20.296-58.475-11-49"/><path fill="#173851" d="m793 347 2-3c.14.231 2.374-.517 3 .5 2.535 4.123 3.63 10.875 7.5 14.5 1.322-.67-5.683-16.361-6.5-18l13-7c.195.602 5.475 6.212 6 9.5 1.335 8.365-2.545 14.134-9.5 18.5-1.451.911-1.704-2.195-2-2-.632.415-3.849 10.842-9.5 10.5-.874-7.194-1.979-16.671-4-23.5"/><path fill="#073b43" d="M303 384c-11.504 11.009-22.984 11.653-36 3-20.446-13.592-12.954-44.531 7-51 22.048-7.148 53.887 24.185 29 48m-14 3c25.193-7.877 23.218-38.809-2-46-37.05-10.564-36.919 58.168 2 46"/><path fill="#55c0cf" d="M749 388c-4.781-2.876-19.478.47-19-8 30.265 18.806 43.822-31.534 14-34l3.5-2-7.5-1.5 7-1-9-2.5c31.296-9.475 39.111 41.21 11 49"/><path fill="#def8fb" d="M287 341c5.194 5.734-6.344.414-8 3.5l6 2.5c-6.484-.503-14.811 2.216-18 8.5-8.779 17.301 10.097 26.841 25 25.5-2.041 2.1-5.486 2.785-3 6-38.919 12.168-39.05-56.564-2-46"/><path fill="#98e4ec" d="m738 339 9 2.5-7 1 7.5 1.5-3.5 2c-20.356-1.683-30.103 23.994-14 34-.478 8.47 14.219 5.124 19 8-35.672 9.885-46.924-38.124-11-49"/><path fill="#1a334b" d="M227 344c-.23.853.207 2.111 0 3-.755 3.241-3.559 10.65-4 13.5-.077.497 2.101 7.949 1 10l-2 1c-1.001-1.582-6.732-5.943-7-7-.659-2.6 7.712-29.781 12-20.5"/><path fill="#58c3d1" d="M289 387c-2.486-3.215.959-3.9 3-6 2.137-2.199 7.022-5.698 8-7.5 6.179-11.388-2.42-25.523-15-26.5l-6-2.5c1.656-3.086 13.194 2.234 8-3.5 25.218 7.191 27.193 38.123 2 46"/><path fill="#295878" d="M239 366c-2.699-1.962-8.422-10.301-9-13-.92-4.297 1.919-7.557 2-8 5.993-1.634 8.801 8.3 13 4.5-1.47 5.686-4.132 10.964-6 16.5"/><path fill="#043942" d="M744 346c29.822 2.466 16.265 52.806-14 34-16.103-10.006-6.356-35.683 14-34m1 4c-9.716.099-12.241 5.537-20 9.5 3.007 7.056-.921 16.963 10.5 19.5 3.244.721 9.367-2.872 12.5-1-1.616 1.258-4.357 2.274-6.5 2-1.309 3.523 6.689.16 7 0 21.675-11.156.756-43.561-17.5-28.5l6.5-2.5c2.611-.296 5.065.216 7.5 1"/><path fill="#044851" d="M285 347c12.58.977 21.179 15.112 15 26.5-.978 1.802-5.863 5.301-8 7.5-14.903 1.341-33.779-8.199-25-25.5 3.189-6.284 11.516-9.003 18-8.5m-5.5 1c-.447.049-7.467 2.808-6 5l5-3c17.569-.956 26.707 17.455 9 26l-6.5 1.5c25.885 2.882 21.242-32.01-1.5-29.5m0 4c-13.547 1.854-13.23 25.511 5 23 18-2.48 8.285-24.819-5-23"/><path fill="#2ebfcf" d="M279.5 348c22.742-2.51 27.385 32.382 1.5 29.5l6.5-1.5c17.707-8.545 8.569-26.956-9-26l-5 3c-1.467-2.192 5.553-4.951 6-5"/><path fill="#2fc5d6" d="M748 378c10.958-8.527 10.253-23.735-3-28-2.435-.784-4.889-1.296-7.5-1l-6.5 2.5c18.256-15.061 39.175 17.344 17.5 28.5-.311.16-8.309 3.523-7 0 2.143.274 4.884-.742 6.5-2"/><path fill="url(#d)" d="M439 710c-29.447-10.559-58.103-29.463-79-53-72.1-81.209-61.77-213.567 30-275 23.38-15.651 55.156-26.184 83-30 104.081-14.264 214.824 44.392 231 154.5C725.969 656.046 575.867 759.074 439 710m16-292c1.485 7.698 5.776 14.107 4 22.5 6.723-.512 12.234-.658 19 .5.616.105 1.423-.138 2 0-2.913 1.967-1.973.139-3 3.5-7.718 25.251-14.497 54.874-46 58.5-7.802-6.215-14.747-12.281-18.5-22L390 535.5c-.909-22.531 8.028-42.251 20-60.5 1.704-2.598 13.003-14.488 13-15.5-.002-.69-8.859-7.673-10-9.5l-.5-2c-56.488 57.42-47.067 153.023 19 199 66.687 46.408 159.892 26.392 198.5-45.5 61.313-114.174-61.629-240.619-177-186-.389 2.054 1.691.897 2 2.5" style="fill:url(#d)"/>/&gt;<path fill="#018aa9" d="M748 378c-3.133-1.872-9.256 1.721-12.5 1-11.421-2.537-7.493-12.444-10.5-19.5 7.759-3.963 10.284-9.401 20-9.5 13.253 4.265 13.958 19.473 3 28"/><path fill="#0195b0" d="M279.5 352c13.285-1.819 23 20.52 5 23-18.23 2.511-18.547-21.146-5-23"/><path fill="#597c8d" d="M620 886c-40.201 29.969-79.199 55.639-130 42 3.055-4.608 1.112-9.458 8.5-8-2.72 13.55 6.664 14.954 5.5 1 5.183.485 10.897.236 16-1 24.596-1.375 51.333-15.297 72.5-28C708.284 822.516 791.035 659.559 780 525c3.009.435 1.938-2.67 2-4.5 1.592-47.103-8.223-93.585-17-139.5 5.105-8.059 6.245-17.772 4-27l2-2c27.724 59.747 32.505 165.398 25 230.5-13.271 115.129-83.381 234.456-176 303.5"/><path fill="#1a2e43" d="M790.5 352c5.508 12.546 7.29 21.53-6 30-7.985-13.25-.892-18.68 6-30"/><path fill="#203247" d="M230 353c.578 2.699 6.301 11.038 9 13-.17.505.176 1.534 0 2-1.702 4.508-2.966 10.219-6.5 13-8.593-1.044-9.347-23.841-2.5-28"/><path fill="url(#e)" d="M370 364c-35.615 27.447-67.744 74.72-77 119l-3-2.5c-11.065 35.591-20.928 71.011 4 103.5 13.166 56.654 51.081 109.948 101 140l11 45c-117.562-49.919-175.701-181.77-136-303-.03 2.639 4.837-4.206 5-4.5 12.77-23.062 17.243-40.268 35-62.5 6.231 3.522 15.772-3.904 18.5 4 7.224-10.181 15.791-19.617 25-28 3.804-3.463 11.669-11.615 16.5-11" style="fill:url(#e)"/>/&gt;<path fill="#72afb5" d="M390 382c-91.77 61.433-102.1 193.791-30 275l-13 10c-15.284-17.025-25.573-30.829-35-52-40.001-89.832-13.925-191.116 65-249 1.971 6.634 14.9 7.333 13 16"/><path fill="#7e919f" d="M715 380c11.54 15.528 38.526 19.114 50 1 8.777 45.915 18.592 92.397 17 139.5-.062 1.83 1.009 4.935-2 4.5-3.469-42.307-9.628-58.863-33-93-11.016-16.09-24.731-36.158-37-51z"/><path fill="#b0c6cd" d="M307 387c-27.189 34.275-45.766 81.566-51 125-4.809 3.835-8.45.9-14 1 1.643-42.571 8.526-86.722 25-126 13.016 8.653 24.496 8.009 36-3zm-41.5 14c-3.303 5.604-13.629 37.728-9 41 6.047 4.274 6.428-6.143 9.5-4.5 4.826-13.311 16.217-26.957-.5-36.5"/><path fill="url(#f)" d="M695 716c-72.979 77.021-193.082 93.728-289 53l-11-45c128.281 77.227 296.907 9.259 332-136.5.187-.777 1.892-6.292-1-5.5 12.569-53.676 4.754-115.608-24-163l10-22c78.584 98.037 68.452 228.814-17 319" style="fill:url(#f)"/>/&gt;<path fill="#d0dfe2" d="M265.5 401c16.717 9.543 5.326 23.189.5 36.5-3.072-1.643-3.453 8.774-9.5 4.5-4.629-3.272 5.697-35.396 9-41"/><path fill="url(#g)" d="M413 450c-3.16 7.777-5.81 16.6-3 25-11.972 18.249-20.909 37.969-20 60.5l22.5-54.5c3.753 9.719 10.698 15.785 18.5 22 4.355 3.469 8.621 7.118 14 9-.127.274.121.719 0 1-12.229 28.309.897 55.631 22 75-12.59-6.17-27.564-11.563-32.5-26-.139 9.26 9.682 23.45 16.5 29 37.809 39.371 105.609 26.773 129-22 17.567-36.629 4.171-76.571-28-98.5l8 8c4.402 8.851 7.885 18.242 7 28.5-10.824-20.213-40.871-37.557-64-35-.172-2.5-.975-2.844-1-3-2.078-12.828-8.651-24.815-22-28-.577-.138-1.384.105-2 0 3.66-14.103-11.396-21.567-23-23-.309-1.603-2.389-.446-2-2.5 115.371-54.619 238.313 71.826 177 186-38.608 71.892-131.813 91.908-198.5 45.5-66.067-45.977-75.488-141.58-19-199zm192.5 19c-3.14.114 4.247 25.062 4.5 27.5 2.264 21.84.222 49.419-10 68 3.149-18.863 3.477-42.019-6.5-58.5 8.813 47.674-.013 90.445-49 109l-24 7c76.72 2.166 118.331-89.534 85-153m21 50c-4.053 14.859-4.173 29.703-9.5 44.5-11.385 31.624-45.247 64.575-79.5 68.5-1.637.188-18.668-1.711-16 1 59.419 14.504 117.311-58.541 105-114m-2 46c-7.527 35.868-29.33 61.519-55 86 29.465-16.723 59.157-50.402 55-86" style="fill:url(#g)"/>/&gt;<path fill="#daeff6" d="M478 441c-6.766-1.158-12.277-1.012-19-.5 1.776-8.393-2.515-14.802-4-22.5 11.604 1.433 26.66 8.897 23 23"/><path fill="#42cce8" d="M223 434c-.439 1.271-.701 4.365-1 6l-16.5-10 5.5-.5c-10.129-9.13-18.3-2.266-24 7.5.07-.649-.032-1.344 0-2 9.556-18.472 24.51-16.927 36-1"/><path fill="#4797c2" d="m846 439-3 1c-1.187-1.661-8.245-6.855-7-1h-1c-.272-.642-.656-4.815-2-1.5 1.515 5.014 4.669 13.589 5 18.5-.642-.073-1.485.145-2 0-1.751-.495-1.868-1.95-2-2 .677-31.543-17.324-33.621-39-16 .644-6.911 17.746-18.612 24.5-17 4.516 1.078 11.053 11.272 14 13 1.829 1.072 7.385 1.91 12.5 5"/><path fill="#1ab1d4" d="M222 440c-.731 4-.569 11.371-1 16l-37-2c.793-5.404 2.535-12.662 3-17 5.7-9.766 13.871-16.63 24-7.5l-5.5.5z"/><path fill="#255882" d="M834 454c-10.444-3.936-24.985 3.019-36 3-.386-4.254-3.213-16.716-3-19 21.676-17.621 39.677-15.543 39 16"/><path fill="#02424b" d="M220 526c-.514-12.286-1.181-24.696-1-37 .07-4.731.775-10.126 1-15 .278-6.017.442-12.003 1-18 .431-4.629.269-12 1-16 .299-1.635.561-4.729 1-6 .746-2.159 3.247-3.487 3.5-6 2.051-.233 1.419 1.118 1.5 2.5.591 10.046-5.442 32.496-6 44-.639 13.17 3.145 35.766 1 48-.298 1.698-1.455 2.909-3 3.5"/><path fill="#40525c" d="M780 525c11.035 134.559-71.716 297.516-187.5 367-21.167 12.703-47.904 26.625-72.5 28 9.585-2.322 23.895-14.129 28-23 17.956-3.664 39.933-19.496 48-36.5 7.94-16.736 10.043-50.822 5-68.5 33.525-10.269 60.466-29.126 80-58 93.299-77.653 108.133-186.674 66-296.5-.79-2.059-1.672-3.416 0-5.5 23.372 34.137 29.531 50.693 33 93"/><path fill="#407d94" d="M187 435c-.032.656.07 1.351 0 2-.465 4.338-2.207 11.596-3 17-.979 6.67-6.989 16.966-1 23-1.707.631-2.772.568-4 2.5-.106 4.827.147 9.687 0 14.5-.663 21.74 3.289 42.941 8 64-.158.003-2.501.812-3 1-.855.322-1.2.919-2 1-.689-3.261-1.427-6.738-2-10-6.773-38.542-9.154-79.191 6-116z"/><path fill="#bcf2fc" d="M186 434c-15.154 36.809-12.773 77.458-6 116l-9-47.5c-4.131-2.961-13.691 5.366-16.5 4.5-1.208-.372-3.251-6.174-5-8-.414-.432-3.669.675-4.5-.5-1.143-1.615.784-26.107 1-30.5.032-.659-.04-1.342 0-2l3-10c7.789-10.714 23.914-19.024 37-22"/><path fill="#234b6f" d="M835 439c2.919 6.878 3.387 13.859 5 21l-2 2c-.098-1.98.133-4.025 0-6-.331-4.911-3.485-13.486-5-18.5 1.344-3.315 1.728.858 2 1.5"/><path fill="#4081b3" d="M843 440c8.125 11.365 5.892 30.526 6 43h-1c.098-12.913-6.449-32.298-12-44-1.245-5.855 5.813-.661 7 1"/><path fill="#a0dbf1" d="M848 483c-.03 3.914-2.03 9.944-1 14.5-.448.912-1.464.306-2 .5.112-16.143-1.691-23.35-5-38-1.613-7.141-2.081-14.122-5-21h1c5.551 11.702 12.098 31.087 12 44"/><path fill="#a1edfc" d="M846 439c5.009 3.026 10.106 3.787 15 8 17.248 14.848 14.297 39.817 15 60.5l-2-.5c3.907-6.185-8.214-12.966-12.5-14-10.857-2.618-12.342 8.365-12.5-10-.108-12.474 2.125-31.635-6-43z"/><path fill="#e7f6fa" d="M502 469c.873 3.505-3.046 3.351-5.5 4-21.442 5.668-41.785 17.956-51.5 39-5.379-1.882-9.645-5.531-14-9 31.503-3.626 38.282-33.249 46-58.5 1.027-3.361.087-1.533 3-3.5 13.349 3.185 19.922 15.172 22 28"/><path fill="#2d73a0" d="m839 555 8-53.5c2.317-3.818 22.056 5.716 27 5.5l2 .5c-.703-20.683 2.248-45.652-15-60.5 6.353.99 13.036 8.408 15 14.5 12.431 38.551-18.785 153.965-41 189-16.08 25.36-20.36 8.085-37.5 9.5-4.306.355-7.165 4.809-8 5-10.216 2.333 3.549-5.564 4-6 23.776-23.003 39.29-71.892 45.5-104m2.5 0c-5.958 17.224-9.106 35.406-15.5 52.5-6.707 17.932-17.291 33.895-24.5 51.5 11.201 2.824 19.723 5.299 28.5-4.5 5.794-6.468 18.532-36.655 22-46 5.172-13.937 8.864-28.714 13-43z"/><path fill="#b7e8f4" d="M410 475c-2.81-8.4-.16-17.223 3-25 1.141 1.827 9.998 8.81 10 9.5.003 1.012-11.296 12.902-13 15.5"/><path fill="#73e5f6" d="M221 456c-.558 5.997-.722 11.983-1 18-1.798-3.571-1.44-3.146-5.5-3-3.445.124-28.338 4.831-31.5 6-5.989-6.034.021-16.33 1-23z"/><path fill="#488cbb" d="M834 454c.132.05.249 1.505 2 2-2.487 7.406 2.066 15.039-2.5 22l-32.5-1c-.398-6.425-2.413-13.535-3-20 11.015.019 25.556-6.936 36-3"/><path fill="#47667a" d="m149 456-3 10c.022-.357-2.774 1.132-1-5.5 1.193-4.459 3.776-4.191 4-4.5"/><path fill="#7eddf5" d="M838 456c.133 1.975-.098 4.02 0 6 .177 3.562-2.285 15.719-2 16.5.183.502 4.102 1.13 5 4 .584 1.866.472 12.058-1.5 13.5-9.016 6.592-27.907-9.489-38.5-7-.218-3.964.245-8.039 0-12l32.5 1c4.566-6.961.013-14.594 2.5-22 .515.145 1.358-.073 2 0"/><path fill="#2a6f9a" d="M845 498c-1.645.596-2.581-1.984-4-.5-.628 18.369-2.59 36.502-6 54.5-12.707-5.729-24.536 5.157-33-9 .86-17.777-.02-36.196-1-54 10.593-2.489 29.484 13.592 38.5 7 1.972-1.442 2.084-11.634 1.5-13.5-.898-2.87-4.817-3.498-5-4-.285-.781 2.177-12.938 2-16.5l2-2c3.309 14.65 5.112 21.857 5 38"/><path fill="#67bdd9" d="M146 468c-.216 4.393-2.143 28.885-1 30.5.831 1.175 4.086.068 4.5.5 1.749 1.826 3.792 7.628 5 8 2.809.866 12.369-7.461 16.5-4.5l9 47.5c.573 3.262 1.311 6.739 2 10 8.13 38.464 22.437 77.586 51.5 105-14.526-12.325-29.037 8.285-42.5-6.5-9.057-9.945-34.64-75.596-34-88.5 5.312 18.978 22.005 71.882 34 85.5 8.634 9.802 20.645 6.754 30 1-11.013-14.85-20.267-31.769-27-49-5.876-15.039-8.393-33.792-14-47.5-.333-.813-.119-3.244-1-4.5-5.144-.284-20.971 7.042-22 11.5-.195.847.048 2.042 0 3-7.376-26.348-17.572-70.423-14-97.5.085-.644 1.179-5.362 3-4.5"/><path fill="#e1e0e8" d="M503 472c1.426 20.679-10.97 36.112-31 41-1.565.382-8.17 1.944-9 2-6.132.417-12.121-.345-18-2 .121-.281-.127-.726 0-1 9.715-21.044 30.058-33.332 51.5-39 2.454-.649 6.373-.495 5.5-4 .025.156.828.5 1 3"/><path fill="#9ee7f3" d="M605.5 469c33.331 63.466-8.28 155.166-85 153l24-7c48.987-18.555 57.813-61.326 49-109 9.977 16.481 9.649 39.637 6.5 58.5 10.222-18.581 12.264-46.16 10-68-.253-2.438-7.64-27.386-4.5-27.5"/><path fill="#7cd7e7" d="M580 569c-4.399-1.748-10.341-3.442-10-9 6.048-16.716 5.527-37.076-3-53 .885-10.258-2.598-19.649-7-28.5l-8-8c32.171 21.929 45.567 61.871 28 98.5"/><path fill="#95f2fd" d="M220 474c-.225 4.874-.93 10.269-1 15-13.292 2.432-26.25 8.791-40 5 .147-4.813-.106-9.673 0-14.5 1.228-1.932 2.293-1.869 4-2.5 3.162-1.169 28.055-5.876 31.5-6 4.06-.146 3.702-.571 5.5 3"/><path fill="url(#h)" d="M567 507c8.527 15.924 9.048 36.284 3 53-9.689 26.779-33.763 37.402-60 41-16.791.903-28.872-6.077-43-13-21.103-19.369-34.229-46.691-22-75 5.879 1.655 11.868 2.417 18 2-5.257 20.44 27.321 13.936 9-2 20.03-4.888 32.426-20.321 31-41 23.129-2.557 53.176 14.787 64 35" style="fill:url(#h)"/>/&gt;<path fill="#3cacc3" d="M293 483c-6.258 29.937-5.971 58.156 0 88-1.756 3.299.188 9.506 1 13-24.928-32.489-15.065-67.909-4-103.5z"/><path fill="#87e4f8" d="M874 507c-4.944.216-24.683-9.318-27-5.5l-8 53.5c3.597-18.6 5.869-38.033 6-57 .536-.194 1.552.412 2-.5-1.03-4.556.97-10.586 1-14.5h1c.158 18.365 1.643 7.382 12.5 10 4.286 1.034 16.407 7.815 12.5 14"/><path fill="url(#i)" d="M219 489c-.181 12.304.486 24.714 1 37 .405 9.668 1.164 19.367 2 29-11.353 4.208-23.262 2.798-35 3-4.711-21.059-8.663-42.26-8-64 13.75 3.791 26.708-2.568 40-5" style="fill:url(#i)"/>/&gt;<path fill="url(#j)" d="M256 512c-.446 3.703-.722 7.274-1 11-2.98 2.55-6.113.416-7 3.5-.96 3.338.739 24.238 2 28 .513 1.53 2.666 3.375 4 .5 2.901 59.484 35.714 125.174 75 169 66.794 74.513 175.546 98.632 270 67 .039.105 1.969.892 2 1 5.043 17.678 2.94 51.764-5 68.5-8.067 17.004-30.044 32.836-48 36.5 14.733-31.835-17.836-64.452-51.5-52-35.387 13.089-31.113 56.402-1.5 73-10.578-1.716-20.9-3.279-31-7-37.417-13.785-91.291-62.277-117-93-71.331-85.242-109.302-193.525-105-305 5.55-.1 9.191 2.835 14-1" style="fill:url(#j)"/>/&gt;<path fill="#fcfdfd" d="M472 513c18.321 15.936-14.257 22.44-9 2 .83-.056 7.435-1.618 9-2"/><path fill="#9ce6f2" d="M626.5 519c12.311 55.459-45.581 128.504-105 114-2.668-2.711 14.363-.812 16-1 34.253-3.925 68.115-36.876 79.5-68.5 5.327-14.797 5.447-29.641 9.5-44.5"/><path fill="#bfd7dd" d="M255 523c-.796 10.665-1.523 21.284-1 32-1.334 2.875-3.487 1.03-4-.5-1.261-3.762-2.96-24.662-2-28 .887-3.084 4.02-.95 7-3.5"/><path fill="#1e3044" d="M835 552c-.886 4.674-2.94 12.494-6 15.5.519 18.503-8.05 35.067-15 52-.064.156 2.064 1.845 2 2-2.924 7.075-19.583 32.849-25.5 36.5-.738.455-6.743.681-8 3l-1.5-2.5c10.259-30.76 16.056-63.238 19-95.5 17.828 19.348 14.008 9.195 0-3 .448-5.53 1.772-12.297 2-17 8.464 14.157 20.293 3.271 33 9"/><path fill="#4b9dbe" d="M180 560c-8.946.756-13.922 8.846-23 7 1.029-4.458 16.856-11.784 22-11.5.881 1.256.667 3.687 1 4.5"/><path fill="url(#k)" d="M222 555c2.978 34.314 7.963 68.548 18 101.5-.76 8.533-18.281-7.803-21-11-18.687-21.97-28.194-58.955-35-86.5.499-.188 2.842-.997 3-1 11.738-.202 23.647 1.208 35-3" style="fill:url(#k)"/>/&gt;<path fill="#1b3c56" d="m841.5 555 23.5 10.5c-4.136 14.286-7.828 29.063-13 43-3.468 9.345-16.206 39.532-22 46-8.777 9.799-17.299 7.324-28.5 4.5 7.209-17.605 17.793-33.568 24.5-51.5 6.394-17.094 9.542-35.276 15.5-52.5"/><path fill="url(#l)" d="M180 560c5.607 13.708 8.124 32.461 14 47.5 6.733 17.231 15.987 34.15 27 49-9.355 5.754-21.366 8.802-30-1-11.995-13.618-28.688-66.522-34-85.5.048-.958-.195-2.153 0-3 9.078 1.846 14.054-6.244 23-7" style="fill:url(#l)"/>/&gt;<path fill="#9ee5f1" d="M580 569c-23.391 48.773-91.191 61.371-129 22 16.42 13.365 39.285 12.703 59 10 26.237-3.598 50.311-14.221 60-41-.341 5.558 5.601 7.252 10 9"/><path fill="#27536c" d="M800 563c.058-.64-.139-1.287 0-3 14.008 12.195 17.828 22.348 0 3"/><path fill="#6acee0" d="M467 588c14.128 6.923 26.209 13.903 43 13-19.715 2.703-42.58 3.365-59-10-6.818-5.55-16.639-19.74-16.5-29 4.936 14.437 19.91 19.83 32.5 26"/><path fill="#97e4f0" d="M624.5 565c4.157 35.598-25.535 69.277-55 86 25.67-24.481 47.473-50.132 55-86"/><path fill="#a3e4f0" d="M308 618c6.496 14.678 16.005 30.468 26 43-1.394 1.479 1.116 4.386 2 5.5 40.722 51.324 103.36 84.036 169.5 84.5l21.5-3c7.833-.536 15.295-1.651 23-3 8.551 3.413 20.669-.366 29.5-3 43.73-13.044 95-53.08 119.5-91.5 1.9-2.98 4.311-5.609 3-9.5 10.834-17.952 19.213-38.556 24-59 2.892-.792 1.187 4.723 1 5.5C691.907 733.259 523.281 801.227 395 724c-49.919-30.052-87.834-83.346-101-140-.812-3.494-2.756-9.701-1-13 3.002 15.006 8.805 33.001 15 47"/><path fill="#03363f" d="M312 615c9.427 21.171 19.716 34.975 35 52 21.364 23.798 45.678 42.517 75 56-4.746 3.316.583 2.605 1 6-31.625-13.993-67.368-40.877-89-68-9.995-12.532-19.504-28.322-26-43z"/><path fill="#55c9e1" d="M550 745c59.927-10.49 120.474-51.761 152-104 1.311 3.891-1.1 6.52-3 9.5-24.5 38.42-75.77 78.456-119.5 91.5-8.831 2.634-20.949 6.413-29.5 3"/><path fill="#609aa1" d="m439 710-11 16c-2.037-.857-3.988-2.075-6-3-29.322-13.483-53.636-32.202-75-56l13-10c20.897 23.537 49.553 42.441 79 53"/><path fill="#55cce1" d="M423 729c33.564 14.852 67.168 21.522 104 19l-21.5 3c-66.14-.464-128.778-33.176-169.5-84.5-.884-1.114-3.394-4.021-2-5.5 21.632 27.123 57.375 54.007 89 68"/><path fill="#4b5d66" d="M595 780c1.595 3.544 2.642 7.395 4 11-94.454 31.632-203.206 7.513-270-67 71.477 65.675 173.798 83.394 266 56"/><path fill="#354a53" d="M681 734c-19.534 28.874-46.475 47.731-80 58-.031-.108-1.961-.895-2-1-1.358-3.605-2.405-7.456-4-11 30.828-9.159 61.249-25.4 86-46"/><path fill="#b7c7d1" d="M347 818c25.709 30.723 79.583 79.215 117 93l-3 7c-45.642-20.688-93.345-63.206-126-101 6.535 1.144 5.776 9.367 12 1"/><path fill="#02232b" d="M548 897c-4.105 8.871-18.415 20.678-28 23-5.103 1.236-10.817 1.485-16 1-1.848-.173-6.255-2.555-9-3-29.613-16.598-33.887-59.911 1.5-73 33.664-12.452 66.233 20.165 51.5 52m-48-49c-41.116 13.909-27.005 75.03 16 68 50.533-8.26 31.832-84.181-16-68"/><path fill="#56c1cf" d="M516 916c-6.105-.487-26.952-8.524-29-14.5-1.374-4.008 2.642-1.078 3-2.5 8.873 9.574 28.909 11.655 39.5 5 20.071-12.611 13.008-45.364-9.5-51 2.423-1.909-3.217-2.97-3.5-3-7.996-.85-12.998 3.755-16.5-2 47.832-16.181 66.533 59.74 16 68"/><path fill="#b3eef6" d="M500 848c3.502 5.755 8.504 1.15 16.5 2 .283.03 5.923 1.091 3.5 3-3.956-.991-7.935-1.421-12-1-3.655.378-4.929 1.569-8 3-17.164 7.997-23.306 29.641-10 44-.358 1.422-4.374-1.508-3 2.5 2.048 5.976 22.895 14.013 29 14.5-43.005 7.03-57.116-54.091-16-68"/><path fill="#007691" d="M508 852c41.511 2.8 39.538 59.142-3 52.5 5.46-1.062 13.347.219 18-3.5 4.156-3.322-1.837-.715-1-5.5.574-3.281 11.737-7.429 7-22-3.238-9.96-16.31-12.749-25-14.5 21.533-7.414 33.788 11.715 29.5 32 8.94-24.903-8.243-38.784-33-34-3.712.717-.12-1.188-.5-2 3.071-1.431 4.345-2.622 8-3"/><path fill="#023a45" d="M520 853c22.508 5.636 29.571 38.389 9.5 51-10.591 6.655-30.627 4.574-39.5-5-13.306-14.359-7.164-36.003 10-44 .38.812-3.212 2.717.5 2 24.757-4.784 41.94 9.097 33 34 4.288-20.285-7.967-39.414-29.5-32-13.237 4.558-20.252 16.712-16 30.5 1.376 4.463 11.874 11.454 15.5 12.5 6.567 1.894 13.076-1.217 19.5-1-4.653 3.719-12.54 2.438-18 3.5 42.538 6.642 44.511-49.7 3-52.5 4.065-.421 8.044.009 12 1"/><path fill="#0088a7" d="M523 901c-6.424-.217-12.933 2.894-19.5 1-3.626-1.046-14.124-8.037-15.5-12.5-4.252-13.788 2.763-25.942 16-30.5 8.69 1.751 21.762 4.54 25 14.5 4.737 14.571-6.426 18.719-7 22-.837 4.785 5.156 2.178 1 5.5"/><path fill="#81a1af" d="M495 918c2.745.445 7.152 2.827 9 3 1.164 13.954-8.22 12.55-5.5-1-7.388-1.458-5.445 3.392-8.5 8-10.881-2.921-18.674-5.32-29-10l3-7c10.1 3.721 20.422 5.284 31 7"/></svg>