<svg xmlns="http://www.w3.org/2000/svg" width="1024" height="1024"><defs><linearGradient id="a" x1="376.779" x2="563.61" y1="238.609" y2="259.538" gradientUnits="userSpaceOnUse"><stop offset="0%" style="stop-color:#a1e5f8"/><stop offset="100%" style="stop-color:#4fafce"/></linearGradient></defs><defs><linearGradient id="b" x1="733.062" x2="619.549" y1="237.392" y2="247.922" gradientUnits="userSpaceOnUse"><stop offset="0%" style="stop-color:#1b7697"/><stop offset="100%" style="stop-color:#4093b2"/></linearGradient></defs><defs><linearGradient id="c" x1="578.362" x2="430.548" y1="397.308" y2="447.178" gradientUnits="userSpaceOnUse"><stop offset="0%" style="stop-color:#a6bfca"/><stop offset="100%" style="stop-color:#cadce5"/></linearGradient></defs><defs><linearGradient id="d" x1="386.498" x2="388.479" y1="479.101" y2="634.089" gradientUnits="userSpaceOnUse"><stop offset="0%" style="stop-color:#151a2d"/><stop offset="100%" style="stop-color:#09a5c9"/></linearGradient></defs><defs><linearGradient id="e" x1="638.554" x2="641.058" y1="478.409" y2="615.386" gradientUnits="userSpaceOnUse"><stop offset="0%" style="stop-color:#141b2e"/><stop offset="100%" style="stop-color:#146786"/></linearGradient></defs><defs><linearGradient id="f" x1="540.147" x2="737.248" y1="731.238" y2="770.636" gradientUnits="userSpaceOnUse"><stop offset="17.91%" style="stop-color:#66828e"/><stop offset="100%" style="stop-color:#4e6e7d"/></linearGradient></defs><path fill="#125e7e" d="M575 94c4.082 1.9 9.826 2.98 4 5-6.169-1.552-12.738-2.865-19-4l-20-5.5-4 1.5c-48.987-4.59-94.095 2.8-140 19-7.158 2.526-14.092 4.799-21 8-11.597 5.374-23.355 11.483-33 20-26.791 14.804-58.386 64.259-50.5 96 19.557-33.173 59.214-71.63 95.5-86 10.673-4.227 23.477-7.667 35-8 9.187-.265 18.032 1.493 27 3 29.08 4.887 57.006 15.555 82 31l-1 6c-24.902-16.116-65.481-31.798-95-35-17.965-1.949-23.43-.016-40 5-28.705 8.69-52.161 25.118-73 46.5l27.5-15.5c7.123-3.19 13.956-4.418 21.5-6 82.502-17.305 110.512 21.951 167 67l-1 2c-13.103-9.798-25.184-21.144-39-30-24.347-23.994-58.443-39.056-93-37-30.745-3.05-82.348 16.168-102 41-2.076 2.624-18.298 29.8-11.5 30 10.284-19.362 25.544-30.244 46.5-36 8.663 2.22 21.624-.755 29.5 2 1.954.683 29.203 21.894 33 25 40.128 32.824 59.347 63.744 115.5 74 14.449 2.639 26.528 3.032 41 4 26.941 1.802 54.083 1.005 81 4v10c-2.638-.032-6.449 1.075-7.5 1-.917-.065-.089-2.976-1-3-4.336-.115-11.976 1.243-16.5 2-43.894-4.272-89.549-1.493-130.5-20-40.571-18.335-68.963-56.015-105-81-4.097-.35 3.864 8.715 4.5 9.5 13.724 16.932 35.435 28.182 48 46.5-.84-.667-1.384-1.504-2-2-15.734-12.668-34.3-28.791-48-43.5-4.214-4.524-11.229-19.043-17-20.5-14.296-3.609-39.188 2.587-51 11-2.702 1.924-20.032 18.879-21 20.5-1.067 1.788-1.641 7.478 0 9.5 1.651 2.034 3.653-1.214 4 .5.159.787-7.264 4.461-7 13.5.074 2.525 2.207 8.952 3 12 8.287 31.856 39.76 66.486 68.5 82 27.838 15.028 60.711 23.099 92.5 17.5-36.777.492-86.539-24.749-92-64.5 15.92 34.918 54.313 64.479 94 61.5-35.871-11.211-74.106-31.784-92-66.5-.858-1.665-1.291-3.35-2-5 8.546-.303 7.679 10.672 17 12 25.736 36.876 72.458 54.496 116.5 55-7.766 6.812-20.435 11.82-30.5 14-27.294 5.911-55.807 3.312-82-6-7.503-2.667-17.57-8.349-25-12-6.164-3.029-22.077-14.96-26-16-2.819-.747-8.214.488-11 2-2.342-2.269-.376-1.76-2.5-4-30.071 34.177-50.311 77.335-63.5 121-4.27 4.251-9.813 11.205-14 16 2.826-39.841 22.234-83.266 44-116.5 3.647-5.568 24.798-29.019 25-31 .175-1.712-2.731-3.729-4-4.5-6.015-3.655-22.924 5.493-29.5 10-9.32 6.389-17.501 17.221-24.5 26-22.133 27.762-46.588 90.223-20 121.5 4.28 5.035 1.125-7.68 1-9.5h3c.131 2.732-.187 5.823 2 8-2.475 2.93-5.765 6.154-8 9-9.231-20.664-13.002-43.755-11-66.5.931-10.582 5.081-21.877 7-32.5 9.786-21.061 24.649-43.915 43.5-58 4.976-3.718 30.921-15.794 31.5-17.5.22-.647-4.134-12.193-5.5-12.5-4.854-1.092-42.118 18.836-49.5 21 4.245-3.706 9.904-9.02 14.5-12 11.197-7.262 23.552-10.51 34.5-17.5.778-1.578-5.961-21.858-7-25.5-1.131-3.966-1.589-7.987-2.5-12-35.114 2.316-53.498 18.679-72.5 46-12.167 17.493-20.49 32.745-25 54-8.129 38.311-4.57 81.559 20.5 113-2.414-7.008-4.802-13.719-6.5-21-7.757-33.255-3.607-56.957 9-88 10.476-9.879 14.787-25.96 29-32-6.757 6.53-15.651 17.254-21 25-.934 1.353-2.096 2.576-3 4-22.091 34.79-19.551 88.13 4 122 1.77 2.545 6.398 11.202 10 10-.973 1.239-2.023 2.717-3 4-83.164-65.705-43.922-230.184 63-246.5-1.651-7.734.967-16.473 0-26-3.777-37.217-2.701-58.21 23-89C359.956 90.849 507.556 62.597 575 94M319.5 353c-2.864.899-.719 3.959 1 5l4.5-2.5c-.199-2.205-4.097-2.941-5.5-2.5"/><path fill="#052943" d="M560 95c-7.775-1.409-16.174-3.267-24-4l4-1.5z"/><path fill="#a3e2f2" d="M536 91c7.826.733 16.225 2.591 24 4 6.262 1.135 12.831 2.448 19 4 50.471 12.7 95.949 39.594 139.5 67l-1.5 1c-38.389-21.422-82.513-47.243-124.5-60-6.656-2.022-14.532-3.622-21.5-4-21.272-12.741-103.335-5.947-129-1-29.709 5.726-73.934 21.597-100 36 9.645-8.517 21.403-14.626 33-20-1.309 4.735 4.796 1.662 6.5 1 4.839-1.88 10.365-5.875 16-7l-1.5-2c45.905-16.2 91.013-23.59 140-19"/><path fill="#042f4a" d="m811 508 11-36c.378-1.385.67-2.589 1-4 4.221-18.048 6.587-45.375 1-63 1.119-20.981-14.769-42.714-30-56-10.285-12.304-24.428-23.248-38.5-31-8.784-4.839-47.739-21.691-56-23-9.707-1.539-39.043 12.095-52 9 7.543 4.496 15.695 7.954 23.5 12l-2 2c-11.09-5.352-22.62-9.377-34-14-48.07-19.528-57.572-29.769-98-60l1-2c8.246 6.577 16.997 14.607 26 20 29.722 24.766 59.725 41.705 99.5 36 8.075-1.158 63.647-15.345 62.5-23.5-5.747-4.983-10.758 1.814-15 3.5-18.321.546-33.273-1.086-51-5-2.821-4.386-20.855-6.36-15-13 27.17 12.478 55.715 17.485 85 9 .274.412 2.747-1.191 3 1.5.388 4.122-16.05 17.832-21 19 .348 2.413 5.487 1.889 7 2.5 44.097 17.813 95.364 46.548 109.5 95 2.895-.469-11.144-52.595-12.5-57-9.449-30.703-23.841-58.856-46-82.5-22.288-23.782-28.242-17.781-54-30.5-7.821-3.862-17.751-10.147-23.5-17 13.742 4.052 30.832 9.736 45 11 19.076 1.702 49.081 2.252 65.5-7.5-4.419-.429-8.614-.745-13-1.5-30.493-5.248-48.262-21.195-73-35l1.5-1c-43.551-27.406-89.029-54.3-139.5-67 5.826-2.02.082-3.1-4-5 21.838 4.004 44.414 12.72 64.5 22 64.26 29.69 117.785 91.034 194.5 78.5-25.444 20.62-56.195 23.785-88 24 31.453 21.779 56.851 55.894 70 92 19.153 52.593 27.586 149.237-5 197.5"/><path fill="#7cc9e2" d="M571 103c1.742 1.044 3.771 1.026 4 1.5.318.659-3.728 11.66-2 14.5-16.083-2.68-41.728-5.377-58-6-35.647-1.364-77.384 4.005-111 16-37.845 13.503-68.647 38.791-95.5 68 16.54-41.481 49.494-61.907 89-78 12.929-5.266 27.037-8.127 40-13 1.914-.719 4.823-1.316 4.5-4 25.665-4.947 107.728-11.741 129 1"/><path fill="#4ad4ef" d="m404 129 2 10c-5.918 1.973-15.206 3.997-19 9-36.286 14.37-75.943 52.827-95.5 86-7.886-31.741 23.709-81.196 50.5-96 26.066-14.403 70.291-30.274 100-36 .323 2.684-2.586 3.281-4.5 4-12.963 4.873-27.071 7.734-40 13-39.506 16.093-72.46 36.519-89 78 26.853-29.209 57.655-54.497 95.5-68"/><path fill="#3a90b0" d="M717 167c24.738 13.805 42.507 29.752 73 35-1.705 2.683-7.547 1.491-10.5 1-40.593-6.752-115.282-27.028-150.5-47-9.066-5.142-16.518-13.804-26.5-18-14.456-6.076-34.687-3.292-43-17 11.576-1.139 21.68.942 32.5 4.5-5.41-4.662-12.247-5.375-19-6.5-1.728-2.84 2.318-13.841 2-14.5-.229-.474-2.258-.456-4-1.5 6.968.378 14.844 1.978 21.5 4 41.987 12.757 86.111 38.578 124.5 60"/><path fill="#5ccee8" d="m396 110 1.5 2c-5.635 1.125-11.161 5.12-16 7-1.704.662-7.809 3.735-6.5-1 6.908-3.201 13.842-5.474 21-8"/><path fill="#33b7d8" d="m515 113-.5 10 12.5 1c-3.433-1.81-63.956 2.87-72.5 4-16.454 2.176-32.826 5.773-48.5 11l-2-10c33.616-11.995 75.353-17.364 111-16"/><path fill="#229abd" d="M573 119c6.753 1.125 13.59 1.838 19 6.5-10.82-3.558-20.924-5.639-32.5-4.5 8.313 13.708 28.544 10.924 43 17 9.982 4.196 17.434 12.858 26.5 18-7.725-3.145-10.365 1.901-11.5 2-.581.05-7.771-5.327-10-6-16.05-4.847-29.845-7.323-46.5-13-11.055-3.768-21.678-9.201-33.5-11-2.506-1.165.206-3.628-.5-4l-12.5-1 .5-10c16.272.623 41.917 3.32 58 6"/><path fill="#228db0" d="M527 124c.706.372-2.006 2.835.5 4 11.822 1.799 22.445 7.232 33.5 11l-2 7c-33.421-12.375-74.915-18.132-110.5-14-7.787.904-20.61 3.311-26.5 8-11.523.333-24.327 3.773-35 8 3.794-5.003 13.082-7.027 19-9 15.674-5.227 32.046-8.824 48.5-11 8.544-1.13 69.067-5.81 72.5-4"/><path fill="#1b9bbf" d="M559 146c35.74 13.233 68.909 37.138 106 47.5L578 182c-2.032-1.006-3.995-1.9-6-3-36.57-20.064-59.139-34.309-103.5-39-5.045-.533-19.216-3.182-19.5 3-8.968-1.507-17.813-3.265-27-3 5.89-4.689 18.713-7.096 26.5-8 35.585-4.132 77.079 1.625 110.5 14"/><path fill="#1b87aa" d="m572 179-4 .5c7.95 6.041 15.897 11.673 26 13.5-.061 1.23 2.48 1.865 1.5 3-3.183.669-10.63-1.798-10.5 2-5.149-.165-16.177 1.625-19.5 1-2.094-.394-28.678-21.402-34.5-25-24.994-15.445-52.92-26.113-82-31 .284-6.182 14.455-3.533 19.5-3 44.361 4.691 66.93 18.936 103.5 39"/><path fill="#077296" d="M629 156c35.218 19.972 109.907 40.248 150.5 47 2.953.491 8.795 1.683 10.5-1 4.386.755 8.581 1.071 13 1.5-16.419 9.752-46.424 9.202-65.5 7.5-14.168-1.264-31.258-6.948-45-11 5.749 6.853 15.679 13.138 23.5 17l-2 3c-8.122-3.603-18.39-6.581-27-9-7.523-5.036-20.544-7.728-29.5-9-23.151-3.289-49.115-3.251-72.5-4-.13-3.798 7.317-1.331 10.5-2 .98-1.135-1.561-1.77-1.5-3 .098-1.971 1.606-4.853.5-6-.598-.621-13.305-3.418-16.5-5l87 11.5c-37.091-10.362-70.26-34.267-106-47.5l2-7c16.655 5.677 30.45 8.153 46.5 13 2.229.673 9.419 6.05 10 6 1.135-.099 3.775-5.145 11.5-2"/><path fill="#30b1d1" d="m435 145 10.5 7c-8.869.553-22.57-1.665-29.5 5-12.795 1.241-24.681 7.153-36.5 12-6.528-13.348 11.718-9.159 15.5-19 16.57-5.016 22.035-6.949 40-5"/><path fill="#54bcd9" d="M530 180c4.713 3.05 8.566 6.751 13 10 .348 3.215 3.986 6.745 6 9-27.9-21.344-64.959-41.068-101-38-1.128-1.15-.811-3.732-1.5-4-1.422-.552-27.172-.323-30.5 0 6.93-6.665 20.631-4.447 29.5-5l-10.5-7c29.519 3.202 70.098 18.884 95 35"/><path fill="#41c6e4" d="M416 157c3.328-.323 29.078-.552 30.5 0 .689.268.372 2.85 1.5 4 .072.074-2.508.796-.5 2 1.25.749 17.605 3.599 21.5 5-1.017 1.247-1.864 3.859-3.5 4-1.103.095-16.572-6.341-21-7-18.559-2.762-48.545 1.602-67 6-1.754.418-6.657 1.395-6.5 4-7.544 1.582-14.377 2.81-21.5 6L322 196.5c20.839-21.382 44.295-37.81 73-46.5-3.782 9.841-22.028 5.652-15.5 19 11.819-4.847 23.705-10.759 36.5-12"/><path fill="#73c0db" d="M549 199c1.999 2.237 3.884 3.941 6 6l-9.5 15c-23.373-18.318-45.458-40.284-73.5-51-.902-.345-2.036-.653-3-1-3.895-1.401-20.25-4.251-21.5-5-2.008-1.204.572-1.926.5-2 36.041-3.068 73.1 16.656 101 38"/><path fill="#2695b8" d="M469 168c.964.347 2.098.655 3 1-.673 3.473.841 2.828 2.5 4 9.573 6.761 20.764 11.434 30 19 24.085 19.73 51.412 53.529 80 68 15.501 7.846 11.966 3.577 23.5-7 12.507 8.888 16.043 7.932 28 12 7.811 2.657 15.964 6.226 24 8 17.727 3.914 32.679 5.546 51 5-22.712 9.028-61.379 11.333-86.5 8-4.538-.602-6.434-.562-3-4-18.703-3.069-41.191-10.231-57.5-20-9.003-5.393-17.754-13.423-26-20-56.488-45.049-84.498-84.305-167-67-.157-2.605 4.746-3.582 6.5-4 18.455-4.398 48.441-8.762 67-6 4.428.659 19.897 7.095 21 7 1.636-.141 2.483-2.753 3.5-4"/><path fill="#51a9c7" d="M555 205c14.186 13.806 37.568 37.033 53 48-11.534 10.577-7.999 14.846-23.5 7-28.588-14.471-55.915-48.27-80-68-9.236-7.566-20.427-12.239-30-19-1.659-1.172-3.173-.527-2.5-4 28.042 10.716 50.127 32.682 73.5 51z"/><path fill="#08405c" d="M585 198c23.385.749 49.349.711 72.5 4 8.956 1.272 21.977 3.964 29.5 9-7.715-2.168-16.084-4.86-24-6-7.83-1.128-16.067-.632-24-1-21.753-1.008-42.852-.932-64.5 2 7.475 7.991 16.171 14.935 24.5 22 14.816 12.568 28.061 23.761 46 32-5.855 6.64 12.179 8.614 15 13-8.036-1.774-16.189-5.343-24-8-15.249-6.629-26.835-16.66-39-27.5-17.698-15.77-33.809-32.707-54-47.5-4.434-3.249-8.287-6.95-13-10l1-6c5.822 3.598 32.406 24.606 34.5 25 3.323.625 14.351-1.165 19.5-1"/><path fill="#7fd5ec" d="M405 177c4.97.493 12.76 2.825 18 4l24 16c-31.184-15.64-62.519-17.024-95.5-5-2.48.904-24.31 10.205-17.5 14-12.169 1.747-20.625 5.681-31 12 19.652-24.832 71.255-44.05 102-41"/><path fill="#1783a5" d="M498 214c-22.371-14.339-49.439-27.27-75-33-5.24-1.175-13.03-3.507-18-4 34.557-2.056 68.653 13.006 93 37"/><path fill="#1b94b8" d="M572 179c2.005 1.1 3.968 1.994 6 3 3.195 1.582 15.902 4.379 16.5 5 1.106 1.147-.402 4.029-.5 6-10.103-1.827-18.05-7.459-26-13.5z"/><path fill="#1e9cc0" d="M498 214c13.816 8.856 25.897 20.202 39 30 40.428 30.231 49.93 40.472 98 60l.5 4c-11.427-3.117-23.01-6.193-34.5-9 2.46-2.041 2.457-1.48-.5-3-16.21-8.332-32.134-13.955-48-24-34.669-21.95-68.785-56.586-105.5-75l-24-16c25.561 5.73 52.629 18.661 75 33"/><path fill="url(#a)" d="M447 197c36.715 18.414 70.831 53.05 105.5 75 15.866 10.045 31.79 15.668 48 24 2.957 1.52 2.96.959.5 3-12.609-3.08-25.782-3.718-37.5-11 12.458 14.681 33.407 18.388 51.5 22.5-18.631 2.988-34.314 3.562-53 1.5-26.002-2.87-62.272-11.003-85-24-3.495-1.999-10.256-6.564-12.5-10l46 16-35.5-17.5 34.5-.5c-37.749 3.952-61.371-10.897-88.5-34-13.948-11.878-28.783-32.689-49-36-6.83-1.119-13.127-1.132-20-1-6.133.118-11.907.125-18 1-6.81-3.795 15.02-13.096 17.5-14 32.981-12.024 64.316-10.64 95.5 5" style="fill:url(#a)"/>/&gt;<path fill="#1489ad" d="M636 265c-11.957-4.068-15.493-3.112-28-12-15.432-10.967-38.814-34.194-53-48-2.116-2.059-4.001-3.763-6-6-2.014-2.255-5.652-5.785-6-9 20.191 14.793 36.302 31.73 54 47.5 12.165 10.84 23.751 20.871 39 27.5"/><path fill="#0d789c" d="m639 204-1 8c-4.781-.259-16.924-2.042-20.5-1-1.55.452-15.452 15.025-18.5 17-8.329-7.065-17.025-14.009-24.5-22 21.648-2.932 42.747-3.008 64.5-2"/><path fill="#07688b" d="M663 205c3.763 4.502 13.71 4.299 19.5 6 20.268 5.954 39.653 16.307 56.5 29-28.341-17.486-67.73-26.199-101-28l1-8c7.933.368 16.17-.128 24 1"/><path fill="#5cd8f1" d="M352 205c1.971 9.187-6.568 4.959-14 7-20.956 5.756-36.216 16.638-46.5 36-6.798-.2 9.424-27.376 11.5-30 10.375-6.319 18.831-10.253 31-12 6.093-.875 11.867-.882 18-1"/><path fill="#39bcdc" d="m372 206 49 36c27.129 23.103 50.751 37.952 88.5 34l-34.5.5 35.5 17.5-46-16c2.244 3.436 9.005 8.001 12.5 10 2.157 3.149 10.214 7.207 14.5 9 3.67 1.535 22.106 6.197 23 7 .667.599-4.352 7.152 1.5 9-56.153-10.256-75.372-41.176-115.5-74-3.797-3.106-31.046-24.317-33-25-7.876-2.755-20.837.22-29.5-2 7.432-2.041 15.971 2.187 14-7 6.873-.132 13.17-.119 20 1"/><path fill="#5ecfea" d="m421 242-49-36c20.217 3.311 35.052 24.122 49 36"/><path fill="#53b6ce" d="M687 211c8.61 2.419 18.878 5.397 27 9 20.168 8.947 45.111 27.214 60 43.5 17.747 19.413 29.676 42.982 41 66.5l-2 .5c-13.705-28.448-32.741-56.95-57-77.5-5.746-4.867-10.516-8.999-17-13-16.847-12.693-36.232-23.046-56.5-29-5.79-1.701-15.737-1.498-19.5-6 7.916 1.14 16.285 3.832 24 6"/><path fill="url(#b)" d="M638 212c33.27 1.801 72.659 10.514 101 28 6.484 4.001 11.254 8.133 17 13-1.923-.776-2.518.745-3 1-8.184 4.325-15.365 10.377-24.5 13-1.058 1.013.58.614 1.5 2-29.285 8.485-57.83 3.478-85-9-17.939-8.239-31.184-19.432-46-32 3.048-1.975 16.95-16.548 18.5-17 3.576-1.042 15.719.741 20.5 1" style="fill:url(#b)"/>/&gt;<path fill="#045b7e" d="M816 330h-1c-11.324-23.518-23.253-47.087-41-66.5-14.889-16.286-39.832-34.553-60-43.5l2-3c25.758 12.719 31.712 6.718 54 30.5 22.159 23.644 36.551 51.797 46 82.5"/><path fill="#2ba6c9" d="M363 220c-.114 2.602-1.578 1.777 0 4.5 5.35 9.229 21.689 21.748 26 30 2.008 3.844 2.356 2.473 0 6.5-21.982-25.019-44.793-47.399-79-26 .565-.826 3.655-3.5 2-4 11.812-8.413 36.704-14.609 51-11"/><path fill="#249cbf" d="M428 284c-2.478.872.209 2.653 1 3.5 16.479 17.646 37.884 39.421 61 47.5-5.467 5.823-16.404-4.141-23-3-41.942-18.558-50.512-39.715-78-71 2.356-4.027 2.008-2.656 0-6.5-4.311-8.252-20.65-20.771-26-30-1.578-2.723-.114-1.898 0-4.5 5.771 1.457 12.786 15.976 17 20.5 13.7 14.709 32.266 30.832 48 43.5"/><path fill="#2fbdde" d="M389 261c27.488 31.285 36.058 52.442 78 71 4.007 1.773 7.728 3.791 12 5l-4 4c-10.452-4.549-21.724-8.024-33-13-13.373-7.206-25.557-16.489-36-27.5-26.061-27.479-45.511-84.611-94-61 3.526 3.725 9.139 2.659 14.5 5.5 9.701 5.142 17.789 13.901 25.5 21-.583 2.879.555 5.333 1 8-3.18 13.264 1.918 26.167 7 38 .709 1.65 1.142 3.335 2 5-4.955.363-2.241 3.247-2 5 5.461 39.751 55.223 64.992 92 64.5-31.789 5.599-64.662-2.472-92.5-17.5-28.74-15.514-60.213-50.144-68.5-82 1.739-.112.157-4.406 3-2.5 1.725 1.157 9.462 22.342 12 26 2.183 3.147 25.762 26.465 29.5 29.5 2.338 1.898 36.718 23.336 37.5 20.5-33.793-17.004-19.348-73.651-44.5-90.5-2.305-1.544-15.232-6.117-15.5-7.5-.394-2.033 6.952-4.96 1.5-6.5L288 275c-.264-9.039 7.159-12.713 7-13.5-.347-1.714-2.349 1.534-4-.5 9.704-8.223 12.507-16.497 19-26 34.207-21.399 57.018.981 79 26"/><path fill="#178cb0" d="M613 331c-.524.088-3.794 2.29-9 3-7.112-4.028-15.795.806-23.5 1-64.939 1.634-100.35-9.16-150.5-49-12.565-18.318-34.276-29.568-48-46.5-.636-.785-8.597-9.85-4.5-9.5 36.037 24.985 64.429 62.665 105 81 40.951 18.507 86.606 15.728 130.5 20"/><path fill="#ace9f7" d="M312 231c1.655.5-1.435 3.174-2 4-6.493 9.503-9.296 17.777-19 26-1.641-2.022-1.067-7.712 0-9.5.968-1.621 18.298-18.576 21-20.5"/><path fill="#93e0f5" d="M442 328c-46.131-20.358-53.966-28.825-90-62-7.711-7.099-15.799-15.858-25.5-21-5.361-2.841-10.974-1.775-14.5-5.5 48.489-23.611 67.939 33.521 94 61 10.443 11.011 22.627 20.294 36 27.5"/><path fill="#116e90" d="M756 253c24.259 20.55 43.295 49.052 57 77.5l2-.5h1c1.356 4.405 15.395 56.531 12.5 57-14.136-48.452-65.403-77.187-109.5-95 14.581-8.324 28.888-21.361 34-38 .482-.255 1.077-1.776 3-1"/><path fill="#16617e" d="M719 292c-1.513-.611-6.652-.087-7-2.5 4.95-1.168 21.388-14.878 21-19-.253-2.691-2.726-1.088-3-1.5-.92-1.386-2.558-.987-1.5-2 9.135-2.623 16.316-8.675 24.5-13-5.112 16.639-19.419 29.676-34 38"/><path fill="#81d8ef" d="M291 287c-.793-3.048-2.926-9.475-3-12l26.5-19c5.452 1.54-1.894 4.467-1.5 6.5.268 1.383 13.195 5.956 15.5 7.5 25.152 16.849 10.707 73.496 44.5 90.5-.782 2.836-35.162-18.602-37.5-20.5-3.738-3.035-27.317-26.353-29.5-29.5-2.538-3.658-10.275-24.843-12-26-2.843-1.906-1.261 2.388-3 2.5"/><path fill="#04678a" d="M711 278c4.242-1.686 9.253-8.483 15-3.5 1.147 8.155-54.425 22.342-62.5 23.5-39.775 5.705-69.778-11.234-99.5-36 16.309 9.769 38.797 16.931 57.5 20-3.434 3.438-1.538 3.398 3 4 25.121 3.333 63.788 1.028 86.5-8"/><path fill="#36c6e6" d="M442 328c11.276 4.976 22.548 8.451 33 13 2.265.986 5.236 3.746 8 4.5-54.624-1.243-93.933-33.203-130-70.5-.064-.319.054-.676 0-1-.445-2.667-1.583-5.121-1-8 36.034 33.175 43.869 41.642 90 62"/><path fill="#1e8db0" d="M286 286c-23.274-1.485-39.212 5.108-57 19-5.795 4.526-11.523 11.309-18 15 19.002-27.321 37.386-43.684 72.5-46 .911 4.013 1.369 8.034 2.5 12"/><path fill="#166888" d="M353 275c2.084 10.352 22.222 31.152 31 39-5.338.667 3.827 8.724 5 10l-13-11-12-11.5c5.406 6.741 8.131 15.523 13 22.5-9.321-1.328-8.454-12.303-17-12-5.082-11.833-10.18-24.736-7-38 .054.324-.064.681 0 1"/><path fill="#1790b4" d="m475 341 4-4c12.672 3.585 24.835 4.611 38 4l43-2c-23.219 2.308-47.518 6.629-70.5 2-1.915 1.756 3.42 2.884 4 3 51.506 10.327 101.363-11.813 151.5-11 21.677.352 43.874 3.464 61.5 17 .719.552 13.116 10.672 8 10-6.716-6.778-17.332-12.407-26.5-15-52.893-14.959-116.486 12.669-170.5 14-48.214 1.188-97.372-12.701-133.5-45-8.778-7.848-28.916-28.648-31-39 36.067 37.297 75.376 69.257 130 70.5-2.764-.754-5.735-3.514-8-4.5"/><path fill="#19a5c9" d="M430 286c50.15 39.84 85.561 50.634 150.5 49 7.705-.194 16.388-5.028 23.5-1-14.513 1.979-29.424 3.551-44 5l-43 2c-9.928-1.878-17.525-2.688-27-6-23.116-8.079-44.521-29.854-61-47.5-.791-.847-3.478-2.628-1-3.5.616.496 1.16 1.333 2 2"/><path fill="#1eb2d5" d="M286 286c1.039 3.642 7.778 23.922 7 25.5-10.948 6.99-23.303 10.238-34.5 17.5-4.596 2.98-10.255 8.294-14.5 12-1.953 1.706-4.416 3.469-6 5-14.213 6.04-18.524 22.121-29 32 11.805-29.067 28.128-54.704 58-67.5.053-2.324-17.344-1.193-20.5-2.5-3.078-1.274 1.485-.396.5-3 1.51-.685 31.715-12.126 22-12.5-5.912 2.001-12.16 3.334-18 5.5l-22 7c17.788-13.892 33.726-20.485 57-19"/><path fill="#29aacc" d="m562 312-15 1.5 10 3.5c-14.472-.968-26.551-1.361-41-4-5.852-1.848-.833-8.401-1.5-9-.894-.803-19.33-5.465-23-7-4.286-1.793-12.343-5.851-14.5-9 22.728 12.997 58.998 21.13 85 24"/><path fill="#05799e" d="M601 299c11.49 2.807 23.073 5.883 34.5 9l-.5-4c11.38 4.623 22.91 8.648 34 14 13.129 6.336 29.383 13.766 37.5 26-19.9-16.005-44-20.274-68.5-23-26.917-2.995-54.059-2.198-81-4l-10-3.5 15-1.5c18.686 2.062 34.369 1.488 53-1.5-18.093-4.112-39.042-7.819-51.5-22.5 11.718 7.282 24.891 7.92 37.5 11"/><path fill="#1f9fc3" d="M247 305c-10.705 4.858-19.621 7.068-29 15.5 8.647-10.506 20.342-17.805 33-22.5 5.84-2.166 12.088-3.499 18-5.5 9.715.374-20.49 11.815-22 12.5"/><path fill="#034d6b" d="M794 349c-25.074-21.873-48.323-27.964-80.5-33-4.161-.651-5.67-4.793-10.5-1.5 34.455 27.635 67.312 65.846 85 106.5-2.514 1.852-2.886-.854-4-2.5-23.348-34.493-76.408-83.531-113-102.5-7.805-4.046-15.957-7.504-23.5-12 12.957 3.095 42.293-10.539 52-9 8.261 1.309 47.216 18.161 56 23 14.072 7.752 28.215 18.696 38.5 31"/><path fill="#5fc8e4" d="M251 298c-12.658 4.695-24.353 11.994-33 22.5 9.379-8.432 18.295-10.642 29-15.5.985 2.604-3.578 1.726-.5 3 3.156 1.307 20.553.176 20.5 2.5-29.872 12.796-46.195 38.433-58 67.5-12.607 31.043-16.757 54.745-9 88-2.699.063-3.46-4.566-4-6.5-8.831-31.634-7.102-51.46-8-83-.049-1.709 1.503-2.817-2-2.5 4.51-21.255 12.833-36.507 25-54 6.477-3.691 12.205-10.474 18-15zm-26.5 20c-20.776 16.931-27.436 45.565-32 71 8.771-24.882 13.856-50.838 32-71"/><path fill="url(#c)" d="M376 313c4.151 5.975 7.504 18.272 14 22-.171 3.465 1.32 1.176 3-.5-1.118-1.643-2.399.845-3 .5l4-5c17.859 15.727 50.685 28.953 74 33 34.977 17.484 74.528 14.436 112 8 .044.162 2.564-.167 3 1.5 4.999 19.097 7.008 38.887 9 58.5-53.058 22.039-82.901 72.599-78 130-.02-.101-1.835.35-2-.5-.755-3.894 2.149-12.12-2-14.5-.468-71.796-61.042-125.071-131-127l3-22c8.116 2.67 19.09 7.194 27.5 8 24.186 2.317 52.341-6.719 77-6-7.623-3.19-16.64-1.211-23.5-6 10.065-2.18 22.734-7.188 30.5-14-44.042-.504-90.764-18.124-116.5-55-4.869-6.977-7.594-15.759-13-22.5z" style="fill:url(#c)"/>/&gt;<path fill="#d1eaf0" d="M389 324c1.62 1.762 3.243 4.453 5 6l-4 5c-6.496-3.728-9.849-16.025-14-22z"/><path fill="#056789" d="M794 349c15.231 13.286 31.119 35.019 30 56-9.236-29.138-48.144-65.116-78-72.5 33.994 15.933 71.418 51.63 77 90 2.201 15.132.022 30.418 0 45.5-.33 1.411-.622 2.615-1 4-2.996 10.989-8.771 24.683-16 33.5 3.756-29.121-6.517-58.109-18-84.5-17.688-40.654-50.545-78.865-85-106.5 4.83-3.293 6.339.849 10.5 1.5 32.177 5.036 55.426 11.127 80.5 33"/><path fill="#0b4e6b" d="M384 314c36.128 32.299 85.286 46.188 133.5 45 54.014-1.331 117.607-28.959 170.5-14l13 9c-2.329-.94-8.044-3.889-8.5-4-.638-.155-.355 2.132-1 2-4.304-.881-10.314-4.384-14.5-2-1.995 1.136-2.329 1.685-2 4-11.371-6.297-15.021-5.701-28.5-5-21.043 1.094-45.198 7.261-66.5 10-39.338 5.059-71.735 10.988-112 4-23.315-4.047-56.141-17.273-74-33-1.757-1.547-3.38-4.238-5-6-1.173-1.276-10.338-9.333-5-10"/><path fill="#063752" d="M788 421c11.483 26.391 21.756 55.379 18 84.5 7.229-8.817 13.004-22.511 16-33.5l-11 36c-1.441 2.134-2.597 6.12-5 8-.55.43-3.797.98-4.5 3-3.964-9.632-27.367-27.728-30.5-34.5-.86-1.858 2.004-1.375 2-1.5-.462-13.45-25.017-54.103-34-66.5-8.71-12.021-40.492-48.485-53-53.5-2.735-3.512-7.155-6.87-11-9-.329-2.315.005-2.864 2-4l30.5 9c3.484-1.676-5.725-4.687-6.5-5l-13-9c9.168 2.593 19.784 8.222 26.5 15 5.116.672-7.281-9.448-8-10-17.626-13.536-39.823-16.648-61.5-17 .591-3.088-4.369-1.968-7-2v-10c24.5 2.726 48.6 6.995 68.5 23-8.117-12.234-24.371-19.664-37.5-26l2-2c36.592 18.969 89.652 68.007 113 102.5 1.114 1.646 1.486 4.352 4 2.5m-66.5-64c3.594 9.654 5.931 23.299 12.5 30.5.897.984 1.721-1.36 2.5-.5 25.479 28.101 44.483 58.533 56 95 2.621-6.377-1.463-18.498-3.5-25.5-11.009-37.851-37.392-74.551-67.5-99.5"/><path fill="#22b2d7" d="M362 317c17.894 34.716 56.129 55.289 92 66.5-39.687 2.979-78.08-26.582-94-61.5-.241-1.753-2.955-4.637 2-5"/><path fill="#b6e6f6" d="M224.5 318c-18.144 20.162-23.229 46.118-32 71 4.564-25.435 11.224-54.069 32-71"/><path fill="#1c85a8" d="M224 408c2.464-13.645 1.033-27.815 9-41l11.5-17-27.5 21c5.349-7.746 14.243-18.47 21-25 1.584-1.531 4.047-3.294 6-5 7.382-2.164 44.646-22.092 49.5-21 1.366.307 5.72 11.853 5.5 12.5-.579 1.706-26.524 13.782-31.5 17.5-18.851 14.085-33.714 36.939-43.5 58"/><path fill="#043452" d="M638 331c2.631.032 7.591-1.088 7 2-50.137-.813-99.994 21.327-151.5 11-.58-.116-5.915-1.244-4-3 22.982 4.629 47.281.308 70.5-2 14.576-1.449 29.487-3.021 44-5 5.206-.71 8.476-2.912 9-3 4.524-.757 12.164-2.115 16.5-2 .911.024.083 2.935 1 3 1.051.075 4.862-1.032 7.5-1"/><path fill="#167fa4" d="M490 335c9.475 3.312 17.072 4.122 27 6-13.165.611-25.328-.415-38-4-4.272-1.209-7.993-3.227-12-5 6.596-1.141 17.533 8.823 23 3"/><path fill="#56b9cf" d="M824 405c5.587 17.625 3.221 44.952-1 63 .022-15.082 2.201-30.368 0-45.5-5.582-38.37-43.006-74.067-77-90 29.856 7.384 68.764 43.362 78 72.5"/><path fill="#d1eaf0" d="M390 335c.601.345 1.882-2.143 3-.5-1.68 1.676-3.171 3.965-3 .5"/><path fill="#1a7fa1" d="M304 342c-22.963 19.916-40.56 48.973-53 76.5-10.606 23.469-18.26 45.182-17 71.5h-3c-2.689-39.024 4.426-75.986 19-112 6.999-8.779 15.18-19.611 24.5-26 6.576-4.507 23.485-13.655 29.5-10"/><path fill="#18a2c8" d="M239 494c-1.147 1.314-1.875 2.668-3 4-2.187-2.177-1.869-5.268-2-8-1.26-26.318 6.394-48.031 17-71.5 12.44-27.527 30.037-56.584 53-76.5 1.269.771 4.175 2.788 4 4.5-.202 1.981-21.353 25.432-25 31-21.766 33.234-41.174 76.659-44 116.5"/><path fill="#617f8c" d="M675 354c3.845 2.13 8.265 5.488 11 9-3.56-1.427-23.537-4.871-25-2.5 34.338 25.285 64.162 57.547 84 95.5-3.927-3.009-11.787-8.384-16-11-22.763-31.885-77.979-77.525-118.5-78-3.288-.039-19.179 3.778-21 3-.829-.354-1.656-6.401-8.5-4-.087-.395-3.87-2.477-1-7 21.302-2.739 45.457-8.906 66.5-10 13.479-.701 17.129-1.297 28.5 5"/><path fill="#2e96af" d="M701 354c.775.313 9.984 3.324 6.5 5l-30.5-9c4.186-2.384 10.196 1.119 14.5 2 .645.132.362-2.155 1-2 .456.111 6.171 3.06 8.5 4"/><path fill="#3fb9d9" d="M233 367c-8.69 6.424-14.65 20.006-18 30-11.995-1.443 2.378-14.91-1-22 .904-1.424 2.066-2.647 3-4l27.5-21z"/><path fill="#a2dae5" d="M319.5 353c1.403-.441 5.301.295 5.5 2.5l-4.5 2.5c-1.719-1.041-3.864-4.101-1-5"/><path fill="#fafcfd" d="M319 361c1.86 1.802 2.81 4.291 6 5-.157.225.155.774 0 1-19.048 27.752-36.398 56.779-47 89-7.302 5.62-18.485 15.513-25 22 13.189-43.665 33.429-86.823 63.5-121 2.124 2.24.158 1.731 2.5 4"/><path fill="#054966" d="M721.5 357c30.108 24.949 56.491 61.649 67.5 99.5 2.037 7.002 6.121 19.123 3.5 25.5-11.517-36.467-30.521-66.899-56-95-.779-.86-1.603 1.484-2.5.5-6.569-7.201-8.906-20.846-12.5-30.5"/><path fill="#98dded" d="M330 359c-.827 2.57-3.452 4.781-5 7-3.19-.709-4.14-3.198-6-5 2.786-1.512 8.181-2.747 11-2"/><path fill="#9eb8c5" d="M356 375c1.072 4.482-6.313 2.984-8 7-.652-.059-1.342.028-2 0l-21-15c.155-.226-.157-.775 0-1 1.548-2.219 4.173-4.43 5-7 3.923 1.04 19.836 12.971 26 16"/><path fill="#91adb9" d="M581 366c.528 2.401-1.066 4.754-1 5-37.472 6.436-77.023 9.484-112-8 40.265 6.988 72.662 1.059 112-4-2.87 4.523.913 6.605 1 7"/><path fill="#67a3bb" d="M686 363c12.508 5.015 44.29 41.479 53 53.5 8.983 12.397 33.538 53.05 34 66.5-8.826-9.22-17.853-19.225-28-27-19.838-37.953-49.662-70.215-84-95.5 1.463-2.371 21.44 1.073 25 2.5"/><path fill="#8ba8b4" d="M729 445c-38.793-24.086-79.379-32.014-124-19-4.346 1.268-8.81 3.26-13 5-1.992-19.613-4.001-39.403-9-58.5-.436-1.667-2.956-1.338-3-1.5-.066-.246 1.528-2.599 1-5 6.844-2.401 7.671 3.646 8.5 4 1.821.778 17.712-3.039 21-3 40.521.475 95.737 46.115 118.5 78"/><path fill="#1fa6ca" d="M233 367c-7.967 13.185-6.536 27.355-9 41-1.919 10.623-6.069 21.918-7 32.5-2.002 22.745 1.769 45.836 11 66.5-3.602 1.202-8.23-7.455-10-10-11.909-31.971-13.911-67.45-3-100 3.35-9.994 9.31-23.576 18-30"/><path fill="#cadde5" d="M346 382c-21.218 14.779-40.578 34.538-48 60-5.485 3.338-14.806 10.002-20 14 10.602-32.221 27.952-61.248 47-89z"/><path fill="#19a4c7" d="M200 466c1.698 7.281 4.086 13.992 6.5 21-25.07-31.441-28.629-74.689-20.5-113 3.503-.317 1.951.791 2 2.5.898 31.54-.831 51.366 8 83 .54 1.934 1.301 6.563 4 6.5"/><path fill="#5ac5df" d="M215 397c-10.911 32.55-8.909 68.029 3 100-23.551-33.87-26.091-87.21-4-122 3.378 7.09-10.995 20.557 1 22"/><path fill="#c1d3dd" d="M381 387v10c-6.152-2.091-31.195-14.836-33-15 1.687-4.016 9.072-2.518 8-7 7.43 3.651 17.497 9.333 25 12"/><path fill="#169fc5" d="M231 490c.125 1.82 3.28 14.535-1 9.5-26.588-31.277-2.133-93.738 20-121.5-14.574 36.014-21.689 72.976-19 112"/><path fill="#f6fafb" d="M348 382c1.805.164 26.848 12.909 33 15 .299.102.7-.099 1 0l-3 22c-28.64-.79-56.741 8.237-81 23 7.422-25.462 26.782-45.221 48-60 .658.028 1.348-.059 2 0"/><path fill="#9ab2bf" d="M463 393c6.86 4.789 15.877 2.81 23.5 6-24.659-.719-52.814 8.317-77 6-8.41-.806-19.384-5.33-27.5-8-.3-.099-.701.102-1 0v-10c26.193 9.312 54.706 11.911 82 6"/><path fill="#468091" d="M379 419c69.958 1.929 130.532 55.204 131 127 .144 22.045-4.941 40.236-14 60l-3 1c5.099-9.031 11.03-22.407 13-32.5.245-1.256 2.177-7.816-2-6.5 4.125-22.751 2.724-45.346-6-67-13.92-34.55-45.691-60.623-81-71-77.479-22.771-142.232 25.767-188 84-12.356 15.721-22.851 33.276-33 50.5 41.661 10.464 69.962 43.816 102 69.5 34.262 27.468 62.243 36.563 107 30-3.781 2.377-13.148 3.704-17.5 4-3.777.257-23.6-2.146-18 2 8.272-3.261 19.104.617 27 0 1.559-.122 17.82-4.355 23-6 2.284-.725 10.464-7.407 12.5-3-36.574 17.32-77.982 16.373-114-3-11.536-6.205-21.363-16.677-33-23-.209-4.471-7.375-10.181-10.5-13-9.599-8.66-20.245-16.17-30.5-24-5.696-4.349-11.046-8.909-17-13-2.482-1.705-4.461-4.411-8-4-2.589-6.478-23.071-11.857-30.5-12l-.5-2.5c12.498-18.328 23.548-37.839 37-55.5.977-1.283 2.027-2.761 3-4 2.235-2.846 5.525-6.07 8-9 1.125-1.332 1.853-2.686 3-4 4.187-4.795 9.73-11.749 14-16 6.515-6.487 17.698-16.38 25-22 5.194-3.998 14.515-10.662 20-14 24.259-14.763 52.36-23.79 81-23"/><path fill="#10435c" d="M729 445c4.213 2.616 12.073 7.991 16 11 10.147 7.775 19.174 17.78 28 27 .004.125-2.86-.358-2 1.5 3.133 6.772 26.536 24.868 30.5 34.5.703-2.02 3.95-2.57 4.5-3l28 52.5c-5.027 2.09-28.172 10.058-30 14-1.378 2.971-1.9 21.638-3 27-22.793 111.105-96.554 231.596-203 279.5-59.143 26.616-110.824 25.963-170 0-6.551-2.874-12.731-6.595-19-10l5-9c8.839 4.501 18.629 8.704 28 12 27.379 9.629 57.86 15.231 87 13 133.765-10.241 247.746-172.468 265-296 .307-2.201 1.49-7.308 0-9 4.704-3.565 8.642-9.82 13.5-13 6.348-4.155 29.232-6.714 21-16-1.181.515.488 2.699-1.5 4-.778-3.127-2.444-6.217-4-9-27.472-49.121-85.806-113.661-142-128-23.387-5.968-51.719-5.608-75 1l-1-3c44.621-13.014 85.207-5.086 124 19"/><path fill="#f8fdfd" d="M417 430c-.884 4.817-12.94.573-6.5 6-14.132-2.496-39.358-7.345-53-3-5.302 1.689-13.01 10.986-2.5 9.5-10.105 12.755-14.428-5.143-15.5-5.5-6.636-2.208-37.257 17.279-44 22-15.037 10.528-30.338 25.039-44.5 37-7.183 6.067-14.745 11.994-22 18 45.768-58.233 110.521-106.771 188-84"/><path fill="#d6f6fb" d="M681 428c3.831 3.612.218 6.727.5 7 .791.767 17.844 4.314 19.5 9.5-2.927 5.221-7.159 1.925-11 5-.615 4.345 22.95 13.676 25 15.5 4.766 4.241 3.916 7.674 3 13-.487 2.829-2.972 5.297-3 6-13.464 2.687-21.648-20.375-30.5-26-4.047-2.572-21.934-7.353-27-8-73.046-9.332-135.831 49.868-121.5 124-4.555-17.09-6.019-22.661-4-41 1.954-17.75 8.881-32.948 16-49 19.865-28.045 51.642-46.357 86.5-49 14.18-1.075 28.441 1.725 42.5.5-42.86-17.331-98.157 1.341-127 36-8.206 9.861-17.992 25.167-19 38l4-3.5c-2.252 6.057-4.854 18.349-6 25-1.883 10.925-.483 15.031-1 24.5-.018.338-2.966 1.001-3 2-.281 8.338.226 21.461 2 29.5-29.291-65.516 12.52-139.131 79-158 23.281-6.608 51.613-6.968 75-1"/><path fill="#396a7a" d="M606 429c-66.48 18.869-108.291 92.484-79 158 4.588 20.79 38.397 54.968 57 65l-2 6c-7.563-4.233-14.345-8.448-21-14-9.635-8.039-17.675-17.699-26-27-10.857-20.378-16.373-33.051-21-56-4.901-57.401 24.942-107.961 78-130 4.19-1.74 8.654-3.732 13-5z"/><path fill="#bceff6" d="m823 556-3 2c-9.776-22.31-20.081-32.962-36-50-5.865-6.277-11.705-12.151-18-18-4.4-4.088-30.573-29.329-33.5-30-1.491-.342-15.395 3.124-17.5 5-2.05-1.824-25.615-11.155-25-15.5 3.841-3.075 8.073.221 11-5-1.656-5.186-18.709-8.733-19.5-9.5-.282-.273 3.331-3.388-.5-7 56.194 14.339 114.528 78.879 142 128"/><path fill="#f9fdfd" d="M548 484c-5.184 7.319-9.803 13.404-13 22l-4 3.5c1.008-12.833 10.794-28.139 19-38 28.843-34.659 84.14-53.331 127-36-14.059 1.225-28.32-1.575-42.5-.5-34.858 2.643-66.635 20.955-86.5 49"/><path fill="#dcf7fb" d="M498 501c-5.746-2.952-4.373 6.124-4 10-10.282-23.522-28.429-46.564-50.5-60-3.175-1.933-25.437-13.839-26.5-9.5l18 10-10.5.5 3 5c-33.164-12.497-75.568-10.245-103.5 13-8.25 1.722-17.691 7.999-22 15-13.193 10.5-18.075 26.04-25 40.5-1.387 2.897-6.788 7.033-7 7.5-13.591-6.431-14.057-24.355-19-37 14.162-11.961 29.463-26.472 44.5-37 6.743-4.721 37.364-24.208 44-22 1.072.357 5.395 18.255 15.5 5.5-10.51 1.486-2.802-7.811 2.5-9.5 13.642-4.345 38.868.504 53 3-6.44-5.427 5.616-1.183 6.5-6 35.309 10.377 67.08 36.45 81 71"/><path fill="#a1e4f2" d="M494 511c1.181 12.265 5.77 19.012 6 33 .077 4.65-.242 13.597-1 18l-7-28.5c-6.938-17.353-14.22-34.999-27-49-1.114-1.22-11.365-12.839-13-10 40.344 37.937 48.178 90.943 21 139.5-12.137 15.52-17.568 23.854-36 33-54.128 26.858-116.799 4.136-143-49.5-1.353-2.769-4.703-16.151-5.5-16.5-.928-.406-12.747 8.137-19 3l-.5 2.5 29 47.5c-32.038-25.684-60.339-59.036-102-69.5 10.149-17.224 20.644-34.779 33-50.5 7.255-6.006 14.817-11.933 22-18 4.943 12.645 5.409 30.569 19 37-.277.611-3.916 11.849-4 12.5-2.011 15.594 11.616 22.971 21.5 32.5-2.66-20.404-3.758-47.831 10.5-64 .31 1.487.544 4.821 1 6-32.074 78.253 47.915 156.594 125.5 123 57.134-24.739 76.286-99.405 35.5-147.5-26.28-30.989-75.57-42.405-112-23.5-8.46-3.32-14.954-3.888-24-2 27.932-23.245 70.336-25.497 103.5-13l-3-5 10.5-.5-18-10c1.063-4.339 23.325 7.567 26.5 9.5 22.071 13.436 40.218 36.478 50.5 60"/><path fill="#9be4f2" d="M715 484c-.067 1.711 16.422 22.871 19 28.5 5.948 12.99 5.44 23.769 9 35.5-5.695 1.415-2.37 15.371-3 20.5-1.62 13.19-6.428 25.074-13 36.5l-6 1c51.598-84.168-43.032-177.294-128.5-132-64.03 33.933-63.02 126.497-1.5 163 34.146 26.948 88.979 18.33 120-11 1.647 5.326-10.422 12.509-14.5 15-64.344 39.311-141.585 3.964-160.5-67-14.331-74.132 48.454-133.332 121.5-124 5.066.647 22.953 5.428 27 8 8.852 5.625 17.036 28.687 30.5 26"/><path fill="#a0d9e9" d="M766 490c5.851 9.187-2.416 8.853-6 14.5-1.441 2.271-2.095 11.307-4.5 11.5L718 478c.916-5.326 1.766-8.759-3-13 2.105-1.876 16.009-5.342 17.5-5 2.927.671 29.1 25.912 33.5 30"/><path fill="url(#d)" d="M299 520c8.467 21.893 36.775 28.894 55.5 16 22.662-15.605 19.478-53.806-6.5-64 36.43-18.905 85.72-7.489 112 23.5 40.786 48.095 21.634 122.761-35.5 147.5-77.585 33.594-157.574-44.747-125.5-123m123.5 64c-11.869.359-15.86 18.379-5 23 19.162 8.153 24.1-23.578 5-23m26 35c-23.661 20.972-54.209 29.061-85.5 23.5 27.812 9.746 66.617-1.639 85.5-23.5" style="fill:url(#d)"/>/&gt;<path fill="url(#e)" d="M721 606c-27.263 44.473-85.296 57.525-130 31-61.52-36.503-62.53-129.067 1.5-163 85.468-45.294 180.098 47.832 128.5 132M585.5 497c-19.884 2.756-21.597 37.189-2 41 32.506 6.322 32.666-45.251 2-41M710 611c-21.64 25.615-62.423 38.238-95 31.5 36.584 10.342 72.655-.407 96-30.5 7.642-9.851 14.761-20.851 17-33.5-6.123 10.426-10.089 23.136-18 32.5m-33.5-26c-9.703.504-13.331 15.129-4 19 15.958 6.62 19.612-19.812 4-19" style="fill:url(#e)"/>/&gt;<path fill="#eae9e9" d="M348 472c25.978 10.194 29.162 48.395 6.5 64-18.725 12.894-47.033 5.893-55.5-16-.456-1.179-.69-4.513-1-6-2.205-10.585-1.974-19.294 4-29 4.309-7.001 13.75-13.278 22-15 9.046-1.888 15.54-1.32 24 2"/><path fill="#86c3d5" d="M499 562c-1.602 9.308-16.28 44.12-22 51.5-.85 1.096-3.737.163-4 .5 27.178-48.557 19.344-101.563-21-139.5 1.635-2.839 11.886 8.78 13 10 12.78 14.001 20.062 31.647 27 49z"/><path fill="#80bed2" d="M766 490c6.295 5.849 12.135 11.723 18 18-3.874 1.595-1.138 6.989-2 9.5-.413 1.202-10.176 5.982-13 10-3.409 4.852-9.937 30.893-11.5 31.5-5.628-1.817-12.833-5.508-14.5-11-3.56-11.731-3.052-22.51-9-35.5-2.578-5.629-19.067-26.789-19-28.5.028-.703 2.513-3.171 3-6l37.5 38c2.405-.193 3.059-9.229 4.5-11.5 3.584-5.647 11.851-5.313 6-14.5"/><path fill="#84c0d2" d="m532 533-3-2c1.146-6.651 3.748-18.943 6-25 3.197-8.596 7.816-14.681 13-22-7.119 16.052-14.046 31.25-16 49"/><path fill="#bbeaf5" d="M298 514c-14.258 16.169-13.16 43.596-10.5 64-9.884-9.529-23.511-16.906-21.5-32.5.084-.651 3.723-11.889 4-12.5.212-.467 5.613-4.603 7-7.5 6.925-14.46 11.807-30 25-40.5-5.974 9.706-6.205 18.415-4 29"/><path fill="#edebeb" d="M585.5 497c30.666-4.251 30.506 47.322-2 41-19.597-3.811-17.884-38.244 2-41"/><path fill="#d2f5fb" d="M498 501c8.724 21.654 10.125 44.249 6 67-.61 3.366-1.138 4.903-2 8-3.99-5.832 1.583-11.857 2-16.5.292-3.247 1.967-17.294-4-15.5-.23-13.988-4.819-20.735-6-33-.373-3.876-1.746-12.952 4-10"/><path fill="#7093a0" d="M820 558c.651 1.486 2.197 2.965 3 4.5l-1.5 1.5c-35.815 10.182-68.453 38.332-95 64-4.432 4.286-9.945 8.825-11.5 15-11.616 7.776-19.408 13.173-33 18-9.437 3.352-14.848 4.958-25 6-23.265 2.387-51.634-3.479-73-15-18.603-10.032-52.412-44.21-57-65-1.774-8.039-2.281-21.162-2-29.5.034-.999 2.982-1.662 3-2 .517-9.469-.883-13.575 1-24.5l3 2c-2.019 18.339-.555 23.91 4 41 18.915 70.964 96.156 106.311 160.5 67 4.078-2.491 16.147-9.674 14.5-15 7.138-6.749 11.166-12.595 16-21 6.572-11.426 11.38-23.31 13-36.5.63-5.129-2.695-19.085 3-20.5 1.667 5.492 8.872 9.183 14.5 11 1.563-.607 8.091-26.648 11.5-31.5 2.824-4.018 12.587-8.798 13-10 .862-2.511-1.874-7.905 2-9.5 15.919 17.038 26.224 27.69 36 50"/><path fill="#74a5b7" d="M502 576c-8.921 32.053-34.283 61.432-64 76l-1-5c18.432-9.146 23.863-17.48 36-33 .263-.337 3.15.596 4-.5 5.72-7.38 20.398-42.192 22-51.5.758-4.403 1.077-13.35 1-18 5.967-1.794 4.292 12.253 4 15.5-.417 4.643-5.99 10.668-2 16.5"/><path fill="#bcd2db" d="M514 561c4.627 22.949 10.143 35.622 21 56 6.503 12.206 7.976 18.624 19 29-2.683 1.911 2.088 3.201 2 5.5-.117 3.053-34.199 41.84-39 47-10.745 11.548-31.143 26.914-39.5 37.5-1.499 1.899-1.898 2.3-1.5 5-7.454 3.95-26.998 21.245-32 28-.548.354-1.429.665-2 1-1.188.698-.937.967-1 1-2.406.509-4.968 1.638-7 3-1.015.362-1.618.427-3 1-8.07 3.346-1.52 6.813 3 12-1.187 2.352-3.905 3.679-6 5-20.726 13.066-42.518 24.541-63 38-1.945-1.663-4.104-3.29-6-5-53.895-48.606-91.697-115.662-109-186 11.704 2.629 21.745 9.154 32 15 .123.07 1.877 1.93 2 2 11.103 41.699 27.391 83.998 58.5 115L323 677c64.865 25.4 144.243-8.262 173-71 9.059-19.764 14.144-37.955 14-60 4.149 2.38 1.245 10.606 2 14.5.165.85 1.98.399 2 .5"/><path fill="#7cbecf" d="M827 565c-6.016 3.937-22.185 8.245-30.5 13-30.107 17.218-52.746 45.75-81.5 65 1.555-6.175 7.068-10.714 11.5-15 26.547-25.668 59.185-53.818 95-64l1.5-1.5c-.803-1.535-2.349-3.014-3-4.5l3-2c1.556 2.783 3.222 5.873 4 9"/><path fill="#0a1b26" d="M794 590c-4.781 3.624-9.309 7.393-14 11-9.819 7.55-19.038 15.662-29 23-15.912 11.721-37.677 29.443-56.5 36-.592.206-12.219 3.4-12.5 1 13.592-4.827 21.384-10.224 33-18 28.754-19.25 51.393-47.782 81.5-65 8.315-4.755 24.484-9.063 30.5-13 1.988-1.301.319-3.485 1.5-4 8.232 9.286-14.652 11.845-21 16-4.858 3.18-8.796 9.435-13.5 13"/><path fill="#3e7284" d="M493 607c-13.762 24.372-36.049 42.184-61 54-2.036-4.407-10.216 2.275-12.5 3-5.18 1.645-21.441 5.878-23 6-7.896.617-18.728-3.261-27 0-5.6-4.146 14.223-1.743 18-2 4.352-.296 13.719-1.623 17.5-4 8.139-1.193 25.247-8.2 33-12 29.717-14.568 55.079-43.947 64-76 .862-3.097 1.39-4.634 2-8 4.177-1.316 2.245 5.244 2 6.5-1.97 10.093-7.901 23.469-13 32.5"/><path fill="#109cc8" d="m711 612-1-1c7.911-9.364 11.877-22.074 18-32.5-2.239 12.649-9.358 23.649-17 33.5"/><path fill="#135673" d="M227 585c.206 8.843 2.381 17.391 4 26 1.427 7.591 3.112 14.543 5 22 17.42 68.795 54.728 132.272 105 182 21.523 21.291 45.831 41.166 73 55l-5 9c-92.918-50.477-160.711-155.62-184-257.5-2.336-10.217-2.98-32.945-6-40.5 3.539-.411 5.518 2.295 8 4"/><path fill="#86c6d9" d="m437 647 1 5c-7.753 3.8-24.861 10.807-33 12-44.757 6.563-72.738-2.532-107-30l-29-47.5.5-2.5c6.253 5.137 18.072-3.406 19-3 .797.349 4.147 13.731 5.5 16.5 26.201 53.636 88.872 76.358 143 49.5"/><path fill="#edeced" d="M422.5 584c19.1-.578 14.162 31.153-5 23-10.86-4.621-6.869-22.641 5-23"/><path fill="#81aec0" d="m244 598 1 18c-3.718-1.785-9.999-3.065-14-5-1.619-8.609-3.794-17.157-4-26 5.954 4.091 11.304 8.651 17 13"/><path fill="#f0eeee" d="M676.5 585c15.612-.812 11.958 25.62-4 19-9.331-3.871-5.703-18.496 4-19"/><path fill="#407a92" d="M794 599c-4.188 2.421-.409 8.518-5.5 12-.999.684-7.757 2.02-9.5 2 .588-3.692.341-8.208 1-12 4.691-3.607 9.219-7.376 14-11 1.49 1.692.307 6.799 0 9"/><path fill="#7a96a3" d="M285 635c-1.214-.66-4.754-1.343-6-2-10.027-5.287-21.582-9.915-32-15-1.656-.808-1.873-1.939-2-2l-1-18c10.255 7.83 20.901 15.34 30.5 24 3.125 2.819 10.291 8.529 10.5 13"/><path fill="#68a6bf" d="M794 599c-17.254 123.532-131.235 285.759-265 296l-7-4c127.332-6.112 238.488-161.717 257-278 1.743.02 8.501-1.316 9.5-2 5.091-3.482 1.312-9.579 5.5-12"/><path fill="url(#f)" d="M780 601c-.659 3.792-.412 8.308-1 12-18.512 116.283-129.668 271.888-257 278-21.223 1.019-43.294-1.798-63.5-8-1.459-.448-6.68-1.914-6.5-4 11.934.228 70.07-8.066 78.5-14 1.691-1.19 7.8-11.715 10.5-14.5 11.006-11.352 38.028-34.278 45-46 1.859-3.126 8.217-13.357 0-12.5-.976.102-2.015-.061-3 0 1.515-1.58 15.72-16.6 15-17.5-15.744-.498-22.694-6.558-34-15.5-.539-1.963 2.123-2.825 3.5-3 14.498-1.844 36.556 2.014 50 8 15.551-23.485 27.396-48.974 35.5-76 1.296-4.321 2.609-8.707 4-13 .552-.049 3.414-.782 5-1 32.003-4.393 67.688-26.185 89-50 9.962-7.338 19.181-15.45 29-23" style="fill:url(#f)"/>/&gt;<path fill="#ccf1f9" d="M727 605c-4.834 8.405-8.862 14.251-16 21-31.021 29.33-85.854 37.948-120 11 44.704 26.525 102.737 13.473 130-31z"/><path fill="#90a6b0" d="M496 606c-28.757 62.738-108.135 96.4-173 71-.749-.293-1.257-.694-2-1l-3-18c36.018 19.373 77.426 20.32 114 3 24.951-11.816 47.238-29.628 61-54z"/><path fill="#b6dde8" d="M245 616c.127.061.344 1.192 2 2l2 20c-1.511-1.501-10.405-3.682-13-5-1.888-7.457-3.573-14.409-5-22 4.001 1.935 10.282 3.215 14 5"/><path fill="#dbf6fc" d="M711 612c-23.345 30.093-59.416 40.842-96 30.5 32.577 6.738 73.36-5.885 95-31.5z"/><path fill="#79929d" d="m561 644-3 4c-.169-.146-2.785-.856-4-2-11.024-10.376-12.497-16.794-19-29 8.325 9.301 16.365 18.961 26 27"/><path fill="#a1b9c4" d="M279 633c-4.367 5.218 4.218 14.748 3 21-10.255-5.846-20.296-12.371-32-15 .185-1.133-.944-.945-1-1l-2-20c10.418 5.085 21.973 9.713 32 15"/><path fill="#6de8f6" d="M448.5 619c-18.883 21.861-57.688 33.246-85.5 23.5 31.291 5.561 61.839-2.528 85.5-23.5"/><path fill="#183646" d="M662 674c-5.36-1.837-5.484-.464-5-7 10.152-1.042 15.563-2.648 25-6 .281 2.4 11.908-.794 12.5-1 18.823-6.557 40.588-24.279 56.5-36-21.312 23.815-56.997 45.607-89 50"/><path fill="#e9f7fb" d="M249 638c.056.055 1.185-.133 1 1 17.303 70.338 55.105 137.394 109 186-6.217 4.421-11.694-12.935-18-10-50.272-49.728-87.58-113.205-105-182 2.595 1.318 11.489 3.499 13 5"/><path fill="#aec3cd" d="M279 633c1.246.657 4.786 1.34 6 2 11.637 6.323 21.464 16.795 33 23l3 18c-13.055-5.38-24.804-13.076-37-20-.123-.07-1.877-1.93-2-2 1.218-6.252-7.367-15.782-3-21"/><path fill="#667e8a" d="M582 658c23.72 13.275 47.342 19.433 75 17-1.391 4.293-2.704 8.679-4 13-35.09-2.61-68.513-17.189-95-40l3-4c6.655 5.552 13.437 9.767 21 14"/><path fill="#8aa7b4" d="M558 648c26.487 22.811 59.91 37.39 95 40-8.104 27.026-19.949 52.515-35.5 76-13.444-5.986-35.502-9.844-50-8-1.377.175-4.039 1.037-3.5 3-8.472-6.701-21.149-22.191-31.5-24-7.569-1.323-14.622 2.051-20 2-17.162-.164-18.81-5.375-36.5 4-.398-2.7.001-3.101 1.5-5 8.357-10.586 28.755-25.952 39.5-37.5 4.801-5.16 38.883-43.947 39-47 .088-2.299-4.683-3.589-2-5.5 1.215 1.144 3.831 1.854 4 2"/><path fill="#274958" d="M657 667c-.484 6.536-.36 5.163 5 7-1.586.218-4.448.951-5 1-27.658 2.433-51.28-3.725-75-17l2-6c21.366 11.521 49.735 17.387 73 15"/><path fill="#edf4f7" d="M321 676c.743.306 1.251.707 2 1l19.5 94c-31.109-31.002-47.397-73.301-58.5-115 12.196 6.924 23.945 14.62 37 20"/><path fill="#65474b" d="M564 759c11.306 8.942 18.256 15.002 34 15.5.72.9-13.485 15.92-15 17.5-25.477 26.566-58.816 47.102-97 35-14.815-4.695-41.617-28.085-52-40-4.52-5.187-11.07-8.654-3-12l.5 2c3.131-.56 5.59.331 8.5 1 6.316 1.452 12.621 2.805 19 4 43.071 8.066 86.752 8.938 128.5-6-5.052-3.875-12.885-4.865-18.5-8-25.596-14.289-18.698-28.088-54-29-14.859-.384-28.783-1.782-41.5 6-10.208 6.246-19.476 17.537-29.5 24 5.002-6.755 24.546-24.05 32-28 17.69-9.375 19.338-4.164 36.5-4 5.378.051 12.431-3.323 20-2 10.351 1.809 23.028 17.299 31.5 24m4 26c-29.31 8.171-59.904 8.427-90 5-1.178-.392-2.804-.634-4-1-13.877-4.241-30.734-4.933-44.5-11 4.907 5.13 10.945 9.573 16.5 14 2.244 1.788 3.875 4.874 7 7 5.765 5.985 11.922 10.637 19 15 47.948 29.553 91.513-3.418 123.5-39-9.492 2.585-18.004 7.353-27.5 10"/><path fill="#b7b0b5" d="M569 768c-18.886 16.816-56.049 16.449-80.5 15-9.685-.574-20.875-7.437-29.5-1-6.379-1.195-12.684-2.548-19-4 .514-5.156 6.425-3.61 10.5-6 3.175-1.862 8.434-8.102 11-9 .549-.192 6.651 1.107 9.5 0 8.236 15.059 12.579.415 13.5 0 2.982-1.343 3.975 4.183 6 5 10.911 4.402 17.311-.562 13.5-12 12.612-1.784 10.117 6.501 15.5 7 12.526 1.162.689-20.415-4.5-24 35.302.912 28.404 14.711 54 29"/><path fill="#f5f0f2" d="M515 739c5.189 3.585 17.026 25.162 4.5 24-5.383-.499-2.888-8.784-15.5-7-.635.09-2.093-1.779-3.5-1-2.536 1.404-.865 7.451-6 6-2.207-.624-2.611-7.572-15-5-4.272.887-7.987 6.801-8.5 7-2.849 1.107-8.951-.192-9.5 0-2.566.898-7.825 7.138-11 9-4.075 2.39-9.986.844-10.5 6-2.91-.669-5.369-1.56-8.5-1l-.5-2c3.754 2.628 2.803-.868 3-1 .753-.268 1.295 1.492 2.5 1 2.835-1.158 4.233-3.861 4.5-4 .063-.033-.188-.302 1-1 1.862 3.13 1.772-.692 2-1 10.024-6.463 19.292-17.754 29.5-24 12.717-7.782 26.641-6.384 41.5-6"/><path fill="#e7dde0" d="M504 756c3.811 11.438-2.589 16.402-13.5 12-2.025-.817-3.018-6.343-6-5-.921.415-5.264 15.059-13.5 0 .513-.199 4.228-6.113 8.5-7 12.389-2.572 12.793 4.376 15 5 5.135 1.451 3.464-4.596 6-6 1.407-.779 2.865 1.09 3.5 1"/><path fill="#938b91" d="M459 782c8.625-6.437 19.815.426 29.5 1 24.451 1.449 61.614 1.816 80.5-15 5.615 3.135 13.448 4.125 18.5 8-41.748 14.938-85.429 14.066-128.5 6"/><path fill="#65474b" d="M442 770c.571-.335 1.452-.646 2-1-.228.308-.138 4.13-2 1"/><path fill="#877e82" d="M441 771c-.267.139-1.665 2.842-4.5 4-1.205.492-1.747-1.268-2.5-1 2.032-1.362 4.594-2.491 7-3"/><path fill="#8e868a" d="M434 774c-.197.132.754 3.628-3 1 1.382-.573 1.985-.638 3-1"/><path fill="#8f868d" d="M472 814c-5.623-7.066 13.112 2.73 14.5 3 32.118 6.256 59.413-4.131 80.5-28.5 1.269-1.467 2.564-1.372 1-3.5 9.496-2.647 18.008-7.415 27.5-10-31.987 35.582-75.552 68.553-123.5 39"/><path fill="#f5f2f3" d="M474 789c-7.247 8.966-5.4 3.22-11.5 3-2.261-.082-1.23 2.048-2 2-5.803-.36-8.363-3.884-14.5-2-5.555-4.427-11.593-8.87-16.5-14 13.766 6.067 30.623 6.759 44.5 11"/><path fill="#b8afb4" d="M472 814c-7.078-4.363-13.235-9.015-19-15 6.303 4.288 15.695 9.401 23 9 6.215 5.112 30.516 2.439 21-9-.672-.808-17.042-8.348-19-9 30.096 3.427 60.69 3.171 90-5 1.564 2.128.269 2.033-1 3.5-21.087 24.369-48.382 34.756-80.5 28.5-1.388-.27-20.123-10.066-14.5-3"/><path fill="#90aab5" d="m486 827-1 3c-19.299-5.21-44.138-23.026-57-38 2.095-1.321 4.813-2.648 6-5 10.383 11.915 37.185 35.305 52 40"/><path fill="#ebe3e6" d="M478 790c1.958.652 18.328 8.192 19 9-5.605 3.731-14.221 8.628-21 9-7.305.401-16.697-4.712-23-9-3.125-2.126-4.756-5.212-7-7 6.137-1.884 8.697 1.64 14.5 2 .77.048-.261-2.082 2-2 6.1.22 4.253 5.966 11.5-3 1.196.366 2.822.608 4 1"/><path fill="#98b3be" d="M452 879c-4.674-.089-3.057-.158-7-1-24.063-5.137-61.071-31.815-80-48 20.482-13.459 42.274-24.934 63-38 12.862 14.974 37.701 32.79 57 38 34.945 9.434 83.533-4.655 101-38 8.217-.857 1.859 9.374 0 12.5-6.972 11.722-33.994 34.648-45 46-2.7 2.785-8.809 13.31-10.5 14.5-8.43 5.934-66.566 14.228-78.5 14"/><path fill="#7d97a3" d="M586 792c-17.467 33.345-66.055 47.434-101 38l1-3c38.184 12.102 71.523-8.434 97-35 .985-.061 2.024.102 3 0"/><path fill="#d6ccd1" d="M476 808c6.779-.372 15.395-5.269 21-9 9.516 11.439-14.785 14.112-21 9"/><path fill="#ccedf5" d="M359 825c1.896 1.71 4.055 3.337 6 5 18.929 16.185 55.937 42.863 80 48l-3 4c-9.371-3.296-19.161-7.499-28-12-27.169-13.834-51.477-33.709-73-55 6.306-2.935 11.783 14.421 18 10"/><path fill="#9ecedc" d="M452 879c-.18 2.086 5.041 3.552 6.5 4 20.206 6.202 42.277 9.019 63.5 8l7 4c-29.14 2.231-59.621-3.371-87-13l3-4c3.943.842 2.326.911 7 1"/></svg>