<svg xmlns="http://www.w3.org/2000/svg" width="1024" height="1024"><defs><linearGradient id="a" x1="315.664" x2="706.809" y1="333.659" y2="717.468" gradientUnits="userSpaceOnUse"><stop offset="0%" style="stop-color:#e2edf5"/><stop offset="69.708%" style="stop-color:#afcbd1"/><stop offset="100%" style="stop-color:#82a4a9"/></linearGradient></defs><defs><linearGradient id="b" x1="626.55" x2="785.354" y1="425.816" y2="754.459" gradientUnits="userSpaceOnUse"><stop offset="0%" style="stop-color:#6d909a"/><stop offset="100%" style="stop-color:#4b727e"/></linearGradient></defs><defs><linearGradient id="c" x1="427.282" x2="580.819" y1="486.412" y2="523.698" gradientUnits="userSpaceOnUse"><stop offset="0%" style="stop-color:#5fcce8"/><stop offset="100%" style="stop-color:#096ea6"/></linearGradient></defs><defs><linearGradient id="d" x1="238.447" x2="231.569" y1="447.298" y2="678.196" gradientUnits="userSpaceOnUse"><stop offset="0%" style="stop-color:#a6c8d0"/><stop offset="35.065%" style="stop-color:#cce3eb"/><stop offset="100%" style="stop-color:#5a8592"/></linearGradient></defs><defs><linearGradient id="e" x1="784.302" x2="791.707" y1="447.195" y2="679.076" gradientUnits="userSpaceOnUse"><stop offset="18.965%" style="stop-color:#cae3ec"/><stop offset="100%" style="stop-color:#5a8592"/></linearGradient></defs><defs><linearGradient id="f" x1="814.194" x2="812.957" y1="562.685" y2="631.674" gradientUnits="userSpaceOnUse"><stop offset="0%" style="stop-color:#04b8e1"/><stop offset="100%" style="stop-color:#008fc3"/></linearGradient></defs><defs><linearGradient id="g" x1="209.592" x2="206.279" y1="563.231" y2="629.148" gradientUnits="userSpaceOnUse"><stop offset="0%" style="stop-color:#04b8e1"/><stop offset="100%" style="stop-color:#0089bf"/></linearGradient></defs><path fill="#154c65" d="M308.5 143c60.669-6.844 90.32 67.022 44 103-11.321 8.794-23.95 6.185-25 25 101.991-92.221 264.766-91.3 367 0-20.949-28.004-53.781-35.662-47.5-78.5 13.163-89.773 156.039-42.412 106 41-2.527 4.213-14.732 15.899-15 17-.38 1.563 1.58 15.973 2 19 2.183 15.749 9.849 55.974 15 70 4.992 13.593 17.138 30.202 23 46 4.5 12.126 7.99 25.165 10 38 22.767 2.323 28.05-6.633 38 17 20.714 49.198 26.878 205.935-5 249-7.983 10.784-30.677 4.111-36.5 8.5-.76.573-5.869 14.586-7.5 17.5-119.099 212.737-402.216 224.273-526 11-2.509-4.323-11.625-26.618-13-28-3.545-3.563-27.433-.039-33.5-2.5-12.954-5.254-25.729-94.932-26.5-110.5-1.473-29.754 3.89-136.067 24-157 6.983-7.268 28.076-2.009 31-6 1.104-1.507 7.835-30.342 10-36 13.675-35.745 26.267-54.878 34-95 1.025-5.321 7.526-40.886 7-43-.273-1.098-13.34-11.938-16-16-22.249-33.969-.536-84.871 40.5-89.5M272 223c14.643 31.082 54.261 34.026 79.5 14 25.932-20.576 18.072-68.973-11.5-82-45.775-20.165-88.776 23.901-68 68m415-69c-23.573 8.247-36.123 32.892-33 57 .761 5.877 1.859 5.57 4 10 2.952 6.109 8.207 12.265 13 17 52.188 51.566 121.03-38.082 62-78-3-2.029-3.488-2.504-7-4-13.494-5.749-25.018-6.892-39-2M335 280c-32.256 26.693-63.704 66.343-79 105.5-1.631 4.176-12.422 36.052-12 38 .252 1.163 3.769 2.064 4 2.5 1.166 2.203 1.63 6.249 4 8 .238 4.703 3.43 10.232 4 14.5 6.26 46.879 7.57 90.204 6 137.5-.997 30.029-2.437 56.905-8 86.5-3.257 17.324-9.835 13.407 0 33 3.108 6.193 10.748 13.788 14 19.5.177.311.337 1.871 1 3 35.22 59.979 74.128 94.461 140 121 3.117 1.256 2.262 4.537 6 1 6.057 7.751 63.851 16.193 76 17 13.328.885 71.381-.08 80-7 10.689-1.061 24.149-3.964 34-8 3.299-1.352 4.073.272 7-4 58.303-17.917 112.256-67.844 144-119.5 2.402-3.909 18.847-33.015 19-35 .112-1.456-4.457-9.413-5-12-13.518-64.457-17.764-176.339-2-240 1.098-4.434 7.75-15.612 8-17 .63-3.5-4.609-20.981-6-25.5-7.991-25.964-23.037-52.727-41-73-42.112-59.614-110.715-99.59-183-109-80.05-10.42-149.58 12.173-211 63m-42 23c3.866-4.885 21.158-18.146 23-22.5 1.871-4.422 1.111-17.889 5-23-.35-.493-9.91-1.068-12-1.5-3.913-.809-19.435-5.93-21-3.5l-11 68c6.284-2.271 12.86-11.814 16-17.5m429-46c-2.53.478-16.396 2.271-17 3.5-.399.813 1.56 16.419 2 18 1.872 6.73 18.397 22.53 24 29.5 4.819 5.995 8.212 13.282 14 18.5l-11-72c-1.115-2.76-10.291 2.177-12 2.5m-24.5 2c-5.938.336 1.853 19.007 4 18-.264-2.92-.304-18.209-4-18M774 444c-12.457 45.541-14.041 188.939 2 232.5 7.921 21.51 14.147 8.547 33.5 11.5-20.227-58.364-25.856-131.968-18.5-193.5 2.721-22.765 10.761-38.168 16-58.5.446-1.732 3.08-3.369.5-5l-28-1c-2.496.693-4.777 11.356-5.5 14m-555 0c.664 3.137 1.247 5.085 2 8 19.546 75.627 16.442 163.471-9 237.5l28.5-.5c10.671-4.483 16.201-102.675 16.5-117.5.585-29.028.04-110.078-11-134.5-.674-1.491-.597-3.859-2.5-5h-30c-2.693 1.563 4.864 10.883 5.5 12m590 26c6.818-3.154 14.943 1.495 14 9-7.819-15.289-18.323-6.094-17 7-2.68 3.357-4.184 8.793-5 13-6.86 23.6-7.188 53.601-6 78.5.476 9.976 6.501 66.69 15.5 69.5 5.928 1.813 6.807-3.418 10.5-5-2.107 10.545-15.486 8.521-18.5 0l-2.5 2.5c11.744 36.105 17.391 26.195 26-2.5 2.363-7.875 4.618-17.875 6-26 7.551-44.387 6.756-115.591-12-157-1.677-3.703-2.242-8.335-6.5-10-6.068 1.688-14.502 31.335-12 32 .364-2.917 5.325-9.994 7.5-11m-619 32c-6.102 35.135-6.523 75.75-1 111 1.547 9.876 5.029 23.38 8 33 11.66 37.75 16.599 24.181 25-5.5-4.289 1.004-4.308 8.339-9.5 9.5-3.468.776-10.078-.25-10.5-5 4.503 1.285 5.366 6.212 11 .5 17.609-17.853 13.83-117.68 11-143.5-.762-6.957-.611-14.082-2-21-1.913-9.528-6.186-25.231-14.5-31-5.606.5-16.256 44.838-17.5 52"/><path fill="#d3eaf2" d="M340 155c33.042 48.624-17.913 104.955-68 68-20.776-44.099 22.225-88.165 68-68"/><path fill="#d9ebf3" d="M726 156c-1.424 4.21 2.615 9.238 3 13.5 3.81 42.172-31.434 73.251-71 51.5-2.141-4.43-3.239-4.123-4-10 5.666-.708 2.274-12.019 3-15.5 2.63-12.619 11.729-21.339 18-32l12-9.5c13.982-4.892 25.506-3.749 39 2m-33.5 4c-7.948.377-29.619 16.876-25 28 6.428-13.051 14.596-21.069 27.5-27.5-.303-.77-1.629-.541-2.5-.5"/><path fill="#f6fafb" d="M654 211c-3.123-24.108 9.427-48.753 33-57l-12 9.5c-6.271 10.661-15.37 19.381-18 32-.726 3.481 2.666 14.792-3 15.5"/><path fill="#88aab6" d="M272 223c50.087 36.955 101.042-19.376 68-68 29.572 13.027 37.432 61.424 11.5 82-25.239 20.026-64.857 17.082-79.5-14"/><path fill="#a2c0cb" d="M733 160c27.25 46.324-10.135 96.215-62 78-4.793-4.735-10.048-10.891-13-17 39.566 21.751 74.81-9.328 71-51.5-.385-4.262-4.424-9.29-3-13.5 3.512 1.496 4 1.971 7 4"/><path fill="#f7fbfc" d="M692.5 160c.871-.041 2.197-.27 2.5.5-12.904 6.431-21.072 14.449-27.5 27.5-4.619-11.124 17.052-27.623 25-28"/><path fill="#7699a5" d="M671 238c51.865 18.215 89.25-31.676 62-78 59.03 39.918-9.812 129.566-62 78"/><path fill="url(#a)" d="M546 217c-1.341 2.065-3.62 1.064.5 2 12.072 2.741 26.694 4.232 38.5 8 56.737 32.425 112.358 75.391 140 136.5 34.759 76.843 34.321 241.503 4 320-19.776 51.197-62.029 98.736-109 126.5 2.771-36.401-19.207-58.11-55.5-61-23.342-1.859-115.617-1.103-134 7-27.849 12.277-32.247 34.605-28.5 62-52.544-15.273-96.57-50.51-133-90-.663-1.129-.823-2.689-1-3 12.53-34.26 9.863-84.733 2-120.5-.926-4.212-4.385-15.715-8-18.5 1.57-47.296.26-90.621-6-137.5-.57-4.268-3.762-9.797-4-14.5-.56-11.092 13.475-40.749 19-51.5 30.741-59.817 85.817-115.62 148.5-141.5 11.558-4.772 24.03-7.459 35.5-12.5-49.332 7.171-92.708 35.737-130 67.5 2.728-3.577 5.66-12.06 10-16 61.42-50.827 130.95-73.42 211-63M300 438c-.006-.201-.831-2.914-.5-4-1.404.677-3.751-1.008-4.5-.5-3.142 2.133-10.232 29.4-11 34.5-23.477 155.881 113.214 285.065 268 260 31.579-5.114 54.937-13.952 82-31 51.533-32.462 90.127-90.217 101-150 8.749-48.105 5.647-84.663-15-129-21.843-46.905-57.583-90.107-108-107-19.794-10.044-45.022-18.07-67-22-52.7-9.423-107.383 2.919-152.5 31-43.991 27.381-75.713 69.182-92.5 118" style="fill:url(#a)"/>/&gt;<path fill="#f6fafb" d="M729 326c-3.716-4.194-9.885-8.885-14-13-31.568-31.567-87.273-72.362-130-86-11.806-3.768-26.428-5.259-38.5-8-4.12-.936-1.841.065-.5-2 72.285 9.41 140.888 49.386 183 109"/><path fill="url(#b)" d="M715 313c-2.683.71-.515 5.661 0 6.5 6.888 11.229 21.724 25.738 30 38 9.018 13.362 16.076 28.092 25 41.5 1.391 4.519 6.63 22 6 25.5-.25 1.388-6.902 12.566-8 17-15.764 63.661-11.518 175.543 2 240 .543 2.587 5.112 10.544 5 12-.153 1.985-16.598 31.091-19 35-31.744 51.656-85.697 101.583-144 119.5 4.123-6.017 7.389-29.978 8-38 46.971-27.764 89.224-75.303 109-126.5 30.321-78.497 30.759-243.157-4-320-27.642-61.109-83.263-104.075-140-136.5 42.727 13.638 98.432 54.433 130 86" style="fill:url(#b)"/>/&gt;<path fill="#fcfdfd" d="M252 434c-2.37-1.751-2.834-5.797-4-8 13.686-32.909 30.357-75.132 52-103.5 6.965-9.129 17.946-17.249 25-26.5 37.292-31.763 80.668-60.329 130-67.5-11.47 5.041-23.942 7.728-35.5 12.5-62.683 25.88-117.759 81.683-148.5 141.5-5.525 10.751-19.56 40.408-19 51.5"/><path fill="#aacbd5" d="M309 256c-4.549 14.79-8.547 33.505-16 47-3.14 5.686-9.716 15.229-16 17.5l11-68c1.565-2.43 17.087 2.691 21 3.5"/><path fill="#88aab5" d="m731 308-9-51c1.709-.323 10.885-5.26 12-2.5l11 72c-5.788-5.218-9.181-12.505-14-18.5"/><path fill="#7c9da8" d="M293 303c7.453-13.495 11.451-32.21 16-47 2.09.432 11.65 1.007 12 1.5-3.889 5.111-3.129 18.578-5 23-1.842 4.354-19.134 17.615-23 22.5"/><path fill="#c6e0e9" d="m722 257 9 51c-5.603-6.97-22.128-22.77-24-29.5-.44-1.581-2.399-17.187-2-18 .604-1.229 14.47-3.022 17-3.5"/><path fill="#eff6f7" d="M697.5 259c3.696-.209 3.736 15.08 4 18-2.147 1.007-9.938-17.664-4-18"/><path fill="#e1edf2" d="M325 296c-7.054 9.251-18.035 17.371-25 26.5-21.643 28.368-38.314 70.591-52 103.5-.231-.436-3.748-1.337-4-2.5-.422-1.948 10.369-33.824 12-38 15.296-39.157 46.744-78.807 79-105.5-4.34 3.94-7.272 12.423-10 16"/><path fill="#1c414e" d="m545 289-1 1c-196.314-27.722-331.541 200.087-192 351 32.023 34.632 68.233 57.476 115 67l-1 2c-16.819-3.455-29.075-9.251-44.5-15-.171-.064-1.831 2.065-2 2-21.205-8.12-52.162-32.726-68.5-49-46.212-46.03-64.63-112.277-57-176 1.031-8.614 6.183-27.688 6-34 16.787-48.818 48.509-90.619 92.5-118 45.117-28.081 99.8-40.423 152.5-31"/><path fill="#7accd9" d="M544 290c4.693.663 43.18 11.095 44.5 13 1.805 2.605-1.111 9.624-.5 13.5.882 5.594 5.562 10.603 4 16.5-10.368-4.866-26.604-10.927-36-13 7.3-9.079-13.037-11.071-19.5-12-53.845-7.738-112.088 11.042-153.5 45-84.581 69.356-94.811 191.419-21 273-2.946 5.232-10.084 8.803-10 15-139.541-150.913-4.314-378.722 192-351"/><path fill="#57a3b2" d="M612 311c21.229 10.772 43.565 27.772 60 45-3.697.187-1.794 1.453-.5 3 18.781 22.449 45.704 60.123 48.5 90 1.203 12.852-2.981 10.704-15 14-1.099-5.666-2.403-10.495-4-16-5.305-18.288-11.115-29.965-21-46-12.097-19.623-49.483-62.724-71.5-69-2.523-.719-12.635-1.48-10.5 4-1.875-.963-4.122-2.119-6-3 1.562-5.897-3.118-10.906-4-16.5-.611-3.876 2.305-10.895.5-13.5-1.32-1.905-39.807-12.337-44.5-13l1-1c21.978 3.93 47.206 11.956 67 22"/><path fill="#4f9cab" d="M556 320c-8.396-1.852-19.41-3.382-28-4-24.468-1.761-46.458.545-70 7-25.604 7.02-53.78 21.578-74 39-3.09-2.383-1.982-5.723-1-9 41.412-33.958 99.655-52.738 153.5-45 6.463.929 26.8 2.921 19.5 12"/><path fill="#86a8b1" d="m720 418-5 2c-9.095-21.258-27.108-47.342-43-64-16.435-17.228-38.771-34.228-60-45 50.417 16.893 86.157 60.095 108 107"/><path fill="#85a7b1" d="M729 326c17.963 20.273 33.009 47.036 41 73-8.924-13.408-15.982-28.138-25-41.5-8.276-12.262-23.112-26.771-30-38-.515-.839-2.683-5.79 0-6.5 4.115 4.115 10.284 8.806 14 13"/><path fill="#064662" d="m528 316-5.5 4c12.043 1.27 23.856 3.874 35.5 7-.697 3.645 1.223 4.87 3.5 7 10.271 9.608 30.706 17.889 43 27 20.819 15.429 40.508 37.659 53.5 60 20.188 34.716 31.409 81.929 20 121.5-6.577 22.812-15.877 21.249-27 35.5-.849 1.088-5.908 8.946-6 9.5-1.14 6.873 5.385 15.503 13 12.5 3.862 3.498-.813 8.355-3 11.5-13.982 20.111-42.63 40.919-64 52.5-4.977 2.697-10.044 3.804-15 6 5.732-11.853 51.215-57.635 50-68 30.645-1.144 3.884-41.421-5-16.5-3.716 10.425 1.547 9.699 4 15.5-11.62 9.243-19.048 22.762-29 33.5-12.97 13.993-27.733 26.444-42 39-2.789 2.454.54 2.225-7 6.5-16.445 9.323-67.924 1.997-87.5-3-1.552-.396-5.858-5.271-8.5-1-17.229-5.942-32.281-14.349-47-25 .096-7.72 12.424-8.079 16.5-11 2.438-1.747 7.513-11.247 9-12 12.411-6.28 31.154 2.979 35.5-20 13.899 12.936 28.699 25.691 46.5 33 34.673-27.049 69.633-58.331 97.5-92.5 27.82-34.111 56.372-83.75 32-127-21.365-37.913-58.119-40.503-94-20.5-18.565-18.103-25.958-31.433-53.5-36-9.042-1.499-25.556 3.137-30.5-7 12.132-5.735 25.217-10.669 38.5-13 1.008-.509-.806-1.967-1-2-2.257-.387-22.164 2.316-26 3-25.201 4.491-50.831 16.766-70.5 33-2.019-3.275-4.065-7.605-6.5-12 1.822 11.041 6.328 15.7-5.5 22-2.405-1.373-5.456-2.935-8-4-.843-.353-2.645-1.375-3.5-2-3.497 1.296 1.404 1.92 1.5 2 2.598 2.17 5.138 4.173 8 6-1.241 2.99-3.994 6.399-6 9-2.765 3.585-6.567 7.404-9 11-4.003 5.916-11.146 18.031-15 27l-21-2c14.392-37.229 48.186-76.946 83.5-96 11.487-6.198 26.215-8.654 35.5-17 23.542-6.455 45.532-8.761 70-7"/><path fill="#012f44" d="M556 320c9.396 2.073 25.632 8.134 36 13 1.878.881 4.125 2.037 6 3 7.195 3.694 14.604 7.989 21 13 2.788 2.185 11.732 8.706 10 12-21.264-16.179-45.214-27.077-71-34-11.644-3.126-23.457-5.73-35.5-7l5.5-4c8.59.618 19.604 2.148 28 4"/><path fill="#125776" d="M458 323c-9.285 8.346-24.013 10.802-35.5 17-35.314 19.054-69.108 58.771-83.5 96-1.937 5.011-4.662 11.967-6 17-6.878.963-2.891 11.968-7.5 16 4.476-39.754 28.362-81.033 58.5-107 20.22-17.422 48.396-31.98 74-39"/><path fill="#003345" d="M629 361c18.553 14.116 31.062 29.275 43 49l-14 11c-12.992-22.341-32.681-44.571-53.5-60-12.294-9.111-32.729-17.392-43-27-2.277-2.13-4.197-3.355-3.5-7 25.786 6.923 49.736 17.821 71 34"/><path fill="#7accd9" d="M680 401c-3.47-.681-2.736 4.238-9 0-12.898-20.764-31.861-38.47-52-52-6.396-5.011-13.805-9.306-21-13-2.135-5.48 7.977-4.719 10.5-4 22.017 6.276 59.403 49.377 71.5 69"/><path fill="#77a7b7" d="M463 358c-14.543 6.875-27.32 16.255-40 26l-13 5c.252-1.49.898-8.461-1.5-9l-1.5 9c-5.412-8.257-.817-8.139-1-9.5-.114-.849-1.925-.378-2-.5 19.669-16.234 45.299-28.509 70.5-33 3.836-.684 23.743-3.387 26-3 .194.033 2.008 1.491 1 2-13.283 2.331-26.368 7.265-38.5 13"/><path fill="#001016" d="M671 401c8.794 14.158 17.589 34.91 22 51 11.222 40.936 8.751 76.713-7 116 17.032-56.323 16.723-107.237-14-158-11.938-19.725-24.447-34.884-43-49 1.732-3.294-7.212-9.815-10-12 20.139 13.53 39.102 31.236 52 52"/><path fill="#317687" d="M384 362c-30.138 25.967-54.024 67.246-58.5 107 4.609-4.032.622-15.037 7.5-16-19.75 74.279 9.363 153.399 71 198 14.719 10.651 29.771 19.058 47 25 1.385.478.933.978 1 1-3.112 1.388-1.896 1.631-5.5 1-16.415-2.872-45.781-19.978-59.5-30-9.132-6.671-17.423-13.626-25-22-73.811-81.581-63.581-203.644 21-273-.982 3.277-2.09 6.617 1 9"/><path fill="#1b434f" d="M672 356c15.892 16.658 33.905 42.742 43 64 16.507 38.583 18.961 85.499 10 126-18.876 85.308-96.919 159.851-185 169 .907-2.083-6.732-2.84-9-3 125.037-10.382 224.716-139.218 189-263-2.796-29.877-29.719-67.551-48.5-90-1.294-1.547-3.197-2.813.5-3"/><path fill="#155f87" d="M547 401c-2.742 1.528-5.492 3.112-8 5-9.932 7.477-16.578 18.523-25.5 27-1.436-.143-6.066-10.762-7.5-12.5-19.565-23.712-47.362-32.738-76.5-29.5-.738.082-6.341 1.044-5.5 3-2.23.514-10.148 1.958-11.5 3-2.095 1.615-2.318 6.31-3.5 8-.984.064-2.026-.108-3 0-4.482.495-7.058 3.028-10 6 .039-1.265-1.013-1.115-2-1 2.458-1.617 6.656-8.844 8-10 .567-.488.945-.956 1-1 .7-.561.945-.956 1-1 5.171-4.088 12.876-9.294 19-14 12.68-9.745 25.457-19.125 40-26 4.944 10.137 21.458 5.501 30.5 7 27.542 4.567 34.935 17.897 53.5 36"/><path fill="#77bcae" d="M404 379c.075.122 1.886-.349 2 .5.183 1.361-4.412 1.243 1 9.5.935 1.427.849 2.624 1.5 4 .193-1.389 1.346-3.089 1.5-4l13-5c-6.124 4.706-13.829 9.912-19 14-2.883-4.1-7.804-6.605-12-9 11.828-6.3 7.322-10.959 5.5-22 2.435 4.395 4.481 8.725 6.5 12"/><path fill="#8bc3c3" d="M410 389c-.154.911-1.307 2.611-1.5 4-.651-1.376-.565-2.573-1.5-4l1.5-9c2.398.539 1.752 7.51 1.5 9"/><path fill="#287d7f" d="M384 385h-2c-.096-.08-4.997-.704-1.5-2 .855.625 2.657 1.647 3.5 2"/><path fill="#8fccae" d="M384 385c2.544 1.065 5.595 2.627 8 4 4.196 2.395 9.117 4.9 12 9-.055.044-.3.439-1 1-3.95-3.226-8.773-5.302-13-8-2.862-1.827-5.402-3.83-8-6z"/><path fill="#000204" d="M465 608c-10.584-9.851-19.603-21.063-29-32 3.974-2.207 2.776-3.621 1-7l70.5 65c26.811-18.294 51.306-41.852 73.5-65.5 24.556-26.165 59.283-64.806 63-102 6.615-66.189-57.379-94.159-107-52.5 2.132-3.689 6.061-3.824 2-8 2.508-1.888 5.258-3.472 8-5 35.881-20.003 72.635-17.413 94 20.5 24.372 43.25-4.18 92.889-32 127-27.867 34.169-62.827 65.451-97.5 92.5-17.801-7.309-32.601-20.064-46.5-33"/><path fill="#074a5d" d="M539 406c4.061 4.176.132 4.311-2 8-7.882 6.618-15.609 17.205-22.5 25-5.948-9.971-13.688-18.504-22.5-26-20.013-17.025-41.308-25.157-68-19-.841-1.956 4.762-2.918 5.5-3 29.138-3.238 56.935 5.788 76.5 29.5 1.434 1.738 6.064 12.357 7.5 12.5 8.922-8.477 15.568-19.523 25.5-27"/><path fill="#70aab1" d="M403 399c-.055.044-.433.512-1 1l-8.5-5c7.603 8.635 1.678 7.038-7 9 5.918 3.316-3.18 3.049-6 5l3.5-9c2.006-2.601 4.759-6.01 6-9 4.227 2.698 9.05 4.774 13 8"/><path fill="#4fd8ee" d="M492 413c-1.718.05-5.064 5.134-5 5.5.364 2.073 21.903 21.904 25 33.5.679 2.541 1.75 10.129 0 12.5-2.179-16.154-26.342-51.473-41-56.5-16.951-10.061-40.898-12.201-58-2-6.16 3.674-12.022 8.998-15 16-3.495 3.61-9.117 18.5-10 23.5-6.975 39.487 14.093 69.918 38 98.5 1.915 2.289 3.498 4.681 5.5 7 1.43 1.656 5.382 1.038 7.5 3.5.367.426.535 5.885 4 9.5l-7 3c-3.224-4.862-12.749-12.509-17-18-27.991-36.158-63.286-97.307-23-138 2.942-2.972 5.518-5.505 10-6 .41 1.767 2.014 1.409 3 0 1.182-1.69 1.405-6.385 3.5-8 1.352-1.042 9.27-2.486 11.5-3 26.692-6.157 47.987 1.975 68 19"/><path fill="#0bc7ea" d="M437 569c-.315-.599-.638-1.454-1-2l7-3c15.137 15.794 37.124 35.444 55 48 3.636 2.554 10.995 9.884 15.5 9 3.097-.608 33.253-27.662 37.5-32 39.722-35.421 90.054-85.356 83-143.5-2.761-22.756-22.989-43.308-46-45.5-20.59-1.961-48.271 18.098-61 33.5-4.289 5.189-8.479 19.025-15 18.5-3.097-11.596-24.636-31.427-25-33.5-.064-.366 3.282-5.45 5-5.5 8.812 7.496 16.552 16.029 22.5 26 6.891-7.795 14.618-18.382 22.5-25 49.621-41.659 113.615-13.689 107 52.5-3.717 37.194-38.444 75.835-63 102-22.194 23.648-46.689 47.206-73.5 65.5z"/><path fill="#82c2be" d="M402 400c-1.344 1.156-5.542 8.383-8 10-1.418.165-1.792.282-3 1 2.669-9.607-11.708 3.197-16 0 2.433-3.596 6.235-7.415 9-11l-3.5 9c2.82-1.951 11.918-1.684 6-5 8.678-1.962 14.603-.365 7-9z"/><path fill="#80dbeb" d="M471 408c-10.186-3.494-25.284.773-34 7-8.335-5.794-17.488-5.615-24-9 17.102-10.201 41.049-8.061 58 2"/><path fill="url(#c)" d="M588 400c26.508 54.908 16.157 111.061-22 157-18.735 22.557-42.457 40.871-68 55-17.876-12.556-39.863-32.206-55-48-3.465-3.615-3.633-9.074-4-9.5-2.118-2.462-6.07-1.844-7.5-3.5-2.002-2.319-3.585-4.711-5.5-7-6.145-15.766-11.046-32.219-10-49.5.574-9.493 4.792-32.428 14-36.5.709 1.038 1.461 2.383 3 2-4.814 1.918-3.866 13.606 2.5 15 10.04 2.198 13.396-9.976 5.5-14v-5c4.182.252 13.107-6.033 15-9.5 1.105-2.025 2.481-15.477 2-16.5-5.612-11.951-24.281-3.126-26 8-.184.165-.816-.166-1 0-2.486 2.251-4.507 6.391-8 8-.713-4.663 7.092-24.123 10-28 .875-1.167 2.75-2.107 4-3 8.716-6.227 23.814-10.494 34-7 14.658 5.027 38.821 40.346 41 56.5 1.75-2.371.679-9.959 0-12.5 6.521.525 10.711-13.311 15-18.5 12.729-15.402 40.41-35.461 61-33.5" style="fill:url(#c)"/>/&gt;<path fill="#004374" d="M551 589c2.704-2.762 20.744-20.982 21-22.5.555-3.293-5.316-6.018-6-9.5 38.157-45.939 48.508-102.092 22-157 23.011 2.192 43.239 22.744 46 45.5 7.054 58.144-43.278 108.079-83 143.5"/><path fill="#9edae6" d="M680 401c9.885 16.035 15.695 27.712 21 46l-8 5c-4.411-16.09-13.206-36.842-22-51 6.264 4.238 5.53-.681 9 0"/><path fill="#b6b79f" d="M409 405c-.986 1.409-2.59 1.767-3 0 .974-.108 2.016.064 3 0"/><path fill="#8de1e0" d="M413 406c6.512 3.385 15.665 3.206 24 9-1.25.893-3.125 1.833-4 3-7.51-7.583-28.517-2.696-35 4 2.978-7.002 8.84-12.326 15-16"/><path fill="#8bc3d4" d="M391 411c-2.054 7.393-9.824 13.38-12 18.5-6.339 14.916-4.562 48.83 0 64.5-8.252 25.183-7.602 55.348-2 81 4.257 19.491 13.57 38.69 24 55.5-57.518-47.436-70.028-124.937-41-192.5 3.854-8.969 10.997-21.084 15-27 4.292 3.197 18.669-9.607 16 0"/><path fill="#118398" d="M394 410c.987-.115 2.039-.265 2 1-40.286 40.693-4.991 101.842 23 138l-3 2c-10.761-14.297-32.157-40.367-37-57-4.562-15.67-6.339-49.584 0-64.5 2.176-5.12 9.946-11.107 12-18.5 1.208-.718 1.582-.835 3-1"/><path fill="#001b2d" d="M686 568c-17.515 43.687-51.748 79.464-94 100-.553-1.465 1.03-2.369 1-2.5-.188-.814-2.149-.044-2-1.5 21.37-11.581 50.018-32.389 64-52.5 2.187-3.145 6.862-8.002 3-11.5 8.875-3.5 5.615-28.707-7-22 11.123-14.251 20.423-12.688 27-35.5 11.409-39.571.188-86.784-20-121.5l14-11c30.723 50.763 31.032 101.677 14 158"/><path fill="#c9f3fb" d="M433 418c-2.908 3.877-10.713 23.337-10 28 .34 2.221 5.378 9.624 7 12-9.208 4.072-13.426 27.007-14 36.5-1.046 17.281 3.855 33.734 10 49.5-23.907-28.582-44.975-59.013-38-98.5.883-5 6.505-19.89 10-23.5 6.483-6.696 27.49-11.583 35-4"/><path fill="#5b828b" d="M720 418c20.647 44.337 23.749 80.895 15 129l-10-1c8.961-40.501 6.507-87.417-10-126z"/><path fill="#e8fbfd" d="M458 430c-9.753-7.967-18.701 1.448-26 8 1.719-11.126 20.388-19.951 26-8"/><path fill="#adecf8" d="M458 430c.481 1.023-.895 14.475-2 16.5-1.893 3.467-10.818 9.752-15 9.5-7.288-.439-12.909-11.381-10-18 .184-.166.816.165 1 0 7.299-6.552 16.247-15.967 26-8"/><path fill="#fbfdfd" d="M807 436c-6.303 1.817-21.437.107-26.5 2-3.102 1.16-3.902 9.336-6.5 6 .723-2.644 3.004-13.307 5.5-14l28 1c2.58 1.631-.054 3.268-.5 5"/><path fill="#f8fafa" d="M246 437c-3.666 4.906-27.296-3.371-29.5-2-.116 3.018 1.837 5.865 2.5 9-.636-1.117-8.193-10.437-5.5-12h30c1.903 1.141 1.826 3.509 2.5 5"/><path fill="#a1bec8" d="M300 438c.183 6.312-4.969 25.386-6 34-1.376-4.163-6.022-2.357-10-4 .768-5.1 7.858-32.367 11-34.5.749-.508 3.096 1.177 4.5.5-.331 1.086.494 3.799.5 4"/><path fill="url(#d)" d="M246 437c11.04 24.422 11.585 105.472 11 134.5-.299 14.825-5.829 113.017-16.5 117.5l-28.5.5c25.442-74.029 28.546-161.873 9-237.5 2.247-1.711-.892-6.054-2-8-.663-3.135-2.616-5.982-2.5-9 2.204-1.371 25.834 6.906 29.5 2" style="fill:url(#d)"/>/&gt;<path fill="#155f87" d="M360 438c-29.028 67.563-16.518 145.064 41 192.5-10.43-16.81-19.743-36.009-24-55.5l49-11a489 489 0 0 0 10 12c9.397 10.937 18.416 22.149 29 32-4.346 22.979-23.089 13.72-35.5 20-1.487.753-6.562 10.253-9 12-4.076 2.921-16.404 3.28-16.5 11-61.637-44.601-90.75-123.721-71-198 1.338-5.033 4.063-11.989 6-17z"/><path fill="url(#e)" d="M807 436c-5.239 20.332-13.279 35.735-16 58.5-7.356 61.532-1.727 135.136 18.5 193.5-19.353-2.953-25.579 10.01-33.5-11.5-16.041-43.561-14.457-186.959-2-232.5 2.598 3.336 3.398-4.84 6.5-6 5.063-1.893 20.197-.183 26.5-2" style="fill:url(#e)"/>/&gt;<path fill="#57cce7" d="M441 456v5c-1.873-.955-6.37-1.649-8-1-1.539.383-2.291-.962-3-2-1.622-2.376-6.66-9.779-7-12 3.493-1.609 5.514-5.749 8-8-2.909 6.619 2.712 17.561 10 18"/><path fill="#f8fafa" d="M221 452c-.753-2.915-1.336-4.863-2-8 1.108 1.946 4.247 6.289 2 8"/><path fill="#bde3ed" d="M705 463c17.587 90.648-32.406 179.563-116 216-6.926-2.108-26.472 12.996-26 1 8.912-2.598 20.541-7.889 29-12 42.252-20.536 76.485-56.313 94-100 15.751-39.287 18.222-75.064 7-116l8-5c1.597 5.505 2.901 10.334 4 16"/><path fill="#3d788b" d="M531 712c-1.309-.092-2.683.009-4 0-2.844-3.189-23.872.053-24.5-1-1.588-2.663.138-11.47-.5-15 29.747 1.194 59.883-5.181 87-17 83.594-36.437 133.587-125.352 116-216 12.019-3.296 16.203-1.148 15-14 35.716 123.782-63.963 252.618-189 263"/><path fill="#1da1be" d="M820 459c-1.104 8.871-10.303 2.788-11 11-2.175 1.006-7.136 8.083-7.5 11-2.502-.665 5.932-30.312 12-32 4.258 1.665 4.823 6.297 6.5 10"/><path fill="#45bdd4" d="M222 481c-7.232-8.631-17.965-19.188-23-2-2.584 4.323-3.401 9.22-2 14-1.665 2.656-2.75 8.261-7 9 1.244-7.162 11.894-51.5 17.5-52 8.314 5.769 12.587 21.472 14.5 31"/><path fill="#28d7f2" d="M832 616c-2.645.142-2.985-1.265-3-3.5-.04-6.064 4.277-32.67 1-36l-4 1.5c.495-1.79 2.161-5.141 1-7 3.065-16.17 1.372-32.714 0-49 .38-5.408.574-14.745 0-20 1.765-5.454-1.354-17.825-4-23 .943-7.505-7.182-12.154-14-9 .697-8.212 9.896-2.129 11-11 18.756 41.409 19.551 112.613 12 157"/><path fill="#f6fdfe" d="M441 461c7.896 4.024 4.54 16.198-5.5 14-6.366-1.394-7.314-13.082-2.5-15 1.63-.649 6.127.045 8 1"/><path fill="#7b9ea8" d="M294 472c-7.63 63.723 10.788 129.97 57 176 48.179 60.591 123.418 83.022 199 72l2 8c-154.786 25.065-291.477-104.119-268-260 3.978 1.643 8.624-.163 10 4"/><path fill="#026491" d="M222 481c1.389 6.918 1.238 14.043 2 21l-3-1c-.693-3.384-3.801-13.906-6-16 3.879-3.103-3.814-12.691-6.5-13-3.226-.371-7.969 4.439-9.5 7 5.035-17.188 15.768-6.631 23 2"/><path fill="#07acd7" d="M823 479c2.646 5.175 5.765 17.546 4 23-1.212-11.086-9.789-30.046-21-16-1.323-13.094 9.181-22.289 17-7"/><path fill="#18bae0" d="M215 485c-8.939-8.513-14.154 1.866-18 8-1.401-4.78-.584-9.677 2-14 1.531-2.561 6.274-7.371 9.5-7 2.686.309 10.379 9.897 6.5 13"/><path fill="#85dfee" d="M827 502c.574 5.255.38 14.592 0 20-.257 3.663-.021 5.143-1 9-2.354-10.099-.33-21.076-4-31-3.525-9.531-9.135-10.7-14-1-4.221 8.416-4.565 21.519-5 31-1.803 2.215-2.959-2.171-3-2.5-.989-7.847-.5-20.768 1-28.5.816-4.207 2.32-9.643 5-13 11.211-14.046 19.788 4.914 21 16"/><path fill="#89e6f4" d="M215 485c2.199 2.094 5.307 12.616 6 16 1.656 8.087 2.325 30.694-3 36 .116-9.871.771-31.211-5-39-4.709-6.357-11.209-5.891-14 2-3.192 9.026.318 21.339-4 30-.281-1.45 1.41-7.947-2-6.5.488 8.408.69 17.626 0 26-.076.925-2.941.077-3 1-1.127 17.498.767 44.949 3 62.5h-4c-5.523-35.25-5.102-75.865 1-111 4.25-.739 5.335-6.344 7-9 3.846-6.134 9.061-16.513 18-8"/><path fill="#0575b3" d="M822 500c-5.595-5.48-7.657-6.088-14-1 4.865-9.7 10.475-8.531 14 1"/><path fill="#0570af" d="M213 498c-6.087-2.503-8.441-1.058-14 2 2.791-7.891 9.291-8.357 14-2"/><path fill="#348eb1" d="M416 551c3.297 4.38 6.559 8.728 10 13l-49 11c-5.602-25.652-6.252-55.817 2-81 4.843 16.633 26.239 42.703 37 57"/><path fill="#51d0eb" d="M822 500c3.67 9.924 1.646 20.901 4 31-.58 2.286 1.094 3.444-1.5 6-4.422 4.357-17.501 2.896-22.5-.5-.822-2.63.841-3.044 1-6.5.435-9.481.779-22.584 5-31 6.343-5.088 8.405-4.48 14 1"/><path fill="#4dcfea" d="M213 498c5.771 7.789 5.116 29.129 5 39-6.926 6.901-20.768 4.503-23-7 4.318-8.661.808-20.974 4-30 5.559-3.058 7.913-4.503 14-2"/><path fill="url(#f)" d="M803 530c-.159 3.456-1.822 3.87-1 6.5 4.999 3.396 18.078 4.857 22.5.5 2.594-2.556.92-3.714 1.5-6 .979-3.857.743-5.337 1-9 1.372 16.286 3.065 32.83 0 49-1.13 5.96-4.112 13.085-7 18.5 3.568.807 5.328-9.07 6-11.5l4-1.5c3.277 3.33-1.04 29.936-1 36 .015 2.235.355 3.642 3 3.5-1.382 8.125-3.637 18.125-6 26-2.526.183-2.492-1.074-5 0-3.693 1.582-4.572 6.813-10.5 5-8.999-2.81-15.024-59.524-15.5-69.5-1.188-24.899-.86-54.9 6-78.5-1.5 7.732-1.989 20.653-1 28.5.041.329 1.197 4.715 3 2.5m9.5 15c-6.798 1.962-4.665 13.347 7 9 2.327-1.457-2.104-10.413-7-9" style="fill:url(#f)"/>/&gt;<path fill="url(#g)" d="M224 502c2.83 25.82 6.609 125.647-11 143.5-5.634 5.712-6.497.785-11-.5-.286-.081-.673.031-1 0-4.693-9.694-6.651-21.399-8-32-2.233-17.551-4.127-45.002-3-62.5.059-.923 2.924-.075 3-1 .69-8.374.488-17.592 0-26 3.41-1.447 1.719 5.05 2 6.5 2.232 11.503 16.074 13.901 23 7 5.325-5.306 4.656-27.913 3-36zm-17.5 43c-3.615.393-5.239 6.498-4.5 9.5l10.5-.5c2.224-1.386-1.717-9.465-6-9" style="fill:url(#g)"/>/&gt;<path fill="#2ad5ef" d="M206.5 545c4.283-.465 8.224 7.614 6 9l-10.5.5c-.739-3.002.885-9.107 4.5-9.5"/><path fill="#2cd5f1" d="M812.5 545c4.896-1.413 9.327 7.543 7 9-11.665 4.347-13.798-7.038-7-9"/><path fill="#446a74" d="M735 547c-10.873 59.783-49.467 117.538-101 150 .654-1.307-1.547-7.206-2-7.5-1.778-1.152-31.605 16.133-37.5 18.5a195.2 195.2 0 0 1-44.5 12c-75.582 11.022-150.821-11.409-199-72 16.338 16.274 47.295 40.88 68.5 49 .169.065 1.829-2.064 2-2 15.425 5.749 27.681 11.545 44.5 15 22.939 4.712 50.75 7.415 74 5 88.081-9.149 166.124-83.692 185-169z"/><path fill="#064455" d="M436 567c.362.546.685 1.401 1 2 1.776 3.379 2.974 4.793-1 7a489 489 0 0 1-10-12c-3.441-4.272-6.703-8.62-10-13l3-2c4.251 5.491 13.776 13.138 17 18"/><path fill="#0b588a" d="M551 589c-4.247 4.338-34.403 31.392-37.5 32-4.505.884-11.864-6.446-15.5-9 25.543-14.129 49.265-32.443 68-55 .684 3.482 6.555 6.207 6 9.5-.256 1.518-18.296 19.738-21 22.5"/><path fill="#0297c2" d="M826 578c-.672 2.43-2.432 12.307-6 11.5 2.888-5.415 5.87-12.54 7-18.5 1.161 1.859-.505 5.21-1 7"/><path fill="#003259" d="M658 600c-7.615 3.003-14.14-5.627-13-12.5.092-.554 5.151-8.412 6-9.5 12.615-6.707 15.875 18.5 7 22"/><path fill="#04466b" d="M626 602c-.157-1.341-.972-.935-1-1-2.453-5.801-7.716-5.075-4-15.5 8.884-24.921 35.645 15.356 5 16.5"/><path fill="#92b1ba" d="M268 725c-3.252-5.712-10.892-13.307-14-19.5-9.835-19.593-3.257-15.676 0-33 5.563-29.595 7.003-56.471 8-86.5 3.615 2.785 7.074 14.288 8 18.5 7.863 35.767 10.53 86.24-2 120.5"/><path fill="#003247" d="M625 601c.028.065.843-.341 1 1 1.215 10.365-44.268 56.147-50 68-9.38 4.156-17.746 12.81-29 10 7.54-4.275 4.211-4.046 7-6.5 14.267-12.556 29.03-25.007 42-39 9.952-10.738 17.38-24.257 29-33.5"/><path fill="#16b7d8" d="M193 613c1.349 10.601 3.307 22.306 8 32-1.77-.168-2.564.106-4 1-2.971-9.62-6.453-23.124-8-33z"/><path fill="#57a3b2" d="M387 648c18.359 19.936 47.888 34.088 74 41 13.287 3.517 27.153 6.444 41 7 .638 3.53-1.088 12.337.5 15 .628 1.053 21.656-2.189 24.5 1-22.972-.155-36.753.734-60-4-46.767-9.524-82.977-32.368-115-67-.084-6.197 7.054-9.768 10-15 7.577 8.374 15.868 15.329 25 22"/><path fill="#006caf" d="M197 646c1.436-.894 2.23-1.168 4-1 .327.031.714-.081 1 0 .422 4.75 7.032 5.776 10.5 5 5.192-1.161 5.211-8.496 9.5-9.5-8.401 29.681-13.34 43.25-25 5.5"/><path fill="#006fb1" d="M826 642c-8.609 28.695-14.256 38.605-26 2.5l2.5-2.5c3.014 8.521 16.393 10.545 18.5 0 2.508-1.074 2.474.183 5 0"/><path fill="#90d2de" d="M452 677c20.384 6.725 47.58 10.762 69 10l-60 2c-26.112-6.912-55.641-21.064-74-41 13.719 10.022 43.085 27.128 59.5 30 3.604.631 2.388.388 5.5-1"/><path fill="#042734" d="M592 668c-8.459 4.111-20.088 9.402-29 12-12.625 3.68-28.907 6.534-42 7-21.42.762-48.616-3.275-69-10-.067-.022.385-.522-1-1 2.642-4.271 6.948.604 8.5 1 19.576 4.997 71.055 12.323 87.5 3 11.254 2.81 19.62-5.844 29-10 4.956-2.196 10.023-3.303 15-6-.149 1.456 1.812.686 2 1.5.03.131-1.553 1.035-1 2.5"/><path fill="#9edae6" d="M589 679c-27.117 11.819-57.253 18.194-87 17-13.847-.556-27.713-3.483-41-7l60-2c13.093-.466 29.375-3.32 42-7-.472 11.996 19.074-3.108 26-1"/><path fill="#5b828b" d="M634 697c-27.063 17.048-50.421 25.886-82 31l-2-8a195.2 195.2 0 0 0 44.5-12c5.895-2.367 35.722-19.652 37.5-18.5.453.294 2.654 6.193 2 7.5"/><path fill="#03131e" d="M527 712c1.317.009 2.691-.092 4 0 2.268.16 9.907.917 9 3-23.25 2.415-51.061-.288-74-5l1-2c23.247 4.734 37.028 3.845 60 4"/><path fill="#5d838d" d="M402 818c1.438 10.516 4.669 20.693 7 31-65.872-26.539-104.78-61.021-140-121 36.43 39.49 80.456 74.727 133 90"/><path fill="#0b272c" d="M620 810c-.611 8.022-3.877 31.983-8 38-2.927 4.272-3.701 2.648-7 4 11.236-30.847 22.752-67.565-11-88-4.02-2.434-4.878-2.488-9-4-14.007-5.139-23.61-5.485-38.5-6-1.761-.061-4.97-.909-4.5 2-42.396-2.518-137.379-16.282-137 47 .045 7.553 5.93 41.792 10 47-3.738 3.537-2.883.256-6-1-2.331-10.307-5.562-20.484-7-31-3.747-27.395.651-49.723 28.5-62 18.383-8.103 110.658-8.859 134-7 36.293 2.89 58.271 24.599 55.5 61"/><path fill="#ebf5f9" d="M542 756c14.329.851 28.683 2.961 43 4 4.122 1.512 4.98 1.566 9 4-19.668-.638-39.289-3.138-59-4-33.402-1.461-119.06-10.163-124 35-.467 4.269 4.956 9.047-6 8-.379-63.282 94.604-49.518 137-47"/><path fill="#7cadb5" d="M585 760c-14.317-1.039-28.671-3.149-43-4-.47-2.909 2.739-2.061 4.5-2 14.89.515 24.493.861 38.5 6"/><path fill="#78a3ab" d="M535 760c4.691 4.099 2.669 7.99 3 14-29.706-.049-59.823-1.005-89.5 0-1.83.062-4.936-1.009-4.5 2-7.491 1.37-15.115 7.332-17 15-7.125 2.406-11.666-3.579-16 4 4.94-45.163 90.598-36.461 124-35"/><path fill="#6d949c" d="M594 764c33.752 20.435 22.236 57.153 11 88-9.851 4.036-23.311 6.939-34 8 7.304-5.865 23.086-39.484 20-50 2.674-8.683 6.826-14.981 2-24.5-5.51-10.868-18.711-9.137-28-9.5.438-3.001-2.673-1.947-4.5-2-7.476-.216-15.029.012-22.5 0-.331-6.01 1.691-9.901-3-14 19.711.862 39.332 3.362 59 4"/><path fill="#a0cdd2" d="M538 774c7.471.012 15.024-.216 22.5 0 1.827.053 4.938-1.001 4.5 2-27.356-1.069-97.286-4.338-121 0-.436-3.009 2.67-1.938 4.5-2 29.677-1.005 59.794-.049 89.5 0"/><path fill="#12333b" d="M565 776c9.289.363 22.49-1.368 28 9.5 4.826 9.519.674 15.817-2 24.5-4.76 15.459-13.977 31.727-24.5 44L450 853c-10.66-6.588-25.913-50.15-23-62 1.885-7.668 9.509-13.63 17-15 23.714-4.338 93.644-1.069 121 0m-112 66c-2.208 3.241.077 7.064 4 8 6.292 1.501 25.031-.12 33 0 16.6.25 33.401.276 50 0 5.875-.098 29.514 2.81 30-4.5.201-3.027-4.313-3.163-6.5-3.5-6.144-.947-15.791.157-22.5 0v-2c3.824.014 8.114.97 11 1 7.125.075 14.202-1.169 20.5 1 2.238-1.33 6.025-11.181 6.5-14 1.537 1.855 5.879-7.035 6-7.5 1.178-4.515 3.796-23.193 3-27-2.027-9.698-14.712-13.573-23-14.5-10.431-1.167-24.071.211-35 0-10.944-.212-22.054-.173-33 0-34.775.551-74.139-10.083-59 40.5 1.821 6.083 8.038 22.54 15 22.5"/><path fill="#257484" d="M497 779c-1.315 2.204 1.345 11.977 1 12.5-1.115 1.691-10.13-.968-12 1.5-8.686-.061-16.838.017-25.5 1-.43.049-2.938-3.379-5 3 14.285-4.236 29.706-1.04 44.5-1l-.5 12-16.5 2c-7.704.115-14.801-.11-22.5 1-.845.122.139-4.723-3 2 13.414-1.746 27.027-.958 40.5-1-.446 2.065.611 10.622 0 11.5-1.282 1.845-8.815-1.699-9 2.5-9.013.054-19.387-1.434-27.5 2 13.856-.113 27.684-.045 41.5 0l.5 11-18.5 1c-8.439-.025-17.219-1.116-25.5-1-.358.005-3.513 2.983-6.5 3-6.962.04-13.179-16.417-15-22.5-15.139-50.583 24.225-39.949 59-40.5"/><path fill="#35a1b8" d="m530 779-2 12.5 16 1.5c-19.369.036-38.616.136-58 0 1.87-2.468 10.885.191 12-1.5.345-.523-2.315-10.296-1-12.5 10.946-.173 22.056-.212 33 0"/><path fill="#2b8092" d="m565 779 2 15c-5.822-.565-11.109-.978-17-1-1.99-.008-4.01-.004-6 0l-16-1.5 2-12.5c10.929.211 24.569-1.167 35 0"/><path fill="#10515d" d="M579 828c2.603-15.444-2.482-20.392-11-32 3.938.606 6.324 3.86 9 2.5-1.283-.251-6.046-6.428-6.5-6.5-.199-.032-2.683 2.079-3.5 2l-2-15c8.288.927 20.973 4.802 23 14.5.796 3.807-1.822 22.485-3 27-.121.465-4.463 9.355-6 7.5"/><path fill="#9ec8d2" d="M427 791c-2.913 11.85 12.34 55.412 23 62 .139.086-.396 1.712.5 2 5.682 1.824 38.705-1.627 41 0 2.431 1.723-3.553 10.855 6.5 9.5l-7 2.5c-12.149-.807-69.943-9.249-76-17-4.07-5.208-9.955-39.447-10-47 10.956 1.047 5.533-3.731 6-8 4.334-7.579 8.875-1.594 16-4"/><path fill="#010a10" d="M486 793c19.384.136 38.631.036 58 0 1.99-.004 4.01-.008 6 0v2c-7.071-.112-13.906 1.068-21 1-9.65-.092-19.349.026-29 0-14.794-.04-30.215-3.236-44.5 1 2.062-6.379 4.57-2.951 5-3 8.662-.983 16.814-1.061 25.5-1"/><path fill="#0c3646" d="M568 796c-6.242-.96-11.741-.901-18-1v-2c5.891.022 11.178.435 17 1 .817.079 3.301-2.032 3.5-2 .454.072 5.217 6.249 6.5 6.5-2.676 1.36-5.062-1.894-9-2.5"/><path fill="#257484" d="M550 795c6.259.099 11.758.04 18 1 8.518 11.608 13.603 16.556 11 32-.475 2.819-4.262 12.67-6.5 14-6.298-2.169-13.375-.925-20.5-1-3.512-4.964-21.068-.105-24.5-2l.5-11c15.468.143 33.379-2.186 47.5 3-.224-.911-4.661-4.901-5-5-4.851-1.413-30.133.125-37.5 0-.857-11.919-6.939-11.207 6-14 11.433-2.468 25.192-1.766 35.5 4-5.853-8.087-21.039-6.786-30.5-7-2.721-2.454-8.636-.1-11.5-1-2.276-.716-.271-10.045-3.5-12 7.094.068 13.929-1.112 21-1"/><path fill="#35a1b8" d="M529 796c3.229 1.955 1.224 11.284 3.5 12 2.864.9 8.779-1.454 11.5 1-20.01-.452-40.89.7-61 1l16.5-2 .5-12c9.651.026 19.35-.092 29 0"/><path fill="#051723" d="M483 810c20.11-.3 40.99-1.452 61-1 9.461.214 24.647-1.087 30.5 7-10.308-5.766-24.067-6.468-35.5-4-13.651.032-27.349-.043-41 0-13.473.042-27.086-.746-40.5 1 3.139-6.723 2.155-1.878 3-2 7.699-1.11 14.796-.885 22.5-1"/><path fill="#b7d7e0" d="M571 860c-8.619 6.92-66.672 7.885-80 7l7-2.5c-10.053 1.355-4.069-7.777-6.5-9.5-2.295-1.627-35.318 1.824-41 0-.896-.288-.361-1.914-.5-2l116.5 1c10.523-12.273 19.74-28.541 24.5-44 3.086 10.516-12.696 44.135-20 50"/><path fill="#35a1b8" d="M539 812c-12.939 2.793-6.857 2.081-6 14-14.582-.247-29.401-.088-44 0 .185-4.199 7.718-.655 9-2.5.611-.878-.446-9.435 0-11.5 13.651-.043 27.349.032 41 0"/><path fill="#124058" d="M489 826c14.599-.088 29.418-.247 44 0 7.367.125 32.649-1.413 37.5 0 .339.099 4.776 4.089 5 5-14.121-5.186-32.032-2.857-47.5-3-8.317-.077-16.682.027-25 0-13.816-.045-27.644-.113-41.5 0 8.113-3.434 18.487-1.946 27.5-2"/><path fill="#35a1b8" d="m528 828-.5 11c3.432 1.895 20.988-2.964 24.5 2-2.886-.03-7.176-.986-11-1-16.985-.062-34.015.039-51 0-1.658-.004-3.342.005-5 0l18.5-1-.5-11c8.318.027 16.683-.077 25 0"/><path fill="#135963" d="M485 840c1.658.005 3.342-.004 5 0v2c-3.059.057-19.602-.493-20.5 0-.856.47 4.875 9.283-12.5 8-3.923-.936-6.208-4.759-4-8 2.987-.017 6.142-2.995 6.5-3 8.281-.116 17.061.975 25.5 1"/><path fill="#000814" d="M541 840v2c-.992-.023-2.008.019-3 0-14.934-.281-30.063-.207-45 0-.992.014-2.008-.018-3 0v-2c16.985.039 34.015-.062 51 0"/><path fill="#298191" d="M490 842c.992-.018 2.008.014 3 0 1.366 5.085 2.631 6.408-3 8-7.969-.12-26.708 1.501-33 0 17.375 1.283 11.644-7.53 12.5-8 .898-.493 17.441.057 20.5 0"/><path fill="#3298ab" d="M538 842c1.992 3.825-1.371 5.972 2 8-16.599.276-33.4.25-50 0 5.631-1.592 4.366-2.915 3-8 14.937-.207 30.066-.281 45 0"/><path fill="#267887" d="M541 842c6.709.157 16.356-.947 22.5 0 2.187.337 6.701.473 6.5 3.5-.486 7.31-24.125 4.402-30 4.5-3.371-2.028-.008-4.175-2-8 .992.019 2.008-.023 3 0"/></svg>