<svg xmlns="http://www.w3.org/2000/svg" width="1024" height="1024"><defs><linearGradient id="a" x1="577.399" x2="684.803" y1="177.463" y2="252.465" gradientUnits="userSpaceOnUse"><stop offset="0%" style="stop-color:#2ca3cc"/><stop offset="100%" style="stop-color:#218dbc"/></linearGradient></defs><defs><linearGradient id="b" x1="533.709" x2="790.725" y1="266.602" y2="419.389" gradientUnits="userSpaceOnUse"><stop offset="0%" style="stop-color:#0e779f"/><stop offset="100%" style="stop-color:#0e3b5e"/></linearGradient></defs><defs><linearGradient id="c" x1="352.285" x2="662.424" y1="318.474" y2="341.609" gradientUnits="userSpaceOnUse"><stop offset="0%" style="stop-color:#d2e3eb"/><stop offset="100%" style="stop-color:#7f9ea7"/></linearGradient></defs><defs><linearGradient id="d" x1="690.407" x2="428.061" y1="392.964" y2="411.497" gradientUnits="userSpaceOnUse"><stop offset="0%" style="stop-color:#9ec2cc"/><stop offset="100%" style="stop-color:#d2e4eb"/></linearGradient></defs><defs><linearGradient id="e" x1="374.616" x2="296.347" y1="548.683" y2="615.638" gradientUnits="userSpaceOnUse"><stop offset="0%" style="stop-color:#071d38"/><stop offset="100%" style="stop-color:#004b63"/></linearGradient></defs><defs><linearGradient id="f" x1="717.331" x2="642.932" y1="548.237" y2="619.468" gradientUnits="userSpaceOnUse"><stop offset="0%" style="stop-color:#071833"/><stop offset="100%" style="stop-color:#00445f"/></linearGradient></defs><defs><linearGradient id="g" x1="425.714" x2="563.64" y1="563.604" y2="857.885" gradientUnits="userSpaceOnUse"><stop offset="28.308%" style="stop-color:#d5ebf3"/><stop offset="100%" style="stop-color:#82b1bb"/></linearGradient></defs><defs><linearGradient id="h" x1="728.049" x2="599.05" y1="723.271" y2="723.636" gradientUnits="userSpaceOnUse"><stop offset="0%" style="stop-color:#3a6474"/><stop offset="100%" style="stop-color:#548594"/></linearGradient></defs><path fill="#095272" d="M719 168c-.872-.234-2.987-3.156-5.5-2 1.089 1.059 3.115 2.175 4.5 3 4.556 2.714 8.554 5.027 13 8l-3 2c-45.815-29.779-78.121-18.595-127-4-1.671.499-5.709.911-6 1 29.827-18.375 58.659-17.198 92-17 1.927.011 5.235 1.09 5.5 1 .843-.287 6.558-11.473 10.5-11 3.404.999 17.876 6.266 19 3.5l-12-10 1.5-1.5c-3.098-1.803-6.361-3.307-9.5-5-16.284-8.782-49.848-20.896-68-24-22.028-5.409-45.277-8.184-68-6 .289-.158.209-2.918 5-2.5-1.751.047-5.071-1.386-6-1.5 82.281-5.446 162.346 36.963 221 91.5-19.992-15.123-43.301-19.133-67-25.5"/><path fill="#096e94" d="M565 102c.929.114 4.249 1.547 6 1.5-4.791-.418-4.711 2.342-5 2.5-10.432 5.709-30.095 9.221-43 14l.5-5c-4.209-1.193-6.98 1.009-10.5 2-22.38 3.521-43.104 9.404-63 20-4.632 2.467-6.743 1.752-12 6-17.227 7.377-27.602 28.809-24 47-15.454-7.957-30.455-16.051-48-19-37.369-6.28-93.728-.081-118 33-.474.646-.782 2.05-2 2-6.91 2.03-13.151 8.922-16 16-.759.567-3.887 3.898-5 5-6.781 6.719-11.54 15.169-16 23.5l3 1c.99-1.146 2.609-2.024 4-2.5 9.679-3.309 17.443-5.7 27.5-8 .98-.224.022-2.792 1-3 14.399-3.064 36.595 3.375 51.5 4 12.369 4.108 25.763 8.366 37 12l-1 2c-10.479-2.749-18.164-3.664-29-4 .527-3.272-3.498-1.67-6-2-.915-3.303-11.221-4.589-14.5-5-25.744-3.23-51.72-.563-75.5 9.5-4.234-7.061 33.663-50.378 40.5-56.5 41.337-37.018 111.878-39.859 160-15 2.026-12.45 7.919-27.016 16.5-36.5 19.165-21.183 113.127-47.933 141-44.5"/><path fill="#36add2" d="M634 112c-45.015-7.697-104.454-1.137-140.5 29l-10 11c49.149-46.341 124.642-45.215 186-27 10.734 3.187 21.366 9.766 32.5 11 3.139 1.693 6.402 3.197 9.5 5l-1.5 1.5 12 10c-1.124 2.766-15.596-2.501-19-3.5-22.421-6.579-39.804-12.453-64-13-.004-3.647 1.052-3.286-2.5-4-16.799-3.376-69.54 2.083-87 7-36.991 10.418-81.391 47.238-90 86-5.833-16.592-1.275-34.792 5.5-50.5-5.748 3.566-7.934 11.206-12 16-.348.41-3.019 3.949-3 1 7.578-40.841 36.963-58.154 73-71.5 12.905-4.779 32.568-8.291 43-14 22.723-2.184 45.972.591 68 6"/><path fill="#90edf7" d="M634 112c18.152 3.104 51.716 15.218 68 24-11.134-1.234-21.766-7.813-32.5-11-61.358-18.215-136.851-19.341-186 27l10-11c36.046-30.137 95.485-36.697 140.5-29"/><path fill="#1386b1" d="M523 120c-36.037 13.346-65.422 30.659-73 71.5-.019 2.949 2.652-.59 3-1 4.066-4.794 6.252-12.434 12-16-6.775 15.708-11.333 33.908-5.5 50.5 8.609-38.762 53.009-75.582 90-86 17.46-4.917 70.201-10.376 87-7 3.552.714 2.496.353 2.5 4-15.287-.346-28.208 1.295-43 5-.796-1.407-2.983-2.236-4.5-2-16.815 2.613-32.897 7.278-48.5 14-24.04 10.357-66.897 41.882-64 74 .194 2.149.717 2.673 1 4v46.5l-7 3.5c-.655.048-1.345-.052-2 0l-54.5-44-2.5 7c-11.088-12.582-22.928-24.886-36-35.5l77.5 47.5c-17.068-30.89-32.952-73.48-7.5-104.5 12.471-15.199 46.124-29.185 65-34.5 3.52-.991 6.291-3.193 10.5-2z"/><path fill="#3bb3d7" d="M513 117c-18.876 5.315-52.529 19.301-65 34.5-25.452 31.02-9.568 73.61 7.5 104.5L378 208.5c13.072 10.614 24.912 22.918 36 35.5 4.704 5.338 10.664 11.699 15 17 2.14 2.615 3.726 6.37 7 8.5-31.143-10.666-63.26-26.411-96-33 9.84 5.027 21.374 8.52 31.5 13.5 1.074.528 6.384 2.305 5 4l-87-23-27.5.5c11.762 2.494 22.684 6.742 34 10.5-14.905-.625-37.101-7.064-51.5-4-.978.208-.02 2.776-1 3-10.057 2.3-17.821 4.691-27.5 8 10.577-22.325 42.957-35.949 66.5-40 10.99-1.891 22.581-1.016 33.5-3 1.305-.237 4.491.541 5-.5-2.402-1.373-4.748-1.188-4-4.5 7.73.599 15.574 3.102 23 3.5-27.705-15.696-61.696-5.622-90.5 2.5-2.89.815-3.325-1.051-3.5-1 1.218.05 1.526-1.354 2-2 8.763 2.029 15.115-3.479 22-7 8.214-4.201 16.618-10.862 25.5-14 35.469-12.533 73.547-4.443 107 10-9.927-9.593-23.167-14.516-36.5-17v-5c17.545 2.949 32.546 11.043 48 19 2.565 1.321 2.65-.581 6 3 .13 1.347.133 10.313 3 9.5-2.517-25.51 9.348-48.267 27-65.5 19.896-10.596 40.62-16.479 63-20M273.5 222c-.464.029-3.264 3.448-8 1-.498 1.639-26.349 5.415-25.5 8.5 11.214-1.713 22.152-5.3 33.5-6.5 4.886-.517 29.636.737 31 0 1.049-.567 1.162-2.514-1-3-1.463-.329-26.742-.201-30 0"/><path fill="#096184" d="M639 136c24.196.547 41.579 6.421 64 13-3.942-.473-9.657 10.713-10.5 11-.265.09-3.573-.989-5.5-1 .872-1.943-4.845-2.934-5.5-3-16.852-1.692-34.701-1-51.5 1l16.5-5c-52.24-4.532-124.059 23.357-141.5 77 7.14-45.057 48.665-77.397 91-88 14.792-3.705 27.713-5.346 43-5"/><path fill="#90f7fb" d="M450 137c-17.652 17.233-29.517 39.99-27 65.5-2.867.813-2.87-8.153-3-9.5-1.726-17.911 3.446-38.237 18-50 5.257-4.248 7.368-3.533 12-6"/><path fill="#27a0ca" d="M596 141c-42.335 10.603-83.86 42.943-91 88-2.326 7.154-2.795 14.614-4 22-.647 3.961-.854 8.032-1.5 12-7.5-8.305-17.127-20.853-19.5-32-.283-1.327-.806-1.851-1-4 7.966-14.041 13.616-28.965 24-41.5 11.111-13.413 26.08-22.485 40-32.5 15.603-6.722 31.685-11.387 48.5-14 1.517-.236 3.704.593 4.5 2"/><path fill="#34b5d8" d="M438 143c-14.554 11.763-19.726 32.089-18 50-3.35-3.581-3.435-1.679-6-3-3.602-18.191 6.773-39.623 24-47"/><path fill="#3eb5d8" d="M543 153c-13.92 10.015-28.889 19.087-40 32.5-10.384 12.535-16.034 27.459-24 41.5-2.897-32.118 39.96-63.643 64-74"/><path fill="#11769c" d="M630 157c-.328.039-.672-.042-1 0-33.882 4.294-83.614 29.315-95 64-6.549 6.45-11.522 23.288-10 32-6.258 7.133 2.2 20.002-2 27-3.644-.127-7.351.04-11 0l-10-29c1.205-7.386 1.674-14.846 4-22 17.441-53.643 89.26-81.532 141.5-77z"/><path fill="#6edff0" d="M687 159c-33.341-.198-62.173-1.375-92 17-1.643.503-11.004 6.582-12 4.5 7.589-7.406 17.564-13.047 27.5-16.5 6.341-2.203 15.005.106 18.5-7 .328-.042.672.039 1 0 16.799-2 34.648-2.692 51.5-1 .655.066 6.372 1.057 5.5 3"/><path fill="url(#a)" d="M629 157c-3.495 7.106-12.159 4.797-18.5 7-9.936 3.453-19.911 9.094-27.5 16.5.996 2.082 10.357-3.997 12-4.5.291-.089 4.329-.501 6-1 14.234-.2 28.274-5.058 42.5-6 19.864-1.315 56.552-.221 75 7 6.653 2.604 11.063 9.185 18.5 10 31.764 23.087 74.324 64.314 96 97-9.252-5.965-16.478-14.581-25.5-21-1.702-1.211-25.036-15.728-25.5-13.5 23.568 21.241 42.844 50.263 54 80 1.696 4.521 7.203 18.094 4 21.5-14.215-31.564-34.997-54.83-65-72-29.561-16.916-55.589-23.839-90-24-16.764-.079-37.719 2.164-55 3-29.141 1.41-58.038 2.8-87 6.5 22.149-16.642 44.955-27.23 72-33.5 7.183-1.665 15.006-1.478 22-4.5 3.656-4.466-17.729.789-14-6.5 44.942 1.902 99.012 10.854 138.5 33 14.857 8.332 27.187 20.602 42 29-19.995-24.696-47.117-52.352-75-68-20.915-11.738-31.455-14.334-55.5-13l3-4c-40.915-15.516-87.49 9.218-123 29-7.232 4.029-13.647 9.908-21.5 13-1.522-1.113 1.759-14.742 2.5-17 11.386-34.685 61.118-59.706 95-64m11.5 75c-22.014.941-45.173 6.325-62 21 49.148-9.155 99.507-10.817 149.5-12.5-27.515-6.453-59.205-9.709-87.5-8.5" style="fill:url(#a)"/>/&gt;<path fill="#87eaf5" d="M728 179c3.009 1.956 6.07 4.871 9 7-7.437-.815-11.847-7.396-18.5-10-18.448-7.221-55.136-8.315-75-7-14.226.942-28.266 5.8-42.5 6 48.879-14.595 81.185-25.779 127 4"/><path fill="#6998ac" d="m719 168-1 1c-1.385-.825-3.411-1.941-4.5-3 2.513-1.156 4.628 1.766 5.5 2"/><path fill="#49cfee" d="M366 171v5c-32.795-6.11-72.045-5.486-96 21-6.885 3.521-13.237 9.029-22 7 24.272-33.081 80.631-39.28 118-33"/><path fill="#9bf7fb" d="M366 176c13.333 2.484 26.573 7.407 36.5 17-33.453-14.443-71.531-22.533-107-10-8.882 3.138-17.286 9.799-25.5 14 23.955-26.486 63.205-27.11 96-21"/><path fill="#0e4365" d="M731 177c45.565 30.465 88.382 67.834 111 119-1.43-2.754-6.883-9.807-9-13-21.676-32.686-64.236-73.913-96-97-2.93-2.129-5.991-5.044-9-7z"/><path fill="#1177a4" d="M676 196c-43.619-7.393-78.607 20.364-118.5 30-.751.181-5.248 1.526-4.5-1 35.51-19.782 82.085-44.516 123-29"/><path fill="#1990be" d="m676 196-3 4c-22.096 1.226-44.664 5.373-63 18.5 4.236 1.04 8.706.318 13 .5-3.729 7.289 17.656 2.034 14 6.5-6.994 3.022-14.817 2.835-22 4.5-2.879-3.122-15.986-2.586-20-2-25.242 1.407-50.09 8.21-66 29-2.941.561-3.482 4.686-5-4-1.522-8.712 3.451-25.55 10-32-.741 2.258-4.022 15.887-2.5 17 7.853-3.092 14.268-8.971 21.5-13-.748 2.526 3.749 1.181 4.5 1 39.893-9.636 74.881-37.393 118.5-30"/><path fill="#0b7ca8" d="M317 201c-24.97-1.934-66.536 5.711-87 21 2.849-7.078 9.09-13.97 16-16 .175-.051.61 1.815 3.5 1 28.804-8.122 62.795-18.196 90.5-2.5-7.426-.398-15.27-2.901-23-3.5"/><path fill="#38aad3" d="M623 219c-4.294-.182-8.764.54-13-.5 18.336-13.127 40.904-17.274 63-18.5 24.045-1.334 34.585 1.262 55.5 13 27.883 15.648 55.005 43.304 75 68-14.813-8.398-27.143-20.668-42-29-39.488-22.146-93.558-31.098-138.5-33"/><path fill="#3ac4e3" d="M317 201c-.748 3.312 1.598 3.127 4 4.5-.509 1.041-3.695.263-5 .5-23.722-1.663-46.698 3.033-68.5 12-7.014 2.885-15.556 10.952-22.5 9 1.113-1.102 4.241-4.433 5-5 20.464-15.289 62.03-22.934 87-21"/><path fill="#8cf0f8" d="M316 206c-10.919 1.984-22.51 1.109-33.5 3-23.543 4.051-55.923 17.675-66.5 40-1.391.476-3.01 1.354-4 2.5l-3-1c4.46-8.331 9.219-16.781 16-23.5 6.944 1.952 15.486-6.115 22.5-9 21.802-8.967 44.778-13.663 68.5-12"/><path fill="#2eabd5" d="M273.5 222c3.258-.201 28.537-.329 30 0 2.162.486 2.049 2.433 1 3-1.364.737-26.114-.517-31 0-11.348 1.2-22.286 4.787-33.5 6.5-.849-3.085 25.002-6.861 25.5-8.5 4.736 2.448 7.536-.971 8-1"/><path fill="#086388" d="M595 228c-22.427 3.277-50.154 25.975-66 29 15.91-20.79 40.758-27.593 66-29"/><path fill="url(#b)" d="M615 230c-27.045 6.27-49.851 16.858-72 33.5 28.962-3.7 57.859-5.09 87-6.5-1.249 2.461-2.973 8.04-2 10.5 1.544 3.904 65.368 15.42 75.5 18.5 15.112 4.594 30.684 11.4 44.5 19 16.241 8.934 26.136 17.034 39 30l16 30.5c10.369 28.87 19.728 61.211 22 92 .246 3.337 1.221 11.286-2 13.5-16.278-63.386-63.612-111.661-122-139-53.211-36.124-114.123-49.479-178-52-.333-.013-.667.012-1 0 4.2-6.998-4.258-19.867 2-27 1.518 8.686 2.059 4.561 5 4 15.846-3.025 43.573-25.723 66-29 4.014-.586 17.121-1.122 20 2" style="fill:url(#b)"/>/&gt;<path fill="#0e7ca5" d="M429 261c-.117-3.159 1.606-2.306 3.5-1 7.524 5.188 16.605 15.777 22.5 23-16.385 1.903-31.07 5.497-47 8-5.824-4.075-29.5-11.382-35.5-11-1.11.071-2.971.967-2 2l13.5 6c-14.954-3.624-31.641-6.316-47-7v-1c8.115.412 16.444 1.999 24.5 1-10.388-2.106-20.958-3.907-31.5-5 1.567-1.97 3.783.004 3-4 7.763.542 15.704.701 23.5 1l53.5 7.5c-18.585-5.885-35.99-15.5-54.5-21.5-6.821-2.211-16.259-2.982-22.5-5-11.237-3.634-24.631-7.892-37-12-11.316-3.758-22.238-8.006-34-10.5l27.5-.5 87 23c1.384-1.695-3.926-3.472-5-4-10.126-4.98-21.66-8.473-31.5-13.5 32.74 6.589 64.857 22.334 96 33-3.274-2.13-4.86-5.885-7-8.5"/><path fill="#066186" d="m501 251 10 29c-12.763-.141-25.314.071-38 1l7-3.5V231c2.373 11.147 12 23.695 19.5 32 .646-3.968.853-8.039 1.5-12"/><path fill="#35b1d9" d="M640.5 232c28.295-1.209 59.985 2.047 87.5 8.5-49.993 1.683-100.352 3.345-149.5 12.5 16.827-14.675 39.986-20.059 62-21"/><path fill="#07678d" d="M471 281c-5.274.417-10.733 1.388-16 2-5.895-7.223-14.976-17.812-22.5-23-1.894-1.306-3.617-2.159-3.5 1-4.336-5.301-10.296-11.662-15-17l2.5-7z"/><path fill="#1b5589" d="M833 283c2.117 3.193 7.57 10.246 9 13 .203.391.481 1.928 1 3 10.271 41.667 20.987 83.808 14 127-1.435-26.891-5.948-51.46-17-76 3.203-3.406-2.304-16.979-4-21.5-11.156-29.737-30.432-58.759-54-80 .464-2.228 23.798 12.289 25.5 13.5 9.022 6.419 16.248 15.035 25.5 21"/><path fill="#0a688e" d="M297 250c2.502.33 6.527-1.272 6 2-58.717-1.818-94.574 14.735-127 62.5-.282.416-3.56.321-7 6-1.117 1.845-6.437 15.386-5.5 17.5 5.133-5.75 9.24-11.599 13.5-18 15.146-9.417 28.11-23.013 43.5-32 39.348-22.977 69-19.04 112.5-16 .783 4.004-1.433 2.03-3 4-63.879-6.624-93.356 4.049-140 44-3.284 2.812-9.898 5.512-12.5 8-11.865 11.345-23.111 22.346-27 39 1.221-35.843 30.925-82.362 62-100 20.274-11.507 61.651-20.017 84.5-17"/><path fill="#8bf6f7" d="M303 252c10.836.336 18.521 1.251 29 4 3.493.916 7.102 1.578 10.5 3 3.274 3.249-19.554-.938-21-1-69.248-2.957-105.971 4.099-144.5 62-4.26 6.401-8.367 12.25-13.5 18-.937-2.114 4.383-15.655 5.5-17.5 3.44-5.679 6.718-5.584 7-6 32.426-47.765 68.283-64.318 127-62.5"/><path fill="#33aed3" d="M333 272c-43.5-3.04-73.152-6.977-112.5 16-15.39 8.987-28.354 22.583-43.5 32 38.529-57.901 75.252-64.957 144.5-62 1.446.062 24.274 4.249 21 1-3.398-1.422-7.007-2.084-10.5-3l1-2c6.241 2.018 15.679 2.789 22.5 5 18.51 6 35.915 15.615 54.5 21.5l-53.5-7.5c-7.796-.299-15.737-.458-23.5-1"/><path fill="#2181af" d="M748 305c-13.816-7.6-29.388-14.406-44.5-19-10.132-3.08-73.956-14.596-75.5-18.5-.973-2.46.751-8.039 2-10.5 17.281-.836 38.236-3.079 55-3 3.344 6.169 2.994 10.903 3.5 18l66 22z"/><path fill="#1c6596" d="M775 278c-15.131 9.989-.496 12.535 7.5 20 28.983 27.059 44.114 59.081 51.5 98l-7 2c-8.306-25.759-21.186-44.037-40-63-12.864-12.966-22.759-21.066-39-30l6.5-11-66-22c-.506-7.097-.156-11.831-3.5-18 34.411.161 60.439 7.084 90 24"/><path fill="#29acd0" d="M330 276c10.542 1.093 21.112 2.894 31.5 5-8.056.999-16.385-.588-24.5-1-55.73-2.832-103.85 4.043-147 42v-2c46.644-39.951 76.121-50.624 140-44"/><path fill="#163e65" d="M840 350c11.052 24.54 15.565 49.109 17 76-.242 1.495.591 5.137-.5 6-.111.088-1.814-2.041-2-2-14.555 3.244-17.822.259-17 17-2.742-9.832-3.336-20.042-5.5-30l5 1.5c-.122-7.581-1.598-15.113-3-22.5-7.386-38.919-22.517-70.941-51.5-98-7.996-7.465-22.631-10.011-7.5-20 30.003 17.17 50.785 40.436 65 72"/><path fill="#075e82" d="M337 280v1c-3.962-.176-8.028.014-12 0-119.799-.425-213.38 81.457-165 206 2.997 7.716 6.996 17.909 11 25l-2 3c-35.483-71.003-43.949-135.867 21-193 43.15-37.957 91.27-44.832 147-42"/><path fill="#066286" d="M408 291c-2.992.47-5.699 1.525-9 2-4.179-2.81-10.155-3.826-15-5l-13.5-6c-.971-1.033.89-1.929 2-2 6-.382 29.676 6.925 35.5 11"/><path fill="#074865" d="M511 280c3.649.04 7.356-.127 11 0 .333.012.667-.013 1 0 .457 3.971-.761 2.748-3.5 3-8.309.764-17.618-.656-26 0-.618.048-11.67 1.025-6.5 3-59.128 2.539-121.312 17.529-169.5 53-14.584 10.735-20.006 14.853-27.5 31-10.315 22.225-15.737 46.459-25 69-1.171 2.85-1.417 6.274-3 9-1.3 2.238-2.688 2.63-3 3l29.5-87c-32.707 35.026-59.087 77-70.5 124-1.734 2.06-3.479 10.069-7 8 30.481-76.214 46.493-128.11 122.5-174l56.5-27c4.023-.402 6.183-1.594 9-2 3.301-.475 6.008-1.53 9-2 15.93-2.503 30.615-6.097 47-8 5.267-.612 10.726-1.583 16-2 .655-.052 1.345.048 2 0 12.686-.929 25.237-1.141 38-1"/><path fill="#073c59" d="M701 332c66.984 45.474 87.115 92.694 111 166-9.445-11.552-11.23-27.036-17-40.5-11.847-27.647-35.755-70.367-59-89.5-62.255-65.108-161.628-85.752-249-82-5.17-1.975 5.882-2.952 6.5-3 8.382-.656 17.691.764 26 0 2.739-.252 3.957.971 3.5-3 63.877 2.521 124.789 15.876 178 52"/><path fill="#94f8fa" d="m325 281-48.5 8c-41.961 10.059-92.802 42.42-110.5 83-16.793 38.504-10.168 74.791-6 115-48.38-124.543 45.201-206.425 165-206"/><path fill="#3ab2d4" d="M337 281c15.359.684 32.046 3.376 47 7 4.845 1.174 10.821 2.19 15 5-2.817.406-4.977 1.598-9 2-14.322 1.432-31.168-.247-45.5 1-62.877 5.47-133.994 28.709-174.5 79-3.057.037-2.28-1.899-4-3 17.698-40.58 68.539-72.941 110.5-83l48.5-8c3.972.014 8.038-.176 12 0"/><path fill="url(#c)" d="M736 368c-2.179-1.793-5.872-3.066-7.5-6l-.5 2c-3.952-.871 1.662 8.605-.5 10-30.731-21.268-67.857-36.856-104.5-44 10.504 7.128 22.816 11.029 33.5 18 6.654 4.341 12.769 9.512 18.5 15-76.974-34.629-166.222-35.02-249-26 .489-2.972-.082-12.26 2.5-14 61.671-11.282 123.931-7.748 185 5 .867-.723-1.725-2.886-2-3-19.914-8.235-66.675-11.34-89-12-31.138-.921-62.592-.048-93 7l1-19c-3.049 4-5.236 18.823-9 21-1.029.595-21.817 6.115-23 6-2.693-.261 1.36-5.093-2-5-1.131 1.048.131 2.971-1 4-4.68 4.261-40.392 14.789-50 19-18.819 8.249-37.437 18.335-55 29l-.5-5c7.494-16.147 12.916-20.265 27.5-31 48.188-35.471 110.372-50.461 169.5-53 87.372-3.752 186.745 16.892 249 82" style="fill:url(#c)"/>/&gt;<path fill="#0c7ca5" d="m390 295-56.5 27c-76.007 45.89-92.019 97.786-122.5 174-2.302 5.756-13.202 25.685-17 30l-10-50c2.883-80.154 45.317-133.062 120-159.5-35.079 5.438-84.714 16.958-113.5 38.5-3.478 2.603-18.668 19.978-20.5 20 40.506-50.291 111.623-73.53 174.5-79 14.332-1.247 31.178.432 45.5-1m-113.5 62c-45.645 27.456-80.857 74.042-75 130 9.206-39.694 24.71-78.446 51.5-109.5z"/><path fill="#062a48" d="M845 538v1c-3.159-2.015-11.174-4.142-15-6-.146-.423-3.109-5.977-4-8 5.101-18.118 1.538-36.328-3-54 3.221-2.214 2.246-10.163 2-13.5-2.272-30.789-11.631-63.13-22-92L787 335c18.814 18.963 31.694 37.241 40 63 2.052 6.364 3.58 12.467 5 19 2.164 9.958 2.758 20.168 5.5 30-.822-16.741 2.445-13.756 17-17 .186-.041 1.889 2.088 2 2 1.091-.863.258-4.505.5-6 6.987-43.192-3.729-85.333-14-127 32.2 66.507 25.965 167.744-3 234.5.192 2.265 3.21 3.067 5 4.5"/><path fill="#fafbfc" d="M426 337c-6.959 42.28-4.197 85.416-4 128-4.206-2.932-9.539-6.584-14-9-.984-43.954 1.85-88.608 13.5-131l-24.5 6.5 8.5 109.5c-9.31-19.187-9.561-40.886-13.5-61.5l.5-47.5c-17.206 7.067-34.86 13.649-51 23-10.256 5.941-51.307 34.288-56.5 42.5-5.226 8.265-9.33 27.342-14 37-.437.904-3.977 6.464-6 4.5 9.263-22.541 14.685-46.775 25-69l.5 5c17.563-10.665 36.181-20.751 55-29 9.608-4.211 45.32-14.739 50-19 1.131-1.029-.131-2.952 1-4 3.36-.093-.693 4.739 2 5 1.183.115 21.971-5.405 23-6 3.764-2.177 5.951-17 9-21l-1 19c30.408-7.048 61.862-7.921 93-7 22.325.66 69.086 3.765 89 12 .275.114 2.867 2.277 2 3-61.069-12.748-123.329-16.282-185-5-2.582 1.74-2.011 11.028-2.5 14"/><path fill="#43c1e2" d="M184 476c-.198 5.498-1.349 17.628-1 22l-5-51.5c-8.331 25.511-3.232 56.159 11 78.5.132.454 1.852 2.986 2 4-2.105 1.23-3.955 2.608-6.5 3-1.185-.228-12.132-17.577-13.5-20-4.004-7.091-8.003-17.284-11-25-4.168-40.209-10.793-76.496 6-115 1.72 1.101.943 3.037 4 3 1.832-.022 17.022-17.397 20.5-20 28.786-21.542 78.421-33.062 113.5-38.5-74.683 26.438-117.117 79.346-120 159.5"/><path fill="#d3e6ed" d="M408 456c-29.264-15.845-70.343-25.462-103.5-21L262 448c1.583-2.726 1.829-6.15 3-9 2.023 1.964 5.563-3.596 6-4.5 4.67-9.658 8.774-28.735 14-37 5.193-8.212 46.244-36.559 56.5-42.5 16.14-9.351 33.794-15.933 51-23l-.5 47.5c3.939 20.614 4.19 42.313 13.5 61.5L397 331.5l24.5-6.5c-11.65 42.392-14.484 87.046-13.5 131"/><path fill="#c5cbc9" d="M728 364c.372 12.115 25.738 77.013 24 83-1.871.113-5.662-3.873-6-4-3.271-12.106-11.287-59.785-18.5-67-4.431-4.432-37.559-21.633-45-25-19.105-8.644-39.725-14.17-59.5-21 36.643 7.144 73.769 22.732 104.5 44 2.162-1.395-3.452-10.871.5-10"/><path fill="#658791" d="M746 443c-10.257-3.85-36.022-8.616-47-9 11.229-25.848-5.542-53.322-24-71-5.731-5.488-11.846-10.659-18.5-15-10.684-6.971-22.996-10.872-33.5-18 19.775 6.83 40.395 12.356 59.5 21 7.441 3.367 40.569 20.568 45 25 7.213 7.215 15.229 54.894 18.5 67"/><path fill="#1b5886" d="M823 471c4.538 17.672 8.101 35.882 3 54-4.286-9.739-10.591-16.538-14-27-23.885-73.306-44.016-120.526-111-166 58.388 27.339 105.722 75.614 122 139"/><path fill="url(#d)" d="M675 363c18.458 17.678 35.229 45.152 24 71-34.576-1.208-83.277 16.461-111 37-52.086-6.216-104.976-6.779-157 0-1.69-1.376-6.56-4.299-9-6-.197-42.584-2.959-85.72 4-128 82.778-9.02 172.026-8.629 249 26" style="fill:url(#d)"/>/&gt;<path fill="#38b4d7" d="M276.5 357 253 377.5c-26.79 31.054-42.294 69.806-51.5 109.5-5.857-55.958 29.355-102.544 75-130"/><path fill="#547d89" d="M736 368c23.245 19.133 47.153 61.853 59 89.5 5.77 13.464 7.555 28.948 17 40.5 3.409 10.462 9.714 17.261 14 27 .891 2.023 3.854 7.577 4 8 1.039 2.998 1.204 7.691 2 11l-1 2c-1.23-4.875-4.92-12.13-7-17-8.712-20.402-18.225-31.965-34-47-35.246-33.591-68.962-44.312-118-40-2.713.239-7.895 1.476-11 2-.095-2.821 5.693-3.704 7.5-4 19.619-3.213 39.637-1.988 59 2 5.397 1.112 22.843 10.71 24.5 5 1.738-5.987-23.628-70.885-24-83l.5-2c1.628 2.934 5.321 4.207 7.5 6"/><path fill="#d5e8ef" d="M259 451c-10.305 12.211-29.168 22.94-41 37 11.413-47 37.793-88.974 70.5-124z"/><path fill="#1a4e7a" d="M832 417c-1.42-6.533-2.948-12.636-5-19l7-2c1.402 7.387 2.878 14.919 3 22.5z"/><path fill="#336e84" d="M408 456c4.461 2.416 9.794 6.068 14 9 2.44 1.701 7.31 4.624 9 6 .219.179 2.765 2.907 4 4 10.573 9.355 29.19 32.357 35 45 .75 1.633 1.327 3.334 2 5 8.442 20.897 10.519 50.732 8 73-1.485 13.133-5.638 28.974-11 41-15.68 35.164-56.467 66.982-92.5 79-2.847.95-20.932 6.4-22 6-.639-.239-1.348-3.735-2-4-4.397-1.79-23.182 6.11-28.5 0 128.672.891 205.613-142.089 110-237-8.65-8.586-17.503-17.21-29-22-72.907-45.762-158.871-21.341-200 53-15.427 27.885-20.817 56.055-17 88h-1c-.545-4.281-1.851-9.818-2-14a165 165 0 0 1 0-11c.237-7.442 1.63-18.097 3-25.5.638-3.446 7.69-19.79 4.5-20.5-18.796 5.853-32.337 15.115-38.5 34.5-1.978 6.221-1.218 13.047-2 18.5-.218 1.523-2.828 7.651-3 12-.618 15.597 1.38 30.196 6 45 1.591 5.099 5.381 21.399 12.5 18l-2.5 3.5 19 17.5c-34.245-13.657-40.023-67.816-35-99.5 3.021-19.06 10.455-38.989 30-46 .503-1.23-8.592-16.683-10-19.5l2-3c1.368 2.423 12.315 19.772 13.5 20 2.545-.392 4.395-1.77 6.5-3 3.725-2.176 1.878-1.726 3-3 3.798-4.315 14.698-24.244 17-30 3.521 2.069 5.266-5.94 7-8 11.832-14.06 30.695-24.789 41-37 .312-.37 1.7-.762 3-3l42.5-13c33.157-4.462 74.236 5.155 103.5 21"/><path fill="#2c677e" d="M699 434c10.978.384 36.743 5.15 47 9 .338.127 4.129 4.113 6 4-1.657 5.71-19.103-3.888-24.5-5-19.363-3.988-39.381-5.213-59-2-1.807.296-7.595 1.179-7.5 4-78.388 13.219-134.363 78.566-121 160 2.858 17.414 10.28 33.514 20 48 8.694 12.957 18.818 23.174 31 33 57.093 46.049 114.427 45.945 177.5 12 .886-.477 4.698-2.297 2.5 1-41.792 20.199-60.084 27.83-107 25-42.683-2.575-95.256-39.801-115-80.5-2.519-5.193-3.026-13.853-8-17.5-7.321-38.045-9.48-62.362 3-100 .426-1.285 3.963-3.629 2-6 3.843-.955 12.239-17.904 16-22.5 6.371-7.785 14.18-15.191 22-21.5 1.237-.998 3.773-3.832 4-4 27.723-20.539 76.424-38.208 111-37"/><path fill="#fafdfd" d="M405 461c-22.492-9.371-67.271-20.697-92.5-19-45.855 3.085-79.862 39.097-107.5 72 41.129-74.341 127.093-98.762 200-53"/><path fill="#cceaf2" d="M790 482c-4.012 4.081-7.406 8.32-9 14-.034.12-2.342-.691-2 1.5.325 2.08 23.453 27.801 20 36.5-62.917-147.831-301.659-48.197-227 102 .94 1.891 1.882 5.1 3 7l-15 9c-9.72-14.486-17.142-30.586-20-48 2.958.451 2.001-2.7 2-4.5-.007-11.399-1.337-22.505 0-34 7.843-67.447 68.227-110.826 131.5-121.5l-1.5-2c49.038-4.312 82.754 6.409 118 40"/><path fill="#c6e7f1" d="M405 461c11.497 4.79 20.35 13.414 29 22-2.449 1.935-2.306 1.681-1 4.5 7.564 16.33 19.023 28.433 25 48 2.177 7.127 7.875 20.705-2 20.5-7.135-39.222-37.042-70.684-73-86-18.082-7.702-42.268-12.906-62-11-10.275.857-19.239 2.771-29 6-1.223-3.704-.503-2.614 2.5-4 9.393-4.336 20.236-5.764 30.5-6.5-17.022-15.032-44.959-.664-61.5 9.5-30.541 18.767-59.417 51.269-67 87 6.681-14.861 17.908-36.015 30.5-46.5 2.332-1.942 1.164-.791 4-.5-22.089 23.217-31.677 68.881-28 100 .443 3.747 2.033 12.374 3 16-3.777-12.78-4.589-7.508-16-7-.661-3.339-1.608-7.72-2-11-3.817-31.945 1.573-60.115 17-88 27.638-32.903 61.645-68.915 107.5-72 25.229-1.697 70.008 9.629 92.5 19"/><path fill="#f7fcfc" d="m672 442 1.5 2c-63.273 10.674-123.657 54.053-131.5 121.5-1.337 11.495-.007 22.601 0 34 .001 1.8.958 4.951-2 4.5-13.363-81.434 42.612-146.781 121-160 3.105-.524 8.287-1.761 11-2"/><path fill="#8ff5fa" d="M183 498c.446 5.589 4.282 21.113 6 27-14.232-22.341-19.331-52.989-11-78.5z"/><path fill="#fcfdfd" d="M292 465c-3.455 1.143-6.902 1.978-10 4-1.312.637-.938.967-1 1-26.407 12.126-50.125 36.538-60 64 .084-.262-1.054-2.652 0-5.5 4.462-12.057 14.131-24.738 23-34-4.516 1.054-9.915 6.258-13 9.5-2.836-.291-1.668-1.442-4 .5-12.592 10.485-23.819 31.639-30.5 46.5 7.583-35.731 36.459-68.233 67-87 16.541-10.164 44.478-24.532 61.5-9.5-10.264.736-21.107 2.164-30.5 6.5-3.003 1.386-3.723.296-2.5 4"/><path fill="#0c586d" d="M321 459c-2.513.243-34.923 8.02-39 10 3.098-2.022 6.545-2.857 10-4 9.761-3.229 18.725-5.143 29-6"/><path fill="#278795" d="M383 470c.481 2.073-3.424 14.944-4 15.5-.336.324-7.111-2.098-9-2.5-35.569-7.567-56.32-12.397-90 7-5.549-10.572-11.539-13.288 1-20 .062-.033-.312-.363 1-1 4.077-1.98 36.487-9.757 39-10 19.732-1.906 43.918 3.298 62 11"/><path fill="#035667" d="M799 534c35.154 82.598-22.6 167.452-111 169l-2-6c145.711-5.814 142.632-235.797-12-218-25.528 2.938-39.289 10.701-58 26-9.856 8.059-16.713 12.202-23 24-22.677 29.591-24.591 77.062-1 106 27.744 53.391 104.455 64.497 151 27 6.336-5.104 13.284-12.372 18-19 7.221-10.15 12.216-20.802 15-33 8.644-37.869-2.357-76.14-32-102 1.355-1.793.075-3.277 2.5-2 12.219 6.432 38.927 49.638 41.5 63.5 6.775 36.499-11.708 77.219-40.5 99.5-40.604 31.423-91.284 29.02-134.5 4-16.609-11.008-28.494-21.176-41-37-74.659-150.197 164.083-249.831 227-102"/><path fill="#0a1f34" d="M588 471c-.227.168-2.763 3.002-4 4-49.282-5.499-99.756-6.202-149 0-1.235-1.093-3.781-3.821-4-4 52.024-6.779 104.914-6.216 157 0"/><path fill="#025669" d="M281 470c-12.539 6.712-6.549 9.428-1 20-1.584.912-3.485 2-5 3-7.829-21.808-15.66-14.816-4 3-6.506 4.863-10.946 9.653-16 16-29.107 36.556-35.646 87.153-7 126 8.301 13.545 20.467 23.363 34 31 39.39 22.229 81.841 19.496 117-9 12.476-10.111 17.259-15.861 25-30 3.385-6.182 6.962-12.177 9-19 8.381-28.061 6.174-53.43-8-79-4.34-7.83-11.989-19.076-18.5-25-9.712-8.836-23.068-12.898-32.5-22 28.964 12.203 53.739 36.107 64 66-3.213 1.686.905 6.12 1 6.5.085.34-.506 4.642 0 7 .266 1.24 1.774-1.26 2 0 1.041 5.807-.522 15.086 2 21-.14 68.312-59.429 110.502-124.5 106.5-13.492-.83-26.303-6.084-39.5-8-32.304-14.754-56.686-39.561-64-75-5.968-28.916-2.879-47.42 6-75 9.875-27.462 33.593-51.874 60-64"/><path fill="#5d9eaa" d="M456 556c.43 2.363.983 1.889 1 2 3.517 23.252.303 50.473-11 71-.145-4.904-4.545-3.458-7-7 8.125-23.611 7.001-47.69-1-71-10.261-29.893-35.036-53.797-64-66-.934-.394-3.702-.421-4-2 1.889.402 8.664 2.824 9 2.5.576-.556 4.481-13.427 4-15.5 35.958 15.316 65.865 46.778 73 86"/><path fill="#d6ecf3" d="M584 475c-7.82 6.309-15.629 13.715-22 21.5-3.761 4.596-12.157 21.545-16 22.5-25.352-.7-50.735-1.868-76 1-5.81-12.643-24.427-35.645-35-45 49.244-6.202 99.718-5.499 149 0"/><path fill="#065a82" d="M194 526c-1.122 1.274.725.824-3 3-.148-1.014-1.868-3.546-2-4-1.718-5.887-5.554-21.411-6-27-.349-4.372.802-16.502 1-22z"/><path fill="#024c71" d="M370 483c.298 1.579 3.066 1.606 4 2 9.432 9.102 22.788 13.164 32.5 22 6.511 5.924 14.16 17.17 18.5 25l-45 6c-18.187-17.072-46.6-22.687-70-14-.311-21.281-17.399-26.458-33-14l-2.5-1c.617 7.433-6.512-6.687-8-7-1.387-.292-6.314 5.818-7.5 7-1.04 1.036-2.751 2.146-4 3 5.054-6.347 9.494-11.137 16-16 1.285-.961 2.69-2.134 4-3 1.515-1 3.416-2.088 5-3 33.68-19.397 54.431-14.567 90-7"/><path fill="#04243f" d="M686 697c-29.349 1.171-49.501-8.426-73-24 43.216 25.02 93.896 27.423 134.5-4 28.792-22.281 47.275-63.001 40.5-99.5-2.573-13.862-29.281-57.068-41.5-63.5-2.425-1.277-1.145.207-2.5 2-11.446-9.985-27.415-17.915-42-22-9.067-2.54-21.261-2.416-28-7 154.632-17.797 157.711 212.186 12 218"/><path fill="#278795" d="M275 493c-1.31.866-2.715 2.039-4 3-11.66-17.816-3.829-24.808 4-3"/><path fill="#10355c" d="M674 479c6.739 4.584 18.933 4.46 28 7-12.577 14.529-38.278 6.606-50 23-8.622-14.507-26.778-3.002-35 6 .328-.913 2.017-5.208 2-5.5-.042-.723-3.762-2.461-3-4.5 18.711-15.299 32.472-23.062 58-26"/><path fill="#a9cfd9" d="M824 529c-.876 6.358-8.938 7.681-13 12-6.681-17.234-17.258-31.811-30-45 1.594-5.68 4.988-9.919 9-14 15.775 15.035 25.288 26.598 34 47"/><path fill="#8fbcc7" d="M324 720c-20.326-.141-36.283-3.359-55-11-40.542-16.551-70.469-52.919-79-96 11.411-.508 12.223-5.78 16 7 23.596 88.448 144.983 104.726 209.5 49 6.45-5.571 28.879-30.842 30.5-38 18.46-17.725 21.141-50.552 16.5-75l-5.5 2c-.017-.111-.57.363-1-2 9.875.205 4.177-13.373 2-20.5-5.977-19.567-17.436-31.67-25-48-1.306-2.819-1.449-2.565 1-4.5 95.613 94.911 18.672 237.891-110 237"/><path fill="#205783" d="M744 508c29.643 25.86 40.644 64.131 32 102-2.419 1.312-9.991-3.198-10.5-3-1.211.471-6.62 21.324-11.5 23-1.881-7.391-11.08-10.839-18-9 32.988-56.357-21.586-116.324-81-97 .117-4.512-.692-11.117-3-15 11.722-16.394 37.423-8.471 50-23 14.585 4.085 30.554 12.015 42 22"/><path fill="#5e9ca9" d="M221 534c-8.879 27.58-11.968 46.084-6 75-3.213.51-1.609-5.047-3.5-6-2.361-1.19-5.973 1.868-8.5 1-3.677-31.119 5.911-76.783 28-100 3.085-3.242 8.484-8.446 13-9.5-8.869 9.262-18.538 21.943-23 34-1.054 2.848.084 5.238 0 5.5"/><path fill="#3e7a88" d="M781 496c12.742 13.189 23.319 27.766 30 45 41.534 107.137-70.132 210.883-174 156 1.79-4.036 5.011.378 7.5 1 13.67 3.417 29.391 5.247 43.5 5 88.4-1.548 146.154-86.402 111-169 3.453-8.699-19.675-34.42-20-36.5-.342-2.191 1.966-1.38 2-1.5"/><path fill="#0b7ea7" d="M277 510c-7.121 5.687-11.508 16.309-16 24-5.889 10.082-5.644 8.213-9 19l-13-5c4.316-14.274 11.827-26.847 20-39 1.186-1.182 6.113-7.292 7.5-7 1.488.313 8.617 14.433 8 7z"/><path fill="#fefefe" d="M652 509c2.308 3.883 3.117 10.488 3 15-.478 18.461-18.231 52.997-40 51-.379-.035-6.692-2.776-7-3-6.24-4.523-7.912-15.95-7-23 4.415-12.398 12.366-23.867 16-34 8.222-9.002 26.378-20.507 35-6m-342 15c.267 18.284-19.552 55.022-41 51-1.811-.34-3.492-1-5-2-13.872-9.206-6.701-26.424-3-39 4.492-7.691 8.879-18.313 16-24 15.601-12.458 32.689-7.281 33 14"/><path fill="#1e5783" d="M617 515c-3.634 10.133-11.585 21.602-16 34-2.354 6.611-6.148 12.182-7 20l-13-1c1.708-12.267 6.14-28.004 12-39 6.287-11.798 13.144-15.941 23-24-.762 2.039 2.958 3.777 3 4.5.017.292-1.672 4.587-2 5.5"/><path fill="#5ad2e6" d="M239 548c-1.397 4.621-2.238 8.215-3 13-4.238 26.601-2.353 53.578 12 77-28.646-38.847-22.107-89.444 7-126 1.249-.854 2.96-1.964 4-3-8.173 12.153-15.684 24.726-20 39"/><path fill="#08192d" d="M546 519c1.963 2.371-1.574 4.715-2 6h-72c-.673-1.666-1.25-3.367-2-5 25.265-2.868 50.648-1.7 76-1"/><path fill="url(#e)" d="M380 538c22.313 20.946 25.612 56.228 10 82-6.451 1.364-6.561 6.408-10 9-48.643 36.664-110.408 5.799-111-54 21.448 4.022 41.267-32.716 41-51 23.4-8.687 51.813-3.072 70 14m-14.5 65c-14.237 3.656-11.858 29.93 6 28 17.394-1.88 16.661-33.819-6-28" style="fill:url(#e)"/>/&gt;<path fill="url(#f)" d="M736 621c-7.676 2.04-6.293 6.761-11 10-36.911 25.395-89.049 17.194-106-27-3.272-8.531-6.624-20.047-4-29 21.769 1.997 39.522-32.539 40-51 59.414-19.324 113.988 40.643 81 97m-20.5-18c-22.519 1.106-13.992 37.835 7 27 12.81-6.612 8.357-27.754-7-27" style="fill:url(#f)"/>/&gt;<path fill="url(#g)" d="M544 525c-12.48 37.638-10.321 61.955-3 100 15.413 80.1 52.695 90.283 102 144-25.811 65.137-85.331 120.795-157.5 126-14.901 1.075-30.965-.797-46 0-.488.789 4.208 4.833 4.5 5l-71-36c2.034.827 5.299 1.323 7.5 2 1.684-1.47-.14-2.372-.5-3-10.304-20.373-22.14-39.927-33-60 81.957-5.456 143.523-112.835 138-187.5-.405-5.479-1.724-13.254-5-17.5 2.519-22.268.442-52.103-8-73zm-59 302c-4.869 1.904 7.994 19.143 10.5 21 18.165 13.457 39.338-7.06 43.5-25 17.141-13.011 27.46-42.533 48-54.5-8.464 1.999-18.717 5.2-27.5 3.5-14.469-2.8-18.787-24.799-40-24-3.774.142-11.58 4.246-14 4-.401-.041-4.69-3.653-7-4-21.723-3.265-38.764 38.172-66.5 28.5 22.549 8.149 34.684 40.909 53 50.5" style="fill:url(#g)"/>/&gt;<path fill="#5dc9dd" d="M581 568c-1.514 10.872-2.166 20.006-1 31 1.511 14.254 5.6 23.683 12 36-23.591-28.938-21.677-76.409 1-106-5.86 10.996-10.292 26.733-12 39"/><path fill="#8ebcc6" d="M831 546c11.048 43.774-1.908 101.685-33 135-.282.302-.665.651-1 1-3.241 3.375-10.982 8.767-15 12-3.715.657-7.66 2.386-11 4 2.198-3.297-1.614-1.477-2.5-1-63.073 33.945-120.407 34.049-177.5-12l9-13c9.417 8.342 25.824 19.095 37 25 103.868 54.883 215.534-48.863 174-156 4.062-4.319 12.124-5.642 13-12 2.08 4.87 5.77 12.125 7 17"/><path fill="#a4d2dd" d="m185 577-33 7c.782-5.453.022-12.279 2-18.5 6.163-19.385 19.704-28.647 38.5-34.5 3.19.71-3.862 17.054-4.5 20.5-1.37 7.403-2.763 18.058-3 25.5"/><path fill="#0b7ea7" d="M425 532c14.174 25.57 16.381 50.939 8 79-3.026 1.893-11.052-3.58-12.5-3-.942.378-5.176 13.91-6.5 16-1.077 1.699-4.307 5.74-7 5-2.048-7.065-7.011-9.113-14-9-.954.015-2.145-.181-3 0 15.612-25.772 12.313-61.054-10-82z"/><path fill="#a5d3dc" d="M845 539c3.632 2.317 9.125 8.524 12 12l-22 5c-.556-3.862-2.078-8.165-3-12-.796-3.309-.961-8.002-2-11 3.826 1.858 11.841 3.985 15 6"/><path fill="#3dbad6" d="M261 534c-3.701 12.576-10.872 29.794 3 39-3.011-.435-1.936 2.672-2 4.5-1.75 50.21 52.692 87.449 99.5 74.5 4.384-1.213 16.538-8.778 18-9 1.198-.182 2.236 1.555 4.5 2 1.289.253 5.53 2.968 6.5 3 11.043.361 19.706-7.941 16.5-19 2.693.74 5.923-3.301 7-5l10 6c-7.741 14.139-12.524 19.889-25 30l-39.5 19-4-12c-14.618 3.172-30.68 3.042-45-1-2.952-.833-12.096-8.793-16-6l11.5 4.5c-4.644 19.591-10.702 6.997-24 4.5-13.533-7.637-25.699-17.455-34-31-14.353-23.422-16.238-50.399-12-77 2.228-1.124 11.899 2.198 12.5 2 1.258-.415 2.89-8.041 3.5-10 3.356-10.787 3.111-8.918 9-19"/><path fill="#255e74" d="M874 596h-1c.198-3.714-2.504-9.332-3-12-3.05-16.401-1.879-19.558-13-33-2.875-3.476-8.368-9.683-12-12v-1c22.75 18.217 26.867 27.863 29 58"/><path fill="#3e707e" d="M835 556c.935 6.488 1.905 14.516 2 21 .061 4.194-.766 7.878-1 12-.463 8.158-1.462 16.003-3 24-2.025 10.533-5.998 20.616-8.5 31l42-2c3.915-1.629 8.875-40.462 5.5-46h2c2.026 28.629-6.559 80.742-40.5 88-10.576 2.262-21.236-.878-30.5 2 .258-4.116.932-4.32-5-5 31.092-33.315 44.048-91.226 33-135l1-2c.922 3.835 2.444 8.138 3 12"/><path fill="#19a0c5" d="M252 553c-.61 1.959-2.242 9.585-3.5 10-.601.198-10.272-3.124-12.5-2 .762-4.785 1.603-8.379 3-13z"/><path fill="#42b6d1" d="M608 572c-1.32 11.055.738 20.653 4 31 12.104 38.391 53.305 58.798 92 50l5 13c-12.812 3.537-25.2 4.566-38.5 4-3.307-.141-16.174-4.282-17-4-.615.21-6.099 10.992-5 12 22.544 6.297 45.119 5.293 67-3l-2.5-10c6.282-2.1 23.092-13.908 24.5-14 1.776-.116 7.888 8.668 5.5 11-46.545 37.497-123.256 26.391-151-27-6.4-12.317-10.489-21.746-12-36 2.57-2.403 14.012-2.312 15-3.5.848-1.02-1.561-21.354-1-26.5.852-7.818 4.646-13.389 7-20-.912 7.05.76 18.477 7 23"/><path fill="#03374c" d="M439 622c-21.988 63.893-101.2 88.854-160 62 13.197 1.916 26.008 7.17 39.5 8 65.071 4.002 124.36-38.188 124.5-106.5-2.522-5.914-.959-15.193-2-21-.226-1.26-1.734 1.24-2 0-.506-2.358.085-6.66 0-7-.095-.38-4.213-4.814-1-6.5 8.001 23.31 9.125 47.389 1 71"/><path fill="#8bb8c3" d="M857 551c11.121 13.442 9.95 16.599 13 33l-33-7c-.095-6.484-1.065-14.512-2-21z"/><path fill="#b0d7e1" d="M446 631c.127-.56.019-1.365 0-2 11.303-20.527 14.517-47.748 11-71l5.5-2c4.641 24.448 1.96 57.275-16.5 75"/><path fill="#2093b9" d="M594 569c-.561 5.146 1.848 25.48 1 26.5-.988 1.188-12.43 1.097-15 3.5-1.166-10.994-.514-20.128 1-31z"/><path fill="#2b87af" d="M615 575c-2.624 8.953.728 20.469 4 29-3.287-1.958-3.122-1.747-7-1-3.262-10.347-5.32-19.945-4-31 .308.224 6.621 2.965 7 3"/><path fill="#1c9ec3" d="M264 573c1.508 1 3.189 1.66 5 2 .592 59.799 62.357 90.664 111 54 .378 2.716-.533 6.511 0 9 .619 2.89 2.304 4.77 4 7-2.264-.445-3.302-2.182-4.5-2-1.462.222-13.616 7.787-18 9-46.808 12.949-101.25-24.29-99.5-74.5.064-1.828-1.011-4.935 2-4.5"/><path fill="#fdfdfe" d="M185 577a165 165 0 0 0 0 11c-11.202 1.271-22.187 3.996-33 7-1.099.305-1.583 1.41-3 1 .172-4.349 2.782-10.477 3-12z"/><path fill="#fbfcfd" d="M870 584c.496 2.668 3.198 8.286 3 12h-1c-.627 0-1.793-.129-2 0l-34-7c.234-4.122 1.061-7.806 1-12z"/><path fill="#c0d0db" d="M185 588c.149 4.182 1.455 9.719 2 14 .3 2.356-.027 4.717 1 7-12.953 8.195-16.53 12.807-29.5 2-.537-.447-3.659.683-4.5-.5-1.354-1.906 2.342-12.932-2-15.5 10.813-3.004 21.798-5.729 33-7"/><path fill="#becdd9" d="M870 596c-6.14 3.812-1.386 11.415-4 15.5-.709 1.108-14.498 7.911-16.5 7.5-.899-.184-10.938-8.88-16.5-6 1.538-7.997 2.537-15.842 3-24z"/><path fill="#94a7b5" d="m188 609 8.5 35-41.5-3c-4.62-14.804-6.618-29.403-6-45 1.417.41 1.901-.695 3-1 4.342 2.568.646 13.594 2 15.5.841 1.183 3.963.053 4.5.5 12.97 10.807 16.547 6.195 29.5-2"/><path fill="#93a6b4" d="M870 596c.207-.129 1.373 0 2 0 3.375 5.538-1.585 44.371-5.5 46l-42 2c2.502-10.384 6.475-20.467 8.5-31 5.562-2.88 15.601 5.816 16.5 6 2.002.411 15.791-6.392 16.5-7.5 2.614-4.085-2.14-11.688 4-15.5"/><path fill="#91b8c3" d="M347 803c-11.718-21.658-23.469-50.267-36-70 19.448 1.191 38.946 5.07 58.5 3 47.141-4.99 96.358-48.704 99.5-97 5.362-12.026 9.515-27.867 11-41 3.276 4.246 4.595 12.021 5 17.5 5.523 74.665-56.043 182.044-138 187.5"/><path fill="#3f7280" d="M190 613c8.531 43.081 38.458 79.449 79 96-2.793 1.796-4.319 1.15-2 5-15.672-7.567-28.441-17.338-42-28-.829-1.29-2.064-2.366-2.5-4-4.034-1.129-3.299 1.992-3.5 2-12.817.514-23.055.764-35-4l-19-17.5 2.5-3.5c-7.119 3.399-10.909-12.901-12.5-18l41.5 3-8.5-35c-1.027-2.283-.7-4.644-1-7h1c.392 3.28 1.339 7.661 2 11"/><path fill="#1a9ec2" d="M619 604c16.951 44.194 69.089 52.395 106 27 1.336 6.992 1.402 11.061 7 16-3.147-.657-4.322-4.036-6.5-4-1.185.02-15.745 8.691-21.5 10-38.695 8.798-79.896-11.609-92-50 3.878-.747 3.713-.958 7 1"/><path fill="#538896" d="M215 609c7.314 35.439 31.696 60.246 64 75 58.8 26.854 138.012 1.893 160-62 2.455 3.542 6.855 2.096 7 7 .019.635.127 1.44 0 2-1.621 7.158-24.05 32.429-30.5 38-64.517 55.726-185.904 39.448-209.5-49-.967-3.626-2.557-12.253-3-16 2.527.868 6.139-2.19 8.5-1 1.891.953.287 6.51 3.5 6"/><path fill="#fefefe" d="M365.5 603c22.661-5.819 23.394 26.12 6 28-17.858 1.93-20.237-24.344-6-28m350 0c15.357-.754 19.81 20.388 7 27-20.992 10.835-29.519-25.894-7-27"/><path fill="#2093b9" d="M776 610c-2.784 12.198-7.779 22.85-15 33l-8-4c.933-2.576 1.649-6.45 1-9 4.88-1.676 10.289-22.529 11.5-23 .509-.198 8.081 4.312 10.5 3"/><path fill="#19a0c6" d="M433 611c-2.038 6.823-5.615 12.818-9 19l-10-6c1.324-2.09 5.558-15.622 6.5-16 1.448-.58 9.474 4.893 12.5 3"/><path fill="#e4f4f7" d="M390 620c.855-.181 2.046.015 3 0 1.384 9.168-8.973 11.57-13 18-.533-2.489.378-6.284 0-9 3.439-2.592 3.549-7.636 10-9"/><path fill="#fcfefe" d="M407 629c3.206 11.059-5.457 19.361-16.5 19-.97-.032-5.211-2.747-6.5-3-1.696-2.23-3.381-4.11-4-7 4.027-6.43 14.384-8.832 13-18 6.989-.113 11.952 1.935 14 9"/><path fill="#fbfdfe" d="M754 630c.649 2.55-.067 6.424-1 9-3.633 10.03-12.256 9.825-21 8-5.598-4.939-5.664-9.008-7-16 4.707-3.239 3.324-7.96 11-10 6.92-1.839 16.119 1.609 18 9"/><path fill="url(#h)" d="M664 723c-.863 2.765 10.402 3.889 11.5 4 25.792 2.602 52.547-1.215 76-12l-6.5 15c-3.535 5.238-6.503 10.811-10 16-18.472 27.405-34.573 50.456-57 75-7.723-20.85-20.322-36.009-35-52-49.305-53.717-86.587-63.9-102-144 4.974 3.647 5.481 12.307 8 17.5 19.744 40.699 72.317 77.925 115 80.5" style="fill:url(#h)"/>/&gt;<path fill="#2c6878" d="M613 673c23.499 15.574 43.651 25.171 73 24l2 6c-14.109.247-29.83-1.583-43.5-5-2.489-.622-5.71-5.036-7.5-1-11.176-5.905-27.583-16.658-37-25-7.244-6.417-20.156-20.763-25-29-1.118-1.9-2.06-5.109-3-7 12.506 15.824 24.391 25.992 41 37"/><path fill="#6695a1" d="M311 733c-7.381-11.624-8.978-5.315-20.5-9-6.201-1.983-13.561-4.44-19.5-7-.699-.301-3.239-2.632-4-3-2.319-3.85-.793-3.204 2-5 18.717 7.641 34.674 10.859 55 11 5.318 6.11 24.103-1.79 28.5 0 .652.265 1.361 3.761 2 4 1.068.4 19.153-5.05 22-6 36.033-12.018 76.82-43.836 92.5-79-3.142 48.296-52.359 92.01-99.5 97-19.554 2.07-39.052-1.809-58.5-3"/><path fill="#25aecf" d="M761 643c-4.716 6.628-11.664 13.896-18 19 2.388-2.332-3.724-11.116-5.5-11-1.408.092-18.218 11.9-24.5 14-.869.29-2.7.641-4 1l-5-13c5.755-1.309 20.315-9.98 21.5-10 2.178-.036 3.353 3.343 6.5 4 8.744 1.825 17.367 2.03 21-8z"/><path fill="#a9cfd9" d="M575 643c4.844 8.237 17.756 22.583 25 29l-9 13c-12.182-9.826-22.306-20.043-31-33z"/><path fill="#72cfe1" d="M399 660c-35.159 28.496-77.61 31.229-117 9 13.298 2.497 19.356 15.091 24-4.5l-11.5-4.5c3.904-2.793 13.048 5.167 16 6 14.32 4.042 30.382 4.172 45 1l4 12z"/><path fill="#6dcbdd" d="m713 665 2.5 10c-21.881 8.293-44.456 9.297-67 3-1.099-1.008 4.385-11.79 5-12 .826-.282 13.693 3.859 17 4 13.3.566 25.688-.463 38.5-4 1.3-.359 3.131-.71 4-1"/><path fill="#09334d" d="M803 686c-1.016 16.191-38.721 73.496-50 88.5-54.603 72.634-154.588 151.404-250.5 146.5-119.382-6.105-243.889-129.252-283.5-237 .201-.008-.534-3.129 3.5-2 .436 1.634 1.671 2.71 2.5 4 5.887 9.16 11.805 28.393 18 39.5 16.834 30.182 39.21 56.719 63 81.5 14.761 15.376 48.137 49.327 67 57l71 36c41.017 23.396 109.844 9.954 151-7 24.676-10.165 42.361-20.725 64-36 54.104-38.193 115.533-106.962 139-169.5.367-.979 2.316-6.173-1-5.5.335-.349.718-.698 1-1 5.932.68 5.258.884 5 5"/><path fill="#628693" d="M659 857c24.43-37.472 57.971-69.781 76-111 3.497-5.189 6.465-10.762 10-16 2.08-3.083 4.955-6.227 7-9.5 1.54-2.464.402-5.947 1.5-7.5.994-1.405 23.073-14.633 28.5-19 4.018-3.233 11.759-8.625 15-12 3.316-.673 1.367 4.521 1 5.5-23.467 62.538-84.896 131.307-139 169.5"/><path fill="#92bac5" d="M267 714c.761.368 3.301 2.699 4 3 14.478 33.144 35.867 62.274 60 89l-25 1c-23.79-24.781-46.166-51.318-63-81.5-6.195-11.107-12.113-30.34-18-39.5 13.559 10.662 26.328 20.433 42 28"/><path fill="#5f8b9a" d="M782 694c-5.427 4.367-27.506 17.595-28.5 19-1.098 1.553.04 5.036-1.5 7.5-2.045 3.273-4.92 6.417-7 9.5l6.5-15c-23.453 10.785-50.208 14.602-76 12-1.098-.111-12.363-1.235-11.5-4 46.916 2.83 65.208-4.801 107-25 3.34-1.614 7.285-3.343 11-4"/><path fill="#ecf2f5" d="M311 733c12.531 19.733 24.282 48.342 36 70 10.86 20.073 22.696 39.627 33 60-15.015-26.172-30.309-36.301-49-57-24.133-26.726-45.522-55.856-60-89 5.939 2.56 13.299 5.017 19.5 7 11.522 3.685 13.119-2.624 20.5 9"/><path fill="#93b7c3" d="M659 857c-21.639 15.275-39.324 25.835-64 36 30.565-21.181 57.899-44.529 83-72 22.427-24.544 38.528-47.595 57-75-18.029 41.219-51.57 73.528-76 111"/><path fill="#551c22" d="M539 823c-14.497 11.004-38.147 12.302-54 4-18.316-9.591-30.451-42.351-53-50.5 27.736 9.672 44.777-31.765 66.5-28.5 2.31.347 6.599 3.959 7 4 2.42.246 10.226-3.858 14-4 21.213-.799 25.531 21.2 40 24 8.783 1.7 19.036-1.501 27.5-3.5-20.54 11.967-30.859 41.489-48 54.5m-85-41c3.143.8 6.794 1.497 10 2 13.075 2.05 53.905 7.236 65 5 2.702-.545 28.216-12.211 29-9.5-5.793 2.526-11.951 6.028-18 8.5-6.644 2.715-11.388 5.527-19 6-15.144.941-34.39-5.828-50-6l-31-7.5c21.569 10.289 28.915 37.268 52 44.5 35.737 11.195 50.371-8.592 69-34 4.516-6.159 7.935-11.458 14-16.5-10.708 1.227-17.706 1.116-27-4.5-11.619-7.02-15.317-20.592-33-17-2.606.529-5.693-.506-6 4-4.17-.951-6.855-5.378-10-6-17.609-3.48-32.927 29.795-53.5 28 2.043 1.964 5.714 2.291 8.5 3"/><path fill="#ecd3db" d="M499 751c-1.997 4.75 4.524 6.233 4 12-3.652.633-5.398 1.591-10.5 2-.582.047-5.621-3.997-10 2l11.5-11.5c.399-8.557-19.262 14.532-20.5 15.5-3.191 2.495-17.529 6.433-11 9l-8.5 2c-2.786-.709-6.457-1.036-8.5-3 20.573 1.795 35.891-31.48 53.5-28"/><path fill="#ac7795" d="M509 757c3.767.859 5.721 1.559 6-4 17.683-3.592 21.381 9.98 33 17-4.737 2.741-14.885 7.028-20 8-5.355 1.017-8.74.832-14 1l1-11c5.425.98 13.796-2.894 7.5-8-7.544-6.118-10.633 2.49-12.5 3-1.187.324-5.269-.3-7 0 .524-5.767-5.997-7.25-4-12 3.145.622 5.83 5.049 10 6"/><path fill="#fbfafb" d="M515 753c-.279 5.559-2.233 4.859-6 4 .307-4.506 3.394-3.471 6-4"/><path fill="#c58da8" d="M503 763c1.731-.3 5.813.324 7 0-1.092 2.432 2.999 4.638 5 5l-1 11c-8.139.26-17.59-1.546-26.5-1-5.653.346-20.138 1.847-23.5 6-3.206-.503-6.857-1.2-10-2l8.5-2c-6.529-2.567 7.809-6.505 11-9 1.238-.968 20.899-24.057 20.5-15.5L482.5 767c4.379-5.997 9.418-1.953 10-2 5.102-.409 6.848-1.367 10.5-2"/><path fill="#fefdfe" d="M515 768c-2.001-.362-6.092-2.568-5-5 1.867-.51 4.956-9.118 12.5-3 6.296 5.106-2.075 8.98-7.5 8"/><path fill="#698a94" d="M678 821c-25.101 27.471-52.435 50.819-83 72-41.156 16.954-109.983 30.396-151 7-.292-.167-4.988-4.211-4.5-5 15.035-.797 31.099 1.075 46 0 72.169-5.205 131.689-60.863 157.5-126 14.678 15.991 27.277 31.15 35 52"/><path fill="#835475" d="m561 791-22.5 21c4.552-10.977 16.461-15.03 1.5-24 6.049-2.472 12.207-5.974 18-8.5-.784-2.711-26.298 8.955-29 9.5l-1-11c5.115-.972 15.263-5.259 20-8 9.294 5.616 16.292 5.727 27 4.5-6.065 5.042-9.484 10.341-14 16.5"/><path fill="#a76885" d="M514 779c5.26-.168 8.645.017 14-1l1 11c-11.095 2.236-51.925-2.95-65-5 3.362-4.153 17.847-5.654 23.5-6 8.91-.546 18.361 1.26 26.5 1"/><path fill="#c0849b" d="m471 788-9 5.5c10.067 6.382 26.03 18.016 38 19.5-2.591 5.555-.804 12.922-8 12-23.085-7.232-30.431-34.211-52-44.5z"/><path fill="#d19cb5" d="M521 794c2.527 2.977 13.608 3.295 13 8.5-8.595 8.816-21.943 11.995-34 10.5-11.97-1.484-27.933-13.118-38-19.5l9-5.5c15.61.172 34.856 6.941 50 6"/><path fill="#a06a88" d="M561 791c-18.629 25.408-33.263 45.195-69 34 7.196.922 5.409-6.445 8-12 12.057 1.495 25.405-1.684 34-10.5.608-5.205-10.473-5.523-13-8.5 7.612-.473 12.356-3.285 19-6 14.961 8.97 3.052 13.023-1.5 24z"/><path fill="#a4c7d2" d="M331 806c18.691 20.699 33.985 30.828 49 57 .36.628 2.184 1.53.5 3-2.201-.677-5.466-1.173-7.5-2-18.863-7.673-52.239-41.624-67-57z"/><path fill="#70939d" d="M485 827c15.853 8.302 39.503 7.004 54-4-4.162 17.94-25.335 38.457-43.5 25-2.506-1.857-15.369-19.096-10.5-21"/></svg>