<svg xmlns="http://www.w3.org/2000/svg" width="1024" height="1024"><defs><linearGradient id="a" x1="653.706" x2="801.266" y1="273.614" y2="408.617" gradientUnits="userSpaceOnUse"><stop offset="0%" style="stop-color:#8eb6c6"/><stop offset="100%" style="stop-color:#7291a0"/></linearGradient></defs><defs><linearGradient id="b" x1="485.973" x2="566.506" y1="406.407" y2="725.398" gradientUnits="userSpaceOnUse"><stop offset="0%" style="stop-color:#015585"/><stop offset="100%" style="stop-color:#007aa7"/></linearGradient></defs><defs><linearGradient id="c" x1="453.654" x2="563.356" y1="306.996" y2="678.122" gradientUnits="userSpaceOnUse"><stop offset="0%" style="stop-color:#137c96"/><stop offset="100%" style="stop-color:#40cdef"/></linearGradient></defs><defs><linearGradient id="d" x1="390.34" x2="531.319" y1="373.397" y2="411.357" gradientUnits="userSpaceOnUse"><stop offset="0%" style="stop-color:#eef6fa"/><stop offset="100%" style="stop-color:#82bccc"/></linearGradient></defs><defs><linearGradient id="e" x1="395.299" x2="627.201" y1="402.635" y2="592.955" gradientUnits="userSpaceOnUse"><stop offset="0%" style="stop-color:#01213a"/><stop offset="77.333%" style="stop-color:#063f61"/></linearGradient></defs><defs><linearGradient id="f" x1="439.124" x2="555.485" y1="494.054" y2="554.23" gradientUnits="userSpaceOnUse"><stop offset="0%" style="stop-color:#43d5eb"/><stop offset="100%" style="stop-color:#2fb5d5"/></linearGradient></defs><defs><linearGradient id="g" x1="472.901" x2="773.853" y1="665.703" y2="774.46" gradientUnits="userSpaceOnUse"><stop offset="0%" style="stop-color:#87adbc"/><stop offset="76.25%" style="stop-color:#648593"/><stop offset="100%" style="stop-color:#3a6374"/></linearGradient></defs><defs><linearGradient id="h" x1="537.762" x2="644.163" y1="666.149" y2="684.664" gradientUnits="userSpaceOnUse"><stop offset="0%" style="stop-color:#7ce3f7"/><stop offset="100%" style="stop-color:#dbf7fe"/></linearGradient></defs><defs><linearGradient id="i" x1="417.222" x2="569.216" y1="735.201" y2="838.901" gradientUnits="userSpaceOnUse"><stop offset="0%" style="stop-color:#adcedd"/><stop offset="100%" style="stop-color:#87a9b8"/></linearGradient></defs><path fill="url(#a)" d="M839 391c-15.623 2.457-27.948 13.917-37.5 26-9.849-21.508-25.19-37.048-39.5-55-4.635-5.815-7.887-11.11-13-17-.874-13.992-6.189-30.211-11-43.5-12.305-33.987-46.646-98.873-75.5-120.5-39.723-29.775-136.831-43.974-185.5-41 96.69-12.365 196.449 24.875 266.5 91 42.588 40.201 82.332 102.622 95.5 160" style="fill:url(#a)"/>/&gt;<path fill="#aec6d2" d="M477 140c48.669-2.974 145.777 11.225 185.5 41 28.854 21.627 63.195 86.513 75.5 120.5 4.811 13.289 10.126 29.508 11 43.5-34.282-39.492-74.172-73.682-125.5-88 41.714 22.802 74.718 49.172 105.5 86l-1 1c-34.667-42.63-60.944-52.42-106-78 2.27-2.863-3.81-3.445-6-4-.532-.398-.471-4.221-4.5-6-1.094-.483-1.899 1.048-2 1-13.349-6.268-27.226-9.623-42-11-1.049-1.752 2.215-.114.5-2-.159-.174-1.915-3.826-2.5-4-34.493-2.806-69.379-4.887-104-1-102.515 11.509-202.161 84.893-232 185-4.258 2.355-13.098-13.626-15.5-16 1.782.632 2.684-2.376 3-3.5C250.903 283.902 321.649 202.019 442.5 164c13.714-4.314 29.778-6.658 43-11 .946-.311 4.723-1.345 3-3-140.363 9.82-255.769 108.515-297.5 241-.749 2.377-3.979 7.114-4 9.5-.025 2.848 4.348.138 2 3.5-4.173-.845-5.684-1.267-10 0 19.818-132.289 166.259-255.95 298-264"/><path fill="#eaf3f6" d="M214 408c-6.272-6.199-15.186-12.764-23-17 41.731-132.485 157.137-231.18 297.5-241 1.723 1.655-2.054 2.689-3 3-13.222 4.342-29.286 6.686-43 11C321.649 202.019 250.903 283.902 217 404.5c-.316 1.124-1.218 4.132-3 3.5"/><path fill="#7da3b2" d="M568 244c-128.079-27.365-263.03 40.644-315 160.5-8.326 19.202-15.956 41.556-16 62.5-.579 2.671-.265 7.277-2 9.5-2.507-24.116-19.307-67.095-46-72.5 2.348-3.362-2.025-.652-2-3.5.021-2.386 3.251-7.123 4-9.5 7.814 4.236 16.728 10.801 23 17 2.402 2.374 11.242 18.355 15.5 16 29.839-100.107 129.485-173.491 232-185 34.621-3.887 69.507-1.806 104 1 .585.174 2.341 3.826 2.5 4"/><path fill="#d0e6f0" d="M568 244c1.715 1.886-1.549.248-.5 2 14.774 1.377 28.651 4.732 42 11 .101.048.906-1.483 2-1 4.029 1.779 3.968 5.602 4.5 6-176.653-44.737-337.935 15.42-379 205 .044-20.944 7.674-43.298 16-62.5C304.97 284.644 439.921 216.635 568 244"/><path fill="#04233f" d="M616 262c2.375 1.777 3.385 2.515 6 4 45.056 25.58 71.333 35.37 106 78 26.127 32.128 47.005 74.98 54 116 1.306 7.656.527 16.985 4 24-1.103 7.616-1.436 15.331-2 23-1.279-8.042-2.485-15.994-4-24 2.153-2.72 1.399-7.484 1-10.5-36.742-277.666-452.895-307.725-532-35.5-1.27 4.37-2.93 8.504-4 13-1.972 8.285-4.389 20.916-3 29-7.023 32.749-6.766 53.665 2 86-1.936 7.274.703 16.353 3 23.5 79.075 246.013 474.713 232.049 529-8 .45-1.989 2.049-6.697-1-7.5 2.979-8.952 5.536-17.899 8-27-.094 1.314.115 2.691 0 4a219 219 0 0 1-2 16c-15.327 95.065-101.469 170.768-191.5 195-157.544 42.402-333.086-50.799-353.5-218.5-4.289-.783-1.189 8.631-1 10.5-8.007 26.985-21.313 65.988-56 64-.532-5.079.997-2.533 1-3 21.171 2.556 34.128-18.504 42-35 6.735-14.114 8.844-22.493 11-38 1.037-7.458 1.664-12.317 2-20 .405-9.273 1.479-18.861 0-28-.676-23.82-17.153-75.028-42-83-5.612-1.801-8.985-3.254-15.5-1-1.992-2.394 1.256-3.371 1.5-5 4.316-1.267 5.827-.845 10 0 26.693 5.405 43.493 48.384 46 72.5 1.735-2.223 1.421-6.829 2-9.5 41.065-189.58 202.347-249.737 379-205M243.5 451c-.662-.13-4.743 12.708-3 13 .463-1.415 4.553-12.695 3-13"/><path fill="#165875" d="M780 483c-3.155-16.671-7.864-32.228-14-48-20.04-51.512-56.705-93.129-102-124-10.11-6.89-19.999-13.556-31-19-119.287-59.033-263.547-23.533-343 82-8.427 11.193-16.518 23.565-23 36-10.737 20.599-20.129 46.287-25 69-1.389-8.084 1.028-20.715 3-29 2.998-1.091 5.173-10.032 4-13 79.105-272.225 495.258-242.166 532 35.5.399 3.016 1.153 7.78-1 10.5"/><path fill="#759bab" d="M749 345c5.113 5.89 8.365 11.185 13 17l-10 9c-6.497-9.699-15.477-19-23-28-30.782-36.828-63.786-63.198-105.5-86 51.328 14.318 91.218 48.508 125.5 88"/><path fill="#d0e6f0" d="M622 266c-2.615-1.485-3.625-2.223-6-4 2.19.555 8.27 1.137 6 4"/><path fill="#0f82a0" d="m633 292-7 12c-111.362-58.783-245.403-23.906-317 78l-19-8c79.453-105.533 223.713-141.033 343-82"/><path fill="url(#b)" d="M626 304c9.936 5.245 19.985 12.284 29 19 39.215 29.216 77.109 76.51 91 124 13.453 45.994 7.9 98.991-10 143-7.312 17.977-23.151 44.522-35 60-77.672 101.462-223.525 121.857-328 49-87.055-60.708-131.843-179.171-86-279 5.093-11.09 14.962-27.982 22-38 71.597-101.906 205.638-136.783 317-78M330 616c28.224 42.71 68.027 71.498 117 87l-5.5 3c29.248 9.126 59.832 12.42 90.5 11 30.637-1.418 63.555-10.385 90.5-25 5.712-3.098 16.26-9.043 19-14-6.821 7.788-7.415 1.718-11 2-.468.037-6.674 3.33-8.5 4 8.137-5.944 37.874-23.562 40-33 9.099-5.677 15.63-16.514 22-25 65.806-87.664 60-200.892-17-279.5.284-1.597 2.994-2.788 3-3 .066-2.236-30.243-25.663-34.5-28.5-40.167-26.767-102.062-34.21-150-30C322.636 299.302 239.334 478.802 330 616" style="fill:url(#b)"/>/&gt;<path fill="url(#c)" d="M684 626c.628-3.16-3.733-.378-4.5 0-2.546 1.254-17.291 8.286-18 9-2.287 2.301-.406 1.453-.5 4-8.674-7.162-21.006-.031-30 4 .169-.165 2.388-3.384 2.5-4-8.773-.635-19.619 8.591-27 14-1.938 1.42-4.224 1.666-3.5 5-12.182 6.558-76.362 32.962-79.5 36-3.81 3.688-2.902 15.208-.5 18.5 1.678 2.3 6.42 1.596 9 1.5v3c-30.668 1.42-61.252-1.874-90.5-11l5.5-3c20.495 6.488 41.792 11.455 63.5 11 1.595-.913-.904-4.505-1.5-5.5-6.628-11.062-63.314-28.473-79.5-37.5-16.404-9.148-38.411-32.98-52-38-8.048-2.973-17-2.359-25-5-8.042-2.655-14.35-9.795-22.5-12-90.666-137.198-7.364-316.698 155.5-331 47.938-4.21 109.833 3.233 150 30 4.257 2.837 34.566 26.264 34.5 28.5-.006.212-2.716 1.403-3 3 77 78.608 82.806 191.836 17 279.5M377 401c-93.885 134.578 42.719 305.425 196 246 3.575 4.177-5.863 6.912-8.5 8-25.994 10.719-60.502 13.329-88 9 5.643 3.428 17.112 4.527 24 5 68.848 4.729 131.287-30.036 165.5-89 62.988-108.555-.964-231.694-116.5-264-7.564-2.115-17.741-2.354-25.5-4-8.398-1.782-16.678-7.018-26.5-8-53.46-5.344-127.634 35.804-120.5 97m22.5-80c-7.582.981-34.255 23.723-39.5 30.5-6.659 8.603-21 35.249 2.5 20.5 2.486-1.56 38.827-39.895 40.5-42.5 3.24-5.044 5.448-9.657-3.5-8.5" style="fill:url(#c)"/>/&gt;<path fill="#1790ac" d="m664 311-9 12c-9.015-6.716-19.064-13.755-29-19l7-12c11.001 5.444 20.89 12.11 31 19"/><path fill="url(#d)" d="M524 312c9.193 6.874 17.43 15.27 22 26 6.23 14.627 6.534 30.339 6 46-7.906-1.316-17.92-.618-26-1l-.5-21c-3.436 1.415-22.886-.543-24 0-2.641 1.288-3.293 17.3-2.5 20-11.613 2.62-23.045 3.936-33.5 10-24.581 14.257-32.582 49.389-24.5 75 .251 1.956.665 3.264 1 5 .63 3.263 2.9 6.053 3 9.5-8.348-4.099-5.686-24.646-10.5-27.5-.486-.288-9.381-1.339-11-2-23.32-9.52-43.336-23.859-46.5-51-7.134-61.196 67.04-102.344 120.5-97 9.822.982 18.102 6.218 26.5 8" style="fill:url(#d)"/>/&gt;<path fill="#19a9c7" d="M766 435c3.411 11.382-12.101 9.711-20 12-13.891-47.49-51.785-94.784-91-124l9-12c45.295 30.871 81.96 72.488 102 124"/><path fill="#6bd4e8" d="m666 580-11-5c52.127-96.544-2.536-215.332-109-237-4.57-10.73-12.807-19.126-22-26 7.759 1.646 17.936 1.885 25.5 4C665.036 348.306 728.988 471.445 666 580"/><path fill="#fafdfe" d="M399.5 321c8.948-1.157 6.74 3.456 3.5 8.5-1.673 2.605-38.014 40.94-40.5 42.5-23.5 14.749-9.159-11.897-2.5-20.5 5.245-6.777 31.918-29.519 39.5-30.5"/><path fill="url(#e)" d="M655 575c-17.744 32.863-47.101 58.47-82 72-153.281 59.425-289.885-111.422-196-246 3.164 27.141 23.18 41.48 46.5 51 1.619.661 10.514 1.712 11 2 4.814 2.854 2.152 23.401 10.5 27.5-.1-3.447-2.37-6.237-3-9.5 11.167 23.304 32.021 34.18 57 37.5v43c-1.504 1.691-3.308-.608-4-.5l-56-23-2-.5c-.138 3.152.194 6.367 0 9.5-2.86-1.286-4.807 5.364-5 6.5-1.527 9.009-.43 24.427 4 32.5 8.519 15.526 45.386 20.976 62.5 23l.5 21.5 20.5 2.5 4-25c24.223 1.529 50.928-14.54 59.5-37 3.88-7.182 8.336-24.021 8-32 2.092-37.688-31.43-63.701-67-62-.772-11.206-3.106-24.949-2-36l3 2.5c2.518-6.573 7.214-2.297 10-6.5.321.064.682-.069 1 0 16.797 3.623 32.709 10.497 48.5 17 1.862-.741.519-15.177.5-18-.074-10.829-.362-21.781-2-32.5-1.504-2.691-26.406-9.735-31-10.5.534-15.661.23-31.373-6-46 106.464 21.668 161.127 140.456 109 237m-5.5-108c-16.595 1.755-15.926 30.911 3 29 15.87-1.603 15.486-30.955-3-29" style="fill:url(#e)"/>/&gt;<path fill="#9ebcc7" d="M752 371c16.589 24.766 32.035 58.757 30 89-6.995-41.02-27.873-83.872-54-116l1-1c7.523 9 16.503 18.301 23 28"/><path fill="#0992b4" d="M526 383c-1.193-.056-1.012-1.594-3 0-1.674-1.845-.302-14.152-1.5-15-.694-.491-16.223-.345-17 0-3.883 1.723 1.164 15.267-3.5 17 1.044-3.548-1.949-2.827-2-3-.793-2.7-.141-18.712 2.5-20 1.114-.543 20.564 1.415 24 0z"/><path fill="#4d7688" d="M839 391c1.116 4.862 2.711 7.271 3 13-8.155-4.284-18.833 2.574-25.5 8-16.332 13.292-27.479 40.407-28.5 61-.77 3.597-1.472 7.356-2 11-3.473-7.015-2.694-16.344-4-24 2.035-30.243-13.411-64.234-30-89l10-9c14.31 17.952 29.651 33.492 39.5 55 9.552-12.083 21.877-23.543 37.5-26"/><path fill="#62dbf3" d="M523 383c1.322 1.457 23.6 3.03 28 4-1.292 14.776-6.571 28.874-15 41-.318-.069-.679.064-1 0-3.737-.751-7.729-2.152-11.5-3-1.475.322-1.393 5.932-1.5 7-1.106 11.051 1.228 24.794 2 36-.963.046-2.031-.376-2 1-3.704-1.784 1.519-22.522-2.5-27-4.857 6.522-12.666 8.09-19.5 12 .496-8.767-.364-17.707 0-26.5l-2 .5c-6.907 1.707-11.306 6.896-12 14-4.353.67-1.37 9.491 0 13h-46c.046-2.285.692-7.448 1-10 2.208-.891 5.397 2.002 7 .5 1.423-1.333 11.137-29.741 15-36 5.513-8.932 9.947-12.786 18-19 1.154-.891-1.074-1.448-1-1.5 7.479-5.267 14.489-1.581 21-4 4.664-1.733-.383-15.277 3.5-17 .777-.345 16.306-.491 17 0 1.198.848-.174 13.155 1.5 15"/><path fill="#1790ac" d="M309 382c-7.038 10.018-16.907 26.91-22 38-4.777-5.868-13.833-5.603-20-10 6.482-12.435 14.573-24.807 23-36z"/><path fill="#12b0cf" d="M501 385c-6.511 2.419-13.521-1.267-21 4-23.847 10.462-35.925 30.539-39 56-.308 2.552-.954 7.715-1 10-.07 3.462.559 8.559 1 12-8.082-25.611-.081-60.743 24.5-75 10.455-6.064 21.887-7.38 33.5-10 .051.173 3.044-.548 2 3"/><path fill="#f3f9fb" d="M526 383c8.08.382 18.094-.316 26 1 4.594.765 29.496 7.809 31 10.5 1.638 10.719 1.926 21.671 2 32.5-4.658-6.583-.663-24.38-5-30.5-2.268-3.2-23.834-8.361-29-9.5-4.4-.97-26.678-2.543-28-4 1.988-1.594 1.807-.056 3 0"/><path fill="#2db4d1" d="M585 427c.019 2.823 1.362 17.259-.5 18-15.791-6.503-31.703-13.377-48.5-17 8.429-12.126 13.708-26.224 15-41 5.166 1.139 26.732 6.3 29 9.5 4.337 6.12.342 23.917 5 30.5"/><path fill="#f0fafd" d="M441 445c3.075-25.461 15.153-45.538 39-56-.074.052 2.154.609 1 1.5-8.053 6.214-12.487 10.068-18 19-3.863 6.259-13.577 34.667-15 36-1.603 1.502-4.792-1.391-7-.5"/><path fill="#031f35" d="M842 404c.01.201 2.358 2.173.5 4-4.762-.092-8.82-.332-13.5 1-22.031 6.271-36.675 43.793-41 64 1.021-20.593 12.168-47.708 28.5-61 6.667-5.426 17.345-12.284 25.5-8"/><path fill="#a6cbd8" d="M829 409v1c-8.333 2.213 9.716 18.788 9 23.5-.184 1.209-11.552 11.748-13 14-8.819 13.719-12.011 30.576-14 46.5-1.85 14.812-3.109 29.517-1 44.5l-23 .5c-1.107-6.781-1.012-13.729-2-20-.687-4.364-.421-8.36-1-12 .564-7.669.897-15.384 2-23 .528-3.644 1.23-7.403 2-11 4.325-20.207 18.969-57.729 41-64"/><path fill="#7fa5b1" d="M235 493c-.016-.102-1.817.354-2-.5-.843-3.934 1.428-8.735-1.5-12.5-.228 4.507-1.378 16.245-8.5 14-1.641-21.495-8.238-42.387-12-63.5-2.887-4.15-11.383-5.337-14-1-2.603 4.314.505 6.523-7 11 17.327 17.342 19.507 41.383 22 64.5.175 1.625-.191 3.38 0 5-4.565-1.039-2.834 4.454-3 8-.936 20.025-3.011 42.052-15 59-.82 1.159-14.181 15.28-16.5 17-3.987 2.958-6.086 5.259-8.5 3 18.695-9.073 23.801-25.022 27-44 .16-.951-.142-2.041 0-3 5.883 2.266 7.546-13.132 8-17.5.713-6.86-1.999-39.209-1-41 .342-.613 4.555-.959 5-2 .522-1.223-4.746-26.499-9-22.5-4.343-17.999-16.783-43.415-38-45-4.464-.333-8.73 1.108-13 2v-1c8.644-2.433 15.796-.125 19.5-1 1.773-.419 18.224-14.919 25.5-12 24.847 7.972 41.324 59.18 42 83"/><path fill="#23a4be" d="M287 420c-45.843 99.829-1.055 218.292 86 279l-11 15c-53.949-33.027-101.158-86.879-118-149-8.766-32.335-9.023-53.251-2-86 4.871-22.713 14.263-48.401 25-69 6.167 4.397 15.223 4.132 20 10"/><path fill="#87aebc" d="M864 421c-3.274-.087-8.446.69-11 3-30.607 8.958-38.357 75.26-35 101.5l2.5-7.5 2.5 10c.407 10.671 1.307 20.646 4 31l-5 2c-1.917-6.395-1.859-20.298-5.5-25-.314-.406-3.678.662-4.5-.5-3.112-4.399 1.383-34.641-1-41.5 1.989-15.924 5.181-32.781 14-46.5 1.448-2.252 12.816-12.791 13-14 .716-4.712-17.333-21.287-9-23.5 6.153-1.634 31.06 5.219 35 11"/><path fill="#5d7982" d="M864 421c20.97.557 28.944 14.709 30 34-13.567-11.44-26.81-8.853-38 4-6.516 7.483-8.826 14.665-11 24l-4 1c.132-.587-.141-1.425 0-2 2.671-10.918 7.197-22.458 13-32 5.227-8.594 12.039-16.342 20-22.5v-3c-.668-1.175-1.332.908-2 .5-4.762-2.908-12.842-2.802-19-1 2.554-2.31 7.726-3.087 11-3"/><path fill="#f9fcfd" d="M161 422c2.679 4.264 8.333 6.067 12 10 2.716 2.914 4.138 7.219 6 10-8.109 1.969-10.045-11.848-16.5-15-4.394-2.145-10.113-1.025-14.5-3 4.27-.892 8.536-2.333 13-2"/><path fill="#cde3ea" d="M199 467c1.734 7.188 7.672 22.527-2 23-2.426-20.809-6.088-44.582-24-58-3.667-3.933-9.321-5.736-12-10 21.217 1.585 33.657 27.001 38 45"/><path fill="#b8d6e0" d="M148 423v1c4.387 1.975 10.106.855 14.5 3 6.455 3.152 8.391 16.969 16.5 15 11.49 17.157 16.423 33.311 18 54 .15 1.97-.094 4.021 0 6l-13 2c-1.151-12.517-3.162-20.167-7-32-2.537-7.821-4.767-15.368-9-22.5-12.95-21.818-25.271-31.572-35-.5-2.453 1.089-2.263 1.707-4 3.5-1.456 1.293-1.798.612-2-1-.2-1.601 5.618-18.056 7-20 3.438-4.837 8.462-6.941 14-8.5"/><path fill="#c6dfe7" d="M872 425c-2.39-.746-4.344.61-6 1-15.174-4.446-27.737 14.39-33 26.5-7.88 18.13-9.656 41.828-10 61.5-.081 4.619-.176 9.388 0 14l-2.5-10-2.5 7.5c-3.357-26.24 4.393-92.542 35-101.5 6.158-1.802 14.238-1.908 19 1"/><path fill="#92b4be" d="M854 450c-2.49-2.695-5.761-10.631-5-14 1.313-5.813 12.109-8.849 17-10 1.656-.39 3.61-1.746 6-1 .668.408 1.332-1.675 2-.5v3c-7.961 6.158-14.773 13.906-20 22.5"/><path fill="#106b78" d="M535 428c-2.786 4.203-7.482-.073-10 6.5l-3-2.5c.107-1.068.025-6.678 1.5-7 3.771.848 7.763 2.249 11.5 3"/><path fill="#567987" d="M866 426c-4.891 1.151-15.687 4.187-17 10-.058-3.464-1.531-2.031-3-.5-10.879 11.335-16.757 32.353-19 47.5-1.59 10.737-1.97 20.158-2 31h-2c.344-19.672 2.12-43.37 10-61.5 5.263-12.11 17.826-30.946 33-26.5"/><path fill="#bfd8dd" d="M223 494c.3 3.932-.113 8.043 0 12l-11-1c-2.493-23.117-4.673-47.158-22-64.5 7.505-4.477 4.397-6.686 7-11 2.617-4.337 11.113-3.15 14 1 3.762 21.113 10.359 42.005 12 63.5"/><path fill="#036f8d" d="M498 428v32.5c-9.44-1.132-12.839-9.912-12-18.5.694-7.104 5.093-12.293 12-14"/><path fill="#dcf5fc" d="M500 454c-.249 4.409.696 8.809-1.5 13-5.537-2.659-10.195-6.094-12.5-12-1.37-3.509-4.353-12.33 0-13-.839 8.588 2.56 17.368 12 18.5V428l2-.5c-.364 8.793.496 17.733 0 26.5"/><path fill="#9fbac5" d="M177 472c-1.637.239-.981 2.731-1 4-6.057-8.742-9.147-21.412-20-26-5.105-8.262-16.291-3.978-23-1 9.729-31.072 22.05-21.318 35 .5 4.233 7.132 6.463 14.679 9 22.5"/><path fill="#7c9fb0" d="M197 490c.203 1.745.811 3.532 1 6h-1c-1.577-20.689-6.51-36.843-18-54-1.862-2.781-3.284-7.086-6-10 17.912 13.418 21.574 37.191 24 58"/><path fill="#cce4eb" d="M849 436c-.761 3.369 2.51 11.305 5 14-5.803 9.542-10.329 21.082-13 32-4.294-1.366-3.383 5.745-4.5 6-.554.127-5.7-5.339-9.5-5 2.243-15.147 8.121-36.165 19-47.5 1.469-1.531 2.942-2.964 3 .5"/><path fill="#20c5e2" d="M780 483c1.515 8.006 2.721 15.958 4 24 .579 3.64.313 7.636 1 12-1.646 8.808-1.364 18.078-2 27-2.464 9.101-5.021 18.048-8 27-2.73 8.204-5.417 15.138-9 23-9.692-2.702-21.979-.053-30-6 17.9-44.009 23.453-97.006 10-143 7.899-2.289 23.411-.618 20-12 6.136 15.772 10.845 31.329 14 48"/><path fill="#40929e" d="M245 450c1.07-4.496 2.73-8.63 4-13 1.173 2.968-1.002 11.909-4 13"/><path fill="url(#f)" d="M522 469c27.138 4.846 48.469 9.364 61 36l.5 9-6.5-7c-1.64-2.084-4.807-6.973-8-6.5 10.321 33.552.452 56.242-17.5 83.5-.664 1.009-2.537 3.501.5 3-9.816 5.086-18.065 7.961-29.5 7-7.795 17.814 8.195 28.007-20 27l-2-26c-9.828 1.533-56.868-9.25-60.5-16.5-2.246-4.483-1-38.725-1-46.5 13.321 5.169 42.976 22.03 56 20 .692-.108 2.496 2.191 4 .5v-43c-24.979-3.32-45.833-14.196-57-37.5-.335-1.736-.749-3.044-1-5-.441-3.441-1.07-8.538-1-12h46c2.305 5.906 6.963 9.341 12.5 12 2.196-4.191 1.251-8.591 1.5-13 6.834-3.91 14.643-5.478 19.5-12 4.019 4.478-1.204 25.216 2.5 27m.5 41 2 47c23.799-8.249 20.745-39.546-2-47" style="fill:url(#f)"/>/&gt;<path fill="#021c2f" d="M156 450c10.853 4.588 13.943 17.258 20 26-.175 11.942 4.655 24.348 4 38.5-1.341 28.969-20.874 83.736-57 50.5-11.564-10.639-15.196-27.837-16-43 .262 2.009 3.143 11.404 4 14 .719 2.177 1.039 3.676 2 6 1.662 4.018 5.455 10.402 8 14 7.744 10.948 12.675 17.666 28 15 9.354-1.627 14.659-7.961 16-17-.273 3.207 2.062 2.155 3 .5 13.812-24.361 13.1-75.972-6-95.5-17.537-17.929-37.639-2.089-47 16 6.977-16.427 21.679-33.167 41-25"/><path fill="#002b41" d="M894 455c25.887 21.828 28.802 88.981 3 112-18.973 16.927-38.684 5.101-47-15.5-11.337-28.083-8.923-66.169 6-92.5 11.19-12.853 24.433-15.44 38-4m-33 4c-6.51 6.473-9.46 13.269-12 22-3.603 12.388-4.929 26.103-4 39 1.062 14.745 8.599 41.221 22 49 10.199 5.92 20.336 3.229 27-6 1.1-1.524 5.536-3.574 3.5-7-11.545 14.243-26.619 10.694-36.5-3-4.13-5.724-6.648-13.406-9-20-.456-5.276 1.7-6.174 6-5 .538 5.225 6.473 16.767 13.5 15 6.823-1.716 1.589-13.601.5-18 1.937 1.142 7.796 1.591 9.5 1 5.115-1.775 15.344-49.552 13.5-56.5-2.742-10.334-26.383-19.601-33.5-6.5-2.598-.039-.751-.759-.5-2 10.669-9.009 21.076-8.747 33-2.5-11.894-10.444-21.819-10.618-33 .5"/><path fill="#05bed1" d="M162 459c-5.793-2.872-15.93-8.56-20.5-3 5.555-1.202 6.242.997 9.5 3-3.068-3.858-8.961 9.74-9 10.5-.085 1.657 1.69 1.852 2 4.5-15.393-7.753-37.896 45.338-16 40-.182 14.802-1.797 7.241-7.5 11-.765.504-8.187 7.028-8.5 7.5-.965 1.454 2.673 3.934-1 3.5-.857-2.596-3.738-11.991-4-14-1.742-13.378 1.814-35.047 8-47 9.361-18.089 29.463-33.929 47-16"/><path fill="#36788d" d="M243.5 451c1.553.305-2.537 11.585-3 13-1.743-.292 2.338-13.13 3-13"/><path fill="#16e9ed" d="M861 461c.125-.617-.059-1.357 0-2 11.181-11.118 21.106-10.944 33-.5-11.924-6.247-22.331-6.509-33 2.5"/><path fill="#003347" d="M162 459c19.1 19.528 19.812 71.139 6 95.5-.938 1.655-3.273 2.707-3-.5.271-1.83 2.214-4.585.5-7-1.743 2.17-2.974 4.684-4.5 7-11.329 13.279-27.409 13.608-40 2-2.545-3.598-6.338-9.982-8-14 4.48-3.955 9.942 2.877 15.5 1 6.267-2.117 1.491-11.156 2.5-12.5 1.015-1.352 6.054.127 7.5-.5 3.744-1.622 14.154-29.339 15.5-34.5.903-3.462 5.214-25.061 5-27-.411-3.721-4.878-7.58-8-9.5-3.258-2.003-3.945-4.202-9.5-3 4.57-5.56 14.707.128 20.5 3"/><path fill="#045865" d="M872 525c-.07-.283-2.71-2.778-3-5-.446-3.416 1.228-5.743 1-9 9.119-3.179 15.685-29.253 13-38-6.663-21.706-21.691 7.242-24 17l-5 3c-1.115-6.018 3.308-11.032-5-12 2.54-8.731 5.49-15.527 12-22-.059.643.125 1.383 0 2-.251 1.241-2.098 1.961.5 2 7.117-13.101 30.758-3.834 33.5 6.5 1.844 6.948-8.385 54.725-13.5 56.5-1.704.591-7.563.142-9.5-1"/><path fill="#0497ab" d="M151 459c3.122 1.92 7.589 5.779 8 9.5.214 1.939-4.097 23.538-5 27-1.346 5.161-11.756 32.878-15.5 34.5-1.446.627-6.485-.852-7.5.5-1.009 1.344 3.767 10.383-2.5 12.5-5.558 1.877-11.02-4.955-15.5-1-.961-2.324-1.281-3.823-2-6 3.673.434.035-2.046 1-3.5.313-.472 7.735-6.996 8.5-7.5 5.703-3.759 7.318 3.802 7.5-11 4.918-1.199 15.815-18.498 17-23.5 2.09-8.824-.29-10.441-1-16.5-.31-2.648-2.085-2.843-2-4.5.039-.76 5.932-14.358 9-10.5"/><path fill="#96c8d6" d="M897 567c.273 2.089-.415 4.07-1 6-2.691 1.357-5.444 1.382-8 2-10.029 2.423-21.808 4.601-30-3-17.139-15.902-17.953-67.738-13-89 2.174-9.335 4.484-16.517 11-24-14.923 26.331-17.337 64.417-6 92.5 8.316 20.601 28.027 32.427 47 15.5"/><path fill="#9fc3ce" d="M196 550c2.801-18.879 3.456-34.936 2-54-.189-2.468-.797-4.255-1-6 9.672-.473 3.734-15.812 2-23 4.254-3.999 9.522 21.277 9 22.5-.445 1.041-4.658 1.387-5 2-.999 1.791 1.713 34.14 1 41-.454 4.368-2.117 19.766-8 17.5"/><path fill="#69d2e2" d="M883 473c-16.36 6.937-25.81 20.934-17 38.5.144.141 3.703-.396 4-.5.228 3.257-1.446 5.584-1 9-1.366.767-2.293 1.337-4 1 .049-5.492-7.254-13.435-8-16.5-1.086-4.46.98-10.189 2-14.5 2.309-9.758 17.337-38.706 24-17"/><path fill="#fefdfe" d="M649.5 467c18.486-1.955 18.87 27.397 3 29-18.926 1.911-19.595-27.245-3-29"/><path fill="#ecf7f9" d="M524 468c35.57-1.701 69.092 24.312 67 62-.192-4.568-5.277-19.212-8-25-12.531-26.636-33.862-31.154-61-36-.031-1.376 1.037-.954 2-1"/><path fill="#81a2ad" d="M184 504c2.211 24.036.855 53.9-15 73.5-4.844 5.988-14.27 10.353-18 17.5-4.579-.824-8.518-2.979-13-2-9.061-8.363-12.933-15.551-15-28 36.126 33.236 55.659-21.531 57-50.5.655-14.152-4.175-26.558-4-38.5.019-1.269-.637-3.761 1-4 3.838 11.833 5.849 19.483 7 32"/><path fill="#ceeef5" d="M144 474c.71 6.059 3.09 7.676 1 16.5-1.185 5.002-12.082 22.301-17 23.5-21.896 5.338.607-47.753 16-40"/><path fill="#9ddfed" d="M870 511c-.297.104-3.856.641-4 .5-8.81-17.566.64-31.563 17-38.5 2.685 8.747-3.881 34.821-13 38"/><path fill="#64919c" d="M235 493c1.479 9.139.405 18.727 0 28-3.824 1.853-9.831-1.875-11-2-.836-4.343-.874-8.59-1-13-.113-3.957.3-8.068 0-12 7.122 2.245 8.272-9.493 8.5-14 2.928 3.765.657 8.566 1.5 12.5.183.854 1.984.398 2 .5"/><path fill="#0777a7" d="M854 493c.306 1.652 1.539 3.24 2 8l-5.5-8c-3.942 8.281-1.053 16.747-1.5 25.5 3.66 1.151 5.525 1.297 7-2.5-.093 4.637 4.285 8.234-4 10-.183-.489-5.608-8.361-7-6-.929-12.897.397-26.612 4-39 8.308.968 3.885 5.982 5 12"/><path fill="#84b7c8" d="M841 482c-.141.575.132 1.413 0 2-6.537 29.066-6.425 66.337 11 92 5.369 7.908 12.695 13.576 20 19.5-.238 1.701-8.214 2.315-10 2.5-34.756-8.335-37.082-54.288-37-84 .03-10.842.41-20.263 2-31 3.8-.339 8.946 5.127 9.5 5 1.117-.255.206-7.366 4.5-6"/><path fill="#6b93a2" d="M845 483c-4.953 21.262-4.139 73.098 13 89l-6 4c-17.425-25.663-17.537-62.934-11-92z"/><path fill="#0d7d6b" d="M859 490c-1.02 4.311-3.086 10.04-2 14.5.746 3.065 8.049 11.008 8 16.5-2.674-.528-2.927-2.241-5.5-2-2.143.953-1.703 7.03-1.5 9-4.3-1.174-6.456-.276-6 5-1.617-4.534.386-5.971 0-7 8.285-1.766 3.907-5.363 4-10s.434-10.521 0-15c-.461-4.76-1.694-6.348-2-8z"/><path fill="#00a1d9" d="M856 501c.434 4.479.093 10.363 0 15-1.475 3.797-3.34 3.651-7 2.5.447-8.753-2.442-17.219 1.5-25.5z"/><path fill="#7097a6" d="M822 561c1.506 5.026 4.62 14.651 7 19-4.955 1.254-4.886-6.915-8.5-9-.239-.138-3.637 1.271-5.5-.5 4.212 3.611-.7 4.197 0 6 .121.311 4.118-.271 6.5 1.5 14.574 10.834-.49 14.026-.5 16.5-.003.778 8.808 10.535 11 11l-3 1c-2.902 6.865 7.023 8.852 12 8.5v1c-35.134.336-49.161-47.6-54-76-.055-.324.053-.676 0-1l23-.5c-2.109-14.983-.85-29.688 1-44.5 2.383 6.859-2.112 37.101 1 41.5.822 1.162 4.186.094 4.5.5 3.641 4.702 3.583 18.605 5.5 25"/><path fill="#2a5269" d="M196 550c-.142.959.16 2.049 0 3h-2c2.864-16.254 3.783-34.49 3-51-.094-1.979.15-4.03 0-6h1c1.456 19.064.801 35.121-2 54"/><path fill="#f3fafc" d="M577 507c17.879 22.723 2.728 60.184-18 76-2.261 1.725-4.511 2.71-7 4-3.037.501-1.164-1.991-.5-3 17.952-27.258 27.821-49.948 17.5-83.5 3.193-.473 6.36 4.416 8 6.5"/><path fill="#9ac2cf" d="M197 502c.783 16.51-.136 34.746-3 51-2.532 14.369-3.249 20.21-13 31.5-2.954 3.42-9.783 10.217-14 11.5-7.91 2.406-9.592.153-16-1 3.73-7.147 13.156-11.512 18-17.5 15.855-19.6 17.211-49.464 15-73.5z"/><path fill="#95b8be" d="M223 506c.126 4.41.164 8.657 1 13-9.396-1.002-10.147 6.698-12-9-.191-1.62.175-3.375 0-5z"/><path fill="#359bba" d="M591 530c.336 7.979-4.12 24.818-8 32-4.241 7.85-13.623 15.288-20.5 21-.287.238-4.338 3.243-3.5 0 20.728-15.816 35.879-53.277 18-76l6.5 7-.5-9c2.723 5.788 7.808 20.432 8 25"/><path fill="#426870" d="M212 510c1.853 15.698 2.604 7.998 12 9 1.169.125 7.176 3.853 11 2-.336 7.683-.963 12.542-2 20l-23.5-1c-2.152-1.341 4.947-19.875-.5-22 .166-3.546-1.565-9.039 3-8"/><path fill="#002239" d="M522.5 510c22.745 7.454 25.799 38.751 2 47zm9 8-2 34c12.772-7.993 12.509-24.497 2-34"/><path fill="#193449" d="M825 514c-.082 29.712 2.244 75.665 37 84-.205.021-1.329 1.211-4 1-1.341-.106-5.493-2.2-7-3-12.456-6.61-20.627-24.032-24-37-2.693-10.354-3.593-20.329-4-31-.176-4.612-.081-9.381 0-14z"/><path fill="#416067" d="M233 541c-2.156 15.507-4.265 23.886-11 38-6.181.141-14.36-4.704-19.5-4-1.266.173-11.903 8.636-8.5 2 11.989-16.948 14.064-38.975 15-59 5.447 2.125-1.652 20.659.5 22z"/><path fill="#043145" d="M531.5 518c10.509 9.503 10.772 26.007-2 34z"/><path fill="#3a6a7f" d="M787 539c.053.324-.055.676 0 1-1.67.762-1.088 4.435-1 6l-3 4c.115-1.309-.094-2.686 0-4 .636-8.922.354-18.192 2-27 .988 6.271.893 13.219 2 20"/><path fill="#15575a" d="M865 521c1.707.337 2.634-.233 4-1 .29 2.222 2.93 4.717 3 5 1.089 4.399 6.323 16.284-.5 18-7.027 1.767-12.962-9.775-13.5-15-.203-1.97-.643-8.047 1.5-9 2.573-.241 2.826 1.472 5.5 2"/><path fill="#0a5b7d" d="M852 526c.386 1.029-1.617 2.466 0 7 2.352 6.594 4.87 14.276 9 20-.99-.125-.832.382-1 1-1.646 6.065 6.274 8.733 7 15-13.401-7.779-20.938-34.255-22-49 1.392-2.361 6.817 5.511 7 6"/><path fill="#001e34" d="M439 529v3c0 7.775-1.246 42.017 1 46.5 3.632 7.25 50.672 18.033 60.5 16.5l2 26c28.195 1.007 12.205-9.186 20-27 11.435.961 19.684-1.914 29.5-7 2.489-1.29 4.739-2.275 7-4-.838 3.243 3.213.238 3.5 0 6.877-5.712 16.259-13.15 20.5-21-8.572 22.46-35.277 38.529-59.5 37l-4 25-20.5-2.5-.5-21.5c-17.114-2.024-53.981-7.474-62.5-23 1.895-12.938.194-25.987 1-39 .194-3.133-.138-6.348 0-9.5z"/><path fill="#f0fafb" d="M495 552c-13.024 2.03-42.679-14.831-56-20v-3z"/><path fill="#003d65" d="M437 538c-.806 13.013.895 26.062-1 39-4.43-8.073-5.527-23.491-4-32.5.193-1.136 2.14-7.786 5-6.5"/><path fill="#02223b" d="M841 616c2.32-.318 2.093.606 2 2.5-.376 7.655-9.829 34.424-13 43-23.85 64.503-70.882 122.986-126 163.5-10.159 7.467-21.081 14.69-32 21-70.767 40.898-153.162 50.422-233 34-4.19-.862-10.529-1.098-14-2-1.607-.42-4.63-1.362-7-2-32.74-9.542-71.357-31.111-99-51-29.455-21.193-56.236-47.007-78-76 4.482 5.109 12.31 11.958 18 16 10.787 11.916 20.902 22.353 33 33 28.031 24.668 51.519 40.181 86 55 9.486 4.077 18.837 8.684 29 11 10.681 7.505 71.658 18.065 86.5 19 139.406 8.779 272.359-80.632 327.5-206.5 5.136-11.724 16.518-39.309 18-51 .223-1.755 1.609-5.692-.5-6.5-29.482-1.785-46.002-40.873-51.5-66-.593-2.712-.839-4.131-1-7-.088-1.565-.67-5.238 1-6 4.839 28.4 18.866 76.336 54 76"/><path fill="#d0e3ee" d="m781 566 2 2c-14.26 81.491-72.02 152.183-147 186-59.143 26.674-127.887 32.99-191.5 19-21.136-4.648-40.349-15.378-61.5-20 .608-1.914-.802-1.76-1-2-1.623-1.967-35.766-18.374-42.5-23-47.915-32.917-77.369-82.796-93.5-132.5-2.062-6.354-6.58-16.619-10-22.5.976-8.446-.196-12.036-1-20-.189-1.869-3.289-11.283 1-10.5C256.414 710.201 431.956 803.402 589.5 761c90.031-24.232 176.173-99.935 191.5-195"/><path fill="#89abb0" d="M786 546c.161 2.869.407 4.288 1 7-3.945 3.512-3.221 10.546-4 15l-2-2a219 219 0 0 0 2-16z"/><path fill="#05597c" d="M165 554c-1.341 9.039-6.646 15.373-16 17 3.549-6.097 8.127-11.122 12-17 1.526-2.316 2.757-4.83 4.5-7 1.714 2.415-.229 5.17-.5 7"/><path fill="#0b2130" d="M196 553c-3.199 18.978-8.305 34.927-27 44-.23-.216-2.124.57-2-1 4.217-1.283 11.046-8.08 14-11.5 9.751-11.29 10.468-17.131 13-31.5z"/><path fill="#7498a7" d="M236 573c-2.649 22.921-29.288 58.535-55 50-.345-1.823-1.667-2.818-2-6 34.687 1.988 47.993-37.015 56-64 .804 7.964 1.976 11.554 1 20"/><path fill="url(#g)" d="M407 864c-8.073-5.672-7.739-27.666-10-38 85.008 30.048 202.658 24.915 239-72 74.98-33.817 132.74-104.509 147-186 .779-4.454.055-11.488 4-15 5.498 25.127 22.018 64.215 51.5 66 2.109.808.723 4.745.5 6.5-1.482 11.691-12.864 39.276-18 51C765.859 802.368 632.906 891.779 493.5 883c-14.842-.935-75.819-11.495-86.5-19m294.5-141c-32.028 5.206-24.828 59.535 7 52 .45-.107 1.31-7.475 5 0 .568-5.429 7.384-4.05 10-6 21.285-15.862 6.519-50.636-22-46" style="fill:url(#g)"/>/&gt;<path fill="#19cde5" d="M894 563c-13.609 7.802-25.701 3.601-34-9 .168-.618.01-1.125 1-1 9.881 13.694 24.955 17.243 36.5 3 2.036 3.426-2.4 5.476-3.5 7"/><path fill="#0fc2d4" d="M149 571c-15.325 2.666-20.256-4.052-28-15 12.591 11.608 28.671 11.279 40-2-3.873 5.878-8.451 10.903-12 17"/><path fill="#11819c" d="M894 563c-6.664 9.229-16.801 11.92-27 6-.726-6.267-8.646-8.935-7-15 8.299 12.601 20.391 16.802 34 9"/><path fill="#7aa5b6" d="M851 596c-5.847 7.192-18.737-10.036-22-16-2.38-4.349-5.494-13.974-7-19l5-2c3.373 12.968 11.544 30.39 24 37"/><path fill="#14697e" d="M362 714c100.271 61.385 223.838 55.58 318.5-14 7.578-5.57 31.49-24.856 35.5-32 20.757-20.618 37.851-45.341 50-72 3.583-7.862 6.27-14.796 9-23 3.049.803 1.45 5.511 1 7.5-54.287 240.049-449.925 254.013-529 8-2.297-7.147-4.936-16.226-3-23.5 16.842 62.121 64.051 115.973 118 149"/><path fill="#5e8798" d="M829 580c3.263 5.964 16.153 23.192 22 16 1.507.8 5.659 2.894 7 3-2.981 3.819 4.43 4.76 7 6-5.547 2.222-19.641 9.692-24 10-4.977.352-14.902-1.635-12-8.5l3-1c-2.192-.465-11.003-10.222-11-11 .01-2.474 15.074-5.666.5-16.5-2.382-1.771-6.379-1.189-6.5-1.5-.7-1.803 4.212-2.389 0-6 1.863 1.771 5.261.362 5.5.5 3.614 2.085 3.545 10.254 8.5 9"/><path fill="#598291" d="M888 575c-1.206 3.319 1.073 11.846 1 12.5-.338 3.023-5.072 5.8-4 8.5-8.905 9.924-10.619 5.243-20 9-2.57-1.24-9.981-2.181-7-6 2.671.211 3.795-.979 4-1 1.786-.185 9.762-.799 10-2.5-7.305-5.924-14.631-11.592-20-19.5l6-4c8.192 7.601 19.971 5.423 30 3"/><path fill="#a4bec9" d="M382 751c-2.893 5.545-5.938 13.407-7 19.5-2.639 15.143-4.79 39.98-3 55 1.08 9.06 5.254 18.357 6 27.5-34.481-14.819-57.969-30.332-86-55-5.637-12.281-4.806-30.607-9-42.5-2.735-7.755-14.512-21.442-19-30-17.27-32.933-33.303-66.531-42-103-4.206 3.974-22.722 11.985-23 16-.341 4.927 22.136 62.676 26 71 7.065 15.219 15.938 29.497 25 43.5-4.725-5.263-11.552-10.432-17-15-23.885-32.202-44.527-75.526-52-115 25.712 8.535 52.351-27.079 55-50 3.42 5.881 7.938 16.146 10 22.5 16.131 49.704 45.585 99.583 93.5 132.5 6.734 4.626 40.877 21.033 42.5 23m-73.5-27c-27.123 4.829-25.361 49.142 3 53 40.115 5.457 39.479-60.564-3-53"/><path fill="#5e8798" d="M896 573c-2.507 8.276-5.121 16.448-11 23-1.072-2.7 3.662-5.477 4-8.5.073-.654-2.206-9.181-1-12.5 2.556-.618 5.309-.643 8-2"/><path fill="#5d7b80" d="M222 579c-7.872 16.496-20.829 37.556-42 35 .009-1.286 1.566-5.211-.5-6-16.49-3.078-28.959-3.425-41.5-15 4.482-.979 8.421 1.176 13 2 6.408 1.153 8.09 3.406 16 1-.124 1.57 1.77.784 2 1 2.414 2.259 4.513-.042 8.5-3 2.319-1.72 15.68-15.841 16.5-17-3.403 6.636 7.234-1.827 8.5-2 5.14-.704 13.319 4.141 19.5 4"/><path fill="#d0f5fb" d="M666 580c-34.213 58.964-96.652 93.729-165.5 89-6.888-.473-18.357-1.572-24-5 27.498 4.329 62.006 1.719 88-9 2.637-1.088 12.075-3.823 8.5-8 34.899-13.53 64.256-39.137 82-72z"/><path fill="#14accc" d="M766 596c-12.149 26.659-29.243 51.382-50 72 .527-.939 1.226-3.378 2-4.5-.431-3.81-17.591-7.456-17-13.5 11.849-15.478 27.688-42.023 35-60 8.021 5.947 20.308 3.298 30 6"/><path fill="#83e2f6" d="M447 703c-48.973-15.502-88.776-44.29-117-87 8.15 2.205 14.458 9.345 22.5 12 8 2.641 16.952 2.027 25 5 13.589 5.02 35.596 28.852 52 38 16.186 9.027 72.872 26.438 79.5 37.5.596.995 3.095 4.587 1.5 5.5-21.708.455-43.005-4.512-63.5-11"/><path fill="#d1e1e8" d="M292 798c-12.098-10.647-22.213-21.084-33-33-2.989-3.301-6.017-8.678-9-12-9.062-14.003-17.935-28.281-25-43.5-3.864-8.324-26.341-66.073-26-71 .278-4.015 18.794-12.026 23-16 8.697 36.469 24.73 70.067 42 103 4.488 8.558 16.265 22.245 19 30 4.194 11.893 3.363 30.219 9 42.5"/><path fill="#32c4e5" d="M684 626c-6.37 8.486-12.901 19.323-22 25 .925-4.104-1.125-8.585-1-12 .094-2.547-1.787-1.699.5-4 .709-.714 15.454-7.746 18-9 .767-.378 5.128-3.16 4.5 0"/><path fill="url(#h)" d="M661 639c-.125 3.415 1.925 7.896 1 12-2.126 9.438-31.863 27.056-40 33-27.86 10.227-58.928 28.841-90 30-2.58.096-7.322.8-9-1.5-2.402-3.292-3.31-14.812.5-18.5 3.138-3.038 67.318-29.442 79.5-36 5.711-3.074 24.651-11.736 28-15 8.994-4.031 21.326-11.162 30-4" style="fill:url(#h)"/>/&gt;<path fill="#47cae8" d="M631 643c-3.349 3.264-22.289 11.926-28 15-.724-3.334 1.562-3.58 3.5-5 7.381-5.409 18.227-14.635 27-14-.112.616-2.331 3.835-2.5 4"/><path fill="#0195bb" d="M716 668c-4.01 7.144-27.922 26.43-35.5 32-94.662 69.58-218.229 75.385-318.5 14l11-15c104.475 72.857 250.328 52.462 328-49-.591 6.044 16.569 9.69 17 13.5-.774 1.122-1.473 3.561-2 4.5"/><path fill="#5edef2" d="M532 717v-3c31.072-1.159 62.14-19.773 90-30 1.826-.67 8.032-3.963 8.5-4 3.585-.282 4.179 5.788 11-2-2.74 4.957-13.288 10.902-19 14-26.945 14.615-59.863 23.582-90.5 25"/><path fill="#30596a" d="M701.5 723c28.519-4.636 43.285 30.138 22 46-2.616 1.95-9.432.571-10 6-3.69-7.475-4.55-.107-5 0-31.828 7.535-39.028-46.794-7-52m-1 5c-17.323 3.643-22.417 33.046-2 40 39.398 13.419 40.973-48.197 2-40"/><path fill="#82a4b2" d="M308.5 724c42.479-7.564 43.115 58.457 3 53-28.361-3.858-30.123-48.171-3-53m4 4c-30.474 2.923-21.217 51.009 10 42-3.362 2.21-9.318 4.497-1 3 22.691-4.083 21.573-47.932-9-45"/><path fill="#07213a" d="M312.5 728c30.573-2.932 31.691 40.917 9 45-8.318 1.497-2.362-.79 1-3-31.217 9.009-40.474-39.077-10-42m-4.5 8c-2.431.915-3.566 2.551-5.5 4-.962.721-1.81-1.932-3.5-.5-7.229 6.126-.473 27.33 10.5 26.5-4.445-4.154-2.053-3.227 2.5-4 2.947-.5 6.389-.594 9.5-1 .574-.075-.234 2.59 3 2 13.299-2.426 13.09-38.134-16.5-27m-4.5-1c-.179.024-2.869 2.271-2 3 2.056-.148 4.856-3.386 2-3"/><path fill="#05223a" d="M700.5 728c38.973-8.197 37.398 53.419-2 40-20.417-6.954-15.323-36.357 2-40m-2.5 8c-7.365 2.974-11.793 5.444-11 15.5.786 9.966 16.647 19.371 7 7 2.012-3.476 4.485.506 5 .5-2.307 2.431 3.149 1.756 4 2 .099.028-.339 1.874.5 2 20.487 3.082 28.317-17.916 14.5-27-8.152-5.36-12.197-3.151-20 0"/><path fill="#02567a" d="m312 762-8-3.5c5.304-.124 7.459 3.11 13.5.5 10.507-4.54 10.612-24.051-6.5-18-.508.18-1.66-.187-2 0l-1-5c29.59-11.134 29.799 24.574 16.5 27-3.234.59-2.426-2.075-3-2-3.111.406-6.553.5-9.5 1"/><path fill="#025880" d="M718 736c-6.703 6.011-.044 9.241 0 11.5.117 6.042-7.665 16.432-15 13.5-.851-.244-6.307.431-4-2 17.289-.213 15.676-21.102 2-19-.291.045-2.863.922-3 1v-5c7.803-3.151 11.848-5.36 20 0"/><path fill="#0c6a8a" d="M303.5 735c2.856-.386.056 2.852-2 3-.869-.729 1.821-2.976 2-3"/><path fill="#0bdef4" d="m308 736 1 5c-3.417 1.88-4.144 3.326-5 7-.537 2.303-1.565 7.698 2 6.5-1.203-1.884-.619-3.964-1-5.5 3.594-.428 6.221-4.677 6-8 17.112-6.051 17.007 13.46 6.5 18-6.041 2.61-8.196-.624-13.5-.5l8 3.5c-4.553.773-6.945-.154-2.5 4-10.973.83-17.729-20.374-10.5-26.5 1.69-1.432 2.538 1.221 3.5.5 1.934-1.449 3.069-3.085 5.5-4"/><path fill="#2acfdc" d="M698 736v5c-10.568 6.042 3.525 13.003 3-1 13.676-2.102 15.289 18.787-2 19-.515.006-2.988-3.976-5-.5 9.647 12.371-6.214 2.966-7-7-.793-10.056 3.635-12.526 11-15.5"/><path fill="#1085aa" d="M703 761c7.335 2.932 15.117-7.458 15-13.5-.044-2.259-6.703-5.489 0-11.5 13.817 9.084 5.987 30.082-14.5 27-.839-.126-.401-1.972-.5-2"/><path fill="#4b7789" d="M250 753c2.983 3.322 6.011 8.699 9 12-5.69-4.042-13.518-10.891-18-16-3.073-3.503-5.27-7.319-8-11 5.448 4.568 12.275 9.737 17 15"/><path fill="#f9fdfa" d="M698 741c.137-.078 2.709-.955 3-1 .525 14.003-13.568 7.042-3 1"/><path fill="#f6fbf9" d="M311 741c.221 3.323-2.406 7.572-6 8-.017-.069-1.181.158-1-1 .856-3.674 1.583-5.12 5-7 .34-.187 1.492.18 2 0"/><path fill="#217591" d="M305 749c.381 1.536-.203 3.616 1 5.5-3.565 1.198-2.537-4.197-2-6.5-.181 1.158.983.931 1 1"/><path fill="#78a0b1" d="M383 753c2.566 24.836 8.711 48.82 14 73 2.261 10.334 1.927 32.328 10 38-10.163-2.316-19.514-6.923-29-11-.746-9.143-4.92-18.44-6-27.5-1.79-15.02.361-39.857 3-55 1.062-6.093 4.107-13.955 7-19.5.198.24 1.608.086 1 2"/><path fill="url(#i)" d="M636 754c-36.342 96.915-153.992 102.048-239 72-5.289-24.18-11.434-48.164-14-73 21.151 4.622 40.364 15.352 61.5 20 63.613 13.99 132.357 7.674 191.5-19" style="fill:url(#i)"/>/&gt;

/&gt;<path fill="#70868f" d="M425 878c-2.507-.651-4.571-1.292-7-2 2.37.638 5.393 1.58 7 2"/><path fill="#687f89" d="M439 880c-4.268 2.361-9.749-.889-14-2 3.471.902 9.81 1.138 14 2"/></svg>