<svg xmlns="http://www.w3.org/2000/svg" width="1024" height="1024"><defs><linearGradient id="a" x1="363.486" x2="797.241" y1="246.05" y2="376.687" gradientUnits="userSpaceOnUse"><stop offset="0%" style="stop-color:#7294a8"/><stop offset="58.72%" style="stop-color:#e5ebed"/><stop offset="100%" style="stop-color:#aabfce"/></linearGradient></defs><defs><linearGradient id="b" x1="429.42" x2="244.438" y1="316.371" y2="399.981" gradientUnits="userSpaceOnUse"><stop offset="0%" style="stop-color:#68818e"/><stop offset="100%" style="stop-color:#47626e"/></linearGradient></defs><defs><linearGradient id="c" x1="755.879" x2="247.809" y1="436.688" y2="526.802" gradientUnits="userSpaceOnUse"><stop offset="0%" style="stop-color:#d2f0f7"/><stop offset="45.155%" style="stop-color:#a0daea"/><stop offset="56.783%" style="stop-color:#8bd2e4"/><stop offset="64.341%" style="stop-color:#7dcde0"/><stop offset="100%" style="stop-color:#29a6bd"/></linearGradient></defs><defs><linearGradient id="d" x1="394.572" x2="713.329" y1="259.916" y2="449.745" gradientUnits="userSpaceOnUse"><stop offset="0%" style="stop-color:#75c8de"/><stop offset="75.202%" style="stop-color:#bee8f4"/></linearGradient></defs><defs><linearGradient id="e" x1="468.194" x2="478.891" y1="424.514" y2="502.787" gradientUnits="userSpaceOnUse"><stop offset="0%" style="stop-color:#017c9f"/><stop offset="100%" style="stop-color:#039abf"/></linearGradient></defs><defs><linearGradient id="f" x1="541.23" x2="481.831" y1="446.117" y2="512.394" gradientUnits="userSpaceOnUse"><stop offset="0%" style="stop-color:#1b5377"/><stop offset="100%" style="stop-color:#1c2a51"/></linearGradient></defs><defs><linearGradient id="g" x1="622.537" x2="454.78" y1="437.965" y2="586.403" gradientUnits="userSpaceOnUse"><stop offset="0%" style="stop-color:#c8c9c9"/><stop offset="75%" style="stop-color:#f5f5f6"/></linearGradient></defs><defs><linearGradient id="h" x1="278.215" x2="747.202" y1="642.196" y2="645.695" gradientUnits="userSpaceOnUse"><stop offset="0%" style="stop-color:#466371"/><stop offset="33.049%" style="stop-color:#6d8b9a"/><stop offset="67.377%" style="stop-color:#c5d1da"/><stop offset="100%" style="stop-color:#97b2c6"/></linearGradient></defs><defs><linearGradient id="i" x1="826.11" x2="828.33" y1="552.092" y2="588.023" gradientUnits="userSpaceOnUse"><stop offset="0%" style="stop-color:#1d699e"/><stop offset="100%" style="stop-color:#044572"/></linearGradient></defs><defs><linearGradient id="j" x1="586.429" x2="445.42" y1="739.911" y2="784.862" gradientUnits="userSpaceOnUse"><stop offset="0%" style="stop-color:#556f7c"/><stop offset="100%" style="stop-color:#3f5966"/></linearGradient></defs><defs><linearGradient id="k" x1="582.527" x2="485.061" y1="837.674" y2="847.893" gradientUnits="userSpaceOnUse"><stop offset="0%" style="stop-color:#28b9e6"/><stop offset="100%" style="stop-color:#0e5c88"/></linearGradient></defs><path fill="#06172c" d="M356 187c-.876.609-1.247 1.263-2 2h-1l-1-50.5c-1.436-2.149-2.687-.35-5-.5-2.986-.194-4.134.749-6 1-.111.015.312-1.403-2-1-.83.145-1.365-1.068-1.5-1-4.271 2.167-7.9 56.124-11.5 65-.505 1.245-1.248 1.971-2 3l10-67.5c-13.676-8.356-20.407-24.025-10-38 15.423-20.71 54.428-3.483 43 25-2.24 5.583-12.588 11.831-13 13-2.127 6.043 3.315 40.441 2 49.5m-22-92c-25.608 10.931-10.087 48.82 18.5 40 6.463-1.994 13.983-12.478 14.5-19 1.376-17.367-17.695-27.533-33-21"/><path fill="#092138" d="M698 202c-1.008-.662-1.984-1.348-3-2l-8-59.5c-2.398-5.121-2.547-2.132-5-2.5-1.575-.236-4.321-.133-6 0-2.71.214-4.104-2.202-6 .5-.609 12.378.823 25.228 0 37.5-.206 3.078-1.893 7.334-1 11-2.926.389-1.699-1.401-2-3-2.058-10.924 4.167-37.901 2-46.5-.24-.952-8.945-5.939-11-9-8.583-12.783-2.528-34.614 13.5-37.5 31.194-5.617 43.974 31.821 16.5 46.5zM673 93c-17.65 3.502-23.251 28.309-8.5 39 12.729 9.225 34.363 2.074 36.5-14 2.174-16.352-12.399-28.095-28-25"/><path fill="#25cdf2" d="M367 116c-3.599-1.109-5.481 7.057-6 2 6.212-9.296-3.924-21.097-14-17-4.436-3.08-9.307 1.47-6.5-6-1.719-.609-7.407 5.961-6.5 0 15.305-6.533 34.376 3.633 33 21"/><path fill="#26cef4" d="m701 118-5-2c5.707-14.282-6.342-13.349-14-15-1.622-.35-7.127-2.03-8-2 2.726-3.588-.564-3.092-1-6 15.601-3.095 30.174 8.648 28 25"/><path fill="#0591b9" d="M673 93c.436 2.908 3.726 2.412 1 6-16.247.557-13.386 22.192-2.5 29 4.597 2.875 11.534 3.257 16.5 1.5.884-5.727-2.758-4.569-5-6.5 4.824 1.04 11.181-2.448 13-7l5 2c-2.137 16.074-23.771 23.225-36.5 14-14.751-10.691-9.15-35.498 8.5-39"/><path fill="#0a97bd" d="M334 95c-.907 5.961 4.781-.609 6.5 0-2.807 7.47 2.064 2.92 6.5 6-17.878 7.27 2.45 34.283 14 17 .519 5.057 2.401-3.109 6-2-.517 6.522-8.037 17.006-14.5 19-28.587 8.82-44.108-29.069-18.5-40"/><path fill="#04709a" d="M674 99c.873-.03 6.378 1.65 8 2-11.392 10.171-8.61 13.723 1 22 2.242 1.931 5.884.773 5 6.5-4.966 1.757-11.903 1.375-16.5-1.5-10.886-6.808-13.747-28.443 2.5-29"/><path fill="#fcfefe" d="M361 118c-11.55 17.283-31.878-9.73-14-17 10.076-4.097 20.212 7.704 14 17"/><path fill="#fdfefe" d="M696 116c-1.819 4.552-8.176 8.04-13 7-9.61-8.277-12.392-11.829-1-22 7.658 1.651 19.707.718 14 15"/><path fill="#0489a8" d="M339 138c-4.51 19.341-4.533 41.287-9 60.5-.42 1.807-.91 6.165-4 3.5 3.6-8.876 7.229-62.833 11.5-65 .135-.068.67 1.145 1.5 1"/><path fill="#71ecfe" d="M353 189c-.795.104-1.196.679-2 1l-4-52c2.313.15 3.564-1.649 5 .5z"/><path fill="#2d6f86" d="M676 138v3c-4.447-.879-5.545 14.275 0 11 0 6.339-1.227 33.993 0 37.5 4.226 4.066 10.248 5.451 15 8.5 2.082 1.336 3.47 1.66 4 2 1.016.652 1.992 1.338 3 2 74.453 48.922 96.272 95.698 109 183.5 1.031 7.114.521 29.778 2 34 .671 1.916 13.141 7.459 15.5 9.5 5.504 4.762 12.483 14.754 16.5 21-1.603-.3-1.358-.087-2 1-8.295-9.467-13.102-18.663-25-24-.21-.094-2.085-2.737-3.5-3-.763 30.041-1.494 61.523-4.5 92-.717 7.266-1.051 14.773-2 22-3.468 26.413-10.161 57.555-18 83-.302.982-.682 2.016-1 3-4.83 14.939-11.195 28.89-18 43-3.484 2.046-2.409 6.605-5 1 26.433-50.356 38.562-114.403 42-171 .823-13.546 2.291-22.159 0-35 .371-3.493 2.946.66 3-.5 1.464-31.634-2.681-74.337-9-105.5-24.249-119.589-117.74-182.51-235-198-40.163-5.305-85.255-3.951-125 4-28.35 5.671-61.507 17.442-87 31-.003-1.643 1.942-2.964 3-4 .753-.737 1.124-1.391 2-2 63.78-44.35 198.849-42.892 270.5-18l40.5 15c.301 1.599-.926 3.389 2 3l2 .5c-1.297-3.726 3.594-11.202-1-11.5.823-12.272-.609-25.122 0-37.5 1.896-2.702 3.29-.286 6-.5"/><path fill="#7eeafe" d="M695 200c-.53-.34-1.918-.664-4-2l-9-60c2.453.368 2.602-2.621 5 2.5z"/><path fill="#083c56" d="m341 139-7 59.5c5.548-3.296 10.968-6.089 17-8.5.804-.321 1.205-.896 2-1h1c-1.058 1.036-3.003 2.357-3 4-89.622 47.663-115.211 118.56-123 216-3.832 47.933-1.633 95.847 4 143.5 5.663-.21-1.63-11.606 3-13.5.343 3.208 2.307 10.092 3 14-1.808-.895-2.936 3.951-3 4.5-1.72 14.713 8.309 44.64 13 59.5 23.324 73.88 77.112 143.413 148 177l-4 3c-53.873-27.466-92.491-61.809-122-115.5-4.319-7.858-22.909-53.883-25.5-55.5-2.822-1.761-16.643-3.905-21-6-6.575-3.162-9.236-8.493-12-10-5.496-2.996-23.299-8.52-26.5-12.5-1.76-2.188-12.023-35.291-13-40-6.016-29.008-7.677-81.027 8-106.5l4 1c-.738 4.889 1.975 11.583 2 16.5.177 34.878-4.835 75.133-4 107.5.451 17.467 10.377 25.883 27 28.5-2.504-34.191-4.764-68.693-5-103-.024-3.508-2.037-13.255 4-11.5.435 21.809-.622 106.133 8 120 3.775 6.071 26.451 14.557 28 10.5-13.626-42.79-19.19-87.659-21-132.5-.921-22.817.29-45.246 0-68-.012-.98.286-.402 0-2-.228-1.275-.209-1.816-1-3 4.405-5.205 3.736-29.224 5-37.5 8.698-56.94 24.603-110.787 68.5-150.5 6.556-5.931 24.549-16.595 28.5-22 .752-1.029 1.495-1.755 2-3 3.09 2.665 3.58-1.693 4-3.5 4.467-19.213 4.49-41.159 9-60.5 2.312-.403 1.889 1.015 2 1M174 556c3.26 14.516 6.175 19.628 8 .5 1.747-18.311 1.564-46.309 1-65-.292-9.683-.46-20.509-3-29.5.245-1.429 2.923-8.003-1-6.5-10.6 30.486-12.108 68.852-5 100.5"/><path fill="#14a2c8" d="m347 138 4 52c-6.032 2.411-11.452 5.204-17 8.5l7-59.5c1.866-.251 3.014-1.194 6-1"/><path fill="#23bdea" d="m682 138 9 60c-4.752-3.049-10.774-4.434-15-8.5-1.227-3.507 0-31.161 0-37.5v-14c1.679-.133 4.425-.236 6 0"/><path fill="#015f88" d="M676 141v11c-5.545 3.275-4.447-11.879 0-11"/><path fill="url(#a)" d="M563 158c-.701 1.716 2.58 2.784 3.5 3 103.008 24.163 204.36 81.763 228.5 192.5.17.779 1.15 4.574 3 2.5 6.319 31.163 10.464 73.866 9 105.5-.054 1.16-2.629-2.993-3 .5-8.091-45.345-32.208-96.086-62-131-50.012-58.612-127.613-89.776-204-94-32.893-1.819-65.803.6-98 7-36.323 7.22-71.443 19.764-102 41-1.154-3.002.951-8.585 2-11.5 17.181-47.771 58.153-83.349 101-108 .142-.764-1.954-.408-2-.5-.247-.499-.087-2.009-1-3 39.745-7.951 84.837-9.305 125-4m-23.5 4c-1.538 1.457.95 2.482 2 3 39.739 19.617 69.945 32.933 107 59 9.318 6.555 33.332 31.494 44 30 7.458-1.044 10.703-11.872 9.5-18.5-1.94-10.687-28.883-30.836-38.5-36.5-37.46-22.065-81.749-29.367-124-37m173 83c-3.136 1.174-2.536 7.11.5 8.5 8.095 3.706 7.906-11.646-.5-8.5m9 25c-11.656 2.283-10.256 26.237 7 22 11.083-2.721 7.293-24.799-7-22m20 25c-11.376 1.409 2.969 24.955 15 22 11.363-2.791-3.829-23.383-15-22" style="fill:url(#a)"/>/&gt;<path fill="#fdfdfd" d="M798 356c-1.85 2.074-2.83-1.721-3-2.5C770.86 242.763 669.508 185.163 566.5 161c-.92-.216-4.201-1.284-3.5-3 117.26 15.49 210.751 78.411 235 198"/><path fill="#70aabd" d="M439 165c-68.045 18.491-139.951 51.829-175 116.5-21.408 39.502-26.706 77.408-33 121-.184 1.277-.847 7.095-3 6.5 7.789-97.44 33.378-168.337 123-216 25.493-13.558 58.65-25.329 87-31 .913.991.753 2.501 1 3"/><path fill="#fefefe" d="M539.5 162c42.251 7.633 86.54 14.935 124 37 9.617 5.664 36.56 25.813 38.5 36.5 1.203 6.628-2.042 17.456-9.5 18.5-10.668 1.494-34.682-23.445-44-30-37.055-26.067-67.261-39.383-107-59-1.05-.518-3.538-1.543-2-3"/><path fill="url(#b)" d="M439 165c.046.092 2.142-.264 2 .5-42.847 24.651-83.819 60.229-101 108-1.049 2.915-3.154 8.498-2 11.5-1.009.702-2.178 2.402-3 3-58.176 42.376-85.714 91.749-96 163-4.074 28.219-7.04 59.53-4 88-4.63 1.894 2.663 13.29-3 13.5-5.633-47.653-7.832-95.567-4-143.5 2.153.595 2.816-5.223 3-6.5 6.294-43.592 11.592-81.498 33-121 35.049-64.671 106.955-98.009 175-116.5M297.5 272c-8.536 2.549-6.44 19.859 6 17 9.142-2.101 6.905-20.854-6-17m-24 33c-4.206.961-8.111 12.076-2 13 6.254.945 11.629-15.2 2-13" style="fill:url(#b)"/>/&gt;<path fill="#16b8d8" d="M669 187c-.893-3.666.794-7.922 1-11 4.594.298-.297 7.774 1 11.5z"/><path fill="#758e9a" d="M538 237c.475 2.2-.648 11.556 0 12.5 1.154 1.682 7.232-1.468 7 2.5-8.778-.651-17.188-.914-26-1-27.423-.266-50.207 1.629-77 7 2.738-5.38-1.926-8.586-2-14 32.197-6.4 65.107-8.819 98-7"/><path fill="#8ea2aa" d="M742 331c-1.787 3.709-6.76 3.864-6 8-16.707-18.6-42.183-37.784-64-50-14.695-8.228-29.881-15.05-46-20-25.628-10.065-53.543-14.964-81-17 .232-3.968-5.846-.818-7-2.5-.648-.944.475-10.3 0-12.5 76.387 4.224 153.988 35.388 204 94"/><path fill="#5d7885" d="M440 244c.074 5.414 4.738 8.62 2 14-39.81 7.981-75.714 22.83-109 46 .974-5.088 1.252-10.867 2-16 .822-.598 1.991-2.298 3-3 30.557-21.236 65.677-33.78 102-41"/><path fill="#fdfdfe" d="M712.5 245c8.406-3.146 8.595 12.206.5 8.5-3.036-1.39-3.636-7.326-.5-8.5"/><path fill="#2f5f6e" d="m519 251 1 2c-66.121-.594-135.447 17.143-188 58-3.731.136.487-3.28 1-6 .061-.322-.062-.678 0-1 33.286-23.17 69.19-38.019 109-46 26.793-5.371 49.577-7.266 77-7"/><path fill="#4b747d" d="M545 252c27.457 2.036 55.372 6.935 81 17-32.207-9.891-71.204-15.687-106-16l-1-2c8.812.086 17.222.349 26 1"/><path fill="#2289a2" d="M520 253c34.796.313 73.793 6.109 106 16 16.119 4.95 31.305 11.772 46 20-.464 6.509 8.94 6.61 9.5 7 55.412 38.586 94.695 95.79 107.5 162.5 1.951 10.162 1.75 22.845 4 32.5l-4 7c-6.313-130.872-102.101-224.581-231.5-235-80.976-6.52-168.101 9.117-231 63-31.506 26.99-67.839 78.194-71.5 120.5-.327 3.783-.877 5.09 3 5.5-5.618 22.351-7.937 45.049-10 68-2.347-.406-5.071-.641-7.5-1l-1.5 9c-6.066-80.367 28.95-167.205 93-217 52.553-40.857 121.879-58.594 188-58"/><path fill="url(#c)" d="M789 498c1.887 83.266-11.389 148.283-97.5 176-100.518 32.354-297.94 33.149-388.5-26-43.912-28.681-60.142-68.888-64-120l1.5-9c2.429.359 5.153.594 7.5 1 4.17.721 15.409 2.892 19 4 50.85 15.687 86.626 71.301 133.5 98 87.178 49.656 193.309 32.437 267.5-32 10.234-5.932 20.701-15.772 32-22 12.945-7.136 26.629-13.28 41-17 7.572-1.96 15.842-2.167 23.5-4-4.062-2.734-8.25-3.155-12.5-6-3.478-11.283-6.918-22.809-12-33.5-4.596-9.667-21.579-30.584-23.5-36.5-.691-2.128.977-2.79.5-5 13.134-1.817 28.107-2.485 38-12.5-14.081 7.696-29.305 11.772-45.5 11.5 13.933-3.869 28.054-8.075 39.5-17.5-12.95 4.907-24.257 5.464-38 5.5-4.921-1.282-14.406.488-17.5-4 11.512 1.923 60.237-24.474 60.5-34-21.983-47.014-62.566-83.399-109.5-105-5.086-2.341-30.748-9.861-32-11-2.571-2.339-.755-11.474-5-15-5.106-4.242-44.576-10.264-53-11-75.783-6.623-159.579 11.402-219.5 59-38.289 30.415-65.066 72.522-77 120-3.877-.41-3.327-1.717-3-5.5 3.661-42.306 39.994-93.51 71.5-120.5 62.899-53.883 150.024-69.52 231-63C686.899 273.419 782.687 367.128 789 498" style="fill:url(#c)"/>/&gt;<path fill="#fefefe" d="M721.5 270c14.293-2.799 18.083 19.279 7 22-17.256 4.237-18.656-19.717-7-22"/><path fill="#79a3b6" d="M297.5 272c12.905-3.854 15.142 14.899 6 17-12.44 2.859-14.536-14.451-6-17"/><path fill="url(#d)" d="M754 415c-19.26 9.843-41.933 13.182-63.5 11-6.556-.663-17.182-1.745-20-8v3c-15.527-2.411 17.953-12.19 20-17-14.206 5.724-29.367 3.467-44 1 23.572-7.131 46.408-18.494 61.5-38.5L678.5 383c-12.888 2.907-25.72 4.845-39 4 3.208-5.073 11.458-7.263 16-11 7.482-6.156 15.965-16.601 17.5-26.5.218-1.404.905-6.075-2-5.5.065-2.211.258-7.189-4-6.5l2 12.5c-9.44 17.188-46.785 20.51-64 15.5 16.501-9.047 34.602-23.968 40.5-42.5-12.428 20.874-37.966 32.676-61.5 33.5 7.992-6.394 16.873-17.76 16.5-28.5-7.467 21.204-25.284 31.668-47.5 24.5 5.222-8.624 12.274-16.84 12.5-27.5-4.014 7.147-18.127 24.456-26 26-12.284 2.409-40.797-1.317-58 1-15.753 2.121-34.139 11.169-46.5 13-13.569 2.01-17.81-17.931-18.5-29-2.336 10.388.868 23.069 5.5 32.5-2.334 8.143-16.044-14.045-17-18-4.153-17.181.772-33.764 14.5-44.5-25.673 12.095-30.742 46.327-15 68l-1 2c-15.801 2.557-24.31-12.636-35.5-20.5l18.5 28.5c-24.863-5.928-44.805-23.53-50.5-49-.26-1.163-.167-1.836-1-3 59.921-47.598 143.717-65.623 219.5-59 8.424.736 47.894 6.758 53 11 4.245 3.526 2.429 12.661 5 15 1.252 1.139 26.914 8.659 32 11 46.934 21.601 87.517 57.986 109.5 105" style="fill:url(#d)"/>/&gt;<path fill="#3f545e" d="M333 304c-.062.322.061.678 0 1-49.113 35.11-78.984 88.179-94 146 10.286-71.251 37.824-120.624 96-163-.748 5.133-1.026 10.912-2 16"/><path fill="#576970" d="M736 339c35.77 39.824 57.778 96.967 63 150-2.773-.578-4.811 2.286-5.5 5-.896-.039-.311-2.188-.5-3-2.25-9.655-2.049-22.338-4-32.5-12.805-66.71-52.088-123.914-107.5-162.5-.56-.39-9.964-.491-9.5-7 21.817 12.216 47.293 31.4 64 50"/><path fill="#6a7c84" d="M741.5 295c11.171-1.383 26.363 19.209 15 22-12.031 2.955-26.376-20.591-15-22m7 4c-8.999.527-4.831 16.289 4 14 7.972-2.067 1.968-14.35-4-14"/><path fill="#d4e4e9" d="M748.5 299c5.968-.35 11.972 11.933 4 14-8.831 2.289-12.999-13.473-4-14"/><path fill="#384d56" d="M273.5 305c9.629-2.2 4.254 13.945-2 13-6.111-.924-2.206-12.039 2-13"/><path fill="#124252" d="M332 311c-64.05 49.795-99.066 136.633-93 217 3.858 51.112 20.088 91.319 64 120l-1 3c-20.894-13.745-39.986-30.987-51-54-6.376-13.322-10.424-29.462-13-44-.693-3.908-2.657-10.792-3-14-3.04-28.47-.074-59.781 4-88 15.016-57.821 44.887-110.89 94-146-.513 2.72-4.731 6.136-1 6"/><path fill="#1e1618" d="M435 365c-7.185 8.387 14.501 12.153 16 19a173 173 0 0 0-5 2c-11.137 4.614-21.744 9.68-32 16-.432-7.204-6.726-5.799-11.5-9-5.096-3.417-11.784-12.722-15.5-7-3.707-1.834-6.214.153-6.5 0-18.229-9.766-33.22-19.999-43.5-38.5 1.056 26.556 26.026 38.882 46 50.5-13.501.318-20.337 8.975-33 7 8.156-1.108 16.544-4.491 23-9.5-23.073-9.363-43.161-35.155-37-60.5 5.695 25.47 25.637 43.072 50.5 49L368 355.5c11.19 7.864 19.699 23.057 35.5 20.5l1-2c-15.742-21.673-10.673-55.905 15-68-13.728 10.736-18.653 27.319-14.5 44.5.956 3.955 14.666 26.143 17 18-4.632-9.431-7.836-22.112-5.5-32.5.69 11.069 4.931 31.01 18.5 29m-24 3c-.787-1.373-1.117-3-2.5-4-1.737 2.703 1.909 3.487 2.5 4 .872 1.522 2.24 6.586 3 8-12.605-12.654-12.144-26.233-12.5-43l-3.5 7.5c-2.94 11.956 6.61 37.963 17.5 43.5 6.101 3.102 3.855-2.635 7-2 1.263.255 15.99 9.425 17.5 4.5-7.251-6.633-16.157-5.426-23.5-11.5-.371-.307-1.437-3.47-5.5-7m11.5-6c-4.678 2.269 22.867 31.06 23.5 21.5z"/><path fill="#281e20" d="M669 350c1.56-2.841 1.853-1.037 2-6 2.905-.575 2.218 4.096 2 5.5-1.535 9.899-10.018 20.344-17.5 26.5-4.542 3.737-12.792 5.927-16 11 13.28.845 26.112-1.093 39-4l29.5-16.5c-15.092 20.006-37.928 31.369-61.5 38.5 14.633 2.467 29.794 4.724 44-1-2.047 4.81-35.527 14.589-20 17v-3c2.818 6.255 13.444 7.337 20 8 21.567 2.182 44.24-1.157 63.5-11-.263 9.526-48.988 35.923-60.5 34 3.094 4.488 12.579 2.718 17.5 4-10.033.027-22.318-.473-32.5-2-4.567-.685-7.9-5.095-12.5-2-21.308-26.714-44.754-43.667-76-57-2.719-1.16-6.925-4.255-9-5-.962-1.903 4.6-2.992 5-3 20.308-.42 38.823-1.618 57.5-11l-9 6-20.5 5.5c6.86-1.807 7.019 2.448 7.5 2.5 12.2 1.329 34.109-12.153 41.5-22 1.664-2.218 4.934-6.044 4.5-9-4.37 3.72-10.487 8.397-15.5 11-2.66 1.382-9.698 5.46-6.5 0-17.446 8.156-40.472-5.995-53.5 8-.767-.474-3.566 1.151-3-2 11.006-3.925 24.083-13.929 33-21.5-14.411 6.069-24.885 10.484-40 14.5v-1c5.747-1.119 20.154-4.323 22.5-10-9.83 2.445-19.14 4.174-28.5 7-5.073 1.531-10.57 4.741-16.5 7-5.796 2.208-19.754 1.667-18.5 9-30.62-3.751-61.659-4.756-90 6-1.499-6.847-23.185-10.613-16-19 12.361-1.831 30.747-10.879 46.5-13 17.203-2.317 45.716 1.409 58-1 7.873-1.544 21.986-18.853 26-26-.226 10.66-7.278 18.876-12.5 27.5 22.216 7.168 40.033-3.296 47.5-24.5.373 10.74-8.508 22.106-16.5 28.5 23.534-.824 49.072-12.626 61.5-33.5-5.898 18.532-23.999 33.453-40.5 42.5 17.215 5.01 54.56 1.688 64-15.5m-59.5 3-.5 1.5.5.5 1.5-1.5zm-60 2c-.612.793-1.708.914-1 2 1.391 2.132 2.238-.164 1-2m17 3c-1.323.198-9.838 4.522-9.5 5.5l13.5-4.5c.928-1.571-3.457-1.081-4-1m86 50c.477 2.307 9.492 2.501 9.5 1.5zm22 1c-.36.113-1.963 1.516-1 2 2.552 1.283 5.191-3.322 1-2m50 18-3 3-35.5 10.5c8.584-.235 32.459-5.416 38.5-10.5 1.21-1.018 2.897-2.768 0-3m11 0L688 443.5c2.022.723 1.888 4.202 2.5 4.5 5.062 2.464 41.033-13.852 46.5-19.5-.528-.333-1.147-1.442-1.5-1.5"/><path fill="#758e9a" d="M804 462c2.291 12.841.823 21.454 0 35-1.692-.759-3.026-1.866-5-2-.132-1.969.193-4.043 0-6-5.222-53.033-27.23-110.176-63-150-.76-4.136 4.213-4.291 6-8 29.792 34.914 53.909 85.655 62 131"/><path fill="#41b4cc" d="M336 335c-6.161 25.345 13.927 51.137 37 60.5-6.456 5.009-14.844 8.392-23 9.5-11.237 1.526-18.267-.598-29-3.5l28 15c-13.873 21.345-32.239 39.634-56 49.5-3.091.555-5.891 1.658-9 2-5.16.567-9.353 1.033-14.5 0 8.225 4.637 20.192 4.003 30 4l37.5-7.5c-11.307 20.068-26.33 44.665-49.5 52.5-4.853 1.641-16.317 1.119-19.5 4-.523.474-1.198 2.107-1 3-3.591-1.108-14.83-3.279-19-4 2.063-22.951 4.382-45.649 10-68 11.934-47.478 38.711-89.585 77-120 .833 1.164.74 1.837 1 3"/><path fill="#3a3639" d="M414 376c.138.138.044 3.458 2.5 3 1.818-2.828-2.408-2.828-2.5-3-.76-1.414-2.128-6.478-3-8 4.063 3.53 5.129 6.693 5.5 7 7.343 6.074 16.249 4.867 23.5 11.5-1.51 4.925-16.237-4.245-17.5-4.5-3.145-.635-.899 5.102-7 2-10.89-5.537-20.44-31.544-17.5-43.5l3.5-7.5c.356 16.767-.105 30.346 12.5 43"/><path fill="#f3fbfb" d="M671 344c-.147 4.963-.44 3.159-2 6l-2-12.5c4.258-.689 4.065 4.289 4 6.5"/><path fill="#333134" d="M387 386c3.93 1.944 6.782 8.28 11 10.5-8.305-2.867-3.103 2.19-6.5 3.5-1.308.504-5.776-2.064-8.5-2-19.974-11.618-44.944-23.944-46-50.5 10.28 18.501 25.271 28.734 43.5 38.5.286.153 2.793-1.834 6.5 0"/><path fill="#544d4c" d="M589 373c-5.718 2.039-5.109 4.163-12 .5l9.5-5.5-18.5 3.5c1.25-3.686 10.139-4.474 14-5.5 15.115-4.016 25.589-8.431 40-14.5-8.917 7.571-21.994 17.575-33 21.5"/><path fill="#6d6d6b" d="m609.5 353 1.5.5-1.5 1.5-.5-.5z"/><path fill="#4f4547" d="M549.5 355c1.238 1.836.391 4.132-1 2-.708-1.086.388-1.207 1-2"/><path fill="#5d5557" d="M582 365c-4.101.799-8.51.587-12.5 2l6.5-5c9.36-2.826 18.67-4.555 28.5-7-2.346 5.677-16.753 8.881-22.5 10"/><path fill="#6b6668" d="M663 365c-4.182-.724-7.721 7.684-11 2 5.013-2.603 11.13-7.28 15.5-11 .434 2.956-2.836 6.782-4.5 9"/><path fill="#575153" d="M566.5 358c.543-.081 4.928-.571 4 1l-13.5 4.5c-.338-.978 8.177-5.302 9.5-5.5"/><path fill="#262123" d="m576 362-6.5 5c3.99-1.413 8.399-1.201 12.5-2v1c-3.861 1.026-12.75 1.814-14 5.5l18.5-3.5-9.5 5.5c6.891 3.663 6.282 1.539 12-.5-.566 3.151 2.233 1.526 3 2 .95.587 4.773 4.117 4 5.5-3.464-.322-8.208-.64-10 3.5-.4.008-5.962 1.097-5 3-12.275-4.409-27.037-7.412-40-9-1.254-7.333 12.704-6.792 18.5-9 5.93-2.259 11.427-5.469 16.5-7"/><path fill="#423b3d" d="m422.5 362 23.5 21.5c-.633 9.56-28.178-19.231-23.5-21.5"/><path fill="#3a3639" d="M411 368c-.591-.513-4.237-1.297-2.5-4 1.383 1 1.713 2.627 2.5 4"/><path fill="#524c4e" d="M663 365c-7.391 9.847-29.3 23.329-41.5 22-.481-.052-.64-4.307-7.5-2.5l20.5-5.5 9-6c-18.677 9.382-37.192 10.58-57.5 11 1.792-4.14 6.536-3.822 10-3.5.773-1.383-3.05-4.913-4-5.5 13.028-13.995 36.054.156 53.5-8-3.198 5.46 3.84 1.382 6.5 0 3.279 5.684 6.818-2.724 11-2"/><path fill="#095874" d="M541 378c12.963 1.588 27.725 4.591 40 9 2.075.745 6.281 3.84 9 5 10.836 9.948 23.112 23.379 29 37 4.275 9.889 8.35 27.29 9 38l-48-31c8.074-20.898-32.036-35.277-47-22.5-.409.349-.869 3.374-1 3.5-35.039-9.558-73.062-4.477-107 7-4.627 1.565-11.249 4.522-16 4 8.982-18.8 19.806-30.378 37-42a173 173 0 0 1 5-2c28.341-10.756 59.38-9.751 90-6"/><path fill="#1e1618" d="M414 376c.092.172 4.318.172 2.5 3-2.456.458-2.362-2.862-2.5-3"/><path fill="#191518" d="M414 402c-44.353 27.332-68.905 65.773-103 103.5 1.283 8.613 6.719 13.182 13 18.5-1.99.426 1.666 2.558-2 1.5-18.658-5.383-20.992-7.781-42-5.5-3.993.434-7.858 1.599-12 1 3.183-2.881 14.647-2.359 19.5-4 23.17-7.835 38.193-32.432 49.5-52.5l-37.5 7.5c-9.808.003-21.775.637-30-4 5.147 1.033 9.34.567 14.5 0 .805 2.562 3.574 2.289 5.5 2 22.808-3.425 52.321-18.105 66-37-17.411 17.621-38.396 28.674-62.5 33 23.761-9.866 42.127-28.155 56-49.5l-28-15c10.733 2.902 17.763 5.026 29 3.5 12.663 1.975 19.499-6.682 33-7 2.724-.064 7.192 2.504 8.5 2 3.397-1.31-1.805-6.367 6.5-3.5-4.218-2.22-7.07-8.556-11-10.5 3.716-5.722 10.404 3.583 15.5 7 4.774 3.201 11.068 1.796 11.5 9m-25.5 1c-4.023.36-12.316 4.244-17 5-1.076.173-19.664-1.327-16.5 2.5 2.658 3.214 32.786-2.547 37-7-.39-.806-2.662-.575-3.5-.5"/><path fill="#a0a1a1" d="M446 386c-17.194 11.622-28.018 23.2-37 42-.227.476-1.493 1.818-2 3-11.241 5.7-22.368 12.529-32.5 20-24.694 18.207-61.021 46.264-37.5 81-.452.146-1.967.893-2 1-2.505-3.792-7.768-6.264-11-9-6.281-5.318-11.717-9.887-13-18.5 34.095-37.727 58.647-76.168 103-103.5 10.256-6.32 20.863-11.386 32-16"/><path fill="#9c9c9c" d="M666 449c13.858 17.374 44.067 67.269 46 88.5.405 4.451-.799 7.448-2 11.5-5.828 1.891-13.966 6.397-20 9 2.507-6.408 9.217-14.606 10-21.5 4.062-35.765-51.072-91.37-81-107.5-5.888-13.621-18.164-27.052-29-37 31.246 13.333 54.692 30.286 76 57"/><path fill="#3b3437" d="M388.5 403c.838-.075 3.11-.306 3.5.5-4.214 4.453-34.342 10.214-37 7-3.164-3.827 15.424-2.327 16.5-2.5 4.684-.756 12.977-4.64 17-5"/><path fill="#6a7583" d="m652.5 408 9.5 1.5c-.008 1.001-9.023.807-9.5-1.5"/><path fill="#fefefe" d="M580 436c-1.044 2.701-10.25 10.212-13 11-18.809 5.387-38.092-8.913-36-29 1.347-.36.946-.948 1-1 .131-.126.591-3.151 1-3.5 14.964-12.777 55.074 1.602 47 22.5"/><path fill="#756d65" d="M674.5 409c4.191-1.322 1.552 3.283-1 2-.963-.484.64-1.887 1-2"/><path fill="url(#e)" d="M532 417c-.054.052.347.64-1 1-1.262.337-15.666-2.333-20.5-2-4.359.3-11.179 2.56-15.5 4 .059-4.116-4.231-.722-5.5 0-31.292 17.797-49.161 41.761-37.5 79.5.785 2.541 9.561 14.332 6.5 15.5-6.296-2.273-15.516 7.327-21 6-6.615-1.601-17.366-28.279-18.5-35.5l-3 2.5c-2.772-30.358 4.3-35.833 11-61 .023-.087 1.366.215 1-1.5-.22-1.031-3.003.265-3-1.5 33.938-11.477 71.961-16.558 107-7" style="fill:url(#e)"/>/&gt;<path fill="#0a81ad" d="M223 418c-1.919 3.147-7.99 3.709-9.5 5-4.702 4.021-6.823 27.644-1.5 33-.348 6.71-.86 13.23-1 20-.923 44.715 1.67 89.551 5 134-8.622-13.867-7.565-98.191-8-120-.094-4.704 1.959-31.187 1-32.5-.847-1.16-3.34.153-4-1-1.373-2.397 2.568-21.04 1-25.5.533-.61 3.238-1.193 1.5-3-4.496-2.638-22.864 19.785-23.5 24l-4-1c3.504-5.694 15.286-19.952 20.5-24 4.319-3.353 18.919-8.95 21.5-12 .791 1.184.772 1.725 1 3"/><path fill="url(#f)" d="M531 418c-2.092 20.087 17.191 34.387 36 29l2 6c-4.664 4.613-19.913 22.389-18 28.5 1.357 4.334 18.036 6.794 22 6.5-9.641 50.179-75.827 65.666-107 25.5-25.422-32.757-9.999-80.499 29-93.5 4.321-1.44 11.141-3.7 15.5-4 4.834-.333 19.238 2.337 20.5 2" style="fill:url(#f)"/>/&gt;<path fill="#2ac5e3" d="M223 420c-15.567 7.322-10.279 22.115-11 36-5.323-5.356-3.202-28.979 1.5-33 1.51-1.291 7.581-1.853 9.5-5 .286 1.598-.012 1.02 0 2"/><path fill="#2ac6eb" d="M495 420c-38.999 13.001-54.422 60.743-29 93.5 31.173 40.166 97.359 24.679 107-25.5.537-.04 1.633-.71 3-1-3.422 37.237-42.054 61.505-78 53-2.364-1.906-11.887-4.942-15.5-7-7.755-4.417-19.441-18.374-27.5-5.5-12.792 20.435 36.454 42.927 52 42.5-1.125 3.556-3.439 3.328-4.5 6l41.5-4.5c-12.746 5.844-29.08 7.399-43 6.5-5.988-4.428-15.536-3.615-22.5-6-34.291-11.745-59.278-48.712-62.5-84l3-2.5c1.134 7.221 11.885 33.899 18.5 35.5 5.484 1.327 14.704-8.273 21-6 3.061-1.168-5.715-12.959-6.5-15.5-11.661-37.739 6.208-61.703 37.5-79.5 1.269-.722 5.559-4.116 5.5 0"/><path fill="#006a9b" d="M223 488c-5.713-8.688 3.838-13.866-12-12 .14-6.77.652-13.29 1-20 .721-13.885-4.567-28.678 11-36 .29 22.754-.921 45.183 0 68"/><path fill="#057da1" d="M425 424c-.003 1.765 2.78.469 3 1.5.366 1.715-.977 1.413-1 1.5-6.552 5.093-9.035 15.302-11 23-4.167 3.353-2.548 13.059-11.5 8-1.571-.888 3.887-12.014-2.5-13 1.125-4.118 3.299-10.037 5-14 .507-1.182 1.773-2.524 2-3 4.751.522 11.373-2.435 16-4"/><path fill="#92e3fb" d="M814 427c-2.377.69.167 2.923 1 3.5 9.519 6.588 15.255 14.293 23 22.5-2.511 10.229-2.033 38.108-2 50l-2-3c.395-1.392.098-13.576-.5-14H815l-2-13.5c-1.236 14.157.992 29.057 0 43-.059.827-1.991.397-2 .5h-5c3.006-30.477 3.737-61.959 4.5-92 1.415.263 3.29 2.906 3.5 3"/><path fill="#f8fdfd" d="M427 427c-6.7 25.167-13.772 30.642-11 61 3.222 35.288 28.209 72.255 62.5 84 6.964 2.385 16.512 1.572 22.5 6-18.774-1.212-45.411-12.082-60-24-30.721-25.097-34.251-67.753-25-104 1.965-7.698 4.448-17.907 11-23"/><path fill="#595456" d="M724.5 427c2.897.232 1.21 1.982 0 3-6.041 5.084-29.916 10.265-38.5 10.5l35.5-10.5z"/><path fill="#575051" d="M735.5 427c.353.058.972 1.167 1.5 1.5-5.467 5.648-41.438 21.964-46.5 19.5-.612-.298-.478-3.777-2.5-4.5z"/><path fill="#f1fcfe" d="M839 451c-.142.241-.973 1.891-1 2-7.745-8.207-13.481-15.912-23-22.5-.833-.577-3.377-2.81-1-3.5 11.898 5.337 16.705 14.533 25 24"/><path fill="#40dcef" d="M206 431c-3.307 3.786-19.291 17.763-20 21.5 3.192 36.414 4.796 76.73 0 113-.281 2.124-1.318 9.795-4 10.5-.835-32.367 4.177-72.622 4-107.5-.025-4.917-2.738-11.611-2-16.5.636-4.215 19.004-26.638 23.5-24 1.738 1.807-.967 2.39-1.5 3"/><path fill="url(#g)" d="M690 558c-22.179 9.567-43.029 22.935-65.5 32-58.897 23.76-126.32 35.727-187.5 13-.614-.293-1.327-.674-2-1-28.596-13.828-51.221-26.469-75-48-2.475-2.241-4.617-5.622-7-8 18.661 7.578 35.821 19.338 54.5 27 20.251 8.307 50.205 17.795 72 19 2.292.127 10.701 1.545 9.5-3 75.293 15.515 143.649-45.44 139-122-.65-10.71-4.725-28.111-9-38 29.928 16.13 85.062 71.735 81 107.5-.783 6.894-7.493 15.092-10 21.5" style="fill:url(#g)"/>/&gt;<path fill="#047aad" d="M208 490c-6.037-1.755-4.024 7.992-4 11.5.236 34.307 2.496 68.809 5 103-16.623-2.617-26.549-11.033-27-28.5 2.682-.705 3.719-8.376 4-10.5 4.796-36.27 3.192-76.586 0-113 .709-3.737 16.693-17.714 20-21.5 1.568 4.46-2.373 23.103-1 25.5.66 1.153 3.153-.16 4 1 .959 1.313-1.094 27.796-1 32.5"/><path fill="#d7dde0" d="M407 431c-1.701 3.963-3.875 9.882-5 14-6.248 22.876-7.264 46.6 2 69 12.98 38.193 45.544 66.87 85 75 1.201 4.545-7.208 3.127-9.5 3-21.795-1.205-51.749-10.693-72-19-18.679-7.662-35.839-19.422-54.5-27-3.455-3.447-14.185-11.32-16-14-23.521-34.736 12.806-62.793 37.5-81 10.132-7.471 21.259-14.3 32.5-20"/><path fill="#302b2d" d="M284 468c3.109-.342 5.909-1.445 9-2 24.104-4.326 45.089-15.379 62.5-33-13.679 18.895-43.192 33.575-66 37-1.926.289-4.695.562-5.5-2"/><path fill="#0394b7" d="M628 467c4.649 76.56-63.707 137.515-139 122-39.456-8.13-72.02-36.807-85-75 2.187 5.289 15.211 27.474 19 31.5 4.775 5.075 10.921 9.782 18 8.5 14.589 11.918 41.226 22.788 60 24 13.92.899 30.254-.656 43-6.5l-41.5 4.5c1.061-2.672 3.375-2.444 4.5-6 2.822-8.919-1.712-24.123-9-30 35.946 8.505 74.578-15.763 78-53 25.597-5.432 18.872-59.587-7-34l-2-6c2.75-.788 11.956-8.299 13-11z"/><path fill="#0495bc" d="M416 450c-9.251 36.247-5.721 78.903 25 104-7.079 1.282-13.225-3.425-18-8.5-3.789-4.026-16.813-26.211-19-31.5-9.264-22.4-8.248-46.124-2-69 6.387.986.929 12.112 2.5 13 8.952 5.059 7.333-4.647 11.5-8"/><path fill="#fefefe" d="M576 487c-1.367.29-2.463.96-3 1-3.964.294-20.643-2.166-22-6.5-1.913-6.111 13.336-23.887 18-28.5 25.872-25.587 32.597 28.568 7 34"/><path fill="#1f1a1d" d="M717 466c-3.25.45-10.274.028-9 4-1.156-.234-20.077 2.488-20 3.5 11.802 18.229 20.034 38.356 32 56.5 3.013 4.569 7.085 8.73 9 14-2.171.406-17.582 4.54-19 5 1.201-4.052 2.405-7.049 2-11.5-1.933-21.231-32.142-71.126-46-88.5 4.6-3.095 7.933 1.315 12.5 2 10.182 1.527 22.467 2.027 32.5 2 13.743-.036 25.05-.593 38-5.5-11.446 9.425-25.567 13.631-39.5 17.5 16.195.272 31.419-3.804 45.5-11.5-9.893 10.015-24.866 10.683-38 12.5"/><path fill="#093560" d="M841 450c.503.783 2.825 1.884 4 4-2.745-.557-1.628 1.409-2 2-3.326 5.29-.902 4.981 0 11-2.01-2.529-2.972 4.207-3 4.5-.978 10.16.053 22.983 0 33.5h-4c-.004-.661.002-1.339 0-2-.033-11.892-.511-39.771 2-50 .027-.109.858-1.759 1-2 .642-1.087.397-1.3 2-1"/><path fill="#031934" d="M845 454c15.671 28.222 10.27 113.977-6 141.5-3.932 6.652-20.18 10.471-27.5 14.5-2.092 1.152-4.122 6.243-7 8-4.28 2.614-14.363 4.299-19.5 6 .318-.984.698-2.018 1-3 17.076-4.65 22.44-7.363 25-25h3c-.1 2.664-.917 4.868-1 7.5l2.5 1.5c5.757-5.983 17.417-5.253 21.5-13.5.35-.707 2.959-14.712 3-15.5 1.082-20.732-3.853-48.827-4-71h4c-.113 22.534-.521 45.066 2 67.5 6.678-13.318 9.049-29.879 10-45.5.558-9.163.645-20.856 0-30-.994-14.092-3.122-28.117-9-41 .372-.591-.745-2.557 2-2"/><path fill="#2dc8e8" d="M180 462c-5.321 31.094-6.753 57.666-4 89.5.145 1.679.841 5.006-2 4.5-7.108-31.648-5.6-70.014 5-100.5 3.923-1.503 1.245 5.071 1 6.5"/><path fill="#70d9f5" d="m852 497-5 3c-.605-12.283-2.224-21.151-4-33-.902-6.019-3.326-5.71 0-11 5.878 12.883 8.006 26.908 9 41"/><path fill="#006a9c" d="M174 556c2.841.506 2.145-2.821 2-4.5-2.753-31.834-1.321-58.406 4-89.5 2.54 8.991 2.708 19.817 3 29.5.564 18.691.747 46.689-1 65-1.825 19.128-4.74 14.016-8-.5"/><path fill="#fcfcfd" d="M717 466c.477 2.21-1.191 2.872-.5 5 1.921 5.916 18.904 26.833 23.5 36.5 5.082 10.691 8.522 22.217 12 33.5-5.854-3.919-14.047-13.539-18-19.5-5.695-8.589-20.952-47.498-25-50.5-.057-.042.359-.725-1-1-1.274-3.972 5.75-3.55 9-4"/><path fill="#0c507f" d="M843 467c1.776 11.849 3.395 20.717 4 33 .605 12.275.316 25.264-1 37.5 7.635 2.45.916-8.909 6-10.5-.951 15.621-3.322 32.182-10 45.5-2.521-22.434-2.113-44.966-2-67.5.053-10.517-.978-23.34 0-33.5.028-.293.99-7.029 3-4.5"/><path fill="#565558" d="M708 470c1.359.275.943.958 1 1-1.158-.181-.931.983-1 1-2.7.672-16.478 1.066-17 3.5l32 51-3 3.5c-11.966-18.144-20.198-38.271-32-56.5-.077-1.012 18.844-3.734 20-3.5"/><path fill="#100a0b" d="M752 541c4.25 2.845 8.438 3.266 12.5 6-7.658 1.833-15.928 2.04-23.5 4v-3c5.101-.641 10.98.753 15-2.5-1.246-.875-2.53-1.195-4-1.5-24.205-18.235-31.902-45.831-44-72 .069-.017-.158-1.181 1-1 4.048 3.002 19.305 41.911 25 50.5 3.953 5.961 12.146 15.581 18 19.5"/><path fill="#434145" d="M708 472c12.098 26.169 19.795 53.765 44 72-5.972-1.239-16.957-1.131-23 0-1.915-5.27-5.987-9.431-9-14l3-3.5-32-51c.522-2.434 14.3-2.828 17-3.5"/><path fill="#03608f" d="M815 486c.135 6.646-.185 13.357 0 20 .102 3.649-.059 7.349 0 11-2.511 2.287-2.993 13.376-3 16.5-.043 19.524 1.777 43.368-1 62.5-2.56 17.637-7.924 20.35-25 25 7.839-25.445 14.532-56.587 18-83l7 .5c.452-7.428-.617-15.113 0-22.5.009-.103 1.941.327 2-.5.992-13.943-1.236-28.843 0-43z"/><path fill="#005a87" d="M223 488c1.81 44.841 7.374 89.71 21 132.5-1.549 4.057-24.225-4.429-28-10.5-3.33-44.449-5.923-89.285-5-134 15.838-1.866 6.287 3.312 12 12"/><path fill="#7ccdf8" d="M834 500c-.035.122-1.508-.415-2 .5-.46.855.688 3.659-.5 4.5-1.481 1.049-12.118-1.532-14.5 1h-2c-.185-6.643.135-13.354 0-20h18.5c.598.424.895 12.608.5 14"/><path fill="#175064" d="M799 489c.193 1.957-.132 4.031 0 6-1.297-.088-5.406-.339-6 .5 1.827 36.253-.648 73.605-14 107.5-40.217 102.091-221.312 101.615-313 94-56.754-4.714-115.747-14.258-164-46l1-3c90.56 59.149 287.982 58.354 388.5 26 86.111-27.717 99.387-92.734 97.5-176l4-7c.189.812-.396 2.961.5 3 .689-2.714 2.727-5.578 5.5-5"/><path fill="url(#h)" d="M799 495c1.974.134 3.308 1.241 5 2-3.438 56.597-15.567 120.644-42 171-7.225 13.764-15.85 26.476-25 39-2.792.332-5.637 3.827-7 6-1.217-.156-1.66 1.66-2 2-.325.326-.68.685-1 1-101.623 99.747-329.956 102.836-427-6-22.367-25.085-35.382-63.859-52-93-4.691-14.86-14.72-44.787-13-59.5.064-.549 1.192-5.395 3-4.5 2.576 14.538 6.624 30.678 13 44 17.79 46.81 66.307 70.377 111.5 84 34.23 10.318 67.945 14.715 103.5 18 71.635 6.619 144.339 5.102 214-14-10.652 8.787-2.027 18.336 9.5 16 9.691-1.964 11.957-15.564 2.5-20 19.292-7.417 39.084-12.253 55.5-26 14.208-11.898 27.537-34.129 31.5-52 13.352-33.895 15.827-71.247 14-107.5.594-.839 4.703-.588 6-.5M506.5 729c-38.967 5.384-26.016 67.262 15 55 31.254-9.344 21.609-60.059-15-55" style="fill:url(#h)"/>/&gt;<path fill="#2c8cc2" d="M852 527c-5.084 1.591 1.635 12.95-6 10.5 1.316-12.236 1.605-25.225 1-37.5l5-3c.645 9.144.558 20.837 0 30"/><path fill="#49d7eb" d="m834 500 2 3c.002.661-.004 1.339 0 2 .147 22.173 5.082 50.268 4 71-5.268-15.704-3.8-32.747-5-49-.505-6.841-2.17-13.758-1-20.5-.795-.968-14.443-.5-17-.5 2.382-2.532 13.019.049 14.5-1 1.188-.841.04-3.645.5-4.5.492-.915 1.965-.378 2-.5"/><path fill="#53a0dc" d="M817 506c2.557 0 16.205-.468 17 .5-1.17 6.742.495 13.659 1 20.5-7.443-1.724-11.248 5.989-19 5-.007-5.089-.919-9.985-1-15-.059-3.651.102-7.351 0-11z"/><path fill="#1a88bf" d="M811 516c-.617 7.387.452 15.072 0 22.5l-7-.5c.949-7.227 1.283-14.734 2-22z"/><path fill="#01335d" d="M815 517c.081 5.015.993 9.911 1 15 .029 21.314-1.202 42.717-2 64h-3c2.777-19.132.957-42.976 1-62.5.007-3.124.489-14.213 3-16.5"/><path fill="#646f73" d="M324 524c3.232 2.736 8.495 5.208 11 9-.359 1.176-2.16 7.965-2 8.5 1.043 3.488 34.642 29.656 35 32 .252 1.645-4.677 7.011-4 9.5-27.135-22.335-51.508-53.155-87.5-60l3.5-3c21.008-2.281 23.342.117 42 5.5 3.666 1.058.01-1.074 2-1.5"/><path fill="#4a99aa" d="m280 520-3.5 3c35.992 6.845 60.365 37.665 87.5 60 24.367 20.057 43.585 34.97 74 46 57.507 20.855 112.392 16.012 168-7 21.675-8.97 41.716-20.243 62-32-74.191 64.437-180.322 81.656-267.5 32-46.874-26.699-82.65-82.313-133.5-98-.198-.893.477-2.526 1-3 4.142.599 8.007-.566 12-1"/><path fill="#64e7fd" d="M498 540c7.288 5.877 11.822 21.081 9 30-15.546.427-64.792-22.065-52-42.5 8.059-12.874 19.745 1.083 27.5 5.5 3.613 2.058 13.136 5.094 15.5 7"/><path fill="url(#i)" d="M835 527c1.2 16.253-.268 33.296 5 49-.041.788-2.65 14.793-3 15.5-4.083 8.247-15.743 7.517-21.5 13.5l-2.5-1.5c.083-2.632.9-4.836 1-7.5.798-21.283 2.029-42.686 2-64 7.752.989 11.557-6.724 19-5" style="fill:url(#i)"/>/&gt;<path fill="#7c8589" d="M353 546c2.383 2.378 4.525 5.759 7 8-.789 3.152 7.976 10.089 10.5 12 18.505 14.008 42.31 29.64 64.5 36 .673.326 1.386.707 2 1 1.293.617 7.534 5.562 8.5 6 .228.103 1.327-1.377 5 0 .918.344-1.465 1.919 1 3 5.661 2.483 6.591-1.073 7-1 3.885.695 5.684 3.47 7.5 4 2.726.796 5.358 1.268 8 2 .549.152 1.478-.161 2 0 6.025 1.866 5.88 2.055 4.5 9l-45-12c-2.214 1.595 1.582 12.41 2.5 15-30.415-11.03-49.633-25.943-74-46-.677-2.489 4.252-7.855 4-9.5-.358-2.344-33.957-28.512-35-32-.16-.535 1.641-7.324 2-8.5.033-.107 1.548-.854 2-1 1.815 2.68 12.545 10.553 16 14"/><path fill="#707475" d="M752 544c1.47.305 2.754.625 4 1.5-4.02 3.253-9.899 1.859-15 2.5-11.442 1.439-24.431 2.757-35 8 .747-3.004-7.149-.131-7.5 0-9.09 3.403-17.773 8.838-26.5 13-46.724 22.283-91.798 43.206-144.5 48H476c-.522-.161-1.451.152-2 0 3.001-2.962-8.797-4.898-8-2-1.816-.53-3.615-3.305-7.5-4-.409-.073-1.339 3.483-7 1-2.465-1.081-.082-2.656-1-3-3.673-1.377-4.772.103-5 0-.966-.438-7.207-5.383-8.5-6 61.18 22.727 128.603 10.76 187.5-13 22.471-9.065 43.321-22.433 65.5-32 6.034-2.603 14.172-7.109 20-9 1.418-.46 16.829-4.594 19-5 6.043-1.131 17.028-1.239 23 0"/><path fill="#636e72" d="M741 548v3c-14.371 3.72-28.055 9.864-41 17-4.62-8.417-.523-8.764 6-12 10.569-5.243 23.558-6.561 35-8"/><path fill="#5e6363" d="M435 602c-22.19-6.36-45.995-21.992-64.5-36-2.524-1.911-11.289-8.848-10.5-12 23.779 21.531 46.404 34.172 75 48"/><path fill="#7c8689" d="M706 556c-6.523 3.236-10.62 3.583-6 12-11.299 6.228-21.766 16.068-32 22-20.284 11.757-40.325 23.03-62 32 1.985-2.345.151-5.845 1.5-8 1.221-1.95 38.761-16.067 40.5-21.5 1.626-5.08-1.991-2.326-5-1.5 7.574-4.532 19.654-11.884 26.5-17 1.242-.928 4.213-3.078 2.5-5 8.727-4.162 17.41-9.597 26.5-13 .351-.131 8.247-3.004 7.5 0"/><path fill="#979ea1" d="M672 569c1.713 1.922-1.258 4.072-2.5 5-6.846 5.116-18.926 12.468-26.5 17-9.308 2.557-20.182 10.177-29 14.5 10.549-2.889 19.751-8.965 29-14.5 3.009-.826 6.626-3.58 5 1.5-1.739 5.433-39.279 19.55-40.5 21.5-1.349 2.155.485 5.655-1.5 8-55.608 23.012-110.493 27.855-168 7-.918-2.59-4.714-13.405-2.5-15l45 12c1.38-6.945 1.525-7.134-4.5-9h51.5c52.702-4.794 97.776-25.717 144.5-48"/><path fill="#7e888b" d="M643 591c-9.249 5.535-18.451 11.611-29 14.5 8.818-4.323 19.692-11.943 29-14.5"/><path fill="#6fa4b8" d="M302 651c48.253 31.742 107.246 41.286 164 46v2c-35.555-3.285-69.27-7.682-103.5-18-45.193-13.623-93.71-37.19-111.5-84 11.014 23.013 30.106 40.255 51 54"/><path fill="#f5f9fa" d="M692 681c-3.815 1.467-7.689.444-12 4-69.661 19.102-142.365 20.619-214 14v-2c91.688 7.615 272.783 8.091 313-94-3.963 17.871-17.292 40.102-31.5 52-16.416 13.747-36.208 18.583-55.5 26"/><path fill="#9ba0a2" d="M474 617c-2.642-.732-5.274-1.204-8-2-.797-2.898 11.001-.962 8 2"/><path fill="#6da8bd" d="M300 710c85.557 122.045 276.433 138.492 389.5 46 13.024-10.654 28.87-26.019 37.5-40 .32-.315.675-.674 1-1 1.538 2.333 1.925-1.88 2-2 1.363-2.173 4.208-5.668 7-6-49.818 68.194-117.848 106.245-203 112-47.611 3.218-94.953-4.604-138-25-70.888-33.587-124.676-103.12-148-177 16.618 29.141 29.633 67.915 52 93"/><path fill="#0b4259" d="M618 807c-.741.265-2.241-.261-3 0-26.214 9.029-51.41 13.549-79 16l-2-4c85.152-5.755 153.182-43.806 203-112 9.15-12.524 17.775-25.236 25-39 2.591 5.605 1.516 1.046 5-1-30.053 62.309-82.632 116.274-149 140"/><path fill="#ccf5fa" d="M692 681c9.457 4.436 7.191 18.036-2.5 20-11.527 2.336-20.152-7.213-9.5-16 4.311-3.556 8.185-2.533 12-4"/><path fill="url(#j)" d="M727 716c-8.63 13.981-24.476 29.346-37.5 40-113.067 92.492-303.943 76.045-389.5-46 97.044 108.836 325.377 105.747 427 6" style="fill:url(#j)"/>/&gt;<path fill="#495f6c" d="M728 715c.34-.34.783-2.156 2-2-.075.12-.462 4.333-2 2"/><path fill="#022742" d="M506.5 729c36.609-5.059 46.254 45.656 15 55-41.016 12.262-53.967-49.616-15-55M491 746c-4.758-4.104-5.745 18.485-2 13 .69 9.211 7.181 18.55 17 20 7.91 1.168 13.704-.397 20-5 5.958-4.356 7.816-7.461 8-15 .402-16.523-8.331-25.34-25-24-6.137.493-15.572 5.544-18 11"/><path fill="#0196b7" d="M509 735c-.983 6.325 7.894 4.917 12.5 8 6.807 4.556 7.662 13.452 8 21l4.5-5c-.184 7.539-2.042 10.644-8 15-1.632-7.947-4.59-1.204-7.5-1-13.278.93-19.239-.853-26-13-.947 9.488 8.238 13.485 13.5 19-9.819-1.45-16.31-10.789-17-20-.36-4.804.042-8.602 2-13 2.428-5.456 11.863-10.507 18-11m-12.5 11c-7.122 2.897-.334 29.313 18 26 13.738-2.483 9.159-21.162-1-25-1.339-.506-16.211-1.321-17-1"/><path fill="#0bc8e5" d="m534 759-4.5 5c-.338-7.548-1.193-16.444-8-21-4.606-3.083-13.483-1.675-12.5-8 16.669-1.34 25.402 7.477 25 24"/><path fill="#001324" d="M491 746c-1.958 4.398-2.36 8.196-2 13-3.745 5.485-2.758-17.104 2-13"/><path fill="#06bde0" d="M496.5 746c.789-.321 15.661.494 17 1 10.159 3.838 14.738 22.517 1 25-18.334 3.313-25.122-23.103-18-26"/><path fill="#14c1de" d="M526 774c-6.296 4.603-12.09 6.168-20 5-5.262-5.515-14.447-9.512-13.5-19 6.761 12.147 12.722 13.93 26 13 2.91-.204 5.868-6.947 7.5 1"/><path fill="#00314f" d="m534 819 2 4c-10.422.926-21.015 1.091-31.5 1-.217 4.318-2.728 12.148 2.5 14-18.409-.976-36.813-3.794-53.5-12-.962 3.8-1.031 11.16 1.5 14-3.823 9.48 6.162 21.158 14 26-1.866.398-1.767 4.582-2.5 5-4.788 2.728-43.041-19.6-48-25-4.422-4.815-4.63-10.185-8.5-12 2.464-7.757.33-19.115 2-27.5-6.758-3.094-13.377-6.124-20-9.5l4-3c43.047 20.396 90.389 28.218 138 25"/><path fill="#004e71" d="M615 807c-1.052 1.82-.858 3.059-2 5-10.668 3.695-19.869 10.924-30.5 15-23.911 9.168-50.096 12.347-75.5 11-5.228-1.852-2.717-9.682-2.5-14 10.485.091 21.078-.074 31.5-1 27.59-2.451 52.786-6.971 79-16"/><path fill="url(#k)" d="M618 807v5l-4 28c-6.248 8.578-14.256 13.514-23 19-22.688 6.006-44.002 17.083-69.5 18-14.835.533-39.836-3.177-52.5-11-7.838-4.842-17.823-16.52-14-26 3.111 3.49 33.628 12.243 39.5 13 33.851 4.363 99.869-9.326 118.5-41 1.142-1.941.948-3.18 2-5 .759-.261 2.259.265 3 0" style="fill:url(#k)"/>/&gt;<path fill="#005883" d="M613 812c-18.631 31.674-84.649 45.363-118.5 41-5.872-.757-36.389-9.51-39.5-13-2.531-2.84-2.462-10.2-1.5-14 16.687 8.206 35.091 11.024 53.5 12 25.404 1.347 51.589-1.832 75.5-11 10.631-4.076 19.832-11.305 30.5-15"/><path fill="#045a89" d="M618 812c0 5.349-.875 20.474 1 24.5 1.966 4.222 16.077 9.518 17 21 1.55 19.285-40.307 40.523-55 48.5l-1-3c12.389-6.802 55.365-30.331 53-46.5-.505-3.455-4.785-5.197-5-5.5-3.8-5.375-5.639-8.894-11-10-.155-.032-.819-1.816-3-1z"/><path fill="#004b71" d="M469 866c12.664 7.823 37.665 11.533 52.5 11 25.498-.917 46.812-11.994 69.5-18-14.379 9.022-33.784 17.576-50.5 21-21.023 4.306-38.111 3.189-58-2-4.377 3.97 1.797 4.335 4.5 6 9.341 5.754 23.774 6.04 36 5-4.641 4.513-15.437.809-21.5 2 27.334 5.33 83.121-13.016 104.5-31l1 2c-8.855 7.269-16.702 12.869-27 18-49.3 24.563-92.649 25.754-141-2-5.863-3.365-35.066-23.201-34-29.5.201-1.19 3.346-1.466 4-7.5.017-.157 2.45-2.084-1-3 1.245-1.542 1.426-2.191 2-4 3.87 1.815 4.078 7.185 8.5 12 4.959 5.4 43.212 27.728 48 25 .733-.418.634-4.602 2.5-5"/><path fill="#021f37" d="M409 841c-6.742 4.982-10.329 6.697-12 15-.04.198-3.392-.54-2 3.5 14.485 16.723 33.897 28.606 53 39.5.218.189-.487 1.926.5 3 2.463 2.681 29.846 10.007 30.5 11.5 1.337 5.224-3.852 2.636-7.5 1.5-7.243-2.256-13.455-7.834-20-11-.127-.062-5.582 0-2 2 35.597 19.499 54.821 27.824 94.5 14 12.791-4.456 24.203-10.522 36-17l1 3c-23.951 13.003-51.123 28.073-79.5 25-21.997-2.382-107.9-45.634-110.5-68.5-1.682-14.791 11.444-17.622 17-24.5 3.45.916 1.017 2.843 1 3"/><path fill="#00324d" d="M617 841c-.832.845-.904 2.875-1 3-7.182 9.352-32.81 24.227-44 29-26.588 11.342-56.427 17.818-85 11-2.703-1.665-8.877-2.03-4.5-6 19.889 5.189 36.977 6.306 58 2 16.716-3.424 36.121-11.978 50.5-21 8.744-5.486 16.752-10.422 23-19 2.181-.816 2.845.968 3 1"/><path fill="#68e8fd" d="M628 851c7.119 14.916-20.943 30.211-32 38l-10.5 5-5.5-14c10.298-5.131 18.145-10.731 27-18 4.659-3.825 23.288-14.319 9-18 .096-.125.168-2.155 1-3 5.361 1.106 7.2 4.625 11 10"/><path fill="#064a65" d="M439 878c-3.6 2.455-4.385 7.064-4 11-13.549-9.894-28.605-18.461-38-33 1.671-8.303 5.258-10.018 12-15-.654 6.034-3.799 6.31-4 7.5-1.066 6.299 28.137 26.135 34 29.5"/><path fill="#06afd9" d="m607 862-1-2c1.208-1.016 13.819-13.92 10.5-15-12.423 14.715-27.406 21.597-44.5 29v-1c11.19-4.773 36.818-19.648 44-29 14.288 3.681-4.341 14.175-9 18"/><path fill="#01314a" d="M606 860c-21.379 17.984-77.166 36.33-104.5 31 6.063-1.191 16.859 2.513 21.5-2 17.326-1.474 33.289-8.196 49-15 17.094-7.403 32.077-14.285 44.5-29 3.319 1.08-9.292 13.984-10.5 15"/><path fill="#1bd5f5" d="M580 903c-11.797 6.478-23.209 12.544-36 17-.566-3.353.572-2.803 2.5-4 16.594-10.301 32.952-15.343 49.5-27 11.057-7.789 39.119-23.084 32-38 .215.303 4.495 2.045 5 5.5 2.365 16.169-40.611 39.698-53 46.5"/><path fill="#54e8f2" d="M397 856c9.395 14.539 24.451 23.106 38 33 3.857 2.817 10.603 5.604 13.5 8 1.826 1.51-.578 1.932-.5 2-19.103-10.894-38.515-22.777-53-39.5-1.392-4.04 1.96-3.302 2-3.5"/><path fill="#037798" d="M572 873v1c-15.711 6.804-31.674 13.526-49 15-12.226 1.04-26.659.754-36-5 28.573 6.818 58.412.342 85-11"/><path fill="#1f93bc" d="m580 880 5.5 14 10.5-5c-16.548 11.657-32.906 16.699-49.5 27-1.928 1.197-3.066.647-2.5 4-39.679 13.824-58.903 5.499-94.5-14-3.582-2 1.873-2.062 2-2 6.545 3.166 12.757 8.744 20 11 3.648 1.136 8.837 3.724 7.5-1.5-.654-1.493-28.037-8.819-30.5-11.5-.987-1.074-.282-2.811-.5-3-.078-.068 2.326-.49.5-2-2.897-2.396-9.643-5.183-13.5-8-.385-3.936.4-8.545 4-11 48.351 27.754 91.7 26.563 141 2m1.5 14c-.387.053-6.33 4.505-5 6 2.327-.533 11.595-6.896 5-6"/><path fill="#6ae8fd" d="M581.5 894c6.595-.896-2.673 5.467-5 6-1.33-1.495 4.613-5.947 5-6"/></svg>