<svg xmlns="http://www.w3.org/2000/svg" width="1024" height="1024"><defs><linearGradient id="a" x1="310.367" x2="737.836" y1="195.545" y2="395.682" gradientUnits="userSpaceOnUse"><stop offset="31.568%" style="stop-color:#c6e4ee"/><stop offset="93.644%" style="stop-color:#708895"/></linearGradient></defs><defs><linearGradient id="b" x1="313.574" x2="742.313" y1="281.199" y2="480.978" gradientUnits="userSpaceOnUse"><stop offset="0%" style="stop-color:#226075"/><stop offset="30.233%" style="stop-color:#5996a8"/><stop offset="38.478%" style="stop-color:#5794a6"/><stop offset="100%" style="stop-color:#16424d"/></linearGradient></defs><defs><linearGradient id="c" x1="560.9" x2="396.355" y1="284.555" y2="525.779" gradientUnits="userSpaceOnUse"><stop offset="0%" style="stop-color:#a8e3f6"/><stop offset="76.37%" style="stop-color:#ddf2f9"/></linearGradient></defs><defs><linearGradient id="d" x1="514.699" x2="508.158" y1="437.572" y2="621.455" gradientUnits="userSpaceOnUse"><stop offset="0%" style="stop-color:#00597b"/><stop offset="100%" style="stop-color:#3dbee7"/></linearGradient></defs><defs><linearGradient id="e" x1="181.621" x2="193.445" y1="533.17" y2="585.859" gradientUnits="userSpaceOnUse"><stop offset="0%" style="stop-color:#1797c4"/><stop offset="100%" style="stop-color:#0a6f94"/></linearGradient></defs><defs><linearGradient id="f" x1="305.936" x2="672.217" y1="505.711" y2="639.644" gradientUnits="userSpaceOnUse"><stop offset="0%" style="stop-color:#aac8d8"/><stop offset="45.897%" style="stop-color:#dfedf2"/><stop offset="100%" style="stop-color:#79a8be"/></linearGradient></defs><defs><linearGradient id="g" x1="224.25" x2="226.139" y1="526.915" y2="661.902" gradientUnits="userSpaceOnUse"><stop offset="0%" style="stop-color:#85c6db"/><stop offset="100%" style="stop-color:#4d7f8b"/></linearGradient></defs><defs><linearGradient id="h" x1="507.523" x2="505.506" y1="496.953" y2="576.928" gradientUnits="userSpaceOnUse"><stop offset="0%" style="stop-color:#152443"/><stop offset="100%" style="stop-color:#286698"/></linearGradient></defs><defs><linearGradient id="i" x1="520.601" x2="500.322" y1="500.261" y2="594.094" gradientUnits="userSpaceOnUse"><stop offset="0%" style="stop-color:#0c2243"/><stop offset="100%" style="stop-color:#096b9a"/></linearGradient></defs><defs><linearGradient id="j" x1="835.435" x2="819.497" y1="529.372" y2="586.179" gradientUnits="userSpaceOnUse"><stop offset="0%" style="stop-color:#249ac5"/><stop offset="100%" style="stop-color:#097398"/></linearGradient></defs><defs><linearGradient id="k" x1="789.585" x2="778.422" y1="526.195" y2="656.719" gradientUnits="userSpaceOnUse"><stop offset="0%" style="stop-color:#88c9de"/><stop offset="100%" style="stop-color:#4f828d"/></linearGradient></defs><defs><linearGradient id="l" x1="272.578" x2="662.949" y1="612.481" y2="819.784" gradientUnits="userSpaceOnUse"><stop offset="23.756%" style="stop-color:#adcad7"/><stop offset="69.457%" style="stop-color:#83a5b5"/><stop offset="100%" style="stop-color:#477283"/></linearGradient></defs><path fill="#225f73" d="m291 165-4-2c15.467-5.666 24.005-26.05 8.5-37-.074-.053-.948 1.338-1.5 1-2.364-1.448-4.18-3.277-7-4-4.401-1.129-4.297-1.53-9-1-4.077.459-5.503.977-9 3-8.683 5.023-9.583 7.781-9 17 .377 5.958-.583 7.568 6 12-2.175 5.823 7.287 7.004 10 10-.427.182-1.149-.089-1 1l-3 77.5c2.852 3.663 3.132-.621 5-2.5 1.445-1.455 10.772-11.699 11-12.5 3.384-11.866-2.467-45.061-3-58.5.38.041.83-2.027 6-1-.454 4.718.775 10.888 1 16l1 37.5c1.936 2.08 2-3.191 2-3.5l11-9c-.333.444-2.909 4.978-3 5.5l4 1.5c-19.323 18.243-35.452 42.263-49 65 1.022-3.013 3.455-10.308.5-11-3.428 5.672-7.111 11.332-10.5 17 2.509-6.251 5.56-12.726 9-18.5 8.961-15.044 12.47-13.608 14-33 1.817-23.023-.807-46.992 3-70-12.298-6.943-22.554-18.13-16-33 9.799-22.232 52.469-15.443 48 14-1.65 10.871-13.81 14.852-15 18.5"/><path fill="#1e556a" d="M754 163c.117-.959-.335-.848-1-1 2.916-3.478 7.172-4.735 10-8.5 4.868-6.482 3.396-24.683-5.5-29.5-1.083-.586-1.792 1.307-2.5 1-1.826-.791-2.844-1.586-5-2-4.897-.941-4.291-1.965-10-1-8.671 1.465-13.048 5.799-16 14-.833 2.315-2.064 1.578-2 6 .08 5.518 2.152 6.034 4 10 .057.122-2.084.634-1 2.5 4.039 6.947 19.977 8.139 27 7.5-4.364.791-12.658 3.13-17 2-16.862-4.387-21.493-31.083-5.5-41 24.149-14.975 53.679 13.107 32 36-1.195 1.262-6.556 2.948-7.5 4"/><path fill="#a8daf0" d="M287 123c15.508 19.548-14.756 41.021-27 19-.583-9.219.317-11.977 9-17-12.522 11.139-7.109 26.475 8 13 4.305-3.839 10.564-11.021 3-15-.47-.247-2.079.574-2-1 4.703-.53 4.599-.129 9 1"/><path fill="#a8daef" d="M750 123c15.062 20.655-13.98 39.973-28 19-.064-4.422 1.167-3.685 2-6-.298 7.362 5.418 8.119 11 6 6.371-2.418 17.446-15.642 7-19-.688-.221-2.054.53-2-1 5.709-.965 5.103.059 10 1"/><path fill="#f9fcfd" d="M278 122c-.079 1.574 1.53.753 2 1-1.483 7.484-11.991 8.047-15 15.5l12-.5c-15.109 13.475-20.522-1.861-8-13 3.497-2.023 4.923-2.541 9-3m462 0c-.054 1.53 1.312.779 2 1-.061 7.486-12.417 7.465-14 15.5.317.783 12.613-3.238 7 3.5-5.582 2.119-11.298 1.362-11-6 2.952-8.201 7.329-12.535 16-14"/><path fill="#e7f9fd" d="m277 138-12 .5c3.009-7.453 13.517-8.016 15-15.5 7.564 3.979 1.305 11.161-3 15"/><path fill="#6ba9c2" d="M294 127c15.582 19.051-8.578 40.075-28 27-6.583-4.432-5.623-6.042-6-12 12.244 22.021 42.508.548 27-19 2.82.723 4.636 2.552 7 4"/><path fill="#e7f9fe" d="M735 142c5.613-6.738-6.683-2.717-7-3.5 1.583-8.035 13.939-8.014 14-15.5 10.446 3.358-.629 16.582-7 19"/><path fill="#6caac2" d="M755 125c20.471 20.583-8.824 44.344-29 27-1.848-3.966-3.92-4.482-4-10 14.02 20.973 43.062 1.655 28-19 2.156.414 3.174 1.209 5 2"/><path fill="#2e6f84" d="M753 162c-.254-.058-.74-.047-1 0-7.023.639-22.961-.553-27-7.5-1.084-1.866 1.057-2.378 1-2.5 20.176 17.344 49.471-6.417 29-27 .708.307 1.417-1.586 2.5-1 8.896 4.817 10.368 23.018 5.5 29.5-2.828 3.765-7.084 5.022-10 8.5"/><path fill="#2f7086" d="M287 163c-4.188 1.534-9.212.237-11 1-2.713-2.996-12.175-4.177-10-10 19.422 13.075 43.582-7.949 28-27 .552.338 1.426-1.053 1.5-1 15.505 10.95 6.967 31.334-8.5 37"/><path fill="#1d5467" d="M735 167c.878-.038 1.001.852 2 1-.685 6.443.585 15.463 0 21.5-1.536 15.848-7.708 32.222 0 47.5 3.154 6.252 10.046 14.331 14 20.5l-1-87c-1.14-2.578-5.897-1.094-8-1.5-1.702-.329-3.179-.73-5-1 .451-1.398 11.88-2.226 12.5-2 2.648.963.007 5.518 3.5 5-1.041 16.583-.767 79.085 2 93.5 2.336 12.167 20.888 46.567 26 65 9.432 34.01 10.357 73.862 19 105 4.893 17.627 24.385 14.467 33 26 29.112 38.971 19.38 148.085-4 189-13.272 23.227-28.71 16.083-52 21.5.002-.112-.493.225-1-2 5.102-.519 26.35-1.906 27-7.5.153-1.32-8.019-20.001-9-25-7.945-40.491-3.696-82.932 1-123.5h3c-2.111 5.468-4.684 39.743-5 47.5-1.085 26.62-.513 57.417 8 82.5 10.073 43.73 26.764 6.237 34-14 12.337-34.501 18.528-79.081 13-115.5-.909-5.986-6.694-30.688-10-34.5-.932-5.62-6.443-19.858-11.5-22-13.244-5.612-17.625 19.852-22.5 27-.729 1.069-2.71 2.273-4 3 1.062-6.023 4.715-12.219 6-18l10-15.5c-5.352-4.443-10.586-5.628-16-10.5-11.754-10.577-10.449-32.222-13-48-.206-1.271.213-2.732 0-4-10.608-63.261-27.643-120.06-72-168-12.352-13.35-25.366-26.411-41-36-101.542-82.26-275.07-57.789-367 29l-4-1.5c.091-.522 2.667-5.056 3-5.5 12.263-16.319 55.437-43.076 74.5-52 99.617-46.633 236.839-35.857 320 39 5.195 4.676 26.026 30.316 28 31 2.505.868 3.252-3.244 3.5-4.5 2.827-14.322 1.312-39.217 3-55.5"/><path fill="url(#a)" d="M674 187c11.561 9.366 28.837 25.99 39 37 33.73 36.542 59.248 94.87 69 143.5 1.476 7.361-.421 18.304 5 23.5.213 1.268-.206 2.729 0 4l-.5 15c-2.258-8.658-6.608-16.097-10.5-24-35.168-71.419-85.541-100.137-160-122-42.351-12.435-95.956-17.227-143.5-12-89.485 9.838-181.268 59.038-229.5 136-9.596 13.654-16.835 28.619-22 44.5l-4-1.5c2.274-66.494 21.549-92.627 41-150 13.548-22.737 29.677-46.757 49-65 91.93-86.789 265.458-111.26 367-29m-174.5-39c-85.964 3.541-170.462 39.987-214.5 116.5l-10 21c44.536-92.392 138.199-124.867 233.5-137.5-2.994.087-6.009-.123-9 0m-131 59c-15.622 1.199-53.039 29.108-63.5 41.5-10.133 12.004-39.247 56.798-3.5 53.5 16.302-1.504 62.631-48.366 70.5-63.5 4.862-9.351 15.458-32.955-3.5-31.5m-80 100c-5.519.628-11.214 10.466-11.5 15.5 9.444 14.43 29.009-17.493 11.5-15.5" style="fill:url(#a)"/>/&gt;<path fill="#fcfdfe" d="M499.5 148c2.991-.123 6.006.087 9 0-95.301 12.633-188.964 45.108-233.5 137.5l10-21c44.038-76.513 128.536-112.959 214.5-116.5"/><path fill="#081d26" d="M753 162c.665.152 1.117.041 1 1-3.169 3.535-.738 3.819-1 8-3.493.518-.852-4.037-3.5-5-.62-.226-12.049.602-12.5 2-.999-.148-1.122-1.038-2-1 .101-.976-.06-2.015 0-3 4.342 1.13 12.636-1.209 17-2 .26-.047.746-.058 1 0"/><path fill="#091318" d="M291 165c-.228.698.092 2.043 0 3-5.17-1.027-5.62 1.041-6 1-1.749-.187-3.348-.461-5-1-1.519-.495-3.543-2.182-5-3-.149-1.089.573-.818 1-1 1.788-.763 6.812.534 11-1z"/><path fill="#99ccdb" d="m280 168-3 72c-1.868 1.879-2.148 6.163-5 2.5l3-77.5c1.457.818 3.481 2.505 5 3"/><path fill="#92b4bf" d="M280 168c1.652.539 3.251.813 5 1 .533 13.439 6.384 46.634 3 58.5-.228.801-9.555 11.045-11 12.5z"/><path fill="#e0f2f7" d="m742 169-5 68c-7.708-15.278-1.536-31.652 0-47.5.585-6.037-.685-15.057 0-21.5 1.821.27 3.298.671 5 1"/><path fill="#73a4b7" d="m737 237 5-68c2.103.406 6.86-1.078 8 1.5l1 87c-3.954-6.169-10.846-14.248-14-20.5"/><path fill="#04131b" d="M295 218c0 .309-.064 5.58-2 3.5l-1-37.5c.491 11.171 2.995 22.923 3 34"/><path fill="#e2f4f7" d="m715 223-2 1c-10.163-11.01-27.439-27.634-39-37 15.634 9.589 28.648 22.65 41 36"/><path fill="#f3fbfd" d="M368.5 207c18.958-1.455 8.362 22.149 3.5 31.5-7.869 15.134-54.198 61.996-70.5 63.5-35.747 3.298-6.633-41.496 3.5-53.5 10.461-12.392 47.878-40.301 63.5-41.5"/><path fill="#a8bdc0" d="M787 391c-5.421-5.196-3.524-16.139-5-23.5-9.752-48.63-35.27-106.958-69-143.5l2-1c44.357 47.94 61.392 104.739 72 168"/><path fill="#def4f9" d="m616 264-8 1c-108.915-29.216-212.781-9.943-300 61l.5-6c-24.564 18.193-43.688 40.998-61.5 65.5-1.218 1.675-3.864 2.307-4 2.5 48.232-76.962 140.015-126.162 229.5-136 47.544-5.227 101.149-.435 143.5 12"/><path fill="#1b5569" d="M608 265c.528.142 1.826.672 3 1v2c-129.108-37.826-263.136 5.401-346 110.5-13.444 17.051-22.522 37.624-35 54-.812 1.066-5.975 7.47-8 5.5 27.093-48.163 41.692-75.96 86-112 87.219-70.943 191.085-90.216 300-61"/><path fill="url(#b)" d="M611 268c61.813 18.11 126.117 63.089 158 120 6.728 12.01 10.351 25.626 16 38-1.498 6.076-5.282 2.895-7.5 4-8.156 4.064-13.333 16.715-17.5 25h-1c-1.021-5.356-4.323-17.663-8-21-.052-.048.134-1.181-1-1 .758-.859.922-1.028 2-1.5-4.747-6.574-4.886-17.958-12-19.5-.069-.015.304-.972-1-1 3.655-2.792-4.775-13.317-7-16.5-24.126-34.522-67.231-70.913-105-89.5-27.591-13.578-57.207-22.369-88-25-45.438-3.883-84.433 2.544-127 17-24.606 8.356-40.723 16.585-63 30-38.114 22.952-83.566 77.82-96 121-3.26 11.321-2.7 21.775-6 34-.167.619-.011 1.125-1 1-2.49-5.372-3.695-15.381-6-22-3.83-11-6.338-26.087-22-16v-1c-.055-.323.074-.687 0-1 .716-1.599 3.332-3.812 4-5 2.025 1.97 7.188-4.434 8-5.5 12.478-16.376 21.556-36.949 35-54C347.864 273.401 481.892 230.174 611 268" style="fill:url(#b)"/>/&gt;<path fill="#9de1f2" d="M616 264c74.459 21.863 124.832 50.581 160 122l-2 4c-.268-.539-1.442-1.933-2-3-33.688-64.391-92.294-101.812-161-121-1.174-.328-2.472-.858-3-1z"/><path fill="#112c34" d="m772 387-3 1c-31.883-56.911-96.187-101.89-158-120v-2c68.706 19.188 127.312 56.609 161 121"/><path fill="#307084" d="M258 281c-19.451 57.373-38.726 83.506-41 150-.152 4.44-.037 7.619 1 12 .074.313-.055.677 0 1-2.681 2.352-3.401-4.14-7-4 7.337-57.75 4.997-99.465 37-153 3.389-5.668 7.072-11.328 10.5-17 2.955.692.522 7.987-.5 11"/><path fill="#a8c8d5" d="M539 280c-3.714 12.442 3.669 4.716 9 10-5.239-.623-10.744-1.636-16-2-32.067-2.222-61.426.311-92.5 8-3.458.856-20.858 8.257-22 8-.802-.18-4.022-6.226-5.5-7 42.567-14.456 81.562-20.883 127-17"/><path fill="#8ab2c2" d="m627 305-3 7c-22.533-11.841-50.793-19.002-76-22-5.331-5.284-12.714 2.442-9-10 30.793 2.631 60.409 11.422 88 25"/><path fill="#e9f7fc" d="M532 288c.437 3.002-2.676 1.947-4.5 2-38.973 1.123-73.382 4.607-110 19l-97 97c-17.297 9.048-17.287-4.191-21-5-2.885-.629-5.207 8.099-7.5 4 2.197-4.959 17.226-32.159 13.5-35-1.301 1.598-2.919 2.731-4.5 4l48-47c22.277-13.415 38.394-21.644 63-30 1.478.774 4.698 6.82 5.5 7 1.142.257 18.542-7.144 22-8 31.074-7.689 60.433-10.222 92.5-8"/><path fill="url(#c)" d="M548 290c25.207 2.998 53.467 10.159 76 22 8.711 4.577 18.572 12.432 26 19 26.282 23.241 48.048 54.788 70 82v1c-28.122 2.258-51.015 1.909-78.5-6l14.5-17.5c-10.917 6.277-22.753 9.442-35.5 8.5l8-17c-11.565 12.94-30.149 5.66-45 11 3.97-11.411 3.427-23.987-2-35-3.904 18.212-18.618 27.322-34 35l8-25c-17.91 18.698-46.928 14.467-71 19-10.34 1.947-23.686 5.293-34 8-4.39 1.152-21.023 8.942-23 9-5.436.161-14.127-11.329-17-16v23c-14.935 6.52-30.05 13.599-44 22-27.53 16.579-51.918 45.503-87.5 28l-5-5c4.58-21.421 9.439-31.671 18-51 2.293 4.099 4.615-4.629 7.5-4 3.713.809 3.703 14.048 21 5l97-97c36.618-14.393 71.027-17.877 110-19 1.824-.053 4.937 1.002 4.5-2 5.256.364 10.761 1.377 16 2" style="fill:url(#c)"/>/&gt;<path fill="#5a9db9" d="M739 411c-4.701-.101-12.897 2.51-19 3v-1c-5.402-13.365-19.49-30.176-30-42.5-12.052-14.133-25.039-28.556-40-39.5-7.428-6.568-17.289-14.423-26-19l3-7c37.769 18.587 80.874 54.978 105 89.5 2.225 3.183 10.655 13.708 7 16.5"/><path fill="#fdfefe" d="M288.5 307c17.509-1.993-2.056 29.93-11.5 15.5.286-5.034 5.981-14.872 11.5-15.5"/><path fill="#baebf8" d="M308 326c-44.308 36.04-58.907 63.837-86 112-.668 1.188-3.284 3.401-4 5-1.037-4.381-1.152-7.56-1-12l4 1.5c5.165-15.881 12.404-30.846 22-44.5.136-.193 2.782-.825 4-2.5 17.812-24.502 36.936-47.307 61.5-65.5z"/><path fill="#437e90" d="m349 327-48 47c-20.965 16.83-38.663 64.359-48 89.5V448c12.434-43.18 57.886-98.048 96-121"/><path fill="#eafbfe" d="M720 413c-21.952-27.212-43.718-58.759-70-82 14.961 10.944 27.948 25.367 40 39.5 10.51 12.324 24.598 29.135 30 42.5"/><path fill="#0c0b15" d="M720 414c6.103-.49 14.299-3.101 19-3 1.304.028.931.985 1 1-3.631 4.034-7.512 8.916-12 12-14.274 9.807-35.357 14.641-52.5 16 3.347 3.372 11.68 3.472 16.5 4-1.788 3.581-26.389-2.388-21.5-5 21.301-2.677 49.208-6.19 63-24-14.926.799-31.066 3.738-46 3-14.329-.708-35.644-8.888-47-9-6.654-.066-8.093 4.174-14 5l16.5-14.5-27.5 1.5 8.5-10.5c-5.688.24-11.291 1.037-17 1.5-6.198.503-15.906.524-21.5 2-7.064 1.865-12.736 9.298-20.5 8.5 17.074-5.886 23.997-20.693 16.5-37.5-4.606 8.63-10.875 16.355-19 22-5.806 4.034-32.135 17.068-38.5 18 3.023-4.789 11.14-4.893 15.5-8 6.317-4.501 9.896-13.531 12.5-20.5-1.003-3.831-8.009 2.747-10 3.5-28.643 10.829-70.362 9.393-105 22-3.419 1.245-7.76 1.51-10 5-5.42-3.277-10.561-5.699-14.5-11l1.5 17v1c-1.368-1.167-.702-1.9-2.5-2-5.397-.299-41.476 21.72-48.5 26-15.974 9.733-28.391 21.7-46 28-6.516-.198-17.3 3.051-24.5 3 10.777 5.453 20.744 10.823 33 6l-5-3h15c-.611 2.171-4.746 3.326-6.5 4-13.716 5.276-40.879 6.77-56 8-6.775.551-13.679.982-20.5 1-.275 2.472 5.614 4.919 7.5 6-5.22-.381-11.713-3.065-14-8 .989.125.833-.381 1-1 7.3 2.518 14.766.323 22 0 12.708-.567 25.634-.392 38-4.5-10.359-3.47-18.928-9.768-28-15.5v-1c35.582 17.503 59.97-11.421 87.5-28 13.95-8.401 29.065-15.48 44-22v-23c2.873 4.671 11.564 16.161 17 16 1.977-.058 18.61-7.848 23-9 10.314-2.707 23.66-6.053 34-8 24.072-4.533 53.09-.302 71-19l-8 25c15.382-7.678 30.096-16.788 34-35 5.427 11.013 5.97 23.589 2 35 14.851-5.34 33.435 1.94 45-11l-8 17c12.747.942 24.583-2.223 35.5-8.5L641.5 408c27.485 7.909 50.378 8.258 78.5 6"/><path fill="#423f54" d="M607 392c-2.83 10.235-11.184 17.791-21.5 20-25.893 5.544-51.033-3.548-77.5-3 .797-1.81-1.058-3.328-1-3.5.13-.384 2.246-.963 3-1.5 3.447 1.419 10.437 1.522 14 1 6.365-.932 32.694-13.966 38.5-18 8.125-5.645 14.394-13.37 19-22 7.497 16.807.574 31.614-16.5 37.5 7.764.798 13.436-6.635 20.5-8.5 5.594-1.476 15.302-1.497 21.5-2m-42.5-2L542 400.5c5.772.165 15.857-3.414 20.5-6.5.312-.208 5.719-3.605 2-4"/><path fill="#accbd8" d="M292 405c-8.561 19.329-13.42 29.579-18 51-.579 2.706.106 2.449 0 3-1.455 7.585-3.629 15.357-5 23-7.234.323-14.7 2.518-22 0 3.3-12.225 2.74-22.679 6-34v15.5c9.337-25.141 27.035-72.67 48-89.5 1.581-1.269 3.199-2.402 4.5-4 3.726 2.841-11.303 30.041-13.5 35"/><path fill="#322d45" d="M524 405c-3.563.522-10.553.419-14-1 8.77-6.248 30.979-7.97 32-24 1.991-.753 8.997-7.331 10-3.5-2.604 6.969-6.183 15.999-12.5 20.5-4.36 3.107-12.477 3.211-15.5 8"/><path fill="#5c5562" d="M510 404c-.754.537-2.87 1.116-3 1.5-.058.172 1.797 1.69 1 3.5-16.307.337-30.367 4.532-46 7-6.332-6.941-16.271-10.928-25-14 34.638-12.607 76.357-11.171 105-22-1.021 16.03-23.23 17.752-32 24"/><path fill="#78a7b5" d="M787 395c2.551 15.778 1.246 37.423 13 48-5.114 3.426-7.717-2.154-13.5-1-3.748.748-5.927 5.176-7.5 8-3.483 6.255-3.722 11.246-5 18 .503-2.361-8.521-7.788-10-8 1.007-6.289 3.578-19.99 8-24.5 5.304-5.41 10.289-1.666 14-7.5.786 1.549 1.615 4.525 4 4.5-4.22-14.479-9.262-28.961-16-42.5l2-4c3.892 7.903 8.242 15.342 10.5 24z"/><path fill="#071619" d="M772 387c.558 1.067 1.732 2.461 2 3 6.738 13.539 11.78 28.021 16 42.5-2.385.025-3.214-2.951-4-4.5-.3-.591-.752-1.457-1-2-5.649-12.374-9.272-25.99-16-38z"/><path fill="#5a5362" d="M564.5 390c3.719.395-1.688 3.792-2 4-4.643 3.086-14.728 6.665-20.5 6.5z"/><path fill="#1f1c2e" d="M692 444c15.414 1.69 28.372 2.382 43-3 2.381-.876 13.808-6.648 15-8 1.134-.181.948.952 1 1-4.58 4.023-10.492 7.533-16 10-13.44 6.02-28.703 10.257-43.5 10 3.223 4.361 14.806 5.313 20.5 6 8.525 5.738 21.574 1.879 31.5 3 5.807 8.243-27.169 9.132-27.5 11.5 23.845 14.898 55.185 24.729 83.5 15.5 2.451 9.388-8.382 17.329-17.5 19.5 3.528 1.779 13.878-3.249 16-5.5l3 4c-83.101 26.574-191.697-86.433-275.5-91-52.368-2.854-109.156 26.301-155 50-31.435 16.25-91.799 59.649-127 52-2.086-.453-21.484-8.225-13.5-11 1.611.569 3.52.655 5 1 1.602.373 4.547 1.295 6 0 28.726 9.053 85.795-22.441 110-40 2.152-1.561 5.318-1.884 7-4.5-28.073-3.222-3.874-4.801 4.5-7.5 5.981-1.928 11.922-4.604 17.5-7.5-5.379-1.809-7.318-1.586-12-5.5 12.445 3.587 22.53 3.533 32.5-5 4.711-5.577-14.901-6.241-16-11 16.244 7.589 26.395 8.529 41.5-1.5-6.05-1.373-9.044-9.979-12-12.5v-1c2.789 2.032 12.053 12.514 14.5 13 1.616.321 18.138-4.069 20-5 3.376-1.688-.047-1.486-.5-2-.309-.351.316-1.194 1-1 5.965 1.042 7.756-1.172 13-2 15.633-2.468 29.693-6.663 46-7 26.467-.548 51.607 8.544 77.5 3 10.316-2.209 18.67-9.765 21.5-20 5.709-.463 11.312-1.26 17-1.5l-8.5 10.5 27.5-1.5-16.5 14.5c5.907-.826 7.346-5.066 14-5 11.356.112 32.671 8.292 47 9 14.934.738 31.074-2.201 46-3-13.792 17.81-41.699 21.323-63 24-4.889 2.612 19.712 8.581 21.5 5"/><path fill="#4a4658" d="M427 407c3.029 1.831 3.484 2.28 7 4l14 8c.453.514 3.876.312.5 2-1.862.931-18.384 5.321-20 5-2.447-.486-11.711-10.968-14.5-13l-1.5-17c3.939 5.301 9.08 7.723 14.5 11"/><path fill="#3f3c51" d="M437 402c8.729 3.072 18.668 7.059 25 14-5.244.828-7.035 3.042-13 2-3.797-.663-11.117-5.101-15-7-3.516-1.72-3.971-2.169-7-4 2.24-3.49 6.581-3.755 10-5"/><path fill="#0c0b15" d="M449 418c-.684-.194-1.309.649-1 1l-14-8c3.883 1.899 11.203 6.337 15 7"/><path fill="#4990af" d="M750 433c-1.192 1.352-12.619 7.124-15 8l-7-17c4.488-3.084 8.369-7.966 12-12 7.114 1.542 7.253 12.926 12 19.5-1.078.472-1.242.641-2 1.5"/><path fill="#3b394e" d="M414 414c2.956 2.521 5.95 11.127 12 12.5-15.105 10.029-25.256 9.089-41.5 1.5 1.099 4.759 20.711 5.423 16 11-9.97 8.533-20.055 8.587-32.5 5-2.329-1.947-4.064-2.29-5-6 7.024-4.28 43.103-26.299 48.5-26 1.798.1 1.132.833 2.5 2"/><path fill="#0a0a16" d="m801 508 16-7c-5.919 7.123-10.594 5.483-16 9-1.322.86-2.386 1.409-3 3h-3c-8.551 0-18.722 2.371-27 2-.603-.027-2.138-.814-4-1-2.722-.272-5.33-.578-8-1-.376-.059-3.48-2.257-7-3-3.393-.716-6.587-1.079-10-2-.558-.151-1.451.156-2 0-68.609-19.449-126.747-72.242-197-83-20.54-3.145-42.768-3.591-63 2-55.725 9.572-102.032 42.754-151 68-15.484 7.983-37.453 20.116-54 24-11.417 2.68-17.387 3.743-29 1-1.56-.368-3.449-.401-5-1-8.512-3.289-15.197-11.697-21-18.5l13 7.5c-7.984 2.775 11.414 10.547 13.5 11 35.201 7.649 95.565-35.75 127-52 45.844-23.699 102.632-52.854 155-50 83.803 4.567 192.399 117.574 275.5 91"/><path fill="url(#d)" d="M540 425c6.488 4.991 16.151 6.156 23.5 10 19.44 10.168 40.335 31.413 48.5 52-2.024-.616-13.28-5.848-14-4.5 6.978 12.809 12.006 26.845 13 41.5.995 14.662-.525 24.286-5 38-1.263 3.869-2.301 6.351-4 10-7.532 16.175-21.94 33.374-37 43-64.627 41.309-152.194-3.348-155-80-.746-20.374 3.061-37.724 15-54.5l-15 4.5c.127-.275-.13-.729 0-1 12.934-27.039 38.082-49.009 67-57 20.232-5.591 42.46-5.145 63-2m-65 41c-24.465-11.084-46.085 11.905-47 35-.417 10.513 2.328 18.088 9 26-6.743 32.887 23.653 71.29 56.5 77 68.331 11.878 120.952-60.301 74.5-116-23.627-28.331-59.022-33.382-93-22" style="fill:url(#d)"/>/&gt;<path fill="#a4e7f5" d="M735 441c-14.628 5.382-27.586 4.69-43 3-4.82-.528-13.153-.628-16.5-4 17.143-1.359 38.226-6.193 52.5-16z"/><path fill="#6b93a5" d="M737 508c.175 1.908-2.887 4.731-3 5-44.062 9.069-80.962-13.531-121-26-.304-.095-.695.093-1 0-8.165-20.587-29.06-41.832-48.5-52-7.349-3.844-17.012-5.009-23.5-10 70.253 10.758 128.391 63.551 197 83"/><path fill="#0a0c15" d="M786 428c-3.711 5.834-8.696 2.09-14 7.5-4.422 4.51-6.993 18.211-8 24.5-6.749-.968-16.958 8.315-24 11-5.938 2.264-13.85 2.412-20 4.5 7.424 3.599 15.178 7.904 23 10.5 9.071 3.011 17.604 4.486 27 5 10.693.585 20.238 1.499 30-4 1.29-.727 3.271-1.931 4-3l2 1c-2.744 3.225-3.196 10.922-5 14-.637 1.087-2.542 4.514-3 5-2.122 2.251-12.472 7.279-16 5.5 9.118-2.171 19.951-10.112 17.5-19.5-28.315 9.229-59.655-.602-83.5-15.5.331-2.368 33.307-3.257 27.5-11.5-9.926-1.121-22.975 2.738-31.5-3 8.745 1.055 18.213 1.741 27 1 7.607-.641 14.027-1.096 20-6 .176.926-.409 4 .5 4 1.134-.91.094-3.193.5-4 4.167-8.285 9.344-20.936 17.5-25 2.218-1.105 6.002 2.076 7.5-4 .248.543.7 1.409 1 2"/><path fill="#688491" d="M477 427c-28.918 7.991-54.066 29.961-67 57-25.639 8.497-50.806 18.322-76 28-3.898-3.706-10.115-11.765-8-17 48.968-25.246 95.275-58.428 151-68"/><path fill="#4c98b6" d="M759 455c-5.973 4.904-12.393 5.359-20 6 .171-4.667-.463-13.729-4-17 5.508-2.467 11.42-5.977 16-10 3.677 3.337 6.979 15.644 8 21"/><path fill="#333249" d="M363 438c.936 3.71 2.671 4.053 5 6 4.682 3.914 6.621 3.691 12 5.5-5.578 2.896-11.519 5.572-17.5 7.5-8.374 2.699-32.573 4.278-4.5 7.5-1.682 2.616-4.848 2.939-7 4.5-3.445-2.211-10.671 2.103-13.5 2-4.574-.167-14.126-4.806-20.5-5 17.609-6.3 30.026-18.267 46-28"/><path fill="#1a4e60" d="M218 444v1c-.152.098-1.718 2.394-2 3-3.643.133-21.075 12.601-26 14.5 18.275 23.56 19.59 54.515 26 82.5.322 3.322.758 6.692 1 10 2.748 37.574 5.657 78.684-10 113.5.856 1.644 2.078 1.153 3 1.5 2.108.793 25.315 3.612 26.5 3 1.806-1.661 1.041-4.653 1.5-6 5.051-14.814 5.609-40.001 6-56l4-18.5V649c-.233 2.51-.65 4.6-1 7-.845 5.793-1.011 9.236-3 15-.616 1.786-.238 5.24-2 7.5-4.601 2.347-5.1-2.39-9.5-3.5-11.754-2.967-34.558-1.185-42.5-8.5-31.829-29.319-42.642-165.933-14-199 4.852-5.601 26.628-12.764 33.5-18.5 2.834-2.002 1.21-6.714 1.5-9 3.599-.14 4.319 6.352 7 4m-48 42c-16.37 44.459-10.743 93.888 3 138 9.9 31.779 29.04 76.221 40 12 5.611-32.88 2.371-75.066-3-108-1.867-11.446-10.811-60.651-23.5-63-9.385-1.737-13.961 14.104-16.5 21"/><path fill="#6c9cab" d="m240 461 3 36c-3.905-.671-7.406-2.487-11-4-1.544-10.434-1.023-22.872-4-33-1.563-5.318-5.356-12.242-12-12 .282-.606 1.848-2.902 2-3 15.662-10.087 18.17 5 22 16"/><path fill="#f0f9fb" d="M800 443c5.414 4.872 10.648 6.057 16 10.5L806 469c.359-1.615.029-4.807 1.5-7-10.325-.901-17.827-8.454-24-16l-4.5 4c1.573-2.824 3.752-7.252 7.5-8 5.783-1.154 8.386 4.426 13.5 1"/><path fill="#9ce4f3" d="M735 444c3.537 3.271 4.171 12.333 4 17-8.787.741-18.255.055-27-1-5.694-.687-17.277-1.639-20.5-6 14.797.257 30.06-3.98 43.5-10"/><path fill="#bce8f3" d="M806 469c-1.285 5.781-4.938 11.977-6 18-9.762 5.499-19.307 4.585-30 4 2.367-7.441 2.556-15.372 4-23 1.278-6.754 1.517-11.745 5-18l4.5-4c6.173 7.546 13.675 15.099 24 16-1.471 2.193-1.141 5.385-1.5 7"/><path fill="#c1e5ef" d="m228 460-3.5-5c-2.57 10.773-14.69 12.706-21.5 18-.23.179-1.863-.379-2 .5 4.605 4.992 7.691 11.331 12 16.5l-6.5-3c2.284 16.441 8.489 33.525 10.5 50.5.323 2.728-1.037 7.123-1 7.5-6.41-27.985-7.725-58.94-26-82.5 4.925-1.899 22.357-14.367 26-14.5 6.644-.242 10.437 6.682 12 12"/><path fill="#a1d8e8" d="M228 460c2.977 10.128 2.456 22.566 4 33-10.877-4.577-20.42-12.126-29-20 6.81-5.294 18.93-7.227 21.5-18z"/><path fill="#a19b8f" d="M759 455h1c-.406.807.634 3.09-.5 4-.909 0-.324-3.074-.5-4"/><path fill="#457c93" d="M279 461v1c-1.627-1.028-3.472-1.712-5-3 .106-.551-.579-.294 0-3z"/><path fill="#bbe4f0" d="M838 479c-.486-.561-3.385-2.606-4.5-2-.891 3.499-2.917 4.604-4.5 8-.205.44-1.416 8.012-2 9.5-1.2 3.058-4.104 2.773-4 3 1.209 2.641 2.887 1.033 3 2 .348 2.981-.916 4.754-1 7.5l-3 1c1.282-6.231.796-7.6-1-14 1.034-1.508 2.177-5.464 3-7 1.134-2.118 11.133-10.124 4.5-12-.632.114-2.721 3.977-3.5 5-6.422-2.928-14.618-.149-19 5l-2-1c4.875-7.148 9.256-32.612 22.5-27 5.057 2.142 10.568 16.38 11.5 22"/><path fill="#cfeff7" d="M279 462c9.072 5.732 17.641 12.03 28 15.5-12.366 4.108-25.292 3.933-38 4.5 1.371-7.643 3.545-15.415 5-23 1.528 1.288 3.373 1.972 5 3"/><path fill="#010313" d="M568 488c-2.14-.691-4.45 1.394-5 3-6.805-9.272-20.794-2.023-19 9-2.606-2.299-13.411-9.049-16.5-10-7.61-2.342-31.354-4.843-33.5 4-1.845-6.279-3.211-11.48-7-17-2.122-3.092-8.753-9.529-12-11 33.978-11.382 69.373-6.331 93 22"/><path fill="#5495ab" d="M764 460c1.479.212 10.503 5.639 10 8-1.444 7.628-1.633 15.559-4 23-9.396-.514-17.929-1.989-27-5l-3-15c7.042-2.685 17.251-11.968 24-11m-.5 2c-2.691 8.108-5.542 17.618-5 26 3.59-7.165 4.647-17.732 5-26"/><path fill="#a9cbd6" d="M246 483c2.287 4.935 8.78 7.619 14 8 4.548 2.609 7.833 3.902 12.5 6-9.93 1.16-19.558 1.709-29.5 0l-3-36c2.305 6.619 3.51 16.628 6 22"/><path fill="#bde4ec" d="M763.5 462c-.353 8.268-1.41 18.835-5 26-.542-8.382 2.309-17.892 5-26"/><path fill="#fefefe" d="M475 466c3.247 1.471 9.878 7.908 12 11 5.15 37.028-37.869 57.736-59 24 .915-23.095 22.535-46.084 47-35"/><path fill="#b7e3ef" d="M210 528c-2.058 2.403-2.889-3.869-3-4.5-.911-5.164-2.672-25.065-7.5-26.5-2.206-.656-10.292 2.307-10.5 3.5-.131.75 5.36 11.04 6 14 3.274 15.15 8.193 61.212 5 75-.706 3.048-2.09 2.663-3 3.5 3.482-34.74-1.222-58.57-12-90.5h2c4.215-5.757-13.927-27.94-11-13.5-.898-1.659-2.645-3.857-6-3 2.539-6.896 7.115-22.737 16.5-21 12.689 2.349 21.633 51.554 23.5 63"/><path fill="#29263c" d="M317 466c6.374.194 15.926 4.833 20.5 5 2.829.103 10.055-4.211 13.5-2-24.205 17.559-81.274 49.053-110 40-10.591-3.337-25.948-15.487-28.5-26 20.88 17.902 46.257 21.415 72 12l-24.5-4c-1.886-1.081-7.775-3.528-7.5-6 6.821-.018 13.725-.449 20.5-1-4.168 1.8 4.201 3.967 4.5 4 15.275 1.707 31.825-1.309 46-7 .345-.138 9.684-4.216 5.5-5 1.754-.674 5.889-1.829 6.5-4h-15l5 3c-12.256 4.823-22.223-.547-33-6 7.2.051 17.984-3.198 24.5-3"/><path fill="#9fe6f8" d="m740 471 3 15c-7.822-2.596-15.576-6.901-23-10.5 6.15-2.088 14.062-2.236 20-4.5"/><path fill="#0c0b16" d="M203 473c8.58 7.874 18.123 15.423 29 20 3.594 1.513 7.095 3.329 11 4 9.942 1.709 19.57 1.16 29.5 0-4.667-2.098-7.952-3.391-12.5-6l24.5 4c-25.743 9.415-51.12 5.902-72-12 2.552 10.513 17.909 22.663 28.5 26-1.453 1.295-4.398.373-6 0-8.773-5.419-15.378-11.058-22-19-4.309-5.169-7.395-11.508-12-16.5.137-.879 1.77-.321 2-.5"/><path fill="#7194a8" d="m824 487-1-3c.882-.975 1.162-2.9 2-4 .779-1.023 2.868-4.886 3.5-5 6.633 1.876-3.366 9.882-4.5 12"/><path fill="#514c5e" d="M329 476c4.184.784-5.155 4.862-5.5 5-14.175 5.691-30.725 8.707-46 7-.299-.033-8.668-2.2-4.5-4 15.121-1.23 42.284-2.724 56-8"/><path fill="#9ec7f0" d="M494 494c-1.515 6.243.927 13.074-2 21.5-1.381 3.976-11.379 16.691-15 18.5-8.997 4.495-20.522 2.232-30 2-3.722-4.307-6.705-5.092-10-9-6.672-7.912-9.417-15.487-9-26 21.131 33.736 64.15 13.028 59-24 3.789 5.52 5.155 10.721 7 17"/><path fill="#6ac6e1" d="M838 479c3.306 3.812 9.091 28.514 10 34.5 5.528 36.419-.663 80.999-13 115.5-3.132.182.341-6.542-6-6 13.497-43.58 12.966-90.876 3-135 .65-2.26 1.877-4.141 2-6.5l-5 3.5c1.583-3.396 3.609-4.501 4.5-8 1.115-.606 4.014 1.439 4.5 2"/><path fill="#0e9cc7" d="M410 535c-3.841-3.874-5.572-3.719-11-2-.331-19.983 3.067-30.743 11-48l15-4.5c-11.939 16.776-15.746 34.126-15 54.5"/><path fill="#b2dae5" d="M825 480c-.838 1.1-1.118 3.025-2 4-5.985 6.615-13.943 11.341-22 15 1.804-3.078 2.256-10.775 5-14 4.382-5.149 12.578-7.928 19-5"/><path fill="#ddf1f8" d="M832 488c-2.834 9.863-5.255 20.428-8 29.5-.915-3.519.91-7.582 1-10.5.084-2.746 1.348-4.519 1-7.5-.113-.967-1.791.641-3-2-.104-.227 2.8.058 4-3 .584-1.488 1.795-9.06 2-9.5l5-3.5c-.123 2.359-1.35 4.24-2 6.5"/><path fill="#078ab4" d="M612 487c.305.093.696-.095 1 0 3.624 9.7 6.462 18.659 8 29-3.237 6.922-.09 8.097-10 8-.994-14.655-6.022-28.691-13-41.5.72-1.348 11.976 3.884 14 4.5"/><path fill="url(#e)" d="M197 593c-1.979 1.82-5.988 2.175-6 2.5-.045 1.213 3.016-.882 4 2 3.514 10.286-12.79 10.093-19 9.5-7.294-36.559-8.988-75.017 2-111 3.454 9.254 3.994 18.592 6.5 28 .217-8.858-1.185-20.012-3.5-28.5-.77-2.821-4.919-6.098-5-6.5-2.927-14.44 15.215 7.743 11 13.5h-2c10.778 31.93 15.482 55.76 12 90.5" style="fill:url(#e)"/>/&gt;<path fill="url(#f)" d="M410 484c-.13.271.127.725 0 1-7.933 17.257-11.331 28.017-11 48 1.488 89.682 103.62 140.601 177 88 14.918-10.694 29.918-24.894 36-43 10.777-19.257 12.194-40.525 9-62-1.538-10.341-4.376-19.3-8-29 40.038 12.469 76.938 35.069 121 26-.284.675-.44 1.625-1 3-2.699 3.694-10.684 14.967-8 16.5-33.321 60.941-85.606 110.991-153.5 130.5-74.019 21.269-142.385 2.336-205-39-23.387-15.439-42.594-36.011-65.5-52-1.206-1.43-2.053-3.32-4-4-7.225-9.899-14.878-25.214-21-33 18.988-8.514 38.585-15.542 58-23 25.194-9.678 50.361-19.503 76-28m-55.5 41c-26.612 4.147-20.014 76.345-1 81 39.424 9.653 37.085-86.623 1-81" style="fill:url(#f)"/>/&gt;<path fill="#575361" d="M824 487c-.823 1.536-1.966 5.492-3 7-1.628 2.374-2.177 4.806-4 7l-16 7-3-4c.458-.486 2.363-3.913 3-5 8.057-3.659 16.015-8.385 22-15z"/><path fill="#7dc7de" d="M176 489c.173.32 1.296 5.113 2 7-10.988 35.983-9.294 74.441-2 111 1.189 5.959 2.326 12.168 4 18-3.672-1.423-2.14-.901-2.5-4l-4.5 3c-13.743-44.112-19.37-93.541-3-138 3.355-.857 5.102 1.341 6 3"/><path fill="url(#g)" d="M213 490c6.622 7.942 13.227 13.581 22 19-1.48-.345-3.389-.431-5-1l-13-7.5c5.803 6.803 12.488 15.211 21 18.5 1.777 20.019 3.991 39.893 5 60l-5 88c-.459 1.347.306 4.339-1.5 6-1.185.612-24.392-2.207-26.5-3 10.441-32.031 16.166-81.472 9-114.5-.901-4.153.031-1.801-2-.5-.242-3.308-.678-6.678-1-10-.037-.377 1.323-4.772 1-7.5-2.011-16.975-8.216-34.059-10.5-50.5z" style="fill:url(#g)"/>/&gt;<path fill="#2faece" d="M563 491c-.503 1.47.541 5.371 0 6.5-3.708 7.742-11.911 10.205-18 3.5-.333-.321-.575-.625-1-1-1.794-11.023 12.195-18.272 19-9"/><path fill="url(#h)" d="M544 500c.425.375.667.679 1 1 20.013 19.292 14.957 52.592-2 70.5-26.747 28.248-76.077 13.849-89-21 2.743.21 3.207.25 6-.5 9.997-2.685 14.656-4.346 17-16 3.621-1.809 13.619-14.524 15-18.5 2.927-8.426.485-15.257 2-21.5 2.146-8.843 25.89-6.342 33.5-4 3.089.951 13.894 7.701 16.5 10" style="fill:url(#h)"/>/&gt;<path fill="url(#i)" d="M568 488c46.452 55.699-6.169 127.878-74.5 116-32.847-5.71-63.243-44.113-56.5-77 3.295 3.908 6.278 4.693 10 9 3.226 3.733 4.491 13.478 13 14-2.793.75-3.257.71-6 .5 12.923 34.849 62.253 49.248 89 21 16.957-17.908 22.013-51.208 2-70.5 6.089 6.705 14.292 4.242 18-3.5.541-1.129-.503-5.03 0-6.5.55-1.606 2.86-3.691 5-3m-13.5 74c-4.582 3.712 7.056 8.545 8.5 4.5.892-2.5-8.104-4.821-8.5-4.5" style="fill:url(#i)"/>/&gt;<path fill="url(#j)" d="M829 623c-.672 2.171-3.552 12.853-4 13.5-.769 1.11-1.434-.993-2-.5-3.969-17.245-10.616-36.892-12-54.5-.898-11.42-.732-43.537 2-54 .139-.533 3.2-.037 4-3 1.347-4.986 4.142-12.331 5-16.5l3-1c-.09 2.918-1.915 6.981-1 10.5 2.745-9.072 5.166-19.637 8-29.5 9.966 44.124 10.497 91.42-3 135" style="fill:url(#j)"/>/&gt;<path fill="#f4fcfc" d="M178 496c-.704-1.887-1.827-6.68-2-7 .081.402 4.23 3.679 5 6.5 2.315 8.488 3.717 19.642 3.5 28.5-2.506-9.408-3.046-18.746-6.5-28"/><path fill="#80c4da" d="M822 508c-.858 4.169-3.653 11.514-5 16.5-.8 2.963-3.861 2.467-4 3-2.732 10.463-2.898 42.58-2 54 1.384 17.608 8.031 37.255 12 54.5-1.395 1.214-2.943 3.019-5 3 .278-.901.961-2.613 1-3 .548-5.437-.104-6.917-4.5-9-2.148 3.029.953 7.266 1.5 10 .345 1.724-.986 5.088 1 6-.395 2.14-2.627.409-3-.5-4.44-10.803 2.95-34.448-17-27.5-3.5-35.195-2.129-70.256 4-105 5.406-3.517 10.081-1.877 16-9 1.823-2.194 2.372-4.626 4-7 1.796 6.4 2.282 7.769 1 14"/><path fill="#7797a6" d="M334 512c-19.415 7.458-39.012 14.486-58 23-3.818-4.856-9.319-8.073-14-12 3.129-.764 9.505-1.3 10-4 16.547-3.884 38.516-16.017 54-24-2.115 5.235 4.102 13.294 8 17"/><path fill="#81b7c9" d="M210 528c5.371 32.934 8.611 75.12 3 108-3.982-2.889 1.507-18.384 0-20.5-1.886-2.648-18.782 4.696-15.5-11.5l-3.5 8c1.187-6.197 2.37-12.719 3-19 .91-.837 2.294-.452 3-3.5 3.193-13.788-1.726-59.85-5-75-.64-2.96-6.131-13.25-6-14 .208-1.193 8.294-4.156 10.5-3.5 4.828 1.435 6.589 21.336 7.5 26.5.111.631.942 6.903 3 4.5"/><path fill="#337184" d="M739 508c-40.711 162.789-214.525 226.983-357.5 140-35.347-21.505-60.347-46.909-84.5-80 1.947.68 2.794 2.57 4 4 15.664 18.577 33.352 35.631 52 51 28.27 23.299 57.951 40.704 94 50 35.575 9.174 71.912 9.733 108 3 27.482-5.127 67.47-20.543 89.5-38 3.233-2.562 9.112-5.398 3.5-8 21.355-15.939 39.617-36.818 55.5-58 .263-.35 2.679.601 3.5-.5 10.148-13.61 19.45-39.43 26-55.5.56-1.375.716-2.325 1-3 .113-.269 3.175-3.092 3-5 .549.156 1.442-.151 2 0"/><path fill="#5c98aa" d="M749 510c-3.352 23.339-9.329 45.901-20 67-42.704 84.434-139.816 134.733-233.5 128-91.114-6.548-207.125-79.552-236.5-169-.595-1.811-4.384-11.968-4-12.5.866-1.199 5.414-.113 7-.5 4.681 3.927 10.182 7.144 14 12 6.122 7.786 13.775 23.101 21 33 24.153 33.091 49.153 58.495 84.5 80 142.975 86.983 316.789 22.789 357.5-140 3.413.921 6.607 1.284 10 2"/><path fill="#b8ebf9" d="M756 513c-6.493 23.597-12.631 47.732-23 70-1.548 3.324-4.267 6.734-6 10l-4-2c2.352-4.205 3.979-9.571 6-14 10.671-21.099 16.648-43.661 20-67 3.52.743 6.624 2.941 7 3"/><path fill="#a4d7e5" d="M797 615c.873 8.774 2.041 19.494 4 28-8.513-25.083-9.085-55.88-8-82.5.316-7.757 2.889-42.032 5-47.5.614-1.591 1.678-2.14 3-3-6.129 34.744-7.5 69.805-4 105"/><path fill="#2d5a66" d="M764 514c.094 2.869-1.882.887-2 4.5-1.312 40.169-4.103 84.716 1 128-1.15-7.02-5.122-3.951-11-4.5-3.008-14.927-7.821-43.341-14-56.5-.466-.993-3.328-3.206-5-2.5 10.369-22.268 16.507-46.403 23-70 2.67.422 5.278.728 8 1"/><path fill="url(#k)" d="M795 513c-4.696 40.568-8.945 83.009-1 123.5.981 4.999 9.153 23.68 9 25-.65 5.594-21.898 6.981-27 7.5-.06-.264-2.805-3.638-3-4.5-11.26-49.859-9.544-98.845-5-149.5 8.278.371 18.449-2 27-2" style="fill:url(#k)"/>/&gt;<path fill="#124554" d="M768 515c-4.544 50.655-6.26 99.641 5 149.5.195.862 2.94 4.236 3 4.5.507 2.225 1.002 1.888 1 2-.078 3.78-4.48 4.138-6 7.5-3.759 8.316-6.165 17.679-10 26-24.826 53.864-59.57 105.094-107 141.5 18.951-19.516 39.714-37.448 56-59.5 3.252-4.404 16.504-23.127 18-27 1.207-3.125.171-3.483 0-6.5 13.787-22.049 33.548-60.537 30-86.5-.58-4.243-4.359-11.866-5-15.5-.489-2.773-.319-5.62-1-9 5.878.549 9.85-2.52 11 4.5-5.103-43.284-2.312-87.831-1-128 .118-3.613 2.094-1.631 2-4.5 1.862.186 3.397.973 4 1"/><path fill="#0ea9d1" d="M612 578c1.082-3.222 1.759-7.178 3-10.5-10.21 2.712-2.466-1.096-9-5.5 4.475-13.714 5.995-23.338 5-38 9.91.097 6.763-1.078 10-8 3.194 21.475 1.777 42.743-9 62"/><path fill="#d9f1f7" d="M648 630c-24.745 18.469-62.471 35.89-93 41-29.707 4.972-65.596 4.362-95-2-47.405-10.257-66.321-31.092-104.5-48-3.214-1.424-3.728-1.976-2.5 2-18.648-15.369-36.336-32.423-52-51 22.906 15.989 42.113 36.561 65.5 52 62.615 41.336 130.981 60.269 205 39 67.894-19.509 120.179-69.559 153.5-130.5-2.684-1.533 5.301-12.806 8-16.5-6.55 16.07-15.852 41.89-26 55.5-.821 1.101-3.237.15-3.5.5-15.883 21.182-34.145 42.061-55.5 58"/><path fill="#1d5d6f" d="M243 520c2.488 24.647 5.306 49.174 6 74 .507 18.117.673 36.952-1 55v-56.5l-4 18.5c.287-11.763-.421-20.459-1-32-1.009-20.107-3.223-39.981-5-60 1.551.599 3.44.632 5 1"/><path fill="#a7c5d1" d="M272 519c-.495 2.7-6.871 3.236-10 4-1.586.387-6.134-.699-7 .5-.384.532 3.405 10.689 4 12.5.664 11.655 8.905 24.235 14 35 1.069 2.259 1.766 7.109 3 9.5.311.602 9.393 7.48 4 9.5-2.521-3.743-7.703-7.798-9.5-13-.922.563-2.09 14.51-2.5 17-5.543 3.85-12.347-1.283-19 0-.694-24.826-3.512-49.353-6-74 11.613 2.743 17.583 1.68 29-1"/><path fill="#fcfdfe" d="M354.5 525c36.085-5.623 38.424 90.653-1 81-19.014-4.655-25.612-76.853 1-81"/><path fill="#31dcf9" d="M410 535c2.806 76.652 90.373 121.309 155 80 2.656 4.416 8.871-1.753 12-4-.737 4.254 2.275 6.962-1 10-73.38 52.601-175.512 1.682-177-88 5.428-1.719 7.159-1.874 11 2"/><path fill="#cdf1f9" d="M477 534c-2.344 11.654-7.003 13.315-17 16-8.509-.522-9.774-10.267-13-14 9.478.232 21.003 2.495 30-2"/><path fill="#29667a" d="M729 577c-2.021 4.429-3.648 9.795-6 14-100.431 179.523-353.059 139.99-450-20-5.095-10.765-13.336-23.345-14-35 29.375 89.448 145.386 162.452 236.5 169 93.684 6.733 190.796-43.566 233.5-128"/><path fill="#87b8c7" d="M210 670c-.922-.347-2.144.144-3-1.5 15.657-34.816 12.748-75.926 10-113.5 2.031-1.301 1.099-3.653 2 .5 7.166 33.028 1.441 82.469-9 114.5"/><path fill="#37b6e6" d="M554.5 562c.396-.321 9.392 2 8.5 4.5-1.444 4.045-13.082-.788-8.5-4.5"/><path fill="#17c8ed" d="M612 578c-6.082 18.106-21.082 32.306-36 43 3.275-3.038.263-5.746 1-10 8.394-6.028 22.288-21.412 27-30.5 2.533-4.886 4.352-6.919-2-8.5 1.699-3.649 2.737-6.131 4-10 6.534 4.404-1.21 8.212 9 5.5-1.241 3.322-1.918 7.278-3 10.5"/><path fill="#f0f9fc" d="m723 591 4 2c-91.124 171.717-346.509 146.215-447-3 5.393-2.02-3.689-8.898-4-9.5-1.234-2.391-1.931-7.241-3-9.5 96.941 159.99 349.569 199.523 450 20"/><path fill="#20f3fd" d="M577 611c-3.129 2.247-9.344 8.416-12 4 15.06-9.626 29.468-26.825 37-43 6.352 1.581 4.533 3.614 2 8.5-4.712 9.088-18.606 24.472-27 30.5"/><path fill="url(#l)" d="M280 590c100.491 149.215 355.876 174.717 447 3 1.733-3.266 4.452-6.676 6-10 1.672-.706 4.534 1.507 5 2.5 6.179 13.159 10.992 41.573 14 56.5.681 3.38.511 6.227 1 9-1.504-.046-.803 1.233-1 2-1.849-.578-2.588 2.216-3 3.5-12.776 39.848-25.656 78.332-48 114-6.008 9.591-14.122 18.235-19 28.5l-34 41c-3.738 3.169-7.964 6.085-11 10-47.208 34.255-102.638 55.285-162 45 2.229-1.997-2.642-2.81-3.5-3-5.06-1.118-10.459-1.765-15.5-3-1.55-.855-5.871-2.202-6-2.5-.657-1.521 3.519-4.592 1-6.5-88.096-40.476-142.866-111.53-180-199-2.588-6.096-4.394-14.163-9-19 .056-1.655-.07-3.347 0-5 .945-22.29 2.356-40.877 6-63 .41-2.49 1.578-16.437 2.5-17 1.797 5.202 6.979 9.257 9.5 13m91.5 127c-28.143 4.488-29.173 48.459-3 56 49.277 14.198 54.618-64.232 3-56M604 762c5.648 8.591 14.176 12.108 24 12 28.567-.313 38.58-38.675 12-51-2.893-6.93-18.102-6.568-24-5-16.509-.135-31.5 40.692-12 44m-164 61c5.442 17.922 19.347 33.084 38 41 13.467 11.028 39.952 10.563 55 3 2.598-1.306 2.296-3.881 2.5-4 6.302-3.676 20.406-7.612 20.5-17 4.992-5.834 10.306-15.737 13-23 42.533-114.68-166.751-124.324-129 0" style="fill:url(#l)"/>/&gt;<path fill="#68a4b5" d="M244 611c-.391 15.999-.949 41.186-6 56l5-88c.579 11.541 1.287 20.237 1 32"/><path fill="#083f58" d="M194 612c-1.923 10.038-4.106 20.323-7.5 30-1.884.18-5.853-14.745-6.5-17-1.674-5.832-2.811-12.041-4-18 6.21.593 22.514.786 19-9.5-.984-2.882-4.045-.787-4-2 .012-.325 4.021-.68 6-2.5-.63 6.281-1.813 12.803-3 19"/><path fill="#86a5b1" d="M268 594c-3.644 22.123-5.055 40.71-6 63-7.331 3.836.898 18.12-2.5 25-1.435.253-8.21-25.212-12.5-26 .35-2.4.767-4.49 1-7 1.673-18.048 1.507-36.883 1-55 6.653-1.283 13.457 3.85 19 0"/><path fill="#5e8997" d="M213 636c-10.96 64.221-30.1 19.779-40-12l4.5-3c.36 3.099-1.172 2.577 2.5 4 .647 2.255 4.616 17.18 6.5 17 3.394-9.677 5.577-19.962 7.5-30l3.5-8c-3.282 16.196 13.614 8.852 15.5 11.5 1.507 2.116-3.982 17.611 0 20.5m-17.5 4c-2.525 3.466-1.613 7.952 1 11z"/><path fill="#62a0b4" d="M817 643c.17-1.317.612-2.742 1-4 2.057.019 3.605-1.786 5-3 .566-.493 1.231 1.61 2 .5.448-.647 3.328-11.329 4-13.5 6.341-.542 2.868 6.182 6 6-7.236 20.237-23.927 57.73-34 14-1.959-8.506-3.127-19.226-4-28 19.95-6.948 12.56 16.697 17 27.5.373.909 2.605 2.64 3 .5"/><path fill="#d4e1e7" d="m460 669-1.5 5c-4.323-.429-8.27-4.507-11.5-1-36.049-9.296-65.73-26.701-94-50-1.228-3.976-.714-3.424 2.5-2 38.179 16.908 57.095 37.743 104.5 48"/><path fill="#3f93b7" d="m819 636-3 1c-.547-2.734-3.648-6.971-1.5-10 4.396 2.083 5.048 3.563 4.5 9"/><path fill="#92b8c5" d="M555 676v-5c30.529-5.11 68.255-22.531 93-41 5.612 2.602-.267 5.438-3.5 8-22.03 17.457-62.018 32.873-89.5 38"/><path fill="#0b2946" d="M819 636c-.039.387-.722 2.099-1 3-.388 1.258-.83 2.683-1 4-1.986-.912-.655-4.276-1-6z"/><path fill="#042337" d="m195.5 640 1 11c-2.613-3.048-3.525-7.534-1-11"/><path fill="#2e697f" d="M728 753c-5.581 8.924-12.646 16.696-19 25-19.279 21.64-38.81 43.183-61 62l34-41c37.351-43.163 55.984-91.512 70-146 .197-.767-.504-2.046 1-2 .641 3.634 4.42 11.257 5 15.5 3.548 25.963-16.213 64.451-30 86.5"/><path fill="#69919f" d="M752 653c-14.016 54.488-32.649 102.837-70 146 4.878-10.265 12.992-18.909 19-28.5 22.344-35.668 35.224-74.152 48-114 .412-1.284 1.151-4.078 3-3.5"/><path fill="#4f7683" d="M262 657c-.07 1.653.056 3.345 0 5-.325 9.625.44 19.386 0 29-.228 4.981-3.464 9.308-1 16-5.623-11.98-10.418-24.514-17-36 1.989-5.764 2.155-9.207 3-15 4.29.788 11.065 26.253 12.5 26 3.398-6.88-4.831-21.164 2.5-25"/><path fill="#a1d2e1" d="M271 681c27.941 84.769 79.958 146.76 158 189-1.402 1.652-.107 3.617-2.5 4-1.766.282-28.516-13.322-32-16-.103 3.763 9.084 8.799 12.5 11-7.711-2.599-14.329-7.57-21-12-28.962-19.233-58.217-47.394-78-76-19.148-27.688-32.483-59.281-46-90 .44-9.614-.325-19.375 0-29 4.606 4.837 6.412 12.904 9 19"/><path fill="#b8d0d9" d="M555 671v5c-36.088 6.733-72.425 6.174-108-3 3.23-3.507 7.177.571 11.5 1l1.5-5c29.404 6.362 65.293 6.972 95 2"/><path fill="#e4f5fa" d="M451 880c-1.76-1.333-17.751-7.7-22-10-78.042-42.24-130.059-104.231-158-189 37.134 87.47 91.904 158.524 180 199"/><path fill="#5c90a4" d="m308 781-1 4c-19.137-25.903-32.333-48.878-46-78-2.464-6.692.772-11.019 1-16 13.517 30.719 26.852 62.312 46 90"/><path fill="#0f2933" d="M371.5 717c51.618-8.232 46.277 70.198-3 56-26.173-7.541-25.143-51.512 3-56m0 2c-3.141.566-10.143 4.451-11 8 40.893-25.694 65.035 42.497 13.5 43.5 44.824 7.301 42.085-59.531-2.5-51.5M355 740c-6.043 25.98 30.906 35.428 41 17 6.782-10.239 4.885-22.076-5-29-5.373-3.763-13.284-5.247-20-4-7.095 1.318-14.365 8.971-16 16m-.5 16c-2.883.939 8.803 16.04 13.5 11.5z"/><path fill="#52d1e8" d="M616 718c-16.911 4.495-20.952 30.385-12 44-19.5-3.308-4.509-44.135 12-44"/><path fill="#204957" d="M640 723c-.271-.125-.71.116-1 0-8.136-3.261-20.263-5.704-27 1.5 14.024-5.558 24.814-3.907 34 8.5v1c-.867.02-1.007-.811-2-1-.939-.178-2.033.106-3 0 .047-2.765-1.337-5.909-5-7-17.412-5.188-35.237 4.144-31 24 2.711 12.704 13.317 16.192 25 16-.994.639-2.659-.858-2 3-7.704.256-10.017-1.34-17-3.5 4.638 5.238 10.577 5.709 17 5.5v3c-9.824.108-18.352-3.409-24-12-8.952-13.615-4.911-39.505 12-44 5.898-1.568 21.107-1.93 24 5"/><path fill="#cbeff5" d="M371.5 719c44.585-8.031 47.324 58.801 2.5 51.5 51.535-1.003 27.393-69.194-13.5-43.5.857-3.549 7.859-7.434 11-8"/><path fill="#61bdce" d="M639 723c22.836 14.234 17.137 47.086-11 48-6.423.209-12.362-.262-17-5.5 6.983 2.16 9.296 3.756 17 3.5 20.023-.665 30.273-19.425 18-36-9.186-12.407-19.976-14.058-34-8.5 6.737-7.204 18.864-4.761 27-1.5"/><path fill="#0a121a" d="M628 774v-3c28.137-.914 33.836-33.766 11-48 .29.116.729-.125 1 0 26.58 12.325 16.567 50.687-12 51"/><path fill="#16eefc" d="M368 729c-4.118 3.252-9.12 4.316-10 12l-3-1c1.635-7.029 8.905-14.682 16-16 1.572.9-1.49 3.807-3 5"/><path fill="#05a4d6" d="M391 728c-6.333-3.712-10.771 1.505-14.5 2-.467.062-4.868-5.244-7.5 1.5l-1-2.5c1.51-1.193 4.572-4.1 3-5 6.716-1.247 14.627.237 20 4"/><path fill="#11dff9" d="M636 726c-2.564-.061-8.452 3.887-9.5 4-2.702.291.134-2.19-1-2-13.154 2.203-15.678 2.796-18.5 17-.232 1.169-1.052 3.994-2 5-4.237-19.856 13.588-29.188 31-24"/><path fill="#006599" d="M641 733c-.299 17.692-18.06 12.8-27 22-4.399-3.203-4.45-4.922-7-10 2.822-14.204 5.346-14.797 18.5-17 1.134-.19-1.702 2.291 1 2 1.048-.113 6.936-4.061 9.5-4 3.663 1.091 5.047 4.235 5 7"/><path fill="#006499" d="M391 728c.163.096-.157.808 0 1 6.444 7.886-6.588 17.302-12.5 20-1.703.777-16.456.238-13.5 7-5.202-3.218-7.692-8.958-7-15 .88-7.684 5.882-8.748 10-12l1 2.5c2.632-6.744 7.033-1.438 7.5-1.5 3.729-.495 8.167-5.712 14.5-2"/><path fill="#27daf6" d="M396 757c.427-.78 1.039-8.186 1-10-.149-6.9.734-13.456-6-18-.157-.192.163-.904 0-1 9.885 6.924 11.782 18.761 5 29"/><path fill="#00588e" d="M397 747c-5.863 11.896-20.875 15.882-32 9-2.956-6.762 11.797-6.223 13.5-7 5.912-2.698 18.944-12.114 12.5-20 6.734 4.544 5.851 11.1 6 18"/><path fill="#1a3e4a" d="M569 823c-4.744-.568.05-1.793 0-3.5-.024-.819-2.008-.397-2-.5.275-3.476 2.883-9.205 3-12.5.415-11.648-1.362-33.62-11-41.5-10.294-17.574-30.191-27.073-50-28-54.511-2.55-88.841 48.888-59 96 2.846 9.254 20.365 21.487 29 25l-2 3c-17.23-7.553-29.523-20.79-37-38-37.751-124.324 171.533-114.68 129 0"/><path fill="#005e93" d="M644 733c8.645 19.36-14.133 33.555-30 22 8.94-9.2 26.701-4.308 27-22 .967.106 2.061-.178 3 0"/><path fill="#0694c9" d="M646 734c4.337 10.636 2.203 22.279-7.5 29-1.788 1.238-5.602 1.137-8.5 3-11.683.192-22.289-3.296-25-16 .948-1.006 1.768-3.831 2-5 2.55 5.078 2.601 6.797 7 10 15.867 11.555 38.645-2.64 30-22 .993.189 1.133 1.02 2 1"/><path fill="#081c24" d="M628 769c-.659-3.858 1.006-2.361 2-3 2.898-1.863 6.712-1.762 8.5-3 9.703-6.721 11.837-18.364 7.5-29v-1c12.273 16.575 2.023 35.335-18 36"/><path fill="#c6e9f4" d="m509 737 4 2.5c-2.39 3.853-5.487 1.951-9 2.5-36.06 5.632-60.46 21.906-56 62.5l2-1.5c2.823 59.518 97.059 65.68 106 4l4-5c-.615 12.728-3.917 22.471-11 33-25.49 27.653-62.986 26.107-90 1.5-3.126-2.847-2.691-7.139-8.5-8.5-1.582.666-.727 4.263-.5 5-29.841-47.112 4.489-98.55 59-96"/><path fill="#7dc0d3" d="M559 765c-3.191-2.609-4.562-4.573-6 1-7.352-11.345-30.408-26.561-44-21.5l6 3.5c-3.289-.536-5.306-1.278-9-1 .031-1.369-1.031-.964-2-1 .223-1.664 1.939-.16 2-2.5.019-.722-2.227-.109-2-1.5 3.513-.549 6.61 1.353 9-2.5l-4-2.5c19.809.927 39.706 10.426 50 28"/><path fill="#03a7db" d="M358 741c-.692 6.042 1.798 11.782 7 15 11.125 6.882 26.137 2.896 32-9 .039 1.814-.573 9.22-1 10-10.094 18.428-47.043 8.98-41-17z"/><path fill="#eefbfc" d="M504 742c-.227 1.391 2.019.778 2 1.5-.061 2.34-1.777.836-2 2.5-29.555-1.094-55.381 27.874-54 57l-2 1.5c-4.46-40.594 19.94-56.868 56-62.5"/><path fill="#4e8fa2" d="M553 766c2.533 3.909 7.149 16.296 8 21-4.749-.009-.81 11.061-1 15l-4 5c1.68-11.588.167-21.377-5-32-6.286-12.923-21.647-24.663-36-27l-6-3.5c13.592-5.061 36.648 10.155 44 21.5"/><path fill="#114353" d="M504 746c.969.036 2.031-.369 2 1-10.596.799-34.716 10.595-40.5 20-1.025 1.666-1.149 3.886 1.5 2-3.655 4.007-8.677 14.595-10 20-1.668 6.817-2.009 11.023-1 18 .586 4.054 1.93 7.601 3 11.5 2.498 3.485 2.523-1.378 4-1.5 9.592 19.715 28.457 32.384 51 27 35.736-6.716 50.461-52.571 23-78-.123-3.513 1.498-.967 2.5 0 2.317 2.236 9.321 12.967 11.5 9 5.167 10.623 6.68 20.412 5 32-8.941 61.68-103.177 55.518-106-4-1.381-29.126 24.445-58.094 54-57"/><path fill="#1f4f60" d="M515 748c14.353 2.337 29.714 14.077 36 27-2.179 3.967-9.183-6.764-11.5-9-1.002-.967-2.623-3.513-2.5 0-.265-.245-5.029-3.349-6-4-19.648-13.18-47.57-11.012-64 7-2.649 1.886-2.525-.334-1.5-2 5.784-9.405 29.904-19.201 40.5-20 3.694-.278 5.711.464 9 1"/><path fill="#015984" d="M531 762c-1.86.24 1.484 2.858-2 1.5-5.151-2.008-10.774-7.362-17.5-6.5 3.909 3.054 9.233 3.461 13.5 6-6.07 1.41-10.539-.974-17 0-18.483 1.33-34.995 9.967-36 30-.28 5.583 3.664 23.064-2.5 25-2.56.804-4.767-1.143-6.5-1-1.477.122-1.502 4.985-4 1.5-1.07-3.899-2.414-7.446-3-11.5l1-18c1.323-5.405 6.345-15.993 10-20 16.43-18.012 44.352-20.18 64-7"/><path fill="#185469" d="M654 846v1c-6.115 4.36-11.787 9.815-18 14-25.831 17.398-54.027 33.639-85 40-27.718 5.692-65.524 6.084-93-1-14.907-3.844-22.154-10.074-34.5-17-.308-.173-4.102.918-7-1-1.594-1.055 1.597-2.026-1-4-2.936-2.232-4.783.125-5 0-.875-.503.109-2.756-2-4-7.208-4.252-15.24-7.216-22.5-12-1.052-.693-.941-.961-1-1l1-4c6.671 4.43 13.289 9.401 21 12 15.201 9.793 31.496 15.712 49 20 5.662 3.125 12.702 4.909 19 6 59.362 10.285 114.792-10.745 162-45 28.483-20.668 50.613-44.049 72-72 6.354-8.304 13.419-16.076 19-25 .171 3.017 1.207 3.375 0 6.5-1.496 3.873-14.748 22.596-18 27-16.286 22.052-37.049 39.984-56 59.5"/><path fill="#3d7f8f" d="m354.5 756 13.5 11.5c-4.697 4.54-16.383-10.561-13.5-11.5"/><path fill="#01a0d5" d="M531 762c.971.651 5.735 3.755 6 4 27.461 25.429 12.736 71.284-23 78 5.47-1.306 9.539-6.668 12-8.5.958-.714 11.349-7.417 11-8-3.429-1.514-6.707.844-10 1.5 7.573-5.174 22.135-23.474 22-32.5-.015-1.031-7.175-17.74-8-19-2.309-3.528-12.166-12.219-16-14.5-4.267-2.539-9.591-2.946-13.5-6 6.726-.862 12.349 4.492 17.5 6.5 3.484 1.358.14-1.26 2-1.5"/><path fill="#00a8d6" d="M508 763c-.904.136-4.356 1.564-6 2-11.255 2.987-22.1 7.481-27 19-1.311 3.081-.764 6.477-3 9 1.005-20.033 17.517-28.67 36-30"/><path fill="#0595c4" d="M525 763c3.834 2.281 13.691 10.972 16 14.5.825 1.26 7.985 17.969 8 19 .135 9.026-14.427 27.326-22 32.5-27.878 5.553-51.877-11.235-44-42 2.398-9.366 12.182-16.055 19-22 1.644-.436 5.096-1.864 6-2 6.461-.974 10.93 1.41 17 0"/><path fill="#659dad" d="M559 765c9.638 7.88 11.415 29.852 11 41.5-.117 3.295-2.725 9.024-3 12.5-15.049 36.954-49.9 54.501-88 39-8.635-3.513-26.154-15.746-29-25-.227-.737-1.082-4.334.5-5 5.809 1.361 5.374 5.653 8.5 8.5 27.014 24.607 64.51 26.153 90-1.5 11.871-12.879 15.118-30.764 12-48-.851-4.704-5.467-17.091-8-21 1.438-5.573 2.809-3.609 6-1"/><path fill="#01689a" d="m483 787-8-3c4.9-11.519 15.745-16.013 27-19-6.818 5.945-16.602 12.634-19 22"/><path fill="#489eb7" d="M709 778c-21.387 27.951-43.517 51.332-72 72 3.036-3.915 7.262-6.831 11-10 22.19-18.817 41.721-40.36 61-62"/><path fill="#346b7f" d="m386 857-1 4c-6.884-4.559-11.52-7.928-18-13-24.679-19.316-41.481-37.933-60-63l1-4c19.783 28.606 49.038 56.767 78 76"/><path fill="#0382b3" d="M483 787c-7.877 30.765 16.122 47.553 44 42 3.293-.656 6.571-3.014 10-1.5.349.583-10.042 7.286-11 8-2.461 1.832-6.53 7.194-12 8.5-22.543 5.384-41.408-7.285-51-27 1.733-.143 3.94 1.804 6.5 1 6.164-1.936 2.22-19.417 2.5-25 2.236-2.523 1.689-5.919 3-9z"/><path fill="#416d7b" d="M561 787c3.118 17.236-.129 35.121-12 48 7.083-10.529 10.385-20.272 11-33 .19-3.939-3.749-15.009 1-15"/><path fill="#0d92b3" d="M456 807c-1.009-6.977-.668-11.183 1-18z"/><path fill="#07212d" d="M569 823c-2.694 7.263-8.008 17.166-13 23-20.01 23.388-51.821 26.914-79 15l2-3c38.1 15.501 72.951-2.046 88-39-.008.103 1.976-.319 2 .5.05 1.707-4.744 2.932 0 3.5"/><path fill="#82c8db" d="M477 861c27.179 11.914 58.99 8.388 79-15-.094 9.388-14.198 13.324-20.5 17-.204.119.098 2.694-2.5 4l-34.5 3c-7.164-1.269-13.818-3.164-20.5-6-18.653-7.916-32.558-23.078-38-41 7.477 17.21 19.77 30.447 37 38"/><path fill="#79a5b6" d="M429 870c4.249 2.3 20.24 8.667 22 10 2.519 1.908-1.657 4.979-1 6.5.129.298 4.45 1.645 6 2.5-17.504-4.288-33.799-10.207-49-20-3.416-2.201-12.603-7.237-12.5-11 3.484 2.678 30.234 16.282 32 16 2.393-.383 1.098-2.348 2.5-4"/><path fill="#568497" d="M533 867c-15.048 7.563-41.533 8.028-55-3 6.682 2.836 13.336 4.731 20.5 6z"/><path fill="#79a5b6" d="M475 895c-6.298-1.091-13.338-2.875-19-6 5.041 1.235 10.44 1.882 15.5 3 .858.19 5.729 1.003 3.5 3"/></svg>