<svg xmlns="http://www.w3.org/2000/svg" width="1024" height="1024"><defs><linearGradient id="a" x1="494.352" x2="743.999" y1="353.996" y2="388.354" gradientUnits="userSpaceOnUse"><stop offset="0%" style="stop-color:#e2f6fa"/><stop offset="39.286%" style="stop-color:#7fc0d0"/><stop offset="100%" style="stop-color:#5094a9"/></linearGradient></defs><defs><linearGradient id="b" x1="587.561" x2="449.514" y1="405.679" y2="478.335" gradientUnits="userSpaceOnUse"><stop offset="0%" style="stop-color:#002d4b"/><stop offset="100%" style="stop-color:#145571"/></linearGradient></defs><defs><linearGradient id="c" x1="520.14" x2="507.131" y1="468.409" y2="566.55" gradientUnits="userSpaceOnUse"><stop offset="0%" style="stop-color:#030931"/><stop offset="100%" style="stop-color:#1a5577"/></linearGradient></defs><defs><linearGradient id="d" x1="532.203" x2="500.872" y1="476.163" y2="614.663" gradientUnits="userSpaceOnUse"><stop offset="0%" style="stop-color:#0058a0"/><stop offset="100%" style="stop-color:#00a6d6"/></linearGradient></defs><defs><linearGradient id="e" x1="633.349" x2="707.22" y1="571.307" y2="575.68" gradientUnits="userSpaceOnUse"><stop offset="0%" style="stop-color:#d9dbe3"/><stop offset="100%" style="stop-color:#8997ae"/></linearGradient></defs><defs><linearGradient id="f" x1="323.598" x2="400.765" y1="564.402" y2="585.502" gradientUnits="userSpaceOnUse"><stop offset="0%" style="stop-color:#ecf0f4"/><stop offset="100%" style="stop-color:#9fb9ca"/></linearGradient></defs><defs><linearGradient id="g" x1="585.333" x2="444.683" y1="779.465" y2="789.393" gradientUnits="userSpaceOnUse"><stop offset="0%" style="stop-color:#0a3852"/><stop offset="100%" style="stop-color:#125268"/></linearGradient></defs><path fill="#012132" d="M152 151c-3.674.097-7.142 3.017-10 5-30.644 21.269-36.738 66.886-31.5 101l7.5-10c.805 3.147 1.64 7.365 3.5 10 1.242-.033 9.919-19.508 15.5-19-1.315 1.418-2.548 4.456-3 5-2.874 3.461-6.819 6.312-9 10.5-2.264 4.347-1.879 7.118-3 10.5-2.178 6.569-5.809 14.256-5 21.5.408 3.659 22.668 50.44 25.5 50.5 3.259-5.799 3.379-12.848 5.5-19 4.91.478 11.642 9.567 12 14 .53 6.557-5.315 16.379-4 23.5.188 1.018 11.673 17.122 12.5 16.5 1.862-8.632 3.438-17.718 6.5-26 2.316-6.265 7.483-13.561 10-20-1.55 3.367-2.906 11.912-4 15.5-2.22 7.278-7.998 5.504 5.5 13.5 2.852-.609 9.662-28.875 16.5-30 .194 1.828-12.086 28.38-14 34-3.003 8.819-5.258 17.946-9 26.5 3.643 4.186 31.317 33.467 34 32 4.022-10.168 9.549-19.546 14-29.5 1.343-3.004 4.206-6.866 6-11 9.605-6.63 15.616-20.137 23-29.5 14.443-18.315 31.207-34.942 49-50-15.673-9.093-32.824 6.905-44 17.5.345-.549.654-1.453 1-2 1.283-2.026 7.757-6.943 6.5-9-10.081-5.198-21.253-8.309-31.5-13-6.326-2.896-12.729-5.97-19-9-5.133-2.48-9.988-5.347-15-8-8.893-4.707-16.077-15.177-24-4-1.239-.484-1.888-.993-2-1l7-6.5c-28.465-20.369-41.51-51.728-40-86.5.238-5.486.966-9.636 2-15 1.655-2.704 1.559-7.058 5-8-12.026 59.498 2.871 91.344 55.5 121 8.402 4.734 61.464 29.315 67 28 2.835-.673 10.902-8.156 18-9 7.77-.924 13.277 3.248 19.5 0-1.234 1.513-3.507 3.875-2 6-47.931 38.88-90.234 100.208-106 160-5.654 21.444-10.34 43.708-10 66-6.283-1.601-3.67-18.453-3-26 .534-6.01 5.788-13.482 0-19 3.308-4.466 4.981-18.886-1-22-.242-.126-.679.107-1 0-.339-2.868 2.044-2.574 3.5-1 6.191 6.693-.211 23.721 1 24l9.5-31.5c-1.081-1.353-27.659 2.385-29.5 3.5-.935.567-1.164 3.415-1.5 4-1.414 2.463-2.17 6.203-3 9-1.476 4.976-3.136 12.84-4 18-.793 4.732-.595 9.354-1 14-.364 4.172-3.749 21.316-1.5 24 10.723 3.536 21.371 4.79 32.5 6 .427 3.088-6.112 2.188-7.5 2-19.57-2.645-70.634-14.465-74.5-37.5-6.744-40.187 64.665-40.726 90.5-45.5 1.24-.489 10.526-23.167 10.5-24.5-.049-2.545-31.484-30.991-36-36-45.238-50.174-89.714-125.507-64-195 6.589-17.805 20.232-34.68 37.5-42.5 3.06-.045.605 2.035.5 3m14.5 306c-3.943-.31-4.617 7.637-4 8 3.987 2.344 10.142-7.518 4-8m-30.5 9c.622-12.479-17.994 4.523-20 11.5-7.874 27.39 21.908 37.806 42.5 42.5-1.71-12.497-1.04-23.56-.5-36 .282-6.493 1.334-10.968 2-17 .232-2.101 2.545-7.84-.5-9-7.082 2.767-16.916 4.49-23.5 8"/><path fill="#011c2d" d="m522 875-7-1.5 9-2.5c38.224-1.865 78.699-11.497 113-28 120.651-58.047 203.789-203.564 177-335.5C792.749 402.838 699.797 306.828 598 277l2-2c109.975 31.629 206.606 138.138 222.5 252 1.065.609 1.697-1.27 2.5-1 .191.064.075 2.039 3.5 2 2.087-.024 26.076-5.955 27-7 2.972-3.362.88-19.112.5-24-.391-5.024-1.228-10.031-2-15-.891-5.737-2.708-11.372-4-17 .9.12 1.093-1.105 2-1 1.345.155 2.396 1 5 1h2c.141 2.514.99 1.889 1 2 .493 5.415 1.779 12.152 2 17 .519 11.379.493 23.309-2 34.5 21.263-.234 52.158-16.191 43-42-6.182-17.423-40.208-20.366-56-23.5-9.658-1.917-23.363-3.574-32-6-.516-.145-1.357.072-2 0-29.774-115.419-162.512-214.041-280-221l3-3c65.935 5.856 124.026 29.948 175.5 71 11.526-9.885 30.21 7.534 35 8 3.653.355 60.063-25.995 67-30 46.749-26.988 71.5-67.93 52.5-122.5.978-5.267 19.603 10.447 22 13 66.78 71.146-10.071 186.354-63.5 240.5-2.551 2.585-18.271 14.315-18.5 15.5-.267 1.382 8.323 25.728 9.5 26.5 2.002 1.312 36.469 5.485 43 7 22.498 5.22 55.053 11.087 46.5 42.5-7.085 26.023-60.826 29.031-82 37C834.248 703.994 697.53 868.591 522 875m352-684c-2.102 27.845-17.433 54.407-40 70.5l7 6.5c-.071.002.163 1.183-1 1-12.781-10.62-12.61-1.838-23 4-5.488 3.084-12.26 6.231-18 9-5.54 2.673-11.416 5.464-17 8-4.057 1.842-31.559 11.459-32.5 13-.612 3.36 5.229 6.971 6.5 9 3.986 6.363 8.483 13.421 12 20 2.086 3.902 5.224 10.045 7 14 .266.593.541 1.935 1 3-12.674-12.897-16.711-34.321-31.5-46-6.931-5.474-23.507-13.137-30.5-6.5 28.115 18.73 44.304 48.381 65 73 1.54 1.832 2.563 5.42 5 1.5 2.341 5.277 4.586 10.628 7 16 4.522 10.065 11.059 19.327 14.5 30l32.5-31.5c-2.649-9.174-4.957-18.453-8-27.5-3.908-11.619-8.699-22.484-15-33-.147-.245.149-.757 0-1-.079-1.574 1.533-.753 2-1 3.07 3.408 13.284 31.771 15.5 32 3.074.318 7.976-12.1 12.5-5 2.406 6.445 3.11 13.527 5.5 20 1.984-1.519 12.308-13.562 12.5-14.5.672-3.284-3.786-20.099-5-24.5-.152-.549.158-1.468 0-2 1.295-2.127 10.75-11.982 11-13l7.5 20c4.058-7.657 9.547-14.821 13.5-22.5 11.312-21.977 14.026-27.88 6-50.5-.763-2.149-.261-4.929-2-8.5-2.438-5.006-6.527-8.406-10-12.5-1.405-1.657-2.79-6.069-6-7 .277-.836.758-1.163 1-2 1.534 1.75 4.661 2.825 6 4 5.277 4.631 9.4 10.482 15 15 2.555 2.061 6.204 4.691 9 6.5 3.897-33.117-.398-81.585-31-101.5-.993-.646-7.239-5.769-8-4.5 3.095 12.748 4.997 25.301 4 38.5"/><path fill="#2f849d" d="M152 151c-.035.327.064.685 0 1-3.441.942-3.345 5.296-5 8-3.407 5.565-5.148 7.437-8 14-9.315 21.441-11.936 38.701-6 62-5.641 2.868-10.394 5.623-15 10-5.982-24.29-3.895-47.807 9-69.5 4.35-7.318 11.704-12.835 15-20.5 2.858-1.983 6.326-4.903 10-5"/><path fill="#2e8199" d="M878 157c3.043 8.306 11.444 13.884 16 22.5 12.378 23.41 12.005 47.247 6 72.5-5.6-4.518-9.723-10.369-15-15 6.211-14.413 5.392-38.846 0-53.5-.315-.855-3.453-8.653-5-4.5-.647-2.079-.959-5.654-3-6.5-.712 7.247 1.307 14.297 1 21.5l-4-3c.997-13.199-.905-25.752-4-38.5.761-1.269 7.007 3.854 8 4.5"/><path fill="#185c73" d="M118 246c.077.314-.08.687 0 1l-7.5 10c-5.238-34.114.856-79.731 31.5-101-3.296 7.665-10.65 13.182-15 20.5-12.895 21.693-14.982 45.21-9 69.5"/><path fill="#16556f" d="M900 252c6.005-25.253 6.378-49.09-6-72.5-4.556-8.616-12.957-14.194-16-22.5 30.602 19.915 34.897 68.383 31 101.5-2.796-1.809-6.445-4.439-9-6.5"/><path fill="#c6fcfe" d="M145 175c-1.636-.842-2.93 3.005-3 3.5-4.986 35.5 9.284 65.981 35 89.5-1.643.375-6.456 5.851-7 8-.176-.166-.826.167-1 0-12.152-11.655-23.104-24.321-28-41v-1c1.414-.601 5.317-2.95 6-4.5l-6.5 2.5c-6.974-18.605-4.738-38.907-1.5-58 2.852-6.563 4.593-8.435 8-14-1.034 5.364-1.762 9.514-2 15"/><path fill="#c8fcfd" d="M880 179c5.169 16.617 3.803 37.411-1 54-.242.837-.723 1.164-1 2-5.108 15.419-15.531 31.574-29 41-.954-1.152-6.498-7.826-7-8 22.426-20.784 34.676-42.973 36-74 .307-7.203-1.712-14.253-1-21.5 2.041.846 2.353 4.421 3 6.5"/><path fill="#53b6d2" d="M141 234c-.412.175-4.243.09-8 2-5.936-23.299-3.315-40.559 6-62-3.238 19.093-5.474 39.395 1.5 58l6.5-2.5c-.683 1.55-4.586 3.899-6 4.5"/><path fill="#4fa4be" d="M145 175c-1.51 34.772 11.535 66.131 40 86.5l-7 6.5c-.299-.018-.719-.064-1 0-25.716-23.519-39.986-54-35-89.5.07-.495 1.364-4.342 3-3.5"/><path fill="#53b8d3" d="M885 237c-1.339-1.175-4.466-2.25-6-4 4.803-16.589 6.169-37.383 1-54 1.547-4.153 4.685 3.645 5 4.5 5.392 14.654 6.211 39.087 0 53.5"/><path fill="#4fa4bf" d="M878 194c-1.324 31.027-13.574 53.216-36 74-.245-.085-.717-.009-1 0l-7-6.5c22.567-16.093 37.898-42.655 40-70.5z"/><path fill="#1c6579" d="m536 223-3 3c-10.42-.617-23.51-.443-34 0-14.427.609-28.802 2.549-43 5-52.406 9.049-104.773 33.558-146 67-1.507-2.125.766-4.487 2-6 6.723-8.243 35.139-25.341 45.5-31 54.494-29.766 116.082-43.544 178.5-38"/><path fill="#aee0ed" d="M499 226c1.573 6.716 2.704 13.534 2 20.5-.498 4.929-6.056 12.55-3 16.5-80.773 2.541-152.108 41.131-209 96-38.966 37.58-72.401 87.92-84 141.5-2.09 9.656 1.957 26.802-11 23.5-.34-22.292 4.346-44.556 10-66 1.919 1.586 2.29.018 3-1.5C263.333 336.164 324.503 269.942 455.5 233c3.88-1.094 2.132.256.5-2 14.198-2.451 28.573-4.391 43-5"/><path fill="url(#a)" d="M533 226c117.488 6.959 250.226 105.581 280 221 3.802 14.738 9.614 38.461 12 53 1.305 7.951 1.787 18.078 0 26-.803-.27-1.435 1.609-2.5 1C806.606 413.138 709.975 306.629 600 275c-22.732-6.538-47.331-10.791-71-12-9.769-.499-21.17-.309-31 0-3.056-3.95 2.502-11.571 3-16.5.704-6.966-.427-13.784-2-20.5 10.49-.443 23.58-.617 34 0" style="fill:url(#a)"/>/&gt;<path fill="#f1fcfd" d="M456 231c1.632 2.256 3.38.906-.5 2C324.503 269.942 263.333 336.164 207 456.5c-.71 1.518-1.081 3.086-3 1.5 15.766-59.792 58.069-121.12 106-160 41.227-33.442 93.594-57.951 146-67"/><path fill="#0a4359" d="M141 234v1c-1.189.85-3.049 1.975-4 3-5.581-.508-14.258 18.967-15.5 19-1.86-2.635-2.695-6.853-3.5-10-.08-.313.077-.686 0-1 4.606-4.377 9.359-7.132 15-10 3.757-1.91 7.588-1.825 8-2"/><path fill="#55b9d5" d="M169 276c-2.035 3.847-4.717 7.245-7 11-14.297-11.002-20.19-28.542-28-44 .452-.544 1.685-3.582 3-5 .951-1.025 2.811-2.15 4-3 4.896 16.679 15.848 29.345 28 41"/><path fill="#54b9d5" d="M884 242c-4.574 17.36-13.706 33.784-27 46-2.312-3.94-5.168-7.44-8-11-.162-.204.164-.802 0-1 13.469-9.426 23.892-25.581 29-41 3.21.931 4.595 5.343 6 7"/><path fill="#27748c" d="M896 263c-5.358 18.039-13.617 37.441-27 51-.001-3.704-9.512-21.76-12-26 13.294-12.216 22.426-28.64 27-46 3.473 4.094 7.562 7.494 10 12.5 1.739 3.571 1.237 6.351 2 8.5"/><path fill="#27758c" d="M162 287a156.4 156.4 0 0 0-13 27l-27-50c1.121-3.382.736-6.153 3-10.5 2.181-4.188 6.126-7.039 9-10.5 7.81 15.458 13.703 32.998 28 44"/><path fill="#0d6582" d="m204 273-10 5c-.58-.081-1.46-.118-2 0-2.591-1.5-10.154-8.278-12-9 7.923-11.177 15.107-.707 24 4"/><path fill="#206577" d="M498 263c9.83-.309 21.231-.499 31 0l-4 2c-14.735-.473-27.434.325-42 2-28.28 3.252-55.767 11.321-82 22-40.74 16.584-87.36 45.41-115 80h-1c-3.016-3.515 4.128-6.367 4-10 56.892-54.869 128.227-93.459 209-96"/><path fill="#114550" d="m600 275-2 2c-6.112-1.791-12.798-3.631-19-5-11.188-2.47-22.585-3.839-34-5-6.721-.684-13.184-1.781-20-2l4-2c23.669 1.209 48.268 5.462 71 12"/><path fill="#0b627f" d="M840 269c-4.059 2.62-10.656 10.084-16 8-.562-2.016-5.002-3.658-7-4 10.39-5.838 10.219-14.62 23-4"/><path fill="#0d455c" d="M869 316c.132-.538 0-1.355 0-2 13.383-13.559 21.642-32.961 27-51 8.026 22.62 5.312 28.523-6 50.5-3.953 7.679-9.442 14.843-13.5 22.5z"/><path fill="#0e455c" d="M149 314c-.34.929-.666 2.032-1 3-2.121 6.152-2.241 13.201-5.5 19-2.832-.06-25.092-46.841-25.5-50.5-.809-7.244 2.822-14.931 5-21.5z"/><path fill="#a6cbd6" d="M525 265c6.816.219 13.279 1.316 20 2-.493 13.564-4.044 27.262-7.5 40l-4.5.5c15.075 2.464 30.18 4.813 45 8.5 11.667 2.903 22.692 7.075 34 11l-1 6c-32.26-11.347-67.594-18.837-102-19 3.794-15.959-22.532-3.73-32-7.5l6-1V267c14.566-1.675 27.265-2.473 42-2"/><path fill="#c8e3ea" d="M483 267v38.5l-6 1c9.468 3.77 35.794-8.459 32 7.5-68.051-.322-162.752 26.215-207 81-1.766-2.093-5.744-3.067-5-7 16.385-15.481 58.408-51.34 79.5-56 9.694-2.142 15.331 4.367 23.5-6.5 7.985-10.622 4.394-24.757 1-36.5 26.233-10.679 53.72-18.748 82-22"/><path fill="#85becf" d="m579 272-1 44c-14.82-3.687-29.925-6.036-45-8.5l4.5-.5c3.456-12.738 7.007-26.436 7.5-40 11.415 1.161 22.812 2.53 34 5"/><path fill="#a8c9d5" d="M180 269c1.846.722 9.409 7.5 12 9-1.249.274-9.853 8.092-9 11-.33-.029-.668.022-1 0 .61-1.92-.841-1.798-1-2-2.539-3.222-6.869-6.162-10-9-.096-.087-.89-1.896-1-2 .544-2.149 5.357-7.625 7-8 .281-.064.701-.018 1 0 .112.007.761.516 2 1"/><path fill="#a6c5d1" d="M849 276c.164.198-.162.796 0 1-1.134-.181-.948.952-1 1-2.737 2.501-8.008 6.321-10 9-.118.158-1.61.075-1 2h-1c-.928-5.514-6.916-10.732-12-10-.072-.643.144-1.482 0-2 5.344 2.084 11.941-5.38 16-8 1.163.183.929-.998 1-1 .283-.009.755-.085 1 0 .502.174 6.046 6.848 7 8"/><path fill="#486f86" d="M598 277c101.797 29.828 194.749 125.838 216 230.5 26.789 131.936-56.349 277.453-177 335.5l-5.5-18c-30.757 14.515-64.571 22.604-98.5 24 18.783-15.353 42.239-38.128 53-60 11.478-13.117 17.298-34.393 5-49 7.249-18.02 28.495-35.801 35-53.5 2.541-6.912 5.152-15.435 1-22.5 18.838-6.36 41.267-16.801 59-26 17.112-8.877 35.313-18.087 48-33 .155-.033.826-1.816 3-1-1.268 17.073-7.015 30.066-11 46-5.801 23.195-6.564 30.523 10 49.5 25.141 28.804 24.638 6.381 36-11 4.144-6.339 17.137-18.313 18-27 .798-8.031-12.079-27.212-16-35-.822-1.632-3.848-2.692-4-3-7.01-14.217-10.126-30.567-19-44 2.529-9.145 11.568-17.34 9-27.5-.085-.336.11-.746 0-1-3.975-9.175-20.542-5.516-21-18 .451-5.005 10.641-25.243 2.5-25-9.414 5.026-9.46 18.63-9.5 28-1.496-3.936-1.017-7.853-2-12-.77-3.247-3.889-13.336-8-14-.889-.144-1.109 1.14-2 1-1.942-2.841-8.205-12.258-10-14 1.441-2.079 1.007-2.082 0-4-14.118-24.081-35.71-50.898-57-69l19-58c3.804 2.189 8.4 3.509 11.5 7-5.66-7.636-18.497-13.968-27.5-19-1.027-1.974 3.079-7.104 3-7.5-.611-3.052-41.039-17.431-47-19.5-11.308-3.925-22.333-8.097-34-11l1-44c6.202 1.369 12.888 3.209 19 5"/><path fill="#4a9fb9" d="M204 273c5.012 2.653 9.867 5.52 15 8l-6 7c-4.308-.839-16.1-9.596-19-10z"/><path fill="#4aa1bb" d="M817 273c1.998.342 6.438 1.984 7 4 .144.518-.072 1.357 0 2-.952.137-14.358 7.714-17 9-.27.131-.73-.131-1 0l-7-6c5.74-2.769 12.512-5.916 18-9"/><path fill="#053044" d="M171 278c-9.226 9.583-9.928 11.386.5 20l9.5-11c.159.202 1.61.08 1 2-3.132.652-6.394 8.385-8 11-6.268 10.207-8.99 18.979-13 30-.183.504.053 1.14-1 1-.358-4.433-7.09-13.522-12-14 .334-.968.66-2.071 1-3a156.4 156.4 0 0 1 13-27c2.283-3.755 4.965-7.153 7-11 .174.167.824-.166 1 0 .11.104.904 1.913 1 2"/><path fill="#063044" d="M857 288c2.488 4.24 11.999 22.296 12 26 0 .645.132 1.462 0 2-.25 1.018-9.705 10.873-11 13-2.527-8.529-8.382-20.255-13-28-2.482-4.162-4.326-8.628-8-12-.61-1.925.882-1.842 1-2 2.223 1.881 6.163 11.412 9.5 11 8.728-1.078 7.441-15.359.5-20 .052-.048-.134-1.181 1-1 2.832 3.56 5.688 7.06 8 11"/><path fill="#0b6b8a" d="m181 287-9.5 11c-10.428-8.614-9.726-10.417-.5-20 3.131 2.838 7.461 5.778 10 9"/><path fill="#bdfafd" d="M194 278c2.9.404 14.692 9.161 19 10v1c-4.631.456-8.986 10.114-14 11-2.83-1.744-14.521-10.872-16-11-.853-2.908 7.751-10.726 9-11 .54-.118 1.42-.081 2 0"/><path fill="#0a6685" d="M838 287c1.992-2.679 7.263-6.499 10-9 6.941 4.641 8.228 18.922-.5 20-3.337.412-7.277-9.119-9.5-11"/><path fill="#befbfe" d="m836 289-18 12-11-13c2.642-1.286 16.048-8.863 17-9 5.084-.732 11.072 4.486 12 10"/><path fill="#10698d" d="m238 290-9 6c-3.844-1.499-12.322-7.362-16-7v-1l6-7c6.271 3.03 12.674 6.104 19 9"/><path fill="#0e6c8d" d="M806 288c-5.661 2.745-11.468 5.964-17 9a9.8 9.8 0 0 0-2 0c1.95-3.596-2.718-4.25-5-7 5.584-2.536 11.46-5.327 17-8z"/><path fill="#8ee8f4" d="M818 301v1c-1.138-.182-.933.928-1 1-.476.506-9.912 5.598-12 7-.23.155-.769-.153-1 0-2.277-2.862-12.036-12.675-15-13 5.532-3.036 11.339-6.255 17-9 .27-.131.73.131 1 0z"/><path fill="#53bbd7" d="M183 289c1.479.128 13.17 9.256 16 11 .06.037-.132.298 1 1l-10.5 13-15.5-14c1.606-2.615 4.868-10.348 8-11 .332.022.67-.029 1 0"/><path fill="#8ee9f4" d="M213 289c3.678-.362 12.156 5.501 16 7 .467.182 1.54-.183 2 0-5.771 2.84-13.162 8.144-16 14-.239-.15-.761.15-1 0-1.109-.696-1.673-.798-2-1-3.995-2.462-7.91-5.463-12-8-1.132-.702-.94-.963-1-1 5.014-.886 9.369-10.544 14-11"/><path fill="#e8f4f8" d="M297 388c-13.554 12.807-23.048 23.962-35 38-5.111 6.003-10.596 11.788-15.5 18-7.223-3.357 35.266-69.701 39.5-75 27.64-34.59 74.26-63.416 115-80 3.394 11.743 6.985 25.878-1 36.5-8.169 10.867-13.806 4.358-23.5 6.5-21.092 4.66-63.115 40.519-79.5 56"/><path fill="#51bad6" d="M837 289c3.674 3.372 5.518 7.838 8 12l-17 14c-2.754-4.472-6.24-9.267-10-13v-1l18-12z"/><path fill="#4698b3" d="M263 312c-9.326-6.308-21.563-11.843-32-16-.46-.183-1.533.182-2 0l9-6c10.247 4.691 21.419 7.802 31.5 13 1.257 2.057-5.217 6.974-6.5 9"/><path fill="#4496b0" d="M782 290c2.282 2.75 6.95 3.404 5 7-5.184.556-24.871 12.33-31 15-1.271-2.029-7.112-5.64-6.5-9 .941-1.541 28.443-11.158 32.5-13"/><path fill="#05364b" d="M234 376c3.69-8.501 5.705-20.276 10-30 1.964-4.446 5.585-10.449 8-15 3.109-5.859 6.482-11.39 10-17 11.176-10.595 28.327-26.593 44-17.5-17.793 15.058-34.557 31.685-49 50-7.384 9.363-13.395 22.87-23 29.5"/><path fill="#053347" d="M776 349c3.182 7.386 5.163 15.605 8 22-2.437 3.92-3.46.332-5-1.5-20.696-24.619-36.885-54.27-65-73 6.993-6.637 23.569 1.026 30.5 6.5 14.789 11.679 18.826 33.103 31.5 46"/><path fill="#bbfbfe" d="M263 312c-.346.547-.655 1.451-1 2-3.518 5.61-6.891 11.141-10 17-13.326-4.587-25.088-13.5-37-21 2.838-5.856 10.229-11.16 16-14 10.437 4.157 22.674 9.692 32 16"/><path fill="#bafafd" d="M789 297c2.964.325 12.723 10.138 15 13-11.756 7.797-23.427 15.536-36 22-3.517-6.579-8.014-13.637-12-20 6.129-2.67 25.816-14.444 31-15a9.8 9.8 0 0 1 2 0"/><path fill="#217792" d="M200 301c4.09 2.537 8.005 5.538 12 8l-10 13c-.415-.53-9.986-5.689-11.5-7-2.037 3.23-3.904 6.535-5.5 10-2.517 6.439-7.684 13.735-10 20l-14-15c4.01-11.021 6.732-19.793 13-30l15.5 14z"/><path fill="#27758c" d="M858 329c.158.532-.152 1.451 0 2l-15 14c-4.011-9.96-9.371-20.859-15-30l17-14c4.618 7.745 10.473 19.471 13 28"/><path fill="#052f43" d="M828 315c5.629 9.141 10.989 20.04 15 30 .658 1.633 1.391 3.37 2 5-4.524-7.1-9.426 5.318-12.5 5-2.216-.229-12.43-28.592-15.5-32 3.331-1.762 5.701-4.717 9-6.5l-9-13.5c.067-.072-.138-1.182 1-1 3.76 3.733 7.246 8.528 10 13"/><path fill="#0c7ea5" d="m817 303 9 13.5c-3.299 1.783-5.669 4.738-9 6.5-.467.247-2.079-.574-2 1-2.964-4.831-7.51-8.81-10-14 2.088-1.402 11.524-6.494 12-7"/><path fill="#247088" d="m214 310-10 14.5 40 21.5c-4.295 9.724-6.31 21.499-10 30-1.794 4.134-4.657 7.996-6 11l-39-29c1.914-5.62 14.194-32.172 14-34-.05-.474-.721-1.644-1-2l10-13c.327.202.891.304 2 1"/><path fill="#53b7d2" d="M215 310c11.912 7.5 23.674 16.413 37 21-2.415 4.551-6.036 10.554-8 15l-40-21.5 10-14.5c.239.15.761-.15 1 0"/><path fill="#51b6d1" d="M815 324c.149.243-.147.755 0 1l-40 21c-1.776-3.955-4.914-10.098-7-14 12.573-6.464 24.244-14.203 36-22 .231-.153.77.155 1 0 2.49 5.19 7.036 9.169 10 14"/><path fill="#e8f4f7" d="M509 314c34.406.163 69.74 7.653 102 19 13.581 4.777 32.309 13.907 45 21 9.003 5.032 21.84 11.364 27.5 19-3.1-3.491-7.696-4.811-11.5-7-19.193-11.044-35.952-19.613-57-27-13.305-4.669-26.298-7.756-40-11-23.169-5.485-42.62-10.127-67-10-57.737.301-137.001 24.053-183 59-8.203 6.233-16.5 12.407-22.5 21-2.878.235.336-2.01-.5-3 44.248-54.785 138.949-81.322 207-81"/><path fill="#052e42" d="M202 322c.279.356.95 1.526 1 2-6.838 1.125-13.648 29.391-16.5 30-13.498-7.996-7.72-6.222-5.5-13.5 1.094-3.588 2.45-12.133 4-15.5 1.596-3.465 3.463-6.77 5.5-10 1.514 1.311 11.085 6.47 11.5 7"/><path fill="#c8e3ea" d="m508 318-1 50.5 13 2.5c-54.445-2.003-108.122 16.572-150 51-3.016-2.675-8.261-5.934-8-10 35.059-37.016-.703-27.053-24-13-2.036-7.935-6.758-16.631-13-22 45.999-34.947 125.263-58.699 183-59"/><path fill="#a9ccd7" d="m575 328-8 48.5c10.026 2.988 19.644 4.601 27 11.5-23.888-9.99-47.918-16.041-74-17l-13-2.5 1-50.5c24.38-.127 43.831 4.515 67 10"/><path fill="#247088" d="m830 358-39 29c-2.414-5.372-4.659-10.723-7-16-2.837-6.395-4.818-14.614-8-22-.459-1.065-.734-2.407-1-3l40-21c6.301 10.516 11.092 21.381 15 33"/><path fill="#74a8ba" d="M656 354c-12.691-7.093-31.419-16.223-45-21l1-6c5.961 2.069 46.389 16.448 47 19.5.079.396-4.027 5.526-3 7.5"/><path fill="#88c2d3" d="m615 339-12 51.5 13 8.5c-7.263-4.09-14.288-7.775-22-11-7.356-6.899-16.974-8.512-27-11.5l8-48.5c13.702 3.244 26.695 6.331 40 11"/><path fill="#114c63" d="M175 345c-3.062 8.282-4.638 17.368-6.5 26-.827.622-12.312-15.482-12.5-16.5-1.315-7.121 4.53-16.943 4-23.5 1.053.14.817-.496 1-1z"/><path fill="#124c64" d="M858 331c1.214 4.401 5.672 21.216 5 24.5-.192.938-10.516 12.981-12.5 14.5-2.39-6.473-3.094-13.555-5.5-20-.609-1.63-1.342-3.367-2-5z"/><path fill="#74a8ba" d="m672 366-19 58c-10.507-8.934-24.919-18.197-37-25l-13-8.5 12-51.5c21.048 7.387 37.807 15.956 57 27"/><path fill="#0b3d54" d="M228 387c-4.451 9.954-9.978 19.332-14 29.5-2.683 1.467-30.357-27.814-34-32 3.742-8.554 5.997-17.681 9-26.5z"/><path fill="#0b3c53" d="m791 387 39-29c3.043 9.047 5.351 18.326 8 27.5L805.5 417c-3.441-10.673-9.978-19.935-14.5-30"/><path fill="#0e475a" d="M285 369c-15.305 16.865-29.922 34.654-42 54-28.034 44.906-36.997 82.788-36 136-3.531 2.677 2.692 19.273-4 17-1.19-16.106-1.823-32.384 0-48.5-.896-2.283-5.696-.25-8-.5-11.129-1.21-21.777-2.464-32.5-6-2.249-2.684 1.136-19.828 1.5-24l27 1c-.67 7.547-3.283 24.399 3 26 12.957 3.302 8.91-13.844 11-23.5 11.599-53.58 45.034-103.92 84-141.5.128 3.633-7.016 6.485-4 10"/><path fill="#86c0d1" d="m262 426 6.5 10 7-8 17.5 19c-9.389 15.672-16.283 32.312-21 50-7.697 1.993-17.109-23.266-22.5-21-9.615 22.695-15.315 46.92-17.5 71.5l-13-4.5c1.891-34.009 10.059-70.04 23-101.5.993-2.415 3.901-2.771 4-3 1.648-3.802 2.107-9.473 5-13l-8-2.5c12.078-19.346 26.695-37.135 42-54h1c-4.234 5.299-46.723 71.643-39.5 75 4.904-6.212 10.389-11.997 15.5-18m-2.5 22c-3.213 2.183 3.255 2.159 2.5.5-.299-.658-2.151-.737-2.5-.5"/><path fill="#0f2d31" d="M520 371c26.082.959 50.112 7.01 74 17 7.712 3.225 14.737 6.91 22 11 12.081 6.803 26.493 16.066 37 25 21.29 18.102 42.882 44.919 57 69-21.354-40.674-77.931-84.918-120-102-74.645-30.309-141.065-18.037-207 25-4.965 3.241-11.374 6.433-16 10 .668-.959 2.331-3.45 3-4 41.878-34.428 95.555-53.003 150-51"/><path fill="#89c2d3" d="M590 391c1.369 3.211 4.714 1.216 1 4-10.643-4.212-20.394-6.647-32-9-41.075-8.328-70.643-7.395-111 4-21.736 6.137-44.875 16.061-64 28l-1-2c65.935-43.037 132.355-55.309 207-25"/><path fill="#a7cbd6" d="M338 399c-17.417 10.506-34.595 30.631-45 48l-17.5-19-7 8-6.5-10c11.952-14.038 21.446-25.193 35-38-.744 3.933 3.234 4.907 5 7 .836.99-2.378 3.235.5 3 6-8.593 14.297-14.767 22.5-21 6.242 5.369 10.964 14.065 13 22"/><path fill="#a6e4f1" d="M559 386v11c-30.873-5.626-78.633-4.317-109 4l-2-11c40.357-11.395 69.925-12.328 111-4"/><path fill="#bad9e2" d="M362 412c-14.531 15.343-25.77 22.081-40 40-20.39 25.676-38.373 52.301-41 86-1.586.548-3.4 1.382-5 2-2.544.982-5.439-2.189-6 4.5-.084 1 3.966 10.348 4 11 1.23 23.341-4.702 51.535-4 75.5-.067-.306-2.579-4.056-3-5.5-9.522-32.642-3.799-95.509 5-128.5 4.717-17.688 11.611-34.328 21-50 10.405-17.369 27.583-37.494 45-48 23.297-14.053 59.059-24.016 24 13"/><path fill="#90cfdf" d="M591 395c10.632 4.207 21.495 9.655 31 16-1.903 2.936-5.67 5.366-3 9-15.262-8.691-42.841-19.873-60-23v-11c11.606 2.353 21.357 4.788 32 9"/><path fill="#92d0e1" d="M450 401c-47.804 13.093-136.369 70.943-149 121.5-1.774 7.1 2.858.792 3 4l-4 8.5c.613 10.889-16.063 34.762-15 43.5.638 5.245 10.975 11.831 15 14.5 68.243 57.591 163.958 70.58 251 63 4.567-.398 9.485-.456 14-1 1.464 2.015.579 8.908 1 9.5 1.867 2.628 55.739-10.387 63-12.5-67.907 25.358-151.199 26.118-221 6-27.168-7.83-60.448-22.917-85-37-7.516-4.311-41.854-25.782-45-31.5-4.376-7.953-1.582-26.028 1-34.5 4.951-5.242 5.992-13.123 13-16.5-7.944.01-10.907 9.483-13 15.5-5.399 5.578-8.718-13.023-3-14 1.6-.618 3.414-1.452 5-2 2.149-.743 5.174.525 8-2.5 2.599-2.783 13.03-28.54 17-35 4.772-7.765 10.82-14.996 16-22.5 18.644-23.392 36.353-43.99 62-60 19.125-11.939 42.264-21.863 64-28z"/><path fill="#4e899d" d="M710 493c1.007 1.918 1.441 1.921 0 4-1.405-1.363-5.367-5.244-7-2.5l23.5 28.5-6.5-12c.891.14 1.111-1.144 2-1l8 14c.983 4.147.504 8.064 2 12-.018 4.295.532 7.829 1 12h-4c-8.394-24.252-25.593-51.239-43-70-.724-2.911-4.849-6.849-7-9-1.324-5.732-8.754-13.775-13-18.5-11.633-12.947-29.593-29.882-44-39.5-9.505-6.345-20.368-11.793-31-16 3.714-2.784.369-.789-1-4 42.069 17.082 98.646 61.326 120 102"/><path fill="#b8f9fc" d="M559 397c17.159 3.127 44.738 14.309 60 23 20.328 11.576 43.425 32.429 60 49 2.151 2.151 6.276 6.089 7 9-114.258-123.15-313.416-92.516-386 57l4-8.5c-.142-3.208-4.774 3.1-3-4 12.631-50.557 101.196-108.407 149-121.5 30.367-8.317 78.127-9.626 109-4"/><path fill="#0b1919" d="M686 478c17.407 18.761 34.606 45.748 43 70 4.915 14.202 5.866 22.08 7 37-14.86 12.097-33.202 18.883-50 28-9.782 1.323-18.712 6.019-28 9-36.238 11.63-75.971 19.894-114 23-68.703 5.61-185.826-13.423-244-52-4.025-2.669-14.362-9.255-15-14.5-1.063-8.738 15.613-32.611 15-43.5 72.584-149.516 271.742-180.15 386-57m-245-59c-16.731 5.624-23.866 6.284-37 21.5-8.518 9.868-17.018 24.737-20 37.5-4.997 4.53-7.705 28.859-8 36-1.902 46.076 22.568 93.704 63.5 116 32.059 17.463 109.48 19.497 141.5 3 44.353-22.851 70.927-73.868 67-123-1.148-14.365-3.112-20.709-8-34-29.417-79.998-129.834-80.249-199-57m205 62c2.84 8.757 5.318 17.762 6 27 4.046 54.837-22.47 101.122-69 128.5 35.121-5.887 72.489-14.979 105.5-28.5 9.718-3.98 26.114-11.203 34.5-17 11.236-7.767 11.804-9.374 10-24.5-5.566-46.676-75.369-119.151-119-136 14.799 13.608 25.778 31.317 32 50.5M301 588c.057.042.06.338 1 1 35.91 25.281 95.415 37.258 138 46.5-41.074-25.249-69.921-67.836-69-117.5.214-11.525 2.708-24.992 6-36 2.397-8.017 6.827-15.762 10-23.5l17.5-25.5c-33.87 20.604-64.097 45.305-86.5 78.5-8.394 12.438-30.773 53.028-28 67 .716 3.609 8.13 7.38 11 9.5"/><path fill="url(#b)" d="M640 476c-4.053-2.525-10.184-4.09-14-6-17.553-8.788-32.495-15.978-52.5-19l-37.5 2c-15.275-5.144-35.528-5.469-50.5 1-3.034 1.311-9.12 3.16-6.5 7-.967-.308-2.344-.869-3-1 2.12-4.011-12.504-6.791-14.5-7-19.531-2.043-33.296 1.579-50.5 10-4.422 2.164-7.916 5.449-12 8 7.359-21.962 25.171-37.369 42-52 69.166-23.249 169.583-22.998 199 57" style="fill:url(#b)"/>/&gt;<path fill="#79bacb" d="M679 469c-16.575-16.571-39.672-37.424-60-49-2.67-3.634 1.097-6.064 3-9 14.407 9.618 32.367 26.553 44 39.5 4.246 4.725 11.676 12.768 13 18.5"/><path fill="#a9ccd7" d="M370 422c-.669.55-2.332 3.041-3 4-12.764 9.843-24.14 22.337-34 35l-11-9c14.23-17.919 25.469-24.657 40-40-.261 4.066 4.984 7.325 8 10"/><path fill="#2c5f67" d="M384 418c-25.647 16.01-43.356 36.608-62 60 3.758-5.444 6.916-11.755 11-17 9.86-12.663 21.236-25.157 34-35 4.626-3.567 11.035-6.759 16-10z"/><path fill="#003256" d="M441 419c-16.829 14.631-34.641 30.038-42 52-.06.037.098.299-1 1-2.765 1.765-12.465 4.608-14 6 2.982-12.763 11.482-27.632 20-37.5 13.134-15.216 20.269-15.876 37-21.5"/><path fill="#629fae" d="M219 543c-1.576 28.345.814 58.91 2 87.5.118 2.852.652 6.503-2 8.5-7.98-26.772-11.474-51.941-12-80-.997-53.212 7.966-91.094 36-136l8 2.5c-2.893 3.527-3.352 9.198-5 13-.099.229-3.007.585-4 3-12.941 31.46-21.109 67.491-23 101.5"/><path fill="#525d67" d="M723 591c-1.181-1.219-1.465-4.12-2-5 3.879 2.662 3.198-1.279 3-3.5-2.827-31.734-50.026-85.81-78-101.5-6.222-19.183-17.201-36.892-32-50.5 43.631 16.849 113.434 89.324 119 136 1.804 15.126 1.236 16.733-10 24.5"/><path fill="#7f8486" d="M377 482c-35.1 24.234-69.299 62.585-76 106-2.87-2.12-10.284-5.891-11-9.5-2.773-13.972 19.606-54.562 28-67 22.403-33.195 52.63-57.896 86.5-78.5L387 458.5c-3.173 7.738-7.603 15.483-10 23.5"/><path fill="#29768f" d="M815 447c2.517 5.899 1.162 29.063 9 26 2.755 13.361 20.52 8.009 30 9 .772 4.969 1.609 9.976 2 15-6.13.24-12.368-.329-18.5 0-2.263.121-11.605.489-12.5 3-2.386-14.539-8.198-38.262-12-53 .643.072 1.484-.145 2 0"/><path fill="#4192ab" d="M847 453c1.318 1.446.659 2.856 1 4-6.014-.807-16.483-2.831-21 1-3.048 2.585-3.754 11.346-3 15-7.838 3.063-6.483-20.101-9-26 8.637 2.426 22.342 4.083 32 6"/><path fill="#4799b1" d="M189 457c-4.748-1.587-11.943-1.483-17-1 .336-.585.565-3.433 1.5-4 1.841-1.115 28.419-4.853 29.5-3.5l-9.5 31.5c-1.211-.279 5.191-17.307-1-24-1.456-1.574-3.839-1.868-3.5 1"/><path fill="#a9ccd7" d="M259.5 448c.349-.237 2.201-.158 2.5.5.755 1.659-5.713 1.683-2.5-.5"/><path fill="#001228" d="M536 453c9.369 3.155 24.928 14.256 31 22 13.671 17.434 16.793 38.948 11 60l-5-35.5c-2.98-5.892-5.291-11.983-9-17.5-17.188-25.569-54.312-35.772-80-19-.227-.144-4.335-1.788-5-2-2.62-3.84 3.466-5.689 6.5-7 14.972-6.469 35.225-6.144 50.5-1"/><path fill="#004672" d="M626 470c4.725 9.504 6.639 19.674 8 30-7.538-4.534-14.997-8.316-23-12-14.007-6.448-28.22-12.171-44-13-6.072-7.744-21.631-18.845-31-22l37.5-2c20.005 3.022 34.947 10.212 52.5 19"/><path fill="#83bbcc" d="M333 461c-4.084 5.245-7.242 11.556-11 17-5.18 7.504-11.228 14.735-16 22.5-3.97 6.46-14.401 32.217-17 35-2.826 3.025-5.851 1.757-8 2.5 2.627-33.699 20.61-60.324 41-86z"/><path fill="#7c91a5" d="M476 460c-20.537-4.104-47.643 8.182-49 31l-30 12c-.696-1.657-1.808-6.178-2-8l16-32c17.204-8.421 30.969-12.043 50.5-10 1.996.209 16.62 2.989 14.5 7"/><path fill="#236b83" d="M862 484c7.302-2.683 32.274 10.841 35 2.5 2.101-6.428-3.319-12.714-8-16.5-7.592-6.139-21.677-10.072-31-11.5 1.225 2.336.865 4.102 1 6.5h-2c2.143-9.311-8.592-11.497-5-1-.907-.105-1.1 1.12-2 1-.136-.592.14-1.412 0-2-.502-2.114-1.399-3.983-2-6-.341-1.144.318-2.554-1-4 15.792 3.134 49.818 6.077 56 23.5 9.158 25.809-21.737 41.766-43 42 2.493-11.191 2.519-23.121 2-34.5"/><path fill="#cdfafb" d="M189 457c.321.107.758-.126 1 0l-21 8c.83-2.797 1.586-6.537 3-9 5.057-.483 12.252-.587 17 1"/><path fill="#17354f" d="m564 482-2 1c-16.244-22.106-50.654-30.978-75-18-.425-.389-2.248-1.522-3-2 25.688-16.772 62.812-6.569 80 19"/><path fill="#cffbfd" d="M848 457c.601 2.017 1.498 3.886 2 6-6.908 2.435-16.235-2.559-23-5 4.517-3.831 14.986-1.807 21-1"/><path fill="#2994b1" d="M166.5 457c6.142.482-.013 10.344-4 8-.617-.363.057-8.31 4-8"/><path fill="#50b1cc" d="M191 479c-4.687 6.329-18.229.914-26 4 .864-5.16 2.524-13.024 4-18l21-8c5.981 3.114 4.308 17.534 1 22"/><path fill="#2b99b8" d="M857 465c-2.604 0-3.655-.845-5-1-3.592-10.497 7.143-8.311 5 1"/><path fill="#d7fcfe" d="m160 467-31 4c2.114-2.09 4.377-3.602 7-5 6.584-3.51 16.418-5.233 23.5-8 3.045 1.16.732 6.899.5 9"/><path fill="#50b4cf" d="M850 463c.14.588-.136 1.408 0 2 1.292 5.628 3.109 11.263 4 17-9.48-.991-27.245 4.361-30-9-.754-3.654-.048-12.415 3-15 6.765 2.441 16.092 7.435 23 5"/><path fill="#cefbfd" d="m889 470-29-3c-.01-.111-.859.514-1-2-.135-2.398.225-4.164-1-6.5 9.323 1.428 23.408 5.361 31 11.5"/><path fill="#fefefe" d="M476 460c.656.131 2.033.692 3 1 .665.212 4.773 1.856 5 2 .752.478 2.575 1.611 3 2 22.773 20.835-3.045 59.37-34 57-.331-.025-.674.042-1 0-.759-.098-7.856-2.493-9-3-.648-.287-7.666-4.667-8-5-4.293-4.288-8.352-17.088-8-23 1.357-22.818 28.463-35.104 49-31"/><path fill="url(#c)" d="M562 483c3.902 5.31 10.113 18.092 11 24.5 1.336 9.658-1.271 36.155-10 42.5-1.574 1.144-4.281-1.716-9 5-2.525 3.593-1.806 5.75-2 6-6.077 7.827-21.853 14.97-31.5 16-34.757 3.712-63.028-21.225-67.5-55 30.955 2.37 56.773-36.165 34-57 24.346-12.978 58.756-4.106 75 18" style="fill:url(#c)"/>/&gt;<path fill="#246e86" d="M136 466c-2.623 1.398-4.886 2.91-7 5-5.136 5.079-11.048 16.887-.5 19 6.372 1.277 21.425-8.219 29.5-6-.54 12.44-1.21 23.503.5 36-20.592-4.694-50.374-15.11-42.5-42.5 2.006-6.977 20.622-23.979 20-11.5"/><path fill="#58bed5" d="M395 495c-.507-4.817.27-9.286 1-14 .476-3.07 1.212-6.011 2-9 1.098-.701.94-.963 1-1 4.084-2.551 7.578-5.836 12-8z"/><path fill="#51b5d0" d="M160 467c-.666 6.032-1.718 10.507-2 17-8.075-2.219-23.128 7.277-29.5 6-10.548-2.113-4.636-13.921.5-19zm729 3c4.681 3.786 10.101 10.072 8 16.5-2.726 8.341-27.698-5.183-35-2.5-.221-4.848-1.507-11.585-2-17z"/><path fill="#00365e" d="M640 476c4.888 13.291 6.852 19.635 8 34l-13-7c-.183-1.799-.886-2.134-1-3-1.361-10.326-3.275-20.496-8-30 3.816 1.91 9.947 3.475 14 6"/><path fill="#054d76" d="M398 472c-.788 2.989-1.524 5.93-2 9-3.077-.998-4.482 4.711-5 6.5-1.389 4.794-2.438 13.344-3 18.5-.193 1.766-.944 2.25-1 3l-11 5c.295-7.141 3.003-31.47 8-36 1.535-1.392 11.235-4.235 14-6"/><path fill="url(#d)" d="M611 488c1.187 13.663 4.432 23.844 4 38-.06 1.969.187 4.051 0 6-.356 3.706-1.779 10.998-3 14.5-1.104 3.168-3.264 1.174-4 3-11.686 29.005-27.258 51.626-57 65.5-8.639 4.03-21.006 8.18-30.5 9-7.505.648-52.585-1.359-54.5-8.5-.479-1.786 2.035-5.686 2-6-.2-1.789-24.124-15.481-29-20.5-15.863-16.327-25.833-48.503-24-71 5.938.865 15.208.106 20-4 .334.333 7.352 4.713 8 5 1.487 63.281 81.444 90.604 121 41 .055-.045.616-.635 1-1 5.719-5.435 10.942-16.521 13-24 5.793-21.052 2.671-42.566-11-60 15.78.829 29.993 6.552 44 13" style="fill:url(#d)"/>/&gt;<path fill="#74a8ba" d="M272 497c-8.799 32.991-14.522 95.858-5 128.5.421 1.444 2.933 5.194 3 5.5.042.191 2.08-.273 3 2.5 2.921 8.803 3.678 29.939 6 41 1.064 5.069 10.337 30.358 10 32-.657 3.196-19.761 11.122-11 26.5l-8 8c-21.555-29.683-40.49-66.739-51-102 2.652-1.997 2.118-5.648 2-8.5-1.186-28.59-3.576-59.155-2-87.5l13 4.5c2.185-24.58 7.885-48.805 17.5-71.5 5.391-2.266 14.803 22.993 22.5 21"/><path fill="#27758c" d="m191 498-27-1c.405-4.646.207-9.268 1-14 7.771-3.086 21.313 2.329 26-4 5.788 5.518.534 12.99 0 19"/><path fill="#3095ab" d="M396 481c-.73 4.714-1.507 9.183-1 14 .192 1.822 1.304 6.343 2 8 2.015 4.797 6.276 6.891 9 11-4.703-2.236-6.093-7.134-11-6-.026-.847 2.166-2.451.5-4l-7.5 2c.562-5.156 1.611-13.706 3-18.5.518-1.789 1.923-7.498 5-6.5"/><path fill="#78808d" d="M721 586c-15.784-25.934-44.017-50.819-67-70.5l-2-7.5c-.682-9.238-3.16-18.243-6-27 27.974 15.69 75.173 69.766 78 101.5.198 2.221.879 6.162-3 3.5"/><path fill="#abacae" d="M371 518c-27.577 18.113-53.475 41.697-69 71-.94-.662-.943-.958-1-1 6.701-43.415 40.9-81.766 76-106-3.292 11.008-5.786 24.475-6 36"/><path fill="#215f79" d="M564 482c3.709 5.517 6.02 11.608 9 17.5l5 35.5c-2.058 7.479-7.281 18.565-13 24l-2-9c8.729-6.345 11.336-32.842 10-42.5-.887-6.408-7.098-19.19-11-24.5z"/><path fill="#007cc2" d="M634 500c.114.866.817 1.201 1 3 .85 8.336.792 17.653 0 26-5.317-3.937-13.82-2.698-20-3 .432-14.156-2.813-24.337-4-38 8.003 3.684 15.462 7.466 23 12"/><path fill="#9dcfed" d="M427 491c-.352 5.912 3.707 18.712 8 23-4.792 4.106-14.062 4.865-20 4-.487-.071-7.672-3.369-9-4-2.724-4.109-6.985-6.203-9-11z"/><path fill="#102333" d="M710 497c1.795 1.742 8.058 11.159 10 14l6.5 12-23.5-28.5c1.633-2.744 5.595 1.137 7 2.5"/><path fill="#0c4259" d="M856 497c.38 4.888 2.472 20.638-.5 24-.924 1.045-24.913 6.976-27 7-3.425.039-3.309-1.936-3.5-2 1.787-7.922 1.305-18.049 0-26 .895-2.511 10.237-2.879 12.5-3 6.132-.329 12.37.24 18.5 0"/><path fill="#0065a0" d="M648 510c3.927 49.132-22.647 100.149-67 123-16.297 5.913-34.024 8.473-51.5 9-6.132.185-19.869 2.153-21.5-4 17.8.392 31.272-.93 48-7 39.375-14.288 71.668-53.592 78-95 .349-2.286.783-4.712 1-7 .792-8.347.85-17.664 0-26z"/><path fill="#1fe9fa" d="M395 508c1.052 34.311 3.102 64.319 27.5 91 .98.03 12.413-12.299 16.5-10 4.876 5.019 28.8 18.711 29 20.5.035.314-2.479 4.214-2 6 1.915 7.141 46.995 9.148 54.5 8.5 9.494-.82 21.861-4.97 30.5-9 3.507 4.408 9.529 10.547 5 16-16.728 6.07-30.2 7.392-48 7-71.062-1.565-126.42-56.478-121-129 .056-.75.807-1.234 1-3l7.5-2c1.666 1.549-.526 3.153-.5 4"/><path fill="#09b5e6" d="M406 514c1.328.631 8.513 3.929 9 4-1.833 22.497 8.137 54.673 24 71-4.087-2.299-15.52 10.03-16.5 10-24.398-26.681-26.448-56.689-27.5-91 4.907-1.134 6.297 3.764 11 6"/><path fill="url(#e)" d="M721 586c.535.88.819 3.781 2 5-8.386 5.797-24.782 13.02-34.5 17-33.011 13.521-70.379 22.613-105.5 28.5 46.53-27.378 73.046-73.663 69-128.5l2 7.5c22.983 19.681 51.216 44.566 67 70.5" style="fill:url(#e)"/>/&gt;<path fill="#29e9fb" d="M739 533c-.809 8.972 1.681 11.062 3 18 1.329 6.992 2.86 15.287 5 22-1.047 8.724 3.728 19.914 6 29l-9 2c-.169-3.469.932-7.735-2-10.5 3.53 22.2-7.937 43.394-10 64.5-5.508 4.107.078 12.382.5 17-9.451-7.517-4.345-19.352-.5-28.5-6.888 6.05-8.829 22.626-4 31 3.832 6.646 23.519 13.036 22 15-2.731 3.53-17.679-6.745-20-9.5-8.162-9.689-6.901-21.276-4-33 1.341-5.418 7.255-15.355 9-22.5 8.709-35.655 1.703-46.48-2-79.5-.468-4.171-1.018-7.705-1-12 .04-9.37.086-22.974 9.5-28 8.141-.243-2.049 19.995-2.5 25"/><path fill="#027db5" d="M387 509c-5.42 72.522 49.938 127.435 121 129 1.631 6.153 15.368 4.185 21.5 4 17.476-.527 35.203-3.087 51.5-9-32.02 16.497-109.441 14.463-141.5-3-40.932-22.296-65.402-69.924-63.5-116Z"/><path fill="#163141" d="m730 524-8-14c4.111.664 7.23 10.753 8 14"/><path fill="url(#f)" d="M302 589c15.525-29.303 41.423-52.887 69-71-.921 49.664 27.926 92.251 69 117.5-42.585-9.242-102.09-21.219-138-46.5" style="fill:url(#f)"/>/&gt;<path fill="#09486e" d="M452 522c-4.964 1.132-1.988 10.756-1 14.5 11.107 42.075 69.395 61.466 101.5 32.5 4.238-3.824 4.745-4.525-.5-8 .194-.25-.525-2.407 2-6 .232 9.992 2.897 10.804 10 5-39.556 49.604-119.513 22.281-121-41 1.144.507 8.241 2.902 9 3"/><path fill="#226984" d="M552 561c5.245 3.475 4.738 4.176.5 8-32.105 28.966-90.393 9.575-101.5-32.5-.988-3.744-3.964-13.368 1-14.5.326.042.669-.025 1 0 4.472 33.775 32.743 58.712 67.5 55 9.647-1.03 25.423-8.173 31.5-16"/><path fill="#0291d2" d="M635 529c-.217 2.288-.651 4.714-1 7-4.772-4-12.956-3.717-19-4 .187-1.949-.06-4.031 0-6 6.18.302 14.683-.937 20 3"/><path fill="#09b5e6" d="M634 536c-6.332 41.408-38.625 80.712-78 95 4.529-5.453-1.493-11.592-5-16 29.742-13.874 45.314-36.495 57-65.5.736-1.826 2.896.168 4-3 1.221-3.502 2.644-10.794 3-14.5 6.044.283 14.228 0 19 4"/><path fill="#3c708b" d="M760 551c-1.979 1.088-3.812 3.16-5 5-3.035-.181-11.176-9.614-13-5-1.319-6.938-3.809-9.028-3-18 .458 12.484 17.025 8.825 21 18"/><path fill="#184557" d="M279 555c.093-.305-.103-.704 0-1 2.093-6.017 5.056-15.49 13-15.5-7.008 3.377-8.049 11.258-13 16.5"/><path fill="#88c2d3" d="M276 540c-5.718.977-2.399 19.578 3 14-.103.296.093.695 0 1-2.582 8.472-5.376 26.547-1 34.5 3.146 5.718 37.484 27.189 45 31.5l23 14c-.124-.053-.273 1.948-2.5 1-7.769-3.308-16.173-8.4-23-13-2.086-.383-.899 1.683-.5 2.5 6.607 13.539 89.487 44.438 105.5 49.5 5.613 1.774 6.235 1.665 8.5-3 52.388 14.683 99.997 12.013 148.5 4 7.027 5.387-25.575 38.958-20.5 47-33.943-10.461-128.487-11.823-132 37.5-.047.654-.098 16.106 3 11.5 1.739 15.01 19.147 38.413 29 50-2.565 3.077-10.981 18.295-8.5 21 .741.809 7.012-.131 6.5 3-57.152-9.84-152.683-61.536-182-113-8.761-15.378 10.343-23.304 11-26.5.337-1.642-8.936-26.931-10-32-2.322-11.061-3.079-32.197-6-41-.92-2.773-2.958-2.309-3-2.5-.702-23.965 5.23-52.159 4-75.5-.034-.652-4.084-10-4-11 .561-6.689 3.456-3.518 6-4.5m119 164c-4.924 2.674-3.35 2.821-4 8-1.059 8.439.259 16.373-2 25.5-2.974 12.016-11.551 20.028-14 33.5-.052.288-3.307 1.271-2 5.5.952 2.372 5.014 3.651 6 4.5 14.815 12.756 34.17 10.936 37-10.5 3.182-24.1-14.295-46.476-20.5-68.5-.891.393-.358 1.923-.5 2"/><path fill="#1c5379" d="M733 548c3.703 33.02 10.709 43.845 2 79.5-1.745 7.145-7.659 17.082-9 22.5 3.985-15.934 9.732-28.927 11-46 .46-6.192-.657-14.483-1-19-1.134-14.92-2.085-22.798-7-37z"/><path fill="#25425d" d="M755 556c-2.265 3.508-6.29 10.708-6.5 15l11.5-19c2.568 10.16-6.471 18.355-9 27.5 8.874 13.433 11.99 29.783 19 44 .152.308 3.178 1.368 4 3 3.921 7.788 16.798 26.969 16 35-.863 8.687-13.856 20.661-18 27-11.362 17.381-10.859 39.804-36 11-16.564-18.977-15.801-26.305-10-49.5-2.901 11.724-4.162 23.311 4 33 3.359 10.826 21.885 15.2 31.5 11 5.677-2.48 6.16-6.595 7.5-9 1.396-2.506 1.2-2.446 2-5 12.328-39.38-12.564-71.122-24-107-2.14-6.713-3.671-15.008-5-22 1.824-4.614 9.965 4.819 13 5"/><path fill="#fcfdfd" d="m563 550 2 9c-.384.365-.945.955-1 1-7.103 5.804-9.768 4.992-10-5 4.719-6.716 7.426-3.856 9-5"/><path fill="#0d1a27" d="m760 552-11.5 19c.21-4.292 4.235-11.492 6.5-15 1.188-1.84 3.021-3.912 5-5 .11.254-.085.664 0 1"/><path fill="#08384a" d="M219 639c10.51 35.261 29.445 72.317 51 102 46.113 63.502 119.267 115.186 198 127 18.606 2.792 37.107 3.922 56 3l-9 2.5 7 1.5c-164.578 6.009-307.177-138.93-319-299 6.692 2.273.469-14.323 4-17 .526 28.059 4.02 53.228 12 80"/><path fill="#02b5ec" d="m771 680-17 11.5c.096 5.84 13.884-4.924 15-6.5-1.34 2.405-1.823 6.52-7.5 9-9.615 4.2-28.141-.174-31.5-11 2.321 2.755 17.269 13.03 20 9.5 1.519-1.964-18.168-8.354-22-15-4.829-8.374-2.888-24.95 4-31-3.845 9.148-8.951 20.983.5 28.5-.422-4.618-6.008-12.893-.5-17-.681 6.969-1.505 10.884 5 16 7.924 6.232 15.323 1.921 20-6.5 9.799-17.642.677-46.796-4-65.5-2.272-9.086-7.047-20.276-6-29 11.436 35.878 36.328 67.62 24 107"/><path fill="#5c96ab" d="M737 604c-2.174-.816-2.845.967-3 1-8.628 1.856-36.047 19.408-48 25-18.609 8.706-37.325 16.274-57 22-7.261 2.113-61.133 15.128-63 12.5-.421-.592.464-7.485-1-9.5 16.058-1.935 33.337-5.932 49-10 33.074-8.59 43.611-16.592 72-32 16.798-9.117 35.14-15.903 50-28 .343 4.517 1.46 12.808 1 19"/><path fill="#c2f9fc" d="M544 645c6.74 2.413-1.123 9.609 7 11-87.042 7.58-182.757-5.409-251-63 58.174 38.577 175.297 57.61 244 52"/><path fill="#edfdfd" d="M744 604c1.151 23.69-7.8 46.7-7 70-6.505-5.116-5.681-9.031-5-16 2.063-21.106 13.53-42.3 10-64.5 2.932 2.765 1.831 7.031 2 10.5"/><path fill="#88eefb" d="M753 602c4.677 18.704 13.799 47.858 4 65.5-4.677 8.421-12.076 12.732-20 6.5-.8-23.3 8.151-46.31 7-70z"/><path fill="#305364" d="M734 605c-12.687 14.913-30.888 24.123-48 33l-1-6c.249-.143 2.993-1.993 1-2 11.953-5.592 39.372-23.144 48-25"/><path fill="#74b5c6" d="M686 613c-28.389 15.408-38.926 23.41-72 32-2.503-6.034 10.381-8.051 14.5-10 1.468-.694 1.436-2.755 2-3 8.409-3.651 20.652-3.904 27.5-10 9.288-2.981 18.218-7.677 28-9"/><path fill="#2e6270" d="M323 621c24.552 14.083 57.832 29.17 85 37l-1 1c-7.274-2.23-16.741-4.951-25-8-12.32-4.549-23.943-10.85-36-16z"/><path fill="#9de2ed" d="M658 622c-6.848 6.096-19.091 6.349-27.5 10-.564.245-.532 2.306-2 3-4.119 1.949-17.003 3.966-14.5 10-15.663 4.068-32.942 8.065-49 10-4.515.544-9.433.602-14 1-8.123-1.391-.26-8.587-7-11 38.029-3.106 77.762-11.37 114-23"/><path fill="#8ac0cb" d="M346 635c12.057 5.15 23.68 11.451 36 16 13.359 9.779 35.593 16.402 52 21-2.265 4.665-2.887 4.774-8.5 3-16.013-5.062-98.893-35.961-105.5-49.5-.399-.817-1.586-2.883.5-2.5 6.827 4.6 15.231 9.692 23 13 2.227.948 2.376-1.053 2.5-1"/><path fill="#0c2d33" d="M686 630c1.993.007-.751 1.857-1 2-27.839 15.932-59.761 26.755-91 34-67.008 15.54-121.663 13.033-187-7l1-1c69.801 20.118 153.093 19.358 221-6 19.675-5.726 38.391-13.294 57-22"/><path fill="#5d8b99" d="m685 632 1 6c-17.733 9.199-40.162 19.64-59 26-3.765 1.271-29.161 9.858-30.5 9-.838-.537-.061-5.484-2.5-7 31.239-7.245 63.161-18.068 91-34"/><path fill="#74a9b9" d="M407 659c65.337 20.033 119.992 22.54 187 7 2.439 1.516 1.662 6.463 2.5 7 1.339.858 26.735-7.729 30.5-9 4.152 7.065 1.541 15.588-1 22.5-6.505 17.699-27.751 35.48-35 53.5-3.124-3.71-16.228-11.805-21-14-2.909-1.338-4.952-2.061-8-3-5.075-8.042 27.527-41.613 20.5-47-48.503 8.013-96.112 10.683-148.5-4-16.407-4.598-38.641-11.221-52-21 8.259 3.049 17.726 5.77 25 8"/><path fill="#c5f8fb" d="M771 680c-.8 2.554-.604 2.494-2 5-1.116 1.576-14.904 12.34-15 6.5z"/><path fill="#0d5fb1" d="m379 781-4-10c2.449-13.472 11.026-21.484 14-33.5 2.259-9.127.941-17.061 2-25.5 3.305.824 2.231 10.242 2 12.5-1.855 18.116-12.066 27.907-15 41.5-1.853 8.587-1.06 6.164 3 12 5.782 8.312 6.754 7.257 15 8 .104.009 1.9.009 2 0 8.339-.748 8.491 1.48 13-8 10.011-21.046-4.336-41.669-12-61-1.678-4.232-3.079-8.531-4-13 .142-.077-.391-1.607.5-2 6.205 22.024 23.682 44.4 20.5 68.5-2.83 21.436-22.185 23.256-37 10.5"/><path fill="#66effc" d="M395 704c.921 4.469 2.322 8.768 4 13 .244 15.695 8.535 30.401 4 46.5-3.674 13.043-20.154 16.145-20.5.5v8l-4.5-6c2.934-13.593 13.145-23.384 15-41.5.231-2.258 1.305-11.676-2-12.5.65-5.179-.924-5.326 4-8m-.5 27c-1.604 5.647-2.621 11.976-4.5 17.5-2.491 7.325-7.954 9.233-3.5 18.5.794-2.635 11.265-35.909 8-36"/><path fill="#01b0e9" d="m411 778-13 8c-.1.009-1.896.009-2 0l-15-8c-4.06-5.836-4.853-3.413-3-12l4.5 6v-8c.346 15.645 16.826 12.543 20.5-.5 4.535-16.099-3.756-30.805-4-46.5 7.664 19.331 22.011 39.954 12 61"/><path fill="#e1f3f7" d="M562 723c3.048.939 5.091 1.662 8 3l-2 4c-30.675-14.406-77.255-14.911-107.5 1-18.052 9.497-30.03 19.157-27.5 41-3.098 4.606-3.047-10.846-3-11.5 3.513-49.323 98.057-47.961 132-37.5"/><path fill="url(#g)" d="M568 730c30.186 14.177 32.074 30.394 18 59-10.761 21.872-34.217 44.647-53 60-14.677.604-29.362-.152-44-1-9.523-7.923-18.976-16.564-27-26-9.853-11.587-27.261-34.99-29-50-2.53-21.843 9.448-31.503 27.5-41 30.245-15.911 76.825-15.406 107.5-1m-64.5 13c-49.169 5.715-51.47 72.94-1 79 71.982 8.643 71.063-87.144 1-79" style="fill:url(#g)"/>/&gt;<path fill="#a5ccd7" d="M591 740c12.298 14.607 6.478 35.883-5 49 14.074-28.606 12.186-44.823-18-59l2-4c4.772 2.195 17.876 10.29 21 14"/><path fill="#effdfd" d="M394.5 731c3.265.091-7.206 33.365-8 36-4.454-9.267 1.009-11.175 3.5-18.5 1.879-5.524 2.896-11.853 4.5-17.5"/><path fill="#3499ab" d="M460 846c4.199.723 8.793 1.542 13 2-2.557 5.718.81 16.599-5 20-78.733-11.814-151.887-63.498-198-127l8-8c29.317 51.464 124.848 103.16 182 113"/><path fill="#04171c" d="M503.5 743c70.063-8.144 70.982 87.643-1 79-50.47-6.06-48.169-73.285 1-79M471 793c2.496 7.531 9.944 14.453 17 18 10.046 8.906 23.382 7.795 35 5 18.828-4.53 32.147-21.125 29-41-6.97-44.028-97.59-32.056-81 18"/><path fill="#d8ecf1" d="m552 775-2 1.5c-14.085-44.139-80.36-30.306-79 16.5-16.59-50.056 74.03-62.028 81-18"/><path fill="#3e94b1" d="M552 775c3.147 19.875-10.172 36.47-29 41l-2-1c.76-.194 12.901-7.493 13.5-8 8.224-6.968 16.431-18.913 12-30-4.792 31.446-40.383 44.721-63 21 .426 2.818 2.963 6.123 5 8 3.25 2.994 16.384 6.449 12.5 9-2.026-.317-11.447-3.219-13-4-7.056-3.547-14.504-10.469-17-18-1.36-46.806 64.915-60.639 79-16.5zm-66 1c-6.663 34.323 38.841 36.171 46 10.5 1.077-3.862.704-17.475 0-21.5-3.069-17.535-37.453-14.514-46 1.5-.325.609-3.635 9.67 0 9.5"/><path fill="#3685a2" d="M532 765c-13.317-16.592-41.974-9.737-46 11-3.635.17-.325-8.891 0-9.5 8.547-16.014 42.931-19.035 46-1.5"/><path fill="#75c7dc" d="M532 765c.704 4.025 1.077 17.638 0 21.5-7.159 25.671-52.663 23.823-46-10.5 4.026-20.737 32.683-27.592 46-11m-22.5-7c-10.408.769-22.722 12.642-21 24 6.401-13.231 15.951-22.183 31.5-21.5-2.254-1.831-7.752-2.703-10.5-2.5"/><path fill="#f5fcfd" d="M509.5 758c2.748-.203 8.246.669 10.5 2.5-15.549-.683-25.099 8.269-31.5 21.5-1.722-11.358 10.592-23.231 21-24"/><path fill="#31a7ce" d="M379 781c-.986-.849-5.048-2.128-6-4.5-1.307-4.229 1.948-5.212 2-5.5z"/><path fill="#1e789c" d="M521 815c-6.976 1.783-13.042 1.088-20 0 3.884-2.551-9.25-6.006-12.5-9-2.037-1.877-4.574-5.182-5-8 22.617 23.721 58.208 10.446 63-21 4.431 11.087-3.776 23.032-12 30-.599.507-12.74 7.806-13.5 8"/><path fill="#7ef5f8" d="M396 786c-8.246-.743-9.218.312-15-8z"/><path fill="#a5f7f4" d="M411 778c-4.509 9.48-4.661 7.252-13 8z"/><path fill="#a0d1d8" d="M501 815c6.958 1.088 13.024 1.783 20 0l2 1c-11.618 2.795-24.954 3.906-35-5 1.553.781 10.974 3.683 13 4"/><path fill="#74a8ba" d="M489 848c-4.677-.271-9.999.653-16 0-4.207-.458-8.801-1.277-13-2 .512-3.131-5.759-2.191-6.5-3-2.481-2.705 5.935-17.923 8.5-21 8.024 9.436 17.477 18.077 27 26"/><path fill="#1d6880" d="M637 843c-34.301 16.503-74.776 26.135-113 28-18.893.922-37.394-.208-56-3 5.81-3.401 2.443-14.282 5-20 6.001.653 11.323-.271 16 0 14.638.848 29.323 1.604 44 1 33.929-1.396 67.743-9.485 98.5-24z"/></svg>