<svg xmlns="http://www.w3.org/2000/svg" width="1024" height="1024"><defs><linearGradient id="a" x1="281.039" x2="742.014" y1="338.481" y2="539.754" gradientUnits="userSpaceOnUse"><stop offset="18.29%" style="stop-color:#c8e0e5"/><stop offset="67.793%" style="stop-color:#8cb8c8"/><stop offset="78.33%" style="stop-color:#80aebf"/><stop offset="100%" style="stop-color:#58879f"/></linearGradient></defs><defs><linearGradient id="b" x1="553.404" x2="468.009" y1="242.551" y2="565.45" gradientUnits="userSpaceOnUse"><stop offset="0%" style="stop-color:#0b4c68"/><stop offset="84.431%" style="stop-color:#02a8cf"/></linearGradient></defs><defs><linearGradient id="c" x1="522.783" x2="496.244" y1="325.051" y2="479.791" gradientUnits="userSpaceOnUse"><stop offset="0%" style="stop-color:#063b5b"/><stop offset="100%" style="stop-color:#075579"/></linearGradient></defs><defs><linearGradient id="d" x1="778.591" x2="644.832" y1="527.446" y2="640.289" gradientUnits="userSpaceOnUse"><stop offset="0%" style="stop-color:#5e7e8b"/><stop offset="100%" style="stop-color:#395b6e"/></linearGradient></defs><defs><linearGradient id="e" x1="812.016" x2="816.45" y1="474.475" y2="526.286" gradientUnits="userSpaceOnUse"><stop offset="0%" style="stop-color:#4da1b5"/><stop offset="100%" style="stop-color:#2e8399"/></linearGradient></defs><defs><linearGradient id="f" x1="281.955" x2="353.016" y1="493.537" y2="690.085" gradientUnits="userSpaceOnUse"><stop offset="0%" style="stop-color:#e2edf1"/><stop offset="100%" style="stop-color:#bad5df"/></linearGradient></defs><defs><linearGradient id="g" x1="529.648" x2="673.502" y1="818.235" y2="824.727" gradientUnits="userSpaceOnUse"><stop offset="0%" style="stop-color:#5a8094"/><stop offset="100%" style="stop-color:#325c73"/></linearGradient></defs><path fill="#066685" d="m615 167-2 4c-25.461-10.096-51.725-15.582-79-18-45.738-4.055-77.239.046-120 16-80.144 29.901-137.361 90.749-159 174l-4 1.5c2.608-4.863 3.219-6.221-3-5.5 43.547-157.301 217.325-234.971 367-172"/><path fill="url(#a)" d="M534 153c41.653 17.011 80.707 41.913 111 75.5 5.247 5.817 12.933 14.204 15 21.5-181.011-181.476-478.93 48.204-319 279 4.038 5.827 7.602 12.473 12 18 29.894 37.562 64.421 59.153 112 69 64.162 13.06 137.325 2.765 188.5-40 25.446-21.264 42.34-47.984 60.5-75 2.616-3.892 6.231-7.456 8-12-2.236 11.404.285 34.761-1 48.5-4.837 51.704-15.15 110.982-35 159-.852 2.062-3.308 8.403-6 8.5-43.305-24.738-65.701-78.83-123.5-72-20.226 2.39-38.987 15.652-46 35-8.392-23.393-28.43-33.131-52-36l-12.5 1.5 23.5 2.5-1 3c5.5 1.918 15.406 5.56 17 12-17.283-11.042-33.054-17.453-53.5-10-1.581.576.795.507-2 2-5.731-2.406-9.769 5.748-16 3.5l7.5-5.5c-20.556 9.186-35.947 28.378-53.5 43l-37 22.5c-19.477-75.177-26.74-153.068-32.5-230.5L269 488.5l24 166-18 6.5c-22.542-82.425-28.071-235.502-5-317.5 27.948-99.333 107.5-165.43 208-184-20.044 1.475-43.073 6.683-62 13.5 3.112-1.752 1.178-3.458-2-4 42.761-15.954 74.262-20.055 120-16" style="fill:url(#a)"/>/&gt;<path fill="#7fafbf" d="M613 171c4.946 1.961 9.294 4.784 14 7 13.075 11.265 26.808 21.709 39 34 25.383 25.588 43.362 52.64 55 87 4.714 13.919 7.544 23.204 9 38 1.339 13.606 2.673 40.328-1 53-.388 1.339 1.084 4.179-1.5 4-2.238-.003-5.392-32.942-6.5-37.5-4.401-18.107-15.153-42.658-25-59.5-10.171-17.396-21.763-32.727-36-47-2.067-7.296-9.753-15.683-15-21.5-30.293-33.587-69.347-58.489-111-75.5 27.275 2.418 53.539 7.904 79 18"/><path fill="#fcfdfd" d="M275 661c.263.96.981 1.163 1 2-.448.222-7.426 5.447-8 6-12.879-48.032-19.15-98.617-21-148.5-5.351-144.293 15.308-292.144 169-347.5 18.927-6.817 41.956-12.025 62-13.5-100.5 18.57-180.052 84.667-208 184-23.071 81.998-17.542 235.075 5 317.5"/><path fill="#062a3f" d="M756 309c-4.316 1.19-2.263-7.243-6-2-25.248-61.148-63.13-100.815-123-129-4.706-2.216-9.054-5.039-14-7l2-4c66.465 27.963 112.191 76.218 141 142"/><path fill="#b9dae5" d="M414 169c3.178.542 5.112 2.248 2 4-153.692 55.356-174.351 203.207-169 347.5 1.85 49.883 8.121 100.468 21 148.5-1.599 1.542-4.746 5.974-6 8-5.095-16.821-9.204-34.654-12-52-13.217-81.993-15.846-201.801 5-282 21.639-83.251 78.856-144.099 159-174"/><path fill="#659aa9" d="M750 307c36.621 88.693 34.245 221.623 20 316l-13-3c9.683-59.6 12.532-127.768 8-188-4.965-65.983-19.099-127.188-60-180-11.315-14.611-23.412-29.632-39-40-12.192-12.291-25.925-22.735-39-34 59.87 28.185 97.752 67.852 123 129"/><path fill="#0b7ba0" d="M660 250c14.237 14.273 25.829 29.604 36 47h-2c-2.7-4.793-5.923-9.44-9-14-21.536-31.919-51.054-57.691-86-74-171.319-79.954-347.369 90.688-285 264 3.35 14.452 20.755 41.8 30 54l-3 2C181.07 298.204 478.989 68.524 660 250"/><path fill="#dcecf1" d="M599 209v9c-145.151-70.114-300.999 43.794-290 200-.413 12.067 2.316 43.423 5 55-62.369-173.312 113.681-343.954 285-264"/><path fill="#53a0b1" d="M599 218c31.171 15.057 59.366 38.716 78 68 1.947 3.06 10.742 16.179 11 18.5.101.911-6.974 14.303-8 16.5-90.637-197.958-395.486-99.814-351 119-2.566-1.065-3.687-9.165-4-11.5-.659-4.91-.214-26.84-1-28-1.147-1.693-12.885-3.572-14-2 .903 6.504-.783 13.15-1 19.5-10.999-156.206 144.849-270.114 290-200"/><path fill="#9ed3e4" d="M685 283c-3.873-1.581-5.601-.344-8 3-18.634-29.284-46.829-52.943-78-68v-9c34.946 16.309 64.464 42.081 86 74"/><path fill="#395767" d="M705 252c-3.072.995-.91 2.713 0 4.5 6.446 12.661 18.131 28.174 16 42.5-11.638-34.36-29.617-61.412-55-87 15.588 10.368 27.685 25.389 39 40"/><path fill="#022843" d="M680 321c38.851 84.854 8.503 189.689-71.5 238-107.014 64.622-254.416 4.382-279.5-119-44.486-218.814 260.363-316.958 351-119M494.5 219c-208.638 15.366-224.672 339.437-4 362 263.063 26.898 267.234-381.387 4-362"/><path fill="url(#b)" d="M494.5 219c263.234-19.387 259.063 388.898-4 362-220.672-22.563-204.638-346.634 4-362M436 247c-33.736 15.599-62.391 43.019-75 78.5-10.818 30.441-6.953 55.99-6.5 87.5l4-22c12.125 24.543 37.334 29.583 62.5 25 8.77 73.913 105.094 101.373 154 46.5 51.438-57.713 8.71-146.578-66-149.5-1.731-39.215-23.711-49.962-57-59 39.578-22.905 91.456-22.189 133.5-6 3.277-.744-3.739-3.891-4-4-46.201-19.38-100.357-17.874-145.5 3m237 187c.242-4.91-1.462-15.125-2-20.5-9.563 40.398-29.423 79.112-60 107.5-6.873 6.381-14.168 11.847-22 17-31.018 20.41-62.543 29.291-100 27.5 8.809 2.467 20.354 1.86 29.5 1.5 78.421-3.088 158.147-64.918 159.5-147.5.138-8.425.257-23.793-6-29z" style="fill:url(#b)"/>/&gt;<path fill="#c1d9e2" d="M452 254c-4.809-1.306-11.79-2.058-16-7 45.143-20.874 99.299-22.38 145.5-3 .261.109 7.277 3.256 4 4-42.044-16.189-93.922-16.905-133.5 6"/><path fill="#bad7e4" d="M452 254c33.289 9.038 55.269 19.785 57 59 1.063 24.078-5.057 39.204-19 58l15-31.5 2.5-26.5c-53.227 2.802-94.392 47.578-87.5 101.5l36-12.5c-10.939 6.5-22.392 11.704-35 14-25.166 4.583-50.375-.457-62.5-25l-4 22c-.453-31.51-4.318-57.059 6.5-87.5 12.609-35.481 41.264-62.901 75-78.5 4.21 4.942 11.191 5.694 16 7"/><path fill="#456573" d="M765 432c-.829-.408-5.791.283-6 .5-3.863 4.022-12.269 24.167-17 31-5.263 7.601-18.632 18.523-20 25.5-1.769 4.544-5.384 8.108-8 12l8-51.5c-3.205 23.743-11.885 49.395-24 70-11.331 19.272-15.579 19.392-32 31.5-1.79-2.568-.882-2.165.5-4 23.553-31.29 47.745-60.531 50.5-102 11.425-51.994 2.868-102.083-23-148h2c9.847 16.842 20.599 41.393 25 59.5 1.108 4.558 4.262 37.497 6.5 37.5 2.584.179 1.112-2.661 1.5-4 4.666 3.185 9.744-13.826 10-16.5.546-5.709-1.702-17.105-3-23-.579-2.628-2.37-13.315-6-13.5-1.456-14.796-4.286-24.081-9-38 2.131-14.326-9.554-29.839-16-42.5-.91-1.787-3.072-3.505 0-4.5 40.901 52.812 55.035 114.017 60 180"/><path fill="#5fb7c6" d="M685 283c3.077 4.56 6.3 9.207 9 14 25.868 45.917 34.425 96.006 23 148-38.012 172.982-265.5 223.864-373 82-9.245-12.2-26.65-39.548-30-54-2.684-11.577-5.413-42.933-5-55 .217-6.35 1.903-12.996 1-19.5 1.115-1.572 12.853.307 14 2 .786 1.16.341 23.09 1 28 .313 2.335 1.434 10.435 4 11.5 25.084 123.382 172.486 183.622 279.5 119 80.003-48.311 110.351-153.146 71.5-238 1.026-2.197 8.101-15.589 8-16.5-.258-2.321-9.053-15.44-11-18.5 2.399-3.344 4.127-4.581 8-3m14.5 182C662.072 574.663 533.838 627.367 428 581.5c101.367 53.571 229.521-1.693 270-106z"/><path fill="#001227" d="M756 309a500 500 0 0 1 12 30c.512 1.411 1.974 6.903 3 10 1.738 5.248 3.436 9.531 5 15 4.052 14.164 7.956 28.369 10 43 4.234 30.313 4.525 61.399 4 92-.252 14.708-.847 28.354-2 43-1.796 22.805-6.128 45.267-8 68-.056.061-.362-.231-1 1-4.985 4.449-.3 18.35-10 15 .135-.849.747-1.327 1-3 14.245-94.377 16.621-227.307-20-316 3.737-5.243 1.684 3.19 6 2"/><path fill="#c2dae3" d="M490 371c-9.461 12.754-20.266 22.839-34 31l-36 12.5c-6.892-53.922 34.273-98.698 87.5-101.5l-2.5 26.5z"/><path fill="url(#c)" d="M421 416c12.608-2.296 24.061-7.5 35-14 13.734-8.161 24.539-18.246 34-31 13.943-18.796 20.063-33.922 19-58 74.71 2.922 117.438 91.787 66 149.5-48.906 54.873-145.23 27.413-154-46.5m119.5 18c-17.253 2.638-15.19 33.746 7 30 17.68-2.985 13.94-33.202-7-30" style="fill:url(#c)"/>/&gt;<path fill="#5b7883" d="M729 390c3.673-12.672 2.339-39.394 1-53 3.63.185 5.421 10.872 6 13.5 1.298 5.895 3.546 17.291 3 23-.256 2.674-5.334 19.685-10 16.5"/><path fill="#031e39" d="M255 343c-20.846 80.199-18.217 200.007-5 282-2.385-.513-4.712-1.132-7-2-8.264-3.134-40.114-15.753-45.5-20-17.674-13.936-21.924-128.168-20.5-152.5.961-16.423 8.659-71.491 17-84 2.19-3.284 49.68-26.999 54-27.5 6.219-.721 5.608.637 3 5.5zm-52 21c-6.678 4.656-5.687.606-10 10.5-16.736 38.394-15.856 116.894-11 158.5 1.269 10.873 9.235 60.038 15 66.5 5.803 6.505 35.141 14.538 43.5 20.5 1.587-1.236-.236-7.807-.5-10-1.887-15.681-5.316-31.169-7-47-2.862-26.903-4.817-53.892-5-81s1.184-50.213 5-77c1.984-13.927 5.229-27.281 8-41 .583-2.886 4.796-20.098 3.5-21-13.84 6.817-28.754 12.115-41.5 21"/><path fill="#04233b" d="M768 667h-7c3.525-13.703 5.779-27.038 8-41 9.7 3.35 5.015-10.551 10-15-.594 1.145-.977 5.893-1 7.5 1.287 2.049 42.225-16.831 44-19 4.985-6.094 13.723-54.278 15-64.5 1.195-9.567 2.525-21.471 3-31 1.992-39.988-.656-80.786-12-119-1.487-5.01-1.805-14.951-5.5-19-1.975-2.164-50.307-26.154-53-25l1.5 8c-1.026-3.097-2.488-8.589-3-10 11.835 4.462 52.507 19.77 58 29.5 5.035 8.918 12.519 46.613 14 58 7.433 57.148 1.125 118.042-15 173-5.054 7.343-46.31 19.474-49 25-2.07 14.238-4.68 28.531-8 42.5"/><path fill="#024b70" d="m828 385-52-21c-1.564-5.469-3.262-9.752-5-15l-1.5-8c2.693-1.154 51.025 22.836 53 25 3.695 4.049 4.013 13.99 5.5 19"/><path fill="#02bffb" d="m241 364-43 14c1.642-4.275 5.669-9.653 5-14 12.746-8.885 27.66-14.183 41.5-21 1.296.902-2.917 18.114-3.5 21"/><path fill="#fcfdfe" d="M203 364c.669 4.347-3.358 9.725-5 14-1.584 4.125-4.368 10.886-5 15-.254 1.658-1.698 6.149-.5 7l35.5-6c.907 6.258 1.4 12.164 1 18.5 2.042.822.428-12.781 4-7.5-3.816 26.787-5.183 49.893-5 77-2.556-3.292-2.97-14.435-3-18.5-.103-13.831 5.664-38.686 1-49.5-.482-1.118-1.645-5.599-2.5-6-1.641-.771-33.295 4.978-34.5 6.5-2.65 3.346-4.864 53.662-5 61.5-.324 18.717.04 37.396 2 56-.893.028-2.169 1.717-4 1-4.856-41.606-5.736-120.106 11-158.5 4.313-9.894 3.322-5.844 10-10.5"/><path fill="#a0e0fe" d="M241 364c-2.771 13.719-6.016 27.073-8 41-3.572-5.281-1.958 8.322-4 7.5.4-6.336-.093-12.242-1-18.5-.036-.249 2.381-3.176.5-5l-35.5 4c.632-4.114 3.416-10.875 5-15z"/><path fill="#bee0ed" d="M828 385c11.344 38.214 13.992 79.012 12 119l-2 5.5c-.5.977-1.888-.679-2-1-.538-1.534 1.189-27.193 1-32.5-.178-4.996-1.972-8.964-2-9.5-.509-9.83.765-18.676 0-27-.072-.783-1.925-.217-2-1-.259-2.7 1.207-3.969 1-6-.08-.786-1.922-.215-2-1-.465-4.683-.387-9.676-1-14.5-.751-5.912 2.584-14.011-5-17 .142-.926 2.062-4.262 2-4.5-.902-3.492-33.166-6.547-38.5-7.5-1.14.855-.18 4.529-.5 6-1.007 4.628-1.326 8.78-1 13.5l-2-.5c-2.044-14.631-5.948-28.836-10-43z"/><path fill="#d7edf6" d="M826 400c-9.328-3.676-26.701-4.379-37-6 .32-1.471-.64-5.145.5-6 5.334.953 37.598 4.008 38.5 7.5.062.238-1.858 3.574-2 4.5"/><path fill="#d6f0fc" d="m228 394-35.5 6c-1.198-.851.246-5.342.5-7l35.5-4c1.881 1.824-.536 4.751-.5 5"/><path fill="#55e0f9" d="m589 538 1.5 8c8.354-5.133 15.923-10.79 23.5-17 25.388-20.805 57.326-61.047 59-95l-1-43.5c6.257 5.207 6.138 20.575 6 29-1.353 82.582-81.079 144.412-159.5 147.5-9.146.36-20.691.967-29.5-1.5 37.457 1.791 68.982-7.09 100-27.5"/><path fill="#fcfdfe" d="M826 400c7.584 2.989 4.249 11.088 5 17-3.219-4.447-33.3-10.338-35.5-9-.453.275-3.208 8.749-3.5 10-2.825 12.121 1.088 35.956 1 50-.055 8.732-.746 17.7-1 26.5-.053 1.826 1.001 4.937-2 4.5.525-30.601.234-61.687-4-92l2 .5c-.326-4.72-.007-8.872 1-13.5 10.299 1.621 27.672 2.324 37 6"/><path fill="#b8eaff" d="m226 414-9 51-33 11c.136-7.838 2.35-58.154 5-61.5 1.205-1.522 32.859-7.271 34.5-6.5.855.401 2.018 4.882 2.5 6"/><path fill="#b1e8ff" d="M831 417c.613 4.824.535 9.817 1 14.5.078.785 1.92.214 2 1 .207 2.031-1.259 3.3-1 6 .075.783 1.928.217 2 1 .765 8.324-.509 17.17 0 27 .028.536 1.822 4.504 2 9.5l-38-13-7-45c.292-1.251 3.047-9.725 3.5-10 2.2-1.338 32.281 4.553 35.5 9"/><path fill="#1cb1d0" d="M673 434c-1.674 33.953-33.612 74.195-59 95 .106-3.484.697-6.485-3-8 30.577-28.388 50.437-67.102 60-107.5.538 5.375 2.242 15.59 2 20.5"/><path fill="#59b6d3" d="M228 482c.183 27.108 2.138 54.097 5 81-3.811-4.088-5.717-14.097-7-20-5.577-25.66-7.27-51.825-9-78l9-51c4.664 10.814-1.103 35.669-1 49.5.03 4.065.444 15.208 3 18.5"/><path fill="#66c3e3" d="M799 463c-4.441 1.672-4.433.077-6 5 .088-14.044-3.825-37.879-1-50z"/><path fill="url(#d)" d="M765 432c4.532 60.232 1.683 128.4-8 188-2.399 14.765-5.213 29.803-10 44-11.457-6.964-33.679-8.081-37 8.5-4.351 21.719 17.16 21.351 23.5 4.5 22.942 21.854-8.508 40.686-31 38-6.686-.799-16.555-6.604-22.5-10 2.692-.097 5.148-6.438 6-8.5 19.85-48.018 30.163-107.296 35-159 1.285-13.739-1.236-37.096 1-48.5 1.368-6.977 14.737-17.899 20-25.5 4.731-6.833 13.137-26.978 17-31 .209-.217 5.171-.908 6-.5" style="fill:url(#d)"/>/&gt;<path fill="#fefefe" d="M540.5 434c20.94-3.202 24.68 27.015 7 30-22.19 3.746-24.253-27.362-7-30"/><path fill="#175b75" d="M666 551c-52.31 38.57-86.988 62.994-156 62-59.953-.863-114.127-24.987-157-66-4.398-5.527-7.962-12.173-12-18l3-2c107.5 141.864 334.988 90.982 373-82-2.755 41.469-26.947 70.71-50.5 102-1.382 1.835-2.29 1.432-.5 4"/><path fill="#325667" d="M714 501c-18.16 27.016-35.054 53.736-60.5 75-51.175 42.765-124.338 53.06-188.5 40 6.526-1.47 41.265 6.297 44.5 4 1.128-.801.214-5.374.5-7 69.012.994 103.69-23.43 156-62 16.421-12.108 20.669-12.228 32-31.5 12.115-20.605 20.795-46.257 24-70z"/><path fill="url(#e)" d="M837 476c.189 5.307-1.538 30.966-1 32.5.112.321 1.5 1.977 2 1l2-5.5c-.475 9.529-1.805 21.433-3 31-1.881 1.059-2.924.053-4 0-15.596-.775-29.985 3.986-45 7 1.153-14.646 1.748-28.292 2-43 3.001.437 1.947-2.674 2-4.5.254-8.8.945-17.768 1-26.5 1.567-4.923 1.559-3.328 6-5z" style="fill:url(#e)"/>/&gt;<path fill="#0c9cdf" d="M217 465c1.73 26.175 3.423 52.34 9 78-11.112-3.296-27.68-10.506-39-11-.33-.014-.67-.01-1 0-1.96-18.604-2.324-37.283-2-56z"/><path fill="#3185a1" d="m699.5 465-1.5 10.5c-40.479 104.307-168.633 159.571-270 106 105.838 45.867 234.072-6.837 271.5-116.5"/><path fill="url(#f)" d="M368 684c-21.858 18.208-48.232 43.591-78 24l6-1.5c-2.94-8.034-2.212-17.326-8-24 .353-.86 2.022-.399 2-.5 13.048 16.068 29.171 2.493 19-14.5-6.83-11.411-23.098-9.399-33-4.5-.019-.837-.737-1.04-1-2l18-6.5-24-166 29.5-12.5c5.76 77.432 13.023 155.323 32.5 230.5z" style="fill:url(#f)"/>/&gt;<path fill="#32d4f1" d="M614 529c-7.577 6.21-15.146 11.867-23.5 17l-1.5-8c7.832-5.153 15.127-10.619 22-17 3.697 1.515 3.106 4.516 3 8"/><path fill="#1a8daa" d="M187 532c1.071 11.472 5.744 52.681 12 60.5 3.252 4.065 34.174 15.138 41 17.5.264 2.193 2.087 8.764.5 10-8.359-5.962-37.697-13.995-43.5-20.5-5.765-6.462-13.731-55.627-15-66.5 1.831.717 3.107-.972 4-1 .33-.01.67-.014 1 0"/><path fill="#075f7d" d="M226 543c1.283 5.903 3.189 15.912 7 20 1.684 15.831 5.113 31.319 7 47-6.826-2.362-37.748-13.435-41-17.5-6.256-7.819-10.929-49.028-12-60.5 11.32.494 27.888 7.704 39 11"/><path fill="#004460" d="M833 535c-3.954 12.135-6.187 47.318-13 56.5-4.753 6.405-35.091 13.162-40 18.5 1.872-22.733 6.204-45.195 8-68 15.015-3.014 29.404-7.775 45-7"/><path fill="#066f94" d="M837 535c-1.277 10.222-10.015 58.406-15 64.5-1.775 2.169-42.713 21.049-44 19 .023-1.607.406-6.355 1-7.5.638-1.231.944-.939 1-1 4.909-5.338 35.247-12.095 40-18.5 6.813-9.182 9.046-44.365 13-56.5 1.076.053 2.119 1.059 4 0"/><path fill="#486d7b" d="M510 613c-.286 1.626.628 6.199-.5 7-3.235 2.297-37.974-5.47-44.5-4-47.579-9.847-82.106-31.438-112-69 42.873 41.013 97.047 65.137 157 66"/><path fill="#4d8293" d="M770 623c-.253 1.673-.865 2.151-1 3-2.221 13.962-4.475 27.297-8 41-.716 2.781-.164 6.089-3 8-1.477-2.074-9.175-9.891-11-11 4.787-14.197 7.601-29.235 10-44z"/><path fill="#056584" d="M250 625c2.796 17.346 6.905 35.179 12 52-.665 1.074-4.837 8.512-5 9l-14-63c2.288.868 4.615 1.487 7 2"/><path fill="#0c1b31" d="M680 705c5.945 3.396 15.814 9.201 22.5 10 22.492 2.686 53.942-16.146 31-38-6.34 16.851-27.851 17.219-23.5-4.5 3.321-16.581 25.543-15.464 37-8.5 1.825 1.109 9.523 8.926 11 11 1.588 2.231 4.013 6.465 5 9 15.343 39.389-6.013 50.464-21 77.5-5.262 9.492-6.354 22.269-13 33.5-1.111-.011-6.723 4.671-7 5l11-30.5c-6.065 2.832-16.594 7.209-19 12.5-.9.874-2.743.838-3 1l1.5-4c-4.955 1.717-10.859 4.22-16 5-29.254 4.437-77.536 7.495-105.5-1-6.134-1.863-20.423-8.603-26-12-12.826-7.812-32.385-25.91-43-37l8.5 7c-4.694-14.539-16.995-27.639-20-44L487 745c-9.946 9.234-20.666 20.198-32.5 27-42.29 24.307-90.218 15.386-136.5 11-9.91-5.201-18.738-7.277-29-14-3.141-2.058-6.259-5.725-10-6-13.339-27.336-35.225-37.466-22-77 .163-.488 4.335-7.926 5-9 1.254-2.026 4.401-6.458 6-8 .574-.553 7.552-5.778 8-6 9.902-4.899 26.17-6.911 33 4.5 10.171 16.993-5.952 30.568-19 14.5-.213-.975-1.11-4.844-1.5-5-13.462 10.802-12.682 21.667 1.5 31 29.768 19.591 56.142-5.792 78-24 17.553-14.622 32.944-33.814 53.5-43l-7.5 5.5c6.231 2.248 10.269-5.906 16-3.5-2.527 1.35-8.898 3.718-10.5 5-1.67 1.337 3.287 4.335-2.5 4-.46-.58 1.673-1.35.5-2-2.489.626-3.675 1.816-.5 2 .426.538-1.76 1.591-.5 2 14.886-4.113 28.368-12.914 45-8l-9.5-4.5 9.5.5c-8.688-6.766-19.819-.51-29.5-1 20.446-7.453 36.217-1.042 53.5 10-1.594-6.44-11.5-10.082-17-12l1-3-23.5-2.5 12.5-1.5c23.57 2.869 43.608 12.607 52 36 7.013-19.348 25.774-32.61 46-35 57.799-6.83 80.195 47.262 123.5 72m-140-53c-10.056 5.17-14.958 12.826-20 22.5 5.304-1.008 9.269-7.326 13.5-9.5.669-.344 13.748-3.976 14.5-4 20.12-.639 35.613 6.477 53 15l-1 3c-13.515-8.243-29.346-14.27-45.5-13-1.288.101-13.69 2.352-9 5 .86-.707 8.72.644 9 1 1.405 1.781-2.159 2.627 1 5 30.181 22.671 62.182 56.991 98 70 53.653 19.487 124.229-3.669 97-71 6.501 7.71 8.19 15.185 8.5 25 .049 1.539 2.028.732 2 1.5-.028.766-1.938.226-2 1-5.434 67.762-84.7 61.951-129.5 35.5-28.083-16.581-54.72-54.107-83-61-4.887-1.191 1.516-3.049-2-4-7.299-1.975-4.642 2.821-5 3-2.936 1.471-10.029-1.331-5 5l-6.5 1.5c-.03 1.788 5.275 2.104 7 2.5 2.159.496 3.997.426 6 2-1.211-.3-12.936-2.015-13 .5 20.867 9.139 35.704 26.425 52 41.5 11.177 10.34 21.888 25.213 34.5 34 5.819 4.054 15.294 6.758 21 12 10.661 1.1-7.952-10.062-9-11-16.486-14.757-30.057-33.316-45.5-48l2-3c10.701 10.646 20.15 22.283 31 33 10.893 10.76 20.121 22.761 35.5 28l1-2-12-7c22.234 8.915 45.944 11.442 69.5 6 1.451 1.446.528 4.227 1.5 5 1.41 1.12 30.387-11.794 28.5-19 11.249-8.346 22.142-21.978 23.5-36-22.602 58.604-103.682 59.943-146.5 23-11.876-10.247-23.637-27.529-33.5-40 22.604 24.487 41.869 49.224 76 58 44.623 11.474 108.935-7.699 104.5-63-1.166-14.533-9.812-28.711-23-35-.351-.167-1.422-3.601-4-1.5l4 1.5c5.057 9.771 13.887 19.401 15 31.5 1.243 13.505-6.402 35.481-20 40 4.222-5.288 7.144-7.533 11-13.5 7.928-12.268 9.866-23.378 3.5-37-1.22 12.033.959 20.981-6.5 31.5-13.589 19.163-38.721 16.702-59.5 16.5l-13.5-3.5c19.997 2.17 39.924 5.841 58.5-4.5 13.289-7.398 22.827-24.023 17.5-39 6.632-2.554-4.801-16.129-8.5-18-5.342-2.702-17.639-4.164-20.5 2.5l19.5.5c.796 4.47 4.568 6.411 6.5 10 1.683 11.086 5.132 14.827-1 25.5-17.574 30.59-78.149 14.148-102-1.5 9.864 4.868 67.998 24.745 74 15.5 4.608-7.098-12.831-3.103-16.5-3.5-18.529-2.007-30.838-8.818-46.5-14v-1c5.917 1.925 12.122 7.14 18.5 6-10.411-4.323-22.269-7.479-31-15 13.808 6.238 27.914 14.737 43.5 14.5-3.292-2.981-7.02-4.66-11-6.5l-61.5-38c-6.304-1.619-12.704-5.482-19-7-6.085-1.468-15.341-.221-20.5-4 9.142-.139 18.04 2.349 27 3 6.624 2.218 14.135 7.157 19.5 10 5.738 3.04 17.17 9.979 25.5 15 1.915 1.725 4.091 4.457 7 4.5-.788-2.952-5.322-3.489-7-4.5-4.916-4.43-8.22-11.586-14.5-17-6.363-5.485-13.393-8.785-20.5-13-4.678-2.775-12.446-5.312-14-9.5-.152-.41 5.077-1.174-3.5-4.5-15.439-5.987-52.912-3.235-61 14 7.626-8.198 20.195-13.801 31.5-13.5L535.5 649l-3 6 15-10zm-92.5-5c-1.501 2.535.565 1.741 2 2 5.539 1 13.754 1.464 19.5 1.5zm-4 4c-7.988.582-16.192 4.371-24 6l-10.5 6.5c15.857-8.453 34.329-10.439 51-11-.328-1.726-14.063-1.677-16.5-1.5m30 0c-.217.027-1.989 1.483-1 2 3.412 1.783 4.476-2.436 1-2M460 662c1.964 1.509 1.969 1.877 7 .5-.169-2.43-5.425-.666-7-.5-.905-.695-3.213-4.896-3.5-5-6.726-2.426-48.893 8.583-54 18l-1-2c-10.661 10.392-26.876 14.104-39.5 22.5 28.952-6.341 52.626-34.402 83.5-34.5-22.567 1.724-38.408 16.939-57 26-15.994 7.794-33.485 12.188-48.5 21.5 4.648 3.354 32.404-9.89 33-8 .213.675-8.48 2.457-5.5 4.5 29.993-12.503 59.261-39.507 92.5-43m-81 59c-7.597 3.621-14.049 7.973-22.5 10-26.965 6.469-60.247 7.331-80-15 3.346 16.357 26.417 24.91 41 27 25.247 3.619 52.891-1.514 73.5-17 .179.776 1.271 1.395 2 2 .15.125-.371 1.849.5 2 2.231.387 32.625-23.527 35.5-28 2.909-1.881 6.807-7.168 9-3-7.956 6.536-15.287 14.679-23.5 21-2.585 1.989-17.057 7.977-13.5 12-1.304 1.095-7.889 5.997-8 6.5-.39 1.773 2.772 8.683 6.5 7.5 13.605-4.317 33.932-42.038 49.5-48.5L408.5 747c8.397-9.487 16.676-18.901 25.5-28l1 2c-14.126 14.065-26.559 34.519-43.5 46-11.834 8.02-30.433 14.184-44.5 16.5 9.135 5.005 23.968-7.897 31.5-8.5 3.465-.278-2.467 3.282 1 3 4.155-.338 10.017-4.973 13.5-7 2.474-1.44 6.97-3.542 9-5 2.432.937 3.505.359 5.5-1 23.075-15.716 46.619-50.552 72.5-70 1.206-.906 8.899-3.404 9.5-4 3.81-3.781-2.474-3.906 5.5-8 1.208-.62 4.608 1.138 6-1.5.121-.863-13.637-9.226-14.5-9.5-10.861-3.455-27.446 8.832-36.5 16 2.675-4.229 2.63-7.712-3-5l-18 8.5c3.954-7.103 27.588-10.823 27-18-.068-.826-1.95-.399-2-.5-.309-.624.208-2.512 0-3.5-7.647-7.959-77.553 53.896-91.5 55.5 3.081 4.29 12.185-5.272 16.5-4m-80.5-48c-6.054.756-9.373 7.731-4 12 15.09 11.989 16.336-13.541 4-12m420 1c-3.66 1.206-8.575 15.048 3 13 11.021-1.95 6.786-16.224-3-13m-443 19c-1.914 11.518 5.928 24.605 15 31 3.268 2.304 23.766 11.703 17.5.5-.575-1.029-7.987-1.747-9.5-2.5-13.45-6.698-20.508-13.59-23-29M541 708c-2.538 9.227 8.447 17.778 14 25.5.188.261-2.947.607-2 2 9.481 13.949 41.566 31.434 57.5 37.5 2.559.974 4.763-.079 5 0 1.502.499 6.231 9.227 8.5.5-7.665-4.66-15.239-9.591-22-15.5-8.683-7.588-16.958-17.123-25.5-25l1.5-1.5c-6.193-4.504-35.286-35.466-40.5-35.5-6.252-.041 2.464 10.761 3.5 12m-63.5-8L397 776.5c22.016-5.56 56.295-20.414 70-39 .094-.127-1.942-1.725-1-3 2.054-2.781 16.173-20.651 16-22-.049-.382-2.889-.926-3-2-.303-2.931 2.598-3.757 2-5-1.769-3.674-3.251 5.178-3.5-5.5M465 745c-4.971 4.213-15.308 11.45-21 15-1.047.653-1.935 1.374-3 2-4.725 2.779-8.963 4.848-14 7-9.487 4.053-21.554 8.596-31.5 11-1.074.26-27.778 3.914-19 5 7.862.973 25.522-4.437 34-6 11.086-2.044 23.925-2.562 35-8l12-6c3.269-3.226-.962-1.419-2-1-1.643.663-10.735 6.815-11.5 4.5 10.888-4.29 41.127-23.167 45-34 2.008-5.617-4.223-.365-5-2l7-11c-2.142-3.585-23.158 21.091-26 23.5m76.5-12v7l-4.5-2.5c-1.941 3.444 17.192 18.391 20.5 20.5 16.724 10.665 65.466 26.563 85 27 2.503.056 5.761.786 7.5-1.5-42.245-3.565-77.66-22.384-108.5-50.5m-137 13c-25.004 21.177-62.208 29.224-94 21-11.947-3.091-21.972-12.174-33.5-14.5 30.098 26.953 87.849 30.065 120.5 3.5 3.705-3.015 7.011-5.415 7-10m271 31c-2.709.279-6.459 1.444-9.5 1.5 1.827 3.463 21.997 1.717 22 0-2.168-1.799-9.88-1.77-12.5-1.5"/><path fill="#5c8db0" d="M606 651h-4.5c6.543 8.064-14.696-3.999-19-5-11.901-2.768-31.654.423-42.5 6l7.5-7-15 10 3-6 23.5-11.5c-11.305-.301-23.874 5.302-31.5 13.5 8.088-17.235 45.561-19.987 61-14 8.577 3.326 3.348 4.09 3.5 4.5 1.554 4.188 9.322 6.725 14 9.5"/><path fill="#679ab9" d="M417 652c5.787.335.83-2.663 2.5-4 1.602-1.282 7.973-3.65 10.5-5 2.795-1.493.419-1.424 2-2 9.681.49 20.812-5.766 29.5 1l-9.5-.5 9.5 4.5c-16.632-4.914-30.114 3.887-45 8-1.26-.409.926-1.462.5-2"/><path fill="#335678" d="M606 651c7.107 4.215 14.137 7.515 20.5 13 6.28 5.414 9.584 12.57 14.5 17-8.33-5.021-19.762-11.96-25.5-15-5.365-2.843-12.876-7.782-19.5-10-13.77-4.611-31.144-8.026-43.5 0 5.119-.87 11.375-2.922 16.5-3 5.159 3.779 14.415 2.532 20.5 4 6.296 1.518 12.696 5.381 19 7l61.5 38c-23.243-10.744-49.303-25.668-71.5-35-7.782-3.272-16.58-3.706-24-6-1.121-.347.143-3.349-1-4-2.23-1.27-22.793-.095-25.5 4-.752.024-13.831 3.656-14.5 4-4.231 2.174-8.196 8.492-13.5 9.5 5.042-9.674 9.944-17.33 20-22.5 10.846-5.577 30.599-8.768 42.5-6 4.304 1.001 25.543 13.064 19 5zm-41.5-4c-5.352.321-14.069 3.714-19.5 5.5 7.267 2.379 16.162-2.885 24-4 .006-1.461-3.846-1.539-4.5-1.5m18 12 65.5 32.5c-13.599-8.126-29.958-20.399-44.5-26.5-6.682-2.804-14.119-3.808-21-6"/><path fill="#507fa4" d="m447.5 647 21.5 3.5c-5.746-.036-13.961-.5-19.5-1.5-1.435-.259-3.501.535-2-2"/><path fill="#4b80a6" d="M564.5 647c.654-.039 4.506.039 4.5 1.5-7.838 1.115-16.733 6.379-24 4 5.431-1.786 14.148-5.179 19.5-5.5"/><path fill="#679ab9" d="M417 652c-3.175-.184-1.989-1.374.5-2 1.173.65-.96 1.42-.5 2"/><path fill="#5082a7" d="M443.5 651c2.437-.177 16.172-.226 16.5 1.5-16.671.561-35.143 2.547-51 11l10.5-6.5c7.808-1.629 16.012-5.418 24-6"/><path fill="#446e93" d="M473.5 651c3.476-.436 2.412 3.783-1 2-.989-.517.783-1.973 1-2"/><path fill="#5083a7" d="M596 656c-8.96-.651-17.858-3.139-27-3-5.125.078-11.381 2.13-16.5 3 12.356-8.026 29.73-4.611 43.5 0"/><path fill="#5e98bc" d="M460 662c-33.239 3.493-62.507 30.497-92.5 43-2.98-2.043 5.713-3.825 5.5-4.5-.596-1.89-28.352 11.354-33 8 15.015-9.312 32.506-13.706 48.5-21.5 18.592-9.061 34.433-24.276 57-26-30.874.098-54.548 28.159-83.5 34.5 12.624-8.396 28.839-12.108 39.5-22.5l1 2c5.107-9.417 47.274-20.426 54-18 .287.104 2.595 4.305 3.5 5"/><path fill="#588aaa" d="M670 702c3.98 1.84 7.708 3.519 11 6.5-15.586.237-29.692-8.262-43.5-14.5 8.731 7.521 20.589 10.677 31 15-6.378 1.14-12.583-4.075-18.5-6-17.349-6.929-32.365-18.845-49-27-17.387-8.523-32.88-15.639-53-15 2.707-4.095 23.27-5.27 25.5-4 1.143.651-.121 3.653 1 4 7.42 2.294 16.218 2.728 24 6 22.197 9.332 48.257 24.256 71.5 35"/><path fill="#588aaa" d="M582.5 659c6.881 2.192 14.318 3.196 21 6 14.542 6.101 30.901 18.374 44.5 26.5z"/><path fill="#20314a" d="M460 662c1.575-.166 6.831-1.93 7 .5-5.031 1.377-5.036 1.009-7-.5"/><path fill="#30516f" d="m739 665-4-1.5c2.578-2.101 3.649 1.333 4 1.5m23 35-3 1c-.31-9.815-1.999-17.29-8.5-25 27.229 67.331-43.347 90.487-97 71-35.818-13.009-67.819-47.329-98-70-3.159-2.373.405-3.219-1-5-.28-.356-8.14-1.707-9-1-4.69-2.648 7.712-4.899 9-5 16.154-1.27 31.985 4.757 45.5 13 11.399 6.952 21.185 17.442 33 24 1.934 1.073 4.014 2.02 6 3 23.851 15.648 84.426 32.09 102 1.5 6.132-10.673 2.683-14.414 1-25.5.646 1.2 2.806 4.456 3 5 5.327 14.977-4.211 31.602-17.5 39-18.576 10.341-38.503 6.67-58.5 4.5l13.5 3.5c20.779.202 45.911 2.663 59.5-16.5 7.459-10.519 5.28-19.467 6.5-31.5 6.366 13.622 4.428 24.732-3.5 37 .211-.6.06-1.997-.5-2L724 738.5l9.5-4.5c1.192-2.155 11.187-10.112 11.5-11-3.856 5.967-6.778 8.212-11 13.5 13.598-4.519 21.243-26.495 20-40-1.113-12.099-9.943-21.729-15-31.5 13.188 6.289 21.834 20.467 23 35"/><path fill="#04536e" d="M768 667c-1.344 5.653-3.035 11.52-5 17-.987-2.535-3.412-6.769-5-9 2.836-1.911 2.284-5.219 3-8z"/><path fill="#1b324e" d="M745 687c-.194-.544-2.354-3.8-3-5-1.932-3.589-5.704-5.53-6.5-10l-19.5-.5c2.861-6.664 15.158-5.202 20.5-2.5 3.699 1.871 15.132 15.446 8.5 18"/><path fill="#376890" d="M454 673c-24.322 10.167-43.834 32.232-66 45-2.162 1.246-6.127 1.631-9 3-4.315-1.272-13.419 8.29-16.5 4 13.947-1.604 83.853-63.459 91.5-55.5.208.988-.309 2.876 0 3.5"/><path fill="#102238" d="M495 683c-12.15 1.245-10.223-7.714-22 0-7.664-.623 3.833-2.381 3-4.5-4.996 2.215-3.79-2.444-4.5-2.5-4.501-.357-62.046 48.901-70.5 56-3.557-4.023 10.915-10.011 13.5-12 8.213-6.321 15.544-14.464 23.5-21 4.095-3.364 7.782-7.66 12-11 9.054-7.168 25.639-19.455 36.5-16 .863.274 14.621 8.637 14.5 9.5-1.392 2.638-4.792.88-6 1.5"/><path fill="#1e3853" d="M298.5 673c12.336-1.541 11.09 23.989-4 12-5.373-4.269-2.054-11.244 4-12"/><path fill="#4e8ab3" d="M447 683c-15.891 7.655-35.197 30.52-51 38-5.053 2.392-7.249 5.019-8-3 22.166-12.768 41.678-34.833 66-45 .05.101 1.932-.326 2 .5.588 7.177-23.046 10.897-27 18z"/><path fill="#355c7e" d="m759 701 3-1c4.435 55.301-59.877 74.474-104.5 63-34.131-8.776-53.396-33.513-76-58 9.863 12.471 21.624 29.753 33.5 40l-1 2c-10.85-10.717-20.299-22.354-31-33-3.04-3.024-5.851-6.033-9-9 3.711-3.666-12.273-18.494-13-11-3.401-2.824-8.647-5.493-11.5-8-2.348-2.063 4.19-1.811-1-4-2.141-.903-13.516-.938-13.5 4-1.725-.396-7.03-.712-7-2.5l6.5-1.5c-5.029-6.331 2.064-3.529 5-5 .358-.179-2.299-4.975 5-3 3.516.951-2.887 2.809 2 4 28.28 6.893 54.917 44.419 83 61 44.8 26.451 124.066 32.262 129.5-35.5.062-.774 1.972-.234 2-1 .028-.768-1.951.039-2-1.5"/><path fill="#14273e" d="M718.5 674c9.786-3.224 14.021 11.05 3 13-11.575 2.048-6.66-11.794-3-13"/><path fill="#5384ab" d="M473 683c-13.926 9.122-27.511 24.153-39 36-8.824 9.099-17.103 18.513-25.5 28l40.5-49.5c-15.568 6.462-35.895 44.183-49.5 48.5-3.728 1.183-6.89-5.727-6.5-7.5.111-.503 6.696-5.405 8-6.5 8.454-7.099 65.999-56.357 70.5-56 .71.056-.496 4.715 4.5 2.5.833 2.119-10.664 3.877-3 4.5"/><path fill="#23334c" d="M650 703v1c-2.477-.82-4.81 1.48-6.5 1-1.584-.45-11.271-8.407-10.5-2-11.815-6.558-21.601-17.048-33-24l1-3c16.635 8.155 31.651 20.071 49 27"/><path fill="#9bc6d5" d="M290 682c.022.101-1.647-.36-2 .5 5.788 6.674 5.06 15.966 8 24l-6 1.5c-14.182-9.333-14.962-20.198-1.5-31 .39.156 1.287 4.025 1.5 5"/><path fill="#264260" d="M495 683c-7.974 4.094-1.69 4.219-5.5 8-.601.596-8.294 3.094-9.5 4 1.166-4.108-9.11-3.719-10.5-3-1.717.887-2.13 4.409-3 5-10.979 7.458-21.949 14.49-31.5 24l-1-2c11.489-11.847 25.074-26.878 39-36 11.777-7.714 9.85 1.245 22 0"/><path fill="#2a4664" d="M561 694c4.385 3.64 8.838 7.079 13 11 3.149 2.967 5.96 5.976 9 9l-2 3c-9.266-8.811-23.113-19.355-34-26-.13-.079-.421.606-3-.5-.278-.119 3.664-.85-3-2.5-2.003-1.574-3.841-1.504-6-2-.016-4.938 11.359-4.903 13.5-4 5.19 2.189-1.348 1.937 1 4 2.853 2.507 8.099 5.176 11.5 8"/><path fill="#335678" d="M641 681c1.678 1.011 6.212 1.548 7 4.5-2.909-.043-5.085-2.775-7-4.5"/><path fill="#3a6184" d="M450 688c-4.218 3.34-7.905 7.636-12 11-2.193-4.168-6.091 1.119-9 3-12.45 8.049-23.255 18.369-36 26-.729-.605-1.821-1.224-2-2 1.882-1.414 3.913-2.816 5-5 15.803-7.48 35.109-30.345 51-38 5.63-2.712 5.675.771 3 5"/><path fill="#314f70" d="M541 688c6.664 1.65 2.722 2.381 3 2.5 2.579 1.106 2.87.421 3 .5 1.055 6.71 10.964 9.326 16.5 14 1.49 1.258 11.204 10.742 11.5 11.5.081.208-2.413 2.851-2 4 .895 2.489 9.802 5.457 11 10l-4-.5c-16.296-15.075-31.133-32.361-52-41.5.064-2.515 11.789-.8 13-.5"/><path fill="#355a7d" d="M480 695c-25.881 19.448-49.425 54.284-72.5 70-1.995 1.359-3.068 1.937-5.5 1 10.038-7.211 30.105-27.693 38-37.5.302-.375 5.1-7.538 4.5-8.5L393 771c-3.483 2.027-9.345 6.662-13.5 7-3.467.282 2.465-3.278-1-3-7.532.603-22.365 13.505-31.5 8.5 14.067-2.316 32.666-8.48 44.5-16.5 16.941-11.481 29.374-31.935 43.5-46 9.551-9.51 20.521-16.542 31.5-24 .87-.591 1.283-4.113 3-5 1.39-.719 11.666-1.108 10.5 3"/><path fill="#355a7b" d="M581 717c15.443 14.684 29.014 33.243 45.5 48 1.048.938 19.661 12.1 9 11-5.706-5.242-15.181-7.946-21-12-12.612-8.787-23.323-23.66-34.5-34l4 .5c-1.198-4.543-10.105-7.511-11-10-.413-1.149 2.081-3.792 2-4-.296-.758-10.01-10.242-11.5-11.5-5.536-4.674-15.445-7.29-16.5-14 10.887 6.645 24.734 17.189 34 26"/><path fill="#457195" d="M574 705c-4.162-3.921-8.615-7.36-13-11 .727-7.494 16.711 7.334 13 11"/><path fill="#4b7b9e" d="M275.5 693c2.492 15.41 9.55 22.302 23 29 1.513.753 8.925 1.471 9.5 2.5 6.266 11.203-14.232 1.804-17.5-.5-9.072-6.395-16.914-19.482-15-31"/><path fill="#2b4460" d="m602 758-2.5 7c-7.897-11.766-23.832-19.071-34-29-7.112-6.945-17.799-19.984-24.5-28-1.036-1.239-9.752-12.041-3.5-12 5.214.034 34.307 30.996 40.5 35.5l-1.5 1.5c8.542 7.877 16.817 17.412 25.5 25"/><path fill="#203346" d="M522 734c-4.178-4.365-7.222-9.71-11.5-14-6.468 9.792-15.01 17.117-23.5 25l23.5-48c3.005 16.361 15.306 29.461 20 44z"/><path fill="#335576" d="M477.5 700c.249 10.678 1.731 1.826 3.5 5.5.598 1.243-2.303 2.069-2 5 .111 1.074 2.951 1.618 3 2 .173 1.349-13.946 19.219-16 22-.942 1.275 1.094 2.873 1 3-13.705 18.586-47.984 33.44-70 39z"/><path fill="#274460" d="M650 704c15.662 5.182 27.971 11.993 46.5 14 3.669.397 21.108-3.598 16.5 3.5-6.002 9.245-64.136-10.632-74-15.5-1.986-.98-4.066-1.927-6-3-.771-6.407 8.916 1.55 10.5 2 1.69.48 4.023-1.82 6.5-1"/><path fill="#5384a8" d="M393 728c12.745-7.631 23.55-17.951 36-26-2.875 4.473-33.269 28.387-35.5 28-.871-.151-.35-1.875-.5-2"/><path fill="#20364f" d="M602 758c6.761 5.909 14.335 10.84 22 15.5-2.269 8.727-6.998-.001-8.5-.5-.237-.079-2.441.974-5 0-15.934-6.066-48.019-23.551-57.5-37.5-.947-1.393 2.188-1.739 2-2-5.553-7.722-16.538-16.273-14-25.5 6.701 8.016 17.388 21.055 24.5 28 10.168 9.929 26.103 17.234 34 29z"/><path fill="#4379a1" d="M379 721c2.873-1.369 6.838-1.754 9-3 .751 8.019 2.947 5.392 8 3-1.087 2.184-3.118 3.586-5 5-20.609 15.486-48.253 20.619-73.5 17-14.583-2.09-37.654-10.643-41-27 19.753 22.331 53.035 21.469 80 15 8.451-2.027 14.903-6.379 22.5-10"/><path fill="#4f82a9" d="M402 766c-2.03 1.458-6.526 3.56-9 5l51.5-51c.6.962-4.198 8.125-4.5 8.5-7.895 9.807-27.962 30.289-38 37.5"/><path fill="#587887" d="M522 734c10.615 11.09 30.174 29.188 43 37-3.035 3.183-6.223 7.421-6 12-18.593-9.073-34.658-20.531-48.5-36-35.092 41.438-103.655 62.104-156.5 54-18.865-2.893-22.239-10.777-36-18 46.282 4.386 94.21 13.307 136.5-11 11.834-6.802 22.554-17.766 32.5-27 8.49-7.883 17.032-15.208 23.5-25 4.278 4.29 7.322 9.635 11.5 14"/><path fill="#375b7b" d="M427 769c1.029 6.617 21.777.411 14-7 1.065-.626 1.953-1.347 3-2-3.869 10.794 16.546-4.411 17-5.5.073-.176-3.473-2.605-1.5-3.5l3 3c.947-2.303 13.749-9.969 10-12-2.334 2.065-3.863 5.717-7.5 3 2.842-2.409 23.858-27.085 26-23.5l-7 11c.777 1.635 7.008-3.617 5 2-3.873 10.833-34.112 29.71-45 34 .765 2.315 9.857-3.837 11.5-4.5 1.038-.419 5.269-2.226 2 1l-12 6c-11.075 5.438-23.914 5.956-35 8-8.478 1.563-26.138 6.973-34 6-8.778-1.086 17.926-4.74 19-5 9.946-2.404 22.013-6.947 31.5-11"/><path fill="#0c1b31" d="M745 723c-.313.888-10.308 8.845-11.5 11l-9.5 4.5 20.5-17.5c.56.003.711 1.4.5 2"/><path fill="#2a4d6a" d="M738 758c-8.89 6.596-19.208 11.507-30 14-23.556 5.442-47.266 2.915-69.5-6l12 7-1 2c-15.379-5.239-24.607-17.24-35.5-28l1-2c42.818 36.943 123.898 35.604 146.5-23-1.358 14.022-12.251 27.654-23.5 36"/><path fill="#34597a" d="M541.5 733c30.84 28.116 66.255 46.935 108.5 50.5-1.739 2.286-4.997 1.556-7.5 1.5-19.534-.437-68.276-16.335-85-27-3.308-2.109-22.441-17.056-20.5-20.5l4.5 2.5z"/><path fill="#447197" d="M444 760c5.692-3.55 16.029-10.787 21-15 3.637 2.717 5.166-.935 7.5-3 3.749 2.031-9.053 9.697-10 12l-3-3c-1.973.895 1.573 3.324 1.5 3.5-.454 1.089-20.869 16.294-17 5.5"/><path fill="#426e92" d="M404.5 746c.011 4.585-3.295 6.985-7 10-32.651 26.565-90.402 23.453-120.5-3.5 11.528 2.326 21.553 11.409 33.5 14.5 31.792 8.224 68.996.177 94-21"/><path fill="#75a5ba" d="M559 783c7.663 3.74 15.892 7.33 24 10-12.833 13.389-28.121 25.483-43.5 36-10.024 6.855-40.177 26.507-50.5 29-6.876 1.661-9.641.292-16 0l-101-20c-18.736-5.865-33.689-14.292-51-21 3.432.338 1.69-3.053 1-4.5-4.184-8.782-12.19-17.172-11.5-28.5 7.846 13.709 22.944 12.607 35 19 9.946 5.274 20.674 15.705 32 20 3.058-.094-1.746-3.751-2-4-6.341-6.195-16.71-10.475-21.5-18 52.845 8.104 121.408-12.562 156.5-54 13.842 15.469 29.907 26.927 48.5 36"/><path fill="#12253e" d="M708 772c10.792-2.493 21.11-7.404 30-14 1.887 7.206-27.09 20.12-28.5 19-.972-.773-.049-3.554-1.5-5"/><path fill="#45749a" d="M427 769c5.037-2.152 9.275-4.221 14-7 7.777 7.411-12.971 13.617-14 7"/><path fill="#046080" d="M289 769c2.404 13.492 7.079 29.062 17 39l-2 2c-20.141-20.919-14.28-25.031-25-47 3.741.275 6.859 3.942 10 6"/><path fill="#aed1dd" d="M318 783c13.761 7.223 17.135 15.107 36 18 4.79 7.525 15.159 11.805 21.5 18 .254.249 5.058 3.906 2 4-11.326-4.295-22.054-14.726-32-20-12.056-6.393-27.154-5.291-35-19-.69 11.328 7.316 19.718 11.5 28.5.69 1.447 2.432 4.838-1 4.5-.422-.164-1.369.085-2 0-3.977-3.281-9.343-5.336-13-9-9.921-9.938-14.596-25.508-17-39 10.262 6.723 19.09 8.799 29 14"/><path fill="#0d6a86" d="M722 800c-82.098 97.401-308.48 94.979-403 17 .631.085 1.578-.164 2 0 17.311 6.708 32.264 15.135 51 21 29.931 9.369 69.758 18.567 101 20 6.359.292 9.124 1.661 16 0 48.98 5.504 104.91-3.156 151.5-20 32.512-11.754 58.898-23.885 73.5-56 2.406-5.291 12.935-9.668 19-12.5z"/><path fill="#3f5f70" d="m591 783-5 11c-.973-.301-2.009-.674-3-1-8.108-2.67-16.337-6.26-24-10-.223-4.579 2.965-8.817 6-12 5.577 3.397 19.866 10.137 26 12"/><path fill="#1e3953" d="M675.5 777c2.62-.27 10.332-.299 12.5 1.5-.003 1.717-20.173 3.463-22 0 3.041-.056 6.791-1.221 9.5-1.5"/><path fill="#1d364a" d="M711 783c-38.943 24.548-81.816 24.333-125 11l5-11c27.964 8.495 76.246 5.437 105.5 1 5.141-.78 11.045-3.283 16-5z"/><path fill="url(#g)" d="M489 858c10.323-2.493 40.476-22.145 50.5-29 15.379-10.517 30.667-22.611 43.5-36 .991.326 2.027.699 3 1 43.184 13.333 86.057 13.548 125-11 .257-.162 2.1-.126 3-1-14.602 32.115-40.988 44.246-73.5 56-46.59 16.844-102.52 25.504-151.5 20" style="fill:url(#g)"/>/&gt;<path fill="#054968" d="M729 795c-65.11 110.035-341.106 102.134-425 15l2-2c3.657 3.664 9.023 5.719 13 9 94.52 77.979 320.902 80.401 403-17 .277-.329 5.889-5.011 7-5"/><path fill="#9cc9d9" d="M473 858c-31.242-1.433-71.069-10.631-101-20Z"/></svg>