<svg xmlns="http://www.w3.org/2000/svg" width="1024" height="1024"><defs><linearGradient id="a" x1="216.125" x2="292.439" y1="176.995" y2="246.171" gradientUnits="userSpaceOnUse"><stop offset="0%" style="stop-color:#56d0e6"/><stop offset="100%" style="stop-color:#63a5c9"/></linearGradient></defs><defs><linearGradient id="b" x1="394.595" x2="401.395" y1="107.455" y2="259.302" gradientUnits="userSpaceOnUse"><stop offset="0%" style="stop-color:#61d6e9"/><stop offset="100%" style="stop-color:#74b7d7"/></linearGradient></defs><defs><linearGradient id="c" x1="812.228" x2="717.645" y1="247.594" y2="318.149" gradientUnits="userSpaceOnUse"><stop offset="0%" style="stop-color:#449ab8"/><stop offset="100%" style="stop-color:#31829e"/></linearGradient></defs><defs><linearGradient id="d" x1="301.554" x2="616.491" y1="335.117" y2="361.011" gradientUnits="userSpaceOnUse"><stop offset="0%" style="stop-color:#e9f2f7"/><stop offset="100%" style="stop-color:#92bac5"/></linearGradient></defs><defs><linearGradient id="e" x1="352.39" x2="597.324" y1="495.724" y2="665.463" gradientUnits="userSpaceOnUse"><stop offset="9.06%" style="stop-color:#a1d3e4"/><stop offset="100%" style="stop-color:#5896a2"/></linearGradient></defs><defs><linearGradient id="f" x1="288.077" x2="574.348" y1="501" y2="725.822" gradientUnits="userSpaceOnUse"><stop offset="0%" style="stop-color:#d9edf4"/><stop offset="100%" style="stop-color:#95b9c2"/></linearGradient></defs><defs><linearGradient id="g" x1="409.206" x2="517" y1="572.537" y2="599.023" gradientUnits="userSpaceOnUse"><stop offset="0%" style="stop-color:#426286"/><stop offset="100%" style="stop-color:#061229"/></linearGradient></defs><defs><linearGradient id="h" x1="318.496" x2="553.974" y1="734.268" y2="860.122" gradientUnits="userSpaceOnUse"><stop offset="0%" style="stop-color:#aec7d2"/><stop offset="100%" style="stop-color:#7ca0a9"/></linearGradient></defs><path fill="#047d99" d="M894 89c-4.108 2.571-7.833 3.653-10 5-3.74 2.326-7.029 6.415-10 8-33.336 17.79-53.928 11.686-86.5 20-7.554 1.928-16.103 7.465-25.5 10l-1-2c7.17-2.453 13.92-5.818 21-8.5-3.939-2.233-16.522.192-21 1.5-1.04-3.215-5.078-1.721-8-2-3.828-.366-7.174-1.688-10-2l4-1c10.982 1.561 28.157-9.7 38-16 5.171-3.31 14.014-9.163 18.5-13 .222-.19 5.956-4.672 3-5-32.393 19.241-71.401 26.986-109 26 4.165 8.478 19.538 2.871 26.5 8-11.379-.081-22.675 1.767-34 2l1-2c1.082-.065 4.55.428 5-.5-11.933-5.45-26.068-12.204-38.5-16.5-1.58-.546-8.321 2.509-4-3 30.203 8.806 67.169 7.593 98 2 23.086-4.188 55.537-13.761 69-34-5.62 27.01-32.477 38.221-53 51 46.237-.984 91.378-8.497 127-40 2.738 1.316-6.232 9.86-.5 12"/><path fill="#036479" d="M528 85c-.577-5.984-5.762-.006-6.5 0-.681.005-3.802-2.371-9-2-45.394 3.242-91.198 8.453-135.5 20-45.207 11.783-72.496 20.485-101 59-.634.856-2.878 2.381-4 4l-4-3c41.528-50.701 100.036-69.72 164.5-77 34.628-3.91 74.622-.693 108-7 7.699-1.455 16.361-4.72 23-9 3.747.357-1.746 3.86-2 4-8.002 4.436-24.256 7.833-33.5 11"/><path fill="#0789a9" d="M917 85c.368-.18 2.583-4.278 6.5-5 6.437-1.186 15.814-.191 21 4 5.007-2.953-15.743-12.7-19-11L912 76c11.351-5.681 21.557-8.459 33.5-2 28.088 15.19 2.592 67.154-25.5 40.5.785-1.63 26.271 13.947 30-7 3.892-21.864-15.478-26.64-33-22.5"/><path fill="#63b4d0" d="M917 85c-13.44 6.602-17.869 10.308-28 21-2.78 2.934-5.298 6.094-8 9l-56 39c-7.269 2.77-14.622 5.535-22 8 .467-4.03-.811-2.699-3.5-3-13.292-1.489-26.243-.878-39.5 0 1.271-1.047 2.818-1.939 4-3 2.979.642 5.516.661 8.5 0 21.244-4.705 51.973-14.652 71-25 16.281-8.854 31.483-20.402 40.5-37 2.167-1.347 5.892-2.429 10-5 6.529-4.087 10.939-9.466 18-13l13.5-3c3.257-1.7 24.007 8.047 19 11-5.186-4.191-14.563-5.186-21-4-3.917.722-6.132 4.82-6.5 5"/><path fill="#035a6f" d="M272 147c-5.356 3.336-6.219.532-11-2 5.176-10.888 11.919-19.454 19-29 9.147-8.326 17.641-17.697 28.5-24 10.929-6.344 24.825-9.47 35-15-44.039 3.414-87.653 25.006-120.5 54-16.987 14.995-31.127 33.154-42 53-5.333-.081-4.502 12.906-10 10 32.771-73.215 107.346-120.645 188-118.5-39.067 14.278-67.887 33.877-87 71.5"/><path fill="url(#a)" d="M280 116c2.806-3.783 5.136-7.517 9-10.5-19.334 7.896-36.215 30.49-45 50-.524 1.164 1.303 1.79 1 2.5-10.539 24.667-16.099 44.829-19 72-3.439 32.202.605 57.276 20 84-11.381 10.933-22.81 24.146-32 37-26.99-20.689-31.848-58.957-37-90.5-2.976 4.578-3.695 10.319-5 15.5-3.801-2.263-.029-7.067 0-7.5.652-9.582-.581-19.406 0-29 .263-4.34 3.922-12.168 4-15 .014-.505-4.01-3.069-3-8.5 4.401-13.589 13.613-34.075 21-46.5 8.107-13.635 19.985-25.48 29-38.5 32.847-28.994 76.461-50.586 120.5-54-10.175 5.53-24.071 8.656-35 15-10.859 6.303-19.353 15.674-28.5 24m-40.5 14c-21.954 17.957-42.255 39.088-51.5 66.5-1.436 4.258-6.368 21.384-7 25-.794 4.539.587 14.146-.5 19.5 6.841-29.906 19.715-58.509 37.5-83.5 4.919-6.912 19.161-19.811 22-25 .636-1.162 2.479-2.125-.5-2.5" style="fill:url(#a)"/>/&gt;<path fill="url(#b)" d="M528 85a1058 1058 0 0 1-15 5c-36.504 4.834-73.736 13.481-107 29-8.18 1.424-5.539 2.036-10 5-2.379-2.927-13.672 3.324-16.5 5-44.581 26.428-81.522 88.269-66.5 141-8.751 4.249-19.795 9.167-28 14-9.367-15.776-16.617-32.399-18-51-.267-3.591.027-7.385 0-11 4.121-4.762 2.981-17.635 10-19-5.292 17.921-5.434 33.813 1 51.5-5.58-51.65 20.581-94.297 62-122.5 10.1-6.877 22.52-13.539 33.5-19 6.803-3.384 31.101-10.608 7.5-8l-4-2c44.302-11.547 90.106-16.758 135.5-20 5.198-.371 8.319 2.005 9 2 .738-.006 5.923-5.984 6.5 0" style="fill:url(#b)"/>/&gt;<path fill="#4a9eb7" d="m785 102-.5-4c-7.681 3.134-15.268 7.044-23 10-1.53.585-26.466 6.658-22 9 5.763-2.951 7.048.936 7.5 1l-4 1c-7.141-.787-11.693-.948-19-1-6.962-5.129-22.335.478-26.5-8 37.599.986 76.607-6.759 109-26 2.956.328-2.778 4.81-3 5-4.486 3.837-13.329 9.69-18.5 13"/><path fill="#026b82" d="M513 90c-10.823 3.53-21.708 7.382-32.5 11 46.125-3.921 91.44 7.62 137 12 19.25 1.851 55.605 6.073 73.5 5l-1 2c-80.841 1.663-166.255-14.558-243-6-10.031 1.118-23.341 2.672-33 5-1.279-1.23-6.396-.279-8 0 33.264-15.519 70.496-24.166 107-29"/><path fill="#5cabc5" d="M884 94c-9.017 16.598-24.219 28.146-40.5 37-19.027 10.348-49.756 20.295-71 25-2.984.661-5.521.642-8.5 0 2.705-2.429 4.586-6.223 8-8 4.909 7.928 17.258-5.481 20.5-7 7.374-3.455 25.019-4.964 34-8 16.868-5.702 37.772-15.861 47.5-31 2.971-1.585 6.26-5.674 10-8"/><path fill="#5eb0c9" d="M785 102c-9.843 6.3-27.018 17.561-38 16-.452-.064-1.737-3.951-7.5-1-4.466-2.342 20.47-8.415 22-9 7.732-2.956 15.319-6.866 23-10z"/><path fill="#73c6e0" d="M772 148c-.187-.302 2.08-2.703.5-3-.403-.076-3.797 3.641-6.5 5-10.302 5.18-20.897 10.375-31 16-.46-1.142-1.353-1.936-2-3-.344-.565 2.775-2.346-1.5-2-37.101 12.197-74.147 25.675-111.5 37-.488-1.969 1.571-2.412 3-3 9.99-4.108 21.858-6.364 32-10.5-10.345-1.813-22.115 2.946-32 5.5-17.594 4.546-47.921 18.463-63 19-3.207.273-2.155-2.06-.5-3 39.945-22.681 142.403-22.994 174-52 2.582-2.371.23-1.863-.5-4 8.407-3.463 15.643-9.444 23.5-14 2.258-1.309 4.901-.57 1.5-3 1.282-.352 2.674-.642 4-1 9.397-2.535 17.946-8.072 25.5-10 32.572-8.314 53.164-2.21 86.5-20-9.728 15.139-30.632 25.298-47.5 31-8.981 3.036-26.626 4.545-34 8-3.242 1.519-15.591 14.928-20.5 7"/><path fill="#5bd2e8" d="m377 103 4 2c-3.149.348-7.884 1.273-11 2-30.295 7.069-71.473 35.147-87 62.5L268 206c1.255-15.132 4.715-29.304 8-44 28.504-38.515 55.793-47.217 101-59"/><path fill="#b4f9fc" d="M340 132c-.254-9.801 14.564-9.4 18-17 3.725-1.745 13.22-2.097 12-8 3.116-.727 7.851-1.652 11-2 23.601-2.608-.697 4.616-7.5 8-10.98 5.461-23.4 12.123-33.5 19"/><path fill="#518ca8" d="M280 116c-7.081 9.546-13.824 18.112-19 29-11.42 24.024-7.83 33.404-12 56.5-.926 5.126-7.037 14.448-8 21-1.235 8.406.788 18.404 0 27l8-42c6.712-14.255 14.024-28.548 23-41.5 1.122-1.619 3.366-3.144 4-4-3.285 14.696-6.745 28.868-8 44-.441 5.315-1.041 10.651-1 16 .027 3.615-.267 7.409 0 11-4.275 20.243 2.138 38.49 9 57-5.863 3.813-18.434 11.992-22 15-3.377-4.333-7.572-7.315-10-12.5-19.095-40.777-15.101-90.907 2-131 .176-.413 2.141-6.033-1-3.5.303-.71-1.524-1.336-1-2.5 8.785-19.51 25.666-42.104 45-50-3.864 2.983-6.194 6.717-9 10.5"/><path fill="#027895" d="M797 171c-.102.017.279-2.123-.5-2-7.375 1.163-16.337 1.981-23.5 4l-1.5-2c10.653-2.398 21.17-5.548 31.5-9 7.378-2.465 14.731-5.23 22-8 35.568-13.554 31.275-12.407 56-39 2.702-2.906 5.22-6.066 8-9-18.807 33.41-53.996 58.729-92 65"/><path fill="#88f0f8" d="M358 115c-32.56 15.252-70.61 52.814-81 88-7.019 1.365-5.879 14.238-10 19-.041-5.349.559-10.685 1-16l15-36.5c15.527-27.353 56.705-55.431 87-62.5 1.22 5.903-8.275 6.255-12 8"/><path fill="#7bc5e2" d="M690 120c11.325-.233 22.621-2.081 34-2 7.307.052 11.859.213 19 1 2.826.312 6.172 1.634 10 2l-22.5 12c2.771 1.272 19.807-.992 21-2 1.709-1.445-.853-3.384 0-4 2.808-2.028 6.232-3.046 9.5-4 4.478-1.308 17.061-3.733 21-1.5-7.08 2.682-13.83 6.047-21 8.5-14.591 4.992-31.127 8.476-46.5 11-13.723 2.253-29.153.79-42 6 6.473-1.091 12.989-1.378 19.5-2 .261 2.489.076 3.259-2.5 4-8.998 2.59-29.762 4.024-41 6-14.407 2.533-32.876 5.238-49 9-5.918 1.381-14.235 6.348-19.5 4 3.84-1.075 10.044-4.847 14.5-6 12.362-3.198 27.061-3.738 39.5-7.5-5.829-.563-14.734.462-20.5 1.5-23.561 4.243-49.323 13.63-71.5 22-5.973 2.255-12.68 3.436-18.5 6-29.406 12.958-54.61 33.779-76.5 57-4.268.647-6.876 1.541-12 2l-2-2.5c22.132-32.825 56.303-55.566 91.5-72.5-29.752 8.093-57.284 27.36-77.5 50.5-5.232 5.988-10.209 16.123-15 21-1.803 1.835-1.767 1.942-4 .5 3.135-11.884 12.14-29.534 20-39 34.273-41.276 119.696-52.313 170-60 19.982-3.054 40.668-4.013 60.5-8 4.225-.849 11.923-1.977 15-5-4.18-.021-9.119-.371-13 0-.785.075-.213 1.914-1 2-17.102 1.874-32.548 2.639-52 4l-13.5 6c-38.135-1.858-119.927 22.195-154 41-26.264 14.495-50.994 34.266-58 65-8.898 2.885-20.499 3.96-30 6 .331-8.048-1.01-15.814-1-24h3c-.297 2.426-1.645 4.686-1 7.5 3.402-5.529 4.165-15.668 7-23 11.419-29.53 40.218-61.996 69.5-74.5 3.923-1.675 11.338-1.935 13-5-3.558.355-9.214.265-12.5 1l20.5-9v-3c-16.608 2.457-32.598 8.44-47.5 16-.08.041-.141-1.713-1.5-1-12.129 6.361-22.837 19.407-33.5 28 2.176-3.843 2.715-8.854 7.5-11l-2.5-1c1.856-2.475 4.14-5.919 5-9 12.547-8.876 24.152-15.99 38-23l11-7c76.745-8.558 162.159 7.663 243 6"/><path fill="#74d4e9" d="m447 114-11 7c-39.986 15.005-80.306 40.631-94.5 83 2.644-16.561 13.548-33.767 23.5-47 3.128.879 8.336-4.11 10.5-6 6.696-5.849 15.499-14.52 18.5-23 8.304-5.789 9.415-6.448 20-9 9.659-2.328 22.969-3.882 33-5"/><path fill="#46a1be" d="M881 115c-24.725 26.593-20.432 25.446-56 39z"/><path fill="#fafdfd" d="M340 132c-41.419 28.203-67.58 70.85-62 122.5-6.434-17.687-6.292-33.579-1-51.5 10.39-35.186 48.44-72.748 81-88-3.436 7.6-18.254 7.199-18 17"/><path fill="#10465a" d="M414 119c-10.585 2.552-11.696 3.211-20 9-11.23 7.828-20.825 18.13-29 29-9.952 13.233-20.856 30.439-23.5 47 14.194-42.369 54.514-67.995 94.5-83-13.848 7.01-25.453 14.124-38 23-38.978 27.574-66.77 65.038-61 115.5.747 1.861 19.206-3.884 22-4.5 4.319-.953 8.642-2.064 13-3 9.501-2.04 21.102-3.115 30-6 2.036-.66 3.331 1.15 6-1.5 1.225-1.216 2.603-7.877 4-10 13.647-20.743 30.682-36.039 48-53.5 34.073-18.805 115.865-42.858 154-41 1.702.083 2.486-.099 4 1-50.304 7.687-135.727 18.724-170 60-5.564 3.404-11.787 9.574-16 14.5-1.771 2.07-21.695 27.937-15.5 29.5 3.848-1.298 7.58-.831 11.5-1 1.851-.08 4.57-.782 7-1 5.124-.459 7.732-1.353 12-2 2.841-.431 6.019-.462 9-1l25.5 1c9.72-4.704 62.013-22.822 69-21 2.281.595.325 2.804.5 4-12.263 3.787-24.661 7.09-37 10.5l60.5-13.5-58.5 22.5c1.31.092 2.963 1.35 3.5 1.5 16.974 4.742 59.781-10.036 78-16 12.528-4.101 25.419-9.687 37.5-15 8.689-.666 29.022-10.191 38-14 .734 1.731 6.329.351 7.5 0 30.12-9.026 61.73-29.74 85.5-50 2.703-1.359 6.097-5.076 6.5-5 1.58.297-.687 2.698-.5 3-3.414 1.777-5.295 5.571-8 8-1.182 1.061-2.729 1.953-4 3-19.025 15.674-37.294 25.738-60 35-32.177 13.125-68.156 28.013-100.5 40-7.713 2.859-40.573 10.629-44 13-.839.581-2.429 2.275-1 3 11.607 1.412 17.629 4.109 29.5 3 1.33 4.661 12.563 5.747 17 7 4.016 1.134 7.845 2.33 12 3 27.627 4.455 59.865-27.696 81-45 28.83-20.864 62.949-32.221 98.5-34 4.271-.214 33.091-.55 35 0 3.423.986 2.32 3.848 2.5 4-36.82-.552-72.391 1.449-106 17-37.64 17.416-59.434 52.674-100 61.5 9.537 4.643 20.435 7.084 30 11.5 7.868 3.633 16.477 8.606 24 13 6.261 3.656 12.06 7.875 18 12 3.622 2.516 15.233 9.358 16 10 .138.116.514 1.704 2 3 1.587 1.384 4.11 3.181 5 4 2.553 2.352 7.191 7.192 10 10 3.604 3.603 10.793 15.613 15 18 .097.055-.289 1.275 2 1 .032 5.905 11.209 26.06 16.5 26 5.303-.06 36.246-35.877 44-42 25.12-19.836 70.39-33.102 102-27 1.324.255 10.543 2.659 11 3 .797.594.292 2.891 1.5 4-40.15-11.401-80.253.478-113 24.5 27.6-12.249 58.276-18.609 86-3-50.369 8.013-67.313 56.842-96 91 .26 1.903 12.243.62 14 .5l1 4c-7.845 1.298-19.388.612-26.5 3-4.449 1.493-17.686 11.723-23 15-12.063 7.438-18.639 3.553-19.5 22.5 2.766-1.284 6.349-1.593 9-2.5l5 1.5c-9.791 7.741-20.648 10.114-18.5 25.5 17.407-4.118 35.372-6.841 52.5-12 18.661-5.621 30.185-9.973 45-23 8.073-7.099 18.607-16.557 20-28 4.352-4.6 9.621-13.104 12-19 6.56.34-2.123 7.244 1 10-14.44 33.894-52.675 63.229-89.5 67l12.5 2-53.5 6-3.5 5.5-5 22.5c-.54 1.376-2.545 7.182-.5 8 26.576.409 52.525-6.078 78.5-10.5-25.904 9.063-53.287 11.953-80.5 14.5-2.589 1.545-.955 4.213-1.5 6-1.974 6.47-1.312 14.924-2 17.5-.742 2.778-7.513 17.136-11 15.5-2.157-.309-2.842-1.002-3-1 2.636-4.617 7.756-21.046 7-25.5-.885-5.213-21.341-31.918-26-37.5-13.464-16.131-28.194-29.437-45-42-37.686-28.172-60.86-35.117-104-50-1.283-.443-5.365-1.964-5-4 10.586 2.581 23.9 5.471 34 9 25.535 8.922 63.361 30.4 84.5 47 6.776 5.321 16.388 17.866 23.5 22.5 3.257 2.122 1.847 1.275 2-1.5 2.639 3.254 3.647 6.083 6 9 .657.815 1.523 1.401 2 2 8.715 10.949 16.201 21.48 28.5 29 1.347-.373 4.789-16.266 5.5-19 8.075-31.034 13.508-62.804 23-93.5-5.31-18.515-14.275-35.371-26-50.5-10.231-13.201-23.808-25.878-37-36-17.862-13.705-36.301-23.306-57-32-116.722-49.028-281.718-34.898-376 54-9.073 8.555-17.776 16.748-25 27-6.437 9.134-12.298 18.852-16 29.5 7.978 32.006 12.202 66.602 20 99.5 2.618 11.047 4.803 22.232 8.5 33l19.5-32c7.066-4.051 27.311-28.268 36.5-36 29.094-24.482 66.731-46.817 103.5-57-7.655 2.912-15.504 7.508-23 11-45.408 21.152-89.098 50.007-119 91-3.921 5.376-16.335 21.677-17 27.5-.758 6.637 4.275 19.374 5 26.5-.895.021-6.162 1.598-8 2l-18-66.5c-118.958-12.219-151.156-170.594-102-262-4.805 25.043 4.621 59.766 22 78.5 4.644 5.006.28-1.455 5-2 5.501 13.519 12.428 19.148 22 29 4.392 4.521 10.201 11.185 15 15-41.826-22.834-79.28-49.665-68.5-104-21.77 60.591-18.7 132.088 17.5 186.5 14.256 21.427 28.85 34.181 53 43.5 4.919 1.898 32.196 12.535 35 5.5.182-.456-1.216-9.045-2.5-9.5-.474-.168-6.961 1.471-10 1-4.26-.66-15.927-2.715-19.5-4-1.267-.456-5.037-2.266-5.5-4 5.148-.226 33.533 7.431 35.5 2.5-2.608-16.527-4.616-33.112-8-49.5-2.966-14.364-5.774-21.718-10-35-3.232-10.158-4.776-12.56-1-24 1.488-4.508 8.196-14.395 11-19 .574-.943 1.372-2.028 2-3 1.566-2.425 3.329-4.663 5-7 9.19-12.854 20.619-26.067 32-37 3.317-3.186 5.596-6.649 6-7 .752-.654 1.39-1.486 2-2 3.566-3.008 16.137-11.187 22-15 2.742-1.783 6.581-4.575 9-6 8.205-4.833 19.249-9.751 28-14 2.371-1.151 15.609-5.538 16-6.5-15.514-54.141 23.588-110.66 67-139.5 4.461-2.964 1.82-3.576 10-5 1.604-.279 6.721-1.23 8 0M227 378c16.152-22.187 37.987-39.445 61-54 77.443-48.98 174.03-61.233 264-47 25.047 3.962 50.616 11.387 74 21 48.712 20.025 96.789 55.966 118 105.5.607 1.417 4.031 16.926 6 15 10.633-29.002 1.555-47.14-17-69-23.289-27.438-67.863-55.983-102-67.5-4.248-1.433-8.672-2.82-13-4-2.515-.686-4.303-.57-6-1-11.997-5.964-31.82-10.449-45.5-13-108.638-20.255-261.09-5.135-337.5 83.5-14.969 17.364-32.737 39.797-21.5 63.5 6.2-11.306 11.874-22.525 19.5-33m534 32c-2.79 9.252-6.679 17.41-9 27-.979 4.046-3.507 8.023-3 12.5 3.219 5.78 59.446-68.094 63-72 9.732-10.696 22.249-23.111 34-31.5 1.643-1.173 6.006-4.693 8-4-18.199 13.178-35.005 34.528-49 52-2.513 2.588-34.128 42.158-31.5 43 10.872-9.977 22.828-19.282 32.5-30.5 8.08-9.372 13.384-21.174 21-30.5 13.251-16.226 33.737-36.315 54.5-41 1.853-2.41-1.482-1.876-1.5-2-.093-.65.141-1.843 0-2-4.136-4.599-35.581-1.294-42.5 0-30.799 5.762-64.294 29.952-73.5 60.5-1.541 5.112-1.31 12.896-3 18.5m-51.5 120 8 14c2.875-.892-6.856-12.771-8-14"/><path fill="#479db7" d="M761 123c-3.268.954-6.692 1.972-9.5 4-.853.616 1.709 2.555 0 4-1.193 1.008-18.229 3.272-21 2l22.5-12c2.922.279 6.96-1.215 8 2"/><path fill="#63a9c3" d="M396 124c-43.412 28.84-82.514 85.359-67 139.5-.391.962-13.629 5.349-16 6.5-15.022-52.731 21.919-114.572 66.5-141 2.828-1.676 14.121-7.927 16.5-5"/><path fill="#8bebf7" d="M450 134c-38.533 8.62-71.438 56.775-76 94h-3c.027-22.198 2.281-32.481 11-52l41-38c14.902-7.56 30.892-13.543 47.5-16v3z"/><path fill="#8ae8f7" d="M618 141c-1.514-1.099-2.298-.917-4-1l13.5-6c19.452-1.361 34.898-2.126 52-4 .787-.086.215-1.925 1-2 3.881-.371 8.82-.021 13 0-3.077 3.023-10.775 4.151-15 5-19.832 3.987-40.518 4.946-60.5 8"/><path fill="#55b0c9" d="M365 157c8.175-10.87 17.77-21.172 29-29-3.001 8.48-11.804 17.151-18.5 23-2.164 1.89-7.372 6.879-10.5 6"/><path fill="#64f0f7" d="M239.5 130c2.979.375 1.136 1.338.5 2.5-2.839 5.189-17.081 18.088-22 25-17.785 24.991-30.659 53.594-37.5 83.5 1.087-5.354-.294-14.961.5-19.5.632-3.616 5.564-20.742 7-25 9.245-27.412 29.546-48.543 51.5-66.5"/><path fill="#0a5d7a" d="M762 132c-1.326.358-2.718.648-4 1-23.451 6.443-41.634 9.674-66 12-6.511.622-13.027.909-19.5 2 12.847-5.21 28.277-3.747 42-6 15.373-2.524 31.909-6.008 46.5-11z"/><path fill="#60d5ea" d="M173 216c-4.418 13.642-9.262 35.802-9 50-4.937-30.851 2.51-55.552 17-82 10.873-19.846 25.013-38.005 42-53-9.015 13.02-20.893 24.865-29 38.5-7.387 12.425-16.599 32.911-21 46.5"/><path fill="#fbfefe" d="M374 228c4.562-37.225 37.467-85.38 76-94 3.286-.735 8.942-.645 12.5-1-1.662 3.065-9.077 3.325-13 5-29.282 12.504-58.081 44.97-69.5 74.5-2.835 7.332-3.598 17.471-7 23-.645-2.814.703-5.074 1-7.5"/><path fill="#76d1e9" d="M733 150c-24.389 10.045-50.857 6.307-76.5 9-32.275 3.39-65.28 10.299-95.5 22-4.228-8.219 7.68-3.896 10-10 3.062-.93 5.839-2.115 9-3 5.265 2.348 13.582-2.619 19.5-4 16.124-3.762 34.593-6.467 49-9 11.238-1.976 32.002-3.41 41-6 2.576-.741 2.761-1.511 2.5-4 24.366-2.326 42.549-5.557 66-12 3.401 2.43.758 1.691-1.5 3-7.857 4.556-15.093 10.537-23.5 14"/><path fill="#ecfdfe" d="m423 138-41 38c1.686-3.774 3.964-7.404 6-11 10.663-8.593 21.371-21.639 33.5-28 1.359-.713 1.42 1.041 1.5 1"/><path fill="#4b8ea6" d="M398 144c-.86 3.081-3.144 6.525-5 9-17.197 22.929-30.205 44.961-33 74.5-.887 9.374 2.318 18.645-1 27.5-2.794.616-21.253 6.361-22 4.5-5.77-50.462 22.022-87.926 61-115.5"/><path fill="#094e63" d="M272 147c-1.241 2.444-11.041 19.88-8.5 21 .947-2.177 3.403-3.661 4.5-5l4 3c-8.976 12.952-16.288 27.245-23 41.5l-8 42c.788-8.596-1.235-18.594 0-27 .963-6.552 7.074-15.874 8-21 4.17-23.096.58-32.476 12-56.5 4.781 2.532 5.644 5.336 11 2"/><path fill="#4596af" d="M766 150c-23.77 20.26-55.38 40.974-85.5 50-1.171.351-6.766 1.731-7.5 0 20.035-8.499 41.468-22.569 62-34 10.103-5.625 20.698-10.82 31-16"/><path fill="#56a6bf" d="M733 150c.73 2.137 3.082 1.629.5 4-31.597 29.006-134.055 29.319-174 52-1.655.94-2.707 3.273.5 3-5.056.18-22.353-5.071-21-10.5.464-1.863 7.07-1.491 1-7.5 7.116-3.564 13.495-7.094 21-10 30.22-11.701 63.225-18.61 95.5-22 25.643-2.693 52.111 1.045 76.5-9m-95.5 14c-5.949.579-72.581 18.396-71.5 22.5 33.339-8.219 68.193-11.543 101-21 .058-2.143-25.939-1.846-29.5-1.5"/><path fill="#74b8d5" d="M388 165c-2.036 3.596-4.314 7.226-6 11-8.719 19.519-10.973 29.802-11 52-.01 8.186 1.331 15.952 1 24-4.358.936-8.681 2.047-13 3 3.318-8.855.113-18.126 1-27.5 2.795-29.539 15.803-51.571 33-74.5l2.5 1c-4.785 2.146-5.324 7.157-7.5 11"/><path fill="#12566e" d="M580 168c-3.161.885-5.938 2.07-9 3-2.82.857-8.509 1.036-12 2-5.574 1.54-11.4 4.599-17 5 22.177-8.37 47.939-17.757 71.5-22 5.766-1.038 14.671-2.063 20.5-1.5-12.439 3.762-27.138 4.302-39.5 7.5-4.456 1.153-10.66 4.925-14.5 6"/><path fill="#124056" d="M254 305c-.61.514-1.248 1.346-2 2-10.456-12.134-18.823-32.729-22-48.5-1.926-9.561.592-19.617-4-28.5 2.901-27.171 8.461-47.333 19-72 3.141-2.533 1.176 3.087 1 3.5-17.101 40.093-21.095 90.223-2 131 2.428 5.185 6.623 8.167 10 12.5"/><path fill="#4799b3" d="M803 162c-10.33 3.452-20.847 6.602-31.5 9l1.5 2c-.165.046.442 2.737-.5 3-20.284 5.67-40.827 9.59-60 19-.057.937 2.71 2.505 3.5 3-31.546 13.614-53.455 40.519-84 56-.268-2.818-1.467-1.673.5-4 4.986-5.897 37.152-31.295 45-37 8.227-5.981 17.481-11.268 27-15v-4H700c22.706-9.262 40.975-19.326 60-35 13.257-.878 26.208-1.489 39.5 0 2.689.301 3.967-1.03 3.5 3"/><path fill="#154d65" d="m733 163-132 44c-13.427 2.602-35.447 12.505-50 17-.175-1.196 1.781-3.405-.5-4-6.987-1.822-59.28 16.296-69 21l-25.5-1c52.429-9.459 112.88-26.501 164-42 37.353-11.325 74.399-24.803 111.5-37 4.275-.346 1.156 1.435 1.5 2"/><path fill="#4da0b8" d="M733 163c.647 1.064 1.54 1.858 2 3-20.532 11.431-41.965 25.501-62 34-8.978 3.809-29.311 13.334-38 14-17.794 1.364-13.839-10.907-34-7z"/><path fill="#74d1e9" d="M637.5 164c3.561-.346 29.558-.643 29.5 1.5-32.807 9.457-67.661 12.781-101 21-1.081-4.104 65.551-21.921 71.5-22.5"/><path fill="#79d3ed" d="M435 243c-2.43.218-5.149.92-7 1 .186-1.238-.288-2.908 0-4 2.233 1.442 2.197 1.335 4-.5 4.791-4.877 9.768-15.012 15-21 20.216-23.14 47.748-42.407 77.5-50.5-35.197 16.934-69.368 39.675-91.5 72.5z"/><path fill="#57aac5" d="M797 171v1c-.413.112-6.21 2.221-4.5 4 37.49-4.408 81.544-4.202 112 20-11.749-6.288-23.951-4.447-36-6-2.371-.306-35.307-7.026-34.5-3.5 9.42 3.46 19.989 3.94 30 5.5-8.27 1.823-16.87 1.184-25 4-1.416-.837-2.835-1.827-4-3-1.964-1.977-2.65-3.018-5-5-.18-.152.923-3.014-2.5-4-1.909-.55-30.729-.214-35 0-35.551 1.779-69.67 13.136-98.5 34 7.65-6.263 14.669-15.074 24.5-19 1.412-3.929-2.248-.842-2.5-1-.79-.495-3.557-2.063-3.5-3 19.173-9.41 39.716-13.33 60-19 .942-.263.335-2.954.5-3 7.163-2.019 16.125-2.837 23.5-4 .779-.123.398 2.017.5 2"/><path fill="#0b7d9b" d="M864 192c-10.011-1.56-20.58-2.04-30-5.5-.807-3.526 32.129 3.194 34.5 3.5 12.049 1.553 24.251-.288 36 6-30.456-24.202-74.51-24.408-112-20-1.71-1.779 4.087-3.888 4.5-4 6.614-1.796 27.928-2.242 35.5-2 36.129 1.155 73.171 15.3 95.5 44.5-20.026-17.629-39.208-18.637-64-22.5"/><path fill="#69c9e7" d="M571 171c-2.32 6.104-14.228 1.781-10 10-7.505 2.906-13.884 6.436-21 10-13.869 6.947-27.573 13.876-39.5 24-2.975-.374-1.14-1.335-.5-2.5 3.898-7.094 24.827-20.33 32.5-24.5 8.313-4.518 23.181-6.478 26.5-15 3.491-.964 9.18-1.143 12-2"/><path fill="#3b839b" d="M540 191c6.07 6.009-.536 5.637-1 7.5-1.353 5.429 15.944 10.68 21 10.5 15.079-.537 45.406-14.454 63-19v5c-1.429.588-3.488 1.031-3 3-51.12 15.499-111.571 32.541-164 42-2.981.538-6.159.569-9 1 21.89-23.221 47.094-44.042 76.5-57 5.82-2.564 12.527-3.745 18.5-6 5.6-.401 11.426-3.46 17-5-3.319 8.522-18.187 10.482-26.5 15-7.673 4.17-28.602 17.406-32.5 24.5-.64 1.165-2.475 2.126.5 2.5 11.927-10.124 25.631-17.053 39.5-24"/><path fill="#2c6b84" d="M402 246c7.006-30.734 31.736-50.505 58-65-17.318 17.461-34.353 32.757-48 53.5-1.397 2.123-2.775 8.784-4 10-2.669 2.65-3.964.84-6 1.5"/><path fill="#174358" d="M171 194c5.498 2.906 4.667-10.081 10-10-14.49 26.448-21.937 51.149-17 82 .153 8.27 2.445 15.078 4 23-.157.333 2.939 3.891-1 2.5-7.372-15.941-13.02-38.899-14-56.5-.683-12.269 1.028-24.493 3-36.5-18.437 37.522-29.756 87.32-13 128.5-4.72.545-.356 7.006-5 2 .605-7.027-4.628-14.837-6-21.5-8.84-42.919 6.443-89.135 28-125l.5 39.5a237 237 0 0 1 10.5-28"/><path fill="#56a6bf" d="M623 195v-5c9.885-2.554 21.655-7.313 32-5.5-10.142 4.136-22.01 6.392-32 10.5"/><path fill="#68bfdc" d="M830 188c2.35 1.982 3.036 3.023 5 5l-22 2c-15.163-4.543-42.946 4.389-57.5 11-2.157.979-7.424 3.117-7.5 6-14.045 4.752-44.415 21.652-57.5 30-12.035 7.678-20.844 24.146-36 25-3.942-2.17 23.016-26.226 25-28 14.015-12.534 29.677-22.575 44.5-34 33.609-15.551 69.18-17.552 106-17"/><path fill="#61b0cb" d="M813 195c2.868.859 7.248 2.962 9.5 5-25.386.497-50.49 3.876-74.5 12 .076-2.883 5.343-5.021 7.5-6 14.554-6.611 42.337-15.543 57.5-11"/><path fill="#2e819d" d="M839 196c-.885.306-9.029 3.998-9 4.5 1.07.97 2.845 1.103 4 1.5 2.751 2.08 2.38 2.072 1 5-20.9-4.277-70.592-4.67-86 11 .282-3.764-3.327-.619-4.5 0-8.312 4.386-46.885 31.782-51.5 38l-39 22c-9.565-4.416-20.463-6.857-30-11.5 40.566-8.826 62.36-44.084 100-61.5-14.823 11.425-30.485 21.466-44.5 34-1.984 1.774-28.942 25.83-25 28 15.156-.854 23.965-17.322 36-25 13.085-8.348 43.455-25.248 57.5-30 24.01-8.124 49.114-11.503 74.5-12-2.252-2.038-6.632-4.141-9.5-5l22-2c1.165 1.173 2.584 2.163 4 3"/><path fill="#327c95" d="M700 194h4.5v4c-9.519 3.732-18.773 9.019-27 15-7.848 5.705-40.014 31.103-45 37-1.967 2.327-.768 1.182-.5 4-6.28 3.183-12.578 6.13-19 9-4.155-.67-7.984-1.866-12-3 13.428-5.478 32.899-13.02 35.5-29-13.315 12.749-34.218 20.292-52.5 22-11.871 1.109-17.893-1.588-29.5-3-1.429-.725.161-2.419 1-3 3.427-2.371 36.287-10.141 44-13 32.344-11.987 68.323-26.875 100.5-40"/><path fill="#276e8a" d="M694 218c-21.135 17.304-53.373 49.455-81 45 6.422-2.87 12.72-5.817 19-9 30.545-15.481 52.454-42.386 84-56 .252.158 3.912-2.929 2.5 1-9.831 3.926-16.85 12.737-24.5 19"/><path fill="#519fc2" d="M153 235c-2.103 8.96-.626 18.397-1 27.5-.033.813-1.972-.527-2 2.5-.299 32.749 12.574 67.776 41 86-4.222-1.397-6.608.608-8.5 0-15.897-5.106-22.512-15.313-31-29-2.091.532 4.507 13.785 5.5 15.5 3.761 6.495 13.933 12.658 8 18.5-9.572-9.852-16.499-15.481-22-29-16.756-41.18-5.437-90.978 13-128.5-1.972 12.007-3.683 24.231-3 36.5"/><path fill="#2f6e87" d="M448 201c-7.86 9.466-16.865 27.116-20 39-.288 1.092.186 2.762 0 4-3.92.169-7.652-.298-11.5 1-6.195-1.563 13.729-27.43 15.5-29.5 4.213-4.926 10.436-11.096 16-14.5"/><path fill="#52a3c1" d="M841 203c-4.699 7.811 13.209 9.105 19.5 12 15.564 7.161 39.359 20.55 45 37-62.86-39.76-155.504-37.164-214.5 9 .168-.882 1.729-4.634 2-5 4.615-6.218 43.188-33.614 51.5-38 1.173-.619 4.782-3.764 4.5 0-.991 1.008-1.684 2.683-3 3.5.303 3.677 43.523-8.891 48.5-9.5 8.631-1.055 18.279-1.138 27-1 6.121.097 9.179 5.167 13.5-4 1.38-2.928 1.751-2.92-1-5 1.419.488 5.222.445 7 1"/><path fill="#037090" d="M922 269c.878 1.967 1.423 3.968 2 6 1.607 5.663 2.307 7.378 2 13-1.092-1.571-1.421-3.245-2-5-7.141-21.658-17.184-26.638-37-36-38.605-18.238-87.93-26.521-127-10 .364-.182 7.54-4.402 5.5-6-16.084 5.504-33.429 9.149-49 16-8.965 3.944-16.395 10.658-25.5 14 58.996-46.164 151.64-48.76 214.5-9-5.641-16.45-29.436-29.839-45-37-6.291-2.895-24.199-4.189-19.5-12 29.702 9.266 68.066 37.024 81 66"/><path fill="#68bcd9" d="M835 207c-4.321 9.167-7.379 4.097-13.5 4-8.721-.138-18.369-.055-27 1-4.977.609-48.197 13.177-48.5 9.5 1.316-.817 2.009-2.492 3-3.5 15.408-15.67 65.1-15.277 86-11"/><path fill="#296c85" d="M635 214c-12.081 5.313-24.972 10.899-37.5 15-18.219 5.964-61.026 20.742-78 16-.537-.15-2.19-1.408-3.5-1.5l58.5-22.5-60.5 13.5c12.339-3.41 24.737-6.713 37-10.5 14.553-4.495 36.573-14.398 50-17 20.161-3.907 16.206 8.364 34 7"/><path fill="#529ab9" d="M172 276c-.904 3.59-1.045 9.545-2 12.5-.287.888-1.941.375-2 .5-1.555-7.922-3.847-14.73-4-23-.262-14.198 4.582-36.358 9-50-1.01 5.431 3.014 7.995 3 8.5-.078 2.832-3.737 10.66-4 15-.581 9.594.652 19.418 0 29-.029.433-3.801 5.237 0 7.5"/><path fill="#5fb0d0" d="m887 247 37 36c.579 1.755.908 3.429 2 5-.199 3.635.848 4.705-2.5 9-9.826-9.37-21.496-15.983-33.5-22-3.9-1.955-9.396-6.609-14-8-25.722-14.469-47.528-23.082-77.5-24-32.847-1.007-58.641 6.906-88.5 19 19.153-13.814 31.122-15.538 50-25 39.07-16.521 88.395-8.238 127 10"/><path fill="#5590ad" d="M252 307c-.404.351-2.683 3.814-6 7-19.395-26.724-23.439-51.798-20-84 4.592 8.883 2.074 18.939 4 28.5 3.177 15.771 11.544 36.366 22 48.5"/><path fill="#1d5775" d="M601 260c-4.437-1.253-15.67-2.339-17-7 18.282-1.708 39.185-9.251 52.5-22-2.601 15.98-22.072 23.522-35.5 29"/><path fill="#206188" d="M760 237c-18.878 9.462-30.847 11.186-50 25-11.683 8.427-22.523 18.146-32 29-7.523-4.394-16.132-9.367-24-13l39-22c-.271.366-1.832 4.118-2 5 9.105-3.342 16.535-10.056 25.5-14 15.571-6.851 32.916-10.496 49-16 2.04 1.598-5.136 5.818-5.5 6"/><path fill="#6daaca" d="M285 284c-2.419 1.425-6.258 4.217-9 6-6.862-18.51-13.275-36.757-9-57 1.383 18.601 8.633 35.224 18 51"/><path fill="#246990" d="M168 289c.059-.125 1.713.388 2-.5.955-2.955 1.096-8.91 2-12.5 1.305-5.181 2.024-10.922 5-15.5 5.152 31.543 10.01 69.811 37 90.5-1.671 2.337-3.434 4.575-5 7-27.168-13.713-43.527-33.662-53-62.5l-6-30.5c.028-3.027 1.967-1.687 2-2.5.374-9.103-1.103-18.54 1-27.5.98 17.601 6.628 40.559 14 56.5 3.939 1.391.843-2.167 1-2.5"/><path fill="url(#c)" d="M876 267c-27.196-8.213-68.161-4.499-94 7-6.233.757-12.781 1.954-19 3-26.029 4.376-45.194 10.854-67 26-5.94-4.125-11.739-8.344-18-12 9.477-10.854 20.317-20.573 32-29 29.859-12.094 55.653-20.007 88.5-19 29.972.918 51.778 9.531 77.5 24" style="fill:url(#c)"/>/&gt;<path fill="#3f96b6" d="m924 283-37-36c19.816 9.362 29.859 14.342 37 36"/><path fill="#fcfdfd" d="M612 277c-26.998-6.834-60.238-12.221-88-15-78.736-7.882-171.003 7.263-239 49-11.287 6.928-53.6 38.124-58 48.5-1.737 4.096.204 13.56 0 18.5-7.626 10.475-13.3 21.694-19.5 33-11.237-23.703 6.531-46.136 21.5-63.5 76.41-88.635 228.862-103.755 337.5-83.5 13.68 2.551 33.503 7.036 45.5 13"/><path fill="#d0e4ea" d="M524 262c-6.579 16.384 20.242 7.243 28 15-89.97-14.233-186.557-1.98-264 47l-3-13c67.997-41.737 160.264-56.882 239-49"/><path fill="#a3c5ce" d="M612 277c1.439.715 4.044 3.977 6 1 4.328 1.18 8.752 2.567 13 4 .493 3.718-2.555-.444-4 1.5-1.406 1.891-4.073 12.385-1 14.5-23.384-9.613-48.953-17.038-74-21-7.758-7.757-34.579 1.384-28-15 27.762 2.779 61.002 8.166 88 15"/><path fill="#2e819f" d="M876 267c4.604 1.391 10.1 6.045 14 8-6.701 3.668-11.068-1.56-17.5-3-22.186-4.969-39.409-5.625-61.5 0-2.558-2.663-7.419.563-10 1-6.745 1.142-12.866.255-19 1 25.839-11.499 66.804-15.213 94-7"/><path fill="#153a53" d="M209 358c-.628.972-1.426 2.057-2 3-3.565-3.419-11.494-8.509-16-10-28.426-18.224-41.299-53.251-41-86l6 30.5c9.473 28.838 25.832 48.787 53 62.5"/><path fill="#5199c0" d="M180 371c4.195 3.334 10.653 7.863 16 9-3.776 11.44-2.232 13.842 1 24-16.169 8.404-37.58-9.723-48-21.5-16.721-18.899-28.819-47.01-37.5-70.5-2.248 26.133 10.557 61.244 29.5 80l37 49.5c5.844 7.84 14.18 10.256 22.5 14.5-21.613-.822-38.304-9.934-54-24-5.509-4.937-21.839-26.289-25.5-28-3.227-1.508-.894.073-3 1-5.428-10.845-9.006-22.746-13.5-34-.309.062-1.152 3.178-1 4 6.225 33.693 34.147 87.321 62 108 4.929 3.659 11.799 5.831 17.5 8-.162 1.174 1.063 3.513-1 6-24.15-9.319-38.744-22.073-53-43.5-36.2-54.412-39.27-125.909-17.5-186.5-10.78 54.335 26.674 81.166 68.5 104"/><path fill="#4296b6" d="M890 275c12.004 6.017 23.674 12.63 33.5 22 3.348-4.295 2.301-5.365 2.5-9 .307-5.622-.393-7.337-2-13 7.716 4.162 23.461 52.575 18.5 55-8.976-25.279-38.532-40.745-63.5-46-19.321-4.066-37.528-2.866-57-1-.48-6.442-14.238-5.745-19-8.5 2.128-1.887 5.3-1.812 8-2.5 22.091-5.625 39.314-4.969 61.5 0 6.432 1.44 10.799 6.668 17.5 3"/><path fill="#065d84" d="M921 313c-1.208-1.109-.703-3.406-1.5-4-.457-.341-9.676-2.745-11-3-31.61-6.102-76.88 7.164-102 27-7.754 6.123-38.697 41.94-44 42-5.291.06-16.468-20.095-16.5-26 16.75-14.915 36.445-31.62 57.5-40 17.907-7.127 38.743-8.062 56-16-46.022-2.729-84.65 23.567-115.5 55-4.207-2.387-11.396-14.397-15-18 43.348-28.139 92.72-48.733 145.5-44 1.671.15 5.008.837 4.5-2 24.968 5.255 54.524 20.721 63.5 46 4.961-2.425-10.784-50.838-18.5-55-.577-2.032-1.122-4.033-2-6 21.231 20.271 24.265 47.365 23 75.5-6.794-11.539-14.075-22.391-24-31.5"/><path fill="#267599" d="M811 272c-2.7.688-5.872.613-8 2.5 4.762 2.755 18.52 2.058 19 8.5-28.052 2.688-54.948 8.903-80 22 4.104-5.781 14.78-14.342 21-18 13.238-7.786 24.121-8.66 38-14 2.581-.437 7.442-3.663 10-1"/><path fill="#0b4262" d="M801 273c-13.879 5.34-24.762 6.214-38 14 .795-3.017-3.747-1.295-4.5-1-16.692 6.548-31.24 18.143-44.5 30-1.486-1.296-1.862-2.884-2-3 13.037-17.296 32.986-25.428 51-36 6.219-1.046 12.767-2.243 19-3 6.134-.745 12.255.142 19-1"/><path fill="url(#d)" d="M627 303c-1.23 3.718.835 8.508 1 12 1.39 29.404-3.442 60.349-20 85-.271-.13-.728.129-1 0-28.947-13.732-66.107-25.333-98-29-69.844-8.03-133.398 9.804-193 45-2.395-3.323-7.696-8.669-7-13 25.14 2.939 23.97-30.908 5.5-34-12.97-2.171-22.425 7.004-20.5 20-7.207-8.601-2.124-19.133-2-28.5.042-3.175.927-28.163-1.5-28.5-8.862 8.414-23.813 15.393-32 24-4.712 4.954-6.059 5.122-6 13l-1.5-12c94.282-88.898 259.278-103.028 376-54m-270 64c34.612 19.483 38.705-33.594 8-30l3-31.5c-4.269-1.385-27.902-.716-29 4 5.231 16.103 2.07 48.533 18 57.5m231.5-31c-14.06 2.644-19.57 24.963-6 32 29.105 15.093 40.335-38.458 6-32" style="fill:url(#d)"/>/&gt;<path fill="#fcfdfd" d="M618 278c-1.956 2.977-4.561-.285-6-1 1.697.43 3.485.314 6 1"/><path fill="#175480" d="M763 277c-18.014 10.572-37.963 18.704-51 36-.767-.642-12.378-7.484-16-10 21.806-15.146 40.971-21.624 67-26"/><path fill="#053d5a" d="M879 284c.508 2.837-2.829 2.15-4.5 2-52.78-4.733-102.152 15.861-145.5 44-2.809-2.808-7.447-7.648-10-10 7.478-5.078 14.974-10.804 23-15 25.052-13.097 51.948-19.312 80-22 19.472-1.866 37.679-3.066 57 1"/><path fill="#7faab2" d="M626 298c-3.073-2.115-.406-12.609 1-14.5 1.445-1.944 4.493 2.218 4-1.5 34.137 11.517 78.711 40.062 102 67.5 18.555 21.86 27.633 39.998 17 69-1.969 1.926-5.393-13.583-6-15-21.211-49.534-69.288-85.475-118-105.5"/><path fill="#164f7c" d="M763 287c-6.22 3.658-16.896 12.219-21 18-8.026 4.196-15.522 9.922-23 15-.89-.819-3.413-2.616-5-4 13.26-11.857 27.808-23.452 44.5-30 .753-.295 5.295-2.017 4.5 1"/><path fill="#1d759a" d="M746 349c-2.289.275-1.903-.945-2-1 30.85-31.433 69.478-57.729 115.5-55-17.257 7.938-38.093 8.873-56 16-21.055 8.38-40.75 25.085-57.5 40"/><path fill="#78a8b2" d="m684 335-3.5 11c-9.331-8.057-19.781-14.049-30.5-20-7.135-3.961-14.275-8.218-22-11-.165-3.492-2.23-8.282-1-12 20.699 8.694 39.138 18.295 57 32"/><path fill="#c4d6de" d="M365 337c-14.702 1.721-16.113 20.196-8 30-15.93-8.967-12.769-41.397-18-57.5 1.098-4.716 24.731-5.385 29-4z"/><path fill="#b6c7cd" d="M288 324c-23.013 14.555-44.848 31.813-61 54 .204-4.94-1.737-14.404 0-18.5 4.4-10.376 46.713-41.572 58-48.5z"/><path fill="#5085a4" d="M197 404c4.226 13.282 7.034 20.636 10 35-21.578-2.076-32.248-19.331-46.5-32-5.689-5.057-14.055-9.609-19.5-15-18.943-18.756-31.748-53.867-29.5-80 8.681 23.49 20.779 51.601 37.5 70.5 10.42 11.777 31.831 29.904 48 21.5"/><path fill="#709ba3" d="m650 326-6 43c-4.146 1.841-6.421 4.783-8 9-.876 2.341-3.659 12.837 0 12-.009.648-.1 1.373 0 2l-10 18c-.256-.141-.744.141-1 0-5.524-3.031-11.456-7.341-17-10 16.558-24.651 21.39-55.596 20-85 7.725 2.782 14.865 7.039 22 11"/><path fill="#5487a4" d="M191 351c4.506 1.491 12.435 6.581 16 10-2.804 4.605-9.512 14.492-11 19-5.347-1.137-11.805-5.666-16-9-4.799-3.815-10.608-10.479-15-15 5.933-5.842-4.239-12.005-8-18.5-.993-1.715-7.591-14.968-5.5-15.5 8.488 13.687 15.103 23.894 31 29 1.892.608 4.278-1.397 8.5 0"/><path fill="#5c868d" d="M684 335c13.192 10.122 26.769 22.799 37 36-1.205 2.781-3.31 7.221-4 10l-35.5-34c-4.303 16.489-4.693 33.95-8.5 50.5-1.45 6.305-7.819 34.562-15.5 33.5-1.875-.259-26.544-18.27-31.5-21l10-18c1.671 10.515 16.823 11.849 24.5 8 17.133-8.591 7.803-41.792-16.5-31l6-43c10.719 5.951 21.169 11.943 30.5 20z"/><path fill="#3d8eb4" d="M880 331c-52.12-5.122-91.582 40.879-119 79 1.69-5.604 1.459-13.388 3-18.5 9.206-30.548 42.701-54.738 73.5-60.5 6.919-1.294 38.364-4.599 42.5 0"/><path fill="#226992" d="M880 331c.141.157-.093 1.35 0 2-12.468-1.866-17.085 2.544-26 9-1.994-.693-6.357 2.827-8 4-8.333 2.908-18.713 11.852-25.5 18-24.966 22.613-41.655 52.589-68.5 73 2.321-9.59 6.21-17.748 9-27 27.418-38.121 66.88-84.122 119-79"/><path fill="#b8cbd3" d="M294 389c1.041 7.024 8.032 13.185 15 14-.696 4.331 4.605 9.677 7 13 .158.219-.16.783 0 1-27.407 14.868-52.883 35.138-72 60-7.434-30.679-13.752-61.701-18-93 7.224-10.252 15.927-18.445 25-27l1.5 12c-.059-7.878 1.288-8.046 6-13 8.187-8.607 23.138-15.586 32-24 2.427.337 1.542 25.325 1.5 28.5-.124 9.367-5.207 19.899 2 28.5m-41.5-6c2.129 17.92 1.977 36.758 8 54 .044-18.058-3.175-36.688-8-54"/><path fill="#4199bf" d="M880 333c.018.124 3.353-.41 1.5 2-20.763 4.685-41.249 24.774-54.5 41-6.683 5.445-16.138 11.964-22 18 13.995-17.472 30.801-38.822 49-52 8.915-6.456 13.532-10.866 26-9"/><path fill="#1c4655" d="M588.5 336c34.335-6.458 23.105 47.093-6 32-13.57-7.037-8.06-29.356 6-32m-1 2c-6.606 3.428-13.023 10.134-11 18zm6 1c-11.929.851-24.735 29.044-3 30 19.953.877 25.374-31.597 3-30"/><path fill="#1c4958" d="M365 337c30.705-3.594 26.612 49.483-8 30-8.113-9.804-6.702-28.279 8-30m-11 14c-4.392 8.536 9.788 22.331 22 17 14.996-6.546 7.934-27.702-6.5-30 2.871 5.912-3.617 1.617-7 3-.607.248-8.2 9.416-8.5 10"/><path fill="#94b7c4" d="M376 368c.346-7.546-15.209-3.287-18.5-7-2.234-2.521-1.289-7.419-3.5-10 .3-.584 7.893-9.752 8.5-10 3.383-1.383 9.871 2.912 7-3 14.434 2.298 21.496 23.454 6.5 30m-2.5-26c3.825 5.323 7.127 10.198 7 17 4.343-5.622-1.772-14.54-7-17"/><path fill="#9cdfef" d="m587.5 338-11 18c-2.023-7.866 4.394-14.572 11-18"/><path fill="#5c95a0" d="M593.5 339c22.374-1.597 16.953 30.877-3 30-21.735-.956-8.929-29.149 3-30"/><path fill="#1c4958" d="M373.5 342c5.228 2.46 11.343 11.378 7 17 .127-6.802-3.175-11.677-7-17"/><path fill="#3586ad" d="M846 346c-11.751 8.389-24.268 20.804-34 31.5-3.554 3.906-59.781 77.78-63 72-.507-4.477 2.021-8.454 3-12.5 26.845-20.411 43.534-50.387 68.5-73 6.787-6.148 17.167-15.092 25.5-18"/><path fill="#476a71" d="M717 381c-7.11 28.651-12.568 59.01-19 88-11.824-12.21-33.07-45.301-49-21-22.626-17.507-51.92-29.726-78.5-40 3.323-1.804 4.167-5.169 4.5-9 8.096 2.825 15.877 6.174 24 9 8.174 2.844 17.918 10.893 26 2 .256.141.744-.141 1 0 4.956 2.73 29.625 20.741 31.5 21 7.681 1.062 14.05-27.195 15.5-33.5 3.807-16.55 4.197-34.011 8.5-50.5z"/><path fill="#acced9" d="M376 368c-12.212 5.331-26.392-8.464-22-17 2.211 2.581 1.266 7.479 3.5 10 3.291 3.713 18.846-.546 18.5 7"/><path fill="#1c4452" d="M636 392c-.1-.627-.009-1.352 0-2 .095-6.639 5.064-14.285 10-18.5l-10 6.5c1.579-4.217 3.854-7.159 8-9 24.303-10.792 33.633 22.409 16.5 31-7.677 3.849-22.829 2.515-24.5-8m20.5-22c-17.313-.433-30.515 33.259-3 30 .415-.049 6.633-1.799 7-2 5.907-3.229 8.598-13.122 6.5-19.5-.422-1.283-1.362 1.158-2 0-1.762-3.196-1.516-8.325-8.5-8.5"/><path fill="#133f50" d="M309 403c-6.968-.815-13.959-6.976-15-14-1.925-12.996 7.53-22.171 20.5-20 18.47 3.092 19.64 36.939-5.5 34m-.5-33c-25.549 2.267-8.712 46.712 14.5 27.5-7.2.598.684-3.5 1-5 .894-4.244-2.011-9.016-3-13l4.5 6.5c2.946-8.433-9.57-16.659-17-16"/><path fill="#b2d0da" d="m509 371-1 10c-32.825-3.763-60.96-1.366-93 6-32.285 7.422-64.78 20.656-93.5 37-2.268-.126-4.022-4.989-5.5-7-.16-.217.158-.781 0-1 59.602-35.196 123.156-53.03 193-45"/><path fill="#9cbeca" d="M308.5 370c7.43-.659 19.946 7.567 17 16l-4.5-6.5c.989 3.984 3.894 8.756 3 13-.316 1.5-8.2 5.598-1 5-23.212 19.212-40.049-25.233-14.5-27.5"/><path fill="#385b63" d="M656.5 370c6.984.175 6.738 5.304 8.5 8.5.638 1.158 1.578-1.283 2 0 2.098 6.378-.593 16.271-6.5 19.5-.367.201-6.585 1.951-7 2-27.515 3.259-14.313-30.433 3-30"/><path fill="#1f5b84" d="M118 405c15.878 31.728 53.993 70.642 91.5 57-39.641 5.671-68.501-28.701-88.5-58 3.661 1.711 19.991 23.063 25.5 28 15.696 14.066 32.387 23.178 54 24-8.32-4.244-16.656-6.66-22.5-14.5L141 392c5.445 5.391 13.811 9.943 19.5 15 14.252 12.669 24.922 29.924 46.5 32 3.384 16.388 5.392 32.973 8 49.5-1.967 4.931-30.352-2.726-35.5-2.5.463 1.734 4.233 3.544 5.5 4-.44.15-1.985.889-2 1-5.701-2.169-12.571-4.341-17.5-8-27.853-20.679-55.775-74.307-62-108-.152-.822.691-3.938 1-4 4.494 11.254 8.072 23.155 13.5 34"/><path fill="#86afba" d="m607 400-8 8c-8.123-2.826-15.904-6.175-24-9-23.843-8.318-41.192-15.041-67-18l1-10c31.893 3.667 69.053 15.268 98 29"/><path fill="#a6eaf4" d="M636 390c-3.659.837-.876-9.659 0-12l10-6.5c-4.936 4.215-9.905 11.861-10 18.5"/><path fill="#77a3ab" d="m724 515-26-45c.07-.318-.07-.682 0-1 6.432-28.99 11.89-59.349 19-88 .69-2.779 2.795-7.219 4-10 11.725 15.129 20.69 31.985 26 50.5-9.492 30.696-14.925 62.466-23 93.5"/><path fill="#0a6e94" d="M805 394c5.862-6.036 15.317-12.555 22-18-7.616 9.326-12.92 21.128-21 30.5-9.672 11.218-21.628 20.523-32.5 30.5-2.628-.842 28.987-40.412 31.5-43"/><path fill="#648c95" d="M508 381c25.808 2.959 43.157 9.682 67 18-.333 3.831-1.177 7.196-4.5 9 26.58 10.274 55.874 22.493 78.5 40 6.393 4.947 11.518 10.1 17 16l-4 6c-11.197-10.079-62.096-42.542-75.5-45-3.982-.73-10.45.015-14.5 1-10.1-3.529-23.414-6.419-34-9-10.681-2.605-24.434-6.4-35-8-.089-2.31-3.739-17.469-4.5-18-6.237-4.353-71.508 4.754-83 8 5.979-2.888-1.935-7.353-.5-12 32.04-7.366 60.175-9.763 93-6"/><path fill="#045774" d="M870 423c-3.123-2.756 5.56-9.66-1-10 .578-1.432 2.56-3.486 1.5-5-4.231 7.018-8.116 12.677-14.5 18-.807-5.304-1.664-2.854-3-3-2.949-.323-33.739 5.964-40 7l-1-4c13.686-.938 34.136-2.857 45.5-11 10.338-7.408 22.845-28.726 3-33 23.112-1.538 15.257 27.488 9.5 41"/><path fill="#eaf2f6" d="M252.5 383c4.825 17.312 8.044 35.942 8 54-6.023-17.242-5.871-36.08-8-54"/><path fill="#fdfdfd" d="M244 477a851 851 0 0 0 3 12l-17 24c-7.798-32.898-12.022-67.494-20-99.5 3.702-10.648 9.563-20.366 16-29.5 4.248 31.299 10.566 62.321 18 93"/><path fill="#8facb6" d="M415 387c-1.435 4.647 6.479 9.112.5 12 11.492-3.246 76.763-12.353 83-8 .761.531 4.411 15.69 4.5 18-8.188-1.24-19.892-2.842-28-3-25.172-.492-53.788 6.169-77 15-36.769 10.183-74.406 32.518-103.5 57-9.189 7.732-29.434 31.949-36.5 36-1.211.694-3.65 3.353-5 1.5-1.359-8.936-3.754-17.782-6-26.5a851 851 0 0 1-3-12c19.117-24.862 44.593-45.132 72-60 1.478 2.011 3.232 6.874 5.5 7 28.72-16.344 61.215-29.578 93.5-37"/><path fill="#587f88" d="M625 410c-8.082 8.893-17.826.844-26-2l8-8c.272.129.729-.13 1 0 5.544 2.659 11.476 6.969 17 10"/><path fill="#4a93ba" d="M121 404c19.999 29.299 48.859 63.671 88.5 58-37.507 13.642-75.622-25.272-91.5-57 2.106-.927-.227-2.508 3-1"/><path fill="#1b728d" d="M475 406c-2.102 3.937 5.571-.661 2 7-37.025-1.247-73.303 8.047-104 29l-1-6c1.5-1.106 5.858-2.916 3-4 7.496-3.492 15.345-8.088 23-11 23.212-8.831 51.828-15.492 77-15"/><path fill="#0e5870" d="M503 409c10.566 1.6 24.319 5.395 35 8-.365 2.036 3.717 3.557 5 4 103.989 49.502 141.466 178.126 61 268-2.221.046-4.189 2.646-4-1 68.051-73.108 53.375-180.579-24-240-30.091-23.109-60.868-33.716-99-35 3.571-7.661-4.102-3.063-2-7 8.108.158 19.812 1.76 28 3"/><path fill="#3787b0" d="M869 413c-2.379 5.896-7.648 14.4-12 19-21.324 22.538-66.502 31.693-96 35.5l14-6c-7.997-1.56-15.433 4.253-22 6.5-2.651.907-6.234 1.216-9 2.5.861-18.947 7.437-15.062 19.5-22.5 5.314-3.277 18.551-13.507 23-15 7.112-2.388 18.655-1.702 26.5-3 6.261-1.036 37.051-7.323 40-7-19.101 15.495-43.115 11.222-64.5 16-1.304.291-10.048 2.882-10 5 27.745-3.573 54.569 1.117 77.5-18 6.384-5.323 10.269-10.982 14.5-18 1.06 1.514-.922 3.568-1.5 5m-52.5 37c-1.804.092-11.675 4.75-14.5 5.5l10.5-1.5 6.5-3.5c-.249-.759-1.642-.544-2.5-.5"/><path fill="#c3f1fc" d="M477 413c38.132 1.284 68.909 11.891 99 35l-38.5-21C425.872 387.129 308.64 457.412 304 578c-.752-30.214 6.499-60.58 22-86.5 4.847-8.104 18.226-21.117 21-27.5 8.426-7.482 16.66-15.625 26-22 30.697-20.953 66.975-30.247 104-29"/><path fill="url(#e)" d="M576 448c77.375 59.421 92.051 166.892 24 240-76.635 82.329-219.312 70.26-275-29-13.074-23.303-20.337-54.344-21-81 4.64-120.588 121.872-190.871 233.5-151zm-120-12c-2.217.2-3.636.822-5 1-29.986 3.902-60.488 16.14-81 39-20.089 3.529-33.246 24.026-31 44-3.69 9.051-7.988 18.115-9 28-.295 2.883-1.677 5.612-1 9-8.427 33.753 4.322 82.336 28 108 19.78 26.867 54.235 47.156 87 53-2.353 1.935 3.069 2.932 3.5 3 61.948 9.71 122.6-14.519 154.5-69.5 41.639-71.768 10.776-170.165-66-201.5-27.024-11.029-50.556-16.654-80-14" style="fill:url(#e)"/>/&gt;<path fill="#7ea8b0" d="M647 471c5.661 61.109 23.886 140.53-6 197.5-15.737 29.998-48.305 58.277-77 75.5-3.581-6.126-7.775-10.351-13-15 18.935-9.269 38.951-24.309 53-40 80.466-89.874 42.989-218.498-61-268 43.14 14.883 66.314 21.828 104 50"/><path fill="#044b6b" d="M856 426c-22.931 19.117-49.755 14.427-77.5 18-.048-2.118 8.696-4.709 10-5 21.385-4.778 45.399-.505 64.5-16 1.336.146 2.193-2.304 3 3"/><path fill="#3a5f68" d="M662 470c8.527 7.675 13.291 15.728 20 24-.153 2.775 1.257 3.622-2 1.5-7.112-4.634-16.724-17.179-23.5-22.5-21.139-16.6-58.965-38.078-84.5-47 4.05-.985 10.518-1.73 14.5-1 13.404 2.458 64.303 34.921 75.5 45"/><path fill="url(#f)" d="M375 432c2.858 1.084-1.5 2.894-3 4-9.16 6.755-16.723 11.875-25 20-56.505 55.468-63.179 138.397-24 206 45.937 79.265 145.752 107.264 228 67 5.225 4.649 9.419 8.874 13 15 2.711 4.637 4.711 9.775 6 15-92.954 22.401-195.986-3.218-268-65-2.185-27.806-17.291-81.172-35-103l-11-68c29.902-40.993 73.592-69.848 119-91" style="fill:url(#f)"/>/&gt;<path fill="#005b82" d="m837 460-45 23c-17.128 5.159-35.093 7.882-52.5 12-2.148-15.386 8.709-17.759 18.5-25.5l-5-1.5c6.567-2.247 14.003-8.06 22-6.5l-14 6c29.498-3.807 74.676-12.962 96-35.5-1.393 11.443-11.927 20.901-20 28"/><path fill="#0c435c" d="M536 450c83.832 41.688 109.741 152.384 45 223.5-33.988 37.335-87.616 53.307-137 44.5-32.765-5.844-67.22-26.133-87-53 7.106 7.702 29.193 24.887 38.5 29 1.858.821 2.637 1.404 4.5 0 .915.657 3.657 2.148 5 3 8.514 5.399 15.473 7.985 25 11 17.595 5.569 32.263 8.019 51 7 61.217-3.33 113.597-49.102 125-109 17.802-73.927-40.455-149.445-114.5-159-6.946-.896-32.583.939-34 0-1.093-.724.045-8.782-1.5-11 29.444-2.654 52.976 2.971 80 14"/><path fill="#258daa" d="M373 442c-9.34 6.375-17.574 14.518-26 22 .342-.788.898-6.744 0-8 8.277-8.125 15.84-13.245 25-20z"/><path fill="#005b8c" d="M456 436c1.545 2.218.407 10.276 1.5 11 1.417.939 27.054-.896 34 0 74.045 9.555 132.302 85.073 114.5 159-14.306 59.41-61.422 90.989-117.5 104-.439.102-9.126 2.747-7.5 5-18.737 1.019-33.405-1.431-51-7l10-19c9.018 2.312 18.669 3.584 28 4 16.581-12.956 43.375-15.963 52-37 2.542.202 20.212-7.273 23.5-9 101.031-53.062 29.358-218.502-104.5-188-1.669.38-2.942.426-5 1-.774-3.543 3.935-1.034 5-2.5.31-.427-2.36-6.373-3-7.5 10.117-2.871 20.467 1.459 15-13 1.364-.178 2.783-.8 5-1"/><path fill="#20678c" d="M451 437c5.467 14.459-4.883 10.129-15 13-18.221 5.171-37.26 12.672-51 26-6.68-1.193-8.331-1.172-15 0 20.512-22.86 51.014-35.098 81-39"/><path fill="#385960" d="M698 469c-.07.318.07.682 0 1-2.556 11.615-4.293 23.705-8 35-.477-.599-1.343-1.185-2-2 .213-15.041-12.201-28.454-22-39-5.482-5.9-10.607-11.053-17-16 15.93-24.301 37.176 8.79 49 21"/><path fill="#77d4ec" d="M444 718c49.384 8.807 103.012-7.165 137-44.5 64.741-71.116 38.832-181.812-45-223.5 76.776 31.335 107.639 129.732 66 201.5-31.9 54.981-92.552 79.21-154.5 69.5-.431-.068-5.853-1.065-3.5-3"/><path fill="#0890c0" d="M434 460c-14.213 3.965-26.946 10.598-39 19-2.976-1.462-6.702-2.411-10-3 13.74-13.328 32.779-20.829 51-26 .64 1.127 3.31 7.073 3 7.5-1.065 1.466-5.774-1.043-5 2.5"/><path fill="#216a91" d="M816.5 450c.858-.044 2.251-.259 2.5.5l-6.5 3.5-10.5 1.5c2.825-.75 12.696-5.408 14.5-5.5"/><path fill="#0890c0" d="M520 656c-3.039-.241-7.465-6.475-9.5-6-.793.185-7.94 8.732-12 11-15.142 8.459-41.391 11.313-48.5 28-6.709-1.67-19.82-5.472-26-8-16.407-6.711-24.723-15.625-37-28 7.159-9.644 25.48-5.324 33-18 73.129 58.565 160.105-57.856 77-105 2.49-10.696-2.654-20.325-9.5-28l3.5 22.5c-11.519-.591-6.133-6.464-9-12-6.902-13.327-22.875-25.13-37-30l.5-4.5 13.5 2.5c-1.627-3.559-13.503-4.448-14-5-.587-.652-2.825-14.169-6-16.5 133.858-30.502 205.531 134.938 104.5 188-3.288 1.727-20.958 9.202-23.5 9"/><path fill="#35a6c6" d="M347 464c-2.774 6.383-16.153 19.396-21 27.5-15.501 25.92-22.752 56.286-22 86.5.663 26.656 7.926 57.697 21 81l-2 3c-39.179-67.603-32.505-150.532 24-206 .898 1.256.342 7.212 0 8"/><path fill="#2abae1" d="M439 459c3.175 2.331 5.413 15.848 6 16.5.497.552 12.373 1.441 14 5l-13.5-2.5-.5 4.5c14.125 4.87 30.098 16.673 37 30 2.867 5.536-2.519 11.409 9 12l-3.5-22.5c6.846 7.675 11.99 17.304 9.5 28-67.683-38.396-133.652 47.688-81 101l-39 13c-8.347-10.854-21.966-44.781-24-58.5v-14c-3.204 9.592-1.944 19.611-1 29.5l-15-1c-1.541-10.017.116-24.905-1-31 16.991 7.847 17.261-24.524 4-26l4-7c11.155 19.962 39.459 25.432 57.5 12 22.726-16.919 18.977-56.485-6.5-69 12.054-8.402 24.787-15.035 39-19 2.058-.574 3.331-.62 5-1m-68.5 102c-11.367 4.428-6.326 20.005 2 25 11.386 6.83 22.65-1.677 18.5-13.5-.564-1.606-8.096-9.774-9.5-10.5-.983-.508-10.485-1.2-11-1"/><path fill="#17799f" d="M837 460c-14.815 13.027-26.339 17.379-45 23z"/><path fill="#476a71" d="M688 503c-2.353-2.917-3.361-5.746-6-9-6.709-8.272-11.473-16.325-20-24l4-6c9.799 10.546 22.213 23.959 22 39"/><path fill="#4f7279" d="M724 515c-.711 2.734-4.153 18.627-5.5 19-12.299-7.52-19.785-18.051-28.5-29 3.707-11.295 5.444-23.385 8-35z"/><path fill="#699299" d="m692 513-7 83c-20.056 29.666-34.799 89.543-32 125-3.031 1.924-5.96 4.093-9 6l-.5-9c-13.679-2.915-16.117 5.586-14.5 17-18.82 10.007-38.05 18.951-59 24-1.289-5.225-3.289-10.363-6-15 28.695-17.223 61.263-45.502 77-75.5 29.886-56.97 11.661-136.391 6-197.5 16.806 12.563 31.536 25.869 45 42"/><path fill="#fefeff" d="M385 476c3.298.589 7.024 1.538 10 3 25.477 12.515 29.226 52.081 6.5 69-18.041 13.432-46.345 7.962-57.5-12-1.116-1.997-4.744-13.723-5-16-2.246-19.974 10.911-40.471 31-44 6.669-1.172 8.32-1.193 15 0"/><path fill="#05587f" d="M720 579c-1.584-.426-4.572-1.796-6-2 3.487 1.636 10.258-12.722 11-15.5.688-2.576.026-11.03 2-17.5 50.094 1.17 107.46-14.602 145-48.5-3.557-1.572-8.965 3.114-12.5 3.5-34.034 3.716-66.777-12.85-97 12 28.127-4.091 56.873-14.635 85-5-17.462 1.057-35.661-1.852-53 1-11.594 1.907-24.58 9.919-36 12-5.526 1.007-22.925.132-25 1-1.693.708-1.875 4.406-2.5 6l5-22.5 3.5-5.5 53.5-6c30.879-.829 66.866 18.721 90.5-10-28.379 55.713-89.499 82.106-150 82-.7-.001-6.654-2.112-7-2-1.066.344-6.209 14.515-6.5 17m127.5-60c-16.665 16.081-38.468 24.134-59.5 32.5 17.203-3.506 42.128-14.866 55.5-26.5.272-.237 6.756-5.347 4-6"/><path fill="#b2cbd5" d="m258 514-19.5 32c-3.697-10.768-5.882-21.953-8.5-33l17-24c2.246 8.718 4.641 17.564 6 26.5 1.35 1.853 3.789-.806 5-1.5"/><path fill="#46799a" d="M182 497c2.063-2.487.838-4.826 1-6 .015-.111 1.56-.85 2-1 3.573 1.285 15.24 3.34 19.5 4 3.039.471 9.526-1.168 10-1 1.284.455 2.682 9.044 2.5 9.5-2.804 7.035-30.081-3.602-35-5.5"/><path fill="#3684ac" d="M727 544c.545-1.787-1.089-4.455 1.5-6 27.213-2.547 54.596-5.437 80.5-14.5-25.975 4.422-51.924 10.909-78.5 10.5-2.045-.818-.04-6.624.5-8 .625-1.594.807-5.292 2.5-6 2.075-.868 19.474.007 25-1 11.42-2.081 24.406-10.093 36-12 17.339-2.852 35.538.057 53-1-28.127-9.635-56.873.909-85 5 30.223-24.85 62.966-8.284 97-12 3.535-.386 8.943-5.072 12.5-3.5-37.54 33.898-94.906 49.67-145 48.5"/><path fill="#76a1a9" d="M711 576c-10.789.121-20.608 12.024-26 20l7-83c4.659 5.582 25.115 32.287 26 37.5.756 4.454-4.364 20.883-7 25.5"/><path fill="#217ca2" d="M847.5 519c2.756.653-3.728 5.763-4 6-13.372 11.634-38.297 22.994-55.5 26.5 21.032-8.366 42.835-16.419 59.5-32.5"/><path fill="#34a1c5" d="m344 536-4 7c-4.935-.549-7.365 1.184-10 5 1.012-9.885 5.31-18.949 9-28 .256 2.277 3.884 14.003 5 16"/><path fill="url(#g)" d="M497 530c83.105 47.144-3.871 163.565-77 105-.055-.044-.431-.511-1-1-.643-.552-2.203-2.193-3-3-52.652-53.312 13.317-139.396 81-101m-61.5 18c-22.607 3.562-20.968 48.777 8 43 21.211-4.23 20.868-47.548-8-43m54 53c-19.199.736-21.855 28.159-5 31 20.394 3.437 28.846-31.915 5-31" style="fill:url(#g)"/>/&gt;<path fill="#fdfefe" d="M267 591c-5.811-7.163-12.85-14.234-23-14-.725-7.126-5.758-19.863-5-26.5.665-5.823 13.079-22.124 17-27.5z"/><path fill="#498494" d="M709.5 530c1.144 1.229 10.875 13.108 8 14z"/><path fill="#fcfeff" d="M340 543c13.261 1.476 12.991 33.847-4 26-.3-1.641-6.045-7.224-7-12-.677-3.388.705-6.117 1-9 2.635-3.816 5.065-5.549 10-5"/><path fill="#5d91a5" d="M435.5 548c28.868-4.548 29.211 38.77 8 43-28.968 5.777-30.607-39.438-8-43"/><path fill="#217aa4" d="M336 569c1.116 6.095-.541 20.983 1 31 .565 3.675 1.117 7.397 2 11 1.154 4.705 3.312 8.594 5 13 10.003 26.116 33.146 53.585 56 70-1.863 1.404-2.642.821-4.5 0-9.307-4.113-31.394-21.298-38.5-29-23.678-25.664-36.427-74.247-28-108 .955 4.776 6.7 10.359 7 12"/><path fill="#f7fdfe" d="M370.5 561c.515-.2 10.017.492 11 1 1.404.726 8.936 8.894 9.5 10.5 4.15 11.823-7.114 20.33-18.5 13.5-8.326-4.995-13.367-20.572-2-25"/><path fill="#8ddef7" d="M377 644c1 1.3 2.083 1.946 3 3 2.479 2.85 4.752 3.734 7 6 12.277 12.375 20.593 21.289 37 28l-1 1c-2.492-1.043-5.04-1.539-8-3-10.218-5.044-23.133-13.258-31.5-21-8.063-7.461-22.969-32.4-27.5-35-.697-4.337-2.211-8.713-3-13-.466-2.532-.743-6.312-1-9-.944-9.889-2.204-19.908 1-29.5v14c2.034 13.719 15.653 47.646 24 58.5"/><path fill="#0c0d12" d="M711 576c.158-.002.843.691 3 1 1.428.204 4.416 1.574 6 2 18.771 5.051 24.334 7.132 29 26.5 8.641 35.871-6.966 133.604-42.5 152.5-7.039 3.743-31.571-6.148-39.5-10-1.929-.937-6.73-1.756-7-2-.633-.574-5.66-14.31-6-16-.25-1.242.181-2.727 0-4-.26-1.825-.833-2.879-1-5-2.799-35.457 11.944-95.334 32-125 5.392-7.976 15.211-19.879 26-20m-8 7c-14.576 9.638-23.813 31.407-30 47-2.804 7.067-4.899 13.698-7 21-4.868 16.914-7.628 28.205-9 46-.448 5.808-1.203 11.074-1 17 .249 7.279.222 9.82 2 17 4.466 18.04 8.406 14.869 24.5 18 .633.123 4.756 4.479 6.5 1.5-8.161-13.154-6.991-30.23-6-45.5.513-7.909 1.184-18.413 3-26 .16-.669 2.28-6.54 4-6-1.93 9.297-4.422 18.436-5 28-.394 6.515-.603 16.622 0 23 .689 7.285 6.711 34.54 16.5 34 2.807-.155 26.627-24.501 21-30-4.699 6.342-12.408 20.707-22 18-5.232-1.476-12.267-21.459-6.5-20.5 4.424.736 8.113 26.023 23 2.5 15.925-17.464 35.441-83.023 25-103.5-6.79-13.317-19.526-.559-25 7-10.589 14.62-16.96 38.563-18 54.5-3.635-1.438-4.249 10.904-5 14-.459 1.893.548 4.155-3 4 .471-5.021 2.977-14.446 3-18.5.017-2.901.668-3.932-3-3.5 1.154-4.976 2.635-10.068 4-15 7.979-28.825 17.992-56.024 41-76.5l-2-.5c-2.093-4.041-21.506-11.601-25.5-11-1.102.166-4.278 3.192-5.5 4m25 20c-4.756 6.036-23.084 33.967-24 40.5-.196 1.399-.512 4.632 2 3 3.036-11.688 15.342-38.518 30.5-32.5 15.175 6.025 9.209 47.434 6.5 60.5-3.917 18.896-13.151 36.113-18.5 54.5 3.427-4.412 7.39-11.409 9.5-16.5 11.949-28.829 19.182-73.755 13-104.5-1.234-6.136-2.813-12.725-6.5-18-4.452-1.334-11.021 11.123-12.5 13"/><path fill="#1b161e" d="M267 591c17.709 21.828 32.815 75.194 35 103 .106 1.346-.065 2.612 0 4 .247 5.267.314 11.762 0 17-.279 4.656-.137 10.444-1 15-.296 1.561-4.274 13.019-5 14-1.093 1.476-4.272 3.088-6 4-4.601 2.427-36.323 12.16-39.5 11-4.461-1.629-17.505-18.744-20.5-23.5-21.761-34.557-32.406-89.022-24-129 4.231-20.121 9.995-23.122 30-27.5 1.838-.402 7.105-1.979 8-2 10.15-.234 17.189 6.837 23 14m-43 0c-.702-.479-4.742-4.261-5-1.5 19.699 17.305 33.463 45.193 40 70.5-5.82-1.921-5.651-12.01-8-17.5-3.355-7.843-7.799-16.062-12-23.5-3.859-6.832-5.938-10.763-11-17-13.489-16.621-14.095-16.545-19 5-2.246 9.867-2.92 18.884-3 29-.262 33.064 11.48 78.509 31 105.5 6.671 9.224 15.516 22.725 25 10 10.36-13.901 9.164-46.946 7-63.5-.336-2.566-.572-5.52-1-8-.168-1.15.799-.865 1-1 1.549 8.53 3.555 17.313 4 26 .266 5.19.341 11.846 0 17-.697 10.533-3.495 20.043-6.5 30 17.278-6.58 26.407-.8 31.5-21 1.518-6.023 1.85-11.813 2-18 .148-6.103-.481-11.962-1-18-.737-8.566-4.739-36.753-9-43-1.052-4.998-2.37-10.173-4-15-6.603-19.554-15.916-40.53-33-53-.993-.725-3.212-4.898-3.5-5-2.125-.753-26.1 6.897-27 8-.956 1.173 2.272 2.087 1.5 4"/><path fill="#43414d" d="m253 584 3.5 8c-4.383-1.095-19.858 8.957-21 9-1.839.069-8.871-8.208-11.5-10 .772-1.913-2.456-2.827-1.5-4 .9-1.103 24.875-8.753 27-8 .288.102 2.507 4.275 3.5 5"/><path fill="#28272e" d="M734 590c-3.268.5-11.641 11.889-12.5 12-1.186.154-16.74-11.865-21.5-10.5l3-8.5c1.222-.808 4.398-3.834 5.5-4 3.994-.601 23.407 6.959 25.5 11"/><path fill="#e2e5e8" d="m734 590 2 .5c-23.008 20.476-33.021 47.675-41 76.5h-4c5.392-22.721 13.926-44.722 28-63.5L698.5 593 673 644.5c-5.467 4.499 4.685-16.571 0-14.5 6.187-15.593 15.424-37.362 30-47l-3 8.5c4.76-1.365 20.314 10.654 21.5 10.5.859-.111 9.232-11.5 12.5-12"/><path fill="#f1f3f5" d="M286 637c-3.821 1.416-1.099 6.98 0 9.5-.511 1.415-2.574-.187-3-1-3.045-5.816-5.387-18.636-9-26-1.607-3.275-14.858-25.191-16.5-25.5-1.013-.191-18.269 7.273-19 8-2.081 2.07-1.476 2.148-.5 4.5 1.658 3.996 12.198 13.315 15 20 .758 1.808-2.757 1.192-2 3 4.253 10.152 8.036 17.65 11 28.5l-3 4c-.141-.575.146-1.434 0-2-6.537-25.307-20.301-53.195-40-70.5.258-2.761 4.298 1.021 5 1.5 2.629 1.792 9.661 10.069 11.5 10 1.142-.043 16.617-10.095 21-9l-3.5-8c17.084 12.47 26.397 33.446 33 53"/><path fill="#4e4852" d="m228 602-19 5c4.905-21.545 5.511-21.621 19-5"/><path fill="#3b3842" d="m747 608-19-5c1.479-1.877 8.048-14.334 12.5-13 3.687 5.275 5.266 11.864 6.5 18"/><path fill="#666e78" d="M691 667c-.482 2.029-.603 4.089-1 6-1.72-.54-3.84 5.331-4 6-4.817-7.336-11.319-6.364-18-11 .76-5.98 1.669-11.648 1-17.5l-3 .5c2.101-7.302 4.196-13.933 7-21 4.685-2.071-5.467 18.999 0 14.5l25.5-51.5 20.5 10.5c-14.074 18.778-22.608 40.779-28 63.5"/><path fill="#8595a2" d="M286 637c1.63 4.827 2.948 10.002 4 15-.13-.19-3.074-2.222-3.5-3-2.37 1.467 1.017 15.584 1.5 19-9.136 2.009-12.835 6.876-19 11-.201.135-1.168-.15-1 1-1.127-6.526-4.179-15.335-6-22-2.964-10.85-6.747-18.348-11-28.5-.757-1.808 2.758-1.192 2-3-2.802-6.685-13.342-16.004-15-20-.976-2.352-1.581-2.43.5-4.5.731-.727 17.987-8.191 19-8 1.642.309 14.893 22.225 16.5 25.5 3.613 7.364 5.955 20.184 9 26 .426.813 2.489 2.415 3 1-1.099-2.52-3.821-8.084 0-9.5"/><path fill="#0890c0" d="M352 601c.257 2.688.534 6.468 1 9l-14 1c-.883-3.603-1.435-7.325-2-11z"/><path fill="#686873" d="M228 602c5.062 6.237 7.141 10.168 11 17-2.351 1.318-3.974-1.735-7-3-17.006-7.112-21.627 4.523-23 20h-3c.08-10.116.754-19.133 3-29z"/><path fill="#fefefe" d="M489.5 601c23.846-.915 15.394 34.437-5 31-16.855-2.841-14.199-30.264 5-31"/><path fill="#5b5f69" d="M747 608c6.182 30.745-1.051 75.671-13 104.5-2.11 5.091-6.073 12.088-9.5 16.5 5.349-18.387 14.583-35.604 18.5-54.5 2.709-13.066 8.675-54.475-6.5-60.5-15.158-6.018-27.464 20.812-30.5 32.5-2.512 1.632-2.196-1.601-2-3 .916-6.533 19.244-34.464 24-40.5z"/><path fill="#026b97" d="M481 715c-1.626-2.253 7.061-4.898 7.5-5 56.078-13.011 103.194-44.59 117.5-104-11.403 59.898-63.783 105.67-125 109"/><path fill="#27b9e1" d="M353 610c.789 4.287 2.303 8.663 3 13-4.265-2.448-7.055-1.014-12 1-1.688-4.406-3.846-8.295-5-13z"/><path fill="#141118" d="M232 616c6.96 7.354 14.437 17.832 14 28-3.152-7.105-11.67-20.089-19-23-23.592-9.371-15.018 34.368-13 46 2.837 16.359 10.352 41.975 19 56l-2 2c-12.67-21.999-24.223-63.936-22-89 1.373-15.477 5.994-27.112 23-20"/><path fill="#3b4657" d="M239 619c4.201 7.438 8.645 15.657 12 23.5 2.349 5.49 2.18 15.579 8 17.5.146.566-.141 1.425 0 2 2.177 8.914 4.111 17.836 5 27 .263 2.707-.137 7.669 0 11-6 .06-4.715-10.471-5-14.5-.051-.716 2.05-.284 2-1-.163-2.319-1.838-18.456-7-14.5-1.098-4.779-6.291-22.148-8-26 .437-10.168-7.04-20.646-14-28 3.026 1.265 4.649 4.318 7 3"/><path fill="#e8f4f8" d="m227 621-1 3c-1.616-.718-3.079-1.552-5-1-3.038.872-5.305 6.162-6 9-2.115 8.639-.522 16.447 0 25 .241 3.946 1.767 7.919-1 10-2.018-11.632-10.592-55.371 13-46"/><path fill="#88d8ed" d="m717 728 8.5-20c-4.576 6.588-7.402 15.586-14.5 20-4.938-.913-6.478-2.768-9-6 2.733-2.038 6.056-.286 9.5-2 12.246-6.094 23.414-58.453 24.5-72l4-3.5v13c.975-8.275 3.756-27.217-4-32.5-1.22-.831-.803-2.819-4.5-2-14.764 3.272-35.989 73.805-30.5 89.5-1.926 1.04-2.385 1.12-3-1-1.451-5.001.61-19.525 1-25.5 1.04-15.937 7.411-39.88 18-54.5 5.474-7.559 18.21-20.317 25-7 10.441 20.477-9.075 86.036-25 103.5"/><path fill="#6cc9e5" d="M246 644c1.709 3.852 6.902 21.221 8 26 3.087 13.433 5.687 35.989-1 47.5l2-17c-2.055-16.443-6.078-32.026-12-47.5-2.855-7.46-9.212-25.54-17-29l1-3c7.33 2.911 15.848 15.895 19 23"/><path fill="#0890c0" d="M356 623c4.531 2.6 19.437 27.539 27.5 35 8.367 7.742 21.282 15.956 31.5 21-1.469 6.878-12.259 10.802-10 18-1.343-.852-4.085-2.343-5-3-22.854-16.415-45.997-43.884-56-70 4.945-2.014 7.735-3.448 12-1"/><path fill="#8fbfce" d="M238 713c5.075 7.134 6.768 8.449 16 8.5-5.682 7.058-5.313 5.254-12 5.5-.912.034-2.854 1.762-4 2-1.642-1.913-3.672-3.846-5-6-8.648-14.025-16.163-39.641-19-56 2.767-2.081 1.241-6.054 1-10 1.102 4.377 2.064-1.654 2-2.5-.558-7.44-.829-15.139-2-22.5.695-2.838 2.962-8.128 6-9 .33 3.001-2.784 6.837-3 9.5-1.347 16.62 10.274 66.828 20 80.5"/><path fill="#10496c" d="M226 624c7.788 3.46 14.145 21.54 17 29l-1 1c-2.237-5.825-6.419-16.777-10-21.5-19.354-25.524-8.045 33.638-6 42.5 1.646 7.132 5.894 19.312 9 26 1.301 2.803 3.348 7.7 5 10l-2 2c-9.726-13.672-21.347-63.88-20-80.5.216-2.663 3.33-6.499 3-9.5 1.921-.552 3.384.282 5 1"/><path fill="#0d4868" d="M736 625c-.956.12-2.081-.202-3 0-16.569 3.646-33.129 69.092-31 84.5.171 1.24 2.646 9.165 3.5 9.5 7.056-1.852 11.487-10.722 14.5-17 3.046-6.347 7.323-19.108 9-26 3.867-15.894 6.277-33.811 5-50 4.489 4.184 2.47 16.138 2 22-1.086 13.547-12.254 65.906-24.5 72-3.444 1.714-6.767-.038-9.5 2-1.697-2.175-3.614-8.755-5-6l-3-16c.751-3.096 1.365-15.438 5-14-.39 5.975-2.451 20.499-1 25.5.615 2.12 1.074 2.04 3 1-5.489-15.695 15.736-86.228 30.5-89.5 3.697-.819 3.28 1.169 4.5 2"/><path fill="#2ec1e2" d="M242 654c4.243 11.048 16.746 55.137 9 63.5-3.547 3.829-8.768-3.393-11-6.5-1.652-2.3-3.699-7.197-5-10 4.37.353 5.419-17.589 5-18.5-.34-.739-11.792-4.244-14-7.5-2.045-8.862-13.354-68.024 6-42.5 3.581 4.723 7.763 15.675 10 21.5"/><path fill="#27bbd9" d="M733 625c-.182 1.139.925.93 1 1 1.277 16.189-1.133 34.106-5 50-2.544 4.03-13.551 4.866-14 5.5-.646.911-.389 21.244 5 20.5-3.013 6.278-7.444 15.148-14.5 17-.854-.335-3.329-8.26-3.5-9.5-2.129-15.408 14.431-80.854 31-84.5"/><path fill="#3c8898" d="M736 625c7.756 5.283 4.975 24.225 4 32.5v-13l-4 3.5c.47-5.862 2.489-17.816-2-22-.075-.07-1.182.139-1-1 .919-.202 2.044.12 3 0"/><path fill="#0890c0" d="M416 631c.797.807 2.357 2.448 3 3l-39 13c-.917-1.054-2-1.7-3-3z"/><path fill="#3e7987" d="M215 657c-.522-8.553-2.115-16.361 0-25 1.171 7.361 1.442 15.06 2 22.5.064.846-.898 6.877-2 2.5"/><path fill="#27b9e1" d="M420 635c-7.52 12.676-25.841 8.356-33 18-2.248-2.266-4.521-3.15-7-6l39-13c.569.489.945.956 1 1"/><path fill="#81848d" d="M209 636c-2.223 25.064 9.33 67.001 22 89 12.367 21.471 29.91 33.742 34-1 .785-6.67-.706-16.839-1-24-.137-3.331.263-8.293 0-11l5-1c2.164 16.554 3.36 49.599-7 63.5-9.484 12.725-18.329-.776-25-10-19.52-26.991-31.262-72.436-31-105.5Z"/><path fill="#8b95a1" d="M290 652c4.261 6.247 8.263 34.434 9 43-1.806 2.041-4.575 2.978-7 4-.586-10.704-2.515-20.505-4-31-.483-3.416-3.87-17.533-1.5-19 .426.778 3.37 2.81 3.5 3"/><path fill="#056fa7" d="M520 656c-8.625 21.037-35.419 24.044-52 37-5.051-3.02-12.178-2.55-18-4 7.109-16.687 33.358-19.541 48.5-28 4.06-2.268 11.207-10.815 12-11 2.035-.475 6.461 5.759 9.5 6"/><path fill="#646972" d="M668 668c-1.181 9.288-5.291 19.494-4 29.5l-7-.5c1.372-17.795 4.132-29.086 9-46l3-.5c.669 5.852-.24 11.52-1 17.5"/><path fill="#32627f" d="M254 670c5.162-3.956 6.837 12.181 7 14.5.05.716-2.051.284-2 1 .285 4.029-1 14.56 5 14.5.294 7.161 1.785 17.33 1 24-.63.086-1.583-.164-2 0-1.251-3.165 2.166-21.574-3.5-21-1.289.131-.414 22.495-5.5 25-3.121.302-9.999 4.693-12-1 6.687-.246 6.318 1.558 12-5.5-9.232-.051-10.925-1.366-16-8.5l2-2c2.232 3.107 7.453 10.329 11 6.5 7.746-8.363-4.757-52.452-9-63.5l1-1c5.922 15.474 9.945 31.057 12 47.5l-2 17c6.687-11.511 4.087-34.067 1-47.5"/><path fill="#a7b4c0" d="M268 680c.428 2.48.664 5.434 1 8l-5 1c-.889-9.164-2.823-18.086-5-27l3-4c1.821 6.665 4.873 15.474 6 22"/><path fill="#146b89" d="M600 688c-.189 3.646 1.779 1.046 4 1-14.049 15.691-34.065 30.731-53 40-82.248 40.264-182.063 12.265-228-67l2-3c55.688 99.26 198.365 111.329 275 29"/><path fill="#7e838d" d="M695 667c-1.365 4.932-2.846 10.024-4 15-1.166 5.025-1.562 10.495-3 15.5-.371 1.292-.9 5.615-3 3.5.578-9.564 3.07-18.703 5-28 .397-1.911.518-3.971 1-6z"/><path fill="#585b66" d="M292 699c-5.86 2.471-12.681 5.024-19 6-.445-8.687-2.451-17.47-4-26 6.165-4.124 9.864-8.991 19-11 1.485 10.495 3.414 20.296 4 31"/><path fill="#3e3d46" d="M686 679c-1.816 7.587-2.487 18.091-3 26l-19.5-6c-.945.682-.508 13.678-.5 16l-7-1c-.203-5.926.552-11.192 1-17l7 .5c-1.291-10.006 2.819-20.212 4-29.5 6.681 4.636 13.183 3.664 18 11"/><path fill="#70ebfb" d="M235 701c-3.106-6.688-7.354-18.868-9-26 2.208 3.256 13.66 6.761 14 7.5.419.911-.63 18.853-5 18.5"/><path fill="#5ae4f5" d="M729 676c-1.677 6.892-5.954 19.653-9 26-5.389.744-5.646-19.589-5-20.5.449-.634 11.456-1.47 14-5.5"/><path fill="#056fa7" d="M423 682c5.634 2.359 10.921 5.441 17 7l-10 19c-9.527-3.015-16.486-5.601-25-11-2.259-7.198 8.531-11.122 10-18 2.96 1.461 5.508 1.957 8 3"/><path fill="#4ab9e2" d="M450 689c5.822 1.45 12.949.98 18 4-9.331-.416-18.982-1.688-28-4-6.079-1.559-11.366-4.641-17-7l1-1c6.18 2.528 19.291 6.33 26 8"/><path fill="#413f47" d="M691 704c-.59 6.289.431 13.134 0 19.5l-6 .5c-.603-6.378-.394-16.485 0-23 2.1 2.115 2.629-2.208 3-3.5 1.438-5.005 1.834-10.475 3-15.5 3.668-.432 3.017.599 3 3.5-.023 4.054-2.529 13.479-3 18.5"/><path fill="#0d4051" d="M570 759c20.95-5.049 40.18-13.993 59-24 5.089-2.706 10.061-4.902 15-8 3.04-1.907 5.969-4.076 9-6 .167 2.121.74 3.175 1 5-26.7 15.639-52.614 28.614-83 36-36.024 8.757-74.02 10.23-111 6-54.04-6.181-104.718-29.063-148-61-3.271-3.022-6.3-6.445-10-9-.065-1.388.106-2.654 0-4 72.014 61.782 175.046 87.401 268 65"/><path fill="#737680" d="m300 713-8 2c-.037-5.288.288-10.732 0-16 2.425-1.022 5.194-1.959 7-4 .519 6.038 1.148 11.897 1 18"/><path fill="url(#h)" d="M312 707c4.724 4.365 18.632 14.485 21 18.5 5.275 8.943 10.762 34.01 16 46 5.536 12.674 15.997 26.16 21 37.5 1 2.267 2.341 4.599 3 7 1.193 4.349.719 15.015 2 20.5 1.255 5.377 7.028 34.167 10.5 35.5 17.591 6.754 9.385-19.869 12.5-30 .265-.862-1.666-1.303-.5-2 3.159-.028 4.246 6.44 6.5 9.5 2.362 3.206 5.288 5.683 8 8.5 38.871 40.365 105.16 36.217 138-9.5 5.075-7.065 15.445-29.768 0-28.5 7.125-18.221 19.351-33.786 21-54 14.717-3.084 38.401-12.442 52-19-21.999 59.075-63.431 130.351-121.5 160-17.162 8.762-34.773 13.057-53.5 17-22.707-6.694-41.84-21.444-59-37-17.76-22.523-32.89-47.019-47-72 1.473-1.629 3.159 3.309 4-1.5L302 715c.314-5.238.247-11.733 0-17 3.7 2.555 6.729 5.978 10 9" style="fill:url(#h)"/>/&gt;<path fill="#4a4851" d="M292 699c.288 5.268-.037 10.712 0 16 .014 1.99-.026 4.01 0 6-1.817-8.856-13.647 1.148-19 1 .341-5.154.266-11.81 0-17 6.319-.976 13.14-3.529 19-6"/><path fill="#221e25" d="M683 705c-.991 15.27-2.161 32.346 6 45.5-1.744 2.979-5.867-1.377-6.5-1.5-16.094-3.131-20.034.04-24.5-18 9.541 4.932 5.022-9.412 5-16-.008-2.322-.445-15.318.5-16z"/><path fill="#2e2f34" d="M697 716c.239 8.374 6.14 16.888 14 12 7.098-4.414 9.924-13.412 14.5-20l-8.5 20c-14.887 23.523-18.576-1.764-23-2.5-5.767-.959 1.268 19.024 6.5 20.5 9.592 2.707 17.301-11.658 22-18 5.627 5.499-18.193 29.845-21 30-9.789.54-15.811-26.715-16.5-34l6-.5c.431-6.366-.59-13.211 0-19.5 3.548.155 2.541-2.107 3-4z"/><path fill="#6f7c89" d="M263 724c-2.23.877-4.36 3.281-6 5-1.212-.431-1.343-1.161-3-1 5.086-2.505 4.211-24.869 5.5-25 5.666-.574 2.249 17.835 3.5 21"/><path fill="#9dbdc8" d="m460 768 21.5 4c28.952-.08 61.186-.066 89.5-6-1.649 20.214-13.875 35.779-21 54-1.184.097-9.484 4.312-7 6-4.766 2.98-9.624 19.296-15 25.5-24.51 28.284-83.258 26.013-105-5-3.743-5.339-6.604-17.072-12-21.5-.375-8.605-14.235-2.432-15-4.5-.699-3.646 1.825-23.035-1.5-24.5-12.847 1.272-25.607-4.85-24.5 13-5.003-11.34-15.464-24.826-21-37.5-5.238-11.99-10.725-37.057-16-46-2.368-4.015-16.276-14.135-21-18.5 43.282 31.937 93.96 54.819 148 61"/><path fill="#5e5f69" d="M300 713c-.15 6.187-.482 11.977-2 18l-7 .5c1.052-3.535 1.047-6.857 1-10.5-.026-1.99.014-4.01 0-6z"/><path fill="#312f36" d="M663 715c.022 6.588 4.541 20.932-5 16-1.778-7.18-1.751-9.721-2-17z"/><path fill="#bbd2dc" d="M342 815c-15.557-27.543-29.405-55.502-41-85 .863-4.556.721-10.344 1-15l44 98.5c-.841 4.809-2.527-.129-4 1.5"/><path fill="#16222c" d="M702 722c2.522 3.232 4.062 5.087 9 6-7.86 4.888-13.761-3.626-14-12 1.386-2.755 3.303 3.825 5 6"/><path fill="#433f48" d="M292 721c.047 3.643.052 6.965-1 10.5l7-.5c-5.093 20.2-14.222 14.42-31.5 21 3.005-9.957 5.803-19.467 6.5-30 5.353.148 17.183-9.856 19-1"/><path fill="#5c8289" d="M644 727c-4.939 3.098-9.911 5.294-15 8-1.617-11.414.821-19.915 14.5-17z"/><path fill="#62606a" d="M238 729c10.523 12.259 9.454 10.003 19 0 1.64-1.719 3.77-4.123 6-5 .417-.164 1.37.086 2 0-4.09 34.742-21.633 22.471-34 1l2-2c1.328 2.154 3.358 4.087 5 6"/><path fill="#90c4d4" d="M654 726c.181 1.273-.25 2.758 0 4-5.843 1.208-11.037 6.155-16 9-4.815 2.76-10.006 5.592-15 8-13.599 6.558-37.283 15.916-52 19 .16-1.959 1.307-2.238 0-4 30.386-7.386 56.3-20.361 83-36"/><path fill="#8b9ca8" d="M254 728c1.657-.161 1.788.569 3 1-9.546 10.003-8.477 12.259-19 0 1.146-.238 3.088-1.966 4-2 2.001 5.693 8.879 1.302 12 1"/><path fill="#fcfdfd" d="M342 815c14.11 24.981 29.24 49.477 47 72-42.752-38.756-65.116-93.405-93-143 .726-.981 4.704-12.439 5-14 11.595 29.498 25.443 57.457 41 85"/><path fill="#769da5" d="M654 730c.34 1.69 5.367 15.426 6 16-28.679 50.296-48.332 101.281-92 141l-11 .5c38.464-37.688 68.202-89.889 82-142 .224-.846 2.181-7.247-1-6.5 4.963-2.845 10.157-7.792 16-9"/><path fill="#678a92" d="M568 887c-34.695 31.558-71.564 51.279-120 37 18.727-3.943 36.338-8.238 53.5-17 58.069-29.649 99.501-100.925 121.5-160 4.994-2.408 10.185-5.24 15-8 3.181-.747 1.224 5.654 1 6.5-13.798 52.111-43.536 104.312-82 142z"/><path fill="#124658" d="M389 887c17.16 15.556 36.293 30.306 59 37 48.436 14.279 85.305-5.442 120-37 43.668-39.719 63.321-90.704 92-141 .27.244 5.071 1.063 7 2-32.748 57.065-59.333 124.697-116.5 162-110.338 71.999-190.037-29.626-238.5-118.5-7.77-14.249-12.064-31.276-22-43.5 1.728-.912 4.907-2.524 6-4 27.884 49.595 50.248 104.244 93 143"/><path fill="#c0e5ef" d="M571 762c1.307 1.762.16 2.041 0 4-28.314 5.934-60.548 5.92-89.5 6l-21.5-4c36.98 4.23 74.976 2.757 111-6"/><path fill="#c1dce6" d="M411 825c-2.548-2.091-5.334-4.065-8.5-2-9.829 6.412 8.71 29.772 14.5 35h-5c-2.712-2.817-5.638-5.294-8-8.5-2.254-3.06-3.341-9.528-6.5-9.5-1.166.697.765 1.138.5 2l-25-26c-.659-2.401-2-4.733-3-7-1.107-17.85 11.653-11.728 24.5-13 3.325 1.465.801 20.854 1.5 24.5.765 2.068 14.625-4.105 15 4.5"/><path fill="#aac4cf" d="M398 842c-3.115 10.131 5.091 36.754-12.5 30-3.472-1.333-9.245-30.123-10.5-35.5-1.281-5.485-.807-16.151-2-20.5z"/><path fill="#abdceb" d="M412 858h5c34.851 31.466 105.585 27.856 132-12.5 6.658-10.172 8.63-28.648-6-19.5-2.484-1.688 5.816-5.903 7-6 15.445-1.268 5.075 21.435 0 28.5-32.84 45.717-99.129 49.865-138 9.5"/><path fill="#070b10" d="M411 825c5.396 4.428 8.257 16.161 12 21.5 21.742 31.013 80.49 33.284 105 5 5.376-6.204 10.234-22.52 15-25.5 14.63-9.148 12.658 9.328 6 19.5-26.415 40.356-97.149 43.966-132 12.5-5.79-5.228-24.329-28.588-14.5-35 3.166-2.065 5.952-.091 8.5 2"/></svg>