<svg xmlns="http://www.w3.org/2000/svg" width="1024" height="1024"><defs><linearGradient id="a" x1="740.895" x2="800.2" y1="273.076" y2="312.113" gradientUnits="userSpaceOnUse"><stop offset="0%" style="stop-color:#8da5a9"/><stop offset="100%" style="stop-color:#526a71"/></linearGradient></defs><defs><linearGradient id="b" x1="558.852" x2="360.217" y1="329.279" y2="474.401" gradientUnits="userSpaceOnUse"><stop offset="0%" style="stop-color:#146a8b"/><stop offset="36.585%" style="stop-color:#0da6cb"/><stop offset="100%" style="stop-color:#3cc6e7"/></linearGradient></defs><defs><linearGradient id="c" x1="721.911" x2="758.701" y1="372.874" y2="408.194" gradientUnits="userSpaceOnUse"><stop offset="0%" style="stop-color:#506b75"/><stop offset="100%" style="stop-color:#405766"/></linearGradient></defs><defs><linearGradient id="d" x1="507.612" x2="421.651" y1="361.791" y2="446.948" gradientUnits="userSpaceOnUse"><stop offset="0%" style="stop-color:#04324b"/><stop offset="100%" style="stop-color:#0f4e6a"/></linearGradient></defs><defs><linearGradient id="e" x1="672.674" x2="406.269" y1="575.353" y2="604.545" gradientUnits="userSpaceOnUse"><stop offset="0%" style="stop-color:#308dc4"/><stop offset="46.642%" style="stop-color:#99e1f7"/><stop offset="100%" style="stop-color:#237ab0"/></linearGradient></defs><defs><linearGradient id="f" x1="628.268" x2="460.526" y1="654.878" y2="664.19" gradientUnits="userSpaceOnUse"><stop offset="0%" style="stop-color:#4ba4d8"/><stop offset="45.238%" style="stop-color:#9de3f8"/><stop offset="100%" style="stop-color:#53abde"/></linearGradient></defs><path fill="#072f46" d="M712 690c-.803.212-6.809 5.659-7 1.5 11.072-12.252 17.881-27.36 24-42.5 3.784-9.362 7.608-18.628 10-28.5-4.867 2.86-8.64 7.806-13 11.5-59.086 50.054-153.563 78.597-230.5 61-.325-.074.02-3.054-4-4-14.205-3.343-31.262-5.974-45-10-4.243-1.243-23.985-11.657-26.5-9.5-.175.15 1.664 3.953-1 4.5-1.161-.623-3.337-.995-5-2-13.733-8.296-26.044-24.108-40-32.5 10.732 15.082 18.03 32.618 29 47.5-1.764 1.338-2.721.396-4-1-8.98-9.803-17.435-34.24-27-46.5-7.47-9.575-21.616-21.106-31-29.5.155.182 1.757-.198 2 0 4.172 3.387 8.29 6.409 13 9 8.624 8.889 19.974 18.854 30 26 68.134 48.565 190.557 60.021 267.5 28 14.769-6.146 32.861-17.128 44.5-27 39.322-23.893 67.691-57.906 71-106 .386-5.615.941-14.848-1.5-20-5.524 43.944-41.919 62.857-73.5 87-5.831 2.956-11.671 6.01-17.5 9-12.554 4.508-25.01 9.356-37.5 14-14.239 5.294-29.503 10.675-44 15-6.346-.874-12.803.993-19 2l-.5-4c-35.277 5.587-70.953 6.012-106.5 3-16.646-1.41-33.594-5.814-50-5-30.45-7.663-48.558-18.35-76-31-.207-.095-5.617-4.252-2 0-4.569-4.087-23.848-24.292-25.5-25-7.391-3.165-34.241-5.14-45-8-101.879-27.08-109.351-97.175-39.5-168.5-4.924-14.269 1.134-38.401-2-51-.95-3.818-47.722-58.4-51.5-59.5-8.571-2.496-13.335 1.926-24-6-41.931-31.161 35.64-107.878 66.5-69.5 3.16 3.93 4.954 12.347 7 15 2.315 3.003 25.621 26.842 27.5 26.5 40.873-79.84 112.787-133.121 199-156 57.68-15.307 120.104-21.587 177-1 59.835 21.65 109.214 65.684 143 119 2.108.346 31.605-23.864 33.5-26.5 3.717-5.169 3.434-13.244 11.5-19.5 35.875-27.826 102.588 50.918 65 82-12.836 10.614-16.719 4.782-27 7-2.247.485-28.074 28.727-33.5 31.5 48.054 58.876-10.815 116.514-53 156 2.204 13.685 2.047 27.185 2 41-.133 39.239 1.818 63.13-17 100-2.826 5.537-10.976 13.286-13 18-5.192 12.095-6.972 30.779-13 45-4.199 9.905-10.803 20.667-17 29.5M455 115c-36.881 8.144-72.815 24.621-104 46-38.96 26.71-71.062 67.062-92 109-21.52 31.64-31.292 75.158-26.5 113 5.052-81.816 55.228-148.757 129-182 95.994-43.257 207.442-38.457 275.5 50 49.215 63.966 66.632 150.07 47 228.5 7.954-3.814 14.719-9.678 22-14.5 24.992-16.549 78.232-57.747 89-85.5 1.934-4.984.027-52.559-2.5-53.5-3.015 2.461-15.938 9.294-17.5 11.5-3.674 5.188-1.677 13.201-10.5 19.5-21.626 15.44-55.013-7.899-65.5-28-11.714-22.453-19.458-71.839 17.5-74 4.731-.277 14.762 3.449 17 3 2.172-.435 33.806-25.702 33.5-28.5-.564-5.162-34.759-49.222-41.5-50.5-28.418-5.388-67.399 12.549-78.5 40-4.166 10.302-3.177 20.56-6 28-.416-2.067-1.142-8.412-1-10 3.404-38.129 35.679-57.243 71-60 2.065-.161 16 1.254 16-.5-71.084-74.597-175.033-95.931-272-61.5m-12 64c-126.852 18.666-227.416 117.8-204 253 .831 4.796 3.481 7.717 5 12 11.11 31.324 27.752 61.22 51 85 5.12 6.342 10.363 12.147 16 18-4.813-3.374-9.45-6.597-15-12.5-16.282-17.319-30.234-37.181-42.5-57.5-25.003 21.755-11.255 44.924 4.5 67-33.687-11.867-61.278-40.91-47-78.5 3.116-8.203 23.584-33.877 24-36 .305-1.557-2.294-10.389-2-13-13.28 11.785-23.406 26.605-31 42.5-54.237 113.522 120.755 125.05 191.5 123 81.804-2.37 166.243-22.96 241.5-54 47.059-19.41 85.91-41.614 125-74 42.199-34.961 104.25-92.283 58.5-149-1.204-.012-5.621 5.368-6.5 6-1.171.842-1.743 1.805-2 2-2.055 1.555-11.987 7.081-12 9.5 5.937 6.466 7.515 15.449 10.5 23.5l2.5-17c1.734 41.916-12.514 63.309-41 92-13.007 13.101-31.825 28.459-47 39-13.124 9.117-27.965 17.313-42 25-66.743 36.557-139.933 57.836-215 70-68.32 11.071-141.195 13.196-207-11 .118.041-.505-2.673 1.5-2 17.102 5.739 33.262 12.527 52 14 .834.066 5.244-.106 5.5-.5l-7-6 2-.5c2.988.816 8.866 8.402 10.5 9 13.778 5.039 84.265 2.014 101.5 0 3.096-.362 14.677 1.302 15-4 19.16 1.287 86.464-11.013 103-20 2.265 3.706 2.835 1.213 4 1 19.184-3.506 120.071-41.424 132-53 2.243-2.176 2.803-2.084 4-5.5 7.879-22.482 6.548-69.721 4-93.5-9.511-88.776-65.641-172.941-154-198-31.85-9.033-57.135-10.836-90-6m410 47c.557 10.757-3.103 9.803-12.5 8 7.601 11.248 19.254-1.188 21-11 15.21 11.751 6.837 25.813-11.5 23-17.715-13.386-40.52-41.576-26.5-64-16.594 13.967-20.106 30.701-10.5 50 6.359 12.776 19.797 25.838 33.5 30-2.469-2.375-.345-2.459 1.5-4 8.633-7.213 6.087-.502 10.5 0 5.443.619 17.319.505 22.5-1 24.378-7.08 6.193-41.086-3-53-3.646-4.726-6.311-8.186-11-12-39.112-31.814-62.598.35-32 33.5-2.73-3.042-8.26-25.058-2.5-24.5 3.929.381 1.029 10.09 1.5 12.5.086.439 3.435 6.082 4 8 .624 2.117-.693 7.279 0 9 1.651 4.1 17.804 4.542 15-4.5m-92 14c-14.59 11.113-29.692 21.878-45 32 4.343-3.389 8.481-8.872 14-11.5.094-3.075-10.674-2.612-13-2.5-5.113.247-4.02.426-8 2-6.06 2.397-11.383 7.589-14 14-9.782 23.969 7.952 69.644 33 78.5-11.182-6.646-2.792-8.098-2-11.5-2.978 3.56-.975 4.643 0 6 4.983 6.931 25.448 12.926 33.5 11 10.447-2.499 11.383-18.147 16.5-24 4.7-5.375 22.476-15.786 29.5-22 16.354-14.469 32.365-30.12 48-45-.268-.283-4.886-.738-5.5-1-11.158-4.763-19.938-9.713-28-19-2.918-3.361-10.367-14.76-13-19-.348-.56-.657-1.433-1-2-1.395-2.306-3.818-4.571-5-7-.842-1.73-1.178-10.193-2.5-10-12.494 10.189-24.697 21.248-37.5 31m-595-11c-14.292 11.315-38.219 49.874-10 57 5.919 1.495 11.577.533 17.5 1 .366.029.935 2.899 2 3 2.922.277 7.739-2.003 10.5-3 4.525 3.215 3.603 3.483-1 5.5 11.524-.776 20.632-9.28 28-17.5 2.634-2.938 7.326-6.709 9-10.5 5.339-12.089 2.061-34.833-9.5-43.5 5.196 9.392 4.041 14.485.5 24-3.634 9.764-19.276 28.295-29 32-.931-2.831 1.323-4.377 2-6 .048-.115 1.682-.647 2-1.5-9.145-1.394-18.167-11.292-13.5-20.5.953 4.529 3.131 4.207.5 8.5l4.5-4.5c.331 4.48-.838 7.414 3 11 3.34-1.825-5.121-6.025.5-6 2.602 4.248 7.782 6.632 12 6 4.934-.739 15.526-18.324 17-23 10.691-33.905-28.164-26.121-46-12m48 49c-9.316 9.793-14.84 12.296-27 17-.76.294-1.238.71-2 1-1.404.535-3.773-.896-5 1.5l48.5 53.5c1.643-1.163-.814-2.317-.5-3 1.512-3.292 1.21-2.021 2-6 1.271-6.405 2.53-12.636 4-19 4.644-20.103 8.627-29.344 16-48 .704-1.78.631-2.81 1-4 .08-.258 3.048-4.141 3-4.5-6.946-4.248-16.169-17.96-22-21.5-.909-.552-2.526-2.957-4-1.5 1.582 15.235-3.989 23.977-14 34.5m19.5 158c-20.866 22.008-35.354 51.571-14 79 2.806-10.716.935-21.649 4.5-32.5 2.554-7.773 17.745-24.43 18-26 .304-1.872-6.019-20.807-8.5-20.5M750 471c-125.255 83.327-284.933 125.048-435.5 110l58.5 20c-8.366-1.245-16.849-3.774-25-6-9.86-2.693-19.005-6.347-28.5-10 11.226 21.707 35.673 27.081 56 35 1.132.441-1.425 2.142-.5 2.5 19.913 7.714 40.816 9.566 62 12.5 16.856 2.335 39.496 7.681 56 6 39.821 2.784 74.47-2.083 113-10 12.231-2.513 33.225-4.704 44-9 31.744-10.021 87.536-43.063 104-72.5 7.732-13.825 15.786-52.043 16-68.5.042-3.267.377-6.805-.5-10-.786-.661-5.266 4.675-5.5 5 1.635-3.404 5.46-12.62 4-16-.615-1.423-2.052-.712-2.5-3-4.607 5.328-10.646 8.954-15.5 14"/><path fill="#abc0c8" d="m711 177-8.5-1 3-4c-12.999-.854-22.686 2.351-33.5 8-16.41 8.572-34.435 25.696-37 45-25.481-26.339-53.822-48.951-90-58.5 8.082-2.887 35.221 14.583 38.5 14.5 1.196-.03 16.925-11.128 21.5-10.5 1.802-4.607-35.993-17.835-37-21-2.021-6.355 13.243-22.111 20-23-1.575-1.935-7.393 1.724-9 2.5-20.815 5.233-38.677 26.116-58 34-6.23 2.542-65.557 5.62-77.5 6-1.621.052-3.64-.464-4.5-2 20.291-3.983 38.582-3.548 58.5-6 1.49-.183 4.599.821 3-2l-71.5 6c.773-.219 4.415-1.395 7-2 26.84-5.199 56.18-.604 81.5-11l5-5c-9.896 7.814-20.757 7.613-32.5 9 3.013-3.493 3.628-3.713 3-9 16.7-3.53 18.93-5.287 32-15l4 11 1.5 1c.497-.015 3.905-3.582 4.5-4 5.134-3.603 9.528-6.802 15-10 12.718-7.432 25.024-11.792 37.5-18 4.718-2.347 1.742-.508.5-2-4.713-5.664-5.118-.998-5.5-1-19.318-.083-69.186 1.03-86 7-1.883.668-3.03 1.754-2.5 4-6.134.802-11.967 1.608-18 3 1.414-4.109-8.871-2.117-9.5-2-6.37 1.182-18.407 6.881-24 7-4.018.085-1.377-.704-1.5-3 14.512-4.434 29.675-8.741 44.5-12 4.459-.98 26.175-3.009 28-4 6.451-3.504-12.004-2.089-13-2-12.332 1.097-33.69 5.392-45.5 8 96.967-34.431 200.916-13.097 272 61.5 0 1.754-13.935.339-16 .5"/><path fill="#fafcfc" d="M441 125c-27.269 8.332-58.036 20.639-82.5 33-3.782 1.911-6.332 6.906-10.5 8v-1c1.235-1.137 3.425-1.621 3-4 31.185-21.379 67.119-37.856 104-46 11.81-2.608 33.168-6.903 45.5-8 .996-.089 19.451-1.504 13 2-1.825.991-23.541 3.02-28 4-14.825 3.259-29.988 7.566-44.5 12"/><path fill="#9fb9c1" d="m588 110-38 20c-5.472 3.198-9.866 6.397-15 10l-6 3-4-11c4.587-3.409 8.876-6.85 14-9.5-.105-2.347-21.465-1.59-24-1.5-2.687-4.785-6.653-2.595-11-2-3.491-.742-6.762.576-10 1-.53-2.246.617-3.332 2.5-4 16.814-5.97 66.682-7.083 86-7 .382.002.787-4.664 5.5 1"/><path fill="#f0f6f6" d="M588 110c1.242 1.492 4.218-.347-.5 2-12.476 6.208-24.782 10.568-37.5 18z"/><path fill="#c1d5da" d="M515 121c-31.275 1.107-61.668 10.128-87 28.5 3.645 11.703 21.967 2.489 30.5 1.5 11.608-1.346 22.993-1.568 34.5-4 .628 5.287.013 5.507-3 9-19.628 2.318-34.046 2.329-54 7-2.585.605-6.227 1.781-7 2-9.534 2.704-19.152 7.584-29 8 .656-.921 1.302-2.126 2-3 26.942-33.728 60.046-45.259 102-51 4.347-.595 8.313-2.785 11 2"/><path fill="#2c4e5b" d="M504 119c-41.954 5.741-75.058 17.272-102 51h-1c25.96-28.357 35.583-37.905 75-47 6.033-1.392 11.866-2.198 18-3 3.238-.424 6.509-1.742 10-1"/><path fill="#d4e2e6" d="M476 123c-39.417 9.095-49.04 18.643-75 47-15.378 16.798-19.697 13.314-39.5 22-4.376 1.919-26.415 14.892-28 15-1.414.097-2.748.403-2.5-1.5.263-1.392.82-1.913 1-3.5 1.291-11.394 9.589-26.596 16-36 4.168-1.094 6.718-6.089 10.5-8 24.464-12.361 55.231-24.668 82.5-33 .123 2.296-2.518 3.085 1.5 3 5.593-.119 17.63-5.818 24-7 .629-.117 10.914-2.109 9.5 2"/><path fill="#033048" d="M515 121c2.535-.09 23.895-.847 24 1.5-5.124 2.65-9.413 6.091-14 9.5-13.07 9.713-15.3 11.47-32 15-11.507 2.432-22.892 2.654-34.5 4-8.533.989-26.855 10.203-30.5-1.5 25.332-18.372 55.725-27.393 87-28.5"/><path fill="#cfdde1" d="M635 225c-.322 2.426-.367 1.767 0 4-12.72-15.398-28.13-29.056-45.5-39-21.417-12.26-43.737-19.622-66-23-1.698-.258-4.45-1.392-2.5-3 20.416-8.748 37.761-25.226 58-35 1.607-.776 7.425-4.435 9-2.5-6.757.889-22.021 16.645-20 23 1.007 3.165 38.802 16.393 37 21-4.575-.628-20.304 10.47-21.5 10.5-3.279.083-30.418-17.387-38.5-14.5 36.178 9.549 64.519 32.161 90 58.5"/><path fill="#1b3d4a" d="M579 129c-20.239 9.774-37.584 26.252-58 35v-1c19.323-7.884 37.185-28.767 58-34"/><path fill="#f0f6f6" d="M535 140c-.595.418-4.003 3.985-4.5 4l-1.5-1zm-99 23c19.954-4.671 34.372-4.682 54-7 11.743-1.387 22.604-1.186 32.5-9l-5 5c-25.32 10.396-54.66 5.801-81.5 11"/><path fill="#eff5f4" d="M439 167c-8.4 1.649-16.223 5.317-22.5 7-1.763.473-2.536.317-5 1-1.508.418-15.418 3.431-15.5 2.5 1.548-1.372 2.8-2.816 4-4.5 9.848-.416 19.466-5.296 29-8l71.5-6c1.599 2.821-1.51 1.817-3 2-19.918 2.452-38.209 2.017-58.5 6"/><path fill="#cedfe3" d="M351 161c.425 2.379-1.765 2.863-3 4-12.457 11.472-11.963 21.648-17 36-1.375 3.917-1.289 7.871-4.5 11-6.339 6.177-26.745 16.155-36 24-9.899 8.39-24.277 23.38-31.5 34 20.938-41.938 53.04-82.29 92-109"/><path fill="#8ba4aa" d="M521 163v1c-1.95 1.608.802 2.742 2.5 3 22.263 3.378 44.583 10.74 66 23 17.37 9.944 32.78 23.602 45.5 39 .053.324-.069.684 0 1 .557 2.535 2.626 5.779 5 7-.142 1.588.584 7.933 1 10-.567 1.495-2.532 3.287-4 4-68.058-88.457-179.506-93.257-275.5-50-73.772 33.243-123.948 100.184-129 182-4.792-37.842 4.98-81.36 26.5-113 7.223-10.62 21.601-25.61 31.5-34 9.255-7.845 29.661-17.823 36-24 3.211-3.129 3.125-7.083 4.5-11l1 1c-.18 1.587-.737 2.108-1 3.5-.248 1.903 1.086 1.597 2.5 1.5 1.585-.108 23.624-13.081 28-15 19.803-8.686 24.122-5.202 39.5-22h1c-.698.874-1.344 2.079-2 3-1.2 1.684-2.452 3.128-4 4.5.082.931 13.992-2.082 15.5-2.5 2.464-.683 3.237-.527 5-1 6.277-1.683 14.1-5.351 22.5-7 .86 1.536 2.879 2.052 4.5 2 11.943-.38 71.27-3.458 77.5-6"/><path fill="#11303d" d="M348 166c-6.411 9.404-14.709 24.606-16 36l-1-1c5.037-14.352 4.543-24.528 17-36z"/><path fill="#9fbbc2" d="M711 177c-35.321 2.757-67.596 21.871-71 60-2.374-1.221-4.443-4.465-5-7 4.736-22.324 19.275-37.001 37-50 10.814-5.649 20.501-8.854 33.5-8l-3 4z"/><path fill="#d6eef4" d="m533 185-59 64c-60.32-7.984-114.395 14.105-147 66h-7a184 184 0 0 1 9-14.5c1.799-2.606 16.988-17.747 12.5-18.5-1.498-.251-17.467 20.012-19.5 23l-24-23c31.728-29.02 62.812-45.772 102.5-61 10.897-4.181 49.513-7.411 46.5-24.5-.07-.397-3.447-4.326-4-7-.604-2.922.433-7.343 0-10.5 32.865-4.836 58.15-3.033 90 6"/><path fill="#f7fbfc" d="M298 282c-37.195 34.02-55.013 68.492-52 120.5 2.193 5.191 2.198-1.156 5 1.5-1.377 1.088-1.88 1.721-3 3-6.668 7.616-7.665 15.367-9 25-23.416-135.2 77.148-234.334 204-253 .433 3.157-.604 7.578 0 10.5.553 2.674 3.93 6.603 4 7 3.013 17.089-35.603 20.319-46.5 24.5-39.688 15.228-70.772 31.98-102.5 61m23.5-48c-2.788.193-27.448 21.882-30.5 25.5-2.585 3.064-14.308 17.421-10.5 20.5 4.298-6.378 45.258-39.396 45.5-42.5.209-2.685-2.089-3.667-4.5-3.5"/><path fill="#719195" d="m699 329-5-2-47-108c11.101-27.451 50.082-45.388 78.5-40 6.741 1.278 40.936 45.338 41.5 50.5.306 2.798-31.328 28.065-33.5 28.5-2.238.449-12.269-3.277-17-3-36.958 2.161-29.214 51.547-17.5 74"/><path fill="#e7efef" d="m867 192-6 4.5 9 8.5c-4.551-2.005-8.582-7.995-14-8.5 4.098 5.7 6.493 13.47 5.5 20.5l-6-15-4.5 1.5 2.5 11.5c-.644.147-4.883-12.528-7.5-8.5 4.815 5.513 6.632 12.386 7 19.5 2.804 9.042-13.349 8.6-15 4.5-.693-1.721.624-6.883 0-9-.565-1.918-3.914-7.561-4-8-.471-2.41 2.429-12.119-1.5-12.5-5.76-.558-.23 21.458 2.5 24.5-30.598-33.15-7.112-65.314 32-33.5m-31.5-8c-.349.057-6.841 2.956-5 5 6.849-6.912 14.59-1.131 21.5 2.5-2.6-5.341-11.05-8.387-16.5-7.5"/><path fill="#1b3847" d="M672 180c-17.725 12.999-32.264 27.676-37 50-.069-.316.053-.676 0-1-.367-2.233-.322-1.574 0-4 2.565-19.304 20.59-36.428 37-45"/><path fill="#8cb4b9" d="M850 246c11.818 8.93 15.061 10.621 31 11-5.181 1.505-17.057 1.619-22.5 1-4.413-.502-1.867-7.213-10.5 0-8.197-.45-28.54-27.335-30.5-28-2.591-.879-3.103.589-4.5 2-9.606-19.299-6.094-36.033 10.5-50-14.02 22.424 8.785 50.614 26.5 64m-34.5-49c-4.322 12.391 4.84 27.537 12 37 4.156-.855-9.431-24.306-10.5-27.5-1.031-3.081-.724-6.392-1.5-9.5"/><path fill="#56717d" d="M835.5 184c5.45-.887 13.9 2.159 16.5 7.5-6.91-3.631-14.651-9.412-21.5-2.5-1.841-2.044 4.651-4.943 5-5"/><path fill="#b7d8e2" d="M687 383c-2.071.511-2.679-2.025-3-3.5-8.903-40.93-16.365-76.308-42-111-2.689-3.639-13.606-19.429-17-14.5-5.733-14.606-22.181-22.188-37-20-29.032 4.287-38.812 39.971-17 60 2.48 2.277 5.571 3.681 8 6-2.882-.484-6.17-.254-8 2-16.676-19.394-42.488-36.383-67-44 1.617-1.741-.127-2.53-1.5-3-8.688-2.976-19.371-4.792-28.5-6l59-64c88.359 25.059 144.489 109.224 154 198"/><path fill="#5f8289" d="M867 192c4.689 3.814 7.354 7.274 11 12-2.092-.743-3.668 2.888-4.5 3-1.513.204-2.923-1.746-3.5-2l-9-8.5z"/><path fill="#456671" d="M870 205c.577.254 1.987 2.204 3.5 2 .832-.112 2.408-3.743 4.5-3 9.193 11.914 27.378 45.92 3 53-15.939-.379-19.182-2.07-31-11 18.337 2.813 26.71-11.249 11.5-23-1.746 9.812-13.399 22.248-21 11 9.397 1.803 13.057 2.757 12.5-8-.368-7.114-2.185-13.987-7-19.5 2.617-4.028 6.856 8.647 7.5 8.5l-2.5-11.5 4.5-1.5 6 15c.993-7.03-1.402-14.8-5.5-20.5 5.418.505 9.449 6.495 14 8.5"/><path fill="#dfeced" d="M815.5 197c.776 3.108.469 6.419 1.5 9.5 1.069 3.194 14.656 26.645 10.5 27.5-7.16-9.463-16.322-24.609-12-37"/><path fill="#c7d7db" d="m801 219-25 21c-7.916 4.934-14.112 12.505-23 16 2.283-3.308 6.45-11.92 8-16 12.803-9.752 25.006-20.811 37.5-31 1.322-.193 1.658 8.27 2.5 10"/><path fill="#ecf2f1" d="M212 241c-2.016.472-2.432-1.559-4-2 2.487-1.203-2.952-10.946-4-12 1.506-5.434-8.679-5.408-11.5-5l-31 18c-2.949.018.59-2.652 1-3 4.978-4.23 12.271-3.41 3.5-8 17.836-14.121 56.691-21.905 46 12"/><path fill="#46626c" d="M694 327c9.065 14.42 13.201 31.019 17 47.5l-5 90.5c-7.281 4.822-14.046 10.686-22 14.5 19.632-78.43 2.215-164.534-47-228.5 1.468-.713 3.433-2.505 4-4 2.823-7.44 1.834-17.698 6-28z"/><path fill="#d8e5e6" d="M806 226c-9.08 2.847-22.098 9.074-30 14l25-21c1.182 2.429 3.605 4.694 5 7"/><path fill="#8ba4a6" d="m213 275-3.5-4c-2.094 2.585-4.79 4.204-7.5 6 3.958-4.364.87-6.59 1-7 9.613-7.544 16.189-20.18 17-32.5-2.713-.691-3.682 5.524-5 8.5l-2-1c3.541-9.515 4.696-14.608-.5-24 11.561 8.667 14.839 31.411 9.5 43.5-1.674 3.791-6.366 7.562-9 10.5"/><path fill="#476872" d="M204 227c-6.201-6.238-13.511-3.2-20 1-8.197 5.306-13.79 17.558-13 27-14.445 6.966-2.502 24.556 10 23-6.625 6.97-16.452 6.2-25 8-28.219-7.126-4.292-45.685 10-57 8.771 4.59 1.478 3.77-3.5 8-.41.348-3.949 3.018-1 3l31-18c2.821-.408 13.006-.434 11.5 5"/><path fill="#dfe5e4" d="M204 227c1.048 1.054 6.487 10.797 4 12-.12-.034.219 3.043-1.5 2-1.888-1.145-1.394-10.98-12-9-5.301.989-4.971 8.231-14.5 1.5l4-5.5c6.489-4.2 13.799-7.238 20-1"/><path fill="#fcfdfd" d="M806 226c.343.567.652 1.44 1 2-19.122 17.679-41.689 33.515-64 47-11.546 6.978-23.591 13.618-36 19-.321-1.302-.868-2.264-1-3 3.313.211 6.706-1.527 9.5-3 16.452-8.67 26.929-16.682 37.5-32 8.888-3.495 15.084-11.066 23-16 7.902-4.926 20.92-11.153 30-14"/><path fill="#b3c4c6" d="M208 239c1.568.441 1.984 2.472 4 2-1.474 4.676-12.066 22.261-17 23 1.553-3.814 3.775-6.982 5-11 8.349-27.377-21.564-14.446-16 5-.333.009-.667-.007-1 0-5.621-.025 2.84 4.175-.5 6-3.838-3.586-2.669-6.52-3-11l-4.5 4.5c2.631-4.293.453-3.971-.5-8.5-4.667 9.208 4.355 19.106 13.5 20.5-.318.853-1.952 1.385-2 1.5-7.323-.082-14.441-9.327-15-16-.79-9.442 4.803-21.694 13-27l-4 5.5c9.529 6.731 9.199-.511 14.5-1.5 10.606-1.98 10.112 7.855 12 9 1.719 1.043 1.38-2.034 1.5-2m-24.5 1-2 6 3.5-5.5z"/><path fill="#98aeb3" d="M820 247c-7.455 1.637 1.142 6.815 1 10.5-.275 7.111-19.269 27.961-25.5 32.5-24.253 17.666-44.443 17.365-52.5-15 22.311-13.485 44.878-29.321 64-47 2.633 4.24 10.082 15.639 13 19"/><path fill="#567177" d="M848 258c-1.845 1.541-3.969 1.625-1.5 4-13.703-4.162-27.141-17.224-33.5-30 1.397-1.411 1.909-2.879 4.5-2 1.96.665 22.303 27.55 30.5 28"/><path fill="#0e2f40" d="M625 254c4.007 10.208 3.795 23.163-1 33-10.431 21.402-27.698 15.904-45 13-2.429-2.319-5.52-3.723-8-6l2-3c.237.093.646-.041 1 0 33.322 29.436 71.409-25.961 36-48-2.541-1.581-4.993-3.365-8-4 1.874-6.696-11.877-2.155-14-5 14.819-2.188 31.267 5.394 37 20"/><path fill="#d7eef4" d="M321.5 234c2.411-.167 4.709.815 4.5 3.5-.242 3.104-41.202 36.122-45.5 42.5-3.808-3.079 7.915-17.436 10.5-20.5 3.052-3.618 27.712-25.307 30.5-25.5"/><path fill="#82807a" d="M588 234c2.123 2.845 15.874-1.696 14 5-26.675-5.635-47.939 19.96-35 44.5.452.857 5.553 7.324 6 7.5l-2 3c-21.812-20.029-12.032-55.713 17-60"/><path fill="#56737d" d="M200 253c-5.113 10.067-7.794 4.782-16 5-5.564-19.446 24.349-32.377 16-5"/><path fill="#f0f5f4" d="M203 270c1.677-5.296 8.93-17.069 12-24 1.318-2.976 2.287-9.191 5-8.5-.811 12.32-7.387 24.956-17 32.5"/><path fill="#dbe5e6" d="M602 239c3.007.635 5.459 2.419 8 4-2.96 5.161-9.541-4.801-9 2-3.333-1.349-6.323-2.08-10-2-4.128.09-5.285.449-9 2-17.984 7.507-20.496 35.203-4 44-.12.775-3.778 2.026-4 2-.354-.041-.763.093-1 0-.447-.176-5.548-6.643-6-7.5-12.939-24.54 8.325-50.135 35-44.5"/><path fill="#dfe5e4" d="m183.5 240 1.5.5-3.5 5.5z"/><path fill="#9cb3b7" d="M753 256c-10.571 15.318-21.048 23.33-37.5 32-2.794 1.473-6.187 3.211-9.5 3-1.185-6.588-1.591-13.381 0-20 1.507 10.237 4.539 5.262 10 1 15.308-10.122 30.41-20.887 45-32-1.55 4.08-5.717 12.692-8 16"/><path fill="#628591" d="M601 245c1.907.772 3.34 1.821 5 3l-2 1c-3.951-2.285-11.515-1.796-13-6 3.677-.08 6.667.651 10 2"/><path fill="#80a1a5" d="M610 243c35.409 22.039-2.678 77.436-36 48 .222.026 3.88-1.225 4-2 27.954 14.906 55.018-21.813 28-41-1.66-1.179-3.093-2.228-5-3-.541-6.801 6.04 3.161 9-2"/><path fill="#a2b8bd" d="M232 245c-1.219 3.611-2.445 9.356-1 13 1.161 2.927 15.415 14.427 19 17-7.373 18.656-11.356 27.897-16 48-6.093-1.886-21.21-31.928-21-35.5.032-.54 6.896-7.735 1-9.5 10.011-10.523 15.582-19.265 14-34.5 1.474-1.457 3.091.948 4 1.5"/><path fill="#769296" d="M591 243c1.485 4.204 9.049 3.715 13 6 28.225 16.324-6.026 55.362-29 32 .234-1.199 1.071-6.654 1-7 9.101 3.184 20.903-10.015 11.5-16-.756-.481-5.522.733-7.5-2.5 4.38-2.426 7.622-6.324 0-4.5-1.704-3.221.709-3.34 2-6 3.715-1.551 4.872-1.91 9-2"/><path fill="#90b6ba" d="M215 246c-3.07 6.931-10.323 18.704-12 24-.13.41 2.958 2.636-1 7-5.51 3.652-9.501 7.653-16 10-2.761.997-7.578 3.277-10.5 3-1.065-.101-1.634-2.971-2-3-5.923-.467-11.581.495-17.5-1 8.548-1.8 18.375-1.03 25-8 1.652-.206 1.788-.538 3-1 9.724-3.705 25.366-22.236 29-32z"/><path fill="#cedfe1" d="M251 271c-6.861-2.233-12.265-15.243-20-13-1.445-3.644-.219-9.389 1-13 5.831 3.54 15.054 17.252 22 21.5.048.359-2.92 4.242-3 4.5"/><path fill="#1c4861" d="M582 245c-1.291 2.66-3.704 2.779-2 6-2.961.708-2.063 1.339-3 2-10.567 7.451-10.6 19.255-2 28 22.974 23.362 57.225-15.676 29-32l2-1c27.018 19.187-.046 55.906-28 41-16.496-8.797-13.984-36.493 4-44"/><path fill="#f6fafa" d="M474 249c9.129 1.208 19.812 3.024 28.5 6 1.373.47 3.117 1.259 1.5 3-15.363-4.774-27.693-7.002-44-7 .437-3.002-2.676-1.947-4.5-2-82.367-2.373-142.421 63.635-151.5 142 1.781-27.672 7.909-51.98 23-76 32.605-51.895 86.68-73.984 147-66"/><path fill="url(#a)" d="M820 247c8.062 9.287 16.842 14.237 28 19-4.376 5.565-10.095 9.984-15 15l-74 64c-1.369.769 2.034 2.551-5 1-19.086-4.208-42.479-33.654-47-52 12.409-5.382 24.454-12.022 36-19 8.057 32.365 28.247 32.666 52.5 15 6.231-4.539 25.225-25.389 25.5-32.5.142-3.685-8.455-8.863-1-10.5" style="fill:url(#a)"/>/&gt;<path fill="#88b2c1" d="M460 251c-12.866.001-25.699 1.247-38 5-7.509 1.594-14.056 4.997-21 8-75.131 32.492-107.055 119.172-71 193 22.922 46.936 46.393 55.132 89 78 3.581 1.922 7.515 8.408 14.5 11 19.058 7.073 39.481 3.622 58.5-1 30.762-7.477 89.537-43.059 97-76 3.358-4.566 5.5-9.526 7-15 1.549.058.765-1.372 1-2 3.441 3.149 5.258-3.971 6-6.5 5.838-19.907 7.026-44.408 5-65-.029-.296-.99-7.027-3-4.5-3.902-26.291-16.758-53.947-34-74 1.83-2.254 5.118-2.484 8-2 17.302 2.904 34.569 8.402 45-13 .536 1.789 1.484-1.026 3 1.5 5.926 9.875 13.513 27.972 18 39 17.483 42.972 30.645 89.14 30 136l9-5-5 23.5c-11.929 11.576-112.816 49.494-132 53 2.874-2.515 7.578-5.532 11-7 22.863-9.811 31.437-8.631 43-35.5 1.33-3.091 4.041-7.782 1-10.5 20.509-31.505 25.863-75.75 16.5-112 7.924 59.664-21.009 134.387-75.5 164-16.536 8.987-83.84 21.287-103 20-65.844-4.424-118.942-62.174-134-123.5-.58-2.363-.551-6.409-4-5.5-.843-6.019-.766-6.451-4-12 5.528.481 1.991-2.499 2-4 4.411-.127 3.761-14.294 4-18 9.079-78.365 69.133-144.373 151.5-142 1.824.053 4.937-1.002 4.5 2"/><path fill="#bcd3da" d="M576 274c-.046-.226-3.052-1.187-3-3.5.151-6.738 6.721-13.131 4-17.5.937-.661.039-1.292 3-2 7.622-1.824 4.38 2.074 0 4.5 1.978 3.233 6.744 2.019 7.5 2.5 9.403 5.985-2.399 19.184-11.5 16"/><path fill="#043046" d="M460 251c16.307-.002 28.637 2.226 44 7 24.512 7.617 50.324 24.606 67 44 17.242 20.053 30.098 47.709 34 74 4.312 29.052 2.068 49.105-8 76-.235.628.549 2.058-1 2 11.842-43.198 12.766-90.873-14-132.5-25.276-39.31-69.879-66.359-117-68.5-11.829-.538-31.548.57-43 3 12.301-3.753 25.134-4.999 38-5"/><path fill="#092237" d="M200 253c-1.225 4.018-3.447 7.186-5 11-4.218.632-9.398-1.752-12-6 .333-.007.667.009 1 0 8.206-.218 10.887 5.067 16-5"/><path fill="#a7c8d4" d="M687 383c2.548 23.779 3.879 71.018-4 93.5-1.197 3.416-1.757 3.324-4 5.5l5-23.5-9 5c.645-46.86-12.517-93.028-30-136-4.487-11.028-12.074-29.125-18-39-1.516-2.526-2.464.289-3-1.5 4.795-9.837 5.007-22.792 1-33 3.394-4.929 14.311 10.861 17 14.5 25.635 34.692 33.097 70.07 42 111 .321 1.475.929 4.011 3 3.5"/><path fill="#056385" d="m465 253 1 14c-20.169-1.127-41.234 1.508-60 9l-5-12c6.944-3.003 13.491-6.406 21-8 11.452-2.43 31.171-3.538 43-3"/><path fill="#044a68" d="M596 454c-1.5 5.474-3.642 10.434-7 15 1.238-5.466-2.516-6.131-7-9 42.021-87.571-20.648-187.674-116-193l-1-14c47.121 2.141 91.724 29.19 117 68.5 26.766 41.627 25.842 89.302 14 132.5"/><path fill="#e5eff0" d="M576 274c.071.346-.766 5.801-1 7-8.6-8.745-8.567-20.549 2-28 2.721 4.369-3.849 10.762-4 17.5-.052 2.313 2.954 3.274 3 3.5"/><path fill="#2f4c5a" d="M186 271c-.677 1.623-2.931 3.169-2 6-1.212.462-1.348.794-3 1-12.502 1.556-24.445-16.034-10-23 .559 6.673 7.677 15.918 15 16"/><path fill="#f5f9f9" d="M251 271c-.369 1.19-.296 2.22-1 4-3.585-2.573-17.839-14.073-19-17 7.735-2.243 13.139 10.767 20 13"/><path fill="#27495c" d="M717 258c-6.725 4.221-9.073 4.984-11 13-1.591 6.619-1.185 13.412 0 20 .132.736.679 1.698 1 3 4.521 18.346 27.914 47.792 47 52l-1 1c-14.622-6.132-27.84-14.725-37-28-11.321-16.407-17.352-41.041-7-59 3.98-1.574 2.887-1.753 8-2"/><path fill="#7d9aa0" d="M716 272c-5.461 4.262-8.493 9.237-10-1 1.927-8.016 4.275-8.779 11-13 2.326-.112 13.094-.575 13 2.5-5.519 2.628-9.657 8.111-14 11.5"/><path fill="#cadcde" d="M709 260c-10.352 17.959-4.321 42.593 7 59l2 6.5c-15.19-11.461-17.023-34.144-23-51.5 2.617-6.411 7.94-11.603 14-14"/><path fill="#027fa4" d="m401 264 5 12c-69.147 27.606-101.125 112.417-71 180l-5 1c-36.055-73.828-4.131-160.508 71-193"/><path fill="#64858f" d="M776 334v-1c22.22-16.199 37.999-32.568 57-52 4.905-5.016 10.624-9.435 15-15 .614.262 5.232.717 5.5 1-15.635 14.88-31.646 30.531-48 45-7.024 6.214-24.8 16.625-29.5 22"/><path fill="url(#b)" d="M466 267c95.352 5.326 158.021 105.429 116 193-48.674 101.434-201.273 98.585-247-4-30.125-67.583 1.853-152.394 71-180 18.766-7.492 39.831-10.127 60-9m-81 117c-23.435 59.585 43.669 122.361 102 93 3.826 19.8 41.657 17.012 37-9.5-.248-1.413-5.62-10.912-6-11.5 48.851-55.452-3.843-142.311-75-125-.481-6.867 1.014-13.674-2-19.5-1.626-3.143-20.945-18.503-24.5-19.5-11.243-3.153-11.41 3.586-17 5-11.6 2.935-16.912-.155-29 9-29.836 22.598-20.985 68.189 14.5 78m135.5-72c-13.722 2.228-13.209 23.666 7 20 16.054-2.912 9.385-22.66-7-20" style="fill:url(#b)"/>/&gt;<path fill="#566f77" d="M213 275c-7.368 8.22-16.476 16.724-28 17.5 4.603-2.017 5.525-2.285 1-5.5 6.499-2.347 10.49-6.348 16-10 2.71-1.796 5.406-3.415 7.5-6z"/><path fill="#8ba6ab" d="M716 319c9.16 13.275 22.378 21.868 37 28 3.327 1.395 6.499 2.595 10 3.5-9.184 3.193-29.803-8.849-38-14.5-1.074-3.127-3.418-5.796-6.5-7 1.158 3.051 3.894 5.203 6.5 7 .585 1.702 1.524 2.749 1 5-.792 3.402-9.182 4.854 2 11.5-25.048-8.856-42.782-54.531-33-78.5 5.977 17.356 7.81 40.039 23 51.5z"/><path fill="#576f76" d="M234 323c-1.47 6.364-2.729 12.595-4 19l-43-47c12.16-4.704 17.684-7.207 27-17 5.896 1.765-.968 8.96-1 9.5-.21 3.572 14.907 33.614 21 35.5"/><path fill="#234251" d="M833 281c-19.001 19.432-34.78 35.801-57 52-4.987 3.636-11.854 9.108-17 12z"/><path fill="#b7d8e2" d="M322 305c-20.227 29.731-29.905 68.219-27 104-11.512-13.287-29.877-16.162-44-5-2.802-2.656-2.807 3.691-5-1.5-3.013-52.008 14.805-86.48 52-120.5z"/><path fill="#73979f" d="M320 315c-18.511 33.327-19.764 56.623-20 94-.009 1.501 3.528 4.481-2 4-.791-1.358-1.98-2.823-3-4-2.905-35.781 6.773-74.269 27-104 2.033-2.988 18.002-23.251 19.5-23 4.488.753-10.701 15.894-12.5 18.5a184 184 0 0 0-9 14.5"/><path fill="#fdfefe" d="M443 331c2.265 32.353-12.255 57.602-49 55-2.499-.177-6.47-1.301-9-2-35.485-9.811-44.336-55.402-14.5-78 12.088-9.155 17.4-6.065 29-9 5.59-1.414 5.757-8.153 17-5 3.555.997 22.874 16.357 24.5 19.5 3.014 5.826 1.519 12.633 2 19.5"/><path fill="#2d4957" d="M230 342c-.79 3.979-.488 2.708-2 6l-43-52c.762-.29 1.24-.706 2-1z"/><path fill="#5f858c" d="m185 296 43 52c-.314.683 2.143 1.837.5 3L180 297.5c1.227-2.396 3.596-.965 5-1.5"/><path fill="#47788e" d="m760 454-5-7c23.654-18.786 66.204-65.581 67-96.5.281-10.914-5.659-29.345-10-39.5.879-.632 5.296-6.012 6.5-6 45.75 56.717-16.301 114.039-58.5 149"/><path fill="#6aa1b5" d="M755 447c-22.151 17.592-46.944 31.985-72 45-.724-3.334 1.562-3.58 3.5-5 12.397-9.082 26.686-16.682 39.5-26 10.305-7.494 22.15-15.407 31.5-24 4.075-3.745 10.989-10.548 12.5-16 28.486-28.691 42.734-50.084 41-92-.221-5.334.633-10.862-1-16 .257-.195.829-1.158 2-2 4.341 10.155 10.281 28.586 10 39.5-.796 30.919-43.346 77.714-67 96.5"/><path fill="#56a6be" d="M520.5 312c16.385-2.66 23.054 17.088 7 20-20.209 3.666-20.722-17.772-7-20"/><path fill="#335867" d="M810 313c1.633 5.138.779 10.666 1 16l-2.5 17c-2.985-8.051-4.563-17.034-10.5-23.5.013-2.419 9.945-7.945 12-9.5"/><path fill="#b7d8e2" d="M327 315c-15.091 24.02-21.219 48.328-23 76-.239 3.706.411 17.873-4 18 .236-37.377 1.489-60.673 20-94z"/><path fill="url(#c)" d="M699 329c10.487 20.101 43.874 43.44 65.5 28 8.823-6.299 6.826-14.312 10.5-19.5 1.562-2.206 14.485-9.039 17.5-11.5 2.527.941 4.434 48.516 2.5 53.5-10.768 27.753-64.008 68.951-89 85.5l5-90.5c-3.799-16.481-7.935-33.08-17-47.5z" style="fill:url(#c)"/>/&gt;<path fill="url(#d)" d="M518 456c-12.42-19.198-9.572-6.875-17.5-1-2.33 1.727-6.9 2.628-10.5 6-4.989 4.673-5.97 8.271-6 15.5-50.793 13.892-105.493-36.949-90-90.5 36.745 2.602 51.265-22.647 49-55 71.157-17.311 123.851 69.548 75 125" style="fill:url(#d)"/>/&gt;<path fill="#48636d" d="M725 336c-2.606-1.797-5.342-3.949-6.5-7 3.082 1.204 5.426 3.873 6.5 7"/><path fill="#48656f" d="M776 334c-5.117 5.853-6.053 21.501-16.5 24-8.052 1.926-28.517-4.069-33.5-11l2.5-8c-.366.902-2.258 1.711-2.5 2 .524-2.251-.415-3.298-1-5 8.197 5.651 28.816 17.693 38 14.5-3.501-.905-6.673-2.105-10-3.5l1-1c7.034 1.551 3.631-.231 5-1 5.146-2.892 12.013-8.364 17-12z"/><path fill="#8ba6ab" d="M726 347c-.975-1.357-2.978-2.44 0-6 .242-.289 2.134-1.098 2.5-2z"/><path fill="#446875" d="M602 482c-11.385 17.49-29.137 31.623-44 46-3.422 1.468-8.126 4.485-11 7-1.165.213-1.735 2.706-4-1 54.491-29.613 83.424-104.336 75.5-164 9.363 36.25 4.009 80.495-16.5 112"/><path fill="#b0d4de" d="M597 452c10.068-26.895 12.312-46.948 8-76 2.01-2.527 2.971 4.204 3 4.5 2.026 20.592.838 45.093-5 65-.742 2.529-2.559 9.649-6 6.5"/><path fill="#022e46" d="M394 386c-15.493 53.551 39.207 104.392 90 90.5.03-7.229 1.011-10.827 6-15.5-2.447 4.903-4.08 10.411-3 16-58.331 29.361-125.435-33.415-102-93 2.53.699 6.501 1.823 9 2"/><path fill="#0e2e40" d="M295 409c1.02 1.177 2.209 2.642 3 4 3.234 5.549 3.157 5.981 4 12 .751 5.359 1.132 7.503 0 13-4.557 22.127-30.43 29.642-48 17-2.606-1.875-7.903-8.611-9-12 .626-.116 1.352.054 2 0 .17.31 4.224 4.295 5 5 33.403 30.377 66.685-24.9 33-43-12.269-6.593-25.315-4.387-35 5 .859-1.695.97-3.465 3-4.5l-5 1.5c1.12-1.279 1.623-1.912 3-3 14.123-11.162 32.488-8.287 44 5"/><path fill="#dfe9e8" d="m285 405-4 5c-1.062-.533-2.826-1.953-3-2 3.113-1.202-2.3-2.98-2.5-3-6.475-.657-10.743.358-16.5 3-8.988 4.124-12.997 13.289-12 23 .479 4.669 4.31 11.069 8 14l-3 3c-.776-.705-4.83-4.69-5-5-6.611-12.021-2.469-22.208 3-33 9.685-9.387 22.731-11.593 35-5"/><path fill="#7c8583" d="M250 410c-5.469 10.792-9.611 20.979-3 33-.648.054-1.374-.116-2 0-.716.132-1.113.089-1 1-1.519-4.283-4.169-7.204-5-12 1.335-9.633 2.332-17.384 9-25l5-1.5c-2.03 1.035-2.141 2.805-3 4.5"/><path fill="#b2c7cc" d="M278 408c-2.234-.607-8.65-1.648-10.5-1-1.005.352-.25 2.794-.5 3-.334.274-2.108-.526-3 .5-.696.801 1.057 1.904 1 2-1.309 2.234-5.056 3.053-4 7 10.123-1.325 14.117 9.175 4.5 13.5-5.163 2.322-9.531-1.634-11.5 6-1.718-1.872-1.357-2.81-2-4l4-13.5-4-2.5c2.019-3.818 4.674-7.427 7-11 5.757-2.642 10.025-3.657 16.5-3 .2.02 5.613 1.798 2.5 3"/><path fill="#81a2a8" d="m252 448 3-3c23.227 18.451 53.923-13.302 28-33-.241-.183-.456-1.226-2-2l4-5c33.685 18.1.403 73.377-33 43"/><path fill="#587f8e" d="M278 408c.174.047 1.938 1.467 3 2 1.544.774 1.759 1.817 2 2v1c-4.125-2.948-11.235-4.983-16-3 .25-.206-.505-2.648.5-3 1.85-.648 8.266.393 10.5 1"/><path fill="#1b6894" d="M259 408c-2.326 3.573-4.981 7.182-7 11-1.724 3.261-1.986 4.691-3 8-.303.99-1.047 3.27-2 4-.997-9.711 3.012-18.876 12-23"/><path fill="#749196" d="M283 413c22.54 16.112-8.438 48.41-29 26 1.969-7.634 6.337-3.678 11.5-6 9.617-4.325 5.623-14.825-4.5-13.5-1.056-3.947 2.691-4.766 4-7 .057-.096-1.696-1.199-1-2 .892-1.026 2.666-.226 3-.5 4.765-1.983 11.875.052 16 3"/><path fill="#153d53" d="M255 445c-3.69-2.931-7.521-9.331-8-14 .953-.73 1.697-3.01 2-4-1.425 4.525 1.82 5.815 3 8 .643 1.19.282 2.128 2 4 20.562 22.41 51.54-9.888 29-26v-1c25.923 19.698-4.773 51.451-28 33"/><path fill="#cdf3fa" d="M258 544c.297.105.702-.102 1 0 65.805 24.196 138.68 22.071 207 11 6.513 6.347 19.282-5.869 24 4-68.84 12.965-204.215 23.438-263.5-19-29.256-20.942-28.178-48.336-24.5-81 7.594-15.895 17.72-30.715 31-42.5-.294 2.611 2.305 11.443 2 13-.416 2.123-20.884 27.797-24 36-14.278 37.59 13.313 66.633 47 78.5"/><path fill="#eff6f6" d="M252 435c-1.18-2.185-4.425-3.475-3-8 1.014-3.309 1.276-4.739 3-8l4 2.5z"/><path fill="#8cc2d4" d="m726 461-3-1c15.175-10.541 33.993-25.899 47-39-1.511 5.452-8.425 12.255-12.5 16-9.35 8.593-21.195 16.506-31.5 24"/><path fill="#4b6e79" d="M440 554c-.323 5.302-11.904 3.638-15 4-13.669-.179-19.728.019-32.5-5-28.264-11.106-63.065-44.932-77.5-71.5-6.866-12.636-14.189-29.174-13-43.5 1.132-5.497.751-7.641 0-13 3.449-.909 3.42 3.137 4 5.5 15.058 61.326 68.156 119.076 134 123.5"/><path fill="#375e6e" d="M233.5 436c2.481-.307 8.804 18.628 8.5 20.5-.255 1.57-15.446 18.227-18 26-3.565 10.851-1.694 21.784-4.5 32.5-21.354-27.429-6.866-56.992 14-79"/><path fill="#86b1c0" d="M425 558c-17.235 2.014-87.722 5.039-101.5 0-1.634-.598-7.512-8.184-10.5-9 .023-1.222-1.297-1.507-2-2-5.637-5.853-10.88-11.658-16-18-12.776-15.824-37.761-50.657-43-69.5-1.155-4.154-1.609-2.281 2-4.5 17.57 12.642 43.443 5.127 48-17-1.189 14.326 6.134 30.864 13 43.5 14.435 26.568 49.236 60.394 77.5 71.5 12.772 5.019 18.831 4.821 32.5 5"/><path fill="#daedef" d="M254 455c-3.609 2.219-3.155.346-2 4.5 5.239 18.843 30.224 53.676 43 69.5-23.248-23.78-39.89-53.676-51-85-.113-.911.284-.868 1-1 1.097 3.389 6.394 10.125 9 12"/><path fill="#fdfefe" d="M518 456c.38.588 5.752 10.087 6 11.5 4.657 26.512-33.174 29.3-37 9.5-1.08-5.589.553-11.097 3-16 3.6-3.372 8.17-4.273 10.5-6 7.928-5.875 5.08-18.198 17.5 1"/><path fill="#649ab2" d="M760 454c-39.09 32.386-77.941 54.59-125 74l-2-12c7.977-3.314 16.98-8.279 25-12 8.508-3.947 16.659-7.667 25-12 25.056-13.015 49.849-27.408 72-45z"/><path fill="#046385" d="M335 456c45.727 102.585 198.326 105.434 247 4 4.484 2.869 8.238 3.534 7 9-7.463 32.941-66.238 68.523-97 76-1.632-14.814-8.934-6.465-19.5-6-18.22.802-35.636-1.316-53.5-4-42.607-22.868-66.078-31.064-89-78z"/><path fill="#0a4e79" d="M768 460c-10.027 38.256-43.561 65.292-76 85-1.959 1.19-5.414 2.521-8 4l7-25c26.796-17.125 38.011-31.18 59-53 4.854-5.046 10.893-8.672 15.5-14 .448 2.288 1.885 1.577 2.5 3"/><path fill="#85bcd3" d="M490 559c48.523-9.138 97.49-24.094 143-43l2 12c-75.257 31.04-159.696 51.63-241.5 54-70.745 2.05-245.737-9.478-191.5-123-3.678 32.664-4.756 60.058 24.5 81 59.285 42.438 194.66 31.965 263.5 19"/><path fill="#bae3ee" d="m723 460 3 1c-12.814 9.318-27.103 16.918-39.5 26-1.938 1.42-4.224 1.666-3.5 5-8.341 4.333-16.492 8.053-25 12 2.31-9.193 26.35-7.718 23-19 14.035-7.687 28.876-15.883 42-25"/><path fill="#b1cddd" d="M764 476c-27.265 37.833-30.886 44.464-72 70v-1c32.439-19.708 65.973-46.744 76-85 1.46 3.38-2.365 12.596-4 16"/><path fill="#115f7f" d="M750 471c-20.989 21.82-32.204 35.875-59 53-72.832 46.545-151.706 64.741-236.5 77l21.5 1c-19.638 1.925-40.246 2.562-60 2-13.456-.383-29.81-1.037-43-3l-58.5-20c150.567 15.048 310.245-26.673 435.5-110"/><path fill="#156799" d="m770 481-11 48.5c-7.837 17.016-19.68 31.599-34 43.5-2.362-.397-2.876 1.718-4 3-1.603 1.231-5.248 3.806-7 5-.761.548-1.905 1.221-3 2-.855.608-2.061 1.363-3 2-11.033 6.789-24.007 13.049-36 18 11.278-14.85 11.155-34.279 13-52 2.327-1.37 4.651-3.541 7-5 41.114-25.536 44.735-32.167 72-70 .234-.325 4.714-5.661 5.5-5 .877 3.195.542 6.733.5 10"/><path fill="#1a4459" d="M311 547c.703.493 2.023.778 2 2l-2 .5 7 6c-.256.394-4.666.566-5.5.5-18.738-1.473-34.898-8.261-52-14-2.005-.673-1.382 2.041-1.5 2-.298-.102-.703.105-1 0-15.755-22.076-29.503-45.245-4.5-67 12.266 20.319 26.218 40.181 42.5 57.5 5.55 5.903 10.187 9.126 15 12.5"/><path fill="#23739e" d="M770 481c-.214 16.457-8.268 54.675-16 68.5-16.464 29.437-72.256 62.479-104 72.5.625-.249 10.516-6.231 11.5-7 1.896-1.481 6.315-5.318 4.5-8 16.836-6.432 27.244-11.993 42-22 1.154-.71 1.97-1.334 3-2a138 138 0 0 0 3-2c2.888-2.081 3.389-.881 7-5 1.388-1.067 2.545-1.79 4-3 14.32-11.901 26.163-26.484 34-43.5z"/><path fill="#517785" d="M558 528c14.863-14.377 32.615-28.51 44-46 3.041 2.718.33 7.409-1 10.5-11.563 26.869-20.137 25.689-43 35.5"/><path fill="#d8f6fb" d="M658 504c-8.02 3.721-17.023 8.686-25 12-45.51 18.906-94.477 33.862-143 43-4.718-9.869-17.487 2.347-24-4 75.067-12.164 148.257-33.443 215-70 3.35 11.282-20.69 9.807-23 19"/><path fill="#136494" d="M769 540c-1.891-3.728-2.795.595-3 1.5-14.967 66.118-35.29 89.852-98 118.5l14-45c9.744-4.571 22.562-10.231 29.5-18-5.505 3.928-11.495 6.956-17.5 10 31.581-24.143 67.976-43.056 73.5-87 2.441 5.152 1.886 14.385 1.5 20"/><path fill="#247d9f" d="M684 549c-23.884 13.658-48.954 25.079-75 34 .119-.044-.394-1.658.5-2 8.255-3.155 16.972-5.195 25-9 .92-1.576-3.416-1.074-4-1-37.044 4.705-78.864 18.38-116.5 25-12.632 2.222-25.199 4.745-38 6l-21.5-1c84.794-12.259 163.668-30.455 236.5-77z"/><path fill="#26839e" d="M492 545c-19.019 4.622-39.442 8.073-58.5 1-6.985-2.592-10.919-9.078-14.5-11 17.864 2.684 35.28 4.802 53.5 4 10.566-.465 17.868-8.814 19.5 6"/><path fill="#3fb2d4" d="M687 714c-21.545 5.768-41.874 17.754-64 24l-1-1c14.52-4.029 31.276-10.946 44.5-18-16.281 6.335-32.481 11.35-50 13-11.157 1.051-19.966-3.762-29.5 2-.135-.543-.713-1.636-1-2-3.555-4.505-4.468-.637-8.5-1-7.775-.701-15.735-2.509-23.5-3-1.316-.083-2.688.104-4 0-7.331-.583-14.782 1.302-23.5 0-16.07-2.4-54.193-17.173-68-17-9.928.124.459 5.833-4 12l-34-23c2.352 6.924 11.963 10.008 17 15 9.492 5.118 18.612 10.615 28.5 15 35.292 15.65 72.216 22.14 111 18l2.5 3c-30.981 2.455-62.273 1.513-92-8-23.886-7.644-66.528-32.762-82.5-52-1.873-2.257-1.062-2.727-2-4-10.97-14.882-18.268-32.418-29-47.5 13.956 8.392 26.267 24.204 40 32.5-4.112.139-.414 1.324 0 2 .345.564-1.057 1.401-1 1.5.415.721 2.316.055 4 2 .116.134-2.44.949.5 3.5.998.866 18.86 11.055 20 11 3.427-.165 3.042-4.577 5.5-6 34.634 12.008 73.776 21.048 110 23 30.574 3.725 54.233 5.909 85 1 10.049-1.603 54.315-11.279 61.5-15 7.957-4.121 23.808-32.043 24.5-40.5l5-5.5c-6.119 15.14-12.928 30.248-24 42.5.191 4.159 6.197-1.288 7-1.5 33.998-8.965 55.846-20.106 86-37 15.244-8.54 30.976-15.149 44.5-27 39.515-34.627 29.771-76.565-22.5-84.5 16.715 6.695 32.255 21.398 29 41-.14.845-1.983.398-2 .5 3.548-26.75-25.439-42.898-48.5-44-1.011-.51.814-1.971 1-2 2.491-.394 21.142 1.4 25 2 70.951 11.034 59.496 79.927 17.5 117.5l17.5-34.5c-24.61 27.49-63.441 50.695-97 66-12.603 5.748-44.375 13.934-53 20-6.486 4.561-14.315 21.486-20 28-2.797.031 1.181-5.93 1.5-6.5 1.45-2.593 12.873-17.461 12-19-5.211.202-10.945 2.147-16 3.5m-14.5-7c-11.696 1.365-29.063 14.11-42.5 14.5 15.647.285 35.267-6.229 47.5-14.5-1.642.129-3.373-.19-5 0"/><path fill="#78afcb" d="M769 540c-3.309 48.094-31.678 82.107-71 106-13.588 8.257-31.141 16.394-46 22v-1c4.66-1.732 11.29-4.848 16-7 62.71-28.648 83.033-52.382 98-118.5.205-.905 1.109-5.228 3-1.5"/><path fill="#eff9fc" d="M798 653c24.043-20.85 43.34-37.064 49-70 .017-.102 1.86.345 2-.5 3.255-19.602-12.285-34.305-29-41 52.271 7.935 62.015 49.873 22.5 84.5-13.524 11.851-29.256 18.46-44.5 27"/><path fill="#e7f7fc" d="M692 545v1c-2.349 1.459-4.673 3.63-7 5-42.871 25.237-99.742 49.398-149.5 55-11.951 1.345-50.284 4.164-60.5 2.5-1.675-.273-1.826-.065-.5-1.5 11.789-.124 23.758-.215 35.5-1 3.905-.261 17.863.174 18-4 15.617.856 64.889-13.03 81-19 26.046-8.921 51.116-20.342 75-34 2.586-1.479 6.041-2.81 8-4"/><path fill="url(#e)" d="M685 551c-1.845 17.721-1.722 37.15-13 52-41.314 17.054-86.882 24.082-131.5 27H561l3 1.5-2 .5c-12.82.904-26.085 2.909-39 4 .465-4.017-.799-2.709-3.5-3-19.509-2.1-53.508-2.035-74-2-3.57.006-9.894-1.819-8.5 4-21.184-2.934-42.087-4.786-62-12.5-.925-.358 1.632-2.059.5-2.5-20.327-7.919-44.774-13.293-56-35 9.495 3.653 18.64 7.307 28.5 10-.5 2.187 1.98 2.538 3.5 3 18.621 5.657 44.828 7.118 64.5 8 31.097 1.395 59.18-3.025 89.5-2 1.83.062 4.935-1.009 4.5 2-11.742.785-23.711.876-35.5 1-1.326 1.435-1.175 1.227.5 1.5 10.216 1.664 48.549-1.155 60.5-2.5 49.758-5.602 106.629-29.763 149.5-55" style="fill:url(#e)"/>/&gt;<path fill="#5ebee2" d="M609 583c-16.111 5.97-65.383 19.856-81 19-4.015-.22-11.717-2.4-14-6 37.636-6.62 79.456-20.295 116.5-25 .584-.074 4.92-.576 4 1-8.028 3.805-16.745 5.845-25 9-.894.342-.381 1.956-.5 2"/><path fill="#a0cbe4" d="M725 573c-1.455 1.21-2.612 1.933-4 3 1.124-1.282 1.638-3.397 4-3m-4 3c-3.611 4.119-4.112 2.919-7 5 1.752-1.194 5.397-3.769 7-5m-7 5a138 138 0 0 1-3 2c1.095-.779 2.239-1.452 3-2m-3 2c-1.03.666-1.846 1.29-3 2 .939-.637 2.145-1.392 3-2m-3 2c-14.756 10.007-25.164 15.568-42 22-33.545 12.816-69.192 20.05-105 23h-20.5c44.618-2.918 90.186-9.946 131.5-27 11.993-4.951 24.967-11.211 36-18"/><path fill="#86b3ce" d="M373 601c13.19 1.963 29.544 2.617 43 3v2c-19.672-.882-45.879-2.343-64.5-8-1.52-.462-4-.813-3.5-3 8.151 2.226 16.634 4.755 25 6"/><path fill="#86d8f5" d="M528 602c-.137 4.174-14.095 3.739-18 4 .435-3.009-2.67-1.938-4.5-2-30.32-1.025-58.403 3.395-89.5 2v-2c19.754.562 40.362-.075 60-2 12.801-1.255 25.368-3.778 38-6 2.283 3.6 9.985 5.78 14 6"/><path fill="#8cb9d5" d="M682 615c-13.725 6.438-27.893 10.672-42 16l-1-1c12.49-4.644 24.946-9.492 37.5-14 5.829-2.99 11.669-6.044 17.5-9 6.005-3.044 11.995-6.072 17.5-10-6.938 7.769-19.756 13.429-29.5 18"/><path fill="#308cba" d="M650 622c-10.775 4.296-31.769 6.487-44 9-14.469.286-29.603-.015-44 1l2-.5-3-1.5c35.808-2.95 71.455-10.184 105-23 1.815 2.682-2.604 6.519-4.5 8-.984.769-10.875 6.751-11.5 7"/><path fill="#85b2c6" d="M343 610c-.243-.198-1.845.182-2 0-3.617-4.252 1.793-.095 2 0m76 31c4.721 1.188 9.252 2.01 14 3v2c-20.933-4.328-41.455-10.22-61-19-5.311-2.386-10.098-6.69-16-8-4.71-2.591-8.828-5.613-13-9 27.442 12.65 45.55 23.337 76 31"/><path fill="#2582b5" d="M668 660c-4.71 2.152-11.34 5.268-16 7-6.198 2.304-13.582 4.237-20 6 3.232-12.16 11.009-28.795 6-41 1.251-.464 1.895-.961 2-1 14.107-5.328 28.275-9.562 42-16z"/><path fill="#2782a9" d="M372 627c5.459 7.084 18.374 10.118 20.5 18-1.899-1.209-6.43-5.024-6.5 0-10.026-7.146-21.376-17.111-30-26 5.902 1.31 10.689 5.614 16 8"/><path fill="#126292" d="m729 649-5 5.5c-.692 8.457-16.543 36.379-24.5 40.5-7.185 3.721-51.451 13.397-61.5 15 1.34-3.011 6.397-3.122 9-5.5 5.713-5.22 9.784-16.253 17.5-22.5 8.205-6.643 21.42-12.394 31-20 10.816-8.587 21.24-19.775 30.5-30 4.36-3.694 8.133-8.64 13-11.5-2.392 9.872-6.216 19.138-10 28.5"/><path fill="url(#f)" d="M433 646c81.395 16.83 128.196 14.515 205-14 5.009 12.205-2.768 28.84-6 41-18.898 5.191-38.824 9.023-58.5 10-29.963 1.488-59.375-2.778-89-6 1.499 2.237 5.669 2.589 8 3 53.794 9.479 106.979 7.817 159.5-12 14.859-5.606 32.412-13.743 46-22-11.639 9.872-29.731 20.854-44.5 27-76.943 32.021-199.366 20.565-267.5-28 .07-5.024 4.601-1.209 6.5 0-2.126-7.882-15.041-10.916-20.5-18 19.545 8.78 40.067 14.672 61 19" style="fill:url(#f)"/>/&gt;<path fill="#267090" d="M606 631c-38.53 7.917-73.179 12.784-113 10 5.755-.586 9.895-3.941 10.5-4 6.422-.63 13.102-.46 19.5-1 12.915-1.091 26.18-3.096 39-4 14.397-1.015 29.531-.714 44-1"/><path fill="#e6f5fb" d="m639 630 1 1c-.105.039-.749.536-2 1-76.804 28.515-123.605 30.83-205 14v-2c11.591 2.417 23.223 4.623 35 6 18.363 2.147 34.356 3.495 53 3 27.101 4.36 48.821-.489 74-8 14.497-4.325 29.761-9.706 44-15"/><path fill="#3c9bc6" d="M523 636c-6.398.54-13.078.37-19.5 1-.605.059-4.745 3.414-10.5 4-16.504 1.681-39.144-3.665-56-6-1.394-5.819 4.93-3.994 8.5-4 20.492-.035 54.491-.1 74 2 2.701.291 3.965-1.017 3.5 3"/><path fill="#3490b9" d="M638 710c-30.767 4.909-54.426 2.725-85-1-39.462-4.808-99.383-16.418-134-35 2.664-.547.825-4.35 1-4.5 2.515-2.157 22.257 8.257 26.5 9.5 13.738 4.026 30.795 6.657 45 10 4.02.946 3.675 3.926 4 4 76.937 17.597 171.414-10.946 230.5-61-9.26 10.225-19.684 21.413-30.5 30-9.58 7.606-22.795 13.357-31 20-7.716 6.247-11.787 17.28-17.5 22.5-2.603 2.378-7.66 2.489-9 5.5"/><path fill="#2b7fa8" d="m469 646-1 4c-11.777-1.377-23.409-3.583-35-6-4.748-.99-9.279-1.812-14-3 16.406-.814 33.354 3.59 50 5"/><path fill="#479ec1" d="M576 647c-16.987 2.759-37.967 5.548-55 6-18.644.495-34.637-.853-53-3l1-4c35.547 3.012 71.223 2.587 106.5-3z"/><path fill="#adeaf9" d="M595 645c-25.179 7.511-46.899 12.36-74 8 17.033-.452 38.013-3.241 55-6 6.197-1.007 12.654-2.874 19-2"/><path fill="#e1f3fb" d="M652 667v1c-52.521 19.817-105.706 21.479-159.5 12-2.331-.411-6.501-.763-8-3 29.625 3.222 59.037 7.488 89 6 19.676-.977 39.602-4.809 58.5-10 6.418-1.763 13.802-3.696 20-6"/><path fill="#b6e1f1" d="M414 672c1.663 1.005 3.839 1.377 5 2 34.617 18.582 94.538 30.192 134 35-36.224-1.952-75.366-10.992-110-23-9.864-3.42-19.793-7.011-29-12-.414-.676-4.112-1.861 0-2"/><path fill="#288fbe" d="M443 686c-2.458 1.423-2.073 5.835-5.5 6-1.14.055-19.002-10.134-20-11-2.94-2.551-.384-3.366-.5-3.5-1.684-1.945-3.585-1.279-4-2-.057-.099 1.345-.936 1-1.5 9.207 4.989 19.136 8.58 29 12"/><path fill="#9fdff5" d="M403 687c.938 1.273.127 1.743 2 4-5.769-.721-1.056 3.914 0 7l-9 10c-.184-5.063 1.352-10.409 0-15 .667-2.302.941-5.43 3-7 1.279 1.396 2.236 2.338 4 1"/><path fill="#042943" d="M405 691c15.972 19.238 58.614 44.356 82.5 52 29.727 9.513 61.019 10.455 92 8l-2.5-3c13.987-1.493 32.314-6.137 46-10 22.126-6.246 42.455-18.232 64-24-20.256 22.966-41.405 41.031-67.5 57-8.461 5.178-23.652 9.587-31 15-7.774 5.726-15.771 20.214-24.5 26-2.939-.082-6.11.285-9 0l26.5-21c-13.089 6.259-28.21 14.213-42.5 17-3.599.702-7.389 1.458-11 2l26.5-12c-15.079 2.363-30.206 3.692-45.5 3-1.977-.09-4.034.16-6 0-10.41-.847-22.095-3.704-32-7-20.406-6.791-40.228-19.629-56-34-15.594-18.345-22.97-33.155-21-58 .281-3.55 1.044-5.7 2-9 1.352 4.591-.184 9.937 0 15 .431 11.878 3.659 26.3 11 36 6.355 13.248 38.72 37.246 52.5 43 64.638 26.992 161.009-4.649 206.5-56 .509-.469 7.363-4.702 4.5-6-30.01 11.178-70.755 28.967-102.5 32-54.363 5.194-103.232-12.912-146-45-4.545-4.628-9.927-8.46-13.5-14-1.22-.503-2.402 3.545-2.5 4-1.331-1.418-.648-2.971-1-4-1.056-3.086-5.769-7.721 0-7"/><path fill="#e8f9fb" d="M405 698c.352 1.029-.331 2.582 1 4-.421 1.959.293 4.856 0 7-1.663 4.439-2.903 14.468-2 19 1.738 8.721 4.542 7.754 9 13 13.184 15.513 29.685 28.211 48 37 1.318.633.936.971 1 1-21.995-7.773-40.594-26.066-56.5-42 .023 1.506.992 5.941 1.5 7-7.341-9.7-10.569-24.122-11-36z"/><path fill="#75cbef" d="M422 712c28.374 28.886 44.24 37.722 84 48-2.746 7.554 2.227 9.118 2 15.5-.152 4.278-5.195 11.114-6 14.5h-2c-.927-6.093.909-15.077 4-20.5-.961-1.501-1.636-1.246-3-1.5-36.873-9.91-70.164-31.307-93-62-.602.075-1.868 2.648-2 3 .293-2.144-.421-5.041 0-7 .098-.455 1.28-4.503 2.5-4 3.573 5.54 8.955 9.372 13.5 14"/><path fill="#7bccee" d="M550 728v19c-29.451-.464-56.296-8.406-84-17-9.888-4.385-19.008-9.882-28.5-15-5.037-4.992-14.648-8.076-17-15l34 23c4.459-6.167-5.928-11.876 4-12 13.807-.173 51.93 14.6 68 17 8.718 1.302 16.169-.583 23.5 0"/><path fill="#44a3c8" d="M394 702c-1.97 24.845 5.406 39.655 21 58 12.348 14.527 28.007 24.633 45.5 32 1.851.779 8.586 3.342 10.5 2 9.905 3.296 21.59 6.153 32 7-3.344 6.625-15.118 4.355-21 8-26.042-5.201-50.473-18.477-71-35-10.702-8.615-20.595-17.977-27.5-30-.76.178-1.238 5.073-1.5 6-.714 2.526-3.525 15.125-3 16.5.228.597 8.75 4.878 11 6.5l-1 1c-2.997-.755-8.481-7.69-11-3-.046-.963.376-2.031-1-2 1.384-15.3 5.684-29.133 9-44z"/><path fill="#40b3d5" d="M554 822c-.181.018-1.15-1.791-3.5-1-3.584 1.206-25.431 20.477-33.5 25l30-24.5c-2.016-1.483-3.641-1.458-6-1.5-3.086-3.657-7.549.043-8 0l-3-1c-.51-.054-8.317-3.97-8 0-11.677-2.699-13.068-.16-24 3-8.12-.38-15.695 1.562-24 2 1.911-2.984 6.04-3.151 9-4 6.321-1.812 19.458-3.35 23-6 .435-.325 2.598.738 2-2 2.374-.065 17.74-1.66 20-2 3.611-.542 7.401-1.298 11-2 2.523 3.657 11.417 3.549 16 4 2.89.285 6.061-.082 9 0 53.204 1.493 153.634-21.226 199.5-49 23.86-14.448 42.783-32.068 50-60-7.569 47.272-45.158 84.132-88 102-11.946 4.982-85.101 27.289-94 26-1.502-.218-3.482.484-2-2l97-38c-43.89 12.014-85.167 25.973-131 30-13.77 1.21-27.936-.317-41.5 1"/><path fill="#e7f8fd" d="M501 768c-10.936-2.038-22.991-5.137-34-10-17.279-7.632-32.157-18.202-45-32-4.819-5.178-8.13-11.879-14-16 .218-1.241-.141-2.715 0-4 22.836 30.693 56.127 52.09 93 62"/><path fill="#0d233c" d="M408 710a211 211 0 0 1-4 18c-.903-4.532.337-14.561 2-19 .132-.352 1.398-2.925 2-3-.141 1.285.218 2.759 0 4"/><path fill="#2494bc" d="M672.5 707c1.627-.19 3.358.129 5 0-12.233 8.271-31.853 14.785-47.5 14.5 13.437-.39 30.804-13.135 42.5-14.5"/><path fill="#7bcef1" d="m422 726-9 15c-4.458-5.246-7.262-4.279-9-13a211 211 0 0 0 4-18c5.87 4.121 9.181 10.822 14 16"/><path fill="#2d86a9" d="M568 757c.9 4.269-2.203 5.552-5 8-5.756 1.505-13.114 7.368-20 7 .992-1.007 1.684-2.685 3-3.5-13.099-2.976-26.661-5.052-40-8.5-39.76-10.278-55.626-19.114-84-48 42.768 32.088 91.637 50.194 146 45"/><path fill="#40b3d4" d="M375 818c2.44.599 4.521 3.083 8 2 6.101 7.567 41.87 10.663 52.5 11 28.042.889 58.092-4.18 85.5-7.5l-3 3.5c-11.742 3.788-23.801 9.601-36 12-6.852 1.347-14.044 2.315-21 3-8.454.833-21.495 1.304-30 1-11.576-.413-19.825-1.915-31-5-2.494-.688-5.38-2.537-8-1-3.608-4.719-3.756-1.853-4-2-3.055-1.84-4.825-1.987-8-3-21.079-6.722-40.29-8.035-60.5-20-50.746-30.045-31.771-75.101 18-90 3.518-1.053 35.316-8.298 34.5-5.5-23.454 3.894-67.028 35.141-62 62 .167.891 6.909 15.813 7.5 16.5 4.443 5.166 48.48 20.786 57.5 23"/><path fill="#1876a9" d="M622 737c-14.241 3.951-32.299 7.555-47 9 2.424-2.437 9.767-10.65 12-12 9.534-5.762 18.343-.949 29.5-2 17.519-1.65 33.719-6.665 50-13-13.224 7.054-29.98 13.971-44.5 18"/><path fill="#0c2e43" d="M377 769c-1.186 13.111-2.746 40.153 6 51-3.479 1.083-5.56-1.401-8-2-5.296-31.307-.52-63.589 11-93-3.316 14.867-7.616 28.7-9 44"/><path fill="#0e5d87" d="M666 731c-4.381 4.036-9.473 7.246-14 11l-68.5 20c-5.395 2.476-16.065 1.84-20.5 3 2.797-2.448 5.9-3.731 5-8 31.745-3.033 72.49-20.822 102.5-32 2.863 1.298-3.991 5.531-4.5 6"/><path fill="#afe8f8" d="m467 758-6 20c-18.315-8.789-34.816-21.487-48-37l9-15c12.843 13.798 27.721 24.368 45 32"/><path fill="#5bb3e3" d="M554 728c-.659 2.116 5.383 2.86 6.5 3 8.359 1.05 17.082.952 25.5 1 .287.364.865 1.457 1 2-2.233 1.35-9.576 9.563-12 12-8.412.827-16.533 1.133-25 1v-19c1.312.104 2.684-.083 4 0"/><path fill="#8bcfed" d="M586 732c-8.418-.048-17.141.05-25.5-1-1.117-.14-7.159-.884-6.5-3 7.765.491 15.725 2.299 23.5 3 4.032.363 4.945-3.505 8.5 1"/><path fill="#e3f1f7" d="M550 747c8.467.133 16.588-.173 25-1 14.701-1.445 32.759-5.049 47-9l1 1c-13.686 3.863-32.013 8.507-46 10-38.784 4.14-75.708-2.35-111-18 27.704 8.594 54.549 16.536 84 17"/><path fill="#40b3d5" d="M392 862c4.64 4.003 12.225 3.564 18 4 .973.073 1.845-.008 2 0 .332.017.667-.013 1 0-.872 2.104 6.661 2.817 9 3 13.21 3.723 25.166 10.471 38 15 12.684 4.476 27.618 12.139 41 9 .186.112 1.87 1.944 2 2-8.972 2.834-18.728 2.322-28 1-19.95-2.845-42.585-16.725-64-22-2.814-.693-4.758.062-5 0-1.889-.484-3.606-.636-5-1-21.496-5.61-38.051-8.436-58.5-19-42.921-22.173-101.193-68.501-77-123-3.698 38.946 12.488 66.539 42 90 22.869 18.18 55.568 36.268 84.5 41"/><path fill="#8cdff7" d="M407 744c-.508-1.059-1.477-5.494-1.5-7 15.906 15.934 34.505 34.227 56.5 42 8.705 3.979 28.692 11 38 11h2c-.192.808-1.073 4.678-.5 5 5.687-1.928 8.038-1.112 13.5-1 51.37 1.053 98.225-19.844 137-52 4.527-3.754 9.619-6.964 14-11-45.491 51.351-141.862 82.992-206.5 56-13.78-5.754-46.145-29.752-52.5-43"/><path fill="#1a76a8" d="M652 742c-38.775 32.156-85.63 53.053-137 52 9.147-6.228 20.311-14.198 28-22 6.886.368 14.244-5.495 20-7 4.435-1.16 15.105-.524 20.5-3z"/><path fill="#052f48" d="M411 774c25.453 24.431 59.741 38.424 95 40-3.542 2.65-16.679 4.188-23 6 9.018-8.381-5.428-7.307-11-9-23.564-7.161-42.186-16.329-62-31-2.757-4.899-9.849-12.264-15-15-3.605-5.43-9.989-8.941-13-15 .262-.927.74-5.822 1.5-6 6.905 12.023 16.798 21.385 27.5 30"/><path fill="#227bae" d="M395 765c.888 1.338 1.766 2.465 3 3.5-3.828 1.356-2.959 3.974-7 5.5.171-1.151-.831-.878-1-1-2.25-1.622-10.772-5.903-11-6.5-.525-1.375 2.286-13.974 3-16.5 3.011 6.059 9.395 9.57 13 15"/><path fill="#89d7f3" d="M501 768c1.364.254 2.039-.001 3 1.5-3.091 5.423-4.927 14.407-4 20.5-9.308 0-29.295-7.021-38-11-.064-.029.318-.367-1-1l6-20c11.009 4.863 23.064 7.962 34 10"/><path fill="#bce5ee" d="M471 794c-1.914 1.342-8.649-1.221-10.5-2-17.493-7.367-33.152-17.473-45.5-32 15.772 14.371 35.594 27.209 56 34"/><path fill="#54adde" d="M543 772c-7.689 7.802-18.853 15.772-28 22-5.462-.112-7.813-.928-13.5 1-.573-.322.308-4.192.5-5 .805-3.386 5.848-10.222 6-14.5.227-6.382-4.746-7.946-2-15.5 13.339 3.448 26.901 5.524 40 8.5-1.316.815-2.008 2.493-3 3.5"/><path fill="#5db4e2" d="M410 780c1.843 3.274 1.893 9.168 4 13-2.755-.714-4.803-2.036-5 2-4.883-5.524-8.458-10.985-14-16-.145-.131-.03-3.447-2.5-3-.997 1.333 2.324 2.739 2.5 3 3.938 5.862 8.565 13.76 13 19l-13 7c-4.157-7.436-13.288-20.505-16-26-1.513-3.066-.853-4.908-1-8 2.519-4.69 8.003 2.245 11 3 2.468.622.512.562 2 0 4.041-1.526 3.172-4.144 7-5.5-1.234-1.035-2.112-2.162-3-3.5 5.151 2.736 12.243 10.101 15 15"/><path fill="#f1f9fc" d="M378 771c.147 3.092-.513 4.934 1 8-.868-.106-.912.249-1 1-2.316 19.73 1.79 38.86 23 43 1.75.342 4.138-.265 6 0 11.889 1.695 23.962 2.801 36 1.5-14.712-5.283-25.143-14.854-35-26.5-4.435-5.24-9.062-13.138-13-19 5.542 5.015 9.117 10.476 14 16 11.409 12.906 19.377 22.307 37 27 7.884 2.1 10.191 1.844 18 2 3.282.065 6.727.173 10 0 8.305-.438 15.88-2.38 24-2-2.922.845-7.886.186-8.5 3l35-4 1-2c-1.112-.162-2.438.245-3.5 0-.317-3.97 7.49-.054 8 0 .157.017 1.567.863 3 1 .451.043 4.914-3.657 8 0-8.165-.144-15.609 4.616-23 7l3-3.5c-27.408 3.32-57.458 8.389-85.5 7.5-10.63-.337-46.399-3.433-52.5-11-8.746-10.847-7.186-37.889-6-51 1.376-.031.954 1.037 1 2"/><path fill="#f6fcfe" d="M391 774c-1.488.562.468.622-2 0l1-1c.169.122 1.171-.151 1 1"/><path fill="#b1dae4" d="M482 809c9.197 1.837 14.917 2.207 24 2 .112-.003-.483 1.068 2 1 .598 2.738-1.565 1.675-2 2-35.259-1.576-69.547-15.569-95-40 20.527 16.523 44.958 29.799 71 35"/><path fill="#f6fcfe" d="M395 779c-.176-.261-3.497-1.667-2.5-3 2.47-.447 2.355 2.869 2.5 3"/><path fill="#e2f6fc" d="M395 805c3.56 6.367 6.962 12.629 12 18-1.862-.265-4.25.342-6 0l-23-43c.088-.751.132-1.106 1-1 2.712 5.495 11.843 18.564 16 26"/><path fill="#71c6ed" d="M401 823c-21.21-4.14-25.316-23.27-23-43z"/><path fill="#308caa" d="m472 811-8 13c-7.809-.156-10.116.1-18-2-8.207-11.41-24.884-16.06-32-29-2.107-3.832-2.157-9.726-4-13 19.814 14.671 38.436 23.839 62 31"/><path fill="#2e92bb" d="M555 812c-4.583-.451-13.477-.343-16-4 14.29-2.787 29.411-10.741 42.5-17z"/><path fill="#67c6ed" d="M414 793c7.116 12.94 23.793 17.59 32 29-17.623-4.693-25.591-14.094-37-27 .197-4.036 2.245-2.714 5-2"/><path fill="#85d5f3" d="M408 798c9.857 11.646 20.288 21.217 35 26.5-12.038 1.301-24.111.195-36-1.5-5.038-5.371-8.44-11.633-12-18z"/><path fill="#126285" d="M528 810c-2.26.34-17.626 1.935-20 2-2.483.068-1.888-1.003-2-1-1.909-4.247 2.056-6.486 3-10 15.294.692 30.421-.637 45.5-3z"/><path fill="#2e84a2" d="M509 801c-.944 3.514-4.909 5.753-3 10-9.083.207-14.803-.163-24-2 5.882-3.645 17.656-1.375 21-8 1.966.16 4.023-.09 6 0"/><path fill="#0f628a" d="M483 820c-2.96.849-7.089 1.016-9 4-3.273.173-6.718.065-10 0l8-13c5.572 1.693 20.018.619 11 9"/><path fill="#0c3a59" d="M522 819c1.062.245 2.388-.162 3.5 0l-1 2-35 4c.614-2.814 5.578-2.155 8.5-3 10.932-3.16 12.323-5.699 24-3"/><path fill="#132e3d" d="M533 820c-1.433-.137-2.843-.983-3-1z"/><path fill="#10618f" d="M541 820c2.359.042 3.984.017 6 1.5L517 846c-11.624 6.516-27.997 13.212-41 16 6.693-7.564 6.261-14.313 6-23 12.199-2.399 24.258-8.212 36-12 7.391-2.384 14.835-7.144 23-7"/><path fill="#052a43" d="M554 822c-6.258 6.416-48.25 30.031-24 38 1.867 11.224 48.074 29.594 52.5 28 4.94-1.779-.295-16.947-5.5-18.5.391-1.194 4.408.972 5 1.5 6.717 5.986 3.549 16.675 4 17.5.349.64 11.785 7.643 12.5 7.5 6.448-1.286 4.864-19.112-5.5-25-13.113-7.45-39.009-7.506-52-10 19.823 1.976 73.377-1.239 64 32.5-2.217 7.976-8.01 10.228-15 12.5 9.446-5.467.862-14.725-5.5-14-1.801.205-20.077 10.388-26 12-6 1.633-16.292 3.383-22.5 4-23.602 2.344-52.875-2.013-75.5-9-3.542-1.094-11.625-2.896-6-5-6.53-1.848-32.121-14.572-14-3-9.573-4.232-22.355-9.819-29.5-17 21.415 5.275 44.05 19.155 64 22 15.681 7.032 32.092 10.941 49 6 5.598-1.636 14.923-6.109 18-11 10.567-16.798-7.838-20.205-16.5-32-1.429 6.79-2.606 16.816-5.5 23-1.432 3.06-8.082 11.696-11 13-.233.104-4.747 1.032-5 1 12.861-8.424 23.108-27.073 16.5-42-4.311 10.695-9.919 15.287-19.5 21-4.508.524-8.576 3.205-13 4 5.36-4.7 12.719-5.064 18.5-10 5.553-4.741 9.002-13.25 12.5-19.5-11.584 3.89-25.32 10.572-37 13.5-4.746 1.19-10.155 2.208-15 3-12.212 1.997-32.894 3.945-45 3-2.339-.183-9.872-.896-9-3 18.22.702 37.025-.032 55-3 2.586-.427 5.373-.437 8-1 13.003-2.788 29.376-9.484 41-16 8.069-4.523 29.916-23.794 33.5-25 2.35-.791 3.319 1.018 3.5 1m-12 73c-2.588.565-13.531 8.759-17.5 10 13.17-.371 28.128-2.354 40.5-7 1.564-.587 16.258-7.632 16-8.5L548.5 878z"/><path fill="#0b354c" d="m388 835 22 31c-5.775-.436-13.36.003-18-4-5.852-5.048-8.521-22.688-12-30 3.175 1.013 4.945 1.16 8 3"/><path fill="#f0f8fb" d="M392 837c1.676 2.192 4.669 10.14 7 13.5 3.622 5.22 8.996 10.506 13 15.5-.155-.008-1.027.073-2 0l-22-31c.244.147.392-2.719 4 2"/><path fill="#80cbef" d="M400 838c.962 9.344 24.939 9.724 31 5 8.505.304 21.546-.167 30-1 .1 6.753-.98 18.034 7 21-17.975 2.968-36.78 3.702-55 3-.333-.013-.668.017-1 0-4.004-4.994-9.378-10.28-13-15.5-2.331-3.36-5.324-11.308-7-13.5 2.62-1.537 5.506.312 8 1"/><path fill="#c1edfa" d="M431 843c-6.061 4.724-30.038 4.344-31-5 11.175 3.085 19.424 4.587 31 5"/><path fill="#348caf" d="M482 839c.261 8.687.693 15.436-6 23-2.627.563-5.414.573-8 1-7.98-2.966-6.9-14.247-7-21 6.956-.685 14.148-1.653 21-3"/><path fill="#0c5a84" d="M488 879c-3.109.559-6.88 1.563-10 1 5.881-3.468 1.226-11.346 4-17 11.68-2.928 25.416-9.61 37-13.5-3.498 6.25-6.947 14.759-12.5 19.5-5.781 4.936-13.14 5.3-18.5 10"/><path fill="#0e5c88" d="M504 896c-1.345-.172-.935-.972-1-1-.13-.056-1.814-1.888-2-2-4.83-2.914-10.244-8.14-15-11.5 5.665-1.621 9.925-3.474 15-6.5 9.581-5.713 15.189-10.305 19.5-21 6.608 14.927-3.639 33.576-16.5 42"/><path fill="#2281aa" d="m542 891-22-9c2.894-6.184 4.071-16.21 5.5-23 8.662 11.795 27.067 15.202 16.5 32"/><path fill="#277a99" d="M541 861c12.991 2.494 38.887 2.55 52 10-2.671 2.627-9.66-5.52-11 0-.592-.528-4.609-2.694-5-1.5 5.205 1.553 10.44 16.721 5.5 18.5-4.426 1.594-50.633-16.776-52.5-28 1.917.63 8.365.494 11 1"/><path fill="#1c7ba8" d="M482 863c-2.774 5.654 1.881 13.532-4 17-.743-.134-1.279-.648-2-1-2.466-1.204-8.949-9.541-9-13 4.845-.792 10.254-1.81 15-3"/><path fill="#5fb6e6" d="M467 866c.051 3.459 6.534 11.796 9 13-4.028 5.391-11.697 1.231-16 5-12.834-4.529-24.79-11.277-38-15 12.106.945 32.788-1.003 45-3"/><path fill="#136792" d="M593 871c10.364 5.888 11.948 23.714 5.5 25-.715.143-12.151-6.86-12.5-7.5-.451-.825 2.717-11.514-4-17.5 1.34-5.52 8.329 2.627 11 0"/><path fill="#082b40" d="M406 874c16.836 13.896 35.708 28.208 56 37 11.722 5.079 24.45 8.627 37 11 17.925 3.389 37.417 6.829 54-2 3.889-.339 8.422-2.224 12.5-2 .45 2.164-2.883 2.157-4.5 3-38.736 20.198-55.199.635-89-4-26.366-9.451-52.312-22.818-71-44 1.394.364 3.111.516 5 1"/><path fill="#38abd4" d="M411 874c7.145 7.181 19.927 12.768 29.5 17-18.121-11.572 7.47 1.152 14 3-5.625 2.104 2.458 3.906 6 5 22.625 6.987 51.898 11.344 75.5 9-.891 11.626 22.941-1.548 30 2-35.749 6.564-68.079 8.755-104 1-20.292-8.792-39.164-23.104-56-37 .242.062 2.186-.693 5 0"/><path fill="#2c9bc5" d="M501 875c-5.075 3.026-9.335 4.879-15 6.5 4.756 3.36 10.17 8.586 15 11.5-13.382 3.139-28.316-4.524-41-9 4.303-3.769 11.972.391 16-5 .721.352 1.257.866 2 1 3.12.563 6.891-.441 10-1 4.424-.795 8.492-3.476 13-4"/><path fill="#3fb4d5" d="M611 915c-3.586.643-8.674 2.253-12 0 4.615-1.452 14.379-5.558 18.5-8 .364-.216 5.315-2.632 2-3-10.799 5.009-29.684 13.14-41.5 12.5-.924-.05-2.974 1.566-1.5-1.5 31.077-10.491 67.592-17.449 93-39-7.506 25.613-34.803 34.748-58.5 39"/><path fill="#176e96" d="M565 898c.068-4.695-20.544-3.536-23-3l6.5-17 32.5 11.5c.258.868-14.436 7.913-16 8.5"/><path fill="#0f5e8a" d="M542 891c-3.077 4.891-12.402 9.364-18 11l-15-7c2.918-1.304 9.568-9.94 11-13z"/><path fill="#2f98c4" d="M590 906c-7.647 2.485-16.181 2.564-24 4-7.059-3.548-30.891 9.626-30-2 6.208-.617 16.5-2.367 22.5-4 5.923-1.612 24.199-11.795 26-12 6.362-.725 14.946 8.533 5.5 14"/><path fill="#1f7298" d="M504 896c.253.032 4.767-.896 5-1l15 7c-16.908 4.941-33.319 1.032-49-6 9.272 1.322 19.028 1.834 28-1 .065.028-.345.828 1 1"/><path fill="#0e587e" d="M565 898c-12.372 4.646-27.33 6.629-40.5 7 3.969-1.241 14.912-9.435 17.5-10 2.456-.536 23.068-1.695 23 3"/>/&gt;<path fill="#218bae" d="M553 920c-16.583 8.829-36.075 5.389-54 2 18.061-.562 35.941-.426 54-2"/></svg>