<svg xmlns="http://www.w3.org/2000/svg" width="1024" height="1024"><defs><linearGradient id="a" x1="606.633" x2="600.964" y1="180.354" y2="513.305" gradientUnits="userSpaceOnUse"><stop offset="0%" style="stop-color:#7d8c95"/><stop offset="12.613%" style="stop-color:#576f81"/><stop offset="100%" style="stop-color:#2e3b46"/></linearGradient></defs><defs><linearGradient id="b" x1="369.833" x2="671.08" y1="298.495" y2="367.28" gradientUnits="userSpaceOnUse"><stop offset="21.036%" style="stop-color:#d7ebf2"/><stop offset="93.528%" style="stop-color:#7cb3c1"/></linearGradient></defs><defs><linearGradient id="c" x1="547.213" x2="474.969" y1="250.913" y2="426.642" gradientUnits="userSpaceOnUse"><stop offset="0%" style="stop-color:#00426d"/><stop offset="100%" style="stop-color:#23a2cf"/></linearGradient></defs><defs><linearGradient id="d" x1="532.565" x2="488.809" y1="274.001" y2="404.88" gradientUnits="userSpaceOnUse"><stop offset="0%" style="stop-color:#00254c"/><stop offset="100%" style="stop-color:#0066a2"/></linearGradient></defs><defs><linearGradient id="e" x1="356.78" x2="658.544" y1="406.527" y2="433.862" gradientUnits="userSpaceOnUse"><stop offset="0%" style="stop-color:#d3dce3"/><stop offset="100%" style="stop-color:#59656e"/></linearGradient></defs><defs><linearGradient id="f" x1="364.519" x2="660.429" y1="523.439" y2="548.869" gradientUnits="userSpaceOnUse"><stop offset="28.956%" style="stop-color:#829498"/><stop offset="100%" style="stop-color:#435159"/></linearGradient></defs><defs><linearGradient id="g" x1="425.262" x2="613.734" y1="662.83" y2="824.021" gradientUnits="userSpaceOnUse"><stop offset="0%" style="stop-color:#24bdc9"/><stop offset="43.548%" style="stop-color:#016f7c"/><stop offset="100%" style="stop-color:#144857"/></linearGradient></defs><defs><linearGradient id="h" x1="568.15" x2="460.679" y1="658.547" y2="795.39" gradientUnits="userSpaceOnUse"><stop offset="0%" style="stop-color:#d8edf4"/><stop offset="100%" style="stop-color:#a0cbd6"/></linearGradient></defs><path fill="#22baed" d="M296 134c-.656 3.755 5.573 5.142 8 8.5 24.067 33.302-36.772 51.231-41 21.5 11.243 2.973 33.981-9.032 30-22.5-3.388-11.461-14.624-2.539-19 1.5-1.573 1.452-3.295 1.162-5 3.5-1.93 2.647-1.487 5.476-2 6.5-.7 1.397-3.992 2.142-4 9h-1c.237-18.581 15.63-30.325 34-28"/><path fill="#1375b4" d="M318 153c5.718 23.755-11.384 41.633-35 39-13.461-4.684-21.182-15.689-21-30h1c-.001.652-.09 1.365 0 2 4.228 29.731 65.067 11.802 41-21.5-2.427-3.358-8.656-4.745-8-8.5 10.021 1.269 19.02 9.488 22 19"/><path fill="#065480" d="M737 192c-5.867-.737-12.156.663-18-1-15.817-4.502-21.656-21.938-18-37 1.16-.193.941 1.039 1 1 .114 3.436-1.593 6.465-1 10 1.052 6.269 10.751 13.163 16.5 14 35.638 5.188 38.276-43.935 8.5-43-9.228.29-9.04 3.6-15 6-.409.165-1.37-.087-2 0 34.003-31.562 75.75 31.203 28 50"/><path fill="#66e6fe" d="M263 164c-.09-.635-.001-1.348 0-2 .008-6.858 3.3-7.603 4-9 5.906 14.649 22.181-9.162 7-10 4.376-4.039 15.612-12.961 19-1.5 3.981 13.468-18.757 25.473-30 22.5"/><path fill="#4bdbf9" d="M726 136c16.092 16.096-10.415 28.88-25 29-.593-3.535 1.114-6.564 1-10 1.803-1.214.788-3.232 4-1 .318 1.177-.083 2.079 1.5 3 8.261 2.993 18.61-12.87 4.5-14-.764-.061-1.103-.149-1-1 5.96-2.4 5.772-5.71 15-6"/><path fill="#139ad6" d="M701 165c14.585-.12 41.092-12.904 25-29 29.776-.935 27.138 48.188-8.5 43-5.749-.837-15.448-7.731-16.5-14"/><path fill="url(#a)" d="M607 161c28.565 15.646 56.047 36.314 76 62.5 35.702 46.856 42.262 103.934 39 161.5-.126-1.503-1.934-5.039-1-7.5-1.547-1.869-2.901 2.539-3 3-1.508 7.005-.874 19.152-2 27-5.995 41.775-18.359 82.096-35.5 120.5-4.454-1.193-9.024-1.98-13.5-3-3.297-.751-18.875-5.181-19-7.5 13.65-29.516 27.403-63.043 28-95.5 47.016-94.372.185-199.157-89-246-24.93-13.094-44.192-19.539-73-20l-6.5-5-23.5-8c46.145-4.603 80.698-1.042 123 18" style="fill:url(#a)"/>/&gt;<path fill="#3ba6d0" d="M711 142c-.103.851.236.939 1 1-4.406 1.769-7.227 6.463-6 11-3.212-2.232-2.197-.214-4 1-.059.039.16-1.193-1-1 1.32-5.436 4.063-8.346 8-12 .63-.087 1.591.165 2 0"/><path fill="#fbfeff" d="M267 153c.513-1.024.07-3.853 2-6.5 1.705-2.338 3.427-2.048 5-3.5 15.181.838-1.094 24.649-7 10"/><path fill="#b8c8d2" d="m484 143 23.5 8 6.5 5c-9.953-.159-17.267.589-27 2-40.379 5.856-72.248 25.373-101 53-3.449 3.315-7.822 6.479-11 10-4.852-.088-14.67-20.733-16.5-21-16.871 15.153-29.688 33.627-39.5 54-1.414 2.936-3.825 6.149-5 9-1.796-1.469-1.311-1.161-2-3l30-45.5c37.889-43.925 84.578-65.772 142-71.5"/><path fill="#f9fefe" d="M706 154c-1.227-4.537 1.594-9.231 6-11 14.11 1.13 3.761 16.993-4.5 14-1.583-.921-1.182-1.823-1.5-3"/><path fill="#06366b" d="M300 194c-.032.063-.629-.382-1 1-1.758-2.701-2.445-.832-6-1-3.108-.147-4-.223-7-1-.892-.231-2.096-.685-3-1 23.616 2.633 40.718-15.245 35-39 3.3 10.534 3.131 20.143-4 29.5-3.599 4.722-12.286 8.181-14 11.5"/><path fill="#3b505b" d="M514 156c28.808.461 48.07 6.906 73 20-6.815 1.741 1.041 2.194 1 6-8.986-4.992-17.228-8.73-27-12-25.892-8.665-46.475-11.123-74-7v-5c9.733-1.411 17.047-2.159 27-2"/><path fill="#597486" d="M487 158v5c-35.101 5.257-70.387 24.929-96 49-2.713-3.693-.647.882-5-1 28.752-27.627 60.621-47.144 101-53"/><path fill="url(#b)" d="M561 170c-10.36.401-21.361-4.919-31.5-6-21.763-2.319-52.511 1.183-73 9-3.544 1.352-13.515 4.995-14 9 18.732-7.573 37.546-15.674 58-17 36.457-2.364 76.095 18.761 106 39 4.378 2.963 25.276 21.752 27 22 1.858.267 4.092-2.203 4.5-4 92.632 100.179 54.279 271.324-91 277-23.118.903-49.876.881-73 0-51.584-1.966-82.331-16.984-113-59-54.873-75.176-34.951-166.959 30-228 25.613-24.071 60.899-43.743 96-49 27.525-4.123 48.108-1.665 74 7m-76.5 5c-27.502 8.064-53.663 21.394-73.5 42.5 17.635-11.592 34.185-24.632 53.5-33.5 5.952-2.733 16.556-4.469 20-9M405 276c-4.995 2.482-8.745 10.508-11 15.5-22.067 48.859-8.484 106.078 32.5 140.5 75.47 63.388 199.471 21.784 208.5-79.5.434-4.865 1.262-16.965-2-20.5-5.568-118.048-166.307-158.304-228-56" style="fill:url(#b)"/>/&gt;<path fill="#1b3748" d="M719 191c5.844 1.663 12.133.263 18 1-1.318.519-1.763 1.698-3 2-.314.077-.683-.072-1 0-1.124.257-4.071.893-5 1-2.142.246-4.364-5.789-7 2.5-3.805 11.963-1.578 33.621-3 46-.117 1.019-8.924 16.262-1 18.5-.398 1.675-1.199 3.213-1 5-1.44.279-4.515.889-5 2.5-.652 2.167 13.193 37.407 12.5 43.5 1.918-1.599 2.261-1.971 2.5-4.5.95-10.066-8.614-30.5-9-41.5 3.061-.391 6.083.115 9 1 .101.201 4.539-.746 2.5 2H720c-1.929.595 5.396 23.884 6 27.5 5.542 33.195 7.361 74.059 4 107.5-.369 3.668-1.048 7.301-1 11-2.625 7.225-2.91 24.582-5 34-.602 2.712-2.697 14.928-5 19-.311.55-2.019 3.264-2.5 4-.716 1.094-2.006-1.454-4.5 3-1.607 2.87-1.484 6.418-4 8 4.775-23.995 16.055-74.497 14-99 3.262-57.566-3.298-114.644-39-161.5-19.953-26.186-47.435-46.854-76-62.5 44.157 19.878 80.334 57.156 100.5 101z"/><path fill="#b5d7e2" d="M561 170c9.772 3.27 18.014 7.008 27 12 19.018 10.565 35.295 24.097 50 40-.408 1.797-2.642 4.267-4.5 4-1.724-.248-22.622-19.037-27-22-29.905-20.239-69.543-41.364-106-39-20.454 1.326-39.268 9.427-58 17 .485-4.005 10.456-7.648 14-9 20.489-7.817 51.237-11.319 73-9 10.139 1.081 21.14 6.401 31.5 6"/><path fill="#f7fbfc" d="M484.5 175c-3.444 4.531-14.048 6.267-20 9-19.315 8.868-35.865 21.908-53.5 33.5 19.837-21.106 45.998-34.436 73.5-42.5"/><path fill="#2e3d46" d="M587 176c89.185 46.843 136.016 151.628 89 246-28.578 57.363-72.828 81.677-136 83 .144-4.879 3.773-4.171 7-6 145.279-5.676 183.632-176.821 91-277-14.705-15.903-30.982-29.435-50-40 .041-3.806-7.815-4.259-1-6"/><path fill="#2bbade" d="m293 194-5 71.5c7.895 5.243 9.313-9.218 13.5-12.5 1.453 5.134-1.359 12.578 5.5 14-2.866 1.16-3.319.752-6 1-6.884.636-14.108-.429-21-.5 7.468-.843.877-11.019 4-17l-3 6-1-10.5c2.137-17.625 2.931-35.489 6-53 3 .777 3.892.853 7 1m-5.5 4-3 48c4.226-8.821 2.075-17.874 2.5-24.5.012-.18 1.988-2.82 2-3 .173-2.612 1.373-21.801-1.5-20.5"/><path fill="#0b7fab" d="M299 195c-1.228 4.572 4.667 42.186 6 49.5 1.284 7.044 10.248 19.162 2 22.5-6.859-1.422-4.047-8.866-5.5-14-4.187 3.282-5.605 17.743-13.5 12.5l5-71.5c3.555.168 4.242-1.701 6 1"/><path fill="#095573" d="m728 195 4.5 73c5.75-24.301 2.794-48.911.5-74 .317-.072.686.077 1 0l8 74c-1.98-.001-5.3 1.087-7.5 1-1.297 1.293 1.895.67 1.5 2-.029.099-1.877-.338-2 .5-.662 4.508-.142 12.612 0 17.5h-1c-.958-11.419.488-19.053-13-19h8.5c2.039-2.746-2.399-1.799-2.5-2-.308-.615 1.061-1.402 1-1.5-2.577-4.103-7.028-7.202-7.5-13.5-.467.006-2.218 7.814-2.5 9-7.924-2.238.883-17.481 1-18.5 1.422-12.379-.805-34.037 3-46 2.636-8.289 4.858-2.254 7-2.5"/><path fill="#034563" d="M312 260c.689 1.839.204 1.531 2 3-22.348 54.215-18.986 127.014-9 184-.664 1.336-1.087 9.03-1 10-8.894-41.161-11-83.465-8-125.5l-6 .5c1.612-19.732 5.657-41.977 11-61 .063-.225 2.079-.774 0-3 2.681-.248 3.134.16 6-1 8.248-3.338-.716-15.456-2-22.5-1.333-7.314-7.228-44.928-6-49.5.371-1.382.968-.937 1-1 3.995 20.663 4.651 46.371 12 66"/><path fill="#60e3f7" d="M733 194c2.294 25.089 5.25 49.699-.5 74l-4.5-73c.929-.107 3.876-.743 5-1"/><path fill="#84e3f7" d="M287.5 198c2.873-1.301 1.673 17.888 1.5 20.5-.012.18-1.988 2.82-2 3-.425 6.626 1.726 15.679-2.5 24.5z"/><path fill="#d2dfe7" d="M375 221c-21.337 23.641-40.315 56.807-47 88-1.949-.666-2.731 3.293-3 4.5-4.218 18.95-3.124 38.378-1 57.5-1.649 1.401-3.624.108-4 2.5-.448 2.85 3.301 22.792 4 27.5l-19 3c-4.74-37.489-7.047-77.476 2-114.5 2.937-12.02 9.694-23.333 12-35.5 9.812-20.373 22.629-38.847 39.5-54 1.83.267 11.648 20.912 16.5 21"/><path fill="#809aac" d="M391 212c-64.951 61.041-84.873 152.824-30 228l-4 3c-29.545-40.634-39.617-84.463-29-134 6.685-31.193 25.663-64.359 47-88 3.178-3.521 7.551-6.685 11-10 4.353 1.882 2.287-2.693 5 1"/><path fill="#001837" d="M633 332c2.3 48.774-23.289 93.432-68 113 2.814-1.403 7.057-5.102 10-7 41.962-27.058 65.452-73.192 54-122.5-2.975-12.811-2.894-16.252-17-10.5-20.001-59.232-87.917-87.923-145-63l-4.5-13c-52.751 20.929-82.566 79.393-71.5 135-7.457-31.848-2.879-60.009 14-88 61.693-102.304 222.432-62.048 228 56"/><path fill="#024574" d="M467 242c-47.18 20.6-72.499 72.975-61 123-12.647 1.809-13.333-2.749-12 10-2.093-4.757-1.795-5.851-3-11-11.066-55.607 18.749-114.071 71.5-135z"/><path fill="url(#c)" d="M612 305c15.561 46.083-1.266 97.352-43 123-60.423 37.133-146.625 8.236-163-63-11.499-50.025 13.82-102.4 61-123 57.083-24.923 124.999 3.768 145 63m-136-38c-31.495-6.752-57.13 21.976-43 53-18.421 70.857 57.227 124.441 120.5 88 52.45-30.207 44.738-109.06-5-138-20.906-12.164-51.146-15.901-72.5-3" style="fill:url(#c)"/>/&gt;<path fill="#055e81" d="M301 268c2.079 2.226.063 2.775 0 3-13.083-1.169-12.647 3.595-14 15h-1c.156-4.394 1.014-11.222-1.5-15-1.539-.748-30.093 5.73-33.5 7-1.716.64-7.536 2.293-8 3.5-.073 2.279.719 4.263 1 6.5 1.314 10.472 5.478 22.444 7 34 1.848 14.026 3.438 27.773 3 42-.071 2.306.182 4.709 0 7-.46 5.79-1.913 11.64-2 17.5-1.134 2.191-3.662 1.241-4 1.5v-35c1.71-23.632-2.273-51.039-10.5-73-2.069 5.844-5.068 11.332-7.5 17-7.858 18.31-12.183 36.176-14 56-.409 4.462-.869 8.455-1 13-.455 15.841-.091 32.446 3 48l-2 3c-5.64-28.691-4.056-63.977 2-92.5 1.509-7.105 13.167-45.408 17.5-48.5 6.317-4.507 32.375-7.851 41-10 2.55-1.713 3.01-17.958 3.5-22l1 10.5 3-6c-3.123 5.981 3.468 16.157-4 17 6.892.071 14.116 1.136 21 .5"/><path fill="#0fabd8" d="M726 268c-2.917-.885-5.939-1.391-9-1-.327.042-.682-.062-1 0-.199-1.787.602-3.325 1-5 .282-1.186 2.033-8.994 2.5-9 .472 6.298 4.923 9.397 7.5 13.5.061.098-1.308.885-1 1.5"/><path fill="#f8fafc" d="M305 404c1.899 15.023 4.68 30.246 8 45 3.614 16.06 8.861 31.416 14 47 1.419 4.301 10.659 35.509 12.5 36l20.5-8.5c-3.266-8.211-6.963-16.2-10-24.5-3.921-10.718-11.908-42.237-16-49-3.761-16.248-7.545-32.466-10-49-.699-4.708-4.448-24.65-4-27.5.376-2.392 2.351-1.099 4-2.5.836 7.525 3.06 18.83 4 24.5 6.893 41.575 18.92 85.713 36 126l77-6.5c-38.184 2.135-75.604 6.355-110.5 23-11.108-29.452-20.055-59.927-25.5-91-9.986-56.986-13.348-129.785 9-184 1.175-2.851 3.586-6.064 5-9-2.306 12.167-9.063 23.48-12 35.5-9.047 37.024-6.74 77.011-2 114.5"/><path fill="url(#d)" d="M433 320c5.374 11.799 12.261 16.938 25 19-4.267 8.506 4.34 25.217 10 32.5 15.408 19.826 43.881 28.046 66 14.5.315 2.244 6.536 10.176 8.5 11 15.16 6.363 27.991-15.443 13.5-25 .491-7.142 6.098-13.517 7-20.5 3.311-25.647-11.546-53.069-36.5-61.5-6.039-2.041-24.62-7.254-26.5 0-2.33-11.492-12.33-20.498-24-23 21.354-12.901 51.594-9.164 72.5 3 49.738 28.94 57.45 107.793 5 138-63.273 36.441-138.921-17.143-120.5-88" style="fill:url(#d)"/>/&gt;<path fill="#fefefe" d="M476 267c11.67 2.502 21.67 11.508 24 23 5.732 28.28-11.232 53.98-42 49-12.739-2.062-19.626-7.201-25-19-14.13-31.024 11.505-59.752 43-53"/><path fill="#031725" d="M717 267c.386 11 9.95 31.434 9 41.5-.239 2.529-.582 2.901-2.5 4.5.693-6.093-13.152-41.333-12.5-43.5.485-1.611 3.56-2.221 5-2.5.318-.062.673.042 1 0"/><path fill="#064561" d="M742 268c6.746.004 39.942 7.423 44 11.5 9.737 9.785 19.965 67.457 21 82.5l-2 2v-2c.304-24.048-8.051-47.742-18-69-.689-1.473-1.299-4.565-2-6-.924-1.891-.839-3.722-2.5-5-9.268 22.091-10.111 47.007-10.5 71-.216 13.312.16 26.686 0 40-.156.027-.788 1.811-3 1-.611-5.518-.814-14.451-4-19-.022-.331.036-.672 0-1 .464-18.03 1.533-36.149 4-54 1.609-11.642 5.22-23.256 7-35 .03-.199 2.483-2.203 2-3.5l-2-.5c-12.727-5.072-26.46-8.507-40-10 .395-1.33-2.797-.707-1.5-2 2.2.087 5.52-1.001 7.5-1"/><path fill="#68e6fc" d="M733 289c2.404 28.651 5.048 66.939 3 95.5-.394 5.488-1.091 17.836-6 20.5 3.361-33.441 1.542-74.305-4-107.5-.604-3.616-7.929-26.905-6-27.5 13.488-.053 12.042 7.581 13 19"/><path fill="#8feefe" d="M286 286c-.316 8.914-2.157 20.652-3 30l-32 6c-1.522-11.556-5.686-23.528-7-34l38-8.5-1.5-4.5c-4.591-2.259-22.899 5.815-28 6-2.444.089.075-1.574-1.5-3 3.407-1.27 31.961-7.748 33.5-7 2.514 3.778 1.656 10.606 1.5 15"/><path fill="#80e6fa" d="M301 271c-5.343 19.023-9.388 41.268-11 61-1.188 14.548-1.227 29.397-1 44-4.889-.138 1.3-10.224-5-9-.411-13.746.355-27.307 1-41 .574-12.192.627-28.429 2-40 1.353-11.405.917-16.169 14-15"/><path fill="#6ae8fc" d="M736 271c13.54 1.493 27.273 4.928 40 10-8.117 3.178-30-9.178-36.5-6-.493.241-1.885 3.638-1.5 4.5.954 2.139 33.01 5.323 38 5.5-1.78 11.744-5.391 23.358-7 35-1.854 2.512-1.692 1.333-4.5 1-9.115-1.081-18.317-4.039-27.5-5-.707-8.771-2.743-18.178-3-27-.142-4.888-.662-12.992 0-17.5.123-.838 1.971-.401 2-.5"/><path fill="#aef4ff" d="M244 288c-.281-2.237-1.073-4.221-1-6.5.464-1.207 6.284-2.86 8-3.5 1.575 1.426-.944 3.089 1.5 3 5.101-.185 23.409-8.259 28-6l1.5 4.5z"/><path fill="#a7f3fd" d="m776 281 2 .5c.483 1.297-1.97 3.301-2 3.5-4.99-.177-37.046-3.361-38-5.5-.385-.862 1.007-4.259 1.5-4.5 6.5-3.178 28.383 9.178 36.5 6"/><path fill="#f0f8fa" d="M405 276c-16.879 27.991-21.457 56.152-14 88 1.205 5.149.907 6.243 3 11 .243 2.329.488 2.987 1 5 17.103 67.25 111.828 94.009 170 65 44.711-19.568 70.3-64.226 68-113 3.262 3.535 2.434 15.635 2 20.5-9.029 101.284-133.03 142.888-208.5 79.5-40.984-34.422-54.567-91.641-32.5-140.5 2.255-4.992 6.005-13.018 11-15.5"/><path fill="#88eefd" d="M248 355c-.352 4.86-1.394 10.042-1.5 15l-1-13-.5 11.5c-.765 1.474-31.007 8.716-30-.5.131-4.545.591-8.538 1-13l3 2.5c2.047-1.23 8.786-39.173 10-45 .881-4.232 4.869-8.01 1-13.5 2.432-5.668 5.431-11.156 7.5-17 8.227 21.961 12.21 49.368 10.5 73"/><path fill="#72e4f5" d="m785 287-13 66c.389-23.993 1.232-48.909 10.5-71 1.661 1.278 1.576 3.109 2.5 5"/><path fill="#28c0dc" d="m285 326-3-4c.126-1.464.796-3.738 1-6 .843-9.348 2.684-21.086 3-30h1c-1.373 11.571-1.426 27.808-2 40"/><path fill="#00112b" d="M556 372c-10.668-7.035-23.614 2.489-22 14-22.119 13.546-50.592 5.326-66-14.5-5.66-7.283-14.267-23.994-10-32.5 30.768 4.98 47.732-20.72 42-49 1.88-7.254 20.461-2.041 26.5 0 24.954 8.431 39.811 35.853 36.5 61.5-.902 6.983-6.509 13.358-7 20.5"/><path fill="#2fc0dd" d="m787 293-12 73.5c1.245 2.794 25.41 3.186 26.5 4.5.282.34-1.48 7.528 2 8-.106-5.399 1.435-11.828 1.5-17v2c0 21.793.237 40.81-6 62l2-28.5c-.761-1.632-25.803-5.045-29-4.5.16-13.314-.216-26.688 0-40l13-66c.701 1.435 1.311 4.527 2 6"/><path fill="#187fa7" d="M737 316c1.188 14.739 3.13 29.216 4 44 .574 9.755-.423 19.715 0 29.5l23 3.5c.299 7.743.342 15.26 1 23 .531 6.24.786 15.228 2 21l-32 5c.528-4.994 1.534-9.879 2-15 .288-3.166 3.131-13.826 1-16.5-4.15-5.209-6.713 4.528-7 5-.564.928-1.951.366-2 .5-.048-3.699.631-7.332 1-11 4.909-2.664 5.606-15.012 6-20.5 2.048-28.561-.596-66.849-3-95.5h1c.257 8.822 2.293 18.229 3 27"/><path fill="#5be5fc" d="M805 362c-.065 5.172-1.606 11.601-1.5 17-3.48-.472-1.718-7.66-2-8-1.09-1.314-25.255-1.706-26.5-4.5l12-73.5c9.949 21.258 18.304 44.952 18 69"/><path fill="#a6f1fd" d="M216 355c1.817-19.824 6.142-37.69 14-56 3.869 5.49-.119 9.268-1 13.5-1.214 5.827-7.953 43.77-10 45z"/><path fill="#024574" d="m575 438-6-10c41.734-25.648 58.561-76.917 43-123 14.106-5.752 14.025-2.311 17 10.5 11.452 49.308-12.038 95.442-54 122.5"/><path fill="url(#e)" d="M328 309c-10.617 49.537-.545 93.366 29 134 33.709 46.36 62.72 58.627 119 61 20.425.861 43.609 1.427 64 1 63.172-1.323 107.422-25.637 136-83-.597 32.457-14.35 65.984-28 95.5.125 2.319 15.703 6.749 19 7.5-3.646-.189-1.046 1.779-1 4-64.384-13.779-134.811-17.008-202-15-7.556.226-15.441.577-23 1l-77 6.5c-17.08-40.287-29.107-84.425-36-126-.94-5.67-3.164-16.975-4-24.5-2.124-19.122-3.218-38.55 1-57.5.269-1.207 1.051-5.166 3-4.5" style="fill:url(#e)"/>/&gt;<path fill="#6ee2f8" d="M283 316c-.204 2.262-.874 4.536-1 6-1.093 12.714-3.347 25.254-4 38l-24 4c.438-14.227-1.152-27.974-3-42z"/><path fill="#3fd1f0" d="M769 320c-2.467 17.851-3.536 35.97-4 54-1.757-16.047-10.941-9.791-24-14-.87-14.784-2.812-29.261-4-44 9.183.961 18.385 3.919 27.5 5 2.808.333 2.646 1.512 4.5-1"/><path fill="#278ab7" d="M285 326c-.645 13.693-1.411 27.254-1 41 .26 8.706-2.106 26.796 6 31 .464 7.087 1.171 13.964 2 21-3.43.793-4.088-4.813-4.5-5-.532-.242-6.241 2.627-6.5 3.5-.18.607 1.781 10.244 2 12.5.383 3.94 1.569 8.119 2 12l-32-5c1.126-5.612 1.411-13.064 2-19 .739-7.451.965-18.326 1-26 3.016.196 22.233-1.416 23-2.5.852-1.205-1.249-24.637-1-29.5.653-12.746 2.907-25.286 4-38z"/><path fill="#033952" d="M304 457c.639 7.157 3.472 12.29 5 18.5.142.579-1.226.574-2 .5l-32-3c.457-.018 6.304-.843 7-1 5.837-.826 11.219 1.644 17 0 1.056-.3 3.362.574 4-.5-6.694-16.624-8.909-34.755-11-52.5-.829-7.036-1.536-13.913-2-21-.487-7.429-.884-14.523-1-22-.227-14.603-.188-29.452 1-44l6-.5c-3 42.035-.894 84.339 8 125.5"/><path fill="#4cd2ea" d="M248 390c-.892.683-1.966 1.534-3 2-8.064 3.638-16.654 3.196-25 5.5l3 33.5c-1.764-4.511-4.071-10.326-5-15-3.091-15.554-3.455-32.159-3-48-1.007 9.216 29.235 1.974 30 .5l.5-11.5 1 13c.106-4.958 1.148-10.14 1.5-15z"/><path fill="#3ec1dc" d="M278 360c-.249 4.863 1.852 28.295 1 29.5-.767 1.084-19.984 2.696-23 2.5.032-7.024.164-14.218-2-21 .182-2.291-.071-4.694 0-7z"/><path fill="#28a8c8" d="M765 374c.036.328-.022.669 0 1 .416 6.175-1.236 11.891-1 18l-23-3.5c-.423-9.785.574-19.745 0-29.5 13.059 4.209 22.243-2.047 24 14"/><path fill="#042539" d="M749 473c3.076-.547 27.508-7.122 28-8.5-2.264-8.43-8.275-19.302-10-27.5-1.214-5.772-1.469-14.76-2-21 2.353-.504 3.217.556 4 2.5 2.105 5.226 7.514 41.356 13.5 41.5.936.023 3.492-3.51 3.5-5.5.005-1.352-7.76-21.401-9-25.5 4.172-2.059 5.519 3.184 7 6 .903 1.716 4.09 12 5.5 12 3.64-3.977 4.574-9.283 6.5-14 .985-2.412 2.083-3.885 3-7 6.237-21.19 6-40.207 6-62l2-2c1.854 26.949.153 55.235-10 80.5-.981 2.442-10.1 21.162-11 22-4.902 4.566-29.62 7.056-37 8.5"/><path fill="#1076b1" d="M406 365c16.375 71.236 102.577 100.133 163 63l6 10c-2.943 1.898-7.186 5.597-10 7-58.172 29.009-152.897 2.25-170-65 2.23-.812-.65-4.204-1-5-1.333-12.749-.647-8.191 12-10"/><path fill="#39c4e4" d="M289 376c.116 7.477.513 14.571 1 22-8.106-4.204-5.74-22.294-6-31 6.3-1.224.111 8.862 5 9"/><path fill="#fdfefe" d="M556 372c14.491 9.557 1.66 31.363-13.5 25-1.964-.824-8.185-8.756-8.5-11-1.614-11.511 11.332-21.035 22-14"/><path fill="#0d8cab" d="M256 392c-.035 7.674-.261 18.549-1 26-2.442.089-3.157.641-4 3-3.797 2.249-7.069-1.929-7.5-2-.587-.096-1.703 6.848-2.5 2 2.236-9.51 2.442-19.392 4-29 1.034-.466 2.108-1.317 3-2 .338-.259 2.866.691 4-1.5.087-5.86 1.54-11.71 2-17.5 2.164 6.782 2.032 13.976 2 21"/><path fill="#001837" d="M395 380c-.512-2.013-.757-2.671-1-5 .35.796 3.23 4.188 1 5"/><path fill="#286484" d="M769 394c1.87 16.881 3.455 19.976 8 35 1.24 4.099 9.005 24.148 9 25.5-.008 1.99-2.564 5.523-3.5 5.5-5.986-.144-11.395-36.274-13.5-41.5-.783-1.944-1.647-3.004-4-2.5-.658-7.74-.701-15.257-1-23-.236-6.109 1.416-11.825 1-18 3.186 4.549 3.389 13.482 4 19"/><path fill="#46545c" d="M722 385c2.055 24.503-9.225 75.005-14 99-.341 1.713-.781 2.28-1 3-.633 2.077-2.876 4.087-2 7-.328 1.116-.65 1.964-1 3-1.719 1.025-1.641 4.381-2 6-.781 3.523-1.608 5.717-3 9-1.701 4.01-11.736 21.104-15.5 22-5.706-3.406-11.626-3.743-17.5-5-.046-2.221-2.646-4.189 1-4 4.476 1.02 9.046 1.807 13.5 3 17.141-38.404 29.505-78.725 35.5-120.5 1.126-7.848.492-19.995 2-27 .099-.461 1.453-4.869 3-3-.934 2.461.874 5.997 1 7.5"/><path fill="#3c9ac7" d="M241 421c-.49 2.083-1.352 4.894-2 7-.681 2.214-2.094 4.734-3 7l-13-2c-.145-.515.073-1.358 0-2l-3-33.5c8.346-2.304 16.936-1.862 25-5.5-1.558 9.608-1.764 19.49-4 29"/><path fill="#3389b6" d="M799 426c-.917 3.115-2.015 4.588-3 7l-12 2c-1.481-2.816-2.828-8.059-7-6-4.545-15.024-6.13-18.119-8-35 2.212.811 2.844-.973 3-1 3.197-.545 28.239 2.868 29 4.5z"/><path fill="#b8c8d2" d="M334 450c-4.311-7.124-13.182-1.69-21-1-3.32-14.754-6.101-29.977-8-45l19-3c2.455 16.534 6.239 32.752 10 49"/><path fill="#066788" d="M737 427c-12.132-2.14-7.938 17.689-12 25.5l-1-2.5c2.09-9.418 2.375-26.775 5-34 .049-.134 1.436.428 2-.5.287-.472 2.85-10.209 7-5 2.131 2.674-.712 13.334-1 16.5"/><path fill="#0e7398" d="M292 419c2.091 17.745 4.306 35.876 11 52.5-.638 1.074-2.944.2-4 .5.814-6.21-2.861-14.091-5-17.5.177-7.231-.676-30.005-11-24.5-.219-2.256-2.18-11.893-2-12.5.259-.873 5.968-3.742 6.5-3.5.412.187 1.07 5.793 4.5 5"/><path fill="#023c5c" d="M223 431c.073.642-.145 1.485 0 2 .431 1.529 6.706 13.984 7.5 14 2.695-3.025 3.994-8.23 5.5-12 .906-2.266 2.319-4.786 3-7l4.5-4c2.471 1.401-13.485 35.894-6 36 8.629-10.931 9.155-26.839 13.5-39 .843-2.359 1.558-2.911 4-3-.589 5.936-.874 13.388-2 19-.787 3.92-10.711 27.168-10 28.5l20 6.5c-7.163-.731-25.387-4.009-30-9.5-5.575-6.637-15.225-34.469-17-43.5l2-3c.929 4.674 3.236 10.489 5 15"/><path fill="#20769c" d="M251 421c-4.345 12.161-4.871 28.069-13.5 39-7.485-.106 8.471-34.599 6-36l-4.5 4c.648-2.106 1.51-4.917 2-7 .797 4.848 1.913-2.096 2.5-2 .431.071 3.703 4.249 7.5 2"/><path fill="#0e3b50" d="M737 427c-.466 5.121-1.472 10.006-2 15-.862 8.145-2.412 16.783-2 25-1.525 3.401-16.192 9.798-14 2 2.303-4.072 4.398-16.288 5-19l1 2.5c4.062-7.811-.132-27.64 12-25.5"/><path fill="#10506e" d="M299 472c-5.781 1.644-11.163-.826-17 0 2.305-.519 4.586-1.267 7-1.5-1.643-9.387-2.949-19.046-4-28.5-.431-3.881-1.617-8.06-2-12 10.324-5.505 11.177 17.269 11 24.5 2.139 3.409 5.814 11.29 5 17.5"/><path fill="#1f739d" d="M236 435c-1.506 3.77-2.805 8.975-5.5 12-.794-.016-7.069-12.471-7.5-14z"/><path fill="#21607d" d="M796 433c-1.926 4.717-2.86 10.023-6.5 14-1.41 0-4.597-10.284-5.5-12z"/><path fill="#026388" d="M285 442c1.051 9.454 2.357 19.113 4 28.5-2.414.233-4.695.981-7 1.5-.696.157-6.543.982-7 1-4.399.177-7.788-.57-12-1l-20-6.5c-.711-1.332 9.213-24.58 10-28.5z"/><path fill="#0a556f" d="M749 473c-.323.057-.677-.056-1 0l-15.5-1c-1.497-1.846.597-3.065.5-5-.412-8.217 1.138-16.855 2-25l32-5c1.725 8.198 7.736 19.07 10 27.5-.492 1.378-24.924 7.953-28 8.5"/><path fill="#67879b" d="M361 440c30.669 42.016 61.416 57.034 113 59l2 5c-56.28-2.373-85.291-14.64-119-61z"/><path fill="#9aadba" d="M334 450c4.092 6.763 12.079 38.282 16 49-3.392.334-3.059-6.417-4.5-7-1.821-.737-15.078 4.764-18.5 4-5.139-15.584-10.386-30.94-14-47 7.818-.69 16.689-6.124 21 1"/><path fill="#2f434c" d="M441 515a898 898 0 0 1 23-1l-60.5 7c-7.558 1.202-66.438 14.538-69 17-.733.704-1.734 1.269-1.5 2.5.516 2.709 38.942 19.735 45 19.5 2.226 1.751 7.998 3.486 11 3.5-2.864-2.612-12.19-4.352-12-9.5 15.101 2.035 28.874-3.974 43.5-6 10.737-1.488 21.818-1.557 32.5-3-6.494 5.838-16.88 6.564-24.5 10-8.626 3.89-17.586 9.766-25.5 15-16.129-5.99-33.659-9.209-49.5-16-17.867-7.66-22.326-8.311-29.5-26.5-6.468-16.398-8.467-37.019-17-51.5.774.074 2.142.079 2-.5-1.528-6.21-4.361-11.343-5-18.5-.087-.97.336-8.664 1-10 5.445 31.073 14.392 61.548 25.5 91 34.896-16.645 72.316-20.865 110.5-23"/><path fill="#081e2c" d="M733 467c.097 1.935-1.997 3.154-.5 5l15.5 1c-11.755 2.037-24.122 1.85-36 3 2.494-4.454 3.784-1.906 4.5-3 .481-.736 2.189-3.45 2.5-4-2.192 7.798 12.475 1.401 14-2"/><path fill="#26373e" d="M705 494c-.876-2.913 1.367-4.923 2-7 1.686 3.748-1.887 6.616-2 7"/><path fill="#8196a5" d="M350 499c3.037 8.3 6.734 16.289 10 24.5l-20.5 8.5c-1.841-.491-11.081-31.699-12.5-36 3.422.764 16.679-4.737 18.5-4 1.441.583 1.108 7.334 4.5 7"/><path fill="#1c2f35" d="M702 503c.359-1.619.281-4.975 2-6-.612 1.811 1.34 5.015-2 6"/><path fill="#516f81" d="M547 499c-3.227 1.829-6.856 1.121-7 6-20.391.427-43.575-.139-64-1l-2-5c23.124.881 49.882.903 73 0"/><path fill="url(#f)" d="M651 560c3.73-1.389 11.622-5.638 15-8 .296-.207 2.356.115 3-1.5-1.75-1.823-2.842 1.445-3 1.5-6.843 2.395-12.9 5.698-20 6 2.598-2.608.918-3.072 1-6.5-1.716-3.024-3.57-.272-4-.5-24.573-13.006-67.223-13.205-95-14-16.229-.465-32.758-.188-49 0-14.604-2.454-33.264-1.86-48.5-1-11.031.623-74.081 5.862-76.5 16.5-.638 2.604 2.339 6.194 4 7.5-6.058.235-44.484-16.791-45-19.5-.234-1.231.767-1.796 1.5-2.5 2.562-2.462 61.442-15.798 69-17l60.5-7c67.189-2.008 137.616 1.221 202 15 5.874 1.257 11.794 1.594 17.5 5 3.764-.896 13.799-17.99 15.5-22-3.532 22.449-26.395 42.885-48 48" style="fill:url(#f)"/>/&gt;<path fill="#e3eae9" d="M499 537c-9.699.112-19.342-.002-29 1-9.249-1.046-24.808.247-34.5 1-8.048.625-58.183 6.381-58.5 15-.19 5.148 9.136 6.888 12 9.5-3.002-.014-8.774-1.749-11-3.5-1.661-1.306-4.638-4.896-4-7.5 2.419-10.638 65.469-15.877 76.5-16.5 15.236-.86 33.896-1.454 48.5 1"/><path fill="#0d426e" d="M499 537c16.242-.188 32.771-.465 49 0l-3.5 2c8.61 1.764 16.755 3.737 25.5 5l49 23c16.125 10.514 29.452 23.709 44 36 .245.207 1.994 3.603 4 5 .479.333 1.441.704 2 1 .062.033-.364.451 1 1 1.501 5.19 7.179 9.033 10 13 2.615 3.678 9.09 12.677 11 16 .778 1.353 4.86 10.52 6 13 .698 1.517 1.336 3.408 2 5 6.035 14.479 9.409 48.583 15 58 5.036 71.559-22.251 132.884-77 178-68.229 56.224-172.078 49.788-242 1-49.191-34.323-102.279-121.755-84-183 1.742-5.836 4.775-6.319 6-10.5 3.831-13.083 4.783-21.021 5-33.5.006-.333.003-.667 0-1-.018-1.924 1.043-2.263 1-3-.257-4.454-3.404-11.32 1-10 6.273 1.484 24.741-30.456 30-37 13.576-16.895 30.97-34.076 49-46 7.914-5.234 16.874-11.11 25.5-15 7.62-3.436 18.006-4.162 24.5-10 8.243-1.113 16.252-2.943 24.5-4 1.67-2.184-6.899-2.932-7.5-3 9.658-1.002 19.301-.888 29-1M320 763c2.321 24.783 15.708 61.701 31 81.5 2.026 2.623 8.034 11.76 11 7.5 5.007 6.198 11.261 11.507 17 17 97.926 93.729 263.056 69.729 314-60 9.28-23.632 12.339-38.366 13-64 4.362 1.213 4.6-2.947 5-5.5 9.747-62.165-43.924-139.187-95.5-169.5-145.757-85.665-320.702 34.532-297 198z"/><path fill="#162631" d="M643 551c.39 1.584 2.465 1.915 2 4-24.829-5.19-50.063-7.398-75-11-8.745-1.263-16.89-3.236-25.5-5l3.5-2c27.777.795 70.427.994 95 14"/><path fill="#0f1e2a" d="M470 538c.601.068 9.17.816 7.5 3-8.248 1.057-16.257 2.887-24.5 4-10.682 1.443-21.763 1.512-32.5 3-14.626 2.026-28.399 8.035-43.5 6 .317-8.619 50.452-14.375 58.5-15 9.692-.753 25.251-2.046 34.5-1"/><path fill="#0971ad" d="M706 745c.172-6.675.507-13.302 0-20-2.847-37.597-16.145-70.482-39-100-35.207-45.473-87.216-74.199-145-77-9.901-.48-21.152-.836-31 0-70.945 6.026-128.469 57.911-156 121-13.724 31.448-18.266 59.123-15 94l-1.5 5c-23.702-163.468 151.243-283.665 297-198 51.576 30.313 105.247 107.335 95.5 169.5-.4 2.553-.638 6.713-5 5.5"/><path fill="#314750" d="M645 555c-.4 1.793-3.063 2.404-3 4.5.286.618 3.608-1.107 4-1.5 7.1-.302 13.157-3.605 20-6-3.378 2.362-11.27 6.611-15 8-9.717 3.618-21.787 4.667-32 7l-49-23c24.937 3.602 50.171 5.81 75 11"/><path fill="#77dbf1" d="M522 548c-.413 2.368-.763 17.478-1.5 18-1.306.925-26.572.298-32 1-58.869 7.618-108.085 45.275-133.5 98-13.724 28.471-20.727 58.005-17 90-.024-.1-1.772.362-2-.5-.534-2.02.832-9.556-.5-10.5-2.081-1.475-8.795 2.506-11.5 0-.5-23.695 3.353-51.903 12-74 21.815-55.75 71.898-97.074 128.5-114 8.391-2.509 20.169-2.689 26.5-8 9.848-.836 21.099-.48 31 0"/><path fill="#33c0dc" d="M491 548c-6.331 5.311-18.109 5.491-26.5 8-56.602 16.926-106.685 58.25-128.5 114l-1-1c27.531-63.089 85.055-114.974 156-121"/><path fill="#36b5d8" d="M667 625c-5.935 8.572-20.985 6.838-27 16-11.174-13.76-24.301-24.352-39-34-81.62-53.571-194.798-25.74-236 64l-10-6c25.415-52.725 74.631-90.382 133.5-98 5.428-.702 30.694-.075 32-1 .737-.522 1.087-15.632 1.5-18 57.784 2.801 109.793 31.527 145 77"/><path fill="#56686f" d="M646 558c-.392.393-3.714 2.118-4 1.5-.063-2.096 2.6-2.707 3-4.5.465-2.085-1.61-2.416-2-4 .43.228 2.284-2.524 4 .5-.082 3.428 1.598 3.892-1 6.5"/><path fill="#314750" d="M666 552c.158-.055 1.25-3.323 3-1.5-.644 1.615-2.704 1.293-3 1.5"/><path fill="#007289" d="M601 607c-4.07 1.205.045 5.069 2 7-8.377-1.981-16.355-8.833-24-12-2.398-.794-4.308-4.316-5.5-5-1.779-1.021-7.585-1.478-9-2-117.294-43.286-238.096 61.712-203.5 185 4.885 17.409 14.036 27.69 21 42.5.878 1.867 1.371 2.647 0 4.5-16.766-21.552-26.887-41.355-30-69-3.363-29.861.517-59.812 13-87 41.202-89.74 154.38-117.571 236-64"/><path fill="#025e65" d="M579 602c-27.099-11.224-75.158-18.023-102.5-6-1.897.834-5.294 2.19-4.5 5-18.215 3.933-41.222 18.017-55 31-9.239 3.42-18.001 14.623-24 22.5-27.665 36.325-38.151 81.038-26 125.5h-6c-34.596-123.288 86.206-228.286 203.5-185 1.415.522 7.221.979 9 2 1.192.684 3.102 4.206 5.5 5"/><path fill="url(#g)" d="M579 602c7.645 3.167 15.623 10.019 24 12 17.894 17.674 38.71 29.969 52 54 34.015 61.507 4.98 150.649-50.5 190-4.521 3.207-28.714 15.004-29.5 16.5-.115.219 2.161 4.251 3.5 3.5 42.69-19.586 74.956-55.404 88.5-100.5l8-48.5c.234 2.955-.165 6.033 0 9-1.118 5.12.781 13.818 0 19.5-9.664 70.312-71.929 133.259-144 137.5-8.268.487-25.35-.919-34-2 1.489-3.761 5.09-.542 4.5-7-29.4-2.652-68.736-15.01-91.5-34-17.208-14.355-37.068-50.294-43-72-12.151-44.462-1.665-89.175 26-125.5 5.999-7.877 14.761-19.08 24-22.5-26.533 25.003-39.731 62.625-35.5 99 14.324-72.047 74.193-134.062 151.5-129.5a139.4 139.4 0 0 0-61-.5c-.794-2.81 2.603-4.166 4.5-5 27.342-12.023 75.401-5.224 102.5 6m29.5 31c-2.402.328-14.438 7.144-17 9-31.126 22.556-77.098 88.476-107 105-1.235.682-4.711 2.254-6 2-5.792-1.143-32.251-35.108-39-38-13.175-5.646-49.296 18.631-50.5 30.5-1.023 10.082 26.276 39.503 34 48 9.725 10.698 55.922 57.593 67.5 58.5 3.824.299 11.62-2.12 15-4 7.848-4.366 68.589-92.898 78.5-107.5 8.594-12.66 41.191-56.865 44-68 3.669-14.541-.206-38.134-19.5-35.5" style="fill:url(#g)"/>/&gt;<path fill="#42d5f0" d="M330 595c34.538 24.326-21.939 73.726-27 25 1.779-11.263 15.6-23.754 27-25m-12.5 11c-10.802 2.09-7.284 21.887 5 13 6.555-4.742 3.963-14.734-5-13"/><path fill="#3d92aa" d="M354 616c-5.259 6.544-23.727 38.484-30 37-1.125-.266-17.204-13.225-18-14.5-3.065-4.91-3.904-12.78-3-18.5 5.061 48.726 61.538-.674 27-25 14.629-1.599 26.317 4.888 24 21"/><path fill="#2d5c7b" d="m710 608-2 1c-1.131-1.771-12.442-12.106-15-8-5.134-6.494-24.711-2.622-26 7-2.006-1.397-3.755-4.793-4-5 16.276-9.935 33.645-9.268 47 5"/><path fill="#dff8fc" d="M417 632c13.778-12.983 36.785-27.067 55-31a139.4 139.4 0 0 1 61 .5c-77.307-4.562-137.176 57.453-151.5 129.5-4.231-36.375 8.967-73.997 35.5-99"/><path fill="#31d0f4" d="M693 601c7.085 8.962-4.21 20.341-13 22-2.821-3.967-8.499-7.81-10-13 14.466 5.825 17.192-4.822 11.5-7-5.609-.484-10.794-.405-12.5 6-.559-.296-1.521-.667-2-1 1.289-9.622 20.866-13.494 26-7"/><path fill="#3194b3" d="M708 609c8.476 13.269-.035 32.392-17 30-1.91-3.323-8.385-12.322-11-16 8.79-1.659 20.085-13.038 13-22 2.558-4.106 13.869 6.229 15 8"/><path fill="#cafbfe" d="M670 610c-1.364-.549-.938-.967-1-1 1.706-6.405 6.891-6.484 12.5-6 5.692 2.178 2.966 12.825-11.5 7"/><path fill="#f7feff" d="M317.5 606c8.963-1.734 11.555 8.258 5 13-12.284 8.887-15.802-10.91-5-13"/><path fill="#016576" d="M640 641c6.103 7.515 11.391 16.465 16 25l-1 2c-13.29-24.031-34.106-36.326-52-54-1.955-1.931-6.07-5.795-2-7 14.699 9.648 27.826 20.24 39 34"/><path fill="#054a60" d="M731 776c-.838-11.124 5.096-23.649 6-34.5 2.007-24.106-2.786-53.499-19-72 2.335 5.654 7.152 12.308 9 18 10.541 32.471 1.813 66.951-5 99-.089.419-1.634 9.518 1 8.5-2.082 3.581-5.537 10.437-10 11.5 10.037-22.565 14.577-50.347 10-75-2.073-11.168-5.239-10.165-9-16.5-5.591-9.417-8.965-43.521-15-58 5.227-3.019 8.308-7.181 11-12.5-.006-3.807-11.682 7.275-13 7.5-1.14-2.48-5.222-11.647-6-13 16.965 2.392 25.476-16.731 17-30l2-1c2.166 2.314 5.956 5.256 7 8.5 2.944 9.146-2.344 24.692-7 33-2.22 3.961-6.106 5.293-8 9 44.515 16.322 41.396 80.079 29 117.5"/><path fill="#2a98c8" d="M706 725c-4.093 5.947-16.088 1.195-20.5 3-.908.371-.366 1.937-.5 2-1.868.88-.436 2.566-1.5 3-4.984 2.03-6.591-3.744-8.5 5-.165-2.967.234-6.045 0-9-1.845-23.305-7.998-42.624-19-63-4.609-8.535-9.897-17.485-16-25 6.015-9.162 21.065-7.428 27-16 22.855 29.518 36.153 62.403 39 100"/><path fill="#023847" d="M608.5 633c19.294-2.634 23.169 20.959 19.5 35.5-2.809 11.135-35.406 55.34-44 68-9.911 14.602-70.652 103.134-78.5 107.5-3.38 1.88-11.176 4.299-15 4-11.578-.907-57.775-47.802-67.5-58.5-7.724-8.497-35.023-37.918-34-48 1.204-11.869 37.325-36.146 50.5-30.5 6.749 2.892 33.208 36.857 39 38 1.289.254 4.765-1.318 6-2 29.902-16.524 75.874-82.444 107-105 2.562-1.856 14.598-8.672 17-9M497 750c-4.517 3.279-6.782 6.672-13 8-2.29.489-3.48 1.403-6.5 1-6.441-.859-28.967-23.499-34.5-29.5-6.146-6.665-2.905-11.992-14-11.5-.319-3.742 8.272-1.578 9.5-1 4.759 2.238 24.221 29.712 33 33-3.322-5.271-31.178-35.15-34-36-6.658-2.005-24.785 4.656-27.5 12-7.683 4.757-18.404 12.256-16 22.5.462 1.969 22.725 27.356 26 31 15.024 16.717 32.938 30.805 48 47.5 9.629 10.804 21.634 22.24 36.5 14 5.517-3.058 8.207-10.861 11.5-15 15.629-19.646 106.718-146.237 109-161 3.197-20.681-5.557-35.519-26.5-23L489 748.5c2.253 8.829 1.748.049 8 1.5"/><path fill="#8fc2ce" d="M625 665c-2.626-1.91-1.333.361-3.5 2-1.448-.885 1.031-5.821-2.5-5 .168-6.012-1.692-15.546-9.5-15-10.881.76-93.985 89.558-112.5 103-6.252-1.451-5.747 7.329-8-1.5L598.5 642c20.943-12.519 29.697 2.319 26.5 23"/><path fill="#0d3f5d" d="M699 657c-.664-1.592-1.302-3.483-2-5 1.318-.225 12.994-11.307 13-7.5-2.692 5.319-5.773 9.481-11 12.5"/><path fill="url(#h)" d="M619 662c-.205 7.333-2.463 8.387-6 14.5-15.15 26.186-47.199 68.992-67 92.5-14.725 17.481-48.479 58.408-73 51-4.089-1.235-23.509-18.894-28-23-16.759-15.324-30.57-33.802-48-48.5-5.285-11.696 27.912-31.024 35.5-29.5 4.207.845 31.128 42.039 49 42 .195 0 4.777-1.222 2.5-3 6.218-1.328 8.483-4.721 13-8 18.515-13.442 101.619-102.24 112.5-103 7.808-.546 9.668 8.988 9.5 15" style="fill:url(#h)"/>/&gt;<path fill="#044b5e" d="M323 663c.043.737-1.018 1.076-1 3l-3 .5 3 .5c-.217 12.479-1.169 20.417-5 33.5-1.225 4.181-4.258 4.664-6 10.5-2.329.199-6.43 4.35-8 6-3.385 3.559-7.199 11.569-11 11 1.073-7.789 4.811-15.442 5-23.5L286.5 730c-1.772-18.288 3.873-36.127 11.5-52.5l-7 11c-8.295 21.668-10.813 41.215-8 64.5-11.063-19.551 5.707-88.301 26.5-96 8.006-2.964 7.696 2.185 13.5 6"/><path fill="#147e8e" d="M625 665c-2.282 14.763-93.371 141.354-109 161-4.271 3.122-3.715-1.347-7-2 13.394-15.198 25.743-37.838 37-55 19.801-23.508 51.85-66.314 67-92.5 3.537-6.113 5.795-7.167 6-14.5 3.531-.821 1.052 4.115 2.5 5 2.167-1.639.874-3.91 3.5-2"/><path fill="#a1b8c7" d="M322 666c.003.333.006.667 0 1l-3-.5z"/><path fill="#2a98c8" d="M365 671c-12.483 27.188-16.363 57.139-13 87h-14c-.195-.912.212-2.104 0-3-3.727-31.995 3.276-61.529 17-90z"/><path fill="#042a37" d="m675 729-8 48.5c-13.544 45.096-45.81 80.914-88.5 100.5-1.339.751-3.615-3.281-3.5-3.5.786-1.496 24.979-13.293 29.5-16.5 55.48-39.351 84.515-128.493 50.5-190l1-2c11.002 20.376 17.155 39.695 19 63"/><path fill="#086ba9" d="M336 670c-8.647 22.097-12.5 50.305-12 74 .346 16.428 2.72 32.212 7 48 1.202 4.436 3.358 10.633 5 15 6.028 16.033 15.227 31.662 26 45-2.966 4.26-8.974-4.877-11-7.5-15.292-19.799-28.679-56.717-31-81.5-3.266-34.877 1.276-62.552 15-94z"/><path fill="#3792af" d="M731 776c-2.176 6.569-4.514 13.005-8 19-2.634 1.018-1.089-8.081-1-8.5 6.813-32.049 15.541-66.529 5-99-1.848-5.692-6.665-12.346-9-18 16.214 18.501 21.007 47.894 19 72-.904 10.851-6.838 23.376-6 34.5"/><path fill="#36728b" d="M292 728c-2.765 20.071-1.734 36.566 1 56.5 2.961-6.248 6.055 12.154 7 15.5-8.596-8.73-15.53-34.833-17-47-2.813-23.285-.295-42.832 8-64.5l7-11c-7.627 16.373-13.272 34.212-11.5 52.5l10.5-25.5c-.189 8.058-3.927 15.711-5 23.5"/><path fill="#13b1c5" d="M429 718c-4.547.202-14.958 5.497-19 8 2.715-7.344 20.842-14.005 27.5-12 2.822.85 30.678 30.729 34 36-8.779-3.288-28.241-30.762-33-33-1.228-.578-9.819-2.742-9.5 1"/><path fill="#093854" d="M300 800c-.945-3.346-4.039-21.748-7-15.5-2.734-19.934-3.765-36.429-1-56.5 3.801.569 7.615-7.441 11-11-15.543 26.104-8.404 61.999 2.5 88-1.519-1.995-3.789-3.263-5.5-5"/><path fill="#f3fbfc" d="M429 718c11.095-.492 7.854 4.835 14 11.5 5.533 6.001 28.059 28.641 34.5 29.5 3.02.403 4.21-.511 6.5-1 2.277 1.778-2.305 3-2.5 3-17.872.039-44.793-41.155-49-42-7.588-1.524-40.785 17.804-35.5 29.5 17.43 14.698 31.241 33.176 48 48.5 8.412 8.233 15.748 21.863 23 30-15.062-16.695-32.976-30.783-48-47.5-3.275-3.644-25.538-29.031-26-31-2.404-10.244 8.317-17.743 16-22.5 4.042-2.503 14.453-7.798 19-8"/><path fill="#1b7db9" d="M706 745c-.661 25.634-3.72 40.368-13 64l-20-7c8.942-22.487 12.92-47.776 12-72 .134-.063-.408-1.629.5-2 4.412-1.805 16.407 2.947 20.5-3 .507 6.698.172 13.325 0 20"/><path fill="#3ab9dc" d="M673 802c-23.401 58.848-88.519 105.084-152 106.5l10-13.5c72.071-4.241 134.336-67.188 144-137.5.781-5.682-1.118-14.38 0-19.5 1.909-8.744 3.516-2.97 8.5-5 1.064-.434-.368-2.12 1.5-3 .92 24.224-3.058 49.513-12 72"/><path fill="#36b5d8" d="M338 755c.212.896-.195 2.088 0 3 1.995 9.312 4.41 20.731 6 30l-13 4c-4.28-15.788-6.654-31.572-7-48 2.705 2.506 9.419-1.475 11.5 0 1.332.944-.034 8.48.5 10.5.228.862 1.976.4 2 .5"/><path fill="#1b7db9" d="M352 758c3.113 27.645 13.234 47.448 30 69 6.598 8.482 12.933 15.845 21 23-2.956 10.184-20.712 9.008-24 19-5.739-5.493-11.993-10.802-17-17-10.773-13.338-19.972-28.967-26-45 11.37-6.753 9.888-7.992 8-19-1.59-9.269-4.005-20.688-6-30z"/><path fill="#398b95" d="M509 824c-5.553 6.301-8.867 12.508-19.5 11-3.136-.445-18.097-9.64-16.5-15 24.521 7.408 58.275-33.519 73-51-11.257 17.162-23.606 39.802-37 55"/><path fill="#074046" d="M367 780c5.932 21.706 25.792 57.645 43 72l-2 2c-1.612-1.319-3.448-2.624-5-4-8.067-7.155-14.402-14.518-21-23 1.371-1.853.878-2.633 0-4.5-6.964-14.81-16.115-25.091-21-42.5z"/><path fill="#2a98c8" d="M336 807c-1.642-4.367-3.798-10.564-5-15l13-4c1.888 11.008 3.37 12.247-8 19"/><path fill="#016a79" d="M473 820c-1.597 5.36 13.364 14.555 16.5 15 10.633 1.508 13.947-4.699 19.5-11 3.285.653 2.729 5.122 7 2-3.293 4.139-5.983 11.942-11.5 15-14.866 8.24-26.871-3.196-36.5-14-7.252-8.137-14.588-21.767-23-30 4.491 4.106 23.911 21.765 28 23"/><path fill="#0d65ab" d="M693 809c-50.944 129.729-216.074 153.729-314 60 3.288-9.992 21.044-8.816 24-19 1.552 1.376 3.388 2.681 5 4 24.13 19.756 57.899 35.114 89 39 8.65 1.081 25.732 2.487 34 2l-10 13.5c63.481-1.416 128.599-47.652 152-106.5z"/><path fill="#052c39" d="M497 893c-31.101-3.886-64.87-19.244-89-39l2-2c22.764 18.99 62.1 31.348 91.5 34 .59 6.458-3.011 3.239-4.5 7"/></svg>