<svg xmlns="http://www.w3.org/2000/svg" width="1024" height="1024"><defs><linearGradient id="a" x1="347.541" x2="700.407" y1="224.23" y2="263.094" gradientUnits="userSpaceOnUse"><stop offset="0%" style="stop-color:#a8c2d2"/><stop offset="85.352%" style="stop-color:#cdecf5"/></linearGradient></defs><defs><linearGradient id="b" x1="522.021" x2="475.213" y1="312.685" y2="463.593" gradientUnits="userSpaceOnUse"><stop offset="0%" style="stop-color:#648da5"/><stop offset="100%" style="stop-color:#47708a"/></linearGradient></defs><defs><linearGradient id="c" x1="437.851" x2="597.639" y1="313.989" y2="333.701" gradientUnits="userSpaceOnUse"><stop offset="0%" style="stop-color:#1c4e8b"/><stop offset="100%" style="stop-color:#07bce9"/></linearGradient></defs><defs><linearGradient id="d" x1="493.887" x2="377.905" y1="563.704" y2="693.411" gradientUnits="userSpaceOnUse"><stop offset="0%" style="stop-color:#a1cad9"/><stop offset="100%" style="stop-color:#829fad"/></linearGradient></defs><defs><linearGradient id="e" x1="703.179" x2="554.594" y1="540.526" y2="701.409" gradientUnits="userSpaceOnUse"><stop offset="0%" style="stop-color:#bde6f1"/><stop offset="100%" style="stop-color:#95b6c5"/></linearGradient></defs><defs><linearGradient id="f" x1="505.435" x2="571.238" y1="573.053" y2="756.614" gradientUnits="userSpaceOnUse"><stop offset="0%" style="stop-color:#86cbc7"/><stop offset="100%" style="stop-color:#1e504b"/></linearGradient></defs><defs><linearGradient id="g" x1="450.506" x2="468.297" y1="616.781" y2="688.611" gradientUnits="userSpaceOnUse"><stop offset="0%" style="stop-color:#c1ecec"/><stop offset="100%" style="stop-color:#7ee2e4"/></linearGradient></defs><defs><linearGradient id="h" x1="805.209" x2="771.217" y1="612.928" y2="687.551" gradientUnits="userSpaceOnUse"><stop offset="0%" style="stop-color:#a7c1cf"/><stop offset="100%" style="stop-color:#88a8bb"/></linearGradient></defs><path fill="#1c5375" d="M324 140c.063 1.798-2.976 4.231-3 4.5-1.958 21.88-1.919 71.034 3 92 4.837 20.613 5.274-1.085 7-6 1.919-5.464 6.027-7.45 6-15.5 13.558-23.826 27.481-45.002 48.5-63 33.389-28.59 78.43-46.657 122.5-48-28.233 2.401-67.375 15.188-92 29-28.068 15.742-55.354 44.526-70 73-5.593 10.873-8.449 18.285-12 30-4.449 14.679-6.914 25.193-8 41-.059-.764-.151-1.103-1-1 3.803-15.356-2.376-22.433-4-35.5-3.603-28.998-4.416-56.758-3-86 .284-5.872 5.312-35.219 4-38-1.064-2.256-23.623-6.626-14-25 13.919-26.576 54.865 13.903 16 25-1.512 8.391-.492 15.234 0 23.5m-6-54c-5.568 1.975-10.334 8.457-10 14.5.125 2.264 2.926 2.319 3 2.5.088.213-1.178 2.499 1 4.5 7.895 7.252 20.94 5.866 24-4.5 2.421-8.203-.807-14.626-9-17-3.955-1.146-5.112-1.38-9 0"/><path fill="#194760" d="M708 116c-.653.038-1.348.041-2 0-19.335-1.23-20.95-30.283-2.5-33 24.467-3.603 27.395 31.683 4.5 33m-14-13c5.087 12.425 22.455 11.613 27 0 8.497-21.71-36.911-24.209-27 0"/><path fill="#b9e8f7" d="m327 86-8 1.5c14.825 4.152 8.508 6.242-2.5 5.5l1.5-7c3.888-1.38 5.045-1.146 9 0"/><path fill="#38a9d2" d="M721 103c-5.306-4.917-6.867 2.08-14.5 2-4.796-.051-8.378-5.591-12.5-2-9.911-24.209 35.497-21.71 27 0m-18.5-14c-8.035 3.435 8.962 6.227 9.5 2.5-1.171-2.694-7.528-3.343-9.5-2.5"/><path fill="#38a7d1" d="M327 86c8.193 2.374 11.421 8.797 9 17-4.097-5.692-3.945.649-7.5 1-7.821.772-12.92-3.31-17.5-1-.074-.181-2.875-.236-3-2.5-.334-6.043 4.432-12.525 10-14.5l-1.5 7c11.008.742 17.325-1.348 2.5-5.5z"/><path fill="#b9e8f5" d="M702.5 89c1.972-.843 8.329-.194 9.5 2.5-.538 3.727-17.535.935-9.5-2.5"/><path fill="#0277aa" d="M336 103c-3.06 10.366-16.105 11.752-24 4.5-2.178-2.001-.912-4.287-1-4.5 4.58-2.31 9.679 1.772 17.5 1 3.555-.351 3.403-6.692 7.5-1"/><path fill="#0277ab" d="M721 103c-4.545 11.613-21.913 12.425-27 0 4.122-3.591 7.704 1.949 12.5 2 7.633.08 9.194-6.917 14.5-2"/><path fill="url(#a)" d="M610 126c12.223 7.614 23.648 15.056 35 24 8.106 12.14 21.535 20.805 30 32.5 24.686 34.104 31.583 83.917 29 125l6-2.5c-1.297 18.314-4.262 36.957-11 54-1.092 2.762-4.36 7.815-6 11-.421.818-1.346 1.815-2 3l3-13.5c.88-2.695 5.737-3.674 2.5-7.5-12.431 7.726-25.505 15.303-39 21-9.243 3.902-23.166 10.039-32.5 9 5.137-7.004 11.255-17.428 13-26 27.736-60.702-16.589-137.478-78-155a57 57 0 0 0-3-1c-83.702-29.385-175.706 49.376-159 137 .175 3.672.187 7.368 1 11-7.677-19.094-5.914-42.739-1-62.5-.565-1.567-2.893-1.371-3-1.5-.189-.229-.913-1.929-1-2 1.422-4.113 5.489-9.349 1.5-12-8.023-5.333-31.462-15.529-42-21-1.37-.711-3.914-2.127-3.5 1-5.421-4.537-10.588-9.452-16-14 3.551-11.715 6.407-19.127 12-30 2.907 2.204 2.532 2.346 5-.5 6.513-7.508 12.82-23.364 21-33 12.775-15.048 29.831-25.985 44-39.5 24.625-13.812 63.767-26.599 92-29 35.266-2.999 70.761 6.674 102 22m-65.5-10c-1.52 1.69 3.124 3.608 4 4 9.681 4.334 24.66 5.51 35 9 36.586 12.35 58.598 30.848 86.5 56.5-23.853-45.662-77.296-63.26-125.5-69.5m-100 12c-6.119 1.266-29.337 17.261-35 22-16.246 13.595-30.817 32.701-40.5 51.5 11.122-12.242 20.633-25.859 32.5-37.5 7.955-7.804 19.14-17.123 28-24 2.644-2.052 16.632-10.057 17-11 .574-1.472-.879-1.232-2-1m109 3-.5 2.5c36.951 30.54 83.392 60.745 113 99 18.234 23.559 18.892 44.767 28.5 71.5 1.957-28.969-7.704-65.717-19.5-92.5-24.476-55.575-68.091-63.379-121.5-80.5" style="fill:url(#a)"/>/&gt;<path fill="#fcfdfd" d="M544.5 116c48.204 6.24 101.647 23.838 125.5 69.5-27.902-25.652-49.914-44.15-86.5-56.5-10.34-3.49-25.319-4.666-35-9-.876-.392-5.52-2.31-4-4"/><path fill="#2789b2" d="M708 116c.08.978-.134 2.038 0 3-.471 10.643 1.16 21.403 2 32l4 55c-.31 12.461-3.526 25.14-5 37.5-3.399-2.677-1.644-15.039-7-14.5-1.378-5.942-5.254-12.361-6-17l6-54c1.362-13.985 1.661-28.105 4-42 .652.041 1.347.038 2 0"/><path fill="#1d587d" d="m730 286-2 3c-1.28-2.529-3.129-4.034-5-6-2.04-2.142-6.863-6.238-10-6.5-.314 5.789.431 11.74 0 17.5-.478 6.381-3.272 18.327 0 23.5 4.742 7.497 9.943 3.41 15 4.5.279.06.237 4.397 4 1-.014.134 1.472-.243 1 2.5-1.22 7.087-7.72 13.39-7 20.5-6.89 8.194-15.537 14.38-26 17 .06-.197-.539-3.402-1-4 6.738-17.043 9.703-35.686 11-54 2.116-29.881-1.4-47.545-8-76 5.356-.539 3.601 11.823 7 14.5 1.474-12.36 4.69-25.039 5-37.5.414-16.662-2.643-37.895-4-55-.84-10.597-2.471-21.357-2-32 5.339 38.397 9.084 72.334 7 111.5-.516 9.702-5.123 20.212-4 30 .996 8.684 13.628 14.762 19 25.5"/><path fill="#648aa0" d="M664 165c-6.704-4.33-12.712-10.045-19-15-11.352-8.944-22.777-16.386-35-24 21.331 10.465 37.583 21.759 54 39"/><path fill="#fdfdfd" d="M444.5 128c1.121-.232 2.574-.472 2 1-.368.943-14.356 8.948-17 11-8.86 6.877-20.045 16.196-28 24-11.867 11.641-21.378 25.258-32.5 37.5 9.683-18.799 24.254-37.905 40.5-51.5 5.663-4.739 28.881-20.734 35-22"/><path fill="#fefefe" d="M553.5 131c53.409 17.121 97.024 24.925 121.5 80.5 11.796 26.783 21.457 63.531 19.5 92.5-9.608-26.733-10.266-47.941-28.5-71.5-29.608-38.255-76.049-68.46-113-99z"/><path fill="#f7fafb" d="M346 206c14.646-28.474 41.932-57.258 70-73-14.169 13.515-31.225 24.452-44 39.5-8.18 9.636-14.487 25.492-21 33-2.468 2.846-2.093 2.704-5 .5"/><path fill="#2385b0" d="M337 215c.027 8.05-4.081 10.036-6 15.5-1.726 4.915-2.163 26.613-7 6-4.919-20.966-4.958-70.12-3-92 .024-.269 3.063-2.702 3-4.5.418 7.032 2.152 12.811 3 19.5.028.222-.373-.66 0 2 1.913 13.628 9.965 43.248 10 53.5"/><path fill="#256292" d="M326.5 140c2.232-.264 5.094 27.581 5.5 30.5 1.417 10.194 2.424 20.433 4.5 30.5-7.358-19.342-6.952-40.818-10-61"/><path fill="#f4fbfd" d="M664 165c7.089 7.445 15.216 17.045 21 25.5 3.044 4.449 5.985 14.233 11 15.5-.132 2.921-.509 2.833 0 6 .746 4.639 4.622 11.058 6 17 6.6 28.455 10.116 46.119 8 76l-6 2.5c2.583-41.083-4.314-90.896-29-125-8.465-11.695-21.894-20.36-30-32.5 6.288 4.955 12.296 10.67 19 15"/><path fill="#6bb3cd" d="M710 151c1.357 17.105 4.414 38.338 4 55z"/><path fill="#145e8e" d="M696 212c-.509-3.167-.132-3.079 0-6 .643-14.235 4.532-32.936 6-48z"/><path fill="#306b8c" d="M557 200c-20.929-6.396-51.102-5.399-72 1-50.053 15.325-81.239 63.623-86 114-.416 4.4-1.164 18.545-1 22-16.706-87.624 75.298-166.385 159-137"/><path fill="#49afce" d="M557 200c1.125.344 1.904.604 3 1 1.49.538 11.75 4.889 12 5.5-.855 8.073-10.876 12.716-4.5 20.5l1-2 1 3 1-2c-.171 4.31 3.225 2.802 5.5 4 5.898 6.584 13.942 11.031 20 17.5 17.596 18.79 25.931 39.534 28 63 .711 8.068 1.775 14.75 1 23.5l-4-2c7.701-100.294-119.961-154.562-184-74.5-24.48 30.605-25.842 67.937-11.5 103.5-10.096-17.381-14.302-37.421-11.5-57.5 1.23-8.811 5.372-21.374 9-29.5 1.642-2.965 7.57-10.313 10-13.5.055-.072-1.383-1.014-1-1.5 6.765-8.566 20.205-18.629 29-25.5-12.201 4.34-21.794 15.329-29 25.5-3.975 5.61-6.122 8.553-9 15-5.225 9.435-9.456 20.113-11 31-2.171-2.471-4.091-5.266-7-7 2.817-16.512 9.55-29.929 18-44 17.237-28.703 32.476-34.268 60.5-50 1.26-.708 3.162-1.011 1.5-3 20.898-6.399 51.071-7.396 72-1m-30.5 14c5.089 1.797 14.335 4.709 19.5 2.5z"/><path fill="#4ec9e3" d="M423 254c-10.822 10.359-16.216 28.346-19 43-1.414 7.442-1.714 10.352-2 18h-3c4.761-50.377 35.947-98.675 86-114 1.662 1.989-.24 2.292-1.5 3-28.024 15.732-43.263 21.297-60.5 50"/><path fill="#306b8c" d="M638 356c-2.363 5.172-11.409 24.252-17 16.5 4.066-7.37 10.015-24.459 3-30.5.277-1.577.899-2.247 1-3 12.054-40.81-12.031-89.537-49-109-2.275-1.198-5.671.31-5.5-4l-1 2-1-3-1 2c-6.376-7.784 3.645-12.427 4.5-20.5-.25-.611-10.51-4.962-12-5.5 61.411 17.522 105.736 94.298 78 155"/><path fill="#2d5c7f" d="m526.5 214 19.5 2.5c-5.165 2.209-14.411-.703-19.5-2.5"/><path fill="#00294c" d="M621 332c-2.731 35.572-25.823 60.055-54.5 76-4.233 2.354-17.747 5.107-19 6-1.188.846-.043 3.895-.5 4.5-1.292 1.709-6.814-2.634-6 4.5-48.812 9.56-98.293-11.437-120-57-3.653-7.668-6.464-15.6-8-24-2.265-12.386-2.793-24.362-1-37 1.544-10.887 5.775-21.565 11-31-3.628 8.126-7.77 20.689-9 29.5-2.802 20.079 1.404 40.119 11.5 57.5-14.342-35.563-12.98-72.895 11.5-103.5 64.039-80.062 191.701-25.794 184 74.5m-179-56c-51.425 85.644 53.825 170.706 131.5 116 58.745-41.373 39.141-134.041-27.5-154-40.884-12.245-81.82 1.06-104 38"/><path fill="#0f395e" d="M625 339c.213-1.593-.144-3.377 0-5 .775-8.75-.289-15.432-1-23.5-2.069-23.466-10.404-44.21-28-63-6.058-6.469-14.102-10.916-20-17.5 36.969 19.463 61.054 68.19 49 109"/><path fill="#245b84" d="M432 259c7.206-10.171 16.799-21.16 29-25.5-8.795 6.871-22.235 16.934-29 25.5"/><path fill="#1a5595" d="M546 238c-4.023 6.341 6.953 7.294 11.5 11 10.837 8.832 21.053 24.68 17.5 39-15.982-22.521-50.681-36.681-77-25-29.732-24.376-72.054 11.245-50 46-10.699-5.379-7.687-22.84-6-33 22.18-36.94 63.116-50.245 104-38"/><path fill="url(#b)" d="M350 250c14.091 11.792 30.694 21.129 44 32 .087.071.811 1.771 1 2-14.619 51.844 6.78 108.276 53 136 46.79 28.066 79.655 18.281 129 7 39.259-8.975 85.055-18.646 112-51-28.062 48.542-69.987 84.824-125.5 98l-61.5 8c-40.926-4.663-89.086-28.978-118-58-27.464-27.566-53.676-69.138-58-108.5-1.467-13.349.952-26.195 0-38.5 1.086-15.807 3.551-26.321 8-41 5.412 4.548 10.579 9.463 16 14" style="fill:url(#b)"/>/&gt;<path fill="url(#c)" d="M442 276c-1.687 10.16-4.699 27.621 6 33 3.208 5.055 4.945 6.792 10 10 .429 13.268 4.599 28.177 14 38-3.414 5.116-5.105 11.903 2 15 4.806 2.095 8.938 1.053 12-3 19.587 16.087 53.197 17.539 73 1 1.029.935 2.346.724 3 1 15.632 6.591 26.994-4.939 19-20-.261-.493-.746-1.693-1-2 9.755-12.162 7.934-28.261 4-42-1.766-6.168-5.312-13.803-9-19 3.553-14.32-6.663-30.168-17.5-39-4.547-3.706-15.523-4.659-11.5-11 66.641 19.959 86.245 112.627 27.5 154-77.675 54.706-182.925-30.356-131.5-116" style="fill:url(#c)"/>/&gt;<path fill="#9bb6c7" d="M394 282c-13.306-10.871-29.909-20.208-44-32-.414-3.127 2.13-1.711 3.5-1 10.538 5.471 33.977 15.667 42 21 3.989 2.651-.078 7.887-1.5 12"/><path fill="#137db3" d="M423 254c-8.45 14.071-15.183 27.488-18 44-.256-.152-1.164.143-1-1 2.784-14.654 8.178-32.641 19-43"/><path fill="#baecf7" d="M498 263c.391.321 4.788 4.717 5 5 10.601 14.146 9.66 37.551-4.5 49-11.48 9.282-18.045 5.439-30.5 7-3.469-1.643-6.716-2.916-10-5-5.055-3.208-6.792-4.945-10-10-22.054-34.755 20.268-70.376 50-46"/><path fill="#255c82" d="M423 274c2.878-6.447 5.025-9.39 9-15-.383.486 1.055 1.428 1 1.5-2.43 3.187-8.358 10.535-10 13.5"/><path fill="#2d4357" d="M575 288c3.688 5.197 7.234 12.832 9 19-3.331 4.155-2.314 10.15-3 16-4.511-36.123-41.322-68.06-78-55-.212-.283-4.609-4.679-5-5 26.319-11.681 61.018 2.479 77 25"/><path fill="#001b37" d="M581 323c-.95 8.098-.987 15.07-4 23-7.531-3.025-13.561-1.246-19 4-8.358 8.061-3.007 7.154-5 15.5-.265 1.108-15.585 5.668-17.5 7.5-6.243-1.792-16.295 1.53-22 1-8.929-.829-16.746-7.998-25.5-9 .487-5.797-5.311-11.856-11-11-.341.051-.729-.09-1 0-6.705-8.649-10.407-18.812-12-29.5.629-.973 2.876-.359 4-.5 12.455-1.561 19.02 2.282 30.5-7 14.16-11.449 15.101-34.854 4.5-49 36.678-13.06 73.489 18.877 78 55"/><path fill="#0e3357" d="M326 277c.952 12.305-1.467 25.151 0 38.5 4.324 39.362 30.536 80.934 58 108.5-4.761 4.271-5.483-4.16-10-4-6.394-6.894-17.927-24.972-23.5-29-18.003-13.013-39.989-13.456-44.5-44.5-5.757-39.618 12.454-44.067 19-70.5.849-.103.941.236 1 1m-16 50c-.261 14.002 1.533 19.599 7 32 .646 1.464.045 4.003 2 7.5 5.46 9.769 18.598 14.907 29 17l-18-36c-2.036-10.277-4.722-20.037-6-30.5-1.189-9.731-.598-19.325-1.5-29-7.619 13.225-12.212 23.573-12.5 39"/><path fill="#a4c0cf" d="M723 283c-.421 6.646 6.249 14.448 3 21-2.177-4.368-8.748-7.932-13-10 .431-5.76-.314-11.711 0-17.5 3.137.262 7.96 4.358 10 6.5"/><path fill="#f5f9fa" d="M728 289c5.296 10.467 5.215 22.721 4 34-3.763 3.397-3.721-.94-4-1-.143-6.76 1.028-11.924-2-18 3.249-6.552-3.421-14.354-3-21 1.871 1.966 3.72 3.471 5 6"/><path fill="#92b5c6" d="M399 348c4.72 21.09 24.915 51.103 43 63 .404 4.268 8.249 6.111 6 9-46.22-27.724-67.619-84.156-53-136 .107.129 2.435-.067 3 1.5-4.914 19.761-6.677 43.406 1 62.5"/><path fill="#0c2f52" d="M730 286c10.016 20.023 10.769 42.435-4 60-.72-7.11 5.78-13.413 7-20.5.472-2.743-1.014-2.366-1-2.5 1.215-11.279 1.296-23.533-4-34z"/><path fill="#8aaabc" d="M324 317c-1.434.67-4.388-.977-5-.5-3.5 2.731 2.034 33.421 1 40.5l-10-30c.288-15.427 4.881-25.775 12.5-39 .902 9.675.311 19.269 1.5 29"/><path fill="#789baf" d="M726 304c3.028 6.076 1.857 11.24 2 18-5.057-1.09-10.258 2.997-15-4.5-3.272-5.173-.478-17.119 0-23.5 4.252 2.068 10.823 5.632 13 10"/><path fill="#092650" d="M405 298c-2.458 14.408-2.581 28.522 0 43 1.794 10.065 5.654 18.866 10 28 20.573 43.236 67.761 68.604 115.5 65 13.174-.995 25.71-6.582 38.5-9-.984.412-2.574.858-3 2-52.311 10.403-65.927 15.287-115-12-32.949-24.756-50.554-58.497-49-100 .286-7.648.586-10.558 2-18-.164 1.143.744.848 1 1"/><path fill="#1d86b3" d="M412 305c-1.793 12.638-1.265 24.614 1 37l-8-1c-2.581-14.478-2.458-28.592 0-43 2.909 1.734 4.829 4.529 7 7"/><path fill="#357897" d="M580 349c-.267-.323-2.803-2.921-3-3 3.013-7.93 3.05-14.902 4-23 .686-5.85-.331-11.845 3-16 3.934 13.739 5.755 29.838-4 42"/><path fill="#0aa6d8" d="M402 315c-1.554 41.503 16.051 75.244 49 100-2.298-1.278-6.331-2.244-9-4-18.085-11.897-38.28-41.91-43-63-.813-3.632-.825-7.328-1-11-.164-3.455.584-17.6 1-22z"/><path fill="#618398" d="M324 317c1.278 10.463 3.964 20.223 6 30.5l18 36c-10.402-2.093-23.54-7.231-29-17-1.955-3.497-1.354-6.036-2-7.5 2.179 1.519 2.626.561 3-2 1.034-7.079-4.5-37.769-1-40.5.612-.477 3.566 1.17 5 .5"/><path fill="#28394c" d="M468 324c-1.124.141-3.371-.473-4 .5 1.593 10.688 5.295 20.851 12 29.5-1.439.477-3.352 2.028-4 3-9.401-9.823-13.571-24.732-14-38 3.284 2.084 6.531 3.357 10 5"/><path fill="#f3f9f9" d="M320 357c-.374 2.561-.821 3.519-3 2-5.467-12.401-7.261-17.998-7-32z"/><path fill="#3991b9" d="M625 334c-.144 1.623.213 3.407 0 5-.101.753-.723 1.423-1 3-6.822 38.87-44.738 73.506-83 81-.814-7.134 4.708-2.791 6-4.5.457-.605-.688-3.654.5-4.5 1.253-.893 14.767-3.646 19-6 28.677-15.945 51.769-40.428 54.5-76z"/><path fill="#306b8c" d="M413 342c1.536 8.4 4.347 16.332 8 24l-6 3c-4.346-9.134-8.206-17.935-10-28z"/><path fill="#064a7d" d="M638 356c-1.745 8.572-7.863 18.996-13 26-12.425 16.94-36.661 34.904-56 43-12.79 2.418-25.326 8.005-38.5 9-47.739 3.604-94.927-21.764-115.5-65l6-3c21.707 45.563 71.188 66.56 120 57 38.262-7.494 76.178-42.13 83-81 7.015 6.041 1.066 23.13-3 30.5 5.591 7.752 14.637-11.328 17-16.5"/><path fill="#c8f0f8" d="M577 346c.197.079 2.733 2.677 3 3 .254.307.739 1.507 1 2-5.231-.141-8.283-4.151-14.5-3-9.722 1.8-11.037 16.725-4.5 23-.654-.276-1.971-.065-3-1-5.167-4.697-5.686-14.935-1-20 5.439-5.246 11.469-7.025 19-4"/><path fill="#fdfefe" d="M581 351c7.994 15.061-3.368 26.591-19 20-6.537-6.275-5.222-21.2 4.5-23 6.217-1.151 9.269 2.859 14.5 3"/><path fill="#2b475c" d="M558 350c-4.686 5.065-4.167 15.303 1 20-19.803 16.539-53.413 15.087-73-1 .341-.451 1.981-3.777 2-4 8.754 1.002 16.571 8.171 25.5 9 5.705.53 15.757-2.792 22-1 1.915-1.832 17.235-6.392 17.5-7.5 1.993-8.346-3.358-7.439 5-15.5"/><path fill="#9ebccd" d="M691 373c-.907 1.642-1.61 2.326-2 3-26.945 32.354-72.741 42.025-112 51-1.608-.813-9.656-.267-11 0 .426-1.142 2.016-1.588 3-2 19.339-8.096 43.575-26.06 56-43 9.334 1.039 23.257-5.098 32.5-9 13.495-5.697 26.569-13.274 39-21 3.237 3.826-1.62 4.805-2.5 7.5z"/><path fill="#a7eff7" d="M488 365c-.019.223-1.659 3.549-2 4-3.062 4.053-7.194 5.095-12 3 4.767-5.522 4.705-11.116 3-18 5.689-.856 11.487 5.203 11 11"/><path fill="#13e9f1" d="M476 354c.271-.09.659.051 1 0 1.705 6.884 1.767 12.478-3 18-7.105-3.097-5.414-9.884-2-15 .648-.972 2.561-2.523 4-3"/><path fill="#50889d" d="M700 363c-2.671 8.799-14.588 26.689-20 35h-1c5.329-8.023 12.105-18.56 14-28 1.64-3.185 4.908-8.238 6-11 .461.598 1.06 3.803 1 4"/><path fill="#c1d7e2" d="M679 398c-30.303 45.623-87.423 78.912-142 84-11.095 1.034-23.95 1.259-35 0l61.5-8c55.513-13.176 97.438-49.458 125.5-98 .39-.674 1.093-1.358 2-3 .654-1.185 1.579-2.182 2-3-1.895 9.44-8.671 19.977-14 28"/><path fill="#022f4f" d="M689 461v2c-.233-.144-.719.134-1 0-4.214-1.999-59.08-9.777-63.5-9-2.75.484-23.354 13.61-29 16-12.642 5.35-25.904 9.323-39.5 11.5 8.591 2.082 67.7 2.479 69 11-4.658 6.855-17.449 10.935-25.5 13.5-54.645 17.409-110.184 17.723-165 1-4.509-1.376-30.68-10.036-29.5-15.5l5.5-3.5 62.5-9c19.745 4.422 39.264 5.584 59.5 5 1.826-.053 4.937 1.001 4.5-2 54.577-5.088 111.697-38.377 142-84h1c-14.422 22.146-30.059 38.304-51 54.5 19.786 3.063 40.473 4.144 60 8.5"/><path fill="#6db9cf" d="M451 415c49.073 27.287 62.689 22.403 115 12 1.344-.267 9.392-.813 11 0-49.345 11.281-82.21 21.066-129-7 2.249-2.889-5.596-4.732-6-9 2.669 1.756 6.702 2.722 9 4"/><path fill="#041d3e" d="M384 424c28.914 29.022 77.074 53.337 118 58 11.05 1.259 23.905 1.034 35 0 .437 3.001-2.674 1.947-4.5 2-20.236.584-39.755-.578-59.5-5-8.991-2.013-17.946-4.612-26.5-8-6.547-2.593-31.212-17.548-34-18-9.989-1.618-49.528 5.447-62.5 7l59-8.5c-12.403-10.004-24.12-19.768-35-31.5 4.517-.16 5.239 8.271 10 4"/><path fill="#2c5972" d="m473 479-62.5 9-5.5 3.5c-1.18 5.464 24.991 14.124 29.5 15.5 54.816 16.723 110.355 16.409 165-1 8.051-2.565 20.842-6.645 25.5-13.5-1.3-8.521-60.409-8.918-69-11 13.596-2.177 26.858-6.15 39.5-11.5 5.646-2.39 26.25-15.516 29-16 4.42-.777 59.286 7.001 63.5 9 .067 1.218-1.404 1.547-2 2-21.816 16.596-36.019 28.684-62.5 39-86.938 33.867-207.383 30.802-275.5-39h-1c1.912-2.616.695-3.41-2-4.5.478-.984 3.689-.343 5-.5 12.972-1.553 52.511-8.618 62.5-7 2.788.452 27.453 15.407 34 18 8.554 3.388 17.509 5.987 26.5 8"/><path fill="#011538" d="M692 462c4.224 9.165 7.71 19.176 10 29 4.678 20.074 7.703 45.37 9 66 1.549 24.638.992 49.393-.5 74 17.398-6.343 31.46-19.626 39.5-36 12.759-25.983 14.606-59.949 4-87-5.463-13.932-15.719-25.877-29-33v-1c7.398 3.877 15.288 8.28 21 14.5 5.304 5.776 10.986 20.641 14.5 23.5 8.156 6.634 23.784 11.772 35 22 49.021 44.706 69.143 145.43 7 187-14.166 9.476-20.522 5.731-32 10-11.811 4.393-12.367 18.14-39 21-5.347.574-18.322 1.161-22.5-2 1.348 1.747 17.942-.502 21-1 10.131-1.651 17.799-2.896 26.5-9 2.019-1.416 18.2-18.19 18.5-19.5 1.742-7.617-35.084-40.595-39.5-50.5-15.458 5.479-23.977 5.318-35.5 18-3.769 4.149-7.713 9.64-9.5 15 40.997-15.446 49.743 19.718 21.5 45-.289.241-1.488.871-2 1 3.702-10.714 18.912-25.302 15-37.5-1.575-4.91-20.952-12.168-24-7-.975 1.653-4.665 28.359-7 35-2.852 8.111-9.167 18.772-14 26-2.453 3.668-11.343 10.441-12 12-2.925 6.947-3.725 29.43-7 40-2.848 9.19-7.245 18.253-13 26 20.139 7.712 60.597 20.413 68 42.5 1.098 3.275 4.374 16.92 1.5 19-35.575 5.085-81.921 13.526-117 4-3.741-1.016-21.493-8.428-22.5-11.5-.621-1.893-.07-12.474 0-15.5.165-7.183.55-14.898 4-21.5 3.213-6.149 16.707-13.905 17-15 1.231-4.597-8.907-31.983-9-39-1.719-2.565-8.091.24-11 .5-4.263-1.31 10.356-4.917 11-5 3.074-.398 7.488-.191 10 2-2.124.592-4.202 1.341-6.5 1l-1.5 2.5c3.83 7.099 7.777 40.781 13.5 43.5 1.878.558 2.838-1.366 4.5-1 10.276 2.265 9.792 1.993 20-1 25.037-7.342 30.127-30.322 34-54 .466-2.851 4.079-16.723-1-16 1.952-1.493 3.361-3.72 6-4.5-1.838-1.139-4.274.003-6 .5 6.24-5.943 14.885-10.592 18-19 12.599-14.14 15.364-33.804 15.5-52l-10.5 4c.878-4.771 3.431-8.961 4-13l11-13.5c1.731-18.483 6.609-36.414 8-55 2.928-39.109.798-85.15-7-123.5-1.404-6.902-8.001-36.92-13-40v-2c.86.192 1.633.674 3 1m53 149c-.618 2.776 1.033 5.698 1 6-.356 3.271.177 6.028 0 8-.514 5.717-.255 11.941-1 17.5-.668 4.988-7.302 25.074-7 27 .424 2.7 14.974 16.82 18 19.5 2.964 2.625 5.802 5.698 9 8-.275 2.52 1.675 3.511 3 5 .219 4.76 8.544 12.657 9 16.5.618 5.211-5.18 6.611-2.5 10.5l14.5-5.5c-1.946-1.594-3.373-3.637-5-5.5 9.222 6.584 6.269 3.27 13-1 41.064-26.052 44.528-74.501 33-118-1.661-6.267-2.687-9.066-5-15-6.922-17.762-16.187-34.313-29.5-48 7.536 13.951 13.12 28.704 17.5 44-4.295-4.523-6.693-14.34-11-20.5-5.502-7.87-14.162-15.714-21-22.5-6.096-6.051-11.751-12.695-19-17.5 4.893 22.882 4.352 49.225-5 71-2.628 6.12-10.835 15.27-12 20.5m-2.5 1c-9.169 10.292-21.619 16.003-33.5 22.5l-2.5 43.5c5.065-5.976 25.042-7.729 28.5-11.5 5.289-5.767 13.326-53.707 7.5-54.5M621 886c-8.166-.868-17.803-3.446-24-9-4.472-4.008-10.481-14.521-9-20.5-8.702 4.588-10.753 36.624-5.5 41.5 6.293 5.842 41.915 9.273 51.5 10 15.897 1.205 62.565 1.057 78.5-4 .943-.299 4.228-1.685 4.5-2.5-1.808-3.899-1.693-8.452-3-12.5-.489-1.516-.941-1.861-1-2-3.445-8.16-7.679-11.318-15-16-11.38-9.938-32.09-20.748-47-24-1.036-.226-1.175-.856-3-1-6.808-.538-8.781 3.639-14.5 5-8.899 2.118-19.998 4.23-29 2-1.839-.456-6.838-9.939-11.5-.5-4.681 9.476 6.79 22.829 14.5 27.5 4.475 2.711 10.631 2.053 13.5 6"/><path fill="#021636" d="M335 490c-4.709 27.879-5.438 59.64-5 88 .303 19.607 1.904 39.512 4 59-.251.216.729 2.905-3 2-.798-1.413-21.865-13.088-27-18-1.035-.99-3.174-3.06-4-4a73 73 0 0 1-4-5c-16.757-23.027-22.503-58.128-15-85.5-6.526 2.381-11.286 9.765-16 14.5-14.102 14.163-21.935 22.703-31 41l15.5-41c-12.771 13.784-22.948 30.335-29.5 48-1.406 3.791-2.927 9.046-4 13-12.645 46.591-7.831 89.77 33 119 2.598 1.86 4.696 4.162 8 6 5.712 3.178 10.163 7.081 17.5 7-2.507-5.818-5.742-6.47-4.5-13 10.448 15.877 23.755 29.298 43 33 2.17.417 20.364 2.339 21 1.5-8.865-6.423-14.797-14.986-20-24.5h1c4.027 7.457 12.143 17.726 20 21.5-27.881-24.757-17.164-57.945 22-45-2.991-8.232-10.796-17.551-18-22.5-4.734-3.252-9.487-5.393-15-7-4.509-1.315-9.626-.401-13.5-4-9.38 8.926-15.513 23.268-26 31-1.335.985-5.148 4.964-6.5 2.5l3-6.5c3.049-2.083 7.008-6.329 10-9 2.66-2.375 18.876-18.821 19-20.5.044-.603-4.534-8.634-5-11-1.562-7.94-1.633-17.115-3-24.5l1-3c.363 6.963 4.938 32.71 9 37.5 3.133 3.694 17.748 5.435 24 8.5 1.601.785 4.393 2.852 6 4 11.637 8.312 16.553 19.345 22 32l-17.5-6-2.5.5c-.588 1.675.864 2.484 1 3.5.139 1.037.426 2.98-1 3-.653-2.11-.966-6.227-2.5-7-36.267 5.512-11.056 28.606-4 48-15.818 1.447-34.649-.071-48-9-3.117-2.085-11.136-11.591-12-12-9.111-4.314-19.764-1.516-33-10-65.114-41.738-42.038-144.611 8-190 6.702-6.079 29.127-18.756 31.5-21.5 1.818-2.102 4.318-11.443 7-15 9.162-12.151 21.612-22.135 36-27.5-19.134 11.231-34.336 23.827-41 46-1.16 3.86-2.459 9.049-3 13-1.948 14.24-1.272 28.002 1 42 1.499 9.241 3.984 18.561 8 27 7.927 16.657 22.681 28.365 38.5 37 1.941-.262-.287-17.561-.5-21-1.685-27.214-.244-54.54-2-81 .895-14.938 1.397-30.258 4-45 1.018-5.767 3.134-12.41 5-18 .72-2.158-.078-3.816 0-4 .574-1.349 3.569-6.822 6-5.5-4.346 8.546-6.42 18.147-8 27.5"/><path fill="#2bb3dc" d="M725 474v1c-7.072-3.793-17.966-7.249-26-8.5 7.757 4.431 18.256 7.337 25.5 12.5 13.165 9.384 14.928 24.519 29.5 29 10.606 27.051 8.759 61.017-4 87-3.921-1.287-.59-6.059 0-9 2.927-14.598 3.989-29.006 3-44-1.042-15.798-2.884-36.841-20-42l-31-9c-2.29-9.824-5.776-19.835-10-29 12.514 2.981 21.651 6.053 33 12"/><path fill="#e3f6fc" d="M702 503c-3.822 10.487 1.894 25.283 3 36.5 1.222 12.397 2.641 28.724 3 41 .231 7.9.901 35.945-1 42-.19.606-3.044 3.542-4 2 1.224-30.032 2.467-61.132-1-91-2.761-23.791-11.733-44.939-16-66.5-.122-.619.058-1.356 0-2 .596-.453 2.067-.782 2-2 .281.134.767-.144 1 0 4.999 3.08 11.596 33.098 13 40"/><path fill="#61879b" d="M348 465c1.465 5.227 6.233 10.346 10 14-15.983 59.132-11.159 123.05-1 183 1.587 9.362 12.441 46.589 12 51.5-.392 4.369-1.699 2.475-4 4.5-.623-1.459-.717-2.344-1-3-5.447-12.655-10.363-23.688-22-32-2.157-14.411-2.616-29.007-4-43.5-.043-.45-1.887-1.249-2-2.5-1.737-19.232-1.731-39.608-2-59-.392-28.307-1.044-61.258 4-89 1.522-8.371 2.825-17.606 9-24z"/><path fill="#031b3c" d="M686 465c.058.644-.122 1.381 0 2-4.841 2.955-7.842 8.446-12 12-72.757 62.195-228.257 65.869-305 9-3.533-2.618-7.868-5.962-11-9-3.767-3.654-8.535-8.773-10-14 68.117 69.802 188.562 72.867 275.5 39 26.481-10.316 40.684-22.404 62.5-39"/><path fill="#a7e9f8" d="M725 475c13.281 7.123 23.537 19.068 29 33-14.572-4.481-16.335-19.616-29.5-29-7.244-5.163-17.743-8.069-25.5-12.5 8.034 1.251 18.928 4.707 26 8.5"/><path fill="#b5deea" d="M702 503c7.798 38.35 9.928 84.391 7 123.5-1.391 18.586-6.269 36.517-8 55L690 695c9.785-69.468 7.295-149.646-16-216 4.158-3.554 7.159-9.045 12-12 4.267 21.561 13.239 42.709 16 66.5 3.467 29.868 2.224 60.968 1 91 .956 1.542 3.81-1.394 4-2 1.901-6.055 1.231-34.1 1-42-.359-12.276-1.778-28.603-3-41-1.106-11.217-6.822-26.013-3-36.5"/><path fill="#8fdff4" d="M337 468c-.078.184.72 1.842 0 4-17.763 6.116-35.21 21.199-42 39-2.841 1.931-5.403 6.279-9 7 6.664-22.173 21.866-34.769 41-46 3.093-1.816 6.267-3.827 10-4"/><path fill="#4dd5f2" d="M337 472c-1.866 5.59-3.982 12.233-5 18-6.417 1.905-12.363 6.529-18 10-5.679 3.497-13.768 7.443-19 11 6.79-17.801 24.237-32.884 42-39"/><path fill="url(#d)" d="M369 488c41.551 34.506 100.085 44.999 153 48-124.382 12.029-161.117 177.433-53 241-48.272-20.144-75.744-41.801-99-90.5-2.823-5.911-5.317-17.173-8-22-1.496-2.692-1.739-2.839-5-2.5-10.159-59.95-14.983-123.868 1-183 3.132 3.038 7.467 6.382 11 9" style="fill:url(#d)"/>/&gt;<path fill="#f8fdfe" d="M690 695c-.569 4.039-3.122 8.229-4 13-.251 1.365 2.128.841 2 1.5-2.811 14.49-10.108 41.299-18 53.5-1.549 2.394-3.586 4.847-5.5 7l-.5-2c18.698-36.125 23.53-80.986 25-121.5 1.967-54.212-3.113-109.252-19-161-42.351 31.317-89.316 46.57-142 49.5-.64.026-4.182.824-6 1-52.915-3.001-111.449-13.494-153-48 76.743 56.869 232.243 53.195 305-9 23.295 66.354 25.785 146.532 16 216"/><path fill="url(#e)" d="M664 768c-14.596 6.462-29.66 16.601-45 21-16.991 4.873-44.965 8.138-63 10v-6c162.867-24.556 137.491-264.77-28-258 52.684-2.93 99.649-18.183 142-49.5 15.887 51.748 20.967 106.788 19 161-1.47 40.514-6.302 85.375-25 121.5" style="fill:url(#e)"/>/&gt;<path fill="#90dcea" d="M334 578h-4c-.438-28.36.291-60.121 5-88l3-1c-5.044 27.742-4.392 60.693-4 89"/><path fill="#0080b4" d="M332 490c-2.603 14.742-3.105 30.062-4 45-.413-6.224.587-18.747-6-18-.491-9.845 3.036-12.992-8-17 5.637-3.471 11.583-8.095 18-10"/><path fill="#0071a7" d="M733 500c-3.74-1.127-18.802-3.963-20 .5-1.724 6.419 9.167 38.234 6 48 8.658 15.359 27.128 5.245 34-6.5.989 14.994-.073 29.402-3 44-4.547 4.896-27.049 24.109-31 11.5-2.986-9.532 2.632-33.645 0-45-1.376 4.982-3.659 2.967-8 4.5-1.297-20.63-4.322-45.926-9-66z"/><path fill="#1babdb" d="M733 500c17.116 5.159 18.958 26.202 20 42-6.872 11.745-25.342 21.859-34 6.5 3.167-9.766-7.724-41.581-6-48 1.198-4.463 16.26-1.627 20-.5"/><path fill="#18acdd" d="M322 517c.585 11.718-1.196 23.298-1 35-11.207 15.44-30.254 3.133-36-11 .332-4.574 3.815-8.512-2-10 .541-3.951 1.84-9.14 3-13 3.597-.721 6.159-5.069 9-7 5.232-3.557 13.321-7.503 19-11 11.036 4.008 7.509 7.155 8 17"/><path fill="#006598" d="M328 535c1.756 26.46.315 53.786 2 81-2.462.53-2.105-3.184-3-6-6.423-20.211-5.647-36.925-6-58-.196-11.702 1.585-23.282 1-35 6.587-.747 5.587 11.776 6 18"/><path fill="#0070a4" d="m781 537 3 57c-.286.116-.715-.118-1 0-12.786 5.284-24.865 12.513-38 17 1.165-5.23 9.372-14.38 12-20.5 9.352-21.775 9.893-48.118 5-71 7.249 4.805 12.904 11.449 19 17.5"/><path fill="#006ea3" d="M296 612c-11.081-3.688-22.096-7.836-33-12-.291-.111-.71.112-1 0l3-59c4.714-4.735 9.474-12.119 16-14.5-7.503 27.372-1.757 62.473 15 85.5"/><path fill="#1fc3e7" d="M285 541c-.792 10.916.242 18.918 0 29-.028 1.152.549 2.924-1 3-2.272-13.998-2.948-27.76-1-42 5.815 1.488 2.332 5.426 2 10"/><path fill="#09243f" d="M556 793c-38.449 5.797-53.573-2.05-87-16-108.117-63.567-71.382-228.971 53-241 1.818-.176 5.36-.974 6-1 165.491-6.77 190.867 233.444 28 258M416 621c-15.95 43.363-7.672 87.628 21 123 56.616 69.847 168.161 59.943 211-19 12.559-23.143 16.907-44.256 15-71-3.153-44.203-37.174-91.396-80-105-63.507-29.033-143.376 7.772-167 72"/><path fill="#c4ecf5" d="m825 584-3 1c-.26-11.094-3.888-3.268-7-2 .618-2.139-1.27-2.231-2-3-4.38-15.296-9.964-30.049-17.5-44 13.313 13.687 22.578 30.238 29.5 48"/><path fill="#66afcd" d="M813 580c.73.769 2.618.861 2 3-9.999 4.074-20.738 6.838-31 11l-3-57c6.838 6.786 15.498 14.63 21 22.5 4.307 6.16 6.705 15.977 11 20.5"/><path fill="#a9d9d5" d="M583 549c-5.875-1.866-23.024-7.647-27-2-54.117-8.558-108.781 21.709-130 72-7.497-1.686-6.185.658-10 2 23.624-64.228 103.493-101.033 167-72"/><path fill="#aae2ee" d="M234 582c-1.031 2.082-3.474 2.822-1 6-3.083-1.407-3.767-4.513-7.5-5-2.523 2.596-1.991 4.245-2.5 8l-3-2c6.552-17.665 16.729-34.216 29.5-48z"/><path fill="#5eaccc" d="M262 600c-9.696-3.754-19.546-7.684-29-12-2.474-3.178-.031-3.918 1-6 9.065-18.297 16.898-26.837 31-41z"/><path fill="#0071a9" d="M321 552c.353 21.075-.423 37.789 6 58-11.426-8.737-21.375-9.036-32-20-5.562-5.739-7.981-9.515-10-20 .242-10.082-.792-18.084 0-29 5.746 14.133 24.793 26.44 36 11"/><path fill="#8fc4c5" d="M583 549c42.826 13.604 76.847 60.797 80 105l-7 5c-2.421-54.413-46.483-103.537-100-112 3.976-5.647 21.125.134 27 2"/><path fill="#f8fbfc" d="M556 547c53.517 8.463 97.579 57.587 100 112 .758 17.039-1.743 33.193-8 49-32.875 83.06-150.041 98.241-206 29-27.166-33.614-32.752-78.296-16-118 21.219-50.291 75.883-80.558 130-72M424 682c.64 8.34 3.979 17.159 7 24 59.471 134.67 261.015 50.504 217-80.5-.698-2.077-6.63-15.911-10-13.5-1.184-3.592-3.383-10.361-7-12 2.244-2.897-.545-5.453-2-7.5-64.928-91.378-231.175-25.654-205 89.5"/><path fill="url(#f)" d="M631 600c-7.072-3.206-14.077 1.149-17 8-4.472 3.673-9.606 10.692-14 15-11.555 7.517-62.45 60.893-71.5 62-.662.081-12.408-2.692-13-3-3.671-1.909-7.629-10.152-12.5-11-12.358-11.746-20.561-30.432-39-12 2.768-4.88 9.812-8.837 10-9.5.288-1.016-3.769-13.499-4-16-1.922-20.828-.237-38.822 9.5-57.5-40.99 33.94-65.081 85.333-29.5 133 5.688 7.62 11.925 14.237 19.5 20 .548-10.581 2.807-22.512 2.5-33-.364-12.464-14.874-16.423-10-34 .918 12.577 8.881 23.713 16 34 9.199 13.821 20.114 29.909 32 41.5 3.736 3.643 11.043 12.729 16.5 10.5 29.115-31.301 63.193-60.706 91.5-92.5 3.188-3.58 21.014-23.75 22-26 2.165-4.943-.337-12.455-2-17.5 3.37-2.411 9.302 11.423 10 13.5 44.015 131.004-157.529 215.17-217 80.5.394-8.326-5.276-16.417-7-24-26.175-115.154 140.072-180.878 205-89.5 1.455 2.047 4.244 4.603 2 7.5m-102.5-44c-.459.024-5.289 2.69-7 3-.177.032-2.824-2.037-3-2-.978.208-.018 2.767-1 3-9.52 2.256-18.757 3.346-26 11l-1-2c-4.722 1.547-2.472 5.42-5.5 8.5 14.319-9.279 29.976-15.37 46-20-.82-.834-1.136-1.572-2.5-1.5" style="fill:url(#f)"/>/&gt;<path fill="#005684" d="M750 586c-.59 2.941-3.921 7.713 0 9-8.04 16.374-22.102 29.657-39.5 36 1.492-24.607 2.049-49.362.5-74 4.341-1.533 6.624.482 8-4.5 2.632 11.355-2.986 35.468 0 45 3.951 12.609 26.453-6.604 31-11.5"/><path fill="#b2e5e4" d="M528.5 556c1.364-.072 1.68.666 2.5 1.5-16.024 4.63-31.681 10.721-46 20 3.028-3.08.778-6.953 5.5-8.5l1 2c7.243-7.654 16.48-8.744 26-11 .982-.233.022-2.792 1-3 .176-.037 2.823 2.032 3 2 1.711-.31 6.541-2.976 7-3"/><path fill="#028ac1" d="M295 590c-4.638-1.935 2.536 8.29 2 8.5l-5 1.5c-4.016-8.439-6.501-17.759-8-27 1.549-.076.972-1.848 1-3 2.019 10.485 4.438 14.261 10 20"/><path fill="url(#g)" d="M464 659c-.382.674-1.643 1.711-2 3-4.874 17.577 9.636 21.536 10 34-8.488 2.775-14.602 8.127-22 13-35.581-47.667-11.49-99.06 29.5-133-9.737 18.678-11.422 36.672-9.5 57.5.231 2.501 4.288 14.984 4 16-.188.663-7.232 4.62-10 9.5" style="fill:url(#g)"/>/&gt;<path fill="#4ba5bf" d="M334 578c.269 19.392.263 39.768 2 59-.63.08-1.835-.142-2 0-2.096-19.488-3.697-39.393-4-59z"/><path fill="#e3f3f7" d="M822 585c.092 3.942-2.121 9.64-1 14-.907.078-3.407.749-5 1l1-11.5c-1.831-4.246-29.324 10.553-34 12.5-.284.118-.716-.119-1 0-.503-3.394 1.024-3.799 4-4.5l-3-2.5c.285-.118.714.116 1 0 10.262-4.162 21.001-6.926 31-11 3.112-1.268 6.74-9.094 7 2"/><path fill="#fcfcfd" d="M233 588c9.454 4.316 19.304 8.246 29 12 .29.112.709-.111 1 0l-1 2c-11.006-4.329-22.014-8.951-33.5-12-1.088.871.501 12.606.5 15-.011 40.117 5.576 73.448 32 105-.061.036.14.297-1 1-27.722-27.098-36.471-70.352-37-108-.066-4.666-.66-7.13 0-12 .509-3.755-.023-5.404 2.5-8 3.733.487 4.417 3.593 7.5 5"/><path fill="#6a9eb7" d="M830 599c-2.633.16-5.38-.229-8 0-.331.029-.669-.028-1 0-1.121-4.36 1.092-10.058 1-14l3-1c2.313 5.934 3.339 8.733 5 15"/><path fill="#609cb8" d="M816 600c-.325.051-.677-.056-1 0-12.14 2.097-20.956 7.087-32 11-.296.105-.704-.106-1 0l1-10c4.676-1.947 32.169-16.746 34-12.5z"/><path fill="#70a8bd" d="M223 591c-.66 4.87-.066 7.334 0 12l-7-1c1.073-3.954 2.594-9.209 4-13z"/><path fill="#004f7c" d="M295 590c10.625 10.964 20.574 11.263 32 20 .895 2.816.538 6.53 3 6 .213 3.439 2.441 20.738.5 21-15.819-8.635-30.573-20.343-38.5-37l5-1.5c.536-.21-6.638-10.435-2-8.5"/><path fill="#5b9bb8" d="M262 602c.132.052 1.869 1.947 2 2l-1 10c-11.118-3.545-22.204-7.995-34-9 .001-2.394-1.588-14.129-.5-15 11.486 3.049 22.494 7.671 33.5 12"/><path fill="#55b1c8" d="M782 601c-12.09 5.051-24.45 9.762-36 16 .033-.302-1.618-3.224-1-6 13.135-4.487 25.214-11.716 38-17l3 2.5c-2.976.701-4.503 1.106-4 4.5"/><path fill="#103a3c" d="M631 600c3.617 1.639 5.816 8.408 7 12 1.663 5.045 4.165 12.557 2 17.5-.986 2.25-18.812 22.42-22 26-28.307 31.794-62.385 61.199-91.5 92.5-5.457 2.229-12.764-6.857-16.5-10.5-11.886-11.591-22.801-27.679-32-41.5 7.423 10.726 23.851 30.024 34 38 2.443 1.92 5.022 6.531 9.5 6 2.001-.237 17.504-16.277 19.5-19 10.128-8.223 17.955-18.74 27-28 14.339-14.68 30.633-28.908 44-44.5 5.396-6.294 21.192-23.587 21-30.5-.137-4.927-5.073-10.877-5-11.5.118-1.011 6.166-3.509.5-5.5-5.705-2.005-10.543 3.751-14.5 7 2.923-6.851 9.928-11.206 17-8"/><path fill="#fdfdfe" d="M822 599c-2.133 36.905-6.55 81.079-37 106 22.8-29.71 34.844-67.346 30-105 .323-.056.675.051 1 0 1.593-.251 4.093-.922 5-1 .331-.028.669.029 1 0"/><path fill="#96b3c3" d="M830 599c11.528 43.499 8.064 91.948-33 118-4.685-3.448-9.027-6.907-14-10-.216-1.171 1.874-1.836 2-2 30.45-24.921 34.867-69.095 37-106 2.62-.229 5.367.16 8 0"/><path fill="#68bcd2" d="M296 612a73 73 0 0 0 4 5c-12.158-3.486-24.256-8.276-36-13-.131-.053-1.868-1.948-2-2l1-2c10.904 4.164 21.919 8.312 33 12"/><path fill="url(#h)" d="M815 600c4.844 37.654-7.2 75.29-30 105-.126.164-2.216.829-2 2-5.665-3.523-12.64-6.142-18-10-3.198-2.302-6.036-5.375-9-8 16.628-23.284 27.673-48.781 27-78 11.044-3.913 19.86-8.903 32-11" style="fill:url(#h)"/>/&gt;<path fill="#6eb8b3" d="M633 618c-1.129 1.496-5.701 1.783-6 2l-2-11.5c-.848-.987-2.394.059-3.5.5-3.1 1.235-40.338 38.155-46.5 44l-1-3c8.966-8.56 17.141-18.314 26-27 4.394-4.308 9.528-11.327 14-15 3.957-3.249 8.795-9.005 14.5-7 5.666 1.991-.382 4.489-.5 5.5-.073.623 4.863 6.573 5 11.5"/><path fill="#1e6a92" d="m783 601-1 10c-12.178 4.368-24.471 7.984-36 14 .177-1.972-.356-4.729 0-8 11.55-6.238 23.91-10.949 36-16 .284-.119.716.118 1 0"/><path fill="#99b5c4" d="M223 603c.529 37.648 9.278 80.902 37 108-3.259 2.011-8.41 6.934-11 10-40.831-29.23-45.645-72.409-33-119z"/><path fill="#166b96" d="M300 617c.826.94 2.965 3.01 4 4-1.553 3.463-1.195 8.263-1 12l-1 3c-.478-2.579-.76-7.235-2.5-9-1.496-1.518-30.939-11.528-35.5-13-.302-.097-.698.096-1 0l1-10c11.744 4.724 23.842 9.514 36 13"/><path fill="#8baabc" d="M263 614c.302.096.698-.097 1 0-1.78 28.272 8.529 56.767 27 78-2.992 2.671-6.951 6.917-10 9-1.201.82-2.791 1.188-4 2-4.652 3.122-12.195 4.738-16 7-26.424-31.552-32.011-64.883-32-105 11.796 1.005 22.882 5.455 34 9"/><path fill="#fdfefe" d="M627 620c-2.637 1.914-7.256 10.466-10 13.5-16.909 18.692-34.629 37.224-52 55.5-6.472 6.81-12.409 14.353-19 21-7.83 7.897-16.161 15.85-24.5 23-1.964-1.177-3.691-2.632-5.5-4-6.433-4.864-41.179-50.924-42-57.5-.654-5.243 1.145-14.857 8.5-13.5 2.298.424 19.055 18.648 22.5 22 4.606 4.482 14.921 19.129 22.5 18 5.246-.782 40.819-38.662 47.5-45 6.162-5.845 43.4-42.765 46.5-44 1.106-.441 2.652-1.487 3.5-.5z"/><path fill="#4d7c96" d="M782 611c.296-.106.704.105 1 0 .673 29.219-10.372 54.716-27 78-3.026-2.68-17.576-16.8-18-19.5-.302-1.926 6.332-22.012 7-27 .745-5.559.486-11.783 1-17.5 11.529-6.016 23.822-9.632 36-14"/><path fill="#fefefe" d="M742.5 612c5.826.793-2.211 48.733-7.5 54.5-3.458 3.771-23.435 5.524-28.5 11.5l2.5-43.5c11.881-6.497 24.331-12.208 33.5-22.5"/><path fill="#4b7c97" d="M302 636c1.367 7.385 1.438 16.56 3 24.5.466 2.366 5.044 10.397 5 11-.124 1.679-16.34 18.125-19 20.5-18.471-21.233-28.78-49.728-27-78 4.561 1.472 34.004 11.482 35.5 13 1.74 1.765 2.022 6.421 2.5 9"/><path fill="#63a39f" d="M426 619c-16.752 39.704-11.166 84.386 16 118l-5 7c-28.672-35.372-36.95-79.637-21-123 3.815-1.342 2.503-3.686 10-2"/><path fill="#4da7a6" d="m568 693-3-4c17.371-18.276 35.091-36.808 52-55.5 2.744-3.034 7.363-11.586 10-13.5.299-.217 4.871-.504 6-2 .192 6.913-15.604 24.206-21 30.5-13.367 15.592-29.661 29.82-44 44.5"/><path fill="#fdfefe" d="M331 639c2.814 4.981 2.457 32.424 5 40-6.252-3.065-20.867-4.806-24-8.5-4.062-4.79-8.637-30.537-9-37.5-.195-3.737-.553-8.537 1-12 5.135 4.912 26.202 16.587 27 18"/><path fill="#1b5253" d="M600 623c-8.859 8.686-17.034 18.44-26 27-5.47 5.222-40.839 38.227-44.5 39-7.842 1.656-17.182-7.887-22.5-13-1.386-1.332-2.609-3.678-4-5 4.871.848 8.829 9.091 12.5 11 .592.308 12.338 3.081 13 3 9.05-1.107 59.945-54.483 71.5-62"/><path fill="#3f6d84" d="M336 637c.113 1.251 1.957 2.05 2 2.5 1.384 14.493 1.843 29.089 4 43.5-1.607-1.148-4.399-3.215-6-4-2.543-7.576-2.186-35.019-5-40 3.729.905 2.749-1.784 3-2 .165-.142 1.37.08 2 0"/><path fill="#43948b" d="M575 653c-6.681 6.338-42.254 44.218-47.5 45-7.579 1.129-17.894-13.518-22.5-18l2-4c5.318 5.113 14.658 14.656 22.5 13 3.661-.773 39.03-33.778 44.5-39z"/><path fill="#6bb8b0" d="M503 671c1.391 1.322 2.614 3.668 4 5l-2 4c-3.445-3.352-20.202-21.576-22.5-22-7.355-1.357-9.154 8.257-8.5 13.5.821 6.576 35.567 52.636 42 57.5-3.212-.779-4.09 2.158-4 5-10.149-7.976-26.577-27.274-34-38-7.119-10.287-15.082-21.423-16-34 .357-1.289 1.618-2.326 2-3 18.439-18.432 26.642.254 39 12"/><path fill="#63a39f" d="M648 725c-11.595-1.323 1.685-10.962 0-17 6.257-15.807 8.758-31.961 8-49l7-5c1.907 26.744-2.441 47.857-15 71"/><path fill="#598499" d="M469 777c33.427 13.95 48.551 21.797 87 16v6c-29.208 3.015-56.662 2.983-86 4-2.079-.29-3.996-.678-6-1-23.56-3.791-48.224-10.121-70-20-13.44-19.775-19.785-42.407-29-64 2.301-2.025 3.608-.131 4-4.5.441-4.911-10.413-42.138-12-51.5 3.261-.339 3.504-.192 5 2.5 2.683 4.827 5.177 16.089 8 22 23.256 48.699 50.728 70.356 99 90.5"/><path fill="#00507d" d="M730 749c6.77-3.216 33.615-19.991 35-26.5 2.013-9.458-18.412-24.782-26-28.5-13.416-6.574-25.583-7.563-39.5-2l.5-4c11.523-12.682 20.042-12.521 35.5-18 4.416 9.905 41.242 42.883 39.5 50.5-.3 1.31-16.481 18.084-18.5 19.5-8.701 6.104-16.369 7.349-26.5 9"/><path fill="#004a74" d="M324 678c-9.406 6.178-14.775 5.703-9 18-7.461 1.953-33.244 19.491-34 26.5-1.056 9.8 23.332 22.636 30.5 27.5 2.78 1.886 2.307.539 1.5 4-19.245-3.702-32.552-17.123-43-33 .794-4.174 3.752-6.64 5-10.5l-8 5.5c3.396-3.7 8.962-8.022 10-13 1.209-.812 2.799-1.18 4-2l-3 6.5c1.352 2.464 5.165-1.515 6.5-2.5 10.487-7.732 16.62-22.074 26-31 3.874 3.599 8.991 2.685 13.5 4"/><path fill="#005b8d" d="M339 685c-4.733 3.217-2.034 11.524-2.5 12-2.214 2.262-21.441 6.594-24 14 2.411-8.072 12.521-11.682 19.5-14.5-23.917.999-27.269 15.483-17 34.5h-1c-13.051-23.866-11.724-31.648 17-37.5l-16 2.5c-5.775-12.297-.406-11.822 9-18 5.513 1.607 10.266 3.748 15 7"/><path fill="#19595a" d="M431 706c-3.021-6.841-6.36-15.66-7-24 1.724 7.583 7.394 15.674 7 24"/><path fill="#0073a9" d="M315 731c-10.269-19.017-6.917-33.501 17-34.5-6.979 2.818-17.089 6.428-19.5 14.5 2.559-7.406 21.786-11.738 24-14 .466-.476-2.233-8.783 2.5-12 7.204 4.949 15.009 14.268 18 22.5-39.164-12.945-49.881 20.243-22 45-7.857-3.774-15.973-14.043-20-21.5"/><path fill="#0075a9" d="M739 694c-8.575 3.81.176 8.318 1 13.5 1.555 9.784-3.951 14.367-9 21.5-1.218-.066-1.546 1.402-2 2-.802 1.058-1.35 1.847-2 3-4.783 5.536-9.437 9.346-15 14 28.243-25.282 19.497-60.446-21.5-45 1.787-5.36 5.731-10.851 9.5-15l-.5 4c13.917-5.563 26.084-4.574 39.5 2"/><path fill="#338c87" d="M568 693c-9.045 9.26-16.872 19.777-27 28 2.159-2.946 2.94-7.808 5-11 6.591-6.647 12.528-14.19 19-21z"/><path fill="#1078a2" d="M314 731c5.203 9.514 11.135 18.077 20 24.5-.636.839-18.83-1.083-21-1.5.807-3.461 1.28-2.114-1.5-4-7.168-4.864-31.556-17.7-30.5-27.5.756-7.009 26.539-24.547 34-26.5l16-2.5c-28.724 5.852-30.051 13.634-17 37.5"/><path fill="#1178a1" d="M730 749c-3.058.498-19.652 2.747-21 1l1-1c.512-.129 1.711-.759 2-1l1 1.5c6.83-3.083 10.441-9.191 14-15.5 1.852-2.144 1.561-2.432 2-3 .087-.112.447.194 2-2 5.049-7.133 10.555-11.716 9-21.5-.824-5.182-9.575-9.69-1-13.5 7.588 3.718 28.013 19.042 26 28.5-1.385 6.509-28.23 23.284-35 26.5"/><path fill="#35e5f2" d="M450 709c7.398-4.873 13.512-10.225 22-13 .307 10.488-1.952 22.419-2.5 33-7.575-5.763-13.812-12.38-19.5-20"/><path fill="#455b63" d="M783 707c4.973 3.093 9.315 6.552 14 10-6.731 4.27-3.778 7.584-13 1-4.577-5.242-11.054-10.442-16-16-1.325-1.489-3.275-2.48-3-5 5.36 3.858 12.335 6.477 18 10"/><path fill="#069dc1" d="M784 718c1.627 1.863 3.054 3.906 5 5.5l-14.5 5.5c-2.68-3.889 3.118-5.289 2.5-10.5-.456-3.843-8.781-11.74-9-16.5 4.946 5.558 11.423 10.758 16 16"/><path fill="#455a61" d="M267 716c-3.341 3.64-6.818 7.22-10 11-3.304-1.838-5.402-4.14-8-6 2.59-3.066 7.741-7.989 11-10 1.14-.703.939-.964 1-1 3.805-2.262 11.348-3.878 16-7-1.038 4.978-6.604 9.3-10 13"/><path fill="#a2c2d1" d="M681 756c-2.371 2.661-7.774 9.319-11 7 7.892-12.201 15.189-39.01 18-53.5.128-.659-2.251-.135-2-1.5l10.5-4c-.136 18.196-2.901 37.86-15.5 52"/><path fill="#235b58" d="M648 725c-42.839 78.943-154.384 88.847-211 19l5-7c55.959 69.241 173.125 54.06 206-29 1.685 6.038-11.595 15.677 0 17"/><path fill="#3b647b" d="M364 715c.283.656.377 1.541 1 3 9.215 21.593 15.56 44.225 29 64-34.041-15.444-40.697-33.83-49-69-.136-1.016-1.588-1.825-1-3.5l2.5-.5z"/><path fill="#01a1c4" d="M270 721c-1.242 6.53 1.993 7.182 4.5 13-7.337.081-11.788-3.822-17.5-7 3.182-3.78 6.659-7.36 10-11l8-5.5c-1.248 3.86-4.206 6.326-5 10.5"/><path fill="#28756d" d="M541 721c-1.996 2.723-17.499 18.763-19.5 19-4.478.531-7.057-4.08-9.5-6-.09-2.842.788-5.779 4-5 1.809 1.368 3.536 2.823 5.5 4 8.339-7.15 16.67-15.103 24.5-23-2.06 3.192-2.841 8.054-5 11"/><path fill="#023051" d="M394 782c21.776 9.879 46.44 16.209 70 20 .513 3.273-2.766 1.57-5 2-1.6.308-5.684 2-6 2-16.812.013-51.586-16.36-68-23l-5.5-6-.5 2c-27.374-13.418-27.358-38.305-35-63 1.426-.02 1.139-1.963 1-3 8.303 35.17 14.959 53.556 49 69"/><path fill="#001334" d="M729 731c.454-.598.782-2.066 2-2-1.553 2.194-1.913 1.888-2 2m-2 3c.65-1.153 1.198-1.942 2-3-.439.568-.148.856-2 3m-15 14c5.563-4.654 10.217-8.464 15-14-3.559 6.309-7.17 12.417-14 15.5z"/><path fill="#a2dfef" d="M663 775c-27.089 7.805-39.548 19.133-73 25-12.089 2.12-23.716 4.046-36 5-1.984-2.89.671-1.931 2.5-2 15.233-.578 39.311-4.094 54-8 3.471-.923 11.114-1.78 8.5-6 15.34-4.399 30.404-14.538 45-21l.5 2c1.914-2.153 3.951-4.606 5.5-7 3.226 2.319 8.629-4.339 11-7-3.115 8.408-11.76 13.057-18 19"/><path fill="#002d54" d="M663 779c-17.243 13.189-42.523 19.294-63 25-2.512-2.191-6.926-2.398-10-2v-2c33.452-5.867 45.911-17.195 73-25 1.726-.497 4.162-1.639 6-.5-2.639.78-4.048 3.007-6 4.5"/><path fill="#001235" d="M385 783c-.692-.28-3.879-1.783-4-1.5-.323 4.97 1.175 9.709 2 14.5.323 1.875.61 4.243 1 6 4.317 19.444 10.374 40.397 31 47 8.417 2.695 13.38 2.992 22 2 .697-.08 4.983 1.042 6.5 0 1.766-1.212 9.518-34.357 10.5-39.5.28-1.465 1.453-4.99-1-5.5.316 0 4.4-1.692 6-2-.141.748-.658 1.313-1 2-1.551 3.115-10.5 37.525-10 39.5.278 1.099 13.739 8.859 17 15 2.848 5.363 4.894 15.58 5 21.5.088 4.927-.684 14.905-3.5 18-14.336 15.755-68.57 13.595-89 12-16.29-1.272-32.844-4.572-49-7l-1.5-1.5c1.677-5.462 2.075-11.083 4-16.5 8.058-22.678 46.177-36.174 68-42-2.437 3.743-44.457 15.491-49 25-8.219 5.036-12.103 9.28-16 18-.029.065-.508-.379-1 1-.979 2.748-2.119 8.063-2 11 .006.152-2.488 1.348.5 3 27.561 3.513 55.613 8.108 83.5 6 7.985-.604 49.681-6.579 52-13.5-.587-13.125 2.911-29.342-8-39-.379 9.251-3.454 13.152-8 20.5-12.803 10.523-28.47 9.398-44 9 6.64-1.531 13.227-.955 20-2 1.659-.256 4.089.383 5.5 0 9.273-2.516 28.04-21.292 22.5-31.5-4.728-8.711-9.781.432-15.5 1.5-8.473 1.583-27.915-2.519-35.5-7-1.796-1.061-3.496-2.529-5-4-12.965-12.681-17.927-46.289-20-64l.5-2z"/><path fill="#005c8a" d="M664 795c-2.766-.261-3.552 2.609-5 4-3.687 3.542-10.117 8.386-14.5 11-5.863 3.496-38.797 15.457-39.5 17.5-.375 1.09 5.5 19.138 5 22.5-1.662-.366-2.622 1.558-4.5 1-5.723-2.719-9.67-36.401-13.5-43.5l1.5-2.5c2.298.341 4.376-.408 6.5-1 20.477-5.706 45.757-11.811 63-25 5.079-.723 1.466 13.149 1 16"/><path fill="#005a88" d="M385 783c16.414 6.64 51.188 23.013 68 23 2.453.51 1.28 4.035 1 5.5-.982 5.143-8.734 38.288-10.5 39.5-1.517 1.042-5.803-.08-6.5 0-.428-3.788 5.556-21.806 5-23.5-.618-1.884-31.155-12.551-36.5-15.5-8.058-4.446-14.818-11.041-22.5-16-.825-4.791-2.323-9.53-2-14.5.121-.283 3.308 1.22 4 1.5"/><path fill="#6fc6d4" d="M554 805c-29.151 2.264-55.071 2.037-84-2 29.338-1.017 56.792-.985 86-4 18.035-1.862 46.009-5.127 63-10 2.614 4.22-5.029 5.077-8.5 6-14.689 3.906-38.767 7.422-54 8-1.829.069-4.484-.89-2.5 2"/><path fill="#19bde3" d="M664 795c-3.873 23.678-8.963 46.658-34 54-3.53-4.237 5.702-4.839 8.5-7 13.011-10.052 11.528-19.49 16.5-32.5 1.303-3.41 8.327-6.901 4-10.5 1.448-1.391 2.234-4.261 5-4"/><path fill="#2b8bb1" d="M437 851c-8.62.992-13.583.695-22-2l1-3.5c-6.503-1.549-12.467-7.403-16-13-6.888-10.911-4.498-23.772-16-30.5-.39-1.757-.677-4.125-1-6 7.682 4.959 14.442 11.554 22.5 16 5.345 2.949 35.882 13.616 36.5 15.5.556 1.694-5.428 19.712-5 23.5"/><path fill="#298bb2" d="M630 849c-10.208 2.993-9.724 3.265-20 1 .5-3.362-5.375-21.41-5-22.5.703-2.043 33.637-14.004 39.5-17.5 4.383-2.614 10.813-7.458 14.5-11 4.327 3.599-2.697 7.09-4 10.5-4.972 13.01-3.489 22.448-16.5 32.5-2.798 2.161-12.03 2.763-8.5 7"/><path fill="#275470" d="M590 802c-.644.083-15.263 3.69-11 5-40.691 3.63-80.379 7.464-121-1 .342-.687.859-1.252 1-2 2.234-.43 5.513 1.273 5-2 2.004.322 3.921.71 6 1 28.929 4.037 54.849 4.264 84 2 12.284-.954 23.911-2.88 36-5z"/><path fill="#18bce1" d="M415 849c-20.626-6.603-26.683-27.556-31-47 11.502 6.728 9.112 19.589 16 30.5 3.533 5.597 9.497 11.451 16 13z"/><path fill="#24b4e0" d="M404 847c.262 1.196-3.867-.468-1.5 2 3.98 4.15 31.784 15.562 32.5 19.5 1.182 6.579-13.182 12.717-8 15.5-6.773 1.045-13.36.469-20 2-6.728-.172-59.15-5.725-60-9.5l38.5-23.5-35.5 17c4.543-9.509 46.563-21.257 49-25 .159-.244-.088-1.377 0-2 1.504 1.471 3.204 2.939 5 4"/><path fill="#066a95" d="M648 846c-3.757 5.186-33.977 18.195-35 21.5-4.588 14.827 23.094 15.497 31.5 15.5 17.436.006 35.466-5.416 52.5-5-5.329 3.049-46.736 7.716-55 8-6.183.213-15.06.632-21 0-2.869-3.947-9.025-3.289-13.5-6-7.71-4.671-19.181-18.024-14.5-27.5 4.662-9.439 9.661.044 11.5.5 9.002 2.23 20.101.118 29-2 5.719-1.361 7.692-5.538 14.5-5"/><path fill="#23b3df" d="M651 847c4.88 3.678 10.523 6.342 16 9 3.808 4.41 31.174 15.78 32 19.5.328 1.477-1.019 1.939-2 2.5-17.034-.416-35.064 5.006-52.5 5-8.406-.003-36.088-.673-31.5-15.5 1.023-3.305 31.243-16.314 35-21.5 1.825.144 1.964.774 3 1"/><path fill="#046d96" d="M404 847c7.585 4.481 27.027 8.583 35.5 7 5.719-1.068 10.772-10.211 15.5-1.5 5.54 10.208-13.227 28.984-22.5 31.5-1.411.383-3.841-.256-5.5 0-5.182-2.783 9.182-8.921 8-15.5-.716-3.938-28.52-15.35-32.5-19.5-2.367-2.468 1.762-.804 1.5-2"/><path fill="#18c4e7" d="M698 871c-8.43-5.391-21.687-10.48-31-15-5.477-2.658-11.12-5.322-16-9 14.91 3.252 35.62 14.062 47 24"/><path fill="#53e1f7" d="M407 886c15.53.398 31.197 1.523 44-9-9.69 15.664-18.567 14.237-36 16-.147-.873.431-2.601-.5-3-10.207 1.508-21.221 1.43-31.5 1-16.364-.685-32.68-2.563-49-3 3.897-8.72 7.781-12.964 16-18l35.5-17-38.5 23.5c.85 3.775 53.272 9.328 60 9.5"/><path fill="#00436c" d="M415 909c-.57-4.908.783-11.337 0-16 17.433-1.763 26.31-.336 36-16 4.546-7.348 7.621-11.249 8-20.5 10.911 9.658 7.413 25.875 8 39-2.319 6.921-44.015 12.896-52 13.5"/><path fill="#00436b" d="M597 877c1.359 16.329 28.423 12.122 35 16 .554.327 1.957 1.865 2 2 .836 2.62-.605 8.831 0 12v1c-9.585-.727-45.207-4.158-51.5-10-5.253-4.876-3.202-36.912 5.5-41.5-1.481 5.979 4.528 16.492 9 20.5"/><path fill="#58e2f7" d="M698 871c7.321 4.682 11.555 7.84 15 16-23.431 5.453-47.8 2.005-71 3v-4c8.264-.284 49.671-4.951 55-8 .981-.561 2.328-1.023 2-2.5-.826-3.72-28.192-15.09-32-19.5 9.313 4.52 22.57 9.609 31 15"/><path fill="#1cc5e9" d="M621 886c5.94.632 14.817.213 21 0v4c-4.177.179-8.948-1.599-10 3-6.577-3.878-33.641.329-35-16 6.197 5.554 15.834 8.132 24 9"/><path fill="#e1f8fd" d="M383 891v4c-16.711-1.266-33.638-2.153-50-6 .492-1.379.971-.935 1-1 16.32.437 32.636 2.315 49 3"/><path fill="#d3f4fa" d="M713 887c.059.139.511.484 1 2-13.133 3.152-26.554 4.124-40 5-13.337.869-26.617 1.397-40 1-.043-.135-1.446-1.673-2-2 1.052-4.599 5.823-2.821 10-3 23.2-.995 47.569 2.453 71-3"/><path fill="#8fb9c7" d="M383 895c9.386.711 19.103 1.693 28.5 0l1 13c-11.464-2.321-24.495-.21-36-1-7.603-.522-23.257-4.144-31-5-4.095-.452-10.612 1.156-14.5-2-.119-2.937 1.021-8.252 2-11 16.362 3.847 33.289 4.734 50 6"/><path fill="#96c1ce" d="M714 889c1.307 4.048 1.192 8.601 3 12.5-.272.815-3.557 2.201-4.5 2.5-15.935 5.057-62.603 5.205-78.5 4v-1h32.5c2.615-2.404.719-7.853 1.5-9.5 1.422-2.999 6.267.332 6-3.5 13.446-.876 26.867-1.848 40-5"/><path fill="#b8e1ea" d="M415 893c.783 4.663-.57 11.092 0 16-27.887 2.108-55.939-2.487-83.5-6-2.988-1.652-.494-2.848-.5-3 3.888 3.156 10.405 1.548 14.5 2 7.743.856 23.397 4.478 31 5 11.505.79 24.536-1.321 36 1l-1-13c-9.397 1.693-19.114.711-28.5 0v-4c10.279.43 21.293.508 31.5-1 .931.399.353 2.127.5 3"/><path fill="#88afbd" d="M674 894c.267 3.832-4.578.501-6 3.5-.781 1.647 1.115 7.096-1.5 9.5H634c-.605-3.169.836-9.38 0-12 13.383.397 26.663-.131 40-1"/></svg>