<svg xmlns="http://www.w3.org/2000/svg" width="1024" height="1024"><defs><linearGradient id="a" x1="321.605" x2="665.826" y1="265.308" y2="512.873" gradientUnits="userSpaceOnUse"><stop offset="0%" style="stop-color:#e2f0f7"/><stop offset="100%" style="stop-color:#608ea1"/></linearGradient></defs><defs><linearGradient id="b" x1="359.64" x2="590.566" y1="338.577" y2="458.047" gradientUnits="userSpaceOnUse"><stop offset="0%" style="stop-color:#77eefe"/><stop offset="21.923%" style="stop-color:#38cdec"/><stop offset="100%" style="stop-color:#0984b1"/></linearGradient></defs><defs><linearGradient id="c" x1="435.814" x2="560.827" y1="326.037" y2="425.896" gradientUnits="userSpaceOnUse"><stop offset="0%" style="stop-color:#3378a1"/><stop offset="100%" style="stop-color:#10295e"/></linearGradient></defs><defs><linearGradient id="d" x1="428.441" x2="513.467" y1="347.292" y2="438.919" gradientUnits="userSpaceOnUse"><stop offset="0%" style="stop-color:#283977"/><stop offset="100%" style="stop-color:#111c4a"/></linearGradient></defs><defs><linearGradient id="e" x1="413.063" x2="463.948" y1="346.781" y2="483.627" gradientUnits="userSpaceOnUse"><stop offset="0%" style="stop-color:#398db0"/><stop offset="100%" style="stop-color:#11275c"/></linearGradient></defs><defs><linearGradient id="f" x1="747.802" x2="746.98" y1="536.897" y2="588.891" gradientUnits="userSpaceOnUse"><stop offset="0%" style="stop-color:#0b6089"/><stop offset="100%" style="stop-color:#043156"/></linearGradient></defs><defs><linearGradient id="g" x1="700.348" x2="296.646" y1="568.591" y2="584.103" gradientUnits="userSpaceOnUse"><stop offset="0%" style="stop-color:#02486d"/><stop offset="89.604%" style="stop-color:#50c7da"/></linearGradient></defs><defs><linearGradient id="h" x1="283.404" x2="625.034" y1="671.682" y2="752.242" gradientUnits="userSpaceOnUse"><stop offset="0%" style="stop-color:#d1e6ee"/><stop offset="100%" style="stop-color:#57879c"/></linearGradient></defs><defs><linearGradient id="i" x1="388.756" x2="561.738" y1="721.757" y2="724.222" gradientUnits="userSpaceOnUse"><stop offset="0%" style="stop-color:#8fe6f8"/><stop offset="100%" style="stop-color:#2e9bb4"/></linearGradient></defs><defs><linearGradient id="j" x1="415.26" x2="306.287" y1="860.547" y2="862.973" gradientUnits="userSpaceOnUse"><stop offset="0%" style="stop-color:#1780a7"/><stop offset="100%" style="stop-color:#58ddf4"/></linearGradient></defs><defs><linearGradient id="k" x1="534.804" x2="656.408" y1="855.909" y2="865.735" gradientUnits="userSpaceOnUse"><stop offset="0%" style="stop-color:#12678b"/><stop offset="100%" style="stop-color:#1b8ead"/></linearGradient></defs><path fill="#083a4c" d="M322 118c-1.009 2.542-2.608-.556-4-1-8.932-2.849-19.686-.054-24 9-8.705 18.27 11.992 33.1 28 22-8.257 7.001-12.762 1.981-10 15l-1 1c-.297-.729-.587-1.956-1-3-1.05-2.656.294-4.293-3-7-2.777-2.282-1.183 2.233-4 0-30.031-12.239-5.894-54.76 19-36"/><path fill="#03dbf6" d="M318 117c-1.61 3.314-2.693 10.359-6 11-.783-6.871-12.503-11.121-16-1l-2-1c4.314-9.054 15.068-11.849 24-9"/><path fill="#02c9e8" d="M322 118c10.959 8.259 10.303 21.264 0 30-16.008 11.1-36.705-3.73-28-22l2 1c-5.826 16.863 17.439 13.627 16 1 3.307-.641 4.39-7.686 6-11 1.392.444 2.991 3.542 4 1m.5 9c.201 12.117-6.628 19.689-18 22 12.418 4.302 24.35-10.245 18-22"/><path fill="#3bfcff" d="M312 128c1.439 12.627-21.826 15.863-16-1 3.497-10.121 15.217-5.871 16 1"/><path fill="#046f85" d="M322.5 127c6.35 11.755-5.582 26.302-18 22 11.372-2.311 18.201-9.883 18-22"/><path fill="url(#a)" d="M501 149c-2.283 1.965 2.835 2.871 3.5 3 26.65 5.152 40.575 12.328 63.5 26-1.581 2.38-1.168 2.146.5 4 21.078 23.429 40.065 35.146 58.5 64 29.865 46.743 47.56 103.882 53 159 8.979 90.98 13.086 136.252-84 160-36.635 8.961-76.99 12.479-114.5 17l-1 2 14.5 2c-64.446 1.086-165.57-8.814-221.5-42-6.334-3.758-27.425-19.151-29.5-25.5-3.435-10.514-2.301-53.306-2-66.5.678-29.748 3.688-56.968 10-86 4.69.407 2.923.15 4-2.5 19.539-48.073 27.065-82.015 57-128 5.335-8.195 15.949-15.958 17-24.5 1.854-1.894 5.57-6.683 7-8 44.135-40.638 103.941-60.938 164-54m-31.5 15c-36.25 3.888-31.86 62.269 10 56 33.338-4.993 30.537-60.348-10-56m-122 55c-15.644 3.066-49.669 51.589-49.5 68.5.284 28.383 33.179-22.431 37-29 2.476-4.257 17.684-36.034 17-38-.774-2.224-2.828-1.828-4.5-1.5m49.5 31c-29.273 15.151-58.566 41.213-75 70-2.206-3.951-2.492-1.46-4 .5-10.648 13.843-12.751 24.268-17 40.5-16.2 61.886-6.024 110.488 42 154 1.637 2.064 30.003 25.542 33.5 28 27.805 19.544 73.944 29.316 107.5 27 41.79-2.884 84.312-22.914 114-52 22.599-22.141 33.276-42.793 42-73 7.247-25.094 12.38-57.358 8-83.5-.489-2.915-19.378-52.451-21-55-2.989-4.696-10.269-14.073-16-10.5-49.326-65.403-141.908-83.314-214-46" style="fill:url(#a)"/>/&gt;<path fill="#29657e" d="M671 280c2.141 7.522 2.941 12.316 0 20-6.982-17.065-25-44.589-36-60-20.74-29.056-36.289-43.685-67-62-22.925-13.672-36.85-20.848-63.5-26-.665-.129-5.783-1.035-3.5-3 65.036 7.513 151.492 65.973 170 131"/><path fill="#1f6a86" d="M307 154c-4.37 6.938-4.351 13.628-6 21-2.271 10.152-4.521 19.485-5 30-.398 8.726 1.536 17.434 0 26-3.87-27.585.166-50.371 7-77 2.817 2.233 1.223-2.282 4 0"/><path fill="#40abc1" d="M310 161c-.553 8.731 3.915 20.023 8 27.5 1.677 3.068 8.174 15.106 12 11.5.455.766 4.324 2.398 4 4.5-12.434 10.851-23.341 24.081-33 37.5-.065.091-1.936.909-2 1-2.408-3.295-2.454-8.112-3-12 1.536-8.566-.398-17.274 0-26l5-6c.295 8.621 1.497 18.427 8.5 24 12.051 1.072-.19-47.296-3-53-1.006-.024-3.164 5.808-3.5 7l-2-2c1.649-7.372 1.63-14.062 6-21 3.294 2.707 1.95 4.344 3 7"/><path fill="#adeff8" d="M311 164c6.056 14.865 10.991 22.51 19 36-3.826 3.606-10.323-8.432-12-11.5-4.085-7.477-8.553-18.769-8-27.5.413 1.044.703 2.271 1 3"/><path fill="#1d697e" d="M337 203c-1.43 1.317-5.146 6.106-7 8-8.991 9.187-20.816 21.552-28 32l-1-1c9.659-13.419 20.566-26.649 33-37.5.324-2.102-3.545-3.734-4-4.5-8.009-13.49-12.944-21.135-19-36l1-1c2.497 11.767 16.604 31.083 25 40"/><path fill="#062b3f" d="M469.5 164c40.537-4.348 43.338 51.007 10 56-41.86 6.269-46.25-52.112-10-56m-1.5 3c-8.89 1.688-17.835 9.02-20 18-6.369 26.418 24.783 43.47 44.5 26 20.41-18.084 1.766-48.988-24.5-44"/><path fill="#02ceed" d="M448 185c1.791 2.159 2.286 11.066 7 9 2.919 4.423 6.808 3.704 11 3 16.471-2.765 18.422-25.452 2-30 26.266-4.988 44.91 25.916 24.5 44-19.717 17.47-50.869.418-44.5-26m45.5-2c-.259 14.359-8.284 21.409-19 29 14.984 1.389 25.463-15.982 19-29"/><path fill="#0ef1fe" d="M468 167c16.422 4.548 14.471 27.235-2 30 19.774-11.059-1.824-36.443-11-17.5-2.053 4.238-2.669 10.456 0 14.5-4.714 2.066-5.209-6.841-7-9 2.165-8.98 11.11-16.312 20-18"/><path fill="#e2fcff" d="M301 199c-.192-5.6.524-16.761 2-22 .336-1.192 2.494-7.024 3.5-7 2.81 5.704 15.051 54.072 3 53-7.003-5.573-8.205-15.379-8.5-24"/><path fill="#458091" d="M853 188v2c-11.218-6.156-25.308-11.754-38-14-14.103-2.495-24.823-2.265-39 0l-1-3c28.499-3.729 53.221 1.274 78 15"/><path fill="#85fcfe" d="M466 197c-4.192.704-8.081 1.423-11-3-2.669-4.044-2.053-10.262 0-14.5 9.176-18.943 30.774 6.441 11 17.5"/><path fill="#6aa9b8" d="m775 173 1 3c-39.026 6.234-76.093 34.11-91 71h-4c16.509-37.96 52.203-68.531 94-74"/><path fill="#b6d7e2" d="m815 176-2 9.5c.673 1.033 12.733.902 13 5.5-35.133-11.362-45.309-2.336-77 4-.583.116-4.739.127-6 .5l6-5c1.076-7.33-12.72 2.632-15.5 4.5-35.891 24.114-60.972 77.162-45 119l3.5-5c2.59 13.225 12.562 34.356 21 45l-8 9c-2.798-3.374-4.448-5.253-7-9-2.356-11.111-7.981-24.766-16-33-7.343-26.121-7.296-48.522 3-74 14.907-36.89 51.974-64.766 91-71 14.177-2.265 24.897-2.495 39 0"/><path fill="#83e4ec" d="M303 177c-1.476 5.239-2.192 16.4-2 22l-5 6c.479-10.515 2.729-19.848 5-30z"/><path fill="#8cbcca" d="M853 190c83.327 45.73 70.142 177.325-20 208-47.805 16.268-95.959 3.632-128-35l8-9c3.917 4.941 10.887 13.528 17 13 17.83 14.71 42.034 23.02 65 23 1.794 6.342 21.615 1.493 27.5 0 98.023-24.866 103.874-166.538 3.5-199-.267-4.598-12.327-4.467-13-5.5l2-9.5c12.692 2.246 26.782 7.844 38 14"/><path fill="#77a2b3" d="m635 240-8 6c-18.435-28.854-37.422-40.571-58.5-64-1.668-1.854-2.081-1.62-.5-4 30.711 18.315 46.26 32.944 67 62"/><path fill="#0385a2" d="M493.5 183c6.463 13.018-4.016 30.389-19 29 10.716-7.591 18.741-14.641 19-29"/><path fill="#315669" d="M826 191c100.374 32.462 94.523 174.134-3.5 199-5.885 1.493-25.706 6.342-27.5 0 96.076-.082 139.09-124.486 60.5-181-39.979-28.749-116.823-24.592-142.5 21h-4c10.799-15.689 22.784-26.411 40-35 31.691-6.336 41.867-15.362 77-4"/><path fill="#f4fafb" d="M749 195c-17.216 8.589-29.201 19.311-40 35-16.769 24.361-22.817 49.301-17 79l-3.5 5c-15.972-41.838 9.109-94.886 45-119 2.78-1.868 16.576-11.83 15.5-4.5l-6 5c1.261-.373 5.417-.384 6-.5"/><path fill="#204a61" d="m834 405-1-7c90.142-30.675 103.327-162.27 20-208v-2c90.912 50.36 78.778 183.093-19 217"/><path fill="url(#grad27)" d="M795 390c-22.966.02-47.17-8.29-65-23-9.021-7.442-18.604-19.656-24-30-6.177-18.778-10.976-38.506-9-58.5 1.104-11.165 10.61-37.806 16-47.5.141-.254-.143-.747 0-1 25.677-45.592 102.521-49.749 142.5-21 78.59 56.514 35.576 180.918-60.5 181m-49-175c-34.055 17.42-50.629 65.587-31 99.5-4.139-25.942-1.839-56.352 18-75.5-5.761 7.878-9.884 16.696-14 25.5.362 3.045 40.247 22.591 46 26.5-2.189 1.532 2.815 2.276 3 3.5.401 2.652-29.078 37.131-32 43l26.5 17.5 36-44 58 36c4.206-3.2 18.907-25.929 17.5-29.5l-57-29c9.255-13.912 20.472-26.031 29-40.5 1.345-2.283 2.739-4.669 4-7 .093-.172 2.929-1.742 3-2.5.32-3.41-19.076-14.266-22.5-13.5-5.178 1.158-34.57 39.355-41 45-8.794-5.622-17.547-11.674-26.5-17l26.5 15c6.26-6.615 36.827-45.336 43-45 .74.04 12.86 8.234 12.5 4.5-17.274-20.53-55.605-32.151-81.5-25.5-2.24.575-2.921 3.566-4 4-4.372 1.756-13.39 1.452-13.5 9" style="fill:#a00"/>/&gt;<path fill="url(#grad28)" d="M763 253c-9.027-5.369-18.465-10.547-28-15 15.023-19.128 31.252-28.749 56-31.5-14.639-2.914-31.905 1.801-45 8.5.11-7.548 9.128-7.244 13.5-9 1.079-.434 1.76-3.425 4-4 25.895-6.651 64.226 4.97 81.5 25.5.36 3.734-11.76-4.46-12.5-4.5-6.173-.336-36.74 38.385-43 45z" style="fill:maroon"/>/&gt;<path fill="#f2ecdb" d="M735 238c-.069.088-1.934.91-2 1-19.839 19.148-22.139 49.558-18 75.5-19.629-33.913-3.055-82.08 31-99.5 13.095-6.699 30.361-11.414 45-8.5-24.748 2.751-40.977 12.372-56 31.5"/><path fill="#ddeff8" d="M252 366c8.742-40.211 26.608-88.982 50-123 7.184-10.448 19.009-22.813 28-32-1.051 8.542-11.665 16.305-17 24.5-29.935 45.985-37.461 79.927-57 128-1.077 2.65.69 2.907-4 2.5"/><path fill="#fcfdfe" d="M347.5 219c1.672-.328 3.726-.724 4.5 1.5.684 1.966-14.524 33.743-17 38-3.821 6.569-36.716 57.383-37 29-.169-16.911 33.856-65.434 49.5-68.5"/><path fill="#ebfbfb" d="M850 241c-2.17-1.623-5.829 3.171-7 4.5-30.15 34.228-52.169 76.276-95 98.5-1.542-1.037-9.99-5.241-10-6.5l32-43c.034-2.172-4.141-2.917-5-3.5-5.753-3.909-45.638-23.455-46-26.5 4.116-8.804 8.239-17.622 14-25.5.066-.09 1.931-.912 2-1 9.535 4.453 18.973 9.631 28 15 8.953 5.326 17.706 11.378 26.5 17 6.43-5.645 35.822-43.842 41-45 3.424-.766 22.82 10.09 22.5 13.5-.071.758-2.907 2.328-3 2.5"/><path fill="#144b60" d="M611 296c15.042 19.944 24.466 44.484 29 69l-3 2c-3.054-12.124-7.447-22.865-13-34-21.262-42.637-61.461-74.64-107-88-40.924-13.801-85.429-3.561-123 15 3.922-3.922 6.152-5.097 3-10 72.092-37.314 164.674-19.403 214 46"/><path fill="#70b5cb" d="M713 230c-.143.253.141.746 0 1-24.652 29.814-24.353 72.737-7 106 5.396 10.344 14.979 22.558 24 30-6.113.528-13.083-8.059-17-13-8.438-10.644-18.41-31.775-21-45-5.817-29.699.231-54.639 17-79z"/><path fill="#5c4526" d="M706 337c-17.353-33.263-17.652-76.186 7-106-5.39 9.694-14.896 36.335-16 47.5-1.976 19.994 2.823 39.722 9 58.5"/><path fill="#9af7fe" d="M517 245c-8.798 1.247-27.656-6.771-35.5-4-6.535 2.309 4.249 3.146 4.5 3.5 3.331 4.706-7.438 8.585 9.5 11.5 2.597.447 4.92-4.857 2.5 2-14.086-2.016-25.697-2.42-40-1-16.16 1.604-29.29 5.67-44 12-28.479 12.256-52.256 32.438-69 58.5-2.204 3.43-9.018 20.377-10 21-2.005 1.272-4.106-4.168-7.5 7.5l-11.5-9c.598-1.59.73-3.341 1-4 9.71-23.68 30.819-48.807 50.5-65 7.465-6.142 20.474-11.973 26.5-18 37.571-18.561 82.076-28.801 123-15"/><path fill="#538296" d="M635 240c11 15.411 29.018 42.935 36 60 2.238 5.47 3.101 9.799 5 15 4.567 12.503 12.506 31.087 16 42.5 1.713 5.597 5.508 38.623 7 40 1.396 1.288 3.636-1.212 5-1.5-.853 7.274-1.732 2.377-4.5 4-1.076.631 1.125 1.83.5 2-1.343.365-3.032-1.614-5.5-1-4.814 1.197-9.413 3.728-14.5 4-5.44-55.118-23.135-112.257-53-159z"/><path fill="#9ddae4" d="M850 241c-1.261 2.331-2.655 4.717-4 7-11.251 12.562-20.402 26.934-31 40-5.604 6.909-11.327 14.206-17 21-11.848 14.19-26.467 26.394-35.5 43-2.167.648-12.118-6.398-14.5-8 42.831-22.224 64.85-64.272 95-98.5 1.171-1.329 4.83-6.123 7-4.5"/><path fill="#45c5e1" d="M517 245c45.539 13.36 85.738 45.363 107 88l-16 5c-.137-.318-.636-1.203-1-2-4.838-10.585-7.838-14.475-15-23-24.468-29.124-55.8-49.531-94-55 2.42-6.857.097-1.553-2.5-2-16.938-2.915-6.169-6.794-9.5-11.5-.251-.354-11.035-1.191-4.5-3.5 7.844-2.771 26.702 5.247 35.5 4"/><path fill="#277e94" d="M302 243c-23.392 34.018-41.258 82.789-50 123-6.312 29.032-9.322 56.252-10 86-5.555 2.27-.675-2.676-5-3 4.757-70.725 20.402-147.078 62-206 .064-.091 1.935-.909 2-1z"/><path fill="#4a8fa0" d="M685 247c-10.296 25.478-10.343 47.879-3 74 .958 3.409 1.699 6.682 3 10l-9-16c-1.899-5.201-2.762-9.53-5-15 2.941-7.684 2.141-12.478 0-20l10-33z"/><path fill="#381d0d" d="M765 291c.859.583 5.034 1.328 5 3.5l-32 43c.01 1.259 8.458 5.463 10 6.5 2.382 1.602 12.333 8.648 14.5 8 9.033-16.606 23.652-28.81 35.5-43-.164 1.142.744.848 1 1 17.825 10.613 36.976 19.25 53.5 32l19.5-23.5c-.758-3.049-48.394-22.775-56-28.5-.089-.067-.889-1.558-1-2 10.598-13.066 19.749-27.438 31-40-8.528 14.469-19.745 26.588-29 40.5l57 29c1.407 3.571-13.294 26.3-17.5 29.5l-58-36-36 44-26.5-17.5c2.922-5.869 32.401-40.348 32-43-.185-1.224-5.189-1.968-3-3.5m105.5 31c-3.169 3.351-15.09 16.583-16 20-3.043 11.421 18.517-16.815 16-20"/><path fill="#1999ae" d="M397 250c3.152 4.903.922 6.078-3 10-6.026 6.027-19.035 11.858-26.5 18-19.681 16.193-40.79 41.32-50.5 65h-5c3.13-7.015 6.348-16.603 10-23 16.434-28.787 45.727-54.849 75-70"/><path fill="#05324b" d="M498 258c38.2 5.469 69.532 25.876 94 55l15 23c.364.797.863 1.682 1 2 19.25 44.548 19.697 94.329-7 136-17.622 27.505-51.01 50.508-82 60l1-5c161.915-49.754 105.821-290.8-62-269v-3c14.303-1.42 25.914-1.016 40 1"/><path fill="#107c90" d="M458 257v3c-15.093 1.961-32.192 8.607-46 15 2.045-1.586 5.571-4.593 2-6 14.71-6.33 27.84-10.396 44-12"/><path fill="url(#b)" d="M520 529c-112.405 34.54-223.664-66.464-180-181 16.344-22.678 21.294-38.11 45.5-57 7.955-6.208 19.721-10.744 26.5-16 13.808-6.393 30.907-13.039 46-15 167.821-21.8 223.915 219.246 62 269M408 298c-19.106 5.459-38.365 14.664-36 39-20.413 24.471-19.336 63.13-7 91 37.735 85.249 189.858 83.245 213-14 20.175-84.78-72.568-144.063-147-113-.97-.307-2.77.194-4 0l6-5.5c-.703-4.078-15.156-2.156-18.5-1.5-3.113.61-6.133 3.895-6.5 4" style="fill:url(#b)"/>/&gt;<path fill="#40c6e1" d="M414 269c3.571 1.407.045 4.414-2 6-6.779 5.256-18.545 9.792-26.5 16-24.206 18.89-29.156 34.322-45.5 57-1.201 1.667-2.13 3.463-3.5 5l-1-2c-5.565 7.334-9.32 23.546-10.5 33.5-6.712 56.607 21.986 109.771 71 137.5l-4 .5c35.179 25.845 78.671 32.376 121 21.5l1 11c-86.133 20.481-190.021-33.788-206-124.5-2.248-12.765-.743-24.502-2-36.5.443-16.173 4.351-31.979 10-47l11.5 9c3.394-11.668 5.495-6.228 7.5-7.5.982-.623 7.796-17.57 10-21 16.744-26.062 40.521-46.244 69-58.5"/><path fill="#38636b" d="M816 290c-2.045-.542-2.094.95-3 2-2.481 2.875-4.608 6.067-7 9-2.379 2.917-5.582 5.342-7 9-.256-.152-1.164.142-1-1 5.673-6.794 11.396-14.091 17-21 .111.442.911 1.933 1 2"/><path fill="#8bc0c9" d="M816 290c7.606 5.725 55.242 25.451 56 28.5L852.5 342c-16.524-12.75-35.675-21.387-53.5-32 1.418-3.658 4.621-6.083 7-9 5.791 3.849 50.03 28.292 53 26.5.433-.262 4.164-8.445 3.5-9.5L813 292c.906-1.05.955-2.542 3-2"/><path fill="#daf7f8" d="M806 301c2.392-2.933 4.519-6.125 7-9l49.5 26c.664 1.055-3.067 9.238-3.5 9.5-2.97 1.792-47.209-22.651-53-26.5"/><path fill="#7edcf2" d="M427 301c-8.532-1.345-15.435 2.885-19-3 .367-.105 3.387-3.39 6.5-4 3.344-.656 17.797-2.578 18.5 1.5z"/><path fill="url(#c)" d="M578 414c-5.989 5.421-6.329 15.149-10 21.5-7.956 13.764-25.303 28.651-39.5 35.5.241-1.306.972-2.51 1.5-4 2.69-7.584 8.599-19.467-5-23v-1c4.098-1.404 11.426-9.855 14-13.5 26.967-38.188 7.388-89.505-35.5-104.5-19.544-6.833-37.504-5.444-57.5-2-.23-9.234-5.752-19.07-15-22 74.432-31.063 167.175 28.22 147 113" style="fill:url(#c)"/>/&gt;<path fill="#6e99ab" d="m640 445-3-2c7.756-28.453 8.373-48.95 3-78-4.534-24.516-13.958-49.056-29-69 5.731-3.573 13.011 5.804 16 10.5 1.622 2.549 20.511 52.085 21 55 4.38 26.142-.753 58.406-8 83.5"/><path fill="#f8fdfe" d="M408 298c3.565 5.885 10.468 1.655 19 3 1.23.194 3.03-.307 4 0 9.248 2.93 14.77 12.766 15 22 .259 10.396-3.381 16.437-10 24-4.812 5.499-10.064 9.546-17 12-8.827 3.123-16.57 4.081-26 2-11.288-2.491-19.884-12.518-21-24-2.365-24.336 16.894-33.541 36-39"/><path fill="#127da4" d="m607 336-15-23c7.162 8.525 10.162 12.415 15 23"/><path fill="#29627a" d="M685 331c3.571 9.109 7.598 15.066 13 23 2.552 3.747 4.202 5.626 7 9 32.041 38.632 80.195 51.268 128 35l1 7c-5.679 1.969-14.056 3.549-18 7l-1.5-2c-12.068-1.249-24.571 1.929-36.5 1-27.025-2.105-58.055-18.438-74.5-40-.898 7.684.692 16.268 1.5 24-.868-.106-.912.249-1 1-1.364.288-3.604 2.788-5 1.5-1.492-1.377-5.287-34.403-7-40-3.494-11.413-11.433-29.997-16-42.5z"/><path fill="#b3dbe5" d="M322 320c-3.652 6.397-6.87 15.985-10 23-.628 1.407-1.443 2.736-2 4-2.496 5.659-5.51 11.127-6 17.5l-3-3.5c4.249-16.232 6.352-26.657 17-40.5 1.508-1.96 1.794-4.451 4-.5"/><path fill="url(#d)" d="M525 443c-.917.314-2.91-.765-3 1-8.533-.696-19.252 3.511-23 12-58.975 22.882-135.473-29.45-106-95 9.43 2.081 17.173 1.123 26-2-12.66 24.407 14.573 38.181 34.5 26 22.86-13.975 8.883-46.576-17.5-38 6.619-7.563 10.259-13.604 10-24 19.996-3.444 37.956-4.833 57.5 2 42.888 14.995 62.467 66.312 35.5 104.5-2.574 3.645-9.902 12.096-14 13.5" style="fill:url(#d)"/>/&gt;<path fill="#dff1f6" d="M698 354c-5.402-7.934-9.429-13.891-13-23-1.301-3.318-2.042-6.591-3-10 8.019 8.234 13.644 21.889 16 33"/><path fill="#55472e" d="M870.5 322c2.517 3.185-19.043 31.421-16 20 .91-3.417 12.831-16.649 16-20"/><path fill="#127da4" d="M624 333c5.553 11.135 9.946 21.876 13 34 9.495 37.697 3.649 70.299-13 105-5.597 5.481-11.839 18.356-18 25.5-22.762 26.394-57.954 49.405-92 57.5l-1-11c32.126-8.255 61.045-28.917 81-55 3.09-4.038 10.241-8.751 7-15 26.697-41.671 26.25-91.452 7-136z"/><path fill="url(#e)" d="M372 337c1.116 11.482 9.712 21.509 21 24-29.473 65.55 47.025 117.882 106 95-5.552 12.575 4.703 20.509 17 19 4.329 1.671-4.538 4.651-5.5 5-55.681 20.205-110.796-1.157-141.5-49.5-1.048-1.65-1.538-4.341-4-2.5-12.336-27.87-13.413-66.529 7-91" style="fill:url(#e)"/>/&gt;<path fill="#117a90" d="M317 343c-.27.659-.402 2.41-1 4-5.649 15.021-9.557 30.827-10 47-.011-.103-1.875.342-2-.5-.173-1.161 3.316-9.096-3-9.5 1.737-12.678 6.014-24.651 9-37 .557-1.264 1.372-2.593 2-4z"/><path fill="#cdf9fd" d="M419 359c6.936-2.454 12.188-6.501 17-12 26.383-8.576 40.36 24.025 17.5 38-19.927 12.181-47.16-1.593-34.5-26"/><path fill="#8ebdcd" d="M301 384c-6.892 50.3 6.856 86.724 42 122l-6-1.5c2.385 1.958 4.917 9.134 6 10.5-48.024-43.512-58.2-92.114-42-154l3 3.5c.49-6.373 3.504-11.841 6-17.5-2.986 12.349-7.263 24.322-9 37"/><path fill="#136e86" d="m520 529-1 5c-11.833 3.624-24.595 6.257-37 7-5.675-1.048-21.342-2.404-26 0-.126.065-1.937 1.536-2 2-7.226-.978-13.529-4.131-20-6-1.247-3.862-5.058-2.831-5.5-3-9.136-3.496-17.606-7.591-26.5-11.5-.148-.065-3.168-.439-3 .5-.389-.208-1.854-.352-3-1-49.014-27.729-77.712-80.893-71-137.5 1.18-9.954 4.935-26.166 10.5-33.5l1 2c1.37-1.537 2.299-3.333 3.5-5-43.664 114.536 67.595 215.54 180 181"/><path fill="#082d44" d="M637 443c-2.725 9.996-6.428 18.751-11 28-.456.108-1.862.865-2 1 16.649-34.701 22.495-67.303 13-105l3-2c5.373 29.05 4.756 49.547-3 78"/><path fill="#10596f" d="M306 394c1.257 11.998-.248 23.735 2 36.5 15.979 90.712 119.867 144.981 206 124.5 34.046-8.095 69.238-31.106 92-57.5 6.161-7.144 12.403-20.019 18-25.5.138-.135 1.544-.892 2-1-10.407 21.055-28.114 42.049-47 56-28.026 20.703-61.139 34.028-96 36-58.417 3.304-99.717-16.565-140-57-35.144-35.276-48.892-71.7-42-122 6.316.404 2.827 8.339 3 9.5.125.842 1.989.397 2 .5"/><path fill="#204b62" d="M709 435c-1.676 8.634-1.278 17.74-2 26.5-.068.829-1.993.397-2 .5l-5-60c.625-.17-1.576-1.369-.5-2 2.768-1.623 3.647 3.274 4.5-4 .088-.751.132-1.106 1-1 1.397 13.368 2.829 26.577 4 40"/><path fill="#39657c" d="m700 402 5 60c-1.231 17.071 3.415 52.016-5 65.5-14.079 22.559-76.511 42.083-102 47.5l-2-10c97.086-23.748 92.979-69.02 84-160 5.087-.272 9.686-2.803 14.5-4 2.468-.614 4.157 1.365 5.5 1"/><path fill="#10060e" d="m816 412 2 46.5c21.097.353 44.062 12.602 47 35.5l-2 2c-1.484-10.426-5.661-16.285-13-23-8.441-7.724-19.844-14.304-32-9.5-1.127 2.435 9.22 10.958 11 16 2.223 6.295 1.945 11.151 1 17.5-1.894 12.723-5.945 14.675-15 22-1.189.962-5.752 2.236-6 3.5 3.893 8.566 14.296 15.422 24 15.5-.162.771-1.788 4.834-2 5-.362.283-6.624 2.942-7 3-3.221.501-5.25-.608-8-1-18.437-2.626-19.727-10.723-29-23l3-5c38.221 16.922 53.679-47.601 15-52-3.113-.354-10.022.103-13 1h-1c.577-.673 3.577-2.836 4-3 6.39-2.485 10.162-1.329 16 .5v-49c-2.183-3.257-5.141-.747-7-.5-4.496 1.875-21.857-3.519-23 0l4 56c-.797.616-4.301 4.93-5 6l-1-1c5.023-7.242-1.487-52.289-1-64 11.929.929 24.432-2.249 36.5-1z"/><path fill="#896f63" d="M804 414c-8.164 1.086-14.368 2.511-23 0 1.143-3.519 18.504 1.875 23 0"/><path fill="#482019" d="M795 463c-.561-4.045-1.292-45.144-5.5-45-.247.008-3.432 3.262-3.5 3.5-.738 2.564-.037 43.001 1 45l4-.5h1c-.386.116-6.464 3.585-7 4l-4-56c8.632 2.511 14.836 1.086 23 0 1.859-.247 4.817-2.757 7 .5v49c-5.838-1.829-9.61-2.985-16-.5"/><path fill="#060a21" d="M578 414c-23.142 97.245-175.265 99.249-213 14 2.462-1.841 2.952.85 4 2.5 30.704 48.343 85.819 69.705 141.5 49.5.962-.349 9.829-3.329 5.5-5 4.589-.563 10.289-5.355 14-8-.528 1.49-1.259 2.694-1.5 4 14.197-6.849 31.544-21.736 39.5-35.5 3.671-6.351 4.011-16.079 10-21.5"/><path fill="#725857" d="M795 463c-.423.164-3.423 2.327-4 3l-4 .5c-1.037-1.999-1.738-42.436-1-45 .068-.238 3.253-3.492 3.5-3.5 4.208-.144 4.939 40.955 5.5 45"/><path fill="#072137" d="m722 468 12 2c-3.436-.275-17.518-.669-20 0-6.572 1.771-3.035 6.15-3 7 .823 19.855 5.09 40.168 5 59-6.008-.719-5.174.72-5 6-.108-3.601-1.57-8.204-1.5-12-13.813 16.271-39.609 26.891-59.5 34-13.404 4.791-28.128 8.739-42 12l-41 4c10.239-1.415 20.902-2.854 31-5 25.489-5.417 87.921-24.941 102-47.5 8.415-13.484 3.769-48.429 5-65.5.007-.103 1.932.329 2-.5.722-8.76.324-17.866 2-26.5.942 10.798 1.815 21.636 2 32.5.723 1.018 9.072.401 11 .5"/><path fill="#15214e" d="M525 443v1c-.79-.205-2.028.079-3 0 .09-1.765 2.083-.686 3-1"/><path fill="#4d798e" d="M640 445c-8.724 30.207-19.401 50.859-42 73-.187-3.697-1.453-1.795-3-.5-9.296 7.781-16.199 12.884-26.5 20.5l10.5-11c18.886-13.951 36.593-34.945 47-56 4.572-9.249 8.275-18.004 11-28z"/><path fill="#f6fcfd" d="M522 444c.972.079 2.21-.205 3 0 13.599 3.533 7.69 15.416 5 23-3.711 2.645-9.411 7.437-14 8-12.297 1.509-22.552-6.425-17-19 3.748-8.489 14.467-12.696 23-12"/><path fill="#195267" d="M242 452c-.301 13.194-1.435 55.986 2 66.5 2.075 6.349 23.166 21.742 29.5 25.5 55.93 33.186 157.054 43.086 221.5 42 23.558-.397 48.664-2.774 72-6l41-4c-11.539 2.713-24.285 5.122-36 7-29.425 4.716-60.149 7.856-90 8-56.728.273-129.473-9.181-183-28-1.933-.685-6.479-5.857-11-4-11.599-4.752-47.345-23.663-51-37 .973-6.85-.591-14.166-1-21-.358-5.974-.547-13.699 1-19.5-3.074-.324-6.512 3.316-9 4.5-7.811 3.718-16.819 7.142-24 12v-1c10.861-6.96 22.161-12.569 33-19.5.466-9.44-.633-19.095 0-28.5 4.325.324-.555 5.27 5 3"/><path fill="#366e99" d="M850 473c-.473 5.262-16.909-1.889-19 2.5 2.121 5.014 8.029 22.898-1 21.5.945-6.349 1.223-11.205-1-17.5-1.78-5.042-12.127-13.565-11-16 12.156-4.804 23.559 1.776 32 9.5"/><path fill="#01f1fe" d="M805 465c.226 4.636 5.37 6.886 6 11.5 2.618 19.186-24.882 25.527-32.5 8.5l-3.5 11c-.748-7.567.857-13.662 5-20 .699-1.07 4.203-5.384 5-6 .536-.415 6.614-3.884 7-4 2.978-.897 9.887-1.354 13-1"/><path fill="#0596b7" d="M790 517c-8.024-3.553-14.125-12.148-15-21l3.5-11c7.618 17.027 35.118 10.686 32.5-8.5-.63-4.614-5.774-6.864-6-11.5 38.679 4.399 23.221 68.922-15 52"/><path fill="#041021" d="m779 475 1 1c-4.143 6.338-5.748 12.433-5 20 .875 8.852 6.976 17.447 15 21l-3 5c-.393-.52-.876-1.494-2-3-3.068-4.111-7.193-7.194-9.5-12-2.792 5.63-3.736 11.762-3.5 18l-2 2c-.268-3.197 1.019-7.877-1-10.5-4.747 8.38-10.277 16.853-12 26.5-2.48 13.884-.444 23.7 2 37 .374 2.033.886 7.545 1 8-6.505-12.749-4.581-26.723-6-40 1.997-8.609 3.453-19.301 8-27 2.301-3.896 8.465-7.747 9-8.5 6.872-9.669-1.295-21.344 4-33-8.093.118-14.996 6.429-21 11.5-.589.498-.837.854-1 1-11.901 10.694-21.062 24.93-24 41-2.747 15.029-.823 30.071 2 45-4.275-10.883-7.559-27.56-6-40 1.271-10.143 13.086-33.891 20-42 1.079-1.266 4.653-4.773 6-6 4.702-4.284 10.173-6.539 15-10.5-10.224-4.788-20.669-8.594-32-9.5l-12-2c7.324.376 14.051-.341 21.5 1 8.988 1.618 29.529 14.609 35.5 6"/><path fill="#1697bf" d="M751 490c-1.347 1.227-4.921 4.734-6 6-4.349-.103 2.076-3.884 2-4.5-.309-2.5-31.094-15.462-36-14.5-.035-.85-3.572-5.229 3-7 5.095 4.139 17.097 3.434 22.5 6 2.883 1.369 13.157 10.205 14.5 14"/><path fill="#1f78a0" d="M734 470c11.331.906 21.776 4.712 32 9.5-4.827 3.961-10.298 6.216-15 10.5-1.343-3.795-11.617-12.631-14.5-14-5.403-2.566-17.405-1.861-22.5-6 2.482-.669 16.564-.275 20 0"/><path fill="#1d80ab" d="M863 496c1.377 9.674.333 14.944-5 23-2.118-.007-3.445 1.865-5 3 2.001-4.574 7.426-11.595 8-16.5.784-6.699-2.884-24.647-12-23 .422 5.722-3.249 20.497-6 25.5-5.375 9.772-13.991 12.306-24.5 13l2.5 4c-.657-.342-5.809.717-6-6 9.055-7.325 13.106-9.277 15-22 9.029 1.398 3.121-16.486 1-21.5 2.091-4.389 18.527 2.762 19-2.5 7.339 6.715 11.516 12.574 13 23"/><path fill="#107c97" d="M594 489c-36.692 37.256-86.438 61.246-140 54 .063-.464 1.874-1.935 2-2 8.611-.378 17.406.515 26 0 12.405-.743 25.167-3.376 37-7 30.99-9.492 64.378-32.495 82-60 3.241 6.249-3.91 10.962-7 15"/><path fill="#096189" d="M745 496c-6.914 8.109-18.729 31.857-20 42l-9-1c.005-.333-.002-.667 0-1 .09-18.832-4.177-39.145-5-59 4.906-.962 35.691 12 36 14.5.076.616-6.349 4.397-2 4.5"/><path fill="#2276a1" d="M762 521c-2.732.298-1.994-4.5-3-8 .79-7.62-.548-15.555-5-22 6.004-5.071 12.907-11.382 21-11.5-5.295 11.656 2.872 23.331-4 33-.535.753-6.699 4.604-9 8.5"/><path fill="#3aabc6" d="m236 501-16 17c-5.876-5.545-11.332-9.441-19-13.5l27-18.5c2.488-1.184 5.926-4.824 9-4.5-1.547 5.801-1.358 13.526-1 19.5"/><path fill="#05d1f5" d="M853 522c-2.277 1.662-4.868 4.659-8 4.5.452-5.663 5.81-17.004-2-18.5 2.751-5.003 6.422-19.778 6-25.5 9.116-1.647 12.784 16.301 12 23-.574 4.905-5.999 11.926-8 16.5"/><path fill="#99eaf3" d="m228 486-27 18.5c7.668 4.059 13.124 7.955 19 13.5l-25-13.5c3.061-2.039 5.975-4.453 9-6.5 7.181-4.858 16.189-8.282 24-12"/><path fill="#beeef9" d="M594 489c-19.955 26.083-48.874 46.745-81 55-42.329 10.876-85.821 4.345-121-21.5l4-.5c1.146.648 2.611.792 3 1 13.039 6.991 20.858 9.916 35 14 6.471 1.869 12.774 5.022 20 6 53.562 7.246 103.308-16.744 140-54"/><path fill="#5fb1cf" d="M759 513c-2.003-6.971-4.686-13.834-6-21 .163-.146.411-.502 1-1 4.452 6.445 5.79 14.38 5 22"/><path fill="#178cb7" d="M759 513c1.006 3.5.268 8.298 3 8-4.547 7.699-6.003 18.391-8 27-.544-5.086-.618-10.269-1-13.5-1.067-9.016-2.218-18.368-6.5-26.5-5.94-1.869-10.549 27.394-17.5 25 2.938-16.07 12.099-30.306 24-41 1.314 7.166 3.997 14.029 6 21"/><path fill="#0a1c31" d="m867 546-2 1.5c-.388-3.25-.077-11.152-5-10.5-.36-.575-.841-1.319-1-2l3-.5c-1.272-.854-2.852-6.269-3.5-6.5-1.065-.38-3.162 2.194-4.5 3v-1c2.224-2.116 5.522-6.347 3-9 .251-.31.729-1.591 1-2 5.333-8.056 6.377-13.326 5-23l2-2c1.867 14.553-5.996 23.351-6 29.5-.002 2.433 7.453 15.438 8 22.5"/><path fill="#071c31" d="M204 497v1c-3.025 2.047-5.939 4.461-9 6.5l25 13.5c2.618 2.47 4.8 5.103 8 7-.102.682.101 2.33 0 4-3.106-3.068-6.502-5.422-10-8-5.73-4.223-11.704-8.602-18.5-11-3.221-1.137-9.48-4.264-10.5 0-.27-.045-.734-.054-1 0-4.46.899-22.582 22.216-26 27-6.416 8.981-11.625 18.356-16 28.5 4.912 1.749 10.133 2.647 15 4.5 10.952 4.169 22.866 9.392 32 17 3.472 2.892 12.162 12.316 15 16 4.937 6.408 8.597 14.668 13 21.5-4.866-4.629-8.761-11.007-13-16.5-4.173-5.409-8.759-13.665-15-17-8.605-9.049-20.214-15.132-32-19-5.081-1.667-9.903-4.209-15.5-4-1.202 3.806-8.818 21.075-5 23 5.316.066 10.541 1.235 15.5 3 7.759 2.762 15.376 6.092 22 11 7.513 5.566 13.609 13.449 19 21l6.5 15c-3.754-7.684-8.002-14.421-13.5-21-8.834-10.572-19.735-19.663-33-24-5.741-1.877-11.529-3.073-17.5-4-2.735.973-4.354 19.69-4.5 23.5 8.069-.404 15.795-3.805 24-3.5 9.253.344 19.409 4.49 26 11 6.615 6.534 10.85 18.072 15.5 26 10.222-9.296 17.741-21.383 27.5-31 2.318-2.284 9.377-9.492 12-10l-39 43.5c1.714 29.281-18.249 46.869-46.5 46.5 7.96-7.669 27.351-34.295 6-38-25.813-4.479-28.789 22.479-15.5 38-2.006.38-1.723-.81-3-2-3.01-2.804-4.139-4.34-6-8-6.976-25.538 19.511-41.636 37-21-4.526 10.221-4.097 22.007-16 29.5 9.09-2.767 15.68-7.556 21-15.5 19.897-29.709-12.32-63.404-43.5-43-10.814 7.076-18.183 21.333-15.5 34-5.437.371-1.935-14.583-1-17.5 2.822-8.807 10.83-12.998 15-20.5 7.452-3.889 10.025-3.255 17-5 38.856-2.453 49.556 48.275 16.5 66 55.059-11.36 32.079-87.517-19.5-80-4.388.639-17.521 4.736-21 7 1.976-1.741 6.791-4.14 7-4.5 1.071-1.84 4.707-34.315 7-42 10.954-36.709 32.829-58.525 64-78.5"/><path fill="#197492" d="M237 522c-.502-1.832 1.229-4.5-2-4-.143-1.905 1.141-6.604-1.5-7-1.833-.065-5.221 12.142-5.5 14-3.2-1.897-5.382-4.53-8-7l16-17c.409 6.834 1.973 14.15 1 21"/><path fill="#5d8c9f" d="M343 506c40.283 40.435 81.583 60.304 140 57l6 2.5-7.5.5 2.5 4c-33.556 2.316-79.695-7.456-107.5-27-3.497-2.458-31.863-25.936-33.5-28-1.083-1.366-3.615-8.542-6-10.5z"/><path fill="#42d8f5" d="M218 521c-2.727 5.501-5.239 11.088-7 17-4.986 16.744-4.683 28.154-2 45.5-7.049 2.123-8.293-4.307-16 3.5-9.134-7.608-21.048-12.831-32-17 5.181-13.057 10.458-26.075 18-38 2.307-3.648 8.63-7.118 10-9.5 1.139-1.982 4.309-11.776 0-12.5 1.02-4.264 7.279-1.137 10.5 0 6.796 2.398 12.77 6.777 18.5 11"/><path fill="#127ea8" d="M785 519c-13.436 8.804 6.493 30.516 18 34 10.271 3.109 16.16 4.304 21-7 .376-.058 6.638-2.717 7-3 7.576 1.224-2.115 17.044-6.5 20-25.374 17.107-51.534-12.51-52.5-38-.236-6.238.708-12.37 3.5-18 2.307 4.806 6.432 7.889 9.5 12"/><path fill="url(#f)" d="M754 548c1.419 13.277-.505 27.251 6 40 1.126 4.473 3.395 11.363 7 14.5l-11 .5c-9.523-1.578-20.789-3.752-29-9 2.862.589 5.457 2.187 8.5 2l1.5-2.5c-2.546-.929-3.12-3.306-4-5.5 1.612-1.623-.306-7.311-1-9-.56-1.363-.974-.934-1-1-2.823-14.929-4.747-29.971-2-45 6.951 2.394 11.56-26.869 17.5-25 4.282 8.132 5.433 17.484 6.5 26.5.382 3.231.456 8.414 1 13.5" style="fill:url(#f)"/>/&gt;<path fill="#0da4cf" d="M853 522c1.555-1.135 2.882-3.007 5-3-.271.409-.749 1.69-1 2-4.767 5.893-13.454 10.543-20.5 13-4.773-4.666-9.8-6.032-15.5-9l-2.5-4c10.509-.694 19.125-3.228 24.5-13 7.81 1.496 2.452 12.837 2 18.5 3.132.159 5.723-2.838 8-4.5"/><path fill="#73f8ff" d="m179 530-17 7c3.418-4.784 21.54-26.101 26-27-3.932 6.26-6.957 12.885-9 20"/><path fill="#c8fefe" d="M179 532c.073-.642-.147-1.489 0-2 2.043-7.115 5.068-13.74 9-20 .266-.054.73-.045 1 0 4.309.724 1.139 10.518 0 12.5-1.37 2.382-7.693 5.852-10 9.5"/><path fill="#0b3149" d="M235 518c2.069 27.565-3.341 60.04 31 69 87.976 47.566 301.694 40.5 388.5 14 28.584-8.726 57.911-12.017 56.5-59-.174-5.28-1.008-6.719 5-6-.002.333.005.667 0 1-.252 16.28-4.928 26.966-7 41.5-.151 1.061 1.505 6.556 1 9.5-7.579 44.2-21.975 73.248-46 110.5-3.409 5.285-14.948 16.402-17 21-2.253 5.049-1.644 12.773-4 18-10.741 23.828-48.502 80.349-69 95.5-.905.669-.938.966-1 1-1.655.89-1.24 1.07-3 0 20.275-16.556 37.823-44.308 53-65.5l5-14.5c5.597-7.738 2.661-6.015 5-13.5l-2.5-1.5c-11.025 15.139-26.979 25.145-41 37-3.107 2.627-3.514 6.483-6.5 9-12.788 10.781-45.672 20.19-48.5 23-3.778 3.754.487 14.5-2.5 19-.193-5.557-1.068-10.932-1-16.5-.372-.673-5.979.292-7 .5 34.375-13.387 62.177-32.246 89-57 44.927-41.461 83.069-98.458 94-159.5l-28 7.5c2.824-3.513 26.821-15.918 27-18.5.012-.176-1.484-2.995-2.5-2.5-28.396 20.912-65.054 30.148-99.5 36-18.745 3.185-35.048 4.733-54 6-9.096.608-17.912.676-27 1-77.177 2.751-217.926 4.618-279-48-1.131-.975-2.4-1.426-3-2-2.307-2.209-5.363-4.117-7-7-5.187-9.136-6.627-27.669-6-38 .101-1.67-.102-3.318 0-4 .279-1.858 3.667-14.065 5.5-14 2.641.396 1.357 5.095 1.5 7"/><path fill="#578598" d="M598 518c-29.688 29.086-72.21 49.116-114 52l-2.5-4 7.5-.5-6-2.5c34.861-1.972 67.974-15.297 96-36l-10.5 11c10.301-7.616 17.204-12.719 26.5-20.5 1.547-1.295 2.813-3.197 3 .5"/><path fill="#0a85b1" d="M770 527c.183 2.18 2.038 7.114 2 7.5-.077.782-1.985 1.376-2 1.5-3.219-11.497-8.514 5.744-13 7 1.723-9.647 7.253-18.12 12-26.5 2.019 2.623.732 7.303 1 10.5"/><path fill="#5adef0" d="M237 522c3.655 13.337 39.401 32.248 51 37-12.442-1.794-22.569-10.17-34-15.5-1.863 1.441-3.985 28.754-3 32 .274.904 13.493 10.685 15 11.5-34.341-8.96-28.931-41.435-31-69 3.229-.5 1.498 2.168 2 4"/><path fill="#0bb5dd" d="M787 522c9.273 12.277 10.563 20.374 29 23-4.509 3.788-10.022 1.17-14.5-1-2.902.96-.015 7.355 1.5 9-11.507-3.484-31.436-25.196-18-34 1.124 1.506 1.607 2.48 2 3"/><path fill="#178bb3" d="M821 525c5.7 2.968 10.727 4.334 15.5 9 7.046-2.457 15.733-7.107 20.5-13 2.522 2.653-.776 6.884-3 9-3.654 3.477-15.748 8.042-21 8-9.704-.078-20.107-6.934-24-15.5.248-1.264 4.811-2.538 6-3.5.191 6.717 5.343 5.658 6 6"/><path fill="#1c8eae" d="M228 529c-.627 10.331.813 28.864 6 38h-2c-.017-.102-1.812.355-2-.5-2.698-12.261-9.133-20.434-19-28.5 1.761-5.912 4.273-11.499 7-17 3.498 2.578 6.894 4.932 10 8"/><path fill="#0f4057" d="M434 537c-14.142-4.084-21.961-7.009-35-14-.168-.939 2.852-.565 3-.5 8.894 3.909 17.364 8.004 26.5 11.5.442.169 4.253-.862 5.5 3"/><path fill="#050712" d="M831 543c.212-.166 1.838-4.229 2-5 5.252.042 17.346-4.523 21-8v1c-13.662 8.225-5.989 7.966-8 19.5-1.65 9.461-10.668 15.826-19 19 7.522 6.374 21.315 5.473 29 .5 1.688-1.092 5.021-3.848 6-5.5.784-1.322 3.07-15.611 5-11.5-.247 4.575-2.96 25.689-4 29.5-4.639 16.992-26.814 15.119-40 12.5l-1-3c7.031 2.575 11.944 2.455 19 2 .49-.032 2.067 1.094 5 0 3.627-1.353 11.649-8.764 12-12.5.173-1.846-2.321-8.093-3.5-8.5-1.322-.456-11.281 3.858-13 4-9.35.771-21.405.676-30-3-4.522 7.183.44 12.426 6.5 16l-3 2c-11.451-7.408-17.136-5.805-26-20-4.118-6.595-9.607-19.957-14-28-.914-1.673-2.132-3.435-2-5.5-1.371-1.338-4.828 10.962-5 12.5h-1c.753-5.402 2.447-10.481 3-15 .015-.124 1.923-.718 2-1.5.038-.386-1.817-5.32-2-7.5l2-2c.966 25.49 27.126 55.107 52.5 38 4.385-2.956 14.076-18.776 6.5-20"/><path fill="#1b709b" d="M859 535c-9.939 3.44-3.757 9.577-5 16.5-1.211 6.749-4.571 14.596-11 18 1.395 1.88 3.743.492 6 .5 2.62.009 4.878-.473 7 0-7.685 4.973-21.478 5.874-29-.5 8.332-3.174 17.35-9.539 19-19 2.011-11.534-5.662-11.275 8-19.5 1.338-.806 3.435-3.38 4.5-3 .648.231 2.228 5.646 3.5 6.5z"/><path fill="#fbfefe" d="M179 530c-.147.511.073 1.358 0 2-7.542 11.925-12.819 24.943-18 38-4.867-1.853-10.088-2.751-15-4.5 4.375-10.144 9.584-19.519 16-28.5z"/><path fill="url(#g)" d="M711 542c1.411 46.983-27.916 50.274-56.5 59-86.806 26.5-300.524 33.566-388.5-14-1.507-.815-14.726-10.596-15-11.5-.985-3.246 1.137-30.559 3-32 11.431 5.33 21.558 13.706 34 15.5 3.746 1.535 7.207 2.666 11 4 57.599 20.396 121.719 32.252 183 28 29.851-.144 60.575-3.284 90-8-2.999 3.778 2.36 2.286 4.5 2 20.313-2.716 50.765-9.983 70-17 1.638-.597 5.545-1.352 3.5-4 19.891-7.109 45.687-17.729 59.5-34-.07 3.796 1.392 8.399 1.5 12m-437 28c.316.812-.338 3.21 0 3.5 2.095 1.797 8.86 2.285 8-2.5 4.982 8.179-1.87 6.303-8 6.5 8.17 10.454 17.916-6.611 7.5-11.5-17.892-8.398-19.892 24.367-.5 17.5-8.902 2.403-18.989-12.261-7-13.5m405 15c8.119-.596 9.257-12.803 3.5-16-1.903-1.057-2.368 1.026-2.5 1-2.305-.448-2.787-.885-5.5 0l1-2c-4.688.513-10.89 6.545-9.5 11.5 2.683 5.789 7.144 5.93 13 5.5m-315 19c4.735.14 8.228.355 10-5 4.357-13.169-22.688-14.503-18 2.5.497 1.804 9.983 10.108 8 2.5m226-11c-.918-.001-2.361-.207-3 0-6.12 1.979-4.756 5.312-8 9.5 15.646 17.261 26.919-9.487 11-9.5m-115 21c8.551.698 15.252-6.474 9-13-9.139-9.54-22.908-.606-16 10.5.674 1.084 6.544 6.649 7 2.5" style="fill:url(#g)"/>/&gt;<path fill="#024167" d="M770 536c-.553 4.519-2.247 9.598-3 15-1.38 9.899-2.11 16.47 3 25.5l-11 3.5c-2.444-13.3-4.48-23.116-2-37 4.486-1.256 9.781-18.497 13-7"/><path fill="#0ec4e6" d="M860 537c7.114 11.35 1.668 29.053-11 33-2.257-.008-4.605 1.38-6-.5 6.429-3.404 9.789-11.251 11-18 1.243-6.923-4.939-13.06 5-16.5.159.681.64 1.425 1 2"/><path fill="#023960" d="M725 538c-1.559 12.44 1.725 29.117 6 40 .026.066.44-.363 1 1-2.5 2.265.058 6.651 1 9 .88 2.194 1.454 4.571 4 5.5l-1.5 2.5c-3.043.187-5.638-1.411-8.5-2-6.305-1.297-11.154-3.676-17-6 .505-2.944-1.151-8.439-1-9.5 2.072-14.534 6.748-25.22 7-41.5z"/><path fill="#145578" d="M867 546c.171 2.202.119 4.785 0 7-1.93-4.111-4.216 10.178-5 11.5-.979 1.652-4.312 4.408-6 5.5-2.122-.473-4.38.009-7 0 12.668-3.947 18.114-21.65 11-33 4.923-.652 4.612 7.25 5 10.5z"/><path fill="#2095b8" d="M232 567c2.547 15.177-16.604 24.592-24 36-2.838-3.684-11.528-13.108-15-16 7.707-7.807 8.951-1.377 16-3.5-2.683-17.346-2.986-28.756 2-45.5 9.867 8.066 16.302 16.239 19 28.5.188.855 1.983.398 2 .5"/><path fill="#1280aa" d="M775 544c-4.986-1.051-4.515 13.497-4 15.5.254.99 2.747.01 3 1 4.896 19.141 10.142 43.123 34.5 42.5.852-1.487-3.234-1.851-3.5-2l9-1.5c-3.775-2.648-13.042-8.326-17-9.5 1.805-5.235-5.163-9.781-8-13.5-.138-.182-3.231-5.317 0-4.5 8.864 14.195 14.549 12.592 26 20 6.537 4.229 4.242 5.343 0 11-7.023-.879-12.477 2.582-22-1-13.66-5.138-16.766-21.161-21.5-33-.047-.118-1.851 2.215-2.5.5-1.02-2.696-1.361-15.263-1-18.5.172-1.538 3.629-13.838 5-12.5-.132 2.065 1.086 3.827 2 5.5"/><path fill="#0f4057" d="M482 541c-8.594.515-17.389-.378-26 0 4.658-2.404 20.325-1.048 26 0"/><path fill="#0f6591" d="M775 544c4.393 8.043 9.882 21.405 14 28-3.231-.817-.138 4.318 0 4.5 2.837 3.719 9.805 8.265 8 13.5-11.196-3.322 4.24 8.895 8 11 .266.149 4.352.513 3.5 2-24.358.623-29.604-23.359-34.5-42.5-.253-.99-2.746-.01-3-1-.515-2.003-.986-16.551 4-15.5"/><path fill="#04c4ec" d="M816 545c2.75.392 4.779 1.501 8 1-4.84 11.304-10.729 10.109-21 7-1.515-1.645-4.402-8.04-1.5-9 4.478 2.17 9.991 4.788 14.5 1"/><path fill="#012141" d="M793 602c-1.571-.123-.781 1.758-1 2-.06.066-.338-.156-1 1-.075.131-2.14-.523-2 1-11.256-.528-21.806-1.145-33-3l11-.5c-3.605-3.137-5.874-10.027-7-14.5-.114-.455-.626-5.967-1-8l11-3.5c-5.11-9.03-4.38-15.601-3-25.5h1c-.361 3.237-.02 15.804 1 18.5.649 1.715 2.453-.618 2.5-.5 4.734 11.839 7.84 27.862 21.5 33"/><path fill="#5adef0" d="M299 563c-3.793-1.334-7.254-2.465-11-4 4.521-1.857 9.067 3.315 11 4m183 28c-61.281 4.252-125.401-7.604-183-28 53.527 18.819 126.272 28.273 183 28"/><path fill="#0f85a7" d="M650 564c2.045 2.648-1.862 3.403-3.5 4-19.235 7.017-49.687 14.284-70 17-2.14.286-7.499 1.778-4.5-2 11.715-1.878 24.461-4.287 36-7 13.872-3.261 28.596-7.209 42-12"/><path fill="#1c8fa5" d="M282 571c-2.187-3.591-2.751-5.489-8.5-4-3.027.784.178 2.174.5 3-11.989 1.239-1.902 15.903 7 13.5-19.392 6.867-17.392-25.898.5-17.5 10.416 4.889.67 21.954-7.5 11.5 6.13-.197 12.982 1.679 8-6.5"/><path fill="#548296" d="m596 565 2 10c-10.098 2.146-20.761 3.585-31 5-23.336 3.226-48.442 5.603-72 6l-14.5-2 1-2c37.51-4.521 77.865-8.039 114.5-17"/><path fill="#066087" d="M234 567c1.637 2.883 4.693 4.791 7 7-4.671 6.802 2.719 23.915 2 28.5-.462 2.946-14.611 10.11-15 15.5-9.759 9.617-17.278 21.704-27.5 31-4.65-7.928-8.885-19.466-15.5-26l5-3c5.498 6.579 9.746 13.316 13.5 21l-6.5-15 11-18c4.239 5.493 8.134 11.871 13 16.5-4.403-6.832-8.063-15.092-13-21.5 7.396-11.408 26.547-20.823 24-36z"/><path fill="#0af5fa" d="M282 571c.86 4.785-5.905 4.297-8 2.5-.338-.29.316-2.688 0-3.5-.322-.826-3.527-2.216-.5-3 5.749-1.489 6.313.409 8.5 4"/><path fill="#5ff3fe" d="m161 572-5 22c-4.959-1.765-10.184-2.934-15.5-3-3.818-1.925 3.798-19.194 5-23 5.597-.209 10.419 2.333 15.5 4"/><path fill="#025b7f" d="M680 570c6.485 4.024 4.622 11.121-1 15-5.856.43-10.317.289-13-5.5-1.39-4.955 4.812-10.987 9.5-11.5l-1 2c2.713-.885 3.195-.448 5.5 0m-6.5 1c-2.252 1.124-2.29 9.715 3 8 4.331-1.404 1.899-10.446-3-8"/><path fill="#002d45" d="M679 585c5.622-3.879 7.485-10.976 1-15 .132.026.597-2.057 2.5-1 5.757 3.197 4.619 15.404-3.5 16"/><path fill="#009ec1" d="M673.5 571c4.899-2.446 7.331 6.596 3 8-5.29 1.715-5.252-6.876-3-8"/><path fill="#3cd3ed" d="M193 591c-.161-.086-2.648-.088-3.5-1-.809 6.398-8.142 9.786-11.5 15-6.624-4.908-14.241-8.238-22-11l5-22c11.786 3.868 23.395 9.951 32 19"/><path fill="#166892" d="M846 594c5.143-2.815 5.378-15.599-.5-15-1.619.165-12.68 13.243-4.5 15-7.056.455-11.969.575-19-2-1.236-.453-2.844-1.318-4-2-6.06-3.574-11.022-8.817-6.5-16 8.595 3.676 20.65 3.771 30 3 1.719-.142 11.678-4.456 13-4 1.179.407 3.673 6.654 3.5 8.5-.351 3.736-8.373 11.147-12 12.5"/><path fill="#12435b" d="M244 576c-3.615 2.164-.499 13.295 0 17 .785 5.835 1.78 11.252 3 17 11.015 51.919 54.319 107.403 93 143-1.211 1.978-2.935.263-1 3.5 6.07 10.153 25.163 19.974 32 30.5-5.516-3.174-11.366-6.217-16.5-10-3.377-2.489-17.692-18.034-19-18-.435.011-3.099 2.814-2.5 4-.756-.742-13.422-15.769-13-10.5 13.193 22.32 27.345 44.327 45 63.5 6.66 7.233 7.77 10.633 17 16 3.727 2.167 29.418 13.069 32.5 13 6.555-.146 4.47-4.468 4.5-10 .048-8.925-2.104-18.42-1-27.5-2.83-1.619-6.072-2.136-9-3.5l3-2c36.939 16.028 63.581 18.803 103 11 2.048-.405 3.787-1.414 6-1-8.721 2.331-16.839 6.163-26.5 7-25.296 2.192-50.095-3.407-74-11 .011 11.286-3.166 30.689 3.5 39l-1 1c-4.998-2.565-10.052-1.145-15-3-18.47-6.922-17.839-10.18-38-10-18.114.161-21.895 1.679-39 7l-1-1c15.44-4.855 30.293-10.447 47-9.5-25.214-24.854-50.127-58.787-65-91-2.606-5.644-2.79-15.182-5-20-2.841-6.193-17.073-19.785-22-27-18.743-27.446-34.979-54.252-43.5-86.5l-1.5 1c-2.623.508-9.682 7.716-12 10 .389-5.39 14.538-12.554 15-15.5.719-4.585-6.671-21.698-2-28.5.6.574 1.869 1.025 3 2"/><path fill="#5d8a9d" d="M244 576c61.074 52.618 201.823 50.751 279 48 1.173 5.017 6.213.821 5 7-61.351 3.6-132.792 4.682-193-9-21.123-4.8-44.112-18.166-66-17-5.669-9.329-14.144-9.004-25-12-.499-3.705-3.615-14.836 0-17"/><path fill="#00182d" d="M733 588c-.942-2.349-3.5-6.735-1-9 .694 1.689 2.612 7.377 1 9"/><path fill="#04b2dc" d="M846 594c-2.933 1.094-4.51-.032-5 0-8.18-1.757 2.881-14.835 4.5-15 5.878-.599 5.643 12.185.5 15"/><path fill="#234a63" d="M679 602c-9.982 1.942-19.272 6.396-29 9-14.929 3.997-30 9.447-45.5 10l-.5-4c34.446-5.852 71.104-15.088 99.5-36 1.016-.495 2.512 2.324 2.5 2.5-.179 2.582-24.176 14.987-27 18.5"/><path fill="#2086a0" d="M374 599c-1.353-2.998-.785-2.558-3-5-3.182-3.508-2.453-3.9-7-3-9.408 1.863-8.757 12.741 0 13 1.983 7.608-7.503-.696-8-2.5-4.688-17.003 22.357-15.669 18-2.5"/><path fill="#078eb9" d="M797 590c3.958 1.174 13.225 6.852 17 9.5l-9 1.5c-3.76-2.105-19.196-14.322-8-11"/><path fill="#2598b9" d="M193 591c6.241 3.335 10.827 11.591 15 17l-11 18c-5.391-7.551-11.487-15.434-19-21 3.358-5.214 10.691-8.602 11.5-15 .852.912 3.339.914 3.5 1"/><path fill="#08f8fe" d="M371 594c1.054 9.409-13.742 4.696-7-3 4.547-.9 3.818-.508 7 3"/><path fill="#13090c" d="m822 592 1 3 6 161.5c-1.867 5.614-5.451 4.31-8 5.5 1.661-1.554 5.564-4.171 6-6.5.317-1.693.094-24.186 0-28-.753-30.46-1.587-84.302-6-115-.635-4.419-1.631-8.953-6-9.5 4.242-5.657 6.537-6.771 0-11l3-2c1.156.682 2.764 1.547 4 2"/><path fill="#07aeca" d="M364 591c-6.742 7.696 8.054 12.409 7 3 2.215 2.442 1.647 2.002 3 5-1.772 5.355-5.265 5.14-10 5-8.757-.259-9.408-11.137 0-13"/><path fill="#e9fcfd" d="m157 596 2 16c-8.205-.305-15.931 3.096-24 3.5.146-3.81 1.765-22.527 4.5-23.5 5.971.927 11.759 2.123 17.5 4"/><path fill="#049dbb" d="M587 593c-4.273 11.571 8.177 7.602 3 0 15.919.013 4.646 26.761-11 9.5 3.244-4.188 1.88-7.521 8-9.5"/><path fill="#7ea6b6" d="M269 605c-3.911.208-5.866-1.103-8 3-6.491-3.606-8.36-.632-14 2-1.22-5.748-2.215-11.165-3-17 10.856 2.996 19.331 2.671 25 12"/><path fill="#12eff7" d="M590 593c5.177 7.602-7.273 11.571-3 0 .639-.207 2.082-.001 3 0"/><path fill="#305a74" d="M613 754c-2.803-2.349-7.417-5.26-7-9 22.765-26.33 52.44-76.083 58-110.5 2.441-15.11 4.634-24.077-13-19.5l-1-4c9.728-2.604 19.018-7.058 29-9l28-7.5c-10.931 61.042-49.073 118.039-94 159.5"/><path fill="#3cd9f4" d="m190 620-5 3c-6.591-6.51-16.747-10.656-26-11l-2-16c13.265 4.337 24.166 13.428 33 24"/><path fill="#1c7b96" d="M484 601c.56 1.226 1 1.395 1 3-.7-.116-3.849-.86-4-1-2.047-1.902.317-4.63-7-4-9.235.795-7.352 13.196 0 15 .301.074.678-.026 1 0-.456 4.149-6.326-1.416-7-2.5-6.908-11.106 6.861-20.04 16-10.5"/><path fill="#02b7d3" d="M474 599c-2.165 7.4 4.595 10.427 7 4 .151.14 3.3.884 4 1 0 .645.141 1.53 0 2-4.759 2.548-7.09 6.172-12.5 2-1.86 1.686 1.426 2.849 1.5 3 .258.529-.156 2.119 0 3-7.352-1.804-9.235-14.205 0-15"/><path fill="#06f2fc" d="M481 603c-2.405 6.427-9.165 3.4-7-4 7.317-.63 4.953 2.098 7 4"/><path fill="#33d2de" d="M475 614c-.322-.026-.699.074-1 0-.156-.881.258-2.471 0-3 4.606 2.449 9.649-.515 11-5 .141-.47 0-1.355 0-2 0-1.605-.44-1.774-1-3 6.252 6.526-.449 13.698-9 13"/><path fill="#260f11" d="M815 603c4.369.547 5.365 5.081 6 9.5 4.413 30.698 5.247 84.54 6 115 .094 3.814.317 26.307 0 28-.436 2.329-4.339 4.946-6 6.5-1.478.69-1.499.632-3 1-6.145-2.704-15.028.486-19-6.5-.792-1.393 1.138-2.949 1-3.5 3.532-2.592 6.461-9.436 7-13.5 2.902-21.868-3.89-61.322-5-85-.318-6.776 1.141-45.888 0-48-.339-.627-8.376-2.408-10-2.5.219-.242-.571-2.123 1-2 9.523 3.582 14.977.121 22 1"/><path fill="#5e4750" d="M800 753c-1.328-5.28-2.465-10.868-3-17.5-3.486-43.25-2.751-87.201-6-130.5.662-1.156.94-.934 1-1 1.624.092 9.661 1.873 10 2.5 1.141 2.112-.318 41.224 0 48 1.11 23.678 7.902 63.132 5 85-.539 4.064-3.468 10.908-7 13.5"/><path fill="#f3f8fa" d="M269 605c.999 1.644 1.896 3.952 3 6 8.608 15.977 16.382 32.029 26 47.5 30.319 48.768 68.038 93.218 113 129 .272 1.824-1.127 1.698-2.5 1.5-5.331-.771-42.665-27.758-49-33-26.087-21.588-92.054-97.841-98.5-129.5-.89-4.373-1.98-14.692 0-18.5 2.134-4.103 4.089-2.792 8-3"/><path fill="#8cb1c0" d="M335 622c-.81 3.682-3.824 2.316-6.5 2-19.241-2.27-37.749-8.485-56.5-13-1.104-2.048-2.001-4.356-3-6 21.888-1.166 44.877 12.2 66 17"/><path fill="#13090c" d="M791 605c3.249 43.299 2.514 87.25 6 130.5.535 6.632 1.672 12.22 3 17.5.138.551-1.792 2.107-1 3.5 3.972 6.986 12.855 3.796 19 6.5-9.687 2.378-16.655 2.707-22-7.5L789 606c-.14-1.523 1.925-.869 2-1"/><path fill="url(#h)" d="M261 608c-1.98 3.808-.89 14.127 0 18.5 6.446 31.659 72.413 107.912 98.5 129.5 6.335 5.242 43.669 32.229 49 33 1.373.198 2.772.324 2.5-1.5-44.962-35.782-82.681-80.232-113-129-9.618-15.471-17.392-31.523-26-47.5 18.751 4.515 37.259 10.73 56.5 13 2.676.316 5.69 1.682 6.5-2 60.208 13.682 131.649 12.6 193 9 18.486-1.085 37.57-2.204 56-4 26.828-2.615 41.384-5.352 67-12 17.634-4.577 15.441 4.39 13 19.5-5.56 34.417-35.235 84.17-58 110.5-13.159 15.22-31.91 32.643-48.5 44-13.537 9.267-28.457 15.701-42.5 24-39.419 7.803-66.061 5.028-103-11-26.328-11.424-51.015-29.688-72-49-38.681-35.597-81.985-91.081-93-143 5.64-2.632 7.509-5.606 14-2m134 53c-8.008.471-28.637.26-30 10-1.8 12.864 15.173 46.937 25 56 10.439 16.76 23.308 31.284 40 42 28.257 18.141 58.065 19.689 87 2 6.224-3.032 12.651-6.653 18-11 18.495-10.274 61.01-72.775 55-91.5-.099-.308-2.872-2.996-3.5-3.5-10.219-8.21-163.827-7.245-187-6-1.908.103-3.76-.554-4.5 2" style="fill:url(#h)"/>/&gt;<path fill="#03829d" d="M485 606c-1.351 4.485-6.394 7.449-11 5-.074-.151-3.36-1.314-1.5-3 5.41 4.172 7.741.548 12.5-2"/><path fill="#406d85" d="M651 615c-25.616 6.648-40.172 9.385-67 12 .156-2.841-1.312-2.766-3.5-3-7.62-.814-18.404 2.791-27 2-2.739-.252-3.957.971-3.5-3 18.952-1.267 35.255-2.815 54-6l.5 4c15.5-.553 30.571-6.003 45.5-10z"/><path fill="#0e9dc2" d="M150 629c.1-.025-.358-1.791.5-2 6.074-1.478 12.513 2.766 17.5-3.5-6.528-5.126-14.679-4.687-22.5-4.5l1.5-4c51.579-7.517 74.559 68.64 19.5 80 33.056-17.725 22.356-68.453-16.5-66"/><path fill="#81fafe" d="m147 615-1.5 4c7.821-.187 15.972-.626 22.5 4.5-4.987 6.266-11.426 2.022-17.5 3.5-.858.209-.4 1.975-.5 2-6.975 1.745-9.548 1.111-17 5-7.461 3.893-11.353 8.552-16 15.5l-6 20c-6.369-15.397 1.482-38.701 15-47.5 3.479-2.264 16.612-6.361 21-7"/><path fill="#0b2944" d="M126 622c-13.518 8.799-21.369 32.103-15 47.5l6-20c4.647-6.948 8.539-11.607 16-15.5-4.17 7.502-12.178 11.693-15 20.5-.935 2.917-4.437 17.871 1 17.5.48 2.265.189 4.946 3 6 .971 7.09 12.711 18.306 20 18 1.277 1.19.994 2.38 3 2-34.171-1.112-50.254-44.719-27-70.5 2.439-2.704 6.14-3.861 8-5.5"/><path fill="#527f93" d="M550 623c-.457 3.971.761 2.748 3.5 3 8.596.791 19.38-2.814 27-2 2.188.234 3.656.159 3.5 3-18.43 1.796-37.514 2.915-56 4 1.213-6.179-3.827-1.983-5-7 9.088-.324 17.904-.392 27-1"/><path fill="#076a91" d="M178 681c-1.226-6.081 1.847-11.553-2.5-17-1.481-.317-2.01 1.894-2.5 3-17.489-20.636-43.976-4.538-37 21-7.973-15.682-4.07-27.398 8.5-39-14.4 1.386-24.445 14.807-22.5 29-2.811-1.054-2.52-3.735-3-6-2.683-12.667 4.686-26.924 15.5-34 31.18-20.404 63.397 13.291 43.5 43"/><path fill="#11afd2" d="M136 688c1.861 3.66 2.99 5.196 6 8-7.289.306-19.029-10.91-20-18-1.945-14.193 8.1-27.614 22.5-29-12.57 11.602-16.473 23.318-8.5 39m-9.5-17c-2.733 6.793 2.024 13.159 6 18z"/><path fill="#a4d0d9" d="M535 760c16.681-13.555 51.436-61.433 53-82.5.365-4.916.784-8.566-3.5-11.5-10.128-6.939-166.895-6.328-189.5-5 .74-2.554 2.592-1.897 4.5-2 23.173-1.245 176.781-2.21 187 6 .628.504 3.401 3.192 3.5 3.5 6.01 18.725-36.505 81.226-55 91.5"/><path fill="#0a3850" d="M395 661c22.605-1.328 179.372-1.939 189.5 5 4.284 2.934 3.865 6.584 3.5 11.5-1.564 21.067-36.319 68.945-53 82.5-5.349 4.347-11.776 7.968-18 11 23.042-14.086 50.832-48.594 61-73.5 3.056-7.486 11.286-26.752 1.5-30.5-13.326-5.104-56.823-1.768-73.5-2-28.507-.396-57.549-1.611-86-1-7.745.166-46.849.141-49 6.5-6.077 17.967 29.829 70.375 43 83.5 5.008 4.99 10 10.17 16 14v1c-16.692-10.716-29.561-25.24-40-42-9.52-15.285-15.718-32.087-23-48.5 3.884-1.563 2.601-8.725-2-7.5 1.363-9.74 21.992-9.529 30-10"/><path fill="#65ddec" d="M178 681c-5.32 7.944-11.91 12.733-21 15.5 11.903-7.493 11.474-19.279 16-29.5.49-1.106 1.019-3.317 2.5-3 4.347 5.447 1.274 10.919 2.5 17m-3.5-9-1 6c1.015.28 3.792-7.475 1-6"/><path fill="#f8fdfd" d="m420 664-33.5 8c-15.98 3.115-4.87 26.392-.5 36.5 7.242 16.751 17.785 27.004 28 41 .84 1.151 2.973 3.857 0 4.5-13.171-13.125-49.077-65.533-43-83.5 2.151-6.359 41.255-6.334 49-6.5"/><path fill="url(#i)" d="M506 665v1c-8.643.043-17.38-.443-26 .5l26-.5c12.882-.064 65.096-3.894 68 13.5 2.037 12.197-14.635 42.737-22 53-13.504 18.817-33.589 35.304-54.5 44.5l-34.5 4c-11.218-1.576-23.456-6.908-33-13-6-3.83-10.992-9.01-16-14 2.973-.643.84-3.349 0-4.5-10.215-13.996-20.758-24.249-28-41-4.37-10.108-15.48-33.385.5-36.5l33.5-8c28.451-.611 57.493.604 86 1" style="fill:url(#i)"/>/&gt;<path fill="#3fbfd7" d="M517 771c-17.689 8.617-34.108 12.794-54 10l34.5-4c20.911-9.196 40.996-25.683 54.5-44.5 7.365-10.263 24.037-40.803 22-53-2.904-17.394-55.118-13.564-68-13.5v-1c16.677.232 60.174-3.104 73.5 2 9.786 3.748 1.556 23.014-1.5 30.5-10.168 24.906-37.958 59.414-61 73.5"/><path fill="#3fbfd7" d="m506 666-26 .5c8.62-.943 17.357-.457 26-.5"/><path fill="#0a658c" d="m126.5 671 6 18c-3.976-4.841-8.733-11.207-6-18"/><path fill="#277d8e" d="M390 727c-9.827-9.063-26.8-43.136-25-56 4.601-1.225 5.884 5.937 2 7.5 7.282 16.413 13.48 33.215 23 48.5"/><path fill="#097bb0" d="M174.5 672c2.792-1.475.015 6.28-1 6z"/><path fill="#2e5670" d="M628 754c-9.665 13.364-28.938 27.619-42 38l-3-7c2.986-2.517 3.393-6.373 6.5-9 14.021-11.855 29.975-21.861 41-37l2.5 1.5c-2.339 7.485.597 5.762-5 13.5"/><path fill="#436f86" d="M613 754c-26.823 24.754-54.625 43.613-89 57-.155.032-1.854.694-3 1-2.213-.414-3.952.595-6 1 14.043-8.299 28.963-14.733 42.5-24 16.59-11.357 35.341-28.78 48.5-44-.417 3.74 4.197 6.651 7 9"/><path fill="#d8e9ef" d="M333 763c2.431 2.389 4.57 5.609 7 8l25 45c-17.655-19.173-31.807-41.18-45-63.5-.422-5.269 12.244 9.758 13 10.5"/><path fill="#0d3b55" d="m412 802-3 2c-8.119-3.783-16.858-6.04-25-10-4.476-2.177-8.692-4.522-13-7-6.837-10.526-25.93-20.347-32-30.5-1.935-3.237-.211-1.522 1-3.5 20.985 19.312 45.672 37.576 72 49"/><path fill="#6290a2" d="M570 834c-.906.74-1.829 1.874-2 2-11.199 2.088-21.177 7.609-31.5 12-.225.096-1.74-2.325-2.5-2v-11c6.617-14.109 38.918-32.603 52-43 13.062-10.381 32.335-24.636 42-38l-5 14.5c-15.177 21.192-32.725 48.944-53 65.5"/><path fill="#75a0b1" d="M371 787c4.308 2.478 8.524 4.823 13 7l11 14-13 7c-8.021-13.956-30.198-32.391-42-44-2.43-2.391-4.569-5.611-7-8-.599-1.186 2.065-3.989 2.5-4 1.308-.034 15.623 15.511 19 18 5.134 3.783 10.984 6.826 16.5 10"/><path fill="#3d7487" d="M463 781c19.892 2.794 36.311-1.383 54-10-28.935 17.689-58.743 16.141-87-2v-1c9.544 6.092 21.782 11.424 33 13"/><path fill="#bad3dd" d="M382 815c3.998 6.956 6.72 9.98 0 17-9.23-5.367-10.34-8.767-17-16l-25-45c11.802 11.609 33.979 30.044 42 44"/><path fill="#3c6981" d="M586 792c-13.082 10.397-45.383 28.891-52 43a79 79 0 0 1-2 4c-.099-3.983.138-8.02 0-12 2.987-4.5-1.278-15.246 2.5-19 2.828-2.81 35.712-12.219 48.5-23z"/><path fill="#4f7e93" d="M409 804c2.928 1.364 6.17 1.881 9 3.5-1.104 9.08 1.048 18.575 1 27.5l-24-27-11-14c8.142 3.96 16.881 6.217 25 10"/><path fill="#8db1c0" d="M419 835c-.03 5.532 2.055 9.854-4.5 10-3.082.069-28.773-10.833-32.5-13 6.72-7.02 3.998-10.044 0-17l13-7z"/><path fill="url(#j)" d="M408 845c3.902 6.991 14.391 10.263 17 18.5 1.764 5.569 1.017 11.207-1 16.5-38.225 21.686-108.428 2.743-151-1 22.137-21.586 55.293-24.38 84-32 5.91-1.569 19.788-2.781 13-12 20.161-.18 19.53 3.078 38 10" style="fill:url(#j)"/>/&gt;<path fill="#5b93ac" d="M575 834c-.109.023.06 1.545-2 1v-1c.062-.034.095-.331 1-1z"/><path fill="#3ccbe6" d="M370 835c6.788 9.219-7.09 10.431-13 12-15.958-.594-35.43 1.634-50.5 7-4.669 1.663-11.367 8.44-16.5 6 12.559-8.434 26.61-13.524 41-18 17.105-5.321 20.886-6.839 39-7"/><path fill="url(#k)" d="M573 834v1c10.442.677 21.012-.028 31.5 1 .873.086 7.255.93 6.5 3-4.477-.427-38.188-2.943-20.5 8 4.985 3.084 45.214 5.784 59 11 7.102 2.687 15.232 10.636 22.5 10 4.007 3.805 8.269 7.385 12 11.5-1.005 3.31-60.973 7.156-68.5 7.5-27.908 1.277-67.256 5.031-91.5-9-5.479-32.48 26.656-29.187 44-42 .171-.126 1.094-1.26 2-2 1.76 1.07 1.345.89 3 0" style="fill:url(#k)"/>/&gt;<path fill="#0f4d64" d="M660 856h-2c-13.131-8.353-31.593-15.53-47-17 .755-2.07-5.627-2.914-6.5-3-10.488-1.028-21.058-.323-31.5-1 2.06.545 1.891-.977 2-1 25.722-5.373 63.63 7.799 85 22"/><path fill="#05162a" d="M534 846c-8.799 3.764-17.215 17.602-20 26.5 2.286 3.43 7.091 3.816 10 5.5 24.244 14.031 63.592 10.277 91.5 9 7.527-.344 67.495-4.19 68.5-7.5-3.731-4.115-7.993-7.695-12-11.5-4.378-4.158-8.886-8.747-14-12h2c7.556 5.021 19.558 14 25 21 6.544 8.418 10.639 19.545 14 29.5-.508 1.471-12.42 4.15-14.5 4.5-33.947 5.716-126.194 7.062-157.5-4 24.808 4.39 48.638 5.951 74 6 30.612.059 63.334-1.724 93.5-6 2.984-1.52.494-2.848.5-3 .164-3.962-7.867-22.601-10.5-23-8.249 3.582-18.181 4.376-27 5-28.444 2.013-63.489 5.549-91.5 4-17.818-.985-37.119-3.586-51.5-15-3.54 12.909-2.385 28.268 12.5 32-2.137-.755-5.186.113-8.5-2-9.56-6.094-8.534-26.22-5.5-36 3.499-11.278 16.014-18.286 19-24.5.48-1-.483-4.608 0-5.5a79 79 0 0 0 2-4z"/><path fill="#105679" d="M568 836c-17.344 12.813-49.479 9.52-44 42-2.909-1.684-7.714-2.07-10-5.5 2.785-8.898 11.201-22.736 20-26.5.76-.325 2.275 2.096 2.5 2 10.323-4.391 20.301-9.912 31.5-12"/><path fill="#1dacce" d="M611 839c15.407 1.47 33.869 8.647 47 17 5.114 3.253 9.622 7.842 14 12-7.268.636-15.398-7.313-22.5-10-13.786-5.216-54.015-7.916-59-11-17.688-10.943 16.023-8.427 20.5-8"/><path fill="#0b1323" d="m330 841 1 1c-14.39 4.476-28.441 9.566-41 18-7.009 4.707-13.236 10.343-19 16.5l2 2.5c42.572 3.743 112.775 22.686 151 1 2.429-1.378 12.418-7.55 13-9.5 1.682-5.637-8.954-19.91-14-22.5l1-1c5.629 7.019 14.022 11.825 16 23 .167.946-.117 2.034 0 3-.893-.072-1.008.936-2 1-4.431.287-11.153 8.395-17.5 11-6.05 2.483-24.984 6.385-31.5 7-12.442 1.174-29.31-.031-42-1-25.408-1.94-53.341-6.973-78.5-11-2.016.588-9.991 18.22-10.5 21-.242 1.321-.659 2.241-1 3.5 1.598 3.406 44.602 8.027 51 8.5v1c-17.627-1.296-35.403-2.211-52.5-7-3.485-3.92 9.514-26.114 12.5-30 15.087-19.632 39.228-28.84 62-36"/><path fill="#0b5a7f" d="M423 848c5.046 2.59 15.682 16.863 14 22.5-.582 1.95-10.571 8.122-13 9.5 2.017-5.293 2.764-10.931 1-16.5-2.609-8.237-13.098-11.509-17-18.5 4.948 1.855 10.002.435 15 3"/><path fill="#f8fefe" d="M357 847c-28.707 7.62-61.863 10.414-84 32l-2-2.5c5.764-6.157 11.991-11.793 19-16.5 5.133 2.44 11.831-4.337 16.5-6 15.07-5.366 34.542-7.594 50.5-7"/><path fill="#145b7d" d="M438 874c-3.524 9.495 4.242 25.761-6.5 32-11.918 6.922-69.35 8.018-85.5 8v-9c1.321-.052 2.68.064 4 0 13.639-.666 32.049 1.293 39-13 6.516-.615 25.45-4.517 31.5-7 6.347-2.605 13.069-10.713 17.5-11"/><path fill="#0e2941" d="M308 914v-1c12.646.935 25.314.986 38 1 16.15.018 73.582-1.078 85.5-8 10.742-6.239 2.976-22.505 6.5-32 .992-.064 1.107-1.072 2-1 .63 5.224.302 25.247-2 29.5-6.273 11.587-65.28 13.228-78.5 13.5-17.899.368-33.794-.699-51.5-2"/><path fill="#155275" d="M566 890c7.158 12.766 25.037 11.881 38 13-.376 1.922 2.016 5.971 1 7.5-.878 1.321-4.553-.912-4 2.5-25.362-.049-49.192-1.61-74-6-14.885-3.732-16.04-19.091-12.5-32 14.381 11.414 33.682 14.015 51.5 15"/><path fill="#53d4ea" d="M347 891c.668 5.451-2.19 11.37 3 14-1.32.064-2.679-.052-4 0-29.666 1.165-58.502-2.13-88-4 .509-2.78 8.484-20.412 10.5-21 25.159 4.027 53.092 9.06 78.5 11"/><path fill="#1b8aaa" d="M695 904c-29.777 1.426-61.301 1.563-91-1-12.963-1.119-30.842-.234-38-13 28.011 1.549 63.056-1.987 91.5-4 8.819-.624 18.751-1.418 27-5 2.633.399 10.664 19.038 10.5 23"/><path fill="#36b0cc" d="M389 892c-6.951 14.293-25.361 12.334-39 13-5.19-2.63-2.332-8.549-3-14 12.69.969 29.558 2.174 42 1"/><path fill="#367692" d="M346 905v9c-12.686-.014-25.354-.065-38-1-6.398-.473-49.402-5.094-51-8.5.341-1.259.758-2.179 1-3.5 29.498 1.87 58.334 5.165 88 4"/><path fill="#156b8b" d="M695 904c-.006.152 2.484 1.48-.5 3-30.166 4.276-62.888 6.059-93.5 6-.553-3.412 3.122-1.179 4-2.5 1.016-1.529-1.376-5.578-1-7.5 29.699 2.563 61.223 2.426 91 1"/></svg>