<svg xmlns="http://www.w3.org/2000/svg" viewBox="0 0 1024 1024"><defs><linearGradient id="a" x1="303.1" x2="385.2" y1="647.8" y2="301.4" gradientTransform="matrix(1 0 0 -1 0 1024)" gradientUnits="userSpaceOnUse"><stop offset=".2" stop-color="#cce7ed"/><stop offset="1" stop-color="#84a8b7"/></linearGradient><linearGradient id="b" x1="343.5" x2="404" y1="629.2" y2="385.7" gradientTransform="matrix(1 0 0 -1 0 1024)" gradientUnits="userSpaceOnUse"><stop offset="0" stop-color="#181e50"/><stop offset=".4" stop-color="#2d3672"/><stop offset="1" stop-color="#0c80c7"/></linearGradient><linearGradient id="c" x1="193.8" x2="286.5" y1="509.2" y2="441.1" gradientTransform="matrix(1 0 0 -1 0 1024)" gradientUnits="userSpaceOnUse"><stop offset="0" stop-color="#6a76a2"/><stop offset="1" stop-color="#4d9ed9"/></linearGradient><linearGradient id="d" x1="240.8" x2="682.9" y1="379.2" y2="351.2" gradientTransform="matrix(1 0 0 -1 0 1024)" gradientUnits="userSpaceOnUse"><stop offset="0" stop-color="#e1f0f5"/><stop offset="1" stop-color="#7fc9e4"/></linearGradient><linearGradient id="e" x1="250.5" x2="267.7" y1="506.2" y2="444.6" gradientTransform="matrix(1 0 0 -1 0 1024)" gradientUnits="userSpaceOnUse"><stop offset="0" stop-color="#8792b9"/><stop offset="1" stop-color="#7fa8d6"/></linearGradient><linearGradient id="f" x1="364.3" x2="375.1" y1="481.4" y2="416.3" gradientTransform="matrix(1 0 0 -1 0 1024)" gradientUnits="userSpaceOnUse"><stop offset="0" stop-color="#181b61"/><stop offset="1" stop-color="#134b8d"/></linearGradient><linearGradient id="g" x1="691.9" x2="693.2" y1="465.5" y2="318.5" gradientTransform="matrix(1 0 0 -1 0 1024)" gradientUnits="userSpaceOnUse"><stop offset="0" stop-color="#fefefe"/><stop offset="1" stop-color="#b0bfc6"/></linearGradient><linearGradient id="h" x1="303.5" x2="324.4" y1="405.3" y2="361" gradientTransform="matrix(1 0 0 -1 0 1024)" gradientUnits="userSpaceOnUse"><stop offset="0" stop-color="#409bd7"/><stop offset="1" stop-color="#1fbeeb"/></linearGradient></defs><path d="M845 366c-3.7 4.6-16.4 15.5-21.5 19-19.4 13.3-43.7 19.3-67 20 5-5.2 11.1-9.2 16.5-14 3 4 2 4.4 6 4 2.9-.3 10.3-3.5 13-5-.8 3 3.7 1.3 4.5 1 7.1-2.8 17.5-8.2 23.5-13 41.9-17.5 41.1-73.9 18-105.5 0 1.5.1 3 0 4.5-1.8 0-.4-2.6-1.5-3-.2 0-1.7 1.8-3.5 1-.9-33.2-31.9-62.1-58.5-78-1.1.5 3.1 8.6 3.5 10 .5 1.6.6 3.5 1 5l-4 6c-.5-2.3-1-1.9-1-2-10.2-42.7-64.1-69.4-105.5-73-1.6-.1-6-1-5.5 2-2.5-.4-7-4.1-8-.5 0 1.8 19 7.4 17 13.5-.1 0-1.9-.2-3-1-28.8-20.7-70.4-25.2-105-22-16.7-.4.7 4.9 5 8-27.6-8.5-50.2-5.4-78 4-1.8.6-8.8 2.3-8.5 4 8 1.2 16.4 3.4 24 6 2.9 1 5.1.2 3.5 4-.8-.3-1.2-.7-2-1-39.2-12.5-116.7-3.7-142 32-.5.7-4.3 1.9-2.5 4 70.9-12.6 121.8 10.5 168.5 61.5 24.4 26.7 42.3 59.1 65 85.5.7.9.8 2.9 2 3-.6 5.4-1.6 9.4-5 15l-43-57c-21.7-40-62.9-86.6-106.5-102-10.8-3.8-24.4-6.9-35.5-3-15.4-1.1-31.9 0-47 3-16.6 3.3-33 11.3-46.5 22-2.1 1.6-6.9 5-6.5 8-13.3 8.5-18.2 24.2-26 37-3.4 2.9-6.4 6.3-10 9-4.9 3.6-11.4 7.3-15 12l-25.5 6c10.3 1.3 20.3.4 30.5-1l4 3c-10.8 1.6-21.6 3-32.5 1 3.9 3.5 10.5 4.1 15.5 5 31.7 5.9 69.8-4.7 103-7-.2 1 12.8 1.1 7.5 4-2.1 1.1-39.8 3.7-47.5 5-6.4 1.1-13 2.2-19.5 2-.7.9-1.5 1.4-2.5 2-34.1 3.9-62.9-5.7-92-22.5 20.5 3.4 41.9 6.9 60.5-4.5 21-12.8 30.4-42.3 49-59 15.3-13.8 29.6-15.7 44-25 9.3-6 17.9-18.7 30-26 35.7-21.7 58-19.9 96-25 11.1-1.5 28-12 42-14 35.1-5 70.9-5 106 0 5.3.8 14.7 5.5 19 6 9.9 1.1 19.8-1.5 31 0 40.8 5.6 95.8 44.8 126 72 20.8 18.7 54 77.1 55.5 104.5.9 16.2-2.7 36.7-13 49.5" style="fill:#145b80"/><path d="M669 157c-1.4 0-4 .7-4 2.5 0 1.5 17.6 15.8 21 21 3.4 5.3 5.5 13.5 9 19l9 49.5c0 6.8-1.2 15.2-2 22l-3.5 4c-2.9-4.1.5-6.1.5-6.5.1-5-2.9-48.3-5.5-48.5l-1.5 8.5c-1.3-6.9-2.5-15-5-21.5 4-5.3-1.9-16-5-21.5-11.9-21.4-35-39-60-40 14.8 4.1 24.7 10.4 36 20.5-2.6 1.8-4.5 4.9-4 8-15.7-15.7-46-28.3-66.5-34-.6-.2-6.3-1.9-5.5 1-5.4-2.2-11.9-5.9-18-6 34.6-3.2 76.2 1.3 105 22" style="fill:#3ea8cb"/><path d="M564 135c6.1.1 12.6 3.8 18 6 80.9 33 89.9 145.8 78 220.5 20.8-17.7 33.7-49 39-75.5 1-5.1 2.4-9.7 3-15 .8-6.8 1.9-15.2 2-22 .2-17.2-2.9-43-9-59l5-3c17.6 45.8 8.1 90.6 1 137-6.2 9.6-8.7 21.4-14 31.5-5.2 9.9-12.8 18.7-19 28 3.3 4.2 24.1-9 28-11.5 12.9-8.3 21.5-17.3 32-28 36-36.6 58-72.5 47-126l4-6c11.1 44.6-1.7 81.6-23 121-11.3 20.9-27.8 43.6-46 58.5 7.4 2.3 15.6 0 22-1.5 7.3-1.7 13.3-4.8 20-8 8.3-4 14.5-7.9 22-13 3.2-2.2 6-4.6 9-7 27.7-21.6 51-49.9 50-87 1.8.8 3.3-1.1 3.5-1 1.1.4-.3 2.9 1.5 3-.1 1.6.1 3.4 0 5-3 42.8-33.7 81.4-65 109-5.4 4.8-11.5 8.8-16.5 14 23.3-.7 47.6-6.7 67-20 5.1-3.5 17.8-14.4 21.5-19 1.1 3.6-1.1 4.9-2 7l-49 40.5c12.1 1.8 20.7-10.2 31-13.5-10.7 12.7-22.3 23.4-37 31.5 20.1 17.3 30.7 25.9 35 53 8.3 51.9-1.5 188.2-32 230.5l-4-1c33.3-43.4 31.9-160.2-29-175l-1-4c33.9 9.8 46.8 41.4 54.5 73 4.3-27.8 6.7-56.3 5.5-84.5-.4-8.8-1.7-32.5-4-40-3.7-12.4-34.9-38.6-46-46.5-9.7-6.9-21.2-13.9-32-19-33-15.6-72-25.1-108.5-27-14.3-.7-62.6 3.6-70.5 0-4.1-1.9-12.8-10.9-17.5-14-36.6-24.6-75.2-47.4-118.5-58-29-7.1-95.6-10.5-122 4-1.9 1.1-4.4 3.4-6 5l-3-4.5c3.3-2.4 4.3 1.6 4.5 1.5 2.2-.5 16.9-16.1 19.5-19 7.7-1.3 45.4-3.9 47.5-5 5.3-2.9-7.7-3-7.5-4 6.7-.5 14.3-1.9 21-2 52.8-.5 102.8 19.9 142.5 54 1.7-2.2-5.6-9.5-7.5-11.5-10.6-11.4-25.5-22.9-39-30.5-1.1-.6-2.6-.8-3-1-38-29.7-80.1-35.2-127-27-24.6 4.3-49 15.5-73 19l-4-3c35-4.9 66.3-24.5 102-27 77.9-5.4 157.6 40 199.5 104 3.8.6 1.9-2.5 1.5-4.5-1.5-7.8-5.5-16-8-23.5-9.5-28.4-20.9-56.5-40-80-24.4-36.2-64.8-61.8-109-65 11.1-3.9 24.7-.8 35.5 3 43.6 15.4 84.8 62 106.5 102 11.8 21.8 19.7 47.5 32.5 68 4.6-3.1 7.6-6.2 10.5-11 3.4-5.6 4.4-9.6 5-15 4.2-41.1-5.3-94.2-26-130-3.8-6.5-9.2-14.2-14-20-14.1-17-28-27.8-49-35 1.6-3.8-.6-3-3.5-4-7.6-2.6-16-4.8-24-6-.3-1.7 6.7-3.4 8.5-4 3 4 11.3 3.5 16 5 36.5 11.7 62.6 40.5 79 74 23.1 47.3 25.3 98.8 42 147.5 2.7-4.8 3.3-10.5 5-15.5 2.4-6.9 5.9-14.4 8-21 19.4-61 16.8-124.6-33-170-10.5-9.5-18.6-15.8-32-21-2.3-.9-4-2.1-7-3-4.3-3.1-21.7-8.4-5-8" style="fill:#124a64"/><path d="M569 143c3 .9 4.7 2.1 7 3l-5 1.5c6.6 2 5.6 7.6 6 8 1.9 2 5.3 2.3 5.5 2.5 16.7 17.8 37.1 34.6 45.5 58-7.1-9.9-14.8-19.9-23-29-11.4-12.7-27.9-27.6-44-34 0-1.3 1.2-3.3 0-4.5-7-6.9-46.5-7.8-56-1.5l-.5 2c2.6.2 8.9.1 8.5 3-1.8-.3-3.4-2.3-6 0-4.7-1.5-13-1-16-5 27.8-9.4 50.4-12.5 78-4" style="fill:#30b4da"/><path d="M654 174c23.1 23.1 36.3 80.4 39 112.5l6-.5c-5.3 26.5-18.2 57.8-39 75.5 11.9-74.7 2.9-187.5-78-220.5-.8-2.9 4.9-1.2 5.5-1 20.5 5.7 50.8 18.3 66.5 34" style="fill:#1d79a4"/><path d="M561 153c-16.7-6.6-38.3-7.9-56-6 9.5-6.3 49-5.4 56 1.5 1.2 1.2 0 3.2 0 4.5" style="fill:#9fe3f7"/><path d="M663 145c.6 0 1.4-.1 2 0 16.1 9.5 28.3 24.7 35 42l-5 3c-3.9-10.2-14.4-25.2-23-32 2-6.1-17-11.7-17-13.5 1-3.6 5.5.1 8 .5" style="fill:#0d3245"/><path d="M774 216c-.3 12.5-1.3 25-2 37.5-.2 3.9 2.5 3.3 2 8-1.3 11.9-18.3 47.2-26 57-1.3 1.6-2.8-1.3-3.5-.5-2.7 3.1-4 9.4-8 12 1.3-4.3 3.4-9.1 5.5-13 1.1-2 1.9-5 5-5-.2.6-2.2 5.2 1 3.5 4.1-10 9.9-19.6 13-30 .3-1.1 2-5.2-1-4.5.2-.9 2.9-12.8 3-13.5.1-1.5-2.1-3.3-2-6 0-.4 2-1.6 2-2 .3-9.3-3.1-20.9 0-30.5 1.1 8.1 1 16.3 1 24.5 6.9-27.5 4.7-49.5-16-69.5-5.4-5.2-26-20-32.5-21-12.2-1.9 9 12.6 11.5 15.5 19.3 22.2 25.9 46.6 25 75.5-3.4 31.5-16.2 59-32 86-.9 1.6-5 10.9-7 8.5 4-7.3 9.4-15.2 13-22.5 29-58.6 28.2-135.7-35-170-10.4-5.6-13.9-8.6-26-11-.6-.1-1.4 0-2 0-.5-3 3.9-2.1 5.5-2 41.4 3.6 95.3 30.3 105.5 73" style="fill:#319cc2"/><path d="M687 207c-6-15.7-16.6-29.9-29-41-11.3-10.1-21.2-16.4-36-20.5 25 1 48.1 18.6 60 40 3.1 5.5 9 16.2 5 21.5" style="fill:#4dbae0"/><path d="M691 156c35.2 41.8 51.3 96.4 39 150.5-1.2 5.2-4.8 12-6 17-.6 2.7-2 2.6 2 2.5-3.6 7.3-9 15.2-13 22.5 2 2.4 6.1-6.9 7-8.5l8 4c-10.5 10.7-19.1 19.7-32 28-.6-15.6 2.6-32.3 5-48 7.1-46.4 16.6-91.2-1-137-6.7-17.3-18.9-32.5-35-42 12.1 2.4 15.6 5.4 26 11" style="fill:#1e7098"/><path d="M561 153c16.1 6.4 32.6 21.3 44 34-2.3.2-9.8 8-10.5 8-.8 0-8.8-10.1-11-12-22.1-18.8-41.7-26.9-70.5-31 .4-2.9-5.9-2.8-8.5-3l.5-2c17.7-1.9 39.3-.6 56 6" style="fill:#3c99be"/><path d="M576 146c13.4 5.2 21.5 11.5 32 21v2c-1.4-1.3-18.6-14.4-20-11.5 21.6 14.9 34.7 37.1 47 59.5 1.6 6 .5 8.5 1 11-3.8-3.2-5.2-8.1-8-12-8.4-23.4-28.8-40.2-45.5-58-.2-.2-3.6-.5-5.5-2.5-.4-.4.6-6-6-8z" style="fill:#289dc7"/><path d="M513 152c28.8 4.1 48.4 12.2 70.5 31 2.2 1.9 10.2 12 11 12 .7 0 8.2-7.8 10.5-8 8.2 9.1 15.9 19.1 23 29 2.8 3.9 4.2 8.8 8 12 1.4 7.1 5.2 13.9 5 21.5l-8-20c1.3 13.5 7.9 28.5 9 43 1.5 19-2.4 32.4-4 50-.2 1.9-1.7 17.7 3 14.5-2.1 6.6-5.6 14.1-8 21l-6-31.5c-10.9-35.4-18.9-72.3-37.5-104.5l-3.5 4c-16.4-33.5-42.5-62.3-79-74 2.6-2.3 4.2-.3 6 0" style="fill:#1d7ca8"/><path d="m508 160-7.5 3c23 6.9 43.7 21.4 59 40l-.5-7c4.8 5.8 10.2 13.5 14 20l-3 2.5c-13.5-13.8-32.8-30.6-49.5-40.5-1.9-1.1-13.2-7.9-14-8-.2 0-2 2.9-3.5 3-21.1-8.3-44-10.6-66.5-8-5.9.7-16.4 2.9-21.5 6-6 1.2-12.2 5.3-18.5 6l.5 3c-12.2 2.1-19.8 7.2-31 12 25.3-35.7 102.8-44.5 142-32" style="fill:#2ca3c8"/><path d="M726 326c-4 0-2.6.2-2-2.5 1.2-5 4.8-11.8 6-17 12.3-54.1-3.8-108.7-39-150.5 63.2 34.3 64 111.4 35 170" style="fill:#2585b1"/><path d="M608 169c11.6 10.8 22.9 32.8 27 48-12.3-22.4-25.4-44.6-47-59.5 1.4-2.9 18.6 10.2 20 11.5" style="fill:#61e0f6"/><path d="M669 157c1.1.8 2.9.9 3 1 8.6 6.8 19.1 21.8 23 32 6.1 16 9.2 41.8 9 59l-9-49.5c-3.5-5.5-5.6-13.7-9-19-3.4-5.2-21-19.5-21-21 0-1.8 2.6-2.4 4-2.5" style="fill:#5adaf3"/><path d="M510 161c21 7.2 34.9 18 49 35l.5 7c-15.3-18.6-36-33.1-59-40l7.5-3c.8.3 1.2.7 2 1" style="fill:#4fe1f6"/><path d="M748 184c2.3 8.3 8.4 15.2 11 23.5 2 6.4 3.1 14.8 4 21.5-3.1 9.6.3 21.2 0 30.5 0 .4-2 1.6-2 2-.1 2.7 2.1 4.5 2 6 0 .7-2.8 12.6-3 13.5-2.9 11.6-9.2 20.8-13 31-3.1 0-3.9 3-5 5-10.1-3.6 3.6-21 6-29.5 3-10.9 3.7-22.2 4-33.5.9-28.9-5.7-53.3-25-75.5-2.5-2.9-23.7-17.4-11.5-15.5 6.5 1 27.1 15.8 32.5 21" style="fill:#3da4cd"/><path d="M503 173c22.4 8.8 44.9 29.1 60 47.5 11.4 13.8 30 37.7 26.5 55.5-17.3-32.5-38.6-66.6-71-86-28-16.7-71.3-25.3-103.5-19 5.1-3.1 15.6-5.3 21.5-6 22.5-2.6 45.4-.3 66.5 8" style="fill:#58c1e5"/><path d="M687 207c2.5 6.5 3.7 14.6 5 21.5l1.5-8.5c2.6.2 5.6 43.5 5.5 48.5 0 .4-3.4 2.4-.5 6.5l3.5-4c-.6 5.3-2 9.9-3 15l-6 .5c-2.7-32.1-15.9-89.4-39-112.5-.5-3.1 1.4-6.2 4-8 12.4 11.1 23 25.3 29 41" style="fill:#369cc6"/><path d="M641 337c-4.7 3.2-3.2-12.6-3-14.5 1.6-17.6 5.5-31 4-50-1.1-14.5-7.7-29.5-9-43l8 20c.2-7.6-3.6-14.4-5-21.5-.5-2.5.6-5-1-11-4.1-15.2-15.4-37.2-27-48v-2c49.8 45.4 52.4 109 33 170" style="fill:#226f98"/><path d="M503 173c1.5 0 3.3-3 3.5-3 .8 0 12.1 6.9 14 8 16.7 9.9 36 26.7 49.5 40.5l3-2.5c20.7 35.8 30.2 88.9 26 130-1.2 0-1.3-2.1-2-3 .4-22.7-3.6-37.4-15-56.5-33.5-56.1-116.5-118.4-185-106.5l-.5-3c6.3-.7 12.5-4.8 18.5-6 32.2-6.3 75.5 2.3 103.5 19 32.4 19.4 53.7 53.5 71 86 3.5-17.8-15.1-41.7-26.5-55.5-15.1-18.4-37.6-38.7-60-47.5" style="fill:#2b91bb"/><path d="M597 343c-22.7-26.4-40.6-58.8-65-85.5-46.7-51-97.6-74.1-168.5-61.5-1.8-2.1 2-3.3 2.5-4 11.2-4.8 18.8-9.9 31-12 68.5-11.9 151.5 50.4 185 106.5 11.4 19.1 15.4 33.8 15 56.5" style="fill:#1b769f"/><path d="M763 229c-.9-6.7-2-15.1-4-21.5-2.6-8.3-8.7-15.2-11-23.5 20.7 20 22.9 42 16 69.5 0-8.2 0-16.4-1-24.5" style="fill:#97e6f9"/><path d="M833 275c1 37.1-22.3 65.4-50 87-1.8-2.6-.9-2.2.5-4 6.8-9 16.1-16.5 21.5-27 3.8-4 6.8-9.5 9-14.5 8.6-19.8 16.6-54 0-70.5-3.4-10.5-4.8-9.5-11-17-3.8-4.6-8.2-8.8-12.5-13-1-1-2.6-3.5-2.5 0-2.2-2.9-5-14.8-10-9-.4-1.4-4.6-9.5-3.5-10 26.6 15.9 57.6 44.8 58.5 78" style="fill:#2a98bd"/><path d="M409 199c44.2 3.2 84.6 28.8 109 65-16-19.7-35-35.1-58-46-24.3-11.6-43.6-15.7-71-14-8 .5-17.8 2.7-26 4-5.6.9-11.2 3.3-17 2.5l16-8.5c15.1-3 31.6-4.1 47-3" style="fill:#4ddaef"/><path d="m362 202-16 8.5c5.8.8 11.4-1.6 17-2.5.2 2.8-5.4 4.2-7.5 5-13.4 5.1-34.9 11.6-46.5 19-.4-3 4.4-6.4 6.5-8 13.5-10.7 29.9-18.7 46.5-22" style="fill:#13a1ce"/><path d="M389 204c-.9 3.5 3.1 3.4 5.5 4 5 1.2 13.2 2.3 16.5 3v2c-7.1-.8-13.8-1.3-21-1-35.1 1.6-53 13.1-79 34-2.4 2-8.3 4.2-10.5 6-5.1 4.2-9.9 13.7-15 18-.8.7-2-1.4-2.5-1 7.8-12.8 12.7-28.5 26-37 11.6-7.4 33.1-13.9 46.5-19 2.1-.8 7.7-2.2 7.5-5 8.2-1.3 18-3.5 26-4" style="fill:#25aed9"/><path d="m460 218-3.5 6c-14.3-7.4-30-9.7-45.5-13-3.3-.7-11.5-1.8-16.5-3-2.4-.6-6.4-.5-5.5-4 27.4-1.7 46.7 2.4 71 14" style="fill:#2d95be"/><path d="M788 216c1 1.3 2 2.7 3 4l4 37.5c-2.4 32.1-11.5 63.4-28 91 .2 2.7 8.1-2.3 7 3L752 382c-6.7 3.2-12.7 6.3-20 8 5.5-16.4 16.7-30.4 23-46.5.6-1.6 3.9-9.4 1-10.5 21.3-39.4 34.1-76.4 23-121-.4-1.5-.5-3.4-1-5 5-5.8 7.8 6.1 10 9" style="fill:#2176a1"/><path d="M460 218c23 10.9 42 26.3 58 46 19.1 23.5 30.5 51.6 40 80-30.9-25.1-56.5-59.7-94.5-76-32.9-14.1-95.8-15.2-129-2-.4.1-5.1 2.8-4.5 4-23.6 5-47.7 14.3-72 20 3.6-4.7 10.1-8.4 15-12-.2.6 3.3 1.1 3.5 1 27-9.1 52.8-26.7 82-33 66.9-14.4 134 14 180 62 4.1-1-5.7-15-7.5-17.5-14-20.1-42.8-45.3-64-57.5-17.2-9.9-36-17.7-56-20v-2c15.5 3.3 31.2 5.6 45.5 13z" style="fill:#227ba5"/><path d="M390 212c2 1.9-1.4 2.7-2.5 3-8.2 2.3-17.2 2.8-24.5 8-24.2 6.3-51.5 24.8-68.5 43l16.5-20c26-20.9 43.9-32.4 79-34" style="fill:#b1f0fb"/><path d="M411 213c20 2.3 38.8 10.1 56 20-1.3 3-1.6 1.7-3.5 1-37.3-14.5-59-21.8-100.5-11 7.3-5.2 16.3-5.7 24.5-8 1.1-.3 4.5-1.1 2.5-3 7.2-.3 13.9.2 21 1" style="fill:#48c0e4"/><path d="m803 229-3 1c-1.9-2.8-6.7-7.1-9-10-1-1.3-2-2.7-3-4-.1-3.5 1.5-1 2.5 0 4.3 4.2 8.7 8.4 12.5 13" style="fill:#89d6f0"/><path d="M775 218c11 53.5-11 89.4-47 126l-8-4c15.8-27 28.6-54.5 32-86-.3 11.3-1 22.6-4 33.5-2.4 8.5-16.1 25.9-6 29.5-2.1 3.9-4.2 8.7-5.5 13 4-2.6 5.3-8.9 8-12 .7-.8 2.2 2.1 3.5.5 7.7-9.8 24.7-45.1 26-57 .5-4.7-2.2-4.1-2-8 .7-12.5 1.7-25 2-37.5 0 .1.5-.3 1 2" style="fill:#2787b6"/><path d="M467 233c21.2 12.2 50 37.4 64 57.5 1.8 2.5 11.6 16.5 7.5 17.5-46-48-113.1-76.4-180-62-29.2 6.3-55 23.9-82 33-.2 0-3.7-.4-3.5-1 3.6-2.7 6.6-6.1 10-9 .5-.4 1.7 1.7 2.5 1 5.1-4.3 9.9-13.8 15-18 2.2-1.8 8.1-4 10.5-6l-16.5 20c17-18.2 44.3-36.7 68.5-43 41.5-10.8 63.2-3.5 100.5 11 1.9.7 2.2 2 3.5-1" style="fill:#3ba0c8"/><path d="M800 230c8.2 12.1 13.9 21.1 16 36 .8 5.8 1.5 11.2 1 17-.5-3.1-3.7-10.1-7-5.5-.9 1.3-4.9 32.1 4 27.5-1.6 6.4-4.7 11.3-7 17l-33 47c-7.5 5.1-13.7 9-22 13l22-30.5c1.1-5.3-6.8-.3-7-3 16.5-27.6 25.6-58.9 28-91l-4-37.5c2.3 2.9 7.1 7.2 9 10" style="fill:#3091bd"/><path d="M633 358c-1.7 5-2.3 10.7-5 15.5-16.7-48.7-18.9-100.2-42-147.5l3.5-4c18.6 32.2 26.6 69.1 37.5 104.5z" style="fill:#176088"/><path d="M803 229c6.2 7.5 7.6 6.5 11 17 1.5 4.7 4.6 15.6 2 20-2.1-14.9-7.8-23.9-16-36z" style="fill:#bfeefb"/><path d="M805 331c.2-.4 1.4-7.4 2-9 2.3-5.7 5.4-10.6 7-17 1.3-5.3 3.8-17 3-22 .5-5.8-.2-11.2-1-17 2.6-4.4-.5-15.3-2-20 16.6 16.5 8.6 50.7 0 70.5-2.2 5-5.2 10.5-9 14.5" style="fill:#2ecaeb"/><path d="M558 344c2.5 7.5 6.5 15.7 8 23.5.4 2 2.3 5.1-1.5 4.5-41.9-64-121.6-109.4-199.5-104 2-2.9-.7-1.9-2.5-2-12-.4-21 1.6-32.5 4-.6-1.2 4.1-3.9 4.5-4 33.2-13.2 96.1-12.1 129 2 38 16.3 63.6 50.9 94.5 76" style="fill:#196a93"/><path d="M365 268c-35.7 2.5-67 22.1-102 27-10.2 1.4-20.2 2.3-30.5 1l25.5-6c24.3-5.7 48.4-15 72-20 11.5-2.4 20.5-4.4 32.5-4 1.8 0 4.5-.9 2.5 2" style="fill:#30c7e7"/><path d="M820 378c21.9-17.6 37-53.6 27.5-81 3.8 36.2-25 76.3-55.5 93-2.7 1.5-10.1 4.7-13 5 8.6-3.8 14.1-11.8 20.5-17 1.3-1 1.8 2.2 2 2 18.9-15.8 40.5-48.6 42.5-73.5.5-6.2 1.7-24.1-6-24.5.1-1.6-.1-3.4 0-5 .1-1.5 0-3 0-4.5 23.1 31.6 23.9 88-18 105.5" style="fill:#299ac8"/><path d="M467 306c-46.2-25-71.1-25.1-122.5-25-1.8 0-5 1-4.5-2 46.9-8.2 89-2.7 127 27" style="fill:#146083"/><path d="M817 283c.8 5-1.7 16.7-3 22-8.9 4.6-4.9-26.2-4-27.5 3.3-4.6 6.5 2.4 7 5.5" style="fill:#37a7d2"/><path d="M340 279c-.5 3 2.7 2 4.5 2 51.4 0 76.3 0 122.5 25 .4.2 1.9.4 3 1 .6 8.5-16.2-3.5-20.5-5-26.8-9.6-53.1-13.6-81.5-13-28.2.6-52.4 7.3-79.5 11-12.8 1.8-25.9 1-38.5 4-5-.9-11.6-1.5-15.5-5 10.9 2 21.7.6 32.5-1 24-3.5 48.4-14.7 73-19" style="fill:#147aa7"/><path d="M747 312c3.8-10.2 10.1-19.4 13-31 3-.7 1.3 3.4 1 4.5-3.1 10.4-8.9 20-13 30-3.2 1.7-1.2-2.9-1-3.5" style="fill:#1987bc"/><path d="M779 395c-4 .4-3 0-6-4 31.3-27.6 62-66.2 65-109 7.7.4 6.5 18.3 6 24.5-2 24.9-23.6 57.7-42.5 73.5-.2.2-.7-3-2-2-6.4 5.2-11.9 13.2-20.5 17" style="fill:#196d99"/><path d="M368 289c-1.3 5 6 1.5 6 6-6.7 0-14.3 1.5-21 2-33.2 2.3-71.3 12.9-103 7 12.6-3 25.7-2.2 38.5-4 27.1-3.7 51.3-10.4 79.5-11" style="fill:#2fcaeb"/><path d="M470 307c13.5 7.6 28.4 19.1 39 30.5 1.9 2 9.2 9.3 7.5 11.5-39.7-34.1-89.7-54.5-142.5-54 0-4.5-7.3-1-6-6 28.4-.6 54.8 3.4 81.5 13 4.3 1.5 21.1 13.5 20.5 5" style="fill:#24a3d0"/><path d="M820 378c-6 4.8-16.4 10.2-23.5 13-.8.3-5.3 2-4.5-1 30.5-16.7 59.3-56.8 55.5-93 9.5 27.4-5.6 63.4-27.5 81" style="fill:#176d9a"/><path d="M594 361c-2.9 4.8-5.9 7.9-10.5 11-12.8-20.5-20.7-46.2-32.5-68z" style="fill:#124f71"/><path d="M313 306c-2.6 2.9-17.3 18.5-19.5 19-.2 0-1.2-3.9-4.5-1.5l3 4.5c-12.1 12-23.5 36.9-32 52-6.5 3.3-16.2 9.6-22 14 8.8-16.4 16-33.8 26-49.5 4.1-6.4 21.8-31.5 27-34.5 1-.6 1.8-1.1 2.5-2 6.5.2 13.1-.9 19.5-2" style="fill:#0e506c"/><path d="M420 319c-3.3 1.4-7.5 4.8-6 9-.5-.2-1.5.2-2 0-5.4-1.6-11.3-4.9-17.5-6-32.1-5.8-64.4-1.2-96.5 1 26.4-14.5 93-11.1 122-4" style="fill:#c6d6dd"/><path d="M412 328c-1.8 8-13.6 26.6-14 33.5-.1 2.8 4.4.1 2 3.5-9-1.4-18-2.3-27-3-39.4-3-77.1 0-113 18 8.5-15.1 19.9-40 32-52 1.6-1.6 4.1-3.9 6-5 32.1-2.2 64.4-6.8 96.5-1 6.2 1.1 12.1 4.4 17.5 6" style="fill:#fefefe"/><path d="M556 391c-.9 4.5-11 0-13.5-1-42.9-17.3-83.1-47.9-128.5-62-1.5-4.2 2.7-7.6 6-9 43.3 10.6 81.9 33.4 118.5 58 4.7 3.1 13.4 12.1 17.5 14" style="fill:#a2c6d4"/><path d="M807 322c-.6 1.6-1.8 8.6-2 9-5.4 10.5-14.7 18-21.5 27-1.4 1.8-2.3 1.4-.5 4-3 2.4-5.8 4.8-9 7z" style="fill:#23abd7"/><path d="M701 324c-2.4 15.7-5.6 32.4-5 48-3.9 2.5-24.7 15.7-28 11.5 6.2-9.3 13.8-18.1 19-28 5.3-10.1 7.8-21.9 14-31.5" style="fill:#14557b"/><path d="M414 328c45.4 14.1 85.6 44.7 128.5 62 2.5 1 12.6 5.5 13.5 1 7.9 3.6 56.2-.7 70.5 0 36.5 1.9 75.5 11.4 108.5 27 .6 12.4 1.9 25.1 1 37.5-1.1 14.6-9.3 32.6-10 44.5l-2.5 4c-40.6-38.9-96.2-62.4-150-77-22.6-6.2-56-8.4-75.5-15-6.9-2.3-22.4-17.1-30.5-22-20.4-12.4-44-21.2-67.5-25 2.4-3.4-2.1-.7-2-3.5.4-6.9 12.2-25.5 14-33.5.5.2 1.5-.2 2 0" style="fill:#b5d6e3"/><path d="M732 390c-6.4 1.5-14.6 3.8-22 1.5 18.2-14.9 34.7-37.6 46-58.5 2.9 1.1-.4 8.9-1 10.5-6.3 16.1-17.5 30.1-23 46.5" style="fill:#17618b"/><path d="m373 362 35.5 13c30.5 14.4 54.9 35.7 75.5 62 61.5 83.7 54.2 209.3-35.5 270C260.2 834.4 46.6 539 238 394c5.8-4.4 15.5-10.7 22-14 35.9-18 73.6-21 113-18m-88 28c-.6.1-1.4-.2-2 0-107.5 29.2-134.6 177.2-68 261.5 93.8 118.9 286.7 55.5 280-95 0-1.8-.6-11.1-3-11.5-4.8-59.5-44.3-118.6-98-145-37.8-18.6-68.6-20.4-109-10" style="fill:url(#a)"/><path d="M400 365c23.5 3.8 47.1 12.6 67.5 25 8.1 4.9 23.6 19.7 30.5 22-.4 2.1.9 1.6 2 3 7.6 9.6 16.7 18.1 24 28 26.8 36.5 39.6 76.5 39 122-2 .7-13.6 4.9-14 5.5-.9 1.3-2.1 18.3-3 22-5.9 24.9-15.1 51.5-30 72.5-34 48.2-94.6 77.7-153.5 76-1.8 0-4.9 1-4.5-2 157.6-10.8 221.5-180.5 126-302-20.6-26.3-45-47.6-75.5-62L373 362c9 .7 18 1.6 27 3" style="fill:#23545f"/><path d="M843 373c-4.4 10.9-10.6 18.2-18 27-10.3 3.3-18.9 15.3-31 13.5z" style="fill:#04293e"/><path d="m394 400-36.5-9c-28.5-3.2-57.7 1.9-83.5 14l11-15c40.4-10.4 71.2-8.6 109 10" style="fill:#0a0a1d"/><path d="M283 390c-.6 1.1-2 1.4-3 2-29 8.7-51 29.8-68 54-46.1 65.6-40.5 146.5 11 207 13.1 15.4 27 28.3 45 38 60.3 32.6 132.6 23.3 181-25 33.5-33.3 46.8-73.8 43-121 2.4.4 2.9 9.7 3 11.5 6.7 150.5-186.2 213.9-280 95-66.6-84.3-39.5-232.3 68-261.5" style="fill:#f3f8f9"/><path d="m285 390-11 15s.3.4-1 1c-4.1 2-10.4 4.8-14 7 4.2-8.7 13.1-16.1 21-21 1-.6 2.4-.9 3-2 .6-.2 1.4.1 2 0" style="fill:#6f6e7c"/><path d="M394 400c53.7 26.4 93.2 85.5 98 145 3.8 47.2-9.5 87.7-43 121h-1c14.4-14.2 20.8-47-8.5-39-5.7 1.6-12.4 9.5-16 11-1.1.5-19.6 5.3-22.5 6-6.3 1.5-13.6 3.5-20 4 .3-7-17-3.9-22.5-5-15.9-3.3-33.2-12.2-46-22-4.7-3.6-14.9-19.3-18.5-12-6.3-8.3-14.7-21.2-18-31-6.4-19-9.3-50.8-9-71 35.8-9.6 55.2-72.7 16-88-1-.4-9.5-3-10-3v-10c1.3-.6.9-1 1-1 25.8-12.1 55-17.2 83.5-14zm-67.5 45c-11.1 2.8-7.7 22.3 1 27 25.4 13.6 27.5-34.2-1-27m120 20c-7.5.8-8.1 13-1 16 12.4 5.3 12.6-17.2 1-16m-88 68c-60.8 4.5-40.3 87.5 18 85 65.1-2.8 47.9-89.9-18-85m-75 12c-5.6 8.9-10.9 20.6-4 30 7.7-7.4 13-22.2 4-30" style="fill:url(#b)"/><path d="M280 392c-7.9 4.9-16.8 12.3-21 21-10.7 6.7-20.9 16.5-29 26-9.8 11.5-20.2 26.6-25 41-1.4-2.1-2.3-12.9-2-14.5 1-5.3 9.8-13.2 9-19.5 17-24.2 39-45.3 68-54" style="fill:#080d26"/><path d="M273 416c-12.3-.5-33.9 15.5-41 25l-2-2c8.1-9.5 18.3-19.3 29-26 3.6-2.2 9.9-5 14-7z" style="fill:#8d8fa9"/><path d="M726 500v7.5c.4 1.4 16.1 17.7 19 21.5.7.9 1.5 2 2 3-1.7-.2-2.4-.8-4-1l-17.5-21-8.5 21.5c.8 1 9.9.4 12 .5-.5 1-2 1.5-3 2-4 .9-8.3-.8-12-1 .5-5.8 9.4-20.4 9-25-.5-5-33.6-29.2-39.5-33-53.1-33.7-121.8-50.9-183.5-60-1.1-1.4-2.4-.9-2-3 19.5 6.6 52.9 8.8 75.5 15 53.8 14.6 109.4 38.1 150 77z" style="fill:#081119"/><path d="M723 508c-4.9-1.6-11.8-14.3-17-11-.2-3.4-8.1-8.5-11.5-11-12.8-9.4-92.2-48.9-104-47-.5 0-3.9 4.5-6 5-5.5 1.3-17.9-2-24-2-12.1 0-24.5-.7-36.5 1-7.3-9.9-16.4-18.4-24-28 61.7 9.1 130.4 26.3 183.5 60 5.9 3.8 39 28 39.5 33" style="fill:#cfe4eb"/><path d="M273 416c.5 0 9 2.6 10 3 9.2 12.7 4 20.9-4 32.5 33.4-26.4 24.5 35.3.5 24.5-4.1-1.8-4.3-8.1-7.5-9.5-3.7 13.8-4.8 26.3-5 40.5-8.8 2.4-15.3 3.2-24 0-24.3-8.9-24.4-48-11-66 7.1-9.5 28.7-25.5 41-25" style="fill:#f0f1f7"/><path d="M767 437c-5.2 31-9.5 63.2-22 92-2.9-3.8-18.6-20.1-19-21.5V500c.7-11.9 8.9-29.9 10-44.5.9-12.4-.4-25.1-1-37.5 10.8 5.1 22.3 12.1 32 19" style="fill:#86acbc"/><path d="M267 507c.2-14.2 1.3-26.7 5-40.5 3.2 1.4 3.4 7.7 7.5 9.5 24 10.8 32.9-50.9-.5-24.5 8-11.6 13.2-19.8 4-32.5 39.2 15.3 19.8 78.4-16 88" style="fill:#b6cbe9"/><path d="M757 535c-3.1-.9-6.8-2.6-10-3-.5-1-1.3-2.1-2-3 12.5-28.8 16.8-61 22-92 11.1 7.9 42.3 34.1 46 46.5 2.3 7.5 3.6 31.2 4 40 1.2 28.2-1.2 56.7-5.5 84.5-7.7-31.6-20.6-63.2-54.5-73" style="fill:#3e97b9"/><path d="M232 441c-13.4 18-13.3 57.1 11 66-5 37.8-1.4 69.8 21 101 .9 1.3.9 1.9 1 2-3.3 8.6-6.9 40.7-3 47l-3 8c-7.1-5.6-17.2-14.2-23-21-37.1-43.3-48.9-109.8-31-164 4.8-14.4 15.2-29.5 25-41z" style="fill:url(#c)"/><path d="M706 497c.5 9.6-8.4 26.4-8 37-68.3 9.4-71.9 115.9-48 165-15 29.4-30.1 59.6-50 86-26.8 35.5-62.3 66.3-98 92.5l27-3.5c-9 4.1-36.9 8-47.5 9-57.7 5.6-117.2-.6-169.5-26l-32.5-25c-40.9-34.4-53.1-89-58.5-140 11 17.5 49.4 43.8 68.5 52 87.4 37.3 186.6 6.6 239.5-71 23.1-34 33.5-66.5 34-108 .6-45.5-12.2-85.5-39-122 12-1.7 24.4-1.1 36.5-1 6.1 0 18.5 3.3 24 2 2.1-.5 5.5-4.9 6-5 11.8-1.9 91.2 37.6 104 47 3.4 2.5 11.3 7.6 11.5 11m-70.5 4c-8.2 2-10.2 17.3-1 21 20.2 8 22-26.2 1-21" style="fill:url(#d)"/><path d="M326.5 445c28.5-7.2 26.4 40.6 1 27-8.7-4.7-12.1-24.2-1-27" style="fill:#e5e9f3"/><path d="M205 480c-17.9 54.2-6.1 120.7 31 164l-13 9c-51.5-60.5-57.1-141.4-11-207 .8 6.3-8 14.2-9 19.5-.3 1.6.6 12.4 2 14.5" style="fill:#0d3779"/><path d="M446.5 465c11.6-1.2 11.4 21.3-1 16-7.1-3-6.5-15.2 1-16" style="fill:#bfd4ec"/><path d="M723 508c.4 4.6-8.5 19.2-9 25-5.6-.2-10.5.2-16 1-.4-10.6 8.5-27.4 8-37 5.2-3.3 12.1 9.4 17 11" style="fill:#4498b9"/><path d="M635.5 501c21-5.2 19.2 29-1 21-9.2-3.7-7.2-19 1-21m3 4c-8.8.8-6.7 16.3 3 14 6.5-1.5 5.9-14.8-3-14" style="fill:#031e29"/><path d="M638.5 505c8.9-.8 9.5 12.5 3 14-9.7 2.3-11.8-13.2-3-14m-1 4c-4.2 1.9.8 8.2 3 8 4.5-.4 4.6-11.4-3-8" style="fill:#5af2f9"/><path d="M267 507c-.3 20.2 2.6 52 9 71l-12 30c-22.4-31.2-26-63.2-21-101 8.7 3.2 15.2 2.4 24 0" style="fill:url(#e)"/><path d="M637.5 509c7.6-3.4 7.5 7.6 3 8-2.2.2-7.2-6.1-3-8" style="fill:#f4fdfe"/><path d="M743 531c-2.3-.2-10 1.2-14 1-2.1 0-11.2.5-12-.5l8.5-21.5z" style="fill:#90b7c5"/><path d="M747 532c3.2.4 6.9 2.1 10 3l1 4c-56.4-13.7-71.2 73.5-68 112.5 3.2 38.3 31.9 103.9 80 78.5-6.6 5.5-5.5 9.2-18 11-2.7.4-6.1-.2-9 0-.4-5.4-8.9-3.6-14-6-57.1-27-61.6-169.2 0-197.5-.4-.9-17.2.3-19 .5 4.9-4.4 9.2-.2 16-4 1-.5 2.5-1 3-2 4 .2 11.7-1.2 14-1 1.6.2 2.3.8 4 1" style="fill:#051d2a"/><path d="M358.5 533c65.9-4.9 83.1 82.2 18 85-58.3 2.5-78.8-80.5-18-85" style="fill:url(#f)"/><path d="M714 533c3.7.2 8 1.9 12 1-6.8 3.8-11.1-.4-16 4-2.2.2-4.9-.3-7 0-25.8 2.8-42.1 38.7-47 61.5-8.5 39.2-1.1 97.9 29.5 126.5 1.3 1.2 7.4 6.4 9.5 5 10.7 5.9 21.9 6.5 34 4 5.1 2.4 13.6.6 14 6-18.3 1.2-45.7 1.7-62-7-2.9-1.6-15-10.8-17-13 0 0 .2-.6-1-2-2.8-3.3-11.1-16.2-13-20-23.9-49.1-20.3-155.6 48-165 5.5-.8 10.4-1.2 16-1" style="fill:#0d4863"/><path d="M703 538c-60.8 10-63.6 162.3-8 193-2.1 1.4-8.2-3.8-9.5-5-30.6-28.6-38-87.3-29.5-126.5 4.9-22.8 21.2-58.7 47-61.5" style="fill:#051823"/><path d="M729 735c-12.1 2.5-23.3 1.9-34-4-55.6-30.7-52.8-183 8-193 2.1-.3 4.8.2 7 0 1.8-.2 18.6-1.4 19-.5-61.6 28.3-57.1 170.5 0 197.5" style="fill:url(#g)"/><path d="M758 539c60.9 14.8 62.3 131.6 29 175-4.9 6.4-10.9 10.9-17 16-48.1 25.4-76.8-40.2-80-78.5-3.2-39 11.6-126.2 68-112.5m15 22c6.6 21 10 42.9 10 65-2.5-21-22.2-52.1-45.5-32-24.1 20.7-18.6 98.3 19 93 17-2.4 25.6-30.6 26.5-45 5.5.7-3.6 9.4 5 8-6.6 28.1-15 52.8-35 74.5 2.3 1.5 3.8.7 6 .5 27.9-3.1 43.3-52.1 45-75.5 2.3-32.7-6.7-82.9-40-97 3.5 2.4 6.1 5.4 9 8.5" style="fill:#9bcddb"/><path d="M283.5 545c9 7.8 3.7 22.6-4 30-6.9-9.4-1.6-21.1 4-30" style="fill:#162e75"/><path d="M759 725c36.5-19.1 44.8-71.8 39-109-3.2-20.7-11-39.7-25-55-2.9-3.1-5.5-6.1-9-8.5 33.3 14.1 42.3 64.3 40 97-1.7 23.4-17.1 72.4-45 75.5" style="fill:#06354c"/><path d="M798 616c-9 9.2-7.3 22.6-10 34-8.6 1.4.5-7.3-5-8 .3-4.4.5-11.8 0-16 0-22.1-3.4-44-10-65 14 15.3 21.8 34.3 25 55" style="fill:#68c9e0"/><path d="M563 565c-.5 41.5-10.9 74-34 108l-13-8c14.9-21 24.1-47.6 30-72.5.9-3.7 2.1-20.7 3-22 .4-.6 12-4.8 14-5.5" style="fill:#42859d"/><path d="M294 609c.2.3.8 1.7 1 2l-6 23c-9-7.5-16.9-14.6-24-24 0 0 0-.7-1-2l12-30c3.3 9.8 11.7 22.7 18 31" style="fill:#53a8e2"/><path d="M783 626c.5 4.2.3 11.6 0 16-.9 14.4-9.5 42.6-26.5 45-37.6 5.3-43.1-72.3-19-93 23.3-20.1 43 11 45.5 32m-37-31c-21.7 9.3-21.8 57-11 74.5 6.5 10.6 16.7 16.7 28 8.5 1.5-1.1 7-8.1 8-10 9.6-17.7 9.8-49.8-3-66-6.8-8.6-11.9-11.3-22-7" style="fill:#062e42"/><path d="M768 602c.1.9-.3.9-1 1h-1c-3.1-5.4-10.6-4.9-14 0-3 1.4-3 1.3-5 4l-1-12c10.1-4.3 15.2-1.6 22 7" style="fill:#d1f1f6"/><path d="m746 595 1 12c-9.5 12.8-9.3 49.1-1 62.5 4.4 7.1 8.5 9.2 17 8.5-11.3 8.2-21.5 2.1-28-8.5-10.8-17.5-10.7-65.2 11-74.5" style="fill:#98e6f7"/><path d="M766 603c-6.4-.9-6-3.6-14 0 3.4-4.9 10.9-5.4 14 0" style="fill:#073548"/><path d="M766 603h1c7.5 10.9 9.9 27.5 9 40.5-.5 8-4.9 16.6-5 24.5-1 1.9-6.5 8.9-8 10-8.5.7-12.6-1.4-17-8.5-8.3-13.4-8.5-49.7 1-62.5 2-2.7 2-2.6 5-4 8-3.6 7.6-.9 14 0" style="fill:#009ba9"/><path d="M771 668c0-7.9 4.5-16.5 5-24.5.9-13-1.5-29.6-9-40.5.7-.1 1.1 0 1-1 12.8 16.2 12.6 48.3 3 66" style="fill:#99d6dd"/><path d="M381 648c-33.9 2.6-64.8-10.6-86-37-.2-.3-.8-1.7-1-2 3.6-7.3 13.8 8.4 18.5 12 12.8 9.8 30.1 18.7 46 22 5.5 1.1 22.8-2 22.5 5" style="fill:#2498da"/><path d="M289 634c1.3 1 2.4 2.5 3 3 16.5 31.3 65.4 47 99 41-.2 2.7-.6 5.4-1 8-30.5 5-62.9 4.5-92-7-5.1-2-33.8-18.4-36-22-3.9-6.3-.3-38.4 3-47 7.1 9.4 15 16.5 24 24" style="fill:url(#h)"/><path d="M381 648c6.4-.5 13.7-2.5 20-4l-9 30c-39.1-4.8-68.4-12.4-100-37-.6-.5-1.7-2-3-3l6-23c21.2 26.4 52.1 39.6 86 37" style="fill:#56c9f3"/><path d="M759 725c-2.2.2-3.7 1-6-.5 20-21.7 28.4-46.4 35-74.5 2.7-11.4 1-24.8 10-34 5.8 37.2-2.5 89.9-39 109" style="fill:#4ec5e0"/><path d="M448 666c-12.4 12.3-42 25.2-59 29-.6-3.2.6-6 1-9 .4-2.6.8-5.3 1-8 2.8-.5 6.9-.5 9-2.5 0-2.6-6.2-1.3-8-1.5l9-30c2.9-.7 21.4-5.5 22.5-6 3.6-1.5 10.3-9.4 16-11 29.3-8 22.9 24.8 8.5 39" style="fill:#13caf2"/><path d="M392 674c1.8.2 8-1.1 8 1.5-2.1 2-6.2 2-9 2.5-33.6 6-82.5-9.7-99-41 31.6 24.6 60.9 32.2 100 37" style="fill:#10a3df"/><path d="M259 665c4.8 3.8 12 10 17 13l-8 13c-18-9.7-31.9-22.6-45-38l13-9c5.8 6.8 15.9 15.4 23 21" style="fill:#095c97"/><path d="M312 857c52.3 25.4 111.8 31.6 169.5 26 10.6-1 38.5-4.9 47.5-9 .7-.3 1.4-.6 2-1 .6 2.3 1.9.2 3 0 24.3-3.9 50.4-14.2 73-24 55.1-23.8 108.3-60.3 145-108 12.5-1.8 11.4-5.5 18-11 6.1-5.1 12.1-9.6 17-16l4 1c-46.1 63.9-98.1 111.7-170.5 145-104.9 48.3-254.2 62.4-352-9-60.4-44.1-71.4-123.8-72-194 1.9 3.8 11.5 12.6 12.5 15.5 5 14.1 5.5 49.4 10 68 13.9 57.9 39.7 90.6 93 116.5" style="fill:#0e526f"/><path d="M298 679c-4 2.6-3.4 5.5-1 9-5.3-2.1-16.2-7.2-21-10-5-3-12.2-9.2-17-13l3-8c2.2 3.6 30.9 20 36 22" style="fill:#1291d0"/><path d="M529 673c-52.9 77.6-152.1 108.3-239.5 71-19.1-8.2-57.5-34.5-68.5-52-.8-1.3-4.1-8.3-2.5-9 37.1 37.6 85.9 59.7 139.5 56-.4 3 2.7 1.9 4.5 2 58.9 1.7 119.5-27.8 153.5-76z" style="fill:#81b5c8"/><path d="M449 666c-48.4 48.3-120.7 57.6-181 25l8-13c4.8 2.8 15.7 7.9 21 10 29.3 11.5 61.2 13.9 92 7 17-3.8 46.6-16.7 59-29z" style="fill:#0c7ca6"/><path d="M390 686c-.4 3-1.6 5.8-1 9-30.8 6.9-62.7 4.5-92-7-2.4-3.5-3-6.4 1-9 29.1 11.5 61.5 12 92 7" style="fill:#12baea"/><path d="m663 719-58 77c2.5-6.7-4.9-4.1-5-11 19.9-26.4 35-56.6 50-86 1.9 3.8 10.2 16.7 13 20" style="fill:#509fbe"/><path d="M664 721c-3.4 6.4-7.9 12.1-12 18-34.1 49-72.2 95.4-118 134-1.1.2-2.4 2.3-3 0 8.6-5 71.1-69.4 74-77l58-77c1.2 1.4.9 1.9 1 2" style="fill:#041017"/><path d="M681 734c-16.2 28.1-33.6 55.3-52 82l-9-5.5 32-71.5c4.1-5.9 8.6-11.6 12-18 2 2.2 14.1 11.4 17 13" style="fill:#96b9c8"/><path d="M743 741c2.9-.2 6.3.4 9 0-36.7 47.7-89.9 84.2-145 108 6-11.7 14.5-22.2 22-33 18.4-26.7 35.8-53.9 52-82 16.3 8.7 43.7 8.2 62 7" style="fill:#3e97ba"/><path d="M629 816c-7.5 10.8-16 21.3-22 33-22.6 9.8-48.7 20.1-73 24 45.8-38.6 83.9-85 118-134l-32 71.5z" style="fill:#9ac8db"/><path d="M605 796c-2.9 7.6-65.4 72-74 77-.6.4-1.3.7-2 1l-27 3.5c35.7-26.2 71.2-57 98-92.5 0 6.9 7.5 4.3 5 11" style="fill:#76b4cc"/></svg>