<svg xmlns="http://www.w3.org/2000/svg" width="1024" height="1024"><defs><linearGradient id="a" x1="405.011" x2="607" y1="242.651" y2="271.219" gradientUnits="userSpaceOnUse"><stop offset="0%" style="stop-color:#a7ecf8"/><stop offset="86.765%" style="stop-color:#2f99b2"/></linearGradient></defs><defs><linearGradient id="b" x1="449.029" x2="556.667" y1="238.162" y2="246.993" gradientUnits="userSpaceOnUse"><stop offset="0%" style="stop-color:#bfe9f3"/><stop offset="100%" style="stop-color:#53ddf1"/></linearGradient></defs><defs><linearGradient id="c" x1="433.386" x2="585.93" y1="460.018" y2="619.927" gradientUnits="userSpaceOnUse"><stop offset="0%" style="stop-color:#658491"/><stop offset="100%" style="stop-color:#2c5c6c"/></linearGradient></defs><defs><linearGradient id="d" x1="810.036" x2="786.712" y1="450.019" y2="535.909" gradientUnits="userSpaceOnUse"><stop offset="0%" style="stop-color:#84c0d5"/><stop offset="100%" style="stop-color:#569ebb"/></linearGradient></defs><defs><linearGradient id="e" x1="210.678" x2="238.077" y1="450.813" y2="534.439" gradientUnits="userSpaceOnUse"><stop offset="0%" style="stop-color:#84c0d4"/><stop offset="100%" style="stop-color:#589ebb"/></linearGradient></defs><defs><linearGradient id="f" x1="185.433" x2="196.804" y1="482.464" y2="556.597" gradientUnits="userSpaceOnUse"><stop offset="0%" style="stop-color:#0dbce3"/><stop offset="100%" style="stop-color:#009ed4"/></linearGradient></defs><defs><linearGradient id="g" x1="835.535" x2="819.167" y1="483.662" y2="558.902" gradientUnits="userSpaceOnUse"><stop offset="0%" style="stop-color:#0cbde4"/><stop offset="100%" style="stop-color:#009dd2"/></linearGradient></defs><defs><linearGradient id="h" x1="500.478" x2="522.181" y1="479.969" y2="604.085" gradientUnits="userSpaceOnUse"><stop offset="0%" style="stop-color:#01233f"/><stop offset="100%" style="stop-color:#005695"/></linearGradient></defs><defs><linearGradient id="i" x1="667.236" x2="703.538" y1="731.098" y2="738.252" gradientUnits="userSpaceOnUse"><stop offset="0%" style="stop-color:#266f92"/><stop offset="100%" style="stop-color:#0f85a5"/></linearGradient></defs><path fill="#458cbb" d="M313 867c-12.292.018-35.913-9.265-48-14C149.851 807.889 72.032 704.682 51 583.5 20.449 407.469 98.33 234.207 208.5 102 112.442 227.938 44.257 384.257 64 546.5 81.137 687.321 175.743 822.323 313 867m444-14c-12.589 4.962-30.625 12.868-44 13 130.681-45.169 222.614-171.691 243-306.5 24.271-160.499-39.015-317.814-132.5-444.5C931.144 246.789 1003.53 421.563 969 594.5 945.67 711.338 868.205 809.171 757 853"/><path fill="#112735" d="M803 404c-5.865 4.785-8.9 14.443-12 22-14.535 35.428-26.15 76.658-35 114-.405 1.708-.628 3.359-1 5-.869 3.833-7.66 26.244-7 27.5.767 1.458 10.92.431 12 4 .713 2.357-4.817 41.654-5 49-.315 12.632-.217 27.474 1 40 .2 2.054.806 9.362 4 9.5-.172.054-2.937 1.444-3 2-4.222-.016-27.832-1.017-29 1.5-1.41 6.058 5.648 20.565 5 25-.274 1.877-19.173 21.004-22 25-5.609 7.928-9.967 18.652-16 27-25.01 34.605-52.307 67.892-82 98.5-23.571 14.457-36.105 38.43-68.5 49-65.845 21.484-86.164-18.585-131.5-48-31.087-30.174-58.874-64.155-84-99.5-5.792-8.147-9.924-18.518-15-26-3.604-5.312-19.842-21.127-21-25-1.91-6.39 6.728-22.563 2.5-29.5-7.455-3.506-56.143 3.948-68.5 3l32.5-4c11.664-30.597 9.083-68.482 5.5-101 2.4-.323 12.212.685 13-.5-2.448-9.793-4.74-19.673-7-29.5-11.166-48.551-27.12-95.465-46-141.5-.773-.765-7.924 2.028-10 2.5 4.305-2.357 8.728-5.023 13-7.5l-13-47c16.485-58.791 74.142-117.586 126.5-147.5 6.446-3.683 36.496-15.561 38-17 6.02-5.763-7.912-11.189 6-19 52.751-29.618 195.586-29.549 248 1 10.502 6.121 1.088 7.86 2.5 13.5.619 2.471 38.042 20.415 44.5 24.5 51.546 32.609 108.115 87.38 126.5 146.5l-14 46c2.599 3.262 6.735 4.316 10 6.5M443 156c-2.918.534-6.052 1.369-9 2-16.699 3.572-33.95 7.005-49 15.5 4.684 27.123 11.958 53.715 18 80.5 3.118 13.823 20.981 99.414 26.5 104 13.072 10.863 143.458 8.853 158-1 5.547-3.758 7.604-16.582 9.5-23.5 14.2-51.827 22.092-107.633 35-160-1.465-3.608-44.698-15.172-51-16.5-21.892-4.614-46.603-7.854-69-8-22.969-.149-46.458 2.871-69 7m183 70c-.053 1.152.177 1.735-1 2.5.979 3.374 14.742 6.791 18 8.5 30.222 15.855 128.676 80.47 130 115.5.337 8.93-5.567 25.249-8 34.5-2.106 8.006-5.906 15.739-8 24l-23 62c6.423-21.512 14.726-42.518 21-64 15.316-52.442 24.003-61.927-18.5-102-11.567-10.906-24.624-19.779-37.5-29-10.164-7.279-63.543-43.917-72.5-42-.703.151-8.991 7.384-6.5 10-3.891 9.019-5.467 26.802-8 37-2.473 9.954-16.409 73.527-19 76.5-.169.194-3.804 2.15-4.5 2.5-16.749 8.413-139.817 8.624-157 1-2.783-1.235-5.482-3.178-7.5-5.5L395 242c5.059-7.976 1.317-8.017-5.5-7-29.62 4.419-102.56 62.464-122.5 86l-2-.5c14.801-21.584 39.643-34.559 57-53.5 3.224-2.432 6.966-5.829 10-8l58.5-29c.861-1.135.554-3.532.5-5-.33-9.015-7.75-23.998-8-34-44.902 13.732-88.557 48.914-119 84.5-12.086 14.129-43.162 56.231-43 74 .118 12.97 15.5 56.247 20 71.5 10.298 34.907 22.758 69.22 32 104.5 7.098 27.098 13.944 83.453 23 105 1.359 3.233 7.688 8.457 10 11.5 10.092 13.283 78.478 91.38 80 97.5 2.5 10.052 1.131 33.205 3 46 1.469 10.054 8.667 42.975 13 51 2.71 5.019 16.35 15.386 21 20-5.217-16.504-11.525-33.263-14-50.5l3-3c2.554 20.1 9.516 54.174 26 67 1.7 1.322 3.222 2.787 5 4 2.102 1.435.224-1.088 1.5-2l4.5 6c7.996 9.911 43.745 24.929 56.5 26 19.788 1.662 52.771-8.306 65.5-24 1.357-.177 2.783-.366 4-1 4.04-2.104 9.948-7.558 13-11 1.356-1.529 3.799-2.664 5-4.5 1.221-1.866 1.951-5.28 3-7.5 6.883-.333-1.191 5.057.5 7 10.471-10.394 22.053-17.734 27.5-32 .798 2.071 2.684 1.044 4 0 23.575-18.71 45.661-57.181 64-82 4.864-6.583 36.505-42.61 37-45.5.188-1.097-2.734-14.994-3-18.5-1.303-17.153-2.049-28.387-1-46 .014-.237 3.184-3.002-1-3l3-5c5.475-42.328 14.722-83.951 26-125 2.398-8.729 5.438-17.33 8-26 9.022-30.528 20.399-60.404 29-91 8.007-28.484 15.407-35.172 1-63.5-24.487-48.147-91.224-105.066-139-129.5-3.402-1.74-15.377-10.495-18-6.5-1.025 1.562-7.874 33.781-8 36.5M300 666c-2.651 10.235-3.459 28.879 0 38 5.877 15.498 44.631 63.547 57 80 12.117 16.119 22.454 34.412 39 46.5-8.131-29.332-12.317-59.526-13-90L299.5 639z"/><path fill="url(#a)" d="m512 149-39.5 8 2 3c13.53-3.565 89.764-1.315 97.5 5-.729 1.834-2.461 1.537-4 1.5-33.883-.82-62.676-3.122-97 .5-9.309.982-21.669 1.711-30.5 4-.242.063-1.558 3.578-3 4-3.528 1.032-25.133 4.986-26 6-1.033 1.208 3.102 8.743 4 9 1.317.378 22.113-6.015 26.5-7 5.121 30.584 10.098 67.534 21 96.5 15.682 41.667 65.643 51.841 85 10 9.355-20.221 26.276-95.901 26-117.5l39 2.5-37.5-7.5 5.5-10c6.302 1.328 49.535 12.892 51 16.5-12.908 52.367-20.8 108.173-35 160-1.896 6.918-3.953 19.742-9.5 23.5-14.542 9.853-144.928 11.863-158 1-5.519-4.586-23.382-90.177-26.5-104 2.69-10.114-18.46-77.167-15.5-80 3.87-.426 7.906-1.651 11.5-3l-2.5 10c4.55-11.358 28.039-9.993 38-14 2.754-1.108 5.141-3.837 5.5-4 .643.222 26.557-4.848 17.5-7-.578-.137-9.915 2.388-11.5 3l-3-3c22.542-4.129 46.031-7.149 69-7m-44 197c-6.139-3.552-17.513-25.4-21-32.5-5.521-11.242-14.94-44.179-20-51-1.311-1.767-8.271-5.609-9-4 1.696 6.473 3.579 12.971 5 19.5-6.244.836-1.945 14.445-1 19.5 2.017 10.786 6.42 32.249 10 42 1.111 3.025 2.322 8.042 5.5 9.5 7.508 3.446 44.068 5.618 54 6 12.602.485 82.99-.313 89.5-7.5 11.284-36.195 19.03-73.066 22-111L578.5 347c-35.577 6.901-71.97-.094-108 1-.702-.925-1.51-1.427-2.5-2" style="fill:url(#a)"/>/&gt;<path fill="#28c5d8" d="m581 157-5.5 10 37.5 7.5-39-2.5c-.032-2.5-.98-1.89-1-2-.33-1.837.882-3.463-1-5-7.736-6.315-83.97-8.565-97.5-5l-2-3 39.5-8c22.397.146 47.108 3.386 69 8"/><path fill="#64e0f3" d="M446 159c-4.39 1.694-5.672 3.851-6 4-.359.163-2.746 2.892-5.5 4-9.961 4.007-33.45 2.642-38 14l2.5-10c10.516-3.947 27.135-5.914 35.5-10 3.609-1.763-.232-1.591-.5-3 2.948-.631 6.082-1.466 9-2z"/><path fill="#a6f2fc" d="M440 163c.328-.149 1.61-2.306 6-4 1.585-.612 10.922-3.137 11.5-3 9.057 2.152-16.857 7.222-17.5 7"/><path fill="#d5f5fa" d="M399 171c-3.594 1.349-7.63 2.574-11.5 3-2.96 2.833 18.19 69.886 15.5 80-6.042-26.785-13.316-53.377-18-80.5 15.05-8.495 32.301-11.928 49-15.5.268 1.409 4.109 1.237.5 3-8.365 4.086-24.984 6.053-35.5 10"/><path fill="#42a8c8" d="M780.5 159c77.573 89.289 142.904 197.462 151.5 318.5 6.78 95.457-22.192 200.818-83 275-3.268 3.987-28.342 31.943-30.5 32.5-.678.175-2.117.205-2.5-.5 153.842-171.392 119.599-413.424-8-589-1.967-2.706-29.707-35.78-27.5-36.5"/><path fill="#ccf6fb" d="M572 165c1.882 1.537.67 3.163 1 5 .435 3.009-2.671 1.938-4.5 2-33.787 1.142-60.965-1.242-95.5 4l-2-9c34.324-3.622 63.117-1.32 97-.5 1.539.037 3.271.334 4-1.5"/><path fill="#f5fcfd" d="m471 167 2 9c-10.863 1.649-20.464 4.634-31 7-4.387.985-25.183 7.378-26.5 7-.898-.257-5.033-7.792-4-9 .867-1.014 22.472-4.968 26-6 1.442-.422 2.758-3.937 3-4 8.831-2.289 21.191-3.018 30.5-4"/><path fill="#42a7c7" d="M234.5 168C179.924 238.835 134.447 319.197 115 407.5c-29.296 133.025-1.497 270.164 86.5 374.5C124.963 710.436 86.117 599.665 89 495.5c3.399-122.787 66.635-237.275 145.5-327.5"/><path fill="url(#b)" d="M574 172c.276 21.599-16.645 97.279-26 117.5-19.357 41.841-69.318 31.667-85-10-10.902-28.966-15.879-65.916-21-96.5 10.536-2.366 20.137-5.351 31-7 34.535-5.242 61.713-2.858 95.5-4 1.829-.062 4.935 1.009 4.5-2 .02.11.968-.5 1 2" style="fill:url(#b)"/>/&gt;<path fill="#193748" d="m652 196-13 37c-3.788-2.315-9.024-4.665-13-7 .126-2.719 6.975-34.938 8-36.5 2.623-3.995 14.598 4.76 18 6.5"/><path fill="#ebf3f6" d="M383 191c-4.027 2.628-9.538 4.984-14 7-9.445 4.267-18.16 8.592-27 14-38.166 23.349-97.885 79.478-114 121.5-9.88 25.764 7.784 59.456 16 85.5l-3 2c-4.5-15.253-19.882-58.53-20-71.5-.162-17.769 30.914-59.871 43-74 30.443-35.586 74.098-70.768 119-84.5"/><path fill="#234251" d="M391 225c-2.788 1.64-9.846 2.76-12 4l-10-31c4.462-2.016 9.973-4.372 14-7 .25 10.002 7.67 24.985 8 34"/><path fill="#34687a" d="M790 389c-6.917 3.27-17.483.149-25-2 2.433-9.251 8.337-25.57 8-34.5-1.324-35.03-99.778-99.645-130-115.5-.68-1.583-2.619-3.156-4-4l13-37c47.776 24.434 114.513 81.353 139 129.5 14.407 28.328 7.007 35.016-1 63.5"/><path fill="#84a9b7" d="m369 198 10 31c-15.137 8.712-32.045 19.299-47 30-3.034 2.171-6.776 5.568-10 8-13.785 10.398-29.419 22.303-42 34-5.835 3.815-4.772 1.855-9-3 21.229-23.373 45.662-44.137 74-58.5-5.294-6.782 3.675-18.467-3-27.5 8.84-5.408 17.555-9.733 27-14"/><path fill="#34b1c6" d="M800.5 207c91.027 123.287 150.116 322.008 43 453 72.824-144.329 40.857-320.953-43-453"/><path fill="#a1bec9" d="M271 298c-11.361 12.509-23.079 24.676-29 41-13.08 36.064 16.953 76.736 25 111.5.632 2.731 1.957 2.576-2 2.5-3.239-9.116-5.331-28.234-16-20-1.463-4.685-3.502-9.251-5-14-8.216-26.044-25.88-59.736-16-85.5 16.115-42.022 75.834-98.151 114-121.5 6.675 9.033-2.294 20.718 3 27.5-28.338 14.363-52.771 35.127-74 58.5"/><path fill="#34b0c6" d="M213.5 217c2.632-.076.971 2.175.5 3.5-1.714 4.823-10.041 15.4-13 21-67.712 128.168-89.636 285.133-22.5 418.5-105.343-128.105-49.367-319.13 35-443"/><path fill="#cee2e7" d="M391 225c.054 1.468.361 3.865-.5 5L332 259c14.955-10.701 31.863-21.288 47-30 2.154-1.24 9.212-2.36 12-4"/><path fill="#c9e6ea" d="M639 233c1.381.844 3.32 2.417 4 4-3.258-1.709-17.021-5.126-18-8.5 1.177-.765.947-1.348 1-2.5 3.976 2.335 9.212 4.685 13 7"/><path fill="#35525e" d="m395 242-1.5-2c-8.486 8.754-21.406 12.102-32 18-26.922 14.988-101.532 63.501-106.5 94.5-2.29 14.289 3.797 30.494 9 43.5-.305-.604-6.983-12.039-6-7-9.533-33.395-15.931-38.572 9-68 19.94-23.536 92.88-81.581 122.5-86 6.817-1.017 10.559-.976 5.5 7"/><path fill="#64e1f0" d="M423 278c1.863 8.56 14.022 63.308 17 66.5 3.179 3.407 22.763.545 28 1.5.99.573 1.798 1.075 2.5 2 36.03-1.094 72.423 5.901 108-1L603 236.5c-2.97 37.934-10.716 74.805-22 111-6.51 7.187-76.898 7.985-89.5 7.5-9.932-.382-46.492-2.554-54-6-3.178-1.458-4.389-6.475-5.5-9.5-3.58-9.751-7.983-31.214-10-42-.945-5.055-5.244-18.664 1-19.5"/><path fill="#294b59" d="m699 278-3 4c-11.428-8.685-24.777-17.338-37.5-24-5.794-3.033-29.412-14.193-34.5-15-.089-.014-.096-1.591-1.5-1-.799.354-2.09 3.049-2.5 4-2.491-2.616 5.797-9.849 6.5-10 8.957-1.917 62.336 34.721 72.5 42"/><path fill="#becfd5" d="m395 242 29 115.5c2.018 2.322 4.717 4.265 7.5 5.5 17.183 7.624 140.251 7.413 157-1 .696-.35 4.331-2.306 4.5-2.5 2.591-2.973 16.527-66.546 19-76.5 43.47 30.283 65.492 80.363 68 132.5 1.751 36.385-.755 81.821-19 113.5-5.733-79.839-85.428-138.347-162.5-133-104.824 7.272-168.228 123.336-118.5 216-.337 9.389 8.336 23.642 14 31.5 50.419 69.946 185.489 66.195 239 2 9.829-11.791 16.723-26.359 24.5-39.5-.706 7.21-4.695 14.446-7.5 21-10.822 25.289-35.419 77.567-62.5 87-16.394 5.71-25.434-1.342-41-2-73.991-3.13-151.686-4.784-137.5 94 2.475 17.237 8.783 33.996 14 50.5-4.65-4.614-18.29-14.981-21-20-4.333-8.025-11.531-40.946-13-51-1.869-12.795-.5-35.948-3-46-1.522-6.12-69.908-84.217-80-97.5 1.235.171 1.87-1.945 2-2 2.471-1.04 3.148 2.393 3-5.5-.824-43.932-30.547-138.008-46-181.5 3.957.076 2.632.231 2-2.5-8.047-34.764-38.08-75.436-25-111.5 3.24 3.196 2.887.444 6-3-4.739 9.126-4.862 17.4-3 27.5L288 480c14.961 46.649 32.925 92.599 40 141.5.787-14.434-2.145-30.554-5-45-10.684-54.057-34.269-131.473-59-180.5-5.203-13.006-11.29-29.211-9-43.5 4.968-30.999 79.578-79.512 106.5-94.5 10.594-5.898 23.514-9.246 32-18zm-5.5 7c-35.081 18.205-76.389 39.993-101.5 71.5-14.265 17.899-24.114 37.77-13.5 60.5 1.207-33.94 28.344-59.819 52-81 18.641-16.69 45.415-31.435 62-47 .743-.697 4.482-3.538 1-4m184 122c-47.357 1.423-104.032-1.559-146 22-36.056 20.24-61.131 55.797-64.5 97.5 4.525-2.249 4.299-12.431 6-17 17.53-47.084 66.964-81.628 115.5-90.5 24.609-4.498 50.312-2.414 75-6 6.607-.96 17.486-2.881 22-6-2.664.056-5.338-.08-8 0"/><path fill="#7198a8" d="M624 243c-1.401 6.226 5.193 11.055 9.5 15 18.031 16.518 46.317 27.388 63 47l9.5-14c7.008 5.722 13.504 11.735 20 18 3.265 8.154 10.615 14.83 13 23.5 7.521 27.342-8.849 61.827-18 87.5-8.456 23.724-19.572 47.43-26.5 71 7.946.866 18.179 7.49 25.5 4-11.012 37.184-18.662 70.456-24 109-.253 1.825.242 10.236-1.5 11-.512.225-.117-2.543-2-2-16.011 4.62-24.439 19.133-42.5 14 2.805-6.554 6.794-13.79 7.5-21-7.777 13.141-14.671 27.709-24.5 39.5-53.511 64.195-188.581 67.946-239-2-5.664-7.858-14.337-22.111-14-31.5 70.349 131.089 292.318 74.616 281-83 18.245-31.679 20.751-77.115 19-113.5-2.508-52.137-24.53-102.217-68-132.5 2.533-10.198 4.109-27.981 8-37 .41-.951 1.701-3.646 2.5-4 1.404-.591 1.411.986 1.5 1"/><path fill="#bbd3dc" d="M696 282c3.478 2.643 6.633 6.251 10 9l-9.5 14c-16.683-19.612-44.969-30.482-63-47-4.307-3.945-10.901-8.774-9.5-15 5.088.807 28.706 11.967 34.5 15 12.723 6.662 26.072 15.315 37.5 24"/><path fill="#fdfdfd" d="M389.5 249c3.482.462-.257 3.303-1 4-16.585 15.565-43.359 30.31-62 47-23.656 21.181-50.793 47.06-52 81-10.614-22.73-.765-42.601 13.5-60.5 25.111-31.507 66.419-53.295 101.5-71.5"/><path fill="#e4f6fa" d="M468 346c-5.237-.955-24.821 1.907-28-1.5-2.978-3.192-15.137-57.94-17-66.5-1.421-6.529-3.304-13.027-5-19.5.729-1.609 7.689 2.233 9 4 5.06 6.821 14.479 39.758 20 51 3.487 7.1 14.861 28.948 21 32.5"/><path fill="#0a141d" d="M267 321c-24.931 29.428-18.533 34.605-9 68 8.77 30.723 20.253 60.608 30 91l-43-116.5c-1.862-10.1-1.739-18.374 3-27.5 10.759-11.901 20.135-23.969 32-35 12.581-11.697 28.215-23.602 42-34-17.357 18.941-42.199 31.916-57 53.5z"/><path fill="#183645" d="m755 409-7 2c17.129-56.983 21.296-60.244-22-102-6.496-6.265-12.992-12.278-20-18-3.367-2.749-6.522-6.357-10-9l3-4c12.876 9.221 25.933 18.094 37.5 29 42.503 40.073 33.816 49.558 18.5 102"/><path fill="#6f909d" d="M280 301c-11.865 11.031-21.241 23.099-32 35-3.113 3.444-2.76 6.196-6 3 5.921-16.324 17.639-28.491 29-41 4.228 4.855 3.165 6.815 9 3"/><path fill="#34687a" d="M748 411c-1.511 5.027-3.539 9.393-5 14-1.62.359-.563 2.731-3 2.5-3.737-.355-14.711-6.096-19-7.5 9.151-25.673 25.521-60.158 18-87.5-2.385-8.67-9.735-15.346-13-23.5 43.296 41.756 39.129 45.017 22 102"/><path fill="#fdfdfd" d="M573.5 371c2.662-.08 5.336.056 8 0-4.514 3.119-15.393 5.04-22 6-24.688 3.586-50.391 1.502-75 6-48.536 8.872-97.97 43.416-115.5 90.5-1.701 4.569-1.475 14.751-6 17 3.369-41.703 28.444-77.26 64.5-97.5 41.968-23.559 98.643-20.577 146-22"/><path fill="#476d7b" d="M264 396c24.731 49.027 48.316 126.443 59 180.5 2.855 14.446 5.787 30.566 5 45-7.075-48.901-25.039-94.851-40-141.5-9.747-30.392-21.23-60.277-30-91-.983-5.039 5.695 6.396 6 7"/><path fill="#508093" d="M790 389c-8.601 30.596-19.978 60.472-29 91-3.931-.025-8.154.8-11-2.5l16-51-12-1.5c1.242-4.589 1.867-9.532 3-14 2.094-8.261 5.894-15.994 8-24 7.517 2.149 18.083 5.27 25 2"/><path fill="#112736" d="M661 529c11.318 157.616-210.651 214.089-281 83-49.728-92.664 13.676-208.728 118.5-216 77.072-5.347 156.767 53.161 162.5 133m-281-41c-43.024 84.591 27.2 183.638 116.5 192 148.014 13.86 224.84-169.134 94.5-254-77.421-50.41-173.295-20.708-211 62"/><path fill="#2b5061" d="m271 543-10 4c-.107-.629.111-1.373 0-2-.268-1.513-1.699-4.459-2-6-7.266-37.144-17.139-70.516-35-104-1.065-1.997-1.81-3.929-3-6-4.129-7.184-8.749-13.913-13-21 2.27-1.07 4.776-2.782 7-4 2.076-.472 9.227-3.265 10-2.5 18.88 46.035 34.834 92.949 46 141.5"/><path fill="#cfe3e9" d="M591 426c-11.863-3.653-22.361-10.649-34.5-14-67.901-18.745-144.356 12.8-176.5 76 37.705-82.708 133.579-112.41 211-62"/><path fill="#192838" d="M215 404c-2.224 1.218-4.73 2.93-7 4-11.163 5.26-23.57 7.543-35 14-1.39.785-2.479-2.6-5 5-4.125 12.437-3.409 35.53-3 49l-2 3c-.328-9.472-.084-51.312 5-57.5 1.991-2.423 41.267-16.197 47-17.5"/><path fill="#19394c" d="M808 407c-8.982 1.335-2.889 24.181-17 19 3.1-7.557 6.135-17.215 12-22 .636.426 4.34 2.648 5 3"/><path fill="url(#c)" d="M591 426c130.34 84.866 53.514 267.86-94.5 254-89.3-8.362-159.524-107.409-116.5-192 32.144-63.2 108.599-94.745 176.5-76 12.139 3.351 22.637 10.347 34.5 14m-136 8c-26.6 13.978-45.636 37.056-56 65-8.132 21.927-10.172 35.356-8 59 1.391 15.144 4.185 27.773 12 41 2.797 7.761 8.109 14.529 13 21 28.535 37.754 69.994 51.839 117 44 22.654-3.778 42.77-14.389 60-29 12.346-10.47 21.12-20.833 29-35 6.423-11.548 12.103-23.724 14-37 3.468-24.271.704-42.322-9-64-3.275-7.317-7.484-14.351-12-21-36.02-53.036-101.175-74.913-160-44" style="fill:url(#c)"/>/&gt;<path fill="#254d5f" d="M808 407c1.427.761 2.555 1.825 5 3-3.529 6.123-7.572 11.79-11 18-1.284 2.327-1.893 3.761-3 6-16.353 33.085-25.739 70.916-33 107-.322-.059-.676.055-1 0-2.855-.481-6.124-.056-9-1 8.85-37.342 20.465-78.572 35-114 14.111 5.181 8.018-17.665 17-19"/><path fill="#172e3e" d="m854 462-2 1c-.788-11.435-1.041-24.148-5-35-.535-1.467.525-3.244-1-5-2.668-3.072-27.398-10.307-33-13-2.445-1.175-3.573-2.239-5-3 3.14-.467 37.239 12.483 39 14.5 3.779 4.327 6.506 33.421 7 40.5"/><path fill="#6fb4ca" d="M208 408c4.251 7.087 8.871 13.816 13 21l-34 14c-4.198-7.291-9.193-14.116-14-21 11.43-6.457 23.837-8.74 35-14"/><path fill="#284a58" d="M755 409c-6.274 21.482-14.577 42.488-21 64-13.068 43.767-27.615 85.641-35 131h-3c5.338-38.544 12.988-71.816 24-109 6.987-23.593 15.571-46.569 23-70 1.461-4.607 3.489-8.973 5-14z"/><path fill="#72b6cc" d="M846 423c-6.119 2.979-10.782 12.02-14 18l-30-13c3.428-6.21 7.471-11.877 11-18 5.602 2.693 30.332 9.928 33 13"/><path fill="#b2d0d9" d="M754 425c-18.206 67.275-43.528 120.199-55 190-1.042 6.337-1.245 13.695-4 19.5-.047-10.353 2.355-20.397 4-30.5 7.385-45.359 21.932-87.233 35-131l23-62c-1.133 4.468-1.758 9.411-3 14"/><path fill="#c5dfe7" d="M249 433c9.182 29.396 19.195 58.668 27 88.5 8.193 31.315 13.175 79.263 23 107 1.685 4.756 6.285 7.553 9 11.5-.13.055-.765 2.171-2 2-2.312-3.043-8.641-8.267-10-11.5-9.056-21.547-15.902-77.902-23-105-9.242-35.28-21.702-69.593-32-104.5l3-2c1.498 4.749 3.537 9.315 5 14"/><path fill="#062842" d="m615 478-10 6c-26.72-38.882-76.754-61.242-123.5-50-2.253.542-20.885 8.01-21.5 9l-5-9c58.825-30.913 123.98-9.036 160 44"/><path fill="#508093" d="M743 425c-7.429 23.431-16.013 46.407-23 70-7.321 3.49-17.554-3.134-25.5-4 6.928-23.57 18.044-47.276 26.5-71 4.289 1.404 15.263 7.145 19 7.5 2.437.231 1.38-2.141 3-2.5"/><path fill="#c2f5fc" d="M173 422c4.807 6.884 9.802 13.709 14 21 .599 1.04 1.614 2.295 2 3 17.262 31.526 24.123 67.992 33 102.5l37-9.5c.301 1.541 1.732 4.487 2 6l-36.5 9c-1.777 2.06.393 4.74.5 6-2.796.748-3.435-1.478-4-3.5-1.558-5.57-8.379-41.379-10-43-1.704-1.704-4.6 2.03-7-.5-3.007-12.038-9.548-34.265-15-45-2.302-13.989-10.368-30.686-21-41 2.521-7.6 3.61-4.215 5-5"/><path fill="#8aeaf5" d="M846 423c1.525 1.756.465 3.533 1 5-5.412 7.95-16.857 21.722-12 31-3.846 3.735-9.672 15.884-12 21-3.157 6.939-6.68 24.017-9.5 28-.194.274-3.323-.25-3.5 0 .1-6.875 4.624-14.217 6-20.5.371-1.696-2.709-2.308-2-5 2.63-9.984 11.106-26.912 16-36.5.813-1.593 1.414-3.912 2-5 3.218-5.98 7.881-15.021 14-18"/><path fill="#7197a7" d="M761 480c-2.562 8.67-5.602 17.271-8 26-4.507 3.993-7.036-1.882-12-.5-7.52 29.105-17.7 57.83-23 87.5-1.048 5.867-3.844 16.868-4 22h-15c11.472-69.801 36.794-122.725 55-190l12 1.5-16 51c2.846 3.3 7.069 2.475 11 2.5"/><path fill="#63abc6" d="M189 468c-2.137-4.207-4.687-9.571-9-12-15.516-8.738-11.165 19.86-14 29-.156-2.826-.906-5.914-1-9-.409-13.47-1.125-36.563 3-49 10.632 10.314 18.698 27.011 21 41"/><path fill="#8bdaea" d="M832 441c-.586 1.088-1.187 3.407-2 5l-31-12c1.107-2.239 1.716-3.673 3-6z"/><path fill="#60acc7" d="M852 463c.544 7.894 2.467 16.107 0 24-.329-5.571-.952-12.502-2-18-1.828-9.593-4.26-20.432-15-10-4.857-9.278 6.588-23.05 12-31 3.959 10.852 4.212 23.565 5 35"/><path fill="#8edaea" d="m224 435-35 11c-.386-.705-1.401-1.96-2-3l34-14c1.19 2.071 1.935 4.003 3 6"/><path fill="#84a9b7" d="M265 453c15.453 43.492 45.176 137.568 46 181.5.148 7.893-.529 4.46-3 5.5-2.715-3.947-7.315-6.744-9-11.5-9.825-27.737-14.807-75.685-23-107-7.805-29.832-17.818-59.104-27-88.5 10.669-8.234 12.761 10.884 16 20"/><path fill="#005885" d="M605 484c14.004 20.378 20.218 41.289 19 66-5.205 8.627-10.464 17.061-16 25.5-.205.312 2.876.505 2 2-.656 1.12-1.83-1.389-2.5-.5-3.524 4.675-6.953 8.761-11 13-1.003 1.051-1.438-1.065-1.5-1 17.191-32.571 14.735-66.005-6-96-22.639-32.75-63.819-50.653-103-40-6.054-7.941-17.47-10.904-27-8 .158-.684.64-1.421 1-2 .615-.99 19.247-8.458 21.5-9 46.746-11.242 96.78 11.118 123.5 50"/><path fill="#01446e" d="M460 443c-.36.579-.842 1.316-1 2-3.211.978-9.012 6.004-11 9-7.979 2.834-17.506 12.76-23 19.5-3.889 4.771-15.944 27.888-17.5 28.5-1.48.583-6.795-2.211-8.5-3 10.364-27.944 29.4-51.022 56-65z"/><path fill="url(#d)" d="M830 446c-4.894 9.588-13.37 26.516-16 36.5-.709 2.692 2.371 3.304 2 5-1.376 6.283-5.9 13.625-6 20.5-3.289 4.664-10.959 41.406-13.5 42-9.854-3.271-20.297-7.126-30.5-9 7.261-36.084 16.647-73.915 33-107z" style="fill:url(#d)"/>/&gt;<path fill="url(#e)" d="m259 539-37 9.5c-8.877-34.508-15.738-70.974-33-102.5l35-11c17.861 33.484 27.734 66.856 35 104" style="fill:url(#e)"/>/&gt;<path fill="#fefefe" d="M486 453c3.189 4.183 6.529 14.064 6 19-1.624 15.139-21.085 23.879-35 18-2.563-1.083-11.23-9.746-12-12-2.659-7.785-1.429-17.324 3-24 1.988-2.996 7.789-8.022 11-9 9.53-2.904 20.946.059 27 8"/><path fill="#0185b1" d="M589 493c-2.289 2.835-5.241 5.643-9 5-3.797-4.809-11.032-9.675-17-11-19.083-15.971-46.965-20.3-71-15 .529-4.936-2.811-14.817-6-19 39.181-10.653 80.361 7.25 103 40"/><path fill="#023c63" d="M180 456c-1.423-.634-2.022-.165-3 0-3.617.609-4.055-.683-6 3.5-4.088 8.791 5.541 70.844 9 83 3.496 12.284 14.576 44.177 30 25.5 2.132 16.006 8.743 50.851 6 65.5-1.223 6.531-4.661 9.589-10.5 6.5-24.968-13.207-37.93-126.52-39.5-155 2.835-9.14-1.516-37.738 14-29"/><path fill="#006a9a" d="M448 454c-4.429 6.676-5.659 16.215-3 24-9.798 7.529-15.371 19.002-20 30-7.309 17.365-10.273 31.943-9 51-4.531-7.813-16.765-1.532-25-1-2.172-23.644-.132-37.073 8-59 1.705.789 7.02 3.583 8.5 3 1.556-.612 13.611-23.729 17.5-28.5 5.494-6.74 15.021-16.666 23-19.5"/><path fill="#040a0e" d="M180 456c4.313 2.429 6.863 7.793 9 12 5.452 10.735 11.993 32.962 15 45 5.144 20.596 21.321 112.583 13 127.5-4.574 8.199-15.215.401-18.5-5.5l-1.5 2h-1c-19.071-44.001-31.335-109.956-33-158l2-3c.094 3.086.844 6.174 1 9 1.57 28.48 14.532 141.793 39.5 155 5.839 3.089 9.277.031 10.5-6.5 2.743-14.649-3.868-49.494-6-65.5-4.858-36.475-9.241-83.302-33-112 .978-.165 1.577-.634 3 0"/><path fill="#051019" d="m850 469-2 2c-1.515-27.753-14.263-7.827-20 4.5-12.704 27.296-15.956 62.866-20 92.5-2.383 17.462-6.882 35.785-7 53.5-.366 54.997 31.516-16.335 36-31.5-6.477 22.198-12.266 45.039-24 65.5-17.963 31.323-23.419 21.622-56 21.5.063-.556 2.828-1.946 3-2 3.578-1.113 21.812 1.096 30 0 .151-.02 1.081 2.286 3 .5-5.251-8.615-6.658-21.495-7-31.5-.103-3.012.996-6.504 1-8 1.776 12.714.276 28.456 8.5 39 5.821.819 24.744-37.475 26.5-44 .027-.1 2.129-.31.5-2-.815.317-1.262 1.753-1.5 2-5.588 5.813-16.253 23.61-22 5.5-4.34-13.678 4.862-73.975 8-91 4.083-22.151 11.17-43.558 16-65.5 2.328-5.116 8.154-17.265 12-21 10.74-10.432 13.172.407 15 10"/><path fill="url(#f)" d="M177 456c23.759 28.698 28.142 75.525 33 112-15.424 18.677-26.504-13.216-30-25.5-3.459-12.156-13.088-74.209-9-83 1.945-4.183 2.383-2.891 6-3.5" style="fill:url(#f)"/>/&gt;<path fill="url(#g)" d="M848 471c1.023 18.739-9.097 80.8-20 95.5-5.581 7.525-15.051 12.097-20 1.5 4.044-29.634 7.296-65.204 20-92.5 5.737-12.327 18.485-32.253 20-4.5" style="fill:url(#g)"/>/&gt;<path fill="#051019" d="M839 583c6.762-25.786 14.552-69.732 13-96 2.467-7.893.544-16.106 0-24l2-1c3.197 45.777-3.167 77.757-15 121"/><path fill="#003d64" d="M852 487c1.552 26.268-6.238 70.214-13 96a444 444 0 0 1-2 7c-4.484 15.165-36.366 86.497-36 31.5.118-17.715 4.617-36.038 7-53.5 4.949 10.597 14.419 6.025 20-1.5 10.903-14.7 21.023-76.761 20-95.5l2-2c1.048 5.498 1.671 12.429 2 18"/><path fill="url(#h)" d="M563 487c-27.938-6.205-43.466 21.748-33 45.5 9.819 22.285 44.549 26.091 55 2.5-1.109 27.089.674 44.645-23.5 64-59.918 47.973-150.025-11.615-119.5-87 2.926-7.226 10.107-15.816 15-22 13.915 5.879 33.376-2.861 35-18 24.035-5.3 51.917-.971 71 15m-19.5 66c-13.643 1.568-5.847 26.895 8 23 10.655-2.997 4.359-24.421-8-23" style="fill:url(#h)"/>/&gt;<path fill="#0185b1" d="M445 478c.77 2.254 9.437 10.917 12 12-4.893 6.184-12.074 14.774-15 22l-17-4c4.629-10.998 10.202-22.471 20-30"/><path fill="#01446d" d="M627 499c8.039 21.699 9.71 41.113 6 64-.942 5.811-2.274 9.563-4 15l-9-4c2.626-9.198 3.525-14.37 4-24 1.218-24.711-4.996-45.622-19-66l10-6c4.516 6.649 8.725 13.683 12 21"/><path fill="#3dccdb" d="M821 631h1c-1.756 6.525-20.679 44.819-26.5 44-8.224-10.544-6.724-26.286-8.5-39 .05-18.461 1.013-37.671 3-56 .96-8.853 4.069-17.618 5-26.5-10.193-1.238-20.008-4.482-30-6.5.298-1.851-.204-4.083 0-6 .324.055.678-.059 1 0 10.203 1.874 20.646 5.729 30.5 9 2.541-.594 10.211-37.336 13.5-42 .177-.25 3.306.274 3.5 0 2.82-3.983 6.343-21.061 9.5-28-4.83 21.942-11.917 43.349-16 65.5-3.138 17.025-12.34 77.322-8 91 5.747 18.11 16.412.313 22-5.5"/><path fill="#fefefe" d="M563 487c5.968 1.325 13.203 6.191 17 11 12.357 15.653 5.607 22.187 5 37-10.451 23.591-45.181 19.785-55-2.5-10.466-23.752 5.062-51.705 33-45.5"/><path fill="#0bbee2" d="M595 589c-37.327 38.869-78.904 62.718-136 48-15.995-4.123-29.432-13.656-39-27-2.28-3.18-4.553-6.432-7-9.5 1.355-1.228 11.861-4.365 12-5 .26-1.19-7.169-18.764-8-23-.806-4.105-.72-9.315-1-13.5-1.273-19.057 1.691-33.635 9-51l17 4c-30.525 75.385 59.582 134.973 119.5 87 24.174-19.355 22.391-36.911 23.5-64 .607-14.813 7.357-21.347-5-37 3.759.643 6.711-2.165 9-5 20.735 29.995 23.191 63.429 6 96"/><path fill="#5b95a1" d="M636 563h-3c3.71-22.887 2.039-42.301-6-64 9.704 21.678 12.468 39.729 9 64"/><path fill="#4f7f92" d="M753 506c-11.278 41.049-20.525 82.672-26 125-3.677 1.837-8.343 6.885-11 10-1.401 1.642-2.158 2.972-3 4-20.177 24.639-52.103 59.126-68 85-8.58 6.793-2.505 1.832-6.5 0-7.08-3.247-39.304-2.787-37.5 7.5.548 3.126 17.545 18.869 9.5 24.5-6.72-23.09-26.856-38.51-49.5-44-11.762-2.852-23.969-3.488-36-4-20.909-.889-41.806-.635-61 4-46.678 11.272-57.779 39.517-52 85l-3 3c-14.186-98.784 63.509-97.13 137.5-94 15.566.658 24.606 7.71 41 2 27.081-9.433 51.678-61.711 62.5-87 18.061 5.133 26.489-9.38 42.5-14 1.883-.543 1.488 2.225 2 2 1.742-.764 1.247-9.175 1.5-11h3c-1.645 10.103-4.047 20.147-4 30.5 2.755-5.805 2.958-13.163 4-19.5h15c-.048 1.571-.402 6.141.5 7 2.436-.14 11.083 2.274 12.5-.5.531-1.039 4.417-21.91 4-23-.252-.659-10.935-6.299-13-5.5 5.3-29.67 15.48-58.395 23-87.5 4.964-1.382 7.493 4.493 12 .5"/><path fill="#abd6e1" d="M225 560c.597 7.021 2.403 13.961 3 21 .912 10.75 1.855 23.284 2 34 .264 19.498 1.253 42.828-8.5 60-5.536 1.182-21.591-32.773-24.5-38l1.5-2c3.285 5.901 13.926 13.699 18.5 5.5 8.321-14.917-7.856-106.904-13-127.5 2.4 2.53 5.296-1.204 7 .5 1.621 1.621 8.442 37.43 10 43 .565 2.022 1.204 4.248 4 3.5"/><path fill="#266980" d="M765 541c-.204 1.917.298 4.149 0 6-3.23-.652-6.966-.428-10-2 .372-1.641.595-3.292 1-5 2.876.944 6.145.519 9 1"/><path fill="#224758" d="M271 543c2.26 9.827 4.552 19.707 7 29.5-.788 1.185-10.6.177-13 .5-.949-8.613-2.542-17.448-4-26z"/><path fill="#4a8ca7" d="M261 547c1.458 8.552 3.051 17.387 4 26-12.527 1.688-24.656 5.494-37 8-.597-7.039-2.403-13.979-3-21-.107-1.26-2.277-3.94-.5-6l36.5-9c.111.627-.107 1.371 0 2"/><path fill="#1e495d" d="M765 547c-.633 3.935-5.772 24.552-5 26.5l30 6.5c-1.987 18.329-2.95 37.539-3 56-.004 1.496-1.103 4.988-1 8-2.639 9.933 2.165 21.169 4 31-8.188 1.096-26.422-1.113-30 0-3.194-.138-3.8-7.446-4-9.5-1.217-12.526-1.315-27.368-1-40 .183-7.346 5.713-46.643 5-49-1.08-3.569-11.233-2.542-12-4-.66-1.256 6.131-23.667 7-27.5 3.034 1.572 6.77 1.348 10 2"/><path fill="#4789a6" d="m790 580-30-6.5c-.772-1.948 4.367-22.565 5-26.5 9.992 2.018 19.807 5.262 30 6.5-.931 8.882-4.04 17.647-5 26.5"/><path fill="#09b6e1" d="M620 574c-3.395 11.889-9.382 25.106-17 35-25.85 33.574-73.936 49.622-115 41-8.993-1.888-22.973-5.657-29-13 57.096 14.718 98.673-9.131 136-48 .062-.065.497 2.051 1.5 1 4.047-4.239 7.476-8.325 11-13 .67-.889 1.844 1.62 2.5.5.876-1.495-2.205-1.688-2-2 5.536-8.439 10.795-16.873 16-25.5-.475 9.63-1.374 14.802-4 24"/><path fill="#fcfdfe" d="M543.5 553c12.359-1.421 18.655 20.003 8 23-13.847 3.895-21.643-21.432-8-23"/><path fill="#0185b1" d="M416 559c.28 4.185.194 9.395 1 13.5.831 4.236 8.26 21.81 8 23-.139.635-10.645 3.772-12 5 2.447 3.068 4.72 6.32 7 9.5-6.408 8.399-13.108-4.414-17-11-7.815-13.227-10.609-25.856-12-41 8.235-.532 20.469-6.813 25 1"/><path fill="#72b6bb" d="M636 563c-1.897 13.276-7.577 25.452-14 37l-2-1c3.9-6.764 6.632-13.542 9-21 1.726-5.437 3.058-9.189 4-15z"/><path fill="#1e485c" d="M265 573c3.583 32.518 6.164 70.403-5.5 101l-32.5 4c-2.277-.175-2.508-.555-4-1 8.221-15.75 9.609-39.465 9-57.5-.062-1.829 1.009-4.935-2-4.5-.145-10.716-1.088-23.25-2-34 12.344-2.506 24.473-6.312 37-8"/><path fill="#006999" d="M629 578c-2.368 7.458-5.1 14.236-9 21-1.998 3.465-5.515 7.649-8 11-3.214-4.709-9.695 8.539-9-1 7.618-9.894 13.605-23.111 17-35z"/><path fill="#051019" d="M837 590c.656-2.247 1.39-4.769 2-7-.69 2.63-1.431 5.077-2 7"/><path fill="#34687a" d="M714 615c.156-5.132 2.952-16.133 4-22 2.065-.799 12.748 4.841 13 5.5.417 1.09-3.469 21.961-4 23-1.417 2.774-10.064.36-12.5.5-.902-.859-.548-5.429-.5-7"/><path fill="#006f9e" d="M420 610c9.568 13.344 23.005 22.877 39 27 6.027 7.343 20.007 11.112 29 13-1.211 2.272-.49 3.02-3.5 3-6.818-.046-28.086-8.591-35-12-5.652-2.786-15.588-14.793-20.5-9-4.497-3.859-8.413-8.26-13-12-4.891-6.471-10.203-13.239-13-21 3.892 6.586 10.592 19.399 17 11"/><path fill="#aedfe8" d="M622 600c-7.88 14.167-16.654 24.53-29 35l-1-3c7.793-6.615 13.928-13.813 20-22 2.485-3.351 6.002-7.535 8-11z"/><path fill="#0062a2" d="M612 610c-6.072 8.187-12.207 15.385-20 22-15.518 13.173-39.806 26.587-60 30-36.807 6.221-75.023-5.994-103-30 4.912-5.793 14.848 6.214 20.5 9 6.914 3.409 28.182 11.954 35 12 3.01.02 2.289-.728 3.5-3 41.064 8.622 89.15-7.426 115-41-.695 9.539 5.786-3.709 9 1"/><path fill="#112130" d="M223 677c-11.792-3.515-22.08-28.65-27-40h1c2.909 5.227 18.964 39.182 24.5 38 9.753-17.172 8.764-40.502 8.5-60 3.009-.435 1.938 2.671 2 4.5.609 18.035-.779 41.75-9 57.5"/><path fill="#55c3d4" d="M429 632c27.977 24.006 66.193 36.221 103 30l1 2c-47.006 7.839-88.465-6.246-117-44 4.587 3.74 8.503 8.141 13 12"/><path fill="#267398" d="M822 631h-1c.238-.247.685-1.683 1.5-2 1.629 1.69-.473 1.9-.5 2"/><path fill="#74c2d1" d="m727 631-3 5c-27.492 23.703-51.897 72.541-79 94 15.897-25.874 47.823-60.361 68-85l3-4c2.657-3.115 7.323-8.163 11-10"/><path fill="#edf8fa" d="M593 635c-17.23 14.611-37.346 25.222-60 29l-1-2c20.194-3.413 44.482-16.827 60-30z"/><path fill="#051320" d="m725 639-81 98c-.935.316-3.88 3.031-4 3.5-1.966 7.701-.587 28.706-2 39-2.367 17.252-8.585 34.123-10 51.5-1.316 1.044-3.202 2.071-4 0 4.755-12.452 10.008-37.97 12-51.5 3.036-20.625-2.388-30.965 9-49.5 27.103-21.459 51.508-70.297 79-94 4.184-.002 1.014 2.763 1 3"/><path fill="#449db9" d="M725 639c-1.049 17.613-.303 28.847 1 46l-5 1c-.091-6.535-1.531-14.219-1.5-21L654 746.5c-1.134 10.143-1.718 20.385-3 30.5-1.797.301-10.68-1.047-11-1.5-1.128-1.596 2.801-35.765 4-38.5z"/><path fill="#63a6be" d="m357 784 4-3c5.04 6.398 10.68 13.27 17 18.5-6.927-16.357-4.377-38.373-9-54.5-2.595-9.053-49.084-68.517-58-77.5-5.653-5.696-8.243-12.145-11-1.5l-.5-27L383 740.5c.683 30.474 4.869 60.668 13 90-16.546-12.088-26.883-30.381-39-46.5"/><path fill="#447385" d="M713 645c.842-1.028 1.599-2.358 3-4z"/><path fill="#2a7187" d="M790 675c-1.835-9.831-6.639-21.067-4-31 .342 10.005 1.749 22.885 7 31.5-1.919 1.786-2.849-.52-3-.5"/><path fill="#dff3f7" d="m369 745-64.5-79c1.65 10.784-1.515 28.335.5 38h-5c-3.459-9.121-2.651-27.765 0-38 2.757-10.645 5.347-4.196 11 1.5 8.916 8.983 55.405 68.447 58 77.5"/><path fill="url(#i)" d="M721 686c.059 4.228.79 14.121 0 17.5-1.726 7.385-29.534 35.299-32 46.5-3.2 2.058-38.807 55.025-41.5 53-1.111-8.914 2.407-17.378 3.5-26 1.282-10.115 1.866-20.357 3-30.5l65.5-81.5c-.031 6.781 1.409 14.465 1.5 21" style="fill:url(#i)"/>/&gt;<path fill="#1984a4" d="M369 745c4.623 16.127 2.073 38.143 9 54.5-6.32-5.23-11.96-12.102-17-18.5-6.845-8.69-55.029-72.34-56-77-2.015-9.665 1.15-27.216-.5-38z"/><path fill="#23def4" d="M726 685c.266 3.506 3.188 17.403 3 18.5-.495 2.89-32.136 38.917-37 45.5-1.188-.221-2.096.419-3 1 2.466-11.201 30.274-39.115 32-46.5.79-3.379.059-13.272 0-17.5z"/><path fill="#92e3f0" d="M305 704c.971 4.66 49.155 68.31 56 77l-4 3c-12.369-16.453-51.123-64.502-57-80z"/><path fill="#b8e0eb" d="m525 714-1.5 8 12.5 1c-19.396-1.16-54.741-1.637-73 3 1.066-2.605 3.89-5.042 1-8 19.194-4.635 40.091-4.889 61-4"/><path fill="#8cbecf" d="m561 718-1 8c-7.76-1.94-16.025-2.523-24-3l-12.5-1 1.5-8c12.031.512 24.238 1.148 36 4"/><path fill="#b1e5ef" d="M464 718c2.89 2.958.066 5.395-1 8-3.803.966-15.839 4.856-16.5 9 25.711-12.625 65.772-12.234 94.5-10-.768 3.532 1.875 7.259-1 9-94.797-8.518-135.87 6.4-108 109l-8-15.5c.4-3.92-1.031-23.208-2-25-.652-1.206-2.31-1.047-3 1-4.145 12.304 9.082 56.082 19 66.5-16.484-12.826-23.446-46.9-26-67-5.779-45.483 5.322-73.728 52-85"/><path fill="#619cb1" d="M645 730c-11.388 18.535-5.964 28.875-9 49.5-1.992 13.53-7.245 39.048-12 51.5-5.447 14.266-17.029 21.606-27.5 32-1.691-1.943 6.383-7.333-.5-7 1.927-4.076 6.076-14.375 7-18.5.825-3.685-2.566-4.253-2-7 5.474-26.584 14.975-46.951 1-72.5-5.193-9.494-10.198-14.817-19-21-7.246-5.09-14.222-8.805-23-11l1-8c22.644 5.49 42.78 20.91 49.5 44 8.045-5.631-8.952-21.374-9.5-24.5-1.804-10.287 30.42-10.747 37.5-7.5 3.995 1.832-2.08 6.793 6.5 0"/><path fill="#eaf7f9" d="M536 723c7.975.477 16.24 1.06 24 3 8.778 2.195 15.754 5.91 23 11-13.387-6.603-27.017-10.835-42-12-28.728-2.234-68.789-2.625-94.5 10 .661-4.144 12.697-8.034 16.5-9 18.259-4.637 53.604-4.16 73-3"/><path fill="#73aabb" d="M583 737c8.802 6.183 13.807 11.506 19 21 4.975 37.19-7.365 73.719-14 110-3.052 3.442-8.96 8.896-13 11 13.318-22.979 22.859-52.782 25-79.5 3.877-48.385-14.097-61.375-60-65.5 2.875-1.741.232-5.468 1-9 14.983 1.165 28.613 5.397 42 12"/><path fill="#0a1622" d="M540 734c45.903 4.125 63.877 17.115 60 65.5-2.141 26.718-11.682 56.521-25 79.5-1.217.634-2.643.823-4 1 8.91-10.985 11.572-24.023 16-37 .053-.156 1.007 1.121 2-2 .096-.303-.094-.696 0-1s-.091-.694 0-1c7.211-24.175 19.912-71.634-6-89-11.451-9.702-28.872-12.858-43.5-14-28.52-2.227-100.489-4.915-111.5 29.5-7.266 22.709 5.878 93.757 21 112.5l-4.5-6c-1.276.912.602 3.435-1.5 2-3.763-10.409-8.079-20.246-11-31-27.87-102.6 13.203-117.518 108-109"/><path fill="#518697" d="M583 750c-17.473-11.71-57.568-14.549-78.5-13-17.702 1.31-45.669 9.021-59.5 20-10.118 6.074-12.731 17.739-13 29-.14 5.879.376 23.914 1 29.5.314 2.813 3.887 4.497 4 5 .052.232-2.067 1.789-2 2 1.169 3.701 1.96 2.345 2 2.5.088.338-.115.758 0 1 .623 1.312.8 3.578 2 5l-1 1c-2.826 3.522.722 7.451 4 8 5.08 46.072 46.536 69.674 90.5 60 38.603-8.494 39.853-27.535 54.5-57-4.428 12.977-7.09 26.015-16 37-12.729 15.694-45.712 25.662-65.5 24-12.755-1.071-48.504-16.089-56.5-26-15.122-18.743-28.266-89.791-21-112.5 11.011-34.415 82.98-31.727 111.5-29.5 14.628 1.142 32.049 4.298 43.5 14"/><path fill="#1e3e44" d="M583 750c25.912 17.366 13.211 64.825 6 89l-147.5-1-3.5-5c26.786.977 53.807 2.103 80.5 2 17.186-.066 42.772.746 59-1 2.701-.291 3.965 1.017 3.5-3 .963-.266 2.987.329 3.5 0 5.6-3.589 9.29-48.241 6.5-56.5-2.129 17.779-.098 36.502-6.5 53.5l.5-14-148-2c-.015-.151-2.427-1.043.5-3l148 1c4.123-4.785-14.377-2.932-17.5-3 4.333-3.25 12.178-2.108 18-3 .102-.016-.362 1.644.5 2l1.5-1.5c.369-4.763-.148-9.813 0-14.5.228-7.211 1.619-11.603-1-19 2.6-3.942-5.785-12.201-8.5-14-20.415-13.528-112.599-12.547-133.5 0 13.831-10.979 41.798-18.69 59.5-20 20.932-1.549 61.027 1.29 78.5 13"/><path fill="#5ab2ca" d="M651 777c-1.093 8.622-4.611 17.086-3.5 26 2.693 2.025 38.3-50.942 41.5-53 .904-.581 1.812-1.221 3-1-18.339 24.819-40.425 63.29-64 82 1.415-17.377 7.633-34.248 10-51.5 1.413-10.294.034-31.299 2-39 .12-.469 3.065-3.184 4-3.5-1.199 2.735-5.128 36.904-4 38.5.32.453 9.203 1.801 11 1.5"/><path fill="#102028" d="M587 771c-7.877-22.25-55.961-21.66-75.5-22-.527-.009-1.378.001-2 0-3.326-.004-6.678-.101-10 0-1.155.035-1.777-.008-2 0-19.401.697-52.955 2.671-61.5 23.5-1.564 3.813-.654 11.162-4 13.5.269-11.261 2.882-22.926 13-29 20.901-12.547 113.085-13.528 133.5 0 2.715 1.799 11.1 10.058 8.5 14"/><path fill="#158e87" d="M587 771c2.619 7.397 1.228 11.789 1 19 .023-2.356-8.704-2.826-10.5-3-44.461-4.302-95.78 3.219-141 0-1.009.532-.255 2.172-.5 3-.166.561-.166 3.439 0 4 .245.828-.509 2.468.5 3 17.158-2.842 146.746 4.522 150.5-2 .103-.179-.886-3.433-1-4l2-1c-.148 4.687.369 9.737 0 14.5l-1.5 1.5c-.862-.356-.398-2.016-.5-2l-.5-4h-149l1 7c43.468.706 87.056-.945 130.5 0 3.123.068 21.623-1.785 17.5 3l-148-1c-2.927 1.957-.515 2.849-.5 3 .511 5.024 2.638 5.511 7.5 6 41.496 4.171 94.227-5.205 137-1l3.5-3-.5 14c6.402-16.998 4.371-35.721 6.5-53.5 2.79 8.259-.9 52.911-6.5 56.5-.513.329-2.537-.266-3.5 0-24.818 6.853-106.067 2.373-136.5 2-.415-.005-4.204-2.373-5.5-2-1.2-1.422-1.377-3.688-2-5 1.594.515 2.066-1.035 3-1l2.5 4h139c2.319-1.254.447-1.912.5-2 .607-1.006 1.124-1.683 1-3-.19-2.018 1.909-2.4-.5-4-8.32.94-16.806-.828-25-1-30.237-.635-77.153-2.46-106 0-4.738.404-9.323.689-12.5 3-1.079.785-2.372 1.4-2 3-.04-.155-.831 1.201-2-2.5-.067-.211 2.052-1.768 2-2-.113-.503-3.686-2.187-4-5-.624-5.586-1.14-23.621-1-29.5 3.346-2.338 2.436-9.687 4-13.5 8.545-20.829 42.099-22.803 61.5-23.5.223-.008.845.035 2 0 3.322-.101 6.674-.004 10 0 .622.001 1.473-.009 2 0 19.539.34 67.623-.25 75.5 22m-132-12c-.545.341-3.064-.59-4 1.5.172.962 2.838.279 3 .5.233.317-.581 3.188 1.5 4 35.056-2.093 73.329 2.802 108 0 .78-.063.216-1.92 1-2 4.615-.469 8.501 1.498 13 0 .062-1.801-3.699-2.564-4.5-3-1.27-.691-2.663-1.459-4-2-15.169-6.138-101.47-6.842-114 1m-15 11c-.685.675-2.43 2.599-2 3.5 46.905 3.131 95.802.613 143.5 1.5l2.5-3c2.399-3.042-5.896-3.713-8.5-4-41.635-4.59-91.499 3.436-134 0-.775.228-1.306 1.809-1.5 2m-4 10c-.187 1.021-.25 4.469.5 5 5.491.136 11.026-.188 16.5 0 44.381 1.523 89.078-1.138 133.5 0 1.033-.51.211-2.233.5-3 .208-.554-.714-1.009-1-2-.042-.146 2.296-1.065.5-3h-150c-.952.501-.334 2.096-.5 3"/><path fill="#224648" d="m569 758-114 1c12.53-7.842 98.831-7.138 114-1"/><path fill="#080e1a" d="M569 758c1.337.541 2.73 1.309 4 2l-119 1c-.162-.221-2.828.462-3-.5.936-2.09 3.455-1.159 4-1.5z"/><path fill="#2b6179" d="M596 856c-1.049 2.22-1.779 5.634-3 7.5-1.201 1.836-3.644 2.971-5 4.5 6.635-36.281 18.975-72.81 14-110 13.975 25.549 4.474 45.916-1 72.5-.566 2.747 2.825 3.315 2 7-.924 4.125-5.073 14.424-7 18.5"/><path fill="#095968" d="M573 760c.801.436 4.562 1.199 4.5 3-4.499 1.498-8.385-.469-13 0-.784.08-.22 1.937-1 2-34.671 2.802-72.944-2.093-108 0-2.081-.812-1.267-3.683-1.5-4z"/><path fill="#0a0a1a" d="m584 772-144-2c.194-.191.725-1.772 1.5-2 42.501 3.436 92.365-4.59 134 0 2.604.287 10.899.958 8.5 4"/><path fill="#083c49" d="m584 772-2.5 3c-47.698-.887-96.595 1.631-143.5-1.5-.43-.901 1.315-2.825 2-3.5z"/><path fill="#174043" d="m586 780-70 .5 71 1.5c-.289.767.533 2.49-.5 3-44.422-1.138-89.119 1.523-133.5 0l13.5-4-30.5-1c.166-.904-.452-2.499.5-3h150c1.796 1.935-.542 2.854-.5 3"/><path fill="#142a34" d="M586 780c.286.991 1.208 1.446 1 2l-71-1.5z"/><path fill="#062e3b" d="M453 785c-5.474-.188-11.009.136-16.5 0-.75-.531-.687-3.979-.5-5l30.5 1z"/><path fill="#1e3e44" d="m588 790-2 1-150-1c.245-.828-.509-2.468.5-3 45.22 3.219 96.539-4.302 141 0 1.796.174 10.523.644 10.5 3"/><path fill="#0c1521" d="M586 791c.114.567 1.103 3.821 1 4l-151-1c-.166-.561-.166-3.439 0-4z"/><path fill="#085564" d="M587 795c-3.754 6.522-133.342-.842-150.5 2-1.009-.532-.255-2.172-.5-3z"/><path fill="#0c2f3e" d="M586 804c-5.822.892-13.667-.25-18 3-43.444-.945-87.032.706-130.5 0l-1-7h149z"/><path fill="#a2dae6" d="M432 843c2.921 10.754 7.237 20.591 11 31-1.778-1.213-3.3-2.678-5-4-9.918-10.418-23.145-54.196-19-66.5.69-2.047 2.348-2.206 3-1 .969 1.792 2.4 21.08 2 25z"/><path fill="#062e3b" d="m585 814-3.5 3c-42.773-4.205-95.504 5.171-137 1-4.862-.489-6.989-.976-7.5-6z"/><path fill="#1f4c4b" d="m583 824-144-2c3.177-2.311 7.762-2.596 12.5-3 28.847-2.46 75.763-.635 106 0 8.194.172 16.68 1.94 25 1 2.409 1.6.31 1.982.5 4"/><path fill="#0f141d" d="M583 824c.124 1.317-.393 1.994-1 3l-28.5-2c-37.767-1.039-75.816 1.414-113.5 0-.934-.035-1.406 1.515-3 1-.115-.242.088-.662 0-1-.372-1.6.921-2.215 2-3z"/><path fill="#0a5362" d="M582 827c-.053.088 1.819.746-.5 2h-139l-2.5-4c37.684 1.414 75.733-1.039 113.5 0z"/><path fill="#130c19" d="M581 831c.465 4.017-.799 2.709-3.5 3-16.228 1.746-41.814.934-59 1-26.693.103-53.714-1.023-80.5-2v-1l1-1c1.296-.373 5.085 1.995 5.5 2 30.433.373 111.682 4.853 136.5-2"/><path fill="#178f8a" d="m438 833 3.5 5 147.5 1c-.091.306.094.695 0 1H442c-3.278-.549-6.826-4.478-4-8z"/><path fill="#25454d" d="M589 840c-.094.304.096.697 0 1-2.729-.494-1.587 1.169-2 2-14.647 29.465-15.897 48.506-54.5 57-43.964 9.674-85.42-13.928-90.5-60z"/><path fill="#4d8c9a" d="M589 841c-.993 3.121-1.947 1.844-2 2 .413-.831-.729-2.494 2-2"/></svg>