<svg xmlns="http://www.w3.org/2000/svg" width="1024" height="1024"><defs><linearGradient id="a" x1="394.935" x2="590.763" y1="221.236" y2="425.54" gradientUnits="userSpaceOnUse"><stop offset="0%" style="stop-color:#e5f1f4"/><stop offset="100%" style="stop-color:#8198a5"/></linearGradient></defs><defs><linearGradient id="b" x1="596.472" x2="425.003" y1="295.707" y2="402.489" gradientUnits="userSpaceOnUse"><stop offset="17.327%" style="stop-color:#79c4d6"/><stop offset="50.99%" style="stop-color:#e3f6fa"/><stop offset="100%" style="stop-color:#ace1ed"/></linearGradient></defs><defs><linearGradient id="c" x1="476.907" x2="422.465" y1="286.116" y2="306.115" gradientUnits="userSpaceOnUse"><stop offset="0%" style="stop-color:#ebf8fc"/><stop offset="100%" style="stop-color:#a4e3f0"/></linearGradient></defs><defs><linearGradient id="d" x1="633.873" x2="507.238" y1="269.772" y2="452.112" gradientUnits="userSpaceOnUse"><stop offset="0%" style="stop-color:#597485"/><stop offset="100%" style="stop-color:#4d6265"/></linearGradient></defs><defs><linearGradient id="e" x1="512.219" x2="521.724" y1="285.325" y2="404.948" gradientUnits="userSpaceOnUse"><stop offset="0%" style="stop-color:#001f31"/><stop offset="100%" style="stop-color:#014e68"/></linearGradient></defs><defs><linearGradient id="f" x1="450.083" x2="579.926" y1="577.282" y2="641.826" gradientUnits="userSpaceOnUse"><stop offset="0%" style="stop-color:#7bbed5"/><stop offset="100%" style="stop-color:#2483a6"/></linearGradient></defs><defs><linearGradient id="g" x1="359.538" x2="422.538" y1="856.925" y2="857.107" gradientUnits="userSpaceOnUse"><stop offset="0%" style="stop-color:#6ecadc"/><stop offset="100%" style="stop-color:#50aec8"/></linearGradient></defs><path fill="#0b91ba" d="M520 85c25.673 10.473 7.228 45.14-13.5 32-11.536-7.313-8.405-24.756 2.5-31 .701-.268 4.128-1.96 4.5-2 2.695-.284 4.123.552 6.5 1m-14 12c-7.058 1.201 3.638 15.902 6.5 17 8.834 3.388 16.057-2.588 17.5-11.5-4.19.664-5.627 3.148-9-1.5 6.433-15.004-14.152-15.583-15-4m1.5 17c.265 3.478 11.585 5.127 11.5 2.5z"/><path fill="#032144" d="M521 136c-4.911-1.884-1.41-10.299-4-13.5-2.059 7.749-2.527 15.508-3 23.5-.115 1.937.027 2.725 0 4-2.998-.261-2.643 7.192-3 10-.922-.1-2.033.418-2-1 1.454-3.077 5.007-34.167 4-36.5-.286-.662-9.212-3.988-12-8-7.436-10.7-4.022-23.899 8-28.5-10.905 6.244-14.036 23.687-2.5 31 20.728 13.14 39.173-21.527 13.5-32 14.047 2.65 18.857 18.246 11 29.5-2.519 3.609-11.604 7.439-12 9-.156.614 1.808 10.28 2 12.5"/><path fill="#edfdfb" d="M521 101c-3.386 7.896-15.754 6.295-15-4 .848-11.583 21.433-11.004 15 4"/><path fill="#0ab1d3" d="M506 97c-.754 10.295 11.614 11.896 15 4 3.373 4.648 4.81 2.164 9 1.5-1.443 8.912-8.666 14.888-17.5 11.5-2.862-1.098-13.558-15.799-6.5-17"/><path fill="#015079" d="m507.5 114 11.5 2.5c.085 2.627-11.235.978-11.5-2.5"/><path fill="#1aa2bf" d="M521 136c.747 8.635 3.303 17.218 3 26-2.992-.305-3.824-.682-6-1 4.792-1.467.717-15.332-4-15 .473-7.992.941-15.751 3-23.5 2.59 3.201-.911 11.616 4 13.5"/><path fill="#0fb8d0" d="M518 161c-1.816-.265-3.311-.686-5-1 1.308-3.321.926-6.554 1-10 .027-1.275-.115-2.063 0-4 4.717-.332 8.792 13.533 4 15"/><path fill="#0575a8" d="M514 150c-.074 3.446.308 6.679-1 10-.625-.116-1.357.07-2 0 .357-2.808.002-10.261 3-10"/><path fill="#a8bdbc" d="M511 160c.643.07 1.375-.116 2 0 1.689.314 3.184.735 5 1 2.176.318 3.008.695 6 1 31.043 3.161 49.907 6.291 79 18l-3 3c-24.353-9.873-59.633-17.734-86-17-.041-2.458-4.168-4.811-6-5-.547-2.026.952-1.899 1-2-.033 1.418 1.078.9 2 1"/><path fill="#ddebed" d="M508 161c1.832.189 5.959 2.542 6 5-5.366.149-10.583 1.51-16 1-71.216-.726-128.236 45.233-167 99.5-3.051 4.271-5.909 2.517-8 5.5l-2-3c5.595-5.721 14.903-25.237 23-34.5 33.2-37.981 113.141-78.735 164-73.5"/><path fill="#c6e3ef" d="M514 166c26.367-.734 61.647 7.127 86 17 37.742 15.301 70.838 39.702 93 74-2.068.857-2.384 5.065-2 7-39.911-59.432-109.324-95.274-181-95-3.209-.783-8.899-1.968-12-2 5.417.51 10.634-.851 16-1"/><path fill="#f9fcfd" d="M498 167c3.101.032 8.791 1.217 12 2-104.611.4-227.594 114.667-190 222l-3 1c-3.135-10.662-5.409-22.008-7-33-.643-13.213-1.507-26.27 0-39.5.944-8.291 8.778-41.476 13-47.5 2.091-2.983 4.949-1.229 8-5.5 38.764-54.267 95.784-100.226 167-99.5"/><path fill="url(#a)" d="M510 169c71.676-.274 141.089 35.568 181 95 .504 2.541 1.467 2.445 2 4-.573 48.997-15.162 106.198-52 140 21.44-46.291 14.728-98.941-14-140-23.362-33.39-55.429-56.712-97-62-37.324-4.748-73.455 5.901-104 27-3.268 2.257-12.554 6.875-14 8.5-.723.813 1.733 2.201 1 3-4.128 4.503-10.957 9.202-12 15.5-2.477 3.782-6.041 11.603-7 16-3.209-.091-3.749 3.857-5 6-20.727 35.508-17.361 86.037-2 123 1.86 4.476 3.686 9.799 6 14 8.547 22.31 24.63 50.272 45.5 63 12.445 7.59 29.782 8.55 41.5 17-69.633-8.573-135.157-37.071-160-108-37.594-107.333 85.389-221.6 190-222" style="fill:url(#a)"/>/&gt;<path fill="#1c3d4e" d="M603 180c63.287 25.471 65.334 46.225 106 91-.725 4.32 3.675 6.132 5 9 3.549 7.684.229 4.163 1 7.5 3.203 13.867 4.267 26.194 6 40.5h-2c-2.163-25.902-12.063-49.432-26-71-22.162-34.298-55.258-58.699-93-74z"/><path fill="#167496" d="m530 206-3 2c-32.869-3.152-68.457 5.205-95 25-2.203.028-4.89 2.028-6 0 30.545-21.099 66.676-31.748 104-27"/><path fill="#114f69" d="M627 268v2c-22.594-33.31-60.027-58.167-100-62l3-2c41.571 5.288 73.638 28.61 97 62"/><path fill="#8ad0e6" d="M527 208c39.973 3.833 77.406 28.69 100 62 2.25 3.317 5.21 8.431 7 12-5.904 2.445-11.084-11.858-15-16.5-6.891-8.169-15.237-15.336-24-21.5-14.441-10.157-34.435-19.048-52-22-31.447-5.284-65.505-1.285-94 13-3.98-1.063-12.784-2.054-17-2 26.543-19.795 62.131-28.152 95-25"/><path fill="#30a3cc" d="m543 222-.5 7c-1.021.661-20.437-3.827-24-4-19.683-.956-47.596 1.246-62.5 13-1.297-.603-2.691-1.547-4-2-.917-.317-2.095-.758-3-1 28.495-14.285 62.553-18.284 94-13"/><path fill="#0d86a3" d="m595 244-8 8.5c12.971 10.704 25.045 23.569 33 38.5h-9c-23.122-39.63-70.086-61.345-115.5-57-3.882.371-25.354 5.342-28 7-2.092 1.311-1.629 2.267-.5 4-1.304-1.161-9.193-6.161-11-7 14.904-11.754 42.817-13.956 62.5-13 3.563.173 22.979 4.661 24 4l.5-7c17.565 2.952 37.559 11.843 52 22"/><path fill="#eaf6f9" d="M432 233c4.216-.054 13.02.937 17 2 .905.242 2.083.683 3 1l-2 4c-8.038-1.96-16.016-2.387-24 0-5.53 1.653-9.669 5.447-14 9-3.518 2.887-8.545 7.251-11 11 1.043-6.298 7.872-10.997 12-15.5.733-.799-1.723-2.187-1-3 1.446-1.625 10.732-6.243 14-8.5 1.11 2.028 3.797.028 6 0"/><path fill="url(#b)" d="M611 291c9.012 15.447 15.273 35 16 53 3.906 96.753-110.678 150.978-186.5 93-11.425-8.736-17.359-18.726-26.5-29-12.001-24.239-19.731-48.677-15-76 .442-2.552 2.694-16.498 4.5-17 4.473 3.725 8.9 7.44 13.5 11 1.408 1.089 8.788 3.934 9 4.5.439 1.171-6.877 21.644-1 24.5 1.301 25.831 15.252 49.199 36 64 31.945 22.789 75.468 23.397 107-1 12.206-5.811 27.891-30.378 32-43 4.48-13.759 4.264-21.792 3-35.5-.403-4.364 4.319-6.448-2-8.5l-1-17.5c-5.694 1.157-.664-1.069-1.5-2.5-.151-.258-1.904.504-2.5-.5-2.835-4.772-4.594-10.375-8-15-24.51-33.276-68.429-46.303-107-30.5-2.448-5.849-9.394-15.898-14-20-1.129-1.733-1.592-2.689.5-4 2.646-1.658 24.118-6.629 28-7 45.414-4.345 92.378 17.37 115.5 57" style="fill:url(#b)"/>/&gt;<path fill="url(#c)" d="M456 238c1.807.839 9.696 5.839 11 7 4.606 4.102 11.552 14.151 14 20 2.134 5.1 4.04 11.518 4 17-.192 26.028-18.25 43.909-43 48-3.763.622-12.593-1.506-15 1.5-2.176 2.717-2.208 19.361-2 23.5-5.877-2.856 1.439-23.329 1-24.5-.212-.566-7.592-3.411-9-4.5 2.874-8.989 2.547-19.862 2-29.5-.013-.223-1.98-3.777-2-4-.665-7.461 2.349-13.324-3-20.5.915-1.202 1.855-3.83 2-4 8.569-10.087 26.359-24.409 39.5-25 .45-2.241-4.071-2.652-5.5-3l2-4c1.309.453 2.703 1.397 4 2" style="fill:url(#c)"/>/&gt;<path fill="#a9dcf2" d="M450 240c1.429.348 5.95.759 5.5 3-13.141.591-30.931 14.913-39.5 25-1.271-3.914-3.385 4.002-6.5 4-.837 0-7.041-4.439-7.5-6.5-.433-1.943 7.371-10.851 9-13.5 4.928-3.776 12.213-6.365 15-12 7.984-2.387 15.962-1.96 24 0"/><path fill="#afccd9" d="M411 252c.497-.808 2.767-2.803 1-3 4.331-3.553 8.47-7.347 14-9-2.787 5.635-10.072 8.224-15 12"/><path fill="#0f5e91" d="M634 282c22.143 44.144 21.136 87.351-3 130-2.416.61-10.915-6.018-11-7.5-.093-1.613 10.601-23.466 12-30 2.504-11.699 3.126-26.661 2-38.5-1.408-14.805-7.015-31.889-14-45-7.955-14.931-20.029-27.796-33-38.5l8-8.5c8.763 6.164 17.109 13.331 24 21.5 3.916 4.642 9.096 18.945 15 16.5"/><path fill="#2f8eb4" d="M411 252c-1.629 2.649-9.433 11.557-9 13.5.459 2.061 6.663 6.5 7.5 6.5 3.115.002 5.229-7.914 6.5-4-.145.17-1.085 2.798-2 4-2.977 3.908-15.315 21.74-15 25.5.099 1.184 10.034 14.71-2.5 10.5-3.284 9.479-3.162 19.979-3.5 30-.943 27.929 3.03 39.923 14 65 1.688 3.858 6.419 10.227 5 14-7.824-11.327-15.202-24.796-19-38-6.073-21.113-5.665-39.256-3-59.5.267-2.03 4.993-12.148 5-13 .021-2.458-2.518-9.598-5-11.5.614-.962 2.103-1.917 3-3 .072.182 2.563-.455 2.5 3 2.371.708 7.599-8.862 7.5-9.5-.469-3.013-6.507-1.488-7.5-6.5l-2.5 11c-.392-2.519.421-11.347 1-14 .959-4.397 4.523-12.218 7-16 2.455-3.749 7.482-8.113 11-11 1.767.197-.503 2.192-1 3m-9.5 15c-3.209-1.105-6.321 18.243 2 16 4.174-1.125.323-5.191.5-5.5.644-1.126 1.835 1.389 2.5.5 6.837-9.133-2.328-3.019-5-11"/><path fill="#abd3e4" d="M719 328c2.745 32.88-6.25 80.695-27 107-.159.202-1.61.08-1 2-12.524 10.177-23.163 27.77-39 36-47.462 21.836-77.27 34.91-132 34-11.05-.184-22.99-1.696-34-3v-4c105.508 10.736 227.907-28.208 227-153.5-.248-34.274-9.783-48.687-20-78.5-.533-1.555-1.496-1.459-2-4-.384-1.935-.068-6.143 2-7 13.937 21.568 23.837 45.098 26 71"/><path fill="#0a5383" d="M601 331c-1.373-.446-8.849.513-11 0-2.689-11.692-8.086-25.764-18-33-1.949-9.772-10.206-18.079-20-20 .881-2.025-5.949-2.966-6.5-3-9.411-.584-21.151-2.582-30-2-9.743.64-21.324 5.73-30.5 9 .04-5.482-1.866-11.9-4-17 38.571-15.803 82.49-2.776 107 30.5 3.406 4.625 5.165 10.228 8 15 .596 1.004 2.349.242 2.5.5.836 1.431-4.194 3.657 1.5 2.5z"/><path fill="#5bbde0" d="M401.5 267c2.672 7.981 11.837 1.867 5 11-.665.889-1.856-1.626-2.5-.5-.177.309 3.674 4.375-.5 5.5-8.321 2.243-5.209-17.105-2-16"/><path fill="#04283f" d="M641 408c-23.255 50.208-80.498 80.848-135 79-1.316-3.985-5.472-.072-4-7 54.712 3.358 101.97-20.239 129-68 24.136-42.649 25.143-85.856 3-130-1.79-3.569-4.75-8.683-7-12v-2c28.728 41.059 35.44 93.709 14 140"/><path fill="url(#d)" d="M486 500c-1.724-.175-4.061-.761-6-1-11.718-8.45-29.055-9.41-41.5-17-20.87-12.728-36.953-40.69-45.5-63 5.455 9.901 13.332 18.949 21 27 24.247 25.457 56.586 39.799 92 41 54.502 1.848 111.745-28.792 135-79 36.838-33.802 51.427-91.003 52-140 10.217 29.813 19.752 44.226 20 78.5.907 125.292-121.492 164.236-227 153.5" style="fill:url(#d)"/>/&gt;<path fill="#1f78a5" d="m321 269 2 3c-4.222 6.024-12.056 39.209-13 47.5-1.507 13.23-.643 26.287 0 39.5-1.772-12.247-2.204-22.341-3-35.5-.028-.459 5.735-5.438-3-5.5 2.967-17.083 9.838-28.785 15-45l-.5-2c-14.472 9.739-22.015 16.277-25.5 34-1.469-.045-1.081-1.901-1-3 1.682-22.957 19.044-22.821 29-33"/><path fill="#95eaf4" d="M319 273c-18.381 10.282-20.548 33.693-22 53-.222 2.957.146 6.031 0 9l-3.5-7-3.5 12.5c1.32-11.678.733-23.969 3-35.5 3.485-17.723 11.028-24.261 25.5-34z"/><path fill="#7be2ee" d="M714 275c21.143 16.907 23.157 34.118 24 60-4.867-.115 1.29-9.837-5-7-.497-7.423-2.247-26.74-4-32.5-1.084-3.561-5.533-5.108-8-8-.693-.813 1.071-1.914 1-2-1.605-1.937-5.489-4.753-8-5.5-1.325-2.868-5.725-4.68-5-9 .894.984 2.922 1.689 5 4"/><path fill="#72cfe4" d="M417 326c-4.6-3.56-9.027-7.275-13.5-11-1.806.502-4.058 14.448-4.5 17-4.568.313 1.198 7.521-6 6 .338-10.021.216-20.521 3.5-30 12.534 4.21 2.599-9.316 2.5-10.5-.315-3.76 12.023-21.592 15-25.5 5.349 7.176 2.335 13.039 3 20.5.02.223 1.987 3.777 2 4 .547 9.638.874 20.511-2 29.5"/><path fill="#379bbd" d="M304 318c-.477 2.746-.631 5.289-1 8h-6c1.452-19.307 3.619-42.718 22-53-5.162 16.215-12.033 27.917-15 45"/><path fill="url(#e)" d="M552 278c-23.897-4.687-40.703 21.098-27 40.5 15.085 21.359 52.681 7.989 47-20.5 9.914 7.236 15.311 21.308 18 33 1.471 6.397 1.012 11.626 2 17-2.295 23.543-16.852 47.671-38 59-25.999 13.928-60.866 13.567-85-4-22.419-16.319-31.873-46.121-27-73 24.75-4.091 42.808-21.972 43-48 9.176-3.27 20.757-8.36 30.5-9 8.849-.582 20.589 1.416 30 2 .551.034 7.381.975 6.5 3m2.5 97c-9.148 2.254-10.351 19.278-2 23 20.088 8.953 24.989-28.664 2-23" style="fill:url(#e)"/>/&gt;<path fill="#052e56" d="m739 307 1 51.5c-1.547 6.625-1.788 13.723-2 20.5-.095 3.025-2.129 9.91-2 11.5.034.424 3.285 2.268 4 7.5.026.191-3.057 1.743 1 2-11.278 15.428-19.131 20.038-35 30 1.055-8.258 18.438-11.736 22-17.5 2.894-4.682 1.489-10.227 2-12 .069-.24 2.412-1.59 3-4 .617-2.532-2.058-3.726-2-4 .213-1.009 1.931 1.689 3-4.5 3.042-17.609 4.583-35.098 4-53-.843-25.882-2.857-43.093-24-60 13.566 15.093 14.708 11.456 25 32"/><path fill="#9ae8f8" d="M394 276c-.579 2.653-1.392 11.481-1 14 .098.63-.165 1.583 0 2-.897 1.083-2.386 2.038-3 3-4.459 6.989-7.069 16.965-9 25-3.026-.68-.405-10.871 0-12.5 2.112-8.503 6.806-16.77 8-25.5 1.251-2.143 1.791-6.091 5-6"/><path fill="#fdfdfe" d="M552 278c9.794 1.921 18.051 10.228 20 20 5.681 28.489-31.915 41.859-47 20.5-13.703-19.402 3.103-45.187 27-40.5"/><path fill="#39aed5" d="M393 292c-.165-.417.098-1.37 0-2l2.5-11c.993 5.012 7.031 3.487 7.5 6.5.099.638-5.129 10.208-7.5 9.5.063-3.455-2.428-2.818-2.5-3"/><path fill="#32a1c3" d="M733 328c.248 3.714.844 7.214 1 11-4.158-3.858-6.348-5.126-9 1-.232-2.688-3.845-10.723-4-12-1.733-14.306-2.797-26.633-6-40.5-.771-3.337 2.549.184-1-7.5 2.511.747 6.395 3.563 8 5.5.071.086-1.693 1.187-1 2 2.467 2.892 6.916 4.439 8 8 1.753 5.76 3.503 25.077 4 32.5"/><path fill="#22719b" d="M381 320c-5.445 22.654-4.155 37.306 1 60 1.059 4.661 5.08 17.67 7 22l-2 3c-15.361-36.963-18.727-87.492 2-123-1.194 8.73-5.888 16.997-8 25.5-.405 1.629-3.026 11.82 0 12.5"/><path fill="#01a7bc" d="M620 291c6.985 13.111 12.592 30.195 14 45-2.704 5.633 2.096 9.216-7 8-.727-18-6.988-37.553-16-53z"/><path fill="#50bee3" d="m393 379-11 1c-5.155-22.694-6.445-37.346-1-60 1.931-8.035 4.541-18.011 9-25 2.482 1.902 5.021 9.042 5 11.5-.007.852-4.733 10.97-5 13-2.665 20.244-3.073 38.387 3 59.5"/><path fill="#45aac8" d="M292 302c-.081 1.099-.469 2.955 1 3-2.267 11.531-1.68 23.822-3 35.5l3.5-12.5 3.5 7c-.195 3.962.052 8.027 0 12-.245 18.738-.489 29.775 3 48.5.302 1.62 1.687 6.939-1 7.5-4.935-16.602-4.242-35.833-9-51.5-1.111 18.645 3.718 36.694 6 55L283 365c-.405-3.321 2.178-4.991-1-7.5-.792.478-6.015 16.221-6 17.5-4.265-9.301-5.127-22.893-4-33l1 10.5c3.767-.386 1.341-7.806 2-11 1.253-6.075 5.868-12.456 5-18.5 3.154-6.787 6.765-15.625 12-21m-3.5 8c-5.798 3.011-8.119 27.792-6 34l2.5-18.5 4 7c1.07-2.521-1.133-7.586-1-9 .071-.761 4.793-15.729.5-13.5"/><path fill="#1c90b4" d="M739 307c2.556 5.102 6.553 9.22 8 15h-1c-.064-.334-2.785-5.902-4-5.5l4 9.5c.028.329-.008.668 0 1 .027 1.064-3.347 7.556 1 7 .179 3.02-1.017 6.664-1 8 .012.938-.015 1.964 0 3 .234 16.289 2.102 26.655-2 43-2.341-5.454 4.412-12.672-6-9 .212-6.777.453-13.875 2-20.5z"/><path fill="#86e0ec" d="M288.5 310c4.293-2.229-.429 12.739-.5 13.5-.133 1.414 2.07 6.479 1 9l-4-7-2.5 18.5c-2.119-6.208.202-30.989 6-34"/><path fill="#83f5fc" d="M746 322c.223 1.167-.109 2.705 0 4l-4-9.5c1.215-.402 3.936 5.166 4 5.5"/><path fill="#0c5585" d="M310 359c1.591 10.992 3.865 22.338 7 33 2.943 10.01 8.517 24.313 14 33l-3 6c-3.237-2.576-13.807-6.375-19-10-6.614-5.332-7.644-10.073-10-18 2.687-.561 1.302-5.88 1-7.5-3.489-18.725-3.245-29.762-3-48.5 7.403 2.406 5.172-14.915 6-21 .369-2.711.523-5.254 1-8 8.735.062 2.972 5.041 3 5.5.796 13.159 1.228 23.253 3 35.5"/><path fill="#053968" d="M747 324c.378 1.767.739 3.116 1 5 2.677 19.326 2.917 43.766-3 62.5 3.769-3.247 6.204-9.962 8-14.5-.088 9.23-7.028 16.198-12 23-4.057-.257-.974-1.809-1-2 3.237-2.366 3.148-6.606 4-10 4.102-16.345 2.234-26.711 2-43v-3c-.017-1.336 1.179-4.98 1-8-.147-2.479-.719-4.581-1-7-.008-.332.028-.671 0-1-.109-1.295.223-2.833 0-4h1c.143.571-.127 1.406 0 2"/><path fill="#219abb" d="M753 377c-1.796 4.538-4.231 11.253-8 14.5 5.917-18.734 5.677-43.174 3-62.5 1.936-1.243 1.57-5.881-1-5-.127-.594.143-1.429 0-2 15.158 13.348 12.791 37.841 6 55"/><path fill="#9ae2ee" d="M272 342c1.167-10.469 4.307-11.054 8-19 .868 6.044-3.747 12.425-5 18.5-.659 3.194 1.767 10.614-2 11z"/><path fill="#90f1eb" d="M748 329c-.261-1.884-.622-3.233-1-5 2.57-.881 2.936 3.757 1 5"/><path fill="#2b84b0" d="M303 326c-.828 6.085 1.403 23.406-6 21 .052-3.973-.195-8.038 0-12 .146-2.969-.222-6.043 0-9z"/><path fill="#54b6d4" d="M738 335c.583 17.902-.958 35.391-4 53 .445-10.71-2.001-21.908-2-32.5.001-4.928 2.201-11.608 2-16.5-.156-3.786-.752-7.286-1-11 6.29-2.837.133 6.885 5 7"/><path fill="#77f0f8" d="M747 334c-4.347.556-.973-5.936-1-7 .281 2.419.853 4.521 1 7"/><path fill="#092f4f" d="M721 328c.155 1.277 3.768 9.312 4 12 1.874 21.744-10.807 61.876-22 81.5-2.606 4.569-6.299 10.748-11 13.5 20.75-26.305 29.745-74.12 27-107z"/><path fill="#09bad6" d="M442 330c-4.873 26.879 4.581 56.681 27 73l-8 16c-20.748-14.801-34.699-38.169-36-64-.208-4.139-.176-20.783 2-23.5 2.407-3.006 11.237-.878 15-1.5"/><path fill="#0c71a9" d="M601 331c6.319 2.052 1.597 4.136 2 8.5 1.264 13.708 1.48 21.741-3 35.5-5.64-6.729-6.389-18.243-8-27-.988-5.374-.529-10.603-2-17 2.151.513 9.627-.446 11 0"/><path fill="#3aadcd" d="M399 332c-4.731 27.323 2.999 51.761 15 76-2.645-2.973-3.048-5.861-7-5-10.97-25.077-14.943-37.071-14-65 7.198 1.521 1.432-5.687 6-6"/><path fill="#0d86a3" d="M631 412c-27.03 47.761-74.288 71.358-129 68-28.853-1.771-55.982-12.33-78-31-3.466-4.721 6.232-8.639 6-11.5-.11-1.36-15.129-16.343-18-20.5 1.419-3.773-3.312-10.142-5-14 3.952-.861 4.355 2.027 7 5 9.141 10.274 15.075 20.264 26.5 29 75.822 57.978 190.406 3.753 186.5-93 9.096 1.216 4.296-2.367 7-8 1.126 11.839.504 26.801-2 38.5-1.399 6.534-12.093 28.387-12 30 .085 1.482 8.584 8.11 11 7.5"/><path fill="#07466f" d="M734 339c.201 4.892-1.999 11.572-2 16.5-.001 10.592 2.445 21.79 2 32.5-1.069 6.189-2.787 3.491-3 4.5-.058.274 2.617 1.468 2 4-.588 2.41-2.931 3.76-3 4-.511 1.773.894 7.318-2 12-3.562 5.764-20.945 9.242-22 17.5-.23.145-.72-.105-1 0l-.5-2c-3.253 2.433-6.921 6.706-10 9-.468.349-3.096-.329-3.5 0-.61-1.92.841-1.798 1-2 4.701-2.752 8.394-8.931 11-13.5 11.193-19.624 23.874-59.756 22-81.5 2.652-6.126 4.842-4.858 9-1"/><path fill="#47cae0" d="M746 345c-.015-1.036.012-2.062 0-3z"/><path fill="#09bad6" d="M600 375c-4.109 12.622-19.794 37.189-32 43-.856.407-6.161 3.115-6.5 3-.752-.254-6.696-12.141-7.5-14 21.148-11.329 35.705-35.457 38-59 1.611 8.757 2.36 20.271 8 27"/><path fill="#0a4573" d="M299 403c2.356 7.927 3.386 12.668 10 18-11.448-7.992-16.775-15.061-24-27 2.055-.287 3.863 3.184 4-1.5.108-3.716-5.203-20.962-6-27.5l13 41.5c-2.282-18.306-7.111-36.355-6-55 4.758 15.667 4.065 34.898 9 51.5"/><path fill="#146c9a" d="M283 365c.797 6.538 6.108 23.784 6 27.5-.137 4.684-1.945 1.213-4 1.5-3.62-5.981-8.913-11.366-9-19-.015-1.279 5.208-17.022 6-17.5 3.178 2.509.595 4.179 1 7.5"/><path fill="#fcfdfd" d="M554.5 375c22.989-5.664 18.088 31.953-2 23-8.351-3.722-7.148-20.746 2-23"/><path fill="#0a527d" d="M744 388c-.852 3.394-.763 7.634-4 10-.715-5.232-3.966-7.076-4-7.5-.129-1.59 1.905-8.475 2-11.5 10.412-3.672 3.659 3.546 6 9"/><path fill="#30a3cc" d="M393 379c3.798 13.204 11.176 26.673 19 38 2.871 4.157 17.89 19.14 18 20.5.232 2.861-9.466 6.779-6 11.5-2.262-1.918-4.927-3.913-7-6-10.466-10.54-21.988-27.44-28-41-1.92-4.33-5.941-17.339-7-22z"/><path fill="#c8e6f0" d="M320 391c24.843 70.929 90.367 99.427 160 108 1.939.239 4.276.825 6 1v4c-56.672-6.714-122.975-28.263-155-79-5.483-8.687-11.057-22.99-14-33z"/><path fill="#10527a" d="m417 443-3 3c-7.668-8.051-15.545-17.099-21-27-2.314-4.201-4.14-9.524-6-14l2-3c6.012 13.56 17.534 30.46 28 41"/><path fill="#0de0eb" d="M554 407c.804 1.859 6.748 13.746 7.5 14 .339.115 5.644-2.593 6.5-3-31.532 24.397-75.055 23.789-107 1l8-16c24.134 17.567 59.001 17.928 85 4"/><path fill="#547378" d="M486 504c11.01 1.304 22.95 2.816 34 3-.328 4.232.012 10.495-3 13-47.131-.417-68.866-13.217-110-22-2.821-.602-2.83-.976-6-1-22.188-11.981-39.719-26.392-57-44.5-4.916-5.151-11.185-17.667-16-21.5l3-6c32.025 50.737 98.328 72.286 155 79"/><path fill="#16363e" d="M705 430c-15.395 15.045-24.421 36.373-44 47 3.306-2.994 8.759-7.33 9.5-12-6.499 2.102-12.352 5.172-18.5 8 15.837-8.23 26.476-25.823 39-36 .404-.329 3.032.349 3.5 0 3.079-2.294 6.747-6.567 10-9z"/><path fill="#083b60" d="M417 443c2.073 2.087 4.738 4.082 7 6 22.018 18.67 49.147 29.229 78 31-1.472 6.928 2.684 3.015 4 7-35.414-1.201-67.753-15.543-92-41z"/><path fill="#00213f" d="M318 574c1.389.818 16.044 21.488 20 15.5-6.028-5.074-14.381-10.003-19-16.5-36.281-51.033 44.344-76.284 82-76 3.17.024 3.179.398 6 1l-23.5 3 5.5 3c-2.284.008-6.399-.795-8 1-3.624-.097-6.495-.096-10 1-10.973 3.43-6.022 10.276-4 20.5 7.685 38.868 25.496 101.891 42 137.5 9.456 20.402 34.573 33.175 55.5 42 47.609 20.078 65.529 17.592 110.5-5 10.494-5.272 41.425-21.085 46-31 4.715-10.219 6.538-31.046 10-42.5.245-.812 2.07-7.429 4-6-1.15 2.36-2.483 5.481-3 8-.099.482-1.942 7.741 1 4 5.88-21.357 8.736-43.373 11-65.5h2c-.48 1.828-.624 8.405-1 11-.268 1.854-3.68 16.581-2.5 17l7.5-13.5 17-70c.802-1.906-1.82-3.457-3-3.5.145-.567-.139-1.423 0-2 .052-.217 2.698-2.52 2-4 29.7 9.045 70.01 32.2 44 69-5.238 7.411-14.589 12.397-21.5 18 10.481-1.693 15.727-10.255 23.5-16 2.638 1.279 9.895 5.999 10.5 6 .885.002 10.061-10.279 13-12 5.003-2.93 13.538-3.869 17-6 1.781-1.096 26.59-29.618 27.5-31.5 3.335-6.899 4.635-17.445 4-25-1.521-18.109-28.205-51.705 4.5-56.5 53.238-7.806 53.51 72.338 28.5 101.5l43 12c1.308 2.737-8.258 24.776-10 29-1.376 3.337-4.282 2.201-5 4-2.045 5.122-.531 18.321-4 26-2.871 6.357-11.739 10.182-12 11-.585 1.836 1.771 6.559 1 10-5.377 24.003-44.41 25.54-62.5 15.5-1.531-.85-6.251-6.938-7-7-2.569-.214-2.631 3.74-4 4-22.274 4.237-40.915-20.104-42.5-40-.565-7.093 2.893-15.093 1.5-22-3.363 2.134-12.538 16.36-8 19 .325.189 4.735-3.482 3.5 3-12.404-2.728-22.819-23.534-24.5-24-2.392-.664-30.621 7.625-37 4L625 673.5l-25 19c-.419 1.607 1.86 5.895 2 7.5-3.325 2.431-.781-2.811-4-5-2.309-1.57-6.285 1.627-8 3-5.573 2.038-10.653 5.544-16 8-4.203 1.93-8.81 4.262-13 6-40.597 16.837-55.157 15.24-96-1-.745-.296-1.259-.693-2-1-13.087-5.42-25.737-11.267-37-20-.364-7.686-16.481-10.772-20-19.5L380.5 595c-13.178.158-26.525-.676-39-5-2.654 11.53-24.581 21.038-28.5 26.5-1.877 2.616-2.438 11.934-4 15-4.317 8.476-15.632 21.832-25.5 23.5-6.497 1.098-15.54-2.217-18-2-1.026.091-12.627 8.812-18 10-17.967 3.974-43.735-.58-49.5-20.5-.85-2.936 1.114-8.562 1-9-.314-1.208-9.438-4.997-12-10-5.142-10.041.135-27.275-10-30l-11-31 43-12c-11.859-25.278-20.718-51.3-10-79 7.064-18.257 31.078-29.469 48.5-19.5 19.747 11.3-3.726 38.55-4.5 56.5-.953 22.084 12.006 29.864 25 44 2.191 2.383 3.581 8.976 6.5 10.5 2.126 1.11 11.658 1.885 16 4 3.791 1.847 13.078 12.004 14 12 1.864-.009 6.405-9.178 13.5-5m-119-96c-2.868 9.75-3.395 20.991-2 31 1.706 12.239 6.687 17.258 11 27 1.222 2.76 4.423 7.073 5 9.5.277 1.165-5.353 3.942.5 6.5 18.979-.076 28.013-4.209 45.5 5l5.5 40c4.951-8.53 7.108-18.439 7.5-27.5.032-.749 2.064-.275 2-1-.236-2.656-4.379-9.15-6-11.5-7.269-10.542-23.019-19.092-26-31.5-4.566-19.007 4.522-36.547 8-53.5.124-.606-.102-1.376 0-2 .043-.267 2.919-3.745 3-4.5 1.944-18.18-31.266-15.93-41.5-8.5-4.087 2.967-11.035 16.019-12.5 21m578-8c.861 2.979 3.566 8.999 5 12-4.841 5.675.526 3.121 2 7.5 9.864 29.302.441 39.357-17 58.5-15.535 17.051-15.123 20.919-4 42.5-4.582-1.776-6.562-6.443-8.5-10.5l-2.5 2c-.017-.069-1.181.158-1-1 .376-1.786.187-16.498-.5-17-35.299 10.072-43.565 49.814-21.5 77 6.279 7.737 18.422 16.377 28 9.5-5.034-7.186-4.534-16.466-4-25 .329-5.262 3.91-11.623 4-16.5 2.453-6.037 8.708-15.527 10-21.5 1.748-8.081-1.018-27.596 5-32.5 11.179-9.11 31.651.388 41.5-3 12.918-4.443 25.414-71.447 9.5-83-7.559-25.413-50.594-21.934-48-2.5.027.2 1.704 2.475 2 3.5M667 588c.001.964-1.086 1.095-1 2 26.997 5.54 51.041-24.223 47-50-2.177-13.89-15.809-22.253-28-26-5.539-1.702-13.097-6.356-16-.5-2.668 5.382-18.392 65.466-19 72-.172 1.853-.024 3.679-.5 5.5zm-321-74c-19.172 4.613-35.218 17.292-32 39 3.557 23.996 28.282 36.852 50 39 5.967.59 11.474 2.141 17.5 0-6.889-27.38-12.823-49.824-18.5-79.5-1.979-3.101-13.807.732-17 1.5m-126 40c-7.287.352-43.611 2.353-46 9.5-1.854 5.547 1.663 16.155 4 21.5 1.645 3.764 2.324 4.225 5 7 .148.154-.532 3.264 1.5 4 9.317 3.375 36.293-5.704 47.5-2-14.777 1.521-29.468 5.237-44.5 5-2.972 10.325-1.009 26.007 10.5 29 .844.948 2.201 5.872 2.5 6 2.629 1.124 24.107 1.379 28 1 14.914-1.45 28.093-9.866 40.5-17.5.716-2.467-6.107-18.379-10-12.5-1.295-18.739-11.654-12.408-26-11 .089-2.446 7.576-2.777 9.5-3 3.547-.412 9.707-1.283 13 0 1.336-.888-.312-14.357-.5-17-2.025-28.485-9.358-21.237-35-20m551 14c-.297 3.08-.755 20.999 1.5 22h76c3.214-2.458 1.344-7.589 1.5-8 1.222-3.208 6.174-11.074 6-14.5-.612-12.065-45.199-13.346-54-13.5-16.669-.292-28.989-6.841-31 14m-495 9c-22.288 24.926 15.095 51.34-8 74.5 5.508 2.934 14.347 1.959 19.5-.5 8.776-4.187 18.863-16.794 20.5-26 1.518-8.538 1.726-21.499 0-30-2.333-11.495-14.813-27.564-27-29-1.651-.194-4.122-1.323-5 .5.015 3.529-.705 6.99 0 10.5m31 2c-2.923 3.674 1.542 8.211 5 12 1.28 1.402 14.489 12.992 15.5 13 1.181.009 4.762-5.305 4.5-7.5-.156-1.307-14.957-19.874-16.5-20.5-3.405-1.381-6.084-.037-8.5 3m404.5-3c-1.89.524-21.546 25.508-13 29 1.389.567 21.344-18.7 21.5-20.5.258-2.976-5.096-9.445-8.5-8.5m57.5 24c-5.465-1.421-9.802 18.298-8.5 20l27 12c10.473-.45 24.279 3.789 33.5-.5-9.488-2.43-29.076-.194-37.5-3.5-1.772-.695-1.35-2.925-1.5-3 25.303 3.43 64.709 16.35 59-24.5l-68.5-9.5c-2.937 2.653-2.882 5.593-3.5 9m-453 13c.883-.018 7.083-4.112 7-6.5-.053-1.506-6.301-7.554-8-8.5-1.009-.562-1.786-1.083-2.5-2 .126 2.901 1.431 17.043 3.5 17m-67 19c-2.405.834-6.386 1.376-9 2-4.313 1.029-9.062 2.598-13.5 3-11.652 1.056-33.043-7.437-23.5 11.5 6.712 13.32 27.074 11.504 39 9.5 4.116-.691 11.33-2.357 15-4 14.065-6.295 13.697-18.119 11-31.5-1.359-1.282-16.641 8.682-19 9.5m517 19c3.164 2.964 3.642 2.433 7 4 14.145 6.602 43.458 9.8 52-7 9.707-19.091-15.102-11.03-27-12-7.995-.652-15.595-3.166-23-6-1.821-.697-4.264-2.879-7-4-1.442-.591-4.344-3.814-6.5-3-5.151 8.556-2.987 20.987 4.5 28"/><path fill="#a2dbe8" d="M250 470c-27.434-14.402-47.226 9.717-43 36-.022-.101-1.839.348-2-.5-1.445-7.639 3.39-24.626-6-27.5 1.465-4.981 8.413-18.033 12.5-21 10.234-7.43 43.444-9.68 41.5 8.5-.081.755-2.957 4.233-3 4.5"/><path fill="#ade0ec" d="M823 469c4.824 16.219 1.759 48.034-9 61.5-3.8 4.756-3.79 4.104-8 4.5 21.289-27.212 18.98-85.049-29-65-.296-1.025-1.973-3.3-2-3.5-2.594-19.434 40.441-22.913 48 2.5"/><path fill="#405e5f" d="M661 477c-3.276 2.966-5.361 4.524-9 7-27.81 18.92-79.477 33.749-113 36-6.946.466-14.934.062-22 0 3.012-2.505 2.672-8.768 3-13 54.73.91 84.538-12.164 132-34 6.148-2.828 12.001-5.898 18.5-8-.741 4.67-6.194 9.006-9.5 12"/><path fill="#3c94b5" d="M250 470c-.102.624.124 1.394 0 2-11.286 15.663-18.373 32.936-19 52.5-.269 8.391 6.41 13.247-11 13.5.564-2.454-1.532-3.665-3-5-4.401-9.441-7.78-16.712-10-27-4.226-26.283 15.566-50.402 43-36"/><path fill="#4aa0be" d="M806 535c-17.647 1.659-7.954-16.408-11-30.5-1.532-7.087-10.118-16.467-13-22.5-1.434-3.001-4.139-9.021-5-12 47.98-20.049 50.289 37.788 29 65"/><path fill="#105d82" d="m772 555-5-7c17.441-19.143 26.864-29.198 17-58.5-1.474-4.379-6.841-1.825-2-7.5 2.882 6.033 11.468 15.413 13 22.5 3.046 14.092-6.647 32.159 11 30.5 4.21-.396 4.2.256 8-4.5 10.759-13.466 13.824-45.281 9-61.5 15.914 11.553 3.418 78.557-9.5 83-9.849 3.388-30.321-6.11-41.5 3"/><path fill="#0f5c82" d="M268 557c-3.899 5.958-3.675 2.804-9 0-17.487-9.209-26.521-5.076-45.5-5-5.853-2.558-.223-5.335-.5-6.5-.577-2.427-3.778-6.74-5-9.5 3.205-.003 9.29 2.039 12 2 17.41-.253 10.731-5.109 11-13.5.627-19.564 7.714-36.837 19-52.5-3.478 16.953-12.566 34.493-8 53.5 2.981 12.408 18.731 20.958 26 31.5"/><path fill="#73c1d6" d="M207 506c2.22 10.288 5.599 17.559 10 27-1.154-1.049-2.903-1.002-4-2.5-6.078-8.299-3.388-25.776-16-21.5-1.395-10.009-.868-21.25 2-31 9.39 2.874 4.555 19.861 6 27.5.161.848 1.978.399 2 .5"/><path fill="#022738" d="m652 484-15 11.5c9.739 2.38 19.407 4.578 29 7.5.698 1.48-1.948 3.783-2 4-27.799-9.467-53.481 7.53-80 13-7.12 1.468-14.769 2.092-22 3-4.817-3.897-23.209 5.294-23-3 33.523-2.251 85.19-17.08 113-36"/><path fill="#0f3f5c" d="M517 520c7.066.062 15.054.466 22 0-.209 8.294 18.183-.897 23 3-43.469 5.456-82.015 1.738-124.5-8-20.581-4.717-24.196-11.087-48.5-11l-5.5-3 23.5-3c41.134 8.783 62.869 21.583 110 22"/><path fill="#50899f" d="M389 504c24.304-.087 27.919 6.283 48.5 11 42.485 9.738 81.031 13.456 124.5 8 7.231-.908 14.88-1.532 22-3 .746 4.75-1.145 5.092 4.5 7-9.162 2.037-18.749 1.798-28 3-2.156.28-3.66.104-3.5 3-10.174.922-20.792 1.654-31 2-8.87.301-21.128 2.246-29.5 1-.953-.142-.046-2.857-1-3-15.152-2.276-30.131-4.262-45-8-18.862-4.742-47.896-18.041-65.5-20-1.289-.143-2.692.035-4 0 1.601-1.795 5.716-.992 8-1"/><path fill="#195771" d="M664 507c-.139.577.145 1.433 0 2-.604-.022-8.54 5.323-10.5 6-29.556 10.214-65.258 15.168-96.5 18-.16-2.896 1.344-2.72 3.5-3 9.251-1.202 18.838-.963 28-3-5.645-1.908-3.754-2.25-4.5-7 26.519-5.47 52.201-22.467 80-13"/><path fill="#c8f7fd" d="M381 505c1.308.035 2.711-.143 4 0 .228 3.969-5.835.818-7 2.5-.389.561 1.693 11.101 2 13.5 3.891 30.422 13.853 62.792 23 92 4.192 13.386 12.228 45.313 21 55 7.692 11.407 23.289 15.705 34 23.5-1.161 2.95-40.242-19.648-44-27.5-17.328-36.205-30.065-109.374-39-150.5-.735-3.385-.365-6.096-4-7.5 3.505-1.096 6.376-1.097 10-1"/><path fill="#beecf3" d="m526 535 13 2.5-10 2.5c-22.678-.063-48.305-2.488-71-5l-65-12c-3.525-1.059-9.335-2.498-13-2-.307-2.399-2.389-12.939-2-13.5 1.165-1.682 7.228 1.469 7-2.5 17.604 1.959 46.638 15.258 65.5 20 14.869 3.738 29.848 5.724 45 8 .954.143.047 2.858 1 3 8.372 1.246 20.63-.699 29.5-1"/><path fill="#85d5e7" d="M414 664c-2.969 1.282-3.087 2.848-5 0-16.504-35.609-34.315-98.632-42-137.5-2.022-10.224-6.973-17.07 4-20.5 3.635 1.404 3.265 4.115 4 7.5 8.935 41.126 21.672 114.295 39 150.5"/><path fill="#5eb0c9" d="M217 533c1.468 1.335 3.564 2.546 3 5-2.71.039-8.795-2.003-12-2-4.313-9.742-9.294-14.761-11-27 12.612-4.276 9.922 13.201 16 21.5 1.097 1.498 2.846 1.451 4 2.5"/><path fill="#92f3fa" d="M613 531c-27.714 4.815-55.742 9.078-84 9l10-2.5-13-2.5c10.208-.346 20.826-1.078 31-2 31.242-2.832 66.944-7.786 96.5-18 1.96-.677 9.896-6.022 10.5-6-2.083 8.128-5.093 15.943-7.5 24l1-12c-14.607 3.993-29.589 7.409-44.5 10"/><path fill="#12577a" d="m645 579 3 1.5c-1.191-6.664 6.54-23.181 6-28-.19-1.693-.787-2.309-2-1-2.079 5.455-4.523 10.876-6 16.5h-2c.28-2.74 3.189-18.693 1.5-20-7.599 2.487-1.685 10.704-6 17l-1.5-11.5c-9.939 7.204-.519 27.018 1 38-.104 3.842-17.069 65.987-19 69-2.479 3.868-38.125 26.48-43.5 28.5-4.428 1.664-5.762-1.449-7-1-5.411 1.962-10.482 4.347-15.5 6 45.45-40.219 60.647-104.107 59-163 14.911-2.591 29.893-6.007 44.5-10l-1 12c2.407-8.057 5.417-15.872 7.5-24 1.18.043 3.802 1.594 3 3.5l-17 70-7.5 13.5c-1.18-.419 2.232-15.146 2.5-17m-19.5-1c-1.169 2.098 1.024 16.551 3 16z"/><path fill="#094f72" d="M685 514c-2.486 1.233-1.581 4.362-2 6-1.701 6.647-3.307 13.352-5 20-3.478 13.66-11.009 34.352-11 48l-17.5 3c.476-1.821.328-3.647.5-5.5.608-6.534 16.332-66.618 19-72 2.903-5.856 10.461-1.202 16 .5"/><path fill="#094b72" d="M364 592c-1.212-2.812-1.536-6.002-2-9-3.612-23.347-7.94-40.683-15-63-.375-1.187-.951-2.833-1-4-.004-.1 2.581-1.196 0-2 3.193-.768 15.021-4.601 17-1.5 5.677 29.676 11.611 52.12 18.5 79.5-6.026 2.141-11.533.59-17.5 0"/><path fill="#ace0ea" d="M346 514c2.581.804-.004 1.9 0 2-7.745-.083-17.934 8.416-22 14.5-5.033 7.531-4.663 15.795-10 22.5-3.218-21.708 12.828-34.387 32-39"/><path fill="#a1e3ed" d="m713 540-10.5-11-19.5-9c.419-1.638-.486-4.767 2-6 12.191 3.747 25.823 12.11 28 26"/><path fill="#4fa6c3" d="M346 516c.049 1.167.625 2.813 1 4 .873 8.628 5.361 14.211 4 23.5-.724 4.942-9.821 18.737-14.5 20.5-3.226 1.216-14.606.155-14.5 1.5 10.049 11.983 22.075 23.757 38.5 24.5l1.5-7c.464 2.998.788 6.188 2 9-21.718-2.148-46.443-15.004-50-39 5.337-6.705 4.967-14.969 10-22.5 4.066-6.084 14.255-14.583 22-14.5"/><path fill="#227c9e" d="m362 583-1.5 7c-16.425-.743-28.451-12.517-38.5-24.5-.106-1.345 11.274-.284 14.5-1.5 4.679-1.763 13.776-15.558 14.5-20.5 1.361-9.289-3.127-14.872-4-23.5 7.06 22.317 11.388 39.653 15 63"/><path fill="#62c1d9" d="M393 523c2.818.847 4.171 2.103 6 3 1.184 29.133 9.951 58.825 20 86-5.34-6.975-8.968-.654-16 1-9.147-29.208-19.109-61.578-23-92 3.665-.498 9.475.941 13 2"/><path fill="#48a1be" d="M713 540c4.041 25.777-20.003 55.54-47 50 16.393 1.089 28.462-9.469 37-22.5-12.108-.811-18.248-.937-22-14-1.158-4.033.51-11.325-3-13.5 1.693-6.648 3.299-13.353 5-20l19.5 9z"/><path fill="#f0f9fc" d="M458 535c-.647-.072-1.353.073-2 0-14.443-1.618-29.095-5.074-43.5-7-.515-.069-8.026-1.127-5.5 2-2.152-3.343-6.101-3.069-8-4-1.829-.897-3.182-2.153-6-3z"/><path fill="#bbe0ee" d="M407 530c3.865 6.004 12.114 46.444 16 57.5 4.19 11.92 11.533 30.974 18 41.5l-13 6c-3.609-7.412-6.146-15.283-9-23-10.049-27.175-18.816-56.867-20-86 1.899.931 5.848.657 8 4"/><path fill="#94c8de" d="M456 535c-4.737 32.259-5.722 63.804 5 95l-13.5 9c-1.659-3.615-4.46-6.679-6.5-10-6.467-10.526-13.81-29.58-18-41.5-3.886-11.056-12.135-51.496-16-57.5-2.526-3.127 4.985-2.069 5.5-2 14.405 1.926 29.057 5.382 43.5 7"/><path fill="url(#f)" d="M613 531c1.647 58.893-13.55 122.781-59 163-11.917 3.925-21.34 10.18-35 11-21.959-21.616-47.711-45.064-58-75-10.722-31.196-9.737-62.741-5-95 .647.073 1.353-.072 2 0 22.695 2.512 48.322 4.937 71 5 28.258.078 56.286-4.185 84-9m-142 41c-5.313 8.157-10.196 19.53-10 29.5.37 18.838 24.498 40.282 43 41.5 48.402 9.385 84.61-49.499 42.5-83-24.62-19.587-58.713-13.771-75.5 12" style="fill:url(#f)"/>/&gt;<path fill="#cee3ed" d="M157.5 540c1.193 3.809-3.947 9.079-4.5 12.5-7.774 48.076 13.972 98.854 61.5 115.5-50.989.136-86.063-54.941-76.5-102.5 2.2-10.941 9.984-20.345 19.5-25.5"/><path fill="#156d90" d="M666 590c-.086-.905 1.001-1.036 1-2-.009-13.648 7.522-34.34 11-48 3.51 2.175 1.842 9.467 3 13.5 3.752 13.063 9.892 13.189 22 14-8.538 13.031-20.607 23.589-37 22.5"/><path fill="#3090af" d="M644 568c-2.264 22.127-5.12 44.143-11 65.5-2.942 3.741-1.099-3.518-1-4 .517-2.519 1.85-5.64 3-8-1.93-1.429-3.755 5.188-4 6-3.462 11.454-5.285 32.281-10 42.5-2.263-.727.508-3.489-2.5-4-2.106-.358-31.227 20.128-36 23-6.841 4.116-17.433 4.933-21 14l13.5-2c-44.971 22.592-62.891 25.078-110.5 5-20.927-8.825-46.044-21.598-55.5-42 1.913 2.848 2.031 1.282 5 0 3.758 7.852 42.839 30.45 44 27.5-10.711-7.795-26.308-12.093-34-23.5 7.055 7.791 21.406 12.821 30.5 18 6.712 3.823 15.918 14.59 24.5 10 12.697 7.185 25.474 9.872 40 9 13.66-.82 23.083-7.075 35-11 5.018-1.653 10.089-4.038 15.5-6 1.238-.449 2.572 2.664 7 1 5.375-2.02 41.021-24.632 43.5-28.5 1.931-3.013 18.896-65.158 19-69-1.519-10.982-10.939-30.796-1-38l1.5 11.5c4.315-6.296-1.599-14.513 6-17 1.689 1.307-1.22 17.26-1.5 20"/><path fill="#044366" d="M772 555c-6.018 4.904-3.252 24.419-5 32.5-1.292 5.973-7.547 15.463-10 21.5.071-3.854-3.807-22.199-5-27l2.5-2c1.938 4.057 3.918 8.724 8.5 10.5-11.123-21.581-11.535-25.449 4-42.5z"/><path fill="#c2dbe9" d="M874.5 548c16.933 4.958 19.061 38.776 16.5 53.5-5.08 29.201-47.706 73.696-80.5 66.5l39-27c27.878-26.732 30.901-56.099 25-93"/><path fill="#092c49" d="M504 643c7.031.463 19.27-1.584 26-4 1.661-.378 3.54-.136 5-1.5-2.1-1.918-4.023 1.149-5 1.5-23.478 5.347-50.607-1.621-62-24.5 13.242 17.616 30.748 26.904 53.5 24.5 5.243-.554 9.94-3.856 14-5 2.29-.645.615 3.309 7 0 27.218-14.107 24.976-50.453 3.5-70-19.586-17.827-41.451-18.758-63-3-4.542 3.321-8.536 6.528-12 11 16.787-25.771 50.88-31.587 75.5-12 42.11 33.501 5.902 92.385-42.5 83"/><path fill="#adcddc" d="M900.5 549c14.318 20.78 28.757 37.752 22.5 64.5-9.645 41.235-58.235 69.844-98.5 71.5l30-14c47.331-26.23 72.479-69.527 46-122"/><path fill="#e7f9fb" d="m546 564-24.5-11c-12.73-.618-29.645.312-37.5 10.5l-1-2.5c21.549-15.758 43.414-14.827 63 3"/><path fill="#7ed7ec" d="M645 579c.376-2.595.52-9.172 1-11 1.477-5.624 3.921-11.045 6-16.5 1.213-1.309 1.81-.693 2 1 .54 4.819-7.191 21.336-6 28z"/><path fill="#acccdb" d="M123.5 552c-9.839 21.714-10.253 48.278-1.5 70.5 12.586 31.952 50.846 47.961 79.5 61.5-63.739-6.598-134.11-69.442-78-132"/><path fill="#287ea0" d="M255 574c-21.459 13.107-46.762 17.826-72 18-2.676-2.775-3.355-3.236-5-7l52.5-9c.275-8.724-5.204-15.794-10.5-22 25.642-1.237 32.975-8.485 35 20"/><path fill="#3c8ba2" d="M546 564c21.476 19.547 23.718 55.893-3.5 70-6.385 3.309-4.71-.645-7 0-4.06 1.144-8.757 4.446-14 5-22.752 2.404-40.258-6.884-53.5-24.5 11.393 22.879 38.522 29.847 62 24.5-6.73 2.416-18.969 4.463-26 4-18.502-1.218-42.63-22.662-43-41.5-.196-9.97 4.687-21.343 10-29.5 3.464-4.472 7.458-7.679 12-11l1 2.5c7.855-10.188 24.77-11.118 37.5-10.5zm-61 5c-2.944 3.982-6.505 8.162-8 13-1.601 2.458-2.22 4.257-3 7-1.626 5.719-2.295 7.721-1 14-.846-.178-1.272 1.292-2 1-.122-.049.379-1.61-.5-2-1.884.004-.961 4.841.5 3 1.546-.056.767 1.36 1 2-1.502 4.763 4.3 11.338 7.5 15 1.321-1.526-.771-2.569-1.5-4l1-2c.924 1.385 2.849 3.828 4 5 1.023 5.791 6.799 6.617 11 8 .301.099.699-.098 1 0 1.957 6.309 22.581 7.055 27.5 6 2.205-.473 2.906-1.009 1.5-3 3.068-.5 8.294-1.743 11-3 16.162-2.857 26.682-28.306 19-42.5.855 8.209 1.572 14.482-1 22.5h-2c2.125-6.297 2.69-12.93 2-19.5-.477-4.542-5.694-9.159-3-13.5 1.351 2.046 2.759 5.849 5 6.5-2.48-6.095-4.019-12.47-9.5-16.5-2.184-.63.38 3.775.5 4-1.906-.623-4.196-2.547-6-3-10.963-7.718-25.023-9.86-38-7l-12.5 2c-2.594 1.377-3.136 5.155-4.5 7m-15.5 25c-.876.906-1.07 8.235 1 7 .672-1.287.569-6.117-1-7"/><path fill="#277b9a" d="M802 554c-3.705 6.844-6.99 14.064-6 22-7.468-2.391-17.128-1.714-25-8 2.011-20.841 14.331-14.292 31-14"/><path fill="#65b4cc" d="M220 554c5.296 6.206 10.775 13.276 10.5 22l-52.5 9c-2.337-5.345-5.854-15.953-4-21.5 2.389-7.147 38.713-9.148 46-9.5"/><path fill="#55a6c2" d="M850 582c-7.983 2.798-22.744 2.944-31.5 2-10.89-1.174-14.894-5.565-22.5-8-.99-7.936 2.295-15.156 6-22 8.801.154 53.388 1.435 54 13.5.174 3.426-4.778 11.292-6 14.5"/><path fill="#023a5d" d="M268 557c1.621 2.35 5.764 8.844 6 11.5.064.725-1.968.251-2 1-.392 9.061-2.549 18.97-7.5 27.5l-5.5-40c5.325 2.804 5.101 5.958 9 0"/><path fill="#0f3f63" d="M502 560c-5.653 1.246-12.12 5.915-17 9 1.364-1.845 1.906-5.623 4.5-7z"/><path fill="#e9faf9" d="M540 567c-13.102-3.289-22.729-6.233-37-2-8.942 2.653-20.768 8.965-26 17 1.495-4.838 5.056-9.018 8-13 4.88-3.085 11.347-7.754 17-9 12.977-2.86 27.037-.718 38 7"/><path fill="#08d0e6" d="M540 567c1.804.453 4.094 2.377 6 3 1.007 1.881 2.757 4.118 4 6-2.694 4.341 2.523 8.958 3 13.5.69 6.57.125 13.203-2 19.5-8.757 25.946-48.054 28.664-66 10l11-36.5c-6.892-3.747 6.792-10.978 7-17.5 14.271-4.233 23.898-1.289 37 2"/><path fill="#439cb9" d="M751 581c-.866 4.116-7.054 17.003-9 25-1.207-8.319-12.018-9.543-19-9.5-2.274 15.334-2.247 25.818 5 39.5.15.284 2.177 4.843 1 5-22.065-27.186-13.799-66.928 21.5-77 .687.502.876 15.214.5 17"/><path fill="#4096b4" d="m281 566 11 10.5c4.467 5.348 7.989 12.667 12 18 1.967 2.616 1.278 3.961 4 .5 1.726 8.501 1.518 21.462 0 30l-1.5-20c.601 13.678-3.47 16.477-14.5 22.5-3.533-11.172-5.832-22.742-9-34-1.366-4.852-6.204-12.536-7-16.5-.705-3.51.015-6.971 0-10.5.878-1.823 3.349-.694 5-.5"/><path fill="#05b1dc" d="M503 565c-.208 6.522-13.892 13.753-7 17.5L485 619c-8.542-8.883-11.997-17.355-11-30 .78-2.743 1.399-4.542 3-7 5.232-8.035 17.058-14.347 26-17"/><path fill="#8acbdc" d="M308 595c-2.722 3.461-2.033 2.116-4-.5-4.011-5.333-7.533-12.652-12-18L281 566c12.187 1.436 24.667 17.505 27 29"/><path fill="#144c67" d="M550 576c-1.243-1.882-2.993-4.119-4-6-.12-.225-2.684-4.63-.5-4 5.481 4.03 7.02 10.405 9.5 16.5-2.241-.651-3.649-4.454-5-6.5"/><path fill="#115d82" d="M796 576c7.606 2.435 11.61 6.826 22.5 8 8.756.944 23.517.798 31.5-2-.156.411 1.714 5.542-1.5 8h-76c-2.255-1.001-1.797-18.92-1.5-22 7.872 6.286 17.532 5.609 25 8"/><path fill="#406e76" d="M712 574c-7.773 5.745-13.019 14.307-23.5 16 6.911-5.603 16.262-10.589 21.5-18 .07.466 1.873 1.938 2 2"/><path fill="#54898e" d="m318 574 1-1c4.619 6.497 12.972 11.426 19 16.5-3.956 5.988-18.611-14.682-20-15.5"/><path fill="#0d5b80" d="M255 574c.188 2.643 1.836 16.112.5 17-3.293-1.283-9.453-.412-13 0-1.924.223-9.411.554-9.5 3-.33.032-.67-.034-1 0-11.207-3.704-38.183 5.375-47.5 2-2.032-.736-1.352-3.846-1.5-4 25.238-.174 50.541-4.893 72-18"/><path fill="#576e6b" d="m312 591-5-12c2.416-3.037 5.095-4.381 8.5-3 1.543.626 16.344 19.193 16.5 20.5.262 2.195-3.319 7.509-4.5 7.5-1.011-.008-14.22-11.598-15.5-13"/><path fill="#4c6867" d="M711.5 576c3.404-.945 8.758 5.524 8.5 8.5-.156 1.8-20.111 21.067-21.5 20.5-8.546-3.492 11.11-28.476 13-29"/><path fill="#074a6f" d="M308 625c-1.637 9.206-11.724 21.813-20.5 26-5.153 2.459-13.992 3.434-19.5.5 23.095-23.16-14.288-49.574 8-74.5.796 3.964 5.634 11.648 7 16.5 3.168 11.258 5.467 22.828 9 34 11.03-6.023 15.101-8.822 14.5-22.5z"/><path fill="#3792b9" d="m625.5 578 3 16c-1.976.551-4.169-13.902-3-16"/><path fill="#87a8a7" d="M312 591c-3.458-3.789-7.923-8.326-5-12z"/><path fill="#084e74" d="M752 582c1.193 4.801 5.071 23.146 5 27-.09 4.877-3.671 11.238-4 16.5-.534 8.534-1.034 17.814 4 25-9.578 6.877-21.721-1.763-28-9.5 1.177-.157-.85-4.716-1-5 15.382-6.136 10.861-17.1 14-30 1.946-7.997 8.134-20.884 9-25-.181 1.158.983.931 1 1"/><path fill="#67c5d6" d="M535 629c7.46-3.466 15.495-12.19 18-20 2.572-8.018 1.855-14.291 1-22.5 7.682 14.194-2.838 39.643-19 42.5"/><path fill="#051f48" d="M485 619c17.946 18.664 57.243 15.946 66-10h2c-2.505 7.81-10.54 16.534-18 20-2.706 1.257-7.932 2.5-11 3-12.986 2.118-17.123.857-29-3-.301-.098-.699.099-1 0-3.577-2.696-7.826-4.767-11-8-1.151-1.172-3.076-3.615-4-5-2.263-3.391-5.19-9.072-6-13-1.295-6.279-.626-8.281 1-14-.997 12.645 2.458 21.117 11 30"/><path fill="#499bb9" d="M782 625c-12.124-6.077-15.659-10.346-13-25 .618-3.407.563-6.347 3.5-9l68.5 9.5c5.709 40.85-33.697 27.93-59 24.5"/><path fill="#4498b6" d="M259 605c.388 5.616-.2 14.86-5.5 18-6.507 3.855-47.706 7.027-55.5 5-11.509-2.993-13.472-18.675-10.5-29 15.032.237 29.723-3.479 44.5-5 .33-.034.67.032 1 0 14.346-1.408 24.705-7.739 26 11"/><path fill="#3c5f5e" d="M714 615c-.957-.12-2.081.202-3 0 1.235-6.482-3.175-2.811-3.5-3-4.538-2.64 4.637-16.866 8-19 1.393 6.907-2.065 14.907-1.5 22"/><path fill="#06507c" d="M469.5 594c1.569.883 1.672 5.713 1 7-2.07 1.235-1.876-6.094-1-7"/><path fill="#5290a3" d="m315 598 1 15c-2.069.043-3.374-14.099-3.5-17 .714.917 1.491 1.438 2.5 2"/><path fill="#227c9f" d="M742 606c-3.139 12.9 1.382 23.864-14 30-7.247-13.682-7.274-24.166-5-39.5 6.982-.043 17.793 1.181 19 9.5"/><path fill="#375758" d="m316 613-1-15c1.699.946 7.947 6.994 8 8.5.083 2.388-6.117 6.482-7 6.5"/><path fill="#05476d" d="M769 600c-2.659 14.654.876 18.923 13 25 .15.075-.272 2.305 1.5 3 8.424 3.306 28.012 1.07 37.5 3.5-9.221 4.289-23.027.05-33.5.5l-27-12c-1.302-1.702 3.035-21.421 8.5-20"/><path fill="#073965" d="M471 604v1c-1.461 1.841-2.384-2.996-.5-3 .879.39.378 1.951.5 2"/><path fill="#02446b" d="M198 628c7.794 2.027 48.993-1.145 55.5-5 5.3-3.14 5.888-12.384 5.5-18 3.893-5.879 10.716 10.033 10 12.5-12.407 7.634-25.586 16.05-40.5 17.5-3.893.379-25.371.124-28-1-.299-.128-1.656-5.052-2.5-6"/><path fill="#70edf0" d="m479 616-1 2c-1.922-3.776-4.502-6.876-6-11-.233-.64.546-2.056-1-2v-1c.728.292 1.154-1.178 2-1 .81 3.928 3.737 9.609 6 13"/><path fill="#0c345b" d="M478 618c.729 1.431 2.821 2.474 1.5 4-3.2-3.662-9.002-10.237-7.5-15 1.498 4.124 4.078 7.224 6 11"/><path fill="#47a2c0" d="M419 612c2.854 7.717 5.391 15.588 9 23 10.25 21.05 30.251 49.259 51 61-8.582 4.59-17.788-6.177-24.5-10-9.094-5.179-23.445-10.209-30.5-18-8.772-9.687-16.808-41.614-21-55 7.032-1.654 10.66-7.975 16-1"/><path fill="#9ee8ed" d="M494 629c-4.201-1.383-9.977-2.209-11-8 3.174 3.233 7.423 5.304 11 8"/><path fill="#12658a" d="M257 654c-5.94-4.567-4.45-15.479-8-22 2.359-.818 17.641-10.782 19-9.5 2.697 13.381 3.065 25.205-11 31.5"/><path fill="#136284" d="M768 626c-5.387 5.997 2.12 17.584-2 25-7.487-7.013-9.651-19.444-4.5-28 2.156-.814 5.058 2.409 6.5 3"/><path fill="#187194" d="M768 626c2.736 1.121 5.179 3.303 7 4 1.793 9.249-.997 15.614-2 25-3.358-1.567-3.836-1.036-7-4 4.12-7.416-3.387-19.003 2-25"/><path fill="#9acce1" d="M441 629c2.04 3.321 4.841 6.385 6.5 10l13.5-9c10.289 29.936 36.041 53.384 58 75-14.526.872-27.303-1.815-40-9-20.749-11.741-40.75-39.95-51-61z"/><path fill="#aeecf3" d="M524 632c1.406 1.991.705 2.527-1.5 3-4.919 1.055-25.543.309-27.5-6 11.877 3.857 16.014 5.118 29 3"/><path fill="#3e99b7" d="M798 636c-4.468 3.021 1.604 1.176 2 3.5.402 2.356-1.255 18.034.5 19.5l8-1 16.5-10c-8.542 16.8-37.855 13.602-52 7 1.003-9.386 3.793-15.751 2-25 7.405 2.834 15.005 5.348 23 6"/><path fill="#3c97b5" d="M249 632c3.55 6.521 2.06 17.433 8 22-3.67 1.643-10.884 3.309-15 4-3.286-4.492-10.452 2.798-13.5-1-.945-1.178-1.235-13.927-4.5-16.5l1.5-2.5c4.015-.012 9.132-.08 13-1 .943-.224 5.213-1.099 1.5-3 2.614-.624 6.595-1.166 9-2"/><path fill="#57acc5" d="M242 658c-11.926 2.004-32.288 3.82-39-9.5-9.543-18.937 11.848-10.444 23.5-11.5 4.438-.402 9.187-1.971 13.5-3 3.713 1.901-.557 2.776-1.5 3-3.868.92-8.985.988-13 1l-1.5 2.5c3.265 2.573 3.555 15.322 4.5 16.5 3.048 3.798 10.214-3.492 13.5 1m583-10-16.5 10-8 1c-1.755-1.466-.098-17.144-.5-19.5-.396-2.324-6.468-.479-2-3.5 11.898.97 36.707-7.091 27 12"/><path fill="#3c8aa2" d="M530 639c.977-.351 2.9-3.418 5-1.5-1.46 1.364-3.339 1.122-5 1.5"/><path fill="#11688d" d="M621 670c-4.575 9.915-35.506 25.728-46 31l-13.5 2c3.567-9.067 14.159-9.884 21-14 4.773-2.872 33.894-23.358 36-23 3.008.511.237 3.273 2.5 4"/><path fill="#546d69" d="M463 710c1.941 11.304-21.93 2.095-27.5-1-3.403-1.891-7.071-6.859-10.5-9 .358-3.156 1.141-7.021 1-10 11.263 8.733 23.913 14.58 37 20"/><path fill="#6e99a2" d="M598 695c-1.283 3.029-6.964 2.621-8 3 1.715-1.373 5.691-4.57 8-3"/><path fill="#294a46" d="M602 700c.194 2.218.699 3.967 1 6-5.618-3.977-11.084 4.351-17.5 7-4.457 1.84-9.505 2.289-14 4-5.989-4.036 4.457-7.01 2.5-11 5.347-2.456 10.427-5.962 16-8 1.036-.379 6.717.029 8-3 3.219 2.189.675 7.431 4 5"/><path fill="#263933" d="M463 710c.741.307 1.255.704 2 1-1.802 4.496-2.735 9.337-4 14-.631-.085-1.577.164-2 0-12.189-4.715-23.925-10.012-35-17 .395-2.501.711-5.455 1-8 3.429 2.141 7.097 7.109 10.5 9 5.57 3.095 29.441 12.304 27.5 1"/><path fill="#1d3531" d="M603 706c.358 2.42.539 4.54 1 7l-39 13c-1.253-4.655-2.571-9.393-4-14 4.19-1.738 8.797-4.07 13-6 1.957 3.99-8.489 6.964-2.5 11 4.495-1.711 9.543-2.16 14-4 6.416-2.649 11.882-10.977 17.5-7"/><path fill="#7f9291" d="M459 725c1.426 11.514-24.467 4.696-30.5 1-4.266-2.614-4.496-4.891-7.5-8 .65-3.112 2.516-6.935 3-10 11.075 6.988 22.811 12.285 35 17"/><path fill="#4f6663" d="M604 713c.573 3.055 1.331 5.985 2 9-7.457 3.69-28.25 19.398-36.5 15-.643-.343-.931-6.15-2.5-5-.617-2.039-1.405-3.792-2-6z"/><path fill="#44554f" d="M459 725c.423.164 1.369-.085 2 0-1.76 6.492-4.498 13.72-6 20h-1c-7.343 2.132-29.715-15.969-31.5-16-2.284-.04-4.675 10.618-4.5 12h-1c1.913-5.845 2.645-16.513 4-23 3.004 3.109 3.234 5.386 7.5 8 6.033 3.696 31.926 10.514 30.5-1"/><path fill="#253930" d="M606 722c.319 1.438.791 2.096 1 3-8.776 11.313-22.162 17.611-36 20-1.396-4.368-2.67-8.604-4-13 1.569-1.15 1.857 4.657 2.5 5 8.25 4.398 29.043-11.31 36.5-15"/><path fill="#526a68" d="M610 738c-8.875 6.478-19.665 10.392-30.5 11-2.204.124-2.601-3.694-6.5 1-.519-1.592-1.44-3.249-2-5 13.838-2.389 27.224-8.687 36-20 .997 4.308 2.093 8.685 3 13"/><path fill="#7e9090" d="M454 745c-8.022.366-12.751 2.572-20 6-3.55-2.588-15.223-3.852-16-10-.175-1.382 2.216-12.04 4.5-12 1.785.031 24.157 18.132 31.5 16"/><path fill="#445c57" d="M610 738c.546 2.595 1.186 5.303 1 8-11.07-.621-25.63 12.99-32 21-5.016-4.29-4.302-11.792-6-17 3.899-4.694 4.296-.876 6.5-1 10.835-.608 21.625-4.522 30.5-11"/><path fill="#022542" d="M434 751c5.572 4.062 9.634 10.943 16 14-.282 4.387 5.616 8.707 8 13.5 9.824 19.748 16.572 40.091 20 62 .494 3.159.421 19.183 1 20 .99 1.395 6.842-.141 8.5.5 3.03 1.172 6.333 9.934 7.5 13 1.662 4.364 6.176 21.799 3.5 25-2.025 2.422-47.635 11.197-54 12-28.634 3.611-123.902 6.982-148-3-16.495-6.833 4.585-22.199 7.5-28 2.352-4.679-.178-3.821 0-4.5 1.347-5.15 20.983-23.412 26.5-27.5 14.432-10.696 30.1-16.537 47.5-20.5.209-27.291 8.291-57.475 28.5-76.5 5.176-4.873 7.338-.338 10.5-10h1c.777 6.148 12.45 7.412 16 10m-53 63c-.348 4.239-2.73 11.258 1.5 14 2.947 1.91 27.747 4.366 35 7 4.926 1.789 16.413 8.574 20.5 12 11.007 9.228 18.45 37.882 34 20 8.023-9.226-1.321-42.484-5-54.5-4.945-16.153-14.33-37.171-26-49.5-6.246-6.599-9.721-10.838-19-12-3.226-.404-1.726-2.586-8.5 1-17.913 9.482-30.919 42.723-32.5 62m-69 54c-1.97 2.239-6.471 3.305-2.5 7 7.79 7.249 86.306 10.12 98.5 7-.134 1.558-2.839 2.152.5 2 19.5-.887 50.113-6.445 29.5-32-5.307-6.58-18.039-13.27-26-16-36.476-12.51-75.197 3.81-100 32m107 18c-40.129 5.925-60.423-2.392-96-3-12.335-6.069-18.642-4.308-25 8-4.972 9.626-3.759 10.198 6.5 13 21.075 5.755 68.148 6.129 90.5 5-1.013 4.442 17.342 3.36 19.5 3 .279-.047.115-3.413 4-4 13.109-1.98 28.713-.527 41-6 7.406-.68 34.621-3.355 35.5-12.5.094-.976-5.375-17.14-8-16.5 5.827-15.294-19.973 1.977-26.5 4-11.025 3.417-29.967 7.297-41.5 9"/><path fill="#576e6b" d="M454 745h1c-1.005 4.202-4.822 17.228-5 20-6.366-3.057-10.428-9.938-16-14 7.249-3.428 11.978-5.634 20-6"/><path fill="#002040" d="M734 880c4.141 7.763 16.46 22.129 4.5 28-11.522 5.656-71.389 6.352-87 6-38.54-.868-76.522-7.685-114-16l-2.5-2.5c-.12-7.125.372-14.587 2-21.5 4.01-17.034 10.733-11.286 13-15.5 1.179-2.191 1.213-17.814 2-22 4.468-23.765 11.712-50.278 27-69.5 6.37-8.01 20.93-21.621 32-21 25.68 1.441 43.006 58.349 41 79.5 25.25 3.534 58.105 19.609 74 40 3.789 4.861 5.229 9.305 8 14.5M583 769c-9.723 13.107-18.835 33.682-23 49.5-2.77 10.518-8.342 35.936-4 44.5 3.557 7.016 17.791 10.034 24.5 8 1.992-.604 10.865-14.135 13.5-17 17.103-18.597 29.911-23.316 55.5-27 .967-1.055.464-5.213.5-7 .415-20.633-18.693-70.712-43-70-9.798.287-18.314 11.335-24 19m50 64c-10.705 2.783-24.515 6.688-31 17-6.111-.522-11.038 17.054-9 21.5 2.49 5.432 25.455 10.378 31.5 11.5 1.314.244 7.797 2.181 6.5-2 13.699 4.17 43.893 2.156 59 1 12.967-.992 29.483-.078 39-9.5.312-2.091-3.332-3.545-4-4.5-18.484-26.404-61.22-43.003-92-35m-87 36c-.932-.327-1.491 2.549-2.5-1-5.269 2.951-6.563 20.507-6.5 26.5 56.459 16.984 115.867 17.99 174.5 16.5 1.599-2.821-1.51-1.816-3-2-6.872-.848-15.473-.755-22.5-1 8.734-.873 46.145-.116 51.5-5 4.615-4.209-.464-12.102-2.5-16-1.141-2.185-4.775-9.105-7.5-9-12.213 8.069-29.105 10.113-43.5 11-28.751 1.771-87.417-3.6-114.5-13-5.4-1.874-26.656-18.743-23.5-7"/><path fill="#a9e2ed" d="M422 751c1.809 1.86 2.208 5.304 3 7-4.028-.304-8.565 3.484-12 6-16.146 11.825-23.466 36.617-23 56-3.823-1.27-7.716-2.056-9-6 1.581-19.277 14.587-52.518 32.5-62 6.774-3.586 5.274-1.404 8.5-1"/><path fill="#074b6d" d="M607 750c-1.443 2.826-3.38 5.263-5 8-3.583 6.054-7.465 15.231-9 22-5.519 24.335-2.836 49.594 1 74-2.635 2.865-11.508 16.396-13.5 17-6.709 2.034-20.943-.984-24.5-8l27-94c5.686-7.665 14.202-18.713 24-19"/><path fill="#9edde9" d="M650 820c-3.029-.608-8.118-.515-11 0-3.461-6.613-4.58-21.975-8-27.5-1.021-1.649-3.125 1.71-4 0-3.491-6.827-5.743-17.954-11-24-4.304-4.949-10.116-5.851-14-10.5 1.62-2.737 3.557-5.174 5-8 24.307-.712 43.415 49.367 43 70"/><path fill="#06496c" d="M441 763c16.313 32.677 22.957 68.588 31 104-15.55 17.882-22.993-10.772-34-20 .07-17.616 1.758-35.478-1-53-1.868-11.867-6.914-25.107-12-36-.792-1.696-1.191-5.14-3-7 9.279 1.162 12.754 5.401 19 12"/><path fill="#4da7c4" d="M425 758c5.086 10.893 10.132 24.133 12 36-2.113 1.052-3.624-4.392-4-5.5-.417-1.228-6.46-29.262-10-19-1.168 3.384 2.837 2.153 3 3-.914 21.204 17.754 53.593-18 51.5l7-6.5c-23.376-8.333-13.152-38.157-2-53.5 3.435-2.516 7.972-6.304 12-6"/><path fill="#54b0cb" d="M639 820c-10.768 1.926-23.236 9.181-34.5 2-13.939-8.887-3.225-37.079-7-50l-4.5 8c1.535-6.769 5.417-15.946 9-22 3.884 4.649 9.696 5.551 14 10.5 5.257 6.046 7.509 17.173 11 24 .875 1.71 2.979-1.649 4 0 3.42 5.525 4.539 20.887 8 27.5"/><path fill="#206480" d="M472 867c-8.043-35.412-14.687-71.323-31-104 11.67 12.329 21.055 33.347 26 49.5 3.679 12.016 13.023 45.274 5 54.5"/><path fill="#77cadd" d="M408 824c-3.969-.232-14.12-2.712-18-4-.466-19.383 6.854-44.175 23-56-11.152 15.343-21.376 45.167 2 53.5z"/><path fill="#2388ac" d="M437 794c2.758 17.522 1.07 35.384 1 53-4.087-3.426-15.574-10.211-20.5-12-7.253-2.634-32.053-5.09-35-7-4.23-2.742-1.848-9.761-1.5-14 1.284 3.944 5.177 4.73 9 6 3.88 1.288 14.031 3.768 18 4 35.754 2.093 17.086-30.296 18-51.5-.163-.847-4.168.384-3-3 3.54-10.262 9.583 17.772 10 19 .376 1.108 1.887 6.552 4 5.5"/><path fill="#256986" d="M556 863c-4.342-8.564 1.23-33.982 4-44.5 4.165-15.818 13.277-36.393 23-49.5z"/><path fill="#298db0" d="M639 820c2.882-.515 7.971-.608 11 0-.036 1.787.467 5.945-.5 7-25.589 3.684-38.397 8.403-55.5 27-3.836-24.406-6.519-49.665-1-74l4.5-8c3.775 12.921-6.939 41.113 7 50 11.264 7.181 23.732-.074 34.5-2"/><path fill="#a4e1ec" d="M725 868c-2.271.317-3.932 2.051-6 3-18.635 8.549-51.512 5.437-72 5 20.08-.969 37.085-1.266 56-8.5-8.489-.469-13.87-10.224-20.5-14.5-17.047-10.995-36.571-16.863-57-15 1.19-2.663 12.886-.801 7.5-5 30.78-8.003 73.516 8.596 92 35"/><path fill="#a4e1ed" d="M412 836c-19.545 3.151-35.546 2.429-52.5 14-8.812 6.014-15.595 19.872-27 18l7 5 25.5 4c-18.047-.861-35.959-2.954-53-9 24.803-28.19 63.524-44.51 100-32"/><path fill="#56afc8" d="M633 833c5.386 4.199-6.31 2.337-7.5 5 20.429-1.863 39.953 4.005 57 15 6.63 4.276 12.011 14.031 20.5 14.5-18.915 7.234-35.92 7.531-56 8.5-3.984-.085-8.014.028-12 0 .092-2.964-.856-2.44-3-2.5-9.135-.254-21.36.81-28.5-3.5-8.058-4.865-5.689-13.338-1.5-20 6.485-10.312 20.295-14.217 31-17"/><path fill="url(#g)" d="M438 852c-4.126 3.923-.627 9.421-3 14.5-2.215 4.742-14.147 7.385-19 9.5-16.851.963-34.118 1.805-51 1l-25.5-4-7-5c11.405 1.872 18.188-11.986 27-18 16.954-11.571 32.955-10.849 52.5-14 7.961 2.73 20.693 9.42 26 16" style="fill:url(#g)"/>/&gt;<path fill="#0e5372" d="M602 850c-4.189 6.662-6.558 15.135 1.5 20 7.14 4.31 19.365 3.246 28.5 3.5 2.144.06 3.092-.464 3 2.5-4.043-.028-7.993-.375-12-.5-1.6 2.572 6.781 5.129 8 5.5 1.297 4.181-5.186 2.244-6.5 2-6.045-1.122-29.01-6.068-31.5-11.5-2.038-4.446 2.889-22.022 9-21.5"/><path fill="#0f5473" d="M408 882c1.968-.504 6.605-5.392 8-6 4.853-2.115 16.785-4.758 19-9.5 2.373-5.079-1.126-10.577 3-14.5 20.613 25.555-10 31.113-29.5 32-3.339.152-.634-.442-.5-2"/><path fill="#217698" d="m684 889-27 3.5c20.26 17.188 59.267 12.327 78-5.5 2.036 3.898 7.115 11.791 2.5 16-5.355 4.884-42.766 4.127-51.5 5-21.397-.747-83.491 1.368-100.5-6-5.194-2.25-10.075-19.066-14-22-1.121-.838-23.466-10.287-25.5-11-3.156-11.743 18.1 5.126 23.5 7 27.083 9.4 85.749 14.771 114.5 13"/><path fill="#2b687b" d="M487 873c-20.392 6.046-40.975 12.384-62 16-.296.051-3.378-.407-6 0v-3c11.533-1.703 30.475-5.583 41.5-9 6.527-2.023 32.327-19.294 26.5-4"/><path fill="#53a4bc" d="M365 877c16.882.805 34.149-.037 51-1-1.395.608-6.032 5.496-8 6-12.194 3.12-90.71.249-98.5-7-3.971-3.695.53-4.761 2.5-7 17.041 6.046 34.953 8.139 53 9"/><path fill="#043d5d" d="M546 869c2.034.713 24.379 10.162 25.5 11 3.925 2.934 8.806 19.75 14 22 17.009 7.368 79.103 5.253 100.5 6 7.027.245 15.628.152 22.5 1 1.49.184 4.599-.821 3 2-58.633 1.49-118.041.484-174.5-16.5-.063-5.993 1.231-23.549 6.5-26.5 1.009 3.549 1.568.673 2.5 1"/><path fill="#3084a3" d="M725 868c.668.955 4.312 2.409 4 4.5-9.517 9.422-26.033 8.508-39 9.5-.313-4.499-.387-2.948 2.5-4 7.465-2.719 21 .287 26.5-7 2.068-.949 3.729-2.683 6-3"/><path fill="#2b7996" d="M690 882c-15.107 1.156-45.301 3.17-59-1-1.219-.371-9.6-2.928-8-5.5 4.007.125 7.957.472 12 .5 3.986.028 8.016-.085 12 0 20.488.437 53.365 3.549 72-5-5.5 7.287-19.035 4.281-26.5 7-2.887 1.052-2.813-.499-2.5 4"/><path fill="#0b4d6e" d="M487 873c2.625-.64 8.094 15.524 8 16.5-.879 9.145-28.094 11.82-35.5 12.5-12.287 5.473-27.891 4.02-41 6-3.885.587-3.721 3.953-4 4-2.158.36-20.513 1.442-19.5-3 3.3-.167 12.438.728 14.5 0 1.436-.507 13.939-17.178 15.5-20 21.025-3.616 41.608-9.954 62-16"/><path fill="#6bb5cb" d="M735 887c-18.733 17.827-57.74 22.688-78 5.5l27-3.5c14.395-.887 31.287-2.931 43.5-11 2.725-.105 6.359 6.815 7.5 9"/><path fill="#a7dde9" d="M323 883c-9.491-.162-14.469 6.346-23 10-.503-.424-2.101-.776-2-2 6.358-12.308 12.665-14.069 25-8"/><path fill="#71bad0" d="M323 883c35.577.608 55.871 8.925 96 3v3c-5.414.839-15.469-.235-20.5 1-5.848 1.435-12.874 8.845-19 11-16.707 5.878-65.779 3.554-79.5-8 8.531-3.654 13.509-10.162 23-10"/><path fill="#2c87a8" d="M425 889c-1.561 2.822-14.064 19.493-15.5 20-2.062.728-11.2-.167-14.5 0-22.352 1.129-69.425.755-90.5-5-10.259-2.802-11.472-3.374-6.5-13-.101 1.224 1.497 1.576 2 2 13.721 11.554 62.793 13.878 79.5 8 6.126-2.155 13.152-9.565 19-11 5.031-1.235 15.086-.161 20.5-1 2.622-.407 5.704.051 6 0"/></svg>