<svg xmlns="http://www.w3.org/2000/svg" width="1024" height="1024"><defs><linearGradient id="a" x1="393.986" x2="669.904" y1="319.443" y2="556.857" gradientUnits="userSpaceOnUse"><stop offset="31.593%" style="stop-color:#bae3eb"/><stop offset="100%" style="stop-color:#79a5b8"/></linearGradient></defs><defs><linearGradient id="b" x1="603.081" x2="413.588" y1="337.382" y2="453.04" gradientUnits="userSpaceOnUse"><stop offset="0%" style="stop-color:#0d8fb4"/><stop offset="100%" style="stop-color:#1ed6f6"/></linearGradient></defs><defs><linearGradient id="c" x1="142.292" x2="251.839" y1="387.31" y2="547.42" gradientUnits="userSpaceOnUse"><stop offset="0%" style="stop-color:#64dffe"/><stop offset="100%" style="stop-color:#17759b"/></linearGradient></defs><defs><linearGradient id="d" x1="878.16" x2="773.958" y1="385.995" y2="550.819" gradientUnits="userSpaceOnUse"><stop offset="0%" style="stop-color:#63ddfd"/><stop offset="100%" style="stop-color:#176e93"/></linearGradient></defs><path fill="#979b9e" d="M793.5 127c21.934 1.149 40.885 20.556 40 43L821 150.5z"/><path fill="#989b9e" d="M770.5 143c21.991-1.645 41.695 18.066 42.5 39.5-11.259-16.882-24.509-29.944-42.5-39.5"/><path fill="#969a9d" d="M746.5 159c18.817-2.914 42.746 12.747 44.5 32.5-12.394-15.588-28.172-28.096-48.5-30.5-.294-.8 3.779-1.966 4-2"/><path fill="#3b7284" d="m547 199-4 1.5c.437 3.2 5.55-.173 3 3.5-66.741-11.395-124.968 5.751-177 48-.831.675-1.367 1.472-2 2-9.07 7.557-21.403 18.212-29 27-7.797-.767-3.107-3.484-3-5l7-10c2.396.587 3.344-.851 5-2 32.224-22.357 43.838-38.407 84-54 1.66.547.516 2.49 3 2.5 6.198.024 20.02-8.745 27.5-8.5l-1.5-4c30.097-6.559 56.818-5.984 87-1"/><path fill="#153a4e" d="m706 308-.5 2c-2.79-1.111-1.854-7.701-2.5-9 7.721-3.423-5.224-10.408-8-14-1.576-2.04-3.564-4.843-5-7-3.157-4.742-8.256-10.205-6.5-16 3.662 1.955 8.799 19.229 12.5 11.5l-9-16c-2.742-1.807-11.172 2.393-10 6.5-3.367-3.165-6.085-1.602-6.5-2-.973-.934 1.032-1.5.5-2 5.654-2.304 45.261-22.976 46-25.5.494-1.685-1.685-8.255-1-12 7.545-41.229 65.092-30.717 59 9-1.614 10.522-13.32 21.485-23.5 23.5-3.285.65-12.363-1.139-13-1-3.009.654-31.251 45.18-32.5 52m30-105c-4.55 1.806-5.55 2.504-9 6-23.307 23.618 5.132 57.172 32.5 42 26.97-14.951 9.702-61.176-23.5-48m-26 43c-.148.137-2.386-1.689-4 .5 1.35 2.765 3.239 5.033 5 7.5 2.022 2.832 19.874 20.188 17 10.5-.278-.936-11.797-7.803-15-12.5-.089-.131-.362-1.934-1-3 5.762-.877 15.637 17.323 21 9.5-2.433-.747-6.701-2.868-8-5-.896-1.47 2.199-1.698 2-2-3.559-5.396-8.328-4.698-9.5-12.5-3.607 1.242-5.316 4.985-7.5 7m-9 3c-1.36.356-2.805 2.295-4 3-.436.257-1.76.786-2 1-1.423 1.269-2.902.66-4 3-2.209 4.708 4.002 11.948 7 16 1.912 2.584 17.993 20.838 18 12.5.001-1.097-15.577-11.441-15-16 .75-4.648 21.099 19.614 19 9-.21-1.061-16.246-9.483-15-15 1.412-6.253 19.893 19.434 19 9-.086-1.005-12.061-9.923-15-13.5-1.105-1.345-4.204-7.343-4-9.5-1.576-1.506-2.785.182-4 .5"/><path fill="#275564" d="M671 262c.532.5-1.473 1.066-.5 2 .415.398 3.133-1.165 6.5 2 3.797 3.57 6.819 12.842 12 16-2.009 2.139-2.259 2.269-5 3-1.837-2.248-5.823-5.576-8-8-35.334-39.342-77.369-64.014-130-73 2.55-3.673-2.563-.3-3-3.5l4-1.5c47.66 7.871 89.032 30.141 124 63"/><path fill="#0c334b" d="M347 264c-1.656 1.149-2.604 2.587-5 2-.081-1.438-2.121-2.236-3-3-.119-.104-1.938-.177-3-1-1.334-1.034-1.833-.884-2-1-1.177-.814-2.328-1.928-4-3-.542-.347-1.454-.656-2-1-2.394-1.506-4.461-1.672-5-2-.06-.037.19-.304-1-1-.726-.425-2.168-2.006-4-3-1.133-.615-2.604-.79-3-1-.421-.223-2.229-2.085-4-3-.655-.338-1.336-.674-2-1-1.723-.847-7.787-5.15-8.5-5-.786.165-9.252 12.325-8 13l5-5h3L287 263.5l16.5-11.5c4.23 5.372-13.556 13.211-13.5 15.5.213 8.77 16.911-13.252 20-9 .225 4.821-15.03 13.94-15 15 .204 7.172 15.52-12.132 18-9 2.014 3.821-21.307 17.724-11.5 17.5 3.602-.082 15.002-16.099 16.5-11.5 1.233 3.786-14.85 14.914-15 16-.078.57 5.885 9.408 6.5 9.5 3.588.292 17.113-20.544 18.5-14.5.837 3.646-14.629 16.299-15 18-.747 3.424 3.091 6.259 3 7-.334 2.711-2.705 1.076-3 1.5-3.842-5.862-30.57-49.312-33.5-50-1.477-.347-7.481 1.796-11 1-40.587-9.176-29.409-64.605 9-59 13.604 1.985 22.029 15.112 24.5 27.5.71 3.561-1.551 7.952-1 10 .813 3.018 40.745 22.809 46 26.5m-99-46c-20.739 48.185 69.154 50.696 48 0-2.13-5.104-2.098-4.476-6-8-3.111-2.81-2.157-2.173-6-4-14.176-6.741-29.352-3.446-36 12"/><path fill="#5a909f" d="M431 210c9.57-3.716 18.893-7.797 29-10l1.5 4c-7.48-.245-21.302 8.524-27.5 8.5-2.484-.01-1.34-1.953-3-2.5"/><path fill="#f0fbfd" d="M546 204c52.631 8.986 94.666 33.658 130 73l-2 1c-4.959-5.49-25.877-22.239-32.5-27-31.333-22.527-68.211-38.257-107-42l2 3c-40.712-2.643-81.595 7.407-116 29-130.906 82.157-76.983 285.487-10.5 393.5 63.414-24.832 143.734-25.932 206 3.5 15 7.09 28.179 16.09 36.5 31 2.036.433 20.235-21.798 22.5-25h3c-7.991 10.786-16.909 21.098-27 30-55.965-68.703-233.828-75.412-283 1-4.783-5.536-10.085-10.576-15-16l14 10c8.193-12.88 20.055-20.883 33-28.5-7.283-5.89-13.49-22.689-19-28-2.238-2.158-1.344-.596-4-.5 1.323-14.498-9.531-30.964-25-32-.975-2.163-4.292-.171-6-1.5-4.381-3.408-22.919-56.541-25-65-20.889-84.898-13.381-193.227 55-255l-7-6.5c52.032-42.249 110.259-59.395 177-48"/><path fill="#0067b0" d="M727 209c-1.102 4.166-3.406 8.755-1 13-3.829-2.401-1.285 4.087-1 4.5 17.186 24.878 61.317-8.541 23-18.5-2.573-5.567-7.819-2.763-12-5 33.202-13.176 50.47 33.049 23.5 48-27.368 15.172-55.807-18.382-32.5-42"/><path fill="#13c1e9" d="M284 206c-6.739-1.633-9.367 1.325-14 3-10.036 3.628-10.483 7.827-15 10-2.844 1.368-4.866 1.6-7-1 6.648-15.446 21.824-18.741 36-12"/><path fill="#6fc8fe" d="M736 203c4.181 2.237 9.427-.567 12 5 7.387 15.985-16.671 23.401-22 14-2.406-4.245-.102-8.834 1-13 3.45-3.496 4.45-4.194 9-6"/><path fill="#ccf8ff" d="M284 206c3.843 1.827 2.889 1.19 6 4 10.937 25.341-27.84 21.822-20-1 4.633-1.675 7.261-4.633 14-3"/><path fill="#2c8bd1" d="M726 222c5.329 9.401 29.387 1.985 22-14 38.317 9.959-5.814 43.378-23 18.5-.285-.413-2.829-6.901 1-4.5"/><path fill="#77d7f3" d="M270 209c-7.84 22.822 30.937 26.341 20 1 3.902 3.524 3.87 2.896 6 8-2.316 24.333-41.064 26.228-41 1 4.517-2.173 4.964-6.372 15-10"/><path fill="url(#a)" d="M674 278c1.339 1.483 2.004 3.796 3 5 26.061 96.719 11.449 219.888-32 310-7.732 16.035-17.339 31.529-29 45-62.266-29.432-142.586-28.332-206-3.5-66.483-108.013-120.406-311.343 10.5-393.5 34.405-21.593 75.288-31.643 116-29l-2-3c38.789 3.743 75.667 19.473 107 42 6.623 4.761 27.541 21.51 32.5 27m-167.5-42c-209.245 2.226-207.601 330.327 17 316 203.37-12.973 185.507-318.154-17-316" style="fill:url(#a)"/>/&gt;<path fill="#04a3d3" d="M255 219c-.064 25.228 38.684 23.333 41-1 21.154 50.696-68.739 48.185-48 0 2.134 2.6 4.156 2.368 7 1"/><path fill="#42798e" d="M506.5 236c202.507-2.154 220.37 303.027 17 316-224.601 14.327-226.245-313.774-17-316M432 260c-69.599 39.918-98.964 126.274-65 200 8.223 17.85 18.224 30.303 32 44 138.883 138.082 355.443-51.821 237-201-3.936-4.958-7.321-8.7-12-13-24.541-28.506-65.355-48.571-103-51-31.775-2.05-61.691 5.337-89 21"/><path fill="#f6fefe" d="M521 239c1.809 8.673 18.047 9.714 22 18-36.494-8.773-72.561-4.019-105 15l-6-12c27.309-15.663 57.225-23.05 89-21"/><path fill="#d0eef1" d="M624 290c-4.218-3.877-9.941-7.092-13.5-12-2.904-.379-7.769 8.127-7.5 11-16.094-15.021-38.505-26.833-60-32-3.953-8.286-20.191-9.327-22-18 37.645 2.429 78.459 22.494 103 51"/><path fill="#335f6a" d="M712 249c-.339-.566-1.969-1.914-2-3 2.184-2.015 3.893-5.758 7.5-7 1.172 7.802 5.941 7.104 9.5 12.5.199.302-2.896.53-2 2 1.299 2.132 5.567 4.253 8 5-5.363 7.823-15.238-10.377-21-9.5"/><path fill="#31697d" d="m309 246-2.5 11c3.445-2.332 3.462-6.121 4.5-10 1.771.915 3.579 2.777 4 3-3.477 1.726-2.882 5.82-3.5 9 2.876 1.847 5.426-6.408 6.5-8 1.832.994 3.274 2.575 4 3-2.175.353-6.333 7.929-4.5 9l5.5-8c.539.328 2.606.494 5 2-3.205.372-8.057 13.141-6.5 14 4.559-2.176 6.983-8.547 8.5-13 1.672 1.072 2.823 2.186 4 3-3.8 2.921-8.703 11.493-7.5 16l9.5-15c1.062.823 2.881.896 3 1-2.796 4.946-3.666 8.289-4 13-.107 1.516-4.797 4.233 3 5-85.659 99.089-70.397 283.761 15 378 4.915 5.424 10.217 10.464 15 16-.372.579-.697 2.971-2 4-11.229-8.878-22.487-20.97-31-32.5-6.513-8.821-29.423-53.597-32-55.5-1.939-1.432-2.121-.655-4-1-.594-3.398 3.207-1.187 4-2.5.696-1.152-8.98-21.564-10-25-4.811-16.207-10.379-37.936-13-54.5-3.983-25.171-4.893-50.538-4-76 .124-3.54-1.015-1.7-1-2 .078-1.528-.024-3.652 0-4 2.692-38.503 15.883-86.216 38-118 .295-.424 2.666 1.211 3-1.5.091-.741-3.747-3.576-3-7 .371-1.701 15.837-14.354 15-18-1.387-6.044-14.912 14.792-18.5 14.5-.615-.092-6.578-8.93-6.5-9.5.15-1.086 16.233-12.214 15-16-1.498-4.599-12.898 11.418-16.5 11.5-9.807.224 13.514-13.679 11.5-17.5-2.48-3.132-17.796 16.172-18 9-.03-1.06 15.225-10.179 15-15-3.089-4.252-19.787 17.77-20 9-.056-2.289 17.73-10.128 13.5-15.5L287 263.5l13.5-14.5h-3l-5 5c-1.252-.675 7.214-12.835 8-13 .713-.15 6.777 4.153 8.5 5"/><path fill="#71979d" d="M710 246c.031 1.086 1.661 2.434 2 3 .638 1.066.911 2.869 1 3l-2 2c-1.761-2.467-3.65-4.735-5-7.5 1.614-2.189 3.852-.363 4-.5"/><path fill="#789da0" d="M311 247c-1.038 3.879-1.055 7.668-4.5 10l2.5-11c.664.326 1.345.662 2 1"/><path fill="#73989b" d="M709 258c-5.019.618-9.514-4.322-8-9 1.215-.318 2.424-2.006 4-.5-.204 2.157 2.895 8.155 4 9.5"/><path fill="#37636d" d="M709 258c2.939 3.577 14.914 12.495 15 13.5.893 10.434-17.588-15.253-19-9-1.246 5.517 14.79 13.939 15 15 2.099 10.614-18.25-13.648-19-9-.577 4.559 15.001 14.903 15 16-.007 8.338-16.088-9.916-18-12.5 3.932-2.507-4.382-13.983-7-16 1.098-2.34 2.577-1.731 4-3 1.34 4.135 3.763 10.746 8.5 12 1.522-.969-3.811-12.867-6.5-13 1.195-.705 2.64-2.644 4-3-1.514 4.678 2.981 9.618 8 9"/><path fill="#7ca3a5" d="M318 251c-1.074 1.592-3.624 9.847-6.5 8 .618-3.18.023-7.274 3.5-9 .396.21 1.867.385 3 1"/><path fill="#bfe5ec" d="M352 580c-19.256-1.29-27.571 17.296-24 34-61.647-91.863-54.137-250.636 16-336.5 6.903-8.451 17.019-14.317 23-23.5.633-.528 1.169-1.325 2-2l7 6.5c-68.381 61.773-75.889 170.102-55 255 2.081 8.459 20.619 61.592 25 65 1.708 1.329 5.025-.663 6 1.5"/><path fill="#739a9f" d="M695 253c.24-.214 1.564-.743 2-1 2.689.133 8.022 12.031 6.5 13-4.737-1.254-7.16-7.865-8.5-12"/><path fill="#33636c" d="m711 254 2-2c3.203 4.697 14.722 11.564 15 12.5 2.874 9.688-14.978-7.668-17-10.5"/><path fill="#88d1da" d="M543 257c21.495 5.167 43.906 16.979 60 32 1.406 1.312 2.661 3.578 4 5-9.976 5.455-.548 10.294 4 17-44.484-52.128-125.515-65.667-180-21-17.062 9.138-35.48 36.278-43 54-7.196 4.387-4.594 24.981-16.5 18-4.236-2.484 18.026-43.595 21.5-48.5 10.358-14.622 29.599-32.471 45-41.5 32.439-19.019 68.506-23.773 105-15"/><path fill="#7ea3a5" d="m323 255-5.5 8c-1.833-1.071 2.325-8.647 4.5-9 1.19.696.94.963 1 1"/><path fill="#dcf5fa" d="M328 614c4.959 7.39 10.31 14.966 19 18-2.239-.119-4.365 1.655-8-1.5 4.143 15.912 16.242 27.708 28 38.5l-14-10c-85.397-94.239-100.659-278.911-15-378 7.597-8.788 19.93-19.443 29-27-5.981 9.183-16.097 15.049-23 23.5-70.137 85.864-77.647 244.637-16 336.5"/><path fill="#72979a" d="M698 272c-2.998-4.052-9.209-11.292-7-16 2.618 2.017 10.932 13.493 7 16"/><path fill="#759ca1" d="M328 257c.546.344 1.458.653 2 1-1.517 4.453-3.941 10.824-8.5 13-1.557-.859 3.295-13.628 6.5-14"/><path fill="#658e93" d="M690 280c.583 1.892-.657 1.635-1 2-5.181-3.158-8.203-12.43-12-16-1.172-4.107 7.258-8.307 10-6.5l9 16c-3.701 7.729-8.838-9.545-12.5-11.5-1.756 5.795 3.343 11.258 6.5 16"/><path fill="#d0eef1" d="M438 272c-15.401 9.029-34.642 26.878-45 41.5-3.474 4.905-25.736 46.016-21.5 48.5 11.906 6.981 9.304-13.613 16.5-18-5.75 13.552-8.596 24.267-10 39-5.164 54.188 22.253 104.161 72 127 41.124 18.88 85.556 16.63 125-5 66.512-36.474 85.352-113.891 47-179 4.204-15.46 10.871-2.651 15 5.5 32.563 64.278 2.654 147.179-59.5 180.5-48.278 25.882-99.026 17.89-146-2-11.66-4.937-25.014-15.908-33.5-25.5-4.098-4.633-16.92-27-18.5-27.5-2.521-.797-9.548 2.701-12.5 3-33.964-73.726-4.599-160.082 65-200z"/><path fill="#749a9e" d="M334 261c.167.116.666-.034 2 1l-9.5 15c-1.203-4.507 3.7-13.079 7.5-16"/><path fill="#78a4a9" d="m342 266-7 10c.334-4.711 1.204-8.054 4-13 .879.764 2.919 1.562 3 3"/><path fill="#08627d" d="M611 311c.312.46.689 1.533 1 2 2.773 4.168 7.686 9.071 10 13 38.352 65.109 19.512 142.526-47 179l-39.5 14-2.5-.5V512c40.945-7.16 82.629-42.061 94-82.5 30.564-108.691-90.355-196.464-185-136.5l-3.5-7c-2.444 1.448-5.014 2.669-7.5 4 54.485-44.667 135.516-31.128 180 21"/><path fill="url(#b)" d="M533 512c-24.762 4.33-48.832 1.978-72-7-51.079-19.794-79.908-69.611-74-124 3.851-35.453 24.997-68.991 55-88 94.645-59.964 215.564 27.809 185 136.5-11.371 40.439-53.055 75.34-94 82.5M424 365c.259.371.767 1.721 1 2l-6 16c-7.649 3.588-5.358 18.332 0 23 .731 20.984 11.833 38.529 27 52 4.383 3.893 15.819 13.995 21.5 15 1.392.246 3.086-3.141 7-2 4.685 1.366 11.712 5.893 17 7 20.505 4.294 42.424 5.093 61.5-5 .951.28 4.022.937 5 1 29.823 1.931 59.228-25.025 36-53-.393-.474-.675-.661-1-1 .063-2.09.741-3.911 1-6 6.6-53.253-30.258-102.476-85-105-8.902-.41-19.898-.173-28 4-.323-.257-1.581-.726-2-1-40.067-26.198-83.461 12.313-55 53" style="fill:url(#b)"/>/&gt;<path fill="#b6dce6" d="M684 285c80.086 97.96 66.82 260.706-6 359h-3c4.237-5.992 7.766-12.386 11-19 2.409-4.927 6.351-9.241 7-15 37.189-68.171 49.571-160.716 31-236.5-8.209-33.501-25.138-64.069-47-90.5-.996-1.204-1.661-3.517-3-5l2-1c2.177 2.424 6.163 5.752 8 8"/><path fill="#abcad0" d="M624 290c4.679 4.3 8.064 8.042 12 13-4.184-.388-2.983.948-2 3.5 8.53 22.148 19.347 37.339 23 63 16.111 113.165-92.136 198.836-199.5 160.5-20.353-7.267-36.809-23.24-58.5-26-13.776-13.697-23.777-26.15-32-44 2.952-.299 9.979-3.797 12.5-3 1.58.5 14.402 22.867 18.5 27.5 8.486 9.592 21.84 20.563 33.5 25.5 46.974 19.89 97.722 27.882 146 2 62.154-33.321 92.063-116.222 59.5-180.5-4.129-8.151-10.796-20.96-15-5.5-2.314-3.929-7.227-8.832-10-13 10.651-10.161 2.336-11.207-5-19-1.339-1.422-2.594-3.688-4-5-.269-2.873 4.596-11.379 7.5-11 3.559 4.908 9.282 8.123 13.5 12"/><path fill="#1f4b5b" d="M695 287c-.279 5.002 5.937 9.855 8 14 .646 1.299-.29 7.889 2.5 9l.5-2c15.621 19.488 24.254 43.807 29 68 1.559 7.945 3.919 21.873 5 29.5.431 3.043-.666 16.119 0 19 1.983 8.582 22.916 9.567 25 18.5-4.828 4.272-20.223-13.194-22-7.5 2.726 40.154-3.687 80.645-15 119-1.485 5.036-13.098 32.778-11.5 34.5 9.824 1.189 11.592 4.867 17.5-4h4c-1.487 1.549-3.471 6.362-5.5 7-4.768 1.5-16.499-2.62-19.5.5-1.426 1.483-14.422 31.154-18 37-7.47 12.206-18.17 26.086-28 36.5l-13.5 11c-2.709.171-2.249-2.692-2.5-3 10.091-8.902 19.009-19.214 27-30 72.82-98.294 86.086-261.04 6-359 2.741-.731 2.991-.861 5-3 .343-.365 1.583-.108 1-2 1.436 2.157 3.424 4.96 5 7"/><path fill="#47788f" d="M693 610c3.149-27.963-28.666-41.745-44-18l-3.5 3-.5-2c43.449-90.112 58.061-213.281 32-310 21.862 26.431 38.791 56.999 47 90.5 18.571 75.784 6.189 168.329-31 236.5"/><path fill="#08839d" d="M442 293c-30.003 19.009-51.149 52.547-55 88l-9 2c1.404-14.733 4.25-25.448 10-39 7.52-17.722 25.938-44.862 43-54 2.486-1.331 5.056-2.552 7.5-4z"/><path fill="#416c76" d="M703 301c-2.063-4.145-8.279-8.998-8-14 2.776 3.592 15.721 10.577 8 14"/><path fill="#a8c8ce" d="M612 313c-.311-.467-.688-1.54-1-2-4.548-6.706-13.976-11.545-4-17 7.336 7.793 15.651 8.839 5 19"/><path fill="#749ea8" d="M636 303c118.443 149.179-98.117 339.082-237 201 21.691 2.76 38.147 18.733 58.5 26 107.364 38.336 215.611-47.335 199.5-160.5-3.653-25.661-14.47-40.852-23-63-.983-2.552-2.184-3.888 2-3.5"/><path fill="#cffcff" d="M479 312c-24.445 10.142-53.322 22.794-55 53-28.461-40.687 14.933-79.198 55-53"/><path fill="#002d4b" d="M509 309v3c-6.822-.69-16.199-2.032-22.5 2 53.424-1.771 103.366 43.909 99.5 100-39.567-21.687-70.611 36.277-38 57-48.317 10.027-102.522-14.763-112-66 8.811-11.96-.997-29.508-17-22l6-16c33.101 39.556 94.929-23.016 56-54 8.102-4.173 19.098-4.41 28-4m-60.5 81c-6.613 1.446-10.081 18.218-5 23 27.776 10.831 20.519-26.394 5-23"/><path fill="#003e68" d="m594 414-3 2.5c-3.743-.958-1.372-22.18-2-27-5.532-42.442-37.591-73.213-80-77.5v-3c54.742 2.524 91.6 51.747 85 105"/><path fill="#105b7c" d="M509 312c42.409 4.287 74.468 35.058 80 77.5.628 4.82-1.743 26.042 2 27l3-2.5c-.259 2.089-.937 3.91-1 6-1.266-1.319-5.605-5.235-7-6 3.866-56.091-46.076-101.771-99.5-100 6.301-4.032 15.678-2.69 22.5-2"/><path fill="#adf6fe" d="M481 313c38.929 30.984-22.899 93.556-56 54-.233-.279-.741-1.629-1-2 1.678-30.206 30.555-42.858 55-53 .419.274 1.677.743 2 1"/><path fill="#004984" d="M232 485c2.678 3.762 5.813 12.396 10 13 .262 1.917.768 2.792 1 4 .672 3.499 2.289 6.884 3 10 1.494 6.549 3.016 13.608 5 20-2.457 6.112-1.65 14.954-3 21-.179.801-.67 1.8-1 3-.151.551.163 1.482 0 2-.255.814-.702 1.191-1 2-12.864 34.903-71.785 58.181-106.5 55-22.002-2.016-19.725-13.032-26.5-26.5-1.384-2.752-7.911-7.685-9-11-1.317-4.009-.204-11.973-1-14-.901-2.295-16.025-9.612-18-23-.494-3.352-1.881-18.769-2-22-.303-8.235-.278-19.088 7.5-24.5 11.477-7.986 46.134-13.133 61-20 1.465-.677 8.319-4.341 8.5-5.5-22.116-25.019-40.916-78.726-17-107 10.408-12.305 30.115-16.139 39 0 8.291 15.06 1.58 38.225 3 55 2.718 32.099 30.131 44.801 47 68.5m-79-127c-30.285 18.972-15.712 74.532 1 99 1.935 2.833 5.278 5.614 7 8 1.033 1.431 3.114 1.334 3 3.5-.176.923-9.31 5.548-11 6.5-13.454 7.579-29.496 11.859-44 17-6.094 2.16-9.995.117-16 5-13.238 10.765-4.566 40.127 13 42-7.335-.745-12.511.048-17.5-8-2.018 5.486.633 9.429 2.5 14 5.795 14.19 25.758 25.372 40.5 21 .925-.274 14.524-8.703 16.5-10 14.309-9.39 25.199-17.986 17.5-37-12.274 14.173-25.889 18.548-43.5 20l9-4c6.605-1.196 12.446-4.536 18-8 8.994-5.61 18.938-11.912 17-24.5-2.225-14.452-16.982 1.166-25.5 4.5-6.851 2.681-25.944 8.427-32.5 8 7.48-4.215 46.923-22.177 52.5-22 8.415.267 7.264 13.124 7.5 18 .014.292-2.398 3.341-2 5.5.203 1.102 4.876 6.711 6 10 .745 2.18-.736 7.775 0 10 .629 1.902 10.462 7.513 12 17 .71 4.377-1.654 10.176-1 13 .122.525 5.236 3.578 6 8 2.99 17.316-10.881 26.4-24 34 2.711 2.849 8.024-1.395 8.5-1.5 21.29-4.673 43.35-13.635 56.5-31 32.536-42.965 10.321-70.484-17-106-17.832-23.18-29.865-30.235-32-62.5-.768-11.604 1.728-22.916 0-34.5-1.04-6.975-1.624-11.936-8-16-8.142-5.189-12.253-3.853-20 1m-31 230c.503 4.333-.359.638-3 2-5.693 2.935 4.82 15.749 8.5 18 16.619 10.167 41.148-.121 51.5-15 6.339-9.111 9.356-14.748 1.5-25-7.154 9.888-21.104 21.079-33.5 20 6.212-2.13 10.825-6.287 16-10 2.632-1.889 4.293-2.463 7-5 13.588-12.737 12.645-18.179.5-33-13.204 20.235-39.992 36.822-64 25-5.213 4.017 8.469 24.337 15.5 23"/><path fill="#00437f" d="M776 559c-.526-1.075-1.808-2.587-2-3-.484-1.042 1.133-3.504-2-3 .289-1.615 1.968-.7 2-1.5.255-6.441-1.215-14.999-2-21.5.92-3.708 2.584-12.277 3-16 .168-3.06 3.717-8.901 4-11 4.867-3.525 7.238-14.013 10-18 15.266-22.035 44.282-33.836 48-63.5 2.443-19.489-11.338-81.465 29.5-69.5 40.244 11.791 21.381 95.816-4.5 116.5.089.617 7.315 4.952 8.5 5.5 13.602 6.285 54.014 13.421 63 21 12.191 10.282 3.562 22.857 2.5 32.5-.328 2.979 2.435 8.427 1 15-2.438 11.169-17.648 20.594-18 22-.503 2.01 1.628 8.033-1 14-1.403 3.185-6.896 6.806-8 9-6.682 13.28-5.246 25.348-26.5 27.5-39.953 4.046-89.692-19.603-107.5-56m72-201c-3.669 2.999-6.321 8.511-7 13-1.88 12.429 1.243 29.406 0 42.5-2.607 27.466-18.392 39.527-34 59.5-12.014 15.374-23.527 25.373-28 46-4.968 22.91-1.234 41.156 14 59 12.918 15.131 30.265 20.495 46.5 26 6.712 2.276 12.126 7.004 19.5 6.5.599-1.128-12.959-9.11-14.5-10.5-6.883-6.206-14.613-16.792-11.5-26.5.162-.506 6.869-7.485 7-8 .503-1.97-2.067-1.344-2-2 2.134-20.914 3.724-11.391 10-25 1.683-3.65.921-10.821 2-14 .473-1.394 5.815-6.733 6-8 .241-1.655-2.196-5.132-2-7.5.355-4.285.616-15.833 7.5-16l53.5 23c-11.092 1.489-44.129-14.594-54.5-21-9.533 14.602-.379 23.164 11.5 31 4.719 3.112 13.53 8.086 19 9 3.659 1.257 7.134 3.336 11 4-14.978 1.93-35.56-7.6-44.5-20-4.194 5.987-3.482 11.806-1.5 18 2.938 9.181 26.843 27.007 35.5 29 19.577 4.508 45.05-13.515 43.5-34.5-6.251 7.479-12.04 6.12-19 8.5l-1-1c17.429-3.326 26.593-22.515 18-38-4.972-8.959-12.838-7.146-21-10-14.758-5.161-30.569-8.915-44-17-2.988-1.799-6.436-2.973-9-5.5-.376-1.729 3.296-3.501 4-5.5 18.754-19.352 27.18-48.92 23-75.5-2.541-16.16-19.195-44.872-38-29.5m3 214c5.186 5.119 20.165 15.371 27 17-14.083.424-28.352-9.818-36.5-21-6.334 9.782-4.686 16.701 2.5 25 13.338 15.406 36.588 27.657 54 11 2.237-2.14 3.761-2.872 5-6 .539-1.361 2.526-7.62 2-8.5-1.308-1.098-2.146.417-4 .5-3.597.162-13.312 4.794-14 0 2.566.082 6.689.384 9 0 10.893-1.812 22.754-13.247 20.5-25-24.467 11.815-51.317-4.537-65-25-10.015 13.404-13.138 19.527-.5 32"/><path fill="#afedfa" d="M173 357c-2.278 3.09-6.487.096-9.5 1-8.538 2.562-13.902 31.445-14.5 39.5-1.761 23.727 3.208 45.878 12 67.5-1.722-2.386-5.065-5.167-7-8 4.107-3.992-3.644-12.962-5-17.5-6.705-22.445-4.767-46.12 3-68 2.335-6.579 9.345-9.437 1-13.5 7.747-4.853 11.858-6.189 20-1"/><path fill="#71dffc" d="M863 463c1.533-4.35 3.775-9.69 5-14 14.117-16.916 12.831-70.998-3-85-6.803-6.017-7.203-5.262-17-6 18.805-15.372 35.459 13.34 38 29.5 4.18 26.58-4.246 56.148-23 75.5"/><path fill="url(#c)" d="M181 373c-1.986 18.195-4.967 49.116 1 66.5 2.501 7.286 21.151 27.655 27.5 31.5 1.503.91 2.837.526 3.5-1 27.321 35.516 49.536 63.035 17 106-7.865 4.462-33.367 1.875-37-7.5-1.698-4.383.866-6.097 0-9-.61-2.046-4.84-6.848-5-8-.529-3.805 3.212-8.553 2-14-.175-.787-7.126-12.684-8-14-3.44-5.183-10.11-5.768-9-11.5.27-1.393 2.883-5.246 3-6.5 2.116-22.725-2.847-23.903-23-30.5 1.69-.952 10.824-5.577 11-6.5.114-2.166-1.967-2.069-3-3.5-8.792-21.622-13.761-43.773-12-67.5.598-8.055 5.962-36.938 14.5-39.5 3.013-.904 7.222 2.09 9.5-1 6.376 4.064 6.96 9.025 8 16" style="fill:url(#c)"/>/&gt;<path fill="#72e2fd" d="M154 457c-16.712-24.468-31.285-80.028-1-99 8.345 4.063 1.335 6.921-1 13.5-7.767 21.88-9.705 45.555-3 68 1.356 4.538 9.107 13.508 5 17.5"/><path fill="url(#d)" d="M865 364c11.339 26.976 10.918 57.149 3 85-1.225 4.31-3.467 9.65-5 14-.704 1.999-4.376 3.771-4 5.5 2.564 2.527 6.012 3.701 9 5.5-22.969 10.317-23.443 12.638-19 37 .264 1.448 2.46 2.064 2 3.5-.205.641-8.349 6.463-10 9-.929 1.427-7.811 13.216-8 14-1.273 5.272 2.447 11.583 2 14-.078.423-4.33 4.734-5 7-.709 2.397.722 7.656 0 10-3.097 10.05-28.962 9.995-37 9.5-15.234-17.844-18.968-36.09-14-59 6.567-1.983 9.39-13.756 13-19.5 5.155-8.201 11.826-17.022 18-24.5 10.218-12.375 28.549-24.306 32-40.5 3.929-18.438-.003-40.116 1-59 .092-1.733.884-4.982-2-4.5.679-4.489 3.331-10.001 7-13 9.797.738 10.197-.017 17 6" style="fill:url(#d)"/>/&gt;<path fill="#bbf1fd" d="M868 449c7.918-27.851 8.339-58.024-3-85 15.831 14.002 17.117 68.084 3 85"/><path fill="#6fc6e1" d="m810 475-3-2c15.608-19.973 31.393-32.034 34-59.5 1.243-13.094-1.88-30.071 0-42.5 2.884-.482 2.092 2.767 2 4.5-1.003 18.884 2.929 40.562-1 59-3.451 16.194-21.782 28.125-32 40.5"/><path fill="#6fc9e3" d="M213 470c-.663 1.526-1.997 1.91-3.5 1-6.349-3.845-24.999-24.214-27.5-31.5-5.967-17.384-2.986-48.305-1-66.5 1.728 11.584-.768 22.896 0 34.5 2.135 32.265 14.168 39.32 32 62.5"/><path fill="#062f48" d="M789 485c-2.762 3.987-5.133 14.475-10 18 1.41-10.45 2.31-20.617-9.5-22-1.988 6.516-2.129 13.357-3.5 20-4.6 22.291-9.707 41.759-18 63-.539 1.38-6.962 12.099-5.5 13 16.368-3.825 25.805-32.112 29.5-47 .785 6.501 2.255 15.059 2 21.5-.032.8-1.711-.115-2 1.5-.374 2.086.115 5.892 2 3 .192.413 1.474 1.925 2 3-2.351 2.192-6.161-2.031-6.5-2-2.47.224-13.399 20.068-18 22-8.473 3.558-5.399-2.437-13.5 6h-4c16.199-24.314 37.421-114.478 31-142-2.084-8.933-23.017-9.918-25-18.5-.666-2.881.431-15.957 0-19-1.081-7.627-3.441-21.555-5-29.5 5.624 14.414 6.505 31.088 7 46.5 1.733 6.379 24.555 7.54 27 20 1.407 7.17-1.897 29.46 0 34 .762 1.823 17.35 5.514 20 8.5"/><path fill="#109eb9" d="M387 381c-5.908 54.389 22.921 104.206 74 124-.453 13.26-4.706 2.024-11 5-49.747-22.839-77.164-72.812-72-127z"/><path fill="#d0f9fe" d="M436 405c-1.605 2.179-5.129 3.798-8 4-3.885.273-6.126-.495-9-3-5.358-4.668-7.649-19.412 0-23 16.003-7.508 25.811 10.04 17 22"/><path fill="#77f3fe" d="M448.5 390c15.519-3.394 22.776 33.831-5 23-5.081-4.782-1.613-21.554 5-23"/><path fill="#0182b0" d="M548 471c.227.144 4.407 1.826 5 2-19.076 10.093-40.995 9.294-61.5 5-5.288-1.107-12.315-5.634-17-7-3.914-1.141-5.608 2.246-7 2-5.681-1.005-17.117-11.107-21.5-15 1.955-7.639-5.28-11.123-9-18.5-3.082-6.111-8.623-17.671-10-24-.414-1.902-1.145-5.198 1-6.5 2.871-.202 6.395-1.821 8-4 9.478 51.237 63.683 76.027 112 66"/><path fill="#1a8ab3" d="M428 409c-2.145 1.302-1.414 4.598-1 6.5 1.377 6.329 6.918 17.889 10 24 3.72 7.377 10.955 10.861 9 18.5-15.167-13.471-26.269-31.016-27-52 2.874 2.505 5.115 3.273 9 3"/><path fill="#2ee7fc" d="M586 414c1.395.765 5.734 4.681 7 6 .325.339.607.526 1 1-1.434 15.296-6.864 29.639-18.5 40-5.486 4.884-13.579 6.883-17.5 13-.978-.063-4.049-.72-5-1-.593-.174-4.773-1.856-5-2-32.611-20.723-1.567-78.687 38-57"/><path fill="#78f4fe" d="M558 474c3.921-6.117 12.014-8.116 17.5-13 11.636-10.361 17.066-24.704 18.5-40 23.228 27.975-6.177 54.931-36 53"/><path fill="#0a3348" d="M275 426c-.024.348.078 2.472 0 4-3.796-.406-22.246 8.346-23 10.5-2.016 5.755 1.807 43.548 3 52 1.935 13.705 22.285 93.968 33.5 97.5 2.319.73 7.638-.526 10.5 0 1.879.345 2.061-.432 4 1-18.662 7.967-19.707-7.365-26.5-11-.899-.481-6.246.08-8-1-9.352-5.759-11.376-23.071-22.5-19 .298-.809.745-1.186 1-2 .624-.09 1.676.167 2 0 2.123-1.09 1.081-4.669-1-5 1.35-6.046.543-14.888 3-21 4.754 15.319 9.14 36.343 23.5 45 4.06-.269-5.24-12.786-5.5-13.5-3.716-10.225-7.143-22.907-10-33.5-2.885-10.697-4.842-20.172-7-31-.587-2.947-2.241-17.517-3.5-18-9.439-3.622-7.069 12.832-6.5 17-4.187-.604-7.322-9.238-10-13 2.491-3.583 15.99-6.782 17-9.5 1.895-5.1-3.838-28.123 0-37 2.129-4.924 20.156-12.88 26-12.5"/><path fill="#4d7d85" d="M275 430c-.015.3 1.124-1.54 1 2-4.605 3.457-19.753 9.863-20 15-1.036 21.524 5.926 47.179 9 68.5 3.147 1.62 2.033-5.443 2-6.5l13-1c2.621 16.564 8.189 38.293 13 54.5 1.02 3.436 10.696 23.848 10 25-.793 1.313-4.594-.898-4 2.5-2.862-.526-8.181.73-10.5 0-11.215-3.532-31.565-83.795-33.5-97.5-1.193-8.452-5.016-46.245-3-52 .754-2.154 19.204-10.906 23-10.5"/><path fill="#72a4a9" d="M276 432c-.893 25.462.017 50.829 4 76l-13 1c-.345-10.941-3.544-49.877-7-58.5-.187-.467-2.779-4.026-4-3.5.247-5.137 15.395-11.543 20-15"/><path fill="#47747d" d="M765 443c6.421 27.522-14.801 117.686-31 142-5.908 8.867-7.676 5.189-17.5 4-1.598-1.722 10.015-29.464 11.5-34.5 11.313-38.355 17.726-78.846 15-119 1.777-5.694 17.172 11.772 22 7.5m-4.5 2c-3.273 4.353-5.412 10.269-6.5 15.5-5.062 24.336-3.599 55.365-7.5 80.5 12.779-29.768 15.644-63.744 14-96"/><path fill="#78a1a3" d="M760.5 445c1.644 32.256-1.221 66.232-14 96 3.901-25.135 2.438-56.164 7.5-80.5 1.088-5.231 3.227-11.147 6.5-15.5"/><path fill="#a4c9ca" d="M267 509c.033 1.057 1.147 8.12-2 6.5-3.074-21.321-10.036-46.976-9-68.5 1.221-.526 3.813 3.033 4 3.5 3.456 8.623 6.655 47.559 7 58.5"/><path fill="#3d9bbe" d="M810 475c-6.174 7.478-12.845 16.299-18 24.5-3.61 5.744-6.433 17.517-13 19.5 4.473-20.627 15.986-30.626 28-46z"/><path fill="#007ab3" d="M912 491c.606 4.283 13.071 6.05 14 9.5.94 3.492-6.94 14.955-11 15.5l-53.5-23c-6.884.167-7.145 11.715-7.5 16l-5 2c-4.443-24.362-3.969-26.683 19-37 13.431 8.085 29.242 11.839 44 17"/><path fill="#0190c1" d="m173 512-5-1c-.236-4.876.915-17.733-7.5-18-5.577-.177-45.02 17.785-52.5 22-5.437-.354-13.137-10.766-11-15.5.555-1.229 11.38-4.371 12-7.5 14.504-5.141 30.546-9.421 44-17 20.153 6.597 25.116 7.775 23 30.5-.117 1.254-2.73 5.107-3 6.5"/><path fill="#8ababd" d="m252 499-9 3c-.232-1.208-.738-2.083-1-4-.569-4.168-2.939-20.622 6.5-17 1.259.483 2.913 15.053 3.5 18"/><path fill="#7aa9ac" d="M779 503c-.283 2.099-3.832 7.94-4 11 .235-2.1.443-6.88 0-9-.312-1.491 1.455-2.665.5-3-2.598-.91-6.83 1.258-9.5-1 1.371-6.643 1.512-13.484 3.5-20 11.81 1.383 10.91 11.55 9.5 22"/><path fill="#1c9fdf" d="M933 501c-.304 5.782-2.413 9.165-4 14-20.91 22.214-48.695 5.234-66.5-12-1.654 9.048 5.215 15.939 9.5 23-11.879-7.836-21.033-16.398-11.5-31 10.371 6.406 43.408 22.489 54.5 21 4.06-.545 11.94-12.008 11-15.5-.929-3.45-13.394-5.217-14-9.5 8.162 2.854 16.028 1.041 21 10"/><path fill="#32c2f1" d="M109 492c-.62 3.129-11.445 6.271-12 7.5-2.137 4.734 5.563 15.146 11 15.5 6.556.427 25.649-5.319 32.5-8 8.518-3.334 23.275-18.952 25.5-4.5 1.938 12.588-8.006 18.89-17 24.5 5.452-6.07 12.919-14.054 10.5-23-18.446 15.946-41.335 31.33-64.5 14-3.534-7.206-7.194-13.487-2-21 6.005-4.883 9.906-2.84 16-5"/><path fill="#a3ebfd" d="M95 518c7.29 14.863 19.646 19.961 36 17l-9 4c-6.211.512-9.72.638-16 0-17.566-1.873-26.238-31.235-13-42-5.194 7.513-1.534 13.794 2 21"/><path fill="#63969b" d="M252 499c2.158 10.828 4.115 20.303 7 31-6.792-3.757-1.842-25.961-13-18-.711-3.116-2.328-6.501-3-10z"/><path fill="#4f7d85" d="M775 505c-5.292 12.232-12.369 52.917-22.5 60-1.006.703-5.031 2.351-4.5-1 8.293-21.241 13.4-40.709 18-63 2.67 2.258 6.902.09 9.5 1 .955.335-.812 1.509-.5 3"/><path fill="#87d9fc" d="M915 539c-5.613 1.071-7.435.956-13 0-3.866-.664-7.341-2.743-11-4 18.326 3.061 32.27-2.546 38-20 1.587-4.835 3.696-8.218 4-14 8.593 15.485-.571 34.674-18 38"/><path fill="#08819b" d="M575 505c-39.444 21.63-83.876 23.88-125 5 6.294-2.976 10.547 8.26 11-5 23.168 8.978 47.238 11.33 72 7v6.5l2.5.5z"/><path fill="#3abcfb" d="M929 515c-5.73 17.454-19.674 23.061-38 20-5.47-.914-14.281-5.888-19-9-4.285-7.061-11.154-13.952-9.5-23 17.805 17.234 45.59 34.214 66.5 12"/><path fill="#5cd7fd" d="M149 527c-5.554 3.464-11.395 6.804-18 8-16.354 2.961-28.71-2.137-36-17 23.165 17.33 46.054 1.946 64.5-14 2.419 8.946-5.048 16.93-10.5 23"/><path fill="#27545f" d="M775 514c-.416 3.723-2.08 12.292-3 16-3.695 14.888-13.132 43.175-29.5 47-1.462-.901 4.961-11.62 5.5-13-.531 3.351 3.494 1.703 4.5 1 10.131-7.083 17.208-47.768 22.5-60 .443 2.12.235 6.9 0 9"/><path fill="#00588e" d="M854 509c-.196 2.368 2.241 5.845 2 7.5-.185 1.267-5.527 6.606-6 8-1.079 3.179-.317 10.35-2 14-6.276 13.609-7.866 4.086-10 25-.067.656 2.503.03 2 2-.131.515-6.838 7.494-7 8-3.113 9.708 4.617 20.294 11.5 26.5 1.541 1.39 15.099 9.372 14.5 10.5-7.374.504-12.788-4.224-19.5-6.5-16.235-5.505-33.582-10.869-46.5-26 8.038.495 33.903.55 37-9.5.722-2.344-.709-7.603 0-10 .67-2.266 4.922-6.577 5-7 .447-2.417-3.273-8.728-2-14 .189-.784 7.071-12.573 8-14 1.651-2.537 9.795-8.359 10-9 .46-1.436-1.736-2.052-2-3.5z"/><path fill="#376770" d="M259 530c2.857 10.593 6.284 23.275 10 33.5.26.714 9.56 13.231 5.5 13.5-14.36-8.657-18.746-29.681-23.5-45-1.984-6.392-3.506-13.451-5-20 11.158-7.961 6.208 14.243 13 18"/><path fill="#006597" d="M173 512c-1.11 5.732 5.56 6.317 9 11.5.874 1.316 7.825 13.213 8 14 1.212 5.447-2.529 10.195-2 14 .16 1.152 4.39 5.954 5 8 .866 2.903-1.698 4.617 0 9 3.633 9.375 29.135 11.962 37 7.5-13.15 17.365-35.21 26.327-56.5 31-.476.105-5.789 4.349-8.5 1.5 13.119-7.6 26.99-16.684 24-34-.764-4.422-5.878-7.475-6-8-.654-2.824 1.71-8.623 1-13-1.538-9.487-11.371-15.098-12-17-.736-2.225.745-7.82 0-10-1.124-3.289-5.797-8.898-6-10-.398-2.159 2.014-5.208 2-5.5z"/><path fill="#3cbfee" d="M148 556c6.523-9.393 21.752-19.098 16.5-32-9.227 24.964-47.667 26.409-69 20-1.689-.507-4.687-2.628-4.5 1-1.867-4.571-4.518-8.514-2.5-14 4.989 8.048 10.165 7.255 17.5 8 6.28.638 9.789.512 16 0 17.611-1.452 31.226-5.827 43.5-20 7.699 19.014-3.191 27.61-17.5 37"/><path fill="#2e9cda" d="M902 539c5.565.956 7.387 1.071 13 0l1 1c-.151.052-3.226 1.375-2.5 2h12c-3.58 6.033-22.554 5.538-30 5-14.913-1.078-30.648-7.338-37-22l-2.5 2.5 1 6 10.5 16.5-11.5-13c-1.982-6.194-2.694-12.013 1.5-18 8.94 12.4 29.522 21.93 44.5 20"/><path fill="#6fe0fe" d="M148 556c-1.976 1.297-15.575 9.726-16.5 10-14.742 4.372-34.705-6.81-40.5-21-.187-3.628 2.811-1.507 4.5-1 21.333 6.409 59.773 4.964 69-20 5.252 12.902-9.977 22.607-16.5 32"/><path fill="#44bcfd" d="M916 540c6.96-2.38 12.749-1.021 19-8.5 1.55 20.985-23.923 39.008-43.5 34.5-8.657-1.993-32.562-19.819-35.5-29l11.5 13-10.5-16.5-1-6 2.5-2.5c6.352 14.662 22.087 20.922 37 22 7.446.538 26.42 1.033 30-5h-12c-.726-.625 2.349-1.948 2.5-2"/><path fill="#25a7dd" d="m170 573-5.5 2c-1.585-1.058 6.532-19.957 6-24-11.243 18.255-39.38 26.111-59.5 21-.1-.025.307-2.008-.5-2-1.893 1.368-1.702 2.137.5 3 .106.903-1.051 1.056-1 2 .321 5.917 8.618 9.86 13 12-.763-.104-1.088.241-1 1-7.031 1.337-20.713-18.983-15.5-23 24.008 11.822 50.796-4.765 64-25 12.145 14.821 13.088 20.263-.5 33"/><path fill="#0e85cc" d="M896 590c1.245-4.033 23.507-11.94 15-17-3.465-2.061-13.357.622-18.5 0-15.402-1.864-31.174-7.538-40-21 .319 9.33 3.804 17.226 8.5 25-2.863-1.476-6.635-5.328-10-5-12.638-12.473-9.515-18.596.5-32 13.683 20.463 40.533 36.815 65 25 2.254 11.753-9.607 23.188-20.5 25"/><path fill="#50d2fc" d="M170 573c-2.707 2.537-4.368 3.111-7 5-19.429 7.021-35.4 10.979-53-3-.051-.944 1.106-1.097 1-2v-1c20.12 5.111 48.257-2.745 59.5-21 .532 4.043-7.585 22.942-6 24z"/><path fill="#21abf7" d="M911 573c-10.721 16.984-34.876 11.799-50 4-4.696-7.774-8.181-15.67-8.5-25 8.826 13.462 24.598 19.136 40 21 5.143.622 15.035-2.061 18.5 0"/><path fill="#f0efe8" d="m249 558-2-2c.33-1.2.821-2.199 1-3 2.081.331 3.123 3.91 1 5"/><path fill="#a2b1af" d="M774 556c-1.885 2.892-2.374-.914-2-3 3.133-.504 1.516 1.958 2 3"/><path fill="#d8cfbd" d="M249 558c-.324.167-1.376-.09-2 0 .163-.518-.151-1.449 0-2z"/><path fill="#44bceb" d="M179 593c-15.241 7.791-25.223 17.347-44 12.5 19.358-1.287 38.554-11.011 42.5-31.5-12.076 18.785-41.809 42.051-58.5 16 2.641-1.362 3.503 2.333 3-2-.088-.759.237-1.104 1-1 9.409 4.596 12.735 4.864 24 1 12.396 1.079 26.346-10.112 33.5-20 7.856 10.252 4.839 15.889-1.5 25"/><path fill="#2487d1" d="M878 589c3.105.74 5.815.898 9 1 .688 4.794 10.403.162 14 0-1.154 15.709-26.857 11.937-36.5 4L846 578.5c8.26 21.549 37.915 34.992 57 19.5-1.239 3.128-2.763 3.86-5 6-19.473 9.542-37.614-.523-54-11-7.186-8.299-8.834-15.218-2.5-25 8.148 11.182 22.417 21.424 36.5 21"/><path fill="#143d79" d="M111 572v1c-2.202-.863-2.393-1.632-.5-3 .807-.008.4 1.975.5 2"/><path fill="#66c9fd" d="M861 577c15.124 7.799 39.279 12.984 50-4 8.507 5.06-13.755 12.967-15 17-2.311.384-6.434.082-9 0-3.185-.102-5.895-.26-9-1-6.835-1.629-21.814-11.881-27-17 3.365-.328 7.137 3.524 10 5"/><path fill="#75d3f5" d="M179 593c-10.352 14.879-34.881 25.167-51.5 15-3.68-2.251-14.193-15.065-8.5-18 16.691 26.051 46.424 2.785 58.5-16-3.946 20.489-23.142 30.213-42.5 31.5 18.777 4.847 28.759-4.709 44-12.5"/><path fill="#a2ebfe" d="M163 578c-5.175 3.713-9.788 7.87-16 10-11.265 3.864-14.591 3.596-24-1-4.382-2.14-12.679-6.083-13-12 17.6 13.979 33.571 10.021 53 3"/><path fill="#37aaf1" d="M901 590c1.854-.083 2.692-1.598 4-.5.526.88-1.461 7.139-2 8.5-19.085 15.492-48.74 2.049-57-19.5l18.5 15.5c9.643 7.937 35.346 11.709 36.5-4"/><path fill="#072434" d="M352 580c15.469 1.036 26.323 17.502 25 32-1.664 18.229-15.228 20.788-30 20-8.69-3.034-14.041-10.61-19-18-3.571-16.704 4.744-35.29 24-34m-6.5 4c-23.968 4.436-16.375 49.847 13 45 24.044-3.968 16.125-50.391-13-45"/><path fill="#052436" d="M693 610c-.649 5.759-4.591 10.073-7 15-25.24 21.55-54.479-5.934-37-33 15.334-23.745 47.149-9.963 44 18m-27.5-26c-22.569 3.824-24.16 47.614 4 45 26.22-2.434 26.861-50.228-4-45"/><path fill="#def0ee" d="M345.5 584c29.125-5.391 37.044 41.032 13 45-29.375 4.847-36.968-40.564-13-45m0 7c-13.63 3.291-9.909 33.857 10 29 12.988-3.168 10.275-33.895-10-29"/><path fill="#31e0df" d="M665.5 584c30.861-5.228 30.22 42.566 4 45-28.16 2.614-26.569-41.176-4-45m3 6c-12.167 1.103-16.02 23.012-5 29 20.609 11.198 27.9-31.077 5-29"/><path fill="#002940" d="M668.5 590c22.9-2.077 15.609 40.198-5 29-11.02-5.988-7.167-27.897 5-29"/><path fill="#6e909b" d="M345.5 591c20.275-4.895 22.988 25.832 10 29-19.909 4.857-23.63-25.709-10-29"/><path fill="#477990" d="M649 592c-17.479 27.066 11.76 54.55 37 33-3.234 6.614-6.763 13.008-11 19-2.265 3.202-20.464 25.433-22.5 25-8.321-14.91-21.5-23.91-36.5-31 11.661-13.471 21.268-28.965 29-45l.5 2z"/><path fill="#57c3fa" d="M898 604c-17.412 16.657-40.662 4.406-54-11 16.386 10.477 34.527 20.542 54 11"/><path fill="#bae0e8" d="M367 669c-11.758-10.792-23.857-22.588-28-38.5 3.635 3.155 5.761 1.381 8 1.5 14.772.788 28.336-1.771 30-20 2.656-.096 1.762-1.658 4 .5 5.51 5.311 11.717 22.11 19 28-12.945 7.617-24.807 15.62-33 28.5"/><path fill="#0c2d3e" d="M651 674c.251.308-.209 3.171 2.5 3l13.5-11c-15.293 16.201-25.891 23.309-46.5 32-5.065 2.136-33.96 10.106-34.5 12.5 8.495 19.819 11.587 41.456 11 63 24.689 11.267 48.232 21.248 68 40.5 6.751 10.022 12.88 20.051 19 30.5 1.161 1.983 1.234 2.99 4 2.5.239.501.53 1.944 1 3 3.999 8.983 14.975 33.335 12 42.5-2.167 6.674-49.624 13.959-57.5 14.5-46.372 3.184-106.874-8.427-123.5-59.5-.969-2.977-.847-13.037-1.5-13.5-.757-.536-15.958-1.456-18.5-1.5 2.334 20.209-20.272 46.691-36.5 57.5-25.51 16.991-118.531 23.483-141 5-8.687-7.146 3.173-33.905 7.5-43 19.402-40.783 50.848-62.474 92-78.5-.066-22.034 4.287-43.214 11-64-24.291-7.124-47.147-14.804-67-30.5 1.303-1.029 1.628-3.421 2-4 49.172-76.412 227.035-69.703 283-1m-236-15c.604 1.94 5.692 12.688 6.5 13 1.269.49 21.865-7.188 26-8 35.287-6.929 72.465-8.099 108-2 6.533 1.121 37.982 11.48 40 11 .839-.199 8.208-13.594 8.5-15 .215-1.038 1.544-1.641 1-2.5-59.198-25.339-133.912-24.547-192 2 .313.858 1.963 1.381 2 1.5m49 28c21.997-3.672 38.447-5.373 61-4 5.213.318 10.832.3 16 1 6.743.913 39.435 10.539 41.5 10 2.623-.685 8.72-15.119 11.5-17.5-19.914-5.706-40.261-11.65-61-13.5-35.31-3.149-76.484.298-109 13.5 2.934 2.165 10.169 17.07 12.5 17.5 1.395.257 22.691-6.197 27.5-7m19 15c13.179-1.742 24.642-2.55 38-2 7.121.293 13.969 1.003 21 2 5.489.778 29.919 8.376 31.5 8 .601-.143 6.532-9.883 6.5-10.5-.228-4.365-32.37-9.699-38-10.5-34.184-4.866-71.42-3.884-103 9.5-.154.78 7.684 12.365 8.5 12.5.486.08 7.277-3.63 9-4 8.737-1.877 17.643-3.83 26.5-5m54 14c4.811.595 27.111 6.439 28.5 6 .926-.292 5.27-7.486 4-9-1.61-1.92-26.19-6.418-30.5-7-29.658-4.007-60.931-2.982-89 8.5-.575 1.46 3.523 7.28 4.5 7.5 1.847.415 30.344-7.476 37-8 14.756-1.162 30.836.185 45.5 2m30 12c-.912 1.515-6.828 6.491-7 8.5-.139 1.62 2.948 5.286 3 6 .895 12.191 1.363 24.746 1 37 3.548 4.429 6.959 6.294 13 6.5 3.049.104 12.65-1.554 15-4 1.426-1.484 2.699-4.687 3-6.5 2.232-13.441-2.414-30.641-5-42-.918-4.032-5.293-26.709-9-26.5-5.992 6.085-9.662 13.795-14 21m-135-4c-3.512 11.64-11.825 46.23-7 56.5.818 1.742 2.872 1.391 3 1.5 7.84 6.694 17.37 2.286 20-7l3.5 3c.107-.767 1.444-2.251 1.5-2.5 1.596-7.065-.61-17.142 0-21 .283-1.786 6.914-14.758 7-16 .341-4.895-6.19-8.64-8-11.5-4.132-6.529-7.093-14.057-13.5-19-5.458 3.584-4.896 10.682-6.5 16m100 13c15.813.633 19.679 9.473 30-10.5-.813-2.755-23.207-5.989-27-6.5-26.655-3.594-52.109-2.698-78 5.5-.354.822 9.656 14.203 10.5 14.5 2.72.958 25.677-2.879 31-3 10.989-.25 22.545-.439 33.5 0m-69.5 4c-3.826.016-6.924 27.856-5.5 30.5.39.724 12.398 3.657 15.5 5.5 16.195 9.621 23.526 48.615 28 51 .805.429 17.131 3.277 18 3 2.455-.783 12.287-39.408 19.5-47.5 6.084-6.825 23.455-10.758 24-12 1.06-2.415-1.435-26.667-3-29-2.573-3.836-6.829 3.107-9.5 4.5-25.106 13.091-65.019 13.561-87-6m41 0c-5.687.198-16.069.491-20 3 18.05.969 36.77 2.769 54.5-1.5-11.494-.74-22.94-1.903-34.5-1.5m-15 8c11.895 5.792 26.995 3.325 39.5 1.5zM457 784c-7.132 27.681-38.44 23.273-35-6.5-.623-1.169-4.942 1.15-6 1.5-17.399 5.757-40.944 20.122-54 33-5.347 5.274-19.72 18.593-16 26-1.193-.529-2.824-.193-3.5-2l-1.5 2c-3.719 5.98-19.648 36.232-16.5 41 30.333 14.639 78.709 19.361 111.5 12 1.753-.393 4.212-1.418 6-2 16.439-5.355 49.865-34.411 55-50.5 2.655-8.317-4.474-26.376-9-33.5-.337-.53.587-3.069-1.5-4-16.498 31.405-45.084 52.044-80.5 56-6.604-1.82-13.74-.808-20.5-2-4.258-.751-1.669-.101-.5-2 4.536.504 8.342 1.108 13 1 17.249-.4 31.049-4.835 46-13 10.939-5.974 23.436-15.486 31-25.5 10.133-13.415 13.434-18.314 0-30.5-5.477-4.969-10.188-7.883-17.5-10-1.271.868-.034 7.19-.5 9m86 1c-13.097 11.892-10.075 15.321 0 28.5 16.236 21.238 46.999 39.251 74 40.5 20.695.957 43.982-4.506 58-20.5-16.034-26.415-40.789-41.555-69-52.5-1.098-.426-8.244-4.9-9-3.5 5.125 28.503-25.45 30.354-34 7.5-.485-1.296-1.677-2.785-2-4-.059-.223 1.987-2.581 1-4.5-7.447-1.586-13.735 3.719-19 8.5m-14 22c-1.38 3.577-7.927 22.157-8 24.5-.5 16.065 31.467 44.109 45 51.5 11.906 6.503 22.162 10.681 36 12 30.382 2.895 66.525-3.839 94-16.5L676.5 837l-8.5 6.5 4.5 1.5c-18.051 13.092-35.873 14.111-57.5 12-31.604-3.085-55.477-20.935-76-44-2.523-4.4-5.514-8.885-6.5-14-1.898 2.264-2.471 5.332-3.5 8m-205.5 76c-.589 3.058-1.582 8.654 1 11 1.698 1.543 40.894 8.695 45 9 18.758 1.393 37.414-1.384 56-2 1.053-1.987 25.125-5.261 25.5-8.5l-2.5-4.5c-39.431 14.642-85.865 9.252-125-5m372 0c-32.764 15.158-69.523 15.509-105 13l-26-11c-1.386-.999-5.533 2.2-5.5 2.5.177 1.589 25.146 13.604 28.5 14.5 20.459 5.469 75.298 2.203 98-5 7.846-2.489 15.709-3.922 10-14"/><path fill="#244550" d="M604 658c-60.406-22.342-128.321-18.404-189 1-.037-.119-1.687-.642-2-1.5 58.088-26.547 132.802-27.339 192-2 .544.859-.785 1.462-1 2.5"/><path fill="#497b88" d="M604 658c-.292 1.406-7.661 14.801-8.5 15-2.018.48-33.467-9.879-40-11-35.535-6.099-72.713-4.929-108 2-4.135.812-24.731 8.49-26 8-.808-.312-5.896-11.06-6.5-13 60.679-19.404 128.594-23.342 189-1"/><path fill="#68a0ac" d="m533 663 8 21c-5.168-.7-10.787-.682-16-1 .287-2.708-6.069-3.843-7.5-4-19.445-2.132-31.445.169-50 5-1.125.293-5.658.946-3.5 3-4.809.803-26.105 7.257-27.5 7-2.331-.43-9.566-15.335-12.5-17.5 32.516-13.202 73.69-16.649 109-13.5"/><path fill="#4f8390" d="m541 684-8-21c20.739 1.85 41.086 7.794 61 13.5-2.78 2.381-8.877 16.815-11.5 17.5-2.065.539-34.757-9.087-41.5-10"/><path fill="#91bbc2" d="M525 683c-22.553-1.373-39.003.328-61 4-2.158-2.054 2.375-2.707 3.5-3 18.555-4.831 30.555-7.132 50-5 1.431.157 7.787 1.292 7.5 4"/><path fill="#81acb4" d="M542 689c.686 4.317 3.036 9.894 0 13-7.031-.997-13.879-1.707-21-2 5.514-1.308-.1-4.626-2.5-6-10.373-5.938-31.263-4.497-35.5 8-8.857 1.17-17.763 3.123-26.5 5-1.723.37-8.514 4.08-9 4-.816-.135-8.654-11.72-8.5-12.5 31.58-13.384 68.816-14.366 103-9.5"/><path fill="#558895" d="M542 702c3.036-3.106.686-8.683 0-13 5.63.801 37.772 6.135 38 10.5.032.617-5.899 10.357-6.5 10.5-1.581.376-26.011-7.222-31.5-8"/><path fill="#9ac0c4" d="M521 700c-13.358-.55-24.821.258-38 2 4.237-12.497 25.127-13.938 35.5-8 2.4 1.374 8.014 4.692 2.5 6"/><path fill="#6caab6" d="m539 706-2 10c-14.664-1.815-30.744-3.162-45.5-2-6.656.524-35.153 8.415-37 8-.977-.22-5.075-6.04-4.5-7.5 28.069-11.482 59.342-12.507 89-8.5"/><path fill="#578c98" d="m537 716 2-10c4.31.582 28.89 5.08 30.5 7 1.27 1.514-3.074 8.708-4 9-1.389.439-23.689-5.405-28.5-6"/><path fill="#4b7c86" d="M592 782c-2.35 2.446-11.951 4.104-15 4l-10-58c4.338-7.205 8.008-14.915 14-21l8 32.5c1.68 12.628.634 25.326 1 38 .053 1.826-1.001 4.937 2 4.5"/><path fill="#7eaaab" d="M592 782c-3.001.437-1.947-2.674-2-4.5-.366-12.674.68-25.372-1-38l-8-32.5c3.707-.209 8.082 22.468 9 26.5 2.586 11.359 7.232 28.559 5 42-.301 1.813-1.574 5.016-3 6.5"/><path fill="#50818c" d="M452 727c-3.423 13.868-.33 35.042-4 48-2.63 9.286-12.16 13.694-20 7l4-58c1.604-5.318 1.042-12.416 6.5-16 6.407 4.943 9.368 12.471 13.5 19"/><path fill="#6facb9" d="m535 720-3 17c-10.955-.439-22.511-.25-33.5 0-5.323.121-28.28 3.958-31 3-.844-.297-10.854-13.678-10.5-14.5 25.891-8.198 51.345-9.094 78-5.5"/><path fill="#568b99" d="m532 737 3-17c3.793.511 26.187 3.745 27 6.5-10.321 19.973-14.187 11.133-30 10.5"/><path fill="#82adb1" d="M428 782c-.128-.109-2.182.242-3-1.5-4.825-10.27 3.488-44.86 7-56.5z"/><path fill="#224e5c" d="M448 775c3.67-12.958.577-34.132 4-48 1.81 2.86 8.341 6.605 8 11.5-.086 1.242-6.717 14.214-7 16-.61 3.858 1.596 13.935 0 21-.056.249-1.393 1.733-1.5 2.5z"/><path fill="#1f4b59" d="M577 786c-6.041-.206-9.452-2.071-13-6.5.363-12.254-.105-24.809-1-37-.052-.714-3.139-4.38-3-6 .172-2.009 6.088-6.985 7-8.5z"/><path fill="#82bcc2" d="M503.5 741c11.56-.403 23.006.76 34.5 1.5-17.73 4.269-36.45 2.469-54.5 1.5 3.931-2.509 14.313-2.802 20-3"/><path fill="#9bc9cb" d="m488.5 749 39.5 1.5c-12.505 1.825-27.605 4.292-39.5-1.5"/><path fill="#a0cbd3" d="M475 785c1.097 1.514.92 2.296 1 4-5.446 6.835-12.449-3.338-19-5 .466-1.81-.771-8.132.5-9 7.312 2.117 12.023 5.031 17.5 10"/><path fill="#c9eaee" d="M561 781c-3.292.189-11.429 2.091-9 7-5.448 2.553-5.342 6.599-10 4 .513-2.219 1.018-4.694 1-7 5.265-4.781 11.553-10.086 19-8.5.987 1.919-1.059 4.277-1 4.5"/><path fill="#bce0e6" d="M457 784c6.551 1.662 13.554 11.835 19 5 .099 2.112.374 6.209 0 8-1.017 4.872-5.368 9.357-7 14-5.842 6.36-12.338 12.931-18.5 19-4.923 4.849-10.302 1.865-6.5 11-14.951 8.165-28.751 12.6-46 13 2.842-1.803 1.003-3.782 1-7 10.585-.053 21.412 1.293 30-6.5-24.07 3.625-53.135 4.364-72-13 6.517-7.059 12.681-14.216 20-20.5 4.694-4.03 10.37-8.58 15.5-12 6.947-4.631 22.258-8.838 23.5-16 1.058-.35 5.377-2.669 6-1.5-3.44 29.773 27.868 34.181 35 6.5"/><path fill="#b5dce3" d="m606 781-2 2c-.57-.243-3.724-1.332-4-.5 9.948 17.3 22.769 39.31 28 58.5-19.661 3.514-36.051.925-54-8-12.486-8.111-27.836-21.658-32-36.5-.468-1.668-1.54 2.16 0-4.5 4.658 2.599 4.552-1.447 10-4 3.131-1.467 7.641-1.88 11-3 8.55 22.854 39.125 21.003 34-7.5.756-1.4 7.902 3.074 9 3.5"/><path fill="#d6f4f7" d="M377 807c-5.871-2.743-14.036 14.746-15 5 13.056-12.878 36.601-27.243 54-33-1.242 7.162-16.553 11.369-23.5 16-5.13 3.42-10.806 7.97-15.5 12"/><path fill="#5e9cab" d="M561 781c.323 1.215 1.515 2.704 2 4-3.359 1.12-7.869 1.533-11 3-2.429-4.909 5.708-6.811 9-7"/><path fill="#add2da" d="M617 854c-1.377-9.486 13.788-4.6 17.5-8 4.809-4.405-4.233-1.185-5.5-1-1.307-1.461-.67-2.789-1-4 11.484-2.052 24.669-6.458 34-13.5-7.25-8.238-14.715-16.841-23.5-23.5-6.813-5.164-27.082-17.838-34.5-21l2-2c28.211 10.945 52.966 26.085 69 52.5-14.018 15.994-37.305 21.457-58 20.5"/><path fill="#57879a" d="M604 783c7.418 3.162 27.687 15.836 34.5 21 8.785 6.659 16.25 15.262 23.5 23.5-9.331 7.042-22.516 11.448-34 13.5-5.231-19.19-18.052-41.2-28-58.5.276-.832 3.43.257 4 .5"/><path fill="#6d9ba9" d="M444 841c-3.802-9.135 1.577-6.151 6.5-11 6.162-6.069 12.658-12.64 18.5-19 2.219-2.416 12.581-10.529 7-14 .374-1.791.099-5.888 0-8-.08-1.704.097-2.486-1-4 13.434 12.186 10.133 17.085 0 30.5-7.564 10.014-20.061 19.526-31 25.5"/><path fill="#a4cdd3" d="M542 792c-1.54 6.66-.468 2.832 0 4.5 4.164 14.842 19.514 28.389 32 36.5 20.957 13.613 29.876 15.676 55 12 1.267-.185 10.309-3.405 5.5 1-3.712 3.4-18.877-1.486-17.5 8-27.001-1.249-57.764-19.262-74-40.5-10.075-13.179-13.097-16.608 0-28.5.018 2.306-.487 4.781-1 7"/><path fill="#376476" d="M469 811c1.632-4.643 5.983-9.128 7-14 5.581 3.471-4.781 11.584-7 14"/><path fill="#d5f0f3" d="M539 813c8.37 14.595 21.284 27.845 36.5 36 10.292 5.516 28.912 13.584 39.5 8 21.627 2.111 39.449 1.092 57.5-12l-4.5-1.5 8.5-6.5 19.5 41.5c-27.475 12.661-63.618 19.395-94 16.5l5-4c.434.496 1.187.726 1.5 2 15.354 1.676 29.656-1.476 44.5-4 13.698-2.33 26.393-5.058 39.5-10l1.5-2.5-18.5-31.5c-9.495 10.132-23.231 14.187-36.5 16-12.79 1.748-30.27 2.297-43 0-8.559-1.544-19.694-7.284-27-12-15.731-10.154-26.267-23.989-36-39.5-1.227-1.956-1.148-3.001-4-2.5 1.029-2.668 1.602-5.736 3.5-8 .986 5.115 3.977 9.6 6.5 14"/><path fill="#c1e9ee" d="M488 805c-6.768 17.616-25.637 37.057-42 46-18.038 9.859-37.679 11.388-58 10-.221-1.399 2-.767 2-1.5s-2.221-.101-2-1.5c4.554.103 13.425-.489 18-1 35.416-3.956 64.002-24.595 80.5-56 2.087.931 1.163 3.47 1.5 4"/><path fill="#4b8096" d="m442 889-5-1.5c10.091-9.845 7.328-23.725 9-36.5 16.363-8.943 35.232-28.384 42-46 4.526 7.124 11.655 25.183 9 33.5-5.135 16.089-38.561 45.145-55 50.5"/><path fill="#e1f6f8" d="M377 807c-7.319 6.284-13.483 13.441-20 20.5 18.865 17.364 47.93 16.625 72 13-8.588 7.793-19.415 6.447-30 6.5-8.015.04-21.205-6.736-16 6-18.663-2.689-22.348-8.5-37-15-3.72-7.407 10.653-20.726 16-26 .964 9.746 9.129-7.743 15-5"/><path fill="#add4db" d="M569 849c-4.09 13.537 5.9 24.645 10 36.5l-13-2.5c-13.533-7.391-45.5-35.435-45-51.5.073-2.343 6.62-20.923 8-24.5 2.852-.501 2.773.544 4 2.5 9.733 15.511 20.269 29.346 36 39.5"/><path fill="#438ea8" d="M615 857c-10.588 5.584-29.208-2.484-39.5-8-15.216-8.155-28.13-21.405-36.5-36 20.523 23.065 44.396 40.915 76 44"/><path fill="#55828d" d="M688 847c-2.766.49-2.839-.517-4-2.5-6.12-10.449-12.249-20.478-19-30.5 11.503 11.203 16.128 18.615 23 33"/><path fill="#eaf8fa" d="M628 841c.33 1.211-.307 2.539 1 4-25.124 3.676-34.043 1.613-55-12 17.949 8.925 34.339 11.514 54 8"/><path fill="#2b677e" d="M346 838c14.652 6.5 18.337 12.311 37 15 .639.092 1.354-.072 2 0-1.169 1.899-3.758 1.249.5 2 6.76 1.192 13.896.18 20.5 2-4.575.511-13.446 1.103-18 1-17.19-.39-36.294-5.594-47-20l1.5-2c.676 1.807 2.307 1.471 3.5 2"/><path fill="#d1eef2" d="M388 858c-.221 1.399 2 .767 2 1.5s-2.221.101-2 1.5c-3.044-.208-5.993-.584-9-1-13.619-1.883-24.125-6.441-35.5-14-3.148 3.673-18.814 28.996-17.5 31.5 7.331 1.106 13.524 7.467 20.5 8.5 2.434.36 10.402-1.042 14-1 .425.005 1.257 3.472 6.5-1-.336 1.218-2.36 3.676-2 4.5l2.5 1.5 68.5 1c-32.791 7.361-81.167 2.639-111.5-12-3.148-4.768 12.781-35.02 16.5-41 10.706 14.406 29.81 19.61 47 20"/><path fill="#c7eaf0" d="M399 847c.003 3.218 1.842 5.197-1 7-4.658.108-8.464-.496-13-1-.646-.072-1.361.092-2 0-5.205-12.736 7.985-5.96 16-6"/><path fill="#50849b" d="M653 889c-3.007-10.138-6.856-19.972-14-28 13.269-1.813 27.005-5.868 36.5-16l18.5 31.5-1.5 2.5c-13.107 4.942-25.802 7.67-39.5 10"/><path fill="#b4dfe7" d="M379 860c-4.831 6.963-9.741 15.82-12 24-5.243 4.472-6.075 1.005-6.5 1-3.598-.042-11.566 1.36-14 1-6.976-1.033-13.169-7.394-20.5-8.5-1.314-2.504 14.352-27.827 17.5-31.5 11.375 7.559 21.881 12.117 35.5 14"/><path fill="#c7f0f7" d="M596 861c4.393 4.783 8.687 27.356 11 30l-5 4c-13.838-1.319-24.094-5.497-36-12l13 2.5c-4.1-11.855-14.09-22.963-10-36.5 7.306 4.716 18.441 10.456 27 12"/><path fill="#83b0be" d="M442 889c-1.788.582-4.247 1.607-6 2l-68.5-1-2.5-1.5c-.36-.824 1.664-3.282 2-4.5 2.259-8.18 7.169-17.037 12-24 3.007.416 5.956.792 9 1 20.321 1.388 39.962-.141 58-10-1.672 12.775 1.091 26.655-9 36.5z"/><path fill="#82afbd" d="M639 861c7.144 8.028 10.993 17.862 14 28-14.844 2.524-29.146 5.676-44.5 4-.313-1.274-1.066-1.504-1.5-2-2.313-2.644-6.607-25.217-11-30 12.73 2.297 30.21 1.748 43 0"/><path fill="#1f4957" d="M323.5 883c39.135 14.252 85.569 19.642 125 5l2.5 4.5c-.375 3.239-24.447 6.513-25.5 8.5-18.586.616-37.242 3.393-56 2-4.106-.305-43.302-7.457-45-9-2.582-2.346-1.589-7.942-1-11"/><path fill="#214b5a" d="M695.5 883c5.709 10.078-2.154 11.511-10 14-22.702 7.203-77.541 10.469-98 5-3.354-.896-28.323-12.911-28.5-14.5-.033-.3 4.114-3.499 5.5-2.5l26 11c35.477 2.509 72.236 2.158 105-13"/></svg>