<svg xmlns="http://www.w3.org/2000/svg" width="1024" height="1024"><defs><linearGradient id="a" x1="353.976" x2="683.8" y1="258.115" y2="575.889" gradientUnits="userSpaceOnUse"><stop offset="8.079%" style="stop-color:#edf7fa"/><stop offset="100%" style="stop-color:#5c849c"/></linearGradient></defs><defs><linearGradient id="b" x1="473.042" x2="569.422" y1="331.714" y2="559.134" gradientUnits="userSpaceOnUse"><stop offset="0%" style="stop-color:#1ea1c7"/><stop offset="100%" style="stop-color:#0f8ab3"/></linearGradient></defs><defs><linearGradient id="c" x1="414.964" x2="620.995" y1="321.947" y2="540.009" gradientUnits="userSpaceOnUse"><stop offset="0%" style="stop-color:#52a1ba"/><stop offset="22%" style="stop-color:#208aaf"/><stop offset="63.333%" style="stop-color:#16b9e1"/><stop offset="100%" style="stop-color:#6dddfb"/></linearGradient></defs><defs><linearGradient id="d" x1="247.916" x2="258.501" y1="452.511" y2="552.955" gradientUnits="userSpaceOnUse"><stop offset="0%" style="stop-color:#517d8d"/><stop offset="100%" style="stop-color:#284c5d"/></linearGradient></defs><defs><linearGradient id="e" x1="776.971" x2="765.761" y1="453.035" y2="553.411" gradientUnits="userSpaceOnUse"><stop offset="0%" style="stop-color:#4d7888"/><stop offset="100%" style="stop-color:#274b5c"/></linearGradient></defs><defs><linearGradient id="f" x1="619.82" x2="440.192" y1="734.65" y2="769.622" gradientUnits="userSpaceOnUse"><stop offset="0%" style="stop-color:#55879a"/><stop offset="38.251%" style="stop-color:#6ea4b6"/><stop offset="100%" style="stop-color:#ecf8f9"/></linearGradient></defs><path fill="#53b5bc" d="M902 81c-6.023-3.802-2.184 10.983-3 15.5-1.871 10.363-8.96 22.241-20 24.5-11.016 2.254-21.001-4.62-27-13l.5-6c34.689 34.896 61.137-28.752 22-35-2.104-.336-1.273 2.027-2 2-2.525-.095.271-2.478-5.5-1l-1-1c14.24-3.991 28.887.273 36 14"/><path fill="#37a1af" d="M170 120c-.02.636-.137 1.523 0 2-3.652-3.314-7.202-.553-5 4-4.886-2.954-5.102-.031-6 0-15.909.556-35.56 1.769-41-18.5-13.788-51.369 63.97-54.567 60-8-.609 7.145-7.833 15.196-8 20.5m-23-50c-9.905-1.308-18.67 2.826-24 12-5.639 9.706-4.71 12.28-2 21 3.139 10.101 3.669 4.85 4.5 6 1.636 2.264.003 2.882 2.5 5 7.908 6.707 13.358 9.128 24.5 7 19.128-3.653 25.6-45.31 3-52-1.119-.331-8.933-2.553-8.5 1"/><path fill="#3492a1" d="m866 67 1 1c-18.438 4.722-26.312 24.2-15 40 5.999 8.38 15.984 15.254 27 13 1.426 6.869 11.626-4.512 15-2-3.644 2.844-8.92 6.328-13.5 7-6.145.902-17.15-2.962-19.5 0 .184-1.164-1.003-.929-1-1 .251-5.482-3.707-4.801-7-9-14.166-18.064-10.225-42.49 13-49"/><path fill="#aed8e1" d="M852 108c-11.312-15.8-3.438-35.278 15-40 5.771-1.478 2.975.905 5.5 1 .727.027-.104-2.336 2-2 39.137 6.248 12.689 69.896-22 35z"/><path fill="#58b7be" d="M128 114c3.166-5.769 7.413.069 11.5 0 18.088-.306 28.86-16.642 21.5-33-3.3-7.333-5.887-9.929-14-11-.433-3.553 7.381-1.331 8.5-1 22.6 6.69 16.128 48.347-3 52-11.142 2.128-16.592-.293-24.5-7"/><path fill="#d5f3f7" d="M147 70c8.113 1.071 10.7 3.667 14 11-1.465 2.963-1.286 1.772-3 .5-8.222-6.101-10.015-9.515-21-3.5-3.745-7.52-8.475 3.876-14 4 5.33-9.174 14.095-13.308 24-12"/><path fill="#e2f8fa" d="M137 78c-10.198 5.585-10.355 16.411-16 25-2.71-8.72-3.639-11.294 2-21 5.525-.124 10.255-11.52 14-4"/><path fill="#b2dae4" d="M161 81c7.36 16.358-3.412 32.694-21.5 33-4.087.069-8.334-5.769-11.5 0-2.497-2.118-.864-2.736-2.5-5-.831-1.15-1.361 4.101-4.5-6 5.645-8.589 5.802-19.415 16-25 10.985-6.015 12.778-2.601 21 3.5 1.714 1.272 1.535 2.463 3-.5"/><path fill="#3eaab5" d="M902 81c7.195 13.884 4.281 28.414-8 38-3.374-2.512-13.574 8.869-15 2 11.04-2.259 18.129-14.137 20-24.5.816-4.517-3.023-19.302 3-15.5"/><path fill="#b4dde8" d="M860 125c-.143.745-.656 1.318-1 2l-7 2.5L724 290c-1.624-3.117-6.421-5.624-8-11-.107-.363.05-3.4-1-4.5 6.222-7.742 12.492-15.5 19-23 15.64-18.023 84.887-81.259 90.5-95.5.685-1.737 1.493-4.372-1.5-4 10.55-10.927 21.805-22.402 30-35v-1c3.293 4.199 7.251 3.518 7 9"/><path fill="#116a87" d="M823 152c-14.982 15.518-31.318 30.176-47 45-2.651 2.506-6.501 4.669-9 7 6.747-10.462 16.492-18.145 25-27 19.751-20.557 39.155-41.573 61-60-8.195 12.598-19.45 24.073-30 35"/><path fill="#bae1eb" d="M170 122c.857 2.994 36.85 40.837 42 46-2.67 1.219-2.089 1.417-1 3.5 2.908 5.563 15.258 19.8 20 25 24.139 26.466 53.987 50.438 78 77.5-2.971 5.125-5.937 10.246-9.5 15L165 126c-2.202-4.553 1.348-7.314 5-4"/><path fill="#1a6379" d="M333 246c-1.613 1.983-5.433 9.856-7 12-3.788.38-19.993-11.607-24.5-14-.681-.362-5.815-2.631-3.5 1-3.344-3.093-8.624-5.908-12-9-24.193-22.161-51.024-44.967-74-68-5.15-5.163-41.143-43.006-42-46-.137-.477-.02-1.364 0-2 36.091 34.4 70.78 70.625 110.5 101 5.183 3.964 42.246 32.201 45 32 1.623-.119 5.068-6.449 7.5-7"/><path fill="#5498ac" d="m165 126 134.5 163c3.563-4.754 6.529-9.875 9.5-15 1.629-2.811 2.502-3.474 4-7 .076-.18 2.932-1.716 3-2.5.251-2.893-14.802-16.543-18-19.5-2.315-3.631 2.819-1.362 3.5-1 4.507 2.393 20.712 14.38 24.5 14-35.077 47.989-55.522 90.293-60 151h-13c-.494-2.073.761-12.786 1-16 1.87-25.133 8.98-50.292 17-74 5.35-.241 9.326 2.456 14 1.5-38.924-62.816-75.73-129.709-122-187.5-1.707-2.132-3.924-3.848-4-7 .898-.031 1.114-2.954 6 0"/><path fill="#0f3a4d" d="M861 126c-33.537 61.793-79.997 120.815-107 186-.971 2.344-1.718 4.791-3 7-.33.023-.678-.048-1 0-3.032.447-9.916 5.663-14 6-.041-.104-.595-1.011-1-2 3.594-2.175 5.771-5.604 8-9 14.077-21.448 26.03-48.838 40-71.5 22.824-37.026 56.959-77.718 76-115.5.344-.682.857-1.255 1-2-.003.071 1.184-.164 1 1"/><path fill="#5590a5" d="M859 127c-19.041 37.782-53.176 78.474-76 115.5-13.97 22.662-25.923 50.052-40 71.5-13.257-1.808-14.03-14.46-19-24l128-160.5z"/><path fill="#124658" d="M271 319c-12.328.555-29.905 6.477-39 15 .82-1.774 2.114-3.915 2-6 11.645-6.458 20.834-13.91 35-16.5-31.833-61.64-69.204-119.82-106-178.5 46.27 57.791 83.076 124.684 122 187.5-4.674.956-8.65-1.741-14-1.5"/><path fill="#dff3f4" d="M716 279h-1l-6-13.5 67-68.5c15.682-14.824 32.018-29.482 47-45 2.993-.372 2.185 2.263 1.5 4-5.613 14.241-74.86 77.477-90.5 95.5-6.508 7.5-12.778 15.258-19 23 1.05 1.1.893 4.137 1 4.5"/><path fill="#def4f8" d="M286 236c-3.161 1.76-1.232 3.725 0 5.5 6.115 8.806 19.736 17.086 27 25.5-1.498 3.526-2.371 4.189-4 7-24.013-27.062-53.861-51.034-78-77.5-4.742-5.2-17.092-19.437-20-25-1.089-2.083-1.67-2.281 1-3.5 22.976 23.033 49.807 45.839 74 68"/><path fill="#71c0cd" d="m532 174-2 5c-58.894-4.724-118.668 12.87-166.5 47-6.121 4.367-35.047 31.754-37.5 32 1.567-2.144 5.387-10.017 7-12 43.251-53.168 133.117-77.107 199-72"/><path fill="#5fa5b4" d="M668 228c5.798 5.294 25.139 22.615 6 11-52.633-31.941-77.238-54.645-144-60l2-5c46.536 3.608 101.171 22.197 136 54"/><path fill="#10556c" d="M792 177c-8.508 8.855-18.253 16.538-25 27-16.085 15.007-31.88 30.491-47.5 46l4-9c-8.986 6.697-16.884 11.594-27.5 15-2.689-.757.216-3.534 0-4 34.989-21.069 65.225-48.464 96-75"/><path fill="url(#a)" d="M530 179c66.762 5.355 91.367 28.059 144 60l20.5 20c1.59-.545 1.34-2.949 1.5-3 10.616-3.406 18.514-8.303 27.5-15l-4 9c15.62-15.509 31.415-30.993 47.5-46 2.499-2.331 6.349-4.494 9-7l-67 68.5 6 13.5c-4.222 2.751-6.678-10.167-12-9.5 13.062 14.478 21.24 31.857 29 49.5-4.208.211-3.578-1.508-3 2.5.97 6.723 8.811 21.672 11 30 45.591 173.463-73.11 322.331-253 308.5-31.211-2.4-49.481-11.649-77.5-19-1.821-.478-5.599-1.453-5.5 2-11.93-5.094-22.36-8.482-34-16-21.793-14.076-51.503-43.476-66-65-29.125-43.244-41.818-101.241-38-153 4.478-60.707 24.923-103.011 60-151 2.453-.246 31.379-27.633 37.5-32 47.832-34.13 107.606-51.724 166.5-47m-154.5 56c-12.458 3.111-2.348 26.464 10 15 .996 4.094-4.862 4.852-7.5 5.5 15.682 4.224 16.847-25.331-2.5-20.5M483 247c-74.197 9.665-142.301 74.713-154 149-4.99 31.685-2.064 56.839 8 87 6.996 20.968 13.559 32.612 27 50 20.167 26.09 48.684 48.932 80 60l-6 3.5c130.55 56.02 296.949-62.984 251-207.5-14.76-71.252-76.541-131.687-149-142-20.174-2.871-36.942-2.613-57 0m219 128c4.093 17.243 5.107 35.458 7.5 53 1.687-17.988-2.184-35.978-7.5-53-8.001-33.712-28.977-69.659-54.5-93-3.062-2.8-28.19-22.427-30-22-.933.22-1.908 1.714-1 3 1.153 1.634 26.632 18.871 32 24 24.237 23.158 43.52 56.044 53.5 88m-352-81c3.177 3.069 7.575 4.588 10.5 8 1.443-3.812 9.983-14.703 9.5-18-1.947-13.293-44.373-13.541-20 10m-38.5 34c-1.524.234-6.083 3.595-6.5 5.5-2.184 9.3 16.551 16.61 19 7 1.983-7.782-5.264-13.612-12.5-12.5m-28 94c-10.316 2.579-9.454 19.392-1 24 23.962 13.062 28.899-30.975 1-24m446 2c-13.798 1.162-17.312 19.02-5 25 24.09 11.702 28.973-27.019 5-25" style="fill:url(#a)"/>/&gt;<path fill="#337b90" d="M696 252c.216.466-2.689 3.243 0 4-.16.051.09 2.455-1.5 3L674 239c19.139 11.615-.202-5.706-6-11 4.495 3.725 26.392 20.533 28 24"/><path fill="#7ce0f5" d="M375.5 235c19.347-4.831 18.182 24.724 2.5 20.5 2.638-.648 8.496-1.406 7.5-5.5-12.348 11.464-22.458-11.889-10-15"/><path fill="#96cedf" d="M298 245c3.198 2.957 18.251 16.607 18 19.5-.068.784-2.924 2.32-3 2.5-7.264-8.414-20.885-16.694-27-25.5-1.232-1.775-3.161-3.74 0-5.5 3.376 3.092 8.656 5.907 12 9"/><path fill="#003458" d="M540 247c3.667 3.2 3.065 3.484 1 8-19.14-3.209-38.73-3.913-58-1v-7c20.058-2.613 36.826-2.871 57 0"/><path fill="#044a71" d="M483 247v7c-76.034 11.495-141.411 78.129-149 155-5.264-5.525 4.345-10.571-5-13 11.699-74.287 79.803-139.335 154-149"/><path fill="#00233b" d="M689 389c4.049 19.546 5.221 36.986 3 57-.711-89.667-59.399-175.644-151-191 2.065-4.516 2.667-4.8-1-8 72.459 10.313 134.24 70.748 149 142"/><path fill="url(#b)" d="M541 255c91.601 15.356 150.289 101.333 151 191-2.84 25.596-13.717 54.471-29 75 1.657-3.907 5.418-9.898-1-8 80.024-132.958-72.738-294.686-212.5-239-44.74 17.826-95.761 69.714-99.5 118.5-.886 11.566.424 23.18 2.5 34.5.346-31.583 17.633-63.972 42.5-83-.461 13.041 3.799 29.539 12 40-25.077 38.553-3.842 103.152 31.5 129 43.59 31.88 101.409 28.786 143.5-3 5.42 2.228 10.365 2.086 16 1-21.949 25.807-29.673 37.282-57 60-11.096 9.225-23.274 17.124-33 28-53.729-1.576-107.963-27.687-140-71-10.447-14.124-19.253-30.335-25-47-8.361-24.246-11.543-46.244-9-72 7.589-76.871 72.966-143.505 149-155 19.27-2.913 38.86-2.209 58 1" style="fill:url(#b)"/>/&gt;<path fill="#bed9e3" d="M702 375c-9.98-31.956-29.263-64.842-53.5-88-5.368-5.129-30.847-22.366-32-24-.908-1.286.067-2.78 1-3 1.81-.427 26.938 19.2 30 22 25.523 23.341 46.499 59.288 54.5 93"/><path fill="url(#c)" d="M662 513c-25.071 41.654-69.515 72.196-117 82-10.56 2.18-17.974 3.766-29 4-2.641.056-5.36.077-8 0 9.726-10.876 21.904-18.775 33-28l.5 4c30.755-17.514 95.961-26.668 89.5-74.5-1.247-9.233-8.425-19.797-18-21.5.044-.328-.048-.674 0-1 .981-6.644 7.693-19.093 9-28.5 10.949-78.816-57.834-142.315-135-129.5-27.307-44.518-90.179-27.561-92 24-24.867 19.028-42.154 51.417-42.5 83-2.076-11.32-3.386-22.934-2.5-34.5 3.739-48.786 54.76-100.674 99.5-118.5C589.262 218.314 742.024 380.042 662 513" style="fill:url(#c)"/>/&gt;<path fill="#2a6e83" d="M715 279h1c1.579 5.376 6.376 7.883 8 11 4.97 9.54 5.743 22.192 19 24-2.229 3.396-4.406 6.825-8 9-.244-.596-2.72-3.363-3-4-7.76-17.643-15.938-35.022-29-49.5 5.322-.667 7.778 12.251 12 9.5"/><path fill="#ace9f4" d="M370 284c-6.45-2.262-14.826 6.267-20 10-24.373-23.541 18.053-23.293 20-10"/><path fill="#97e3f4" d="M370 284c.483 3.297-8.057 14.188-9.5 18-2.925-3.412-7.323-4.931-10.5-8 5.174-3.733 13.55-12.262 20-10"/><path fill="#fefefe" d="M487 320c8.476 13.818 10.692 29.168 7 45-5.338 22.892-25.457 38.942-49 39-14.862-3.669-27.815-7.009-38-20-8.201-10.461-12.461-26.959-12-40 1.821-51.561 64.693-68.518 92-24"/><path fill="#2c6d81" d="m822 352-2 .5c2.218 2.167 3.229 2.632 0 3.5-2.064-3.029-19.047-17.695-22-13.5 7.769 19.313 10.618 41.665 11 62.5.147 8.018-.026 25.98-1 33.5-.279 2.157-.105 3.66-3 3.5v-43c-1.879-34.774-7.573-83.173-54-80 1.282-2.209 2.029-4.656 3-7 11.059 4.115 21.998 7.392 32.5 13 9.354 4.995 29.56 18.802 35.5 27"/><path fill="#005382" d="M613 478c-15.442-15.238-50.88-5.277-43 19.5 1.151 3.62 8.382 11.013 12 12.5-42.091 31.786-99.91 34.88-143.5 3-35.342-25.848-56.577-90.447-31.5-129 10.185 12.991 23.138 16.331 38 20 2.754.68 5.192 1.153 8 1.5-22.044 59.9 47.878 102.578 96.5 65.5 50.714-38.673.02-112.951-55.5-106 3.692-15.832 1.476-31.182-7-45 77.166-12.815 145.949 50.684 135 129.5-1.307 9.407-8.019 21.856-9 28.5"/><path fill="#8dc3ce" d="M271 319c-8.02 23.708-15.13 48.867-17 74-12.119 1.067-25.48-2.638-37 2 2.605-22.833 5.23-39.867 15-61 9.095-8.523 26.672-14.445 39-15"/><path fill="#85b8d3" d="M732 319c.28.637 2.756 3.404 3 4 .405.989.959 1.896 1 2 11.18 28.255 17.04 60.648 18 91 .262 8.281.398 17.761 0 26-1.012 20.943-4.974 42.008-11 62-23.459 77.834-92.524 136.108-171 154-27.045 6.166-55.294 8.742-83 7l-2-5c179.89 13.831 298.591-135.037 253-308.5-2.189-8.328-10.03-23.277-11-30-.578-4.008-1.208-2.289 3-2.5"/><path fill="#327487" d="M767 392c.8 6.632 1.588 13.326 2 20-1.162 9.411-8.19 2.803-15 4-.96-30.352-6.82-62.745-18-91 4.084-.337 10.968-5.553 14-6 8.24 23.654 13.995 48.076 17 73"/><path fill="#76b4c1" d="M805 399c-3.968.232-.818-5.846-2.5-7-1.464-1.004-31.386-1.212-35.5 0-3.005-24.924-8.76-49.346-17-73 .322-.048.67.023 1 0 46.427-3.173 52.121 45.226 54 80"/><path fill="#227991" d="M234 328c.114 2.085-1.18 4.226-2 6-9.77 21.133-12.395 38.167-15 61-.72 6.312-.788 12.747-2 19-.024-.63-2.854-6.704-3-11-.441-13.007 2.668-25.406 5-38 1.361-7.35 3.734-14.546 4.5-22-11.097 2.742-16.297 8.421-21.5 18l-9 15.5 7-21.5c9.008-14.146 21.96-19.213 36-27"/><path fill="#90e1f1" d="M311.5 328c7.236-1.112 14.483 4.718 12.5 12.5-2.449 9.61-21.184 2.3-19-7 .417-1.905 4.976-5.266 6.5-5.5"/><path fill="#c9ebf3" d="M820 356c11.931 17.509 14.28 62.006 13 83-4.265-7.089-12.929-6.288-21-5.5-.912 1.285-.457 27-1 31.5-1.636.902-3.659 5.418 0 5-2.015 14.278-9.387 38.782-14 53 7.983-38.697 15.962-78.188 12-118-.382-20.835-3.231-43.187-11-62.5 2.953-4.195 19.936 10.471 22 13.5"/><path fill="#c5edf4" d="M217 365c-6.43-1.128-15.747 12.35-20 4 1.053-2.745 1.549-5.329 3-8 5.203-9.579 10.403-15.258 21.5-18-.766 7.454-3.139 14.65-4.5 22"/><path fill="#092d3e" d="M822 352c27.263 37.63 15.249 146.77-10 184.5-16.599 24.804-66.475 34.015-94.5 36.5-20.199 29.256-47.381 52.767-77.5 71.5l-1 20c.685 2.358 12.79-.799 15.5-.5 14.716 1.621 25.052 10.668 27.5 25.5.526 3.189-1.801 11.123-.5 12.5 1.303 1.379 31.615 7.793 36 12 16.317-18.497 33.901-24.292 40.5-50.5 1.347-5.352-2.434-20.42 7.5-16.5 15.314 6.043 23.543 52.706 9.5 64.5 20.638 10.323 35.932 14.595 35 41-.031.883-2.981 3.751-3 4-.454 6.087 2.406 11.341 0 19-1.964 6.253-10.944 11.139-15 16-.952 1.142-1.245 7.516-4.5 10.5-12.11 11.104-47.684 7.254-61-1-4.043-2.506-13.052-13.715-14-14-3.4-1.021-11.105.856-15 0-28.428-6.248-27.537-28.435-47-44-2.883-2.306-9-.411-11.5-7l8.5 5c4.079-.421-3.612-6.544 4.5-1 1.124.768.807 3.452 4 1 .2 1.714 5.453 12.416 8 13.5-1.644-19.599 1.383-44.136 25-47-12.3-6.095-20.285 1.305-28 10.5 1.288-4.234 4.859-6.074 2-8 2.745-2.775 5.314-2.748 9-7 6.604-7.618 6.587-19.889-2-26 7.609-1.812-5.567-7.836-6.5-8-7.039-1.238-17.519 1.959-21.5 8.5-4.461 7.329-5.902 50.852-3 58.5-10.203 31.574-22.494 55.413-48 77-2.037 1.724-4.717 4.788-5 5-7.37 5.511-14.383 9.717-23 13-5.761-3.04-2.461.239-5.5 1-30.229 7.57-59.166 8.865-88 1-1.921-.524-7.295-5.031-9-5-.318.006-3.301 1.968-3.5 2-5.966-2.71-18.969-5.883-23-11-1.91-2.424-1.894-5.749-3-8.5l-1 1.5c-21.138-16.117-43.227-48.537-47-75-1.853-12.994 2.281-48.949-1-56.5-2.323-5.347-14.119-10.533-20-11 7.351-3.388 13.996 2.989 19.5 7.5 4.787-18.48-24.017-10.354-32-3-3.857 3.553-9.502 15.954-8.5 20.5.35 1.59 2.912 1.357 3 1.5 2.03 3.278 2.531 4.718 6 7 11.259 7.407 12.166 3.496 23-2.5-3.026 6.265-9.635 8.552-16 9 8.906 7.288 12.312 18.671 12 30l5.5-7.5-2 9c3.249-.223 5.352-2.326 8.5-3-26.176 8.923-27.422 44.336-55.5 49-3.639.604-15.221-1.188-16-1-1.346.326-8.478 10.886-11 13-14.663 12.295-55.809 15.715-67.5-1.5-1.116-1.644-1.387-7.221-2-8-3.294-4.187-13.299-9.677-15-14-2.921-7.423 1.703-12.65 1-18-.128-.976-3.855-5.99-4-7-3.242-22.595 19.392-30.718 35-40-10.567-19.203-7.616-52.236 12.5-63.5 4.15 1.199 3.22 16.322 4.5 20.5.925 3.018 6.908 13.144 9 16 2.344 3.2 30.314 30.064 32.5 30.5.653.13 6.112-1.586 7.5-2v1c-1.241.51-2.017 1.049-3 2-.44.425-3.079 1.936-3 2.5 10.681 7.3 23.85 15.074 23.5 29.5-3.853-9.185-8.451-21.125-19.5-23.5 10.936 18.851 13.011 42.26 1 61 17.935-.234 20.843-21.842 19.5-36.5 4.558 13.372.431 28.853-11.5 36.5.892 1.45 5.527-.081 7-.5 14.881-4.235 26.557-19.314 26-35-.988-1.786-1.624-2.107 1-2 .477 5.036.104 10.539-1 15.5 4.559-3.138 5.118-14.729 5-20.5h2c-.155 3.015-.181 5.995-.5 9 21.175-12.065-1.819-46.787-18.5-46-.141-.475-1.859-1.984-2-2 3.062-5.008.206-11.573 2-18.5 4.51-17.416 25.461-21.953 41-20l-1-20c-30.06-18.768-57.65-42.332-76.5-72.5-24.142.248-74.161-10.963-90.5-29.5-16.85-19.117-27.76-77.063-29-102.5l2-1.5.5 8.5 1.5-11c.22 5.757.938 12.334 2 18-.037 35.934 16.127 79.768 48 98 16.756 9.585 30.229 14.245 50 16 4.946.439 13.721-1.811 16.5 2 4.157-2.46-4.423-6.387-.5-8 14.497 21.524 44.207 50.924 66 65 1.996 2.295-2.326 5.366-1.5 7 .859 1.699 29.061 17.168 33 19 57.784 26.878 113.026 29.051 174.5 14 38.754-9.488 76.081-27.822 105.5-55 6.794-6.276 33.413-41.021 36-42 1.356-.513 13.911.472 17-1 .879-.419-.172-1.57 1.5-3 1.504 2.19 9.443 1.316 11.5 1 7.033-1.081 30.708-8.011 34.5-13.5 12.563-18.187 21.483-86.103 23-109.5.043-.657-.02-1.34 0-2 2.895.16 2.721-1.343 3-3.5.974-7.52 1.147-25.482 1-33.5 3.962 39.812-4.017 79.303-12 118-2.901 8.942-7.949 18.736-10.5 28 32.948-20.261 44.287-75.702 46.5-112 1.28-20.994-1.069-65.491-13-83 3.229-.868 2.218-1.333 0-3.5zM625 654c-21.018 11.914-48.026 24.179-72 28-51.4 8.192-118.8-2.018-163.5-29l.5 11c-7.591-1.226-2.311 14.285-2 18 1.355 16.177-.255 43.657 7 56.5.857 1.517 8.241 10.938 9.5 10.5 2.613-6.373 8.222-13.999 15.5-15 11.666-1.605 22.591 8.762 21 20.5-.66 4.865-8.002 10.32-8 11 .005 1.593 18.797 20.98 21.5 23.5 29.574 27.573 58.708 38.491 95 14 4.433-2.992 38.014-34.854 38.5-37.5.716-3.897-9.563-8.333-10-15.5h2c.173 3.389 6.739 11.832 9.5 13 10.783 4.563 20.079-7.003 24.5-15.5-.051-.753-3.328-2.861-4-3.5v-1c8.299 4.52 8.44 2.751 14-4 12.097-14.689 2.605-39.027 7.5-57-1.345 2.264-3.686 2.181-5.5 3 7.834-4.531 6.901-13.682 6-22 4.042-4.726 3.294-10.453 4-16.5-3.533 1.319-8.441 6.049-11 7.5m-371-1c-10.314 11.533-17.234 42.261-4 53.5 4.864 4.13 4.863 1.616 10 2.5 20.025 3.445 19.654 5.688 36 16 1.611 5.844-2.46 13.249-2 18.5.081.921 4.755 8.429 5 10 1.598 10.239-5.612 16.69-5 22 .153 1.331 4.113 5.096 4 8-.264 6.774-16.734 19.387-22.5 22.5 32.918-9.293 46.635-46.528 33.5-77-8.05-18.675-28.125-27.307-40-42.5-4.356-5.573-6.802-12.864-11-18.5.742-5.796 1.345-11.582 1-17.5l-2-1c-1.308.877-2.017 2.4-3 3.5m509-1c-2.225 4.296-.012 8.474-1 12.5-9.328 38.003-61.327 46.793-55 97.5 2.2 17.634 21.831 43.306 41 43.5-6.276-1.442-21.82-14.029-23-20-1.405-7.108 3.424-9.861 3-14-.137-1.339-4.618-8.627-5-12-1.635-14.424 4.596-12.023 6-16 .696-1.972-.548-7.018 0-9.5.842-3.814 4.419-11.694 2-11 4.927-4.142 10.233-9.089 16-12 15.389-6.04 23.372 8.506 30-13.5 4.758-15.798.201-36.889-12.5-47.5-2.167-.358-1.197 1.414-1.5 2m-114.5 14c-1.876.203-13.008 2.974-8.5 6.5 2.861 2.238 11.465-6.998 15.5-5.5-.657-1.701-5.556-1.156-7-1m61.5 57c15.065-11.538-6.835-7.584-14.5-2-9.615 7.005-14.62 28.969-16 30-6.966 5.201 4.679-20.244 5.5-21.5 5.343-8.178 12.869-12.868 22-16-24.02-5.285-42.67 28.369-35.5 49.5-8.274-21.709 1.952-39.777 18.5-53.5-25.009 2.069-30.225 36.727-20 55 2.491 4.451 5.761 3.249 6 4 .116.365-3.165 2.545 1.5 6.5.085.072 1.286-1.759 2-1 1.211 1.286 7.122 11.45 9.5 7.5.075-.125-5.024-1.896-1.5-2.5 8.287 6.416 12.876 5.061 22.5 4.5-15.305-18.8-10.618-41.251 2-60-.033-.573-1.42-.712-2-.5m-473-5c-11.239 4.987-26.373 16.719-23 30.5 2.739 11.19 20.779 6.446 29 5.5 7.643-.879 30.53-3.328 36.5-5 13.799-3.865 10.825-22.595 1-30-12.684-9.56-30.068-6.959-43.5-1m519.5-5c-6.476.827-19.193 8.094-21.5 14.5-1.933 5.367-.752 16.173 4.5 19.5 2.258 1.43 41.213 7.785 46 8 12.804.576 23.89 2.814 20.5-14.5-3.529-18.022-33.153-29.587-49.5-27.5M546 808c-12.898 7.47-25.723 6.338-35 11-20.891 1.234-39.423-10.935-54.5-24-6.263-5.427-23.206-26.959-27-29-3.3-1.776-11.037-2.32-17-6-7.127-4.399-13.852-13.449-19-20 12.738 56.912 72.526 97.582 130.5 89 7.559.062 15.807-1.935 23-4 39.415-11.316 73.281-47.833 83-87.5-11.304 9.764-18.513 22.116-32.5 28.5-2.413 1.101-5.714-1.103-6-1-3.178 1.141-33.873 36.266-45.5 43m-123.5-70c-15.411 3.27-9.044 29.615 8 25 13.236-3.584 6.795-28.139-8-25M222 758c-10.101 2.863-5.202 23.06 7.5 25 7.15 1.092 44.535-4.248 51.5-7 9.397-3.713 15.467-11.959 13-22.5-2.291-9.788-8.653-2.084-14.5-1.5-13.992 1.398-22.281 2.678-36 5-5.455.923-17.465-.144-21.5 1m509-9c-5.75 2.664-3.413 13.155-1 17.5 7.483 13.477 56.426 20.478 68.5 14.5 7.094-3.512 12.36-20.447 1.5-22zm0 39c10.909 21.309 55.062 28.356 57-1.5-1.434-.39-2.663-.969-4-1.5-6.646-2.641-23.42-1.945-31.5-3-8.877-1.159-31.346-13.234-21.5 6m-493-3c-11.741 4.091-2.408 15.579 5.5 19 17.358 7.508 39.172.668 47.5-17 1.205-2.556 4.421-7.326-.5-9-2.507-.853-48.04 5.446-52.5 7"/><path fill="#1c5f70" d="M200 361c-1.451 2.671-1.947 5.255-3 8-5.188 13.52-6.786 23.538-8 38-.812 9.667-1.371 19.277-1 29l-1.5 11-.5-8.5-2 1.5c-1.249-25.618.089-63.153 14-85l-7 21.5z"/><path fill="#f4fafb" d="M217 365c-2.332 12.594-5.441 24.993-5 38-1.484 11.479-1.317 23.445-1 35l-2 2.5c-.057-2.497.082-5.016 0-7.5-.169-5.136.93-30.4 0-32.5-.531-1.198-14.763-2.77-15.5-2.5-3.634 1.332-.927 13.801-4.5 9 1.214-14.462 2.812-24.48 8-38 4.253 8.35 13.57-5.128 20-4"/><path fill="#00345a" d="M445 404c23.543-.058 43.662-16.108 49-39 55.52-6.951 106.214 67.327 55.5 106-48.622 37.078-118.544-5.6-96.5-65.5-2.808-.347-5.246-.82-8-1.5"/><path fill="#bed9e3" d="M702 375c5.316 17.022 9.187 35.012 7.5 53-2.393-17.542-3.407-35.757-7.5-53"/><path fill="#eef8fa" d="M444 593c20.789 7.348 44.008 11.031 66 11 21.185-.03 35.953-2.809 56-9 32.417-10.012 83.307-41.706 97-74 15.283-20.529 26.16-49.404 29-75 2.221-20.014 1.049-37.454-3-57 45.949 144.516-120.45 263.52-251 207.5z"/><path fill="#6393a2" d="M805 399v43c-.02.66.043 1.343 0 2l-36 2c.522-11.638.72-22.353 0-34-.412-6.674-1.2-13.368-2-20 4.114-1.212 34.036-1.004 35.5 0 1.682 1.154-1.468 7.232 2.5 7"/><path fill="#6ea0ae" d="M254 393c-.239 3.214-1.494 13.927-1 16 1.269 5.326 4 2.219 4 3.5 0 1.047-3.417-.098-4 1-1.162 2.191-1.125 27.162-1 31.5-10.619-1.309-24.601 3.064-33.5-3l-.5 31c-.64-5.96-1.465-12.022-2-18-1.213-13.563-.482-27.412-1-41 1.212-6.253 1.28-12.688 2-19 11.52-4.638 24.881-.933 37-2"/><path fill="#186881" d="M334 409c-2.543 25.756.639 47.754 9 72l-6 2c-10.064-30.161-12.99-55.315-8-87 9.345 2.429-.264 7.475 5 13"/><path fill="#c8eaf2" d="M209 433c-2.382 1.873-16.61.595-17 1.5-.388.9-1.999 18.087-2 19.5-1.062-5.666-1.78-12.243-2-18-.371-9.723.188-19.333 1-29 3.573 4.801.866-7.668 4.5-9 .737-.27 14.969 1.302 15.5 2.5.93 2.1-.169 27.364 0 32.5"/><path fill="#184255" d="M215 414c.518 13.588-.213 27.437 1 41l-1.5 8-.5-6.5-2 1.5c-.504-6.599-.818-13.377-1-20-.317-11.555-.484-23.521 1-35 .146 4.296 2.976 10.37 3 11"/><path fill="#275464" d="M266 409c-3.818 51.759 8.875 109.756 38 153-3.923 1.613 4.657 5.54.5 8-2.779-3.811-11.554-1.561-16.5-2-24.79-31.9-34.847-82.99-36-123-.125-4.338-.162-29.309 1-31.5.583-1.098 4 .047 4-1 0-1.281-2.731 1.826-4-3.5z"/><path fill="#2f6677" d="M769 446c-.059 1.32.079 2.682 0 4-.632-10.448-6.41-7.702-15-8 .398-8.239.262-17.719 0-26 6.81-1.197 13.838 5.411 15-4 .72 11.647.522 22.362 0 34"/><path fill="#50c6de" d="M283.5 422c27.899-6.975 22.962 37.062-1 24-8.454-4.608-9.316-21.421 1-24m6 7c-12.103.225-11.248 17.366 1 18 3.594-4.922 2.346-10.676 2.5-16.5-1.101-1.511-1.731-1.533-3.5-1.5"/><path fill="#1e96b5" d="M729.5 424c23.973-2.019 19.09 36.702-5 25-12.312-5.98-8.798-23.838 5-25"/><path fill="#21c5e7" d="M289.5 429c1.769-.033 2.399-.011 3.5 1.5-.154 5.824 1.094 11.578-2.5 16.5-12.248-.634-13.103-17.775-1-18"/><path fill="#8ab4c5" d="M211 438c.182 6.623.496 13.401 1 20 2.306 30.208 8.295 67.209 26 92 .116.623-.055 1.354 0 2-31.873-18.232-48.037-62.066-48-98 .001-1.413 1.612-18.6 2-19.5.39-.905 14.618.373 17-1.5.082 2.484-.057 5.003 0 7.5z"/><path fill="#88b0c0" d="M833 439c-2.213 36.298-13.552 91.739-46.5 112 2.551-9.264 7.599-19.058 10.5-28 4.613-14.218 11.985-38.722 14-53 .224-1.59-.194-3.394 0-5 .543-4.5.088-30.215 1-31.5 8.071-.788 16.735-1.589 21 5.5"/><path fill="url(#d)" d="M252 445c1.153 40.01 11.21 91.1 36 123-19.771-1.755-33.244-6.415-50-16-.055-.646.116-1.377 0-2-1.028-5.5-9.677-20.479-12-28.5-4.554-15.723-6.26-32.297-8-48.5l.5-31c8.899 6.064 22.881 1.691 33.5 3" style="fill:url(#d)"/>/&gt;<path fill="#245162" d="M769 450c-1.194 19.824-4.503 38.781-9 58l-17-4c6.026-19.992 9.988-41.057 11-62 8.59.298 14.368-2.448 15 8"/><path fill="url(#e)" d="M805 444c-1.517 23.397-10.437 91.313-23 109.5-3.792 5.489-27.467 12.419-34.5 13.5-2.057.316-9.996 1.19-11.5-1 12.535-10.725 20.329-42.313 24-58 4.497-19.219 7.806-38.176 9-58 .079-1.318-.059-2.68 0-4z" style="fill:url(#e)"/>/&gt;<path fill="#0b212c" d="M216 455c.535 5.978 1.36 12.04 2 18 1.74 16.203 3.446 32.777 8 48.5 2.323 8.021 10.972 23 12 28.5-17.705-24.791-23.694-61.792-26-92l2-1.5.5 6.5z"/><path fill="#70a0b5" d="M811 470c-3.659.418-1.636-4.098 0-5-.194 1.606.224 3.41 0 5"/><path fill="#fefefe" d="M613 478c-.048.326.044.672 0 1-.751 5.596 1.912 11.592 1 16.5-1.367 7.353-13.168 12.17-16 15.5-5.635 1.086-10.58 1.228-16-1-3.618-1.487-10.849-8.88-12-12.5-7.88-24.777 27.558-34.738 43-19.5"/><path fill="#a0ecfe" d="M541 571c27.327-22.718 35.051-34.193 57-60 2.832-3.33 14.633-8.147 16-15.5.912-4.908-1.751-10.904-1-16.5 9.575 1.703 16.753 12.267 18 21.5 6.461 47.832-58.745 56.986-89.5 74.5z"/><path fill="#0e526b" d="m368 528-4 5c-13.441-17.388-20.004-29.032-27-50l6-2c5.747 16.665 14.553 32.876 25 47"/><path fill="#193b4b" d="M760 508c-3.671 15.687-11.465 47.275-24 58-1.672 1.43-.621 2.581-1.5 3-3.089 1.472-15.644.487-17 1-2.587.979-29.206 35.724-36 42-29.419 27.178-66.746 45.512-105.5 55-.333-3.968-.131-7.637-4-9 78.476-17.892 147.541-76.166 171-154z"/><path fill="#03a5d7" d="M663 521c-13.693 32.294-64.583 63.988-97 74-6.153-1.918-21.41 9.228-21 0 47.485-9.804 91.929-40.346 117-82 6.418-1.898 2.657 4.093 1 8"/><path fill="#053b56" d="M368 528c32.037 43.313 86.271 69.424 140 71 2.64.077 5.359.056 8 0l-6 5c-21.992.031-45.211-3.652-66-11-31.316-11.068-59.833-33.91-80-60z"/><path fill="#0073af" d="M566 595c-20.047 6.191-34.815 8.97-56 9l6-5c11.026-.234 18.44-1.82 29-4-.41 9.228 14.847-1.918 21 0"/><path fill="#255263" d="M404 643c27.761 11.853 53.079 19.993 85 22 27.706 1.742 55.955-.834 83-7 3.869 1.363 3.667 5.032 4 9-61.474 15.051-116.716 12.878-174.5-14-3.939-1.832-32.141-17.301-33-19-.826-1.634 3.496-4.705 1.5-7 11.64 7.518 22.07 10.906 34 16"/><path fill="#a8d4e6" d="m487 660 2 5c-31.921-2.007-57.239-10.147-85-22-.099-3.453 3.679-2.478 5.5-2 28.019 7.351 46.289 16.6 77.5 19"/><path fill="#052430" d="M632 663c-.229.268-2.032 1.201-3 2-3.81-1.624-3.853-7.181-4-11 2.559-1.451 7.467-6.181 11-7.5-.706 6.047.042 11.774-4 16.5"/><path fill="#2eb4cb" d="M258 668c-1.212 9.461-4.491 18.591-6 28-8.669-18.331-3.196-24.718 2-43 .983-1.1 1.692-2.623 3-3.5l2 1c.345 5.918-.258 11.704-1 17.5"/><path fill="#9de4ed" d="M747 711c9.786-4.94 17.186-2.221 23-12.5 6.541-11.565 6.01-39.382-7-46.5.303-.586-.667-2.358 1.5-2 12.701 10.611 17.258 31.702 12.5 47.5-6.628 22.006-14.611 7.46-30 13.5"/><path fill="#1eb0c5" d="M747 711c-5.767 2.911-11.073 7.858-16 12-4.284 3.601-10.578 6.387-14 11.5-4.281 6.397-4.388 12.736-6 19.5-.615 2.58-1.426 7.808-4 8-6.327-50.707 45.672-59.497 55-97.5.988-4.026-1.225-8.204 1-12.5 13.01 7.118 13.541 34.935 7 46.5-5.814 10.279-13.214 7.56-23 12.5"/><path fill="#a9e9f1" d="M252 696c2.273 4.806 5.486 8.424 8 13-5.137-.884-5.136 1.63-10-2.5-13.234-11.239-6.314-41.967 4-53.5-5.196 18.282-10.669 24.669-2 43"/><path fill="#527a88" d="m553 682 3 13c-36.478 4.885-92.139 2.009-127-10-7.229-2.49-15.559-6.607-22.5-10-3.167-1.548-15.169-10.785-16.5-11l-.5-11c44.7 26.982 112.1 37.192 163.5 29"/><path fill="#426573" d="M625 654c.147 3.819.19 9.376 4 11-17.047 14.066-46.287 25.369-68 29-1.713.286-3.337.777-5 1l-3-13c23.974-3.821 50.982-16.086 72-28"/><path fill="#20576a" d="M626 685c-18.218 8.224-35.747 17.445-55.5 22l5.5-5c18.812-5.562 40.335-14.165 53.5-29-19.968 16.641-42.256 23.905-67.5 28l-1-7c21.713-3.631 50.953-14.934 68-29 .968-.799 2.771-1.732 3-2 .901 8.318 1.834 17.469-6 22m-236-21c1.331.215 13.333 9.452 16.5 11 6.941 3.393 15.271 7.51 22.5 10 .285 2.482-2.521 6.681-.5 9 1.116 1.28 29.413 7.504 33 8 28.104 3.883 65.757 3.199 91.5 0 .385 8.167-12.075 2.879-15 8-43.831 4.261-69.485-2.179-110.5-12-1.777-.425-3.313-1.27-4.5 1-.653-.055-1.342.026-2 0-3.622-5.407-26.654-12.755-33-17-.311-3.715-5.591-19.226 2-18"/><path fill="#356577" d="M383 737c-.859-.009-1.014.789-2 1-3.148.674-5.251 2.777-8.5 3l2-9-5.5 7.5c.312-11.329-3.094-22.712-12-30 6.365-.448 12.974-2.735 16-9-10.834 5.996-11.741 9.907-23 2.5 46.829-4.826 2.954-58.231-6-7-.088-.143-2.65.09-3-1.5-1.002-4.546 4.643-16.947 8.5-20.5 7.983-7.354 36.787-15.48 32 3-5.504-4.511-12.149-10.888-19.5-7.5 5.881.467 17.677 5.653 20 11 3.281 7.551-.853 43.506 1 56.5"/><path fill="#1c657f" d="M648.5 666c1.444-.156 6.343-.701 7 1-4.035-1.498-12.639 7.738-15.5 5.5-4.508-3.526 6.624-6.297 8.5-6.5"/><path fill="#0d8fab" d="M309 729c-3.626-2.147-4.323 2.291-6.5 2-.438-.059-4.745-4.893-6.5-6-16.346-10.312-15.975-12.555-36-16-2.514-4.576-5.727-8.194-8-13 1.509-9.409 4.788-18.539 6-28 4.198 5.636 6.644 12.927 11 18.5 11.875 15.193 31.95 23.825 40 42.5"/><path fill="#246176" d="M670 677c-9.443-6.72-17.53-2.311-21 8-5.516-1.509-1.098 3.607-1 4 1.909 7.645 6.34 16.058 15 15.5l-9.5-9.5c4.913 6.104 10.437 8.98 18.5 8-3.686 4.252-6.255 4.225-9 7-8.679 8.775-11.881 17.514-11 30-8.112-5.544-.421.579-4.5 1l-8.5-5c-2.902-7.648-1.461-51.171 3-58.5 3.981-6.541 14.461-9.738 21.5-8.5.933.164 14.109 6.188 6.5 8"/><path fill="#0c3f54" d="M576 702c-12.493 3.694-24.986 6.735-38 8 2.925-5.121 15.385.167 15-8 2.952-.367 6.056-.522 9-1 25.244-4.095 47.532-11.359 67.5-28-13.165 14.835-34.688 23.438-53.5 29"/><path fill="#e8f5f6" d="M350 703c-3.469-2.282-3.97-3.722-6-7 8.954-51.231 52.829 2.174 6 7"/><path fill="#619eae" d="M670 677c8.587 6.111 8.604 18.382 2 26-8.063.98-13.587-1.896-18.5-8l9.5 9.5c-8.66.558-13.091-7.855-15-15.5-.516-1.878.554-2.674 1-4 3.47-10.311 11.557-14.72 21-8"/><path fill="#c2e6ef" d="M421 699c2.211 3.301 3.182 28.477 2 32.5-.39 1.326-5.507-.934-3 2.5-7.278 1.001-12.887 8.627-15.5 15-1.259.438-8.643-8.983-9.5-10.5-7.255-12.843-5.645-40.323-7-56.5 6.346 4.245 29.378 11.593 33 17"/><path fill="#79cae0" d="m624 739 1.5-50c-16.111 10.345-36.926 17.431-55.5 22 .095-3.574-3.104-3.252-5.5-3-8.744.921-20.578 5.923-30 7-15.465 1.768-31.068.125-46.5 1-7.787-1.181-26.225-4.321-33.5-6-7.372-1.702-26.467-10.578-31.5-11 1.187-2.27 2.723-1.425 4.5-1 41.015 9.821 66.669 16.261 110.5 12 13.014-1.265 25.507-4.306 38-8l-5.5 5c19.753-4.555 37.282-13.776 55.5-22 1.814-.819 4.155-.736 5.5-3-4.895 17.973 4.597 42.311-7.5 57"/><path fill="#19435d" d="M649 685c-.446 1.326-1.516 2.122-1 4-.098-.393-4.516-5.509 1-4"/><path fill="#336c7f" d="M556 695c1.663-.223 3.287-.714 5-1l1 7c-2.944.478-6.048.633-9 1-25.743 3.199-63.396 3.883-91.5 0-3.587-.496-31.884-6.72-33-8-2.021-2.319.785-6.518.5-9 34.861 12.009 90.522 14.885 127 10"/><path fill="url(#f)" d="M624 739c-5.56 6.751-5.701 8.52-14 4-.186-.101-1.277-2.071-3-3-2.195-14.391-18.247-15.476-23-2-2.826 2.571-6.239 8.086-6 12 .437 7.167 10.716 11.603 10 15.5-.486 2.646-34.067 34.508-38.5 37.5-36.292 24.491-65.426 13.573-95-14-2.703-2.52-21.495-21.907-21.5-23.5-.002-.68 7.34-6.135 8-11 1.591-11.738-9.334-22.105-21-20.5-2.507-3.434 2.61-1.174 3-2.5 1.182-4.023.211-29.199-2-32.5.658.026 1.347-.055 2 0 5.033.422 24.128 9.298 31.5 11 7.275 1.679 25.713 4.819 33.5 6 28.171 4.274 54.145 1.852 82-5 18.574-4.569 39.389-11.655 55.5-22zm-115.5-14c-49.32 3.631-45.606 77.999 5 75 48.041-2.847 43.569-78.576-5-75" style="fill:url(#f)"/>/&gt;<path fill="#18465b" d="M338 703c.141.016 1.859 1.525 2 2-1.154.054-2.334-.036-3.5 0-2.295 1.944 7.805 5.995 9 7 11.728 9.856 14.263 15.131 13.5 30h-2c-.336-16.462-9.437-31.554-27-33.5 4.854 6.619 12.697 10.484 17 18 3.439 6.006 5.346 13.595 6 20.5-2.624-.107-1.988.214-1 2-.004-.103-1.94.327-2-.5-.456-6.256-.893-14.992-5-21-7.349-10.75-19.646-19.995-33-14.5v-1c6.813-2.033 17.85-9.928 26-9"/><path fill="#2c6c80" d="M340 705c16.681-.787 39.675 33.935 18.5 46 .319-3.005.345-5.985.5-9 .763-14.869-1.772-20.144-13.5-30-1.195-1.005-11.295-5.056-9-7 1.166-.036 2.346.054 3.5 0"/><path fill="#28677b" d="M656 741c-.447-3.832 3.635-18.512 5-23 7.715-9.195 15.7-16.595 28-10.5-23.617 2.864-26.644 27.401-25 47-2.547-1.084-7.8-11.786-8-13.5"/><path fill="#247087" d="M357 742c.118 5.771-.441 17.362-5 20.5 1.104-4.961 1.477-10.464 1-15.5-.654-6.905-2.561-14.494-6-20.5-4.303-7.516-12.146-11.381-17-18 17.563 1.946 26.664 17.038 27 33.5"/><path fill="#cfeef7" d="M570 711c-27.855 6.852-53.829 9.274-82 5 15.432-.875 31.035.768 46.5-1 9.422-1.077 21.256-6.079 30-7 2.396-.252 5.595-.574 5.5 3"/><path fill="#29687c" d="M710 723c-4.008 3.07-7.648 3.088-12 8.5-7.44 9.254-11.805 26.278-6.5 37.5-.999-12.917-.925-25.925 7.5-36.5.518-.65 10.317-9.251 11-9.5.58-.212 1.967-.073 2 .5-12.618 18.749-17.305 41.2-2 60-9.624.561-14.213 1.916-22.5-4.5-3.524.604 1.575 2.375 1.5 2.5-2.378 3.95-8.289-6.214-9.5-7.5-.714-.759-1.915 1.072-2 1-4.665-3.955-1.384-6.135-1.5-6.5-.239-.751-3.509.451-6-4-10.225-18.273-5.009-52.931 20-55-16.548 13.723-26.774 31.791-18.5 53.5-7.17-21.131 11.48-54.785 35.5-49.5-9.131 3.132-16.657 7.822-22 16-.821 1.256-12.466 26.701-5.5 21.5 1.38-1.031 6.385-22.995 16-30 7.665-5.584 29.565-9.538 14.5 2"/><path fill="#144355" d="M661 718c-1.365 4.488-5.447 19.168-5 23-3.193 2.452-2.876-.232-4-1-.881-12.486 2.321-21.225 11-30 2.859 1.926-.712 3.766-2 8"/><path fill="#256d84" d="M352 749c.557 15.686-11.119 30.765-26 35 1.513-4.112 13.24-17.126 14-19.5 3.872-12.093-4.065-36.141-14.5-43.5-5.281-3.724-10.403-4.624-16.5-6 .983-.951 1.759-1.49 3-2 13.354-5.495 25.651 3.75 33 14.5 4.107 6.008 4.544 14.744 5 21 .06.827 1.996.397 2 .5"/><path fill="#14a8c7" d="M243 754c-2.443-6.105 1.398-11.489-4-16 7.766-.1 25.215-1.165 27-10.5 2.633-13.773-21.844-7.935-29-4.5v-5c13.432-5.959 30.816-8.56 43.5 1 9.825 7.405 12.799 26.135-1 30-5.97 1.672-28.857 4.121-36.5 5"/><path fill="#17aac5" d="M756.5 713c16.347-2.087 45.971 9.478 49.5 27.5 3.39 17.314-7.696 15.076-20.5 14.5-4.787-.215-43.742-6.57-46-8-5.252-3.327-6.433-14.133-4.5-19.5 2.307-6.406 15.024-13.673 21.5-14.5m8 7-15.5 2.5c-6.805 19.034 63.388 22.203 46.5 6.5-5.5-5.114-23.277-9.061-31-9"/><path fill="#21667c" d="M326 784c-1.473.419-6.108 1.95-7 .5 11.931-7.647 16.058-23.128 11.5-36.5 1.343 14.658-1.565 36.266-19.5 36.5 12.011-18.74 9.936-42.149-1-61 11.049 2.375 15.647 14.315 19.5 23.5.35-14.426-12.819-22.2-23.5-29.5-.079-.564 2.56-2.075 3-2.5 6.097 1.376 11.219 2.276 16.5 6 10.435 7.359 18.372 31.407 14.5 43.5-.76 2.374-12.487 15.388-14 19.5"/><path fill="#2db1c0" d="M237 718v5c-13.956 6.7-17.787 15.255 2 15 5.398 4.511 1.557 9.895 4 16-8.221.946-26.261 5.69-29-5.5-3.373-13.781 11.761-25.513 23-30.5"/><path fill="#d4f2f7" d="M239 738c-19.787.255-15.956-8.3-2-15 7.156-3.435 31.633-9.273 29 4.5-1.785 9.335-19.234 10.4-27 10.5"/><path fill="#8fdeee" d="M764.5 720c7.723-.061 25.5 3.886 31 9 16.888 15.703-53.305 12.534-46.5-6.5z"/><path fill="#134158" d="M710 723c-.683.249-10.482 8.85-11 9.5-8.425 10.575-8.499 23.583-7.5 36.5-5.305-11.222-.94-28.246 6.5-37.5 4.352-5.412 7.992-5.43 12-8.5"/><path fill="#1d8191" d="m729 734-18 20c1.612-6.764 1.719-13.103 6-19.5 3.422-5.113 9.716-7.899 14-11.5 2.419-.694-1.158 7.186-2 11"/><path fill="#0d6981" d="M309 729c13.135 30.472-.582 67.707-33.5 77 5.766-3.113 22.236-15.726 22.5-22.5.113-2.904-3.847-6.669-4-8-.612-5.31 6.598-11.761 5-22-.245-1.571-4.919-9.079-5-10-.46-5.251 3.611-12.656 2-18.5 1.755 1.107 6.062 5.941 6.5 6 2.177.291 2.874-4.147 6.5-2"/><path fill="#1d2c38" d="M508.5 725c48.569-3.576 53.041 72.153 5 75-50.606 2.999-54.32-71.369-5-75m-4 5c-2.038.166-11.079 6.306-10 2-34.607 15.481-19.532 68.367 18 65 22.012-1.974 32.598-22.457 28.5-41.5 6.39 15.573 1.687-7.323-2-13-7.292-11.23-22.134-13.508-34.5-12.5"/><path fill="#3296b0" d="M607 740c-8.897-4.794-12.425-11.619-23-2 4.753-13.476 20.805-12.391 23 2"/><path fill="#2097b5" d="M504.5 730c12.366-1.008 27.208 1.27 34.5 12.5 3.687 5.677 8.39 28.573 2 13 4.098 19.043-6.488 39.526-28.5 41.5-37.532 3.367-52.607-49.519-18-65-1.079 4.306 7.962-1.834 10-2m.5 4c-4.937.944-10.092 2.937-14 6-2.966 2.325-1.781 1.326-4 4-1.514 1.478-4.636 2.952-3.5 6 1.757-.873 2.827-5.189 3.5-6 .161-.157 1.768-.803 2-1v4c-4.871 7.505-3.276 15.481 0 23 6.046 13.877 21.4 20.675 34 11 3.798 4.746 8.686-.978 11-5.5 8.725-17.052-.834-40.042-20-42.5.813-3.531-8.677-2.441-9 1"/><path fill="#0c4263" d="M514 733c-3.623-.465-5.794.387-9 1 .323-3.441 9.813-4.531 9-1"/><path fill="#0fbfe5" d="M514 733c19.166 2.458 28.725 25.448 20 42.5-2.314 4.522-7.202 10.246-11 5.5 10.738-8.245 7.706-28.668-2-37-9.142-7.848-25.308-7.312-32 3v-4c.343-.292 1.654-2.316 2-3 3.908-3.063 9.063-5.056 14-6 3.206-.613 5.377-1.465 9-1"/><path fill="#3e6d7e" d="M607 740c1.723.929 2.814 2.899 3 3v1c-3.292-3.132-12.966-9.573-17.5-9-4.793.606-12.752 10.071-12.5 15h-2c-.239-3.914 3.174-9.429 6-12 10.575-9.619 14.103-2.794 23 2"/><path fill="#3b9fa6" d="M729 734c-.548 2.482.696 7.528 0 9.5-1.404 3.977-7.635 1.576-6 16 .382 3.373 4.863 10.661 5 12 .424 4.139-4.405 6.892-3 14 1.18 5.971 16.724 18.558 23 20-19.169-.194-38.8-25.866-41-43.5 2.574-.192 3.385-5.42 4-8z"/><path fill="#2094b5" d="M610 744c.672.639 3.949 2.747 4 3.5-4.421 8.497-13.717 20.063-24.5 15.5-2.761-1.168-9.327-9.611-9.5-13-.252-4.929 7.707-14.394 12.5-15 4.534-.573 14.208 5.868 17.5 9m-17.5-3c-21.793 5.251 9.343 42.578 11.5 2.5-3.022-2.416-7.619-3.435-11.5-2.5"/><path fill="#5e91a4" d="m547 825-1-17c11.627-6.734 42.322-41.859 45.5-43 .286-.103 3.587 2.101 6 1 13.987-6.384 21.196-18.736 32.5-28.5-9.719 39.667-43.585 76.184-83 87.5"/><path fill="#22b9d7" d="M422.5 738c14.795-3.139 21.236 21.416 8 25-17.044 4.615-23.411-21.73-8-25m0 2c-8.953 2.756-4.112 26.197 7 21 .45-.21 6.333-7.033 6.5-7.5 2.459-6.894-6.572-15.633-13.5-13.5"/><path fill="#79e3f9" d="M521 744c.094 1.232-20.747-5.324-16 .5.743.912 19.686 3.149 17.5 12.5-2.023 1.293-18.785-13.852-24.5-.5-5.353 12.508 12.707 16.24 7.5 19.5-10.267-1.612-14.798-8.849-15-19l-1.5 13c-3.276-7.519-4.871-15.495 0-23 6.692-10.312 22.858-10.848 32-3"/><path fill="#b8e1ec" d="M511 819c-.149.075.438 1.349-.5 2-.668.464-3.602-.69-4.5.5-4.886 6.479 15.135 7.477 18 7.5-57.974 8.582-117.762-32.088-130.5-89 5.148 6.551 11.873 15.601 19 20 5.963 3.68 13.7 4.224 17 6 3.794 2.041 20.737 23.573 27 29 15.077 13.065 33.609 25.234 54.5 24"/><path fill="#0197c7" d="M422.5 740c6.928-2.133 15.959 6.606 13.5 13.5-.167.467-6.05 7.29-6.5 7.5-11.112 5.197-15.953-18.244-7-21"/><path fill="#2a4856" d="M491 740c-.346.684-1.657 2.708-2 3-.232.197-1.839.843-2 1 2.219-2.674 1.034-1.675 4-4"/><path fill="#036d98" d="M592.5 741c3.881-.935 8.478.084 11.5 2.5-2.157 40.078-33.293 2.751-11.5-2.5m2 1c-21.263 3.003 5.548 37.944 7.5 2.5l-2.5-2.5c-1.631.155-3.391-.227-5 0"/><path fill="#26caed" d="M521 744c9.706 8.332 12.738 28.755 2 37-12.6 9.675-27.954 2.877-34-11l1.5-13c.202 10.151 4.733 17.388 15 19 5.207-3.26-12.853-6.992-7.5-19.5 5.715-13.352 22.477 1.793 24.5.5 2.186-9.351-16.757-11.588-17.5-12.5-4.747-5.824 16.094.732 16-.5"/><path fill="#008cbf" d="M594.5 742c1.609-.227 3.369.155 5 0l2.5 2.5c-1.952 35.444-28.763.503-7.5-2.5"/><path fill="#0f2b49" d="M487 744c-.673.811-1.743 5.127-3.5 6-1.136-3.048 1.986-4.522 3.5-6"/><path fill="#1fb5cc" d="M281 776c-22.234-5.118-55.723 16.994-59-18 4.035-1.144 16.045-.077 21.5-1 13.719-2.322 22.008-3.602 36-5 5.847-.584 12.209-8.288 14.5 1.5 2.467 10.541-3.603 18.787-13 22.5"/><path fill="#1aafc6" d="M800 759c7.641 26.84-28.807 19.148-44.5 16-18.805-3.772-20.305-7.053-24.5-26z"/><path fill="#60d3d8" d="M800 759c10.86 1.553 5.594 18.488-1.5 22-12.074 5.978-61.017-1.023-68.5-14.5-2.413-4.345-4.75-14.836 1-17.5 4.195 18.947 5.695 22.228 24.5 26 15.693 3.148 52.141 10.84 44.5-16"/><path fill="#6dcfce" d="M281 776c-6.965 2.752-44.35 8.092-51.5 7-12.702-1.94-17.601-22.137-7.5-25 3.277 34.994 36.766 12.882 59 18"/><path fill="#1b9eb1" d="M784 785c-8.33 18.498-29.156 16.059-44.5 8-2.06-1.082-9.667-10.934-8.5-5-9.846-19.234 12.623-7.159 21.5-6 8.08 1.055 24.854.359 31.5 3"/><path fill="#129bb2" d="M291 787c-8.021 10.187-32.463 14.443-43.5 8-3.938-2.299-4.996-8.149-9.5-10 4.46-1.554 49.993-7.853 52.5-7 4.921 1.674 1.705 6.444.5 9"/><path fill="#56c9cb" d="M238 785c4.504 1.851 5.562 7.701 9.5 10 11.037 6.443 35.479 2.187 43.5-8-8.328 17.668-30.142 24.508-47.5 17-7.908-3.421-17.241-14.909-5.5-19"/><path fill="#58caca" d="M784 785c1.337.531 2.566 1.11 4 1.5-1.938 29.856-46.091 22.809-57 1.5-1.167-5.934 6.44 3.918 8.5 5 15.344 8.059 36.17 10.498 44.5-8"/><path fill="#85bfd1" d="M547 825c-7.193 2.065-15.441 4.062-23 4-2.865-.023-22.886-1.021-18-7.5.898-1.19 3.832-.036 4.5-.5.938-.651.351-1.925.5-2 9.277-4.662 22.102-3.53 35-11z"/><path fill="#082332" d="M434 819c-10.508.296 5.517 9.923 8.5 11 .429.155 7.547 1.945 8 2 6.905.842 6.102-1.937 6.5-2 .199-.032 3.182-1.994 3.5-2 1.705-.031 7.079 4.476 9 5 28.834 7.865 57.771 6.57 88-1 3.039-.761-.261-4.04 5.5-1 .091.048-2.605 1.206-.5 2 2.836 1.07 26.75-6.129 28-8 1.445-2.163-.441-9.796-4.5-7 .283-.212 2.963-3.276 5-5l12 48.5c17.726-1.708 43.499 11.728 56 25 4.004 4.25 12.769 17.248 15 22.5 1.425 3.354 8.013 27.031 6.5 29-18.478 7.188-39.555 11.465-59.5 12-17.772.477-61.19-4.186-73.5-18-6.141-6.892-.485-22.125 3.5-30 4.173-8.246 10.729-14.91 18-20.5-1.412-6.096-11.083-46.888-13.5-47.5-29.232 9.607-60.698 9.099-90 0-2.85.696-14.054 44.085-13.5 46.5.332 1.45 15.363 13.734 19 22.5 2.593 6.249 6.141 21.383 4 27.5-.51 1.458-16.933 10.472-19.5 11.5-20.684 8.281-45.476 9.003-67.5 7-7.066-.255-47.581-6.774-49-12.5 2.747-8.747 4.279-18.083 8-26.5 12.548-28.383 42.035-45.602 72-49.5l11-48.5 1-1.5c1.106 2.751 1.09 6.076 3 8.5m-4.5 9c-1.68.327-3.098 5.969-2.5 7.5 1.611 4.126 37.355 14.608 32.5 1.5-7.314 5.423-28.428-9.306-30-9m162 0c-9.37 7.837-20.153 9.268-31.5 12.5-.259 7.286 46.325 1.251 31.5-12.5m-166 11c-1.494 7.622-4.74 7.223 2 12 3.917 2.776 26.01 8.966 28.5 5.5 5.105-7.106-8.785-6.552-13.5-8.5-5.945-2.456-11.394-5.906-17-9m168 1c-1.262-.048-14.173 8.246-17 9-5.806 1.549-15.512-2.421-13.5 4.5 2.395 8.239 33.842-2.284 35-6 .354-1.136-1.827-7.398-4.5-7.5m-170 11c-10.97 18.025 16.843 14.741 27.5 19.5l2.5-10.5c-10.664.307-21.367-2.538-30-9m173 1c-4.427-.061-21.93 12.837-30 9-3.8 14.883 27.101 6.071 32 3 3.925-2.461 2.731-11.935-2-12M409 865c-4.573.727-13.562 4.075-18 6-25.973 11.263-43.604 37.389-49 64.5.348.924 1.796.32 2 .5 5.435 4.797 38.568 9.342 47 10 19.515 1.523 58.882-1.293 75.5-12 13.132-8.46 4.754-22.783-2.5-33-4.641-6.536-8.336-10.479-15-15-5.686-3.858-32.196-16.151-38-16-1.712-.101-.756-1.95-1-3 6.767-2.768 38.122 13.145 40 11.5.489-.428 1.355-4.119 1-5-.615-1.526-28.798-9.272-31.5-9.5-4.121-.348-6.721.399-10.5 1m191.5-1c-1.355.172-24.806 7.348-26 8-2.199 1.202-3.706 2.756-3.5 5.5l34.5-10.5 2-3c-2.277.198-4.758-.284-7 0m8.5 7c-8.05.069-21.928 6.871-29 11-9.402 3.9-16.222 10.799-22 19-6.647 9.435-15.861 23.633-4.5 32 14.507 10.684 49.872 12.63 67.5 12 14.158-.506 41.602-1.955 54-8 1.803-.879 3.545 1.454 4-3.5 2.125-23.158-38.449-65.631-61.5-68.5-10.085-1.255-3.103 2.084-8.5 6"/><path fill="#104154" d="M563 831c8.617-3.283 15.63-7.489 23-13 4.059-2.796 5.945 4.837 4.5 7-1.25 1.871-25.164 9.07-28 8-2.105-.794.591-1.952.5-2"/><path fill="#174d5e" d="M434 819c4.031 5.117 17.034 8.29 23 11-.398.063.405 2.842-6.5 2-.453-.055-7.571-1.845-8-2-2.983-1.077-19.008-10.704-8.5-11"/><path fill="#206075" d="M429.5 828c1.572-.306 22.686 14.423 30 9 4.855 13.108-30.889 2.626-32.5-1.5-.598-1.531.82-7.173 2.5-7.5"/><path fill="#1c566b" d="M591.5 828c14.825 13.751-31.759 19.786-31.5 12.5 11.347-3.232 22.13-4.663 31.5-12.5"/><path fill="#21677c" d="M425.5 839c5.606 3.094 11.055 6.544 17 9 4.715 1.948 18.605 1.394 13.5 8.5-2.49 3.466-24.583-2.724-28.5-5.5-6.74-4.777-3.494-4.378-2-12"/><path fill="#1d6277" d="M593.5 840c2.673.102 4.854 6.364 4.5 7.5-1.158 3.716-32.605 14.239-35 6-2.012-6.921 7.694-2.951 13.5-4.5 2.827-.754 15.738-9.048 17-9"/><path fill="#256d82" d="M423.5 851c8.633 6.462 19.336 9.307 30 9l-2.5 10.5c-10.657-4.759-38.47-1.475-27.5-19.5"/><path fill="#1d667c" d="M596.5 852c4.731.065 5.925 9.539 2 12-4.899 3.071-35.8 11.883-32-3 8.07 3.837 25.573-9.061 30-9"/><path fill="#1e6075" d="M410 867c-.227-.98-1.001-1.147-1-2 3.779-.601 6.379-1.348 10.5-1 2.702.228 30.885 7.974 31.5 9.5.355.881-.511 4.572-1 5-1.878 1.645-33.233-14.268-40-11.5"/><path fill="#1d6178" d="M600.5 864c2.242-.284 4.723.198 7 0l-2 3-34.5 10.5c-.206-2.744 1.301-4.298 3.5-5.5 1.194-.652 24.645-7.828 26-8"/><path fill="#bfe2e9" d="M409 865c-.001.853.773 1.02 1 2 .244 1.05-.712 2.899 1 3-.158.004-2.198.745-3 1-3.163 1.005-6.298 5.595-9.5 7-12.537 5.503-21.871 6.558-31.5 19-4.37-1.373 9.411-15.127 11-16.5 4.002-3.457 12.049-5.299 13-9.5 4.438-1.925 13.427-5.273 18-6"/><path fill="#dceff1" d="M675 937c-1.238-2.607-1.755-15.126-4.5-16-.463-.147-8.079 1.892-9.5 2 2.029-3.76 2.35-2.709 0-6.5-8.672-13.992-36.59-31.44-47.5-45.5-2.276 1.876-4.275-.002-4.5 0 5.397-3.916-1.585-7.255 8.5-6 23.051 2.869 63.625 45.342 61.5 68.5-.455 4.954-2.197 2.621-4 3.5"/><path fill="#b2e2ef" d="M449 886c-3.085 2.655-4.7 2.622-4 7-11.421 5.603-18.44 18.841-24 30-2.133.244-4-.576-6 1-18.44-1.372-37.031-.367-57-2l50-51c.802-.255 2.842-.996 3-1 5.804-.151 32.314 12.142 38 16"/><path fill="#cdeaee" d="M367 897c-5.547 7.168-7.196 16.473-12 24-8.124-.142-10.41 7.413-11 15-.204-.18-1.652.424-2-.5 5.396-27.111 23.027-53.237 49-64.5-.951 4.201-8.998 6.043-13 9.5-1.589 1.373-15.37 15.127-11 16.5"/><path fill="#eaf8f8" d="M358 922c-2.533-.207-2.842-.997-3-1 4.804-7.527 6.453-16.832 12-24 9.629-12.442 18.963-13.497 31.5-19 3.202-1.405 6.337-5.995 9.5-7z"/><path fill="#acdbe7" d="M609 871c.225-.002 2.224 1.876 4.5 0 10.91 14.06 38.828 31.508 47.5 45.5 2.35 3.791 2.029 2.74 0 6.5-20.715 1.579-38.148 3.368-59 0-1.265-.204-2.76.254-4 0 .376-3.435 2.089-.503 1-4.5-1.707-6.267-20.102-30.114-20-32 1.947-2.242 4.498-4.005 7-5.5 2.24-.684 4.86-.732 7-2.5-2.769-1.468-5.043 1.33-7 2.5-1.296.396-4.975.575-6 1 7.072-4.129 20.95-10.931 29-11"/><path fill="#85bcd0" d="M586 881c1.957-1.17 4.231-3.968 7-2.5-2.14 1.768-4.76 1.816-7 2.5m0 0c-2.502 1.495-5.053 3.258-7 5.5-.102 1.886 18.293 25.733 20 32 1.089 3.997-.624 1.065-1 4.5-15.614-3.201-27.32-13.311-40-22 5.778-8.201 12.598-15.1 22-19 1.025-.425 4.704-.604 6-1"/><path fill="#68adc6" d="M464 901c-4.176.777-7.189 4.545-10.5 7-.072.054-.996-1.371-1.5-1-1.115-3.025-6.629-11.68-7-14-.7-4.378.915-4.345 4-7 6.664 4.521 10.359 8.464 15 15"/><path fill="#81bdd1" d="M452 907c-11.504 8.485-13.767 14.025-31 16 5.56-11.159 12.579-24.397 24-30 .371 2.32 5.885 10.975 7 14"/><path fill="#367c92" d="M464 901c7.254 10.217 15.632 24.54 2.5 33-16.618 10.707-55.985 13.523-75.5 12 4.685-2.073-2.332-1.604-.5-3 5.594-4.264 28.825-4.581 31.5-17.5-.151-.354-6.237-1.443-7-1.5 2-1.576 3.867-.756 6-1 17.233-1.975 19.496-7.515 31-16 .504-.371 1.428 1.054 1.5 1 3.311-2.455 6.324-6.223 10.5-7"/><path fill="#39788c" d="M598 923c1.24.254 2.735-.204 4 0-7.134 9.5 13.539 15.555 20.5 18l-1.5 4c-17.628.63-52.993-1.316-67.5-12-11.361-8.367-2.147-22.565 4.5-32 12.68 8.689 24.386 18.799 40 22"/>/&gt;<path fill="#62a7bc" d="M355 921c.158.003.467.793 3 1 19.969 1.633 38.56.628 57 2 .763.057 6.849 1.146 7 1.5-2.675 12.919-25.906 13.236-31.5 17.5-1.832 1.396 5.185.927.5 3-8.432-.658-41.565-5.203-47-10 .59-7.587 2.876-15.142 11-15"/><path fill="#5799ae" d="M675 937c-12.398 6.045-39.842 7.494-54 8l1.5-4c-6.961-2.445-27.634-8.5-20.5-18 20.852 3.368 38.285 1.579 59 0 1.421-.108 9.037-2.147 9.5-2 2.745.874 3.262 13.393 4.5 16"/></svg>