<svg xmlns="http://www.w3.org/2000/svg" width="1024" height="1024"><defs><linearGradient id="a" x1="641.692" x2="308.858" y1="201.905" y2="212.415" gradientUnits="userSpaceOnUse"><stop offset="23.423%" style="stop-color:#bce5f1"/><stop offset="65.165%" style="stop-color:#6eb4c9"/><stop offset="100%" style="stop-color:#247a96"/></linearGradient></defs><defs><linearGradient id="b" x1="705.575" x2="432.775" y1="443.737" y2="469.353" gradientUnits="userSpaceOnUse"><stop offset="0%" style="stop-color:#e1eff3"/><stop offset="100%" style="stop-color:#93b1c2"/></linearGradient></defs><defs><linearGradient id="c" x1="479.609" x2="334.681" y1="455.915" y2="460.486" gradientUnits="userSpaceOnUse"><stop offset="0%" style="stop-color:#8fa7b4"/><stop offset="100%" style="stop-color:#537083"/></linearGradient></defs><defs><linearGradient id="d" x1="586.132" x2="479.979" y1="465.541" y2="568.671" gradientUnits="userSpaceOnUse"><stop offset="0%" style="stop-color:#7ed6f0"/><stop offset="100%" style="stop-color:#129bc0"/></linearGradient></defs><defs><linearGradient id="e" x1="500.455" x2="441.022" y1="518.829" y2="539.728" gradientUnits="userSpaceOnUse"><stop offset="0%" style="stop-color:#6eceeb"/><stop offset="100%" style="stop-color:#1a95ba"/></linearGradient></defs><defs><linearGradient id="f" x1="367.595" x2="643.586" y1="788.874" y2="791.119" gradientUnits="userSpaceOnUse"><stop offset="0%" style="stop-color:#212434"/><stop offset="100%" style="stop-color:#566074"/></linearGradient></defs><defs><linearGradient id="g" x1="463.446" x2="511.356" y1="805.815" y2="808.759" gradientUnits="userSpaceOnUse"><stop offset="0%" style="stop-color:#058cbe"/><stop offset="100%" style="stop-color:#19b1d7"/></linearGradient></defs><defs><linearGradient id="h" x1="333.73" x2="688.729" y1="864.532" y2="865.464" gradientUnits="userSpaceOnUse"><stop offset="14.366%" style="stop-color:#1a1b2a"/><stop offset="100%" style="stop-color:#606a7e"/></linearGradient></defs><path fill="#9de8f9" d="M729 119c-6.115 3.466-18.391-8.777-19.5-9-.822-.165-14.607 2.559-16.5 3 5.565-7.624 11.114-13.5 13.5-23l-.5 13.5c4.187-21.93 2.738-4.301 10 4 4.49 5.133 11.033 6.587 17 9-1.638.511-2.683 1.552-4 2.5"/><path fill="#7acae5" d="M729 119c-4.026 2.899-9.719 3.78-13 7-3.42-6.169-9.691-2.595-11.5-3-1.193-.267-1.866-3.825-3-4-.766-.118-12.808.022-15.5 0l-4.5-3c4.096-.213 7.533-2.076 11.5-3 1.893-.441 15.678-3.165 16.5-3 1.109.223 13.385 12.466 19.5 9"/><path fill="#46a2c6" d="M686 119c2.692.022 14.734-.118 15.5 0 1.134.175 1.807 3.733 3 4 1.809.405 8.08-3.169 11.5 3-3.145 3.087-5.527 11.717-8 15.5-.643.984-3.892-.396-3.5 5.5-3.118-13.012-9.996-25.277-24.5-26.5.06-2.452 4.408-1.513 6-1.5"/><path fill="#5ba6bd" d="M609 148v7c-7.674-1.433-58.358-10.209-61.5-8-.313.22-1.703 7.176-1.5 7.5.988 1.582 6.419-1.317 6 2.5-45.516-2.495-93.859.195-139 6-3.995.514-8.03 1.395-12 2-25.764 3.927-48.394 8.301-74 17-12.376 4.205-21.696 8.789-33 15-3.259 1.791-6.902 3.94-10 6l-3 1c-.058.04-.038.327-1 1-2.453-1.587-11.757 7.579-9.5 1 2.339-6.816 38.636-24.046 46.5-28 4.434-2.251 36.18-10.724 37-12.5.085-.185-3.653-.439-1-3.5 80.045-26.316 173.404-30.325 256-14"/><path fill="#a9daea" d="M609 155c5.395 1.007 41.944 7.415 43.5 9 .294.299 1.556 5.862 2.5 8-34.29-6.375-68.032-13.083-103-15 .419-3.817-5.012-.918-6-2.5-.203-.324 1.187-7.28 1.5-7.5 3.142-2.209 53.826 6.567 61.5 8"/><path fill="#82bdd3" d="M735 272c-8.302-5.956-19.166-11.935-28.5-16-76.16-33.17-187.307-44.189-269.5-36-4.056-9.299 20.516-.628 27.5-4l-8.5-5c47.167-4.488 88.187-3.159 135 4 15.672 2.397 31.551 5.499 47 9 8.38 1.899 17.846 3.761 26 6 26.753 7.345 53.729 18.621 78.5 31 3.241-13.222 16.473-29.062 9.5-42-9.751-18.092-56.113-31.26-75.5-40-3.128-1.41-8.43-7.004-9-7-1.076.008-2.767 3.908-3 4-3.38 1.332-4.394-3.587-7.5-1 .807-1.979-1.927-2.835-2-3-.944-2.138-2.206-7.701-2.5-8-1.556-1.585-38.105-7.993-43.5-9v-7c39.209 7.75 116.114 30.373 143.5 60 13.549 14.657 3.755 20.235-1.5 35.5-1.824 5.298-3.057 16.31-5 20-2.002 3.802-8.102 5.676-11 8.5"/><path fill="url(#a)" d="M552 157c34.968 1.917 68.71 8.625 103 15 .073.165 2.807 1.021 2 3l-2 .5 5 5.5c-1.341-.416-2.145-1.897-4-.5-4.295 3.234-13.146 37.32-18 43.5-15.449-3.501-31.328-6.603-47-9 2.286-1.963-2.84-2.873-3.5-3-21.242-4.077-41.506-2.477-62-5-3.638-.448-7.728-.434-4.5-4 15.689-5.356 13.859-33.015-3.5-36-26.06-4.482-30.455 30.208-11.5 36l-75.5 9-18 3c-.125 5.164 12.307-.914 13-1 9.917-1.23 20.493-2.048 30.5-3l8.5 5c-6.984 3.372-31.556-5.299-27.5 4-27.444 2.734-55.545 7.208-82 15 .698-2.589-2.488-1.301-3.5-1-20.351 6.05-40.354 13.807-59.5 23-1.678.287-6.318.881-8 1l-14-30c-1.826-7.495-3.946-10.221 2-17 40.427-22.459 83.379-35.449 129-43a454 454 0 0 1 42.5-5H413c45.141-5.805 93.484-8.495 139-6m-252 62v1c-6.934 2.059-6.336 2.756-5 8 .837 3.284-.197 2.642 3 5 10.184 7.512 18.438-9.024 7.5-17-9.885-7.209-20.894 8.96-13 17 1.226-.13-7.02-12.563 7.5-14m71.5 5c-5.538.777-30.255 7.871-36 10-.829.307-15.824 7.678-15.5 8.5 18.058-7.231 37.966-11.487 55.5-18.5-1.306.121-2.712-.181-4 0" style="fill:url(#a)"/>/&gt;<path fill="#196d86" d="M353 162c-2.653 3.061 1.085 3.315 1 3.5-.82 1.776-32.566 10.249-37 12.5.126-.064 1.873-1.938 2-2 11.771-5.742 21.282-9.819 34-14"/><path fill="#f1fbfd" d="M401 168v-3c3.97-.605 8.005-1.486 12-2h30.5a454 454 0 0 0-42.5 5"/><path fill="#87dff3" d="M401 165v3c-45.621 7.551-88.573 20.541-129 43 2.649-3.021 4.892-3.826 8-6 .962-.673.942-.96 1-1 .13-.09 1.924-.285 3-1 3.098-2.06 6.741-4.209 10-6l33-15c25.606-8.699 48.236-13.073 74-17"/><path fill="#044d70" d="M521 203c-4.495 1.535-10.399 1.406-15 0-18.955-5.792-14.56-40.482 11.5-36 17.359 2.985 19.189 30.644 3.5 36m6-11c3.727-8.471 2.357-13.596-6-18-22.016-11.602-32.318 20.639-15.5 27 8.073 3.053 18.014-1.078 21.5-9"/><path fill="#7ec7dd" d="M521 174c-.743.143-1.321.656-2 1-30.216-9.468-17.033 36.567 3.5 21 3.774-2.861 1.164-4.786 1.5-6l3 2c-3.486 7.922-13.427 12.053-21.5 9-16.818-6.361-6.516-38.602 15.5-27"/><path fill="#f3fbfe" d="m752 219-42.5-23-30-9-15.5 42c-2.105-9.573 2.792-39.403 0-46.5-.789-2.005-2.889-1.156-4-1.5l-5-5.5 2-.5c3.106-2.587 4.12 2.332 7.5 1 .233-.092 1.924-3.992 3-4 .57-.004 5.872 5.59 9 7 19.387 8.74 65.749 21.908 75.5 40"/><path fill="#054f6c" d="M519 175c-11.256 5.706 1.458 16.616 7.5 7 1.778.691-2.235 7.045-2.5 8-.336 1.214 2.274 3.139-1.5 6-20.533 15.567-33.716-30.468-3.5-21"/><path fill="#fdfdfc" d="m527 192-3-2c.265-.955 4.278-7.309 2.5-8-6.042 9.616-18.756-1.294-7.5-7 .679-.344 1.257-.857 2-1 8.357 4.404 9.727 9.529 6 18"/><path fill="#05465e" d="M319 176c-.127.062-1.874 1.936-2 2-7.864 3.954-44.161 21.184-46.5 28-2.257 6.579 7.047-2.587 9.5-1-3.108 2.174-5.351 2.979-8 6-5.946 6.779-3.826 9.505-2 17 2.518 10.336 8.199 19.281 11 29.5 2.444 2.989 2.848.511 3 .5 1.682-.119 6.322-.713 8-1 20.799-3.56 42.633-16.001 63-22 26.455-7.792 54.556-12.266 82-15 82.193-8.189 193.34 2.83 269.5 36 9.334 4.065 20.198 10.044 28.5 16-9.988 9.735-16.498 16.648-31.5 20 3.619-18.803-18.456-28.586-33-35-26.77-11.806-62.425-19.358-91.5-23-26.379-3.304-58.654-5.965-85-3-61.641-.9-125.201 10.001-178.5 42 .359 6.014-.403 12.013-.5 18-10.363-3.969-18.553-8.222-26-16.5-.928-1.031-1.616-6.49-2-7-.723-.96-5.898-2.867-8-6-2.228-3.32-16.396-44.12-16-47 1.612-11.716 43.582-36.242 56-38.5"/><path fill="#a0d2e4" d="M660 181c1.111.344 3.211-.505 4 1.5 2.792 7.097-2.105 36.927 0 46.5v1c-8.154-2.239-17.62-4.101-26-6 4.854-6.18 13.705-40.266 18-43.5 1.855-1.397 2.659.084 4 .5"/><path fill="#146c8b" d="m327 182-33 15c11.304-6.211 20.624-10.795 33-15"/><path fill="#bfe5f2" d="M752 219c6.973 12.938-6.259 28.778-9.5 42-24.771-12.379-51.747-23.655-78.5-31v-1l15.5-42 30 9zm-34.5-1c-10.623 2.477-11.243 23.91 7 20 12.864-2.757 8.476-23.609-7-20"/><path fill="#085977" d="M284 203c-1.076.715-2.87.91-3 1z"/><path fill="#eaf8fb" d="M521 203c-3.228 3.566.862 3.552 4.5 4 20.494 2.523 40.758.923 62 5 .66.127 5.786 1.037 3.5 3-46.813-7.159-87.833-8.488-135-4-10.007.952-20.583 1.77-30.5 3-.693.086-13.125 6.164-13 1l18-3 75.5-9c4.601 1.406 10.505 1.535 15 0"/><path fill="#065070" d="M298 233c1.296.282 1.982-.497 3-1 7.338-3.624 9.361-5.176 4-11-.549-.596-1.685-2.844-2.5-3-2.675-.512-2.366.987-2.5 1-14.52 1.437-6.274 13.87-7.5 14-7.894-8.04 3.115-24.209 13-17 10.938 7.976 2.684 24.512-7.5 17"/><path fill="#fcfcf7" d="M305 221c.553 1.536-1.193 2.271-1 3l-4-4v-1c.134-.013-.175-1.512 2.5-1 .815.156 1.951 2.404 2.5 3"/><path fill="#094a71" d="M717.5 218c15.476-3.609 19.864 17.243 7 20-18.243 3.91-17.623-17.523-7-20m4.5 5c-5.978 2.429.628 7.833 4 4 3.112 10.351-9.403 3.327-10.5 6-2.672-2.05-.367-7.647-4.5-3.5 12.963 23.805 27.093-16.081 7.5-9.5-4.053 1.361 1.697 1.977 3.5 3"/><path fill="#064263" d="m300 220 4 4c.29 1.093 4.761 3.751-3 6-.756-2.679-3.764-3.986-6-2-1.336-5.244-1.934-5.941 5-8"/><path fill="#3ca7c1" d="M726 227c-1.195-3.976-1.491-2.577-4-4-1.803-1.023-7.553-1.639-3.5-3 19.593-6.581 5.463 33.305-7.5 9.5 4.133-4.147 1.828 1.45 4.5 3.5 1.097-2.673 13.612 4.351 10.5-6"/><path fill="#2baac2" d="M301 232c-.073-.643.145-1.485 0-2 7.761-2.249 3.29-4.907 3-6-.193-.729 1.553-1.464 1-3 5.361 5.824 3.338 7.376-4 11"/><path fill="#fafaf6" d="M726 227c-3.372 3.833-9.978-1.571-4-4 2.509 1.423 2.805.024 4 4"/><path fill="#4b9db5" d="M371.5 224c1.288-.181 2.694.121 4 0-17.534 7.013-37.442 11.269-55.5 18.5-.324-.822 14.671-8.193 15.5-8.5 5.745-2.129 30.462-9.223 36-10"/><path fill="#f7f8fa" d="M301 230c.145.515-.073 1.357 0 2-1.018.503-1.704 1.282-3 1-3.197-2.358-2.163-1.716-3-5 2.236-1.986 5.244-.679 6 2"/><path fill="#4e96b1" d="m154 229 6 13c-1.632-.245-2.919-2.532-5 .5.293 6.244-.826 12.285-1 18.5h-3c-.292-10.806.216-21.679 0-32.5 1.88-1.772 2.848.489 3 .5"/><path fill="#57bfd0" d="M284 258c-.152.011-.556 2.489-3-.5-2.801-10.219-8.482-19.164-11-29.5z"/><path fill="#6eafc5" d="M308 298c-4.262 2.279-4.902 11.495-6 16-19.678-10.633-39.229-21.529-59-32-18.013-9.54-65.815-37.418-83-40l-6-13c26.829 1.95 124.633 54.314 154 69"/><path fill="#9db5c1" d="M494 231c-.124.014-.688 1.889-1.5 2-4.02.55-16.321-2.49-16.5 3-50.915 2.455-112.061 19.041-156 44.5-.273 10.884 1.54 21.684 2 32.5-5.131-1.837.32-8.522-6-8-.038-2.221-.99-3.333-1-4-.044-3.084-.05-6.923 0-10 .097-5.987.859-11.986.5-18 53.299-31.999 116.859-42.9 178.5-42"/><path fill="url(#b)" d="M579 234c-6.596 4.665-46.982-2.889-49.5-1-.297.223-1.859 4.547-1 5 58.883 3.682 120.796 17.429 171 49l1-5c4.261 4.138-.581 9.933-.5 10.5.076.531 4.459 7.914 5 9.5l-2 2.5c-.561 15.399-.006 31.154-1 46.5-.364 5.624-.582 11.398-1 17-4.271 57.277-12.176 102.173-28 157-1.135 3.934-2.842 7.834-3 12-6.217 7.374-14.753 33.399-20 44-5.532 11.177-9.118 19.261-16 30-23.619 36.856-61.303 69.83-107 73-3.925-4.277-13.976-1.114-19.5-2-.618-.099-2.343-1.967-2.5-2l-23-57c4.726 3.698 23.427 15.953 28.5 16 12.127.112 41.372-27.102 49.5-36.5 47.108-54.47 83.414-159.739 47-227-42.352-78.229-151.129-78.156-193 .5-3.304-13.259-2.446-31.441-1-45.5 3.49-33.929 16.368-71.748 50.5-85.5 5.5-2.216 44.734-10.554 12.5-9 .179-5.49 12.48-2.45 16.5-3 .812-.111 1.376-1.986 1.5-2 26.346-2.965 58.621-.304 85 3m68.5 31c11.981 62.716 8.802 133.239-.5 196.5-9.209 62.629-28.15 131.382-62.5 184.5 9.565-6.217 19.707-17.492 26.5-26.5 54.179-71.848 72.478-220.657 61-308-2.856-21.736-7.032-32.324-24.5-46.5" style="fill:url(#b)"/>/&gt;<path fill="#91d3e5" d="M355 235c-20.367 5.999-42.201 18.44-63 22 19.146-9.193 39.149-16.95 59.5-23 1.012-.301 4.198-1.589 3.5 1"/><path fill="url(#c)" d="M414 376c-38.373 72.084 6.316 198.727 68 247l23 57c-144.419-30.138-177.842-245.705-183-367-.46-10.816-2.273-21.616-2-32.5 43.939-25.459 105.085-42.045 156-44.5 32.234-1.554-7 6.784-12.5 9-34.132 13.752-47.01 51.571-50.5 85.5-1.446 14.059-2.304 32.241 1 45.5" style="fill:url(#c)"/>/&gt;<path fill="#77b7cd" d="m871 241-11 7c-3.367.488-14.672 5.484-19 7-19.379 6.788-38.502 16.133-57 25-21.012 10.072-41.293 21.368-62 32-.748-5.155-1.973-11.602-5-16 44.874-26.668 101.404-49.347 152.5-59 2.09 1.159 1.117 2.718 1.5 4"/><path fill="#d8f2fa" d="M160 242c17.185 2.582 64.987 30.46 83 40-1.859 4.863-5.867-1.469-7.5-1-1.78.511-1.189 3.261-2 4-.067.061-1.138-1.462-1.5-1l-21.5-9c-4.017 5.216.468 5.753.5 10-2.203-.637-11.894-5.313-13-2.5.437 11.507.882 23.053 2 34.5-1.93 4.496-2.97-3.116-3-3.5-.421-5.426.76-19.777-1-24-1.702-4.083-21.026-13.533-25.5-16.5l4.5 62.5-7-1.5c-5.013-25.918-7.067-52.061-7-78.5-6.632 4.548-1.653 22.283-2 30-.136 3.014-.572 2.262-3 3.5-.653-9.271-2.261-18.681-2-28 .174-6.215 1.293-12.256 1-18.5 2.081-3.032 3.368-.745 5-.5"/><path fill="#4494b2" d="M871 241c1.145 3.828.207 24.441 0 30l-3 3c.163-8.562-.286-16.981-1-25.5-.621-1.575-5.792-.675-7-.5z"/><path fill="#e2f6fc" d="M868 274c-.475 24.942-5.846 52.621-11 77-6.617-3.296.862-8.925 1-9.5 1.932-8.025.219-15.435 1-22 .18-1.509 7.725-37.702 0-26-1.275 1.931-3.452 38.466-5 46-3.372 16.408-10.882 35.78-17 51.5-1.884-2.882.206-8.861 1-12 7.263-28.708 13.4-63.847 15-93.5.554-10.275-.409-20.708 0-31-1.128-2.106-10.922 6.777-12 .5 4.328-1.516 15.633-6.512 19-7 1.208-.175 6.379-1.075 7 .5.714 8.519 1.163 16.938 1 25.5"/><path fill="#c0e9f6" d="M838 379c-9.076.709-18.418-6.293-27-9 6.571-24.933 11.355-51.591 11-77.5-2.753-3.891-35.742 9.457-41 11.5.137-5.799 22.486-9.318 23-10.5.366-.841-5.632-14.845-5.5-17.5-1.922-1.272-12.997 8.454-14.5 4 18.498-8.867 37.621-18.212 57-25 1.078 6.277 10.872-2.606 12-.5-.409 10.292.554 20.725 0 31-1.6 29.653-7.737 64.792-15 93.5"/><path fill="#f2f9fb" d="M168 334c2.423 12.526 5.29 21.082 9 33 10.904 35.026 25.571 65.642 46 96 5.842 8.681 11.378 16.868 18 25 21.002 25.792 45.107 47.533 72 67 8.553 6.192 17.126 12.273 26 18-4.699-2.739-9.733-4.643-15-8-67.052-42.736-114.934-99.282-144-173.5-4.904-12.521-7.125-30.777-16-39.5-3.66-17.381-6.361-36.298-8-54-.273-2.944.208-6.043 0-9 2.428-1.238 2.864-.486 3-3.5.347-7.717-4.632-25.452 2-30-.067 26.439 1.987 52.582 7 78.5"/><path fill="#287692" d="M154 261c-.261 9.319 1.347 18.729 2 28 .208 2.957-.273 6.056 0 9-.683.438-1.999 4.731-2 5-.434-13.995-2.622-28.013-3-42z"/><path fill="#fdfefe" d="M647.5 265c17.468 14.176 21.644 24.764 24.5 46.5 11.478 87.343-6.821 236.152-61 308-6.793 9.008-16.935 20.283-26.5 26.5 34.35-53.118 53.291-121.871 62.5-184.5 9.302-63.261 12.481-133.784.5-196.5"/><path fill="#0c4d65" d="M871 271c-4.977 133.838-54.1 233.516-168.5 304-15.226 9.381-47.763 22.162-59 31-2.912 2.291-3.107 5.57-5.5 8 .525-1.54.686-4.283 1.5-6l-5.5 3c6.882-10.739 10.468-18.823 16-30l-4 13.5c.473 2.44 5.659.129 7.5-.5 24.098-8.233 66.763-38.776 87.5-55 39.586-30.972 66.697-61.437 89-107 7.543-15.409 13.978-30.478 19-47 3.422-11.257 5.571-22.508 8-34 5.154-24.379 10.525-52.058 11-77z"/><path fill="#b0dfee" d="M200 317c.522 5.341 1.198 10.7 2 16-3.881 8.199-16.433 5.739-25 9.5-1.133 8.03 8.682 21.574 0 24.5-3.71-11.918-6.577-20.474-9-33l7 1.5-4.5-62.5c4.474 2.967 23.798 12.417 25.5 16.5 1.76 4.223.579 18.574 1 24 .03.384 1.07 7.996 3 3.5m32-33c-1.309 1.673-1.392 5.077-3 7-5.632-2.276-12.14-4.306-18-6-.032-4.247-4.517-4.784-.5-10z"/><path fill="#85c3d7" d="M781 304c-13.838 5.376-24.93 11.561-38 18-6.288 3.098-13.252 4.965-18.5 10-2.167-.595-2.055-16.936-2.5-20 20.707-10.632 40.988-21.928 62-32 1.503 4.454 12.578-5.272 14.5-4-.132 2.655 5.866 16.659 5.5 17.5-.514 1.182-22.863 4.701-23 10.5"/><path fill="#499cb9" d="M211 285c5.86 1.694 12.368 3.724 18 6 16.436 6.641 34.232 17.588 50 26-5.019 4.893 10.822 5.243 6 9-10.11-4.473-40.383-19.178-49-10.5-10.204 10.276-2.925 54.685 1 68.5l-5.5-18-21.5 4c-3.192-11.448-6.222-25.253-8-37a306 306 0 0 1-2-16c-1.118-11.447-1.563-22.993-2-34.5 1.106-2.813 10.797 1.863 13 2.5"/><path fill="#81bed2" d="M243 282c19.771 10.471 39.322 21.367 59 32a509 509 0 0 0-3 13c-6.427-3.671-13.495-6.53-20-10-15.768-8.412-33.564-19.359-50-26 1.608-1.923 1.691-5.327 3-7 .362-.462 1.433 1.061 1.5 1 .811-.739.22-3.489 2-4 1.633-.469 5.641 5.863 7.5 1"/><path fill="#479cb9" d="M811 370c-.982 3.728-1.956 8.573-3 12-1.817 5.964-4.803 12.113-7 18-6.883 1.393-12.433-6.697-18-2 3.984-13.134 16.403-73.888-1.5-78-9.126-2.096-33.207 8.147-42.5 12l7-5.5-3-4.5c13.07-6.439 24.162-12.624 38-18 5.258-2.043 38.247-15.391 41-11.5.355 25.909-4.429 52.567-11 77.5"/><path fill="#f9fdfe" d="M857 351c-2.429 11.492-4.578 22.743-8 34l-2.5-4c-7.193 16.556-13.921 33.748-22.5 50-20.319 38.491-48.19 72.429-81 101-12.065 10.506-25.714 22.01-40 29 18.261-14.207 32.436-25.66 49-42 8.283-8.171 15.378-15.056 23-24 27.35-32.093 46.652-64.562 62-104 6.118-15.72 13.628-35.092 17-51.5 1.548-7.534 3.725-44.069 5-46 7.725-11.702.18 24.491 0 26-.781 6.565.932 13.975-1 22-.138.575-7.617 6.204-1 9.5"/><path fill="#1f80a1" d="M717 296c3.027 4.398 4.252 10.845 5 16 .445 3.064.333 19.405 2.5 20 5.248-5.035 12.212-6.902 18.5-10l3 4.5-7 5.5c-12.814 5.313-25.066 11.985-37 19 .994-15.346.439-31.101 1-46.5l2-2.5c3.899-1.977 8.263-3.779 12-6"/><path fill="#084960" d="M164 352c21.211 100.728 72.781 166.015 159 219 10.72 6.588 45.088 23.096 51 29 2.034 2.031 3.739 7.573 4 8-71.288-32.084-140.054-78.901-179-148.5-21.639-38.67-45.138-112.41-45-156.5.001-.269 1.317-4.562 2-5 1.639 17.702 4.34 36.619 8 54"/><path fill="#0e7498" d="M308 298c1.958.979 5.018 1.487 7 3 .01.667.962 1.779 1 4 .209 12.177.276 24.868 1 37-6.919-2.123-12.667-6.772-19-10 .159-1.689.647-3.365 1-5a509 509 0 0 1 3-13c1.098-4.505 1.738-13.721 6-16"/><path fill="#a4ccdc" d="M322 313c5.158 121.295 38.581 336.862 183 367 .157.033 1.882 1.901 2.5 2 5.524.886 15.575-2.277 19.5 2-63.664 4.416-112.902-37.548-148-85-1.914-2.587-2.483-4.693-5-7-3.929-10.767-10.422-20.575-15-31-21.577-72.515-37.467-143.056-42-219-.724-12.132-.791-24.823-1-37 6.32-.522.869 6.163 6 8"/><path fill="#09465a" d="M285 326c4.219 1.866 8.91 3.915 13 6 6.333 3.228 12.081 7.877 19 10 4.533 75.944 20.423 146.485 42 219-3.133-7.135-5.962-21.626-9-26.5-2.677-4.295-28.172-21.167-34.5-26.5-7.069-5.957-15.224-17.468-22.5-22-24.839-30.205-44.02-64.582-56-102-3.925-13.815-11.204-58.224-1-68.5 8.617-8.678 38.89 6.027 49 10.5m-35.5 7c-11.797 21.485-2.736 55.491 5.5 77.5 16.225 43.356 52.776 83.637 90.5 109.5-15.723-51.672-28.272-105.147-29.5-159.5-10.127-6.43-56.876-31.449-66.5-27.5"/><path fill="#38829a" d="M299 327c-.353 1.635-.841 3.311-1 5-4.09-2.085-8.781-4.134-13-6 4.822-3.757-11.019-4.107-6-9 6.505 3.47 13.573 6.329 20 10"/><path fill="#074569" d="M482 623c-61.684-48.273-106.373-174.916-68-247 41.871-78.656 150.648-78.729 193-.5 36.414 67.261.108 172.53-47 227-8.128 9.398-37.373 36.612-49.5 36.5-5.073-.047-23.774-12.302-28.5-16m-43-275c-51.691 49.741-42.417 120.014-18 181 12.974 32.406 36.797 73.262 65.5 94 3.692 2.668 21.542 13.078 25 13 13.079-.297 45.19-32.784 53.5-43.5 39.739-51.243 70.692-141.201 45-204-28.713-70.184-114.523-94.846-171-40.5"/><path fill="#96e8fc" d="M421 529h6c12.772 32.893 38.339 75.434 68.5 95 5.25 3.406 11.579 8.231 17.5 7 6.677-1.388 22.053-14.022 27.5-19 63.899-58.395 111.014-209.864 23.5-267-14.574-9.515-34.407-16.577-52-17-.333-.008-.667.001-1 0 1.332-8.624-10.775-2.055-11.5-2-6.142.464-12.291-.004-19 2-14.786 4.417-26.863 15.48-41.5 20 56.477-54.346 142.287-29.684 171 40.5 25.692 62.799-5.261 152.757-45 204-8.31 10.716-40.421 43.203-53.5 43.5-3.458.078-21.308-10.332-25-13-28.703-20.738-52.526-61.594-65.5-94"/><path fill="#09475c" d="M783 398c-2.785 2.35-17.804 39.146-22 46.5-9.048 15.859-21.265 29.846-32 44.5-5.604 2.903-18.8 18.585-25.5 24-8.046 6.503-28.372 17.918-33.5 24 .158-4.166 1.865-8.066 3-12 .652-.161 1.475-.641 2-1 45.673-31.231 94.234-86.69 102-143.5.948-6.932 3.056-37.973-5.5-40.5-10.824-3.196-53.444 20.553-65 26l-1.5 3-4-1c.418-5.602.636-11.376 1-17 11.934-7.015 24.186-13.687 37-19 9.293-3.853 33.374-14.096 42.5-12 17.903 4.112 5.484 64.866 1.5 78"/><path fill="#15b7dc" d="M511 328c-38.183-.12-80.571 28.092-92 65-1.985.371-4.513 6.941-5 8.5-6.403 20.513-9.448 49.833-2 69.5 1.158 19.244 8.065 40.141 15 58h-6c-24.417-60.986-33.691-131.259 18-181 14.637-4.52 26.714-15.583 41.5-20 6.709-2.004 12.858-1.536 19-2 .725-.055 12.832-6.624 11.5 2"/><path fill="#0c93b8" d="M511 328c.333.001.667-.008 1 0-2.132 7.579 11.819 5.576 17 7 .751 2.792-4.517 17.707-4 18.5.679 1.041 19.628 3.748 20 9.5-42.663-23.567-96.892.934-105 49-3.58 21.223.917 41.143 14 58l-14 14c-4.929-5.492-7.181-8.753-11-15-6.283-17.309-11.627-34.637-10-53.5l-2 6c.038 3.285.917 6.192 1 9.5-5.819 1.599-5.828 20.687-6 27-3.009.435-1.938-2.673-2-4.5-.509-15.101 4.225-45.081 9-60.5 11.429-36.908 53.817-65.12 92-65"/><path fill="#64bcd9" d="M564 345c-2.864 3.907-2.396 1.652-6 2-8.321-5.016-19.622-9.422-29-12-5.181-1.424-19.132.579-17-7 17.593.423 37.426 7.485 52 17"/><path fill="#81bed2" d="M202 333c1.778 11.747 4.808 25.552 8 37 7.276 26.097 41.232 102.327 62 118v1c-3.541-4.132-8.666-8.807-12-13-2.21-2.779-15.583-26.288-17.5-26L223 463c-20.429-30.358-35.096-60.974-46-96 8.682-2.926-1.133-16.47 0-24.5 8.567-3.761 21.119-1.301 25-9.5"/><path fill="#10a8c9" d="M558 347c78.601 47.38 44.972 166.199-46 168v-17c.901-.054 11.264-2.69 10-4 47.511-8.27 73.259-56.277 51-100-2.38-12.369-17.482-25.19-28-31-.372-5.752-19.321-8.459-20-9.5-.517-.793 4.751-15.708 4-18.5 9.378 2.578 20.679 6.984 29 12"/><path fill="url(#d)" d="M513 631c-1.827-38.588-1-77.368-1-116 90.972-1.801 124.601-120.62 46-168 3.604-.348 3.136 1.907 6-2 87.514 57.136 40.399 208.605-23.5 267-5.447 4.978-20.823 17.612-27.5 19" style="fill:url(#d)"/>/&gt;<path fill="#4991a9" d="m324 565-1 6c-86.219-52.985-137.789-118.272-159-219 8.875 8.723 11.096 26.979 16 39.5 29.066 74.218 76.948 130.764 144 173.5"/><path fill="#fdfeff" d="M545 363c10.518 5.81 25.62 18.631 28 31-2.899-5.695-7.677-11.311-12-16-.717-.778-1.263-1.286-2-2-.711-.689-1.163-1.281-2-2-1.071-.92-5.948-6.881-7.5-6 6.501 14.789-1.479 26.517-17.5 26-14.309-.462-33.637-17.48-23-32l9.5-6c-34.637-4.186-70.604 22.685-76.5 57l-2-1c8.108-48.066 62.337-72.567 105-49"/><path fill="#01536c" d="M509 362c-1.902.582-2.783 1.441-4 3-24.5 1.154-45.861 19.363-54 42-14.199 39.49 8.593 83.357 52 87l-2 1c-40.386-5.666-65.908-41.797-59-82 5.896-34.315 41.863-61.186 76.5-57z"/><path fill="#7fd6f1" d="M532 394c2.757 7.685 14.748 11.083 18 18 .125.265-.113.701 0 1-21.501 10.473-51.993-7.017-51-32 .2-5.032 2.879-12.002 6-16 1.217-1.559 2.098-2.418 4-3-10.637 14.52 8.691 31.538 23 32"/><path fill="#2a8cc0" d="M505 365c-3.121 3.998-5.8 10.968-6 16-24.23 2.544-39.611 23.812-41 47h-8c-.436-8.009.151-13.217 1-21 8.139-22.637 29.5-40.846 54-42"/><path fill="#38829a" d="M237 384c11.98 37.418 31.161 71.795 56 102-.795-.495-4.234-3.047-4.5-3-3.5.615-6.297 12.7-16.5 5-20.768-15.673-54.724-91.903-62-118l21.5-4z"/><path fill="#6f90a6" d="M705 369c-.312 53.176-12.303 105.263-30 155-.525.359-1.348.839-2 1 15.824-54.827 23.729-99.723 28-157z"/><path fill="#ace7f7" d="M557 374c-2.044 1.471 1.892 3.804 2 4 .684 1.236.974.934 1 1 2.557 6.419 2.929 17.552 0 24-1.033 2.275-7.219 7.954-10 9-3.252-6.917-15.243-10.315-18-18 16.021.517 24.001-11.211 17.5-26 1.552-.881 6.429 5.08 7.5 6"/><path fill="#85c3d7" d="M838 379c-.794 3.139-2.884 9.118-1 12-15.348 39.438-34.65 71.907-62 104-1.788-1.956-15.45-13.034-16.5-13-1.718.056-19.101 22.534-22.5 26-7.614 7.766-15.805 14.851-24 22 10.49-10.944 21.058-21.512 31-33 15.602-18.027 29.792-36.798 41-58-.353 3.958 3.872-3.267 4-3.5 4.913-8.965 11.342-22.509 15-32 2.312-5.998 6.12-15.408 5-21.5 1.044-3.427 2.018-8.272 3-12 8.582 2.707 17.924 9.709 27 9"/><path fill="#388baa" d="M559 376v2c-.108-.196-4.044-2.529-2-4 .837.719 1.289 1.311 2 2"/><path fill="#001233" d="m561 378-1 1c-.026-.066-.316.236-1-1v-2c.737.714 1.283 1.222 2 2"/><path fill="#0c7790" d="M573 394c22.259 43.723-3.489 91.73-51 100-5.341.93-8.725.852-14 1-1.319.037-2.68.031-4 0-.978-.08-2.038.135-3 0l2-1c25.078 2.104 42.608-9.134 55-30 11.614-19.555 14.43-40.681 2-61 2.929-6.448 2.557-17.581 0-24l1-1c4.323 4.689 9.101 10.305 12 16"/><path fill="#005571" d="M499 381c-.993 24.983 29.499 42.473 51 32 6.354 16.829-2.884 41.038-16.5 52-31.098 25.036-78.002 4.778-75.5-37 1.389-23.188 16.77-44.456 41-47m-7.5 51c-10.109 2.441-11.756 20.926-2 25 22.676 9.47 26.693-30.962 2-25"/><path fill="#86c1d6" d="M849 385c-5.022 16.522-11.457 31.591-19 47l-6-1c8.579-16.252 15.307-33.444 22.5-50z"/><path fill="#a8d8e9" d="M784 439c6.508-12.311 12.125-25.935 17-39 2.197-5.887 5.183-12.036 7-18 1.12 6.092-2.688 15.502-5 21.5-3.658 9.491-10.087 23.035-15 32-.128.233-4.353 7.458-4 3.5"/><path fill="#5babd0" d="M419 393c-4.775 15.419-9.509 45.399-9 60.5.062 1.827-1.009 4.935 2 4.5-.116 4.241-.254 8.774 0 13-7.448-19.667-4.403-48.987 2-69.5.487-1.559 3.015-8.129 5-8.5"/><path fill="#3c869e" d="M801 400c-4.875 13.065-10.492 26.689-17 39-11.208 21.202-25.398 39.973-41 58-5.615-3.408-8.093-11.06-14-8 10.735-14.654 22.952-28.641 32-44.5 4.196-7.354 19.215-44.15 22-46.5 5.567-4.697 11.117 3.393 18 2"/><path fill="#11a6de" d="M558 464c-38.529 41.182-104.801 22.81-108-36h8c-2.502 41.778 44.402 62.036 75.5 37 13.616-10.962 22.854-35.171 16.5-52-.113-.299.125-.735 0-1 2.781-1.046 8.967-6.725 10-9 12.43 20.319 9.614 41.445-2 61"/><path fill="#67c8e4" d="M450 428c3.199 58.81 69.471 77.182 108 36-12.392 20.866-29.922 32.104-55 30-43.407-3.643-66.199-47.51-52-87-.849 7.783-1.436 12.991-1 21"/><path fill="#b6e6ee" d="M442 413c-6.908 40.203 18.614 76.334 59 82 .962.135 2.022-.08 3 0-20.883-.497-36.924-8.152-50-25-13.083-16.857-17.58-36.777-14-58z"/><path fill="#3c97bc" d="M429 469c-7.84-12.825-10.588-21.651-11-38-.083-3.308-.962-6.215-1-9.5l2-6c-1.627 18.863 3.717 36.191 10 53.5"/><path fill="url(#e)" d="M418 431c.412 16.349 3.16 25.175 11 38 3.819 6.247 6.071 9.508 11 15 17.789 19.822 43.777 31.559 72 31 0 38.632-.827 77.412 1 116-5.921 1.231-12.25-3.594-17.5-7-30.161-19.566-55.728-62.107-68.5-95-6.935-17.859-13.842-38.756-15-58-.254-4.226-.116-8.759 0-13 .172-6.313.181-25.401 6-27" style="fill:url(#e)"/>/&gt;<path fill="#5da3bb" d="M830 432c-22.303 45.563-49.414 76.028-89 107l2-7c32.81-28.571 60.681-62.509 81-101z"/><path fill="#78b7cb" d="M491.5 432c24.693-5.962 20.676 34.47-2 25-9.756-4.074-8.109-22.559 2-25"/><path fill="#499cb9" d="m260 476-19 12c-6.622-8.132-12.158-16.319-18-25l19.5-13c1.917-.288 15.29 23.221 17.5 26"/><path fill="#2caece" d="M504 495c1.32.031 2.681.037 4 0-.936 1.807 3.712 3.017 4 3v17c-28.223.559-54.211-11.178-72-31l14-14c13.076 16.848 29.117 24.503 50 25"/><path fill="#38829a" d="M272 489c16.33 19.055 34.852 36.33 54 52.5-6.456.702-10.177 8.512-13 13.5-26.893-19.467-50.998-41.208-72-67l19-12c3.334 4.193 8.459 8.868 12 13"/><path fill="#479cb9" d="M775 495c-7.622 8.944-14.717 15.829-23 24 .123-4.309-3.094 1.158-3.5 1-1.627-.634-10.603-9.93-12.5-12 3.399-3.466 20.782-25.944 22.5-26 1.05-.034 14.712 11.044 16.5 13"/><path fill="#20667d" d="M293 486c7.276 4.532 15.431 16.043 22.5 22 6.328 5.333 31.823 22.205 34.5 26.5 3.038 4.874 5.867 19.365 9 26.5 4.578 10.425 11.071 20.233 15 31-5.406-4.955-2.394.064-6.5-1-.242-.063-2.616-3.783-3-4-8.19-4.634-17.02-9.057-25.5-14-8.874-5.727-17.447-11.808-26-18 2.823-4.988 6.544-12.798 13-13.5-19.148-16.17-37.67-33.445-54-52.5v-1c10.203 7.7 13-4.385 16.5-5 .266-.047 3.705 2.505 4.5 3"/><path fill="#266e84" d="M743 497c-9.942 11.488-20.51 22.056-31 33-2.801 2.443-22.828 17.034-23 18.5-.157 1.339 8.771 12.252 11 13.5-.852.495-7.529 5.149-6.5 7 3.584-1.431 6.154-5.168 8.5-7 .056-.044.243-.411 1-1 14.286-6.99 27.935-18.494 40-29l-2 7c-20.737 16.224-63.402 46.767-87.5 55-1.841.629-7.027 2.94-7.5.5l4-13.5c5.247-10.601 13.783-36.626 20-44 5.128-6.082 25.454-17.497 33.5-24 6.7-5.415 19.896-21.097 25.5-24 5.907-3.06 8.385 4.592 14 8m-54.5 73-.5 1.5.5.5 1.5-1.5zm-3 2-.5 1.5.5.5 1.5-1.5z"/><path fill="#7cc8df" d="M522 494c1.264 1.31-9.099 3.946-10 4-.288.017-4.936-1.193-4-3 5.275-.148 8.659-.07 14-1"/><path fill="#3c859d" d="M752 519c-16.564 16.34-30.739 27.793-49 42-.757.589-.944.956-1 1-.622.09-1.719-.164-2 0-2.229-1.248-11.157-12.161-11-13.5.172-1.466 20.199-16.057 23-18.5 8.195-7.149 16.386-14.234 24-22 1.897 2.07 10.873 11.366 12.5 12 .406.158 3.623-5.309 3.5-1"/><path fill="#d0e4eb" d="M702 562c-2.346 1.832-4.916 5.569-8.5 7-1.029-1.851 5.648-6.505 6.5-7 .281-.164 1.378.09 2 0"/><path fill="#166078" d="M339 573c8.48 4.943 17.31 9.366 25.5 14 .384.217 2.758 3.937 3 4 4.106 1.064 1.094-3.955 6.5 1 2.517 2.307 3.086 4.413 5 7l-5 1c-5.912-5.904-40.28-22.412-51-29l1-6c5.267 3.357 10.301 5.261 15 8"/><path fill="#b7d9e6" d="m688.5 570 1.5.5-1.5 1.5-.5-.5z"/><path fill="#b1d6e5" d="m685.5 572 1.5.5-1.5 1.5-.5-.5z"/><path fill="#4a7691" d="M379 599c35.098 47.452 84.336 89.416 148 85 45.697-3.17 83.381-36.144 107-73l5.5-3c-.814 1.717-.975 4.46-1.5 6-7.851 23.011-42.989 56.268-63.5 69-5.163 3.205-26.285 11.482-28 13-2.119 1.876-2.629 8.823-3.5 12-.778 2.837-1.422 6.098-2 9l.5-18c-17.835 19.008-44.554 12.526-63.5 26-.032-.112-1.634.394-2-.5-.529-1.292.542-5.501 0-6.5-.671-1.237-18.057-1.696-21-4.5 2.218-4.443 18.592-.877 19.5-1.5 1.023-1.016.272-2.745.5-4 .226-1.248-.597-9.526-1-10.5-1.23-2.971-31.877-16.97-38.5-21.5-27.434-18.764-40.789-40.702-57.5-68-.261-.427-1.966-5.969-4-8z"/><path fill="#99e3f7" d="M359 695c-3.609-.726-9.468-.932-12.5-2-5.226-1.84-13.133-10.797-14-11-7.977-1.865-6.695 10.71-11 13-5.381 2.862-16.703-.691-22.5-1l-7-3.5c17.906-1.622 27.363-14.431 34.5-29.5l3.5 10.5 1.5-13.5c5.951 18.198 15.435 29.191 34.5 33.5z"/><path fill="#6dbfdc" d="M359 695c.831.167 4.462-.705 3.5 1-5.394 1.298-12.997 2.738-17.5 6l-24.5 1-3.5 8c-5.677-8.472-15.475-13.383-25.5-15-1.301-2.536 7.112-2.021 7.5-2 5.797.309 17.119 3.862 22.5 1 4.305-2.29 3.023-14.865 11-13 .867.203 8.774 9.16 14 11 3.032 1.068 8.891 1.274 12.5 2"/><path fill="#91c1d4" d="M541 717c-.588 2.95-1.285 5.939-1 9-18.554 3.797-40.02 4.154-61 1-.022-.11-.459-.119-1-2 18.946-13.474 45.665-6.992 63.5-26z"/><path fill="#59accd" d="M345 702c-1.165.844-6.958 7.941-8 9.5-2.566 3.84-6.835 20.952-9 12l-2.5 10.5c-2.102-6.637-4.692-17.317-8.5-23l3.5-8z"/><path fill="#d9eff7" d="M594 717c20.158 9.438-3.503 15.274-12 18-.968-5.717-9.495-1.847-11.5-2-1.017-.078-3.463-3.066-5-3-2.641.113-12.576 4.732-16 5-14.864 1.166-30.124.492-45 2-1.1-2.069-1.048-2.278 1-3 1.415-.499 25.056.56 30 0 10.523-1.192 21.46-3.561 31-8l1-4c-14.709 11.484-36.957 9.911-55 11-1.502-2.537.567-1.74 2-2 6.061-1.1 42.183-.576 41.5-10.5l-9.5-5.5c-.711 3.199 8.13 2.25 7.5 6.5-.656 4.425-11.677 4.025-14 4.5-.285-3.061.412-6.05 1-9 .578-2.902 1.222-6.163 2-9 2.517.692 1.476-1.829 3-2 .327 8.178 17.324 3.881 24.5 5 4.252.663 20.074 4.396 23.5 6m-19.5 5c-.327-.021-4.999 2.868-4.5 4.5l5.5 2.5c1.65-.064 3.038-6.742-1-7"/><path fill="#9ac4d6" d="M594 716v1c-3.426-1.604-19.248-5.337-23.5-6-7.176-1.119-24.173 3.178-24.5-5 8.443-.947 39.58 6.103 48 10"/><path fill="#334554" d="M475 708c-.228 1.255.523 2.984-.5 4-.908.623-17.282-2.943-19.5 1.5 2.943 2.804 20.329 3.263 21 4.5-10.918 5.834-13.028 1.376-23-1-5.856-1.395-13.431-1.53-18.5-5z"/><path fill="#81a6b6" d="M582 735c-10.293 3.302-20.254 5.709-31 7-9.126.165-52.099 4.864-57.5 2-1.098-.583.047-4-1-4-1.262 0 2.693 3.661-6 4-9.846.384-11.302-4.801-12-5-.531-.151-10.352-1.047-11-1-.497.036-2.594 7.318-5-1-3.725 1.708-4.756 2.173-9 1-3.169-.876-1.507-2.852-2-3-3.112-.937-11.486-.632-13-4 8.406 1.077 17.159 4.002 25.5 5 2.675.32 35.209 4.046 23.5-2-2.698-1.393-5.215 2.748-3-3-4.29 2.469-3.32-.97-3.5-1 1.433-.339 2.297-1.535 2-3 20.98 3.154 42.446 2.797 61-1 2.323-.475 13.344-.075 14-4.5.63-4.25-8.211-3.301-7.5-6.5l9.5 5.5c.683 9.924-35.439 9.4-41.5 10.5-1.433.26-3.502-.537-2 2 18.043-1.089 40.291.484 55-11l-1 4c-9.54 4.439-20.477 6.808-31 8-4.944.56-28.585-.499-30 0-2.048.722-2.1.931-1 3 14.876-1.508 30.136-.834 45-2 3.424-.268 13.359-4.887 16-5 1.537-.066 3.983 2.922 5 3 2.005.153 10.532-3.717 11.5 2m-89.5-2c-1.147 3.149 10.228 4.021 10.5 3.5 2.311-4.422-9.531-1.153-10.5-3.5"/><path fill="#2b2e3e" d="M599 718c1.443 1.129 4.808 3.746 5 5.5 1.348 12.351-43.082 19.205-52 20.5l-1-2c10.746-1.291 20.707-3.698 31-7 8.497-2.726 32.158-8.562 12-18v-1c1.386.642 3.475.807 5 2"/><path fill="#abe5f6" d="M611 730c.026.329-.007.668 0 1-3.334-5.18-7.153 2.989-11.5 3l5.5 2.5c-17.247 5.269-35.186 7.876-53 11l54-1.5c-15.029 8.254-58.032 9.518-76 10l-10-1.5 8.5-.5c-5.382-7.837-24.858 4.674-25.5-6 14.776-.037 34.316-1.867 49-4 8.918-1.295 53.348-8.149 52-20.5-.192-1.754-3.557-4.371-5-5.5 1.366-4.603 11.136 2.938 12 4.5 1.927 3.485-.085 6.428 0 7.5"/><path fill="#426073" d="M476 718c.542.999-.529 5.208 0 6.5.366.894 1.968.388 2 .5.541 1.881.978 1.89 1 2 .297 1.465-.567 2.661-2 3-4.75-.792-12.911 1.892-18.5-3l1.5 9c-8.341-.998-17.094-3.923-25.5-5 1.514 3.368 9.888 3.063 13 4 .493.148-1.169 2.124 2 3 4.244 1.173 5.275.708 9-1 2.406 8.318 4.503 1.036 5 1 .648-.047 10.469.849 11 1 .698.199 2.154 5.384 12 5 8.693-.339 4.738-4 6-4 1.047 0-.098 3.417 1 4 5.401 2.864 48.374-1.835 57.5-2l1 2c-14.684 2.133-34.224 3.963-49 4-22.943.058-60.561-3.719-81-13 5.374-.84 18.371 8.583 19.5 2-.689-.612-12.021-1.447-13-2-2.887-1.631-.195-3.625-1.5-6-1.203-2.189-6.165-7.4-2.5-9 1.169-.511 22.187-1 25.5-1l4.5 6c-.143-1.418-2.381-4.88-2.5-6-.098-.915 1.12-1.1 1-2 9.972 2.376 12.082 6.834 23 1"/><path fill="#24465c" d="M452 719c.119 1.12 2.357 4.582 2.5 6l-4.5-6z"/><path fill="#3a5366" d="M427 729c1.305 2.375-1.387 4.369 1.5 6 .979.553 12.311 1.388 13 2-1.129 6.583-14.126-2.84-19.5-2-4.171-1.894-8.44-2.474-11-7 .343-.354.258-6.696 4.5-8 7.186-2.21 4.358 8.057 11.5 9"/><path fill="#a8e4f3" d="M574.5 722c4.038.258 2.65 6.936 1 7l-5.5-2.5c-.499-1.632 4.173-4.521 4.5-4.5"/><path fill="#517386" d="M477 730c.18.03-.79 3.469 3.5 1-2.215 5.748.302 1.607 3 3 11.709 6.046-20.825 2.32-23.5 2l-1.5-9c5.589 4.892 13.75 2.208 18.5 3"/><path fill="#61cdef" d="M411 728c2.56 4.526 6.829 5.106 11 7 20.439 9.281 58.057 13.058 81 13 .642 10.674 20.118-1.837 25.5 6l-8.5.5 10 1.5c-29.729.797-73.917.93-102.5-6-12.08-2.929-22.829-4.927-18.5-20 .12-.074 1.68-1.669 2-2"/><path fill="#1f2433" d="M409 730c-4.329 15.073 6.42 17.071 18.5 20 28.583 6.93 72.771 6.797 102.5 6 17.968-.482 60.971-1.746 76-10 9.19-5.048 4.773-6.945 5-14 3.849 2.654 5.975 8.369 4 12.5-6.919 14.472-86.41 24.634-103 25.5-22.24 1.161-44.983-.013-67-3-15.561-2.111-53.158-8.982-63-21.5-.943-1.199-2.332-3.81-2-5.5 6.738-6.578 11.195-3.063 13.5-4 1.594-.648 4.779-4.093 7-5 2.895-1.182 8.136-.776 8.5-1"/><path fill="#f0f9fc" d="M611 731c.007.332.011.668 0 1-.227 7.055 4.19 8.952-5 14l-54 1.5c17.814-3.124 35.753-5.731 53-11l-5.5-2.5c4.347-.011 8.166-8.18 11.5-3"/><path fill="url(#f)" d="M646 753c-1.354 23.745 4.411 48.305 11 71-57.118 32.048-233.45 32.323-291.5 2-5.055-2.641-7.244-5.751-11.5-9-.259-2.935 1.233-4.982 2-8 4.268-16.8 12.581-40.687 19-57 18.291 11.482 39.755 16.207 61 19 26.19 3.443 53.087 3.393 79.5 4l-3.5-5c16.59-.866 96.081-11.028 103-25.5 1.975-4.131-.151-9.846-4-12.5.011-.332.007-.668 0-1s.026-.671 0-1c39.255 5.599 44.84 20.84 3.5 32-8.732 2.357-49.351 6.378-52 8-.924.565-2.385 2.445-1 3 27.115-3.829 63.121-2.873 83-24 .731.095 1.219 3.383 1.5 4m-195 68c1.716 4.27 6.924 6.076 11 7 10.331 2.341 22.412 1.659 33 2-.435 3.009 2.671 1.938 4.5 2 12.133.41 58.434 1.316 67-4 12.247-7.601 10.774-41.553-6-45-5.409-1.112-97.145-.564-102 1-13.107 4.223-11.599 22.494-10.5 33.5.023.229 1.94 5.802 3 3.5" style="fill:url(#f)"/>/&gt;<path fill="#adc5ce" d="M492.5 733c.969 2.347 12.811-.922 10.5 3.5-.272.521-11.647-.351-10.5-3.5"/><path fill="#5c606b" d="M445 767c-2.304 3.904-9.235-.092-9 4-21.245-2.793-42.709-7.518-61-19 2.13-5.412-.909-6.232 5-12-.332 1.69 1.057 4.301 2 5.5 9.842 12.518 47.439 19.389 63 21.5"/><path fill="#3e4b60" d="M663 807c.918 3.43 3.363 8.006 3 11-3.276 1.792-5.687 4.141-9 6-6.589-22.695-12.354-47.255-11-71 5.749 12.637 13.199 39.802 17 54"/><path fill="#898f9b" d="m512 770 3.5 5c-26.413-.607-53.31-.557-79.5-4-.235-4.092 6.696-.096 9-4 22.017 2.987 44.76 4.161 67 3"/><path fill="#182b42" d="M495 830c4.309.139 8.686-.04 13 0 12.63.117 55.64 3.321 62-7.5 2.097-3.567 1.604-5.739 2-9.5 2.818-26.761-5.752-27.163-28-28-13.502-.508-74.755-1.618-84 1-12.25 3.469-12.834 25.459-9 35-1.06 2.302-2.977-3.271-3-3.5-1.099-11.006-2.607-29.277 10.5-33.5 4.855-1.564 96.591-2.112 102-1 16.774 3.447 18.247 37.399 6 45-8.566 5.316-54.867 4.41-67 4-1.829-.062-4.935 1.009-4.5-2"/><path fill="url(#g)" d="M544 785v3c-1.748-.08-16.371.923-17 1.5-.711.653-6.881 16.659-7 18-.762 8.608 2.755 10.591 5 18-1.981 4.2-15.762-1.969-17 4.5-4.314-.04-8.691.139-13 0-10.588-.341-22.669.341-33-2-1.903-5.898-7.981-9.976-9-16.5-1.421-9.099.917-19.932 10.5-23.5l-3.5-2c9.245-2.618 70.498-1.508 84-1" style="fill:url(#g)"/>/&gt;<path fill="#b5edfb" d="M572 813c-3.959 8.152-7.827 14.943-18.5 14 16.837-11.107 11.239-38.053-9.5-39v-3c22.248.837 30.818 1.239 28 28"/><path fill="#0f9fc8" d="m460 786 3.5 2c-9.583 3.568-11.921 14.401-10.5 23.5 1.019 6.524 7.097 10.602 9 16.5-4.076-.924-9.284-2.73-11-7-3.834-9.541-3.25-31.531 9-35"/><path fill="#7ad5ef" d="M544 788c20.739.947 26.337 27.893 9.5 39 10.673.943 14.541-5.848 18.5-14-.396 3.761.097 5.933-2 9.5-6.36 10.821-49.37 7.617-62 7.5 1.238-6.469 15.019-.3 17-4.5-2.245-7.409-5.762-9.392-5-18 .119-1.341 6.289-17.347 7-18 .629-.577 15.252-1.58 17-1.5"/><path fill="#676c7a" d="M555 863a855 855 0 0 1-84 0l-9-2.5 1-8.5c41.72 2.147 168.021 3.075 197.5-26 1.455-1.435 5.292-6.282 5.5-8 .363-2.994-2.082-7.57-3-11 18.347 5.961 47.061 16.514 15.5 32-32.044 15.723-74.634 12.894-109 18-3.706.551-11.508 3.448-14.5 6"/><path fill="#373a4b" d="M356 809c-.767 3.018-2.259 5.065-2 8 .998 11.299 28.954 21.164 38 24-3.376 1.573-1.146 8.173-4.5 9-5.754 1.419-51.465-11.869-57-20-3.227-.86-2.377 1.898-2.5 2-1.042.865-1.164 1.674-2 3 .187-1.594-.257-3.474 0-5 2.832-16.84 17.747-13.779 30-21"/><path fill="#0a0a19" d="M657 824c3.313-1.859 5.724-4.208 9-6-.208 1.718-4.045 6.565-5.5 8-29.479 29.075-155.78 28.147-197.5 26-23.29-1.198-48.894-4.071-71-11-9.046-2.836-37.002-12.701-38-24 4.256 3.249 6.445 6.359 11.5 9 58.05 30.323 234.382 30.048 291.5-2"/><path fill="url(#h)" d="M695 830c-.145 1.732.535 3.391 1 5-4.669 12.638 9.998 32.33-1.5 42-21.183 17.816-163.602 23.505-196 23-57.192-.891-121.936-5.465-174.5-26.5 1.205-12.153.609-26.657 2-38.5.836-1.326.958-2.135 2-3 39.369 25.343 96.602 28.719 143 31a855 855 0 0 0 84 0c29.905-1.467 99.57-6.767 124.5-21 2.388-1.363 13.094-12.697 14-13 1.568-.525 1.411 1.013 1.5 1" style="fill:url(#h)"/>/&gt;<path fill="#50515e" d="M392 841c22.106 6.929 47.71 9.802 71 11l-1 8.5 9 2.5c-46.398-2.281-103.631-5.657-143-31 .123-.102-.727-2.86 2.5-2 5.535 8.131 51.246 21.419 57 20 3.354-.827 1.124-7.427 4.5-9"/><path fill="#0a0916" d="M696 835c.77 2.663 2.235 5.459 3 8 .307 1.019.733 2.105 1 3 .513 1.715 1.674 5.557 2 7 2.096 9.283 5.279 15.424 0 24.5-8.556 14.708-59.415 21.348-76 23.5-67.304 8.734-141.535 8.176-209 1-21.527-2.29-76.131-8.535-92.5-21-10.464-7.969-7.588-15.94-5.5-27 .3-1.587 1.443-5.122 2-7 .386-1.304.755-3.356 1-4a43 43 0 0 1 4-8c-1.391 11.843-.795 26.347-2 38.5 52.564 21.035 117.308 25.609 174.5 26.5 32.398.505 174.817-5.184 196-23 11.498-9.67-3.169-29.362 1.5-42"/></svg>