<svg xmlns="http://www.w3.org/2000/svg" width="1024" height="1024"><defs><linearGradient id="a" x1="725.719" x2="531.169" y1="196.09" y2="314.978" gradientUnits="userSpaceOnUse"><stop offset="0%" style="stop-color:#fdfdfd"/><stop offset="100%" style="stop-color:#c7dbe4"/></linearGradient></defs><defs><linearGradient id="b" x1="580.02" x2="355.298" y1="465.164" y2="546.533" gradientUnits="userSpaceOnUse"><stop offset="0%" style="stop-color:#c7dae2"/><stop offset="100%" style="stop-color:#93b1c0"/></linearGradient></defs><defs><linearGradient id="c" x1="409.729" x2="278.933" y1="426.874" y2="580.809" gradientUnits="userSpaceOnUse"><stop offset="0%" style="stop-color:#799bab"/><stop offset="100%" style="stop-color:#537a8c"/></linearGradient></defs><defs><linearGradient id="d" x1="764.763" x2="553.699" y1="405.125" y2="609.791" gradientUnits="userSpaceOnUse"><stop offset="0%" style="stop-color:#49c3df"/><stop offset="100%" style="stop-color:#035e83"/></linearGradient></defs><defs><linearGradient id="e" x1="700.103" x2="603.643" y1="467.304" y2="540.354" gradientUnits="userSpaceOnUse"><stop offset="0%" style="stop-color:#64c6e0"/><stop offset="100%" style="stop-color:#298fb1"/></linearGradient></defs><defs><linearGradient id="f" x1="617.911" x2="565.352" y1="520.106" y2="573.608" gradientUnits="userSpaceOnUse"><stop offset="0%" style="stop-color:#027b9e"/><stop offset="100%" style="stop-color:#005e84"/></linearGradient></defs><defs><linearGradient id="g" x1="387.182" x2="443.51" y1="787.925" y2="813.832" gradientUnits="userSpaceOnUse"><stop offset="0%" style="stop-color:#2e606f"/><stop offset="100%" style="stop-color:#547787"/></linearGradient></defs><path fill="#043b58" d="M768 239c-3.005.073-3.486-.781-2 2.5 2.577 5.689 14.637 17.654 19 24 11.872 17.27 24.962 38.547 29.5 58.5l-1.5-2c-18.736-47.526-64.906-109.561-111-133 .359-2.179-1.935-3.246-3.5-4-48.451-23.36-145.218-23.019-202-5-12.811 4.065-58.696 22.447-67 29-1.373 1.084-3.653 3.034-3.5 5-28.064 17.874-64.834 58.033-77 89-21.965 1.939-44.586 1.198-66.5 3-11.79.969-41.869 2.619-51.5 6-5.168 1.814-5.023 2.535-7 7.5-28.099 70.565-6.749 190.634 28 256.5 2.653 5.029 4.803 10.251 8 15 10.378 15.416 32.007 29.401 47.5 41 70.215 52.568 149.681 106.739 232.5 136 52.783 18.649 154.88 57.533 188-8 .878-4.972-17.13-1.937-11-8 7.5 1.53 14.662 3.477 22.5 1 1.605.917-6.352 9.131-7.5 11-31.062 50.601-66.024 45.658-120.5 35-5.416-1.06-32.632-10.683-34.5-7.5-.191.326-.627 6.012-1 7.5h-1c-2.723-3.789 2.816-7.083-.5-10-2.821-2.482-42.438-14.006-50-17-66.072-26.161-109.631-61.573-169-95-2.122-1.195-3.895-3.077-6.5-1-.786-3.149.027-2.347-2.5-5-6.014-6.313-30.916-20.217-40-27-33.444-24.971-48.914-32.374-67.5-71.5-99.481-209.42 8.748-456.421 254.5-462.5 93.467-2.312 214.926 58.514 274.5 129m-528 61c25.752 1.54 70.263-.091 96-3 2.367-.268 9.917-1.009 11-2.5.179-.246.454-5.004 1-6 26.854-48.997 80.577-90.477 133-108.5 55.146-18.959 120.271-22.999 177.5-12C512.242 68.258 291.378 130.262 231 299.5c.728 1.014 7.266.396 9 .5"/><path fill="#7bbfde" d="M481 180c-47.654-32.453-119.742-10.678-163.5 20-31.535 22.108-57.787 55.059-73.5 90-1.467 3.262-3.674 6.245-4 10-1.734-.104-8.272.514-9-.5C291.378 130.262 512.242 68.258 658.5 168c-57.229-10.999-122.354-6.959-177.5 12m6.5-51c-49.453.488-101.08 10.881-142.5 38.5 80.11-44.03 174.46-36.797 261.5-20.5-13.008-6.354-30.518-9.685-45-12-22.627-3.617-51.162-6.225-74-6"/><path fill="#fafdfe" d="M487.5 129c22.838-.225 51.373 2.383 74 6 14.482 2.315 31.992 5.646 45 12-87.04-16.297-181.39-23.53-261.5 20.5 41.42-27.619 93.047-38.012 142.5-38.5"/><path fill="#245173" d="M481 180c-52.423 18.023-106.146 59.503-133 108.5-.546.996-.821 5.754-1 6-1.083 1.491-8.633 2.232-11 2.5l-92-7c15.713-34.941 41.965-67.892 73.5-90 43.758-30.678 115.846-52.453 163.5-20"/><path fill="#0e4258" d="M702 189c-37.091-18.861-95.467-21.9-136.5-19-43.925 3.105-83.024 15.884-122.5 34.5 37.029 36.566 73.88 74.201 105 116 4.372 5.872 8.45 15.254 13 20.5 1.345 1.551 3.16 4.825 5.5 5 42.09-16.448 83.538-27.054 128.5-31 32.052-2.813 63.712-2.175 95.5 3 6.13.998 15.978 5.394 21 6 1.686.204 1.669-.684 1.5-2l1.5 2c-4.538-19.953-17.628-41.23-29.5-58.5-4.363-6.346-16.423-18.311-19-24-1.486-3.281-1.005-2.427 2-2.5 15.141 17.914 50.963 66.362 54 88.5 1.684 12.28-8.367 21.228-9 28.5-5.089 2.213-4.347-3.974-5-7-.661-3.063-.266-8.292-1-10 11.74-5.879 5.522-11.111-4-14-31.486-10.493-67.996-8.802-101-6-30.338 2.575-63.239 8.756-92.5 17-9.388 2.645-79.542 27.965-82 32-1.547 2.539 4.316 13.339 3.5 17-70.467 39.033-51.717 127.154-24 189-2.264 1.71 3.164 8.08 3 8.5-.361.922-3.66-.421-4 3-.664 6.687 35.336 53.562 42 61 34.909 38.967 79.582 68.48 129 85.5 3.25 1.119 6.703 1.99 10 3 .228 9.01 22.031 15.374 30 17-6.13 6.063 11.878 3.028 11 8-37.874-9.208-71.761-19.13-106-38-94.728-52.208-169.19-156.149-161-268.5 5.275-72.355 46.061-74.479 95-104.5.407-.25 4.063-.135 5-1.5-31.707-53.725-79.379-96.071-120.5-142.5-5.127 2.556-9.703 5.945-14.5 9-.153-1.966 2.127-3.916 3.5-5 8.304-6.553 54.189-24.935 67-29 56.782-18.019 153.549-18.36 202 5 1.565.754 3.859 1.821 3.5 4"/><path fill="url(#a)" d="M702 189c46.094 23.439 92.264 85.474 111 133 .169 1.316.186 2.204-1.5 2-5.022-.606-14.87-5.002-21-6-31.788-5.175-63.448-5.813-95.5-3-.15-2.771 1.287-2.839 3.5-3 3.959-.289 28.274.01 28.5-2.5-56.439-6.38-114.142 9.878-166 31.5-4.55-5.246-8.628-14.628-13-20.5-31.12-41.799-67.971-79.434-105-116 39.476-18.616 78.575-31.395 122.5-34.5 41.033-2.9 99.409.139 136.5 19" style="fill:url(#a)"/>/&gt;<path fill="#f4f9fa" d="M556 349c-.575-2.762-3.253-3.874-4-5-31.322-47.224-74.347-84.836-109.5-129-59.388 31.107-96.752 97.649-111.5 161.5-2.499.507-1.125-5.014-1-6 2.169-17.05 11.012-42.917 17-59.5 1.156-3.202 1.814-7.526 2-8 12.166-30.967 48.936-71.126 77-89 4.797-3.055 9.373-6.444 14.5-9 41.121 46.429 88.793 88.775 120.5 142.5-.937 1.365-4.593 1.25-5 1.5"/><path fill="url(#b)" d="M552 344c-44.951 22.007-87.826 27.814-99 84.5-24.48 124.188 60.555 241.492 165 297.5 29.478 15.807 59.097 29.209 92 36.5.781 1.54-10.281 7.086-11.5 7.5-46.938 15.957-149.517-43.524-184-76-40.927-38.545-62.519-96.836-91.5-144 1.441-12.989-2.534-62.15-9-72.5-2.005-3.209-2.295-2.669-6-2.5-9.778-57.536-65.119-104.461-120-63l9-98c16.592-.883 33.239-4.02 50-3-5.988 16.583-14.831 42.45-17 59.5-.125.986-1.499 6.507 1 6 14.748-63.851 52.112-130.393 111.5-161.5 35.153 44.164 78.178 81.776 109.5 129m-154.5-45c-37.769 4.296-37.193 64.373 0 70 53.645 8.117 51.281-75.833 0-70" style="fill:url(#b)"/>/&gt;<path fill="#467b9d" d="M336 297c-25.737 2.909-70.248 4.54-96 3 .326-3.755 2.533-6.738 4-10z"/><path fill="#14313f" d="M397.5 299c51.281-5.833 53.645 78.117 0 70-37.193-5.627-37.769-65.704 0-70m0 4c-36.77 5.647-30.322 68.646 12 63 37.556-5.01 30.683-69.556-12-63"/><path fill="#aed8e7" d="M349 303c-.186.474-.844 4.798-2 8-16.761-1.02-33.408 2.117-50 3-21.943 1.168-44.065 1.127-66 2 .24-1.22-.155-2.726 0-4 9.631-3.381 39.71-5.031 51.5-6 21.914-1.802 44.535-1.061 66.5-3"/><path fill="#ebeff0" d="M397.5 303c42.683-6.556 49.556 57.99 12 63-42.322 5.646-48.77-57.353-12-63m0 4c-33.989 5.433-24.075 64.067 14 55 30.71-7.313 23.112-60.932-14-55"/><path fill="#14232a" d="M397.5 307c37.112-5.932 44.71 47.687 14 55-38.075 9.067-47.989-49.567-14-55m30.5 30c.816-8.265-1.437-6.533-3-10-16.071-35.655-60.705-4.979-39 22.5 12.569 15.912 40.041 7.336 42-12.5"/><path fill="#c6dae0" d="M695 315c-44.962 3.946-86.41 14.552-128.5 31-2.34-.175-4.155-3.449-5.5-5 51.858-21.622 109.561-37.88 166-31.5-.226 2.51-24.541 2.211-28.5 2.5-2.213.161-3.65.229-3.5 3"/><path fill="#77d7eb" d="M425 327v13.5l3-3.5c-1.959 19.836-29.431 28.412-42 12.5-21.705-27.479 22.929-58.155 39-22.5m-27-10c-2.772.95-1.872 1.181-3 2-21.666 11.615-3.877 42.085 17.5 31 16.862-8.744 5.313-39.791-14.5-33"/><path fill="#87b3c6" d="M231 316c-9.413 47.816-18.259 79.655-14 130.5 3.763 44.919 18.819 88.009 35 129.5-34.749-65.866-56.099-185.935-28-256.5 1.977-4.965 1.832-5.686 7-7.5-.155 1.274.24 2.78 0 4"/><path fill="url(#c)" d="m297 314-9 98c-66.814 50.477-41.862 206.682 53.5 189 52.234-9.685 74.262-80.329 66.5-126 3.705-.169 3.995-.709 6 2.5 6.466 10.35 10.441 59.511 9 72.5-3.741 33.716-28.109 58.63-55 76.5 22.9 33.995 49.998 65.035 83 89.5-4.713-2.824-12.906-5.501-18.5-9-58.658-36.688-112.331-81.538-172.5-116-3.197-4.749-5.347-9.971-8-15-16.181-41.491-31.237-84.581-35-129.5-4.259-50.845 4.587-82.684 14-130.5 21.935-.873 44.057-.832 66-2" style="fill:url(#c)"/>/&gt;<path fill="#014159" d="M395 319c-5.795 4.208-7.85 10.872-4.5 17 4.566-13.578 15.433-8.52 22-11 7.68-2.901-13.367-9.565-14.5-8 19.813-6.791 31.362 24.256 14.5 33-21.377 11.085-39.166-19.385-17.5-31"/><path fill="#0385af" d="M398 317c1.133-1.565 22.18 5.099 14.5 8-6.567 2.48-17.434-2.578-22 11-3.35-6.128-1.295-12.792 4.5-17 1.128-.819.228-1.05 3-2"/><path fill="#4293ab" d="M803 325c-27.305-8.284-68.069-6.549-96.5-4-1.672.15-5.008.837-4.5-2 33.004-2.802 69.514-4.493 101 6"/><path fill="#296073" d="M702 319c-.508 2.837 2.828 2.15 4.5 2 28.431-2.549 69.195-4.284 96.5 4 9.522 2.889 15.74 8.121 4 14-2.654-6.174-23.086-7.4-29.5-8-66.238-6.192-140.434 9.302-201.5 34-13.919 5.629-32.076 12.841-45 20 .816-3.661-5.047-14.461-3.5-17 2.458-4.035 72.612-29.355 82-32 29.261-8.244 62.162-14.425 92.5-17"/><path fill="#20769b" d="m428 337-3 3.5V327c1.563 3.467 3.816 1.735 3 10"/><path fill="#0ba5c5" d="M807 339c.734 1.708.339 6.937 1 10-2.042-1.296-6.834-.773-8-1-1.715-.333-3.823-1.704-6-2-5.995-.816-11.925-1.36-18-1-.884-2.295-.725-4.485-2.5-6-10.211-.372-20.353.285-30.5 1-.332.023-.669-.026-1 0 .12-3.176-9.328-2.247-10.5-2-26.875 5.677-57.816 12.758-86.5 18-25.141 4.594-40.888 4.491-67 13l-2-4c61.066-24.698 135.262-40.192 201.5-34 6.414.6 26.846 1.826 29.5 8"/><path fill="#1c93b7" d="M742 340c-5.128.4-10.503-.962-15.5 1-.895 1.039 1.923 6.093 2.5 8-26.401 2.286-53.017 5.674-79 11-11.192 2.294-21.088 4.71-32 8 3.263-8.294 21.217-3.981 27-12 28.684-5.242 59.625-12.323 86.5-18 1.172-.247 10.62-1.176 10.5 2"/><path fill="#e7f9fd" d="M776 345c17.787 46.157 15.666 141.584 10 191-6.798 59.284-22.278 120.741-49 174 6.794-17.66 10.757-36.583 15-55 23.573-102.312 23.721-214.754-9-315 10.147-.715 20.289-1.372 30.5-1 1.775 1.515 1.616 3.705 2.5 6"/><path fill="#9adaec" d="M742 340c.331-.026.668.023 1 0 32.721 100.246 32.573 212.688 9 315l-12-3c18.044-94.93 17.003-210.446-11-303-.577-1.907-3.395-6.961-2.5-8 4.997-1.962 10.372-.6 15.5-1"/><path fill="#97b4c1" d="M556 349c-48.939 30.021-89.725 32.145-95 104.5-8.19 112.351 66.272 216.292 161 268.5l-4 4c-104.445-56.008-189.48-173.312-165-297.5 11.174-56.686 54.049-62.493 99-84.5.747 1.126 3.425 2.238 4 5"/><path fill="#8bd9ef" d="M794 346c-2.52 1.483-1.404 5.183-1 7.5 11.282 64.671 12.978 117.011 4 182.5h-11c5.666-49.416 7.787-144.843-10-191 6.075-.36 12.005.184 18 1"/><path fill="#aae8fa" d="M800 348c12.925 53.289 12.905 108.701 7 163-2.48 22.803-5.794 45.694-11 68-12.567 53.846-36.852 94.617-53 143.5-3.579 10.836.113 14.043-3 23.5-11.23.764-17.654-1.745-28-4-1.698-1.238-4.235-3.142-6-4 3.156-.532 6.13 1.513 9 2 7.177 4.27 16.483 3.955 24.5 4l-1.5-15c10.825-31.196 27.83-63.071 38-96.5 9.054-29.762 16.774-65.674 21-96.5 8.978-65.489 7.282-117.829-4-182.5-.404-2.317-1.52-6.017 1-7.5 2.177.296 4.285 1.667 6 2"/><path fill="#34b2db" d="M808 349c.653 3.026-.089 9.213 5 7-.325 3.73 4.479 18.896 5 24.5 3.497 37.656 4.489 75.737 1 113.5-7.297 4.884 1.19 20.689-12 17 5.905-54.299 5.925-109.711-7-163 1.166.227 5.958-.296 8 1"/><path fill="url(#d)" d="M729 349c28.003 92.554 29.044 208.07 11 303-5.097 26.814-12.418 54.39-23 79.5.193.425 7.927 2.337 9 2.5 3.417.52 5.54.577 9 0-.653 1.693.846 5.162-.5 7-.801.568-17.051-.584-19.5-1-2.87-.487-5.844-2.532-9-2-9.256-4.5-19.446-5.425-28.5-9-88.577-34.972-165.655-117.144-185.5-211.5-18.366-87.324 4.726-122.016 86-148.5 26.112-8.509 41.859-8.406 67-13-5.783 8.019-23.737 3.706-27 12-4.727 1.425-32.595 9.335-33 12.5 49.279 88.791 64.247 194.963 68.5 295.5 36.826-101.146 30.233-214.809-3.5-316 25.983-5.326 52.599-8.714 79-11M552 518c-5.61 16.831-7.862 32.001-3 49.5 3.353 12.069 19.779 37.045 33 36.5 8.157-.336-2.87 3.899 8.5 3 48.979-3.873 49.409-77.741 23.5-109-24.917-30.063-51.894-10.321-62 20" style="fill:url(#d)"/>/&gt;<path fill="url(#e)" d="M650 360c33.733 101.191 40.326 214.854 3.5 316-4.253-100.537-19.221-206.709-68.5-295.5.405-3.165 28.273-11.075 33-12.5 10.912-3.29 20.808-5.706 32-8" style="fill:url(#e)"/>/&gt;<path fill="#16c3e3" d="M578 369c-81.274 26.484-104.366 61.176-86 148.5 19.845 94.356 96.923 176.528 185.5 211.5 9.054 3.575 19.244 4.5 28.5 9 1.765.858 4.302 2.762 6 4-8.988-1.959-16.319-4.341-25-7-3.297-1.01-6.75-1.881-10-3-20.073-12.078-41.907-21.001-61.5-34-45.258-30.028-86.204-74.25-108.5-124-27.717-61.846-46.467-149.967 24-189 12.924-7.159 31.081-14.371 45-20z"/><path fill="#0f4e6b" d="M408 475c7.762 45.671-14.266 116.315-66.5 126-95.362 17.682-120.314-138.523-53.5-189 54.881-41.461 110.222 5.464 120 63m-148 8c-.519 1.142-2.784 2.128-3 3-.912 3.677-.497 27.645 0 32.5 2.561 25.009 15.943 50.292 36 65.5 25.993 19.709 52.343 16.545 77-4 7.898-6.58 12.476-12.446 18-21 15.38-23.817 21.363-50.664 18-79-.831-7.002-2.822-14.307-5-21-30.694-94.315-136.407-65.732-141 24"/><path fill="#eaf4f8" d="M401 459c-3.72 2.282-4.31-.071-8 .5 6.145 21.955 5.301 45.645-1 67.5-2.637 9.146-6.92 17.976-12 26-8.384 13.243-27.31 31.471-43 35-6.283 1.413-13.608 1.346-20 .5 43.196-1.93 70.533-37.687 76-78.5 3.323-24.807.797-46.655-12-68-12.789-21.332-32.787-36.216-59-32-12.794 2.058-24.183 10.084-33 19-4.825 4.88-17.893 21.99-20 26.5-3.53 7.558-4.796 23.809-7 28-1.08 2.054-1.957-.594-2-.5 4.593-89.732 110.306-118.315 141-24"/><path fill="#c7dee7" d="M381 442c-16.441 6.218-10.971 7.557-7 19-11.417-17.343-25.988-33.748-49-31l-3-20c26.213-4.216 46.211 10.668 59 32"/><path fill="#a6c6d3" d="M325 430c-3.105.371-14.378 3.707-14 8-30.488 15.209-39.457 65.753-27 95-.391 4.599-3.912-4.212-4-4.5-5.564-18.259-5.812-40.057 1-58 2.227-5.865 15.993-23.516 16-25 .011-2.458-14.699-11.471-8-16.5 8.817-8.916 20.206-16.942 33-19z"/><path fill="#78a3b4" d="M284 533c1.059 2.488 8.937 14.005 11 16.5 4.226 5.113 11.079 7.74 14 13.5-3.063-1.232-6.187-3.631-8.5-6-3.064.073 1.8 3.836 2 4 6.955 5.712 20.141 9.29 29 8 12.991-4.269-3.424-1.421-8.5-2-.458-3.977.766-2.743 3.5-3 80.823-7.592 55.521-161.43-15.5-126-.378-4.293 10.895-7.629 14-8 23.012-2.748 37.583 13.657 49 31 .878 2.531 2.327 5.571 3 8-1.546 4.076 1.617 6.03 2 7 3.396 20.401.352 43.1-9 61.5 7.002-7.587 9.796-19.566 11-29.5l12 2c-5.467 40.813-32.804 76.57-76 78.5 6.392.846 13.717.913 20-.5l1 3c-11.553 1.728-14.263.591-25-2l1.5-2c-38.755-8.035-53.244-53.637-55.5-88.5-.338-5.23 4.532-13.951-2-12.5.216-.872 2.481-1.858 3-3 .043-.094.92 2.554 2 .5 2.204-4.191 3.47-20.442 7-28 2.107-4.51 15.175-21.62 20-26.5-6.699 5.029 8.011 14.042 8 16.5-.007 1.484-13.773 19.135-16 25-6.812 17.943-6.564 39.741-1 58 .088.288 3.609 9.099 4 4.5"/><path fill="#0a324d" d="M323 567c-4.841-.553-9.52-2.199-14-4-2.921-5.76-9.774-8.387-14-13.5-2.063-2.495-9.941-14.012-11-16.5-12.457-29.247-3.488-79.791 27-95 71.021-35.43 96.323 118.408 15.5 126-2.734.257-3.958-.977-3.5 3m10-5c56.186-7.375 55.404-131.054-5-125-2.435-3.732-11.167.314-14.5 2-49.148 24.863-40.803 130.916 19.5 123"/><path fill="#028bba" d="M328 437c-2.663.267-18.939 6.263-14.5 8l4.5-2c-1.27.757-6.013 4.613-8 6-19.251 13.442-28.061 38.108-24 63.5 1.445 9.036 3.504 22.294 15 17.5-.009.333 0 .667 0 1-.003 2.338-3.19 6.535-3 8.5.232 2.396 7.636 9.834 10 11.5 6.653 4.691 12.959 6.453 21 6-.287 6.688 3.876 1.487 4 5-60.303 7.916-68.648-98.137-19.5-123 3.333-1.686 12.065-5.732 14.5-2"/><path fill="#019bd1" d="M328 437c60.404-6.054 61.186 117.625 5 125-.124-3.513-4.287 1.688-4-5 10.807-.609 13.617-3.82 18-12 1.095 7.696 6.249.705 9-2.5 11.409-13.292 16.349-35.919 15-53-.114-1.44-2.716-20.273-7-14.5-.067-9.637-12.587-10.016-15-12.5-.314-.323-1.565-7.263-3-8.5 13.418-5.755-11.573-14.491-23-10 .72-4.795-2.494-2.494-5-1l-4.5 2c-4.439-1.737 11.837-7.733 14.5-8"/><path fill="#02b3e1" d="M323 444c-.802.315-5.709 3.671-5 5.5 6.341 4.922 20.564 7.69 28 4.5 1.435 1.237 2.686 8.177 3 8.5 2.413 2.484 14.933 2.863 15 12.5.049 7.047-4.435 5.661-5 7-.283-1.799-2.729-.761-4-1-5.827-1.094-14.856-11.976-22.5-13-6.52-.873-17.868 2.455-25.5 1-11.917-2.272-1.938-7.88 0-11.5 1.675-3.129-.365-6.928 3-8.5 1.987-1.387 6.73-5.243 8-6 2.506-1.494 5.72-3.795 5 1m30.5 24c-4.332 1.835.476 10.935 5 9 4.207-1.799-2.043-10.253-5-9"/><path fill="#a7c6d3" d="M381 442c12.797 21.345 15.323 43.193 12 68l-12-2c1.305-10.764 2.068-21.709-2-32-.551-3.312-1.246-4.279-2-7-.673-2.429-2.122-5.469-3-8-3.971-11.443-9.441-12.782 7-19"/><path fill="#fbfefe" d="M346 454c-7.436 3.19-21.659.422-28-4.5-.709-1.829 4.198-5.185 5-5.5 11.427-4.491 36.418 4.245 23 10"/><path fill="#007193" d="M310 449c-3.365 1.572-1.325 5.371-3 8.5-1.938 3.62-11.917 9.228 0 11.5-.95 3.994-4.79 10.646-5 14.5-.107 1.966 3.061 3.505 3 4-.634 5.157-3.259 8.261-4 11-.73 2.698 1.496 5.717 1 7-.888 2.296-4.373.961-5 2-2.484 4.113 4.154 16.662 4 22.5-11.496 4.794-13.555-8.464-15-17.5-4.061-25.392 4.749-50.058 24-63.5"/><path fill="#c1e0eb" d="M401 459c2.178 6.693 4.169 13.998 5 21-.957 2.933-4.191-1.121-5 1.5-1.34 4.339 1.323 13.439 1 17-.525 5.796-2.707 30.417-10 28.5 6.301-21.855 7.145-45.545 1-67.5 3.69-.571 4.28 1.782 8-.5"/><path fill="#00a8ce" d="m355 481-14 53c-11.309 1.776-16.341 2.832-28 0-2.813-.683-8.445-5.934-12-3 0-.333-.009-.667 0-1 .154-5.838-6.484-18.387-4-22.5.627-1.039 4.112.296 5-2 .496-1.283-1.73-4.302-1-7 .741-2.739 3.366-5.843 4-11 .061-.495-3.107-2.034-3-4 .21-3.854 4.05-10.506 5-14.5 7.632 1.455 18.98-1.873 25.5-1 7.644 1.024 16.673 11.906 22.5 13"/><path fill="#47fafc" d="M353.5 468c2.957-1.253 9.207 7.201 5 9-4.524 1.935-9.332-7.165-5-9"/><path fill="#c7dee7" d="M379 476c-.383-.97-3.546-2.924-2-7 .754 2.721 1.449 3.688 2 7"/><path fill="#00789b" d="M347 545c2.196-4.099 2.669-6.885 4-11 5.516-17.054 3.179-40.569 8-52 .565-1.339 5.049.047 5-7 4.284-5.773 6.886 13.06 7 14.5 1.349 17.081-3.591 39.708-15 53-2.751 3.205-7.905 10.196-9 2.5"/><path fill="#c7dee7" d="M381 508c-1.204 9.934-3.998 21.913-11 29.5 9.352-18.4 12.396-41.099 9-61.5 4.068 10.291 3.305 21.236 2 32"/><path fill="#73acbf" d="M406 480c3.363 28.336-2.62 55.183-18 79-.764-3.81-4.579-5.182-8-6 5.08-8.024 9.363-16.854 12-26 7.293 1.917 9.475-22.704 10-28.5.323-3.561-2.34-12.661-1-17 .809-2.621 4.043 1.433 5-1.5"/><path fill="#0090b5" d="M359 482c-4.821 11.431-2.484 34.946-8 52-2.56-.702-7.491-.394-10 0l14-53c1.271.239 3.717-.799 4 1"/><path fill="#58bcd8" d="M614 498c-23.398-21.813-51.759-7.158-61 20h-1c10.106-30.321 37.083-50.063 62-20"/><path fill="#8eb4c2" d="M313 589c-7.976-1.925-13.134-6.327-20-5-20.057-15.208-33.439-40.491-36-65.5-.497-4.855-.912-28.823 0-32.5 6.532-1.451 1.662 7.27 2 12.5 2.256 34.863 16.745 80.465 55.5 88.5z"/><path fill="url(#f)" d="M614 498c25.909 31.259 25.479 105.127-23.5 109-11.37.899-.343-3.336-8.5-3-6.533-4.084-13.139-8.271-18-14.5-14.412-18.471-18.437-49.645-11-71.5 9.241-27.158 37.602-41.813 61-20" style="fill:url(#f)"/>/&gt;<path fill="#1b92be" d="M819 494c-2.512 27.194-8.48 59.106-14 86l-9-1c5.206-22.306 8.52-45.197 11-68 13.19 3.689 4.703-12.116 12-17"/><path fill="#1d86aa" d="M553 518c-7.437 21.855-3.412 53.029 11 71.5 4.861 6.229 11.467 10.416 18 14.5-13.221.545-29.647-24.431-33-36.5-4.862-17.499-2.61-32.669 3-49.5z"/><path fill="#00b8e7" d="M313 534c-5.479 4.875-4.298 10.466-5 17-2.364-1.666-9.768-9.104-10-11.5-.19-1.965 2.997-6.162 3-8.5 3.555-2.934 9.187 2.317 12 3"/><path fill="#01defa" d="M351 534c-1.331 4.115-1.804 6.901-4 11-4.383 8.18-7.193 11.391-18 12-8.041.453-14.347-1.309-21-6 .702-6.534-.479-12.125 5-17 11.659 2.832 16.691 1.776 28 0 2.509-.394 7.44-.702 10 0"/><path fill="#6cbdd7" d="M797 536c-4.226 30.826-11.946 66.738-21 96.5-10.17 33.429-27.175 65.304-38 96.5-.474 1.365-2.639 4.065-3 5-3.46.577-5.583.52-9 0 2.651-8.326 7.901-15.943 11-24 26.722-53.259 42.202-114.716 49-174z"/><path fill="#87abbc" d="m618 726 4-4c34.239 18.87 68.126 28.792 106 38-33.12 65.533-135.217 26.649-188 8l.5-4c-32.449-11.337-60.389-30.56-89.5-48-33.002-24.465-60.1-55.505-83-89.5 26.891-17.87 51.259-42.784 55-76.5 28.981 47.164 50.573 105.455 91.5 144 34.483 32.476 137.062 91.957 184 76 1.219-.414 12.281-5.96 11.5-7.5-32.903-7.291-62.522-20.693-92-36.5"/><path fill="#5994a8" d="M388 559c-5.524 8.554-10.102 14.42-18 21 .601-4.421-2.119-3.126-4.5-2-10.512 4.97-13.387 10.889-27.5 13l-1-3c15.69-3.529 34.616-21.757 43-35 3.421.818 7.236 2.19 8 6"/><path fill="#c9dde6" d="M309 563c4.48 1.801 9.159 3.447 14 4 5.076.579 21.491-2.269 8.5 2-8.859 1.29-22.045-2.288-29-8-.2-.164-5.064-3.927-2-4 2.313 2.369 5.437 4.768 8.5 6"/><path fill="#155a7b" d="M677 732c-49.418-17.02-94.091-46.533-129-85.5-6.664-7.438-42.664-54.313-42-61 .34-3.421 3.639-2.078 4-3 .164-.42-5.264-6.79-3-8.5 22.296 49.75 63.242 93.972 108.5 124 19.593 12.999 41.427 21.922 61.5 34"/><path fill="#36667b" d="M370 580c-24.657 20.545-51.007 23.709-77 4 6.866-1.327 12.024 3.075 20 5 10.737 2.591 13.447 3.728 25 2 14.113-2.111 16.988-8.03 27.5-13 2.381-1.126 5.101-2.421 4.5 2"/><path fill="#0b729e" d="M805 580c-9.871 48.092-27.893 116.623-52 159-5.922 6.114-4.541 6.425-13 7 3.113-9.457-.579-12.664 3-23.5 16.148-48.883 40.433-89.654 53-143.5z"/><path fill="#82a2b0" d="M451 716c29.111 17.44 57.051 36.663 89.5 48l-.5 4c-82.819-29.261-162.285-83.432-232.5-136-15.493-11.599-37.122-25.584-47.5-41 60.169 34.462 113.842 79.312 172.5 116 5.594 3.499 13.787 6.176 18.5 9"/><path fill="#3f95b3" d="M752 655c-4.243 18.417-8.206 37.34-15 55-3.099 8.057-8.349 15.674-11 24-1.073-.163-8.807-2.075-9-2.5 10.582-25.11 17.903-52.686 23-79.5z"/><path fill="#233037" d="M575 799c-4.467 3.033-14.788 1.379-21 1 .622-2.089-4.165-2.746-5.5-3-62.578-11.915-148.83-52.17-190.5-102-1.545-1.848-6.177-7.269-7-9-2.686-5.65-.99-5.957-2-10 2.605-2.077 4.378-.195 6.5 1 59.369 33.427 102.928 68.839 169 95 7.562 2.994 47.179 14.518 50 17 3.316 2.917-2.223 6.211.5 10"/><path fill="#021119" d="M358 695c4.049 12.718 19.79 25.387 30.5 34 44.966 36.163 107.477 67.463 165.5 71 6.212.379 16.533 2.033 21-1h1c-.03.121 2.166.919 2 1.5-.233.815-2.218 1.421-3 4.5-.717 2.824-2.317 4.131-3 9-.353 2.515-1.305 3.947-1 7-12.468 12.992-1.68 45.528-21 52l-.5-9c-12.396 2.731-23.928 3.136-36.5 2-37.783-3.414-91.094-33.685-122-56-20.562-14.846-58.173-41.353-50-70 .504-1.767 3.082-2.801 2-6 4.764-2.653 2.344-2.221 3-7 .756-5.507.174-13.097 1-18.5 1.078-7.054 7.15-14.025 4-22.5.823 1.731 5.455 7.152 7 9m9 51c13.639 13.285 29.226 23.556 45 34 12.932 8.562 25.192 15.882 39 23 29.243 15.075 60.307 30.252 94.5 27 19.683-1.872 21.433-5.709 24.5-24.5-.463-1.516-16.562.67-19.5.5-33.284-1.929-67.893-14.244-97.5-29-9.242-4.606-21.112-11.548-30-17-16.388-10.052-36.601-24.336-51-37-6.447-5.67-11.429-13.949-19-18.5 1.51 5.335-3.775 19.146-3 23 .457 2.275 14.308 15.878 17 18.5m-3 34c23.863 23.364 56.203 43.195 86 58 26.177 13.006 54.276 26.239 84.5 24 2.305-.171 21.298-4.117 22-5 .696-.876 3.931-21.379 3-22-37.102 7.547-75.754-8.455-108.5-25-15.431-7.797-76.313-51.763-81-53l-19-19.5c-2.144-.483-5.552 20.18-5 23 .646 3.301 14.776 16.343 18 19.5"/><path fill="#425a66" d="M554 800c-58.023-3.537-120.534-34.837-165.5-71-10.71-8.613-26.451-21.282-30.5-34 41.67 49.83 127.922 90.085 190.5 102 1.335.254 6.122.911 5.5 3"/><path fill="#1d3542" d="M372 723c-4.429 6.128-4.677 15.693-5 23-2.692-2.622-16.543-16.225-17-18.5-.775-3.854 4.51-17.665 3-23 7.571 4.551 12.553 12.83 19 18.5"/><path fill="#336373" d="M423 760c-5.927 3.89-7.558 13.809-11 20-15.774-10.444-31.361-20.715-45-34 .323-7.307.571-16.872 5-23 14.399 12.664 34.612 26.948 51 37"/><path fill="#053d59" d="M343 734c-10.094 5.621-12.76 2.741-24 13-28.417 25.935-18.166 48.148 5 73.5 44.769 48.994 167.641 101.158 233 85.5 14.22-3.407 27.287-9.837 32-24.5 8.003-24.898 3.13-50.136-17-67.5.683-4.869 2.283-6.176 3-9 10.813 14.043 24.375 29.562 25 48.5 3.312 100.292-136.715 56.207-189.5 32.5-46.971-21.096-141.984-74.095-103.5-135.5 8.926-14.242 23.097-20.356 39-23.5-.656 4.779 1.764 4.347-3 7"/><path fill="#62d8f3" d="M715 740c2.449.416 18.699 1.568 19.5 1 1.346-1.838-.153-5.307.5-7 .361-.935 2.526-3.635 3-5l1.5 15c-8.017-.045-17.323.27-24.5-4"/><path fill="#aec2ce" d="M343 734c1.082 3.199-1.496 4.233-2 6-17.66 9.551-11.306 31.99-3 46-3.997-.422-6.824 1.216-8 5-9.332-13.546-16.892-26.953-11-44 11.24-10.259 13.906-7.379 24-13"/><path fill="#15536a" d="M712 742c10.346 2.255 16.77 4.764 28 4 8.459-.575 7.078-.886 13-7-5.368 9.437-11.49 18.889-21 25 1.148-1.869 9.105-10.083 7.5-11-7.838 2.477-15 .53-22.5-1-7.969-1.626-29.772-7.99-30-17 8.681 2.659 16.012 5.041 25 7"/><path fill="#18333f" d="M370 757c-.845-.223-3.538-1.391-4-.5l-2 23.5c-3.224-3.157-17.354-16.199-18-19.5-.552-2.82 2.856-23.483 5-23z"/><path fill="#1f455e" d="M391 810c.718 5.556 10.948 11.852 15.5 15 28.386 19.629 65.353 40.796 99.5 47 11.35 2.062 33.285 4.59 44 1 19.32-6.472 8.532-39.008 21-52 1.395 13.967 12.95 24.751 5 43.5-18.704 44.109-139.738-4.337-169-20.5-21.885-12.088-56.152-36.327-69-58-8.306-14.01-14.66-36.449 3-46-8.173 28.647 29.438 55.154 50 70"/><path fill="#81afc1" d="M330 791c18.023 26.162 49.858 46.975 78 61 8.379 7.223 37.175 18.192 48.5 22 37.405 12.576 96.827 28.109 130 1 2.707 17.232-14.554 22.434-27 28-1.766.79-4.329.801-2.5 3-65.359 15.658-188.231-36.506-233-85.5-23.166-25.352-33.417-47.565-5-73.5-5.892 17.047 1.668 30.454 11 44"/><path fill="url(#g)" d="M370 757c4.687 1.237 65.569 45.203 81 53l-1 28c-29.797-14.805-62.137-34.636-86-58l2-23.5c.462-.891 3.155.277 4 .5" style="fill:url(#g)"/>/&gt;<path fill="#517484" d="M423 760c8.888 5.452 20.758 12.394 30 17l-2 26c-13.808-7.118-26.068-14.438-39-23 3.442-6.191 5.073-16.11 11-20"/><path fill="#344d5e" d="m451 803 2-26c29.607 14.756 64.216 27.071 97.5 29 2.938.17 19.037-2.016 19.5-.5-3.067 18.791-4.817 22.628-24.5 24.5-34.193 3.252-65.257-11.925-94.5-27"/><path fill="#cad8df" d="M338 786c12.848 21.673 47.115 45.912 69 58-7.537 6.471 1.085 5.523 1.5 6 1.598 1.836-.578 1.933-.5 2-28.142-14.025-59.977-34.838-78-61 1.176-3.784 4.003-5.422 8-5"/><path fill="#3b5d6d" d="M513 866c.117 3.93-8.137.156-7 6-34.147-6.204-71.114-27.371-99.5-47-4.552-3.148-14.782-9.444-15.5-15 30.906 22.315 84.217 52.586 122 56"/><path fill="#324b5e" d="m450 838 1-28c32.746 16.545 71.398 32.547 108.5 25 .931.621-2.304 21.124-3 22-.702.883-19.695 4.829-22 5-30.224 2.239-58.323-10.994-84.5-24"/><path fill="#f3f8fa" d="M557 906c-1.829-2.199.734-2.21 2.5-3 12.446-5.566 29.707-10.768 27-28-33.173 27.109-92.595 11.576-130-1-11.325-3.808-40.121-14.777-48.5-22-.078-.067 2.098-.164.5-2-.415-.477-9.037.471-1.5-6 29.262 16.163 150.296 64.609 169 20.5 7.95-18.749-3.605-29.533-5-43.5-.305-3.053.647-4.485 1-7 20.13 17.364 25.003 42.602 17 67.5-4.713 14.663-17.78 21.093-32 24.5"/><path fill="#1f2832" d="M550 873c-10.715 3.59-32.65 1.062-44-1-1.137-5.844 7.117-2.07 7-6 12.572 1.136 24.104.731 36.5-2z"/></svg>