<svg xmlns="http://www.w3.org/2000/svg" width="1024" height="1024"><defs><linearGradient id="a" x1="437.832" x2="683.175" y1="180.757" y2="614.128" gradientUnits="userSpaceOnUse"><stop offset="15.261%" style="stop-color:#3bc4de"/><stop offset="76.506%" style="stop-color:#0b5b82"/><stop offset="100%" style="stop-color:#193e61"/></linearGradient></defs><defs><linearGradient id="b" x1="604.15" x2="86.617" y1="229.26" y2="463.318" gradientUnits="userSpaceOnUse"><stop offset="22.535%" style="stop-color:#aee3f2"/><stop offset="76.409%" style="stop-color:#4bb6d0"/><stop offset="100%" style="stop-color:#4499b7"/></linearGradient></defs><defs><linearGradient id="c" x1="298.601" x2="730.536" y1="379.667" y2="667.405" gradientUnits="userSpaceOnUse"><stop offset="27.36%" style="stop-color:#89aab2"/><stop offset="100%" style="stop-color:#597d86"/></linearGradient></defs><defs><linearGradient id="d" x1="333.43" x2="737.541" y1="396.832" y2="794.555" gradientUnits="userSpaceOnUse"><stop offset="13.227%" style="stop-color:#d6e7ec"/><stop offset="100%" style="stop-color:#64868c"/></linearGradient></defs><defs><linearGradient id="e" x1="456.447" x2="594.332" y1="631.604" y2="781.95" gradientUnits="userSpaceOnUse"><stop offset="0%" style="stop-color:#127f99"/><stop offset="100%" style="stop-color:#004a63"/></linearGradient></defs><defs><linearGradient id="f" x1="446.507" x2="557.656" y1="580.807" y2="795.772" gradientUnits="userSpaceOnUse"><stop offset="0%" style="stop-color:#1cb4d1"/><stop offset="100%" style="stop-color:#045d7a"/></linearGradient></defs><defs><linearGradient id="g" x1="508.1" x2="509.139" y1="783.142" y2="919.138" gradientUnits="userSpaceOnUse"><stop offset="0%" style="stop-color:#144271"/><stop offset="100%" style="stop-color:#62a9c9"/></linearGradient></defs><path fill="#10476d" d="M676 181c-1.999 2.762-7.704.776-8 3.5l21 19.5c2.384 3.15 14.954 11.452 19 15 8.223 7.21 16.571 14.048 25 21 6.291 5.189 12.658 9.946 19 15 2.282 1.819 4.547 4.061 7 6a833 833 0 0 0 9 7c1.465 1.126 9.32 9.385 10 9.5l2-1c3.753-27.454 11.139-54.302 16-81.5 7.374-6.56 14.966-7.661 17-18l3-20.5c-1.366.044-3.641-1.409-4-1.5 2.49.261 3.258.076 4-2.5 1.238-4.297 5.023-45.82 4-48-1.627-3.469-19.826-2.511-24-2.5-36.049.091-69.314 12.11-100 30 4.07-3.461 6.794-6.046 11.5-9 5.948-3.733 22.845-7.092 22.5-14.5-.976-1.699-33.414 13.98-36 15.5 33.118-20.947 83.257-36.619 122.5-29 4.929.957 20.774 7.939 22.5 12.5 3.521 9.304-12.423 62.265-11 76l-13 18-15 94c25.529 22.066 51.681 43.636 76.5 66.5 24.995 23.026 83.754 71.042 87.5 104.5 4.753 42.458-32.914 51.423-64 64-13.405 74.092-36.249 149.361-82 210l17 2-22 35.5c-.353-.101-2.249 1.631-4.5 1a1909 1909 0 0 1-29.5-8.5l13-29.5c24.107-49.837 50.778-111.973 62-166 9.451-17.828 2.324-45.624 27-53.5-6.43-3.176-19.16 10.845-22.5 9.5-43.531-37.334-86.881-74.971-131.5-111 .335-8.907 13.619-14.032 13-23 39.381 30.507 101.718 90.548 140.5 113 14.368 8.318 36.149.172 49-9 40.465-28.882-13.427-77.265-35-98-59.382-57.076-132.937-115.109-197-168-37.854-31.253-111.35-99.753-150-121-35.788-19.674-63.44-6.446-93.5 15l-12-15c49.876-28.974 105.72-25.153 152.5 9 9.87 7.206 63.592 57.869 69 59 1.846.386 9.441-2.228 12.5-1"/><path fill="#fdfefe" d="m796 102-35 9c-7.166 1.539-45.193 17.539-47 23.5-1.978 6.526 1.689 22.514-1 30.5-4.646 2.447-25.177 17.029-27 21 .15-9.658-3.544-37.815-1-45.5.231-.697 9.155-6.931 11-8.5 30.686-17.89 63.951-29.909 100-30"/><path fill="#84a6ac" d="M812 155c-7.159-1.81-43.836 4.021-53 6 8.636-6.184 14.167.729 11-15 1.663-.515 4.659-.866 6.5-1l4.5-36.5c-5.818 1.454-14.616 1.344-20 2.5l35-9c4.174-.011 22.373-.969 24 2.5 1.023 2.18-2.762 43.703-4 48-.742 2.576-1.51 2.761-4 2.5"/><path fill="url(#a)" d="M740 397c-20.872-16.168-41.8-32.258-63-48-39.413-29.267-131.742-106.211-179.5-101-35.921 3.919-141.126 88.532-174.5 114-20.946 15.985-41.276 32.756-62 49-43.984 34.476-87.219 69.892-131.5 104-75.769-21.142-58.87-60.106-12-102 40.366-36.081 86.684-70.484 128.5-106 1.978-1.68 4.014-3.311 6-5 5.766-4.902 11.281-10.132 17-15 53.042-45.151 105.252-92.985 159-137 7.192-5.889 14.592-12.504 22-18 1.291-.958 2.733-2.096 4-3 30.06-21.446 57.712-34.674 93.5-15 38.65 21.247 112.146 89.747 150 121 64.063 52.891 137.618 110.924 197 168 21.573 20.735 75.465 69.118 35 98-12.851 9.172-34.632 17.318-49 9-38.782-22.452-101.119-82.493-140.5-113m-543-32c-.3.233-4.733-.389-6.5 1-21.204 16.664-100.97 77.755-107.5 98.5-4.862 15.448-.76 23.938 13 31.5 21.995 12.088 45.077-7.777 63.5-20 83.368-55.31 158.618-126.489 236.5-189 19.315-15.503 84.038-70.124 104.5-73 13.655-1.919 26.52 7.091 28 7 .514-.031 4.856-4.361 9-5 36.31-5.602 61.753 18.714 90 25 26.713 5.944 4.643-11.768-3-19-41.529-39.296-81.468-53.287-138-36-13.424 4.105-28.105 15.192-42.5 13 3.09-3.918 9.827-16.76 11-21.5 2.454-9.917-2.55-16.51 6.5-23.5 17.87-13.802 55.654-19.232 77.5-16.5 3.33-6.123-11.855-16.303-16.5-17.5-26.618-6.862-56.314 10.435-78 24-83.674 70.141-161.612 154.224-247.5 221" style="fill:url(#a)"/>/&gt;<path fill="#105a82" d="M696 132c-1.845 1.569-10.769 7.803-11 8.5-2.544 7.685 1.15 35.842 1 45.5-1.418 3.089-.134 3.59 0 6 .367 6.593-1.168 6.492 3 12l-21-19.5c.296-2.724 6.001-.738 8-3.5 3.629-5.015-3.547-33.4-2-40.5 1.153-5.29 15.32-13.749 20-16.5 2.586-1.52 35.024-17.199 36-15.5.345 7.408-16.552 10.767-22.5 14.5-4.706 2.954-7.43 5.539-11.5 9"/><path fill="#c4e1e9" d="M770 146c-18.518 5.735-39.685 9.879-57 19 2.689-7.986-.978-23.974 1-30.5 1.807-5.961 39.834-21.961 47-23.5 5.384-1.156 14.182-1.046 20-2.5l-4.5 36.5c-1.841.134-4.837.485-6.5 1"/><path fill="#10658c" d="m442 114 12 15c-1.267.904-2.709 2.042-4 3l-13-15c1.735-1.098 3.231-1.972 5-3"/><path fill="#10476d" d="M450 132c-7.408 5.496-14.808 12.111-22 18l-16-14c8.806-7.192 15.183-12.785 25-19z"/><path fill="#fcfefe" d="M444 199c-18.82 23.869-99.906 78.956-128.5 98-38.389 25.569-78.634 45.028-117 69-2.137 1.335-2.947 2.159-1.5-1 85.888-66.776 163.826-150.859 247.5-221 21.686-13.565 51.382-30.862 78-24 4.645 1.197 19.83 11.377 16.5 17.5-21.846-2.732-59.63 2.698-77.5 16.5-9.05 6.99-4.046 13.583-6.5 23.5-1.173 4.74-7.91 17.582-11 21.5"/><path fill="#10658c" d="M428 150c-53.748 44.015-105.958 91.849-159 137-4.05-6.913-10.91-12.08-4-19 48.789-42.959 97.032-91.194 147-132z"/><path fill="#a3c4ca" d="M770 146c3.167 15.729-2.364 8.816-11 15-12.881 2.783-65.987 19.941-72 30-.152.254.143 1.164-1 1-.134-2.41-1.418-2.911 0-6 1.823-3.971 22.354-18.553 27-21 17.315-9.121 38.482-13.265 57-19"/><path fill="#0c2a47" d="M812 155c.359.091 2.634 1.544 4 1.5l-3 20.5c.914-4.645-.375-12.27 1-17.5-.647-.912-11.012-.54-13-.5-.919.019-3.874.855-6 1-5.954.406-12.103 1.108-18 2-3.601.545-7.451 2.3-11 3-8.126 1.604-15.979 2.785-24 5-11.64 3.215-23.83 7.418-35 12-6.739 2.764-13.126 6.535-20 9 6.013-10.059 59.119-27.217 72-30 9.164-1.979 45.841-7.81 53-6"/><path fill="#85a7ac" d="M796 195c-4.861 27.198-12.247 54.046-16 81.5l-2 1c-.68-.115-8.535-8.374-10-9.5l27-108c2.126-.145 5.081-.981 6-1-1.607 11.927-2.885 24.168-5 36"/><path fill="#55787e" d="M813 177c-2.034 10.339-9.626 11.44-17 18 2.115-11.832 3.393-24.073 5-36 1.988-.04 12.353-.412 13 .5-1.375 5.23-.086 12.855-1 17.5"/><path fill="#5c7f83" d="m795 160-27 108a833 833 0 0 1-9-7l18-99c5.897-.892 12.046-1.594 18-2"/><path fill="#a4c3ca" d="M759 261c-2.453-1.939-4.718-4.181-7-6l14-90c3.549-.7 7.399-2.455 11-3z"/><path fill="#7a9ca2" d="m766 165-14 90c-6.342-5.054-12.709-9.811-19-15l9-70c8.021-2.215 15.874-3.396 24-5"/><path fill="#c6e0e8" d="M733 240c-8.429-6.952-16.777-13.79-25-21-4.985-11.289 1.92-24.764-1-37 11.17-4.582 23.36-8.785 35-12z"/><path fill="url(#b)" d="M396 287c-68.677 46.283-129.878 102.744-195.5 153-19.923 15.258-73.41 58.608-97 58-1.103-.028-5.747-2.022-7.5-2-13.76-7.562-17.862-16.052-13-31.5 6.53-20.745 86.296-81.836 107.5-98.5 1.767-1.389 6.2-.767 6.5-1-1.447 3.159-.637 2.335 1.5 1 38.366-23.972 78.611-43.431 117-69 28.594-19.044 109.68-74.131 128.5-98 14.395 2.192 29.076-8.895 42.5-13 56.532-17.287 96.471-3.296 138 36 7.643 7.232 29.713 24.944 3 19-28.247-6.286-53.69-30.602-90-25-4.144.639-8.486 4.969-9 5-1.48.091-14.345-8.919-28-7-20.462 2.876-85.185 57.497-104.5 73" style="fill:url(#b)"/>/&gt;<path fill="#fdfefe" d="M708 219c-4.046-3.548-16.616-11.85-19-15-4.168-5.508-2.633-5.407-3-12 1.143.164.848-.746 1-1 6.874-2.465 13.261-6.236 20-9 2.92 12.236-3.985 25.711 1 37"/><path fill="#1a92b5" d="m677 349-13 21c-10.807-8.236-22.04-15.982-33-24-31.682-23.177-91.734-75.116-131.5-69-37.36 5.746-129.579 79.954-162.5 106-5.514-5.726-12.032-13.08-14-21 33.374-25.468 138.579-110.081 174.5-114 47.758-5.211 140.087 71.733 179.5 101"/><path fill="#10476d" d="M269 287c-5.719 4.868-11.234 10.098-17 15-5.317-1.599-7.931-8.907-9-14 7.39-6.556 14.567-13.455 22-20-6.91 6.92-.05 12.087 4 19"/><path fill="#1e231e" d="M631 346v1c-34.045-25.38-92.657-74.184-136-64-36.305 8.53-101.14 60.81-132.5 85-68.556 52.882-133.233 111.07-200.5 165.5-.214 3.031.936 5.461 1 8.5.158 7.46 1.951 13.786 3 21-2.034 3.933-2.673-1.31-3-2.5-4.336-15.756-2.357-30.164-19-38 4.652-2.646 16.735 8.745 18.5 8.5 37.814-32.607 75.011-66.21 113.5-98 20.166-16.656 40.512-33.791 61-50 32.921-26.046 125.14-100.254 162.5-106 39.766-6.116 99.818 45.823 131.5 69"/><path fill="#64878f" d="M631 347c12.878 9.6 25.334 20.096 38 30l-8 12c-17.602-14.224-36.169-27.408-53.5-42-26.99-22.725-24.523-27.77-61-41-16.654-6.04-42.384-7.161-51.5-23 43.343-10.184 101.955 38.62 136 64"/><path fill="url(#c)" d="M495 283c9.116 15.839 34.846 16.96 51.5 23 36.477 13.23 34.01 18.275 61 41 17.331 14.592 35.898 27.776 53.5 42 45.826 37.03 118.323 106.039 166 133l-24 105.5c-13.344 37.044-26.543 75.441-45.5 109.5 10.752-30.718 23.119-61.301 32.5-92.5 4.205-13.985 18.015-57.065 17-69-1.652-19.435-22.229-35.43-35.5-48.5-43.911-43.247-92.715-82.146-136-126-40.232-40.761-70.752-99.507-140-89-42.738 6.484-172.044 131.215-210.5 166-19.851 17.956-40.515 35.108-60 53.5 5.426 43.137 7.996 87.998 17 130.5-2.161.501-2.569-1.985-3-3.5-11.834-41.587-19.881-83.856-27-126.5-.976-5.846-.603-12.132-1.5-18-2.556-2.041-19.007 10.514-21.5 12-8.761 5.223-17.516 10.335-26 16-.064-3.039-1.214-5.469-1-8.5 67.267-54.43 131.944-112.618 200.5-165.5 31.36-24.19 96.195-76.47 132.5-85" style="fill:url(#c)"/>/&gt;<path fill="#fafefd" d="M396 287c-77.882 62.511-153.132 133.69-236.5 189-18.423 12.223-41.505 32.088-63.5 20 1.753-.022 6.397 1.972 7.5 2 23.59.608 77.077-42.742 97-58 65.622-50.256 126.823-106.717 195.5-153"/><path fill="#10658c" d="M252 302c-1.986 1.689-4.022 3.32-6 5-5.079-2.609-9.146-9.741-8-15 1.583-1.404 3.436-2.612 5-4 1.069 5.093 3.683 12.401 9 14"/><path fill="#10486e" d="M246 307c-41.816 35.516-88.134 69.919-128.5 106-46.87 41.894-63.769 80.858 12 102 44.281-34.108 87.516-69.524 131.5-104l15 22c-38.489 31.79-75.686 65.393-113.5 98-1.765.245-13.848-11.146-18.5-8.5 16.643 7.836 14.664 22.244 19 38 .327 1.19.966 6.433 3 2.5 11.374 78.209 42.008 151.453 78 221-.096-.138-1.657.337-3-1.5-1.492-2.041-3.06-10.466-5.5-10.5-12.691 5.166-26.531 10.558-37.5 2-5.587-10.659-12.463-20.779-18-31.5.258-4.685 15.975-2.924 17-6-44.148-58.97-63.275-133.83-73-206-55.663-15.504-84.378-53.578-41-104 51.593-44.921 103.822-89.115 155-134.5-1.146 5.259 2.921 12.391 8 15"/><path fill="url(#d)" d="M827 522c6.783 3.836 14.656 1.487 17 9-2.014-.274-5.566-.639-7 1.5-1.552 2.315-7.174 47.024-9 55-12.735 55.613-37.044 119.291-63 170-5.576 10.894-30.702 57.601-37 64-10.128 10.29-28.186 14.055-41 19.5-1.494.215-3.269.771-5 1-1.21-8.054-16.753-33.21-23.5-36-5.961-2.464-27.565-.868-35.5-1-2.895-1.879-2.117-4.655-2-7.5 1.698-41.261 6.746-87.633 11-129 1.905-18.525 18.179-114.753 13-124-2.328-4.156-9.864-6.05-14-7.5-41.961-14.711-139.886-10.628-186-7-12.192.959-62.089 5.014-69.5 11-3.269 2.64-3.092 4.225-3.5 8-.506 4.687.456 15.929 1 21 10.011 77.211 15.62 154.872 22 232.5l-1.5 3.5c-10.999.554-20.462-2.006-30.5 3-11.85 5.909-19.589 22.447-28 32-.657.031-1.35-.067-2 0l-25.5-10c-28.997-15.98-46.427-57.349-59.5-86.5-30.955-69.027-52.75-142.745-59-218.5 2.493-1.486 18.944-14.041 21.5-12 .897 5.868.524 12.154 1.5 18 2.633 64.793 16.542 136.854 43 196.5 5.879 13.255 14.192 30.982 24.5 40.5-4.858-17.455-15.028-34.87-21.5-52.5-6.505-17.719-12.079-35.993-16-54.5-9.004-42.502-11.574-87.363-17-130.5 19.485-18.392 40.149-35.544 60-53.5-9.276 7.566-27.622 41.932-.5 34 26.292-7.689 45.103-63.916 2-33-.073.053-1.023-1.389-1.5-1 38.456-34.785 167.762-159.516 210.5-166 69.248-10.507 99.768 48.239 140 89 43.285 43.854 92.089 82.753 136 126 13.271 13.07 33.848 29.065 35.5 48.5 1.015 11.935-12.795 55.015-17 69-9.381 31.199-21.748 61.782-32.5 92.5 18.957-34.059 32.156-72.456 45.5-109.5zm-347-16c22.063 20.05 66.154 16.528 91.5 3 47.178-25.18 61.729-95.945 20.5-133-8.688-15.457-27.146-32.107-44-38-.058-.04.149-.307-1-1-26.022-15.694-70.012-6.422-93.5 11-57.584 42.712-41.047 137.02 26.5 158m-105.5-91c-9.209 1.228-27.341 16.713-30.5 25.5-9.567 26.609 10.612 39.522 33.5 26.5 23.35-13.285 25.68-55.825-3-52M252 593c4.481 22.116 15.358 63.627 23 84.5 6.52 17.807 11.035 16.122 28.5 14.5 5.172-.48 45.686-8.422 48-10 .976-.665 3.251-3.542 3.5-4.5 1.612-6.193-7.46-36.082-9-45-3.501-20.271-8.038-73.61-18-88.5-.65-.971-1.553-4.462-3.5-5-8.233-2.274-65.888 28.12-75.5 35.5.122 6.205 1.761 12.383 3 18.5m431-28c-5.276 21.969-7.121 46.984-11 69.5-1.613 9.361-10.133 35.627-8 42.5.353 1.138.574 3.109 1.5 4 4.431 4.267 60.998 13.752 68 12 8.547-2.139 9.368-16.439 11.5-23 3.633-11.18 27.036-90.329 25-95.5-7.724-4.049-14.911-9.277-22.5-13.5-5.73-3.189-44.164-21.439-48-22-11.718-1.714-14.267 16.701-16.5 26" style="fill:url(#d)"/>/&gt;<path fill="#677874" d="M547 337c.154 1.107-.62.823-1 1-11.001-4.718-22.021-7.142-34-6-53.283-3.202-96.405 43.084-92 96 1.132 13.601 7.21 33.017 17 43 28.601 44.866 94.212 49.062 133.5 16 26.45-22.259 33.132-53.756 30.5-87 14.485 71.268-52.997 127.122-121 106-67.547-20.98-84.084-115.288-26.5-158 23.488-17.422 67.478-26.694 93.5-11"/><path fill="#f4f9fa" d="M512 332c-45.904 4.377-91.157 42.417-90 91l-2 5c-4.405-52.916 38.717-99.202 92-96"/><path fill="#a4c4cd" d="M546 338c-2.123.991-32.291.065-39.5 1-3.348.434-25.494 4.807-22.5 9-25.316 7.602-43.618 29.525-48 55.5-.157.931-1.543 9.587 1 9.5-1.582 36.05 19.299 61.927 50 78-31.944-5.842-64.156-32.566-65-68-1.157-48.583 44.096-86.623 90-91 11.979-1.142 22.999 1.282 34 6"/><path fill="#97b5bc" d="M548 338c16.215 11.196 33.944 39.023 37 58.5.703 4.477 1.805 18.091-1 21.5-.109-2.091-.732-3.915-1-6-2.426-51.144-51.633-78.223-99-64-2.994-4.193 19.152-8.566 22.5-9 7.209-.935 37.377-.009 39.5-1 .38-.177 1.154.107 1-1 1.149.693.942.96 1 1"/><path fill="#759090" d="M592 376c3.638 6.473 7.513 16.685 9 24 2.632 33.244-4.05 64.741-30.5 87-39.288 33.062-104.899 28.866-133.5-16 1.151 1.174 15.56 11.858 17.5 13 14.73 8.672 40.449 17.068 56.5 10 38.059-1.656 75.063-36.546 73-76 2.805-3.409 1.703-17.023 1-21.5-3.056-19.477-20.785-47.304-37-58.5 16.854 5.893 35.312 22.543 44 38"/><path fill="#6d8386" d="M583 412c-.764-5.951-2.921-13.329-5-19-11.647-31.769-39.632-48.393-73-47-37.994 1.586-66.322 28.758-68 67-2.543.087-1.157-8.569-1-9.5 4.382-25.975 22.684-47.898 48-55.5 47.367-14.223 96.574 12.856 99 64"/><path fill="#aed2db" d="m505 346 36.5 15c16.036 9.486 21.924 19.679 33.5 32.5 2.527 2.799 1.176.316 3-.5 2.079 5.671 4.236 13.049 5 19 .268 2.085.891 3.909 1 6 2.063 39.454-34.941 74.344-73 76-9.356.407-15.223-1.395-24-3-30.701-16.073-51.582-41.95-50-78 1.678-38.242 30.006-65.414 68-67m-60 82c-.45-2.5-.574-6.537-2-8.5-1.869 86.754 120.303 93.625 137 11 .262-1.298 1.375-6.088-1-6.5-.044-6.255-6.919-7.21-12-4-6.02-41.369-55.842-58.31-90-38 5.113-5.035 6.067-6.108 2.5-13-12.179 5.509-34.671 28.098-35.5 41.5-.308 4.972 4.725 11.83 1 17.5"/><path fill="#93b2b9" d="M578 393c-1.824.816-.473 3.299-3 .5-11.576-12.821-17.464-23.014-33.5-32.5L505 346c33.368-1.393 61.353 15.231 73 47"/><path fill="#0f1d26" d="M664 370c21.273 16.212 42.188 33.194 63 50 44.619 36.029 87.969 73.666 131.5 111 3.34 1.345 16.07-12.676 22.5-9.5-24.676 7.876-17.549 35.672-27 53.5 1.975-9.506 5.371-23.736 6-33 .178-2.622.859-4.899 1-7.5-64.342-51.952-126.836-106.547-192-157.5-12.666-9.904-25.122-20.4-38-30v-1c10.96 8.018 22.193 15.764 33 24"/><path fill="#10658c" d="M740 397c.619 8.968-12.665 14.093-13 23-20.812-16.806-41.727-33.788-63-50l13-21c21.2 15.742 42.128 31.832 63 48m-403-14c-20.488 16.209-40.834 33.344-61 50l-15-22c20.724-16.244 41.054-33.015 62-49 1.968 7.92 8.486 15.274 14 21"/><path fill="#95b3b7" d="M477 382c-33.067 19.661-33.796 67.992-5 91.5-17.646-10.223-23.635-26.82-27-45.5 3.725-5.67-1.308-12.528-1-17.5.829-13.402 23.321-35.991 35.5-41.5 3.567 6.892 2.613 7.965-2.5 13"/><path fill="#1a1d19" d="M567 420c2.862 19.668-2.19 37.309-15.5 52 12.946-8.877 27.61-32.311 27.5-48 2.375.412 1.262 5.202 1 6.5-16.697 82.625-138.869 75.754-137-11 1.426 1.963 1.55 6 2 8.5 3.365 18.68 9.354 35.277 27 45.5-28.796-23.508-28.067-71.839 5-91.5 34.158-20.31 83.98-3.369 90 38m-109-10c-1.401 3.7-1.322 6.52-2 10-5.403 27.723 8.301 56.118 38 64 34.269 9.094 69.396-10.909 72-48 4.503-64.152-86.198-83.559-108-26"/><path fill="#068ebe" d="M566 436c-.821 1.621-5.816 6.577-6 7 .87-10.132-5.151-28.698-18-24-1.518-12.195-8.875-16.928-16-25-2.255-2.555-2.282-7.882-7.5-11-11.835-7.071-30.203-.152-37.5 11-9.551-1.522-18.202 9.159-23 16 21.802-57.559 112.503-38.152 108 26"/><path fill="#8aa9af" d="M480 506c68.003 21.122 135.485-34.732 121-106-1.487-7.315-5.362-17.527-9-24 41.229 37.055 26.678 107.82-20.5 133-25.346 13.528-69.437 17.05-91.5-3"/><path fill="#496a73" d="M860 542c-4.145-1.717-12.189-10.482-16-11-2.344-7.513-10.217-5.164-17-9-47.677-26.961-120.174-95.97-166-133l8-12c65.164 50.953 127.658 105.548 192 157.5-.141 2.601-.822 4.878-1 7.5"/><path fill="#fdfefe" d="M526 394c-1.486 17.32-17.557 27.119-34 24 1.192-3.903 1.399-10.705 0-14.5-1.037-2.814-8.878-9.162-11-9.5 7.297-11.152 25.665-18.071 37.5-11 5.218 3.118 5.245 8.445 7.5 11"/><path fill="#daf7f9" d="M481 394c2.122.338 9.963 6.686 11 9.5 1.399 3.795 1.192 10.597 0 14.5-2.914 9.542-19.654 22.976-30 15-1.408-3.399-7.461-7.207-6-13 .678-3.48.599-6.3 2-10 4.798-6.841 13.449-17.522 23-16"/><path fill="#0f79a3" d="M542 419c1.35 10.846-1.789 18.125-4 28-10.109-13.486-31.341-1.745-24 14-14.604 7.075-39.233-1.362-48-14.5-3.084-4.622-2.559-10.021-4-13.5 10.346 7.976 27.086-5.458 30-15 16.443 3.119 32.514-6.68 34-24 7.125 8.072 14.482 12.805 16 25m-47.5 1c-6.133 1.662-8.692 12.709-3 17 15.037 11.335 23.863-22.653 3-17"/><path fill="#fefeff" d="M374.5 415c28.68-3.825 26.35 38.715 3 52-22.888 13.022-43.067.109-33.5-26.5 3.159-8.787 21.291-24.272 30.5-25.5"/><path fill="#34e3f8" d="M560 443c-12.329 28.351-24.031 41.949-60 37-5.052-.695-10.865-1.044-14.5-5 11.827-2.722 33.771 1.493 40.5-10 7.215-1.514 11.236-5.48 13-12.5.511-2.033-1.156-2.873-1-3.5.142-.572-.132-1.412 0-2 2.211-9.875 5.35-17.154 4-28 12.849-4.698 18.87 13.868 18 24"/><path fill="#bbdce3" d="M579 424c.11 15.689-14.554 39.123-27.5 48 13.31-14.691 18.362-32.332 15.5-52 5.081-3.21 11.956-2.255 12 4"/><path fill="#0997c5" d="M456 420c-1.461 5.793 4.592 9.601 6 13 1.441 3.479.916 8.878 4 13.5 8.767 13.138 33.396 21.575 48 14.5.288.617 4.868 3.635 6 4 3.473 1.119 2.873.656 6 0-6.729 11.493-28.673 7.278-40.5 10 3.635 3.956 9.448 4.305 14.5 5 .281 4.482-4.158 1.798-6 4-29.699-7.882-43.403-36.277-38-64"/><path fill="#3ee3ef" d="M494.5 420c20.863-5.653 12.037 28.335-3 17-5.692-4.291-3.133-15.338 3-17"/><path fill="#8da9ae" d="M422 423c.844 35.434 33.056 62.158 65 68 8.777 1.605 14.644 3.407 24 3-16.051 7.068-41.77-1.328-56.5-10-1.94-1.142-16.349-11.826-17.5-13-9.79-9.983-15.868-29.399-17-43z"/><path fill="#06b4df" d="M566 436c-2.604 37.091-37.731 57.094-72 48 1.842-2.202 6.281.482 6-4 35.969 4.949 47.671-8.649 60-37 .184-.423 5.179-5.379 6-7"/><path fill="#43e8ea" d="M538 447c-.132.588.142 1.428 0 2-5.745 6.997-8.427 13.157-18 16-1.132-.365-5.712-3.383-6-4-7.341-15.745 13.891-27.486 24-14"/><path fill="#87f3fa" d="M538 449c-.156.627 1.511 1.467 1 3.5-1.764 7.02-5.785 10.986-13 12.5-3.127.656-2.527 1.119-6 0 9.573-2.843 12.255-9.003 18-16"/><path fill="#fdfefe" d="M285 478c.477-.389 1.427 1.053 1.5 1 43.103-30.916 24.292 25.311-2 33-27.122 7.932-8.776-26.434.5-34m-96 48c6.25 75.755 28.045 149.473 59 218.5 13.073 29.151 30.503 70.52 59.5 86.5l25.5 10c-4.369.447-57.697-10.757-61.5-13-5.228-3.084-22.011-36.086-27.5-44-35.992-69.547-66.626-142.791-78-221-1.049-7.214-2.842-13.54-3-21 8.484-5.665 17.239-10.777 26-16"/><path fill="#707c77" d="m631 537-2 2c-45.436-11.98-141.283-8.219-190-5l6-4c46.114-3.628 144.039-7.711 186 7"/><path fill="#393a2d" d="m445 530-6 4c-20.079 1.327-54.13-.668-67 15 .408-3.775.231-5.36 3.5-8 7.411-5.986 57.308-10.041 69.5-11"/><path fill="#8bd8ea" d="M844 531c3.811.518 11.855 9.283 16 11-.629 9.264-4.025 23.494-6 33-11.222 54.027-37.893 116.163-62 166-14.896 30.796-31.401 60.971-49.5 90-18.453 3.895-36.815 7.305-55.5 10 12.814-5.445 30.872-9.21 41-19.5 6.298-6.399 31.424-53.106 37-64 25.956-50.709 50.265-114.387 63-170 1.826-7.976 7.448-52.685 9-55 1.434-2.139 4.986-1.774 7-1.5"/><path fill="#a5bec5" d="M242 662c3.921 18.507 9.495 36.781 16 54.5 6.472 17.63 16.642 35.045 21.5 52.5-10.308-9.518-18.621-27.245-24.5-40.5-26.458-59.646-40.367-131.707-43-196.5 7.119 42.644 15.166 84.913 27 126.5.431 1.515.839 4.001 3 3.5"/><path fill="#b0b9b5" d="M629 539c16.617 4.381 14.864 5.703 14 23.5-1.805 37.191-12.051 81.642-16 120-4.187 40.671-6.495 81.685-9 122.5-1.655-.046-3.346.06-5 0 1.881-20.317.518-41.21 2-61.5 2.412-33.016 5.276-66.444 8-99.5 2.361-.354 3.981 2.18 5-1.5 2.1-7.581 8.667-76.281 8-84-.377-4.364-.59-2.438-2-4.5-6.009-8.786-41.836-9.076-53-10-13.303-1.102-43.403-4.839-55-3-12.315.126-24.687-.17-37 0-7.107.098-13.977.681-21 1-15.729.715-73.809 3.262-84 12-.326.279-2.618-.524-3 .5 3.618 50.677 13.4 101.221 17 152 2.341 33.024.264 66.512 4 99.5-1.459-.335-2.805.543-4-1.5-3.456-46.317-6.078-92.827-11-139-3.394-31.836-10.602-63.797-14-95.5-.544-5.071-1.506-16.313-1-21 12.87-15.668 46.921-13.673 67-15 48.717-3.219 144.564-6.98 190 5"/><path fill="#505e5b" d="M631 537c4.136 1.45 11.672 3.344 14 7.5 5.179 9.247-11.095 105.475-13 124-4.254 41.367-9.302 87.739-11 129-.117 2.845-.895 5.621 2 7.5-1.656-.028-3.345.046-5 0 2.505-40.815 4.813-81.829 9-122.5 3.949-38.358 14.195-82.809 16-120 .864-17.797 2.617-19.119-14-23.5z"/><path fill="#101613" d="M328 544c.12.717-.293 1.159-1 1-5.101-1.146-5.767.487-10 1-1.441.174-.418-2.406-2.5-2-2.26.441-8.624 4.034-11.5 5-4.792 1.61-7.027 3.282-11 5-8.546 3.696-31.358 13.373-37.5 19-4.395 4.026-2.48 13.648-1.5 19l-1 1c-1.239-6.117-2.878-12.295-3-18.5 9.612-7.38 67.267-37.774 75.5-35.5 1.947.538 2.85 4.029 3.5 5"/><path fill="#121613" d="m745 670-1-1c5.74-17.84 22.624-68.673 24-84.5.229-2.63-.161-5.357 0-8-5.511-3.714-11.343-7.027-17-10.5-3.358-2.061-6.647-3.218-10-5-7.69-4.087-36.756-19.072-43.5-20-1.241-.171-4.769-.697-4.5 1.5 2.109.676 9.441.745 10 3 .188.759-1.987.398-2 .5-1.495-.055-2.471-.741-4-1-11.121-1.882-8.229 13.055-13 21l-1-1c2.233-9.299 4.782-27.714 16.5-26 3.836.561 42.27 18.811 48 22 7.589 4.223 14.776 9.451 22.5 13.5 2.036 5.171-21.367 84.32-25 95.5"/><path fill="#617572" d="M489 541c4.497-.467 8.751 4.594 6 8.5l-9 1.5c-1.688.067-2.764.888-5 1-.797-4.942-9.316.547-11.5-1l-1.5-9c7.023-.319 13.893-.902 21-1"/><path fill="#698b8c" d="M526 541c-9.32 1.478-10.818 7.251-2 10-12.545-.185-25.475-.498-38 0l9-1.5c2.751-3.906-1.503-8.967-6-8.5 12.313-.17 24.685.126 37 0"/><path fill="#617572" d="M581 544c-1.009 5.628-2.401 6.86 2 11-4.966-.718-10-1.535-15-2-15.201-1.414-28.757-1.775-44-2-8.818-2.749-7.32-8.522 2-10 11.597-1.839 41.697 1.898 55 3"/><path fill="#16b7d7" d="m741 561-58 103c-6.122-10.776 15.556-99.391 18-118 .013-.102 2.188.259 2-.5-.559-2.255-7.891-2.324-10-3-.269-2.197 3.259-1.671 4.5-1.5 6.744.928 35.81 15.913 43.5 20"/><path fill="#4b5a53" d="m468 542 1.5 9c2.184 1.547 10.703-3.942 11.5 1-3.303.165-6.703-.212-10 0-14.004.901-63.34 5.005-73.5 11-2.137 1.261-2.277 4.164-4.5 5-1.186-4.689-3.152-12.579-9-14 10.191-8.738 68.271-11.285 84-12"/><path fill="#c0ebf7" d="M317 546c1.326 1.401 1.407 2.586 2 4-1.285-.036-1.083 1.006-1 2-6.227-13.774-6.066 20.795-7 26.5-2.112 12.9-6.18 25.758-9 38.5l-15-3c7.206-21.784 18.062-40.37 16-65 2.876-.966 9.24-4.559 11.5-5 2.082-.406 1.059 2.174 2.5 2"/><path fill="#a1bcc1" d="m327 545 27 131.5c-2.48 2.598-4.968 5.763-9 5L322 557c-.398-1.488-2.261-5.24-3-7-.593-1.414-.674-2.599-2-4 4.233-.513 4.899-2.146 10-1"/><path fill="#2b3e41" d="m252 593 1-1c2.932 16.017 11.125 39.639 16 56 1.079 3.622 1.89 7.376 3 11 1.718 5.61 2.893 11.508 5 17 1.51 3.936 3.424 13.521 8.5 15 4.928 1.436 49.924-5.301 54.5-8 1.197-.706 2.111-1.438 3-2.5-7.67-39.934-10.495-84.245-21-123.5l23 124.5c4.032.763 6.52-2.402 9-5L327 545c.707.159 1.12-.283 1-1 9.962 14.89 14.499 68.229 18 88.5 1.54 8.918 10.612 38.807 9 45-.249.958-2.524 3.835-3.5 4.5-2.314 1.578-42.828 9.52-48 10-17.465 1.622-21.98 3.307-28.5-14.5-7.642-20.873-18.519-62.384-23-84.5"/><path fill="#4c5a53" d="M634 554c-3.477 12.733-4.468 25.942-6 39h-7c.441-7.136 3.995-23.094 0-28.5-4.785-6.475-29.794-8.314-38-9.5-4.401-4.14-3.009-5.372-2-11 11.164.924 46.991 1.214 53 10"/><path fill="#a1bdc1" d="M697 545c3.308 5.63.54 4.071 0 6-9.605 34.322-14.512 69.83-20 105-1.259 8.069-2.32 16.338-3 24.5-1.286 3.453-8.659-1.128-9-3.5l19-111c4.771-7.945 1.879-22.882 13-21"/><path fill="#d3eef4" d="M701 546c-2.444 18.609-24.122 107.224-18 118 2.408 4.238 29.083 7.245 35 8v1c-13.462-1.697-31.448-.224-40-12 .238-2.081.239-4.005 1-6l18-104c.54-1.929 3.308-.37 0-6 1.529.259 2.505.945 4 1"/><path fill="#2ec7e3" d="M318 552c1.694 20.307 10.674 48.078 14 69.5 2.106 13.562 4.568 27.219 5 41-.281.83-3.554 3.108-4.5 3.5-3.863 1.599-31.258 7.063-37 8-5.094.831-10.414 1.78-15.5 0 2.055-2.76 6.425-3.222 9-6.5 7.117-9.058 10.322-38.403 13-50.5 2.82-12.742 6.888-25.6 9-38.5.934-5.705.773-40.274 7-26.5"/><path fill="#4fd1e9" d="M303 549c2.062 24.63-8.794 43.216-16 65-4.927 14.893-6.844 31.086-15 45-1.11-3.624-1.921-7.378-3-11 19.414-26.553 14.776-63.088 23-94 3.973-1.718 6.208-3.39 11-5"/><path fill="#dcf1f5" d="M322 557c10.505 39.255 13.33 83.566 21 123.5-.889 1.062-1.803 1.794-3 2.5 3.058-6.666-2.103-11.297-2.5-18-19.018 5.507-38.722 11-58.5 11-.609-1.925.882-1.842 1-2 5.086 1.78 10.406.831 15.5 0 5.742-.937 33.137-6.401 37-8 .946-.392 4.219-2.67 4.5-3.5-.432-13.781-2.894-27.438-5-41-3.326-21.422-12.306-49.193-14-69.5-.083-.994-.285-2.036 1-2 .739 1.76 2.602 5.512 3 7"/><path fill="#2d575c" d="M486 551c12.525-.498 25.455-.185 38 0 15.243.225 28.799.586 44 2l-2 2c-.654-.053-1.346.049-2 0-30.551-2.293-62.425-1.751-93 0v-3c3.297-.212 6.697.165 10 0 2.236-.112 3.312-.933 5-1"/><path fill="#34545e" d="m679 655-2 1c5.488-35.17 10.395-70.678 20-105z"/><path fill="#1b1e1a" d="M471 552v3c-10.124.58-71.401 4.815-74 12.5-1.079 3.191.695 11.652 1 15.5 2.232 28.196 6.62 56.635 9 85 3.858 45.986 6.404 92.123 11.5 138h179c3.479-2.107 1.939-4.244 2.5-7 3.42-16.803 5.258-43.628 7-61.5 5.504-56.486 7.61-113.482 13-170-2.008-6.366-32.396-9.616-39-10.5-4.891-.655-10.124-1.602-15-2l2-2c5 .465 10.034 1.282 15 2 8.206 1.186 33.215 3.025 38 9.5 3.995 5.406.441 21.364 0 28.5-4.361 70.574-12.993 141.058-19 211.5.653.986 9.124.432 11 .5 1.654.06 3.345-.046 5 0s3.344-.028 5 0c7.935.132 29.539-1.464 35.5 1 6.747 2.79 22.29 27.946 23.5 36-.257.034-.835.622-4 1-.812-9.19-14.022-34.129-22.5-36-6.467-1.427-19.029.989-26.5 1-.993.001-2.007-.007-3 0-74.625.495-149.42 2.412-224 0l3-2c3.433.318 7.038-.227 10.5 0-4.767-59.871-7.48-120.714-14.5-180.5-1.964-16.727-4.052-41.892-8-57.5 2.223-.836 2.363-3.739 4.5-5 10.16-5.995 59.496-10.099 73.5-11"/><path fill="#7cdcf0" d="M292 554c-8.224 30.912-3.586 67.447-23 94-4.875-16.361-13.068-39.983-16-56-.98-5.352-2.895-14.974 1.5-19 6.142-5.627 28.954-15.304 37.5-19"/><path fill="#627472" d="M384 554c5.848 1.421 7.814 9.311 9 14 3.948 15.608 6.036 40.773 8 57.5 7.02 59.786 9.733 120.629 14.5 180.5-3.462-.227-7.067.318-10.5 0-.961-.089-2.135.199-3 0-3.736-32.988-1.659-66.476-4-99.5-3.6-50.779-13.382-101.323-17-152 .382-1.024 2.674-.221 3-.5"/><path fill="#18879f" d="m564 555-1 10c-27.832-2.344-132.771-4.295-154.5 5-5.919 2.532-5.511 9.517-10.5 13-.305-3.848-2.079-12.309-1-15.5 2.599-7.685 63.876-11.92 74-12.5 30.575-1.751 62.449-2.293 93 0"/><path fill="#929d99" d="M623 644c1.401-17.004 3.013-34.061 5-51 1.532-13.058 2.523-26.267 6-39 1.41 2.062 1.623.136 2 4.5.667 7.719-5.9 76.419-8 84-1.019 3.68-2.639 1.146-5 1.5"/><path fill="#0e718c" d="M566 555c4.876.398 10.109 1.345 15 2l-1 9c-5.245-.719-11.678-.552-17-1l1-10c.654.049 1.346-.053 2 0"/><path fill="#045874" d="M600 799c-2.33 1.497-4.638 10.767-7 2 2.935-52.246 10.433-104.345 14-156.5 1.202-17.581 4.558-48.137 2-64.5-.388-2.479.92-6.797-2.5-9-1.309-.843-23.122-4.537-26.5-5l1-9c6.604.884 36.992 4.134 39 10.5-5.39 56.518-7.496 113.514-13 170-1.742 17.872-3.58 44.697-7 61.5"/><path fill="#44c8df" d="M741 561c3.353 1.782 6.642 2.939 10 5-7.054 7.89-6.94 21.557-10 31.5-7.659 24.889-21.513 47.912-23 74.5-5.917-.755-32.592-3.762-35-8z"/><path fill="url(#e)" d="M563 565c5.322.448 11.755.281 17 1 3.378.463 25.191 4.157 26.5 5 3.42 2.203 2.112 6.521 2.5 9l-20 224c-1.803.307-17.675.419-18.5 0-7.769-3.951.116-87.367.5-100.5.533-18.227 4.382-69.538 1-84-.616-2.636-25.712-31.199-28.5-32.5-7.565-3.531-54.807-9.565-65-10-21.022-.897-44.826 2.299-66 3l-4.5 6.5 8 71.5c-2.165 2.044-5.617 8.976-6 12l-3-2c-2.38-28.365-6.768-56.804-9-85 4.989-3.483 4.581-10.468 10.5-13 21.729-9.295 126.668-7.344 154.5-5" style="fill:url(#e)"/>/&gt;<path fill="#2c4045" d="m684 566-19 111h-1c-2.133-6.873 6.387-33.139 8-42.5 3.879-22.516 5.724-47.531 11-69.5z"/><path fill="#13a5c6" d="M744 669c-.726 2.257-1.184 4.786-2 7-8.076-.309-16.018-1.994-24-3v-1c1.487-26.588 15.341-49.611 23-74.5 3.06-9.943 2.946-23.61 10-31.5 5.657 3.473 11.489 6.786 17 10.5-.161 2.643.229 5.37 0 8-1.376 15.827-18.26 66.66-24 84.5"/><path fill="#5b6762" d="M402 806c.865.199 2.039-.089 3 0l-3 2c-.33.034-.672-.04-1 0-10.542.925-28.003-2.409-37 2l-1-1c10.038-5.006 19.501-2.446 30.5-3l1.5-3.5c-6.38-77.628-11.989-155.289-22-232.5 3.398 31.703 10.606 63.664 14 95.5 4.922 46.173 7.544 92.683 11 139 1.195 2.043 2.541 1.165 4 1.5"/><path fill="url(#f)" d="M589 804c.8-.136 1.963.228 2.5 0 1.091-.464-.319-2.906 1.5-3 2.362 8.767 4.67-.503 7-2-.561 2.756.979 4.893-2.5 7h-179c-5.096-45.877-7.642-92.014-11.5-138l3 2c-1.296 10.24 2.52 16.12 11 21 .818 17.31 1.168 34.767 3 52 2.05 19.282 3.903 37.755 22.5 49 6.174-2.805-5.523-23.547-6.5-27.5-1.892-7.659-2.409-15.791-4-23.5-3.099-15.018-5.756-30.722-7-46 19.763 2.713 30.281-17.839 19-33.5-7.126-9.893-23.202-11.805-32-3.5l-8-71.5 4.5-6.5c21.174-.701 44.978-3.897 66-3 10.193.435 57.435 6.469 65 10 2.788 1.301 27.884 29.864 28.5 32.5 3.382 14.462-.467 65.773-1 84-.384 13.133-8.269 96.549-.5 100.5.825.419 16.697.307 18.5 0" style="fill:url(#f)"/>/&gt;<path fill="#023850" d="M609 580c2.558 16.363-.798 46.919-2 64.5-3.567 52.155-11.065 104.254-14 156.5-1.819.094-.409 2.536-1.5 3-.537.228-1.7-.136-2.5 0z"/><path fill="#617572" d="M628 593c-1.987 16.939-3.599 33.996-5 51-2.724 33.056-5.588 66.484-8 99.5-1.482 20.29-.119 41.183-2 61.5-1.876-.068-10.347.486-11-.5 6.007-70.442 14.639-140.926 19-211.5z"/><path fill="#a0e4f4" d="M302 617c-2.678 12.097-5.883 41.442-13 50.5-2.575 3.278-6.945 3.74-9 6.5-.118.158-1.609.075-1 2h-2c-2.107-5.492-3.282-11.39-5-17 8.156-13.914 10.073-30.107 15-45z"/><path fill="#181e1e" d="M429 695c-2.721-.374-5.557-2.594-8-4-8.48-4.88-12.296-10.76-11-21 .383-3.024 3.835-9.956 6-12 8.798-8.305 24.874-6.393 32 3.5 11.281 15.661.763 36.213-19 33.5m-16-15c11.67 28.514 56.525-7.423 26-23-15.861-8.094-32.564 6.962-26 23"/><path fill="#f5f9f7" d="m439 657-16.5 3c-2.005 2.298-5.382 4.606-6.5 7.5-1.94 5.023 1.178 9.763-3 12.5-6.564-16.038 10.139-31.094 26-23"/><path fill="#1e282d" d="M678 661c-.79 6.916-5.248 20.076 1.5 23 2.69 1.166 26.92 5.561 31 6 21.201 2.28 24.262 5.628 31.5-14 .816-2.214 1.274-4.743 2-7l1 1c-2.132 6.561-2.953 20.861-11.5 23-7.002 1.752-63.569-7.733-68-12-.926-.891-1.147-2.862-1.5-4h1c.341 2.372 7.714 6.953 9 3.5.68-8.162 1.741-16.431 3-24.5l2-1c-.761 1.995-.762 3.919-1 6"/><path fill="#aebcb7" d="M413 680c4.178-2.737 1.06-7.477 3-12.5 1.118-2.894 4.495-5.202 6.5-7.5l16.5-3c30.525 15.577-14.33 51.514-26 23m8-4c-6.25 9.828 6.581 12.855 14.5 10 6.279-2.264 9.07-10.891 11.5-16.5l-8.5-9.5c7.639 7.784-3.502 9.355-9.5 12 4.698-20.963-14.693-9.288-12 4.5.545 1.054 2.682-.332 4-.5"/><path fill="#e9f1f0" d="M429 672c-2.285 1.008-3.365 3.409-8 4-1.318.168-3.455 1.554-4 .5-2.693-13.788 16.698-25.463 12-4.5"/><path fill="#566158" d="M421 676c4.635-.591 5.715-2.992 8-4 5.998-2.645 17.139-4.216 9.5-12l8.5 9.5c-2.43 5.609-5.221 14.236-11.5 16.5-7.919 2.855-20.75-.172-14.5-10"/><path fill="#58a6b7" d="M718 673c7.982 1.006 15.924 2.691 24 3-7.238 19.628-10.299 16.28-31.5 14-4.08-.439-28.31-4.834-31-6-6.748-2.924-2.29-16.084-1.5-23 8.552 11.776 26.538 10.303 40 12"/><path fill="#5facbd" d="M340 683c-4.576 2.699-49.572 9.436-54.5 8-5.076-1.479-6.99-11.064-8.5-15h2c19.778 0 39.482-5.493 58.5-11 .397 6.703 5.558 11.334 2.5 18"/><path fill="#1ba0be" d="M429 695c1.244 15.278 3.901 30.982 7 46l-12 2c-1.832-17.233-2.182-34.69-3-52 2.443 1.406 5.279 3.626 8 4"/><path fill="#158dab" d="M436 741c1.591 7.709 2.108 15.841 4 23.5.977 3.953 12.674 24.695 6.5 27.5-18.597-11.245-20.45-29.718-22.5-49z"/><path fill="url(#g)" d="M813 778c.188.054-.231 2.211 2.5 3 16.176 4.675 81.539 16.281 65.5 43.5-11.724 19.896-153.832 51.817-183.5 58.5-41.434 9.333-83.213 16.925-125.5 21.5l110.5-.5c11.682 2.404 24.595.575 35.5 5.5.788 3.217-27.996 7.943-31.5 8.5-101.949 16.198-268.377 16.556-370-1-29.963-5.176-44.728-10.238-2-14 37.512-3.302 75.922.162 113.5-.5-39.401-5.909-78.639-12.781-117.5-21.5-40.175-9.014-88.917-20.231-128-32-89.045-26.813-45.164-56.651 18-68l1-2c-1.221-1.544-2.594-3.271-3.5-5 10.969 8.558 24.809 3.166 37.5-2 2.44.034 4.008 8.459 5.5 10.5 1.343 1.837 2.904 1.362 3 1.5 5.489 7.914 22.272 40.916 27.5 44 3.803 2.243 57.131 13.447 61.5 13 .65-.067 1.343.031 2 0-.752 2.789 1.487 3.443 3.5 4 9.415 2.603 34.533 4.113 45.5 5 11.368.92 22.568 1.777 34 2 1.843 1.542-.196 3.7.5 4 1.51.651 25.507 2.644 29.5 3 15.865 1.414 32.059 1.748 48 2 21.645.343 44.916.252 66.5-1 6.945-.403 17.252-.861 23.5-4 19.116-.952 54.416-3.868 72.5-8 2.063-.471 5.408-.894 4.5-4 4.91-.521 10.025-.406 15-1 3.165-.378 3.743-.966 4-1 1.731-.229 3.506-.785 5-1 18.685-2.695 37.047-6.105 55.5-10 18.099-29.029 34.604-59.204 49.5-90l-13 29.5a1909 1909 0 0 0 29.5 8.5c2.251.631 4.147-1.101 4.5-1" style="fill:url(#g)"/>/&gt;<path fill="#fbfcfd" d="M401 808c-2.244.271-21.752 5.625-25.5 8-5.797 3.674-20.779 22.097-14.5 29-7.045-.613-15.627-.43-22-3.5-.253-1.995 22.04-30.05 25-31.5 8.997-4.409 26.458-1.075 37-2"/><path fill="#5c7c81" d="M678 843c-4.975.594-10.09.479-15 1-4.143.44-8.359.605-12.5 1-.793.076-.397-2.01-.5-2 4.406-13.252-14.785-24.617-21-35 7.471-.011 20.033-2.427 26.5-1 8.478 1.871 21.688 26.81 22.5 36"/><path fill="#9fbbc2" d="M626 808c-6.576 6.556-24.452-4.807-23 9-19.601-.668-39.38.377-59 0-23.045-.443-101.562-6.265-118.5-1-12.422 3.862-10.447 24.991-22 29-1.931.67-7.541-1.79-7.5 2-3.419-.2-6.678-.779-10-1-8.238-.549-16.763-.283-25-1-6.279-6.903 8.703-25.326 14.5-29 3.748-2.375 23.256-7.729 25.5-8 .328-.04.67.034 1 0 74.58 2.412 149.375.495 224 0"/><path fill="#819fa5" d="M629 808c6.215 10.383 25.406 21.748 21 35-.286.027-2.17 1.763-5 2-5.396-4.728-13.279-24.422-19.5-27-5.228-2.167-16.349-.79-22.5-1-1.452-13.807 16.424-2.444 23-9 .993-.007 2.007.001 3 0"/><path fill="#0d1823" d="M364 810c-2.96 1.45-25.253 29.505-25 31.5 6.373 3.07 14.955 2.887 22 3.5 8.237.717 16.762.451 25 1l-2 4c-10.967-.887-36.085-2.397-45.5-5-2.013-.557-4.252-1.211-3.5-4 8.411-9.553 16.15-26.091 28-32z"/><path fill="#7b99a2" d="M544 817c11.45 7.845 17.111 21.272 24 33-5.644.181-11.353-.139-17 0-20.833.513-41.26-.103-62 0-5.987.03-12.013.012-18 0-24.985-.978-50.041-1.538-75-3-.041-3.79 5.569-1.33 7.5-2 11.553-4.009 9.578-25.138 22-29 16.938-5.265 95.455.557 118.5 1"/><path fill="#56757d" d="M603 817c6.151.21 17.272-1.167 22.5 1 6.221 2.578 14.104 22.272 19.5 27-25.842 2.16-51.01 4.166-77 5-6.889-11.728-12.55-25.155-24-33 19.62.377 39.399-.668 59 0"/><path fill="#3b5d7a" d="M663 844c.908 3.106-2.437 3.529-4.5 4-18.084 4.132-53.384 7.048-72.5 8-4.246.211-31.978 1.701-33.5 1-2.35-1.083-1.314-4.977-1.5-7 5.647-.139 11.356.181 17 0 25.99-.834 51.158-2.84 77-5 2.83-.237 4.714-1.973 5-2 .103-.01-.293 2.076.5 2 4.141-.395 8.357-.56 12.5-1"/><path fill="#132c51" d="M396 847c24.959 1.462 50.015 2.022 75 3-8.821-.018-18.008 1.084-27 1-8.633-.08-17.247 1.17-26 1-11.432-.223-22.632-1.08-34-2l2-4c3.322.221 6.581.8 10 1"/><path fill="#7293a9" d="m489 850 7 11c-15.941-.252-32.135-.586-48-2-1.476-3.173-5.198-3.012-4-8 8.992.084 18.179-1.018 27-1 5.987.012 12.013.03 18 0"/><path fill="#658094" d="M551 850c.186 2.023-.85 5.917 1.5 7 1.522.701 29.254-.789 33.5-1-6.248 3.139-16.555 3.597-23.5 4-21.584 1.252-44.855 1.343-66.5 1l-7-11c20.74-.103 41.167.513 62 0"/><path fill="#577999" d="M444 851c-1.198 4.988 2.524 4.827 4 8-3.993-.356-27.99-2.349-29.5-3-.696-.3 1.343-2.458-.5-4 8.753.17 17.367-1.08 26-1"/></svg>