<svg xmlns="http://www.w3.org/2000/svg" width="1024" height="1024"><defs><linearGradient id="a" x1="448.908" x2="784.179" y1="419.61" y2="758.907" gradientUnits="userSpaceOnUse"><stop offset="21.803%" style="stop-color:#bcc8cf"/><stop offset="95.388%" style="stop-color:#7492a2"/></linearGradient></defs><defs><linearGradient id="b" x1="386.679" x2="400.435" y1="254.478" y2="288.826" gradientUnits="userSpaceOnUse"><stop offset="0%" style="stop-color:#84cbdf"/><stop offset="100%" style="stop-color:#60a7c2"/></linearGradient></defs><defs><linearGradient id="c" x1="518.397" x2="586.216" y1="233.188" y2="250.525" gradientUnits="userSpaceOnUse"><stop offset="0%" style="stop-color:#5298b3"/><stop offset="100%" style="stop-color:#3f7f9a"/></linearGradient></defs><defs><linearGradient id="d" x1="575.89" x2="766.841" y1="338.881" y2="394.904" gradientUnits="userSpaceOnUse"><stop offset="0%" style="stop-color:#2a6079"/><stop offset="100%" style="stop-color:#1d4357"/></linearGradient></defs><defs><linearGradient id="e" x1="693.276" x2="263.808" y1="314.775" y2="442.295" gradientUnits="userSpaceOnUse"><stop offset="0%" style="stop-color:#60accd"/><stop offset="41.964%" style="stop-color:#abdff1"/><stop offset="58.259%" style="stop-color:#c2ebf6"/><stop offset="100%" style="stop-color:#84d3ef"/></linearGradient></defs><defs><linearGradient id="f" x1="860.724" x2="827.437" y1="317.347" y2="331.058" gradientUnits="userSpaceOnUse"><stop offset="0%" style="stop-color:#4b6976"/><stop offset="100%" style="stop-color:#6c8792"/></linearGradient></defs><defs><linearGradient id="g" x1="487.938" x2="536.544" y1="425.9" y2="578.338" gradientUnits="userSpaceOnUse"><stop offset="0%" style="stop-color:#001749"/><stop offset="100%" style="stop-color:#07588d"/></linearGradient></defs><defs><linearGradient id="h" x1="688.774" x2="741.772" y1="512.787" y2="513.226" gradientUnits="userSpaceOnUse"><stop offset="0%" style="stop-color:#bdd9e2"/><stop offset="100%" style="stop-color:#97afbb"/></linearGradient></defs><defs><linearGradient id="i" x1="373.642" x2="679.119" y1="547.308" y2="696.586" gradientUnits="userSpaceOnUse"><stop offset="0%" style="stop-color:#85dbf2"/><stop offset="100%" style="stop-color:#247ba3"/></linearGradient></defs><defs><linearGradient id="j" x1="387.752" x2="774.859" y1="630.573" y2="668.904" gradientUnits="userSpaceOnUse"><stop offset="0%" style="stop-color:#0d92bb"/><stop offset="100%" style="stop-color:#0c577f"/></linearGradient></defs><defs><linearGradient id="k" x1="926.852" x2="866.861" y1="605.49" y2="606.551" gradientUnits="userSpaceOnUse"><stop offset="0%" style="stop-color:#264353"/><stop offset="100%" style="stop-color:#3f5f6d"/></linearGradient></defs><defs><linearGradient id="l" x1="160.45" x2="273.991" y1="786.268" y2="830.905" gradientUnits="userSpaceOnUse"><stop offset="0%" style="stop-color:#9aabb1"/><stop offset="100%" style="stop-color:#325464"/></linearGradient></defs><defs><linearGradient id="m" x1="854.578" x2="753.211" y1="788.83" y2="838.767" gradientUnits="userSpaceOnUse"><stop offset="0%" style="stop-color:#1f394a"/><stop offset="100%" style="stop-color:#345766"/></linearGradient></defs><defs><linearGradient id="n" x1="347.682" x2="280.237" y1="823.659" y2="838.222" gradientUnits="userSpaceOnUse"><stop offset="0%" style="stop-color:#5e7780"/><stop offset="100%" style="stop-color:#3b5c6b"/></linearGradient></defs><defs><linearGradient id="o" x1="704.011" x2="747.098" y1="828.225" y2="841.206" gradientUnits="userSpaceOnUse"><stop offset="0%" style="stop-color:#3b5b69"/><stop offset="100%" style="stop-color:#1f3c4c"/></linearGradient></defs><defs><linearGradient id="p" x1="658.455" x2="603.821" y1="834.259" y2="840.593" gradientUnits="userSpaceOnUse"><stop offset="0%" style="stop-color:#3c6070"/><stop offset="100%" style="stop-color:#5a7b89"/></linearGradient></defs><defs><linearGradient id="q" x1="566.902" x2="451.903" y1="919.755" y2="920.242" gradientUnits="userSpaceOnUse"><stop offset="0%" style="stop-color:#234151"/><stop offset="100%" style="stop-color:#728a94"/></linearGradient></defs><path fill="#0a2041" d="M435 899c-.937-8.724 1.499-21.629-7-26-11.549-5.939-38.29-10.931-52.5-16-16.355-5.834-32.3-13.618-48-21-6.359 6.102-58 44.684-62 44-25.191-23.462-53.026-44.338-78-68-3.953-3.745-29.864-28.317-30.5-30.5-3.497-12.007 3.083-39.611-5-53l43-46c-12.014-14.913-19.71-32.711-27.5-49.5L78 625.5l-4-192 92.5-13.5c9.681-15.7 14.397-35.313 24.5-51.5l-45-45c2.655-18.724 6.906-38.144 5-57L260.5 168c3.205-.513 19.381 10.791 23.5 13l-1 3c-6.657-3.563-13.101-7.965-19.5-12l-4 1L154 268.5c-1.194 3.82 44.646 52.43 50 62 2.17 3.879 4.818 7.336 4 12-.554 3.157-22.424 40.622-26 48-2.239 4.62-11.005 30.217-13.5 31.5L77 435.5c.531 39.753-.448 79.834 2 119.5.231 3.748.903 24.291 2.5 25 28.165 1.009 56.23 3.465 84 8l41.5 77.5c.854 3.801 1.737 6.105 0 10-4.125 9.247-51.127 46.167-52 54-.321 2.883 5.167 9.554 7.5 11.5l108 95 62-49c28.54 16.448 59.068 29.487 91 38l2.5 2.5 13 71 4.5 3.5h140l2.5-1.5c.494-10.969 8.414-72.301 15.5-76.5 5.531-3.278 31.973-9.267 41-13 7.754-3.207 47.559-23.621 51-23l62 46L867 736.5c-.357-.445-1.212-.818-1-1.5 1.274-4.095 2.929-4.85 1-9.5-2.665-6.426-34.982-34.528-42-42.5-3.352-3.807-6.235-8.043-10-11.5l41.5-81.5c9.907-7.555 83.97-7.441 86.5-11l5-142.5-92.5-13.5c-1.187-.585-4.593-9.017-5.5-11-10.892-23.823-19.24-48.884-35-70.5.411-3.333 2.537-5.72 4-8.5 10.513-19.976 38.195-40.056 48-58 1.172-2.145 3.118-2.9 2-7.5L763.5 172l-84 45c-10.831-5.339-21.814-11.481-33-16-8.591-3.471-28.709-12.871-36.5-14-4.709-3.12-12.301-2.424-14-8.5L579.5 91 452 90c-2.109-.146-8.111.436-9 2.5-1.611 3.739-2.701 27.253-4 34-1.393 7.238-11.156 54.437-13.5 56.5-1.841 1.267-6.163 1.346-7.5 2l-1-2c3.517-1.655 6.006-1.346 8-5.5 2.88-5.999 9.183-43.516 11-53 1.395-7.28 2.181-29.482 4-34 1.538-3.82 21.849-4.24 26.5-4.5 26.998-1.507 72.559-2.249 99 0 2.091.178 15.294 1.61 16 2 4.237 2.337 5.288 28.147 6.5 34.5 3.629 19.025 8.385 37.956 12 57 26.655 10 53.311 20.193 78.5 33.5l85-45L873 266.5c-1.594 18.856 3.662 38.184 6 57l-46 45 22 50 95 15-4 193c-30.709 1.771-61.817 1.559-92 8-4.865 17.59-14.349 33.435-25 48 5.187 7.392 41.934 38.638 43 44 .359 1.808-5.456 27.644-6 33-.631 6.209 1.754 17.979 1 22-1.927 10.273-95.451 85.049-108.5 98.5l-62-44c-32.875 15.174-65.894 30.778-102 37l-13 61c-46.633 2.384-94.442 4.237-140.5-1.5-1.215-11.261-3.312-22.535-6-33.5M154 326c10.029 14.213 27.36 24.545 37.5 39 2.003-3.118 14.392-22.914 14.5-24.5.253-3.714-38.435-49.787-44-55.5-2.35-2.412-4.348-5.329-7-7.5l-2 1c-.706 2.089-3.589 41.875-3 44 .282 1.017 3.584 2.91 4 3.5m715-45-51 60.5 13.5 23.5c4.774-8.109 41.648-37.672 43.5-42.5 2.271-5.921-6.596-31.484-6-41.5l.5-3zM167 629c1.706.355 3.515.153 5 1.5-.546 7.881 22.126 48.918 26.5 48.5 1.631-2.297 7.163-5.82 7.5-8.5.049-.387-4.848-5.64-5-6-8.408-19.874-21.759-46.309-32-66-1.067-2.051-5.254-1.755-4.5-7.5-1.021-.204-2.781.305-3.5 0-20.145-8.557-58.357-4.088-80.5-9l-.5 41.5zm700-38c-1.865.526-5.308.012-7.5 1-3.189 1.816-21.828 43.365-25.5 50.5-1.956 3.802-16.053 25.432-16 27 .021.605 6.895 9.502 7.5 9.5 2.791-.011 12.786-16.325 14.5-19.5 2.568-4.759 4.354-13.365 6-17 2.807-6.2 8.01-12.471 10-18.5-1.433 5.728 4.984 4.09 8.5 4 10.375-.267 21.608-3.111 32-4 5.067-.434 34.515.019 36-1 1.682-1.154-1.468-7.233 2.5-7 .07 2.509-1.248 4.569-.5 7 15.047 8.315 7.913-32.608 9.5-39.5-.73-1.032-3.697-.31-5-.5-11.371-1.659-59.889 4.586-72 8M276 869c18.21-10.808 35.267-23.462 51.5-37 9.646 5.948 20.058 10.68 30.5 15 19.538 8.083 42.27 17.749 63 22 3.18.652 6.68 2.066 10 1.5.966-1.701-5.638-35.25-7-38.5-.681-1.624.476-3.085-2.5-5-22.438-6.122-44.374-14.325-65.5-24-7.746-3.547-14.995-8.935-22.5-13-7.711 7.912-58.755 43.445-60.5 50L158.5 740c-2.463.15-1.54 4.872-1.5 6.5.102 4.168 1.524 32.365 2 34 .653 2.241 29.256 28.579 33.5 32.5 23.864 22.045 50.55 40.762 74 63 .754.009 8.267-6.268 9.5-7m581-119c-32.324 26.824-63.208 58.118-95.5 84-2.973 2.383-5.831 5.921-9.5 4-1.57-3.634-43.462-34.38-50-39-1.737-1.227-10.641-8.979-11.5-9-8.033 4.553-16.101 10.21-24.5 14-12.294 5.548-56.508 18.649-62.5 23-6.125 4.448-7.928 33.838-10.5 42.5.701.908 2.457.458 3.5.5 2.699.11 48.063-12.738 51-14 5.053-2.172 9.742-5.247 15-7 .326-2.796.851-5.265 1.5-8 .514 1.8-1.408 6.367 1.5 7 1.793.39 28.239-15.153 33.5-15 1.546 6.623 42.178 29.488 49.5 37l3.5-3c-.077 1.05-2.052 3.305-2 3.5.13.489 7.775 5.587 8.5 5.5l99.5-88.5c-2.697-2.008-.056-6.27 0-7.5-2.327 9.805 6.26 3.391 7 .5 1.709-6.672-3.025-29.053 2-38-3.818.168-7.315 5.272-10 7.5M573 932c2.04-.17 4.691-1.302 7-1.5 1.054-9.321 2.778-15.522 3-25l-6-.5-137 1.5 4.5 25.5c16.666.769 33.318 2.1 50 2 20.664-.124 56.57-.17 78.5-2"/><path fill="#c4dae0" d="M610 187c-11.09-1.607-9.116 3.432-16 10-2.518 2.403-21.746 19.634-21 21.5 18.436 6.093 37.478 8.9 55 17.5-23.33-8.99-52.215-15.697-77-19-14.937-1.99-30.003-2.213-45-2-3.591.051-7.368-.198-11 0 .552-2.686 11.15-3.312 2-6 1.227-.503 2.349-1.256 4-1.5-2.058-19.31 9.861-57.355 27.5-66.5 1.9-.985 3.78 2.04 4 2 1.023-.187 8.203-15.901 12-17 1.421-.412 26.768-.665 28 0l11.5 39.5-8-70c-3.743-5.11-113.339.367-126.5-2.5 5.603-.954 13.618-2.232 2.5-3l127.5 1 16.5 87.5c1.699 6.076 9.291 5.38 14 8.5"/><path fill="#e8f2f5" d="M452 90c11.118.768 3.103 2.046-2.5 3 13.161 2.867 122.757-2.61 126.5 2.5l8 70-11.5-39.5c-1.232-.665-26.579-.412-28 0-3.797 1.099-10.977 16.813-12 17-.22.04-2.1-2.985-4-2-17.639 9.145-29.558 47.19-27.5 66.5-1.651.244-2.773.997-4 1.5-8.135 3.337-30.951 3.074-41.5 5-93.097 17-177.448 68.858-223.5 153-3.828.786-16.516-9.009-17.5-9-5.297.048-34.96 70.322-31.5 81.5l-2.5 2.5-92.5 8.5 1 64c.63 1.218 3.351.209 4-.5.444 4.614 1.984 4.254 2 4.5.898 13.38-.664 27.098 0 40.5-1.202-2.179-.831-4.536-1.5-5-.917-.636-12.293.053-14.5 1-2.448-39.666-1.469-79.747-2-119.5l91.5-13.5c2.495-1.283 11.261-26.88 13.5-31.5 3.576-7.378 25.446-44.843 26-48 .818-4.664-1.83-8.121-4-12-5.354-9.57-51.194-58.18-50-62L259.5 173l4-1c6.399 4.035 12.843 8.437 19.5 12 20.499 10.973 40.901 22.188 61.5 33 23.162-13.538 49.456-20.244 73.5-32 1.337-.654 5.659-.733 7.5-2 2.344-2.063 12.107-49.262 13.5-56.5 1.299-6.747 2.389-30.261 4-34 .889-2.064 6.891-2.646 9-2.5m4 36c-.947 3.419-1.146 11.294-.5 15 4.388-5.646 4.811-16.048 13-18 16.86-4.018 43.258 1.193 61-1 3.207-.396 8.537-.659 4.5-4 6.958.215 34.788 2.227 39.5 0 4.109-1.942-1.827-14.571-5-16l-111 4c-2.915 1.554-8.751 21.841-1.5 20"/><path fill="#d5e6eb" d="M534 118c-12.978-.401-65.473-5.271-73.5 0-1.68 1.103-3.998 6.188-4.5 8-7.251 1.841-1.415-18.446 1.5-20l111-4c3.173 1.429 9.109 14.058 5 16-4.712 2.227-32.542.215-39.5 0"/><path fill="#f3f9fb" d="M534 118c4.037 3.341-1.293 3.604-4.5 4-17.742 2.193-44.14-3.018-61 1-8.189 1.952-8.612 12.354-13 18-.646-3.706-.447-11.581.5-15 .502-1.812 2.82-6.897 4.5-8 8.027-5.271 60.522-.401 73.5 0"/><path fill="#9abec8" d="M867 275c-2.724-.215-7.023-4.077-9-4 1.484-1.986 1.057-3.528 0-5.5-2.677-4.996-32.06-31.532-38.5-37.5-17.346-16.075-35.196-32.057-55-45-4.238-.47-32.388 22.924-38.5 27-14.572 9.717-31.251 16.712-44.5 29l-45-25-42.5-17c6.884-6.568 4.91-11.607 16-10 7.791 1.129 27.909 10.529 36.5 14 11.186 4.519 22.169 10.661 33 16l84-45L869 267.5c1.118 4.6-.828 5.355-2 7.5"/><path fill="#87b4c5" d="m417 183 1 2c-24.044 11.756-50.338 18.462-73.5 32-20.599-10.812-41.001-22.027-61.5-33l1-3c20.492 10.986 41.045 21.923 61.5 33 21.395-14.379 48.841-20.335 71.5-31"/><path fill="#bdd2da" d="M858 271c-6.891.267-55.312 53.115-65 60-.005-.125-2.504.586-2-1.5l58-63c-13.266-12.272-26.519-25.061-40.5-36.5-8.638-7.068-25.805-21.905-34.5-27-2.628-3.757-10.07-10.455-14.5-10-1.83.188-27.71 16.525-31.5 19l-2-2c6.112-4.076 34.262-27.47 38.5-27 19.804 12.943 37.654 28.925 55 45 6.44 5.968 35.823 32.504 38.5 37.5 1.057 1.972 1.484 3.514 0 5.5"/><path fill="#d5e7ec" d="M774 203c-1.547-.906-9.489-5.014-10.5-5-14.801 7.205-30.528 15.63-45.5 20.5 3.019-2.504 6.668-4.324 10-6.5 3.79-2.475 29.67-18.812 31.5-19 4.43-.455 11.872 6.243 14.5 10"/><path fill="url(#a)" d="m594 197 42.5 17 45 25c13.249-12.288 29.928-19.283 44.5-29l2 2c-3.332 2.176-6.981 3.996-10 6.5 14.972-4.87 30.699-13.295 45.5-20.5 1.011-.014 8.953 4.094 10.5 5 8.695 5.095 25.862 19.932 34.5 27 13.981 11.439 27.234 24.228 40.5 36.5l-58 63c-.504 2.086 1.995 1.375 2 1.5.496 11.814 11.208 21.39 17 32.5 9.65 18.512 17.828 39.38 25 57 1.539 3.781 7.01 21.594 9.5 22.5l86.5 9.5-8 94-80.5 12.5c-16.169 38.874-28.64 80.414-55.5 113.5l47 55-39 32.5c-6.642 4.543-42.408 30.532-46.5 30-7.912-1.028-41.712-34.92-48-34-37.127 23.886-79.884 43.84-124 50-2.246 1.358-4.196 43.688-14 50-16.273 10.478-97.357.328-119-4l-2.5-46.5c-1.996-3.147-3.803-.455-4-.5-36.39-8.314-71.632-22.531-103.5-42-9.546 5.384-45.855 36.029-55 35-2.123-.239-31.664-20.014-36-23-20.965-14.439-40.271-31.587-60.5-47 3.027-4.629 17.91-20.849 22.5-22 5.9-1.48 35.226.723 45 0 4.697-.347 45.138-4.907 45.5-7.5-22.535-20.503-43.419-45.266-59-71.5-47.96-80.748-49.051-177.688-4-260 46.052-84.142 130.403-136 223.5-153 10.549-1.926 33.365-1.663 41.5-5 9.15 2.688-1.448 3.314-2 6-71.844 3.916-135.641 30.284-189 78-17.812 15.928-31.21 30.325-45 50-45.603 65.066-59.481 138.253-40 216 8.489 33.88 23.409 62.236 44 90 22.245 29.994 43.031 48.297 74 69 31.218 20.869 64.865 38.232 102 46 144.502 30.227 304.707-42.802 355-185.5 49.864-141.479-32.017-286.892-166-340.5.491-2.727-1.156-1.586-2-2-17.522-8.6-36.564-11.407-55-17.5-.746-1.866 18.482-19.097 21-21.5" style="fill:url(#a)"/>/&gt;<path fill="url(#b)" d="M506 215c13.216 12.608-.685 29.556-9 41-2.294.116-3.966.927-5 1-43.592 3.072-87.231 13.483-125 36-28.228-8.237-62.183 8.446-53 41-4.559 2.138-8.391 5.609-12 9-9.638-4.755-20.005-8.693-21-21 7.713-9.073 15.933-16.859 24-25.5.792-.848 3.478-2.629 1-3.5 53.359-47.716 117.156-74.084 189-78 3.632-.198 7.409.051 11 0" style="fill:url(#b)"/>/&gt;<path fill="url(#c)" d="M551 217c-.798 1.853 3.671 2.866 4.5 3 11.587 1.868 22.183 4.011 33.5 7 5.302 11.899 9.268 25.139 5 38-22.824-5.655-52.789-9.645-77-10-6.635-.097-13.361.665-20 1 8.315-11.444 22.216-28.392 9-41 14.997-.213 30.063.01 45 2" style="fill:url(#c)"/>/&gt;<path fill="#00173d" d="M628 236c.132.051.241 1.296 2 2 133.983 53.608 215.864 199.021 166 340.5C745.707 721.198 585.502 794.227 441 764l1.5-5c120.937 28.678 265.637-26.405 327.5-135.5 7.902-13.935 29.339-59.019 29-73.5-.19-8.149-13.999-31.447-19-39-3.838-5.796-6.741-8.879-11-14-1.307-1.571-2.758-2.613-4-4-5.244-5.857-9.1-9.774-15-15-27.597-24.442-56.208-39.683-91-52-3.344-1.184-6.664-1.93-10-3-29.04-9.316-59.457-17.139-90-18-.102-.035.362-1.777-.5-2-31.203-.485-62.368-1.219-93.5 2-26.486 2.739-70.428 9.43-93 22-1.688.94-4.354 2.029-6 3 1.595-1.242 3.115-5.192 4-6 21.842-19.933 124.606-28.691 155-28 52.078 1.185 107.361 14.626 155.5 34 6.143 2.472 34.207 18.098 37.5 18 18.277 12.328 36.384 25.323 51 42 11.862 13.534 23.248 30.81 30 47.5 3.825 3.801 1.056-13.417 1-14.5l2.5 3c.891-.292.422-2.9.5-4 .973-1.266 2.873-2.089 3-3.5 5.697-63.508-7.657-122.344-48-178-41.091-56.69-101.714-95.728-169-113.5-11.317-2.989-21.913-5.132-33.5-7-.829-.134-5.298-1.147-4.5-3 24.785 3.303 53.67 10.01 77 19"/><path fill="url(#d)" d="M803 522c8.057-113.659-110.715-232.648-209-257 4.268-12.861.302-26.101-5-38 67.286 17.772 127.909 56.81 169 113.5 40.343 55.656 53.697 114.492 48 178-.127 1.411-2.027 2.234-3 3.5" style="fill:url(#d)"/>/&gt;<path fill="#b6dde5" d="M630 238c-1.759-.704-1.868-1.949-2-2 .844.414 2.491-.727 2 2"/><path fill="#1b5e82" d="M517 255v3c-5.792-.052-21.071-.163-26 1l1-2c1.034-.073 2.706-.884 5-1 6.639-.335 13.365-1.097 20-1"/><path fill="#052a4e" d="M594 265c98.285 24.352 217.057 143.341 209 257-.078 1.1.391 3.708-.5 4l-2.5-3c-3.796-73.123-32.826-135.395-86-185-38.577-35.987-81.576-58.91-133-71-22.029-5.179-41.072-8.795-64-9v-3c24.211.355 54.176 4.345 77 10"/><path fill="#62acc7" d="m492 257-1 2c-.109.026-1.809.927-2 1-41.036 2.438-82.02 14.563-118 34-.957-.391-2.913-.683-4-1 37.769-22.517 81.408-32.928 125-36"/><path fill="url(#e)" d="M517 258c22.928.205 41.971 3.821 64 9 55.567 20.432 105.297 52.159 141 100 .899 3.185 2.143 5.194 3 9 4.285 19.035 9.061 41.403 2 60.5-.474 1.281-7.109 11.199-8 11.5-53.814-41.14-128.541-60.569-196-62-83.901-1.78-175.644 24.147-236 84-5.657 4.72-13.995 12.6-19 18-12.439-27.652-6.944-59.547-6-89 2.083-3.516 3.399-7.098 6-11 12.792-19.188 29.055-37.49 47-52 .463 1.066 1.322 2.056 2 3l-35.5 59 46.5-50c9.639 4.112 26.708 4.246 36.5 1 4.749 17.261 17.212 29.868 36 29 33.744-1.559 43.205-48.686 14-59-8.1-2.86-21.016.536-22 0-.676-.368-.991-4.164-1.5-5 11.886-4.165 17.427-11.811 24-22 2.798.757 1.563 2.084 4 2-.444.787-3.62 6.549-2.5 7 7.84-.965 14.982-4.12 22.5-6 69.609-17.41 139.509-8.787 204.5 21-51.886-36.345-118.665-50.272-181-38-5.74-1.08 11.091-7.459 12-8 3.417-2.033 11.913-9.008 14.5-10 .191-.073 1.891-.974 2-1 4.929-1.163 20.208-1.052 26-1m200 131c1.106 1.777 1.515 3.687 3.5 5 1.798-2.466-3.197-4.649-3.5-5-4.387-7.051-8.21-15.491-15.5-20 3.654 7.072 10.268 13.937 15.5 20m-393.5-17c-21.478 3.468-34.466 48.597 2 43 27.721-4.255 33.721-48.767-2-43" style="fill:url(#e)"/>/&gt;<path fill="#c1eaf6" d="M489 260c-2.587.992-11.083 7.967-14.5 10-.909.541-17.74 6.92-12 8 62.335-12.272 129.114 1.655 181 38-64.991-29.787-134.891-38.41-204.5-21l10.5-12-1-2c-12.596 4.97-21.977-.348-29.5 13-2.437.084-1.202-1.243-4-2-6.068-1.641-23.853 9.138-30 12-3.379-3.954-9.126-8.007-14-10 35.98-19.437 76.964-31.562 118-34"/><path fill="#4090b6" d="M714 338c2.909 9.533 5.283 19.377 8 29-35.703-47.841-85.433-79.568-141-100 51.424 12.09 94.423 35.013 133 71"/><path fill="#61879b" d="M867 275c-9.805 17.944-37.487 38.024-48 58-5.853 1.112-3.802 9.059-7 12.5 15.968 18.591 22.797 43.502 34 65 .816 1.566 2.2 4.196 4 1.5.907 1.983 4.313 10.415 5.5 11l92.5 13.5-5 142.5c.211-.296.207-4.532-.5-5-30.04 1.496-60.106 2.872-89 12-13.847 29.323-26.894 59.407-46.5 85.5 4.815 5.466 11.371 17.74 18 11.5 7.018 7.972 39.335 36.074 42 42.5 1.929 4.65.274 5.405-1 9.5-17.104 9.731-33.103 21.835-48.5 34-20.897 16.51-40.27 36.619-62 51-1.408-.262-3.292-2.902-3.5-3 3.823-2.936 12.788-9.23 10.5-13l89.5-75.5-36.5-35.5c-1.674 2.141.319 2.828 1 4 3.087 5.312 24.732 26.69 23.5 31.5-15.085 10.376-29.93 21.192-45 31.5l39-32.5-47-55c26.86-33.086 39.331-74.626 55.5-113.5l80.5-12.5 8-94-86.5-9.5c-2.49-.906-7.961-18.719-9.5-22.5-7.172-17.62-15.35-38.488-25-57-5.792-11.11-16.504-20.686-17-32.5 9.688-6.885 58.109-59.733 65-60 1.977-.077 6.276 3.785 9 4"/><path fill="#c4d9dd" d="M162 285c-4.423 9.639-1.587 23.311-3 33.5-.515 3.715-.792 6.931-5 7.5-.416-.59-3.718-2.483-4-3.5-.589-2.125 2.294-41.911 3-44l2-1c2.652 2.171 4.65 5.088 7 7.5"/><path fill="#3b6477" d="m869 281 .5-3z"/><path fill="url(#f)" d="M869 281c-.596 10.016 8.271 35.579 6 41.5-1.852 4.828-38.726 34.391-43.5 42.5L818 341.5z" style="fill:url(#f)"/>/&gt;<path fill="#ebf8fc" d="M439 295c-7.518 1.88-14.66 5.035-22.5 6-1.12-.451 2.056-6.213 2.5-7 7.523-13.348 16.904-8.03 29.5-13l1 2z"/><path fill="#a6bec4" d="M154 326c4.208-.569 4.485-3.785 5-7.5 1.413-10.189-1.423-23.861 3-33.5 5.565 5.713 44.253 51.786 44 55.5-.108 1.586-12.497 21.382-14.5 24.5-10.14-14.455-27.471-24.787-37.5-39"/><path fill="#fefefe" d="M367 293c1.087.317 3.043.609 4 1 4.874 1.993 10.621 6.046 14 10 2.947 3.449 3.832 6.435 6 10 .509.836.824 4.632 1.5 5 .984.536 13.9-2.86 22 0 29.205 10.314 19.744 57.441-14 59-18.788.868-31.251-11.739-36-29-9.792 3.246-26.861 3.112-36.5-1-3.488-1.488-8.796-5.931-11-9-.678-.944-1.537-1.934-2-3-.324-.745-.78-1.221-1-2-9.183-32.554 24.772-49.237 53-41"/><path fill="#ddf5fb" d="M415 292c-6.573 10.189-12.114 17.835-24 22-2.168-3.565-3.053-6.551-6-10 6.147-2.862 23.932-13.641 30-12"/><path fill="#32718e" d="M281 322c-6.095 7.17-12.622 14.262-18 22l-2-1c13.79-19.675 27.188-34.072 45-50 2.478.871-.208 2.652-1 3.5-8.067 8.641-16.287 16.427-24 25.5"/><path fill="#357897" d="M302 343c-13.932 13.09-25.426 28.16-36 44-31.643 47.405-45.182 99.142-43 156.5-5.342-10.141-7.3-27.259-8-39-3.396-56.951 15.807-114.176 48-160.5 5.378-7.738 11.905-14.83 18-22 .995 12.307 11.362 16.245 21 21"/><path fill="#83adba" d="M819 333c-1.463 2.78-3.589 5.167-4 8.5 15.76 21.616 24.108 46.677 35 70.5-1.8 2.696-3.184.066-4-1.5-11.203-21.498-18.032-46.409-34-65 3.198-3.441 1.147-11.388 7-12.5"/><path fill="#1d5f7f" d="M315 336c-17.945 14.51-34.208 32.812-47 52l-2-1c10.574-15.84 22.068-30.91 36-44 3.609-3.391 7.441-6.862 12-9 .22.779.676 1.255 1 2"/><path fill="#1c719b" d="M800 523c.056 1.083 2.825 18.301-1 14.5-6.752-16.69-18.138-33.966-30-47.5-5.32-35.229-15.946-71.483-34-102.5-1.951-3.351-5.792-10.735-10-11.5-.857-3.806-2.101-5.815-3-9-2.717-9.623-5.091-19.467-8-29 53.174 49.605 82.204 111.877 86 185"/><path fill="#b8e8f7" d="m328 348-46.5 50 35.5-59c2.204 3.069 7.512 7.512 11 9"/><path fill="#08375c" d="M263 344c-32.193 46.324-51.396 103.549-48 160.5.7 11.741 2.658 28.859 8 39-2.182-57.358 11.357-109.095 43-156.5l2 1c-2.601 3.902-3.917 7.484-6 11-27.515 46.438-40.446 99.616-35 154-1.019 3.252-1.739 1.746-2 5l-4 1c-19.481-77.747-5.603-150.934 40-216z"/><path fill="#c5dae0" d="M232 367c-45.051 82.312-43.96 179.252 4 260l-23 10c-4.634-8.761-9.818-17.504-14-26.5-2.495-5.368-15.354-41.679-17.5-42.5-3.941-1.508-15.402 1.381-19 1-.28-.03-.534-3.788-3-4-2.296-.198-26.65-.369-28 0-.479.131-6.444 5.559-7.5 6.5.492.615 19.681 1.162 13.5 4.5-2.187 1.181-47.937-.567-49.5-2.5-8.791-10.875 26.926-3.676 28-5 .241-.297-1.187-7.28-1.5-7.5-3.362-2.362-16.392 3.631-19.5-2-.664-13.402.898-27.12 0-40.5-.016-.246-1.556.114-2-4.5 1.847-2.018 1.108-7.407.5-10-.693 3.013-.793 6.954-.5 10-.649.709-3.37 1.718-4 .5l-1-64 92.5-8.5 2.5-2.5c-3.46-11.178 26.203-81.452 31.5-81.5.984-.009 13.672 9.786 17.5 9"/><path fill="#8ecfe7" d="M717 389c-5.232-6.063-11.846-12.928-15.5-20 7.29 4.509 11.113 12.949 15.5 20"/><path fill="#fefeff" d="M323.5 372c35.721-5.767 29.721 38.745 2 43-36.466 5.597-23.478-39.532-2-43"/><path fill="#2c86b0" d="M769 490c-14.616-16.677-32.723-29.672-51-42 .324-.01.752.084 1 0 .891-.301 7.526-10.219 8-11.5 7.061-19.097 2.285-41.465-2-60.5 4.208.765 8.049 8.149 10 11.5 18.054 31.017 28.68 67.271 34 102.5"/><path fill="#65bcdb" d="m523 386 2 10c-30.394-.691-133.158 8.067-155 28-1.16-3.352-7.259 2.724-8 3-.455.169-7.489-.557-9.5 2-.602 1.725 1.769.324 3.5 2-24.433 8.701-49.001 22.315-69 39 60.356-59.853 152.099-85.78 236-84"/><path fill="#4ca3c8" d="M719 448c-.248.084-.676-.01-1 0-3.293.098-31.357-15.528-37.5-18-48.139-19.374-103.422-32.815-155.5-34l-2-10c67.459 1.431 142.186 20.86 196 62"/><path fill="#8ecfe7" d="M717 389c.303.351 5.298 2.534 3.5 5-1.985-1.313-2.394-3.223-3.5-5"/><path fill="#34b3dc" d="M268 488c-14.01 15.116-34.88 45.47-41 65-5.446-54.384 7.485-107.562 35-154-.944 29.453-6.439 61.348 6 89"/><path fill="#004170" d="M559 405c11.327 3.861 28.811 19.051 37 28l-29-3c-32.35-22.66-80.688-24.523-111 2-7.551-.136-18.075 2.166-23 8l-4-8c4.703-5.314 10.749-11.919 16.5-16 6.065-4.303 13.691-6.413 19.5-11 31.132-3.219 62.297-2.485 93.5-2 .862.223.398 1.965.5 2"/><path fill="#005e80" d="m649 423 12 27c-20.377-6.717-41.737-12.226-63-15-.531-.617-1.443-1.392-2-2-8.189-8.949-25.673-24.139-37-28 30.543.861 60.96 8.684 90 18"/><path fill="#009bbb" d="M429 432c-.955 1.079-3.149 2.928-4 4l-65.5 23 1.5-11c3.852-6.836 7.29-14.074 11-21 22.572-12.57 66.514-19.261 93-22-5.809 4.587-13.435 6.697-19.5 11-5.751 4.081-11.797 10.686-16.5 16"/><path fill="url(#g)" d="M567 430c28.316 19.834 48.14 59.267 40 94-24.959-14.19-50.299 28.637-44 51-13.233 9.392-27.682 17.553-44.5 18l2.5 3c-16.337.62-32.744-.549-49-1-48.919-21.807-71.299-78.995-45-127 .281 2.091 2.154 5.026 3 7 6.482 15.122 21.44 20.034 37 19 5.49-.365 17.536-2.909 20-8.5 2.259-5.126 1.189-17.566-6-18.5v-2c3.488-2.577 3.692-8.863 3-13 20.415-13.531 53.491-3.462 71.5 11 5.45 4.376 18.448 24.173 20 24 8.094-.899-13.948-26.554-17-29-16.847-13.502-43.027-16.89-64-14-.443.061-6.993 3.847-8 4-2.381.362-3.446-.799-5.5-1-4.647-9.122-15.037-14.821-25-15 30.312-26.523 78.65-24.66 111-2" style="fill:url(#g)"/>/&gt;<path fill="#93e5e6" d="M370 424c-.885.808-2.405 4.758-4 6-1.14.673-1.436 3.149-5 2 .451-1.174-.596-3.368 1-5 .741-.276 6.84-6.352 8-3"/><path fill="#043d5c" d="M659 426c3.576 9.591 10.514 18.437 14 28-3.268-1.227-6.767-1.904-10-3-.82-.278-1.18-.73-2-1l-12-27c3.336 1.07 6.656 1.816 10 3"/><path fill="#8ca2ab" d="M362 427c-1.596 1.632-.549 3.826-1 5-3.778 9.845-13.453 20.738-14 33-.241.149-.76-.15-1 0-25.671 16.075-50.246 29.617-74 49-6.59-.084-5.822-8.701-9-13 25.383-30.519 56.82-52.449 93.5-68 1.613-1.53.099-1.42-.5-2-1.731-1.676-4.102-.275-3.5-2 2.011-2.557 9.045-1.831 9.5-2"/><path fill="#677c85" d="m750 478-8 13c-19.382-14.419-46.366-28.503-69-37-3.486-9.563-10.424-18.409-14-28 34.792 12.317 63.403 27.558 91 52"/><path fill="#015171" d="M372 427c-3.71 6.926-7.148 14.164-11 21-2.525 4.481-3.415 10.811-7 14-.285.253-5.938 2.345-7 3 .547-12.262 10.222-23.155 14-33 3.564 1.149 3.86-1.327 5-2 1.646-.971 4.312-2.06 6-3"/><path fill="#005484" d="M596 433c.557.608 1.469 1.383 2 2 23.53 27.335 32.497 59.141 27 95-1.589 10.366-4.975 21.721-10 31 2.548-12.103 4.768-29.741-8-37 8.14-34.733-11.684-74.166-40-94z"/><path fill="#02254e" d="M263 501c-6.298 7.573-8.949 11.858-14 20-2.539 4.093-14.66 14.596-8 20-6.513 7.706-12.762 14.165-12 24-2.006 3.456-4.038-6.521-4-7 .261-3.254.981-1.748 2-5 6.12-19.53 26.99-49.884 41-65 5.005-5.4 13.343-13.28 19-18 19.999-16.685 44.567-30.299 69-39 .599.58 2.113.47.5 2-36.68 15.551-68.117 37.481-93.5 68"/><path fill="#0977a9" d="M433 440c-5.47 6.478-7.086 19.922-6 28-26.299 48.005-3.919 105.193 45 127 27.598 12.303 58.124 13.018 84.5-3-11.813 1.373-23.586 3.548-35.5 4l-2.5-3c16.818-.447 31.267-8.608 44.5-18 3.077 10.924 16.366 21.031 28 16-21.828 20.559-51.985 31.516-82 31-96.62-1.659-143.787-110.748-84-186 .851-1.072 3.045-2.921 4-4z"/><path fill="#fdfdfd" d="M456 432c9.963.179 20.353 5.878 25 15 .597 1.173 2.842 4.053 3 5 .692 4.137.488 10.423-3 13-1.348.996-7.406.983-9.5 2-11.521 5.596-28.395 18.864-38 3l-3.5 5c-.846-1.974-2.719-4.909-3-7-1.086-8.078.53-21.522 6-28 4.925-5.834 15.449-8.136 23-8"/><path fill="#0ca5c8" d="M661 450c.82.27 1.18.722 2 1 5.151 13.09 9.584 26.881 11 41-3.009-.435-1.938 2.672-2 4.5-.694 20.591 1.379 40.96-7.5 60.5-8.975 2.427-26.809-29.927-39.5-27 5.497-35.859-3.47-67.665-27-95 21.263 2.774 42.623 8.283 63 15"/><path fill="#6debf8" d="M425 436c-59.787 75.252-12.62 184.341 84 186 1.221 10.74-22.169-.077-29 5-15.159-.939-30.533-2.471-45.5-5-7.405-1.252-42.191-11.574-45.5-11-.146-1.072-.998-.876-2-2-24.979-28.024-38.97-71.075-38-108.5.335-12.94 4.078-25.697 5-38.5 3.585-3.189 4.475-9.519 7-14l-1.5 11zm-60.5 35c-7.879 2.565-5.686 20.169 9 18 15.747-2.326 5.64-22.765-9-18"/><path fill="#013164" d="M484 452c-.158-.947-2.403-3.827-3-5 2.054.201 3.119 1.362 5.5 1 1.007-.153 7.557-3.939 8-4 20.973-2.89 47.153.498 64 14 3.052 2.446 25.094 28.101 17 29-1.552.173-14.55-19.624-20-24-18.009-14.462-51.085-24.531-71.5-11"/><path fill="#046083" d="M673 454c4.362 11.968 8.198 30.308 9 43-3.973 7.419 4.73 21.852-8 19 .38-8.134.817-15.856 0-24-1.416-14.119-5.849-27.91-11-41 3.233 1.096 6.732 1.773 10 3"/><path fill="url(#h)" d="M742 491c5.412 4.026 10.491 8.582 16 12.5.289 1.09-6.702 9.015-8 10.5-7.431 8.501-17.345 15.211-25.5 23L670 570c9.457-23.978 13.648-46.91 12-73-.802-12.692-4.638-31.032-9-43 22.634 8.497 49.618 22.581 69 37" style="fill:url(#h)"/>/&gt;<path fill="#019bbe" d="M354 462c-.922 12.803-4.665 25.56-5 38.5-.97 37.425 13.021 80.476 38 108.5-4.151.67-7.359-1.808-11-3-32.481-39.508-40.38-91.692-30-141 .24-.15.759.149 1 0 1.062-.655 6.715-2.747 7-3"/><path fill="#dce9ec" d="M376 606c-17.564-5.751-33.635-13.432-50-22-1.331-3.966 5.926-11.752 5-14.5-.37-1.097-16.894-10.397-19.5-12.5-11.085-8.948-22.69-19.674-32.5-30-3.236-3.406-5.972-7.407-9-11 .577-.481 1.422-1.528 2-2 23.754-19.383 48.329-32.925 74-49-10.38 49.308-2.481 101.492 30 141"/><path fill="#c7e1ea" d="M481 465v2c-3.155-.41-18.054 6.705-19 9.5-.691 2.041 2.03 16.492 5 17.5-15.56 1.034-30.518-3.878-37-19l3.5-5c9.605 15.864 26.479 2.596 38-3 2.094-1.017 8.152-1.004 9.5-2"/><path fill="#f7fafa" d="M481 467c7.189.934 8.259 13.374 6 18.5-2.464 5.591-14.51 8.135-20 8.5-2.97-1.008-5.691-15.459-5-17.5.946-2.795 15.845-9.91 19-9.5"/><path fill="#fbffff" d="M364.5 471c14.64-4.765 24.747 15.674 9 18-14.686 2.169-16.879-15.435-9-18"/><path fill="#526d7d" d="M765 493c-2.075 7.766-11.715 10.276 0 16-2.295 5.304-5.29 7.825-8 12-4.606 2.992-4.869-3.835-7-7 1.298-1.485 8.289-9.41 8-10.5-5.509-3.918-10.588-8.474-16-12.5l8-13c5.9 5.226 9.756 9.143 15 15"/><path fill="#13c0eb" d="M674 492c.817 8.144.38 15.866 0 24-.988 21.181-4.511 36.601-13 56-4.313 9.855-9.815 19.215-16 28-2.53.975-5.322 3.038-8 4-15.654 5.626-31.776 10.222-48 14-38.314 8.922-69.511 11.446-109 9 6.831-5.077 30.221 5.74 29-5 30.015.516 60.172-10.441 82-31 7.092-6.68 19.426-21.554 24-30 5.025-9.279 8.411-20.634 10-31 12.691-2.927 30.525 29.427 39.5 27 8.879-19.54 6.806-39.909 7.5-60.5.062-1.828-1.009-4.935 2-4.5m-48.5 63c-8.065 1.754-12.597 20.194-3 22 12.284 2.312 19.195-25.522 3-22"/><path fill="#223e52" d="M769 497c-2.235 3.867-2.187 7.81-4 12-11.715-5.724-2.075-8.234 0-16 1.242 1.387 2.693 2.429 4 4"/><path fill="#027aa0" d="M670 570c-.442 1.121-.897 1.755-1 2h-8c8.489-19.399 12.012-34.819 13-56 12.73 2.852 4.027-11.581 8-19 1.648 26.09-2.543 49.022-12 73"/><path fill="#052043" d="M780 511c-8.368 3.854-4.261 9.07-13.5 1-19.46 36.289-55.012 62.439-91.5 80-9.289 4.471-21.717 10.126-31.5 13-1.434.421-6.883 2.565-6.5-1 2.678-.962 5.47-3.025 8-4 4.468-1.722 8.535-3.089 13-5 39.354-16.843 75.089-37.162 99-74 2.71-4.175 5.705-6.696 8-12 1.813-4.19 1.765-8.133 4-12 4.259 5.121 7.162 8.204 11 14"/><path fill="#446b7d" d="M272 514c-.578.472-1.423 1.519-2 2-2.466 2.055-14.378 9.441-14 12.5 9.613 12.453 21.969 21.661 34 31.5 1.633 1.335 4.114 2.347 4 5-11.609-8.391-32.19-24.404-40-36-.303-.449.638-6.327-5-8 5.051-8.142 7.702-12.427 14-20 3.178 4.299 2.41 12.916 9 13"/><path fill="#e8f2f5" d="M93 514c-.293-3.046-.193-6.987.5-10 .608 2.593 1.347 7.982-.5 10"/><path fill="#10486e" d="M780 511c5.001 7.553 18.81 30.851 19 39-8.029-8.218-12.328-18.072-21-26-.766-.7-3.744-5.003-4.5-5-25.855 36.304-63.873 61.794-104 80l5.5-7c36.488-17.561 72.04-43.711 91.5-80 9.239 8.07 5.132 2.854 13.5-1"/><path fill="#8abccf" d="M757 521c-23.911 36.838-59.646 57.157-99 74 3.478-7.754 7.661-15.099 11-23 .103-.245.558-.879 1-2l54.5-33c8.155-7.789 18.069-14.499 25.5-23 2.131 3.165 2.394 9.992 7 7"/><path fill="#95c9d9" d="m279 527 11 33c-12.031-9.839-24.387-19.047-34-31.5-.378-3.059 11.534-10.445 14-12.5 3.028 3.593 5.764 7.594 9 11"/><path fill="url(#i)" d="M778 524c-18.521 17.492-23.166 44.286-34 66.5C676.242 729.436 519.003 794.116 380 711c-10.51-6.285-19.948-15.383-31-21 1.544-4.698 6.043-14.619 5-19 .58-.635 2.977-3.271 3-3.5.304-3.096-15.835-21.993-19-26.5l-18.5-52 39 22c6.52 2.148 13.028 4.625 19.5 7 95.56 35.074 194.733 28.099 285.5-17-24.256 7.726-48.66 15.305-73.5 21l-1-4c16.224-3.778 32.346-8.374 48-14-.383 3.565 5.066 1.421 6.5 1 9.783-2.874 22.211-8.529 31.5-13l-5.5 7c40.127-18.206 78.145-43.696 104-80 .756-.003 3.734 4.3 4.5 5M364.5 688c-1.721 2.306 6.495 8.167 7 8 4.776-1.582-.373-10.566-7-8" style="fill:url(#i)"/>/&gt;<path fill="#063357" d="M249 521c5.638 1.673 4.697 7.551 5 8-4.351.344-5.963 5.803-8 8-1.258 1.356-3.824 2.609-5 4-6.66-5.404 5.461-15.907 8-20"/><path fill="#42a2c2" d="M607 524c12.768 7.259 10.548 24.897 8 37-4.574 8.446-16.908 23.32-24 30-11.634 5.031-24.923-5.076-28-16-6.299-22.363 19.041-65.19 44-51m-7.5 5c-10.059 1.83-5.211 23.078 4 22 10.355-1.212 9.409-24.44-4-22"/><path fill="url(#j)" d="M799 550c.339 14.481-21.098 59.565-29 73.5C708.137 732.595 563.437 787.678 442.5 759l-1.5 5c-37.135-7.768-70.782-25.131-102-46 8.031-2.36-11.25-11.294-13.5-13-18.215-13.812-34.112-29.244-48.5-47 9.941 1.032 20.063.452 30 1 .809.045 1.118.904 3 1 8.573 13.533 24.159 25.531 37 35 3.873 2.856 25.811 18.813 28.5 19 1.99.138 2.751-2.619 4.5-3 139.003 83.116 296.242 18.436 364-120.5 10.834-22.214 15.479-49.008 34-66.5 8.672 7.928 12.971 17.782 21 26" style="fill:url(#j)"/>/&gt;<path fill="#c2e2ea" d="M326 584c-2.722-1.425-8.529-3.735-9-4-7.953-4.48-12.047-8.268-19-13-3.153-2.146-3.769-1.833-4-2 .114-2.653-2.367-3.665-4-5l-11-33c9.81 10.326 21.415 21.052 32.5 30 2.606 2.103 19.13 11.403 19.5 12.5.926 2.748-6.331 10.534-5 14.5"/><path fill="#7ddcf4" d="M254 529c7.81 11.596 28.391 27.609 40 36 .231.167.847-.146 4 2-6.048-.949 2.227 11.387 3 13 10.855 22.655 22.66 40.576 37 61 3.165 4.507 19.304 23.404 19 26.5-.023.229-2.42 2.865-3 3.5-1.673-7.03-15.816-10.37-22-11-7.258-10.339-48.992-96.217-54.5-97-2.874-.409-3.786.486-5.5 2.5 4.07 35.453 26.554 65.128 45 94.5-2.296-.184-4.693.117-7 0-1.882-.096-2.191-.955-3-1-21.422-23.927-34.606-51.302-45-81.5-4.686-13.614-3.267-31.298-16-40.5 2.037-2.197 3.649-7.656 8-8"/><path fill="#9ce3ef" d="M599.5 529c13.409-2.44 14.355 20.788 4 22-9.211 1.078-14.059-20.17-4-22"/><path fill="#2dbfe9" d="M307 659c-9.937-.548-20.059.032-30-1-.727-.897-2.201-1.972-3-3-15.29-19.674-43.116-65.667-45-90-.762-9.835 5.487-16.294 12-24 1.176-1.391 3.742-2.644 5-4 12.733 9.202 11.314 26.886 16 40.5 10.394 30.198 23.578 57.573 45 81.5"/><path fill="#cee3e9" d="M95 559c3.108 5.631 16.138-.362 19.5 2 .313.22 1.741 7.203 1.5 7.5-1.074 1.324-36.791-5.875-28 5 1.563 1.933 47.313 3.681 49.5 2.5 6.181-3.338-13.008-3.885-13.5-4.5 1.056-.941 7.021-6.369 7.5-6.5 1.35-.369 25.704-.198 28 0 2.466.212 2.72 3.97 3 4 3.598.381 15.059-2.508 19-1 2.146.821 15.005 37.132 17.5 42.5 4.182 8.996 9.366 17.739 14 26.5 6.53 12.344 13.187 23.928 21 35.5L189 712l24.5-27c-16.314 13.99-32.606 28.041-46.5 44.5-.822 2.493 2.871 2.353 3 2.5 12.842 14.677 30.264 27.886 45.5 40L178 733.5c-.391-2.599 3.289-4.414 4-5.5 20.229 15.413 39.535 32.561 60.5 47 4.336 2.986 33.877 22.761 36 23 9.145 1.029 45.454-29.616 55-35 31.868 19.469 67.11 33.686 103.5 42l8 82.5c44.543 4.729 90.861 5.439 135.5.5 7.482-9.768 8.195-62.919 16-69 34.324-10.587 67.225-24.64 101-37 6.18-.156 44.993 30.518 54.5 35 .208.098 2.092 2.738 3.5 3 21.73-14.381 41.103-34.49 62-51 15.397-12.165 31.396-24.269 48.5-34-.212.682.643 1.055 1 1.5L755.5 834l-62-46c-3.441-.621-43.246 19.793-51 23-9.027 3.733-35.469 9.722-41 13-7.086 4.199-15.006 65.531-15.5 76.5l-2.5 1.5h-140l-4.5-3.5-13-71-2.5-2.5c-31.932-8.513-62.46-21.552-91-38l-62 49-108-95c-2.333-1.946-7.821-8.617-7.5-11.5.873-7.833 47.875-44.753 52-54 1.737-3.895.854-6.199 0-10L165.5 588c-27.77-4.535-55.835-6.991-84-8-1.597-.709-2.269-21.252-2.5-25 2.207-.947 13.583-1.636 14.5-1 .669.464.298 2.821 1.5 5m234.5 211c-5.664.101-51.341 42.537-57 43-2.586.211-18.338-14.801-17.5-8.5.155 1.165 17.325 14.505 18.5 14.5 2.991-.011 41.984-32.524 47-37 2.094-1.868 15.109-12.109 9-12"/><path fill="#b7f9fb" d="M625.5 555c16.195-3.522 9.284 24.312-3 22-9.597-1.806-5.065-20.246 3-22"/><path fill="#01516f" d="M225 558c-.038.479 1.994 10.456 4 7 1.884 24.333 29.71 70.326 45 90l-9-6c-20.591-27.764-35.511-56.12-44-90z"/><path fill="#c6eff9" d="M332 660c-3.676-.375-9.499.442-15 0-18.446-29.372-40.93-59.047-45-94.5 1.714-2.014 2.626-2.909 5.5-2.5 5.508.783 47.242 86.661 54.5 97"/><path fill="#f1fbfd" d="M298 567c6.953 4.732 11.047 8.52 19 13-.054.886.89 1.001 1 2 .205 1.859-.747 4.14 1 5.5-1.639 3.276-14.025-9.055-18-7.5-.773-1.613-9.048-13.949-3-13"/><path fill="#0d698a" d="M669 572c-3.339 7.901-7.522 15.246-11 23-4.465 1.911-8.532 3.278-13 5 6.185-8.785 11.687-18.145 16-28z"/><path fill="#7da0ad" d="M943 579c-2.53 3.559-76.593 3.445-86.5 11L815 671.5c3.765 3.457 6.648 7.693 10 11.5-6.629 6.24-13.185-6.034-18-11.5 19.606-26.093 32.653-56.177 46.5-85.5 28.894-9.128 58.96-10.504 89-12 .707.468.711 4.704.5 5"/><path fill="#13577d" d="M326 584c16.365 8.568 32.436 16.249 50 22 3.641 1.192 6.849 3.67 11 3 1.002 1.124 1.854.928 2 2-.178.031-.931 2.773-3 2-1.364-.451-4.679-.536-6-1-21.652-7.6-42.212-18.57-62-30-.11-.999-1.054-1.114-1-2 .471.265 6.278 2.575 9 4"/><path fill="#cdeff6" d="M318 582c19.788 11.43 40.348 22.4 62 30l-2 6c-6.472-2.375-12.98-4.852-19.5-7l-39-22 18.5 52c-14.34-20.424-26.145-38.345-37-61 3.975-1.555 16.361 10.776 18 7.5-1.747-1.36-.795-3.641-1-5.5"/><path fill="#7b959e" d="M161 591c7.126 11.534 1.723 25.497 6 38l-87-5.5.5-41.5c22.143 4.912 60.355.443 80.5 9"/><path fill="url(#k)" d="M939 583c-1.586 11.009-4.316 21.72-4 33-3.968-.233-.818 5.846-2.5 7-1.485 1.019-30.933.566-36 1-10.392.889-21.625 3.733-32 4-3.516.09-9.933 1.728-8.5-4 3.64-11.029 2.518-23.829 11-33 12.111-3.414 60.629-9.659 72-8" style="fill:url(#k)"/>/&gt;<path fill="#385a68" d="M935 616c-.316-11.28 2.414-21.991 4-33 1.303.19 4.27-.532 5 .5-1.587 6.892 5.547 47.815-9.5 39.5-.748-2.431.57-4.491.5-7"/><path fill="#47646f" d="M167 629c-4.277-12.503 1.126-26.466-6-38 .719.305 2.479-.204 3.5 0-.754 5.745 3.433 5.449 4.5 7.5 10.241 19.691 23.592 46.126 32 66 .152.36 5.049 5.613 5 6-.337 2.68-5.869 6.203-7.5 8.5-4.374.418-27.046-40.619-26.5-48.5-1.485-1.347-3.294-1.145-5-1.5"/><path fill="#2e4c59" d="M867 591c-8.482 9.171-7.36 21.971-11 33-1.99 6.029-7.193 12.3-10 18.5-1.646 3.635-3.432 12.241-6 17-1.714 3.175-11.709 19.489-14.5 19.5-.605.002-7.479-8.895-7.5-9.5-.053-1.568 14.044-23.198 16-27 3.672-7.135 22.311-48.684 25.5-50.5 2.192-.988 5.635-.474 7.5-1"/><path fill="#004479" d="M472 595c16.256.451 32.663 1.62 49 1 11.914-.452 23.687-2.627 35.5-4-26.376 16.018-56.902 15.303-84.5 3"/><path fill="#ecf6f7" d="m378 618 2-6c1.321.464 4.636.549 6 1 70.321 23.234 131.824 25.547 204 9 24.84-5.695 49.244-13.274 73.5-21-90.767 45.099-189.94 52.074-285.5 17"/><path fill="#057ca1" d="M480 627c39.489 2.446 70.686-.078 109-9l1 4c-72.176 16.547-133.679 14.234-204-9 2.069.773 2.822-1.969 3-2 3.309-.574 38.095 9.748 45.5 11 14.967 2.529 30.341 4.061 45.5 5"/><path fill="#a7c7d0" d="M236 627c15.581 26.234 36.465 50.997 59 71.5-.362 2.593-40.803 7.153-45.5 7.5-9.774.723-39.1-1.48-45 0-4.59 1.151-19.473 17.371-22.5 22-.711 1.086-4.391 2.901-4 5.5l37.5 38.5c-15.236-12.114-32.658-25.323-45.5-40l19-20 45-39.5c-7.813-11.572-14.47-23.156-21-35.5z"/><path fill="#002d54" d="M274 655c.799 1.028 2.273 2.103 3 3 14.388 17.756 30.285 33.188 48.5 47 2.25 1.706 21.531 10.64 13.5 13-30.969-20.703-51.755-39.006-74-69z"/><path fill="#3fa3c6" d="M317 660c5.501.442 11.324-.375 15 0 6.184.63 20.327 3.97 22 11 1.043 4.381-3.456 14.302-5 19-.542 1.649-1.307 3.397-2 5-12.841-9.469-28.427-21.467-37-35 2.307.117 4.704-.184 7 0"/><path fill="#f2f8f8" d="m189 712-19 20c-.129-.147-3.822-.007-3-2.5 13.894-16.459 30.186-30.51 46.5-44.5z"/><path fill="#72d1e9" d="M364.5 688c6.627-2.566 11.776 6.418 7 8-.505.167-8.721-5.694-7-8"/><path fill="#2da9cc" d="M380 711c-1.749.381-2.51 3.138-4.5 3-2.689-.187-24.627-16.144-28.5-19 .693-1.603 1.458-3.351 2-5 11.052 5.617 20.49 14.715 31 21"/><path fill="#6b8a9a" d="M752 817c-9.507-4.482-48.32-35.156-54.5-35-33.775 12.36-66.676 26.413-101 37-7.805 6.081-8.518 59.232-16 69-44.639 4.939-90.957 4.229-135.5-.5l-8-82.5c.197.045 2.004-2.647 4 .5l2.5 46.5c21.643 4.328 102.727 14.478 119 4 9.804-6.312 11.754-48.642 14-50 44.116-6.16 86.873-26.114 124-50 6.288-.92 40.088 32.972 48 34 4.092.532 39.858-25.457 46.5-30 15.07-10.308 29.915-21.124 45-31.5 1.232-4.81-20.413-26.188-23.5-31.5-.681-1.172-2.674-1.859-1-4l36.5 35.5-89.5 75.5c2.288 3.77-6.677 10.064-10.5 13m-280.5 53c-1.502 2.537.567 1.739 2 2 9.286 1.688 31.187 2.891 41 3 15.36.171 30.467-1.253 45.5-4.5z"/><path fill="url(#l)" d="M273 840c-.585 2.199-.465 24.555 0 27.5.614 3.886-.146 1.655 3 1.5-1.233.732-8.746 7.009-9.5 7-23.45-22.238-50.136-40.955-74-63-4.244-3.921-32.847-30.259-33.5-32.5-.476-1.635-1.898-29.832-2-34-.04-1.628-.963-6.35 1.5-6.5z" style="fill:url(#l)"/>/&gt;<path fill="#50707d" d="M858 780c.427-9.411-2.029-20.313-1-30 2.685-2.228 6.182-7.332 10-7.5-5.025 8.947-.291 31.328-2 38-.74 2.891-9.327 9.305-7-.5"/><path fill="url(#m)" d="M858 780c-.056 1.23-2.697 5.492 0 7.5L758.5 876c-.725.087-8.37-5.011-8.5-5.5-.052-.195 1.923-2.45 2-3.5.752-10.205 1.539-18.74 0-29 3.669 1.921 6.527-1.617 9.5-4 32.292-25.882 63.176-57.176 95.5-84-1.029 9.687 1.427 20.589 1 30" style="fill:url(#m)"/>/&gt;<path fill="#a8c2cc" d="M329.5 770c6.109-.109-6.906 10.132-9 12-5.016 4.476-44.009 36.989-47 37-1.175.005-18.345-13.335-18.5-14.5-.838-6.301 14.914 8.711 17.5 8.5 5.659-.463 51.336-42.899 57-43"/><path fill="url(#n)" d="m356 803 2 44c-10.442-4.32-20.854-9.052-30.5-15-16.233 13.538-33.29 26.192-51.5 37-3.146.155-2.386 2.386-3-1.5-.465-2.945-.585-25.301 0-27.5 1.745-6.555 52.789-42.088 60.5-50 7.505 4.065 14.754 9.453 22.5 13" style="fill:url(#n)"/>/&gt;<path fill="#304c59" d="M702 799c-4.074 4.319-4.348 28.223-3 34-5.261-.153-31.707 15.39-33.5 15-2.908-.633-.986-5.2-1.5-7 2.559-10.777 2.795-26.056 2-37 8.399-3.79 16.467-9.447 24.5-14 .859.021 9.763 7.773 11.5 9"/><path fill="url(#o)" d="M702 799c6.538 4.62 48.43 35.366 50 39 1.539 10.26.752 18.795 0 29l-3.5 3c-7.322-7.512-47.954-30.377-49.5-37-1.348-5.777-1.074-29.681 3-34" style="fill:url(#o)"/>/&gt;<path fill="#8fa3ab" d="m424 832-3 37c-20.73-4.251-43.462-13.917-63-22l-2-44c21.126 9.675 43.062 17.878 65.5 24 2.976 1.915 1.819 3.376 2.5 5"/><path fill="url(#p)" d="M666 804c.795 10.944.559 26.223-2 37-.649 2.735-1.174 5.204-1.5 8-5.258 1.753-9.947 4.828-15 7-2.937 1.262-48.301 14.11-51 14-1.043-.042-2.799.408-3.5-.5 2.572-8.662 4.375-38.052 10.5-42.5 5.992-4.351 50.206-17.452 62.5-23" style="fill:url(#p)"/>/&gt;<path fill="#52a5bb" d="m421 869 3-37c1.362 3.25 7.966 36.799 7 38.5-3.32.566-6.82-.848-10-1.5"/><path fill="#86a2af" d="m471.5 870 88.5.5c-15.033 3.247-30.14 4.671-45.5 4.5-9.813-.109-31.714-1.312-41-3-1.433-.261-3.502.537-2-2"/><path fill="#96d6e1" d="M435 899c-2.114-8.622-6.011-17.043-7-26 8.499 4.371 6.063 17.276 7 26"/><path fill="url(#q)" d="M577 905c.633 9.443-1.813 18.049-4 27-21.93 1.83-57.836 1.876-78.5 2-16.682.1-33.334-1.231-50-2l-4.5-25.5z" style="fill:url(#q)"/>/&gt;<path fill="#2e515e" d="M573 932c2.187-8.951 4.633-17.557 4-27l6 .5c-.222 9.478-1.946 15.679-3 25-2.309.198-4.96 1.33-7 1.5"/></svg>