<svg xmlns="http://www.w3.org/2000/svg" width="1024" height="1024"><defs><linearGradient id="a" x1="415.871" x2="615.483" y1="186.141" y2="431.112" gradientUnits="userSpaceOnUse"><stop offset="15.19%" style="stop-color:#c1d0d7"/><stop offset="100%" style="stop-color:#668592"/></linearGradient></defs><defs><linearGradient id="b" x1="438.637" x2="587.667" y1="167.102" y2="473.812" gradientUnits="userSpaceOnUse"><stop offset="19.355%" style="stop-color:#c8dbe2"/><stop offset="100%" style="stop-color:#7595a2"/></linearGradient></defs><defs><linearGradient id="c" x1="571.704" x2="458.293" y1="256.601" y2="372.281" gradientUnits="userSpaceOnUse"><stop offset="0%" style="stop-color:#122152"/><stop offset="100%" style="stop-color:#155687"/></linearGradient></defs><defs><linearGradient id="d" x1="751.439" x2="752.604" y1="282.709" y2="376.701" gradientUnits="userSpaceOnUse"><stop offset="0%" style="stop-color:#0494b5"/><stop offset="100%" style="stop-color:#017c93"/></linearGradient></defs><defs><linearGradient id="e" x1="351.394" x2="376.615" y1="335.506" y2="499.579" gradientUnits="userSpaceOnUse"><stop offset="0%" style="stop-color:#beced5"/><stop offset="100%" style="stop-color:#8099a1"/></linearGradient></defs><defs><linearGradient id="f" x1="392.669" x2="575.487" y1="451.09" y2="786.503" gradientUnits="userSpaceOnUse"><stop offset="0%" style="stop-color:#80cde1"/><stop offset="18.586%" style="stop-color:#48b1cc"/><stop offset="34.555%" style="stop-color:#6bc5dc"/><stop offset="100%" style="stop-color:#2385a5"/></linearGradient></defs><defs><linearGradient id="g" x1="768.436" x2="637.785" y1="843.655" y2="868.541" gradientUnits="userSpaceOnUse"><stop offset="0%" style="stop-color:#cadee5"/><stop offset="100%" style="stop-color:#7f9ba7"/></linearGradient></defs><defs><linearGradient id="h" x1="234.635" x2="360.09" y1="854.146" y2="865.855" gradientUnits="userSpaceOnUse"><stop offset="0%" style="stop-color:#cde2e8"/><stop offset="100%" style="stop-color:#8ea8b2"/></linearGradient></defs><path fill="#93c5d4" d="M676 146c8.928 11.537 18.618 20.54 26 33-2.796-1.141-3.299 2.008-3.5 2-.699-.029-1.389-1.943-1.5-2 5.106-2.56-2.259-4.359-3-5 1.825-2.917-2.892-8.165-4-4-1.083-.997-1.995-2.057-3-3l3-.5C633.762 104.51 550.103 78.399 467.5 92c-85.814 14.13-146.261 75.811-183.5 151h-1l-3-3c36.559-69.946 92.637-131.133 172.5-149 81.003-18.122 161.087 1.272 223.5 55"/><path fill="#d0dbe1" d="M687 167c-63.663-59.709-134.071-86.408-222.5-69-70.846 13.946-151.679 82.05-172.5 152l-7-1c.303-2.453-1.368-3.634-1-6 37.239-75.189 97.686-136.87 183.5-151 82.603-13.601 166.262 12.51 222.5 74.5z"/><path fill="#0a3b5b" d="M821 154c-.361-2.523-2.434-2.515-3-3-1.344-1.151-3.122-1.879-4.5-3-2.34.324-7.046 11.802-8.5 14-17.872 27.006-37.031 53.251-56 79.5l4 2.5 21 16c-.013 2.668.691 3.324 1 5 .667 3.619 2.335 3.738 3 5 .419.795-.42 3.748 0 4.5.988 1.769 5.189 2.422 8 8 7.651 15.186 9.844 58.325 2 72.5-1.509 2.728-5.444 10.25-8 5 2.425.5 3.608-2.94 4-4.5 2.138-8.509 3.941-53.963 3-63-.313-3.003-3.108-7.891-4-11-9.772-9.8-4.067 29.559-4 33.5h-4c-.015-.661.014-1.339 0-2-.331-15.358 3.091-31.433-4-45-2.529-4.838-25.373-27.553-28.5-27-3.44.609-3.276 10.176-3.5 13-.664 8.362-1.91 22.11-2 30-1.108-4.979-.772-9.964-1-15-.277-6.132-.906-12.403-1-18.5-.043-2.805 3.223-9.509 3-12-.181-2.027-16.537-32.092-19-36-2.488-3.948-7.151-12.366-12-13.5-1.868-3.886-2.643-6.022-5-10-7.382-12.46-17.072-21.463-26-33 29.949 25.782 52.021 57.173 68.5 93l67.5-91.5c-26.823-22.085-6.587-66.291 28.5-58.5 31.509 6.997 32.207 57.44-1 64-7.12 1.407-12.466-1.441-18.5 1m-12-17c8.31 14.342 24.366 18.043 39.5 9 1.996-1.193 18.287-16.105 10.5-18 9.73-31.47-32.903-52.527-51-23.5-7.369 11.82-5.654 21.015 1 32.5"/><path fill="#0f2b48" d="m280 240 3 3c.687 1.513-1.955 3.781-2 4 .552-1.194-1.959-3.939-2.5-4-1.958-.221-18.929 18.927-22 22-2.936 2.938-9.48 4.677-11.5 8.5-3.833 7.253-1.926 23.091-2 31.5-.1 11.425.764 22.643 1 34 .181 8.706-1.535 17.195-1 26-3.995-.761-3.203 1.8-5 4-12.962-22.738-16.223-52.721-5-78.5 4.141-9.511 10.32-7.885 8-20-7.844-12.571-39.583-114.43-45.5-116.5-1.637-.573-12.192.853-18-1-29.575-9.434-27.14-56.12 3-63 36.177-8.258 54.031 35.928 28.5 59.5 9.13 9.816 60.984 91.066 66.5 92.5.238.062 3.573-1.857 4.5-2M184.5 91c-32.707 4.582-32.301 60.988 7 58 38.276-2.91 30.466-63.248-7-58m20.5 77a1183 1183 0 0 0 26 68c1.72 4.118 12.7 32.815 14.5 33 1.656.17 5.136-6.744 5.5-7 6.95-4.892 8.411-2.76 15-12 .175-.245 4.604-.418 4-4.5-17.309-25.494-35.437-50.515-52-76.5-4.112-6.452-6.871-13.81-11.5-20-12.566 6.319-4.879 9.264-1.5 19m33.5 118c-3.296-.463-12.518 29.59-9 34l3.5-11.5 3.5 50.5z"/><path fill="#4bc4de" d="M859 128c-6.844 22.136-35.666 25.956-50 9-6.654-11.485-8.369-20.68-1-32.5 18.097-29.027 60.73-7.97 51 23.5m-46-3c-.09 7.338-2.538 9.468 3.5 15 25.315 23.196 61.41-30.2 25.5-41-6.941-2.087-11.95-3.89-20.5 1-6.345 3.628-15.005 18.424-8.5 25"/><path fill="#3dbdda" d="M184.5 91c37.466-5.248 45.276 55.09 7 58-39.301 2.988-39.707-53.418-7-58m20 12c-2.506 1.624 9.073 13.141 5 18-13.268 5.658-25.787 5.408-40.5 7.5-2.259 3.01 6.749 12.49 8.5 15.5 25.431 12.106 49.706-25.181 27-41"/><path fill="#fdfdfd" d="M687 167c1.005.943 1.917 2.003 3 3 1.38 1.27 2.475 2.681 4 4 .741.641 8.106 2.44 3 5-5.477-2.781-14.885-15.206-20.5-20-73.287-62.573-167.889-79.768-255-33-62.706 33.666-98.338 95.949-133.5 155-.186-8.962 1.481-22.537 4-31 20.821-69.95 101.654-138.054 172.5-152 88.429-17.408 158.837 9.291 222.5 69"/><path fill="#c9f1f9" d="M842 99c-11.65-4.713-26.585 8.752-29 20-.428 1.993.061 3.957 0 5-.019.331.004.668 0 1-6.505-6.576 2.155-21.372 8.5-25 8.55-4.89 13.559-3.087 20.5-1"/><path fill="#49cded" d="M842 99c1.967.796 10.253 12.105 11 15-11.715 5.725-27.814 8.655-40 5 2.415-11.248 17.35-24.713 29-20"/><path fill="#0f92ae" d="M813 125c.004-.332-.019-.669 0-1 4.63 6.823 39.372 3.188 41 .5.688-1.137-.504-8.578-1-10.5-.747-2.895-9.033-14.204-11-15 35.91 10.8-.185 64.196-25.5 41-6.038-5.532-3.59-7.662-3.5-15"/><path fill="url(#a)" d="M697 179c.111.057.801 1.971 1.5 2 .201.008.704-3.141 3.5-2 2.357 3.978 3.132 6.114 5 10 12.387 25.767 17.901 49.637 26 76.5.364 1.208 1.185 4.104 3 3.5.228 5.036-.108 10.021 1 15-.05 4.395.976 7.861 1 12 .023 3.988-.017 8.012 0 12-9.605 28.803-9.626 58.227-21 86.5-18.907 46.999-54.152 87.096-99 110.5-14.966.293-29.994.777-45 1 96.235-33.259 152.758-126.586 135-228 4.566-2.237 1.241-10.818 0-15.5-12.196-46.017-36.971-76.436-73-102.5-.394-.285-1.596-.715-2-1-117.927-83.256-278.948-32.464-315 109-1.755 6.887-3.048 11.809-4 19l-28.5 33-.5-34c.968-1.714 2.002-3.324 3-5 35.162-59.051 70.794-121.334 133.5-155 87.111-46.768 181.713-29.573 255 33 5.615 4.794 15.023 17.219 20.5 20" style="fill:url(#a)"/>/&gt;<path fill="#1096b2" d="M204.5 103c22.706 15.819-1.569 53.106-27 41-1.751-3.01-10.759-12.49-8.5-15.5 14.713-2.092 27.232-1.842 40.5-7.5 4.073-4.859-7.506-16.376-5-18"/><path fill="#22aece" d="M853 114c.496 1.922 1.688 9.363 1 10.5-1.628 2.688-36.37 6.323-41-.5.061-1.043-.428-3.007 0-5 12.186 3.655 28.285.725 40-5"/><path fill="#427385" d="M633 159c-1.008 2.333 16.133 12.781 8.5 14-.598.096-4.387-6.346-4.5-2-6.946-5.901-15.698-12.272-23.5-17C437.001 47.034 234.79 255.667 355 425c-1.886-1.944-7.852-8.13-8.5-8-.307.062-1.582 4.678-5.5 3-4.468-7.047-10.796-17.494-14-25-12.782-29.945-15.327-62.731-15-95 .345-.66.692-1.314 1-2 3.447-7.683 4.324-21.403 5-30 36.052-141.464 197.073-192.256 315-109"/><path fill="url(#b)" d="M637 171c49.55 42.101 70.26 104.035 62 168-7.647 22.554-14.342 45.559-26 66.5-11.507 20.669-27.661 37.893-43 55.5-96.181 77.652-197.232 44.146-275-36-120.21-169.333 82.001-377.966 258.5-271 7.802 4.728 16.554 11.099 23.5 17M427 443c61.957 47.92 157.352 28.623 206-29.5 25.063-29.944 35.315-63.024 34-102-.062-1.828 1.009-4.935-2-4.5-2.863-59.522-42.914-112.613-98.5-133C396.235 111.551 272.177 345.36 427 443" style="fill:url(#b)"/>/&gt;<path fill="#0e7087" d="M809 137c14.334 16.956 43.156 13.136 50-9 7.787 1.895-8.504 16.807-10.5 18-15.134 9.043-31.19 5.342-39.5-9"/><path fill="#3f5f6e" d="M818 151c-6.817 13.746-12.795 27.97-19 42-4.263 9.637-9.256 19.112-13 29l-12-7c11.441-16.839 24.019-33.788 31-53 1.454-2.198 6.16-13.676 8.5-14 1.378 1.121 3.156 1.849 4.5 3"/><path fill="#365261" d="M218 169c11.036 29.47 28.324 56.624 48 81-6.589 9.24-8.05 7.108-15 12-6.068-9.848-11.992-20.597-17-31-9.993-20.756-17.838-42.825-29-63-3.379-9.736-11.066-12.681 1.5-19 4.629 6.19 7.388 13.548 11.5 20"/><path fill="#2b526a" d="M821 154c.558 3.903-6.992 18.636-9 23-2.759 5.997-7.154 23.652-13 16 6.205-14.03 12.183-28.254 19-42 .566.485 2.639.477 3 3"/><path fill="#3d5a69" d="M635 160c36.446 29.412 64.801 71.176 73 118 17.758 101.414-38.765 194.741-135 228-39.326.585-78.662.846-118 1-46.763-14.356-87.856-45.769-114-87 3.918 1.678 5.193-2.938 5.5-3 .648-.13 6.614 6.056 8.5 8 77.768 80.146 178.819 113.652 275 36 37.472-30.253 62.807-74.044 69-122 8.26-63.965-12.45-125.899-62-168 .113-4.346 3.902 2.096 4.5 2 7.633-1.219-9.508-11.667-8.5-14 .404.285 1.606.715 2 1"/><path fill="#cddade" d="M708 278c-8.199-46.824-36.554-88.588-73-118 36.029 26.064 60.804 56.483 73 102.5 1.241 4.682 4.566 13.263 0 15.5"/><path fill="#6c96a6" d="M774 215c-6.683 9.835-13.183 20.001-21 29l-4-2.5c18.969-26.249 38.128-52.494 56-79.5-6.981 19.212-19.559 36.161-31 53"/><path fill="#04738b" d="M665 307c5.919 123.041-135.867 200.41-238 136-154.823-97.64-30.765-331.449 139.5-269 55.586 20.387 95.637 73.478 98.5 133m-231-97c-2.653 1.355-2.769 1.583-5 3-52.985 33.653-68.547 117.878-37 170.5 4.679 7.804 34.734 43.919 42.5 43.5 1.212-.065 18.277-10.861 20.5-13 53.103 29.378 128.3 8.952 157-45l20.5 7 2.5-1.5c60.301-120.378-94.79-247.832-201-164.5"/><path fill="#7b98a2" d="m234 231-3 5a1183 1183 0 0 1-26-68c11.162 20.175 19.007 42.244 29 63"/><path fill="#acbbc3" d="M694 174c-1.525-1.319-2.62-2.73-4-4 1.108-4.165 5.825 1.083 4 4"/><path fill="#5f8692" d="M266 250c-19.676-24.376-36.964-51.53-48-81 16.563 25.985 34.691 51.006 52 76.5.604 4.082-3.825 4.255-4 4.5"/><path fill="#22374b" d="M789 240c-9.099.582-7.833 18.922-14 25-.309-1.676-1.013-2.332-1-5 .055-11.226 7.952-27.31 12-38 3.744-9.888 8.737-19.363 13-29 5.846 7.652 10.241-10.003 13-16-5.568 21.706-15.164 42.134-23 63"/><path fill="#18abcd" d="M612 369c18.69-35.134 15.197-78.052-6-111-18.511-28.773-51.862-48.378-86-51-9.069-.697-27.926-.579-36 1-16.057-9.246-34.31-6.016-50 2 106.21-83.332 261.301 44.122 201 164.5l-2.5 1.5z"/><path fill="#587b89" d="M736 269c-1.815.604-2.636-2.292-3-3.5-8.099-26.863-13.613-50.733-26-76.5 4.849 1.134 9.512 9.552 12 13.5 2.463 3.908 18.819 33.973 19 36 .223 2.491-3.043 9.195-3 12 .094 6.097.723 12.368 1 18.5"/><path fill="#e2f6fb" d="M484 208c-25.108 4.91-54.954 28.301-68 50-6.506-15.784 3.153-32.824 13-45 2.231-1.417 2.347-1.645 5-3 15.69-8.016 33.943-11.246 50-2"/><path fill="#fdfefe" d="M520 207c-2.025 7.912 18.403 7.474 20 16-12.151-3.537-21.083-5.289-34-5-9.726.217-36.542 4.708-43.5 11-3.416 3.089.477 11.022-1.5 18.5-2.579 9.754-18.252 25.301-28.5 26.5-7.88.922-8.146-5.327-12.5 2-7.233 12.173-6.391 27.096-9 40-.31 1.531-1.402 3.966-1.5 6-3.934-13.514-.48-27.096 1.5-40.5.229-1.551 1.934-7.617-2-7.5 1.809-4.344 4.758-12.271 7-16 13.046-21.699 42.892-45.09 68-50 8.074-1.579 26.931-1.697 36-1"/><path fill="#5ee5fe" d="m606 258-11 5c-12.584-19.138-33.31-33.687-55-40-1.597-8.526-22.025-8.088-20-16 34.138 2.622 67.489 22.227 86 51"/><path fill="#18abcd" d="M429 213c-9.847 12.176-19.506 29.216-13 45-2.242 3.729-5.191 11.656-7 16-16.648 39.964-12.97 80.007 16 113 2.476 6.78 23.326 23.308 30 27-2.223 2.139-19.288 12.935-20.5 13-7.766.419-37.821-35.696-42.5-43.5-31.547-52.622-15.985-136.847 37-170.5"/><path fill="#284150" d="M786 222c-4.048 10.69-11.945 26.774-12 38l-21-16c7.817-8.999 14.317-19.165 21-29z"/><path fill="#b7ced9" d="M506 218c58.475 61.362-52.476 139.574-86 58 4.354-7.327 4.62-1.078 12.5-2 10.248-1.199 25.921-16.746 28.5-26.5 1.977-7.478-1.916-15.411 1.5-18.5 6.958-6.292 33.774-10.783 43.5-11"/><path fill="url(#c)" d="M540 223c21.69 6.313 42.416 20.862 55 40 76.102 115.741-105.885 216.16-171 104-9.293-16.007-13.171-32.387-13-51 2.609-12.904 1.767-27.827 9-40 33.524 81.574 144.475 3.362 86-58 12.917-.289 21.849 1.463 34 5m14 161c2.936 2.902 3.594 7.21 9.5 9 14.213 4.309 22.735-13.146 21.5-25.5l-3 .5c6.445-28.614-34.511-27.125-38-3.5-1.787 12.102 3.435 13.01 10 19.5" style="fill:url(#c)"/>/&gt;<path fill="#42535d" d="M251 262c-.364.256-3.844 7.17-5.5 7-1.8-.185-12.78-28.882-14.5-33l3-5c5.008 10.403 10.932 21.152 17 31"/><path fill="#09142b" d="M789 240c-3.731 9.935-6.388 20.385-11 30-.665-1.262-2.333-1.381-3-5 6.167-6.078 4.901-24.418 14-25"/><path fill="#14b7e1" d="M771 268c-1.345 11.77 1.66 23.159 2 35h-10c-1.385-19.767-1.576-41.782-24-49 .224-2.824.06-12.391 3.5-13 3.127-.553 25.971 22.162 28.5 27"/><path fill="#52d3ed" d="M281 247c-.332 1.62.095 4.129 0 6-2.394.416-5.291 3.331-7 5-1.19-2.484-2.845-.436-4 .5-7.268 5.891-12.862 13.843-22 18-1.415 4.039-3.564 9.375-1 13.5-.772 3.891.599 15.166-4 15 .074-8.409-1.833-24.247 2-31.5 2.02-3.823 8.564-5.562 11.5-8.5 3.071-3.073 20.042-22.221 22-22 .541.061 3.052 2.806 2.5 4"/><path fill="#0379a3" d="M285 249c-1.684 13.646-3.055 28.3-4 42-.227 3.294.182 6.699 0 10-3.385-2.45-.375 2.27-4 2 1.196-16.749 3.15-33.201 4-50 .095-1.871-.332-4.38 0-6 .045-.219 2.687-2.487 2-4h1c-.368 2.366 1.303 3.547 1 6"/><path fill="#c6e9f4" d="M292 250c-2.519 8.463-4.186 22.038-4 31-.998 1.676-2.032 3.286-3 5-.953 1.686-1.552 5.205-4 5 .945-13.7 2.316-28.354 4-42z"/><path fill="#1494ae" d="M281 253c-.85 16.799-2.804 33.251-4 50-2.312 32.394-5.428 64.244 1 96.5-7.192-2.094-14.181-7.969-20-12.5.699-17.619 3.031-35.382 4-53 1.268-23.053-1.09-46.618 6-69 2.118-1.925 3.937-4.986 6-7 1.709-1.669 4.606-4.584 7-5"/><path fill="url(#d)" d="M763 303c1.694 24.185-1.28 51.972 1 75.5.394 4.066.441.816 2 2.5a183.3 183.3 0 0 1-25 19.5c2.623-24.79 4.137-50.017 3-75-.207-4.556-1.777-27.539-3-30-1.355-2.727-1.293.438-3 .5-.024-4.139-1.05-7.605-1-12 .09-7.89 1.336-21.638 2-30 22.424 7.218 22.615 29.233 24 49" style="fill:url(#d)"/>/&gt;<path fill="#dff8fc" d="M274 258c-2.063 2.014-3.882 5.075-6 7-4.536 4.122-9.891 7.778-14.5 12-.13.119-1.244-2.529-3.5.5-1.044 1.402-2.504 10-3 12.5-2.564-4.125-.415-9.461 1-13.5 9.138-4.157 14.732-12.109 22-18 1.155-.936 2.81-2.984 4-.5"/><path fill="#12c3ee" d="M606 258c21.197 32.948 24.69 75.866 6 111-28.7 53.952-103.897 74.378-157 45-6.674-3.692-27.524-20.22-30-27-1.281-3.509-3.127-16.666-1-20 65.115 112.16 247.102 11.741 171-104z"/><path fill="#55bfd9" d="M268 265c-7.09 22.382-4.732 45.947-6 69-3.631-.527-1.035 4.025-2.5 5-1.134.755-12.901-.559-15.5 0-.236-11.357-1.1-22.575-1-34 4.599.166 3.228-11.109 4-15 .496-2.5 1.956-11.098 3-12.5 2.256-3.029 3.37-.381 3.5-.5 4.609-4.222 9.964-7.878 14.5-12"/><path fill="#1e3f57" d="M313 298c-.653-3.839.517-7.352 1-11 .952-7.191 2.245-12.113 4-19-.676 8.597-1.553 22.317-5 30"/><path fill="#4fd7f1" d="M775 313c-3.297.354-1.911-6.9-2-10-.34-11.841-3.345-23.23-2-35 7.091 13.567 3.669 29.642 4 45"/><path fill="#b6ecf8" d="M411 316c-.171 18.613 3.707 34.993 13 51-2.127 3.334-.281 16.491 1 20-28.97-32.993-32.648-73.036-16-113 3.934-.117 2.229 5.949 2 7.5-1.98 13.404-5.434 26.986-1.5 40.5.098-2.034 1.19-4.469 1.5-6"/><path fill="#83a1ac" d="M780 360c-2.235-4.591-.868-37.206-1-45-.067-3.941-5.772-43.3 4-33.5.892 3.109 3.687 7.997 4 11 .941 9.037-.862 54.491-3 63-.392 1.56-1.575 5-4 4.5"/><path fill="#8baab6" d="m238.5 286-2 73-3.5-50.5-3.5 11.5c-3.518-4.41 5.704-34.463 9-34"/><path fill="#607f8b" d="M314 287c-.483 3.648-1.653 7.161-1 11-.308.686-.655 1.34-1 2-2.962 5.677-9.624 11.678-13 19.5-17.611 40.806-5.74 92.846 13 131.5l-18-17c-19.131-47.208-15.745-83.184-13-133 .182-3.301-.227-6.706 0-10 2.448.205 3.047-3.314 4-5l.5 34z"/><path fill="#061834" d="M766 381c2.99-2.787 8.196-4.699 10-9.5-1.66-18.803-.586-37.675-1-56.5h4c.132 7.794-1.235 40.409 1 45 2.556 5.25 6.491-2.272 8-5-5.011 14.358-15.999 26.242-27.5 37-3.789 3.544-17.914 11.89-19.5 14.5-1.575 2.592-3.918 15.493-6 20-13.16 28.493-29.575 55.334-52 77.5-1.045-.062-5.322 3.255-5-1 12.319-7.288 45.098-62.621 51-77.5 16.303-41.103 9.183-75.227 9-117.5-.017-3.988.023-8.012 0-12 1.707-.062 1.645-3.227 3-.5 1.223 2.461 2.793 25.444 3 30 1.137 24.983-.377 50.21-3 75a183.3 183.3 0 0 0 25-19.5"/><path fill="#032f4e" d="M281 301c-2.745 49.816-6.131 85.792 13 133 .693 1.709 1.263 4.348 2 6-3.243 2.262-5.214-5.616-7-9-3.564-6.754-7.336-20.532-10-24.5-3.676-5.477-24.906-15.023-31.5-21.5-6.832-6.71-5.609-9.174-9.5-16 1.797-2.2 1.005-4.761 5-4 1.047 17.213 3.418 12.981 15 22 5.819 4.531 12.808 10.406 20 12.5-6.428-32.256-3.312-64.106-1-96.5 3.625.27.615-4.45 4-2"/><path fill="url(#e)" d="M327 395c-1.448 5.945 2.551 17.388 5 23.5 10.808 26.974 35.722 54.598 60.5 69.5l41.5 19c-22.507.023-46.965 2.001-69 1-21.73-19.154-39.853-29.882-53-57-18.74-38.654-30.611-90.694-13-131.5 3.376-7.822 10.038-13.823 13-19.5-.327 32.269 2.218 65.055 15 95" style="fill:url(#e)"/>/&gt;<path fill="#0296b6" d="M773 303c.089 3.1-1.297 10.354 2 10 .014.661-.015 1.339 0 2 .414 18.825-.66 37.697 1 56.5-1.804 4.801-7.01 6.713-10 9.5-1.559-1.684-1.606 1.566-2-2.5-2.28-23.528.694-51.315-1-75.5z"/><path fill="#f6fafb" d="M427 443c102.133 64.41 243.919-12.959 238-136 3.009-.435 1.938 2.672 2 4.5 1.315 38.976-8.937 72.056-34 102-48.648 58.123-144.043 77.42-206 29.5"/><path fill="#415d6b" d="M678 503c-.98.58-1.805 1.07-2.5 2-19.132.381-38.471-.373-57.5 0 44.848-23.404 80.093-63.501 99-110.5 11.374-28.273 11.395-57.697 21-86.5.183 42.273 7.303 76.397-9 117.5-5.902 14.879-38.681 70.212-51 77.5"/><path fill="#179bb6" d="M262 334c-.969 17.618-3.301 35.381-4 53-11.582-9.019-13.953-4.787-15-22-.535-8.805 1.181-17.294 1-26 2.599-.559 14.366.755 15.5 0 1.465-.975-1.131-5.527 2.5-5"/><path fill="#9db7c2" d="M630 461c15.339-17.607 31.493-34.831 43-55.5 11.658-20.941 18.353-43.946 26-66.5-6.193 47.956-31.528 91.747-69 122"/><path fill="#fefefe" d="M582 368c-2.06 9.147-18.458 19.148-28 16-6.565-6.49-11.787-7.398-10-19.5 3.489-23.625 44.445-25.114 38 3.5"/><path fill="#767f99" d="M554 384c9.542 3.148 25.94-6.853 28-16l3-.5c1.235 12.354-7.287 29.809-21.5 25.5-5.906-1.79-6.564-6.098-9.5-9"/><path fill="#758e98" d="M341 420c26.144 41.231 67.237 72.644 114 87-6.987.027-14.013-.007-21 0l-41.5-19c-24.778-14.902-49.692-42.526-60.5-69.5-2.449-6.112-6.448-17.555-5-23.5 3.204 7.506 9.532 17.953 14 25"/><path fill="#030b28" d="M296 440c.996 2.233 1.94 4.87 3 7-1.979 2.027-2.064.532-1 3.5 6.91 19.271 29.951 42.21 45 56 .049 2.894-1.36.159-2 .5-22.716-20.366-43.771-46.277-52-76 1.786 3.384 3.757 11.262 7 9"/><path fill="#476674" d="M312 451c13.147 27.118 31.27 37.846 53 57-8.693-.395-11.799 1.665-19.5-3-13.586-8.231-39.183-43.297-46.5-58-1.06-2.13-2.004-4.767-3-7-.737-1.652-1.307-4.291-2-6z"/><path fill="#04314e" d="M365 508c22.035 1.001 46.493-.977 69-1 6.987-.007 14.013.027 21 0 39.338-.154 78.674-.415 118-1 15.006-.223 30.034-.707 45-1 19.029-.373 38.368.381 57.5 0 .695-.93 1.52-1.42 2.5-2-.322 4.255 3.955.938 5 1 52.044 3.083 104.471-1.191 156.5-1 .91.563-.429 7.321-.5 9-1.599-1.007-1.668-3.871-2 .5-.537 7.066.744 15.085 0 22-.29 2.701 1.017 3.965-3 3.5-.09-10.066-.493-19.954.5-30-16.163-.105-32.35.142-48.5 0-11.644-.102-23.355-.055-35 0-187.825.883-375.716 4.912-563.5 6l-5.5 2.5 2 42.5c-.387.02-6.659.907-7 1 5.009-13.618-7.999-18.942-19-14 .057-5.059-4.159 1.39-6 0 9.216-7.52 16.151-6.845 27-3.5l-.5-32.5c38.644.404 77.354.977 116 0 9.361-.237 41.044-.091 46.5-3 .64-.341 2.049 2.394 2-.5-15.049-13.79-38.09-36.729-45-56-1.064-2.968-.979-1.473 1-3.5 7.317 14.703 32.914 49.769 46.5 58 7.701 4.665 10.807 2.605 19.5 3"/><path fill="#91dbe9" d="M751 508v4c-40.676.111-81.354.641-122 1-137.126 1.21-274.985.511-412 5-10.914.358-22.029 1.389-33 1.5l4 39.5c-1.272-.119-2.718-.065-4 0l-2-42.5 5.5-2.5c187.784-1.088 375.675-5.117 563.5-6"/><path fill="#55b2c8" d="m786 508 4 3c-1.989.014-4.011-.016-6 0-10.885.085-22.003.97-33 1v-4c11.645-.055 23.356-.102 35 0"/><path fill="#3098af" d="M834 538c.061 6.893 1.355 13.581 1 20.5-1.764 1.823-3.799-.513-4-.5l-1-46.5c-13.29-.843-26.697-.594-40-.5l-4-3c16.15.142 32.337-.105 48.5 0-.993 10.046-.59 19.934-.5 30"/><path fill="#051123" d="M839 512c-.362 8.598-1.4 16.86 0 25.5.571 1.464 20.035-2.219 28 11 6.684 11.093 1.344 20.351 3 27 .274 1.1 14.923 10.851 17 15 3.898 7.786 4.185 44.772-2 51-2.538 2.556-5.156.848-6 2-.189.258 3.697 3.32 4 5 2.416 13.404-4.992 53.467-25 48 14.941 5.482-.492 35.849-9.5 39.5-4.4 1.783-11.085-.901-13.5 3-1.991-1.676-2.994-1.941-5-3-17.057-9.002-25.825-7.267-31-30-2.984-13.111-2.43-34.379 15-33.5-13.663-16.455-21.474-60.963 12-56-3.125-1.692-3.342-2.847-5-5.5l18 8c9.839 9.918 29.822 15.443 42.5 22 7.234-2.225 7.592-41.799 4.5-48.5-1.116-2.417-5.068-3.837-7-5.5-4.614-3.972-11.632-7.946-17-11-13.64-7.761-31.551-22.947-36 0-3.872-3.308 4.978-13.279 3.5-15-24.418-7.293-15.011 32.968-10.5 45v1c-3.177-6.38-4.923-9.664-6-17-3.024-20.591 2.088-18.581 5-32 4.298-.193 8.712.269 13 0 .201-.013 2.236 2.323 4 .5.355-6.919-.939-13.607-1-20.5 4.017.465 2.71-.799 3-3.5.744-6.915-.537-14.934 0-22 .332-4.371.401-1.507 2-.5m.5 28c-.887.633-.048 19.188.5 20.5.547 1.31 22.539 9.779 25.5 12.5 4.099-18.745-6.383-33.599-26-33M871 641c-8.308-5.58-17.769-9.266-27-13-5.847-2.365-12.77-6.904-19-8-14.487-2.548-20.078 2.193-21 16.5-.647 10.042 5.345 32.507 13.5 38.5 1.677 1.233 35.278 16.164 38 17 3.643 1.119 7.094 2.687 11 1 8.824-3.811 18.863-38.263 13.5-46.5-.939-1.443-7.248-4.323-9-5.5m-52 86c9.357 5.326 20.622 10.274 30.5 4 5.688-3.613 15.548-22.211 12.5-28.5-.62-1.28-4.72-1.285-5-1.5-3.835-2.943-6.221-3.718-10-6-3.8-2.294-7.181-3.93-11-6-6.562-3.558-12.865-8.451-20-11-6.034-2.155-8.631-4.8-13 1.5-10.878 15.685.889 38.899 16 47.5"/><path fill="#31a1c0" d="m784 511 1 11c-51.999-.729-104.029.686-156 1v-10c40.646-.359 81.324-.889 122-1 10.997-.03 22.115-.915 33-1"/><path fill="#187e9c" d="M790 511c13.303-.094 26.71-.343 40 .5l1 46.5c-4.288.269-8.702-.193-13 0 .466-2.149-.05-32.12-1-33.5-3.016-4.383-24.992-2.534-31-1.5l-1-1-1-11c1.989-.016 4.011.014 6 0"/><path fill="#44b6d3" d="M629 513v10c-110.199.666-220.346 2.77-330.5 4-27.75.31-54.781-3.055-82.5 0l1-9c137.015-4.489 274.874-3.79 412-5"/><path fill="#31a1c0" d="m217 518-1 9c-3.271.36-8.852-.713-11.5 0-12.403 3.341-3.247 32.139-7.5 42-1.838-6.348-1.994-9.344-9-10l-4-39.5c10.971-.111 22.086-1.142 33-1.5"/><path fill="url(#f)" d="m785 522 1 1c5.851 31.031 6.502 63.643-3 94-4.398 5.08-13.798 32.511-19 41.5-13.007 22.478-32.588 42.981-52.5 59.5L667 750c-3.013.025-6.028-.02-9 0-128.744.875-277.749 9.653-404.5 1-25.931-1.77-28.788-5.307-41.5-28 5.193-8.182 7.356-24.181 5-33.5-2.702-10.685-8.368-15.835-19-13.5-.007-.858.786-1.015 1-2 9.285-11.147 14.84-46.529 0-54 1.181-6.911 1.556-17.612-2-24 1.896-9.276 2.701-17.669 0-27 4.253-9.861-4.903-38.659 7.5-42 2.648-.713 8.229.36 11.5 0 27.719-3.055 54.75.31 82.5 0 110.154-1.23 220.301-3.334 330.5-4 51.971-.314 104.001-1.729 156-1m-369.5 9c-36.907 1.021-74.153 4.619-111 7-5.404 11.527-1.437 24.542.5 36.5l2.5 1.5c16.321-5.773 33.139-11.042 50-15 37.49-8.801 100.123-14.794 133-28 .18-.072 3.051-1.476 2-2-25.638.528-51.372-.709-77 0m-174 7c-.709.143-2.993 1.487-4.5 1.5 1.743 16.13 4.228 32.178 12.5 46.5 4.94-2.197 42.751-12.333 43.5-14.5.543-1.57-9.151-26.642-4.5-32.5-13.654 2.463-34.428-3.532-47-1m60 55c-4.967.275-35.531 12.985-35.5 17.5 17.749 22.716 43.605 36.114 69.5 47.5 12.235 5.38 31.47 13.887 44 17 1.666.414 15.1 3.908 15.5 1.5-28.907-16.308-54.988-35.119-75-62-5.594-7.514-8.209-22.07-18.5-21.5" style="fill:url(#f)"/>/&gt;<path fill="#2f8ba9" d="M818 558c-2.912 13.419-8.024 11.409-5 32-2.457-.46-3.019.492-4.5 2-6.618 6.739-20.989 19.789-25.5 25 9.502-30.357 8.851-62.969 3-94 6.008-1.034 27.984-2.883 31 1.5.95 1.38 1.466 31.351 1 33.5"/><path fill="#f0f9fb" d="M415.5 531c25.628-.709 51.362.528 77 0 1.051.524-1.82 1.928-2 2-32.877 13.206-95.51 19.199-133 28-16.861 3.958-33.679 9.227-50 15l-2.5-1.5c-1.937-11.958-5.904-24.973-.5-36.5 36.847-2.381 74.093-5.979 111-7"/><path fill="#e3f3f8" d="M241.5 538c12.572-2.532 33.346 3.463 47 1-4.651 5.858 5.043 30.93 4.5 32.5-.749 2.167-38.56 12.303-43.5 14.5-8.272-14.322-10.757-30.37-12.5-46.5 1.507-.013 3.791-1.357 4.5-1.5"/><path fill="#48646e" d="M839.5 540c19.617-.599 30.099 14.255 26 33-2.961-2.721-24.953-11.19-25.5-12.5-.548-1.312-1.387-19.867-.5-20.5"/><path fill="#09172b" d="M158 546c-10.972 4.929-12.369 19.354-10.5 30 1.393 1.115 25.624-14.947 29.5-16 .341-.093 6.613-.98 7-1 1.282-.065 2.728-.119 4 0 7.006.656 7.162 3.652 9 10 2.701 9.331 1.896 17.724 0 27-.932 4.558-2.287 9.133-5 13 4.001-8.621 9.347-44.33-2.5-47-8.87-1.999-7.195 3.245-6.5 9-4.348-10.407-6.007-5.02-13-2-13.676 5.905-25.351 15.213-39 21 2.182-2.353 12.791-10.616 13-11.5 2.585-10.925-6.701-20.503 8-32.5 1.841 1.39 6.057-5.059 6 0"/><path fill="#5b737b" d="M177 560c-3.876 1.053-28.107 17.115-29.5 16-1.869-10.646-.472-25.071 10.5-30 11.001-4.942 24.009.382 19 14"/><path fill="#3b5760" d="M826 576c-.226 1.163.112 2.706 0 4-5.426 7.012-4.401 17.63-5 25.5-.333 4.372-.401 1.506-2 .5-4.511-12.032-13.918-52.293 10.5-45 1.478 1.721-7.372 11.692-3.5 15"/><path fill="#3b5660" d="M192 609c-.642.914-.955.945-1 1-5.94 7.191-11.522 6.462-17 10 4.421-7.957 9.957-16.762 11-26 .616-5.461.105-17.96-2-23-.695-5.755-2.37-10.999 6.5-9 11.847 2.67 6.501 38.379 2.5 47"/><path fill="#d8e3e8" d="M862 576c5.057 8.255-1.638 8.32-2 9.5-1.859 6.052 3.301 14.14 2 20.5-4.818.958-16.424-2.79-18 3l-17-11c-1.633-6.336-1.559-11.552-1-18 .112-1.294-.226-2.837 0-4 4.449-22.947 22.36-7.761 36 0"/><path fill="#8298a1" d="M183 571c2.105 5.04 2.616 17.539 2 23l-8-3c.634-6.69-2.179-12.749-6-18 .153-.209.715-4.705-1-4 6.993-3.02 8.652-8.407 13 2"/><path fill="#f6f9fa" d="M170 569c1.715-.705 1.153 3.791 1 4-4.831 6.591-40.87 22.732-43 29.5-.725 2.305.663 3.93 1 5.5-4.027-.252-1.334 3.972-1 6-4.048-.509-.36 5.146-3 7-.518-4.228-.825-8.936-2-13 .151-2.503-.493-6.433 0-8.5.986-4.136 5.475-6.777 8-9.5 13.649-5.787 25.324-15.095 39-21"/><path fill="#b1c3ca" d="M177 591c-.409 4.318-3.811 9.326-6 13-2.092-2.81-13.497-3.134-15.5-2-2.738 1.55-2.111 4.954-5 7-8.361 5.92-18.454 13.172-21.5-1-.337-1.57-1.725-3.195-1-5.5 2.13-6.768 38.169-22.909 43-29.5 3.821 5.251 6.634 11.31 6 18"/><path fill="#aac0c9" d="M879 587c-1.218 2.049-.866 3.759-2 6-2.445 4.835-9.737 11.954-15 13 1.301-6.36-3.859-14.448-2-20.5.362-1.18 7.057-1.245 2-9.5 5.368 3.054 12.386 7.028 17 11"/><path fill="#233c4a" d="M826 580c-.559 6.448-.633 11.664 1 18 1.491 5.783 7.771 16.737 12 21l-18-8c-1.114-1.783-1.264-2.523-2-4v-1c1.599 1.006 1.667 3.872 2-.5.599-7.87-.426-18.488 5-25.5"/><path fill="#54717b" d="M839 619c-4.229-4.263-10.509-15.217-12-21l17 11c8.419 5.151 22.762 12.02 32.5 8 8.498-3.509 8.447-20.027.5-24 1.134-2.241.782-3.951 2-6 1.932 1.663 5.884 3.083 7 5.5 3.092 6.701 2.734 46.275-4.5 48.5-12.678-6.557-32.661-12.082-42.5-22"/><path fill="#116987" d="M813 590c1.077 7.336 2.823 10.62 6 17 .736 1.477.886 2.217 2 4 1.658 2.653 1.875 3.808 5 5.5-33.474-4.963-25.663 39.545-12 56-17.43-.879-17.984 20.389-15 33.5-6.94 7.178-7.669 20.52-13 29.5-2.378 4.005-8.906 12.13-13.5 13.5-16.771 5.001-83.25.814-105.5 1l44.5-32c19.912-16.519 39.493-37.022 52.5-59.5 5.202-8.989 14.602-36.42 19-41.5 4.511-5.211 18.882-18.261 25.5-25 1.481-1.508 2.043-2.46 4.5-2"/><path fill="#6d828b" d="M185 594c-1.043 9.238-6.579 18.043-11 26-13.214 8.534-26.722 16.795-39.5 26-5.052.55-7.727-13.603-8.5-17-.714-3.139-.643-5.084-1-8 2.64-1.854-1.048-7.509 3-7 4.961 30.151 34.519 4.231 43-10 2.189-3.674 5.591-8.682 6-13z"/><path fill="#dceff5" d="M301.5 593c10.291-.57 12.906 13.986 18.5 21.5 20.012 26.881 46.093 45.692 75 62-.4 2.408-13.834-1.086-15.5-1.5-12.53-3.113-31.765-11.62-44-17-25.895-11.386-51.751-24.784-69.5-47.5-.031-4.515 30.533-17.225 35.5-17.5"/><path fill="#688a96" d="M844 609c1.576-5.79 13.182-2.042 18-3 5.263-1.046 12.555-8.165 15-13 7.947 3.973 7.998 20.491-.5 24-9.738 4.02-24.081-2.849-32.5-8"/><path fill="#1c91b2" d="M199 620c-3.998-2.013-8.647-2.134-13-1.5l5-8.5c.045-.055.358-.086 1-1 2.713-3.867 4.068-8.442 5-13 3.556 6.388 3.181 17.089 2 24"/><path fill="#98acb5" d="M171 604c-8.481 14.231-38.039 40.151-43 10-.334-2.028-3.027-6.252 1-6 3.046 14.172 13.139 6.92 21.5 1 2.889-2.046 2.262-5.45 5-7 2.003-1.134 13.408-.81 15.5 2"/><path fill="#48596a" d="M125 621c.357 2.916.286 4.861 1 8l-1 1c-1.448-7.726-2.482-14.033-2-22 1.175 4.064 1.482 8.772 2 13"/><path fill="#071226" d="M199 620c14.84 7.471 9.285 42.853 0 54 3.109-14.293 10.994-23.475 7-40.5-2.733-11.652-7.345-12.756-18-11.5-10.442 1.231-50.603 21.073-54 30.5-1.719 4.771-.681 9.699 0 14.5 1.31 9.235 10.109 33.718 21.5 32 1.488-.224 12.469-7.506 15.5-9 6.629-3.267 21.123-12.709 27-14 10.632-2.335 16.298 2.815 19 13.5 2.356 9.319.193 25.318-5 33.5-1.173 1.848-12.728 11.701-15 13-.222.127-2.017.539-3 1-1.13.53-3.84 1.635-5 2-7.297 2.297-11.91 4.865-19.5 1-5.269-2.683-14.404-19.604-15.5-25.5-.62-3.337 1.385-11.537 1-12-1.042-1.253-4.544.029-5.5-.5-7.672-4.246-16.588-25.932-17.5-34.5-.609-5.724 2.142-17.081 2-18-.081-.525-5.402-3.867-7-8-1.127-2.917-1.42-8.404-2-11.5l1-1c.773 3.397 3.448 17.55 8.5 17 12.778-9.205 26.286-17.466 39.5-26 5.478-3.538 11.06-2.809 17-10l-5 8.5c4.353-.634 9.002-.513 13 1.5m-3 61c-6.908 2.715-10.827 5.377-17 9-16.808 9.864-29.319 9.233-19 32 8.753 19.311 20.651 19.863 37.5 9 13.092-8.441 21.636-26.943 17.5-42.5-.292-1.099-5.562-9.966-6.5-10.5-5.865-3.341-8.492 1.425-12.5 3"/><path fill="#46616b" d="M825 620c-12.297 12.229-8.927 35.088 4 46 6.449 5.444 26.105 16.196 34.5 14 6.726-1.759 8.164-16.207 8.5-22 .331-5.707-.123-11.377-1-17 1.752 1.177 8.061 4.057 9 5.5 5.363 8.237-4.676 42.689-13.5 46.5-3.906 1.687-7.357.119-11-1-2.722-.836-36.323-15.767-38-17-8.155-5.993-14.147-28.458-13.5-38.5.922-14.307 6.513-19.048 21-16.5"/><path fill="#bcced6" d="M844 628c-2.578 6.446-8.368 21.778 4 16.5V668c-7.324-.189-16.894-7.379-19-2-12.927-10.912-16.297-33.771-4-46 6.23 1.096 13.153 5.635 19 8"/><path fill="#4b636d" d="M199 674c-.214.985-1.007 1.142-1 2-5.877 1.291-20.371 10.733-27 14 9.561-12.466 15.267-23.391 18-39 1.613-9.215 4.591-18.973-1-27-.156-.223.087-1.376 0-2 10.655-1.256 15.267-.152 18 11.5 3.994 17.025-3.891 26.207-7 40.5"/><path fill="#d9e3e7" d="M188 622c.087.624-.156 1.777 0 2l-14 4.5c.822.974 2.013-.166 1.5 1.5-2.836 9.212-2.058 18.827-7.5 27.5-6.057 9.653-19.3 14.481-29 8.5-.331-.72-3.238-5.157-3.5-5l-1.5 6c-.681-4.801-1.719-9.729 0-14.5 3.397-9.427 43.558-29.269 54-30.5"/><path fill="#86a1ad" d="M188 624c5.591 8.027 2.613 17.785 1 27-6.996 9.108-29.43 35.495-42.5 30-4.98-2.094-5.915-11.549-7.5-15 9.7 5.981 22.943 1.153 29-8.5 5.442-8.673 4.664-18.288 7.5-27.5.513-1.666-.678-.526-1.5-1.5z"/><path fill="#8daab5" d="M871 641c.877 5.623 1.331 11.293 1 17-7.201 7.035-13.644 10.267-24 10v-23.5c-12.368 5.278-6.578-10.054-4-16.5 9.231 3.734 18.692 7.42 27 13"/><path fill="#667d87" d="M189 651c-2.733 15.609-8.439 26.534-18 39-3.031 1.494-14.012 8.776-15.5 9-11.391 1.718-20.19-22.765-21.5-32l1.5-6c.262-.157 3.169 4.28 3.5 5 1.585 3.451 2.52 12.906 7.5 15 13.07 5.495 35.504-20.892 42.5-30"/><path fill="#5f808c" d="M829 666c2.106-5.379 11.676 1.811 19 2 10.356.267 16.799-2.965 24-10-.336 5.793-1.774 20.241-8.5 22-8.395 2.196-28.051-8.556-34.5-14"/><path fill="#5c747c" d="M816 678c-2.471 6.182-2.903 13.442-1 20-3.434 7.018 6.12 21.737 13 24-1.981.682-2.384 6.621-3.5 7-.277.094-4.466-3.721-5.5-2-15.111-8.601-26.878-31.815-16-47.5 4.369-6.3 6.966-3.655 13-1.5"/><path fill="#587079" d="M160 722c6.167-1.811 8.393 4.388 15.5 4 16.382-.895 25.398-20.321 24.5-35-.207-3.383-.702-8.023-4-10 4.008-1.575 6.635-6.341 12.5-3 .938.534 6.208 9.401 6.5 10.5 4.136 15.557-4.408 34.059-17.5 42.5-16.849 10.863-28.747 10.311-37.5-9"/><path fill="#d2dee3" d="m836 689-2 19c-7.85 2.132-16.577-1.651-19-10-1.903-6.558-1.471-13.818 1-20 7.135 2.549 13.438 7.442 20 11"/><path fill="#f2f7f8" d="M196 681c3.298 1.977 3.793 6.617 4 10-10.92-1.606-22.599 10.611-33.5 14-1.493-6.376 16.841-9.884 12.5-15 6.173-3.623 10.092-6.285 17-9"/><path fill="#a7bcc5" d="M847 695c-1.966 5.07-7.456 11.495-13 13l2-19c3.819 2.07 7.2 3.706 11 6"/><path fill="#b0c2c9" d="M179 690c4.341 5.116-13.993 8.624-12.5 15 10.901-3.389 22.58-15.606 33.5-14 .898 14.679-8.118 34.105-24.5 35-7.107.388-9.333-5.811-15.5-4-10.319-22.767 2.192-22.136 19-32"/><path fill="#587986" d="M857 701c-6.508 13.729-10.085 27.221-29 21-6.88-2.263-16.434-16.982-13-24 2.423 8.349 11.15 12.132 19 10 5.544-1.505 11.034-7.93 13-13 3.779 2.282 6.165 3.057 10 6"/><path fill="#3f5d68" d="M819 727c1.034-1.721 5.223 2.094 5.5 2 1.116-.379 1.519-6.318 3.5-7 18.915 6.221 22.492-7.271 29-21 .28.215 4.38.22 5 1.5 3.048 6.289-6.812 24.887-12.5 28.5-9.878 6.274-21.143 1.326-30.5-4"/><path fill="#015974" d="M830 736c-1.156 4.899 3.299 30.859.5 32-51.47 1.657-103.011.825-154.5 1-15.234-4.56-43.818 2.687-57.5-1-1.887-.509-2.428-2.306-2.5-4 56.353-.413 113.007-2.407 169.5-2 1.502-2.537-.566-1.74-2-2-13.319-2.418-41.3.194-56.5 0l-68.5-2-.5-8c2.972-.02 5.987.025 9 0 22.25-.186 88.729 4.001 105.5-1 4.594-1.37 11.122-9.495 13.5-13.5 5.331-8.98 6.06-22.322 13-29.5 5.175 22.733 13.943 20.998 31 30"/><path fill="#107f9e" d="m658 750 .5 8 68.5 2c-158.335-2.016-317.175.264-475.5 3l-17 3c126.993-3.154 254.52-1.069 381.5-2 .072 1.694.613 3.491 2.5 4 13.682 3.687 42.266-3.56 57.5 1-89.751.305-179.769 1.518-269.5 2-70.734.38-141.325-4.027-212 2-.937-.663-.467-3.816-.5-5 10.239 2.952 2.699-25.438 3-32 2.272-1.299 13.827-11.152 15-13 12.712 22.693 15.569 26.23 41.5 28 126.751 8.653 275.756-.125 404.5-1"/><path fill="#2797b6" d="M197 736c-.301 6.562 7.239 34.952-3 32-.279-10.109 1.07-20.793 0-31 .983-.461 2.778-.873 3-1"/><path fill="#0f2f43" d="m835 739 2.5 33-131.5 2c-1.661-1.41-2.289-2.075-4.5-3-2.087-.506-1.375 2.002-1.5 2-13.565-.26-27.434-.502-41 0-4.845.179-10.315-.475-15 0-1.292.131-2.743-.199-4 0-6.181-3.421-11.875 1.295-17 4-.687-6.176-14.493 4.456-16.5 6-5.847 4.498-10.68 9.642-14.5 16-.436-.436-3.049-1.897-3-2.5l25-22-8 1.5c-.583-3.694-8.617-4.019-11.5-3-1.251.442-14.935 14.842-19.5 18l13-16.5c-.489-3.603-19.76-.457-22-.5-43.148-.83-86.312-1.46-129.5-1-3.594 1.428 7.233 13.206 9.5 16-5.507.349-20.246-14.564-21.5-15-4.373-1.52-11.196 1.116-15.5 1-1.574-.042-2.339-.061-4 0-5.066.185-7.511-1.36-12.5-1l1.5 4c-7.859-2.973-14.684-6.469-23.5-5-.841.361-.412 1.337-.5 2-.12.9 1.128 1.104 1 2-7.109-1.207-9.049-.486-15-1-4.819-.416-12.403-2.03-17-2-6.211.041-11.836-.479-18 1-.097.023.642-1.635-2 0l-129.5 3-.5-39c1.16-.365 3.87-1.47 5-2 1.07 10.207-.279 20.891 0 31 .033 1.184-.437 4.337.5 5 70.675-6.027 141.266-1.62 212-2 89.731-.482 179.749-1.695 269.5-2 51.489-.175 103.03.657 154.5-1 2.799-1.141-1.656-27.101-.5-32 2.006 1.059 3.009 1.324 5 3"/><path fill="#83c9df" d="M727 760c15.2.194 43.181-2.418 56.5 0 1.434.26 3.502-.537 2 2-56.493-.407-113.147 1.587-169.5 2-126.98.931-254.507-1.154-381.5 2l17-3c158.325-2.736 317.165-5.016 475.5-3"/><path fill="#050d1b" d="M706 774c1.296 1.1 19.325 25.939 20 27.5 2.002 4.632 1.094 15.631 6 20.5-.071-.003.164 1.184-1 1-17.988-3.974-39.943-3.239-58 0-14.732 2.643-23.89 6.055-37 13-7.414 3.928-13.972 8.52-21 13 23.358-20.901 30.941-19.84 58-30h52.5c1.845-1.181.709-3.074.5-5-.084-.774-2.634-10.094-3-10.5-2.466-2.736-26.592-2.762-31.5-2.5-31.128 1.664-66.023 15.179-85.5 40-.515.145-1.358-.073-2 0-.487-5.012-1.387-7.695-2-12 3.109-2.318 2.366 4.551 3.5 5 1.02.404 10.201-11.841 12-13 1.326-.854 3.244 1.489 4 1 27.654-17.88 47.117-22.979 80.5-24 6.367-.195 12.67.335 19 .5-6.636-18.639-37.236-14.661-53.5-12.5-20.025 2.661-40.374 11.968-55.5 25-3.147 2.711-6.165 6.583-10 8-.745-3.646-11.356-21.045-16.5-20-1.807.367-22.646 20.654-28 24-32.375 20.229-62.358 15.389-94-3-5.846-3.397-23.5-19.584-29-18-3.359.967-9.559 16.556-12.5 20-1.343-2.171-13.122-11.062-16-13-17.174-11.565-39.874-18.497-60.5-20-13.737-1.001-38.604-3.882-42 13 7.69-1.708 14.832-.547 22.5 0 41.458 2.958 54.234 7.963 87.5 31 1.904 1.319 4.225 3.897 6.5 2-.348 2.055.486 5.244 0 7-.66.02-1.343-.042-2 0-17.643-17.782-42.753-30.957-67.5-35-7.462-1.219-44.354-3.846-49-1-2.028 1.242-4.921 12.682-2.5 14 15.045-.192 30.001-.842 45 1 21.249 2.609 37.809 9.429 55.5 21 8.676 5.675 15.838 20.57 20.5 3l-2 14h-1c-12.947-11.921-30.447-22.94-47-29-12.894-4.721-24.145-7.378-38-8-11.458-.514-27.749.081-39 2v-1c3.602-3.932 2.872-14.761 4-17.5.716-1.739 20.401-29.51 22-30.5 2.642-1.635 1.903.023 2 0-1.749 2.737-3.688 4.943-5 8-.647 1.507-3.157.896-1.5 3 12.261-.14 24.287-.259 36.5 1 25.143 2.592 54.16 11.689 70.5 32 8.086-9.305 6.958-9.615-.5-17-12.043-15.314-31.718-25.448-51-27 .088-.663-.341-1.639.5-2 8.816-1.469 15.641 2.027 23.5 5 5.87 2.221 12.469 5.261 17.5 9 2.922 2.171 16.732 18.104 18 18 .424-.035 5.676-5.299 5.5-6.5-.276-1.885-26.008-21.424-30-23.5 1.661-.061 2.426-.042 4 0 35.783 30.059 68.302 62.17 119.5 56 20.15-2.428 43.427-20.401 58-34 3.377-3.151 19.873-18.641 19.5-21l8-1.5-25 22c-.049.603 2.564 2.064 3 2.5.863.862 1.697 3.381 3.5 3 6.634-10.076 16.861-19.384 27.5-25 5.125-2.705 10.819-7.421 17-4-2.562.406-10.932 3.374-11 6-4.918 1.94-9.168 3.683-13.5 7-5.487 4.201-26.295 23.028-13 28 16.748-14.606 34.531-24.501 56.5-29 15.799-3.236 25.51-2.173 41-3 2.082-.111 8.652 1.097 9-1.5l-9-7.5c.125.002-.587-2.506 1.5-2 2.211.925 2.839 1.59 4.5 3"/><path fill="#2a434f" d="m700 773 3 6.5-3 2.5c-15.49.827-25.201-.236-41 3 .845-5.39-3.258-4.909 0-12 13.566-.502 27.435-.26 41 0"/><path fill="#445e69" d="M566 774c-.838 8.948-2.703 16.761-6 25-30.058 13.802-51.093 11.701-82.5 3-8.947-2.479-18.172-8.19-27.5-9-1.048-1.138-2.52-2.176-4-4-2.267-2.794-13.094-14.572-9.5-16 43.188-.46 86.352.17 129.5 1"/><path fill="#284450" d="M575 791c-1.555 1.075-3.358 2.006-5 3-3.327 2.014-6.485 3.386-10 5 3.297-8.239 5.162-16.052 6-25 2.24.043 21.511-3.103 22 .5z"/><path fill="#34505b" d="M606 776c.373 2.359-16.123 17.849-19.5 21-14.573 13.599-37.85 31.572-58 34-51.198 6.17-83.717-25.941-119.5-56 4.304.116 11.127-2.52 15.5-1 1.254.436 15.993 15.349 21.5 15 1.48 1.824 2.952 2.862 4 4 39.433 42.828 80.19 45.673 120 1 1.642-.994 3.445-1.925 5-3 4.565-3.158 18.249-17.558 19.5-18 2.883-1.019 10.917-.694 11.5 3"/><path fill="#4d6b72" d="M644 773c-4.569 2.761-10.059 4.051-15 6 .068-2.626 8.438-5.594 11-6 1.257-.199 2.708.131 4 0"/><path fill="#172733" d="M659 773c-3.258 7.091.845 6.61 0 12-21.969 4.499-39.752 14.394-56.5 29-13.295-4.972 7.513-23.799 13-28 4.332-3.317 8.582-5.06 13.5-7 4.941-1.949 10.431-3.239 15-6 4.685-.475 10.155.179 15 0"/><path fill="#3d5d65" d="m700 782 3-2.5-3-6.5 9 7.5c-.348 2.597-6.918 1.389-9 1.5"/><path fill="#6d8d97" d="M339 774c-2.346 4.548-12.281.678-15.5 2-.979.402-3.094 7.076-7.5 7 1.312-3.057 3.251-5.263 5-8 6.164-1.479 11.789-.959 18-1"/><path fill="#324a55" d="M356 776c4.096 11.948-5.809 2.77-5 11-12.213-1.259-24.239-1.14-36.5-1-1.657-2.104.853-1.493 1.5-3 4.406.076 6.521-6.598 7.5-7 3.219-1.322 13.154 2.548 15.5-2 4.597-.03 12.181 1.584 17 2"/><path fill="#1e313d" d="M405 775c3.992 2.076 29.724 21.615 30 23.5.176 1.201-5.076 6.465-5.5 6.5-1.268.104-15.078-15.829-18-18-5.031-3.739-11.63-6.779-17.5-9l-1.5-4c4.989-.36 7.434 1.185 12.5 1"/><path fill="#182b37" d="M623 777c-10.639 5.616-20.866 14.924-27.5 25-1.803.381-2.637-2.138-3.5-3 3.82-6.358 8.653-11.502 14.5-16 2.007-1.544 15.813-12.176 16.5-6"/><path fill="#192b37" d="M371 777c20.435 3.47 35.04 10.187 50 25 7.458 7.385 8.586 7.695.5 17-16.34-20.311-45.357-29.408-70.5-32-.809-8.23 9.096.948 5-11 5.951.514 7.891-.207 15 1"/><path fill="#4a636a" d="M421 802c-14.96-14.813-29.565-21.53-50-25 .128-.896-1.12-1.1-1-2 19.282 1.552 38.957 11.686 51 27"/><path fill="#768b8e" d="M702 798c.99-2.71 11.799-2.803 11-7.5-.964-5.664-40.786-3.467-47.5-2.5-19.404 2.793-37.115 13.084-53.5 23 15.126-13.032 35.475-22.339 55.5-25 16.264-2.161 46.864-6.139 53.5 12.5-6.33-.165-12.633-.695-19-.5"/><path fill="#243b48" d="M702 798c-33.383 1.021-52.846 6.12-80.5 24-.756.489-2.674-1.854-4-1-1.799 1.159-10.98 13.404-12 13-1.134-.449-.391-7.318-3.5-5-.449-3.152-1.652-4.022-2-5.5-.399-1.696 2.475-2.175 2-4.5 3.835-1.417 6.853-5.289 10-8 16.385-9.916 34.096-20.207 53.5-23 6.714-.967 46.536-3.164 47.5 2.5.799 4.697-10.01 4.79-11 7.5"/><path fill="#7a8d92" d="M406 809c-10.668-3.619-20.467-9.98-31.5-13-10.527-2.882-55.208-8.484-63-4-9.438 5.431 14.277 7.277 14.5 10-7.668-.547-14.81-1.708-22.5 0 3.396-16.882 28.263-14.001 42-13 20.626 1.503 43.326 8.435 60.5 20"/><path fill="#263c49" d="M406 809c2.878 1.938 14.657 10.829 16 13 4.223 6.827-1.248 8.556-2 13-2.275 1.897-4.596-.681-6.5-2-33.266-23.037-46.042-28.042-87.5-31-.223-2.723-23.938-4.569-14.5-10 7.792-4.484 52.473 1.118 63 4 11.033 3.02 20.832 9.381 31.5 13"/><path fill="#96acb2" d="M560 799c3.515-1.614 6.673-2.986 10-5-39.81 44.673-80.567 41.828-120-1 9.328.81 18.553 6.521 27.5 9 31.407 8.701 52.442 10.802 82.5-3"/><path fill="#839699" d="M726 814c-3.489 3.518-2.997-8.134-6.5-10-4.329-2.306-31.106-.738-37.5 0-16.585 1.915-37.23 8.458-51.5 17-4.82 2.885-22.978 19.571-24.5 20 19.477-24.821 54.372-38.336 85.5-40 4.908-.262 29.034-.236 31.5 2.5.366.406 2.916 9.726 3 10.5"/><path fill="#495f69" d="M726 814c.209 1.926 1.345 3.819-.5 5H673c.124-.047-.404-1.618.5-2 7.473-3.156 9.777 4.135 8.5-13 6.394-.738 33.171-2.306 37.5 0 3.503 1.866 3.011 13.518 6.5 10"/><path fill="#2b424e" d="M682 804c1.277 17.135-1.027 9.844-8.5 13-.904.382-.376 1.953-.5 2-27.059 10.16-34.642 9.099-58 30-2.897 2.592-8.402 8.102-11 11v-1c.66-4.788.46-13.264 0-18 .642-.073 1.485.145 2 0 1.522-.429 19.68-17.115 24.5-20 14.27-8.542 34.915-15.085 51.5-17"/><path fill="#7c9094" d="M418 842c-2.406.156-17.721-13.704-21.5-16-15.201-9.234-35.72-15.96-53.5-18-7.296-.837-38.817-3.5-42 2.5-.647 1.219-.153 7.625-2 9.5-2.421-1.318.472-12.758 2.5-14 4.646-2.846 41.538-.219 49 1 24.747 4.043 49.857 17.218 67.5 35"/><path fill="#4d626b" d="m343 808 1 13c-14.999-1.842-29.955-1.192-45-1 1.847-1.875 1.353-8.281 2-9.5 3.183-6 34.704-3.337 42-2.5"/><path fill="#2e4550" d="M418 842c.657-.042 1.34.02 2 0-.235.848.228 2.141 0 3-4.662 17.57-11.824 2.675-20.5-3-17.691-11.571-34.251-18.391-55.5-21l-1-13c17.78 2.04 38.299 8.766 53.5 18 3.779 2.296 19.094 16.156 21.5 16"/><path fill="url(#g)" d="M731 823c.138.031 1.861 1.514 2 2-8.085-1.122-42.228-3.12-48.5-1-2.046.692-2.208 2.347-1 3 1.408.761 26.48.214 32 1 31.642 4.504 61.426 22.988 77.5 50.5L688 888c-3.278-.241-7.483.512-10.5 0-.595-.101-3.026-4.089-10-5-8.905-1.164-24.76.706-32.5-1-13.41-2.955-2.586-36.806 4-44 4.318.994 13.288-4.062 18.5-6 3.244-1.206 12.449-2.138 14-3 1.816-1.009-1.087-3.917 1.5-6 18.057-3.239 40.012-3.974 58 0" style="fill:url(#g)"/>/&gt;<path fill="#fafdfd" d="M332 822c-.459 3.98.768 2.74 3.5 3 10.318.98 15.649.155 23.5 7-53.768-12.626-110.666.237-146 44-1.413 1.75-1.52 1.357-3 4-.623 1.112-1.557 1.827-2 3-.722-.312-1.277-.69-2-1 9.654-24.449 38.529-42.531 62.5-51 5.774-2.04 18.874-6.041 24.5-7 11.251-1.919 27.542-2.514 39-2"/><path fill="#7fc4d4" d="m370 830 1 7c-3.079-.392-7.011-4.221-10-2-.665-.924-1.864-2.882-2-3-7.851-6.845-13.182-6.02-23.5-7-2.732-.26-3.959.98-3.5-3 13.855.622 25.106 3.279 38 8"/><path fill="#023858" d="M817 894c.303 3.066 1.569 12.945-.5 15-4.832 4.8-76.867 10.541-88 11-20.964.865-125.859.697-139-9-.921-.68-1.605-1.769-2.5-2.5 1.086-6.781-2.347-16.273-2-22.5.591-10.61 11.333-20.257 19-27v1c-2.484 2.771-14.43 14.674-14 17.5 10.75 9.492 27.819 13.548 42 15.5 8.315 1.144 17.61 1.574 26 2v3c-1.984-.078-4.019.099-6 0-21.193-1.063-43.743-2.298-61.5-15-2.548.698-.25 22.337.5 23.5 4.121 6.39 63.87 9.157 74 9.5 12.561.426 25.423.149 38 0 28.333-.336 77.987-.094 104-9 1.825-.625 5.293.341 7-2.5-.825-7.447-1.737-13.324-4-20.5-.602-1.911-1.185-3.195-2-5-12.692-28.105-44.832-49.815-75-54-.139-.486-1.862-1.969-2-2 1.164.184.929-1.003 1-1 32.889 1.311 81.633 37.94 85 72"/><path fill="#b4d2dc" d="M293 823v1c-5.626.959-18.726 4.96-24.5 7-23.971 8.469-52.846 26.551-62.5 51-.713-.306-1.3-.672-2-1-1.033-.483-1.687-1.296-3-1 3.829-9.382 28.533-30.292 37.5-36 16.463-10.479 35.371-17.428 54.5-21"/><path fill="#a1c4cf" d="M673 823c-2.587 2.083.316 4.991-1.5 6-1.551.862-10.756 1.794-14 3-5.212 1.938-14.182 6.994-18.5 6-.176-.04-1.559-2.633-3-2 13.11-6.945 22.268-10.357 37-13"/><path fill="#f8fcfc" d="M733 825c30.168 4.185 62.308 25.895 75 54-2.68 4.023-6.936 4.548-11 6 .278-3.149-7.036-2.187-8.5-2-35.496 4.533-64.208 7.672-100.5 5l105-9.5c-16.074-27.512-45.858-45.996-77.5-50.5-5.52-.786-30.592-.239-32-1-1.208-.653-1.046-2.308 1-3 6.272-2.12 40.415-.122 48.5 1m27.5 15c10.011 8.013 20.801 14.849 29.5 24.5 1.942 2.155 11.902 20.802 14 14 1.56-5.058-34.351-38.77-43.5-38.5"/><path fill="url(#h)" d="M359 832c.136.118 1.335 2.076 2 3 9.282 12.895 15.651 46.89-2.5 52-9.956 2.803-34.138 3.401-45.5 4 .435-3.009-2.671-1.938-4.5-2-32.705-1.106-64.45 1.599-95.5-13 35.334-43.763 92.232-56.626 146-44" style="fill:url(#h)"/>/&gt;<path fill="#3b7f94" d="M417 859c3.423 3.152 7.972 8.339 11 12-8.504-2.798-16.634-11.582-25-17 1.541-1.888-.093-2.891-1.5-4-3.702-2.919-22.148-14.017-26-15-2.01-.513-1.115 2.25-2.5 2-.628-.113-1.359.081-2 0l-1-7c16.553 6.06 34.053 17.079 47 29"/><path fill="#5f7b86" d="M371 837c.641.081 1.372-.113 2 0 10.014 5.67 20.318 10.73 30 17 8.366 5.418 16.496 14.202 25 17 1.144 1.383 6.146 3.806 5 6.5-21.838 12.287-47.112 17.405-72 19.5-22.901 1.928-52.029 2.176-75 1v-6c8.491.094 18.413-.547 27-1 11.362-.599 35.544-1.197 45.5-4 18.151-5.11 11.782-39.105 2.5-52 2.989-2.221 6.921 1.608 10 2"/><path fill="#629dad" d="M403 854c-9.682-6.27-19.986-11.33-30-17 1.385.25.49-2.513 2.5-2 3.852.983 22.298 12.081 26 15 1.407 1.109 3.041 2.112 1.5 4"/><path fill="#52707b" d="M636 836c1.441-.633 2.824 1.96 3 2-6.586 7.194-17.41 41.045-4 44 .035 4.257-.604 8.003-3 11-14.181-1.952-31.25-6.008-42-15.5-.43-2.826 11.516-14.729 14-17.5 2.598-2.898 8.103-8.408 11-11 7.028-4.48 13.586-9.072 21-13"/><path fill="#c1dbe5" d="M760.5 840c9.149-.27 45.06 33.442 43.5 38.5-2.098 6.802-12.058-11.845-14-14-8.699-9.651-19.489-16.487-29.5-24.5"/><path fill="#02304e" d="M437 886c1.018 11.964 2.916 20.028-8.5 25-34.202 14.896-139.428 11.791-178.5 8v-3c31.691 2.799 63.317 2.484 95 1 14.384-.674 28.71-1.232 43-3 7.509-.929 43.666-4.536 46-11.5.52-1.553.163-12.901 0-15.5-.115-1.831.976-1.997 1-3.5-1.64-2.207-18.834 7.354-22.5 8.5-9.696 3.031-19.47 4.531-29.5 6-7.418 1.087-14.551 1.412-22 2v-3c24.888-2.095 50.162-7.213 72-19.5 1.146-2.694-3.856-5.117-5-6.5-3.028-3.661-7.577-8.848-11-12h1c2.767 3.159 18.209 16.042 19 18.5.536 1.665-.198 6.172 0 8.5"/><path fill="#eaf3f6" d="M213 876c31.05 14.599 62.795 11.894 95.5 13 1.829.062 4.935-1.009 4.5 2-8.587.453-18.509 1.094-27 1-26.258-.291-50.98-4.569-76-12 1.48-2.643 1.587-2.25 3-4"/><path fill="#b9c9cf" d="M286 892v6c-9.831-.503-20.224-1.698-30-3-16.665-2.22-32.518-5.307-48-12 .443-1.173 1.377-1.888 2-3 25.02 7.431 49.742 11.709 76 12"/><path fill="#2daac5" d="M810 884c-11.01 1.407 3.782 15.684-3 23-26.013 8.906-75.667 8.664-104 9l-1-14c25.437-.412 50.477-1.466 75.5-6 1.008-.508-.805-1.966-1-2-4.034-.692-30.722 3.734-38 4-25.554.933-54.979 1.003-80.5 0v-3c36.153 1.835 105.913 1.826 139-10 4.064-1.452 8.32-1.977 11-6 .815 1.805 1.398 3.089 2 5"/><path fill="#0a6992" d="M204 881c-.483 2.603.45 2.63 2 4-8.022 1.719-4.369 16.238-6 22.5.874 1.981 21.537 4.937 25 5.5 5.246.853 10.715 1.385 16 2 2.874.334 6.136.747 9 1v3c-18.049-1.751-35.87-3.64-53.5-8-1.342-1.6 1.107-13.035 1.5-16 .501-3.782 1.678-11.76 3-15 1.313-.296 1.967.517 3 1"/><path fill="#329ec3" d="M206 882c.723.31 1.278.688 2 1 15.482 6.693 31.335 9.78 48 12l-1 4c-12.473-1.554-27.312-4.399-39-9-3.511-1.382-7.088-2.427-10-5-1.55-1.37-2.483-1.397-2-4 .7.328 1.287.694 2 1"/><path fill="#829aa4" d="M688 888c36.292 2.672 65.004-.467 100.5-5 1.464-.187 8.778-1.149 8.5 2-33.087 11.826-102.847 11.835-139 10-8.39-.426-17.685-.856-26-2 2.396-2.997 3.035-6.743 3-11 7.74 1.706 23.595-.164 32.5 1 6.974.911 9.405 4.899 10 5 3.017.512 7.222-.241 10.5 0"/><path fill="#017284" d="m434 887-46.5 14 .5 13c-14.29 1.768-28.616 2.326-43 3 1.152-2.016 3.072-12.296 4.5-13 2.248-1.109 25.062-.066 31-2 3.087-1.005 2.727.306 2.5-4 10.03-1.469 19.804-2.969 29.5-6 3.666-1.146 20.86-10.707 22.5-8.5-.024 1.503-1.115 1.669-1 3.5"/><path fill="#006b7b" d="M652 898c-4.17 6.015 6.795 3.832 11 4l2 14c-10.13-.343-69.879-3.11-74-9.5-.75-1.163-3.048-22.802-.5-23.5 17.757 12.702 40.307 13.937 61.5 15"/><path fill="#1fcbed" d="M810 884c2.263 7.176 3.175 13.053 4 20.5-1.707 2.841-5.175 1.875-7 2.5 6.782-7.316-8.01-21.593 3-23"/><path fill="#acf8ff" d="M206 885c2.912 2.573 6.489 3.618 10 5-6.868 7.932-6.144 13.856 2.5 20 .337.239 10.64-.021 6.5 3-3.463-.563-24.126-3.519-25-5.5 1.631-6.262-2.022-20.781 6-22.5"/><path fill="#006272" d="M434 887c.163 2.599.52 13.947 0 15.5-2.334 6.964-38.491 10.571-46 11.5l-.5-13z"/><path fill="#61daf4" d="M255 899c12.518 1.56 26.317 1.562 39 2 3.042 5.562 16.757-1.575 18.5 4-24.244 1.052-48.167-2.134-72-6-.668 5.717-3.339 10.893.5 16-5.285-.615-10.754-1.147-16-2 4.14-3.021-6.163-2.761-6.5-3-8.644-6.144-9.368-12.068-2.5-20 11.688 4.601 26.527 7.446 39 9"/><path fill="#75d0e2" d="M702 902c-12.869.208-26.152.515-39 0-4.205-.168-15.17 2.015-11-4 1.981.099 4.016-.078 6 0 25.521 1.003 54.946.933 80.5 0 7.278-.266 33.966-4.692 38-4 .195.034 2.008 1.492 1 2-25.023 4.534-50.063 5.588-75.5 6"/><path fill="#076c93" d="M286 898c22.971 1.176 52.099.928 75-1v3c-22.547 1.781-44.44 1.78-67 1-12.683-.438-26.482-.44-39-2l1-4c9.776 1.302 20.169 2.497 30 3"/><path fill="#2da9c4" d="M383 898c.227 4.306.587 2.995-2.5 4-5.938 1.934-28.752.891-31 2-1.428.704-3.348 10.984-4.5 13-31.683 1.484-63.309 1.799-95-1-2.864-.253-6.126-.666-9-1-3.839-5.107-1.168-10.283-.5-16 23.833 3.866 47.756 7.052 72 6-1.743-5.575-15.458 1.562-18.5-4 22.56.78 44.453.781 67-1 7.449-.588 14.582-.913 22-2"/><path fill="#1897af" d="m702 902 1 14c-12.577.149-25.439.426-38 0l-2-14c12.848.515 26.131.208 39 0"/></svg>