<svg xmlns="http://www.w3.org/2000/svg" width="1024" height="1024"><defs><linearGradient id="a" x1="364.655" x2="676.079" y1="241.948" y2="473.377" gradientUnits="userSpaceOnUse"><stop offset="0%" style="stop-color:#dae7ee"/><stop offset="100%" style="stop-color:#5a707b"/></linearGradient></defs><defs><linearGradient id="b" x1="280.604" x2="297.973" y1="302.061" y2="387.31" gradientUnits="userSpaceOnUse"><stop offset="0%" style="stop-color:#d3e2eb"/><stop offset="100%" style="stop-color:#89a7b2"/></linearGradient></defs><defs><linearGradient id="c" x1="577.836" x2="435.882" y1="337.724" y2="341.36" gradientUnits="userSpaceOnUse"><stop offset="0%" style="stop-color:#041b45"/><stop offset="100%" style="stop-color:#1863a0"/></linearGradient></defs><defs><linearGradient id="d" x1="729.296" x2="706.984" y1="307.793" y2="385.66" gradientUnits="userSpaceOnUse"><stop offset="0%" style="stop-color:#bed4df"/><stop offset="100%" style="stop-color:#7da0ac"/></linearGradient></defs><defs><linearGradient id="e" x1="693.681" x2="661.957" y1="570.8" y2="589.842" gradientUnits="userSpaceOnUse"><stop offset="0%" style="stop-color:#145b7b"/><stop offset="100%" style="stop-color:#137696"/></linearGradient></defs><defs><linearGradient id="f" x1="383.035" x2="572.129" y1="452.262" y2="856.192" gradientUnits="userSpaceOnUse"><stop offset="14.126%" style="stop-color:#83c9dd"/><stop offset="100%" style="stop-color:#57a0b7"/></linearGradient></defs><defs><linearGradient id="g" x1="470.768" x2="740.185" y1="747.255" y2="1008.1" gradientUnits="userSpaceOnUse"><stop offset="30.133%" style="stop-color:#2782a2"/><stop offset="100%" style="stop-color:#2a4f68"/></linearGradient></defs><path fill="#081f48" d="M311 92c-2.223-.704-3.698-4.067-5.5-5-4.325-2.24-9.283-.721-11.5-4 10.522-16.748-10.324-36.906-29-32l-1-1c29.107-10.923 54.29 11.77 47 42"/><path fill="#0b2652" d="M733 117c1.181-7.588 2.113-16.099-2-23 34.278-3.41 32.096-44.334-2-45-1.151-.022-2.925.545-3-1 50.281-8.15 55.603 66.222 7 69"/><path fill="#0d4677" d="M726 48c.075 1.545 1.849.978 3 1-16.527 5.043-24.581 17.735-21 35-.63.244-7.802 10.332-9 8-5.059-19.76 6.265-40.639 27-44"/><path fill="#0976b3" d="M731 94c-3.42-5.739-16.66-12.451-23-10-3.581-17.265 4.473-29.957 21-35 34.096.666 36.278 41.59 2 45m-1.5-42c-12.945 1.863-17.226 18.922 0 21 22.264 2.686 16.213-23.333 0-21"/><path fill="#0e3f73" d="m264 50 1 1c-.108.028-.896.552-2 1-22.561 9.154-27.972 45.897 10 43 3.456-.264 4.891-.957 8-2-.273.388-2.843 8.241-3 9-9.832 2.951-28.507-1.183-33-11-6.905-15.085 4.026-35.38 19-41"/><path fill="#1679b0" d="M294 83c-1.269 2.02-10.921 7.049-13 10-3.109 1.043-4.544 1.736-8 2l-1-17c15.779-5.169 9.692-30.182-9-23v-3c1.104-.448 1.892-.972 2-1 18.676-4.906 39.522 15.252 29 32"/><path fill="#169dd3" d="M263 55c-14.669 5.637-9.571 29.084 9 23l1 17c-37.972 2.897-32.561-33.846-10-43z"/><path fill="#0cbef3" d="M729.5 52c16.213-2.333 22.264 23.686 0 21-17.226-2.078-12.945-19.137 0-21"/><path fill="#52dbfa" d="M272 78c-18.571 6.084-23.669-17.363-9-23 18.692-7.182 24.779 17.831 9 23"/><path fill="#115572" d="m311 92 71 76c-1.179.744-3.554 5.003-5 6l-62.5-69c-16.584-7.074-23.155-6.235-30.5 10-1.094 2.417-2.287 4.932-4 7-.264-1.265-1.827-3.833-2-5-.964-6.487-1.376-8.361 0-15 .157-.759 2.727-8.612 3-9 2.079-2.951 11.731-7.98 13-10 2.217 3.279 7.175 1.76 11.5 4 1.802.933 3.277 4.296 5.5 5"/><path fill="#135a76" d="M731 94c4.113 6.901 3.181 15.412 2 23-1.541 9.9-7.254 22.245-10 32l-4-2c4.396-15.757 17.707-47.595-11-46-5.096.283-8.05 2.08-12.5 4L629 177c-2.155-1.417-4.73-2.64-7-4l77-81c1.198 2.332 8.37-7.756 9-8 6.34-2.451 19.58 4.261 23 10"/><path fill="#091e48" d="M278 102c-1.376 6.639-.964 8.513 0 15-14.68.49-30.385-11.05-33-26 4.493 9.817 23.168 13.951 33 11"/><path fill="#f2f8fb" d="M377 174c-1.92 1.325-4.169 2.648-6 4l-63.5-72c-8.659-4.604-9.669-.446-13.5 6-3.207 5.396-4.838 3.309-4 12.5.891 9.761 25.157 88.254 30 98 .806 1.622 1.526 1.884 3 2.5-.803.979-2.458 6.03-3.5 6-13.561-37.77-28-76.295-35.5-116 7.345-16.235 13.916-17.074 30.5-10z"/><path fill="#fafcfe" d="m708 101-73 80c-1.871-1.335-4.06-2.724-6-4l66.5-72c4.45-1.92 7.404-3.717 12.5-4"/><path fill="#cce1ea" d="M719 147c-8.412 30.15-20.254 59.772-30 89.5-2.921 1.844-1.692-2.184-2-2.5l33-101.5c2.652-7.426 2.907-25.895-6.5-28.5-12.405-3.436-.909 9.257-2.5 14.5-16.604 28.456-29.653 59.23-48 86.5-7.643-7.848-19.083-17.642-28-24l73-80c28.707-1.595 15.396 30.243 11 46"/><path fill="#92b4c2" d="M371 178c-7.962 5.881-15.821 12.181-23 19l-54-85c3.831-6.446 4.841-10.604 13.5-6z"/><path fill="#81a4b2" d="M687 234c-8.507-8.743-15.161-19.925-24-29 18.347-27.27 31.396-58.044 48-86.5 1.591-5.243-9.905-17.936 2.5-14.5 9.407 2.605 9.152 21.074 6.5 28.5z"/><path fill="#ddeaf1" d="M348 197c-9.257 8.793-16.943 18.181-25 28-1.474-.616-2.194-.878-3-2.5-4.843-9.746-29.109-88.239-30-98-.838-9.191.793-7.104 4-12.5z"/><path fill="#164356" d="M323 225c8.057-9.819 15.743-19.207 25-28 7.179-6.819 15.038-13.119 23-19 1.831-1.352 4.08-2.675 6-4 1.446-.997 3.821-5.256 5-6 68.232-43.044 171.206-36.204 240 5 2.27 1.36 4.845 2.583 7 4 1.94 1.276 4.129 2.665 6 4 8.917 6.358 20.357 16.152 28 24 8.839 9.075 15.493 20.257 24 29 .308.316-.921 4.344 2 2.5 9.746-29.728 21.588-59.35 30-89.5l4 2c-9.072 32.227-19.179 64.179-31 95.5 2.789 2.814 6.591 14.1 9.5 15.5 1.144.551 10.4 1.098 13 2 3.838 1.332 25.858 8.15 27 9 1.795 1.336 18.761 35.079 20.5 39.5 7.316 18.598 19.101 65.192 12 83.5-1.601-2.469-1.755-2.027-4-3-3.029-1.313-17.595-6.96-12-12 16.327 14.19 13.063-9.426 12-21.5-1.825-20.726-11.915-43.186-21-61.5-3.797-7.654-4.839-14.435-11-20-.244-.221 1.108-2.136-2.5-4-2.811-1.453-11.74-2.851-15.5-4-6.469-1.978-12.757-4.813-19.5-6-3.626.977-5.781 16.241-6.5 20-6.355 33.229-5.146 87.059 6 119 4.293 12.303 10.262 23.735 23 29-2.28 1.916-5.193 2.943-7 5.5.524 2.041 3.389 4.44 4 5.5 1.32 2.291 4.783 4.325 5 6.5 1.495 15.005-34.323 43.315-46 51.5-41.784 29.291-84.1 44.169-135 48-34.096 2.566-68.967 1.302-103 2-8.868-1.113-20.82-7.103-29-8-25.662-9.39-50.811-20.455-74-35-2.558-1.604-5.545-3.347-8-5-11.423-7.694-49.252-35.274-46-50.5.209-.979 7.158-9.132 7-10-.544-2.988-42.401-27.444-50-34.5.444-3.361-7.054-5.772-4-8l55.5 36c6.86-9.2 10.134-20.154 13.5-31 14.158-45.617 13.181-97.223 2-143.5-1.106-1.715-1.893-1.325-3.5-1.5-1.833-.199-32.401 8.68-35.5 10-3.92 1.67-2.805.812-6 4 4.404-12.515 33.934-12.096 42.5-18 2.785-1.919 5.254-11.724 8.5-14.5-9.705-39.299-25.736-77.868-34-117.5 1.713-2.068 2.906-4.583 4-7 7.5 39.705 21.939 78.23 35.5 116 1.042.03 2.697-5.021 3.5-6m120 313c55.331 8.358 120.931 3.32 173-17 18.81-7.341 95.884-47.652 95-69.5-.079-1.949-17.518-27.211-20-33.5-16.587-42.034-12.675-105.142-7-149.5.186-1.456 4.033-8.509 4-9-.289-4.298-16.366-28.232-20-33-19.692-25.835-45.458-45.452-75-58.5-85.511-37.768-191.42-22.363-254 49.5-9.43 10.829-25.082 30.32-24 45 .173 2.348 3.627 9.581 4 13 4.675 42.878 6.728 98.523-6 140-2.214 7.213-18.178 36.86-18 39 .347 4.173 12.907 17.158 16.5 20.5 32.962 30.653 86.916 56.265 131.5 63"/><path fill="#fbfcfd" d="M593 168c-.674.698-2.152 2.575-3 2.5-5.156-.458-26.456-10.511-34.5-12.5-59.05-14.598-135.783.415-184 38-12.365 9.639-51.859 50.014-51.5 64.5.096 3.874 4.505 14.078 5 19 5.751 57.213 8.785 126.65-24 176 35.202 42.709 87.19 71.891 142 80.5v2c-44.584-6.735-98.538-32.347-131.5-63-3.593-3.342-16.153-16.327-16.5-20.5-.178-2.14 15.786-31.787 18-39 12.728-41.477 10.675-97.122 6-140-.373-3.419-3.827-10.652-4-13-1.082-14.68 14.57-34.171 24-45 62.58-71.863 168.489-87.268 254-49.5"/><path fill="url(#a)" d="M593 168c29.542 13.048 55.308 32.665 75 58.5 3.634 4.768 19.711 28.702 20 33 .033.491-3.814 7.544-4 9-5.675 44.358-9.587 107.466 7 149.5-3.201 6.239-6.914-20.168-10-13.5 5.159 16.655 13.415 31.887 25 45-21.2 36.082-62.563 56.778-100 72.5-57.959 13.954-101.684 23.631-163 14-54.81-8.609-106.798-37.791-142-80.5 32.785-49.35 29.751-118.787 24-176-.495-4.922-4.904-15.126-5-19-.359-14.486 39.135-54.861 51.5-64.5 48.217-37.585 124.95-52.598 184-38 8.044 1.989 29.344 12.042 34.5 12.5.848.075 2.326-1.802 3-2.5m-106 21c-138.329 4.326-183.248 209.931-75.5 270 3.3 1.84 7.379 4.948 10.5 1 103.912 67.504 241.44-12.682 225-137.5-6.842-51.947-50.877-105.024-100-122.5 3.983-1.435 8.627 1.462 12 3 24.594 11.213 46.96 26.185 64.5 47-3.872-9.291-12.909-16.77-20.5-23-25.557-32.15-75.645-44.128-116-38m-103.5 8c-16.105 2.574-51.977 41.136-53.5 57.5-.914 9.821 1.597 25.721 14.5 23.5 7.196-1.239 58.071-61.588 58.5-69.5.594-10.966-10.737-12.9-19.5-11.5m266 90c31.759 106.763-32.587 202.983-145 207-64.082 2.29-117.111-31.322-144.5-88.5-3.066-3.609-1.215 2.397-1 3 1.981 5.544 7.34 11.068 9 17 46.882 75.226 139.697 100.087 216.5 52.5 65.218-40.41 95.405-118.486 65-191" style="fill:url(#a)"/>/&gt;<path fill="#d4e1e7" d="M603 227c-12.532-10.286-28.132-19.961-44-24-3.373-1.538-8.017-4.435-12-3-11.355-4.04-24.944-7.183-37-8l-23-3c40.355-6.128 90.443 5.85 116 38"/><path fill="#edf6f9" d="m487 189 23 3c-143.834-9.752-210.19 188.622-88 268-3.121 3.948-7.2.84-10.5-1-107.748-60.069-62.829-265.674 75.5-270"/><path fill="#186277" d="M510 192c12.056.817 25.645 3.96 37 8 49.123 17.476 93.158 70.553 100 122.5C663.44 447.318 525.912 527.504 422 460c-122.19-79.378-55.834-277.752 88-268M386 403c54.826 101.475 210.867 87.986 245-22 14.192-45.732 2.477-90.634-27-127-102.524-126.482-294.052 8.237-218 149"/><path fill="#f6f9fc" d="M383.5 197c8.763-1.4 20.094.534 19.5 11.5-.429 7.912-51.304 68.261-58.5 69.5-12.903 2.221-15.414-13.679-14.5-23.5 1.523-16.364 37.395-54.926 53.5-57.5"/><path fill="#2c5d76" d="M603 227c7.591 6.23 16.628 13.709 20.5 23-17.54-20.815-39.906-35.787-64.5-47 15.868 4.039 31.468 13.714 44 24"/><path fill="#008cb5" d="M604 254c-.747.142-1.315.657-2 1-38.288-45.103-105.878-55.694-157-26-7.077-.198-12.887 6.335-18 10-3.927 2.815-15.407 9.811-15 16-7.277 2.963-17.722 17.986-18 26-4.482.211-8.57 12.462-10 16.5-9.132 25.787-11.141 59.315-3 85.5 1.423 4.578 5.639 13.785 8 18l-3 2c-76.052-140.763 115.476-275.482 218-149"/><path fill="#01a1c6" d="M602 255c-13.871 6.942-42.162-3.887-46 23-23.952-18.421-57.507-24.113-85-10l-18-17c6.78-8.564 4.141-21.661-8-22 51.122-29.694 118.712-19.103 157 26"/><path fill="#fcfeff" d="M453 251c-10.477 13.235-37.262 7.966-26-12 5.113-3.665 10.923-10.198 18-10 12.141.339 14.78 13.436 8 22"/><path fill="#26c0f0" d="M427 239c-11.262 19.966 15.523 25.235 26 12l18 17c-66.377 34.074-54.698 146.153 29 150l-16 32c-38.63-8.973-79.311-35.357-103-67-8.141-26.185-6.132-59.713 3-85.5 1.43-4.038 5.518-16.289 10-16.5-.04 1.144-.22 5.135 0 5.5 3.414 5.652 31.327-26.12 22.5-33.5-.735-.289-3.374 1.541-4.5 2-.407-6.189 11.073-13.185 15-16"/><path fill="#f9fefe" d="M394 281c.278-8.014 10.723-23.037 18-26 1.126-.459 3.765-2.289 4.5-2 8.827 7.38-19.086 39.152-22.5 33.5-.22-.365-.04-4.356 0-5.5"/><path fill="#0078a3" d="M631 381c-3.893-5.263-8.021-3.996-14-4 9.257-22.453 1.586-51.772-7-73.5-7.755 3.671-18.772 4.88-28 6.5-.275-1.464 1.686-7.877 1-11.5-1.953-10.313-13.997-17.403-24-17.5-.336-1.575-1.911-2.163-3-3 3.838-26.887 32.129-16.058 46-23 .685-.343 1.253-.858 2-1 29.477 36.366 41.192 81.268 27 127"/><path fill="url(#b)" d="M306 403c-8.257.131-46.994-24.134-50-24 16.828-34.187 24.462-73.872 13-111 3.099-1.32 33.667-10.199 35.5-10 1.607.175 2.394-.215 3.5 1.5 11.181 46.277 12.158 97.883-2 143.5m-8.5-136c-1.89.089-19.948 5.267-20.5 6.5-1.394 3.114 4.98 18.228 5.5 22.5 2.491-5.052 23.911-10.27 24.5-11.5 2.314-4.833-1.094-17.898-9.5-17.5" style="fill:url(#b)"/>/&gt;<path fill="url(#c)" d="M556 278c1.089.837 2.664 1.425 3 3-10.015-.097-22.022 6.964-29 14-6.574 6.629-6.403 11.696-8.5 14-.336.37-7.773-.663-10 0-23.117 6.883-39.463 28.596-33.5 53.5 6.992 29.199 43.93 16.513 55-3 4.836-8.524 3.947-17.15 8-25.5 17.338 3.206 34.08-7.463 41-23 5.739 30.045 11.857 51.487-11 78-5.832 6.765-20.813 17.42-29 21-12.036 5.264-28.892 8.602-42 8-83.698-3.847-95.377-115.926-29-150 27.493-14.113 61.048-8.421 85 10m-77.5 104c-6.649.789-10.381 14.091-3 18 12.817 6.788 16.05-19.549 3-18" style="fill:url(#c)"/>/&gt;<path fill="#d2e4ed" d="m720 268-2 4c-11.466-2.957-16.631-2.554-21 10h-3c.719-3.759 2.874-19.023 6.5-20 6.743 1.187 13.031 4.022 19.5 6"/><path fill="#fcfdfe" d="M297.5 267c8.406-.398 11.814 12.667 9.5 17.5-.589 1.23-22.009 6.448-24.5 11.5-.52-4.272-6.894-19.386-5.5-22.5.552-1.233 18.61-6.411 20.5-6.5"/><path fill="#1a647e" d="M269 268c11.462 37.128 3.828 76.813-13 111-.333.015-.667-.011-1 0l-2-2c12.458-16.904 22.469-77.887 16-96.5-.498-1.432-1.293-3.44-2.5-4.5-2.43-.577-16.059 31.091-12 29l6-10c4.851 1.243.553 37.733-.5 43.5-.93 5.094-10.011 37.232-15.5 36.5-6.387-18.528-.353-41.461 6.5-59.5-3.031-1.766-3.033.948-4 3-2.002 4.247-4.852 16.4-6 21.5-6.593 2.411-.003-4.109-3-7 3.272-13.576 15.657-51.678 25-61 3.195-3.188 2.08-2.33 6-4m-10.5 35c-9.539 19.795-16.954 41.535-14 64 6.99-3.981 20.617-63.734 14-64m-6 2-2 9c1.335.803 3.997-7.758 2-9"/><path fill="url(#d)" d="M738 276c-6.455 14.539-5.835 33.478-4 49 1.92 16.248 7.637 36.588 18 49.5L700 401c-11.146-31.941-12.355-85.771-6-119h3c-.338.971-1.951 6.478-1.5 7 11.695 1.406 20.657 3.333 29 12 3.693-15.462 13.24-23.909-6.5-29l2-4c3.76 1.149 12.689 2.547 15.5 4 3.608 1.864 2.256 3.779 2.5 4" style="fill:url(#d)"/>/&gt;<path fill="#fdfefe" d="M718 272c19.74 5.091 10.193 13.538 6.5 29-8.343-8.667-17.305-10.594-29-12-.451-.522 1.162-6.029 1.5-7 4.369-12.554 9.534-12.957 21-10"/><path fill="#b1d4df" d="M253 377c-1.618 2.196-12.95 15.37-16 8.5-2.846-6.412 2.132-37.202 4-45.5 1.148-5.1 3.998-17.253 6-21.5.967-2.052.969-4.766 4-3-6.853 18.039-12.887 40.972-6.5 59.5 5.489.732 14.57-31.406 15.5-36.5 1.053-5.767 5.351-42.257.5-43.5l-6 10c-4.059 2.091 9.57-29.577 12-29 1.207 1.06 2.002 3.068 2.5 4.5 6.469 18.613-3.542 79.596-16 96.5"/><path fill="#b4d7e3" d="M749 296c.646 2.708-1.732 1.744-2 2-8.4 8.014 2.861 65.687 13 73l-6 2c-10.563-13.862-16.979-31.978-16-49.5l-4 1.5c-1.835-15.522-2.455-34.461 4-49 6.161 5.565 7.203 12.346 11 20"/><path fill="#fefefe" d="M559 281c10.003.097 22.047 7.187 24 17.5.686 3.623-1.275 10.036-1 11.5.06.322-.061.678 0 1-6.92 15.537-23.662 26.206-41 23-18.104-3.348-21.554-26.063-11-39 6.978-7.036 18.985-14.097 29-14"/><path fill="#4f6f7c" d="M649.5 287c30.405 72.514.218 150.59-65 191-76.803 47.587-169.618 22.726-216.5-52.5-1.66-5.932-7.019-11.456-9-17-.215-.603-2.066-6.609 1-3 27.389 57.178 80.418 90.79 144.5 88.5 112.413-4.017 176.759-100.237 145-207"/><path fill="#0b214b" d="M530 295c-10.554 12.937-7.104 35.652 11 39-4.053 8.35-3.164 16.976-8 25.5-11.07 19.513-48.008 32.199-55 3-5.963-24.904 10.383-46.617 33.5-53.5 2.227-.663 9.664.37 10 0 2.097-2.304 1.926-7.371 8.5-14"/><path fill="#4ea0b7" d="M758 379c-1.762-1.531-2.77-4.386-4-6l6-2c1.56 1.125 2.453 2.823 4 .5v-28c-4.406 3.367.823 15.188-1 21-4.171 8.085-14.596-37.835-15-40.5 3.184-3.715 5.187-.721 8 1.5-.362-5.016-2.774-12.121-5-16.5 1.865-3.974-1.624-7.632-4-11 .268-.256 2.646.708 2-2 9.085 18.314 19.175 40.774 21 61.5 1.063 12.074 4.327 35.69-12 21.5m-.5-56 5 18c.769-6.516-2.512-12.363-5-18"/><path fill="#176f8d" d="M751 309c-.981-1.93-2.299-4.151-3.5-6-2.443.651.006 17.741.5 21 .404 2.665 10.829 48.585 15 40.5 1.823-5.812-3.406-17.633 1-21v28c-1.547 2.323-2.44.625-4-.5-10.139-7.313-21.4-64.986-13-73 2.376 3.368 5.865 7.026 4 11"/><path fill="#83d4e6" d="M258.5 303c6.617.266-7.01 60.019-14 64-2.954-22.465 4.461-44.205 14-64"/><path fill="#015580" d="M617 377c-.617 1.495-.739 4.942-1 5.5-.534 1.14-3.472-.14-4 1-3.714 8.024-6.26 16.404-11 24-2.995 4.8-7.232 7.851-10 11.5-4.593-10.444-11.93-21.957-20-30 22.857-26.513 16.739-47.955 11-78-.061-.322.06-.678 0-1 9.228-1.62 20.245-2.829 28-6.5 8.586 21.728 16.257 51.047 7 73.5"/><path fill="#bce7f1" d="M751 309c2.226 4.379 4.638 11.484 5 16.5-2.813-2.221-4.816-5.215-8-1.5-.494-3.259-2.943-20.349-.5-21 1.201 1.849 2.519 4.07 3.5 6"/><path fill="#7cc3d5" d="M252.5 305c1.997 1.242-.665 9.803-2 9z"/><path fill="#2c5f71" d="M754 373c1.23 1.614 2.238 4.469 4 6-5.595 5.04 8.971 10.687 12 12-11.592 17.065-31.634 26.086-47 39-12.738-5.265-18.707-16.697-23-29l52-26.5c-10.363-12.912-16.08-33.252-18-49.5l4-1.5c-.979 17.522 5.437 35.638 16 49.5"/><path fill="#215d7e" d="M757.5 323c2.488 5.637 5.769 11.484 5 18z"/><path fill="#1c5467" d="M241 340c-1.868 8.298-6.846 39.088-4 45.5 3.05 6.87 14.382-6.304 16-8.5l2 2c-3.084 9.832-11.3 12.669-18 19-3.054 2.228 4.444 4.639 4 8-5.528-5.132-7.572-2.963-9-12.5-2.749-18.364 1.672-42.542 6-60.5 2.997 2.891-3.593 9.411 3 7"/><path fill="#01a1c6" d="M631 381c-34.133 109.986-190.174 123.475-245 22l3-2c32.63 58.242 104.438 78.885 165 53 6.96-2.975 23.761-8.069 23-17 7.851-5.617 8.536-10.389 13-16 .243-.306.749-1.67 1-2 2.768-3.649 7.005-6.7 10-11.5 4.74-7.596 7.286-15.976 11-24 .528-1.14 3.466.14 4-1 .261-.558.383-4.005 1-5.5 5.979.004 10.107-1.263 14 4"/><path fill="#386979" d="M306 403c-3.366 10.846-6.64 21.8-13.5 31L237 398c6.7-6.331 14.916-9.168 18-19 .333-.011.667.015 1 0 3.006-.134 41.743 24.131 50 24"/><path fill="#91d6ea" d="M484 450c17.918 4.162 36.102 5.955 54 1 3.595 2.205 10.194-.647 14-2l2 5c-60.562 25.885-132.37 5.242-165-53-2.361-4.215-6.577-13.422-8-18 23.689 31.643 64.37 58.027 103 67"/><path fill="#fdfdfe" d="M478.5 382c13.05-1.549 9.817 24.788-3 18-7.381-3.909-3.649-17.211 3-18"/><path fill="#0078a3" d="M591 419c-.251.33-.757 1.694-1 2-11.562 8.251-23.071 16.887-36 23l-12-34c8.187-3.58 23.168-14.235 29-21 8.07 8.043 15.407 19.556 20 30"/><path fill="#3d6e7f" d="M774 394c-4.56 11.758-43.98 36.692-54 47-.611-1.06-3.476-3.459-4-5.5 1.807-2.557 4.72-3.584 7-5.5 15.366-12.914 35.408-21.935 47-39 2.245.973 2.399.531 4 3"/><path fill="#798c95" d="M691 418c2.482 6.289 19.921 31.551 20 33.5.884 21.848-76.19 62.159-95 69.5-1.971.3-8.834.719-10 1 37.437-15.722 78.8-36.418 100-72.5-11.585-13.113-19.841-28.345-25-45 3.086-6.668 6.799 19.739 10 13.5"/><path fill="#01a1c6" d="m542 410 12 34c-4.255 2.012-11.836 5.847-16 7-17.898 4.955-36.082 3.162-54-1l16-32c13.108.602 29.964-2.736 42-8"/><path fill="#1ca1ad" d="M577 437c-4.972 3.558-18.953 9.851-25 12-3.806 1.353-10.405 4.205-14 2 4.164-1.153 11.745-4.988 16-7 12.929-6.113 24.438-14.749 36-23-4.464 5.611-5.149 10.383-13 16"/><path fill="#2fc3cb" d="M577 437c.761 8.931-16.04 14.025-23 17l-2-5c6.047-2.149 20.028-8.442 25-12"/><path fill="url(#e)" d="M915 597c-1.145-.126-6.206.156-9 0l-3.5-48c-49.847-.19-99.662-.733-149.5-1-67.487-.362-137.508 2.836-204.5 1-1.945-.053-3.755.517-4.5-2 50.9-3.831 93.216-18.709 135-48 21.942 7.649 41.816 21.241 54.5 41l174 1c7.214 2.758 6.643 47.803 7.5 56m-224-71c-.07 1.182-16.898 13.702-11.5 15 4.697-1.965 9.426.513 14 0 .358-.04 5.641-3.97 6-4 2.885-.239 11.39 6.609 18 3 3.022-1.574-12.254-15.504-14.5-16 5.763-6.268-11.095-6.64-14.5-6-5.859 1.102-18.801 14.001-20.5 19.5-3.735 12.087 15.782-9.68 17.5-10.5 2.24-1.069 3.996-.568 5.5-1" style="fill:url(#e)"/>/&gt;<path fill="#0f7795" d="M330 501c2.455 1.653 5.442 3.396 8 5-5.776 1.208-11.655 5.275-17 7-8.429 2.72-12.497 1.58-22 7-9.122 5.203-16.016 12.3-20 22-7.048 1.093-5.654-.152-10 0 10.043-24.042 36.245-37.179 61-41"/><path fill="#2299b5" d="M338 506c23.189 14.545 48.338 25.61 74 35-10.881-1.193-27.832 1.197-40 1-1.37-.022-2.66.021-4 0-11.923-6.052-24.963-10.208-36-18-4.236-2.99-8.493-6.269-11-11 5.345-1.725 11.224-5.792 17-7"/><path fill="#a2e2f0" d="M321 513c2.507 4.731 6.764 8.01 11 11 1.611 6.73 9.417 10.74 9 18-3.741-.154-7.302-.638-11-1-4.844-7.625-11.917-13.035-20-17-3.419-1.677-4.626-3.85-11-4 9.503-5.42 13.571-4.28 22-7"/><path fill="#31a5bf" d="M703 524c-3.94-.87-8.305.939-12 2-1.504.432-3.26-.069-5.5 1-1.718.82-21.235 22.587-17.5 10.5 1.699-5.499 14.641-18.398 20.5-19.5 3.405-.64 20.263-.268 14.5 6"/><path fill="#e0f7fb" d="M310 524c-9.754.23-17.329 13.977-22 17-4.198 2.717-4.867.359-9 1 3.984-9.7 10.878-16.797 20-22 6.374.15 7.581 2.323 11 4"/><path fill="#9fb9bf" d="M616 521c-52.069 20.32-117.669 25.358-173 17v-2c61.316 9.631 105.041-.046 163-14 1.166-.281 8.029-.7 10-1"/><path fill="#162b42" d="M330 541c-.606-.059-5.652 1.62-8.5 1-.598-.13-5.06-7.606-10.5-3-4.52-3.088-9.846-1.664-13 3-2.43.046-7.058 2.097-10-1 4.671-3.023 12.246-16.77 22-17 8.083 3.965 15.156 9.375 20 17"/><path fill="#72d0e5" d="M368 542c-8.963-.141-18.053.368-27 0 .417-7.26-7.389-11.27-9-18 11.037 7.792 24.077 11.948 36 18"/><path fill="#152b44" d="M703 524c2.246.496 17.522 14.426 14.5 16-6.61 3.609-15.115-3.239-18-3-.359.03-5.642 3.96-6 4-4.574.513-9.303-1.965-14 0-5.398-1.298 11.43-13.818 11.5-15 3.695-1.061 8.06-2.87 12-2"/><path fill="#f5f9f9" d="M311 539c.749.511 3.27 1.965 2.5 3-5.164.071-10.348-.098-15.5 0 3.154-4.664 8.48-6.088 13-3"/><path fill="#0e93af" d="M330 541c3.698.362 7.259.846 11 1 8.947.368 18.037-.141 27 0 1.34.021 2.63-.022 4 0l18 8c-95.828 1.603-191.755.474-287.5 5l-1.5 42c-2.61.299-5.425.543-8 1 2.175-11.481-2.9-36.723 0-46.5.09-.305 4.19-4.368 4.5-4.5 2.835-1.209 43.176-2.749 50-3 40.344-1.482 81.05-.585 121.5-2 4.346-.152 2.952 1.093 10 0 4.133-.641 4.802 1.717 9-1 2.942 3.097 7.57 1.046 10 1 5.152-.098 10.336.071 15.5 0 .77-1.035-1.751-2.489-2.5-3 5.44-4.606 9.902 2.87 10.5 3 2.848.62 7.894-1.059 8.5-1"/><path fill="#0b799c" d="M412 541c8.18.897 20.132 6.887 29 8-16.983.348-34.04.716-51 1l-18-8c12.168.197 29.119-2.193 40-1"/><path fill="#caf3fb" d="M544 547c.745 2.517 2.555 1.947 4.5 2 66.992 1.836 137.013-1.362 204.5-1-.146 7.594-1.495 7.449 6 9-136.949.013-274.05 3.406-411 5l-130 1c-33.82.315-67.643 1.589-101.5 1l-1.5 32c-3.993.029-9.948.535-14 1l1.5-42c95.745-4.526 191.672-3.397 287.5-5 16.96-.284 34.017-.652 51-1 34.033-.698 68.904.566 103-2"/><path fill="#66dceb" d="M906 597c-3.08-.172-7.714-.976-10-1l-1.5-38c-45.151-.256-90.345-1.004-135.5-1-7.495-1.551-6.146-1.406-6-9 49.838.267 99.653.81 149.5 1z"/><path fill="url(#f)" d="M896 596c-31.79-.329-71.155 18.852-89 45-7.202 10.553-17.097 18.965-1.5 30 5.184 3.667 17.873 4.747 18.5 5.5.468.562-2.143 11.059-2 14.5.081 1.946-.246 4.109 0 6-59.663 122.014-209.361 145.969-331.5 158-116.64 11.489-234.445 13.141-351.5 19l-10-67c20.449-9.794 33.663-14.183 49-32.5 21.444-25.611 12.38-31.566 14-61 .863-15.681 8.397-20.517 1-38.5-.615-1.496-.879-3.833-1-4 6.045 1.096 29.396-7.406 31-12.5 2.999-9.527-9.783-14.618-14-19.5-.849-.983-1.155-3.102-2-4 32.015-12.327 62.666-27.747 95.5-38 29.216-9.123 59.809-13.853 89-23-81.292-6.087-163.459-2.589-245-1-8.794 1.94-11.295 16.754-10.5 24-6.044-1.17-14.735-1.045-21-1l1.5-32c33.857.589 67.68-.685 101.5-1 43.324-.403 86.691-.496 130-1 136.95-1.594 274.051-4.987 411-5 45.155-.004 90.349.744 135.5 1z" style="fill:url(#f)"/>/&gt;<path fill="#edfafe" d="M348 562c-43.309.504-86.676.597-130 1z"/><path fill="#d9f4fb" d="M207 635c-14.585-15.502-29.383-27.198-50.5-33-2.704-.743-17.932-4.503-20.5-5-.795-7.246 1.706-22.06 10.5-24 81.541-1.589 163.708-5.087 245 1-29.191 9.147-59.784 13.877-89 23-32.834 10.253-63.485 25.673-95.5 38"/><path fill="#1d2736" d="M136 597c2.568.497 17.796 4.257 20.5 5 21.117 5.802 35.915 17.498 50.5 33 .845.898 1.151 3.017 2 4 1.378 10.453-14.26 14.554-22.5 15-21.428 1.159-37.966-14.176-63.5-11-2.949.367-15.134 1.452-16 4.5-1.333 4.695 11.176 3.996 15 4.5 15.443 2.037 61.08 6.7 70 19 .121.167.385 2.504 1 4-4.716 22.266-35.498 32.41-56 32.5l5.5 2.5c18.61 5.592 49.677-18.789 43.5 15.5-1.236 6.861-11.856 14.993-12 16-.218 1.525 2.648 3.758 2 7-5.232 26.193-31.126 39.218-56 39.5-1.547.018-8.34.069-9 0-44.656-4.67-61.706-44.856-65-85.5-1.551-19.142 5.044-27.108 6-40 .293-3.955-2.61-10.469-2-17 2.086-22.326 21.203-43.632 43-47.5 2.575-.457 5.39-.701 8-1 4.052-.465 10.007-.971 14-1 6.265-.045 14.956-.17 21 1m-47 6c-1.917.536-4.494-1.061-6 1.5-.924 2.855 3.144 3.11 4 4.5 1.934 3.143 5.75 8.88 7 12 1.815 4.531 1.954 9.669 3 14 .225.933.683 1.542 1 3 .454 2.085-1.116 6.841 1.5 8 10.701-5.342 22.158-7.146 34-8-1.223-6.392.895-12.805.5-19l7-11.5c-3.13-.563-6.733-3.503-9-4.5-11.021-4.848-30.498-3.496-43 0m51 36c2.152 1.697 9.516 3.587 11 1.5.997-1.403-5.939-26.902 5-32.5l.5-2c-14.33-2.651-25.868 25.614-16.5 33m-62-19c-2.651-1.325-4.518-4.923-8.5-4-8.49 1.967-22.38 37.841-10.5 46 .675 1.926-.564 2.288-1 3-2.752-.488-2.85.514-4 2.5-13.426 23.183 4.105 91.315 27.5 107.5L78 754c3.432-.384.922-1.674 3-3 3.59-2.292 5.52-4.868 9-6.5-6.18 7.535-11.3 18.814-1.5 25.5 3.317-2.684-3.42-19.005 9.5-24l16 2.5c-3.51-1.692-11.341-4.039-15-3.5-.45-4.523-3.825-4.165-8-3l2-4c4.05 3.067 43.021 10.938 46.5 9-1.117-6.711-2.874-14.759-5.5-21-1.187-2.821-7.395-14.977-9.5-16-1.316-.64-26.343-3.96-29-4-18.952-.288-14.911 5.371-9.5 19 1.203 3.031 2.012 5.342 4 8-11.168-1.107-8.12-14.433-13-22.5-1.377-1.174-14.29 6.158-15 9-1.855 7.422 6.125 17.395 6 24.5-8.121-12.817-4.789-16.39-8-28-.32-1.158-.889-2.567-1-3-.43-1.675-2.541-2.314-3-4 2.727-2.337 3.104 2.075 3.5 2 1.124-.213 14.614-11.986 17.5-13.5-6.806-8.941-16.687-20.899-10-32-.858-.317-1.863-2.417-2-2.5 13.292-8.594 18.504-28.416 13-43 2.32 1.159 1.651-2.602 3-1.5 2.855 2.333 5.65 28.165 0 31 23.193 6.877 9.188-35.597.5-39.5-3.665-1.646-5.288-.169-8 0-.686.043-.354-2.185-1-2-1.786.51-7.793 8.663-9.5 10.5 6.337-3.237 11.445-7.919 15 1.5m76 13c.156 1.777.929 9.261 1.5 10 3.85 4.985 31.198 7.582 38 6 21.421-4.981 8.336-16.214-1.5-24-5.685-4.501-18.267-12.861-25-15-.757-.24-2.316-2.711-4.5-2-6.503 2.119-9.033 18.918-8.5 25m-58.5 17L85 653.5l15.5-1.5zM70 665c-1.34 7.244-.71 12.146 2 19 8.58 21.7 32.54 14.423 51.5 20 2.348-1.95-5.146-20.437-6.5-24-1.662-4.371-10.414-24.301-13-25l-34.5 6c-1.837 1.782.537 3.802.5 4m57-7c2.982 9.687 7.205 19.367 10 29a125 125 0 0 1 2 8c.501 2.361-.355 5.917 0 8.5 3.116 4.399 60.197-13.138 47-32.5-4.64-6.807-49.404-14.188-59-15-3.014-.255-16.727-2.156-18-.5l19.5 49.5c2.036-1.39 6.518-.249 7.5-2.5 3.627-8.315-14.493-35.618-9-44.5m-58 50c-2.996 1.239-6.29 2.399-8 5.5 3.17 1.213 6.218-4.366 8-5.5 6.213-2.569 15.368-3.649 22-5.5-8.124-2.057-15.268 1.216-22 5.5m79 21c.485 3.138.731 5.83 1 9 .261 3.08-.455 5.986-.5 9 15.164-.294 42.179-16.721 32.5-34-3.662-6.537-13.613-.014-21.5 1-5.043.648-10.029-.659-15-1-2.009.694 3.088 13.338 3.5 16m-18.5-18c3.537 7.404 7.388 14.885 10.5 22.5 1.058 2.589.766 13.055 5.5 9.5 3.258-2.446-2.498-37.362-16-32m6.5 46c-.465 1.722.26 4.905 0 7-.348 2.802-.795 6.243-1 9-.127 1.701-2.182 9.713-.5 10 9.682-2.681 15.942-5.753 23.5-12 3.964-3.277 5.262-4.569 8-9 19.334-31.283-13.244-6.692-28.5-8-1.618 1.018-1.17 1.778-1.5 3m-20.5-9c.273 3.754 9.292 2.383 11.5 2.5zM94 766c-.141 1.897-2.435 12.85-2 13.5 1.921.914 5.109.903 7 1.5 7.638 2.412 15.529 2.944 23.5 3 1.302-.928-.346-11.721-.5-14-.167-2.472-.885-14.284-2.5-15-21.51 2.118-23.466-16.33-25.5 11m30.5-11c-1.323.595 1.789 25.011 1 29 10.071-4.596 5.683-19.288 8.5-28.5-.404-.61-8.714-.854-9.5-.5"/><path fill="#1c2635" d="M896 596c2.286.024 6.92.828 10 1 2.794.156 7.855-.126 9 0 30.271 3.34 52.558 16.705 57 49.5 5.108 37.715 6.874 72.348-9 109-12.082 27.898-22.293 33.025-52 34.5-26.884 1.335-59.582-9.148-63-39.5-.034-.305 2.035-1.696 2-2-.08-.69-9.562-6.623-11-8.5-7.422-9.686-7.83-23.44 2-30 15.358 3.509 30.832 5.595 46-.5a93.3 93.3 0 0 1-21-1.5c-7.568-1.42-17.8-4.316-24.5-8-3.97-2.182-11.155-10.13-13.5-11-9.584-22.289 18.485-22.836 33-27 8.736-2.506 17.621-6.03 26.5-8 6.098-1.353 21.042 1.236 19.5-6.5-.849-2.763-23.551-6.379-26.5-5.5-.339.101-2.949 4.383-5 5-5.043 1.518-10.382 2.528-15.5 4-16.748 4.818-47.33 13.136-53-10 17.845-26.148 57.21-45.329 89-45m-13 22c.159 1.94 1.395 2.955 1 5l-.5 16c12.882.77 25.745 2.235 37 9 2.357-.659 3.908-20.554 5.5-26 1.181-4.04 4.214-9.804 6-14 .397-.934 4.172-1.275 2-4.5-2.48-1.566-5.348-1.073-8-1.5-10.259-1.652-33.913-3.09-44-2-3.274.354-9.457-.263-9 4.5zm-24-9c9.798 11.11 7.377 21.915 9 35.5 5.964.763 8.131-2.818 10-7.5 5.613-14.06-3.403-29.611-18.5-30zm78.5-2c-5.766 1.922-12.42 34.068-10.5 40.5.157.526 8.953 5.548 9.5 5.5 4.42-.392-1.22-8.118-1.5-10.5-1.14-9.703-1.491-18.235 5.5-25.5 1.981-2.059 12.351-4.06 5-8-.363-.195-7.609-2.13-8-2M813 638c-9.78 21.87 46.993 14.66 50 6.5.459-1.245.068-9.291 0-11.5-.148-4.805-4.355-22.252-9.5-23-4.021-.585-37.544 21.389-40.5 28m127 0c1.567 13.248 2.435 14.311 13 21 .797.505.637 3.191 3 4-.38 17.331-1.983 26.491-14 38.5.013 3.038 15.356 3.419 11 9.5-3.921-2.369-8.41-3.933-12.5-6l-9.5-.5c1.171 2.247 5.086 1.575 8 2.5-.089.945-1.093 1.872-2 2-6.787.961-15.496-.762-22.5 0-16.828 1.832-20.415 2.325-27.5 18-3.388 7.495-6.249 16.92-5.5 25 3.692 2.615 36.281-8.604 44.5-8 1.347.099 3.981 2.335 5 3l11 15.5-4.5 19.5c25.441-12.381 44.374-93.852 31.5-113.5-1.169-1.783-3.444-3.014-5.5-3.5-.043 2.086 2.63 2.982 3.5 5-4.053.567-6.143-3.727-6-7 16.145-4.066-.198-56.286-16.5-44-6.971 5.253-5.353 11.785-4.5 19m-19.5 13c-7.334 1.636 13.44 7.201 15.5 4.5-2.946-.448-13.548-4.936-15.5-4.5m-34.5 8c-6.39 1.158-48.919 11.992-52 14-22.106 14.402 32.805 36.943 44.5 31-.441-2.673-1.849-3.834-1.5-7 .442-4.004 2.119-10.641 3-15 1.446-7.156 4.844-14.636 6-22 2.191 3.62.494 7.348 0 11-.745 5.506-2.116 10.583-3 16-1.552 9.513-6.71 17.726 8 16.5.237-5.181 2.231-9.762 4-14.5 1.452-3.889 2.615-8.061 4-12 2.311-6.572 5.986-12.776 8-19.5-.99-2.927-17.652.893-21 1.5m16 22c-2.536 7.621-8.016 15.365-6.5 24 2.127 1.596 39.163-7.794 45-4 4.426-4.444 6.585-9.081 8.5-15 1.602-4.953 6.205-18.729.5-22-1.746-1.001-37.915-7.741-39.5-6.5-2.93 7.766-5.383 15.636-8 23.5m-62 35c-2.18 2.584-2.851 3.407-3 7-.752 18.086 19.731 26.267 34.5 29 2.297-.398-1.506-9.289-1.5-10 .026-2.931.627-7.954 1-11 .225-1.833 5.86-14.366 3.5-15-5.834 1.429-14.051 1.515-20 1-6.437-.557-9.488-6.941-14.5-1m47.5-2c-14.29-.864-15.691 32.302-11 32 1.672-.108 8.488-27.892 13.5-30.5.233-2.053-1.119-1.417-2.5-1.5m31 35-19.5 4.5c5.306-.151 16.78.262 19.5-4.5m8 0c-1.622 4.785 3.684 7.467 4.5 11.5.423 2.09-1.152 16.563 1.5 16.5 6.178-7.832 5.805-21.017-2-26-.625-.399-1.133 4.786-4-2m-74.5 4c-1.099 2.157.288 4.026 1 6 3.629 10.066 23.528 27.29 34 24.5-2.586-3.301-4.059-10.72-4-14.5.004-.255.822-4.224 1-5 .33-1.439-.571-2.805 1.5-4l2.5 3.5.5-5.5-34-7c-3.404-.394-1.939.898-2.5 2m48 15c-.02 2.571 1.139 18.327 2.5 19 6.051-1.858 14.011.039 19.5-1 1.329-.252 5.456-1.365 6-2.5-.751-4.52-.823-8.939-1-13.5-.013-.332.026-.67 0-1-.43-5.38.711-11.538-3.5-16-3.787 4.425-21.235 3.747-23 5-.957.68-.487 8.327-.5 10m-7.5-11c-1.885.003-2.517 8.778 0 10 2.168-.004 2.162-10.004 0-10m-6 8c-1.492 4.388.28 8.68 1 13 1.231-2.72 1.402-10.94-1-13"/><path fill="#f9fbfb" d="M132 603c-2.131 4.962 1.623 9.549 2 15l-40 3c-1.25-3.12-5.066-8.857-7-12l2-6c12.502-3.496 31.979-4.848 43 0"/><path fill="#2498b2" d="M882 600c.777 5.906.52 12.154 1 18l-10-13.5c-.457-4.763 5.726-4.146 9-4.5"/><path fill="#f4f8f9" d="m926 602 6 6c-1.786 4.196-4.819 9.96-6 14l-42 1c.395-2.045-.841-3.06-1-5-.48-5.846-.223-12.094-1-18 10.087-1.09 33.741.348 44 2"/><path fill="#3d8fa4" d="m932 608-6-6c2.652.427 5.52-.066 8 1.5 2.172 3.225-1.603 3.566-2 4.5"/><path fill="#317993" d="m89 603-2 6c-.856-1.39-4.924-1.645-4-4.5 1.506-2.561 4.083-.964 6-1.5"/><path fill="#48b0c6" d="M134 619c-.021-.332.023-.668 0-1-.377-5.451-4.131-10.038-2-15 2.267.997 5.87 3.937 9 4.5z"/><path fill="#72c7db" d="M156 608c-14.222.411-14.873 19.96-16 31-9.368-7.386 2.17-35.651 16.5-33z"/><path fill="#2591b0" d="M156 608c-10.939 5.598-4.003 31.097-5 32.5-1.484 2.087-8.848.197-11-1.5 1.127-11.04 1.778-30.589 16-31"/><path fill="#71c8da" d="M878 637c.165-11.236-6.173-27.894-19-28l.5-2c15.097.389 24.113 15.94 18.5 30"/><path fill="#123846" d="M937.5 607c.391-.13 7.637 1.805 8 2 7.351 3.94-3.019 5.941-5 8-6.991 7.265-6.64 15.797-5.5 25.5.28 2.382 5.92 10.108 1.5 10.5-.547.048-9.343-4.974-9.5-5.5-1.92-6.432 4.734-38.578 10.5-40.5"/><path fill="#103340" d="M78 620c-3.555-9.419-8.663-4.737-15-1.5 1.707-1.837 7.714-9.99 9.5-10.5.646-.185.314 2.043 1 2 2.712-.169 4.335-1.646 8 0 8.688 3.903 22.693 46.377-.5 39.5 5.65-2.835 2.855-28.667 0-31-1.349-1.102-.68 2.659-3 1.5"/><path fill="#b3c7ce" d="M167 610c-7.237 3.245-9.924 9.712-11.5 17l41.5 6c.389.795 4.371 1.946.5 5-14.572 2.393-29.178-3.009-43.5-5-.533-6.082 1.997-22.881 8.5-25 2.184-.711 3.743 1.76 4.5 2"/><path fill="#2891af" d="M878 637c-1.869 4.682-4.036 8.263-10 7.5-1.623-13.585.798-24.39-9-35.5 12.827.106 19.165 16.764 19 28"/><path fill="#f5f8f9" d="M167 610c6.733 2.139 19.315 10.499 25 15 1.06 3.389 3.248 4.423 5 8l-41.5-6c1.576-7.288 4.263-13.755 11.5-17"/><path fill="#b3c8ce" d="M863 633c-13.189 7.213-29.582 10.542-44.5 8-1.19-.203-6.176-.951-5.5-3 2.956-6.611 36.479-28.585 40.5-28 5.145.748 9.352 18.195 9.5 23m-15.5-17c-2.839.292-30.62 17.836-28.5 20.5 6.698.926 41.181-2.722 41-10-.088-3.552-8.059-10.957-12.5-10.5"/><path fill="#54c0d8" d="M78 620c5.504 14.584.292 34.406-13 43-.722-.438-3.588.656-6-1-11.88-8.159 2.01-44.033 10.5-46 3.982-.923 5.849 2.675 8.5 4"/><path fill="#f6f9fa" d="M847.5 616c4.441-.457 12.412 6.948 12.5 10.5.181 7.278-34.302 10.926-41 10-2.12-2.664 25.661-20.208 28.5-20.5"/><path fill="#54bfd7" d="M961 663c-.687.173-4.458.185-5 0-2.363-.809-2.203-3.495-3-4 4.073-7.061-4.217-14.38-9.5-20-1.289-1.371-.135-3.268-3.5-1-.853-7.215-2.471-13.747 4.5-19 16.302-12.286 32.645 39.934 16.5 44"/><path fill="#c0d3d9" d="M134 618c.023.332-.021.668 0 1 .395 6.195-1.723 12.608-.5 19-11.842.854-23.299 2.658-34 8-2.616-1.159-1.046-5.915-1.5-8 5.678-.625 33.158-4.9 34-6.5.89-1.692-.161-7.897-2.5-8.5-1.531-.395-29.474 6.297-30.5 7.5-.63.739 1.509 5.092-2 4.5-1.046-4.331-1.185-9.469-3-14z"/><path fill="#aac1c8" d="M926 622c-1.592 5.446-3.143 25.341-5.5 26-11.255-6.765-24.118-8.23-37-9l.5-16z"/><path fill="#acc4ca" d="M98 638c-.317-1.458-.775-2.067-1-3 3.509.592 1.37-3.761 2-4.5 1.026-1.203 28.969-7.895 30.5-7.5 2.339.603 3.39 6.808 2.5 8.5-.842 1.6-28.322 5.875-34 6.5"/><path fill="#90a9af" d="M154 633c14.322 1.991 28.928 7.393 43.5 5 3.871-3.054-.111-4.205-.5-5-1.752-3.577-3.94-4.611-5-8 9.836 7.786 22.921 19.019 1.5 24-6.802 1.582-34.15-1.015-38-6-.571-.739-1.344-8.223-1.5-10m659 5c-.676 2.049 4.31 2.797 5.5 3 14.918 2.542 31.311-.787 44.5-8 .068 2.209.459 10.255 0 11.5-3.007 8.16-59.78 15.37-50-6.5"/><path fill="#52abc1" d="M953 659c-10.565-6.689-11.433-7.752-13-21 3.365-2.268 2.211-.371 3.5 1 5.283 5.62 13.573 12.939 9.5 20"/><path fill="#3699b2" d="M192 671c-8.92-12.3-54.557-16.963-70-19l1-9c25.534-3.176 42.072 12.159 63.5 11 8.24-.446 23.878-4.547 22.5-15 4.217 4.882 16.999 9.973 14 19.5-1.604 5.094-24.955 13.596-31 12.5"/><path fill="#22708e" d="m860 651 1 11c-14.515 4.164-42.584 4.711-33 27-4.891-1.814-2.055 1.035-6 2-.143-3.441 2.468-13.938 2-14.5-.627-.753-13.316-1.833-18.5-5.5-15.597-11.035-5.702-19.447 1.5-30 5.67 23.136 36.252 14.818 53 10"/><path fill="#205c7a" d="m861 662-1-11c5.118-1.472 10.457-2.482 15.5-4 2.051-.617 4.661-4.899 5-5 2.949-.879 25.651 2.737 26.5 5.5 1.542 7.736-13.402 5.147-19.5 6.5-8.879 1.97-17.764 5.494-26.5 8"/><path fill="#c8e7ee" d="m123 643-1 9c-3.824-.504-16.333.195-15-4.5.866-3.048 13.051-4.133 16-4.5"/><path fill="#3d7e90" d="m95.5 650 5 2-15.5 1.5z"/><path fill="#1e4e5f" d="M920.5 651c1.952-.436 12.554 4.052 15.5 4.5-2.06 2.701-22.834-2.864-15.5-4.5"/><path fill="#406f7c" d="m104 655-34 10c.037-.198-2.337-2.218-.5-4z"/><path fill="#f3f7f8" d="m117 680-45 4c-2.71-6.854-3.34-11.756-2-19l34-10c2.586.699 11.338 20.629 13 25"/><path fill="#1a86a5" d="M127 656c.077.639-.152 1.508 0 2-5.493 8.882 12.627 36.185 9 44.5-.982 2.251-5.464 1.11-7.5 2.5L109 655.5c1.273-1.656 14.986.245 18 .5"/><path fill="#cfdfe3" d="M186 671c-1.78 1.377-2.615 3.311-4 5-14.405 7.568-28.994 9.477-45 11-2.795-9.633-7.018-19.313-10-29-.152-.492.077-1.361 0-2 9.596.812 54.36 8.193 59 15"/><path fill="#98cbd7" d="m899 677-13-6c.494-3.652 2.191-7.38 0-11v-1c3.348-.607 20.01-4.427 21-1.5-2.014 6.724-5.689 12.928-8 19.5"/><path fill="#f4f7f8" d="m949 686-47-5c2.617-7.864 5.07-15.734 8-23.5 1.585-1.241 37.754 5.499 39.5 6.5 5.705 3.271 1.102 17.047-.5 22"/><path fill="#c9dadf" d="M886 659v1c-1.156 7.364-4.554 14.844-6 22l-3.5 5-31.5-3c-4.045-2.603-10.325-5.854-11-11 3.081-2.008 45.61-12.842 52-14"/><path fill="#103441" d="M65 663c.137.083 1.142 2.183 2 2.5-6.687 11.101 3.194 23.059 10 32-2.886 1.514-16.376 13.287-17.5 13.5-.396.075-.773-4.337-3.5-2-4.35-15.993-7.456-28.559 2-44 .436-.712 1.675-1.074 1-3 2.412 1.656 5.278.562 6 1"/><path fill="#10313f" d="M961 663c-.143 3.273 1.947 7.567 6 7 10.549 24.467-.225 28.704-5 46.5-.439 1.635.654 8.916 0 11-3.853 12.268-6.516 25.371-18.5 32.5-5.76-4.724-5.501-8.434-12.5-13-1.019-.665-3.653-2.901-5-3 2.999-5.301 5.935-10.185 8-16 2.109-5.937 4.901-12.435 3-19 .907-.128 1.911-1.055 2-2 7.931 2.518 14.843 6.05 21.5 11 .605-2.941-5.522-5.805-7.5-7 4.356-6.081-10.987-6.462-11-9.5 12.017-12.009 13.62-21.169 14-38.5.542.185 4.313.173 5 0"/><path fill="#5bc1d7" d="M58 665c-9.456 15.441-6.35 28.007-2 44 .459 1.686 2.57 2.325 3 4l1 3c3.211 11.61-.121 15.183 8 28 1.908 3.011 5.69 10.482 10 10l3.5 21C58.105 758.815 40.574 690.683 54 667.5c1.15-1.986 1.248-2.988 4-2.5"/><path fill="#5cbed7" d="M931 747c6.999 4.566 6.74 8.276 12.5 13 11.984-7.129 14.647-20.232 18.5-32.5.654-2.084-.439-9.365 0-11 4.775-17.796 15.549-22.033 5-46.5-.87-2.018-3.543-2.914-3.5-5 2.056.486 4.331 1.717 5.5 3.5 12.874 19.648-6.059 101.119-31.5 113.5l4.5-19.5z"/><path fill="#8da6ac" d="M139 695c14.626.03 33.605-7.54 43-19 1.385-1.689 2.22-3.623 4-5 13.197 19.362-43.884 36.899-47 32.5-.355-2.583.501-6.139 0-8.5"/><path fill="#3f9cb5" d="M899 677c-1.385 3.939-2.548 8.111-4 12l-12-2c.884-5.417 2.255-10.494 3-16z"/><path fill="#8ca4ab" d="M845 684c9.276 5.969 21.071 10.936 32 13-.349 3.166 1.059 4.327 1.5 7-11.695 5.943-66.606-16.598-44.5-31 .675 5.146 6.955 8.397 11 11"/><path fill="#28819c" d="M129 807c-2.188 1.048-4.446 3.242-7 4-.886-7.522-3.999-15.236-2-23 24.874-.282 50.768-13.307 56-39.5.648-3.242-2.218-5.475-2-7 .144-1.007 10.764-9.139 12-16 6.177-34.289-24.89-9.908-43.5-15.5l-5.5-2.5c20.502-.09 51.284-10.234 56-32.5 7.397 17.983-.137 22.819-1 38.5-1.62 29.434 7.444 35.389-14 61-15.337 18.317-28.551 22.706-49 32.5"/><path fill="#b1c7cd" d="M182 676c-9.395 11.46-28.374 19.03-43 19a125 125 0 0 0-2-8c16.006-1.523 30.595-3.432 45-11"/><path fill="#bed3d9" d="M117 680c1.354 3.563 8.848 22.05 6.5 24-18.96-5.577-42.92 1.7-51.5-20z"/><path fill="#bfd4d9" d="M949 686c-1.915 5.919-4.074 10.556-8.5 15-5.837-3.794-42.873 5.596-45 4-1.516-8.635 3.964-16.379 6.5-24z"/><path fill="#a8bfc5" d="M880 682c-.881 4.359-2.558 10.996-3 15-10.929-2.064-22.724-7.031-32-13l31.5 3z"/><path fill="#16728c" d="M895 689c-1.769 4.738-3.763 9.319-4 14.5-14.71 1.226-9.552-6.987-8-16.5z"/><path fill="#1c5470" d="M828 689c2.345.87 9.53 8.818 13.5 11 6.7 3.684 16.932 6.58 24.5 8-5.485 7.237-21.308-1.753-24.5-1-.968.228-.285 2.856-.5 3-9.83 6.56-9.422 20.314-2 30l-14 11c-8.024-21.376 3.646-19.378 3-34.5-.227-5.321-5.432-15.133-6-19.5-.246-1.891.081-4.054 0-6 3.945-.965 1.109-3.814 6-2"/><path fill="url(#g)" d="M825 751c10.311 27.469 49.312 43.028 70 60-8.038 17.85.696 66.855-22 73-243.095 2.258-486.456-3.881-729.5 3-2.609-.964-4.9-9.883-4.5-13 117.055-5.859 234.86-7.511 351.5-19 122.139-12.031 271.837-35.986 331.5-158 .568 4.367 5.773 14.179 6 19.5.646 15.122-11.024 13.124-3 34.5" style="fill:url(#g)"/>/&gt;<path fill="#579bb3" d="M69 708c6.732-4.284 13.876-7.557 22-5.5-6.632 1.851-15.787 2.931-22 5.5"/><path fill="#5891a1" d="M953 711c1.978 1.195 8.105 4.059 7.5 7-6.657-4.95-13.569-8.482-21.5-11-2.914-.925-6.829-.253-8-2.5l9.5.5c4.09 2.067 8.579 3.631 12.5 6"/><path fill="#e7f0f2" d="m134 726-48-1c-5.411-13.629-9.452-19.288 9.5-19 2.657.04 27.684 3.36 29 4 2.105 1.023 8.313 13.179 9.5 16"/><path fill="#257791" d="M866 708a93.3 93.3 0 0 0 21 1.5c-15.168 6.095-30.642 4.009-46 .5.215-.144-.468-2.772.5-3 3.192-.753 19.015 8.237 24.5 1"/><path fill="#579bb3" d="M69 708c-1.782 1.134-4.83 6.713-8 5.5 1.71-3.101 5.004-4.261 8-5.5"/><path fill="#b7ccd1" d="M181 713c-.658 5.16-1.817 6.768-4 11l-29 5c-.412-2.662-5.509-15.306-3.5-16 4.971.341 9.957 1.648 15 1 7.887-1.014 17.838-7.537 21.5-1"/><path fill="#eaf1f3" d="M937 709c1.901 6.565-.891 13.063-3 19-4.228-3.739-13.81.697-19.5 1-8.921.475-18.855.473-27.5-2 7.085-15.675 10.672-16.168 27.5-18 7.004-.762 15.713.961 22.5 0"/><path fill="#0f303d" d="M90 733c.78 1.042 2.768 4.824 3 5l-2 4c-3.704 1.034-8.963 4.96-10 9-2.078 1.326.432 2.616-3 3-4.31.482-8.092-6.989-10-10 .125-7.105-7.855-17.078-6-24.5.71-2.842 13.623-10.174 15-9 4.88 8.067 1.832 21.393 13 22.5"/><path fill="#127794" d="M129.5 711c13.502-5.362 19.258 29.554 16 32-4.734 3.555-4.442-6.911-5.5-9.5-3.112-7.615-6.963-15.096-10.5-22.5"/><path fill="#153956" d="m60 716-1-3c.111.433.68 1.842 1 3"/><path fill="#708d96" d="M149 738c12.634.313 22.051-2.465 28-14 2.183-4.232 3.342-5.84 4-11 9.679 17.279-17.336 33.706-32.5 34 .045-3.014.761-5.92.5-9"/><path fill="#aec3c8" d="M871 731c-13.304-2.954-29.264 3.852-31-15 5.012-5.941 8.063.443 14.5 1 5.949.515 14.166.429 20-1 2.36.634-3.275 13.167-3.5 15"/><path fill="#147c9a" d="M887.5 714c1.381.083 2.733-.553 2.5 1.5-5.012 2.608-11.828 30.392-13.5 30.5-4.691.302-3.29-32.864 11-32"/><path fill="#88a2a9" d="M871 731c-.373 3.046-.974 8.069-1 11-14.949-.845-23.47-8.926-33-19 .149-3.593.82-4.416 3-7 1.736 18.852 17.696 12.046 31 15"/><path fill="#506e79" d="M870 742c-.006.711 3.797 9.602 1.5 10-14.769-2.733-35.252-10.914-34.5-29 9.53 10.074 18.051 18.155 33 19"/><path fill="#95aeb5" d="M177 724c-5.949 11.535-15.366 14.313-28 14-.269-3.17-.515-5.862-1-9z"/><path fill="#b5ccd2" d="M134 726c2.626 6.241 4.383 14.289 5.5 21-3.479 1.938-42.45-5.933-46.5-9-.232-.176-2.22-3.958-3-5-1.988-2.658-2.797-4.969-4-8z"/><path fill="#bacfd4" d="M934 728c-2.065 5.815-5.001 10.699-8 16-8.219-.604-40.808 10.615-44.5 8-.749-8.08 2.112-17.505 5.5-25 8.645 2.473 18.579 2.475 27.5 2 5.69-.303 15.272-4.739 19.5-1"/><path fill="#193c58" d="M911 790c-4.807 26.36-4.238 53.651-9 80-7.183 6.24.501 12.457-9.5 19-15.51 10.147-104.939 6.239-129 7-17.814.563-43.618-.877-60.5 4-7.566 2.186-40.886 29.444-52.5 36-108.859 61.445-228.41 42.065-323-35-65.182-3.218-131.221 4.038-196-1-6.187-2.855-8.074-18.577-9.5-25.5-5.822-28.259-7.317-57.895-11-86.5.66.069 7.453.018 9 0-1.999 7.764 1.114 15.478 2 23 1.199 10.186 8.273 79.493 13.5 82l7 1c232.581-6.75 465.944 3.739 698.5-4 11.063-.368 23.075.815 34-1 3.894-.647 8.598-1.93 12-4 1.684-1.025 5.222-2.619 6-4.5 2.172-5.25 5.597-39.941 6-47.5.346-6.496-.127-13.023 1-19.5-.232-.527-4.009-1.687-5-2.5-20.688-16.972-59.689-32.531-70-60l14-11c1.438 1.877 10.92 7.81 11 8.5.035.304-2.034 1.695-2 2 3.418 30.352 36.116 40.835 63 39.5M369 924c54.429 32.384 118.081 46.893 181 39 51.846-6.504 99.457-29.117 140-61.5-39.156-2.607-78.822-2.133-118-.5-1.333.056-4.854-1.326-8-1-1.573.163-5.826-.378-6.5 0-.676.379-3.346 12.038-5.5 14.5-30.554 34.924-89.101 30.215-119-4-1.046-1.197-4.953-10.263-5.5-10.5-1.336-.577-9.866.148-12.5 0-2.638-.148-5.354.069-8 0-22.829-.592-45.69.4-68.5 1 8.162 9.809 19.631 16.533 30.5 23m165-24c-1.753-.269-2.672 1.212-4 2l-76.5-2c-1.524.77.915 3.023 1.5 4-20.01-11.683-4.762 6.832 3.5 12 17.484 10.937 48.989 13.831 66 1 2.989-2.255 14.678-16.206 9.5-17"/><path fill="#1b4552" d="M99 745c-1.353.199-.934.974-1 1-12.92 4.995-6.183 21.316-9.5 24-9.8-6.686-4.68-17.965 1.5-25.5-3.48 1.632-5.41 4.208-9 6.5 1.037-4.04 6.296-7.966 10-9 4.175-1.165 7.55-1.523 8 3"/><path fill="#a2d1db" d="M98 746c.066-.026-.353-.801 1-1 3.659-.539 11.49 1.808 15 3.5z"/><path fill="#7e9aa2" d="M166 762c-1.736-.228-5.981-2.96-7-3 3.124-3.675 11.214-5.303 11.5-11-9.528 8.052-22.543 9.544-34.5 9 .33-1.222-.118-1.982 1.5-3 15.256 1.308 47.834-23.283 28.5 8"/><path fill="#4a7b91" d="m115.5 748 11.5 2.5c-2.208-.117-11.227 1.254-11.5-2.5"/><path fill="#b6c9ca" d="M159 759c-5.283-.209-16.559 5.807-23 5 .26-2.095-.465-5.278 0-7 11.957.544 24.972-.948 34.5-9-.286 5.697-8.376 7.325-11.5 11"/><path fill="#70a6bd" d="M918.5 749c-2.72 4.762-14.194 4.349-19.5 4.5z"/><path fill="#193f4d" d="M926.5 749c2.867 6.786 3.375 1.601 4 2 7.805 4.983 8.178 18.168 2 26-2.652.063-1.077-14.41-1.5-16.5-.816-4.033-6.122-6.715-4.5-11.5"/><path fill="#bdd1d8" d="M122 770c-3.632 2.501-1-3.032-2.5-4-1.611-1.039-20.771.781-24.5 0h-1c2.034-27.33 3.99-8.882 25.5-11 1.615.716 2.333 12.528 2.5 15"/><path fill="#698a96" d="M884 764c-10.761-3.408-23.14-3.306-32-11 .561-1.102-.904-2.394 2.5-2l34 7-.5 5.5-2.5-3.5c-2.071 1.195-1.17 2.561-1.5 4"/><path fill="#b1c2c5" d="M884 764c-.178.776-.996 4.745-1 5-10.416-2.832-20.95-3.857-30-10-.712-1.974-2.099-3.843-1-6 8.86 7.694 21.239 7.592 32 11"/><path fill="#afc8d0" d="m927 769-27-1c.013-1.673-.457-9.32.5-10 1.765-1.253 19.213-.575 23-5 4.211 4.462 3.07 10.62 3.5 16"/><path fill="#177085" d="M124.5 755c.786-.354 9.096-.11 9.5.5-2.817 9.212 1.571 23.904-8.5 28.5.789-3.989-2.323-28.405-1-29"/><path fill="#0d5d72" d="M892.5 757c2.162-.004 2.168 9.996 0 10-2.517-1.222-1.885-9.997 0-10"/><path fill="#617c85" d="M159 759c1.019.04 5.264 2.772 7 3-2.738 4.431-4.036 5.723-8 9l1.5-4c-7.817 3.017-16.419 3.634-24.5 6 .205-2.757.652-6.198 1-9 6.441.807 17.717-5.209 23-5"/><path fill="#5b7078" d="M883 769c-.059 3.78 1.414 11.199 4 14.5-10.472 2.79-30.371-14.434-34-24.5 9.05 6.143 19.584 7.168 30 10"/><path fill="#164959" d="M886.5 765c2.402 2.06 2.231 10.28 1 13-.72-4.32-2.492-8.612-1-13"/><path fill="#518596" d="M99 781c-1.891-.597-5.079-.586-7-1.5-.435-.65 1.859-11.603 2-13.5h1c1.746 4.505 6.706 9.881 4 15"/><path fill="#99b3ba" d="M122 770c.154 2.279 1.802 13.072.5 14-7.971-.056-15.862-.588-23.5-3 2.706-5.119-2.254-10.495-4-15 3.729.781 22.889-1.039 24.5 0 1.5.968-1.132 6.501 2.5 4"/><path fill="#526f79" d="M158 771c-7.558 6.247-13.818 9.319-23.5 12-1.682-.287.373-8.299.5-10 8.081-2.366 16.683-2.983 24.5-6z"/><path fill="#90a8b1" d="M927 769c.026.33-.013.668 0 1-5.204 3.162-6.683 10.851-5 16-5.489 1.039-13.449-.858-19.5 1-1.361-.673-2.52-16.429-2.5-19z"/><path fill="#4c7889" d="M927 770c.177 4.561.249 8.98 1 13.5-.544 1.135-4.671 2.248-6 2.5-1.683-5.149-.204-12.838 5-16"/><path fill="#5db6cf" d="M139 874c-.4 3.117 1.891 12.036 4.5 13 243.044-6.881 486.405-.742 729.5-3v3c-5.004-.623-21.02.813-27.5 1-1.826.053-4.937-1.001-4.5 2-232.556 7.739-465.919-2.75-698.5 4l-7-1c-5.227-2.507-12.301-71.814-13.5-82 2.554-.758 4.812-2.952 7-4z"/><path fill="#5d8db0" d="m899 833-12 52c-3.402 2.07-8.106 3.353-12 4 .289-2.312-.317-1.79-2-2v-3c22.696-6.145 13.962-55.15 22-73 .991.813 4.768 1.973 5 2.5-1.127 6.477-.654 13.004-1 19.5"/><path fill="#c3deec" d="M899 833c-.403 7.559-3.828 42.25-6 47.5-.778 1.881-4.316 3.475-6 4.5z"/><path fill="#132743" d="M902 870c-3.509 19.414-4.659 21.676-25.5 27L703 900c16.882-4.877 42.686-3.437 60.5-4 24.061-.761 113.49 3.147 129-7 10.001-6.543 2.317-12.76 9.5-19"/><path fill="#98cce2" d="M873 887c1.683.21 2.289-.312 2 2-10.925 1.815-22.937.632-34 1-.437-3.001 2.674-1.947 4.5-2 6.48-.187 22.496-1.623 27.5-1"/><path fill="#5b7b87" d="m407 900 9.5 16c-10.802 1.19-41.382-4.204-50 0-3.729 1.819 1.315 5.981 2.5 8-10.869-6.467-22.338-13.191-30.5-23 22.81-.6 45.671-1.592 68.5-1"/><path fill="#96c5d3" d="M415 900c16.596 38.953 70.616 55.558 108.5 39 4.034-1.763 15.031-11.054 16-11 .334.019 1.011 2.977 2 3 3.234.076 22.548-25.243 22.5-31 3.146-.326 6.667 1.056 8 1l-4.5 12c7.51-1.55 54.12 2.71 52.5 13.5-1.422 9.471-59.359 33.273-70 36.5-62.919 7.893-126.571-6.616-181-39-1.185-2.019-6.229-6.181-2.5-8 8.618-4.204 39.198 1.19 50 0l-9.5-16c2.646.069 5.362-.148 8 0"/><path fill="#2c8fb5" d="M564 900c.048 5.757-19.266 31.076-22.5 31-.989-.023-1.666-2.981-2-3-.969-.054-11.966 9.237-16 11-37.884 16.558-91.904-.047-108.5-39 2.634.148 11.164-.577 12.5 0 .547.237 4.454 9.303 5.5 10.5 29.899 34.215 88.446 38.924 119 4 2.154-2.462 4.824-14.121 5.5-14.5.674-.378 4.927.163 6.5 0"/><path fill="#60d2ea" d="M455 904c1.795 2.999 3.209 3.434 6 5 17.009 16.546 63.578 16.66 73-9 5.178.794-6.511 14.745-9.5 17-17.011 12.831-48.516 9.937-66-1-8.262-5.168-23.51-23.683-3.5-12"/><path fill="#23475c" d="M530 902c-20.53 12.192-45.915 19.951-69 7-2.791-1.566-4.205-2.001-6-5-.585-.977-3.024-3.23-1.5-4z"/><path fill="#2699bf" d="M534 900c-9.422 25.66-55.991 25.546-73 9 23.085 12.951 48.47 5.192 69-7 1.328-.788 2.247-2.269 4-2"/><path fill="#547380" d="M550 963c10.641-3.227 68.578-27.029 70-36.5 1.62-10.79-44.99-15.05-52.5-13.5l4.5-12c39.178-1.633 78.844-2.107 118 .5-40.543 32.383-88.154 54.996-140 61.5"/></svg>