<svg xmlns="http://www.w3.org/2000/svg" width="1024" height="1024"><defs><linearGradient id="a" x1="465.667" x2="724.909" y1="366.495" y2="396.739" gradientUnits="userSpaceOnUse"><stop offset="0%" style="stop-color:#e8eef2"/><stop offset="89.272%" style="stop-color:#6d8fa4"/></linearGradient></defs><defs><linearGradient id="b" x1="306.291" x2="484.663" y1="361.485" y2="397.641" gradientUnits="userSpaceOnUse"><stop offset="0%" style="stop-color:#d4ebfd"/><stop offset="100%" style="stop-color:#a1b8c4"/></linearGradient></defs><defs><linearGradient id="c" x1="769.981" x2="761.696" y1="367.185" y2="428.629" gradientUnits="userSpaceOnUse"><stop offset="0%" style="stop-color:#178dd1"/><stop offset="100%" style="stop-color:#1a68aa"/></linearGradient></defs><defs><linearGradient id="d" x1="261.736" x2="264.125" y1="371.633" y2="444.594" gradientUnits="userSpaceOnUse"><stop offset="0%" style="stop-color:#1698d8"/><stop offset="100%" style="stop-color:#1969aa"/></linearGradient></defs><defs><linearGradient id="e" x1="440.471" x2="583.779" y1="603.141" y2="909.257" gradientUnits="userSpaceOnUse"><stop offset="0%" style="stop-color:#4bccc6"/><stop offset="40.828%" style="stop-color:#14a2b2"/><stop offset="100%" style="stop-color:#026672"/></linearGradient></defs><defs><linearGradient id="f" x1="263.828" x2="243.725" y1="635.84" y2="773.379" gradientUnits="userSpaceOnUse"><stop offset="0%" style="stop-color:#43cfec"/><stop offset="100%" style="stop-color:#235883"/></linearGradient></defs><path fill="#042a49" d="M712 774c.11-1.173-.125-2.826 0-5 7.591 13.165 21.528 22.094 37 18 12.703 4.169 32.081-6.797 40-16.5 13.63-16.701 22.716-44.045 24-65.5 1.291-21.572-1.156-39.712-8-60-5.05-14.969-16.233-39.381-35-40-5.082-3.535-13.745-4.992-20-4-14.716 1.818-27.275 13.402-33 27-1.2 1.649-2.553 2.62-2 5-.321.095-2.078 1.427-4 2-11.255 3.357-23.138 5.347-34 10-.231-1.023-1.592-4.393-2-5 8.821.076 4.812-6.867 6-11.5.221-.861 1.976-.4 2-.5v10.5c13.752-3.067 32.881-6.067 38-21.5 1.991-1.269 5.181-5.914 7-8 1.752-2.01 5.284-4.074 7-6.5.075-1.345-16.496-18.22-18.5-19.5-20.106-12.842-35.456 14.519-40.5 31-3.15 6.189-3.906 13.468-6 20-.971-.914-.987-1.387-2-2 7.305-19.361 11.589-43.617 32-53.5-6.048-.29-3.528-3.951-5.5-5.5-1.225-.962-15.279-7.626-17-8-.334-.073-1.232 2.136-3 2-.334-.026-2.204-3.633-6-3-3.423.57-34.785 27.18-43.5 28-1.344-.92-3.126-2.439-4-3 99.006-42.6 135.5-155.156 109-255.5-20.857-78.977-94.185-141.599-174-155.5-37.869-6.596-73.267-3.482-110 7-112.845 32.201-176.066 134.245-159 250.5 9.851 67.109 53.066 124.548 114 153.5-.809.515-2.424 1.932-4 3l-41.5-28c-13.16 2.328-26.126 3.684-37.5 14.5 12.463 4.587 18.166 13.385 24 24.5 4.684 8.925 7.607 18.561 11 28-.072.086.124.624-1 2-10.816-36.85-34.959-80.39-68-30.5.086 1.076 8.779 7.94 10 9.5 5.824 7.444 11.824 16.542 16 25 5.028 10.182 12.452 28.978 14 40 .18 1.283-.116 2.698 0 4h-1c.119-6.796-10.689-31.545-14-39-.663-1.492-1.332-2.602-2-4-1.65-3.453-2.735-8.779-5-12.5-10.537-17.308-31.024-32.467-51-20.5-17.536-.505-28.058 18.211-34 32-8.895 20.64-11.617 40.486-11 63 .027.991-.052 2.011 0 3 1.962 37.148 21.209 84.777 64 85 21.512.112 26.587-3.564 39-21 .067 1.122-.087 1.986 0 3-9.972 20.583-30.866 22.612-51.5 20-65.371-8.276-81.559-182.4 4-191 5.258-.529 19.986 2.291 21 2 1.427-.41 14.735-18.171 21-21 4.428-2 11.206-1.581 12-2 10.237-5.404 20.702-15.341 33.5-18.5-6.038-2.737-28.278-32.765-30.5-33.5-9.519-3.148-38.078 1.701-47-1-6.901-2.089-28.027-41.33-31.5-49.5-2.03-4.775-8.017-28.546-10.5-29.5-7.165-2.753-10.535 2.847-17.5-8.5-11.771-19.176-13.318-90.756 12.5-99.5 2.71-.918 5.709 1.089 6 1 2.565-.786 5.93-15.107 7.5-18.5 3.785-8.176 26.548-50.745 32.5-53.5 9.595-4.441 40.634 2.224 50-1 2.01-.692 22.674-27.043 28-32 33.156-30.853 75.81-50.602 120-60 1.71-24.1 11.436-50.464 21.5-72.5 2.903-6.357 15.155-34.805 23.5-33.5 7.46 1.166 45.458 91.05 41 105 42.385 7.028 85.124 28.453 117 57 6.001 5.375 30.662 35.295 33 36 9.674 2.918 39.235-3.274 48 1 2.359 1.15 21.281 30.198 23.5 34.5 3.035 5.884 12.414 34.898 14 36 1.806 1.254 9.07-.164 14.5 3.5 18.622 12.565 18.775 92.824 0 103-4.47 2.423-11.746 1.228-13.5 3.5-1.024 1.327-7.673 26.671-10 32-3.742 8.572-23.184 43.39-31.5 45.5-10.043 2.549-34.412-1.501-43 1-3.03.882-25.297 30.335-31.5 33.5 10.534 3.527 20.063 13.715 28.5 18.5.608.345 6.923-.462 13 3 5.295 3.016 18.633 19.637 20 20 1.517.403 18.437-2.293 26-1 78.797 13.468 64.082 181.738-1 190-18.511 2.35-38.55.638-49.5-16M503 83c-3.84 5.704-31.959 67.012-28.5 69 3.635-2.612 6.385-2.002 10.5-2 3.98.002 7.643 1.11 11 1 14.248-.467 23.619-2.539 39-1 1.875.188 11.21 3.278 12.5 3 1.991.235 1.489-1.09 1.5-2.5.046-5.907-26.23-66.184-31-73-1.004-1.434-4.119-5.636-6-5.5-4.458 2.525-6.325 7.026-9 11m9 68c-8.238 3.592-28.144-1.884-34.5 1-8.412 3.817 1.404 10.996 9.5 10v2c-5.132-.556-10.086-.421-13.5-5v15c19.909-2.757 40.314-4.698 60.5-4 2.123.073 14.988 2.931 16 1.5-.551-2.692.74-15.956 0-17-1.061-1.497-7.604-.233-9-.5-1.122-.214-2.433-.693-4-1-7.871-1.542-17.14-4.665-25-2M266 281c-31.598 41.876-43.16 90.966-37 143 .076.645-.085 1.358 0 2 1.69 12.764 4.94 24.829 9 37 7.34 22.007 18.409 43.161 34.5 60l43.5-.5c-8.611-8.516-12.789-24.711-19-33.5-3.86-7.222-5.932-15.135-8-23-5.192-19.748-9.814-45.636-10-66-.421-46.109 14.721-92.356 38-131.5l-43.5 1.5c-1.9.629-5.95 8.945-7.5 11m479 142c-.531 7.282-2.247 14.724-3 22-5.099 5.059-14.362 41.081-19 51.5-4.168 9.364-10.645 17.718-15 27 12.82-1.919 25.573-2.15 38.5-2.5.769-.021-.215 2.167 2 2 .889-.067 4.529-5.163 5.5-6 18.351-15.822 33.848-55.142 37-79 6.768-30.763 5.603-64.651-3-95-5.653-19.942-16.655-42.377-29-59-2.347-3.16-5.849-11.436-9.5-13-3.405-1.459-32.33-3.136-37.5-3-2.159.057-4.457-.73-6 1.5 32.227 45.916 36.958 95.59 36 150-.051 2.91-.631 3.932 3 3.5m-519-51c.364-4.775 1.461-10.731 2-16 .637-6.23 6.873-16.916-2.5-16-23.717 2.318-26.647 95.797-4 104 1.348.488 7.194 1.571 8 1-3.905-25.027-5.436-47.606-3.5-73m567-21c2.075 19.507 4.695 36.011 4 56-.412 11.832-1.772 24.076-5 35.5 20.716 7.276 23.717-29.764 24-43.5.277-13.471-1.835-40.773-10-51.5-2.655-3.487-10.925-10.474-15-6-.162.458 1.849 8.079 2 9.5"/><path fill="#22c7eb" d="M535 150c-15.381-1.539-24.752.533-39 1 2.354-8.08 15.892-62.329 13-66-1.092-1.386-4.23-2.032-6-2 2.675-3.974 4.542-8.475 9-11 8.676 26.083 25.88 49.201 23 78"/><path fill="#1a6f9c" d="M535 150c2.88-28.799-14.324-51.917-23-78 1.881-.136 4.996 4.066 6 5.5 4.77 6.816 31.046 67.093 31 73-.011 1.41.491 2.735-1.5 2.5-1.29.278-10.625-2.812-12.5-3"/><path fill="#21dffd" d="M509 85c-8.286 3.05-8.366 15.312-11 21.5-.277.65-2.793-.156-4 3-4.759 12.44-7.39 27.393-9 40.5-4.115-.002-6.865-.612-10.5 2-3.459-1.988 24.66-63.296 28.5-69 1.77-.032 4.908.614 6 2"/><path fill="#9eeaf9" d="M509 85c2.892 3.671-10.646 57.92-13 66-3.357.11-7.02-.998-11-1 1.61-13.107 4.241-28.06 9-40.5 1.207-3.156 3.723-2.35 4-3 2.634-6.188 2.714-18.45 11-21.5"/><path fill="#249ac8" d="M537 153c-4.421 2.998-5.039 4.32-2 9-1.59.694-.647.982-1 2-14.887-1.2-32.474 1.574-47 0v-2c9.976-1.228 1.326-11.788 17.5-8 .674.158 6.542 11.02 7.5-3 7.86-2.665 17.129.458 25 2"/><path fill="#b7f6fe" d="M512 151c-.958 14.02-6.826 3.158-7.5 3-16.174-3.788-7.524 6.772-17.5 8-8.096.996-17.912-6.183-9.5-10 6.356-2.884 26.262 2.592 34.5-1"/><path fill="#6abee2" d="M541 154c5.75 9.898-2.643 6.535-6 8-3.039-4.68-2.421-6.002 2-9 1.567.307 2.878.786 4 1"/><path fill="#196b9e" d="M534 170c.318-1.691-.464-4.662 0-6 .353-1.018-.59-1.306 1-2 3.357-1.465 11.75 1.898 6-8 1.396.267 7.939-.997 9 .5.74 1.044-.551 14.308 0 17-1.012 1.431-13.877-1.427-16-1.5"/><path fill="#12d8fc" d="M487 164c14.526 1.574 32.113-1.2 47 0-.464 1.338.318 4.309 0 6-20.186-.698-40.591 1.243-60.5 4v-15c3.414 4.579 8.368 4.444 13.5 5"/><path fill="url(#a)" d="m556 178-5.5 3c78.269 13.32 150.382 70.413 173.5 147.5 30.153 100.545-7.524 215.328-107 258.5-30.398-18.261-63.247-28.9-99-30l-6-4c92.911.243 165.135-72.496 162-165.5-.062-1.827 1.009-4.935-2-4.5-.51-107.149-113.038-183.711-214-149 13.692-6.879 37.444-39.511 10-44 .338-8.071-17.881-2.418-23-1l1-4c36.733-10.482 72.131-13.596 110-7m11.5 19c-5.036 2.016-2.043 10.56 4 7 5.541-3.264 1.54-9.218-4-7m19 19c-1.205.436-.464 2.643 1 2 1.199-.527.518-2.55-1-2m76 41c-25.201 2.397-22.626 45.266 7 40 21.411-3.806 19.45-42.516-7-40m15 78c-1.86.618-1.886 3.338 0 4 6.567 2.306 5.412-5.798 0-4m17 66c-21.722 1.753-23.974 36.512-3 40 31.083 5.169 32.945-42.416 3-40" style="fill:url(#a)"/>/&gt;<path fill="#dae7ee" d="M621 589c-1.103-.708-2.346-1.006-4-2 99.476-43.172 137.153-157.955 107-258.5-23.118-77.087-95.231-134.18-173.5-147.5l5.5-3c79.815 13.901 153.143 76.523 174 155.5 26.5 100.344-9.994 212.9-109 255.5"/><path fill="#e6f8fd" d="m446 185-1 4c-37.033 10.26-80.686 39.101-103 70-3.093 1.704-9.496 9.41-12 12.5-3.352 4.136-8.819 11.278-10 16.5-6.203 1.64-7.519 17.551-10 23.5-1.453 3.484-6.171 8.761-7 11-1.053 2.845-7.983 22.735-8 24-.019 1.403 3.522 2.644 3 4.5-.299.133-.814-.152-1 0-13.97 60.306-4.076 126.454 34 176 1.825 2.375 3.178 3.831 5 6 19.227 22.882 42.09 40.809 69 54-1.488.9-3.311 1.561-4 2-60.934-28.952-104.149-86.391-114-153.5-17.066-116.255 46.155-218.299 159-250.5"/><path fill="url(#b)" d="M468 190c-16.639-2.722-94.704 27.453-98 44.5-5.542 28.666 52.956 16.116 66 9.5-89.232 49.644-111.506 165.997-50 247 30.355 39.978 75.505 61.868 126 62l6 4c-18.653-.574-32.911.944-51 5-15.283 3.427-31.914 9.212-46 16-11.478-5.951-23.239-12.057-33.5-20-10.911-8.446-19.371-20.68-30.5-28 .137-2.091-.516-4.904-1-7-1.319-5.712-9.15-19.5-14.5-22-2.345-1.096-4.29 1.095-4.5 1-.656-.298-1.395-.639-2-1-1.566-.934-18.631-27.616-20-30.5-5.53-11.647-11.207-30.305-14-43-5.53-25.135-5.424-50.93-4-76.5.186-.152.701.133 1 0 6.318-2.819 21.691-1.861 30.5-5 17.704-6.309 35.762-34.122 19.5-49 5.138-.261 13.816 3.257 17-3 24.849-10.314 5.336-50.856-20-34 1.031-2.294-1.865-1.625-3-1 22.314-30.899 65.967-59.74 103-70 5.119-1.418 23.338-7.071 23 1M322.5 401c-21.414 3.57-20.545 41.098 5 40 26.012-1.118 24.821-44.971-5-40m37 96c-8.646 2.89-.111 21.601 10 15 6.336-4.136-.181-18.282-10-15" style="fill:url(#b)"/>/&gt;<path fill="#fefefe" d="M468 190c27.444 4.489 3.692 37.121-10 44-5.319 1.829-16.982 7.208-22 10-13.044 6.616-71.542 19.166-66-9.5 3.296-17.047 81.361-47.222 98-44.5"/><path fill="#7a98a4" d="M567.5 197c5.54-2.218 9.541 3.736 4 7-6.043 3.56-9.036-4.984-4-7"/><path fill="#6b7f8c" d="M586.5 216c1.518-.55 2.199 1.473 1 2-1.464.643-2.205-1.564-1-2"/><path fill="#0d2c44" d="M672 383c.481 101.129-77.912 171.176-178.5 163-46.186-3.754-71.57-24.74-103.5-54.5-1.845-1.719-1.662-2.04-4-.5-61.506-81.003-39.232-197.356 50-247 5.018-2.792 16.681-8.171 22-10 100.962-34.711 213.49 41.851 214 149M424 257c-26.425 18.714-44.447 41.059-57 71-23.493 56.036-17.63 113.913 23 160 115.621 131.151 332.323 9.118 268-157-14.147-36.535-36.729-62.069-71-81-25.836-14.271-51.19-21.69-81-21-31.02.719-57.026 10.314-82 28"/><path fill="#94effb" d="M506 229c1.326 7.715-4.244 17.683 6 18q-.5-.002-1 0c-26.499.096-54.786 8.461-77 23l-10-13c24.974-17.686 50.98-27.281 82-28"/><path fill="#31daf8" d="m587 250-8 14c-19.186-10.295-45.16-16.859-67-17-10.244-.317-4.674-10.285-6-18 29.81-.69 55.164 6.729 81 21"/><path fill="#3cb8dd" d="M511 247c-.37 2.075.722 10.133-.5 11-1.959 1.389-26.755-1.567-30.5 5-6.135 1.461-14.183 4.456-20 7-21.188 9.267-39.11 25.03-52 44-56.724 83.477-3.732 196.878 97 201l-2 6c-29.071-1.784-60.78-15.108-83.5-33-6.17-4.859-22.451-23.752-27.5-24 1.372-1.854.877-2.633 0-4.5-21.896-46.605-32.678-73.54-11-125.5 10.18-24.401 30.944-49.564 53-64 22.214-14.539 50.501-22.904 77-23"/><path fill="#188ab7" d="M579 264c36.539 19.607 67.76 62.384 72 104 .424 4.164-.006 8.826 0 13-2.485 9.132 2.125 11.112-10 10 1.301-85.636-77.646-147.856-161-128 3.745-6.567 28.541-3.611 30.5-5 1.222-.867.13-8.925.5-11q.5-.002 1 0c21.84.141 47.814 6.705 67 17"/><path fill="#13b2e1" d="M658 331c-7.348 9.02 4.49 35.49-7 37-4.24-41.616-35.461-84.393-72-104l8-14c34.271 18.931 56.853 44.465 71 81"/><path fill="#07223d" d="M365 294c-24.901 10.335-37.155-22.587-20-34 25.336-16.856 44.849 23.686 20 34m-13.5-35c-18.988 4.163-14.496 38.004 9 34 20.479-3.49 16.66-39.626-9-34"/><path fill="#daf8fd" d="M434 270c-22.056 14.436-42.82 39.599-53 64-4.426-1.094-11.391-1.797-14-6 12.553-29.941 30.575-52.286 57-71z"/><path fill="#062039" d="M662.5 257c26.45-2.516 28.411 36.194 7 40-29.626 5.266-32.201-37.603-7-40m0 2c-22.116 1.956-19.453 39.339 6 35 19.719-3.361 17.076-37.041-6-35"/><path fill="#bcdcf0" d="M345 260c-17.155 11.413-4.901 44.335 20 34-3.184 6.257-11.862 2.739-17 3-4.411-4.036-22.164-10.543-28-9 1.181-5.222 6.648-12.364 10-16.5 2.504-3.09 8.907-10.796 12-12.5 1.135-.625 4.031-1.294 3 1"/><path fill="#25dde5" d="M351.5 259c25.66-5.626 29.479 30.51 9 34-23.496 4.004-27.988-29.837-9-34m0 3c-12.557 2.233-11.059 23.758-5.5 17.5 1.361-11.27 9.896-8.938 16.5-13.5.877.102 5.479 7.035 5.5 7.5.093 2.103-3.383.368-3.5.5-2.485 2.805-2.296 6.266-3 7-.927.967-7.968 4.121-9.5 5.5 21.648 6.722 22.139-28.526-.5-24.5"/><path fill="#102f4c" d="M641 391c-.424 27.918-10.099 55.355-28 77-25.759 31.148-67.735 48.648-108 47-100.732-4.122-153.724-117.523-97-201 4.255 2.736 8.891 5.287 7 11-1.086 3.282-9.678 14.746-12 21.5-23.228 67.562 19.103 141.917 91 150.5 4.001.478 7.948.938 12 1-2.949 17.958 7.309 14.438 21 13 16.188-1.7 39.982-10.232 53-20 1.508-1.131 1.834-.785 4-3 22.131-13.349 37.417-34.91 46-59 1.058-2.971 3.146-6.633 4-10 1.202-4.738 2.417-10.162 3-15 .554-4.602.957-9.348 1-14 .083-9.084-.869-17.698-3-26.5-2.636 3.506-6.909 2.402-11 3.5-10.206-69.366-82.784-112.907-149-90-5.433 1.88-10.777 3.575-16 6 9.035-5.725 1.773-5.105 1-13 5.817-2.544 13.865-5.539 20-7 83.354-19.856 162.301 42.364 161 128"/><path fill="#22d6de" d="M662.5 259c23.076-2.041 25.719 31.639 6 35-25.453 4.339-28.116-33.044-6-35m-8.5 24c8.489 4.221 5.947-1.633 9.5-5 1.694-1.606 12.965-5.925 4.5-9 2.702-7.579 9.998 7.689 8.5 11 2.648-34.312-43.686-7.534-22.5 3m18.5-5c-.791-.18-6.477 10.603-10 11 4.987 3.047 16.459-9.533 10-11"/><path fill="#059bdd" d="M351.5 262c22.639-4.026 22.148 31.222.5 24.5 1.532-1.379 8.573-4.533 9.5-5.5.704-.734.515-4.195 3-7 .117-.132 3.593 1.603 3.5-.5-.021-.465-4.623-7.398-5.5-7.5-6.604 4.562-15.139 2.23-16.5 13.5-5.559 6.258-7.057-15.267 5.5-17.5"/><path fill="#01abe5" d="M668 269c-7.137-2.593-16.058 6.669-14 14-21.186-10.534 25.148-37.312 22.5-3 1.498-3.311-5.798-18.579-8.5-11"/><path fill="#16c6f1" d="M279 400c-.597.052-1.95-.09-2 0 .305-3.197 1.392-11.835 1-14.5-.141-.961-2.789-.029-3-1-.051-.236 2.065-1.783 2-2-5.81-19.256-29.342-29.543-44-12.5 1.258-9.786 1.779-21.614 5-31.5 6.365-19.535 21.399-37.835 28-57.5 1.55-2.055 5.6-10.371 7.5-11l43.5-1.5c-23.279 39.144-38.421 85.391-38 131.5m-23-90c-3.557 5.763-14.504 26.539-13 32.5 1.422 5.638 27.599 8.04 31.5 6.5 5.071-2.003 9.584-35.73 8.5-41.5-.402-2.137-2.534-3.698-3-4.5-6.024-10.364-15.126-8.343-22 .5-.95 1.222-1.276 5.328-2 6.5"/><path fill="#2ca4be" d="M712 268c1.909 10.64 10.131 20.356 15 30.5 3.755 7.823 5.603 17.012 10 24.5l8 42c-1.306 17.942 1.383 39.013 0 58-3.631.432-3.051-.59-3-3.5.958-54.41-3.773-104.084-36-150 1.543-2.23 3.841-1.443 6-1.5"/><path fill="#15bcec" d="m759 284-3 3c-6.31-7.052-16.98-10.921-21 .5-3.986 11.326 2.205 28.546 6 39.5-2.366 1.196-3.392-2.965-4-4-4.397-7.488-6.245-16.677-10-24.5-4.869-10.144-13.091-19.86-15-30.5 5.17-.136 34.095 1.541 37.5 3 3.651 1.564 7.153 9.84 9.5 13"/><path fill="#7ceefb" d="M668 269c8.465 3.075-2.806 7.394-4.5 9-3.553 3.367-1.011 9.221-9.5 5-2.058-7.331 6.863-16.593 14-14"/><path fill="#2c4460" d="M459 283v1c-4.279-.517-35.096 24.814-36 29.5-.166.859 1.942 4.513 1 6.5-.405.285-6.705 6.602-7 7l-2-2c1.891-5.713-2.745-8.264-7-11 12.89-18.97 30.812-34.733 52-44 .773 7.895 8.035 7.275-1 13"/><path fill="#265578" d="M624 367c.155 1.052.79 1.968 1 4-6.733-2.785-13.042 2.507-20 2-7-50.129-55.511-88.39-106-83-.648.069-1.357-.085-2 0-3.793-8.373-16.192-5.986-22-13 66.216-22.907 138.794 20.634 149 90"/><path fill="#537993" d="M475 277c5.808 7.014 18.207 4.627 22 13-2.654.351-9.879 3.06-13 4-1.079.325-1.965.642-3 1 1.889-9.183-13.177-6.137-18.5-7-.262-.043-1.797-3.794-3.5-4v-1c5.223-2.425 10.567-4.12 16-6"/><path fill="#028bce" d="M672.5 278c6.459 1.467-5.013 14.047-10 11 3.523-.397 9.209-11.18 10-11"/><path fill="#c4f0fc" d="M756 287c2.133 2.384 7.571 11.878 9 15 1.368 2.988 8.934 25.071 8 26.5-11.331-2.378-20.489-7.308-32-1.5-3.795-10.954-9.986-28.174-6-39.5 4.02-11.421 14.69-7.552 21-.5"/><path fill="#9aeefa" d="M233 370c-.244 1.901-2.896 7.335-3 8.5-1.323 14.885 1.527 30.697-1 45.5-6.16-52.034 5.402-101.124 37-143-6.601 19.665-21.635 37.965-28 57.5-3.221 9.886-3.742 21.714-5 31.5"/><path fill="#7591a3" d="M481 295c-4.314 1.491-7.046 3.034-11 5-7.631 3.795-14.633 7.775-21 13.5l11 6.5c-10.625-8.07-25.375-7.49-36 0 .942-1.987-1.166-5.641-1-6.5.904-4.686 31.721-30.017 36-29.5 1.703.206 3.238 3.957 3.5 4 5.323.863 20.389-2.183 18.5 7"/><path fill="#7ef0fe" d="m788 343-3 .5c-4.3-13.443-9.709-27.921-17-40-.196-.324-3.529-5.437-3-1.5-1.429-3.122-6.867-12.616-9-15l3-3c12.345 16.623 23.347 39.058 29 59"/><path fill="#fdfefe" d="M320 288c5.836-1.543 23.589 4.964 28 9 16.262 14.878-1.796 42.691-19.5 49-8.809 3.139-24.182 2.181-30.5 5 .522-1.856-3.019-3.097-3-4.5.017-1.265 6.947-21.155 8-24 .829-2.239 5.547-7.516 7-11 2.481-5.949 3.797-21.86 10-23.5"/><path fill="#1d4a6b" d="M605 373c8.743 62.609-42.156 111.871-104 106-46.64-4.427-80.471-40.272-85-86.5-.553-5.641 1.209-11.347 1-16-.018-.409-1.942-1.547-2-2-.101-.785 2.023-.4 2-.5 7.708 7.686 15.493 12.948 27 12 3.064 49.636 52.811 80.712 98.5 58 2.812-1.398 12.189-9.881 13-10 .263-.038 1.51 2.717 3.5 4 4.017 2.589 9.828 8.909 14 .5 3.727-7.512-1.01-10.27-2-14.5-.307-1.312-2.001-2.179-2-2.5.003-1.235 8.284-17.029 9-23 4.528-37.786-23.857-71.862-61-76.5v-5c25.782 1.61 5.82-20.562-9-12-6.333-2.491-7.924-9.376-9-15 50.489-5.39 99 32.871 106 83"/><path fill="#507d92" d="M499 290c1.076 5.624 2.667 12.509 9 15-.79.456-3.152 4.587-3 6-1.846-1.003-.443-2.424-1.5-3-4.421-2.41-21.174-3.674-19.5-14 3.121-.94 10.346-3.649 13-4 .643-.085 1.352.069 2 0"/><path fill="#6396a7" d="M484 294c-1.674 10.326 15.079 11.59 19.5 14 1.057.576-.346 1.997 1.5 3 4.601 2.501 2.489 5.406 12 6v5c-2.33-.291-6.012-1.01-8-1-4.37.023-14.739 1.753-19 3 .702-3.778-2.603-6.272-5-9-3.237-3.683-.771-7.524-11-4 .022-5.983-3.003-4.84-4-11 3.954-1.966 6.686-3.509 11-5 1.035-.358 1.921-.675 3-1"/><path fill="#caf6ff" d="M280 303c-5.11 2.467-22.531 18.889-24 7 .724-1.172 1.05-5.278 2-6.5 6.874-8.843 15.976-10.864 22-.5"/><path fill="#7ba9b5" d="M470 300c.997 6.16 4.022 5.017 4 11-.004 1.205-2.519 3.247-2 5.5 1.211 5.262 11.145 4.316 13-1.5 2.397 2.728 5.702 5.222 5 9-6.736 1.972-13.739 6.814-20 10-1.517-3.908-6.674-11.474-10-14l-11-6.5c6.367-5.725 13.369-9.705 21-13.5"/><path fill="#30c9ec" d="M788 343c8.603 30.349 9.768 64.237 3 95 2.186-16.546 3.833-68.251-2-82.5-.377-.922-2.927.315-1.5-3.5-1.825-.914-3.283.925-3.5 1-.315.109-.751-.125-1 0v-1c-3.409-11.339-9.823-16.72-22-14-.817.182-1.164.674-2 1-10.927 4.261-13.222 15.318-14 26l-8-42c.608 1.035 1.634 5.196 4 4 11.511-5.808 20.669-.878 32 1.5.934-1.429-6.632-23.512-8-26.5-.529-3.937 2.804 1.176 3 1.5 7.291 12.079 12.7 26.557 17 40z"/><path fill="#b9f0fd" d="M280 303c.466.802 2.598 2.363 3 4.5 1.084 5.77-3.429 39.497-8.5 41.5-3.901 1.54-30.078-.862-31.5-6.5-1.504-5.961 9.443-26.737 13-32.5 1.469 11.889 18.89-4.533 24-7"/><path fill="#a8c1cd" d="M517 317c-9.511-.594-7.399-3.499-12-6-.152-1.413 2.21-5.544 3-6 14.82-8.562 34.782 13.61 9 12"/><path fill="#bcdee3" d="M485 315c-1.855 5.816-11.789 6.762-13 1.5-.519-2.253 1.996-4.295 2-5.5 10.229-3.524 7.763.317 11 4"/><path fill="#fefefe" d="M460 320c3.326 2.526 8.483 10.092 10 14 7.181 18.496 1.017 35.885-14 48-3.492.514-8.394 3.703-12 4-11.507.948-19.292-4.314-27-12-.9-3.896-6.129-9.439-7-15.5-1.45-10.085.834-23.176 7-31.5.295-.398 6.595-6.715 7-7 10.625-7.49 25.375-8.07 36 0"/><path fill="#637c8e" d="M509 321c6.127 30.645-16.058 55.647-44.5 62-2.911.65-7.874-1.092-8.5-1 15.017-12.115 21.181-29.504 14-48 6.261-3.186 13.264-8.028 20-10 4.261-1.247 14.63-2.977 19-3"/><path fill="#173048" d="M517 322c37.143 4.638 65.528 38.714 61 76.5-.716 5.971-8.997 21.765-9 23-.001.321 1.693 1.188 2 2.5-9.688-3.318-13.539 5.406-12 14-1.99-1.283-3.237-4.038-3.5-4-.811.119-10.188 8.602-13 10-45.689 22.712-95.436-8.364-98.5-58 3.606-.297 8.508-3.486 12-4 .626-.092 5.589 1.65 8.5 1 28.442-6.353 50.627-31.355 44.5-62 1.988-.01 5.67.709 8 1m19.5 78c-20.642 2.598-20.342 44.582 7 39 20.436-4.172 16.543-41.963-7-39"/><path fill="#265578" d="M417 327c-6.166 8.324-8.45 21.415-7 31.5.871 6.061 6.1 11.604 7 15.5.023.1-2.101-.285-2 .5.058.453 1.982 1.591 2 2 .209 4.653-1.553 10.359-1 16 4.529 46.228 38.36 82.073 85 86.5-3.229 6.637 1.458 17.407-7 18-71.897-8.583-114.228-82.938-91-150.5 2.322-6.754 10.914-18.218 12-21.5z"/><path fill="#94effb" d="M381 334c-21.678 51.96-10.896 78.895 11 125.5.877 1.867 1.372 2.646 0 4.5-15.555-.764-6.255 16.889-2 24-40.63-46.087-46.493-103.964-23-160 2.609 4.203 9.574 4.906 14 6"/><path fill="#1c97be" d="M390 488c-4.255-7.111-13.555-24.764 2-24 5.049.248 21.33 19.141 27.5 24 22.72 17.892 54.429 31.216 83.5 33 45.46 2.789 85.736-14.695 115-49 22.769-26.691 33.054-55.748 33-91-.006-4.174.424-8.836 0-13 11.49-1.51-.348-27.98 7-37 64.323 166.118-152.379 288.151-268 157"/><path fill="#54798a" d="M677.5 335c5.412-1.798 6.567 6.306 0 4-1.886-.662-1.86-3.382 0-4"/><path fill="#aee7f8" d="m783 352-22-14c12.177-2.72 18.591 2.661 22 14"/><path fill="#94d4f0" d="M783 352v1c-2.647 1.328-4.213 4.355-7.5 5-12.775 2.507-22.269-6.862-16.5-19 .836-.326 1.183-.818 2-1z"/><path fill="url(#c)" d="M759 339c-5.769 12.138 3.725 21.507 16.5 19 3.287-.645 4.853-3.672 7.5-5 .249-.125.685.109 1 0 3.372 17.077 6.921 36.085 6 53.5-.556 10.504-3.481 21.263-7 30.5-10.366-2.828-33.235.295-41 8 .753-7.276 2.469-14.718 3-22 1.383-18.987-1.306-40.058 0-58 .778-10.682 3.073-21.739 14-26m6.5 45c-5.698 1.613-8.327 14.475 0 16 12.761 2.337 15.065-20.264 0-16" style="fill:url(#c)"/>/&gt;<path fill="#0fcaf5" d="M228 356c-20.331-6.875-20.501 13.669-2 16-1.936 25.394-.405 47.973 3.5 73-.806.571-6.652-.512-8-1-22.647-8.203-19.717-101.682 4-104 9.373-.916 3.137 9.77 2.5 16"/><path fill="#40cae4" d="M816 399h-7c1.143-6.727-1.569-30.01-4-36.5-1.798-4.799-6.821-12.616-12-11.5-.151-1.421-2.162-9.042-2-9.5 4.075-4.474 12.345 2.513 15 6 8.165 10.727 10.277 38.029 10 51.5"/><path fill="#1cd4f1" d="M809 399c-1.446 8.509-5.031 6.136-12 8 .695-19.989-1.925-36.493-4-56 5.179-1.116 10.202 6.701 12 11.5 2.431 6.49 5.143 29.773 4 36.5"/><path fill="#accbdb" d="M335 501c-3.489 6.376-6.649 19.326-4 26-38.076-49.546-47.97-115.694-34-176-1.424 25.57-1.53 51.365 4 76.5 2.793 12.695 8.47 31.353 14 43 1.369 2.884 18.434 29.566 20 30.5"/><path fill="#346796" d="M791 438c-3.152 23.858-18.649 63.178-37 79-24.608 6.307-15.511-28.624-7-39.5 12.948-16.545 29.257-2.182 31-4l10.5-35.5c-1.945.252-3.708-.511-5.5-1 3.519-9.237 6.444-19.996 7-30.5.921-17.415-2.628-36.423-6-53.5.217-.075 1.675-1.914 3.5-1-1.427 3.815 1.123 2.578 1.5 3.5 5.833 14.249 4.186 65.954 2 82.5"/><path fill="#d1f3fc" d="M228 356c-.539 5.269-1.636 11.225-2 16-18.501-2.331-18.331-22.875 2-16"/><path fill="url(#d)" d="M277 400c-.352 3.692-2.638 8.293 0 12-.135 10.327-1.821 49.111 7 54.5 2.314 1.414 2.953-.673 5-.5 2.068 7.865 4.14 15.778 8 23-.916-1.297-4.913-5.288-6-3-5.796-14.575-26.944-38.335-44.5-34-4.531 1.119-6.663 4.728-6.5 9l-11-35c-.085-.642.076-1.355 0-2 2.527-14.803-.323-30.615 1-45.5.104-1.165 2.756-6.599 3-8.5 14.658-17.043 38.19-6.756 44 12.5.065.217-2.051 1.764-2 2 .211.971 2.859.039 3 1 .392 2.665-.695 11.303-1 14.5m-23.5-14c-6.298 1.701-6.943 13.172-1 15 12.717 3.911 17.149-19.362 1-15" style="fill:url(#d)"/>/&gt;<path fill="#054770" d="m638 390-13 2c.502-7.369.761-13.631 0-21-.21-2.032-.845-2.948-1-4 4.091-1.098 8.364.006 11-3.5 2.131 8.802 3.083 17.416 3 26.5"/><path fill="#2e91c4" d="M625 371c.761 7.369.502 13.631 0 21-.341 5.009-1.028 9.972-1 15-2.812 3.159-1.873 8.323-3 11-1.554 3.693-3.286 7.377-5 11-8.161 17.252-15.912 31.492-31 44-2.691 2.231-9.261 7.383-12 9-4.187 2.472-15.355 7.479-20 9-6.278 2.055-13.472 2.892-20 4-8.986 1.525-17.811 3.14-27 3-4.052-.062-7.999-.522-12-1 8.458-.593 3.771-11.363 7-18 61.844 5.871 112.743-43.391 104-106 6.958.507 13.267-4.785 20-2"/><path fill="#3cb8dd" d="m618 472-5-4c17.901-21.645 27.576-49.082 28-77 12.125 1.112 7.515-.868 10-10 .054 35.252-10.231 64.309-33 91"/><path fill="#495b6b" d="M512 553c-50.495-.132-95.645-22.022-126-62 2.338-1.54 2.155-1.219 4 .5 31.93 29.76 57.314 50.746 103.5 54.5 100.588 8.176 178.981-61.871 178.5-163 3.009-.435 1.938 2.673 2 4.5 3.135 93.004-69.089 165.743-162 165.5"/><path fill="#7bd3fa" d="M765.5 384c15.065-4.264 12.761 18.337 0 16-8.327-1.525-5.698-14.387 0-16"/><path fill="#9aeefe" d="M253.5 386c16.149-4.362 11.717 18.911-1 15-5.943-1.828-5.298-13.299 1-15"/><path fill="#096aa0" d="M638 390c-.043 4.652-.446 9.398-1 14-3.591-1.008-10.644.352-13 3-.028-5.028.659-9.991 1-15z"/><path fill="#249abd" d="M816 399c-.283 13.736-3.284 50.776-24 43.5 3.228-11.424 4.588-23.668 5-35.5 6.969-1.864 10.554.509 12-8z"/><path fill="#187fc2" d="M277 412c-2.638-3.707-.352-8.308 0-12-.37.671.027 9.926 0 12"/><path fill="#0f568b" d="M279 400c.186 20.364 4.808 46.252 10 66-2.047-.173-2.686 1.914-5 .5-8.821-5.389-7.135-44.173-7-54.5.027-2.074-.37-11.329 0-12 .05-.09 1.403.052 2 0"/><path fill="#84949f" d="M536.5 400c23.543-2.963 27.436 34.828 7 39-27.342 5.582-27.642-36.402-7-39"/><path fill="#06233f" d="M322.5 401c29.821-4.971 31.012 38.882 5 40-25.545 1.098-26.414-36.43-5-40m1 2c-20.853 2.783-17.688 37.203 5 35 21.578-2.095 19.654-38.29-5-35"/><path fill="#061d31" d="M694.5 401c29.945-2.416 28.083 45.169-3 40-20.974-3.488-18.722-38.247 3-40M681 428c5.603 14.028 26.893 13.418 31-1 9.223-32.38-43.175-29.484-31 1"/><path fill="#39e2eb" d="M323.5 403c24.654-3.29 26.578 32.905 5 35-22.688 2.203-25.853-32.217-5-35m-1 3c-8.471 1.017-15.056 13.673-8 20 1.711-.179 2.261-9.471 7-12 4.091-2.183 8.613 1.121 9-4 4.381 2.943 7.376 6.322 8.5 11.5 1.204-8.628-8.026-16.517-16.5-15.5m12 11-10 16c10.836-2.067 17.24-7.277 10-16"/><path fill="#0d8ac5" d="M637 404c-.583 4.838-1.798 10.262-3 15-3.537 2.68-7.124-2.226-13-1 1.127-2.677.188-7.841 3-11 2.356-2.648 9.409-4.008 13-3"/><path fill="#1eaac0" d="M712 427c-4.354-6.224-1.989-13.045-9.5-18 3.256 8.149 8.716 10.205 3.5 18 1.459-11.885-9.848 2.295-10 6-6.076.056-5.37-2.67-6-3 6.17-2.358 10.63-7.795 13-13.5l-2.5-2.5c-8.344-3.344-16.351 4.333-14.5 13-2.364-1.445-4.45-3.767-5 1-12.175-30.484 40.223-33.38 31-1"/><path fill="#01b2ec" d="M322.5 406c8.474-1.017 17.704 6.872 16.5 15.5-1.124-5.178-4.119-8.557-8.5-11.5-.387 5.121-4.909 1.817-9 4-4.739 2.529-5.289 11.821-7 12-7.056-6.327-.471-18.983 8-20"/><path fill="#1ea7a9" d="M712 427c-4.107 14.418-25.397 15.028-31 1 .55-4.767 2.636-2.445 5-1 1.832 1.12 1.652 1.768 4 3 .63.33-.076 3.056 6 3 5.083-.047 7.265-1.912 10-6 5.216-7.795-.244-9.851-3.5-18 7.511 4.955 5.146 11.776 9.5 18"/><path fill="#5fc2d4" d="M690 430c-2.348-1.232-2.168-1.88-4-3-1.851-8.667 6.156-16.344 14.5-13l2.5 2.5c-2.37 5.705-6.83 11.142-13 13.5"/><path fill="#029ee0" d="M334.5 417c7.24 8.723.836 13.933-10 16z"/><path fill="#14aae1" d="M634 419c-.854 3.367-2.942 7.029-4 10-3.697 3.236-9.678 2.682-14 0 1.714-3.623 3.446-7.307 5-11 5.876-1.226 9.463 3.68 13 1"/><path fill="#0381b0" d="M706 427c-2.735 4.088-4.917 5.953-10 6 .152-3.705 11.459-17.885 10-6"/><path fill="#fdfdfe" d="M571 424c.99 4.23 5.727 6.988 2 14.5-4.172 8.409-9.983 2.089-14-.5-1.539-8.594 2.312-17.318 12-14"/><path fill="#39b4e2" d="M240 461c.012.327-.05.683 0 1l-2 1c-4.06-12.171-7.31-24.236-9-37z"/><path fill="#1dd2f6" d="M630 429c-8.583 24.09-23.869 45.651-46 59 5.834-5.965 9.703-7.983 1-15 15.088-12.508 22.839-26.748 31-44 4.322 2.682 10.303 3.236 14 0"/><path fill="#164e7b" d="M783 437c1.792.489 3.555 1.252 5.5 1L778 473.5c-1.743 1.818-18.052-12.545-31 4-8.511 10.876-17.608 45.807 7 39.5-.971.837-4.611 5.933-5.5 6-2.215.167-1.231-2.021-2-2-12.927.35-25.68.581-38.5 2.5 4.355-9.282 10.832-17.636 15-27 4.638-10.419 13.901-46.441 19-51.5 7.765-7.705 30.634-10.828 41-8"/><path fill="#164c79" d="M291 486c3.816 9.596 5.403 20.24 5 30.5-21.392 6.558-27.546-1.998-38-18-3.286-5.03-17.29-32.017-18-36.5-.05-.317.012-.673 0-1-.163-4.272 1.969-7.881 6.5-9 17.556-4.335 38.704 19.425 44.5 34"/><path fill="#195d8f" d="M291 486c1.087-2.288 5.084 1.703 6 3 6.211 8.789 10.389 24.984 19 33.5l-43.5.5c-16.091-16.839-27.16-37.993-34.5-60l2-1c.71 4.483 14.714 31.47 18 36.5 10.454 16.002 16.608 24.558 38 18 .403-10.26-1.184-20.904-5-30.5"/><path fill="#30d0f3" d="M618 472c-29.264 34.305-69.54 51.789-115 49l2-6c40.265 1.648 82.241-15.852 108-47z"/><path fill="#1aade5" d="M584 488c-2.166 2.215-2.492 1.869-4 3l-7-9c2.739-1.617 9.309-6.769 12-9 8.703 7.017 4.834 9.035-1 15"/><path fill="#1187c3" d="m573 482 7 9c-13.018 9.768-36.812 18.3-53 20-.618-2.677 4.659-2.467 7-3 11.438-2.604 25.566-2.084 19-17 4.645-1.521 15.813-6.528 20-9"/><path fill="#086396" d="M553 491c6.566 14.916-7.562 14.396-19 17l-1-13c6.528-1.108 13.722-1.945 20-4"/><path fill="#054770" d="M534 508c-2.341.533-7.618.323-7 3-13.691 1.438-23.949 4.958-21-13 9.189.14 18.014-1.475 27-3z"/><path fill="#a9c5d2" d="M359.5 497c9.819-3.282 16.336 10.864 10 15-10.111 6.601-18.646-12.11-10-15"/><path fill="#cbeaf9" d="M337 502c5.183 6.923 11.083 17.071 19 21 .484 2.096 1.137 4.909 1 7-.762 11.644-14.431 8.649-21 3-.296-.255-4.856-5.637-5-6-2.649-6.674.511-19.624 4-26 .605.361 1.344.702 2 1"/><path fill="#edf7fe" d="M356 523c-7.917-3.929-13.817-14.077-19-21 .21.095 2.155-2.096 4.5-1 5.35 2.5 13.181 16.288 14.5 22"/><path fill="#accbdb" d="M336 533c-1.822-2.169-3.175-3.625-5-6 .144.363 4.704 5.745 5 6"/><path fill="#a0b7c4" d="M421 578c-5.254 2.532-10.983 5.964-16 9-26.91-13.191-49.773-31.118-69-54 6.569 5.649 20.238 8.644 21-3 11.129 7.32 19.589 19.554 30.5 28 10.261 7.943 22.022 14.049 33.5 20"/><path fill="#0698ad" d="M518 557c35.753 1.1 68.602 11.739 99 30 1.654.994 2.897 1.292 4 2 .874.561 2.656 2.08 4 3 3.631 2.485 7.563 5.269 11 8 .307.244 1.673 2.729 2 3-1.321 2.317-5.489 4.58-5 7.5.28 1.674 21.721 20.049 24 24 .848 3.242-1.907 2.369-2 2.5-12.556-10.709-23.633-23.719-37.5-33-10.144-6.789-23.344-10.99-33-17-1.788-1.113 1.492-2.975-1-5-4.909-3.99-48.741-11.522-57-12-15.204-.88-32.485.523-47.5 3-6.749 1.113-13.431 3.146-20 5 .194-3.686 7.979-2.538 9-4.5 1.23-2.362-1.711-8.578-1-11.5 18.089-4.056 32.347-5.574 51-5"/><path fill="#16a7be" d="M467 562c-.711 2.922 2.23 9.138 1 11.5-1.021 1.962-8.806.814-9 4.5-54.559 15.402-100.759 54.73-123 107-4.989 5.224-6.201-1.5-12-4-.116-1.302.18-2.717 0-4 4.519-5.745 7.35-12.677 11-19 5.299-9.18 10.286-16.782 17-25 1.124-1.376.928-1.914 1-2 4.857-5.767 13.298-13.804 19-19 7.548-6.878 16.567-14.288 25-20 1.576-1.068 3.191-2.485 4-3 .689-.439 2.512-1.1 4-2 5.017-3.036 10.746-6.468 16-9 14.086-6.788 30.717-12.573 46-16"/><path fill="#608192" d="M397 592c-8.433 5.712-17.452 13.122-25 20-6.952-6.192 2.89-4.454 1-11.5-2.083-4.779-9.991-4.239-11 0-1.186 4.981 5.94 5.618 2.5 8.5-5.555 1.464-16.804-11.491-22.5-6-5.834-11.115-11.537-19.913-24-24.5 11.374-10.816 24.34-12.172 37.5-14.5zm-49.5-24c-.398.162-2.523 5.178-5 7-4.68 3.441-12.312-.56-7.5 10.5.454 1.043 6.303 6.205 7.5 6.5 22.354 5.514 14.224-27.752 5-24"/><path fill="#49646f" d="M668 632c-.228-.138-.695.123-1 0-6.005-9.657-14.612-17.521-23-25 16.103 4.33 29.512-3.746 38-17 1.066-1.665 4.82-5.989 5-7.5.676-5.674-11.996-14.25-17.5-13.5-8.627 1.175-9.38 10.755-5.5 17-5.679-.41-23.703 9.061-28 14-3.437-2.731-7.369-5.515-11-8 8.715-.82 40.077-27.43 43.5-28 3.796-.633 5.666 2.974 6 3 1.768.136 2.666-2.073 3-2 1.721.374 15.775 7.038 17 8 1.972 1.549-.548 5.21 5.5 5.5-20.411 9.883-24.695 34.139-32 53.5"/><path fill="#315b73" d="M347.5 568c9.224-3.752 17.354 29.514-5 24-1.197-.295-7.046-5.457-7.5-6.5-4.812-11.06 2.82-7.059 7.5-10.5 2.477-1.822 4.602-6.838 5-7"/><path fill="#1e364b" d="M682 590c-3.586-1.48-7.278.693-10.5 0-3.042-.654-4.923-3.814-7.5-4-3.88-6.245-3.127-15.825 5.5-17 5.504-.75 18.176 7.826 17.5 13.5-.18 1.511-3.934 5.835-5 7.5"/><path fill="#c3e8e8" d="M655 637c-.811 1.145-1.447 2.63-3 3-.257-.08-.711-.011-1 0-41.797-48.998-109.012-71.483-172-60v-7c15.015-2.477 32.296-3.88 47.5-3 8.259.478 52.091 8.01 57 12 2.492 2.025-.788 3.887 1 5 9.656 6.01 22.856 10.211 33 17 13.867 9.281 24.944 22.291 37.5 33"/><path fill="#a2e4e5" d="M479 573v7c-65.861 12.007-124.421 60.105-143 125-4.544 1.64-1.005 9.058-8 5 2.608-9.446 4.069-15.761 8-25 22.241-52.27 68.441-91.598 123-107 6.569-1.854 13.251-3.887 20-5"/><path fill="url(#e)" d="M651 640c-3.735.144-55.465 35.872-62.5 41-35.426 25.825-67.144 59.898-108 77-19.738-18.766-54.67-45.965-82.5-33-1.214.028-11.919 2.309-12 3.5 2.669 1.4 4.042 3.439 6 5.5 12.386 25.616 27.073 50.076 38 76.5 6.312 15.263 26.627 84.02 33 91 3.621 3.966 10.295 4.315 15.5 3.5 13.296-2.083 45.153-37.608 55.5-48.5 51.796-54.524 98.885-113.799 147-171.5-.113 1.87 10.778 28.875 12 35.5 34.419 186.652-211.011 295.6-328 142.5-13.73-17.968-19.6-31.347-28-52-12.05-34.859-11.081-70.789-1-106 18.579-64.895 77.139-112.993 143-125 62.988-11.483 130.203 11.002 172 60" style="fill:url(#e)"/>/&gt;<path fill="#b8c7cd" d="M352 633c-6.714 8.218-11.701 15.82-17 25-3.088-4.729-4.744-8.932-9-13-1.189-5.407 7.273-6.134 10-12.5 6.076-14.186-3.987-38.382-17-44.5-2.151-1.011-2.104-2.91-2.5-3-3.847-.879-9.394.176-13 2-4.421 2.237-20.388 21.439-7.5 23-.35.224-1.919 1.468-2 2-1.221-1.56-9.914-8.424-10-9.5 33.041-49.89 57.184-6.35 68 30.5"/><path fill="#788b93" d="m728 609 .5-3c-4-.988-8.954-2.608-13-2-13.408 2.014-7.906 21.545 5.5 13-5.119 15.433-24.248 18.433-38 21.5V628c.617-2.618 4.268-24.237 4-25.5-.344-1.622-2.318-1.565-3 0 .552 5.314-6.799 9.141-8 11.5 5.044-16.481 20.394-43.842 40.5-31 2.004 1.28 18.575 18.155 18.5 19.5-1.716 2.426-5.248 4.49-7 6.5"/><path fill="#a5c2cc" d="M319 588c-7.32 7.447-14.077 16.303-23 22-12.888-1.561 3.079-20.763 7.5-23 3.606-1.824 9.153-2.879 13-2 .396.09.349 1.989 2.5 3"/><path fill="#648697" d="M682 590c-8.488 13.254-21.897 21.33-38 17-1.747-1.557-4.892-3.081-6-4-.327-.271-1.693-2.756-2-3 4.297-4.939 22.321-14.41 28-14 2.577.186 4.458 3.346 7.5 4 3.222.693 6.914-1.48 10.5 0m-22.5 5c-5.148 1.185-4.378 11.507 3 9 4.239-1.441 3.269-10.443-3-9"/><path fill="#dde8ed" d="M326 645c-4.02-3.842-10.384-7.849-16-8-4.176-8.458-10.176-17.556-16-25 .081-.532 1.65-1.776 2-2 8.923-5.697 15.68-14.553 23-22 13.013 6.118 23.076 30.314 17 44.5-2.727 6.366-11.189 7.093-10 12.5"/><path fill="#2e5165" d="M659.5 595c6.269-1.443 7.239 7.559 3 9-7.378 2.507-8.148-7.815-3-9"/><path fill="#53707e" d="M372 612c-5.702 5.196-14.143 13.233-19 19-3.393-9.439-6.316-19.075-11-28 5.696-5.491 16.945 7.464 22.5 6 3.44-2.882-3.686-3.519-2.5-8.5 1.009-4.239 8.917-4.779 11 0 1.89 7.046-7.952 5.308-1 11.5"/><path fill="#1073b0" d="M307 638c-3.5-3.027-10.791-1.704-12 3-2.266 1.582-2.212.51-3-1.5-5.283-13.478-10.793-20.208-22-26.5-4.28-2.403-10.224-5.951-15-7-.985-.216-3.794-.994-4-1 19.976-11.967 40.463 3.192 51 20.5 2.265 3.721 3.35 9.047 5 12.5"/><path fill="#3f5259" d="M683 628c-.024.1-1.779-.361-2 .5-1.188 4.633 2.821 11.576-6 11.5-.693-1.031-4.103-5.155-5-6 2.094-6.532 2.85-13.811 6-20 1.201-2.359 8.552-6.186 8-11.5.682-1.565 2.656-1.622 3 0 .268 1.263-3.383 22.882-4 25.5"/><path fill="#1ca2db" d="M750 601c-12.423 1.97-25.086 16.12-33 27 5.725-13.598 18.284-25.182 33-27"/><path fill="#0e75b3" d="M770 605c-6.03-.199-15.539 4.451-20.5 8-4.468 3.197-12.214 14.868-14 16-3.623 2.298-15.798 2.613-20.5 4-.553-2.38.8-3.351 2-5 7.914-10.88 20.577-25.03 33-27 6.255-.992 14.918.465 20 4"/><path fill="#048fa1" d="M644 607c8.388 7.479 16.995 15.343 23 25-1.209-.487-2.345-2.039-2.5-2-.413.103-6.386 5.09-6.5 5.5-.425 1.527 5.008 4.925 4 8-.089.271-4.215 3.502-4.5 3.5-.961-.007-4.747-6.766-5.5-7 1.553-.37 2.189-1.855 3-3 .093-.131 2.848.742 2-2.5-2.279-3.951-23.72-22.326-24-24-.489-2.92 3.679-5.183 5-7.5 1.108.919 4.253 2.443 6 4"/><path fill="#74858c" d="M728 609c-1.819 2.086-5.009 6.731-7 8-13.406 8.545-18.908-10.986-5.5-13 4.046-.608 9 1.012 13 2z"/><path fill="#c4f4fa" d="M251 605c.206.006 3.015.784 4 1-1.135 2.132-4.171-.171-2 3-16.279-1.909-29.461 15.109-35 29l-1-1c5.942-13.789 16.464-32.505 34-32"/><path fill="#ccf1fb" d="M770 605c18.767.619 29.95 25.031 35 40-.68 4.893-2.708-.665-3-1.5-18.403-52.553-55.516-39.638-71 4.5-4.074.511-1.624 4.334-7 4 2.527-7.365 4.788-13.877 9-20.5L711.5 644c-3.902-.762.436-4.181.5-7 .022-.957-1.094-1.095-1-2 1.922-.573 3.679-1.905 4-2 4.702-1.387 16.877-1.702 20.5-4 1.786-1.132 9.532-12.803 14-16 4.961-3.549 14.47-8.199 20.5-8"/><path fill="#eafafe" d="M270 613c3.989 4.212 7.527 8.315 11 13-.444 1.215-1.144 1.344-1 3-6.753-7.145-16.475-18.766-27-20-2.171-3.171.865-.868 2-3 4.776 1.049 10.72 4.597 15 7"/><path fill="#09b0ed" d="M253 609c10.525 1.234 20.247 12.855 27 20 .247 2.844 7.249 13.253 9 17-5.26 2.831-3.409-3.454-8-4-19.366-34.013-50.789-24.399-63 9-6.569-2.255-1.985-8.022 0-13 5.539-13.891 18.721-30.909 35-29"/><path fill="#1ab4eb" d="M805 645c6.844 20.288 9.291 38.428 8 60h-7c.056-.988-.035-2.009 0-3 .076-2.132 1.008-6.453 1-7 8.15-30.39-28.015-106.167-62-63-4.046 5.139-7.077 11.177-10 17-.171-.115-3.513-1.061-4-1 15.484-44.138 52.597-57.053 71-4.5.292.835 2.32 6.393 3 1.5"/><path fill="#42a1cd" d="M295 641c-1.8 7.005 4.259 11.547 5 14 3.825 12.667 7.319 26.806 9 40-3.387.065-3.453-1.152-4 2.5-2.892 19.315 1.582 28.786-6 51.5v-20c.381-4.348 1.29-16.055-2-19 .139-2.478 4.535-3.797 0-3.5-2.501-16.741-3.778-33.719-10-49.5-.631-5.186-3.46-10.539-6-15 4.591.546 2.74 6.831 8 4 2.671 5.715 4.086 12.164 6.5 18 5.972 2.15-.485-13.952-1.5-16.5-3.001-7.528-8.179-14.997-13-21.5-3.473-4.685-7.011-8.788-11-13 11.207 6.292 16.717 13.022 22 26.5.788 2.01.734 3.082 3 1.5"/><path fill="#0875c0" d="M807 695c-.165-10.684-2.206-23.67-5-34-7.48-27.651-29.329-54.432-57-29 33.985-43.167 70.15 32.61 62 63"/><path fill="#013757" d="M281 642c2.54 4.461 5.369 9.814 6 15-17.029-43.192-54.832-45.526-69 1-3.212 3.078-.394-5.921 0-7 12.211-33.399 43.634-43.013 63-9"/><path fill="#d2f3fc" d="M802 661c-8.755-2.509-10.497-16.036-22-13-11.729-4.49-23.923 1.848-31 12-7.251-.059-10.073-7.708-13-10-.056-.044 0-.33-1-1 2.923-5.823 5.954-11.861 10-17 27.671-25.432 49.52 1.349 57 29"/><path fill="url(#f)" d="M287 657c6.222 15.781 7.499 32.759 10 49.5 4.535-.297.139 1.022 0 3.5-1.323 23.663-5.442 48.675-22 66.5l2.5.5c12.86-11.853 19.989-30.745 21.5-48v20c-5.901 17.678-13.004 28.884-29 39-42.791-.223-62.038-47.852-64-85 1.145.675 6.806 6.545 7 7 3.379 7.941 2.116 25.001 9 32.5 1.245-6.465-1.091-11.735-2-17.5h2c.641 2.71.531 6.02 3 8 .035.652-.098 1.365 0 2 1.266 8.224 10.651 20.5 19.5 22 43.017 7.291 46.799-85.328 17-106-14.334-9.944-26.753-4.713-35.5 9-6.618.061-8.116 25.532-12.5 23 .423-8.443 2.046-16.94 4.5-25 14.168-46.526 51.971-44.192 69-1" style="fill:url(#f)"/>/&gt;<path fill="#b6e6f8" d="M289 646c-1.751-3.747-8.753-14.156-9-17-.144-1.656.556-1.785 1-3 4.821 6.503 9.999 13.972 13 21.5 1.015 2.548 7.472 18.65 1.5 16.5-2.414-5.836-3.829-12.285-6.5-18"/><path fill="#038392" d="M667 632c.305.123.772-.138 1 0 1.013.613 1.029 1.086 2 2 .897.845 4.307 4.969 5 6 .408.607 1.769 3.977 2 5-22.655 9.705-65.697 37.235-86.5 52-16.396 11.637-96.006 86.189-107 85-17.753-22.03-55.357-57.684-85.5-57 27.83-12.965 62.762 14.234 82.5 33 40.856-17.102 72.574-51.175 108-77 7.035-5.128 58.765-40.856 62.5-41 .289-.011.743-.08 1 0 .753.234 4.539 6.993 5.5 7 .285.002 4.411-3.229 4.5-3.5 1.008-3.075-4.425-6.473-4-8 .114-.41 6.087-5.397 6.5-5.5.155-.039 1.291 1.513 2.5 2"/><path fill="#2c80bb" d="M724 652c-.691 2.014-1.379 3.948-2 6h-3c-.006-.158-.873-2.71-1-3-.242-.551-7.43-8.805-8-9-.941-.321-2.8.207-4 0 .969-1.845 1.604-3.952 2-6 1.583-.826 2.383-2.304 4-3-.064 2.819-4.402 6.238-.5 7l21.5-12.5c-4.212 6.623-6.473 13.135-9 20.5"/><path fill="#fefefe" d="M711 635c-.094.905 1.022 1.043 1 2-1.617.696-2.417 2.174-4 3-88.475 46.175-143.687 149.353-210 219.5-6.165 6.522-13.387 15.686-23.5 13.5-11.677-2.524-24.949-48.329-31.5-59.5-1.162-1.982-1.232-2.99-4-2.5-12.294-27.577-26.296-55.21-47-77-1.958-2.061-3.331-4.1-6-5.5.081-1.191 10.786-3.472 12-3.5 30.143-.684 67.747 34.97 85.5 57 10.994 1.189 90.604-73.363 107-85 20.803-14.765 63.845-42.295 86.5-52 10.862-4.653 22.745-6.643 34-10"/><path fill="#94d8fb" d="M307 638c.668 1.398 1.337 2.508 2 4-.924 6.258-1.559 11.511-9 13-.741-2.453-6.8-6.995-5-14 1.209-4.704 8.5-6.027 12-3"/><path fill="#48bfe3" d="M218 638c-1.985 4.978-6.569 10.745 0 13-.394 1.079-3.212 10.078 0 7-2.454 8.06-4.077 16.557-4.5 25 4.384 2.532 5.882-22.939 12.5-23-6.467 10.138-9.916 26.038-10 38-4.056.515-6.096 3.528-10 2-.617-22.514 2.105-42.36 11-63z"/><path fill="#829aa0" d="M326 645c4.256 4.068 5.912 8.271 9 13-3.65 6.323-6.481 13.255-11 19-1.548-11.022-8.972-29.818-14-40 5.616.151 11.98 4.158 16 8"/><path fill="#d3dce1" d="M708 640c-.396 2.048-1.031 4.155-2 6-.741 1.41-1.867 2.873-3 4-2.688 2.675-10.957 7.592-15 11-2.768 2.333-5.301 4.647-8 7-1.512 1.318-3.328 2.52-5 4-71.551 63.354-113.239 129.433-175 196.5-7.244 7.867-26.594 30.458-36 14-7.178-12.56-16.642-52.752-25-71.5 2.768-.49 2.838.518 4 2.5 6.551 11.171 19.823 56.976 31.5 59.5 10.113 2.186 17.335-6.978 23.5-13.5 66.313-70.147 121.525-173.325 210-219.5"/><path fill="#1f5587" d="M323 681c-.153 8.76-12.543 31.776-12 43-.173-9.352-.814-19.691-2-29-1.681-13.194-5.175-27.333-9-40 7.441-1.489 8.076-6.742 9-13 3.311 7.455 14.119 32.204 14 39"/><path fill="#103660" d="M225 735c11.923 24.784 36.134 28.81 48 1 2.353-5.515 5.5-17.152 6-23 1.802-21.068-9.718-79.552-41-62-11.432 6.414-18.254 30.349-18 43-1.045 6.838-.194 8.068 0 14 .213 6.489.499 10.651 2 17h-2c-.836-5.306-2.493-10.615-3-16-.27-2.865-1.017-8.635-1-11 .084-11.962 3.533-27.862 10-38 8.747-13.713 21.166-18.944 35.5-9 29.799 20.672 26.017 113.291-17 106-8.849-1.5-18.234-13.776-19.5-22"/><path fill="#0c2f54" d="m710 646-9 18.5c1.5 2.917 14.762-8.903 17-9.5.127.29.994 2.842 1 3 .091 2.456-7.071 22.064-8 27.5-1.639 9.587-.833 19.964-3 29.5-2.907-13.953-8.112-27.109-14-40l9-25c1.133-1.127 2.259-2.59 3-4 1.2.207 3.059-.321 4 0"/><path fill="#1a5082" d="M718 655c-2.238.597-15.5 12.417-17 9.5l9-18.5c.57.195 7.758 8.449 8 9"/><path fill="#103460" d="M780 648c18.069 6.916 23.169 36.127 23 53-.105 10.477-4.434 22.159-5 32l-2-1c1.737-5.786 2.376-11.987 3-18 1.877-18.085 1.043-38.451-9-54-.974-1.509-2.02-1.883-3-3-1.941-2.212-.324-1.476-4-4-6.906-4.74-7.456-6.571-17-4-30.042 8.092-30.242 70.497-16 93 10.266 16.221 28.622 18.899 39 1l3-3c-16.055 33.248-43.914 14.691-51-14-2.526-10.23-1.386-19.256-3-28 1.264-11.674 4.193-28.235 11-38 7.077-10.152 19.271-16.49 31-12"/><path fill="#56cae9" d="M802 661c2.794 10.33 4.835 23.316 5 34 .008.547-.924 4.868-1 7l-3-1c.169-16.873-4.931-46.084-23-53 11.503-3.036 13.245 10.491 22 13"/><path fill="#afd9e9" d="M279 713c-5.448-.153-2.907-18.56-5-20.5l-10 1.5c-.613-12.763-10.616-37.764-27.5-30-4.624 2.126-4.484 10.053-9.5 12-.002-.23-1.455-1.693-1-4.5.203-1.251 4.808-7.546 6-9 .081-.099-2.11-1.405-.5-2.5 1.355-.922 2.875 1.096 3 1 7.146-5.496 5.649-7.099 15-3 1.775-1.335 5.21-5.71 2-7H238c31.282-17.552 42.802 40.932 41 62"/><path fill="#60bfe1" d="M731 648c.487-.061 3.829.885 4 1 1 .67.944.956 1 1l-6 12.5c-3.692-.036-2.591-1.293-3-3.5-.037-.198 2.337-2.218.5-4-1.156.999-.072 2.981-.5 4-1.239 2.952-4.1 7.152-5 10.5-1.305 4.856-.243 21.991-7 17.5 1.146-10.043 4.097-19.404 7-29 .621-2.052 1.309-3.986 2-6 5.376.334 2.926-3.489 7-4"/><path fill="#a9d4e4" d="M783 653c-9.647-.635.618 12.304 4 4 .98 1.117 2.026 1.491 3 3-5.922 1.001 2.234 7.481 2 8.5l-4 1.5c-12.057-21.852-31.793 5.801-33 22l-9-.5c-1.167-2.285 5.34-20.859 7-24 3.726-7.05 11.532-11.871 13-18.5 9.544-2.571 10.094-.74 17 4m-14.5-2c-.611.198-1.709 1.994-2.5 2.5 8.501 12.207 17.66-7.422 2.5-2.5"/><path fill="#87b5c1" d="M755 692c-2.217 29.758 23.882 42.541 34 13 11.167-.807 7.853-.117 10 9-.624 6.013-1.263 12.214-3 18-.181.604-3.256 6.46-4 8l-3 3c2.013-3.472 4.723-11.286 3-15l-.5-2c-10.89 15.173-24.822 19.184-39 5-.885 2.315 2.106 5.532 3.5 7l-6 4c-14.242-22.503-14.042-84.908 16-93-1.468 6.629-9.274 11.45-13 18.5-1.66 3.141-8.167 21.715-7 24z"/><path fill="#557178" d="m703 650-9 25c-.941-2.06-1.903-2.801-2-3-1.595-3.262-3.48-7.366-4-11 4.043-3.408 12.312-8.325 15-11"/><path fill="#3e93c1" d="M736 650c2.927 2.292 5.749 9.941 13 10-6.807 9.765-9.736 26.326-11 38-1.07-5.799-6.525-9.237-11-5.5-1.35 1.128-.535 9.231-1 11-.259.983-2.83.028-3 1-.547 3.131-.047 8.98 0 12.5h-2c-.172-1.181-1.049-4.459-2-5.5-.324 6.122 1.917 10.979-4 14.5-1.587-12.771-1.458-26.218 0-39 6.757 4.491 5.695-12.644 7-17.5.9-3.348 3.761-7.548 5-10.5.409 2.207-.692 3.464 3 3.5z"/><path fill="#b5e8f3" d="M227 676c-3.155 2.583-6.639 15.634-7 18-.254-12.651 6.568-36.586 18-43h13.5c3.21 1.29-.225 5.665-2 7-9.351-4.099-7.854-2.496-15 3-.125.096-1.645-1.922-3-1-1.61 1.095.581 2.401.5 2.5-1.192 1.454-5.797 7.749-6 9-.455 2.807.998 4.27 1 4.5"/><path fill="#fbfdfe" d="M768.5 651c15.16-4.922 6.001 14.707-2.5 2.5.791-.506 1.889-2.302 2.5-2.5"/><path fill="#f9fdfe" d="M783 653c3.676 2.524 2.059 1.788 4 4-3.382 8.304-13.647-4.635-4-4"/><path fill="#4795c0" d="M727 659c.428-1.019-.656-3.001.5-4 1.837 1.782-.537 3.802-.5 4"/><path fill="#20476e" d="M722 658c-2.903 9.596-5.854 18.957-7 29-1.458 12.782-1.587 26.229 0 39 2.289 18.413 14.371 54.559 34 61-15.472 4.094-29.409-4.835-37-18 1.027-17.791-.375-36.6-4-54 2.167-9.536 1.361-19.913 3-29.5.929-5.436 8.091-25.044 8-27.5z"/><path fill="#a5dcec" d="M790 660c10.043 15.549 10.877 35.915 9 54-2.147-9.117 1.167-9.807-10-9 3.229-9.428 3.899-26.122-1-35l4-1.5c.234-1.019-7.922-7.499-2-8.5"/><path fill="#025b66" d="m692 672-6.5 6-5.5-10c2.699-2.353 5.232-4.667 8-7 .52 3.634 2.405 7.738 4 11"/><path fill="#b5e8f3" d="M264 694c1.36 28.298-23.125 39.745-33 12-3.189-8.96-3.912-21.611-4-30 5.016-1.947 4.876-9.874 9.5-12 16.884-7.764 26.887 17.237 27.5 30"/><path fill="#ace2ee" d="M788 670c4.899 8.878 4.229 25.572 1 35-10.118 29.541-36.217 16.758-34-13 1.207-16.199 20.943-43.852 33-22"/><path fill="#016975" d="m680 668 5.5 10 6.5-6c.097.199 1.059.94 2 3 5.888 12.891 11.093 26.047 14 40 3.625 17.4 5.027 36.209 4 54-.125 2.174.11 3.827 0 5-3.227 34.5-20.652 74.936-42 102-79.261 100.484-228.945 100.537-312 5-.712-3.659 3.748-6.025 7-7 12.843 14.887 31.528 31.082 48.5 41 156.914 91.7 346.059-66.725 273.5-234.5-.948-2.075-5.888 3.136-6 3.5l-6-12c1.672-1.48 3.488-2.682 5-4"/><path fill="#005160" d="M681 684c-.082.266.02.669 0 1-48.115 57.701-95.204 116.976-147 171.5-10.347 10.892-42.204 46.417-55.5 48.5-5.205.815-11.879.466-15.5-3.5-6.373-6.98-26.688-75.737-33-91-10.927-26.424-25.614-50.884-38-76.5 20.704 21.79 34.706 49.423 47 77 8.358 18.748 17.822 58.94 25 71.5 9.406 16.458 28.756-6.133 36-14 61.761-67.067 103.449-133.146 175-196.5Z"/><path fill="#aee1ef" d="m231 706-11 2c-.194-5.932-1.045-7.162 0-14 .361-2.366 3.845-15.417 7-18 .088 8.389.811 21.04 4 30"/><path fill="#0b8a98" d="M365 874c-1.96-2.272-3.371-4.923-5-7l5-4c116.989 153.1 362.419 44.152 328-142.5-1.222-6.625-12.113-33.63-12-35.5.02-.331-.082-.734 0-1 .112-.364 5.052-5.575 6-3.5 72.559 167.775-116.586 326.2-273.5 234.5-16.972-9.918-35.657-26.113-48.5-41"/><path fill="#0697ac" d="M336 685c-3.931 9.239-5.392 15.554-8 25-.019.068-.636-.387-1 1-12.166 46.362-7.901 88.65 15 131l-8 6c-12.535-22.358-22.791-52.402-25-78-.087-1.014.067-1.878 0-3-.883-14.815 2.256-29.181 2-43-.543-11.224 11.847-34.24 12-43h1c5.799 2.5 7.011 9.224 12 4"/><path fill="#8cbac7" d="M279 713c-.5 5.848-3.647 17.485-6 23-3.899 1.943-3.365-1.677-7-2 .551-.884 3.147-3.129.5-3-18.192 23.162-33.105-3.668-39.5-4-1.033-.054-2.895-1.1-3-.5.462 2.248.875 4.171 1 6.5-2.469-1.98-2.359-5.29-3-8-1.501-6.349-1.787-10.511-2-17l11-2c9.875 27.745 34.36 16.298 33-12l10-1.5c2.093 1.94-.448 20.347 5 20.5"/><path fill="#2e7cab" d="M738 698c1.614 8.744.474 17.77 3 28l-17 1c-.291-2.609-.97-7.747-1-10-.047-3.52-.547-9.369 0-12.5.17-.972 2.741-.017 3-1 .465-1.769-.35-9.872 1-11 4.475-3.737 9.93-.299 11 5.5"/><path fill="#1c486f" d="M309 695c1.186 9.309 1.827 19.648 2 29 .256 13.819-2.883 28.185-2 43-12.413 17.436-17.488 21.112-39 21 15.996-10.116 23.099-21.322 29-39 7.582-22.714 3.108-32.185 6-51.5.547-3.652.613-2.435 4-2.5"/><path fill="#94d5f0" d="M216 698c-.017 2.365.73 8.135 1 11l-4 1c-.194-.455-5.855-6.325-7-7-.052-.989.027-2.009 0-3 3.904 1.528 5.944-1.485 10-2"/><path fill="#70a0c0" d="M806 702c-.035.991.056 2.012 0 3-.709 12.455-1.489 26.062-7.5 37-.788-2.774-.664-6.15-.5-9 .566-9.841 4.895-21.523 5-32z"/><path fill="#235b87" d="M813 705c-1.284 21.455-10.37 48.799-24 65.5-7.919 9.703-27.297 20.669-40 16.5-19.629-6.441-31.711-42.587-34-61 5.917-3.521 3.676-8.378 4-14.5.951 1.041 1.828 4.319 2 5.5 2.398 16.456.444 34.749 12.5 49 3.815-.098-4.864-16.153-5.5-18.5-1.549-5.717-3.349-14.666-4-20.5l17-1c7.086 28.691 34.945 47.248 51 14 .744-1.54 3.819-7.396 4-8l2 1c-.164 2.85-.288 6.226.5 9 6.011-10.938 6.791-24.545 7.5-37z"/><path fill="#d5f5fb" d="M336 705c-10.081 35.211-11.05 71.141 1 106-4.853-11.932-11.174-22.218-13-35.5-3.022-21.983 2.695-43.177 3-64.5.364-1.387.981-.932 1-1 6.995 4.058 3.456-3.36 8-5"/><path fill="#659cc0" d="M217 709c.507 5.385 2.164 10.694 3 16 .909 5.765 3.245 11.035 2 17.5-6.884-7.499-5.621-24.559-9-32.5z"/><path fill="#8bd3eb" d="M299 729c-1.511 17.255-8.64 36.147-21.5 48l-2.5-.5c16.558-17.825 20.677-42.837 22-66.5 3.29 2.945 2.381 14.652 2 19"/><path fill="#1aafc1" d="M337 811c8.4 20.653 14.27 34.032 28 52l-5 4c-6.125-7.808-13.283-16.278-18-25-22.901-42.35-27.166-84.638-15-131-.305 21.323-6.022 42.517-3 64.5 1.826 13.282 8.147 23.568 13 35.5"/><path fill="#6fbadc" d="M723 717c.03 2.253.709 7.391 1 10 .651 5.834 2.451 14.783 4 20.5.636 2.347 9.315 18.402 5.5 18.5-12.056-14.251-10.102-32.544-12.5-49z"/><path fill="#75a1aa" d="M227 727c5.551 19.174 27.37 25.682 39 7 3.635.323 3.101 3.943 7 2-11.866 27.81-36.077 23.784-48-1-.098-.635.035-1.348 0-2-.125-2.329-.538-4.252-1-6.5.105-.6 1.967.446 3 .5"/><path fill="#b9f1fa" d="M266 734c-11.63 18.682-33.449 12.174-39-7 6.395.332 21.308 27.162 39.5 4 2.647-.129.051 2.116-.5 3"/><path fill="#bbf2fa" d="M792 728c-5.558 16.456-23.101 23.585-36 10-1.394-1.468-4.385-4.685-3.5-7 14.178 14.184 28.11 10.173 39-5z"/><path fill="#749ea8" d="M789 743c-10.378 17.899-28.734 15.221-39-1l6-4c12.899 13.585 30.442 6.456 36-10 1.723 3.714-.987 11.528-3 15"/><path fill="#038392" d="M360 867c1.629 2.077 3.04 4.728 5 7-3.252.975-7.712 3.341-7 7-1.273-1.465-3.965-3.72-5-5-6.831-8.449-13.682-18.514-19-28l8-6c4.717 8.722 11.875 17.192 18 25"/></svg>