<svg xmlns="http://www.w3.org/2000/svg" width="1024" height="1024"><defs><linearGradient id="a" x1="443.26" x2="512.824" y1="196.265" y2="438.473" gradientUnits="userSpaceOnUse"><stop offset="0%" style="stop-color:#c9d6dd"/><stop offset="100%" style="stop-color:#a4b5bf"/></linearGradient></defs><defs><linearGradient id="b" x1="559.675" x2="682.149" y1="294.315" y2="417.912" gradientUnits="userSpaceOnUse"><stop offset="0%" style="stop-color:#8798a4"/><stop offset="100%" style="stop-color:#55646f"/></linearGradient></defs><defs><linearGradient id="c" x1="381.956" x2="646.32" y1="300.778" y2="364.773" gradientUnits="userSpaceOnUse"><stop offset="0%" style="stop-color:#d0e0e6"/><stop offset="100%" style="stop-color:#7c8c98"/></linearGradient></defs><defs><linearGradient id="d" x1="518.857" x2="550.83" y1="234.221" y2="349.883" gradientUnits="userSpaceOnUse"><stop offset="0%" style="stop-color:#082d4a"/><stop offset="100%" style="stop-color:#0a89af"/></linearGradient></defs><defs><linearGradient id="e" x1="486.083" x2="539.249" y1="282.533" y2="415.283" gradientUnits="userSpaceOnUse"><stop offset="0%" style="stop-color:#144f71"/><stop offset="100%" style="stop-color:#0db7d4"/></linearGradient></defs><defs><linearGradient id="f" x1="286.075" x2="285.924" y1="285.418" y2="388.418" gradientUnits="userSpaceOnUse"><stop offset="0%" style="stop-color:#37b1ce"/><stop offset="100%" style="stop-color:#0c6e92"/></linearGradient></defs><defs><linearGradient id="g" x1="731.769" x2="729.197" y1="290.135" y2="384.099" gradientUnits="userSpaceOnUse"><stop offset="0%" style="stop-color:#19a2c3"/><stop offset="100%" style="stop-color:#0b6186"/></linearGradient></defs><defs><linearGradient id="h" x1="496.924" x2="508.935" y1="313.496" y2="384.487" gradientUnits="userSpaceOnUse"><stop offset="0%" style="stop-color:#02213c"/><stop offset="100%" style="stop-color:#074e76"/></linearGradient></defs><defs><linearGradient id="i" x1="243.931" x2="782.663" y1="479.152" y2="538.583" gradientUnits="userSpaceOnUse"><stop offset="0%" style="stop-color:#86c6da"/><stop offset="100%" style="stop-color:#3094b1"/></linearGradient></defs><defs><linearGradient id="j" x1="385.147" x2="646.454" y1="442.078" y2="815.782" gradientUnits="userSpaceOnUse"><stop offset="0%" style="stop-color:#d6f0f7"/><stop offset="100%" style="stop-color:#5fadc6"/></linearGradient></defs><defs><linearGradient id="k" x1="786.249" x2="247.494" y1="689.447" y2="795.016" gradientUnits="userSpaceOnUse"><stop offset="14.208%" style="stop-color:#107698"/><stop offset="100%" style="stop-color:#4398b4"/></linearGradient></defs><defs><linearGradient id="l" x1="683.629" x2="609.171" y1="853.803" y2="880.204" gradientUnits="userSpaceOnUse"><stop offset="0%" style="stop-color:#0b7ba1"/><stop offset="100%" style="stop-color:#21a0c5"/></linearGradient></defs><defs><linearGradient id="m" x1="406.112" x2="333.45" y1="865.947" y2="872.964" gradientUnits="userSpaceOnUse"><stop offset="0%" style="stop-color:#0f85ac"/><stop offset="100%" style="stop-color:#46abcb"/></linearGradient></defs><path fill="#084864" d="M735 140c-.688.43-1.183-1.602-2-.5-3.618 4.883-9.958 63.712-13 76a313 313 0 0 1-6 21c-1.108 3.411-8.924 16.726-9 18-.167 2.811 1.886.065 2 .5.831 3.175 1.784 6.173 3.5 9 4.607-15.433 24.547-2.991 33.5 3l-1 1c-5.944-3.762-17.555-5.864-23.5-11-2.86.454-6.842 22.381-7.5 26-4.372 24.065-5.698 53.532-4 78l-4-24c.449-14.42 5.475-57.639 4-67.5-.342-2.287-5.753-9.787-7-12.5-13.396-29.158-34.528-54.712-60-74-83.189-62.993-200.629-62.306-279.5 8-27.196 24.242-57.99 68.179-51.5 106-1.207 21.397-.539 91.185 5 109 1.848 5.944 5.848 14.646 9 20l-2 1.5c-4.724-6.483-8.356-19.978-13-25.5-.852-3.72.5-12.288-3-17 .19-1.279-.142-2.705 0-4 2.641-24.009 1.462-53.924-1-78-.904-8.845-2.546-28.496-6-36-.461-1.002-1.006-1.998-1.5-3-1.607-.066-2.978.639-4.5 1v-2c12.536-1.347 10.172 6.679 14.5 16-.429-6.027 4.195-15.121 3.5-20.5-.272-2.103-6.083-10.095-7-13-10.775-34.133-15.202-70.269-18-106-14.72-3.638-30.768-12.464-33-29-7.011-51.94 74.72-50.9 67 1-2.131 14.33-21.723 24.033-22 28-.446 6.379 12.263 36.048 16 43 1.954 3.634 19.641 30.341 21.5 30.5 87.983-108.414 257.933-104.211 346 2 12.651-6.052 45.675-71.745 41-79-.485-.752-11.048-6.128-14.5-10.5-37.22-47.137 55.045-78.997 60-25 2.579 28.102-16.86 29.411-33 39.5m-467-11c34.81 26.946 71.994-34.084 31-51-36.192-14.934-58.765 29.508-31 51m442-44c-8.51 9.141-7.901 22.418-3 33 7.835 16.916 24.016 20.075 40 13 16.807-7.439 20.664-21.425 14-38-8.047-20.014-38.566-25.608-51-8m-418 53c-1.265.304-3.237-.439-4 1.5-3.389 8.606 17.765 113.351 26.5 109.5-.321-4.388 10.378-17.683 10.5-19.5.155-2.309-5.733-9.771-7-12.5 4.569-.859 7.756 12.688 8.5 13 .846-3.737 8.252-9.8 7.5-13.5-.291-1.431-15.351-18.515-18-23-8.919-15.099-14.331-33.672-20-49-.564-1.525 3.189-8.23-4-6.5m434.5-1c-6.871 15.965-9.928 32.62-18.5 48.5-3.45 6.391-23.926 30.961-24 33-.05 1.363 11.898 14.983 12.5 18.5 4.398.62 20.78-45.695 22.5-51.5 1.55-5.231 11.211-42.693 11-45-.268-2.926-.81-2.715-3.5-3.5"/><path fill="#6ce1f4" d="m299 78-4 1.5c26.67 16.802 6.028 48.474-20.5 48.5-.947.001-9.032-5.453-6.5 1-27.765-21.492-5.192-65.934 31-51m-25.5 5c-4.759.927-15.221 16.194-8 19 10.418 4.048 24.161-22.147 8-19"/><path fill="#1cb1d0" d="M761 93c3.511 16.288-.549 28.177-14 38-15.984 7.075-32.165 3.916-40-13 6.346 1.491 9.288 8.104 16.5 9 14.1 1.752 29.997-11.169 30.5-25.5.724-20.643-30.094-31.437-44-16.5 12.434-17.608 42.953-12.014 51 8"/><path fill="#2fc1da" d="M299 78c40.994 16.916 3.81 77.946-31 51-2.532-6.453 5.553-.999 6.5-1 26.528-.026 47.17-31.698 20.5-48.5z"/><path fill="#4fd8f0" d="M707 118c-4.901-10.582-5.51-23.859 3-33 13.906-14.937 44.724-4.143 44 16.5-.503 14.331-16.4 27.252-30.5 25.5-7.212-.896-10.154-7.509-16.5-9m12.5-34c-3.725 1.022-9.782 12.696-7 17 9.563 3.125 21.737-21.042 7-17"/><path fill="#f3fdfe" d="M273.5 83c16.161-3.147 2.418 23.048-8 19-7.221-2.806 3.241-18.073 8-19"/><path fill="#f4fcfd" d="M719.5 84c14.737-4.042 2.563 20.125-7 17-2.782-4.304 3.275-15.978 7-17"/><path fill="#7be6f0" d="M747 131c13.451-9.823 17.511-21.712 14-38 6.664 16.575 2.807 30.561-14 38"/><path fill="#106687" d="M318 217c-11.71-25.225-22.737-51.065-26-79 7.189-1.73 3.436 4.975 4 6.5 5.669 15.328 11.081 33.901 20 49 2.649 4.485 17.709 21.569 18 23 .752 3.7-6.654 9.763-7.5 13.5-.744-.312-3.931-13.859-8.5-13"/><path fill="#fafcfd" d="m641 183-1 1c-67.807-48.151-168.329-53.529-240.5-12-40.8 23.477-86.756 76.346-89.5 125-6.49-37.821 24.304-81.758 51.5-106 78.871-70.306 196.311-70.993 279.5-8"/><path fill="#5ecbe7" d="M726.5 137c2.69.785 3.232.574 3.5 3.5.211 2.307-9.45 39.769-11 45-1.72 5.805-18.102 52.12-22.5 51.5-.602-3.517-12.55-17.137-12.5-18.5.074-2.039 20.55-26.609 24-33 8.572-15.88 11.629-32.535 18.5-48.5"/><path fill="#89d5eb" d="M292 138c3.263 27.935 14.29 53.775 26 79 1.267 2.729 7.155 10.191 7 12.5-.122 1.817-10.821 15.112-10.5 19.5-8.735 3.851-29.889-100.894-26.5-109.5.763-1.939 2.735-1.196 4-1.5"/><path fill="#04192a" d="M735 140c-8.506 37.577-6.682 82.284-28 115-.114-.435-2.167 2.311-2-.5.076-1.274 7.892-14.589 9-18a313 313 0 0 0 6-21c3.042-12.288 9.382-71.117 13-76 .817-1.102 1.312.93 2 .5"/><path fill="url(#a)" d="M640 184c.115.082.983 1.225 2 2l-11 51c-70.253-86.464-204.415-74.706-255 25-6.384 7.179-6.914 18.659-14 25-2.074-16.786-31.016-13.657-25 7 2.812 9.656 14.591 12.114 21 6 1.501-.838 2.001 2.144 2 2.5-.033 15.026-3.1 30.067-2 46 .885 12.815 4.421 26.208 8 38.5-9.541-4.713-19.312 4.845-18 14.5l2-4.5c-.138.433 1.516 5.609-1 8.5 2.075 2.681 4.058 3.904 7 5.5 11.774 6.387 12.775.164 21-7 5.127 11.267 13.931 19.067 21 29-2.14-1.47-5.193-6.341-7-3.5 14.831 23.489 39.61 39.204 65 49.5-18.295-.326-36.719.566-55 0-8.098-.251-18.353 1.138-26-1-13.334-12.332-27.826-24.043-39-38.5-8.135-10.526-13.804-22.418-21-33.5-5.539-17.815-6.207-87.603-5-109 2.744-48.654 48.7-101.523 89.5-125 72.171-41.529 172.693-36.151 240.5 12m-101.5-32c-7.57 1.462-9.248 20.936 3 23 21.291 3.588 12.515-25.996-3-23" style="fill:url(#a)"/>/&gt;<path fill="#fdfdfe" d="M538.5 152c15.515-2.996 24.291 26.588 3 23-12.248-2.064-10.57-21.538-3-23"/><path fill="#10465d" d="M631 237c46.362 57.061 30.714 91.231 23 155-4.844 5.055-7.072 14.386-11 19.5-3.885 5.06-14.137 16.988-19 22-22.772 23.469-58.78 42.215-92 40.5 149.101-19.126 171.774-219.565 48-273-71.822-39.619-158.233-11.025-199 58-1.67-.015-4.045 1.926-5 3 50.585-99.706 184.747-111.464 255-25"/><path fill="#fafcfd" d="M580 201c-67.04-28.942-140.597-6.426-185 49.5-27.348 34.444-33.091 70.121-29 113.5-8.34-38.206-4.899-71.308 15-105 40.767-69.025 127.178-97.619 199-58"/><path fill="#a1cbd3" d="M701 257c-3.461.807-2.114 1.281-4-1.5-17.356-25.59-28.982-49.668-55-69.5-1.017-.775-1.885-1.918-2-2l1-1c25.472 19.288 46.604 44.842 60 74"/><path fill="url(#b)" d="M701 257c1.247 2.713 6.658 10.213 7 12.5 1.475 9.861-3.551 53.08-4 67.5-.519 16.659 1.925 34.661 0 51-12.304 36.594-37.205 66.304-67 90-28.582 3.324-67.829-.359-97.5 0-1.529.018-2.788 2.998-3 3-15.85.158-31.77-1.003-47.5-1l2-4c3.01.155 6.635-1.013 8-1 10.928.104 22.147.392 33-1 33.22 1.715 69.228-17.031 92-40.5 4.863-5.012 15.115-16.94 19-22 3.928-5.114 6.156-14.445 11-19.5-.367 3.037-1.694 6.072-1 9.5l2 4-4.5-5.5c-2.938 14.352 18.352 17.692 24.5 7.5 8.513-14.111-7.565-29.518-21-15.5 7.714-63.769 23.362-97.939-23-155l11-51c26.018 19.832 37.644 43.91 55 69.5 1.886 2.781.539 2.307 4 1.5m-28.5 19c-11.781 2.297-11.952 18.704-2 24 21.515 11.449 26.877-28.849 2-24" style="fill:url(#b)"/>/&gt;<path fill="url(#c)" d="M580 201c123.774 53.435 101.101 253.874-48 273-10.853 1.392-22.072 1.104-33 1-55.54-2.798-106.943-39.247-127-91a134.5 134.5 0 0 1-6-20c-4.091-43.379 1.652-79.056 29-113.5 44.403-55.926 117.96-78.442 185-49.5m-94 6c-3.377.388-9.375-.318-11 3-28.92 8.548-51.693 23.653-69 49-18.904 27.688-23.861 56.674-19 86.5.873 5.359-.01 11.896 3 17.5-.06 6.005-1.243 1.34-1.5 2-2.762 7.097 3.261 3.209 3.5 3.5 3.195 3.9 9.465 21.155 14 28 20.826 31.433 48.872 47.632 84 51.5-.009 1.958 8.49 3.878 9.5 4 126.037 15.274 193.63-149.008 86.5-224-15.891-11.124-35.76-19.975-55-23-18.628-2.929-26.926-1.878-45 2" style="fill:url(#c)"/>/&gt;<path fill="#0c769b" d="M531 205c-15.145-.153-29.906.265-45 2 18.074-3.878 26.372-4.929 45-2"/><path fill="#109ec0" d="M531 205c19.24 3.025 39.109 11.876 55 23-9.16.226-20.291-15.476-28-9-28.834-11.29-65.342-11.43-94.5-1-1.068.382-26.092 10.675-14.5 11-9.377 2.733-16.202 5.526-23 14-9.729.246-12.345 12.285-20 16 17.307-25.347 40.08-40.452 69-49 3.371-.996 7.63-2.277 11-3 15.094-1.735 29.855-2.153 45-2"/><path fill="#0c769b" d="M486 207c-3.37.723-7.629 2.004-11 3 1.625-3.318 7.623-2.612 11-3"/><path fill="#0a799f" d="M558 219c6.74 2.639 13.88 8.088 20 12-2.869 1.614-5.24 4.532-5 8-25.754-15.941-42.85-18.579-73-18-17.721.34-33.854 3.003-51 8-11.592-.325 13.432-10.618 14.5-11 29.158-10.43 65.666-10.29 94.5 1"/><path fill="#1cb2d3" d="M586 228c107.13 74.992 39.537 239.274-86.5 224-1.01-.122-9.509-2.042-9.5-4 39.595 4.359 65.535 1.099 98-26 2.918-2.436 6.28-6.252 9-9 17.734-17.919 36.529-45.049 37-71.5.249-14.006-6.463-4.432-9-8-.816-1.147-1.773-22.873-3-28-2.026-8.462-8.544-31.199-17-16.5-19.998-44.269-77.358-70.626-124-57 .737-3.019-3.568-1.322-4.5-1-3.026 1.045-16.998 9.088-18 9-2.833-.25-.139-2.618-3-3-1.86-.248-27.102 17.441-31 20-2.846 1.869-6.701.812-7 1-10.657 6.695-23.183 32.879-26.5 45-4.512 16.489-4.247 36.136-1 53 .337 1.751.647 4.726 1 6 .183 1.163-.999.929-1 1-3.01-5.604-2.127-12.141-3-17.5-4.861-29.826.096-58.812 19-86.5 7.655-3.715 10.271-15.754 20-16-2.481 3.092-6.499 5.995-2.5 10l23-17 53.5-15c30.15-.579 47.246 2.059 73 18 6.133 3.796 12.498 10.658 18.5 15 13.959-10.999-4.189-17.048-13.5-23-6.12-3.912-13.26-9.361-20-12 7.709-6.476 18.84 9.226 28 9"/><path fill="#1397bb" d="m500 221-53.5 15-23 17c-3.999-4.005.019-6.908 2.5-10 6.798-8.474 13.623-11.267 23-14 17.146-4.997 33.279-7.66 51-8"/><path fill="url(#d)" d="M605 289c6.023 13.332 9.189 31.438 9 46-.052 4.028-.479 8.027-1 12-1.717-3.728-1.781-2.369-5.5-2-4.092.406-15.519 4.339-18 4-8.037-1.099-13.544-9.837-30.5-9-.332.016-.67-.028-1 0-.528-22.789-17.312-41.44-38-49 .031-.329-.019-.668 0-1 1.099-19.241-10.315-38.308-30-42-13.182-2.472-16.671-.046-28 5l.5-6-9.5-1c6.76-4.982 19.99-11.66 28-14 46.642-13.626 104.002 12.731 124 57" style="fill:url(#d)"/>/&gt;<path fill="#30def4" d="M481 232c-8.01 2.34-21.24 9.018-28 14-8.091 5.962-15.675 14.216-19 24-.182.535-1.876 3.565-2 4-5.915-1.436-9.208 5.763-12 10-11.013-13.983-17.921 7.168-16 17.5l8-.5c-2.943 9.523-5.06 23.004-5 33l-2-3.5c-1.783 3.221 2.638 20.142 2 21-1.827 2.46-5.085.356-6 4-1.989 7.922 11.836 17.658-3 20.5-2.377-4.865-5.461-8.449-7-14-.353-1.274-.663-4.249-1-6l1-53c3.317-12.121 15.843-38.305 26.5-45 .299-.188 4.154.869 7-1 3.898-2.559 29.14-20.248 31-20 2.861.382.167 2.75 3 3 1.002.088 14.974-7.955 18-9 .932-.322 5.237-2.019 4.5 1"/><path fill="#108eb4" d="M573 239c-.24-3.468 2.131-6.386 5-8 9.311 5.952 27.459 12.001 13.5 23-6.002-4.342-12.367-11.204-18.5-15"/><path fill="#255f7a" d="M462 253c-1.599.712-4.594 2.151-6 3-8.01 4.839-13.136 13.423-22 14 3.325-9.784 10.909-18.038 19-24l9.5 1z"/><path fill="#d3e9f1" d="M490 248c12.477 12.208 24.759 20.936 22 41-2.921 21.238-32.929 29.882-51 24 3.806-4.943 11.445-10.485 14-15.5 10.96-21.514-6.794-33.787-27-32.5 2.689-2.944 5.477-5.91 8-9 1.406-.849 4.401-2.288 6-3 11.329-5.046 14.818-7.472 28-5"/><path fill="#abcad8" d="m520 290-8-1c2.759-20.064-9.523-28.792-22-41 19.685 3.692 31.099 22.759 30 42"/><path fill="url(#e)" d="M456 256c-2.523 3.09-5.311 6.056-8 9-3.923 4.296-7.777 5.787-9 12.5-2.612 14.341 3.777 30.41 15 39.5-23.388 29.347 2.688 70.529 35.5 77 12.033 2.373 20.233.078 31.5-1 4.678 18.101 25.829 19.494 36 5 24.279 5.852 24.429-37.193-1-29l3-29c16.956-.837 22.463 7.901 30.5 9 2.481.339 13.908-3.594 18-4 3.719-.369 3.783-1.728 5.5 2-3.967 30.267-24.595 58.509-52 72-24.135 11.881-56.232 13.989-82 7-40.931-11.102-71.744-49.127-72-92-.06-9.996 2.057-23.477 5-33 .658-2.127 2.107-4.851 3-7l.5 5c20.133-2.63 13.146-13.229 16.5-25 .124-.435 1.818-3.465 2-4 8.864-.577 13.99-9.161 22-14" style="fill:url(#e)"/>/&gt;<path fill="#9fdfea" d="M743 268c1.231.779 6.812 5.187 7 6.5-4.07 14.262-7.916 29.684-9 44.5h-1c1.042-14.034 4.817-25.7 6-38 .168-1.751 1.26-4.614 1-5.5-.992-3.375-21.622-12.466-25.5-15.5-2.546.432-4.333 14.107-4.5 17l-2-1.5c-1.098 2.563.009 8.05-3 7.5.658-3.619 4.64-25.546 7.5-26 5.945 5.136 17.556 7.238 23.5 11"/><path fill="#589cac" d="M381 259c-19.899 33.692-23.34 66.794-15 105a134.5 134.5 0 0 0 6 20c.639 6.617 2.23 13.912 5 20-8.225 7.164-9.226 13.387-21 7l-1.5-3 6.5 3c4.799 1.505 11.534-4.061 12-9 .329-3.482-3.865-13.452-7-15-3.579-12.292-7.115-25.685-8-38.5-1.1-15.933 1.967-30.974 2-46 .001-.356-.499-3.338-2-2.5.703-.671 3.875-7.932 4-9 .134-1.142.14-2.864 0-4 7.086-6.341 7.616-17.821 14-25 .955-1.074 3.33-3.015 5-3"/><path fill="#108bad" d="M746 281c-7.294 8.34-15.251-5.478-23.5-6-4.746 4.436-2.458 11.335-3.5 16.5-.172.851-1.981.399-2 .5 2.132-4.832-.262-10.458 0-15 .167-2.893 1.954-16.568 4.5-17 3.878 3.034 24.508 12.125 25.5 15.5.26.886-.832 3.749-1 5.5"/><path fill="#177a92" d="M293 263v2c-7.442 1.764-19.565 14.142-26.5 9-1.406.932.153 4.473.5 6-2.301.617-.242 1.87 0 3h-4c.876-2.575 2.95-5.088 1-8 4.576-4.529 22.579-11.31 29-12"/><path fill="#e3f6f9" d="M299 267c-1.77.991-.156 1.589-3 2-4.513.652-23.794 6.815-25 11.5-.449 1.743 5.446 29.159 6 35.5h-2c-.451-4.722-1.292-7.678-2-12-1.529-9.343-4.078-15.539-6-24-.347-1.527-1.906-5.068-.5-6 6.935 5.142 19.058-7.236 26.5-9 1.522-.361 2.893-1.066 4.5-1 .494 1.002 1.039 1.998 1.5 3"/><path fill="#fcfdfe" d="M461 313c-.42.545-4.002 2.772-4 3.5l7 6.5c-1.916-.723-8.373-4.682-10-6-11.223-9.09-17.612-25.159-15-39.5 1.223-6.713 5.077-8.204 9-12.5 20.206-1.287 37.96 10.986 27 32.5-2.555 5.015-10.194 10.557-14 15.5"/><path fill="#97dbec" d="m305 303-5-8.5-1.5-15.5c-.61 8.289-.654 17.708-.5 26-.058-8.041-3.112-18.923-3-26.5.008-.552 4.856-4.152 1-9.5 2.844-.411 1.23-1.009 3-2 3.454 7.504 5.096 27.155 6 36"/><path fill="#07192d" d="M652 477c-4.244.13-13.554 4.901-14 1 25.054-3.673 63.107-65.436 66-90 1.925-16.339-.519-34.341 0-51l4 24c.479 6.902 1.801 18.188 3 25 .648 3.68 1.234 13.74 5.5 15 3.8 1.123 20.634-4.559 24.5-7 .449-.284 3.675-.643 4-1.5-4.042-23.205-5.725-49.935-4-73.5 1.084-14.816 4.93-30.238 9-44.5-.188-1.313-5.769-5.721-7-6.5l1-1c28.207 18.876 24.901 85.898 13 114.5-6.206 14.915-36.944 29.55-48.5 14.5-11.996 31.192-31.434 59.1-56.5 81m93-161c-.082 4.694-.696 9.312-1 14-.393 6.07-1.097 14.124-1 20 .087 5.247 2.565 39.304 5.5 40 2.334-1.803 3.237-4.513 4.5-7 5.449-10.728 7.648-30.813 8-43 2.903-21.579.835-44-9-63.5z"/><path fill="url(#f)" d="M296 269c3.856 5.348-.992 8.948-1 9.5-.112 7.577 2.942 18.459 3 26.5.467 25.138 3.031 49.772 1 75-.644 8.004.424 18.144-5 24-3.538-.085-21.397-5.866-23-9 8.111-24.331 8.235-53.39 6-79-.554-6.341-6.449-33.757-6-35.5 1.206-4.685 20.487-10.848 25-11.5" style="fill:url(#f)"/>/&gt;<path fill="#286f8c" d="M432 274c-3.354 11.771 3.633 22.37-16.5 25l-.5-5c1.166-2.806 3.383-7.546 5-10 2.792-4.237 6.085-11.436 12-10"/><path fill="#063652" d="M263 283c-2.786 8.188-5.797 15.207-7 24l-2-5c1.383-8.421 3.772-20.836 10-27 1.95 2.912-.124 5.425-1 8"/><path fill="#4db1cd" d="M717 277c-.262 4.542 2.132 10.168 0 15-4.573 24.56-4.422 65.134-1 90-5.079-1.17-1.019 3.953-5 4-1.199-6.812-2.521-18.098-3-25-1.698-24.468-.372-53.935 4-78 3.009.55 1.902-4.937 3-7.5z"/><path fill="url(#g)" d="M746 281c-1.183 12.3-4.958 23.966-6 38-1.848 24.891-.108 49.521 1 74l-22.5 4c-2.571-1.189-2.128-12.293-2.5-15-3.422-24.866-3.573-65.44 1-90 .019-.101 1.828.351 2-.5 1.042-5.165-1.246-12.064 3.5-16.5 8.249.522 16.206 14.34 23.5 6" style="fill:url(#g)"/>/&gt;<path fill="#1e647b" d="M362 287c.14 1.136.134 2.858 0 4l-2-2c-.152-14.131-15.774-16.288-21 1-.153.505-1.838 2.964-2 4-6.016-20.657 22.926-23.786 25-7"/><path fill="#073753" d="M672.5 276c24.877-4.849 19.515 35.449-2 24-9.952-5.296-9.781-21.703 2-24m-5.5 8c-1.747 4.417-1.284 5.75 1 9.5l5 3c-5.704-3.576-3.914-7.083-5-11.5 15.515-11.187 1.97-8.506-1-1"/><path fill="#57d0e2" d="M761 340c.025-.87-.953-5.574-1-8-.356-18.496-.647-33.751-7.5-50-1.428.255.365 6.52.5 8v10c-.345 1.575-2.732 2.587-3 3.5-.81 2.762-.661 13.823-5 12.5l7-39.5c9.835 19.5 11.903 41.921 9 63.5"/><path fill="#cfe5e4" d="M668 285c-.017-.069-1.181.158-1-1 2.97-7.506 16.515-10.187 1 1"/><path fill="#94d0da" d="M360 289c.165 15.317-19.743 14.747-21 1 5.226-17.288 20.848-15.131 21-1m-13-8c-1.331.586-.945.956-1 1-12.233 5.125-.759 22.899 9.5 15 7.673-5.908 1.812-20.539-8.5-16"/><path fill="#62b6cf" d="M305 303c2.462 24.076 3.641 53.991 1 78l-7-1c2.031-25.228-.533-49.862-1-75-.154-8.292-.11-17.711.5-26l1.5 15.5z"/><path fill="#c9f8fd" d="M420 284c-1.617 2.454-3.834 7.194-5 10-.893 2.149-2.342 4.873-3 7l-8 .5c-1.921-10.332 4.987-31.483 16-17.5"/><path fill="#0e4d6a" d="M273 304h-2c-.708-5.171-1.844-9.948-3-15-.459-2.005-.599-4.124-1-6-.242-1.13-2.301-2.383 0-3 1.922 8.461 4.471 14.657 6 24"/><path fill="#074562" d="M346 282c-.645.511-2.873 3.38-3 4.5 4.832-4.406 8.768-1.716 9.5 4.5 2.986-4.539-1.7-8.412-5.5-10 10.312-4.539 16.173 10.092 8.5 16-10.259 7.899-21.733-9.875-9.5-15"/><path fill="#409db3" d="M346 282c.055-.044-.331-.414 1-1 3.8 1.588 8.486 5.461 5.5 10-.732-6.216-4.668-8.906-9.5-4.5.127-1.12 2.355-3.989 3-4.5"/><path fill="#1094b5" d="m760 332-7.5 1-8.5-3c.304-4.688.918-9.306 1-14 4.339 1.323 4.19-9.738 5-12.5.268-.913 2.655-1.925 3-3.5.887-4.054.361-6.05 0-10-.135-1.48-1.928-7.745-.5-8 6.853 16.249 7.144 31.504 7.5 50"/><path fill="#7cdbea" d="M267 283c.401 1.876.541 3.995 1 6-.613.085-1.852 2.612-2 3-1.23 3.23-2.261 6.48-2 10-1.02-1.873-.464-3.756-2-4.5-5.464 14.992-4.367 28.15-5 43.5-.104 2.528 1.076 6.567-2 6-.818-11.802-.601-28.295 1-40 1.203-8.793 4.214-15.812 7-24z"/><path fill="#3de2f7" d="m597 413-6-5.5c20.56-18.169 32.479-44.668 34-72l-11-.5c.189-14.562-2.977-32.668-9-46 8.456-14.699 14.974 8.038 17 16.5 1.227 5.127 2.184 26.853 3 28 2.537 3.568 9.249-6.006 9 8-.471 26.451-19.266 53.581-37 71.5"/><path fill="#357b90" d="M668 285c1.086 4.417-.704 7.924 5 11.5l-5-3c-2.284-3.75-2.747-5.083-1-9.5-.181 1.158.983.931 1 1"/><path fill="#1b9bbc" d="M271 304c2.55 18.63 3.433 37.312 1 56-.21-4.686-.78-16.317-8.5-11-4.557 3.139 2.762 17.867-5.5 18-1.308-6.363-2.552-13.543-3-20 3.076.567 1.896-3.472 2-6l11-8.5-1.5-2.5c-5.866 2.149.303-2.809.5-4.5.696-5.966-1.977-10.389-2-11-.092-2.476 2.088-8.547 2-9-.162-.835-1.565.145-2-1.5 4.579-.359-.379-8.228 1-12 .148-.388 1.387-2.915 2-3 1.156 5.052 2.292 9.829 3 15"/><path fill="#154059" d="M362 291c-.125 1.068-3.297 8.329-4 9-6.409 6.114-18.188 3.656-21-6 .162-1.036 1.847-3.495 2-4 1.257 13.747 21.165 14.317 21-1z"/><path fill="#a6bbc7" d="M520 290c-.019.332.031.671 0 1-2.54 27.024-32.157 40.996-56 32l-7-6.5c-.002-.728 3.58-2.955 4-3.5 18.071 5.882 48.079-2.762 51-24z"/><path fill="#eff2fc" d="M753 300v-10c.361 3.95.887 5.946 0 10"/><path fill="url(#h)" d="M558 340c-24.861 2.095-43.203 28.995-37 53-11.267 1.078-19.467 3.373-31.5 1-32.812-6.471-58.888-47.653-35.5-77 1.627 1.318 8.084 5.277 10 6 23.843 8.996 53.46-4.976 56-32 20.688 7.56 37.472 26.211 38 49" style="fill:url(#h)"/>/&gt;<path fill="#f6fdf9" d="M265 304c-.192-.726-.644-1.347-1-2-.261-3.52.77-6.77 2-10-1.379 3.772 3.579 11.641-1 12"/><path fill="#28b9d6" d="M264 302c.356.653.808 1.274 1 2 .435 1.645 1.838.665 2 1.5.088.453-2.092 6.524-2 9 .023.611 2.696 5.034 2 11-.197 1.691-6.366 6.649-.5 4.5l1.5 2.5-11 8.5c.633-15.35-.464-28.508 5-43.5 1.536.744.98 2.627 2 4.5"/><path fill="#041e37" d="M256 307c-1.601 11.705-1.818 28.198-1 40 .448 6.457 1.692 13.637 3 20 1.897 9.23 3.534 17.462 9.5 25 1.455-.702 4.663-28.36 4.5-32 2.433-18.688 1.55-37.37-1-56h2c.708 4.322 1.549 7.278 2 12 2.55 26.703.073 52.715-4 79 1.603 3.134 19.462 8.915 23 9 10.936.261 10.551-9.251 12-19 3.5 4.712 2.148 13.28 3 17-.625-.744-2.225-.918-2.5-3-1.554 12.424-27.041 4.704-34 1-23.008-12.247-22.121-75.955-18.5-98z"/><path fill="#a4f0fe" d="M390 356c-3.247-16.864-3.512-36.511 1-53z"/><path fill="#5bcce0" d="M277 316c2.235 25.61 2.111 54.669-6 79 4.073-26.285 6.55-52.297 4-79z"/><path fill="#50c2d6" d="M741 319c-1.725 23.565-.042 50.295 4 73.5-.325.857-3.551 1.216-4 1.5v-1c-1.108-24.479-2.848-49.109-1-74z"/><path fill="#7ef2fd" d="M407 334c.256 42.873 31.069 80.898 72 92-.895 2.124-3.725 7.465-.5 9 10.668 1.48 21.159 2.632 32 2 5.402-.315 53.229-9.657 53.5-12.5.03-.312-4.905-.471-3-5.5 27.405-13.491 48.033-41.733 52-72 .521-3.973.948-7.972 1-12l11 .5c-1.521 27.332-13.44 53.831-34 72l6 5.5c-2.72 2.748-6.082 6.564-9 9-66.178 47.24-153.944 27.809-190-46 14.836-2.842 1.011-12.578 3-20.5.915-3.644 4.173-1.54 6-4 .638-.858-3.783-17.779-2-21z"/><path fill="#0c7ea2" d="M760 332c.047 2.426 1.025 7.13 1 8-.352 12.187-2.551 32.272-8 43l3-35.5-13 2.5c-.097-5.876.607-13.93 1-20l8.5 3z"/><path fill="#257899" d="M558 340c.33-.028.668.016 1 0l-3 29c-9.361 3.016-11.096 15.311-7 23-13.516-4.615-16.903-.061-28 1-6.203-24.005 12.139-50.905 37-53"/><path fill="#095578" d="M753 383c-1.263 2.487-2.166 5.197-4.5 7-2.935-.696-5.413-34.753-5.5-40l13-2.5z"/><path fill="#0e7b9f" d="M272 360c.163 3.64-3.045 31.298-4.5 32-5.966-7.538-7.603-15.77-9.5-25 8.262-.133.943-14.861 5.5-18 7.72-5.317 8.29 6.314 8.5 11"/><path fill="#22a6c5" d="M398 376c36.056 73.809 123.822 93.24 190 46-32.465 27.099-58.405 30.359-98 26-35.128-3.868-63.174-20.067-84-51.5-4.535-6.845-10.805-24.1-14-28-.239-.291-6.262 3.597-3.5-3.5.257-.66 1.44 4.005 1.5-2 .001-.071 1.183.163 1-1 1.539 5.551 4.623 9.135 7 14"/><path fill="#fdfeff" d="M557 398c-.486-.117-6.556-5.507-8-6-4.096-7.689-2.361-19.984 7-23 25.429-8.193 25.279 34.852 1 29"/><path fill="#298dae" d="M306 381c-.142 1.295.19 2.721 0 4-1.449 9.749-1.064 19.261-12 19 5.424-5.856 4.356-15.996 5-24z"/><path fill="#10749a" d="M716 382c.372 2.707-.071 13.811 2.5 15l22.5-4v1c-3.866 2.441-20.7 8.123-24.5 7-4.266-1.26-4.852-11.32-5.5-15 3.981-.047-.079-5.17 5-4"/><path fill="#18576d" d="M499 475c-1.365-.013-4.99 1.155-8 1-45.67-2.355-59.371-19.904-93-43-7.069-9.933-15.873-17.733-21-29-2.77-6.088-4.361-13.383-5-20 20.057 51.753 71.46 88.202 127 91"/><path fill="#184960" d="M366 387c3.135 1.548 7.329 11.518 7 15-5.799.845-5.931 8.557-13.5 4l-1.5 2.5c3.467-.064 2.814 2.442 3 2.5l-6.5-3 1.5 3c-2.942-1.596-4.925-2.819-7-5.5 2.516-2.891.862-8.067 1-8.5.088-.278 2.797-4.791 3-5 .385-.396 1.878-1.928 2-2 2.157-1.281 5.766-.556 8-1.5-4.613-3.327-5.121-.451-8 1.5-2.355 1.596-.927.717-2 2-1.136 1.359-3.353 2.482-3 5l-2 4.5c-1.312-9.655 8.459-19.213 18-14.5m-7.5 4c-.176.039-2.88 2.271-2 3l4.5-2.5c-.295-.711-1.822-.65-2.5-.5"/><path fill="#082438" d="M654 392c13.435-14.018 29.513 1.389 21 15.5-6.148 10.192-27.438 6.852-24.5-7.5l4.5 5.5-2-4c-.694-3.428.633-6.463 1-9.5"/><path fill="#87bac5" d="M355 390c2.879-1.951 3.387-4.827 8-1.5-2.234.944-5.843.219-8 1.5"/><path fill="#5faec2" d="M638 478c-.325.048-.671-.038-1 0 29.795-23.696 54.696-53.406 67-90-2.893 24.564-40.946 86.327-66 90"/><path fill="#a7d6d9" d="M355 390c-.122.072-1.615 1.604-2 2 1.073-1.283-.355-.404 2-2"/><path fill="#6cd4e9" d="M549 392c1.444.493 7.514 5.883 8 6-10.171 14.494-31.322 13.101-36-5 11.097-1.061 14.484-5.615 28-1"/><path fill="#9ed8e5" d="M358.5 391c.678-.15 2.205-.211 2.5.5l-4.5 2.5c-.88-.729 1.824-2.961 2-3"/><path fill="#87c3ce" d="M350 397c-.353-2.518 1.864-3.641 3-5-.203.209-2.912 4.722-3 5"/><path fill="#041e37" d="M324 426c5.901 10.023 15.656 18.258 22 28-3.482-3.034-6.831-6.128-10-9.5l-2 1c4.819 5.959 9.184 12.588 14 18.5-14.953-15.947-34.094-40.575-39-62 4.644 5.522 8.276 19.017 13 25.5z"/><path fill="#0a2d41" d="M373 402c-.466 4.939-7.201 10.505-12 9-.186-.058.467-2.564-3-2.5l1.5-2.5c7.569 4.557 7.701-3.155 13.5-4"/><path fill="#b6ecec" d="M375 478c-6.747-1.886-22.644-18.461-29-24-6.344-9.742-16.099-17.977-22-28-3.152-5.354-7.152-14.056-9-20 7.196 11.082 12.865 22.974 21 33.5 11.174 14.457 25.666 26.168 39 38.5"/><path fill="#b5f8fd" d="M561 419c-1.905 5.029 3.03 5.188 3 5.5-.271 2.843-48.098 12.185-53.5 12.5-10.841.632-21.332-.52-32-2-3.225-1.535-.395-6.876.5-9 25.768 6.989 57.865 4.881 82-7"/><path fill="#5a727e" d="M398 433c33.629 23.096 47.33 40.645 93 43l-2 4c-2.989.001-6.011.011-9 0-7.944-.029-15.985-.857-24-1-25.39-10.296-50.169-26.011-65-49.5 1.807-2.841 4.86 2.03 7 3.5"/><path fill="#034964" d="M346 454c6.356 5.539 22.253 22.114 29 24 7.647 2.138 17.902.749 26 1l-8 3.5 5 2.5c-52.497-.457-104.967-.185-157.5 0-18.091 8.008-11.108 30.687-12.5 46.5 1.635 2.807 2.853.46 3 .5 5.606 1.511 11.44 1.487 17 3 1.929.525 1.893.967 2 1v1c-10.435-3.258-21.337-1.69-32-1 1.861-1.256 4.307-1.683 6.5-2 1.173-.681-.854-1.251-.5-2 .05-.106 1.876.342 2-.5-2.763-18.646-6.855-47.22 17.5-51.5h119c-5.015-5.377-9.811-10.243-14.5-16-4.816-5.912-9.181-12.541-14-18.5l2-1c3.169 3.372 6.518 6.466 10 9.5"/><path fill="#04314b" d="M652 477c31.849-.972 103.485-2.854 132.5 2 23.871 3.993 12.913 37.403 17.5 49.5.32.843 12.133 6.846 15 10 8.853 9.74 12.066 27.39 9 40-1.461 6.007-10.005 14.099-10 15 .009 1.443 14.905 9.159 15 23.5.035 5.328-1.893 4.69-2 5-.766-40.041-47.171-33.36-62-5-4.974 9.513-6.939 19.456 4 27v2c-7.415-5.246-8.747-9.756-11.5-18 .074 2.365-5.383 8.486-5.5 9 4.885-10.196 10.417-27.591 19-35 .727-.628 9.422-5.247 11-6 4.106-1.959 10.176-5.139 14.5-6 3.806-.758 11.474 1.359 13 1 5.157-1.212 9.212-16.67 8.5-22-.43-3.214 1.626-6.81-3-6 .966-2.926 1.363-4.857 1-8-3.393-29.383-54.345-28.39-68-2l-1-1c5.313-10.576 17.543-19.592 29-22 6.109-1.284 13.054.004 19-1 .872-.147 2.602.431 3-.5-2.939-10.666 1.463-39.667-11.5-44.5-40.104-1.804-80.365-1.029-120.5-1-27.766.02-61.265-3.108-88-1-35.589 1.854-71.365.941-107 1-.509-4.048 5.146-.36 7-3 2.989.011 6.011.001 9 0 15.73-.003 31.65 1.158 47.5 1 .212-.002 1.471-2.982 3-3 29.671-.359 68.918 3.324 97.5 0 .329-.038.675.048 1 0 .446 3.901 9.756-.87 14-1"/><path fill="#095471" d="M456 479c8.015.143 16.056.971 24 1-1.854 2.64-7.509-1.048-7 3-22.353.037-46.423-1.604-68 2-2.322-.027-4.678.02-7 0l-5-2.5 8-3.5c18.281.566 36.705-.326 55 0"/><path fill="#6ecfe0" d="M580 482c-.103.008.331 1.922-.5 2-4.844.454-15.723-1.939-18 2l35 2c-34.164.087-68.348-.117-102.5 0 .437-3.001-2.674-1.947-4.5-2-28.116-.812-56.377-.679-84.5-1 21.577-3.604 45.647-1.963 68-2 35.635-.059 71.411.854 107-1"/><path fill="url(#i)" d="M668 483c-.436 3.009 2.67 1.938 4.5 2 30.615 1.036 62.632-1.741 93 0 4.226.242 21.595.932 24 2 8.394 3.728 6.882 33.445 7.5 42-5.946 1.004-12.891-.284-19 1-.578-7.2-1.129-10.845-6-16-1.02-1.08-2.093-3.348-3.5-4-13.083-6.066-122.944-1.057-146.5-1-53.347.128-106.677.393-160 1-69.118.786-138.584 1.076-207.5 3-7.165 4.983-6.146 14.14-6.5 22-5.56-1.513-11.394-1.489-17-3 1.129-10.464-4.571-37.804 9.5-41 84.527-1.11 168.954-2.711 253.5-3 34.152-.117 68.336.087 102.5 0l-35-2c2.277-3.939 13.156-1.546 18-2 .831-.078.397-1.992.5-2 26.735-2.108 60.234 1.02 88 1" style="fill:url(#i)"/>/&gt;<path fill="#5edced" d="M797 529c-.618-8.555.894-38.272-7.5-42-2.405-1.068-19.774-1.758-24-2-30.368-1.741-62.385 1.036-93 0-1.83-.062-4.936 1.009-4.5-2 40.135-.029 80.396-.804 120.5 1 12.963 4.833 8.561 33.834 11.5 44.5-.398.931-2.128.353-3 .5"/><path fill="#f2fbfc" d="M398 485c2.322.02 4.678-.027 7 0 28.123.321 56.384.188 84.5 1 1.826.053 4.937-1.001 4.5 2-84.546.289-168.973 1.89-253.5 3-14.071 3.196-8.371 30.536-9.5 41-.147-.04-1.365 2.307-3-.5 1.392-15.813-5.591-38.492 12.5-46.5 52.533-.185 105.003-.457 157.5 0"/><path fill="#bce2ee" d="M772 514c-49.508-1.46-99.361-.942-149-1l-1-4c23.556-.057 133.417-5.066 146.5 1 1.407.652 2.48 2.92 3.5 4"/><path fill="#d8f1f8" d="m622 509 1 4c-53.01-.062-106.068.381-159 1l-2-4c53.323-.607 106.653-.872 160-1"/><path fill="#f9fdfe" d="m462 510 2 4c-67.854.793-135.654 1.722-203.5 3-11.179 1.644-7.045 10.879-9.5 19-.302-.097-.697.095-1 0-.107-.033-.071-.475-2-1 .354-7.86-.665-17.017 6.5-22 68.916-1.924 138.382-2.214 207.5-3"/><path fill="url(#j)" d="M623 513c49.639.058 99.492-.46 149 1 4.871 5.155 5.422 8.8 6 16-11.457 2.408-23.687 11.424-29 22-2.969 5.911-5.039 11.076-5 18 .104 18.237 13.906 25.875 29 32-8.583 7.409-14.115 24.804-19 35-3.993 17.519 14.787 27.496 15 29.5.15 1.409-11.24 12.41-9 26 1.129 6.851 12.576 18.635 19 20.5 1.376 6.526 3.003 13.267 3 20l-8.5 6c-121.789 3.488-244.27-3.121-366 1-1.831.062-4.936-1.009-4.5 2-11.984.051-24.016-.029-36 0-36.422.089-73.015 2.01-109.5 1-6.203-2.057-4.943-8.455-8.5-12-.357-4.89 1.005-10.38-1-15 10.881-8.513 15.234-24.563 9-37 20.5-5.724 28.423-38.289 15-53-1.25-4.841-7.116-13.211-11-16 9.219-7.086 16.093-13.939 18-26 3.369-21.302-7.034-41.238-28-48 2.455-8.121-1.679-17.356 9.5-19 67.846-1.278 135.646-2.207 203.5-3 52.932-.619 105.99-1.062 159-1m-306 41c-.106-.211-3.891-1.827-4-2.5-.307-1.887 5.007-5.78-1.5-7.5-7.552-1.996-9.077 1.177-13.5 4-2.435 1.554-5.391 2.912-7 5.5-3.746 6.026-10.011 39.463-2.5 41.5 7.876 2.135 17.2-15.675 21.5-21 2.458-3.044 7.736-8.716 11-11 19.811 29.676 55.549 6.776 47-17.5-8.56-24.307-41.229-4.956-51 8.5" style="fill:url(#j)"/>/&gt;<path fill="#04263c" d="M218 536c-8.442 5.697-13.983 7.985-19 17-4.228 7.596-4.576 9.016-5 18-.45 9.548 1.877 22.542 11.5 28 11.451 6.495 20.756-1.994 35.5 2 1.73.469 18.741 8.096 20 9 3.884 2.789 9.75 11.159 11 16-.436-.478-2.302-2.327-3-2.5 6.949 18.696.219 40.965-20 47-.22.541 7.432 7.366 8 8.5 6.234 12.437 1.881 28.487-9 37-6.636 5.192-16.613 7.854-25 7-7.665-.78-20.1-8.335-24-15-8.997-15.376-4.61-30.988 9-41.5-6.757-4.561-10.539-11.67-14-18.5.353-1.749-.318-4.192 0-6 .542-3.082-.569-7.452 0-10.5 1.943-10.4 9.504-19.051 18-25l-13-7.5h-1c-17.145-26.583-6.717-61.383 26-67-.354.749 1.673 1.319.5 2-2.193.317-4.639.744-6.5 2m-20 106c2.655 20.324 15.344 28.492 35 21.5-14.495 1.189-25.639.212-30.5-15.5l8 9c1.479.905 30.863 8.794 33 9 22.486 2.168 40.296-42.964 6.5-58-2.055-.914-7.806-3.799-9.5-4-.844-.1-.149 3.058-1 3-12.643-.857-15.29-4.205-28 4-11.377 7.344-15.158 18.305-13.5 31m22 26c-30.863 6.855-30.39 39.044-2.5 49 1.598-3.844 6.441-4.804 8.5-9 .008 1.408 1.998 1.164 3 1 26.224-4.281 36.286-35.397 7-41-7.247-3.216-8.673-1.628-16 0"/><path fill="#5cdff4" d="M818 555c-1.89-1.388-1.375-3.998-4-2-.354-5.126-1.282-5.84-4-9-3.215-3.738-8.23-5.785-12.5-8-4.164 11.713-36.002 36.627-37 11-4.589 4.755-10.243 6.798-11.5 14-.541 3.099-.09 8.944 1 12l-1 1c-3.22-7.409-2.591-14.059 1-21 13.655-26.39 64.607-27.383 68 2m-43.5-18c-4.303 2.576-9.402 4.405-11.5 9.5.854-.497 14.958-7.759 11.5-9.5"/><path fill="#fefeff" d="M321 563c-1.767-2.647-2.536-6.103-4-9 9.771-13.456 42.44-32.807 51-8.5 8.549 24.276-27.189 47.176-47 17.5"/><path fill="#a0e4ee" d="M250 537c9.679 3.022 21.62 15.834 23 26-6.083-8.201-6.034-12.938-15-19-1.48-1.554-2.965-4.616-6-3.5 1.162 1.866 4.678 2.606 6 3.5.675.708 2.799 3.252 3 4-4.998-1.627-11.987-8.209-17-9-4.598-.725-14.774 1.702-19 4-3.166-1.721-9.822 1.505-12.5 3-5.519 3.081-7.65 8.175-13.5 7 5.017-9.015 10.558-11.303 19-17 10.663-.69 21.565-2.258 32 1"/><path fill="#05263a" d="m279 584-1.5-9c-1.748 12.768-14.217 24.605-27 26-2.022.221-5.09-1.402-8.5-1-9.788-4.022-22.664-5.522-31.5-11-1.861-1.154-1.362-2.904-1.5-3a61.6 61.6 0 0 0 15 6c24.171 6.178 53.478 3.981 49-29-1.38-10.166-13.321-22.978-23-26v-1c.303.095.698-.097 1 0 20.966 6.762 31.369 26.698 28 48"/><path fill="#129fc2" d="M810 544c2.595 12.77-21.061 19.238-31 18.5l12 12.5c-13.941 3.662-41.554 6.273-42-14 1.257-7.202 6.911-9.245 11.5-14 .998 25.627 32.836.713 37-11 4.27 2.215 9.285 4.262 12.5 8"/><path fill="#d3f5fb" d="M774.5 537c3.458 1.741-10.646 9.003-11.5 9.5 2.098-5.095 7.197-6.924 11.5-9.5"/><path fill="#9ef0fc" d="M244 539c.032 3.015 2.493 1.974 1 5.5-1.741 4.111-27.024 21.753-30 15-1.316-7.282 3.873-13.168 10-16.5 4.226-2.298 14.402-4.725 19-4"/><path fill="#3ec1db" d="M261 548c4.941 18.408-19.395 21.244-32 21-8.264-.16-15.913-6.461-25 1.5 3.713 8.661 10.836 11.551 19 14.5 1.391.503 1.893.969 2 1-3.781 3.618.183 3.002-1 6a61.6 61.6 0 0 1-15-6c-6.798-4.721-10.705-7.454-15-15 .424-8.984.772-10.404 5-18 5.85 1.175 7.981-3.919 13.5-7 2.678-1.495 9.334-4.721 12.5-3-6.127 3.332-11.316 9.218-10 16.5 2.976 6.753 28.259-10.889 30-15 1.493-3.526-.968-2.485-1-5.5 5.013.791 12.002 7.373 17 9"/><path fill="#2a9ab7" d="M258 544c-1.322-.894-4.838-1.634-6-3.5 3.035-1.116 4.52 1.946 6 3.5"/><path fill="#249dba" d="M273 563c4.478 32.981-24.829 35.178-49 29 1.183-2.998-2.781-2.382 1-6 22.188 6.503 47.748 4.378 43.5-25 .506 17.914-30.347 31.153-42.5 17 .175-.486-.782-6.709 3-9 12.605.244 36.941-2.592 32-21-.201-.748-2.325-3.292-3-4 8.966 6.062 8.917 10.799 15 19"/><path fill="#e0f5fb" d="M317 554c1.464 2.897 2.233 6.353 4 9-3.264 2.284-8.542 7.956-11 11-6.98-7.069-5.045-20.023-12-26 4.423-2.823 5.948-5.996 13.5-4 6.507 1.72 1.193 5.613 1.5 7.5.109.673 3.894 2.289 4 2.5"/><path fill="#0b83a9" d="M814 553c.088 1.275.105 2.729 0 4-7.116 8.909-11.41 14.956-23 18l-12-12.5c9.939.738 33.595-5.73 31-18.5 2.718 3.16 3.646 3.874 4 9"/><path fill="#fdfeff" d="M310 574c-4.3 5.325-13.624 23.135-21.5 21-7.511-2.037-1.246-35.474 2.5-41.5 1.609-2.588 4.565-3.946 7-5.5 6.955 5.977 5.02 18.931 12 26"/><path fill="#034361" d="M750 553c-3.591 6.941-4.22 13.591-1 21 3.271 7.526 13.207 11.307 21 12l-1.5 2c18.284 6.674 41.016-3.329 51.5-19 .712 5.33-3.343 20.788-8.5 22-1.526.359-9.194-1.758-13-1-4.324.861-10.394 4.041-14.5 6-4.119-6.299-19.731-1.815-25.5-4-9.213-3.489-8.061-16.471-14.5-22-.039-6.924 2.031-12.089 5-18z"/><path fill="#11a3c2" d="M818 555c.363 3.143-.034 5.074-1 8-5.124 15.52-32.343 24.304-47 23-7.793-.693-17.729-4.474-21-12l1-1c7.035 19.717 61.736 11.428 64-16 .105-1.271.088-2.725 0-4 2.625-1.998 2.11.612 4 2"/><path fill="#09678a" d="M814 557c-2.264 27.428-56.965 35.717-64 16-1.09-3.056-1.541-8.901-1-12 .446 20.273 28.059 17.662 42 14 11.59-3.044 15.884-9.091 23-18"/><path fill="#127fa0" d="M225 586c-.107-.031-.609-.497-2-1-1.985-4.623 2.858-6.605 3-7 12.153 14.153 43.006.914 42.5-17 4.248 29.378-21.312 31.503-43.5 25"/><path fill="#042237" d="M820 569c-10.484 15.671-33.216 25.674-51.5 19l1.5-2c14.657 1.304 41.876-7.48 47-23 4.626-.81 2.57 2.786 3 6"/><path fill="#2caec9" d="M229 569c-3.782 2.291-2.825 8.514-3 9-.142.395-4.985 2.377-3 7-8.164-2.949-15.287-5.839-19-14.5 9.087-7.961 16.736-1.66 25-1.5"/><path fill="#136c8a" d="M784 596c-1.578.753-10.273 5.372-11 6-15.094-6.125-28.896-13.763-29-32 6.439 5.529 5.287 18.511 14.5 22 5.769 2.185 21.381-2.299 25.5 4"/><path fill="#0a6584" d="M209 586c.138.096-.361 1.846 1.5 3 8.836 5.478 21.712 6.978 31.5 11-.751.088-1.106.132-1 1-14.744-3.994-24.049 4.495-35.5-2-9.623-5.458-11.95-18.452-11.5-28 4.295 7.546 8.202 10.279 15 15"/><path fill="#198aa6" d="M279 584c-1.907 12.061-8.781 18.914-18 26-1.259-.904-18.27-8.531-20-9-.106-.868.249-.912 1-1 3.41-.402 6.478 1.221 8.5 1 12.783-1.395 25.252-13.232 27-26z"/><path fill="#7ae2ee" d="M829 622c-4.79 13.944-13.576 21.585-28 25v-2c9.296-2.406 21.779-9.718 23-20 7.7-11.154-2.321-22.548-13-26-.119-.038-.71-1.893-1.5-2-6.465-.875-19.507 4.528-24.5 9l-17 13.5-1-2.5c14.829-28.36 61.234-35.041 62 5"/><path fill="#54daf1" d="M811 599c-.609 18.492-49.863 28.375-26 7 4.993-4.472 18.035-9.875 24.5-9 .79.107 1.381 1.962 1.5 2"/><path fill="#021227" d="M199 599c-2.798 13.924-9.087 27.143-12 41-1.154 5.487-2.389 11.443-3 17-2.074 18.868-1.255 33.653 3 52 2.365 10.198 5.273 15.74 9 25 .547 1.358-1.704 2.815-1 4.5 4.678 11.195 18.199 20.946 29.5 24.5l.5-12c1.978 11.539 6.808 20.966 19.5 23 31.388 5.03 98.761-2.747 134.5-3 37.979-.269 76.019.163 114 0 39.982-.171 80.019.241 120 0 9.318-.056 18.683.071 28 0 49.474-.375 98.986-1.695 148.5-1 13.744-4.603 17.411-11.958 18.5-26 .265-3.418.304-8.609 0-12-.19-2.125-.585-8.64-1-10l5-3.5v37c31.52-31.79 33.71-89.834 17.5-129.5-1.134 15.19-15.687 23.711-29.5 26-11.675 1.935-19.22.919-29-6v-2c9.185 6.335 19.718 5.434 30 3 14.424-3.415 23.21-11.056 28-25 .107-.31 2.035.328 2-5 27.141 46.206 13.931 152.319-50.5 159-35.768 3.709-77.993-2.6-114.5 1.5 30.831 18.39 58.533 46.583 79 76 7.482 10.754 19.91 29.894 25 41.5 2.524 5.755 4.505 14.387 7 20.5-19.042 13.399-46.305 17.551-69.5 19.5-23.695 1.991-112.066 1.472-131-8-7.454-3.729-4.007-6.798-5-8-.442-.534-6.875-1.952-8-3-7.423-6.91-13.831-13.356-15.5-24-4.561-29.093 32.385-86.514 55.5-105-52.026 26.142-114.354 44.139-170 17 17.602 20.845 46.505 58.056 40.5 87-3.543 17.078-24.551 24.681-25 26.5-.493 1.997 5.461 5.387-2.5 9.5-18.228 9.417-121.151 10.181-145 8-20.233-1.85-42.201-5.599-58.5-18.5-.828-2.93 6.363-17.798 8-21.5 20.155-45.592 60.29-89.691 102-116.5l-106.5.5c-11.899-.707-16.517-11.09-24-16-.736-.483-7.506-1.255-10-3-45.762-32.025-41.946-117.936-14.5-161Zm207 182c17.699 13.232 42.906 25.325 65 28 39.654 4.801 80.069-2.01 115-21 6.929-2.089 13.349-5.248 20-8 1.342-.555 6.711-.087 6.5-3-69.69 1.092-140.247-2.484-209.5 2.5-.074.163 2.527 1.147 3 1.5m-43-1c-15.12 3.112-26.248 17.079-39 25.5.614.93 2.941.441 4 .5.964.054 2.043.092 3 0 37.242-3.589 49.016-.469 74 29 19.952 23.534 32.25 50.864 43.5 79 2.495-1.673 5.013-3.334 7.5-5 1.332-.892 1.538-1.608 2-2 21.59-18.322 8.685-43.957-3-65.5-17.02-31.379-52.874-69.551-92-61.5m200 131c1.847 1.604 7.675 5.9 10 4.5 19.029-43.435 44.554-117.534 103-112.5 1.677 1.875 3.374 4.086 5 6-.986-.912-2.514-.756-3-1-37.628-18.885-79.253 57.212-91 84-3.262 7.44-6.372 15.308-9 23-.746 2.184-2.547 4.154-3 6.5 2.164 5.615 83.16 8.52 94 8.5 22.262-.041 46.184-.926 68-5 11.629-2.172 23.994-4.53 34-11 4.135-6.674-37.623-70.766-45-79.5-15.126-17.908-16.433-15.479-36-24.5-.355-.164-2.09-1.483-3-2-17.716-10.06 11.31.776 16 2.5-18.652-19.443-35.757-33.837-64.5-31.5-27.944 2.272-39.029 14.07-54.5 35.5-15.335 21.241-46.215 74.602-21 96.5m-241-97c-14.821 5.263-29.533 23.837-39 36.5-14.505 19.402-26.357 41.418-35 64 18.874 12.929 45.489 14.462 68 15.5 30.563 1.409 68.002.044 98.5-3 4.827-.482 32.527-3.207 33.5-6.5-.29-.816-1.936-1.393-2-1.5-17.248-28.752-25.115-64.922-52-88-10.724-13.03-25.216-20.897-42-22-3.13-.206-6.859-.17-10 0-8.939.484-13.419 1.447-20 5"/><path fill="#0e9cbf" d="m194 642-2.5-7-4.5 5c2.913-13.857 9.202-27.076 12-41l13 7.5c-8.496 5.949-16.057 14.6-18 25-.569 3.048.542 7.418 0 10.5"/><path fill="#0d97bb" d="M824 625c-6.779 9.819-63.442 26.798-58.5-3-4.456 23.975 16.577 27.899 35.5 23v2c-10.282 2.434-20.815 3.335-30-3-10.939-7.544-8.974-17.487-4-27l1 2.5 17-13.5c-23.863 21.375 25.391 11.492 26-7 10.679 3.452 20.7 14.846 13 26"/><path fill="#8be2ee" d="M250 608c1.194 5.359 7.04 7.384 10 13 .664 1.259.662 2.004 1 3-.983-3.388-18.076-13.029-19.5-12-.886.64-.192 4.684-1.5 6.5-2.835 3.936-16.895 13.975-21.5 12.5-11.609-6.327 15.813-19.712 7-20-12.161 4.473-20.384 8.627-24.5 21.5-1.27 3.973 2.344 6.161-3 9.5-1.658-12.695 2.123-23.656 13.5-31 12.71-8.205 15.357-4.857 28-4 .851.058.156-3.1 1-3 1.694.201 7.445 3.086 9.5 4"/><path fill="#29b7d4" d="M198 642c5.344-3.339 1.73-5.527 3-9.5 4.116-12.873 12.339-17.027 24.5-21.5 8.813.288-18.609 13.673-7 20 4.605 1.475 18.665-8.564 21.5-12.5 1.308-1.816.614-5.86 1.5-6.5 1.424-1.029 18.517 8.612 19.5 12 .058.171 1.807 1.747 2 3-9.919 8.219-16.102 13.373-29.5 15-2.821.342-11.128-2.356-12-1-4.323 6.724 5.176 11.181 9.5 14 8.141 5.307 12.669 8.843 22.5 3 9.086-5.401 17.374-29.938 6.5-37-2.96-5.616-8.806-7.641-10-13 33.796 15.036 15.986 60.168-6.5 58-2.137-.206-31.521-8.095-33-9l-8-9c4.861 15.712 16.005 16.689 30.5 15.5-19.656 6.992-32.345-1.176-35-21.5"/><path fill="#0c7599" d="M231 655c-.514-8.629 10.171-1.851 17.5-3 11.601-1.818 16.068-14.818 14.5-25-.193-1.253-1.942-2.829-2-3-.338-.996-.336-1.741-1-3 10.874 7.062 2.586 31.599-6.5 37-9.831 5.843-14.359 2.307-22.5-3"/><path fill="#09658a" d="M824 625c-1.221 10.282-13.704 17.594-23 20-18.923 4.899-39.956.975-35.5-23-4.942 29.798 51.721 12.819 58.5 3"/><path fill="#14708d" d="M272 626c13.423 14.711 5.5 47.276-15 53-.568-1.134-8.22-7.959-8-8.5 20.219-6.035 26.949-28.304 20-47 .698.173 2.564 2.022 3 2.5"/><path fill="#053554" d="M807 722c-.424-1.388-.977-.933-1-1 4.501-5.044 11.621-9.545 15-15.5 1.542-2.718 8.345-18.133 1-16.5.922-4.911-1.558-22.577-5.5-27-.69-.775-1.916 1.073-2 1-5.331-4.63-3.924-7.106-14.5-8v-3c13.813-2.289 28.366-10.81 29.5-26 16.21 39.666 14.02 97.71-17.5 129.5v-37z"/><path fill="#1592b3" d="M263 627c1.568 10.182-2.899 23.182-14.5 25-7.329 1.149-18.014-5.629-17.5 3-4.324-2.819-13.823-7.276-9.5-14 .872-1.356 9.179 1.342 12 1 13.398-1.627 19.581-6.781 29.5-15"/><path fill="#0a5473" d="M771 646c9.78 6.919 17.325 7.935 29 6v3c-2.504-.212-8.716-.937-8 2-16.869 2.207-31.072 17.989-23 35 .367.773-1.299.844-.5 2 1.001 1.447 10.883 7.619 13.5 8-.123-.023.694 2.36-1.5 2-2.009-.329-7.132-5.218-8.5-2.5l12 10.5c-2.437-.442-4.755 1.071-5 1-6.424-1.865-17.871-13.649-19-20.5-2.24-13.59 9.15-24.591 9-26-.213-2.004-18.993-11.981-15-29.5.117-.514 5.574-6.635 5.5-9 2.753 8.244 4.085 12.754 11.5 18"/><path fill="#0e7c9e" d="M194 642c-.318 1.808.353 4.251 0 6-.705 3.495-5.136 13.264-10 9 .611-5.557 1.846-11.513 3-17l4.5-5z"/><path fill="#095475" d="m199 708-12 1c-4.255-18.347-5.074-33.132-3-52 4.864 4.264 9.295-5.505 10-9 3.461 6.83 7.243 13.939 14 18.5-13.61 10.512-17.997 26.124-9 41.5"/><path fill="#031a2e" d="M800 655c10.576.894 9.169 3.37 14.5 8 .084.073 1.31-1.775 2-1 3.942 4.423 6.422 22.089 5.5 27-.176.938-1.447 2.899-2 4-9.532 18.985-23.237 11.791-38 9-2.617-.381-12.499-6.553-13.5-8-.799-1.156.867-1.227.5-2 7.619 6.524 13.933 9.065 24 9 21.64-.139 35.193-23.189 19-38-6.172-5.645-11.844-7.067-20-6-.716-2.937 5.496-2.212 8-2"/><path fill="#0a81a6" d="M812 663c-.858 1.79 2.438 3.747 3 6l-3 15.5c-2.86 2.695-10.315 10.896-14 9-.113-.058 3.819-1.629.5-2.5-3.442-.904-13.464-1.378-18-2-.642-.088-2.552-4.539-8 1l-4.5-3.5c3.667 9.067 15.94 13.796 25 13.5v1c-10.067.065-16.381-2.476-24-9-8.072-17.011 6.131-32.793 23-35 8.156-1.067 13.828.355 20 6m-36 9c-3.706 5.078 2.101 10.204 6.5 10 2.154-.1 20.773-12.727 17.5-18 .54-.002 4.055-1.309 6-.5-10.087-7.486-25.187-3.141-32 7-1.999 2.975.044 3.029 2 1.5"/><path fill="#8ae4ef" d="M800 664c-6.279.023-18.963 1.099-24 8-1.956 1.529-3.999 1.475-2-1.5 6.813-10.141 21.913-14.486 32-7-1.945-.809-5.46.498-6 .5"/><path fill="#23bddc" d="M800 664c3.273 5.273-15.346 17.9-17.5 18-4.399.204-10.206-4.922-6.5-10 5.037-6.901 17.721-7.977 24-8"/><path fill="#45d9e9" d="M793 701v-1c15.862-.518 25.682-16.25 22-31-.562-2.253-3.858-4.21-3-6 16.193 14.811 2.64 37.861-19 38"/><path fill="#c2f1f7" d="M236 668c2.259 1.002 5.225 3.637 7 5.5-2.198 1.798-4.444.178-7-.5-6.28-1.666-2.527-3.55-13-1-6.13 1.493-9.766 3.89-15 7-.105-7.373 9.076-6 12-11 7.327-1.628 8.753-3.216 16 0"/><path fill="#0c89ad" d="M220 668c-2.924 5-12.105 3.627-12 11-.297.177-2.257-2.264-4 2.5l4-1c-1.368 3.175-4.467 5.735-2.5 9.5 10.392-2.548 13.088 6.068 22.5 6-.986 1.771-1.732 11.454-2 12-2.059 4.196-6.902 5.156-8.5 9-27.89-9.956-28.363-42.145 2.5-49"/><path fill="#33c0dd" d="M229 709c5.009-4.498 11.319-4.528 16-10.5 3.993-5.094 7.596-14.161 2.5-19.5.639 9.626-10.652 16.937-19.5 17-9.412.068-12.108-8.548-22.5-6-1.967-3.765 1.132-6.325 2.5-9.5l-4 1c1.743-4.764 3.703-2.323 4-2.5 5.234-3.11 8.87-5.507 15-7l-6 4.5h5c-23.709 20.939 8.701 6.548 14-3.5 2.556.678 4.802 2.298 7 .5-1.775-1.863-4.741-4.498-7-5.5 29.286 5.603 19.224 36.719-7 41"/><path fill="#09698e" d="M815 669c3.682 14.75-6.138 30.482-22 31-9.06.296-21.333-4.433-25-13.5l4.5 3.5c5.448-5.539 7.358-1.088 8-1 4.536.622 14.558 1.096 18 2 3.319.871-.613 2.442-.5 2.5 3.685 1.896 11.14-6.305 14-9z"/><path fill="#8cebfa" d="M236 673c-5.299 10.048-37.709 24.439-14 3.5h-5l6-4.5c10.473-2.55 6.72-.666 13 1"/><path fill="#0b6f92" d="M229 709c-1.002.164-2.992.408-3-1 .268-.546 1.014-10.229 2-12 8.848-.063 20.139-7.374 19.5-17 5.096 5.339 1.493 14.406-2.5 19.5-4.681 5.972-10.991 6.002-16 10.5"/><path fill="#05253a" d="M806 721c-.098-.285-4.254-.699-4-4.5.051-.76 2.918-2.323 3-2.5 4.437-9.598 6.153-7.42 12-13.5.532-.553 5.164-6.408 3-7.5.553-1.101 1.824-3.062 2-4 7.345-1.633.542 13.782-1 16.5-3.379 5.955-10.499 10.456-15 15.5"/><path fill="#052c43" d="M805 714c-3.203-1.116-7.302.183-11 0-3.106-.154-6.923-1.443-10-2l-12-10.5c1.368-2.718 6.491 2.171 8.5 2.5 2.194.36 1.377-2.023 1.5-2 14.763 2.791 28.468 9.985 38-9 2.164 1.092-2.468 6.947-3 7.5-5.847 6.08-7.563 3.902-12 13.5"/><path fill="#063e5e" d="M199 708c3.9 6.665 16.335 14.22 24 15l-1 2c-6.236-3.027-14.663-5.184-21-9.5 9.789 13.803 24.606 15.562 17.5 37.5L196 734c-3.727-9.26-6.635-14.802-9-25z"/><path fill="url(#k)" d="M784 712c3.077.557 6.894 1.846 10 2 1.295 6.567 6.929 16.518 14 18 .304 3.391.265 8.582 0 12-3.497 3.458-2.165 9.791-5 14.5-2.372 3.941-10.966 8.773-15.5 9.5-37.315 5.98-101.359-.175-142 1-1.827.053-4.938-1.001-4.5 2-9.317.071-18.682-.056-28 0H493c-37.981.163-76.021-.269-114 0H241.5c-18.894-6.47-9.757-32.033-13.5-42.5-.636-1.778-3.775-1.85-5-2.5-1.265-.671-.936-.969-1-1l1-2c8.387.854 18.364-1.808 25-7 2.005 4.62.643 10.11 1 15 .634 8.688.285 14.175 9.5 18l137.5-2c43.722 1.893 89.159-.83 133-1 2.993 6.157-21.829.807-25.5 4l264-1c5.501-1.674 11.452-1.539 13.5-8 1.057-3.335.999-4.587 1-8 .003-6.733-1.624-13.474-3-20 .245.071 2.563-1.442 5-1" style="fill:url(#k)"/>/&gt;<path fill="#065171" d="M805 714c-.082.177-2.949 1.74-3 2.5-.254 3.801 3.902 4.215 4 4.5.023.067.576-.388 1 1 .415 1.36.81 7.875 1 10-7.071-1.482-12.705-11.433-14-18 3.698.183 7.797-1.116 11 0"/><path fill="#042741" d="M222 725c.064.031-.265.329 1 1 1.777 8.13.603 16.851 2 25l-.5 12c-11.301-3.554-24.822-13.305-29.5-24.5-.704-1.685 1.547-3.142 1-4.5l22.5 19c7.106-21.938-7.711-23.697-17.5-37.5 6.337 4.316 14.764 6.473 21 9.5"/><path fill="#7fcde0" d="M379 771c-35.739.253-103.112 8.03-134.5 3-12.692-2.034-17.522-11.461-19.5-23-1.397-8.149-.223-16.87-2-25 1.225.65 4.364.722 5 2.5 3.743 10.467-5.394 36.03 13.5 42.5z"/><path fill="#d6f1f9" d="M367 742c-.457 3.971.761 2.748 3.5 3 7.929.73 17.714 1.663 25.5 2l-137.5 2c-9.215-3.825-8.866-9.312-9.5-18 3.557 3.545 2.297 9.943 8.5 12 36.485 1.01 73.078-.911 109.5-1"/><path fill="#34aecb" d="m781 741-7 3c-8.285-3.846-25.407 3.089-29.5-4-68.121 1.959-136.356.785-204.5 1-28.323.09-56.628.877-85 1-17.316.075-34.684-.074-52 0-.436-3.009 2.669-1.938 4.5-2 121.73-4.121 244.211 2.488 366-1l8.5-6c-.001 3.413.057 4.665-1 8"/><path fill="#1ccbe5" d="M774 744c-77.985 1.874-155.978 1.66-234 2v-5c68.144-.215 136.379.959 204.5-1 4.093 7.089 21.215.154 29.5 4"/><path fill="#7ce2f1" d="M540 741v5c-3.654.016-7.346-.014-11 0l-74-4c28.372-.123 56.677-.91 85-1"/><path fill="#0f6f91" d="M529 746c3.654-.014 7.346.016 11 0 78.022-.34 156.015-.126 234-2l7-3c-2.048 6.461-7.999 6.326-13.5 8l-264 1c3.671-3.193 28.493 2.157 25.5-4"/><path fill="#bcedf6" d="M403 742c17.316-.074 34.684.075 52 0l74 4c-43.841.17-89.278 2.893-133 1-7.786-.337-17.571-1.27-25.5-2-2.739-.252-3.957.971-3.5-3 11.984-.029 24.016.051 36 0"/><path fill="#1896b9" d="M808 744c-1.089 14.042-4.756 21.397-18.5 26-49.514-.695-99.026.625-148.5 1-.438-3.001 2.673-1.947 4.5-2 40.641-1.175 104.685 4.98 142-1 4.534-.727 13.128-5.559 15.5-9.5 2.835-4.709 1.503-11.042 5-14.5"/><path fill="#268da9" d="M613 771c-39.981.241-80.018-.171-120 0z"/><path fill="#2a3e50" d="M606 780c-28.549 1.939-56.764 8.113-85.5 9-38.506 1.188-76.446-4.624-114.5-8-.473-.353-3.074-1.337-3-1.5 69.253-4.984 139.81-1.408 209.5-2.5.211 2.913-5.158 2.445-6.5 3"/><path fill="#043555" d="M458 907c-9.11-42.864-24.28-107.286-77.5-111-15.452-1.078-36.305 1.564-49.5 10-.957.092-2.036.054-3 0l35-26c39.126-8.051 74.98 30.121 92 61.5 11.685 21.543 24.59 47.178 3 65.5"/><path fill="#516572" d="M606 780c-6.651 2.752-13.071 5.911-20 8-15.725 4.741-37.055 12.145-53.5 15-18.652 3.238-43.455-1.126-59 2-3.552.714-2.497.353-2.5 4-22.094-2.675-47.301-14.768-65-28 38.054 3.376 75.994 9.188 114.5 8 28.736-.887 56.951-7.061 85.5-9"/><path fill="#074264" d="M687 808c-2.289 3.449 3.027 5.358 4 7.5.983 2.165-1.058 2.379-1 2.5-2.011-3.789-6.375-5.909-9-9-1.626-1.914-3.323-4.125-5-6-.101-.113 2.524-1.445.5-3-1.451-1.115-8.313-1.003-10.5-1-8.499-9.385-31.977-9.701-43.5-7-28.43 6.663-47.784 73.565-55.5 98.5-.3.969-1.586 4.212 1 3.5-2.28 4.687-4.833 11.69-5 17-25.215-21.898 5.665-75.259 21-96.5 15.471-21.43 26.556-33.228 54.5-35.5 28.743-2.337 45.848 12.057 64.5 31.5-4.69-1.724-33.716-12.56-16-2.5"/><path fill="#12759b" d="m363 780-35 26c-1.059-.059-3.386.43-4-.5 12.752-8.421 23.88-22.388 39-25.5"/><path fill="#80969b" d="M586 788c-34.931 18.99-75.346 25.801-115 21 .003-3.647-1.052-3.286 2.5-4 15.545-3.126 40.348 1.238 59-2 16.445-2.855 37.775-10.259 53.5-15"/><path fill="#0a658a" d="M666 799c-42.201.063-81.617 61.317-98 95-2.586.712-1.3-2.531-1-3.5 7.716-24.935 27.07-91.837 55.5-98.5 11.523-2.701 35.001-2.385 43.5 7"/><path fill="#095e83" d="M458 907c-.462.392-.668 1.108-2 2l-25-48.5c-7.388-8.25-15.107-22.951-26-25.5-24.984-29.469-36.758-32.589-74-29 13.195-8.436 34.048-11.078 49.5-10 53.22 3.714 68.39 68.136 77.5 111"/><path fill="#073c5c" d="M666 799c2.187-.003 9.049-.115 10.5 1 2.024 1.555-.601 2.887-.5 3-58.446-5.034-83.971 69.065-103 112.5-2.325 1.4-8.153-2.896-10-4.5.167-5.31 2.72-12.313 5-17 16.383-33.683 55.799-94.937 98-95"/><path fill="url(#l)" d="M678 808c2.803 2.689 4.716 5.938 7 9-3.653.235-2.556 1.154-2 3.5 1.44 6.072 5.368 13.641 7 20 7.215 28.117 12.569 57.32 12 86.5-10.045 1.089-22.74.901-33 1-20.493.197-39.796-1.934-60-4l17-73.5c-14.45 4.581-22.182 22.215-28 35.5-2.877 3.68-4.837-2.378-6.5 0-.377.539 1.259 6.185-4.5 6 11.747-26.788 53.372-102.885 91-84" style="fill:url(#l)"/>/&gt;<path fill="#19c9e9" d="M681 809c2.625 3.091 6.989 5.211 9 9 11.614 24.32 18.989 40.35 26 67l-3 2c-5.488-22.961-13.839-51.011-28-70-2.284-3.062-4.197-6.311-7-9 .486.244 2.014.088 3 1"/><path fill="#064669" d="M690 810c40.44 20.326 57.642 67.757 81 104-10.006 6.47-22.371 8.828-34 11-2.799-3.248-10.826 1.523-13-.5-1.475-1.373-6.595-34.157-8-39.5-7.011-26.65-14.386-42.68-26-67-.058-.121 1.983-.335 1-2.5-.973-2.142-6.289-4.051-4-7.5.91.517 2.645 1.836 3 2"/><path fill="#5db6d2" d="M342 809c.168 1.15-.799.865-1 1-6.686 4.473-9.643 13.076-14 19.5l14-17.5c.617 2.318-11.831 23.824-14 29.5-6.031 15.785-11.896 37.855-15 54.5-1.914 10.267-3.174 20.525-3.5 31l-.5-19.5c-.803-4.716 8.768-31.486 8-33-3.826-7.538-8.549 22.848-9 23.5-.03-.74.276-3.011-.5-3-.125.002-.718 1.167-1.5 2 .66-9.326 2.566-19.06 6-28 2.684 2.132 1.82-1.232 3-3.5-2.41-1.853-1.876 1.482-2 1.5-.55.078-2.605-1.892-3.5-1-6.168 6.152-11.199 58.709-14 60-7.398.106-44.896-5.258-43.5-14.5 11.682-20.143 22.165-41.173 36-60 7.31-9.947 24.885-32.04 35-37.5 6.581-3.553 11.061-4.516 20-5m-24.5 43c-1.127 3.146-5.521 8.863-3 12z"/><path fill="#bfeaf8" d="M352 809c-9.299 28.637-16.008 56.346-21 86-5.896 4.4-12.257-.112-19 1 3.104-16.645 8.969-38.715 15-54.5 2.169-5.676 14.617-27.182 14-29.5-.144-.54.071-1.362 0-2 .201-.135 1.168.15 1-1 3.141-.17 6.87-.206 10 0"/><path fill="url(#m)" d="M394 831c-2.026-1.739-7.35-5.93-10-6.5l6 6c7.894 25.767 26.821 57.639 33 83 .859 3.527 1.4 6.973 0 10.5-5.651.539-11.288 1.242-17 1-1.771-.075-8.369-3.312-8 1-24.614 1.194-49.311 2.571-74 2 4.408-9.423 5.187-22.233 7-33 4.992-29.654 11.701-57.363 21-86 16.784 1.103 31.276 8.97 42 22" style="fill:url(#m)"/>/&gt;<path fill="#167fa3" d="m341 812-14 17.5c4.357-6.424 7.314-15.027 14-19.5.071.638-.144 1.46 0 2"/><path fill="#0b8cb7" d="M771 914c-23.358-36.243-40.56-83.674-81-104 19.567 9.021 20.874 6.592 36 24.5 7.377 8.734 49.135 72.826 45 79.5"/><path fill="#cdeff6" d="M322 814c-10.115 5.46-27.69 27.553-35 37.5-13.835 18.827-24.318 39.857-36 60-1.396 9.242 36.102 14.606 43.5 14.5 2.801-1.291 7.832-53.848 14-60 .895-.892 2.95 1.078 3.5 1-.099.803-.686 1.182-1 2-3.434 8.94-5.34 18.674-6 28-.012.167-2.423 1.88-1.5 3 2.461.393 1.145-2.622 1.5-3 .782-.833 1.375-1.998 1.5-2 .776-.011.47 2.26.5 3l-5 24c.529-6.525 1.466-12.978 2-19.5-2.654 2.088-4.058 22.288-3 23.5 4.614 2.862 9.974 1.834 15 2v2c-22.511-1.038-49.126-2.571-68-15.5 8.643-22.582 20.495-44.598 35-64 9.467-12.663 24.179-31.237 39-36.5"/><path fill="#084f73" d="M685 817c14.161 18.989 22.512 47.039 28 70 2.95 12.343 5.641 24.83 7 37.5-5.972.69-12.052 1.855-18 2.5.569-29.18-4.785-58.383-12-86.5-1.632-6.359-5.56-13.928-7-20-.556-2.346-1.653-3.265 2-3.5"/><path fill="#086c93" d="M394 831c26.885 23.078 34.752 59.248 52 88-6.961 2.639-15.653 4.299-23 5 1.4-3.527.859-6.973 0-10.5-6.179-25.361-25.106-57.233-33-83l-6-6c2.65.57 7.974 4.761 10 6.5"/><path fill="#05395b" d="M456 909c-2.487 1.666-5.005 3.327-7.5 5-11.25-28.136-23.548-55.466-43.5-79 10.893 2.549 18.612 17.25 26 25.5z"/><path fill="#5fd7f3" d="M609 924c-7.319-.748-14.637-.776-22-2 1.033-12.758 5.946-24.46 11-36 5.818-13.285 13.55-30.919 28-35.5z"/><path fill="#2e819f" d="m317.5 852-3 12c-2.521-3.137 1.873-8.854 3-12"/><path fill="#317b96" d="M311 869c.314-.818.901-1.197 1-2 .124-.018-.41-3.353 2-1.5-1.18 2.268-.316 5.632-3 3.5"/><path fill="#94daef" d="M312 896c6.743-1.112 13.104 3.4 19-1-1.813 10.767-2.592 23.577-7 33-2.652-.061-5.35.087-8 0-5.026-.166-10.386.862-15-2 1.701-.263.895-2.7 1-4l5-24c.451-.652 5.174-31.038 9-23.5.768 1.514-8.803 28.284-8 33l.5 19.5c.326-10.475 1.586-20.733 3.5-31"/><path fill="#199bc2" d="M598 886c-5.054 11.54-9.967 23.242-11 36-1.423-.236-8.905-.399-9.5-1l.5-6c2.628-7.692 5.738-15.56 9-23 5.759.185 4.123-5.461 4.5-6 1.663-2.378 3.623 3.68 6.5 0"/><path fill="#11acd1" d="M737 925c-21.816 4.074-45.738 4.959-68 5v-2c10.26-.099 22.955.089 33-1 5.948-.645 12.028-1.81 18-2.5-1.359-12.67-4.05-25.157-7-37.5l3-2c1.405 5.343 6.525 38.127 8 39.5 2.174 2.023 10.201-2.748 13 .5"/>/&gt;<path fill="#378da3" d="M305 897c-.355.378.961 3.393-1.5 3-.923-1.12 1.488-2.833 1.5-3"/><path fill="#3a89aa" d="M302 922c-.105 1.3.701 3.737-1 4-1.058-1.212.346-21.412 3-23.5-.534 6.522-1.471 12.975-2 19.5"/><path fill="#53e5f4" d="M587 922c7.363 1.224 14.681 1.252 22 2 20.204 2.066 39.507 4.197 60 4v2c-10.84.02-91.836-2.885-94-8.5.453-2.346 2.254-4.316 3-6.5l-.5 6c.595.601 8.077.764 9.5 1"/><path fill="#4ad3ea" d="M316 930v-2c2.65.087 5.348-.061 8 0 24.689.571 49.386-.806 74-2 2.711-.132 5.528.652 8-1 5.712.242 11.349-.461 17-1 7.347-.701 16.039-2.361 23-5 .064.107 1.71.684 2 1.5-.973 3.293-28.673 6.018-33.5 6.5-30.498 3.044-67.937 4.409-98.5 3"/><path fill="#1ac0de" d="M406 925c-2.472 1.652-5.289.868-8 1-.369-4.312 6.229-1.075 8-1"/></svg>