<svg xmlns="http://www.w3.org/2000/svg" width="1024" height="1024"><defs><linearGradient id="a" x1="567.883" x2="455.088" y1="237.673" y2="408.852" gradientUnits="userSpaceOnUse"><stop offset="0%" style="stop-color:#169cbd"/><stop offset="92.683%" style="stop-color:#55d6f0"/></linearGradient></defs><defs><linearGradient id="b" x1="508.716" x2="517.185" y1="259.456" y2="378.154" gradientUnits="userSpaceOnUse"><stop offset="0%" style="stop-color:#062435"/><stop offset="100%" style="stop-color:#0c6384"/></linearGradient></defs><defs><linearGradient id="c" x1="386.577" x2="718.111" y1="564.878" y2="866.19" gradientUnits="userSpaceOnUse"><stop offset="28.571%" style="stop-color:#8ec8d7"/><stop offset="100%" style="stop-color:#5d8ba2"/></linearGradient></defs><defs><linearGradient id="d" x1="192.384" x2="826.046" y1="757.599" y2="778.285" gradientUnits="userSpaceOnUse"><stop offset="10.252%" style="stop-color:#128bb0"/><stop offset="80.915%" style="stop-color:#197395"/></linearGradient></defs><path fill="#0d3d58" d="M685 133c-5.673-2.369-8.752-6.452-13-10-1.629-1.361.042-3.782-4.5-4-3.222-.155-15.754 6.341-19.5 8-11.963 5.299-22.857 11.44-32 21-2.302-1.624-1.407.254-2-3 1.53-.529 15.86-13.418 20.5-16 8.499-4.729 30.29-9.453 34-12 1.623-1.114.818-17.453 14-20 24.002-4.637 32.434 25.201 16 34-5.883 3.15-9.268.837-13.5 2m-9-22c.42 1.036 5.717 6.662 6.5 7 4.975 2.145 22.237-4.417 16.5-13-6.814-10.195-27.272-4.529-23 6"/><path fill="#dbf7fc" d="M699 105c-8.77-3.311-17.136-1.789-23 6-4.272-10.529 16.186-16.195 23-6"/><path fill="#12b8db" d="M699 105c5.737 8.583-11.525 15.145-16.5 13-.783-.338-6.08-5.964-6.5-7 5.864-7.789 14.23-9.311 23-6"/><path fill="#57d6ed" d="M672 123c-6.366 6.419-16.188 8.535-24 13 1.936-5.138-2.78-5.165 0-9 3.746-1.659 16.278-8.155 19.5-8 4.542.218 2.871 2.639 4.5 4"/><path fill="#09698a" d="M685 133c-7.314 2.011-29.022 28.616-32 37-3.567-2.764-9.85-4.725-13-9l37.5-29c-9.495 2.444-22.331 9.439-30 16-2.796 2.392-11.342 9.188-8.5 13-2.806-.331-11.748-7.132-15-9 8.149-5.262 15.525-11.156 24-16 7.812-4.465 17.634-6.581 24-13 4.248 3.548 7.327 7.631 13 10"/><path fill="#51a9c7" d="m539 126-5 4c-10.643-.669-21.398.118-32 1-75.981 6.322-146.963 45.367-188 110l-4-1c49.329-80.128 134.145-124.324 229-114"/><path fill="#307893" d="M564 131c-2.005.012-6.308.851-8 2-6.974-1.206-14.98-2.559-22-3l5-4c8.293.903 17.1 2.205 25 5"/><path fill="#95f2fb" d="M648 127c-2.78 3.835 1.936 3.862 0 9-8.475 4.844-15.851 10.738-24 16-2.651-1.522-5.266-2.072-8-4 9.143-9.56 20.037-15.701 32-21"/><path fill="#e0ecef" d="M534 130c7.02.441 15.026 1.794 22 3 83.654 14.463 156.52 83.838 179 165l3.5 20c-3.207-11.961-7.664-24.117-12.5-36-30.955-76.058-91.809-132.022-173.5-145-.618-.098-7.174-6.78-8.5 0-2.147-.34-4.807.295-7 0l-.5-4c-4.397 3.264-17.06-3.954-18.5 2-4.615-.438-14.566.096-16-4 10.602-.882 21.357-1.669 32-1"/><path fill="#e0e8ec" d="M502 131c1.434 4.096 11.385 3.562 16 4 6.592.626 12.407 1.112 19 2 2.193.295 4.853-.34 7 0 28.172 4.464 57.503 13.955 80 31-31.099-15.393-65.498-26.563-100.5-28-8.001-.328-42.108.378-48 3-5.859 2.608 1.139 9.755.5 14-38.586 7.597-74.052 30.124-98 61-7.573 9.764-12.401 18.033-18 29-19.732 38.646-24.735 72.963-17 116 1.931 10.744 5.096 24.927 9 35l-52 17.5 2.5 8.5 54.5-13.5-56 15c3.571 18.641 11.588 36.191 16 54.5.658 2.733 2.792 6.036 1.5 9-1.437-4.189-3.658-8.029-5.5-12-6.081-13.114-12.134-31.366-15-45.5-1.482-7.309-3.688-43.155-5-45-.835-1.174-13.564-.615-16 .5-.74-10.735-.629-21.264 0-32 2.304-39.345 15.897-80.763 37-114 41.037-64.633 112.019-103.678 188-110"/><path fill="#071e2d" d="M564 131c11.796-.071 45.703 15.484 50 14 .593 3.254-.302 1.376 2 3 2.734 1.928 5.349 2.478 8 4 3.252 1.868 12.194 8.669 15 9 .328.039.669-.029 1 0 3.15 4.275 9.433 6.236 13 9 27.887 21.611 53.075 52.607 70 83.5 2.302 4.202 11.178 27.679 12.5 28.5 5.249 3.258 39.491-.677 46.5 13-1.497-1.752-6.681-1.825-7-2-4.272-2.348-4.67-3.46-10-5-7.019-2.028-13.59-3.949-21-4-1.751-.012-6.698-1.017-7 1.5 6.948 17.232 12.606 36.02 15 54.5 1.768 13.645 1.666 26.357 1 40-.336 6.876-1.089 13.211-2 20-.357 2.661-.557 5.331-1 8l-4-5c5.283-35.647 4.326-71.999-11-105-22.48-81.162-95.346-150.537-179-165 1.692-1.149 5.995-1.988 8-2"/><path fill="#c3d1d6" d="M537 137c-6.593-.888-12.408-1.374-19-2 1.44-5.954 14.103 1.264 18.5-2z"/><path fill="#19bcde" d="M640 161c-.331-.029-.672.039-1 0-2.842-3.812 5.704-10.608 8.5-13 7.669-6.561 20.505-13.556 30-16z"/><path fill="#778591" d="m726 282-13 7c-5.843-17.895-16.44-38.756-26-55-15.615-26.535-35.595-52.436-63-66-22.497-17.045-51.828-26.536-80-31 1.326-6.78 7.882-.098 8.5 0 81.691 12.978 142.545 68.942 173.5 145"/><path fill="#b4c2ce" d="M624 168c27.405 13.564 47.385 39.465 63 66-5.84.257-16.803 8.663-18 14-35.757-70.676-115.945-106.172-193-91 .639-4.245-6.359-11.392-.5-14 5.892-2.622 39.999-3.328 48-3 35.002 1.437 69.401 12.607 100.5 28"/><path fill="#5c707e" d="M669 248c18.354 36.277 22.313 76.071 16 116-7.769 49.142-40.275 94.834-84 118.5 25.651 1.223 51.405 5.888 77 7.5v5c-21.981-1.551-44.013-3.475-66-5-15.288-1.061-30.79-1.554-46-3.5 100.195-35.805 143.842-144.2 91-239-59.55-106.835-195.231-113.215-273-22.5.759-3.009-3.434-5.515-6-7 23.948-30.876 59.414-53.403 98-61 77.055-15.172 157.243 20.324 193 91"/><path fill="#1e5165" d="m612 490 2.5 3c-3.003.604-9.774-1.705-9.5 2-4.608-.186-9.274-.845-14-1-95.78-3.144-195.93-1.125-291 10-23.936 2.801-107.281 12.352-123.5 24-14.563 10.458-13.262 20.304-12.5 36 .171 3.528.827 21.088 2 22.5.579.697 11.865 4.578 16 8.5 1.275 1.209 3.901 4.102 4 6-.952-.991-2.721-1.682-3.5-3-1.045 2.058 1.121 2.316.5 5h-1c-4.048-11.372-27.485-21.634-35-9-3.52 5.919-.543 10.004 0 16-1.805-1.155-1.195-3.645-3.5-4-3.498 4.634 1.227 8.046 1.5 9.5.835 4.447-2.674 3.231 2 7.5.486.444-1.058 2.051 3 3-1.112 4.876-10.228 3.116-14 2 5.205-4.842-2.104-7.484-3-13.5-1.142-7.669 7.165-14.013 0-19.5-5.556-4.254-6.733.735-10 5-.059-.764-.151-1.103-1-1 3.295-9.823 9.41-5.684 12.5-7 2.741-1.167 7.261-13.898 12-18 2.373-2.054 13.282-6.674 13.5-7.5.813-3.082-1.98-16.493 0-24 5.483-20.79 33.889-25.766 51.5-29.5 29.602-6.276 60.184-8.208 90-13 1.58-.254 6.023-1.067 6.5-3 1.799 2.265-.669 2.5.5 3 4.948 1.226 4.203-1.939 4.5-2 25.517-5.243 77.435-6.585 105.5-8 18.517-.934 37.41.694 56 0-5.149-5.585-19.565-4.675-27.5-5-11.285-9.188-25.076-14.848-36.5-24-28.579-22.897-52.218-61.418-60.5-97-9.361-40.215-3.734-79.34 17-115 4.134-7.11 11.66-17.771 17-24 77.769-90.715 213.45-84.335 273 22.5 52.842 94.8 9.195 203.195-91 239 15.21 1.946 30.712 2.439 46 3.5M442 190c-62.59 31.867-104.144 104.839-82 175 1.304 15.38 17.08 42.529 27 54.5 60.874 73.457 181.317 75.706 244 3.5 64.091-73.828 40.078-183.179-43-230-46.491-26.201-98.916-26.973-146-3M157.5 573c-10.202.001-25.635 28.95-18 39 .783-12.535-.556-21.114 10-30 .702-.591 19.577-9.001 8-9m2 6c-.962-.309-13.04 7.03-12.5 10.5.711 1.606 22.591-7.264 12.5-10.5"/><path fill="#6fe4f8" d="m588 193-9.5-3 .5 7c-6.075-3.082-17.363-7.144-24-9-28.125-7.863-58.946-8.445-87 0-4.032-4.659-21.902 8.251-23.5 8l-2.5-6c47.084-23.973 99.509-23.201 146 3"/><path fill="#12a8cc" d="M555 188c.389 2.251-3.638 14.582-4.5 15-1.191.577-22.177-4.744-26-5-57.896-3.875-113.884 24.489-136.5 79.5-10.282 25.01-14.721 65.176-2 90 5.165 10.079 6.809-1.541 15-.5 42.288 105.46 220.982 83.597 227-38 1.978-.064 12.818 4.818 13 5.5 2.551 9.535-17.589 49.919-24 59-36.161 51.218-104.905 65.875-161.5 41.5-6.293-2.71-28.302-19.518-30-19-.72.22-2.878 4.768-2.5 6.5.986 4.517 23.604 16.553 24 18 .367 1.341-4.709 7.953-2 10.5-36.605-16.44-64.535-44.89-76-84-22.275-75.982 23.976-156.415 99-179 28.054-8.445 58.875-7.863 87 0"/><path fill="#aff8fc" d="M468 188c-75.024 22.585-121.275 103.018-99 179-4.759.539-6.007-8.945-7.5-12-1.561.171-1.543 9.496-1.5 10-22.144-70.161 19.41-143.133 82-175l2.5 6c1.598.251 19.468-12.659 23.5-8"/><path fill="#0d7b9d" d="M579 197c82.671 41.936 111.303 155.142 43 224-46.446 46.823-117.724 56.622-177 30-2.709-2.547 2.367-9.159 2-10.5-.396-1.447-23.014-13.483-24-18-.378-1.732 1.78-6.28 2.5-6.5 1.698-.518 23.707 16.29 30 19 56.595 24.375 125.339 9.718 161.5-41.5 6.411-9.081 26.551-49.465 24-59-.182-.682-11.022-5.564-13-5.5 3.922-79.249-65.922-128.315-140.5-116-70.591 11.657-113.147 87.546-86.5 154-8.191-1.041-9.835 10.579-15 .5-12.721-24.824-8.282-64.99 2-90 22.616-55.011 78.604-83.375 136.5-79.5 3.823.256 24.809 5.577 26 5 .862-.418 4.889-12.749 4.5-15 6.637 1.856 17.925 5.918 24 9"/><path fill="#2ec6e8" d="M588 193c83.078 46.821 107.091 156.172 43 230-2.006-.77-3.845 2.997-4.5 3-.854.003-3.486-4.334-4.5-5 68.303-68.858 39.671-182.064-43-224l-.5-7z"/><path fill="url(#a)" d="M628 329c-6.018 121.597-184.712 143.46-227 38-26.647-66.454 15.909-142.343 86.5-154 74.578-12.315 144.422 36.751 140.5 116m-184-23c-17.518 70.785 75.298 111.68 122 60.5 46.501-50.959-6.294-132.96-72-115.5-45.751-41.419-119.147 45.881-81.5 89l3-1z" style="fill:url(#a)"/>/&gt;<path fill="#8498a3" d="M384 225c-5.34 6.229-12.866 16.89-17 24l-7-2c5.599-10.967 10.427-19.236 18-29 2.566 1.485 6.759 3.991 6 7"/><path fill="#9fb0bd" d="M687 234c9.56 16.244 20.157 37.105 26 55 9.022 27.633 14.496 63.942 13 93-.841-.25-4.804 2.784-5 3 9.403-18.888-19.331-35.412-32-20l-4-1c6.313-39.929 2.354-79.723-16-116 1.197-5.337 12.16-13.743 18-14"/><path fill="#06435a" d="M314 241c-21.103 33.237-34.696 74.655-37 114l-2-1.5-1 33c-2.695-15.313.089-29.938 1-45 .104-1.724.873-4.987-2-4.5 2.405-17.618 8.366-36.183 14-53 .086-.257 3.896.784 0-2 2.146-1.062 19.251-35.91 23-42z"/><path fill="#fefefe" d="M494 251c35.447 32.091-14.234 87.265-50 55l-28.5 33-3 1c-37.647-43.119 35.749-130.419 81.5-89"/><path fill="#93a8b3" d="M367 249c-20.734 35.66-26.361 74.785-17 115l-7-1c-7.735-43.037-2.732-77.354 17-116z"/><path fill="url(#b)" d="M444 306c35.766 32.265 85.447-22.909 50-55 65.706-17.46 118.501 64.541 72 115.5-46.702 51.18-139.518 10.285-122-60.5m97.5 42c-7.543 1.604-9.895 14.163-3 19 16.69 11.708 23.52-23.364 3-19" style="fill:url(#b)"/>/&gt;<path fill="#0c425d" d="M287 284c-6.442-.341-12.632.063-19 1-4.221.621-9.103 1.274-13 3-14.542 6.44-14.91 26.729-16 41l-2 1c.038-2.671-.986-5.916-1-7-.084-6.552-.074-13.012 1-19.5l-1.5 3.5c-1.394.681-1.417-1.036-1.5-1 2.568-.773-.025-1.903 0-2 3.361-12.965 21.878-18.904 33.5-21 5.583-1.007 14.317 1.565 19.5-1 3.896 2.784.086 1.743 0 2"/><path fill="#60717f" d="M726 282c4.836 11.883 9.293 24.039 12.5 36l-3.5-20c15.326 33.001 16.283 69.353 11 105-2.71 18.281-7.893 36.048-15 53 .045-.127-1.819-.079-1-2.5 3.577-10.578 8.702-20.675 10-32l-20-.5c2.354-12.47 5.35-26.37 6-39 1.496-29.058-3.978-65.367-13-93zm16.5 55c-.612.793-1.708.914-1 2 1.391 2.132 2.238-.164 1-2m1 27-1 42c1.922-13.607 4.521-28.338 1-42"/><path fill="#0299c2" d="M287 284c-5.634 16.817-11.595 35.382-14 53-2.26 16.553-2.155 32.347-1 49-5.185.973-.193-5.411-2.5-7-2.161-1.488-14.097 1.492-17.5 2-.07-1.986.041-4.012 0-6-.189-9.164.156-17.885 1-27 2.008-21.671 7.7-42.602 15-63 6.368-.937 12.558-1.341 19-1"/><path fill="#029ec9" d="M744 284c3.722 3.407 5.962 1.518 10 6.5 6.464 7.974 12.835 37.52 15 48.5l-17 1c-2.394-18.48-8.052-37.268-15-54.5.302-2.517 5.249-1.512 7-1.5"/><path fill="#04c6e6" d="M765 288c12.566 21.68 14.31 45.746 17 70-2.348-4.348-10.704-1.954-11-2.5-.826-1.523-1.331-13.107-2-16.5-2.165-10.98-8.536-40.526-15-48.5-4.038-4.982-6.278-3.093-10-6.5 7.41.051 13.981 1.972 21 4"/><path fill="#07cde9" d="M268 285c-7.3 20.398-12.992 41.329-15 63h-12c.638-7.756 1.43-19.142 3-26.5 2.425-11.363 9.938-22.042 11-33.5 3.897-1.726 8.779-2.379 13-3"/><path fill="#7fe7f5" d="M241 348c-.793 9.633-1.287 19.313-1 29-.148.06.133 3.395-2 2.5-1.229-8.26 2.56-20.491-2-27.5.022-1.657-.035-3.343 0-5 5.176 6.508 2.836-15.852 3-18 1.09-14.271 1.458-34.56 16-41-1.062 11.458-8.575 22.137-11 33.5-1.57 7.358-2.362 18.744-3 26.5"/><path fill="#8becf7" d="M775 293c9.105 24.336 14.419 55.714 14 82-.005.333.008.667 0 1-6.724-.358-.698-34.03-6.5-10-.921 0-.359-6.727-.5-8-2.69-24.254-4.434-48.32-17-70 5.33 1.54 5.728 2.652 10 5"/><path fill="#044b6c" d="M782 295c1.948 2.28 1.007 5.844 3.5 8 1.482 1.282 8.489 2.242 11 4 9.862 6.906 15.082 14.957 19.5 26l-2 3c-3.638-10.258-9.911-20.023-19-26-.786-.517-9.222-7.478-10-3.5 2.037 15.851 4.107 31.51 5 47.5.377 6.751 1.03 13.152 1 20l-2 1c.419-26.286-4.895-57.664-14-82 .319.175 5.503.248 7 2"/><path fill="#47d4ef" d="M236 323c-1.871 19.875-5.718 42.076-5 62-3.36-3.63-10.239-8.382-13-12-6.471-8.481-6.651-13.701-9-24-1.928-4.404 1.53-.084 2-.5.652-.577 3.354-16.997 5.5-16.5.791.183 2.119 9.558 3 10 1.267.637 9.295-3.979 9.5-4.5 1.979-5.024-4.028-21.891-3-26.5.645-2.89 5.666-3.973 8-5 .083-.036.106 1.681 1.5 1l1.5-3.5c-1.074 6.488-1.084 12.948-1 19.5"/><path fill="#082941" d="M234 304c-.025.097 2.568 1.227 0 2-2.334 1.027-7.355 2.11-8 5h-1l-8 4c4.401-4.652 10.286-10.991 17-11"/><path fill="#61e8f9" d="m795 310 13 35.5c2.197 2.843 9.063-.858 8 8-.098.82-1.624-.135-2 1.5-9.47 1.422-4.599-3.486-6-5.5-.629-.904-14.516-2.167-15.5-1.5-1.583 1.074 1.317 6.404-2.5 6-.893-15.99-2.963-31.649-5-47.5.778-3.978 9.214 2.983 10 3.5"/><path fill="#e5fcff" d="M814 336c2.149 6.061 9.176 26.417-2 25 .578-1.43 1.677-4.596 2-6 .376-1.635 1.902-.68 2-1.5 1.063-8.858-5.803-5.157-8-8L795 310c9.089 5.977 15.362 15.742 19 26"/><path fill="#2d85a5" d="M225 311c-14.077 12.72-18.004 26.352-21 44.5-.049.298-4.852 3.039-.5 4.5 1.787.6 1.59-2.271 2-2 .659.436.385 7.183 4.5 5.5 2.27-4.135-6.774-13.826-1-14.5 2.349 10.299 2.529 15.519 9 24-3.584.776-1.778 10.7-2 15-.385 7.474-1.683 14.932-1 22.5-7.904-10.113-8.878-25.37-12-38-.712-2.88.27-3.433-3-1.5-1.506-19.924 2.888-41.084 17-56z"/><path fill="#e8fbfc" d="M209 349c-5.774.674 3.27 10.365 1 14.5-4.115 1.683-3.841-5.064-4.5-5.5-.41-.271-.213 2.6-2 2-4.352-1.461.451-4.202.5-4.5 2.996-18.148 6.923-31.78 21-44.5h1c-1.028 4.609 4.979 21.476 3 26.5-.205.521-8.233 5.137-9.5 4.5-.881-.442-2.209-9.817-3-10-2.146-.497-4.848 15.923-5.5 16.5-.47.416-3.928-3.904-2 .5"/><path fill="#032132" d="M237 330c-.082 5.748-.881 11.359-1 17-.035 1.657.022 3.343 0 5-.224 16.879-1.887 33.026 0 50 .632 5.684 6.89 37.05 9 40.5 1.555 2.543 13.258 7.487 16.5 8.5.777.243 9.77 3.016 9.5 0 3.33.962 8.899.134 12.5 1 2.974-1.216-5.581-24.944-6.5-29.5-1.546-7.67-3.032-15.751-4-23.5-.55-4.4-.694-8.593-1-13-1.155-16.653-1.26-32.447 1-49 2.873-.487 2.104 2.776 2 4.5-.911 15.062-3.695 29.687-1 45l1-33 2 1.5c-.629 10.736-.74 21.265 0 32 2.145 31.128 10.393 59.347 24 87 3.946 8.018 8.552 15.743 12 24-.297.061.448 3.226-4.5 2-1.169-.5 1.299-.735-.5-3-4.888-6.155-19.875-40.002-22.5-41-4.015-1.526-18.233-1.032-25-3-4.837-1.407-15.673-7.323-20.5-10 .373-1.815-.05-1.918-1-3-.041-.88.858-1.001 1-2 1.078-7.611-8.539-40.212-9-53-.718-19.924 3.129-42.125 5-62 .014 1.084 1.038 4.329 1 7"/><path fill="#20aecf" d="M236 347c.119-5.641.918-11.252 1-17l2-1c-.164 2.148 2.176 24.508-3 18"/><path fill="#3587a6" d="M822 375c-3.854 1.542-4.473 19.72-6.5 21-5.486 3.464-6.185-5.225-6.5-9-.341-4.096 2.443-13.049-1-18 1.814-2.792 2.758-4.925 4-8 11.176 1.417 4.149-18.939 2-25l2-3c5.732 14.328 7.111 26.524 6 42"/><path fill="#a1c2d1" d="M742.5 337c1.238 1.836.391 4.132-1 2-.708-1.086.388-1.207 1-2"/><path fill="#0a6e92" d="M782 358c.141 1.273-.421 8 .5 8 5.802-24.03-.224 9.642 6.5 10-.316 13.016-6.222 52.986-11 64.5-3.16 7.616-17.719 10.687-25 11.5 9.289-2.451 13.054-4.661 17-13.5 2.521-5.648 10.746-42.196 7.5-45.5-1.952-1.986-7.319 2.137-8.5-.5 4.159-14.992-5.098-12.063-16-12.5.666-13.643.768-26.355-1-40l17-1c.669 3.393 1.174 14.977 2 16.5.296.546 8.652-1.848 11 2.5"/><path fill="#0aa8cc" d="M253 348c-.844 9.115-1.189 17.836-1 27-3.373-.078-8.975.774-12 2-.287-9.687.207-19.367 1-29z"/><path fill="#fcfdfe" d="M541.5 348c20.52-4.364 13.69 30.708-3 19-6.895-4.837-4.543-17.396 3-19"/><path fill="#51cee9" d="M814 355c-.323 1.404-1.422 4.57-2 6-1.242 3.075-2.186 5.208-4 8-3.093 4.761-11.047 14.87-17 15 .146-3.301-.014-6.691 0-10 .03-6.848-.623-13.249-1-20 3.817.404.917-4.926 2.5-6 .984-.667 14.871.596 15.5 1.5 1.401 2.014-3.47 6.922 6 5.5"/><path fill="#07789f" d="M240 377c3.025-1.226 8.627-2.078 12-2 .041 1.988-.07 4.014 0 6 .052 1.475 2.027 10.826 1.5 11-3.214-3.058-8.095-2.258-12.5-1.5.897 8.758 2.857 17.015 5 25.5.742 2.937 1.527 6.001 2 9-.082-.177-1.809.239-3-2.5-2.214-5.089-2.27-23.086-9-20.5-1.887-16.974-.224-33.121 0-50 4.56 7.009.771 19.24 2 27.5 2.133.895 1.852-2.44 2-2.5"/><path fill="#22d6f1" d="M369 367c11.465 39.11 39.395 67.56 76 84 59.276 26.622 130.554 16.823 177-30 1.014.666 3.646 5.003 4.5 5 .655-.003 2.494-3.77 4.5-3-62.683 72.206-183.126 69.957-244-3.5-9.92-11.971-25.696-39.12-27-54.5-.043-.504-.061-9.829 1.5-10 1.493 3.055 2.741 12.539 7.5 12"/><path fill="#021829" d="M721 385c-1.833 2.021-4.44 7.469-7.5 9-21.352 10.682-38.324-12.182-24.5-29 12.669-15.412 41.403 1.112 32 20m-29-17c-.733 1.358-1.879 1.639-2 4-.348 6.771 1.841 7.924 7 11 9.966 5.943 20.711 1.783 21-11 .173-1.152-.962-.941-1-1-.741-4.32-4.694-5.743-8-7-7.18-2.731-12.469-4.39-17 4"/><path fill="#f0fbfc" d="m709 364-17 4c4.531-8.39 9.82-6.731 17-4"/><path fill="#637784" d="M350 364c8.282 35.582 31.921 74.103 60.5 97 11.424 9.152 25.215 14.812 36.5 24-4.774-.196-12.996-.097-18 0-.151-.718-.646-1.364-1-2-.813-1.46-23.408-15.531-27.5-19-18.508-15.687-39.723-43.353-48.5-66-3.904-10.073-7.069-24.256-9-35z"/><path fill="#8294a3" d="M689 365c-13.824 16.818 3.148 39.682 24.5 29 3.06-1.531 5.667-6.979 7.5-9 .196-.216 4.159-3.25 5-3-.65 12.63-3.646 26.53-6 39-2.039 10.799-15.247 62.97-22 68.5-3.954 3.238-14.979.816-20 .5-25.595-1.612-51.349-6.277-77-7.5 43.725-23.666 76.231-69.358 84-118.5z"/><path fill="#2cc9e8" d="M717 371c-5.661-8.802-7.343-1.594-9.5 0-7.893 5.832-9.706 7.347-17.5 1 .121-2.361 1.267-2.642 2-4l17-4c3.306 1.257 7.259 2.68 8 7"/><path fill="#80a1ae" d="M743.5 364c3.521 13.662.922 28.393-1 42z"/><path fill="#16b2d7" d="M717 371c.038.059 1.173-.152 1 1-6.705 5.992-12.182 8.67-21 11-5.159-3.076-7.348-4.229-7-11 7.794 6.347 9.607 4.832 17.5-1 2.157-1.594 3.839-8.802 9.5 0"/><path fill="#0a6e93" d="M809 387c-7.796 5.901-2.198 21.33-4 29.5-1.333 6.042-16.094 17.474-22 20.5 1.561-18.063 7.144-33.599 8-53 5.953-.13 13.907-10.239 17-15 3.443 4.951.659 13.904 1 18"/><path fill="#0a3f59" d="M216 388c8.727 6.887.201 23.78 1 29.5.6 4.295 18.749 17.52 23 20.5-.142.999-1.041 1.12-1 2-.908-1.034-2.907-2.065-4-3-23.015-19.685-32.627-34.609-35-66 3.27-1.933 2.288-1.38 3 1.5 3.122 12.63 4.096 27.887 12 38-.683-7.568.615-15.026 1-22.5"/><path fill="#024c71" d="M718 372c-.289 12.783-11.034 16.943-21 11 8.818-2.33 14.295-5.008 21-11"/><path fill="#097195" d="M218 373c2.761 3.618 9.64 8.37 13 12 .461 12.788 10.078 45.389 9 53-4.251-2.98-22.4-16.205-23-20.5-.799-5.72 7.727-22.613-1-29.5.222-4.3-1.584-14.224 2-15"/><path fill="#020c17" d="M791 384c-.856 19.401-6.439 34.937-8 53-.15 1.735-.61 3.13 0 5-3.585 2.282-11.98 7.717-15.5 9-8.242 3.005-23.664 3.473-29 6-4.418 2.093-15.812 31.658-23.5 39-6.913 6.602-1.825 1.564-6 1 9.014-12.583 16.754-26.352 22-41 7.107-16.952 12.29-34.719 15-53l4 5c-2.098 12.652-6.076 24.622-9 37-.417 1.763-3.595 7.517-1.5 9 5.112 1.012 8.863-.776 13.5-2 7.281-.813 21.84-3.884 25-11.5 4.778-11.514 10.684-51.484 11-64.5.008-.333-.005-.667 0-1l2-1c-.014 3.309.146 6.699 0 10"/><path fill="#0d445d" d="M822 375c-2.095 29.182-13.47 42.689-34 61-1.918 1.711-4.663 2.585-4 6-.226.155-.762-.152-1 0-.61-1.87-.15-3.265 0-5 5.906-3.026 20.667-14.458 22-20.5 1.802-8.17-3.796-23.599 4-29.5.315 3.775 1.014 12.464 6.5 9 2.027-1.28 2.646-19.458 6.5-21"/><path fill="#01577c" d="M272 386c.306 4.407.45 8.6 1 13-11.227 5.162-20.685-1.045-15 15.5-3.248-2.797-8.024 1.049-12 1.5-2.143-8.485-4.103-16.742-5-25.5 4.405-.758 9.286-1.558 12.5 1.5.527-.174-1.448-9.525-1.5-11 3.403-.508 15.339-3.488 17.5-2 2.307 1.589-2.685 7.973 2.5 7"/><path fill="#004e71" d="M753 452c-4.637 1.224-8.388 3.012-13.5 2-2.095-1.483 1.083-7.237 1.5-9 16.144-4.719 19.142-25.871 25-39.5l-15-5.5c.911-6.789 1.664-13.124 2-20 10.902.437 20.159-2.492 16 12.5 1.181 2.637 6.548-1.486 8.5.5 3.246 3.304-4.979 39.852-7.5 45.5-3.946 8.839-7.711 11.049-17 13.5"/><path fill="#adbcc9" d="m313 477-12-3c-13.607-27.653-21.855-55.872-24-87 2.436-1.115 15.165-1.674 16-.5 1.312 1.845 3.518 37.691 5 45 2.866 14.134 8.919 32.386 15 45.5"/><path fill="#b3c1cd" d="M352 398c8.777 22.647 29.992 50.313 48.5 66 4.092 3.469 26.687 17.54 27.5 19-22.223 1.092-44.878 5.502-67 4-14.69-.997-29.298-6.247-44-7-4.412-18.309-12.429-35.859-16-54.5l56-15-54.5 13.5-2.5-8.5z"/><path fill="#003f5f" d="M271 451c-12.776-3.69-18.018-15.204-23-26-.473-2.999-1.258-6.063-2-9 3.976-.451 8.752-4.297 12-1.5-5.685-16.545 3.773-10.338 15-15.5.968 7.749 2.454 15.83 4 23.5.919 4.556 9.474 28.284 6.5 29.5-3.601-.866-9.17-.038-12.5-1"/><path fill="#003c5c" d="M741 445c2.924-12.378 6.902-24.348 9-37 .443-2.669.643-5.339 1-8l15 5.5c-5.858 13.629-8.856 34.781-25 39.5"/><path fill="#02577c" d="M248 425c4.982 10.796 10.224 22.31 23 26 .27 3.016-8.723.243-9.5 0-3.242-1.013-14.945-5.957-16.5-8.5-2.11-3.45-8.368-34.816-9-40.5 6.73-2.586 6.786 15.411 9 20.5 1.191 2.739 2.918 2.323 3 2.5"/><path fill="#4c5e6e" d="M731 456c-5.246 14.648-12.986 28.417-22 41-9.713-1.311-21.058-1.298-31-2v-5c5.021.316 16.046 2.738 20-.5 6.753-5.53 19.961-57.701 22-68.5l20 .5c-1.298 11.325-6.423 21.422-10 32-.819 2.421 1.045 2.373 1 2.5"/><path fill="#5fa4bb" d="M784 442c-.663-3.415 2.082-4.289 4-6 2.407 2.395-1.609 4.364-4 6"/><path fill="#5ea5bd" d="M239 440c.95 1.082 1.373 1.185 1 3-2.5-1.387-7.904-1.691-5-6 1.093.935 3.092 1.966 4 3"/><path fill="#688694" d="M313 477c1.842 3.971 4.063 7.811 5.5 12 1.292-2.964-.842-6.267-1.5-9 14.702.753 29.31 6.003 44 7l-40.5 1c-1.312.475.127 2.754 1 3 3.648 1.029 22.72.17 28 0 26.433-.852 53.034-5.489 79.5-6 5.004-.097 13.226-.196 18 0 7.935.325 22.351-.585 27.5 5-18.59.694-37.483-.934-56 0-28.065 1.415-79.983 2.757-105.5 8-3.448-8.257-8.054-15.982-12-24z"/><path fill="#405c6b" d="M428 483c.354.636.849 1.282 1 2-26.466.511-53.067 5.148-79.5 6-5.28.17-24.352 1.029-28 0-.873-.246-2.312-2.525-1-3l40.5-1c22.122 1.502 44.777-2.908 67-4"/><path fill="#0a2d40" d="M678 495c9.942.702 21.287.689 31 2 4.175.564-.913 5.602 6-1-.672 2.052 4.299 2.794 5.5 3 28.992 4.98 117.709 11.587 134.5 32.5 12.282 15.297 4.116 29.918 7 36 1.043 2.199 6.08 1.567 7.5 2.5 7.456 4.897 12.087 12.053 13.5 21-2.875-1.657-3.036-2.762-5-5-2.951-3.363-13.286-19.932-16-9.5l13 9.5a49 49 0 0 0-2 0c-1.291-1.089-10.968-7.413-11.5-7-6.42 4.988 9.757 7.495 10.5 8 .523.356 8.503 10.841 4 11-.455-3.108-.786-3.735-3-6-9.801-10.027-31.225 1.259-35 13-.242.753.179 2.083 0 3-.765 3.909-2.017 5.886 0 10 2.654 5.414 27.647 8.698 34 9 1.999.095 4.209.565 5-2-.103.286-.881 5.123-1 6-.017.124-2.071.856-2 1.5.071.645 5.528 10.8 6 11.5l-4 23.5c5.006 4.12 8.943-2.388 13-3.5-3.16 4.778-8.804 6.925-9 7.5-.31.908 3.483 9.195 1 18.5h-1c2.116-7.243 1.463-19.728-8-18-8.472 1.547-.116 9.834 0 12.5.353 8.112-2.924 18.18-9 24l4 1.5c-2.777 2.158-9.78 3.748-11.5 5-3.605 2.623-4.065 10.492-13.5 10.5-5.804 22.067-12.296 94.707-34.5 104.5-13.998 6.174-33.352-2.732-48-4-30.461-2.637-61.45-2.394-92-4l5 19c-.736.157-2.12-.226-2.5 0-2.515.521-1.36-3.058-2-6-3.024-13.902-4.323-12.149-18-14-10.406-1.408-62.532-4.013-70.5-2-1.467.371-8.793 7.578-10.5 9-2.777 2.313-8.249 4.349-9 9-18.978 14.949.461 61.013 23.5 65 .314-3.21 3.349-6.59 3.5-7-2.47 7.533-1.012 5.342 3 8 4.443 2.943 6.391 3.438 10 0 3.97-3.782.826-4.296 2-8.5.233-.834 1.767-.166 2-1 1.43-5.115-1.282-4.51 3-11.5 1.681-2.744 5.526-8.237 9-9.5-6.376 7.375-8.908 19.073-7 28.5-.126.603.135 1.406 0 2-.596 2.616.037 1.907 0 2-.285.726.518 2.599-.5 3-19.444 2.111-44.499-6.264-53.5-25-12.007-24.993-4.895-52.461 20.5-65-43.087-.508-86.677-3.411-129.5 1.5 24.784 10.534 30.391 40.69 20 63.5-5.674 12.455-27.364 24.877-40.5 26-13.245 1.133-10.482-4.401-12-5-.566-.223-8.933 3.528-11.5 4l-2-2c3.061-.867 8.679-2.115 11-4 3.227-2.62 1.568-1.299 1.5-6 3.814-2.013 1.119 10.639 7 10 7.068-.768 3.698-29.902.5-35l1.5-1c2.186 4.413 3.777 9.02 4.5 14 2.173 14.975-7.035 21.16 8 18 29.724-6.247 43.015-41.329 26-66-1.835-2.66-4.995-8.667-9-8l-11.5-9-78.5 3c-1.966-1.114-5.255-1.922-6-4 132.063-5.842 272.61-7.091 405.5 4 29.591 2.47 46.243 19.307 60.5-18.5 3.174-8.417 19.073-75.227 19-82-.012-1.122.413-3.849-.5-4.5l-23.5-4c.06-2.209.225-4.848 0-7-.226-2.158-3.777-5.575-4-8.5-.764-10.026 7.017-24.048 18-25-10.169 1.229-9.791-24.63-7-31 3.563-8.132 13.314-9.974 21-12-14.599.527-14.128-6.065-12-18.5 1.003-5.863 3.549-11.767 8-16 3.976-3.781 12.915-7.107 18-9.5-3.609-10.177 2.232-23.484 1-35-3.118-29.13-41.929-32.12-64.5-36.5-58.434-11.34-119.004-16.244-178.5-19-3.64-.169-7.357.147-11 0-.274-3.705 6.497-1.396 9.5-2l-2.5-3c21.987 1.525 44.019 3.449 66 5m152 148c-1.475 2.961-.835 4.089-1 7-.035.608-1.371 2.832-1 5.5.315 2.265 2.732 3.841 4 5.5.055.072-2.076.522-1 1.5 4.119 3.745 28.747 7.651 34.5 5.5 6.917-2.586 11.346-14.877 11-22-5.152 23.946-15.917 21.873-36.5 17 8.961-4.749 26.314 8.624 32-7.5 2.352-6.669-.98-5.143-1-5.5-.369-6.633 1.544-7.616-3-13-7.669-9.089-33.078-3.883-38 6m-8 42c-1.625 2.814-3.876 4.698-3 8.5 11.405 9.077 55.037 12.267 41-12.5-6.859-12.102-31.603-7.077-38 4m24.5 31c-.332.048-3.503 5.735-3 6 5.371 1.097 3.566-3.627 7.5-4.5-1.165-1.679-2.625-1.771-4.5-1.5"/><path fill="#6aeefb" d="m591 494-95.5 1-.5 6c-1.322.044-2.678-.045-4 0-51.498 1.758-102.765 3.956-154 9-12.594 1.24-25.444 2.449-38 4l1-10c95.07-11.125 195.22-13.144 291-10"/><path fill="#38cbe9" d="M605 495c3.643.147 7.36-.169 11 0 .842 1.956-4.76 2.918-5.5 3-36.254 4.031-78.676 1.787-115.5 3l.5-6 95.5-1c4.726.155 9.392.814 14 1"/><path fill="#199abd" d="M840 595c-2.466-.971-2.892-3.703-3-6-.608-12.911 7.408-22.884-1-35.5-12.34-18.516-104.122-27.905-128.5-30.5-47.346-5.041-97.85-7.587-145.5-9-16.654-.494-33.331-.937-50-1l-21.5-1 .5-11c1.322-.045 2.678.044 4 0 36.824-1.213 79.246 1.031 115.5-3 .74-.082 6.342-1.044 5.5-3 59.496 2.756 120.066 7.66 178.5 19 22.571 4.38 61.382 7.37 64.5 36.5 1.232 11.516-4.609 24.823-1 35-5.085 2.393-14.024 5.719-18 9.5"/><path fill="#32c4e4" d="m491 501-.5 11 21.5 1c-55.37-.208-110.891 2.27-166 7-7.943-1.472-9.457-.74-9-10 51.235-5.044 102.502-7.242 154-9"/><path fill="#9cf7fe" d="m300 504-1 10c-26.697 3.298-94.941 9.994-114.5 25-8.609 6.605-13.338 17.181-20.5 25-.762-15.696-2.063-25.542 12.5-36 16.219-11.648 99.564-21.199 123.5-24"/><path fill="#74e3f7" d="M337 510c-.457 9.26 1.057 8.528 9 10-29.287 2.514-132.882 11.141-152.5 26-11.393 8.629-16.613 23.233-6.5 35-.293 3.977-2.481 11.203-5 14-4.135-3.922-15.421-7.803-16-8.5-1.173-1.412-1.829-18.972-2-22.5 7.162-7.819 11.891-18.395 20.5-25 19.559-15.006 87.803-21.702 114.5-25 12.556-1.551 25.406-2.76 38-4"/><path fill="#0891ac" d="M512 513c16.669.063 33.346.506 50 1-7.747 6.174-20.11.715-29 4-36.517-.485-74.113-.527-110.5 1-37.713 1.582-206.078 13.398-228 32-12.837 10.893-6.58 17.494-7.5 30-10.113-11.767-4.893-26.371 6.5-35 19.618-14.859 123.213-23.486 152.5-26 55.109-4.73 110.63-7.208 166-7"/><path fill="#05607b" d="M837 589c-2.096.112-1.919-1.447-4 0-.799-2.898.689-5.724 1-8 .994-7.277 3.359-17.107 0-23.5-8.495-16.165-86.24-25.121-105.5-27.5-63.265-7.815-131.661-11.152-195.5-12 8.89-3.285 21.253 2.174 29-4 47.65 1.413 98.154 3.959 145.5 9 24.378 2.595 116.16 11.984 128.5 30.5 8.408 12.616.392 22.589 1 35.5"/><path fill="#a1cedc" d="M533 518c63.839.848 132.235 4.185 195.5 12 19.26 2.379 97.005 11.335 105.5 27.5 3.359 6.393.994 16.223 0 23.5-4.369-3.205-.051-4.269-7.5-4-53.822 1.947-146.949 31.091-200 48-109.581 34.927-276.07 107.578-387 113-10.409.509-21.409.151-30.5-5-1.138-8.22-2.435-18.181-5-26 5.834-7.839 4.887-19.492-1-27.5-2.299-3.128-7.785-4.197-8-7.5 3.709-1.907 4.612-18.656 4-24-.073-.64.135-1.439 0-2-2.224-9.225-16.425-14.036-24-17.5 18.04-1.912 18.903-3.762 14-20.5-1.076-3.673.706-3.141-3-7-.099-1.898-2.725-4.791-4-6 2.519-2.797 4.707-10.023 5-14 .92-12.506-5.337-19.107 7.5-30 21.922-18.602 190.287-30.418 228-32 36.387-1.527 73.983-1.485 110.5-1m-92.5 20c-38.8.841-194.544 10.624-215.5 42.5-4.804 7.308-7.74 28.117-7 37 1.208 14.505 32.873 102.996 40 49 2.486-18.835-3.97-48.239 8-65 10.684-14.96 101.705-35.851 123.5-40.5 42.692-9.106 87.508-16.055 131-20-26.376-3.583-53.337-3.578-80-3"/><path fill="#fdfefe" d="M440.5 538c26.663-.578 53.624-.583 80 3-43.492 3.945-88.308 10.894-131 20-21.795 4.649-112.816 25.54-123.5 40.5-11.97 16.761-5.514 46.165-8 65-7.127 53.996-38.792-34.495-40-49-.74-8.883 2.196-29.692 7-37 20.956-31.876 176.7-41.659 215.5-42.5"/><path fill="#47b1cb" d="M157.5 573c11.577-.001-7.298 8.409-8 9-10.556 8.886-9.217 17.465-10 30-7.635-10.05 7.798-38.999 18-39"/><path fill="#61c3dd" d="M878 586c-.601 4.761-1.956.155-3 0l-13-9.5c2.714-10.432 13.049 6.137 16 9.5"/><path fill="url(#c)" d="M834 581c-.311 2.276-1.799 5.102-1 8-5.851 4.069-4.49 12.291-5 18-3.884 2.295-2.004 13.429-1 17 .07 1.185-.374 2.25 1.5 2l-1.5-2c-.132-2.243.883-8.669 1-12l4-1c-2.128 12.435-2.599 19.027 12 18.5-7.686 2.026-17.437 3.868-21 12-2.791 6.37-3.169 32.229 7 31-10.983.952-18.764 14.974-18 25 .223 2.925 3.774 6.342 4 8.5-10.923 21.792-.73 87.395-26.5 97-13.944 5.197-62.173-1.822-78-3-60.646-4.512-121.519-12.052-182.5-8-1.99-.018-4.01.012-6 0-6.54-2.791-16.048.326-22.5-1-.548-.113-1.452-3.887-2-4-3.074-.631-47.63.203-50 1-.247.083-2.48 4.046-1.5 5-63.618 1.882-130.984 12.951-192.5 14-49.051.837-40.238-35.991-45.5-74 9.091 5.151 20.091 5.509 30.5 5 110.93-5.422 277.419-78.073 387-113 53.051-16.909 146.178-46.053 200-48 7.449-.269 3.131.795 7.5 4" style="fill:url(#c)"/>/&gt;<path fill="#5adaed" d="M159.5 579c10.091 3.236-11.789 12.106-12.5 10.5-.54-3.47 11.538-10.809 12.5-10.5"/><path fill="#1091b6" d="M873 586c-.071.005.162 1.182-1 1-.743-.505-16.92-3.012-10.5-8 .532-.413 10.209 5.911 11.5 7"/><path fill="#0a4c65" d="M875 586c1.044.155 2.399 4.761 3 0 1.964 2.238 2.125 3.343 5 5 4.358 2.512 4.399.164 10 2-10.056 8.191-4.569 27.863 8 15-.787 8.241-7.641 20.443-16 23.5 1.971 2.136 4.991 2.391 7 4.5l-1 1c-1.215-1.195-4.046-1.446-5-2-3.153-1.832-5.862-4.6-10-4 .119-.877.897-5.714 1-6 .849-2.369 5.638-7.761 6-9.5.409-1.965-.511-19.5-2-20-.54 10.429.036 21.99-6.5 30.5-2.634-.932 7.808-14.829.5-16 1.216-2.089 1.366-9.503 1-12 4.503-.159-3.477-10.644-4-11 1.162.182.929-.995 1-1a49 49 0 0 1 2 0"/><path fill="#e4f8fb" d="M182 603c-10.16-9.536-21.651-12.716-35-9 7.515-12.634 30.952-2.372 35 9"/><path fill="#32849f" d="M837 589c.108 2.297.534 5.029 3 6-4.451 4.233-6.997 10.137-8 16l-4 1c.058-1.645-.146-3.369 0-5 .51-5.709-.851-13.931 5-18 2.081-1.447 1.904.112 4 0"/><path fill="#e6f4f7" d="M873 592c-13.78 1.219-25.335 1.721-35 13 3.775-11.741 25.199-23.027 35-13"/><path fill="#26badb" d="M182 603h1c-2.31 9.981-27.711 12.303-36 7-.543-5.996-3.52-10.081 0-16 13.349-3.716 24.84-.536 35 9"/><path fill="#1396bb" d="M873 592c2.214 2.265 2.545 2.892 3 6 .366 2.497.216 9.911-1 12-5.224 8.977-28.887-.041-37-2 .179-.917-.242-2.247 0-3 9.665-11.279 21.22-11.781 35-13"/><path fill="#6cf2fe" d="M133 595c-.381 5.381-.26 16.793-8 17-1.156-5.041-1.53-5.922-2-12 3.267-4.265 4.444-9.254 10-5"/><path fill="#5eedfd" d="M901 608c-12.569 12.863-18.056-6.809-8-15 7.351 2.409 8.649 8.2 8 15"/><path fill="#0a7597" d="M136 628c-5.389-1.594-10.367-7.318-12-12.5-.603-1.913 1.148-2.856 1-3.5 7.74-.207 7.619-11.619 8-17 7.165 5.487-1.142 11.831 0 19.5.896 6.016 8.205 8.658 3 13.5"/><path fill="#025c7f" d="M877 625c-.791 2.565-3.001 2.095-5 2l-21.5-6c-3.859-3.691-6.525-2.924-12.5-3-2.017-4.114-.765-6.091 0-10 8.113 1.959 31.776 10.977 37 2 7.308 1.171-3.134 15.068-.5 16 6.536-8.51 5.96-20.071 6.5-30.5 1.489.5 2.409 18.035 2 20-.362 1.739-5.151 7.131-6 9.5"/><path fill="#036588" d="M186 601c3.706 3.859 1.924 3.327 3 7-.203 2.803-2.144 8.114-4 10-6.146.174-27.76 10.433-27.5 2-2.386 5.182-5.002 5.041-10.5 3-4.674-4.269-1.165-3.053-2-7.5-.273-1.454-4.998-4.866-1.5-9.5 2.305.355 1.695 2.845 3.5 4 8.289 5.303 33.69 2.981 36-7 .621-2.684-1.545-2.942-.5-5 .779 1.318 2.548 2.009 3.5 3"/><path fill="#0a4b65" d="M123 600c.47 6.078.844 6.959 2 12 .148.644-1.603 1.587-1 3.5 1.633 5.182 6.611 10.906 12 12.5 3.772 1.116 12.888 2.876 14-2 5.79 1.354 30.634-3.565 35-8 1.856-1.886 3.797-7.197 4-10 4.903 16.738 4.04 18.588-14 20.5 7.575 3.464 21.776 8.275 24 17.5-2.052.254-3.244 1.028-5 2-.326-3.968-3.328-5.778-6-8-8.292-6.895-28.158-12.76-35-3-2.998 4.276-2.935 4.736-3 10-.33 26.585 21.079 15.535 38 14-8.859 4.121-24.29 8.132-33.5 4-.821 2.659 2.371 2.853 2.5 3 .466.53-1.718 1.465-.5 2 5.075 2.23 15.236.346 21 1l-3.5 3c-5.553.064-11.486-.532-14 6-7.915 20.563 13.248 21.588 27.5 19 13.215-2.399 20.064-6.126 8.5-18-1.662-1.707-3.721-4.149-6-5-.584-6.712 2.642-2.788 5-4 .215 3.303 5.701 4.372 8 7.5 5.887 8.008 6.834 19.661 1 27.5-5.422 7.286-14.015 8.375-22.5 10-.875.914-.522 3.172-.5 4.5.152 9.262 20.826 88.865 26 96 13.84 19.088 34.628 6.041 53.5 4.5 31.211-2.548 63.187-2.615 94.5-4 .745 2.078 4.034 2.886 6 4 12.17 6.896 26.479 8.056 38.5 16 9.967 6.587 18.966 18.058 25.5 28-.164.285.09 1.378 0 2-3.922-7.25-12.631-16.616-19-22-15.137-12.795-26.214-15.51-45-20-.668-.16-8.795-7.074-9 4-.127 6.845 10.374 4.339 17 6 22.822 5.721 39.003 14.077 51 35 3.198 5.098 6.568 34.232-.5 35-5.881.639-3.186-12.013-7-10 .068 4.701 1.727 3.38-1.5 6-2.355-7.343-3.748-16.049-7-23-3.058-6.535-3.506-6.103-8-11-9.268-10.099-26.182-22.408-40-24-1.441-.166-5.23-1.072-5.5-1-8.924 2.385-30.861 42.251-32.5 52-.529 3.148-1.379 6.229-1 9.5 9.676 4.336 20.379 4.983 31 5.5 13.634.663 28.515.117 42-2 3.11-.488 7.021-1.157 10-2l2 2c-21.648 3.981-64.873 7.416-85.5 1-5.806-1.806-.986-14.075.5-19 2.74-9.084 7.997-19.454 13-27.5 2.837-4.563 16.493-18.79 17-20 .155-.369-.768-5.485 0-8 1.231-4.035 3.199-8.17 5-12-30.352.625-61.268.766-91.5 3.5-20.313 1.837-40.984 15.384-56.5-5.5-12.241-16.476-22.037-92.044-26-95-1.78-1.327-5.347.051-7.5-1.5-3.977-2.866-4.846-7.448-8-10-11.264-9.114-16.423-5.091-22.5-24-.14-1.05.489-.817 1-1 .226.824.699 1.18 1 2 1.397 3.8 6.797 17.853 12 13 7.734 13.509 31.813 11.421 43.5 5 2.118-1.164 5.617-3.603 3.5-6l3-3.5-1.5-.5c-1.842.554-2.323 3.844-2.5 4-26.644 23.529-65.469-1.633-38-30.5-5.818-1.634-11.531-3.419-17.5-4.5-.242-.044-2.753 2.276-4.5 2-8.553-1.352-14.508-17.603-15-25l6.5 11c.979-.744 2.438-1.512 3.5-2 6.081-2.792 4.601-3.702 5.5-10l3.5 9.5c-1.114-7.772-2.882-17.008 5-22-1.328-3.878-11.512 3.81-12 4.5l-9 1c3.493-4.002 6.747-3.411 11-5.5-13.316-3.66-21.373-19.466-17-32.5.849-.103.941.236 1 1m26.5 35c-5.621 4.926-4.55 10.825-2 17zm24 82c-3.081 1.02.025 7.194 3 6 3.03-1.216 1.787-7.585-3-6m178 120c-2.309 1.271 1.701 3.157 3.5 1.5-.805-.21-2.81-1.88-3.5-1.5m45 24c-1.204.436-.464 2.643 1 2 1.199-.527.518-2.55-1-2"/><path fill="#8dbbca" d="M828 607c-.146 1.631.058 3.355 0 5-.117 3.331-1.132 9.757-1 12-1.004-3.571-2.884-14.705 1-17"/><path fill="#68c8da" d="M185 618c-4.366 4.435-29.21 9.354-35 8-4.058-.949-2.514-2.556-3-3 5.498 2.041 8.114 2.182 10.5-3-.26 8.433 21.354-1.826 27.5-2"/><path fill="#067092" d="M872 627c-6.353-.302-31.346-3.586-34-9 5.975.076 8.641-.691 12.5 3z"/><path fill="#8dbbca" d="m827 624 1.5 2c-1.874.25-1.43-.815-1.5-2"/><path fill="#20b3d4" d="M135 654c-2.3-3.544-.068-15.08 2-18 .488-.69 10.672-8.378 12-4.5-7.882 4.992-6.114 14.228-5 22l-3.5-9.5c-.899 6.298.581 7.208-5.5 10"/><path fill="#0f94b9" d="M886 635c.9 1.608 1.156 3.354 2 5-2.509 2.283-2.961 3.648-3 7-1.8.715-4.276-1.926-5-3-.472-.7-5.929-10.855-6-11.5s1.983-1.376 2-1.5c4.138-.6 6.847 2.168 10 4"/><path fill="#dbeff5" d="m188 640-35-3c6.842-9.76 26.708-3.895 35 3"/><path fill="#e3eff3" d="M868 637c-12.854-2.452-26.377-.151-38 6 4.922-9.883 30.331-15.089 38-6"/><path fill="#83eefb" d="M137 636c-2.068 2.92-4.3 14.456-2 18-1.062.488-2.521 1.256-3.5 2l-6.5-11c-.322-4.844.207-4.8 3-8z"/><path fill="#0c6c8b" d="m149.5 635-2 17c-2.55-6.175-3.621-12.074 2-17"/><path fill="#9feffc" d="M891 637c3.57 3.514 4.106 12.208 0 15-6.268-1.867 1.655-7.773 1-8.5-1.172-1.302-.675 2.982-4-3.5-.844-1.646-1.1-3.392-2-5 .954.554 3.785.805 5 2"/><path fill="#20accf" d="M188 640c2.672 2.222 5.674 4.032 6 8-12.696 7.028-33.714 11.534-44-1 .065-5.264.002-5.724 3-10z"/><path fill="#1597bd" d="M868 637c4.544 5.384 2.631 6.367 3 13-10.647 7.579-29.976 4.129-42 0 .165-2.911-.475-4.039 1-7 11.623-6.151 25.146-8.452 38-6"/><path fill="#096a8c" d="M889 664c-4.057 1.112-7.994 7.62-13 3.5l4-23.5c.724 1.074 3.2 3.715 5 3-.016 1.382-.395 5.361.5 6 2.312.055 3.396.431 5.5-1 4.106-2.792 3.57-11.486 0-15l1-1c6.629 6.958 2.163 20.193-3 28"/><path fill="#19c6e9" d="M891 652c-2.104 1.431-3.188 1.055-5.5 1-.895-.639-.516-4.618-.5-6 .039-3.352.491-4.717 3-7 3.325 6.482 2.828 2.198 4 3.5.655.727-7.268 6.633-1 8.5"/><path fill="#036489" d="M199 646c.135.561-.073 1.36 0 2-.742 5.431-2.152 6.191-4 9-2.723.574-4.248 2.72-7 4-16.921 1.535-38.33 12.585-38-14 10.286 12.534 31.304 8.028 44 1 1.756-.972 2.948-1.746 5-2"/><path fill="#0f738f" d="M832 661c2.812.043 5.322 1.366 8 2 20.583 4.873 31.348 6.946 36.5-17 .346 7.123-4.083 19.414-11 22-5.753 2.151-30.381-1.755-34.5-5.5-1.076-.978 1.055-1.428 1-1.5"/><path fill="#0a394a" d="M195 672c-2.358 1.212-5.584-2.712-5 4-3.05-1.139-12.464-2.041-16-2l3.5-3c-5.764-.654-15.925 1.23-21-1-1.218-.535.966-1.47.5-2 10.59 2.403 32.062-1.977 38-11 1.848-2.809 3.258-3.569 4-9 .612 5.344-.291 22.093-4 24"/><path fill="#01597c" d="M871 650c.02.357 3.352-1.169 1 5.5-5.686 16.124-23.039 2.751-32 7.5-2.678-.634-5.188-1.957-8-2-1.268-1.659-3.685-3.235-4-5.5-.371-2.668.965-4.892 1-5.5 12.024 4.129 31.353 7.579 42 0"/><path fill="#169bbc" d="M195 657c-5.938 9.023-27.41 13.403-38 11-.129-.147-3.321-.341-2.5-3 9.21 4.132 24.641.121 33.5-4 2.752-1.28 4.277-3.426 7-4"/><path fill="#051821" d="M200 703h1c2.117 2.397-1.382 4.836-3.5 6-11.687 6.421-35.766 8.509-43.5-5-2.678-4.678-3.915-13.748-3-19 1.045-5.998 11.767-12.514 0-14-13.486-1.703-12.618 8.448-10 18-.511.183-1.14-.05-1 1-3.059-9.519-3.588-9.778 0-20 1.747.276 4.258-2.044 4.5-2 5.969 1.081 11.682 2.866 17.5 4.5-27.469 28.867 11.356 54.029 38 30.5"/><path fill="#9deaf8" d="M151 671c-3.5 4.653-5.552 16.407-10 18-2.618-9.552-3.486-19.703 10-18"/><path fill="#1490b3" d="M151 685c-4.004 1.396-4.656 9.104-9 6-.301-.82-.774-1.176-1-2 4.448-1.593 6.5-13.347 10-18 11.767 1.486 1.045 8.002 0 14"/><path fill="#054a67" d="M872 672c-1.806 5.045 3.648 16.002 8 18h1c-2.301 8.624-6.955 14.525-14 20l-4-1.5c6.076-5.82 9.353-15.888 9-24-.116-2.666-8.472-10.953 0-12.5"/><path fill="#9febfb" d="M880 690c-4.352-1.998-9.806-12.955-8-18 9.463-1.728 10.116 10.757 8 18"/><path fill="#b9e6f2" d="M174 674c3.536-.041 12.95.861 16 2 2.279.851 4.338 3.293 6 5l-36-1c2.514-6.532 8.447-5.936 14-6"/><path fill="#bae0ef" d="M860 681c-12.073-3.288-27.599-2.845-38 4 6.397-11.077 31.141-16.102 38-4"/><path fill="#1699be" d="M196 681c11.564 11.874 4.715 15.601-8.5 18-14.252 2.588-35.415 1.563-27.5-19z"/><path fill="#1087ac" d="M860 681c14.037 24.767-29.595 21.577-41 12.5-.876-3.802 1.375-5.686 3-8.5 10.401-6.845 25.927-7.288 38-4"/><path fill="#0a6785" d="M154 704c-5.203 4.853-10.603-9.2-12-13 4.344 3.104 4.996-4.604 9-6-.915 5.252.322 14.322 3 19"/><path fill="#20809f" d="M201 703h-1c.177-.156.658-3.446 2.5-4l1.5.5z"/><path fill="#99cedd" d="M816 713c-.343 12.703-8.942 74.303-15 82.5-8.312 11.248-21.532 11.766-34.5 11.5-77.626-1.594-157.324-14.274-237.5-15 60.981-4.052 121.854 3.488 182.5 8 15.827 1.178 64.056 8.197 78 3 25.77-9.605 15.577-75.208 26.5-97 .225 2.152.06 4.791 0 7"/><path fill="url(#d)" d="M209 733c5.262 38.009-3.551 74.837 45.5 74 61.516-1.049 128.882-12.118 192.5-14 25.328-.749 50.644-1.154 76-1 1.99.012 4.01-.018 6 0 80.176.726 159.874 13.406 237.5 15 12.968.266 26.188-.252 34.5-11.5 6.058-8.197 14.657-69.797 15-82.5l23.5 4c.913.651.488 3.378.5 4.5.073 6.773-15.826 73.583-19 82-14.257 37.807-30.909 20.97-60.5 18.5-132.89-11.091-273.437-9.842-405.5-4-31.313 1.385-63.289 1.452-94.5 4-18.872 1.541-39.66 14.588-53.5-4.5-5.174-7.135-25.848-86.738-26-96-.022-1.328-.375-3.586.5-4.5 8.485-1.625 17.078-2.714 22.5-10 2.565 7.819 3.862 17.78 5 26" style="fill:url(#d)"/>/&gt;<path fill="#147897" d="M846.5 716c1.875-.271 3.335-.179 4.5 1.5-3.934.873-2.129 5.597-7.5 4.5-.503-.265 2.668-5.952 3-6"/><path fill="#c8e8f0" d="M173.5 717c4.787-1.585 6.03 4.784 3 6-2.975 1.194-6.081-4.98-3-6"/><path fill="#93c8d6" d="M523 792c-25.356-.154-50.672.251-76 1-.98-.954 1.253-4.917 1.5-5 2.37-.797 46.926-1.631 50-1 .548.113 1.452 3.887 2 4 6.452 1.326 15.96-1.791 22.5 1"/><path fill="#7d91a1" d="M451 828c-6.879 1.146-14.67 21.671-18 27.5-1.799 3.149-6.524 7.934-8 10.5-6.534-9.942-15.533-21.413-25.5-28-12.021-7.944-26.33-9.104-38.5-16l78.5-3z"/><path fill="#7b90a0" d="m650 821-1 5c-20.715 4.474-42.107 22.129-53 40-11.517-10.387-13.434-31.309-27-38 1.707-1.422 9.033-8.629 10.5-9 7.968-2.013 60.094.592 70.5 2"/><path fill="#18b6d6" d="M668 835c-12.905-3.131-29.777 1.19-41 8l-14 6c5.981-5.699 12.678-11.103 20-15-.205 3.596 2.832 1.54 4.5 1 3.896-1.261 21.123-5.272 22-6 .955-.793.361-2.368.5-3.5-.773-1.078-2.903-.214-4-.5-3.255-.848-4.243.405-7 1l1-5c13.677 1.851 14.976.098 18 14"/><path fill="#f2fbfb" d="M361 826c-.471 5.037-5.23 4.039-9 4 .205-11.074 8.332-4.16 9-4"/><path fill="#155372" d="M656 825c-7.629 3.03-15.714 5.122-23 9-7.322 3.897-14.019 9.301-20 15-14.278 13.606-15.531 17.388-20 36-.024.1-1.823-.352-2 .5-1.252 6.042-.283 11.527-1 17.5-4.012-2.658-5.47-.467-3-8 1.169-3.177 1.729-10.379 2-14 4.255-3.94 3.789-9.733 7-15 10.893-17.871 32.285-35.526 53-40 2.757-.595 3.745-1.848 7-1"/><path fill="#27e8f9" d="M633 834c7.286-3.878 15.371-5.97 23-9 1.097.286 3.227-.578 4 .5-.139 1.132.455 2.707-.5 3.5-.877.728-18.104 4.739-22 6-1.668.54-4.705 2.596-4.5-1"/><path fill="#15cde9" d="M406 846c-11.095-1.205-22.357-11.819-34-12.5-2.408-.141-3.047-.156-3 2.5-6.626-1.661-17.127.845-17-6 3.77.039 8.529 1.037 9-4 18.786 4.49 29.863 7.205 45 20"/><path fill="#384f60" d="M451 828c4.005-.667 7.165 5.34 9 8-4.742-2.992-1.645 1.865-4 4l-23 41c-.157.116-.075 1.61-2 1-.852-2.8-4.55-11.32-6-14 .09-.622-.164-1.715 0-2 1.476-2.566 6.201-7.351 8-10.5 3.33-5.829 11.121-26.354 18-27.5"/><path fill="#445a6c" d="M569 828c13.566 6.691 15.483 27.613 27 38-3.211 5.267-2.745 11.06-7 15h-1l-25-46c-.394-.066-2.431 1.552-3 2 .751-4.651 6.223-6.687 9-9"/><path fill="#0b799e" d="M406 846c6.369 5.384 15.078 14.75 19 22 1.45 2.68 5.148 11.2 6 14 .093.305-.088.692 0 1l-5 1c-.723-4.98-2.314-9.587-4.5-14l-1.5 1c-11.997-20.923-28.178-29.279-51-35-.047-2.656.592-2.641 3-2.5 11.643.681 22.905 11.295 34 12.5"/><path fill="#003959" d="M668 835c.64 2.942-.515 6.521 2 6-3.289 1.95-6.878 1.87-10 4-11.586 1.513-27.33 14.519-35 23-4.929 5.45-5.341 4.869-9 12-4.469 8.71-4.982 11.312-7 21-1.908-9.427.624-21.125 7-28.5-3.474 1.263-7.319 6.756-9 9.5 3.005-9.164 9.499-16.675 16-23.5-7.391 1.799-6.03 9.941-13 .5 3.868-4.776 11.898-12.904 17-16 11.223-6.81 28.095-11.131 41-8"/><path fill="#273a4b" d="M460 836c17.015 24.671 3.724 59.753-26 66-.243-5.805-1.424-13.483-3-19-.088-.308.093-.695 0-1 1.925.61 1.843-.884 2-1 13.646-10.134 22.664-23.692 23-41 2.355-2.135-.742-6.992 4-4"/><path fill="#324758" d="M588 881h1c-.271 3.621-.831 10.823-2 14-.151.41-3.186 3.79-3.5 7-23.039-3.987-42.478-50.051-23.5-65 .569-.448 2.606-2.066 3-2 3.337 18.118 8.302 35.699 25 46"/><path fill="#8a9eae" d="M588 881c-16.698-10.301-21.663-27.882-25-46Z"/><path fill="#1dbbd7" d="M351.5 837c.69-.38 2.695 1.29 3.5 1.5-1.799 1.657-5.809-.229-3.5-1.5"/><path fill="#8398a7" d="m433 881 23-41c-.336 17.308-9.354 30.866-23 41"/><path fill="#0384ac" d="M627 843c-5.102 3.096-13.132 11.224-17 16-5.669 7-13.208 18.77-14 28-2.699 1.771-3.296 1.304-3-2 4.469-18.612 5.722-22.394 20-36z"/><path fill="#f8fbfc" d="M356 844c-13.387 15.485-26.85 31.018-32 51.5 12.598 4.054 26.581 1.144 36.5-7.5l-3.5 6c-5.326 2.018-10.14 4.498-16 5-8.191.701-15.649-.312-23-4 1.639-9.749 23.576-49.615 32.5-52 .27-.072 4.059.834 5.5 1"/><path fill="#0b2337" d="M703 891c.813 3.009 4.233 13.824 2.5 16-12.55 2.908-25.621 4.668-38.5 5v-2c12.161-.413 24.437-2.492 36.5-4 1.495-1.431-1.835-10.747-2.5-13-5.014-16.987-16.427-35.138-29-47.5l.5-2.5c13.745 10.961 25.942 31.142 30.5 48"/><path fill="#cbdce4" d="M396 868c-11.48 10.634-24.126 20.365-39 26l3.5-6c-9.919 8.644-23.902 11.554-36.5 7.5 5.15-20.482 18.613-36.015 32-51.5 13.818 1.592 30.732 13.901 40 24"/><path fill="#bacfd9" d="M660 845c.273-.036 3.785 1.345 5.5 0 1.019 1.144-2.667 1.49-2.5 2.5.179 1.082 12.908 10.962 16 15 2.985 3.898 17.878 28.714 17 32-2.364 8.846-34.175-2.672-38.5-8.5l-.5 4c-13.796-6.638-20.421-13.223-32-22 7.67-8.481 23.414-21.487 35-23"/><path fill="#001f36" d="M607 882c-4.282 6.99-1.57 6.385-3 11.5-.233.834-1.767.166-2 1-1.174 4.204 1.97 4.718-2 8.5-2.625-5.208-4.453-10.729-4-16 .792-9.23 8.331-21 14-28 6.97 9.441 5.609 1.299 13-.5-6.501 6.825-12.995 14.336-16 23.5"/><path fill="#37c1da" d="M396.5 861c1.518-.55 2.199 1.473 1 2-1.464.643-2.204-1.564-1-2"/><path fill="#7a93a1" d="M404 879c-11.826 11.133-19.866 9.272-14 29-13.485 2.117-28.366 2.663-42 2l-8-2.5c4.954-.43 3.421-5.693 1-8.5 5.86-.502 10.674-2.982 16-5 14.874-5.635 27.52-15.366 39-26 4.494 4.897 4.942 4.465 8 11"/><path fill="#9cb5c1" d="M657 890c4.101 1.973 13.407 6.999 17 8-5.228 2.61-12.376 2.556-18 2-14.93-1.476-29.111-10.116-40-20 3.659-7.131 4.071-6.55 9-12 11.579 8.777 18.204 15.362 32 22"/><path fill="#6e818d" d="M411 902c-2.321 1.885-7.939 3.133-11 4-2.979.843-6.89 1.512-10 2-5.866-19.728 2.174-17.867 14-29 3.252 6.951 4.645 15.657 7 23"/><path fill="#758995" d="M656 900c2.495 12.636-9.052 3.498-16 9-10.71-1.084-20.676-3.211-31-6 .135-.594-.126-1.397 0-2 2.018-9.688 2.531-12.29 7-21 10.889 9.884 25.07 18.524 40 20"/>/&gt;<path fill="#0b5576" d="M434 902c-15.035 3.16-5.827-3.025-8-18l5-1c1.576 5.517 2.757 13.195 3 19"/><path fill="#06304a" d="M593 885c-.296 3.304.301 3.771 3 2-.453 5.271 1.375 10.792 4 16-3.609 3.438-5.557 2.943-10 0 .717-5.973-.252-11.458 1-17.5.177-.852 1.976-.4 2-.5"/><path fill="#8ea7b5" d="M667 910c-9.121.31-17.932-.082-27-1 6.948-5.502 18.495 3.636 16-9 5.624.556 12.772.61 18-2 9.064 2.525 20.815 2.923 27-5 .665 2.253 3.995 11.569 2.5 13-12.063 1.508-24.339 3.587-36.5 4"/><path fill="#8fafbd" d="M341 899c2.421 2.807 3.954 8.07-1 8.5l8 2.5c-10.621-.517-21.324-1.164-31-5.5-.379-3.271.471-6.352 1-9.5 7.351 3.688 14.809 4.701 23 4"/><path fill="#143d5b" d="M640 909c9.068.918 17.879 1.31 27 1v2c-19.613.505-39.159-1.752-58-7 .037-.093-.596.616 0-2 10.324 2.789 20.29 4.916 31 6"/></svg>