<svg xmlns="http://www.w3.org/2000/svg" width="1024" height="1024"><defs><linearGradient id="a" x1="486.332" x2="552.828" y1="133.346" y2="141.55" gradientUnits="userSpaceOnUse"><stop offset="0%" style="stop-color:#80bbc7"/><stop offset="100%" style="stop-color:#a4e0e9"/></linearGradient></defs><defs><linearGradient id="b" x1="592.439" x2="438.044" y1="272.061" y2="397.612" gradientUnits="userSpaceOnUse"><stop offset="0%" style="stop-color:#0e6a88"/><stop offset="100%" style="stop-color:#06c3eb"/></linearGradient></defs><defs><linearGradient id="c" x1="545.061" x2="491.675" y1="298.535" y2="378.321" gradientUnits="userSpaceOnUse"><stop offset="0%" style="stop-color:#003155"/><stop offset="100%" style="stop-color:#18638d"/></linearGradient></defs><defs><linearGradient id="d" x1="549.101" x2="515.225" y1="566.864" y2="741.611" gradientUnits="userSpaceOnUse"><stop offset="0%" style="stop-color:#ac9178"/><stop offset="100%" style="stop-color:#581123"/></linearGradient></defs><defs><linearGradient id="e" x1="301.89" x2="297.744" y1="617.554" y2="685.428" gradientUnits="userSpaceOnUse"><stop offset="0%" style="stop-color:#91cee1"/><stop offset="100%" style="stop-color:#599ab3"/></linearGradient></defs><defs><linearGradient id="f" x1="753.437" x2="758.764" y1="618.335" y2="683.116" gradientUnits="userSpaceOnUse"><stop offset="0%" style="stop-color:#b5e5f2"/><stop offset="100%" style="stop-color:#6db0c4"/></linearGradient></defs><defs><linearGradient id="g" x1="390.017" x2="376.498" y1="651.706" y2="700.881" gradientUnits="userSpaceOnUse"><stop offset="0%" style="stop-color:#8dc8de"/><stop offset="100%" style="stop-color:#3d98b6"/></linearGradient></defs><defs><linearGradient id="h" x1="677.428" x2="678.846" y1="648.171" y2="686.144" gradientUnits="userSpaceOnUse"><stop offset="0%" style="stop-color:#9cd3e5"/><stop offset="100%" style="stop-color:#63afc9"/></linearGradient></defs><defs><linearGradient id="i" x1="567.583" x2="669.215" y1="866.08" y2="874.732" gradientUnits="userSpaceOnUse"><stop offset="0%" style="stop-color:#1d617e"/><stop offset="100%" style="stop-color:#319dbe"/></linearGradient></defs><defs><linearGradient id="j" x1="462.889" x2="358.942" y1="856.792" y2="886.101" gradientUnits="userSpaceOnUse"><stop offset="0%" style="stop-color:#195d7b"/><stop offset="100%" style="stop-color:#15799c"/></linearGradient></defs><path fill="#053b61" d="m571 112-3-1c.192-3.405 1.862-7.593 1-11.5-23.396-7.319-48.441-10.96-73-8.5-3.947.395-24.908 3.509-26 6.5.574.77 1.967 5.164 2 5.5 2.363 24.271 10.578 49.25 14 73.5 1.657 2.676 15.962-1.373 19.5-1.5 9.308-.335 19.2-.312 28.5 0l-5 2.5 3.5 1.5-5.5 1c-10.358-.263-20.977.171-31 3-39.385 4.155-78.387 30.975-100 64-10.986 16.786-18.871 36.023-22 56-11.686 74.613 29.372 146.956 102 170l-1 5c-77.049-17.939-118.986-104.87-106-179 4.319-24.654 14.201-47.51 30-67 5.34-6.588 13.52-14.419 20-20 12.682-10.922 27.483-20.557 43-27 1.348-.56 4.131-1.304 6-2 .607-.226 2.177-.719 3-1 .477-.163 7.071 1.238 9-2.5l-7-40c5.459 1.424 3.183 12.466 6 17 1.576.92 1.075-3.421 1-4-1.464-11.344-7.146-26.347-9-37.5-.105-.631.107-1.37 0-2-.977-5.744-.91-11.947-3-17.5l1.5-1.5c28.161-7.693 68.542-9.085 96 2 9.581 3.868 4.123 7.342 5.5 16"/><path fill="#daf2f6" d="M568 111c-.141 2.498-.862 4.451-1 6 1.309-10.191-14.248-14.989-22.5-17-13.073-3.186-31.033-3.89-44.5-3 1.387-6.22-3.459-1.96-4-6 24.559-2.46 49.604 1.181 73 8.5.862 3.907-.808 8.095-1 11.5"/><path fill="#aed7e0" d="M496 91c.541 4.04 5.387-.22 4 6-9.774.646-19.172 1.126-28 6-.033-.336-1.426-4.73-2-5.5 1.092-2.991 22.053-6.105 26-6.5"/><path fill="#55a7c5" d="M331 103c1.882 7.371 4.381 12.088 2 20-2.591-5.821 1.547-11.35-5.5-15-1.164 23.105-27.416 21.553-27.5-2.5-.008-2.229 4.93-2.659 0-7.5.536-.328 5.573-1.936 4-3 10.75-3.019 19.832-2.023 27 8m-22.5-3c-6.555 1.499-6.831 15.164 0 17 14.542 3.908 15.39-20.52 0-17"/><path fill="#15536e" d="M702 193c-.136-.2.494 1.639-2-2 12.832-14.818 16.188-31.393 22-49.5-1.539-2.215-3.843-1.464-6-1.5-1.342-.023-1.229-1.459-4 .5-1.285.909-15.479 23.611-17 26.5h-2c2.433-3.206 19.563-27.772 20-29.5.645-2.549-.982-2.367-1-2.5-.086-.637.164-1.602 0-2 11.238 7.736 32.128 4.94 36-10 4.75-18.327-12.282-33.095-30-27v-1c28.204-8.057 43.818 23.828 24.5 40-5.145 4.307-17.977 5.83-19.5 7.5-2.046 2.244-5.997 24.256-8 29-2.859 6.77-10.432 14.181-13 21.5"/><path fill="#051938" d="M304 95c1.573 1.064-3.464 2.672-4 3-37.548 23.022 22.454 60.044 33 25 2.381-7.912-.118-12.629-2-20 14.104 19.722-4.747 27.341-5 32.5-.149 3.034 23.232 32.653 25.5 38.5 18.175-19.085 38.903-36.155 62-49 4.224-2.349 35.994-18.63 38-18 2.211.695 1.754 9.171 3 10 1.601 1.064 13.452-4.594 16.5-4 .107.63-.105 1.369 0 2-5.257 1.074-17.594 1.522-16 8.5l16 58.5c-.823.281-2.393.774-3 1l-18.5-70c-1.291.844-4.285 2.666-5.5 3-35.714 9.822-114.103 69.396-123 106-.076.311.053.677 0 1-2.741 16.6 6.857 66.279 8 87.5 2.96 54.941-1.643 110.217 4 165 35.566 16.895 76.726 25.645 116 30.5 11.062 1.367 22.921 3.507 34 4 54.432 2.423 129.058-.467 181-16 .074.641-.148 1.494 0 2l-42 9.5 39 10.5c-.142.542.07 1.362 0 2-7.172-2.481-19.464-5.514-27-7-15.255-3.008-19.308-3.448-35-3-18.118.517-36.815 3.324-55 4-14.638.544-29.414-1.032-44 1-8.698-.805-20.517-2.035-29-1l-34.5-6c-6.658 2.488-13.57 2.929-20.5 4-5.36.828-10.704 1.859-16 3v-2c3.019-.352 24.946-3.943 25-5.5l-35.5-8.5c-2.367.751-.222 9.157.5 11h-2c-.205-2.478-1.789-10.6-3.5-12L329 477.5c.351-11.58-.777-23.039-2-34.5-.892-8.362-1.996-16.636-3-25 .449-.108 1.926-.917 2-1 .296 1.562-1.092 5.101 1.5 5 .877-.245-.453-4.811-1.5-5 .276-.309-.726-2.044 2-2.5-2.136-51.53.288-103.315-6.5-154.5-4.179-.163-8.372-.032-12.5 0-1.953.015-4.074-.204-6 0-2.901.307-5.254 1.159-8 2-.305.093-.702-.101-1 0-3.138 1.059-2.224 1.03-4 2-1.302.712-.686 1.093-2 2-4.224-15.118 32.825-8.873 34-10.5-1.44-8.046-6.347-25.545-5-33 1.102-6.099 20.806-29.138 21-31 .177-1.695-14.242-21.382-16-26-1.474-3.87-3.673-21.269-5-23-1.961-2.557-23.793-.147-29-18-4.032-13.825 2.557-25.725 16-29.5m20 43c-2.72.187-1.909.971-3 2-.257.243-2.343-.268-2.5 0-1.82 3.107 6.379 24.57 8.5 29 1.185 2.475 11.261 18.901 12.5 19 1.578.125 7.664-8.088 8.5-10 .05-.115 2.006-.824 2-1.5-.021-2.347-23.659-38.661-26-38.5"/><path fill="#61b2bd" d="M718 95v1c-3.794 1.305-4.301 4.012-4.5 8 3.826-2.519 10.624-3.513 15-3 .835.098.398 1.982.5 2 .167 2.738-3.815 7.335-4 8.5-2.43 15.331 15.212 17.605 19 6.5 4.971-.922 1.567 2.89 4 5-3.872 14.94-24.762 17.736-36 10-1.574-3.825-7.062-6.784-8-12.5-1.486-9.061 2.457-15.244 7-22.5 3.228-2.364 3.545-2.013 7-3"/><path fill="#a3d5e0" d="M748 123c-2.433-2.11.971-5.922-4-5 3.536-10.366-7.011-13.604-15-15-.102-.018.335-1.902-.5-2-4.376-.513-11.174.481-15 3 .199-3.988.706-6.695 4.5-8 17.718-6.095 34.75 8.673 30 27"/><path fill="url(#a)" d="M567 117c-.595 6.687-1.334 13.326-2 20-7.631-1.104-11.112-7.708-19.5-4-9.427 4.167-7.442 29.067 2 29 1.443-.01 6.005-3.583 8-3 4.848 1.417 3.429 14.838 2.5 19-1.945.737-19.764-2.858-24-3-9.3-.312-19.192-.335-28.5 0-3.538.127-17.843 4.176-19.5 1.5-3.422-24.25-11.637-49.229-14-73.5 8.828-4.874 18.226-5.354 28-6 13.467-.89 31.427-.186 44.5 3 8.252 2.011 23.809 6.809 22.5 17" style="fill:url(#a)"/>/&gt;<path fill="#3694b1" d="M333 123c-10.546 35.044-70.548-1.978-33-25 4.93 4.841-.008 5.271 0 7.5.084 24.053 26.336 25.605 27.5 2.5 7.047 3.65 2.909 9.179 5.5 15"/><path fill="#0a2031" d="M712 133c.164.398-.086 1.363 0 2-12.593-9.13-14.314-27.249-1-37-4.543 7.256-8.486 13.439-7 22.5.938 5.716 6.426 8.675 8 12.5"/><path fill="#fcfefe" d="M308.5 100c15.39-3.52 14.542 20.908 0 17-6.831-1.836-6.555-15.501 0-17"/><path fill="#f9fdff" d="M744 118c-3.788 11.105-21.43 8.831-19-6.5.185-1.165 4.167-5.762 4-8.5 7.989 1.396 18.536 4.634 15 15"/><path fill="#1a5c79" d="m624 125-1 2c-4.108-2.324-28.534-15.241-31-11.5L575 180c-2.727-10.446 15.673-54.35 14-58.5-1.182-2.933-16.715-4.474-18-7.5 3.38-1.884 14.717 4.164 15.5 4 2.265-.474 1.878-8.256 4-9 1.752-.614 29.515 13.786 33.5 16"/><path fill="#2d8a9c" d="M571 112c.1.629-.167 1.608 0 2 1.285 3.026 16.818 4.567 18 7.5 1.673 4.15-16.727 48.054-14 58.5.191.732-.267 2.072 0 2.5.852 1.368 2.667 1.699 4 2.5 3.129 1.881 9.797 3.609 14 6-4.748 3.24.423 3.112 0 7-21.802-11.566-40.971-17.364-66-18l5.5-1-3.5-1.5 5-2.5c4.236.142 22.055 3.737 24 3l2-.5c-.078-6.234 2.903-12.076 4-18 1.464-7.907.334-15.834 1-22.5.666-6.674 1.405-13.313 2-20 .138-1.549.859-3.502 1-6z"/><path fill="#6caac4" d="M468 183c-1.869.696-4.652 1.44-6 2l-18-69c1.215-.334 4.209-2.156 5.5-3z"/><path fill="#def6f9" d="M623 127c24.846 14.053 92.253 72.377 95 101 .73 7.607-2.459 24.859-3 34-1.307 22.101-4.015 44.363-5 66.5-1.125 25.296.902 132.435-5 147.5-3.173-4.773 2.13-13.088-4-16 2.608-25.858 1.566-52.976 2-79 .513-30.732-1.296-61.813 0-92.5 1.57-37.185 14.605-47.739-8-83-2.249-3.508-19.819-25.94-22.5-25.5-4.518.742 11.553 19.121 12.5 22.5 3.421 12.213-2.244 17.947-14.5 19.5-7.647.969-12.769-.847-19-5-17.367-11.575-33.941-55.034 1.5-54.5-8.547-6.559-18.363-15.019-27.5-20.5-7.233-4.339-21.711-14.816-29-8-5.735 5.362-12.231 42.024-17.5 51-1.333-.801-3.148-1.132-4-2.5-.267-.428.191-1.768 0-2.5l17-64.5c2.466-3.741 26.892 9.176 31 11.5"/><path fill="#0e617e" d="M471 115c1.854 11.153 7.536 26.156 9 37.5.075.579.576 4.92-1 4-2.817-4.534-.541-15.576-6-17l7 40c-1.929 3.738-8.523 2.337-9 2.5l-16-58.5c-1.594-6.978 10.743-7.426 16-8.5"/><path fill="#add8e6" d="m444 116 18 69c-15.517 6.443-30.318 16.078-43 27-.358-10.303 39.105-25.191 40-27.5-3.87-1.04-.962-2.78-1-3-1.318-7.594-18.397-42.936-25.5-44.5-9.854-2.169-31.245 10.598-39.5 16-15.974 10.453-32.057 26.366-45 40.5-8.518 9.302-15.542 23.494-27 28.5 8.897-36.604 87.286-96.178 123-106"/><path fill="#3e92a5" d="M693 167h2c-.827 1.57-5.158 10.248-5 11 2.71 4.757 6.938 8.532 10 13 2.494 3.639 1.864 1.8 2 2 4.087 6.019 19.549 28.494 20 34l-4 1c-2.747-28.623-70.154-86.947-95-101l1-2c23.415 13.009 44.843 29.818 62.5 50 2.575-2.321 4.432-5.275 6.5-8"/><path fill="#bdebf0" d="M703 381c-8.75 3.625-18.591-9.38-29-8 18.709-78.174-13.168-143.415-81-182-4.203-2.391-10.871-4.119-14-6 5.269-8.976 11.765-45.638 17.5-51 7.289-6.816 21.767 3.661 29 8 9.137 5.481 18.953 13.941 27.5 20.5-35.441-.534-18.867 42.925-1.5 54.5 6.231 4.153 11.353 5.969 19 5 12.256-1.553 17.921-7.287 14.5-19.5-.947-3.379-17.018-21.758-12.5-22.5 2.681-.44 20.251 21.992 22.5 25.5 22.605 35.261 9.57 45.815 8 83-1.296 30.687.513 61.768 0 92.5"/><path fill="#d3f0f6" d="M565 137c-.666 6.666.464 14.593-1 22.5-1.097 5.924-4.078 11.766-4 18l-2 .5c.929-4.162 2.348-17.583-2.5-19-1.995-.583-6.557 2.99-8 3-9.442.067-11.427-24.833-2-29 8.388-3.708 11.869 2.896 19.5 4"/><path fill="#8dd5e8" d="m348 178-24-40c2.341-.161 25.979 36.153 26 38.5.006.676-1.95 1.385-2 1.5"/><path fill="#8ec9da" d="M419 212c-6.48 5.581-14.66 13.412-20 20-18.691-24.718 6.16-54.079-6-79 8.255-5.402 29.646-18.169 39.5-16 7.103 1.564 24.182 36.906 25.5 44.5.038.22-2.87 1.96 1 3-.895 2.309-40.358 17.197-40 27.5"/><path fill="#3f9ebb" d="m324 138 24 40c-.836 1.912-6.922 10.125-8.5 10-1.239-.099-11.315-16.525-12.5-19l-6-29c1.091-1.029.28-1.813 3-2"/><path fill="#cbebee" d="m716 140-26 38c-.158-.752 4.173-9.43 5-11 1.521-2.889 15.715-25.591 17-26.5 2.771-1.959 2.658-.523 4-.5"/><path fill="#93d9e5" d="m321 140 6 29c-2.121-4.43-10.32-25.893-8.5-29 .157-.268 2.243.243 2.5 0"/><path fill="#7cc5ce" d="M700 191c-3.062-4.468-7.29-8.243-10-13l26-38c2.157.036 4.461-.715 6 1.5-5.812 18.107-9.168 34.682-22 49.5"/><path fill="#5995b0" d="M399 232c-15.799 19.49-25.681 42.346-30 67-4.495-.758-3.925 1.232-5 4.5-4.119 12.527-5.641 37.151-5 50.5l-24-5c-.017-1.324.019-2.676 0-4l23 3.5-23-5.5c-.62-40.507-3.511-80.428-9-120.5l-5 .5c.053-.323-.076-.689 0-1 11.458-5.006 18.482-19.198 27-28.5 12.943-14.134 29.026-30.047 45-40.5 12.16 24.921-12.691 54.282 6 79"/><path fill="#d1edf5" d="M527 180c25.029.636 44.198 6.434 66 18 62.268 33.033 90.113 96.886 77 166-2.253 11.877-6.894 23.231-12 34-5.879 1.411-15.908-11.624-20.5-10-7.646 12.801-17.511 26.356-29 36-5.036 4.228-20.912 18.627-20.5 5 23.789-15.498 38.986-38.001 46-65 8.164-31.424 5.824-58.041-10-87 14.181-5.162 3.121-18.631-3-26.5-13.855-17.81-37.701-32.921-59-39.5 3.204-6.622-13.89-6.576-8.5-12 1.864.048 4.767-2.734 6-3 8.701-1.874 17.645 5.254 21-3-27.641-7.387-55.649-13.044-84.5-10 10.023-2.829 20.642-3.263 31-3m84.5 39c7.339 8.305 1.493 12.967 1.5 14.5.008 1.706 4.92 2.452 6 4 2.552 3.656 8.811 21.489 16.5 16.5 11.516-7.472-17.588-31.296-24-35"/><path fill="#9bccdd" d="M562 211c-11.082-3.423-19.305-5.371-31-6-43.21-2.322-76.628 10.737-105 43-.944 1.073-4.194 2.975-5 4-9.491.33-18.905 5.756-25-5 21.613-33.025 60.615-59.845 100-64 28.851-3.044 56.859 2.613 84.5 10-3.355 8.254-12.299 1.126-21 3-1.233.266-4.136 3.048-6 3-5.39 5.424 11.704 5.378 8.5 12"/><path fill="#39a5b6" d="M674 373c-2.794 11.674-10.757 31.974-16 43l-2-2c4.929-8.735 17.575-37.616 17-46.5-.104-1.607-1.586-2.954-3-3.5 13.113-69.114-14.732-132.967-77-166 .423-3.888-4.748-3.76 0-7 67.832 38.585 99.709 103.826 81 182"/><path fill="#79a8ba" d="M531 205v13c-39.814-3.133-74.057 9.617-100 40-4.518 2.39-2.23-5.003-8-4 .347-.461 3.475-5.204 3-6 28.372-32.263 61.79-45.322 105-43"/><path fill="#9ccfde" d="M562 211c21.299 6.579 45.145 21.69 59 39.5 6.121 7.869 17.181 21.338 3 26.5-18.036-33.006-55.517-56.051-93-59v-13c11.695.629 19.918 2.577 31 6"/><path fill="#044c70" d="M531 218c37.483 2.949 74.964 25.994 93 59 15.824 28.959 18.164 55.576 10 87-.542-2.434-4.52-1.12-7-2 32.42-118.616-128.176-187.939-201-97 1.695-2.332 3.073-4.743 5-7 25.943-30.383 60.186-43.133 100-40"/><path fill="#fcfefe" d="M611.5 219c6.412 3.704 35.516 27.528 24 35-7.689 4.989-13.948-12.844-16.5-16.5-1.08-1.548-5.992-2.294-6-4-.007-1.533 5.839-6.195-1.5-14.5"/><path fill="#6ba6b8" d="M335 343c.01.661-.009 1.339 0 2 .019 1.324-.017 2.676 0 4 .534 41.378-3.096 83.074 0 124.5 13.058 7.747 28.363 10.215 42.5 15.5l75.5 14c-2.894-.053-6.95-3.467-4 3-39.274-4.855-80.434-13.605-116-30.5-5.643-54.783-1.04-110.059-4-165-1.143-21.221-10.741-70.9-8-87.5l5-.5c5.489 40.072 8.38 79.993 9 120.5"/><path fill="url(#b)" d="M627 362c-11.821 43.248-53.587 73.983-97 79-27.688-5.708-40.744 3.368-72-13-60.518-31.691-70.735-109.709-32-163 72.824-90.939 233.42-21.616 201 97m-98-95c-26.379-7.318-61.837 17.111-70 42.5-15.504 48.219 20.337 95.859 71.5 90.5 35.372-3.705 65.45-45.976 54.5-80 54.716-33.821-22.761-108.478-56-53m-91.5 119c-.031 3.976 10.899 1.575 13.5 1.5z" style="fill:url(#b)"/>/&gt;<path fill="#246b80" d="M722 227c.377 4.604-5.771 26.017-4 28.5 10.457 2.914 29.605-4.995 34 8l-2-.5c-2.651-2.47-8.517-2.797-12-3-6.776-.394-13.699.288-20.5 0-1.037.546-.209 2.219-.5 3l-2-1c.541-9.141 3.73-26.393 3-34z"/><path fill="#559db8" d="M421 252c-12.912 16.418-21.264 38.147-25 58.5-3.827 2.586-15.368-10.782-22-7.5 3.129-19.977 11.014-39.214 22-56 6.095 10.756 15.509 5.33 25 5"/><path fill="#418faa" d="M423 254c-48.436 64.416-31.084 153.854 43 189 4.146 1.967 9.697 4.723 14 6l-2 24c-.531-.16-1.483.164-2 0-72.628-23.044-113.686-95.387-102-170 6.632-3.282 18.173 10.086 22 7.5 3.736-20.353 12.088-42.082 25-58.5.806-1.025 4.056-2.927 5-4 .475.796-2.653 5.539-3 6"/><path fill="#bbdaf0" d="M585 320c-36.794 22.743-78.312-15.76-56-53 33.239-55.478 110.716 19.179 56 53m-25.5-67c-23.274 3.068-8.191 39.624 12 33 15.018-4.927 11.406-36.086-12-33"/><path fill="#fdfeff" d="M559.5 253c23.406-3.086 27.018 28.073 12 33-20.191 6.624-35.274-29.932-12-33"/><path fill="#6db9cf" d="M431 258c-1.927 2.257-3.305 4.668-5 7-38.735 53.291-28.518 131.309 32 163 2.382 2.615 5.88 4.483 9 6l-1 9c-74.084-35.146-91.436-124.584-43-189 5.77-1.003 3.482 6.39 8 4"/><path fill="#1b5d7c" d="M326 417c-.074.083-1.551.892-2 1-6.303-52.533-12.148-105.082-15-158 4.128-.032 8.321-.163 12.5 0 6.788 51.185 4.364 102.97 6.5 154.5-2.726.456-1.724 2.191-2 2.5"/><path fill="#80c0d3" d="M303 260c3.927 3.815-2.799 37.006-5.5 37l-2.5-35c2.746-.841 5.099-1.693 8-2"/><path fill="#4d98b2" d="M309 260c2.852 52.918 8.697 105.467 15 158 1.004 8.364 2.108 16.638 3 25-8.922.916-23.21 3.498-30-2 .25.029 4.151-.522 5-.5.622-1.233-2.067-2.665-2-3 6.343-31.9-4.287-108.577-6-146.5-.487-10.779-3.018-18.753 0-29 .298-.101.695.093 1 0l2.5 35c2.701.006 9.427-33.185 5.5-37 1.926-.204 4.047.015 6 0"/><path fill="#5bc0c8" d="M738 260c-7.362 17.978-7.697 35.306-10 54-4.318 6.962-7.007 2.907-14 3 .659-11.667-.292-45.178 3-54 .291-.781-.537-2.454.5-3 6.801.288 13.724-.394 20.5 0"/><path fill="#a2dde4" d="M750 263c-2.185 5.122-1.416 11.718-2 17-2.806 25.398-8.749 63.886-6 88.5.11.988 1.026 6.395 4 3.5-.03.659.03 1.341 0 2-.635 13.91-.186 28.108-1 42-4.269-.736-.897-9.943-2-11.5-.876-1.237-3.975.241-5-1-.932-1.129 4.553-25.301 4-29-.089-.599-6.926-9.307-7.5-9.5-2.61-.876-8.164.97-11.5-1 2.024-16.61 2.957-33.421 5-50 2.303-18.694 2.638-36.022 10-54 3.483.203 9.349.53 12 3"/><path fill="#77c7db" d="M294 262c-3.018 10.247-.487 18.221 0 29l-4 4c-.237-10.307.174-20.69 0-31 1.776-.97.862-.941 4-2"/><path fill="#1b5270" d="M717 263c-3.292 8.822-2.341 42.333-3 54a3064 3064 0 0 0-4 99.5c7.053 3.453 1.346-5.994 6-4.5-1.27 9.144-3.204 18.427-5 27.5 1.497 4.179 20.938-1.783 24 3.5-8.129 2.146-16.761-1.706-25 .5-2.769 8.42.972 33.158-5.5 37.5-5.487 3.681-33.052 10.18-36 13-2.497 2.389-4.716 20.236-2.5 24v1c-.523-.247-3.743-.565-5-1 .07-.638-.142-1.458 0-2 .026-.1 1.79.358 2-.5.271-1.105 1.274-18.563 1-19.5-.148-.506.074-1.359 0-2 13.709-4.1 26.78-10.814 40.5-15 1.042-.691.199-2.23.5-3 5.902-15.065 3.875-122.204 5-147.5.985-22.137 3.693-44.399 5-66.5z"/><path fill="#042958" d="M290 295c1.109 48.285 2.472 96.826 5 145-.067-.023.32-.368-1-1-14.596-15.292-22.917-27.412-29-48-8.466-28.653-10.117-65.14 2-93 5.252-12.075 12.703-17.873 19.5-28 .944-1.407 2.909-.926.5-4 .213-.159.774.156 1 0 1.314-.907.698-1.288 2-2 .174 10.31-.237 20.693 0 31m-6-13c-10.006 4.908-13.574 15.253-17 25-10.436 29.691-7.815 66.104 4 95 1.211 2.963 2.516 5.225 4 8 4.485 8.387 7.608 14.864 15.5 21 3.334-1.848.464-5.701.5-6 4.04-33.97-1.724-82.623-3-118-.242-6.703 1.394-28.196 0-32.5-.543-1.676-2.142-1.591-3 0-1.362 2.61-.868 4.801-1 7.5"/><path fill="url(#c)" d="M529 267c-22.312 37.24 19.206 75.743 56 53 10.95 34.024-19.128 76.295-54.5 80-51.163 5.359-87.004-42.281-71.5-90.5 8.163-25.389 43.621-49.818 70-42.5" style="fill:url(#c)"/>/&gt;<path fill="#66ceea" d="M267 298c.451-10.863 11.314-25.501 20-32 2.409 3.074.444 2.593-.5 4-6.797 10.127-14.248 15.925-19.5 28"/><path fill="#3392aa" d="m773 387-1-2c6.301-26.157 5.924-51.479-2-77-4.031-12.982-7.417-18.6-16-29-1.181-1.431-2.018-2.221-3-4 .295-1.478.633-2.748 1.5-4 30.038 30.637 30.672 76.655 20.5 116"/><path fill="#29c4e2" d="M288 307c-2.39.144-2.757-6.704-3-8.5-.684-5.045-1.247-11.449-1-16.5.132-2.699-.362-4.89 1-7.5.858-1.591 2.457-1.676 3 0 1.394 4.304-.242 25.797 0 32.5"/><path fill="#278cb1" d="M754 279c-2.533 4.376-2.768 11.629-3 16.5-1.247 26.138-1.875 52.365-3 78.5h-2c.03-.659-.03-1.341 0-2 1.314-29.205 1.868-61.158 5-90 .237-2.187-.395-5.021 0-7 .982 1.779 1.819 2.569 3 4"/><path fill="#6bd7e2" d="M770 308c-12.314 18.208-14.618 46.425-12 68l-10 1c.042-.99-.043-2.01 0-3 1.125-26.135 1.753-52.362 3-78.5.232-4.871.467-12.124 3-16.5 8.583 10.4 11.969 16.018 16 29"/><path fill="#d4f2f2" d="M751 282c-3.132 28.842-3.686 60.795-5 90-2.974 2.895-3.89-2.512-4-3.5-2.749-24.614 3.194-63.102 6-88.5z"/><path fill="#107092" d="M284 282c-.247 5.051.316 11.455 1 16.5.243 1.796.61 8.644 3 8.5 1.276 35.377 7.04 84.03 3 118-5.406-4.195-8.627-10.27-13.5-15-.998-.969-2.625-3.511-2.5 0-1.484-2.775-2.789-5.037-4-8 2.208-.093 4.268-4.816 5-6.5 8.818-20.287 7.234-57.37-1-78-1.207-3.024-4.546-10.181-8-10.5 3.426-9.747 6.994-20.092 17-25"/><path fill="#60acc3" d="M294 291c1.713 37.923 12.343 114.6 6 146.5-.067.335 2.622 1.767 2 3-.849-.022-4.75.529-5 .5-2.439-.286-1.894-.963-2-1-2.528-48.174-3.891-96.715-5-145z"/><path fill="#2c5f78" d="M369 299c-12.986 74.13 28.951 161.061 106 179 7.74 1.802 3.013-1.161 4.5-1 .757.082.02 3.165 2 4 5.906 2.491 25.452 4.597 32.5 5-.031 4.777.824 8.104-2 12-16.76-.492-33.931-3.334-50-8-59.514-17.28-100.051-74.583-103-136-.641-13.349.881-37.973 5-50.5 1.075-3.268.505-5.258 5-4.5"/><path fill="#99cddf" d="M271 402c-11.815-28.896-14.436-65.309-4-95 3.454.319 6.793 7.476 8 10.5 8.234 20.63 9.818 57.713 1 78-.732 1.684-2.792 6.407-5 6.5"/><path fill="#dcf4f8" d="M772 385c-1.202 4.992-4.031 11.15-6 16-.423-.105-1.939-.906-2-1-1.733-2.658-5.534-20.162-6-24-2.618-21.575-.314-49.792 12-68 7.924 25.521 8.301 50.843 2 77"/><path fill="#40a2af" d="M728 314c-2.043 16.579-2.976 33.39-5 50-1.946 15.971-4.782 32.028-7 48-4.654-1.494 1.053 7.953-6 4.5.793-33.205 2.13-66.365 4-99.5 6.993-.093 9.682 3.962 14-3"/><path fill="#346883" d="M335 345c-.009-.661.01-1.339 0-2l23 5.5zm24 9c2.949 61.417 43.486 118.72 103 136-1.672 5.21-4.297 10.33 1 13.5-.233.443-8.371-.47-10-.5l-75.5-14c-14.137-5.285-29.442-7.753-42.5-15.5-3.096-41.426.534-83.122 0-124.5z"/><path fill="#032a44" d="M634 364c-7.014 26.999-22.211 49.502-46 65-14.358 9.354-33.881 16.584-51 18-2.122-3.965-2.385-5.048-7-6 43.413-5.017 85.179-35.752 97-79 2.48.88 6.458-.434 7 2"/><path fill="#1d7090" d="M656 414c-27.518 48.766-87.097 75.14-142 72-7.048-.403-26.594-2.509-32.5-5-1.98-.835-1.243-3.918-2-4-1.487-.161 3.24 2.802-4.5 1l1-5c.517.164 1.469-.16 2 0 21.764 6.569 43.308 8.794 66 6 17.635-2.171 34.409-9.034 50-17 28.959-14.795 49.96-34.388 64-64 5.106-10.769 9.747-22.123 12-34 1.414.546 2.896 1.893 3 3.5.575 8.884-12.071 37.765-17 46.5"/><path fill="#75bcc7" d="M745 416c-.362 6.176-1.013 13.058-3 19-1.632 1.828-2.514 4.074-4 6-.562.324-.064 1.225-3 2-3.062-5.283-22.503.679-24-3.5 1.796-9.073 3.73-18.356 5-27.5 2.218-15.972 5.054-32.029 7-48 3.336 1.97 8.89.124 11.5 1 .574.193 7.411 8.901 7.5 9.5.553 3.699-4.932 27.871-4 29 1.025 1.241 4.124-.237 5 1 1.103 1.557-2.269 10.764 2 11.5"/><path fill="#8ec9da" d="M703 381c-.434 26.024.608 53.142-2 79-.478 4.743-.251 9.733-1 14.5-3.92 7.821-86.862 24.728-100 26.5l-8-19c29.11-14.092 52.067-36.698 66-66 5.243-11.026 13.206-31.326 16-43 10.409-1.38 20.25 11.625 29 8"/><path fill="#13496e" d="M748 374c-.043.99.042 2.01 0 3a1135 1135 0 0 1-2 34.5c-.12 1.634-1.149 7.826 2 7.5-8.985 14.985 4.36 6.683 10-1-1.752 7.738-10.972 11.368-16 17 1.987-5.942 2.638-12.824 3-19 .814-13.892.365-28.09 1-42z"/><path fill="#2fa8bd" d="M764 400c-3.667 5.378-13.05 14.081-16 19-3.149.326-2.12-5.866-2-7.5.841-11.464 1.51-23.028 2-34.5l10-1c.466 3.838 4.267 21.342 6 24"/><path fill="#165e7f" d="M773 387c-5.946 22.999-13.279 41.493-35 54 1.486-1.926 2.368-4.172 4-6 5.028-5.632 14.248-9.262 16-17 3.67-5 5.692-11.314 8-17 1.969-4.85 4.798-11.008 6-16z"/><path fill="#a5effc" d="m437.5 386 13.5 1.5c-2.601.075-13.531 2.476-13.5-1.5"/><path fill="#96cadb" d="M658 398c-14.04 29.612-35.041 49.205-64 64l-10.5-22c-15.267 8.98-31.998 12.739-49.5 14-17.354 1.251-37.153-.001-54-5-4.303-1.277-9.854-4.033-14-6l1-9c21.32 10.369 46.329 14.958 70 13 17.119-1.416 36.642-8.646 51-18-.412 13.627 15.464-.772 20.5-5 11.489-9.644 21.354-23.199 29-36 4.592-1.624 14.621 11.411 20.5 10"/><path fill="#a9e1f0" d="M294 439c-14.705-7.035-29.859-31.686-29-48 6.083 20.588 14.404 32.708 29 48"/><path fill="#48b5c7" d="M766 401c-2.308 5.686-4.33 12-8 17-5.64 7.683-18.985 15.985-10 1 2.95-4.919 12.333-13.622 16-19 .061.094 1.577.895 2 1"/><path fill="#0da3c6" d="M291 425c-.036.299 2.834 4.152-.5 6-7.892-6.136-11.015-12.613-15.5-21-.125-3.511 1.502-.969 2.5 0 4.873 4.73 8.094 10.805 13.5 15"/><path fill="#4489a2" d="M658 416c-13.933 29.302-36.89 51.908-66 66-25.605 12.395-51.518 16.835-80 16 2.824-3.896 1.969-7.223 2-12 54.903 3.14 114.482-23.234 142-72z"/><path fill="#1b5d7c" d="M326 417c1.047.189 2.377 4.755 1.5 5-2.592.101-1.204-3.438-1.5-5"/><path fill="#045e89" d="M530 441c4.615.952 4.878 2.035 7 6-23.671 1.958-48.68-2.631-70-13-3.12-1.517-6.618-3.385-9-6 31.256 16.368 44.312 7.292 72 13"/><path fill="#6db9cf" d="M594 462c-15.591 7.966-32.365 14.829-50 17-9.095-1.466-4.794-17.635-10-25 17.502-1.261 34.233-5.02 49.5-14z"/><path fill="#52a7c0" d="M534 454c5.206 7.365.905 23.534 10 25-22.692 2.794-44.236.569-66-6l2-24c16.847 4.999 36.646 6.251 54 5"/><path fill="#daf1f6" d="M705 476c-.301.77.542 2.309-.5 3-13.72 4.186-26.791 10.9-40.5 15-51.942 15.533-126.568 18.423-181 16 2.32-3.881 10.585-1.606 14.5-2 32.074-3.228 68.672-2.437 102.5-7 13.138-1.772 96.08-18.679 100-26.5.749-4.767.522-9.757 1-14.5 6.13 2.912.827 11.227 4 16"/><path fill="#5995b0" d="M600 501c-33.828 4.563-70.426 3.772-102.5 7-3.915.394-12.18-1.881-14.5 2-11.079-.493-22.938-2.633-34-4-2.95-6.467 1.106-3.053 4-3 1.629.03 9.767.943 10 .5-5.297-3.17-2.672-8.29-1-13.5 16.069 4.666 33.24 7.508 50 8 28.482.835 54.395-3.605 80-16z"/><path fill="#2d6f87" d="M664 496c.274.937-.729 18.395-1 19.5-.21.858-1.974.4-2 .5l-39-10.5z"/><path fill="#11627f" d="M400 511c-6.834.797-6.909 4.89-10-3-.722-1.843-2.867-10.249-.5-11l35.5 8.5c-.054 1.557-21.981 5.148-25 5.5"/><path fill="#115d7c" d="M471 512c-3.099.378-10.227 3.081-14 4l-41-6c6.93-1.071 13.842-1.512 20.5-4z"/><path fill="#7bbcd4" d="m634 511 4.5 5a135 135 0 0 1-38.5 12c-1.252-6.749 3.4-14.017-1-20 15.692-.448 19.745-.008 35 3"/><path fill="#05080f" d="M390 508c3.091 7.89 3.166 3.797 10 3v2c-8.001 1.725-61.542 15.746-61 22.5 2.64 3.057 6.585 8.362 8 12 4.112 10.572 11.86 51.443 15 56 .525.762 13.706 11.025 14.5 11.5 5.393 3.229 14.386 4.57 20 8 2.422-1.315 1.89-4.586 2.5-6 17.597-40.788 32.894-69.636 76-89 12.278-5.515 24.633-9.074 38-11 13.177-1.899 21.591-2.381 35-1 13.964 1.439 32.375 6.786 45 13 25.07 12.339 50.704 39.078 63 64 3.51 7.113 8.766 18.33 10 26 .24 1.49-.228 2.491 1 4-1.488.564-2.368-1.245-3-1-23.498-92.307-130.294-134.816-210-79-21.65 15.161-41.077 39.554-50 64.5-1.461 4.086-5.39 13.946-2 17.5-.98.012-2.031-.351-2 1-3.349-1.476-26.983-11.182-28.5-11-9.206 1.107-20.325 25.566-22.5 33.5-5.437 19.836-6.066 38.194 1 57.5 1.633 4.461 3.53 12.435 8 15v1c-1.668-.258-3.205-.911-4-1 .643-2.139-1.337-2.266-2-3-14.564-16.134-10.441-52.754-4-72 4.275-12.776 10.641-25.841 23-32.5 1.004-1.914-5.326-5.85-7-6.5-.915-.355-2.979.335-4 0 .235-3.187-1.237-6.031-2-9-2.358-9.175-12.442-52.039-17-56.5-2.437-2.385-13.772 3.592-16 5.5l-1-1c.655-.155 11.08-6.474 11.5-7 2.508-3.145 1.027-5.884 1.5-6.5 5.507-7.18 40.528-15.821 50.5-18.5 3.245-2.352.638-4.328.5-6z"/><path fill="#5196b2" d="M599 508c4.4 5.983-.252 13.251 1 20-2.064.316-5.043.192-7 1-12.625-6.214-31.036-11.561-45-13l-4-4c18.185-.676 36.882-3.483 55-4"/><path fill="#286883" d="m416 510 41 6c-2.974.724-22.757 6.025-23.5 7-1.48 1.941 1.8 10.473 2.5 13-12.11 3.463-44.022 16.56-48 29.5-3.824 12.441 7.615 38.726 11 51.5-.61 1.414-.078 4.685-2.5 6-5.614-3.43-14.607-4.771-20-8-.794-.475-13.975-10.738-14.5-11.5-3.14-4.557-10.888-45.428-15-56-1.415-3.638-5.36-8.943-8-12-.542-6.754 52.999-20.775 61-22.5 5.296-1.141 10.64-2.172 16-3"/><path fill="#c8eaf2" d="M661 518c-1.68 3.691-.139 6.792-4.5 10-4.997 3.676-13.86 2.108-18.5 6.5 10.144.247 16.703.336 24.5 7.5 2.258-1.846-3.815-15.894 1.5-16.5l-2 63.5c-1.648 1.998-2.65 4.612-6 4-12.296-24.922-37.93-51.661-63-64 1.957-.808 4.936-.684 7-1a135 135 0 0 0 38.5-12l-4.5-5c7.536 1.486 19.828 4.519 27 7"/><path fill="#49839d" d="M500 513c5.143.476 10.222 1.712 15.5 1l-2.5 3c-13.367 1.926-25.722 5.485-38 11l-39 8c-.7-2.527-3.98-11.059-2.5-13 .743-.975 20.526-6.276 23.5-7 3.773-.919 10.901-3.622 14-4 8.483-1.035 20.302.195 29 1"/><path fill="#92c8d8" d="m544 512 4 4c-13.409-1.381-21.823-.899-35 1l2.5-3c-5.278.712-10.357-.524-15.5-1 14.586-2.032 29.362-.456 44-1"/><path fill="#d8dadf" d="M664 622c-2.744 1.063-5.774 2.933-9 4-6.909-10.644-9.6-23.505-16-34.5-30.205-51.895-93.596-74.359-150-53.5-7.868 2.91-18.032 8.292-25 13-3.212-5.488-2.98-9.886-10-8 79.706-55.816 186.502-13.307 210 79"/><path fill="#fbfdfd" d="M666 519c1.271.599 2.933 1.879 4.5 2 3.067 3.868 1.274 33.258.5 40-1.194 10.4-2.19 19.745-9 28l2-63.5c-5.315.606.758 14.654-1.5 16.5-7.797-7.164-14.356-7.253-24.5-7.5 4.64-4.392 13.503-2.824 18.5-6.5 4.361-3.208 2.82-6.309 4.5-10 1.257.435 4.477.753 5 1"/><path fill="#050e20" d="M674 522c-.11 2.352-.498 11.444 0 12.5 1.559 3.307 5.712.412 6 .5 10.702 3.288 21.858 6.133 32 11-.097.055-.013 1.565-2 1-5.189-.879-10.012-3.487-15-5-3.795-1.152-19.092-6.621-21-1.5-.795 2.132-1.351 40.84-1 45.5.211 2.803-1.061 7.011 1.5 9 1.055.82 23.089 7.559 25.5 8 1.222.322 5.413 2.949 6 3-3.474 1.967-1.536 1.222 0 2.5 5.425 4.515 11.204 8.641 14 15.5-4.055-5.602-13.886-13.96-20-17-4.102-2.04-8.596-2.898-13-4l-14-3.5c-.72.56-3.298 16.556-3 18 1.073 5.197 4.083-1.887 4 2.5-1.965.836-5.301 1.97-7 3-1.228-1.509-.76-2.51-1-4l5-58c.774-6.742 2.567-36.132-.5-40-1.567-.121-3.229-1.401-4.5-2v-1c3.424-.173 5.771 1.774 8 4"/><path fill="#377ba4" d="M680 535c-.288-.088-4.441 2.807-6-.5-.498-1.056-.11-10.148 0-12.5 4.709 4.703 4 6.826 6 13"/><path fill="#6da3b5" d="M475 528c-43.106 19.364-58.403 48.212-76 89-3.385-12.774-14.824-39.059-11-51.5 3.978-12.94 35.89-26.037 48-29.5z"/><path fill="#c8b481" d="M655 626c-1.413.467-4.503.569-6 1-18.757-69.209-89.979-110.449-159-85l-1-4c56.404-20.859 119.795 1.605 150 53.5 6.4 10.995 9.091 23.856 16 34.5"/><path fill="#f5fafc" d="M649 627c-4.34 1.248-11.027 6.035-16 3-.662-10.015-6.835-21.449-12-30-11.65-19.287-30.021-34.844-51-43-37.573-14.608-79.031-7.2-109 20-3.421-1.484-8.517-6.895-9-11 10.542-9.517 24.64-19.074 38-24 69.021-25.449 140.243 15.791 159 85"/><path fill="#a28559" d="M490 542c-13.36 4.926-27.458 14.483-38 24-6.231 5.625-13.297 13.093-18 20l-5 1c8.947-13.671 21.348-26.777 35-36 6.968-4.708 17.132-10.09 25-13z"/><path fill="#1d415d" d="M695 542c-2.29 3.695-8.489 1.083-11 5.5-5.46 9.603 12.844 27.917 22 30.5 1.848 9.152 13.894 20.202 14 21.5.064.786-1.947.407-2 .5l-45-14c-.351-4.66.205-43.368 1-45.5 1.908-5.121 17.205.348 21 1.5"/><path fill="#093b57" d="m358 598-2.5 4c-10.367-4.462-19.589-5.175-31.5-5.5 5.085-15.549 6.336-31.87-1-47-.223-1.272.989-1.635 2-2.5 2.228-1.908 13.563-7.885 16-5.5 4.558 4.461 14.642 47.325 17 56.5"/><path fill="#a6b0bb" d="M464 551c-13.652 9.223-26.053 22.329-35 36-7.761 11.859-14.164 24.997-17 39-.485-.131-9.294-1.008-10-1-3.39-3.554.539-13.414 2-17.5 8.923-24.946 28.35-49.339 50-64.5 7.02-1.886 6.788 2.512 10 8"/><path fill="#275173" d="M710 547c-3.233 10.832-6.333 19.444-4 31-9.156-2.583-27.46-20.897-22-30.5 2.511-4.417 8.71-1.805 11-5.5 4.988 1.513 9.811 4.121 15 5"/><path fill="#032449" d="m324 546 1 1c-1.011.865-2.223 1.228-2 2.5 7.336 15.13 6.085 31.451 1 47 11.911.325 21.133 1.038 31.5 5.5l2.5-4c.763 2.969 2.235 5.813 2 9-41.224-13.502-93.645-5.47-122 29-10.562 12.84-17.33 25.808-14 43 6.838 35.297 73.636 39.714 102 39 7.303 5.672 17.753-1.438 26 0 .663.734 2.643.861 2 3-34.551-3.862-67.73 4.621-102.5-10-83.715-35.203-3.195-162.999 56-167 5.926-.401 12.617 2.916 16.5 2m-22 4c-29.612 6.422-62.646 41.546-74 69-7.201 13.807-11.724 29.067-9.5 45 1.532-9.45 4.354-15.248 9.5-23 12.664-19.078 40.825-34.631 62.5-41 16.237-4.771 26.088 2.526 32.5-16 3.27-9.449 5.649-34.073-8-36-3.586-.506-9.414 1.222-13 2"/><path fill="#0a1d49" d="M667 745c-.123.144-.679.674-1 1-4.891-1.576-10.634-6.237-15-8v-1c1.8.926 10.855 5.932 11.5 6 1.792.19 22.873-6.615 24.5-8.5 2.8-3.243 3.729-6.522 0-7.5-.068-.018.158-1.18-1-1 1.699-.446 4.2-1.406 6-2 14.211-4.688 19.374-4.802 24-19 .537-1.648 1.31-3.398 2-5-.021.181 1.398.685 1 3.5-.381 2.699-6.048 10.138-2.5 11.5 4.916.82 11.415-13.356 12.5-17.5 3.292-12.569 2.759-29.812 1-42.5-1.068-7.7-3.17-20.052-7-27 5.997 9.203 9.115 21.094 10 32 1.39 17.119-.13 37.449-9 52.5 21.625 1.163 63.869-3.411 78-23 6.898-9.563 7.011-21.121 5-32.5-5.117-28.951-37.534-51.242-65.5-54-12.558-1.238-26.374 3.798-35.5 3-.587-.051-4.778-2.678-6-3 1.639.3 16.744.441 17.5 0 1.052-.614.186-2.453.5-3 .053-.093 2.064.286 2-.5-.106-1.298-12.152-12.348-14-21.5-2.333-11.556.767-20.168 4-31 1.987.565 1.903-.945 2-1 43.582-24.791 120.11 73.414 111 118.5-1.688 8.354-7.676 7.06-9 9-9.375 13.735-6.163 19.976-24.5 29.5-27.265 14.161-55.182 6.887-83 19-2.929 1.276-10.807 2.32-13 4-3.096 2.372-4.333 10.581-6 12-3.19 2.715-16.134 1.898-20.5 7m87-142c18.661 5.02 39.809 16.862 50 34 6.219 10.459 10.199 22.08 7 34.5 8.251-.255 9.095-3.667 10-10.5 1.726-13.038-3.704-29.201-9-41-11.354-25.295-48.107-68.424-77-72-15.37-1.902-22.844.933-24 17.5-.495 7.099 5.357 31.25 12.5 33.5 3.008.947 10.294-.701 14 0 5.523 1.045 11.079 2.542 16.5 4"/><path fill="#41849b" d="M315 548c2.145 5.877 8.271 7.777 9 14.5.798 7.364-1.916 14.295-1 21.5-6.412 18.526-16.263 11.229-32.5 16-21.675 6.369-49.836 21.922-62.5 41l-6 3.5c8.209-16.974 25.304-34.734 41.5-44.5 8.232-4.964 36.657-14.557 40.5-20.5 3.32-5.135 4.374-25.552-2-27.5v-2c3.586-.778 9.414-2.506 13-2"/><path fill="#82bac7" d="M323 584c-.916-7.205 1.798-14.136 1-21.5-.729-6.723-6.855-8.623-9-14.5 13.649 1.927 11.27 26.551 8 36"/><path fill="#48a3cf" d="M735 548c-.085.631.163 1.576 0 2-1.434 3.717-4.551 6.493-5 11.5-1.838 20.478 9.022 20.734 23 28.5-4.293 5.578-4.506 8.561 1 13-5.421-1.458-10.977-2.955-16.5-4-3.706-.701-10.992.947-14 0-7.143-2.25-12.995-26.401-12.5-33.5 1.156-16.567 8.63-19.402 24-17.5"/><path fill="#e8f9fb" d="M812 620c-1.712.101-.756 1.95-1 3-13.741-19.585-26.779-42.065-46-57-8.596-6.679-19.543-12.726-30-16 .163-.424-.085-1.369 0-2 28.893 3.576 65.646 46.705 77 72"/><path fill="url(#d)" d="M570 557c-77.361-5.974-41.326 47.882 10.5 53 10.936 1.08 36.526 2.495 40.5-10 5.165 8.551 11.338 19.985 12 30 .904 13.669-4.331 15.011 4 31-2.305 6.959-3.453 14.08-6 21-16.204 44.03-57.181 75.013-105 73-42.445-4.791-77.589-28.03-93-69-2.948-7.837-5.79-17.587-6-26a87 87 0 0 1 0-4c.014-.661-.018-1.339 0-2 .085-3.192 2.374-12.781 3-17 .428-2.882-1.056-5.701-1-6 3.358-17.776 18.683-41.913 32-54 29.969-27.2 71.427-34.608 109-20m-90.5 36L460 626.5 587.5 707l18.5-34.5zm-19 37c-8.535 5.307-7.334 43.738 2 44 9.152.257 14.929-45.452-2-44" style="fill:url(#d)"/>/&gt;<path fill="#e4f4f8" d="M302 550v2c-16.763-5.122-66.416 52.459-74 67 11.354-27.454 44.388-62.578 74-69"/><path fill="#9ed7ec" d="M765 566c-11.45 4.271-3.079 10.245-3 12.5.098 2.82-8.641 8.854-5 13.5-1.287-.729-2.706-1.281-4-2-13.978-7.766-24.838-8.022-23-28.5.449-5.007 3.566-7.783 5-11.5 10.457 3.274 21.404 9.321 30 16"/><path fill="#98cfe2" d="M302 552c6.374 1.948 5.32 22.365 2 27.5-3.843 5.943-32.268 15.536-40.5 20.5-16.196 9.766-33.291 27.526-41.5 44.5l6-3.5c-5.146 7.752-7.968 13.55-9.5 23-2.224-15.933 2.299-31.193 9.5-45 7.584-14.541 57.237-72.122 74-67"/><path fill="#bfaba4" d="M570 557c20.979 8.156 39.35 23.713 51 43-3.974 12.495-29.564 11.08-40.5 10-51.826-5.118-87.861-58.974-10.5-53"/><path fill="#4884ad" d="M666 619c-1.234-7.67-6.49-18.887-10-26 3.35.612 4.352-2.002 6-4 6.81-8.255 7.806-17.6 9-28z"/><path fill="#d0e9f3" d="M461 577c-13.317 12.087-28.642 36.224-32 54-3.007 2.156-9.859-2.092-13-3 2.743-14.569 9.672-29.769 18-42 4.703-6.907 11.769-14.375 18-20 .483 4.105 5.579 9.516 9 11"/><path fill="#c4ebf8" d="M811 623c-.809 3.482-1.463 4.79-5 6-14.374-19.841-28.733-25.516-49-37-3.641-4.646 5.098-10.68 5-13.5-.079-2.255-8.45-8.229 3-12.5 19.221 14.935 32.259 37.415 46 57"/><path fill="#805b3f" d="M434 586c-8.328 12.231-15.257 27.431-18 42-2.979-.861-3.784-1.942-4-2 2.836-14.003 9.239-27.141 17-39z"/><path fill="#132e4b" d="M718 600c-.314.547.552 2.386-.5 3-.756.441-15.861.3-17.5 0-2.411-.441-24.445-7.18-25.5-8-2.561-1.989-1.289-6.197-1.5-9z"/><path fill="#5fbedf" d="M757 592c20.267 11.484 34.626 17.159 49 37 1.378 1.903 2.799 3.981 4 6-1.615.527-2.298-1.399-3.5-1-1.389.461-1.177 2.872-2.5 3-10.191-17.138-31.339-28.98-50-34-5.506-4.439-5.293-7.422-1-13 1.294.719 2.713 1.271 4 2"/><path fill="#def2f8" d="M479.5 593 606 672.5 587.5 707 460 626.5z"/><path fill="#0e2e49" d="m687 603-10 13.5c1.716 1.304 3.057-.304 5-.5-1.428 3.143-5.455 2.917-8 4 .083-4.387-2.927 2.697-4-2.5-.298-1.444 2.28-17.44 3-18z"/><path fill="url(#e)" d="M360 607c1.021.335 3.085-.355 4 0-3.706 3.131-7.41 5.644-11 9-3.575 3.341-7.34 6.888-10 11-1.668-.015-4.048 1.928-5 3-1.046-2.066 6.907-7.493 5.5-9-2.689-2.881-14.203-1.096-15.5 3.5-.768 2.722 1.476 5.543 1 7-3.182 9.731-13.653 31.149-11 41 .508 1.887 2.306 2.428 4 2.5-.981 6.687-.858 13.294-1.5 20-40.825 6.17-116.192-12.359-72.5-65.5l-10 6.5c28.355-34.47 80.776-42.502 122-29m-10.5 0c-4.384 3.998-9.188 2.475-14.5 3.5 1.439.483 9.015 2.576 9.5 2.5.386-.06 7.931-5.672 5-6m-49 6c-9.727 2.706 3.192 12.038 8.5 3.5.723-3.894-6.345-4.1-8.5-3.5" style="fill:url(#e)"/>/&gt;<path fill="#1b4668" d="M700 607c-2.411 5.317-9.876 1.641-3 9-7.233-3.289-7.703-.734-15 0-1.943.196-3.284 1.804-5 .5l10-13.5c4.404 1.102 8.898 1.96 13 4"/><path fill="url(#f)" d="M807 657c-1.54 30.576-46.734 37.727-70 36.5.515-9.86.09-20.179-1-30-.242-2.183-.15-3.657-3-3.5-.885-10.906-4.003-22.797-10-32-1.142-2.072-2.039-2.672-3-4-2.796-6.859-8.575-10.985-14-15.5-1.536-1.278-3.474-.533 0-2.5 9.126.798 22.942-4.238 35.5-3 27.966 2.758 60.383 25.049 65.5 54" style="fill:url(#f)"/>/&gt;<path fill="#70b9d3" d="M349.5 607c2.931.328-4.614 5.94-5 6-.485.076-8.061-2.017-9.5-2.5 5.312-1.025 10.116.498 14.5-3.5"/><path fill="#095c82" d="m348 646-14 6c2.223-8.602 7.037-17.629 12-25l14-12.5c-.493-3.444-5.429 2.003-6 2.5l-1-1c3.59-3.356 7.294-5.869 11-9 1.674.65 8.004 4.586 7 6.5-12.359 6.659-18.725 19.724-23 32.5"/><path fill="#18658b" d="M720 624c.961 1.328 1.858 1.928 3 4 3.83 6.948 5.932 19.3 7 27-16.372-4.715-12.957-18.192-23-30-1.755-2.063-7.928-8.057-10-9-6.876-7.359.589-3.683 3-9 6.114 3.04 15.945 11.398 20 17"/><path fill="#b0deef" d="M300.5 613c2.155-.6 9.223-.394 8.5 3.5-5.308 8.538-18.227-.794-8.5-3.5"/><path fill="#159bc1" d="M346 627c2.327-3.457 4.855-7.262 8-10 .571-.497 5.507-5.944 6-2.5z"/><path fill="#9dd6e8" d="M697 616c2.072.943 8.245 6.937 10 9-.282 1.296.498 1.983 1 3-3.561.966-5.844-6.803-6.5-7-5.787-1.736-30.395 4.011-37.5 6 .425-.724 2.786-3.87 3-4 1.699-1.03 5.035-2.164 7-3 2.545-1.083 6.572-.857 8-4 7.297-.734 7.767-3.289 15 0"/><path fill="url(#g)" d="M400 626c8.757 3.859 17.225 9.105 26 13-2.168 2.185-2.631 2.181-3.5 3-2.599 2.45-4.689 6.577-8 9-4.763 3.487-11.905 3.728-15.5 8.5 11.04 3.067 18.837.23 28-5.5-.018.661.014 1.339 0 2-8.019 15.547-18.32 9.316-32 10.5 8.776 4.729 24.062-2.107 24 9.5l-46.5 19c5.509 1.941 11.781.845 17.5 1 2.783.075 11.479-1.489 12.5-1 .737.353 5.468 12.83 6.5 15-10.867.597-18.948 3.87-30.5 3-9.634-.726-18.981-6.055-28.5-7-7.066-19.306-6.437-37.664-1-57.5 2.175-7.934 13.294-32.393 22.5-33.5 1.517-.182 25.151 9.524 28.5 11m-32.5 3c-.706.071-4.826 1.471-5.5 2.5.977 4.557 9.446-3.653 5 4 5.424-4.74 1.562.337 3.5 1.5l3-4c-.566 6.342 2.418.912 3 1 1.061.161-.834 5.826 4 0v4c.977.134 2.595-6.83 4 0l3.5-4.5c-.389-1.813-18.232-4.728-20.5-4.5m4 42c-.43.125-1.694 1.386-2.5 1.5 9.088 8.584 15.385-5.231 2.5-1.5" style="fill:url(#g)"/>/&gt;<path fill="#020a1e" d="M354 617c-3.145 2.738-5.673 6.543-8 10-4.963 7.371-9.777 16.398-12 25-4.641 17.953-3.959 37.399 0 55.5.421 1.924 5.88 9.198 3 10.5.547-2.025-.952-1.899-1-2-12.979-27.348-9.309-63.788 7-89 2.66-4.112 6.425-7.659 10-11z"/><path fill="#bee4f1" d="M338 630c-8.814 9.929-14.089 31.969-16 45-1.694-.072-3.492-.613-4-2.5-2.653-9.851 7.818-31.269 11-41 .476-1.457-1.768-4.278-1-7 1.297-4.596 12.811-6.381 15.5-3.5 1.407 1.507-6.546 6.934-5.5 9"/><path fill="#8fd1e3" d="M821 661c-2.489-9.54-5.985-17.574-11-26-1.201-2.019-2.622-4.097-4-6 3.537-1.21 4.191-2.518 5-6 .244-1.05-.712-2.899 1-3 5.296 11.799 10.726 27.962 9 41"/><path fill="url(#h)" d="M708 628c12.149 24.607 13.118 45.137 10 72-.69 1.602-1.463 3.352-2 5-.864.166-1.213-1.244-2-1l2.5-8c-10.152-.653-19.976.412-30-2-.988-.238-.009-2.732-1-3-2.502-.677-6.494.312-10-1-7.346-2.749-23.272-9.895-22.5-19 3.148-.035 5.952-.358 9-1 5.803-.019 10.581-1.07 16-3 2.101-.748 4.159-1.998 6.5-2-15.05-9.029-37.188-6.973-49.5-23 .829-2.571.999-5.296 3.5-7 9.304.037 17.292-5.702 25.5-8 7.105-1.989 31.713-7.736 37.5-6 .656.197 2.939 7.966 6.5 7m-16.5 0c-5.407.259-37.94 8.543-25 17-1.443-10.173 2.417-.647 3-1 1.26-.764-.26-4.236 1-5 .407-.247 5.178 8.957 2.5-.5l3.5 3.5c1.653-9.259 2.139-1.822 3-2 .635-.132.478-7.332 4 1 1.069-7.114.871-1.378 6-1l-.5-5.5c1.613-1.072 2.23 2.634 2.5 2.5 1.131-.562-.128-3.092 1-4l1 2c1.027-5.169 3.261.29 4.5-6.5-.581-.863-5.192-.563-6.5-.5" style="fill:url(#h)"/>/&gt;<path fill="#052743" d="M667 623c-.214.13-2.575 3.276-3 4-8.208 2.298-16.196 8.037-25.5 8-2.501 1.704-2.671 4.429-3.5 7-1.519 4.711-1.339 4.784 0 10 3.832 14.926 12.562 18.046 27 18-3.048.642-5.852.965-9 1-2.025.023-6.531.423-8 0-.136-.039-.566-1.101-2-2-2.913-1.825-4.476-5.074-6-8-8.331-15.989-3.096-17.331-4-31 4.973 3.035 11.66-1.752 16-3 1.497-.431 4.587-.533 6-1 3.226-1.067 6.256-2.937 9-4 .632-.245 1.512 1.564 3 1"/><path fill="#042042" d="M402 625c.706-.008 9.515.869 10 1 .216.058 1.021 1.139 4 2 3.141.908 9.993 5.156 13 3-.056.299 1.428 3.118 1 6-1.39-.172-3.158 1.151-4 2-8.775-3.895-17.243-9.141-26-13-.031-1.351 1.02-.988 2-1"/><path fill="#103a5b" d="M730 655c1.759 12.688 2.292 29.931-1 42.5-1.085 4.144-7.584 18.32-12.5 17.5-3.548-1.362 2.119-8.801 2.5-11.5.398-2.815-1.021-3.319-1-3.5 3.118-26.863 2.149-47.393-10-72-.502-1.017-1.282-1.704-1-3 10.043 11.808 6.628 25.285 23 30"/><path fill="#31758f" d="M343 627c-16.309 25.212-19.979 61.652-7 89-31.269-.606-83.683.62-105-26.5-2.216-2.82-3.758-11.388-7-10.5-3.33-17.192 3.438-30.16 14-43l10-6.5c-43.692 53.141 31.675 71.67 72.5 65.5.642-6.706.519-13.313 1.5-20 1.911-13.031 7.186-35.071 16-45 .952-1.072 3.332-3.015 5-3"/><path fill="#f1fbfe" d="M691.5 628c1.308-.063 5.919-.363 6.5.5-1.239 6.79-3.473 1.331-4.5 6.5l-1-2c-1.128.908.131 3.438-1 4-.27.134-.887-3.572-2.5-2.5l.5 5.5c-5.129-.378-4.931-6.114-6 1-3.522-8.332-3.365-1.132-4-1-.861.178-1.347-7.259-3 2l-3.5-3.5c2.678 9.457-2.093.253-2.5.5-1.26.764.26 4.236-1 5-.583.353-4.443-9.173-3 1-12.94-8.457 19.593-16.741 25-17"/><path fill="#e0f5fb" d="M367.5 629c2.268-.228 20.111 2.687 20.5 4.5l-3.5 4.5c-1.405-6.83-3.023.134-4 0v-4c-4.834 5.826-2.939.161-4 0-.582-.088-3.566 5.342-3-1l-3 4c-1.938-1.163 1.924-6.24-3.5-1.5 4.446-7.653-4.023.557-5-4 .674-1.029 4.794-2.429 5.5-2.5"/><path fill="#9b7785" d="M460.5 630c16.929-1.452 11.152 44.257 2 44-9.334-.262-10.535-38.693-2-44"/><path fill="#4092b0" d="M810 635c5.015 8.426 8.511 16.46 11 26-.905 6.833-1.749 10.245-10 10.5 3.199-12.42-.781-24.041-7-34.5 1.323-.128 1.111-2.539 2.5-3 1.202-.399 1.885 1.527 3.5 1"/><path fill="#65aac1" d="M430 637c-.626 4.219-2.915 13.808-3 17-9.163 5.73-16.96 8.567-28 5.5 3.595-4.772 10.737-5.013 15.5-8.5 3.311-2.423 5.401-6.55 8-9 .869-.819 1.332-.815 3.5-3 .842-.849 2.61-2.172 4-2"/><path fill="#619db3" d="M678 667c-15.911-3.062-30.046-4.252-43-15-1.339-5.216-1.519-5.289 0-10 12.312 16.027 34.45 13.971 49.5 23-2.341.002-4.399 1.252-6.5 2"/><path fill="#083754" d="M348 646c-6.441 19.246-10.564 55.866 4 72-8.247-1.438-18.697 5.672-26 0 3.651-.092 7.347.066 11 0 2.88-1.302-2.579-8.576-3-10.5-3.959-18.101-4.641-37.547 0-55.5z"/><path fill="#1e5d79" d="M678 667c-5.419 1.93-10.197 2.981-16 3-14.438.046-23.168-3.074-27-18 12.954 10.748 27.089 11.938 43 15"/><path fill="#030913" d="M427 660c-.921 1.12-8.22 7.959-8 8.5.332.815 3.24.03 4 2 .818 2.119-3.151 9.416-3 13.5-3.57-.692-2.815 3.832-3 4-.45.407-1.431-1.058-1.5-1-2.178 1.809-10.354 6.872-10.5 7.5-.943 4.053 17.194 34.066 21 39 60.475 78.388 195.44 64.567 229-29 5.691-15.867-.094-8.296-8-16.5-.487-.505-3.874-4.706-4-5-1.133-2.636-2.869-12.169 0-14 1.434.899 1.864 1.961 2 2-4.828 4.994 3.379 15.378 7.5 18 8.273 5.265 20.076 4.047 29.5 5.5-5.138 2.62-16.106-1.223-20.5.5-1.372.538-5.089 11.393-6.5 14a1671 1671 0 0 0-8 15c-1.197 2.266-3.898 4.7-3.5 7 4.174 2.151 36.083-3.313 42.5-5 1.158-.18.932.982 1 1l-44.5 5c1.636 1.941 5.984 3.705 8.5 5v1c-1.661-.671-9.947-4.099-10.5-4-1.81.325-20.771 24.284-26 26l47-8c6.815-2.485 3.548-5.033 4.5-6 .321-.326.877-.856 1-1 .935 8.93 9.151 15.913 12 22.5 2.98 6.89 2.557 14.888 6 21.5-.178.029-2.865 1.431-3 2-2.361-.299-5.489-.003-8 0l6-4c.024-.241-1.349-2.913-1.5-3-5.225-3.027-36.725 0-44.5 1-13.922 1.79-34.814 6.307-47.5 12-6.038 2.71-12.274 3.794-13.5 11-3.11-5.571 1.889-21.233-3.5-24-38.973 6.836-75.545 4.664-110-16-.918 1.507-1.455 2.663-1.5 4.5-.262 10.696.919 30.169 0 41.5-.116 1.434-1.469 5.312-2 7-7.699-6.224-17.699-10.813-27-14-2.228-.764-3.628-.596-5-1-8.769-4.76-20.186-8.452-30-10l-52.5-5c-1.597.612-9.674 20.053-10.5 23l-1-1c2.201-4.829 4.373-17.555 8-21.5 3.524-3.833 5.231-.926 8-5 1.487-2.188 2.794-12.975 4-16 .61-1.531 3.356-1.465 4-3 2.03-4.841-.183-7.581 0-8 .909-2.081 8.325-17.254 9-18 3.769-4.17 14.677-2.416 18-7.5.273.422 1.449 1.864 2 2 6.611 1.637 30.001-5.154 39.5-1 1.131-9.686-7.322-5.807-13.5-6l-1-2c2.28-.363 5.586-1.935 8-2.5.728-1.448-5.854-12.089-7-14.5-1.032-2.17-5.763-14.647-6.5-15-1.021-.489-9.717 1.075-12.5 1 9.672-3.456 28.93-6.805 29-20 .062-11.607-15.224-4.771-24-9.5 13.68-1.184 23.981 5.047 32-10.5a87 87 0 0 0 0 4m7 94c-5.867 1.173-12.883-1.172-19-2-10.66-1.443-19.142-2.202-30-2-8.165.152-28.07-2.929-23.5 10 11.882.065 23.599-1.448 35.5-1 10.727.404 21.403 1.3 32 3 5.336.856 25.182 7.375 26.5 7 .487-.138 2.766-2.459 2.5-3.5-4.735-2.774-8.891-5.892-13-9.5-4.019-3.529-17.244-18.574-18.5-19-5.825-1.976-31.919-.984-39 0-4.192.582-25.551 3.8-20.5 10.5 23.305.11 44.314.78 67 6.5m213.5 1c-7.108.784-13.725 1.336-15 9 4.964-3.181 37.293-.995 38.5-2.5 5.639-7.034-20.928-6.784-23.5-6.5m-275 6c-3.105.296-16.363 1.175-12 6 24.924-2.309 49.512-.633 74 6 5.423 1.469 25.389 14.556 21.5 1.5-4.146-13.917-70.908-14.701-83.5-13.5m259.5 5c-.967.113-4.234-.294-6 0-19.696 3.281-33.924 11.891-52.5 18-1.857 11.263 19.629-.193 26.5-2 4.626-1.217 9.349-2.927 14-4 .247 3.211-1.72 2.498-3.5 3-3.962 1.118-47.402 11.03-36 20 8.524-4.543 17.857-7.98 27-11 7.241-2.391 35.332-3.665 22.5-14 1.924-.354 4.063-.705 6-1 4.383-.669 8.553-1.52 13-2 11.061-1.193 21.931-.771 33-1.5-.534-10.751-23.082-7.83-32-7.5-3.886.144-8.17 1.551-12 2m-216 13c7.451 1.06 16.274 2.869 23.5 5 3.57 1.053 14.221 8.681 15.5 5.5 1.526-6.815-11.018-11.489-16.5-13.5-8.74-3.206-20.208-4.817-29.5-6-3.642-.464-7.957-1.784-11.5-2-3.197-.195-52.956-1.555-44.5 9.5 21.04-.133 42.093-1.475 63 1.5m229.5-5c-6.93 1.183-6.973 1.794-8 9 5.328-3.615 39.081-.769 40.5-2.5 6.681-8.148-28.888-7.117-32.5-6.5M430 793c-.192-.055-1.952.557-4 0-10.719-2.914-70.179-20.625-75-9.5l.5 4.5c25.208 1.415 50.574 5.116 74.5 13 4.219 1.39 32.677 19.285 29 3.5-.243-1.041-5.933-4.892-7-5.5 3.346 1.819 8.144-.27 7-4.5-2.849-10.532-63.6-17.542-74.5-15.5z"/><path fill="#3c7e94" d="M733 660c2.85-.157 2.758 1.317 3 3.5 1.09 9.821 1.515 20.14 1 30 23.266 1.227 68.46-5.924 70-36.5 2.011 11.379 1.898 22.937-5 32.5-14.131 19.589-56.375 24.163-78 23 8.87-15.051 10.39-35.381 9-52.5"/><path fill="#63b4d0" d="M433 686c-.593 7.917 2.642 13.126-7 16-1.367-3.117-5.902-15.361-6-18-.151-4.084 3.818-11.381 3-13.5-.76-1.97-3.668-1.185-4-2-.22-.541 7.079-7.38 8-8.5.21 8.413 3.052 18.163 6 26"/><path fill="#8dafc0" d="M643 669c-2.869 1.831-1.133 11.364 0 14-1.187 6.556-4.286 12.082-7 18-3.293-5.942 2.62-15.929-5-19 2.547-6.92 3.695-14.041 6-21 1.524 2.926 3.087 6.175 6 8"/><path fill="#79c3da" d="M371.5 671c12.885-3.731 6.588 10.084-2.5 1.5.806-.114 2.07-1.375 2.5-1.5"/><path fill="#458ea7" d="M653 671c-.772 9.105 15.154 16.251 22.5 19 3.506 1.312 7.498.323 10 1 .991.268.012 2.762 1 3 10.024 2.412 19.848 1.347 30 2l-2.5 8c-8.901 2.762-17.859 6.517-27.5 7-11.225.563-20.709-3.583-31.5-2 1.411-2.607 5.128-13.462 6.5-14 4.394-1.723 15.362 2.12 20.5-.5-9.424-1.453-21.227-.235-29.5-5.5-4.121-2.622-12.328-13.006-7.5-18 1.469.423 5.975.023 8 0"/><path fill="#2c88a7" d="M419 676c-.07 13.195-19.328 16.544-29 20-5.719-.155-11.991.941-17.5-1z"/><path fill="#4995a9" d="M336 716c.048.101 1.547-.025 1 2-3.653.066-7.349-.092-11 0-28.364.714-95.162-3.703-102-39 3.242-.888 4.784 7.68 7 10.5 21.317 27.12 73.731 25.894 105 26.5"/><path fill="#b0d4e3" d="M636 701c-20.005 43.63-61.438 69.576-110 67 3.03.029 21.914-1.429 24.5-2 1.266-.279 7.264-2.805 7.5-4.5 1.639-11.753-15.028-4.724-20.5-4.5-6.157.253-10.218-1.855-11.5-2 47.819 2.013 88.796-28.97 105-73 7.62 3.071 1.707 13.058 5 19"/><path fill="#541922" d="M647 688c-36.759 111.615-194.836 112.768-230 0 .185-.168-.57-4.692 3-4 .098 2.639 4.633 14.883 6 18 16.332 37.228 59.411 65.607 100 66 48.562 2.576 89.995-23.37 110-67 2.714-5.918 5.813-11.444 7-18 .126.294 3.513 4.495 4 5"/><path fill="#94bcce" d="M526 755c1.282.145 5.343 2.253 11.5 2 5.472-.224 22.139-7.253 20.5 4.5-.236 1.695-6.234 4.221-7.5 4.5-2.586.571-21.47 2.029-24.5 2-40.589-.393-83.668-28.772-100-66 9.642-2.874 6.407-8.083 7-16 15.411 40.97 50.555 64.209 93 69"/><path fill="#587881" d="M417 688c35.164 112.768 193.241 111.615 230 0 7.906 8.204 13.691.633 8 16.5-33.56 93.567-168.525 107.388-229 29-3.806-4.934-21.943-34.947-21-39 .146-.628 8.322-5.691 10.5-7.5.069-.058 1.05 1.407 1.5 1"/><path fill="#2f7189" d="M716 705c-4.626 14.198-9.789 14.312-24 19l.5-3-45.5 3a1671 1671 0 0 1 8-15c10.791-1.583 20.275 2.563 31.5 2 9.641-.483 18.599-4.238 27.5-7 .787-.244 1.136 1.166 2 1"/><path fill="#26718c" d="M409 710c1.146 2.411 7.728 13.052 7 14.5-2.414.565-5.72 2.137-8 2.5-7.123 1.134-44.133-2.634-50-6-4.47-2.565-6.367-10.539-8-15 9.519.945 18.866 6.274 28.5 7 11.552.87 19.633-2.403 30.5-3"/><path fill="#081f42" d="m408 727 1 2c-8.509-.266-17.042.575-25.5-1l-.5 8c-.551-.136-1.727-1.578-2-2-.663-1.025-.087-5.423-2.5-7-.883-.577-18.645-4.713-20.5-5v-1c5.867 3.366 42.877 7.134 50 6"/><path fill="#1e5d7c" d="M692 724c-1.8.594-4.301 1.554-6 2-6.417 1.687-38.326 7.151-42.5 5-.398-2.3 2.303-4.734 3.5-7l45.5-3z"/><path fill="#3a7a99" d="M651 737c-2.516-1.295-6.864-3.059-8.5-5l44.5-5c3.729.978 2.8 4.257 0 7.5-1.627 1.885-22.708 8.69-24.5 8.5-.645-.068-9.7-5.074-11.5-6"/><path fill="#0f617e" d="M409 729c6.178.193 14.631-3.686 13.5 6-9.499-4.154-32.889 2.637-39.5 1l.5-8c8.458 1.575 16.991.734 25.5 1"/><path fill="#103b56" d="M651 738c4.366 1.763 10.109 6.424 15 8-.952.967 2.315 3.515-4.5 6l-47 8c5.229-1.716 24.19-25.675 26-26 .553-.099 8.839 3.329 10.5 4"/><path fill="#0c3247" d="M445 756c-3.1.493-7.857-1.208-11-2-22.686-5.72-43.695-6.39-67-6.5-5.051-6.7 16.308-9.918 20.5-10.5 7.081-.984 33.175-1.976 39 0 1.256.426 14.481 15.471 18.5 19"/><path fill="#0a445e" d="M385 750c3.344 4.274 7.909 6.145 12 9-11.901-.448-23.618 1.065-35.5 1-4.57-12.929 15.335-9.848 23.5-10"/><path fill="#0b364c" d="M415 752c-3.094 7.589 13.966 3.549 14 10-10.597-1.7-21.273-2.596-32-3-4.091-2.855-8.656-4.726-12-9 10.858-.202 19.34.557 30 2"/><path fill="#09212f" d="M434 754c3.143.792 7.9 2.493 11 2 4.109 3.608 8.265 6.726 13 9.5.266 1.041-2.013 3.362-2.5 3.5-1.318.375-21.164-6.144-26.5-7-.034-6.451-17.094-2.411-14-10 6.117.828 13.133 3.173 19 2"/><path fill="#32607f" d="M647.5 755c2.572-.284 29.139-.534 23.5 6.5-1.207 1.505-33.536-.681-38.5 2.5 1.275-7.664 7.892-8.216 15-9"/><path fill="#0c2e41" d="M372.5 761c12.592-1.201 79.354-.417 83.5 13.5 3.889 13.056-16.077-.031-21.5-1.5-24.488-6.633-49.076-8.309-74-6-4.363-4.825 8.895-5.704 12-6"/><path fill="#365c7c" d="m644 764-1 9c-4.447.48-8.617 1.331-13 2l2-9c3.83-.449 8.114-1.856 12-2"/><path fill="#3e7395" d="m643 773 1-9c8.918-.33 31.466-3.251 32 7.5-11.069.729-21.939.307-33 1.5"/><path fill="#26425e" d="m632 766-2 9c-1.937.295-4.076.646-6 1-3.228.594-6.812 1.265-10 2-4.651 1.073-9.374 2.783-14 4 1.681-12.147 23.975-5.89 26-16 1.766-.294 5.033.113 6 0"/><path fill="#0e202d" d="M626 766c-2.025 10.11-24.319 3.853-26 16-6.871 1.807-28.357 13.263-26.5 2 18.576-6.109 32.804-14.719 52.5-18"/><path fill="#084560" d="M409 770c-.502 3.743 5.455 5.231 7 9-20.907-2.975-41.96-1.633-63-1.5-8.456-11.055 41.303-9.695 44.5-9.5 3.543.216 7.858 1.536 11.5 2"/><path fill="#0a2635" d="M416 779c-1.545-3.769-7.502-5.257-7-9 9.292 1.183 20.76 2.794 29.5 6 5.482 2.011 18.026 6.685 16.5 13.5-1.279 3.181-11.93-4.447-15.5-5.5-7.226-2.131-16.049-3.94-23.5-5"/><path fill="#3f84a8" d="M645.5 774c3.612-.617 39.181-1.648 32.5 6.5-1.419 1.731-35.172-1.115-40.5 2.5 1.027-7.206 1.07-7.817 8-9"/><path fill="#0e202d" d="M624 776c12.832 10.335-15.259 11.609-22.5 14-9.143 3.02-18.476 6.457-27 11-11.402-8.97 32.038-18.882 36-20 1.78-.502 3.747.211 3.5-3 3.188-.735 6.772-1.406 10-2"/><path fill="#0c3145" d="M448 799c-5.524-3.148-11.971-4.268-18-6l-49.5-14c10.9-2.042 71.651 4.968 74.5 15.5 1.144 4.23-3.654 6.319-7 4.5"/><path fill="#08465f" d="M426 793v8c-23.926-7.884-49.292-11.585-74.5-13l-.5-4.5c4.821-11.125 64.281 6.586 75 9.5"/><path fill="#356a88" d="M680 787c-12.866 1.82-26.218 1.496-39 4l-7-6c7.775-1 39.275-4.027 44.5-1 .151.087 1.524 2.759 1.5 3"/><path fill="#0d212e" d="m634 785 7 6c-2.241.439-7.605 3.389-10 4-8.501 2.17-17.212 4.096-25.5 7-4.333 1.518-27.478 13.456-29 13-1.936-.58-.43-8.701-3.5-4-.005-.958-.154-2.093 0-3 1.226-7.206 7.462-8.29 13.5-11 12.686-5.693 33.578-10.21 47.5-12"/><path fill="#031733" d="M674 791c-12.255.015-24.105 2.534-36 5-2.172.45-4.797.461-7 1v-2c2.395-.611 7.759-3.561 10-4 12.782-2.504 26.134-2.18 39-4z"/><path fill="#103b65" d="M764 878c2.351 2.881 10.913 12.576 7.5 15-22.623 4.004-44.591 12.442-67 17-28.979 5.894-32.477 4.189-60.5-3l2-3c8.817 2.311 22.422 7.775 31 8 13.442.352 75.203-14.593 89-20 1.378-.54 3.783.899 5-1.5-6.423-7.807-13.061-15.66-20-23-6.144-6.499-41.929-40.4-47.5-42.5-7.872-2.967-21.249.221-29.5 1-24.553 2.318-49.148 7.609-70 21-1.457-.846-1.88-1.925-2-2 30.323-16.077 62.736-22.015 97-23 2.686-1.202-8.156-28.334-11.5-31-1.802-.154-3.728.225-5.5 0 .135-.569 2.822-1.971 3-2 2.311-.378 4.235-.365 6 1.5 4.108 4.34 8.003 26.253 12 32 8.564 12.315 46.834 38.136 61 55.5"/><path fill="#c1e5ee" d="M394 796c-4.738-.747-18.535-1.851-23.5-2-4.394-.132-22.048-.431-25 1-2.156 1.045-11.546 19.216-10.5 23-1.891.575-3.254.753-4 3v1c-3.34-.899-.759-5.292 0-8 .826-2.947 8.903-22.388 10.5-23z"/><path fill="#d7f0f5" d="M674 791c2.511-.003 5.639-.299 8 0 1.772.225 3.698-.154 5.5 0 3.344 2.666 14.186 29.798 11.5 31 .123-.985-.374-.835-1-1-.339-1.276-1.531-1.731-2-3-13.948-37.756-23.774-20.641-58-22 11.895-2.466 23.745-4.985 36-5"/><path fill="#0a2431" d="M430 793c6.029 1.732 12.476 2.852 18 6 1.067.608 6.757 4.459 7 5.5 3.677 15.785-24.781-2.11-29-3.5v-8c2.048.557 3.808-.055 4 0"/><path fill="#58b6d4" d="M394 796c9.814 1.548 21.231 5.24 30 10-3.094-.91-23.339-6.876-24.5-6l-.5 23c-9.599-2.528-55.911-7.459-64-5-1.046-3.784 8.344-21.955 10.5-23 2.952-1.431 20.606-1.132 25-1 4.965.149 18.762 1.253 23.5 2"/><path fill="#87cbe2" d="m696 818-46 3c-.974.109-2.029-.118-3 0-4.187.509-13.797 1.186-17 2 1.741-2.884.529-22.196-1.5-23l-23.5 6c8.409-3.255 17.234-6.857 26-9 2.203-.539 4.828-.55 7-1 34.226 1.359 44.052-15.756 58 22"/><path fill="#01060d" d="M631 795v2c-8.766 2.143-17.591 5.745-26 9-10.192 3.945-19.823 9.045-30 13-.442-1.732-.806-4.181-1-6-.106-.995-.995-1.088-1-2 3.07-4.701 1.564 3.42 3.5 4 1.522.456 24.667-11.482 29-13 8.288-2.904 16.999-4.83 25.5-7"/><path fill="#1d617d" d="M424 806c.924.502 3.992 3.109 5 1 9.301 3.187 19.301 7.776 27 14-1.56 4.957-5.653 10.961-9 15-1.426.682-9.826 6.025-10.5 6-2.1-.079-30.172-17.07-37.5-19l.5-23c1.161-.876 21.406 5.09 24.5 6"/><path fill="#216783" d="M630 823c-8.603 2.187-25.191 13.902-33 17-6.102 2.421-13.101-2.327-17-8-2.015-2.932-4.098-9.462-5-13 10.177-3.955 19.808-9.055 30-13l23.5-6c2.029.804 3.241 20.116 1.5 23"/><path fill="#58b6d4" d="M429 807c-1.008 2.109-4.076-.498-5-1 1.372.404 2.772.236 5 1"/><path fill="#042548" d="M331 814c-.759 2.708-3.34 7.101 0 8 29.777.518 53.069 5.375 80.5 16 8.166 3.163 12.991 10.905 21.5 4.5-21.716-16.862-54.413-22.374-81.5-23.5-6.819-.283-14.612-.913-20.5 2 .746-2.247 2.109-2.425 4-3 8.089-2.459 54.401 2.472 64 5 7.328 1.93 35.4 18.921 37.5 19 .674.025 9.074-5.318 10.5-6 2.814-1.346 22.871-11.198 23-12.5.037-.37-4.252-4.739-5-5.5 1.951.086 7.59 4.199 8 5.5.714 2.266 1.141 41.936 1 47.5-.074 2.911.99 6.861-1.5 9-19.479 5.294-38.245 13.119-57.5 19-10.905 3.331-55.342 17.084-63.5 17-11.527-.119-55.36-13.283-69.5-17v-2c18.215 4.387 54.897 15.945 72 15 13.206-.729 40.689-9.882 54.5-14 20.922-6.238 41.771-13.786 62-22l-1-47c-19.927 6.205-36.45 18.808-54.5 28-8.1 4.125-58.274 29.848-62.5 30-7.51.271-37.147-13.356-46.5-16 14.456.893 29.144 6.668 43 9 .243.041 3.273 2.097 4.5 2 .38-.03 5.212-2.368 7-3 20.311-7.176 43.037-24.185 63.5-32.5-17.653-7.748-37.812-18.082-57-17.5-5.055-1.849-12.636-3.341-18-3-8.005-1.28-15.71-3.578-23.5 0-10.429 4.791-61.163 54.355-67.5 65-.152.256.142 1.164-1 1-1.177-1.689 6.568-11.235 8-13 16.938-20.876 55.657-45.503 65-66z"/><path fill="#2ba7c9" d="M574 813c.194 1.819.558 4.268 1 6 .902 3.538 2.985 10.068 5 13 .537 1.118 2.555 3.557-1 2.5-3.913-1.163-13.251-9.221-18-11 2.347-1.745 3.949-4.558 6-6.5 1.987-1.882 3.777-4.388 7-4"/><path fill="#24a7cc" d="M465 818c.748.761 5.037 5.13 5 5.5-.129 1.302-20.186 11.154-23 12.5 3.347-4.039 7.44-10.043 9-15 .531-1.688 1.884-5.566 2-7 3.793-.491 4.923 1.885 7 4"/><path fill="#05254a" d="M567 817c-2.051 1.942-3.653 4.755-6 6.5 4.749 1.779 14.087 9.837 18 11 3.555 1.057 1.537-1.382 1-2.5 3.899 5.673 10.898 10.421 17 8l1 1c-.134.15-2.684.959-1.5 2 .409.536 4.843 1.586 5.5 2 .12.075.543 1.154 2 2 9.109 5.29 19.512 10.354 29 15v1c-2.856-1.429-6.082-2.539-9-4-20.516-10.271-41.16-20.363-61.5-31l-1.5 46.5c1.878 5.613 74.632 26.783 85 29.5l-2 3c-9.177-2.354-18.932-5.197-28-8-8.645-2.673-50.839-15.627-55.5-19-2.523-1.826-3.246-6.383-3.5-9-.369-3.804.31-45.227 1-47.5.415-1.367 6.84-6.425 9-6.5"/><path fill="#114d76" d="M696 818c.469 1.269 1.661 1.724 2 3-12.358-3.258-34.898-1.462-48 0z"/><path fill="#23627d" d="M331 822v-1c5.888-2.913 13.681-2.283 20.5-2 27.087 1.126 59.784 6.638 81.5 23.5-8.509 6.405-13.334-1.337-21.5-4.5-27.431-10.625-50.723-15.482-80.5-16"/><path fill="#2f7c99" d="M698 821c.626.165 1.123.015 1 1-34.264.985-66.677 6.923-97 23-.657-.414-5.091-1.464-5.5-2-1.184-1.041 1.366-1.85 1.5-2 1.511-1.691 29.238-15.013 32.5-16 4.937-1.494 13.192.293 16.5-4 .971-.118 2.026.109 3 0 13.102-1.462 35.642-3.258 48 0"/><path fill="#17597b" d="M647 821c-3.308 4.293-11.563 2.506-16.5 4-3.262.987-30.989 14.309-32.5 16l-1-1c7.809-3.098 24.397-14.813 33-17 3.203-.814 12.813-1.491 17-2"/><path fill="#b4e0ec" d="M349 826c-19.722 1.253-51.53 27.46-63 43-1.999.791-6.977 5.531-5 8-5.665 2.032-14.333 10-18 15-1.432-.416-3.299.57-5-1 6.337-10.645 57.071-60.209 67.5-65 7.79-3.578 15.495-1.28 23.5 0"/><path fill="#c7eaf5" d="M766 892c-2.176-4.288-11.041-12.153-15-14-2.245-11.99-10.694-10.158-20-9-12.307 1.531-39.251 10.985-48.5 11-4.527.007-5.246-2.507-8.5-4-3.39-1.555-28.141-15.555-29-17-4.872-8.196 4.874-20.726 11.5-25 5.227-3.372 12.952-3.936 17.5-8 8.251-.779 21.628-3.967 29.5-1 5.571 2.1 41.356 36.001 47.5 42.5 6.939 7.34 13.577 15.193 20 23-1.217 2.399-3.622.96-5 1.5"/><path fill="#91d0e6" d="M367 829c8.766 3.206 23.554 16.1 21 26.5-.755 3.076-34.266 20.893-39 24.5-13.856-2.332-28.544-8.107-43-9-4.768-1.348-14.738-4.081-20-2 11.47-15.54 43.278-41.747 63-43 5.364-.341 12.945 1.151 18 3"/><path fill="#3e8aa7" d="M674 826c-4.548 4.064-12.273 4.628-17.5 8-6.626 4.274-16.372 16.804-11.5 25-2.5 2.109-5.386 3.901-2 6-1.73-.799-7.161-1.61-10-3-9.488-4.646-19.891-9.71-29-15 20.852-13.391 45.447-18.682 70-21"/><path fill="#2a6882" d="M349 880c4.734-3.607 38.245-21.424 39-24.5 2.554-10.4-12.234-23.294-21-26.5 19.188-.582 39.347 9.752 57 17.5-20.463 8.315-43.189 25.324-63.5 32.5-1.788.632-6.62 2.97-7 3-1.227.097-4.257-1.959-4.5-2"/><path fill="url(#i)" d="M624 859c.315 1.192.904 4.397 1.5 5 2.013 2.035 48.646 24.78 51.5 25v23c-8.578-.225-22.183-5.689-31-8-10.368-2.717-83.122-23.887-85-29.5l1.5-46.5c20.34 10.637 40.984 20.729 61.5 31" style="fill:url(#i)"/>/&gt;<path fill="url(#j)" d="M354 912c-2.272-4.786.366-19.049-1-22 17.764-9.929 37.647-16.325 55.5-26 1.16-.628 9.881-5.078 6.5-7 18.05-9.192 34.573-21.795 54.5-28l1 47c-20.229 8.214-41.078 15.762-62 22-13.811 4.118-41.294 13.271-54.5 14" style="fill:url(#j)"/>/&gt;<path fill="#8cd3e5" d="M415 857c3.381 1.922-5.34 6.372-6.5 7-17.853 9.675-37.736 16.071-55.5 26-1.089-2.351-44.322-14.526-49.5-15-7.103-.651-15.906-.366-22.5 2-1.977-2.469 3.001-7.209 5-8 5.262-2.081 15.232.652 20 2 9.353 2.644 38.99 16.271 46.5 16 4.226-.152 54.4-25.875 62.5-30"/><path fill="#ace7f1" d="M633 863c7.863 3.936 38.572 23.349 44.5 24 .929.102 7.081-2.276 8.5-3 11.742-.704 32.852-11.716 45-15 9.306-1.158 17.755-2.99 20 9-7.257-3.386-16.472-3.649-24.5-3-12.382 1.001-42.282 14.555-49.5 14-2.854-.22-49.487-22.965-51.5-25-.596-.603-1.185-3.808-1.5-5 2.918 1.461 6.144 2.571 9 4"/><path fill="#57a9c7" d="m674 876-1 2.5-12-4.5c-6.306-2.689-11.908-6.188-18-9-3.386-2.099-.5-3.891 2-6 .859 1.445 25.61 15.445 29 17"/><path fill="#116799" d="M643 865c6.092 2.812 11.694 6.311 18 9 8.04 3.428 16.358 10.518 25 10-1.419.724-7.571 3.102-8.5 3-5.928-.651-36.637-20.064-44.5-24v-1c2.839 1.39 8.27 2.201 10 3"/><path fill="#1d7ba2" d="M731 869c-12.148 3.284-33.258 14.296-45 15-8.642.518-16.96-6.572-25-10l12 4.5 1-2.5c3.254 1.493 3.973 4.007 8.5 4 9.249-.015 36.193-9.469 48.5-11"/><path fill="#1ebadf" d="M353 890c1.366 2.951-1.272 17.214 1 22-17.103.945-53.785-10.613-72-15-6.572-1.583-12.517-3.117-19-5 3.667-5 12.335-12.968 18-15 6.594-2.366 15.397-2.651 22.5-2 5.178.474 48.411 12.649 49.5 15"/><path fill="#33cbe9" d="M751 878c3.959 1.847 12.824 9.712 15 14-13.797 5.407-75.558 20.352-89 20v-23c7.218.555 37.118-12.999 49.5-14 8.028-.649 17.243-.386 24.5 3"/><path fill="#275b84" d="M263 892c6.483 1.883 12.428 3.417 19 5v2c-8.29-2.179-17.142-3.474-25-7 1.142.164.848-.744 1-1 1.701 1.57 3.568.584 5 1"/></svg>