<svg xmlns="http://www.w3.org/2000/svg" width="1024" height="1024"><defs><linearGradient id="a" x1="298.361" x2="670.335" y1="307.76" y2="513.334" gradientUnits="userSpaceOnUse"><stop offset="0%" style="stop-color:#cce6ed"/><stop offset="100%" style="stop-color:#88adba"/></linearGradient></defs><defs><linearGradient id="b" x1="624.171" x2="399.443" y1="262.843" y2="547.915" gradientUnits="userSpaceOnUse"><stop offset="0%" style="stop-color:#087ca1"/><stop offset="100%" style="stop-color:#0e456d"/></linearGradient></defs><defs><linearGradient id="c" x1="592.683" x2="425.47" y1="297.518" y2="514.581" gradientUnits="userSpaceOnUse"><stop offset="0%" style="stop-color:#39bfdb"/><stop offset="100%" style="stop-color:#007ba3"/></linearGradient></defs><defs><linearGradient id="d" x1="600.001" x2="418.557" y1="334.185" y2="478.76" gradientUnits="userSpaceOnUse"><stop offset="0%" style="stop-color:#69dbf1"/><stop offset="100%" style="stop-color:#0bb2d5"/></linearGradient></defs><defs><linearGradient id="e" x1="572.271" x2="449.435" y1="354.864" y2="462.009" gradientUnits="userSpaceOnUse"><stop offset="0%" style="stop-color:#084e77"/><stop offset="100%" style="stop-color:#0b3864"/></linearGradient></defs><defs><linearGradient id="f" x1="609.654" x2="722.795" y1="805.204" y2="825.799" gradientUnits="userSpaceOnUse"><stop offset="0%" style="stop-color:#9bc0cb"/><stop offset="100%" style="stop-color:#bde8f3"/></linearGradient></defs><path fill="#07314f" d="M796 376c.623 3.195 2.308 4.127 3 9 1.558 10.978.294 20.19 0 31-.69 25.401-2.425 50.302-8.5 75 17.654-14.616 34.545-25.733 38.5-50 .484-2.967.95-7.962 1-11 .388-23.583-7.86-46.443-32-54 40.35 6.112 42.279 65.318 22 92.5-7.546 10.114-38.619 27.178-36 39 .71 3.205 13.996 6.596 16.5 8.5 7.142 5.432 4.522 11.824 6.5 15.5.7 1.3 17.454 9.368 19 13.5-.251-.144-.757.148-1 0-.568-.346-2.911.355-3.5 0-5.389-3.246-10.624-16.806-18.5-7l-2-1c.871-1.433 3.918-5.649 4-6 1.215-5.18-2.793-12.627-8-14-.13-.034-.282-1.862-2.5-1-2.68 1.041-13.378 21.027-15.5 25l-1-2c.99-1.865.869-5.253 1-5.5 4.328-8.124 20.123-19.333 4-23-8.447 18.909-16.13 38.801-26 57-2.714 5.004-20.267 28.217-20 30 .035.233 3.245 1.751 4 2.5-1.146 1.475-.792 1.531 0 3-1.258-.734-3.44-.855-4.5-3-22.044 27.989-50.644 49.422-80 69-2.044 1.363-12.472 5.517-13 6-.698.639-1.662 11.76-1.5 12.5.131.596 6.065 6.125 7 10 1.02 4.226.496 24.099 2 27 .489.944 15.362 8.156 18.5 10.5 27.484 20.527 59.314 50.903 74.5 82 51.54 105.544-71.476 84.888-131 66-45.466-14.427-91.774-32.686-90-87 .861-26.362 11.994-37.686 32-53 8.419 6.75 11.765 10.565 23.5 12 2.165.265 1.002-2.085 2.5-2 6.188.35 12.129 1.681 18.5 1 .852-.564-.276-10.254-.5-12l2 9.5 2.5 1.5c.078-3.941 7.555-1.877 8-2 .927-.256 6.968-4.634 8-5 .17-.06.8 1.277 1.5 1 5.37-2.125 8.244-3.651 13-7 8.368-5.893 17.045-11.702 15-23.5-1.573-1.497-2.776.167-4 .5.73-2.69 4.626-7.607 0-8 4.961-5.205 2.544-8.816 0-14-.782-1.593-.115-4.152-3.5-6-.127-.069-.704 1.173-1.5 1-1.043-.226-1.249-1.11-2-1l2-16c109.787-52.245 181.092-199.181 148-316-.735-3.177-1.567-5.338-2-7-.345-1.048-.626-1.945-1-3-.726-2.615-1.483-4.296-2-6-.319-.813-.42-1.591-1-3-.905-2.197-1.254-3.32-2-5-8.79-25.24-16.462-40.896-32-63-14.849-21.124-30.759-37.954-50-55-34.161-30.264-70.233-50.841-115-62l2-3c16.528 4.223 34.089 10.702 49.5 18 5.883 2.786 33.918 20.914 36 21 12.799.53 38.01-48.197 47.5-57.5-43.067-47.71 48.41-51.86 23-7-1.07 1.889-6.501 5.567-7 7-2.398 6.89-2.506 33.251-4 43-2.912 19.001-7.028 37.838-9 57 38.978 40.785 64.179 89.015 75 144.5m-85-258c6.016 19.041 40.032 9.847 32-12.5-.795-2.213-4.894-6.302-7-7.5-14.772-8.402-30.304 3.213-25 20m7 16c-11.252 9.792-20.996 39.268-36 53-.931.852-7.036 2.349-7 4.5l38.5 31.5c2.108-.454 10.725-38.603 10.5-41.5-.31-3.996-3.02 2.182-4-.5.156-.548-.155-1.449 0-2 3.004-10.72 5.809-21.561 8-32.5l3 1 1-13c-4.099-2.013-10.331-3.693-14-.5m-68 594c-13.86 9.895-16.675 19.72-37 26-12.564 3.882-29.853 5.846-42.5 2-12.645-3.846-12.969-17.568-26.5-1.5 15.591 13.992 36.581 21.891 57 22.5 23.036.687 47.871-11.249 53-36-5.191 25.363-28.817 40.062-54 39-19.382-.817-43.647-11.766-57.5-25-1.94.516-3.27 4.762-3.5 5-10.595 10.956-15.766 27.462-12 42 1.799 6.946 3.916 6.571 8 11 16.028 17.383 52.51 35.144 75 43 8.221 2.871 17.505 6.289 26 8 25.975 7.203 59.062 14.55 86 10 6.959-1.175 27.422-9.841 30-16.5 4.231-10.931-15.241-47.934-22-58-12.032-17.918-30.108-36.129-47-49.5-2.663-3.452-29.091-23.943-31.5-24-2.094-.472-1.365 1.903-1.5 2m-7 158c5.985 3.299 20.815 5.085 28 6 27.703 3.527 80.523 9.009 82-30.5-23.683 20.196-57.296 16.117-86 11.5-15.89-2.556-33.751-6.952-49-12-30.719-10.169-70.035-26.65-90.5-52l-2.5.5c2.035 2.39.583 6.185 1 9 5.318 35.869 85.996 61.699 117 67.5"/><path fill="#086697" d="M358 182c-.111.011.061 1.552-2 1-9.923-6.441-16.43-17.352-23-27-7.156-10.51-7.687-25.381-23-23-7.73 1.202-4.387 7.86-4 16 .691 14.548 4.387 26.309 7 40-2.443 3.467 1.614 5.302-3 7-1.785-15.159-4.299-30.315-6-45.5-.545-4.867 1.116-15.425 0-19-.709-2.27-11.764-8.999-13-17-4.493-29.077 42.765-27.671 39 1-.584 4.448-7.788 11.979-8 13-1.622 7.831 28.781 46.15 36 53.5m-62-63c11.658 26.497 49.916-5.802 24-20-14.972-8.202-31.371 3.246-24 20"/><path fill="#c7f4fc" d="M736 98c.812 3.767-3.653-.126-5 0-2.632.246-2.671-.577-5 1.5-2.175 1.94-8.573 13.097-13 17.5-.125.125-1.548.895-2 1-5.304-16.787 10.228-28.402 25-20"/><path fill="#d0f6fd" d="M320 99c-13.432-3.606-12.428 14.43-24 20-7.371-16.754 9.028-28.202 24-20"/><path fill="#5bd7f2" d="M320 99c25.916 14.198-12.342 46.497-24 20 11.572-5.57 10.568-23.606 24-20"/><path fill="#6ddcf4" d="M731 98c5.351 8.904-8.325 28.592-18 19 4.427-4.403 10.825-15.56 13-17.5 2.329-2.077 2.368-1.254 5-1.5"/><path fill="#4cd4f1" d="M736 98c2.106 1.198 6.205 5.287 7 7.5 8.032 22.347-25.984 31.541-32 12.5.452-.105 1.875-.875 2-1 9.675 9.592 23.351-10.096 18-19 1.347-.126 5.812 3.767 5 0"/><path fill="#b2dae4" d="M720 179c-7.054 5.11-10.445 14.326-20 16-3.06-1.963-6.862-2.826-8-7 2.227-.634 3.249-.615 5.5-2 6.022-3.704 19.214-38.333 21.5-46.5.241-.861.513-5.17-1-5.5 3.669-3.193 9.901-1.513 14 .5l-1 13-3-1c-2.191 10.939-4.996 21.78-8 32.5"/><path fill="#f5fbfc" d="M310 133c.542 13.8 7.73 40.651 17 51l-6 3c-6.352-10.215-8.994-22.964-12-34.5-.27-1.035-1.249-4.162-3-3.5-.387-8.14-3.73-14.798 4-16"/><path fill="#bbdde7" d="M333 156c-3.203.956-.546 9.967 0 11.5 3.179 8.93 9.647 15.789 16 22.5-2.24 1.792-4.753 3.263-7 5-3.728-5.433-10.084-5.511-15-11-9.27-10.349-16.458-37.2-17-51 15.313-2.381 15.844 12.49 23 23"/><path fill="#e5f6f9" d="M692 188c-1.289.367-10.552 1.6-10-1 15.004-13.732 24.748-43.208 36-53 1.513.33 1.241 4.639 1 5.5-2.286 8.167-15.478 42.796-21.5 46.5-2.251 1.385-3.273 1.366-5.5 2"/><path fill="#0a5984" d="m585 150-2 3c-25.17-6.274-51.006-9.457-77-9-3.64.064-7.372-.197-11 0-.332.018-.668-.02-1 0l2-3c29.9-1.124 60.034 1.598 89 9"/><path fill="#0776a3" d="m496 141-2 3c-75.503 4.541-150.475 41.355-199 99-30.97 29.438-58.366 87.385-67 129h-3c13.325-61.01 41.571-111.73 88-153.5.109-7.6-2.128-15.094-3-22.5 4.614-1.698.557-3.533 3-7 .576 3.018 1.458 5.939 2 9-2.332 2.164-2.734 3.507 1 3 .14.962-.109 2.028 0 3 .058.515-2.391 6.085 0 9.5 1.284 1.615 3.341-1.178 4-1.5 4.983-2.437 12.044-10.305 17-14 .892-.665 3.469-1.816 5-3 2.247-1.737 4.76-3.208 7-5 2.09-1.672 8.955-4.2 7-7 2.061.552 1.889-.989 2-1 7.223-.696 29.589-14.845 39.5-19 31.261-13.108 64.524-20.722 98.5-22"/><path fill="#d6eef2" d="M295 243c48.525-57.645 123.497-94.459 199-99 .332-.02.668.018 1 0 .516 4.232-1.04 2.536-3.5 3-72.113 13.595-144.24 46.323-196.5 96"/><path fill="#f4fbfc" d="M506 144c4.12 1.649 2.99 2.814 3 7-131.539 13.041-238.232 149.417-275 267.5-1.712 5.498-2.616 16.216-5 21-1.791 3.595-1.576-.224-3-.5-1.973-26.09-3.393-41.007 2-67 8.634-41.615 36.03-99.562 67-129 52.26-49.677 124.387-82.405 196.5-96 2.46-.464 4.016 1.232 3.5-3 3.628-.197 7.36.064 11 0"/><path fill="#c2eef5" d="M583 153c44.767 11.159 80.839 31.736 115 62l12.5 22c-53.021-46.826-127.666-93.32-201.5-86-.01-4.186 1.12-5.351-3-7 25.994-.457 51.83 2.726 77 9"/><path fill="#769ea9" d="M321 187c4.276 6.876 7.569 10.915 16 11-4.956 3.695-12.017 11.563-17 14l-4-8c-.109-.972.14-2.038 0-3-.113-.777-.721-1.423-1-3-.542-3.061-1.424-5.982-2-9-2.613-13.691-6.309-25.452-7-40 1.751-.662 2.73 2.465 3 3.5 3.006 11.536 5.648 24.285 12 34.5"/><path fill="url(#a)" d="M698 215c19.241 17.046 35.151 33.876 50 55-5.053-.189-5.305.393-4 4.5 3.17 9.978 28.937 42.592 36 58.5.58 1.664 1.508 3.465 2 5 .312.973.729 2.108 1 3 .597 1.524 1.326 4.1 2 6 .323 1.163.879 2.536 1 3 .706 2.146 1.375 4.794 2 7 7.108 30.711 7.301 59.13 3 88-7.874-63.385-34.349-124.125-69.5-177 3.722 17.868 9.562 35.186 11.5 53.5 8.124 76.772-10.012 167.09-56 230-33.518 45.851-78.482 89.463-131 112.5 7.867-34.192-30.681-54.898-57.5-36-20.028 14.113-17.587 45.466 4.5 56l-21.5 7c-1.508 2.867 3.288 2.83 4.5 3l-4 5c-28.511-3.141-57.984-11.194-84-23-82.057-37.238-146.275-123.001-160-212-1.458-9.452-1.31-15.879-2-25 1.424.276 1.209 4.095 3 .5 2.384-4.784 3.288-15.502 5-21C270.768 300.417 377.461 164.041 509 151c73.834-7.32 148.479 39.174 201.5 86zM375 563c174.173 142.152 417.759-41.785 328-240-26.456-58.423-76.542-103.552-139.5-120C346.604 146.336 198.331 418.811 375 563" style="fill:url(#a)"/>/&gt;<path fill="#dff3f6" d="M356 183c1.955 2.8-4.91 5.328-7 7-6.353-6.711-12.821-13.57-16-22.5-.546-1.533-3.203-10.544 0-11.5 6.57 9.648 13.077 20.559 23 27"/><path fill="#9bc2cd" d="M720 179c-.155.551.156 1.452 0 2-.787 2.757-5.186 19.497-6.5 20-5.494.351-9.315-3.316-13.5-6 9.555-1.674 12.946-10.89 20-16"/><path fill="#759da8" d="M682 187c-.552 2.6 8.711 1.367 10 1 1.138 4.174 4.94 5.037 8 7 4.185 2.684 8.006 6.351 13.5 6 1.314-.503 5.713-17.243 6.5-20 .98 2.682 3.69-3.496 4 .5.225 2.897-8.392 41.046-10.5 41.5L675 191.5c-.036-2.151 6.069-3.648 7-4.5"/><path fill="#c7e0e5" d="M327 184c4.916 5.489 11.272 5.567 15 11-1.531 1.184-4.108 2.335-5 3-8.431-.085-11.724-4.124-16-11z"/><path fill="#d5f0f5" d="M703 323c-6.787-2.779-2.092 9.432-1 14-30.765-81.176-111.826-136.193-199-135-82.616 1.13-157.738 57.394-186 134-25.387 68.813-11.815 144.088 38 198 4.795 6.407 12.074 14.812 18 20 .58 4.147 4.812 3.679 2 9-176.669-144.189-28.396-416.664 188.5-360 62.958 16.448 113.044 61.577 139.5 120"/><path fill="#52747b" d="M316 201c-3.734.507-3.332-.836-1-3 .279 1.577.887 2.223 1 3"/><path fill="#0d9bbf" d="m577 217-2 6c-26.608-9.118-46.912-12.656-75-9-1.566.204-1.779-.605-5 0 .743-2.526-3.735-1.182-4.5-1-72.984 17.353-127.936 47.471-158.5 120l-5.5 9-9.5-6c28.262-76.606 103.384-132.87 186-134l47.5 7c8.816 2.753 17.795 4.906 26.5 8"/><path fill="#07304f" d="M702 337c15.604 65.282 20.687 109.884-16 170.5-66.556 109.968-216.324 131.129-313 46.5-5.926-5.188-13.205-13.593-18-20 62.366 67.495 151.674 88.361 237 51 45.051-19.726 81.281-55.307 102-100 49.223-106.182-9.001-229.617-117-268-8.705-3.094-17.684-5.247-26.5-8l-47.5-7c87.174-1.193 168.235 53.824 199 135"/><path fill="#4e757a" d="M320 212c-.659.322-2.716 3.115-4 1.5-2.391-3.415.058-8.985 0-9.5z"/><path fill="#183a69" d="M495 214c-8.238 1.549-16.092 5.479-24 8-24.195 7.713-45.505 15.967-66 31-35.397 25.963-71.833 75.443-77 120-5.092 2.653-2.307 21.291-3 22.5-.661 1.153-3.34-.153-4 1-1.501 2.622 1.015 27.893 1 33-.009 2.893.696 3.933-3 3.5-5.242-36.375-1.218-66.261 13-100 30.564-72.529 85.516-102.647 158.5-120 .765-.182 5.243-1.526 4.5 1"/><path fill="url(#b)" d="M575 223c103.712 35.542 157.084 152.57 116 255-18.919 47.169-61.568 84.292-108 103-117.049 47.161-245.904-22.432-264-148 3.696.433 2.991-.607 3-3.5.015-5.107-2.501-30.378-1-33 .66-1.153 3.339.153 4-1 .693-1.209-2.092-19.847 3-22.5-1.149 9.906.393 56.602 5 63.5 7.117 10.657 19.844-4.594 24-11.5 22.096 114.125 154.078 170.336 248.5 98 122.501-93.847 31.969-284.25-115-268-7.071.782-12.991 3.595-19.5 6 6.111-6.918 15.509-15.341 24-19 8.203-3.535 12.753-4.546 22-4.5L500 214c28.088-3.656 48.392-.118 75 9" style="fill:url(#b)"/>/&gt;<path fill="#aecddd" d="m500 214 17 23.5c-9.247-.046-13.797.965-22 4.5-6.78-7.998-14.398-15.478-24-20 7.908-2.521 15.762-6.451 24-8 3.221-.605 3.434.204 5 0"/><path fill="#4bcdec" d="m694 485-2-.5c2.957-2.135 4.171-6.91-1-6.5 41.084-102.43-12.288-219.458-116-255l2-6c107.999 38.383 166.223 161.818 117 268"/><path fill="#67a4be" d="M471 222c9.602 4.522 17.22 12.002 24 20-8.491 3.659-17.889 12.082-24 19-.899 1.018-3.261 3.012-4 4l-18 4c4.949-16.009-26.103-24.821-35-15-2.669-.027-8.231 2.27-9 5h-2c.433-.891 1.09-4.572 2-6 20.495-15.033 41.805-23.287 66-31"/><path fill="#b6cfdf" d="M449 269c-1.56 5.046-22.998 20.342-27.5 20-5.476-.416-2.519-5.957-13 1-32.656 21.677-52.671 86.9-52.5 124-16.411-6.485-23.782-12.396-23-30.5 1.146-26.532 12.233-52.477 27-74 9.792-14.272 37.401-38.979 43-50.5h2c-.675 2.395 2.383 14.794 4.5 15 5.684-4.006 20.034-19.845 4.5-20 8.897-9.821 39.949-1.009 35 15"/><path fill="#4c819f" d="M403 259c-5.599 11.521-33.208 36.228-43 50.5-14.767 21.523-25.854 47.468-27 74-.782 18.104 6.589 24.015 23 30.5.003.661-.031 1.341 0 2 .148 3.14.399 5.895 1 9-4.156 6.906-16.883 22.157-24 11.5-4.607-6.898-6.149-53.594-5-63.5 5.167-44.557 41.603-94.037 77-120-.91 1.428-1.567 5.109-2 6"/><path fill="#e1eff4" d="M414 254c15.534.155 1.184 15.994-4.5 20-2.117-.206-5.175-12.605-4.5-15 .769-2.73 6.331-5.027 9-5"/><path fill="url(#c)" d="M357 425c-.601-3.105-.852-5.86-1-9 7.07 8.572 18.324-5.258 25-11 .388 128.711 177.647 173.334 241 60.5 61.609-109.728-61.659-224.879-169-172.5 3.243-9.283 8.127-20.15 14-28 .739-.988 3.101-2.982 4-4 6.509-2.405 12.429-5.218 19.5-6 146.969-16.25 237.501 174.153 115 268-94.422 72.336-226.404 16.125-248.5-98" style="fill:url(#c)"/>/&gt;<path fill="#97d9eb" d="M467 265c-5.873 7.85-10.757 18.717-14 28-1.076.525-2.613.798-3 1-19.713 10.277-32.283 25.249-46 42.5 4.928 5.243 8.464-6.067 14-4.5-3.39 12.748-2.854 22.562 1 35-12.913 12.353-24.421 26.32-38 38-6.676 5.742-17.93 19.572-25 11-.031-.659.003-1.339 0-2-.171-37.1 19.844-102.323 52.5-124 10.481-6.957 7.524-1.416 13-1 4.502.342 25.94-14.954 27.5-20z"/><path fill="#5d8895" d="M791 445c-13.442 90.225-65.336 179.418-150.5 218-41.681 18.883-119.426 37.334-164.5 31-1.212-.17-6.008-.133-4.5-3l21.5-7c18.646 8.894 47.819 2.52 53-20 52.518-23.037 97.482-66.649 131-112.5 45.988-62.91 64.124-153.228 56-230-1.938-18.314-7.778-35.632-11.5-53.5 35.151 52.875 61.626 113.615 69.5 177"/><path fill="#84b1ba" d="M748 270c15.538 22.104 23.21 37.76 32 63-7.063-15.908-32.83-48.522-36-58.5-1.305-4.107-1.053-4.689 4-4.5"/><path fill="url(#d)" d="M381 405c13.579-11.68 25.087-25.647 38-38 1.117 3.606 3.006 7.826 5 11l-3 9.5c-4.194-7.438-4.327 19.811-4 24 6.162 78.953 99.068 118.889 158.5 66.5 69.274-61.065 13.469-177.061-75.5-165-12.802-13.368-33.131-18.437-51-14l1-5c.387-.202 1.924-.475 3-1 107.341-52.379 230.609 62.772 169 172.5-63.353 112.834-240.612 68.211-241-60.5" style="fill:url(#d)"/>/&gt;<path fill="#b5ebf6" d="M449 299c-13.953 3.465-27.405 19.483-31 33-5.536-1.567-9.072 9.743-14 4.5 13.717-17.251 26.287-32.223 46-42.5z"/><path fill="#d2f4fc" d="M500 313c4.99 5.211 12.5 18.039 14 25 .068.318-.06.677 0 1-3.234 8.43-6.796-13.519-8-15.5-7.93-13.043-15.766-9.547-28.5-4.5-12.236 4.849-30.453 20.087-38.5 30.5-1.978 2.56-14.825 23.553-15 25-.035.29 1.772 4.984 2 5.5-.521-.074-1.798-1.678-2-2-1.994-3.174-3.883-7.394-5-11-3.854-12.438-4.39-22.252-1-35 3.595-13.517 17.047-29.535 31-33 17.869-4.437 38.198.632 51 14"/><path fill="url(#e)" d="M424 378c.202.322 1.479 1.926 2 2 2.862 6.467 11.842 12.941 18 16 8.158 7.265 6.997 19.739 11 29.5 5.76 14.046 26.495 29.49 40.5 34.5 6.32 2.261 13.045.636 18.5 5 8.089 16.058 41.421 10.776 38-12 2.433-2.11-.971-5.922 4-5 3.761 8.067 21.198 6.197 19-7.5-.157-.98-2.597-3.271-3-4.5-.853-2.601-3.008-3.27-3-3.5.033-.917 7.829-12.547 9-16 17.049-50.26-22.032-69.531-64-78.5-1.5-6.961-9.01-19.789-14-25 88.969-12.061 144.774 103.935 75.5 165-59.432 52.389-152.338 12.453-158.5-66.5-.327-4.189-.194-31.438 4-24z" style="fill:url(#e)"/>/&gt;<path fill="#b9d9e8" d="M514 339c8.094 43.893-28.785 77.476-70 57-6.158-3.059-15.138-9.533-18-16-.228-.516-2.035-5.21-2-5.5.175-1.447 13.022-22.44 15-25 8.047-10.413 26.264-25.651 38.5-30.5 12.734-5.047 20.57-8.543 28.5 4.5 1.204 1.981 4.766 23.93 8 15.5"/><path fill="#b9e0e7" d="M703 323c89.759 198.215-153.827 382.152-328 240 2.812-5.321-1.42-4.853-2-9 96.676 84.629 246.444 63.468 313-46.5 36.687-60.616 31.604-105.218 16-170.5-1.092-4.568-5.787-16.779 1-14"/><path fill="#107a9d" d="M332 333c-14.218 33.739-18.242 63.625-13 100 18.096 125.568 146.951 195.161 264 148 1.01 10.64 2.832 2.9 9 4-85.326 37.361-174.634 16.495-237-51-49.815-53.912-63.387-129.187-38-198l9.5 6z"/><path fill="#85b5bc" d="M782 338c-.492-1.535-1.42-3.336-2-5 .746 1.68 1.095 2.803 2 5"/><path fill="#0b2556" d="M572 436c-8.678-4.663-20.899 1.494-16 12-4.971-.922-1.567 2.89-4 5-3.722-24.781-50.715-13.239-38 12-5.455-4.364-12.18-2.739-18.5-5-14.005-5.01-34.74-20.454-40.5-34.5-4.003-9.761-2.842-22.235-11-29.5 41.215 20.476 78.094-13.107 70-57-.06-.323.068-.682 0-1 41.968 8.969 81.049 28.24 64 78.5-1.171 3.453-8.967 15.083-9 16-.008.23 2.147.899 3 3.5"/><path fill="#85b5bc" d="M783 341c-.271-.892-.688-2.027-1-3 .58 1.409.681 2.187 1 3m2 6c-.674-1.9-1.403-4.476-2-6 .517 1.704 1.274 3.385 2 6m1 3c-.121-.464-.677-1.837-1-3 .374 1.055.655 1.952 1 3m2 7c-.625-2.206-1.294-4.854-2-7 .433 1.662 1.265 3.823 2 7"/><path fill="#93c1c9" d="M640 673c-51.507 24.51-111.405 32.236-168 26l4-5c45.074 6.334 122.819-12.117 164.5-31 85.164-38.582 137.058-127.775 150.5-218 4.301-28.87 4.108-57.289-3-88 33.092 116.819-38.213 263.755-148 316"/><path fill="#05547d" d="M228 372c-5.393 25.993-3.973 40.91-2 67 .69 9.121.542 15.548 2 25l-2 2c-2.059-15.577-5.278-37.773-6-53-.673-14.192 1.622-22.089 4-35 .231-1.254-.252-2.757 0-4 .185-.914.799-1.08 1-2z"/><path fill="#a0edf9" d="M224 378c-11.318 3.297-11.298 20.84-14 30-4.852-16.027-5.617 23.306-13.5 0l-5.5 12c2.818-22.428 10.311-32.65 29-44 1.346-.818 2.582-1.389 4-2-.252 1.243.231 2.746 0 4"/><path fill="#082f46" d="M220 376c-18.689 11.35-26.182 21.572-29 44-.452 3.596-1.101 8.483-1 12 .109 3.79 1.259 7.346 2 11 5.052 24.896 18.927 33.171 38.5 47-.832-8.151-3.424-15.859-4.5-24l2-2c13.725 88.999 77.943 174.762 160 212-13.159-2.956-15.448.438-8 12-1.141-.276-2.395-2.278-3 0-5.522 5.069-9.766 13.607-4 20-5.022.334-1.599 3.186-2 6-1.551 10.883-2.998 9.653 5 19 7.347 8.587 18.399 13.806 29 17 7.766 2.34 9.803 2.283 17 3 11.145 1.111 36.307 4.741 39.5-12-1.066 1.455-2.943 1.094-4.5 1 3.821-6.377 6.039.03 7 1 8.828 8.909 19.786 14.016 26 25.5 5.018 9.273 6.569 18.127 7 28.5 2.094 50.408-36.495 66.982-78 82-56.971 20.614-195.66 49.104-144-61 12.824-27.332 50.194-64.004 74.5-82 3.025-2.24 18.078-9.524 18.5-10.5 1.407-3.257-.155-23.695 1-29 .709-3.257 6.874-9.403 7-10 .408-1.935-1.981-5.296-2-6-.069-2.599 2.271-4.923 2-6-.347-1.38-20.885-11.964-24.5-14.5-24.698-17.323-47.868-37.534-67-61-2.34-.247-9.537 8.576-12 9-1.888.325-2.136-3.807-9 0-3.241 1.798-7.594 8.877-11 11-3.85 2.4-10.454 3.589-15 6-11.039 5.855-15.627 18.223-20.5-8-1.278-6.879.096-17.372-1-24-1.883-11.391-11.934-29.876-21-37 11.143 5.282 21.348 20.247 23 32 1.992 14.169-3.412 31.264 8.5 43l14-10c2.759-3.097-4.288-8.027-4.5-8.5-3.962-8.852-7.762-19.082-12-26.5-2.863-5.011-26.033-41.406-28.5-42-2.051-.493-6.215 5.772-8.5 5 3.029-4.079 9.462-9.718 13.5-13 1.263-1.026 8.357-3.244 9-4 4.604-5.412-4.239-6.761 11.5-16l2 .5c-.557.783-2.258.191-2 1.5-5.421-.139-10.077 6.73-9 11.5.213.943 3.663 2.992 4 3.5 1.833 2.761 5.497 5.779 7 8 4.622 6.83 9.594 14.074 14 21 2.314 3.638 4.733 7.357 7 11 4.751 7.633 8.365 16.303 13 24 1.003 1.665 4.949 9.852 5.5 10 .517.139 5.153-5.067 9.5-1.5 2.402-2.366-11.546-25.478-14-29.5-1.129-1.85-1.465-2.783-3-5-1.251-1.807-2.203-7.53-5-9l-26-47c9.79-5.556 15.551-5.871 9-19.5-4.525-9.415-23.067-15.256-31-25-21.507-26.418-19.967-84.21 18-94.5m15.5 134-7.5 5.5c8.517 8.573 43.509 84.193 50.5 84.5 13.708.602-6.837-18.839-8.5-21.5-5.794-9.268-12.791-21.828-18-32-2.586-5.05-14.258-36.505-16.5-36.5M209 534c-4.943.991-8.655 5.125-12 8.5l9 11.5c2.006 4.889 8.214 9.589 11 14 2.419 3.83 4.658 8.089 7 12 7.722 12.897 14.997 26.666 21.5 40 2.817-1.221 13.601-9.693 13.5-12.5-.119-3.307-18.936-29.605-22-34.5-2.996-4.786-5.815-9.322-9-14-3.172-4.659-12.483-22.22-15-24.5-2.912-2.638-2.215-.858-4-.5m147 201c-29.982 18.59-76.096 69.105-85 103.5-.934 3.608-3.763 17.215-3 20 1.733 6.328 20.829 13.242 27 14.5 31.549 6.429 75.636-2.846 106-13 14.762-4.936 29.445-11.318 43-19 32.751-14.984 71.572-41.234 38-79-.604-.679-1.545-5.226-4.5-5-18.777 15.392-43.995 25.353-68.5 22 1.212-1.784 5.021-.979 7-1 22.231-.238 43.398-9.5 61-22.5-2.266-1.065-12.117-9.602-13.5-9.5-1.481.11-4.953 5.929-7 7-14.078 7.368-32.614 5.834-47.5 2-5.138-1.323-14.854-5.346-19.5-8-6.453-3.686-17.872-16.797-20.5-18-.122-.056.045-1.428-2.5-1-3.148 2.82-6.945 4.796-10.5 7m55 123c-41.451 15.075-104.27 31.828-143 4.5 4.054 50.403 92.22 29.349 124 20.5 34.975-9.739 98.736-29.439 103-71.5-1.033-4.491-10.99 8.515-13.5 10.5-18.609 14.72-48.092 27.851-70.5 36"/><path fill="#65e0f7" d="M798 376c24.14 7.557 32.388 30.417 32 54-1.837-.07-3.463-1.172-5-2 4.113.785 3.645-8.12 3-10.5-.331-1.219-1.992 1.366-2.5.5-4.753-8.098-3.809-2.624-9-6-3.419-2.223-.885-6.944-8.5-5-.713-2.352-.358-8.189-1-10.5-.277-.997-2.706-.001-3-1-.847-2.882 2.69-8.999-5-10.5-.692-4.873-2.377-5.805-3-9 .639.077 1.512-.153 2 0"/><path fill="#2bafcb" d="M224 378c-2.378 12.911-4.673 20.808-4 35-5.734 12.759-15.196 23.969-28 30-.741-3.654-1.891-7.21-2-11 16.941-2.005 16.179-11.046 20-24 2.702-9.16 2.682-26.703 14-30"/><path fill="#23a0bd" d="M808 407c3.923 12.941 4.52 14.276 17 21 1.537.828 3.163 1.93 5 2-.05 3.038-.516 8.033-1 11l-30-25c.294-10.81 1.558-20.022 0-31 7.69 1.501 4.153 7.618 5 10.5.294.999 2.723.003 3 1 .642 2.311.287 8.148 1 10.5"/><path fill="#4bd8f3" d="M210 408c-3.821 12.954-3.059 21.995-20 24-.101-3.517.548-8.404 1-12l5.5-12c7.883 23.306 8.648-16.027 13.5 0"/><path fill="#56d2ec" d="M825 428c-12.48-6.724-13.077-8.059-17-21 7.615-1.944 5.081 2.777 8.5 5 5.191 3.376 4.247-2.098 9 6 .508.866 2.169-1.719 2.5-.5.645 2.38 1.113 11.285-3 10.5"/><path fill="#01779f" d="M226 466c1.076 8.141 3.668 15.849 4.5 24-19.573-13.829-33.448-22.104-38.5-47 12.804-6.031 22.266-17.241 28-30 .722 15.227 3.941 37.423 6 53"/><path fill="#035f88" d="M829 441c-3.955 24.267-20.846 35.384-38.5 50 6.075-24.698 7.81-49.599 8.5-75z"/><path fill="#d8f2f9" d="M572 436c.403 1.229 2.843 3.52 3 4.5 2.198 13.697-15.239 15.567-19 7.5-4.899-10.506 7.322-16.663 16-12"/><path fill="#d8f2f8" d="M552 453c3.421 22.776-29.911 28.058-38 12-12.715-25.239 34.278-36.781 38-12"/><path fill="#1da7c9" d="M694 485c-20.719 44.693-56.949 80.274-102 100-6.168-1.1-7.99 6.64-9-4 46.432-18.708 89.081-55.831 108-103 5.171-.41 3.957 4.365 1 6.5z"/><path fill="#03314e" d="M803 619c4.639.1 5.548 6.137 9 9.5-1.606-23.454 2.58-43.023 17-61.5-2.032 4.51-4.879 8.51-7 13-4.279 9.06-9.794 22.963-7 33-4.38 21.768 12.948 40.995 27.5 55l2.5-1.5c-2.646-7.015.586-22.443 9-24-11.249 20.066-6.42 25.619 8 38.5 4.934 4.407 9.604 9.54 16 12-.135.949 2.053 1.729 0 2-2.33-1.706-5.481-3.155-8-5-7.917-5.8-15.588-12.408-24-17.5 2.245 12.717 11.027 23.183 23 27.5 1.6.577 2.783 1.661 5 2 3.948.604 7.555.79 11-1 17.902-3.521 34.524-18.106 38-36.5-13.146 11.683-27.973 9.113-43 2.5-1.333-.587-9.29-4.505-10-5-8.831-6.153-16.593-16.296-13-27.5 1.353-4.22 7.862-8.414 8-9 .409-1.743-7.424-3.776-6-13.5.845-5.773 8.712-11.467 10-14.5 3.053-7.189.954-17.007 4-25 4.629-12.148 22.835-11.441 20-29.5 2.185-4.424 4.327-12.098 5-17 4.923-14.444 6.456-32.695-14.5-30-15.007 1.93-16.962 25.11-18.5 37-.74 5.721 1.886 17.42-2 21 .278-15.499-3.499-57.016 17.5-61 41.585-7.89 17.529 46.476 11.5 65.5 27.551 1.308 52.413 10.155 48 43-.698 5.192-7.91 17.019-8 18-.457 4.984 5.915 13.828 3 26-1.789 7.472-8.932 12.371-11 17-.707 1.583-.582 9.079-2 12-14.143 29.129-56.079 46.486-74 11-2.258-4.472-2.92-13.133-4-15-.725-1.253-7.815-3.887-9.5-5.5-13.614-13.034-21.646-30.196-31.5-46m122-28c-12.11 5.545-27.489 3.427-40 7-5.417-7.214-17.632 2.089-21 7.5-10.253 16.473 2.73 16.326 15 20.5 9.424 3.206 18.941 6.669 29 6 12.005-.798 19.977-9.62 24-21 8.763-16.511 7.105-32.504-10-42-22.416-12.444-50.412-10.834-49 20.5zm-44 41c-8.961-2.508-18.479-9.974-21 6.5-2.003 13.092 10.411 17.709 21 22.5 6.079 2.75 13.14 6.714 20 7 21.228.886 38.624-24.605 31-44.5-9.642 21.28-33.318 13.449-51 8.5"/><path fill="#023350" d="M157 554c-1.229-.277-.94 2.594-2 2 .015-14.708 2.33-35.661-5-49-4.257-7.747-12.809-10.862-21.5-9-14.851 3.182-7.198 28.094-3.5 38 .41 2.45 1.514 5.986 3 8 .048 1.524.726 2.34 1 4 3.167 19.206 7.029 8.685 15 19.5 8.783 11.917.605 30.905 17 40.5.642 1.339.988 6.408 2 8-15.273 16.051-4.14 5.851 0 17.5 4.591 12.918-5.512 20.277-14 28.5-1.14 1.105-4.121 2.229-6 4-10.256 4.814-20.994 4.917-32 6-4.625-2.171-8.632-4.969-13-7.5 2.494 18.345 18.618 32.561 36 36.5 7.314 1.657 9.31 2.425 17 0 12.422-3.917 20.997-16.505 24-28.5-7.27 6.131-16.163 9.616-24 14.5 1.143-.672 4.705-4.805 5-5 18.373-12.171 20.23-18.61 10.5-40 5.026 1.178 6.44 7.671 8.5 11.5l1 17.5c-1.156 2.544-.844 9.542-4 15.5-18.541 35.007-60.848 16.686-74-13-1.195-2.698-.243-9.255-1-11-2.89-6.666-10.69-9.897-12-22-.894-8.257 3.393-16.796 3-21-.266-2.851-7.353-14.63-8-21-3.205-31.556 23.147-38.608 49-40-4.655-16.429-28.62-63.33 3.5-64.5 32.312-1.177 22.943 39.996 24.5 60m-56 14c-.788.372-1.213.563-2 1-24.55 13.645-18.341 46.877 3 59 2.277 1.293 3.686 3.552 7.5 4 3.285.386 5.018-.819 7.5-1 7.99-.582 32.627-6.056 39-10 6.192-3.832 4.506-8.25 1-14.5-5.453-9.721-19.081-13.265-29-9.5-11.037-1.81-18.912-1.165-30-5-.298-.103-.708.109-1 0 .052-1.485 1.885-1.059 3-1 15.523.823 31.029 1.993 46.5 0 3.393-30.507-22.145-34.028-45.5-23m18 99c8.209-.089 13.85-3.795 21-7 11.43-5.124 23.15-8.334 20-23.5-3.125-15.049-12.84-6.742-21-4.5-17.364 4.77-40.929 12.015-50-9.5-8.184 20.101 8.654 44.732 30 44.5"/><path fill="#dbf7f8" d="M898 526c.284-2.067.567-21.397 0-22.5-.662-1.289-5.775-4.401-7-4.5-1.241-.101-2.07.356-3 1-13.574-4.599-16.699 12.442-19 22-.834 3.463-1.167 10.664-4 11 1.538-11.89 3.493-35.07 18.5-37 20.956-2.695 19.423 15.556 14.5 30"/><path fill="#cbf2f6" d="M150 507c-3.671-2.807-8.681-6.6-13.5-7-10.038-.832-5.126 2.568-5.5 3-.512.593-1.499 1.404-2 2-1.692-8.944-6.063-.529-7 4-.703 3.394-.021 2.919 0 4 .145 7.485 1.772 15.659 3 23-3.698-9.906-11.351-34.818 3.5-38 8.691-1.862 17.243 1.253 21.5 9"/><path fill="#70ddf3" d="M888 500c-2.061 1.428-9.708 19.918-15 23-.332-.124-2.22 1.494-4-1 2.301-9.558 5.426-26.599 19-22"/><path fill="#abeaf8" d="M891 499c5.635 8.098 8.657 9.912 2 19.5-6.417 9.244-11.449 7.693-20 4.5 5.292-3.082 12.939-21.572 15-23 .93-.644 1.759-1.101 3-1"/><path fill="#5bd5ee" d="M898 526c-.673 4.902-2.815 12.576-5 17-.472.956-2.319 2.965-3 4 9.42-18.815-11.441-5.825-22.5-9-2.583 5.22-.639 11.518-1.5 16.5-.102.588-2.886 2.397-3 3-.703 3.715 1.484 7.514 1 10-1.067 5.482-26.195 19.376-33 15 15.102-3.386-3.233-3.347-9-2.5 2.121-4.49 4.968-8.49 7-13 7.276-9.323 22.431-28.481 32-13h2c3.886-3.58 1.26-15.279 2-21 2.833-.336 3.166-7.537 4-11 1.78 2.494 3.668.876 4 1 8.551 3.193 13.583 4.744 20-4.5 6.657-9.588 3.635-11.402-2-19.5 1.225.099 6.338 3.211 7 4.5.567 1.103.284 20.433 0 22.5"/><path fill="#30cae9" d="M150 507c7.33 13.339 5.015 34.292 5 49-4.113-2.303-.658-16.349-2.5-21l-25 2c-.353.181.459 5.68.5 7-1.486-2.014-2.59-5.55-3-8-1.228-7.341-2.855-15.515-3-23 5.079 7.705 9.679 12.236 19.5 11 5.066-.637 12.947-7.255 7-10-7.445-3.436-12.516 2.426-17.5-11 .374-.432-4.538-3.832 5.5-3 4.819.4 9.829 4.193 13.5 7"/><path fill="#36d6f1" d="M129 505c-2.011 2.394-3.397 4.356-7 4 .937-4.529 5.308-12.944 7-4"/><path fill="#85e3f7" d="M122 513c-.021-1.081-.703-.606 0-4 3.603.356 4.989-1.606 7-4 .501-.596 1.488-1.407 2-2 4.984 13.426 10.055 7.564 17.5 11 5.947 2.745-1.934 9.363-7 10-9.821 1.236-14.421-3.295-19.5-11"/><path fill="#1f4752" d="M235.5 510c2.242-.005 13.914 31.45 16.5 36.5 5.209 10.172 12.206 22.732 18 32 1.663 2.661 22.208 22.102 8.5 21.5-6.991-.307-41.983-75.927-50.5-84.5z"/><path fill="#204750" d="M778 539c-11.043 20.811-22.527 42.377-37 61-.755-.749-3.965-2.267-4-2.5-.267-1.783 17.286-24.996 20-30 9.87-18.199 17.553-38.091 26-57 16.123 3.667.328 14.876-4 23-.131.247-.01 3.635-1 5.5"/><path fill="#69949c" d="m224 515 26 47c-4.246-2.231-8.725-.587-13 0-4.406-6.926-9.378-14.17-14-21 14.789-3.114 6.937-7.406 3-15-1.672-3.224-4.463-5.278-5-8-.258-1.309 1.443-.717 2-1.5l-2-.5c1.828-1.073 2.679-.818 3-1"/><path fill="#5e8790" d="M797 517c1.381 1.565-1.479 4.585-3 7-5.263 8.355-11.465 13.536 2 18-4.172 6.387-8.98 12.57-13 19l-13 1c3.43-6.593 5.489-14.426 9-21 2.122-3.973 12.82-23.959 15.5-25 2.218-.862 2.37.966 2.5 1"/><path fill="#87acad" d="m805 531-11-7c1.521-2.415 4.381-5.435 3-7 5.207 1.373 9.215 8.82 8 14"/><path fill="#98b8b9" d="M221 518c.537 2.722 3.328 4.776 5 8l-10 7c-.337-.508-3.787-2.557-4-3.5-1.077-4.77 3.579-11.639 9-11.5"/><path fill="#769a9c" d="M805 531c-.082.351-3.129 4.567-4 6-.418.687-3.794 3.154-5 5-13.465-4.464-7.263-9.645-2-18z"/><path fill="#88abaf" d="M223 541c-1.503-2.221-5.167-5.239-7-8l10-7c3.937 7.594 11.789 11.886-3 15"/><path fill="#7ea7ae" d="m228 559-11 9c-2.786-4.411-8.994-9.111-11-14-.647-1.577-1.29-2.961-2-4.5 12.47-3.804 11.152-5.408 5-15.5 1.785-.358 1.088-2.138 4 .5 2.517 2.28 11.828 19.841 15 24.5"/><path fill="#9dbebf" d="M209 534c6.152 10.092 7.47 11.696-5 15.5.71 1.539 1.353 2.923 2 4.5l-9-11.5c3.345-3.375 7.057-7.509 12-8.5"/><path fill="#86aaad" d="M825 545c.183 1.164-1.001.929-1 1l-9 7c.105-.172 2.483-4.307.5-4-5.906 5.964-13.561 7.897-16.5-2 1.034-1.552 2.61-7.27 4-9 7.876-9.806 13.111 3.754 18.5 7 .589.355 2.932-.346 3.5 0"/><path fill="#19b8d8" d="M155 556c1.06.594.771-2.277 2-2 .104 1.332.988.93 1 1 .162.938-2.12 1.745-.5 3 1.534-1.035 2.14-2.851 3.5-4-.232 1.526.347 3.672 0 5-.129.495-.918 2.865-1 3-.111.183-2.676-.712-4 1.5-7.897 13.197 27.669 12.513 34.5 12.5 4.005-2.29 1.04-4.291 2.5-7 6.538 9.741 11.212 21.437 13 33 1.011 6.542.323 7.993 0 14-6.801 13.45-35.999 11.009-43 0-1.012-1.592-1.358-6.661-2-8-1.774-3.699-5.055-8.744-6-12.5-2.07-8.224-.698-23.207-5-30-3.458-5.46-17.582-9.564-21-17.5-.274-1.66-.952-2.476-1-4-.041-1.32-.853-6.819-.5-7l25-2c1.842 4.651-1.613 18.697 2.5 21"/><path fill="#1cb9d9" d="M890 547c-5.82 8.844-18.49 14.599-21 19.5-3.57 6.97-1.657 20.132-4 28-.639 2.144-6.432 12.678-8 15.5-1.367 2.46-.79 4.488-2 6.5-7.016 11.669-35.447 12.857-40-3.5-2.794-10.037 2.721-23.94 7-33 5.767-.847 24.102-.886 9 2.5 6.805 4.376 31.933-9.518 33-15 .484-2.486-1.703-6.285-1-10 .114-.603 2.898-2.412 3-3 .861-4.982-1.083-11.28 1.5-16.5 11.059 3.175 31.92-9.815 22.5 9"/><path fill="#0c2733" d="M803 538c-1.39 1.73-2.966 7.448-4 9-3.09 4.637-5.962 9.369-9 14-2.685 4.093-5.425 7.719-8 12-3.245 5.395-20.934 31.572-21 35.5-.071 4.197 9.611 7.788 11.5 11.5 8.902-12.467 14.583-26.99 22.5-40 2.259-3.712 4.6-7.384 7-11 3.644-5.489 9.921-10.978 13-16l9-7c.046 2.93-7.009 7.799-10 11.5-5.775 7.146-14.911 19.362-16 28.5-.175.241-2.257-.526-3 .5-7.161 9.88-9.761 25.188-18 34l18 10c-1.013-4.969 4.554-11.483 5-13 2.254-7.674.354-17.853 1-28 .038-.592 5.306-8.851 2-10.5 7.629-9.361 13.161-15.827 23-23-10.837 10.805-19.082 22.567-22 38-1.327 7.019-.247 16.19-2 24-.563 2.508-5.062 15.662-7.5 16-5.283-4.753-13.47-6.816-19-10-11.507-6.626-23.221-14.419-34.5-21-.792-1.469-1.146-1.525 0-3 14.473-18.623 25.957-40.189 37-61l1 2c-3.511 6.574-5.57 14.407-9 21-1.551 2.982-3.43 5.93-5 9-5.763 11.268-13.216 22.166-19 33.5 1.447.598 8.979 4.571 9.5 4.5 2.029-.275 16.679-31.416 19.5-36 2.466-4.006 5.463-7.942 8-12 4.02-6.43 8.828-12.613 13-19 1.206-1.846 4.582-4.313 5-5z"/><path fill="#0279a0" d="m859 612-2-2c1.568-2.822 7.361-13.356 8-15.5 2.343-7.868.43-21.03 4-28 2.51-4.901 15.18-10.656 21-19.5.681-1.035 2.528-3.044 3-4 2.835 18.059-15.371 17.352-20 29.5-3.046 7.993-.947 17.811-4 25-1.288 3.033-9.155 8.727-10 14.5"/><path fill="#588189" d="M224 586c-3.533-1.488-3.159.306-6 2-1.652-11.753-11.857-26.718-23-32-1.207-.948-7.841-5.012-9-5-.61-1.925.884-1.843 1-2 2.285.772 6.449-5.493 8.5-5 2.467.594 25.637 36.989 28.5 42"/><path fill="#5d8990" d="M835 550c-2.832 2.304-6.119 3.9-9 6-9.839 7.173-15.371 13.639-23 23-1.3 1.596-3.483 4.919-5 7 1.089-9.138 10.225-21.354 16-28.5 2.991-3.701 10.046-8.57 10-11.5-.001-.071 1.183.164 1-1 .243.148.749-.144 1 0 2.476 1.421 7.034 2.613 9 5"/><path fill="#02567d" d="M861 554c-9.569-15.481-24.724 3.677-32 13-14.42 18.477-18.606 38.046-17 61.5-3.452-3.363-4.361-9.4-9-9.5-.071-.002.163-1.183-1-1 1.753-7.81.673-16.981 2-24l20-29.5c3.832-3.369 7.959-8.592 12-11.5 8.245-5.933 20.788-13.695 25 1"/><path fill="#015b82" d="M183 552c13.39 8.615 24.318 28.068 33 41 1.096 6.628-.278 17.121 1 24-1.155-.176-.936.969-1 1-4.14 1.998-4.181 6.021-8 7.5.08-7.21 3.635-17.723-2-23.5-1.788-11.563-6.462-23.259-13-33-2.852-4.249-16.073-19.187-20.5-20-6.107-1.122-7.388 1.525-11.5 5-1.36 1.149-1.966 2.965-3.5 4-1.62-1.255.662-2.062.5-3 7.751-11.222 14.775-9.579 25-3"/><path fill="#6d969c" d="M815 553c-3.079 5.022-9.356 10.511-13 16l-12-8c3.038-4.631 5.91-9.363 9-14 2.939 9.897 10.594 7.964 16.5 2 1.983-.307-.395 3.828-.5 4"/><path fill="#0380a7" d="M161 608c-16.395-9.595-8.217-28.583-17-40.5-7.971-10.815-11.833-.294-15-19.5 3.418 7.936 17.542 12.04 21 17.5 4.302 6.793 2.93 21.776 5 30 .945 3.756 4.226 8.801 6 12.5"/><path fill="#66daf1" d="M193 569c-1.46 2.709 1.505 4.71-2.5 7-6.831.013-42.397.697-34.5-12.5 1.324-2.212 3.889-1.317 4-1.5 3.579 7.858 16.596 6.711 21 .5-6.275-4.817-12.749-9.117-20-3.5.347-1.328-.232-3.474 0-5 4.112-3.475 5.393-6.122 11.5-5 4.427.813 17.648 15.751 20.5 20"/><path fill="#0f90b8" d="M836 553c-4.041 2.908-8.168 8.131-12 11.5L804 594c2.918-15.433 11.163-27.195 22-38 2.881-2.1 6.168-3.696 9-6 1.895 2.3.64 1.551-1 2.5z"/><path fill="#068bb2" d="M195 556c9.066 7.124 19.117 25.609 21 37-8.682-12.932-19.61-32.385-33-41 2.26.817 2.842-.998 3-1 1.159-.012 7.793 4.052 9 5"/><path fill="#88e1f5" d="M160 562c.082-.135.871-2.505 1-3 7.251-5.617 13.725-1.317 20 3.5-4.404 6.211-17.421 7.358-21-.5"/><path fill="#618d96" d="m237 573-13 7c-2.342-3.911-4.581-8.17-7-12l11-9c3.185 4.678 6.004 9.214 9 14"/><path fill="#54808b" d="M250 562c2.797 1.47 3.749 7.193 5 9l-11 2c-2.267-3.643-4.686-7.362-7-11 4.275-.587 8.754-2.231 13 0"/><path fill="#517b85" d="M783 561c-2.537 4.058-5.534 7.994-8 12l-10-2c1.57-3.07 3.449-6.018 5-9z"/><path fill="#527c86" d="M802 569a332 332 0 0 0-7 11l-13-7c2.575-4.281 5.315-7.907 8-12z"/><path fill="#0088b0" d="M922 569c4 5.147 11.18 9.291 11 16.5-2.147 2.757-4.935 4.096-8 5.5l-52-1.5c-1.412-31.334 26.584-32.944 49-20.5"/><path fill="#07a6ca" d="m100 591 1-23c23.355-11.028 48.893-7.507 45.5 23-15.471 1.993-30.977.823-46.5 0"/><path fill="#1ab8d9" d="m101 568-1 23c-1.115-.059-2.948-.485-3 1-3.957-1.483-7.546-3.036-11-5.5 2.42-7.346 7.524-12.291 13-17.5.787-.437 1.212-.628 2-1"/><path fill="#96e7f7" d="M99 569c-5.476 5.209-10.58 10.154-13 17.5 3.454 2.464 7.043 4.017 11 5.5.292.109.702-.103 1 0-.386 1.808-.87 3.065-1 5-.75 11.195 1.314 20.468 5 31-21.341-12.123-27.55-45.355-3-59"/><path fill="#4ccee6" d="M932 611c9.959-28.167-9.998-11.388-23.5-5-1.135.125-18.538-10.074-14.5-1-4.271-3.768-10.537-5.497-16-3-1.023-2.729 5.583-3.595 7-4 12.511-3.573 27.89-1.455 40-7 3.065-1.404 5.853-2.743 8-5.5.18-7.209-7-11.353-11-16.5 17.105 9.496 18.763 25.489 10 42"/><path fill="#386572" d="M258 576c-2.487 6.572 4.669 15.013-1 21-4.635-7.697-8.249-16.367-13-24l11-2c1.535 2.217 1.871 3.15 3 5"/><path fill="#2f5863" d="M775 573c-2.821 4.584-17.471 35.725-19.5 36-.521.071-8.053-3.902-9.5-4.5 5.784-11.334 13.237-22.232 19-33.5z"/><path fill="#396570" d="m224 580 13-7c3.064 4.895 21.881 31.193 22 34.5.101 2.807-10.683 11.279-13.5 12.5-6.503-13.334-13.778-27.103-21.5-40"/><path fill="#36606b" d="M795 580c-7.917 13.01-13.598 27.533-22.5 40-1.889-3.712-11.571-7.303-11.5-11.5.066-3.928 17.755-30.105 21-35.5z"/><path fill="#2c5661" d="M257 597c5.669-5.987-1.487-14.428 1-21 2.454 4.022 16.402 27.134 14 29.5-4.347-3.567-8.983 1.639-9.5 1.5-.551-.148-4.497-8.335-5.5-10"/><path fill="#254b55" d="M798 586c1.517-2.081 3.7-5.404 5-7 3.306 1.649-1.962 9.908-2 10.5-.646 10.147 1.254 20.326-1 28-.446 1.517-6.013 8.031-5 13l-18-10c8.239-8.812 10.839-24.12 18-34 .743-1.026 2.825-.259 3-.5"/><path fill="#264e59" d="M224 586c4.238 7.418 8.038 17.648 12 26.5.212.473 7.259 5.403 4.5 8.5l-14 10c-11.912-11.736-6.508-28.831-8.5-43 2.841-1.694 2.467-3.488 6-2"/><path fill="#d8f0f5" d="M128 597c2.05.336 19.717 2.73 19 5.5-.258.997-2.739.242-3 .5-2.03-2.348-6.129-2.543-9-3-12.577-2-25.466-.087-38-3 .13-1.935.614-3.192 1-5 11.088 3.835 18.963 3.19 30 5"/><path fill="#2cb9d6" d="M932 611c-4.023 11.38-11.995 20.202-24 21l-1-12.5c-5.533-2.572-3.307 2.839-4.5 3.5-.89.493-4.262-14.26-8.5-18-4.038-9.074 13.365 1.125 14.5 1 13.502-6.388 33.459-23.167 23.5 5"/><path fill="#0e7b9d" d="m156 621-16 2.5c2.081-6.569-.091-16.442 4-20.5.261-.258 2.742.497 3-.5.717-2.77-16.95-5.164-19-5.5 9.919-3.765 23.547-.221 29 9.5 3.506 6.25 5.192 10.668-1 14.5"/><path fill="#0c6b90" d="M885 598c-1.417.405-8.023 1.271-7 4l1 24c-12.27-4.174-25.253-4.027-15-20.5 3.368-5.411 15.583-14.714 21-7.5"/><path fill="#2ab8d5" d="M135 600c-13.612 7.831-17.332 15.268-18 31-2.482.181-4.215 1.386-7.5 1-3.814-.448-5.223-2.707-7.5-4-3.686-10.532-5.75-19.805-5-31 12.534 2.913 25.423 1 38 3"/><path fill="#1f96b4" d="M144 603c-4.091 4.058-1.919 13.931-4 20.5l16-2.5c-6.373 3.944-31.01 9.418-39 10 .668-15.732 4.388-23.169 18-31 2.871.457 6.97.652 9 3"/><path fill="#1e7e9f" d="M894 605c4.238 3.74 7.61 18.493 8.5 18 1.193-.661-1.033-6.072 4.5-3.5l1 12.5c-10.059.669-19.576-2.794-29-6l-1-24c5.463-2.497 11.729-.768 16 3"/><path fill="#023351" d="M216 618c-7.829 18.513-19.409 41.792-38 51 11.015-21.522 26.126-18.135 28-53 .323-6.007 1.011-7.458 0-14 5.635 5.777 2.08 16.29 2 23.5 3.819-1.479 3.86-5.502 8-7.5"/><path fill="#025b83" d="M859 612c-1.424 9.724 6.409 11.757 6 13.5-.138.586-6.647 4.78-8 9-3.593 11.204 4.169 21.347 13 27.5-6.019 3.891-7.637 12.353-8 19-14.42-12.881-19.249-18.434-8-38.5-8.414 1.557-11.646 16.985-9 24l-2.5 1.5c-14.552-14.005-31.88-33.232-27.5-55 4.553 16.357 32.984 15.169 40 3.5 1.21-2.012.633-4.04 2-6.5z"/><path fill="#01648b" d="M206 616c-1.874 34.865-16.985 31.478-28 53-.837 1.635-1.942 1.871-2 2l-1-17.5c-2.06-3.829-3.474-10.322-8.5-11.5 9.73 21.39 7.873 27.829-10.5 40-1.724-5.761-.873-17.604-7-20 8.488-8.223 18.591-15.582 14-28.5-4.14-11.649-15.273-1.449 0-17.5 7.001 11.009 36.199 13.45 43 0"/><path fill="#b6e1e8" d="M546 664c-5.181 22.52-34.354 28.894-53 20-22.087-10.534-24.528-41.887-4.5-56 26.819-18.898 65.367 1.808 57.5 36m-42.5-39c-31.477 5.441-31.347 54.499 0 60 52.319 9.182 52.648-69.101 0-60"/><path fill="#2cc2e1" d="M139 632v2c-13.088 4.595-22.643 18.678-20 33-21.346.232-38.184-24.399-30-44.5 9.071 21.515 32.636 14.27 50 9.5"/><path fill="#2ec1df" d="M901 668c.999-9.023 4.431-23.439-5.5-28-2.427-1.115-2.843 2.088-3 2-3.217-1.811-6.09-8.023-11.5-8 .116-.624-.055-1.354 0-2 17.682 4.949 41.358 12.78 51-8.5 7.624 19.895-9.772 45.386-31 44.5"/><path fill="#032c43" d="M503.5 625c52.648-9.101 52.319 69.182 0 60-31.347-5.501-31.477-54.559 0-60m3 5c-27.33 3.122-29.871 44.414-2 49 44.139 7.263 45.248-53.941 2-49"/><path fill="#036288" d="M140 660c-.762-8.675-1-17.279-1-26v-2c8.16-2.242 17.875-10.549 21 4.5 3.15 15.166-8.57 18.376-20 23.5"/><path fill="#035c84" d="M881 632c-.055.646.116 1.376 0 2-1.719 9.206-.988 17.834 0 27-10.589-4.791-23.003-9.408-21-22.5 2.521-16.474 12.039-9.008 21-6.5"/><path fill="#369db3" d="M506.5 630c43.248-4.941 42.139 56.263-2 49-27.871-4.586-25.33-45.878 2-49m15 5c24.834 24.494-21.322 43.81-29 14 1.265 27.26 39.077 24.135 39-3l3.5 7.5c.029-8.198-6.506-15.117-13.5-18.5m-25 2c-2.056 2.583-6.866 5.058-6 9 .521-2.762 7.599-6.216 6-9m7 2c-3.69 1.104-6.934 14.003 2 13 9.245-1.038 6.483-15.539-2-13m-15 10c-9.02 32.862 45.281 39.657 46 7-6.008 29.362-49.055 23.729-46-7"/><path fill="#2389a7" d="M139 634c0 8.721.238 17.325 1 26-7.15 3.205-12.791 6.911-21 7-2.643-14.322 6.912-28.405 20-33"/><path fill="#268fae" d="M901 668c-6.86-.286-13.921-4.25-20-7-.988-9.166-1.719-17.794 0-27 5.41-.023 8.283 6.189 11.5 8 .157.088.573-3.115 3-2 9.931 4.561 6.499 18.977 5.5 28"/><path fill="#003856" d="M521.5 635c6.994 3.383 13.529 10.302 13.5 18.5l-3.5-7.5c.077 27.135-37.735 30.26-39 3 7.678 29.81 53.834 10.494 29-14"/><path fill="#075a7e" d="M496.5 637c1.599 2.784-5.479 6.238-6 9-.866-3.942 3.944-6.417 6-9"/><path fill="#86e5f7" d="M503.5 639c8.483-2.539 11.245 11.962 2 13-8.934 1.003-5.69-11.896-2-13"/><path fill="#0a3a52" d="M488.5 649c-3.055 30.729 39.992 36.362 46 7-.719 32.657-55.02 25.862-46-7"/><path fill="#1b7695" d="M156 682c-.295.195-3.857 4.328-5 5-1.044.651-2.102 1.456-3 2-1.158.701-.94.963-1 1-1.188.691-4.341.795-5 1l-1-22c.425-.414 1.802-2.813 2-3 1.879-1.771 4.86-2.895 6-4 6.127 2.396 5.276 14.239 7 20"/><path fill="#1e7797" d="m880 667 2 5c-.951-.284-4.589-2.188-5-1.5 1.28 8.02 2.167 14.27 1 22.5-6.396-2.46-11.066-7.593-16-12 .363-6.647 1.981-15.109 8-19 .71.495 8.667 4.413 10 5"/><path fill="#34cdea" d="M111 672c6.023 2.828 13.177.579 10 9.5-.511 1.436-3.582 1.605-4 3-1.044 3.485 6.612 11.947 9.5 12.5 2.583.495 7.916-3.659 10.5-1-3.286 2.09-4.963-.467-3 5-17.382-3.939-33.506-18.155-36-36.5 4.368 2.531 8.375 5.329 13 7.5"/><path fill="#2fc5e3" d="M885 701c5.001-2.599 3.459-1.858 1.5-5l8.5-.5c-6.946-.067 3.411-14.771 3-17-5.448-1.482-10.81-4.948-16-6.5l-2-5c15.027 6.613 29.854 9.183 43-2.5-3.476 18.394-20.098 32.979-38 36.5"/><path fill="#2abddb" d="M143 666c-.198.187-1.575 2.586-2 3-9.23 8.993-14.655 6.584-6.5 24 3.773 1.268 5.374-1.338 7.5-2 .659-.205 3.812-.309 5-1-3.284 2.006-6.794 3.961-10 6-2.584-2.659-7.917 1.495-10.5 1-2.888-.553-10.544-9.015-9.5-12.5.418-1.395 3.489-1.564 4-3 3.177-8.921-3.977-6.672-10-9.5 11.006-1.083 21.744-1.186 32-6"/><path fill="#27a1be" d="m141 669 1 22c-2.126.662-3.727 3.268-7.5 2-8.155-17.416-2.73-15.007 6.5-24"/><path fill="#28acca" d="M882 672c5.19 1.552 10.552 5.018 16 6.5.411 2.229-9.946 16.933-3 17l-8.5.5c1.959 3.142 3.501 2.401-1.5 5-3.445 1.79-7.052 1.604-11 1l10-2.5c.166-.446-5.18-3.9-6-4.5 2.053-.271-.135-1.051 0-2 1.167-8.23.28-14.48-1-22.5.411-.688 4.049 1.216 5 1.5"/><path fill="#106689" d="M151 701c-2.291-3.71 1.031-11.669-3-12 .898-.544 1.956-1.349 3-2 7.837-4.884 16.73-8.369 24-14.5-3.003 11.995-11.578 24.583-24 28.5"/><path fill="#0c5f83" d="m870 690-1 10c-11.973-4.317-20.755-14.783-23-27.5 8.412 5.092 16.083 11.7 24 17.5"/><path fill="#112a33" d="M638 689c-4.024.587-13.627 7.278-18.5 9-19.36 6.842-41.517 13.023-62 15-4.895.473-21.187-1.47-23-1-5.093 1.319 1.338 11.406 5.5 13-3.273 1.094 3.925 5.676 5 6-3.275-.267-1.14 1.318 0 3-9.954-2.252-16.063-26.786-22.5-29-1.324-.455-26.691-.498-28 0-1.176.448-2.016 4.763-7.5 7-.793.323-1.196.787-2 1-6.347 1.681-14.587.167-21 0-8.6-.224-17.583-.513-26-2-8.477-1.498-20.423-4.93-28.5-8-8.226-3.127-23.089-13.447-29.5-15-7.448-11.562-5.159-14.956 8-12 26.016 11.806 55.489 19.859 84 23 56.595 6.236 116.493-1.49 168-26z"/><path fill="#4b6a6c" d="M380 688c6.411 1.553 21.274 11.873 29.5 15 8.077 3.07 20.023 6.502 28.5 8-1.419 4.235-5.407 8.276-3.5 13 7.41-.035 15.183 1.824 22.5 2l-3 6c-7.377.253-14.692-.049-22-1 5.271-10.755-10.78-9.406-19-12-23.367-7.374-10.015-5.444-13-15.5-.336-1.13-17.292-10.757-20-12.5-1.429-.92-3.489-.726-3-3 .605-2.278 1.859-.276 3 0"/><path fill="#8fadaa" d="M380 691c-4.281 2.349 1.208 10.281 3 12.5 4.993 6.182 17.887 8.316 12 15.5-5.15-2.303-18.47-7.086-22-11-5.766-6.393-1.522-14.931 4-20-.489 2.274 1.571 2.08 3 3"/><path fill="#248eab" d="M151 701c-7.69 2.425-9.686 1.657-17 0-1.963-5.467-.286-2.91 3-5 3.206-2.039 6.716-3.994 10-6 .06-.037-.158-.299 1-1 4.031.331.709 8.29 3 12"/><path fill="#244147" d="M638 689c.751-.11.957.774 2 1-7.718 10.581-18.004 5.781-19 22-.02.329-.006.67 0 1-11.232 5.223-22.951 6.922-35 9-2.103.363-7.212 2.634-10.5 3-6.531.726-30.334 1.979-35.5 0-4.162-1.594-10.593-11.681-5.5-13 1.813-.47 18.105 1.473 23 1 20.483-1.977 42.64-8.158 62-15 4.873-1.722 14.476-8.413 18.5-9"/><path fill="#4c6d73" d="M645 695c-1.653 9.481-15.519 16.713-24 17 .996-16.219 11.282-11.419 19-22 .796.173 1.373-1.069 1.5-1 3.385 1.848 2.718 4.407 3.5 6"/><path fill="#2285a3" d="M878 695c.82.6 6.166 4.054 6 4.5l-10 2.5c-2.217-.339-3.4-1.423-5-2l1-10c2.519 1.845 5.67 3.294 8 5"/><path fill="#759596" d="m413 719-3 6c-6.425-2.002-9.104-3.364-15-6 5.887-7.184-7.007-9.318-12-15.5-1.792-2.219-7.281-10.151-3-12.5 2.708 1.743 19.664 11.37 20 12.5 2.985 10.056-10.367 8.126 13 15.5"/><path fill="#688886" d="M645 709c-.849.89-19.368 9.897-22 11-1.038-2.221-1.954-4.482-2-7-.006-.33-.02-.671 0-1 8.481-.287 22.347-7.519 24-17 2.544 5.184 4.961 8.795 0 14"/><path fill="#1b2525" d="M373 708c3.53 3.914 16.85 8.697 22 11 5.896 2.636 8.575 3.998 15 6 7.498 2.336 13.937 4.951 22 6 7.308.951 14.623 1.253 22 1 5.727-.197 22.859-.235 23-7 .106-.025-.391-1.628.5-2 1.672-.697 2.685 1.289 3.5.5.404-.391 3.286-9.191 4-10.5.804-.213 1.207-.677 2-1-1.31 12.854-12.849 23.722-23 31-.961-.97-3.179-7.377-7-1-11.008-.665-17.959-.789-29-3-6.937-1.389-13.365-3.68-20-6-7.845-2.744-18.902-6.949-26-11-3.354-1.914-7.537-5.89-11-8 .401-2.814-3.022-5.666 2-6"/><path fill="#1c2525" d="M645 709c4.626.393.73 5.31 0 8-2.585.704-11.356 7.353-15 9-3.218 1.454-8.08 3.848-11 5-6.229 2.457-14.536 5.528-21 7-4.905 1.117-11.073 2.524-16 3-9.178.887-18.879-1.396-28 1-3.332-2.864-6.33-4.06-9-8-1.14-1.682-3.275-3.267 0-3 10.711 3.232 38.628.327 50-2 8.584-1.756 19.864-5.59 28-9 2.632-1.103 21.151-10.11 22-11"/><path fill="#2f4d52" d="m464 713-5 10.5 10 1.5c-3.472.375-8.664 1.08-12 1-7.317-.176-15.09-2.035-22.5-2-1.907-4.724 2.081-8.765 3.5-13 8.417 1.487 17.4 1.776 26 2"/><path fill="#233e44" d="M485 713c-.714 1.309-3.596 10.109-4 10.5-.815.789-1.828-1.197-3.5-.5-.891.372-.394 1.975-.5 2-2.052.494-5.584-.261-8 0l-10-1.5 5-10.5c6.413.167 14.653 1.681 21 0"/><path fill="#4a6c6e" d="M623 720c-8.136 3.41-19.416 7.244-28 9-3.91-1.65-9.121-.719-9-7 12.049-2.078 23.768-3.777 35-9 .046 2.518.962 4.779 2 7"/><path fill="#93b3b1" d="m382 722-6 11c-7.998-9.347-6.551-8.117-5-19 3.463 2.11 7.646 6.086 11 8"/><path fill="#5d8080" d="m634 740-4-14c3.644-1.647 12.415-8.296 15-9 1.224-.333 2.427-1.997 4-.5 2.045 11.798-6.632 17.607-15 23.5"/><path fill="#648584" d="M432 731c-8.063-1.049-14.502-3.664-22-6l3-6c8.22 2.594 24.271 1.245 19 12"/><path fill="#7a9b9b" d="m408 733-3 17c-10.601-3.194-21.653-8.413-29-17l6-11c7.098 4.051 18.155 8.256 26 11"/><path fill="#426365" d="M595 729c-11.372 2.327-39.289 5.232-50 2-1.075-.324-8.273-4.906-5-6 5.166 1.979 28.969.726 35.5 0 3.288-.366 8.397-2.637 10.5-3-.121 6.281 5.09 5.35 9 7"/><path fill="#38585b" d="M469 725c2.416-.261 5.948.494 8 0-.141 6.765-17.273 6.803-23 7l3-6c3.336.08 8.528-.625 12-1"/><path fill="#4e7073" d="m630 726 4 14c-4.756 3.349-7.63 4.875-13 7l-2-16c2.92-1.152 7.782-3.546 11-5"/><path fill="#c7e5eb" d="M683 750c3.293 4.268 5.895 5.764 4 11-6.633-6.041-14.482-11.362-21.5-17-9.525 18.542-29.148 38.703-51 41-4.303.452-17.257 2.067-14.5-5 25.183 1.062 48.809-13.637 54-39 .962-4.641 2.203-10.935-4-13 .135-.097-.594-2.472 1.5-2 2.409.057 28.837 20.548 31.5 24"/><path fill="#dcf0f3" d="M369 729c-9.71 24.538 17.449 46.914 40 50 24.505 3.353 49.723-6.608 68.5-22 2.955-.226 3.896 4.321 4.5 5-5.206 1.718-8.971 6.844-13 10-45.997 36.027-81.916 56.758-133 84l-1-2c15.11-6.449 48.072-28.226 63.5-38 19.837-12.567 38.501-27.145 58.5-39.5-.171-3.545-18.744 6.09-20.5 6.5-35.887 8.383-66.008-4.926-79.5-40-.957-2.489-1.958-2.338-2-2.5-.306-1.191 2.66-3.929 1-5.5 3.555-2.204 7.352-4.18 10.5-7 2.545-.428 2.378.944 2.5 1"/><path fill="#0080a8" d="M654 741c-5.129 24.751-29.964 36.687-53 36 .709-9.207 8.455-15.02 12-23 20.325-6.28 23.14-16.105 37-26 6.203 2.065 4.962 8.359 4 13"/><path fill="#0085ad" d="m409 755 7 23c-1.979.021-5.788-.784-7 1-22.551-3.086-49.71-25.462-40-50 2.628 1.203 14.047 14.314 20.5 18 4.646 2.654 14.362 6.677 19.5 8"/><path fill="#35575c" d="m619 731 2 16c-.7.277-1.33-1.06-1.5-1-1.032.366-7.073 4.744-8 5-.445.123-7.922-1.941-8 2l-2.5-1.5-2-9.5c-.134-1.049-1.673-2.129-1-4 6.464-1.472 14.771-4.543 21-7"/><path fill="#547476" d="m428 739-6 14c-7.197-.717-9.234-.66-17-3l3-17c6.635 2.32 13.063 4.611 20 6"/><path fill="#e8f6f8" d="M357 743c-2.531-1.477-6.7 2.52-8.5 4-19.586 16.1-89.293 83.346-52 107 11.9 7.548 26.226 5.238 38.5 0l1 2c-.63.336-1.375.658-2 1-2.398 1.312-6.661 2.72-8.5 4-1.068.744 5.38 1.466-4.5 5-8.149 2.915-16.663 2.428-24.5 4-2.584.518.211 1.036-1.5 3-6.171-1.258-25.267-8.172-27-14.5-.763-2.785 2.066-16.392 3-20 8.904-34.395 55.018-84.91 85-103.5 1.66 1.571-1.306 4.309-1 5.5.042.162 1.043.011 2 2.5"/><path fill="#2c4b51" d="M598 738c-.673 1.871.866 2.951 1 4 .224 1.746 1.352 11.436.5 12-6.371.681-12.312-.65-18.5-1l1-12c4.927-.476 11.095-1.883 16-3"/><path fill="#355355" d="M457 742c1.557.094 3.434.455 4.5-1-3.193 16.741-28.355 13.111-39.5 12l6-14c11.041 2.211 17.992 2.335 29 3"/><path fill="#3d5c5d" d="m582 741-1 12c-1.498-.085-.335 2.265-2.5 2-11.735-1.435-15.081-5.25-23.5-12-.676-.542-.909-.922-1-1 9.121-2.396 18.822-.113 28-1"/><path fill="#c0e4ee" d="M357 743c13.492 35.074 43.613 48.383 79.5 40 1.756-.41 20.329-10.045 20.5-6.5-19.999 12.355-38.663 26.933-58.5 39.5-15.428 9.774-48.39 31.551-63.5 38-12.274 5.238-26.6 7.548-38.5 0-37.293-23.654 32.414-90.9 52-107 1.8-1.48 5.969-5.477 8.5-4m-11.5 21c-7.294 1.872-4.406 21.903-1 27 8.986-1.749 8.663-28.967 1-27m-15 16c-1.411 5.615-19.446 34.108-19.5 36.5-.188 8.383 13.251-.102 15-4 1.572-3.503.057-9.328.5-9.5.33-.128 4.533 1.739 7 1 13.866-4.153 6.351-19.109-3-24"/><path fill="url(#f)" d="M687 761c24.847 22.627 73.822 80.568 22 101.5-.047 3.401 15.745 5.123 13 11.5-26.938 4.55-60.025-2.797-86-10 8.926 1.797 54.305 6.802 60.5 5 6.552-1.906-.372-3.269-1.5-4-.68-5.25-7.059-6.25-11-8-21.909-12.694-45.066-23.339-66.5-37-24.791-15.801-47.436-34.899-70.5-53-2.518-2.558-5.071-4.93-8-7 .23-.238 1.56-4.484 3.5-5 13.853 13.234 38.118 24.183 57.5 25-2.757 7.067 10.197 5.452 14.5 5 21.852-2.297 41.475-22.458 51-41 7.018 5.638 14.867 10.959 21.5 17m-16.5 4c-6.216 8.16-3.677 20.844 4 27 3.174-10.618 5.742-18.96-4-27m16 16c-.839.219-9.584 13.312-9.5 14.5.327 4.638 11.425 9.069 15 5 .72-3.004-.467-20.812-5.5-19.5m13 14c-7.775 6.428-6.34 15.843 1 22 18.042 15.135 2.19-16.096-1-22" style="fill:url(#f)"/>/&gt;<path fill="#00658d" d="m416 778-7-23c14.886 3.834 33.422 5.368 47.5-2 2.047-1.071 5.519-6.89 7-7 1.383-.102 11.234 8.435 13.5 9.5-17.602 13-38.769 22.262-61 22.5"/><path fill="#01668e" d="M613 754c-3.545 7.98-11.291 13.793-12 23-20.419-.609-41.409-8.508-57-22.5 13.531-16.068 13.855-2.346 26.5 1.5 12.647 3.846 29.936 1.882 42.5-2"/><path fill="#e9f7f9" d="M722 874c2.745-6.377-13.047-8.099-13-11.5 51.822-20.932 2.847-78.873-22-101.5 1.895-5.236-.707-6.732-4-11 16.892 13.371 34.968 31.582 47 49.5 6.759 10.066 26.231 47.069 22 58-2.578 6.659-23.041 15.325-30 16.5"/><path fill="#658f99" d="M547 767c13.83 14.049 29.956 27.491 46 39-5.688 15.937 8.836 30.143 16 43.5 1.508 2.811 2.378 3.065 1 6.5-22.49-7.856-58.972-25.617-75-43 2.195.085 9.537-2.678 10-4.5.251-.988-3.472-19.127-4-20-1.698-2.807-6.143-3.454-8.5-5.5l-5.5 19c-3.766-14.538 1.405-31.044 12-42 2.929 2.07 5.482 4.442 8 7"/><path fill="#759ea9" d="M482 762c33.572 37.766-5.249 64.016-38 79-8.231 3.766-16.487 6.021-22.5 7-4.391.715-7.479 3.543-11.5 1.5 7.015-13.669 19.452-27.604 18-43.5 14.243-10.124 28.254-22.073 41-34 4.029-3.156 7.794-8.282 13-10"/><path fill="#ebf7f9" d="M345.5 764c7.663-1.967 7.986 25.251-1 27-3.406-5.097-6.294-25.128 1-27"/><path fill="#eff8f7" d="M670.5 765c9.742 8.04 7.174 16.382 4 27-7.677-6.156-10.216-18.84-4-27"/><path fill="#12344e" d="M684 857c-5.609-2.49-11.412-4.304-17-7-24.265-11.707-52.103-28.292-74-44-16.044-11.509-32.17-24.951-46-39 23.064 18.101 45.709 37.199 70.5 53 21.434 13.661 44.591 24.306 66.5 37"/><path fill="#123148" d="M469 772c-12.746 11.927-26.757 23.876-41 34-26.048 18.516-55.355 35.89-84.5 49-1.681.756-7.897 3.66-9.5 2 .625-.342 1.37-.664 2-1 51.084-27.242 87.003-47.973 133-84"/><path fill="#e9f7f9" d="M330.5 780c9.351 4.891 16.866 19.847 3 24-2.467.739-6.67-1.128-7-1-.443.172 1.072 5.997-.5 9.5-1.749 3.898-15.188 12.383-15 4 .054-2.392 18.089-30.885 19.5-36.5"/><path fill="#e7f5f7" d="M686.5 781c5.033-1.312 6.22 16.496 5.5 19.5-3.575 4.069-14.673-.362-15-5-.084-1.188 8.661-14.281 9.5-14.5"/><path fill="#a0d0d7" d="M535 813c-4.084-4.429-6.201-4.054-8-11l5.5-19c2.357 2.046 6.802 2.693 8.5 5.5.528.873 4.251 19.012 4 20-.463 1.822-7.805 4.585-10 4.5"/><path fill="#dbf1f5" d="M699.5 795c3.19 5.904 19.042 37.135 1 22-7.34-6.157-8.775-15.572-1-22"/><path fill="#a5cad5" d="M428 806c1.452 15.896-10.985 29.831-18 43.5 4.021 2.043 7.109-.785 11.5-1.5 6.013-.979 14.269-3.234 22.5-7-13.555 7.682-28.238 14.064-43 19l2.5-6c-9.45 3.313-20.388 7.589-30 10-8.221 2.062-38.591 9.2-45 9-3.17-.099-8.876-2.822-7.5-7 9.88-3.534 3.432-4.256 4.5-5 1.839-1.28 6.102-2.688 8.5-4 1.603 1.66 7.819-1.244 9.5-2 29.145-13.11 58.452-30.484 84.5-49"/><path fill="#86afba" d="M667 850c7.607 7.132 19.367 9.402 28 15 1.128.731 8.052 2.094 1.5 4-6.195 1.802-51.574-3.203-60.5-5-8.495-1.711-17.779-5.129-26-8 1.378-3.435.508-3.689-1-6.5-7.164-13.357-21.688-27.563-16-43.5 21.897 15.708 49.735 32.293 74 44"/><path fill="#02537c" d="M618 861c6.693 5.678 18.044 21.166 25 25-31.004-5.801-111.682-31.631-117-67.5-.417-2.815 1.035-6.61-1-9l2.5-.5c20.465 25.35 59.781 41.831 90.5 52"/><path fill="#01537c" d="m392 883 19-25c22.408-8.149 51.891-21.28 70.5-36 2.51-1.985 12.467-14.991 13.5-10.5-4.264 42.061-68.025 61.761-103 71.5"/><path fill="#c2e7ea" d="M684 857c3.941 1.75 10.32 2.75 11 8-8.633-5.598-20.393-7.868-28-15 5.588 2.696 11.391 4.51 17 7"/><path fill="#c9e8ee" d="M401 860c-30.364 10.154-74.451 19.429-106 13 1.711-1.964-1.084-2.482 1.5-3 7.837-1.572 16.351-1.085 24.5-4-1.376 4.178 4.33 6.901 7.5 7 6.409.2 36.779-6.938 45-9 9.612-2.411 20.55-6.687 30-10z"/><path fill="#017ea4" d="m411 858-19 25c-31.78 8.849-119.946 29.903-124-20.5 38.73 27.328 101.549 10.575 143-4.5"/><path fill="#018cb1" d="m667 873-3 16.5 7 2.5c-7.185-.915-22.015-2.701-28-6-6.956-3.834-18.307-19.322-25-25 15.249 5.048 33.11 9.444 49 12"/><path fill="#03a4c7" d="m671 892-7-2.5 3-16.5c28.704 4.617 62.317 8.696 86-11.5-1.477 39.509-54.297 34.027-82 30.5"/></svg>