<svg xmlns="http://www.w3.org/2000/svg" width="1024" height="1024"><defs><linearGradient id="a" x1="514.528" x2="516.444" y1="95.657" y2="213.642" gradientUnits="userSpaceOnUse"><stop offset="0%" style="stop-color:#4bcffc"/><stop offset="100%" style="stop-color:#1eb0ce"/></linearGradient></defs><defs><linearGradient id="b" x1="286.059" x2="651.937" y1="334.154" y2="450.728" gradientUnits="userSpaceOnUse"><stop offset="0%" style="stop-color:#f5f8fa"/><stop offset="100%" style="stop-color:#99c0cc"/></linearGradient></defs><defs><linearGradient id="c" x1="518.152" x2="507.186" y1="403.219" y2="459.154" gradientUnits="userSpaceOnUse"><stop offset="0%" style="stop-color:#103545"/><stop offset="100%" style="stop-color:#185162"/></linearGradient></defs><defs><linearGradient id="d" x1="377.2" x2="396.038" y1="622.839" y2="681.907" gradientUnits="userSpaceOnUse"><stop offset="0%" style="stop-color:#2ea5d7"/><stop offset="100%" style="stop-color:#038dce"/></linearGradient></defs><defs><linearGradient id="e" x1="430.273" x2="578.589" y1="717.475" y2="731.743" gradientUnits="userSpaceOnUse"><stop offset="0%" style="stop-color:#c2d5dc"/><stop offset="100%" style="stop-color:#8eb7c4"/></linearGradient></defs><path fill="#175b71" d="M577 155h-12.5c-3.892 2.639.635 4.875.5 6-1.14 9.531-8.782 51.262-12 58.5-2.161 4.861-6.212 5.801-10 8.5-13.352 5.071-26.969 10.004-40.5 8l-20.5-7c-3.183-2.082-9.26-4.972-11-8.5-2.535-5.14-5.564-28.081-7-35.5-1.203-6.216-1.137-24.412-8-24 .088-.053-2.307-.466-.5-2 .523-.444 5.748-.217 5.5-2.5-1.608-3.657-9.062 2.592-6-3.5.902-.427 2.443-2.239 4-2.5-2.049-38.037 11.113-78.473 56.5-76.5 40.005 1.74 51.816 42.522 48.5 76.5.531 1.122 10.855 3.768 13 4.5m-74-71c-50.312 8.481-37.955 92.766-24 126.5 7.706 18.627 33.385 21.444 49 13.5 1.25-.316 3.457.373 4.5 0 1.624-.581 3.142-2.788 3.5-3 10.313-6.099 13.537-25.483 16-37.5 7.015-34.222 13.616-97.178-36-100.5-4.636-.31-8.465.236-13 1"/><path fill="#bcf8fe" d="M516 83c-3.34 11.407-15.136 11.813-23 21-2.486-4.148 7.525-9.639 0-12 4.371-2.934 10.274-2.655 10-8 4.535-.764 8.364-1.31 13-1"/><path fill="url(#a)" d="M536 221c-2.217-.78-6.027 1.996-8 3-2.116.536-11.455 3.107-12.5 3-.941-.097-.054-2.868-1-3-10.867-1.512-16.833-.526-24.5-10.5-13.092-17.031-21.475-71.912-13-92.5-1.732 11.713-1.101 26.66 0 38.5.471 5.068 4.311 30.685 6 34 .503.986 1.957-.753 2-1 .61-3.506-3.795-23.966-4-30-.637-18.734-.681-43.684 12-58.5 7.864-9.187 19.66-9.593 23-21 49.616 3.322 43.015 66.278 36 100.5-2.463 12.017-5.687 31.401-16 37.5" style="fill:url(#a)"/>/&gt;<path fill="#a5f2fd" d="M503 84c.274 5.345-5.629 5.066-10 8-11.685 7.844-13.935 15.033-16 29-8.475 20.588-.092 75.469 13 92.5 7.667 9.974 13.633 8.988 24.5 10.5.946.132.059 2.903 1 3 1.045.107 10.384-2.464 12.5-3-15.615 7.944-41.294 5.127-49-13.5-13.955-33.734-26.312-118.019 24-126.5"/><path fill="#e5fbfd" d="M493 92c7.525 2.361-2.486 7.852 0 12-12.681 14.816-12.637 39.766-12 58.5.205 6.034 4.61 26.494 4 30-.043.247-1.497 1.986-2 1-1.689-3.315-5.529-28.932-6-34-1.101-11.84-1.732-26.787 0-38.5 2.065-13.967 4.315-21.156 16-29"/><path fill="#2b647b" d="M455 153c-3.062 6.092 4.392-.157 6 3.5.248 2.283-4.977 2.056-5.5 2.5-1.807 1.534.588 1.947.5 2-6.205 3.724-14.811 3.628-21 6-2.289-.808.485-.502 1-2 1.068-3.109.419-1.234-1-3-1.12-1.394-2.408-.863-2-3 6.034-2.255 18.002-4.105 22-6"/><path fill="#2b6379" d="M577 155c5.303 1.809 10.604 3.016 16 5l-4 7c-7.761-2.432-16.31-3.187-24-6 .135-1.125-4.392-3.361-.5-6z"/><path fill="#477d91" d="M433 159c-.408 2.137.88 1.606 2 3-2.926.96-1.952 3.031 1 3-.515 1.498-3.289 1.192-1 2-11.406 4.371-23.096 9.472-34 15-54.848 27.808-102.863 79.666-123 138-1.986-.066-4.012.045-6 0 38.702-85.482 69.331-126.739 161-161"/><path fill="#477789" d="M717 252c-3.676-.076-5.803 1.102-5 5-30.424-40.899-74.088-74.673-123-90l4-7c53.29 19.596 90.631 45.48 124 92"/><path fill="#d3ecf6" d="M464 185c-6.982 13.915-6.228-14.659-9.5-19-3.198-1.271-44.667 16.098-50.5 19l-3-3c10.904-5.528 22.594-10.629 34-15 6.189-2.372 14.795-2.276 21-6 6.863-.412 6.797 17.784 8 24"/><path fill="#acd7e8" d="M589 167c48.912 15.327 92.576 49.101 123 90 11.481 15.434 21.271 32.375 29 50-6.728-10.749-14.808-21.472-22-32-4.624-6.768-8.932-14.047-14-20.5-.937-1.194-5-7.085-7-5.5-.8-3.941-8.073-11.74-12-13-9.417-13.392-35.196-35.882-50.5-42-4-1.599-5.664.509-7 0-17.439-6.64-34.736-12.848-53-17-11.24 24.099-3.821 47.655-31 62-23.939 12.636-60.732 9.845-80-10-9.987-10.286-9.132-38.641-16-52-33.999 8.926-66.659 23.292-95 44 12.235-14.522 33.183-27.385 50.5-36 5.833-2.902 47.302-20.271 50.5-19 3.272 4.341 2.518 32.915 9.5 19 1.436 7.419 4.465 30.36 7 35.5 1.74 3.528 7.817 6.418 11 8.5 20.45 13.378 41.069 13.201 61-1 3.788-2.699 7.839-3.639 10-8.5 3.218-7.238 10.86-48.969 12-58.5 7.69 2.813 16.239 3.568 24 6"/><path fill="#e8f6ef" d="M436 165c-2.952.031-3.926-2.04-1-3 1.419 1.766 2.068-.109 1 3"/><path fill="url(#b)" d="M686 236c-25.377-8.14-37.2 23.554-20.5 35 15.618 10.704 36.278-3.382 32.5-22 2-1.585 6.063 4.306 7 5.5 5.068 6.453 9.376 13.732 14 20.5l-33 52c-17.359-23.759-106.682-47.807-136-51-57.515-6.264-164.093 6.183-208.5 47-16.322 15.002-15.762 66.577-14.5 88 .215 3.652.651 7.35 1 11 4.172 43.626 21.259 118.574 62.5 140 62.631 32.539 161.624 27.977 227.5 7-1.74 8.287-2.314 21.498-1 30-24.673 10.449-44.711 13.857-69.5 21-.472.136-5.612 2.207-3.5 4-87.079 9.078-176.587-17.71-232-87.5-5.292-6.665-13.071-22.99-18-27.5 6.203-6.705 9.434-14.012 11-23 5.026-28.852-1.695-137.656-18-161-.653-.934-1.479-4.375-3.5-5-1.115-.345-3.941.052-5.5 0 20.137-58.334 68.152-110.192 123-138l3 3c-17.317 8.615-38.265 21.478-50.5 36 28.341-20.708 61.001-35.074 95-44 6.868 13.359 6.013 41.714 16 52 19.268 19.845 56.061 22.636 80 10 27.179-14.345 19.76-37.901 31-62 18.264 4.152 35.561 10.36 53 17 1.336.509 3-1.599 7 0 15.304 6.118 41.083 28.608 50.5 42m-345.5-1c-22.873 3.932-19.989 44.291 10 39 21.862-3.858 19.429-44.06-10-39" style="fill:url(#b)"/>/&gt;<path fill="#a5f2fd" d="M536 221c-.358.212-1.876 2.419-3.5 3-1.043.373-3.25-.316-4.5 0 1.973-1.004 5.783-3.78 8-3"/><path fill="#0d354a" d="M543 228c-19.931 14.201-40.55 14.378-61 1l20.5 7c13.531 2.004 27.148-2.929 40.5-8"/><path fill="#153f5c" d="M340.5 235c29.429-5.06 31.862 35.142 10 39-29.989 5.291-32.873-35.068-10-39m3 1c-23.188 1.716-20.728 39.582 4 37 22.667-2.367 20.287-38.797-4-37"/><path fill="#16364f" d="M686 236c3.927 1.26 11.2 9.059 12 13 3.778 18.618-16.882 32.704-32.5 22-16.7-11.446-4.877-43.14 20.5-35m-10.5 0c-21.592 2.423-20.893 40.093 5 37 22.492-2.686 19.316-39.729-5-37"/><path fill="#def1f9" d="M343.5 236c24.287-1.797 26.667 34.633 4 37-24.728 2.582-27.188-35.284-4-37m-2 4c-14.488 2.599-14.455 25.997-1 29 25.143 5.612 26.116-33.505 1-29"/><path fill="#c3e7f1" d="M675.5 236c24.316-2.729 27.492 34.314 5 37-25.893 3.093-26.592-34.577-5-37m-2 4c-15.849 3.353-13.306 31.773 6 30 19.465-1.787 17.397-34.95-6-30"/><path fill="#034d87" d="M341.5 240c25.116-4.505 24.143 34.612-1 29-13.455-3.003-13.488-26.401 1-29"/><path fill="#03477e" d="M673.5 240c23.397-4.95 25.465 28.213 6 30-19.306 1.773-21.849-26.647-6-30"/><path fill="#386676" d="M717 252c17.565 24.487 23.89 41.298 36 68-3.189 1.824-4.866.184-7 0 .638-4.194-2.89-9.629-5-13-7.729-17.625-17.519-34.566-29-50-.803-3.898 1.324-5.076 5-5"/><path fill="#223a46" d="m550 276-1 5c-61.277-6.346-131.809 2.318-185.5 34-23.203 13.692-27.264 19.44-30.5 47-1.656 14.103-1.605 31.749-1 46l-5 3c-1.262-21.423-1.822-72.998 14.5-88 44.407-40.817 150.985-53.264 208.5-47"/><path fill="#7ea1a9" d="M741 307c2.11 3.371 5.638 8.806 5 13-12.433-1.075-15.201 14.339-18 25-21.264 9.709-19.153 44.277-32 62 .588-16.64.598-36.609-2-53-.941-5.938-4.73-22.525-8-27l33-52c7.192 10.528 15.272 21.251 22 32"/><path fill="#4a6c77" d="M686 327c3.27 4.475 7.059 21.062 8 27-3.616.11-.564-5.023-5-2-.66-3.563-2.762-13.594-4-16.5-5.965-13.996-52.957-34.301-68-39.5-21.872-7.559-44.917-12.609-68-15l1-5c29.318 3.193 118.641 27.241 136 51"/><path fill="#88b2bd" d="M549 281c23.083 2.391 46.128 7.441 68 15-5.511 15.366 15.029 9.316 21 19-10.253-4.492-21.958-9.915-33-11-33.895-25.283-170.114-13.273-208 7-15.236 4.693-35.142 13.611-48 23-6.551 4.783-8.578 9.352-11 17.5-1.157 3.89-.407 15.126-3 17l-2-6.5c3.236-27.56 7.297-33.308 30.5-47 53.691-31.682 124.223-40.346 185.5-34"/><path fill="#114354" d="M605 304c8.095 6.038.806 7.113 1 16-69.067-22.8-151.023-20.321-217 11-.328-2.92-5.183-12.399-4-14.5.324-.575 9.807-4.326 12-5.5 37.886-20.273 174.105-32.283 208-7"/><path fill="#6fa1ad" d="M689 352c4.756 25.684 3.446 58.093 0 84-3.338 1.235-1.61 4.29-7 3 3.472-22.38 7.609-78.797-2-98.5-3.724-7.636-33.221-21.654-42-25.5-5.971-9.684-26.511-3.634-21-19 15.043 5.199 62.035 25.504 68 39.5 1.238 2.906 3.34 12.937 4 16.5"/><path fill="#0b2533" d="M638 315c8.779 3.846 38.276 17.864 42 25.5 9.609 19.703 5.472 76.12 2 98.5-3.318 21.386-20.208 85.331-34.5 100-4.11 4.218-14.064 9.2-19.5 12-55.279 28.472-198.842 32.814-248.5-8-22.988-18.894-41.232-110.128-42.5-140.5-.881-21.101-.589-51.603 12-68.5 12.858-9.389 32.764-18.307 48-23-2.193 1.174-11.676 4.925-12 5.5-1.183 2.101 3.672 11.58 4 14.5-7.377 3.502-18.519 9.303-25 14-2.153 1.56-5.317 1.884-7 4.5-9.986 63.804-14.022 153.616 50 189.5 45.025 25.236 109.135 26.341 159 17 11.24-2.105 22.312-4.952 33-9 32.091-12.153 48.583-26.648 60-59 6.069-17.199 10.607-35.201 12-53.5.629-8.256 4.108-24.546-5-25.5.243-4.587.898-9.522 1-14 .348-15.223-1.295-30.338-1-45.5-18.215-13.059-38.804-22.503-60-29.5-.194-8.887 7.095-9.962-1-16 11.042 1.085 22.747 6.508 33 11M391.5 547c13.019 9.444 31.032 13.387 46.5 16.5l-24-8z"/><path fill="#156075" d="M606 320c21.196 6.997 41.785 16.441 60 29.5-.295 15.162 1.348 30.277 1 45.5-4.388-3.473-15.5-2.329-19 1.5-.355.388-2.895 9.087-4.5 9.5-3.515.905-40.203-22.271-49.5-17-.696-1.148-2.312-1.906-3-3 7.287-30.709-20.045-52.884-49-44-35.636-12.764-77.356 1.441-101 30l-29-8c12.756-15.391 11.468-40.776-13.5-34-16.036 4.352-35.332 36.166-13.5 46-4.509 1.253-7.143 6.579-12.5 9-3.786 1.711-10.275 2.373-14.5 3 .49-14.436.622-29.371 6-43 6.481-4.697 17.623-10.498 25-14 65.977-31.321 147.933-33.8 217-11"/><path fill="#093a50" d="M746 320c2.134.184 3.811 1.824 7 0 1.682 3.71 3.071 7.359 5 11l1 6.5c-2.292 3.296-1.874-1.061-3-.5-1.269-3.999-3.822-7.593-8-9-1.925-.648-4.455-1.792-6.5-1-10.702 4.145-16.219 56.649-17.5 68-.789 6.989-1.492 13.976-2 21-1.049 14.512-6.615 78.741 6.5 86 7.043 3.898 9.355-3.132 12.5-6 2.559-2.334 2.077-3.233 4-5 1.435-1.319 10.815-4.857 11-6.5-9.038-9.745-10.214-24.845-11-37.5 5.389 3.911.277 20.16 7 21 2.149 9.735 7.216 20.098 19.5 16 9.685-3.231 12.876-25.819 14.5-34.5.134-.714.929-6.878 3-4.5-.895 7.281-7.157 34.082-12 38.5-6.231 5.685-15.408 1.904-23.5 5.5-4.626 2.056-17.157 17.275-20.5 22 .969-6.195-2.419-3.059-4-4-2.026-1.205-3.302-1.462-5-3.5-15.483-18.583-2.904-132.198 4-158.5 2.799-10.661 5.567-26.075 18-25"/><path fill="#0c495e" d="M278 320c1.559.052 4.385-.345 5.5 0 2.021.625 2.847 4.066 3.5 5-6.082 3.3-5.847-2.51-13 2-12.594 7.941-2.971 11.452 0 16.5 12.503 21.242 10.155 40.49 17 61.5h-2c-3.371-22.413-6.714-46.591-20.5-65-2.594-.874-3.094 1.774-3.5 2-10.341 5.764-1.851 9.888 1 18.5 2.134 6.446 3.356 12.957 5 19.5l-1 1c-1.475-5.95-7.949-31.451-13.5-33-2.268-.633-3.354 1.489-4.5 2-5.474 2.441-9.942 9.533-12 15h-3c1.698-5.511 6.575-15.981 11.5-19 3.207-1.966 8.252-1.589 9-2 1.897-1.044 12.906-20.48 14.5-24 1.988.045 4.014-.066 6 0"/><path fill="#0a374b" d="M287 325c16.305 23.344 23.026 132.148 18 161l-3-2c2.164-11.045 2.619-34.909 2-46.5-.049-.916-2.948-.084-3-1-.177-3.146.21-6.37 0-9.5-1.162-17.321-1.424-34.812-4-52-1.741-11.62-5.336-33.787-12-43-3.822-5.284-2.691-5.688-11-5 7.153-4.51 6.918 1.3 13-2"/><path fill="#13c1e3" d="M285 332c-10.195.014 2.19 19.904 4 26.5 2.113 7.703 3.714 15.609 5 23.5.959 5.885 4.541 18.574 1 23-3.866 4.831-3.213 2.415-4 0-6.845-21.01-4.497-40.258-17-61.5-2.971-5.048-12.594-8.559 0-16.5 8.309-.688 7.178-.284 11 5"/><path fill="#9ff2fc" d="M748 328c-13.959 21.294-17.586 46.74-21 71.5l-3-4.5c1.281-11.351 6.798-63.855 17.5-68 2.045-.792 4.575.352 6.5 1"/><path fill="#0fbde0" d="M756 337c-16.136 8.042-21.376 53.386-23 70l-6-2.5-2.5 38.5-2.5-27c.508-7.024 1.211-14.011 2-21l3 4.5c3.414-24.76 7.041-50.206 21-71.5 4.178 1.407 6.731 5.001 8 9"/><path fill="#d1f7fc" d="M412 364c-10.793 13.022-14.762 8.599-27 12-21.832-9.834-2.536-41.648 13.5-46 24.968-6.776 26.256 18.609 13.5 34"/><path fill="#064a66" d="M768 344c-.491 1.661-3.06.773-4 2-2.084-.001-3.49-1.855-5-3-.689-.522-1.609-3.397-3.5-3-12.298 12.794-16.831 34.813-19.5 52-.988 6.359-1.503 12.579-2 19-1.757 22.706-6.794 64.196 11 80-1.923 1.767-1.441 2.666-4 5-13.843-25.821-10.809-60.269-8-89 1.624-16.614 6.864-61.958 23-70 1.126-.561.708 3.796 3 .5l-1-6.5c4.542 8.572 1.234 7.594 10 13"/><path fill="#a4f5ff" d="M285 332c6.664 9.213 10.259 31.38 12 43-2.64 1.854 1.048 7.509-3 7-1.286-7.891-2.887-15.797-5-23.5-1.81-6.596-14.195-26.486-4-26.5"/><path fill="#bbdde6" d="M349 334c-12.589 16.897-12.881 47.399-12 68.5 1.268 30.372 19.512 121.606 42.5 140.5 49.658 40.814 193.221 36.472 248.5 8-1.385 4.657-6.419 4.127-10 7.5-.372.351 1.003 3.068-1.5 5.5-7.195 6.992-69.544 16.319-82 17-41.344 2.261-133-4.916-162.5-37.5-20.508-22.652-36.619-93.912-39-124.5-.29-3.722-.839-7.212-1-11-.605-14.251-.656-31.897 1-46l2 6.5c2.593-1.874 1.843-13.11 3-17 2.422-8.148 4.449-12.717 11-17.5"/><path fill="#2394bc" d="M542 342c-3.707 1.137-12.992 7.217-16 10-56.485-6.968-106.493 44.207-89 101l-14 1c-7.918-30.02-1.769-58.121 18-82 23.644-28.559 65.364-42.764 101-30"/><path fill="#3accea" d="M289 405c.272 1.809.839 3.747 1 5-.102.422-.907 1.937-1 2-3.786 2.567-7.652 4.827-11 8-.143-2.805-.726-6.032-1-9-.632-6.852-1.704-14.238-3-21 2.873-4.087-3.478-15.64-2-18.5.127-.245 4.733.382 5.5-.5 1.872-2.152-10.316-25.129-12.5-29 .406-.226.906-2.874 3.5-2 13.786 18.409 17.129 42.587 20.5 65"/><path fill="#cff8fd" d="M591 386c-.643 2.709-5.24 11.571-7 14-1.085 1.497-8.63 9.089-10 10-4.622 3.072-13.463 6.518-19 7-19.082 1.662-37.618-9.459-41-29-1.537-8.88-1.011-12.617 2-21 2.008-5.59 5.689-11.012 10-15 3.008-2.783 12.293-8.863 16-10 28.955-8.884 56.287 13.291 49 44"/><path fill="#18c2e7" d="M759 343c-3.556 1.367-3.664 5.444-5 8-7.229 13.834-9.772 31.434-15 41.5-1.535 2.956-.037-1.193-3-.5 2.669-17.187 7.202-39.206 19.5-52 1.891-.397 2.811 2.478 3.5 3"/><path fill="#b6f7ff" d="M274 390c-.641-3.344-2.188-6.767-3-10-1.644-6.543-2.866-13.054-5-19.5-2.851-8.612-11.341-12.736-1-18.5 2.184 3.871 14.372 26.848 12.5 29-.767.882-5.373.255-5.5.5-1.478 2.86 4.873 14.413 2 18.5"/><path fill="#b1f6fd" d="M764 346c-3.535 4.615-9.279 22.723-11 29-4.863-7.118 4.687-16.337 1-24 1.336-2.556 1.444-6.633 5-8 1.51 1.145 2.916 2.999 5 3"/><path fill="#0f627b" d="M789 443c1.893-17.786.966-37.365-2-55-.199-9.575-5.972-40.22-19-39-9.34.875-17.731 43.308-19 52-1.48 10.137-3.485 25.509-3 35.5.059 1.216.522 9.978 4 8.5-.364 2.332 1.366 20.129 2 23-6.723-.84-1.611-17.089-7-21-.512-8.255-.547-19.764 0-28 .83-12.508 4.648-31.776 8-44 1.721-6.277 7.465-24.385 11-29 .94-1.227 3.509-.339 4-2 1.216.75 4.931 1.026 6.5 2 19.58 12.162 18.123 76.406 14.5 97"/><path fill="#0f6c7f" d="M358 388c-1.418 41.766 4.312 107.206 40.5 134 6.961 5.154 16.371 7.924 22.5 14-4.465 0-9.958 1.074-14 3-64.022-35.884-59.986-125.696-50-189.5 1.683-2.616 4.847-2.94 7-4.5-5.378 13.629-5.51 28.564-6 43"/><path fill="#698991" d="M728 345c-6.904 26.302-19.483 139.917-4 158.5 1.698 2.038 2.974 2.295 5 3.5-1.045 3.951-4.372 7.086-7 10-34.364 38.098-56.471 61.449-105 82-1.314-8.502-.74-21.713 1-30 .067-.319-.082-.69 0-1 25.771-7.118 39.687-20.837 51-44.5 16.144-33.767 25.684-79.268 27-116.5 12.847-17.723 10.736-52.291 32-62"/><path fill="#16a0ba" d="M270 381c2.634 10.626 4.378 21.189 6 32-.719 15.119 2.364 31.445-1 46.5-.22.983-2.748.013-3 1-1.115 4.369-1.873 14.398-4 18-4.505 7.628-16.375 7.781-22 1.5-13.392-14.952-11.699-68.455-10-86 1.167 7.261 1.297 14.672 2 22 .094.978-.11 2.026 0 3-4.411 9.401 14.464 83.279 27 47.5 5.669-16.181.273-48.299-3-65.5l4.5 8c1.847-.891-5.362-34.615-6.5-38.5-2.152-7.349-7.315-14.059-8-20.5 1.146-.511 2.232-2.633 4.5-2 5.551 1.549 12.025 27.05 13.5 33"/><path fill="#10b5d3" d="M768 349c7.522 7.277 1.615 5.539 0 9.5-3.946 9.68-11.918 35.725-12 45.5l-7-3c1.269-8.692 9.66-51.125 19-52"/><path fill="#75e6f7" d="M787 388c.169 8.097-1.484 16.331-2 24.5-.014.223.143.014 0 2-.528 7.339-.949 13.041-2 20.5-2.204 7.725-3.246 15.752-7 23 4.562-31.229 14.336-65.653-2-95 .519-1.463 2.601-3.455 1.5-5-3.064-1.058-11.744 28.942-12.5 32-3.901-1.4-4.567 21.233-7 17.5.006-1.168-.01-2.342 0-3.5.082-9.775 8.054-35.82 12-45.5 1.615-3.961 7.522-2.223 0-9.5 13.028-1.22 18.801 29.425 19 39"/><path fill="#b8f8fd" d="M252 350c.685 6.441 5.848 13.151 8 20.5 1.138 3.885 8.347 37.609 6.5 38.5l-4.5-8c-2.636-13.852-5.369-32.557-15-42.5.186 1.675 1.463 2.989 2 4.5-8.576 15.929-9.052 35.115-8 53h-3c-.703-7.328-.833-14.739-2-22 .927-9.565.571-19.89 4-29 2.058-5.467 6.526-12.559 12-15"/><path fill="#065a95" d="M526 352c-4.311 3.988-7.992 9.41-10 15-59.566-3.358-93.468 75.865-42.5 112 49.257 34.921 118.758-10.069 100.5-69 1.37-.911 8.915-8.503 10-10 10.725 24.773 6.491 53.751-8 76-11.583 8.892-23.904 21.4-38.5 26-39.454 12.433-87.936-8.209-100.5-49-17.493-56.793 32.515-107.968 89-101"/><path fill="#3f5b65" d="M694 354c2.598 16.391 2.588 36.36 2 53-1.316 37.232-10.856 82.733-27 116.5-11.313 23.663-25.229 37.382-51 44.5.536-2.034-.887-2.585 1.5-5 2.816-2.848 19.694-8.715 26-14 22.676-19.004 39.646-84.02 43.5-113 3.446-25.907 4.756-58.316 0-84 4.436-3.023 1.384 2.11 5 2"/><path fill="#36cbea" d="M753 375c-3.352 12.224-7.17 31.492-8 44l-11-8c.497-6.421 1.012-12.641 2-19 2.963-.693 1.465 3.456 3 .5 5.228-10.066 7.771-27.666 15-41.5 3.687 7.663-5.863 16.882-1 24"/><path fill="#034b68" d="M262 401c3.273 17.201 8.669 49.319 3 65.5-12.536 35.779-31.411-38.099-27-47.5 1.394 12.289 3.996 29.174 10 40 16.682 30.08 17.698-20.766 17-31.5-1.432-22.016-8.728-44.034-16-64.5-.537-1.511-1.814-2.825-2-4.5 9.631 9.943 12.364 28.648 15 42.5"/><path fill="#034c6a" d="M774 363c-9.06 25.552-20.345 65.348-16 92.5 2.563 16.019 10.76 16.479 18 2.5 3.754-7.248 4.796-15.275 7-23-1.056 7.49-5.746 47.617-19.5 40-7.678-4.252-7.665-28.972-7.5-37 .296-14.363 3.526-33.945 7-48 .756-3.058 9.436-33.058 12.5-32 1.101 1.545-.981 3.537-1.5 5"/><path fill="#01a1cc" d="M248 459c-2.24-14.373-6.135-28.302-7-43-1.052-17.885-.576-37.071 8-53 7.272 20.466 14.568 42.484 16 64.5.698 10.734-.318 61.58-17 31.5"/><path fill="#2c8ba1" d="M441 372c-19.769 23.879-25.918 51.98-18 82 5.971 22.638 21.887 42.942 42.5 54 9.836 5.276 20.677 7.001 30.5 12-22.568 2.69-48.864 12.807-72 16-2.247-.324-1.729 0-3 0-6.129-6.076-15.539-8.846-22.5-14-36.188-26.794-41.918-92.234-40.5-134 4.225-.627 10.714-1.289 14.5-3 5.357-2.421 7.991-7.747 12.5-9 12.238-3.401 16.207 1.022 27-12zm-62.5 26c-5.681 1.751-5.374 12.86 1 14 11.414 2.042 11.338-17.803-1-14"/><path fill="#019fc9" d="M776 458c-7.24 13.979-15.437 13.519-18-2.5-4.345-27.152 6.94-66.948 16-92.5 16.336 29.347 6.562 63.771 2 95"/><path fill="#1c6883" d="M240 365c-3.429 9.11-3.073 19.435-4 29-1.699 17.545-3.392 71.048 10 86l-1 1c-15.257-19.512-15.218-92.572-8-116z"/><path fill="#1997cc" d="M516 367c-3.011 8.383-3.537 12.12-2 21-40.119-1.86-62.644 51.829-27.5 75 32.772 21.607 77.756-7.114 68.5-46 5.537-.482 14.378-3.928 19-7 18.258 58.931-51.243 103.921-100.5 69-50.968-36.135-17.066-115.358 42.5-112"/><path fill="#72d5e3" d="m301 427-2 5.5-4-27.5c3.541-4.426-.041-17.115-1-23 4.048.509.36-5.146 3-7 2.576 17.188 2.838 34.679 4 52"/><path fill="#0a81a2" d="M274 390c1.296 6.762 2.368 14.148 3 21-1.376-.031-.954 1.036-1 2-1.622-10.811-3.366-21.374-6-32l1-1c.812 3.233 2.359 6.656 3 10"/><path fill="#2599c3" d="M594 389c12.254 20.205 10.788 49.743 4 71-6.552 6.198-14.987 10.616-22 16 14.491-22.249 18.725-51.227 8-76 1.76-2.429 6.357-11.291 7-14 .688 1.094 2.304 1.852 3 3"/><path fill="url(#c)" d="M514 388c3.382 19.541 21.918 30.662 41 29 9.256 38.886-35.728 67.607-68.5 46-35.144-23.171-12.619-76.86 27.5-75" style="fill:url(#c)"/>/&gt;<path fill="#198fa5" d="M789 443c-.069.648.079 1.355 0 2-2.071-2.378-2.866 3.786-3 4.5-1.624 8.681-4.815 31.269-14.5 34.5-12.284 4.098-17.351-6.265-19.5-16-.634-2.871-2.364-20.668-2-23 .836-5.363 1.627-3.086 6-7-.165 8.028-.178 32.748 7.5 37 13.754 7.617 18.444-32.51 19.5-40 1.051-7.459 1.472-13.161 2-20.5.143-1.986-.014-1.777 0-2 .516-8.169 2.169-16.403 2-24.5 2.966 17.635 3.893 37.214 2 55"/><path fill="#2c8ba1" d="M667 395c-.102 4.478-.757 9.413-1 14-1.446 27.286-4.393 51.611-15 77-5.963 14.273-12.901 26.069-25 36l-33-49c3.085-5.874 3.092-7.025 5-13 6.788-21.257 8.254-50.795-4-71 9.297-5.271 45.985 17.905 49.5 17 1.605-.413 4.145-9.112 4.5-9.5 3.5-3.829 14.612-4.973 19-1.5"/><path fill="#16a0bb" d="M763 390c-3.474 14.055-6.704 33.637-7 48-4.373 3.914-5.164 1.637-6 7-3.478 1.478-3.941-7.284-4-8.5-.485-9.991 1.52-25.363 3-35.5l7 3c-.01 1.158.006 2.332 0 3.5 2.433 3.733 3.099-18.9 7-17.5"/><path fill="#cef8fe" d="M378.5 398c12.338-3.803 12.414 16.042 1 14-6.374-1.14-6.681-12.249-1-14"/><path fill="#0f869d" d="M733 407c-2.809 28.731-5.843 63.179 8 89-3.145 2.868-5.457 9.898-12.5 6-13.115-7.259-7.549-71.488-6.5-86l2.5 27 2.5-38.5z"/><path fill="#0c87a0" d="M291 405c.787 2.415.134 4.831 4 0l4 27.5 2-5.5c.21 3.13-.177 6.354 0 9.5.052.916 2.951.084 3 1 .619 11.591.164 35.455-2 46.5-3.087 15.755-9.347 27.003-23 10.5l5.5-6.5c2.008 1.731-5.28 8.839-.5 7.5 10.82-27.744 9.73-56.536 6-85.5-.161-1.253-.728-3.191-1-5z"/><path fill="#5e808d" d="m333 419-5 3c-.349-3.65-.785-7.348-1-11l5-3c.161 3.788.71 7.278 1 11"/><path fill="#114355" d="M659 488c-3.702 2.858-4.847-1.099-8-2 10.607-25.389 13.554-49.714 15-77 9.108.954 5.629 17.244 5 25.5-1.393 18.299-5.931 36.301-12 53.5"/><path fill="#05445f" d="m302 484 3 2c-1.566 8.988-4.797 16.295-11 23-2.178-1.993-2.484-3.19-6-1-2.829-3.971-17.53-20.057-21.5-21-8.714-2.069-13.745 3.918-21.5-6l1-1c5.625 6.281 17.495 6.128 22-1.5 2.127-3.602 2.885-13.631 4-18 .252-.987 2.78-.017 3-1 3.364-15.055.281-31.381 1-46.5.046-.964-.376-2.031 1-2 .274 2.968.857 6.195 1 9 .883 17.313.182 40.023-5 56.5-.744 2.365-5.632 6.981-5 9 .177.566 9.168 5.727 10.5 5.5 14.063-2.398 13.194-57.366 12.5-68.5-.191-3.055-1.085-7.485-2-10.5.093-.063.898-1.578 1-2 3.73 28.964 4.82 57.756-6 85.5-4.78 1.339 2.508-5.769.5-7.5l-5.5 6.5c13.653 16.503 19.913 5.255 23-10.5"/><path fill="#0b879f" d="M745 419c-.547 8.236-.512 19.745 0 28 .786 12.655 1.962 27.755 11 37.5-.185 1.643-9.565 5.181-11 6.5-17.794-15.804-12.757-57.294-11-80z"/><path fill="#0a8aa3" d="M289 412c.915 3.015 1.809 7.445 2 10.5.694 11.134 1.563 66.102-12.5 68.5-1.332.227-10.323-4.934-10.5-5.5-.632-2.019 4.256-6.635 5-9 5.182-16.477 5.883-39.187 5-56.5 3.348-3.173 7.214-5.433 11-8"/><path fill="#6ae7f7" d="M241 416c.865 14.698 4.76 28.627 7 43-6.004-10.826-8.606-27.711-10-40-.11-.974.094-2.022 0-3z"/><path fill="#92bac6" d="M333 419c2.381 30.588 18.492 101.848 39 124.5 29.5 32.584 121.156 39.761 162.5 37.5 12.456-.681 74.805-10.008 82-17 2.503-2.432 1.128-5.149 1.5-5.5 3.581-3.373 8.615-2.843 10-7.5 5.436-2.8 15.39-7.782 19.5-12 14.292-14.669 31.182-78.614 34.5-100 5.39 1.29 3.662-1.765 7-3-3.854 28.98-20.824 93.996-43.5 113-6.306 5.285-23.184 11.152-26 14-2.387 2.415-.964 2.966-1.5 5-.082.31.067.681 0 1-65.876 20.977-164.869 25.539-227.5-7-41.241-21.426-58.328-96.374-62.5-140Z"/><path fill="#2fbce8" d="M437 453c12.564 40.791 61.046 61.433 100.5 49 14.596-4.6 26.917-17.108 38.5-26 7.013-5.384 15.448-9.802 22-16-1.908 5.975-1.915 7.126-5 13-8.728 16.619-25.335 32.998-43 40-20.025 7.938-34.409 4.665-54 7-9.823-4.999-20.664-6.724-30.5-12-20.613-11.058-36.529-31.362-42.5-54z"/><path fill="#48c0d6" d="M626 522c-7.833 6.429-20.529 13.446-30 17-8.341 3.13-18.255 5.101-27 7-5.148-11.745-9.307-24.043-19-33 17.665-7.002 34.272-23.381 43-40z"/><path fill="#127183" d="M659 488c-11.417 32.352-27.909 46.847-60 59l-3-8c9.471-3.554 22.167-10.571 30-17 12.099-9.931 19.037-21.727 25-36 3.153.901 4.298 4.858 8 2"/><path fill="#376c7f" d="M294 509c4.929 4.51 12.708 20.835 18 27.5 55.413 69.79 144.921 96.578 232 87.5 41.112-4.286 87.04-19.038 121-43l3 6c-5.643 4.135-15.139 12.055-20 15-.572.347-1.424.657-2 1-.219.13-1.701-.904-5 1-6.529 3.769-14.241 5.929-20 11-1.941-1.367-1.461-.496-3 0-4.145 1.335-7.944 3.61-12 5-2.001.686-4.67 1.238-7 2-1.183.387-2.807.628-4 1-2.334.729-4.654 1.335-7 2-2.931.832-6.026 2.265-9 3-.109.027.126.494-2 1-1.291.308-3.496.683-5 1-.603.127-1.393-.122-2 0-2.018.407-3.998.646-6 1-1.703.301-3.332.739-5 1-2.031.318-3.96.736-6 1-30.449 3.934-52.062 1.83-82 1-1.591-.044-1.986-3.486-4-.5 2.953 2.92 5.689 5.962 9 8.5.139 1.53-1.91.857-2 1-8.971-5.393-10.441-13.437-22.5-14-2.591 6.091 10.133 5.367 6 10 1.094.797 4.85 4.704 5.5 5l-1 1c-6.455-5.729-11.078-13.239-17-16-3.5-1.631-6.584-1.719-10-3-3.398-1.274-5.855-2.705-10-4-2.871-.897-6.095-3.211-9-2-.845-4.047-10.096-3.566-11-4-.624-.299-1.308-.67-2-1-6.914-3.296-14.163-7.409-21-11-3.079-1.617-4.778-.875-5-1-.226-.127.513-2.412-.5-3-.099-.057-.928 1.339-1.5 1-48.483-28.724-56.768-50.559-87-93 3.516-2.19 3.822-.993 6 1"/><path fill="#2c5464" d="M733 511c-24.192 34.192-28.588 49.316-65 76l-3-6c23.122-16.315 42.628-39.849 57-64 2.628-2.914 5.955-6.049 7-10 1.581.941 4.969-2.195 4 4"/><path fill="#56dcf2" d="M550 513c9.693 8.957 13.852 21.255 19 33-11.836 2.57-24.928 5.251-37 6-29.057 1.802-59.317-1.246-87.5-8-6.832-1.637-13.547-6.996-20.5-8 23.136-3.193 49.432-13.31 72-16 19.591-2.335 33.975.938 54-7"/><path fill="#a0c9d5" d="M665 581c-33.96 23.962-79.888 38.714-121 43-2.112-1.793 3.028-3.864 3.5-4 24.789-7.143 44.827-10.551 69.5-21 48.529-20.551 70.636-43.902 105-82-14.372 24.151-33.878 47.685-57 64"/><path fill="#00aac5" d="M424 536c6.953 1.004 13.668 6.363 20.5 8 28.183 6.754 58.443 9.802 87.5 8 .286 1.626-.628 6.199.5 7 2.241 1.591 28.575-5.11 33.5-3-49.865 9.341-113.975 8.236-159-17 4.042-1.926 9.535-3 14-3 1.271 0 .753-.324 3 0"/><path fill="#0497ad" d="m596 539 3 8c-10.688 4.048-21.76 6.895-33 9-4.925-2.11-31.259 4.591-33.5 3-1.128-.801-.214-5.374-.5-7 12.072-.749 25.164-3.43 37-6 8.745-1.899 18.659-3.87 27-7"/><path fill="#194152" d="m391.5 547 22.5 8.5 24 8c-15.468-3.113-33.481-7.056-46.5-16.5"/><path fill="#041a2c" d="M377 603c-9.296 23.14-15.311 53.556-11 78.5.932 5.39 3.78 15.621 8 16.5 2.009.418 16.008 1.408 17 .5 4.283-3.92 14.826-73.521 12-83.5.692.33 1.376.701 2 1l-9.5 84c10.362 2.246 12.133-1.105 15.5-10.5 7.358-20.528 4.092-47.974 5-69.5 2.905-1.211 6.129 1.103 9 2-.659 8.42-6.275 20.028-1 28-.493 2.528-2.795 7.405-3 9.5-2.09 21.397-2.347 101.797 2 121 .899 3.973 14.131 18.506 18 21.5 35.075 27.144 107.629 29.029 141-1 3.62-3.258 8.398-7.992 11-12h1c-33.703 51.685-137.172 46.778-170.5-4-1.209 2.292 1.85 4.305 2.5 6-4.384 5.169-2.508 23.722 0 29-.996-.383-2.004-.674-3-1l-5.5-138c-2.023 4.59-2.161 9.711-3.5 14.5-1.104 3.949-7.681 22.472-8 25-.3 2.38 3.078 10.743 3 15-.542 29.791-31.417 46.16-54 57.5-5.362 2.693-17.944 5.674-21.5 8-4.334 2.835-12.776 16.424-19.5 19.5-2.185 4.199 2.565 4.972 2 10.5-.654 6.407-12.549 22.135-9.5 32-2.371 1.93-21.275-27.855-19.5-32.5-7.985-.762 7.693 18.984 2.5 18.5l-7.5-14c.013-3.655-.009-7.345 0-11 1.253.678 2.098.668 3 1 .254.093.454 2.771 4.5 3 13.81.781 22.172-11.77 29.5-21 .095-.119 1.24 1.544 3-.5 6.101-7.085 6.009-15.677 4-24.5-1.287-5.65-2.484-7.686-9-10-6.523-5.705-8.654-3.665-15 3-2.806-1.813-2.867.069-3 0-7.589-3.9-19.918-8.894-28.5-8-6.929.722-6.933 5.798-13.5 10 6.479-13.213 15.267-12.485 28.5-10 3.541.665 12.284 5.985 13 6 2.923.062 13.393-10.787 18-4l48.5-52.5c-2.03-4.172 3.973-11.03 4-13 .014-1.012-6.464-14.868-7-19-3.355-25.866 4.889-59.002 13-83.5.572.339 1.401-1.057 1.5-1 1.013.588.274 2.873.5 3m-2.5 100c-2.579.423-7.679 7.171-6 8 7.204-6.615 40.449 14.608 36.5-1.5-1.83-7.466-16.845-3.226-21.5-3.5-.529-.031-.85-4.337-9-3M331 782c.487.962 1.609 3.886 2 5 .485 1.38-.444 4.454 0 6 .245.853-.511 2.418.5 3 25.95-.377 87.161-42.905 67.5-72-5.381-7.963-23.98-11.431-32.5-8-3.347 1.348-48.904 48.942-49.5 52.5-.46 2.747 10.249 10.04 12 13.5"/><path fill="#89d5f8" d="M382 604c-10.839 29.83-17.875 62.925-8 94-4.22-.879-7.068-11.11-8-16.5-4.311-24.944 1.704-55.36 11-78.5.222.125 1.921-.617 5 1"/><path fill="#75c9f1" d="M646 603c7.3 17.8 11.883 38.118 12 57.5.044 7.362-1.772 36.415-9 38.5 10.088-31.489 3.674-64.941-8-95 3.299-1.904 4.781-.87 5-1"/><path fill="#01192b" d="M655 704c-7.008.102-17.108-6.148-22.5-1l9 2c-5.445 1.021-23.373-2.179-24.5 5.5-1.933 13.17 22.216-.369 28.5-.5 4.643-.097 5.742 2.83 10 5 1.281-3.822-.929-5.948-.5-10 3.442 1.902 2.247 8.921 3 10.5 3.513 7.373 31.415 32.835 39 42 2.22 2.682 4.846 6.143 6 9.5h-1c-1.99-3.721-43.433-48.501-46.5-50-6.526-3.189-12.822-1.664-19.5 0-53.556 13.348 24.96 82.439 53 78 .192.494 3.27 3.063 3.5 3l2.5-3c.398 6.357 3.078 8.954 7.5 13 3.873-13.383 8.768-23.857 18.5-34 1.102.669 2.633-.832 2 3-8.542 14.356.322 17.663 9 24l-1 4c-15.054-6.784-24.247 2.372-5 6 .133 3.125.636 4.538-3 4-2.136-.688-3.751-1.364-6-2-2.651-.75-2.244-1.991-2.5-2-.587-.021-.115 2.793-2.5 2-2.436-2.602-4-5.798-5.5-9-6.103 2.93 12.87 30.07 33.5 21 2.195 5.106.315 6.13 0 7.5-1.544 6.725-4.189 20.254-12 21.5 3.337-5.008 10.3-18.032 8.5-24L719 863c-3.914-4.931-3.933-13.79-6-20.5-.827-2.684-5.448-8.449-6-10.5-1.916-7.117 4.69-5.966 0-13.5-6.278-10.085-26.828-20.032-37-25.5-19.951-10.726-51.149-23.875-55-50.5-.924-6.389 2.396-19.884 2-22-.087-.464-4.397-4.762-5-8-2.12-11.385-4.925-22.074-7-33.5-1.034-5.693-2.237-11.235-3-17-.358-2.707-.733-5.256-1-8-1.022-10.516-.056-21.563-2-32 2.33-.762 4.999-1.314 7-2l4 58.5c6.208-4.064 6.962 17.924 9 21 2.023 3.054 7.526-.666 10.5.5-4.961-28.168-13.013-56.007-11.5-85 1.539-.496 1.059-1.367 3 0-2.315 4.544-.649 26.254 0 32.5.614 5.913 9.017 48.136 11 51 .655.946 15.477.939 17 .5 7.228-2.085 9.044-31.138 9-38.5-.117-19.382-4.7-39.7-12-57.5.576-.343 1.428-.653 2-1 7.853 22.157 17.034 57.14 14 80.5-.935 7.198-5.899 14.345-7 21.5"/><path fill="url(#d)" d="M403 615c2.826 9.979-7.717 79.58-12 83.5-.992.908-14.991-.082-17-.5-9.875-31.075-2.839-64.17 8-94 6.837 3.591 14.086 7.704 21 11" style="fill:url(#d)"/>/&gt;<path fill="#028cce" d="M649 699c-1.523.439-16.345.446-17-.5-1.983-2.864-10.386-45.087-11-51-.649-6.246-2.315-27.956 0-32.5 5.759-5.071 13.471-7.231 20-11 11.674 30.059 18.088 63.511 8 95"/><path fill="#036a9f" d="M416 620c-.908 21.526 2.358 48.972-5 69.5-3.367 9.395-5.138 12.746-15.5 10.5l9.5-84c.904.434 10.155-.047 11 4"/><path fill="#02679d" d="M618 615c-1.513 28.993 6.539 56.832 11.5 85-2.974-1.166-8.477 2.554-10.5-.5-2.038-3.076-2.792-25.064-9-21l-4-58.5c4.056-1.39 7.855-3.665 12-5"/><path fill="#044d7c" d="M435 626c-9.137 5.764-8.904 12.768-11 22-.135.594.119 1.391 0 2-5.275-7.972.341-19.58 1-28 4.145 1.295 6.602 2.726 10 4"/><path fill="#033e67" d="M599 622c1.944 10.437.978 21.484 2 32l-9-10c-.756-8.749-4.266-13.922-13-16 2.974-.735 6.069-2.168 9-3l9.5 16-2.5-18c1.193-.372 2.817-.613 4-1"/><path fill="#031b30" d="M588 625c2.346-.665 4.666-1.271 7-2l2.5 18z"/><path fill="url(#e)" d="M445 629c8.138 17.018 36.503 36.84 54.5 39 32.003 3.841 61.048-12.033 77.5-39 2.126-.506 1.891-.973 2-1 8.734 2.078 12.244 7.251 13 16 3.916 45.34-7.179 108.402-10 155-.006.1-1.684-.176 0 2-33.371 30.029-105.925 28.144-141 1l-17-154c2.096-9.232 1.863-16.236 11-22 3.416 1.281 6.5 1.369 10 3m62.5 49c-11.143 1.211-30.509 13.677-37.5 22.5-30.289 38.228 33.768 108.149 77 57 30.949-36.617 9.293-84.803-39.5-79.5" style="fill:url(#e)"/>/&gt;<path fill="#06192a" d="M462 645c37.577 33.352 83.305 26.683 110-15 1.504-.317 3.709-.692 5-1-16.452 26.967-45.497 42.841-77.5 39-17.997-2.16-46.362-21.982-54.5-39 5.922 2.761 10.545 10.271 17 16"/><path fill="#013057" d="M474 643c-.387.614 1.762 1.571.5 2-3.381 1.149-8.334.443-11.5-1-.65-.296-4.406-4.203-5.5-5 4.133-4.633-8.591-3.909-6-10 12.059.563 13.529 8.607 22.5 14"/><path fill="#003961" d="m570 630-9.5 10 3.5-9c2.002-.354 3.982-.593 6-1"/><path fill="#0172b4" d="M572 630c-26.695 41.683-72.423 48.352-110 15l1-1c3.166 1.443 8.119 2.149 11.5 1 1.262-.429-.887-1.386-.5-2 .09-.143 2.139.53 2-1 27.307 20.932 59.783 11.99 83-10 1.668-.261 3.297-.699 5-1l-3.5 9 9.5-10c.607-.122 1.397.127 2 0"/><path fill="#02253c" d="M471 634c20.905 24.519 61.606 23.66 82-1 2.04-.264 3.969-.682 6-1-23.217 21.99-55.693 30.932-83 10-3.311-2.538-6.047-5.58-9-8.5 2.014-2.986 2.409.456 4 .5"/><path fill="#2dd7eb" d="M553 633c-20.394 24.66-61.095 25.519-82 1 29.938.83 51.551 2.934 82-1"/><path fill="#587277" d="M601 654c.267 2.744.642 5.293 1 8-.924.262-1.999 3.855-2 4.5-.029 31.792 3.847 65.902 1 96-.253 2.675-.948 12.551-2 16.5l-17 20c2.821-46.598 13.916-109.66 10-155z"/><path fill="#aecdd6" d="M441 802c-3.869-2.994-17.101-17.527-18-21.5-4.347-19.203-4.09-99.603-2-121 .205-2.095 2.507-6.972 3-9.5.119-.609-.135-1.406 0-2z"/><path fill="#021d37" d="m605 679-2 111.5-5 28 53-18.5c-2.583 1.499-1.649 4.01-3.5 5-5.9 3.154-15.713 4.974-21 10 33.484-8.448 51.094-5.561 76.5 16.5 2.315 2.01 1.213.73 4 .5.552 2.051 5.173 7.816 6 10.5 2.067 6.71 2.086 15.569 6 20.5 1.657.822 8.045-7.566 9-9 7.811-1.246 10.456-14.775 12-21.5.315-1.37 2.195-2.394 0-7.5 12.871-5.659 13.458-17.831 4-26.5l2.5 8.5c-3.62-4.53-4.12-10.459-10-13-3.984 2.785 13.314 20.661 1 27-8.356 4.301-19.805-1.917-25.5-8 2.385.793 1.913-2.021 2.5-2 .256.009-.151 1.25 2.5 2 3.942 4.698 13.404 9.709 19 5.5-5.678.679-8.789-2.143-13-3.5 3.636.538 3.133-.875 3-4 3.914.738 7.999 1.775 12 .5.331-.429-6.268-6.17-7-6.5l1-4c4.112 3.003-.125 7.12 7 6.5-2.368-3.318-10.246-29.39-10-31 .824-5.387 22.135-8.094 27-8-7.15-2.912-29.14 2.012-33 8.5.633-3.832-.898-2.331-2-3-1.681-1.019-8.462-5.944-9-6 3.739.877 11.392 5.042 12.5 5 .715-.027 10.151-5.441 13-6 3.89-.764 15.723-1.893 19-1 4.426 1.207 8.409 12.778 11 14 .231.109 3.039-2.169 5-1 7.277 4.34 17.25 16.343 15.5 25.5-.875 4.581-14.338 15.725-18.5 17.5-5.721 2.439-20.68 2.727-23.5 7.5-1.406 2.379-2.216 12.236-4 16-8.979 18.946-29.664 37.923-47 49.5-33.539 22.399-67.566 29.325-107 33l-18.5-1 4.5-5c1.348-.586.937-.968 1-1 13.335-6.664 28.564-21.916 24-38-4.283-15.092-28.21-17.4-41-16-1.141.125-15.947 1.626-14 4.5 6.995 1.105 12.886 4.663 17 10.5 8.137 11.545 8.596 28.987-4 37.5l15-2c-5.122 3.255-11.803 3.634-17.5 5.5-3.578 1.172-2.49-.432-.5 2-9.257.182-18.22-1.211-27.5-1-4.764-1.978 18.021-7.531 5.5-10 12.528-2.495 17.609-9.211 15-22-2.528-12.39-16.718-17.73-27.5-23-42.631-20.836-147.616-71.528-188.5-39-2.597 2.066-6.688 3.557-7 8h-1l-2-.5c16.291-28.102 53.27-24.51 81-19l-15.5-4.5c-41.336-7.669-75.973 11.039-76 56-4.245-10.865 2.125-29.133 8.5-38 14.614-20.326 47.673-24.189 70.5-19-.652-4.883-9.321-5.186-12-7-2.864-1.939 1.773-2.134-3.5-5 17.093 3.908 32.418 12.572 49 18 .996.326 2.004.617 3 1 .815 1.715 4.958 6.757 6 3.5-3.234-7.283-5.866-15.332-5.5-23.5 6.016 9.1 4.364 22.896 11.5 30.5-2.641-12.666-6.1-25.596-11-37.5 9.739 15.521 24.437 21.141 40 29-12.212-3.613-23.323-9.648-33.5-17l8 26 70 30 2.5-.5c.161-6.786-.755-16.47 4.5-21.5 1.295 3.736-.827 21.797 3 23 5.342-3.01 10.752-8.128 16-11 8.932-4.887 43.664-19.046 47.5-24.5 1.078-1.532 11.121-28.407 11-30-.134-1.752-.434-1.95-2-1-.801.486-7.812 9.905-13 13.5 5.595-6.385 12.206-12.254 15-20.5l-2 .5h-1c1.882-2.898 5.177-6.909 6-10 1.052-3.949 1.747-13.825 2-16.5 2.847-30.098-1.029-64.208-1-96 .001-.645 1.076-4.238 2-4.5.763 5.765 1.966 11.307 3 17m142 99c.711-.316 1.289-.684 2-1 2.676 1.364 9.562 13.926 12.5 13 4.932-1.555-3.9-12.82-4-14-.634-7.499 8.87 11.458 8.5 13.5l2-1c1.607-7.425-5.722-11.245-8.5-17.5-5.866-.211-6.127 4.055-10.5 6 1.318-1.424 1.403-2.532 2-4 .047-.116 1.682-.646 2-1.5-.484-.875-1.326-.37-2-.5-4.839-.932-23.382 3.184-16.5 11 3.421-1.778 9.548-2.689 12.5-4m19 27c-2.1 1.828-4.775 7.465-8.5 11-3.966 3.763-9.119 7.181-13.5 10.5 9.711-2.393 19.522-6.104 22.5-16.5l2 9c.941.755 4.748-3.379 5.5-4 5.125-4.229 4.772-5.398 7-11 .29-.728-1.514-1.323-1-2.5 3.884-8.888 2.76 3.717 6 3 1.674-9.141-6.529-17.67-14.5-21.5l8.5 15.5-1.5 2.5c-.718-3.802-10.303 2.999-11.5 4l9-8.5c-4.581-10.059-5.13 2.514-8.5 2.5-1.238-.005-15.833-17.587-17-18-2.334-.825-14.921 1.852-15.5 4.5-.709 3.24 13.41 12.378 14.5 12.5 3.068.344 8.751-13.281 16.5 7m-12.5 4c-1.982-.096-3.573 3.668-1 4 .791.102 3.728-3.867 1-4m-102 3c-5.6.216-21.462 3.254-27 5-1.588.5-6.611.813-5 3 26.612-7.197 50.121-9.137 74.5 5.5-11.852-9.762-27.278-14.088-42.5-13.5M586 867c3.058 1.154 11.273 6.465 13 9 5.427 7.966 4.302 18.789 0 27-.636 1.215-5.599 6.482-7 8-2.049 2.221-6.692 4.263-7.5 7 33.985-3.094 73.088-8.609 103-26 10.655-6.195 17.234-9.306 19.5-22 2.763-15.476.364-19.768-7-31-2.582-3.938-1.362-4.163-6-8-33.571-27.77-93.6-4.312-128.5 12-4.62 2.159-40.652 21.157-40.5 23.5.31 4.789 21.754-1.231 25.5-1.5 11.978-.86 24.086-2.306 35.5 2m-36 21c-.841 13.802 3.904 22.197-12 31.5 24.285 3.981 28.398-24.24 15-39.5-3.839-4.372-7.637-8.612-14-6.5z"/><path fill="#0e1b29" d="M507.5 678c48.793-5.303 70.449 42.883 39.5 79.5-43.232 51.149-107.289-18.772-77-57 6.991-8.823 26.357-21.289 37.5-22.5m-7.5 4c-47.011 13.537-46.591 64.973-6 87 21.734 11.794 41.619 1.732 55-17.5 27.572-39.628-4.096-82.431-49-69.5"/><path fill="#4ad9ed" d="M494 769v-7c54.681 25.285 90.129-84.752 13-76-1.812.206-4.282.555-6 1-.244-3.382 1.962-3.001-1-5 44.904-12.931 76.572 29.872 49 69.5-13.381 19.232-33.266 29.294-55 17.5"/><path fill="#8ef1fa" d="M501 687c-11.942 3.097-29.809 20.732-31 33.5-1.19 12.757 11.322 36.974 24 40.5v8c-40.591-22.027-41.011-73.463 6-87 2.962 1.999.756 1.618 1 5"/><path fill="#1dc6e1" d="m507 686 8 7c-48.001-3.361-47.109 71.624-2 67-.488 2.688-17.849 1.32-19 1-12.678-3.526-25.19-27.743-24-40.5 1.191-12.768 19.058-30.403 31-33.5 1.718-.445 4.188-.794 6-1"/><path fill="#089eb5" d="M494 762v-1c1.151.32 18.512 1.688 19-1 33.772-3.462 46.848-63.859 2-67l-8-7c77.129-8.752 41.681 101.285-13 76"/><path fill="#02272e" d="M515 693c44.848 3.141 31.772 63.538-2 67-45.109 4.624-46.001-70.361 2-67m-8.5 3c-45.316 6.179-21.369 83.715 20 54 27.099-19.465 13.177-58.524-20-54"/><path fill="#1ac9de" d="M506.5 696c33.177-4.524 47.099 34.535 20 54-41.369 29.715-65.316-47.821-20-54m-9 7c-6.885 1.589-11.196 14.275-3 18 15.595 7.089 21.085-22.174 3-18"/><path fill="#015189" d="M655 704c-.05.324.035.671 0 1-.429 4.052 1.781 6.178.5 10-4.258-2.17-5.357-5.097-10-5-6.284.131-30.433 13.67-28.5.5 1.127-7.679 19.055-4.479 24.5-5.5l-9-2c5.392-5.148 15.492 1.102 22.5 1"/><path fill="#005289" d="M374.5 703c8.15-1.337 8.471 2.969 9 3 4.655.274 19.67-3.966 21.5 3.5 3.949 16.108-29.296-5.115-36.5 1.5-1.679-.829 3.421-7.577 6-8"/><path fill="#c1f8fe" d="M497.5 703c18.085-4.174 12.595 25.089-3 18-8.196-3.725-3.885-16.411 3-18"/><path fill="#f2f3f7" d="m401 724-19.5-7c-.672 28.412-33.482 42.692-52.5 59.5-.177 3.443 6.186.101 7.5-.5 11.631-5.318 20.72-18.132 32.5-23.5-11.125 11.813-24.764 20.377-38 29.5-1.751-3.46-12.46-10.753-12-13.5.596-3.558 46.153-51.152 49.5-52.5 8.52-3.431 27.119.037 32.5 8"/><path fill="#f1f3f7" d="M702 767c3.132 5.856-2.342 4.824-6 10-12.267-3.189-21.957-19.011-31.5-25-1.045-.656-4.003-2.13-3.5 1-4.138-6.747-12.428-12.709-16-19.5-3.672-6.98-2.136-15.536-9-16.5 6.678-1.664 12.974-3.189 19.5 0 3.067 1.499 44.51 46.279 46.5 50"/><path fill="#b7d5df" d="M401 724c19.661 29.095-41.55 71.623-67.5 72-1.011-.582-.255-2.147-.5-3 24.722-1.612 74.391-33.556 69-61.5-.068-.354-1.631-5.023-3-4 .784 4.919-2.369 9.022-5 13-14.31 21.636-35.091 40.798-61 46.5-.391-1.114-1.513-4.038-2-5 13.236-9.123 26.875-17.687 38-29.5-11.78 5.368-20.869 18.182-32.5 23.5-1.314.601-7.677 3.943-7.5.5 19.018-16.808 51.828-31.088 52.5-59.5z"/><path fill="#b9d7e1" d="M636 717c6.864.964 5.328 9.52 9 16.5 3.572 6.791 11.862 12.753 16 19.5l8.5 11c-4.449-3.205-11.265-10.973-15.5-13.5-.738-.441-3.315-2.402-3 0 12.826 11.431 25.922 23.536 42 30.5-.861 1.48-2.596 4.539-3 6-25.643-7.562-41.744-20.949-58-41.5-1.868-2.362-10.279-19.572-12-12-5.379 23.668 48.361 58.13 69 60.5.058.35-.097.749 0 1-28.04 4.439-106.556-64.652-53-78"/><path fill="#678c96" d="M333 793c-.444-1.546.485-4.62 0-6 25.909-5.702 46.69-24.864 61-46.5 2.631-3.978 5.784-8.081 5-13 1.369-1.023 2.932 3.646 3 4 5.391 27.944-44.278 59.888-69 61.5"/><path fill="#668b95" d="M690 787c-.453 1.639-1.255 5.471-1 7-20.639-2.37-74.379-36.832-69-60.5 1.721-7.572 10.132 9.638 12 12 16.256 20.551 32.357 33.938 58 41.5"/><path fill="#e5edf2" d="M661 753c-.503-3.13 2.455-1.656 3.5-1 9.543 5.989 19.233 21.811 31.5 25-.983 1.39-2.146 2.533-3 4-16.078-6.964-29.174-19.069-42-30.5-.315-2.402 2.262-.441 3 0 4.235 2.527 11.051 10.295 15.5 13.5z"/><path fill="#013665" d="M299 775c6.439 14.237 3.014 22.184-11.5 27-.036-9.79 4.288-18.175 6.5-27.5-3.493-.99-23.309-8.831-25-4.5 1.324 1.407 1.406 2.573 2 4 1.057 11.317-11.715 12.996-16.5 21l-.5-16c.954-.688 2.003-1.362 3-2 6.567-4.202 6.571-9.278 13.5-10 8.582-.894 20.911 4.1 28.5 8m-34.5-2c-2.602.937-8.932 16.572-7 17z"/><path fill="#021b33" d="M712 768c-4.101-.425-5.742 3.337-8 5-5.526 4.069-11.716 8.997-12 16.5l12-14.5c-2.992 8.272-9.721 8.482-9 20l-2.5 3c-.23.063-3.308-2.506-3.5-3-.097-.251.058-.65 0-1-.255-1.529.547-5.361 1-7 .404-1.461 2.139-4.52 3-6 .854-1.467 2.017-2.61 3-4 3.658-5.176 9.132-4.144 6-10h1c3.574 2.997 3.514-.287 9 1"/><path fill="#013767" d="M732 801c-8.678-6.337-17.542-9.644-9-24 3.86-6.488 25.85-11.412 33-8.5-4.865-.094-26.176 2.613-27 8-.246 1.61 7.632 27.682 10 31-7.125.62-2.888-3.497-7-6.5"/><path fill="#013461" d="M317 772c2.849 2.492 6.136 7.211 9 10 2.009 8.823 2.101 17.415-4 24.5-1.76 2.044-2.905.381-3 .5-.545-1.618-.656-3.397-1-5-1.889-8.804-8.26-22-16-27 6.346-6.665 8.477-8.705 15-3"/><path fill="#013360" d="M712 768c.538.056 7.319 4.981 9 6-9.732 10.143-14.627 20.617-18.5 34-4.422-4.046-7.102-6.643-7.5-13-.721-11.518 6.008-11.728 9-20 .383-1.058 1.735-1.833 0-2 2.258-1.663 3.899-5.425 8-5"/><path fill="#001c34" d="M299 775c.133.069.194-1.813 3 0 7.74 5 14.111 18.196 16 27-8.195 13.977-17.874 23.583-35 18-.954-1.734-4.533-10.154-5-10.5-2.229-1.652-3.606 3.375-4 0l5.5-9.5c.043 12.643 10.994-5.328 6-7-2.492-.834-26.095 18.779-3.5 31-.009 3.655.013 7.345 0 11-.022 6.174.042 8.736 3 15-5.096-3.254-6.454-19.756-8.5-22-1.556-1.706-19.993-4.516-25-7-10.884-5.4-20.922-16.501-14.5-28.5 4.532-8.469 12.271-10.091 17-13.5l.5 16c4.785-8.004 17.557-9.683 16.5-21 .027.065.449.359 1 1 1.52 1.768.157 1.554 3 3 23.95 12.183 14.261-10.057-6-8 1.691-4.331 21.507 3.51 25 4.5-2.212 9.325-6.536 17.71-6.5 27.5 14.514-4.816 17.939-12.763 11.5-27m-30 21c-13.63-2.168-16.123 26.724 0 26.5-5.834-7.729-12.571-12.726-5.5-22.5 3.557 1.036-1.988 5.499-1 7 3.31 5.029 6.696-8.399 6.5-10l2 3c-.586.748-3.787 7.617-.5 8 .581-1.887 1.604-7.554 2.5-9 2.824-4.554 19.966-10.462 12.5-16-.536-.397-12.355-3.17-13-3-1.197.316-13.767 16.403-17 18-3.514.099-2.55-5.9-5-6-8.306-.338 2.601 12.015 6 13 .833-4.218 10.268-17.871 12.5-9m-25.5 8c-4.106 6.626 15.226 22.404 18.5 17.5-4.801-4.482-7.011-9.153-6.5-15.5l-3 9zm43 0c-.66.086-2.375 2.391-1 3 1.677.743 4.083-3.4 1-3m8 0c-3.605.674-7.115 3.824-9.5 6.5-.195 2.179 23.026 1.346 18.5-6.5-2.778.345-6.401-.486-9 0m-10 9c3.243 11.124 15.803 6.133 21.5.5-9.461 3.286-12.732 7.782-21.5-.5"/><path fill="#014479" d="m275 778-3-3c-.551-.641-.973-.935-1-1-.594-1.427-.676-2.593-2-4 20.261-2.057 29.95 20.183 6 8"/><path fill="#014a81" d="M751 771c-.09.623.164 1.716 0 2-.267.463-5.743 3.402-4 5-2.952 1.311-9.079 2.222-12.5 4-6.882-7.816 11.661-11.932 16.5-11"/><path fill="#46a0c4" d="M751 773c.164-.284-.09-1.377 0-2 .674.13 1.516-.375 2 .5-.318.854-1.953 1.384-2 1.5"/><path fill="#013667" d="M749 777c4.373-1.945 4.634-6.211 10.5-6 2.778 6.255 10.107 10.075 8.5 17.5l-2 1c.37-2.042-9.134-20.999-8.5-13.5.1 1.18 8.932 12.445 4 14-2.938.926-9.824-11.636-12.5-13"/><path fill="#2977a3" d="M326 782c-2.864-2.789-6.151-7.508-9-10 6.516 2.314 7.713 4.35 9 10"/><path fill="#021225" d="m264.5 773-7 17c-1.932-.428 4.398-16.063 7-17"/><path fill="#1d6fa0" d="M704 773c1.735.167.383.942 0 2l-12 14.5c.284-7.503 6.474-12.431 12-16.5"/><path fill="#46a0c4" d="M749 777c-.711.316-1.289.684-2 1-1.743-1.598 3.733-4.537 4-5-.597 1.468-.682 2.576-2 4"/><path fill="#50abd0" d="M275 778c-2.843-1.446-1.48-1.232-3-3z"/><path fill="#85b2bf" d="M593 789c-2.602 4.008-7.38 8.742-11 12-1.684-2.176-.006-1.9 0-2l17-20c-.823 3.091-4.118 7.102-6 10"/><path fill="#fbfbfc" d="M273 799c-.439.108-1.931.912-2 1l-2-3c-.04-.324.077-.695 0-1-2.232-8.871-11.667 4.782-12.5 9-3.399-.985-14.306-13.338-6-13 2.45.1 1.486 6.099 5 6 3.233-1.597 15.803-17.684 17-18 .645-.17 12.464 2.603 13 3 7.466 5.538-9.676 11.446-12.5 16"/><path fill="#fcfcfc" d="M767 805c-.196.164-.81-.165-1 0-7.749-20.281-13.432-6.656-16.5-7-1.09-.122-15.209-9.26-14.5-12.5.579-2.648 13.166-5.325 15.5-4.5 1.167.413 15.762 17.995 17 18 3.37.014 3.919-12.559 8.5-2.5z"/><path fill="#01294e" d="m781 804-7 11c-.752.621-4.559 4.755-5.5 4l-2-9c-2.978 10.396-12.789 14.107-22.5 16.5 4.381-3.319 9.534-6.737 13.5-10.5 3.725-3.535 6.4-9.172 8.5-11 .19-.165.804.164 1 0 1.197-1.001 10.782-7.802 11.5-4l1.5-2.5-8.5-15.5c7.971 3.83 16.174 12.359 14.5 21.5-3.24.717-2.116-11.888-6-3-.514 1.177 1.29 1.772 1 2.5"/><path fill="#b0ced8" d="m594 789 2-.5c-2.794 8.246-9.405 14.115-15 20.5-32.461 22.496-76.981 23.951-114 13-15.563-7.859-30.261-13.479-40-29-.307-.745-.711-1.247-1-2-.65-1.695-3.709-3.708-2.5-6 33.328 50.778 136.797 55.685 170.5 4"/><path fill="#033257" d="M427 793c4.9 11.904 8.359 24.834 11 37.5-7.136-7.604-5.484-21.4-11.5-30.5-.366 8.168 2.266 16.217 5.5 23.5-1.042 3.257-5.185-1.785-6-3.5-2.508-5.278-4.384-23.831 0-29 .289.753.693 1.255 1 2"/><path fill="#023a68" d="M283 820c1.085 1.971 3.696 2.721 2 5-.902-.332-1.747-.322-3-1-22.595-12.221 1.008-31.834 3.5-31 4.994 1.672-5.957 19.643-6 7l-5.5 9.5c.394 3.375 1.771-1.652 4 0 .467.346 4.046 8.766 5 10.5"/><path fill="#033766" d="M355 793c5.779 3.714 12.951 4.712 19 8 5.273 2.866.636 3.061 3.5 5 2.679 1.814 11.348 2.117 12 7-22.827-5.189-55.886-1.326-70.5 19l-3-1c.565-5.528-4.185-6.301-2-10.5 6.724-3.076 15.166-16.665 19.5-19.5 3.556-2.326 16.138-5.307 21.5-8"/><path fill="#033765" d="M707 832c-2.787.23-1.685 1.51-4-.5-25.406-22.061-43.016-24.948-76.5-16.5 5.287-5.026 15.1-6.846 21-10 1.851-.99.917-3.501 3.5-5 6.64-3.853 12.366-3.722 19-7 10.172 5.468 30.722 15.415 37 25.5 4.69 7.534-1.916 6.383 0 13.5"/><path fill="#01325d" d="M740 825c-20.63 9.07-39.603-18.07-33.5-21 1.5 3.202 3.064 6.398 5.5 9 5.695 6.083 17.144 12.301 25.5 8 12.314-6.339-4.984-24.215-1-27 5.88 2.541 6.38 8.47 10 13l-2.5-8.5c9.458 8.669 8.871 20.841-4 26.5"/><path fill="#013769" d="M269 796c.077.305-.04.676 0 1 .196 1.601-3.19 15.029-6.5 10-.988-1.501 4.557-5.964 1-7-7.071 9.774-.334 14.771 5.5 22.5-16.123.224-13.63-28.668 0-26.5"/><path fill="#053d6d" d="M467 822c37.019 10.951 81.539 9.496 114-13 5.188-3.595 12.199-13.014 13-13.5 1.566-.95 1.866-.752 2 1 .121 1.593-9.922 28.468-11 30-3.836 5.454-38.568 19.613-47.5 24.5-5.248 2.872-10.658 7.99-16 11-3.827-1.203-1.705-19.264-3-23-5.255 5.03-4.339 14.714-4.5 21.5l-2.5.5-70-30-8-26c10.177 7.352 21.288 13.387 33.5 17"/><path fill="#084e7b" d="M271 800c.069-.088 1.561-.892 2-1-.896 1.446-1.919 7.113-2.5 9-3.287-.383-.086-7.252.5-8"/><path fill="#01284c" d="M319 807c-7.328 9.23-15.69 21.781-29.5 21-4.046-.229-4.246-2.907-4.5-3 1.696-2.279-.915-3.029-2-5 17.126 5.583 26.805-4.023 35-18 .344 1.603.455 3.382 1 5"/><path fill="#003462" d="M731 805c.732.33 7.331 6.071 7 6.5-4.001 1.275-8.086.238-12-.5-19.247-3.628-10.054-12.784 5-6"/><path fill="#013662" d="m243.5 804 9 11 3-9c-.511 6.347 1.699 11.018 6.5 15.5-3.274 4.904-22.606-10.874-18.5-17.5"/><path fill="#2390c2" d="M286.5 804c3.083-.4.677 3.743-1 3-1.375-.609.34-2.914 1-3"/><path fill="#00284d" d="M294.5 804c2.599-.486 6.222.345 9 0 4.526 7.846-18.695 8.679-18.5 6.5 2.385-2.676 5.895-5.826 9.5-6.5"/><path fill="#004779" d="m774 815 7-11c-2.228 5.602-1.875 6.771-7 11"/><path fill="#eff9f5" d="M753.5 809c2.728.133-.209 4.102-1 4-2.573-.332-.982-4.096 1-4"/><path fill="#042647" d="M323 838c-5.564 9.083-8.904 22.325-7 33 3.009 16.867 47.376 33.847 62.5 38 38.489 10.57 114.391 12.788 153.5 5 12.521 2.469-10.264 8.022-5.5 10 9.28-.211 18.243 1.182 27.5 1 9.416-.185 11.256.8 20-3l-4.5 5 18.5 1c-72.821 6.787-196.301 9.881-258-33-13.1-9.104-38.306-30.828-45-45-2.958-6.264-3.022-8.826-3-15l7.5 14c5.193.484-10.485-19.262-2.5-18.5-1.775 4.645 17.129 34.43 19.5 32.5-3.049-9.865 8.846-25.593 9.5-32l3 1c-6.375 8.867-12.745 27.135-8.5 38 .027-44.961 34.664-63.669 76-56l15.5 4.5c-27.73-5.51-64.709-9.102-81 19z"/><path fill="#023158" d="M651.5 812c15.222-.588 30.648 3.738 42.5 13.5-24.379-14.637-47.888-12.697-74.5-5.5-1.611-2.187 3.412-2.5 5-3 5.538-1.746 21.4-4.784 27-5"/><path fill="#013764" d="M284.5 813c8.768 8.282 12.039 3.786 21.5.5-5.697 5.633-18.257 10.624-21.5-.5"/><path fill="#003a67" d="M723 815c4.211 1.357 7.322 4.179 13 3.5-5.596 4.209-15.058-.802-19-5.5 2.249.636 3.864 1.312 6 2"/><path fill="#f2f1f5" d="M547 892c-9.208.342-19.403-1.74-29-3l-169.5-52c3.527-1.995 10.243.072 14 1 33.574 8.298 94.193 35.357 125 38 .874.075 3.036.316 3.5-.5-52.52-16.019-105.62-35.044-160-45.5 40.884-32.528 145.869 18.164 188.5 39 10.782 5.27 24.972 10.61 27.5 23"/><path fill="#f1f1f5" d="M694 831c-5.227 3.708-15.248.425-15.5 7L586 867c-11.414-4.306-23.522-2.86-35.5-2-3.746.269-25.19 6.289-25.5 1.5-.152-2.343 35.88-21.341 40.5-23.5 34.9-16.312 94.929-39.77 128.5-12m-33.5 6L580 861.5c1.306 2.059 4.471.845 6.5.5 9.767-1.659 27.733-7.825 38-11 2.719-.841 40.86-13.016 39-14-.991.062-2.016-.093-3 0"/><path fill="#c4d9de" d="M518 889c-28.087-3.687-55.765-8.368-83.5-14L327 846c-1.126-2.571-3.215-4.943-3-8 .312-4.443 4.403-5.934 7-8 54.38 10.456 107.48 29.481 160 45.5-.464.816-2.626.575-3.5.5-30.807-2.643-91.426-29.702-125-38-3.757-.928-10.473-2.995-14-1z"/><path fill="#002c4e" d="M728 854c-.955 1.434-7.343 9.822-9 9l17.5-33c1.8 5.968-5.163 18.992-8.5 24"/><path fill="#c1d6dd" d="M700 839c-.692 3.951-2.479 5.897-4 9l-97 28c-1.727-2.535-9.942-7.846-13-9l92.5-29c.252-6.575 10.273-3.292 15.5-7 4.638 3.837 3.418 4.062 6 8"/><path fill="#b1d5e7" d="M660.5 837c.984-.093 2.009.062 3 0 1.86.984-36.281 13.159-39 14-10.267 3.175-28.233 9.341-38 11-2.029.345-5.194 1.559-6.5-.5z"/><path fill="#5c7379" d="M327 846c8.878 20.27 33.512 32.019 53 40l-8 17c-20.42-5.763-41.877-16.112-56-32-1.904-10.675 1.436-23.917 7-33h1c-.215 3.057 1.874 5.429 3 8"/><path fill="#536062" d="M707 870c-25.948 32.501-75.945 38.357-115 41 1.401-1.518 6.364-6.785 7-8 32.769-8.46 81.083-22.524 97-55 1.521-3.103 3.308-5.049 4-9 7.364 11.232 9.763 15.524 7 31"/><path fill="#a8c8d1" d="M518 889c9.597 1.26 19.792 3.342 29 3 2.609 12.789-2.472 19.505-15 22-39.109 7.788-115.011 5.57-153.5-5-15.124-4.153-59.491-21.133-62.5-38 14.123 15.888 35.58 26.237 56 32 28.395 8.014 139.749 14.013 164.5 4 3.535-1.43 7.714-3.822 9.5-7.5-.334-2.268-14.346 4.072-17.5 4.5-40.318 5.477-110.809-2.564-148.5-18-19.488-7.981-44.122-19.73-53-40l107.5 29c27.735 5.632 55.413 10.313 83.5 14"/><path fill="#a2c4cf" d="M696 848c-15.917 32.476-64.231 46.54-97 55 4.302-8.211 5.427-19.034 0-27z"/><path fill="#5bd0f0" d="m599 883-7-1.5c3.243 9.205 1.691 19.611-7 25.5 6.064-9.369 8.436-17.806 1-27-7.66-9.471-19.283-6.903-28-13 12.79-1.4 36.717.908 41 16"/><path fill="#0bb0e8" d="M558 867c8.717 6.097 20.34 3.529 28 13l-25 2c-4.114-5.837-10.005-9.395-17-10.5-1.947-2.874 12.859-4.375 14-4.5"/><path fill="#a6c3cb" d="M592 911c39.055-2.643 89.052-8.499 115-41-2.266 12.694-8.845 15.805-19.5 22-29.912 17.391-69.015 22.906-103 26 .808-2.737 5.451-4.779 7.5-7"/><path fill="#0793d0" d="M553 880c-.458 1.803-2.923 6.736-3 8l-11-14.5c6.363-2.112 10.161 2.128 14 6.5"/><path fill="#03669e" d="M550 888c.077-1.264 2.542-6.197 3-8 13.398 15.26 9.285 43.481-15 39.5 15.904-9.303 11.159-17.698 12-31.5"/><path fill="#018dc8" d="M586 880c7.436 9.194 5.064 17.631-1 27-4.247 6.562-10.085 7.385-10 14-.063.032.348.414-1 1-8.744 3.8-10.584 2.815-20 3-1.99-2.432-3.078-.828.5-2 5.697-1.866 12.378-2.245 17.5-5.5l-15 2c12.596-8.513 12.137-25.955 4-37.5z"/><path fill="#1999c8" d="M599 883c4.564 16.084-10.665 31.336-24 38-.085-6.615 5.753-7.438 10-14 8.691-5.889 10.243-16.295 7-25.5z"/><path fill="#6a868f" d="m372 903 8-17c37.691 15.436 108.182 23.477 148.5 18 3.154-.428 17.166-6.768 17.5-4.5-1.786 3.678-5.965 6.07-9.5 7.5-24.751 10.013-136.105 4.014-164.5-4"/></svg>