<svg xmlns="http://www.w3.org/2000/svg" width="1024" height="1024"><defs><linearGradient id="a" x1="337.291" x2="726.815" y1="173.806" y2="501.452" gradientUnits="userSpaceOnUse"><stop offset="21.022%" style="stop-color:#b4dde8"/><stop offset="100%" style="stop-color:#2a657f"/></linearGradient></defs><defs><linearGradient id="b" x1="802.217" x2="801.734" y1="314.678" y2="397.677" gradientUnits="userSpaceOnUse"><stop offset="0%" style="stop-color:#206b8a"/><stop offset="100%" style="stop-color:#083552"/></linearGradient></defs><defs><linearGradient id="c" x1="486.27" x2="539.735" y1="288.915" y2="440.778" gradientUnits="userSpaceOnUse"><stop offset="0%" style="stop-color:#162748"/><stop offset="54.658%" style="stop-color:#175985"/><stop offset="100%" style="stop-color:#12d7f5"/></linearGradient></defs><defs><linearGradient id="d" x1="464.93" x2="576.792" y1="554.918" y2="733.825" gradientUnits="userSpaceOnUse"><stop offset="0%" style="stop-color:#ddeaf1"/><stop offset="100%" style="stop-color:#7892aa"/></linearGradient></defs><defs><linearGradient id="e" x1="708.769" x2="718.776" y1="677.64" y2="718.43" gradientUnits="userSpaceOnUse"><stop offset="0%" style="stop-color:#a0e7f7"/><stop offset="100%" style="stop-color:#70c5de"/></linearGradient></defs><defs><linearGradient id="f" x1="288.028" x2="285.1" y1="677.236" y2="710.106" gradientUnits="userSpaceOnUse"><stop offset="0%" style="stop-color:#effcfe"/><stop offset="100%" style="stop-color:#c9f4fc"/></linearGradient></defs><defs><linearGradient id="g" x1="318.561" x2="354.935" y1="733.411" y2="763.176" gradientUnits="userSpaceOnUse"><stop offset="0%" style="stop-color:#56b5d3"/><stop offset="100%" style="stop-color:#3e9cbb"/></linearGradient></defs><defs><linearGradient id="h" x1="448.25" x2="615.596" y1="782.692" y2="812.61" gradientUnits="userSpaceOnUse"><stop offset="0%" style="stop-color:#91a7bc"/><stop offset="100%" style="stop-color:#54718f"/></linearGradient></defs><path fill="#0c4160" d="M741 209c6.317 8.782 10.523 18.507 15 27-67.832-97.748-168.06-156.444-290-133-42.143 8.102-97.806 30.806-129 61-47.259 34.5-90.539 93.184-98 152.5-7.876 62.612 18.244 156.502 50 210.5.888 1.511 4.95 5.955 3.5 7L281 523c-4.677-7.005-10.412-20.427-14-28.5-3.625-8.155-9.498-31.88-13-37-1.985-2.903-33.265-15.227-40.5-20.5-33.661-24.535-55.077-59.947-44.5-103.5 4.748-19.55 16.139-20.641 24-32 18.013-26.029 25.332-36.996 55.5-52.5 1.987-1.021 7.278-.637 8-1 2.85-1.433 30.178-43.367 37.5-51.5C417.409 59.411 629.859 54.488 741 209m-499 48c-9.537 5.267-39.603 29.477-44 38.5-11.22 23.022-7.043 116.457 12.5 134.5.853.788 2.624 3.482 3.5 1 4.434 5.725 18.251 13.389 25.5 16 3.73 1.343 10.276 4.734 11.5-.5-5.826-14.722-10.174-30.6-11-47-7.546-27.23-9.298-63.212-3-95.5 1.857-9.519 4.978-19.282 8-28.5 1.085-3.311 8.963-19.858 9-21 .187-5.716-10.073 1.436-12 2.5m-67 71c-8.025 14.639-5.389 33.417-2 49 1.901 8.741 5.35 18.291 10 26 3.466 5.747 5.439 9.324 11.5 13 3.696-.396-1.664-15.386-2.5-16.5.184-13.907-3.605-27.577-4-41.5-.212-7.479.562-14.599 1-22 .35-5.919 1.289-11.201 2-17 .277-2.256 3.044-11.489.5-12-6.581 6.635-14.431 10.995-16.5 21"/><path fill="url(#a)" d="M756 236c3.518 6.674 6.981 13.043 10 20 .406 13.155 8.123 27.089 11 40.5 9.519 44.374 4.546 101.689-7 145.5-1.698 6.442-4.796 12.849-6 19.5-1.163 1.162-1.085-3.205-3-1-.913 1.052-8.401 22.115-10 26-5.673 13.787-11.68 38.722-27.5 46.5-24.931 12.257-102.593.857-134 5-.644.085-5.363 1.179-4.5 3-13-2.532-28.746-13.909-43.5-13l7.5-4c15.384-3.25 32.888-10.074 47-17 14.231-6.985 20.95-12.147 33-22 2.165-1.769 3.875-3.099 6-5 3.121-2.781 5.932-4.996 9-8 .318-.311.681-.679 1-1 15.339-8.901 25.171-30.202 37.5-41 .525-.46 4.286 1.026 5.5-1.5 1.167-2.429-4.222-18.574-5-22.5-13.871-70 9.748-112.24-55.5-168-118.959-101.66-309.902-5.351-276.5 154-2.139 10.207-7.293 21.776-8 31-.744 9.716 4.058 7.224 10 14.5 3.49 4.273 6.55 9.279 10 13.5 31.282 38.272 66.842 65.378 117 74 1.006 2.787-4.69 4.318-6.5 5-7.139 2.69-18.543 7.239-25.5 9l-142-2c-6.903-1.6-11.926-5.243-17-10-31.756-53.998-57.876-147.888-50-210.5 7.461-59.316 50.741-118 98-152.5-.248.24.289 2.22 0 2.5-12.471 12.076-25.323 24.239-36 38l11-6c.469.403-3.09 10.56-3 12 .02.317.68 3.591 1 5 .581 2.559 4.844 4.97 3 8.5-25.939 3.388-23.594 39.065 2.5 34 11.254-2.184 16.97-17.994 13.5-28 33.732 5.848 40.095-42.054 7-44 4.69-3.283-3.304-.7.5-4 5.778-5.012 25.715-17.695 33-22 100.959-59.667 223.01-56.236 316 17 2.185-1.248.405-3.003-.5-4.5-2.763-4.569-24.094-21.712-29.5-25.5-54.512-38.193-123.194-49.642-188.5-38-3.418-2.58-3.869-2.498-1-6 121.94-23.444 222.168 35.252 290 133m-359.5-55c-7.886.866-18.334 9.667-23.5 15.5 21.831 36.231 59.97-19.507 23.5-15.5m289 4c-23.387 3.558-24.5 39.965-1 44 38.724 6.649 37.58-49.566 1-44m-324 34c-6.33.699-15.443 15.326-10 21 14.834 6.493 31.144-23.334 10-21m-80 37c-16.301 3.174-29.93 36.044-12 45 28.494 14.233 52.001-52.79 12-45m448 76c-28.948 3.883-15.158 52.255 13 37 18.804-10.187 10.479-40.15-13-37m-440 1c-21.846 3.812-16.432 42.141 9 39 24.042-2.97 19.704-44.009-9-39m404 149c-22.297 3.666-23.448 40.269 1 43 32.412 3.621 34.876-48.898-1-43m-370 3c-18.633 3.751-20.475 34.989-1 40 36.337 9.351 38.461-47.541 1-40" style="fill:url(#a)"/>/&gt;<path fill="#c5ecf4" d="M466 103c-2.869 3.502-2.418 3.42 1 6-52.374 9.336-102.123 35.331-139 73.5-1.459 1.51-2.488 1.99-2 4.5-13.104 4.731-18.072 25.388-9 36-.204-.033-2.501.804-4 1 1.844-3.53-2.419-5.941-3-8.5-.32-1.409-.98-4.683-1-5-.09-1.44 3.469-11.597 3-12l-11 6c10.677-13.761 23.529-25.924 36-38 .289-.28-.248-2.26 0-2.5 31.194-30.194 86.857-52.898 129-61"/><path fill="#fcfdfe" d="M336 186c-2.095-.123-8.213.355-10 1-.488-2.51.541-2.99 2-4.5 36.877-38.169 86.626-64.164 139-73.5 65.306-11.642 133.988-.193 188.5 38 5.406 3.788 26.737 20.931 29.5 25.5.905 1.497 2.685 3.252.5 4.5-92.99-73.236-215.041-76.667-316-17-7.285 4.305-27.222 16.988-33 22-3.804 3.3 4.19.717-.5 4"/><path fill="#fdfeff" d="M396.5 181c36.47-4.007-1.669 51.731-23.5 15.5 5.166-5.833 15.614-14.634 23.5-15.5"/><path fill="#0b3652" d="M685.5 185c36.58-5.566 37.724 50.649-1 44-23.5-4.035-22.387-40.442 1-44m-7.5 36c7.149 4.805 12.994 4.824 21 2 1.435-.506 1.303-.624 2-1 12.069-6.52 12.219-24.155.5-31-19.15-11.185-44.548 15.854-23.5 30"/><path fill="#115b7b" d="M336 186c33.095 1.946 26.732 49.848-7 44-3.419-.593-10.166-6.703-12-7-9.072-10.612-4.104-31.269 9-36 1.787-.645 7.905-1.123 10-1m-18 14c-8.055 19.054 11.304 32.072 27.5 23 11.485-6.433 11.234-23.041.5-30-9.822-6.368-23.238-4.263-28 7"/><path fill="#6eeaf5" d="M701 222c6.353-4.762 8.026-18.94 4-25.5-2.417-3.939-3.807-1.409-4-1.5-11.02-5.206-14.832-4.036-23 4-.064.063-.485-2.039-1.5-1-6.618 6.778-3.53 16.343 1.5 23-21.048-14.146 4.35-41.185 23.5-30 11.719 6.845 11.569 24.48-.5 31"/><path fill="#f9fefe" d="M346 193c11.364 25.182-31.506 35.114-23 6.5l-5 .5c4.762-11.263 18.178-13.368 28-7"/><path fill="#d5fafe" d="M701 195c.24 2.221-.345 4.873 0 7-5.53 6.829-9.193 12.584-19 9-.398-.146-5.588-4.824-6-6 .327-1.408 2.083-4.187 2-6 8.168-8.036 11.98-9.206 23-4"/><path fill="#13d6f0" d="m318 200 5-.5c-8.506 28.614 34.364 18.682 23-6.5 10.734 6.959 10.985 23.567-.5 30-16.196 9.072-35.555-3.946-27.5-23"/><path fill="#05a3ce" d="M701 222c-.697.376-.565.494-2 1-3.785-3.887 3.828-14.544 4-18.5.099-2.259-1.733-.852-2-2.5-.345-2.127.24-4.779 0-7 .193.091 1.583-2.439 4 1.5 4.026 6.56 2.353 20.738-4 25.5"/><path fill="#4f8da1" d="M683 406c-1.455.467-.942 3.54-3 .5-5.383-7.952-5.834-24.105-7-33.5-5.763-46.418-4.158-71.411-35-110-74.174-92.805-233.194-70.492-273 43.5-9.844 28.189-8.302 58.311-14 85.5-33.402-159.351 157.541-255.66 276.5-154 65.248 55.76 41.629 98 55.5 168"/><path fill="#0dc5e7" d="M678 199c.083 1.813-1.673 4.592-2 6-.857 3.691-2.401 6.469 1.5 9l4.5-3c9.807 3.584 13.47-2.171 19-9 .267 1.648 2.099.241 2 2.5-.172 3.956-7.785 14.613-4 18.5-8.006 2.824-13.851 2.805-21-2-5.03-6.657-8.118-16.222-1.5-23 1.015-1.039 1.436 1.063 1.5 1"/><path fill="#0b3955" d="m638 263-2 2c-15.407-19.26-40.912-36.399-64-45-79.716-29.696-172.711 4.844-203 86.5-14.638 39.462-6.075 79.602-25 116.5h-1c.707-9.224 5.861-20.793 8-31 5.698-27.189 4.156-57.311 14-85.5 39.806-113.992 198.826-136.305 273-43.5"/><path fill="#26e2f5" d="m682 211-4.5 3c-3.901-2.531-2.357-5.309-1.5-9 .412 1.176 5.602 5.854 6 6"/><path fill="#051328" d="M651 546c-.553-1.528.163-3.632 1-5 17.002-.537 64.308-.411 76.5-9 16.091-11.336 36.574-70.077 42.5-90 20.837-70.053 24.42-118.204-5-186-3.019-6.957-6.482-13.326-10-20-4.477-8.493-8.683-18.218-15-27 9.288 5.706 20.502 35.053 27.5 39 .838.473 9.497 1.554 12 3 9.887 5.712 41.572 30.264 46.5 39.5 2.704 5.069 2.447 11.832 4 15 1.6 3.264 10.137 9.133 13 14 13.102 22.278 10.209 67.223-3 89-2.193 3.616-31.614 29.242-36.5 32.5-7.441 4.963-29.746 11.848-33.5 17.5-12.048 18.139-18.372 62.864-39.5 77.5-18.55 12.85-58.394 4.043-80.5 10m183-187c.509-14.877-1.43-48.75-7-62-4.449-10.583-42.641-41.078-53.5-44-1.873-.504-2.907-1.921-4.5.5 33.388 60.263 24.575 133.829 4 197 47.521-9.738 59.509-47.926 61-91.5m-1-41c.234 4.561 1.689 10.221 2 15 1.953 30.03 1.819 58.82-11 86.5 10.235-5.76 13.665-12.246 18-22.5 7.917-18.726 10.058-37.973 6-58-2.083-10.282-6.342-20.292-14.5-27-2.154-.161-.563 4.768-.5 6"/><path fill="#9ddbe8" d="m572 220-2 1c-93.091-37.094-184.046 24.61-203 118-2.192 10.798-2.322 19.925-4 30-3.362 20.18-5.172 30.556-15 49-.895 1.679-1.598 5.208-4 5 18.925-36.898 10.362-77.038 25-116.5 30.289-81.656 123.284-116.196 203-86.5"/><path fill="#45889e" d="M570 221c4.787 1.908 18.038 9.891 23 13l-6 15c-13.951-9.043-32.638-16.898-49-20-84.413-16.003-136.773 39.07-161 113-3.601.167-7.534.164-10-3 18.954-93.39 109.909-155.094 203-118"/><path fill="#fcfeff" d="M361.5 219c21.144-2.334 4.834 27.493-10 21-5.443-5.674 3.67-20.301 10-21"/><path fill="#56a1b8" d="M636 265c30.405 38.009 26.555 65.795 34 110 1.338 7.944 2.75 16.782 5 24.5 2.649 9.086 10.521 19.492 10 28-14.54-24.132-17.019-44.858-22-71.5-10.13-54.184-20.053-90.706-70-122-4.962-3.109-18.213-11.092-23-13l2-1c23.088 8.601 48.593 25.74 64 45"/><path fill="#fcfefe" d="M329 230c3.47 10.006-2.246 25.816-13.5 28-26.094 5.065-28.439-30.612-2.5-34 1.499-.196 3.796-1.033 4-1 1.834.297 8.581 6.407 12 7"/><path fill="#a0d9e9" d="M538 229c.042 2.561-2.433 16.733-2 17.5.752 1.333 5.038-1.17 4 3.5-46.602-9.997-93.509 7.008-122 45 .292-.701 3.075-4.583.5-5-33.849 33.221-46.136 82.998-25.5 127-3.602-7.13-7.205-13.096-10-20.5-.151-.4.286-6.663 0-7-.503-.594-14.805-1.852-15.5-1.5-2.005 1.015-14.315 36.71-20.5 40-.466-3.251.907-6.111 2-9 3.245-8.573 10.174-18.976 14-29 6.345-16.627 8.694-31.81 14-48 24.227-73.93 76.587-129.003 161-113"/><path fill="#70bace" d="M587 249c10.73 6.955 21.642 17.314 30 27-4.207-.177-8.198 6.638-10 10-2.534-2.366-9.517-9.066-12-5-6.423-6.448-14.277-11.272-22-16-11.034-6.755-19.904-12.191-33-15 1.038-4.67-3.248-2.167-4-3.5-.433-.767 2.042-14.939 2-17.5 16.362 3.102 35.049 10.957 49 20"/><path fill="#336f86" d="M663 356c-3.028 9.434 2.079 22.141 2 32.5l18 37c-.166 3.472-5.933 6.297-7 7.5.797-12.421-9.147-24.776-13-36.5-8.833-26.874-11.228-55.1-22-81.5-6.265-15.353-13.222-26.51-24-39-8.358-9.686-19.27-20.045-30-27l6-15c49.947 31.294 59.87 67.816 70 122"/><path fill="#085f89" d="M540 250c13.096 2.809 21.966 8.245 33 15-2.423.185-1.719 3.695-2.5 4-1.315.514-20.495-9.707-26-11-56.766-13.337-110.161 8.843-134.5 62-.951 2.078-2.086 3.696-3 6-.912 2.299-2.219 4.603-3 7-1.966 6.033-1.631 16.595-7 20 2.842-27.377 11.579-35.423 21-58 28.491-37.992 75.398-54.997 122-45"/><path fill="#3489a6" d="m237 304-8-2c2.466-15.257 5.907-31.448 13-45 1.927-1.064 12.187-8.216 12-2.5-.037 1.142-7.915 17.689-9 21-3.022 9.218-6.143 18.981-8 28.5"/><path fill="url(#b)" d="m827 297-1 84.5c4.375 8.1 3.34-25.793 8-22.5-1.491 43.574-13.479 81.762-61 91.5 20.575-63.171 29.388-136.737-4-197 1.593-2.421 2.627-1.004 4.5-.5 10.859 2.922 49.051 33.417 53.5 44m-32.5-25c-.765 7.197 25.348 31.41 29.5 25.5-1.206-5.761-26.173-27.367-29.5-25.5m31 111-4 25c2.627-4.187 6.305-14.997 6.5-19.5.088-2.036 1.138-6.199-2.5-5.5" style="fill:url(#b)"/>/&gt;<path fill="#0e7da7" d="M573 265c7.723 4.728 15.577 9.552 22 16 14.298 14.353 24.852 37.259 29 57l-20 1c-10.065-45.257-54.603-76.083-100.5-72l-24.5 5c-14.18.67-31.54 13.793-37 27-9.629 9.507-16.12 22.021-20 35l-18-1c.781-2.397 2.088-4.701 3-7 4.691 1.142 12.895 6.209 16 1.5-.652-5.752-9.278-3.577-13-7.5 24.339-53.157 77.734-75.337 134.5-62 5.505 1.293 24.685 11.514 26 11 .781-.305.077-3.815 2.5-4"/><path fill="#feffff" d="M281.5 256c40.001-7.79 16.494 59.233-12 45-17.93-8.956-4.301-41.826 12-45"/><path fill="#34859f" d="M771 442h-1c11.546-43.811 16.519-101.126 7-145.5-2.877-13.411-10.594-27.345-11-40.5 29.42 67.796 25.837 115.947 5 186"/><path fill="#94e1ef" d="M229 302c-.475 2.942-.624 6.054-1 9-1.11-.056-5.878 4.145-6 4.5-1.448 4.222-3.016 37.318-3 43.5.393-2.044-.839-3.061-1-5-.714-8.579 1.21-23.938 2-33 .369-4.234.49-8.825 1-13 .613-5.016 6.806-14.063-1-16 .789-.632 3.558-3.899 4.5-5 .307-.359 2.668.605 3.5-.5.396-.525 1.676-11.165 2-13-10.281 1.326-21.162 11.899-26 20.5-.122.216-2.602-.492-3 .5-1.095 2.729-.577 9.46-1 12.5-.588 4.227-.679 8.736-1 13-.878 11.667-1.436 23.285-1 35 .725 19.483 4.384 61.003 16 76-.876 2.482-2.647-.212-3.5-1-19.543-18.043-23.72-111.478-12.5-134.5 4.397-9.023 34.463-33.233 44-38.5-7.093 13.552-10.534 29.743-13 45"/><path fill="#08223e" d="m673 373-3 2c-7.445-44.205-3.595-71.991-34-110l2-2c30.842 38.589 29.237 63.582 35 110"/><path fill="url(#c)" d="M604 339c.269 1.208.907 3.436 1 4 .158.953-.128 2.036 0 3 4.055 30.503-3.036 59.977-25 82-16.055 16.098-39.143 27.194-62 28-68.007 2.398-115.797-55.774-96-122 3.88-12.979 10.371-25.493 20-35-23.085 55.834 79.726 61.061 73 4-1.153-9.781-6.846-19.28-15-25-7.361-5.164-12.019-6.424-21-6l24.5-5c45.897-4.083 90.435 26.743 100.5 72m-152.5 12c-8.987 1.84-11.824 17.671-3 23 20.762 12.539 24.127-27.326 3-23" style="fill:url(#c)"/>/&gt;<path fill="#f1f9fb" d="M479 272c8.981-.424 13.639.836 21 6v1c-2.089-.414-3.962-1.353-6-2-5.307-1.684-9.303-2.524-15-2-24.013-1.547-46.889 29.518-32 51.5 12.543 18.518 39.776 12.144 53-2.5 4.115 11.467 16.053-15.268 15-21 6.726 57.061-96.085 51.834-73-4 5.46-13.207 22.82-26.33 37-27"/><path fill="#85bfcf" d="M794.5 272c3.327-1.867 28.294 19.739 29.5 25.5-4.152 5.91-30.265-18.303-29.5-25.5"/><path fill="#e7f9fc" d="M220 292c-3.847 3.08-15.484 12.027-16 2 4.838-8.601 15.719-19.174 26-20.5-.324 1.835-1.604 12.475-2 13-.832 1.105-3.193.141-3.5.5-.942 1.101-3.711 4.368-4.5 5"/><path fill="#c1e2eb" d="M479 275c-24.907 2.29-30.604 32.347-7.5 36 18.049 2.853 36.808-19.031 22.5-34 2.038.647 3.911 1.586 6 2 14.377 11.462 11.73 32.011 0 45-13.224 14.644-40.457 21.018-53 2.5-14.889-21.982 7.987-53.047 32-51.5"/><path fill="#fdfeff" d="M479 275c5.697-.524 9.693.316 15 2 14.308 14.969-4.451 36.853-22.5 34-23.104-3.653-17.407-33.71 7.5-36"/><path fill="#5ca1b6" d="M617 276c10.778 12.49 17.735 23.647 24 39l-12 5c-3.161-7.086-16.643-28.997-22-34 1.802-3.362 5.793-10.177 10-10"/><path fill="#d1ecf4" d="M515 303c1.053 5.732-10.885 32.467-15 21 11.73-12.989 14.377-33.538 0-45v-1c8.154 5.72 13.847 15.219 15 25"/><path fill="#41aed0" d="M607 286c5.357 5.003 18.839 26.914 22 34 9.086 20.37 12.249 38.655 10 61l-13-2c1.056-10.371 1.234-19.648 0-30-.227-1.908-.678-4.062-1-6-.269-1.624-.659-3.378-1-5-4.148-19.741-14.702-42.647-29-57 2.483-4.066 9.466 2.634 12 5"/><path fill="#4dcbed" d="M418 295c-9.421 22.577-18.158 30.623-21 58-2.398 23.103.744 44.692 12 65-4.057 1.858-5.6 7.637-11 7-.152-.256.143-1.164-1-1-1.283-2.196-2.874-4.772-4-7-20.636-44.002-8.349-93.779 25.5-127 2.575.417-.208 4.299-.5 5"/><path fill="#89d2e6" d="M221 308c-7.498.499-13.825 2.268-21-1 .423-3.04-.095-9.771 1-12.5.398-.992 2.878-.284 3-.5.516 10.027 12.153 1.08 16-2 7.806 1.937 1.613 10.984 1 16"/><path fill="#86ccde" d="M834 359c-4.66-3.293-3.625 30.6-8 22.5l1-84.5c5.57 13.25 7.509 47.123 7 62"/><path fill="#1e6684" d="M237 304c-6.298 32.288-4.546 68.27 3 95.5.826 16.4 5.174 32.278 11 47-1.224 5.234-7.77 1.843-11.5.5-7.249-2.611-21.066-10.275-25.5-16-11.616-14.997-15.275-56.517-16-76l20-1c.161 1.939 1.393 2.956 1 5 .029 11.108.98 24.618 3 35.5.247 1.328 4.639 23.516 7 18-5.433-33.587-5.293-67.836-1-101.5.376-2.946.525-6.058 1-9z"/><path fill="#d1f9f9" d="M191 319c-8.116-.746-12.689 9.258-16.5 15-.926-.302.301-5.037.5-6 2.069-10.005 9.919-14.365 16.5-21 2.544.511-.223 9.744-.5 12"/><path fill="#5bb1cb" d="M221 308c-.51 4.175-.631 8.766-1 13l-21-1c.321-4.264.412-8.773 1-13 7.175 3.268 13.502 1.499 21 1"/><path fill="#50c2de" d="M228 311c-4.293 33.664-4.433 67.913 1 101.5-2.361 5.516-6.753-16.672-7-18-2.02-10.882-2.971-24.392-3-35.5-.016-6.182 1.552-39.278 3-43.5.122-.355 4.89-4.556 6-4.5"/><path fill="#b5eef6" d="M848 339c-.911 4.151-1.797 9.845-2 14-1.777-5.097-1.348-8.942-4-14 2.747-.011.267-9.775 0-10.5-1.261-3.422-4.97-9.778-9-10.5-.063-1.232-1.654-6.161.5-6 8.158 6.708 12.417 16.718 14.5 27"/><path fill="#4d8fa5" d="M676 433c-11.754 13.257-23.969 26.012-36 39-.285.308-.644.609-1 1-3.278.24-5.071 4.005-7 6-.275.285-.745.773-1 1h-1c-.432-2.229 1.89-2.387 2-4.5.65-12.433.927-40.372-8-48.5 1.326-2.267 2.817-6.494 4-9 6.14-13.006 9.529-22.389 11-37 2.249-22.345-.914-40.63-10-61l12-5c10.772 26.4 13.167 54.626 22 81.5 3.853 11.724 13.797 24.079 13 36.5"/><path fill="#05aacd" d="M842 339c-.788-1.503-5.263-7.039-7-6-.311-4.779-1.766-10.439-2-15 4.03.722 7.739 7.078 9 10.5.267.725 2.747 10.489 0 10.5"/><path fill="#77e7f5" d="M191 319c-.711 5.799-1.65 11.081-2 17-11.408 2.489-14.699-5.215-15 9-1.749 8.764-.396 19.265 1 28l-2 4c-3.389-15.583-6.025-34.361 2-49-.199.963-1.426 5.698-.5 6 3.811-5.742 8.384-15.746 16.5-15"/><path fill="#3489a6" d="M220 321c-.79 9.062-2.714 24.421-2 33l-20 1c-.436-11.715.122-23.333 1-35z"/><path fill="#11bee1" d="M407 326c.914-2.304 2.049-3.922 3-6 3.722 3.923 12.348 1.748 13 7.5-3.105 4.709-11.309-.358-16-1.5"/><path fill="#041429" d="M729.5 332c23.479-3.15 31.804 26.813 13 37-28.158 15.255-41.948-33.117-13-37M717 354c1.539 16.66 26.206 18.683 31 3.5 2.969-9.405-.878-19.335-11-21.5-11.083-2.37-21.06 6.523-20 18"/><path fill="#0a3a56" d="M289.5 333c28.704-5.009 33.042 36.03 9 39-25.432 3.141-30.846-35.188-9-39m3 3c-21.08 1.79-15.941 35.148 6 32 18.197-2.611 14.526-33.743-6-32"/><path fill="#11bee1" d="M422 334c-19.797 66.226 27.993 124.398 96 122l2 18c-25.779 1.49-54.129-4.921-76-19-12.002-7.726-28.12-24.587-35-37-11.256-20.308-14.398-41.897-12-65 5.369-3.405 5.034-13.967 7-20z"/><path fill="#055b7e" d="M842 339c2.652 5.058 2.223 8.903 4 14-.748 15.304-.402 28.72-4 44-4.335 10.254-7.765 16.74-18 22.5 12.819-27.68 12.953-56.47 11-86.5 1.737-1.039 6.212 4.497 7 6"/><path fill="#e6f6f7" d="M737 336c-6.793 2.192-15.846 6.658-19 13.5-.056.122 1.31.644 1 2.5-.023.139-1.52 1.861-2 2-1.06-11.477 8.917-20.37 20-18"/><path fill="#1aaed2" d="M189 336c-.438 7.401-1.212 14.521-1 22-12.163-2.103-14.316 1.934-14-13 .301-14.215 3.592-6.511 15-9"/><path fill="#81e5ef" d="M292.5 336c20.526-1.743 24.197 29.389 6 32-21.941 3.148-27.08-30.21-6-32m-9.5 12c-4.443 2.859-1.59 4.335 0 6 .086 1.16-1.272.201 0 4 6.714 20.052 40.913-3.335 18-17-8.554-5.102-15.652-1.491-18 7"/><path fill="#25bfdf" d="M717 354c.48-.139 1.977-1.861 2-2 7.291 32.096 46.976-.153 17.5-14 5.343 9.855-6.71 27.036-17.5 14 .31-1.856-1.056-2.378-1-2.5 3.154-6.842 12.207-11.308 19-13.5 10.122 2.165 13.969 12.095 11 21.5-4.794 15.183-29.461 13.16-31-3.5"/><path fill="#11bee1" d="M624 338c.341 1.622.731 3.376 1 5h-20c-.093-.564-.731-2.792-1-4z"/><path fill="#044263" d="M719 352c10.79 13.036 22.843-4.145 17.5-14 29.476 13.847-10.209 46.096-17.5 14"/><path fill="#20e2f9" d="M301 341c-1.546-.055-.768 1.357-1 2-2.865 7.931-6.869 21.611-17 11-.043-.586-.08-5.711 0-6 2.348-8.491 9.446-12.102 18-7"/><path fill="#336f86" d="M377 342c-5.306 16.19-7.655 31.373-14 48v-21c1.678-10.075 1.808-19.202 4-30 2.466 3.164 6.399 3.167 10 3"/><path fill="#32c5dd" d="M842 397c3.598-15.28 3.252-28.696 4-44 .203-4.155 1.089-9.849 2-14 4.058 20.027 1.917 39.274-6 58"/><path fill="#064061" d="M283 358c12.476 14.5 31.79-5.439 17-15 .232-.643-.546-2.055 1-2 22.913 13.665-11.286 37.052-18 17"/><path fill="#0e7da7" d="M625 343c.322 1.938.773 4.092 1 6-3.994-6.699-13.689-3.986-21-3-.128-.964.158-2.047 0-3z"/><path fill="#0587ad" d="M283 358c-1.272-3.799.086-2.84 0-4 10.131 10.611 14.135-3.069 17-11 14.79 9.561-4.524 29.5-17 15"/><path fill="#1485a8" d="M188 358c.395 13.923 4.184 27.593 4 41.5.836 1.114 6.196 16.104 2.5 16.5-6.061-3.676-8.034-7.253-11.5-13-2.474-10.134-6.328-19.539-8-30-1.396-8.735-2.749-19.236-1-28-.316 14.934 1.837 10.897 14 13"/><path fill="#11bee1" d="M626 349c1.234 10.352 1.056 19.629 0 30-1.379 13.536-4.17 22.837-10 35-4.935 10.296-10.973 18.889-19 27-1.038 1.049-2.886 1.997-4 3-7.927.277-4.684-15.219-13-16 21.964-22.023 29.055-51.497 25-82 7.311-.986 17.006-3.699 21 3"/><path fill="#07a6cb" d="M283 354c-1.59-1.665-4.443-3.141 0-6-.08.289-.043 5.414 0 6"/><path fill="#fbfdfe" d="M451.5 351c21.127-4.326 17.762 35.539-3 23-8.824-5.329-5.987-21.16 3-23"/><path fill="#1b415b" d="m670 375 3-2c1.166 9.395 1.617 25.548 7 33.5 2.058 3.04 1.545-.033 3-.5.778 3.926 6.167 20.071 5 22.5-1.214 2.526-4.975 1.04-5.5 1.5-12.329 10.798-22.161 32.099-37.5 41 3.394-3.423 9-8.439 10.5-13-4.803 4.366-8.999 9.367-13.5 14h-2c12.031-12.988 24.246-25.743 36-39 1.067-1.203 6.834-4.028 7-7.5l-18-37c.079-10.359-5.028-23.066-2-32.5 4.981 26.642 7.46 47.368 22 71.5.521-8.508-7.351-18.914-10-28-2.25-7.718-3.662-16.556-5-24.5m-5.5 73c-.647-.086-2.395 2.815-1 3 .647.086 2.395-2.815 1-3"/><path fill="#133d59" d="M363 390c-3.826 10.024-10.755 20.427-14 29l-1-1c9.828-18.444 11.638-28.82 15-49z"/><path fill="#29c1d7" d="M183 403c-4.65-7.709-8.099-17.259-10-26l2-4c1.672 10.461 5.526 19.866 8 30"/><path fill="#4dcbed" d="M639 381c-1.471 14.611-4.86 23.994-11 37l-12-4c5.83-12.163 8.621-21.464 10-35z"/><path fill="#2b91b0" d="M825.5 383c3.638-.699 2.588 3.464 2.5 5.5-.195 4.503-3.873 15.313-6.5 19.5z"/><path fill="#8eccde" d="M393 417c1.126 2.228 2.717 4.804 4 7 6.99 11.964 12.609 21.687 25 32-8.424 10.637-27.97.735-39.5 4-2.814.797-3.247 2.637-1.5 5-12.213-11.663-23.971-23.314-34-37 6.185-3.29 18.495-38.985 20.5-40 .695-.352 14.997.906 15.5 1.5.286.337-.151 6.6 0 7 2.795 7.404 6.398 13.37 10 20.5"/><path fill="#6ae2fa" d="M628 418c-1.183 2.506-2.674 6.733-4 9-5.479 9.364-12.428 16.413-20 24l-7-10c8.027-8.111 14.065-16.704 19-27z"/><path fill="#175877" d="M349 419c-1.093 2.889-2.466 5.749-2 9 10.029 13.686 21.787 25.337 34 37 60.044 57.339 144.133 82.4 220 36-85.134 48.989-177.486 22.854-238-50-3.45-4.221-6.51-9.227-10-13.5-5.942-7.276-10.744-4.784-10-14.5h1c2.402.208 3.105-3.321 4-5z"/><path fill="#6ae2fa" d="M409 418c6.88 12.413 22.998 29.274 35 37l-5.5 11c-2.23-4.5-6.721-7.104-11-10-12.406-8.397-20.621-16.096-29.5-31 5.4.637 6.943-5.142 11-7"/><path fill="#9ef3fd" d="M398 425c8.879 14.904 17.094 22.603 29.5 31 4.279 2.896 8.77 5.5 11 10l5.5-11c21.871 14.079 50.221 20.49 76 19 27.522-1.591 52.732-11.739 73-30 1.114-1.003 2.962-1.951 4-3l7 10c-1.738 1.741-3.445 4.058-5 6-55.005 36.886-123.16 43.814-177-1-12.391-10.313-18.01-20.036-25-32 1.143-.164.848.744 1 1"/><path fill="#5ca1b6" d="M630 480c-1.865.345-2.995 3.159-4 4-1.151.919-2.757 2.057-4 3-.914.742-2.923 2.205-4 3-.647.473-1.937 1.251-3 2-.872.614-2.06 1.368-3 2-.927.624-2.088 1.414-3 2-.908.293-1.89.104-3 1 1.648-3.415 4.909-36.908 4-41.5-.194-.98-2.576-3.527-2.5-5.5-2.396 3.212-5.28 4.84-8.5 7 1.555-1.942 3.262-4.259 5-6 7.572-7.587 14.521-14.636 20-24 8.927 8.128 8.65 36.067 8 48.5-.11 2.113-2.432 2.271-2 4.5"/><path fill="#58f7fe" d="M593 444c-20.268 18.261-45.478 28.409-73 30l-2-18c22.857-.806 45.945-11.902 62-28 8.316.781 5.073 16.277 13 16"/><path fill="#3898b0" d="M652 541c-17.479.553-51.208 3.075-67 0-.863-1.821 3.856-2.915 4.5-3 31.407-4.143 109.069 7.257 134-5 15.82-7.778 21.827-32.713 27.5-46.5 1.599-3.885 9.087-24.948 10-26 1.915-2.205 1.837 2.162 3 1 1.204-6.651 4.302-13.058 6-19.5h1c-5.926 19.923-26.409 78.664-42.5 90-12.192 8.589-59.498 8.463-76.5 9"/><path fill="#448ba1" d="M664.5 448c1.395.185-.353 3.086-1 3-1.395-.185.353-3.086 1-3"/><path fill="#6fb9ce" d="M606 497c-.137.284.152.798 0 1-1.552.947-3.456 2.111-5 3-75.867 46.4-159.956 21.339-220-36-1.747-2.363-1.314-4.203 1.5-5 11.53-3.265 31.076 6.637 39.5-4 53.84 44.814 121.995 37.886 177 1 3.22-2.16 6.104-3.788 8.5-7-.076 1.973 2.306 4.52 2.5 5.5.909 4.592-2.352 38.085-4 41.5"/><path fill="#bfe2e6" d="M601 501c1.738-1.063 2.783-.062 5-3 1.275-.777 1.994-1.354 3-2 2.803-.905 2.518-1.737 3-2 1.846-1.005 1.789-1.171 3-2 1.049-.718 1.872-1.168 3-2 1.422-1.039 2.616-1.95 4-3 1.055-.856 2.405-1.664 4-3 1.806-1.443 3.185-2.388 5-4 .255-.227.725-.715 1-1 3.231-.281 5.113-3.928 7-6 .356-.391.715-.692 1-1h2c-2.341 2.41-4.525 5.786-7 8-1.709 1.523-4.179 3.511-6 5-10.032 8.195-22.588 14.265-33 22-14.112 6.926-31.616 13.75-47 17-23.453 4.955-45.405 5.056-69 1-50.158-8.622-85.718-35.728-117-74 60.514 72.854 152.866 98.989 238 50m44-30c-.319.321-.682.689-1 1h-2c4.501-4.633 8.697-9.634 13.5-14-1.5 4.561-7.106 9.577-10.5 13"/><path fill="#1b415b" d="M644 472c-3.068 3.004-5.879 5.219-9 8 2.475-2.214 4.659-5.59 7-8zm-5 1c-1.887 2.072-3.769 5.719-7 6 1.929-1.995 3.722-5.76 7-6m-8 7c-1.815 1.612-3.194 2.557-5 4 1.005-.841 2.135-3.655 4-4z"/><path fill="#12384f" d="M635 480c-2.125 1.901-3.835 3.231-6 5 1.821-1.489 4.291-3.477 6-5"/><path fill="#031124" d="M693.5 482c35.876-5.898 33.412 46.621 1 43-24.448-2.731-23.297-39.334-1-43M681 510c7.076 23.567 46.457 8.92 33-16-9.697-17.958-40.001-7.316-33 16"/><path fill="#1b415b" d="M626 484c-1.595 1.336-2.945 2.144-4 3 1.243-.943 2.849-2.081 4-3"/><path fill="#08243f" d="M323.5 485c37.461-7.541 35.337 49.351-1 40-19.475-5.011-17.633-36.249 1-40m0 3c-19.987 4.381-13.673 42.814 13 34 20.083-6.637 11.671-39.408-13-34"/><path fill="#1a4258" d="M629 485c-12.05 9.853-18.769 15.015-33 22 10.412-7.735 22.968-13.805 33-22"/><path fill="#6ed5e5" d="M714 494h-1c-5.536-9.908-25.901-8.679-30 1.5-1.692 4.201-.664 9.163-1 13.5-.059.764-.151 1.103-1 1-7.001-23.316 23.303-33.958 33-16"/><path fill="#1b415b" d="M622 487c-1.384 1.05-2.578 1.961-4 3 1.077-.795 3.086-2.258 4-3"/><path fill="#063552" d="M713 494c11.615 20.789-21.357 37.635-31 15 .336-4.337-.692-9.299 1-13.5 4.099-10.179 24.464-11.408 30-1.5m-25 14c-1.509 6.497 15.019 4.44 17.5 3 7.322-4.25 8.615-15.794-.5-20-11.633-5.368-24.586 1.555-21 15.5.801 3.115 3.793 1.447 4 1.5"/><path fill="#22e6fb" d="M323.5 488c24.671-5.408 33.083 27.363 13 34-26.673 8.814-32.987-29.619-13-34m0 2c-2.128 1.85-6.01 2.126-6.5 5.5.313-.692 9.357-3.933 6.5-5.5m9.5 21c-6.013 2.379-16.514 3.901-18-5.5-.47-2.971 3.484-8.264 0-8-6.287 9.681 4.055 22.679 14 23.5 3.182.263 7.358-1.303 10-3 9.382-6.027 9.562-19.226 0-25-.46-.278-3.072-3.221-4-1.5z"/><path fill="#09c0e4" d="M705 491c-4.984-.11-3.458 9.494-5 12.5-2.491 4.855-7 5.791-12 4.5-.207-.053-3.199 1.615-4-1.5-3.586-13.945 9.367-20.868 21-15.5"/><path fill="#0374a6" d="M323.5 490c2.857 1.567-6.187 4.808-6.5 5.5.49-3.374 4.372-3.65 6.5-5.5"/><path fill="#1b415b" d="M618 490c-1.128.832-1.951 1.282-3 2 1.063-.749 2.353-1.527 3-2"/><path fill="#038bb8" d="M339 493c3.393 12.469 5.674 13.382-6 18l2-19.5c.928-1.721 3.54 1.222 4 1.5"/><path fill="#06597d" d="M705 491c9.115 4.206 7.822 15.75.5 20-2.481 1.44-19.009 3.497-17.5-3 5 1.291 9.509.355 12-4.5 1.542-3.006.016-12.61 5-12.5"/><path fill="#175877" d="M615 492c-1.211.829-1.154.995-3 2 .94-.632 2.128-1.386 3-2"/><path fill="#066c92" d="M339 518c-3.151.211-11.598-.849-10 3-9.945-.821-20.287-13.819-14-23.5 3.484-.264-.47 5.029 0 8 1.486 9.401 11.987 7.879 18 5.5 11.674-4.618 9.393-5.531 6-18 9.562 5.774 9.382 18.973 0 25"/><path fill="#175877" d="M612 494c-.482.263-.197 1.095-3 2 .912-.586 2.073-1.376 3-2"/><path fill="#21a1c4" d="M681 510c.849.103.941-.236 1-1 9.643 22.635 42.615 5.789 31-15h1c13.457 24.92-25.924 39.567-33 16"/><path fill="#175877" d="M609 496c-1.006.646-1.725 1.223-3 2 .152-.202-.137-.716 0-1 1.11-.896 2.092-.707 3-1m-3 2c-2.217 2.938-3.262 1.937-5 3 1.544-.889 3.448-2.053 5-3"/><path fill="#05243a" d="M339 518c-2.642 1.697-6.818 3.263-10 3-1.598-3.849 6.849-2.789 10-3"/><path fill="#061e36" d="M289 527c5.074 4.757 10.097 8.4 17 10 13.919 3.226 43.544 3.451 59 4l-1.5 2 9 1c1.296 1.381-1.487.911-1.5 1-31.172-5.828-69.729 8.364-90-22l11.5 11c1.45-1.045-2.612-5.489-3.5-7"/><path fill="#072b47" d="m549 524-7.5 4c14.754-.909 30.5 10.468 43.5 13 15.792 3.075 49.521.553 67 0-.837 1.368-1.553 3.472-1 5 1.582 4.371 28.336 8.7 32 19.5.698 2.059-1.365 9.576 1.5 10.5 1.078.347 12.323-4.598 22-2 4.371 1.174 29.455 21.248 32.5 25.5 7.548 10.539 9.496 27.538 8 40-.974 8.117-7.007 15.505-7 23.5-1.848-.159-3.387-.495-3 2-13.969-4.714-34.422-4.829-46 5-5.365 2.082-16.065 9.48-18 15-3.237-2.412-.844-5.303 1-8 3.61-5.279 11.4-8.274 16-12.5-2.096-.351-2.134-1.673-3-2.5 1.965.216 7.401-.85 10-1 .849-.049 9.067-2.766 10.5-3 .312-.051 1.771 2.927 6 2 .495-.109.583-2.396 2-3 2.609-1.113 5.505 2.257 7.5-7 10.223-.622 8.846-10.188 16-5.5l3-14.5c3.673-13.933-2.065-33.153-16-39-1.809-.765-5.56-5.746-6.5-6-.239-.065-1.724 2.037-2 2-2.65-.359-5.157-1.644-8.5-1-.877.169-1.078.732-2 1 .407-3.7-10.049 1.664-10.5 2-2.587 1.927-8.539 11.045-9.5 14-11.431 1.715-4.692 26.486-1 34.5-6.736 1.392-4.334-22.955-10.5-15.5 1.041 10.669 4.53 27.758 14.5 34-1.129 2.413-2.846.539-4-.5-6.47-5.828-13.648-27.608-14-32-1.536-19.192 6.395-32.57 17.5-47.5-13.194 1.327-25.397 24.035-26.5 35.5-1.048 10.891 7.537 21.643 0 29.5-1.784-7.152-4.947-16.271-8-23-.195-5.516 2.758-3.642 3-4 3.066-4.544 2.818-11.362 5-16 2.658-5.649 5.645-11.223 9-16.5 2.976-4.681 6.924-2.036 8-11.5.351-3.084-1.5-3.781-2-5.5-.167-.572 2.259-.459 2-1-1.371-2.864-13.341-8.973-16.5-9.5-4.51-.752-53.384-.997-56 0-.874.333-2.894 2.668-2.5 4-49.779-34.233-114.408-36.595-167-8l3-9c3.091-.37 4.369-1.334 7-2 6.957-1.761 18.361-6.31 25.5-9 1.81-.682 7.506-2.213 6.5-5 23.595 4.056 45.547 3.955 69-1m125.5 91c-3.046 3.231 5.239 4.135 5.5 3.5-1.608-2.624-1.941-4.123-5.5-3.5"/><path fill="#f5fafc" d="M605 558c.88.605 3.745 4.032 5 5-2.677 2.202-4.778 3.005-4 7-70.753-56.278-179.481-35.186-224 43.5-12.798 22.62-22.726 56.138-17 81.5-1.158-.943-7.093-1.788-8-4.5-.993-2.967.493-22.465 1-27 5.379-48.148 38.141-90.741 80-113.5 52.592-28.595 117.221-26.233 167 8"/><path fill="#76c5d3" d="M448 539c-2.631.666-3.909 1.63-7 2-.646.077-1.35-.061-2 0-20.972 1.961-52.392.768-74 0-15.456-.549-45.081-.774-59-4z"/><path fill="url(#d)" d="M606 570c25.476 20.264 44.259 49.04 51 81 3.091 14.656 5.344 30.073 3 45-10.481 5.188-22.244 14.692-28 25 18.223-70.432-26.966-145.786-101-154-89.066-9.882-158.127 61.913-139 151-1.667 2.622-.711 4.909-5 5-2.623-12.667-12.6-20.344-22-28-5.726-25.362 4.202-58.88 17-81.5 44.519-78.686 153.247-99.778 224-43.5" style="fill:url(#d)"/>/&gt;<path fill="#0d3853" d="M439 541c.438 3.001-2.674 1.947-4.5 2-10.355.299-20.653.643-31 1l27 1c-.398 2.786-10.947 8.682-12.5 9-21.104 4.32-55.842-9.673-71.5 8l61.5 1c-1.903.146-1.285 1.357-3 3h-62c-.028-1.152.549-2.923-1-3 5.212-9.951 21.415-9.911 28.5-15 2.614-1.877.35-1.956.5-3 .013-.089 2.796.381 1.5-1l-9-1 1.5-2c21.608.768 53.028 1.961 74 0"/><path fill="#0b4767" d="m441 541-3 9c-41.859 22.759-74.621 65.352-80 113.5-.507 4.535-1.993 24.033-1 27 .907 2.712 6.842 3.557 8 4.5 9.4 7.656 19.377 15.333 22 28 1.045 5.044 1.771 12.486 1 17.5-1.005 6.533-9.747 18.687-10 21.5-1.133 12.583 30.849 41.623 41 49 1.029 6.557-3.386 6.823-5 13-9.527-1.546-22.246-3.966-31 0-.096-6.31-1.538-11.432-3-18-.249-1.118-2.483-5.675-1.5-6l5.5 4c6.924 5.596 12.737 4.198 21 2.5l-31-37-2 .5c-5.12-.888-12.936 8.137-19 11-14.888 7.03-20.615 3.911-35 0 .336-1.171-2.296-1.086-2-1.5.775-1.082 2.851.303 3-1.5 31.071 7.553 63.406-12.273 65-45 1.142-23.436-25.034-40.211-46-42-.701-4.673-10.181.503-13-4 6.598-1.114 12.888-.872 19.5 0 3.135-1.346-16.992-17.01-19-18-7.692-3.791-16.627-3.277-22.5-8 7.48.036 17.082 2.154 24 5 10.671 4.39 18.758 13.137 24.5 23 1.126-14.071 1.276-29.242 4.5-43 4.299-18.347 17.731-42.964 29-58 4.662-6.22 10.567-12.426 16-18a175 175 0 0 1 4-4c1.715-1.643 1.097-2.854 3-3l10-9c1.553-.318 12.102-6.214 12.5-9l-27-1c10.347-.357 20.645-.701 31-1 1.826-.053 4.938 1.001 4.5-2 .65-.061 1.354.077 2 0m-51.5 271c-18.506 3.138 16.456 6.62 20.5 2.5.114-3.056-17.867-2.946-20.5-2.5"/><path fill="#235b72" d="m418 554-10 9-61.5-1c15.658-17.673 50.396-3.68 71.5-8"/><path fill="#184760" d="M680 570h-51.5c3.198 7.222 10.969 12.626 15.5 19 5.239 7.37 10.026 16.821 14 25-.242.358-3.195-1.516-3 4-9.713-21.409-26.678-40.865-45-55-1.255-.968-4.12-4.395-5-5-.394-1.332 1.626-3.667 2.5-4 2.616-.997 51.49-.752 56 0 3.159.527 15.129 6.636 16.5 9.5.259.541-2.167.428-2 1 .5 1.719 2.351 2.416 2 5.5"/><path fill="#051b33" d="M343 566c.024.985-.101 2.028 0 3 1.423 13.687 18.219 27.476 17 44-.552 11.096-.26 21.42-5 32-6.057 13.519-12.565 12.786-24 17 22.346-4.221 29.086-36.751 25-55.5-1.588-7.287-10.664-28.898-19-28.5-.583-1.795-2.938-.239-1-3 7.149.049 2.142-4.635 6-12 1.549.077.972 1.848 1 3"/><path fill="#bed4e3" d="M655 618c3.053 6.729 6.216 15.848 8 23 .374 1.5.617 4.113 1 6-1.452 3.88-3.289 2.881-7 4-6.741-31.96-25.524-60.736-51-81-.778-3.995 1.323-4.798 4-7 18.322 14.135 35.287 33.591 45 55"/><path fill="#296780" d="M405 566a175 175 0 0 0-4 4l-58-1c-.101-.972.024-2.015 0-3z"/><path fill="#065780" d="M531 567c-2.635 2.997-7.572 12.576-4 16-.97-.123-2.022.095-3 0-14.021-1.366-25.321-1.048-39 2-.885-.98-2.699-6.306-3-6.5-3.894-2.519-29.663 11.355-34.5 14.5-15.538 10.101-27.783 23.804-36.5 40-17.333 32.207-19.117 58.506-8 93 .712 2.209 3.58 17.459 6.5 18l10-9c1.82-.181 3.214 2.722 3.5 4 .45 2.013-1.319 7.507 1 12.5 1.845 3.971 15.121 16.835 15 18-.572 5.502-13.871-9.651-14.5-11.5l-3.5 2.5c.056 2.572 21.98 23.661 25.5 25.5 1.581.826 1.622-2.195 2-2 12.217 6.31 23.234 11.855 36.5 15.5-.053 4.159-21.628-5.386-23.5-6.5-6.914 1.173 1.404 3.281 1.5 6-24.064-10.044-46.03-30.372-59-53-4.088-7.131-10.31-20.131-12-28-19.127-89.087 49.934-160.882 139-151"/><path fill="#0a4062" d="M632 721c-2.573 4.608-6.505 13.901-7 19-27.823 48.255-79.797 76.619-136 67-7.673-1.313-18.737-4.968-26-8-.096-2.719-8.414-4.827-1.5-6 1.872 1.114 23.447 10.659 23.5 6.5-13.266-3.645-24.283-9.19-36.5-15.5-.378-.195-.419 2.826-2 2-3.52-1.839-25.444-22.928-25.5-25.5l3.5-2.5c.629 1.849 13.928 17.002 14.5 11.5.121-1.165-13.155-14.029-15-18-2.319-4.993-.55-10.487-1-12.5l3-1c-4.318 8.152.535 11.969 5 18 4.835 6.532 18.624 22.637 27.5 19 3.517-1.441 47.26-46.039 54.5-53l9 11-47 49.5c17.473 13.658 68.599 12.827 85.5-.5 2.331-1.838 4.155-3.672 3.5-7 4.309 2.094 7.046.625 11-1 4.803-1.974 26.178-21.988 27-26.5 1.254-6.885-17.464-22.188-23-27.5l7.5-45-30.5 24c-3.339-3.276-7.387-5.991-10-10 7.187-6.969 54.92-48.817 56-52.5 2.473-8.435-3.969-13.282-9-18.5-6.483-6.722-14.275-17.094-24-18 .36-1.016 1.365-1.565 1-2.5-12.608-7.317-28.361-12.649-43-14.5-3.572-3.424 1.365-13.003 4-16 74.034 8.214 119.223 83.568 101 154"/><path fill="#4b8a9f" d="M401 570c-5.433 5.574-11.338 11.78-16 18l-26 .5c-.546.668 3.01 14.872 3 17-.019 4.253-1.981 7.112-2 7.5 1.219-16.524-15.577-30.313-17-44z"/><path fill="#356d84" d="M680 570c-1.076 9.464-5.024 6.819-8 11.5-3.355 5.277-6.342 10.851-9 16.5-4.967-.773.214-8.631-.5-9-.822-.424-15.902-.579-18.5 0-4.531-6.374-12.302-11.778-15.5-19z"/><path fill="#063554" d="M336 575c-1.938 2.761.417 1.205 1 3 4.669 14.385 14.255 25.568 13 43.5-.695 9.929-7.538 32.436-19 34l10-9c1.645-8.118 6.495-17.875 7-22 1.705-13.938-5.553-35.206-15-44 2.659 16.504 10.429 27.794 8 46-.76 5.699-6.488 21.007-14 21.5 10.955-10.536 11.403-18.432 11-33-.389-14.065-6.232-21.564-7.5-35l-17.5 1.5c.991 3.577 7.009 3.391 8.5 4.5 8.698 6.466 12.109 18.646 11.5 29-1.244 21.143-20.137 35.034-40 36.5-.398 10.194 8.333 7.106 15.5 6.5 1.535-.13-2.136 2.495 4.5 0l6.5 4c3.773-2.764 8.774.515 11.5 0-.265.098-4.356 3.003-4 4-6.918-2.846-16.52-4.964-24-5-5.371-.026-11.026.961-16 3-9.881-6.483-6.492 1.177-7 1.5-1.344.854-2.551.262-3 .5-10.686 5.657-14.571 5.084-22 16-3.461 5.085-5.931 8.685-7 15-2.128 12.572 2.198 25.339 9 36-3.468 5.14-2.75-4.457-7-5-15.937-32.973-1.505-55.578 30-68.5-15.462-21.762-15.732-52.985 7.5-69.5 19.876-14.129 25.363-15.159 48.5-15m-44 15c-8.141 4.424-14.256 10.106-17 19-4.343 14.074-.751 29.433 14 36 9.467 4.214 15.529 3.084 24.5-2 31.69-17.959 18.07-74.504-21.5-53"/><path fill="#084060" d="M690 656c2.84 1.778 7.873.352 7 5-2.599.15-8.035 1.216-10 1-4.383-4.185-9.998-4.307-15-10.5-.299-.37-2.646-10.417-5-6-.631 1.184 3.7 7.011 5 8.5l2 23c-1.844 2.697-4.237 5.588-1 8-.683 1.948-1.549 5.717 1 6-1.328.217-6.664.89-7 1 2.318-15.127.01-30.17-3-45-.383-1.887-.626-4.5-1-6 7.537-7.857-1.048-18.609 0-29.5 1.103-11.465 13.306-34.173 26.5-35.5-11.105 14.93-19.036 28.308-17.5 47.5.352 4.392 7.53 26.172 14 32 1.154 1.039 2.871 2.913 4 .5"/><path fill="#085678" d="M331 662c-2.726.515-7.727-2.764-11.5 0l-6.5-4c3.023-1.137 11.419-7.518 14-10 7.512-.493 13.24-15.801 14-21.5 2.429-18.206-5.341-29.496-8-46 9.447 8.794 16.705 30.062 15 44-.505 4.125-5.355 13.882-7 22l-10 9c11.462-1.564 18.305-24.071 19-34 1.255-17.932-8.331-29.115-13-43.5 8.336-.398 17.412 21.213 19 28.5 4.086 18.749-2.654 51.279-25 55.5"/><path fill="#076a93" d="M485 585c-8.675 1.933-25.896 6.652-30 15-7.365-1.799-17.657 10.48-22 16-1.589 2.02-3.738 3.803-5 6-3.577 6.229-6.206 8.955-2 16.5l51 50-51 49.5-3 1c-.286-1.278-1.68-4.181-3.5-4l-10 9c-2.92-.541-5.788-15.791-6.5-18l10-.5c-8.075-30.509-6.143-61.627 5-91l-7-1.5c8.717-16.196 20.962-29.899 36.5-40 4.837-3.145 30.606-17.019 34.5-14.5.301.194 2.115 5.52 3 6.5"/><path fill="#095070" d="M338 615h-5c.609-10.354-2.802-22.534-11.5-29-1.491-1.109-7.509-.923-8.5-4.5l17.5-1.5c1.268 13.436 7.111 20.935 7.5 35"/><path fill="#078bb5" d="m524 583-20 65c-7.105-6.266-45.668-47.186-49-48 4.104-8.348 21.325-13.067 30-15 13.679-3.048 24.979-3.366 39-2"/><path fill="#076c96" d="M527 583c14.639 1.851 30.392 7.183 43 14.5.365.935-.64 1.484-1 2.5-3.359 9.478-48.743 45.78-57.5 56-.948-.075-6.267-6.912-7.5-8l20-65c.978.095 2.03-.123 3 0"/><path fill="#108bb0" d="m289 645 3-2c24.84 7.456 46.348-28.781 28-49.5-4.355-4.918-8.701-6.204-15-5.5-5.056.565-9.322 3.712-13 2 39.57-21.504 53.19 35.041 21.5 53-8.971 5.084-15.033 6.214-24.5 2"/><path fill="#051c34" d="M707 587c-29.918 8.693-23.9 54.664 6 60 12.528 2.236 25.594-4.08 29-17l-3 14.5c-7.154-4.688-5.777 4.878-16 5.5-25.977 1.581-43.884-22.76-36-47 .961-2.955 6.913-12.073 9.5-14 .451-.336 10.907-5.7 10.5-2"/><path fill="#086a91" d="M726 591c-9.261-3.886-22.579-2.591-29 6-6.854 9.169-5.346 22.576 3.5 30 9.458 7.938 17.12 5.573 28 5 .636-.034 4.543 4.841 8.5-4-2.65 14.085-6.948 14.651-20 17-19.607-3.739-29.526-21.354-26-40.5 1.793-9.736 11.216-13.137 18-18.5 3.343-.644 5.85.641 8.5 1 .276.037 1.761-2.065 2-2 .94.254 4.691 5.235 6.5 6"/><path fill="#1595b8" d="M717 645c-.22.04-3.819 1.363-4 2-29.9-5.336-35.918-51.307-6-60 .922-.268 1.123-.831 2-1-6.784 5.363-16.207 8.764-18 18.5-3.526 19.146 6.393 36.761 26 40.5"/><path fill="#083a5a" d="M292 643c-4.673-1.403-7.523-5.007-10-9 2.757-.397 4.471 3.716 7 5 18.216 9.249 38.487-11.805 36-30.5-.043-.322-1.945-3.306-2-3.5-1.338-4.762-2.45-7.412-6-11-3.415-3.452-7.085-6.287-12-6 6.299-.704 10.645.582 15 5.5 18.348 20.719-3.16 56.956-28 49.5"/><path fill="#72bacc" d="M385 588c-11.269 15.036-24.701 39.653-29 58l-1-1c4.74-10.58 4.448-20.904 5-32 .019-.388 1.981-3.247 2-7.5.01-2.128-3.546-16.332-3-17z"/><path fill="#82f1f6" d="M305 588c4.915-.287 8.585 2.548 12 6-4.067-.66-6.579-3.672-11-4-9.19-.682-21.243 8.789-25 17l-6 2c2.744-8.894 8.859-14.576 17-19 3.678 1.712 7.944-1.435 13-2"/><path fill="#43859c" d="M663 598c-2.182 4.638-1.934 11.456-5 16-3.974-8.179-8.761-17.63-14-25 2.598-.579 17.678-.424 18.5 0 .714.369-4.467 8.227.5 9"/><path fill="#9eeaf3" d="M726 591c13.935 5.847 19.673 25.067 16 39-3.406 12.92-16.472 19.236-29 17 .181-.637 3.78-1.96 4-2 13.052-2.349 17.35-2.915 20-17 4.303-22.871-17.865-48.082-40-31 6.421-8.591 19.739-9.886 29-6"/><path fill="#0dd6f1" d="m306 590 2 4c-12.743-1.048-27.007 21.96-23 34-1.98-.114-4.016.078-6 0-1.665-7.256-1.087-14.253 2-21 3.757-8.211 15.81-17.682 25-17"/><path fill="#05b2d9" d="M317 594c3.55 3.588 4.662 6.238 6 11 .991 10.653-10.537 24.521-20.5 27-2.743.683-10.172-.829-12 0-1.3.59 2.716 5.897-1.5 7-2.529-1.284-4.243-5.397-7-5-1.432-2.309-2.336-3.103-3-6 1.984.078 4.02-.114 6 0 10.701.617 22.043-13.332 29-21.5-5.974-.155 7.141-11.419-6-12.5l-2-4c4.421.328 6.933 3.34 11 4"/><path fill="#08b8de" d="M737 628c-3.957 8.841-7.864 3.966-8.5 4-10.88.573-18.542 2.938-28-5-8.846-7.424-10.354-20.831-3.5-30 22.135-17.082 44.303 8.129 40 31m-24.5-31c-1.886.556-3.841 4.153-3.5 6.5.969 6.666 17.21 5.733 20 10 2.265 3.464 1.251 13.176 1.5 17.5l2.5-3.5c2.615-9.977-8.059-34.169-20.5-30.5"/><path fill="#5ff2fe" d="M308 594c13.141 1.081.026 12.345 6 12.5-6.957 8.168-18.299 22.117-29 21.5-4.007-12.04 10.257-35.048 23-34"/><path fill="#80f4fc" d="M712.5 597c12.441-3.669 23.115 20.523 20.5 30.5l-2.5 3.5c-.249-4.324.765-14.036-1.5-17.5-2.79-4.267-19.031-3.334-20-10-.341-2.347 1.614-5.944 3.5-6.5"/><path fill="#f8fcfd" d="M455 600c3.332.814 41.895 41.734 49 48 1.233 1.088 6.552 7.925 7.5 8 8.757-10.22 54.141-46.522 57.5-56 9.725.906 17.517 11.278 24 18-1.385-1.437-14.499-12.857-15.5-13-8.615-1.233-55.119 55.592-64 55-9.145-.61-49.107-50.744-60-55-10.645-4.159-11.792 7.687-20.5 11 4.343-5.52 14.635-17.799 22-16"/><path fill="#055075" d="M687 603c-7.884 24.24 10.023 48.581 36 47-1.995 9.257-4.891 5.887-7.5 7-1.417.604-1.505 2.891-2 3-4.229.927-5.688-2.051-6-2-1.433.234-9.651 2.951-10.5 3 .873-4.648-4.16-3.222-7-5-9.97-6.242-13.459-23.331-14.5-34 6.166-7.455 3.764 16.892 10.5 15.5-3.692-8.014-10.431-32.785 1-34.5"/><path fill="#c1dde5" d="M593 618c5.031 5.218 11.473 10.065 9 18.5-1.08 3.683-48.813 45.531-56 52.5-11.149 10.81-21.835 22.266-33 33-7.24 6.961-50.983 51.559-54.5 53-8.876 3.637-22.665-12.468-27.5-19-1.91-5.002-3.636-8.1-1-13.5l54-56c-.467-3.683-47.074-43.333-53-52-3.898-5.7-4.007-5.503-3-12.5 1.262-2.197 3.411-3.98 5-6 8.708-3.313 9.855-15.159 20.5-11 10.893 4.256 50.855 54.39 60 55 8.881.592 55.385-56.233 64-55 1.001.143 14.115 11.563 15.5 13"/><path fill="#0680a8" d="M289 639c4.216-1.103.2-6.41 1.5-7 1.828-.829 9.257.683 12 0 9.963-2.479 21.491-16.347 20.5-27 .055.194 1.957 3.178 2 3.5 2.487 18.695-17.784 39.749-36 30.5"/><path fill="#c8f5f8" d="M279 628c.664 2.897 1.568 3.691 3 6 2.477 3.993 5.327 7.597 10 9l-3 2c-14.751-6.567-18.343-21.926-14-36l6-2c-3.087 6.747-3.665 13.744-2 21"/><path fill="#076a91" d="M338 615c.403 14.568-.045 22.464-11 33-2.581 2.482-10.977 8.863-14 10-6.636 2.495-2.965-.13-4.5 0-7.167.606-15.898 3.694-15.5-6.5 19.863-1.466 38.756-15.357 40-36.5z"/><path fill="#083a5b" d="M674.5 615c3.559-.623 3.892.876 5.5 3.5-.261.635-8.546-.269-5.5-3.5"/><path fill="#f6fcfd" d="M431 756c-4.465-6.031-9.318-9.848-5-18l51-49.5-51-50c-4.206-7.545-1.577-10.271 2-16.5-1.007 6.997-.898 6.8 3 12.5 5.926 8.667 52.533 48.317 53 52l-54 56c-2.636 5.4-.91 8.498 1 13.5"/><path fill="#0782ac" d="M403 726c-11.117-34.494-9.333-60.793 8-93l7 1.5c-11.143 29.373-13.075 60.491-5 91z"/><path fill="#fcfdfe" d="M356 646c-3.224 13.758-3.374 28.929-4.5 43-5.742-9.863-13.829-18.61-24.5-23-.356-.997 3.735-3.902 4-4 11.435-4.214 17.943-3.481 24-17z"/><path fill="#052844" d="M687 662c-6.201-.681-10.985-3.401-15-8-1.3-1.489-5.631-7.316-5-8.5 2.354-4.417 4.701 5.63 5 6 5.002 6.193 10.617 6.315 15 10.5"/><path fill="#9ab4c7" d="M667 692c-.383.126-5.159 3.089-7 4 2.344-14.927.091-30.344-3-45 3.711-1.119 5.548-.12 7-4 3.01 14.83 5.318 29.873 3 45"/><path fill="#fbfcfc" d="M687 662c.866.827.904 2.149 3 2.5-4.6 4.226-12.39 7.221-16 12.5l-2-23c4.015 4.599 8.799 7.319 15 8"/><path fill="#95e7f7" d="M303 661c5.873 4.723 14.808 4.209 22.5 8 2.008.99 22.135 16.654 19 18-6.612-.872-12.902-1.114-19.5 0-3.656.617-13.786 4.149-17 6 5.661-15.928-.064-27.407-18-26l.5-2-7.5.5c1.086-2.123 3.003-1.091 4-1.5 4.974-2.039 10.629-3.026 16-3"/><path fill="#33cee7" d="M287 664c-.997.409-2.914-.623-4 1.5l7.5-.5-.5 2c-6.456.507-21.528 9.697-25 15l-3-1c1.12-2.011 5.751-7.564 7.5-9 .416-.342 11.963-2.727 7.5-6 .449-.238 1.656.354 3-.5.508-.323-2.881-7.983 7-1.5"/><path fill="#2aa1c4" d="M737 665c8.626 2.911 12.413 6.119 18 13-13.832-9.392-22.694-14.19-40-13-2.153.148-3.172.76-5 1-4.441.582-15.145 2.504-19 4 11.578-9.829 32.031-9.714 46-5"/><path fill="#04162f" d="M740 663c5.427.467 19.525 11.018 23 15.5 40.748 52.559-61.212 130.215-110.5 108.5-8.025 18.35-16.879 32.383-11.5 53-1.355-.274-.833 2.103-1.5 2-12.052-1.863-24.146-2.122-36 1-6.159 1.622-42.181 19.258-43.5 23.5-2.472 7.951 4.276 24.66 14.5 24.5-3.178-21.887 16.252-40.765 36.5-43-15.415 3.857-38.547 21.549-32 39.5 4.028 11.044 40.049 11.948 51 12.5 14.214.716 40.676 2.334 54-1 5.678-1.421 6.355.53 7-6 1.97-1.567-.004-3.783 4-3 .134 16.186-22.941 13.67-36 14-17.702.447-87.559-3.403-98-16.5-3.817-4.788-3.716-11.909-4-17.5-.168-3.313 2.275-5.957 2-9.5-.262-3.38-4.374-16.963-6-20.5-.901-1.96-1.818 2.009-1-3 10.227-2.573 28.6-10.796 38-16l3 2c-.216.106-4.703 2.99-1.5 3 14.355-7.968 30.202-5.804 46-6 1.641-2.909-2.048-1.847-3.5-2 .66-1.605 2.01-.569 4-2 .581-.418 1.534 1.747 2 .5.841-2.253-.284-11.485 0-12.5.432-1.545 8.223-19.694 9-20.5 1.669-1.731 5.329 4.73 6-.5 47.778 19.96 102.178-35.203 57-79-2.433-2.358-3.722-4.327-7-6-24.171-12.34-67.105 7.424-74 33-1.24 4.601-1.408 10.286-1 15-3.889 5.294-.865-7.945-2.5-8l-2.5 9c-.162-2.051-.197-4.974 0-7 .495-5.099 4.427-14.392 7-19 5.756-10.308 17.519-19.812 28-25 1.841-.911 6.617-3.874 7-4 .336-.11 5.672-.783 7-1 30.442-4.969 52.855 14.115 57 44 .761 5.488 1.369 10.917 1 16.5l-6.5 16.5c20.609-17.902 48.861-40.554 42.5-71.5-.617-3.001-6.528-17.946-11-16.5-.185-.278-1.703-1.634-2-2-5.587-6.881-9.374-10.089-18-13-.387-2.495 1.152-2.159 3-2M617.5 821c-6.597.29-22.967 4.201-29 7-3.55 1.647-7.371 2.971-8.5 6.5.725 1.408 27.083-8.013 30.5-8.5 5.313-.758 24.914.715 26 0 7.441-4.896-16.946-5.09-19-5m-3 7c-8.695.723-53.167 15.761-55.5 23.5-.439 1.457.305 4.26 0 6 13.875-9.474 34.612-22.651 51.5-24.5 5.08-.556 24.247 1.815 26 1 11.708-5.443-19.486-6.209-22-6m.5 11c4.676-.442 22.401 1.482 23 .5 2.704-4.437-18.272-5.595-21-5.5-9.154.319-55.866 17.51-57 25.5-.187 1.32.761 1.722 1.5 2.5 16.183-10.947 33.668-21.124 53.5-23"/><path fill="#b0ecf4" d="M755 678c.297.366 1.815 1.722 2 2 6.473 9.736 10.168 24.44 6.5 36 2.235-28.005-21.348-49.957-48.5-51 17.306-1.19 26.168 3.608 40 13"/><path fill="#1f7c9e" d="M715 665c27.152 1.043 50.735 22.995 48.5 51 3.668-11.56-.027-26.264-6.5-36 4.472-1.446 10.383 13.499 11 16.5 6.361 30.946-21.891 53.598-42.5 71.5l6.5-16.5c.369-5.583-.239-11.012-1-16.5 16.07-7.565 31.114-31.776 21-48.5-8.264-13.664-27.93-17.2-42-20.5 1.828-.24 2.847-.852 5-1"/><path fill="#aae8f4" d="M262 681c-12.435 22.325 1.606 60.615 23 74 .65 2.431 4.023 5.404 3.5 8-10.484-9.463-23.736-17.831-31.5-30-6.802-10.661-11.128-23.428-9-36l2 4.5c-1.076-5.632 8.855-15.27 5-19.5 7.429-10.916 11.314-10.343 22-16 4.463 3.273-7.084 5.658-7.5 6-1.749 1.436-6.38 6.989-7.5 9"/><path fill="url(#e)" d="M710 666c14.07 3.3 33.736 6.836 42 20.5 10.114 16.724-4.93 40.935-21 48.5-4.145-29.885-26.558-48.969-57-44-2.549-.283-1.683-4.052-1-6 1.935-5.52 12.635-12.918 18-15 3.855-1.496 14.559-3.418 19-4" style="fill:url(#e)"/>/&gt;<path fill="url(#f)" d="M290 667c17.936-1.407 23.661 10.072 18 26-12.775 7.357-22.128 24.775-24 39-16.018-8.965-30.496-32.444-19-50 3.472-5.303 18.544-14.493 25-15" style="fill:url(#f)"/>/&gt;<path fill="#0c5c83" d="M579 720c-7.474-7.172-15.519-13.659-23-21l30.5-24z"/><path fill="#179dc6" d="M265 682c-11.496 17.556 2.982 41.035 19 50-1.02 7.75-1.045 15.354 1 23-21.394-13.385-35.435-51.675-23-74z"/><path fill="#daf8fb" d="M248 697c1.069-6.315 3.539-9.915 7-15 3.855 4.23-6.076 13.868-5 19.5z"/><path fill="#051f3b" d="M338 691c-32.899-2.807-51.84 21.629-49 53-.934 18.776 12.786 29.815 30 34-.149 1.803-2.225.418-3 1.5-.296.414 2.336.329 2 1.5-24.916-6.774-56.444-29.09-68-53 4.25.543 3.532 10.14 7 5 7.764 12.169 21.016 20.537 31.5 30 .523-2.596-2.85-5.569-3.5-8-2.045-7.646-2.02-15.25-1-23 1.872-14.225 11.225-31.643 24-39 3.214-1.851 13.344-5.383 17-6 2.819 4.503 12.299-.673 13 4"/><path fill="#7d97b0" d="M556 699c7.481 7.341 15.526 13.828 23 21 5.536 5.312 24.254 20.615 23 27.5-.822 4.512-22.197 24.526-27 26.5-11.416-1.592-43.662-43.406-52-41-.33.095-.752-.117-1 0l-9-11c11.165-10.734 21.851-22.19 33-33 2.613 4.009 6.661 6.724 10 10"/><path fill="#6ac5e0" d="M338 691c20.966 1.789 47.142 18.564 46 42-18.452 22.784-73.533 29.785-86-1.5-2.342-5.878-1.46-9.678-1.5-15.5-5.034 8.804-4.736 17.889-5.5 27.5-.066.829-1.995.397-2 .5-2.84-31.371 16.101-55.807 49-53m-11.5 3c-23.52.235-33.266 39.267-9 28 7.399-3.436 14.414-17.815 16.5-25.5-2.062-2.432-4.568-2.529-7.5-2.5"/><path fill="#fafefe" d="M326.5 694c2.932-.029 5.438.068 7.5 2.5-2.086 7.685-9.101 22.064-16.5 25.5-24.266 11.267-14.52-27.765 9-28"/><path fill="#aaeef9" d="M705 698c-2.738 4.907-12.299 2.954-17.5 4-13.181 2.651-26.104 8.103-37 16-7.17 5.196-9.83 14.766-19.5 13 6.895-25.576 49.829-45.34 74-33"/><path fill="#6dbfd8" d="M712 704c15.555 35.873-40.417 69.108-69.5 52-5.575-3.279-5.739-10.623-11.5-6-.143-.771-.818-1.893-1-4-.408-4.714-.24-10.399 1-15 9.67 1.766 12.33-7.804 19.5-13 10.896-7.897 23.819-13.349 37-16 5.201-1.046 14.762.907 17.5-4 3.278 1.673 4.567 3.642 7 6"/><path fill="#2b84a6" d="M655 783c-11.715-4.894-21.746-20.817-24-33 5.761-4.623 5.925 2.721 11.5 6 29.083 17.108 85.055-16.127 69.5-52 45.178 43.797-9.222 98.96-57 79"/><path fill="url(#g)" d="M384 733c-1.594 32.727-33.929 52.553-65 45-17.214-4.185-30.934-15.224-30-34 .005-.103 1.934.329 2-.5.764-9.611.466-18.696 5.5-27.5.04 5.822-.842 9.622 1.5 15.5 12.467 31.285 67.548 24.284 86 1.5" style="fill:url(#g)"/>/&gt;<path fill="#7a9ab1" d="M404 746c.159 5.939 4.394 3.073-1 8-4.514 4.124-13.133 6.888-18 11-.897-.961-5.37-2.682-7-3 .253-2.813 8.995-14.967 10-21.5.771-5.014.045-12.456-1-17.5 4.289-.091 3.333-2.378 5-5 1.69 7.869 7.912 20.869 12 28"/><path fill="#8fa9be" d="M575 774c-3.954 1.625-6.691 3.094-11 1-8.269-4.019-29.917-35.933-41-42 8.338-2.406 40.584 39.408 52 41"/><path fill="#0b5378" d="M522 733c.248-.117.67.095 1 0 11.083 6.067 32.731 37.981 41 42 .655 3.328-1.169 5.162-3.5 7-16.901 13.327-68.027 14.158-85.5.5z"/><path fill="#032240" d="M630 746c.182 2.107.857 3.229 1 4 2.254 12.183 12.285 28.106 24 33-.671 5.23-4.331-1.231-6 .5-.777.806-8.568 18.955-9 20.5l-13 1.5c1.798-.872 19.193 1.948 10.5 5.5-2.857 1.167-27.584-1.99-27.5 2.5l28 2.5c-1.99 1.431-3.34.395-4 2-11.115-1.169-30.903.035-41 5l-3-2c19.191-10.625 36.544-26.278 50-43.5.021-.23-2.648-2.8-3-3.5-4.754-9.449-9.134-13.526-11-25-.159-.981-.927-1.081-1-2l2.5-9c1.635.055-1.389 13.294 2.5 8"/><path fill="#6d8eaa" d="M625 747c.073.919.841 1.019 1 2-34.413 49.202-87.755 75.349-148 60-.778-6.914 7.426 1.295 11-2 56.203 9.619 108.177-18.745 136-67-.197 2.026-.162 4.949 0 7"/><path fill="#c3d9e6" d="M463 799c7.263 3.032 18.327 6.687 26 8-3.574 3.295-11.778-4.914-11 2-31.118-7.928-56.948-29.078-75-55 5.394-4.927 1.159-2.061 1-8 12.97 22.628 34.936 42.956 59 53"/><path fill="url(#h)" d="M637 774c-28.36 34.379-67.488 59.818-113 63-50.377 3.522-98.041-19.131-130-57.5-2.974-3.57-6.903-12.253-9-14.5 4.867-4.112 13.486-6.876 18-11 18.052 25.922 43.882 47.072 75 55 60.245 15.349 113.587-10.798 148-60 1.866 11.474 6.246 15.551 11 25" style="fill:url(#h)"/>/&gt;<path fill="#c5dbe8" d="M385 765c2.097 2.247 6.026 10.93 9 14.5 31.959 38.369 79.623 61.022 130 57.5l-2 4c-37.891 2.232-72.451-7.8-103-30-10.151-7.377-42.133-36.417-41-49 1.63.318 6.103 2.039 7 3"/><path fill="#051f3b" d="M372 770c-1.361 9.243 4.833 28.207 12 34l-5.5-4c-.983.325 1.251 4.882 1.5 6l-14.5-30-12.5 5c6.064-2.863 13.88-11.888 19-11"/><path fill="#5293af" d="M384 804c-7.167-5.793-13.361-24.757-12-34l2-.5 31 37c-8.263 1.698-14.076 3.096-21-2.5"/><path fill="#89a9c0" d="M590 821c-9.4 5.204-27.773 13.427-38 16-8.716 2.193-20.92 3.465-30 4l2-4c45.512-3.182 84.64-28.621 113-63 .352.7 3.021 3.27 3 3.5-13.456 17.222-30.809 32.875-50 43.5"/><path fill="#0c4868" d="M640 804c-.284 1.015.841 10.247 0 12.5-.466 1.247-1.419-.918-2-.5l-28-2.5c-.084-4.49 24.643-1.333 27.5-2.5 8.693-3.552-8.702-6.372-10.5-5.5z"/><path fill="#0c3858" d="M522 841c9.08-.535 21.284-1.807 30-4-.818 5.009.099 1.04 1 3-25.751 7.97-55.642 7.774-81.5 0l-1.5 2-2-1.5-3 22c-.948 1.763-3.8-1.424-4-1.5 3.3.088 2.157-1.719.5-3-12.61-9.747-34.585-20.251-50.5-22l2-2c.669-.021 6.341-.839 4.5-3-10.945-.482-20.934-2.994-32-1-1.584.489-1.397 2.866-1.5 3-.632.827-.624 1.874-1 3-1.976-2.016-.284-6.28 0-9 4.211 1.297 8.973-.888 13-1 7.536-.21 15.087.916 22.5 2 5.576.816 10.639 5.544 15.5 1.5.305-1.833-17.434-5.083-20-5.5 1.614-6.177 6.029-6.443 5-13 30.549 22.2 65.109 32.232 103 30"/><path fill="#2087a4" d="M389.5 812c2.633-.446 20.614-.556 20.5 2.5-4.044 4.12-39.006.638-20.5-2.5"/><path fill="#073253" d="M634 818c1.452.153 5.141-.909 3.5 2-15.798.196-31.645-1.968-46 6-3.203-.01 1.284-2.894 1.5-3 10.097-4.965 29.885-6.169 41-5"/><path fill="#245474" d="M617.5 821c2.054-.09 26.441.104 19 5-1.086.715-20.687-.758-26 0-3.417.487-29.775 9.908-30.5 8.5 1.129-3.529 4.95-4.853 8.5-6.5 6.033-2.799 22.403-6.71 29-7"/><path fill="#4ba4be" d="M414 824c2.566.417 20.305 3.667 20 5.5-4.861 4.044-9.924-.684-15.5-1.5-7.413-1.084-14.964-2.21-22.5-2h-13c.021-.66.01-1.339 0-2 8.754-3.966 21.473-1.546 31 0"/><path fill="#021833" d="M396 826c-4.027.112-8.789 2.297-13 1 .034-.327-.01-.669 0-1z"/><path fill="#062a4b" d="M614.5 828c2.514-.209 33.708.557 22 6-1.753.815-20.92-1.556-26-1-16.888 1.849-37.625 15.026-51.5 24.5.305-1.74-.439-4.543 0-6 2.333-7.739 46.805-22.777 55.5-23.5"/><path fill="#2f94b4" d="M413 834c-9.154.289-19.597-1.918-29-1 .103-.134-.084-2.511 1.5-3 11.066-1.994 21.055.518 32 1 1.841 2.161-3.831 2.979-4.5 3"/><path fill="#051b36" d="m413 834-2 2c-2.017-.222-36.267-1.56-26.5 4 1.164.663 18.851-1.367 23-1 25.312 2.242 33.387 14.35 53.5 22 .2.076 3.052 3.263 4 1.5l3-22 2 1.5c.667 6.245-3.581 15.487-4 20.5-.034.402 3.127 1.994 3 7.5-.764 33.161-87.251 35.205-111 32-1.738-.235-6.285-1.092-4-3 16.695 1.694 71.739 1.281 85.5-6 10.764-5.695 6.499-20.092.5-28-.281-2.917 1.896-2.534 3.5-1 5.314 5.082 7.671 18.787 6 26 10.53.643 18.665-15.457 15.5-23.5-.895-2.274-18.515-9.75-21.5-11.5-1.043-.611.042-2.402-1-3-2.073-1.19-13.021-7.493-13.5-4-11.956-7.144-33.693-5.111-47-6 .751-2.487.598-4.796 1-6 .376-1.126.368-2.173 1-3 9.403-.918 19.846 1.289 29 1"/><path fill="#2a5a7a" d="m617 834-2 5c-19.832 1.876-37.317 12.053-53.5 23-.739-.778-1.687-1.18-1.5-2.5 1.134-7.99 47.846-25.181 57-25.5"/><path fill="#3083a1" d="m615 839 2-5c2.728-.095 23.704 1.063 21 5.5-.599.982-18.324-.942-23-.5"/><path fill="#70bfd5" d="M411 836c15.915 1.749 37.89 12.253 50.5 22 1.657 1.281 2.8 3.088-.5 3-20.113-7.65-28.188-19.758-53.5-22-4.149-.367-21.836 1.663-23 1-9.767-5.56 24.483-4.222 26.5-4"/><path fill="#063455" d="M641 840c.101.02-.36 1.786.5 2 15.59 3.881 39.115 16.797 47.5 31 2.698 4.57 5.957 11.743 6 17-4.004-.783-2.03 1.433-4 3 .85-8.611-7.104-20.543-14-25 .703-3.586-5.794-9.109-8.5-11-16.058-11.221-38.906-13.652-57.5-9-20.248 2.235-39.678 21.113-36.5 43-10.224.16-16.972-16.549-14.5-24.5 1.319-4.242 37.341-21.878 43.5-23.5 11.854-3.122 23.948-2.863 36-1 .667.103.145-2.274 1.5-2"/><path fill="#58b5d2" d="M429 848c1.402.838 2.804 2.341 4 3.5.103 7.585-16.365-7.372-20-2 8.704 2.976 21.277 7.956 27 15.5 5.999 7.908 10.264 22.305-.5 28-13.761 7.281-68.805 7.694-85.5 6-3.369-.342-7.709-.361-11-1 2.471-3.29-2.565-.863-2-3.5.162-.757 6.026-8.933 7-10 16.095-17.633 39.196-16.944 61-14-1.512-1.927-7.215-3.094-9.5-3.5-4.749-.844-34.265-4.298-37.5-4-9.964-.361-16.156 7.651-24 12 8.613-16.459 24.246-25.559 42.5-27 3.172-2.027.424-3.813.5-4 .311-.762.763-1.215 1-2 13.307.889 35.044-1.144 47 6"/><path fill="#0b243d" d="M381 844c-.076.187 2.672 1.973-.5 4-18.254 1.441-33.887 10.541-42.5 27-3.077 5.88-8.87 15.584-4 20 1.823 1.653 6.475 2.51 9 3 3.291.639 7.631.658 11 1-2.285 1.908 2.262 2.765 4 3l-1 2c-21.957-4.536-38.38-2.886-23-31 8.1-14.805 30.918-26.45 47-29"/><path fill="#053556" d="M440 865c-5.723-7.544-18.296-12.524-27-15.5 3.635-5.372 20.103 9.585 20 2-1.196-1.159-2.598-2.662-4-3.5.479-3.493 11.427 2.81 13.5 4 1.042.598-.043 2.389 1 3 2.985 1.75 20.605 9.226 21.5 11.5 3.165 8.043-4.97 24.143-15.5 23.5 1.671-7.213-.686-20.918-6-26-1.604-1.534-3.781-1.917-3.5 1"/><path fill="#1d698b" d="M677 868c-10.511-6.794-21.195-6.104-33-5-10.751 1.006-31.306 4.635-38.5 12 27.34-12.823 64.183-9.435 76.5 21.5l-52 3.5c-10.951-.552-46.972-1.456-51-12.5-6.547-17.951 16.585-35.643 32-39.5 18.594-4.652 41.442-2.221 57.5 9 2.706 1.891 9.203 7.414 8.5 11"/><path fill="#addcea" d="M677 868c6.896 4.457 14.85 16.389 14 25-.645 6.53-1.322 4.579-7 6 8.526-5.707-5.336-26.333-11.5-30l-28.5-6c11.805-1.104 22.489-1.794 33 5"/><path fill="#eafafb" d="M362 863c-13.761 1.269-25.893 19.114-28 32-4.87-4.416.923-14.12 4-20 7.844-4.349 14.036-12.361 24-12"/><path fill="#baeef9" d="M343 898c-2.525-.49-7.177-1.347-9-3 2.107-12.886 14.239-30.731 28-32 3.235-.298 32.751 3.156 37.5 4 2.285.406 7.988 1.573 9.5 3.5-21.804-2.944-44.905-3.633-61 14-.974 1.067-6.838 9.243-7 10-.565 2.637 4.471.21 2 3.5"/><path fill="#3789ac" d="M684 899c-13.324 3.334-39.786 1.716-54 1l52-3.5c-12.317-30.935-49.16-34.323-76.5-21.5 7.194-7.365 27.749-10.994 38.5-12l28.5 6c6.164 3.667 20.026 24.293 11.5 30"/>/&gt;</svg>