<svg xmlns="http://www.w3.org/2000/svg" width="1024" height="1024"><defs><linearGradient id="a" x1="422.095" x2="739.034" y1="185.285" y2="277.206" gradientUnits="userSpaceOnUse"><stop offset="0%" style="stop-color:#aae8f2"/><stop offset="55.758%" style="stop-color:#61cee4"/><stop offset="100%" style="stop-color:#2e96b4"/></linearGradient></defs><defs><linearGradient id="b" x1="436.763" x2="283.812" y1="126.238" y2="342.642" gradientUnits="userSpaceOnUse"><stop offset="0%" style="stop-color:#fcfeff"/><stop offset="100%" style="stop-color:#b8ebf5"/></linearGradient></defs><defs><linearGradient id="c" x1="347.897" x2="619.862" y1="215.438" y2="489.356" gradientUnits="userSpaceOnUse"><stop offset="0%" style="stop-color:#f4fcfd"/><stop offset="6.995%" style="stop-color:#cceef5"/><stop offset="57.513%" style="stop-color:#9acedd"/><stop offset="100%" style="stop-color:#48869d"/></linearGradient></defs><defs><linearGradient id="d" x1="754.5" x2="754.5" y1="270" y2="338" gradientUnits="userSpaceOnUse"><stop offset="0%" style="stop-color:#1da2c3"/><stop offset="100%" style="stop-color:#1085a6"/></linearGradient></defs><defs><linearGradient id="e" x1="422.534" x2="543.94" y1="303.213" y2="422.211" gradientUnits="userSpaceOnUse"><stop offset="0%" style="stop-color:#32adc9"/><stop offset="100%" style="stop-color:#0b6282"/></linearGradient></defs><defs><linearGradient id="f" x1="455.896" x2="513.424" y1="337.016" y2="395.45" gradientUnits="userSpaceOnUse"><stop offset="0%" style="stop-color:#053f65"/><stop offset="100%" style="stop-color:#000d38"/></linearGradient></defs><defs><linearGradient id="g" x1="742.006" x2="846.42" y1="418.54" y2="499.297" gradientUnits="userSpaceOnUse"><stop offset="0%" style="stop-color:#c9acb0"/><stop offset="100%" style="stop-color:#7b4a55"/></linearGradient></defs><defs><linearGradient id="h" x1="358.055" x2="557.732" y1="568.919" y2="749.169" gradientUnits="userSpaceOnUse"><stop offset="14.126%" style="stop-color:#aecfdb"/><stop offset="100%" style="stop-color:#7b9fb1"/></linearGradient></defs><defs><linearGradient id="i" x1="222.583" x2="245.228" y1="663.599" y2="690.286" gradientUnits="userSpaceOnUse"><stop offset="0%" style="stop-color:#129aba"/><stop offset="100%" style="stop-color:#087495"/></linearGradient></defs><defs><linearGradient id="j" x1="319.662" x2="379.219" y1="864.295" y2="884.837" gradientUnits="userSpaceOnUse"><stop offset="0%" style="stop-color:#34a8c4"/><stop offset="100%" style="stop-color:#0b7d9d"/></linearGradient></defs><path fill="#287790" d="m360 96-17 2c-.158-.944-1.995-4.254-2-4.5-.299-13.48 20.253-19.022 19 2.5"/><path fill="#2b7e99" d="M618 104c-.426-7.805-6.791-5.476-14-7 .025-29.153 30.086-12.294 14 7"/><path fill="#0983a2" d="M605 117c3.147 1.454 7.262 5.976 12 5 2.325 5.438 20.072 12.388 25.5 17 1.081-23.184 36.186-55.992 50.5-24-.148 1.55-2.271 2.263-3 3-7.546-25.392-44.357-14.533-33 14 .596 1.499.532 3.521 2 5.5 1.027 1.384 8.105 7.251 9 7.5l-5 11c-.494-.396-11.396-8.028-11-4-98.42-80.424-238.814-78.158-338-1-42.518 33.076-55.974 59.045-79 106-3.689 7.524-2.771 14.438-12 10 3.536-10.366 7.113-20.201 13-29.5-1.165-2.115-4.987 1.745-6 2.5-11.112 5.701-23.687 12.461-32 22-2.481 2.847-.499 1.738-2 4-4.595-2.75-2.828 4.108-3 5-3.569 7.238-7.5 18.496-9 27l-3-3c11.306-57.527 36.272-42.733 67-76.5 5.961-6.551 11.84-19.55 18-27 5.151-6.231 33.093-32.735 34-35 .208-.519.061-2.598 0-3.5 7.375.06 13.754-9.519 20-14 6.444-4.623 19.27-13.313 26-17 2.924-1.602 8.76-4.427 12-6 76.936-37.365 170.132-34.506 247 1m46.5 4c-9.885 5.815 7.821 29.035 13 28 4.286-.856-4.312-6.722-5.5-8.5-4.043-6.05-7.188-12.046-7.5-19.5"/><path fill="url(#a)" d="M652 152c47.613 38.908 84.187 103.077 89 165-3.053 2.147-18.56 19.347-19 21l-5-2c-3.197-35.588-17.648-69.14-38-98-59.009-83.678-166.51-116.973-265-92 11.899-9.346 38.382-44.471 5.5-41-11.613 1.226-50.328 16.626-61 23-3.965 2.368-27.986 21.739-28.5 24.5-.56 3.003 2.857 3.143 1.5 5.5-4.657-6.973-10.371-5.211-17.5-7 99.186-77.158 239.58-79.424 338 1m-11 1c-14.243 3.266-11.505 21.775-.5 24 13.547 2.739 21.433-11.564 10.5-21-4.679-4.039-3.135-4.574-10-3m52.5 59c-15.305 2.124-10.23 27.545 6 25 14.724-2.309 10.582-27.301-6-25" style="fill:url(#a)"/>/&gt;<path fill="#2293af" d="M360 96c-.388 6.667-2.858 13.173-2 20-3.24 1.573-9.076 4.398-12 6 2.868-8.104-1.678-16.103-3-24z"/><path fill="#3398b2" d="M618 104c.303 5.555-3.632 11.843-1 18-4.738.976-8.853-3.546-12-5 1.058-6.4-1.005-14.077-1-20 7.209 1.524 13.574-.805 14 7"/><path fill="#147a98" d="m314 115-5-2c-6.474-19.77-50.136-4.115-32 22 .472.679-.597 2.759 2.5 5 16.666 12.06 37.504-6.299 34.5-24 3.304 4.161 5.006 8.805 6 14-5.998 3.288-8.702 10.695-14.5 15-1.601 1.189-5.631 2.528-7.5 4-5.127-6.233-24.295-2.982-27-19.5-4.966-30.319 37.828-34.148 43-14.5"/><path fill="#69d4e8" d="M309 113c3.992 12.189-20.31 27.685-32 22-18.136-26.115 25.526-41.77 32-22m-22.5 2c-1.27.54-2.318 3.143-1 4 4.328 2.816 7.734-6.862 1-4"/><path fill="#33e0f6" d="M690 118c-9.156 9.26-19.533 15.543-33 14-11.357-28.533 25.454-39.392 33-14"/><path fill="url(#b)" d="M414 146c-54.817 13.899-108.383 54.024-138 102-22.879 37.062-34.481 80.272-30 124 2.694 26.284 12.667 54.331 26 77l-3 1c-12.104-20.692-20.755-43.155-24-67-1.532-11.26-.205-28.08-2-36.5-1.8-8.447-17.592-27.027-17-39l-3 2.5c1.718-18.762 6.416-35.183 12-53 23.026-46.955 36.482-72.924 79-106 7.129 1.789 12.843.027 17.5 7 1.357-2.357-2.06-2.497-1.5-5.5.514-2.761 24.535-22.132 28.5-24.5 10.672-6.374 49.387-21.774 61-23 32.882-3.471 6.399 31.654-5.5 41m-94.5 7c-10.799.207-17.552 16.835-8 23 19.76 12.753 29.251-23.408 8-23m-54 59c-12.262.197-17.651 21.232-5 24 19.305 4.224 21.412-24.263 5-24" style="fill:url(#b)"/>/&gt;<path fill="#1396b4" d="M314 115c.081.307-.055.678 0 1 3.004 17.701-17.834 36.06-34.5 24-3.097-2.241-2.028-4.321-2.5-5 11.69 5.685 35.992-9.811 32-22z"/><path fill="#e5f9fd" d="M286.5 115c6.734-2.862 3.328 6.816-1 4-1.318-.857-.27-3.46 1-4"/><path fill="#059bbc" d="M668 145c-.895-.249-7.973-6.116-9-7.5-1.468-1.979-1.404-4.001-2-5.5 13.467 1.543 23.844-4.74 33-14 .729-.737 2.852-1.45 3-3 3.497 7.816 4.898 14.815-1 22.5-4.229 5.511-17.967 9.182-24 7.5"/><path fill="#2992ae" d="M651.5 121c.312 7.454 3.457 13.45 7.5 19.5 1.188 1.778 9.786 7.644 5.5 8.5-5.179 1.035-22.885-22.185-13-28"/><path fill="#199ab5" d="M320 130c.723 3.778 1.19 5.008 0 9-6.246 4.481-12.625 14.06-20 14-.015-.223-1.858-3.827-2-4 1.869-1.472 5.899-2.811 7.5-4 5.798-4.305 8.502-11.712 14.5-15"/><path fill="#087494" d="M679 238c-6.696.475-2.905 13.096-11 14-80.053-119.759-265.746-132.151-360-22.5-96.083 111.778-36.121 265.771 99 305.5-9.415 7.906 24.797 13.108 30.5 14 25.083 3.925 50.791 2.966 76 1l-1.5 8c-58.364 5.555-117.992-5.08-168-36-27.61-17.071-55.534-45.004-72-73-13.333-22.669-23.306-50.716-26-77l8 .5c-2.923-30.372.635-62.037 13-90 4.384-9.914 24.419-30.91 9-34.5 29.617-47.976 83.183-88.101 138-102 98.49-24.973 205.991 8.322 265 92m-219.5-94c-5.879-.225-56.965 10.087-57.5 13.5-.033.212 2.291 3.447 2.5 3.5 1.273.321 20.793-7.206 25-8 5.403-1.019 34.471-3.029 36-4 1.19-.756.666-4.156-1-5-1.664-.043-3.338.064-5 0"/><path fill="#0c86a3" d="M459.5 144c1.662.064 3.336-.043 5 0 1.666.844 2.19 4.244 1 5-1.529.971-30.597 2.981-36 4-4.207.794-23.727 8.321-25 8-.209-.053-2.533-3.288-2.5-3.5.535-3.413 51.621-13.725 57.5-13.5"/><path fill="#054a67" d="M663 156c23.495 18.821 38.198 52.906 56.5 69 13.527 11.895 43.426 23.093 54.5 38.5 12.719 17.695 12.512 57.284 16 78.5-1.674.089-7.519-.064-8 0 3.009.435 1.938-2.672 2-4.5.532-15.752-3.592-57.206-12-70-2.571-3.912-47.187-34.794-48-32 .527 1.028 3.812 4.133 4 4.5 21.42 41.775 27.109 90.124 21 136.5.783 1.176 11.703-1.781 13-2.5l2 3c-48.629 9.047-90.142 43.949-113 87-6.158 11.598-11.877 23.052-15 36-.331.111-.81-.14-1 0-1.406 1.03-5.473 11.746-6 14-34.224 23.855-75.057 40.008-117 44l1.5-8c-25.209 1.966-50.917 2.925-76-1-5.703-.892-39.915-6.094-30.5-14 65.978 19.399 146.302 11.339 204.5-26 31.28-20.069 27.712-37.821 47.5-65.5 20.463-28.622 36.239-26.617 41-67 5.366-45.511-6.933-87.001-32-124.5 8.095-.904 4.304-13.525 11-14 20.352 28.86 34.803 62.412 38 98 1.703 18.956 1.261 38.069-4 56.5 1.901.773 4.093-1.661 6-2.5 2.564-1.127 18.497-8.522 19-9.5 2.847-21.158 4.657-42.181 3-63.5-4.813-61.923-41.387-126.092-89-165-.396-4.028 10.506 3.604 11 4"/><path fill="#046383" d="M651 156c14.639 31.911-37.388 18.542-10-3 6.865-1.574 5.321-1.039 10 3"/><path fill="#0c3249" d="M319.5 153c21.251-.408 11.76 35.753-8 23-9.552-6.165-2.799-22.793 8-23m-3 2c-8.394 1.676-10.394 15.385-3 20 17.317 10.809 24.632-24.319 3-20"/><path fill="#032335" d="M641 153c-27.388 21.542 24.639 34.911 10 3 10.933 9.436 3.047 23.739-10.5 21-11.005-2.225-13.743-20.734.5-24"/><path fill="url(#c)" d="M668 252c25.067 37.499 37.366 78.989 32 124.5-4.761 40.383-20.537 38.378-41 67-19.788 27.679-16.22 45.431-47.5 65.5-58.198 37.339-138.522 45.399-204.5 26-135.121-39.729-195.083-193.722-99-305.5 94.254-109.651 279.947-97.259 360 22.5m-229.5-51c-14.109 1.344-58.406 26.885-70 37-21.589 18.834-34.654 46.509-45.5 72.5L451.5 204c1.498-3.575-11.589-3.134-13-3m33 33c-164.617 11.542-152.402 267.452 22 254 160.797-12.402 148.057-265.923-22-254" style="fill:url(#c)"/>/&gt;<path fill="#0991b3" d="M316.5 155c21.632-4.319 14.317 30.809-3 20-7.394-4.615-5.394-18.324 3-20"/><path fill="#ecf9fc" d="M438.5 201c1.411-.134 14.498-.575 13 3L323 310.5c10.846-25.991 23.911-53.666 45.5-72.5 11.594-10.115 55.891-35.656 70-37"/><path fill="#0e465e" d="M265.5 212c16.412-.263 14.305 28.224-5 24-12.651-2.768-7.262-23.803 5-24m-2 2c-11.172 1.684-12.011 21.876 2 21 12.221-.764 13.437-23.327-2-21"/><path fill="#082943" d="M693.5 212c16.582-2.301 20.724 22.691 6 25-16.23 2.545-21.305-22.876-6-25m-1 2c-10.605 2.489-7.622 21.591 4 21 13.007-.662 12.922-24.971-4-21"/><path fill="#0d9dc0" d="M263.5 214c15.437-2.327 14.221 20.236 2 21-14.011.876-13.172-19.316-2-21"/><path fill="#057aa0" d="M692.5 214c16.922-3.971 17.007 20.338 4 21-11.622.591-14.605-18.511-4-21"/><path fill="#0a6f8e" d="M471.5 234c170.057-11.923 182.797 241.598 22 254-174.402 13.452-186.617-242.458-22-254m-4 6c-155.257 11.577-136.367 257.339 29 239 149.889-16.623 135.534-251.269-29-239"/><path fill="#59d4ed" d="M782 342c-.64.085-1.37-.108-2 0-.997-16.871-2.796-60.032-12-73.5-5.178-7.577-32.699-19.549-40-28.5-.188-.367-3.473-3.472-4-4.5.813-2.794 45.429 28.088 48 32 8.408 12.794 12.532 54.248 12 70-.062 1.828 1.009 4.935-2 4.5"/><path fill="#5ce0f3" d="M223 267c-9.146 26.814-10.602 45.503-10 74-4.586-1.101-26.08.057-28.5-1-.934-.408-.321-1.809-.5-2 .462-22.715 4.742-44.849 9-67 .844-1.711 1.94-3.404 3-5 1.501-2.262-.481-1.153 2-4 12.49-4.53 21.807-14.402 32-22 1.013-.755 4.835-4.615 6-2.5-5.887 9.299-9.464 19.134-13 29.5"/><path fill="#20def0" d="M230 240c-10.193 7.598-19.51 17.47-32 22 8.313-9.539 20.888-16.299 32-22"/><path fill="#bbeaf5" d="M467.5 240c164.534-12.269 178.889 222.377 29 239-165.367 18.339-184.257-227.423-29-239m-1 10c-139.298 14.63-124.724 236.721 28 222 142.925-13.777 126.295-238.205-28-222"/><path fill="url(#d)" d="M780 342c-1.969.336-7.204 1.224-8.5 2-7.15 4.284-2.716 26.24-9.5 30-1.297.719-12.217 3.676-13 2.5 6.109-46.376.42-94.725-21-136.5 7.301 8.951 34.822 20.923 40 28.5 9.204 13.468 11.003 56.629 12 73.5" style="fill:url(#d)"/>/&gt;<path fill="#2199b5" d="M246 372c-4.481-43.728 7.121-86.938 30-124 15.419 3.59-4.616 24.586-9 34.5-12.365 27.963-15.923 59.628-13 90z"/><path fill="url(#e)" d="M466.5 250c154.295-16.205 170.925 208.223 28 222-152.724 14.721-167.298-207.37-28-222M412 298c-10.23 16.641-22.293 36.434 6 45-15.1 52.305 47.792 97.924 94 70 5.035 24.644 49.055 9.181 32-16 29.896-53.24-11.598-114.191-72-104-3.33-12.318-16.968-24.325-30-23-14.394 1.463-23.206 16.949-30 28m143.5-13 24 43c-4.563-15.92-13.018-30.63-24-43" style="fill:url(#e)"/>/&gt;<path fill="#047191" d="M223 310c-2.343 25.586-2.046 52.84 3 78 4.356 21.716 15.997 50.784 27 70l-2 2c-2.213-3.227-3.522-4.336-6-7-.345-.371 2.989-5.564-4.5-2-.916-.471-.428-2.949-.5-4-.007-.103 2.104.285 2-.5-.378-2.861-14.519-26.296-17-33-4.415-11.928-7.077-24.921-9-37.5-1.906-12.473-2.733-22.345-3-35-.602-28.497.854-47.186 10-74 9.229 4.438 8.311-2.476 12-10-5.584 17.817-10.282 34.238-12 53"/><path fill="#b7cbd7" d="M811 259c-3.719.169-8.381 1.613-9 6l-1 77c-2.319.074-4.681-.078-7 0 4.344-14.237-3.29-72.817 3-81.5 3.194-4.409 9.704-3.585 14-1.5"/><path fill="#0a1520" d="M811 259c3.214 1.56 5.173 2.738 6 6.5 2.338 10.64-2.212 73.849 0 77 .547.779 6.227.659 7.5 1.5 5.195 3.434 6.008 22.799 7.5 29-1.316-.315-.868 2.137-1.5 2-.854-.186-.399-1.979-.5-2-1.528-5.977-1.036-19.447-5-24-3.57-4.101-22.878-3.992-29-4-6.495-.008-22.963-2.005-26 5-.506 1.168-2.435 20.512-2 21.5 2.147 3.032 3.687.548 6 .5l3 3c-4.623.428-8.484 1.16-13 2l-2-3c6.784-3.76 2.35-25.716 9.5-30 1.296-.776 6.531-1.664 8.5-2 .63-.108 1.36.085 2 0 .481-.064 6.326.089 8 0 1.319-.07 2.678.044 4 0 2.319-.078 4.681.074 7 0 2.589-.083 12.899 1.981 14-.5l-1-76c-1.062-3.036-5.96-4.563-8.5-3.5-2.825 1.182-.142 7.532-3.5 3 .619-4.387 5.281-5.831 9-6"/><path fill="#496a7c" d="m801 342 1-77c3.358 4.532.675-1.818 3.5-3 2.54-1.063 7.438.464 8.5 3.5l1 76c-1.101 2.481-11.411.417-14 .5"/><path fill="#a2effc" d="M196 266c-1.06 1.596-2.156 3.289-3 5 .172-.892-1.595-7.75 3-5"/><path fill="#7ed1e4" d="M442 270c-4.427 13.132-22.993 19.145-27.5 33l-2.5-5c6.794-11.051 15.606-26.537 30-28"/><path fill="#a1dbea" d="M472 293c.606 2.242.958 6.57 1 9 .48 27.556-28.031 49.165-55 41-28.293-8.566-16.23-28.359-6-45l2.5 5c4.507-13.855 23.073-19.868 27.5-33 13.032-1.325 26.67 10.682 30 23m-27.5 4c-2.57.233-13.518 8.702-8 12 8.336 2.242 20.744-13.156 8-12m-34 10c-.778.001-.777 11.001 0 11 .852-1.36.719-11.001 0-11"/><path fill="#a2effc" d="M193 271c-4.258 22.151-8.538 44.285-9 67-2.96-3.158-1.041-2.544-3-7 .378-10.377 1.209-22.841 3-33 1.5-8.504 5.431-19.762 9-27"/><path fill="#1fa0be" d="M555.5 285c10.982 12.37 19.437 27.08 24 43z"/><path fill="#046081" d="M544 397c-.505-.746-7.173-5.73-8-6 25.357-44.752-12.937-97.121-63-89-.042-2.43-.394-6.758-1-9 60.402-10.191 101.896 50.76 72 104"/><path fill="#045d7c" d="M184 298c-1.791 10.159-2.622 22.623-3 33-1.219 33.503 3.186 76.371 25 103 4.963 5.237 26.518 10.571 34 13 .072 1.051-.416 3.529.5 4 7.489-3.564 4.155 1.629 4.5 2-28.078-3.332-42.57-7.714-54-34.5-16.334-38.278-17.93-83.148-10-123.5Z"/><path fill="#f7fdfe" d="M444.5 297c12.744-1.156.336 14.242-8 12-5.518-3.298 5.43-11.767 8-12"/><path fill="url(#f)" d="M536 391c-14.017-4.582-26.898 7.817-24 22-46.208 27.924-109.1-17.695-94-70 26.969 8.165 55.48-13.444 55-41 50.063-8.121 88.357 44.248 63 89" style="fill:url(#f)"/>/&gt;<path fill="#7fd3e5" d="M245 383c-4.912 3.912-12.904 3.779-19 5-5.046-25.16-5.343-52.414-3-78l3-2.5c-.592 11.973 15.2 30.553 17 39 1.795 8.42.468 25.24 2 36.5"/><path fill="#7ed1e4" d="M410.5 307c.719-.001.852 9.64 0 11-.777.001-.778-10.999 0-11"/><path fill="#1680a0" d="M741 317c1.657 21.319-.153 42.342-3 63.5-.503.978-16.436 8.373-19 9.5 4.033-13.39.001-40.745 3-52 .44-1.653 15.947-18.853 19-21"/><path fill="#49c0d9" d="M184 338c.179.191-.434 1.592.5 2 2.42 1.057 23.914-.101 28.5 1 .267 12.655 1.094 22.527 3 35l-29 .5c-1.776 2.465 15.015 53.296 19 57.5-21.814-26.629-26.219-69.497-25-103 1.959 4.456.04 3.842 3 7"/><path fill="#2597b7" d="M722 338c-2.999 11.255 1.033 38.61-3 52-1.907.839-4.099 3.273-6 2.5 5.261-18.431 5.703-37.544 4-56.5z"/><path fill="#f4f9fb" d="M796 345c-.528 8.255-5.874 5.335-12 7-4.59-.47-9.562-.767-14-2 3.037-7.005 19.505-5.008 26-5"/><path fill="#a6c3d2" d="M825 349c-6.146 5.472-20.689 5.224-29 5-1.111-.03-9.559-1.75-12-2 6.126-1.665 11.472 1.255 12-7 6.122.008 25.43-.101 29 4"/><path fill="#446476" d="M830 373c-8.969-1.861-24.734-2.863-34-3v-16c8.311.224 22.854.472 29-5 3.964 4.553 3.472 18.023 5 24"/><path fill="#91b2c3" d="M784 352c2.441.25 10.889 1.97 12 2v16c-7.016-.104-14.937 1.852-22 2-2.313.048-3.853 2.532-6-.5-.435-.988 1.494-20.332 2-21.5 4.438 1.233 9.41 1.53 14 2"/><path fill="#14374c" d="M796 370c9.266.137 25.031 1.139 34 3 .101.021-.354 1.814.5 2 .632.137.184-2.315 1.5-2 .19.045-.216 2.273 2.5 3 153.69 41.117 179.37 245.341 36 311-20.364 9.326-40.854 11.875-62.5 16.5-.115 20.163.155 40.349 0 60.5l-3-60.5c-3.044 1.299-15.809-1.957-16.5-1.5-2.822 1.868 1.552 9.665 1.5 11-.03.777-1.928 8.597-2 14-.322 24.308.227 48.689 0 73h-2c-.035-32.487.026-65.002 0-97.5-13.819-1.883-28.106-3.546-41.5-7.5-19.067-5.629-33.492-17.068-52.5-22 5.285-4.64-.339-3.299-2-5-7.169-7.341-14.716-14.898-23-21-.076-.962-1.77-2.59-1-4.5-1.932-2.773-3.889 19.08-4 21-2.392 4.097-15.447-3.017-17 2-.766 2.475 1.029 2.368 1 2.5-5.547 25.29-13.527 49.39-24 73-.576 1.299-2.276 3.493-3 5-3.201 6.659-4.408 13.65-9 20.5-12.773 19.054-36.792 31.141-56 42.5-.211-.143-4.002-.496-5-1 4.156-1.68 11.836-6.483 16-9 50.355-30.44 79.268-113.606 84-170 .27-3.22 1.246-6.225 1-9.5L634 584c-.043-1.739.578-9.362-3-8.5-7.907 85.24-41.15 246.415-158.5 227.5-12.084-1.948-23.15-8.147-33.5-14-1.386-1.964-1.411-3.091 1-4 73.353 40.557 126.586-8.675 154-74 14.21-33.86 24.509-73.461 29-110 1.118-9.094 1.253-18.817 2-28 2.987.082 6.863-7.216 7-8 13.237 55.229 49.079 101.034 103 121 81.227 30.077 173.71-.237 210-81 35.185-78.305-2.883-197.657-91-219-13.618-5.695-28.267-9.484-43-11-11.663-1.2-22.332-1.081-34 0l-3-3c7.063-.148 14.984-2.104 22-2"/><path fill="#d8edf5" d="m811 375 2.5 3c-45.596-6.139-92.071 12.93-125 44-12.772 12.051-21.721 27.654-33.5 40.5-1.271 1.386-1.993 3.082-4 1.5 22.858-43.051 64.371-77.953 113-87 4.516-.84 8.377-1.572 13-2 11.668-1.081 22.337-1.2 34 0"/><path fill="#ecf7fb" d="M854 386c-83.116-20.132-162.146 15.162-196 93.5-1.394 3.226-6.046 22.269-7 23-.832.637-13.234-3.093-15-2.5 3.123-12.948 8.842-24.402 15-36 2.007 1.582 2.729-.114 4-1.5 11.779-12.846 20.728-28.449 33.5-40.5 32.929-31.07 79.404-50.139 125-44l-2.5-3c14.733 1.516 29.382 5.305 43 11"/><path fill="#0b90b2" d="M216 376c1.923 12.579 4.585 25.572 9 37.5 2.481 6.704 16.622 30.139 17 33 .104.785-2.007.397-2 .5-7.482-2.429-29.037-7.763-34-13-3.985-4.204-20.776-55.035-19-57.5z"/><path fill="#299fbc" d="M269 450c18.406 31.467 43.421 54.906 74 74 36.967 23.083 78.08 36.742 122 39 1.576 6.706-4.529 13.1 0 19-84.5-3.789-169.576-49.907-212-124-11.003-19.216-22.644-48.284-27-70 6.096-1.221 14.088-1.088 19-5 3.245 23.845 11.896 46.308 24 67"/><path fill="#93acbb" d="M854 386c88.117 21.343 126.185 140.695 91 219-1.118-6.446-10.314-3.449-14-8 22.121-55.288 11.971-112.759-29-155-8.157-8.41-16.318-15.321-26-22-74.62-51.48-178.152-20.009-211 64-6.071 15.527-10.338 31.175-11 48l-2-4.5c-.454 3.304.633 7.953 0 11-.201.969-2.853.039-3 1-8.077 52.841 47.141 117.548 94 135.5l-8 11c-53.921-19.966-89.763-65.771-103-121 .897-5.127-1.201-13.772-1-20 .494-15.284 1.079-29.9 4-45 .19-.14.669.111 1 0 1.766-.593 14.168 3.137 15 2.5.954-.731 5.606-19.774 7-23 33.854-78.338 112.884-113.632 196-93.5"/><path fill="#fdfefe" d="M536 391c.827.27 7.495 5.254 8 6 17.055 25.181-26.965 40.644-32 16-2.898-14.183 9.983-26.582 24-22"/><path fill="#794651" d="M876 420c-4.236 1.141-7.881 8.807-9 13-29.047-20.46-68.378-28.117-103-20l-2.5-7c-31.25 7.696-57.226 24.576-76.5 50.5l8 5.5c-4.347 6.399-7.95 13.871-11 21-5.607-1.196-5.007 12.51-8.5 12-4.73-3.703-8.593-3.937-8.5-11 32.848-84.009 136.38-115.48 211-64"/><path fill="#926069" d="M764 413c-26.681 6.255-55.574 26.293-71 49l-8-5.5c19.274-25.924 45.25-42.804 76.5-50.5z"/><path fill="url(#g)" d="M867 433c13.154 9.265 25.387 23.612 33 37.5-1.342 2.953-10.206-4.046-14-.5-3.765-.486-35.915-.003-37.5 1-.404 6.16 2.437 11.916 3.5 18l-2.5 6c-.345-3.198-1.78-3.977-3.5-6-21.547-25.344-41.47-26.601-58.5 4l2-21-59.5 2.5c-2.298 8.094 3.227 15.841 4 22.5.038.326-.015.669 0 1-4.692-4.285-2.774-8.863-7.5-14-15.153-16.47-41.266-1.826-50.5 14 1.387-5.603 3.793-9.841 6-15 3.05-7.129 6.653-14.601 11-21 15.426-22.707 44.319-42.745 71-49 34.622-8.117 73.953-.46 103 20" style="fill:url(#g)"/>/&gt;<path fill="#60202b" d="M876 420c9.682 6.679 17.843 13.59 26 22 6.23 8.394 11.229 16.67 16 26-5.94.522-9.341 5.844-14 9-3.407-2.68-13.609-6.433-18-7 3.794-3.546 12.658 3.453 14 .5-7.613-13.888-19.846-28.235-33-37.5 1.119-4.193 4.764-11.859 9-13"/><path fill="#afc6d4" d="M931 597c-29.714 74.266-114.169 106.286-188 78-46.859-17.952-102.077-82.659-94-135.5.147-.961 2.799-.031 3-1 .633-3.047-.454-7.696 0-11l2 4.5c-2.262 57.538 35.775 113.674 89 135 52.588 21.071 108.938 11.865 150-27 14.888-14.092 25.668-28.589 33-48 16.112-42.651 12.525-83.865-8-124-4.771-9.33-9.77-17.606-16-26 40.971 42.241 51.121 99.712 29 155"/><path fill="#7edcef" d="M272 449c16.466 27.996 44.39 55.929 72 73l-1 2c-30.579-19.094-55.594-42.533-74-74z"/><path fill="#094763" d="M465 582c44.546 1.997 111.19-8.209 149.5-32 19.061-11.837 9.942-12.194 13.5-31 .304-1.605.632-3.427 1-5 .527-2.254 4.594-12.97 6-14-2.921 15.1-3.506 29.716-4 45-6.368-.394-4.234-.096-5 4-9.128.303-18.887 8.213-27.5 12-60.542 26.624-132.251 33.185-195.5 16-22.815-6.199-42.323-17.056-62.5-29l-2.5.5c1.979 5.357.771 11.845 1 17.5.027.659-.039 1.342 0 2l-6 2c-.109-.628.11-1.372 0-2-1.069-6.106-3.049-12.154-2-18.5-1.531-2.752-8.013 3.042-10 4.5-.787.353-5.838 3.678-6 4-5.463-6.028 11.23-11.929 12-16 1.634-2.108-.175-2.617-1.5-4-4.796-5.007-16.119-10.844-22-16-23.338-20.459-35.199-36.775-52.5-62l2-2c42.424 74.093 127.5 120.211 212 124"/><path fill="#32101b" d="M918 468c20.525 40.135 24.112 81.349 8 124-9.317 2.035-11.075 13.496-16 20.5-2.93 4.166-19.625 22.484-20 24-.493 1.996.79 3.782 3 3.5-41.062 38.865-97.412 48.071-150 27 2.231-1.246 3.984-5.75 5.5-6 2.178-.359 35.656 12.797 43 10 .377-.143 2.133-6.346 4-7 2.573-.901 13.715-.06 18-1 68.623-15.045 104.004-70.007 101.5-138.5-.067-1.827.888-4.484-2-2.5 4.798-13.173 2.527-35.932-9-45 4.659-3.156 8.06-8.478 14-9"/><path fill="#fefefe" d="M846 489c11.789 24.359 9.065 90.333-25.5 95-43.866 5.922-47.123-60.829-35-89-1.552.596-8.573.753-9 1-5.633 3.263-2.91 75.667-2.5 86.5l-19.5 2.5c-11.91-10.848-3.937-83.887-6.5-87.5-.896-1.263-11.62-.093-14-.5-.773-6.659-6.298-14.406-4-22.5l59.5-2.5-2 21c17.03-30.601 36.953-29.344 58.5-4m-30.5 7c-13.897 7.083-15.491 69.171 3 65 12.741-2.874 17.558-63.329-3-65"/><path fill="#fefefd" d="M886 470c4.391.567 14.593 4.32 18 7 11.527 9.068 13.798 31.827 9 45-5.089 13.971-22.873 18.933-36 19.5-.02 4.981-1.662 38.241-4.5 39.5-2.959 1.313-16.676-.976-21 0 3.805-32.105 6.084-60.034.5-92-1.063-6.084-3.904-11.84-3.5-18 1.585-1.003 33.735-1.486 37.5-1m-9 48c.232 1.312-.56 4.236.5 5 14.996-1.625 26.661-20.014 9.5-28-2.257-1.05-11.159-4.399-12-1.5 1.906 8.047.556 16.331 2 24.5"/><path fill="#fefdfd" d="M734 498c.107 2.348 1.72 2.161-.5 4-7.348 6.087-11.387-2.348-19-1-7.313 1.295-6.737 11.824-14.5 9.5 9.471 15.355 35.978 21.298 39 41 6.365 41.492-56.288 47.751-63 21-7.823-31.18 42.779-19.122 17 0 19.058 2.925 25.365-18.327 10.5-30.5-19.193-15.718-36.648-7.047-27.5-44 9.234-15.826 35.347-30.47 50.5-14 4.726 5.137 2.808 9.715 7.5 14"/><path fill="#60202b" d="M682 483c-2.207 5.159-4.613 9.397-6 15-9.148 36.953 8.307 28.282 27.5 44 14.865 12.173 8.558 33.425-10.5 30.5 25.779-19.122-24.823-31.18-17 0 6.712 26.751 69.365 20.492 63-21-3.022-19.702-29.529-25.645-39-41 7.763 2.324 7.187-8.205 14.5-9.5 7.613-1.348 11.652 7.087 19 1 2.22-1.839.607-1.652.5-4-.015-.331.038-.674 0-1 2.38.407 13.104-.763 14 .5 2.563 3.613-5.41 76.652 6.5 87.5l19.5-2.5c-.41-10.833-3.133-83.237 2.5-86.5.427-.247 7.448-.404 9-1-12.123 28.171-8.866 94.922 35 89 34.565-4.667 37.289-70.641 25.5-95 1.72 2.023 3.155 2.802 3.5 6l2.5-6c5.584 31.966 3.305 59.895-.5 92 4.324-.976 18.041 1.313 21 0 2.838-1.259 4.48-34.519 4.5-39.5 13.127-.567 30.911-5.529 36-19.5 2.888-1.984 1.933.673 2 2.5 2.504 68.493-32.877 123.455-101.5 138.5-4.285.94-15.427.099-18 1-1.867.654-3.623 6.857-4 7-7.344 2.797-40.822-10.359-43-10-1.516.25-3.269 4.754-5.5 6-53.225-21.326-91.262-77.462-89-135 .662-16.825 4.929-32.473 11-48-.093 7.063 3.77 7.297 8.5 11 3.493.51 2.893-13.196 8.5-12"/><path fill="#592d38" d="m887 495 2 12.5c-2.478 4.755-6.197 9.982-12 10.5-1.444-8.169-.094-16.453-2-24.5.841-2.899 9.743.45 12 1.5"/><path fill="#1b0911" d="M887 495c17.161 7.986 5.496 26.375-9.5 28-1.06-.764-.268-3.688-.5-5 5.803-.518 9.522-5.745 12-10.5z"/><path fill="#6d242f" d="M815.5 496c20.558 1.671 15.741 62.126 3 65-18.491 4.171-16.897-57.917-3-65"/><path fill="#31c2df" d="M629 514c-.368 1.573-.696 3.395-1 5-46.367 33.112-106.245 46.918-163 44-43.92-2.258-85.033-15.917-122-39l1-2c50.008 30.92 109.636 41.555 168 36 41.943-3.992 82.776-20.145 117-44"/><path fill="#056e8f" d="M465 582c-4.529-5.9 1.576-12.294 0-19 56.755 2.918 116.633-10.888 163-44-3.558 18.806 5.561 19.163-13.5 31-38.31 23.791-104.954 33.997-149.5 32"/><path fill="#0b202f" d="M327 542c-.77 4.071-17.463 9.972-12 16-.252.499-1.816 9.526-2 11-.121.97.087 2.021 0 3-.304 3.421-.041 7.493 0 11-4.647-.195-3.132 7.287-4 10-8.015 25.044-7.45 23.6-1 49 .9 3.546 7.014 26.462 8 27.5 1.029 1.083 2.736-.281 5 1.5-3.135 1.599-6.451 2.384-10 2 1.625-1.266 2.817-.884 4-2.5L300 614c.459-2.061.553-5.224 1-7 .938-3.731 8.234-22.281 8-23.5-.884-4.606-14.323-3.845-17.5-2.5-5.99 2.537-11.919 30.362-12.5 37-.371 4.241-.107 9.641 0 14 .276 11.212 3.87 35.425 12 43.5 4.642 4.611 6.702-.158 12.5-.5 2.345-1.495.233-4.972-.5-8 4.576 3.638 1.384 5.284 8 6-3.938 3.068-27.779 10.803-32 10-8.278-1.574-17.869-20.57-20-28-7.961-27.757 2.57-49.077 15-73.5.517-1.018-2.324-2.489-2.5-2.5-3.06-.191-35.634 16.775-40 20-10.961 8.096-23.744 23.644-29.5 36-5.351-.261 1.737-5.87 0-8 14.599-19.724 41.849-50.009 68.5-53 7.564-.849 9.592 3.574 17 3 1.245-.097 19.402-5.144 20-6 .61-.873 1.033-10.788 3.5-15.5 2.658-5.077 10.836-10.862 16-13.5m-65 76c-1.281 4.698-3.688 8.844-4 14-1.031 17.034 9.991 59.121 33 45.5-11.128-12.985-13.551-28.971-14-45.5-.113-4.162-.288-8.882 0-13 .406-5.814 9.185-37.044 7.5-38-9.524-5.402-20.68 30.327-22.5 37"/><path fill="#0a2537" d="M631 545c-.201 6.228 1.897 14.873 1 20-.137.784-4.013 8.082-7 8 .187-2.297-.177-4.701 0-7 .403-5.233.088-12.122 1-17 .766-4.096-1.368-4.394 5-4"/><path fill="#47cfe7" d="M333 568c-2.675.386-3.743.528-4 3.5-1.565 18.079 18.612 91.384 26 111 .322.855 7.609 20.952 9 13.5 8.152 19.965 22.072 44.59 36 61-2.442 2.897-3.073 1.557-5-.5-11.357-12.126-20.935-31.369-29-46-.594-1.077-4.407-16.518-6-8-1.735 9.279-.512 22.148-2 31-.127.755-1.392 3.315-3 1.5-2.64-4.734-4.68-9.132-7-14-5.949-25.6-16.278-50.406-22-76.5-5.259-23.982-6.721-49.158-13-72.5.087-.979-.121-2.03 0-3l14 .5v-17c-.202-.343-5.718 1.373-6 1.5 1.987-1.458 8.469-7.252 10-4.5-1.049 6.346.931 12.394 2 18.5"/><path fill="#638799" d="M403 577c20.183 17.393 49.768 30.094 76.5 32 54.32 3.872 95.577-29.689 145.5-43-.177 2.299.187 4.703 0 7-.747 9.183-.882 18.906-2 28-1.803-.531-2.63 1.713-3 3-16.338 6.456-32.645 15.284-50.5 17-57.269 5.504-139.164 2.142-185-36-16.304-13.567-18.311-29.686-45.5-19-.229-5.655.979-12.143-1-17.5l2.5-.5c20.177 11.944 39.685 22.801 62.5 29"/><path fill="#345567" d="M626 549c-.912 4.878-.597 11.767-1 17-49.923 13.311-91.18 46.872-145.5 43-26.732-1.906-56.317-14.607-76.5-32 63.249 17.185 134.958 10.624 195.5-16 8.613-3.787 18.372-11.697 27.5-12"/><path fill="#20bcda" d="M313 569c.184-1.474 1.748-10.501 2-11 .162-.322 5.213-3.647 6-4 .282-.127 5.798-1.843 6-1.5v17z"/><path fill="url(#h)" d="M620 604c-8.849 30.793-11.242 59.201-23 91-11.382 30.781-31.42 71.868-61.5 88-33.542 17.988-74.153 14.103-104-9l1.5 6c-47.911-31.733-72.165-97.153-84-151-4.004-18.218-8.897-42.595-10-61-.039-.658.027-1.341 0-2 27.189-10.686 29.196 5.433 45.5 19 45.836 38.142 127.731 41.504 185 36 17.855-1.716 34.162-10.544 50.5-17m-91 93c4.312 25.204-11.161 33.993-29.5 46 28.262-.903 52.629-21.144 65.5-45 1.368-2.535 9.962-16.144 7.5-18l-56-6c5.664 7.349 10.851 13.364 12.5 23m-39.5-21c-28.488 3.975-27.521 49.248 0 53 39.889 5.438 40.781-58.69 0-53m-4 77c-16.12 3.43-13.199 34.403 8 30 16.709-3.47 14.768-34.844-8-30" style="fill:url(#h)"/>/&gt;<path fill="#79e7f8" d="M333 568c.11.628-.109 1.372 0 2 3.417 19.629 6.482 39.601 11 59 4.998 21.46 11.702 46.678 20 67-1.391 7.452-8.678-12.645-9-13.5-7.388-19.616-27.565-92.921-26-111 .257-2.972 1.325-3.114 4-3.5"/><path fill="#08708d" d="M339 568c1.103 18.405 5.996 42.782 10 61h-5c-4.518-19.399-7.583-39.371-11-59z"/><path fill="#6edff3" d="M348 721c-18.681-39.204-34.488-94.289-35-138-.041-3.507-.304-7.579 0-11 6.279 23.342 7.741 48.518 13 72.5 5.722 26.094 16.051 50.9 22 76.5"/><path fill="#1996b8" d="M634 584c.339 13.841-5.083 41.136-8 55.5-16.705 82.258-64.872 197.114-170.5 162.5-13.163-4.313-22.757-19.431-27.5 3-1.631-.707-2.565-1.318-4-2-6.209-2.952-12.273-6.188-18-10-23.798-15.839-37.324-33.478-51-58 1.608 1.815 2.873-.745 3-1.5 1.488-8.852.265-21.721 2-31 1.593-8.518 5.406 6.923 6 8 8.065 14.631 17.643 33.874 29 46 1.927 2.057 2.558 3.397 5 .5 11.231 13.232 23.878 23.449 39 32 10.35 5.853 21.416 12.052 33.5 14C589.85 821.915 623.093 660.74 631 575.5c3.578-.862 2.957 6.761 3 8.5"/><path fill="#4ee5f8" d="M259 655c-2.859 2.451-3.582-.95-4-2.5-6.721-24.947 3.116-49.041 16-70-1.368-3.541-16.252 24.969-17 27-6.674 18.116-6.265 34.862-2 53.5-.171-.219-1.288 3.104-4-2 .467-1.93.43-9.339-2-10-7.913-2.152-36.609 6.913-42 13-8.884 3.782-.627-11.718-1-14.5l-6-1.5c1.156-4.184 3.162-9.054 5-13 5.756-12.356 18.539-27.904 29.5-36 4.366-3.225 36.94-20.191 40-20 .176.011 3.017 1.482 2.5 2.5-12.43 24.423-22.961 45.743-15 73.5m-10.5-62c-13.714 8.632-27.009 18.721-34.5 33.5 5.152-1.9 43.128-27.112 34.5-33.5m-2 53c-1.277.072-.068 5.22.5 1.5.174-.624-.012-1.527-.5-1.5"/><path fill="#698999" d="m301 607-22 11c.581-6.638 6.51-34.463 12.5-37 3.177-1.345 16.616-2.106 17.5 2.5.234 1.219-7.062 19.769-8 23.5"/><path fill="#81a5b4" d="m277 619-15-1c1.82-6.673 12.976-42.402 22.5-37 1.685.956-7.094 32.186-7.5 38"/><path fill="#062d44" d="M259 655c2.131 7.43 11.722 26.426 20 28-1.759 6.127-15.425 13.567-17 17.5-3.423 8.548-1.125 46.065-10.5 51.5-11.755 6.814-30.717-11.722-35.5-21.5-4.51-9.221-2.125-20.189-13.5-23.5-14.281 14.986-10.897 35.931-20 52-2.5.884-3.32-.971-3.5-1 7.207-2.634 1.373-.695 2-4 1.789-9.434 3.6-23.999 7-32.5 1.908-4.77 11.842-15.972 12-17 .108-.703-3.243-6.435-4-8.5 1.602-3.949.371-8.998 0-13l5 10c8.859 30.654 56.558 7.391 71-7.5-10.069-4.286-13.843-14.626-20-22.5-4.265-18.638-4.674-35.384 2-53.5.748-2.031 15.632-30.541 17-27-12.884 20.959-22.721 45.053-16 70 .418 1.55 1.141 4.951 4 2.5m-5 50c-12.791 4.694-25.442 9.677-39.5 8-1.763.948 1.423 3.801 1.5 4-.317 11.099 23.156 37.097 33.5 33 5.153-2.041 12.082-46.265 10-48-2.436-.76-4.046 2.466-5.5 3"/><path fill="#16475d" d="M313 583c.512 43.711 16.319 98.796 35 138 2.32 4.868 4.36 9.266 7 14 13.676 24.522 27.202 42.161 51 58l-2 5c-21.762-15.494-39.027-33.537-52-57-6.425-11.62-12.781-27.087-18-39.5-2.918-6.938-6.003-22.845-9-28-2.164-3.722-3.341-1.982-4-2.5-2.264-1.781-3.971-.417-5-1.5-.986-1.038-7.1-23.954-8-27.5l8-2.5c-6.417-13.608-4.345-31.512-7-46.5.868-2.713-.647-10.195 4-10"/><path fill="#06698a" d="M649 629c-2.423-.575-4.619 6.139-5 7.5-9.12 32.565-12.847 62.864-27 95-11.91 27.043-28.38 49.562-52 67.5-4.164 2.517-11.844 7.32-16 9-37.396 15.12-84.504 12.819-121-3 4.743-22.431 14.337-7.313 27.5-3 105.628 34.614 153.795-80.242 170.5-162.5 2.917-14.364 8.339-41.659 8-55.5l16 35.5c.246 3.275-.73 6.28-1 9.5"/><path fill="#210910" d="M926 592c-7.332 19.411-18.112 33.908-33 48-2.21.282-3.493-1.504-3-3.5.375-1.516 17.07-19.834 20-24 4.925-7.004 6.683-18.465 16-20.5"/><path fill="#e1fafc" d="M248.5 593c8.628 6.388-29.348 31.6-34.5 33.5 7.491-14.779 20.786-24.868 34.5-33.5"/><path fill="#355c6e" d="M308 642c-6.45-25.4-7.015-23.956 1-49 2.655 14.988.583 32.892 7 46.5z"/><path fill="#526c7d" d="M945 605c-36.29 80.763-128.773 111.077-210 81l8-11c73.831 28.286 158.286-3.734 188-78 3.686 4.551 12.882 1.554 14 8"/><path fill="#c3dce5" d="M623 601c-4.491 36.539-14.79 76.14-29 110l3-16c11.758-31.799 14.151-60.207 23-91 .37-1.287 1.197-3.531 3-3"/><path fill="#466879" d="M301 607c-.447 1.776-.541 4.939-1 7-1.5 6.733-3.584 9.995-4 18h-17c-.107-4.359-.371-9.759 0-14z"/><path fill="#1c3a4d" d="M311 673c-6.616-.716-3.424-2.362-8-6-2.818-11.645-7.78-19.974-7-35 .416-8.005 2.5-11.267 4-18l15 56.5c-1.183 1.616-2.375 1.234-4 2.5"/><path fill="#487486" d="M277 619c-.288 4.118-.113 8.838 0 13h-19c.312-5.156 2.719-9.302 4-14z"/><path fill="#06374e" d="M202 635c-1.838 3.946-3.844 8.816-5 13-1.011 3.658-2.796 9.397-3 13-2.815-1.566.173-6.45 0-7.5-.086-.525-3.054 1.372-3-2 .03-1.864 3.955-13.628 3-15-2.362-3.392-7.588.768-8-3.5 11.136-1.57 6.866 6.341 16-6 1.737 2.13-5.351 7.739 0 8"/><path fill="#064e6a" d="M349 629c11.835 53.847 36.089 119.267 84 151 2.268 1.502 4.708 3.733 7 5-2.411.909-2.386 2.036-1 4-15.122-8.551-27.769-18.768-39-32-13.928-16.41-27.848-41.035-36-61-8.298-20.322-15.002-45.54-20-67z"/><path fill="#159bbc" d="M649 629c-4.732 56.394-33.645 139.56-84 170 23.62-17.938 40.09-40.457 52-67.5 14.153-32.136 17.88-62.435 27-95 .381-1.361 2.577-8.075 5-7.5"/><path fill="#264b5d" d="M277 632c.449 16.529 2.872 32.515 14 45.5-23.009 13.621-34.031-28.466-33-45.5z"/><path fill="#29495b" d="M296 632c-.78 15.026 4.182 23.355 7 35 .733 3.028 2.845 6.505.5 8-5.798.342-7.858 5.111-12.5.5-8.13-8.075-11.724-32.288-12-43.5z"/><path fill="#046d8f" d="M186 633c.412 4.268 5.638.108 8 3.5.955 1.372-2.97 13.136-3 15-.054 3.372 2.914 1.475 3 2 .173 1.05-2.815 5.934 0 7.5-.418 7.386 1.323 14.692 2 22 .371 4.002 1.602 9.051 0 13-5.32-14.502-8.505-25.301-6-41.5-6.329 2.011-13.658 8.734-18 13.5l-2-3c6.925-8.159 16.5-13.606 21-24.5-.3-2.343-11.097-1.745-13-1.5-7.162.922-17.784 7.117-23 12-2.176-2.681 2.91-4.089 4-7 9.541-7.188 15.045-9.315 27-11"/><path fill="#97e8f5" d="M178 639c-3.12 4.116-10.152 4.239-14.5 7-18.178 11.543-17.763 34.907-17.5 54-5.761-18.427-5.737-35.203 9-49 5.216-4.883 15.838-11.078 23-12"/><path fill="#2cbedc" d="M170 665c-3.23 3.805-7.312 7.175-10 11.5-1.155 1.859-10.622 27.644-14 23.5-.263-19.093-.678-42.457 17.5-54 4.348-2.761 11.38-2.884 14.5-7 1.903-.245 12.7-.843 13 1.5-4.5 10.894-14.075 16.341-21 24.5"/><path fill="#0d1a27" d="M667 647c1.588 20.231-11.973 18.542 19 22.5 1.672.214 4.303 1.892 4-1.5 1.661 1.701 7.285.36 2 5-10.794-2.8-26.503-5.953-37.5-7-2.321-.221-7.442-.948-8.5 2 .029-.132-1.766-.025-1-2.5 1.553-5.017 14.608 2.097 17-2 .111-1.92 2.068-23.773 4-21-.77 1.91.924 3.538 1 4.5"/><path fill="#0a4f6e" d="M159 644c-1.09 2.911-6.176 4.319-4 7-14.737 13.797-14.761 30.573-9 49 3.378 4.144 12.845-21.641 14-23.5 2.688-4.325 6.77-7.695 10-11.5l2 3c-15.656 17.186-20.294 41.145-13 63.5 2.734 8.379 12.217 22.493 22 22.5-.627 3.305 5.207 1.366-2 4-22.489-3.608-28.798-44.274-24-62.5l-8.5 7.5c-11.117-21.731-6.902-44.384 12.5-59"/><path fill="#076583" d="M246.5 646c.488-.027.674.876.5 1.5-.568 3.72-1.777-1.428-.5-1.5"/><path fill="#2a4c5f" d="M690 668c.303 3.392-2.328 1.714-4 1.5-30.973-3.958-17.412-2.269-19-22.5 8.284 6.102 15.831 13.659 23 21"/><path fill="#27c1e0" d="M204 664c-5.123 5.785-5.039 21.946-3 29l-5-10c-.677-7.308-2.418-14.614-2-22 .204-3.603 1.989-9.342 3-13l6 1.5c.373 2.782-7.884 18.282 1 14.5"/><path fill="#0a6783" d="M248 661c-1.698-3.196-2.315-6.398-2-10 2.43.661 2.467 8.07 2 10"/><path fill="url(#i)" d="M246 651c-.315 3.602.302 6.804 2 10 2.712 5.104 3.829 1.781 4 2 6.157 7.874 9.931 18.214 20 22.5-14.442 14.891-62.141 38.154-71 7.5-2.039-7.054-2.123-23.215 3-29 5.391-6.087 34.087-15.152 42-13" style="fill:url(#i)"/>/&gt;<path fill="#29adcc" d="M196 696c.757 2.065 4.108 7.797 4 8.5-.158 1.028-10.092 12.23-12 17-3.4 8.501-5.211 23.066-7 32.5-9.783-.007-19.266-14.121-22-22.5-7.294-22.355-2.656-46.314 13-63.5 4.342-4.766 11.671-11.489 18-13.5-2.505 16.199.68 26.998 6 41.5m-13.5-31c-3.027-.296-17.838 13.973-17 19l17.5-16.5c1.666-.76.146-2.437-.5-2.5"/><path fill="#b2eef9" d="M182.5 665c.646.063 2.166 1.74.5 2.5L165.5 684c-.838-5.027 13.973-19.296 17-19"/><path fill="#b3ceda" d="m565 698-36-1c-1.649-9.636-6.836-15.651-12.5-23l56 6c2.462 1.856-6.132 15.465-7.5 18"/><path fill="#063d52" d="M489.5 676c40.781-5.69 39.889 58.438 0 53-27.521-3.752-28.488-49.025 0-53m-4.5 48c-.382-4.225 3.715-1.014 4-1 .051.826 2.422 1.913 3 2 1.347.203 4.706.234 6 0 23.611-4.267 25.862-42.959-.5-46-30.795-3.552-37.557 36.622-11 48 3.817-1.208-.352-1.954-1.5-3"/><path fill="#04b4d9" d="m498 725-2-2c20.999-3.235 26.478-30.727 6.5-40 8.584 7.747 14.857 17.193 8.5 28.5-16.644 29.604-60.205-12.84-22.5-28.5l10.5-.5-8.5-1.5c-25.901 7.106-22.821 27.222-5.5 43 1.148 1.046 5.317 1.792 1.5 3-26.557-11.378-19.795-51.552 11-48 26.362 3.041 24.111 41.733.5 46"/><path fill="#042030" d="M496 723c-.636.098-1.349-.047-2 0-1.606.117-3.388.082-5 0-.285-.014-4.382-3.225-4 1-17.321-15.778-20.401-35.894 5.5-43l8.5 1.5-10.5.5c-37.705 15.66 5.856 58.104 22.5 28.5 6.357-11.307.084-20.753-8.5-28.5 19.978 9.273 14.499 36.765-6.5 40"/><path fill="#9cc1cf" d="M594 711c-27.414 65.325-80.647 114.557-154 74-2.292-1.267-4.732-3.498-7-5l-1.5-6c29.847 23.103 70.458 26.988 104 9 30.08-16.132 50.118-57.219 61.5-88z"/><path fill="#a1bfcd" d="M565 698c-12.871 23.856-37.238 44.097-65.5 45 18.339-12.007 33.812-20.796 29.5-46z"/><path fill="#37c2dd" d="M216 717c3.435 8.933 19.91 33.156 31.5 29 4.283-1.536 8.306-33.082 8.5-38.5.151-4.199-1.024-.704-2-2.5 1.454-.534 3.064-3.76 5.5-3 2.082 1.735-4.847 45.959-10 48-10.344 4.097-33.817-21.901-33.5-33"/><path fill="#385668" d="M808 764c-.322 41.822 2.05 84.33 1 126-.126 4.991-.291 12.135-1 17-3.018 2.516-5.416 1.074-8 1l-2-193.5-8-1.5c.052-1.335-4.322-9.132-1.5-11 .691-.457 13.456 2.799 16.5 1.5z"/><path fill="#1f93b2" d="M254 705c.976 1.796 2.151-1.699 2 2.5-.194 5.418-4.217 36.964-8.5 38.5-11.59 4.156-28.065-20.067-31.5-29-.077-.199-3.263-3.052-1.5-4 14.058 1.677 26.709-3.306 39.5-8"/><path fill="#708d9e" d="m790 713 8 1.5 2 193.5c-3.836-.11-8.986-1.035-12-1-1.673-21.552-1.208-43.393-1-65 4.501-1.675.67-13.614 2-15.5.875-1.241 4.129.24 5-1 2.284-3.254.636-68.627 1-79.5l2-26.5c-3.037-1.68-1.895 3.149-2 4.5-3.338 1.235-1.61 4.29-7 3 .072-5.403 1.97-13.223 2-14"/><path fill="#3b5467" d="M795 746c.242-7.235-.556-14.831 0-22 .105-1.351-1.037-6.18 2-4.5z"/><path fill="#6ee0fa" d="m494 723-2 2c-.578-.087-2.949-1.174-3-2 1.612.082 3.394.117 5 0"/><path fill="#61caef" d="m496 723 2 2c-1.294.234-4.653.203-6 0l2-2c.651-.047 1.364.098 2 0"/><path fill="#85a2b3" d="M795 724c-.556 7.169.242 14.765 0 22-.364 10.873 1.284 76.246-1 79.5-.871 1.24-4.125-.241-5 1-1.33 1.886 2.501 13.825-2 15.5.135-14.031.869-27.987 1-42 .227-24.311-.322-48.692 0-73 5.39 1.29 3.662-1.765 7-3"/><path fill="#121c29" d="M622 741c17.66 20.995 36.697 53.04 39 81 .054.654-.025 1.341 0 2-12.214-.538-23.919-.108-36 2-5.767 1.006-17.065 3.444-22 6 3.157-2.256 8.362-4.942 12-6 12.295-3.577 26.758-4.14 39.5-4 3.635-1.533-2.538-18.568-3.5-22-1.232-4.396-1.892-9.865-4-14-.658-1.29-1.923-5.244-3.5-5L625 798c.133-.267-.134-.734 0-1 1.63-3.931 17.625-15.074 18-17.5.255-1.654-4.001-7.702-5-9.5-.819-1.474-1.921-1.883-2-2-2.365-3.526-4.427-7.56-7-11 1.046-4.083-.159-8.019-4.5-10-2.169-.99-5.682 3.013-5.5-1 .724-1.507 2.424-3.701 3-5"/><path fill="#1e374a" d="M404 798c5.145 3.663 10.212 7.362 16 10-1.158 2.179-1.558 8.723-4 11.5-3.767 2.387-34.347-19.434-39-23.5-12.417-10.85-22.597-24.918-29.5-40-5.171-1.98-4.76 3.62-5.5 6-1.12 3.6-3.758 3.917-3 8.5.625 3.776 6.211 8.473 9 8.5-3.107 5.626 15.816 21.194 12.5 23-4.612-4.043-7.868-9.162-11.5-14-4.073-5.425-7.327-11.341-11-17-.365-.563-1.293-3.021-1.5-3-2.836 3.838-4.378 8.299-6.5 12.5-.525 1.039-2.517-.036-3 1-.22.471-1.17 6.484-2 9.5-2.426 8.819-4.383 10.044 4 17-1.238-.813-7.103-5.371-8-4.5l-2.5 17.5 38.5 1.5c-11.117-5.006-17.996-7.932-28-14.5 5.72 4.746 12.79 4.917 18 7 2.264.905.491-1.368 1.5-1 1.017.371-.016 2.642 1 3 2.123.747 10.801 1.753 12.5 6-1.155-.229-1.761-1.918-3-.5l5 4.5c-12.069-2.663-37.894-4.703-50-4-.729.115-1.138-.275-1-1 5.713-29.97 18.448-58.354 39-81 12.973 23.463 30.238 41.506 52 57"/><path fill="#223144" d="M629 757c-.1.391-3.301 5.509-4 7-7.483 15.968-21.912 30.834-36.5 41-2.839 1.978-25.458 15.081-27 15-4.227-.223-6.65-10.423-7.5-11 19.208-11.359 43.227-23.446 56-42.5 4.592-6.85 5.799-13.841 9-20.5-.182 4.013 3.331.01 5.5 1 4.341 1.981 5.546 5.917 4.5 10"/><path fill="#094961" d="M485.5 753c22.768-4.844 24.709 26.53 8 30-21.199 4.403-24.12-26.57-8-30m-8.5 12c-1.032 11.37 9.92 16.264 19.5 11 8.537-4.69 7.035-18.023-2.5-21-7.2-2.248-16.227 1.49-17 10"/><path fill="#a7e4f0" d="M494 755c9.328 14.046-8.07 21.743-17 10 .773-8.51 9.8-12.248 17-10"/><path fill="#2a4859" d="m377 796 34.5 25 .5 9c-.968 2.289-2.901 4.726-3 5-2.461 3-.813 1.57-3 .5-10.564-5.17-19.459-12.297-29-19l30 23.5c-.329 1.228-.981 2.843-1 3l-20.5-12c-7.839-2.445-15.396-6.389-23.5-8-1.699-4.247-10.377-5.253-12.5-6-1.016-.358.017-2.629-1-3-1.009-.368.764 1.905-1.5 1-.13-6.398-11.158-20.399-16-24.5-2.736-2.318-2.481.189-6 .5.83-3.016 1.78-9.029 2-9.5.483-1.036 2.475.039 3-1 2.122-4.201 3.664-8.662 6.5-12.5.207-.021 1.135 2.437 1.5 3l-8 16.5c6.496 6.27 12.657 3.057 19 .5 3.632 4.838 6.888 9.957 11.5 14 3.316-1.806-15.607-17.374-12.5-23 .407.004 6.475-1.53 8-1.5L342 762c.74-2.38.329-7.98 5.5-6 6.903 15.082 17.083 29.15 29.5 40"/><path fill="#17b0d2" d="M477 765c8.93 11.743 26.328 4.046 17-10 9.535 2.977 11.037 16.31 2.5 21-9.58 5.264-20.532.37-19.5-11"/><path fill="#4f6c7d" d="M636 768c-1.964 6.613-8.86 16.055-17 12 2.556-4.029 4.99-11.215 6-16 .699-1.491 3.9-6.609 4-7 2.573 3.44 4.635 7.474 7 11"/><path fill="#456779" d="M348 779c-2.789-.027-8.375-4.724-9-8.5-.758-4.583 1.88-4.9 3-8.5l14 15.5c-1.525-.03-7.593 1.504-8 1.5"/><path fill="#0e2030" d="M619 780c-3.997 6.302-31.337 34.04-37.5 34-2.773-.018.739-2.909-1-3-1.106-.058-15.604 10.954-19.5 10.5-.286.62 4.739 12.29 5.5 12.5 1.918.53 30.69-15.685 35.5-18-11.671 7.926-25.21 14.704-35 24-1.234-4.68-12.449-29.151-16.5-30-40.718 17.103-85.785 13.209-126-3-1.392.433-11.258 20.064-12.5 23l-.5-9-34.5-25c4.653 4.066 35.233 25.887 39 23.5 2.442-2.777 2.842-9.321 4-11.5.831-1.564 4.483-2.09 4-5 1.435.682 2.369 1.293 4 2 36.496 15.819 83.604 18.12 121 3 .998.504 4.789.857 5 1 .85.577 3.273 10.777 7.5 11 1.542.081 24.161-13.022 27-15 14.588-10.166 29.017-25.032 36.5-41-1.01 4.785-3.444 11.971-6 16"/><path fill="#283c4e" d="m638 770-7 9.5c2.355 5.004 4.829-8.353 8-5-3.755 6.483-11.695 14.737-15 21-.716 1.356 1.041 1.419 1 1.5-.134.266.133.733 0 1-1.125 2.264-.837 5.247-1 5.5-1.036 1.605-8.127 3.086-5.5 5.5 6.484-4.141 12.63-9.088 18.5-14-.961 2.192 2.106 2.078 2 2.5-.191.761-7.525 8.073-6.5 13.5l16.5-9c-1.204 5.07-1.589 2.086-5 5.5-.246.246 3.583.166.5 2.5-4.932 3.735-11.249 4.3-16.5 7l-23.5 7c-2.993 6.478-11.671 6.45-16 9-2.979 1.755-16.91 14.334-18 14-1.116-.342-.381-7.325-3.5-5-.125-.594.146-1.447 0-2 9.79-9.296 23.329-16.074 35-24 1.407-.677 3.893-.584 5-2.5-2.207-1.574-4.18 1.943-5 2.5-4.81 2.315-33.582 18.53-35.5 18-.761-.21-5.786-11.88-5.5-12.5 3.896.454 18.394-10.558 19.5-10.5 1.739.091-1.773 2.982 1 3 6.163.04 33.503-27.698 37.5-34 8.14 4.055 15.036-5.387 17-12 .079.117 1.181.526 2 2"/><path fill="#567586" d="M625 797c.041-.081-1.716-.144-1-1.5 3.305-6.263 11.245-14.517 15-21-3.171-3.353-5.645 10.004-8 5l7-9.5c.999 1.798 5.255 7.846 5 9.5-.375 2.426-16.37 13.569-18 17.5"/><path fill="#4c6e7f" d="M349 788c-6.343 2.557-12.504 5.77-19-.5l8-16.5c3.673 5.659 6.927 11.575 11 17"/><path fill="#4a6778" d="M647 786c-1.062.915-2.271.712-3 1-4.593 1.813-5.186 3.862-7 8-5.87 4.912-12.016 9.859-18.5 14-2.627-2.414 4.464-3.895 5.5-5.5.163-.253-.125-3.236 1-5.5l18.5-17c1.577-.244 2.842 3.71 3.5 5"/><path fill="#628293" d="M651 800c-1.011.108-1.775 1.054-2 2l-16.5 9c-1.025-5.427 6.309-12.739 6.5-13.5.106-.422-2.961-.308-2-2.5 2.639-2.209 6.193-4.272 7-8 .729-.288 1.938-.085 3-1 2.108 4.135 2.768 9.604 4 14"/><path fill="#283d4f" d="M644 787c-.807 3.728-4.361 5.791-7 8 1.814-4.138 2.407-6.187 7-8"/><path fill="#4c6f80" d="M347 815c-5.21-2.083-12.28-2.254-18-7-8.383-6.956-6.426-8.181-4-17 3.519-.311 3.264-2.818 6-.5 4.842 4.101 15.87 18.102 16 24.5"/><path fill="#03405d" d="M424 803c.483 2.91-3.169 3.436-4 5-5.788-2.638-10.855-6.337-16-10l2-5c5.727 3.812 11.791 7.048 18 10"/><path fill="#4e6f82" d="m615 826-1-1c4.141-2.014 9.394-5.632 14-8 5.251-2.7 11.568-3.265 16.5-7 3.083-2.334-.746-2.254-.5-2.5 3.411-3.414 3.796-.43 5-5.5.225-.946.989-1.892 2-2 .962 3.432 7.135 20.467 3.5 22-12.742-.14-27.205.423-39.5 4"/><path fill="#101e2d" d="M788 800c-.131 14.013-.865 27.969-1 42-.208 21.607-.673 43.448 1 65-.968.011-1.095 1.081-2 1-1.521-7.389-1.025-14.548-1-22 .094-28.603 1.031-57.339 1-86z"/><path fill="#487384" d="M329 808c10.004 6.568 16.883 9.494 28 14.5l-38.5-1.5 2.5-17.5c.897-.871 6.762 3.687 8 4.5"/><path fill="#0e2030" d="M602 816c.82-.557 2.793-4.074 5-2.5-1.107 1.916-3.593 1.823-5 2.5"/><path fill="#092131" d="M409 835c-.508 1.402-1.93 4.74-2 5l-30-23.5c9.541 6.703 18.436 13.83 29 19 2.187 1.07.539 2.5 3-.5"/><path fill="#112b3d" d="M628 817c-4.606 2.368-9.859 5.986-14 8-10.055 4.889-21.944 7.743-30 16-14.888 6.664-31.128 36.939-27 53l-3 2c-1.376-2.971-3.209-8.912-3-12 .253-3.742 4.136-14.883 6-18.5 6.112-11.859 13.264-7.998 10-23.5 3.119-2.325 2.384 4.658 3.5 5 1.09.334 15.021-12.245 18-14 4.329-2.55 13.007-2.522 16-9z"/><path fill="#299ab5" d="M313 822c-.138.725.271 1.115 1 1-3.181.185-7.607 1.561-11 2-7.15.924-14.587 5.184-22 4 10.333-3.955 20.594-7.962 32-7"/><path fill="#092131" d="M362 823c8.104 1.611 15.661 5.555 23.5 8l20.5 12c-1.245 10.23 11.639 17.32 15 27.5 1.296 3.924 1.89 9.331 2 13.5.241 9.14-.346 16.586-8.5 22-13.94 9.257-71.936 11.674-90.5 12l4-3c16.306-.025 83.342-1.042 91-15.5 9.33-17.616-13.984-51.933-29-61.5-3.415-2.176-6.316-3.408-10-5-5.284-2.284-10.302-4.743-16-6l-5-4.5c1.239-1.418 1.845.271 3 .5"/><path fill="#0b314c" d="M761 886c1.911 3.855 4.8 9.594 4 14-.633-.077-1.856.136-2 0-.633-.595.632-3.994-3-.5.767-2.057-.646-3.434-1-4.5-13.461-40.602-52.462-68.236-95-71-.987-.064-2.01.044-3 0-.025-.659.054-1.346 0-2 38.393-1.694 83.439 30.586 100 64"/><path fill="#54bfd8" d="M364 827c5.698 1.257 10.716 3.716 16 6-.078.527-1.663 1.786-2 2-7.267 4.605-22.294 7.284-31.5 12-17.47 8.949-53.741 39.623-58.5 59-.281 1.144.32 2.974 0 4-.054.172-2.078 1.987-2 3-15.644-1.189-33.842-1.679-49-6 2.997-4.253 3.311-13.041 3-18 11.072-27.275 37.391-48.416 67-51.5-.366-3.416-4.227-2.628-6.5-2.5-9.305.524-29.938 10.939-37.5 17-3.302-4.873 3.24-8.551 6.5-11 8.755-6.579 20.976-9.399 31-13 1.461-.525 4.39-.96 2.5-3 3.393-.439 7.819-1.815 11-2 12.106-.703 37.931 1.337 50 4"/><path fill="#189ec4" d="M661 824c.99.044 2.013-.064 3 0-.739 2.932 1.54 3.329 3.5 4 10.606 3.631 23.31 5.182 34 10 24.854 11.202 44.234 35.161 53.5 60.5l4-3.5c.354 1.066 1.767 2.443 1 4.5 3.632-3.494 2.367-.095 3 .5-5.103 4.238-12.032 8.469-18.5 10-7.057 1.67-12.198.214-18.5 1-28.495-33.482-59.684-67.589-101-85 12.081-2.108 23.786-2.538 36-2m7.5 12 25 7c9.847 3.732 24.3 14.895 30.5 23.5 4.422 6.137 5.846 13.846 11 19-5.625-29.678-37.217-51.126-66.5-49.5"/><path fill="#40c5e8" d="m759 895-4 3.5c-9.266-25.339-28.646-49.298-53.5-60.5-10.69-4.818-23.394-6.369-34-10-1.96-.671-4.239-1.068-3.5-4 42.538 2.764 81.539 30.398 95 71"/><path fill="#8be7f4" d="M303 825c1.89 2.04-1.039 2.475-2.5 3-10.024 3.601-22.245 6.421-31 13-3.26 2.449-9.802 6.127-6.5 11-9.979 7.998-15.93 19.486-24 29-.036-.192-2.264.227-3-2.5-1.305-4.836 4.586-9.073-3-10.5.421-.668 3.805-5.539 2-6 13.574-16.209 26.046-25.363 46-33 7.413 1.184 14.85-3.076 22-4"/><path fill="#157c9e" d="m614 825 1 1c-3.638 1.058-8.843 3.744-12 6-.638.331-5.067 3.202-5 3.5l3 1.5 29.5 12c22.297 14.388 41.955 33.398 54.5 57 .221 1.757.134 1.753-1.5 2-14.875 2.248-73.185-6.017-86-14-18.515-11.534-20.817-39.521-5.5-54.5-.363-1.163-6.924 1.018-8 1.5 8.056-8.257 19.945-11.111 30-16"/><path fill="#107fa3" d="M625 826c41.316 17.411 72.505 51.518 101 85-12.211 1.522-24.682 3.525-37 4 .612-3.565-1.784-6.053-3-9-13.534-32.799-49.634-63.787-85-69l-3-1.5c-.067-.298 4.362-3.169 5-3.5 4.935-2.556 16.233-4.994 22-6"/><path fill="url(#j)" d="m390 838-4 1.5c39.53 65.953-57.498 66.782-98 70.5.32-1.026-.281-2.856 0-4 20.462-32.312 54.076-61.982 92.5-68l-2.5-3c.337-.214 1.922-1.473 2-2 3.684 1.592 6.585 2.824 10 5" style="fill:url(#j)"/>/&gt;<path fill="#d6f8fc" d="M240 889c-.2-3.189-.426-4.925-1-8 8.07-9.514 14.021-21.002 24-29 7.562-6.061 28.195-16.476 37.5-17 2.273-.128 6.134-.916 6.5 2.5-29.609 3.084-55.928 24.225-67 51.5"/><path fill="#85dff2" d="M288 906c4.759-19.377 41.03-50.051 58.5-59 9.206-4.716 24.233-7.395 31.5-12l2.5 3c-38.424 6.018-72.038 35.688-92.5 68"/><path fill="#90e4f8" d="M668.5 836c29.283-1.626 60.875 19.822 66.5 49.5-5.154-5.154-6.578-12.863-11-19-6.2-8.605-20.653-19.768-30.5-23.5z"/><path fill="#50c9e5" d="M601 837c35.366 5.213 71.466 36.201 85 69h-1c-12.545-23.602-32.203-42.612-54.5-57z"/><path fill="#045979" d="M390 838c15.016 9.567 38.33 43.884 29 61.5-7.658 14.458-74.694 15.475-91 15.5-14.127.022-27.956-.933-42-2-.078-1.013 1.946-2.828 2-3 40.502-3.718 137.53-4.547 98-70.5z"/><path fill="#0c5271" d="M685 906h1c1.216 2.947 3.612 5.435 3 9-22.48.867-110.312.572-125.5-11-3.364-2.563-5.443-5.888-6.5-10-4.128-16.061 12.112-46.336 27-53 1.076-.482 7.637-2.663 8-1.5-15.317 14.979-13.015 42.966 5.5 54.5 12.815 7.983 71.125 16.248 86 14 1.634-.247 1.721-.243 1.5-2"/><path fill="#076f8c" d="M233 868c-11.766 18.673-26.611 30.275 4 39 15.158 4.321 33.356 4.811 49 6 14.044 1.067 27.873 2.022 42 2l-4 3c-25.309.444-72.142.076-95.5-8-12.796-4.425-15.639-8.343-11.5-21 2.859-8.744 12.047-19.891 18-27 1.805.461-1.579 5.332-2 6"/><path fill="#46e2f7" d="M239 881c.574 3.075.8 4.811 1 8 .311 4.959-.003 13.747-3 18-30.611-8.725-15.766-20.327-4-39 7.586 1.427 1.695 5.664 3 10.5.736 2.727 2.964 2.308 3 2.5"/>/&gt;<path fill="#081a26" d="M557 894c1.057 4.112 3.136 7.437 6.5 10 15.188 11.572 103.02 11.867 125.5 11 12.318-.475 24.789-2.478 37-4 6.302-.786 11.443.67 18.5-1 6.468-1.531 13.397-5.762 18.5-10 .144.136 1.367-.077 2 0-1.731 9.537-27.651 13.784-35.5 15-28.753 4.454-147.943 5.791-169-10-3.245-2.433-4.834-5.4-6.5-9z"/><path fill="#244659" d="M800 908c2.584.074 4.982 1.516 8-1-1.422 9.76-20.713 6.738-23 3.5-.67-.949 1.174-1.652 1-2.5.905.081 1.032-.989 2-1 3.014-.035 8.164.89 12 1"/></svg>