<svg xmlns="http://www.w3.org/2000/svg" width="1024" height="1024"><defs><linearGradient id="a" x1="223.666" x2="804.213" y1="265.934" y2="288.892" gradientUnits="userSpaceOnUse"><stop offset="0%" style="stop-color:#b6d0dd"/><stop offset="45.955%" style="stop-color:#f3f5f6"/><stop offset="68.158%" style="stop-color:#cdd6e9"/><stop offset="87.436%" style="stop-color:#628392"/><stop offset="100%" style="stop-color:#486a7d"/></linearGradient></defs><defs><linearGradient id="b" x1="608.799" x2="424.534" y1="469.974" y2="512.017" gradientUnits="userSpaceOnUse"><stop offset="0%" style="stop-color:#037891"/><stop offset="100%" style="stop-color:#0493b1"/></linearGradient></defs><defs><linearGradient id="c" x1="146.502" x2="135.504" y1="421.332" y2="509.65" gradientUnits="userSpaceOnUse"><stop offset="0%" style="stop-color:#badde3"/><stop offset="100%" style="stop-color:#8caab7"/></linearGradient></defs><defs><linearGradient id="d" x1="882.042" x2="883.963" y1="423.632" y2="510.611" gradientUnits="userSpaceOnUse"><stop offset="0%" style="stop-color:#badee5"/><stop offset="100%" style="stop-color:#8eacb9"/></linearGradient></defs><path fill="#072834" d="M228 281c-2.297 3.097-5.754 5.654-6 6-12.397-3.804-29.213-14.911-41.5-17-12.065-2.051-22.356.234-31.5 8-29.85 25.352 7.858 54.804 23 77 2.504 3.67 9.7 12.948 11 16 1.803 4.231 3.763 6.986 0 12-10.232-19.145-51.187-58.434-53-78.5-1.316-14.57 7.335-28.988 19.5-36.5 2.979-1.84 12.463-3.627 13.5-4.5 5.262-4.428 18.381-53.937 24-63-41.551-26.324-6.4-88.775 37.5-67.5 25.291 12.256 25.378 51.926 2 66-5.315 3.2-22.183 5.985-23.5 7.5-4.661 5.363-10.342 48.957-16 58zm-39-142c-.853.244-5.049 3.198-6 4-4.792 4.038-6.411 8.104-8 14-8.143 30.217 20.614 55.584 48.5 39 26.907-16.002 18.689-60.034-12.5-63-6.955-.661-16.949.69-22 6m-14 124c1.612.123 8.117 1.191 8.5 1 2.617-1.301 11.192-50.146 14.5-56.5-.292-2.976-2.266-2.027-3-2.5-.934-.602-2.551-2.294-3.5-2-3.017.935-17.914 52.462-23.5 58.5l1.5 2.5c1.229-1.499 3.76-1.133 5.5-1"/><path fill="#072935" d="M814 708c-2.083-.565-.502-3.246 0-4.5 14.909-37.251 29.778-73.379 36-113.5 1.193 1.274 3.65.763 4 1 .139.094-.073 2.671 1.5 3 4.972 1.041 20.78-5.981 25.5-9 17.713-11.328 24.742-33.181 27-53 5.123-44.97-1.329-117.353-51-132-3.106-.916-6.74-3.528-10-4-2.247-.325-4.97-.257-7 1-.872-3.031-3.04-5.914-4-9-.731-2.349-1.24-4.659-2-7 2.775-3.047 2.006-7.147 4-11 3.349-6.472 12.335-15.94 17-23 14.662-19.581 47.336-47.538 17.5-70-26.763-20.148-47.868 5.45-71.5 10-1.083.208-1.372 1.378-2.5 1-1.705-3.948-4.979-4.475-6.5-6l43-16.5c-3.386-8.134-13.385-59.616-18.5-61.5-1.879-.692-6.947.661-9 0-29.999-9.656-41.075-49.013-14-68 34.372-24.104 75.601 15.632 54.5 51.5-1.759 2.991-11.901 12.017-12 13-.732 7.245 21.235 51.139 23 62 34.522 11.353 41.418 34.936 22 65-4.941 7.65-41.917 51.541-42 55-.109 4.552 30.664 11.493 37.5 15.5 34.717 20.353 43.368 103.44 37.5 139.5-6.156 37.832-25.555 59.292-63 68-3.865 17.46-8.182 35.105-14 52-6.424 18.655-14.071 33.364-23 50.5m-2-574c-2.963.388-6.189 1.033-9 2-6.303 2.169-12.814 8.047-16 14-1.508 2.816-3.65 7.912-4 11-3.441 30.38 29.997 52.825 54.5 32 25.697-21.84 8.1-63.405-25.5-59m16 71c-.649.309-2.503-.207-3.5 0l14.5 58.5c1.781 2.95 4.663-.037 7-.5 1.588-.315 6.179.649 7-.5l-20-57c-3.778-4.819-3.6-1.166-5-.5"/><path fill="#a3c0c9" d="m211 133-5 2.5c28.521 24.633-19.652 49.876-31 21.5 1.589-5.896 3.208-9.962 8-14-6.422 13.061 2.801 24.588 16.5 17 11.748-6.508 6.904-25.985-10.5-21 5.051-5.31 15.045-6.661 22-6"/><path fill="#5292a7" d="M175 157c11.348 28.376 59.521 3.133 31-21.5l5-2.5c31.189 2.966 39.407 46.998 12.5 63-27.886 16.584-56.643-8.783-48.5-39m48.5-15c14.982 26.695-10.16 60.16-39 44 29.235 33.291 76.302-18.236 39-44"/><path fill="#5493a9" d="M783 161c5.297.423 7.651 6.919 12.5 8 13.749 3.064 30.359-6.064 26.5-21.5-1.173-4.69-10.02-7.732-10-13.5 33.6-4.405 51.197 37.16 25.5 59-24.503 20.825-57.941-1.62-54.5-32m38.5-25c2.671 6.361 9.739 8.373 12.5 15.5 4.368 11.277-.096 27.787-10.5 34.5-8.922 5.758-15.724 3.841-25.5 4.5 43.341 25.425 70.466-39.88 23.5-54.5"/><path fill="#237a91" d="M552 136c-1.833 3.059 7.524 3.349-1 6-24.721-2.923-53.244-2.93-78 0 3.006-3.883-6.705.094-4-5 28.504-3.46 54.259-4.221 83-1"/><path fill="#a9c4cc" d="M812 134c-.02 5.768 8.827 8.81 10 13.5 3.859 15.436-12.751 24.564-26.5 21.5-4.849-1.081-7.203-7.577-12.5-8 .35-3.088 2.492-8.184 4-11 3.318 33.357 44.995-1.382 16-14 2.811-.967 6.037-1.612 9-2"/><path fill="#21667e" d="M666 171c1.983 5.623 6.892 2.04 4 10-34.858-18.406-79.669-34.35-119-39 8.524-2.651-.833-2.941 1-6 38.201 4.28 79.765 17.79 114 35"/><path fill="#fdfdfe" d="M787 150c3.186-5.953 9.697-11.831 16-14 28.995 12.618-12.682 47.357-16 14"/><path fill="#335a6d" d="M821.5 136c46.966 14.62 19.841 79.925-23.5 54.5 9.776-.659 16.578 1.258 25.5-4.5 10.404-6.713 14.868-23.223 10.5-34.5-2.761-7.127-9.829-9.139-12.5-15.5"/><path fill="#1f627a" d="M469 137c-2.705 5.094 7.006 1.117 4 5-91.54 10.833-185.474 67.428-239 142-2.977.429-2.65-3.838-2-6 59.968-78.965 136.697-128.825 237-141"/><path fill="#fdfdfe" d="M183 143c.951-.802 5.147-3.756 6-4 17.404-4.985 22.248 14.492 10.5 21-13.699 7.588-22.922-3.939-16.5-17"/><path fill="url(#a)" d="M551 142c39.331 4.65 84.142 20.594 119 39 40.122 21.185 77.693 51.42 106 87 24.274 30.511 38.6 59.677 52 96-15.282.287-24.897-17.08-36.5-26-14.935-11.482-32.23-18.18-48.5-27-36.451-19.759-61.837-30.943-100.5-44-.312-.105-6.324-.438-6.5 1-3.78-1.05-10.197-2.974-14-2-80.248-43.956-177.481-38.29-250 18 1.299-6.9 12.369-10.056 16.5-14 2.727-2.603.401-1.111-.5-3 5.636-2.593 11.091-6.311 17-8.5-2.903-.925-10.786.597-13.5 1.5-15.333 5.1-47.646 21.134-63 29-58.135 29.784-111.428 71.577-150.5 124 1.155-5.291 2.48-10.805 4-16 1.371-4.687 3.49-9.345 5-14 11.286-34.8 25.54-69.102 47-99 53.526-74.572 147.46-131.167 239-142 24.756-2.93 53.279-2.923 78 0m164.5 90-1 2 7.5 3.5z" style="fill:url(#a)"/>/&gt;<path fill="#335a6d" d="M223.5 142c37.302 25.764-9.765 77.291-39 44 28.84 16.16 53.982-17.305 39-44"/><path fill="#1c4a61" d="m779 264-3 4c-28.307-35.58-65.878-65.815-106-87 2.892-7.96-2.017-4.377-4-10 46.04 23.144 80.523 53.609 113 93"/><path fill="#e7eff1" d="m195 205-20 58c-1.74-.133-4.271-.499-5.5 1l-1.5-2.5c5.586-6.038 20.483-57.565 23.5-58.5.949-.294 2.566 1.398 3.5 2"/><path fill="#096b84" d="m846 263-18-58c1.4-.666 1.222-4.319 5 .5l20 57c-.821 1.149-5.412.185-7 .5"/><path fill="#379db4" d="m175 263 20-58c.734.473 2.708-.476 3 2.5-3.308 6.354-11.883 55.199-14.5 56.5-.383.191-6.888-.877-8.5-1"/><path fill="#cadadc" d="m828 205 18 58c-2.337.463-5.219 3.45-7 .5L824.5 205c.997-.207 2.851.309 3.5 0"/><path fill="#c4d6da" d="m715.5 232 6.5 5.5-7.5-3.5z"/><path fill="#19485b" d="M622 266c59.979 32.854 104.335 94.097 115 162l-6 1c-10.919-72.938-66.386-141.836-134-170-45.246-18.847-95.35-22.203-143-10-87.119 22.312-155.93 104.535-164 194-3.835 42.511 4.145 80.24 23 118 3.679 7.367 6.425 13.015 11 20 9.981 15.238 19.683 25.743 33 38 2.416 2.224 4.377 4.803 7 7-2.927 2.865-.612 4.229-5 3-107.169-94.472-98.676-258.317 13-345 72.519-56.29 169.752-61.956 250-18"/><path fill="#90b2bd" d="m597 259-5 10c-37.001-15.163-81.101-16.761-120-9-2.607-4.95-13.934 3.27-17.5 2 2.86-3.9 1.794-9.337-.5-13 47.65-12.203 97.754-8.847 143 10"/><path fill="#b6d4db" d="M472 260c-97.374 19.429-171.101 108.902-167 209-3.009.435-1.938-2.671-2-4.5-.289-8.565-.475-17.528 1-26-.606-.721-10.034.256-10.5.5-3.008 1.577.047 8.619-3.5 4 8.07-89.465 76.881-171.688 164-194 2.294 3.663 3.36 9.1.5 13 3.566 1.27 14.893-6.95 17.5-2m-48.5 11c-2.593.245-29.951 15.393-34 18-35.52 22.866-73.768 70.406-81.5 112.5-.072.39-3.329 2.216-.5 6.5 14.662-60.991 62.375-111.009 118.5-136.5-.233-.741-1.713-.574-2.5-.5"/><path fill="#2a5163" d="M592 269c2.853 1.169 23.741 12.116 24 13.5.103.552-5.489 7.92-4 10.5-155.986-89.379-340.623 52.804-290 227-4.305-1.905-5.215-.49-9 1-4.258-17.039-7.279-34.4-8-52-4.101-100.098 69.626-189.571 167-209 38.899-7.761 82.999-6.163 120 9"/><path fill="#3381a0" d="M388 267c-23.401 10.764-47.956 19.2-70.5 32-29.668 16.846-125.532 90.007-139.5 118-1.901-2.346-.339-2.445 0-4 39.072-52.423 92.365-94.216 150.5-124 15.354-7.866 47.667-23.9 63-29 2.714-.903 10.597-2.425 13.5-1.5-5.909 2.189-11.364 5.907-17 8.5"/><path fill="#417082" d="M731 429c.419 2.798.699 6.145 1 9l-17 4c-.437-4.843-2.07-11.07-3-16-3.469-18.377-12.684-43.612-24-58.5-.447-.588-4.336-4.11-4-.5-5.078-8.748-13.558-19.011-20-27-14.924-18.509-31.161-35.059-52-47-1.489-2.58 4.103-9.948 4-10.5-.259-1.384-21.147-12.331-24-13.5l5-10c67.614 28.164 123.081 97.062 134 170"/><path fill="#143b50" d="M792 282c1.521 1.525 4.795 2.052 6.5 6 1.128.378 1.417-.792 2.5-1 2.187 6.701 5.864 12.757 9 19 .651 1.296.969.937 1 1 6.578 13.244 12.632 27.207 18 41 2.763 7.101 4.388 16.041 9 22-1.994 3.853-1.225 7.953-4 11-1.879-5.791-3.899-11.305-6-17-13.4-36.323-27.726-65.489-52-96l3-4c4.465 5.416 8.579 13.57 13 18"/><path fill="#9dc7d1" d="M636 268c7.482 2.078 14.758 5.25 22 8 17.528 10.606 36.862 18.501 54.5 29 43.01 25.603 81.954 58.106 114.5 96l-2 2c-8.005-16.868-39.857-39.982-55-51.5 19.108 136.177-22.439 311.186-134 399.5-8.417 4.137-13.357-.767-21-3-9.334-6-14.571-18.592-22.5-25-28.891-23.347-58.634 3.684-90 0-11.785-1.384-22.362-8.438-36.5-9-44.069-1.751-42.833 33.929-72 38-4.82.673-10.109-2.178-14 .5 28.847 6.435 44.259 41.101 66.5 56.5 8.394 5.812 32.339 14.173 42.5 16-76.98 6.304-157.614-18.001-214-71-4.053-3.809-18.07-22.521-19.5-23-2.344-.786-9.484 3.236-8.5 7.5.634 2.749 17.248 17.472 20 21 .377 2.088-1.67.9-2.5.5-5.943-2.864-52.201-59.469-57.5-68-14.654-23.591-26.47-62.685-32-90-8.418-41.581-15.583-147.759 3-185 13.968-27.993 109.832-101.154 139.5-118 22.544-12.8 47.099-21.236 70.5-32 .901 1.889 3.227.397.5 3-4.131 3.944-15.201 7.1-16.5 14-111.676 86.683-120.169 250.528-13 345 158.107 139.375 411.278 10.868 378-201-10.665-67.903-55.021-129.146-115-162 3.803-.974 10.22.95 14 2M251.5 388c-28.433 76.389-40.733 160.704-21 241l-.5-105.5zm47 220c-.146.003-1.617 1.34-2.5 1.5 2.49.785 11.292 5.953 12 3 1.493-6.229-3.949-2.233-6.5-2.5-.81-.085.64-2.081-3-2"/><path fill="#0d303f" d="M612 293c20.839 11.941 37.076 28.491 52 47l-12 12c-.07-.088-1.929-.913-2-1-69.38-84.792-197.953-90.128-272-8-67.781 75.179-63.156 184.853 14 251 3.662 3.139 7.014 7.135 11 10-3.625 4.348-9.471 9.157-10 15-12.165-8.779-25.318-20.548-35-32-16.666-19.712-28.775-42.139-36-67-50.623-174.196 134.014-316.379 290-227"/><path fill="#c7dee8" d="M743 311c13.649 10.17 28.225 19.311 41.5 30 16.832 13.554 39.655 30.799 45.5 52h-1c-36.457-46.757-115.786-96.033-171-117-7.242-2.75-14.518-5.922-22-8 .176-1.438 6.188-1.105 6.5-1 38.663 13.057 64.049 24.241 100.5 44"/><path fill="#7aa4b3" d="M222 287c-5.103 7.179-6.352 16.72-13 23 .342-1.349.868-2.618 1-4-8.129-5.476-29.803-28.073-38-28-5.124-4.681-17.439 1.506-23 4 .094-.177.989-3.934 0-4 9.144-7.766 19.435-10.051 31.5-8 12.287 2.089 29.103 13.196 41.5 17"/><path fill="#4c8597" d="M855 347c7.125-10.782 24.596-34.749 26-46.5 2.118-17.728-12.376-22.959-27-22.5-1.895.059-3.822-1.714-6.5-1-7.875 2.1-28.041 24.78-37.5 29-3.136-6.243-6.813-12.299-9-19 23.632-4.55 44.737-30.148 71.5-10 29.836 22.462-2.838 50.419-17.5 70"/><path fill="#f6fafa" d="M423.5 271c.787-.074 2.267-.241 2.5.5-56.125 25.491-103.838 75.509-118.5 136.5-2.829-4.284.428-6.11.5-6.5 7.732-42.094 45.98-89.634 81.5-112.5 4.049-2.607 31.407-17.755 34-18"/><path fill="#5c8e9f" d="M172 278c-3.45.031-2.976 1.04-5 2-34.185 16.21 14.397 50.105 25 67-3.053 7.747-4.683 16.801-9 24-1.3-3.052-8.496-12.33-11-16-7.435-16.588-33.732-44.416-30-63.5.475-2.431 5.697-7.045 7-9.5 5.561-2.494 17.876-8.681 23-4"/><path fill="#1b4e65" d="M829 393c4.472 5.735 8.483 12.611 12 19-.453-.274-1.174.32-1 1-2.453-3.434-9.946-8.444-13-12-32.546-37.894-71.49-70.397-114.5-96-17.638-10.499-36.972-18.394-54.5-29 55.214 20.967 134.543 70.243 171 117"/><path fill="#f9fbfc" d="M854 278c1.193-.196 1.878 1.928 2 2l-45 27c-.031-.063-.349.296-1-1 9.459-4.22 29.625-26.9 37.5-29 2.678-.714 4.605 1.059 6.5 1"/><path fill="#265366" d="M855 347c-4.665 7.06-13.651 16.528-17 23-4.612-5.959-6.237-14.899-9-22 13.617-16.369 57.318-50.125 27-68-.122-.072-.807-2.196-2-2 14.624-.459 29.118 4.772 27 22.5-1.404 11.751-18.875 35.718-26 46.5"/><path fill="#aacad3" d="M149 282c-1.303 2.455-6.525 7.069-7 9.5-3.732 19.084 22.565 46.912 30 63.5-15.142-22.196-52.85-51.648-23-77 .989.066.094 3.823 0 4"/><path fill="#f5fafb" d="M172 278c8.197-.073 29.871 22.524 38 28l-43-26c2.024-.96 1.55-1.969 5-2"/><path fill="#1d475d" d="M234 284c-21.46 29.898-35.714 64.2-47 99l-1.5-2c-.489 3.739-1.107 2.19-2.5 3v-1c3.763-5.014 1.803-7.769 0-12 4.317-7.199 5.947-16.253 9-24 4.33-10.987 14.426-26.851 17-37 6.648-6.28 7.897-15.821 13-23 .246-.346 3.703-2.903 6-6 .964-1.3 3.332-2.12 4-3-.65 2.162-.977 6.429 2 6"/><path fill="#82a9b7" d="M210 306c-.132 1.382-.658 2.651-1 4-2.574 10.149-12.67 26.013-17 37-10.603-16.895-59.185-50.79-25-67z"/><path fill="#3d7e92" d="M829 348c-5.368-13.793-11.422-27.756-18-41l45-27c30.318 17.875-13.383 51.631-27 68"/><path fill="#077fa5" d="M650 351c-4.801 12.66-10.292-9.756-19-8.5 2.07-.297 17.441 16.976 12.5 16.5-12.133-14.092-24.4-26.61-40.5-36-3.032-3.599-19.12-11.559-24-13-.571-3.686-9.153-6.026-12.5-7-20.126-5.856-52.333-10.22-73-8-10.613 1.14-22.102 8.228-30.5 6.5 10.759-6.274 25.02-5.499 37-9-8.877 2.228-21.096-1.334-28.5-.5-.29.033-2.273 2.437-5 3-12.602 2.601-33.792 10.466-47 18-2.238 1.277-9.171 4.91-9 8l34.5-16.5-27.5 13.5c-4.636 2.872-8.402 6.49-12.5 10-11.71 8.201-24.665 21.178-33 33l-5 .5c3.194-5.368 14.758-12.917 11-18.5 74.047-82.128 202.62-76.792 272 8"/><path fill="#05688b" d="M579 310c-.659-.195-3.943-2.459-3.5 0 8.641 4.273 19.283 8.207 27.5 13 .618.734 3.647 3.902.5 4-34.72-22.653-76.822-26.745-117-26l2-3c-20.043 3.773-37.14 14.785-54.5 25l27.5-19-50 24 49-28c-18.666 8.8-38.552 16.131-55.5 28 4.098-3.51 7.864-7.128 12.5-10l27.5-13.5-34.5 16.5c-.171-3.09 6.762-6.723 9-8 13.208-7.534 34.398-15.399 47-18 2.727-.563 4.71-2.967 5-3 7.404-.834 19.623 2.728 28.5.5-11.98 3.501-26.241 2.726-37 9 8.398 1.728 19.887-5.36 30.5-6.5 20.667-2.22 52.874 2.144 73 8 3.347.974 11.929 3.314 12.5 7m-74.5-14c-1.711.048-12.687.476-13 3 28.122-1.51 55.486 2.523 82.5 9.5-20.91-7.563-47.199-13.13-69.5-12.5"/><path fill="#038bb3" d="M504.5 296c22.301-.63 48.59 4.937 69.5 12.5-27.014-6.977-54.378-11.01-82.5-9.5.313-2.524 11.289-2.952 13-3"/><path fill="#0294c0" d="M603 323c16.1 9.39 28.367 21.908 40.5 36 4.941.476-10.43-16.797-12.5-16.5 8.708-1.256 14.199 21.16 19 8.5.071.087 1.93.912 2 1 9.123 11.487 16.005 23.621 22 37-3.299 1.642-2.839.352-2 3.5 1.01 3.793 7.15 19.048 9 23 1.404 3 .279 3.726 4 2.5 2.11 7.769 3.904 16.006 5 24l-5 25.5v26c-2.541-15.471.069-31.02 0-46.5-.012-2.656 1.51-6.533 1-10.5-.492-3.824-3.916-6.606-4-7-.138-.643 2.149-.36 2-1-1.749-7.511-11.97-36.285-16-42-.903-1.28-1.927-3.761-4-2.5-1.487.905-1.254 3.569-1 5-1.425-.164-.612 2.269-2 2l-13.5-22c1.759 4.359 6.956 15.896 9.5 19l1.5 11-16-25c-3.582 5.709-3.108-.511-8-2l1 6-4.5-2.5 15 26 1.5 9.5c-.562-6.165-23.415-44.604-26-45-1.313-.201-1.726.77-2.5 1.5 10.442 16.582 23.082 30.986 29 50l-.5 5.5c-7.964-23.925-22.92-49.65-43-65-1.392 2.858 23.709 23.608 16 23-1.13-.089-11.048-15.862-15-17-5.663.382 7.556 11.187 8.5 12.5 4.92 6.845 9.095 15.015 13 22.5-18.066-28.565-31.142-39.641-61-55-6.635-3.413-13.277-6.763-20-10 5.599.097 11.506-1.92 16.5 1l-4-4c-1.979-.556-2.879 1.162-3.5 1 1.076-3.775-4.393-4.684-6-2-2.453-.075-4.655.022-7 0-.646-.056-1.378.119-2 0 .785-4.639 5.028.944 2.5-5h16l-7.5-6c14.286 2.758 30.063 9.095 41.5 18 2.416-1.04-4.653-6.746-5-7-17.736-13.012-66.155-17.335-88.5-18v-3c16.521-.233 53.508 5.133 69.5 10 9.447 2.875 17.939 8.51 26 14 2.553-1.728.348-2.678-1-4-18.78-18.419-96.054-24.933-121-19-15.176 3.609-39.84 20.042-53.5 29 36.847-38.683 96.824-39.099 145.5-26 5.967 1.606 32.557 17.087 33.5 15.5 3.219-5.417-37.076-18.46-41.5-19.5-52.978-12.458-85.804-8.362-130.5 21 .534-4.081 4.993-5.231 8-7 17.36-10.215 34.457-21.227 54.5-25l-2 3c40.178-.745 82.28 3.347 117 26 3.147-.098.118-3.266-.5-4m-41.5 1c-1.626 2.418.42 3.134 2 4 1.171.642 19.9 8.69 21 9 1.213.341 1.553 2.257 3.5-.5-7.232-7.304-17.086-9.388-26.5-12.5m7 17c1.573 2.673 20.368 15.132 21.5 14.5 4.961-2.769-18.929-14.748-21.5-14.5"/><path fill="#027ba6" d="M434 323c-3.007 1.769-7.466 2.919-8 7-11.75 7.719-31.928 19.433-35 33-2.087 2.658-7.368 13.965-8 14.5-2.634 2.232-3.817-.674-6 1-1.509 1.157-7.163 17.256-9 20.5-1.367 2.416 2.013 3.622-5 2 1.084-3.12 3.059-6.266 4-9.5-3.032-.901-4.079 6.363-5 8.5-7.429-2.406 8.581-22.907 8-24.5-1.434-.533-2.602-.755-4-1.5 10.338-16.152 24.425-33.516 39-46 16.948-11.869 36.834-19.2 55.5-28l-49 28 50-24zm-14.5 5c-8.574 4.86-15.827 11.332-22.5 18.5l13-9z"/><path fill="#04698d" d="M419 339c-14.189 9.305-16.919 9.887-28 24 3.072-13.567 23.25-25.281 35-33 44.696-29.362 77.522-33.458 130.5-21 4.424 1.04 44.719 14.083 41.5 19.5-.943 1.587-27.533-13.894-33.5-15.5-48.676-13.099-108.653-12.683-145.5 26"/><path fill="#04698d" d="M499 309c-26.794.377-34.509 5.938-56 18-9.863 5.535-19.61 10.918-28.5 18-2.424-.789 3.724-5.185 4.5-6 13.66-8.958 38.324-25.391 53.5-29 24.946-5.933 102.22.581 121 19 1.348 1.322 3.553 2.272 1 4-8.061-5.49-16.553-11.125-26-14-15.992-4.867-52.979-10.233-69.5-10"/><path fill="#02bee1" d="M499 309v3c-1.449-.043-7.003-2.973-5.5 1l10 2-13.5 1c-2.273.199-9.836.396-10.5 3 6.829-.095 13.684.13 20.5 0v1c-4.126.147-13.919-.484-15 3l-11.5 1c-1.449 3.537 2.031.99 3.5 1v2c-12.325 1.654-23.474 11.999-35 13 1.292-.98 4.791-2.863 3.5-5-2.447.848-4.754 4.035-6.5 5-.956-3.699 4.615-6.403 8-9l14-7.5c-5.3.41-10.021 4.447-14 7.5l-2-.5 1.5-3.5H443c21.491-12.062 29.206-17.623 56-18m-10.5 2c-1.456-.002-22.765 4.373-22.5 5.5l25.5-3.5c1.593-2.666-1.478-1.998-3-2m-25 6c-.191-.099-3.889 1.359-3.5 2.5 1.186.408 5.924-1.246 3.5-2.5m10 0c-1 .139-12.149 3.793-11.5 5.5 5.098-1.296 11.522-2.639 15.5-5.5-1.306.12-2.711-.179-4 0m-9 7c-1.047.099-15.964 9.251-17.5 11.5 7.389-1.995 13.275-7.903 20-11-.298-.753-1.697-.576-2.5-.5"/><path fill="#0294c0" d="M579 310c4.88 1.441 20.968 9.401 24 13-8.217-4.793-18.859-8.727-27.5-13-.443-2.459 2.841-.195 3.5 0"/><path fill="#0a5c8d" d="M488.5 311c1.522.002 4.593-.666 3 2l-25.5 3.5c-.265-1.127 21.044-5.502 22.5-5.5"/><path fill="#046e93" d="M499 312c22.345.665 70.764 4.988 88.5 18 .347.254 7.416 5.96 5 7-11.437-8.905-27.214-15.242-41.5-18-12.154-2.347-25.601-2.74-38-3-6.685-.14-16.592-.562-23 0l13.5-1-10-2c-1.503-3.973 4.051-1.043 5.5-1"/><path fill="#4c9abc" d="M828 364c2.101 5.695 4.121 11.209 6 17 .76 2.341 1.269 4.651 2 7-5.349-.233-2.699 7.568-6 5-5.845-21.201-28.668-38.446-45.5-52-13.275-10.689-27.851-19.83-41.5-30 16.27 8.82 33.565 15.518 48.5 27 11.603 8.92 21.218 26.287 36.5 26"/><path fill="#07fbfe" d="M490 316c6.408-.562 16.315-.14 23 0v2c-4.796-.124-8.868.921-13 1-6.816.13-13.671-.095-20.5 0 .664-2.604 8.227-2.801 10.5-3"/><path fill="#01acd4" d="m551 319 7.5 6h-16c2.528 5.944-1.715.361-2.5 5-2.968-.569-5.34-.597-8-1-.247-.037-4.101-2.757-5 0-.648-.069-1.343.02-2 0-1.226-.038-2.692.017-3 0-6.529-.353-11.274-2.56-16-3-1.983-2.832.693-2.015 2.5-2 6.347.054 12.812.547 19 2 2.042-4.505-2.267-2.493-4.5-3v-3c5.941.277 10.85 2.319 16.5 3 .698.084.297-2.063 1-2 .379.034 4.4 3.329 7 3 2.794-.353 1.2-2.435 0-3-4.588-2.159-28.025-2.833-34.5-3v-2c12.399.26 25.846.653 38 3"/><path fill="#06739c" d="M463.5 317c2.424 1.254-2.314 2.908-3.5 2.5-.389-1.141 3.309-2.599 3.5-2.5"/><path fill="#0581a5" d="M473.5 317c1.289-.179 2.694.12 4 0-3.978 2.861-10.402 4.204-15.5 5.5-.649-1.707 10.5-5.361 11.5-5.5"/><path fill="#087099" d="M513 318c6.475.167 29.912.841 34.5 3 1.2.565 2.794 2.647 0 3-2.6.329-6.621-2.966-7-3-.703-.063-.302 2.084-1 2-5.65-.681-10.559-2.723-16.5-3-7.285-.339-15.69-.261-23 0v-1c4.132-.079 8.204-1.124 13-1"/><path fill="#06effc" d="M500 320c7.31-.261 15.715-.339 23 0v3c-12.585-2.857-25.348 1.22-38 0 1.081-3.484 10.874-2.853 15-3"/><path fill="#07739a" d="M523 323c2.233.507 6.542-1.505 4.5 3-6.188-1.453-12.653-1.946-19-2-1.807-.015-4.483-.832-2.5 2-9.822-.915-19.159-.933-29-1-1.469-.01-4.949 2.537-3.5-1l11.5-1c12.652 1.22 25.415-2.857 38 0"/><path fill="#056282" d="M447 331c3.979-3.053 8.7-7.09 14-7.5z"/><path fill="#037aa3" d="M464.5 324c.803-.076 2.202-.253 2.5.5-6.725 3.097-12.611 9.005-20 11 1.536-2.249 16.453-11.401 17.5-11.5"/><path fill="#037ca2" d="M561.5 324c9.414 3.112 19.268 5.196 26.5 12.5-1.947 2.757-2.287.841-3.5.5-1.1-.31-19.829-8.358-21-9-1.58-.866-3.626-1.582-2-4"/><path fill="#04f2fd" d="M506 326c4.726.44 9.471 2.647 16 3h3c.657.02 1.352-.069 2 0 1.625.174 3.362-.117 5 0 2.66.403 5.032.431 8 1 .622.119 1.354-.056 2 0-.103-.001.31 2.01-.5 2-5.444-.066-12.067.177-17 0-16.146-.58-30.794-7.241-47.5-5v-2c9.841.067 19.178.085 29 1"/><path fill="#0287b4" d="M447 331c-3.385 2.597-8.956 5.301-8 9-25.099 13.875-34.317 26.676-50 50.5l-4.5 12.5c9.929-15.92 22.353-39.149 37-51 5.982-4.84 14.821-7.694 20.5-12 11.526-1.001 22.675-11.346 35-13 16.706-2.241 31.354 4.42 47.5 5 4.933.177 11.556-.066 17 0 .81.01.397-2.001.5-2 2.345.022 4.547-.075 7 0 2.053.063 4.115 1.508 6 2 .621.162 1.521-1.556 3.5-1l4 4c-4.994-2.92-10.901-.903-16.5-1-14.624-.254-29.396-2.145-44-2-18.699-7.755-34.54-.905-51 8-18.938 10.246-19.827 15.56-33 31l-18 16.5c-1.347 2.23-2.684 4.232-4 6.5-1.63 2.809-5.559 7.155-3 10-1.345 2.973-1.381 3.717-1 7 .281 2.426-2.751 2.974 3 4-1.606 3.762-1.932 6.544-3 10-1.406 4.549.461 9.954-6 11 .056-1.639 2.522-3.066 0-6-1.625-1.891-2.155-.092-4 .5-.724 8.248-1.204 16.729-2 25-.08.829-5.055 5.829 1 8.5-.24 8.047.719 18.042 2 26 .539 3.347 1.337 4.083 2 7-1.212 2.664.199 12.073-4.5 12-4.418-.069-2.13-6.102-2.5-7.5-6.536-24.696-3.316-53.441.5-78.5l-4.5 13.5c-1.715 19.618-2.951 39.344 0 59-1.953 1.955-2.952-5.148-3-5.5-3.072-22.545-.646-47.607 5-69.5-6.639 9.657-7.55 26.74-8 38.5h-3c.324-8.647 3.793-26.796 3-33-.273-2.138 1.01-4.46-2-4 1.437-5.582 8.896-22.821 2-23 1.837-3.244 7.491-19.343 9-20.5 2.183-1.674 3.366 1.232 6-1 .632-.535 5.913-11.842 8-14.5 11.081-14.113 13.811-14.695 28-24-.776.815-6.924 5.211-4.5 6 8.89-7.082 18.637-12.465 28.5-18h3.5l-1.5 3.5zm-6.5-1c-20.172 12.718-44.355 26.403-53.5 49.5l22.5-26.5zm-55 51-9 25c2.713-6.044 7.862-15.422 9.5-21.5.395-1.465 2.227-3.492-.5-3.5"/><path fill="#05688b" d="M405 328c-14.575 12.484-28.662 29.848-39 46-.091-.048-1.73 3.855-2 .5 2.979-4.238 5.035-9.295 8-13.5 8.335-11.822 21.29-24.799 33-33"/><path fill="#046a8b" d="m419.5 328-9.5 9.5-13 9c6.673-7.168 13.926-13.64 22.5-18.5"/><path fill="#086594" d="M525 329h-3c.308.017 1.774-.038 3 0"/><path fill="#076697" d="M532 329c-1.638-.117-3.375.174-5 0 .899-2.757 4.753-.037 5 0"/><path fill="#00aad6" d="M555 332c-1.885-.492-3.947-1.937-6-2 1.607-2.684 7.076-1.775 6 2"/><path fill="#d6fdfd" d="M502 332c2.982 1.237 10.692 6.627 13 9 .523.538 1.873 1.837 2 2 .097.125-.117 1.177 1 3 .88 1.437 1.346.588 2 2 6.665 14.391 5.125 27.95-1 42-10.939 25.094-43.054 44.036-70 33-7.541-3.088-16.974-13.733-20-21-.513-1.231-2.932-6.537-3-7-.094-.638.063-1.351 0-2-.207-2.147-.096-4.811 0-7 .813-18.58 12.414-33.517 25-46 16.46-8.905 32.301-15.755 51-8"/><path fill="#047197" d="m440.5 330-31 23-22.5 26.5c9.145-23.097 33.328-36.782 53.5-49.5"/><path fill="#05dbf3" d="M546 334c6.723 3.237 13.365 6.587 20 10l-1 1c-9.622-5.174-20.924-9.645-32-9.5 13.235 4.029 27.642 6.492 38 16.5-.769-.037-1.101.209-1 1-10.061-3.579-19.599-8.567-30.5-9-1.624 1.706.479 1.899.5 2 .194.926-.115 2.04 0 3-6.253-1.894-15.403-2.939-22-3-1.117-1.823-.903-2.875-1-3l20.5 1-22.5-3c-2.308-2.373-10.018-7.763-13-9 14.604-.145 29.376 1.746 44 2m10 11c1.198.531 2.828 3.339 5 1.5-1.447-1.385-3.424-1.113-5-1.5-8.446-3.741-17.573-7.351-27-6.5 8.822 2.856 18.035 4.297 27 6.5"/><path fill="#057192" d="M442 340c-5.679 4.306-14.518 7.16-20.5 12-14.647 11.851-27.071 35.08-37 51l4.5-12.5c15.683-23.824 24.901-36.625 50-50.5 1.746-.965 4.053-4.152 6.5-5 1.291 2.137-2.208 4.02-3.5 5"/><path fill="#088bbe" d="M565 345c3.308 1.779 6.419 4.147 10 5.5-1.958 3.592-1.098 1.641-4 1.5-10.358-10.008-24.765-12.471-38-16.5 11.076-.145 22.378 4.326 32 9.5"/><path fill="#0888be" d="M556 345c-8.965-2.203-18.178-3.644-27-6.5 9.427-.851 18.554 2.759 27 6.5"/><path fill="#0294c4" d="M451 340c-12.586 12.483-24.187 27.42-25 46-5.105 6.656-13.342 13.402-18 20-7.345 3.111-13.999 18.376-13 26-1.132 4.162-2.473 10.763-3 15-3.475 6.849-2.569 18.553-2 26h-3c-.4-11.056.806-22.144 1-32.5l-3 14c-.439 10.009.288 19.669 2 29.5h-3c-.281-17.832 1.415-31.024 2-48 6.461-1.046 4.594-6.451 6-11 5.436-10.153 10.017-20.72 17-30 .852-1.132 1.775-2.723 2-3 .245-.302 3.535-3.368 5-5 .928-.836 6.937-2.499 5.5-6-2.119 1.744-3.697 3.991-5.5 6-1.9 1.71-3.268 3.151-5 5-1.598 1.706-1.784 2.751-2 3-6.302 7.267-10.077 10.809-14 20-5.751-1.026-2.719-1.574-3-4 1.9-5.222 4.837-10.487 8-15 4.437-4.852 9.532-8.985 14-14 .629-.482 4.274-.715 4-3.5-2.057-1.757-3.633 3.088-4 3.5-6.048 4.633-9.571 7.68-14 14-2.752 3.01-5.049 3.687-7 8-2.559-2.845 1.37-7.191 3-10 8.539-6.665 15.238-15.074 22-23 13.173-15.44 14.062-20.754 33-31"/><path fill="#0c5262" d="M684 367c11.243 19.368 21.55 46.621 24 69 7.4 67.579-18.936 138.337-73 180-67.793 52.242-165.004 53.998-236 7-1.989-1.317-4.068-2.606-6-4 .529-5.843 6.375-10.652 10-15 7.454 5.358 15.817 9.844 24 14 31.72 16.111 66.297 23.025 102 20 42.142-3.571 80.43-22.415 110-52 22.274-22.286 38.996-49.18 47-80 6.023-23.192 7.277-40.104 4-64-1.096-7.994-2.89-16.231-5-24-2.678-9.86-6.823-19.679-11-29-5.995-13.379-12.877-25.513-22-37l12-12c6.442 7.989 14.922 18.252 20 27"/><path fill="#0782b2" d="M517 343c-.127-.163-1.477-1.462-2-2l22.5 3z"/><path fill="#01a9d8" d="M568.5 341c2.571-.248 26.461 11.731 21.5 14.5-1.132.632-19.927-11.827-21.5-14.5"/><path fill="#03769a" d="M372 361c-2.965 4.205-5.021 9.262-8 13.5.27 3.355 1.909-.548 2-.5 1.398.745 2.566.967 4 1.5.581 1.593-15.429 22.094-8 24.5-2.763 6.409-4.965 12.823-7 19.5l-4 26c3.679-5.503 3.51-14.038 5-20.5.426.111 1.944.903 2 1l-3 19.5c2.575-2.413 2.661-8.984 3-12.5l5 3.5c1.081-4.862 1.76-9.686 3-14.5 3.01-.46 1.727 1.862 2 4-7.041 17.073-4.503 36.593-4 54.5 2.02-6.898.735-14.424 1-21.5h3c-.367 9.587-.973 22.23 3 31 .048.352 1.047 7.455 3 5.5-2.951-19.656-1.715-39.382 0-59l4.5-13.5c-3.816 25.059-7.036 53.804-.5 78.5.37 1.398-1.918 7.431 2.5 7.5 4.699.073 3.288-9.336 4.5-12 .776 3.415 1.761 12.838 2 13.5.32.886 2.018-1.437 3 1 7.784 19.321 18.086 34.738 34 48.5l-4-.5c7.04 6.723 16.319 10.421 24.5 15.5 2.983 1.852.192 3.814.5 4-4.658-2.492-6.468-8.599-14-6.5 10.718 7.949 22.616 13.197 35 18-8.043.613-15.612-5.07-22.5-8.5-3.171.181 2.785 3.873 3 4 10.481 6.18 23.532 7.485 34.5 12.5-13.121-.665-26.315-7.67-38.5-12.5l12.5 7.5-10-2 9 5c-3.314 1.195.673 2.529-4 2.5-2.779-2.033-5.026-2.611-8-4-.714-.45-2.833-4.125-5-2.5 1.124 1.91 3.551 1.824 5 2.5 2.815 1.773 3.42 3.971 8 4 1.505 1.101 4.014 1.057 3.5 3l-10.5-2.5c-.708 2.626 30.044 8.556 32.5 11.5-4.922 1.374-36.564-11.441-37.5-9.5l49 15-49.5-12.5 34.5 14.5-30-9.5c-3.77-1.538-9.954-4.882-13.5-6-.59-.186-6.06 5.204-8.5-4.5.656-1.289 3.647.245 5 .5 3.286 1.962 6.539 5.458 11 4.5-3.623-1.663-7.001-3.747-11-4.5-1.983-1.184-3.013-2.514-6-4-.158-.079-1.313-3.361-3-1.5l3 1.5c-3.393.021-5.55 7.214-7.5 7-3.268-.359-8.901-7.042-11-8-.425-.194-5.731 3.033-8-2l-.5 2c-77.156-66.147-81.781-175.821-14-251 3.758 5.583-7.806 13.132-11 18.5zm-18 30c-10.361 21.984-18.361 45.973-15.5 71 .816-25.42 6.827-47.425 15.5-71 2.158-4.579 5.502-8.847 6.5-14-4.098 3.474-4.788 9.345-6.5 14m6.5-9-6.5 13.5-3.5 14.5zm-12 31c-8.524 32.545-11.09 67.5-1 100-2.739-20.522-5.947-40.615-4.5-61.5.891-12.866 6.194-26.184 5.5-38.5m2 40c-1.126 16.437-1.16 33.026 3 49zm4 4c-1.505 0-.97 27.879 1 30 .615-9.987-.76-20.016-1-30M426 586c.695.432 2.84 4.133 5 2.5-.996-1.928-3.858-1.848-5-2.5-.695-.432-2.84-4.133-5-2.5.996 1.928 3.858 1.848 5 2.5"/><path fill="#068abc" d="m570 353 13.5 11c-13.103-8.871-27.36-16.633-43.5-18-.021-.101-2.124-.294-.5-2 10.901.433 20.439 5.421 30.5 9"/><path fill="#03c4ed" d="M627 399c2.329 4.464 3.739 9.686 6.5 14 .51-5.641-3.837-9.789-6.5-14-3.905-7.485-8.08-15.655-13-22.5-.944-1.313-14.163-12.118-8.5-12.5 3.952 1.138 13.87 16.911 15 17 7.709.608-17.392-20.142-16-23 20.08 15.35 35.036 41.075 43 65l.5-5.5c-5.918-19.014-18.558-33.418-29-50 .774-.73 1.187-1.701 2.5-1.5 2.585.396 25.438 38.835 26 45l-1.5-9.5-15-26 4.5 2.5-1-6c4.892 1.489 4.418 7.709 8 2l16 25-1.5-11c.285.348 3.547 2.912 4 3 1.388.269.575-2.164 2-2 .137.772 6.13 12.603 8 13.5l-7-18.5c2.073-1.261 3.097 1.22 4 2.5 4.03 5.715 14.251 34.489 16 42 .149.64-2.138.357-2 1 .084.394 3.508 3.176 4 7 .51 3.967-1.012 7.844-1 10.5-.661-12.955-10.038-29.948-12.5-43l10.5 46.5c2.732 1.668 2.07-2.136 2-3.5.069 15.48-2.541 31.029 0 46.5v-26l5-25.5c3.277 23.896 2.023 40.808-4 64l-5-1v-19.5l-3 33.5c-.303.566.159 2.254-1.5 3l-2.5-3-2-.5c.527 2.61-1.057 4.375-2 6.5-5.144 5.278-8.468 13.479-12 20-4.501 3.287-10.515 13.68-11 19-.105 1.149-.545 3.815 1 4-1.084 1.868-2.56 3.83-3 6-.856 1.053-1.554 2.378-3 4-3.574 4.01-8.582 7.23-12 11.5 2.398.416 6.493-3.941 8-5.5l1 2c-29.57 29.585-67.858 48.429-110 52 2.869-12.411-16.985-1.507-22-8 6.743.979 13.739.958 20.5 0 35.466-5.027 48.825-11.417 76.5-32 4.253-2.983 7.751-4.324 12-8 37.688-30.813 65.332-86.923 61-136.5-.213-2.434-4.201-24.006-5-25-5.906-7.349 5.372 26.29-.5 20.5-.741-.731-3.599-22.88-2.5-7.5-2.97 5.95-4.228-13.877-7-14 1.191 19.007 9.066 40.597 0 58.5-.078-2.636-.203-7.294-3-6 4.006-34.81 4.3-66.108-17-95.5-.171-.236-4.584-6.578-5-3 10.754 15.328 20.234 33.042 22 52 .37 3.973.779 34.377 0 36-.389.81-2.349.806-3 0-.665-1.313 4.386-25.953-2-28.5-.396-2.718 1.823-10.891-3-8.5v49c-2.656-7.896 1.05-15.94 0-24-.216-1.658-.84-6.688-4-5.5-.329-6.053.836-13.854 0-19.5-2.558-17.285-14.986-37.204-24.5-51.5 4.418 13.296 15.363 26.472 19.5 41l-2 1c-.456-1.152-2.548-2.731-2.5-5-.919.829-1.449 1.121-1.5 2.5-.024.648 3.77 12.061 6 11.5 1.218 7.218.803 13.782 1 21-1.012 5.745-1.661 12.212-2 18l-10 37.5c-5.852 10.842-11.235 22.11-20 31 2.398 1.648 4.613-2.504 6-4 2.183-2.354 7.387-8.851 9-11.5h1c-2.156 4.427-3.809 9.112-6 13.5-1.471 2.946-6.871 6.071-5 8.5.529 4.913 3.038-1.722 4-3 5.983-4.491 8.767-10.05 12-17 .997.169 1.127 1.029 2 1-1.411 3.217-4.481 7.67-4 11-2.612 4.108-6.866 8.17-10 12-1.925-2.145-2.882 2.824-3 3-.496.737-2.335 3.147-3 4-1.661.605-4.838 1.207-3.5 4 1.435-1.138 2.395-2.584 3.5-4 1.578-.575 1.086-1.315 3 0-27.365 31.41-60.566 48.778-103 50-.769.03-.684-.131-2 0l-1-3c7.577.072 14.963-.417 22.5-1l13-5-17 4c-9.493-.139-19.02.19-28.5 0v-3c7.419 1.028 14.997 1.125 22.5 1l14-4-47.5-1 16-.5c-2.627-3.52-16.121.661-14.5-5.5 8.873 3.035 18.586 1.72 28 2l5-3h-39c-.807-2.835-4.301-2.581-6.5-3-1.369-.261-3.395-.944-4-1 2.892-3.454 10.78 3.323 8.5-3-7.589-2.772-13.169 3.454-20.5-2.5l11-.5c3.679.607 8.614-.439 12.5 0 2.65.299 14.013 4.887 14 1-12.19-3.142-24.288-3.266-36.5-5l1-3c2.881.882 5.721 3.117 9 1.5l-10.5-3.5c-1.428-2.193.298-2.054 2-2 3.739.119 22.313 7.656 30.5 9 11.225 1.842 22.554 3.33 34 .5-10.379-2.478-23.733 1.09-34-.5-4.543-.704-17.897-7.379-23-9 .375-2.233 4.78-2.809 5-3 6.435-.118 14.094 3.668 20 4 21.873 3.121 45.445-1.29 63.5-14l-3.5 6c-.979.674-2.101 1.663-3 2.5 3.748.406 13.641-5.35 15-9.5.246-.145.756.148 1 0 6.879-4.183 15.561-8.174 22-15l2 1c-.166.167.167.835 0 1-1.95 1.838-4.865 4.156-7 6-16.251 13.533-36.222 24.145-57 28.5 5.887 1.209 18.73-3.017 24.5-5.5 12.01-5.168 22.741-14.574 32.5-23 2.806-2.337 4.138-3.186 7-6 5.581-5.259 13.975-10.93 15-19 15.184-28.932 13.36-74.052 2-104-.379-.998-.715-2.315-1-3-2.481-14.795-12.718-29.422-25-38.5 1.244-.779 9.772 5.948 6.5 1.5-6.268-8.521-41.602-24.7-52.5-28-.115-.96.194-2.074 0-3 16.14 1.367 30.397 9.129 43.5 18L570 353c-.101-.791.231-1.037 1-1 2.902.141 2.042 2.092 4-1.5-3.581-1.353-6.692-3.721-10-5.5l1-1c29.858 15.359 42.934 26.435 61 55m-24-19c9.076 13.957 15.237 29.039 22.5 44-3.646-15.527-12.052-32.013-22.5-44-1.358-2.088-2.582-4.328-4.5-6-1.641 3.145 4.234 5.695 4.5 6m50.5 16 8 20c1.254-.414-5.24-19.077-8-20m-31 33c-.893 7.728 2.809 14.698 2.5 22.5-.036.91-2.963.09-3 1-1.007 24.495 1.275 43.958-9.5 67.5 16.021-25.435 24.631-62.886 10-91m5 1 5 41c3.845-3.365-.688-43.385-5-41m8 23c1.575 31.327-10.094 59.819-26 86 20.106-23.355 32.698-54.859 26-86m-5 23-13 42c2.343.882 18.51-37.572 13-42m-26 60c-19.834 19.898-40.243 35.818-68.5 41.5l21.5-4.5 21-11zm-2 8c-2.797 3.381-7.146 5.892-9 10 3.001-1.87 8.829-6.072 9-10m5 5-11 13c2.726-1.191 5.587-4.272 7.5-6.5.24-.28 5.689-6.277 3.5-6.5m-9.5 17c-14.638 11.565-30.974 19.983-48 27.5 18.636-4.661 34.186-14.803 48-27.5 5.424-4.285 12.986-9.088 15.5-16-5.622 4.767-10.128 11.062-15.5 16m0-10c-4.782 3.597-9.317 7.519-14 11-10.634 6.987-22.166 11.478-34 16-3.746 1.431-8.144 2.28-12 3.5 2.836 3.723 11.375-3.301 12-3.5 5.791-1.846 12.759-2.341 18.5-5 5.955-2.737 10.419-7.223 15.5-11 5.372-3.529 9.526-6.26 14-11 1.288-.969 4.819-2.782 3.5-5-1.969.548-3.223 4.707-3.5 5m-7.5-1c-21.045 21.032-54.575 30.128-84 29-6.276-.241-13.683-2.144-20-3-5.786 2.753 10.829 5.859 12 6 24.085 2.894 68.828-8.875 87-25 .641-.568 7.273-5.76 5-7m-38 8c-10.264 7-22.788 6.851-34.5 9.5 8.349 1.999 16.267-1.716 24.5-2.5.922-2.408 13.351-3.447 10-7m40 1c-.179.024-2.869 2.271-2 3 2.056-.148 4.856-3.386 2-3m-111 2c10.304 7.147 23.035 9.357 35.5 7.5-13.229-1.332-23.222-3.636-35.5-7.5m121.5 2c-.119.118-2.436-.056-3 1.5 1.781 1.809 2.547-1.174 3-1.5.211-.21 2.67-.953 1.5-2-2.095-.471-1.363 1.902-1.5 2m40.5-1L599 608.5c2.763 1.692 4.517-2.639 2.5 3.5l10-8-6.5 2.5 31-27c.918-3.714 9.613-8.559 7.5-12.5m-61.5 6c-.748.538-2.133 1.424-3 2-22.368 10.86-45.608 20.382-71 19.5l14.5 1.5c20.152-3.248 39.557-9.749 56.5-21 2.049.789 2.613-1.758 3-2 1.715-1.233 5.598-1.944 7-4.5-3.545-1.471-5.634 3.646-7 4.5m15 0c-.673.447-3.219.531-4 2.5 2.25 1.359 3.067-1.375 4-2.5.08-.096 1.746-.732 2-1.5-2.373-1.849-1.896 1.431-2 1.5m-8 6c-2.218 1.067-1.763 1.136-3 2-.847.592-2.115 1.424-3 2-11.245 5.878-23.777 9.542-35 15.5 12.808-2.54 24.178-8.465 35-15.5 1.836-.96 2.341-1.625 3-2 1.633-.931 1.27-.518 3-2 .135-.115 2.43.056 3-1.5-1.69-1.856-2.849 1.427-3 1.5m-56.5-1c-1.133-.035-8.815 2.876-11 3-6.626.376-13.043-1.047-19.5-.5 10.627 4.239 21.787 1.288 32.5-.5 1.438-2.298-.338-1.949-2-2m91.5 17c-.378.293-3.363.609-4 2.5 2.08 1.705 3.234-1.893 4-2.5.378-.293 3.363-.609 4-2.5-2.08-1.705-3.234 1.893-4 2.5m-6.5 4c-.179.024-2.869 2.271-2 3 2.056-.148 4.856-3.386 2-3m-24 13L530 632.5c13.75-1.419 30.364-4.993 43.5-9.5 5.595-1.92 17.713-5.71 20-11"/><path fill="#0490c0" d="M540 349c10.898 3.3 46.232 19.479 52.5 28 3.272 4.448-5.256-2.279-6.5-1.5 12.282 9.078 22.519 23.705 25 38.5-13.008-31.284-52.703-66-88-66h-3c-.654-1.412-1.12-.563-2-2 6.597.061 15.747 1.106 22 3"/><path fill="#0888be" d="M556 345c1.576.387 3.553.115 5 1.5-2.172 1.839-3.802-.969-5-1.5"/><path fill="url(#b)" d="M523 348c-2.074 4.627 11.83 5.093 14.5 6 30.614 10.398 57.544 33.657 69.5 64 12.292 31.198 10.155 66.948-7 96-14.74 24.963-43.498 42.455-72 46-8.031.999-18.311 1.224-26.5 1-2.879-.079-19.222-3.646-20-3-.903.75.703 2.342-3.5 6-.22.191-4.625.767-5 3-8.899-2.826-8.693-1.706-17.5-1 2.158 3.053 6.181 3.984 9.5 5l-1 3c-2.58-.366-4.844-1.922-7.5-2 3.691 3.378 12.345 5.15 17.5 6l-11 .5c7.331 5.954 12.911-.272 20.5 2.5 2.28 6.323-5.608-.454-8.5 3-1.374-.126-2.667-.384-4-.5-.838 2.018 6.817 3.931 8 1.5 2.199.419 5.693.165 6.5 3h39l-5 3c-9.414-.28-19.127 1.035-28-2-1.621 6.161 11.873 1.98 14.5 5.5l-16 .5c.323 3.256 7.733 3.547 11 4v3c-2.384-.048-4.09-.961-5-1-6.931-.297-15.82-4.651-13.5 7 6.386.06 14.512-.969 22.5-4 1.968.127 4.022-.019 6 0l1 3c-1.167.116-8.07.735-7 3.5 2.189 1.953 12.049-1.856 11.5 2.5l-13 1c5.575 1.93 11.325 1.116 17.5 1v1c-2.907.323-9.036.41-8 4-6.595.454-7.059-2.12-8.5 5l52.5-3.5-50 8.5c5.015 6.493 24.869-4.411 22 8-35.703 3.025-70.28-3.889-102-20l66.5 16-57-16c.251-9.07 23.924 12.561 20 1l-14-6c6.981.276 16.507 6.01 24 9l17.5 3.5c-14.716-3.807-28.081-10.822-42-16.5l30 9.5-34.5-14.5 49.5 12.5-49-15c.936-1.941 32.578 10.874 37.5 9.5-2.456-2.944-33.208-8.874-32.5-11.5l10.5 2.5c.514-1.943-1.995-1.899-3.5-3 4.673.029.686-1.305 4-2.5l-9-5 10 2-12.5-7.5c12.185 4.83 25.379 11.835 38.5 12.5-10.968-5.015-24.019-6.32-34.5-12.5-.215-.127-6.171-3.819-3-4 6.888 3.43 14.457 9.113 22.5 8.5-12.384-4.803-24.282-10.051-35-18 7.532-2.099 9.342 4.008 14 6.5 5.929 3.173 11.831 7.836 19 7.5.354-1.391-17.686-6.706-19-7.5-.308-.186 2.483-2.148-.5-4-8.181-5.079-17.46-8.777-24.5-15.5l4 .5c4.727 4.088 10.687 9.175 17 10.5-2.651-4.86-21.931-10.992-10-11-6.996-4.389-.833-4.618-1-6-.145-1.202-5.863-1.909-1.5-5.5l7.5 4.5-8-7c1.735-1.758 2.757-7.379 2-9-4.779-10.238-17.4-14.207-21.5-24.5 3.788 6.136-3.704 9.205-6.5 6.5-1.389-1.344-6.109-18.249-7-21.5-2.463-16.525-4.449-29.184-3-46 4.754.903 2.813-9.819 3-10.5 1.228-4.475 8.391-19.563 11-24 4.543-7.724 13.426-17.22 20-23.5.063.649-.094 1.362 0 2-5.025 3.548-7.225 8.835-10 14-4.423 8.234-10.088 19.927-12 29-4.512 6.072-6.957 21.98-7 29.5-.014 2.449-1.177 7.001 2.5 7.5-2.925-4.163 2.412-8.501 2.5-9-1.462 4.732 5.852 1.771 6 1.5.577-1.057 1.121-20.051 2-24 2.085-9.366 5.748-20.925 10-29.5 1.553-3.132 6.098-9.727 9-12 3.026 7.267 12.459 17.912 20 21-12.873 14.15-11.358 48.971-4 65.5 15.536 34.902 67.661 53.776 100 31.5 15.425 1.349 27.255-18.502 20-31 23.915-37.805-2.203-91.06-46-99 6.125-14.05 7.665-27.609 1-42zm-59.5 274c-1.916 3.261 1.832 3.2 4 4 5.619 2.072 15.365 3.508 21.5 3.5z" style="fill:url(#b)"/>/&gt;<path fill="#03caf9" d="M611 414c.285.685.621 2.002 1 3l-5 1c-11.956-30.343-38.886-53.602-69.5-64-2.67-.907-16.574-1.373-14.5-6 35.297 0 74.992 34.716 88 66"/><path fill="#386c7c" d="M825 403c22.621 47.668 18.89 147.099 9 198.5C809.617 728.224 708.843 832.951 584 864c-95.31 23.704-192.5-2.408-269.5-61-6.341-4.825-42.176-35.093-44.5-39.5-3.196-6.06.488-6.212 5-9.5 56.386 52.999 137.02 77.304 214 71 55.554 9.989 86.935-11.662 121-50 2.803-3.154 13.5-16.844 15-18 5.296-4.08 8.246-1.889 10.5-3 1.026-.506.237-2.792.5-3 111.561-88.314 153.108-263.323 134-399.5 15.143 11.518 46.995 34.632 55 51.5"/><path fill="#759cab" d="m712 426-4 10c-2.45-22.379-12.757-49.632-24-69-.336-3.61 3.553-.088 4 .5 11.316 14.888 20.531 40.123 24 58.5"/><path fill="#067ca3" d="M661 391c-.453-.088-3.715-2.652-4-3-2.544-3.104-7.741-14.641-9.5-19z"/><path fill="#057596" d="M418 371c-6.762 7.926-13.461 16.335-22 23 1.316-2.268 2.653-4.27 4-6.5z"/><path fill="#069bd1" d="M603 380c-.266-.305-6.141-2.855-4.5-6 1.918 1.672 3.142 3.912 4.5 6"/><path fill="#066a92" d="M354 391c1.712-4.655 2.402-10.526 6.5-14-.998 5.153-4.342 9.421-6.5 14"/><path fill="#047b9d" d="M414 382c.367-.412 1.943-5.257 4-3.5.274 2.785-3.371 3.018-4 3.5"/><path fill="#069bd1" d="M603 380c10.448 11.987 18.854 28.473 22.5 44-7.263-14.961-13.424-30.043-22.5-44"/><path fill="#079bcc" d="M659 480c-4.506 39.158-30.151 86.443-64 108-16.742 10.662-38.191 19.353-57 22 18.139-5.397 39.483-12.734 55.5-23 22.808-14.619 58.107-63.581 62.5-90.5.734-4.499.903-11.845.5-16.5-10.982 61.909-59.566 117.817-123.5 127-6.774.973-12.601-.248-19 0 42.434-1.222 75.635-18.59 103-50 28.827-33.088 43.525-71.275 37-116 6.386 2.547 1.335 27.187 2 28.5.651.806 2.611.81 3 0 .779-1.623.37-32.027 0-36-1.766-18.958-11.246-36.672-22-52 .416-3.578 4.829 2.764 5 3 21.3 29.392 21.006 60.69 17 95.5"/><path fill="#072b37" d="M187 383c-1.51 4.655-3.629 9.313-5 14-2.468-6.064-3.581-1.645-6-1-3.404.907-6.646 1.97-10 3-29.339 9.007-33.75 18.346-43 47-1.293 4.006-3.021 9.03-4 13-6.242 25.302-8.896 53.199-4 79 2.765 14.572 9.014 27.873 19 39 9.458 10.538 20.858 17.396 35 20 .047.274 1.019-1.419 2 4 .516 2.852-1.039 3.798-1 4-82.557-11.391-73.032-146.216-37-195.5 13.403-18.332 32.136-15.11 50-25.5 1.393-.81 2.011.739 2.5-3z"/><path fill="#08759b" d="M385.5 381c2.727.008.895 2.035.5 3.5-1.638 6.078-6.787 15.456-9.5 21.5z"/><path fill="#06789a" d="M416 387c1.803-2.009 3.381-4.256 5.5-6 1.437 3.501-4.572 5.164-5.5 6"/><path fill="#079dd2" d="M647 452c1.652 30.407-.27 59.693-17 86-.481-3.33 2.589-7.783 4-11 13.413-30.578 17.114-72.993 8-105-4.137-14.528-15.082-27.704-19.5-41 9.514 14.296 21.942 34.215 24.5 51.5.836 5.646-.329 13.447 0 19.5"/><path fill="#086992" d="m360.5 382-10 28 3.5-14.5z"/><path fill="#047b9d" d="M414 382c-4.468 5.015-9.563 9.148-14 14 4.429-6.32 7.952-9.367 14-14"/><path fill="#047da2" d="M663 389c-.254-1.431-.487-4.095 1-5l7 18.5c-1.87-.897-7.863-12.728-8-13.5"/><path fill="#01a2d0" d="M426 393c-6.574 6.28-15.457 15.776-20 23.5-2.609 4.437-9.772 19.525-11 24-.187.681 1.754 11.403-3 10.5.112-1.305-.161-2.708 0-4 .527-4.237 1.868-10.838 3-15 2.504-9.203 7.595-18.343 13-26 4.658-6.598 12.895-13.344 18-20-.096 2.189-.207 4.853 0 7"/><path fill="#06789a" d="M411 392c1.732-1.849 3.1-3.29 5-5-1.465 1.632-4.755 4.698-5 5"/><path fill="#fcfdfe" d="M251.5 388 230 523.5l.5 105.5c-19.733-80.296-7.433-164.611 21-241"/><path fill="#96bfcc" d="M836 388c.96 3.086 3.128 5.969 4 9 1.453 5.048 1.38 10.77 4 15.5-.827 3.623-1.779.24-3-.5-3.517-6.389-7.528-13.265-12-19h1c3.301 2.568.651-5.233 6-5"/><path fill="#01afd9" d="M685 418c-3.721 1.226-2.596.5-4-2.5-1.85-3.952-7.99-19.207-9-23-.839-3.148-1.299-1.858 2-3.5 4.177 9.321 8.322 19.14 11 29"/><path fill="#15102c" d="M565 489c-4.763-8.205-18.53-7.062-25.5-2-12.024 8.732-11.32 31.529 5.5 33-32.339 22.276-84.464 3.402-100-31.5-7.358-16.529-8.873-51.35 4-65.5 26.946 11.036 59.061-7.906 70-33 43.797 7.94 69.915 61.195 46 99"/><path fill="#066a92" d="M354 391c-8.673 23.575-14.684 45.58-15.5 71-2.861-25.027 5.139-49.016 15.5-71"/><path fill="#056d95" d="M363 401c-2.874 8.276-5.024 15.43-7 24-1.49 6.462-1.321 14.997-5 20.5l4-26c2.035-6.677 4.237-13.091 7-19.5.921-2.137 1.968-9.401 5-8.5-.941 3.234-2.916 6.38-4 9.5"/><path fill="#06789a" d="M409 395c.216-.249.402-1.294 2-3-.225.277-1.148 1.868-2 3"/><path fill="#124355" d="M182 397c-1.52 5.195-2.845 10.709-4 16-.339 1.555-1.901 1.654 0 4-18.583 37.241-11.418 143.419-3 185l-4-1c-.981-5.419-1.953-3.726-2-4-11.364-66.901-11.831-135.414 7-201 2.419-.645 3.532-5.064 6 1"/><path fill="#06789a" d="M392 425c1.068-3.456 1.394-6.238 3-10 3.923-9.191 7.698-12.733 14-20-6.983 9.28-11.564 19.847-17 30"/><path fill="#01bde3" d="M429 402c-2.902 2.273-7.447 8.868-9 12l-4-5c2.775-5.165 4.975-10.452 10-14 .068.463 2.487 5.769 3 7"/><path fill="#326e83" d="M176 396c-18.831 65.586-18.364 134.099-7 201-14.142-2.604-25.542-9.462-35-20 3.882-1.334 21.375 15.01 23 8.5-6.058-24.415-6.706-50.389-6-75.5 1.053-37.448 7.32-74.539 15-111 3.354-1.03 6.596-2.093 10-3"/><path fill="#047b9d" d="M392 411c-.381-3.283-.345-4.027 1-7 1.951-4.313 4.248-4.99 7-8-3.163 4.513-6.1 9.778-8 15"/><path fill="#0499c6" d="M653.5 396c2.76.923 9.254 19.586 8 20z"/><path fill="#103f51" d="M847 396c1.107 12.627 5.937 25.06 8 37.5 6.179 37.264 6.931 85.546 4 122-.948 11.795-3.522 23.76-5 35.5-.35-.237-2.807.274-4-1 5.44-35.077 9.5-149.699-10-177-.174-.68.547-1.274 1-1 1.221.74 2.173 4.123 3 .5-2.62-4.73-2.547-10.452-4-15.5 2.03-1.257 4.753-1.325 7-1"/><path fill="#2f697e" d="m857 400 16 123c-.185.064-2.425 2.04-3 2.5.351 19.841-.336 40.156-7 59 6.393 1.696 12.773-.791 18-4.5v5c-4.72 3.019-20.528 10.041-25.5 9-1.573-.329-1.361-2.906-1.5-3 1.478-11.74 4.052-23.705 5-35.5 2.931-36.454 2.179-84.736-4-122-2.063-12.44-6.893-24.873-8-37.5 3.26.472 6.894 3.084 10 4"/><path fill="url(#c)" d="M166 399c-7.68 36.461-13.947 73.552-15 111l-1 12.5c-11.836 1.543-27.055-3.221-33-14.5.067-10.687-.449-44.869 12.5-48 3.147-.761 8.903.78 12 0 11.09-2.792 6.065-18.968 7-27-6.229-.616-9.025 2.661-12.5 7l-2-1c12.242-14.48-5.594-2.706-6 5-.254.208-2.533 3.518-5 2 9.25-28.654 13.661-37.993 43-47" style="fill:url(#c)"/>/&gt;<path fill="#0281ad" d="M366 422c-1.24 4.814-1.919 9.638-3 14.5l-5-3.5c.286-2.967 2.107-3.35 0-7-.056-.097-1.574-.889-2-1 1.976-8.57 4.126-15.724 7-24 7.013 1.622 3.633.416 5-2 6.896.179-.563 17.418-2 23"/><path fill="#0294c0" d="M627 399c2.663 4.211 7.01 8.359 6.5 14-2.761-4.314-4.171-9.536-6.5-14"/><path fill="url(#d)" d="m908 532-5 1c.564-3.394 2.944-26.07 1.5-27-5.425 10.137-12.409 13.845-23 17-2.056.612-6.622-.65-8.5 0l-16-123c49.671 14.647 56.123 87.03 51 132m-33.5-98c-.702.302-4.433 9.711-4.5 10.5-1.275 15.125 16.629 16.268 26.5 22.5 2.331-1.604-11.084-37.703-22-33m12 3 8 11c1.84-.902-4.991-11.47-8-11" style="fill:url(#d)"/>/&gt;<path fill="#84b8c4" d="M840 413c19.5 27.301 15.44 141.923 10 177-6.222 40.121-21.091 76.249-36 113.5-.502 1.254-2.083 3.935 0 4.5-12.66 24.298-22.852 41.302-41 62-.187-3.697-1.453-1.794-3-.5-62.641 52.409-100.822 88.852-185 107.5l-1-13c124.843-31.049 225.617-135.776 250-262.5 9.89-51.401 13.621-150.832-9-198.5l2-2c3.054 3.556 10.547 8.566 13 12"/><path fill="#0492bf" d="M685 447c.07 1.364.732 5.168-2 3.5L672.5 404c2.462 13.052 11.839 30.045 12.5 43"/><path fill="#067aa1" d="M408 406c-5.405 7.657-10.496 16.797-13 26-.999-7.624 5.655-22.889 13-26"/><path fill="#01e0f8" d="M420 414c-4.252 8.575-7.915 20.134-10 29.5-.879 3.949-1.423 22.943-2 24-.148.271-7.462 3.232-6-1.5 1.431-8.155.024-18.623 2-28 1.912-9.073 7.577-20.766 12-29z"/><path fill="#056286" d="M348.5 413c.694 12.316-4.609 25.634-5.5 38.5-1.447 20.885 1.761 40.978 4.5 61.5-10.09-32.5-7.524-67.455 1-100"/><path fill="#03f8fc" d="M612 417c11.36 29.948 13.184 75.068-2 104-2.349 4.477-11.14 14.116-15 18l-2-1c11.94-12.658 23.194-35.868 24-53.5-2.59 12.83-7.364 24.285-14 35.5-6.255.479 1.823-3.423-3-6 17.155-29.052 19.292-64.802 7-96z"/><path fill="#04a4d7" d="M640 423c.319.805 1.757 7.562 2 9-2.23.561-6.024-10.852-6-11.5.051-1.379.581-1.671 1.5-2.5-.048 2.269 2.044 3.848 2.5 5"/><path fill="#04759d" d="M371 490c-3.973-8.77-3.367-21.413-3-31 .45-11.76 1.361-28.843 8-38.5-5.646 21.893-8.072 46.955-5 69.5"/><path fill="#01e0fe" d="M642 422c9.114 32.007 5.413 74.422-8 105-.873.029-1.003-.831-2-1-1.583-.268-10.228 14.647-12 17-1.332 1-2.554 2.18-4 3-1.871-2.429 3.529-5.554 5-8.5 2.191-4.388 3.844-9.073 6-13.5 14.438-29.645 16.932-36.787 16-71-.197-7.218.218-13.782-1-21-.243-1.438-1.681-8.195-2-9z"/><path fill="#056e96" d="M358 433c-.339 3.516-.425 10.087-3 12.5l3-19.5c2.107 3.65.286 4.033 0 7"/><path fill="#047197" d="M365 459c-.265 7.076 1.02 14.602-1 21.5-.503-17.907-3.041-37.427 4-54.5.793 6.204-2.676 24.353-3 33"/><path fill="#a2c6d0" d="M715 442c4.924 54.518-15.435 115.589-52 156-5.879 6.498-13.221 12.426-20 18-4.154-2.613-6.11 6.529-8 0 54.064-41.663 80.4-112.421 73-180l4-10c.93 4.93 2.563 11.157 3 16"/><path fill="#0896c3" d="M616 590c31.18-26.974 67.092-93.687 59-135.5-.117-.606-1.399-6.024-3.5-4.5 5.554 70.808-45.847 146.548-112.5 169.5 1.112 2.802 8.733.079 10.5-.5 7.876-2.583 26.942-15.699 34.5-21-27.675 20.583-41.034 26.973-76.5 32-6.761.958-13.757.979-20.5 0l50-8.5-52.5 3.5c1.441-7.12 1.905-4.546 8.5-5 1.464-.101 32.888-.763 24.5-5-4.98 2.23-11.26.418-16.5 1v-1c17.212-.324 35.325-3.916 51-11-9.645 6.996-21.623 8.742-33 11.5 10.724 1.997 27.994-4.457 37.5-9.5 35.135-18.64 86.722-78.595 85.5-120 9.066-17.903 1.191-39.493 0-58.5 2.772.123 4.03 19.95 7 14-1.099-15.38 1.759 6.769 2.5 7.5 5.872 5.79-5.406-27.849.5-20.5.799.994 4.787 22.566 5 25 4.332 49.577-23.312 105.687-61 136.5m51.5-147c-.793.942-1.55 11.181 2 9 .411-.253.096-8.87-2-9m0 11c1.768 43.626-22.306 99.036-55 128-25.315 22.427-39.873 25.757-70 36-.993.337-4.71 1.329-3 3 65.693-4.029 131.436-91.123 131.5-153.5.001-1.125-.333-16.119-3.5-13.5"/><path fill="#0e2634" d="M359 629c4.388 1.229 2.073-.135 5-3 18.196 15.237 38.196 26.757 60 36 87.192 36.963 190.776 16.19 254-55 40.641-45.763 60.453-107.709 54-169-.301-2.855-.581-6.202-1-9l6-1c33.278 211.868-219.893 340.375-378 201"/><path fill="#0197c0" d="M386 430c-2.142 11.233-4.657 22.486-5 34-6.055-2.671-1.08-7.671-1-8.5.796-8.271 1.276-16.752 2-25 1.845-.592 2.375-2.391 4-.5"/><path fill="#00e8fd" d="M622.5 429c14.631 28.114 6.021 65.565-10 91 10.775-23.542 8.493-43.005 9.5-67.5.037-.91 2.964-.09 3-1 .309-7.802-3.393-14.772-2.5-22.5m3 24a192.6 192.6 0 0 0 0 31c.388-2.187 1.551-31 0-31"/><path fill="#067095" d="M386 436c-.585 16.976-2.281 30.168-2 48 .026 1.648.717 5.193-1 6-1.281-7.958-2.24-17.953-2-26 .343-11.514 2.858-22.767 5-34 2.522 2.934.056 4.361 0 6"/><path fill="#00dafb" d="M627.5 430c4.312-2.385 8.845 37.635 5 41z"/><path fill="#f6fbfd" d="M134 439c-1.423 1.684-4.254 3.567-6 5 .406-7.706 18.242-19.48 6-5"/><path fill="#02d9fd" d="M654 441c6.525 44.725-8.173 82.912-37 116-1.914-1.315-1.422-.575-3 0 .665-.853 2.504-3.263 3-4 1.588-.308 2.148-1.959 3-3 3.134-3.83 7.388-7.892 10-12 16.73-26.307 18.652-55.593 17-86 3.16-1.188 3.784 3.842 4 5.5 1.05 8.06-2.656 16.104 0 24v-49c4.823-2.391 2.604 5.782 3 8.5"/><path fill="#cce6ec" d="M117 508c-.036 5.688 3.226 26.135 3 27.5-.06.363-4.287 2.35-5 2.5-4.896-25.801-2.242-53.698 4-79 7.045 9.352 12.814-13.775 17-19 3.475-4.339 6.271-7.616 12.5-7-.935 8.032 4.09 24.208-7 27-3.097.78-8.853-.761-12 0-12.949 3.131-12.433 37.313-12.5 48"/><path fill="#dbf1f8" d="M874.5 434c10.916-4.703 24.331 31.396 22 33-9.871-6.232-27.775-7.375-26.5-22.5.067-.789 3.798-10.198 4.5-10.5"/><path fill="#f2fcfc" d="M886.5 437c3.009-.47 9.84 10.098 8 11z"/><path fill="#90b2bd" d="M305 469c.721 17.6 3.742 34.961 8 52 1.246 4.986 11.436 29.89 11 31.5-.182.671-9.669 7.326-11 8.5-18.855-37.76-26.835-75.489-23-118 3.547 4.619.492-2.423 3.5-4 .466-.244 9.894-1.221 10.5-.5-1.475 8.472-1.289 17.435-1 26 .062 1.829-1.009 4.935 2 4.5"/><path fill="#01678d" d="M404 438c-1.976 9.377-.569 19.845-2 28-.088.499-5.425 4.837-2.5 9-3.677-.499-2.514-5.051-2.5-7.5.043-7.52 2.488-23.428 7-29.5"/><path fill="#2a5163" d="M732 438c6.453 61.291-13.359 123.237-54 169-5.098-2.395-12.773-3.851-15-9 36.565-40.411 56.924-101.482 52-156z"/><path fill="#aee0e6" d="M136 440c-4.186 5.225-9.955 28.352-17 19 .979-3.97 2.707-8.994 4-13 2.467 1.518 4.746-1.792 5-2 1.746-1.433 4.577-3.316 6-5z"/><path fill="#06799f" d="M387 473c.209 5.782 1.753 11.686 2 17.5-2.907-1.01-1.662-4.559-2-6.5-1.712-9.831-2.439-19.491-2-29.5l3-14c-.194 10.356-1.4 21.444-1 32.5"/><path fill="#01ccf4" d="M667.5 443c2.096.13 2.411 8.747 2 9-3.55 2.181-2.793-8.058-2-9"/><path fill="#047298" d="M392 451c-1.449 16.816.537 29.475 3 46-2.213-8.071-4.357-15.58-5-24-.569-7.447-1.475-19.151 2-26-.161 1.292.112 2.695 0 4"/><path fill="#02d3f9" d="M616 590c-2.75 2.248-8.335 5.274-12 8-7.558 5.301-26.624 18.417-34.5 21-1.767.579-9.388 3.302-10.5.5 66.653-22.952 118.054-98.692 112.5-169.5 2.101-1.524 3.383 3.894 3.5 4.5 8.092 41.813-27.82 108.526-59 135.5"/><path fill="#03668b" d="m350.5 453 3 49c-4.16-15.974-4.126-32.563-3-49"/><path fill="#0b9ed8" d="M625.5 453c1.551 0 .388 28.813 0 31a192.6 192.6 0 0 1 0-31"/><path fill="#00e5fe" d="M635.5 453c6.698 31.141-5.894 62.645-26 86 15.906-26.181 27.575-54.673 26-86"/><path fill="#089fd9" d="M627 524h-1c10.557-17.335 13.841-33.229 15-53 .339-5.788.988-12.255 2-18 .932 34.213-1.562 41.355-16 71"/><path fill="#03cff6" d="M667.5 454c3.167-2.619 3.501 12.375 3.5 13.5-.064 62.377-65.807 149.471-131.5 153.5-1.71-1.671 2.007-2.663 3-3 30.127-10.243 44.685-13.573 70-36 32.694-28.964 56.768-84.374 55-128"/><path fill="#067095" d="M354.5 457c.24 9.984 1.615 20.013 1 30-1.97-2.121-2.505-30-1-30"/><path fill="#00e6fd" d="M641 471c-1.159 19.771-4.443 35.665-15 53-1.613 2.649-6.817 9.146-9 11.5-1.387 1.496-3.602 5.648-6 4 8.765-8.89 14.148-20.158 20-31z"/><path fill="#048baf" d="M390 473c.643 8.42 2.787 15.929 5 24 .891 3.251 5.611 20.156 7 21.5 2.796 2.705 10.288-.364 6.5-6.5 4.1 10.293 16.721 14.262 21.5 24.5.757 1.621-.265 7.242-2 9l8 7-7.5-4.5c-4.363 3.591 1.355 4.298 1.5 5.5.167 1.382-5.996 1.611 1 6-11.931.008 7.349 6.14 10 11-6.313-1.325-12.273-6.412-17-10.5-15.914-13.762-26.216-29.179-34-48.5-.982-2.437-2.68-.114-3-1-.239-.662-1.224-10.085-2-13.5-.663-2.917-1.461-3.653-2-7 1.717-.807 1.026-4.352 1-6h3c.338 1.941-.907 5.49 2 6.5-.247-5.814-1.791-11.718-2-17.5z"/><path fill="#00effe" d="M630.5 476c5.51 4.428-10.657 42.882-13 42z"/><path fill="#03d4f7" d="M538 610c-.64.09-1.355-.076-2 0-.972.114-2.02-.086-3 0v-3c63.934-9.183 112.518-65.091 123.5-127 .403 4.655.234 12.001-.5 16.5-4.393 26.919-39.692 75.881-62.5 90.5-16.017 10.266-37.361 17.603-55.5 23"/><path fill="#03d8fd" d="M662 486c1.222 41.405-50.365 101.36-85.5 120-9.506 5.043-26.776 11.497-37.5 9.5 11.377-2.758 23.355-4.504 33-11.5 7.427-3.356 18.523-9.621 23-16 33.849-21.557 59.494-68.842 64-108 2.797-1.294 2.922 3.364 3 6"/><path fill="#fdfefe" d="M565 489c7.255 12.498-4.575 32.349-20 31-16.82-1.471-17.524-24.268-5.5-33 6.97-5.062 20.737-6.205 25.5 2"/><path fill="#03a3c5" d="M593 538c-6.439 6.826-15.121 10.817-22 15 13.904-8.893 23.65-18.889 32-33 6.636-11.215 11.41-22.67 14-35.5-.806 17.632-12.06 40.842-24 53.5"/><path fill="#0c91c4" d="M681 505c-.328 4.647-.767 9.822-3 14l3-33.5z"/><path fill="#06d9fd" d="M686 506c-8.004 30.82-24.726 57.714-47 80l-1-2c1.372-1.419 3.857-3.958 4-6 1.446-1.622 2.144-2.947 3-4 13.226-16.268 23.271-34.729 29-55l2.5 3c1.659-.746 1.197-2.434 1.5-3 2.233-4.178 2.672-9.353 3-14z"/><path fill="#274457" d="M903 533c-2.255 13.571-10.481 38.827-22 47-5.227 3.709-11.607 6.196-18 4.5 6.664-18.844 7.351-39.159 7-59 .575-.46 2.815-2.436 3-2.5 1.878-.65 6.444.612 8.5 0 10.591-3.155 17.575-6.863 23-17 1.444.93-.936 23.606-1.5 27"/><path fill="#294659" d="M151 510c-.706 25.111-.058 51.085 6 75.5-1.625 6.51-19.118-9.834-23-8.5-9.986-11.127-16.235-24.428-19-39 .713-.15 4.94-2.137 5-2.5.226-1.365-3.036-21.812-3-27.5 5.945 11.279 21.164 16.043 33 14.5z"/><path fill="#02e5fb" d="M603 520c-8.35 14.111-18.096 24.107-32 33-.244.148-.754-.145-1 0-3.357 1.978-9.168 5.05-12 7l3.5-6c-18.055 12.71-41.627 17.121-63.5 14 11.145.626 24.759-.756 35-4.5l-5-3.5c28.502-3.545 57.26-21.037 72-46 4.823 2.577-3.255 6.479 3 6"/><path fill="#0995c3" d="M674 519c-5.729 20.271-15.774 38.732-29 55 .44-2.17 1.916-4.132 3-6 9.458-16.293 14.328-25.716 22-43 .943-2.125 2.527-3.89 2-6.5z"/><path fill="#537c8d" d="M322 520c7.225 24.861 19.334 47.288 36 67l-9.5 9c-8.642-9.157-8.772-24.45-24.5-15-4.575-6.985-7.321-12.633-11-20 1.331-1.174 10.818-7.829 11-8.5.436-1.61-9.754-26.514-11-31.5 3.785-1.49 4.695-2.905 9-1"/><path fill="#0693c0" d="M595 540c.167-.165-.166-.833 0-1 3.86-3.884 12.651-13.523 15-18-1.025 8.07-9.419 13.741-15 19"/><path fill="#0897c8" d="M632 526c-3.233 6.95-6.017 12.509-12 17 1.772-2.353 10.417-17.268 12-17"/><path fill="#01dafd" d="M670 525c-7.672 17.284-12.542 26.707-22 43-1.545-.185-1.105-2.851-1-4 4.318-5.924 7.523-12.581 11-19 3.532-6.521 6.856-14.722 12-20"/><path fill="#527c8d" d="M908 532c-2.258 19.819-9.287 41.672-27 53v-5c11.519-8.173 19.745-33.429 22-47z"/><path fill="#068fb7" d="m604.5 536-26 26-21 11-21.5 4.5c28.257-5.682 48.666-21.602 68.5-41.5"/><path fill="#0693c0" d="M595 540c-2.862 2.814-4.194 3.663-7 6 2.135-1.844 5.05-4.162 7-6"/><path fill="#0897c8" d="M616 546c1.446-.82 2.668-2 4-3-.962 1.278-3.471 7.913-4 3"/><path fill="#068bb3" d="M602.5 544c-.171 3.928-5.999 8.13-9 10 1.854-4.108 6.203-6.619 9-10"/><path fill="#0b99c7" d="M658 545c-3.477 6.419-6.682 13.076-11 19 .485-5.32 6.499-15.713 11-19"/><path fill="#0693c0" d="M588 546c-9.759 8.426-20.49 17.832-32.5 23-5.77 2.483-18.613 6.709-24.5 5.5 20.778-4.355 40.749-14.967 57-28.5"/><path fill="#0790bd" d="M607.5 549c2.189.223-3.26 6.22-3.5 6.5-1.913 2.228-4.774 5.309-7.5 6.5z"/><path fill="#0896c7" d="M620 550c-.852 1.041-1.412 2.692-3 3 .118-.176 1.075-5.145 3-3"/><path fill="#0897c8" d="M598 566c5.372-4.938 9.878-11.233 15.5-16-2.514 6.912-10.076 11.715-15.5 16"/><path fill="#0791c1" d="M598 556c.277-.293 1.531-4.452 3.5-5 1.319 2.218-2.212 4.031-3.5 5"/><path fill="#068ab1" d="M558 560c2.832-1.95 8.643-5.022 12-7-1.359 4.15-11.252 9.906-15 9.5.899-.837 2.021-1.826 3-2.5"/><path fill="#068bb3" d="M590.5 555c2.273 1.24-4.359 6.432-5 7-18.172 16.125-62.915 27.894-87 25-1.171-.141-17.786-3.247-12-6 6.317.856 13.724 2.759 20 3 29.425 1.128 62.955-7.968 84-29"/><path fill="#0791c1" d="M598 556c-4.474 4.74-8.628 7.471-14 11 4.683-3.481 9.218-7.403 14-11"/><path fill="#0896c7" d="M614 557c-1.105 1.416-2.065 2.862-3.5 4-1.338-2.793 1.839-3.395 3.5-4"/><path fill="#02c9ec" d="m528 560 5 3.5c-10.241 3.744-23.855 5.126-35 4.5-5.906-.332-13.565-4.118-20-4 4.203-3.658 2.597-5.25 3.5-6 .778-.646 17.121 2.921 20 3 8.189.224 18.469-.001 26.5-1"/><path fill="#0a8cbb" d="M552.5 563c3.351 3.553-9.078 4.592-10 7-8.233.784-16.151 4.499-24.5 2.5 11.712-2.649 24.236-2.5 34.5-9.5"/><path fill="#058fb9" d="M473 567c5.103 1.621 18.457 8.296 23 9-8.187-1.344-26.761-8.881-30.5-9-1.702-.054-3.428-.193-2 2l10.5 3.5c-3.279 1.617-6.119-.618-9-1.5-3.319-1.016-7.342-1.947-9.5-5 8.807-.706 8.601-1.826 17.5 1"/><path fill="#0790bd" d="M592.5 564c2.856-.386.056 2.852-2 3-.869-.729 1.821-2.976 2-3"/><path fill="#0486aa" d="M481.5 566c12.278 3.864 22.271 6.168 35.5 7.5-12.465 1.857-25.196-.353-35.5-7.5"/><path fill="#0897c8" d="M598 566c-13.814 12.697-29.364 22.839-48 27.5 17.026-7.517 33.362-15.935 48-27.5"/><path fill="#0896c7" d="M603 568c.137-.098-.595-2.471 1.5-2 1.17 1.047-1.289 1.79-1.5 2"/><path fill="#0791c1" d="M584 567c-5.081 3.777-9.545 8.263-15.5 11-5.741 2.659-12.709 3.154-18.5 5 11.834-4.522 23.366-9.013 34-16"/><path fill="#0995c3" d="M643.5 567c2.113 3.941-6.582 8.786-7.5 12.5l-31 27 6.5-2.5-10 8c2.017-6.139.263-1.808-2.5-3.5z"/><path fill="#0790bd" d="M582 573c1.366-.854 3.455-5.971 7-4.5-1.402 2.556-5.285 3.267-7 4.5"/><path fill="#0896c7" d="M603 568c-.453.326-1.219 3.309-3 1.5.564-1.556 2.881-1.382 3-1.5m-6 5c.104-.069-.373-3.349 2-1.5-.254.768-1.92 1.404-2 1.5"/><path fill="#067fa3" d="M464 574c12.212 1.734 24.31 1.858 36.5 5 .013 3.887-11.35-.701-14-1-3.886-.439-8.821.607-12.5 0-5.155-.85-13.809-2.622-17.5-6 2.656.078 4.92 1.634 7.5 2"/><path fill="#0790bd" d="M582 573c-.387.242-.951 2.789-3 2 .867-.576 2.252-1.462 3-2"/><path fill="#0896c7" d="M597 573c-.933 1.125-1.75 3.859-4 2.5.781-1.969 3.327-2.053 4-2.5"/><path fill="#08789f" d="M496 576c10.267 1.59 23.621-1.978 34 .5-11.446 2.83-22.775 1.342-34-.5"/><path fill="#0790bd" d="M579 575c-16.943 11.251-36.348 17.752-56.5 21l-14.5-1.5c25.392.882 48.632-8.64 71-19.5"/><path fill="#0896c7" d="M589 579c.151-.073 1.31-3.356 3-1.5-.57 1.556-2.865 1.385-3 1.5"/><path fill="#477486" d="M358 587c9.682 11.452 22.835 23.221 35 32 1.932 1.394 4.011 2.683 6 4l-6 13c-11.024-6.991-21.733-14.128-30.5-24l-5.5 7c-13.317-12.257-23.019-22.762-33-38 15.728-9.45 15.858 5.843 24.5 15z"/><path fill="#0981a9" d="M532.5 578c1.662.051 3.438-.298 2 2-10.713 1.788-21.873 4.739-32.5.5 6.457-.547 12.874.876 19.5.5 2.185-.124 9.867-3.035 11-3"/><path fill="#0995c3" d="M638 584c-1.507 1.559-5.602 5.916-8 5.5 3.418-4.27 8.426-7.49 12-11.5-.143 2.042-2.628 4.581-4 6"/><path fill="#0680a2" d="M445 579c1.314.794 19.354 6.109 19 7.5-7.169.336-13.071-4.327-19-7.5"/><path fill="#0896c7" d="M589 579c-1.73 1.482-1.367 1.069-3 2 1.237-.864.782-.933 3-2m-3 2c-.659.375-1.164 1.04-3 2 .885-.576 2.153-1.408 3-2"/><path fill="#028cb0" d="M426 586c-1.142-.652-4.004-.572-5-2.5 2.16-1.633 4.305 2.068 5 2.5"/><path fill="#0881a9" d="M475 584c.605.056 2.631.739 4 1-1.183 2.431-8.838.518-8-1.5 1.333.116 2.626.374 4 .5"/><path fill="#0882ad" d="M550 583c-.625.199-9.164 7.223-12 3.5 3.856-1.22 8.254-2.069 12-3.5"/><path fill="#0896c7" d="M583 583c-10.822 7.035-22.192 12.96-35 15.5 11.223-5.958 23.755-9.622 35-15.5"/><path fill="#018db1" d="M426 586c1.142.652 4.004.572 5 2.5-2.16 1.633-4.305-2.068-5-2.5"/><path fill="#04b6dd" d="M595 588c-4.477 6.379-15.573 12.644-23 16-15.675 7.084-33.788 10.676-51 11-6.175.116-11.925.93-17.5-1l13-1c.549-4.356-9.311-.547-11.5-2.5-1.07-2.765 5.833-3.384 7-3.5 1.316-.131 1.231.03 2 0 6.399-.248 12.226.973 19 0v3c-4.781.419-9.568 1.753-14.5 1 .578 3.952 15.505 1.775 17.5-1 .645-.076 1.36.09 2 0 18.809-2.647 40.258-11.338 57-22"/><path fill="#0896c3" d="M616 590c-4.249 3.676-7.747 5.017-12 8 3.665-2.726 9.25-5.752 12-8"/><path fill="#057da0" d="M419 595c2.987 1.486 4.017 2.816 6 4-1.353-.255-4.344-1.789-5-.5 2.44 9.704 7.91 4.314 8.5 4.5 3.546 1.118 9.73 4.462 13.5 6 13.919 5.678 27.284 12.693 42 16.5l-17.5-3.5c-7.493-2.99-17.019-8.724-24-9l14 6c3.924 11.561-19.749-10.07-20-1l57 16-66.5-16c-8.183-4.156-16.546-8.642-24-14-3.986-2.865-7.338-6.861-11-10l.5-2c2.269 5.033 7.575 1.806 8 2 2.099.958 7.732 7.641 11 8 1.95.214 4.107-6.979 7.5-7"/><path fill="#038bad" d="M442 595c-1.449-.676-3.876-.59-5-2.5 2.167-1.625 4.286 2.05 5 2.5"/><path fill="#0995c3" d="M624 595c.766-.607 1.92-4.205 4-2.5-.637 1.891-3.622 2.207-4 2.5"/><path fill="#057da0" d="m419 595-3-1.5c1.687-1.861 2.842 1.421 3 1.5"/><path fill="#068eb1" d="M450 599c-4.58-.029-5.185-2.227-8-4 2.974 1.389 5.221 1.967 8 4"/><path fill="#0980a4" d="M501 599c-3.267-.453-10.677-.744-11-4l47.5 1-14 4c-7.503.125-15.081.028-22.5-1"/><path fill="#0995c3" d="M624 595c-.766.607-1.92 4.205-4 2.5.637-1.891 3.622-2.207 4-2.5"/><path fill="#0989af" d="M511 604c-1.978-.019-4.032.127-6 0-3.24-.209-6.207-1.293-9.5-1l.5-2c.91.039 2.616.952 5 1 9.48.19 19.007-.139 28.5 0l17-4-13 5c-7.537.583-14.923 1.072-22.5 1"/><path fill="#1e3c4e" d="M678 607c-63.224 71.19-166.808 91.963-254 55l2-8c73.051 27.855 157.53 10.906 217-38 6.779-5.574 14.121-11.502 20-18 2.227 5.149 9.902 6.605 15 9"/><path fill="#057da0" d="M425 599c3.999.753 7.377 2.837 11 4.5-4.461.958-7.714-2.538-11-4.5"/><path fill="#059fc3" d="m496 601-.5 2c3.293-.293 6.26.791 9.5 1-7.988 3.031-16.114 4.06-22.5 4-2.32-11.651 6.569-7.297 13.5-7"/><path fill="#0995c3" d="M617.5 599c2.856-.386.056 2.852-2 3-.869-.729 1.821-2.976 2-3"/><path fill="#15667b" d="M175 602c5.53 27.315 17.346 66.409 32 90 69.007 138.739 223.884 219.14 378 185 84.178-18.648 122.359-55.091 185-107.5 1.547-1.294 2.813-3.197 3 .5-195.534 223.013-547.972 122.639-603-165-.039-.202 1.516-1.148 1-4z"/><path fill="#eef8f9" d="M298.5 608c3.64-.081 2.19 1.915 3 2 2.551.267 7.993-3.729 6.5 2.5-.708 2.953-9.51-2.215-12-3 .883-.16 2.354-1.497 2.5-1.5"/><path fill="#098bb0" d="M536 610c-1.995 2.775-16.922 4.952-17.5 1 4.932.753 9.719-.581 14.5-1 .98-.086 2.028.114 3 0"/><path fill="#2b5366" d="M393 636c9.807 6.22 22.233 13.894 33 18l-2 8c-21.804-9.243-41.804-20.763-60-36-2.623-2.197-4.584-4.776-7-7l5.5-7c8.767 9.872 19.476 17.009 30.5 24"/><path fill="#0692bb" d="M593.5 612c-2.287 5.29-14.405 9.08-20 11-13.136 4.507-29.75 8.081-43.5 9.5z"/><path fill="#03b0d5" d="M513 620c-1.036-3.59 5.093-3.677 8-4 5.24-.582 11.52 1.23 16.5-1 8.388 4.237-23.036 4.899-24.5 5"/><path fill="#90b2bd" d="M643 616c-59.47 48.906-143.949 65.855-217 38-10.767-4.106-23.193-11.78-33-18l6-13c70.996 46.998 168.207 45.242 236-7 1.89 6.529 3.846-2.613 8 0"/><path fill="#0680a0" d="m463.5 622 25.5 7.5c-6.135.008-15.881-1.428-21.5-3.5-2.168-.8-5.916-.739-4-4"/><path fill="#66a3b4" d="M275 754c-4.512 3.288-8.196 3.44-5 9.5 2.324 4.407 38.159 34.675 44.5 39.5 77 58.592 174.19 84.704 269.5 61l1 13c-154.116 34.14-308.993-46.261-378-185 5.299 8.531 51.557 65.136 57.5 68 .83.4 2.877 1.588 2.5-.5-2.752-3.528-19.366-18.251-20-21-.984-4.264 6.156-8.286 8.5-7.5 1.43.479 15.447 19.191 19.5 23"/><path fill="#680b14" d="M615 748c-.748-.219-1.918 1.036-7-1l2-.5c-1.743-1.731-4.776-4.703-7-5.5-9.284-10.244-14.871-19.108-30-20 .843-1.636-3.005-2.931-3.5-3-21.062-2.957-39.872 12.496-60.5 12-1.153-.028-5.531-1.77-7-2-10.2-1.6-18.787-6.444-28-8-1.935-.327-6.072-.878-8-1-.785-2.399 2-1.892 2-2.5s-2.785-.101-2-2.5c14.138.562 24.715 7.616 36.5 9 31.366 3.684 61.109-23.347 90 0 7.929 6.408 13.166 19 22.5 25"/><path fill="#7c121b" d="M466 714c-.785 2.399 2 1.892 2 2.5s-2.785.101-2 2.5c-25.935-1.646-33.424 9.641-51 25.5-.595 4.46 15.415-8.574 17-9.5 4.076-.308 8.793-1.95 13-3 3.649 11.001 30.123 16.851 36 5 1.925.726 4.122 1.307 6 2 1.735.64 2.87 2.434 6 3 8.827 1.595 7.942-4.823 16-7 2.759 15.053 34.175-2.588 42.5-5 6.673-1.933 13.763-2.446 20.5-4 12.07 1.816 18.642 8.645 28 15 2.874 1.952 2.944 3.974 8 6 5.082 2.036 6.252.781 7 1 7.643 2.233 12.583 7.137 21 3-.263.208.526 2.494-.5 3-2.254 1.111-5.204-1.08-10.5 3 .518-2.956-3.936-2.154-5.5-2-31.456 3.104-46.356 3.997-77.5 11-43.953 9.883-55.173-7.465-95-8-16.926-.228-38.25 4.242-53-6 29.167-4.071 27.931-39.751 72-38"/><path fill="#ca6d71" d="M573 721c-13.007-.767-23.443 4.378-35 9.5 12.434-2.202 20.907-6.47 34-4.5-6.737 1.554-13.827 2.067-20.5 4-8.325 2.412-39.741 20.053-42.5 5-.275-1.498.184-3.412 0-5 20.628.496 39.438-14.957 60.5-12 .495.069 4.343 1.364 3.5 3"/><path fill="#fcf9f7" d="M466 719c1.928.122 6.065.673 8 1-7.464 7.297 2.719 8.279 8 12-2.172 1.874-6.008-1.315-8-2-20.117-6.922-25.061-4.897-42 5-1.585.926-17.595 13.96-17 9.5 17.576-15.859 25.065-27.146 51-25.5"/><path fill="#ca7c80" d="M502 728c-2.799 4.16-11.321 8.026-9 14-3.13-.566-4.265-2.36-6-3 4.37-.596-2.784-5.439-5-7-5.281-3.721-15.464-4.703-8-12 9.213 1.556 17.8 6.4 28 8"/><path fill="#fbf5f3" d="M573 721c15.129.892 20.716 9.756 30 20-.141-.051-1.6.993-3 0-9.358-6.355-15.93-13.184-28-15-13.093-1.97-21.566 2.298-34 4.5 11.557-5.122 21.993-10.267 35-9.5"/><path fill="#e19c9e" d="m474 730-2 3c-7.59-2.475-10.661-4.756-19.5-4-1.811.155-5.997 2.625-7.5 3-4.207 1.05-8.924 2.692-13 3 16.939-9.897 21.883-11.922 42-5"/><path fill="#a2454d" d="M509 730c.184 1.588-.275 3.502 0 5-8.058 2.177-7.173 8.595-16 7-2.321-5.974 6.201-9.84 9-14 1.469.23 5.847 1.972 7 2"/><path fill="#914048" d="M472 733c3.268 1.066 5.897 2.83 9 4-5.877 11.851-32.351 6.001-36-5 1.503-.375 5.689-2.845 7.5-3 8.839-.756 11.91 1.525 19.5 4"/><path fill="#e58e8c" d="M482 732c2.216 1.561 9.37 6.404 5 7-1.878-.693-4.075-1.274-6-2-3.103-1.17-5.732-2.934-9-4l2-3c1.992.685 5.828 3.874 8 2"/><path fill="#cc4e51" d="M603 741c2.224.797 5.257 3.769 7 5.5l-2 .5c-5.056-2.026-5.126-4.048-8-6 1.4.993 2.859-.051 3 0"/><path fill="#4f0b14" d="M394 752c14.75 10.242 36.074 5.772 53 6l-7 4c-10.156.202-20.842.898-31 1.5 7.872 7.508 16.466 14.787 25 21.5 26.518 39.844 94.698 40.904 133.5 21 13.511-6.931 21.83-16.098 32.5-26 2.516-2.335 7.283-8.716 10-5-34.065 38.338-65.446 59.989-121 50-10.161-1.827-34.106-10.188-42.5-16-22.241-15.399-37.653-50.065-66.5-56.5 3.891-2.678 9.18.173 14-.5"/><path fill="#76161f" d="M625 757c-1.5 1.156-12.197 14.846-15 18-2.717-3.716-7.484 2.665-10 5l-36.5 23c-35.336 16.302-78.307 15.101-111.5-5l1-3c6.399 3.891 25.638 10.028 32.5 8 2.04-.603 2.314-3.855 2.5-4 4.14-3.243 7.745-7.295 13-9 2.899 3.438 13.816 1.565 18 1 1.728-.233 7.373-2.463 10-3 4.149-.849 28.272-5.995 28-8.5-1.25-1.779-3.163-1.912-5-2.5l-10-3.5c.075-1.248 22.01-6.918 17.5-9.5-6.571 1.364-13.021 3.301-19.5 5l2-3c31.144-7.003 46.044-7.896 77.5-11 1.564-.154 6.018-.956 5.5 2"/><path fill="#3b0a13" d="m542 766-2 3c-50.485 13.24-53.871-7.919-100-7l7-4c39.827.535 51.047 17.883 95 8"/><path fill="#780916" d="M540 769c6.479-1.699 12.929-3.636 19.5-5 4.51 2.582-17.425 8.252-17.5 9.5l10 3.5c-6.033-1.93-9.483-1.227-15 1 .269-3.764-3.506-2.331-5.5-2-5.943.988-17.889 3.96-23.5 6-.75.273-1.273.675-2 1 .547-6.364-15.827-8.821-22-11-3.461-1.221-8.534-4.902-13.5-6-8.735-1.932-25.671-5.203-30.5 3.5-5.156 9.292 5.27 20.8 13 25.5l-1 3c-6.546-3.964-12.038-8.31-18-13-8.534-6.713-17.128-13.992-25-21.5 10.158-.602 20.844-1.298 31-1.5 46.129-.919 49.515 20.24 100 7"/><path fill="#bc7074" d="m484 772-1 1c-14.374-8.262-25.024 10.841-10 18-10.093 4.269-2.972 11.482 6.5 9 1.251-.328 6.539-8.893 8.5-1-.186.145-.46 3.397-2.5 4-6.862 2.028-26.101-4.109-32.5-8-7.73-4.7-18.156-16.208-13-25.5 4.829-8.703 21.765-5.432 30.5-3.5 4.966 1.098 10.039 4.779 13.5 6"/><path fill="#e8a9a9" d="M483 773c8.526 4.901 5.214 13.66-2.5 17-2.064.894-6.06.391-7.5 1-15.024-7.159-4.374-26.262 10-18"/><path fill="#9d4e57" d="M506 783c-2.37 1.06-9.716 1.407-5 7-5.255 1.705-8.86 5.757-13 9-1.961-7.893-7.249.672-8.5 1-9.472 2.482-16.593-4.731-6.5-9 1.44-.609 5.436-.106 7.5-1 7.714-3.34 11.026-12.099 2.5-17l1-1c6.173 2.179 22.547 4.636 22 11"/><path fill="#8a3238" d="M537 778c-4.095 1.653-8.592 4.88-8 10-2.627.537-8.272 2.767-10 3-2.503-5.016-10.238-2.716-11-9 5.611-2.04 17.557-5.012 23.5-6 1.994-.331 5.769-1.764 5.5 2"/><path fill="#af4e50" d="M552 777c1.837.588 3.75.721 5 2.5.272 2.505-23.851 7.651-28 8.5-.592-5.12 3.905-8.347 8-10 5.517-2.227 8.967-2.93 15-1"/><path fill="#865253" d="M600 780c-10.67 9.902-18.989 19.069-32.5 26-38.802 19.904-106.982 18.844-133.5-21 5.962 4.69 11.454 9.036 18 13 33.193 20.101 76.164 21.302 111.5 5z"/><path fill="#c46a6c" d="M519 791c-4.184.565-15.101 2.438-18-1-4.716-5.593 2.63-5.94 5-7 .727-.325 1.25-.727 2-1 .762 6.284 8.497 3.984 11 9"/></svg>