<svg xmlns="http://www.w3.org/2000/svg" width="1024" height="1024"><defs><linearGradient id="a" x1="480.122" x2="578.852" y1="387.897" y2="539.599" gradientUnits="userSpaceOnUse"><stop offset="0%" style="stop-color:#035a79"/><stop offset="100%" style="stop-color:#0179a7"/></linearGradient></defs><defs><linearGradient id="b" x1="433.135" x2="576.326" y1="427.568" y2="529.903" gradientUnits="userSpaceOnUse"><stop offset="0%" style="stop-color:#1293b1"/><stop offset="100%" style="stop-color:#44dff9"/></linearGradient></defs><defs><linearGradient id="c" x1="846.233" x2="817.951" y1="555.165" y2="636.382" gradientUnits="userSpaceOnUse"><stop offset="0%" style="stop-color:#b8e8f8"/><stop offset="100%" style="stop-color:#9cbfd4"/></linearGradient></defs><defs><linearGradient id="d" x1="910.205" x2="865.959" y1="494.496" y2="742.581" gradientUnits="userSpaceOnUse"><stop offset="0%" style="stop-color:#487d8b"/><stop offset="100%" style="stop-color:#1d475d"/></linearGradient></defs><defs><linearGradient id="e" x1="179.656" x2="198.196" y1="614.462" y2="713.746" gradientUnits="userSpaceOnUse"><stop offset="0%" style="stop-color:#7aabc1"/><stop offset="100%" style="stop-color:#4b7589"/></linearGradient></defs><defs><linearGradient id="f" x1="894.037" x2="886.757" y1="646.265" y2="723.925" gradientUnits="userSpaceOnUse"><stop offset="0%" style="stop-color:#729fb0"/><stop offset="100%" style="stop-color:#277581"/></linearGradient></defs><path fill="#779dac" d="M140.5 102c31.328-.675 52.989 19.287 58.5 49.5-3.564 1.129-3.122-5.98-4-8-7.059-16.246-19.869-29.974-36.5-36.5z"/><path fill="#7ba0b0" d="M125.5 120c29.157-3.028 62.277 12.571 64.5 44.5-3.189-4.919-3.658-11.743-7-17-11.25-17.697-43.1-29.021-63.5-24.5-1.953-1.99 5.666-2.965 6-3"/><path fill="#b9d6dc" d="M865.5 120c1.861-.194 6.771-.67 8 1-10.714 1.285-32.124 8.859-37.5 18.5-4.234 7.593-1.436 15.207-4.5 22.5-6.647-23.755 11.72-39.672 34-42"/><path fill="#093c54" d="m844 191 2-1c1.651 18.256 19.41 33.17 36 39 .105.037.281.48 2 1-17.214 40.399-32.304 82.611-58 118.5 17.29 35.438 33.359 71.533 43 110 2.672 1.265 5.351 2.163 8 3.5v1c-3.603-1.262-9.274-3.389-13-3-15.844-47.513-32.653-98.834-62-140-47.288-79.002-122.044-142.481-211.5-168-115.916-33.067-231.129 2.857-316.5 84-41.699 39.634-80.901 92.308-104 144h-1c6.447-15.539 13.889-30.291 21-45.5-18.617-33.234-33.363-68.582-46-104.5.883-.2 1.102-.749 2-1l4.5 13c6.069-2.004 11.967-4.187 17.5-7.5l-9-10.5c.594-.28 1.345-.681 2-1 1.66 1.304 7.817 10.873 8.5 11 .57.106 9.492-5.92 9.5-6.5.01-.709-8.806-10.354-9.5-10.5-1.294-.272-2.116 1.362-3.5 2v-1c5.97-4.741 12.513-14.603 14-22 .512.128 1.713.76 2 1 13.263 11.116 52.198 42.678 65.5 50 1.819 1.001 5.034 3.409 7 3 44.71-46.396 103.273-84.257 166-101 127.058-33.915 257.689 14.957 345 109 25.474-20.111 49.217-43.286 77-60 4.459-2.542 1.393-5.373 1.5-7m-.5 8c-.686.01-11.403 6.82-11.5 7.5l15.5 20.5c1.34-2.561 8.808-10.184 8.5-12.5-.135-1.014-10.769-15.524-12.5-15.5m-662 1c-7.459 13.607-15.857 14.327-1 27l13.5-18.5zM789 286c2.298 3.14 4.814 6.774 7 10 .798 1.177 2.073 3.526 3 5 9.093 14.46 14.263 31.694 25.5 45 4.31-.134 37.966-67.091 41.5-75.5 1.919-4.567 2.617-10.633 4-14.5.204-.569 5.951-7.91 6-10.5l-19-7.5c-1.152.173-.941-.961-1-1-.563-.367-8.925-7.934-10-9-6.469-6.411-9.874-14.132-16.5-20-7 10.376-52.224 39.052-55.5 46.5-7.181 16.326 7.997 21.933 15 31.5m-607-58c-.509.449-.94.951-1 1-1.573 1.297-10.532 6.565-13 8-2.401 1.396-16.633 6.43-17 7.5.843 2.907 2.105 5.616 3 8.5 2.494 8.039 33.167 78.006 37.5 78 8.326-11.331 14.542-25.618 22.5-37 2.822-4.036 5.926-8.149 9-12 1.318-1.651 2.653-3.379 4-5 3.175-3.823 23.276-21.794 23-24.5L196.5 209c-4.757 6.083-8.659 13.846-14.5 19m675.5-11c-1.966.299-6.6 8.893-8.5 10.5l7.5 6.5c7.225-2.387 11.359-18.575 1-17"/><path fill="#0a233c" d="M173 157h-1c-4.109-5.287-13.295-12.711-20-14-41.083-14.078-78.067 35.825-53 70.5 15.366 21.256 47.806 19.744 67 4.5v1c-2.028.935-2.981 3.015-5 4-.655.319-1.406.72-2 1-4.22 1.987-8.471 3.732-13 5-.898.251-1.117.8-2 1-54.174 12.265-74.107-55.162-35.5-82 20.921-14.543 49.143-11.427 64.5 9"/><path fill="#bbd9df" d="m844.5 139-7 20c-.058-6.81.362-16.214 7-20"/><path fill="#092339" d="M884 230c-1.719-.52-1.895-.963-2-1 30.813 5.849 56.588-14.492 54-46.5-2.348-29.044-32.842-47.952-60-40.5-6.755 1.854-16.205 7.9-21 13 16.938-24.116 56.896-19.915 74 2.5 25.424 33.319-2.223 85.426-45 72.5"/><path fill="#d5edf2" d="M802 320c-98.72-138.475-265.111-213.756-431.5-143-38.055 16.182-62.771 37.387-94.5 62-1.978 1.534-5.346 4.105-8 4.5l6-7.5c85.371-81.143 200.584-117.067 316.5-84 89.456 25.519 164.212 88.998 211.5 168"/><path fill="#92d0df" d="M882 229c-16.59-5.83-34.349-20.744-36-39-.933-10.316.512-21.451 6.5-30l5.5 4c-.237.414-1.77 4.314-2 5-9.98 29.789 44.126 56.019 67.5 36 13.319-11.407 11.017-27.56 2.5-41-10.288-16.234-31.538-23.363-50-22 27.158-7.452 57.652 11.456 60 40.5 2.588 32.008-23.187 52.349-54 46.5"/><path fill="#94d1de" d="M152 143c-16.682-3.206-38.782 5.309-49 19-10.014 13.417-13.605 30.757.5 43 23.158 20.102 72.557-3.19 67.5-31-.418-2.298.129-3.136-1-6l6-4c5.013 10.927 6.41 20.014 4 32-1.487 7.397-8.03 17.259-14 22-19.194 15.244-51.634 16.756-67-4.5-25.067-34.675 11.917-84.578 53-70.5"/><path fill="#4eccf4" d="M926 164c-.07 7.999.208 10.962-4 18-7.952.18-1.967-6.542-2-7.5-.635-18.558-12.248-29.096-31-24.5-2.229-.876-7.559-1.265-10-1-8.09.879-17.061 8.103-21 15l-5.5-4c-5.988 8.549-7.433 19.684-6.5 30l-2 1c1.016-15.413-.384-23.892 11-36 4.795-5.1 14.245-11.146 21-13 18.462-1.363 39.712 5.766 50 22"/><path fill="#50cdf5" d="M152 143c6.705 1.289 15.891 8.713 20 14 1.735 2.233 2.822 4.431 4 7l-6 4c-1.93-4.895-2.468-5.321-6-9-6.679-6.957-14.971-11.492-25-8-17.789-8.689-37.269 10.746-30 28.5 1.072 2.619 8.151 6.141 5 11.5-11.114-7.823-14.584-16.092-11-29 10.218-13.691 32.318-22.206 49-19"/><path fill="#95ddfa" d="M139 151c-11.616 4.045-14.261 18.932-8 28.5 6.784 10.368 27.007 12.406 33 1 4.702-8.949-.907-13.01 0-21.5 3.532 3.679 4.07 4.105 6 9 1.129 2.864.582 3.702 1 6-3.659 27.634-37.081 31.021-57 17 3.151-5.359-3.928-8.881-5-11.5-7.269-17.754 12.211-37.189 30-28.5"/><path fill="#9cdef9" d="M889 150c18.752-4.596 30.365 5.942 31 24.5.033.958-5.952 7.68 2 7.5-15.692 26.248-67.054 21.745-66-13 .23-.686 1.763-4.586 2-5 3.939-6.897 12.91-14.121 21-15-1.421 6.512-9.296 6.896-13 12.5-12.165 18.407 8.778 33.626 25.5 23.5 12.963-7.85 11.308-29.574-2.5-35"/><path fill="#d2f5fe" d="M889 150c13.808 5.426 15.463 27.15 2.5 35-16.722 10.126-37.665-5.093-25.5-23.5 3.704-5.604 11.579-5.988 13-12.5 2.441-.265 7.771.124 10 1"/><path fill="#ccf3fe" d="M164 159c-.907 8.49 4.702 12.551 0 21.5-5.993 11.406-26.216 9.368-33-1-6.261-9.568-3.616-24.455 8-28.5 10.029-3.492 18.321 1.043 25 8m-20.5-5c-5.037.818-15.117 10.853-7 10 3.534-.372 10.844-10.728 17-7l-3-3c-2.218.239-4.894-.342-7 0"/><path fill="#e5f3f6" d="M802 320c29.347 41.166 46.156 92.487 62 140-.111.012-.474.473-2 1-.552-2.054-3.046-.741-4 0-14.753-48.366-33.537-93.23-62-135-24.774-36.357-53.387-66.956-88-94-22.528-17.602-46.746-34.905-74-44.5-.045 3.973-3.85 8.127-.5 11.5 1.844 1.857 29.235 14.385 35 18 10.81 6.779 23.639 15.927 33.5 24 13.068 10.698 58.248 54.46 63 68.5 6.089 17.991-2.162 29.171-21 26.5-15.395-2.183-32.455-12.969-45.5-21l-7.5 26c-98.659-139.185-311.867-129.467-390 24l-30.5 28c-11.195 5.507-21.735 10.405-34.5 11-19.477.909-36.627-5.916-45-24.5l-2-21.5c17.48-31.737 39.292-62.175 63-89.5 5.797-6.681 21.335-19.95 25-26 .91-1.503.525-2.837-1-3.5 31.729-24.613 56.445-45.818 94.5-62 166.389-70.756 332.78 4.525 431.5 143"/><path fill="#f9fdfd" d="M143.5 154c2.106-.342 4.782.239 7 0l3 3c-6.156-3.728-13.466 6.628-17 7-8.117.853 1.963-9.182 7-10"/><path fill="#5588a0" d="M182 197c-.287-.24-1.488-.872-2-1 2.41-11.986 1.013-21.073-4-32-1.178-2.569-2.265-4.767-4-7h1c9.269 12.33 11.628 24.136 9 40"/><path fill="#4fa4cc" d="M114 191c19.919 14.021 53.341 10.634 57-17 5.057 27.81-44.342 51.102-67.5 31-14.105-12.243-10.514-29.583-.5-43-3.584 12.908-.114 21.177 11 29"/><path fill="#4ea2cb" d="M856 169c-1.054 34.745 50.308 39.248 66 13 4.208-7.038 3.93-10.001 4-18 8.517 13.44 10.819 29.593-2.5 41-23.374 20.019-77.48-6.211-67.5-36"/><path fill="#92bccf" d="M52.5 174c-8.343 34.656 1.216 74.492 36 90-37.773-7.828-51.642-58.524-36-90"/><path fill="#b9d9e2" d="m708 232-6 9c-9.861-8.073-22.69-17.221-33.5-24-5.765-3.615-33.156-16.143-35-18-3.35-3.373.455-7.527.5-11.5 27.254 9.595 51.472 26.898 74 44.5"/><path fill="#95c1db" d="M843.5 199c1.731-.024 12.365 14.486 12.5 15.5.308 2.316-7.16 9.939-8.5 12.5L832 206.5c.097-.68 10.814-7.49 11.5-7.5"/><path fill="#9bc5df" d="m181.5 200 12.5 8.5-13.5 18.5c-14.857-12.673-6.459-13.393 1-27"/><path fill="#afcfda" d="M965.5 200c7.164 29.844-9.373 60.467-40 67l20-13c11.596-10.162 15.493-23.04 19.5-37.5z"/><path fill="#a9ccd8" d="M970.5 202c19.891 39.006-11.935 79.458-54 78l31-11c22.865-13.793 30.734-42.481 23-67"/><path fill="#dcf5f7" d="M846 228v1c-21.513 15.401-32.588 45.101-57 57-7.003-9.567-22.181-15.174-15-31.5 3.276-7.448 48.5-36.124 55.5-46.5 6.626 5.868 10.031 13.589 16.5 20m-17.5-9c-1.025.214-7.568 5.896-8.5 7.5 1.459 2.613 10.157-6.028 11-7-.391-.722-1.782-.65-2.5-.5m-17 13L798 243.5c3.842-1.932 8.305-4.653 11.5-7.5.553-.493 5.671-3.49 2-4"/><path fill="#d9f4f7" d="m227 277-45-49c5.841-5.154 9.743-12.917 14.5-19l53.5 43.5c.276 2.706-19.825 20.677-23 24.5m-31.5-59c-1.523 3.136 10.569 10.442 11.5 8.5zm18 13 14.5 12.5c-1.536-6.047-9.246-10.238-14.5-12.5m20 17c-2.189 1.278 2.851 3.874 3.5 2.5.668-1.414-2.263-3.223-3.5-2.5"/><path fill="#b6d3dd" d="M59.5 215c8.44 23.793 24.099 35.391 48.5 40.5-24.268.36-46.613-15.055-48.5-40.5"/><path fill="#45738b" d="M161 223c2.019-.985 2.972-3.065 5-4 1.384-.638 2.206-2.272 3.5-2 .694.146 9.51 9.791 9.5 10.5-.008.58-8.93 6.606-9.5 6.5-.683-.127-6.84-9.696-8.5-11"/><path fill="#46768e" d="M857.5 217c10.359-1.575 6.225 14.613-1 17l-7.5-6.5c1.9-1.607 6.534-10.201 8.5-10.5"/><path fill="#f8fdfd" d="m195.5 218 11.5 8.5c-.931 1.942-13.023-5.364-11.5-8.5"/><path fill="#f5fbfa" d="M828.5 219c.718-.15 2.109-.222 2.5.5-.843.972-9.541 9.613-11 7 .932-1.604 7.475-7.286 8.5-7.5"/><path fill="#1a485e" d="M146 229c4.529-1.268 8.78-3.013 13-5l9 10.5c-5.533 3.313-11.431 5.496-17.5 7.5z"/><path fill="#85a9b9" d="M227 277c-1.347 1.621-2.682 3.349-4 5l-42-53c.06-.049.491-.551 1-1z"/><path fill="#a3cfde" d="M856 237c-10.313 8.471-39.571 60.767-48.5 64-1.745.632-6.269-.449-8.5 0-.927-1.474-2.202-3.823-3-5 6.562-12.654 14.767-25.578 24-36.5 7.518-8.893 23.964-16.068 26-30.5v-1c1.075 1.066 9.437 8.633 10 9"/><path fill="#a4cfde" d="m181 229 42 53c-3.074 3.851-6.178 7.964-9 12-4.312-2.16-11.871-18.541-16-14-1.116-2.65-3.95-9.749-5-11.5-6.46-10.776-18.068-20.744-25-31.5 2.468-1.435 11.427-6.703 13-8"/><path fill="#83a9b8" d="M846 229c-2.036 14.432-18.482 21.607-26 30.5-9.233 10.922-17.438 23.846-24 36.5-2.186-3.226-4.702-6.86-7-10 24.412-11.899 35.487-41.599 57-57"/><path fill="#f5fcfd" d="M213.5 231c5.254 2.262 12.964 6.453 14.5 12.5z"/><path fill="#9dc3d1" d="M796 326c-2.98-1.085-11.957 10.137-12 11.5-.052 1.615 10.58 24.94 12 30 15.597 55.593 15.791 146.859-24 192.5-9.317-19.585-3.062-40.371-3-60.5.125-40.628-1.236-68.485-11-108-4.557-18.443-15.04-36.012-14-55.5 18.838 2.671 27.089-8.509 21-26.5-4.752-14.04-49.932-57.802-63-68.5l6-9c34.613 27.044 63.226 57.643 88 94"/><path fill="#f7fbfb" d="M811.5 232c3.671.51-1.447 3.507-2 4-3.195 2.847-7.658 5.568-11.5 7.5z"/><path fill="#f8fcfd" d="M276 239c1.525.663 1.91 1.997 1 3.5-3.665 6.05-19.203 19.319-25 26-23.708 27.325-45.52 57.763-63 89.5-9.569 17.373-18.791 35.994-26 54.5-2.695 6.919-12.361 44.241-14 46-.97 1.04-2.372-.324-4-.5.464-6.502 2.163-13.3 4-19.5 5.101-17.218 13.739-42.251 21-58.5 23.099-51.692 62.301-104.366 104-144l-6 7.5c2.654-.395 6.022-2.966 8-4.5"/><path fill="#63a5b8" d="M168 237c6.932 10.756 18.54 20.724 25 31.5 1.05 1.751 3.884 8.85 5 11.5.897 2.13 4.89 8.656 5 9.5.932 7.146-5.658 12.059-12.5 10.5-9.052-2.062-29.114-49.059-33.5-49.5-1.553-.156-1.202 2.513-3 2.5-.895-2.884-2.157-5.593-3-8.5.367-1.07 14.599-6.104 17-7.5"/><path fill="#4d8c9e" d="m857 238-38 51.5c-.509 3.218 3.912-2.291 3 1-1.48 5.341-13.817 13.675-3.5 20.5 12.251 8.105 21.443-13.642 26.5-21 5.894-8.575 18.717-26.313 22-36l3 2c-1.383 3.867-2.081 9.933-4 14.5-3.534 8.409-37.19 75.366-41.5 75.5-11.237-13.306-16.407-30.54-25.5-45 2.231-.449 6.755.632 8.5 0 8.929-3.233 38.187-55.529 48.5-64 .059.039-.152 1.173 1 1"/><path fill="#62a9bc" d="m870 256-3-2c.441-1.302 2.413-2.811-.5-3-3.234.49-20.425 33.669-21.5 39-5.057 7.358-14.249 29.105-26.5 21-10.317-6.825 2.02-15.159 3.5-20.5.912-3.291-3.509 2.218-3-1l38-51.5 19 7.5c-.049 2.59-5.796 9.931-6 10.5"/><path fill="#9dc0c7" d="M691 341c19.317 27.252 35.906 64.139 42 97l-8 4c-1.791-10.765-4.918-27.113-9-37-42.181-112.313-153.644-178.073-272.5-142C326.723 298.442 260.904 423.902 294 541l-9 6c-17.049-60.379-12.667-125.693 16-182 78.133-153.467 291.341-163.185 390-24"/><path fill="#f2fafb" d="M233.5 248c1.237-.723 4.168 1.086 3.5 2.5-.649 1.374-5.689-1.222-3.5-2.5"/><path fill="#498394" d="M198 280c4.129-4.541 11.688 11.84 16 14-7.958 11.382-14.174 25.669-22.5 37-4.333.006-35.006-69.961-37.5-78 1.798.013 1.447-2.656 3-2.5 4.386.441 24.448 47.438 33.5 49.5 6.842 1.559 13.432-3.354 12.5-10.5-.11-.844-4.103-7.37-5-9.5"/><path fill="#6ebbcc" d="M867 254c-3.283 9.687-16.106 27.425-22 36 1.075-5.331 18.266-38.51 21.5-39 2.913.189.941 1.698.5 3"/><path fill="#0b445c" d="M716 405c-.054-.131-1.59.411-2-.5-.681-1.513-3.085-13.886-6-9.5-2.905-7.298-6.498-15.546-11-22-3.564-9.355-11-19.967-17-28-12.895-17.264-28.808-32.254-46-45-104.206-77.261-241.155-47.076-309 61-27.548 43.883-39.355 89.722-34 142 2.068 20.193 7.702 37.372 15 56 21.62 55.184 64.519 100.257 120 122 84.253 33.02 181.445 11.341 242-56l1 1c-115.697 124.721-328.829 78.361-375-85-33.096-117.098 32.723-242.558 149.5-278 118.856-36.073 230.319 29.687 272.5 142"/><path fill="#f3fafb" d="m634 300-6 9c-10.95-8.053-19.842-13.061-32-19-13.409-6.55-26.356-12.396-41-16-57.012-14.033-109.454-3.733-158 28-12.585 8.226-20.243 14.63-31 25-12.917 12.453-24.651 25.568-34 41l-7-7c67.845-108.076 204.794-138.261 309-61"/><path fill="#d2eaf6" d="m555 274-14 20.5c6.536 1.526 12.743 2.995 19 5.5-30.133-7.313-57.681-8.228-88-2-18.497 3.799-36.662 10.494-53 20-4.219-8.373-15.375-9.813-22-16 48.546-31.733 100.988-42.033 158-28"/><path fill="#b5e3e9" d="M596 290c-4.182 5.819-15.689 12.177-14 20-6.692-3.341-15.087-7.232-22-10-6.257-2.505-12.464-3.974-19-5.5l14-20.5c14.644 3.604 27.591 9.45 41 16"/><path fill="#83b4cb" d="M628 309c15.992 11.762 29.852 25.257 42 41 8.549 11.079 15.858 22.683 22.5 35 10.958-1.201 7.737-3.504 4.5-12 4.502 6.454 8.095 14.702 11 22 24.623 61.855 20.355 129.48-11 188-3.191-.491-7.304-5.024-10.5-4-1.748.56-18.29 24.27-22.5 29l-22-12c52.756-59.842 58.286-144.374 19-213-18.524-32.359-45.853-56.454-79-73-1.689-7.823 9.818-14.181 14-20 12.158 5.939 21.05 10.947 32 19"/><path fill="#033853" d="M560 300c6.913 2.768 15.308 6.659 22 10 33.147 16.546 60.476 40.641 79 73l-2 2c-28.385-48.791-86.119-86.708-143.5-87l6.5 6c-18.358-8.494-27.152-5.775-47-3-1.38-.758-2.431-.381-3-3 30.319-6.228 57.867-5.313 88 2"/><path fill="url(#a)" d="M472 298c.569 2.619 1.62 2.242 3 3 .125.069-.373 1.788.5 2 7.923 1.922 26.53-.377 37 1 2.438.32 19.061 5.832 19.5 4.5-2.531-2.639-6.738-2.991-10-4.5l-6.5-6c57.381.292 115.115 38.209 143.5 87 18.148 31.194 25.083 65.034 23 101-2.201 1.342-5.02 5.261-6 7.5-5.33 12.179-6.224 27.046-11 40.5-9.65 27.187-30.973 51.352-55 67-94.262 61.391-234.388 8.679-236-111-.948-70.434 33.17-117.57 105-125-.465 4.551.521 7.843 1 12-8.303 4.509-18.991 3.795-28.5 7-63.424 21.375-76.458 102.302-51.5 157 9.077 19.894 19.077 31.869 36 45 104.907 81.401 257.137-9.336 222-144-14.59-55.915-77.625-116.753-135.5-125-36.271-5.169-89.608-4.714-119.5 18-3.134 1.305-5.25-.221-8 1 7.389-6.373 15.576-13.099 24-18 16.338-9.506 34.503-16.201 53-20" style="fill:url(#a)"/>/&gt;<path fill="#26aac1" d="M522 304c3.262 1.509 7.469 1.861 10 4.5-.439 1.332-17.062-4.18-19.5-4.5-10.47-1.377-29.077.922-37-1-.873-.212-.375-1.931-.5-2 19.848-2.775 28.642-5.494 47 3"/><path fill="#d2eaf6" d="M680 345c-5.298-3.576-6.431 1.517-10 5-12.148-15.743-26.008-29.238-42-41l6-9c17.192 12.746 33.105 27.736 46 45"/><path fill="#b5e3e9" d="M419 318c-8.424 4.901-16.611 11.627-24 18-6.371 2.828-12.084 12.107-18 16 2.649-3.735 5.196-7.78 8-11.5-.628-2.876-18.899-8.018-19-13.5 10.757-10.37 18.415-16.774 31-25 6.625 6.187 17.781 7.627 22 16"/><path fill="#11b5cd" d="m658 442-3 1c-1.326-5.065-3.09-10.132-5-15-13.145-33.512-36.522-58.009-65-79-54.9-40.467-120.133-39.759-182-14 29.892-22.714 83.229-23.169 119.5-18 57.875 8.247 120.91 69.085 135.5 125"/><path fill="#b7d8e2" d="M744 336c-1.04 19.488 9.443 37.057 14 55.5 9.764 39.515 11.125 67.372 11 108-.062 20.129-6.317 40.915 3 60.5-14.841 17.023-31.908 24.283-55 23 20.026-44.496 24.877-97.134 16-145-6.094-32.861-22.683-69.748-42-97l7.5-26c13.045 8.031 30.105 18.817 45.5 21"/><path fill="#004665" d="m585 349-3 2c-13.703-22.66-62.676-33.757-85-19-25.355-1.632-58.429 2.772-81.5 14-2.985 1.453-3.837 4.554-6.5 6-19.468 10.574-34.591 19.502-49 37-3.742-5.43 3.257-7.731-2-11 6.246-10.062 12.47-16.792 19-26 5.916-3.893 11.629-13.172 18-16 2.75-1.221 4.866.305 8-1 61.867-25.759 127.1-26.467 182 14"/><path fill="#c2e7fd" d="M582 351c3.22 5.324 4.623 11.847 5 18 .018.299.025 5.644 0 6-.353 5.116-2.202 12.134-4 17-.68 1.841-.779 3.509-1 4-.776 1.719-6.432 9.46-8 11-9.832 9.657-24.555 13.055-38 13-5.611-2.071-24.943-5.832-31-6-13.392-7.607-20.202-15.892-24-31-.079-.313.07-.682 0-1-.408-1.86-.742-2.756-1-5-.479-4.157-1.465-7.449-1-12 .016-.157.678-1.09 1-3 .741-4.399 2.982-10.995 5-15 .266-.528 1.448-2.083 2-3 1.557-2.588 3.828-5.945 6-8 .881-.833 3.764-3.844 4-4 22.324-14.757 71.297-3.66 85 19"/><path fill="#7da6b6" d="M796 326c28.463 41.77 47.247 86.634 62 135-5.832 4.533-15.903 22.836-19 30-1.649-.058-3.258 1.014-4.5 2-25.557 20.292-42.41 93.094-48.5 125-25.286 3.916-43.181 30.191-62.5 46-17.775 14.545-37.282 27.247-57 39-21.468 12.796-57.187 19.696-58.5 49.5-.885 20.103 13.595 52.658-2 67.5-.852-13.363-12.401-26.745-22.5-35-3.547-2.9-17.994-9.012-19.5-12-4.554-9.038 1.537-45.87-5-58 66.692-16.149 129.831-69.411 158-132 23.092 1.283 40.159-5.977 55-23 39.791-45.641 39.597-136.907 24-192.5-1.42-5.06-12.052-28.385-12-30 .043-1.363 9.02-12.585 12-11.5"/><path fill="#83b4cb" d="M377 352c-6.53 9.208-12.754 15.938-19 26-33.341 53.714-39.417 108.937-15 168 14.073 34.042 38.197 63.926 70 83l-16 18.5c10.26 5.334 20.274 12.142 31 16.5-.388 6.128-6.619 11.331-2 17-55.481-21.743-98.38-66.816-120-122 1.785-3.659 7.152-6.219 11-5.5-8.422-19.282-13.781-41.52-15-62.5-2.526-43.476 7.502-85.863 30-123 9.349-15.432 21.083-28.547 34-41 .101 5.482 18.372 10.624 19 13.5-2.804 3.72-5.351 7.765-8 11.5"/><path fill="#047190" d="M497 332c-.236.156-3.119 3.167-4 4-28.329-2.892-57.962 4.11-83 17l-1-1c2.663-1.446 3.515-4.547 6.5-6 23.071-11.228 56.145-15.632 81.5-14"/><path fill="#004c6d" d="M493 336c-2.172 2.055-4.443 5.412-6 8-43.362-.243-90.021 24.269-114 60.5-6.982 10.55-10.445 21.636-16 32.5-4.487 8.776-6.765 17.661-15.5 24l-5.5-7c2.081-18.447.945-23.48 10-40 12.92-23.572 40.164-48.729 64-61 25.038-12.89 54.671-19.892 83-17"/><path fill="#076d8f" d="M487 344c-.552.917-1.734 2.472-2 3-55.341 2.706-105.512 36.416-123 90-1.105-2.678-1.903-.023-2 0-.892.207-2.048-.123-3 0 5.555-10.864 9.018-21.95 16-32.5 23.979-36.231 70.638-60.743 114-60.5"/><path fill="#b5e3e9" d="M680 345c6 8.033 13.436 18.645 17 28 3.237 8.496 6.458 10.799-4.5 12-6.642-12.317-13.951-23.921-22.5-35 3.569-3.483 4.702-8.576 10-5"/><path fill="#005579" d="M485 347c-2.018 4.005-4.259 10.601-5 15-73.014 5.916-111.166 56.632-109 128 1.185 39.047 12.147 70.139 41 97l-6 9c-43.196-40.588-62.952-100.93-44-159 17.488-53.584 67.659-87.294 123-90"/><path fill="#005f86" d="m650 428-15 4c-9.93-24.021-29.468-45.334-48-63-.377-6.153-1.78-12.676-5-18l3-2c28.478 20.991 51.855 45.488 65 79"/><path fill="#0cabc9" d="M410 353c-23.836 12.271-51.08 37.428-64 61 1.011-9.228 8.306-18.085 14-25 14.409-17.498 29.532-26.426 49-37z"/><path fill="#9dc3d1" d="M236 404c-5.754 31.939-20.65 111.404 0 137.5 11.314 14.298 33.031 8.228 49 9.5 35.352 118.253 151.307 193.71 274 164 6.537 12.13.446 48.962 5 58l-5 6c-31.007-9.52-77.271-7.222-108 3-17.75-1.902-43.784 18.655-45 36-35.448-3.439-47.27-38.189-65-62.5-13.823-18.954-89.824-107.52-105.5-117.5-2.899-1.846-5.781-3.649-9.5-3-15.092-46.272-25.657-87.572-50-130.5-2.324-4.098-5.893-11.132-10-13.5-2.349-5.553-12.701-28.361-16.5-31-1.214-.843-1.417 1.036-1.5 1-1.589-.693-3.231-2.076-5-2-.038-1.269 1.01-1.107 2-1 1.628.176 3.03 1.54 4 .5 1.639-1.759 11.305-39.081 14-46 7.209-18.506 16.431-37.127 26-54.5l2 21.5c8.373 18.584 25.523 25.409 45 24.5"/><path fill="#d2eaf6" d="M332 368c-22.498 37.137-32.526 79.524-30 123-.756 11.784-6.295 2.789-11 12-5.355-52.278 6.452-98.117 34-142z"/><path fill="#098dae" d="M480 362c-.322 1.91-.984 2.843-1 3-71.83 7.43-105.948 54.566-105 125h-3c-2.166-71.368 35.986-122.084 109-128"/><path fill="#bddce5" d="M301 365c-28.667 56.307-33.049 121.621-16 182 .31 1.098-.32 2.928 0 4-15.969-1.272-37.686 4.798-49-9.5-20.65-26.096-5.754-105.561 0-137.5 12.765-.595 23.305-5.493 34.5-11z"/><path fill="#1fc6de" d="M635 432c4.482 10.841 10.625 33.548 11 45h-4c-1.424-37.417-25.573-79.431-55-102 .025-.356.018-5.701 0-6 18.532 17.666 38.07 38.979 48 63"/><path fill="#067dae" d="M642 477c3.725 97.888-113.104 148.143-191 96-17.14-11.474-35.606-34.47-35-56 .411-.71 1.831-2.952 3-1.5 12.205 29.306 41.855 54.202 73 60.5 99.229 20.065 166.885-63.813 114-154-6.519-11.117-13.532-21.104-23-30 1.798-4.866 3.647-11.884 4-17 29.427 22.569 53.576 64.583 55 102"/><path fill="#0fa6c2" d="M481 382c-80.662 4.091-108.642 90.088-79 157l-2 2c-24.958-54.698-11.924-135.625 51.5-157 9.509-3.205 20.197-2.491 28.5-7 .258 2.244.592 3.14 1 5"/><path fill="#01324d" d="M360 389c-5.694 6.915-12.989 15.772-14 25-9.055 16.52-7.919 21.553-10 40-3.779 33.501-3.727 56.982 9 89l-2 3c-24.417-59.063-18.341-114.286 15-168 5.257 3.269-1.742 5.57 2 11"/><path fill="#09263e" d="M170 380c-7.261 16.249-15.899 41.282-21 58.5-1.837 6.2-3.536 12.998-4 19.5-.99-.107-2.038-.269-2 1-5.965.255-12.222 4.153-17 7.5 1.716 2.493 3.886 2.664 6 5.5 3.894 5.222 7.642 11.527 9 18h-1c-2.136-4.975-7.88-17.385-12.5-20-12.354-6.993-29.714 5.4-36.5 15.5-.197.294 2.906.545 2 2-.547.879-2.922-.076-4 2-1.551 2.987-2.293 8.176-5 11 6.294 2.128 8.498-12.93 10-15 1.506-2.075 14.066-10.287 16.5-10.5 20.551-1.796 25.46 55.003 29.5 69 .201 5.298 1.666 10.077 2 15 1.526 22.464 4.427 44.807 8 67-.338 29.391 12.063 67.029 13 97.5.306 9.962.183 16.027-5 24.5-13.959 4.51-18.707-14.04-30.5-17 4.518 21.574 41.142 35.828 52.5 16.5 3.109-5.29 3.848-11.707 5.5-17.5 1.49 8.267-1.781 17.454-7.5 23.5.32 3.556 4.75.523 5 .5 6.363-.575 12.297-2.181 18-5 16.109-7.963 11.516-14.398 11-30-1.059-31.99-7.768-69.478-14-101-5.317-26.891-12.483-53.664-20-80-3.289-11.522-6.004-22.648-10-34-3.755-10.667-6.789-19.821-12-30-2.355-4.599-4.516-9.095-8-13 .083.036.286-1.843 1.5-1 3.799 2.639 14.151 25.447 16.5 31 15.919 37.628 27.395 90.019 35 130.5 4.5 23.954 17.535 97.429 13 118-1.819 8.25-11.625 8.007-14 14.5-2.805-2.265-4.011-.119-5 0-22.41 2.705-43.387 11.929-62-8.5-9.649-10.59-40.198-58.4-46-72-20.71-48.543-28.644-147.556 4-192 12.405-16.889 19.054-10.734 32.5-15.5 5.396-1.913 12.518-8.661 19.5-9.5 5.616-26.579 15.678-51.621 26-76.5zm-39 246c1.823 10.625 3.605 21.303 5 32 3.267 25.056 8.346 52.483 4 77.5 3.709 6.459 13.429 15.321 19 6 .231-.386-.083-8.287 0-9 2.594-22.275-4.027-50.317-7-74.5-1.434-11.663-3.437-23.36-5-35-3.789-28.223-10.861-120.295-26-139.5-11.181-14.184-30.536 9.148-29 16 .216.963 5.214 4.502 6 6 17.285 32.917 26.662 83.559 33 120.5M87 503c-10.157 4.117-1.582 11.27 1 19l-1 1c-.367-.934-.79-2.569-1-3-.57-1.174-3.873-7.019-4.5-7-6.172 14.833-7.666 31.88-8.5 48-.28 5.398-1.225 10.441-1 16-.824 16.617.353 31.717 3 48 1.116 6.868 3.162 13.336 5 20 7.566 27.433 18.336 48.321 37 70 1.562 1.814 2.621 2.539 4 4 4.69 4.97 16.601 23.174 19 8.5 3.843-23.51-8.078-84.954-13-110.5-.319-1.658-.668-3.336-1-5-3.059-15.335-23.382-105.964-34.5-110-1.99-.723-3.23.485-4.5 1"/><path fill="#005f86" d="M481 382c.07.318-.079.687 0 1-14.301 6.039-27.985 9.116-40.5 19-34.358 27.134-40.693 85.946-26.5 125 .347 10.841 11.745 26.278 19 34-3.64-1.381-8.811 6.193-10 9-9.331-10.332-15.294-18.121-21-31-29.642-66.912-1.662-152.909 79-157"/><path fill="url(#b)" d="M505 414c-55.438-1.538-87.697 59.39-52 103.5 36.595 45.22 120.559 22.798 117-38.5 12.029-14.571 7.44-36.117-11-43-5.291-5.556-16.022-13.425-23-16 13.445.055 28.168-3.343 38-13 56.109 61.517 32.991 154.82-55.5 163-4.871.45-22.027-3.602-18.5 3-.427.01-5.487 3.26-8 3-31.145-6.298-60.795-31.194-73-60.5-1.169-1.452-2.589.79-3 1.5-.614 1.06-2.026 9.183-2 10-14.193-39.054-7.858-97.866 26.5-125 12.515-9.884 26.199-12.961 40.5-19 3.798 15.108 10.608 23.393 24 31" style="fill:url(#b)"/>/&gt;<path fill="#001d36" d="M661 383c39.286 68.626 33.756 153.158-19 213-19.514 22.135-44.153 37.479-72 47l-1-2c40.197-14.418 82.244-52.63 99-92 8.625-20.265 12.727-41.009 14-63 2.083-35.966-4.852-69.806-23-101z"/><path fill="#1dcee1" d="m606 422-2 1c-5.573-9.677-13.481-19.833-22-27 .221-.491.32-2.159 1-4 9.468 8.896 16.481 18.883 23 30"/><path fill="#06324c" d="M716 405c4.082 9.887 7.209 26.235 9 37 11.358 68.262-9.332 133.692-56 184l-1-1c10.934-12.16 21.278-27.588 29-42 31.355-58.52 35.623-126.145 11-188 2.915-4.386 5.319 7.987 6 9.5.41.911 1.946.369 2 .5"/><path fill="#0f89bd" d="M604 423c46.269 80.333-2.726 157.28-93.5 153-2.996-.141-7.34-3.077-10.5-3-3.527-6.602 13.629-2.55 18.5-3 88.491-8.18 111.609-101.483 55.5-163 1.568-1.54 7.224-9.281 8-11 8.519 7.167 16.427 17.323 22 27"/><path fill="#002643" d="M505 414c6.057.168 25.389 3.929 31 6 6.978 2.575 17.709 10.444 23 16-35.171-13.128-48.157 31.061-24.5 47 10.765 7.253 26.822 6.511 35.5-4 3.559 61.298-80.405 83.72-117 38.5-35.697-44.11-3.438-105.038 52-103.5m19.5 81c-12.012 2.649-4.817 22.07 8 16 8.935-4.232 3.474-18.53-8-16"/><path fill="#3cf3f9" d="M492 576c2.513.26 7.573-2.99 8-3 3.16-.077 7.504 2.859 10.5 3 90.774 4.28 139.769-72.667 93.5-153l2-1c52.885 90.187-14.771 174.065-114 154"/><path fill="#0578a7" d="M655 443c6.241 23.833 6.865 50.973 1 75l-15-6c2.552-9.495 5.318-25.276 5-35-.375-11.452-6.518-34.159-11-45l15-4c1.91 4.868 3.674 9.935 5 15"/><path fill="#fdfefe" d="M559 436c18.44 6.883 23.029 28.429 11 43-8.678 10.511-24.735 11.253-35.5 4-23.657-15.939-10.671-60.128 24.5-47"/><path fill="#33c8e2" d="M362 437c-18.952 58.07.804 118.412 44 159 21.584 20.281 43.264 35.488 72 44l15 9c-20.355-1.692-40.326-6.905-59-15 7.734-11.375 3.19-7.661-5-14-15.473-11.976-34.174-26.885-46-42.5-28.669-37.855-40.701-95.829-23-140.5.097-.023.895-2.678 2 0"/><path fill="#1888a5" d="M360 437c-17.701 44.671-5.669 102.645 23 140.5 11.826 15.615 30.527 30.524 46 42.5-3.713 2.265-3.078 7.334-8 7-33.34-18.239-61.83-48.352-76-84-12.727-32.018-12.779-55.499-9-89l5.5 7c8.735-6.339 11.013-15.224 15.5-24 .952-.123 2.108.207 3 0"/><path fill="#5b848d" d="M717 583c-28.169 62.589-91.308 115.851-158 132-122.693 29.71-238.648-45.747-274-164-.32-1.072.31-2.902 0-4l9-6c46.171 163.361 259.303 209.721 375 85 46.668-50.308 67.358-115.738 56-184l8-4c8.877 47.866 4.026 100.504-16 145"/><path fill="#37f3f8" d="M658 442c35.137 134.664-117.093 225.401-222 144l2-1c28.385 21.896 64.317 30.795 100 28 49.897-3.908 105.888-45.378 118-95 5.865-24.027 5.241-51.167-1-75z"/><path fill="#fbfdfd" d="M143 459c1.769-.076 3.411 1.307 5 2 3.484 3.905 5.645 8.401 8 13-7.681-6.516-15.639-8.901-24-2-2.114-2.836-4.284-3.007-6-5.5 4.778-3.347 11.035-7.245 17-7.5"/><path fill="#0a2d43" d="M862 461c-2.842.981-5.052 3.33-7 5.5-20.875 23.257-49.436 161.621-56 198.5-3.37 18.934-7.686 40.981-9 60-.376 5.439-2.068 18.574 0 23-2.944-6.266-2.313-13.671-2-21.5 2.057-51.456 30.673-188.488 51-235.5 3.097-7.164 13.168-25.467 19-30 .954-.741 3.448-2.054 4 0"/><path fill="#fafdfd" d="M877 463c4.131 1.447 8.054 3.613 12 5.5 0 .548-8.706 3.394-10 4.5-6.974-6.782-19.713-3.782-26 2.5-14.686 14.676-46.816 161.727-52 190.5l-2-1c6.564-36.879 35.125-175.243 56-198.5 1.948-2.17 4.158-4.519 7-5.5 1.526-.527 1.889-.988 2-1 3.726-.389 9.397 1.738 13 3"/><path fill="#07263e" d="M913 711c1.854-2.671 3.319-7.26 5-10 11.424-18.619 21.251-35.205 26-57 3.645-11.912 6.792-25.098 8-37.5 2.232-22.913 1.764-75.363-11-93.5-.76-1.08-.801-1.89-2-3-1.111-1.028-1.218-2.11-3-3-4.627-2.31-7.686-3.018-12.5 0-12.396 7.771-33.773 97.938-37.5 116-8.031 38.917-16.038 80.176-13 120h-1c.004-.125-2.01-.789-2-1.5.703-49.744 19.573-196.977 50-235 1.459-1.823 6.759-3.413 7-4 2.079-5.077-20.939-33.189-34-15-14.963 20.837-21.288 103.597-26 132-5.111 30.806-24.259 100.504-19 128 2.875 15.03 19.829 6.716 23-1.5l1 1c-3.09 2.393-4.239 10.856-13 12-4.39.573-7.432.234-10-3.5-7.208-10.483 1.019-57.191 3-71.5 3.004-21.7 7.577-43.333 11-65 2.618-16.569 4.163-33.51 7-50 3.456-20.088 6.574-46.585 13-65.5 2.734-8.048 6.951-18.534 14-23.5 4.39-1.132 7.659-2.227 12.5-1 3.98 1.008 10.608 9.391 14 4-11.663-7.4-22.711-15.295-37.5-11-10.702 3.108-16.672 21.373-19 31 .104-.386-.98-4.673 0-8 1.339-4.545 8.588-19.084 12-22 1.294-1.106 10-3.952 10-4.5-3.946-1.887-7.869-4.053-12-5.5v-1c23.502 11.864 42.494 4.877 59 32.5 17.878 29.919 22.521 61.316 20 96-3.006 41.344-16.062 88.556-43 120.5m9.5-225c4.497 7.124 6.294 16.079 14 20-.661-8.469-6.707-16.308-14-20"/><path fill="#c7e8f7" d="M140 490c.76 1.771 1.297 4.08 2 6-9.738-2.443-.249 12.465 0 14.5 1.217 9.93-2.413 22.631-2 33.5-4.04-13.997-8.949-70.796-29.5-69-2.434.213-14.994 8.425-16.5 10.5-1.502 2.07-3.706 17.128-10 15 2.707-2.824 3.449-8.013 5-11 1.078-2.076 3.453-1.121 4-2 .906-1.455-2.197-1.706-2-2 6.786-10.1 24.146-22.493 36.5-15.5 4.62 2.615 10.364 15.025 12.5 20"/><path fill="#bde9f8" d="M156 474c5.211 10.179 8.245 19.333 12 30-4.843.191-7.63-14.618-9.5-15-.81-.165-15.188.712-16.5 1-.316.069-.676-.052-1 0-1.358-6.473-5.106-12.778-9-18 8.361-6.901 16.319-4.516 24 2"/><path fill="url(#c)" d="M879 473c-3.412 2.916-10.661 17.455-12 22-6.275-18.279-22.303 21.391-23 25.5-.838 4.942.611 11.794 0 17l9 22.5c-5.223 24.365-9.302 49.484-14 74-.165.861-.706 1.449-1 3l-27 18.5c-2.372 7.943-6.358 15.753-9 23.5-5.033-.779-1.66-9.336-1-13 5.184-28.773 37.314-175.824 52-190.5 6.287-6.282 19.026-9.282 26-2.5" style="fill:url(#c)"/>/&gt;<path fill="#d5ecf8" d="M897 480c-4.128 1.065-3.729 2.386-8.5 4-3.594-3.882-3.879-7.107-2.5-12 14.789-4.295 25.837 3.6 37.5 11-3.392 5.391-10.02-2.992-14-4-4.841-1.227-8.11-.132-12.5 1"/><path fill="#a4e5f4" d="M897 480c-7.049 4.966-11.266 15.452-14 23.5-6.426 18.915-9.544 45.412-13 65.5l3-30.5c-2.763 5.664-9.128-1.651-14-.5.5-2.624 1.222-5.279 1-8 2.076-8.938 4.608-18.121 7-27 2.328-9.627 8.298-27.892 19-31-1.379 4.893-1.094 8.118 2.5 12 4.771-1.614 4.372-2.935 8.5-4"/><path fill="#35f4f9" d="M646 477c.318 9.724-2.448 25.505-5 35-12.705 47.279-61.922 82.424-110 85-28.094 1.505-57.611-6.392-81-22l1-2c77.896 52.143 194.725 1.888 191-96z"/><path fill="#487b89" d="m147 623-16 3c-6.338-36.941-15.715-87.583-33-120.5-.786-1.498-5.784-5.037-6-6-1.536-6.852 17.819-30.184 29-16 15.139 19.205 22.211 111.277 26 139.5"/><path fill="url(#d)" d="M872 743c-.052 1.717-.531 1.786-1 3-3.171 8.216-20.125 16.53-23 1.5-5.259-27.496 13.889-97.194 19-128 4.712-28.403 11.037-111.163 26-132 13.061-18.189 36.079 9.923 34 15-.241.587-5.541 2.177-7 4-30.427 38.023-49.297 185.256-50 235-.01.711 2.004 1.375 2 1.5" style="fill:url(#d)"/>/&gt;<path fill="#18bddc" d="M668 549c-3.309-1.701 3.531-11.388 3-12.5-.14-.293-5.058-2.157-6-2.5 4.776-13.454 5.67-28.321 11-40.5.98-2.239 3.799-6.158 6-7.5-1.273 21.991-5.375 42.735-14 63"/><path fill="#548a98" d="M922.5 486c7.293 3.692 13.339 11.531 14 20-7.706-3.921-9.503-12.876-14-20"/><path fill="#72d8e8" d="M168 504c3.996 11.352 6.711 22.478 10 34 .264 16.944-7.729 16.678-19 25-.651-3.636-1.325-7.358-2-11-3.882-20.951-8.131-41.801-15-62 1.312-.288 15.69-1.165 16.5-1 1.87.382 4.657 15.191 9.5 15"/><path fill="#3e93a6" d="M142 490c6.869 20.199 11.118 41.049 15 62-1.391-.032-.934 1.049-1 2-4.37-19.415-7.138-39.263-14-58-.703-1.92-1.24-4.229-2-6h1c.324-.052.684.069 1 0"/><path fill="#43eaf6" d="M374 490c1.612 119.679 141.738 172.391 236 111-9.467 10.762-29.281 19.02-43 23-26.057 7.559-57.554 8.193-84 2-21.674-5.076-54.754-23.876-71-39-28.853-26.861-39.815-57.953-41-97z"/><path fill="#7ddbea" d="M867 495c-.98 3.327.104 7.614 0 8-2.392 8.879-4.924 18.062-7 27-2.324 10.005-4.836 19.908-7 30l-9-22.5c.611-5.206-.838-12.058 0-17 .697-4.109 16.725-43.779 23-25.5"/><path fill="#2c4f61" d="M226 635c14.177 43.468 23.099 82.689 48 122.5C341.873 866.011 494.409 902.346 612 864c60.329-19.673 112.392-67.399 143-122.5 23.731-42.72 22.175-77.264 31-123.5 6.09-31.906 22.943-104.708 48.5-125 1.242-.986 2.851-2.058 4.5-2-20.327 47.012-48.943 184.044-51 235.5-.313 7.829-.944 15.234 2 21.5 3.062 6.517 16.307 11.741 23 14-24.582 35.679-53.134 68.276-89 93-21.081 10.385-36.717 21.861-60 31-82.13 32.237-182.547 35.891-268 14-80.947-20.736-156.245-71.582-196-146 2.375-6.493 12.181-6.25 14-14.5 4.535-20.571-8.5-94.046-13-118-7.605-40.481-19.081-92.872-35-130.5 4.107 2.368 7.676 9.402 10 13.5 24.343 42.928 34.908 84.228 50 130.5"/><path fill="#b5e3e9" d="M306 559c-7.298-18.628-12.932-35.807-15-56 4.705-9.211 10.244-.216 11-12 1.219 20.98 6.578 43.218 15 62.5-3.848-.719-9.215 1.841-11 5.5"/><path fill="#81dae9" d="M142 496c6.862 18.737 9.63 38.585 14 58-.023.329.001.668 0 1-3.907-3.011-11.735-.125-14 4-.334-4.923-1.799-9.702-2-15-.413-10.869 3.217-23.57 2-33.5-.249-2.035-9.738-16.943 0-14.5"/><path fill="#fdfdfd" d="M524.5 495c11.474-2.53 16.935 11.768 8 16-12.817 6.07-20.012-13.351-8-16"/><path fill="#bee1f0" d="M126 612c-4.689 3.174-1.987-13.893-6-10.5-2.677 6.779-.83 14.677-2 21.5-.163.95.16 2.049 0 3-.026.156-.67 1.463-1 3-.845 3.937-2.342 11.442-7 12-2.91-18.535-4.628-37.569-8-56 5.142-20.918-1.588-42.432-7-62.5-1.04-3.857-1.45-11.601-4-16-.925-1.596-3.11-2.147-4-3.5 1.27-.515 2.51-1.723 4.5-1 11.118 4.036 31.441 94.665 34.5 110"/><path fill="#cdf1fa" d="M102 585c-3.83-20.939-7.277-42.876-14-63-2.582-7.73-11.157-14.883-1-19 .89 1.353 3.075 1.904 4 3.5 2.55 4.399 2.96 12.143 4 16 5.412 20.068 12.142 41.582 7 62.5"/><path fill="#ccebf5" d="M936 507c-8.809 2.306-12.954 9.933-17 17.5l8 3.5c-2.342 5.755-2.67 9.314-4 15-7.424 31.739-9.675 66.605-15 99-11.016-2.941-15.639-10.57-22-19 3.727-18.062 25.104-108.229 37.5-116 4.814-3.018 7.873-2.31 12.5 0m-18.5 30c-.492-.268-2.655 3.152-1 4 1.819.931 2.085-3.408 1-4m-5 11-3 12c1.535-2.712 5.262-9.206 3-12m-4 18c-3.406 4.853-5.377 12.971-5 19z"/><path fill="#ebfafd" d="M939 510c-6.854 4.767-8.984 10.588-12 18l-8-3.5c4.046-7.567 8.191-15.194 17-17.5 1.782.89 1.889 1.972 3 3"/><path fill="#0c354d" d="M941 513c-5.445-.427-6.347 5.28-8 8-4.99 8.211-6.796 14.66-9 24l-1-2c1.33-5.686 1.658-9.245 4-15 3.016-7.412 5.146-13.233 12-18 1.199 1.11 1.24 1.92 2 3"/><path fill="#0a91c8" d="M656 518c-12.112 49.622-68.103 91.092-118 95-9.061-.188-5.749-8.779-7-16 48.078-2.576 97.295-37.721 110-85z"/><path fill="#cdeef7" d="M86 520c-5.784-2.05-5.164 3.634-5 7.5.7 16.469 12.544 44.592 15 60.5 1.442 9.339-.305 22.545-9.5 27-2.549 1.235-7.817.479-9 1-4.003 1.762 1.61 7.659-2.5 9-2.647-16.283-3.824-31.383-3-48 .153 3.781 1.326 21.587 3.5 23 .89.282 2.267-.889 2.5-1.5 1.158-3.032.457-36.153-5-37.5.834-16.12 2.328-33.167 8.5-48 .627-.019 3.93 5.826 4.5 7"/><path fill="#edf7fa" d="M941 513c12.764 18.137 13.232 70.587 11 93.5-1.208 12.402-4.355 25.588-8 37.5 1.847-8.476 2.332-19.238 3-28 3.31-11.063 2.45-88.577-5-94.5-.621-.493-7.333 1.031-9-.5 1.653-2.72 2.555-8.427 8-8"/><path fill="#1ac9de" d="m451 573-1 2c-6.003-4.005-12.066-8.748-17-14-7.255-7.722-18.653-23.159-19-34-.026-.817 1.386-8.94 2-10-.606 21.53 17.86 44.526 35 56"/><path fill="#a1e0ee" d="M86 520c.21.431.633 2.066 1 3 7.918 20.18 8.602 47.738 14 69-.138-.333-3.98-5.489-5-4-2.456-15.908-14.3-44.031-15-60.5-.164-3.866-.784-9.55 5-7.5"/><path fill="#92c6d3" d="M947 616c-4.513 15.083-20.165 30.788-37 27 4.692-31.449 6.8-67.488 14-98 2.204-9.34 4.01-15.789 9-24 1.667 1.531 8.379.007 9 .5 7.45 5.923 8.31 83.437 5 94.5"/><path fill="#49687a" d="M102 585c3.372 18.431 5.09 37.465 8 56 1.09 6.942 2.927 13.994 4 21l-2 1c-.717-4.983-1.231-10.015-2-15-1.866-12.097-5.271-47.026-9-56-5.398-21.262-6.082-48.82-14-69l1-1c6.723 20.124 10.17 42.061 14 63"/><path fill="#44798c" d="M859 538c-5.826 30.58-10.285 61.419-16 92-.041.22-1.5 1.361-2 4h-2c4.698-24.516 8.777-49.635 14-74 2.164-10.092 4.676-19.995 7-30 .222 2.721-.5 5.376-1 8"/><path fill="#42ddf7" d="M668 549c-16.756 39.37-58.803 77.582-99 92-11.557 4.145-26.284 7.949-38.5 9-8.648.744-31.124-2.169-36.5-1 12.47 1.618 61.122-2.963 72.5-9 8.093-4.294 1.417-8.82.5-16 13.719-3.98 33.533-12.238 43-23 24.027-15.648 45.35-39.813 55-67 .942.343 5.86 2.207 6 2.5.531 1.112-6.309 10.799-3 12.5"/><path fill="#ecf9fa" d="M917.5 537c1.085.592.819 4.931-1 4-1.655-.848.508-4.268 1-4"/><path fill="#b8e7f9" d="M198 618c-1.882 2.024-2.762-1.55-3-2.5-.649-2.593-2.57-16.843-3.5-17.5-7.302 10.363-15.862 6.793-26.5 6-2.463-13.566-3.581-27.489-6-41 11.271-8.322 19.264-8.056 19-25 7.517 26.336 14.683 53.109 20 80"/><path fill="#7dd4e5" d="M870 569c-2.837 16.49-4.382 33.431-7 50l-20 11c5.715-30.581 10.174-61.42 16-92 4.872-1.151 11.237 6.164 14 .5z"/><path fill="#1ccde1" d="M402 539c5.706 12.879 11.669 20.668 21 31 4.653 5.152 9.489 10.749 15 15l-2 1c-16.923-13.131-26.923-25.106-36-45z"/><path fill="#001d39" d="M421 627c4.317 2.361 8.453 5.029 13 7 18.674 8.095 38.645 13.308 59 15 .324.052.672-.043 1 0-.191.042.474 2.571-3 2.5.18 1.112 4.407-.633 2 2.5-27.168-1.587-56.732-11.044-80-25-31.803-19.074-55.927-48.958-70-83l2-3c14.17 35.648 42.66 65.761 76 84"/><path fill="#578193" d="M924 545c-7.2 30.512-9.308 66.551-14 98-.04.266-1.96 4.734-2 5h-1c.331-1.991.676-4.028 1-6 5.325-32.395 7.576-67.261 15-99z"/><path fill="#e9f7fb" d="M912.5 548c2.262 2.794-1.465 9.288-3 12z"/><path fill="#3d6f84" d="M159 563c2.419 13.511 3.537 27.434 6 41 3.5 19.278 6.379 38.737 10 58-2.36.594-1.238 6.013-1 7.5.92 5.741 2.953 11.759 4 17.5l-17-3c-.398-3.775-5.177-22.527-4-24.5 5.278-1.553 11.629-3.595 16 0-2.914-12.041-5.037-24.278-7-36.5-3.048-18.973-10.079-49.991-10-68 .001-.332-.023-.671 0-1 .066-.951-.391-2.032 1-2 .675 3.642 1.349 7.364 2 11"/><path fill="#6ebfd1" d="M156 555c-.079 18.009 6.952 49.027 10 68-5.425 2.84-.843-6.406-4.5-8-.506-.221-10.513.74-11 1-.442.236-.488 8.928-.5 10-3.573-22.193-6.474-44.536-8-67 2.265-4.125 10.093-7.011 14-4"/><path fill="#0578a7" d="M433 561c4.934 5.252 10.997 9.995 17 14 23.389 15.608 52.906 23.505 81 22 1.251 7.221-2.061 15.812 7 16-35.683 2.795-71.615-6.104-100-28-5.511-4.251-10.347-9.848-15-15 1.189-2.807 6.36-10.381 10-9"/><path fill="#eaf8fb" d="M72 577c-.225-5.559.72-10.602 1-16 5.457 1.347 6.158 34.468 5 37.5-.233.611-1.61 1.782-2.5 1.5-2.174-1.413-3.347-19.219-3.5-23"/><path fill="#f3f9fa" d="m908.5 566-5 19c-.377-6.029 1.594-14.147 5-19"/><path fill="#5f8da8" d="M697 583c-7.722 14.412-18.066 29.84-29 42-60.555 67.341-157.747 89.02-242 56-4.619-5.669 1.612-10.872 2-17 85.157 34.597 175.781 11.657 236-56 4.21-4.73 20.752-28.44 22.5-29 3.196-1.024 7.309 3.509 10.5 4"/><path fill="#1a84b3" d="M412 587c16.246 15.124 49.326 33.924 71 39l-5 14c-28.736-8.512-50.416-23.719-72-44z"/><path fill="#b4d3e1" d="M101 592c3.729 8.974 7.134 43.903 9 56-4.311-5.075-9.01-1.107-15.5-2-6.425-.884-7.924-7.037-14.5-1-1.838-6.664-3.884-13.132-5-20 4.11-1.341-1.503-7.238 2.5-9 1.183-.521 6.451.235 9-1 9.195-4.455 10.942-17.661 9.5-27 1.02-1.489 4.862 3.667 5 4"/><path fill="#b5e3e9" d="M664 608c-60.219 67.657-150.843 90.597-236 56-10.726-4.358-20.74-11.166-31-16.5l16-18.5c23.268 13.956 52.832 23.413 80 25 27.77 1.622 51.002-2.111 77-11 27.847-9.521 52.486-24.865 72-47z"/><path fill="url(#e)" d="M198 618c6.232 31.522 12.941 69.01 14 101-4.254.634-23.706 15.206-26 9.5-.249-2.745.354-5.827 0-8.5-2.685-20.302-7.286-38.24-11-58-3.621-19.263-6.5-38.722-10-58 10.638.793 19.198 4.363 26.5-6 .93.657 2.851 14.907 3.5 17.5.238.95 1.118 4.524 3 2.5" style="fill:url(#e)"/>/&gt;<path fill="#88adbe" d="M126 612c.332 1.664.681 3.342 1 5-1.587 6.724-2.123 6.38-9 6 1.17-6.823-.677-14.721 2-21.5 4.013-3.393 1.311 13.674 6 10.5"/><path fill="#5494a8" d="M166 623c1.963 12.222 4.086 24.459 7 36.5-4.371-3.595-10.722-1.553-16 0-1.177 1.973 3.602 20.725 4 24.5 1.24 11.758 6.793 53.974 1 61.5-.83 1.078-2.73 2.09-4 2.5 5.183-8.473 5.306-14.538 5-24.5-.937-30.471-13.338-68.109-13-97.5.012-1.072.058-9.764.5-10 .487-.26 10.494-1.221 11-1 3.657 1.594-.925 10.84 4.5 8"/><path fill="#468594" d="M944 644c-4.749 21.795-14.576 38.381-26 57l-21 22.5c3.612-25.177 7.23-50.357 11-75.5.04-.266 1.96-4.734 2-5 16.835 3.788 32.487-11.917 37-27-.668 8.762-1.153 19.524-3 28"/><path fill="#4e8292" d="M121 719c-.414-19.29-4.095-38.032-7-57-1.073-7.006-2.91-14.058-4-21 4.658-.558 6.155-8.063 7-12 6.096 2.647 13.506 4.903 9.5-4l-8.5 1c.16-.951-.163-2.05 0-3 6.877.38 7.413.724 9-6 4.922 25.546 16.843 86.99 13 110.5-2.399 14.674-14.31-3.53-19-8.5"/><path fill="#5e8799" d="M786 618c-8.825 46.236-7.269 80.78-31 123.5-30.608 55.101-82.671 102.827-143 122.5-5.815-6.301-2.026-20.13-10-24 2.892-6.879 4.48-12.466 4-20 15.595-14.842 1.115-47.397 2-67.5 1.313-29.804 37.032-36.704 58.5-49.5 19.718-11.753 39.225-24.455 57-39 19.319-15.809 37.214-42.084 62.5-46"/><path fill="#598497" d="M863 619c-3.423 21.667-7.996 43.3-11 65-2.504-.889-17.511-10.55-18-11.5-.895-1.74 6.048-33.475 7-38.5.5-2.639 1.959-3.78 2-4z"/><path fill="#23a0bc" d="M434 634c-4.547-1.971-8.683-4.639-13-7 4.922.334 4.287-4.735 8-7 8.19 6.339 12.734 2.625 5 14"/><path fill="#376273" d="M147 623c1.563 11.64 3.566 23.337 5 35h-16c-1.395-10.697-3.177-21.375-5-32z"/><path fill="url(#f)" d="M908 642c-.324 1.972-.669 4.009-1 6-4.514 27.154-10.61 54.124-14 81.5-6.025 3.787-12.8 14.675-20 13.5-3.038-39.824 4.969-81.083 13-120 6.361 8.43 10.984 16.059 22 19" style="fill:url(#f)"/>/&gt;<path fill="#34b8e3" d="M567 624c.917 7.18 7.593 11.706-.5 16-11.378 6.037-60.03 10.618-72.5 9-.328-.043-.676.052-1 0l-15-9 5-14c26.446 6.193 57.943 5.559 84-2"/><path fill="#88adbe" d="M117 629c.33-1.537.974-2.844 1-3l8.5-1c4.006 8.903-3.404 6.647-9.5 4"/><path fill="#315668" d="M841 634c-.952 5.025-7.895 36.76-7 38.5.489.95 15.496 10.611 18 11.5-1.981 14.309-10.208 61.017-3 71.5 2.568 3.734 5.61 4.073 10 3.5l5 2c-16.42 7.943-31.72 7.939-39-11.5-1.658-4.427-.681-12.393-4-15.5-.018-.661-.002-1.339 0-2 .086-27.251 11.715-67.103 17-95 .294-1.551.835-2.139 1-3z"/><path fill="#7ea7b7" d="M406 818c-1.896 27.031 16.732 47.244 44 46 10.75 2.802 25.818 4.46 37 5-1.983 2.881.674 1.944 2.5 2 32.757 1.007 97.469 4.753 112.5-31 7.974 3.87 4.185 17.699 10 24-117.591 38.346-270.127 2.011-338-106.5-24.901-39.811-33.823-79.032-48-122.5 3.719-.649 6.601 1.154 9.5 3 15.676 9.98 91.677 98.546 105.5 117.5 17.73 24.311 29.552 59.061 65 62.5"/><path fill="#507a8e" d="M838 637c-5.285 27.897-16.914 67.749-17 95-10.795-.581-19.376-7.331-28-13 2.754-14.26 4.198-25.917 9-40 2.642-7.747 6.628-15.557 9-23.5z"/><path fill="#013451" d="m569 641 1 2c-25.998 8.889-49.23 12.622-77 11 2.407-3.133-1.82-1.388-2-2.5 3.474.071 2.809-2.458 3-2.5 5.376-1.169 27.852 1.744 36.5 1 12.216-1.051 26.943-4.855 38.5-9"/><path fill="#77a5b5" d="M110 648c.769 4.985 1.283 10.017 2 15 2.458 17.074 7.112 34.805 5 52-18.664-21.679-29.434-42.567-37-70 6.576-6.037 8.075.116 14.5 1 6.49.893 11.189-3.075 15.5 2"/><path fill="#1f4657" d="M918 701c-1.681 2.74-3.146 7.329-5 10-6.204 8.94-13.717 16.045-21 24-.818.893-1.998 1.957-3 3-3.469 2.924-14.491 7.057-17 9l-1-1c.469-1.214.948-1.283 1-3h1c7.2 1.175 13.975-9.713 20-13.5 3.39-27.376 9.486-54.346 14-81.5h1c-3.77 25.143-7.388 50.323-11 75.5z"/><path fill="#214a5f" d="M152 658c2.973 24.183 9.594 52.225 7 74.5-.083.713.231 8.614 0 9-5.571 9.321-15.291.459-19-6 4.346-25.017-.733-52.444-4-77.5z"/><path fill="#23495a" d="M121 719c-1.379-1.461-2.438-2.186-4-4 2.112-17.195-2.542-34.926-5-52l2-1c2.905 18.968 6.586 37.71 7 57"/><path fill="#234055" d="M186 720c-5.879-8.692-6.09-22.531-8-33-1.047-5.741-3.08-11.759-4-17.5-.238-1.487-1.36-6.906 1-7.5 3.714 19.76 8.315 37.698 11 58"/><path fill="#83b8cc" d="M801 666c-.66 3.664-4.033 12.221 1 13-4.802 14.083-6.246 25.74-9 40-.415 2.15-.792 6.518-3 6 1.314-19.019 5.63-41.066 9-60z"/><path fill="#315668" d="M178 687c1.91 10.469 2.121 24.308 8 33 .354 2.673-.249 5.755 0 8.5 2.294 5.706 21.746-8.866 26-9.5.516 15.602 5.109 22.037-11 30-5.279-1.192-13.77 1.499-18 5-.25.023-4.68 3.056-5-.5 5.719-6.046 8.99-15.233 7.5-23.5-1.652 5.793-2.391 12.21-5.5 17.5-11.358 19.328-47.982 5.074-52.5-16.5 11.793 2.96 16.541 21.51 30.5 17 1.27-.41 3.17-1.422 4-2.5 5.793-7.526.24-49.742-1-61.5z"/><path fill="#345a6b" d="M821 732c-.002.661-.018 1.339 0 2 .292 10.959 2.874 19.287 7.5 29-3.712 2.029-36.24-10.164-38.5-15-2.068-4.426-.376-17.561 0-23 2.208.518 2.585-3.85 3-6 8.624 5.669 17.205 12.419 28 13"/><path fill="#08253e" d="M864 761c13.799-6.675 15.427-13.04 25-23 1.002-1.043 2.182-2.107 3-3-17.262 35.266-42.885 38.237-78 27-.303-.097-.701.101-1 0-6.693-2.259-19.938-7.483-23-14 2.26 4.836 34.788 17.029 38.5 15-4.626-9.713-7.208-18.041-7.5-29 3.319 3.107 2.342 11.073 4 15.5 7.28 19.439 22.58 19.443 39 11.5"/><path fill="#285468" d="M889 738c-9.573 9.96-11.201 16.325-25 23l-5-2c8.761-1.144 9.91-9.607 13-12 2.509-1.943 13.531-6.076 17-9"/><path fill="#377085" d="M201 749c-5.703 2.819-11.637 4.425-18 5 4.23-3.501 12.721-6.192 18-5"/><path fill="#95cfda" d="M200 754c39.755 74.418 115.053 125.264 196 146v4c-80.892-20.521-147.072-66.086-193-136-2.673-4.634-6.098-8.897-8-14 .989-.119 2.195-2.265 5 0"/><path fill="#98cfde" d="M813 762c.299.101.697-.097 1 0-2.075 9.086-8.875 16.445-14 24-20.497 25.634-41.468 47.537-68 67-1.989-.739-6.445 1.234-8 2 35.866-24.724 64.418-57.321 89-93"/><path fill="#051e36" d="M396 904c58.902 14.942 120.675 18.384 181 10 55.948-7.776 109.535-27.647 155-61 26.532-19.463 47.503-41.366 68-67-129.345 190.645-481.159 182.821-597-18 45.928 69.914 112.108 115.479 193 136"/><path fill="#00233c" d="M559 779c31.223 9.586 56.665 39.804 31 70.5-14.577 17.434-80.983 20.563-103 19.5-11.182-.54-26.25-2.198-37-5-51.014-13.299-48.695-65.469 1-82 30.729-10.222 76.993-12.52 108-3m-90 3c-15.141 3.003-37.509 8.214-46 22.5-12.158 20.455-5.274 42.018 17 50.5 28.27 10.765 81.655 8.697 111.5 3 18.775-3.584 37.691-8.843 40.5-31 6.815-53.759-89.342-51.676-123-45"/><path fill="#bfe0eb" d="M606 820c.48 7.534-1.108 13.121-4 20-15.031 35.753-79.743 32.007-112.5 31-1.826-.056-4.483.881-2.5-2 22.017 1.063 88.423-2.066 103-19.5 25.665-30.696.223-60.914-31-70.5l5-6c1.506 2.988 15.953 9.1 19.5 12 10.099 8.255 21.648 21.637 22.5 35"/><path fill="#1a7c97" d="M592 827c-5.876-3.704-4.593-13.756-9-19.5-1.641.389-1.958 4.201-2 5.5-21.425-32.032-88.579-34.038-122-24 .724-5.268 11.219-1.463 10-7 33.658-6.676 129.815-8.759 123 45"/><path fill="#c5e5ef" d="M451 782c-49.695 16.531-52.014 68.701-1 82-27.268 1.244-45.896-18.969-44-46 1.216-17.345 27.25-37.902 45-36"/><path fill="#126582" d="M469 782c1.219 5.537-9.276 1.732-10 7-19.991 6.004-37.572 19.469-27 42 1.187 3.685 4.12 5.804 7 8-.059 5.446 1.193 10.57 1 16-22.274-8.482-29.158-30.045-17-50.5 8.491-14.286 30.859-19.497 46-22.5"/><path fill="#002743" d="M581 813c-.193 6.036 2.878 13.762-1.5 19-.704-.007-1.347-3.802-1.5-4 3.95-4.187 1.37-11.252-1-15.5-17.138-30.717-163.433-38.723-145 18.5-10.572-22.531 7.009-35.996 27-42 33.421-10.038 100.575-8.032 122 24"/><path fill="#0b415e" d="M578 828c-1.216-1.575-2.701-3.525-4-5 2.484-1.189.436-2.845-.5-4-22.266-27.462-63.275-29.218-94-24-5.3.9-16.617 1.604-19.5 9-14.929 8.384-20.819 18.262-21 35-2.88-2.196-5.813-4.315-7-8-18.433-57.223 127.862-49.217 145-18.5 2.37 4.248 4.95 11.313 1 15.5"/><path fill="#032f4e" d="M574 823c-24.233-27.523-82.143-36.89-114-19 2.883-7.396 14.2-8.1 19.5-9 30.725-5.218 71.734-3.462 94 24 .936 1.155 2.984 2.811.5 4"/><path fill="#2287a2" d="M574 823c1.299 1.475 2.784 3.425 4 5 .153.198.796 3.993 1.5 4 4.378-5.238 1.307-12.964 1.5-19 .042-1.299.359-5.111 2-5.5 4.407 5.744 3.124 15.796 9 19.5-2.809 22.157-21.725 27.416-40.5 31-29.845 5.697-83.23 7.765-111.5-3 .193-5.43-1.059-10.554-1-16 .181-16.738 6.071-26.616 21-35 31.857-17.89 89.767-8.523 114 19"/><path fill="#7ab1c1" d="M732 853c-45.465 33.353-99.052 53.224-155 61 6.941-4.687 18.228-4.234 26.5-6 14.559-3.109 44.251-10.523 57-17 2.627-1.335 4.315-1.012 3.5-5 23.283-9.139 38.919-20.615 60-31 1.555-.766 6.011-2.739 8-2"/><path fill="#60909d" d="M577 914c-60.325 8.384-122.098 4.942-181-10v-4c85.453 21.891 185.87 18.237 268-14 .815 3.988-.873 3.665-3.5 5-12.749 6.477-42.441 13.891-57 17-8.272 1.766-19.559 1.313-26.5 6"/></svg>