<svg xmlns="http://www.w3.org/2000/svg" width="1024" height="1024"><defs><linearGradient id="a" x1="283.32" x2="793.139" y1="358.12" y2="392.843" gradientUnits="userSpaceOnUse"><stop offset="0%" style="stop-color:#629ba9"/><stop offset="78.865%" style="stop-color:#d0f4fb"/></linearGradient></defs><defs><linearGradient id="b" x1="417.976" x2="604.574" y1="310.802" y2="564.586" gradientUnits="userSpaceOnUse"><stop offset="0%" style="stop-color:#002b5a"/><stop offset="64.127%" style="stop-color:#004176"/><stop offset="91.429%" style="stop-color:#127fac"/></linearGradient></defs><defs><linearGradient id="c" x1="431.717" x2="597.094" y1="414.232" y2="477.315" gradientUnits="userSpaceOnUse"><stop offset="0%" style="stop-color:#1a9cd1"/><stop offset="84.181%" style="stop-color:#58e2fa"/></linearGradient></defs><defs><linearGradient id="d" x1="505.488" x2="525.525" y1="781.965" y2="827.775" gradientUnits="userSpaceOnUse"><stop offset="0%" style="stop-color:#02b7da"/><stop offset="100%" style="stop-color:#0376aa"/></linearGradient></defs><path fill="#123c57" d="M219 179c2.068-.012 6.182-1.083 6.5-1 .47.123 4.709 6.806 5.5 8 5.276 7.96 8.972 17.833 14 26 1.649 10.429 26.182 43.122 23 51-6.031-9.151-38.02-79.226-42-81.5-1.709-.977-19.982 1.662-30.5-3.5-42.124-20.676-10.61-87.616 32.5-75.5-31.317-2.709-59.928 24.03-48 56 7.121 19.087 21.936 20.597 39 20.5"/><path fill="#0f3c54" d="M755 256c-2.511-6.759 18.158-31.244 18-41 5.094-8.532 9.836-20.291 15-28 .786-1.173 6.499-8.729 7-9 20.4 10.722 41.839-2.814 47-24 9.165-37.625-36.209-65.212-65.5-41-14.624 12.088-16.942 34.12-3.5 48 2.072 7.923-.579 9.715-6 17-5.063 6.804-40.261 40.474-47 39 9.489-4.522 54.485-44.796 53-52.5-.179-.926-8.685-10.369-10-16-8.506-36.42 32.041-57.904 62.5-39.5 40.05 24.199 17.597 87.759-29 72z"/><path fill="#0b3247" d="M308 219c-.17.113 1.1 2.714-3.5 2-6.811-3.455-12.464-8.475-18.5-13-10.093-7.566-23.299-18.593-31-28.5-4.267-5.49-8.689-10.136-8-16.5 1.578.096.768-1.679 1-2 2.354-3.258 6.328-5.705 8-10.5 7.168-20.555-7.049-41.299-27-47 21.205 1.858 34.913 24.449 30 45-1.533 6.411-10.853 15.987-11 17-1.126 7.735 47.854 52.921 60 53.5"/><path fill="#c7e2e9" d="M842 154c.031-2.326-2.821-6.307-3-7 3.351.612 1.086-10.342-1-9-.099-.301.105-.705 0-1 3.258-3.672-2.392-11.384-5-14.5-5.052-6.035-11.947-9.754-18.5-13.5-1.322 2.201 1.316 3.116 2.5 4 .166 1.213-1.692 1.682-2 2-9.416 9.745-9.494 11.867-24 5-.107-.974.064-2.016 0-3l11.5-11c-18.217.039-37.442 16.489-36.5 35.5.324 6.536 5.379 13.302 7 19.5-13.442-13.88-11.124-35.912 3.5-48 29.291-24.212 74.665 3.375 65.5 41"/><path fill="#f3f6f8" d="M217.5 106c4.242-.625 9.047 1.96 13 3 1.858 2.801-6.579 13.754-9 15-6.758 3.477-20.19-.451-16.5-10.5.303-.826 11.064-7.288 12.5-7.5"/><path fill="#487e92" d="M791 117c-23.462 24.239 21.682 54.314 46 44.5-3.977 6.36-11.092 14.524-18.5 16.5-7.016 1.872-21.42-1.126-23.5 0-.501.271-6.214 7.827-7 9-8.534 8.531-37.652 48.299-39 58l-24-24c11.172-1.609 45.904-29.682 49-38.5 2.439-6.945-2.178-3.398-4-3.5-.158-.009-2.496-.979-3-1 5.421-7.285 8.072-9.077 6-17-1.621-6.198-6.676-12.964-7-19.5-.942-19.011 18.283-35.461 36.5-35.5z"/><path fill="#608596" d="M233.5 107c.493-.111 7.354 4.992 4 6-1.963-.96-8.264-5.036-4-6"/><path fill="#678fa5" d="M838 137c-5.05-14.119-10.398-16.087-21-24-1.184-.884-3.822-1.799-2.5-4 6.553 3.746 13.448 7.465 18.5 13.5 2.608 3.116 8.258 10.828 5 14.5"/><path fill="#648c9f" d="M197.5 112c2.089.066-6.336 13.395-7 13-4.591-2.734 3.06-11.677 7-13"/><path fill="#477e92" d="M248 161c-.251.673-.756-.253-1 2-.689 6.364 3.733 11.01 8 16.5 7.701 9.907 20.907 20.934 31 28.5l-3 2c-11.507-9.98-23.026-19.893-33.5-31-1.123.141-2.731-.458-3.5.5-3.674 4.577 44.019 47.753 54 45.5l-25.5 29c-.298.058-3.942-2.527-4.5-3 2.714.622 2.309-3.153 2-4.5-1.685-7.351-28.866-48.567-35-56-1.339-1.623-3.709-4.434-6-4.5-.791-1.194-5.03-7.877-5.5-8-.318-.083-4.432.988-6.5 1-15.675.172-32.565-8.497-37-24.5-1.399-5.048-1.622-27.27 3.5-29.5 5.913-2.574 3.075 10.819 3.5 12.5 7.229 28.604 62.468 11.867 57-15-.296-1.455-8.136-9.744-4.5-9.5 10.594 7.902 15.513 19.271 13.5 32.5-.772 5.072-5.182 10.625-7 15.5"/><path fill="#ebf6f8" d="M838 137c.105.295-.099.699 0 1 .512 1.552.199 5.906 1 9-4.702.642-10.062 11.713-15 6.5-2.683-2.832 1.429-1.896-5-5.5 2.383-5.757-3.044-13.066-3-17.5.06-6.139 8.865-11.117-1-15.5.308-.318 2.166-.787 2-2 10.602 7.913 15.95 9.881 21 24"/><path fill="#94d3e1" d="M819 148c-11.276-6.321-26.188-11.537-28-28 14.506 6.867 14.584 4.745 24-5 9.865 4.383 1.06 9.361 1 15.5-.044 4.434 5.383 11.743 3 17.5"/><path fill="#7fc2d2" d="M791 120c1.812 16.463 16.724 21.679 28 28 6.429 3.604 2.317 2.668 5 5.5 4.938 5.213 10.298-5.858 15-6.5.179.693 3.031 4.674 3 7-5.161 21.186-26.6 34.722-47 24 2.08-1.126 16.484 1.872 23.5 0 7.408-1.976 14.523-10.14 18.5-16.5-24.318 9.814-69.462-20.261-46-44.5.064.984-.107 2.026 0 3"/><path fill="#3c7186" d="M839 147c-.801-3.094-.488-7.448-1-9 2.086-1.342 4.351 9.612 1 9"/><path fill="#195771" d="M720 217c6.739 1.474 41.937-32.196 47-39 .504.021 2.842.991 3 1l-45 42 24 24c-.192 1.384-.18 4.57 1.5 5 2.031.52 20.067-30.924 22.5-35 .158 9.756-20.511 34.241-18 41 1.666 4.486 17 22.714 21 29.5 20.966 35.575 40.077 78.971 46 119.5.056.385-.137 2.951 0 4 .644 4.913-.293 8.362 1 14-4.017-.465-2.709.8-3 3.5-10.213 94.923-14.089 172.224-52 262.5-6.953 16.556-17.336 37.352-27 52.5-.21.329-3.2 5.27 0 4.5-3.978 7.006-6.388 14.927-12 21-1.531 1.656-2.973 3.335-4.5 5-.778-.541-.624-2.583-.5-3.5.382-2.815 23.482-42.407 27-50 3.051-6.585 6.902-15.36 8-22.5 34.613-83.517 52.071-174.531 55-265 1.875-2.263 6.196-3.536 0-6 2.07-4.152 1.826-13.244 2-18 .93-1.573 1.338-3.398 3-4.5-1.141-1.407-1.702-3.743-2-5.5-14.834-87.384-84.645-181.543-165.5-218-146.777-66.18-313.961-21.729-399.5 115-1.653 1.804-4.203 2.811-4 6-1.514 2.553-4.533 6.307-6 9l-7 7.5c5.183-8.407 9.081-18.063 14-26.5 3.661-6.278 17.755-23.919 19-27 3.182-7.878-21.351-40.571-23-51 4.551 7.392 20.312 35.024 25 39 .558.473 4.202 3.058 4.5 3l25.5-29 .5-2c-6.329-3.58-12.042-8.266-17.5-13l3-2c6.036 4.525 11.689 9.545 18.5 13 4.6.714 3.33-1.887 3.5-2 11.252-7.481 22.032-19.089 34.5-27 96.318-61.115 230.644-63.114 330-8 8.33 4.621 44.675 32.382 47.5 33"/><path fill="#fafcfd" d="M817 397c-3.892 5.736-8.87 10.43-13 16-29.883-146.099-123.953-241.621-276-252-95.228-6.5-182.959 19.886-246 93.5-10.7 12.495-19.028 27.527-30 39.5 85.539-136.729 252.723-181.18 399.5-115 80.855 36.457 150.666 130.616 165.5 218"/><path fill="#376c7f" d="m528 161 4.5 4c-79.541-7.314-171.665 16.069-216.5 86.5-42.54 66.826-55.57 160.927-33 237 10.823 36.479 43.292 71.49 67 100.5 4.501 11.922 2.708 32.091 5 45-61.316-47-71.505-92.395-107-155.5-6.72-11.947-39.649-58.028-41-66-2.96-17.467 25.357-85.795 35-103.5 1.467-2.693 4.486-6.447 6-9 .954-1.608 2.721-3.956 4-6 10.972-11.973 19.3-27.005 30-39.5 63.041-73.614 150.772-100 246-93.5"/><path fill="#fefefe" d="M247 163c.244-2.253.749-1.327 1-2-.232.321.578 2.096-1 2"/><path fill="url(#a)" d="M804 413c-24.072 32.465-39.534 72.274-65 103.5-16.64 20.404-37.766 37.158-56.5 55.5-2.45.262-.421-2.098 0-3 6.896-14.758 18.847-28.384 26.5-46 11.367-26.164 18.142-51.061 19-80 1.287-43.402-21.699-129.603-61-154-13.351-15.46-31.172-29.071-49-39-12.881-7.174-24.168-11.458-38-16-113.44-37.25-234.655 21.135-274 134-5.479 15.716-9.602 33.373-11 50-3.793 45.113 5.454 96.714 29 135 5.732 9.32 22.897 27.782 26 36-23.708-29.01-56.177-64.021-67-100.5-22.57-76.073-9.54-170.174 33-237 44.835-70.431 136.959-93.814 216.5-86.5l-4.5-4c152.047 10.379 246.117 105.901 276 252M653.5 202c-2.55 17.84-7.162 30.763 1.5 48.5 9.783 20.034 41.424 49.833 64.5 31.5 9.016-7.162-5.024-15.282-7.5-19.5-.922-1.571-1.434-6.538-3-9-13.951-21.933-33.761-37.785-55.5-51.5" style="fill:url(#a)"/>/&gt;<path fill="#7cbbcc" d="m725 221 45-42c1.822.102 6.439-3.445 4 3.5-3.096 8.818-37.828 36.891-49 38.5"/><path fill="#76b9c9" d="M283 210c5.458 4.734 11.171 9.42 17.5 13l-.5 2c-9.981 2.253-57.674-40.923-54-45.5.769-.958 2.377-.359 3.5-.5 10.474 11.107 21.993 21.02 33.5 31"/><path fill="#77b7c8" d="M270 251c-4.688-3.976-20.449-31.608-25-39-5.028-8.167-8.724-18.04-14-26 2.291.066 4.661 2.877 6 4.5 6.134 7.433 33.315 48.649 35 56 .309 1.347.714 5.122-2 4.5"/><path fill="#78bacb" d="M788 187c-5.164 7.709-9.906 19.468-15 28-2.433 4.076-20.469 35.52-22.5 35-1.68-.43-1.692-3.616-1.5-5 1.348-9.701 30.466-49.469 39-58"/><path fill="#fefeff" d="M653.5 202c21.739 13.715 41.549 29.567 55.5 51.5 1.566 2.462 2.078 7.429 3 9 2.476 4.218 16.516 12.338 7.5 19.5-23.076 18.333-54.717-11.466-64.5-31.5-8.662-17.737-4.05-30.66-1.5-48.5"/><path fill="#224658" d="M580 234c-3.518 5.987-3.311 13.983-11 13-12.366-3.613-25.13-6.776-38-8-16.234-1.544-28.969-1.012-45 1-31.807 3.992-49.784 13.231-77.5 27-1.711.85-1.278-2.833-3-2-36.648 17.735-73.379 70.274-86.5 108l-13-5c39.345-112.865 160.56-171.25 274-134"/><path fill="#4a7889" d="m618 250-7 14c-4.689-2.58-10.09-4.814-15-7-9.038-4.024-17.476-7.218-27-10 7.689.983 7.482-7.013 11-13 13.832 4.542 25.119 8.826 38 16"/><path fill="#005285" d="M531 239c.467 12.021 16.645 18.431 16 32-11.378-2.259-24.398-4.1-36-4-2.011-13.309-21.421-14.642-25-27 16.031-2.012 28.766-2.544 45-1"/><path fill="#016ca0" d="M569 247c9.524 2.782 17.962 5.976 27 10l-4 11c-11.044-3.275-23.996-1.808-33 6-.309-.087-.69.084-1 0-3.756-1.016-7.095-2.225-11-3 .645-13.569-15.533-19.979-16-32 12.87 1.224 25.634 4.387 38 8"/><path fill="#004375" d="M486 240c3.579 12.358 22.989 13.691 25 27-78.157.676-152.05 62.455-167 139l-16-4.5c-1.479 9.098-2.307 18.321-3 27.5-.744 9.846-.631 18.139 0 28h-15c-.974-15.122.489-29.664 2-44.5.149-1.463 1.913-8.655-2-7.5 1.82-10.805 5.408-21.673 9-32 13.121-37.726 49.852-90.265 86.5-108 1.722-.833 1.289 2.85 3 2 27.716-13.769 45.693-23.008 77.5-27m-103.5 45c-2.967 3.551-26.697 25.598-26.5 27.5.034.323 1.17.979 1.5 1.5 2.11-.163 9.248 4.093 10 4 1.509-.186 21.366-19.986 21.5-21.5.058-.658-5.84-11.498-6.5-11.5"/><path fill="#629ba9" d="M667 289c-6.465-4.014-8.706.335-13 7-.198-.059-.808-.064-1 0-12.675-12.152-26.531-23.488-42-32l7-14c17.828 9.929 35.649 23.54 49 39"/><path fill="#0d92be" d="M611 264c15.469 8.512 29.325 19.848 42 32-.52.174-7.877 6.966-8 7.5-.313 1.359 2.11 4.867 3 6.5-14.105-11.958-38.472-36.802-56-42l4-11c4.91 2.186 10.311 4.42 15 7"/><path fill="#fcfdfe" d="M592 268c17.528 5.198 41.895 30.042 56 42 6.705 12.301 13.35 15.901 18 32 3.733 12.922 1.946 21.26 4 32-6.847-14.256-12.391-33.331-21-46.5-14.929-22.837-63.95-46.198-90-53.5 9.004-7.808 21.956-9.275 33-6"/><path fill="url(#b)" d="M511 267c11.602-.1 24.622 1.741 36 4 3.905.775 7.244 1.984 11 3-10.022 8.157-15.139 18.033-19 30-2.676-.434-1.582.93-2 2-.359.92-4.051 11.1-6 7.5l2-22c-3.578-.271-35.369-1.959-36.5-.5-4.55 5.868-.782 18.633-2.5 23.5-.28.792-13.014 5.371-15.5 6.5-35.183 15.976-59.847 39.004-51.5 82.5 6.824 35.56 41.686 51.171 73 57V511c-.027.1-1.745-.367-2 .5-.68 2.31.941 11.478-.5 12.5-9.363 6.639-53.989-15.471-63-23L421 554.5c20.543 18.034 47.249 26.058 74.5 23.5l-1 21c12.246-3.983 25.837-4.498 38 0l.5-25c41.886-8.374 77.567-39.883 74-85.5-.048-.617-1.024-11.669-3-6.5-1.886-22.151-9.543-37.042-28-50-13.463-13.899-32.809-16.598-50-23.5-1.109-2.129-.137-45.886 1-48 .842-1.565 9.057-2.025 10.5-1.5.938.341 6.165 16.544 7.5 18.5 1.265 1.854 2.904 1.363 3 1.5 8.775 12.506 20.112 27.164 33.5 35 38.807 22.714 81.13 9.14 88.5-37 3.483 18.749 10.071 33.897 11 54.5 2.494 55.306-25.74 110.881-70 143.5-35.709 26.317-78.922 36.765-123 31-22.367-2.926-40.378-9.127-60-20-12.128-6.721-24.929-15.38-35-25-34.182-32.652-53.226-79.628-52-127 .224-8.671 1.343-19.515 3-28 14.95-76.545 88.843-138.324 167-139m-118.5 71c-.709-.004-5.753 1.658-7.5 1.5.149 30.94 26.874-1.379 7.5-1.5m-17 40c-4.519.544-15.127 7.446-17.5 11.5-12.426 21.232 21.246 37.933 36 18 10.957-14.804-1.778-31.512-18.5-29.5m-9 53c-8.318 2.074-8.471 20.697 9 18 17.401-2.687 4.338-21.325-9-18m35 6c-1.518-.209-5.867 4.279-2 6 5.086 2.264 5.569-5.508 2-6m225 9c-.293.059-3.377 2.041-3.5 2.5 4.146 40.067 25.107-6.872 3.5-2.5" style="fill:url(#b)"/>/&gt;<path fill="#d1ebf3" d="M670 374c.18.94-.175 2.058 0 3-7.37 46.14-49.693 59.714-88.5 37-13.388-7.836-24.725-22.494-33.5-35-3.593-7.923-6.786-15.507-9-24 1.07-2.301 5.979-.505 7.5 0 2.996.995 14.73 6.343 17 8 5.552 4.052 6.324 11.635 14 12l6.5-43.5c-12.572-8.596-32.606-17.312-48-15.5 1.226-2.907.377-7.723 1-10 .037-.136 1.427-.224 2-2 3.861-11.967 8.978-21.843 19-30 .31.084.691-.087 1 0 26.05 7.302 75.071 30.663 90 53.5 8.609 13.169 14.153 32.244 21 46.5m-53.5-61c-16.72 1.666-8.573 33.142 12 28 15.636-3.908.718-29.267-12-28m23 28c-9.74 2.295-2.419 20.319 7 19 10.24-1.434 5.395-21.92-7-19"/><path fill="#005285" d="M382.5 285c.66.002 6.558 10.842 6.5 11.5-.134 1.514-19.991 21.314-21.5 21.5-.752.093-7.89-4.163-10-4-.33-.521-1.466-1.177-1.5-1.5-.197-1.902 23.533-23.949 26.5-27.5"/><path fill="#4a7889" d="M667 289c39.301 24.397 62.287 110.598 61 154l-14-1c.007-11.397-1.32-20.862-3-32-3.554-23.559-10.691-46.604-22-67.5-1.02-1.884-5.318-9.841-8-9.5-2.334-4.133-.744-4.837-3-8.5-1.97-3.198-22.214-27.971-24-28.5 4.294-6.665 6.535-11.014 13-7"/><path fill="#11445e" d="M242 309c-9.643 17.705-37.96 86.033-35 103.5 1.351 7.972 34.28 54.053 41 66C283.495 541.605 293.684 587 355 634c50.527 38.731 99.574 57.479 164 54 3.377-.182 6.631-.699 10-1 46.604-4.162 94.536-20.122 133-47l1 4c-33.968 23.479-65.236 35.963-106 44-37.272 7.349-63.659 9.037-101 1-15.848-3.411-28.991-8.399-44-14-51.319-26.725-100.395-61.863-129-113.5-23.466-42.359-39.702-83.211-66-126.5-2.107-3.468-3.116-10.787-8-12.5 5.699 102.93 30.002 213.51 75 306.5-2.85.5-2.774-.543-4-2.5-8.793-14.034-11.958-21.957-18-37.5-3.035-7.806-6.304-15.55-9-23.5l-3 3.5c-7.37-15.661-13.071-29.738-19-46l7-3.5-21-85-12-1.5c-3.624-15.41-24.209-105.281-21-113.5 2.713-6.951 15.958-8.603 18-11.5 1.448-2.053.152-8.958 1-12.5 8.547-35.72 26.824-74.538 46-105.5-4.919 8.437-8.817 18.093-14 26.5z"/><path fill="#001832" d="M537 306c-.623 2.277.226 7.093-1 10-.751.088-1.107.132-1 1-1.072-.57-4.857 1.095-6-1.5-1.628-3.696 2.911-21.625 1.5-22.5h-31c-4.028 3.343.065 22.33-.5 23.5-.442.915-5.077 1.121-6 1.5-8.254 3.386-17.801 6.478-25.5 11-53.046 31.155-48.792 94.261 8.5 117 7.875 3.126 18.759 4.149 25 7 .544 15.102 3.897 33.6 2 48.5-.431 3.388-2.379 7.187-3 9.5v-50.5c-31.314-5.829-66.176-21.44-73-57-8.347-43.496 16.317-66.524 51.5-82.5 2.486-1.129 15.22-5.708 15.5-6.5 1.718-4.867-2.05-17.632 2.5-23.5 1.131-1.459 32.922.229 36.5.5l-2 22c1.949 3.6 5.641-6.58 6-7.5"/><path fill="#32dcf6" d="M535 317c1.425.758.889.611 1 2-14.904 2.727-6.505-12.227-8.5-21l-27-1c-2.223 3.224 1.021 20.559.5 21.5-.521.939-5.037 1.105-6 1.5l-2-2c.923-.379 5.558-.585 6-1.5.565-1.17-3.528-20.157.5-23.5h31c1.411.875-3.128 18.804-1.5 22.5 1.143 2.595 4.928.93 6 1.5"/><path fill="#fafcfd" d="M248 300c-.203-3.189 2.347-4.196 4-6-1.279 2.044-3.046 4.392-4 6"/><path fill="#016ca0" d="M681 333c6.388 11.313 12.334 22.823 17 35l-13 6c-4.216-10.219-11.82-23.869-19-32-4.65-16.099-11.295-19.699-18-32-.89-1.633-3.313-5.141-3-6.5.123-.534 7.48-7.326 8-7.5.192-.064.802-.059 1 0 1.786.529 22.03 25.302 24 28.5 2.256 3.663.666 4.367 3 8.5"/><path fill="url(#c)" d="M536 319c.973 12.157-1.152 20.067 2 34-2.495.088-8.533-.293-10.5 1-4.788 3.146-3.553 48.442-2.5 56.5.208.501 2.331.859 3 1.5 4.829 4.625 16.161 5.92 22.5 9 39.597 19.243 61.632 46.473 45.5 92.5-6.138 17.512-19.061 28.289-31 41.5-4.359 2.7-9.856 5.934-14.5 8-3.147 1.4-17.422 4.266-18 5-1.051 1.335-.315 4.235-.5 6-.332 3.17 1.214 17.072-1.5 18-10.257-2.4-21.108-.889-31 2l1-22c-25.859.704-52.913-4.744-72.5-22.5l10.5-44.5c5.717 10.155 61.315 28.986 65.5 19.5v-71c-.429-1.04-2.319-.189-3-.5-6.241-2.851-17.125-3.874-25-7-19.483-12.507-37.25-24.567-41-49.5-6.196-41.197 27.155-63.048 60-76.5.963-.395 5.479-.561 6-1.5.521-.941-2.723-18.276-.5-21.5l27 1c1.995 8.773-6.404 23.727 8.5 21m-32.5 37c-26.53 15.483-34.894 37.253 0 49zm23 105v61c33.201-11.549 30.434-47.426 0-61" style="fill:url(#c)"/>/&gt;<path fill="#001732" d="M539 304c-.573 1.776-1.963 1.864-2 2 .418-1.07-.676-2.434 2-2"/><path fill="#feffff" d="M616.5 313c12.718-1.267 27.636 24.092 12 28-20.573 5.142-28.72-26.334-12-28"/><path fill="#f6fdfe" d="M539 355c-.028-.108-.509.172-1-2-3.152-13.933-1.027-21.843-2-34-.111-1.389.425-1.242-1-2-.107-.868.249-.912 1-1 15.394-1.812 35.428 6.904 48 15.5l-6.5 43.5c-7.676-.365-8.448-7.948-14-12-2.27-1.657-14.004-7.005-17-8-1.521-.505-6.43-2.301-7.5 0"/><path fill="#f3f9fb" d="M495 320c-32.845 13.452-66.196 35.303-60 76.5 3.75 24.933 21.517 36.993 41 49.5-57.292-22.739-61.546-85.845-8.5-117 7.699-4.522 17.246-7.614 25.5-11z"/><path fill="#266179" d="M711 410h-1c-1.947-14.018-6.964-28.857-12-42-4.666-12.177-10.612-23.687-17-35 2.682-.341 6.98 7.616 8 9.5 11.309 20.896 18.446 43.941 22 67.5"/><path fill="#0a7faf" d="M392.5 338c19.374.121-7.351 32.44-7.5 1.5 1.747.158 6.791-1.504 7.5-1.5"/><path fill="#fcfeff" d="M639.5 341c12.395-2.92 17.24 17.566 7 19-9.419 1.319-16.74-16.705-7-19"/><path fill="#3bdef9" d="M685 374c32.508 78.795 2.799 163.123-62 214l-12-13c44.26-32.619 72.494-88.194 70-143.5-.929-20.603-7.517-35.751-11-54.5-.175-.942.18-2.06 0-3-2.054-10.74-.267-19.078-4-32 7.18 8.131 14.784 21.781 19 32"/><path fill="#021f41" d="M538 353c.491 2.172.972 1.892 1 2 2.214 8.493 5.407 16.077 9 24-.096-.137-1.735.354-3-1.5-1.335-1.956-6.562-18.159-7.5-18.5-1.443-.525-9.658-.065-10.5 1.5-1.137 2.114-2.109 45.871-1 48 17.191 6.902 36.537 9.601 50 23.5-13.856-9.728-31.821-15.451-48-20-.669-.641-2.792-.999-3-1.5-1.053-8.058-2.288-53.354 2.5-56.5 1.967-1.293 8.005-.912 10.5-1"/><path fill="#002a5d" d="M503.5 356v49c-34.894-11.747-26.53-33.517 0-49"/><path fill="#305969" d="M319 373c-3.592 10.327-7.18 21.195-9 32-.437 2.593-.666 5.383-1 8-3.631-.527-1.035 4.025-2.5 5-.953.634-9.392-.463-11.5 0 1.398-16.627 5.521-34.284 11-50z"/><path fill="#0d92be" d="M698 368c5.036 13.143 10.053 27.982 12 42 11.075 79.714-26.376 158.029-95 199-7.117 4.249-14.453 7.595-22 11l-16.5 5-2.5-8c19.991-6.957 32.764-16.253 49-29 64.799-50.877 94.508-135.205 62-214z"/><path fill="#0c74a2" d="M375.5 378c16.722-2.012 29.457 14.696 18.5 29.5-14.754 19.933-48.426 3.232-36-18 2.373-4.054 12.981-10.956 17.5-11.5"/><path fill="#8abeca" d="M816 407c-6.866 11.618-17.239 24.159-24 36.5-3.977 7.26-7.432 15.651-10 23.5-44.24 74.411-40.737 117.612-120 173-38.464 26.878-86.396 42.838-133 47-3.147-7.39 19.988-32.51 14.5-37-18.611 3.537-37.634 3.771-56.5 2-27.726-2.603-59.207-12.62-82.5-28-3.349-2.212-28.161-18.675-13.5-18 65.33 46.414 157.139 48.667 225 7 36.332-22.308 65.267-54.507 82-94l11 4c-7.653 17.616-19.604 31.242-26.5 46-.421.902-2.45 3.262 0 3 18.734-18.342 39.86-35.096 56.5-55.5 25.466-31.226 40.928-71.035 65-103.5 4.13-5.57 9.108-10.264 13-16 .298 1.757.859 4.093 2 5.5-1.662 1.102-2.07 2.927-3 4.5"/><path fill="#005285" d="M344 406c-1.657 8.485-2.776 19.329-3 28l-16-5c.693-9.179 1.521-18.402 3-27.5z"/><path fill="#00375a" d="M310 457c.617 9.582 2.947 18.693 5 28 9.258 41.965 32.952 80.567 67 107l28 19c.778.473 1.636 1.183 3 2 10.599 6.349 21.237 12.071 33 16 46.308 15.465 102.868 10.912 147-9 7.547-3.405 14.883-6.751 22-11l1 4c-67.861 41.667-159.67 39.414-225-7-20.431-14.516-40.941-37.578-54-59-25.019-41.041-34.128-86.031-28-134 .334-2.617.563-5.407 1-8 3.913-1.155 2.149 6.037 2 7.5-1.511 14.836-2.974 29.378-2 44.5"/><path fill="#092838" d="m866 464-27.5-40c-2.043.095-2.245 26.841-2.5 30-2.305 28.586-6.363 52.111-12 80-5.843 28.911-12.756 57.012-22 85-2.056 6.226-3.737 12.874-6 19-6.86 18.568-15.67 37.504-24 55.5-1.587 3.429-12.317 20.788-12 22 .174.664 2.026.352 2.5 1.5-.304-4.066 2.189-3.61 2.5-4-.138 1.535 1.898.848 2 1 .941 1.396.817 6.604 6 1 .989.018 2.013.042 3 0 1.705 2 3.577 2.857 3-.5l-2 .5c.103-.001-.323-1.959.5-2 2.452-.123 8.546 2.078 9 2 10.82-1.856 34.954-61.61 41.5-73h1c-7.234 17.783-16.026 34.614-23 52.5l-13 17c4.693-.848 9.666-8.34 12-12 31.039-48.663 59.735-143.502 63-201 .568-10.009-1.699-21.473-1-30.5.059-.764.151-1.103 1-1 27.041 45.2-6.029 138.348-27 184.5-17.515 38.546-35.492 78.145-86.5 67.5-3.71 9.398-8.531 18.249-13.5 27-3.2.77-.21-4.171 0-4.5 9.664-15.148 20.047-35.944 27-52.5 37.759-74.214 59.11-160.836 65-244 .417-5.89 3.28-22.249 3-23.5-.463-2.067-10.579-13.002-14-12.5-.137-1.049.056-3.615 0-4 20.747 13.762 31.883 37.964 44 59m-20 153c-2.152 5.927-4.617 12.147-7 18-5.812 14.273-14.042 31.624-21 45.5-1.432 2.856-14.796 21.296-11.5 23.5 5.175-5.095 9.717-11.44 13.5-17.5 7.575-12.136 19.562-38.043 25-51.5a537 537 0 0 0 8-21c10.05-28.215 20.326-61.596 23-91.5 1.313-14.69 4.138-37.418-6.5-48.5 4.784 46.861-7.543 99.059-23.5 143m-42.5 89c-.183-.057-3.099 2.652-2 3 1.621.513 3.479-2.542 2-3"/><path fill="#f7fbfc" d="M816 407c-.174 4.756.07 13.848-2 18-1.033 2.073-11.538 10.081-14 13.5-6.23 8.652-12.516 19.276-18 28.5 2.568-7.849 6.023-16.24 10-23.5 6.761-12.341 17.134-24.882 24-36.5"/><path fill="#083042" d="M202 408c-2.042 2.897-15.287 4.549-18 11.5-3.209 8.219 17.376 98.09 21 113.5 7.542 32.071 14.697 58.997 26 90 5.929 16.262 11.63 30.339 19 46 2.751 5.847 5.4 14.37 9 19.5 1.859 2.649.66 3.253 3 .5 6.042 15.543 9.207 23.466 18 37.5 1.226 1.957 1.15 3 4 2.5 38.911 80.41 119.985 174.486 214 184 26.89 2.721 48.186.612 74-8 27.621-9.215 54.102-27.208 76-46 49.721-42.669 86.089-102.893 111-163-1.098 7.14-4.949 15.915-8 22.5-3.518 7.593-26.618 47.185-27 50-.124.917-.278 2.959.5 3.5 1.527-1.665 2.969-3.344 4.5-5-26.516 47.501-65.646 94.448-112.5 123-149.233 90.942-284.308-40.825-341.5-171.5-2.39-2.777-8.926 2.231-12.5 2.5-36.064 2.715-49.913-7.154-67.5-36.5-24.618-41.079-69.698-163.342-50-207 5.01-11.104 37.299-63.021 46.5-67.5 2.214-1.078 7.812-1.663 10.5-2m-49 60c-13.992 40.552 28.611 166.706 49 206.5 6.467 12.623 17.772 36.327 31 39.5.577.138 1.389-.111 2 0 .101.018-.339 1.884.5 2 .644.089 1.375-2.01 1.5-2 2.528.211 2.842.998 3 1 .514 3.624 4.737 3.211 5 0 .658-.035 1.343.043 2 0-.171 6.313 21.447 1.933 22 .5.06-1.626-1.442-2.102-2-3.5-11.063-27.725-29.11-52.811-39-80-2.843-7.814-5.478-16.991-8-25-14.575-46.293-24.674-95.18-33-143-2.196-12.613-3.546-25.343-5.5-38zm12 142c2.224 6.453 4.491 12.659 7 19 10.54 26.638 23.22 54.754 41.5 77 3.009-3.371-1.779-4.926-2.5-6.5-11.526-25.154-23.408-43.798-33-69.5-2.273-6.089-3.928-12.803-6-19-14.373-42.975-26.225-89.295-23.5-135-9.059 12.98-6.054 33.124-4.5 48.5 2.878 28.477 11.701 58.522 21 85.5"/><path fill="#154c67" d="M833 445c-3.907-6.193-8.372-14.899-10-22-1.293-5.638-.356-9.087-1-14 3.421-.502 13.537 10.433 14 12.5.28 1.251-2.583 17.61-3 23.5"/><path fill="#0f4b6a" d="M714 442c-.018 27.665-5.294 51.731-16 77-16.733 39.493-45.668 71.692-82 94l-1-4c68.624-40.971 106.075-119.286 95-199h1c1.68 11.138 3.007 20.603 3 32"/><path fill="#ecfbfd" d="M576 432c18.457 12.958 26.114 27.849 28 50 2.815 33.061-11.274 55.828-39 73 11.939-13.211 24.862-23.988 31-41.5 16.132-46.027-5.903-73.257-45.5-92.5-6.339-3.08-17.671-4.375-22.5-9 16.179 4.549 34.144 10.272 48 20"/><path fill="#4a7889" d="M309 413c-6.128 47.969 2.981 92.959 28 134-5.868-4.437-6.208 6.241-13 6-23.546-38.286-32.793-89.887-29-135 2.108-.463 10.547.634 11.5 0 1.465-.975-1.131-5.527 2.5-5"/><path fill="#578d9c" d="M217 435c3.885 87.216 25.923 181.107 60 261.5 32.64 77.002 97.395 172.725 178.5 203.5 9.932 3.769 26.093 10.62 35.5 5 6.656 1.968 13.001 3.608 20 4-2.223 5.641-8.819 1.135-13 4-94.015-9.514-175.089-103.59-214-184-44.998-92.99-69.301-203.57-75-306.5 4.884 1.713 5.893 9.032 8 12.5"/><path fill="#2b728e" d="M823 423c1.628 7.101 6.093 15.807 10 22-5.89 83.164-27.241 169.786-65 244 37.911-90.276 41.787-167.577 52-262.5.291-2.7-1.017-3.965 3-3.5"/><path fill="#658c99" d="M866 464c2.13.165 1.69 2.482 2 3-.849-.103-.941.236-1 1l-2-1.5c1.522 14.568-.277 28.996-2 43.5-5.32-7.435-8.294-16.705-12-25-4.649-10.405-9.142-21.202-15-31 .255-3.159.457-29.905 2.5-30z"/><path fill="#21779c" d="M814 431c-3.852 4.651-6.969 7.772-11 13-15.102 19.585-23.099 34.807-34 57-5.329 10.848-8.983 22.69-14 33-23.274 47.828-47.969 79.565-92 110l-1-4c79.263-55.388 75.76-98.589 120-173 5.484-9.224 11.77-19.848 18-28.5 2.462-3.419 12.967-11.427 14-13.5 6.196 2.464 1.875 3.737 0 6"/><path fill="#668b97" d="M187 464c-7.247 5.505-11.3 15.327-16 23-4.515 7.371-9.026 14.923-14 22-1.809-13.635-2.76-27.31-4-41l28.5-42c1.954 12.657 3.304 25.387 5.5 38"/><path fill="#016ca0" d="M341 434c-1.226 47.372 17.818 94.348 52 127l-11 13.5c2.377 6.966 35.402 25.799 36 28 .634 2.333-4.872 7.475-5 10.5-1.364-.817-2.222-1.527-3-2-7.934-4.82-20.734-13.359-28-19-34.048-26.433-57.742-65.035-67-107l14 .5c-2.183-9.485-3.377-18.766-4-28.5-.631-9.861-.744-18.154 0-28z"/><path fill="#04c2f1" d="M366.5 431c13.338-3.325 26.401 15.313 9 18-17.471 2.697-17.318-15.926-9-18"/><path fill="#fcfdfd" d="M759 696c-24.911 60.107-61.279 120.331-111 163 1.208-3.822 3.528-4.661 2-9 33.962-32.972 59.494-79.721 80-122 43.598-89.886 65.747-184.157 73-284 4.031-5.228 7.148-8.349 11-13-2.929 90.469-20.387 181.483-55 265"/><path fill="#3b7b8e" d="M412 675c-19.668-7.339-38.276-15.869-57-25.5 7.079 40.599 22.636 79.356 47 112.5 7.273 9.893 14.335 21.319 25 28-12.15 46.623 17.418 101.224 64 115-9.407 5.62-25.568-1.231-35.5-5-81.105-30.775-145.86-126.498-178.5-203.5-34.077-80.393-56.115-174.284-60-261.5 26.298 43.289 42.534 84.141 66 126.5 28.605 51.637 77.681 86.775 129 113.5"/><path fill="#05c2f0" d="M401.5 437c3.569.492 3.086 8.264-2 6-3.867-1.721.482-6.209 2-6"/><path fill="#69a0ae" d="M728 443c-.858 28.939-7.633 53.836-19 80l-11-4c10.706-25.269 15.982-49.335 16-77z"/><path fill="#b7dbe3" d="m730 728-8-4c25.658-54.076 54.635-136.613 54-196.5-.075-7.08.415-23.866-7-26.5 10.901-22.193 18.898-37.415 34-57-7.253 99.843-29.402 194.114-73 284"/><path fill="#66eafd" d="M626.5 446c21.607-4.372.646 42.567-3.5 2.5.123-.459 3.207-2.441 3.5-2.5"/><path fill="#012646" d="M532 574h1l-.5 25c-12.163-4.498-25.754-3.983-38 0l1-21c-27.251 2.558-53.957-5.466-74.5-23.5l13.5-53.5c9.011 7.529 53.637 29.639 63 23 1.441-1.022-.18-10.19.5-12.5.255-.867 1.973-.4 2-.5.621-2.313 2.569-6.112 3-9.5 1.897-14.9-1.456-33.398-2-48.5.681.311 2.571-.54 3 .5v71c-4.185 9.486-59.783-9.345-65.5-19.5L428 549.5c19.587 17.756 46.641 23.204 72.5 22.5l-1 22c9.892-2.889 20.743-4.4 31-2 2.714-.928 1.168-14.83 1.5-18"/><path fill="#96a6b3" d="m851 485-25 106.5c-3.297 8.095 14.317 9.192 19 7.5-2.233 7.632-5.365 14.606-8 22-8.827 1.399-17.105 1.262-26 0l-3-3.5 16-83.5c5.637-27.889 9.695-51.414 12-80 5.858 9.798 10.351 20.595 15 31"/><path fill="#005285" d="M325 457c.623 9.734 1.817 19.015 4 28.5l-14-.5c-2.053-9.307-4.383-18.418-5-28z"/><path fill="#032948" d="M526.5 461c30.434 13.574 33.201 49.451 0 61zm1 7v52c23.189-9.423 23.6-41.984 0-52"/><path fill="#98a8b5" d="M187 464c8.326 47.82 18.425 96.707 33 143-13.008 6.953-25.17 10.07-40 7-2.668-8.463-4.757-17.401-7-26 2.493-2.013 16.324-4.939 17.5-6 8.087-7.297-20.708-80.812-19.5-95 4.7-7.673 8.753-17.495 16-23"/><path fill="#ecf1f2" d="M867 468c-.699 9.027 1.568 20.491 1 30.5-3.265 57.498-31.961 152.337-63 201-2.334 3.66-7.307 11.152-12 12l13-17c6.974-17.886 15.766-34.717 23-52.5a495 495 0 0 0 8-21c2.635-7.394 5.767-14.368 8-22 8.296-28.361 14.507-59.594 18-89 1.723-14.504 3.522-28.932 2-43.5z"/><path fill="#f3f7f7" d="M157 509c3.436 25.904 9.406 53.722 16 79 2.243 8.599 4.332 17.537 7 26 2.763 8.763 6.624 17.455 10 26 6.916 17.504 18.881 46.1 29 61.5 3.45 5.25 8.623 9.381 14 12.5-13.228-3.173-24.533-26.877-31-39.5-20.389-39.794-62.992-165.948-49-206.5 1.24 13.69 2.191 27.365 4 41"/><path fill="#014c80" d="M527.5 468c23.6 10.016 23.189 42.577 0 52z"/><path fill="#93bfcc" d="m853 614-7 3c15.957-43.941 28.284-96.139 23.5-143 10.638 11.082 7.813 33.81 6.5 48.5-2.674 29.904-12.95 63.285-23 91.5"/><path fill="#afcfd7" d="m172 611-7-1c-9.299-26.978-18.122-57.023-21-85.5-1.554-15.376-4.559-35.52 4.5-48.5-2.725 45.705 9.127 92.025 23.5 135"/><path fill="#063e5f" d="M533 574h-1c.185-1.765-.551-4.665.5-6 .578-.734 14.853-3.6 18-5 4.644-2.066 10.141-5.3 14.5-8 27.726-17.172 41.815-39.939 39-73 1.976-5.169 2.952 5.883 3 6.5 3.567 45.617-32.114 77.126-74 85.5"/><path fill="#aac1cb" d="M863 510c-3.493 29.406-9.704 60.639-18 89-4.683 1.692-22.297.595-19-7.5L851 485c3.706 8.295 6.68 17.565 12 25"/><path fill="#a9c0ca" d="M173 588c-6.594-25.278-12.564-53.096-16-79 4.974-7.077 9.485-14.629 14-22-1.208 14.188 27.587 87.703 19.5 95-1.176 1.061-15.007 3.987-17.5 6"/><path fill="#fdfefe" d="M722 724c-11.823 24.917-34.856 67.636-52 88.5-.164.2-3.928 5.064-4 2 10.154-13.124 16.893-28.586 24-43.5 35.381-74.25 55.622-155.218 65-237 5.017-10.31 8.671-22.152 14-33 7.415 2.634 6.925 19.42 7 26.5.635 59.887-28.342 142.424-54 196.5"/><path fill="#1a5c7c" d="M231 623c-11.303-31.003-18.458-57.929-26-90l12 1.5 21 85z"/><path fill="#b7dbe3" d="m690 771-47.5-9-34.5 13c-10.219-24.603-38.379-46.057-64-52l17-27.5-4-7.5c40.764-8.037 72.032-20.521 106-44 44.031-30.435 68.726-62.172 92-110-9.378 81.782-29.619 162.75-65 237"/><path fill="#a4bfc8" d="M811 621c-2.998-.425-6.188-.816-9-2 9.244-27.988 16.157-56.089 22-85l-16 83.5z"/><path fill="#629ba9" d="M337 547c13.059 21.422 33.569 44.484 54 59-14.661-.675 10.151 15.788 13.5 18 23.293 15.38 54.774 25.397 82.5 28l-8 33.5c12.027 3.522 24.164-1.872 36.5-.5 2.183.243 3.657.15 3.5 3-64.426 3.479-113.473-15.269-164-54-2.292-12.909-.499-33.078-5-45-3.103-8.218-20.268-26.68-26-36 6.792.241 7.132-10.437 13-6"/><path fill="#0d92be" d="m428 586-9 16.5c4.435 5.392 31.065 11.796 31 17-.015 1.239-4.999 6.833-4 9.5-11.763-3.929-22.401-9.651-33-16 .128-3.025 5.634-8.167 5-10.5-.598-2.201-33.623-21.034-36-28l11-13.5c10.071 9.62 22.872 18.279 35 25"/><path fill="#08c4ea" d="M623 588c-16.236 12.747-29.009 22.043-49 29-30.108 10.478-66.064 14.558-97 6.5l11-17.5c44.078 5.765 87.291-4.683 123-31z"/><path fill="#01a6d5" d="m488 606-11 17.5c30.936 8.058 66.892 3.978 97-6.5l2.5 8 16.5-5c-44.132 19.912-100.692 24.465-147 9-.999-2.667 3.985-8.261 4-9.5.065-5.204-26.565-11.608-31-17l9-16.5c19.622 10.873 37.633 17.074 60 20"/><path fill="#06a9c9" d="m410 611-28-19c7.266 5.641 20.066 14.18 28 19"/><path fill="#5e7187" d="M228 632c-12.04 5.18-24.648 9.139-38 8-3.376-8.545-7.237-17.237-10-26 14.83 3.07 26.992-.047 40-7 2.522 8.009 5.157 17.186 8 25"/><path fill="#467286" d="M172 611c2.072 6.197 3.727 12.911 6 19l-6-1c-2.509-6.341-4.776-12.547-7-19z"/><path fill="#466f87" d="M853 614a537 537 0 0 1-8 21h-6c2.383-5.853 4.848-12.073 7-18z"/><path fill="#51657c" d="M811 621c8.895 1.262 17.173 1.399 26 0a495 495 0 0 1-8 21h-1c-9.312 1.641-18.953.505-28-2-.949-.263-3.684-1.096-4-2 2.263-6.126 3.944-12.774 6-19 2.812 1.184 6.002 1.575 9 2"/><path fill="#224d63" d="M178 630c9.592 25.702 21.474 44.346 33 69.5.721 1.574 5.509 3.129 2.5 6.5-18.28-22.246-30.96-50.362-41.5-77z"/><path fill="#2e3d4d" d="M267 712c-7.028 1.632-12.741 2.522-20 3-.657.043-1.342-.035-2 0-1.64.087-3.354.019-5 0-.158-.002-.472-.789-3-1h-2c-.611-.111-1.423.138-2 0-5.377-3.119-10.55-7.25-14-12.5-10.119-15.4-22.084-43.996-29-61.5 13.352 1.139 25.96-2.82 38-8 9.89 27.189 27.937 52.275 39 80"/><path fill="#214e62" d="M845 635c-5.438 13.457-17.425 39.364-25 51.5-3.783 6.06-8.325 12.405-13.5 17.5-3.296-2.204 10.068-20.644 11.5-23.5 6.958-13.876 15.188-31.227 21-45.5z"/><path fill="#425c6c" d="M800 640c-10.946 20.233-21.11 55.55-35 73-.311.39-2.804-.066-2.5 4-.474-1.148-2.326-.836-2.5-1.5-.317-1.212 10.413-18.571 12-22 8.33-17.996 17.14-36.932 24-55.5.316.904 3.051 1.737 4 2"/><path fill="#2c3b4b" d="M828 642c-6.546 11.39-30.68 71.144-41.5 73-.454.078-6.548-2.123-9-2-.823.041-.397 1.999-.5 2-.333.005-.668-.014-1 0-.987.042-2.011.018-3 0-.304-.006-4.171-2.023-6-1-.102-.152-2.138.535-2-1 13.89-17.45 24.054-52.767 35-73 9.047 2.505 18.688 3.641 28 2"/><path fill="#639eab" d="M412 675c15.009 5.601 28.152 10.589 44 14-.321 4.875 6.14 7.236 8 10.5 5.594 9.816.321 11.359 0 19-.285 6.782-.146 12.068 2 18.5-10.578 7.165-26.178 24.631-32 36-16.058 5.311-19.273-12.504-25.5-23l-6.5 12c-24.364-33.144-39.921-71.901-47-112.5 18.724 9.631 37.332 18.161 57 25.5"/><path fill="#75aab7" d="M529 687c-3.369.301-6.623.818-10 1 .157-2.85-1.317-2.757-3.5-3-12.336-1.372-24.473 4.022-36.5.5l8-33.5c18.866 1.771 37.889 1.537 56.5-2 5.488 4.49-17.647 29.61-14.5 37"/><path fill="#1a5c7c" d="M262 689c-2.34 2.753-1.141 2.149-3-.5-3.6-5.13-6.249-13.653-9-19.5l3-3.5c2.696 7.95 5.965 15.694 9 23.5"/><path fill="#88bdc8" d="m557 688 4 7.5-17 27.5c-26.456-6.136-55.463-1.265-78 14-2.146-6.432-2.285-11.718-2-18.5.321-7.641 5.594-9.184 0-19-1.86-3.264-8.321-5.625-8-10.5 37.341 8.037 63.728 6.349 101-1"/><path fill="#6595a5" d="M803.5 706c1.479.458-.379 3.513-2 3-1.099-.348 1.817-3.057 2-3"/><path fill="#365262" d="M267 712c.558 1.398 2.06 1.874 2 3.5-.553 1.433-22.171 5.813-22-.5 7.259-.478 12.972-1.368 20-3"/><path fill="#3f5766" d="M237 714c-.125-.01-.856 2.089-1.5 2-.839-.116-.399-1.982-.5-2z"/><path fill="#33505d" d="M773 715c-5.183 5.604-5.059.396-6-1 1.829-1.023 5.696.994 6 1"/><path fill="#375362" d="M776 715c.332-.014.667.005 1 0l2-.5c.577 3.357-1.295 2.5-3 .5"/><path fill="#3c5461" d="M245 715c-.263 3.211-4.486 3.624-5 0 1.646.019 3.36.087 5 0"/><path fill="#071a22" d="M544 723c25.621 5.943 53.781 27.397 64 52 10.654 25.65 6.911 59.755-6 84-12.061 22.648-37.953 40.451-62 48-10.094 1.245-18.606 2.581-29 2-6.999-.392-13.344-2.032-20-4-46.582-13.776-76.15-68.377-64-115 1.035-3.973 5.017-13.127 7-17 5.822-11.369 21.422-28.835 32-36 22.537-15.265 51.544-20.136 78-14m-86 30c-12.567 11.583-19.746 23.212-26 39-28.746 72.568 81.644 160.517 151 82 13.358-15.122 25.303-34.205 25-55-.014-.992.044-2.01 0-3 2.617-81.981-91.065-117.32-150-63"/><path fill="#88bdc8" d="M730 728c-20.506 42.279-46.038 89.028-80 122-9.768 9.483-20.76 17.339-32 25l-16-16c12.911-24.245 16.654-58.35 6-84l34.5-13 47.5 9c-7.107 14.914-13.846 30.376-24 43.5.072 3.064 3.836-1.8 4-2 17.144-20.864 40.177-63.583 52-88.5z"/><path fill="#bed6da" d="M608 816c-.883-19.897-6.099-37.493-18-53-9.966-12.987-22.282-23.659-38-29-24.158-8.209-49.801-6.734-72.5 5-2.627 1.358-18.577 12.338-19.5 14h-2c58.935-54.32 152.617-18.981 150 63"/><path fill="#56747d" d="M552 734c-4.568 3.077-3.865 10.897-5 16-6.041-2.435-12.515-4.237-19-5-25.319-2.978-45.617 5.307-68 16 .07-1.615-2.049-4.312 0-8 .923-1.662 16.873-12.642 19.5-14 22.699-11.734 48.342-13.209 72.5-5"/><path fill="#7d979f" d="M590 763c-2.846 5.057-12.519 3.972-13 10-5.879-8.829-20.149-19.03-30-23 1.135-5.103.432-12.923 5-16 15.718 5.341 28.034 16.013 38 29"/><path fill="#2d464f" d="M528 745c-.978 5.297.765 4.64 3 8-19.085-2.532-32.348.293-48 11-7.658 1.25-16 10.755-20 17-5.002-.478-3.17-16.053-3-20 22.383-10.693 42.681-18.978 68-16"/><path fill="#405b63" d="M547 750c9.851 3.97 24.121 14.171 30 23 5.308 7.971 8.693 20.701 11 30-1.969 3.087-.549 6.731-1 10-4.388.587-2.491-1.366-3-4-5.931-30.667-19.397-51.543-53-56-2.235-3.36-3.978-2.703-3-8 6.485.763 12.959 2.565 19 5"/><path fill="#427383" d="M434 773c-1.983 3.873-5.965 13.027-7 17-10.665-6.681-17.727-18.107-25-28l6.5-12c6.227 10.496 9.442 28.311 25.5 23"/><path fill="#012d3e" d="M531 753c33.603 4.457 47.069 25.333 53 56-1.628 4.462-3.726 2.801-8 3-.012-3.291-.545-5.041-1-8-8.257-53.738-87.454-57.964-107-10-4.132 1.845-5.864 14.031-6 18-2.147 3.596-3.268.35-7 1 .142-9.67.582-10.183 4-19 5.021-12.954 12.529-22.153 24-30 15.652-10.707 28.915-13.532 48-11"/><path fill="#466470" d="M432 792c6.254-15.788 13.433-27.417 26-39z"/><path fill="#1d2832" d="M460 753c-2.049 3.688.07 6.385 0 8-.17 3.947-2.002 19.522 3 20-2.093 3.268-6.555 8.763-4 13-3.418 8.817-3.858 9.33-4 19-.037 2.534-.255 5.551 0 8-2.333.471-1.251 6.304-1 7.5 14.109 67.176 117.978 62.406 135 8.5l11 2.5-17 34.5c-69.356 78.517-179.746-9.432-151-82l26-39z"/><path fill="#0773b1" d="M575 804c-1.574-3.513-4.555-3.801-6-5-1.853-1.538-3.023-4.663-6-5 .76-11.214-17.176-22.884-27-25-3.919-.844-6.038-.903-10-1-18.436-.452-39.161 6.302-48 24-2.079.782-9.264 8.814-10 11-5.068-.87-1.165-6.142 0-9 19.546-47.964 98.743-43.738 107 10"/><path fill="#4b8b94" d="M483 764c-11.471 7.847-18.979 17.046-24 30-2.555-4.237 1.907-9.732 4-13 4-6.245 12.342-15.75 20-17"/><path fill="#56747d" d="M608 816c.044.99-.014 2.008 0 3-5.003.902-1.731-2.811-2.5-3-3.442-.848-9.659.615-13.5 0-.366-4.65-2.95-8.767-4-13-2.307-9.299-5.692-22.029-11-30 .481-6.028 10.154-4.943 13-10 11.901 15.507 17.117 33.103 18 53"/><path fill="url(#d)" d="M526 768c-16.427 21.113 26.683 23.746 10 1 9.824 2.116 27.76 13.786 27 25-13.602-1.539-7.159 24.279 6 12 .17 3.878.505 5.939 0 10-1.674 13.448-6.402 22.741-16 32-.758-7.732-4.973.347-8.5 2-3.651 1.711-11.419 5.297-15 6-4.89.96-26.988-.71-17 3-17.648 1.582-28.007-13.48-39.5-24-2.652-5.504-4.152-10.906-5-17 34.915 27.982 48.227-40.375 10-26 8.839-17.698 29.564-24.452 48-24" style="fill:url(#d)"/>/&gt;<path fill="#96f6fd" d="M536 769c16.683 22.746-26.427 20.113-10-1 3.962.097 6.081.156 10 1"/><path fill="#8cf8fe" d="M468 818c-.773-5.559-1.947-9.213 0-15 .736-2.186 7.921-10.218 10-11 38.227-14.375 24.915 53.982-10 26"/><path fill="#062e61" d="M468 794c-1.165 2.858-5.068 8.13 0 9-1.947 5.787-.773 9.441 0 15 .848 6.094 2.348 11.496 5 17 15.041 31.215 55.837 36.309 80 13 9.598-9.259 14.326-18.552 16-32l7 1c-6.028 71.601-116.543 69.188-114-5 .136-3.969 1.868-16.155 6-18"/><path fill="#84f3fe" d="M563 794c2.977.337 4.147 3.462 6 5 .07 2.319-.102 4.684 0 7-13.159 12.279-19.602-13.539-6-12"/><path fill="#06498a" d="M575 804c.455 2.959.988 4.709 1 8 .006 1.636.137 3.379 0 5l-7-1c.505-4.061.17-6.122 0-10-.102-2.316.07-4.681 0-7 1.445 1.199 4.426 1.487 6 5"/><path fill="#3c5866" d="M592 816c.645 8.198-.601 13.401-3 21-17.022 53.906-120.891 58.676-135-8.5-.251-1.196-1.333-7.029 1-7.5 7.749 74.545 120.342 76.585 132-8 .451-3.269-.969-6.913 1-10 1.05 4.233 3.634 8.35 4 13"/><path fill="#011c2c" d="M587 813c-11.658 84.585-124.251 82.545-132 8-.255-2.449-.037-5.466 0-8 3.732-.65 4.853 2.596 7-1-2.543 74.188 107.972 76.601 114 5 .137-1.621.006-3.364 0-5 4.274-.199 6.372 1.462 8-3 .509 2.634-1.388 4.587 3 4"/><path fill="#354e59" d="M608 819c.303 20.795-11.642 39.878-25 55l17-34.5-11-2.5c2.399-7.599 3.645-12.802 3-21 3.841.615 10.058-.848 13.5 0 .769.189-2.503 3.902 2.5 3"/><path fill="#0d5690" d="M553 848c-24.163 23.309-64.959 18.215-80-13 11.493 10.52 21.852 25.582 39.5 24-9.988-3.71 12.11-2.04 17-3 3.581-.703 11.349-4.289 15-6 3.527-1.653 7.742-9.732 8.5-2"/><path fill="#dcf5f9" d="M648 859c-21.898 18.792-48.379 36.785-76 46l-1-5c18.227-6.281 31.339-14.325 47-25 11.24-7.661 22.232-15.517 32-25 1.528 4.339-.792 5.178-2 9"/><path fill="#639eab" d="M618 875c-15.661 10.675-28.773 18.719-47 25-12.573 4.333-17.86 5.379-31 7 24.047-7.549 49.939-25.352 62-48z"/><path fill="#9bd8e2" d="M572 905c-25.814 8.612-47.11 10.721-74 8 4.181-2.865 10.777 1.641 13-4 10.394.581 18.906-.755 29-2 13.14-1.621 18.427-2.667 31-7z"/></svg>