<svg xmlns="http://www.w3.org/2000/svg" width="1024" height="1024"><defs><linearGradient id="a" x1="624.035" x2="811.15" y1="268.557" y2="384.264" gradientUnits="userSpaceOnUse"><stop offset="0%" style="stop-color:#468ca6"/><stop offset="100%" style="stop-color:#2d7893"/></linearGradient></defs><defs><linearGradient id="b" x1="665.788" x2="376.056" y1="238.273" y2="371.753" gradientUnits="userSpaceOnUse"><stop offset="0%" style="stop-color:#7fc2d5"/><stop offset="78.37%" style="stop-color:#bce6f3"/></linearGradient></defs><defs><linearGradient id="c" x1="870.561" x2="875.214" y1="500.268" y2="547.037" gradientUnits="userSpaceOnUse"><stop offset="0%" style="stop-color:#165c76"/><stop offset="100%" style="stop-color:#103346"/></linearGradient></defs><defs><linearGradient id="d" x1="136.923" x2="135.519" y1="498.411" y2="544.39" gradientUnits="userSpaceOnUse"><stop offset="0%" style="stop-color:#1b6582"/><stop offset="100%" style="stop-color:#134157"/></linearGradient></defs><defs><linearGradient id="e" x1="722.573" x2="635.605" y1="431.989" y2="524.539" gradientUnits="userSpaceOnUse"><stop offset="0%" style="stop-color:#65c1df"/><stop offset="100%" style="stop-color:#93ddf1"/></linearGradient></defs><defs><linearGradient id="f" x1="348.828" x2="380.285" y1="516.587" y2="531.932" gradientUnits="userSpaceOnUse"><stop offset="0%" style="stop-color:#1ab5da"/><stop offset="100%" style="stop-color:#20d4f3"/></linearGradient></defs><defs><linearGradient id="g" x1="688.639" x2="665.652" y1="528.019" y2="778.968" gradientUnits="userSpaceOnUse"><stop offset="0%" style="stop-color:#146983"/><stop offset="100%" style="stop-color:#14485f"/></linearGradient></defs><defs><linearGradient id="h" x1="449.343" x2="561.442" y1="523.598" y2="826.521" gradientUnits="userSpaceOnUse"><stop offset="13.622%" style="stop-color:#96b9cb"/><stop offset="62.848%" style="stop-color:#428aa3"/><stop offset="100%" style="stop-color:#3a7392"/></linearGradient></defs><defs><linearGradient id="i" x1="309.777" x2="338.018" y1="622.981" y2="754.994" gradientUnits="userSpaceOnUse"><stop offset="0%" style="stop-color:#e2f0f5"/><stop offset="100%" style="stop-color:#b4d7e3"/></linearGradient></defs><defs><linearGradient id="j" x1="470.092" x2="595.706" y1="648.301" y2="730.285" gradientUnits="userSpaceOnUse"><stop offset="0%" style="stop-color:#caa9bf"/><stop offset="100%" style="stop-color:#937d94"/></linearGradient></defs><path fill="#025a7a" d="M534 161c2.348.613 5.236 6.705 6.5 7 1.646.383 4.077-1.578 7-1 20.437 4.041 45.392 9.521 66 17 2.669.968 9.446 3.194 10.5 6-28.544-11.187-56.369-18.255-87-21-52.485-4.703-98.757 4.916-147 25l-34.5 15-1.5-7c55.764-30.625 116.01-45.821 180-41"/><path fill="#01384c" d="M815 362c-5.944 2.777 6.802 9.727 7 10.5.045.175-2.075 2.836-2 3 1.092 2.374 1.943 1.37 2 1.5 4.753 10.931 7.758 22.55 11 34 1.144 4.042 2.867 7.249 4 12 5.883 24.671 9.48 50.57 10 76 .432 21.125-2.306 40.732-4 61.5-.131 1.602-1.14 7.839 2 7.5-1.339 3.543-6.925 10.855 1 8-9.796 7.933-9.941 28.673-14 41.5-104.963 331.697-543.341 327.304-645-4-2.712-8.839-3.519-18.634-6-27.5-1.676-5.99-2.282-7.44-5-14 1.779-.765 1.608-2.407 1.5-4-1.439-21.154-3.893-42.698-5.5-64-.502-10.962 2.264-23.221 2-34 5.14-.983-2.169-3.757 8-5-20.806 170.472 84.5 342.588 254 383 116.035 27.665 233.263-9.258 312-98 38.766-39.895 71.209-101.332 82-156 9.216-42.869 12.214-88.25 7-132-.039-.329.041-.672 0-1 1.714-1.897 4.088.88 5-1.5.672-1.754-4.953-34.753-6-37-.436-.936-1.844-.329-2-.5l-.5-2c-1.253 2.13-2.835 2.192-4.5 3-25.956-104.831-104.638-193.665-205-233-1.054-2.806-7.831-5.032-10.5-6-20.608-7.479-45.563-12.959-66-17-2.923-.578-5.354 1.383-7 1-1.264-.295-4.152-6.387-6.5-7 105.119 7.92 206.068 73.717 261 162.5 7.492 12.109 13.014 27.258 20 38.5"/><path fill="#f8fcfd" d="m537 169-4 7c-26.296-11.727-62.727-2.527-74 26l-1.5-3c-19.478-1.298-74.893 31.751-92 44-27.49 19.684-52.158 47.399-71.5 74-16.66 22.911-28.257 47.858-41 73-.108.213-2.497-.502-3 .5-.282.562 1.114 4.772 1 5-5.731 11.445-7.273 15.99-15 26.5-1.944 2.644-3.238 3.837-5 6-8.516-1.585-16.057-4.844-23-10 15.48-44.555 36.786-87.782 68-123.5 10.356-11.851 22.503-21.311 33-32.5 32.972-23.59 77.033-49.614 116.5-60 7.906-2.08 30.094-3.36 34-5 1.662-.698 15.47-21.795 22.5-22.5-17.26 5.101-35.341 8.008-52.5 13.5-37.055 11.859-90.793 36.951-116.5 66-20.313 9.905-33.014 34.36-56 39 36.035-44.024 80.383-77.095 133-99 48.243-20.084 94.515-29.703 147-25"/><path fill="#6dc0d5" d="M624 190c100.362 39.335 179.044 128.169 205 233-1.987.964-3.746 2.599-7 4 1.204-4.837 5.96-20.968-3-18 .965-2.192 3.07-4.398 1.5-7-2.252 6.997-6.534 10.437-12.5 14-27.241-119.378-132.083-216.283-252.5-237l-9.5 2c.892 2.575 2.639 4.598 4 7-5.206-4.705-10.502-9.102-17-12l4-7c30.631 2.745 58.456 9.813 87 21"/><path fill="#014c6e" d="M533 176c6.498 2.898 11.794 7.295 17 12 12.433 21.947 19.885 39.07 3 62.5 7.783-4.707 12.786-16.16 13-25 2.78 22.136-10.309 43.719-30 53.5l1-4c9.647-4.248 20.294-15.744 24-25.5.146-.385 2.497-5.917.5-5.5-7.409 13.366-25.171 28.86-40.5 32l-.5-6c-14.225 2.011-36.172-1.916-47.5-11-16.155-12.955-21.484-38.062-14-57 11.273-28.527 47.704-37.727 74-26m-66 19c-23.694 39.129 9.756 76.194 51.5 71 3.887-.484 18.422-5.841 20.5-9 27.565-16.199 25.408-55.445 1.5-74-23.038-17.88-58.101-13.43-73.5 12"/><path fill="#1fafd1" d="M539 257c3.825-5.814-2.28-10.893-6-15.5-.057-.07 1.404-1.045 1-1.5 33.403-36.139-21.56-73.007-53-43-1.709-3.28-6.292-5.456-3.5-9l-10.5 7c15.399-25.43 50.462-29.88 73.5-12 23.908 18.555 26.065 57.801-1.5 74"/><path fill="#c4eaf5" d="M309 262c.306-.326 2.306-6.086 4-8 25.707-29.049 79.445-54.141 116.5-66 17.159-5.492 35.24-8.399 52.5-13.5-7.03.705-20.838 21.802-22.5 22.5-3.906 1.64-26.094 2.92-34 5-39.467 10.386-83.528 36.41-116.5 60"/><path fill="url(#a)" d="M808 416c-1.77 1.057-19.729 9.452-20 5.5-.082-1.203 6.601.315 6.5-2.5l-19.5 1c-4.22-3.997-8.721-7.994-13-12l-21-52c.927-3.194.965-8.104 1-11.5-2.116-1.153-1.735 5.459-2 6.5-9.567-13.136-16.781-31.2-28-43-.475-.499-.137-1.536-2-1-.321-4.747-22.28-29.376-27-34.5-25.861-28.072-63.733-59.7-97.5-77.5-11.778-6.209-26.031-14.674-39.5-14l9.5-2C675.917 199.717 780.759 296.622 808 416" style="fill:url(#a)"/>/&gt;<path fill="url(#b)" d="M710 307c1.077 15.925-10.114 28.886-22 37-23.197-11.341-50.467-5.956-73 4-37.731 16.671-61.75 50.292-73 89-.031.107-.474.041-1 2-16.587 5.034-35.264 9.993-51.5 1-6.151-3.407-10.408-13.553-16.5-13-11.723-34.248-38.14-67.707-72-82-22.129-9.341-52.362-13.112-75-4 25.471-33.763 56.614-62.496 89-89.5 11.028-27.09-28.319-1.476-36.5 3.5-24.722 15.038-59.333 39.927-76.5 63l-8-1c19.342-26.601 44.01-54.316 71.5-74 17.107-12.249 72.522-45.298 92-44l1.5 3c-7.484 18.938-2.155 44.045 14 57-2.36 1.667 3.762 8.004 5 9l-1 1c-8.004-5.11-15.356-11.301-19.5-20-.963 7.609 8.49 17.696 14 22 19.11 14.926 42.912 18.723 64.5 8 19.691-9.781 32.78-31.364 30-53.5-.214 8.84-5.217 20.293-13 25 16.885-23.43 9.433-40.553-3-62.5-1.361-2.402-3.108-4.425-4-7 13.469-.674 27.722 7.791 39.5 14 33.767 17.8 71.639 49.428 97.5 77.5 4.72 5.124 26.679 29.753 27 34.5" style="fill:url(#b)"/>/&gt;<path fill="#029dc0" d="M534 240c-2.169-2.441-6.602-2.017-8-6 23.485-17.076.019-53.158-31-39-2.883 1.316-7.204 1.524-9 6-.427.113-1.945.902-2 1-4.497-.967-2.254-3.568-3-5 31.44-30.007 86.403 6.861 53 43"/><path fill="#2cd3ef" d="M481 197c.746 1.432-1.497 4.033 3 5-3.568 6.361-4.001 16.248-1 23-14.521 2.966 10.312 21.3 12.5 21 .426-.058 5.176-4.561 7-5 4.874-1.173 5.304-.082 10.5-2 4.291-1.584 8.874-2 13-5 1.398 3.983 5.831 3.559 8 6 .404.455-1.057 1.43-1 1.5 3.72 4.607 9.825 9.686 6 15.5-2.078 3.159-16.613 8.516-20.5 9-41.744 5.194-75.194-31.871-51.5-71l10.5-7c-2.792 3.544 1.791 5.72 3.5 9"/><path fill="#59e1f8" d="M526 234c-4.126 3-8.709 3.416-13 5-9.542 2.205-26.077-5.174-30-14-3.001-6.752-2.568-16.639 1-23 .055-.098 1.573-.887 2-1-1.766 4.4-1.302 16.412 3.5 19 12.314 6.636 15.96-20.427 5.5-25 31.019-14.158 54.485 21.924 31 39"/><path fill="#003e54" d="M390 194c-52.617 21.905-96.965 54.976-133 99-15.839 19.351-60.434 86.659-60 110-1.099.421-1.652 2.031-2 3-2.583 7.181-3.853 14.715-6 22-10.766.889-4.999-12.686-3-20 2.897-10.602 8.851-20.897 12-31.5-8.349-.286-17.731 9.724-22 16.5-4.096 2.541-1.055-5.456-1-8 3.917-2.077 10.63-9.705 15.5-13 3.139-2.124 8.184-1.104 11.5-4.5 3.935-4.03 19.323-38.106 25-47 30.795-48.243 76.89-90.98 127-118.5l1.5 7z"/><path fill="#fdfefe" d="M495 195c10.46 4.573 6.814 31.636-5.5 25-4.802-2.588-5.266-14.6-3.5-19 1.796-4.476 6.117-4.684 9-6"/><path fill="#08c4e9" d="M513 239c-5.196 1.918-5.626.827-10.5 2-1.824.439-6.574 4.942-7 5-2.188.3-27.021-18.034-12.5-21 3.923 8.826 20.458 16.205 30 14"/><path fill="#f3fafd" d="M326 341c-2.665 1.073-5.617 3.313-8 5-13.617-6.187-14.67-9.121-20-22 1.66-1.724 2.558-4.062 4-6 17.167-23.073 51.778-47.962 76.5-63 8.181-4.976 47.528-30.59 36.5-3.5-32.386 27.004-63.529 55.737-89 89.5"/><path fill="#a5deed" d="M537 275c-20.079 8.84-42.064 5.451-60-6l1-1c10.247 8.244 30.352 10.591 43 8 15.329-3.14 33.091-18.634 40.5-32 1.997-.417-.354 5.115-.5 5.5-3.706 9.756-14.353 21.252-24 25.5"/><path fill="#569eb3" d="M477 269c17.936 11.451 39.921 14.84 60 6l-1 4c-21.588 10.723-45.39 6.926-64.5-8-5.51-4.304-14.963-14.391-14-22 4.144 8.699 11.496 14.89 19.5 20"/><path fill="#cadfeb" d="M313 254c-1.694 1.914-3.694 7.674-4 8-10.497 11.189-22.644 20.649-33 32.5-31.214 35.718-52.52 78.945-68 123.5-5.522-4.101-10.855-7.176-11-15-.434-23.341 44.161-90.649 60-110 22.986-4.64 35.687-29.095 56-39"/><path fill="#5ba4ba" d="M521 276c-12.648 2.591-32.753.244-43-8-1.238-.996-7.36-7.333-5-9 11.328 9.084 33.275 13.011 47.5 11z"/><path fill="#100709" d="M712 308c-1.578 15.921-4.746 27.071-18 37-1.652 1.237-2.921 2.854-5 4-7.997 4.407-20.822 6.145-29 11-1.742.167-7.189 3.094-9 1 10.106-3.71 21.598-7.85 31-13 2.619-1.435 3.815-2.508 6-4 11.886-8.114 23.077-21.075 22-37 1.863-.536 1.525.501 2 1"/><path fill="#6bb6cb" d="M740 351c-4.034 15.869-12.047 23.314-29 19 4.326-3.118 1.297-5.338 0-8-2.976-6.11-9.034-9.394-14-13.5l18.5-.5-21.5-3c13.254-9.929 16.422-21.079 18-37 11.219 11.8 18.433 29.864 28 43"/><path fill="#c4dbe8" d="M302 318c-1.442 1.938-2.34 4.276-4 6-.266-.643.041-3.348-2-2.5-.722 2.272.678 3.951 1 5.5-15.86 19.731-28.26 42.807-36 67-2.875-.617-6.401-.991-8-4 12.743-25.142 24.34-50.089 41-73z"/><path fill="#201011" d="M298 324c5.33 12.879 6.383 15.813 20 22 2.269 1.031 5.936 1.26 8 2 8.318 2.983 16.121 4.313 24 7 1.14.389 2.864.607 4 1 .657 2.603-2.356 1.298-3.5 1-9.15-2.387-21.129-4.168-29.5-7-2.034-.688-3.999-1.11-6-2-8.746-3.891-16.008-11.427-18-21-.322-1.549-1.722-3.228-1-5.5 2.041-.848 1.734 1.857 2 2.5"/><path fill="#f4f9fb" d="M297 327c1.992 9.573 9.254 17.109 18 21-3.615 3.289-7.633 6.468-11 10-3.211 3.369-8.047 6.416-8 12-4.348.233-10.193-2.016-14.5-3-1.137 4.047 10.004 3.716 10.5 5.5-9.706 7.078-19.093 14.441-28 22.5-1.169-.826-1.815-.745-3-1 7.74-24.193 20.14-47.269 36-67"/><path fill="#588294" d="M401 345c-1.481 1.223-1.74 7.212-2 7.5-.714.794-2.648-4.218-3 .5-21.78-9.389-47.29-12.72-70-5-2.064-.74-5.731-.969-8-2 2.383-1.687 5.335-3.927 8-5 22.638-9.112 52.871-5.341 75 4"/><path fill="#0a4f62" d="M688 344c-2.185 1.492-3.381 2.565-6 4-10.484-4.263-22.871-3.601-34-2-6.852.986-15.662 3.379-22 6 .558-8.443-6.838-3.247-11-4 22.533-9.956 49.803-15.341 73-4"/><path fill="#bce6ee" d="M396 353c9.434 4.066 16.95 9.805 25 16-6.363-3.29-12.521-6.781-19-10-2.874-1.428-7.081-4.722-10.5-6-18.988-7.096-37.957-7.931-58-6l16.5 8c-7.879-2.687-15.682-4.017-24-7 22.71-7.72 48.22-4.389 70 5"/><path fill="#021628" d="M741 356c-3.233 11.141-11.871 15.105-22 18.5 15.657 9.358 29.705 21.052 43 33.5 4.279 4.006 8.78 8.003 13 12 2.401 2.274 6.546 11.148 9 13.5 1.487 1.424 2.407-.588 2.5-.5 3.964 3.759 5.483 7.189 10.5 11 4.665 3.543 10.077 6.777 15 10 2.118 1.387 7.652 2.752 8 3 .058.041.759.751 1 1 5.492 5.675-4.341 4.851-8 5-.821-.381-9.748-2.949-10-2.5-.913 19.987-7.203 38.989-14 57.5-4.34 2.004-2.601-1.484-6-2 2.373-5.909 3.93-8.216 5-15l9-42.5c-13.346-8.017-25.703-17.006-38-26.5-43.144-33.31-88.311-69.696-145-38-8.853 4.95-14.739 10.077-22 17-15.941 15.198-21.588 22.604-28 44-8.017 26.752-7.903 42.973 3 69-5.207-1.011-5.702-11.958-7-16.5-.428-1.499-4.547-7.33-2-11l-4 1.5c-2.262-21.723 2.637-40.204 7.5-61-15.419 13.455-10.147 45.247-17.5 59-1.22 1.894-1.199-5.894-1-7 7.471-41.577 18.913-74.195 51.5-103 20.898-18.473 33.552-16.576 56.5-25 1.811 2.094 7.258-.833 9-1 20.698-1.983 32.856 5.383 51 10 16.953 4.314 24.966-3.131 29-19 .265-1.041-.116-7.653 2-6.5-.035 3.396-.073 8.306-1 11.5"/><path fill="#2d7a92" d="M473 427c6.556 19.153 8.458 39.096 11.5 59l49.5-2c.436 1.461 2.912 3.752 5 3-.214.858.127 2.053 0 3-6.27 1.465-60.093 2.167-63.5 0-4.508-14.334-4.937-30.797-9.5-46l4.5 1c-5.913-30.551-24.819-57.005-49.5-76-8.05-6.195-15.566-11.934-25-16 .352-4.718 2.286.294 3-.5.26-.288.519-6.277 2-7.5 33.86 14.293 60.277 47.752 72 82"/><path fill="#4b96af" d="M682 348c-9.402 5.15-20.894 9.29-31 13-22.948 8.424-35.602 6.527-56.5 25-32.587 28.805-44.029 61.423-51.5 103-1.481 1.285-2.688.693-4 1 .127-.947-.214-2.142 0-3 4.402-17.664 4.159-34.847 11-53 15.322-40.659 46.413-63.409 84-81 .138-.065-.419-1.568.5-2 2.975-1.399 12.021-1.589 13.5-5 11.129-1.601 23.516-2.263 34 2"/><path fill="#09495d" d="m711 362-22-13c2.079-1.146 3.348-2.763 5-4l21.5 3-18.5.5c4.966 4.106 11.024 7.39 14 13.5"/><path fill="#85b9cd" d="m402 359-2 3c-7.236-3.963-16.859-9.427-25-9.5l20.5 8.5c27.042 15.248 46.328 35.983 59.5 64l-3 4c-5.24-11.041-11.276-18.861-19-28-20.535-24.294-33.815-28.57-63-39-5.308-1.897-10.586-4.125-16-6-1.136-.393-2.86-.611-4-1l-16.5-8c20.043-1.931 39.012-1.096 58 6 3.419 1.278 7.626 4.572 10.5 6"/><path fill="#5ab3c5" d="M648 346c-1.479 3.411-10.525 3.601-13.5 5-.919.432-.362 1.935-.5 2-8.828 1.308-18.093 6.049-26 10 5.377-3.867 11.909-8.482 18-11 6.338-2.621 15.148-5.014 22-6"/><path fill="#207791" d="M626 352c-6.091 2.518-12.623 7.133-18 11-1.954.977-4.518.899-6 3.5 2.266 1.253 4.808-2.643 6-3.5 7.907-3.951 17.172-8.692 26-10-37.587 17.591-68.678 40.341-84 81l-8 3c11.25-38.708 35.269-72.329 73-89 4.162.753 11.558-4.443 11 4"/><path fill="#5b7c96" d="m321 350-17 8c3.367-3.532 7.385-6.711 11-10 2.001.89 3.966 1.312 6 2"/><path fill="#48809a" d="M711 362c1.297 2.662 4.326 4.882 0 8-18.144-4.617-30.302-11.983-51-10 8.178-4.855 21.003-6.593 29-11z"/><path fill="#9fd5e5" d="M354 356c5.414 1.875 10.692 4.103 16 6-12.391-1.102-24.974-3.118-37.5-2-12.021 1.073-27.5 9.517-36.5 10-.047-5.584 4.789-8.631 8-12l17-8c8.371 2.832 20.35 4.613 29.5 7 1.144.298 4.157 1.603 3.5-1"/><path fill="#2c5568" d="M400 362c29.413 16.108 56.366 49.9 66 82 4.563 15.203 4.992 31.666 9.5 46 3.407 2.167 57.23 1.465 63.5 0 1.312-.307 2.519.285 4-1-.199 1.106-.22 8.894 1 7-.247.461-.794 1.773-1 2-.995 1.095-6.164 3.763-7.5 4-4.99.886-47.54.979-52 0-1.224-.269-7.795-4.95-8.5-6-4.118-6.132-5.464-30.749-8-40.5-2.506-9.635-7.725-21.408-12-30.5-13.172-28.017-32.458-48.752-59.5-64l-20.5-8.5c8.141.073 17.764 5.537 25 9.5"/><path fill="#5badc5" d="M762 408c-13.295-12.448-27.343-24.142-43-33.5 10.129-3.395 18.767-7.359 22-18.5z"/><path fill="#4c9bb6" d="M421 369c24.681 18.995 43.587 45.449 49.5 76l-4.5-1c-9.634-32.1-36.587-65.892-66-82l2-3c6.479 3.219 12.637 6.71 19 10"/><path fill="#031427" d="M370 362c29.185 10.43 42.465 14.706 63 39 3.329 12.27 14.421 24.067 19 35.5 2.025 5.056 3.605 10.854 5 16l-3-.5c-.309-.937-.664-2.117-1-3-30.047-78.871-118.329-80.443-178-34-9.748 7.587-18.375 16.375-28 24-9.54 7.558-18.796 15.824-30 21-1.008-.73-6.424 3.834-7 4-4.959 1.425-8.894 1.728-14 2-3.873.206-9.01-1.61-14-1-10.169 1.243-2.86 4.017-8 5-.062-2.551 1.067-4.28 1-4.5-.809-2.653-14.289-6.82-14-12.5 7.121 6.305 6.595 5.426 15 8 3.8 1.164 5.908 2.526 11 1 .173-.052-.453-2.697.5-3 4.142-1.316 5.838-.224 11.5-3 11.744-5.757 10.143-6.697 17-13 1.144-1.051 3.594-2.604 4-3a90 90 0 0 0 2-2c1.749-1.8 2.49-3.446 3-4 1.959-2.128 3.779-3.273 6-6 1.762-2.163 3.056-3.356 5-6 9.689-8.619 18.384-18.299 28-27 8.907-8.059 18.294-15.422 28-22.5-.496-1.784-11.637-1.453-10.5-5.5 4.307.984 10.152 3.233 14.5 3 9-.483 24.479-8.927 36.5-10 12.526-1.118 25.109.898 37.5 2"/><path fill="url(#c)" d="M815 362c7.001 11.265 8.122 6.049 16.5 12 3.278 2.329 9.838 10.326 11 11 11.966 6.942 47.453 9.474 58 19 26.384 23.83 26.576 130.679-3 151-12.315 8.461-39.011 10.886-51.5 21 .629-5.569 5.686-5.965 8-9.5 8.612-13.155 13.445-51.289 12-67-.252-2.738.971-3.957-3-3.5.284-6.207.206-12.786 0-19a230 230 0 0 0-1-15c-1.297-13.075-4.235-28.428-8-41-1.086-3.627-2.624-7.455-4-11-4.649-11.975-10.375-24.826-21.5-32-.276-.178-7.086-4.295-6.5-1-.057-.13-.908.874-2-1.5-.075-.164 2.045-2.825 2-3-.198-.773-12.944-7.723-7-10.5m52 109a80 80 0 0 0 1 5l-1 29.5c6.721 1.331 8.275-1.892 8.5 6.5 2.974-3.798 2.415-9.706 3.5-14 .539-2.135.636-8.182 2.5-9 3.069-1.347 13.396 2.745 18 0 3.025-1.804.944-5.366 4.5-7-1.789 4.164-2.465 46.608 4.5 45 2.037-3.838 3.035-7.676 3.5-12 6.569-24.033 6.98-53.731 1-78-6.813-27.648-15.887-34.539-42-42-3.008-.859-25.127-6.857-26-5.5 16.927 24.153 17.731 53.503 22 81.5" style="fill:url(#c)"/>/&gt;<path fill="#5ab3c5" d="M608 363c-1.192.857-3.734 4.753-6 3.5 1.482-2.601 4.046-2.523 6-3.5"/><path fill="#0c89a6" d="M850 410c-2.553-.496-11.554 4.158-12.5 4-2.873-.481-1.467-5.241-4.5-3-3.242-11.45-6.247-23.069-11-34-.586-3.295 6.224.822 6.5 1 11.125 7.174 16.851 20.025 21.5 32"/><path fill="#14a0c0" d="m186 408-16-1c1.492-3.653 4.111-11.003 6-14 4.269-6.776 13.651-16.786 22-16.5-3.149 10.603-9.103 20.898-12 31.5"/><path fill="#3f647c" d="m453 449-14 1c-29.524-65.217-105.17-68.082-157-27l-7-8c59.671-46.443 147.953-44.871 178 34"/><path fill="#305f79" d="m759 432-10 9c-32.741-37.926-80.648-54.646-129-36l-6-11c56.689-31.696 101.856 4.69 145 38"/><path fill="url(#d)" d="M176 393c-1.889 2.997-4.508 10.347-6 14-5.247 12.844-10.076 30.292-12 44-1.254 8.934-1.72 18.943-2 28-.36 11.656-.232 23.396 1 35l-5 1c-.079-.645.071-1.353 0-2-2.23-20.466-1.805-37.63 1-58 3.143-22.821 8.982-44.552 19.5-65-25.174 7.422-46.99 3.167-59.5 29-2.242 4.629-2.542 6.377-4 11-3.966 12.573-4.889 17.781-6 31-1.511 17.982-2.541 40.761 3 58 .588 1.828 1.979 8.522 3.5 9 8.32 2.615 4.714-36.05 4.5-40-.3-5.543-2.205-11.316-.5-17 1.824 4.921.031 15.38 5 18 4.271 2.252 18.662.054 20 1 .823.582 1.955 17.132 2.5 20 1.236 6.502 2.351 13.623 4 20 .701 2.712 6.031 20.918 7 21.5 8.53.135 2.592-6.466 2-10.5-.589-4.014-3.294-12.845 0-15 3.018 16.42 9.486 30.939 14 47-11.848-7-28.74-9.178-40.5-15-37.262-18.448-36.25-127.566-9.5-153.5 10.305-9.99 43.798-12.498 57-19.5-.055 2.544-3.096 10.541 1 8" style="fill:url(#d)"/>/&gt;<path fill="#78cde3" d="m871 395 24 22c-3.381-1.17-3.361.155-4 0-.304-.074-3.123-2.656-5.5-3-1.946-.282-19.402-2.056-19.5-.5 2.602 7.596 8.496 19.058 10 26.5.777 3.843 2.694 22.952 2 26-1.566 6.874-5.119 4.851-11 5-4.269-27.997-5.073-57.347-22-81.5.873-1.357 22.992 4.641 26 5.5"/><path fill="#edf7fa" d="M153 455c-3.737 2.746-4.854 3.71-10 3 .811-15.567 5.677-30.35 12-44.5-1.573-2.052-18.721.977-22 1.5-6.65 1.062-13.277 4.006-20 4 12.51-25.833 34.326-21.578 59.5-29-10.518 20.448-16.357 42.179-19.5 65"/><path fill="#c6e4ee" d="M253 390c1.599 3.009 5.125 3.383 8 4 1.185.255 1.831.174 3 1-9.616 8.701-18.311 18.381-28 27 7.727-10.51 9.269-15.055 15-26.5.114-.228-1.282-4.438-1-5 .503-1.002 2.892-.287 3-.5"/><path fill="#3d748e" d="m614 394 6 11c-7.967 3.072-17.534 8.482-24 14l-4-8c7.261-6.923 13.147-12.05 22-17"/><path fill="#e7fbff" d="M439 450c19.707 43.531-1.242 95.82-43 117-22.494 11.409-49.664 13.979-74 8-21.038-5.169-44.79-22.883-58-40-11.711-15.175-12.224-24.147-19-40-3.896-16.606 1.317-32.633 11-46 4.73-6.529 19.464-20.819 26-26 51.83-41.082 127.476-38.217 157 27m-120-24c-11.869-.799-24.938 13.294-24 25-4.715 6.357-7.884 16.13-9 24-8.725 61.534 62.138 114.405 111 77 17.288-7.058 31.281-26.162 36-44 5.797-21.916 3.207-51.524-14-68-21.461-30.389-71.26-37.493-100-14"/><path fill="#a8d7e5" d="m913 437-5 1.5c4.425-2.061-1.819-17.171-4-19-2.562-2.148-6.998-1.807-9-2.5l-24-22c26.113 7.461 35.187 14.352 42 42"/><path fill="url(#e)" d="M749 441c11.166 12.934 21.317 29.2 21 47-.321 18.056-12.42 41.426-24 55-24.335 28.525-59.766 41.599-97 36-58.05-8.729-95.797-67.815-77-124 4.461-13.335 13.286-26.857 24-36 6.466-5.518 16.033-10.928 24-14 48.352-18.646 96.259-1.926 129 36m-140-14c-13.776-1.916-24.822 13.619-23 26-4.434 3.443-5.755 10.902-7 16-1.579 6.467-3.05 13.289-3 20 .38 50.556 45.523 84.09 94 72 26.18-6.529 48.242-27.21 54-54 14.712-68.45-57.157-119.454-115-80" style="fill:url(#e)"/>/&gt;<path fill="#043d5b" d="M452 429c18.775 39.561 17.672 84.399-8 120.5l7-4.5c-3.794 6.079-11.082 15.926-16 21-6.146 6.34-10.096 9.614-17 12 .003-.991 2.71-2.749-.5-3-1.168 1.464-2.809 2.342-4.5 3-5.61-1.917-14.164-.677-15 6-1.279.372-.877-2.121-1.5-2-.28.054-4.459 3.218-4.5 3.5-.313 2.158 6.134 2.757 4.5 4.5-11.695 3.288-23.347 6.69-35.5 8-53.464 5.761-101.027-18.811-128-65-12.074-20.675-18.175-45.775-23-69 .576-.166 5.992-4.73 7-4-2.147 7.837.939 18.133 3 26 4.643 17.718 14.95 38.306 26 53 14.822 19.709 40.112 40.075 64 47 25.933 7.518 51.955 4.296 77-5 7.82-2.902 14.941-6.626 22-11 41.375-25.638 60.633-70.646 45-118l3 .5c-1.395-5.146-2.975-10.944-5-16-4.579-11.433-15.671-23.23-19-35.5 7.724 9.139 13.76 16.959 19 28"/><path fill="#0d0204" d="M819 409c-2.146 4.875-6.744 9.93-11 13-5.652 4.077-13.914 5.643-19.5 10 11.787.635 18.788.447 29.5-3 2.171-.698 2.783-1.476 4-2 3.254-1.401 5.013-3.036 7-4 1.665-.808 3.247-.87 4.5-3l.5 2c-.811 2.899-2.887 4.232-5 6-1.62 1.355-5.213 3.988-7 5-4.133 2.34-7.417 3.67-12 5-4.935 1.432-10.371 1.767-15.5 2l2.5 4c-5.017-3.811-6.536-7.241-10.5-11-.093-.088-1.013 1.924-2.5.5-2.454-2.352-6.599-11.226-9-13.5l19.5-1c.101 2.815-6.582 1.297-6.5 2.5.271 3.952 18.23-4.443 20-5.5 5.966-3.563 10.248-7.003 12.5-14 1.57 2.602-.535 4.808-1.5 7"/><path fill="#190404" d="M208 418c6.943 5.156 14.484 8.415 23 10-2.221 2.727-4.041 3.872-6 6-13.03-6.061-30.018-10.94-30-28 .348-.969.901-2.579 2-3 .145 7.824 5.478 10.899 11 15"/><path fill="#dbf5f8" d="M225 434c-.51.554-1.251 2.2-3 4-1.042-1.455-22.431-1.299-26.5-2-2.362-.407-6.049-2.248-8.5-3 1.038-2.053 1.338-2.755 2-5 2.147-7.285 3.417-14.819 6-22-.018 17.06 16.97 21.939 30 28"/><path fill="#5acae4" d="M186 408c-1.999 7.314-7.766 20.889 3 20-.662 2.245-.962 2.947-2 5-2.792-.856-5.524-1.653-7.5-4-1.557 1.287.577 2.015.5 3-.768 9.808-4.433 19.079-4 29-8.405-2.574-7.879-1.695-15-8-.721-.638-.862-2.652-3-2 1.924-13.708 6.753-31.156 12-44z"/><path fill="#4ba3bd" d="M822 427c-1.217.524-1.829 1.302-4 2-1.74-1.746-7.153 1.151-7.5 1-.888-.386-1.352-6.671-2.5-8 4.256-3.07 8.854-8.125 11-13 8.96-2.968 4.204 13.163 3 18"/><path fill="#24b0d0" d="M850 410c1.376 3.545 2.914 7.373 4 11-5.41.397-12.036-1.919-17 2-1.133-4.751-2.856-7.958-4-12 3.033-2.241 1.627 2.519 4.5 3 .946.158 9.947-4.496 12.5-4"/><path fill="#6c8ba1" d="M596 419c-10.714 9.143-19.539 22.665-24 36-2.486.209-6.559 7.67-8 0 6.412-21.396 12.059-28.802 28-44z"/><path fill="#0f4369" d="M419 440c-2.094-2.005-4.648-3.688-6.5-6-2.421 4.127-17.589 10.516-18.5 14.5-.394 1.723 14 24.332 15 32 1.623 12.441-5.58 29.375-13 39.5-.042.057-.422.279-1 1-5.526-.675 4.16-7.499 4-10.5-14.162-10.688-10.891 8.089-23 5.5 5.455-.414 6.535-2.668 9-7 12.741-22.392-27.893-22.498-21 1-8.106-3.506-25.858 5.885-34.5 10-4.004 1.907-2.345 5.245-8.5 2-10.65-12.936-22.568-40.958-12-56 6.141-.773 8.756.078 14.5-4 13.015-9.24 12.67-34.844-4.5-36 28.74-23.493 78.539-16.389 100 14"/><path fill="#55a4bb" d="M891 417c4.647 6.787 6.24 14.522 9 22-8.015-1.278-16.33-1.9-24 1-1.504-7.442-7.398-18.904-10-26.5.098-1.556 17.554.218 19.5.5 2.377.344 5.196 2.926 5.5 3"/><path fill="#75c0db" d="M143 458c-.154 2.95-.044 6.041 0 9-1.962.951-3.796-.971-4-1l4-25.5c-1.144-2.47-14.968-1.513-18-1.5-1.246-11.023 9.3-13.997 8-24 3.279-.523 20.427-3.552 22-1.5-6.323 14.15-11.189 28.933-12 44.5"/><path fill="#175184" d="m724 507-24.5-11c-3.118 9.367-6.612 18.778-13.5 26-12.585-6.588-27.875 3.635-29 17-39.248 6.739-70.866-37.642-58-73 24.686 2.331 29.29-36.317 10-39 57.843-39.454 129.712 11.55 115 80m-69-3c.966.125 1.733-2.098 3-.5 1.663 12.928 15.423 8.784 17-2.5 2.323-16.618-31.112-11.856-20.5 5 .782.114.398-2.013.5-2"/><path fill="#66a8c2" d="M133 415c1.3 10.003-9.246 12.977-8 24-4.518.02-10.168.71-14.5 2l-1.5-11c1.458-4.623 1.758-6.371 4-11 6.723.006 13.35-2.938 20-4"/><path fill="#688094" d="M282 423c-6.536 5.181-21.27 19.471-26 26l-9-10c9.625-7.625 18.252-16.413 28-24z"/><path fill="#76b6cd" d="M895 417c2.002.693 6.438.352 9 2.5 2.181 1.829 8.425 16.939 4 19l5-1.5c5.98 24.269 5.569 53.967-1 78 .334-3.107.331-23.982 0-27-.438-3.985-4.062-16.575-7-19 8.382-3.733-2.462-23.124-5-30-2.76-7.478-4.353-15.213-9-22 .639.155.619-1.17 4 0"/><path fill="#5bd8f0" d="M854 421c3.765 12.572 6.703 27.925 8 41-2.282 3.377-12.671 1.154-14 3.5-.385.68 1.983 13.379 2 15.5.038 4.714-.13 14.121-3 18-.52-25.43-4.117-51.329-10-76 4.964-3.919 11.59-1.603 17-2"/><path fill="#25819a" d="M818 429c-10.712 3.447-17.713 3.635-29.5 3 5.586-4.357 13.848-5.923 19.5-10 1.148 1.329 1.612 7.614 2.5 8 .347.151 5.76-2.746 7.5-1"/><path fill="#005a7c" d="M837 461c-1.366-10.833-4.212-22.699-8-33 2.113-1.768 4.189-3.101 5-6 .156.171 1.564-.436 2 .5 1.047 2.247 6.672 35.246 6 37-.912 2.38-3.286-.397-5 1.5"/><path fill="#59a0b8" d="M475 496c-1.891-.582-1.631.652-2 1-3.554 3.355-15.989 38.369-22 48l-7 4.5c25.672-36.101 26.775-80.939 8-120.5l3-4c4.275 9.092 9.494 20.865 12 30.5 2.536 9.751 3.882 34.368 8 40.5"/><path fill="#fdfefe" d="M319 426c17.17 1.156 17.515 26.76 4.5 36-5.744 4.078-8.359 3.227-14.5 4-.314.039-5.461-2.077-6-2-4.981-3.43-7.505-6.821-8-13-.938-11.706 12.131-25.799 24-25"/><path fill="#9fe4f3" d="M541 439c-2.266 8.432-9.102 37.958-7 45l-49.5 2c-3.042-19.904-4.944-39.847-11.5-59 6.092-.553 10.349 9.593 16.5 13 16.236 8.993 34.913 4.034 51.5-1"/><path fill="#fdfefe" d="M609 427c19.29 2.683 14.686 41.331-10 39-.157-.015-1.885-.679-3-1-2.03-.584-6.974-3.505-8-5-.797-1.161-1.755-5.338-2-7-1.822-12.381 9.224-27.916 23-26"/><path fill="#66c7de" d="M837 461c.041.328-.039.671 0 1h-2l-14-4c-.241-.249-.942-.959-1-1l2-24c1.787-1.012 5.38-3.645 7-5 3.788 10.301 6.634 22.167 8 33"/><path fill="#1e0605" d="M187 433c2.451.752 6.138 2.593 8.5 3 4.069.701 25.458.545 26.5 2 .082.115-2.206.723-2 2-.406.396-2.856 1.949-4 3-7.855-2.2-17.316-1.477-25-4-.171-.056-1.942-1.491-3-2-2.415-1.162-5.311-4.027-8-5 .077-.985-2.057-1.713-.5-3 1.976 2.347 4.708 3.144 7.5 4"/><path fill="#e1f3f8" d="M125 439c3.032-.013 16.856-.97 18 1.5l-4 25.5c-9.483-1.339-28.391.777-33.5 10l-2.5-15c1.111-13.219 2.034-18.427 6-31l1.5 11c4.332-1.29 9.982-1.98 14.5-2"/><path fill="#005e7b" d="M188 437c-1.38 6.073-8.885 22.136-1 25-5.092 1.526-7.2.164-11-1-.433-9.921 3.232-19.192 4-29 2.689.973 5.585 3.838 8 5"/><path fill="#3d748e" d="M759 432c12.297 9.494 24.654 18.483 38 26.5l-9 42.5c.569-3.607.994-7.383 1.5-11l-19.5-2c.317-17.8-9.834-34.066-21-47z"/><path fill="#5e9fb7" d="M820 457c-.348-.248-5.882-1.613-8-3l-2-16c4.583-1.33 7.867-2.66 12-5z"/><path fill="#016f93" d="M419 440c17.207 16.476 19.797 46.084 14 68-11.838 5.625-23.268 12.536-37 12 7.42-10.125 14.623-27.059 13-39.5-1-7.668-15.394-30.277-15-32 .911-3.984 16.079-10.373 18.5-14.5 1.852 2.312 4.406 3.995 6.5 6"/><path fill="#1f667d" d="M539 487c-2.088.752-4.564-1.539-5-3-2.102-7.042 4.734-36.568 7-45 .526-1.959.969-1.893 1-2l8-3c-6.841 18.153-6.598 35.336-11 53"/><path fill="#a2d6e6" d="m191 439 8 17c-5.662 2.776-7.358 1.684-11.5 3-.953.303-.327 2.948-.5 3-7.885-2.864-.38-18.927 1-25 1.058.509 2.829 1.944 3 2"/><path fill="#75bbd0" d="M554 498c1.603 15.395 7.71 29.035 14 43-1.951-2.112-4.673-7.068-7.5-4-2.493 2.706 20.172 28.989 23.5 32l-9-5.5c17.601 23.572 43.726 38.295 71.5 46.5 1.338.395 5.603.885 3.5 3-.615-.113-1.399.129-2 0-20.98-4.512-50.849-22.276-66-37.5-19.48-19.573-29.896-43.489-38-69.5-.228-2.309.219-5.225-1-8 .206-.227.753-1.539 1-2 7.353-13.753 2.081-45.545 17.5-59-4.863 20.796-9.762 39.277-7.5 61"/><path fill="#aeb9c1" d="M220 440c-.206-1.277 2.082-1.885 2-2a90 90 0 0 1-2 2"/><path fill="#478198" d="M812 454c-4.923-3.223-10.335-6.457-15-10l-2.5-4c5.129-.233 10.565-.568 15.5-2z"/><path fill="#7fd9ee" d="M900 439c2.538 6.876 13.382 26.267 5 30-5.683-4.691-19.891-2.398-27-3 .694-3.048-1.223-22.157-2-26 7.67-2.9 15.985-2.278 24-1"/><path fill="#fcfcfc" d="M216 443c-6.857 6.303-5.256 7.243-17 13l-8-17c7.684 2.523 17.145 1.8 25 4"/><path fill="#859eaf" d="M256 449c-9.683 13.367-14.896 29.394-11 46-.172-.401-2.775-4.115-3.5-7-5.068 1.945-10.672 2.25-16 3-.773.109-.272 2.084-1 2-2.194-.252-.666-7.353-4.5-7-2.061-7.867-5.147-18.163-3-26 11.204-5.176 20.46-13.442 30-21z"/><path fill="#47849d" d="M453 449c.336.883.691 2.063 1 3 15.633 47.354-3.625 92.362-45 118-4.276-2.526-8.469-1.92-13-1v-2c41.758-21.18 62.707-73.469 43-117z"/><path fill="#1d446f" d="M295 451c.495 6.179 3.019 9.57 8 13-3.171.456-12.886 9.993-17 11 1.116-7.87 4.285-17.643 9-24"/><path fill="#3ab0cc" d="M161 453c-.289 5.68 13.191 9.847 14 12.5.067.22-1.062 1.949-1 4.5.264 10.779-2.502 23.038-2 34-.25-3.318-.383-20.618-1-21.5-.442-.631-13.245-4.811-15-3.5.28-9.057.746-19.066 2-28 2.138-.652 2.279 1.362 3 2"/><path fill="#26537c" d="M586 453c.245 1.662 1.203 5.839 2 7l-9 9c1.245-5.098 2.566-12.557 7-16"/><path fill="#c1e2ed" d="M153 455c-2.805 20.37-3.23 37.534-1 58-1.781.786-2.87-3.296-3-4-2.548-13.8-5.789-27.86-6-42-.044-2.959-.154-6.05 0-9 5.146.71 6.263-.254 10-3"/><path fill="#8cc7da" d="M572 455c-18.797 56.185 18.95 115.271 77 124-3.332 13.251 6.436 8.847 15.5 11l-1.5 2c-41.324-2.739-80.048-29.921-96-68-10.903-26.027-11.017-42.248-3-69 1.441 7.67 5.514.209 8 0"/><path fill="#01273c" d="M835 462c-17.472 0-14.454 4.946-14 20l-11 35.5c-3.681 6.433-5.521 14.011-9 20.5-6.343 11.831-18.421 22.445-24 33l-20 15c30.11-26.166 54.427-68.543 59-108.5.857-7.488 3.581-11.447-3-14.5 3.659-.149 13.492.675 8-5z"/><path fill="#75a8c0" d="M596 465c-2.628 3.479-1.407 19.658-2 20.5-.528.75-15.255.889-18 3.5-.05-6.711 1.421-13.533 3-20l9-9c1.026 1.495 5.97 4.416 8 5"/><path fill="#3c8ba4" d="M813 463c6.581 3.053 3.857 7.012 3 14.5-4.573 39.957-28.89 82.334-59 108.5-29.471 21.996-70.329 33.758-107 27 2.103-2.115-2.162-2.605-3.5-3-27.774-8.205-53.899-22.928-71.5-46.5l9 5.5c4.628 4.187 10.726 7.635 16 11 71.491 45.612 157.519 14.71 189-62 6.797-18.511 13.087-37.513 14-57.5.252-.449 9.179 2.119 10 2.5"/><path fill="#7fbcd0" d="M139 466c.204.029 2.038 1.951 4 1 .211 14.14 3.452 28.2 6 42l-8 1c-.545-2.868-1.677-19.418-2.5-20-1.338-.946-15.729 1.252-20-1-4.969-2.62-3.176-13.079-5-18-1.705 5.684.2 11.457.5 17-2.064.32-3.837-1.229-5 1.5-.92 2.16-.886 21.067-1 25-.053 1.826 1.001 4.938-2 4.5-5.541-17.239-4.511-40.018-3-58l2.5 15c5.109-9.223 24.017-11.339 33.5-10"/><path fill="#44acc6" d="M835 462h2c5.214 43.75 2.216 89.131-7 132 3.153-15.973 5.765-35.218 7-51.5.876-11.547.732-23.41 1-35-.886-1.251-12.623.468-13 1-1.55 2.189 2.67 18.302-2 20.5.507-16.484-1.522-31.166-2-47-.454-15.054-3.472-20 14-20"/><path fill="#21a0c2" d="M863 477c-1.533 4.501-8.399 3.456-13 4-.017-2.121-2.385-14.82-2-15.5 1.329-2.346 11.718-.123 14-3.5.491 4.951.835 10.017 1 15"/><path fill="#6794aa" d="M210 464c4.825 23.225 10.926 48.325 23 69-2.444-.979-8.136 2.956-11 5-12.697-22.63-21.395-46.326-26-72 5.106-.272 9.041-.575 14-2"/><path fill="url(#f)" d="M309 466c-10.568 15.042 1.35 43.064 12 56 18.258 22.178 34.718 18.717 58 10-2.63 4.877 1.359 11.749 5.5 14 5.124 2.786 11.146.218 14.5 4-.291.318-1.888 1.914-2 2-48.862 37.405-119.725-15.466-111-77 4.114-1.007 13.829-10.544 17-11 .539-.077 5.686 2.039 6 2" style="fill:url(#f)"/>/&gt;<path fill="#95c4d5" d="M196 466c4.605 25.674 13.303 49.37 26 72 27.919 49.761 74.545 82.129 134 74 13.725-1.876 39.407-11.428 51-19-4.741 8.293-21.952 14-31 17-52.732 17.487-107.787-3.876-142-46-6.393-7.872-11.527-16.51-17-25-5.871-14.7-14.648-28.481-17-44.5-2.532-1.5-1.744.56-2 2-13.693 77.054 31.465 175.749 77 235.5 43.156 56.63 92.439 94.449 163 111-4.505 4.789 1.948 2.191 2 3.5l-4 1.5c-169.5-40.412-274.806-212.528-254-383 4.99-.61 10.127 1.206 14 1"/><path fill="#1f9ec1" d="M599 466c-12.866 35.358 18.752 79.739 58 73-.716 8.502 4.979 18.112 14 19l-1 3c-48.477 12.09-93.62-21.444-94-72 2.745-2.611 17.472-2.75 18-3.5.593-.842-.628-17.021 2-20.5 1.115.321 2.843.985 3 1"/><path fill="#5aacc5" d="M905 469c2.938 2.425 6.562 15.015 7 19-2.139-2.623-3.045-8.277-8-6-3.556 1.634-1.475 5.196-4.5 7-4.604 2.745-14.931-1.347-18 0-1.864.818-1.961 6.865-2.5 9-5.044.332-2.042-.844-2-2.5.151-6.025.809-11.96 1-18l-8.5 4.5c-.208-2.076-1.018-4.061-1.5-6a80 80 0 0 1-1-5c5.881-.149 9.434 1.874 11-5 7.109.602 21.317-1.691 27 3"/><path fill="#2d809a" d="M879 498c-1.085 4.294-.526 10.202-3.5 14-.225-8.392-1.779-5.169-8.5-6.5l1-29.5c.482 1.939 1.292 3.924 1.5 6l8.5-4.5c-.191 6.04-.849 11.975-1 18-.042 1.656-3.044 2.832 2 2.5"/><path fill="#026680" d="M863 496c-1.37 29.969-7.843 45.122-18 72-3.14.339-2.131-5.898-2-7.5 1.694-20.768 4.432-40.375 4-61.5 2.87-3.879 3.038-13.286 3-18 4.601-.544 11.467.501 13-4 .206 6.214.284 12.793 0 19"/><path fill="#087691" d="M172 504c1.607 21.302 4.061 42.846 5.5 64 .108 1.593.279 3.235-1.5 4-8.812-21.269-16.416-33.663-19-58-1.232-11.604-1.36-23.344-1-35 1.755-1.311 14.558 2.869 15 3.5.617.882.75 18.182 1 21.5"/><path fill="url(#g)" d="M821 482c.478 15.834 2.507 30.516 2 47-3.833 124.52-79.851 246.286-195 296-33.511 14.468-63.494 21.063-100 24 6.667-5.88 18.906-5.425 27.5-8C660.782 809.456 754.541 708.401 772 599c.472-.44 1.505-2.502 2-3 16.409-16.521 25.569-34.259 27-58 3.479-6.489 5.319-14.067 9-20.5z" style="fill:url(#g)"/>/&gt;<path fill="#4489a1" d="M912 488c.331 3.018.334 23.893 0 27-.465 4.324-1.463 8.162-3.5 12-6.965 1.608-6.289-40.836-4.5-45 4.955-2.277 5.861 3.377 8 6"/><path fill="#9fc2d0" d="M245 495c6.776 15.853 7.289 24.825 19 40-7.359 4.429-10.167 11.027-18 4-11.05-14.694-21.357-35.282-26-53 3.834-.353 2.306 6.748 4.5 7 .728.084.227-1.891 1-2 5.328-.75 10.932-1.055 16-3 .725 2.885 3.328 6.599 3.5 7"/><path fill="#5698b0" d="M114 488c.214 3.95 3.82 42.615-4.5 40-1.521-.478-2.912-7.172-3.5-9 3.001.438 1.947-2.674 2-4.5.114-3.933.08-22.84 1-25 1.163-2.729 2.936-1.18 5-1.5"/><path fill="#4b92ab" d="M788 501c-1.07 6.784-2.627 9.091-5 15-5.662 14.098-12.281 21.925-22 33-1.631-1.639-4.776 4.11-5.5 4-.682-.103-8.594-8.523-9.5-10 11.58-13.574 23.679-36.944 24-55l19.5 2c-.506 3.617-.931 7.393-1.5 11"/><path fill="#2ac1dc" d="M675 501c-3.417-12.644-24.108-11.454-20 3-.102-.013.282 2.114-.5 2-10.612-16.856 22.823-21.618 20.5-5"/><path fill="#239ac2" d="M385 509c-1.756-1.662-6.515 2.781-7.5 3-3.024.671-5.685-2.026-6-2-1.04.086 2.106 4.525-3.5 3-1.639-.737-2.356-2.289-4-3-6.893-23.498 33.741-23.392 21-1"/><path fill="#218ab3" d="M675 501c-1.577 11.284-15.337 15.428-17 2.5-1.267-1.598-2.034.625-3 .5-4.108-14.454 16.583-15.644 20-3"/><path fill="#d8eaf1" d="M217 539c5.219 13.068 6.462 23.484 14 37 1.464 2.625 4.616 9.112 6 11 14.241 71.125 41.185 143.061 94 194.5-22.311-11.61-39.258-31.255-56-49.5-45.535-59.751-90.693-158.446-77-235.5.256-1.44-.532-3.5 2-2 2.352 16.019 11.129 29.8 17 44.5"/><path fill="url(#h)" d="M475 496c.705 1.05 7.276 5.731 8.5 6 4.46.979 47.01.886 52 0 1.336-.237 6.505-2.905 7.5-4 1.219 2.775.772 5.691 1 8 5.656 57.187 45.065 105.378 101 121 43.951 12.275 93.284 3.414 127-28-17.459 109.401-111.218 210.456-216.5 242-8.594 2.575-20.833 2.12-27.5 8-34.112 2.745-56.61 1.832-90-6-70.561-16.551-119.844-54.37-163-111 16.742 18.245 33.689 37.89 56 49.5-52.815-51.439-79.759-123.375-94-194.5 5.333 7.278 21.234 21.307 29 26-7.521 2.118-.702 24.328 1 31.5 11.293 47.583 62.397 152.284 115.5 161.5 1.569.272 11.179 1.883 11.5-.5-51.303-46.159-90.624-111.481-100-180.5 33.047 10.295 68.393 7.668 100-6 11.739-5.076 34.439-18.871 42-29 21.429-19.163 41.791-59.953 37-89-.206-1.251.133-2.71 0-4 .369-.348.109-1.582 2-1m15 132c-25.727 4.205-69.976 32.376-89.5 50-19.228 17.356-32.287 41.334-62 44 9.337 4.185 32.176-11.889 37-10 3.391 1.328 17.281 24.519 21.5 29.5 55.756 65.83 163.77 74.155 222 7 8.768-10.112 14.749-22.715 24-32.5 13.457-6.1 15.779.597 28.5 2 4.942.545 17.551 1.133 21-2-36.178 5.791-58.962-27.567-84-47-20.56-15.957-62.812-45.304-89-43-2.978.262-7.554 3.962-8 4-4.703.401-11.507-3.633-21.5-2" style="fill:url(#h)"/>/&gt;<path fill="#013856" d="M567 524c15.952 38.079 54.676 65.261 96 68 40.602 2.691 71.868-13.223 98-43 9.719-11.075 16.338-18.902 22-33 3.399.516 1.66 4.004 6 2-31.481 76.71-117.509 107.612-189 62 .279-3.764 2.118-.533.5-3-1.338-2.04-28.396-31.557-32.5-36-6.29-13.965-12.397-27.605-14-43l4-1.5c-2.547 3.67 1.572 9.501 2 11 1.298 4.542 1.793 15.489 7 16.5"/><path fill="#04799b" d="M724 507c-5.758 26.79-27.82 47.471-54 54l1-3c18.958 1.865 30.283-28 15-36 6.888-7.222 10.382-16.633 13.5-26z"/><path fill="#001524" d="M846 576c-7.925 2.855-2.339-4.457-1-8 10.157-26.878 16.63-42.031 18-72 3.971-.457 2.748.762 3 3.5 1.445 15.711-3.388 53.845-12 67-2.314 3.535-7.371 3.931-8 9.5"/><path fill="#95d1e1" d="M473 501c-4.277 24.528-17.753 46.097-34 65h-4c4.918-5.074 12.206-14.921 16-21 6.011-9.631 18.446-44.645 22-48 .133 1.29-.206 2.749 0 4"/><path fill="#3e5b67" d="M436 590c5.283-7.077 3.21-5.661-2-12 2.927-2.797 28.119-32.058 23.5-34-9.197 14.503-20.43 27.299-33 39-2.509.42 1.346-4.32 1.5-4.5 3.437-4.02 8.886-7.714 13-12.5 16.247-18.903 29.723-40.472 34-65 4.791 29.047-15.571 69.837-37 89"/><path fill="#385b6a" d="m648 613-3 14c-55.935-15.622-95.344-63.813-101-121 8.104 26.011 18.52 49.927 38 69.5 15.151 15.224 45.02 32.988 66 37.5"/><path fill="#1c568a" d="M395 521c-2.846 3.551-6.791 4.804-8 9-4.521.075-4.391.649-8 2-23.282 8.717-39.742 12.178-58-10 6.155 3.245 4.496-.093 8.5-2 8.642-4.115 26.394-13.506 34.5-10 1.644.711 2.361 2.263 4 3 2.772 1.246 1.818 3.469 8 3 12.109 2.589 8.838-16.188 23-5.5.16 3.001-9.526 9.825-4 10.5"/><path fill="#3693ac" d="M830 594c-10.791 54.668-43.234 116.105-82 156-33.622 34.601-74.246 62.688-118.5 82l-1.5-7c115.149-49.714 191.167-171.48 195-296 4.67-2.198.45-18.311 2-20.5.377-.532 12.114-2.251 13-1-.268 11.59-.124 23.453-1 35-1.235 16.282-3.847 35.527-7 51.5"/><path fill="#28bad8" d="M385 509c-2.465 4.332-3.545 6.586-9 7-6.182.469-5.228-1.754-8-3 5.606 1.525 2.46-2.914 3.5-3 .315-.026 2.976 2.671 6 2 .985-.219 5.744-4.662 7.5-3"/><path fill="#20a0c2" d="M433 508c-4.719 17.838-18.712 36.942-36 44 .112-.086 1.709-1.682 2-2 .707-.77 3.889-2.278 4-2.5 5.893-11.774-6.109-17.665-16-17.5 1.209-4.196 5.154-5.449 8-9 .578-.721.958-.943 1-1 13.732.536 25.162-6.375 37-12"/><path fill="#4d90a6" d="M149 509c.13.704 1.219 4.786 3 4 .071.647-.079 1.355 0 2 .452 3.684 1.331 7.36 2 11-3.294 2.155-.589 10.986 0 15l-2.5 1c3.347-2.346-1.045-9.882-.5-13.5-2.496-3.451-3.529.377-6 1.5-1.649-6.377-2.764-13.498-4-20z"/><path fill="#011a2a" d="M157 514c2.584 24.337 10.188 36.731 19 58 2.718 6.56 3.324 8.01 5 14-1.435-5.043-8.541-10.365-13-13-4.514-16.061-10.982-30.58-14-47-.669-3.64-1.548-7.316-2-11z"/><path fill="#43def7" d="M686 522c15.283 8 3.958 37.865-15 36-9.021-.888-14.716-10.498-14-19 1.125-13.365 16.415-23.588 29-17"/><path fill="#40788d" d="M154 541c.592 4.034 6.53 10.635-2 10.5-.969-.582-6.299-18.788-7-21.5 2.471-1.123 3.504-4.951 6-1.5-.545 3.618 3.847 11.154.5 13.5z"/><path fill="#64effe" d="M387 530c9.891-.165 21.893 5.726 16 17.5-.111.222-3.293 1.73-4 2.5-3.354-3.782-9.376-1.214-14.5-4-4.141-2.251-8.13-9.123-5.5-14 3.609-1.351 3.479-1.925 8-2"/><path fill="#49a1bc" d="M233 533c26.973 46.189 74.536 70.761 128 65-.539 2.354.741 10.128 0 11.5-.848 1.57-7.45-2.701-5 2.5-59.455 8.129-106.081-24.239-134-74 2.864-2.044 8.556-5.979 11-5"/><path fill="#b9ebf6" d="M264 535c13.21 17.117 36.962 34.831 58 40-.581 13.588-4.239 7.244-12 11-23.888-6.925-49.178-27.291-64-47 7.833 7.027 10.641.429 18-4"/><path fill="#2f6b83" d="M568 541c4.104 4.443 31.162 33.96 32.5 36 1.618 2.467-.221-.764-.5 3-5.274-3.365-11.372-6.813-16-11-3.328-3.011-25.993-29.294-23.5-32 2.827-3.068 5.549 1.888 7.5 4"/><path fill="#084e66" d="M774 596v-21.5c1.156-1.122 2.226-2.035 3-3.5 5.579-10.555 17.657-21.169 24-33-1.431 23.741-10.591 41.479-27 58"/><path fill="#5b6161" d="M234 564c-6.902-2.933 3.387 11.274-3 12-7.538-13.516-8.781-23.932-14-37 5.473 8.49 10.607 17.128 17 25"/><path fill="#5cafc9" d="M761 549c-26.132 29.777-57.398 45.691-98 43l1.5-2c-9.064-2.153-18.832 2.251-15.5-11 37.234 5.599 72.665-7.475 97-36 .906 1.477 8.818 9.897 9.5 10 .724.11 3.869-5.639 5.5-4"/><path fill="#daeff5" d="M434 578c-11.242 10.742-32.322 24.933-47 30-3.521 1.215-7.165 2.405-11 2 9.048-3 26.259-8.707 31-17 1.452-.948 4.045-1.18 3.5-3l-11.5-.5c4.513-2.391 16.078-5.808 19-9.5 1.252-1.582-.004-.537 0-2 6.904-2.386 10.854-5.66 17-12h4c-4.114 4.786-9.563 8.48-13 12.5-.154.18-4.009 4.92-1.5 4.5 12.57-11.701 23.803-24.497 33-39 4.619 1.942-20.573 31.203-23.5 34"/><path fill="#3e5b66" d="M234 564c34.213 42.124 89.268 63.487 142 46 3.835.405 7.479-.785 11-2l7 11c-31.607 13.668-66.953 16.295-100 6-7.706-2.401-21.227-7.908-28-12-7.766-4.693-23.667-18.722-29-26-1.384-1.888-4.536-8.375-6-11 6.387-.726-3.902-14.933 3-12"/><path fill="#95dded" d="M396 567v2c-6.58 1.336-11.892 4.391-9 12-25.045 9.296-51.067 12.518-77 5 7.761-3.756 11.419 2.588 12-11 24.336 5.979 51.506 3.409 74-8"/><path fill="#a6edf8" d="M409 570c-7.059 4.374-14.18 8.098-22 11-2.892-7.609 2.42-10.664 9-12 4.531-.92 8.724-1.526 13 1"/><path fill="#1c5d72" d="M777 571c-.774 1.465-1.844 2.378-3 3.5V596c-.495.498-1.528 2.56-2 3-33.716 31.414-83.049 40.275-127 28l3-14c.601.129 1.385-.113 2 0 36.671 6.758 77.529-5.004 107-27z"/><path fill="#2a7e97" d="M418 578c-2.147.742-2.833 2.352 0 2-2.922 3.692-14.487 7.109-19 9.5l11.5.5c.545 1.82-2.048 2.052-3.5 3-11.593 7.572-37.275 17.124-51 19-2.45-5.201 4.152-.93 5-2.5.741-1.372-.539-9.146 0-11.5 12.153-1.31 23.805-4.712 35.5-8 1.634-1.743-4.813-2.342-4.5-4.5.041-.282 4.22-3.446 4.5-3.5.623-.121.221 2.372 1.5 2 5.358-1.557 9.855-3.998 15-6 1.691-.658 3.332-1.536 4.5-3 3.21.251.503 2.009.5 3"/><path fill="#3d91cb" d="M413 578c-5.145 2.002-9.642 4.443-15 6 .836-6.677 9.39-7.917 15-6"/><path fill="#043957" d="M418 580c-2.833.352-2.147-1.258 0-2-.004 1.463 1.252.418 0 2"/><path fill="#437184" d="M436 590c-7.561 10.129-30.261 23.924-42 29l-7-11c14.678-5.067 35.758-19.258 47-30 5.21 6.339 7.283 4.923 2 12"/><path fill="url(#i)" d="M266 613c6.773 4.092 20.294 9.599 28 12 9.376 69.019 48.697 134.341 100 180.5-.321 2.383-9.931.772-11.5.5-53.103-9.216-104.207-113.917-115.5-161.5-1.702-7.172-8.521-29.382-1-31.5" style="fill:url(#i)"/>/&gt;<path fill="#263740" d="M643 716c-.416.189-3.488 1.843-4 1 .738-1.269 1.339-2.683 2-4 .095-.189 1.549-.081 2-3 .119-.768.456-1.037 1-1.5-11.078-9.806-21.06-21.122-32.5-30.5-19.587-16.057-66.591-49.233-92-46-.932.119-5.042 3.804-7 4-5.421.544-10.99-3.14-20.5-2l-2-6c9.993-1.633 16.797 2.401 21.5 2 .446-.038 5.022-3.738 8-4 26.188-2.304 68.44 27.043 89 43 25.038 19.433 47.822 52.791 84 47-3.449 3.133-16.058 2.545-21 2-12.721-1.403-15.043-8.1-28.5-2"/><path fill="#323a41" d="M492 634c-31.38 3.762-78.351 37.875-100.5 60-3.685 3.681-15.619 12.719-11.5 16 8.205 6.537 51.09-1.613 63-4 .478 1.566 4.285 1.187 5.5 1 30.224-4.656 55.466-10.473 87-3l21.5 6c-5.038-.609-10.021-2.392-15-3-31.409-3.835-46.788-6.034-79-2-6.723.842-13.716 3.072-21 4-19.794 2.521-39.353 6.505-59.5 5 42.841 81.983 160.892 108.996 228.5 40.5 9.303-9.425 21.331-26.04 28-37.5.512.843 3.584-.811 4-1-9.251 9.785-15.232 22.388-24 32.5-58.23 67.155-166.244 58.83-222-7-4.219-4.981-18.109-28.172-21.5-29.5-4.824-1.889-27.663 14.185-37 10 29.713-2.666 42.772-26.644 62-44 19.524-17.624 63.773-45.795 89.5-50z"/><path fill="#fcfcfc" d="M643 710c-.774-.13-1.27-.673-2-1-11.547-5.17-37.311-33.942-52.5-44-15.393-10.193-50.091-30.001-68-28-1.955.218-6.138 3.903-7 4-3.169.358-11.034-3.097-16-3-8.804.173-19.46 5.585-27.5 9-29.24 12.42-53.908 29.718-77 51-4.32 3.981-8.884 7.803-13 12-4.119-3.281 7.815-12.319 11.5-16 22.149-22.125 69.12-56.238 100.5-60 9.51-1.14 15.079 2.544 20.5 2 1.958-.196 6.068-3.881 7-4 25.409-3.233 72.413 29.943 92 46 11.44 9.378 21.422 20.694 32.5 30.5-.544.463-.881.732-1 1.5"/><path fill="url(#j)" d="M641 709c-31.299 7.284-70.706.441-101.5-9-6.482-1.987-33.096-14.973-35-15-1.23-.017-17.545 9.551-22 11-12.421 4.039-26.692 7.433-39.5 10-11.91 2.387-54.795 10.537-63 4 4.116-4.197 8.68-8.019 13-12l.5 4c20.848-7.969 42.826-18.329 64-25 38.999-12.286 74.792-11.936 114.5 0 3.075.924 32.812 17.154 34 11.5-3.632-3.581-7.032-7.628-12-9.5-13.901-12.942-57.122-37.16-75.5-33-1.589.36-3.23 5.872-9 4-1.967-.638-3.576-6.985-12-8l-27.5 5c8.04-3.415 18.696-8.827 27.5-9 4.966-.097 12.831 3.358 16 3 .862-.097 5.045-3.782 7-4 17.909-2.001 52.607 17.807 68 28 15.189 10.058 40.953 38.83 52.5 44" style="fill:url(#j)"/>/&gt;<path fill="#dfbfd3" d="M594 679c-4.711-1.775-17.161-3.582-22-2-39.708-11.936-75.501-12.286-114.5 0-21.174 6.671-43.152 17.031-64 25l-.5-4c23.092-21.282 47.76-38.58 77-51l27.5-5c8.424 1.015 10.033 7.362 12 8 5.77 1.872 7.411-3.64 9-4 18.378-4.16 61.599 20.058 75.5 33"/><path fill="#c1b2c6" d="M594 679c4.968 1.872 8.368 5.919 12 9.5-1.188 5.654-30.925-10.576-34-11.5 4.839-1.582 17.289.225 22 2"/><path fill="#494048" d="M641 709c.73.327 1.226.87 2 1-.451 2.919-1.905 2.811-2 3-23.681 1.715-47.405 1.483-71-1-4.443-.468-8.626-1.471-13-2l-21.5-6c-31.534-7.473-56.776-1.656-87 3-1.215.187-5.022.566-5.5-1 12.808-2.567 27.079-5.961 39.5-10 4.455-1.449 20.77-11.017 22-11 1.904.027 28.518 13.013 35 15 30.794 9.441 70.201 16.284 101.5 9"/><path fill="#9c829a" d="M542 707c-3.148 2.684-1.49.792 0 2.5 3.079 3.529 6.852 6.523 10 10-.404 2.044-7.783.775-9 .5-17.396-3.924-34.69-13.534-54.5-10l-25.5-5c32.212-4.034 47.591-1.835 79 2"/><path fill="#c8b1c7" d="m463 705 25.5 5c19.81-3.534 37.104 6.076 54.5 10-1.902 6.082 7.044 6.93 9 12.5 5.351 15.237-16.65 21.113-27 24.5-12.739 1.941-24.021 4.096-37 4-5.782-.043-10.083.211-16-1-10.549-2.16-40.632-14.31-48.5-20-.558-.403-1.854-7.364-6.5-6 2.022-12.763 18.435-17.354 25-25 7.284-.928 14.277-3.158 21-4m-2.5 18c-7.733.862-19.713 4.599-6 10 27.909 10.992 46.032-14.46 6-10"/><path fill="#a287a1" d="M557 710c4.374.529 8.557 1.532 13 2 2.338 3.137 7.534 5.787 11 8-4.903 6.002-3.054 14.557-4 19-13.93 9.633-29.771 16.097-46.5 19-2.863.497-5.224-1.042-5.5-1 10.35-3.387 32.351-9.263 27-24.5-1.956-5.57-10.902-6.418-9-12.5 1.217.275 8.596 1.544 9-.5-3.148-3.477-6.921-6.471-10-10-1.49-1.708-3.148.184 0-2.5 4.979.608 9.962 2.391 15 3"/><path fill="#6a5569" d="M442 709c-6.565 7.646-22.978 12.237-25 25-3.805 24.018 29.212 32.551 46 38 7.465 2.423 21.173 8.661 28.5 9 7.546.349 12.024-3.765 17-4 33.824-1.598 49.101 5.731 78-20 17.842-15.886 11.517-26.133-5.5-37-3.466-2.213-8.662-4.863-11-8 23.595 2.483 47.319 2.715 71 1-.661 1.317-1.262 2.731-2 4-6.669 11.46-18.697 28.075-28 37.5-67.608 68.496-185.659 41.483-228.5-40.5 20.147 1.505 39.706-2.479 59.5-5"/><path fill="#91768f" d="m463 772 9-12c5.917 1.211 10.218.957 16 1-.889 1.81 3.933 2.932 4.5 3 20.054 2.402 79.226-.224 84.5-25 .946-4.443-.903-12.998 4-19 17.017 10.867 23.342 21.114 5.5 37-28.899 25.731-44.176 18.402-78 20-4.976.235-9.454 4.349-17 4-7.327-.339-21.035-6.577-28.5-9"/><path fill="#fefdfe" d="M460.5 723c40.032-4.46 21.909 20.992-6 10-13.713-5.401-1.733-9.138 6-10"/><path fill="#a287a1" d="m472 760-9 12c-16.788-5.449-49.805-13.982-46-38 4.646-1.364 5.942 5.597 6.5 6 7.868 5.69 37.951 17.84 48.5 20"/><path fill="#ae9bb4" d="M577 739c-5.274 24.776-64.446 27.402-84.5 25-.567-.068-5.389-1.19-4.5-3 12.979.096 24.261-2.059 37-4 .276-.042 2.637 1.497 5.5 1 16.729-2.903 32.57-9.367 46.5-19"/><path fill="#5babbf" d="m436 848 4-1.5c-.052-1.309-6.505 1.289-2-3.5 33.39 7.832 55.888 8.745 90 6 36.506-2.937 66.489-9.532 100-24l1.5 7c44.254-19.312 84.878-47.399 118.5-82-78.737 88.742-195.965 125.665-312 98"/></svg>