<svg xmlns="http://www.w3.org/2000/svg" width="1024" height="1024"><defs><linearGradient id="a" x1="242.064" x2="774.41" y1="318.761" y2="513.946" gradientUnits="userSpaceOnUse"><stop offset="0%" style="stop-color:#9fcedf"/><stop offset="9.524%" style="stop-color:#cfecf6"/><stop offset="49.912%" style="stop-color:#b9deeb"/><stop offset="100%" style="stop-color:#468ca6"/></linearGradient></defs><defs><linearGradient id="b" x1="280.422" x2="488.247" y1="293.608" y2="508.573" gradientUnits="userSpaceOnUse"><stop offset="0%" style="stop-color:#f2fafd"/><stop offset="100%" style="stop-color:#c9effa"/></linearGradient></defs><defs><linearGradient id="c" x1="425.076" x2="633.782" y1="356.142" y2="422.495" gradientUnits="userSpaceOnUse"><stop offset="0%" style="stop-color:#11afd7"/><stop offset="69.863%" style="stop-color:#54dcf7"/><stop offset="100%" style="stop-color:#25a9d0"/></linearGradient></defs><defs><linearGradient id="d" x1="544.853" x2="473.971" y1="370.61" y2="464.948" gradientUnits="userSpaceOnUse"><stop offset="0%" style="stop-color:#0f4a6e"/><stop offset="100%" style="stop-color:#032852"/></linearGradient></defs><defs><linearGradient id="e" x1="853.122" x2="850.638" y1="473.76" y2="519.693" gradientUnits="userSpaceOnUse"><stop offset="0%" style="stop-color:#45aac6"/><stop offset="100%" style="stop-color:#8bbdcf"/></linearGradient></defs><defs><linearGradient id="f" x1="306.822" x2="799.145" y1="686.762" y2="774.047" gradientUnits="userSpaceOnUse"><stop offset="0%" style="stop-color:#575164"/><stop offset="39.6%" style="stop-color:#383045"/><stop offset="74.2%" style="stop-color:#575163"/><stop offset="100%" style="stop-color:#312a3f"/></linearGradient></defs><defs><linearGradient id="g" x1="435.295" x2="550.998" y1="808.218" y2="816.516" gradientUnits="userSpaceOnUse"><stop offset="0%" style="stop-color:#72c8df"/><stop offset="100%" style="stop-color:#52a7c1"/></linearGradient></defs><defs><linearGradient id="h" x1="632.289" x2="444.308" y1="848.775" y2="851.482" gradientUnits="userSpaceOnUse"><stop offset="0%" style="stop-color:#38788d"/><stop offset="100%" style="stop-color:#4db7ce"/></linearGradient></defs><path fill="#096e87" d="m561 135-2 2c-135.168-19.244-280.045 49.467-330 180.5-1.78 4.669-12.051 36.056-11 38 .565 1.045 2.606.205 3 .5-2.72 5.352 4.646 7.782 7 11.5 1.553 2.453 3.695 7.603 5 10.5l-2 3c-.353-.791-2.504-3.106-3-4-14.369-25.879-27.53-15.091-54-17-.594-.485-2.763.893-2-3 13.61-1.626 27.43-.199 41-2.5 22.294-100.077 97.58-177.488 194.5-208.5 52.358-16.753 99.316-20.342 153.5-11"/><path fill="url(#a)" d="M559 137c79.924 11.379 152.172 48.443 199 115 4.311 15.533 15.246 28.688 22 43.5 8.67 19.015 14.759 39.578 21 59.5-4.466 1.849-9.829 3.751-13.5 7-26.696 23.629-32.598 118.135-30.5 152.5 2.486 40.719 7.661 42.691-4 85-9.537 34.601-24.505 67.4-38 100.5-8.327-10.141-40.653-46.15-50.5-51-2.448-1.205-2.398.064-2.5 2-42.488-43.07-106.61-38.179-150.5 0-38.688-32.771-85.687-39.256-131.5-17-20.46 9.939-34.973 23.872-50 41-17.497-63.718-39.458-127.012-50-192.5-18.025-111.974 3.605-233.487 111.5-290.5 52.736-27.867 108.353-32.524 166.5-39.5-70-16.149-163.577 7.035-217.5 54.5-22.733 20.01-52.79 55.069-66.5 82-3.17-.664-3.74 1.459-5 3.5-4.074 6.599-12.131 26.243-15 34-5.811 15.71-9.961 32.253-14 48.5-6.374-11.942-9.576-11.961-19-19-.394-.295-2.435.545-3-.5-1.051-1.944 9.22-33.331 11-38C278.955 186.467 423.832 117.756 559 137m97.5 51c-45.758 4.413-43.536 78.056 5 78 52.173-.06 49.004-83.209-5-78M331 353c-8.048 24.652-10.648 43.938-10 70 .078 3.141.823 6.105 1 9 7.211 118.208 90.103 189.452 208.5 182 99.87-6.286 166.524-73.088 170.5-173 .784-19.712.883-40.513-2-60-27.861-188.314-307.456-213.464-368-28m374-89c-10.135 3.619-17.258 10.82-21 21-18.082 49.2 46.604 73.512 68 35.5 17.929-31.851-11.598-69.143-47-56.5" style="fill:url(#a)"/>/&gt;<path fill="#115872" d="M856 358v2c-2.294-.193-4.697.144-7 0-10.015-.627-39.162-2.108-46 3l-2-2c1.399-2.239 1.857-1.894 2-5 .165-3.585-4.641-20.885-6-25.5-7.799-26.484-23.152-55.975-39-78.5-46.828-66.557-119.076-103.621-199-115l2-2c123.595 21.309 215.606 93.522 245 218.5 1.71 2.196 42.79 3.19 50 4.5"/><path fill="url(#b)" d="M330 675c-5.136 5.854-15.039 17.726-19 24-23.827-39.87-34.652-90.611-41-136.5-2.052-14.831-1.387-34.294-4-48-.086-.451-1.934-3.523-3-3.5 1.466-29.383-3.078-69.341-10-98 .658-43.672.835-84.389 21-124 13.71-26.931 43.767-61.99 66.5-82 53.923-47.465 147.5-70.649 217.5-54.5-58.147 6.976-113.764 11.633-166.5 39.5C283.605 249.013 261.975 370.526 280 482.5c10.542 65.488 32.503 128.782 50 192.5" style="fill:url(#b)"/>/&gt;<path fill="#1e5c75" d="M656.5 188c54.004-5.209 57.173 77.94 5 78-48.536.056-50.758-73.587-5-78M627 213c-7.654 22.641 6.225 49.17 31 51 35.991 2.658 54.513-43.321 26.5-66-18.524-14.997-49.882-7.535-57.5 15"/><path fill="#71aaba" d="M658 264v-7c8.735.737 13.986-.843 21-6 13.541-9.957 16.356-27.131 5-40-5.302-6.009-12.609-11.493-21-12-.098-.699.156-2.89 0-3h-4c-8.543-.021-16.492 6.153-23 11-2.777 2.068-5.498 5.396-9 6 7.618-22.535 38.976-29.997 57.5-15 28.013 22.679 9.491 68.658-26.5 66"/><path fill="#215f6f" d="M663 196c-.262-.186-3.021.002-4 0z"/><path fill="#d9f4fa" d="M663 196c.156.11-.098 2.301 0 3-12.919-.781-26.112 8.59-28 22-3.211 22.809 18.44 39.083 39 29l5 1c-7.014 5.157-12.265 6.737-21 6-18.199-1.535-28.429-19.266-26-36.5l4-13.5c6.508-4.847 14.457-11.021 23-11 .979.002 3.738-.186 4 0"/><path fill="#074560" d="M663 199c8.391.507 15.698 5.991 21 12 3.803 10.952 4.902 19.649-1 30l-1-1c5.122-9.581 4.233-25.548-5.5-32-9.947-6.594-28.301-6.275-35.5 4-.747 1.066-3.83 8.63-4 10l-2-1c1.888-13.41 15.081-22.781 28-22"/><path fill="#0ba6c0" d="M682 240c-1.702 3.184-5.691 6.347-9 8-.221-6.248 7.794-9.617 9-15.5 1.031-5.028-.77-11.867-1-17-15.088 4.889-26.469 6.536-40-3.5 7.199-10.275 25.553-10.594 35.5-4 9.733 6.452 10.622 22.419 5.5 32"/><path fill="#bcd4da" d="M658 257v7c-24.775-1.83-38.654-28.359-31-51 3.502-.604 6.223-3.932 9-6l-4 13.5c-2.429 17.234 7.801 34.965 26 36.5"/><path fill="#5dc0d5" d="m679 251-5-1c4.314-2.116 6.648-4.875 9-9 5.902-10.351 4.803-19.048 1-30 11.356 12.869 8.541 30.043-5 40"/><path fill="#1fb9d3" d="M673 248c-19.18 9.584-38.567-5.283-36-26 .17-1.37 3.253-8.934 4-10 13.531 10.036 24.912 8.389 40 3.5.23 5.133 2.031 11.972 1 17-1.206 5.883-9.221 9.252-9 15.5"/><path fill="#096e92" d="M637 222c-2.567 20.717 16.82 35.584 36 26 3.309-1.653 7.298-4.816 9-8l1 1c-2.352 4.125-4.686 6.884-9 9-20.56 10.083-42.211-6.191-39-29z"/><path fill="#21667b" d="M699 381c-2.864 2.138-1.807-.988-2-1-2.104-16.298-8.071-31.27-15-46-9.476-20.145-19.482-34.172-35-50-5.041-5.142-9.382-9.424-15-14-6.213-5.061-12.278-8.742-19-13-7.901-5.005-12.271-7.957-21-12-101.277-46.915-225.4 1.531-260 109l-1-1c60.544-185.464 340.139-160.314 368 28"/><path fill="#f0f0f0" d="M592 245c-2.685 10.212-10.009 21.955-6 32-109.163-55.404-231.032 21.792-232 142-.551-7.9-1.474-13.839-1-22 .423-7.284 1.52-12.957 3-20 1.764-8.398 5.012-16.489 8-24.5l-23.5-9.5c-4.175-.062-9.488 23.011-10.5 27-1.823 7.186-4.159 14.609-5 22-.63 5.533-.87 12.373-1 18-.16 6.914-.57 14.205 1 21-.056-.475-1.623-2.786-2-8-1.699-23.504 1.826-46.718 9-69 34.6-107.469 158.723-155.915 260-109"/><path fill="#d3dde2" d="m613 257-13 28c-.152-.099-1.923-.332-3-1-3.6-2.232-7.232-5.088-11-7-4.009-10.045 3.315-21.788 6-32 8.729 4.043 13.099 6.995 21 12"/><path fill="#71c2db" d="m803 356-2-1c-6.241-19.922-12.33-40.485-21-59.5-6.754-14.812-17.689-27.967-22-43.5 15.848 22.525 31.201 52.016 39 78.5 1.359 4.615 6.165 21.915 6 25.5"/><path fill="#b8d6e0" d="m632 270-16 27c-3.811-3.225-11.869-9.321-16-12l13-28c6.722 4.258 12.787 7.939 19 13"/><path fill="#2f5c6e" d="M586 277c3.768 1.912 7.4 4.768 11 7l-6 13c-54.141-36.335-119.996-31.448-168.5 7-45.993 36.457-66.724 101.067-46.5 157-.053-.128-1.632.404-2-.5-1.325-3.255-4.578-20.882-5.5-21.5-1.412-.946-9.867 3.079-12.5 2-.162-.951.147-2.043 0-3-.949-6.184-1.566-12.768-2-19 .968-120.208 122.837-197.404 232-142"/><path fill="#215c74" d="m684 285 1 1c-7.964 21.626 3.58 46.834 27 51 42.367 7.537 58.2-51.566 27.5-68-.132-.071-1.842 2.056-2 2-3.11-1.095-4.202-3.96-4.5-4h3.5c-10.256-4.644-19.544-5.432-30.5-2l-1-1c35.402-12.643 64.929 24.649 47 56.5-21.396 38.012-86.082 13.7-68-35.5"/><path fill="#78b2c3" d="M733 267c-.377-.051-5.171 3.585-7 3-.264-.084-4.629-.968-5-1 .852-3.666-8.488-1.495-8 1-31.269 6.166-31.969 54.361 0 60l-1 7c-23.42-4.166-34.964-29.374-27-51 3.304-8.972 11.898-18.149 21-21 10.956-3.432 20.244-2.644 30.5 2z"/><path fill="#174a60" d="m705 264 1 1c-9.102 2.851-17.696 12.028-21 21l-1-1c3.742-10.18 10.865-17.381 21-21"/><path fill="#265b69" d="M721 269c-3.488-.3-5.017.412-8 1-.488-2.495 8.852-4.666 8-1"/><path fill="#6996a4" d="m712 337 1-7c9.213 1.625 12.979.746 21-4 14.458-8.555 16.868-22.233 10-36-1.678-3.364-4.524-8.179-7-11-3.586-4.087-5.493-7.255-11-9 1.829.585 6.623-3.051 7-3 .298.04 1.39 2.905 4.5 4 .158.056 1.868-2.071 2-2 30.7 16.434 14.867 75.537-27.5 68"/><path fill="#cbecf4" d="M721 269c.371.032 4.736.916 5 1 5.507 1.745 7.414 4.913 11 9-11.628-7.495-20.92-10.403-33-2-27.383 19.05-3.188 61.981 28 46l2 3c-8.021 4.746-11.787 5.625-21 4-31.969-5.639-31.269-53.834 0-60 2.983-.588 4.512-1.3 8-1"/><path fill="#94becb" d="m647 284-18 26c-3.695-4.051-8.897-9.528-13-13l16-27c5.618 4.576 9.959 8.858 15 14"/><path fill="#053953" d="M737 279c2.476 2.821 5.322 7.636 7 11 1.121 6.225 1.455 10.707 0 17l-2-1c1.868-9.042.84-13.757-5-21-3.122-3.872-8.085-9.738-14-7-2.728-.832-3.608-.632-6-1-1.706-.262-4.134-.008-6 0-2.27.01-4.586-.167-7 0 12.08-8.403 21.372-5.495 33 2"/><path fill="#03344d" d="M591 297c15.289 10.261 31.062 25.519 41 41 16.274 25.35 23.199 55.014 22 85-.385 9.63-1.617 19.696-4 29-19.374 75.644-102.636 119.916-177 100-12.557-3.363-28.03-10.063-39-17-15.106-9.552-35.651-30.817-45-46-5.486-8.909-8.986-18.411-13-28-20.224-55.933.507-120.543 46.5-157 48.504-38.448 114.359-43.335 168.5-7m-179 21c-136.534 138.071 87.459 335.424 209 182 29.537-37.285 38.302-77.418 25-124-13.147-46.039-53.772-84.92-100-96-50.728-12.159-97.465 1.053-134 38"/><path fill="#0680a9" d="M546 280c-1.489 8.881 14.16 6.19 18 13-43.732-21.222-109.774-1.966-144 31-3.753.771-4.826-4.15-8-6 36.535-36.947 83.272-50.159 134-38"/><path fill="#066283" d="m711 277-.5 4c-4.385-3.562-9.819.838-12.5 5-20.935 32.496 36.373 56.91 44 20l2 1c-1.425 6.163-6.413 13.137-12 16-31.188 15.981-55.383-26.95-28-46 2.414-.167 4.73.01 7 0"/><path fill="#0aa7c2" d="M717 277c-.396 1.978 6.953 8.031 7.5 8 2.67-.153.814-2.55 2-3 1.488-.565 3.811 4.358 4.5.5-3.179-1.028-4.805-3.525-8-4.5 5.915-2.738 10.878 3.128 14 7-8.161 11.794-28.59 9.915-39 1 2.681-4.162 8.115-8.562 12.5-5l.5-4c1.866-.008 4.294-.262 6 0"/><path fill="#48c8e0" d="M723 278c3.195.975 4.821 3.472 8 4.5-.689 3.858-3.012-1.065-4.5-.5-1.186.45.67 2.847-2 3-.547.031-7.896-6.022-7.5-8 2.392.368 3.272.168 6 1"/><path fill="#199abe" d="M646 376c-4.572-3.623-6.401-.541-11 1-9.828-33.812-39.244-68.59-71-84-3.84-6.81-19.489-4.119-18-13 46.228 11.08 86.853 49.961 100 96"/><path fill="#4b7888" d="M600 285c4.131 2.679 12.189 8.775 16 12 4.103 3.472 9.305 8.949 13 13 10.572 11.589 20.677 17.338 3 28-9.938-15.481-25.711-30.739-41-41l6-13c1.077.668 2.848.901 3 1"/><path fill="#719dad" d="m682 334-24 20c-.729-1.46-.855-5.149-3-3.5 10.508 23.282 14.049 47.961 13 73.5l-14-1c1.199-29.986-5.726-59.65-22-85 17.677-10.662 7.572-16.411-3-28l18-26c15.518 15.828 25.524 29.855 35 50"/><path fill="url(#c)" d="M564 293c31.756 15.41 61.172 50.188 71 84 8.845 30.431 8.155 61.317-5 90.5-2.22 4.925-15.839 24.003-16 25.5l-43-29c12.754-15.818 18.684-39.112 15-59 31.598-32.835-6.742-84.227-48-62-29.698-13.069-66.019-1.7-86 23l-34-40c.651-.661 1.337-1.361 2-2 34.226-32.966 100.268-52.222 144-31m-35.5-1c-11.222 4.448 19.732 6.647 21 7 4.043 1.127 9.095 3.305 13 5 1.874.813 21.177 15.242 20.5 8.5-16.515-13.984-32.16-22.202-54.5-20.5" style="fill:url(#c)"/>/&gt;<path fill="#15b2cc" d="M742 306c-7.627 36.91-64.935 12.496-44-20 10.41 8.915 30.839 10.794 39-1 5.84 7.243 6.868 11.958 5 21"/><path fill="#b8e1ef" d="M274 289c-20.165 39.611-20.342 80.328-21 124-2.473-10.241-8.167-28.946-13-38 4.039-16.247 8.189-32.79 14-48.5 2.869-7.757 10.926-27.401 15-34 1.26-2.041 1.83-4.164 5-3.5"/><path fill="#6fcce2" d="m734 326-2-3c5.587-2.863 10.575-9.837 12-16 1.455-6.293 1.121-10.775 0-17 6.868 13.767 4.458 27.445-10 36"/><path fill="#34cfef" d="M528.5 292c22.34-1.702 37.985 6.516 54.5 20.5.677 6.742-18.626-7.687-20.5-8.5-3.905-1.695-8.957-3.873-13-5-1.268-.353-32.222-2.552-21-7"/><path fill="#006b99" d="M420 324c-.663.639-1.349 1.339-2 2-13.993 14.207-23.519 29.029-30 48-46.749 136.843 136.804 231.872 226 120 .655 2.438 6.073 3.408 7 6-121.541 153.424-345.534-43.929-209-182 3.174 1.85 4.247 6.771 8 6"/><path fill="#1cadd4" d="M452 366c-12.266 15.163-17.698 32.335-17 52-22.162-2.397-28.799-32.79-47-44 6.481-18.971 16.007-33.793 30-48z"/><path fill="#4b7888" d="M682 334c6.929 14.73 12.896 29.702 15 46-8.113-.506-17.54 19.853-28 18-1.373-14.454-4.457-30.894-11-44z"/><path fill="url(#d)" d="M538 343c-51.796 27.904 5.56 106.101 48 62 3.684 19.888-2.246 43.182-15 59-19.189 23.798-55.163 32.546-84 24-1.554-15.938-17.281-24.045-32-20-11.509-15.064-19.311-30.566-20-50-.698-19.665 4.734-36.837 17-52 19.981-24.7 56.302-36.069 86-23" style="fill:url(#d)"/>/&gt;<path fill="#fefefe" d="M586 405c-42.44 44.101-99.796-34.096-48-62 41.258-22.227 79.598 29.165 48 62"/><path fill="#d3dde2" d="m356 377-26-7c1.012-3.989 6.325-27.062 10.5-27l23.5 9.5c-2.988 8.011-6.236 16.102-8 24.5"/><path fill="#d2dfe2" d="M658 354c6.543 13.106 9.627 29.546 11 44 1.922 20.229.998 33.35-3 53-1.182-9.044 1.628-17.941 2-27 1.049-25.539-2.492-50.218-13-73.5 2.145-1.649 2.271 2.04 3 3.5"/><path fill="#5098a9" d="M332 354c-7.174 22.282-10.699 45.496-9 69h-2c-.648-26.062 1.952-45.348 10-70z"/><path fill="#32687d" d="M803 356c-.143 3.106-.601 2.761-2 5-1.398 2.238-6.778 5.67-9 9.5-17.569 30.285-21.996 109.836-20 145 1.196 21.068 11.203 52.946 10 69.5-3.214 44.229-27.126 92.838-40 135-8.822-2.085-11.582-3.937-19-8-2.819-3.51-5.24-8.639-8-12 13.495-33.1 28.463-65.899 38-100.5 11.661-42.309 6.486-44.281 4-85-2.098-34.365 3.804-128.871 30.5-152.5 3.671-3.249 9.034-5.151 13.5-7z"/><path fill="#73a5b6" d="M240 375c4.833 9.054 10.527 27.759 13 38 6.922 28.659 11.466 68.617 10 98-.924 18.528-6.954 35.195-9 52-2.28 2.369-2.917-6.878-3-7.5-.72-5.39.387-13.353-4-16.5.271-2.161.809-4.155 1-6 4.493-43.349 3.004-115.031-15-155-1.305-2.897-3.447-8.047-5-10.5-2.354-3.718-9.72-6.148-7-11.5 9.424 7.039 12.626 7.058 19 19"/><path fill="#f2f7f9" d="M172 357c-.763 3.893 1.406 2.515 2 3 8.579 6.997 14.567 11.99 20 22 11.177 20.594 15.633 54.191 17 77.5.122 2.084 1.32 10.149-2 10.5-.253-3.781-.627-7.273-1-11-1.956-19.56-4.94-38.869-11-57.5l-3 1c4.902 21.146 9.085 41.809 11 63.5.416 4.708.769 9.26 1 14-5.084 4.003-4.231-5.503-5-10-2.328-13.609-3.552-27.313-8-40.5-7.738 4.63-5.879.729-15-2.5-4.344-1.538-7.181-3.962-12.5-3-1.03.186-6.785 4.032-8.5 5-.309.174-1.168-1.62-4 1l-17.5-5c-.618.418-1.203 5.662-1.5 7-1.407 6.336-1.36 14.458-2 21-.604 6.177-.789 11.81-1 18-.462 13.552-1.034 30.713 0 44-3.945-22.751-4.688-46.474-3-69.5.581-7.924 6.133-23.558 1-28.5 2.824-15.418 12.388-51.921 28.5-58 3.672-1.385 10.346-1.504 14.5-2"/><path fill="#304a58" d="M867 361c2.034 3.728 5.611 6.292 8 10-1.287.136-2.753-.211-4 0-13.669-21.084-31.969 7.249-38 20.5-14.168 31.127-17.482 78.483-17 112.5.247 17.416.956 35.875 4 53-13.949 2.323-25.569-5.692-37-12-.519-4.332-.663-8.662-1-13 18.51-4.926 33.053 9.012 32-17.5-.033-.821-1.997-.397-2-.5-.176-5.968.007-12.026 0-18-.003-2.658.001-5.342 0-8-.005-9.658.474-19.34 1-29 4.046-22.054 6.11-45.726 15-66.5 5.645-13.19 17.547-33.329 34-31-.137-2.578-4.274-1.355-6-1.5v-2c5.108.928 5.854.246 11 3"/><path fill="#b7c6cc" d="M228 377c-2.268.836.52 3.175-2.5 4-7.797 2.13-22.965-2.363-31.5 1-5.433-10.01-11.421-15.003-20-22 26.47 1.909 39.631-8.879 54 17"/><path fill="#476e7d" d="M849 360c-7.746 4.223-16.812 13.099-21 21l-33-1c.476-1.292 2.664-5.247 1-6 1.515-2.458 5.025-9.525 7-11 6.838-5.108 35.985-3.627 46-3"/><path fill="#f8fbfb" d="M856 360c1.726.145 5.863-1.078 6 1.5-16.453-2.329-28.355 17.81-34 31-8.89 20.774-10.954 44.446-15 66.5 1.341-24.644 3.054-55.464 15-78 4.188-7.901 13.254-16.777 21-21 2.303.144 4.706-.193 7 0"/><path fill="#1a3c4d" d="M803 363c-1.975 1.475-5.485 8.542-7 11-15.654 25.394-19.202 71.135-20 101-.035 1.324.022 2.676 0 4-.644 38.59 2.086 77.851 16 114-1.924-1.536-4.772-4.205-6-3-.776-2.104-1.01-5.264-4-5 1.203-16.554-8.804-48.432-10-69.5-1.996-35.164 2.431-114.715 20-145 2.222-3.83 7.602-7.262 9-9.5z"/><path fill="#0d4d66" d="m861 613-1-2c7.772-5.649 10.847-20.117 14-28 .076-.19 1.337.736 2-1 7.488-19.621 13.472-47.144 16-68 4.761-39.285 4.919-108.982-17-143-2.389-3.708-5.966-6.272-8-10 27.336 14.629 30.951 98.718 30 126.5-.981 28.645-12.343 108.063-36 125.5"/><path fill="#f4fbfd" d="M871 371c-37.446 6.335-50.321 79.463-52 111-.38 7.139-.152 14.829 0 22h-3c-.482-34.017 2.832-81.373 17-112.5 6.031-13.251 24.331-41.584 38-20.5"/><path fill="#b8d6e0" d="M356 377c-1.48 7.043-2.577 12.716-3 20l-28-5c.841-7.391 3.177-14.814 5-22z"/><path fill="#85bfd2" d="M875 371c21.919 34.018 21.761 103.715 17 143-6.474 4.849-10.095 13.336-16 20l-7-5c7.319-11.429 7.209-21.586 8-34 1.037-16.273 2.261-62.23-16.5-70-22.472-9.307-31.759 27.672-33.5 43-2.098-2.557-2.976 5.188-3 5.5-1.216 15.591-.719 38.25 6 52.5-10.102-11.793-6.776-27.191-8-40.5-.252-2.739.971-3.957-3-3.5 1.679-31.537 14.554-104.665 52-111 1.247-.211 2.713.136 4 0"/><path fill="#0493c1" d="M435 418c.689 19.434 8.491 34.936 20 50-7.945 2.184-16.258 12.404-17 20.5-3.273 35.72 52.733 37.781 49-.5 28.837 8.546 64.811-.202 84-24l43 29c-.03.276-.069.744 0 1-89.196 111.872-272.749 16.843-226-120 18.201 11.21 24.838 41.603 47 44"/><path fill="#0b83aa" d="M646 376c13.302 46.582 4.537 86.715-25 124-.927-2.592-6.345-3.562-7-6-.069-.256-.03-.724 0-1 .161-1.497 13.78-20.575 16-25.5 13.155-29.183 13.845-60.069 5-90.5 4.599-1.541 6.428-4.623 11-1"/><path fill="#f7f8f9" d="M795 380c-10.044 27.272-6.564 53.486-12 79.5-1.502 7.187-4.243 5.121-5 7-.793 1.967 1.945 8.321-2 8.5.798-29.865 4.346-75.606 20-101 1.664.753-.524 4.708-1 6"/><path fill="#d7dade" d="M231 381c10.198 22.867 13.839 60.887 15 86-2.441 7.055-2.503 14.643-3 22h-33c-.042-6.512-.57-12.565-1-19 3.32-.351 2.122-8.416 2-10.5-1.367-23.309-5.823-56.906-17-77.5 8.535-3.363 23.703 1.13 31.5-1 3.02-.825.232-3.164 2.5-4 .496.894 2.647 3.209 3 4"/><path fill="#335b6c" d="M233 378c18.004 39.969 19.493 111.651 15 155h-4c2.566-22.486 3.043-43.446 2-66-1.161-25.113-4.802-63.133-15-86z"/><path fill="#2f5c6e" d="M697 380c.193.012-.864 3.138 2 1 2.883 19.487 2.784 40.288 2 60-2.686 6.213-4.209 13.428-6 20-9.414 26.153-20.902 51.607-39 73-4.53 5.355-11.064 12.148-17 16 2.33-2.36 18.695-20.098 19-21.5.874-4.019-13.332-23.118-13-26 .108-.937 8.878-13.306 10-16 1.95-4.683 3.316-9.73 5-14.5 1.653-4.682 3.847-10.266 5-15 .445-1.827.622-4.141 1-6 3.998-19.65 4.922-32.771 3-53 10.46 1.853 19.887-18.506 28-18"/><path fill="#c4cad0" d="M828 381c-11.946 22.536-13.659 53.356-15 78-.526 9.66-1.005 19.342-1 29l-32 3c-.345-2.65-2.757-9.237-4-12 .022-1.324-.035-2.676 0-4 3.945-.179 1.207-6.533 2-8.5.757-1.879 3.498.187 5-7 5.436-26.014 1.956-52.228 12-79.5z"/><path fill="#94becb" d="M353 397c-.474 8.161.449 14.1 1 22 .434 6.232 1.051 12.816 2 19-4.185-2.161-3.841-21.189-5.5-23l-26.5-5c.13-5.627.37-12.467 1-18z"/><path fill="#5a7a88" d="m208 459-3 7c-1.915-21.691-6.098-42.354-11-63.5l3-1c6.06 18.631 9.044 37.94 11 57.5"/><path fill="#719dad" d="M356 438c.147.957-.162 2.049 0 3 1.449 8.504 15.161 58.36 24.5 57 .613-.089 8.609-6.724 8.5-9 9.349 15.183 29.894 36.448 45 46-9.652 11.482-13.573 25.681-17 40-55.565-32.084-84.516-80.705-92-144-1.57-6.795-1.16-14.086-1-21l26.5 5c1.659 1.811 1.315 20.839 5.5 23"/><path fill="#0a455e" d="M131 515c.216 2.772.727 5.366 1 8 .615 5.935 1.918 11.218 3 17 2.815 15.038 16.123 66.778 30.5 73 3.693 1.598 6.84 1.227 10.5 0l2 5c-14.689-.455-18.21-2.929-26-15.5-26.894-43.396-32.034-136.17-23-185.5 5.133 4.942-.419 20.576-1 28.5-1.688 23.026-.945 46.749 3 69.5"/><path fill="#b0e4f1" d="M323 423c.377 5.214 1.944 7.525 2 8 7.484 63.295 36.435 111.916 92 144 50.667 29.256 103.717 33.743 159 14 17.269-6.167 36.773-16.392 51-28 4.725-3.855 7.733-6.68 12-11 5.936-3.852 12.47-10.645 17-16h1c-84.076 100.201-243.145 90.19-310-23.5-14.362-24.423-20.929-50.659-25-78.5-.177-2.895-.922-5.859-1-9z"/><path fill="#94becb" d="M668 424c-.372 9.059-3.182 17.956-2 27-.378 1.859-.555 4.173-1 6-4.002-2.597-9.711-7.205-15-5 2.383-9.304 3.615-19.37 4-29z"/><path fill="#03576a" d="M178 427c1.482 2.147 3.356 3.966 5 6l-2 4c-.57-.683-3.039-2.325-4-3-17.705-12.44-24.446 8.595-27 23h-4c1.62-10.616 5.335-18.988 11-28 1.715-.968 7.47-4.814 8.5-5 5.319-.962 8.156 1.462 12.5 3"/><path fill="#000102" d="M877 495c-1.786 14.456-12.893 52.283-33.5 42-18.283-9.124-18.444-51.886-16.5-69 1.741-15.328 11.028-52.307 33.5-43 18.761 7.77 17.537 53.727 16.5 70m-28-64c-7.791 3.2-12.666 15.739-15 23-5.759 17.916-8.847 67.354 10.5 78 19.991 11 28.729-33.549 29.5-46 .258-4.167.145-8.812 0-13-.374-10.828-1.58-23.504-7-33-3.972-6.959-9.156-12.632-18-9"/><path fill="#d3edf4" d="M153 430c-.809.749-3.163 5.543-4 7l-15-5c.297-1.338.882-6.582 1.5-7z"/><path fill="#98d7e9" d="M201 470c-5.895 2.941-1.642 15.931-2 22.5-.21 3.852-1.457 8.632-2 12.5l-1-4c2.495-20.115.011-51.903-13-68-1.644-2.034-3.518-3.853-5-6 9.121 3.229 7.262 7.13 15 2.5 4.448 13.187 5.672 26.891 8 40.5"/><path fill="#7fd1e7" d="M157 429c-5.665 9.012-9.38 17.384-11 28-.848 5.558-.945 11.37-1 17l-1.5-4c-.84.052-.432 2.999-.5 4l-12-3c.211-6.19.396-11.823 1-18l11.5 2c.058-6.01 2.469-12.72 5.5-18 .837-1.457 3.191-6.251 4-7 2.832-2.62 3.691-.826 4-1"/><path fill="#0ec0db" d="M177 434c-10.723 6.171-16.785 31.651-26 38-.521.359-1.35.839-2 1 .182-5.643-.003-10.342 1-16 2.554-14.405 9.295-35.44 27-23"/><path fill="#085a65" d="m867 440 1.5 15c-3.564-7.145-8.793-24.98-18.5-19-.56-1.472-1.066-3.379-1-5 8.844-3.632 14.028 2.041 18 9"/><path fill="#20879b" d="M850 436c2.834 7.451 10.6 18.698 15 26-7.92-.839-8.711-2.962-13 6-5.08-4.916-11.159-11.676-18-14 2.334-7.261 7.209-19.8 15-23-.066 1.621.44 3.528 1 5"/><path fill="#9ad9ea" d="M149 437c-3.031 5.28-5.442 11.99-5.5 18l-11.5-2c.64-6.542.593-14.664 2-21z"/><path fill="#396173" d="M657 534c20.118-23.976 29.724-42.625 38-73 1.791-6.572 3.314-13.787 6-20-3.976 99.912-70.63 166.714-170.5 173-118.397 7.452-201.289-63.792-208.5-182 4.071 27.841 10.638 54.077 25 78.5 66.855 113.69 225.924 123.701 310 23.5"/><path fill="#02070b" d="M196 501c-2.131 17.183-16.494 54.673-37 30.5-10.963-12.924-14.159-41.048-14-57.5.055-5.63.152-11.442 1-17h4c-1.003 5.658-.818 10.357-1 16-.433 13.404 3.435 65.183 25.5 61 18.431-3.494 19.247-51.254 17.5-65-1.189-9.354-4.98-24.797-11-32l2-4c13.011 16.097 15.495 47.885 13 68"/><path fill="#32cde8" d="M177 434c.961.675 3.43 2.317 4 3 6.02 7.203 9.811 22.646 11 32-2.894 4.869-4.901 1.245-8.5 5l-32.5-2c9.215-6.349 15.277-31.829 26-38"/><path fill="#117b8c" d="M867 440c5.42 9.496 6.626 22.172 7 33-5.648-1.733-6.418-6.715-9-11-4.4-7.302-12.166-18.549-15-26 9.707-5.98 14.936 11.855 18.5 19z"/><path fill="#4b7888" d="M376 461c4.014 9.589 7.514 19.091 13 28 .109 2.276-7.887 8.911-8.5 9-9.339 1.36-23.051-48.496-24.5-57 2.633 1.079 11.088-2.946 12.5-2 .922.618 4.175 18.245 5.5 21.5.368.904 1.947.372 2 .5"/><path fill="#b8d6e0" d="M665 457c-1.153 4.734-3.347 10.318-5 15-8.439 13.449-14.987 27.999-25 40.5-9.857 12.307-22.285 22.134-34 32.5-11.308 6.108-21.874 12.393-34 17-31.342 11.908-64.002 13.635-96.5 5l2.5-15c74.364 19.916 157.626-24.356 177-100 5.289-2.205 10.998 2.403 15 5"/><path fill="url(#e)" d="M852 468c2.284 2.21 18.207 20.527 19.5 20 1.354-.552-.786-6.493 2.5-2-.771 12.451-9.509 57-29.5 46-19.347-10.646-16.259-60.084-10.5-78 6.841 2.324 12.92 9.084 18 14" style="fill:url(#e)"/>/&gt;<path fill="#294152" d="M209 470c.43 6.435.958 12.488 1 19 .013 1.989.022 4.011 0 6-.063 5.63.275 11.386 0 17-.297 6.06-2.796 15.203-3 22h-2c1.83-18.397 1.899-35.569 1-54-.231-4.74-.584-9.292-1-14l3-7c.373 3.727.747 7.219 1 11"/><path fill="#7ab6c6" d="M695 461c-8.276 30.375-17.882 49.024-38 73h-1c18.098-21.393 29.586-46.847 39-73"/><path fill="#3798ab" d="M865 462c2.582 4.285 3.352 9.267 9 11 .145 4.188.258 8.833 0 13-3.286-4.493-1.146 1.448-2.5 2-1.293.527-17.216-17.79-19.5-20 4.289-8.962 5.08-6.839 13-6"/><path fill="#a9c6cd" d="M244 533c-2.004 17.555-6.152 44.84-14 60.5-.652 1.302-2.171 4.39-2 0 .818-1.032 1.669-3.258 2-4.5 5.742-21.548 8.733-40.761 11-63 .398-3.901.682-8.08 1-12 .347-4.269-.29-8.72 0-13 .265-3.914.73-8.008 1-12 .497-7.357.559-14.945 3-22 1.043 22.554.566 43.514-2 66"/><path fill="#fefefe" d="M487 488c3.733 38.281-52.273 36.22-49 .5.742-8.096 9.055-18.316 17-20.5 14.719-4.045 30.446 4.062 32 20"/><path fill="#f0f6fa" d="M827 468c-1.944 17.114-1.783 59.876 16.5 69 20.607 10.283 31.714-27.544 33.5-42-.791 12.414-.681 22.571-8 34-11.523 17.993-30.137 15.797-39-3-6.719-14.25-7.216-36.909-6-52.5.024-.312.902-8.057 3-5.5"/><path fill="#99daed" d="M192 469c1.747 13.746.931 61.506-17.5 65-22.065 4.183-25.933-47.596-25.5-61 .65-.161 1.479-.641 2-1l32.5 2c3.599-3.755 5.606-.131 8.5-5"/><path fill="#e0f1f6" d="M145 474c-.159 16.452 3.037 44.576 14 57.5 20.506 24.173 34.869-13.317 37-30.5l1 4c-1.469 10.456-4.22 27.187-14.5 33-12.634 7.144-21.338 1.151-28.5-10-1.797-2.798-2.772-4.909-4-8-5.176-13.03-7.95-32.014-7-46 .068-1.001-.34-3.948.5-4z"/><path fill="#85c8e0" d="M201 470c.769 4.497-.084 14.003 5 10 .899 18.431.83 35.603-1 54-1.716 17.248-10.443 72.779-29 79-3.66 1.227-6.807 1.598-10.5 0-14.377-6.222-27.685-57.962-30.5-73l.5-17c8.291.961 13.059-1.072 18.5 5 7.162 11.151 15.866 17.144 28.5 10 10.28-5.813 13.031-22.544 14.5-33 .543-3.868 1.79-8.648 2-12.5.358-6.569-3.895-19.559 2-22.5"/><path fill="#aae1f1" d="M143 474c-.95 13.986 1.824 32.97 7 46-5.147-4.756-13.734-.842-16.5-7l-1.5 10c-.273-2.634-.784-5.228-1-8-1.034-13.287-.462-30.448 0-44z"/><path fill="#4b7888" d="M639 550c-4.267 4.32-7.275 7.145-12 11-7.807-3.989-9.819-15.654-14.5-23-3.948 2.306-7.453 4.814-11.5 7 11.715-10.366 24.143-20.193 34-32.5 10.013-12.501 16.561-27.051 25-40.5-1.684 4.77-3.05 9.817-5 14.5-1.122 2.694-9.892 15.063-10 16-.332 2.882 13.874 21.981 13 26-.305 1.402-16.67 19.14-19 21.5"/><path fill="#7cb0bf" d="M780 491c.229 1.756-.281 7.298 0 10 .322 3.093-.228 6.375 0 9.5l10 1c-.003 1.231-8.746-.034-9.5.5-1.997 1.413.51 4.749.5 5-.219 5.276.601 9.872 1 15 .337 4.338.481 8.668 1 13 2.093 17.453 6.169 34.55 10.5 51-1.57-.567-1.369-2.895-1.5-3-13.914-36.149-16.644-75.41-16-114 1.243 2.763 3.655 9.35 4 12"/><path fill="#4fb8db" d="M830 526c8.863 18.797 27.477 20.993 39 3l7 5c-13.893 15.679-29.696 23.481-51 25-3.586-18.224-5.606-36.413-6-55-.152-7.171-.38-14.861 0-22 3.971-.457 2.748.761 3 3.5 1.224 13.309-2.102 28.707 8 40.5"/><path fill="#98a5ad" d="M812 488c.001 2.658-.003 5.342 0 8-5.7 9.503-21.621 3.241-32 5-.281-2.702.229-8.244 0-10z"/><path fill="#96a2ab" d="M243 489c-.27 3.992-.735 8.086-1 12-3.86-1.295-29.249.873-30.5 0-1.422-.993.713-5.242-1.5-6 .022-1.989.013-4.011 0-6z"/><path fill="#788792" d="M242 501c-.29 4.28.347 8.731 0 13l-32-2c.275-5.614-.063-11.37 0-17 2.213.758.078 5.007 1.5 6 1.251.873 26.64-1.295 30.5 0"/><path fill="#7d8c96" d="M812 514c-5.833 6.659-22.368 1.272-31 3 .01-.251-2.497-3.587-.5-5 .754-.534 9.497.731 9.5-.5l-10-1c-.228-3.125.322-6.407 0-9.5 10.379-1.759 26.3 4.503 32-5 .007 5.974-.176 12.032 0 18"/><path fill="#9edef2" d="M819 504c.394 18.587 2.414 36.776 6 55 2.642 13.426 9.997 57.619 32.5 46 5.923-3.058 12.574-16.251 16.5-22-3.153 7.883-6.228 22.351-14 28-23.872 17.351-37.407-39.411-40-54-3.044-17.125-3.753-35.584-4-53z"/><path fill="#4f626f" d="M242 514c-.318 3.92-.602 8.099-1 12-1.727-.641-13.792-1.165-14.5-1-.623.145-3.766 4.258-6 5-9.279 3.082-9.793-5.899-13 12-.849-2.423-.576-5.454-.5-8 .204-6.797 2.703-15.94 3-22z"/><path fill="#a2d9ea" d="M311 699c-2.325 3.683-4.594 2.83 0 5-4 2.971-7.425 6.58-12 9-.768-2.017 2.984-3.821 3-4.5.054-2.258-18.423-33.947-21-40-8.833-20.748-27.265-75.393-28-96.5-.123-3.523.605-5.752 1-9 2.046-16.805 8.076-33.472 9-52 1.066-.023 2.914 3.049 3 3.5 2.613 13.706 1.948 33.169 4 48 6.348 45.889 17.173 96.63 41 136.5"/><path fill="#74cbe9" d="M150 520c1.228 3.091 2.203 5.202 4 8-5.441-6.072-10.209-4.039-18.5-5l-.5 17c-1.082-5.782-2.385-11.065-3-17l1.5-10c2.766 6.158 11.353 2.244 16.5 7"/><path fill="#556874" d="M782 532c-.399-5.128-1.219-9.724-1-15 8.632-1.728 25.167 3.659 31-3 .003.103 1.967-.321 2 .5 1.053 26.512-13.49 12.574-32 17.5"/><path fill="#69c8e5" d="M892 514c-2.528 20.856-8.512 48.379-16 68-2.927-1.944-1.377.087-2 1-3.926 5.749-10.577 18.942-16.5 22-22.503 11.619-29.858-32.574-32.5-46 21.304-1.519 37.107-9.321 51-25 5.905-6.664 9.526-15.151 16-20"/><path fill="#1b2b3a" d="M241 526c-2.267 22.239-5.258 41.452-11 63-7.143 1.813-2.867 7.965-3 8.5-1.117 4.481-5.372 8.138-4 13.5-10.609 7.061-31.613 7.414-45 7l-2-5c18.557-6.221 27.284-61.752 29-79h2c-.076 2.546-.349 5.577.5 8 3.207-17.899 3.721-8.918 13-12 2.234-.742 5.377-4.855 6-5 .708-.165 12.773.359 14.5 1"/><path fill="#16475d" d="M248 533c-.191 1.845-.729 3.839-1 6-2.338 18.633-6.995 32.406-11 50-1.343 5.899-2.555 3.842-2 11l-4 3.5c3.542 19.889 8.466 39.94 14 59.5-.176-.108-3.794-.995-4-1l-13.5-53c-.814-.355-2.656 1.438-3.5 2-1.372-5.362 2.883-9.019 4-13.5.133-.535-4.143-6.687 3-8.5-.331 1.242-1.182 3.468-2 4.5-.171 4.39 1.348 1.302 2 0 7.848-15.66 11.996-42.945 14-60.5z"/><path fill="#94becb" d="M434 535c10.97 6.937 26.443 13.637 39 17l-2.5 15c32.498 8.635 65.158 6.908 96.5-5 3.085 1.898 1.947.335 3 3.5 2.354 7.074 3.45 16.213 6 23.5-55.283 19.743-108.333 15.256-159-14 3.427-14.319 7.348-28.518 17-40"/><path fill="#719dad" d="M627 561c-14.227 11.608-33.731 21.833-51 28-2.55-7.287-3.646-16.426-6-23.5-1.053-3.165.085-1.602-3-3.5 12.126-4.607 22.692-10.892 34-17 4.047-2.186 7.552-4.694 11.5-7 4.681 7.346 6.693 19.011 14.5 23"/><path fill="#50879a" d="M254 563c-.395 3.248-1.123 5.477-1 9-4.598 4.357-9.351 26.377-17 17 4.005-17.594 8.662-31.367 11-50 4.387 3.147 3.28 11.11 4 16.5.083.622.72 9.869 3 7.5"/><path fill="#02405a" d="M820 557c2.593 14.589 16.128 71.351 40 54l1 2c-2.975 2.193-4.145 4.272-8.5 5-4.904.82-46.083-1.425-50-3-1.071-.431-5.602-6.158-6-6L783 662c-.37-.019-3.806-.048-4 0 2.454-12.038 16.881-45.043 15-55.5-.314-1.747-5.467-7.233-6-8.5-.711-1.69-1.173-5.757-2-8 1.228-1.205 4.076 1.464 6 3 .131.105-.07 2.433 1.5 3-4.331-16.45-8.407-33.547-10.5-51 11.431 6.308 23.051 14.323 37 12"/><path fill="#65abc2" d="M299 713c-4.564 2.414-12.09 5.814-17 7-19.77-39.722-32.923-82.211-43.5-125l-3.5 7c-.014-.111-.805.511-1-2-.555-7.158.657-5.101 2-11 7.649 9.377 12.402-12.643 17-17 .735 21.107 19.167 75.752 28 96.5 2.577 6.053 21.054 37.742 21 40-.016.679-3.768 2.483-3 4.5"/><path fill="#afe9f9" d="M876 582c-.663 1.736-1.924.81-2 1 .623-.913-.927-2.944 2-1"/><path fill="#67d0e8" d="M786 590c.827 2.243 1.289 6.31 2 8l-40 123c-2.269-.317-3.706-.458-6-1 12.874-42.162 36.786-90.771 40-135 2.99-.264 3.224 2.896 4 5"/><path fill="#85d3eb" d="M282 720c-2.73.659-4.278.74-7 1-17.473-36.618-34.942-78.405-40-119l3.5-7c10.577 42.789 23.73 85.278 43.5 125"/><path fill="#528aa4" d="M779 662c-.271.068-4.946 2.226-5 2.5-.206 1.046 2.592-.493 2.5 1.5-.153 3.312-17.931 54.938-20.5 56.5-2.193 1.249-6.164-1.244-8-1.5l40-123c.533 1.267 5.686 6.753 6 8.5 1.881 10.457-12.546 43.462-15 55.5"/><path fill="#4689a3" d="M235 602c5.058 40.595 22.527 82.382 40 119-1.828.174-5.438 2.281-8 .5-4.582-3.186-18.559-55.769-23-58.5-5.534-19.56-10.458-39.611-14-59.5l4-3.5c.195 2.511.986 1.889 1 2"/><path fill="#181421" d="M662 651c22.351 22.658 30.394 44.235 61 61 7.418 4.063 10.178 5.915 19 8 2.294.542 3.731.683 6 1 1.836.256 5.807 2.749 8 1.5 2.569-1.562 20.347-53.188 20.5-56.5.092-1.993-2.706-.454-2.5-1.5.054-.274 4.729-2.432 5-2.5.194-.048 3.63-.019 4 0 32.647 1.704 44.452 54.54 35 80.5-16.234 44.587-57.016 53.166-93 70.5-3.996-1.973-9.918 2.904-10.5 3-.338.055.151-1.732-5.5-1-3.602.467-8.509 1.792-12 2-31.593 1.879-70.798-1.442-101-11-29.658-9.386-70.957-33.241-84.5-62-8.749 19.131-28.737 33.27-46.5 44-20.616 12.454-39.43 19.083-63 24-8.38 1.748-17.497 4.223-26 5-2.29.209-4.699-.152-7 0-13.004.861-30.046.96-43 0-5.549-.411-11.486-1.164-17-2-4.215-.639-10.881-1.961-15-3-50.422-12.714-113.317-62.092-88-120.5 4.783-11.034 20.917-29.792 34-29.5.206.005 3.824.892 4 1 4.441 2.731 18.418 55.314 23 58.5 2.562 1.781 6.172-.326 8-.5 2.722-.26 4.27-.341 7-1 4.91-1.186 12.436-4.586 17-7 4.575-2.42 8-6.029 12-9 27.773-20.629 40.605-50.713 69-70 45.813-22.256 92.812-15.771 131.5 17 43.89-38.179 108.012-43.07 150.5 0m-286-9c-21.62 15.016-32.745 40.275-52 58-3.65 3.36-13.176 11.615-17 14-22.195 13.842-55.961 21.109-74.5-2l-2.5 3c-1.664-4.484 1.54-3.619 1-5.5-.746-2.601-5.867-7.469-6-8-.333-1.331-.3-20.441 0-22 .893-4.648 5.001-7.125 7-11-4.675-.111-7.31 4.857-10 7.5-4.225 4.152-8.331 8.099-11 13.5-31.053 62.84 46.83 115.745 101 122-3.275-3.436-13.076-1.786-14.5-6.5 6.681 2.377 13.468 3.323 20.5 4 .332 4.818-4.297.818-5 2.5-1.924 4.602 33.762 2.568 36 2.5 47.482-1.445 122.714-17.364 152-59 8.507-12.094 9.381-26.325 9-41h3c-.289 4.32-1.929 24.427 3 24 .025.156.781 2.365 1 3-5.393-1.905 2.59 11.909 3 12.5 4.18 6.022 32.163 29.71 38.5 32.5 19.53 8.599-2.034-8.138-4-10-16.498-15.626-33.229-33.773-36-57 5.895 2.932-4.107-11.505.5-15 6.753 10.655 11.621 27.842 20 38.5-2.367 1.064-7.857-5.549-9-7-1.565-1.988-7.891-15.66-10-12 10.476 33.432 44.743 61.434 78 70.5-7.612 5.671-24.294-13.896-29-6-5.334.297 5.263 5.452 7 4 3.262 2.914-2.595.155-.5 2 6.803.137 12.456 5.624 20 8 26.571 8.37 93.622 18.425 117.5 8 4.115 3.519 4.703-.847 5-1 1.752-.901 3.302-1.128 5-2 1.389-.162-.051 2.163 3.5 2 3.41-.156 32.322-12.487 37-15 48.552-26.079 81.991-86.668 27-126 22.541 35.346-10.364 65.268-48 58-45.877-8.859-58.335-55.044-86.5-75-30.43-32.976-79.454-31.249-118-13-8.262 3.912-17.003 7.758-23 15-1.395.635-3.27 3.008-3.5 3-.381-.013-4.903-3.332-6.5-4-11.273-12.489-35.166-21.972-52-25-27.938-5.025-53.591-1.258-77 15m403.5 26-19 55c21.256-.909 38.528-21.451 32.5-42.5-1.171-4.091-8.886-14.168-13.5-12.5m-540 1c-3.864.403-9.545 8.74-10.5 12.5-5.212 20.514 11.536 40.682 32.5 41.5L244 670.5c-1.204-1.736-2.579-1.7-4.5-1.5"/><path fill="#473e55" d="m453 627-1 3c-22.654-3.002-40.75 2.228-61.5 10-1.204.451 1.843-3.303-5.5 2-4.045-2.925-6.796 3.758-9 0 23.409-16.258 49.062-20.025 77-15"/><path fill="#464258" d="M656 651c-.143-.101-1.356 1.169-3.5 0-1.473-.803-3.757-4.508-5-5-3.804-1.505-7.105 1.099-7.5 1-5.643-4.322-8.422-8.279-16-8-16.531-10.472-41.469-11.986-60.5-8-6.159 1.29-11.64 5.122-17.5 7-4.245 1.36-4.1 2.642-8 0 38.546-18.249 87.57-19.976 118 13"/><path fill="#5c5e72" d="M505 652c-2.469-1.032-4.637-.632-5.5-1-2.419-1.031-9.368-8.281-13-8-1.596.124-3.681 4.062-10 4-21.321-.21-38.547-9.727-61.5-5v-3c17.073-1.865 38.223-.872 54.5 4-4.677-4.574-16.135-8.015-22.5-9 4.734-2.798 28.067 7.534 29.5 7 2.242-.835.829-4.354-2-5-3.029-.692-2.625 2.16-3 2-.883-.376-2.913-4.094-6-5-4.129-1.212-9.276-2.44-13.5-3l1-3c16.834 3.028 40.727 12.511 52 25"/><path fill="#291f32" d="M452 630c4.224.56 9.371 1.788 13.5 3 3.087.906 5.117 4.624 6 5 .375.16-.029-2.692 3-2 2.829.646 4.242 4.165 2 5-1.433.534-24.766-9.798-29.5-7-9.06-1.401-27.321-2.715-33 5-21.923 2.953-36.953 17.009-53 31-.195-3.057 6.796-12.116 9-14.5.507-.549 11.304-4.182 6-5 2.785-3.248 5.502-5.973 9-8.5 7.343-5.303 4.296-1.549 5.5-2 20.75-7.772 38.846-13.002 61.5-10m-58.5 10c-1.735.172-11.268 6.074-12.5 8.5l14.5-6.5c1.561-1.884-.292-2.169-2-2"/><path fill="#2e2538" d="M624 639c-.751.028-3.845-2.85-2.5 1 6.728 1.235 11.885 5.335 18.5 7 6.319 4.839 15.347 12.106 20 18.5.205.282 4.291 6.394 2.5 6.5-15.216-15.522-32.404-30.434-54.5-33-16.085-1.868-37.773-.665-53.5 3l18-8c-7.81-.348-14.66 3.407-22 5-1.724.374-4.633 2.751-4.5-1 5.86-1.878 11.341-5.71 17.5-7 19.031-3.986 43.969-2.472 60.5 8"/><path fill="#382b3f" d="M447 634c6.365.985 17.823 4.426 22.5 9-16.277-4.872-37.427-5.865-54.5-4-.329.036-.673-.044-1 0 5.679-7.715 23.94-6.401 33-5"/><path fill="#96bac6" d="M380 634c-28.395 19.287-41.227 49.371-69 70-4.594-2.17-2.325-1.317 0-5 3.961-6.274 13.864-18.146 19-24 15.027-17.128 29.54-31.061 50-41"/><path fill="#545165" d="M608 639c-.728 2.588-.509 1.879-2.5 2-9.685.586-19.61-1.009-30 0-5.953.578-36.352 7.688-39 5 2.79-8.273-17.258 5.068-21.5 7 5.997-7.242 14.738-11.088 23-15 3.9 2.642 3.755 1.36 8 0-.133 3.751 2.776 1.374 4.5 1 7.34-1.593 14.19-5.348 22-5l-18 8c15.727-3.665 37.415-4.868 53.5-3"/><path fill="#676577" d="M624 639c7.578-.279 10.357 3.678 16 8-6.615-1.665-11.772-5.765-18.5-7-1.345-3.85 1.749-.972 2.5-1"/><path fill="#807d8a" d="M414 639c.327-.044.671.036 1 0v3c-21.169 4.36-49.475 27.427-62 45-.097.137-2.422-.082-3 1.5l1.5 1.5c.415-.052 1.011-2.682 1.5-3 1.561-1.015 3.386-1.848 5-3l2 2c-2.15 1.561-7.345 4.208-7.5 7 5.339-3.55 11.122-6.555 16.5-10v1l-.5 4 16.5-10c1.285-.11 1.646-2.014 4 0-5.282 3.949-11.08 10.719-17 15-18.468 13.355-35.882 25.97-57 35l-8-14c3.824-2.385 13.35-10.64 17-14 3.753 1.776 8.96-8.079 10.5-8 .914.047.086 2.956 1 3 1.918.092 15.318-17.547 18-20 .383-.35 3.707-1.693 7.5-5 16.047-13.991 31.077-28.047 53-31"/><path fill="url(#f)" d="M640 647c.395.099 3.696-2.505 7.5-1 1.243.492 3.527 4.197 5 5 2.144 1.169 3.357-.101 3.5 0 28.165 19.956 40.623 66.141 86.5 75 37.636 7.268 70.541-22.654 48-58 54.991 39.332 21.552 99.921-27 126-4.678 2.513-33.59 14.844-37 15-3.551.163-2.111-2.162-3.5-2-15.367 1.79-30.978 3.181-46.5 3 6.633-3.52 19.238-3.007 28-5 7.09-1.613 23.147-6.425 30-9 1.913-.719 4.823-1.316 4.5-4 9.901-1.256 22.818-5.435 30.5-12-56.582 17.099-124.698 3.251-173.5-29-6.868-4.539-17.247-12.563-23.5-18-14.323-12.453-25.441-27.919-38.5-41.5 17.691 23.416 33.977 49.305 59 65.5-1.299 2.44-3.699 1.615-3 5-.23-.109-4.621.323-5 1-15.47-11.305-27.808-25.802-41.5-39l-1 3c8.333 12.337 18.291 21.422 29.5 31-2.548 2.855-2.086 3.553-1 7l-11-10.5c11.31 17.513 29.441 29.334 47 40-2.54 3.351-6.109.288-9-.5-33.257-9.066-67.524-37.068-78-70.5 2.109-3.66 8.435 10.012 10 12 1.143 1.451 6.633 8.064 9 7-8.379-10.658-13.247-27.845-20-38.5-5.474-8.637-5.685 5.299-6 10h-3c-.103-3.984 1.652-12.629-5-11-2.196.538-17.826 35.584-22 39.5-.388 2.085 1.698.896 2.5.5 3.473-1.717 12.649-16.801 14.5-21 .641-.063 1.419.131 2 0-8.532 34.862-40.459 55.91-71 70 5.337-9.004 18.777-12.218 25-21.5l-4 1 3.5-6.5-36 27-8.5-3c3.948-1.43 7.257-3.23 11-5 19.973-9.448 46.527-31.671 57-51.5 3.123-5.912 1.502-4.777 1-6.5-.043-.146 1.611-3.344-.5-3-2.635.429-31.761 31.67-38.5 37-1.534-1.28-6.496 2.129-8 3 .035-1.244-1.078-1.181-2-1-1.393-9.167 11.164-10.847 14-18 12.09-10.207 31.24-33.209 40-46.5.331-.503 4.079-5.543 1.5-5.5-26.422 37.894-64.668 66.188-107.5 83-39.204 10.155-83.255 19.473-123 6-.172-2.782-4.388-2.726 0-5 6.337 2.425 13.65 4.863 20.5 4 9.471-1.193-15.513-7.667-18-9-1.049-.562-11.372-6.162-8-8 1.315-.717 23.052 9.718 29 6 1.847-2.388-1.445-1.888-1.5-2-.3-.608 1.067-1.44 1-1.5-4.577-4.082-29.322-7.666-39.5-14.5-4.2-2.82-14.002-11.083-13-17 16.364 18.08 41.445 22.484 65 21 3.831-.241 20.806-3.166 23.5-5-.301 3.342 2.279 1.774 4 1.5 15.014-2.389 26.79-12.571 39-20.5 24.121-15.663 33.838-27.178 54-46 1.43-1.335 3.233-2.419 5-4 14.308-9.674 30.515-11.016 47.5-10 .38.023 9.555 3.141 6 0-1.133-1.001-8.589-1.715-10.5-2-4.809-6.144-26.209 3.329-25-6 14.922-3.33 28.96-2.121 43.5 2-2.656-5.699-13.863-6.483-19.5-7l-17.5-7c-2.326.391-4.049.977-6.5 1-30.639.282-52.896 14.787-77 32-1.614 1.152-3.439 1.985-5 3 12.525-17.573 40.831-40.64 62-45 22.953-4.727 40.179 4.79 61.5 5 6.319.062 8.404-3.876 10-4 3.632-.281 10.581 6.969 13 8 .863.368 3.031-.032 5.5 1 1.597.668 6.119 3.987 6.5 4 .23.008 2.105-2.365 3.5-3 4.242-1.932 24.29-15.273 21.5-7 2.648 2.688 33.047-4.422 39-5 10.39-1.009 20.315.586 30 0 1.991-.121 1.772.588 2.5-2 22.096 2.566 39.284 17.478 54.5 33 1.791-.106-2.295-6.218-2.5-6.5-4.653-6.394-13.681-13.661-20-18.5m-145.5 4c-3.003 1.611 9.805 9.025 10.5 7.5-2.385-4.216-5.504-7.291-10.5-7.5M617 661c.695.362 1.333.66 2 1 13.413 6.835 26.146 15.204 39 23 3.262 1.979 8.78 2.867 10.5 8 1.318.005 1.112-2.55 1.5-4 .027-.1 1.945.322 2-.5.179-2.702-13.52-12.222-15.5-15.5l1.5 6c-9.207-6.496-16.483-10.503-26.5-15-8.475-3.804-4.882-1.873-13.5-4-3.371-.832-8.386-4.618-12.5-5 1.217 3.876 8.443 4.408 11.5 6m-53.5-4c-3.873.283-17.83 3.188-19 8 14.899-5.504 29.101-3.914 44.5-2.5-6.604-4.558-17.564-6.079-25.5-5.5m63.5 38c-5.94-5.583-10.318-10.946-17-16-3.775-2.855-12.116-10.204-16.5-11-2.324-.422-4.733 2.035-5 2-3.507-.463-2.443-1.96-3-2-8.775-.634-27.45-1.081-33 5 46.094-13.042 68.229 27.417 100 51 8.935 6.632 44.242 31.074 54 28 5.866-1.848-13.808-7.433-15-8-29.399-13.98-41.921-27.778-64.5-49m-178.5-19c-17.542 1.693-42.819 20.4-53.5 34.5.942 3.084 18.823-13.699 21.5-15.5 14.002-9.419 28.381-17.797 46-17-3.008-2.747-9.863-2.399-14-2m116 0 27 10 35.5 24.5c-13.876-18.217-39.234-34.507-62.5-34.5m-120 15c-31.672 4.311-63.844 38.699-91.5 53.5 34.573-13.573 61.287-43.386 98.5-52.5-.595-1.679-5.665-1.182-7-1m127 0 97.5 53.5c-31.483-18.232-60.286-49.636-97.5-53.5m80 4c32.392 30.282 102.157 76.248 138.5 29.5L776.5 735c-44.5 17.456-89.35-16.91-125-40M417 719c-2.469.823-5.135 3.052-7.5 4-1.204.482-1.106-2.877-8 1-5.955 3.348-6.934 5.504-6.5 11 .008.103-3.844 1.743-.5 2l51.5-25c-.83 3.483 1.515 2.815 3.5 2 5.742-2.359 16.776-11.714 22.5-15.5-1.13-1.672-37.535 6.096-39.5 7.5-1.604 1.146 1.68 3.033 0 4-5.09 2.932-13.034 3.523-15.5 9m169-2c3.285 1.703 36.337 17.418 37 15.5-8.644-5.696-18.671-9.037-28-13.5-4.177-10.127 5.544.556 7-2.5-1.901-1.196-.52-3.677-1-5-.59-1.624-29.248-10.975-32.5-11.5-4.385-.708-10.433-.602-15-1 9.747 11.511 24.211 18.673 35 29 1.649-.915.942-2.963 3-3 2.661-.048 39.843 23.822 47 25 3.315-.369-1.636-2.784-2-3-14.894-8.849-33.308-15.811-48-25-2.898-1.813-5.644-2.044-2.5-5m-152.5 4L375 753.5l46.5-22.5c1.142-1.651 14.823-8.693 14.5-9.5-.527-.724-1.743-.661-2.5-.5m330 43-20.5 3.5c3.854 2.484 19.322 1.723 20.5-3.5" style="fill:url(#f)"/>/&gt;<path fill="#7a7786" d="M393.5 640c1.708-.169 3.561.116 2 2l-14.5 6.5c1.232-2.426 10.765-8.328 12.5-8.5"/><path fill="#75707e" d="M385 642c-3.498 2.527-6.215 5.252-9 8.5 5.304.818-5.493 4.451-6 5-2.204 2.384-9.195 11.443-9 14.5-3.793 3.307-7.117 4.65-7.5 5-2.682 2.453-16.082 20.092-18 20-.914-.044-.086-2.953-1-3-1.54-.079-6.747 9.776-10.5 8 19.255-17.725 30.38-42.984 52-58 2.204 3.758 4.955-2.925 9 0"/><path fill="#508194" d="M715 700c2.76 3.361 5.181 8.49 8 12-30.606-16.765-38.649-38.342-61-61 .102-1.936.052-3.205 2.5-2 9.847 4.85 42.173 40.859 50.5 51"/><path fill="#5c5564" d="M459 658c-4.404-.404-23.144-1.609-24 5-1.209 9.329 20.191-.144 25 6-10.919-1.627-16.521-.901-27 1-12.064 2.189-15.238 3.315-25 12-4.907 4.136-8.823-4.738-11-9 3.948-2.803 5.747-6.23 11.5-9 5.017-2.416 27.041-6.904 28-8 .809-.925-2.736-1.37-1.5-4 2.451-.023 4.174-.609 6.5-1z"/><path fill="#241b2e" d="M494.5 651c4.996.209 8.115 3.284 10.5 7.5-.695 1.525-13.503-5.889-10.5-7.5"/><path fill="#7c7785" d="M397 673c-2.042 1.45-6.03 3.527-8 5-2.354-2.014-2.715-.11-4 0-7.152.613-9.67 5.327-16 6v-1c15.458-9.902 30.372-20.704 48.5-26 2.987-2.999-4.317-1.172-5-1-16.657 4.197-38.463 19.807-52.5 30l-2-2c24.104-17.213 46.361-31.718 77-32-1.236 2.63 2.309 3.075 1.5 4-.959 1.096-22.983 5.584-28 8-5.753 2.77-7.552 6.197-11.5 9"/><path fill="#463e50" d="M369 683c-5.378 3.445-11.161 6.45-16.5 10 .155-2.792 5.35-5.439 7.5-7 14.037-10.193 35.843-25.803 52.5-30 .683-.172 7.987-1.999 5 1-18.128 5.296-33.042 16.098-48.5 26"/><path fill="#3d3548" d="m618 660-1 1c-3.057-1.592-10.283-2.124-11.5-6 4.114.382 9.129 4.168 12.5 5"/><path fill="#0b2545" d="M459 658c5.637.517 16.844 1.301 19.5 7-14.54-4.121-28.578-5.33-43.5-2 .856-6.609 19.596-5.404 24-5"/><path fill="#0b2443" d="M563.5 657c7.936-.579 18.896.942 25.5 5.5-15.399-1.414-29.601-3.004-44.5 2.5 1.17-4.812 15.127-7.717 19-8"/><path fill="#686575" d="M658 679c4.177 2.947 8.981 5.717 12 10-.388 1.45-.182 4.005-1.5 4-1.72-5.133-7.238-6.021-10.5-8-10.751-8.674-25.331-22.009-39-23-.667-.34-1.305-.638-2-1l1-1c8.618 2.127 5.025.196 13.5 4 10.017 4.497 17.293 8.504 26.5 15"/><path fill="#3e3347" d="M658 685c-12.854-7.796-25.587-16.165-39-23 13.669.991 28.249 14.326 39 23"/><path fill="#383148" d="M230 715c1.2 3.235 3.319 6.951 5 10 7.413 13.445 15.597 15.463 30.5 20l-5.5-6c4.996.899 8.89 1.257 14 1l2 5c-8.447 2.765-3.704 4.255-5 5.5-8.32 7.995-45.773-16.089-50.5-26.5 1.887 26.206 32.203 43.942 57.5 43 .055.112 3.347-.388 1.5 2-5.948 3.718-27.685-6.717-29-6-3.372 1.838 6.951 7.438 8 8 2.487 1.333 27.471 7.807 18 9-6.85.863-14.163-1.575-20.5-4-14.076-5.386-35.207-23.925-40-38.5-6.467-19.665.459-42.408 6-61.5 2.69-2.643 5.325-7.611 10-7.5-1.999 3.875-6.107 6.352-7 11-.3 1.559-.333 20.669 0 22 .133.531 5.254 5.399 6 8 .54 1.881-2.664 1.016-1 5.5"/><path fill="#062145" d="M460 669c1.911.285 9.367.999 10.5 2 3.555 3.141-5.62.023-6 0-16.985-1.016-33.192.326-47.5 10 .17-.152-1.962-1.246 1.5-4 4.138-3.291 10.126-4.123 14.5-7 10.479-1.901 16.081-2.627 27-1"/><path fill="#132947" d="M610 679c1.353 6.341 11.381 13.497 17 16 22.579 21.222 35.101 35.02 64.5 49 1.192.567 20.866 6.152 15 8-9.758 3.074-45.065-21.368-54-28-31.771-23.583-53.906-64.042-100-51 5.55-6.081 24.225-5.634 33-5 .557.04-.507 1.537 3 2 .267.035 2.676-2.422 5-2 4.384.796 12.725 8.145 16.5 11"/><path fill="#1d4766" d="M433 670c-4.374 2.877-10.362 3.709-14.5 7-3.462 2.754-1.33 3.848-1.5 4-1.767 1.581-3.57 2.665-5 4-4.752-.889-9.461 7.622-13.5 11-1.12.937-1.431-1.059-1.5-1 2.607-4.22 7.362-9.764 11-13 9.762-8.685 12.936-9.811 25-12"/><path fill="#6e6875" d="M397 673c2.177 4.262 6.093 13.136 11 9-3.638 3.236-8.393 8.78-11 13-13.806 11.786-24.251 23.741-40 34-12.73 8.292-26.475 15.486-41 20 3.492-4.263.096-5.474.5-6 .762-.991 13.742.688 16.5-4.5-.926-6.027-11.487-2.614-2.5-8.5l-3.5-2c16.146-8.424 32.539-21.901 45-35 5.92-4.281 11.718-11.051 17-15 1.97-1.473 5.958-3.55 8-5"/><path fill="#534c5d" d="M670 689c-3.019-4.283-7.823-7.053-12-10l-1.5-6c1.98 3.278 15.679 12.798 15.5 15.5-.055.822-1.973.4-2 .5"/><path fill="#5a586f" d="M256 776c-4.388 2.274-.172 2.218 0 5-3.503-1.188-7.089-4.767-11-4.5 11.492 8.475 25.639 12.013 39 16.5 4.672 1.569 10.632 5.293 16.5 7 6.202 1.804 15.723 1.455 22 3 .999.246-1.59 2.614 0 3 5.906 1.435 16.235.638 21 2 .871.249.392 1.961.5 2-8.732.384-17.328-.165-26-1-7.032-.677-13.819-1.623-20.5-4 1.424 4.714 11.225 3.064 14.5 6.5-54.17-6.255-132.053-59.16-101-122 2.669-5.401 6.775-9.348 11-13.5-5.541 19.092-12.467 41.835-6 61.5 4.793 14.575 25.924 33.114 40 38.5"/><path fill="#082f56" d="M448.5 676c4.137-.399 10.992-.747 14 2-17.619-.797-31.998 7.581-46 17-2.677 1.801-20.558 18.584-21.5 15.5 10.681-14.1 35.958-32.807 53.5-34.5"/><path fill="#09284a" d="M564.5 676c23.266-.007 48.624 16.283 62.5 34.5L591.5 686z"/><path fill="#6f6977" d="m385 678-16.5 10 .5-4c6.33-.673 8.848-5.387 16-6"/><path fill="#334862" d="M627 695c-5.619-2.503-15.647-9.659-17-16 6.682 5.054 11.06 10.417 17 16"/><path fill="#1b3858" d="M412 685c-20.162 18.822-29.879 30.337-54 46l-1-2c15.749-10.259 26.194-22.214 40-34 .069-.059.38 1.937 1.5 1 4.039-3.378 8.748-11.889 13.5-11"/><path fill="#726c7a" d="M353 687c-.489.318-1.085 2.948-1.5 3l-1.5-1.5c.578-1.582 2.903-1.363 3-1.5"/><path fill="#223555" d="M444.5 691c1.335-.182 6.405-.679 7 1-37.213 9.114-63.927 38.927-98.5 52.5 27.656-14.801 59.828-49.189 91.5-53.5"/><path fill="#1d1323" d="M596 751c-3.003.247-1.129 2.486-3 6-25.023-16.195-41.309-42.084-59-65.5 13.059 13.581 24.177 29.047 38.5 41.5 6.253 5.437 16.632 13.461 23.5 18"/><path fill="#1e2846" d="M571.5 691c37.214 3.864 66.017 35.268 97.5 53.5z"/><path fill="#1e1323" d="M445 744c-14.585 12.314-46.3 28.202-64.5 33-2.086.55-1.379-2.031-1.5-2 42.832-16.812 81.078-45.106 107.5-83 2.579-.043-1.169 4.997-1.5 5.5-8.76 13.291-27.91 36.293-40 46.5"/><path fill="#382d40" d="M327 728c-6.532 3.408-27.905 13.41-32.5 15-6.822 2.361-13.23.275-18.5 2l-2-5c14.914-.75 27.637-6.286 41-12 21.118-9.03 38.532-21.645 57-35-12.461 13.099-28.854 26.576-45 35"/><path fill="#251a2b" d="M651.5 695c35.65 23.09 80.5 57.456 125 40l13.5-10.5c-36.343 46.748-106.108.782-138.5-29.5"/><path fill="#5c5568" d="M446 712c1.178-3.046 11.537-4.404 9.5-8-8.398 6.197-18.213 9.56-27.5 14-2.217-4.522-7.754-.082-11 1 2.466-5.477 10.41-6.068 15.5-9 1.68-.967-1.604-2.854 0-4 1.965-1.404 38.37-9.172 39.5-7.5-5.724 3.786-16.758 13.141-22.5 15.5-1.985.815-4.33 1.483-3.5-2"/><path fill="#534d60" d="M595 719c-8.239-3.941-16.922-7.843-24.5-13-3.06.062 1.814 3.876 2 4 2.729 1.814 10.103 5.239 13.5 7-3.144 2.956-.398 3.187 2.5 5 14.692 9.189 33.106 16.151 48 25 .364.216 5.315 2.631 2 3-7.157-1.178-44.339-25.048-47-25-2.058.037-1.351 2.085-3 3-10.789-10.327-25.253-17.489-35-29 4.567.398 10.615.292 15 1 3.252.525 31.91 9.876 32.5 11.5.48 1.323-.901 3.804 1 5-1.456 3.056-11.177-7.627-7 2.5"/><path fill="#37344b" d="M519 704c-4.607 3.495 5.395 17.932-.5 15 2.771 23.227 19.502 41.374 36 57 1.966 1.862 23.53 18.599 4 10-6.337-2.79-34.32-26.478-38.5-32.5-.41-.591-8.393-14.405-3-12.5 2.371 6.87 15.348 22.096 21.5 26 .692.439 4.63 3.452 4.5.5-11.272-8.924-21.751-19.8-26-34-1.612-.774-1.09 3.938-1 4.5-4.929.427-3.289-19.68-3-24 .315-4.701.526-18.637 6-10"/><path fill="#1e1425" d="M500 722c-1.851 4.199-11.027 19.283-14.5 21-.802.396-2.888 1.585-2.5-.5 4.174-3.916 19.804-38.962 22-39.5.249 6.751-2.366 13.025-5 19"/><path fill="#322c42" d="M510 714c.381 14.675-.493 28.906-9 41l-3-2c3.101-4.273 9.256-14.694 7.5-20-4.986 13.183-12.744 25.914-25.5 33 .088-.759-.237-1.104-1-1 7.442-7.807 24.039-31.211 25-41.5.357-3.827-.525-1.832-2-1.5-.581.131-1.359-.063-2 0 2.634-5.975 5.249-12.249 5-19 6.652-1.629 4.897 7.016 5 11"/><path fill="#353043" d="m446 712-51.5 25c-3.344-.257.508-1.897.5-2 10.382-6.768 21.864-11.676 33-17 9.287-4.44 19.102-7.803 27.5-14 2.037 3.596-8.322 4.954-9.5 8"/><path fill="#2c2334" d="M595 719c9.329 4.463 19.356 7.804 28 13.5-.663 1.918-33.715-13.797-37-15.5-3.397-1.761-10.771-5.186-13.5-7-.186-.124-5.06-3.938-2-4 7.578 5.157 16.261 9.059 24.5 13"/><path fill="#605a6d" d="m307 714 8 14c-13.363 5.714-26.086 11.25-41 12-5.11.257-9.004-.101-14-1-10.933-1.967-17.296-6.413-25-14-1.681-3.049-3.8-6.765-5-10l2.5-3c18.539 23.109 52.305 15.842 74.5 2"/><path fill="#6e6777" d="M428 718c-11.136 5.324-22.618 10.232-33 17-.434-5.496.545-7.652 6.5-11 6.894-3.877 6.796-.518 8-1 2.365-.948 5.031-3.177 7.5-4 3.246-1.082 8.783-5.522 11-1"/><path fill="#3f374a" d="M433.5 721c.757-.161 1.973-.224 2.5.5.323.807-13.358 7.849-14.5 9.5L375 753.5z"/><path fill="#211727" d="M479 765c-11.153 11.701-41.405 32.249-57.5 33-1.706.08-3.427.169-2-2 .611-.73 9.705-3.172 11.5-4 30.541-14.09 62.468-35.138 71-70 1.475-.332 2.357-2.327 2 1.5-.961 10.289-17.558 33.693-25 41.5"/><path fill="#31273b" d="M480 726c-8.759 10.101-19.299 23.619-29.5 32-6.343 5.211-14.325 8.358-21 13-2.22 1.544-2.309 5.88-9.5 10-3.013 1.726-17.943 7.18-21.5 8-.638.147-5.779 2.11-4-1 16.36-8.184 32.166-16.662 46.5-28 6.739-5.33 35.865-36.571 38.5-37 2.111-.344.457 2.854.5 3"/><path fill="#554e61" d="M276 745c5.27-1.725 11.678.361 18.5-2 4.595-1.59 25.968-11.592 32.5-15l3.5 2c-8.987 5.886 1.574 2.473 2.5 8.5-2.758 5.188-15.738 3.509-16.5 4.5-.404.526 2.992 1.737-.5 6-.341.417-.187.446-1 1-2.694 1.834-19.669 4.759-23.5 5-23.555 1.484-48.636-2.92-65-21-1.002 5.917 8.8 14.18 13 17 10.178 6.834 34.923 10.418 39.5 14.5.067.06-1.3.892-1 1.5-25.297.942-55.613-16.794-57.5-43 4.727 10.411 42.18 34.495 50.5 26.5 1.296-1.245-3.447-2.735 5-5.5"/><path fill="#292134" d="M585 763c9.225 6.741 20.424 13.742 31 18l7 5.5c.357 3.149-3.032.681-4 .5-7.672-1.433-20.506-8.105-27-12.5-.807-.547 2.123-1.688-.5-3.5-6.373-4.403-13.545-7.912-19.5-13-11.209-9.578-21.167-18.663-29.5-31l1-3c13.692 13.198 26.03 27.695 41.5 39"/><path fill="#211525" d="m260 739 5.5 6c-14.903-4.537-23.087-6.555-30.5-20 7.704 7.587 14.067 12.033 25 14"/><path fill="#433d51" d="M422 784c1.459-1.87.527-3.024-2-3 7.191-4.12 7.28-8.456 9.5-10 6.675-4.642 14.657-7.789 21-13 10.201-8.381 20.741-21.899 29.5-32 .502 1.723 2.123.588-1 6.5-10.473 19.829-37.027 42.052-57 51.5"/><path fill="#3c3449" d="m357 729 1 2c-12.21 7.929-23.986 18.111-39 20.5-1.721.274-4.301 1.842-4-1.5.813-.554.659-.583 1-1 14.525-4.514 28.27-11.708 41-20"/><path fill="#160e1d" d="M498 753c-3.742 5.157-12.563 13.273-18.5 15-1.051-.668.371-.892.5-2 12.756-7.086 20.514-19.817 25.5-33 1.756 5.306-4.399 15.727-7.5 20"/><path fill="#180f1c" d="M517 741c-.219-.635-.975-2.844-1-3-.09-.562-.612-5.274 1-4.5 4.249 14.2 14.728 25.076 26 34 .13 2.952-3.808-.061-4.5-.5-6.152-3.904-19.129-19.13-21.5-26"/><path fill="#30293d" d="M431 762c-13.26 2.6-34.132 17.578-51 23-1.316-1.714-2.208-6.601-4.5-7-1.78-.31-29.088 8.022-35 9-10.835 1.793-27.036 4.897-37 6-6.736.746-13.265-2.119-19.5 0-13.361-4.487-27.508-8.025-39-16.5 3.911-.267 7.497 3.312 11 4.5 39.745 13.473 83.796 4.155 123-6 .121-.031-.586 2.55 1.5 2 18.2-4.798 49.915-20.686 64.5-33-2.836 7.153-15.393 8.833-14 18"/><path fill="#3b7385" d="m596 806-17 13c-.968-.361-2.216-.683-3-1-24.777-10.004-44.844-28.47-63.5-47-9.504 17.265-27.295 26.985-44.5 35 5.988-5.589.168-12.299-3-18 17.763-10.73 37.751-24.869 46.5-44 13.543 28.759 54.842 52.614 84.5 62"/><path fill="#211b2c" d="M596 751c48.802 32.251 116.918 46.099 173.5 29-7.682 6.565-20.599 10.744-30.5 12-15.69 1.991-33.813-1.627-49.5-4-5.266-.797-28.849-7.149-31-7-6.59.456-3.554 7.75-4 8-2.597 1.452-18.488-2.167-22.5-3-13.449-7.016-27.191-13.71-40.5-21-2.565-1.405.193-2.198-1.5-3-.699-3.385 1.701-2.56 3-5 1.871-3.514-.003-5.753 3-6"/><path fill="#453f54" d="M501 755c-29.286 41.636-104.518 57.555-152 59-.991-5.626-2.278-3.022-5-4-.108-.039.371-1.751-.5-2-4.765-1.362-15.094-.565-21-2-1.59-.386.999-2.754 0-3-6.277-1.545-15.798-1.196-22-3-5.868-1.707-11.828-5.431-16.5-7 6.235-2.119 12.764.746 19.5 0 9.964-1.103 26.165-4.207 37-6 5.912-.978 33.22-9.31 35-9 2.292.399 3.184 5.286 4.5 7-4.314 1.387-8.409 3.007-13 3.5 2.022-.183 8.049 1.538 9 1.5-2.652 4.779-20.915 4.66-18 9.5 2.374 3.94 46.491-8.143 53-10.5l8.5 3 36-27-3.5 6.5 4-1c-6.223 9.282-19.663 12.496-25 21.5-1.795.828-10.889 3.27-11.5 4-1.427 2.169.294 2.08 2 2 16.095-.751 46.347-21.299 57.5-33 .763-.104 1.088.241 1 1-.129 1.108-1.551 1.332-.5 2 5.937-1.727 14.758-9.843 18.5-15z"/><path fill="#2f2a3d" d="M571 765c6.276 7.848 39.1 27.762 47 25.5.175-.05-1.487-1.747 1-3.5.968.181 4.357 2.649 4-.5l-7-5.5c5.624 2.264 10.019 3.759 16 5 4.012.833 19.903 4.452 22.5 3 .446-.25-2.59-7.544 4-8 2.151-.149 25.734 6.203 31 7 15.687 2.373 33.81 5.991 49.5 4 .323 2.684-2.587 3.281-4.5 4-6.853 2.575-22.91 7.387-30 9-8.762 1.993-21.367 1.48-28 5 15.522.181 31.133-1.21 46.5-3-1.698.872-3.248 1.099-5 2-1.441-.055-3.74.45-5 1-23.878 10.425-90.929.37-117.5-8-7.544-2.376-13.197-7.863-20-8-2.095-1.845 3.762.914.5-2-1.731-1.546-4.698-3.462-7-4 4.706-7.896 21.388 11.671 29 6 2.891.788 6.46 3.851 9 .5-17.559-10.666-35.69-22.487-47-40z"/><path fill="#39354b" d="M619 787c-2.487 1.753-.825 3.45-1 3.5-7.9 2.262-40.724-17.652-47-25.5-1.086-3.447-1.548-4.145 1-7 5.955 5.088 13.127 8.597 19.5 13 2.623 1.812-.307 2.953.5 3.5 6.494 4.395 19.328 11.067 27 12.5"/><path fill="#575366" d="M441 760c-14.334 11.338-30.14 19.816-46.5 28-1.779 3.11 3.362 1.147 4 1 3.557-.82 18.487-6.274 21.5-8 2.527-.024 3.459 1.13 2 3-3.743 1.77-7.052 3.57-11 5-6.509 2.357-50.626 14.44-53 10.5-2.915-4.84 15.348-4.721 18-9.5 12.258-.489 45.094-20.107 57-27 1.504-.871 6.466-4.28 8-3"/><path fill="#1c2036" d="M431 762c.922-.181 2.035-.244 2 1-11.906 6.893-44.742 26.511-57 27-.951.038-6.978-1.683-9-1.5 4.591-.493 8.686-2.113 13-3.5 16.868-5.422 37.74-20.4 51-23"/><path fill="#44495c" d="M590 762c1.693.802-1.065 1.595 1.5 3 13.309 7.29 27.051 13.984 40.5 21-5.981-1.241-10.376-2.736-16-5-10.576-4.258-21.775-11.259-31-18 .379-.677 4.77-1.109 5-1"/><path fill="#231c31" d="M763.5 764c-1.178 5.223-16.646 5.984-20.5 3.5z"/><path fill="url(#g)" d="M576 818c-42.279 24.393-92.973 34.946-141.5 34-1.297-1.292 1.902-.674 1.5-2-.482-1.591-19.532-20.198-23-24 18.236-6.902 37.263-11.738 55-20 17.205-8.015 34.996-17.735 44.5-35 18.656 18.53 38.723 36.996 63.5 47" style="fill:url(#g)"/>/&gt;<path fill="#518b9c" d="M468 806c-17.737 8.262-36.764 13.098-55 20-.088-.097-1.926-.916-2-1-3.047-3.482-7.916-8.444-9-13 23.57-4.917 42.384-11.546 63-24 3.168 5.701 8.988 12.411 3 18"/><path fill="#454d63" d="M569 788c2.302.538 5.269 2.454 7 4-1.737 1.452-12.334-3.703-7-4"/><path fill="#295b6d" d="M697 817c-6.989 7.086-16.677 10.218-25 15-31.28.248-63.456-1.985-93-13l17-13c30.202 9.558 69.407 12.879 101 11"/><path fill="#3a3246" d="M344 810c2.722.978 4.009-1.626 5 4-2.238.068-37.924 2.102-36-2.5.703-1.682 5.332 2.318 5-2.5 8.672.835 17.268 1.384 26 1"/><path fill="#46455a" d="M718 809c-.297.153-.885 4.519-5 1 1.26-.55 3.559-1.055 5-1"/><path fill="#0b5c77" d="M309 815c8.313 5.258 16.56 12.085 25 17l-1 3c-12.968-7.664-26.667-14.254-39-23 4.119 1.039 10.785 2.361 15 3"/><path fill="#77a9ba" d="M411 825c-14.063 6.324-25.884 5.247-35-8 8.503-.777 17.62-3.252 26-5 1.084 4.556 5.953 9.518 9 13"/><path fill="#136681" d="M725 813c-10.947 5.273-23.341 16.031-34.5 22-33.706 18.028-66.395 35.292-103.5 46l-43 12c-22.92-.007-47.208 1.703-70-1-14.126-1.675-29.372-7.018-43-11-2.62-.766-5.401-1.18-8-2-3.327-4.886-8.797-1.181-7-10 100.707 32.157 185.414 13.715 274.5-39 4.021-2.379 15.204-8.57 18-11 1.963-1.706 1.821-1.916.5-4 5.651-.732 5.162 1.055 5.5 1 .582-.096 6.504-4.973 10.5-3"/><path fill="#83c9df" d="m326 817 24 16c-3.199.216-7.351-.595-7 3-2.711-1.534-7.354-3.041-9-4-8.44-4.915-16.687-11.742-25-17 5.514.836 11.451 1.589 17 2"/><path fill="#73bdd5" d="M709 815c1.321 2.084 1.463 2.294-.5 4-2.796 2.43-13.979 8.621-18 11-89.086 52.715-173.793 71.157-274.5 39-5.264-1.681-10.835-3.077-16-5l42 9c86.613 21.161 155.173 1.996 230-41 8.323-4.782 18.011-7.914 25-15 3.491-.208 8.398-1.533 12-2"/><path fill="#65a8bc" d="m369 817 13 13c-8.027.112-20.261 2.571-30 3-.659.029-1.343-.044-2 0l-24-16c12.954.96 29.996.861 43 0"/><path fill="#c3edf7" d="M376 817c9.116 13.247 20.937 14.324 35 8 .074.084 1.912.903 2 1 3.468 3.802 22.518 22.409 23 24-8.036-1.356-17.944-3.116-25.5-6-7.878-3.007-22.701-14.081-28.5-14l-13-13c2.301-.152 4.71.209 7 0"/><path fill="url(#h)" d="M579 819c29.544 11.015 61.72 13.248 93 13-74.827 42.996-143.387 62.161-230 41-30.785-7.521-66.123-18.993-90-40 9.739-.429 21.973-2.888 30-3 5.799-.081 20.622 10.993 28.5 14 7.556 2.884 17.464 4.644 25.5 6 .402 1.326-2.797.708-1.5 2 48.527.946 99.221-9.607 141.5-34 .784.317 2.032.639 3 1" style="fill:url(#h)"/>/&gt;<path fill="#32a9bf" d="M343 836c16.408 9.283 33.437 19.057 51 26-3.243-.166-3.235 2.423-3 5-21.494-9.307-38.185-20.289-58-32l1-3c1.646.959 6.289 2.466 9 4"/><path fill="#ace9f7" d="M350 833c.657-.044 1.341.029 2 0 23.877 21.007 59.215 32.479 90 40l-42-9c-1.958-.729-4.465-1.393-6-2-17.563-6.943-34.592-16.717-51-26-.351-3.595 3.801-2.784 7-3"/><path fill="#248ca3" d="M394 862c1.535.607 4.042 1.271 6 2 5.165 1.923 10.736 3.319 16 5-1.797 8.819 3.673 5.114 7 10-11.364-3.587-21.085-7.274-32-12-.235-2.577-.243-5.166 3-5"/><path fill="#7197a6" d="m474 892-128.5-3 85.5-8c13.628 3.982 28.874 9.325 43 11"/><path fill="#658c9d" d="M587 881c28.319 2.96 57.309 1.892 85.5 6 1.144.167 3.648-.205 3 2-43.887 1.763-87.526 4.014-131.5 4z"/></svg>