<svg xmlns="http://www.w3.org/2000/svg" width="1024" height="1024"><defs><linearGradient id="a" x1="738.143" x2="218.603" y1="344.436" y2="366.311" gradientUnits="userSpaceOnUse"><stop offset="0%" style="stop-color:#78a5b7"/><stop offset="20%" style="stop-color:#a3c7d5"/><stop offset="100%" style="stop-color:#daecf3"/></linearGradient></defs><defs><linearGradient id="b" x1="734.772" x2="698.628" y1="258.939" y2="451.578" gradientUnits="userSpaceOnUse"><stop offset="0%" style="stop-color:#6390a3"/><stop offset="100%" style="stop-color:#477588"/></linearGradient></defs><defs><linearGradient id="c" x1="528.07" x2="484.402" y1="392.518" y2="471.214" gradientUnits="userSpaceOnUse"><stop offset="0%" style="stop-color:#002d45"/><stop offset="100%" style="stop-color:#004a64"/></linearGradient></defs><defs><linearGradient id="d" x1="634.901" x2="393.599" y1="541.184" y2="559.549" gradientUnits="userSpaceOnUse"><stop offset="10.331%" style="stop-color:#016b89"/><stop offset="54.545%" style="stop-color:#0b9dc2"/><stop offset="100%" style="stop-color:#63d4f0"/></linearGradient></defs><defs><linearGradient id="e" x1="229.945" x2="630.76" y1="490.852" y2="802.96" gradientUnits="userSpaceOnUse"><stop offset="42.717%" style="stop-color:#acccd7"/><stop offset="100%" style="stop-color:#6a9cb0"/></linearGradient></defs><defs><linearGradient id="f" x1="293.213" x2="726.204" y1="627.309" y2="839.07" gradientUnits="userSpaceOnUse"><stop offset="0%" style="stop-color:#93baca"/><stop offset="46.681%" style="stop-color:#6192a7"/><stop offset="100%" style="stop-color:#3e7084"/></linearGradient></defs><path fill="#0a5b79" d="m546 180-4 9c-99.066-8.694-187.365 25.384-263 87-24.726 20.143-48.345 43.306-63 72-21.982 33.109-39.922 73.399-49 112-2.745 3.078-5.104 11.531-6 15.5-34.849 154.345 43.606 302.527 178 377.5l-9 16c-24.167-13.159-47.249-28.304-67.5-47-3.404 4.939-.617 5.507 1.5 9-45.5-39.575-81.905-92.331-103-149-.4-1.076-.902-1.726-1-2-6.401-17.818-10.513-37.083-15-55.5-4.353-1.776-31.837-9.104-33.5-11.5-.645-.929-.131-13.179-3.5-9-.068-.649.064-1.35 0-2-.901-9.202-1.729-18.762-2-28 4.728 6.597-.632 7.873 5 15 5.196 6.576 20.956 9.449 30 8.5-.496-16.49-2.405-32.979-2-49.5.946-38.633 10.093-73.765 18-111 .35-1.65 2.688-2.966 1-5 3.973-2.196 8.367-19.721 11-25.5 4.69-10.293 9.645-21.051 15-31 7.18-13.339 23.197-32.393 28-44.5 3.926-9.896-5.616-14.821-7-25 5.305-2.464 12.691-9.234 17.5-13l10 13c.827.081 9.949-10.508 11.5-12 4.662-4.485 15.04-13.228 18-18 4.498-4.532 15.805-11.13 19-16 1.03-.494 2.111-1.31 3-2 3.652-2.832 7.356-5.639 11-8.5-1.795-2.566-4.737-3.618-7-5.5-46.923-39.036-77.263-85.551-47-147.5-5.484 1.073-7.96 6.809-11 10.5-11.317 13.739-26.651 40.393-33 57h-2c8.432-23.615 25.414-58.866 48.5-70-29.23 57.944 4.055 121.907 57 151 72.304-50.576 157.101-73.341 245.5-65"/><path fill="#0c4d6c" d="M786 95c-2.144 2.98 2.189 6.98 3 9 5.651 14.086 7.976 30.921 7 46-1.192 18.421-7.007 28.818-15 44.5-.064.126 2.067 1.875 2 2-8.545 15.957-32.417 37.212-48 46.5 4.58-6.074 6.996-8.566 12-14 8.889-9.653 19.497-18.675 27-29.5 21.542-31.081 25.549-69.487 9-104 .209-3.516 2.82-.55 3-.5"/><path fill="#7ba6b7" d="M789 97c27.462 31.251 46.835 71.94 49 114l-3.5-11c-2.149 3.218-6.037 1.707-9.5 2-.218-26.801-10.382-57.589-23-81-3.367-6.246-6.429-13.688-13-17-.811-2.02-5.144-6.02-3-9 2.937.823 2.215 1.504 3 2"/><path fill="#e5f3f7" d="m288 244-9 3.5c2.281 4.725 9.106 4.355 5 10.5-.889.69-1.97 1.506-3 2 .229-.349.233-3.219 2-3.5-10.498-9.543-15.882.603-24 6.5-3.515 2.553-22.4 16.115-23 19-9.249-13.879-16.402-31.157-22-47l25-18.5c-5.798-12.383-14.139-27.35-16-41-1.656-12.147.939-36.896 3-49.5 1.074-6.572 6.094-12.747 4-19 3.04-3.691 5.516-9.427 11-10.5-30.263 61.949.077 108.464 47 147.5"/><path fill="#14445a" d="m835 281-12 26.5c-7.543-3.199-9.837 13.989-15 18.5-5.401-7.125-13.873-16.031-20-23 1.943-2.045 11.785-14.613 12-16l19.5 18c3.698-10.89 9.621-21.9 12.5-33 5.012-19.328 7.026-41.072 6-61-2.165-42.06-21.538-82.749-49-114 49.516 31.306 60.16 132.399 46 184"/><path fill="#e0edf1" d="M802 121c-4.611 8.82 2.071 13.115 3 21.5 3.261 29.426-5.276 56.59-22 80.5-.207-.162-.791.161-1 0-2.066-1.589-4.02-3.311-6-5 13.751-17.624 23.778-45.046 24-67.5l-1.5 7.5-2.5-8c.976-15.079-1.349-31.914-7-46 6.571 3.312 9.633 10.754 13 17"/><path fill="#84afbf" d="M226 126c-7.991 17.158-17.313 36.407-21 55-4.587 3.759-7.707.331-13 0 1.37-5.694 2.917-11.55 5-17 6.349-16.607 21.683-43.261 33-57 2.094 6.253-2.926 12.428-4 19"/><path fill="#abd1de" d="M825 202c.157 19.308-3.965 33.185-10 51-6.562-5.762-12.542-12.115-19-18-4.15-3.782-8.624-8.566-13-12 16.724-23.91 25.261-51.074 22-80.5-.929-8.385-7.611-12.68-3-21.5 12.618 23.411 22.782 54.199 23 81"/><path fill="#b8d9e3" d="M214 235c-.575-1.628-.663-3-1-4-3.706-11.003-7.242-21.699-10-33 .386-5.931.841-11.156 2-17 3.687-18.593 13.009-37.842 21-55-2.061 12.604-4.656 37.353-3 49.5 1.861 13.65 10.202 28.617 16 41z"/><path fill="#fafcfd" d="M776 218c-2.045 2.621-20.151 20.734-23 23-5.777 4.594-12.76 7.213-19 11l-5-4.5c2.274-1.231 4.392-2.367 6-4.5 15.583-9.288 39.455-30.543 48-46.5.067-.125-2.064-1.874-2-2 7.993-15.682 13.808-26.079 15-44.5l2.5 8 1.5-7.5c-.222 22.454-10.249 49.876-24 67.5"/><path fill="#073a51" d="M197 164c-2.083 5.45-3.63 11.306-5 17-4.961 20.628-4.58 37.967-3 59 .351 4.674.362 9.33 1 14 2.437 17.841 8.19 35.071 14 52-3.311 1.059-2.533-1.566-4 0-19.596-48.94-22.953-91.716-5-142z"/><path fill="#01344c" d="M747 229c-5.004 5.434-7.42 7.926-12 14-1.608 2.133-3.726 3.269-6 4.5l5 4.5c3.666 3.298 8.399 5.85 12 9 6.205 5.429 13.105 11.305 19 17 8.035 7.762 15.616 16.602 23 25 6.127 6.969 14.599 15.875 20 23 .177.233.797 3.87 2 5.5.784 1.063 1.589-1.065 2-.5 14.704 20.197 28.463 44.843 39 67.5 2.125 4.57 10.686 30.908 12 32 2.035 1.691 8.601 1.02 11 1.5v3c-2.086-.464-9.58-2.82-10-.5 12.976 35.537 17.914 73.638 18 111.5.038 16.545-.968 32.618-3 49-.644 5.19-1.052 10.91-2 16-.896 4.811-1.076 11.094-2 15.5-.366 1.744-3.854 1.314-4 2-3.465 16.24-5.607 33.672-9.5 49.5.878.678 9.724-2.467 11.5-3v2c-3.691 1.15-10.8 2.109-13 4.5-2.795 3.038-12.027 28.801-15 35-3.205 6.683-7.223 13.137-11 19.5.158-.558 1.061-4.774.5-5-2.45 3.412-8.374-3.333-10-3-25.496 36.812-56.259 71.435-92.5 98-114.569 83.98-268.073 96.692-393 27-134.394-74.973-212.849-223.155-178-377.5.896-3.969 3.255-12.422 6-15.5-30.596 130.093 11.706 256.572 113 342 121.452 102.428 300.098 113.295 431 22 33.785-20.271 65.977-51.493 88-84 27.441-35.638 48.413-79.877 58-124 4.327-19.917 7.374-41.594 8-62 5.648-184.078-133.397-344.267-316-364-2.352-.254-5.129-.836-7-1l4-9c50.406 4.756 98.86 19.488 143.5 43 5.142 2.708 31.045 20.95 33 21 3.559.09 19.987-13.208 24.5-15"/><path fill="#6795a8" d="M205 181c-1.159 5.844-1.614 11.069-2 17-.773 11.888-.548 23.177 1 35 .269 2.057.739 3.444 1 5l-16 2c-1.58-21.033-1.961-38.372 3-59 5.293.331 8.413 3.759 13 0"/><path fill="#e4f2f7" d="M542 189c1.871.164 4.648.746 7 1l35 16c-10.396 1.359-21.876-3.633-32.5-5-74.573-9.593-146.63 2.599-211 41-89.532 53.411-169.575 154.925-170.5 263.5-.089 10.449 6.069 6.274 15 7.5-.33 11.229-.245 23.862 1 35l-19 1.5c1.706 31.73 8.754 63.23 18 93.5 23.314 76.33 46.845 95.532 93 154 .181.229 1.878 4.196 2 5-101.294-85.428-143.596-211.907-113-342 9.078-38.601 27.018-78.891 49-112 17.704-26.665 39.806-50.111 63-72 75.635-61.616 163.934-95.694 263-87"/><path fill="#78aec4" d="m865 554-3-45.5-9-.5c-1.193-11.575-3.614-23.609-6-35-26.361-125.851-129.433-237.725-257-264-1.66-.938-4.281-1.798-6-3l-35-16c182.603 19.733 321.648 179.922 316 364"/><path fill="#97bfcd" d="m213 231-9 2c-1.548-11.823-1.773-23.112-1-35 2.758 11.301 6.294 21.997 10 33"/><path fill="url(#a)" d="M584 206c1.719 1.202 4.34 2.062 6 3 22.71 12.827 58.142 40.135 77.5 58 55.479 51.202 86.036 129.985 87.5 205-27.74-10.624-37.917-44.834-56-66.5-34.51-41.349-104.222-81.093-157.5-88.5-84.328-11.724-173.903 30.451-224.5 97-6.827 8.519-11.273 16.895-17 26-17.742 29.088-38.571 47.272-74.5 34-8.815-3.256-16.553-11.945-24.5-15-.817-.314-1.197-.901-2-1-.226-2.396.581-3.799-2-5.5 4.165-6.396 27.858-2.524 31-6 1.028-1.138 8.237-24.865 10-29 25.682-60.233 59.067-106.077 112.5-144.5 26.056-18.737 61.756-42.384 94.5-41.5-27.34-27.75-62.731-6.372-90.5 9.5-98.6 56.356-166.111 156.638-169.5 272-8.931-1.226-15.089 2.949-15-7.5.925-108.575 80.968-210.089 170.5-263.5 64.37-38.401 136.427-50.593 211-41 10.624 1.367 22.104 6.359 32.5 5" style="fill:url(#a)"/>/&gt;<path fill="#5d899d" d="M838 211c1.026 19.928-.988 41.672-6 61l-17-17c.174-.492-.171-1.496 0-2 6.035-17.815 10.157-31.692 10-51 3.463-.293 7.351 1.218 9.5-2z"/><path fill="url(#b)" d="m847 473-43 2c4.737-3.668 10.18-7.907 13.5-13-19.609 12.84-39.847 18.676-62.5 10-1.464-75.015-32.021-153.798-87.5-205-19.358-17.865-54.79-45.173-77.5-58 127.567 26.275 230.639 138.149 257 264" style="fill:url(#b)"/>/&gt;<path fill="#fefefe" d="M199 458c.518 5.487 1.799 11.904 3 16.5.413 1.579-.486 6.3 0 7 .936 1.348 5.797-.739 7 2 .262.597 1.417 12.499 1 13-2.57 3.083-24.317-3.573-17 10.5-10.472.776 2.141 8.326 5 3 .261.135.725-.129 1 0-1.182 4.675 5.11 4.273 6 6.5.529 1.323-.439 24.204 0 28.5 1.436 14.042 3.812 28.52 6 42.5 3.077 19.654 12.902 36.292 5.5 56.5-13.401-29.476-26.876-63.572-30.5-96-1.245-11.138-1.33-23.771-1-35 3.389-115.362 70.9-215.644 169.5-272 27.769-15.872 63.16-37.25 90.5-9.5-32.744-.884-68.444 22.763-94.5 41.5-53.433 38.423-86.818 84.267-112.5 144.5-1.763 4.135-8.972 27.862-10 29-3.142 3.476-26.835-.396-31 6 2.581 1.701 1.774 3.104 2 5.5"/><path fill="#c4d8e1" d="M776 218c1.98 1.689 3.934 3.411 6 5l-18 25c-1.04-.833-2.874-.904-3-1-2.307-1.761-4.533-5.167-8-6 2.849-2.266 20.955-20.379 23-23"/><path fill="#92baca" d="M796 235c-7.594-2.088-5.453 7.211-7 11.5-.514 1.427-4.882 6.586-5 7-.561 1.961 2.577.622 2 4-.494 2.892-3.077 5.462-3 8.5-1.32-1.404-3.608-2.639-5-4-4.528-4.426-9.008-10.004-14-14l18-25c.209.161.793-.162 1 0 4.376 3.434 8.85 8.218 13 12"/><path fill="#73a1b4" d="M213 231c.337 1 .425 2.372 1 4 5.598 15.843 12.751 33.121 22 47-.058.281-.026.706 0 1l-13 8.5c-7.289-14.508-12.501-29.59-16-45.5-.641-2.913-1.434-4.628-2-8-.261-1.556-.731-2.943-1-5z"/><path fill="#6d9cae" d="M796 235c6.458 5.885 12.438 12.238 19 18-.171.504.174 1.508 0 2-3.652 10.354-8.337 21.261-15 30-.29-1.241-14.777-16.637-17-19-.077-3.038 2.506-5.608 3-8.5.577-3.378-2.561-2.039-2-4 .118-.414 4.486-5.573 5-7 1.547-4.289-.594-13.588 7-11.5"/><path fill="#5d8ea2" d="M205 238c.566 3.372 1.359 5.087 2 8l-17 8c-.638-4.67-.649-9.326-1-14z"/><path fill="#acc6d3" d="m761 247-15 14c-3.601-3.15-8.334-5.702-12-9 6.24-3.787 13.223-6.406 19-11 3.467.833 5.693 4.239 8 6"/><path fill="#e8f1f5" d="M288 244c2.263 1.882 5.205 2.934 7 5.5-3.644 2.861-7.348 5.668-11 8.5 4.106-6.145-2.719-5.775-5-10.5z"/><path fill="#477388" d="M207 246c3.499 15.91 8.711 30.992 16 45.5l13-8.5c.159 1.76 5.862 9.716 8 11-1.551 1.492-10.673 12.081-11.5 12l-10-13c-4.809 3.766-12.195 10.536-17.5 13-.256.119-.68-.102-1 0-5.81-16.929-11.563-34.159-14-52z"/><path fill="#78a3b5" d="M764 248c4.992 3.996 9.472 9.574 14 14-4.808 4.337-11.589 9.353-13 16-5.895-5.695-12.795-11.571-19-17l15-14c.126.096 1.96.167 3 1"/><path fill="#bbd6df" d="M281 260c-3.195 4.87-14.502 11.468-19 16 3.899-6.285 2.812-8.086-3-13 8.118-5.897 13.502-16.043 24-6.5-1.767.281-1.771 3.151-2 3.5"/><path fill="#345e71" d="M832 272c-2.879 11.1-8.802 22.11-12.5 33L800 287c.087-.561.119-1.49 0-2 6.663-8.739 11.348-19.646 15-30z"/><path fill="#527e91" d="M783 266c2.223 2.363 16.71 17.759 17 19 .119.51.087 1.439 0 2-.215 1.387-10.057 13.955-12 16-7.384-8.398-14.965-17.238-23-25 1.411-6.647 8.192-11.663 13-16 1.392 1.361 3.68 2.596 5 4"/><path fill="#92b9c8" d="M259 263c5.812 4.914 6.899 6.715 3 13-2.96 4.772-13.338 13.515-18 18-2.138-1.284-7.841-9.24-8-11-.026-.294-.058-.719 0-1 .6-2.885 19.485-16.447 23-19"/><path fill="#043754" d="M279 276c-23.194 21.889-45.296 45.335-63 72 14.655-28.694 38.274-51.857 63-72"/><path fill="#031b28" d="M835 281c-4.747 17.298-13.687 34.84-23 50-.411-.565-1.216 1.563-2 .5-1.203-1.63-1.823-5.267-2-5.5 5.163-4.511 7.457-21.699 15-18.5z"/><path fill="#05202e" d="M204 306c.32-.102.744.119 1 0 1.384 10.179 10.926 15.104 7 25-6.243-7.18-8.574-16.444-12-25 1.467-1.566.689 1.059 4 0"/><path fill="#140b0a" d="M755 472c22.653 8.676 42.891 2.84 62.5-10-3.32 5.093-8.763 9.332-13.5 13-15.396 11.923-33.836 21.68-54 20.5 24.061 12.146 50.245 16.859 77 11-18.242 9.995-38.373 14.604-59 12.5-7.088-.723-14.043-1.797-20.5-5-4.567 2.623 19.781 15.669 22.5 17 10.792 5.28 22.184 9.259 34 11.5-.053 2.585-28.381-3.874-31-4.5-6.311-1.508-17.629-3.913-23-7-.702-.403-2.336-1.487-3-2-.995-.769-2.959-4.117-4-5-1.367-1.159-1.843-3.22-4-5-4.368-12.143-15.776-16.617-25-24l.5-10c27.224 10.384 60.035 11.485 82.5-9.5-55.851 19.579-68.721-29.966-96-63-25.354-30.703-59.741-53.701-96-69.5-103.17-44.953-217.697-16.718-288 71 50.597-66.549 140.172-108.724 224.5-97 53.278 7.407 122.99 47.151 157.5 88.5 18.083 21.666 28.26 55.876 56 66.5m-27.5 21c9.322 6.865 13.941 17.724 25 21 15.96 4.728 35.607 3.248 51.5-.5z"/><path fill="#504e4a" d="m605 343-5 14c-106.905-49.117-226.337-10.387-289 87-2.898 4.503-6.378 9.432-9 14-7.327.391-3.477 9.613-12 1 4.349-5.862 6.598-13.591 10-19 5.727-9.105 10.173-17.481 17-26 70.303-87.718 184.83-115.953 288-71"/><path fill="#0a0605" d="M600 357c31.861 14.638 62.625 37.107 85 64-61.133-63.377-147.258-97.934-235-75-58.665 15.333-104.023 49.066-139 98 62.663-97.387 182.095-136.117 289-87"/><path fill="#5e5c57" d="M685 421c4.365 5.246 14.256 16.98 17 22.5.3.604 2.841 4.812.5 4.5-40.582-36.002-83.619-72.975-136.5-89-37.129-11.252-76.929-13.953-115-5l-1-8c87.742-22.934 173.867 11.623 235 75"/><path fill="#2e2a27" d="M714 495c-19.548-15.648-38.594-32.501-59-47-4.984-3.541-17.318-12.977-22-15-1.274-.551-3.551-1.057-5-1-9.213-10.465-35.773-20.963-49-26-50.853-19.366-103.053-28.784-154-5-7.285 3.401-13.226 6.728-20 11-10.574 6.668-20.954 15.469-31 23-.57-2.094-4.816 1.491-5.5 2-37.947 28.257-75.271 71.49-128 50-2.046-.834-19.87-11.403-19.5-12.5 27.492 9.336 49.379 10.945 69-15.5 8.523 8.613 4.673-.609 12-1-1.989 3.465-4.933 9.03-5.5 13 14.658-17.254 30.244-34.272 46.5-50l7.5 11c56.487-56.935 136.392-79.742 214-55-3.019-4.86 1.907-12.198 1.5-18 52.881 16.025 95.918 52.998 136.5 89 2.341.312-.2-3.896-.5-4.5-2.744-5.52-12.635-17.254-17-22.5-22.375-26.893-53.139-49.362-85-64l5-14c36.259 15.799 70.646 38.797 96 69.5 27.279 33.034 40.149 82.579 96 63-22.465 20.985-55.276 19.884-82.5 9.5z"/><path fill="#81827d" d="m450 346 1 8c-44.859 10.549-75.931 35.972-108 67-16.256 15.728-31.842 32.746-46.5 50 .567-3.97 3.511-9.535 5.5-13 2.622-4.568 6.102-9.497 9-14 34.977-48.934 80.335-82.667 139-98"/><path fill="#4f4d49" d="M566 359c.407 5.802-4.519 13.14-1.5 18-77.608-24.742-157.513-1.935-214 55l-7.5-11c32.069-31.028 63.141-56.451 108-67 38.071-8.953 77.871-6.252 115 5"/><path fill="url(#c)" d="m579 406-1.5 3c20.114 9.424 40.675 25.908 49.5 47 .048.115-2.2.945-2 1.5.858 2.377 5.65 7.705 7 10.5-.078-.045-.164 1.734-1.5 1-13.713-7.531-27.61-14.996-43.5-17-7.932-16.797-31.924-20.508-44-6-28.436-6.154-60.878-5.68-84 14-10.072 6.597-17.873 16.22-23 27l-6 4c8.498-22.309 25.371-37.07 46.5-47-27.172 2.821-54.849 6.225-80.5 16-2.009.765-3.423 2.334-5 3-3.981 1.681-8.016 3.327-12 5-2.319.974-4.589 2.207-7 3 7.296-23.656 19.903-40.263 37.5-58l15.5-12c50.947-23.784 103.147-14.366 154 5m-88.5-13c-8.936.161-41.226 11.425-53 19-4.3 2.766-8.339 6.488-12.5 9.5.669.447 2.18 2.502 2.5 2.5 1.221-.007 15.968-11.959 20-14 5.842-2.957 16.997-8.152 23-10 2.462-.758 28.193-4.884 26-6-.271-.138-5.696-1.005-6-1" style="fill:url(#c)"/>/&gt;<path fill="#004760" d="M490.5 393c.304-.005 5.729.862 6 1 2.193 1.116-23.538 5.242-26 6-6.003 1.848-17.158 7.043-23 10-4.032 2.041-18.779 13.993-20 14-.32.002-1.831-2.053-2.5-2.5 4.161-3.012 8.2-6.734 12.5-9.5 11.774-7.575 44.064-18.839 53-19"/><path fill="#042739" d="m425 401-15.5 12c-17.597 17.737-30.204 34.344-37.5 58-.404 1.308-1.301 2.209-2 5-3.761.537-.647-2.726-1.5-3l-3.5 3c.316-1.097.665-1.968 1-3 3.758-11.581 10.363-21.841 16-32.5l23-28.5c6.774-4.272 12.715-7.599 20-11"/><path fill="#003b54" d="M628 432c5.071 5.761 10.847 19.607 14 27-2.597 7.119-9.786-2.767-15-3-8.825-21.092-29.386-37.576-49.5-47l1.5-3c13.227 5.037 39.787 15.535 49 26"/><path fill="#859095" d="M366 473c-8.177 3.056-14.86 8.21-22 13-17.311 11.615-33.325 26.655-52 36-3.71 1.857-8.128 3.388-12 5-2.378.99-4.03 2.635-7 2-.153-.259.142-1.164-1-1 4.818-3.613 8.231-11.725 13-16 22.302-19.994 47.394-37.947 68-60 7.036-5.594 13.788-11.594 21-17 10.046-7.531 20.426-16.332 31-23l-23 28.5c-5.637 10.659-12.242 20.919-16 32.5"/><path fill="#051e27" d="M157 437c-11.045 3.015-23.607 5.254-33 12-7.349 5.278-8.143 7.731-11 16.5-12.829 39.372-12.134 97.601-8 138.5 1.278 12.647 4.028 46.659 10 56.5 1.478 2.436 4.071 3.11 6 4.5 10.574 7.62 27.106 9.737 39 15 .098.274.6.924 1 2-15.214-1.558-41.579-4.576-50-18.5-31.449-51.998-32.782-164.032 3-214 8.792-12.278 30.315-13.943 44-17.5 1.688 2.034-.65 3.35-1 5m-54.5 51c-11.205 48.725-17.153 103.212 1 151 1.967-1.439.762-5.333.5-7.5-1.801-14.887-6.978-30.357-8-46-2.14-32.758 3.313-65.109 6.5-97.5"/><path fill="#082c3c" d="M633 433c6.964 11.8 12.962 23.812 17 37 1.368 4.469 3.112 9.446 4 14l-3 3c-.624-1.781-.953-3.337-2-5 .252-8.413-3.865-15.649-7-23-3.153-7.393-8.929-21.239-14-27 1.449-.057 3.726.449 5 1"/><path fill="#041d26" d="M873 677v-2c6.985-2.098 16.712-6.233 23-10 2.227-1.334 5.067-1.94 7-4 15.061-16.056 18.338-119.027 17-143.5-.801-14.661-6.383-58.137-15-69-2.276-2.87-5.961-3.861-9-5.5-5.547-2.991-15.865-6.636-22-8v-3c22.327 4.463 29.037.479 40 22.5 26.992 54.22 28.81 152.412-3 205-7.224 11.943-26.291 13.85-38 17.5m51.5-184c5.311 42.51 1.374 84.842-4 127 5.656-24.931 10.385-55.785 10.5-81.5.063-14.076-.618-32.797-6.5-45.5"/><path fill="#606b70" d="M655 448c4.34 6.355 12.54 12.989 18.5 18 21.495 18.073 43.854 35.141 65.5 53 2.157 1.78 2.633 3.841 4 5-1.319.418-2.313 1.983-3 3-4.083-2.774-10.846-3.985-15-6-26.21-12.715-49.783-36.268-75-51-4.038-13.188-10.036-25.2-17-37 4.682 2.023 17.016 11.459 22 15"/><path fill="#2bb3d6" d="M874 435c6.135 1.364 16.453 5.009 22 8v1c-6.489-.553 3.879 12.646 5 15.5 3.704 9.428 7.412 22.602 10 32.5.109.415 2.411 4.681 3 7.5.046.219-.474-.831 0 2 2.416 14.425.882 27.312 1 41.5-9.838 3.876-22.434 4.22-33 3-.086-37.862-5.024-75.963-18-111.5.42-2.32 7.914.036 10 .5"/><path fill="#140d0c" d="M374 435c-7.212 5.406-13.964 11.406-21 17-23.485 18.671-48.725 37.286-68 60-4.769 4.275-8.182 12.387-13 16-11.068 8.301-36.339 10.565-50 13 18.93-5.447 38.531-12.23 52-27.5-23.543 8.356-52.206 7.207-75-3.5-.275-.129-.739.135-1 0-2.062-1.065-3.74-.577-5-3 3.515-.26 11.391 2.927 15.5 3 21.757.388 44.19-6.031 63.5-15.5-28.036 3.105-53.409-15.729-71-35.5 7.947 3.055 15.685 11.744 24.5 15 35.929 13.272 56.758-4.912 74.5-34-3.402 5.409-5.651 13.138-10 19-19.621 26.445-41.508 24.836-69 15.5-.37 1.097 17.454 11.666 19.5 12.5 52.729 21.49 90.053-21.743 128-50 .684-.509 4.93-4.094 5.5-2m-80.5 55c-16.06 4.592-30.934 13.608-47 18-9.331 2.551-19.349 2.019-28.5 5.5 18.966 6.092 39.267 2.948 57.5-3.5z"/><path fill="#51cbeb" d="M157 437c-7.907 37.235-17.054 72.367-18 111-4.985.093-10.071-.418-15-1-7.502-6.149-11.625 2.508-12-9.5-.304-9.728 1.047-35.302 2-43 .821-6.629 12.115-41.945 11-44.5-.181-.415.093-1.15-1-1 9.393-6.746 21.955-8.985 33-12"/><path fill="#fefefe" d="M587 452c5.519 11.686 3.935 27.791-6 37-20.448 18.955-49.054-2.248-44-29 .697-3.691 3.743-11.289 6-14 12.076-14.508 36.068-10.797 44 6"/><path fill="#0f90b3" d="M543 446c-2.257 2.711-5.303 10.309-6 14-19.582-7.454-41.699-5.136-60 5l-2.5-13c-4.501 3.335-10.981 5.04-15.5 8 23.122-19.68 55.564-20.154 84-14"/><path fill="#eaf5f9" d="m903 661 12-79c1.659-13.103.108-26.005 0-39-.118-14.188 1.416-27.075-1-41.5-.474-2.831.046-1.781 0-2-.589-2.819-2.891-7.085-3-7.5-1.206-16.044-5.557-34.524-15-48v-1c3.039 1.639 6.724 2.63 9 5.5 8.617 10.863 14.199 54.339 15 69 1.338 24.473-1.939 127.444-17 143.5"/><path fill="#1aa4c7" d="M430 491c-1.771 4.648-2.997 8.03-4 13l-41-10c2.344-11.872 7.461-22.561 11-34 25.651-9.775 53.328-13.179 80.5-16-21.129 9.93-38.002 24.691-46.5 47"/><path fill="#1098c2" d="M896 444c9.443 13.476 13.794 31.956 15 48-2.588-9.898-6.296-23.072-10-32.5-1.121-2.854-11.489-16.053-5-15.5"/><path fill="#6e7c7d" d="M714 495c9.224 7.383 20.632 11.857 25 24-21.646-17.859-44.005-34.927-65.5-53-5.96-5.011-14.16-11.645-18.5-18 20.406 14.499 39.452 31.352 59 47"/><path fill="#f9fbfc" d="M124 449c1.093-.15.819.585 1 1-12.13 29.857-16.551 61.895-18 94-.454 10.067-1.298 19.852-1 30 .271 9.238 1.099 18.798 2 28l-3 2c-4.134-40.899-4.829-99.128 8-138.5 2.857-8.769 3.651-11.222 11-16.5"/><path fill="#52bdda" d="M124 547c-4.055-.478-8.026-1.067-12-2-1.678-.394-3.21-1.203-5-1 1.449-32.105 5.87-64.143 18-94 1.115 2.555-10.179 37.871-11 44.5-.953 7.698-2.304 33.272-2 43 .375 12.008 4.498 3.351 12 9.5"/><path fill="#aeb6b7" d="M285 512c19.275-22.714 44.515-41.329 68-60-20.606 22.053-45.698 40.006-68 60"/><path fill="#29b6dc" d="M477 465c-44.359 24.567-47.471 88.232-3.5 115 44.583 27.141 100.949-1.862 105.5-53 1.437.825 9.777 3.019 11 3-2.923 44.403-39.941 74.699-84 73-58.574-2.259-95.355-62.694-70-116 5.127-10.78 12.928-20.403 23-27 4.519-2.96 10.999-4.665 15.5-8z"/><path fill="url(#d)" d="M632 468c.733.421.232-1.734 3 .5.266.215-.215 2.354 0 2.5-2.384.777-.339 2.847 0 4 19.962 67.81-11.51 139.822-79 165-11.065 4.128-26.229 7.359-38 8-85.48 4.655-149.516-70.37-133-154l41 10c-11.266 55.838 32.116 105.777 89 103 27.798 1.737 60.007-21.488 72-45.5 5.622-11.256 5.934-24.301 10-33.5 1.387-3.138 7.062-6.317 8-10.5 2.976-13.278-7.532-28.163-22-23.5l-2-5c9.935-9.209 11.519-25.314 6-37 15.89 2.004 29.787 9.469 43.5 17 1.336.734 1.422-1.045 1.5-1" style="fill:url(#d)"/>/&gt;<path fill="#003f5d" d="M537 460c-5.054 26.752 23.552 47.955 44 29l2 5c-13.058 4.208-15.891 26.176-4 33-4.551 51.138-60.917 80.141-105.5 53-43.971-26.768-40.859-90.433 3.5-115 18.301-10.136 40.418-12.454 60-5m21.5 47c-8.922 1.388-8.003 18.882 5 15 8.126-2.426 4.058-16.409-5-15"/><path fill="#016e8e" d="M642 459c3.135 7.351 7.252 14.587 7 23-1.829-2.904-10.754-8.79-14-11-.215-.146.266-2.285 0-2.5-2.768-2.234-2.267-.079-3-.5-1.35-2.795-6.142-8.123-7-10.5-.2-.555 2.048-1.385 2-1.5 5.214.233 12.403 10.119 15 3"/><path fill="#deeff4" d="M201 459c17.591 19.771 42.964 38.605 71 35.5-19.31 9.469-41.743 15.888-63.5 15.5-4.109-.073-11.985-3.26-15.5-3-7.317-14.073 14.43-7.417 17-10.5.417-.501-.738-12.403-1-13-1.203-2.739-6.064-.652-7-2-.486-.7.413-5.421 0-7-1.201-4.596-2.482-11.013-3-16.5.803.099 1.183.686 2 1"/><path fill="#7bdef5" d="M385 494c-16.516 83.63 47.52 158.655 133 154 .157 2.85-1.317 2.758-3.5 3-40.608 4.503-83.456-20.018-108.5-50.5-7.23-8.8-7.695-22.128-20-13.5-17.334-34.695-19.986-54.228-13-93l9-.5 9-30.5c1.577-.666 2.991-2.235 5-3-3.539 11.439-8.656 22.128-11 34"/><path fill="#4ecbe6" d="M373 494c1.592-8.834 4.213-17.236 6-26 3.984-1.673 8.019-3.319 12-5l-9 30.5z"/><path fill="#1ca4c7" d="M373 494c-6.986 38.772-4.334 58.305 13 93 1.806 3.615 5.154 12.14 7 15-32.707-32.719-33.64-83.509-23-126 .699-2.791 1.596-3.692 2-5 2.411-.793 4.681-2.026 7-3-1.787 8.764-4.408 17.166-6 26"/><path fill="#8399a0" d="M725 521c-7.498 14.367-17.164 26.497-27 39-6.081-6.512-13.688-14.754-18-22.5-7.072-12.705-11.088-30.453-17-42-1.306-2.552-5.716-8.894-9-9.5-.111-.626.121-1.379 0-2-.888-4.554-2.632-9.531-4-14 25.217 14.732 48.79 38.285 75 51"/><path fill="#12b8e1" d="M649 482c1.047 1.663 1.376 3.219 2 5 .642 1.832.659 5.101 1 7-1.545.075-.978 1.85-1 3-6.537-5.66-8.831-18.214-16-22-.339-1.153-2.384-3.223 0-4 3.246 2.21 12.171 8.096 14 11"/><path fill="#c9dce2" d="M366 473c-.335 1.032-.684 1.903-1 3-15.158 52.621-.641 103.128 36 142 15.917 16.886 35.366 32.936 57.5 41 8.583 3.127 19.241 3.524 26.5 8-41.15-4.412-80.512-18.355-117-37-7.708-9.164-20.175-14.896-29.5-23-24.249-21.074-45.228-50.861-58.5-80 3.872-1.612 8.29-3.143 12-5 18.868 36.691 47.653 68.371 83.5 89-24.619-35.287-35.803-82.511-31.5-125 7.14-4.79 13.823-9.944 22-13"/><path fill="#075877" d="M370 476c-10.64 42.491-9.707 93.281 23 126 2.571 3.984 6.853 9.503 10 13l-2 3c-36.641-38.872-51.158-89.379-36-142l3.5-3c.853.274-2.261 3.537 1.5 3"/><path fill="#326074" d="M847 473c2.386 11.391 4.807 23.425 6 35 3.592 34.843 1.273 71.426-4 106-26.294-3.854-51.961-11.413-77-20l1-56c2.619.626 30.947 7.085 31 4.5-11.816-2.241-23.208-6.22-34-11.5l-2-12c20.627 2.104 40.758-2.505 59-12.5-26.755 5.859-52.939 1.146-77-11 20.164 1.18 38.604-8.577 54-20.5z"/><path fill="#017798" d="M651 497c-.925 48.782-4.056 82.478-39 120-14.213 15.261-33.638 28.212-52.5 37-1.053 1.006.575.624 1.5 2-8.224 4.195-6.995-.109-7.5 0-.591.127-5.965 3.658-8 4-1.335.225-1.622-1.285-3.5-1l-4-10.5c1.279-1.741 20.843-2.63 18-8.5 67.49-25.178 98.962-97.19 79-165 7.169 3.786 9.463 16.34 16 22"/><path fill="#0c5e7a" d="M654 486c7.266 40.866.773 78.417-22 113 2.179-8.608 8.955-17.145 12-25.5 8.829-24.225 12.588-53.979 8-79.5-.341-1.899-.358-5.168-1-7l3-3c.121.621-.111 1.374 0 2"/><path fill="#f2f6f8" d="M292 522c18.675-9.345 34.689-24.385 52-36-4.303 42.489 6.881 89.713 31.5 125-35.847-20.629-64.632-52.309-83.5-89"/><path fill="#dae3e5" d="M698 560c-.199.253.198 1.753 0 2-28.451 35.544-73.398 64.46-114 84 8.442-5.244 13.611-9.479 21-16 10.613-9.367 19.211-19.171 27-31 22.773-34.583 29.266-72.134 22-113 3.284.606 7.694 6.948 9 9.5 5.912 11.547 9.928 29.295 17 42 4.312 7.746 11.919 15.988 18 22.5"/><path fill="#007398" d="M436 487c-25.355 53.306 11.426 113.741 70 116-1.063 3.602 6.067 3.817 9 4-56.884 2.777-100.266-47.162-89-103 1.003-4.97 2.229-8.352 4-13z"/><path fill="#05617b" d="M102.5 488c-3.187 32.391-8.64 64.742-6.5 97.5 1.022 15.643 6.199 31.113 8 46 .262 2.167 1.467 6.061-.5 7.5-18.153-47.788-12.205-102.275-1-151"/><path fill="#535350" d="m293.5 490-18 20c-18.233 6.448-38.534 9.592-57.5 3.5 9.151-3.481 19.169-2.949 28.5-5.5 16.066-4.392 30.94-13.408 47-18"/><path fill="#fefefe" d="M597 528c-1.784-.071-5.754 1.981-7 2-1.223.019-9.563-2.175-11-3-11.891-6.824-9.058-28.792 4-33 14.468-4.663 24.976 10.222 22 23.5-.938 4.183-6.613 7.362-8 10.5"/><path fill="#2a2422" d="m727.5 493 76.5 20.5c-15.893 3.748-35.54 5.228-51.5.5-11.059-3.276-15.678-14.135-25-21"/><path fill="#158199" d="M924.5 493c5.882 12.703 6.563 31.424 6.5 45.5-.115 25.715-4.844 56.569-10.5 81.5 5.374-42.158 9.311-84.49 4-127"/><path fill="#c5edf8" d="M632 599c-7.789 11.829-16.387 21.633-27 31l-7 3.5 14-16.5c34.944-37.522 38.075-71.218 39-120 .022-1.15-.545-2.925 1-3 4.588 25.521.829 55.275-8 79.5-3.045 8.355-9.821 16.892-12 25.5"/><path fill="#d2dfe4" d="M193 507c1.26 2.423 2.938 1.935 5 3-2.859 5.326-15.472-2.224-5-3"/><path fill="#fcfdfd" d="M558.5 507c9.058-1.409 13.126 12.574 5 15-13.003 3.882-13.922-13.612-5-15"/><path fill="#5195af" d="M865 554c-.626 20.406-3.673 42.083-8 62l-8-1c.051-.325-.05-.674 0-1 5.273-34.574 7.592-71.157 4-106l9 .5z"/><path fill="#d8edf3" d="M222 541c-5.844 1.042-11.173 2.897-17 4-.439-4.296.529-27.177 0-28.5-.89-2.227-7.182-1.825-6-6.5 22.794 10.707 51.457 11.856 75 3.5-13.469 15.27-33.07 22.053-52 27.5"/><path fill="#558395" d="m768 519 2 12c-2.719-1.331-27.067-14.377-22.5-17 6.457 3.203 13.412 4.277 20.5 5"/><path fill="#5b727c" d="M740 527c-8.137 12.052-15.395 25.33-24 37-.776 1.053-3.957 3.638-5 5l-13-7c.198-.247-.199-1.747 0-2 9.836-12.503 19.502-24.633 27-39 4.154 2.015 10.917 3.226 15 6"/><path fill="#163545" d="M747 529c-7.43 13.283-16.171 25.64-25 38l-6-3c8.605-11.67 15.863-24.948 24-37 .687-1.017 1.681-2.582 3-3 1.041.883 3.005 4.231 4 5"/><path fill="#95bdcd" d="M368 630c-16.85-8.61-29.695-14.907-44-28-1.107-1.013-2.949-1.953-4-3-17.474-17.396-34.259-48.452-47-70 2.97.635 4.622-1.01 7-2 13.272 29.139 34.251 58.926 58.5 80 9.325 8.104 21.792 13.836 29.5 23"/><path fill="url(#e)" d="M273 529c12.741 21.548 29.526 52.604 47 70-5.319.467-1.633 4.108 0 6.5 31.175 45.659 129.055 76.188 182 77.5 93.561 2.319 166.703-33.596 221-108 15.89 5.422 31.609 13.646 47 19-27.865 143.991-165.605 238.225-309.5 231-113.462-5.697-226.285-83.192-273-186l-2.5 4c-9.246-30.27-16.294-61.77-18-93.5l19-1.5c3.624 32.428 17.099 66.524 30.5 96 7.402-20.208-2.423-36.846-5.5-56.5-2.188-13.98-4.564-28.458-6-42.5 5.827-1.103 11.156-2.958 17-4 13.661-2.435 38.932-4.699 50-13 1.142-.164.847.741 1 1m-30.5 44c-8.805.182-18.777 4.3-18.5 14.5.072 2.656 15.67 44.144 18 50 .847 2.13 7.986 19.862 9.5 19.5 7.487-14.484 15.116-24.105 13.5-41.5-.416-4.472-12.73-39.112-15-41-2.655-2.209-4.364-1.565-7.5-1.5M449 728c-2.663 1.474-10.297 5.563-13 5-1.318-.275-2.048.025-3-1.5l1.5-7.5c-6.321 2.006-3.434 12.269.5 15.5.683.561 15.657 1.719 17.5 2.5 3.158 1.337 6.106 9.886 8.5 12.5 24.683 26.943 57.071 34.281 86.5 8.5 4.708-4.125 14.9-20.271 16-21 2.727-1.807 13.963-2.343 18-5 .325-.214 5.304-5.164 5.5-5.5 1.396-2.394-12.732-21.485-4-3-23.946 9.737-37.894-35.165-61.5-26.5-3.905 1.433-9.794 10.36-14 10-2.462-.211-9.072-8.125-11-9-17.378-7.885-33.771 17.401-47.5 25m137.5 7-8.5 6.5c.778 2.354 9.995-3.378 8.5-6.5" style="fill:url(#e)"/>/&gt;<path fill="#00364f" d="M597 528c-4.066 9.199-4.378 22.244-10 33.5-11.993 24.012-44.202 47.237-72 45.5-2.933-.183-10.063-.398-9-4 44.059 1.699 81.077-28.597 84-73 1.246-.019 5.216-2.071 7-2"/><path fill="#659bb2" d="M750 531c-7.446 15.31-16.996 30.292-27 44-1.346-.459-2.654-1.506-4-2 .707-.956 1.967-4.554 3-6 8.829-12.36 17.57-24.717 25-38 .664.513 2.298 1.597 3 2"/><path fill="#4a788c" d="m773 538-1 56c-.5-.172-1.504.173-2 0-15.391-5.354-31.11-13.578-47-19 10.004-13.708 19.554-28.69 27-44 5.371 3.087 16.689 5.492 23 7"/><path fill="#0b82a2" d="m915 582-36 13c2.032-16.382 3.038-32.455 3-49 10.566 1.22 23.162.876 33-3 .108 12.995 1.659 25.897 0 39"/><path fill="#0e7694" d="m112 545-1 44c-5.632-7.127-.272-8.403-5-15-.298-10.148.546-19.933 1-30 1.79-.203 3.322.606 5 1"/><path fill="#098aae" d="M124 547c4.929.582 10.015 1.093 15 1-.405 16.521 1.504 33.01 2 49.5-9.044.949-24.804-1.924-30-8.5l1-44c3.974.933 7.945 1.522 12 2"/><path fill="#aac7d1" d="M711 569c-45.575 59.528-81.214 80.97-156 94l-1-2c2.407-.725 4.722-1.962 7-3 1.618-.737 2.071-.512 4-2 1.314.297 1.965-.518 3-1 4.816-2.245 11.394-6.139 16-9 40.602-19.54 85.549-48.456 114-84z"/><path fill="#164c5f" d="M722 567c-1.033 1.446-2.293 5.044-3 6-45.548 61.566-90.861 89.282-167 101-3.794-2.116-3.573-5.559-4-10 2.284-.351 4.743-.607 7-1 74.786-13.03 110.425-34.472 156-94 1.043-1.362 4.224-3.947 5-5z"/><path fill="#fefeff" d="M242.5 573c3.136-.065 4.845-.709 7.5 1.5 2.27 1.888 14.584 36.528 15 41 1.616 17.395-6.013 27.016-13.5 41.5-1.514.362-8.653-17.37-9.5-19.5-2.33-5.856-17.928-47.344-18-50-.277-10.2 9.695-14.318 18.5-14.5"/><path fill="#a9d1e0" d="M723 575c-54.297 74.404-127.439 110.319-221 108-.242-6.848 11.794.278 14-5 11.837-.353 24.297-2.199 36-4 76.139-11.718 121.452-39.434 167-101 1.346.494 2.654 1.541 4 2"/><path fill="#045b74" d="m915 582-12 79c-1.933 2.06-4.773 2.666-7 4l12-56.5-31 2.5c.948-5.09 1.356-10.81 2-16z"/><path fill="#32bbde" d="M518 648c11.771-.641 26.935-3.872 38-8 2.843 5.87-16.721 6.759-18 8.5l4 10.5c-51.732 7.856-102.698-3.663-139-44-3.147-3.497-7.429-9.016-10-13-1.846-2.86-5.194-11.385-7-15 12.305-8.628 12.77 4.7 20 13.5 25.044 30.482 67.892 55.003 108.5 50.5 2.183-.242 3.657-.15 3.5-3"/><path fill="url(#f)" d="M772 594c25.039 8.587 50.706 16.146 77 20-.05.326.051.675 0 1-7.161 45.542-24.237 86.971-50 125-22.023 32.507-54.215 63.729-88 84-129.445 77.669-279.972 76.193-405.5-9-7.573-5.14-14.437-11.922-22-17-1.045-.702-4.683-3.365-5.5-1-46.155-58.468-69.686-77.67-93-154l2.5-4c46.715 102.808 159.538 180.303 273 186 143.895 7.225 281.635-87.009 309.5-231 .496.173 1.5-.172 2 0m61.5 43c-12.887 49.699-49.043 90.908-86 125-100.562 92.765-248.379 128.768-376.5 71.5 80.706 41.108 178.181 46.119 262.5 12.5 77.612-30.945 172.845-107.92 197.5-190.5 1.355-4.538 4.684-14.6 2.5-18.5m-481 186c2.524 3.757 8.942 6.962 13.5 7.5z" style="fill:url(#f)"/>/&gt;<path fill="#cae3ec" d="M320 599c1.051 1.047 2.893 1.987 4 3 47.652 50.843 122.615 78.07 192 76-2.206 5.278-14.242-1.848-14 5-52.945-1.312-150.825-31.841-182-77.5-1.633-2.392-5.319-6.033 0-6.5"/><path fill="#a2d7e8" d="M108 604c2.181 20.707 6.552 41.312 13 61-1.929-1.39-4.522-2.064-6-4.5-5.972-9.841-8.722-43.853-10-56.5l3-2c.064.65-.068 1.351 0 2"/><path fill="#064b60" d="M160 680c-11.894-5.263-28.426-7.38-39-15-6.448-19.688-10.819-40.293-13-61 3.369-4.179 2.855 8.071 3.5 9 1.663 2.396 29.147 9.724 33.5 11.5 4.487 18.417 8.599 37.682 15 55.5"/><path fill="#27657b" d="M368 630c36.488 18.645 75.85 32.588 117 37 10.572 1.133 24.359 1.47 35 1 10.21-.451 18.224-2.498 28-4 .427 4.441.206 7.884 4 10-11.703 1.801-24.163 3.647-36 4-69.385 2.07-144.348-25.157-192-76 14.305 13.093 27.15 19.39 44 28"/><path fill="#07485c" d="M896 665c-6.288 3.767-16.015 7.902-23 10-1.776.533-10.622 3.678-11.5 3 3.893-15.828 6.035-33.26 9.5-49.5.146-.686 3.634-.256 4-2 .924-4.406 1.104-10.689 2-15.5l31-2.5z"/><path fill="#066c8d" d="M542 659c1.878-.285 2.165 1.225 3.5 1 2.035-.342 7.409-3.873 8-4 .505-.109-.724 4.195 7.5 0 .718 1.069 1.238-.127 0 2-2.278 1.038-4.593 2.275-7 3-11.04 3.326-23.064 3.369-34 7-10.641.47-24.428.133-35-1-7.259-4.476-17.917-4.873-26.5-8-22.134-8.064-41.583-24.114-57.5-41l2-3c36.302 40.337 87.268 51.856 139 44"/><path fill="#579db7" d="M857 616c-9.587 44.123-30.559 88.362-58 124 25.763-38.029 42.839-79.458 50-125z"/><path fill="#8ee2f0" d="M605 630c-7.389 6.521-12.558 10.756-21 16-4.606 2.861-11.184 6.755-16 9-1.215-2.914-2.538.644-3 1-1.929 1.488-2.382 1.263-4 2 1.238-2.127.718-.931 0-2-.925-1.376-2.553-.994-1.5-2 18.862-8.788 38.287-21.739 52.5-37l-14 16.5z"/><path fill="#63a1b7" d="M833.5 637c2.184 3.9-1.145 13.962-2.5 18.5-24.655 82.58-119.888 159.555-197.5 190.5-84.319 33.619-181.794 28.608-262.5-12.5 128.121 57.268 275.938 21.265 376.5-71.5 36.957-34.092 73.113-75.301 86-125"/><path fill="#1f86a1" d="M568 655c-1.035.482-1.686 1.297-3 1 .462-.356 1.785-3.914 3-1"/><path fill="#5691a5" d="m554 661 1 2c-2.257.393-4.716.649-7 1-9.776 1.502-17.79 3.549-28 4 10.936-3.631 22.96-3.674 34-7"/><path fill="#7a0816" d="M436 733c-2.901 7.003 10.741 3.87 14.5 4 .761.026.24 1.975 1 2 1.519.049 4.138-2.979 5-3 3.954-.095 7.883 2.726 14 2 7.544-.895 19.473-8.714 26.5-3-10.873.087-14.658 2.76-23.5 4-3.445.483-16.487-1.41-17.5.5 10.41 8.887 26.936-3.471 36.5-3.5 4.421-.013 10.329 3.693 14 4 8.332.696 14.716-3.449 22-3 8.942.551 17.37 7.226 29 5 3.203-.613 5.169-3.922 5.5-4 3.002-.705 1.774-1.855 2.5-2 3.112-.622 13.771 3.665 15.5-3.5-7.456.414-12.547-2.583-19-5.5-12.069-7.454-25.897-27.394-41.5-20-1.996.946-6.979 7.543-10 8-8.63 1.307-13.435-11.553-27-9-5.618 1.057-12.217 9.056-16.5 12-.884.448-1.923.82-2 2-4.439 3.344-9.855 7.958-16 8 13.729-7.599 30.122-32.885 47.5-25 1.928.875 8.538 8.789 11 9 4.206.36 10.095-8.567 14-10 23.606-8.665 37.554 36.237 61.5 26.5-8.732-18.485 5.396.606 4 3-.196.336-5.175 5.286-5.5 5.5-4.037 2.657-15.273 3.193-18 5-1.1.729-11.292 16.875-16 21-29.429 25.781-61.817 18.443-86.5-8.5-2.394-2.614-5.342-11.163-8.5-12.5-1.843-.781-16.817-1.939-17.5-2.5-3.934-3.231-6.821-13.494-.5-15.5l-1.5 7.5c.952 1.525 1.682 1.225 3 1.5m114 19c-25.367 6.093-27.422 15.469-60.5 10-5.609-.927-18.023-8.361-19-8-6.219 2.299 14.244 11.569 15.5 12l8.5 6c21.607 6.463 48.239-3.317 59-22-1.196-.587-2.088 1.661-3.5 2"/><path fill="#d4dee0" d="M562 727c-12.158-5.496-24.08-20.615-37.5-18-4.052.79-12.367 9.802-18 9-1.074-.153-10.784-8.397-14-9-10.322-1.937-17.063 4.72-25.5 9 4.283-2.944 10.882-10.943 16.5-12 13.565-2.553 18.37 10.307 27 9 3.021-.457 8.004-7.054 10-8 15.603-7.394 29.431 12.546 41.5 20"/><path fill="#920919" d="M562 727c6.453 2.917 11.544 5.914 19 5.5-1.729 7.165-12.388 2.878-15.5 3.5-.726.145.502 1.295-2.5 2-16.174 2.488-29.039-2.849-45.5-3-6.528-.06-14.081-.051-20.5 0-7.027-5.714-18.956 2.105-26.5 3-6.117.726-10.046-2.095-14-2-.862.021-3.481 3.049-5 3-.76-.025-.239-1.974-1-2-3.759-.13-17.401 3.003-14.5-4 2.703.563 10.337-3.526 13-5 6.145-.042 11.561-4.656 16-8 1.922-1.448 1.883-1.92 2-2 8.437-4.28 15.178-10.937 25.5-9 3.216.603 12.926 8.847 14 9 5.633.802 13.948-8.21 18-9 13.42-2.615 25.342 12.504 37.5 18"/><path fill="#d4dee0" d="M465 720c.077-1.18 1.116-1.552 2-2-.117.08-.078.552-2 2"/><path fill="#095c7a" d="M834 736c-4.9 17.292-37.105 55.75-50 70l-5.5-3c-11.714 12.7-24.953 23.372-38.5 34l-8-11c36.241-26.565 67.004-61.188 92.5-98 1.626-.333 7.55 6.412 10 3 .561.226-.342 4.442-.5 5"/><path fill="#8e3e3a" d="M497 735c6.419-.051 13.972-.06 20.5 0 16.461.151 29.326 5.488 45.5 3-.331.078-2.297 3.387-5.5 4-11.63 2.226-20.058-4.449-29-5-7.284-.449-13.668 3.696-22 3-3.671-.307-9.579-4.013-14-4-9.564.029-26.09 12.387-36.5 3.5 1.013-1.91 14.055-.017 17.5-.5 8.842-1.24 12.627-3.913 23.5-4"/><path fill="#453840" d="M586.5 735c1.495 3.122-7.722 8.854-8.5 6.5z"/><path fill="#a0a09d" d="M486 766c23.055 7.907 47.165 3.908 64-14 1.412-.339 2.304-2.587 3.5-2-10.761 18.683-37.393 28.463-59 22z"/><path fill="#921522" d="M550 752c-16.835 17.908-40.945 21.907-64 14-1.256-.431-21.719-9.701-15.5-12 .977-.361 13.391 7.073 19 8 33.078 5.469 35.133-3.907 60.5-10"/><path fill="#8fbbcc" d="M711 824c-130.902 91.295-309.548 80.428-431-22-.122-.804-1.819-4.771-2-5 .817-2.365 4.455.298 5.5 1 7.563 5.078 14.427 11.86 22 17 125.528 85.193 276.055 86.669 405.5 9"/><path fill="#167392" d="M784 806c-15.417 17.036-30.725 31.013-49 45l-2-8c2.546-1.886 4.795-4.27 7-6 13.547-10.628 26.786-21.3 38.5-34z"/><path fill="#177694" d="M330 869c5.268 2.868 10.621 6.403 16 9-3.346 3.359-4.346 5.484-3 10-17.15-8.871-69.84-41.885-79-57-2.117-3.493-4.904-4.061-1.5-9 20.251 18.696 43.333 33.841 67.5 47"/><path fill="#87b2c5" d="m352.5 823 13.5 7.5c-4.558-.538-10.976-3.743-13.5-7.5"/><path fill="#167492" d="m732 826 8 11c-2.205 1.73-4.454 4.114-7 6-112.635 83.458-260.656 96-387 35-5.379-2.597-10.732-6.132-16-9l9-16c124.927 69.692 278.431 56.98 393-27"/><path fill="#2092b2" d="M735 851c-114.541 87.662-262.58 103.941-392 37-1.346-4.516-.346-6.641 3-10 126.344 61 274.365 48.458 387-35z"/></svg>