<svg xmlns="http://www.w3.org/2000/svg" width="1024" height="1024"><defs><linearGradient id="a" x1="672.261" x2="341.945" y1="184.812" y2="206.076" gradientUnits="userSpaceOnUse"><stop offset="0%" style="stop-color:#0a6991"/><stop offset="84.592%" style="stop-color:#4ed1ea"/></linearGradient></defs><defs><linearGradient id="b" x1="415.982" x2="512.802" y1="239.566" y2="433.769" gradientUnits="userSpaceOnUse"><stop offset="0%" style="stop-color:#eaf8fb"/><stop offset="100%" style="stop-color:#a1c2cc"/></linearGradient></defs><defs><linearGradient id="c" x1="405.451" x2="615.575" y1="323.005" y2="546.828" gradientUnits="userSpaceOnUse"><stop offset="0%" style="stop-color:#c9eef6"/><stop offset="20.195%" style="stop-color:#39d5ed"/><stop offset="45.277%" style="stop-color:#14b5dd"/><stop offset="100%" style="stop-color:#006496"/></linearGradient></defs><defs><linearGradient id="d" x1="767.334" x2="845.377" y1="477.928" y2="526.644" gradientUnits="userSpaceOnUse"><stop offset="0%" style="stop-color:#07d7f0"/><stop offset="100%" style="stop-color:#0b6786"/></linearGradient></defs><defs><linearGradient id="e" x1="837.53" x2="827.004" y1="428.113" y2="532.584" gradientUnits="userSpaceOnUse"><stop offset="0%" style="stop-color:#e1f3f6"/><stop offset="100%" style="stop-color:#8ebcc7"/></linearGradient></defs><defs><linearGradient id="f" x1="844.91" x2="806.915" y1="500.907" y2="560.885" gradientUnits="userSpaceOnUse"><stop offset="0%" style="stop-color:#64909c"/><stop offset="100%" style="stop-color:#387181"/></linearGradient></defs><defs><linearGradient id="g" x1="775.728" x2="576.114" y1="672.256" y2="827.701" gradientUnits="userSpaceOnUse"><stop offset="0%" style="stop-color:#113145"/><stop offset="100%" style="stop-color:#435e70"/></linearGradient></defs><path fill="#022543" d="M807 369c-.321-.047-.671.016-1 0-7.795-5.216-18.591-4.575-26 1 1.046-.018 12.274-10.079 19-6.5-21.518-25.775-42.309-48.056-69-68.5-30.357-23.253-59.046-39.108-95-52-136.571-48.972-302.481-12.33-393 104-4.284 5.505-8.758 10.941-13 16.5.219 1.762 8.214 2.055 11 3.5-3.787 2.171-2.041 2.737-3 6-3.197-1.467-11.279-2.903-14.5-2-4.881 1.368 5.917 10.117 8.5 14.5 6.459 10.961 11.582 27.129 15 39.5 4.243 15.357 7.066 31.164 9 47 4.989 40.857 5.755 83.016-2 123.5-1.487 7.763-11.934 24.989-.5 25.5 7.851.351 12.658-18.151 14.5-25l3 4c-.256.776.264 2.259 0 3-2.169 6.098-7.631 15.986-12 21-.743-.369-3.027.344-4 0-14.127-4.99-35.788-.927-51.5-4-8.635-19.051-26.298-29.584-35.5-47.5-21.161-41.199-25.714-131.919 3-170 8.959-11.882 22.449-14.34 34-22.5-.413 4.44 6.528 3.194 9.5 5 23.329 14.178 32.783 90.818 33.5 116.5.703 25.175-1.694 50.723-8 75 .049-7.329 1.082-15.247 2-22.5 6.22-49.122 4.846-94.243-13-141-12.053-31.577-18.446-35.574-50-16.5 5.966 5.477 11.678 11.059 16 18 17.744 28.497 24.717 92.639 21 125.5-1.281 11.326-9.763 38.909-16 48.5-1.511 2.324-8.86 7.414-9 8-.307 1.286 12.118 20.888 13.5 21.5 1.138.504 4.798-.379 6.5 0 5.572 1.241 27.97 4.58 31 .5 12.626-17.001 13.383-101.692 12-123-2.619-40.348-10.085-94.593-37-125.5 8.537-7.767 4.87-11.12 8-21.5 7.761-25.737 14.46-51.678 26-76 15.106-31.838 36.076-54.848 59-81-25.315-27.048-31.74-72.472-6.5-101.5-4.266 20.784-2.18 43.544 18 55 28.834 16.368 72.258-8.538 100-17C570.132 82.355 744.273 150.757 791 306.5c6.215 20.714 6.357 43.766 16 62.5M296 157c4.816 16.038 15.536 29.17 27 41-.812-.491-6.783-3.123-7.5-3-1.359.233-17.247 17.027-19.5 19.5-17.966 19.715-37.19 48.238-47 73-1.473 3.717-22.308 68.18-19 67 1.432-.511 14.669-20.742 18-24.5 6.018-6.788 25.141-22.494 28-28 67.226-56.444 156.413-89.937 245-87 65.057 2.157 125.577 19.66 181 53 7.459 4.487 14.885 8.979 22 14 26.44 18.657 47.526 40.557 69 64.5C778.362 229.317 681.251 142.275 567 124c-24.314-3.889-50.431-4.389-75-3-37.718 2.133-72.691 10.855-106 29-23.518 2.888-41.743 13.376-65 2-19.945-9.756-22.549-28.823-23.5-49-7.091 18.107-7.023 35.606-1.5 54M174 578c8.431 13.179 14.738 23.846 26 4.5 17.93-30.802 14.24-95.591 6-129.5-2.47-10.164-17.405-51.331-28.5-53-6.559-.987-17.943 30.542-19.5 36.5-10.929 41.828-7.723 104.416 16 141.5"/><path fill="#679db5" d="M321 152c7.027 10.261 18.105 16.416 30 19.5-6.005 10.476-22.714 3.764-30.5-1.5-9.222-6.234-19.255-23.961-24-34 .3 21.872 18.933 41.662 40.5 44.5-20.084 13.48-32.746-14.268-39.5-29.5l-1.5 6c-5.523-18.394-5.591-35.893 1.5-54 .951 20.177 3.555 39.244 23.5 49"/><path fill="#27c3e1" d="M567 124c-.795 3.292 2.161 3.302 4.5 4 48.067 14.336 78.797 32.929 110.5 72l-9 7c-45.093-64.103-98.922-79.956-172-81-1.057-.015-4.456-.975-7-1l-2-4c24.569-1.389 50.686-.889 75 3"/><path fill="#219dc8" d="m492 121 2 4c-58.249-.583-129.12 34.485-168 77-.087-.624.155-1.778 0-2 15.205-20.584 37.575-37.784 60-50 33.309-18.145 68.282-26.867 106-29"/><path fill="url(#a)" d="M673 207c4.865 6.916 31.367 52.778 30 58-66.349-49.849-134.896-63.407-217-59-66.674 3.579-101.278 16.517-157.5 50-1.869 1.113-3.342 2.747-5.5 1 7.586-14.498 9.586-31.452 20-47.5 21.054-32.443 75.7-63.408 112.5-73.5 14.981-4.108 31.193-4.728 45.5-10 73.078 1.044 126.907 16.897 172 81m-178.5-73c-5.916 1.936-3.53 9.297 4 8 7.411-1.277 7.423-11.739-4-8m-14 4c-.316.109-1.977 1.499-1 2l4.5-.5c.427-1.964-2.581-1.817-3.5-1.5m0 4c-5.341.02-38.228 3.147-36.5 10.5.469 1.994 14.174 8.049 16.5 8.5 13.843 2.683 35.054-2.5 37-18-5.685.908-11.636-1.02-17-1" style="fill:url(#a)"/>/&gt;<path fill="#015f89" d="M724 282c-5.624-30.884-22.568-58.052-42-82-31.703-39.071-62.433-57.664-110.5-72-2.339-.698-5.295-.708-4.5-4 114.251 18.275 211.362 105.317 226 222.5-21.474-23.943-42.56-45.843-69-64.5"/><path fill="#fdfefe" d="M494 125c2.544.025 5.943.985 7 1-14.307 5.272-30.519 5.892-45.5 10-36.8 10.092-91.446 41.057-112.5 73.5-10.414 16.048-12.414 33.002-20 47.5-6.284 12.01-35.667 27.852-45 40 1.473-4.256 1.717-12.708 4-19 10.757-29.644 22.466-52.453 44-76 38.88-42.515 109.751-77.583 168-77"/><path fill="#ace9f4" d="M494.5 134c11.423-3.739 11.411 6.723 4 8-7.53 1.297-9.916-6.064-4-8"/><path fill="#3c7e99" d="M321 152c23.257 11.376 41.482.888 65-2-22.425 12.216-44.795 29.416-60 50-.123-.176-2.418-1.648-3-2-11.464-11.83-22.184-24.962-27-41l1.5-6c6.754 15.232 19.416 42.98 39.5 29.5-21.567-2.838-40.2-22.628-40.5-44.5 4.745 10.039 14.778 27.766 24 34 7.786 5.264 24.495 11.976 30.5 1.5-11.895-3.084-22.973-9.239-30-19.5"/><path fill="#ddfaf9" d="M480.5 138c.919-.317 3.927-.464 3.5 1.5l-4.5.5c-.977-.501.684-1.891 1-2"/><path fill="#94e2f0" d="M480.5 142c5.364-.02 11.315 1.908 17 1-1.946 15.5-23.157 20.683-37 18-2.326-.451-16.031-6.506-16.5-8.5-1.728-7.353 31.159-10.48 36.5-10.5"/><path fill="#046fa1" d="M323 198c.582.352 2.877 1.824 3 2 .155.222-.087 1.376 0 2-21.534 23.547-33.243 46.356-44 76-14.445 13.719-28.341 32.38-34 52-3.331 3.758-16.568 23.989-18 24.5-3.308 1.18 17.527-63.283 19-67 9.81-24.762 29.034-53.285 47-73 2.253-2.473 18.141-19.267 19.5-19.5.717-.123 6.688 2.509 7.5 3"/><path fill="#18a6ce" d="M724 282c-7.115-5.021-14.541-9.513-22-14-.421-1.423.712-1.9 1-3 1.367-5.222-25.135-51.084-30-58l9-7c19.432 23.948 36.376 51.116 42 82"/><path fill="#54c2d7" d="M703 265c-.288 1.1-1.421 1.577-1 3-55.423-33.34-115.943-50.843-181-53-6.174-2.613-17.738-2.893-24.5-3-4.048-.064-12.164 6.9-10.5-6 82.104-4.407 150.651 9.151 217 59"/><path fill="#92e6f3" d="M486 206c-1.664 12.9 6.452 5.936 10.5 6 6.762.107 18.326.387 24.5 3-88.587-2.937-177.774 30.556-245 87 .41-.789 1.661-4.022 2-5 9.333-12.148 38.716-27.99 45-40 2.158 1.747 3.631.113 5.5-1 56.222-33.483 90.826-46.421 157.5-50"/><path fill="url(#b)" d="M635 243c-3.252 2.555-2.368 2.108.5 4 16.334 10.778 33.917 16.883 47.5 33 13.689 16.243 41.961 109.516 43 131.5.511 10.806-18.363 100.743-23 111-.902 1.995-4.762 8.485-7 9.5 3.425-9.011 9.601-34.224 10-43.5.069-1.615-.476-3.643-2-4.5 14.195-60.908-.611-121.137-40-169-15.612-18.971-32.611-33.79-54-46-147.196-84.026-324.166 41.405-292 208-2.655-.062-5.198-6.505-6-8.5-16.237-40.395-28.308-85.703-33-129-.133-1.23-.793-8.025-3-7.5 3.584-6.087 4.812-13.61 1.5-21L242 347c90.519-116.33 256.429-152.972 393-104" style="fill:url(#b)"/>/&gt;<path fill="#35849f" d="m610 269-2 1c-4.807-2.753-9.989-4.698-15-7-168.504-77.424-341.898 101.901-253 267 1.497 2.781 2.29 6.189 4 9l-1 1c-12.659-21.114-20.27-38.5-25-63-32.166-166.595 144.804-292.026 292-208"/><path fill="#6fa8b7" d="m730 295-1 18c-13.748-13.08-28.487-25.415-43.5-37l-2.5 4c-13.583-16.117-31.166-22.222-47.5-33-2.868-1.892-3.752-1.445-.5-4 35.954 12.892 64.643 28.747 95 52"/><path fill="#78c2d0" d="m593 263-3 10c-21.667-10.175-49.037-17.292-73-18-85.661-2.532-174.62 58.045-183 147-12.619 37.788-2.628 88.611 16 123-2.358-1.225-7.537 2.774-10 5-88.898-165.099 84.496-344.424 253-267"/><path fill="#acf3fa" d="m517 255 4.5 5c-7.166 1.215-18.662-2.543-24.5 2-74.986 5.626-139.529 59.656-159 132-2.729.146-3.094 5.288-4 8 8.38-88.955 97.339-149.532 183-147"/><path fill="#7aeff8" d="M590 273c19.201 9.017 37.274 22.79 52 38 167.945 173.476-87.944 417.902-257 259-12.265-11.528-26.985-30.203-35-45-18.628-34.389-28.619-85.212-16-123 .906-2.712 1.271-7.854 4-8-45.152 167.756 156.126 289.078 288.5 180 100.93-83.168 79.051-238.426-37.5-295-15.2-7.378-37.985-15.634-55-16-12.174-3.146-24.614-1.929-37-1 5.838-4.543 17.334-.785 24.5-2l-4.5-5c23.963.708 51.333 7.825 73 18"/><path fill="#00264a" d="M534 263c-.388-.008-7.112 2.011-7.5 2-5.696-.157-26.054-2.757-29-2-1.109.285-.236 3.239-4 4-13.446 2.718-22.985 3.453-36.5 8-110.886 37.303-160.62 174.33-86 269 15.234 19.327 35.131 35.78 57 47 15.564 7.985 50.975 21.307 68 20 10.817-.731 22.833.989 33.5 0 170.883-15.84 218.594-251.398 57.5-328l2-4c116.551 56.574 138.43 211.832 37.5 295C494.126 683.078 292.848 561.756 338 394c19.471-72.344 84.014-126.374 159-132 12.386-.929 24.826-2.146 37 1"/><path fill="#013a5f" d="M534 263c17.015.366 39.8 8.622 55 16l-2 4c-15.43-7.337-32.382-13.08-49.5-14l42.5 17c-39.495-17.739-83.7-20.928-125-7 1.339-.858 3.529-2.924 2-4 13.515-4.547 23.054-5.282 36.5-8 3.764-.761 2.891-3.715 4-4 2.946-.757 23.304 1.843 29 2 .388.011 7.112-2.008 7.5-2"/><path fill="#5fa7b7" d="M608 270c15.299 8.761 29.661 20.534 42 33l-8 8c-14.726-15.21-32.799-28.983-52-38l3-10c5.011 2.302 10.193 4.247 15 7"/><path fill="#024b6f" d="M587 283c161.094 76.602 113.383 312.16-57.5 328-10.667.989-22.683-.731-33.5 0 8.474-.65 6.765-2.562 8-10 178.095 8.212 236.75-242.8 76-315l-42.5-17c17.118.92 34.07 6.663 49.5 14"/><path fill="#166481" d="M610 269c21.389 12.21 38.388 27.029 54 46l-1 2c-3.964-4.879-8.574-9.528-13-14-12.339-12.466-26.701-24.239-42-33z"/><path fill="url(#c)" d="M580 286c160.75 72.2 102.095 323.212-76 315-24.988-1.152-50.082-7.72-72-20-17.079-9.568-35.722-25.784-48-41-57.095-70.759-47.145-183.68 27.5-238 14.251-10.37 30.34-14.568 43.5-23 41.3-13.928 85.505-10.739 125 7m-98 31a132 132 0 0 0-25 8c-1.817.79-3.362 2.177-5 3-41.838 21.028-70.832 62.92-71 110.5 3.995 7.538 4.762-18.253 5-19.5 2.45.477 2.896 9.602 3 11.5.546 9.927-1.385 20.267-1 29.5.542 12.991 4.639 13.442 7 21.5.769 2.626-2.511 3.463-2 5 11.58 34.801 46.595 63.89 81.5 73.5C598.986 594.273 693.923 448.918 605 353c-6.66-29.371-39.201-44.535-67-36-17.775-6.143-37.999-3.835-56 0" style="fill:url(#c)"/>/&gt;<path fill="#0b88b3" d="M455 279c-13.16 8.432-29.249 12.63-43.5 23-74.645 54.32-84.595 167.241-27.5 238l-13 4c-74.62-94.67-24.886-231.697 86-269 1.529 1.076-.661 3.142-2 4"/><path fill="#7ba4b0" d="M729 313a593 593 0 0 1 28 28.5c3.601 3.927 21.169 28.532 23 28.5-1.466 1.103-6.549 7.991-8 10-29.323 40.59-34.769 171.841-20 219-21.021 45.957-56.227 85.16-101 109-.328.042-.671-.036-1 0-4.155.458-7.797.797-12 1 27.779-24.472 44.347-59.056 55-94 32.912 14.118 41.211-38.476 9-38-4.665-12.605 1.117-28.453-8-40 .678-1.518 1.402-3.427 2-5 2.238-1.015 6.098-7.505 7-9.5 4.637-10.257 23.511-100.194 23-111-1.039-21.984-29.311-115.257-43-131.5l2.5-4c15.013 11.585 29.752 23.92 43.5 37"/><path fill="#67a2b5" d="M282 278c-2.283 6.292-2.527 14.744-4 19-.339.978-1.59 4.211-2 5-2.859 5.506-21.982 21.212-28 28 5.659-19.62 19.555-38.281 34-52"/><path fill="#528e9d" d="M780 370c-1.831.032-19.399-24.573-23-28.5a593 593 0 0 0-28-28.5l1-18c26.691 20.444 47.482 42.725 69 68.5-6.726-3.579-17.954 6.482-19 6.5"/><path fill="#498491" d="M663 317c152.61 187.824-113.033 426.289-286 262l8-9c169.056 158.902 424.945-85.524 257-259l8-8c4.426 4.472 9.036 9.121 13 14"/><path fill="#d1edf3" d="M276 332c-6.662 11.316-24.459 24.992-30 39-.666-.584-5.079-3.522-6-4-2.786-1.445-10.781-1.738-11-3.5 4.242-5.559 8.716-10.995 13-16.5l35.5-36c3.312 7.39 2.084 14.913-1.5 21"/><path fill="#85e1ef" d="M538 317c-6.008 1.845-11.174 5.058-16 9-18.819-3.264-37.964.901-56 6-24.679 6.978-29.408 12.381-44 32-31.66 42.566-44.795 83.854-15 133l-19-37c-.385-9.233 1.546-19.573 1-29.5-.104-1.898-.55-11.023-3-11.5 3.3-17.306 11.386-35.321 20.5-47 7.115-9.117 13.327-16.211 22.5-23.5l-7.5 4.5c2.58-8.007 14.624-9.95 21-15l9.5-10c1.638-.823 3.183-2.21 5-3-.737 5.676 9.363-.366 11.5-1 .107-.032-3.036 3.714 1 2 1.026-.436-.017-2.646 1-3 3.213-1.117 12.465-.603 11.5-6 18.001-3.835 38.225-6.143 56 0"/><path fill="#fefefe" d="M605 353c.998 4.4 1.268 11.456 1 16-.878 14.88-11.006 32.143-24 40-27.583 16.677-65.965 4.426-76-27-6.776-21.221-1.378-41.808 16-56 4.826-3.942 9.992-7.155 16-9 27.799-8.535 60.34 6.629 67 36"/><path fill="#011d3c" d="M704 484c-29.709 127.482-178.098 189.517-292 125-16.013-9.07-32.478-22.589-45-36-9.785-10.48-16.701-20.826-24-33l1-1c8.293 13.631 21.432 29.013 33 40 172.967 164.289 438.61-74.176 286-262l1-2c39.389 47.863 54.195 108.092 40 169"/><path fill="#4eb8d0" d="M457 325a132 132 0 0 1 25-8c.965 5.397-8.287 4.883-11.5 6-1.017.354.026 2.564-1 3-4.036 1.714-.893-2.032-1-2-2.137.634-12.237 6.676-11.5 1"/><path fill="#267995" d="M522 326c-17.378 14.192-22.776 34.779-16 56-48.13.365-76.837 52.431-58 95-1.543 5.373-6.803 8.832-8 14.5-.628 2.974 1.121 9.512 1 10-1.904 7.694-13.128 15.259-10 23.5-9.032-7.706-17.826-17.816-24-28-29.795-49.146-16.66-90.434 15-133l44-32c18.036-5.099 37.181-9.264 56-6m-56.5 42c-5.377 1.176-6.358 10.426-2 13 12.457 7.357 15.898-16.039 2-13"/><path fill="#42aac3" d="m452 328-9.5 10c-6.376 5.05-18.42 6.993-21 15l7.5-4.5c-9.173 7.289-15.385 14.383-22.5 23.5-9.114 11.679-17.2 29.694-20.5 47-.238 1.247-1.005 27.038-5 19.5.168-47.58 29.162-89.472 71-110.5"/><path fill="#e8f5f8" d="M318 477c4.73 24.5 12.341 41.886 25 63 7.299 12.174 14.215 22.52 24 33l-25 15c-5.388-12.5-25.75-14.01-34-4l-32-9c5.64-36.777 4.492-74.055 1-111-2.744-29.028-8.01-64.211-27-88-1.182-1.481-2.628-3.796-4-5 5.541-14.008 23.338-27.684 30-39 2.207-.525 2.867 6.27 3 7.5 4.692 43.297 16.763 88.605 33 129 .802 1.995 3.345 8.438 6 8.5"/><path fill="#daf6fa" d="m466 332-44 32c14.592-19.619 19.321-25.022 44-32"/><path fill="#32d8f1" d="m388 460 19 37c6.174 10.184 14.968 20.294 24 28 27.699 23.632 63.884 34.057 100 28 18.386-3.083 34.707-10.733 50-21 7.925-5.321 12.406-9.099 19-16 3.679-3.85 5.627-5.42 9-10 7.213-9.794 12.278-19.273 16-31 11.727-36.949 5.844-76.143-19-106 .268-4.544-.002-11.6-1-16 88.923 95.918-6.014 241.273-130.5 207-34.905-9.61-69.92-38.699-81.5-73.5-.511-1.537 2.769-2.374 2-5-2.361-8.058-6.458-8.509-7-21.5"/><path fill="#afbdc2" d="M806 369c-12.351-.618-23.416 7.81-31 16.5-2.258 2.587-5.443 11.053-9 9.5 1.75-5.076 4.613-9.774 6-15 1.451-2.009 6.534-8.897 8-10 7.409-5.575 18.205-6.216 26-1"/><path fill="#89979f" d="M246 371c1.372 1.204 2.818 3.519 4 5l1 14c-2.319-4.174-9.887-15.113-14-17 .959-3.263-.787-3.829 3-6 .921.478 5.334 3.416 6 4"/><path fill="#f9fcfc" d="M465.5 368c13.898-3.039 10.457 20.357-2 13-4.358-2.574-3.377-11.824 2-13"/><path fill="#074867" d="M625 475c-1.742.428-1.578 2.563-4 1.5-9.87-4.331-19.301-32.841-34-32.5.35-11.861-.759-23.911-5-35 12.994-7.857 23.122-25.12 24-40 24.844 29.857 30.727 69.051 19 106"/><path fill="#cad5d9" d="M808 369c3.264 6.064.183 2.679-5 6-17.351 11.116-26.779 62.453-30 83-2.825 3.738-3.549-3.896-3.5 4-6.847-2.42-13.986 1.95-17.5-6 2.749-19.283 7.677-42.653 14-61 3.557 1.553 6.742-6.913 9-9.5 7.584-8.69 18.649-17.118 31-16.5.329.016.679-.047 1 0 .328.048.708-.085 1 0"/><path fill="#375968" d="M822 384c-4.476-.572-9.351 1.132-13.5 4-15.812 10.929-26.664 53.475-29.5 72l-3-1c4.122-28.694 8.646-60.884 27-84 5.183-3.321 8.264.064 5-6 2.244.653 11.74 12.457 14 15"/><path fill="#10506b" d="M216 370c26.915 30.907 34.381 85.152 37 125.5 1.383 21.308.626 105.999-12 123-3.03 4.08-25.428.741-31-.5.097-.97-.164-2.054 0-3 12.903-17.307 19.413-43.758 22-65l9 4c-.918 7.253-1.951 15.171-2 22.5 6.306-24.277 8.703-49.825 8-75-.717-25.682-10.171-102.322-33.5-116.5-2.972-1.806-9.913-.56-9.5-5 1.637-1.156 10.239-8.398 12-10"/><path fill="#f9fafa" d="M237 373c4.113 1.887 11.681 12.826 14 17 4.344 7.818 8.22 20.288 11 29-5.388 1.134-13.57.351-16 6-3.418-12.371-8.541-28.539-15-39.5-2.583-4.383-13.381-13.132-8.5-14.5 3.221-.903 11.303.533 14.5 2"/><path fill="#051f3a" d="M803 375c-18.354 23.116-22.878 55.306-27 84-7.612 52.991-9.827 108.808 7.5 160 1.323.653 26.637-.519 29.5-1 12.571-2.114 12.459-12.841 20-21.5-18.042-10.259-23.016-40.28-25-59.5-.445-4.312-.76-8.664-1-13-.669-12.084 1.197-24.108 1-36 4.499-31.267 10.124-69.451 36-90.5-31.788-28.383-45.858 3.037-55 31-14.19 43.401-13.913 90.382-6 135-9.248-32.237-9.203-69.514-4-103.5 2.836-18.525 13.688-61.071 29.5-72 4.149-2.868 9.024-4.572 13.5-4 66.232 8.467 55.596 154 28 196.5-5.293 8.151-11.981 11.778-17 18-2.382 2.953-10.086 19.654-12.5 20.5-6.464 2.264-45.397-.081-47.5 6.5 4.438 44.469 5.855 89.457-20.5 127.5-1.232-11.893.868-24.356-4.5-35.5-1.742 31.923-11.441 65.043-34 88 1.61-5.46 4.818-12.874 2.5-18.5-16.172 28.478-42.38 48.421-70 65l17.5-36c1.866-4.624 3.868-9.582 5-14.5.897-3.9 3.107-31.634 4.5-32.5 5.891 12.798 3.035 32.334-1.5 46-1.213 3.654-2.85 9.395-5 12.5-1.821 2.63-2.927-.309-3.5.5-2.653 3.744-6.262 8.009-6 13 9.823-6.738 18.477-11.417 27.5-19 9.623-8.087 32.603-32.801 33-45.5.162-5.166-3.028-4.62-3-5 .854-11.595 4.907-22.685 2-35 3.166-.831 4.734 9.714 5 12 1.589 13.633-1.843 27.437-2 41 5.284-7.332 13.429-16.845 17-25 7.896-18.031 9.564-45.731 7-63-1.455-22.796 8.907 13.383 10 19 1.639 8.428 1.504 15.706 0 24 8.617-12.633 12.511-28.626 18-43v-70l-5-2.5c.72-1.083 3.512-3.781 3-4.5-8.198-.089-15.872-18.706-18-25.5-14.769-47.159-9.323-178.41 20-219-1.387 5.226-4.25 9.924-6 15-6.323 18.347-11.251 41.717-14 61-4.75 33.319-10.703 136.273 12 161.5 3.556 3.951 13.802 5.225 15 1 .437-1.54-7.246-26.151-8-31-6.575-42.271-4.603-87.376 2-129.5 3.221-20.547 12.649-71.884 30-83m15 74c-9.625 34.017-12.315 71.147-5 106 1.792 8.541 9.985 41.184 22.5 38 7.765-1.975 21.916-32.605 24.5-40.5 12.773-39.027 14.57-97.825-3-135.5-1.486-3.186-8.95-17.368-12.5-17-14.789 12.492-21.403 30.985-26.5 49"/><path fill="#afb4b6" d="m277 464-4 2c-1.89-16-6.133-31.748-11-47-2.78-8.712-6.656-21.182-11-29l-1-14c18.99 23.789 24.256 58.972 27 88"/><path fill="#0c4b68" d="M506 382c10.035 31.426 48.417 43.677 76 27 4.241 11.089 5.35 23.139 5 35-.361 12.233-2.005 19.872-7 31a61.7 61.7 0 0 1-5 9c-2.396 3.595-6.844 9.169-10 12-8.888 7.972-24.206 15.587-36 18-31.457 6.436-67.479-6.445-81-37-18.837-42.569 9.87-94.635 58-95m-36.5 17c-8.415-.216-14.888 18.718-6 20 8.366 1.206 14.393-19.784 6-20m79 51c-17.715 3.384-13.874 36.267 9 30 17.719-4.854 11.177-33.854-9-30"/><path fill="#08d4ed" d="m228 413-2 2c-6.05-6.834-9.704-2.358-6 6 .318 8.494-8.684 5.358-15 8.5 3.043 1.883 14.386-1.174 16 1 2.088 2.813 4.133 18.979 5 23.5 6.555 34.197 6.835 59.886 3 94l-14-8c3.717-32.861-3.256-97.003-21-125.5-4.322-6.941-10.034-12.523-16-18 31.554-19.074 37.947-15.077 50 16.5"/><path fill="url(#d)" d="M808 488c-.004-.246-1.991-4.228-2-4.5-.131-4.033 2.193-4.143 2-7-.052-.772-1.962-.232-2-1-.205-4.157 2.515-8.312-.5-11.5-1.343 1.123-1.933 1.775-2.5 3.5-.277.843-2.956 16.613-3 17.5-4.955-3.713-4.571-.349-9 1 1.44-18.769 6.432-37.523 8-55.5-3.451 14.009-6.256 28.128-8 42.5-3.993.63-3.816 13.59-4 17.5-.995 21.116-1.637 56.171 4 76 .431 1.515.84 4.001 3 3.5 3.279 14.801 8.563 32.052 18 44 .329.87 1.776 2.012 1 4-2.863.481-28.177 1.653-29.5 1-17.327-51.192-15.112-107.009-7.5-160l3 1c-5.203 33.986-5.248 71.263 4 103.5-7.913-44.618-8.19-91.599 6-135 9.142-27.963 23.212-59.383 55-31-25.876 21.049-31.501 59.233-36 90.5" style="fill:url(#d)"/>/&gt;<path fill="#3e6475" d="M469.5 399c8.393.216 2.366 21.206-6 20-8.888-1.282-2.415-20.216 6-20"/><path fill="#b9e1e8" d="M206 453c-1.084 1.091-3.656-.307-4 1.5-1.435 7.549 1.809 30.472 1 41-2.058 26.786-12.288 61.653-29 82.5-23.723-37.084-26.929-99.672-16-141.5 1.557-5.958 12.941-37.487 19.5-36.5 11.095 1.669 26.03 42.836 28.5 53"/><path fill="#c2dfe7" d="m857 417-9 2c-1.484-3.88-1.541-6.297-5.5-9-5.355-.778-16.573 18.782-18.5 23.5-1.641 4.017.632 14.92-6 15.5 5.097-18.015 11.711-36.508 26.5-49 3.55-.368 11.014 13.814 12.5 17"/><path fill="url(#e)" d="M848 419c3.075 8.04 5.5 24.791 6 33.5 2.178 37.95-8.766 79.603-41 102.5-7.315-34.853-4.625-71.983 5-106 6.632-.58 4.359-11.483 6-15.5 1.927-4.718 13.145-24.278 18.5-23.5 3.959 2.703 4.016 5.12 5.5 9" style="fill:url(#e)"/>/&gt;<path fill="#2ce5f5" d="M226 415c.387.437 3.559 8.608 4 10-7.945.099-6.662 3.531-10-4-3.704-8.358-.05-12.834 6-6"/><path fill="#0aa0c0" d="m241 554-9-4c2.639-21.671 1.904-46.234 0-68l-7-42c-1.337-8.224-5.842-11.176 6.5-12 1.051-.821-1.449-2.84-1.5-3-.441-1.392-3.613-9.563-4-10l2-2c17.846 46.757 19.22 91.878 13 141"/><path fill="url(#f)" d="M857 417c17.57 37.675 15.773 96.473 3 135.5-2.584 7.895-16.735 38.525-24.5 40.5-12.515 3.184-20.708-29.459-22.5-38 32.234-22.897 43.178-64.55 41-102.5-.5-8.709-2.925-25.46-6-33.5z" style="fill:url(#f)"/>/&gt;<path fill="#dde4e7" d="M262 419c4.867 15.252 9.11 31 11 47 .27 2.283-.231 6.36 0 9-5.831-4.836-11.078-.655-18-3-1.934-15.836-4.757-31.643-9-47 2.43-5.649 10.612-4.866 16-6"/><path fill="#074c73" d="M230 425c.051.16 2.551 2.179 1.5 3-12.342.824-7.837 3.776-6.5 12 .702 4.315 2.309 8.652 3 13l-2 1c-.867-4.521-2.912-20.687-5-23.5-1.614-2.174-12.957.883-16-1 6.316-3.142 15.318-.006 15-8.5 3.338 7.531 2.055 4.099 10 4"/><path fill="#021b3c" d="M791 486c-1.533 19.974-1.025 37.215 1 57 3.238 31.641 9.355 42.849 20 71-9.437-11.948-14.721-29.199-18-44-7.112-32.106-6.944-64.506-3-97 1.744-14.372 4.549-28.491 8-42.5-1.568 17.977-6.56 36.731-8 55.5"/><path fill="#07d9f1" d="M232 482c-.842-9.624-2.482-19.456-4-29-.691-4.348-2.298-8.685-3-13z"/><path fill="#267995" d="M625 475c-3.722 11.727-8.787 21.206-16 31l-29-31c4.995-11.128 6.639-18.767 7-31 14.699-.341 24.13 28.169 34 32.5 2.422 1.063 2.258-1.072 4-1.5"/><path fill="#fdfefe" d="M548.5 450c20.177-3.854 26.719 25.146 9 30-22.874 6.267-26.715-26.616-9-30"/><path fill="#7199a5" d="M206 453c8.24 33.909 11.93 98.698-6 129.5-11.262 19.346-17.569 8.679-26-4.5 16.712-20.847 26.942-55.714 29-82.5.809-10.528-2.435-33.451-1-41 .344-1.807 2.916-.409 4-1.5"/><path fill="#052345" d="M232 482c1.904 21.766 2.639 46.329 0 68-2.587 21.242-9.097 47.693-22 65 1.344-7.759 12.141-26.399 15-37.5 2.485-9.646 2.903-19.745 4-29.5 3.835-34.114 3.555-59.803-3-94l2-1c1.518 9.544 3.158 19.376 4 29"/><path fill="#6e97a1" d="M773 458c-6.603 42.124-8.575 87.229-2 129.5.754 4.849 8.437 29.46 8 31-1.198 4.225-11.444 2.951-15-1-22.703-25.227-16.75-128.181-12-161.5 3.514 7.95 10.653 3.58 17.5 6-.049-7.896.675-.262 3.5-4"/><path fill="#56646f" d="M277 464c3.492 36.945 4.64 74.223-1 111-1.474 9.616-2.956 15.793-6 25l-3-4c9.771-36.326 9.269-83.64 6-121-.231-2.64.27-6.717 0-9z"/><path fill="#1fc9e1" d="M808 488c.197 11.892-1.669 23.916-1 36l-5-11.5c1.222-8.59-2.414-19.103-2-27.5.044-.887 2.723-16.657 3-17.5.567-1.725 1.157-2.377 2.5-3.5 3.015 3.188.295 7.343.5 11.5.038.768 1.948.228 2 1 .193 2.857-2.131 2.967-2 7 .009.272 1.996 4.254 2 4.5"/><path fill="#bbd0d5" d="M273 475c3.269 37.36 3.771 84.674-6 121-1.842 6.849-6.649 25.351-14.5 25-11.434-.511-.987-17.737.5-25.5 7.755-40.484 6.989-82.643 2-123.5 6.922 2.345 12.169-1.836 18 3"/><path fill="#149fbd" d="M791 473c-3.944 32.494-4.112 64.894 3 97-2.16.501-2.569-1.985-3-3.5-5.637-19.829-4.995-54.884-4-76 .184-3.91.007-16.87 4-17.5"/><path fill="#0f6d90" d="M609 506c-3.373 4.58-5.321 6.15-9 10l-25-32a61.7 61.7 0 0 0 5-9z"/><path fill="#3bb1cd" d="m529 514 2 39c-36.116 6.057-72.301-4.368-100-28-3.128-8.241 8.096-15.806 10-23.5.121-.488-1.628-7.026-1-10 1.197-5.668 6.457-9.127 8-14.5 13.521 30.555 49.543 43.436 81 37"/><path fill="#1a9bb8" d="M800 485c-.414 8.397 3.222 18.91 2 27.5l5 11.5c.24 4.336.555 8.688 1 13-5.786-1.752-10.154 5.424-16 6-2.025-19.785-2.533-37.026-1-57 4.429-1.349 4.045-4.713 9-1"/><path fill="#237a96" d="M600 516c-6.594 6.901-11.075 10.679-19 16l-16-36c3.156-2.831 7.604-8.405 10-12z"/><path fill="#639aa6" d="M696 532c-.598 1.573-1.322 3.482-2 5-17.474 39.117-62.312 83.697-102 100-15.42 6.334-33.222 10.425-50 10-25.424-.644-58.622-6.791-83-14-19.253-5.694-37.748-12.508-54-24.5l7 .5c113.902 64.517 262.291 2.482 292-125 1.524.857 2.069 2.885 2 4.5-.399 9.276-6.575 34.489-10 43.5"/><path fill="#1a98bc" d="M581 532c-15.293 10.267-31.614 17.917-50 21l-2-39c11.794-2.413 27.112-10.028 36-18z"/><path fill="#5fa7b7" d="M350 525c8.015 14.797 22.735 33.472 35 45l-8 9c-11.568-10.987-24.707-26.369-33-40-1.71-2.811-2.503-6.219-4-9 2.463-2.226 7.642-6.225 10-5"/><path fill="#0d86a5" d="M808 537c1.984 19.22 6.958 49.241 25 59.5-7.541 8.659-7.429 19.386-20 21.5.776-1.988-.671-3.13-1-4-10.645-28.151-16.762-39.359-20-71 5.846-.576 10.214-7.752 16-6"/><path fill="#a2c5cf" d="M702 577c-21.681.32-27.17 30.206-9 38-10.653 34.944-27.221 69.528-55 94-3.633.175-7.357-.05-11 0-8.746-12.668-21.911-22.859-36-29 .423-14.223 8.588-29.418 1-43 39.688-16.303 84.526-60.883 102-100 9.117 11.547 3.335 27.395 8 40"/><path fill="#045f80" d="M229 548c-1.097 9.755-1.515 19.854-4 29.5-2.859 11.101-13.656 29.741-15 37.5-.164.946.097 2.03 0 3-1.702-.379-5.362.504-6.5 0-1.382-.612-13.807-20.214-13.5-21.5.14-.586 7.489-5.676 9-8 6.237-9.591 14.719-37.174 16-48.5z"/><path fill="#07709a" d="m432 581-4 10c-21.869-11.22-41.766-27.673-57-47l13-4c12.278 15.216 30.921 31.432 48 41"/><path fill="#b9e0ea" d="M367 573c12.522 13.411 28.987 26.93 45 36l-7-.5c16.252 11.992 34.747 18.806 54 24.5 17.13 16.391 49.093 18.572 72.5 17 2.209-.148 9.345-.72 10.5-3 16.778.425 34.58-3.666 50-10 7.588 13.582-.577 28.777-1 43-9.128-3.979-20.909-8.066-31-8-19.665-8.504-78.582-8.781-97.5 2-17.118 9.755-20.066 32.929-23 35-4.609 3.253-40.135.063-47.5-1-52.779-17.798-90.963-60.802-122-105 .264-.741-.256-2.224 0-3 3.044-9.207 4.526-15.384 6-25l32 9c-5.959 7.23-5.48 20.599 1 27.5 14.336 15.268 42.831-.693 33-23.5z"/><path fill="#012c4d" d="M342 588c9.831 22.807-18.664 38.768-33 23.5-6.48-6.901-6.959-20.27-1-27.5 8.25-10.01 28.612-8.5 34 4m-29 3c-.013.333.01.667 0 1-.236 8.011-1.552 11.929 4 17 5.62 5.133 11.3 5.438 17.5 1 4.627-3.312 2.007-9.364 1.5-14-.017-.159 2.573 1.008 2-2.5-3.026-4.263-1.948-9.1-9-9.5l-.5-3c1.221 1.424 3.975 1.31 5.5 2 .28.192 1.66 3.492 3 2.5.172-2.532-1.983-2.039-3-2.5-15.973-10.994-28.532 5.591-25.5 7 .824-1.079 4.58-6.697 6-6 1.149.563-1.436 5.404-1.5 7"/><path fill="#012a4b" d="M702 577c32.211-.476 23.912 52.118-9 38-18.17-7.794-12.681-37.68 9-38m-9 13c-.649 1.253-.789 1.514-1 3-.674 4.761 2.5 8.777 0 13.5l5 4c-1.05 2.83-10.805-7.035-10.5-9.5 3.027 19.999 33.751 15.258 32-5-1.765 7.854-2.815 9.588-9.5 13 .079-.966 1.981-3.777 2-4 .196 4.46 3.948-2.27 4-2.5 1.528-6.81 2.926-16.342-6-16.5l-5.5-5 8.5 2 4 3.5c.254-2.794-3.323-2.994-4-3.5-9.534-7.129-20.883-5.111-24 6.5z"/><path fill="#27abcb" d="M334 583c-1.525-.69-4.279-.576-5.5-2l.5 3c-5.14-.291-5.303.279-3 4-4.999-.784-8.57 1.741-13 3 .064-1.596 2.649-6.437 1.5-7-1.42-.697-5.176 4.921-6 6-3.032-1.409 9.527-17.994 25.5-7"/><path fill="#1781aa" d="m712 583-8.5-2 5.5 5c-1.644-.029-5.193-.715-6 1-3.629-1.084-7.02-2.751-10 3l-5-.5c3.117-11.611 14.466-13.629 24-6.5"/><path fill="#035a82" d="M504 601c-1.235 7.438.474 9.35-8 10-17.025 1.307-52.436-12.015-68-20l4-10c21.918 12.28 47.012 18.848 72 20"/><path fill="#1dabcc" d="M334 583c1.017.461 3.172-.032 3 2.5-1.34.992-2.72-2.308-3-2.5"/><path fill="#1781aa" d="M712 583c.677.506 4.254.706 4 3.5z"/><path fill="#1982ad" d="M329 584c7.052.4 5.974 5.237 9 9.5.573 3.508-2.017 2.341-2 2.5-5.162 6.074-6.089 1.009-6.5 1-8.444-.191-18.737.65-12.5 12-5.552-5.071-4.236-8.989-4-17 6.118.474 9.665-3.524 16.5-1 1.892-1.741-2.941-2.912-3.5-3-2.303-3.721-2.14-4.291 3-4"/><path fill="#8fdde9" d="M703 587c3.795 1.133 8.492-.708 3.5 5-5.631-1.186-9.237-1.541-14.5 1 .211-1.486.351-1.747 1-3 2.98-5.751 6.371-4.084 10-3"/><path fill="#04547e" d="M711 605c.855-9.922-16.328 8.011-7.5 7 1.991-.772 3.693-2.078 5.5-3 6.685-3.412 7.735-5.146 9.5-13 1.751 20.258-28.973 24.999-32 5-.305 2.465 9.45 12.33 10.5 9.5l-5-4c2.5-4.723-.674-8.739 0-13.5 5.263-2.541 8.869-2.186 14.5-1 4.992-5.708.295-3.867-3.5-5 .807-1.715 4.356-1.029 6-1 8.926.158 7.528 9.69 6 16.5-.052.23-3.804 6.96-4 2.5"/><path fill="#75dbe9" d="M326 588c.559.088 5.392 1.259 3.5 3-6.835-2.524-10.382 1.474-16.5 1 .01-.333-.013-.667 0-1 4.43-1.259 8.001-3.784 13-3"/><path fill="#2dbedb" d="M336 596c.507 4.636 3.127 10.688-1.5 14-6.2 4.438-11.88 4.133-17.5-1-6.237-11.35 4.056-12.191 12.5-12 .411.009 1.338 5.074 6.5-1"/><path fill="#347483" d="M767 629c-21.478 32.315-78.054 74.188-116 79 44.773-23.84 79.979-63.043 101-109 2.128 6.794 9.802 25.411 18 25.5.512.719-2.28 3.417-3 4.5"/><path fill="#0a84af" d="M711 605c-.019.223-1.921 3.034-2 4-1.807.922-3.509 2.228-5.5 3-8.828 1.011 8.355-16.922 7.5-7"/><path fill="#79abb9" d="M392 708c-20.503-2.959-33.922-10.016-52-20-23.126-12.772-40.8-27.454-61-44-3.929-3.218-19.033-19.024-21-20 4.369-5.014 9.831-14.902 12-21 31.037 44.198 69.221 87.202 122 105"/><path fill="#4e606b" d="M258 624c1.967.976 17.071 16.782 21 20-1.533 6.994-10.856-4.87-13.5-7-.855-.689-2.681 1.606-7.5-5-1.637-2.244-2.635-4.629-4-7v-1c.973.344 3.257-.369 4 0"/><path fill="#0f283e" d="M258 632c-4.903-2.276-2.56 3.133-3 7-4.442 39.007-3.41 71.378 16.5 106 1.526-7.055-.448-13.371.5-20.5.106-.798 1.868-.196 2-1 1.398-8.51 3.805-20.499 9-26-3.727 29.32-.057 62.48 20 85.5.565 1.806 2.297 8.736 5 8.5 1.736-8.432-.335-18.167 0-26 .039-.911 2.959-.088 3-1 .334-7.505-3.183-13.073-1-23.5.288-1.378-1.187-6.166 2-4.5-.533 5.795-1.306 18.893 0 24 .968 3.787 1.965-.228 3-.5.143 3.067 1.553 6.1 2 9 .871 5.655 1.98 13.231 4 18.5 2.043 5.327 13.346 18.858 13 20-.297.98-2.936.051-3 1-.445 6.639 27.221 24.377 33.5 28.5 3.738-4.478-3.486-8.487-5.5-13.5-6.239-15.529-7.562-26.025-8-41.5 1.418 7.822 2.112 21.748 8 26.5-1.902-3.451-2.614-7.639-3-11.5 3.175-1.46 5 8.51 6 11-4.209-.359-.236 3.836 0 5 1.018 5.021 2.343 9.671 4 14.5l14.5 24.5c-28.293-16.185-54.458-37.904-70-67l2 22c-21.392-25.509-32.61-56.536-33-90-5.274 11.777-5.498 25.885-3.5 38.5-6.919-9.874-15.047-25.97-19-38-10.227-31.125-4.808-60.426-3-92.5 1.365 2.371 2.363 4.756 4 7m52.5 139c-.515 1.881 1.864 15.757 5 14z"/><path fill="url(#g)" d="M685 822c-1.947-2.982-8.12 1.294-8.5 1-1.118-.866.714-8.341-4.5-8 4.535-13.666 7.391-33.202 1.5-46-1.393.866-3.603 28.6-4.5 32.5-1.132 4.918-3.134 9.876-5 14.5-4.522 6.511-8.589 12.122-14 18-6.016 6.536-13.481 11.998-20 18-10.714 6.036-19.899 14.782-30.5 21-10.962 6.43-29.662 12.357-38.5 19l24.5-58c-7.653 26.058-21.547 42.106-40 61-7.125 7.296-18.842 14.58-24.5 20h-1c8.674-7.933 34.227-40.917 41-51.5 1.503-2.349 10.845-18.796 11-20 .323-2.498-2.029-2.306-4-3.5 13.374-32.868 9.553-68.732-8-99-5.413-9.334-11.476-18.274-20-25l-2-5c10.653-.014 21.347.01 32 0 25.44 25.035 39.88 58.614 43.5 94 3.157-33.834-6.05-67.144-26.5-94 15.801-.024 50.133 2.673 63.5 0 3.2-.64-1.705-1.074-.5-3 .329-.036.672.042 1 0 37.946-4.812 94.522-46.685 116-79l5 2.5v70c-5.489 14.374-9.383 30.367-18 43 1.504-8.294 1.639-15.572 0-24-1.093-5.617-11.455-41.796-10-19 2.564 17.269.896 44.969-7 63-3.571 8.155-11.716 17.668-17 25 .157-13.563 3.589-27.367 2-41-.266-2.286-1.834-12.831-5-12 2.907 12.315-1.146 23.405-2 35-.028.38 3.162-.166 3 5-.397 12.699-23.377 37.413-33 45.5M563.5 718c16.273 19.711 31.262 40.061 41 64 .042-8.955-5.754-28.843-11.5-35.5-1.362-1.578-2.607 1.212-3.5.5-4.345-3.464-.106-5.602-1.5-8.5-2.909-6.046-17.373-18.976-24.5-20.5" style="fill:url(#g)"/>/&gt;<path fill="#284659" d="M258 632c4.819 6.606 6.645 4.311 7.5 5 2.644 2.13 11.967 13.994 13.5 7 20.2 16.546 37.874 31.228 61 44 2.614 4.6 10.418 7.793 15 10-2.24 4.274-1.696 6.616-7 5l1-1.5c-7.752.489-16.538 16.052-19 23.5-1.951 1.35-9.903-1.234-11 .5-2.277 3.599-4.246 29.225-4 34.5-1.035.272-2.032 4.287-3 .5-1.306-5.107-.533-18.205 0-24-3.187-1.666-1.712 3.122-2 4.5-1.07-.451-6.844-4.114-7-4.5-2.103-5.184 9.564-39.293 15-45-11.877 5.552-8.692 20.183-15.5 29.5-1.91-11.019-1.435-22.018 7.5-31.5-7.588 3.927-12.301 19.928-14 28.5-2.242 11.307-3.578 21.656 0 33l-4 1c-5.468-19.663-7.009-47.847 3-66.5 1.969-3.669 12.005-13.078 12-14-.004-.666-8.746-6.705-9.5-6.5-1.339.364 1.492 3.475-1 4-1.656.349-3.907-1.448-7 0-5.02 2.349-17.878 27.575-19.5 33.5-.538 1.964 2.742.74 2 4-.283 1.244-3.836 12.472-4.5 12.5-11.888-23.295-7.012-49.697-9.5-74.5-.066-.655-1.057-6.372-3-5.5.44-3.867-1.903-9.276 3-7"/><path fill="#93ccda" d="M542 647c-1.155 2.28-8.291 2.852-10.5 3-23.407 1.572-55.37-.609-72.5-17 24.378 7.209 57.576 13.356 83 14"/><path fill="#173548" d="M292 752c2.977 10.706 7.81 20.803 11 31-20.057-23.02-23.727-56.18-20-85.5-5.195 5.501-7.602 17.49-9 26-.132.804-1.894.202-2 1-.948 7.129 1.026 13.445-.5 20.5-19.91-34.622-20.942-66.993-16.5-106 1.943-.872 2.934 4.845 3 5.5 2.488 24.803-2.388 51.205 9.5 74.5.664-.028 4.217-11.256 4.5-12.5.742-3.26-2.538-2.036-2-4 1.622-5.925 14.48-31.151 19.5-33.5 3.093-1.448 5.344.349 7 0 2.492-.525-.339-3.636 1-4 .754-.205 9.496 5.834 9.5 6.5.005.922-10.031 10.331-12 14-10.009 18.653-8.468 46.837-3 66.5"/><path fill="#001d39" d="M560 672c15.974 6.909 21.115 21.913 26.5 37 13.495-.138 27.017.186 40.5 0 3.643-.05 7.367.175 11 0 4.203-.203 7.845-.542 12-1-1.205 1.926 3.7 2.36.5 3-13.367 2.673-47.699-.024-63.5 0-5.654.009-11.346-.005-17 0-10.653.01-21.347-.014-32 0-7.32.01-14.68-.004-22 0-14.316.008-28.684.083-43 0-4.459-.026-9.428 1.026-13 1-10.568-.076-21.523.178-32 0-2.321-.039-4.679.052-7 0-5.79-.13-11.268-.607-17-1-18.948-1.299-21.699-2.116-39-9-3.243-1.291-6.876-2.495-10-4-4.582-2.207-12.386-5.4-15-10 18.078 9.984 31.497 17.041 52 20 7.365 1.063 42.891 4.253 47.5 1 2.934-2.071 5.882-25.245 23-35 18.918-10.781 77.835-10.504 97.5-2m-110 18c-4.09 5.406-7.66 11.758-6.5 19 2.75-5.442 3.824-13.648 6.5-19 22.672-29.969 71.389-19.244 104-17.5-27.486-6.293-88.735-13.028-104 17.5m94-3c2.972-.047 20.238.501 21-.5-4.465-5.385-11.221-7.991-18-9.5-22.018-4.902-69.212-5.906-87 9.5 27.878.949 56.075.946 84 .5m-68 2c-16.758.021-24.321-.794-26 18.5l116.5 1.5c2.275-1.01 3.249-16.568-1.5-19-3.927-2.011-12.259-.826-17-1-2.648-.097-5.354.116-8 0-21.346-.932-42.654-1.337-64 0"/><path fill="#20c2dd" d="M450 690c15.265-30.528 76.514-23.793 104-17.5-32.611-1.744-81.328-12.469-104 17.5"/><path fill="#6093a0" d="M591 680c14.089 6.141 27.254 16.332 36 29-13.483.186-27.005-.138-40.5 0-5.385-15.087-10.526-30.091-26.5-37 10.091-.066 21.872 4.021 31 8"/><path fill="#09cfea" d="m547 677-3 10c-27.925.446-56.122.449-84-.5 17.788-15.406 64.982-14.402 87-9.5"/><path fill="#0375a2" d="m544 687 3-10c6.779 1.509 13.535 4.115 18 9.5-.762 1.001-18.028.453-21 .5"/><path fill="#31f5f9" d="M540 689c.438 3.001-2.673 1.947-4.5 2-20.003.579-39.955-2.025-59.5-2 21.346-1.337 42.654-.932 64 0"/><path fill="#2e4e63" d="M310 741c-2.183 10.427 1.334 15.995 1 23.5-.041.912-2.961.089-3 1-.335 7.833 1.736 17.568 0 26-2.703.236-4.435-6.694-5-8.5-3.19-10.197-8.023-20.294-11-31l4-1c.299.949-.63 4.062 2 3.5l-2-36.5c1.699-8.572 6.412-24.573 14-28.5-8.935 9.482-9.41 20.481-7.5 31.5 6.808-9.317 3.623-23.948 15.5-29.5-5.436 5.707-17.103 39.816-15 45 .156.386 5.93 4.049 7 4.5"/><path fill="#427f9b" d="M476 689c19.545-.025 39.497 2.579 59.5 2 1.827-.053 4.938 1.001 4.5-2 2.646.116 5.352-.097 8 0 2.388 3.829 13.302 2.091 17 1 4.749 2.432 3.775 17.99 1.5 19L450 707.5c1.679-19.294 9.242-18.479 26-18.5"/><path fill="#57cde0" d="M565 690c-3.698 1.091-14.612 2.829-17-1 4.741.174 13.073-1.011 17 1"/><path fill="#20c2dd" d="M450 690c-2.676 5.352-3.75 13.558-6.5 19-1.16-7.242 2.41-13.594 6.5-19"/><path fill="#3b586d" d="m365 702-2 4c-3.824-.026-13.684 11.081-16 14.5-13.349 19.713-14.206 48.738-5 69-.967-3.774-.364-6.756 0-10.5l4-1c-1.479 11.415-.974 22.822 4 33.5l-2.5.5-14.5-14.5-16-28.5c-.447-2.9-1.857-5.933-2-9-.246-5.275 1.723-30.901 4-34.5 1.097-1.734 9.049.85 11-.5-5.003 15.134-6.526 39.834 0 54.5-4.266-25.715-2.95-58.143 18-76.5 5.304 1.616 4.76-.726 7-5 3.124 1.505 6.757 2.709 10 4"/><path fill="#4c6d85" d="M348 703c-20.95 18.357-22.266 50.785-18 76.5-6.526-14.666-5.003-39.366 0-54.5 2.462-7.448 11.248-23.011 19-23.5z"/><path fill="#4c6980" d="M404 711c.38 2.345-1.112 4.082-2 6-.127.275.125.724 0 1-2.226-.62-11.015-2.573-12.5-2-1.356.523-9.991 20.928-10.5 23.5-3.889 19.647-3.159 44.326 5.5 62.5 10.293-7.6-.606-17.743 3.5-29 .019.101 1.841-.349 2 .5 5.248 28.065 12.532 60.939 36 82.5-3.192 1.665-6.672-.234-9.5-2-20.275-12.657-43.177-42.907-49.5-66-3.38-12.344-5.251-23.492-4-36.5.717-7.46 6.186-16.538 4.5-23.5-11.802 18.982-13.578 40.033-12.5 62 .072 1.472.78 4.801 1 7 .386 3.861 1.098 8.049 3 11.5-5.888-4.752-6.582-18.678-8-26.5-.181-6.393.244-12.734-1.5-19-1.739 4.893-2.832 9.846-3.5 15l-4 1c1.076-11.081 3.019-26.214 7-36.5 2.16-5.581 13.518-19.673 14-22 .863-4.167-4.597.355-3-4 .485-1.321 8.141-7.428 8-8-1.359-.352-4.052-2.494-5-2.5l2-4c17.301 6.884 20.052 7.701 39 9m-23.5 11c-5.007 12.358-12.067 25.014-10 39z"/><path fill="#597c9a" d="M363 706c.948.006 3.641 2.148 5 2.5.141.572-7.515 6.679-8 8-1.597 4.355 3.863-.167 3 4-.482 2.327-11.84 16.419-14 22-3.981 10.286-5.924 25.419-7 36.5-.364 3.744-.967 6.726 0 10.5-9.206-20.262-8.349-49.287 5-69 2.316-3.419 12.176-14.526 16-14.5"/><path fill="#456072" d="M421 712c-1.147 2.194-3.523 4.15-5 6l-14-1c.888-1.918 2.38-3.655 2-6 5.732.393 11.21.87 17 1"/><path fill="#4a6678" d="M460 712c-.067 3.447-4.374 4.919-6 7l-28-1c1.023-2.241.861-3.965 2-6 10.477.178 21.432-.076 32 0"/><path fill="#5e819e" d="M473 711c-.619 2.363-4.119 4.537-6 6-13.214 10.276-19.798 18.419-26.5 34-.025-1.225-1.514-3.31-1.5-3.5.124-1.648 12.507-25.309 15-28.5 1.626-2.081 5.933-3.553 6-7 3.572.026 8.541-1.026 13-1"/><path fill="#3e6079" d="M516 711c1.788 8.865-19.439 3.817-22 7.5-1.094 1.573-4.763 33.783-5 38-2.375 42.234 2.898 80.308 17 120 1.158.145 2.562-14.864 5-10l3 40c11.509-18.112 16.831-43.62 17-65 1.953-1.05 2.363-1.109 3 1 2.46 8.14-10.11 56.226-7.5 57.5 28.733-48.828 23.937-112.493 3.5-163.5 5.142 4.99 10.351 14.461 13 21 12.417 30.648 13.701 68.874 7 101 11.664-18.666 11.181-42.343 14.5-62.5 3.167.091 5.393 40.169 1.5 44.5 1.748 1.641 1.912-.553 2-.5 1.971 1.194 4.323 1.002 4 3.5-.155 1.204-9.497 17.651-11 20-6.773 10.583-32.326 43.567-41 51.5-1.289 1.179-7.326 6.255-8.5 6-9.785-25.829-35.314-41.509-49.5-63l4.5-2 26 29 3.5-2.5c-13.195-49.955-18.26-97.772-9-149 .129-.715 1.69-8.081-1-7.5.718-2.415 1.355-5.039 2-7.5-.752-.934-3.775-.485-5-.5-4.505-.055-4.784.717-7 4.5-10.116 17.265-12.108 68.711-11 89 .346 6.336 4.607 15.996 1.5 21.5-8.926-36.324-9.108-78.324 7.5-112.5l-7-3.5c1.881-1.463 5.381-3.637 6-6 14.316.083 28.684.008 43 0"/><path fill="#547592" d="m538 711 2 5-20-1.5c5.934 8.748 13.521 16.431 19 25.5 10.527 17.426 17.751 38.202 20 58.5 2.44 1.212 3.005-9.396 3-10-.04-5.099-4.918-25.599-7-30.5-.62-3.479 4.163.568 4.5 0 1.728-2.912-9.845-21.994-11.5-26.5 5.322.134 6.846 14.922 12 9.5 17.553 30.268 21.374 66.132 8 99-.088-.053-.252 2.141-2 .5 3.893-4.331 1.667-44.409-1.5-44.5-3.319 20.157-2.836 43.834-14.5 62.5 6.701-32.126 5.417-70.352-7-101-2.649-6.539-7.858-16.01-13-21 20.437 51.007 25.233 114.672-3.5 163.5-2.61-1.274 9.96-49.36 7.5-57.5-.637-2.109-1.047-2.05-3-1-.169 21.38-5.491 46.888-17 65l-3-40c-2.438-4.864-3.842 10.145-5 10-14.102-39.692-19.375-77.766-17-120 .237-4.217 3.906-36.427 5-38 2.561-3.683 23.788 1.365 22-7.5 7.32-.004 14.68.01 22 0m-40.5 55c-1.45 1.124-.001 26.521.5 30.5.893 7.094 1.828 12.908 5.5 18.5-.494-6.152-.948-46.129-2.5-48.5-.429-.656-3.17-.756-3.5-.5m22 0c.132 5.791 1.848 11.684 1.5 17.5-.055.924-2.906.07-3 1-1.644 16.318 9.344 40.297 6 58 4.843 5.963 7.734-11.751 8-14 2.379-20.078-.024-46.152-12.5-62.5"/><path fill="#587a99" d="M587 711c20.45 26.856 29.657 60.166 26.5 94-3.62-35.386-18.06-68.965-43.5-94 5.654-.005 11.346.009 17 0"/><path fill="#6a8faf" d="M428 712c-1.139 2.035-.977 3.759-2 6-13.026 28.521-23.262 54.61-21.5 87-8.498-28.694-7.825-62.791 11.5-87 1.477-1.85 3.853-3.806 5-6 2.321.052 4.679-.039 7 0"/><path fill="#5a7c9b" d="M540 716c8.524 6.726 14.587 15.666 20 25-5.154 5.422-6.678-9.366-12-9.5 1.655 4.506 13.228 23.588 11.5 26.5-.337.568-5.12-3.479-4.5 0-1.465-3.449-10.941-19.747-16-18-5.479-9.069-13.066-16.752-19-25.5z"/><path fill="#5a7d9d" d="M402 718c-6.989 15.373-17.232 37.792-14 55-4.106 11.257 6.793 21.4-3.5 29-8.659-18.174-9.389-42.853-5.5-62.5.509-2.572 9.144-22.977 10.5-23.5 1.485-.573 10.274 1.38 12.5 2"/><path fill="#557694" d="M416 718c-19.325 24.209-19.998 58.306-11.5 87-1.762-32.39 8.474-58.479 21.5-87l28 1c-2.493 3.191-14.876 26.852-15 28.5-.014.19 1.475 2.275 1.5 3.5 6.702-15.581 13.286-23.724 26.5-34l7 3.5c-16.608 34.176-16.426 76.176-7.5 112.5 3.107-5.504-1.154-15.164-1.5-21.5-1.108-20.289.884-71.735 11-89 2.216-3.783 2.495-4.555 7-4.5-5.073 10.569-8.745 21.454-11 33-6.47 33.127-5.721 69.049 7.5 100 1.397-.339-5.179-25.089-5.5-28 4.017.465 2.709-.799 3-3.5 4.028-37.445-3.211-52.42 9-93.5 2.69-.581 1.129 6.785 1 7.5-9.26 51.228-4.195 99.045 9 149l-3.5 2.5-26-29-4.5 2c-16.251-24.619-17.709-55.626-15-84.5-1.218-1.32-.84 2.089-2 1.5-2.691-1.367-2.048-3.918-4-2.5-5.327 3.871-8.473 37.704-7 45-3.692-10.523-3.538-25.312-3-37 .11-2.393.754-11.06 1-13 1.463-11.547 6.104-22.958 7.5-34.5-9.616 11.017-15.285 29.684-17.5 44-6.062 1.682.206-27.889-6-18.5-2.079 3.145-1.445 56.608 2.5 56.5l3.5-11c2.291 22.269 8.29 42.343 20 61.5-1.543 2.986-14.36-7.993-16-9.5-23.468-21.561-30.752-54.435-36-82.5-.159-.849-1.981-.399-2-.5-3.232-17.208 7.011-39.627 14-55 .125-.276-.127-.725 0-1z"/><path fill="#4b7691" d="M296 751c-3.578-11.344-2.242-21.693 0-33l2 36.5c-2.63.562-1.701-2.551-2-3.5"/><path fill="#678aa8" d="M486 726c-12.211 41.08-4.972 56.055-9 93.5-.291 2.701 1.017 3.965-3 3.5-2.434-22.049 3.551-53.155 1-70.5-.434-2.951-.299-1.375-3-1.5 2.255-11.546 5.927-22.431 11-33 1.225.015 4.248-.434 5 .5-.645 2.461-1.282 5.085-2 7.5"/><path fill="#567692" d="M563.5 718c7.127 1.524 21.591 14.454 24.5 20.5 1.394 2.898-2.845 5.036 1.5 8.5.893.712 2.138-2.078 3.5-.5 5.746 6.657 11.542 26.545 11.5 35.5-9.738-23.939-24.727-44.289-41-64"/><path fill="#5a7b97" d="m380.5 722-10 39c-2.067-13.986 4.993-26.642 10-39"/><path fill="#2f4a5c" d="m367 788-12 2c-1.078-21.967.698-43.018 12.5-62 1.686 6.962-3.783 16.04-4.5 23.5-1.251 13.008.62 24.156 4 36.5"/><path fill="#446074" d="M445 775c-6.553 24.323-6.466 47.693 0 72 3.419 12.852 11.205 29.481 18 41l-37-13c-14.178-12.252-40.783-34.211-51-45.5-2.43-2.685-11.614-21.312-13-21.5-1-2.49-2.825-12.46-6-11-.22-2.199-.928-5.528-1-7l12-2c6.323 23.093 29.225 53.343 49.5 66 2.828 1.766 6.308 3.665 9.5 2 1.64 1.507 14.457 12.486 16 9.5-11.71-19.157-17.709-39.231-20-61.5-1.195-11.613-1.81-15.299 0-27 2.215-14.316 7.884-32.983 17.5-44-1.396 11.542-6.037 22.953-7.5 34.5-.246 1.94-.89 10.607-1 13-.538 11.688-.692 26.477 3 37-1.473-7.296 1.673-41.129 7-45 1.952-1.418 1.309 1.133 4 2.5"/><path fill="#678cab" d="M555 758c2.082 4.901 6.96 25.401 7 30.5.005.604-.56 11.212-3 10-2.249-20.298-9.473-41.074-20-58.5 5.059-1.747 14.535 14.551 16 18"/><path fill="#83a9c4" d="M474 823c.321 2.911 6.897 27.661 5.5 28-13.221-30.951-13.97-66.873-7.5-100 2.701.125 2.566-1.451 3 1.5 2.551 17.345-3.434 48.451-1 70.5"/><path fill="#4e6c85" d="M422 777c-1.81 11.701-1.195 15.387 0 27l-3.5 11c-3.945.108-4.579-53.355-2.5-56.5 6.206-9.389-.062 20.182 6 18.5"/><path fill="#234254" d="M351 782c.438 15.475 1.761 25.971 8 41.5 2.014 5.013 9.238 9.022 5.5 13.5-6.279-4.123-33.945-21.861-33.5-28.5.064-.949 2.703-.02 3-1 .346-1.142-10.957-14.673-13-20-2.02-5.269-3.129-12.845-4-18.5l16 28.5 14.5 14.5 2.5-.5c-4.974-10.678-5.479-22.085-4-33.5.668-5.154 1.761-10.107 3.5-15 1.744 6.266 1.319 12.607 1.5 19"/><path fill="#506e89" d="M497.5 766c.33-.256 3.071-.156 3.5.5 1.552 2.371 2.006 42.348 2.5 48.5-3.672-5.592-4.607-11.406-5.5-18.5-.501-3.979-1.95-29.376-.5-30.5"/><path fill="#678bab" d="M519.5 766c12.476 16.348 14.879 42.422 12.5 62.5-.266 2.249-3.157 19.963-8 14 3.344-17.703-7.644-41.682-6-58 .094-.93 2.945-.076 3-1 .348-5.816-1.368-11.709-1.5-17.5"/><path fill="#294a5f" d="m310.5 771 5 14c-3.136 1.757-5.515-12.119-5-14"/><path fill="#254153" d="M462 858c14.186 21.491 39.715 37.171 49.5 63 1.174.255 7.211-4.821 8.5-6h1c-1.367 1.309-10.006 15.616-11.5 15-2.487-11.825-10.779-19.348-17.5-28.5-.605-.824 1.433-3.022 0-5-16.602-22.916-29.643-7.841-44-47-.546-1.49-.948-4.383-3-2.5-6.466-24.307-6.553-47.677 0-72 1.16.589.782-2.82 2-1.5-2.709 28.874-1.251 59.881 15 84.5"/><path fill="#436074" d="M362 808c.33.822.156 2.178 1 4l-1 1c-.236-1.164-4.209-5.359 0-5"/><path fill="#0f283e" d="M426 875c12.85 11.104 28.475 19.967 45 23.5-3.057-2.711-5.979-7.074-8-10.5-6.795-11.519-14.581-28.148-18-41 2.052-1.883 2.454 1.01 3 2.5 14.357 39.159 27.398 24.084 44 47 1.433 1.978-.605 4.176 0 5 6.721 9.152 15.013 16.675 17.5 28.5 1.494.616 10.133-13.691 11.5-15 5.658-5.42 17.375-12.704 24.5-20 18.453-18.894 32.347-34.942 40-61L561 892c-.859.645-8.516 7.53-4.5 8 11.078-5.367 24.517-9.689 35-16 13.297-8.005 26.939-21.356 38.5-32 6.519-6.002 13.984-11.464 20-18-26.917 31.465-60.942 59.604-102 69.5l18.5-28.5-58 57c-6.909-21.911-26.431-40.694-46.5-48.5-.846 1.611 14.685 16.137 15.5 17.5.948 1.587.752 1.839-1 2-3.541.325-36.193-14.153-41-17-22.979-13.609-61.287-49.777-72.5-74-.844-1.822-.67-3.178-1-4 1.386.188 10.57 18.815 13 21.5 10.217 11.289 36.822 33.248 51 45.5"/><path fill="#325263" d="M685 822c-9.023 7.583-17.677 12.262-27.5 19-.262-4.991 3.347-9.256 6-13 .573-.809 1.679 2.13 3.5-.5 2.15-3.105 3.787-8.846 5-12.5 5.214-.341 3.382 7.134 4.5 8 .38.294 6.553-3.982 8.5-1"/><path fill="#355261" d="M630 852c-11.561 10.644-25.203 23.995-38.5 32-10.483 6.311-23.922 10.633-35 16-4.016-.47 3.641-7.355 4.5-8 8.838-6.643 27.538-12.57 38.5-19 10.601-6.218 19.786-14.964 30.5-21"/><path fill="#335060" d="M463 888c2.021 3.426 4.943 7.789 8 10.5-16.525-3.533-32.15-12.396-45-23.5z"/></svg>