<svg xmlns="http://www.w3.org/2000/svg" width="1024" height="1024"><defs><linearGradient id="a" x1="654.371" x2="404.408" y1="183.615" y2="206.402" gradientUnits="userSpaceOnUse"><stop offset="0%" style="stop-color:#257eb5"/><stop offset="100%" style="stop-color:#63c0dc"/></linearGradient></defs><defs><linearGradient id="b" x1="293.91" x2="730.282" y1="527.023" y2="597.331" gradientUnits="userSpaceOnUse"><stop offset="0%" style="stop-color:#0d6490"/><stop offset="100%" style="stop-color:#064666"/></linearGradient></defs><defs><linearGradient id="c" x1="266.353" x2="724.623" y1="526.633" y2="576.725" gradientUnits="userSpaceOnUse"><stop offset="36.659%" style="stop-color:#38d4ed"/><stop offset="100%" style="stop-color:#0583a9"/></linearGradient></defs><defs><linearGradient id="d" x1="410.403" x2="670.998" y1="578.882" y2="593.415" gradientUnits="userSpaceOnUse"><stop offset="29.119%" style="stop-color:#1ea3c4"/><stop offset="100%" style="stop-color:#0b7294"/></linearGradient></defs><defs><linearGradient id="e" x1="180.769" x2="187.427" y1="474.461" y2="525.025" gradientUnits="userSpaceOnUse"><stop offset="0%" style="stop-color:#c8ecf3"/><stop offset="100%" style="stop-color:#97c1ce"/></linearGradient></defs><defs><linearGradient id="f" x1="844.557" x2="835.809" y1="475.867" y2="527.126" gradientUnits="userSpaceOnUse"><stop offset="0%" style="stop-color:#c0e9f1"/><stop offset="100%" style="stop-color:#8ebbc8"/></linearGradient></defs><path fill="#021c33" d="M881 433c-.645-.057-1.379.12-2 0 .082-2.463-1.931-4.146-3-6-7.693-13.335-24.022-20.729-35-7-1.995 2.495-1.897 3.599-3 6-4.554 9.913-6.224 20.597-8 31.5 5.167 2.024 10.859 2.448 16 4.5v3.5l-17-3c-3.958 24.68-5.097 49.541-5 74.5.029 7.593-.429 15.436 0 23 .87 15.34 2.58 30.637 8 45 1.943 5.15 3.631 10.241 8 14 9.04 7.777 21.114 4.464 27-5.5-15.521-6.204-16.729-28.168-18-42.5 5.371 5.943 4.722 24.818 13 29 3.702 1.87 3.329.583 6 0 2.643-.577 3.573-4.423 6-1.5-1.567 2.162-3.501 7.354-2 9.5-2.13 4.326-9.009 14.418-13.5 16-5.622 1.98-11.84-.402-17 1-4.687 1.273-15.972 29.433-19.5 35.5-39.217 67.436-101.884 129.446-176 157.5-6.036 2.285-12.803 4.051-19 6-60.783 19.115-121.423 24.887-184.5 13-14.393-2.712-36.584-12.101-49.5-13-5.563-1.116-13.765-5.658-19-6-75.227-29.872-137.477-87.265-177-157.5-4.09-7.268-14.728-36.198-20.5-37.5-11.166-2.519-12.91 2.688-22.5-9.5-21.65-27.514-25.907-147.972-14-181 5.765-15.99 17.612-19.912 21-27 2.767-5.789 4.491-22.402 7-30 31.409-95.123 88.851-175.056 180-220.5-2.135 1.348-13.031 8.284-13 10.5 10.058 5.392 14.705 19.4 22 29 55.449 72.964 104.852 89.319 196.5 74.5 54.514-8.815 101.126-61.904 134.5-102.5-4.601-4.777-13.085-5.654-17-7.5-32.002-15.092-53.692-24.703-89-32-77.172-15.948-159.537-8.365-228 30.5.88.753 1.49 1.429 2 2.5 3.484 7.317 19.114 21.976 21 28-6.883-2.698-16.575-13.179-20-19.5-.392-.724.388-3.183 0-4-2.304-4.859-7-4.605-3-12.5 198.39-109.89 428.77 18.127 496 219.5 2.571 7.701 6.087 31.148 9 36 1.579 2.63 10.628 6.159 14 10 2.843 3.238 6.391 11.318 8 15.5m-708-60c-1.188 4.015-8.883 32.021-8 33.5 14.197-1.552 29.409-8.82 41 3.5.448 2.428 5.911 9.772 7 13.5 9.408 32.21 11.406 65.091 12 98.5.447 25.177 1.162 71.753-12 93.5-8.322 13.749-14.134 9.356-28 11 2.454 5.567 5.5 10.987 8 16.5 9.885 21.802 20.903 37.986 35 57 59.194 79.839 142.81 126.044 242 137 43.789 4.837 82.21 2.22 125-8 108.036-25.803 192.981-98.417 238-199.5-.257-1.814-10.254.082-12.5-.5-10.51-2.723-17.554-26.646-19.5-36-5.977-28.736-4.71-64.587-3-94 1.492-25.662 2.267-96.1 38-95 1.608.049 18.543 5.198 19 2.5-9.439-46.274-28.211-89.19-54-128.5-25.376-38.68-58.726-74.929-98-100-4.543-2.9-9.211-5.705-13.5-9-.644-.025-2.128 2.68-2.5 3-57.791 49.599-68.438 96.426-159.5 102-91.525 5.602-119.651-12.158-174.5-81-4.117-5.167-7.916-10.745-12-16-1.309-1.685-4.368-9.581-6.5-10-76.831 43.485-136.478 121.402-161.5 206m11 45c4.394 7.456 6.644 15.772 9 24 .68 2.377.713 13.117 3.5 14l18.5-3.5c2.021 3.924-17.656 4.64-19 7-1.256 2.205 4.654 43.446 5 50.5.371 7.566.927 15.459 1 23 .006.661-.004 1.339 0 2h-4c.006-.661-.001-1.339 0-2 .038-23.987-1.689-47.686-5-71.5-7.888-.977-12.283 2.319-21 1.5l20-7.5c-2.57-11.876-3.418-21.644-9-32.5-.708-1.378-.552-2.074-2-4-17.125-22.781-42.716 10.295-37.5 13 17.739-13.247 22.369 19.87 24.5 32 3.609 20.538 5.641 48.062 6 69 .385 22.479 2.608 65.927-19 78.5 6.716 11.041 18.901 13.576 28 3.5 4.066-4.503 5.036-8.552 7-14 2.318-6.429 5-16.313 6-23l4-1c-.318 2.218-.595 4.865-1 7-2.252 11.87-7.178 27.853-16 36.5 8.054 3.008 17.478 2.746 23-4.5 9.451-10.764 13.144-30.657 15-45 2.008-15.519 2.202-33.297 2-49-.191-14.878-1.303-31.226-3-46-2.788-24.276-6.669-83.135-44-66.5 3.781 2.257 5.808 4.78 8 8.5m616 84c-.47 8.062-.939 15.891-1 24-.158 20.96.058 80.839 18 94 6.244 4.58 13.441 5.868 21 2.5-8.119-8.021-12.818-22.496-15-33.5-1.633-8.238-2.622-22.456-3-31-.419-9.465-.201-19.508 0-29 .182-8.579 1.461-17.445 2-26 .387-6.142 5.143-40.698 4-42.5-.828-1.305-17.104-2.546-19-6 3.689-1.433 17.782 4.129 20 2 1.008-.968 3.767-24.102 5-27.5.161-.443 4.157-6.607 5-8 2.62-4.331 5.518-6.99 9-10.5-8.504-1.849-17.845-4.334-25.5 1.5-14.403 10.978-19.43 71.638-20.5 90m-664 8c.249 13.218 3.661 77.716 13.5 84 9.651 6.164 15.315-15.153 16.5-21 4.045-19.956-1.189-121.099-12-136-2.223-3.064-2.645-5.558-7.5-3-11.328 5.968-10.737 63.396-10.5 76m32.5 61c-2.802 10.471-2.805 25.399-16 28 11.93 6.159 17.732-19.728 16-28"/><path fill="#53b3d3" d="M582 127c.922 4.971-2.89 1.567-5 4-49.917-7.581-127.003-2.334-175.5 12-15.639 4.622-29.724 12.879-45.5 17-.51-1.071-1.12-1.747-2-2.5 68.463-38.865 150.828-46.448 228-30.5"/><path fill="url(#a)" d="M671 159c-8.516 8.981-15.399 19.304-23 29-19.457 20.761-36.747 45.327-62.5 59-33.012 17.526-102.522 20.539-138 10-27.291-8.107-46.784-38.217-63.5-60l10.5 7c5.411-6.835-18.688-28.663-18.5-30.5 4.903-2.828 9.962-5.983 15-8.5l57.5 76-49.5-79c55.698-23.602 125.313-30.202 185.5-28 1.512-2.378-6.399-2.833-7.5-3 2.11-2.433 5.922.971 5-4 35.308 7.297 56.998 16.908 89 32" style="fill:url(#a)"/>/&gt;<path fill="#fcfefe" d="M577 131c1.101.167 9.012.622 7.5 3-60.187-2.202-129.802 4.398-185.5 28-2.595 1.1-5.452 1.727-8 3-5.038 2.517-10.097 5.672-15 8.5-.188 1.837 23.911 23.665 18.5 30.5l-10.5-7c-2.077-2.706-4.659-5.487-7-8-.07-.316.094-.701 0-1-1.886-6.024-17.516-20.683-21-28 15.776-4.121 29.861-12.378 45.5-17 48.497-14.334 125.583-19.581 175.5-12"/><path fill="#022e44" d="M354 152c-4 7.895.696 7.641 3 12.5.388.817-.392 3.276 0 4 3.425 6.321 13.117 16.802 20 19.5.094.299-.07.684 0 1l-2 .5c1.935 5.209 5.383 10.273 9 15 37.97 49.631 57.464 61.828 122.5 60.5 77.548-1.584 96.386-19.45 141.5-77 7.601-9.696 14.484-20.019 23-29 3.915 1.846 12.399 2.723 17 7.5-33.374 40.596-79.986 93.685-134.5 102.5-91.648 14.819-141.051-1.536-196.5-74.5-7.295-9.6-11.942-23.608-22-29-.031-2.216 10.865-9.152 13-10.5 2.112-1.334 3.999-1.892 6-3"/><path fill="#d7f1f9" d="M391 165c2.548-1.273 5.405-1.9 8-3l49.5 79z"/><path fill="#d7eaf0" d="m341 177 3 6.5c-30.512 18.045-59.666 39.185-82 67l5 .5c-6.822 1.589-11.709 5.56-17 10-2.646 2.22-4.696 4.483-7 7-24.768 27.051-39.804 67.177-51 101.5l47-72.5c2.695 31.439 13.35 47.545 46.5 45 31.168-2.393 62.842-38.625 47.5-69-5.476-10.841-20.61-26.844-33-26.5l-2 10.5c-8.446-5.846-15.786-7.739-26-7 .477-4.018 7.28-1.184 9.5-2 3.185-1.17 36.962-32.608 44-38 7.916-6.065 18.728-15.013 27.5-17 54.849 68.842 82.975 86.602 174.5 81 91.062-5.574 101.709-52.401 159.5-102-2.704 5.277-7.451 13.444-11 18-22.826 29.304-61.042 69.415-96 83-17.821 6.925-36.312 7.446-55 10.5l2 50c1.4 1.165 14.309.329 17.5.5 2.263.121 11.601.489 12.5 3-15.636-.626-31.335-1.213-47-1-69.82.949-159.964 10.842-222 44-18.433 9.852-33.956 20.683-45 39-.023-4.586-25.175-19.621-30-23-8.614-6.033-24.91-18.937-33.5-23-4.472-2.115-3.535 1.022-6.5 0 25.022-84.598 84.669-162.515 161.5-206 2.132.419 5.191 8.315 6.5 10"/><path fill="#80a8b7" d="M703 178c-.655 2.032-2.249 1.023-1 3.5 1.003 1.99 24.353 20.494 28.5 24.5 23.159 22.369 44.656 48.467 61.5 76 22.712 37.126 38.276 78.656 44 122-35.733-1.1-36.508 69.338-38 95-4.48 5.187-5.993 1.783-12 2 2.347-29.637 5.456-62.234-12-88-1.317-3.378-2.443-6.673-4-10-11.133-23.79-68.477-43.704-94-51l8-29.5c2.034-2.869 3.284-8.004 8-7.5 14.118 25.222 63.869 41.746 81 16.5 8.182-12.058 1.44-9.369-4-18.5 5.176-4.945 5.282-7.103 8-13 7.153-15.52 7.623-23.759-4-37-20.755-23.645-59.349-9.803-64 17-5.844-.452-13.688-2.389-17-8 2.837-5.899.107-1.149-1-3.5-11.077-23.53 1.924-57.286-15-78.5 3.549-4.556 8.296-12.723 11-18 .372-.32 1.856-3.025 2.5-3 4.289 3.295 8.957 6.1 13.5 9"/><path fill="#fcfdfe" d="M353 193c-8.772 1.987-19.584 10.935-27.5 17-7.038 5.392-40.815 36.83-44 38-2.22.816-9.023-2.018-9.5 2-2.451.177-3.081.553-5 1l-5-.5c22.334-27.815 51.488-48.955 82-67l-3-6.5c4.084 5.255 7.883 10.833 12 16"/><path fill="#5b8695" d="m801 278-9 4c-16.844-27.533-38.341-53.631-61.5-76-4.147-4.006-27.497-22.51-28.5-24.5-1.249-2.477.345-1.468 1-3.5 39.274 25.071 72.624 61.32 98 100"/><path fill="#011426" d="M377 189c2.341 2.513 4.923 5.294 7 8 16.716 21.783 36.209 51.893 63.5 60 35.478 10.539 104.988 7.526 138-10 25.753-13.673 43.043-38.239 62.5-59-45.114 57.55-63.952 75.416-141.5 77-65.036 1.328-84.53-10.869-122.5-60.5-3.617-4.727-7.065-9.791-9-15z"/><path fill="#a2c5d1" d="M676 190c16.924 21.214 3.923 54.97 15 78.5 1.107 2.351 3.837-2.399 1 3.5-8.621 17.926-10.513 24.218 0 43-4.716-.504-5.966 4.631-8 7.5l-8 29.5c-29.363-8.393-67.387-11.909-98-14-.656-.045-1.343.043-2 0 1.603-2.444 6.662.556 8-2.5 3.055-6.98-.817-52.373-4-62.5 34.958-13.585 73.174-53.696 96-83"/><path fill="#a7cad5" d="m333 273-19 8c-1.101-9.018-8.637-18.904-16-24l2-10.5c12.39-.344 27.524 15.659 33 26.5"/><path fill="#051e32" d="M272 250c10.214-.739 17.554 1.154 26 7 7.363 5.096 14.899 14.982 16 24 4.031 33.014-26.12 54.204-55 35 .004-2.108-1.861-3.458-3-5 15.698 10.485 33.179 11.213 46-4 9.696-11.505 10.412-20.691 4-34-10.644-22.095-45.67-26.508-57-4-3.901-2.662.943-4.256 1-8 5.291-4.44 10.178-8.411 17-10 1.919-.447 2.549-.823 5-1"/><path fill="#021d2f" d="m773 263-2 2c-20.122-25.502-71.159-1.216-55 36 2.383 5.489 3.461 6.342 8 10 16.708 13.464 46.251 8.245 52-13l1 2c-2.718 5.897-2.824 8.055-8 13-27.254 26.036-66.355 3.623-60-33 4.651-26.803 43.245-40.645 64-17"/><path fill="#e7f9fb" d="M306 273c-4.63 4.869-9.01-6.446-13.5-9-.337-.192-6.572-1.84-7.5-2-2.39-.411-1.889-.989-2-1v-3.5c-11.385.515-24.53 3.666-31 14-3.132 5.003-3.32 12.177-7 16.5-.274-5.373 1.572-14.177 4-19 11.33-22.508 46.356-18.095 57 4"/><path fill="#e0f8fa" d="M771 265c1.477 1.871 2.159 4.796 3 7l-2 3c-3.937-9.073-16.237-17.733-26.5-15-3.193.85 1.665.826.5 3-1.511-.08-3.57-.201-5 0 .612-3.327-4.364-1.381-5.5-1-10.029 3.365-15.399 10.741-16.5 21-.986-.54-3.232-1.914-4-.5l1 18.5c-16.159-37.216 34.878-61.502 55-36"/><path fill="#4ee0f0" d="M283 261c-.749-.074-3.299 1.993-3.5 2-6.498.236-3.476-2.359-11.5 2-14.245 7.737-16.592 23.54-7 36 7.262 9.434 19.151 12.253 29.5 6 6.626-4.004 7.163-15.544 13.5-14-.247 4.202-4.466 8.988-2 14-12.821 15.213-30.302 14.485-46 4-5.443-7.371-10.497-13.135-11-23 3.68-4.323 3.868-11.497 7-16.5 6.47-10.334 19.615-13.485 31-14z"/><path fill="#4adbed" d="M772 275c13.183 30.379-21.6 54.145-48 36-4.539-3.658-5.617-4.511-8-10l-1-18.5c.768-1.414 3.014-.04 4 .5.201.11-.486 1.996.5 3 .089.091 1.123-3.804 2.5-.5 3.785 9.081.286 20.577 15.5 24.5 10.636 2.743 20.253-1.704 25.5-11 9.16-16.227 1.259-35.038-17-36 1.165-2.174-3.693-2.15-.5-3 10.263-2.733 22.563 5.927 26.5 15"/><path fill="#1d607f" d="M249 269c-2.428 4.823-4.274 13.627-4 19 .503 9.865 5.557 15.629 11 23 1.139 1.542 3.004 2.892 3 5-15.445-10.27-17.058-22.302-18-40 .633-2.408.625-5.385 2-8 2.304-2.517 4.354-4.78 7-7-.057 3.744-4.901 5.338-1 8"/><path fill="#1a86a2" d="M283 261c.111.011-.39.589 2 1 7.842 6.359 11.753 7.157 16 17l-1 10.5 4 .5c.019.986.058 2.017 0 3-6.337-1.544-6.874 9.996-13.5 14-10.349 6.253-22.238 3.434-29.5-6l4-3c15.646 13.891 40.622-4.343 30-23.5-5.395-9.73-16.849-11.417-26-6.5l-1-3c8.024-4.359 5.002-1.764 11.5-2 .201-.007 2.751-2.074 3.5-2"/><path fill="#6ee2ee" d="M741 263c-2.757.388-4.468.855-7 2-8.683 3.926-9.68 11.409-15 18 1.101-10.259 6.471-17.635 16.5-21 1.136-.381 6.112-2.327 5.5 1"/><path fill="#92eef5" d="M306 273c6.412 13.309 5.696 22.495-4 34-2.466-5.012 1.753-9.798 2-14 .058-.983.019-2.014 0-3-.114-5.973-.885-6.099-3-11-4.247-9.843-8.158-10.641-16-17 .928.16 7.163 1.808 7.5 2 4.49 2.554 8.87 13.869 13.5 9"/><path fill="#42b0c2" d="m763 299-7 1c18.322-12.236-.465-43.623-22-31v-4c2.532-1.145 4.243-1.612 7-2 1.43-.201 3.489-.08 5 0 18.259.962 26.16 19.773 17 36"/><path fill="#155576" d="m777 300-1-2c2.542-9.394 1.269-17.433-2-26-.841-2.204-1.523-5.129-3-7l2-2c11.623 13.241 11.153 21.48 4 37"/><path fill="#3eb2c7" d="M269 268c-11.128 5.979-13.646 21.437-4 30l-4 3c-9.592-12.46-7.245-28.263 7-36z"/><path fill="#55e0f0" d="M265 298c-9.646-8.563-7.128-24.021 4-30 9.151-4.917 20.605-3.23 26 6.5 10.622 19.157-14.354 37.391-30 23.5m8-25c-4.924 3.583-5.651 7.759-5 13 .2 1.611 1.956 1.866 2 2 .503 1.538-1.896 7.427 5.5 9 15.842 3.369 25.268-17.494 10.5-24-1.418-.625-9.957-3.085-10.5-3-2.264.355-1.503 2.274-2.5 3"/><path fill="#147d9a" d="M734 269c-22.03 12.913.849 45.125 22 31l7-1c-5.247 9.296-14.864 13.743-25.5 11-15.214-3.923-11.715-15.419-15.5-24.5-1.377-3.304-2.411.591-2.5.5-.986-1.004-.299-2.89-.5-3 5.32-6.591 6.317-14.074 15-18z"/><path fill="#5be1f1" d="M756 300c-21.151 14.125-44.03-18.087-22-31 21.535-12.623 40.322 18.764 22 31m-22-24c-11.904 11.592 4.137 27.038 15.5 20 7.914-4.902 2.442-8.439 2.5-9 .205-1.972 3.265-1.39 1-8-3.43-10.011-12.331-9.494-19-3"/><path fill="#fcfdfe" d="M241 276c-2.266 8.623-2.794 11.736-2 21l-47 72.5c11.196-34.323 26.232-74.449 51-101.5-1.375 2.615-1.367 5.592-2 8"/><path fill="#90edf6" d="M286 273c6.55 9.674-3.79 16.889-13 13 .953-2.1.297-6.47-2-7 .53-2.859 1.217-3.503 2-6 .997-.726.236-2.645 2.5-3 .543-.085 9.082 2.375 10.5 3"/><path fill="#95eff7" d="M753 279c-3.849.178-5.016 5.431-3 8-9.656.736-15.969 1.606-16-11 6.669-6.494 15.57-7.011 19 3"/><path fill="#538191" d="M709 280c-6.355 36.623 32.746 59.036 60 33 5.44 9.131 12.182 6.442 4 18.5-17.131 25.246-66.882 8.722-81-16.5-10.513-18.782-8.621-25.074 0-43 3.312 5.611 11.156 7.548 17 8"/><path fill="#aef1f4" d="M776 298c-5.749 21.245-35.292 26.464-52 13 26.4 18.145 61.183-5.621 48-36l2-3c3.269 8.567 4.542 16.606 2 26"/><path fill="#96dcea" d="M271 279c-.619 3.337 1.095 7.087-3 7-.651-5.241.076-9.417 5-13-.783 2.497-1.47 3.141-2 6"/><path fill="#44bcd1" d="M270 288c-.117-1.134 2.801-1.561 3-2 9.21 3.889 19.55-3.326 13-13 14.768 6.506 5.342 27.369-10.5 24-7.396-1.573-4.997-7.462-5.5-9"/><path fill="#80a9b7" d="M333 273c15.342 30.375-16.332 66.607-47.5 69-33.15 2.545-43.805-13.561-46.5-45-.794-9.264-.266-12.377 2-21 .942 17.698 2.555 29.73 18 40 28.88 19.204 59.031-1.986 55-35z"/><path fill="#b6d8e2" d="M580 273c3.183 10.127 7.055 55.52 4 62.5-1.338 3.056-6.397.056-8 2.5a768 768 0 0 0-19-1c-.899-2.511-10.237-2.879-12.5-3-3.191-.171-16.1.665-17.5-.5l-2-50c18.688-3.054 37.179-3.575 55-10.5"/><path fill="#45bdd2" d="M734 276c.031 12.606 6.344 11.736 16 11 .655-.05 1.341.023 2 0-.058.561 5.414 4.098-2.5 9-11.363 7.038-27.404-8.408-15.5-20"/><path fill="#497685" d="M801 278c25.789 39.31 44.561 82.226 54 128.5-.457 2.698-17.392-2.451-19-2.5-5.724-43.344-21.288-84.874-44-122z"/><path fill="#e4fafa" d="M273 286c-.199.439-3.117.866-3 2-.044-.134-1.8-.389-2-2 4.095.087 2.381-3.663 3-7 2.297.53 2.953 4.9 2 7"/><path fill="#16b6d6" d="m304 290-4-.5 1-10.5c2.115 4.901 2.886 5.027 3 11"/><path fill="#cdf7f8" d="M753 279c2.265 6.61-.795 6.028-1 8-.659.023-1.345-.05-2 0-2.016-2.569-.849-7.822 3-8"/><path fill="#0d2f4f" d="M510 336v2c-68.559.801-159.555 11.458-221 43l-1-1c62.036-33.158 152.18-43.051 222-44"/><path fill="#2d5b7e" d="M557 337c6.291.252 12.716.591 19 1 .657.043 1.344-.045 2 0l-1 2c-22.336-1.783-44.576-2.262-67-2v-2c15.665-.213 31.364.374 47 1"/><path fill="#c9ecf3" d="M510 338c22.424-.262 44.664.217 67 2a611 611 0 0 1 61 8l-7 14c-2.028-.31-3.968-.709-6-1-81.064-11.6-198.945-13.719-277.5 11-7.913 2.49-16.808 7.352-21 15l40.5-8c-31.432 7.069-111.014 28.392-120 63.5-5.252 20.519 11.542 97.292 17 121.5-1.994 3.739-3.121-.261-3.5 0-2.242 1.543 5.105 30.2 6.5 35.5 6.712 25.508 15.086 48.107 27 71.5 19.677 38.636 41.54 56.608 84 70-4.686 2.709 9.744 6.83 12 8 3.811 1.977 8.788 5.509 12 7v3c-45.836-14.075-88.312-38.808-113-81-27.709-47.355-43.847-118.102-50-172.5-6.553-57.929-7.018-95.23 50-124.5 61.445-31.542 152.441-42.199 221-43"/><path fill="#08314f" d="M676 352c25.523 7.296 82.867 27.21 94 51-9.683-4.742-16.153-12.563-26-19-16.59-10.846-36.042-18.308-55-24-15.78-4.737-34.764-9.024-51-12a611 611 0 0 0-61-8l1-2c30.613 2.091 68.637 5.607 98 14"/><path fill="#ade0ed" d="M689 360c4.944 9.293 16.713 8.946 25.5 13 4.405 2.033 25.484 15.297 27 15 .231-.045 1.885-3.419 2.5-4 9.847 6.437 16.317 14.258 26 19 1.557 3.327 2.683 6.622 4 10 3.985 10.22 8.062 20.074 10 31-4.863-5.414-5.785-13.018-10-19.5-6.138-9.439-31.828-29.755-42.5-31.5-1.018-.166-1.21 3.401-3 3-1.33-.298-16.747-6.433-17.5-7-3.371-2.54-6.643-12.147-13.5-15-11.725-4.879-51.705-9.738-66.5-12l7-14c16.236 2.976 35.22 7.263 51 12"/><path fill="#a3d1de" d="M625 361c-.725 4.059-6.264 12.807 1.5 11l-1.5 2c-75.636-13.287-183.118-11.84-258 5l-40.5 8c4.192-7.648 13.087-12.51 21-15 78.555-24.719 196.436-22.6 277.5-11"/><path fill="#cbecf3" d="M744 384c-.615.581-2.269 3.955-2.5 4-1.516.297-22.595-12.967-27-15-8.787-4.054-20.556-3.707-25.5-13 18.958 5.692 38.41 13.154 55 24"/><path fill="#8cbfce" d="M631 362c14.795 2.262 54.775 7.121 66.5 12 6.857 2.853 10.129 12.46 13.5 15-5.327 3.147-2.608 4.304 2 5.5l-3 .5c-23.901-8.162-59.924-16.595-85-21l1.5-2c-7.764 1.807-2.225-6.941-1.5-11 2.032.291 3.972.69 6 1"/><path fill="url(#b)" d="M625 374c25.076 4.405 61.099 12.838 85 21 70.767 24.166 70.719 47.462 59 116.5-7.817 46.05-28.031 134.218-51 173.5-49.569 84.773-258.409 81.733-340 56-42.46-13.392-64.323-31.364-84-70-10.71-35.372-21.847-70.841-30-107-5.458-24.208-22.252-100.981-17-121.5 8.986-35.108 88.568-56.431 120-63.5 74.882-16.84 182.364-18.287 258-5m-356 70c-14.908 17.025-7.765 43.521-4 64.5 18.412 102.603 53.005 200.667 164 227.5 74.414 17.989 188.533 9.579 247.5-44 34.396-31.253 56.354-92.424 68.5-136.5 7.457-27.061 25.042-86.526 10-110-.262-.409-7.14-8.879-8-5.5-2.682-2.724-10.472-7.888-14-10-87.707-52.512-393.614-66.383-464 14" style="fill:url(#b)"/>/&gt;<path fill="#bbd4dc" d="M213 396c-2.593 4.462-7.986 8.662-7 14-11.591-12.32-26.803-5.052-41-3.5-.883-1.479 6.812-29.485 8-33.5 2.965 1.022 2.028-2.115 6.5 0 8.59 4.063 24.886 16.967 33.5 23"/><path fill="#154765" d="M289 381c-57.018 29.27-56.553 66.571-50 124.5 6.153 54.398 22.291 125.145 50 172.5l-1 4c-17.947-31.089-29.488-66.076-38-101-4.65-19.078-8.166-38.551-11-58-5.059-34.71-11.849-71.043 4-104 11.044-18.317 26.567-29.148 45-39z"/><path fill="url(#c)" d="m733 430 10 38.5c-2.564 104.272-49.868 207.949-157.5 237.5-88.967 24.426-169.594 5.628-251.5-31-30.974-38.236-52.753-108.37-63-156.5-4.759-22.351-14.388-54.871-2-74.5 70.386-80.383 376.293-66.512 464-14m-349 34h-1c1.177-6.541-1.718-24.929 0-29.5 1.36-3.619 6.275-1.786 8-3 1.269-.893 6.947-18.804 9.5-21.5-16.17-2.329-31.032 3.017-46 9-5.492 2.195-49.031 23.922-51 26-1.135 1.199-2.4 5.27-2.5 6.5-.911 11.16 13.395 70.321 17 85 5.781 23.541 13.706 46.6 20 70 2.235 3.085 28.826-1.956 34-2.5.618.688 6.598 4.757 8 6 63.031 117.181 247.711 92.9 274-37.5C686.483 411.375 477.18 326.787 384 464" style="fill:url(#c)"/>/&gt;<path fill="#6fa3b4" d="M784 444c.522 2.944 1.747 6.377 2 9-7.998 7.982-5.428 26.089-7 37.5-7.631 55.394-18.764 108.464-41 160-4.702 10.898-11.461 27.283-20 34.5 22.969-39.282 43.183-127.45 51-173.5 11.719-69.038 11.767-92.334-59-116.5l3-.5c-4.608-1.196-7.327-2.353-2-5.5.753.567 16.17 6.702 17.5 7 1.79.401 1.982-3.166 3-3 10.672 1.745 36.362 22.061 42.5 31.5 4.215 6.482 5.137 14.086 10 19.5"/><path fill="#064b6d" d="M380 610c-4.559-8.476-6.015-14.17-9-23 31.324 87.642 135.192 123.762 215.5 76 81.726-48.606 92.275-164.309 21.5-228-3.565-3.208-7.116-6.182-11-9-24.741-17.951-53.261-28.328-84-29-46.433-1.016-89.677 19.681-118 56-18.829 24.144-30.183 53.008-31 84-.429 16.278 2.606 31.256 6 47-6.92-22.39-9.104-32.406-7-57 2.448-28.609 13.419-38.631 19-61 1.234-.006 1.489-1.248 2-2 93.18-137.213 302.483-52.625 270 108.5-26.289 130.4-210.969 154.681-274 37.5"/><path fill="#9ebfca" d="M243 419c-15.849 32.957-9.059 69.29-4 104l1 16.5-9 1.5c-.514-4.505-.109-19.363-6-19-.594-33.409-2.592-66.29-12-98.5-1.089-3.728-6.552-11.072-7-13.5-.986-5.338 4.407-9.538 7-14 4.825 3.379 29.977 18.414 30 23"/><path fill="#2bc9e3" d="M513 397c.018 1.751-.46 10.678-1 11.5-2.225 3.388-9.588-.815-8 3.5-26.21 1.047-52.322 10.557-73 26.5-.028 3.254 13.23 3.389 16 5 .312.451-7.116 6.85-8 7.5-4.78 3.515-10.937 5.208-15.5 9-7.114 5.912-25.826 45.841-28.5 56-1.755-1.807-11.03-2.637-11.5-3-4.621-3.565 19.008-50.417 26.5-54.5l-15-5.5c28.323-36.319 71.567-57.016 118-56"/><path fill="#12a6ca" d="m597 426-25 46c-12.415-11.19-35.505-22.721-52-25l4-22c7.536.477 46.462 8.38 48.5 7 7.381-4.998-27.752-16.268-31-17-12.062-2.718-25.169-3.493-37.5-3-1.588-4.315 5.775-.112 8-3.5.54-.822 1.018-9.749 1-11.5 30.739.672 59.259 11.049 84 29"/><path fill="#c7e8f0" d="M220 476c-5.103 4.71.949 26.746-1 29.5-.777 1.098-15.911.241-18 4.5-.346-7.054-6.256-48.295-5-50.5 1.344-2.36 21.021-3.076 19-7l-18.5 3.5c-2.787-.883-2.82-11.623-3.5-14l-3-17.5c4.265 6.574 9.898 2.53 17.5 3.5.778-.433-2.969-10.023-6-11-6.29-2.027-12.341 4.089-17.5 1-2.192-3.72-4.219-6.243-8-8.5 37.331-16.635 41.212 42.224 44 66.5"/><path fill="#bfe5ee" d="M837 421c-5.402.721-11.01-4.867-16.5-3-2.06.701-6.896 11.586-6 12 5.238-5.108 13.253 1.138 14 1 1.474-.272 2.212-7.623 3.5-2-1.233 3.398-3.992 26.532-5 27.5-2.218 2.129-16.311-3.433-20-2 1.896 3.454 18.172 4.695 19 6 1.143 1.802-3.613 36.358-4 42.5l-3-.5c.378 6.683 1.066 10.576-7.5 10.5-12.973-.115-5.206-4.177-11.5-11 1.07-18.362 6.097-79.022 20.5-90 7.655-5.834 16.996-3.349 25.5-1.5-3.482 3.51-6.38 6.169-9 10.5"/><path fill="#caf5fb" d="M383 464c-.02.11-.477-.096-1 2-5.581 22.369-16.552 32.391-19 61-5.956-6.286-15.042 3.182-19.5 2-5.433-1.44-21.422-51.792-25-59 4.814 33.865 16.518 68.958 32.5 99.5 3.889 7.432 16.09 29.03 21 34.5-5.174.544-31.765 5.585-34 2.5-6.294-23.4-14.219-46.459-20-70-3.605-14.679-17.911-73.84-17-85 .1-1.23 1.365-5.301 2.5-6.5 1.969-2.078 45.508-23.805 51-26 14.968-5.983 29.83-11.329 46-9-2.553 2.696-8.231 20.607-9.5 21.5-1.725 1.214-6.64-.619-8 3-1.718 4.571 1.177 22.959 0 29.5"/><path fill="#c8e7ee" d="m181 419-25 5.5c11.962 1.721 4.54 4.612 7.5 6.5 3.824 2.439 20.808-.229 19.5-8 5.582 10.856 6.43 20.624 9 32.5l-20 7.5c-1.77-.166-2.564.105-4 1-2.131-12.13-6.761-45.247-24.5-32-5.216-2.705 20.375-35.781 37.5-13"/><path fill="#a6f2f9" d="M504 412c12.331-.493 25.438.282 37.5 3 3.248.732 38.381 12.002 31 17-2.038 1.38-40.964-6.523-48.5-7-15.903-1.007-31.946-1.652-46.5 6l12.5 17c-6.752 1.113-17.41 2.597-22 8-10.135-5.604-17.538-5.506-29-5 .884-.65 8.312-7.049 8-7.5-2.77-1.611-16.028-1.746-16-5 20.678-15.943 46.79-25.453 73-26.5"/><path fill="#1c4963" d="M786 501c-3.031 38.282-12.019 90.136-27 126 9.612-46.8 24.485-94.494 27-142.5.47-8.966.841-22.778 0-31.5-.253-2.623-1.478-6.056-2-9-1.938-10.926-6.015-20.78-10-31 17.456 25.766 14.347 58.363 12 88"/><path fill="#b5d6df" d="M876 427c-1.945 2.7-11.073 3.975-11 0l-24-7c10.978-13.729 27.307-6.335 35 7"/><path fill="#f6fcfd" d="M193 442c-2.356-8.228-4.606-16.544-9-24 5.159 3.089 11.21-3.027 17.5-1 3.031.977 6.778 10.567 6 11-7.602-.97-13.235 3.074-17.5-3.5z"/><path fill="#f0f9fb" d="M837 421c-.843 1.393-4.839 7.557-5 8-1.288-5.623-2.026 1.728-3.5 2-.747.138-8.762-6.108-14-1-.896-.414 3.94-11.299 6-12 5.49-1.867 11.098 3.721 16.5 3"/><path fill="#f3f9fa" d="M183 423c1.308 7.771-15.676 10.439-19.5 8-2.96-1.888 4.462-4.779-7.5-6.5l25-5.5c1.448 1.926 1.292 2.622 2 4m-6.5 1c-1.257-.052-10.949.905-11.5 3.5l13.5-1.5c1.441-2.316-.348-1.932-2-2"/><path fill="#e4f2f5" d="M865 427h-6.5c4.047 9.989-13.257 6.474-18 3-1.996-1.462 2.748-4.835-2.5-4 1.103-2.401 1.005-3.505 3-6z"/><path fill="#b7d6e2" d="M176.5 424c1.652.068 3.441-.316 2 2l-13.5 1.5c.551-2.595 10.243-3.552 11.5-3.5"/><path fill="#2bc9e3" d="m524 425-4 22c-10.494-1.45-19.663-.704-30 1l-12.5-17c14.554-7.652 30.597-7.007 46.5-6"/><path fill="#0a8db5" d="m608 435-30 43c-1.375-1.508-4.504-4.652-6-6l25-46c3.884 2.818 7.435 5.792 11 9"/><path fill="#c5e9f1" d="M865 427c-.073 3.975 9.055 2.7 11 0 1.069 1.854 3.082 3.537 3 6-3.613-.699-6.047-3.009-10.5-2-9.952 2.255-13.091 28.571-14.5 37-3.092-.009-1.923-4.385-4.5-6-.565-.354-2.68.327-3.5 0-5.141-2.052-10.833-2.476-16-4.5 1.776-10.903 3.446-21.587 8-31.5 5.248-.835.504 2.538 2.5 4 4.743 3.474 22.047 6.989 18-3z"/><path fill="url(#d)" d="M747 440c18.838 19.133 9.02 52.917 4 77.5-10.625 52.028-40.236 137.862-80.5 173.5-57.822 51.179-166.002 60.762-238.5 43-37.017-9.069-73.86-29.2-98-59 81.906 36.628 162.533 55.426 251.5 31C693.132 676.449 740.436 572.772 743 468.5L733 430c3.528 2.112 11.318 7.276 14 10" style="fill:url(#d)"/>/&gt;<path fill="#042443" d="M879 433c.621.12 1.355-.057 2 0 13.409 34.843 7.764 140.959-9 175-1.501-2.146.433-7.338 2-9.5-2.427-2.923-3.357.923-6 1.5h-6c-8.278-4.182-7.629-23.057-13-29-.684-7.71-.926-15.248-1-23-.245-25.818 1.747-54.564 6-80 1.409-8.429 4.548-34.745 14.5-37 4.453-1.009 6.887 1.301 10.5 2m-10 5c-5.14 4.495-9.961 36.478-11 44.5-2.809 21.684-5.862 58.29-4 79.5 1.485 16.917 12.711 56.329 24 19 5.326-17.612 7.307-37.559 7-56 1.039-15.343 2.028-32.162 1-47.5-.426-6.358-3.962-50.903-17-39.5"/><path fill="#c6f5fb" d="M154 437c-12.497-2.447-5.772 10.752-7 19.5-2.715 19.333-7.387 32.118-8 53.5h-3c-.237-12.604-.828-70.032 10.5-76 4.855-2.558 5.277-.064 7.5 3"/><path fill="#047ba4" d="M608 435c70.775 63.691 60.226 179.394-21.5 228-80.308 47.762-184.176 11.642-215.5-76-.345-1.021-.668-1.926-1-3-3.394-15.744-6.429-30.722-6-47 2.479.416 14.096-.774 15 .5.637.898.47 18.779 1 22 20.912 127.02 190.42 151.243 248 38L596 578c14.669-34.24 6.672-72.94-18-100z"/><path fill="#bcf4fb" d="M885 525c-.402-24.181-6.826-45.583-10-68.5-.799-5.771 2.426-13.409-1-16.5-.2-.18-4.365-.912-5-2 13.038-11.403 16.574 33.142 17 39.5 1.028 15.338.039 32.157-1 47.5"/><path fill="#02b2d6" d="M154 437c10.811 14.901 16.045 116.044 12 136h-3c3.685-11.201 2.792-24.674 3-36.5-2.749 5.595-3.342 41.832-7.5 42.5L140 548c-1.482-12.063-1.35-25.812-1-38 .613-21.382 5.285-34.167 8-53.5 1.228-8.748-5.497-21.947 7-19.5m-2.5 11c.855 27.54 6.294 54.65 9 82 1.202-5.968-4.912-82.589-9-82"/><path fill="#00213d" d="m429 736 3-2c72.498 17.762 180.678 8.179 238.5-43 40.264-35.638 69.875-121.472 80.5-173.5 5.02-24.583 14.838-58.367-4-77.5.86-3.379 7.738 5.091 8 5.5 15.042 23.474-2.543 82.939-10 110-12.146 44.076-34.104 105.247-68.5 136.5-58.967 53.579-173.086 61.989-247.5 44"/><path fill="#03abd2" d="M874 440c-.536 2.791.745 8.201 0 10.5-.573 1.768-.388-2.651-3-.5-6.968 5.736-8.66 73.618-10 86-2.686 2.528 1.412 8.063-4 7v16l-3 3c-1.862-21.21 1.191-57.816 4-79.5 1.039-8.022 5.86-40.005 11-44.5.635 1.088 4.8 1.82 5 2"/><path fill="#02b7da" d="M885 525c.307 18.441-1.674 38.388-7 56l-3-3c1.355-2.66 5.457-18.2 6-21.5.053-.322.588-6.685-.5-6.5L864 580c-.331-.24-1.936-.908-2-1l-5-36c5.412 1.063 1.314-4.472 4-7l10-86c2.612-2.151 2.427 2.268 3 .5.745-2.299-.536-7.709 0-10.5 3.426 3.091.201 10.729 1 16.5 3.174 22.917 9.598 44.319 10 68.5"/><path fill="#002e52" d="M334 675c24.14 29.8 60.983 49.931 98 59l-3 2c-110.995-26.833-145.588-124.897-164-227.5-3.765-20.979-10.908-47.475 4-64.5-12.388 19.629-2.759 52.149 2 74.5 10.247 48.13 32.026 118.264 63 156.5"/><path fill="#001c42" d="M520 447c16.495 2.279 39.585 13.81 52 25 1.496 1.348 4.625 4.492 6 6 24.672 27.06 32.669 65.76 18 100-2.478 5.783-8.624 14.24-13 19-.234-.354-5.639-5.776-6-6-10.403-5.037.907-13.176 4-21.5 10.767-28.973 4.708-67.597-21-83.5-4.238-9.043-17.261-14.541-27-18-3.119-3.544 3.665-13.053 3-14.5-.463-1.008-19.203-5.293-21.5-5.5-8.543-.771-57.793.738-34.5 16-.069.017.158 1.181-1 1-1.908-2.482-8.066-7.378-11-9 4.59-5.403 15.248-6.887 22-8 10.337-1.704 19.506-2.45 30-1"/><path fill="#68dcef" d="M151.5 448c4.088-.589 10.202 76.032 9 82-2.706-27.35-8.145-54.46-9-82"/><path fill="#002d56" d="M533 468c-16.771-5.956-35.416-8.332-53-4-23.293-15.262 25.957-16.771 34.5-16 2.297.207 21.037 4.492 21.5 5.5.665 1.447-6.119 10.956-3 14.5"/><path fill="#61dcee" d="M861 536c1.34-12.382 3.032-80.264 10-86z"/><path fill="#fdfefe" d="M468 456c2.934 1.622 9.092 6.518 11 9 1.492 1.941 5.346 8.803 6 11 8.933 30.003-14.989 54.181-45 49-1.571-.271-4.692-.541-6-1-2.773-.974-10.72-6.732-13-9-5.8-5.768-8.299-11.638-11.5-19L394 528.5c-1.12-2.929.224-9.551 1-12.5 2.674-10.159 21.386-50.088 28.5-56 4.563-3.792 10.72-5.485 15.5-9 11.462-.506 18.865-.604 29 5"/><path fill="#12a6ca" d="M395 516c-.776 2.949-2.12 9.571-1 12.5l15.5-32.5c3.201 7.362 5.7 13.232 11.5 19-28.705 72.307 54.377 142.076 123 110 18.459 23.048 57.384-.258 39-28 4.376-4.76 10.522-13.217 13-19l32 19.5c-57.58 113.243-227.088 89.02-248-38-.53-3.221-.363-21.102-1-22-.904-1.274-12.521-.084-15-.5.817-30.992 12.171-59.856 31-84l15 5.5c-7.492 4.083-31.121 50.935-26.5 54.5.47.363 9.745 1.193 11.5 3"/><path fill="#a8e0ed" d="M786 453c.841 8.722.47 22.534 0 31.5-2.515 48.006-17.388 95.7-27 142.5-.091.217-1.531 1.914-2 3-20.322 47.035-42.552 78.776-87 105-15.625 4.738-31.118 10.928-47 15-13.546 3.473-27.687 6.764-41.5 9-14.203 2.3-58.342 3.378-68 8-.407.195-1.959 1.489-1 2 1.639 2.033 13.866.08 14.5 5-42.418 1.917-84.46-2.551-125-15v-3c5.732 2.661 9.806 5.193 16.5 6 2.738-10.259-20.601-11.285-28.5-13-2.256-1.17-16.686-5.291-12-8 81.591 25.733 290.431 28.773 340-56 8.539-7.217 15.298-23.602 20-34.5 22.236-51.536 33.369-104.606 41-160 1.572-11.411-.998-29.518 7-37.5M474.5 764c-1.305 2.245 6.155 3.823 7 4 7.972 1.665 20.148 1.484 28.5 1.5z"/><path fill="url(#e)" d="M198 533c-6.502.313-22.048 8.206-24 0-.359-20.938-2.391-48.462-6-69 1.436-.895 2.23-1.166 4-1 8.717.819 13.112-2.477 21-1.5 3.311 23.814 5.038 47.513 5 71.5" style="fill:url(#e)"/>/&gt;<path fill="#004a77" d="M533 468c9.739 3.459 22.762 8.957 27 18-16.781-10.381-36.633-15.839-56.5-15-4.427.187-14.841 1.928-18.5 5-.654-2.197-4.508-9.059-6-11 1.158.181.931-.983 1-1 17.584-4.332 36.229-1.956 53 4"/><path fill="url(#f)" d="M846 462c.82.327 2.935-.354 3.5 0 2.577 1.615 1.408 5.991 4.5 6-4.253 25.436-6.245 54.182-6 80-4.422-.541.031-6.969-3.5-9-1.862-1.071-17.252-1.811-20.5-2-.097-24.959 1.042-49.82 5-74.5l17 3z" style="fill:url(#f)"/>/&gt;<path fill="#82f7f9" d="M384 464c-.511.752-.766 1.994-2 2 .523-2.096.98-1.89 1-2z"/><path fill="#7de6f5" d="M363 527c-2.104 24.594.08 34.61 7 57 .332 1.074.655 1.979 1 3 2.985 8.83 4.441 14.524 9 23-1.402-1.243-7.382-5.312-8-6-4.91-5.47-17.111-27.068-21-34.5-15.982-30.542-27.686-65.635-32.5-99.5 3.578 7.208 19.567 57.56 25 59 4.458 1.182 13.544-8.286 19.5-2"/><path fill="#003b66" d="M560 486c25.708 15.903 31.767 54.527 21 83.5-3.093 8.324-14.403 16.463-4 21.5-12.058-7.476-24.896-3.509-34 6-2.735 2.857-2.079 2.47-4 5-1.42 1.87-3.014 7.578-3.5 8-5.083 4.414-32.393 5.829-39.5 5-7.739-5.217-16.725-7.547-24.5-13-24.315-17.054-37.103-47.821-31.5-77 30.011 5.181 53.933-18.997 45-49 3.659-3.072 14.073-4.813 18.5-5 19.867-.839 39.719 4.619 56.5 15"/><path fill="#a5d1dc" d="M223 522c.156 11.094-12.705 7.323-21 11-.073-7.541-.629-15.434-1-23 2.089-4.259 17.223-3.402 18-4.5 1.949-2.754-4.103-24.79 1-29.5 1.697 14.774 2.809 31.122 3 46"/><path fill="#538291" d="M798 499c-1.71 29.413-2.977 65.264 3 94-1.205-2.541-10.512-4.458-11-3.5-4.101 8.046 5.918 53.207 18 59-47.737 71.703-111.685 132.161-195 159.5l-5-38c33.479-9.504 74.095-28.991 99.5-53 22.678-21.432 40.342-56.985 49.5-87 .469-1.086 1.909-2.783 2-3 14.981-35.864 23.969-87.718 27-126 6.007-.217 7.52 3.187 12-2"/><path fill="#97c7d5" d="M822 503c-.539 8.555-1.818 17.421-2 26-2.542 1.264.813 4.968-2.5 6-1.51.47-20.64-3-18.5-9 .061-8.109.53-15.938 1-24 6.294 6.823-1.473 10.885 11.5 11 8.566.076 7.878-3.817 7.5-10.5z"/><path fill="#21d3ea" d="M139 510c-.35 12.188-.482 25.937 1 38 .568 4.626 6.389 30.354 9 32.5 6.83 5.614 12.173-1.946 14-7.5h3c-1.185 5.847-6.849 27.164-16.5 21-9.839-6.284-13.251-70.782-13.5-84z"/><path fill="#003058" d="M434 524c-16.249 40.273 21.756 86.303 62 91 7.107.829 34.417-.586 39.5-5 .486-.422 2.08-6.13 3.5-8-1.548 6.922.495 17.375 5 23-68.623 32.076-151.705-37.693-123-110 2.28 2.268 10.227 8.026 13 9"/><path fill="#7da6b4" d="M221 571c-4.887-2.436 1.699-17.695-1.5-20l-17.5 5c.355-6.905.037-14.073 0-21-.004-.661.006-1.339 0-2 8.295-3.677 21.156.094 21-11 .202 15.703.008 33.481-2 49"/><path fill="#4b7582" d="M231 541c2.396 21.014 6.611 84.424-14.5 96l-23.5 6c-2.5-5.513-5.546-10.933-8-16.5 13.866-1.644 19.678 2.749 28-11 13.162-21.747 12.447-68.323 12-93.5 5.891-.363 5.486 14.495 6 19"/><path fill="#6f98a6" d="M250 581c.631 22.118-.399 43.162-14 61.5-6.205 8.366-16.331 13.815-23 20.5-.138.138-3.072-.282-3 2.5l18 34.5c-14.097-19.014-25.115-35.198-35-57l23.5-6c21.111-11.576 16.896-74.986 14.5-96l9-1.5-1-16.5c2.834 19.449 6.35 38.922 11 58"/><path fill="#005281" d="M440 525c-5.603 29.179 7.185 59.946 31.5 77 7.775 5.453 16.761 7.783 24.5 13-40.244-4.697-78.249-50.727-62-91 1.308.459 4.429.729 6 1"/><path fill="#6798a6" d="M820 529c-.201 9.492-.419 19.535 0 29-3.857 2.101-16.6-5.06-18-1.5.046 9.304 1.417 18.388 3 27.5 2.177 12.534 5.408 25.141 12 36-17.942-13.161-18.158-73.04-18-94-2.14 6 16.99 9.47 18.5 9 3.313-1.032-.042-4.736 2.5-6"/><path fill="#6e96a2" d="M198 533c-.001.661.006 1.339 0 2-.065 6.924.451 14.111 0 21-3.32 1.792-22.13 3.815-23 5.5-.612 1.185-1.826 21.275-3 26.5-2.268 10.099-4.522 18.604-13 25.5 6.434 6.668 16.485 5.203 24 1.5-9.099 10.076-21.284 7.541-28-3.5 21.608-12.573 19.385-56.021 19-78.5 1.952 8.206 17.498.313 24 0"/><path fill="#164259" d="M202 535c.037 6.927.355 14.095 0 21-.297 5.788-1.175 15.244-2 21l-4 1c1.043-6.973 1.539-14.953 2-22 .451-6.889-.065-14.076 0-21z"/><path fill="#034b70" d="M163 573c-1.827 5.554-7.17 13.114-14 7.5-2.611-2.146-8.432-27.874-9-32.5l18.5 31c4.158-.668 4.751-36.905 7.5-42.5-.208 11.826.685 25.299-3 36.5"/><path fill="#5c8895" d="M848 548c.074 7.752.316 15.29 1 23 1.271 14.332 2.479 36.296 18 42.5-5.886 9.964-17.96 13.277-27 5.5 7.404.637 16.102 2.904 22-3.5-6.081-6.894-9.551-12.544-12-21.5-2.637-9.644-3.437-19.5-3-29.5-1.27-3.156-18.838-3.978-23-4.5-.429-7.564.029-15.407 0-23 3.248.189 18.638.929 20.5 2 3.531 2.031-.922 8.459 3.5 9"/><path fill="#016f99" d="m857 543 5 36c-4.129-5.956-3.548-13.049-5-20z"/><path fill="#004c73" d="M875 578c-2.335 4.582-4.757 6.677-10.5 5-2.366-.691-.377-2.911-.5-3l16.5-30c1.088-.185.553 6.178.5 6.5-.543 3.3-4.645 18.84-6 21.5"/><path fill="#5b828f" d="M221 571c-1.856 14.343-5.549 34.236-15 45 6.608-8.671 7.643-26.101 10-36.5l-17 4.5c.405-2.135.682-4.782 1-7 .825-5.756 1.703-15.212 2-21l17.5-5c3.199 2.305-3.387 17.564 1.5 20"/><path fill="#497683" d="M820 558c.378 8.544 1.367 22.762 3 31l-18-5c-1.583-9.112-2.954-18.196-3-27.5 1.4-3.56 14.143 3.601 18 1.5"/><path fill="#567d8a" d="M198 556c-.461 7.047-.957 15.027-2 22-1 6.687-3.682 16.571-6 23l.5-17-18.5 4c1.174-5.225 2.388-25.315 3-26.5.87-1.685 19.68-3.708 23-5.5"/><path fill="#07cae4" d="M862 579c.064.092 1.669.76 2 1 .123.089-1.866 2.309.5 3 5.743 1.677 8.165-.418 10.5-5l3 3c-11.289 37.329-22.515-2.083-24-19l3-3c1.452 6.951.871 14.044 5 20"/><path fill="#3f6976" d="m850 594-18.5-2 .5 13c-5.42-14.363-7.13-29.66-8-45 4.162.522 21.73 1.344 23 4.5-.437 10 .363 19.856 3 29.5"/><path fill="#72a1b2" d="M264 564c8.153 36.159 19.29 71.628 30 107-11.914-23.393-20.288-45.992-27-71.5-1.395-5.3-8.742-33.957-6.5-35.5.379-.261 1.506 3.739 3.5 0"/><path fill="#8fa6a2" d="M168.5 571c1.732 8.272-4.07 34.159-16 28 13.195-2.601 13.198-17.529 16-28"/><path fill="#375b66" d="M206 616c-5.522 7.246-14.946 7.508-23 4.5 8.822-8.647 13.748-24.63 16-36.5l17-4.5c-2.357 10.399-3.392 27.829-10 36.5"/><path fill="#a2c5d1" d="M288 682c20.196 34.985 43.59 53.794 80 71l-10 37c-60.11-28.694-108.854-70.948-145-127 6.669-6.685 16.795-12.134 23-20.5 13.601-18.338 14.631-39.382 14-61.5 8.512 34.924 20.053 69.911 38 101"/><path fill="#244e5b" d="M823 589c2.182 11.004 6.881 25.479 15 33.5-7.559 3.368-14.756 2.08-21-2.5-6.592-10.859-9.823-23.466-12-36z"/><path fill="#325661" d="M190 601c-1.964 5.448-2.934 9.497-7 14-7.515 3.703-17.566 5.168-24-1.5 8.478-6.896 10.732-15.401 13-25.5l18.5-4z"/><path fill="#fdfefe" d="M577 591c.361.224 5.766 5.646 6 6 18.384 27.742-20.541 51.048-39 28-4.505-5.625-6.548-16.078-5-23 .07-.312 3.891-3.547 4-5 9.104-9.509 21.942-13.476 34-6"/><path fill="#336272" d="M801 593c1.946 9.354 8.99 33.277 19.5 36 2.246.582 12.243-1.314 12.5.5C787.981 730.583 703.036 803.197 595 829l-49.5 7-1.5-14c19.919-1.595 39.84-5.532 59-11 3.304-.943 6.736-1.929 10-3 83.315-27.339 147.263-87.797 195-159.5-12.082-5.793-22.101-50.954-18-59 .488-.958 9.795.959 11 3.5"/><path fill="#1b424f" d="M850 594c2.449 8.956 5.919 14.606 12 21.5-5.898 6.404-14.596 4.137-22 3.5-4.369-3.759-6.057-8.85-8-14l-.5-13z"/><path fill="#003058" d="M543 597c-.109 1.453-3.93 4.688-4 5 1.921-2.53 1.265-2.143 4-5"/><path fill="#6e7483" d="M868 600c-2.671.583-2.298 1.87-6 0z"/><path fill="#25566b" d="M608 770c-3.271.929-6.793 2.212-10 3-36.496 8.965-74.531 11.577-112 9-15.174-1.044-30.095-3.174-45-6-25.918-4.914-49.157-11.733-73-23-36.41-17.206-59.804-36.015-80-71l1-4c24.688 42.192 67.164 66.925 113 81 40.54 12.449 82.582 16.917 125 15 29.422-1.33 58.771-5.585 87-14 19.913-5.936 38.185-14.489 56-25 44.448-26.224 66.678-57.965 87-105-9.158 30.015-26.822 65.568-49.5 87-25.405 24.009-66.021 43.496-99.5 53"/><path fill="#85aebb" d="M213 663c36.146 56.052 84.89 98.306 145 127 26.123 12.47 53.379 22.728 82 28 8.036 1.48 15.874 2.19 24 3l-2 13.5c3.654 1.819 6.36-3.327 8 2.5-99.19-10.956-182.806-57.161-242-137l-18-34.5c-.072-2.782 2.862-2.362 3-2.5"/><path fill="#98d2e2" d="M670 735c-17.815 10.511-36.087 19.064-56 25-.792-4.658 6.583-6.945 9-10 15.882-4.072 31.375-10.262 47-15"/><path fill="#87bbcc" d="M402 756c-3.212-1.491-8.189-5.023-12-7 7.899 1.715 31.238 2.741 28.5 13-6.694-.807-10.768-3.339-16.5-6"/><path fill="#85b8c8" d="M623 750c-2.417 3.055-9.792 5.342-9 10-28.229 8.415-57.578 12.67-87 14-.634-4.92-12.861-2.967-14.5-5-.959-.511.593-1.805 1-2 9.658-4.622 53.797-5.7 68-8 13.813-2.236 27.954-5.527 41.5-9"/><path fill="#b6d8e2" d="M441 776c-.322 13.365-4.936 29.23-1 42-28.621-5.272-55.877-15.53-82-28l10-37c23.843 11.267 47.082 18.086 73 23"/><path fill="#93cbdc" d="m474.5 764 35.5 5.5c-8.352-.016-20.528.165-28.5-1.5-.845-.177-8.305-1.755-7-4"/><path fill="#6692a1" d="m608 770 5 38c-3.264 1.071-6.696 2.057-10 3l-5-38c3.207-.788 6.729-2.071 10-3"/><path fill="#80a9b7" d="m598 773 5 38c-19.16 5.468-39.081 9.405-59 11-18.391 1.473-39.546 1.703-58 1v-41c37.469 2.577 75.504-.035 112-9"/><path fill="#a2c5d1" d="M486 782v41c-7.42-.283-14.646-1.267-22-2-8.126-.81-15.964-1.52-24-3-3.936-12.77.678-28.635 1-42 14.905 2.826 29.826 4.956 45 6"/>/&gt;<path fill="#608a99" d="M486 823c18.454.703 39.609.473 58-1l1.5 14 49.5-7c-42.79 10.22-81.211 12.837-125 8-1.64-5.827-4.346-.681-8-2.5l2-13.5c7.354.733 14.58 1.717 22 2"/>/&gt;</svg>