<svg xmlns="http://www.w3.org/2000/svg" width="1024" height="1024"><defs><linearGradient id="a" x1="423.522" x2="560.934" y1="330.257" y2="556.847" gradientUnits="userSpaceOnUse"><stop offset="0%" style="stop-color:#89ddec"/><stop offset="85.66%" style="stop-color:#37bddb"/></linearGradient></defs><defs><linearGradient id="b" x1="387.547" x2="690.54" y1="487.108" y2="489.262" gradientUnits="userSpaceOnUse"><stop offset="0%" style="stop-color:#1c91b0"/><stop offset="100%" style="stop-color:#09728f"/></linearGradient></defs><defs><linearGradient id="c" x1="245.525" x2="444.488" y1="469.869" y2="829.501" gradientUnits="userSpaceOnUse"><stop offset="28.954%" style="stop-color:#d9edf3"/><stop offset="100%" style="stop-color:#8eb4bf"/></linearGradient></defs><defs><linearGradient id="d" x1="180.262" x2="106.439" y1="546.939" y2="612.902" gradientUnits="userSpaceOnUse"><stop offset="0%" style="stop-color:#189acd"/><stop offset="100%" style="stop-color:#32d0fa"/></linearGradient></defs><defs><linearGradient id="e" x1="844.163" x2="917.394" y1="548.299" y2="608.814" gradientUnits="userSpaceOnUse"><stop offset="0%" style="stop-color:#1a9bcf"/><stop offset="100%" style="stop-color:#31cffa"/></linearGradient></defs><defs><linearGradient id="f" x1="369.975" x2="610.132" y1="566.122" y2="848.904" gradientUnits="userSpaceOnUse"><stop offset="13.477%" style="stop-color:#d7edf3"/><stop offset="100%" style="stop-color:#739eab"/></linearGradient></defs><defs><linearGradient id="g" x1="790.431" x2="788.156" y1="563.704" y2="643.672" gradientUnits="userSpaceOnUse"><stop offset="0%" style="stop-color:#839ba4"/><stop offset="100%" style="stop-color:#5d787f"/></linearGradient></defs><defs><linearGradient id="h" x1="231.053" x2="227.975" y1="565.415" y2="700.38" gradientUnits="userSpaceOnUse"><stop offset="0%" style="stop-color:#839ca5"/><stop offset="100%" style="stop-color:#53686e"/></linearGradient></defs><path fill="#226887" d="m790 270-8 4c-43.347-77.388-117.465-140.047-205-160-45.51-10.373-93.815-9.866-139 2-129.449 33.994-226.587 167.642-241 297.5.707 1.14 3.186.091 4 .5-3.393 4.129-9.403 1.363-1 8-2.675-.915-5.758-.582-6.5-4l-1.5 5c-.503-.208-1.867 1.733-3.5 1-3.158-1.417 1.092-4.44-2.5-4 4.783-19.94 6.883-40.622 12-60.5C273.162 67.549 637.497-2.09 790 270"/><path fill="#e7fafc" d="M577 114c1.541 2.243 5.731 5.328 8 7-28.984-7.255-58.511-12.224-88.5-9-22.132 2.379-68.053 15.791-83.5 32-.776-2.735-5.861 3.557-7 5-5.545 1.654-12.764 6.606-17.5 10-68.162 48.843-118.173 117.139-139.5 198.5-.482 1.839.177 3.731-3 3.5-1.833-.746-2.617-1.403-4-2 26.395-95.725 84.982-163.193 165.5-218 4.078-2.776 9.536-2.689 10-3 1.911-1.282 20.758-17.772 21.5-19 1.77-2.93-.23-1.067-1-3 45.185-11.866 93.49-12.373 139-2"/><path fill="#d9edf3" d="M585 121c.963.709 3.409 1.681 5 3 39.099 32.42 60.291 89.978 72 138-12.24-4.309-22.827-12.633-34.5-18-58.547-26.918-158.844-34.509-219-10-7.26 2.958-44.829 23.286-48.5 28 7.979-29.178 17.571-58.804 32-85.5 3.879-7.177 15.908-27.156 21-32.5 15.447-16.209 61.368-29.621 83.5-32 29.989-3.224 59.516 1.745 88.5 9"/><path fill="#73a1ae" d="M782 274c23.432 41.833 39.394 89.559 44 137.5-26.311 6.39-43.507 34.734-54 58-15.369 34.078-23.006 73.481-27 110.5l-6 24.5c-.949 11.871-1.721 23.579-2 35.5-.164 7.026-1.548 13.831-1 21-9.984 60.431-32.314 119.377-72 166.5-19.467 23.116-52.742 52.47-80 65.5-5.187 2.48-11.005 4.243-16.5 6 3.848-2.772 7.729-6.219 11.5-9 3.129-1.992 4.234-2.941 7-5 102.982-76.381 126.794-195.854 127-317.5.044-25.765 1.166-15.924 9-38 15.938-44.913 21.014-78.792 13-126.5 12.992-3.425 27.629-.323 39-9 10.2 18.225 38.749 6.333 33-14.5-1.289-4.671-9.18-12.774-14-13.5 1.32-4.25-18.129-19.241-19.5-19-1.261 2.11-2.684 3.389-4.5 5 3.17-7.882 10.018-14.084 10.5-23-7.571 17.983-22.184 29.683-42.5 25.5 22.389-9.046 35.76-32.597 38-56-10.237 18.044-27.834 33.679-50 27 13.518-9.244 20.125-26.932 21-43-3.931 8.067-5.634 13.695-13 19.5 3.74-7.525 5.741-18.517-1-25 3.708-6.02-2.716-18.141-6-24.5-23.703-45.898-81.433-101.125-124.5-126.5-.241-.142-6.079-.589-5.5 1-.979-.791-4.692-3.929-6-3-1.591-1.319-4.037-2.291-5-3-2.269-1.672-6.459-4.757-8-7 87.535 19.953 161.653 82.612 205 160"/><path fill="#fcfdfe" d="M439 119c-5.698 1.352-9.888 7.519-14.5 10-6.29 3.384-18.073 6.579-26 11-85.219 47.53-138.65 120.885-175.5 210-1.757-.862-4.434-.698-7-4.5.392 3.216 2.809 6.274 5 8.5.105.452.875 1.874 1 2-3.369 4.316-5.261 10.538-5 16-8.417 6.678-5.336 10.288-7 18-1.319 6.111-1.709 12.911-3 18.5-.632 2.737-.753 5.358-4 6.5-.696-.306-1.325-.66-2-1-.814-.409-3.293.64-4-.5C211.413 283.642 308.551 149.994 438 116c.77 1.933 2.77.07 1 3"/><path fill="#d7edf2" d="M439 119c-.742 1.228-19.589 17.718-21.5 19-.464.311-5.922.224-10 3-80.518 54.807-139.105 122.275-165.5 218-6.456-2.788-12.698-5.909-19-9 36.85-89.115 90.281-162.47 175.5-210 7.927-4.421 19.71-7.616 26-11 4.612-2.481 8.802-8.648 14.5-10"/><path fill="#18445a" d="M596 127c37.14 30.013 60.152 94.849 71 140 1.908 7.94 3.998 15.86 5 24-1.099-.542-2.506-1.761-3-2-.481-1.201-.954-2.127-2-3-1.1-8.079-3.074-16.101-5-24-11.709-48.022-32.901-105.58-72-138 1.308-.929 5.021 2.209 6 3"/><path fill="#94bfcb" d="M732 277c-4.125 6.698-25.311 19.479-33.5 18-5.688-1.027-24.247-25.066-31.5-28-10.848-45.151-33.86-109.987-71-140-.579-1.589 5.259-1.142 5.5-1 43.067 25.375 100.797 80.602 124.5 126.5 3.284 6.359 9.708 18.48 6 24.5"/><path fill="#316c84" d="M413 144c-5.092 5.344-17.121 25.323-21 32.5-14.429 26.696-24.021 56.322-32 85.5-.353.453-1.855 2.705-2 3-.561-1.451-4.833 2.761-5 3 12.706-40.118 26.601-85.55 53-119 1.139-1.443 6.224-7.735 7-5"/><path fill="#d8ecf2" d="M406 149c-26.399 33.45-40.294 78.882-53 119-3.885 5.544-5.207 14.26-8 19-1.888 3.204-5.629 6.783-9 8-13.16 4.75-42.93 9.386-57 6l-2-.5c-1.111 12.833 6.57 26.448 14 36.5v15c-4.912-.468-10.72-.942-15.5-2-2.591-.573-17.281-8.029-17.5-4.5 1.748 2.896 4.423 4.547 7 6.5-3.516-.652 1.807 5.28 2 5.5 3.791 4.329 8.603 7.845 13 11.5-12.276 3.436-23.39-3.68-34-8 3.177.231 2.518-1.661 3-3.5 21.327-81.361 71.338-149.657 139.5-198.5 4.736-3.394 11.955-8.346 17.5-10"/><path fill="#7da6b2" d="M662 262c1.926 7.899 3.9 15.921 5 24-44.202-36.897-141.693-63.111-198.5-58-41.858 3.766-79.472 27.501-113.5 50 1.54-2.802 1.944-10.858 3-13 .145-.295 1.647-2.547 2-3 3.671-4.714 41.24-25.042 48.5-28 60.156-24.509 160.453-16.918 219 10 11.673 5.367 22.26 13.691 34.5 18"/><path fill="#44869e" d="M667 286c1.046.873 1.519 1.799 2 3-32.364-15.679-56.294-24.569-92.5-29-16.539-2.024-36.396-.527-52.5-4-8.146-1.757-12.395-5.126-22.5-7-33.818-6.27-110.889 25.55-139 49-4.989 4.162-10.918 16.44-18 18-6.372 1.404-14.171-.896-20.5-1l12-20c3.371-1.217 7.112-4.796 9-8 2.818-2.976 8.086-5.518 10-9 34.028-22.499 71.642-46.234 113.5-50 56.807-5.111 154.298 21.103 198.5 58m-179.5-54c-48.16 1.359-99.995 21.598-131.5 58.5 54.475-46.229 126.565-62.473 196.5-47.5 4.965-1.751-15.765-6.743-17-7-14.099-2.938-33.56-4.407-48-4"/><path fill="#8ce5f2" d="M487.5 232c14.44-.407 33.901 1.062 48 4 1.235.257 21.965 5.249 17 7-69.935-14.973-142.025 1.271-196.5 47.5 31.505-36.902 83.34-57.141 131.5-58.5"/><path fill="#216279" d="M524 256c.166 4.811-.458 1.926-2.5 2-51.25 1.862-82.629 9.67-127 37-33.595 20.692-48.72 49.549-94.5 21 7.774-1.702 16.161-1.129 24-1 6.329.104 14.128 2.404 20.5 1 7.082-1.56 13.011-13.838 18-18 28.111-23.45 105.182-55.27 139-49 10.105 1.874 14.354 5.243 22.5 7"/><path fill="#011124" d="M669 289c.494.239 1.901 1.458 3 2 18.806 9.279 39.079 28.277 61 11 7.366-5.805 9.069-11.433 13-19.5-.875 16.068-7.482 33.756-21 43 22.166 6.679 39.763-8.956 50-27-2.24 23.403-15.611 46.954-38 56 20.316 4.183 34.929-7.517 42.5-25.5-.482 8.916-7.33 15.118-10.5 23-15.289 13.564-18.901 19.923-42 19-1.626-.065-3.419.203-5 0-7.322-.942-12.065-4.126-18-8-7.168-4.679-12.551-11.485-19-17-2.231-1.907-4.258-4.702-7-7-17.311-14.512-32.952-25.436-53-36-79.887-42.096-180.452-31.69-249 28-10.783 9.39-22.304 20.698-31 32-1.465 1.904-3.506 4.62-4 7-.044.055-.349.071-1 1-3.885-.129-3.926 1.391-6 4-14.285 17.964-14.812 31.552-38 41-.721.294-1.983.611-3 1-.385.148-4.301-2.018-7 2-5.627-5.193-12.123-9.703-20-10l-.5-2c3.533 1.921 5.975.835 9.5 0 10.569-2.503 23.296-9.696 29-19.5-12.817 3.704-28.503-3.221-40-2.5l-23.5-13c15.079 21.193-4.772 43.744-26.5 27-.99-2.575-3.787-5.853-4-9 1.664-7.712-1.417-11.322 7-18 7.832-6.214 13.492-5.465 22-1.5-5.154-5.007-12.029-9.499-17-14.5-.125-.126-.895-1.548-1-2 15.01 15.254 46.238 28.226 67.5 22-1.519-3.167-5.943-4.874-8.5-7-4.397-3.655-9.209-7.171-13-11.5-.193-.22-5.516-6.152-2-5.5 10.82 8.201 23.793 10.049 37 8 11.203-1.738 22.835-9.757 31-17.5-.234-2.005-16.517-6.258-19-7.5-14.294-7.15-18.338-22.147-34-28.5l17 7.5a50 50 0 0 0 3 2c45.78 28.549 60.905-.308 94.5-21 44.371-27.33 75.75-35.138 127-37 2.042-.074 2.666 2.811 2.5-2 16.104 3.473 35.961 1.976 52.5 4 36.206 4.431 60.136 13.321 92.5 29m-447 83c-3.25 1.324-13.628 11.722-7.5 14 1.912.711 8.135-6.752 10-8 .588-.394 7.818 2.288 7.5-5.5-1.41-2.228-3.088-1.234-5-1.5-2.492-.347-3.058.208-5 1"/><path fill="#082233" d="M358 265c-1.056 2.142-1.46 10.198-3 13-1.914 3.482-7.182 6.024-10 9 2.793-4.74 4.115-13.456 8-19 .167-.239 4.439-4.451 5-3"/><path fill="#648e9a" d="M732 277c6.741 6.483 4.74 17.475 1 25-21.921 17.277-42.194-1.721-61-11-1.002-8.14-3.092-16.06-5-24 7.253 2.934 25.812 26.973 31.5 28 8.189 1.479 29.375-11.302 33.5-18"/><path fill="#215b73" d="M837 416c-.05 1.035-.247 4.579-1.5 5-1.505.001-1.668-1.152-3.5-1-39.776 3.299-60.25 71.39-69 105-8.586 32.979-13.482 69.814-12 104-5.077 3.75 1.023 12.427 0 14.5-.16.323-5.602 2.425-6 4-1.43 5.667 11.314 43.341 15 50 4.046 7.309 9.87 14.011 17 18.5-1.585 3.479-10.131 12.492-11 15-3.435 2.504-4.22-.301-6-2.5-9.996-12.349-22.789-51.668-24-67.5-.548-7.169.836-13.974 1-21 9.071-17.438 5.833-39.911 8-60 3.994-37.019 11.631-76.422 27-110.5 10.493-23.266 27.689-51.61 54-58-4.606-47.941-20.568-95.667-44-137.5l8-4c19.72 35.183 48.926 105.824 47 146"/><path fill="#0e7794" d="M625 303c7.986 11.7 11.871 26.28 16 40-72.59-64.161-208.988-53.972-276 13l-6 2.5 17-27.5c68.548-59.69 169.113-70.096 249-28"/><path fill="#90b7c2" d="m336 295-12 20c-7.839-.129-16.226-.702-24 1a50 50 0 0 1-3-2c-1.836-1.326-5.034-6.881-5.5-7-.455-.116-.414 2.86-2 2-3.693-2.001-8.685-3.862-10.5-8 14.07 3.386 43.84-1.25 57-6"/><path fill="#b9d6df" d="M279 301c1.815 4.138 6.807 5.999 10.5 8 1.586.86 1.545-2.116 2-2 .466.119 3.664 5.674 5.5 7l-17-7.5c15.662 6.353 19.706 21.35 34 28.5-1.69 2.393-7.094 16.168-8 17-5.609-3.944-10.971-9.549-15-15-7.43-10.052-15.111-23.667-14-36.5z"/><path fill="url(#a)" d="M641 343c.422 1.403.637 2.733 1 4 21.646 75.454 19.956 145.11-44.5 199-115.322 96.418-268.786 13.347-269.5-133-.003-.661-.011-1.339 0-2 11.893-19.476 20.69-38.699 37-55 67.012-66.972 203.41-77.161 276-13m-187 8c-.06.038.06.302-1 1-13.903-2.634-16.858 1.492-19 14-.027.156-.845.476-1 3-43.352 45.309-38.443 117.289 10 157 81.241 66.598 199.267-5.231 178-108-15.468-74.748-103.278-107.045-167-67m-30.5-13c-14.806.359-37.318 17.729-14 17 5.69-.178 21.918-4.08 24.5-9.5 4.438-9.318-4.029-7.657-10.5-7.5M354 423c-.115 8.256 4.349 21.305 13.5 23 23.699 4.39 21.278-55.079-4.5-42l43-39.5c-12.074-3.873-41.205.715-49 10-5.128 6.109-23.291 48.819-23 56 .669 16.483 15.702-5.483 20-7.5" style="fill:url(#a)"/>/&gt;<path fill="#045f79" d="M678 339c8.993 21.699 19.767 44.153 20 68-5.303-12.002-40.875-51.565-52-59.5-1.363-.972-2.511-1.655-4-.5-.363-1.267-.578-2.597-1-4-4.129-13.72-8.014-28.3-16-40 20.048 10.564 35.689 21.488 53 36"/><path fill="#0a6e89" d="M365 356c-16.31 16.301-25.107 35.524-37 55 .212-12.665 4.321-29.042 12-40 .651-.929.956-.945 1-1 .57-.716 6.938-4.356 4-7 8.696-11.302 20.217-22.61 31-32l-17 27.5z"/><path fill="#0f97c5" d="M621 418c-.053 5.091-12.598 19.914-13 21.5-.938 3.705 1.116 21.672 0 29-8.199 53.851-77.917 84.878-126.5 64.5-2.289-.96.289-3.002-2-4-2.659-1.159-17.016-8.049-18-8-.212.011-1.508 3.006-3 3-3.789-.016-15.81-3.4-15.5 2-48.443-39.711-53.352-111.691-10-157-1.003 16.332 4.749 24.361 15 36-32.387 62.944 18.925 120.433 86.5 108 26.829-4.936 50.259-33.106 54.5-59.5 9.525-59.276-50.995-102.152-105-82.5-5.049-9.767-18.449-20.388-30-20 63.722-40.045 151.532-7.748 167 67"/><path fill="#4c8da5" d="m302 360 3-7c1.343-.499.948-.952 1-1 .906-.832 6.31-14.607 8-17 2.483 1.242 18.766 5.495 19 7.5-8.165 7.743-19.797 15.762-31 17.5"/><path fill="#ecfbfe" d="M306 352c-.052.048.343.501-1 1-3.412 1.267-10.385-.656-14-1v-15c4.029 5.451 9.391 11.056 15 15"/><path fill="#aef0fc" d="M423.5 338c6.471-.157 14.938-1.818 10.5 7.5-2.582 5.42-18.81 9.322-24.5 9.5-23.318.729-.806-16.641 14-17"/><path fill="#064958" d="M685 346c17.87 37.183 22.684 81.092 17 122-4.915 35.37-25.125 76.5-49 103-62.185 69.023-168.45 82.98-246 31-40.761-27.321-73.794-77.507-82-126-3.8-22.459-4.477-57.54 1-79.5 1.629-6.531 7.193-13.816 8-21.5 2.074-2.609 2.115-4.129 6-4-7.679 10.958-11.788 27.335-12 40-.011.661-.003 1.339 0 2-7.385 15.848-3.778 42.214 0 59.5 48.973 224.092 354.962 197.821 372-22 .813-10.488 1.871-34.738-2-43.5-.233-23.847-11.007-46.301-20-68 2.742 2.298 4.769 5.093 7 7"/><path fill="#99bdc7" d="M291 352c3.615.344 10.588 2.267 14 1l-3 7c-13.207 2.049-26.18.201-37-8-2.577-1.953-5.252-3.604-7-6.5.219-3.529 14.909 3.927 17.5 4.5 4.78 1.058 10.588 1.532 15.5 2"/><path fill="#8fb2bd" d="M223 350c6.302 3.091 12.544 6.212 19 9 1.383.597 2.167 1.254 4 2 10.61 4.32 21.724 11.436 34 8 2.557 2.126 6.981 3.833 8.5 7-21.262 6.226-52.49-6.746-67.5-22-2.191-2.226-4.608-5.284-5-8.5 2.566 3.802 5.243 3.638 7 4.5"/><path fill="url(#b)" d="M698 407c3.871 8.762 2.813 33.012 2 43.5-17.038 219.821-323.027 246.092-372 22-3.778-17.286-7.385-43.652 0-59.5.714 146.347 154.178 229.418 269.5 133 64.456-53.89 66.146-123.546 44.5-199 1.489-1.155 2.637-.472 4 .5 11.125 7.935 46.697 47.498 52 59.5" style="fill:url(#b)"/>/&gt;<path fill="#458aa0" d="M704 363c9.506 19.315 20.446 38.943 20.5 61l-2.5-53c1.581.203 3.374-.065 5 0 .563 4.418 2.864 8.795 4 13-.762 13.749 4.258 28.371 5 42.5.749 14.276-.315 30.313-2 44.5l-.5-23c-3.471.677-22.727-.9-24 0-.904.639-1.878 18.501-2.5 22l-5-2c5.684-40.908.87-84.817-17-122 6.449 5.515 11.832 12.321 19 17"/><path fill="#608a96" d="M793 366c-14.939-2.251-27.097 13.533-19 28-11.371 8.677-26.008 5.575-39 9-1.059-6.303-2.336-12.837-4-19-1.136-4.205-3.437-8.582-4-13 23.099.923 26.711-5.436 42-19 1.816-1.611 3.239-2.89 4.5-5 1.371-.241 20.82 14.75 19.5 19"/><path fill="#d6f4fc" d="M453 352c-6.724 4.427-12.983 8.697-19 14 2.142-12.508 5.097-16.634 19-14"/><path fill="#dcedf3" d="M484 371c6.99 13.523 7.76 35.681-7.5 44-15.268 8.323-19.827-.152-28.5-10-10.251-11.639-16.003-19.668-15-36 .155-2.524.973-2.844 1-3 6.017-5.303 12.276-9.573 19-14 1.06-.698.94-.962 1-1 11.551-.388 24.951 10.233 30 20m-25.5 14c-1.234.314-10.562 11.08-10 14l12.5-13.5c-.379-.706-1.821-.673-2.5-.5"/><path fill="#c4dfe7" d="M217 372c-.261-5.462 1.631-11.684 5-16 4.971 5.001 11.846 9.493 17 14.5-8.508-3.965-14.168-4.714-22 1.5"/><path fill="#8ac2d1" d="M341 370c.494-2.38 2.535-5.096 4-7 2.938 2.644-3.43 6.284-4 7"/><path fill="#8ae8fb" d="M363 404c-6.687 3.393-8.906 12.232-9 19-4.298 2.017-19.331 23.983-20 7.5-.291-7.181 17.872-49.891 23-56 7.795-9.285 36.926-13.873 49-10z"/><path fill="#1d6580" d="m722 371 2.5 53c-.054-22.057-10.994-41.685-20.5-61 5.935 3.874 10.678 7.058 18 8"/><path fill="#132942" d="M448 405c8.673 9.848 13.232 18.323 28.5 10 15.26-8.319 14.49-30.477 7.5-44 54.005-19.652 114.525 23.224 105 82.5-4.241 26.394-27.671 54.564-54.5 59.5-67.575 12.433-118.887-45.056-86.5-108m93 69c-.322-.047-.67.021-1 0-9.51-.607-9.836 1.905-3 9.5 5.775 6.417 9.389 7.031 17 4.5 5.177-1.722 2.928-1.713 5-4 7.902-8.723 2.652-9.55 7-18.5-7.685-15.088-29.206-8.091-25 8.5"/><path fill="#041f34" d="M793 366c4.82.726 12.711 8.829 14 13.5 5.749 20.833-22.8 32.725-33 14.5-8.097-14.467 4.061-30.251 19-28m-13 14c1.978-1.296 4.098-3.188 5.5-4 .506-.293 8.508 3.229 7.5-5.5-5.96-7.05-25.003 10.998-18.5 13.5 6.136 1.76 5.154-3.773 5.5-4"/><path fill="#edf5f4" d="M780 380c.62-.439-.681-2.655-1.5-3-1.446 1.133-.15 4.168 1.5 3-.346.227.636 5.76-5.5 4-6.503-2.502 12.54-20.55 18.5-13.5 1.008 8.729-6.994 5.207-7.5 5.5-1.402.812-3.522 2.704-5.5 4m2.5-7c-1.205.436-.464 2.643 1 2 1.199-.527.518-2.55-1-2"/><path fill="#f5f9f6" d="M227 371c1.132 7.49-4.896 8.488-5 1 1.942-.792 2.508-1.347 5-1"/><path fill="#c9dee7" d="M222 372c.104 7.488 6.132 6.49 5-1 1.912.266 3.59-.728 5 1.5.318 7.788-6.912 5.106-7.5 5.5-1.865 1.248-8.088 8.711-10 8-6.128-2.278 4.25-12.676 7.5-14m-4.5 7c-1.205.436-.464 2.643 1 2 1.199-.527.518-2.55-1-2"/><path fill="#d8eef3" d="M264 385c-4.021.252-3.618 1.849-4 2-10.065 3.974-8.668 9.247 1.5 13 2.261-10.874 8.122-3.685 16.5-5-2.436 4.476-11.013 10.781-3 12-3.525.835-5.967 1.921-9.5 0l.5 2c-.47 2.616 1.589 4.28 3 6l-14 68c-.943-1.794-1.296-4.307-4-4-.704-11.037-10.713-31.414-19-39-3.092-4.6-8.02-12.514-12-16 3.015-1.836 1.716-3.954 1-6.5-1.271-4.519-5.091-13.536-7-18.5 21.728 16.744 41.579-5.807 26.5-27z"/><path fill="#668faa" d="M782.5 373c1.518-.55 2.199 1.473 1 2-1.464.643-2.205-1.564-1-2"/><path fill="#458aa0" d="M325 476c-2.568 2.911 2.85 8.911-3 10-1.368-5.431-4.287-29.129-5-30.5-1.279-2.457-12.235-1.197-15-1.5.078-13.414 1.197-26.621 5-39.5l-11 3.5c.147-.51-.074-1.358 0-2 23.188-9.448 23.715-23.036 38-41-.807 7.684-6.371 14.969-8 21.5-5.477 21.96-4.8 57.041-1 79.5"/><path fill="#041f34" d="M780 380c-1.65 1.168-2.946-1.867-1.5-3 .819.345 2.12 2.561 1.5 3"/><path fill="#3c8197" d="M217.5 379c1.518-.55 2.199 1.473 1 2-1.464.643-2.205-1.564-1-2"/><path fill="#062638" d="M735 403c8.014 47.708 2.938 81.587-13 126.5-7.834 22.076-8.956 12.235-9 38-.206 121.646-24.018 241.119-127 317.5 50.443-37.548 95.339-120.336 111-180.5 12.111-46.524 14.807-96.232 10-144-88.858 151.267-315.686 146.356-395.5-10.5-9.11 128.473 32.558 269.73 138.5 349-3.313-.923-5.796-1.967-9-3-67.855-54.54-114.05-141.857-128-227.5-6.839-41.984-1.476-90.781-8-129-6.245-36.581-29.166-71.383-20-114.5.301-1.418.081-4.632 1-6 2.699-4.018 6.615-1.852 7-2-5.355 10.338-4.805 29.994-4 42.5 17.034 264.683 413.432 277.289 445 11.5 1.685-14.187 2.749-30.224 2-44.5-.742-14.129-5.762-28.751-5-42.5 1.664 6.163 2.941 12.697 4 19"/><path fill="#b7d7df" d="M264 385c11.497-.721 27.183 6.204 40 2.5-5.704 9.804-18.431 16.997-29 19.5-8.013-1.219.564-7.524 3-12 .078-.142 1.607.391 2-.5-.377-1.773-17.616-3.549-20-7.5.382-.151-.021-1.748 4-2"/><path fill="#f5fcfe" d="M458.5 385c.679-.173 2.121-.206 2.5.5L448.5 399c-.562-2.92 8.766-13.686 10-14"/><path fill="#f3fcfe" d="M260 387c2.384 3.951 19.623 5.727 20 7.5-.393.891-1.922.358-2 .5-8.378 1.315-14.239-5.874-16.5 5-10.168-3.753-11.565-9.026-1.5-13"/><path fill="#bad4dc" d="M214 399c1.909 4.964 5.729 13.981 7 18.5.716 2.546 2.015 4.664-1 6.5-5.295-4.638-10.79-6.271-17-9 3.247-1.142 3.368-3.763 4-6.5 1.291-5.589 1.681-12.389 3-18.5.213 3.147 3.01 6.425 4 9"/><path fill="#bfecf6" d="M354 423c.094-6.768 2.313-15.607 9-19 25.778-13.079 28.199 46.39 4.5 42-9.151-1.695-13.615-14.744-13.5-23"/><path fill="#9fc0cb" d="M286 419c-.919 1.368-.699 4.582-1 6-1.449-.962-3.539-.219-5-1-.22-.118-3.155-2.386-4-3-1.322-.96-6.142-4.954-7-6-1.411-1.72-3.47-3.384-3-6 7.877.297 14.373 4.807 20 10"/><path fill="#528496" d="M203 415c6.21 2.729 11.705 4.362 17 9 3.98 3.486 8.908 11.4 12 16-6.396-5.855-23.716-15.165-32-18-8.403-6.637-2.393-3.871 1-8 .675.34 1.304.694 2 1"/><path fill="#88dff0" d="M302 454c-.078 13.435 2.099 27.105 3 40.5-3.524-6.866-5.914-17.399-7-25-1.349-9.442-4.234-43.743-2-51.5l11-3.5c-3.803 12.879-4.922 26.086-5 39.5"/><path fill="url(#c)" d="M276 421c-4.573 1.278-4.653 26.063-3.5 27 6.332-3.881 5.04-17.041 7.5-24 1.461.781 3.551.038 5 1-9.166 43.117 13.755 77.919 20 114.5 6.524 38.219 1.161 87.016 8 129 13.95 85.643 60.145 172.96 128 227.5-9.43-3.04-19.323-5.07-28.5-9-67.106-28.743-117.658-90.271-153.5-152 17.491-21.869 28.924-50.617 18-78 .478-2.707.663-6.187 1-9l7 19.5c-.98-10.343 1.324-22.967 0-33-.51-3.867-.485-7.964-5-8.5.273-4.266-.042-8.712 0-13 1.857-2.485 1.545-5.893 5-2.5.664-12.811.163-26.4-3-39-.55-2.192-2.86-10.327-6-10.5-3.202-22.904-10.31-57.667-21-78l14-68c.858 1.046 5.678 5.04 7 6m41.5 357c-.47 1.146-2.335.839-2.5 1.5-1.085 4.359 42.749 68.115 54.5 70.5z" style="fill:url(#c)"/>/&gt;<path fill="#327183" d="M296 416c-.074.642.147 1.49 0 2-2.234 7.757.651 42.058 2 51.5 1.086 7.601 3.476 18.134 7 25-.901-13.395-3.078-27.065-3-40.5 2.765.303 13.721-.957 15 1.5.713 1.371 3.632 25.069 5 30.5 12.757 50.658 37.882 90.14 81 120 78.142 54.114 177.825 44.189 245-22 32.956-32.472 50.893-68.401 59-114 .622-3.499 1.596-21.361 2.5-22 1.273-.9 20.529.677 24 0l.5 23c-31.568 265.789-427.966 253.183-445-11.5-.805-12.506-1.355-32.162 4-42.5 1.017-.389 2.279-.706 3-1"/><path fill="#0b2338" d="M917 603c2.002-10.459 8.306-51.063 5-58.5-1.21-2.723-2.907-1.187-5-1.5-.135-3.446-.644-8.457-1-12 5.353 4.75 6.138-5.603 6-9.5-.25-7.028-7.463-30.766-11-41.5-2.166-6.573-7.249-26.506-12-30-.943-3.728-5.472-12.091-8.5-14-.812-.512-10.891-3.981-11.5-4-22.769-.714-44.232 45.221-51.5 63-4.022.238 2.765-14.736 3.5-16.5 3.533-8.478 12.204-23.408 18-30.5 5.915-7.238 12.866-12.752 20.5-18-14.322-2.517-30.343-9.132-44-1-12.083 7.195-29.945 43.489-35.5 57-15.24 37.066-24.768 84.858-25 125-.143 24.804 3.892 71.9 20 91.5 11.815 14.377 28.076 9.621 45 11-9.914-9.519-16.313-23.346-20-36.5-10.615-37.878-7.68-88.507-1-127 1.279-7.369 3.098-14.774 5-22h1c-.996 2.208-2.344 14.32-3 18-7.195 40.356-10.541 114.964 9 151.5 3.83 7.16 8.049 13.819 16 14.5 7.384.633 23.888 1.535 25-8 10.466-2.855 18.415-21.106 23-30 .567-.389 3.113.63 4-.5.547-.698 3.871-14.411 6.5-16.5l-2.5-1c5.351-8.342 7.605-18.684 13-27 .02 1.157-.013 2.332 0 3.5.531.951 1.725-.531 2-1 .877-1.492 8.036-24.865 9-28.5-5.251 27.435-17.602 57.137-32 81.5-4.665 7.893-21.935 31.703-30.5 33.5-12.898 2.706-44.662-1.84-61.5-1-3.604.18-5.838 1.813-9-.5l6.5-2.5c1.765-2.477-1.434-1.894-1.5-2-10.349-16.604-14.249-21.786-22-41-9.703-52.594-4.538-104.031 10-155 9.558-33.508 24.758-76.26 55-96 1.832-.152 1.995 1.001 3.5 1 1.253-.421 1.45-3.965 1.5-5 32.55 15.265 53.868 2.352 70 40.5 18.505 43.759 22.06 101.007 10 146.5"/><path fill="#89aeb9" d="M200 422c8.284 2.835 25.604 12.145 32 18 8.287 7.586 18.296 27.963 19 39 .32 5.023-1.349 9.814-1 14-8.942-18.702-24.932-64.115-48-68.5-2.117-.402-3.095-1.091-4 1.5-1.205-.71-4.758-2.486-6-3l1.5-5c.742 3.418 3.825 3.085 6.5 4"/><path fill="#0a7da5" d="M443 526c-.31-5.4 11.711-2.016 15.5-2 1.492.006 2.788-2.989 3-3 .984-.049 15.341 6.841 18 8 2.289.998-.289 3.04 2 4 48.583 20.378 118.301-10.649 126.5-64.5 1.116-7.328-.938-25.295 0-29 .402-1.586 12.947-16.409 13-21.5 21.267 102.769-96.759 174.598-178 108"/><path fill="#0c2232" d="M186 420c3.592-.44-.658 2.583 2.5 4 1.633.733 2.997-1.208 3.5-1 1.242.514 4.795 2.29 6 3 25.124 14.798 47.836 85.203 54 113 5.584 25.181 8.58 46.083 9 72 .399 24.574-1.307 57.149-11 80-3.663 8.635-9.627 15.517-16 22-2.848 2.897-1.974 4.062-5 6-17.802-3.358-53.422 4.797-65.5-2-13.189-7.422-29.103-37.911-34.5-52 3.821 5.116 5.47 6.364 10 10 1.215 7.852 14.218 28.893 22 31 5.95 13.091 21.333 8.217 31 2-1.749 2.558-4.583 4.195-5.5 7 8.73-2.597 15.177-14.616 18.5-22.5 10.721-25.432 12.911-63.046 12-90.5-.381-11.473-1.713-23.57-3-35-1.6-14.218-4.693-28.381-7-42.5l5 14c.829 7.575 2.858 14.994 4 22.5 5.624 36.96 7.868 95.417-7 130-3.854 8.964-9.034 16.836-15 24.5 19.879-1.894 34.603 3.968 47-15 36.669-56.105 9.913-207.119-32-258-17.395-21.117-31.215-16.387-55-10l2 .5c1.43 1.838 5.827 4.632 8 6 7.521 7.451 14.584 15.319 20 24.5 1.732 2.937 12.858 26.344 13 28 .118 1.378.612 3.773-1.5 3.5-9.357-19.182-22.606-51.86-44-60-.726-.276-4.283-1.583-3.5 1-9.932-2.137-20.394 3.352-22 14-4.471 2.52-9.653 18.314-11 23.5-.374 1.439-2.379 5.987 1 5.5-2.712 2.777-4.814 7.472-8 10 3.571-14.126 11.591-47.077 24.5-55 11.548-7.088 39.943-8.043 53.5-14"/><path fill="#738a90" d="M832 420c-30.242 19.74-45.442 62.492-55 96-3.601-1.864-3.022 8.202-4.5 9-1.197.646-7.459-.465-9.5 0 8.75-33.61 29.224-101.701 69-105"/><path fill="#e9f9fc" d="M280 424c-2.46 6.959-1.168 20.119-7.5 24-1.153-.937-1.073-25.722 3.5-27 .845.614 3.78 2.882 4 3"/><path fill="#65848c" d="M250 493c.66 7.917 13.878 39.512 11.5 43-.281.412-8.731.17-9.5 3-6.164-27.797-28.876-98.202-54-113 .905-2.591 1.883-1.902 4-1.5 23.068 4.385 39.058 49.798 48 68.5"/><path fill="#bcd1d8" d="m849 448-2-1c4.04-5.354 8.029-9.987 13-14.5-33.773-15.06-50.222 14.711-60.5 41.5l29.5 1c-1.089 1.966-4.466 12.553-5.5 13l-33.5-2c5.555-13.511 23.417-49.805 35.5-57 13.657-8.132 29.678-1.517 44 1-7.634 5.248-14.585 10.762-20.5 18"/><path fill="#e5eef0" d="M209 691c2.565 5.194-9.062 16.393-7 20.5 29.332 7.871 41.668-15.461 48-40 9.252-35.853 6.474-74.846 1-111-2.139-3.549-28.51-5.77-34.5-7.5l-.5 8c-1.142-7.506-3.171-14.925-4-22.5l-5-14c2.307 14.119 5.4 28.282 7 42.5-1.178.967-5.624.027-6-.5-1.424-1.995-7.825-40.544-10-48-5.637-19.323-28.959-77.972-50-82.5-.783-2.583 2.774-1.276 3.5-1 21.394 8.14 34.643 40.818 44 60 2.112.273 1.618-2.122 1.5-3.5-.142-1.656-11.268-25.063-13-28-5.416-9.181-12.479-17.049-20-24.5 17.878 11.253 20.166 19.275 30 38 2.378 4.528 3.819 9.588 6.5 14l29-4c2.451-1.331-4.965-10.87-5.5-12-4.981-10.526-19.36-39.077-30.5-43-10.982-3.867-26.055 2.632-37.5 1l-2-.5c23.785-6.387 37.605-11.117 55 10 41.913 50.881 68.669 201.895 32 258-12.397 18.968-27.121 13.106-47 15 5.966-7.664 11.146-15.536 15-24.5"/><path fill="#8399a2" d="M847 447c-7.206 9.549-12.218 17.562-18 28l-29.5-1c10.278-26.789 26.727-56.56 60.5-41.5-4.971 4.513-8.96 9.146-13 14.5"/><path fill="#8298a0" d="m224 475-30 2c-9.834-18.725-12.122-26.747-30-38-2.173-1.368-6.57-4.162-8-6 11.445 1.632 26.518-4.867 37.5-1 11.14 3.923 25.519 32.474 30.5 43"/><path fill="#e4eef0" d="M879 432c-25.695 13.18-38.665 43.019-48 69-2.695.825-6.422-2.508-9-.5-1.452 1.131-7.016 23.762-8 27.5-1.902 7.226-3.721 14.631-5 22l-36 7.5c-2.521 3.154-5.938 46.652-6 53.5h-2c.232-40.142 9.76-87.934 25-125l33.5 2c1.034-.447 4.411-11.034 5.5-13 5.782-10.438 10.794-18.451 18-28l2 1c-5.796 7.092-14.467 22.022-18 30.5-.735 1.764-7.522 16.738-3.5 16.5 7.268-17.779 28.731-63.714 51.5-63"/><path fill="#355c68" d="M899 450c-24.906-18.317-49.476 37.734-56 54-10.88 27.127-16.797 51.674-19 81-1.819 24.213-1.425 46.127 3 70h-13.5c2.792 20.157 7.707 42.945 23.5 57-7.951-.681-12.17-7.34-16-14.5-19.541-36.536-16.195-111.144-9-151.5 9.272 2.628 9.663-15.479 12-23 2.3-7.402 4.373-14.69 7-22 9.335-25.981 22.305-55.82 48-69 .609.019 10.688 3.488 11.5 4 3.028 1.909 7.557 10.272 8.5 14"/><path fill="#355e6a" d="M148 436c21.041 4.528 44.363 63.177 50 82.5 2.175 7.456 8.576 46.005 10 48 .376.527 4.822 1.467 6 .5 1.287 11.43 2.619 23.527 3 35l-5 1.5c1.805 18.535 1.009 38.134-2 56.5l-14-1c2.065-10.012 3.493-19.766 4-30 2.473-49.959-8.258-120.145-39-161-7.376-9.803-21.333-25.704-35-18 1.606-10.648 12.068-16.137 22-14"/><path fill="#346f84" d="M899 450c4.751 3.494 9.834 23.427 12 30l-14.5-11c-18.367-4.403-25.838 8.239-33.5 22-4.361 2.32-8.039 11.314-10 16l-10-3c6.524-16.266 31.094-72.317 56-54"/><path fill="#346576" d="M161 468c-10.066 3.629-10.783 4.539-7 13-12.713-13.677-24.481-15.847-38-2-3.379.487-1.374-4.061-1-5.5 1.347-5.186 6.529-20.98 11-23.5 13.667-7.704 27.624 8.197 35 18"/><path fill="#2d5770" d="M559 484c-.466-5.484-13.336-9.321-18-10-4.206-16.591 17.315-23.588 25-8.5-4.348 8.95.902 9.777-7 18.5"/><path fill="#3987a2" d="M161 468c30.742 40.855 41.473 111.041 39 161-3.274-.699-11.044 1.841-11-2 1.905-38.026-5.923-98.222-25-131.5-.934-1.629-1.672-3.825-4-3.5-1.914-4.172-4.32-7.242-6-11-3.783-8.461-3.066-9.371 7-13"/><path fill="#69b5c8" d="M707 470c-8.107 45.599-26.044 81.528-59 114-7.986-4.141 4.715-7.726 5-13 23.875-26.5 44.085-67.63 49-103z"/><path fill="#00143b" d="M911 480c3.537 10.734 10.75 34.472 11 41.5.138 3.897-.647 14.25-6 9.5-1.529-15.211-6.657-46.134-21-54-19.175-10.516-35.179 30.187-40 44-4.905 14.052-8.72 28.269-11 43-3.334 21.539-5.276 47.357-3 69 3.904 37.122 24.447 65.953 52 23l2.5 1c-2.629 2.089-5.953 15.802-6.5 16.5-.887 1.13-3.433.111-4 .5-7.651 5.252-15.887 9.61-25.5 9-2.083-4.484-7.033-3.984-11.5-8-2.096-4.791-5.002-9.13-7-14-.252-5.034-1.218-10.041-2-15-7.219-45.774 1.192-114.038 24-155 7.662-13.761 15.133-26.403 33.5-22z"/><path fill="#00133c" d="M154 481c1.68 3.758 4.086 6.828 6 11 22.126 48.221 32.103 99.795 25 153-1.061 7.948-1.89 15.511-5 23-2.552-3.137 3.135-5.685-4-5 16.447-37.307 2.832-141.029-23-173.5-6.18-7.768-14.776-15.753-25-10.5-5.016 2.578-8.673 9.154-11 14-8.005 7.423-7.155 19.355-9 28.5-.104.517-2.89 7.484-3 8-.653 3.07 1.193 6.704 1 7-.81 1.238-4.115-.241-5 1-.915 1.284 2.022 8.471-2 8.5.238-21.273 3.899-36.818 9-57 3.186-2.528 5.288-7.223 8-10 13.519-13.847 25.287-11.677 38 2"/><path fill="#426b82" d="M540 474c3.507 5.468 5.986 14.267 14 14-7.611 2.531-11.225 1.917-17-4.5-6.836-7.595-6.51-10.107 3-9.5"/><path fill="#fcfdfd" d="M559 484c-2.072 2.287.177 2.278-5 4-8.014.267-10.493-8.532-14-14 .33.021.678-.047 1 0 4.664.679 17.534 4.516 18 10"/><path fill="#bcd1d8" d="m194 477 30-2c.535 1.13 7.951 10.669 5.5 12l-29 4c-2.681-4.412-4.122-9.472-6.5-14"/><path fill="#016297" d="M895 477c-18.533 3.706-29.575 29.481-35 46l-5-2c4.821-13.813 20.825-54.516 40-44"/><path fill="#69b5c8" d="m407 602-4 4c-43.118-29.86-68.243-69.342-81-120 5.85-1.089.432-7.089 3-10 8.206 48.493 41.239 98.679 82 126"/><path fill="url(#d)" d="M176 663c-13.23 30.01-37.193 9.703-48-9.5-16.971-30.156-23.081-81.251-21-115.5l3.5 7c1.179-2.294-.705-12.161 3.5-12-1.981 10.036-1.834 21.693 2.5 31 3.532-3.045.528-7.994.5-11l5 2c.248 6.2.786 12.299 1 18.5 6.342-5.019 1.17-15.813 1-22-.261-9.503.148-18.497 1-28 .15-1.672.837-5.008-2-4.5 1.871-11.656 8.137-26.583 13-37.5l-8-2.5c10.224-5.253 18.82 2.732 25 10.5 25.832 32.471 39.447 136.193 23 173.5" style="fill:url(#d)"/>/&gt;<path fill="url(#e)" d="M916 531c.356 3.543.865 8.554 1 12 1.234 31.452-11.405 62.388-11 86-5.395 8.316-7.649 18.658-13 27-27.553 42.953-48.096 14.122-52-23 7.165-3.179 3.284-18.512 4-26.5.728-8.122 6.73-33.703 4-39.5 5.137-14.117 6.407-30.015 11-44 5.425-16.519 16.467-42.294 35-46 14.343 7.866 19.471 38.789 21 54" style="fill:url(#e)"/>/&gt;<path fill="#5fddfb" d="M123 519c-1.808 11.26-1.457 24.548-1 36l-5-2c-.035-3.734 1.336-19.834-3-20-4.205-.161-2.321 9.706-3.5 12l-3.5-7c.836-13.753 4.06-32.631 10-45 2.327-4.846 5.984-11.422 11-14l8 2.5c-4.863 10.917-11.129 25.844-13 37.5m-5.5-12c-2.582.69-.966 16.02 1 18 1.754-2.632 3.112-19.1-1-18"/><path fill="#88adb7" d="M255 483c10.69 20.333 17.798 55.096 21 78 1.258 9.002 2.386 17.913 3 27-3.398.592-1.186-3.193-2.5-4-.297-.182-6.359 2.129-6.5 2.5-.532 1.404 2.92 22.705 2 24l-11 .5c-.42-25.917-3.416-46.819-9-72 .769-2.83 9.219-2.588 9.5-3 2.378-3.488-10.84-35.083-11.5-43-.349-4.186 1.32-8.977 1-14 2.704-.307 3.057 2.206 4 4"/><path fill="#c5dce3" d="M863 491c-22.808 40.962-31.219 109.226-24 155l-2 1c-4.211-22.433-3.419-46.362-1-69 2.386-22.335 8.34-50.308 17-71 1.961-4.686 5.639-13.68 10-16"/><path fill="#8bb9c8" d="M189 627c-.198 3.947-.679 8.465-1 12.5-.025.312-.902 8.059-3 5.5 7.103-53.205-2.874-104.779-25-153 2.328-.325 3.066 1.871 4 3.5 19.077 33.278 26.905 93.474 25 131.5"/><path fill="#001b52" d="M117 493c-5.94 12.369-9.164 31.247-10 45-2.081 34.249 4.029 85.344 21 115.5 10.807 19.203 34.77 39.51 48 9.5 7.135-.685 1.448 1.863 4 5-.678 1.632-2.037 3.093-2 5-12.94 15.347-24.072 13.982-39 2-4.53-3.636-6.179-4.884-10-10-20.496-27.443-30.379-85.189-30-119 4.022-.029 1.085-7.216 2-8.5.885-1.241 4.19.238 5-1 .193-.296-1.653-3.93-1-7 .11-.516 2.896-7.483 3-8 1.845-9.145.995-21.077 9-28.5"/><path fill="#b4d4de" d="M831 501c-2.627 7.31-4.7 14.598-7 22-4.088 1.232-7.215 1.045-9 5h-1c.984-3.738 6.548-26.369 8-27.5 2.578-2.008 6.305 1.325 9 .5"/><path fill="#4294b1" d="M853 507c-8.66 20.692-14.614 48.665-17 71-3.968-.231-.818 5.846-2.5 7-.808.555-7.673-.4-9.5 0 2.203-29.326 8.12-53.873 19-81z"/><path fill="#edf9fd" d="M117.5 507c4.112-1.1 2.754 15.368 1 18-1.966-1.98-3.582-17.31-1-18"/><path fill="#94b9c4" d="M777 516c-14.538 50.969-19.703 102.406-10 155-.711-1.762-2.51-9.759-3.5-10l-8.5 3c-2.088-10.187-3.548-24.571-4-35-1.482-34.186 3.414-71.021 12-104 2.041-.465 8.303.646 9.5 0 1.478-.798.899-10.864 4.5-9"/><path fill="#569dc8" d="M122 555c-.457-11.452-.808-24.74 1-36 2.837-.508 2.15 2.828 2 4.5-.852 9.503-1.261 18.497-1 28 .17 6.187 5.342 16.981-1 22-.214-6.201-.752-12.3-1-18.5"/><path fill="#097aae" d="M860 523c-4.593 13.985-5.863 29.883-11 44-.124-.264-4.228-2.45-5-3 2.28-14.731 6.095-28.948 11-43z"/><path fill="#d0e8f0" d="M824 523c-2.337 7.521-2.728 25.628-12 23 .656-3.68 2.004-15.792 3-18 1.785-3.955 4.912-3.768 9-5"/><path fill="#edfcfd" d="M117 553c.028 3.006 3.032 7.955-.5 11-4.334-9.307-4.481-20.964-2.5-31 4.336.166 2.965 16.266 3 20"/><path fill="#00235a" d="M917 603c-.964 3.635-8.123 27.008-9 28.5-.275.469-1.469 1.951-2 1-.013-1.168.02-2.343 0-3.5-.405-23.612 12.234-54.548 11-86 2.093.313 3.79-1.223 5 1.5 3.306 7.437-2.998 48.041-5 58.5"/><path fill="url(#f)" d="M586 885c-2.253 1.671-4.681 3.29-7 5-9.031 5.75-22.431 11.824-31 16-5.729 2.792-21.8 9.846-7.5 1-32.561 5.88-59.772.562-90.5-8-105.942-79.27-147.61-220.527-138.5-349 79.814 156.856 306.642 161.767 395.5 10.5 4.807 47.768 2.111 97.476-10 144-15.661 60.164-60.557 142.952-111 180.5M442 735c-4.136 2.207-5.996 5.239-9 7-7.78 3.331-16.938 6.337-25.5 5-3.512-.549-9.139-5.006-10-5-7.415.055-9.789 16.9-3 21 7.455 4.502 9.597-8.361 15-8 1.394.093 14.628 15.694 20.5 19 51.133 54.023 141.969 35.618 184.5-20l6 11c9.263 1.777 9.047-13.859 5.5-18.5-3.958-5.179-8.411-.029-14 .5-30.509 2.89-32.145-20.346-54-30-18.574-17.203-33.712 8.687-51.5 6-9.631-1.455-17.277-14.084-30-13-10.177.867-27.592 17.392-34.5 25" style="fill:url(#f)"/>/&gt;<path fill="url(#g)" d="M809 550c-6.68 38.493-9.615 89.122 1 127h-1c-2.823-8.971-5.264-15.624-5.5-25-11.26-3.551-21.935 3.023-32.5 6-2.811-14.93-4.138-31.774-4-47 .062-6.848 3.479-50.346 6-53.5z" style="fill:url(#g)"/>/&gt;<path fill="url(#h)" d="M209 691c14.868-34.583 12.624-93.04 7-130l.5-8c5.99 1.73 32.361 3.951 34.5 7.5 5.474 36.154 8.252 75.147-1 111-6.332 24.539-18.668 47.871-48 40-2.062-4.107 9.565-15.306 7-20.5" style="fill:url(#h)"/>/&gt;<path fill="#c8e2e9" d="M280 613c.081-8.337-.439-16.699-1-25-.614-9.087-1.742-17.998-3-27 3.14.173 5.45 8.308 6 10.5 3.163 12.6 3.664 26.189 3 39-3.455-3.393-3.143.015-5 2.5"/><path fill="#259ccc" d="M849 567c2.73 5.797-3.272 31.378-4 39.5-.716 7.988 3.165 23.321-4 26.5-2.276-21.643-.334-47.461 3-69 .772.55 4.876 2.736 5 3"/><path fill="#81d7e7" d="M648 584c-67.175 66.189-166.858 76.114-245 22l4-4c77.55 51.98 183.815 38.023 246-31-.285 5.274-12.986 8.859-5 13"/><path fill="#346f83" d="M836 578c-2.419 22.638-3.211 46.567 1 69 1.268 6.758 1.646 8.262 4 14 1.998 4.87 4.904 9.209 7 14-8.96-8.058-3.918-17.26-19-10-.995-3.826-1.312-6.288-2-10-4.425-23.873-4.819-45.787-3-70 1.827-.4 8.692.555 9.5 0 1.682-1.154-1.468-7.231 2.5-7"/><path fill="#467b8c" d="M745 580c-2.167 20.089 1.071 42.562-8 60 .279-11.921 1.051-23.629 2-35.5z"/><path fill="#65848c" d="M279 588c.561 8.301 1.081 16.663 1 25-.042 4.288.273 8.734 0 13-.183 2.862-.669 5.275-1 8-.675 5.564-2.283 11.124-4 16.5-.779 2.44 1.081 3.81 1 4-1.046 2.457-6.485 2.452-7 3-.79.839-3.479 18.033-5 22.5-1.901 5.585-3.103 9.71-6 15l-8-4c9.693-22.851 11.399-55.426 11-80l11-.5c.92-1.295-2.532-22.596-2-24 .141-.371 6.203-2.682 6.5-2.5 1.314.807-.898 4.592 2.5 4"/><path fill="#4d676f" d="M217 602c.911 27.454-1.279 65.068-12 90.5-3.323 7.884-9.77 19.903-18.5 22.5.917-2.805 3.751-4.442 5.5-7 9.689-14.168 15.222-31.047 18-48 3.009-18.366 3.805-37.965 2-56.5z"/><path fill="#b0c7cb" d="M767 611c-.138 15.226 1.189 32.07 4 47 5.148 27.344 15.721 61.161 51 51.5-5.926-10.68-9.379-20.993-13-32.5h1c3.687 13.154 10.086 26.981 20 36.5-16.924-1.379-33.185 3.377-45-11-16.108-19.6-20.143-66.696-20-91.5z"/><path fill="#afd1da" d="M278 648c.56-4.675 1.629-9.206 1-14 .331-2.725.817-5.138 1-8 4.515.536 4.49 4.633 5 8.5 1.324 10.033-.98 22.657 0 33z"/><path fill="#346576" d="M200 629c-.507 10.234-1.935 19.988-4 30-.297 1.439-.685 2.677-1 4-14.972-4.38-9.409.996-17 10-.037-1.907 1.322-3.368 2-5 3.11-7.489 3.939-15.052 5-23 2.098 2.559 2.975-5.188 3-5.5.321-4.035.802-8.553 1-12.5-.044 3.841 7.726 1.301 11 2"/><path fill="#14485e" d="M755 664c3.351 16.353 13.028 49.554 34 48 .066.106 3.265-.477 1.5 2l-6.5 2.5c3.162 2.313 5.396.68 9 .5-24.053 45.889-51.219 90.476-89.5 126-85.804 79.625-206.583 107.774-313 50-70.119-38.068-122.206-103.008-156-174-1.74-.208-3.888.304-5.5 0 3.026-1.938 2.152-3.103 5-6-.338 3.087 2.209 2.073 4 1.5 9.676-3.098 15.295-10.91 20-19.5 2.897-5.29 4.099-9.415 6-15 10.082-.598.519 6.219 3 11-5.206 11.586-12.289 21.622-24 27.5 3.883 6.01 7.65 12.187 11 18.5 58.907 110.999 169.909 198.274 302 172 97.987-19.49 165.609-85.252 213-170 4.035-7.216 8.019-14.873 13-21.5-1.134-2.392-4.255-1.031-5-1.5-7.13-4.489-12.954-11.191-17-18.5-3.686-6.659-16.43-44.333-15-50 .398-1.575 5.84-3.677 6-4 1.023-2.073-5.077-10.75 0-14.5.452 10.429 1.912 24.813 4 35"/><path fill="#486973" d="M278 648c-.337 2.813-.522 6.293-1 9-1.808 10.241-5.747 24.535-10 34-2.481-4.781 7.082-11.598-3-11 1.521-4.467 4.21-21.661 5-22.5.515-.548 5.954-.543 7-3 .081-.19-1.779-1.56-1-4 1.717-5.376 3.325-10.936 4-16.5.629 4.794-.44 9.325-1 14"/><path fill="#6eb4c4" d="M841 661c-2.354-5.738-2.732-7.242-4-14l2-1c.782 4.959 1.748 9.966 2 15"/><path fill="#4e656c" d="M809 677c3.621 11.507 7.074 21.82 13 32.5-35.279 9.661-45.852-24.156-51-51.5 10.565-2.977 21.24-9.551 32.5-6 .236 9.376 2.677 16.029 5.5 25"/><path fill="#1a303c" d="M827 655c.688 3.712 1.005 6.174 2 10 3.702 14.237 13.537 44.31 33 39-1.112 9.535-17.616 8.633-25 8-15.793-14.055-20.708-36.843-23.5-57z"/><path fill="#9abec8" d="M259 735c-1.971 2.464-1.749 3.205-5 2-3.35-6.313-7.117-12.49-11-18.5 11.711-5.878 18.794-15.914 24-27.5 4.253-9.465 8.192-23.759 10-34 10.924 27.383-.509 56.131-18 78"/><path fill="#1a313c" d="M210 660c-2.778 16.953-8.311 33.832-18 48-9.667 6.217-25.05 11.091-31-2 20.83 5.641 30.555-28.552 34-43 .315-1.323.703-2.561 1-4z"/><path fill="#304d55" d="M195 663c-3.445 14.448-13.17 48.641-34 43-7.782-2.107-20.785-23.148-22-31 14.928 11.982 26.06 13.347 39-2 7.591-9.004 2.028-14.38 17-10"/><path fill="#3a6d7d" d="M766 731c-.395 1.141.265 3.551 0 5-2.722-1.06-2.044-.392-4 1.5-6.312 6.106-17.473 27.323-24 36-42.56 56.581-86.437 96.908-154 121.5v-2c27.258-13.03 60.533-42.384 80-65.5 39.686-47.123 62.016-106.069 72-166.5 1.211 15.832 14.004 55.151 24 67.5 1.78 2.199 2.565 5.004 6 2.5"/><path fill="#658993" d="M767 671c7.751 19.214 11.651 24.396 22 41-20.972 1.554-30.649-31.647-34-48l8.5-3c.99.241 2.789 8.238 3.5 10"/><path fill="#304c55" d="M848 675c4.467 4.016 9.417 3.516 11.5 8 9.613.61 17.849-3.748 25.5-9-4.585 8.894-12.534 27.145-23 30-19.463 5.31-29.298-24.763-33-39 15.082-7.26 10.04 1.942 19 10"/><path fill="#486973" d="M258 695c-4.705 8.59-10.324 16.402-20 19.5-1.791.573-4.338 1.587-4-1.5 6.373-6.483 12.337-13.365 16-22z"/><path fill="#450512" d="M558 717c-10.507-4.642-24.247-6.394-32 4-2.635 1.224-4.558 2.574-7 4-4.908-1.055-9.187.484-14.5-1-8.901-2.486-15.239-12.461-26.5-12-.883.036-.992.806-2 1-11.816 2.276-21.61 14.224-31 21-1.127.61-2.616.795-3 1 6.908-7.608 24.323-24.133 34.5-25 12.723-1.084 20.369 11.545 30 13 17.788 2.687 32.926-23.203 51.5-6"/><path fill="#a95167" d="M519 725c2.442-1.426 4.365-2.776 7-4 6.253-2.905 11.816-5.454 19-3.5-23.208 6.558-23.607 22.531-50.5 15.5-9.578-2.504-18.779-13.002-28.5-11l10-9c1.008-.194 1.117-.964 2-1l27.5 19c9.778 1.89 9-3.373 13.5-6"/><path fill="#85152d" d="M519 725c-4.5 2.627-3.722 7.89-13.5 6L478 712c11.261-.461 17.599 9.514 26.5 12 5.313 1.484 9.592-.055 14.5 1"/><path fill="#dec0cb" d="m476 713-10 9c-2.856.588-13.78 9.954-17.5 12-2.931 1.612-3.346-.083-3.5 0 9.39-6.776 19.184-18.724 31-21"/><path fill="#821930" d="M558 717c21.855 9.654 23.491 32.89 54 30 2.519 3.137 8.918-2.341 10.5-2 3.805.821 5.049 16.555 2 18-9.88.599-2.879-7.524-11.5-10-3.624-1.041-3.536-.474-7 0-1.887.258-2.889.811-4 1-9.067-1.272-17.182 1.99-26.5 0-10.083-2.154-18.3-12.551-29-14-15.979-2.164-33.433 8.105-53 5-6.541-1.038-13.744-7.592-22-7-9.921.711-20.678 15.133-33 17-14.226 2.155-29.162-5.257-41 0-1.366-7.859 13.364-3.991 18-5 3.971-.864 12.052-4.805 17.5-8 3.004-1.761 4.864-4.793 9-7 .384-.205 1.873-.39 3-1 .154-.083.569 1.612 3.5 0 3.72-2.046 14.644-11.412 17.5-12 9.721-2.002 18.922 8.496 28.5 11 26.893 7.031 27.292-8.942 50.5-15.5-7.184-1.954-12.747.595-19 3.5 7.753-10.394 21.493-8.642 32-4"/><path fill="#407f95" d="M769 739c-1.488-.686-.854-2.164-3-3 .265-1.449-.395-3.859 0-5 .869-2.508 9.415-11.521 11-15 .745.469 3.866-.892 5 1.5-4.981 6.627-8.965 14.284-13 21.5"/><path fill="#cfedf4" d="M441 896c3.204 1.033 5.687 2.077 9 3 30.728 8.562 57.939 13.88 90.5 8-14.3 8.846 1.771 1.792 7.5-1 1.567-.257 4.701-.542 6-1l2 4c-132.091 26.274-243.093-61.001-302-172 3.251 1.205 3.029.464 5-2 35.842 61.729 86.394 123.257 153.5 152 9.177 3.93 19.07 5.96 28.5 9"/><path fill="#6ca0af" d="M766 736c2.146.836 1.512 2.314 3 3-47.391 84.748-115.013 150.51-213 170l-2-4c9.957-3.507 20.058-6.381 30-10 67.563-24.592 111.44-64.919 154-121.5 6.527-8.677 17.688-29.894 24-36 1.956-1.892 1.278-2.56 4-1.5"/><path fill="#690a1d" d="M602 754c-11.567 1.97-18.552 6.247-31.5 1l-1.5 3.5c6.366 2.682 13.561 3.226 20.5 2.5 3.871-.405 15.62-3.031 16.5-8 3.464-.474 3.376-1.041 7 0-11.854 10.5-20.887 23.473-34.5 32-32.187 20.161-103.622 28.575-132.5 0 12.919 3.459 24.99 10.149 38.5 12 39.12 5.36 85.271-4.424 114.5-31.5-48.182 32.937-103.547 35.653-157 13.5-7.314-3.031-6.127-.825-6.5-1-.979-.459-3.1-2.649-5.5-4-5.872-3.306-19.106-18.907-20.5-19-5.403-.361-7.545 12.502-15 8-6.789-4.1-4.415-20.945 3-21 .861-.006 6.488 4.451 10 5 8.562 1.337 17.72-1.669 25.5-5-5.448 3.195-13.529 7.136-17.5 8-4.636 1.009-19.366-2.859-18 5 11.838-5.257 26.774 2.155 41 0 12.322-1.867 23.079-16.289 33-17 8.256-.592 15.459 5.962 22 7 19.567 3.105 37.021-7.164 53-5 10.7 1.449 18.917 11.846 29 14 9.318 1.99 17.433-1.272 26.5 0m-51.5-6c-2.846.137-26.896 5.017-30 6-1.123.355.144 3.347-1 4-5.921 3.38-30.845-6.574-37.5-3.5 13.678 4.094 27.094 6.74 41.5 5.5 6.803-.586 14.308-4.087 21-5 1.765-.241 27.096 2.562 20-5-1.036-1.104-11.739-2.109-14-2m-83 9c-3.299.859-6.33 6.098-6.5 9.5 1.623 10.009 37.759 9.059 45.5 8.5 4.678-.338 34.21-5.17 34.5-8.5-8.079-7.095-26.085-2.233-37.5-3.5-11.247-1.248-24.384-9.026-36-6"/><path fill="#2e040c" d="M430 774c2.4 1.351 4.521 3.541 5.5 4 .373.175-.814-2.031 6.5 1-.711 1.018 3.431 5.437 4 6 28.878 28.575 100.313 20.161 132.5 0 13.613-8.527 22.646-21.5 34.5-32 8.621 2.476 1.62 10.599 11.5 10 3.049-1.445 1.805-17.179-2-18-1.582-.341-7.981 5.137-10.5 2 5.589-.529 10.042-5.679 14-.5 3.547 4.641 3.763 20.277-5.5 18.5l-6-11c-42.531 55.618-133.367 74.023-184.5 20"/><path fill="#4c0008" d="M550.5 748c2.261-.109 12.964.896 14 2 7.096 7.562-18.235 4.759-20 5-6.692.913-14.197 4.414-21 5-14.406 1.24-27.822-1.406-41.5-5.5 6.655-3.074 31.579 6.88 37.5 3.5 1.144-.653-.123-3.645 1-4 3.104-.983 27.154-5.863 30-6"/><path fill="#480008" d="M606 753c-.88 4.969-12.629 7.595-16.5 8-6.939.726-14.134.182-20.5-2.5l1.5-3.5c12.948 5.247 19.933.97 31.5-1 1.111-.189 2.113-.742 4-1"/><path fill="#9f4d5f" d="M467.5 757c11.616-3.026 24.753 4.752 36 6 11.415 1.267 29.421-3.595 37.5 3.5-.29 3.33-29.822 8.162-34.5 8.5-7.741.559-43.877 1.509-45.5-8.5.17-3.402 3.201-8.641 6.5-9.5"/><path fill="#6d242f" d="M446 785c-.569-.563-4.711-4.982-4-6 53.453 22.153 108.818 19.437 157-13.5-29.229 27.076-75.38 36.86-114.5 31.5-13.51-1.851-25.581-8.541-38.5-12"/><path fill="#b7dae3" d="m317.5 778 52 72c-11.751-2.385-55.585-66.141-54.5-70.5.165-.661 2.03-.354 2.5-1.5"/><path fill="#325b68" d="M586 885c-2.766 2.059-3.871 3.008-7 5 2.319-1.71 4.747-3.329 7-5m-7 5c-3.771 2.781-7.652 6.228-11.5 9 5.495-1.757 11.313-3.52 16.5-6v2c-9.942 3.619-20.043 6.493-30 10-1.299.458-4.433.743-6 1 8.569-4.176 21.969-10.25 31-16"/></svg>