<svg xmlns="http://www.w3.org/2000/svg" width="1024" height="1024"><defs><linearGradient id="a" x1="788.443" x2="228.91" y1="396.371" y2="583.517" gradientUnits="userSpaceOnUse"><stop offset="0%" style="stop-color:#568b9b"/><stop offset="4.915%" style="stop-color:#89b8ca"/><stop offset="28.644%" style="stop-color:#bad5df"/><stop offset="67.119%" style="stop-color:#daeaf1"/><stop offset="100%" style="stop-color:#97bdcb"/></linearGradient></defs><defs><linearGradient id="b" x1="571.248" x2="456.741" y1="794.312" y2="818.333" gradientUnits="userSpaceOnUse"><stop offset="0%" style="stop-color:#806c77"/><stop offset="100%" style="stop-color:#a58b9a"/></linearGradient></defs><path fill="#39bae3" d="M624 158c-.074.985-6.179 1.071-6.5 1-2.466-.542-11.283-4.891-15.5-6-6.551-1.722-13.877-3.819-20.5-5-1.972-.352-7.708-1.963-8.5 1-2.009-.522-1.892-.97-2-1-.381-.106-3.185-5.363-6 0-1.362-.571-.932-.98-1-1-.099-.03.338-1.879-.5-2-2.8-.404-5.837 1.054-6.5 1-20.22-6.22-47.586-3.007-67.5-2-3.193.162-1.654-2.316-6-2-43.311 3.151-97.415 21.52-135.5 42l-2-3c79.117-42.803 193.231-58.29 278-23"/><path fill="#e1faff" d="M557 146c-40.829-3.305-82.667-1.351-122 10-71.731 11.989-147.251 70.228-191 126-19.68 25.088-32.002 45.407-46 74-5.857 11.963-12.066 23.669-16 36.5 2.25-21.429 12.669-45.313 23-65 31.031-59.137 84.342-111.958 143-143.5 38.085-20.48 92.189-38.849 135.5-42 4.346-.316 2.807 2.162 6 2 19.914-1.007 47.28-4.22 67.5 2"/><path fill="#4ccaec" d="M557 146c2.504.77 4.281 1.499 7 1 .068.02-.362.429 1 1 1.144.48 4.4-.33 6 0 .108.03-.009.478 2 1 9.017 2.345 19.624 3.931 29 4 4.217 1.109 13.034 5.458 15.5 6 .321.071 6.426-.015 6.5-1 2.306.96 2.836 1.925 3 2 7.778 3.564 14.66 8.963 23 11.5L636 207c-87.631-37.74-186.028-35.301-271 9l-3-11c43.452-22.629 96.269-39.282 145.5-39 9.801-14.759-28.704-13.083-37-13-10.899.109-24.78 1.208-35.5 3 39.333-11.351 81.171-13.305 122-10"/><path fill="#aeeafc" d="M564 147c-2.719.499-4.496-.23-7-1 .663.054 3.7-1.404 6.5-1 .838.121.401 1.97.5 2"/><path fill="#ace7f9" d="M571 148c-1.6-.33-4.856.48-6 0 2.815-5.363 5.619-.106 6 0"/><path fill="#99e0f5" d="M602 153c-9.376-.069-19.983-1.655-29-4 .792-2.963 6.528-1.352 8.5-1 6.623 1.181 13.949 3.278 20.5 5"/><path fill="#b5eefc" d="M362 205c-30.131 15.692-53.055 33.218-77 57-10.416 10.345-18.958 19.346-28 31l-13-11c43.749-55.772 119.269-114.011 191-126 10.72-1.792 24.601-2.891 35.5-3 8.296-.083 46.801-1.759 37 13-49.231-.282-102.048 16.371-145.5 39"/><path fill="#26acce" d="M845 379c-4.156-.847-3.177 3.065-3 5.5.661 9.111 6.03 22.822 8 32.5.079 18.852 5.222 37.669 6 56.5 1.28 30.999-2.761 57.861-5 86l-24-1c1.621-4.597 7.107-37.367 6-39-.666-.982-9.206-1.789-11-1.5.078-.984-.067-2.014 0-3 8.165 5.881 14.34-.6 12-8.5-.158-.532-9.854-1.79-11-1.5 4.216-120.892-58.899-230.597-165-287-7.375-3.921-14.287-7.678-22-11l14-35.5c-8.34-2.537-15.222-7.936-23-11.5 89.254 28.469 162 99.907 202 183.5 3.345 6.99 9.338 29.112 12 33 .802 1.171 2.695 1.827 4 2.5"/><path fill="#196e96" d="M636 207c7.713 3.322 14.625 7.079 22 11l-2 2c-175.932-92.753-395.452 2.605-444 195h-3c8.716-35.044 23.879-68.169 44-98 11.602-17.201 25.239-33.48 40-48 20.471-20.136 46.484-39.697 72-53 84.972-44.301 183.369-46.74 271-9"/><path fill="#4ac9eb" d="M348 184c-58.658 31.542-111.969 84.363-143 143.5-10.331 19.687-20.75 43.571-23 65 3.934-12.831 10.143-24.537 16-36.5 3.785 5 13.352 4.733 15 11-11.483 27.546-18.402 57.021-23 86.5-.827-1.463-18.421-7.553-19.5-7.5-3.804.188-2.232 2.453-4.5 4 2.73-23.269 7.492-48.591 14-71 23.819-82.011 91.593-157.745 166-198z"/><path fill="url(#a)" d="M656 220c139.623 73.61 200.429 245.111 140 391.5-35.462 85.907-117.787 158.824-208 180.5.535-1.296.746-.803 1-1 2.463-1.911 19.176-2.863 19-8 57-20.289 131.124-85.481 155-141.5 6.776-15.897 4.825-22.236 8-34.5.407-1.571.625-3.623 1-5 9.038-33.215 21.812-63.546 24-99.5 2.252-37.008-13.178-74.492-20.5-110.5-2.664 61.905-3.06 128.233-37.5 182-7.073-.112-12.855 3.273-19 6-13.031 5.784-20.993 16.555-22 32-.81 12.429 2.004 24.564 13 32-8.645 10.167-42.272 35.297-47 45-2.79-2.234-12.678-6.888-15-2-5.988-1.535-52.068 13.037-64 15-53.174 8.75-120.33 5.355-173-6-6.832-1.473-16.983-2.572-22.5-4-.575-.149-.284-2.426-2.5-3-3.809-.986-8.684-3.632-12.5-4-42.56-4.109 6.585 46.941 17.5 57l-67-5c-98.978-77.162-143.25-198.159-112-322 48.548-192.395 268.068-287.753 444-195M347 589c66.151 88.087 184.8 114.602 281.5 59 111.886-64.334 138.442-220.493 49.5-315-164.345-227.611-507.746 20.645-331 256m-72-14c-39.057 21.816-21.683 73.947 22 75 27.556.664 44.853-21.391 40-48-1.103-6.047-3.563-11.024-7-16-3.57-5.169-5.801-6.705-11-10-15.186-9.626-28.528-9.642-44-1" style="fill:url(#a)"/>/&gt;<path fill="#82ddf6" d="M365 216c-25.516 13.303-51.529 32.864-72 53l-8-7c23.945-23.782 46.869-41.308 77-57z"/><path fill="#012b47" d="M823 505c-.116 3.313-.77 6.628-1 10-.067.986.078 2.016 0 3-3.261 41.078-14.418 79.514-33 116-46.453 91.214-105.672 124.719-196.5 161-2.926 1.169-3.037 1.19-4.5 4 .334-1.888-.515-5.751 0-7 90.213-21.676 172.538-94.593 208-180.5 60.429-146.389-.377-317.89-140-391.5l2-2c106.101 56.403 169.216 166.108 165 287"/><path fill="#0b2532" d="M678 333c94.852 131.366 15.14 314.846-146.5 331-70.321 7.028-138.929-21.874-184.5-75-176.746-235.355 166.655-483.611 331-256m-281-54c-54.414 34.698-91.827 98.258-95 163-.826 16.854.43 31.501 3 48 6.116 39.27 23.435 74.663 50 104 134.484 148.518 381.226 37.83 361-157.5-.617-5.957-4.83-29.951-7-34.5-10.478-37-28.779-67.197-56-94-70.508-69.426-171.285-83.02-256-29"/><path fill="#b9ccd4" d="M653 308c-12.725 10.994-8.49 30.133-18 43-30.563-34.798-72.348-55.75-119-57l.5-10c-32.852-1.264-66.614 7.834-94.5 25-3.29-12.782-25.103-16.754-25-30 84.715-54.02 185.492-40.426 256 29"/><path fill="#4bcaec" d="M293 269c-14.761 14.52-28.398 30.799-40 48l-9-6a322 322 0 0 1 13-18c9.042-11.654 17.584-20.655 28-31z"/><path fill="#f0f6f8" d="M422 309c-40.666 25.033-76.028 78.001-81 126l-39 7c3.173-64.742 40.586-128.302 95-163-.103 13.246 21.71 17.218 25 30"/><path fill="#82ddf6" d="M257 293a322 322 0 0 0-13 18c-11.637 17.368-22.936 36.656-31 56-1.648-6.267-11.215-6-15-11 13.998-28.593 26.32-48.912 46-74z"/><path fill="#7696a1" d="M516 294c-86.057-2.305-160.729 64.397-168 150.5-.403 4.772-.262 37.669 1 40 .859 1.586 6.604-2.096 9 0 1.164 1.018 3.387 23.031 8 25.5 17.637 49.901 71.119 92.313 123.5 99C620.714 625.751 713.794 485.188 639 373l11-2.5c-4.958-6.508-9.601-13.352-15-19.5 9.51-12.867 5.275-32.006 18-43 27.221 26.803 45.522 57 56 94-.146-.307-1.592 2.231-3.5-4-10.27 7.673-14.095 30.535-27.5 34-.259.067-3.917-2.311-5-.5-.443.741 2.914 14.284 3 17 1.909 60.345-26.816 116.742-79 147.5-14.417 8.498-38.067 18.232-54.5 21-17.482 2.944-35.189.482-52.5 4-7.701-1.102-16.03-2.833-23.5-5-5.128-1.488-26.481-12.116-28-12-.539.041-5.209 4.94-9 6-24.418 6.828-50.802-17.026-74.5-16-26.565-29.337-43.884-64.73-50-104l39-.5c-.65-7.471-2.759-15.561-3-23-.271-8.347-.81-23.682 0-31.5 4.972-47.999 40.334-100.967 81-126 27.886-17.166 61.648-26.264 94.5-25z"/><path fill="#4a6f7b" d="M516 294c46.652 1.25 88.437 22.202 119 57 5.399 6.148 10.042 12.992 15 19.5l-11 2.5c-102.313-153.465-331.875-29.578-273 137-4.613-2.469-6.836-24.482-8-25.5-2.396-2.096-8.141 1.586-9 0-1.262-2.331-1.403-35.228-1-40 7.271-86.103 81.943-152.805 168-150.5"/><path fill="#082232" d="M639 373c74.794 112.188-18.286 252.751-149.5 236-52.381-6.687-105.863-49.099-123.5-99-58.875-166.578 170.687-290.465 273-137M439 585c18.173 10.049 38.079 17.471 59 19 49.088 3.587 100.428-16.393 130-56 15.211-10.321 30.641-58.459 32-76.5 5.798-76.94-52.485-151.699-129.5-161.5-156.702-19.943-234.11 196.145-91.5 275"/><path fill="#1d5c8b" d="M628 548c-.756.513-4.233 3.04-4.5 3-.735-.111-9.042-10.055-11-10-1.806.051-21.305 20.251-27 24-26.026 17.13-58.484 25.05-89.5 23-6.757-.447-32.831-6.53-34.5-6-2.192.696-3.773 9.506-6 10-1.859.413-13.126-7.842-16.5-7-142.61-78.855-65.202-294.943 91.5-275 77.015 9.801 135.298 84.56 129.5 161.5-1.359 18.041-16.789 66.179-32 76.5m-211-94c.013.944.966 1.04 1 2 .007.206-1.184 1.287-1 4 2.125 31.338 15.004 62.828 44 78 14.652 7.666 29.656 10.127 46 11 .265.849 2.654 2.57 3 3 7.193 8.952 20.102 9.086 27 0 38.725 15.801 78.807-30.949 88-65.5 6.688-25.139 8.848-38.153-21-32.5-1.692.321-2.623.904-3 1-1.401.357-3.416.43-5 1-4.272-4.734-9.703-11.45-10-18 15.693-2.195-.343-28.288-12-2-3.555-.775-1.318-2.709-2.5-3-3.08-.758-7.093 2.815-10.5 2-1.744-3.629-8.263-11.305-11.5-14-5.708-4.753-21.59-9.461-22.5-16-.316-2.269 1.564-6.767 3-9 11.476 4.509 21.05 11.742 31.5 18 11.914-22.599 1.402-40.007-23.5-25-5.784-10.116-21.824-16.72-33-14-1.518-5.015-3.096-6.933-6-11-38.757-54.291-128.008 30.728-107 72.5 4.55 9.047 17.383 11.31 25 17.5m-32.5-20c-1.08 1.173-2.291 1.682-2.5 3.5-.831 7.244-.582 26.407 0 34 2.429 31.685 21.537 66.364 46.5 85.5-30.767-33.567-48.019-76.894-44-123"/><path fill="#26acce" d="M253 317c-20.121 29.831-35.284 62.956-44 98-18.967 76.263-10.598 153.053 25 223-1.023-1.277-4.125-5.982-4.5-6-.496-.024-7.453 5.666-7.5 6.5-.195 3.486 24.291 40.964 29 46L234 695c-29.065-39.294-50.608-82.609-62-130.5l-9-51.5c-.825-21.092.548-42.101 3-63 2.268-1.547.696-3.812 4.5-4 1.079-.053 18.673 6.037 19.5 7.5 4.598-29.479 11.517-58.954 23-86.5 8.064-19.344 19.363-38.632 31-56z"/><path fill="#5a808b" d="M347 589c45.571 53.126 114.179 82.028 184.5 75C693.14 647.846 772.852 464.366 678 333c88.942 94.507 62.386 250.666-49.5 315-96.7 55.602-215.349 29.087-281.5-59"/><path fill="#89aac9" d="m499 364-29.5 4-12.5 6c-26.753-28.232-73.058 27.077-35 42-2.476 1.253-1.594 4.311-2 6-2.819 11.731-3.165 19.953-3 32-7.617-6.19-20.45-8.453-25-17.5-21.008-41.772 68.243-126.791 107-72.5"/><path fill="#69cfe8" d="M505 375c1.009 3.331 1.23 6.74 2 10 .332 1.405-.284 3.501 0 5 .118.623-.109 1.372 0 2h-1c-13.336-7.787-38.358 14.234-40 27-4.412 1.272-6.596 8.156-8 12-3.202 1.222-8.061 2.695-11 4-1.213-10.046-18.742-18.156-27-13 .406-1.689-.476-4.747 2-6 26.935 10.561 52.656-23.368 35-42l12.5-6 29.5-4c2.904 4.067 4.482 5.985 6 11"/><path fill="#e2ecf1" d="M457 374c17.656 18.632-8.065 52.561-35 42-38.058-14.923 8.247-70.232 35-42"/><path fill="#0d81a5" d="M538 389c-3.175 1.913-5.887 3.715-8 7-.763-.3-1.229-.725-2-1-1.594-7.801-14.062-9.743-21-10-.77-3.26-.991-6.669-2-10 11.176-2.72 27.216 3.884 33 14"/><path fill="#03314e" d="M180 379c-6.508 22.409-11.27 47.731-14 71-2.452 20.899-3.825 41.908-3 63 1.374 35.153 9.968 80.744 24 113l-1 2-49.5-8c-6.101-2.876-9.778-29.253-12.5-35.5-10.413-23.903-20.353-29.69-23-61-4.053-47.94 5.329-61.166 22-101 2.528-6.041 6.833-31.457 11-35 4.873-4.144 37.996-5.542 46-8.5m-52 33c-12.415 43.08-13.685 95.683-8 140 1.178 9.181 11.246 61.948 18 65l33 4.5c-13.191-11.574-19.547-27.25-25-43.5 2.754-3.187 19.555-4.563 20-5.5.941-1.983-5.481-36.973-6-43.5-.977-12.283-2.186-25.75-2-38 .426-28.144 5.389-60.646 12-88 .655-2.709 7.707-18.356 5.5-20-7.842 3.445-32.115 2.973-38 6-2.627 1.351-8.422 19.259-9.5 23m-22 126c2.231 11.751 5.618 26.747 14 35.5-2.274-16.711-3.555-33.796-6-50.5-1.472-10.054.5-16.066-8-24.5l6 3-3-3c1.686-5.538-.789-12.026 0-17 1.486-9.363 13.204-22.659 7-32l-3.5 7.5-1.5-6.5c-8.935 28.398-10.516 58.45-5 87.5"/><path fill="#002742" d="M845 379c7.812 4.032 38.044 4.268 43 8.5.579.495 5.351 12.203 6 14 13.832 38.285 28.957 64.311 28 108-.824 37.624-9.773 43.56-23 73-2.978 6.629-7.057 34.461-13.5 37.5l-49.5 8-2-.5c28.59-66.235 30.262-140.435 16-210.5-1.97-9.678-7.339-23.389-8-32.5-.177-2.435-1.156-6.347 3-5.5m12 47c1.778 9.618 2.94 19.271 4 29 1.292 11.861 2.794 24.062 3 36 .189 10.954-.338 22.08-1 33-.835 13.774-3.05 28.015-6 41.5l18.5 7.5 5.5-11c-5.616 21.478-13.113 44.414-30 59.5 1.09 1.442 12.564-1.171 15-1.5 12.356-1.669 16.461 1.028 22-10 10.677-21.256 14.684-61.089 16-85 .796-14.471.743-27.538 0-42-.085-1.649.107-3.354 0-5-1.232-18.965-3.734-36.506-8-55-.69-2.991-1.175-6.028-2-9-1.29-4.646-5.111-21.485-8.5-24-4.39-3.258-31.984-4.4-39-7 3.421 14.384 7.801 28.395 10.5 43m49 42c1.521 14.626 3.313 24.539 3 40-.103 5.096-.692 9.948-1 15-1.034 16.945-3.506 33.734-6 50.5 9.256-10.079 12.774-26.72 15-40.5 5.645-34.938 1.649-72.827-15.5-104 .874 13.08 3.146 25.984 4.5 39"/><path fill="#edeff1" d="M170 403c-5.371-.112-10.063 2.578-15 4-5.232 1.507-10.707 2.685-16 4-3.851.957-9.075 4.054-11 1 1.078-3.741 6.873-21.649 9.5-23 5.885-3.027 30.158-2.555 38-6 2.207 1.644-4.845 17.291-5.5 20"/><path fill="#9ac6d2" d="M530 396c2.113-3.285 4.825-5.087 8-7 24.902-15.007 35.414 2.401 23.5 25-10.45-6.258-20.024-13.491-31.5-18"/><path fill="#044a6b" d="M894 414c-4.051-.766-27.352-7.711-29-5.5 1.855.93 1.532 2.474 2 3.5.835 4.482-5.082 6.024-6 7.5-.273.438 4.507 5.655-4 6.5-2.699-14.605-7.079-28.616-10.5-43 7.016 2.6 34.61 3.742 39 7 3.389 2.515 7.21 19.354 8.5 24"/><path fill="#1d5c8b" d="M528 395c-7.408-2.642-13.177-4.125-21-5-.284-1.499.332-3.595 0-5 6.938.257 19.406 2.199 21 10"/><path fill="#dbdfe1" d="M506 392c-1.688 12.204-5.772 22.112-14 31.5-5.34 6.093-16.349 17.63-23 9.5-2.717-4.899-3.751-8.159-3-14 1.642-12.766 26.664-34.787 40-27"/><path fill="#16617d" d="M528 395c.771.275 1.237.7 2 1-1.436 2.233-3.316 6.731-3 9l-16-1c-.492-4.98-3.372-8.372-4-12-.109-.628.118-1.377 0-2 7.823.875 13.592 2.358 21 5"/><path fill="#c0d2d9" d="M511 404c.979 9.917-.197 30.724-9.5 37-8.073 5.446-21.115 3.094-28.5-3-.749-.618-3.439-3.988-4-5 6.651 8.13 17.66-3.407 23-9.5 8.228-9.388 12.312-19.296 14-31.5h1c.628 3.628 3.508 7.02 4 12"/><path fill="#8dbac8" d="M772 602c-5.269-14.208-17.538-27.739-34-28 34.44-53.767 34.836-120.095 37.5-182 7.322 36.008 22.752 73.492 20.5 110.5-2.188 35.954-14.962 66.285-24 99.5"/><path fill="#4a6f7b" d="M709 402c2.17 4.549 6.383 28.543 7 34.5C736.226 631.83 489.484 742.518 355 594c23.698-1.026 50.082 22.828 74.5 16 3.791-1.06 8.461-5.959 9-6 1.519-.116 22.872 10.512 28 12 7.47 2.167 15.799 3.898 23.5 5 40.584 5.81 72.817.265 108-20 59.479-34.258 90.532-100.577 80-169 13.405-3.465 17.23-26.327 27.5-34 1.908 6.231 3.354 3.693 3.5 4"/><path fill="#34abc7" d="M170 403c-6.611 27.354-11.574 59.856-12 88-8.776.407-17.219.702-26 0a356 356 0 0 1 1-30l22-54c4.937-1.422 9.629-4.112 15-4"/><path fill="#083f5e" d="M527 405c.91 6.539 16.792 11.247 22.5 16 3.237 2.695 9.756 10.371 11.5 14 3.172 6.602 4.877 16.68 5 24 1.132 67.563-120.574 69.399-111-15l18-6c7.385 6.094 20.427 8.446 28.5 3 9.303-6.276 10.479-27.083 9.5-37z"/><path fill="#60bfd4" d="m155 407-22 54c1.271-16.745 5.643-33.143 6-50 5.293-1.315 10.768-2.493 16-4"/><path fill="#49b4c9" d="M894 414c.825 2.972 1.31 6.009 2 9-17.289-4.982-8.756 17.702-8 29 .222 3.323.799 6.581 1 10l-14-35c-.676-5.501-6.037-10.698-8-15-.468-1.026-.145-2.57-2-3.5 1.648-2.211 24.949 4.734 29 5.5"/><path fill="#a1dbe7" d="M139 411c-.357 16.857-4.729 33.255-6 50a356 356 0 0 0-1 30c-4.442-.355-6.985-1.607-11-3-5.075 1.774.546 50.907 1 59 .139 2.478 2.646 4.631-2 5-5.685-44.317-4.415-96.92 8-140 1.925 3.054 7.149-.043 11-1"/><path fill="#13708c" d="M875 427c-10.363 3.46-3.137 24.354-14 28-1.06-9.729-2.222-19.382-4-29 8.507-.845 3.727-6.062 4-6.5.918-1.476 6.835-3.018 6-7.5 1.963 4.302 7.324 9.499 8 15"/><path fill="#032e46" d="M212 415c-31.25 123.841 13.022 244.838 112 322 5.258 4.099 10.495 8.224 16 12 16.382 11.237 28.69 18.847 47 27 13.581 6.047 27.408 11.733 42 15 .119.97-.133 2.035 0 3-60.271-15.134-118.298-53.921-158-101.5-14.424-17.286-23.949-38.202-37-54.5-35.598-69.947-43.967-146.737-25-223Z"/><path fill="#126991" d="M836 628c-47.612 105.114-141.536 184.423-255 209 .455-1.559.518-5.049 1-7 2.889.072 9.945-.368 12.5-1 21.75-5.383 56.089-19.37 79-32 3.878-2.138 31.031-18.381 32-20 2.947-4.927-11.476-11.131-11.5-16.5 44.249-31.953 80.486-73.686 106-122l-11-4.5c18.582-36.486 29.739-74.922 33-116 1.794-.289 10.334.518 11 1.5 1.107 1.633-4.379 34.403-6 39l24 1c2.239-28.139 6.28-55.001 5-86-.778-18.831-5.921-37.648-6-56.5 14.262 70.065 12.59 144.265-16 210.5zm-10.5-61c5.193 3.515 11.742 1.77 17.5.5z"/><path fill="#4c505d" d="M466 419c-.751 5.841.283 9.101 3 14 .561 1.012 3.251 4.382 4 5l-18 6c.609-5.366 1.15-7.936 3-13 1.404-3.844 3.588-10.728 8-12"/><path fill="#cfe0e8" d="M447 435c-6.067 2.693-12 6.065-17 10.5 29.182-3.711 2.064 15.381-12 10.5-.034-.96-.987-1.056-1-2-.165-12.047.181-20.269 3-32 8.258-5.156 25.787 2.954 27 13"/><path fill="#72ccdd" d="M896 423c4.266 18.494 6.768 36.035 8 55-.895.857-2.701 2.996-3 4l-6 2c-.297-6.468-1.643-22.571-3-28.5-.425-1.857-1.321-4.32-4-3.5-.756-11.298-9.289-33.982 8-29"/><path fill="#a2cbd6" d="M586 438c-4.874.682-7.707-1.064-12-2 11.657-26.288 27.693-.195 12 2"/><path fill="#289eb9" d="m875 427 14 35c.561 9.569 1 19.356 1 29v15c-.065-1.85-.885-14.565-1.5-15-1.287-.91-20.987.685-24.5 0-.206-11.938-1.708-24.139-3-36 10.863-3.646 3.637-24.54 14-28"/><path fill="#39b6d7" d="M917 533v-34.5l-5 1c5.368-6.624 1.56-27.859-6-31.5-1.354-13.016-3.626-25.92-4.5-39 17.149 31.173 21.145 69.062 15.5 104"/><path fill="#0ca7cc" d="M458 431c-1.85 5.064-2.391 7.634-3 13-9.574 84.399 112.132 82.563 111 15 3.92-2.439 14.65 6.002 15.5 6 .847-.002 1.218-2.356 2.5-3-3.836 35.596-24.514 53.815-56 66-9.066 3.509-26.561 3.164-21 21-16.344-.873-31.348-3.334-46-11 .037-2.565 1.004-2.032-.5-4-3.281-4.294-15.974-11.603-21.5-18.5-6.834-8.529-14.147-23.407-17-34-1.836-6.819-.67-16.285-5-21.5-.184-2.713 1.007-3.794 1-4 14.064 4.881 41.182-14.211 12-10.5 5-4.435 10.933-7.807 17-10.5 2.939-1.305 7.798-2.778 11-4"/><path fill="#fafbfc" d="M678 432c10.532 68.423-20.521 134.742-80 169l-1-5c52.184-30.758 80.909-87.155 79-147.5-.086-2.716-3.443-16.259-3-17 1.083-1.811 4.741.567 5 .5"/><path fill="#0f7ca2" d="M574 436c4.293.936 7.126 2.682 12 2 .297 6.55 5.728 13.266 10 18-4.459 1.605-7.884 3.933-12 6-1.282.644-1.653 2.998-2.5 3-.85.002-11.58-8.439-15.5-6-.123-7.32-1.828-17.398-5-24 3.407.815 7.42-2.758 10.5-2 1.182.291-1.055 2.225 2.5 3"/><path fill="#70b7dd" d="M384.5 434c-4.019 46.106 13.233 89.433 44 123-24.963-19.136-44.071-53.815-46.5-85.5-.582-7.593-.831-26.756 0-34 .209-1.818 1.42-2.327 2.5-3.5"/><path fill="#b9ccd4" d="M341 435c-.81 7.818-.271 23.153 0 31.5.241 7.439 2.35 15.529 3 23l-39 .5c-2.57-16.499-3.826-31.146-3-48z"/><path fill="#44c2dd" d="M114 523c-12.745 2.922-5.258 5.908-8 15-5.516-29.05-3.935-59.102 5-87.5l1.5 6.5 3.5-7.5c6.204 9.341-5.514 22.637-7 32-.789 4.974 1.686 11.462 0 17l3 3-6-3c8.5 8.434 6.528 14.446 8 24.5"/><path fill="#1dadd8" d="M537 552c1.578-2.079 2.697-5.33 3-8 39.498-8.109 66.393-50.596 64-90 29.848-5.653 27.688 7.361 21 32.5-9.193 34.551-49.275 81.301-88 65.5"/><path fill="#9de3f2" d="M895 484c.091 1.981-.04 4.015 0 6l-5 1c0-9.644-.439-19.431-1-29-.201-3.419-.778-6.677-1-10 2.679-.82 3.575 1.643 4 3.5 1.357 5.929 2.703 22.032 3 28.5"/><path fill="#48def9" d="M604 454c2.393 39.404-24.502 81.891-64 90 .18-1.587 1.052-2.604 1-3 32.535-10.448 54.619-38.516 61-71.5l-1-14.5c.377-.096 1.308-.679 3-1"/><path fill="#2ec5e9" d="m601 455 1 14.5c-6.381 32.984-28.465 61.052-61 71.5-.918-7.014-6.872-7.355-10-9-.221-.116-2.982-3.289-3-4 31.486-12.185 52.164-30.404 56-66 4.116-2.067 7.541-4.395 12-6 1.584-.57 3.599-.643 5-1"/><path fill="#75d2ec" d="M461 538c-28.996-15.172-41.875-46.662-44-78 4.33 5.215 3.164 14.681 5 21.5 2.853 10.593 10.166 25.471 17 34 5.526 6.897 18.219 14.206 21.5 18.5 1.504 1.968.537 1.435.5 4"/><path fill="#126a8f" d="M917 533c-2.226 13.78-5.744 30.421-15 40.5 2.494-16.766 4.966-33.555 6-50.5 6.662 4.412 7.426-19.245 6.5-20l-5.5 5c.313-15.461-1.479-25.374-3-40 7.56 3.641 11.368 24.876 6 31.5l5-1z"/><path fill="#186990" d="M904 483v42c-1.316 23.911-5.323 63.744-16 85-3.994-3.541.654-7.847 1-9.5 3.434-16.399 9.418-33.116 9-50-.018-.724 2.086-.294 2-1-.329-2.703-6.443-2.818-8-4.5.083-.311-.081-.688 0-1 5.288-20.33 4.073-45.457 9-62 .299-1.004 2.105-3.143 3-4 .107 1.646-.085 3.351 0 5"/><path fill="#2496bb" d="M901 482c-4.927 16.543-3.712 41.67-9 62-1.508.069-.483-2.05-2-2 3.749-16.996 5.353-34.534 5-52-.04-1.985.091-4.019 0-6z"/><path fill="#3da8c1" d="M904 525v-42c.743 14.462.796 27.529 0 42"/><path fill="#1e78a0" d="M130 544c.083.311-.084.689 0 1l-8 2c-.454-8.093-6.075-57.226-1-59 .625 5.715-.855 13.019 0 18.5.149.956 2.852.044 3 1 2.037 13.166 2.386 22.989 6 36.5"/><path fill="#22b6de" d="M132 491c.172 17.966 1.758 34.314 5 52-1.291.567-5.355.915-7 1-3.614-13.511-3.963-23.334-6-36.5-.148-.956-2.851-.044-3-1-.855-5.481.625-12.785 0-18.5 4.015 1.393 6.558 2.645 11 3"/><path fill="#11aad9" d="M890 542c-.255.008-3.338 2.825-5 1 .06-.322-.058-.677 0-1 2.003-11.193 5.401-24.662 5-36v-15l5-1c.353 17.466-1.251 35.004-5 52"/><path fill="#147397" d="M158 491c-.186 12.25 1.023 25.717 2 38-5.975-7.063-16.177 11.003-23 14-3.242-17.686-4.828-34.034-5-52 8.781.702 17.224.407 26 0"/><path fill="#0e5e82" d="M890 506c.401 11.338-2.997 24.807-5 36l-22-18c.662-10.92 1.189-22.046 1-33 3.513.685 23.213-.91 24.5 0 .615.435 1.435 13.15 1.5 15"/><path fill="#28b6d9" d="M908 523c.308-5.052.897-9.904 1-15l5.5-5c.926.755.162 24.412-6.5 20"/><path fill="#126991" d="M822 515c.23-3.372.884-6.687 1-10 1.146-.29 10.842.968 11 1.5 2.34 7.9-3.835 14.381-12 8.5"/><path fill="#8addee" d="M234 695c2.351 3.179 4.619 5.93 7 9 1.705 2.198 3.346 3.939 5 6 2.623 3.268 18.771 21.045 19 22.5.03.188-1.475 2.234-1.5 3.5-29.016-31.64-59.285-70.428-76.5-110-14.032-32.256-22.626-77.847-24-113l9 51.5c11.392 47.891 32.935 91.206 62 130.5"/><path fill="#156f93" d="M114 523c2.445 16.704 3.726 33.789 6 50.5-8.382-8.753-11.769-23.749-14-35.5 2.742-9.092-4.745-12.078 8-15"/><path fill="#043f62" d="M885 542c-.058.323.06.678 0 1-1.174 6.309-2.379 12.8-4 19l-5.5 11-18.5-7.5c2.95-13.485 5.165-27.726 6-41.5z"/><path fill="#094c70" d="M160 529c.519 6.527 6.941 41.517 6 43.5-.445.937-17.246 2.313-20 5.5-3.794-11.305-6.848-23.26-9-35 6.823-2.997 17.025-21.063 23-14"/><path fill="#91d3e2" d="M528 528c.018.711 2.779 3.884 3 4-13.103 5.638-15.006 1.878-18 16-.436 2.055-.933 3.23-3 4-.346-.43-2.735-2.151-3-3-5.561-17.836 11.934-17.491 21-21"/><path fill="#c5e9f1" d="M541 541c.052.396-.82 1.413-1 3-.303 2.67-1.422 5.921-3 8-1.235-.504-4.463-4.59-6.5-5-5.072-1.021-12 2.182-17.5 1 2.994-14.122 4.897-10.362 18-16 3.128 1.645 9.082 1.986 10 9"/><path fill="#3e93c2" d="M628 548c-29.572 39.607-80.912 59.587-130 56 .388-3.816-4.845-.918-6-2.5-.415-.569 5.223-10.859 4-13.5 31.016 2.05 63.474-5.87 89.5-23 5.695-3.749 25.194-23.949 27-24 1.958-.055 10.265 9.889 11 10 .267.04 3.744-2.487 4.5-3"/><path fill="#1088c5" d="M892 544c-.081.312.083.689 0 1-6.733 25.245-19.998 48.509-30 72.5l4 2.5c-2.436.329-13.91 2.942-15 1.5 16.887-15.086 24.384-38.022 30-59.5 1.621-6.2 2.826-12.691 4-19 1.662 1.825 4.745-.992 5-1 1.517-.05.492 2.069 2 2"/><path fill="#1993ca" d="M137 543c2.152 11.74 5.206 23.695 9 35 5.453 16.25 11.809 31.926 25 43.5l-33-4.5c.938.424 17.42.027 20.5 2l1.5-2.5-21-45c-1.88-8.994-6.618-17.686-9-26.5-.084-.311.083-.689 0-1 1.645-.085 5.709-.433 7-1"/><path fill="#13558a" d="M138 617c-6.754-3.052-16.822-55.819-18-65 4.646-.369 2.139-2.522 2-5l8-2c2.382 8.814 7.12 17.506 9 26.5l21 45-1.5 2.5c-3.08-1.973-19.562-1.576-20.5-2"/><path fill="#105086" d="M888 610c-5.539 11.028-9.644 8.331-22 10l-4-2.5c10.002-23.991 23.267-47.255 30-72.5 1.557 1.682 7.671 1.797 8 4.5.086.706-2.018.276-2 1 .418 16.884-5.566 33.601-9 50-.346 1.653-4.994 5.959-1 9.5"/><path fill="#abc7d0" d="M537 552c-6.898 9.086-19.807 8.952-27 0 2.067-.77 2.564-1.945 3-4 5.5 1.182 12.428-2.021 17.5-1 2.037.41 5.265 4.496 6.5 5"/><path fill="#26acce" d="m825.5 567 17.5.5c-5.758 1.27-12.307 3.015-17.5-.5"/><path fill="#3fc9ea" d="m319 576-7 8c-9.548-4.909-21.659-5.229-31 0 3.16-4.441-2.872-6.712-6-9 15.472-8.642 28.814-8.626 44 1"/><path fill="#b4d5e1" d="M772 602c-.375 1.377-.593 3.429-1 5-1.88 1.698-3.413 4.649-4 7-2.541-24.799-21.247-35.712-45-31-.946-.941-1.752-2.066-3-3 6.145-2.727 11.927-6.112 19-6 16.462.261 28.731 13.792 34 28"/><path fill="#428092" d="M281 584c-15.342 8.589-18.697 28.446-8 42 5.533 7.01 12.959 10.905 22 10 2.639 8.958 1.055 10.396 11 7-3.094 3.939-10.544.825-9 7-43.683-1.053-61.057-53.184-22-75 3.128 2.288 9.16 4.559 6 9"/><path fill="#35b2d0" d="m330 586-10 5c-1.465-1.811-6.1-6.023-8-7l7-8c5.199 3.295 7.43 4.831 11 10"/><path fill="#3b91aa" d="M719 580c1.248.934 2.054 2.059 3 3 1.678 1.668-.023 2.447 4 3-11.772 3.35-19.072 18.461-18 30 .163 1.753.642 1.847 1 3 1.191 3.834 4.305 5.502 7 8 .173.16.324 2.482 2.5 4 19.753 13.781 43.256-3.869 36.5-25 9.158-3.74 5.966 6.482 4 11.5h6c-7.009 44.228-65.174 39.761-68-5.5 1.007-15.445 8.969-26.216 22-32"/><path fill="#28687f" d="M312 584c1.9.977 6.535 5.189 8 7 3.071 3.798 6.394 10.185 7 15 1.618 12.859-3.9 28.384-16 34 8.042-5.715 14.165-17.682 14-27.5-1.292-.697-5.059 3.533-6 4.5 2.286-4.055 6.466-14.191-2-10-.137-.82-.908-4.762-1-5l7.5 2c-.373-5.31-7.597-15.129-12.5-18-26.458-15.493-54.217 13.891-38 40-10.697-13.554-7.342-33.411 8-42 9.341-5.229 21.452-4.909 31 0"/><path fill="#0aaad4" d="m311 586-3 6c-21.948-15.282-45.803 10.915-29 31.5-3.055 2.494-5.384-6.224-6.5-7.5-.85 10.952 12.632 18.483 22.5 18 .075.641-.149 1.496 0 2-9.041.905-16.467-2.99-22-10-16.217-26.109 11.542-55.493 38-40"/><path fill="#3283b5" d="M496 588c1.223 2.641-4.415 12.931-4 13.5 1.155 1.582 6.388-1.316 6 2.5-20.921-1.529-40.827-8.951-59-19 3.374-.842 14.641 7.413 16.5 7 2.227-.494 3.808-9.304 6-10 1.669-.53 27.743 5.553 34.5 6"/><path fill="#2c7b93" d="M767 614c-6.93 27.772-27.219 50.138-57 30-10.996-7.436-13.81-19.571-13-32 2.826 45.261 60.991 49.728 68 5.5h-6c1.966-5.018 5.158-15.24-4-11.5-13.364-41.799-72.277 9.144-24 27.5-1.404 2.948-13.219-5.186-15-6.5-2.695-2.498-5.809-4.166-7-8 1.699-.499.988-3.555 1-5 .172-21.467 14.264-28.469 34-27.5-4.166-2.786-13.54-1.769-18-.5-4.023-.553-2.322-1.332-4-3 23.753-4.712 42.459 6.201 45 31"/><path fill="#3cd1e7" d="m710 614-2 2c-1.072-11.539 6.228-26.65 18-30 4.46-1.269 13.834-2.286 18 .5-19.736-.969-33.828 6.033-34 27.5"/><path fill="#2888a5" d="M316 602c-.572-1.485-6.737-9.12-8-10l3-6c4.903 2.871 12.127 12.69 12.5 18z"/><path fill="#569fb3" d="m337 602-10 4c-.606-4.815-3.929-11.202-7-15l10-5c3.437 4.976 5.897 9.953 7 16"/><path fill="#002a47" d="M308 592c1.263.88 7.428 8.515 8 10 .092.238.863 4.18 1 5 .71 4.239.527 8.1-1 12-2.883 7.363-13.137 14.615-21 15-9.868.483-23.35-7.048-22.5-18 1.116 1.276 3.445 9.994 6.5 7.5-16.803-20.585 7.052-46.782 29-31.5m-24 33c6.969 5.757 10.602 4.597 18 1 17.129-8.329 12.174-33.095-5-35-23.126-2.565-27.557 28.516-13 34"/><path fill="#002540" d="M755 606c6.756 21.131-16.747 38.781-36.5 25-2.176-1.518-2.327-3.84-2.5-4 1.781 1.314 13.596 9.448 15 6.5-48.277-18.356 10.636-69.299 24-27.5m-25.5-12c-14.381 2.339-19.403 24.847-7 33l-5.5-10.5c-1.657-13.055 6.982-21.973 20-22-.013-.689-6.491-.664-7.5-.5m0 3c-16.734 3.617-13.284 35.57 9 30 15.98-3.994 12.078-34.555-9-30"/><path fill="#01bcee" d="M297 591v2c-19.457-3.318-26.292 21.019-13 32-14.557-5.484-10.126-36.565 13-34"/><path fill="#0180b4" d="M302 626c12.181-5.483 13.135-29.908-5-33v-2c17.174 1.905 22.129 26.671 5 35"/><path fill="#074c75" d="M297 593c18.135 3.092 17.181 27.517 5 33-1.674.753-8.908 1.355-11 .5 12.384-.035 22.901-12.102 17-24-12.218-24.634-47.941 8.867-18 23-.64 1.292-4.921-.094-6-.5-13.292-10.981-6.457-35.318 13-32"/><path fill="#02c0ed" d="M302 626c-7.398 3.597-11.031 4.757-18-1 1.079.406 5.36 1.792 6 .5-29.941-14.133 5.782-47.634 18-23 5.901 11.898-4.616 23.965-17 24 2.092.855 9.326.253 11-.5"/><path fill="#00baec" d="M729.5 594c1.009-.164 7.487-.189 7.5.5-13.018.027-21.657 8.945-20 22l5.5 10.5c-12.403-8.153-7.381-30.661 7-33"/><path fill="#b6c9d0" d="m597 596 1 5c-35.183 20.265-67.416 25.81-108 20 17.311-3.518 35.018-1.056 52.5-4 16.433-2.768 40.083-12.502 54.5-21"/><path fill="#01beec" d="M729.5 597c21.078-4.555 24.98 26.006 9 30-22.284 5.57-25.734-26.383-9-30"/><path fill="#628b98" d="M297 650c-1.544-6.175 5.906-3.061 9-7 3.374-1.152 2.81-1.444 5-3 12.1-5.616 17.618-21.141 16-34l10-4c4.853 26.609-12.444 48.664-40 48"/><path fill="#7ae2f5" d="M319 617c-.249.255-2.212 4.217-3 2 1.527-3.9 1.71-7.761 1-12 8.466-4.191 4.286 5.945 2 10"/><path fill="#77a7b3" d="M608 783c-.984.35-3.577 2.297-4 1.5V764c8.917-6.639 20.336-18.595 28-27 19.431-14.674 21.88-29.283 31-48 4.728-9.703 38.355-34.833 47-45 29.781 20.138 50.07-2.228 57-30 .587-2.351 2.12-5.302 4-7-3.175 12.264-1.224 18.603-8 34.5-23.876 56.019-98 121.211-155 141.5"/><path fill="#378ca7" d="M311 640c-2.19 1.556-1.626 1.848-5 3-9.945 3.396-8.361 1.958-11-7-.149-.504.075-1.359 0-2 7.863-.385 18.117-7.637 21-15 .788 2.217 2.751-1.745 3-2 .941-.967 4.708-5.197 6-4.5.165 9.818-5.958 21.785-14 27.5"/><path fill="#46f0fd" d="M709 619c-.358-1.153-.837-1.247-1-3l2-2c-.012 1.445.699 4.501-1 5"/><path fill="#126991" d="M246 710c-.382-5.121 16.76-7.723 16-12.5-4.992-6.837-14.91 3.325-21 6.5-2.381-3.07-4.649-5.821-7-9l17-10.5c-4.709-5.036-29.195-42.514-29-46 .047-.834 7.004-6.524 7.5-6.5.375.018 3.477 4.723 4.5 6 13.051 16.298 22.576 37.214 37 54.5 39.702 47.579 97.729 86.366 158 101.5 1.057 7.697 8.439 35.083 8 39.5-.221 2.229.478 2.824-2.5 2.5C323.714 809.013 232.862 731.33 186 628l1-2c17.215 39.572 47.484 78.36 76.5 110 .025-1.266 1.53-3.312 1.5-3.5-.229-1.455-16.377-19.232-19-22.5"/><path fill="#07557e" d="M582 830c2.724-11.029 4.052-19.978 6-31 1.463-2.81 1.574-2.831 4.5-4 90.828-36.281 150.047-69.786 196.5-161l11 4.5c-25.514 48.314-61.751 90.047-106 122 .024 5.369 14.447 11.573 11.5 16.5-.969 1.619-28.122 17.862-32 20-22.911 12.63-57.25 26.617-79 32-2.555.632-9.611 1.072-12.5 1"/><path fill="#f8fcfe" d="M386 689c-5.685 2.03-11.345-3.331-17.5-2-11.296 2.443-2.747 24.097 4.5 28 2.83 4.976 7.497 10.308 11 15 5.32 7.126 11.58 14.893 18 21-4.064-1.761-7.704-5.962-11-9-10.915-10.059-60.06-61.109-17.5-57 3.816.368 8.691 3.014 12.5 4"/><path fill="#05778b" d="M663 689c-9.12 18.717-11.569 33.326-31 48-2.772 2.094-5.616 6.323-5 1 7.019-6.27 40.078-46.11 21-51 2.322-4.888 12.21-.234 15 2"/><path fill="#69dded" d="M386 689c2.216.574 1.925 2.851 2.5 3 5.517 1.428 15.668 2.527 22.5 4l-4 4c-6.041-1.217-33.861-10.444-36.5-10-10.974 1.845-.397 19.906 2.5 25-7.247-3.903-15.796-25.557-4.5-28 6.155-1.331 11.815 4.03 17.5 2"/><path fill="#83e0eb" d="M648 687c19.078 4.89-13.981 44.73-21 51-1.1.983-2.622 1.693-3.5 3l-.5-2c7.139-6.996 32.765-35.946 29-45.5-.092-.234-2.263-2.406-2.5-2.5-3.029-1.205-54.471 12.571-63.5 14l-2-3c11.932-1.963 58.012-16.535 64-15"/><path fill="#002033" d="M407 700c57.028 11.491 121.4 14.117 179 5 9.029-1.429 60.471-15.205 63.5-14 .237.094 2.408 2.266 2.5 2.5 3.765 9.554-21.861 38.504-29 45.5-10.136 9.933-21.818 18.701-34 26-.989-14.637-9.609-33.963-1-45.5-1.12-3.84-23.325 3.714-27 4.5-16.122 3.446-31.788 7.609-48.5 6-1.385.827-1.242 9.17-1.5 11h-3c-.232-2.827-.144-10.285-2.5-12-13.818-5.369-26.404-5.36-40.5-7-7.713-.898-15.123-2.859-23-3-3.486-.062-7.002.044-10.5 0-1.145 1.14 1.473 1.878 1.5 2 1.554 6.912-.811 9.327-1 15-.011.333.011.667 0 1-2.049 9.211-2.089 18.661-3 28l-45-35c-3.503-4.692-8.17-10.024-11-15-2.897-5.094-13.474-23.155-2.5-25 2.639-.444 30.459 8.783 36.5 10"/><path fill="#26acce" d="M246 710c-1.654-2.061-3.295-3.802-5-6 6.09-3.175 16.008-13.337 21-6.5.76 4.777-16.382 7.379-16 12.5"/><path fill="#eff9fb" d="m584 702 2 3c-57.6 9.117-121.972 6.491-179-5l4-4c52.67 11.355 119.826 14.75 173 6"/><path fill="#482f36" d="M589 765c.156 2.301-.077 4.689 0 7 .21 6.306-.153 12.69 0 19-.254.197-.465-.296-1 1-.515 1.249.334 5.112 0 7-1.948 11.022-3.276 19.971-6 31-.482 1.951-.545 5.441-1 7-23.384 80.128-107.06 90.178-138 11 2.648 5.812 10.889 16.781 7 4 6.756 6.134 11.311 13.658 18 20 17.727 16.81 33.184 24.794 58 17-4.94 6.348-15.472 5.651-22.5 6 3.801.344.985 4.472 2 5 12.618 6.561 39.009-14.266 47.5-23.5 5.529-6.012 13.783-16.35 15-24.5 18.128-28.297 19.485-67.461 15-100-.366-2.652-1.915-15.498-3-16.5-1.245-1.149-3.915-.046-4.5-.5-4.808-3.73-9.794-7.167-14.5-11 3.675-.786 25.88-8.34 27-4.5-8.609 11.537.011 30.863 1 45.5"/><path fill="#d0d1d4" d="M442 719c-1.2 3.41-5.875 1.586-9 2-.027-.122-2.645-.86-1.5-2 3.498.044 7.014-.062 10.5 0"/><path fill="#886169" d="m465 722 36.5 12c2.372 1.561 1.241 3.869 1.5 6-21.977-.3-40.35-17.995-63.5-12-2.499 1.353-1.901 6.104-2.5 8l-2.5-3-2.5 3c.189-5.673 2.554-8.088 1-15 3.125-.414 7.8 1.41 9-2 7.877.141 15.287 2.102 23 3"/><path fill="#6c4950" d="M508 741c.648 7.882-.886 16.118.5 24 2.547-7.562 1.351-15.848 2.5-24 .258-1.83.115-10.173 1.5-11 16.712 1.609 32.378-2.554 48.5-6 4.706 3.833 9.692 7.27 14.5 11 .585.454 3.255-.649 4.5.5 1.085 1.002 2.634 13.848 3 16.5-4.5-2.959-5.413-15.448-10.5-18-4.031-2.023-12.043-1.11-16.5-1-15.217.376-25.431 6.187-40 5.5l-7.5 95.5c-2.991-30.575-1.819-63.724-5.5-94-.259-2.131.872-4.439-1.5-6L465 722c14.096 1.64 26.682 1.631 40.5 7 2.356 1.715 2.268 9.173 2.5 12"/><path fill="url(#b)" d="M503 740c3.681 30.276 2.509 63.425 5.5 94l7.5-95.5c14.569.687 24.783-5.124 40-5.5 29.084 11.799 21.65 69.628 14 93.5-3.145 9.813-18.507 38.072-24 46-1.922 2.774-7.121 4.454-9 7.5-26.365 14.181-45.635 8.318-69-8-6.689-6.342-11.244-13.866-18-20-2.981-9.797-9.368-19.23-12-30l6-2c1.66 4.631 7.739 18.123 14 17.5-5.19-11.288-8.82-23.26-11-35.5-3.561-19.993-4.454-40.167 3-59.5-7.47-5.786-8.619 2.878-15 2.5.511-3.103 1.048-5.987 2-9 .599-1.896.001-6.647 2.5-8 23.15-5.995 41.523 11.7 63.5 12" style="fill:url(#b)"/>/&gt;<path fill="#74d8e4" d="M429 765c-.332 3.404-2.409 6.273 0 6.5l-2 .5c-.153-.221-2.629-1.622-3-2-1.971-5.47-8.993-7.891-13-11-4.2-3.258-5.355-4.532-9-8-6.42-6.107-12.68-13.874-18-21z"/><path fill="#745d67" d="M583 752c4.485 32.539 3.128 71.703-15 100-3.15 4.917-12.647 15.771-17 20-4.96 1.522-8.987 5.304-14 8 1.879-3.046 7.078-4.726 9-7.5 5.493-7.928 20.855-36.187 24-46 7.65-23.872 15.084-81.701-14-93.5 4.457-.11 12.469-1.023 16.5 1 5.087 2.552 6 15.041 10.5 18"/><path fill="#6d444c" d="M437 736c-.952 3.013-1.489 5.897-2 9-.504 3.06-.694 5.926-1 9-2.085 20.97-1.01 47.499 4 68 2.632 10.77 9.019 20.203 12 30 3.889 12.781-4.352 1.812-7-4-13.663-29.984-11.988-81.322-11-111 .011-.333-.011-.667 0-1l2.5-3z"/><path fill="#92bbc8" d="M391 742c3.296 3.038 6.936 7.239 11 9 3.645 3.468 4.8 4.742 9 8 2.752 4.665 9.363 7.29 13 11 .371.378 2.847 1.779 3 2 3.955 5.722 1.134 11.952 2 19-14.592-3.267-28.419-8.953-42-15l-47-27c-5.505-3.776-10.742-7.901-16-12z"/><path fill="#1292aa" d="M604 764c-3.039 2.263-11.27 5.929-15 8-.077-2.311.156-4.699 0-7 12.182-7.299 23.864-16.067 34-26l.5 2c.878-1.307 2.4-2.017 3.5-3-.616 5.323 2.228 1.094 5-1-7.664 8.405-19.083 20.361-28 27"/><path fill="#faf8f9" d="m447 802-6 2c-2.704-13.817-5.48-28.431-3-42.5l-4-7.5c.306-3.074.496-5.94 1-9 6.381.378 7.53-8.286 15-2.5-7.454 19.333-6.561 39.507-3 59.5"/><path fill="#442830" d="M511 741c-1.149 8.152.047 16.438-2.5 24-1.386-7.882.148-16.118-.5-24z"/><path fill="#e2edee" d="M387 776c-18.31-8.153-30.618-15.763-47-27z"/><path fill="#bba8b2" d="M441 804c.942 4.813 1.346 11.387 3 16l-6 2c-5.01-20.501-6.085-47.03-4-68l4 7.5c-2.48 14.069.296 28.683 3 42.5"/><path fill="#f8fcfe" d="M424 770c-3.637-3.71-10.248-6.335-13-11 4.007 3.109 11.029 5.53 13 11"/><path fill="#538390" d="M604 764v20.5c.423.797 3.016-1.15 4-1.5.176 5.137-16.537 6.089-19 8-.153-6.31.21-12.694 0-19 3.73-2.071 11.961-5.737 15-8"/><path fill="#d8cdd4" d="M444 820c-1.654-4.613-2.058-11.187-3-16l6-2c2.18 12.24 5.81 24.212 11 35.5-6.261.623-12.34-12.869-14-17.5"/><path fill="#543e47" d="M526 889c9.787-3.074 17.794-9.998 25-17 4.353-4.229 13.85-15.083 17-20-1.217 8.15-9.471 18.488-15 24.5-8.491 9.234-34.882 30.061-47.5 23.5-1.015-.528 1.801-4.656-2-5 7.028-.349 17.56.348 22.5-6"/><path fill="#d8d2d3" d="M537 880c5.013-2.696 9.04-6.478 14-8-7.206 7.002-15.213 13.926-25 17-24.816 7.794-40.273-.19-58-17 23.365 16.318 42.635 22.181 69 8"/></svg>