<svg xmlns="http://www.w3.org/2000/svg" width="1024" height="1024"><defs><linearGradient id="a" x1="426.868" x2="704.765" y1="434.217" y2="547.236" gradientUnits="userSpaceOnUse"><stop offset="0%" style="stop-color:#5cbcd7"/><stop offset="12.333%" style="stop-color:#3491ac"/><stop offset="100%" style="stop-color:#1b657d"/></linearGradient></defs><defs><linearGradient id="b" x1="481.27" x2="530.091" y1="434.385" y2="475.768" gradientUnits="userSpaceOnUse"><stop offset="0%" style="stop-color:#181a42"/><stop offset="100%" style="stop-color:#323e68"/></linearGradient></defs><defs><linearGradient id="c" x1="416.935" x2="499.566" y1="518.993" y2="526.817" gradientUnits="userSpaceOnUse"><stop offset="0%" style="stop-color:#14305a"/><stop offset="100%" style="stop-color:#0a77a6"/></linearGradient></defs><path fill="#497b8c" d="M893 442c.149 5.603-3.045 21.429-3 23-15.481-141.073-102.191-263.879-233.5-319C386.876 32.817 116.124 247.161 129 530l-5 3.5-2-14.5c-.442-17.996-1.271-38.203 1-56 .575-4.509 3.404-9.219 2-14 1.213-1.986 2.202-3.81 3-6 5.301-14.549 6.617-35.565 11-51.5C214.517 116.93 556.594 13.306 770.5 205c59.732 53.529 120.331 155.296 122.5 237"/><path fill="#c4dee7" d="M890 465c1.173 40.807 3.24 63.753-3 106l-3.5 12c-.803-.907-6.389-4.121-6.5-4.5-.65-2.226 5.691-38.95 6-46 6.251-142.574-40.532-257.797-161-337.5-6.883-4.554-14.473-9.074-22-12.5 16.222 11.716 30.489 25.959 43 41.5-8.943 14.033-5.438 30.858-1 46-15.963 10.793-18.902 31.295-11 48 2.493 5.27 12.695 15.419 13 16.5 1.03 3.654-6.875 19.723-12 20.5-16.104-29.035-38.629-53.12-65-73-38.52-29.038-83.544-50.455-132.5-54C353.454 214.889 226.185 380.297 280 552c-3.213-7.369-6.805-14.656-9-22.5-2.432-.476-2.096 2.558-2 4 .5 7.519 9.66 33.004 13 41 40.762 97.602 156.025 159.442 260 147.5 2.511 5.105-6.032 19.112-4 22.5.895 1.492 7.659-.981 3 2.5-56.842-5.476-148.093 11.36-194 47-.614-1.196-2.457-3.388-3.5-4-6.396-3.749-88.123-18.171-96-17-1.715.255-4.347 1.412-5.5 3-29.619-31.698-50.788-67.987-64-109.5L162 678c-19.635-48.704-30.601-95.3-33-148-12.876-282.839 257.876-497.183 527.5-384C787.809 201.121 874.519 323.927 890 465M467.5 129c-59.167 3.528-141.681 41.198-187 79-124.539 103.883-149.764 277.006-110 428-32.591-152.422 8.159-308.535 124-414 49.244-44.833 115.081-80.289 181-92-1.33-1.727-5.973-1.121-8-1M251 328c-8.784 3.608 11.482 12.539 14.5 13 32.377 4.945 57.712-32.011 35.5-58-24.424-49.908-95.719 11.871-50 45m13.5 170c-1.274.007.099 20.263 3 22z"/><path fill="#fdfefe" d="M467.5 129c2.027-.121 6.67-.727 8 1-65.919 11.711-131.756 47.167-181 92-115.841 105.465-156.591 261.578-124 414-39.764-150.994-14.539-324.117 110-428 45.319-37.802 127.833-75.472 187-79"/><path fill="#6890a0" d="M722 195c10.933 15.098 27.23 27.362 40 41.5C891.08 379.411 909.553 589.952 793 747c-19.611 26.424-42.946 49.396-68.5 70-3.663 2.954-25.005 16.035-25.5 17.5-.226.668 2.024 5.685 2 6-.493 6.581-2.827 12.334-2 18.5-76.512 41.41-157.318 55.404-244 43 4.267-6.729-10.632-10.995-4-22 10.043 1.039 19.881 1.832 30 2 14.377.239 38.226 4.108 41-15 31.165-.908 63.176-3.705 93.5-11 18.575-4.468 45.923-12.08 58.5-26 9.313-5.456 20.361-14.263 14-26.5-4.34-8.349-46.784-30.323-57-34.5 145.167-87.392 206.937-274.376 158-435 .537-.422 1.46-1.465 2-2 10.939-10.825 13.321-28.298 8-42.5-.657-1.755-3.072-7.367-6-6.5-4.38-9.443-14.604-17.734-25-19-4.809-14.005-15.709-28.459-25-40-12.511-15.541-26.778-29.784-43-41.5 7.527 3.426 15.117 7.946 22 12.5"/><path fill="#8fb6c5" d="M887 571c-5.031 34.066-12.388 63.603-24 96-10.022 16.235-17.679 33.84-27 50.5-2.745 4.905-23.868 35.951-23 38 .282.665 3.876 1.834 5 1.5-1.983 2.69-4.052 6.592-6 9-.271.334-5.627 3.39-7 5-2.491-6.759-4.606-21.769-12-24 116.553-157.048 98.08-367.589-31-510.5-12.77-14.138-29.067-26.402-40-41.5 120.468 79.703 167.251 194.926 161 337.5-.309 7.05-6.65 43.774-6 46 .111.379 5.697 3.593 6.5 4.5z"/><path fill="#99bfcd" d="M768 264c-9.659-1.176-17.959.563-26 6-4.438-15.142-7.943-31.967 1-46 9.291 11.541 20.191 25.995 25 40"/><path fill="#08364c" d="M667 282c83.272 71.639 113.055 186.314 68 288.5-32.532 73.784-108.215 130.751-188 142.5-126.065 18.564-218.781-50.411-267-161-53.815-171.703 73.454-337.111 254.5-324 48.956 3.545 93.98 24.962 132.5 54m-202-46c-.322.059-.678-.061-1 0-178.524 33.744-253.142 250.346-136 390 47.031 56.069 114.019 87.412 188 86 79.79-1.523 147.881-40.593 193-105 104.479-149.145 6.581-358.732-173-375-25.358-2.297-46.172-.521-71 4"/><path fill="#9ceaf5" d="m536 232 50.5 17c13.375 7.758 28.864 13.791 39 26-29.846-18.75-63.736-33.268-99.5-35-21.305-1.032-42.556 2.452-63 8 4.65-4.115 5.726-6.06 2-12 24.828-4.521 45.642-6.297 71-4"/><path fill="url(#a)" d="m709 607-5 3.5 6-9c.018-2.949-2.65.589-3 1-63.504 74.539-86.546 98.072-190 107-3.379.292-.941-.626-1 2.5-73.981 1.412-140.969-29.931-188-86 1.744-.883 1.667-1.736 4-2 .124-.014.843 2.657 2 1.5.456-2.116-1.862-1.335-2-1.5-.69-.825-1.319-2.161-2-3-26.068-51.177-44.803-102.848-41-161.5 4.645-71.629 50.441-140.875 112-176.5 27.738-16.052 58.967-26.139 90.5-32 5.915-1.1 34.06-1.867 35.5-6 .473-1.358-1.729-3.083-1-5 35.764 1.732 69.654 16.25 99.5 35-10.136-12.209-25.625-18.242-39-26L536 232c179.581 16.268 277.479 225.855 173 375m-321 38c-1.84.822-3.359 2.268-3 4.5.908 5.65 36.765 23.801 43.5 26.5 133.588 53.534 276.928-31.85 301.5-170.5l-4 3 1-43.5c-5.19-175.655-225.117-265.903-356.5-152-104.371 90.485-95.482 253.159 17.5 332" style="fill:url(#a)"/>/&gt;<path fill="#91d4e6" d="M464 236c.283 3.274-1.854 2.466-3.5 3-10.139 3.288-21.025 5.175-31 9-146.515 56.179-198.792 250.647-99.5 373 .681.839 1.31 2.175 2 3-2.333.264-2.256 1.117-4 2-117.142-139.654-42.524-356.256 136-390"/><path fill="#d8f7fb" d="M463 248c-17.159 4.657-38.756 13.274-53 24-3.549 2.672-9.446 5.767-9 11-61.559 35.625-107.355 104.871-112 176.5-3.803 58.652 14.932 110.323 41 161.5-99.292-122.353-47.015-316.821 99.5-373 9.975-3.825 20.861-5.712 31-9 1.646-.534 3.783.274 3.5-3 .322-.061.678.059 1 0 3.726 5.94 2.65 7.885-2 12"/><path fill="#3c9ebb" d="M526 240c-.729 1.917 1.473 3.642 1 5-30.419-.134-61.949 4.236-90.5 15-9.126 3.44-17.228 9.277-26.5 12 14.244-10.726 35.841-19.343 53-24 20.444-5.548 41.695-9.032 63-8"/><path fill="#85d6e6" d="M527 245c-1.44 4.133-29.585 4.9-35.5 6-31.533 5.861-62.762 15.948-90.5 32-.446-5.233 5.451-8.328 9-11 9.272-2.723 17.374-8.56 26.5-12 28.551-10.764 60.081-15.134 90.5-15"/><path fill="#053249" d="M727 465c5.206 176.195-195.363 280.233-339 180-112.982-78.841-121.871-241.515-17.5-332C501.883 199.097 721.81 289.345 727 465M408 297c-29.32 19.563-56.478 49.851-73 81-46.334 87.355-25.265 186.43 51 248 164.808 133.051 399.687-50.034 306-242-13.374-27.403-31.933-51.179-55-71-8.491-7.297-15.309-13.115-25-19-66.032-40.096-139.508-40.029-204 3"/><path fill="#106485" d="M612 294c-2.34 5.73-8.916 9.421-15 10 .191-.735 1.135-6.776-1-5.5-1.931 3.404-9.58 24.203-12.5 24.5-.145.015-1.827-1.451-2.5-1.5l6.5-22.5c-7.019 15.444-13.291 32.24-18.5 49-1.989-.919-4.059-2.235-6-3l16.5-50-9 24c-2.272-4.453 5.169-19.542 3.5-22.5l-3 1-13.5 44.5c-3.877-4.5 12.253-46.809 8-48-5.862 16.831-8.349 27.955-12.5 48-15.339-4.681-31.775-7.795-48-5-12.033-27.85-34.8-30.906-62-29-3.905.274-6.889 2.608-9.5 3-1.021.153-.597-3.125-4-3-.627.023-10.09 4.312-11.5 5l-10-16c64.492-43.029 137.968-43.096 204-3"/><path fill="#1f576a" d="M768 264c10.396 1.266 20.62 9.557 25 19 6.259 13.493 5.467 32.046-6 43-9.355 8.937-26.063 11.41-38 7-6.783-2.506-12.072-11.425-18-15-7.902-16.705-4.963-37.207 11-48 8.041-5.437 16.341-7.176 26-6m-21 57c40.651 29.651 63.505-55.424 11-48 4.546-10.352-10.469-3.709-14.5-1-4.628 3.11-12.317 14.056-13.5 19.5-2.37 10.907 1.977 36.442 17 29.5"/><path fill="#165b72" d="M301 283c16.252 33.209-20.896 66.09-50 45-45.719-33.129 25.576-94.908 50-45m-36-15c-23.662 4.203-32.387 31.22-18 50 6.776 8.845 15.064 14.018 27 13 24.668-2.103 39.195-39.215 18-56-7.498-5.938-17.533-8.682-27-7"/><path fill="#a4cfd9" d="M292 275c-2.063.62.481 4.064 1 5 1.003 6.407 3.656 17.092 2 23.5-.223.862-1.965.398-2 .5 4.213-16.23-10.205-32.736-27-31l3-1.5-4-3.5c9.467-1.682 19.502 1.062 27 7"/><path fill="#ebf8fa" d="M758 273c-22.656 3.204-28.69 35.097-11 48-15.023 6.942-19.37-18.593-17-29.5 1.183-5.444 8.872-16.39 13.5-19.5 4.031-2.709 19.046-9.352 14.5 1"/><path fill="#dff4f6" d="m265 268 4 3.5-3 1.5c-9.581.99-16.938 9.184-19 18-.449 1.918-.928 2.826-1 5-.189 5.722.855 12.275 4 17l-3 5c-14.387-18.78-5.662-45.797 18-50"/><path fill="#0a4564" d="M293 304c-6.399 18.769-31.52 26.246-43 9-3.145-4.725-4.189-11.278-4-17 3.513 1.958 1.645 8.381 3 11.5 3.792 8.73 19.825 15.636 28.5 11.5.575-.274 8.184-8.947 8.5-9.5 5.193-9.08 5.839-18.013-1-26.5-10.261-12.735-33.957-9.285-35 8h-3c2.062-8.816 9.419-17.01 19-18 16.795-1.736 31.213 14.77 27 31"/><path fill="#073b53" d="M747 321c-17.69-12.903-11.656-44.796 11-48 52.505-7.424 29.651 77.651-11 48m-7-17c8.298 38.659 65.643 5.68 41-19-.971-4.443-6.172-6.701-10-8-19.147-6.499-35.252 7.191-31 27"/><path fill="#5decfe" d="M285 283c-2.609.074-6.089-1.944-9-3-.56-.203-3.818-4.88-8-1.5 9.724 12.746 1.58 25.691-13 28.5-5.703-3.132-5.376-9.767-5-16 1.043-17.285 24.739-20.735 35-8"/><path fill="#517f90" d="M274 331c3.537-5.55 10.402-4.96 15-10.5 9.402-11.328 11.074-27.728 4-40.5-.519-.936-3.063-4.38-1-5 21.195 16.785 6.668 53.897-18 56"/><path fill="#4fe7fe" d="m771 277-7 1.5c9.441 12.503.823 21.366-8 30.5-8.252.87-13.867-1.509-14-10 9.351 7.37 21.835-3.264 17-13.5-4.399-9.312-13.487-.412-16 5.5-2.385 5.612-1.523 7.643-3 13-4.252-19.809 11.853-33.499 31-27"/><path fill="#1ad6f9" d="M276 280c10.398 13.058-7.286 34.532-21 27 14.58-2.809 22.724-15.754 13-28.5 4.182-3.38 7.44 1.297 8 1.5"/><path fill="#23d2f6" d="M781 285c-.306-.306-4.954-1.983-5.5-4-2.023.085.008 10.38-.5 12.5-1.383 5.767-12.956 14.863-19 15.5 8.823-9.134 17.441-17.997 8-30.5l7-1.5c3.828 1.299 9.029 3.557 10 8"/><path fill="#0bb1d5" d="M285 283c6.839 8.487 6.193 17.42 1 26.5-.316.553-7.925 9.226-8.5 9.5-8.675 4.136-24.708-2.77-28.5-11.5-1.355-3.119.513-9.542-3-11.5.072-2.174.551-3.082 1-5h3c-.376 6.233-.703 12.868 5 16 13.714 7.532 31.398-13.942 21-27 2.911 1.056 6.391 3.074 9 3"/><path fill="#6798aa" d="M274 331c-11.936 1.018-20.224-4.155-27-13l3-5c11.48 17.246 36.601 9.769 43-9 .035-.102 1.777.362 2-.5 1.656-6.408-.997-17.093-2-23.5 7.074 12.772 5.402 29.172-4 40.5-4.598 5.54-11.463 4.95-15 10.5"/><path fill="#86f4ff" d="M742 299c-.032-2.078 1.893-5.242 1-8 2.513-5.912 11.601-14.812 16-5.5 4.835 10.236-7.649 20.87-17 13.5"/><path fill="#0c9abf" d="M781 285c24.643 24.68-32.702 57.659-41 19 1.477-5.357.615-7.388 3-13 .893 2.758-1.032 5.922-1 8 .133 8.491 5.748 10.87 14 10 6.044-.637 17.617-9.733 19-15.5.508-2.12-1.523-12.415.5-12.5.546 2.017 5.194 3.694 5.5 4"/><path fill="#6b91a0" d="M732 355c84.848 152.982-11.852 340.247-182 366-4.462-1.628-2.801-3.726-3-8 79.785-11.749 155.468-68.716 188-142.5 45.055-102.186 15.272-216.861-68-288.5 26.371 19.88 48.896 43.965 65 73"/><path fill="#a9c5ce" d="M251 328c29.104 21.09 66.252-11.791 50-45 22.212 25.989-3.123 62.945-35.5 58-3.018-.461-23.284-9.392-14.5-13"/><path fill="#577c89" d="m791 332-4-6c11.467-10.954 12.259-29.507 6-43 2.928-.867 5.343 4.745 6 6.5 5.321 14.202 2.939 31.675-8 42.5"/><path fill="#229dc3" d="M563 345c-2.7-1.064-7.045-2.098-10-3 4.151-20.045 6.638-31.169 12.5-48 4.253 1.191-11.877 43.5-8 48l13.5-44.5 3-1c1.669 2.958-5.772 18.047-3.5 22.5l9-24z"/><path fill="#10698b" d="M637 313c1.135 5.854-8.248 4.125-10 5-.713.356-6.707 5.644-7 6-4.483-3.694-3.714-4.697-3.5-10-2.988 3.455-3.781 5.489-5 10l-7.5-2c1.544-3.827 3.631-7.558 5-11.5-.646-.859-1.357-.861-2 0-7.674 10.277-12.681 34.671-23 45.5-.919-.661-.942-.96-1-1 4.69-11.981 11.691-23.38 16-35.5.228-.641 5.446-17.377 2-12-4.172 6.51-5.747 15.533-9 22.5l-4-2c2.267-6.133 7.652-18.82 9-24 6.084-.579 12.66-4.27 15-10 9.691 5.885 16.509 11.703 25 19"/><path fill="#417e9e" d="M418 313c-24.843 12.128-59.231 44.535-72 69l-11-4c16.522-31.149 43.68-61.437 73-81z"/><path fill="#27b5dc" d="M597 304c-1.348 5.18-6.733 17.867-9 24-.559 1.512-12.213 24.058-8.5 24 5.459-6.381 9.028-14.563 12.5-22 3.253-6.967 4.828-15.99 9-22.5 3.446-5.377-1.772 11.359-2 12-4.309 12.12-11.31 23.519-16 35.5-2.459-1.695-8.274-2.526-10-5l5.5-12c-1.932-1.125-6.588 10.276-6.5 11-1.317.299-1.963-.521-3-1 5.209-16.76 11.481-33.556 18.5-49l-6.5 22.5c.673.049 2.355 1.515 2.5 1.5 2.92-.297 10.569-21.096 12.5-24.5 2.135-1.276 1.191 4.765 1 5.5"/><path fill="#f5f8fa" d="M505 337c.39.902.962 1.895 1 2 1.007 2.749 1.445 7.077 2 10 1.823 9.6 2.447 16.149 2 26-.259 5.711-.83 11.418-2 17-7.168 34.211-35.49 59.367-69 66-2.646.524-13.836.682-14 1.5 3.78 9.689-3.99 14.95-7 21.5-6.757 3.495-10.953 6.142-19 5-.325-.046-.687.07-1 0-10.984-2.456-14.989-15.808-10-25 1.304-1.048 9.385-8.641 9-9.5-3.149-1.731-9.281-2.787-12-4.5-24.707-15.562-27.366-41.672-20-68 19.71-33.355 40.007-57.558 78-71 27.2-1.906 49.967 1.15 62 29"/><path fill="#2d7397" d="M443 308c-37.993 13.442-58.29 37.645-78 71-40.781 69.016-36.148 136.722 5 205 .147.244-.148.756 0 1l-6 5c-42.865-63.231-54.45-138.164-18-208 12.769-24.465 47.157-56.872 72-69 1.41-.688 10.873-4.977 11.5-5 3.403-.125 2.979 3.153 4 3 2.611-.392 5.595-2.726 9.5-3"/><path fill="#38c8ea" d="M604 322c-4.974 12.327-11.061 24.184-17 36-.947-.697-1.994-1.276-3-2 10.319-10.829 15.326-35.223 23-45.5.643-.861 1.354-.859 2 0-1.369 3.942-3.456 7.673-5 11.5"/><path fill="#09a1ce" d="M692 384c-3.298-1.78-6.045 2.149-8 5-.227-.413-4.293-.088-4.5 0-1.545.657-6.164 4.377-7.5 5-10.536 4.911-21.863 8.348-32.5 13-1.99.87-6.728 2.32-6.5 5-.57-1.219-1.371-2.764-2-4 10.837-4.802 20.854-10.953 31-17 2.593-1.545 14.134-6.728 15-8.5l-2.5-1.5-3.5 2.5c-.227-6.601 6.969-14.96-4.5-10.5l-.5-4c.337-.269 4.768-2.676 1.5-3-2.41 1.814-5.148 3.109-7.5 5-.837.673-1.372 1.484-2 2-4.101.967-7.693 4.963-11 7-.325.2-.923.337-2 1-3.239 1.993-6.715 4.101-10 6-3.877 2.242-9.052 3.512-12 7-.665-.98-1.326-2.062-2-3l43-32.5c-.365-3.921-8.96 6.104-9.5 6.5-3.381 2.481-34.311 24.042-35.5 21.5l38-35c-3.378-2.139-10.353 5.546-14 8.5l-3-3c3.99-4.15 7.706-8.62 12-12.5.601-4.5-11.18 7.723-12 8.5l-3-3c.473-.587 2.488-5.304 3-6 .812-.821 6.899-3.222 5.5-7-2.836 1.685-3.934 4.87-5.5 7-10.603 10.728-20.944 21.72-32 32-.608-.636-1.356-1.351-2-2 13.128-11.646 22.282-26.806 33-40.5-2.736-1.295-6.507 5.774-8 7.5-2.93 3.065-7.174 1.722-7.5 2-.605.517-2.929 11.675-10.5 9 6.636-8.154 14.218-17.331 18.5-27L597 366c-.792-.658-1.394-1.506-2-2l32-46c1.752-.875 11.135.854 10-5 23.067 19.821 41.626 43.597 55 71"/><path fill="#099fcc" d="M620 324c-.391.475 1.055 1.428 1 1.5-7.474 9.803-13.048 21.123-22.5 29.5-3.171-.401-.863-1.59-.5-2.5 2.809-7.05 11.636-15.686 13-24-1.331-3.341-20.233 29.206-21 31.5-.923-.707-1.994-1.259-3-2 5.939-11.816 12.026-23.673 17-36l7.5 2c1.219-4.511 2.012-6.545 5-10-.214 5.303-.983 6.306 3.5 10"/><path fill="#47d8f6" d="m627 318-32 46c-1.591-1.298-3.383-2.762-5-4 .767-2.294 19.669-34.841 21-31.5-1.364 8.314-10.191 16.95-13 24-.363.91-2.671 2.099.5 2.5 9.452-8.377 15.026-19.697 22.5-29.5.055-.072-1.391-1.025-1-1.5.293-.356 6.287-5.644 7-6"/><path fill="#90b7c6" d="M749 333c-3.764 5.115 8.353 8.637 11.5 9 9.207 1.062 21.231-2.278 28.5-8 48.937 160.624-12.833 347.608-158 435-26.495-10.832-61.508-19.255-90-22 4.659-3.481-2.105-1.008-3-2.5-2.032-3.388 6.511-17.395 4-22.5 2.596-.298 5.43-.611 8-1 170.148-25.753 266.848-213.018 182-366 5.125-.777 13.03-16.846 12-20.5-.305-1.081-10.507-11.23-13-16.5 5.928 3.575 11.217 12.494 18 15"/><path fill="#53dff6" d="M613 352c-4.286 5.266-8.639 10.74-14 15-.085-.073-.616.149-2-1l34.5-41c-4.282 9.669-11.864 18.846-18.5 27"/><path fill="#7296a2" d="M791 332c-.54.535-1.463 1.578-2 2-7.269 5.722-19.293 9.062-28.5 8-3.147-.363-15.264-3.885-11.5-9 11.937 4.41 28.645 1.937 38-7z"/><path fill="#099fcc" d="M592 330c-3.472 7.437-7.041 15.619-12.5 22-3.713.058 7.941-22.488 8.5-24z"/><path fill="#52e7fc" d="M606 374c-.94-.948-2.053-2.108-3-3 10.518-8.876 19.052-19.655 28-30 1.493-1.726 5.264-8.795 8-7.5-10.718 13.694-19.872 28.854-33 40.5"/><path fill="#022232" d="M553 342c2.955.902 7.3 1.936 10 3 1.941.765 4.011 2.081 6 3 1.037.479 1.683 1.299 3 1 .162 1.332.96.942 1 1 1.726 2.474 7.541 3.305 10 5 .058.04.081.339 1 1 1.006.724 2.053 1.303 3 2 1.006.741 2.077 1.293 3 2 1.617 1.238 3.409 2.702 5 4 .606.494 1.208 1.342 2 2 1.384 1.149 1.915.927 2 1 1.061.916 2.665 2.743 4 4 .947.892 2.06 2.052 3 3 .644.649 1.392 1.364 2 2 .644.674 1.431 1.377 2 2 .647.708 1.463 1.386 2 2 2.429 2.775 6.948 8.148 9 11 .674.938 1.335 2.02 2 3 .115.17.256.857 1 2 .798 1.225 1.241 2.741 2 4 .61 1.011 1.571 2.243 2 3 .69 1.218.966.938 1 1 .646 1.179 1.36 2.743 2 4 .629 1.236 1.43 2.781 2 4 .128.274-.126.725 0 1 .521 1.137.704 2.303 1 3 .465 1.095 1.934 2.832 2 3 .441 1.122.961 1.895 1 2 .342.918.648 1.999 1 3 .469 1.335.564 4.571 1 6 .424 1.389.98.932 1 1 .536 1.85.971 1.892 1 2 .232.852-.221 2.13 0 3 .23.902.792 1.105 1 2 .137.592-.13 1.401 0 2 .2.923.821 1.085 1 2 .245 1.249-.212 2.736 0 4 .261 1.554.728 2.959 1 5 .044.328-.041.672 0 1 .119.957.905 1.058 1 2 .065.651-.056 1.347 0 2 .185 2.169.926 5.153 1 7 .034.855-.008 2.057 0 3 .208 23.301-3.73 46.446-15 67-.313-.313-.715-.739-1-1 32.711-67.749 2.738-154.694-68-183-17.07-6.831-37.442-12.203-56-10-.038-.105-.61-1.098-1-2 16.225-2.795 32.661.319 48 5"/><path fill="#07bbec" d="M640 344c1.566-2.13 2.664-5.315 5.5-7 1.399 3.778-4.688 6.179-5.5 7"/><path fill="#116582" d="M562 349c-5.224 2.152-1.543 10.427-8 9-14.905-4.855-30.912-5.272-46-9-.555-2.923-.993-7.251-2-10 18.558-2.203 38.93 3.169 56 10"/><path fill="#47d1f1" d="M573 350c-.04-.058-.838.332-1-1-.088-.724 4.568-12.125 6.5-11z"/><path fill="#15cefb" d="M631 341c-8.948 10.345-17.482 21.124-28 30-1.335-1.257-2.939-3.084-4-4 5.361-4.26 9.714-9.734 14-15 7.571 2.675 9.895-8.483 10.5-9 .326-.278 4.57 1.065 7.5-2"/><path fill="#62edfd" d="M640 357c-7.545 7.849-16.182 14.903-23.5 23 10.353-4.477 18.005-13.117 26.5-20 3.647-2.954 10.622-10.639 14-8.5l-38 35c1.189 2.542 32.119-19.019 35.5-21.5.54-.396 9.135-10.421 9.5-6.5L621 391c-2.052-2.852-6.571-8.225-9-11 9.799-8.49 18.625-18.117 28-27 .82-.777 12.601-13 12-8.5-4.294 3.88-8.01 8.35-12 12.5"/><path fill="#5eebfc" d="M637 350c-7.856 9.758-19.147 18.068-27 28-.569-.623-1.356-1.326-2-2 11.056-10.28 21.397-21.272 32-32-.512.696-2.527 5.413-3 6"/><path fill="#06264a" d="M554 358c70.366 22.923 96.527 103.202 70 169-.68-.159-1.428-.64-2-1 5.117-12.222 6.038-27.521 3-40.5-1.219-5.209-6.932-13.105-8-17.5-1.042-4.289-.484-9.775-2-15 3.486-3.258 3.404-21.475-4-19-.058-.171-1.542-1.801-2-3-2.911-7.611-6.596-14.19-11-21-2.088-3.228-16.313-22.703-18.5-23-3.028-.411-2.181 3.37-6 5-6.941 2.963-18.486 4.267-22.5 11-6.933-9.472-12.046-17.835-17-28.5l8.5-.5c-1.466-2.885-28.737-11.02-30-10-1.694 1.369 1.519 15.861-2.5 11 .447-9.851-.177-16.4-2-26 15.088 3.728 31.095 4.145 46 9"/><path fill="#09799c" d="M562 349c70.738 28.306 100.711 115.251 68 183-1.708-1.569-3.832-3.083-6-4 .118-.285-.115-.714 0-1 26.527-65.798.366-146.077-70-169 6.457 1.427 2.776-6.848 8-9"/><path fill="#09bff1" d="m637 350 3 3c-9.375 8.883-18.201 18.51-28 27-.537-.614-1.353-1.292-2-2 7.853-9.932 19.144-18.242 27-28"/><path fill="#07bbec" d="M643 360c-8.495 6.883-16.147 15.523-26.5 20 7.318-8.097 15.955-15.151 23.5-23z"/><path fill="#274066" d="M551 403c1.673 2.285 5.337 6.558 4 8-14.578-10.883-17.448-7.65-33-11-5.061-1.09-12.691-2.273-14-8 1.17-5.582 1.741-11.289 2-17 4.019 4.861.806-9.631 2.5-11 1.263-1.02 28.534 7.115 30 10l-8.5.5c4.954 10.665 10.067 19.028 17 28.5"/><path fill="#54e5fa" d="M666 369c-1.541 1.231-3.853 3.511-6 2 2.352-1.891 5.09-3.186 7.5-5 3.268.324-1.163 2.731-1.5 3"/><path fill="#12c8f5" d="m662 391-1-1c3.771-2.098 12.373-6.408 7.5-11-1.874-1.766-3.977.645-5.5 1-5.683 1.325-4.849 2.894-8 5-9.94 3.927-20.731 7.602-29 15-.759-1.259-1.202-2.775-2-4 3.747-1.422 7.169-3.819 10.5-6 1.023-.669.265-2.848.5-3 .53-.344 10.894-.261 10-6 1.077-.663 1.675-.8 2-1 4.367 2.192 9.187-5.51 11-7 .628-.516 1.163-1.327 2-2 2.147 1.511 4.459-.769 6-2l.5 4c11.469-4.46 4.273 3.899 4.5 10.5l3.5-2.5 2.5 1.5c-.866 1.772-12.407 6.955-15 8.5"/><path fill="#79f4fe" d="M658 373c-1.813 1.49-6.633 9.192-11 7 3.307-2.037 6.899-6.033 11-7"/><path fill="#69a3c0" d="M346 382c-36.45 69.836-24.865 144.769 18 208 6.672 9.842 17.9 20.658 23 30.5 1.139 2.198 3.188 5.003-1 5.5-76.265-61.57-97.334-160.645-51-248z"/><path fill="#09b3e4" d="M661 390c-9.321 5.187-22.144 9.345-32 14-.034-.062-.31.218-1-1 9.429-5.334 18.038-12.01 27-18 3.036-1.199 5.665-2.731 8-5 1.523-.355 3.626-2.766 5.5-1 4.873 4.592-3.729 8.902-7.5 11"/><path fill="#6bb5d6" d="M385 447c-3.494 5.982-5.502 15.198-6 22-1.062 14.508.92 30.326 6 44 3.567 13.514 11.489 28.032 20 39-5.108 4.922-10.682 9.298-16 14-6.543 5.784-13.02 11.622-19 18-41.148-68.278-45.781-135.984-5-205-7.366 26.328-4.707 52.438 20 68"/><path fill="#70f1fe" d="M663 380c-2.335 2.269-4.964 3.801-8 5 3.151-2.106 2.317-3.675 8-5"/><path fill="#8bf5ff" d="M645 381c.894 5.739-9.47 5.656-10 6 3.285-1.899 6.761-4.007 10-6"/><path fill="#106586" d="M692 384c93.687 191.966-141.192 375.051-306 242 4.188-.497 2.139-3.302 1-5.5-5.1-9.842-16.328-20.658-23-30.5l6-5c.562.928 2.874 2.803 3 3 1.204 1.877 3.121 8.701 3.5 9 1.801 1.423 13.204-6.884 14-7 2.103-.306 2.292 2.637 6.5 1 4.631-1.802 15.923-16.214 4 3.5 7.22-.357 7.436-4.883 15 .5-2.609 4.635-7.267 5.095-3 10 1.663 1.912 9.227 4.033 11.5 4 .371-.005.863-2.802 2-3 1.372-.238 3.828 2.857 5 3 5.309.647 3.816-3.207 7.5.5-6.566 4.253-1.656 11.433 1.5 16.5 6.778.065 2.639-11.848 10.5-10-.834 3.118-2.335 6.121-2 9.5 2.143 1.047 4.399-3.269 5-4.5 8.516-.644 9.362 4.188 6.5 11-4.858.554-3.645-.14-5.5-3.5-2.746 5.448 9.131 5.681 13 5.5 4.763-.223 3.102-8.75 5.5-13l6.5 5c-.133.434 1.945 5.771-1 8.5l-6 1c2.449 2.559 10.973.107 11.5.5 5.01 3.731-3.304 8.776 10.5 5 1.765-.483 2.405 2.068 4-.5l.5-11.5c11.312-2.173-3.753 16.911 8.5 10.5l1.5-20.5 6.5.5.5 19.5c4.971-.748.555-8.838 4-10 4.546-1.533 4.894 13.696 6 16 5.39-.708-.282-7.703 6-9 11.642 24.896-.647-36.485 9.5-7 .95 2.761.409 8.222 3.5 10 8.886-11.605 13.797-.589 21.5-16 .93-1.86 2.632-.455 3-1.5.297-.843-.883-16.385.5-16.5 4.407 1.85 6.193 15.402 10.5 12.5-4.034-1.67-5.874-13.633-7-15-.434-.527-10.989-6.068-12-6.5l-2-4c35.539 24.145 102.433-1.053 81-46 16.502 10.561 25.362 11.831 5-3.5 1.022-6.695 18.178 5.17 21.5 6.5 9.969-3.577-17.13-10.327-9-13 3.702-1.217 19.469 10.568 20.5 8.5-4.604-2.553-4.128-7.171-4.5-7.5-.819-.726-24.677-10.746-16-12 1.43-.207 22.099 11.97 26.5 11.5l-38-21c.194-.857-.294-2.604 0-3 2.035-2.74 31.676 14.541 36.5 9.5-1.661-2.555-23.518-6.645-24.5-12.5 2.468-3.171 25.39 9.768 28.5 4.5l-18-5c.16-3.269-15.557-2.372-12.5-7.5l36 5-18.5-7.5c-2.184-.537-14.128-.873-14.5-1.5-.87-1.468 1.044-5.047 2.5-5.5 2.363-.736 27.2 7.618 32.5 5.5.624-3.044-3.132-2.743-5.5-3.5-8.903-2.847-19.058-2.673-27.5-6.5-1.106-2.977 32.154 2.949 35 1l-11.5-4.5c-4.307 1.641-6.589-.938-7-1-2.935-.441-20.154.622-21 0-.821-.604-.821-5.402 0-6 1.6-1.165 33.806 4.98 39.5 2.5 2.106-4.592-30.757-5.532-31-9.5 8.822.32 17.71-.48 26.5 0 1.668-3.073-2.152-1.657-3.5-2l.5-3-43.5 1c-.008-.943.034-2.145 0-3l20.5-1c1.613 6.177 1.143.215 2 0 6.184-1.551 24.765.031 29-2 .81-.389.806-2.35 0-3-2.657-1.346-28.795 1.579-34 1-2.691-.299-3.967 1.027-3.5-3 1.924-.233 4.091.263 6 0 11.27-1.551 22.85-4.118 34-6.5-3.77-2.88-15.86 1.475-18.5-.5-2.088-1.562-.062-5.981-4.5-7 7.47-1.324 12.521-1.169 20-4.5-6.216-2.693-12.172 2.858-18-2.5 1.743-1.494 3.879-2.297 4-2.5.106-.178-2.121-1.575-2-2.5 3.498-1.353 1.406-2.55 2.5-3 4.245-1.744 10.016-1.242 14-4-5.805-2.737-18.449 3.823-24 3-3.654-.542-2.434-.62-2.5-4 1.979-.711 4.054-1.284 6-2 5.711-2.101 11.756-4.318 17-7.5-5.461-.273-11.921.605-16.5 4.5-6.299-7.993 8.187-7.933 12.5-12.5-2.152-1.542-7.434.351-8.5 2.5l-1.5-9c.829-.61 3.965-1.572 4-2.5.141-3.78-5.084 1.914 0-5.5 1.955-2.851 4.702-6.78 8-5"/><path fill="#70f1fe" d="M655 385c-8.962 5.99-17.571 12.666-27 18-.429-.757-1.39-1.989-2-3 8.269-7.398 19.06-11.073 29-15"/><path fill="#124c78" d="M598 410c-6.699.927 1.722 12.411 3 16-5.751.249-18.198 1.587-20 8-.434-.521-10.226-9.452-11-6-4.634-7.586-7.692-11.544-15-17 1.337-1.442-2.327-5.715-4-8 4.014-6.733 15.559-8.037 22.5-11 3.819-1.63 2.972-5.411 6-5 2.187.297 16.412 19.772 18.5 23"/><path fill="#7bf2ff" d="M624 396c-.744-1.143-.885-1.83-1-2 2.948-3.488 8.123-4.758 12-7-.235.152.523 2.331-.5 3-3.331 2.181-6.753 4.578-10.5 6"/><path fill="#0eafe3" d="M684 389c-5.084 7.414.141 1.72 0 5.5-.035.928-3.171 1.89-4 2.5-4.132 3.043-7.914 3.807-12 6l-34 13c-.296-.697-.479-1.863-1-3l39-19c1.336-.623 5.955-4.343 7.5-5 .207-.088 4.273-.413 4.5 0"/><path fill="#68effe" d="m661 390 1 1c-10.146 6.047-20.163 12.198-31 17-.64-1.257-1.354-2.821-2-4 9.856-4.655 22.679-8.813 32-14"/><path fill="url(#b)" d="m522 400 35 24.5c8.488 10.462 13.984 22.411 17 35.5-1.389.386-.932.981-1 1-4.483 1.253-8.595 2.584-13 4-33.733 10.845-64.06 23.953-94 43-3.234 2.057-6.802 3.953-10 6-1.51.967-.704 2.454-3 2-6.335-6.439-12.426-11.675-18-19l4-39c33.51-6.633 61.832-31.789 69-66 1.309 5.727 8.939 6.91 14 8" style="fill:url(#b)"/>/&gt;<path fill="#61ecfe" d="M633 413c-.126-.275.128-.726 0-1-.228-2.68 4.51-4.13 6.5-5 10.637-4.652 21.964-8.089 32.5-13z"/><path fill="#0ba8d9" d="M677 419c.048-3.67-2.263-2.505-4.5-2-6.741 1.522-20.81 6.534-28 9-3.142 1.078-4.035.65-5.5 4-.436-1.429-.531-4.665-1-6l37-14.5-38 11.5c-.039-.105-.559-.878-1-2 10.681-5.39 21.441-10.334 32-16 4.086-2.193 7.868-2.957 12-6l1.5 9c1.066-2.149 6.348-4.042 8.5-2.5-4.313 4.567-18.799 4.507-12.5 12.5 4.579-3.895 11.039-4.773 16.5-4.5-5.244 3.182-11.289 5.399-17 7.5"/><path fill="#222b54" d="M555 411c7.308 5.456 10.366 9.414 15 17 5.054 8.273 10.294 20.419 12 30-2.3 1.84-5.758 1.377-8 2-3.016-13.089-8.512-25.038-17-35.5L522 400c15.552 3.35 18.422.117 33 11"/><path fill="#55ebfd" d="M668 403c-10.559 5.666-21.319 10.61-32 16-.066-.168-1.535-1.905-2-3z"/><path fill="#41e0fb" d="M638 424c-.352-1.001-.658-2.082-1-3l38-11.5z"/><path fill="#1c7eaa" d="M598 410c4.404 6.81 8.089 13.389 11 21-.727 5.439 5.153 15.29-.5 19-2.403-8.017-4.696-16.125-7.5-24-1.278-3.589-9.699-15.073-3-16"/><path fill="#48dcf9" d="M677 419c-1.946.716-4.021 1.289-6 2-10.137 3.641-20.785 6.528-31 10-.02-.068-.576.389-1-1 1.465-3.35 2.358-2.922 5.5-4 7.19-2.466 21.259-7.478 28-9 2.237-.505 4.548-1.67 4.5 2"/><path fill="#10a4d3" d="M671 421c.066 3.38-1.154 3.458 2.5 4 5.551.823 18.195-5.737 24-3-3.984 2.758-9.755 2.256-14 4-1.094.45.998 1.647-2.5 3-3.144 1.216-21.624 6.4-22 7.5-1.338 3.918 18.589.946 19.5.5 1.026-.502.239-2.776.5-3 5.828 5.358 11.784-.193 18 2.5-7.479 3.331-12.53 3.176-20 4.5-1.551.275-3.448-.275-5 0-8.799-4.023-19.718 3.407-29 1-.179-.915-.8-1.077-1-2 1.737-.059 17.35-2.977 16-5.5l-16 3.5c-.208-.895-.77-1.098-1-2l38-9.5-38 6.5c-.029-.108-.464-.15-1-2 10.215-3.472 20.863-6.359 31-10"/><path fill="#0975a4" d="M601 426c2.804 7.875 5.097 15.983 7.5 24 5.653-3.71-.227-13.561.5-19 .458 1.199 1.942 2.829 2 3 1.917 5.602 2.371 13.387 4 19 1.516 5.225.958 10.711 2 15l-5 29.5c-4.847 4.844-2.415 11.943-9 15.5-3.027 1.635-16.547 2.134-20-1 21.201-14.59 32.998-51.043 3-61 .617-7.903-.001-10.998-5-17 1.802-6.413 14.249-7.751 20-8"/><path fill="#4edffa" d="M641 436c-.221-.87.232-2.148 0-3l38-6.5z"/><path fill="#23a0ce" d="M581 434c4.999 6.002 5.617 9.097 5 17-.149 1.911-2.073 6.963-3 9-.11-.926-.828-1.033-1-2-1.706-9.581-6.946-21.727-12-30 .774-3.452 10.566 5.479 11 6"/><path fill="#128bb6" d="M679 434c-.261.224.526 2.498-.5 3-.911.446-20.838 3.418-19.5-.5.376-1.1 18.856-6.284 22-7.5-.121.925 2.106 2.322 2 2.5-.121.203-2.257 1.006-4 2.5"/><path fill="#124c78" d="M615 453c-1.629-5.613-2.083-13.398-4-19 7.404-2.475 7.486 15.742 4 19"/><path fill="#34dbfa" d="M642 440c-.13-.599.137-1.408 0-2l16-3.5c1.35 2.523-14.263 5.441-16 5.5"/><path fill="#47d7f6" d="M672 441c-9.607 1.702-19.071 5.01-29 5-.212-1.264.245-2.751 0-4 9.282 2.407 20.201-5.023 29-1"/><path fill="#1b9ec8" d="M677 441c4.438 1.019 2.412 5.438 4.5 7 2.64 1.975 14.73-2.38 18.5.5-11.15 2.382-22.73 4.949-34 6.5-2.39-5.279-15.992.584-21-1-.095-.942-.881-1.043-1-2 1.989-.488 18.132-.278 17-3.5l-17 2.5c-.272-2.041-.739-3.446-1-5 9.929.01 19.393-3.298 29-5 1.552-.275 3.449.275 5 0"/><path fill="#08384e" d="M820 769c-2.38.341-5.579-.939-7.5 1l-.5-4c1.948-2.408 4.017-6.31 6-9 18.815-25.527 34.317-60.194 45-90 11.612-32.397 18.969-61.934 24-96 6.24-42.247 4.173-65.193 3-106-.045-1.571 3.149-17.397 3-23 14.483 11.303 43.172 36.079 49 53.5 17.178 51.349-17.408 202.338-53 244-9.659 11.307-54.176 27.379-69 29.5m80-303c.379 4.915-.144 10.054 0 15 .456 15.693-.171 31.348-1 47-.662 12.502-1.499 24.58-3 37-1.473 12.191-3.598 23.985-6 36-2.991 14.96-6.7 28.432-11 43-4.206 14.249-8.503 29.222-14 43-9.423 23.617-22.855 45.524-34.5 68 2.485 1.484 46.265-15.456 51-19 10.917-8.171 21.148-35.268 26.5-48 3.925-9.336 7.773-18.366 11-28 3.495-10.433 7.292-21.355 10-32 3.012-11.842 5.1-23.921 7-36 1.91-12.142 3.381-21.539 4-34 1.248-25.131 3.403-49.78-11-71-8.814-12.985-21.207-24.181-31.5-36-1.997 1.323 2.353 13.088 2.5 15"/><path fill="#093a50" d="M128 443c-.798 2.19-1.787 4.014-3 6-9.356 15.312-31.155 30.23-39 47-6.792 14.518-5.586 37.727-5 54 .982 27.261 5.192 54.642 12 81 2.533 9.807 6.67 21.291 10 31 5.528 16.116 20.987 57.325 31 69.5 7.098 8.631 24.738 12.932 35 16.5 2.483.863 22.987 9.383 24 7.5-13.284-22.123-26.262-44.52-36-68.5-5.005-12.325-8.995-25.31-13-38-4.766-15.099-9.698-30.493-13-46-4.763-22.371-6.598-41.225-8-64-.415-6.735-.833-13.217-1-20l2 14.5 5-3.5c2.399 52.7 13.365 99.296 33 148 13.038 32.34 29.243 63.646 51 91-2.293-.17-4.725.246-7 0-18.372-1.983-63.339-17.174-75-31.5-33.585-41.262-67.941-188.956-52-239 5.987-18.796 33.415-43.716 49-55.5"/><path fill="#050823" d="M388 461c-1.21.973-2.661 3.313-3.5 3-1.272-1.424.66-2.07.5-4-.219-2.647-.343-6.019-1-8.5l-5 17.5c.498-6.802 2.506-16.018 6-22 2.719 1.713 8.851 2.769 12 4.5.385.859-7.696 8.452-9 9.5"/><path fill="#3ed6f4" d="M644 452c-.041-.328.044-.672 0-1l17-2.5c1.132 3.222-15.011 3.012-17 3.5"/><path fill="#e1f6f9" d="M123 463c-1.214-.164-1.676 1.685-2 2-9.629 9.378-22.036 23.804-33 31-.711.467-1.99 1.584-2 0 7.845-16.77 29.644-31.688 39-47 1.404 4.781-1.425 9.491-2 14"/><path fill="#0d4466" d="M385 460c-6.566 7.039.353 15.058-2 23.5-.468 7.441 6.504 14.71 7 20.5.011.125-2.072.84-2 1.5.37 3.406 4.028 11.253 0 12.5-.74-1.642-2.898-4.727-3-5-5.08-13.674-7.062-29.492-6-44l5-17.5c.657 2.481.781 5.853 1 8.5"/><path fill="#078cbf" d="M583 512c-5.676 3.906-14.758 5.63-19 8 12.265-16.011 21.457-39.306 19-60 .927-2.037 2.851-7.089 3-9 29.998 9.957 18.201 46.41-3 61"/><path fill="#7bc7dc" d="m929 487-4 1c-7.408-7.867-17.142-14.5-25-22-.147-1.912-4.497-13.677-2.5-15 10.293 11.819 22.686 23.015 31.5 36"/><path fill="#3ad5f6" d="M666 455c-1.909.263-4.076-.233-6 0-4.563.552-10.425 2.439-15 1-.056-.653.065-1.349 0-2 5.008 1.584 18.61-4.279 21 1"/><path fill="#1c9fc9" d="M660 455c-.467 4.027.809 2.701 3.5 3 5.205.579 31.343-2.346 34-1 .806.65.81 2.611 0 3-4.235 2.031-22.816.449-29 2-.857.215-.387 6.177-2 0l-20.5 1c-.074-1.847-.815-4.831-1-7 4.575 1.439 10.437-.448 15-1"/><path fill="#29446b" d="m439 458-4 39c-.102-.133-1.725.345-3-1.5-5.281-7.643 3.717-12.64-15.5-9.5-1.648-2.316.74-3.347 1.5-5 3.01-6.55 10.78-11.811 7-21.5.164-.818 11.354-.976 14-1.5"/><path fill="#002449" d="M583 460c2.457 20.694-6.735 43.989-19 60-24.89 13.907-34.941 23.96-67.5 21-25.692-2.335-28.263-9.513-43.5-25 2.296.454 1.49-1.033 3-2 2.564 5.614 14.678 11.703 20.5 14 52.853 20.849 107.312-5.649 96.5-67 .068-.019-.389-.614 1-1 2.242-.623 5.7-.16 8-2 .172.967.89 1.074 1 2"/><path fill="#060b2b" d="M385 460c.16 1.93-1.772 2.576-.5 4 .839.313 2.29-2.027 3.5-3-4.989 9.192-.984 22.544 10 25-9.307 5.707 7.357 17.527-6 20-.055-.13-1.53-1.915-2-2-.496-5.79-7.468-13.059-7-20.5 2.353-8.442-4.566-16.461 2-23.5"/><path fill="#004c70" d="M573 461c10.812 61.351-43.647 87.849-96.5 67-5.822-2.297-17.936-8.386-20.5-14 3.198-2.047 6.766-3.943 10-6 35.062 30.605 101.533 8.987 94-43 4.405-1.416 8.517-2.747 13-4"/><path fill="#84eafb" d="M122 519c.167 6.783.585 13.265 1 20h-4c-.217-1.89 1.134-9.043-1.5-9L85 559c-.027-.1-1.712.374-2-.5-.593-1.803.624-6.695-2-8.5-.586-16.273-1.792-39.482 5-54 .01 1.584 1.289.467 2 0l-.5 22c1.577 1.28 30.746-23.614 31.5-25.5 3.062-7.656-.504-19.353 2-27.5.324-.315.786-2.164 2-2-2.271 17.797-1.442 38.004-1 56"/><path fill="#71e9f9" d="M388 645c143.637 100.233 344.206-3.805 339-180l-1 43.5 4-3C705.428 644.15 562.088 729.534 428.5 676c-6.735-2.699-42.592-20.85-43.5-26.5-.359-2.232 1.16-3.678 3-4.5"/><path fill="#3ab6d7" d="M88 496c10.964-7.196 23.371-21.622 33-31-2.504 8.147 1.062 19.844-2 27.5-.754 1.886-29.923 26.78-31.5 25.5z"/><path fill="#081137" d="M560 465c7.533 51.987-58.938 73.605-94 43 29.94-19.047 60.267-32.155 94-43"/><path fill="#198cb4" d="M689 468c-3.697-.939-34.894-1.868-36.5-1-6.562 3.545 12.473 2.963 13.5 3 .243 3.968 33.106 4.908 31 9.5-5.694 2.48-37.9-3.665-39.5-2.5-.821.598-.821 5.396 0 6 .846.622 18.065-.441 21 0 .411.062 2.693 2.641 7 1l11.5 4.5c-2.846 1.949-36.106-3.977-35-1 8.442 3.827 18.597 3.653 27.5 6.5 2.368.757 6.124.456 5.5 3.5-5.3 2.118-30.137-6.236-32.5-5.5-1.456.453-3.37 4.032-2.5 5.5.372.627 12.316.963 14.5 1.5l18.5 7.5-36-5c-3.057 5.128 12.66 4.231 12.5 7.5l18 5c-3.11 5.268-26.032-7.671-28.5-4.5.982 5.855 22.839 9.945 24.5 12.5-4.824 5.041-34.465-12.24-36.5-9.5-.294.396.194 2.143 0 3l38 21c-4.401.47-25.07-11.707-26.5-11.5-8.677 1.254 15.181 11.274 16 12 .372.329-.104 4.947 4.5 7.5-1.031 2.068-16.798-9.717-20.5-8.5-8.13 2.673 18.969 9.423 9 13-3.322-1.33-20.478-13.195-21.5-6.5 20.362 15.331 11.502 14.061-5 3.5-1.593-3.34-7.26-10.266-10-13 11.27-20.554 15.208-43.699 15-67l43.5-1z"/><path fill="#308daa" d="M925 488c7.916 8.407 10.256 13.12 8.5 26-6.172-6.385-15.013-10.251-21.5-16-1.975-1.75-8.074-6.717-9-8.5-1.627-3.133.528-7.974-3-8.5-.144-4.946.379-10.085 0-15 7.858 7.5 17.592 14.133 25 22"/><path fill="#24b0d4" d="M689 468c1.348.343 5.168-1.073 3.5 2-8.79-.48-17.678.32-26.5 0-1.027-.037-20.062.545-13.5-3 1.606-.868 32.803.061 36.5 1"/><path fill="#00567b" d="M617 468c1.068 4.395 6.781 12.291 8 17.5 3.038 12.979 2.117 28.278-3 40.5-6.767-4.257-6.299-4.289-14-6 .519-2.42-3.464-2.646-5-3v-4c6.585-3.557 4.153-10.656 9-15.5z"/><path fill="url(#c)" d="M418 481c-.76 1.653-3.148 2.684-1.5 5 19.217-3.14 10.219 1.857 15.5 9.5 1.275 1.845 2.898 1.367 3 1.5 5.574 7.325 11.665 12.561 18 19 15.237 15.487 17.808 22.665 43.5 25 32.559 2.96 42.61-7.093 67.5-21 4.242-2.37 13.324-4.094 19-8 3.453 3.134 16.973 2.635 20 1v4c-30.989-7.138-62.511 15.868-60 48l-2-1.5c.233 2.056-.337 4.573 0 6.5-21.066 2.869-42.736 2.777-63.5-2-21.591-4.967-33.18-11.844-47.5-28-15.205-17.154-21.56-33.52-31-54 8.047 1.142 12.243-1.505 19-5" style="fill:url(#c)"/>/&gt;<path fill="#60c9e5" d="M912 498c-3.563.12-1.935 1.48-.5 3 3.816 4.041 16.152 13.785 21 17 .202.134.641-3.433 2.5-1.5 1.315 1.367 2.254 33.965-1 37.5-11.026-9.3-22.437-18.783-35-26 .829-15.652 1.456-31.307 1-47 3.528.526 1.373 5.367 3 8.5.926 1.783 7.025 6.75 9 8.5"/><path fill="#081e42" d="M430 540c-1.415 9.406-8.327 3.36-7.5 11-7.375 2.421-27.611-38.172-30.5-45 13.357-2.473-3.307-14.293 6-20 .313.07.675-.046 1 0 9.44 20.48 15.795 36.846 31 54"/><path fill="#abe7f3" d="M929 487c14.403 21.22 12.248 45.869 11 71-1.731-.785-3.553-1.78-5-3-.589-.497-.919-.931-1-1 3.254-3.535 2.315-36.133 1-37.5-1.859-1.933-2.298 1.634-2.5 1.5-4.848-3.215-17.184-12.959-21-17-1.435-1.52-3.063-2.88.5-3 6.487 5.749 15.328 9.615 21.5 16 1.756-12.88-.584-17.593-8.5-26z"/><path fill="#a9c7d1" d="m264.5 498 3 22c-2.901-1.737-4.274-21.993-3-22"/><path fill="#034c71" d="M392 506c2.889 6.828 23.125 47.421 30.5 45-.827-7.64 6.085-1.594 7.5-11 14.32 16.156 25.909 23.033 47.5 28 20.764 4.777 42.434 4.869 63.5 2 .55 3.148 5.109 9.965 7 13-38.32 12.754-80.721 6.135-113.5-17-3.953-2.79-23.344-21.825-25-22-1.415-.15-2.25 3.344-5.5 2-5.562-7.709-12.068-19.278-16-28 4.028-1.247.37-9.094 0-12.5-.072-.66 2.011-1.375 2-1.5.47.085 1.945 1.87 2 2"/><path fill="#031725" d="M388 518c3.932 8.722 10.438 20.291 16 28 33.737 46.759 95.483 60.077 149.5 45 1.588-1.653-4.753-6.801-5.5-8-1.891-3.035-6.45-9.852-7-13-.337-1.927.233-4.444 0-6.5l2 1.5c.274 3.511 1.704 6.8 3 10 2.654 6.555 8.07 12.971 14 17l2 4c-12.276-5.248-9.836-.344-20.5 1-24.603 3.1-44.108 1.918-68.5-1-.646-.077-1.352.07-2 0-10.522-6.275-22.849-8.767-33.5-15-8.798-5.148-22.878-17.228-29.5-25-.825-.968-1.987-2.695-3-4-8.511-10.968-16.433-25.486-20-39 .102.273 2.26 3.358 3 5"/><path fill="#cbebf5" d="M603 517c1.536.354 5.519.58 5 3-4.303-.956-13.598-3.203-17.5-2-2.763.851-36.667 37.872-37.5 41.5-.841 3.664-.08 10.782 1 14.5l-8 1c-1.296-3.2-2.726-6.489-3-10-2.511-32.132 29.011-55.138 60-48"/><path fill="#7ec4d9" d="M608 520c7.701 1.711 7.233 1.743 14 6 .572.36 1.32.841 2 1-.115.286.118.715 0 1-4.472 10.761-12.614 22.917-20 32l-38 27c-3.994-.953-10.9-9.212-12-13-1.08-3.718-1.841-10.836-1-14.5.833-3.628 34.737-40.649 37.5-41.5 3.902-1.203 13.197 1.044 17.5 2"/><path fill="#a8d6e0" d="M630 532c.285.261.687.687 1 1 2.74 2.734 8.407 9.66 10 13 21.433 44.947-45.461 70.145-81 46-5.93-4.029-11.346-10.445-14-17l8-1c1.1 3.788 8.006 12.047 12 13 6.694 1.597 32.137-17.802 37-23.5.118-.138-.071-2.182 1-3.5 7.386-9.083 15.528-21.239 20-32 2.168.917 4.292 2.431 6 4"/><path fill="#7ad1e7" d="M934 554c.081.069.411.503 1 1-.299 11.141-2.279 22.048-4 33l-35-23c1.501-12.42 2.338-24.498 3-37 12.563 7.217 23.974 16.7 35 26"/><path fill="#7ca2b0" d="M280 552c48.219 110.589 140.935 179.564 267 161 .199 4.274-1.462 6.372 3 8-2.57.389-5.404.702-8 1-103.975 11.942-219.238-49.898-260-147.5-3.34-7.996-12.5-33.481-13-41-.096-1.442-.432-4.476 2-4 2.195 7.844 5.787 15.131 9 22.5"/><path fill="#b2f2fb" d="M119 539c.445 3.877 3.397 24.732 3 26.5-.571 2.543-27.19 23.859-32 25.5-1.899-10.056-2.463-22.604-5-32l32.5-29c2.634-.043 1.283 7.11 1.5 9"/><path fill="#74cfe5" d="M123 539c1.402 22.775 3.237 41.629 8 64-11.981 4.565-24.351 13.538-33 23-3.627-11.425-5.779-23.238-8-35 4.81-1.641 31.429-22.957 32-25.5.397-1.768-2.555-22.623-3-26.5z"/><path fill="#056282" d="M548 583c.747 1.199 7.088 6.347 5.5 8-54.017 15.077-115.763 1.759-149.5-45 3.25 1.344 4.085-2.15 5.5-2 1.656.175 21.047 19.21 25 22 32.779 23.135 75.18 29.754 113.5 17"/><path fill="#dbf4f9" d="M85 559c2.537 9.396 3.101 21.944 5 32 2.221 11.762 4.373 23.575 8 35-1.328 1.452-1.576 5.308-5 5-6.808-26.358-11.018-53.739-12-81 2.624 1.805 1.407 6.697 2 8.5.288.874 1.973.4 2 .5"/><path fill="#24b4e1" d="M408 556c-5.297 6.535-12.816 10.521-19 16v-6c5.318-4.702 10.892-9.078 16-14 1.013 1.305 2.175 3.032 3 4"/><path fill="#c9f4fb" d="M940 558c-.619 12.461-2.09 21.858-4 34l-5-2c.103-.632-.1-1.366 0-2 1.721-10.952 3.701-21.859 4-33 1.447 1.22 3.269 2.215 5 3"/><path fill="#15a2d1" d="M471 596c-4.91-.527-7.027-2.23-11.5-3-2.37 7.444-6.521 15.602-8.5 23-7.861-1.848-3.722 10.065-10.5 10-3.156-5.067-8.066-12.247-1.5-16.5-3.684-3.707-2.191.147-7.5-.5-1.172-.143-3.628-3.238-5-3-1.137.198-1.629 2.995-2 3-2.273.033-9.837-2.088-11.5-4 .56-5.23 18.778-21.992 19-23.5 1.437-9.764-8.875-1.755-9.5-1.5-1.059.432-4.573-3.148-7.5 3.5 11.176-.479 3.967 6.229 1 11.5-7.564-5.383-7.78-.857-15-.5 11.923-19.714.631-5.302-4-3.5-11.461-1.767 3.024-6.937 1-10.5-6.443 1.149-4.744-6.528-11 0l-2-3.5c1.373-1.278 2.607-3.766 4-5 6.184-5.479 13.703-9.465 19-16 6.622 7.772 20.702 19.852 29.5 25 10.651 6.233 22.978 8.725 33.5 15"/><path fill="#6499af" d="M604 560c-1.071 1.318-.882 3.362-1 3.5-4.863 5.698-30.306 25.097-37 23.5z"/><path fill="#50b1cb" d="M931 588c-.1.634.103 1.368 0 2-1.649 10.086-3.723 20.051-6 30-5.543 4.139-13.248-6.636-18.5-10-4.887-3.13-12.295-4.388-16.5-9 2.402-12.015 4.527-23.809 6-36z"/><path fill="#1a95bf" d="M389 572c-1.393 1.234-2.627 3.722-4 5-3.953 3.678-8.839 6.422-12 11-.126-.197-2.438-2.072-3-3-.148-.244.147-.756 0-1 5.98-6.378 12.457-12.216 19-18z"/><path fill="#18acdc" d="M413 605c-4.267-4.905.391-5.365 3-10 2.967-5.271 10.176-11.979-1-11.5 2.927-6.648 6.441-3.068 7.5-3.5.625-.255 10.937-8.264 9.5 1.5-.222 1.508-18.44 18.27-19 23.5"/><path fill="#178ab3" d="M397 591c-4.208 1.637-4.397-1.306-6.5-1-.796.116-12.199 8.423-14 7-.379-.299-2.296-7.123-3.5-9 3.161-4.578 8.047-7.322 12-11l2 3.5c6.256-6.528 4.557 1.149 11 0 2.024 3.563-12.461 8.733-1 10.5"/><path fill="#84d3e6" d="M936 592c-1.9 12.079-3.988 24.158-7 36l-5-2c.395-1.606.482-3.735 1-6 2.277-9.949 4.351-19.914 6-30z"/><path fill="#14aada" d="M471 596c.648.07 1.354-.077 2 0 4.893 7.245-4.672 9.438-6 11.5-1.785 2.772-1.203 11.063-4 14.5-5.001-1.325.109-8.792.5-14-8.814-.8-7.241 8.374-9.5 13-.601 1.231-2.857 5.547-5 4.5-.335-3.379 1.166-6.382 2-9.5 1.979-7.398 6.13-15.556 8.5-23 4.473.77 6.59 2.473 11.5 3"/><path fill="#109fce" d="M562 596c1.011.432 11.566 5.973 12 6.5 1.126 1.367 2.966 13.33 7 15-4.307 2.902-6.093-10.65-10.5-12.5-1.383.115-.203 15.657-.5 16.5-.368 1.045-2.07-.36-3 1.5l-4.5-8c-4.602-.882-2.583 1.675-4.5 3 .484-3.07-3.787-21.473-5-22.5-.486-.412-11.998 2.107-12.5 2.5-1.146.898 3.341 24.686 4.5 28-.96.689-.513 3.722-3 3-10.147-29.485 2.142 31.896-9.5 7-6.282 1.297-.61 8.292-6 9-1.106-2.304-1.454-17.533-6-16-3.445 1.162.971 9.252-4 10l-.5-19.5-6.5-.5-1.5 20.5c-12.253 6.411 2.812-12.673-8.5-10.5l-.5 11.5c-1.595 2.568-2.235.017-4 .5 2.287-10.737-5.523-5.413-7-7.5-.29-.41-.144-8.937-1-10-2.043-2.537-5.952-.936-7 2.5l-6.5-5c-2.398 4.25-.737 12.777-5.5 13-2.121-8.741 5.635-9.183-5-12 2.797-3.437 2.215-11.728 4-14.5 1.328-2.062 10.893-4.255 6-11.5 24.392 2.918 43.897 4.1 68.5 1 10.664-1.344 8.224-6.248 20.5-1"/><path fill="#1298c5" d="M558 618c-1.683 1.163-5.836 3.194-6 3.5-.764 1.421 1.372 5.893-1.5 7.5-2.339-4.24-.59-6.525-5.5-3-1.159-3.314-5.646-27.102-4.5-28 .502-.393 12.014-2.912 12.5-2.5 1.213 1.027 5.484 19.43 5 22.5"/><path fill="#227d96" d="M709 607c-45.119 64.407-113.21 103.477-193 105 .059-3.126-2.379-2.208 1-2.5 103.454-8.928 126.496-32.461 190-107 .35-.411 3.018-3.949 3-1l-6 9z"/><path fill="#3a94ad" d="M925 620c-.518 2.265-.605 4.394-1 6-2.453 9.969-5.849 20.21-9 30-12.061-5.064-22.201-12.18-36-12 4.3-14.568 8.009-28.04 11-43 4.205 4.612 11.613 5.87 16.5 9 5.252 3.364 12.957 14.139 18.5 10"/><path fill="#44a3bd" d="M131 603c3.302 15.507 8.234 30.901 13 46-3.069.448-1.966-4.284-3.5-5-4.797-2.24-27.261 9.334-32 13-2.069 1.601.134 3.796-5.5 5-3.33-9.709-7.467-21.193-10-31 3.424.308 3.672-3.548 5-5 8.649-9.462 21.019-18.435 33-23"/><path fill="#0f7fa8" d="M463 622c10.635 2.817 2.879 3.259 5 12-3.869.181-15.746-.052-13-5.5 1.855 3.36.642 4.054 5.5 3.5 2.862-6.812 2.016-11.644-6.5-11 2.259-4.626.686-13.8 9.5-13-.391 5.208-5.501 12.675-.5 14"/><path fill="#107ba2" d="M567 623c-7.703 15.411-12.614 4.395-21.5 16-3.091-1.778-2.55-7.239-3.5-10 2.487.722 2.04-2.311 3-3 4.91-3.525 3.161-1.24 5.5 3 2.872-1.607.736-6.079 1.5-7.5.164-.306 4.317-2.337 6-3.5 1.917-1.325-.102-3.882 4.5-3z"/><path fill="#0e7fa8" d="M495 641c-13.804 3.776-5.49-1.269-10.5-5-.527-.393-9.051 2.059-11.5-.5l6-1c2.945-2.729.867-8.066 1-8.5 1.048-3.436 4.957-5.037 7-2.5.856 1.063.71 9.59 1 10 1.477 2.087 9.287-3.237 7 7.5"/><path fill="#92d5e7" d="M332 624c.138.165 2.456-.616 2 1.5-1.157 1.157-1.876-1.514-2-1.5"/><path fill="#5db2ca" d="M929 628c-2.708 10.645-6.505 21.567-10 32l-5-2c.273-.826.734-1.174 1-2 3.151-9.79 6.547-20.031 9-30z"/><path fill="#277b94" d="M144 649c4.005 12.69 7.995 25.675 13 38-5.849-2.91-36.851 1.168-37 7.5-.046 1.945 15.112 32.938 17 35 7.143 7.801 24.433 8.67 31.5 13.5 1.564 1.069 2.605 3.954.5 5-10.262-3.568-27.902-7.869-35-16.5-10.013-12.175-25.472-53.384-31-69.5 5.634-1.204 3.431-3.399 5.5-5 4.739-3.666 27.203-15.24 32-13 1.534.716.431 5.448 3.5 5"/><path fill="#24738c" d="M915 656c-.266.826-.727 1.174-1 2-3.682 11.121-7.407 22.221-12 33-12.44-1.9-24.077-7.95-37-4 5.497-13.778 9.794-28.751 14-43 13.799-.18 23.939 6.936 36 12"/><path fill="#3a8ea6" d="M919 660c-3.227 9.634-7.075 18.664-11 28-4.017 8.444-5.54 3.07-6 3 4.593-10.779 8.318-21.879 12-33z"/><path fill="#90b7c6" d="M242 776c3.122 3.341 25.575 26.921 27.5 27 1.075.044 3.091-3.68 6-4 19.086-2.101 41.448 3.572 60 8 1.859-2.268 2.179-3.838 4.5-6-7.031 15.143-3.734 21.06 10 29 3.49 4.969 11.154 9.412 16.5 12 31.574 15.286 83.388 22.957 118.5 25l-4 15c-10.119-.168-19.957-.961-30-2-48.939-5.063-97.423-21.917-139.5-47-6.15-3.666-33.78-26.008-36-26-.76.003-10.338 8.786-10.5 11-19.885-15.335-36.235-29.179-52-49-21.757-27.354-37.962-58.66-51-91l16-11.5c13.212 41.513 34.381 77.802 64 109.5"/><path fill="#709bab" d="M863 667c-10.683 29.806-26.185 64.473-45 90-1.124.334-4.718-.835-5-1.5-.868-2.049 20.255-33.095 23-38 9.321-16.66 16.978-34.265 27-50.5"/><path fill="#175c75" d="M157 687c9.738 23.98 22.716 46.377 36 68.5-1.013 1.883-21.517-6.637-24-7.5 2.105-1.046 1.064-3.931-.5-5-7.067-4.83-24.357-5.699-31.5-13.5-1.888-2.062-17.046-33.055-17-35 .149-6.332 31.151-10.41 37-7.5"/><path fill="#185c75" d="M902 691c.46.07 1.983 5.444 6-3-5.352 12.732-15.583 39.829-26.5 48-4.735 3.544-48.515 20.484-51 19 11.645-22.476 25.077-44.383 34.5-68 12.923-3.95 24.56 2.1 37 4"/><path fill="#315968" d="M541 747c28.492 2.745 63.505 11.168 90 22 10.216 4.177 52.66 26.151 57 34.5 6.361 12.237-4.687 21.044-14 26.5-71.594 41.942-252.36 41.415-324 0-13.734-7.94-17.031-13.857-10-29 2.511-2.339 4.199-4.825 7-7 45.907-35.64 137.158-52.476 194-47m-142 92c1.624.492 4.603 2.437 6 0 .207.196 3.206-.487 4 1.5.273 1.502-9.242 2.949 2.5 6.5 61.306 18.537 145.452 12.238 206.5-5 2.743-.775 5.569-2.246 8-3 6.059-1.88 14.363-3.059 21.5-6 58.863-24.255 27.542-35.736-12-52-68.416-28.14-121.382-36.194-194-17-15.688 4.147-85.223 27.92-90.5 41.5-6.744 17.357 35.391 29.684 48 33.5"/><path fill="#7aa3b3" d="M805 771c-32.197 37.756-62.155 64.27-106 88-.827-6.166 1.507-11.919 2-18.5.024-.315-2.226-5.332-2-6 .495-1.465 21.837-14.546 25.5-17.5 25.554-20.604 48.889-43.576 68.5-70 7.394 2.231 9.509 17.241 12 24"/><path fill="#280f16" d="M626 839c-3.307-4.737-8.119-8.121-13-11-5.685-46.583-77.364-63.201-116.5-60-24.129 1.974-107.561 22.812-101.5 56.5 1.185 6.586 12.408 10.511 4 14.5-12.609-3.816-54.744-16.143-48-33.5 5.277-13.58 74.812-37.353 90.5-41.5 72.618-19.194 125.584-11.14 194 17 39.542 16.264 70.863 27.745 12 52-7.137 2.941-15.441 4.12-21.5 6"/><path fill="#426e7e" d="m812 766 .5 4c1.921-1.939 5.12-.659 7.5-1-149.166 192.423-466.881 196.732-614 0 2.275.246 4.707-.17 7 0 15.765 19.821 32.115 33.665 52 49 55.623 42.897 119.755 73.948 190 84 86.682 12.404 167.488-1.59 244-43 43.845-23.73 73.803-50.244 106-88 1.373-1.61 6.729-4.666 7-5"/><path fill="#322023" d="M613 828c-2.87-1.693-6.071-2.585-9-4-8.84-4.269-14.578-6.289-24-9-20.726-5.963-44.387-10.306-66-11-30.187-.969-57.724 4.087-85 17-9.339 4.421-19.082 8.614-26 16.5 1.281.376 1.408.94 2 1.5-1.397 2.437-4.376.492-6 0 8.408-3.989-2.815-7.914-4-14.5-6.061-33.688 77.371-54.526 101.5-56.5 39.136-3.201 110.815 13.417 116.5 60"/><path fill="#9dc2d0" d="M347 794c-2.801 2.175-4.489 4.661-7 7-2.321 2.162-2.641 3.732-4.5 6-18.552-4.428-40.914-10.101-60-8-2.909.32-4.925 4.044-6 4-1.925-.079-24.378-23.659-27.5-27 1.153-1.588 3.785-2.745 5.5-3 7.877-1.171 89.604 13.251 96 17 1.043.612 2.886 2.804 3.5 4"/><path fill="#e0d9d5" d="M514 804c-.064 1.882 1.742 5.572-.5 7-1.84 1.172-25.971 3.62-31 5-8.588 2.357-22.489 7.397-30 12-5.833 3.574-18.681 18.597-20 19-2.406.736-17.682-5.172-21.5-5.5l18-20.5c27.276-12.913 54.813-17.969 85-17"/><path fill="#b9b1ad" d="m580 815-52-4.5 22.5 41.5 66.5-12c.36.526.839 1.348 1 2-61.048 17.238-145.194 23.537-206.5 5-11.742-3.551-2.227-4.998-2.5-6.5-.794-1.987-3.793-1.304-4-1.5-.592-.56-.719-1.124-2-1.5 6.918-7.886 16.661-12.079 26-16.5l-18 20.5c3.818.328 19.094 6.236 21.5 5.5 1.319-.403 14.167-15.426 20-19 7.511-4.603 21.412-9.643 30-12 5.029-1.38 29.16-3.828 31-5 2.242-1.428.436-5.118.5-7 21.613.694 45.274 5.037 66 11"/><path fill="#7aa3b3" d="M451 880c-6.632 11.005 8.267 15.271 4 22-70.245-10.052-134.377-41.103-190-84 .162-2.214 9.74-10.997 10.5-11 2.22-.008 29.85 22.334 36 26 42.077 25.083 90.561 41.937 139.5 47"/><path fill="#a49e9a" d="M580 815c9.422 2.711 15.16 4.731 24 9 4.835 5.259 8.937 10.058 13 16l-66.5 12-22.5-41.5z"/><path fill="#8a817e" d="M613 828c4.881 2.879 9.693 6.263 13 11-2.431.754-5.257 2.225-8 3-.161-.652-.64-1.474-1-2-4.063-5.942-8.165-10.741-13-16 2.929 1.415 6.13 2.307 9 4"/><path fill="#9dc3d1" d="M674 830c-12.577 13.92-39.925 21.532-58.5 26-30.324 7.295-62.335 10.092-93.5 11-12.603.367-24.368.735-37 0-35.112-2.043-86.926-9.714-118.5-25-5.346-2.588-13.01-7.031-16.5-12 71.64 41.415 252.406 41.942 324 0"/><path fill="#7aa3b3" d="M522 867c-2.774 19.108-26.623 15.239-41 15l4-15c12.632.735 24.397.367 37 0"/></svg>