<svg xmlns="http://www.w3.org/2000/svg" width="1024" height="1024"><defs><linearGradient id="a" x1="795.008" x2="238.171" y1="197.597" y2="211.06" gradientUnits="userSpaceOnUse"><stop offset="0%" style="stop-color:#345a7e"/><stop offset="100%" style="stop-color:#629cb9"/></linearGradient></defs><defs><linearGradient id="b" x1="192.313" x2="798.304" y1="420.141" y2="541.382" gradientUnits="userSpaceOnUse"><stop offset="0%" style="stop-color:#dfedf4"/><stop offset="69.418%" style="stop-color:#b4ced8"/><stop offset="100%" style="stop-color:#88aab5"/></linearGradient></defs><defs><linearGradient id="c" x1="894.19" x2="861.883" y1="479.741" y2="609.788" gradientUnits="userSpaceOnUse"><stop offset="0%" style="stop-color:#04405a"/><stop offset="100%" style="stop-color:#2189ac"/></linearGradient></defs><defs><linearGradient id="d" x1="146.44" x2="166.048" y1="533.522" y2="642.776" gradientUnits="userSpaceOnUse"><stop offset="0%" style="stop-color:#035c7b"/><stop offset="100%" style="stop-color:#2796ba"/></linearGradient></defs><defs><linearGradient id="e" x1="790.421" x2="437.223" y1="640.038" y2="714.682" gradientUnits="userSpaceOnUse"><stop offset="0%" style="stop-color:#547b87"/><stop offset="100%" style="stop-color:#759caa"/></linearGradient></defs><defs><linearGradient id="f" x1="710.789" x2="341.892" y1="870.15" y2="878.881" gradientUnits="userSpaceOnUse"><stop offset="0%" style="stop-color:#335a80"/><stop offset="90.244%" style="stop-color:#75a9c2"/></linearGradient></defs><path fill="#244b66" d="M816 303c-2.277.073-3.755-2.952-4-3-2.444-18.765-15.42-38.859-26-54.5-34.318-50.737-95.763-104.437-155-122.5-89.665-33.112-205.265-32.264-289.5 16-39.212 22.467-81.441 61.62-107.5 98.5-7.041 9.965-33.143 49.278-28 59.5.343.682.858 1.255 1 2-.253-.032-3.877 1.059-5 1-.036-.268-2.948-3.792-3-4.5-1.4-19.031 32.3-64.49 45-80 142.998-174.637 408.047-165.7 540 17 16.596 22.978 29.641 42.635 32 70.5"/><path fill="#8dcce7" d="M631 123c-83.651-25.508-167.483-20.521-247 17-8.306 3.919-15.989 8.595-24 13-31.51 17.326-62.932 36.452-86.5 64 .789-3.567-3.574-5.107-3.5-6.5.168-3.184 31.391-34.453 36-39-45.135 30.603-69.351 82.106-100 125.5-5.143-10.222 20.959-49.535 28-59.5 26.059-36.88 68.288-76.033 107.5-98.5 84.235-48.264 199.835-49.112 289.5-16"/><path fill="url(#a)" d="M631 123c59.237 18.063 120.682 71.763 155 122.5 10.58 15.641 23.556 35.735 26 54.5-5.448-1.069-21.218-.394-25.5-2-1.897-.711-21.263-26.981-25.5-31.5-136.752-145.842-365.334-151.953-503-4-18.264 19.628-20.251 40.445-51 36.5-.142-.745-.657-1.318-1-2 30.649-43.394 54.865-94.897 100-125.5-4.609 4.547-35.832 35.816-36 39-.074 1.393 4.289 2.933 3.5 6.5 23.568-27.548 54.99-46.674 86.5-64-4.058 23.25 16.392-4.926 17.5 21 .953-2.134.748-13.441 1.5-14.5.883-1.244 4.78.012 5.5-.5 1.351-.96-.128-6.096.5-7.5 2.192-4.904 10.502 3.144-1-11.5 79.517-37.521 163.349-42.508 247-17m-283.5 42c-4.399 6.592-3.91 14.073 5 14 2.908-6.463 3.563-14.535-5-14" style="fill:url(#a)"/>/&gt;<path fill="#6aa4c1" d="M360 153c8.011-4.405 15.694-9.081 24-13 11.502 14.644 3.192 6.596 1 11.5-.628 1.404.851 6.54-.5 7.5-.72.512-4.617-.744-5.5.5-.752 1.059-.547 12.366-1.5 14.5-1.108-25.926-21.558 2.25-17.5-21"/><path fill="#01314d" d="M812 300c.245.048 1.723 3.073 4 3 1.021 12.061 12.329 30.45 17 43.5 6.976 19.488 17.002 46.211 19 66.5-1.556.49-2.37 2.788-4.5 2-5.593-2.068-21.948-47.256-30.5-53-35.043-86.544-155.85-173.295-246-191-168.977-33.187-305.299 59.445-383 203.5-5.984 11.095-10.529 25.959-16 36-.655 1.201-4.179 4.649-6 4.5-.001-.965-1.085-1.095-1-2 2.61-11.072 3.744-22.41 7-33.5 3.524-12.003 30.569-75.29 30-79.5 1.123.059 4.747-1.032 5-1 30.749 3.945 32.736-16.872 51-36.5 137.666-147.953 366.248-141.842 503 4 4.237 4.519 23.603 30.789 25.5 31.5 4.282 1.606 20.052.931 25.5 2m-24.5 4 51 78-28.5-74.5zm-580 1c-4.088 1.068-29.037 69.573-30 79l48.5-77.5c-2.7-.423-17.602-1.735-18.5-1.5"/><path fill="#f6f9fb" d="M571 171c-5.177 6.056-13.09.191-19.5 0-129.188-3.847-272.877 91.802-340.5 197.5-8.879 13.878-21.576 45.672-29 55-5.209 6.546-11.337-6.746-13 1.5-1.406-.643-3.541-.723-5-1-.078-3.231 2.003-5.704 2-9 1.821.149 5.345-3.299 6-4.5 5.471-10.041 10.016-24.905 16-36C265.701 230.445 402.023 137.813 571 171"/><path fill="#6da7c5" d="M347.5 165c8.563-.535 7.908 7.537 5 14-8.91.073-9.399-7.408-5-14"/><path fill="url(#b)" d="M571 171c90.15 17.705 210.957 104.456 246 191 10.456 25.824 10.668 58.469 11 86-4.303 8.331-7.802 20.928-11 30-1.399.221-.767-2-1.5-2s-.101 2.221-1.5 2c-1.539-16.996-27.58-21.749-38-8.5-17.087 21.725 11.337 49.55 33 32.5-3.395 11.041-4.649 25.026-8 36l-5 1.5 4 1.5c-1.001 3.139-1.85 5.898-3 9-13.372 36.084-45.094 81.974-71 110.5-89.578 98.635-222.94 142.875-355 127.5-61.904-22.773-115.802-58.738-158-110 1.381-1.38 6.961-2.555 10-6.5 9.615-12.484 6.606-33.898 6-48.5-.949-22.873-4.237-43.566-8-66-.478-2.852-.477-6.121-1-9l11-9.5-14-4.5c-.829-4.014-2.084-8.001-3-12-1.456-6.355-2.324-13.916-4-20 20.525 16.811 48.915-5.8 36-29.5-8.817-16.18-38.048-13.426-39.5 6.5 10.076-23.721 43.954-15.544 39.5 10.5-2.712 15.859-26.766 20.114-37 8.5-2.202-7.615-6.074-18.526-9-26-5.29-13.512-17.376-40.771-31-47 1.663-8.246 7.791 5.046 13-1.5 7.424-9.328 20.121-41.122 29-55C278.623 262.802 422.312 167.153 551.5 171c6.41.191 14.323 6.056 19.5 0M265 509c10.263 72.246 51.971 135.871 113 175 11.074 7.1 20.794 12.744 33 18 2.673 5.367 13.602 9.562 19.5 12 69.498 28.73 145.12 22.308 210.5-13 103.31-55.791 141.37-171.278 113-283-26.766-105.405-125.818-183.968-234.5-188-152.719-5.665-276.148 126.614-254.5 279m-50-32c-2.438 3.486-4.392 5.249-3 10.5.483 1.823 6.592 11 9 5.5 4.249 4.271 4.198 5.901 10 4-.33 1.702 4.305 1.123 4.5 1 5.83-3.696 8.092-14.9 5-21-2.964 1.929-.396 3.054-.5 4h-2c-.861-10.726-15.676-14.474-23-4" style="fill:url(#b)"/>/&gt;<path fill="#5d899d" d="m754 418-2.5-3-3.5 3c-.302-1.063-.733-2.097-1-3-10.74-36.32-31.178-72.377-58-99-22.463-25.136-52.611-46.191-84-59-165.44-67.513-344.121 57.241-337 235-4.124 3.195 3.736 18.653-3 17-21.648-152.386 101.781-284.665 254.5-279 108.682 4.032 207.734 82.595 234.5 188"/><path fill="#a4d0e8" d="M605 257c-.969 9.041-7.309 12.206-1 19-35.696-10.662-72.006-23.344-110-18-2.265-.142-4.728-.089-7 0-9.021.353-21.171 3.539-30 6-85.18 17.948-151.598 90.147-167 175-3.817 21.029-4.915 39.624-3 61 1.287 14.362 4.108 27.49 9 41 20.114 65.221 65.368 114.334 128.5 140 154.257 62.711 327.702-54.849 312.5-223 .235 1.839 2.692 9.205 3 13.5.374 5.228-2 23.717-1 26 .191.435 7.767-.999 9 2.5-20.055 156.747-183.064 241.727-328 189-6.442-2.344-35.46-17.278-37.5-17-1.616.22-4.815 6.002-4.5 8-65.286-41.839-106.853-109.443-110-188-7.121-177.759 171.56-302.513 337-235"/><path fill="#022a42" d="M604 276c4.146 4.465 20.156 10.034 26.5 14 64.071 40.052 96.95 93.159 106.5 168 15.202 168.151-158.243 285.711-312.5 223-63.132-25.666-108.386-74.779-128.5-140 4.218 11.649 10.492 22.988 16 34 3.32 15.772 39.504 56.794 52.5 68 34.86 30.058 96.741 51.273 142.5 52 9.58.152 30.12-.713 39-3 95.902-12.696 185.201-102.848 190-200.5 6.188-125.924-107.093-241.895-234-229.5 2.648-3.523-4.973-3.81-8-4 37.994-5.344 74.304 7.338 110 18"/><path fill="#8abbd8" d="M689 316c31.406 35.143 58.364 86.233 61 134 .9 16.31.073 33.799-2 50-1.233-3.499-8.809-2.065-9-2.5-1-2.283 1.374-20.772 1-26-.308-4.295-2.765-11.661-3-13.5-9.55-74.841-42.429-127.948-106.5-168-6.344-3.966-22.354-9.535-26.5-14-6.309-6.794.031-9.959 1-19 31.389 12.809 61.537 33.864 84 59"/><path fill="#024666" d="M487 258c-7.417 5.156-21.018 4.107-30 6 8.829-2.461 20.979-5.647 30-6"/><path fill="#2586a5" d="M494 258c3.027.19 10.648.477 8 4-7.313.714-30.804 4.183-36.5 7-3.809 1.883-2.031 1.821-1.5 5-25.535 4.844-50.773 18.468-72 33-26.567 18.187-43.457 36.098-61 63-30.515 46.794-43.853 93.438-35 150 .648 4.137 1.981 8.878 3 13 1.206 4.878 3.321 11.171 5 16 2.371 6.818 6.169 13.37 9 20-3.206-.651-1.517 3.543-1 6-5.508-11.012-11.782-22.351-16-34-4.892-13.51-7.713-26.638-9-41l3-61c15.402-84.853 81.82-157.052 167-175 8.982-1.893 22.583-.844 30-6 2.272-.089 4.735-.142 7 0"/><path fill="#016a97" d="M546 692c.1-.026-.37-1.731.5-2 1.56-.482 9.691-.375 10.5-1.5l10-38.5c19.285-5.493 40.379-15.85 57-27 3.258-2.186 5.944-4.649 9-7 1.368-1.052 2.601-1.859 4-3 88.438-72.093 98.982-173.498 21-258-2.627-2.847-5.325-5.279-8-8a319 319 0 0 0-5-5c-51.532-50.204-105.791-82.266-181-68-.531-3.179-2.309-3.117 1.5-5 5.696-2.817 29.187-6.286 36.5-7 126.907-12.395 240.188 103.576 234 229.5-4.799 97.652-94.098 187.804-190 200.5"/><path fill="#27b3d5" d="m645 342-11 33c-22.403-14.845-42.84-17.674-69-13 1.826-.991 5.175-12.78 5-13.5-.69-2.841-45.583-25.205-51.5-27.5-28.513-11.061-55.92-14.317-86.5-13 17.988-9.582 38.62-18.351 58.5-23 5.699-1.333 15.778-.81 19-4-38.551-2.053-79.071 13.413-110.5 35l-7-9c21.227-14.532 46.465-28.156 72-33 75.209-14.266 129.468 17.796 181 68"/><path fill="#fafefe" d="M432 308c-63.615 33.888-110.789 87.295-111 162-.069 24.527 2.669 51.065 8 75 .583 2.62 1.322 5.386 2 8 1.545 5.96 4.018 11.288 6 17 2.567 7.397 4.013 15.08 9 21.5-1.742 4.425-26.475-41.64-28-44.5-.825-1.548-.351-3.548-3-8-.176-6.996-3.563-13.317-5-20-10.546-49.032 4.357-101.535 31-143 13.918-21.661 36.746-45.401 58-60 31.429-21.587 71.949-37.053 110.5-35-3.222 3.19-13.301 2.667-19 4-19.88 4.649-40.512 13.418-58.5 23"/><path fill="#264766" d="m787.5 304 22.5 3.5 28.5 74.5z"/><path fill="#81c4da" d="M207.5 305c.898-.235 15.8 1.077 18.5 1.5L177.5 384c.963-9.427 25.912-77.932 30-79"/><path fill="#7addf0" d="M399 316c-21.254 14.599-44.082 38.339-58 60l-10-6c17.543-26.902 34.433-44.813 61-63z"/><path fill="#78dcef" d="M432 308c30.58-1.317 57.987 1.939 86.5 13 5.917 2.295 50.81 24.659 51.5 27.5.175.72-3.174 12.509-5 13.5-24.256 4.334-43.805 29.959-53.5 52-5.382-7.49-9.049-15.504-14.5-23-54.563-75.034-180.045-10.154-136 95 1.407 3.358 3.315 6.76 5 10-16.322-5.052-26.706-24.868-45-26 .211-74.705 47.385-128.112 111-162"/><path fill="#d2e4e9" d="m747 415 5 37c-.302-.449-1.407-1.878-2-2-2.636-47.767-29.594-98.857-61-134 26.822 26.623 47.26 62.68 58 99"/><path fill="#048bb7" d="m650 347-11 31c-1.156-.908-3.48-1.993-5-3l11-33a319 319 0 0 1 5 5"/><path fill="#26b3d5" d="M658 355c-8.193 3.782-9.662 20.947-14 25.5-1.113 1.169-2.387-2.846-3-.5-.827-.717-1.722-1.782-2-2l11-31c2.675 2.721 5.373 5.153 8 8"/><path fill="#048bb7" d="M637 613c-1.807.895-2.936-3.95-3-4.5-2.251-19.245 6.617-51.49 0-68-.187-.468-2.78-4.026-4-3.5 38.365-43.535 62.088-112.705 11-157 .613-2.346 1.887 1.669 3 .5 4.338-4.553 5.807-21.718 14-25.5 77.982 84.502 67.438 185.907-21 258"/><path fill="#77e8f6" d="M634 375c1.52 1.007 3.844 2.092 5 3 .278.218 1.173 1.283 2 2 51.088 44.295 27.365 113.465-11 157-2.863 3.249-7.713 7.733-11 11-1.619 1.609-3.37 3.471-5 5-13.846 12.989-84.176 64.918-99.5 67-13.792 1.874-46.466-22.151-59-31-34.925-24.657-69.484-54.513-89.5-93-1.685-3.24-3.593-6.642-5-10l4-1c1.412 3.204 3.254 7.763 6 10 8.073 22.12 42.506 53.879 61 69 13.54 11.07 55.031 42.289 69.5 48 4.501 1.776 9.165 2.929 14 2 2.467-.474 38.084-22.748 43-26 11.219-7.421 22.309-16.195 32.5-25 17.923-10.955 40.962-35.15 52-53 48.274-57.643 16.928-155.112-66-146-30.639 3.367-51.755 27.349-65 53.5l-2-1.5c-4.765-7.516-9.263-17.27-15-24l2-1c5.451 7.496 9.118 15.51 14.5 23 9.695-22.041 29.244-47.666 53.5-52 26.16-4.674 46.597-1.845 69 13"/><path fill="#bff7fc" d="m497 391-2 1c-6.029-7.073-18.587-17.004-27-21-12.034-5.715-20.623-7.226-34-7-23.981.406-44.827 10.42-60 29-6.41 7.849-9.582 13.497-13 23-9.109 25.324-6.738 44.639 4 69l-4 1c-44.045-105.154 81.437-170.034 136-95"/><path fill="#537a86" d="M852 413c.128 1.301-.718 3.732 1 4v1c-6.197 1.345-21.88 23.959-25 30-.332-27.531-.544-60.176-11-86 8.552 5.744 24.907 50.932 30.5 53 2.13.788 2.944-1.51 4.5-2"/><path fill="#011831" d="M643 510c41.752-67.515 21.018-144.404-66-146 82.928-9.112 114.274 88.357 66 146"/><path fill="#74aec8" d="m434 364 7 1.5c-1.441 6.338-1.147 5.719 2 10.5-21.076-7.001-53.718-1.154-66 19l-3-2c15.173-18.58 36.019-28.594 60-29"/><path fill="#4e91b1" d="m468 371-7 17c-3.323-4.708-12.535-10.185-18-12-3.147-4.781-3.441-4.162-2-10.5l-7-1.5c13.377-.226 21.966 1.285 34 7"/><path fill="#08496f" d="M577 364c87.018 1.596 107.752 78.485 66 146-11.038 17.85-34.077 42.045-52 53-7.207 4.405-28.428 16.615-31.5 5-6.985.622-38.44-16.399-42-15-1.011.398-4.918 11.32-8 12-4.362.962-17.391-6.831-20-6-.439.14-3.848 5.73-6 7-5.173 3.053-10.909 4.838-16 8-2.305 1.432-6.483 7.878-7 8-1.968.463-23.366-18.201-28.5-18-18.494-15.121-52.927-46.88-61-69-.539-1.476-3.151-7.125-3-7.5.122-.302 5.174-3.499 5.5-3.5 3.705-.01 11.755 23.68 18 23 .717-.078 8.823-7.023 12-8 5.876-1.807 13.075-.126 19-3l-3.5 4.5c16.816 1.987 21.567-13.47 30.5-21.5 11.032-9.918 26.777-15.374 38.5-28.5 9.506-10.644 13.622-23.407 22-34.5l2 1.5c13.245-26.151 34.361-50.133 65-53.5m-63.5 53c.347 25.322-18.891 45.144-38 59-6.74 4.888-37.811 20.51-40 23-.552.628-3.135 8.364-2 9 26.981-10.358 81.987-52.646 82.5-83.5.026-1.568-.428-7.017-2.5-7.5m120 2 .5 30.5c-3.096 48.26-47.405 78.893-68 113-9.398 15.564 21.466-6.168 24.5-8.5 23.835-18.323 54.929-57.304 59.5-87.5 2.434-16.079 1.558-40.824-16.5-47.5m-229 84c-12.771 1.341-14.54 8.953-5 17-.143-5.231 5.001-12.67 9.5-16.5-.636-.802-3.376-.618-4.5-.5"/><path fill="#26b3d5" d="M341 376c-26.643 41.465-41.546 93.968-31 143l-14 1c-8.853-56.562 4.485-103.206 35-150z"/><path fill="#1e6d95" d="M495 392c5.737 6.73 10.235 16.484 15 24-8.378 11.093-12.494 23.856-22 34.5-11.723 13.126-27.468 18.582-38.5 28.5-8.933 8.03-13.684 23.487-30.5 21.5l3.5-4.5c-5.925 2.874-13.124 1.193-19 3-3.177.977-11.283 7.922-12 8-6.245.68-14.295-23.01-18-23-.326.001-5.378 3.198-5.5 3.5-.151.375 2.461 6.024 3 7.5-2.746-2.237-4.588-6.796-6-10-10.738-24.361-13.109-43.676-4-69 3.609 5.257-.757 31.487 3 35.5 3.773 4.03 5.021-7.948 10 7.5.637 1.975.469 7.843 3 6.5l2.5-31.5c28.047 35.081 109.955-5.682 81.5-46l7-17c8.413 3.996 20.971 13.927 27 21"/><path fill="#fdfefe" d="M443 376c5.465 1.815 14.677 7.292 18 12 28.455 40.318-53.453 81.081-81.5 46l-2.5 31.5c-2.531 1.343-2.363-4.525-3-6.5-1.328-10.65 1.351-22.009 1-32.5-.41-12.256-8.022-15.054 2-31.5 12.282-20.154 44.924-26.001 66-19"/><path fill="#4e91b1" d="M377 395c-10.022 16.446-2.41 19.244-2 31.5.351 10.491-2.328 21.85-1 32.5-4.979-15.448-6.227-3.47-10-7.5-3.757-4.013.609-30.243-3-35.5 3.418-9.503 6.59-15.151 13-23z"/><path fill="#98bbc8" d="M166 415c.003 3.296-2.078 5.769-2 9-1.683-.32-2.289-1.082-5-1 4.632-.861 4.968-5.623 6-10-.085.905.999 1.035 1 2"/><path fill="#2f5668" d="M748 418c3.045 10.726 6.471 23.9 5 35-.273-1.362-.96-.941-1-1l-5-37c.267.903.698 1.937 1 3"/><path fill="#5b8390" d="M754 418c28.37 111.722-9.69 227.209-113 283l-5.5-12c-70.101 41.932-149.772 45.177-224.5 13-12.206-5.256-21.926-10.9-33-18l2-2c11.037 6.841 22.977 13.072 35 18 158.902 65.127 334.326-45.739 339-217.5.178-6.547.153-23.759-1-29.5 1.471-11.1-1.955-24.274-5-35l3.5-3z"/><path fill="#041f35" d="M815 679c4.16-.952 8.159-.148 11.5-1 .991-.253.25-2.768.5-3 .345-.321 2.366 2.31 2-.5-.075-.578-5.294-7.881-6-10-6.279-18.831-8.159-40.617-8-60.5.084-10.504 4.161-22.311 4-33 3.331-11.037 4.397-22.813 7-34 .054-.231.684-1.688 1-3 4.324-17.981 10.537-41.259 18-58 3.231-7.248 11.305-21.708 16-28 5.772-7.735 12.811-14.38 21-19.5-8.596-2.513-16.939-7.143-26-6.5 1.014-1.516 2.574-.784 2-3.5-.835.041-4.754-.553-5-.5v-1c9.045-3.917 16.736 2.848 24.5 5 21.819 6.047 31.203 3.779 38.5 29.5 12.353 43.543-10.683 225.618-65.5 233.5-10.398 1.495-12.597-3.876-18-5-5.392-1.122-12.033 1.414-17.5-1m44-223c-13.911 21.837-22.804 50.986-29 76-4.621 7.808-7.773 34.98-9 45-1.775 14.5-3.419 27.205-3 42 .53 18.741 4.848 65.638 32.5 61 4.888-.82 10.468-6.293 13.5-10 39.689-50.899 58.814-137.321 50-201-2.475-17.878-5.605-41.159-29.5-37-10.138 1.765-20.291 15.823-25.5 24"/><path fill="#1e6d95" d="M513.5 417c2.072.483 2.526 5.932 2.5 7.5-.513 30.854-55.519 73.142-82.5 83.5-1.135-.636 1.448-8.372 2-9 2.189-2.49 33.26-18.112 40-23 19.109-13.856 38.347-33.678 38-59"/><path fill="#023b57" d="M853 418c.246-.053 4.165.541 5 .5.574 2.716-.986 1.984-2 3.5-3.83 5.725-11.041 11.237-16 19-5.133 8.035-8.266 16.316-12 25-.565 1.313-1.381 2.461-2 4-5.341.581-5.442 22.835-11 14 .662-1.995 1.3-4.016 2-6 3.198-9.072 6.697-21.669 11-30 3.12-6.041 18.803-28.655 25-30"/><path fill="#33b7ce" d="M633.5 419c18.058 6.676 18.934 31.421 16.5 47.5-4.571 30.196-35.665 69.177-59.5 87.5-3.034 2.332-33.898 24.064-24.5 8.5 20.595-34.107 64.904-64.74 68-113z"/><path fill="#55878f" d="M861 448c-5.097-4.652-14.248-5.133-21-7 4.959-7.763 12.17-13.275 16-19 9.061-.643 17.404 3.987 26 6.5-8.189 5.12-15.228 11.765-21 19.5"/><path fill="#032138" d="M159 423c2.711-.082 3.317.68 5 1 1.459.277 3.594.357 5 1 13.624 6.229 25.71 33.488 31 47l-5 2c-.717-1.883-1.238-4.144-2-6-.66-1.608-1.31-3.445-2-5-3.877-8.733-14.344-29.504-24-32-7.696-1.989-14.951 1.295-22.5 3l-1.5 1.5c.879.481 3.617 1.903 4 2.5 7.08 11.027 18.15 19.98 21 33-3.793-7.057-8.085-14.424-14-20-25.685-30.716-43.141-6.296-47 23.5-6.012 46.419 7.503 117.582 26 160.5 5.554 12.887 22.612 48.399 37.5 51 36.388 6.358 32.993-65.243 31.5-86-.241-3.349-.65-6.663-1-10-.426-4.063-1.434-8.019-2-12l2-1c1.446 10.027 2.412 18.845 3 29 .232 4.001.95 7.83 1 12 .257 21.529-1.597 39.874-9.5 60 33.284-.553 31.203-28.841 30.5-54-.009-.333.012-.667 0-1h3c.606 14.602 3.615 36.016-6 48.5-3.039 3.945-8.619 5.12-10 6.5-3.552 3.552.125 3.253 0 7-1.208-1.154-3.971-4.868-4.5-5-.885-.22-16.46 2.546-18 3-5.302 1.562-7.445 8.066-18 7-30.523-3.083-56.976-85.784-62.5-111.5-6.571-30.589-19.523-123.994 9.5-143.5 5.027-3.379 33.37-11.816 39.5-12"/><path fill="#eff4f6" d="M167 431c-3.621 4.839-14.196 4.917-20 7-.383-.597-3.121-2.019-4-2.5l1.5-1.5c7.549-1.705 14.804-4.989 22.5-3"/><path fill="#1c5f6c" d="M191 463c-5.308 4.257-20.356-.167-20 9.5.018.494 2.901 4.198 3 4.5 5.837 17.745 12.246 34.835 17 53 2.059 7.869 4.367 16.053 6 24 .39 1.898.628 4.043 1 6 .448 2.36.604 4.701 1 7 .576 3.345 1.502 6.546 2 10l-2 1c-2.204-15.509-5.065-30.863-9-46-4.389-16.882-9.909-33.132-17-49-1.697-3.799-3.049-8.37-5-12-2.85-13.02-13.92-21.973-21-33 5.804-2.083 16.379-2.161 20-7 9.656 2.496 20.123 23.267 24 32"/><path fill="#7daabf" d="M914 469c-5.871 2.153.002 15.961-8 15-1.164-7.127-2.661-12.571-6-19-11.224-21.613-29.074 5.491-35 18l-13-8c2.44-5.461 5.49-10.254 8-15.5.213-.444 1.609-4.362-1-3.5 5.209-8.177 15.362-22.235 25.5-24 23.895-4.159 27.025 19.122 29.5 37"/><path fill="#72d7ea" d="M154 451c-27.136-25.578-43.191 1.24-40.5 28 1.668.06 4.3-12.573 8.5-11-24.255 23.49 4.004 135.17 19 164-4.045-.883-5.519-.747-8 3-18.497-42.918-32.012-114.081-26-160.5 3.859-29.796 21.315-54.216 47-23.5"/><path fill="#034d73" d="M287 500c-1.915-21.376-.817-39.971 3-61z"/><path fill="#7eacc0" d="M154 451c5.915 5.576 10.207 12.943 14 20 1.951 3.63 3.303 8.201 5 12l-16 6c-6.734-12.517-15.04-31.128-32.5-26-.357.105-4.32 3.414-.5 3-.124.068-1.52 1.535-2 2-4.2-1.573-6.832 11.06-8.5 11-2.691-26.76 13.364-53.578 40.5-28"/><path fill="#3a97a6" d="M861 448c-4.695 6.292-12.769 20.752-16 28-5.027.833-4.35-2.726-7.5-4-4.322-1.748-10.375 2.358-9.5-6 3.734-8.684 6.867-16.965 12-25 6.752 1.867 15.903 2.348 21 7"/><path fill="#7699a8" d="M752 452c.04.059.727-.362 1 1 1.153 5.741 1.178 22.953 1 29.5-4.674 171.761-180.098 282.627-339 217.5 3.973-1.59 4.715-6.725 5-11 144.936 52.727 307.945-32.253 328-189 2.073-16.201 2.9-33.69 2-50 .593.122 1.698 1.551 2 2"/><path fill="#a3ebf2" d="M852 475c-4.992 11.171-8.56 20.034-12 32-2.095 7.29-3.351 14.624-5 22-1.988-.041-4.064 1.418-5 3 6.196-25.014 15.089-54.163 29-76 2.609-.862 1.213 3.056 1 3.5-2.51 5.246-5.56 10.039-8 15.5"/><path fill="#b6e6ed" d="M900 465c-16.457-16.503-29.749 12.582-37 25 .688-1.569 1.105-5.11 2-7 5.926-12.509 23.776-39.613 35-18"/><path fill="#001c31" d="M900 465c3.339 6.429 4.836 11.873 6 19 6.943 42.527-6.643 117.708-31 154-29.841 44.464-37.215-.297-37-29 .081-10.745 1.771-21.378 3-32 2.77-23.947 7.466-44.87 14-68 3.609-2.75 5.979-14.392 8-19 7.251-12.418 20.543-41.503 37-25m-9.5 1c-8.764.757-18.186 20.31-21.5 27.5-15.983 34.678-31.19 104.546-26 142 3.509 25.322 20.471 16.696 31 1 20.856-31.09 34.429-107.03 31-144-.777-8.376-2.836-27.508-14.5-26.5"/><path fill="#85dfec" d="M157 489c18.138 33.714 24.652 70.25 26 107-4.452-31.118-10.909-66.377-23-95.5-4.753-11.449-20.604-42.881-36-34.5-3.82.414.143-2.895.5-3 17.46-5.128 25.766 13.483 32.5 26"/><path fill="#072135" d="M210 502c-.355-1.29-.786-3.258-1-4 10.234 11.614 34.288 7.359 37-8.5 4.454-26.044-29.424-34.221-39.5-10.5 1.452-19.926 30.683-22.68 39.5-6.5 12.915 23.7-15.475 46.311-36 29.5"/><path fill="#021c2e" d="M814 478c.063.7.635 5.229-1 4.5.031-18.18-27.036-24.278-36-9-13.17 22.449 17.208 41.727 34 23.5-.562 1.861-1.468 3.269-2 5-21.663 17.05-50.087-10.775-33-32.5 10.42-13.249 36.461-8.496 38 8.5"/><path fill="#1c8194" d="M191 463c.69 1.555 1.34 3.392 2 5l-19 9c-.099-.302-2.982-4.006-3-4.5-.356-9.667 14.692-5.243 20-9.5"/><path fill="#002035" d="M183 596c.073 1.985-.03 4.012 0 6 .2 13.453 4.863 61.116-17.5 58-9.211-1.284-20.39-20.099-24.5-28-14.996-28.83-43.255-140.51-19-164 .48-.465 1.876-1.932 2-2 15.396-8.381 31.247 23.051 36 34.5 12.091 29.123 18.548 64.382 23 95.5m-58-122c-10.952 10.15-8.284 41.664-7 56 1.268 14.165 5.003 29.105 8 43 4.459 20.673 11.918 56.049 25 72.5 7.464 9.385 20.456 15.976 26 1 10.119-27.335-11.994-133.434-28-159.5-5.348-8.709-12.518-23.642-24-13"/><path fill="#4cafc2" d="M814 478c1.399.221.767-2 1.5-2s.101 2.221 1.5 2c-.7 1.984-1.338 4.005-2 6-1.415 4.267-2.694 8.67-4 13-16.792 18.227-47.17-1.051-34-23.5 8.964-15.278 36.031-9.18 36 9 1.635.729 1.063-3.8 1-4.5m-29.5-7c-8.32 6.06-9.255 21.566 0 27 2.256 1.325 10.352 3.318 8.5-.5-1.028-2.12-14.832-1.81-12-19 .26-1.576 5.471-6.215 3.5-7.5m23 11-11 15c4.107 1.428 17.586-14.655 11-15"/><path fill="#6de5f6" d="M845 476c-7.463 16.741-13.676 40.019-18 58-3.866 1.696-13.299 4.634-16.5 0-2.208-3.197 2.129-7.401-.5-10 4.574-19.573 8.449-35.238 16-54 .619-1.539 1.435-2.687 2-4-.875 8.358 5.178 4.252 9.5 6 3.15 1.274 2.473 4.833 7.5 4"/><path fill="url(#c)" d="M890.5 466c11.664-1.008 13.723 18.124 14.5 26.5 3.429 36.97-10.144 112.91-31 144-10.529 15.696-27.491 24.322-31-1-5.19-37.454 10.017-107.322 26-142 3.314-7.19 12.736-26.743 21.5-27.5m-13 51c-.982.075-8.311 6.747-8.5 7.5l3.5 64.5c8.22 1.448 10.852-34.017 10.5-39.5-.036-.556-3.883-3.339-4-4-.589-3.311 5.601-20.267 3-26-1.519-1.547-1.974-2.692-4.5-2.5m-3 74-28 51c1.805.194 1.341 1.155 3.5.5 4.889-1.484 27.007-42.405 27-48-.002-1.769-.244-3.609-2.5-3.5" style="fill:url(#c)"/>/&gt;<path fill="#68e7f8" d="M193 468c.762 1.856 1.283 4.117 2 6 5.293 13.905 10.232 30.558 14 45 1.35 5.173 2.808 10.825 4 16-11.832 10.632-12.967 2.293-22-5-4.754-18.165-11.163-35.255-17-53z"/><path fill="#5ee4f4" d="M864 670c6.533-7.989 9.124-19.665 12-29.5.321-1.097 2.198-1.417 3-2l-4-.5c24.357-36.292 37.943-111.473 31-154 8.002.961 2.129-12.847 8-15 8.814 63.679-10.311 150.101-50 201"/><path fill="#91daec" d="m149 487-14.5-14c-1.178.222-3.084-.327-4 0-9.755 3.483-5.682 86.923-4.5 100-2.997-13.895-6.732-28.835-8-43l7-56c11.482-10.642 18.652 4.291 24 13"/><path fill="#26b3d5" d="M366 496c20.016 38.487 54.575 68.343 89.5 93 12.534 8.849 45.208 32.874 59 31 15.324-2.082 85.654-54.011 99.5-67 16.474 19.004.957 47.711 10 70-16.621 11.15-37.715 21.507-57 27-14.428 4.109-32.033 7.387-47 8-68.171 2.79-143.984-28.285-174.5-92-2.671-1.618-6.476 1.504-8.5 4-1.982-5.712-4.455-11.04-6-17l9-1.5c-2.432-6.177-3.414-9.885-11-6.5-5.331-23.935-8.069-50.473-8-75 18.294 1.132 28.678 20.948 45 26"/><path fill="#0e5168" d="M826 470c-7.551 18.762-11.426 34.427-16 54-2.162 9.251-5.426 18.565-7 28-2.585 15.497-3.93 34.16-5 50-1.07 15.839-6.132 53.836 4 66-4.976-2.049-1.151 1.86-5 2-15.568-23.235 1.03-91.934 0-120 1.15-3.102 1.999-5.861 3-9 .322-1.009.678-1.946 1-3 3.351-10.974 4.605-24.959 8-36 .532-1.731 1.438-3.139 2-5 1.306-4.33 2.585-8.733 4-13 5.558 8.835 5.659-13.419 11-14"/><path fill="#2eb7d6" d="M238 481c1.066 13.285-8.765 3.74-15 0-2.522-1.513-4.887-3.663-8-4 7.324-10.474 22.139-6.726 23 4"/><path fill="#0b6081" d="M784.5 471c1.971 1.285-3.24 5.924-3.5 7.5-2.832 17.19 10.972 16.88 12 19 1.852 3.818-6.244 1.825-8.5.5-9.255-5.434-8.32-20.94 0-27"/><path fill="#094561" d="M200 472c2.926 7.474 6.798 18.385 9 26 .214.742.645 2.71 1 4 1.676 6.084 2.544 13.645 4 20l-1.5 2c-.899-2.161-.526-7.296-3.5-5-3.768-14.442-8.707-31.095-14-45z"/><path fill="url(#d)" d="M149 487c16.006 26.066 38.119 132.165 28 159.5-5.544 14.976-18.536 8.385-26-1-13.082-16.451-20.541-51.827-25-72.5-1.182-13.077-5.255-96.517 4.5-100 .916-.327 2.822.222 4 0zm-8 8c-.51 2.365-2.274 21.404-2 22.5.479 1.918 7.679 3.461 5 10-12.321-13.731-16.448 16.167-9.5 18.5 14.104 4.736 11.799-31.962 11.5-41-.177-5.348-1.078-28.201-5-10m4.5 69c-4.93 2.242.173 19.687-2.5 24.5l8.5 1.5c-2.339-8.123 3.361-5.884 3.5-10.5.059-1.954-4.663-17.699-9.5-15.5" style="fill:url(#d)"/>/&gt;<path fill="#2295b7" d="M118 530c-1.284-14.336-3.952-45.85 7-56z"/><path fill="#5bc1d4" d="M865 483c-.895 1.89-1.312 5.431-2 7-2.021 4.608-4.391 16.25-8 19-4.846 3.691-8.531-2.627-15-2 3.44-11.966 7.008-20.829 12-32z"/><path fill="#c0f7fc" d="m223 481-9 .5c-.579.828 5.908 10.403 7 11.5-2.408 5.5-8.517-3.677-9-5.5-1.392-5.251.562-7.014 3-10.5 3.113.337 5.478 2.487 8 4"/><path fill="#1d7c9a" d="M231 497c6.775-2.219 8.346-10.035 9-16 .104-.946-2.464-2.071.5-4 3.092 6.1.83 17.304-5 21-.195.123-4.83.702-4.5-1"/><path fill="#58d8ed" d="M223 481c6.235 3.74 16.066 13.285 15 0h2c-.654 5.965-2.225 13.781-9 16-5.802 1.901-5.751.271-10-4-1.092-1.097-7.579-10.672-7-11.5z"/><path fill="#5dcde0" d="M173 483c7.091 15.868 12.611 32.118 17 49-2.649 1.184-5.641-1.256-6 2.5 7.08 4.31 4.034 13.117 5 19 .416 2.536 4.108-.592 5 1 1.069 1.907-1.018 4.746-1 5 .048.675 2.608.118 2 2-.683 2.116-8.788 5.502-9 6-1.427 3.351 1.815 13.934-1 18 .644 3.288 9.676-4.862 12.5-3.5l3.5 8c.35 3.337.759 6.651 1 10-7.851-6.201-11.056-1.083-19 2-.03-1.988.073-4.015 0-6-1.348-36.75-7.862-73.286-26-107z"/><path fill="#afeff6" d="M807.5 482c6.586.345-6.893 16.428-11 15z"/><path fill="#d3f0f8" d="M146 505c-7.845 1.25-1.233-6.825-5-10 3.922-18.201 4.823 4.652 5 10"/><path fill="#3b6377" d="M378 680c.119.076.624 1.147 2 2l-2 2c-61.029-39.129-102.737-102.754-113-175 6.736 1.653-1.124-13.805 3-17 3.147 78.557 44.714 146.161 110 188"/><path fill="#14a9cf" d="M146 505c.299 9.038 2.604 45.736-11.5 41-6.948-2.333-2.821-32.231 9.5-18.5 2.679-6.539-4.521-8.082-5-10-.274-1.096 1.49-20.135 2-22.5 3.767 3.175-2.845 11.25 5 10"/><path fill="#1e6d95" d="M404.5 503c1.124-.118 3.864-.302 4.5.5-4.499 3.83-9.643 11.269-9.5 16.5-9.54-8.047-7.771-15.659 5-17"/><path fill="#54d8ec" d="M855 509c-6.534 23.13-11.23 44.053-14 68-6.959 2.691-8.797-8.104-15-9 1.47-5.864 2.673-11.602 4-17.5.145-.644 2.859-2.36 3-3 .041-.185-3.166-1.248-3-2 .798-3.608 2.107-7.299 3-11 .188-.779 3.84-3.253 4-4 .137-.638-2.297-.171-2-1.5 1.649-7.376 2.905-14.71 5-22 6.469-.627 10.154 5.691 15 2"/><path fill="#0792b8" d="M877.5 517c2.526-.192 2.981.953 4.5 2.5 2.601 5.733-3.589 22.689-3 26 .117.661 3.964 3.444 4 4 .352 5.483-2.28 40.948-10.5 39.5l-3.5-64.5c.189-.753 7.518-7.425 8.5-7.5"/><path fill="#186c87" d="M214 522c.916 3.999 2.171 7.986 3 12 .954 4.623 2.165 9.409 3 14 .523 2.879.522 6.148 1 9h-3c-1.359-7.34-3.322-14.714-5-22-1.192-5.175-2.65-10.827-4-16 2.974-2.296 2.601 2.839 3.5 5z"/><path fill="#048bb7" d="M315 539c-1.094-1.838-2.332-6.549-3.5-7-1.515-.585-9.692 2.204-12.5 1-1.019-4.122-2.352-8.863-3-13l14-1c1.437 6.683 4.824 13.004 5 20"/><path fill="#ddf8fd" d="M827 534c-.316 1.312-.946 2.769-1 3-3.954 6.595-6.876 7.041-14 9-.358-.285-.919-2.57-2.5-2-2.015 1.968-.11 10.708-6.5 8 1.574-9.435 4.838-18.749 7-28 2.629 2.599-1.708 6.803.5 10 3.201 4.634 12.634 1.696 16.5 0"/><path fill="#eefbfb" d="M835 529c-.297 1.329 2.137.862 2 1.5-.16.747-3.812 3.221-4 4-.893 3.701-2.202 7.392-3 11-.166.752 3.041 1.815 3 2-.141.64-2.855 2.356-3 3-1.327 5.898-2.53 11.636-4 17.5-.461 1.837-.989 10.458-2 11.5l-3-2.5c1.227-10.02 4.379-37.192 9-45 .936-1.582 3.012-3.041 5-3"/><path fill="#f9fefe" d="M213 535c1.678 7.286 3.641 14.66 5 22 .92 4.968 1.219 10.035 2 15l-5.5 5c-.307-5.356-7.425-22.903-13.5-14.5-.641.887 1.514 5.064-2 4.5-.396-2.299-.552-4.64-1-7 16.778-3.011 15.32-15.145-1-6-1.633-7.947-3.941-16.131-6-24 9.033 7.293 10.168 15.632 22 5"/><path fill="#82e9f6" d="M190 532c3.935 15.137 6.796 30.491 9 46 .566 3.981 1.574 7.937 2 12l-3.5-8c-2.824-1.362-11.856 6.788-12.5 3.5 2.815-4.066-.427-14.649 1-18 .212-.498 8.317-3.884 9-6 .608-1.882-1.952-1.325-2-2-.018-.254 2.069-3.093 1-5-.892-1.592-4.584 1.536-5-1-.966-5.883 2.08-14.69-5-19 .359-3.756 3.351-1.316 6-2.5"/><path fill="#25b1d3" d="M315 539c2.649 4.452 2.175 6.452 3 8l-14 2c-1.679-4.829-3.794-11.122-5-16 2.808 1.204 10.985-1.585 12.5-1 1.168.451 2.406 5.162 3.5 7"/><path fill="#fcfdfd" d="M220 548c-.835-4.591-2.046-9.377-3-14l14 4.5z"/><path fill="#26b3d5" d="M637 613c-1.399 1.141-2.632 1.948-4 3-8.129-21.892-.602-48.139-14-68 3.287-3.267 8.137-7.751 11-11 1.22-.526 3.813 3.032 4 3.5 6.617 16.51-2.251 48.755 0 68 .064.55 1.193 5.395 3 4.5"/><path fill="#f6fcfd" d="M826 537c-2.603 11.187-3.669 22.963-7 34-.028-1.86-1.663-19.527-2-20.5-.11-.318-4.363-3.993-5-4.5 7.124-1.959 10.046-2.405 14-9"/><path fill="#eaf4f3" d="M801 538c-.322 1.054-.678 1.991-1 3l-4-1.5z"/><path fill="#048bb7" d="M331 553c-.678-2.614-1.417-5.38-2-8 7.586-3.385 8.568.323 11 6.5z"/><path fill="#c2d0d3" d="M812 546c.637.507 4.89 4.182 5 4.5.337.973 1.972 18.64 2 20.5.161 10.689-3.916 22.496-4 33-5.056-2.898-11.292-4.356-17-2 1.07-15.84 2.415-34.503 5-50 6.39 2.708 4.485-6.032 6.5-8 1.581-.57 2.142 1.715 2.5 2"/><path fill="#048bb7" d="M337 570c2.024-2.496 5.829-5.618 8.5-4 30.516 63.715 106.329 94.79 174.5 92 2.342 14.65-11.987 23.626-13 37-45.759-.727-107.64-21.942-142.5-52-12.996-11.206-49.18-52.228-52.5-68l5 3.5c-.293-3.536-2.668-6.381-4-9.5-2.831-6.63-6.629-13.182-9-20l14-2c1.525 2.86 26.258 48.925 28 44.5-4.987-6.42-6.433-14.103-9-21.5m296 46c-3.056 2.351-5.742 4.814-9 7-9.043-22.289 6.474-50.996-10-70 1.63-1.529 3.381-3.391 5-5 13.398 19.861 5.871 46.108 14 68"/><path fill="#b8dee7" d="M198 560c-.372-1.957-.61-4.102-1-6 16.32-9.145 17.778 2.989 1 6"/><path fill="url(#e)" d="M797 670c2.996 4.472 6.349 5.145 10 8.5C700.95 806.773 525.838 844.961 371 788c132.06 15.375 265.422-28.865 355-127.5 25.906-28.526 57.628-74.416 71-110.5 1.03 28.066-15.568 96.765 0 120" style="fill:url(#e)"/>/&gt;<path fill="#001f3d" d="M591 563c-10.191 8.805-21.281 17.579-32.5 25-4.916 3.252-40.533 25.526-43 26-4.835.929-9.499-.224-14-2-14.469-5.711-55.96-36.93-69.5-48 5.134-.201 26.532 18.463 28.5 18 .517-.122 4.695-6.568 7-8 5.091-3.162 10.827-4.947 16-8 2.152-1.27 5.561-6.86 6-7 2.609-.831 15.638 6.962 20 6 3.082-.68 6.989-11.602 8-12 3.56-1.399 35.015 15.622 42 15 3.072 11.615 24.293-.595 31.5-5"/><path fill="#0a4c67" d="M221 557c3.763 22.434 7.051 43.127 8 66h-3c-.15-4.333-.687-8.662-1-13-.882-12.223-3.086-25.827-5-38-.781-4.965-1.08-10.032-2-15z"/><path fill="#81a7b1" d="M220 572c1.914 12.173 4.118 25.777 5 38l-2.5-8-18.5 4c-.588-10.155-1.554-18.973-3-29-.498-3.454-1.424-6.655-2-10 3.514.564 1.359-3.613 2-4.5 6.075-8.403 13.193 9.144 13.5 14.5z"/><path fill="#2fc1de" d="M145.5 564c4.837-2.199 9.559 13.546 9.5 15.5-.139 4.616-5.839 2.377-3.5 10.5l-8.5-1.5c2.673-4.813-2.43-22.258 2.5-24.5"/><path fill="#57aac5" d="M841 577c-1.229 10.622-2.919 21.255-3 32 .157 14.041-9.316 9.158-20 10-.419-14.795 1.225-27.5 3-42l3 2.5c1.011-1.042 1.539-9.663 2-11.5 6.203.896 8.041 11.691 15 9"/><path fill="#022a42" d="M313 569c1.332 3.119 3.707 5.964 4 9.5l-5-3.5c-.517-2.457-2.206-6.651 1-6"/><path fill="#d2f5fc" d="M874.5 591c2.256-.109 2.498 1.731 2.5 3.5.007 5.595-22.111 46.516-27 48-2.159.655-1.695-.306-3.5-.5z"/><path fill="#6db4d0" d="M202 600c1.493 20.757 4.888 92.358-31.5 86-14.888-2.601-31.946-38.113-37.5-51 2.481-3.747 3.955-3.883 8-3 4.11 7.901 15.289 26.716 24.5 28 22.363 3.116 17.7-44.547 17.5-58 7.944-3.083 11.149-8.201 19-2"/><path fill="#2c6570" d="M815 604c-.159 19.883 1.721 41.669 8 60.5.706 2.119 5.925 9.422 6 10 .366 2.81-1.655.179-2 .5-8.479-.389-18.971.237-25-7-10.132-12.164-5.07-50.161-4-66 5.708-2.356 11.944-.898 17 2"/><path fill="#48838f" d="M225 610c.313 4.338.85 8.667 1 13 .012.333-.009.667 0 1-3.968.232-.818-5.845-2.5-7-.953-.654-15.613 2.197-18.5 1-.05-4.17-.768-7.999-1-12l18.5-4z"/><path fill="#6193b0" d="m875 638 4 .5c-.802.583-2.679.903-3 2-2.876 9.835-5.467 21.511-12 29.5-3.032 3.707-8.612 9.18-13.5 10-27.652 4.638-31.97-42.259-32.5-61 10.684-.842 20.157 4.041 20-10-.215 28.703 7.159 73.464 37 29"/><path fill="#2d6b77" d="M226 624c.703 25.159 2.784 53.447-30.5 54 7.903-20.126 9.757-38.471 9.5-60 2.887 1.197 17.547-1.654 18.5-1 1.682 1.155-1.468 7.232 2.5 7"/><path fill="#0279a7" d="m567 650-10 38.5c-.809 1.125-8.94 1.018-10.5 1.5-.87.269-.4 1.974-.5 2-8.88 2.287-29.42 3.152-39 3 1.013-13.374 15.342-22.35 13-37 14.967-.613 32.572-3.891 47-8"/><path fill="#1d445d" d="M802 668c6.029 7.237 16.521 6.611 25 7-.25.232.491 2.747-.5 3-3.341.852-7.34.048-11.5 1-10.903 2.496-6.134 5.563-12 12.5-39.396 46.589-74.006 63.708-125.5 92.5-1.626.909-4.332 1.637-2.5 4-2.202-.393-3.96.568-6 1-7.24 1.535-18.83 6.942-26 10-15.843 1.503-31.661 8.712-47.5 12-69.748 14.477-139.033 9.65-207-10-8.803-2.545-24.559-10.791-32-12-3.138-.51-3.299 1.979-3.5 2-.568.058-3.193-1.87-5-1 .393-1.817 2.435-2.931-.5-5-57.772-20.443-92.602-59.977-134.5-100 .125-3.747-3.552-3.448 0-7 42.198 51.262 96.096 87.227 158 110 154.838 56.961 329.95 18.773 436-109.5-3.651-3.355-7.004-4.028-10-8.5 3.849-.14.024-4.049 5-2"/><path fill="#8abbd7" d="M420 689c-.285 4.275-1.027 9.41-5 11-12.023-4.928-23.963-11.159-35-18-1.376-.853-1.881-1.924-2-2-.315-1.998 2.884-7.78 4.5-8 2.04-.278 31.058 14.656 37.5 17"/><path fill="#7fa3b0" d="M641 701c-65.38 35.308-141.002 41.73-210.5 13-5.898-2.438-16.827-6.633-19.5-12 74.728 32.177 154.399 28.932 224.5-13z"/><path fill="#012239" d="M675 788c3.167 1.086 9.83 35.258 10 40 .059 1.636.078 3.366 0 5-2.054 43.259-111.591 53.367-144.5 55-36.722 1.822-176.413-2.565-194.5-38.5-1.849-3.673-1.955-10.35-3-12.5-.194-.4.447-1.338-.5-2-.314-.22-2.538.045-3.5 0l2.5-4H333c2.554-.735 8.254-.802 9-2.5.134-8.41-.305-17.705 1-26 .676-4.297 4.19-8.754 5-12.5 1.807-.87 4.432 1.058 5 1 .105.423.906 1.939 1 2-2.992 5.925-3.153 13.512-4 20-1.484 11.373-4.035 22.037 1 33 2.901 6.318 7.644 8.707 13 12 49.373 30.357 187.149 28.238 244 17 16.234-3.209 58.945-15.728 68-29.5 8.119-12.348.567-44.108-7-56.5 2.04-.432 3.798-1.393 6-1"/><path fill="#5082a3" d="M643 799c-75.731 32.302-116.703 54.852-203.5 29-14.316-4.264-74.646-27.917-85.5-35-.094-.061-.895-1.577-1-2 .201-.021.362-2.51 3.5-2 7.441 1.209 23.197 9.455 32 12 67.967 19.65 137.252 24.477 207 10 15.839-3.288 31.657-10.497 47.5-12"/><path fill="#314f6c" d="M608 875c.328-2.325-5.802-2.731-7.5-3-64.054-10.16-127.61-25.203-190.5-41-4.261-1.07-8.797-1.874-13-3-7.513-2.014-15.399-4.796-23-7-1.927-.559-7.992-4.077-10.5-5-1.486.473-2.352 9.1-2.5 11-1.016.194-3.585-.298-4 0-.951-8.058 4.334-14.395-7-14 .847-6.488 1.008-14.075 4-20 10.854 7.083 71.184 30.736 85.5 35 86.797 25.852 127.769 3.302 203.5-29 7.17-3.058 18.76-8.465 26-10 7.567 12.392 15.119 44.152 7 56.5-9.055 13.772-51.766 26.291-68 29.5"/><path fill="#77afd0" d="M357 827c-.243.174.522 2.406-.5 3-.196.114-2.546-2.838-4.5.5-1.893 3.234.476 12.048-1 15.5-5.035-10.963-2.484-21.627-1-33 11.334-.395 6.049 5.942 7 14"/><path fill="#7bb4d5" d="M374 821c-2.769 2.45 2.397 11.072 2 11.5-1.234 1.33-4.461-.298-6 1-3.297 2.781-2.091 20.964-6 24.5.739-11.532-3.79-20.854-3-31 .148-1.9 1.014-10.527 2.5-11 2.508.923 8.573 4.441 10.5 5"/><path fill="#5388a9" d="M397 828c-.843 3.143-2.961 12.938-2 15.5.211.562 5.277-.509 3 9 5.27-2.026-.461 7.528 3.5 11.5.339-3.756 1.856-24.549 4-26 3.241-2.193 4.075 5.74 4.5-7 62.89 15.797 126.446 30.84 190.5 41 1.698.269 7.828.675 7.5 3-56.851 11.238-194.627 13.357-244-17 3.909-3.536 2.703-21.719 6-24.5 1.539-1.298 4.766.33 6-1 .397-.428-4.769-9.05-2-11.5 7.601 2.204 15.487 4.986 23 7"/><path fill="#4c7fa2" d="M361 827c-.79 10.146 3.739 19.468 3 31-5.356-3.293-10.099-5.682-13-12 1.476-3.452-.893-12.266 1-15.5 1.954-3.338 4.304-.386 4.5-.5 1.022-.594.257-2.826.5-3 .415-.298 2.984.194 4 0"/><path fill="#7db9d8" d="M410 831c-.425 12.74-1.259 4.807-4.5 7-2.144 1.451-3.661 22.244-4 26-3.961-3.972 1.77-13.526-3.5-11.5 2.277-9.509-2.789-8.438-3-9-.961-2.562 1.157-12.357 2-15.5 4.203 1.126 8.739 1.93 13 3"/><path fill="#1f415b" d="M723 842c17.683 21.115-9.396 39.77-26 49-53.672 29.837-145.263 31.255-206 29-36.264-1.347-77.928-4.883-113-14-35.123-9.13-129.892-50.553-45-75h8.5l-2.5 4c-2.912-.136-8.096 1.145-11 2-8.913 2.624-25.833 12.313-23 23 3.411 12.864 31.751 25.141 43 30 75.973 32.814 258.354 35.756 334.5 3 40.46-17.405 64.438-52.738 2.5-60 .078-1.634.059-3.364 0-5 11.431-.116 30.496 5.04 38 14"/><path fill="url(#f)" d="M348 890c-11.423-10.682-21.834-23.583-17-40.5.939-3.285 7.588-13.854 12-12.5 1.045 2.15 1.151 8.827 3 12.5 18.087 35.935 157.778 40.322 194.5 38.5 32.909-1.633 142.446-11.741 144.5-55 61.938 7.262 37.96 42.595-2.5 60-76.146 32.756-258.527 29.814-334.5-3" style="fill:url(#f)"/>/&gt;<path fill="#9bdaf0" d="M339 835c.962.045 3.186-.22 3.5 0 .947.662.306 1.6.5 2-4.412-1.354-11.061 9.215-12 12.5-4.834 16.917 5.577 29.818 17 40.5-11.249-4.859-39.589-17.136-43-30 5.387-2.708 6.566-8.349 11.5-13 2.985-2.814 12.306-4.781 11.5-10 2.904-.855 8.088-2.136 11-2"/><path fill="#cdf3fb" d="M305 860c-2.833-10.687 14.087-20.376 23-23 .806 5.219-8.515 7.186-11.5 10-4.934 4.651-6.113 10.292-11.5 13"/><path fill="#dae4ea" d="m491 920-48.5-1c-1.124.798-.767 4.897-1 5-2.49 1.101-46.654-10.216-53-12-3.004-.845-5.926-3.966-11-3l.5-3c35.072 9.117 76.736 12.653 113 14"/></svg>