<svg xmlns="http://www.w3.org/2000/svg" width="1024" height="1024"><defs><linearGradient id="a" x1="416.762" x2="270.303" y1="536.678" y2="569.079" gradientUnits="userSpaceOnUse"><stop offset="0%" style="stop-color:#d4f6fe"/><stop offset="100%" style="stop-color:#f8fdfe"/></linearGradient></defs><defs><linearGradient id="b" x1="563.084" x2="462.288" y1="768.721" y2="927.417" gradientUnits="userSpaceOnUse"><stop offset="0%" style="stop-color:#5792a4"/><stop offset="100%" style="stop-color:#b3d1d7"/></linearGradient></defs><defs><linearGradient id="c" x1="483.307" x2="623.769" y1="876.767" y2="889.075" gradientUnits="userSpaceOnUse"><stop offset="0%" style="stop-color:#44b4d7"/><stop offset="100%" style="stop-color:#2c5165"/></linearGradient></defs><defs><linearGradient id="d" x1="459.438" x2="582.891" y1="859.033" y2="884.239" gradientUnits="userSpaceOnUse"><stop offset="0%" style="stop-color:#75ecfe"/><stop offset="100%" style="stop-color:#11bddc"/></linearGradient></defs><path fill="#06364e" d="M822 363v2c-1.304.19-4.269-.532-5 .5-.564 19.135.967 38.533 9 56 8.653 5.763 106.99-33.876 116-50 .736-3.054-8.021-24.053-10-28.5-2.125-4.775-4.109-9.616-6-14.5-.898.533-3.816.417-4 .5l21-32.5c.22-3.318-13.56-9.245-16-18-10.82-38.823 55.226-42.623 50-3-1.361 10.321-12.116 15.291-13 18-1.092 3.347 1.394 9.005 1 13-5.812 58.909-20.046 76.712-73.5 99.5-25.398 10.827-52.218 19.028-80 20-1.525.873 4.504 19.95 5.5 21.5 1.548 2.409 1.099 1.556 3 2.5-1.671 2.525-1.699 1.216-1 4 3.309 13.181 7.536 25.433 10 39 1.865 10.268 3.964 20.594 5 31 2.125 21.338 3.222 46.632 2 68-1.08 18.892-5.358 44.595-10 63-.251.995-2.903 6.612-4 10.5-4.737 16.783-13.179 33.594-16 50.5-36.449 90.44-94.115 153.168-183 193 4.404-6.211 10.99-9.234 16-15 22.594-11.152 50.329-24.285 46-54.5-2.023-14.118-29.386-22.675-41.5-26.5-69.851-22.056-161.83-23.211-233-7-17.518 3.99-66.518 15.071-68.5 35.5-3.062 31.568 26.794 40.03 48 54.5 1.218 1.519 3.898 2.664 5 4.5l-.5 2.5-9.5-3c-93.83-47.146-158.483-139.65-183-241-.279-1.152-.83-2.256-1-3-2.24-9.785-3.181-20.124-5-30-1.339-7.269-1.456-16.502-3-23-.036-10.078-2.842-21.113-3-31-.581-36.26 6.097-84.04 16-119 .049-.173 1.145-.149 2-3 2.407-8.025 5.66-15.837 7.5-24-25.701.175-50.29-7.056-74-16-44.278-16.702-72.628-31.214-81.5-81.5-1.586-8.991-.43-29.995-2-35-.693-2.209-11.559-7.845-13-17-6.431-40.855 60.492-36.872 50 2-2.56 9.488-16.814 15.792-17 17-.315 2.049 19.584 30.971 23 34.5-6.132-2.5-9.58 10.382-11 15-.91 2.956-2.643 4.527-3 8-3.09 2.562-6.804 15.254-6 18.5 3.477 14.04 97.419 51.087 115.5 50.5 9.056-16.812 10.786-36.563 10.5-55.5-1.409-2.26-3.136-1.193-5-1.5v-2c14.466.894 29.059 1.631 43.5 3 9.754-12.915 18.936-26.201 29.5-38.5 7.56-8.802 31.939-25.445 27-38-1.021-2.596-16.15-4.632-20.5-6.5-36.863-15.831-56.602-51.879-53.5-91.5.534-6.819 9.316-35.123 9-37-.136-.809-8.558-8.967-10-13-5.5-15.379 3.359-35.848 20.5-38.5 40.847-6.32 49.563 49.309 9.5 57.5.944 45.39 28.984 69.965 67.5 87.5 11.017-20.18 24.627-35.356 43-49 5.126-3.806 14.65-6.753 19-10 10.315-7.699 19.048-20.713 31-29 6.627-4.595 25.258-11.732 28-14 2.924-2.418 3.277-12.528 5.5-16.5 4.851-8.666 20.584-11.583 22-14 .54-.921.304-6.669 1-8 7.575-14.486 25.163-22.557 41.5-19.5 3.192.597 17.702 11.888 19.5 14.5 2.671 3.882 2.593 13.125 4.5 14.5 3.622 2.612 13.161 2.051 19.5 9.5 3.031 3.562 6.681 16.375 8.5 17.5.85.526 8.091 1.123 10 2 26.933 12.368 25.848 22.44 43 35 3.902 2.858 15.623 5.696 21 9 25.168 15.467 42.882 31.526 57 58 31.153-17.68 57.219-31.26 64.5-69.5 5.541-29.104-1.795-13.892-15.5-26.5-39.917-36.723 44.609-75.604 49.5-24.5 1.643 17.165-10.803 21.428-12 26-.482 1.842 8.476 30.29 9 37 2.944 37.664-15.028 75.687-50.5 91.5-8.283 3.692-26.6 2.737-23.5 15.5.501 2.063 26.482 23.923 31 29 10.59 11.899 19.037 25.738 28.5 38.5 14.224.39 28.362-1.119 42.5-2M499.5 90c-1.291.209-8.827 2.788-9 5l33.5.5c-5.125-6.087-17.313-6.663-24.5-5.5m30.5 25c2.063.03 3.997.043 6 .5.366-6.093-.825-10.968-6-14.5-10.431-7.12-60.851-9.987-54.5 15 18.3-5.213 36.703-1.263 54.5-1m-256 31c14.021-10.49 3.061-36.451-14-40-8.655-1.801-18.898.928-25 7.5-23.893 25.734 19.033 63.867 39 32.5m477 4c23.319 22.478 54.32-9.583 38-33.5-4.603-6.745-16.023-12.012-24-11.5-22.877 1.467-30.698 28.904-14 45m-269-32c-15.209 2.46-33.278 6.564-31.5 26 .463.335 5.209-1.969 5.5-2 17.389-1.851 32.03-4.792 50-5 1.656-.019 3.344-.013 5 0 17.571.135 34.648 2.532 52 4.5-3.979-21.445-28.908-24.379-47-25.5-.332-.021-.668.017-1 0-11.198-.583-21.961.215-33 2m8 24c-37.033 3.003-67.03 14.507-93 41.5 10.804-2.811 21.186-7.721 32-10.5 22.823-5.866 44.467-8.175 68-9 39.99-1.402 77.513 2.873 116 13.5-21.66-28.108-66.282-35.675-100-36.5-7.745-.189-15.314.377-23 1m292.5 13c-1.589 3.796-14.983 4.751-15.5 5.5-.818 1.184-1.802 21.028-3.5 24.5 7.635-4.862 16.806-4.379 25.5-5.5zm-544 1-4.5 23.5 23.5 4.5c.04-3.143-1.77-22.571-2.5-23.5-.528-.672-14.113-2.947-16.5-4.5M468 175c-41.287 4.747-90.018 18.051-119 49.5-18.566 20.147-27.417 48.916-42 72 5.426-1.489 9.575-7.329 14-10.5 73.823-52.899 185.872-64.928 273-45 42.672 9.76 85.612 28.172 121.5 53-17.445-32.94-33.118-71.596-66-92-32.394-20.101-78.836-27.23-116.5-29-21.866-1.027-43.212-.505-65 2m-186 85c5.09-6.193 13.114-19.41 9-27.5-.996-1.959-18.326-13.677-23-21-9.92-15.542-3.224-31.847-30-29.5-2.301.202-4.295-.842-6 1.5-1.31 1.8-1.284 21.466-1 25 1.363 16.938 8.937 35.156 20 48 12.619 14.65 17.414 20.032 31 3.5m494-77c-19.956 3.612-13.023 16.005-23 30.5-4.368 6.346-21.25 17.381-22 20.5-2.016 8.382 3.877 19.57 9 26 13.667 17.154 21.117 9.536 33-5.5 15.529-19.649 20.54-46.368 17-71-1.747-2.419-4.537-1.328-7-1.5-3.019-.211-4.405.53-7 1m-49.5 52c-2.264 3.482-18.855 10.131-19.5 12.5-1.191 4.376 16.286 35.897 18.5 36.5 1.68.458 25.665-8.751 25.5-10.5-14.616-6.896-23.296-22.725-24.5-38.5m-431 1c-.842 15.471-9.842 30.014-23.5 37.5-.198 2.125 22.78 10.881 24.5 10.5 1.998-.442 19.803-31.955 18.5-36.5-.312-1.088-18.63-12.224-19.5-11.5M492 297l1 1c-.971.633-1.618.647-2 2-.145.515.073 1.358 0 2-2.319.935-4.697 6.529-5 8.5-3.566 23.226 18.352 41.473 40 33.5 18.126-6.676 18.841-27.881 9-42-1.375-1.972-.887-2.889-1-3l8 7.5-3.5-66.5-53.5 2.5c3.582 7.685-2.298 60.795.5 62.5 2.435-2.958 2.776-5.897 6.5-8m53 3c.016 1.657.004 3.343 0 5-.05 20.547-2.669 44.999-30 44-26.137-.956-32.259-23.36-33-45-.068-1.986.032-4.012 0-6-.295-18.406 3.998-37.5-.5-56-3.106-2.208-66.936 10.489-75 13-2.516.783-15.095 4.467-16 5-12.335 7.263-17.5 57.223-17.5 71v5c-.285.147-1.421 1.156-3 2-.803-.002-1.998-2.607-2-3-.127-21.092 5.429-49.135 14-68.5l-1.5-2.5c-241.046 99.732-227.431 455.439-38 600 2.894-.095.773-3.429.5-5-1.42-8.154-3.748-16.27-1-25 .075-.238 2.413-3.178 3-4 16.445-23.016 114.275-36.49 143-38 51.48-2.707 112.834 2.558 161.5 20 11.703 4.194 24.205 8.834 33 18l1.5-1c2.691-2.216 5.479-4.608 8-7l2 1c-1.71 1.806-9.915 8.816-10 9.5-.053.424 3.043 6.126 3 8-.135 5.857-.892 11.79-2 17.5-.271 1.399-4.199 5.869-1.5 7 187.21-141.862 201.415-488.317-26-598 .517 4.506 5.953 9.16 7.5 13 6.346 15.752 8.564 40.069 8 57-.094 2.828.079 5.29-1 8-.135-.066.258 1.41-3 0 .961-1.378-.02-2.851 0-3 4.483-32.634-.898-70.879-34.5-84-26.842-10.481-60.385-14.327-89-17-5.859 2.547-.578 50.803-.5 59m156.5-52c-2.501 1.526-2.801 1.263-2.5 4.5.19 2.042 19.732 35.538 21.5 34.5zM55 288c17.708 16.344 45.375-2.956 34-26-15.653-31.711-59.013 2.913-34 26m263.5-39c-.871.714-.854 7.141-1.5 8.5-2.015 4.241-15.916 25.433-16 27-.031.582 2.248 4.449 2.5 4.5 2.177.439 21.455-37.322 20-39-.379-.437-4.438-1.461-5-1m625.5 2c-4.698 1.962-5.999 3.608-9 8-1.045 1.529-2.367 3.286-3 5-3.941 10.671-1.723 20.961 10 27 24.577 12.66 43.363-20.389 24.5-36-6.478-5.361-14.772-7.227-22.5-4M60 299c-.79 19.236 6.37 51.546 18 66.5 2.59-5.692 4.319-11.872 7-17.5 1.714-3.599 2.571-8.444 4-11.5.242-.516 7.242-5.92 7-9-.057-.728-7.782-9.942-9-11.5-1.05-1.343-1.617-6.43-5-6-3.356-14.285-8.073-14.438-21.5-15-.928.723-.454 2.89-.5 4m881 8c-1.474 1.102-10.873 15.312-11 16.5-.194 1.814 3.367 10.948 4 13.5 2.594 10.447 6.415 20.104 10.5 30 13.027-21.177 17.758-46.679 17.5-71.5-11.203-.18-17.559-.637-21 11.5m-730.5 59c.573 20.034-3.415 39.044-12 57l19.5-1.5 26-52zm594 0c-2.127-.015-22.285 1.831-22.5 3.5l26 52 14.5 1.5c3.078-1.238-3.642-13.149-4.5-16.5-3.384-13.221-4.853-26.292-4-40-.676-.954-7.869-.489-9.5-.5"/><path fill="#bad8df" d="M499.5 90c7.187-1.163 19.375-.587 24.5 5.5l-33.5-.5c.173-2.212 7.709-4.791 9-5"/><path fill="#d5e6ea" d="M530 101c-4.159 1.916-7.67-2.821-10 3.5 3.728 1.29 3.429 6.37 5 8 1.392 1.444 5.454-1.102 5 2.5-17.797-.263-36.2-4.213-54.5 1-6.351-24.987 44.069-22.12 54.5-15"/><path fill="#59757e" d="M530 101c5.175 3.532 6.366 8.407 6 14.5-2.003-.457-3.937-.47-6-.5.454-3.602-3.608-1.056-5-2.5-1.571-1.63-1.272-6.71-5-8 2.33-6.321 5.841-1.584 10-3.5"/><path fill="#558198" d="M260 106c-25.006-1.466-32.99 38.805-7.5 43 4.002.659 18.232-.555 21.5-3-19.967 31.367-62.893-6.766-39-32.5 6.102-6.572 16.345-9.301 25-7.5"/><path fill="#5a86a4" d="M765 105c3.593 5.704 10.863 5.495 15 10.5 10.754 13.013 2.013 30.184-12.5 34.5H751c-16.698-16.096-8.877-43.533 14-45m-19 26c2.899 13.035 16.213 12.05 23 2.5 5.865-8.252 6.749-23.284-4-24.5-11.051-1.25-21.471 10.886-19 22"/><path fill="#48738b" d="M751 150h16.5c14.513-4.316 23.254-21.487 12.5-34.5-4.137-5.005-11.407-4.796-15-10.5 7.977-.512 19.397 4.755 24 11.5 16.32 23.917-14.681 55.978-38 33.5"/><path fill="#719bb7" d="M274 146c-3.268 2.445-17.498 3.659-21.5 3-25.49-4.195-17.506-44.466 7.5-43 17.061 3.549 28.021 29.51 14 40m-29-30c-11.677 17.387 11.938 34.756 28 23.5 1.773-3.48-.59-1.741-1-3.5.161-.649.641-1.48 1-2 .564-.817 1.697-1.746 2-3 3.541-14.638-17.945-32.951-30-15"/><path fill="#e1f1f9" d="M275 131c-14.066 5.44-27.644 1.577-30-15 12.055-17.951 33.541.362 30 15"/><path fill="#f7fcfe" d="m765 109-19 22c-2.471-11.114 7.949-23.25 19-22"/><path fill="#d7eaf6" d="m746 131 19-22c10.749 1.216 9.865 16.248 4 24.5-6.787 9.55-20.101 10.535-23-2.5"/><path fill="#a8c6e0" d="M245 116c2.356 16.577 15.934 20.44 30 15-.303 1.254-1.436 2.183-2 3-6.279-1.5-1.063 1.73-1 2 .41 1.759 2.773.02 1 3.5-16.062 11.256-39.677-6.113-28-23.5"/><path fill="#c6dce0" d="M515 116c-.166 4.619-7.41.218-8 1.5-1.409 3.06-.162 15.112-1 19.5-17.97.208-32.611 3.149-50 5-1.577-6.011 5.931-15.276 10.5-18 4.834-2.882 11.675-2.257 15.5-6 11.039-1.785 21.802-2.583 33-2"/><path fill="#a0bbc0" d="M511 137a260 260 0 0 0-5 0c.838-4.388-.409-16.44 1-19.5.59-1.282 7.834 3.119 8-1.5.332.017.668-.021 1 0-2.08 7.455 6.438 19.968-5 21"/><path fill="#6b878e" d="M511 137c11.438-1.032 2.92-13.545 5-21 18.092 1.121 43.021 4.055 47 25.5-17.352-1.968-34.429-4.365-52-4.5"/><path fill="#f3f9fa" d="M482 118c-3.825 3.743-10.666 3.118-15.5 6-4.569 2.724-12.077 11.989-10.5 18-.291.031-5.037 2.335-5.5 2-1.778-19.436 16.291-23.54 31.5-26"/><path fill="#eef6fc" d="M273 134c-.359.52-.839 1.351-1 2-.063-.27-5.279-3.5 1-2"/><path fill="#bcd4d8" d="M513 141c.184 2.695-2.188 19.857-3 20.5-2.967 2.349-17.138-1.57-21.5-.5l8.5 3c-23.533.825-45.177 3.134-68 9 12.743-18.868 43.2-23.649 64.5-29l-3.5-2c7.686-.623 15.255-1.189 23-1"/><path fill="#8fabb0" d="m497 164-8.5-3c4.362-1.07 18.533 2.849 21.5.5.812-.643 3.184-17.805 3-20.5 33.718.825 78.34 8.392 100 36.5-38.487-10.627-76.01-14.902-116-13.5"/><path fill="#fbfcfd" d="m490 142 3.5 2c-21.3 5.351-51.757 10.132-64.5 29-10.814 2.779-21.196 7.689-32 10.5 25.97-26.993 55.967-38.497 93-41.5"/><path fill="#18719b" d="m782.5 155 6.5 24.5c-8.694 1.121-17.865.638-25.5 5.5 1.698-3.472 2.682-23.316 3.5-24.5.517-.749 13.911-1.704 15.5-5.5m-544 1c2.387 1.553 15.972 3.828 16.5 4.5.73.929 2.54 20.357 2.5 23.5l-23.5-4.5z"/><path fill="#d0e4e9" d="M533 173c6.201 6.544 17.583 9.57 25.5 15 16.269 11.157 33.706 32.918 35.5 53-87.128-19.928-199.177-7.899-273 45 17.238-58.965 74.024-94.649 132.5-104l14.5-7c21.788-2.505 43.134-3.027 65-2"/><path fill="#718d94" d="M594 241c-1.794-20.082-19.231-41.843-35.5-53-7.917-5.43-19.299-8.456-25.5-15 37.664 1.77 84.106 8.899 116.5 29 32.882 20.404 48.555 59.06 66 92-35.888-24.828-78.828-43.24-121.5-53"/><path fill="#fcfdfd" d="m468 175-14.5 7c-58.476 9.351-115.262 45.035-132.5 104-4.425 3.171-8.574 9.011-14 10.5 14.583-23.084 23.434-51.853 42-72 28.982-31.449 77.713-44.753 119-49.5"/><path fill="#0985a6" d="M238 182c-3.996 33.023 5.176 74.532 44 78-13.586 16.532-18.381 11.15-31-3.5-11.063-12.844-18.637-31.062-20-48-.284-3.534-.31-23.2 1-25 1.705-2.342 3.699-1.298 6-1.5"/><path fill="#2dafd1" d="M282 260c-38.824-3.468-47.996-44.977-44-78 26.776-2.347 20.08 13.958 30 29.5 4.674 7.323 22.004 19.041 23 21 4.114 8.09-3.91 21.307-9 27.5m-4-27c.958-2.918-4.392-10.365-6-12.5-3.51-4.661-8.559-8.993-12-14-2.908-4.231-5.193-13.6-8-16.5-1.579-1.631-4.162-2.999-6.5-3-11.107 4.311 10.23 65.843 27 68 13.232 1.702 22.671-19.16 11-23-.266-.087-4.678 1.33-5.5 1"/><path fill="#22a7c9" d="M783 182c7.502 33.471-4.772 74.368-43 78-5.123-6.43-11.016-17.618-9-26 17.136 61.079 60.946-28.218 45-51 2.595-.47 3.981-1.211 7-1"/><path fill="#0a82a5" d="M740 260c38.228-3.632 50.502-44.529 43-78 2.463.172 5.253-.919 7 1.5 3.54 24.632-1.471 51.351-17 71-11.883 15.036-19.333 22.654-33 5.5"/><path fill="#5fdaf6" d="M776 183c15.946 22.782-27.864 112.079-45 51 .75-3.119 17.632-14.154 22-20.5 9.977-14.495 3.044-26.888 23-30.5m-8.5 8c-5.187 1.313-1.327 8.979-1.5 9.5-2.57 7.727-20.028 23.656-23.5 32.5 8.427-4.263 27.216-29.001 27.5-37.5.058-1.734.953-5.374-2.5-4.5"/><path fill="#5edbf7" d="M252 190c-2.664 5.47 1.68 9.871 4 14.5.523 1.044-1.053 1.902-1 2 1.25 2.298 21.372 25.847 23 26.5.822.33 5.234-1.087 5.5-1 11.671 3.84 2.232 24.702-11 23-16.77-2.157-38.107-63.689-27-68 2.338.001 4.921 1.369 6.5 3"/><path fill="#bbf6fe" d="M278 233c-1.628-.653-21.75-24.202-23-26.5-.053-.098 1.523-.956 1-2-2.32-4.629-6.664-9.03-4-14.5 2.807 2.9 5.092 12.269 8 16.5 3.441 5.007 8.49 9.339 12 14 1.608 2.135 6.958 9.582 6 12.5"/><path fill="#c2f9fe" d="M767.5 191c3.453-.874 2.558 2.766 2.5 4.5-.284 8.499-19.073 33.237-27.5 37.5 3.472-8.844 20.93-24.773 23.5-32.5.173-.521-3.687-8.187 1.5-9.5"/><path fill="#196e98" d="M726.5 235c1.204 15.775 9.884 31.604 24.5 38.5.165 1.749-23.82 10.958-25.5 10.5-2.214-.603-19.691-32.124-18.5-36.5.645-2.369 17.236-9.018 19.5-12.5"/><path fill="#1a729b" d="M295.5 236c.87-.724 19.188 10.412 19.5 11.5 1.303 4.545-16.502 36.058-18.5 36.5-1.72.381-24.698-8.375-24.5-10.5 13.658-7.486 22.658-22.029 23.5-37.5"/><path fill="#a5e9fd" d="M534 299c-6.847-6.759-34.229-6.387-42-2-3.724 2.103-4.065 5.042-6.5 8-2.798-1.705 3.082-54.815-.5-62.5l53.5-2.5 3.5 66.5z"/><path fill="#91dff8" d="M669 342c-37.113-22.917-80.143-38.847-124-42-.078-8.197-5.359-56.453.5-59 28.615 2.673 62.158 6.519 89 17 33.602 13.121 38.983 51.366 34.5 84"/><path fill="#d6f7ff" d="M482 298c-38.198 4.202-74.335 17.298-109 33 0-13.777 5.165-63.737 17.5-71 .905-.533 13.484-4.217 16-5 8.064-2.511 71.894-15.208 75-13 4.498 18.5.205 37.594.5 56"/><path fill="#116585" d="m701.5 248 19 39c-1.768 1.038-21.31-32.458-21.5-34.5-.301-3.237-.001-2.974 2.5-4.5"/><path fill="#1a7fa8" d="m89 262-2 14.5c-8.082 13.506-17.906 13.022-32 11.5-25.013-23.087 18.347-57.711 34-26m-34 3c-.931 3.183-3.062-.284-2 7 2.675 18.345 32.65 14.677 29-6.5-.473-2.746-5.258-10.542-9-7.5-2.294-6.661-15.18-3.067-18 1.5-1.987 3.217.112 5.118 0 5.5"/><path fill="#117397" d="M318.5 249c.562-.461 4.621.563 5 1 1.455 1.678-17.823 39.439-20 39-.252-.051-2.531-3.918-2.5-4.5.084-1.567 13.985-22.759 16-27 .646-1.359.629-7.786 1.5-8.5"/><path fill="#1f749a" d="M942 291c4.623-3.639 10.598-1.404 16.5-5 8.685-5.292 11.537-19.797 5.5-27.5-.33-.421-7.989-6.342-8.5-6.5-1.824-.565-10.522 2.171-11.5-1 7.728-3.227 16.022-1.361 22.5 4 18.863 15.611.077 48.66-24.5 36"/><path fill="#1d87b2" d="M944 251c.978 3.171 9.676.435 11.5 1 .511.158 8.17 6.079 8.5 6.5 6.037 7.703 3.185 22.208-5.5 27.5-5.902 3.596-11.877 1.361-16.5 5-11.723-6.039-13.941-16.329-10-27-.268 2.749.559 5.344 1 8 .738 4.449 1.218 10.404 7.5 12 18.216 4.629 30.146-18.171 13.5-28-1.038-.613-2.734-2.837-4.5-3-.399-.037-2.343 1.967-2.5 2-3.607.75-7.731 1.661-10 5l-2-1c3.001-4.392 4.302-6.038 9-8"/><path fill="#45cef3" d="M954 256c7.056 15.836-8.09 29.558-21 16-.441-2.656-1.268-5.251-1-8 .633-1.714 1.955-3.471 3-5l2 1c-11.087 16.315 18.161 5.281 10-5 .157-.033 2.101-2.037 2.5-2 1.766.163 3.462 2.387 4.5 3"/><path fill="#f2fcfe" d="M73 258c.084.243-.014.663 0 1 .358 8.57-12.828 11.759-18 6 .112-.382-1.987-2.283 0-5.5 2.82-4.567 15.706-8.161 18-1.5"/><path fill="#ebfdfe" d="M947 255c8.161 10.281-21.087 21.315-10 5 2.269-3.339 6.393-4.25 10-5"/><path fill="#1fabd9" d="M933 272c12.91 13.558 28.056-.164 21-16 16.646 9.829 4.716 32.629-13.5 28-6.282-1.596-6.762-7.551-7.5-12"/><path fill="#1da7d5" d="M53 272c5.346 2.846 9.601 7.759 16.5 5 5.2-2.08 12.688-16.648 3.5-18-.014-.337.084-.757 0-1 3.742-3.042 8.527 4.754 9 7.5 3.65 21.177-26.325 24.845-29 6.5"/><path fill="#41caf2" d="M53 272c-1.062-7.284 1.069-3.817 2-7 5.172 5.759 18.358 2.57 18-6 9.188 1.352 1.7 15.92-3.5 18-6.899 2.759-11.154-2.154-16.5-5"/><path fill="#1c6a8e" d="M89 262c11.375 23.044-16.292 42.344-34 26 14.094 1.522 23.918 2.006 32-11.5z"/><path fill="url(#a)" d="M368 335c-42.559 22.306-79.224 56.789-104 98-20.716 34.458-34.241 70.744-36 111.5-5.256-26.48 3.409-52.569 6-78 1.167-11.454-3.243-23.932 3-36-3.491 1.574-6.438 10.831-8 15-45.387 121.144-15.194 276.069 69 373 12.497 14.387 28.586 31.148 45 40.5.273 1.571 2.394 4.905-.5 5-189.431-144.561-203.046-500.268 38-600l1.5 2.5c-8.571 19.365-14.127 47.408-14 68.5m-49.5-19c-17.773 2.746-14.285 33.97 8 29 14.453-3.224 14.451-32.469-8-29" style="fill:url(#a)"/>/&gt;<path fill="#5fc0e2" d="M685 858c96.995-68.563 139.139-204.182 133-319.5-5.482-102.987-60.647-208.883-153-258.5-1.547-3.84-6.983-8.494-7.5-13 227.415 109.683 213.21 456.138 26 598-2.699-1.131 1.229-5.601 1.5-7"/><path fill="#2c7c96" d="M685 858c1.108-5.71 1.865-11.643 2-17.5.043-1.874-3.053-7.576-3-8 .085-.684 8.29-7.694 10-9.5 113.115-119.488 150.461-313.29 26-440-8.587-13.151-21.71-26.456-33.5-37-3.037-2.716-9.427-8.426-13.5-9 .564-16.931-1.654-41.248-8-57 92.353 49.617 147.518 155.513 153 258.5 6.139 115.318-36.005 250.937-133 319.5m11.5-542c-15.522 3.281-12.537 31.957 7 30 18.783-1.881 16.145-34.893-7-30"/><path fill="#37a8ca" d="M534 299c.113.111-.375 1.028 1 3l-13 1c-2.11-1.308-4.715-.782-6-1-5.201-.884-20.624-1.765-25 0 .073-.642-.145-1.485 0-2l40.5-1c-5.243-4.686-33.953-3.964-38.5-1l-1-1c7.771-4.387 35.153-4.759 42 2"/><path fill="#47c1e1" d="m82 310-.5 2c-25.3-29.184-4.037 24.509 2 25 6.352.517-.551-3.217-.5-3.5.154-.848 1.988-.398 2-.5.803-.001 2-2.613 2-3 .002-2.079-1.98-4.174-2-4.5-.02-.336 2.023-1.667 2-2-.19-2.773-4.346-4.782 0-7.5 1.218 1.558 8.943 10.772 9 11.5.242 3.08-6.758 8.484-7 9-1.429 3.056-2.286 7.901-4 11.5-10.379-1.651-14.267-21.294-17-30.5-2.37-7.987 2.03-13.185-8-18.5.046-1.11-.428-3.277.5-4 13.427.562 18.144.715 21.5 15"/><path fill="#3fb0cd" d="M934 337c2.92-2.884 5.226 1.057 5.5 1 3.558-.735 16.242-30.504 14-33-3.921-4.366-7.276 1.141-9 2-.689.344-3.06-.329-3.5 0 3.441-12.137 9.797-11.68 21-11.5.258 24.821-4.473 50.323-17.5 71.5-4.085-9.896-7.906-19.553-10.5-30"/><path fill="#dbf4fb" d="M491 300c.382-1.353 1.029-1.367 2-2 4.547-2.964 33.257-3.686 38.5 1z"/><path fill="#51bbde" d="M482 298c.032 1.988-.068 4.014 0 6-37.308 3.115-75.683 14.815-109 32v-5c34.665-15.702 70.802-28.798 109-33"/><path fill="#43aecb" d="M85 348c-2.681 5.628-4.41 11.808-7 17.5-11.63-14.954-18.79-47.264-18-66.5 10.03 5.315 5.63 10.513 8 18.5 2.733 9.206 6.621 28.849 17 30.5"/><path fill="#2fa3c4" d="M669 342c-.02.149.961 1.622 0 3-5.056-2.188-10.504-5.013-16-6-32.758-18.395-70.59-30.053-108-34 .004-1.657.016-3.343 0-5 43.857 3.153 86.887 19.083 124 42"/><path fill="#cadfe3" d="M516 302c4.176 4.1 10.381 7.181 11 13.5-5.428-9.556-23.217-12.781-29-2-8.405 15.67 11.198 28.684 25 18.5 2.598 3.995-1.105 9.447 3 12-21.648 7.973-43.566-10.274-40-33.5.303-1.971 2.681-7.565 5-8.5 4.376-1.765 19.799-.884 25 0"/><path fill="#0d384c" d="M522 303c9.979 6.185 10.252 22.174 1 29-13.802 10.184-33.405-2.83-25-18.5 5.783-10.781 23.572-7.556 29 2-.619-6.319-6.824-9.4-11-13.5 1.285.218 3.89-.308 6 1m-15.5 6c-14.875 3.719-6.763 33.881 13 23 12.34-6.794 3.824-27.207-13-23"/><path fill="#afc9cc" d="M535 302c9.841 14.119 9.126 35.324-9 42-4.105-2.553-.402-8.005-3-12 9.252-6.826 8.979-22.815-1-29z"/><path fill="#66e5fd" d="M82 310c3.383-.43 3.95 4.657 5 6-4.346 2.718-.19 4.727 0 7.5.023.333-2.02 1.664-2 2 .02.326 2.002 2.421 2 4.5-5.478-2.897-1.892 2.088-2 3-.012.102-1.846-.348-2 .5-.051.283 6.852 4.017.5 3.5-6.037-.491-27.3-54.184-2-25z"/><path fill="#5cdef9" d="M934 337c-.633-2.552-4.194-11.686-4-13.5.127-1.188 9.526-15.398 11-16.5.44-.329 2.811.344 3.5 0 1.724-.859 5.079-6.366 9-2 2.242 2.496-10.442 32.265-14 33-.274.057-2.58-3.884-5.5-1"/><path fill="#dbecf1" d="M482 304c.741 21.64 6.863 44.044 33 45l2 5c-42.598-.69-78.061 10.043-114 32-85.259 52.09-123.768 152.84-93 249 4.098 12.807 11.189 29.469 18 41-2.375-2.737-5.175-.321-7.5 1-12.88 7.318-25.746 19.931-38.5 28-21.402-42.713-16.862-50.665-25-94.5-.673-3.624-5.975-23.809-11.5-21.5-10.665 25.1-.795 60.903 6.5 87h-6c-15.334-52.353-18.721-108.198-9-162 1.443.659 4.685-1.029 5-.5 1.393 2.335-7.221 30.411-2.5 32.5 4.502 1.05 27.621-4.88 29.5-7.5 14.259-58.461 29.63-100.082 75.5-140.5 4.745-4.181 29.663-20.096 30.5-23.5 2.954-12.005-7.997-14.071-17.5-12.5-23.431 3.872-75.714 61.337-89.5 81.5-3.424 5.009-7.715 19.702-14 17.5 3.824-8.619 7.257-17.844 12-26 23.631-40.633 62.809-74.981 104-97 1.579-.844 2.715-1.853 3-2 33.317-17.185 71.692-28.885 109-32"/><path fill="#b4cbd0" d="M653 339c7.222 4.056 18.345 10.193 24 16 16.084 16.515 33.59 58.159 40 80.5 14.907 51.957 17.106 108.417 7 161.5 2.168-14.59 2.106-34.219 1-49-8.2-109.637-98.591-192.228-208-194l-2-5c27.331.999 29.95-23.453 30-44 37.41 3.947 75.242 15.605 108 34"/><path fill="#e4f2f5" d="M506.5 309c16.824-4.207 25.34 16.206 13 23-19.763 10.881-27.875-19.281-13-23"/><path fill="#062739" d="M318.5 316c22.451-3.469 22.453 25.776 8 29-22.285 4.97-25.773-26.254-8-29m2 2c-6.026.681-15.67 11.556-10 18 5.271-6.598 12.287-10.403 19.5-14.5-.003-1.495-7.566-3.719-9.5-3.5"/><path fill="#011423" d="M696.5 316c23.145-4.893 25.783 28.119 7 30-19.537 1.957-22.522-26.719-7-30m1 2c-9.432 1.847-12.061 19.116-2 24 15.142 7.351 25.124-14.371 11-22-1.958-1.058-6.816-2.428-9-2"/><path fill="#104659" d="M320.5 318c1.934-.219 9.497 2.005 9.5 3.5-7.213 4.097-14.229 7.902-19.5 14.5-5.67-6.444 3.974-17.319 10-18"/><path fill="#062e45" d="M697.5 318c2.184-.428 7.042.942 9 2 14.124 7.629 4.142 29.351-11 22-10.061-4.884-7.432-22.153 2-24"/><path fill="#127ba2" d="M932 343c-4.927-3.17-6.774-.974-7.5-1-10.886-.383-13.808-2.636-21.5 6-5.067 1.883-9.482 6.051-14.5 8-15.156 5.888-42.496 8.935-59.5 10-.897.056-4.074-1.427-7-1v-2c26.669-1.661 52.477-2.91 76.5-16 7.142-3.892 18.286-15.637 23.5-18 .184-.083 3.102.033 4-.5 1.891 4.884 3.875 9.725 6 14.5"/><path fill="#ddf7ff" d="M87 330c0 .387-1.197 2.999-2 3 .108-.912-3.478-5.897 2-3"/><path fill="#107b9f" d="M101 330c4.395 1.791 13.889 11.804 19.5 15 27.137 15.455 51.302 16.134 81.5 18v2c-2.783-.459-5.698 1.032-6 1-20.824-2.201-48.392-4.561-66.5-13-7.517-3.503-17.267-13.779-24.5-14-9.229-.282-7.697 6.208-15 6 1.42-4.618 4.868-17.5 11-15"/><path fill="#72cced" d="M370 338c-41.191 22.019-80.369 56.367-104 97l-2-2c24.776-41.211 61.441-75.694 104-98 .002.393 1.197 2.998 2 3"/><path fill="#69c4e3" d="M720 383c-11.616-11.826-33.391-30.79-48-38 1.079-2.71.906-5.172 1-8 4.073.574 10.463 6.284 13.5 9 11.79 10.544 24.913 23.849 33.5 37"/><path fill="#13536c" d="M669 345c3.258 1.41 2.865-.066 3 0 14.609 7.21 36.384 26.174 48 38 124.461 126.71 87.115 320.512-26 440l-2-1c101.403-96.212 135.193-268.167 61-390-19.385-31.832-43.312-58.342-76-77-5.655-5.807-16.778-11.944-24-16 5.496.987 10.944 3.812 16 6"/><path fill="#36a4c2" d="M105 339c.131 1.037-1.773 7.186-2 7.5-3.578 4.947-12.866 7.885-10 17 1.433 4.558 20.259 16.57 26 15.5.838.464 5.27 2.211 7 3l-2 4c-17.784-6.94-39.358-10.056-37-33 .357-3.473 2.09-5.044 3-8 7.303.208 5.771-6.282 15-6"/><path fill="#40c2e6" d="M196 366c6.27 10.663 6.097 34.491-9.5 37-11.466 1.845-50.186-12.195-62.5-17l2-4c13.381 6.104 32.591 11.497 47 8.5-7.575-.792-3.21-4.595-3-8.5.096-1.774 1.77-4.534 1-7.5-1.716-6.609-33.324-15.093-41.5-18.5-1.49-.621-28.5-17.566-24.5-7.5 4.756 1.434 8.711 4.211 13 6.5-2.39 2.993-5.976 18.125-5 20.5.132.321 5.097 3 6 3.5-5.741 1.07-24.567-10.942-26-15.5-2.866-9.115 6.422-12.053 10-17 .227-.314 2.131-6.463 2-7.5 7.233.221 16.983 10.497 24.5 14 18.108 8.439 45.676 10.799 66.5 13m-21.5 3c-2.251 1.188 2.454 4.604 3.5 2.5 1.113-2.239-1.895-3.347-3.5-2.5"/><path fill="#118eaf" d="M932 343c1.979 4.447 10.736 25.446 10 28.5-9.01 16.124-107.347 55.763-116 50-8.033-17.467-9.564-36.865-9-56 .731-1.032 3.696-.31 5-.5 2.926-.427 6.103 1.056 7 1-23.389 57.962 55.613 28.259 80.5 17 7.5-3.393 29.385-12.903 25.5-23.5-3.119-8.508-5.918 5.437-7 7-2.797 4.04-6.606 3.292-7 3.5 6.777-6.991 6.22-9.384 6-18.5-1.549-2.469-3.944-1.102-6-1.5-2.355-.456-1.889-1.009-2-1-.8-8.893-14.87 2.078-19 4 .063-.908 2.644-4.601 3-5 7.692-8.636 10.614-6.383 21.5-6 .726.026 2.573-2.17 7.5 1"/><path fill="#c8f8fe" d="M170 382c-13.107-14.358-34.784-17.809-52-27-4.289-2.289-8.244-5.066-13-6.5-4-10.066 23.01 6.879 24.5 7.5 8.176 3.407 39.784 11.891 41.5 18.5.77 2.966-.904 5.726-1 7.5"/><path fill="#c5f9fd" d="M919 349c-5.221.404-23.042 12.12-29.5 15-12.138 5.412-27.656 7.347-36.5 18-6.269-14.635 12.89-13.552 21.5-17 8.782-3.517 16.993-8.04 25.5-12 4.13-1.922 18.2-12.893 19-4"/><path fill="#45bce0" d="M903 348c-.356.399-2.937 4.092-3 5-8.507 3.96-16.718 8.483-25.5 12-8.61 3.448-27.769 2.365-21.5 17 1.836 4.286 5.428 2.213 3.5 8 20.339 2.236 38.031-7.302 55.5-16 2.877-1.433 6.198-2.518 9-4 .394-.208 4.203.54 7-3.5 1.082-1.563 3.881-15.508 7-7 3.885 10.597-18 20.107-25.5 23.5-24.887 11.259-103.889 40.962-80.5-17 17.004-1.065 44.344-4.112 59.5-10 5.018-1.949 9.433-6.117 14.5-8"/><path fill="#62dff8" d="M919 349c.111-.009-.355.544 2 1 2.44 13.759-1.878 14.21-9 24-17.469 8.698-35.161 18.236-55.5 16 1.928-5.787-1.664-3.714-3.5-8 8.844-10.653 24.362-12.588 36.5-18 6.458-2.88 24.279-14.596 29.5-15"/><path fill="#38b3d6" d="M921 370c-2.802 1.482-6.123 2.567-9 4 7.122-9.79 11.44-10.241 9-24 2.056.398 4.451-.969 6 1.5.22 9.116.777 11.509-6 18.5"/><path fill="#0d91b1" d="M124 386c12.314 4.805 51.034 18.845 62.5 17 15.597-2.509 15.77-26.337 9.5-37 .302.032 3.217-1.459 6-1 1.864.307 3.591-.76 5 1.5.286 18.937-1.444 38.688-10.5 55.5-18.081.587-112.023-36.46-115.5-50.5-.804-3.246 2.91-15.938 6-18.5-2.358 22.944 19.216 26.06 37 33"/><path fill="#78959f" d="M517 354c109.409 1.772 199.8 84.363 208 194-.309 16.937-5.739 5.026-13 13-2.424-90.382-69.133-169.821-157-189-28.929-6.314-51.665-6.883-81-2-62.423 10.391-119.316 53.181-146 111-3.834.343 1.432-8.443 2-9.5 17.364-32.298 44.23-59.345 75-79l-2-6.5c35.939-21.957 71.402-32.69 114-32"/><path fill="#5edff9" d="M170 382c-.21 3.905-4.575 7.708 3 8.5-14.409 2.997-33.619-2.396-47-8.5-1.73-.789-6.162-2.536-7-3-.903-.5-5.868-3.179-6-3.5-.976-2.375 2.61-17.507 5-20.5 17.216 9.191 38.893 12.642 52 27"/><path fill="#627d84" d="M753 432c-3.723 3.204 6.54 14.656 9 19.5 58.157 114.526 22.098 245.956-58 347-3.276 4.132-23.818 24.24-24 26-.158 1.532 2.638 3.841 4 4.5l-1.5 1c-8.795-9.166-21.297-13.806-33-18-48.666-17.442-110.02-22.707-161.5-20 6.306-14.959 19.795-8.683 32.5-10 77.682-8.05 136.278-44.456 175.5-112 12.518-21.556 24.304-48.131 28-73 10.106-53.083 7.907-109.543-7-161.5-6.41-22.341-23.916-63.985-40-80.5 32.688 18.658 56.615 45.168 76 77"/><path fill="#fdfdfe" d="M237 514c3.942-21.817 8.106-32.951 17-53 6.285 2.202 10.576-12.491 14-17.5 13.786-20.163 66.069-77.628 89.5-81.5 9.503-1.571 20.454.495 17.5 12.5-.837 3.404-25.755 19.319-30.5 23.5-45.87 40.418-61.241 82.039-75.5 140.5-1.879 2.62-24.998 8.55-29.5 7.5-4.721-2.089 3.893-30.165 2.5-32.5-.315-.529-3.557 1.159-5 .5"/><path fill="#1a7199" d="m210.5 366 33.5 3.5-26 52-19.5 1.5c8.585-17.956 12.573-36.966 12-57"/><path fill="#244b61" d="M555 372c-3.22 12.499-1.484 23.916 2.5 36 23.809 6.071 42.966 11.521 62.5 27-3.785-2.322-20.66-12.488-23.5-13-4.092-.737-2.239-.901-2.5 3-15.655-6.704-37.338-12.162-54-8-2.492-.203-5.477-.109-8 0-10.012.431-19.498 3.167-29 6 1.371-3.548 5.442-1.691 4-7.5l-12.5 2.5.5-8c.631-.085 1.578.164 2 0l.5 6c.281.481 7.252-3.301 4.5-8 5.655-1.952 11.336-3.578 17-5.5-14.733.332-28.436 7.676-41 14.5-.377.205-1.85.331-3 1l-5-8.5c13.326-9.149 29.352-13.236 45-17-.456-2.735-27.398 5.427-30 6.5-7.977-6.529-1.91-9.937-2-12.5-.067-1.902-10.51-12.008-9-16.5 29.335-4.883 52.071-4.314 81 2"/><path fill="#1a658b" d="M804.5 366c1.631.011 8.824-.454 9.5.5-.853 13.708.616 26.779 4 40 .858 3.351 7.578 15.262 4.5 16.5l-14.5-1.5-26-52c.215-1.669 20.373-3.515 22.5-3.5"/><path fill="#ebfaff" d="M174.5 369c1.605-.847 4.613.261 3.5 2.5-1.046 2.104-5.751-1.312-3.5-2.5"/><path fill="#355f76" d="M474 370c-1.51 4.492 8.933 14.598 9 16.5.09 2.563-5.977 5.971 2 12.5-5.497 2.266-11.987 6.65-17 10-8.558 4.163-17.064 10.565-24 17l-10-11c8.898-9.963 21.155-16.266 33.5-21-24.033 4.297-43.271 23.899-58.5 42-4.111-10.658-16.965-7.837-24-2-.658-4.598-8.604 4.899-10 6.5-19.292 22.138-32.235 52.67-37 81.5-7.863 6.012-12.222-10.825-20-12 2.8-10.051 5.626-19.522 10-29 26.684-57.819 83.577-100.609 146-111"/><path fill="#0a314b" d="M712 561c.974 36.296-8.021 71.595-26 103-45.255 79.048-137.905 115.837-226 94-26.055-6.458-52.817-19.556-74-36-27.966-21.71-50.828-52.822-63-86-4.861-13.251-9.072-26.918-11-41 18.121-6.355 27.913 28.947 48 18 2.765 3.854 5.796 7.51 9 11 27.976 30.469 68.786 47.977 110.5 44 51.374-4.898 101.085-53.634 86.5-107.5 5.634 6.332 2.751 16.116 4 23 .26 1.433-.537 3.502 2 2v-13c-2.682-15.52-9.174-29.136-21-39.5 5.782-.636 17.492 17.08 20 23.5 4.41 11.289 8.196 31.493 1 41l-.5-5.5c-5.214 22.697-14.85 43.927-33.5 59-6.479 2.961-12.578 8.833-18.5 12-56.299 30.105-108.077 16.464-152-27l14 15c20.416 20.113 80.58 40.925 107 31 4.163-1.564-3.97-2.186 0-4 23.432-10.709 31.842-8.917 53.5-28 36.491-32.153 51.359-77.528 18-118.5 5.88 3.873 10.792 10.373 14 16.5 17.753 33.91 5.262 70.313-16 99-9.418 7.335-18.091 16.98-28.5 23-31.991 18.502-77.928 23.076-113 12 2.363 3.106 12.746 6.035 17 7 49.117 11.14 106.073-5.348 134.5-48 18.322-27.49 26.013-64.746 9-95-14.03-24.949-41.835-35.471-69.5-30L482 527.5c42.783-41.989 102.351-6.807 108 47 2.008 19.127-1.93 37.472-9 55-.449 1.113-8.582 13.034-4.5 12.5 29.966-47.24 18.651-121.092-41.5-135.5 26.076.53 52.763 25.197 61 49 25.226 72.9-38.158 146.113-107.5 160.5-18.175 3.771-33.671 2.956-52 2l18 3c80.28.684 155.766-60.288 149.5-145.5-3.77-51.26-50.698-93.905-102.5-73.5-28.954 11.405-44.974 44.589-25.5 71.5-.062 3.064-3.873-1.816-4-2-15.947-23.116-6.15-55.101 16.5-69.5 26.839-17.062 60.196-10.829 85.5 5.5-26.477-25.729-81.854-23.097-103 9-7.021 10.656-7.269 20.582-10.5 32.5.009-66.495 81.022-79.463 126-44 32.934 25.967 40.39 77.544 31.5 116.5 2.769 1.818 3.33-1.117 4-3 17.98-50.507-16.759-124.519-71.5-137.5-64.606-15.32-127.377 49.094-71.5 102.5-21.442-12.293-27.055-38.812-20-62 5.298-17.414 29.643-38.84 47-44.5 43.012-14.026 92.247 8.625 114.5 47l-9.5-16.5c-24.663-28.945-60.134-41.937-98-34.5 2.019-10.754 16.34-4.083 24-9 50.346 3.746 89.859 35.338 107.5 82 .453-.703 2.459-2.098 2.5-2.5.297-2.89-16.904-30.979-20-35-29.241-37.978-79.624-58.825-126-49 19.023-8.565 48.842-6.017 69-.5 15.064 4.123 37.461 16.997 49.5 27 3.03 2.517 13.904 16.036 15 16 4.185-.136-7.341-13.262-8.5-14.5-14.234-15.206-35.09-24.713-55-29.5-19.57-4.705-37.833-6.816-58-4l-1-11c15.431-2.64 33.535-2.596 49 0 39.585 6.644 77.141 37.238 97.5 71 3.447.324-3.022-10.708-3.5-11.5-20.521-34.002-56.29-58.147-96-62.5-23.853-2.615-49.432.288-72 8 32.791-17.244 72.34-18.818 107-6 36.645 13.551 67.223 49.249 78.5 86l2.5.5c-6.418-20.678-17.23-41.491-32-57.5l3-1c2.114 2.251 8.977 12.946 11 9.5-17.449-20.944-37.46-43.564-63-54.5.261-3.901-1.592-3.737 2.5-3 2.84.512 19.715 10.678 23.5 13 1.364 1.081.354 1.317 4 3 .114.052.794 1.862 1.5 2 1.828-2.4-1.351-1.846-1.5-2-2.191-2.257-1.747-1.618-4-3-19.534-15.479-38.691-20.929-62.5-27-3.984-12.084-5.72-23.501-2.5-36 87.867 19.179 154.576 98.618 157 189m-114.5 94c-25.466 36.643-49.426 64.294-95 74-3.122.665-18.098-.268-16.5 3.5 46.82-3.609 94.788-32.426 111.5-77.5m-219 20c31.693 29.913 84.277 45.33 125.5 26.5-45.956 10.293-88.975 4.036-125.5-26.5"/><path fill="#597784" d="m403 386 2 6.5c-30.77 19.655-57.636 46.702-75 79-.568 1.057-5.834 9.843-2 9.5-4.374 9.478-7.2 18.949-10 29-8.331 29.908-10.28 53.743-6 85 1.928 14.082 6.139 27.749 11 41-5.429-6.104-6.059-3.114-13-1-30.768-96.16 7.741-196.91 93-249"/><path fill="#267795" d="M475 418c-21.578 12.548-38.901 31.611-50 54l-7-4c11.88-24.485 27.004-43.632 50-59 5.013-3.35 11.503-7.734 17-10 2.602-1.073 29.544-9.235 30-6.5-15.648 3.764-31.674 7.851-45 17z"/><path fill="#56a0ad" d="m434 415-24 25c-.129-1.098-.62-3.014-1-4 15.229-18.101 34.467-37.703 58.5-42-12.345 4.734-24.602 11.037-33.5 21"/><path fill="#1e909d" d="M502 408c-2.201.76-3.252 1.323-5 2-.422.164-1.369-.085-2 0-5.614 2.639-11.63 4.88-17 8v-1c12.564-6.824 26.267-14.168 41-14.5-5.664 1.922-11.345 3.548-17 5.5"/><path fill="#247595" d="M502 408c2.752 4.699-4.219 8.481-4.5 8l-.5-6c1.748-.677 2.799-1.24 5-2"/><path fill="#11bcd6" d="M468 409c-22.996 15.368-38.12 34.515-50 59-11.077 22.829-15.159 31.67-14 58 .863 19.594 4.705 43.398 18 59 .118.138-.058 2.429 1.5 3 1.835-1.72-1.435-2.845-1.5-3-.981-2.336-4.999-8.963-5-9.5-.002-1.307 3.146-2.659 3-4-.187-1.71-6.221-10.898-7-14-3.021-12.023-3.701-19.089-3-31.5 1.095-19.4 6.441-36.736 15-54 11.099-22.389 28.422-41.452 50-54 1.15-.669 2.623-.795 3-1v1c-16.518 9.598-44.07 35.46-49 54-14.632 23.446-18.48 56.419-11 83 6.807 24.191 21.49 40.636 45.5 49 32.51 11.325 75.379 6.295 83-33-4.377 13.36-16.448 25.723-30.5 28-5.249.851-7.256.921-12.5 0-1.16-.204-21.134-8.587-17-3 .42.568 10.223 2.633 12.5 5.5-.188.738-9.492.659-11 .5-39.107-4.132-59.884-47.765-57-83 1.552-18.968 6.528-31.611 19-46 7.03-8.111 18.157-17.599 28-22v1c-46.961 20.378-59.767 106.984-12 134 4.423 2.502 10.831 6.341 16 6.5-17.883-8.118-32.506-24.278-37-43.5 4.517-7.021-2.221-21.384 5-28-5.845 23.963 1.778 44.853 20.5 60-35.401-40.528-14.358-91.145 34.5-106l1 2c-17.357 5.66-41.702 27.086-47 44.5-7.055 23.188-1.442 49.707 20 62-55.877-53.406 6.894-117.82 71.5-102.5 54.741 12.981 89.48 86.993 71.5 137.5-.67 1.883-1.231 4.818-4 3 8.89-38.956 1.434-90.533-31.5-116.5-44.978-35.463-125.991-22.495-126 44 3.231-11.918 3.479-21.844 10.5-32.5 21.146-32.097 76.523-34.729 103-9-25.304-16.329-58.661-22.562-85.5-5.5-22.65 14.399-32.447 46.384-16.5 69.5.127.184 3.938 5.064 4 2-19.474-26.911-3.454-60.095 25.5-71.5 51.802-20.405 98.73 22.24 102.5 73.5 6.266 85.212-69.22 146.184-149.5 145.5l-18-3c18.329.956 33.825 1.771 52-2 69.342-14.387 132.726-87.6 107.5-160.5-8.237-23.803-34.924-48.47-61-49 60.151 14.408 71.466 88.26 41.5 135.5-4.082.534 4.051-11.387 4.5-12.5 7.07-17.528 11.008-35.873 9-55-5.649-53.807-65.217-88.989-108-47l25.5-11.5c27.665-5.471 55.47 5.051 69.5 30l-3 2c-3.208-6.127-8.12-12.627-14-16.5 33.359 40.972 18.491 86.347-18 118.5-.675.388-3.812.914-4 1 18.65-15.073 28.286-36.303 33.5-59l.5 5.5c7.196-9.507 3.41-29.711-1-41-2.508-6.42-14.218-24.136-20-23.5-1.334.147-2.194-2.303-3 3-4.449-3.181-13.476-6.467-19-5.5 48.279 13.774 37.522 67.03 9 96.5l-21 10c-.103-4.889 8.366-5.809 11.5-8 13.27-9.278 24.315-24.839 28.5-40.5V578c-.512-.128-1.713-.76-2-1v-15c-1.382-.383-1.436-.167-2 1-2.346 4.852-2.65 13.776-5 19.5-22.019 53.633-95.441 47.211-127 7.5-10.914-13.733-17.849-36.72-20-54-3.844-30.88 1.41-49.75 16-75 7.725-13.369 15.635-24.457 27-35 6.936-6.435 15.442-12.837 24-17m39.5 124c-24.465 2.561-35.985 42.119-13 57 44.199 28.616 59.738-61.892 13-57m-84 47c1.512 3.52 5.103 9.743 7.5 12.5 11.964 13.764 34.342 25.213 52.5 26.5 7.177.509 15.676-.014 22.5-2.5-33.431 5.053-62.42-10.776-82.5-36.5"/><path fill="#257494" d="M503 423c-29.355 8.753-60.549 29.543-74 58-2.048-1.791-.596-6.759 0-9 4.93-18.54 32.482-44.402 49-54 5.37-3.12 11.386-5.361 17-8l-.5 8 12.5-2.5c1.442 5.809-2.629 3.952-4 7.5"/><path fill="#247595" d="M444 426c-11.365 10.543-19.275 21.631-27 35l-10-5c2.293-5.689 3.754-9.577 3-16l24-25z"/><path fill="#31616d" d="M594 425c25.54 10.936 45.551 33.556 63 54.5-2.023 3.446-8.886-7.249-11-9.5-29.779-31.7-51.683-48.813-97-50 .817-2.177-6.574-2.803-9-3 16.662-4.162 38.345 1.296 54 8"/><path fill="#2cd0e7" d="m532 417 3 3c-36.386 3.003-66.547 19.492-90 47-16.572 19.438-21.312 32.877-21 59 .462 38.654 21.701 76.538 64 78 10.052.347 17.606-5.035 25 0-34.109 22.159-84.734-23.519-91-59-3.664-20.746-2.112-44.722 7-64 13.451-28.457 44.645-49.247 74-58 9.502-2.833 18.988-5.569 29-6"/><path fill="#329eab" d="M540 417c2.426.197 9.817.823 9 3-5.497-.144-8.126-.485-14 0l-3-3c2.523-.109 5.508-.203 8 0"/><path fill="#0f5373" d="M549 420c45.317 1.187 67.221 18.3 97 50l-3 1c-13.947-15.117-29.735-25.878-49-33-30.69-11.346-53.209-9.762-84.5-1-9.45 2.646-22.112 7.338-29.5 13-1.066.437-1.618.829-2 1-9.843 4.401-20.97 13.889-28 22-2.936-.229-5.56-3.368-5-6 23.453-27.508 53.614-43.997 90-47 5.874-.485 8.503-.144 14 0"/><path fill="#fefefe" d="M409 436c.38.986.871 2.902 1 4 .754 6.423-.707 10.311-3 16-1.312 3.254-5.377 9.85-8 12-4.026 3.299-10.843 6.165-16 5-15.022-3.393-7.376-31.221 2-39 7.035-5.837 19.889-8.658 24 2"/><path fill="#6cc4e0" d="m264 433 2 2c-4.743 8.156-8.176 17.381-12 26-8.894 20.049-13.058 31.183-17 53-9.721 53.802-6.334 109.647 9 162 4.477 15.285 10.222 30.611 17 45l-3-.5c15.628 45.228 46.792 81.965 82 113.5-2.748 8.73-.42 16.846 1 25-16.414-9.352-32.503-26.113-45-40.5-84.194-96.931-114.387-251.856-69-373 1.562-4.169 4.509-13.426 8-15-6.243 12.068-1.833 24.546-3 36-2.591 25.431-11.256 51.52-6 78 1.759-40.756 15.284-77.042 36-111.5"/><path fill="#199aad" d="M594 438v4c-34.66-12.818-74.209-11.244-107 6-2.212.756-4.858 1.121-7 2 7.388-5.662 20.05-10.354 29.5-13 31.291-8.762 53.81-10.346 84.5 1"/><path fill="#70a0ad" d="M385 434c-9.376 7.779-17.022 35.607-2 39v3c-16-6.565-30.818 16.007-22 31-2.925-1.341-3.561.039-4 2.5-1.383 7.749-.111 27.157 1 35.5l-11 1c-.896-2.985-1.925-4.603-3-7-.647-1.444-1.234-4.9-1.5-5-.379-.142-1.137 4.504-6.5 0 .315-4.092 1.339-8 2-12 4.765-28.83 17.708-59.362 37-81.5 1.396-1.601 9.342-11.098 10-6.5"/><path fill="#6e8b92" d="M692 822c-2.521 2.392-5.309 4.784-8 7-1.362-.659-4.158-2.968-4-4.5.182-1.76 20.724-21.868 24-26 80.098-101.044 116.157-232.474 58-347-2.46-4.844-12.723-16.296-9-19.5 74.193 121.833 40.403 293.788-61 390"/><path fill="#244a60" d="M624 438c-3.646-1.683-2.636-1.919-4-3 2.253 1.382 1.809.743 4 3"/><path fill="#26616d" d="M643 471c14.77 16.009 25.582 36.822 32 57.5l-2.5-.5c-11.277-36.751-41.855-72.449-78.5-86v-4c19.265 7.122 35.053 17.883 49 33"/><path fill="#244a60" d="M624 438c.149.154 3.328-.4 1.5 2-.706-.138-1.386-1.948-1.5-2"/><path fill="#2c7e8c" d="m559 440 2 3c-15.465-2.596-33.569-2.64-49 0-10.601 1.814-19.645 6.144-29.5 10-1.707.668-1.179-2.441-4.5-1v-1c.382-.171.934-.563 2-1 2.142-.879 4.788-1.244 7-2 22.568-7.712 48.147-10.615 72-8"/><path fill="#295763" d="m561 443-2-3c39.71 4.353 75.479 28.498 96 62.5.478.792 6.947 11.824 3.5 11.5-20.359-33.762-57.915-64.356-97.5-71"/><path fill="#247595" d="M513 454c-29.351 4.098-50.557 16.712-65 43-11.488 20.911-16.093 44.272-1 65 4.041 8.335 13.404 16.658 19 24-47.767-27.016-34.961-113.622 12-134 3.321-1.441 2.793 1.668 4.5 1 9.855-3.856 18.899-8.186 29.5-10z"/><path fill="#0a2436" d="M206 453c-4.558 1.831-9.361.544-14 1-1.66.163-12.422 1.687-13 2-3.691 1.996-5.229 20.6-6 26-.272 1.902.232 4.077 0 6-.558 4.614-1.597 9.329-2 14-.821 9.51-1.665 19.489-2 29-.117 3.313.056 6.683 0 10-.168 9.92-.31 20.088 0 30 .218 6.976 1.489 14.077 2 21 .798 10.804 1.311 21.223 3 32 .572 3.651 3.078 24.139 4 25.5.991 1.464 19.646 6.999 23 6.5.17.744.721 1.848 1 3-26.53-3.853-34.008-15.606-44-38.5-19.744-45.24-22.258-119.846 12-159 11.276-12.888 23.603-6.079 38-11.5-.855 2.851-1.951 2.827-2 3m-58 78c-.424 5.13.088 10.785 0 16-.112 6.692-.474 12.208 0 19 .531 7.612 1.454 14.542 3 22 1.63 7.864 3.784 11.333 6 18 1.043 3.138 1.76 5.856 3 9 4.226 10.709 8.257 21.246 14.5 31-.46-10.781-3.094-21.302-4.5-32-2.268-17.256-3.636-32.53-4-50a537 537 0 0 1 0-21c.092-4.971-.241-10.042 0-15 1.105-22.777 5.849-45.296 7.5-68-15.874 22.987-23.185 42.961-25.5 71"/><path fill="#071e31" d="M806 716c2.821-16.906 11.263-33.717 16-50.5 1.097-3.888 3.749-9.505 4-10.5 3.312 1.106 19.63-4.313 21-6.5 2.721-4.342 7.359-46.635 8-54.5 1.112-13.64 2.065-28.348 2-42-.087-18.341-1.639-39.797-4-58-.585-4.508-5.567-36.242-7-37.5-1.144-1.004-24.256-5.591-27-2.5-.699-2.784-.671-1.475 1-4 6.13 3.045 20.371 1.3 27.5 5 5.023 2.607 22.219 32.31 24.5 38.5 15.425 41.853 9.937 112.483-17 149-10.668 14.462-25.645 11.417-30 16-1.192 1.254-5.659 22.135-7 26-3.69 10.63-7.8 21.078-12 31.5m52-199c.483 5.945.736 12.034 1 18 .292 6.609-.032 13.375 0 20 .034 6.952.264 14.06 0 21-.298 7.809-.3 16.268-1 24-.266 2.939-1.625 6.947-2 10-1.357 11.042-4.031 21.898-4.5 33 6.335-10.093 10.363-20.894 14.5-32 1.476-3.962 3.835-7.913 5-12 2.017-7.077 3.057-13.744 4-21 .919-7.069 1.848-13.828 2-21 .146-6.867-.621-13.246-1-20-.325-5.794-.215-11.136-1-17-3.268-24.399-10.558-39.136-24.5-59 .848 18.796 5.979 37.282 7.5 56"/><path fill="#12bcd1" d="m571 458-1 1c-20.158-5.517-49.977-8.065-69 .5 46.376-9.825 96.759 11.022 126 49 3.096 4.021 20.297 32.11 20 35-.041.402-2.047 1.797-2.5 2.5-17.641-46.662-57.154-78.254-107.5-82-10.85-.807-17.403-.064-28 3-1.133-6.13-11.514-1.009-16.5 1-31.371 12.642-52.296 37.441-49.5 73l-2 1c-.933-9.023.335-23.772 3-32.5.719-2.356 8.196-11.118 4-12.5 14.443-26.288 35.649-38.902 65-43 20.167-2.816 38.43-.705 58 4"/><path fill="#4692b0" d="m853 494-24-1c-2.464-13.567-6.691-25.819-10-39 2.744-3.091 25.856 1.496 27 2.5 1.433 1.258 6.415 32.992 7 37.5"/><path fill="#57c0e4" d="M206 453c-9.903 34.96-16.581 82.74-16 119l-21-1c-.31-9.912-.168-20.08 0-30 5.522-2.16 25.855 3.43 21-7.5-1.047-2.356-17.703-1.687-21-2.5.335-9.511 1.179-19.49 2-29 .129 12.357 10.543 8.176 19.5 10 11.398-20.52.282-19.873-17.5-24 .232-1.923-.272-4.098 0-6 24.145 6.175 26.438 6.27 28-19 .019-.315 4.592-2.12.5-5-2.787-1.962-12.148 1.254-9.5-4 4.639-.456 9.442.831 14-1"/><path fill="#63c9eb" d="M201 463c-5.365-.808-22.655.737-22-7 .578-.313 11.34-1.837 13-2-2.648 5.254 6.713 2.038 9.5 4 4.092 2.88-.481 4.685-.5 5"/><path fill="#6dd3f3" d="M201 463c-1.562 25.27-3.855 25.175-28 19 .771-5.4 2.309-24.004 6-26-.655 7.737 16.635 6.192 22 7"/><path fill="#4aaec7" d="M417 461c-14.59 25.25-19.844 44.12-16 75l-10 2c-3.178-24.794-.144-46.647 8-70 2.623-2.15 6.688-8.746 8-12z"/><path fill="#2c5e68" d="m570 459 1-1c19.91 4.787 40.766 14.294 55 29.5 1.159 1.238 12.685 14.364 8.5 14.5-1.096.036-11.97-13.483-15-16-12.039-10.003-34.436-22.877-49.5-27"/><path fill="#f3f8fb" d="m166 528-18 3c2.315-28.039 9.626-48.013 25.5-71-1.651 22.704-6.395 45.223-7.5 68"/><path fill="#eff6f9" d="m875 520-17-3c-1.521-18.718-6.652-37.204-7.5-56 13.942 19.864 21.232 34.601 24.5 59"/><path fill="#25d7f0" d="M509 467c-24.303 7.028-52.718 28.245-59 54-7.221 6.616-.483 20.979-5 28-.634-2.711-1.772-5.102-2-8-2.796-35.559 18.129-60.358 49.5-73 4.986-2.009 15.367-7.13 16.5-1"/><path fill="#085c7d" d="M537 464c-7.66 4.917-21.981-1.754-24 9-2.333.458-5.738 1.312-8 2-48.858 14.855-69.901 65.472-34.5 106-18.722-15.147-26.345-36.037-20.5-60 6.282-25.755 34.697-46.972 59-54 10.597-3.064 17.15-3.807 28-3"/><path fill="#248faf" d="M450 473c-12.472 14.389-17.448 27.032-19 46-4.901 1.031 1.867 8.808-7 7-.312-26.123 4.428-39.562 21-59-.56 2.632 2.064 5.771 5 6"/><path fill="#2eb5ca" d="M391 538c2.288 17.853 11.757 39.447 24 55 41.03 52.125 132.407 43.695 138-30 .564-1.167.618-1.383 2-1 1.409 3.021-2.422 12.97 0 15 .287.24 1.488.872 2 1-11.266 67.023-91.586 69.387-135 30-9.48-8.6-19.878-24.266-25-36-5.168-11.841-8.281-24.316-10.5-37-6.99-1.357-3.285 3.48-5 5-.726.644-15.391 1.953-19 4-1.157 1.259 1.457 5.512 1.5 6 1.486 16.68 7.74 29.209 17 43 30.84 45.929 83.403 62.92 136 44l21-10c-34.919 36.079-95.491 25.887-133-2-25.371-18.863-42.808-48.516-47-80-1.111-8.343-2.383-27.751-1-35.5.439-2.461 1.075-3.841 4-2.5 16.561 28.159 38.633-24.175 22-31v-3c5.157 1.165 11.974-1.701 16-5-8.144 23.353-11.178 45.206-8 70"/><path fill="#4aaec7" d="M425 472c-8.559 17.264-13.905 34.6-15 54h-6c-1.159-26.33 2.923-35.171 14-58z"/><path fill="#20808c" d="m506 477-1-2c2.262-.688 5.667-1.542 8-2 37.866-7.437 73.337 5.555 98 34.5l9.5 16.5c-22.253-38.375-71.488-61.026-114.5-47"/><path fill="#2691ad" d="M429 472c-.596 2.241-2.048 7.209 0 9-9.112 19.278-10.664 43.254-7 64-3.198 3.296.777 8.433-4 10-7.48-26.581-3.632-59.554 11-83"/><path fill="#fefeff" d="M383 476c16.633 6.825-5.439 59.159-22 31-8.818-14.993 6-37.565 22-31"/><path fill="#75d9f7" d="M171 502c.403-4.671 1.442-9.386 2-14 17.782 4.127 28.898 3.48 17.5 24-8.957-1.824-19.371 2.357-19.5-10"/><path fill="#3481a0" d="M853 494c2.361 18.203 3.913 39.659 4 58-4.554-3.743-.357-23.664-3-26.5-.691-.741-17.141-.918-20-1.5-1.036-10.406-3.135-20.732-5-31z"/><path fill="#2ddbeb" d="M441 542c.477 4.616 3.913 15.696 6 20-15.093-20.728-10.488-44.089 1-65 4.196 1.382-3.281 10.144-4 12.5-2.665 8.728-3.933 23.477-3 32.5"/><path fill="#244a60" d="M338 522c-.661 4-1.685 7.908-2 12-1.374 17.847-.27 24.13 5 41 4.524 14.482 10.101 25.596 19 38-20.087 10.947-29.879-24.355-48-18-4.28-31.257-2.331-55.092 6-85 7.778 1.175 12.137 18.012 20 12"/><path fill="#8ba7b4" d="M875 520c.785 5.864.675 11.206 1 17l-17-2c-.264-5.966-.517-12.055-1-18z"/><path fill="#0f5373" d="M431 519c-2.884 35.235 17.893 78.868 57 83v2c-42.299-1.462-63.538-39.346-64-78 8.867 1.808 2.099-5.969 7-7"/><path fill="#1d5d7b" d="M857 552c.065 13.652-.888 28.36-2 42-4.553-4.193-13.243-1.048-19-2 1.222-21.368.125-46.662-2-68 2.859.582 19.309.759 20 1.5 2.643 2.836-1.554 22.757 3 26.5"/><path fill="#247595" d="M410 526c-.701 12.411-.021 19.477 3 31.5.779 3.102 6.813 12.29 7 14 .146 1.341-3.002 2.693-3 4 .001.537 4.019 7.164 5 9.5-13.295-15.602-17.137-39.406-18-59z"/><path fill="#8fadbc" d="M166 528c-.241 4.958.092 10.029 0 15-6.272-.142-12.539 1.022-18 4 .088-5.215-.424-10.87 0-16z"/><path fill="#023653" d="M548 536c32.073 22.933 12.798 78.824-12.5 101-47.057 41.249-103.783 30.194-151.5-3l4-7c26.537 23.091 90.392 41.511 122 24 .674-.373 3.017.61 4-1.5-1.256-1.643-3.793 1.446-4 1.5-34.645 9.07-80.055 1.546-110-18l5-8c37.509 27.887 98.081 38.079 133 2 28.522-29.47 39.279-82.726-9-96.5 5.524-.967 14.551 2.319 19 5.5"/><path fill="#6fd4f6" d="M169 541c.056-3.317-.117-6.687 0-10 3.297.813 19.953.144 21 2.5 4.855 10.93-15.478 5.34-21 7.5"/><path fill="#0cb7cf" d="M551 533c11.826 10.364 18.318 23.98 21 39.5v13c-2.537 1.502-1.74-.567-2-2-1.249-6.884 1.634-16.668-4-23 14.585 53.866-35.126 102.602-86.5 107.5-41.714 3.977-82.524-13.531-110.5-44l1-1c6.167 6.582 7.34 6.367 14 11 47.717 33.194 104.443 44.249 151.5 3 25.298-22.176 44.573-78.067 12.5-101 .806-5.303 1.666-2.853 3-3"/><path fill="#002640" d="M507.5 533c46.738-4.892 31.199 85.616-13 57-22.985-14.881-11.465-54.439 13-57"/><path fill="#236d8b" d="M344 539c3.417 31.155 20.163 67.258 44 88l-4 7c-6.66-4.633-7.833-4.418-14-11-11.946-12.75-21.667-30.832-27-47.5-.556-1.737-.953-4.607-2-.5-5.27-16.87-6.374-23.153-5-41 5.363 4.504 6.121-.142 6.5 0 .266.1.853 3.556 1.5 5"/><path fill="#208ea8" d="M397 572c-6.906 1.012-1.216 9.394 1 13.5 4.974 9.218 15.974 20.692 24 27.5 18.993 16.11 45.885 29.734 71.5 26 1.979 1.729-3.631 2.938-4 3-31.119 5.198-92.179-23.628-107.5-51-5.727-10.231-8.086-27.388-13-37.5-1.365-2.809-.892-4.2-5-3.5-.043-.488-2.657-4.741-1.5-6 3.609-2.047 18.274-3.356 19-4 1.715-1.52-1.99-6.357 5-5 2.219 12.684 5.332 25.159 10.5 37"/><path fill="#d3e0e5" d="M876 537c.379 6.754 1.146 13.133 1 20l-18-2c-.032-6.625.292-13.391 0-20z"/><path fill="#247595" d="M401 536c2.151 17.28 9.086 40.267 20 54l-6 3c-12.243-15.553-21.712-37.147-24-55z"/><path fill="#2e96a2" d="M347 546c11.103 36.998 18.527 64.498 53 87 29.945 19.546 75.355 27.07 110 18-31.608 17.511-95.463-.909-122-24-23.837-20.742-40.583-56.845-44-88 1.075 2.397 2.104 4.015 3 7"/><path fill="#032f50" d="M445 549c4.494 19.222 19.117 35.382 37 43.5-5.169-.159-11.577-3.998-16-6.5-5.596-7.342-14.959-15.665-19-24-2.087-4.304-5.523-15.384-6-20l2-1c.228 2.898 1.366 5.289 2 8"/><path fill="#e1ebf0" d="M166 543a537 537 0 0 0 0 21l-18 2c-.474-6.792-.112-12.308 0-19 5.461-2.978 11.728-4.142 18-4"/><path fill="#236d8b" d="M358 545c4.192 31.484 21.629 61.137 47 80l-5 8c-34.473-22.502-41.897-50.002-53-87z"/><path fill="#014964" d="M513 604c1.461-.949 3.942 1.758 3-5 14.052-2.277 26.123-14.64 30.5-28-7.621 39.295-50.49 44.325-83 33-24.01-8.364-38.693-24.809-45.5-49 4.777-1.567.802-6.704 4-10 6.266 35.481 56.891 81.159 91 59"/><path fill="#0b7185" d="M577 546c17.013 30.254 9.322 67.51-9 95-2.972.567-7.569 4.107-10 6 21.262-28.687 33.753-65.09 16-99z"/><path fill="#93aeb6" d="M724 597c-3.696 24.869-15.482 51.444-28 73l-10-6c17.979-31.405 26.974-66.704 26-103 7.261-7.974 12.691 3.937 13-13 1.106 14.781 1.168 34.41-1 49"/><path fill="#2f85a4" d="m382 591-1 2c-9.26-13.791-15.514-26.32-17-43 4.108-.7 3.635.691 5 3.5 4.914 10.112 7.273 27.269 13 37.5"/><path fill="#6f8996" d="M877 557c-.152 7.172-1.081 13.931-2 21l-16-2c.264-6.94.034-14.048 0-21z"/><path fill="#084969" d="M555 577c-2.422-2.03 1.409-11.979 0-15z"/><path fill="#0a324c" d="m415 593 6-3c31.559 39.711 104.981 46.133 127-7.5 2.35-5.724 2.654-14.648 5-19.5-5.593 73.695-96.97 82.125-138 30"/><path fill="#74909d" d="M166 564c.364 17.47 1.732 32.744 4 50l-10 1c-1.24-3.144-1.957-5.862-3-9 .267-3.594 8.876-2.127 10-3.5.476-.582-.565-14.387-1-15-.648-.912-12.999-.978-15 .5-1.546-7.458-2.469-14.388-3-22z"/><path fill="#2c8eb2" d="M190 572c.158 9.887 2.964 20.922 3 31-.024-.1-1.76.365-2-.5-.583-2.102.869-8.215-.5-9.5-1.181-1.109-16.709-1.004-19.5-1-.511-6.923-1.782-14.024-2-21z"/><path fill="#146889" d="M422 608v5c-8.026-6.808-19.026-18.282-24-27.5-2.216-4.106-7.906-12.488-1-13.5 5.122 11.734 15.52 27.4 25 36"/><path fill="#2b95af" d="m370 623-1 1c-3.204-3.49-6.235-7.146-9-11-8.899-12.404-14.476-23.518-19-38 1.047-4.107 1.444-1.237 2 .5 5.333 16.668 15.054 34.75 27 47.5"/><path fill="#003250" d="M517 637c-52.597 18.92-105.16 1.929-136-44l1-2c15.321 27.372 76.381 56.198 107.5 51 .369-.062 5.979-1.271 4-3-25.615 3.734-52.507-9.89-71.5-26v-5c43.414 39.387 123.734 37.023 135-30v10.5c-4.185 15.661-15.23 31.222-28.5 40.5-3.134 2.191-11.603 3.111-11.5 8"/><path fill="#4e6776" d="M875 578c-.943 7.256-1.983 13.923-4 21l-13 1c.7-7.732.702-16.191 1-24z"/><path fill="#03526c" d="M423.5 580c20.08 25.724 49.069 41.553 82.5 36.5-6.824 2.486-15.323 3.009-22.5 2.5-18.158-1.287-40.536-12.736-52.5-26.5-2.397-2.757-5.988-8.98-7.5-12.5"/><path fill="#247595" d="M422 585c.065.155 3.335 1.28 1.5 3-1.558-.571-1.382-2.862-1.5-3"/><path fill="#536d7c" d="M157 606c-2.216-6.667-4.37-10.136-6-18 2.001-1.478 14.352-1.412 15-.5.435.613 1.476 14.418 1 15-1.124 1.373-9.733-.094-10 3.5"/><path fill="#fdfefe" d="M282 705c6.47 12.912 12.853 25.536 21 37.5 5.678 8.337 45.904 55.261 46 59 .068 2.663-15.421 8.665-16.5 8.5-6.857-1.051-50.966-66.584-56.5-76.5-10.569-18.937-18.155-36.59-24-57.5-7.295-26.097-17.165-61.9-6.5-87 5.525-2.309 10.827 17.876 11.5 21.5 8.138 43.835 3.598 51.787 25 94.5"/><path fill="#237597" d="M193 603c1.544 6.498 1.661 15.731 3 23l-22-2c-1.689-10.777-2.202-21.196-3-32 2.791-.004 18.319-.109 19.5 1 1.369 1.285-.083 7.398.5 9.5.24.865 1.976.4 2 .5"/><path fill="#134f6c" d="M855 594c-.641 7.865-5.279 50.158-8 54.5-1.37 2.187-17.688 7.606-21 6.5 4.642-18.405 8.92-44.108 10-63 5.757.952 14.447-2.193 19 2"/><path fill="#047895" d="M516 599c.942 6.758-1.539 4.051-3 5-7.394-5.035-14.948.347-25 0v-2c1.508.159 10.812.238 11-.5-2.277-2.867-12.08-4.932-12.5-5.5-4.134-5.587 15.84 2.796 17 3 5.244.921 7.251.851 12.5 0"/><path fill="#64818f" d="M871 599c-1.165 4.087-3.524 8.038-5 12l-10-1c.375-3.053 1.734-7.061 2-10z"/><path fill="#486979" d="M866 611c-4.137 11.106-8.165 21.907-14.5 32 .469-11.102 3.143-21.958 4.5-33z"/><path fill="#4b6b7c" d="m160 615 10-1c1.406 10.698 4.04 21.219 4.5 32-6.243-9.754-10.274-20.291-14.5-31"/><path fill="#176584" d="M196 626c1.819 9.876 2.76 20.215 5 30-3.354.499-22.009-5.036-23-6.5-.922-1.361-3.428-21.849-4-25.5z"/><path fill="#78959f" d="M323 636c12.172 33.178 35.034 64.29 63 86-2.554 1.384-8.854 7.496-7 11-19.292-15.735-38.256-35.425-51-57-6.811-11.531-13.902-28.193-18-41 6.941-2.114 7.571-5.104 13 1"/><path fill="#267b81" d="M538 651c.188-.086 3.325-.612 4-1-21.658 19.083-30.068 17.291-53.5 28-3.97 1.814 4.163 2.436 0 4-26.42 9.925-86.584-10.887-107-31l-14-15c43.923 43.464 95.701 57.105 152 27 5.922-3.167 12.021-9.039 18.5-12"/><path fill="#0fb3ca" d="M568 641c-28.427 42.652-85.383 59.14-134.5 48-4.254-.965-14.637-3.894-17-7 35.072 11.076 81.009 6.502 113-12 10.409-6.02 19.082-15.665 28.5-23 2.431-1.893 7.028-5.433 10-6"/><path fill="#29929d" d="M510 651c.207-.054 2.744-3.143 4-1.5-.983 2.11-3.326 1.127-4 1.5"/><path fill="#205260" d="M597.5 655c-16.712 45.074-64.68 73.891-111.5 77.5-1.598-3.768 13.378-2.835 16.5-3.5 45.574-9.706 69.534-37.357 95-74"/><path fill="#bed3d8" d="M696 670c-39.222 67.544-97.818 103.95-175.5 112-12.705 1.317-26.194-4.959-32.5 10-28.725 1.51-126.555 14.984-143 38-33.516-28.703-63.213-69.118-82-109-6.778-14.389-12.523-29.715-17-45h6c5.845 20.91 13.431 38.563 24 57.5 5.534 9.916 49.643 75.449 56.5 76.5 1.079.165 16.568-5.837 16.5-8.5-.096-3.739-40.322-50.663-46-59-8.147-11.964-14.53-24.588-21-37.5 12.754-8.069 25.62-20.682 38.5-28 2.325-1.321 5.125-3.737 7.5-1 12.744 21.575 31.708 41.265 51 57 22.451 18.312 48.175 34.937 77 40.5l4-15.5c88.095 21.837 180.745-14.952 226-94z"/><path fill="#16c2d4" d="M378.5 675c36.525 30.536 79.544 36.793 125.5 26.5-41.223 18.83-93.807 3.413-125.5-26.5"/><path fill="#31a3c5" d="M263 721c18.787 39.882 48.484 80.297 82 109-.587.822-2.925 3.762-3 4-35.208-31.535-66.372-68.272-82-113.5z"/><path fill="#93aeb6" d="M386 722c21.183 16.444 47.945 29.542 74 36l-4 15.5c-28.825-5.563-54.549-22.188-77-40.5-1.854-3.504 4.446-9.616 7-11"/><path fill="url(#b)" d="M639 894c21.501-24.745 22.171-52.93-7.5-71-55.821-33.997-330.079-37.462-241.5 73-21.206-14.47-51.062-22.932-48-54.5 1.982-20.429 50.982-31.51 68.5-35.5 71.17-16.211 163.149-15.056 233 7 12.114 3.825 39.477 12.382 41.5 26.5 4.329 30.215-23.406 43.348-46 54.5" style="fill:url(#b)"/>/&gt;<path fill="#03172c" d="M639 894c-5.01 5.766-11.596 8.789-16 15-85.053 38.115-155.499 32.454-238-9l9.5 3 .5-2.5c-1.102-1.836-3.782-2.981-5-4.5-88.579-110.462 185.679-106.997 241.5-73 29.671 18.07 29.001 46.255 7.5 71m-247-8c30.597 57.52 219.039 59.641 245-1 22.372-25.131 8.315-50.221-19-63-46.358-21.689-182.131-24.083-223.5 8-13.892 10.774-18.077 24.626-13.5 41.5.421 1.552 7.5 19.128 11 14.5"/><path fill="#294e64" d="m618 822-2 15c-34.577-13.823-180.086-13.911-212.5 3-18.025 9.404-20.462 29.152-11.5 46-3.5 4.628-10.579-12.948-11-14.5-4.577-16.874-.392-30.726 13.5-41.5 41.369-32.083 177.142-29.689 223.5-8"/><path fill="#183448" d="M637 885c9.476-22.134.493-39.408-21-48l2-15c27.315 12.779 41.372 37.869 19 63"/><path fill="url(#c)" d="M616 837c21.493 8.592 30.476 25.866 21 48-25.961 60.641-214.403 58.52-245 1-8.962-16.848-6.525-36.596 11.5-46 32.414-16.911 177.923-16.823 212.5-3m-186 5c-15.013 3.745-33.526 12.986-20 31 2.05 2.729 6.027 5.413 9 7-2.242 4.136 8.483 11.164 11.5 13 25.021 15.229 58.906 16.302 87.5 16 2.32-.024 4.682.073 7 0 1.323-.042 2.679.058 4 0 30.432-1.341 67.679-4.655 86-32 1.542-2.301 6.51-7.303 7-9.5 7.243-32.474-58.67-30.812-78-31.5-33.382-1.189-82.298-1.908-114 6" style="fill:url(#c)"/>/&gt;<path fill="#c5edfa" d="m544 836-4 2c-20.863-.373-43.285-1.627-64 0-13.933 1.094-38.736 3.817-51 10-2.71-3.188 4.868-2.105 5-6 31.702-7.908 80.618-7.189 114-6"/><path fill="#6ec8ea" d="M615 877c-23.938 12.637-51.617 12.762-78 15 2.196-.175 17.419-3.112 23-4 11.858-1.886 45.208-6.913 52-18 16.014-26.143-46.155-30.25-61-31-3.627-1.389-7.245-.933-11-1l4-2c19.33.688 85.243-.974 78 31.5-.49 2.197-5.458 7.199-7 9.5"/><path fill="#0484b1" d="M540 838c3.755.067 7.373-.389 11 1-23.265-1.175-47.305 1.783-70.5 1-1.829-.062-4.935 1.009-4.5-2 20.715-1.627 43.137-.373 64 0"/><path fill="#089dbb" d="M551 839c14.845.75 77.014 4.857 61 31-10.752-4.323-22.045-8.86-33.5-11-32.767-6.121-86.441-6.722-121.5-1-4.773.779-10.343 1.74-15 3-5.234 1.417-9.119 3.157-14 5-3.355 1.267-6.328 3.457-10 5-.436.183-1.522-.179-2 0-6.045-11.179-1.628-17.642 9-23 12.264-6.183 37.067-8.906 51-10-.435 3.009 2.671 1.938 4.5 2 23.195.783 47.235-2.175 70.5-1"/><path fill="#68c5e9" d="M430 842c-.132 3.895-7.71 2.812-5 6-10.628 5.358-15.045 11.821-9 23-.948.356-.156 2.965-6 2-13.526-18.014 4.987-27.255 20-31"/><path fill="url(#d)" d="M612 870c-6.792 11.087-40.142 16.114-52 18h-96l-10-2-26-20c4.881-1.843 8.766-3.583 14-5l-8 5.5c.68 1.116 24.766-2.711 23-8.5 35.059-5.722 88.733-5.121 121.5 1 11.455 2.14 22.748 6.677 33.5 11" style="fill:url(#d)"/>/&gt;<path fill="#bef6fe" d="M442 861c4.657-1.26 10.227-2.221 15-3 1.766 5.789-22.32 9.616-23 8.5z"/><path fill="#18c5e8" d="M454 886c-12.829-.657-26.797-5.756-36-15 3.672-1.543 6.645-3.733 10-5z"/><path fill="#d7f3fb" d="M418 871c9.203 9.244 23.171 14.343 36 15l10 2c15.709 2.486 31.688 1.466 47.5 2 1.828.062 4.935-1.009 4.5 2-24.485.502-75.846-.709-97-12-2.973-1.587-6.95-4.271-9-7 5.844.965 5.052-1.644 6-2 .478-.179 1.564.183 2 0"/><path fill="#2b6885" d="M615 877c-18.321 27.345-55.568 30.659-86 32l3-17c1.316-.082 2.687.098 4 0 .331-.025.669.026 1 0 26.383-2.238 54.062-2.363 78-15"/><path fill="#2988ae" d="M516 892c.992-.02 2.008.028 3 0-1.92 3.106-.543 13.065-1 17-28.594.302-62.479-.771-87.5-16-3.017-1.836-13.742-8.864-11.5-13 21.154 11.291 72.515 12.502 97 12"/><path fill="#33b9da" d="M560 888c-5.581.888-20.804 3.825-23 4-.331.026-.669-.025-1 0-3.438-3.78-15.357-2.657-17 0-.992.028-2.008-.02-3 0 .435-3.009-2.672-1.938-4.5-2-15.812-.534-31.791.486-47.5-2z"/><path fill="#a0e4f6" d="M536 892c-1.313.098-2.684-.082-4 0-2.307.144-4.688-.101-7 0-1.983.087-4.014-.057-6 0 1.643-2.657 13.562-3.78 17 0"/><path fill="#2b6885" d="M525 892v17c-2.318.073-4.68-.024-7 0 .457-3.935-.92-13.894 1-17 1.986-.057 4.017.087 6 0"/><path fill="#2989b0" d="m532 892-3 17c-1.321.058-2.677-.042-4 0v-17c2.312-.101 4.693.144 7 0"/></svg>