<svg xmlns="http://www.w3.org/2000/svg" width="1024" height="1024"><defs><linearGradient id="a" x1="755.778" x2="277.991" y1="502.64" y2="620.045" gradientUnits="userSpaceOnUse"><stop offset="15.65%" style="stop-color:#ddeef3"/><stop offset="61.992%" style="stop-color:#9bc3ce"/><stop offset="100%" style="stop-color:#5290a1"/></linearGradient></defs><defs><linearGradient id="b" x1="584.266" x2="426.939" y1="413.271" y2="662.818" gradientUnits="userSpaceOnUse"><stop offset="0%" style="stop-color:#6dc6e8"/><stop offset="11.186%" style="stop-color:#29a6ce"/><stop offset="21.356%" style="stop-color:#5eb9db"/><stop offset="48.136%" style="stop-color:#0b82a1"/><stop offset="100%" style="stop-color:#005469"/></linearGradient></defs><defs><linearGradient id="c" x1="550.657" x2="464.613" y1="495.07" y2="600.391" gradientUnits="userSpaceOnUse"><stop offset="0%" style="stop-color:#385d82"/><stop offset="100%" style="stop-color:#0f2b4f"/></linearGradient></defs><defs><linearGradient id="d" x1="544.24" x2="489.067" y1="505.799" y2="566.461" gradientUnits="userSpaceOnUse"><stop offset="0%" style="stop-color:#213d62"/><stop offset="100%" style="stop-color:#091f3b"/></linearGradient></defs><defs><linearGradient id="e" x1="770.28" x2="767.774" y1="505.889" y2="608.859" gradientUnits="userSpaceOnUse"><stop offset="0%" style="stop-color:#dcdede"/><stop offset="100%" style="stop-color:#63787b"/></linearGradient></defs><defs><linearGradient id="f" x1="254.113" x2="252.904" y1="517.35" y2="610.342" gradientUnits="userSpaceOnUse"><stop offset="0%" style="stop-color:#e0e3e4"/><stop offset="100%" style="stop-color:#748688"/></linearGradient></defs><path fill="#013044" d="M832 442c.461-19.779-2.278-38.094-8-57-1.969-6.507-4.03-12.843-7-19-1.916-13.293-9.813-29.326-18-40-8.134-10.605-19.532-18.887-30-27-33.49-25.954-72.33-44.518-112-59-39.535-20.018-80.776-34.173-111-69-7.355-10.018-10.205-16.78-16-27-1.176-2.074.088-3.349 0-3.5-4.802-8.284-14.18-3.966-9-20.5.489-1.562 2.969-2.291 1.5-4-3.66 4.087-8.314 7.506-11.5 12-5.92.083-13.054 15.203-14 19.5-10.24 46.535 39.207 81.398 75.5 97.5 77.822 34.527 180.276 46.021 221.5 130 3.812 11.407 10.438 40.202 1 49.5-4.31 4.246-23.268-8.065-30-7 16.278 8.093 37.418 11.035 53.5 18.5 4.415 2.049 10.414 9.929 12.5 8 3.576 15.108 14.905 30.461 18 45.5 5.565 27.041 2.958 82.474-5 109-2.433 8.108-12.391 21.767-13 24-1.56 5.716 2.412 14.092-4.5 18.5-.564.36-2.794-.349-3.5 0l-19-15.5c5.108 1.752 21.589 20.088 25 8 1.468-5.204-1.303-6.287-2-7.5-.395-.688 1.675-1.329.5-2-7.863 2.263-11.002 1.316-17.5-2l5-1.5c-4.409-6.876-6.569-17.317-8-25.5-3.063-17.514-2.319-32.973-4-50 2.317-28.933-.025-62.977 16-88 1.851-.596 2.778-3.038 6-2 5.96 3.828 8.328 5.196 12.5 12-1.349-5.538-4.374-12.277-7.5-17-3.571-5.396-6.21-8.747-12-12-15.502-8.71-41.605-12.526-58.5-20-12.237 22.207-13.076 50.837-14.5 76-2.433 42.984-1.6 86.596 5 129 .583 3.744.474 9.58 1 13-9.494-35.512-10.863-74.607-10-111.5.495-21.187 4.298-90.093 15-106 4.007-5.956 7.242-.109 8-2-2.718-4.664-6.089-9-9-13.5-31.06-48.01-72.663-71.339-126-89-37.958-12.568-70.78-18.244-111-19-18.632-.35-37.488-.034-56 2-64.634 7.101-150.154 39.754-191 92.5-1.942 2.508-15.048 21.628-15 23 .025.721 6.754 8.693 8 12 18.025 47.839 20.316 156.257 9 206l-6 15c2.503-7.364 3.736-14.851 5-22.5 6.228-37.682 6.229-76.892 4-115-.259-4.424-.63-8.62-1-13-.787-9.314-1.565-18.775-3-28-1.542-9.914-7.329-45.366-15.5-50-2.447-1.388-23.569 6.333-28.5 8 26.134-8.428 3.568-30.663-3-46.5-7.945-19.16-11.232-37.734-11-58.5.213-19.019 3.166-42.293 13-58.5-.679 4.018-2.912 7.637-4 11.5-2.323 8.247-5.02 17.496-6 26-4.405 38.225 4.764 70.735 24.5 103 8.537-12.799 4.008-10.083-.5-19.5-8.39-17.525-15.146-36.226-15-56l22.5 62.5 37.5-38.5c-8.003-17.438-16.654-40.291-18-59.5-.585-8.353.219-18.594 1-27 5.735-4.381 5.889-17.11 8-24.5 1.443-5.053 4.081-10.099 6-15 .215-.55-2.224-.453-2-1 3.483-8.484 13.944-19.132 18.5-27.5-20.79 12.912-40.385 27.515-57.5 45-5.67 5.792-6.712 8.981-11 14.5-1.334 1.717-2.665-1.864-7 5.5-2.919.994-3.558 4.104-5 6-12.687 16.682-27.969 49.889-28 71-1.35.389-3.964 9.939-4 10.5-1.09 16.946 3.598 54.283 10 70 .631 1.548 1.808 3.623 4 2l-6-17c1.573-4.268 9.993 27.043 13 28.5-1.237.504-2.419 1.705-3 2-1.566.796-5.989.55-6 5-6.352.582-9.479 10.056-12 15-2.535 4.97-4.061 10.686-7 15.5l2 .5c-8.573 18.315-8.203 50.538-7 71 .728 12.379 7.208 62.472 18.5 68 7.692 3.766 14.628-2.253 17.5-9v15c-2.969 4.981-3.804 8.079-10 10.5l8 .5c-6.211 2.695-7.346 1.839-13.5-1l2.5 5c-2.606-.246-3.735-3.164-4-.5 1.039 15.969 13.853 11.268 18.5.5-3.162 2.141-2.71 1.101-5.5 1 13.958-8.853 20.258-24.987 25-40 2.169 6.16-.566 14.043-3 20-4.411 10.797-15.502 24.246-25 31-2.631-.968-5.846 1.566-9-1.5-2.871-2.79-1.995-14.629-3-17-.396-.934-5.774-3.726-7-6-21.956-40.727-21.624-132.537 4-172 2.533-3.901 11.867-11.162 12-12 .211-1.33-8.905-21.11-10-25-20.657-73.402 3.914-124.827 54-177 24.469-25.489 43.518-28.357 68.5-45.5 9.43-6.471 19.295-22.661 30.5-32-31.844 32.647-38.764 71.754-30 116.5 1.426 7.282 16.531 48.078 22.5 49.5.724.172 12.375-5.705 12.5-6.5-4.26-3.789-24.591-49.596-20.5-51.5l25 51 31-11c-5.512-12.799-13.645-24.948-17.5-38.5-3.278-11.525-3.456-24.077-7-35.5 6.961-64.948 51.305-107.429 113-123.5-18.51-.869-37.495 2.896-55 8.5-24.567 7.865-54.16 24.465-74 41 34.595-35.467 76.213-45.915 123.5-52 31.334-4.032 62.409-14.688 95-16 31.41-1.264 65.731 2.833 95.5 10.5L631.5 92c-21.92-1.225-46.656-.841-68 5-10.343 2.83-48.375 19.26-41.5 33.5.434.899 8.765 7.274 9.5 7.5 13.122 4.024 48.579 2.918 66 6 70.709 12.511 147.273 57.813 182.5 121.5 12.114 21.901 13.946 39.283 22 60 2.501 6.434 11.524 15.873 15 23 10.824 22.193 24.172 70.299 15 93.5M493 101c-12.084 2.351-23.598 6.542-35 11-20.649 8.074-37.503 16.856-54 32-29.94 27.485-44.773 71.194-36 111.5.973 4.472 19.138 43.749 21.5 44.5 1.416.45 19.438-4.294 19.5-5.5-14.475-17.778-25.41-39.439-28.5-62.5 4.425 11.994 7.294 24.155 13.5 35.5 1.566 2.862 17.013 25.868 18.5 26.5 3.649 1.55 25.385-5.284 31-5-12.421-20.145-23.018-42.051-25.5-66-4.776-46.084 22.197-84.094 61.5-105 35.114-18.678 76.115-21.42 114.5-29.5-34.084-1.76-68.949.818-101 12.5m-6 19c-31.48 11.955-59.04 42.066-64 76-2.158 14.766-1.692 34.093 2 48.5 1.151 4.493 17.906 40.265 20 42 4.22 3.497 9.521.102 14 0-6.936-6.571-13.579-13.466-18-22 1.744-1.636 1.902.533 2 .5 10.934 16.587 21.409 25.853 42 18.5.189-.462-2.807-2.26-3-2.5-10.264-12.744-19.934-27.181-25-43-4.822-15.058-4.661-22.466-5-38 3.077-20.832 10.774-41.552 24-58 18.5-23.009 43.354-30.555 70-40.5-18.645 4.056-42.436 8.864-59 18.5m-2 39c-10.741 37.815 2.022 68.863 29 95.5 3.737 3.69 12.363 14.92 14.5 6.5.797-.049 7.258 7.933 8.5 9 29.318 25.177 64.27 25.019 99.5 37 .233-.714 1.657-2.315 1-3-1.318-1.375-28.782-6.963-34.5-10 10.2 1.17 20.164 4.28 30 7 6.147 1.7 33.038 8.541 36.5 11 .871.618.852 1.366 0 2l-30.5-8.5 1.5 2.5c57.602 19.604 115.279 52.501 146 107 2.78-24.146-5.738-48.626-20.5-67.5-26.324-33.657-52.698-44.052-91-59.5-4.33-1.747-8.681-3.295-13-5-25.534-10.079-51.737-18.07-77-29-41.245-17.845-98.6-48.435-91-103 2.072-14.876 15.325-26.27 26-35.5-17.568 7.601-29.873 25.451-35 43.5m-24 14c-9.516 25.321-9.925 48.544 1 73.5 2.598 5.935 22.744 37.236 27.5 38.5.216.057 3.782-2.05 4-2 2.773.641 11.747 5.474 12.5 1 16.766 3.289 38.583-.068 56 4.5-35.879-16.37-70.562-41.921-80-82.5-4.435-19.07-3.082-36.682 4-55 5.052-13.068 13.835-24.152 25-32.5-22.89 8.999-41.493 31.864-50 54.5m292 109c10.423 6.789 19.245 15.399 29 23l17 15.5c-27.062-82.787-82.56-139.518-168-160.5.266-2.285-3.942-3.499-5.5-4-29.464-9.481-63.32-10.945-94-15 10.718 33.592 48.406 57.493 78 74 45.473 25.364 100.428 38.945 143.5 67m-447-89c-7.608 6.935-14.691 22.339-19 32-1.238 2.774-4.514 6.958-6 11.5-11.651 35.618-9.309 78.335 8.5 111.5 2.174-1.888 18.294-11.403 18.5-12.5.178-.945-7.794-13.451-9-17-.09-.265-2.287-8.146 1-5.5.899 2.389 1.96 4.678 3 7 2.184 4.877 4.277 9.686 7.5 14l22.5-12.5c-9.433-9.801-11.5-28.375-18-38.5-7.388-32.122-8.236-66.148 3-97.5-3.521 2.768-8.764 4.55-12 7.5m539 358c2.086-23.437 4.548-65.317-10-84-1.702-2.186-7.86-10.187-10.5-10-3.184 1.703-5.612 4.538-7.5 7.5-12.383 19.425-18.118 124.86-3 141 21.789 23.262 30.101-44.401 31-54.5"/><path fill="#349ec1" d="M418 223c-3.413 2.082-4.946-11.803-5-13.5-.987-31.013 19.27-55.855 38-78-22.947 18.371-38.601 44.423-45 73-1.657 7.401-1.069 16.621-2 24-.148 1.174-2.228-1.619-3 0-1.025 2.15 3.695 21.854 1.5 23.5-20.372-13.659-20.41-50.164-12.5-71 9.043-23.819 31.984-44.085 52.5-58l.5 2c-19.697 17.547-35.134 37.533-40.5 64 11.438-21.178 26.117-48.526 45-64 11.093-9.09 31.974-19.07 45.5-24 32.051-11.682 66.916-14.26 101-12.5-38.385 8.08-79.386 10.822-114.5 29.5-39.303 20.906-66.276 58.916-61.5 105"/><path fill="#8ceef8" d="M493 101c-13.526 4.93-34.407 14.91-45.5 24-18.883 15.474-33.562 42.822-45 64 5.366-26.467 20.803-46.453 40.5-64l15-13c11.402-4.458 22.916-8.649 35-11"/><path fill="#4caece" d="m476 142 2-9.5-5-.5c4.466-3.85 8.738-8.939 14-12 16.564-9.636 40.355-14.444 59-18.5-26.646 9.945-51.5 17.491-70 40.5"/><path fill="#228fad" d="M360 228c-.989 9.227-1.338 18.215-1 27.5-7.636-9.065-8.885-25.568-7-37.5 4.187-26.5 31.687-65.25 52-82.5-2.145-.58-5.372 2.293-7 3.5v-2c9.504-7.094 19.085-13.974 29-20.5l-14.5 7.5 1.5-4c4.161-2.781 8.289-2.854 5-7 17.505-5.604 36.49-9.369 55-8.5-61.695 16.071-106.039 58.552-113 123.5"/><path fill="#1f84a0" d="m458 112-15 13-.5-2c-20.516 13.915-43.457 34.181-52.5 58-1.559 1.123-5.92-2.046-6-2.5-.74-4.178 17.265-29.269 20-34.5 16.497-15.144 33.351-23.926 54-32"/><path fill="#0f607b" d="M418 113c3.289 4.146-.839 4.219-5 7-15.7 10.493-22.036 15.314-36 28-18.65 16.943-31.97 29.716-43 53-9.122 19.255-5.478 29.889 0 50.5 1.308 4.921 7.81 27.327 11.5 28.5 17.178 5.46 4.055-27.613 3.5-34.5-.401-4.98.387-20.699 1-27.5h2c-1.885 11.932-.636 28.435 7 37.5-.338-9.285.011-18.273 1-27.5 3.544 11.423 3.722 23.975 7 35.5 3.855 13.552 11.988 25.701 17.5 38.5l-31 11-25-51c-4.091 1.904 16.24 47.711 20.5 51.5-.125.795-11.776 6.672-12.5 6.5-5.969-1.422-21.074-42.218-22.5-49.5-8.764-44.746-1.844-83.853 30-116.5 19.84-16.535 49.433-33.135 74-41"/><path fill="#32a1cd" d="M494 151c-9.869 17.899 1.622 39.867 13 54.5 18.662 24 48.346 38.272 75 51.5 29.463 14.622 59.964 26.732 91 38 10.346 6.131 21.832 11.241 32.5 17 .289.156 7.276 4.093 6.5 1 15.781 9.729 33.022 23.102 42.5 39-32.277-32.235-74.755-41.427-115.5-57-45.151-17.257-113.806-36.16-141-79-5.069-7.986-8.525-16.368-11-25.5l-2-31.5c5.127-18.049 17.432-35.899 35-43.5-10.675 9.23-23.928 20.624-26 35.5"/><path fill="#79deee" d="M397 137c-6.751 5.039-12.24 7.553-19 14l-1-3c13.964-12.686 20.3-17.507 36-28l-1.5 4 14.5-7.5c-9.915 6.526-19.496 13.406-29 20.5"/><path fill="#35a3bc" d="M521 120c-2.205 1.069-3.558 3.145-5 5-7.112 9.15-11.923 18.147-13 30 .154-11.522 1.283-17.524 8-27 3.186-4.494 7.84-7.913 11.5-12 1.469 1.709-1.011 2.438-1.5 4"/><path fill="#39a3c4" d="M486 151c-6.651-1.148 3.182-6.295.5-9-4.13 7.015-10.872 13.876-14.5 21-3.642 1.8-5.813 8.462-7 12l-4-2c8.507-22.636 27.11-45.501 50-54.5-11.165 8.348-19.948 19.432-25 32.5"/><path fill="#1d85a2" d="M487 120c-5.262 3.061-9.534 8.15-14 12-19.323 16.657-39.061 39.18-44 65l-6-1c4.96-33.934 32.52-64.045 64-76"/><path fill="#1f8aa7" d="M530 144c-2.391-.248-3.354-.086-4 2.5-11.046 44.24 78.615 88.238 110 103.5l-2 7c-24.538-11.085-54.422-27.793-79-36-.152-.051.777-2.846-2.5-2-3.239.836.395 3.742-10.5 2-7.624-7.026-14.491-13.866-21-22-6.171-10.408-8.165-19.286-11-30.5-.138-.544-1.845 1.095-3-6.5-.825-5.425-1.068-12.095 0-17.5 1.334-6.753 7.815-13.008 9-19.5 1.442-1.855 2.795-3.931 5-5-5.18 16.534 4.198 12.216 9 20.5.088.151-1.176 1.426 0 3.5m-11.5 17c.008 18.249 12.355 38.124 27 49-13.298-14.039-23.333-29.552-27-49"/><path fill="#064157" d="M507 162c-1.947 4.135-1.143 10.757 0 15h-2c-1.976-8.076-2.11-13.75-2-22 1.077-11.853 5.888-20.85 13-30-1.185 6.492-7.666 12.747-9 19.5-1.068 5.405-.825 12.075 0 17.5"/><path fill="#187793" d="M511 128c-6.717 9.476-7.846 15.478-8 27-.11 8.25.024 13.924 2 22 3.964 16.202 19.994 41.281 37 44 10.895 1.742 7.261-1.164 10.5-2 3.277-.846 2.348 1.949 2.5 2l9 7c3.354 3.376 1.344 5.828 4.5 9 11.067 11.123 60.885 24.579 78 31 9.049 3.395 20.725 11.973 30.5 10 .386.163 7.034 4.016 3.5 0L634 257l2-7c38.289 18.619 81.506 33.353 117 57 1.029 2.786-5.098 8.238-5 9.5.162 2.08 25.64 23.371 30 29 6.73 8.689 12.518 19.078 16 29.5-41.224-83.979-143.678-95.473-221.5-130-36.293-16.102-85.74-50.965-75.5-97.5.946-4.297 8.08-19.417 14-19.5"/><path fill="#11637e" d="M418 223c2.482 23.949 13.079 45.855 25.5 66-5.615-.284-27.351 6.55-31 5-1.487-.632-16.934-23.638-18.5-26.5-6.206-11.345-9.075-23.506-13.5-35.5 3.09 23.061 14.025 44.722 28.5 62.5-.062 1.206-18.084 5.95-19.5 5.5-2.362-.751-20.527-40.028-21.5-44.5-8.773-40.306 6.06-84.015 36-111.5-2.735 5.231-20.74 30.322-20 34.5.08.454 4.441 3.623 6 2.5-7.91 20.836-7.872 57.341 12.5 71 2.195-1.646-2.525-21.35-1.5-23.5.772-1.619 2.852 1.174 3 0 .931-7.379.343-16.599 2-24 6.399-28.577 22.053-54.629 45-73-18.73 22.145-38.987 46.987-38 78 .054 1.697 1.587 15.582 5 13.5"/><path fill="#38a4c7" d="M476 142c-13.226 16.448-20.923 37.168-24 58-.079-3.625-1.041-7.568-1-11.5.043-4.178 5.713-24.886-.5-24.5-1.626.101-2.341 3.826-2.5 4-6.847 7.53-16.139 27.15-18 37-2.511-.21-1.438-5.71-1-8 4.939-25.82 24.677-48.343 44-65l5 .5z"/><path fill="#196e89" d="M352 218h-2c2.591-28.723 23.955-61.925 47-79 1.628-1.207 4.855-4.08 7-3.5-20.313 17.25-47.813 56-52 82.5"/><path fill="#2e98be" d="M397 137v2c-23.045 17.075-44.409 50.277-47 79-.613 6.801-1.401 22.52-1 27.5.555 6.887 13.678 39.96-3.5 34.5-3.69-1.173-10.192-23.579-11.5-28.5-5.478-20.611-9.122-31.245 0-50.5-.142 4.086 4.816-2.29 5-2.5 13.42-15.327 24.236-33.42 39-47.5 6.76-6.447 12.249-8.961 19-14"/><path fill="#187b96" d="M631 160c-17.429-4.28-35.544-9.524-53.5-5 9.342 8.442 20.062 15.999 30.5 23l-2 12c-4.283-2.11-8.649-4.105-12.5-7l5.5 6c-1.784 8.409 12.221 8.636 14 16-25.162-14.7-49.538-29.277-67.5-53 26.41 45.123 82.957 68.382 130.5 85 19.619 10.058 41.267 19.438 60.5 31 4.627 2.782 15.829 9.012 16.5 14-43.072-28.055-98.027-41.636-143.5-67-29.594-16.507-67.282-40.408-78-74 30.68 4.055 64.536 5.519 94 15 1.558.501 5.766 1.715 5.5 4"/><path fill="#238aa7" d="M486 151c-7.082 18.318-8.435 35.93-4 55l-18 1c-1.952-15.644.805-29.872 8-44 3.628-7.124 10.37-13.985 14.5-21 2.682 2.705-7.151 7.852-.5 9"/><path fill="#3fa3c7" d="M530 144c5.795 10.22 8.645 16.982 16 27 10.185 13.873 23.182 25.997 38.5 36 7.729 5.048 46.186 22.023 48 24 1.202 1.31-4.772.539-2 4 19.813 9.456 40.429 17.189 60.5 26 26.683 11.713 53.545 21.666 78 38 10.468 8.113 21.866 16.395 30 27l-25-17.5c14.838 18.207 32.697 36.142 43 57.5 2.97 6.157 5.031 12.493 7 19l-2 4.5c-11.641-35.155-38.845-62.41-69-82.5-35.494-23.647-78.711-38.381-117-57-31.385-15.262-121.046-59.26-110-103.5.646-2.586 1.609-2.748 4-2.5"/><path fill="#96fbfe" d="M378 151c-14.764 14.08-25.58 32.173-39 47.5-.184.21-5.142 6.586-5 2.5 11.03-23.284 24.35-36.057 43-53z"/><path fill="#87f0fa" d="m585 254-3 3c-26.654-13.228-56.338-27.5-75-51.5-11.378-14.633-22.869-36.601-13-54.5-7.6 54.565 49.755 85.155 91 103"/><path fill="#013147" d="M613 205c21.472 12.544 41.321 20.886 63 32-47.543-16.618-104.09-39.877-130.5-85 17.962 23.723 42.338 38.3 67.5 53"/><path fill="#55b7dc" d="M631 160c85.44 20.982 140.938 77.713 168 160.5L782 305c5.317-2.745-3.275-10.47-7-14.5-37.782-40.88-118.682-80.092-167-112.5-10.438-7.001-21.158-14.558-30.5-23 17.956-4.524 36.071.72 53.5 5m8.5 7c30.614 15.446 61.666 28.356 88 51 6.715 5.774 22.551 25.632 27.5 28.5 1.17.678 1.858 2.675 4 1-29.391-39.598-72.479-66.309-119.5-80.5m10 9c35.87 23.549 72.797 45.251 104.5 74.5-27.178-32.328-65.767-58.031-104.5-74.5"/><path fill="#1c87a6" d="M498 216c-.834-.008-2.948 2.794-3 3-1.006 3.99 1.545 5.101 3 8 7.948 15.838 18.841 23.14 31.5 32 9.001 6.3 17.551 12.216 27.5 17-.127-.044-.09 1.826-2.5 1-5.403-1.853-10.757-7.321-17.5-7-1.242-1.067-7.703-9.049-8.5-9-2.137 8.42-10.763-2.81-14.5-6.5-26.978-26.637-39.741-57.685-29-95.5l2 31.5c2.475 9.132 5.931 17.514 11 25.5"/><path fill="#0b4961" d="M518.5 161c3.667 19.448 13.702 34.961 27 49-14.645-10.876-26.992-30.751-27-49"/><path fill="#013146" d="M521 199c-5.075-6.342-11.797-13.822-14-22-1.143-4.243-1.947-10.865 0-15 1.155 7.595 2.862 5.956 3 6.5 2.835 11.214 4.829 20.092 11 30.5"/><path fill="#7cddee" d="M472 163c-7.195 14.128-9.952 28.356-8 44 .647 5.189 1.412 9.512 3 14.5 2.203 6.92 7.362 10.534 7 17.5-14.039-19.356-16.583-41.408-9-64 1.187-3.538 3.358-10.2 7-12"/><path fill="#309cc6" d="M452 200c.339 15.534.178 22.942 5 38-10.167-.515-3.508 18.058-9 24-.077-.085.142-1.181-1-1-.114-9.386-16.86-29.733-18-46l19-47c.159-.174.874-3.899 2.5-4 6.213-.386.543 20.322.5 24.5-.041 3.932.921 7.875 1 11.5"/><path fill="#72ebfc" d="M639.5 167c47.021 14.191 90.109 40.902 119.5 80.5-2.142 1.675-2.83-.322-4-1-4.949-2.868-20.785-22.726-27.5-28.5-26.334-22.644-57.386-35.554-88-51"/><path fill="#6dd9f2" d="M429 215c-.275-3.925.301-6.3 1-10 1.861-9.85 11.153-29.47 18-37z"/><path fill="#86e4ee" d="M657 240c10.546 5.34 23.462 11.838 33.5 18 2.828 1.736 3.101.788.5 3-20.071-8.811-40.687-16.544-60.5-26-2.772-3.461 3.202-2.69 2-4-1.814-1.977-40.271-18.952-48-24-15.318-10.003-28.315-22.127-38.5-36 30.224 34.827 71.465 48.982 111 69"/><path fill="#136a86" d="M465 175c-7.583 22.592-5.039 44.644 9 64-.01.201-3.093-.872-2 3.5 2.063 8.25 21.808 26.043 28 33-18.491-9.11-3.415 6.653 6 8.5-.753 4.474-9.727-.359-12.5-1-.218-.05-3.784 2.057-4 2-4.756-1.264-24.902-32.565-27.5-38.5-10.925-24.956-10.516-48.179-1-73.5z"/><path fill="#8efbfe" d="M649.5 176c38.733 16.469 77.322 42.172 104.5 74.5-31.703-29.249-68.63-50.951-104.5-74.5"/><path fill="#146881" d="M507 177c2.203 8.178 8.925 15.658 14 22 6.509 8.134 13.376 14.974 21 22-17.006-2.719-33.036-27.798-37-44z"/><path fill="#2395b4" d="M782 305c-9.755-7.601-18.577-16.211-29-23-.671-4.988-11.873-11.218-16.5-14-19.233-11.562-40.881-20.942-60.5-31-21.679-11.114-41.528-19.456-63-32-1.779-7.364-15.784-7.591-14-16l24.5 12c-2.717-5.169-12.034-8.308-17.5-11l2-12c48.318 32.408 129.218 71.62 167 112.5 3.725 4.03 12.317 11.755 7 14.5"/><path fill="#0a445e" d="M606 190c5.466 2.692 14.783 5.831 17.5 11L599 189l-5.5-6c3.851 2.895 8.217 4.89 12.5 7"/><path fill="#177491" d="M315 283c-.452-.704-2.286-3.901-2.5-4-.122-.056-.551 1.137-2.5 1-5.918-21.469-9.281-42.185-7-64.5.689-6.744 5.972-16.417 3-22.5 3.236-2.95 8.479-4.732 12-7.5-11.236 31.352-10.388 65.378-3 97.5"/><path fill="#349fc5" d="M310 280c-.103-.007.363 1.64-.5 2-7.319-9.552-5.593-22.016-7.5-32.5-.261-1.432.538-3.502-2-2 1.611 10.033-.031 22.418 1 32 .915 8.508 7.702 28.474 7 35-.225 2.092-2.321 5.693-5 5.5-1.04-2.322-2.101-4.611-3-7-5.113-13.595-12.841-42.309-14-56.5-.843-10.319.278-21.212 1-31.5 4.309-9.661 11.392-25.065 19-32 2.972 6.083-2.311 15.756-3 22.5-2.281 22.315 1.082 43.031 7 64.5"/><path fill="#197893" d="M269 264c.513-5.522 6.19-24.204 6-25.5-.106-.721-2.442-1.778-4 0-3.879 4.428-11.368 34.517-12 41.5-2.736-.601-1.678 1.576-2 2-3.123 4.118-6.094 2.972-11 3 1.393-12.669 3.27-20.862 7-33 .781-2.543-3.045-1.213-1-4.5l21-27c.604-2.454-3.342.371-3.5.5-10.278 8.413-20.523 27.567-25.5 40-6.32 11.217-9.562 26.072-10 39l-17-1c.98-8.504 3.677-17.753 6-26l19-32c17.115-17.485 36.71-32.088 57.5-45-4.556 8.368-15.017 19.016-18.5 27.5-.224.547 2.215.45 2 1-1.919 4.901-4.557 9.947-6 15-2.111 7.39-2.265 20.119-8 24.5"/><path fill="#10637e" d="M429 197c-.438 2.29-1.511 7.79 1 8-.699 3.7-1.275 6.075-1 10 1.14 16.267 17.886 36.614 18 46 .061 4.992-.478 2.804-4 4-.098.033-.256-2.136-2-.5 4.421 8.534 11.064 15.429 18 22-4.479.102-9.78 3.497-14 0-2.094-1.735-18.849-37.507-20-42-3.692-14.407-4.158-33.734-2-48.5z"/><path fill="#16728d" d="M482 206c9.438 40.579 44.121 66.13 80 82.5-17.417-4.568-39.234-1.211-56-4.5-9.415-1.847-24.491-17.61-6-8.5-6.192-6.957-25.937-24.75-28-33-1.093-4.372 1.99-3.299 2-3.5.362-6.966-4.797-10.58-7-17.5-1.588-4.988-2.353-9.311-3-14.5z"/><path fill="#157390" d="m639 295-6 6c-9.836-2.72-19.8-5.83-30-7-5.659-3.006-2.081-4.165-11-7-30.935-10.362-77.012-30.657-94-60-.663-1.145-1.112-6.347-3-8 .052-.206 2.166-3.008 3-3 27.194 42.84 95.849 61.743 141 79"/><path fill="#7fdeed" d="M253 252c-3.232-.818-7.594 6.504-9 9 4.977-12.433 15.222-31.587 25.5-40 .158-.129 4.104-2.954 3.5-.5l-21 27c-2.045 3.287 1.781 1.957 1 4.5"/><path fill="#14647f" d="M498 227c-1.455-2.899-4.006-4.01-3-8 1.888 1.653 2.337 6.855 3 8"/><path fill="#032d47" d="M555 221c24.578 8.207 54.462 24.915 79 36l46.5 21c3.534 4.016-3.114.163-3.5 0-37.908-16.048-75.616-32.778-113-50z"/><path fill="#10637e" d="M300 313c-3.287-2.646-1.09 5.235-1 5.5 1.206 3.549 9.178 16.055 9 17-.206 1.097-16.326 10.612-18.5 12.5-17.809-33.165-20.151-75.882-8.5-111.5 1.486-4.542 4.762-8.726 6-11.5-.722 10.288-1.843 21.181-1 31.5 1.159 14.191 8.887 42.905 14 56.5"/><path fill="#063650" d="M592 287c-10.711-3.404-23.293-6.947-35-11-9.949-4.784-18.499-10.7-27.5-17-12.659-8.86-23.552-16.162-31.5-32 16.988 29.343 63.065 49.638 94 60"/><path fill="#238ca8" d="M677 278c-9.775 1.973-21.451-6.605-30.5-10-17.115-6.421-66.933-19.877-78-31-3.156-3.172-1.146-5.624-4.5-9 37.384 17.222 75.092 33.952 113 50"/><path fill="#248dae" d="M269 264c-.781 8.406-1.585 18.647-1 27-2.307 4.312-1.527 13.83-7 16-3.492-8.828-2.825-17.885-2-27 .632-6.983 8.121-37.072 12-41.5 1.558-1.778 3.894-.721 4 0 .19 1.296-5.487 19.978-6 25.5"/><path fill="#1a85ac" d="M457 238c5.066 15.819 14.736 30.256 25 43-12.061 3.181-26.255-10.422-34-19 5.492-5.942-1.167-24.515 9-24"/><path fill="#9bf9fc" d="M769 299c-24.455-16.334-51.317-26.287-78-38 2.601-2.212 2.328-1.264-.5-3-10.038-6.162-22.954-12.66-33.5-18 39.67 14.482 78.51 33.046 112 59"/><path fill="#228dab" d="M223 273c1.088-3.863 3.321-7.482 4-11.5-9.834 16.207-12.787 39.481-13 58.5-2.883.482-2.093-2.769-2-4.5.981-18.215 2.581-38.5 12-54.5 4.335-7.364 5.666-3.783 7-5.5 4.288-5.519 5.33-8.708 11-14.5z"/><path fill="#0f617c" d="M310 280c1.949.137 2.378-1.056 2.5-1 .214.099 2.048 3.296 2.5 4 6.5 10.125 8.567 28.699 18 38.5L310.5 334c-3.223-4.314-5.316-9.123-7.5-14 2.679.193 4.775-3.408 5-5.5.702-6.526-6.085-26.492-7-35-1.031-9.582.611-21.967-1-32 2.538-1.502 1.739.568 2 2 1.907 10.484.181 22.948 7.5 32.5.863-.36.397-2.007.5-2"/><path fill="#299ac4" d="M253 252c-3.73 12.138-5.607 20.331-7 33-1.993 18.128-2.875 36.256-1 54.5-10.802-5.95-11.395-27.836-11-39.5.438-12.928 3.68-27.783 10-39 1.406-2.496 5.768-9.818 9-9"/><path fill="#58e1fb" d="M662 283c-4.107 8.377 5.523 6.939 10.5 10 .944.58.343 1.907.5 2-31.036-11.268-61.537-23.378-91-38l3-3c25.263 10.93 51.466 18.921 77 29"/><path fill="#0d5d78" d="M214 320c-.232 20.766 3.055 39.34 11 58.5 6.568 15.837 29.134 38.072 3 46.5-6.075 2.054-14.268 4.665-20 7-3.007-1.457-11.427-32.768-13-28.5l6 17c-2.192 1.623-3.369-.452-4-2-6.402-15.717-11.09-53.054-10-70 .036-.561 2.65-10.111 4-10.5-.003 2.343.7 16.495 1 17.5.379 1.268 5.655 3.464 7 3.5 9.291.247 6.492-5.012 7.5-5 1.082.013 4.408 18.929 8.5 19.5-6.99-26.663-10.264-58.362-4-85.5 1.661-7.197 6.512-13.725 8-21 1.442-1.896 2.081-5.006 5-6-9.419 16-11.019 36.285-12 54.5-.093 1.731-.883 4.982 2 4.5"/><path fill="#0c5c76" d="M448 262c7.745 8.578 21.939 22.181 34 19 .193.24 3.189 2.038 3 2.5-20.591 7.353-31.066-1.913-42-18.5 3.522-1.196 4.061.992 4-4 1.142-.181.923.915 1 1"/><path fill="#2cb1dd" d="M211 288c-12.715 20.559-11.496 47.603-12 71-1.345-.036-6.621-2.232-7-3.5-.3-1.005-1.003-15.157-1-17.5.031-21.111 15.313-54.318 28-71-1.488 7.275-6.339 13.803-8 21"/><path fill="#0e6b87" d="M557 276c11.707 4.053 24.289 7.596 35 11 8.919 2.835 5.341 3.994 11 7 5.718 3.037 33.182 8.625 34.5 10 .657.685-.767 2.286-1 3-35.23-11.981-70.182-11.823-99.5-37 6.743-.321 12.097 5.147 17.5 7 2.41.826 2.373-1.044 2.5-1"/><path fill="#002c42" d="M259 280c-.825 9.115-1.492 18.172 2 27l-2 .5c-2.438-7.828-4.156-17.151-2-25.5.322-.424-.736-2.601 2-2"/><path fill="#0f617c" d="M257 282c-2.156 8.349-.438 17.672 2 25.5l2-.5c5.473-2.17 4.693-11.688 7-16 1.346 19.209 9.997 42.062 18 59.5L248.5 389 226 326.5c-.146 19.774 6.61 38.475 15 56 4.508 9.417 9.037 6.701.5 19.5-19.736-32.265-28.905-64.775-24.5-103l17 1c-.395 11.664.198 33.55 11 39.5-1.875-18.244-.993-36.372 1-54.5 4.906-.028 7.877 1.118 11-3"/><path fill="#48c4e6" d="M675 288c-1.071 2.418-2.578-.797-1.5 2 2.684 6.961 30.17 17.865 38.5 23 .776 3.093-6.211-.844-6.5-1-10.668-5.759-22.154-10.869-32.5-17-.157-.093.444-1.42-.5-2-4.977-3.061-14.607-1.623-10.5-10 4.319 1.705 8.67 3.253 13 5"/><path fill="#137fa4" d="M199 359c.504-23.397-.715-50.441 12-71-6.264 27.138-2.99 58.837 4 85.5-4.092-.571-7.418-19.487-8.5-19.5-1.008-.012 1.791 5.247-7.5 5"/><path fill="#10627e" d="m633 301 6-6c40.745 15.573 83.223 24.765 115.5 57-9.478-15.898-26.719-29.271-42.5-39-8.33-5.135-35.816-16.039-38.5-23-1.078-2.797.429.418 1.5-2 38.302 15.448 64.676 25.843 91 59.5 14.762 18.874 23.28 43.354 20.5 67.5-30.721-54.499-88.398-87.396-146-107l-1.5-2.5 30.5 8.5c.852-.634.871-1.382 0-2-3.462-2.459-30.353-9.3-36.5-11"/><path fill="#d3e6ed" d="M518 295c-1.983 2.88.672 1.944 2.5 2 16.995.523 34.478.487 50 8 .975.472 5.486 2.265 4 4-31.307-4.179-62.305-8.727-94-6-8.748.753-21.827 5.882-29.5 2 4.712-1.337 9.611-2.418 14.5-3l-3.5-5c18.512-2.034 37.368-2.35 56-2"/><path fill="#f5fbfc" d="M629 314c-8.052 8.768 16.283 13.412 23.5 17 8.225 4.089 18.808 8.985 25 15-2.343-.522-4.318-2.154-6.5-3-72.058-27.945-169.754-43.355-245-24l-3-6c9.268-3.044 18.632-5.341 28-8 7.673 3.882 20.752-1.247 29.5-2 31.695-2.727 62.693 1.821 94 6 1.486-1.735-3.025-3.528-4-4-15.522-7.513-33.005-7.477-50-8-1.828-.056-4.483.88-2.5-2 40.22.756 73.042 6.432 111 19"/><path fill="url(#a)" d="m462 297 3.5 5c-4.889.582-9.788 1.663-14.5 3-9.368 2.659-18.732 4.956-28 8-29.634 9.732-57.584 22.937-84 39.5 29.553-12.115 55.759-25.464 87-33.5 75.246-19.355 172.942-3.945 245 24 4.675 8.721 18.108 11.403 24 20-13.894-3.927-25.699 6.197-28 19.5l2.5 9.5c-2.949-15.923 6.712-28.727 23.5-25-3.304 2.915-7.883 2.308-12.5 5-1.235.72-4.651 4.664-5.5 6-10.841 17.059 10.926 31.649 26.5 22 7.957-4.93 9.552-15.711 6.5-24 18.107 8.352 35.19 21.272 39 42-20.5 56.809-17.475 172.296-3 231-3.309 3.662-6.002 7.421-9.5 11-1.815 1.857-6.631 2.609-8.5 5.5-3.074 4.756-5.948 21.223-11 27L696 723c-19.33 22.584-38.667 44.867-63 62.5l10-4.5c-50.522 38.202-117.694 65.026-182 46-25.638-7.585-85.496-50.351-106.5-69-30.464-27.048-54.143-62.877-77.5-96 3.316-10.861 2.375-25.663 3.5-37-2.766-.551-2.509 1.467-3.5 3.5-4.52 9.274-3.989 19.507-14 26.5-.218.152-.734-.143-1 0l8-32c.658.036 1.34-.017 2 0-1.264 7.649-2.497 15.136-5 22.5l6-15c11.316-49.743 9.025-158.161-9-206-1.246-3.307-7.975-11.279-8-12-.048-1.372 13.058-20.492 15-23 40.846-52.746 126.366-85.399 191-92.5m243 241c4.809-99.344-73.163-184.877-170-198-178.21-24.15-300.821 174.875-181 317.5C469.868 795.419 696.438 714.881 705 538M312 382c-.668-3.671-1.901-1.387-2 .5-1.648 31.43 41.369 24.934 37-3-1.301-8.318-8.368-12.488-16-13.5-9.212-1.221-9.413.709-17.5 4 4.687 5.449-.944 7.676-1.5 12m412 19c-5.846 10.194-7.957-.091-10.5 1-1.483 1.427.979 3.13 1.5 4 6.738 11.256 19.503.657 10.5-8-.187-.01-1.166 2.417-1.5 3m-425.5-2c-13.973 21.727 21.526 19.762 7 0-1.018.775.444 14.753-7.5 6.5zm4 231c-7.508 1.553-12.241 16.417-4 19 15.018 4.708 19.755-22.259 4-19m413 3c-20.213 22.228 26.034 21.432 5 3 6.413 7.014-6.989 12.565-7.5 3.5-.124-2.196 5.616-5.55 2.5-6.5m-411 23c-4.78 1.464-5.287 19.581 0 21 11.801 3.168 12.697-24.889 0-21M488 779c-.542 14.995 18.135 26.888 31.5 19 14.952-8.825 8.379-30.257-6.5-36-8.873-3.425-24.63 6.757-25 17" style="fill:url(#a)"/>/&gt;<path fill="#0f627d" d="M824 385c5.722 18.906 8.461 37.221 8 57-.239.605.554 2.061-1 2-2.086 1.929-8.085-5.951-12.5-8-16.082-7.465-37.222-10.407-53.5-18.5 6.732-1.065 25.69 11.246 30 7 9.438-9.298 2.812-38.093-1-49.5-3.482-10.422-9.27-20.811-16-29.5-4.36-5.629-29.838-26.92-30-29-.098-1.262 6.029-6.714 5-9.5 30.155 20.09 57.359 47.345 69 82.5z"/><path fill="#0f627e" d="M799 326c8.187 10.674 16.084 26.707 18 40-10.303-21.358-28.162-39.293-43-57.5z"/><path fill="#c7f9fd" d="m423 313 3 6c-31.241 8.036-57.447 21.385-87 33.5 26.416-16.563 54.366-29.768 84-39.5"/><path fill="#c7dde5" d="M755 403c-2.047 4.206-6.533 10.934-8 15-3.81-20.728-20.893-33.648-39-42-1.83-4.97-7.573-11.466-13-13-5.892-8.597-19.325-11.279-24-20 2.182.846 4.157 2.478 6.5 3-6.192-6.015-16.775-10.911-25-15-7.217-3.588-31.552-8.232-23.5-17 53.337 17.661 94.94 40.99 126 89"/><path fill="#0a283a" d="m535 340-1 2c-6.87-.928-13.022-1.719-20-2-41.766-1.683-76.554 7.257-112 29-32.86 20.156-55.931 45.738-73 80-71.742 144.004 60.027 303.553 214.5 273 66.487-13.15 126.929-65.942 148.5-130 6-17.817 10.182-36.108 11-55l2 1c-8.562 176.881-235.132 257.419-351 119.5-119.821-142.625 2.79-341.65 181-317.5"/><path fill="#afcfd1" d="M514 340c-3.521 3.852-20.51.81-22.5 3-.44.484-.438 9.759 0 10 1.626.895 31.186 2.061 37 3 62.396 10.073 124.408 52.106 149.5 111.5 2.004 4.744 6.884 27.065 8 28 1.081.906 11.648.792 12.5 1.5 1.491 1.238-1.107 6.447 2.5 4 1.231 8.535 1.86 15.317 2 24-1.76.248-4.631-.592-6 .5-1.188.948-2.974 25.365-4 30-2.146 9.694-6.343 24.34-10 33.5-20.404 51.104-73.986 99.296-127 114-.403-2.623 1.412-7.49-2-7 43.74-12.63 84.382-47.86 105-88 21.275-41.418 24.41-86.091 8-130-5.827-15.592-13.554-28.953-24-42-5.348-6.68-12.6-14.317-19-20 4.576-8.69-13.98-17.278-21-22-41.095-27.641-79.299-37.517-129-30 4.238-4.657 9.774.482 8-9.5-20.345-.325-38.553 8.212-56 17.5-5.475 2.914-11.874 5.535-17 9l-7-12c35.446-21.743 70.234-30.683 112-29"/><path fill="#eaf4f6" d="M534 342c81.202 10.973 155.069 76.309 167 159-3.607 2.447-1.009-2.762-2.5-4-.852-.708-11.419-.594-12.5-1.5-1.116-.935-5.996-23.256-8-28-25.092-59.394-87.104-101.427-149.5-111.5-5.814-.939-35.374-2.105-37-3-.438-.241-.44-9.516 0-10 1.99-2.19 18.979.852 22.5-3 6.978.281 13.13 1.072 20 2"/><path fill="#204f66" d="m705 538-2-1c.171-3.947.064-8.045 0-12-.14-8.683-.769-15.465-2-24-11.931-82.691-85.798-148.027-167-159l1-2c96.837 13.123 174.809 98.656 170 198"/><path fill="#7c9da0" d="M474 364c-16.062 2.429-32.003 6.459-46.5 14l-1.5-6c17.447-9.288 35.655-17.825 56-17.5 1.774 9.982-3.762 4.843-8 9.5"/><path fill="#26857f" d="m603 394-2 5c-47.593-30.653-110.15-40.091-163-16-3.991 1.819-8.197 3.234-12 5.5-.461 1.046 3.957 10.367 7 9.5-1.324.642-3.365 2.127-5 3 .885-2.491-3.325-10.835-5.5-11-67.628 38.181-103.347 107.561-83.5 185-7.012-3.815-.988-27.426-13-16-7.401-55.452 6.954-90.016 39-133 1.934-2.595 6.717-6.411 9-9.5.152-.205-2.192-3.01-1-5 1.707-2.852 31.536-27.482 36-30.5 5.126-3.465 11.525-6.086 17-9l1.5 6c14.497-7.541 30.438-11.571 46.5-14 49.701-7.517 87.905 2.359 129 30"/><path fill="#0a2c3e" d="M695 363c5.427 1.534 11.17 8.03 13 13 3.052 8.289 1.457 19.07-6.5 24-15.574 9.649-37.341-4.941-26.5-22-2.341 6.664-.735 10.578 3 16 11.137 16.169 35.862 2.491 27-17-2.858-6.286-5.061-8.46-12-10-16.788-3.727-26.449 9.077-23.5 25l-2.5-9.5c2.301-13.303 14.106-23.427 28-19.5"/><path fill="#83a7ac" d="M331 366c12.073 4.459 18.867 15.613 10 27 .099-.231.865-4.894.5-5-10.23 12.413-19.324 6.041-29.5-2-.073-1.236-.154-2.805 0-4 .556-4.324 6.187-6.551 1.5-12 8.087-3.291 8.288-5.221 17.5-4"/><path fill="#072639" d="M312 382c-.154 1.195-.073 2.764 0 4 .909 15.431 23.132 20.694 29 7 8.867-11.387 2.073-22.541-10-27 7.632 1.012 14.699 5.182 16 13.5 4.369 27.934-38.648 34.43-37 3 .099-1.887 1.332-4.171 2-.5"/><path fill="#fcfdfd" d="M705 377c-1.357 11.413-4.634 19.019-17.5 19-2.415-.004-6.714-4.13-9.5-2-3.735-5.422-5.341-9.336-3-16 .849-1.336 4.265-5.28 5.5-6 4.617-2.692 9.196-2.085 12.5-5 6.939 1.54 9.142 3.714 12 10"/><path fill="#7c9da0" d="M409 381c-4.464 3.018-34.293 27.648-36 30.5-1.192 1.99 1.152 4.795 1 5-2.283 3.089-7.066 6.905-9 9.5l-2.5-4-26 32-7.5-5c17.069-34.262 40.14-59.844 73-80z"/><path fill="#427c94" d="M601 399c7.58 4.882 16.287 11.039 23 17 6.4 5.683 13.652 13.32 19 20-5.821 2.598-6.381 7.947-13 4-.15-.24.153-.767 0-1-36.734-56.173-126.929-69.281-186-46-4.756.32-5.648-6.05-6-10 52.85-24.091 115.407-14.653 163 16"/><path fill="#99b2b7" d="M678 394c2.786-2.13 7.085 1.996 9.5 2 12.866.019 16.143-7.587 17.5-19 8.862 19.491-15.863 33.169-27 17"/><path fill="url(#b)" d="M630 439c-15.343-14.884-34.083-21.058-55-14-38.505-24.608-84.17-27.037-126-9-20.174 8.699-36.815 21.215-51 38-25.283 29.916-34.876 65.038-29 104 8.25 54.703 53.494 99.039 108 108 47.987 7.889 91.615-7.719 125-42 13.648-14.014 37.327-46.969 37-67 6.167-21.633 5.662-45.739-2-67 6.018-15.629 3.597-29.386-3-44 3.337-2.239 2.192-.442 3.5 1 7.783 8.58 14.358 23.096 18.5 34 15.108 39.774 13.034 83.494-5 122-44.863 95.791-170.435 123.176-251.5 55-87.027-73.191-70.816-203.956 28.5-257 1.635-.873 3.676-2.358 5-3 2.897-1.406 8.169-3.884 11-5 59.071-23.281 149.266-10.173 186 46" style="fill:url(#b)"/>/&gt;<path fill="#01354c" d="M444 393c-2.831 1.116-8.103 3.594-11 5-3.043.867-7.461-8.454-7-9.5 3.803-2.266 8.009-3.681 12-5.5.352 3.95 1.244 10.32 6 10"/><path fill="#709297" d="M341 393c-5.868 13.694-28.091 8.431-29-7 10.176 8.041 19.27 14.413 29.5 2 .365.106-.401 4.769-.5 5"/><path fill="#01354c" d="M428 401c-99.316 53.044-115.527 183.809-28.5 257 81.065 68.176 206.637 40.791 251.5-55l8 5c-20.618 40.14-61.26 75.37-105 88-56.584 16.338-117.873 2.185-162-36-29.385-25.428-30.619-42.183-49-71-1.499-4.64-2.787-9.268-4-14-19.847-77.439 15.872-146.819 83.5-185 2.175.165 6.385 8.509 5.5 11"/><path fill="#78a5a6" d="M624 416c-6.713-5.961-15.42-12.118-23-17l2-5c7.02 4.722 25.576 13.31 21 22"/><path fill="#1c4355" d="M715 406c5.747 5.709 16.994 1.19 9-5 .334-.583 1.313-3.01 1.5-3 9.003 8.657-3.762 19.256-10.5 8"/><path fill="#2d6e82" d="m298.5 399-.5 6.5c7.944 8.253 6.482-5.725 7.5-6.5 14.526 19.762-20.973 21.727-7 0"/><path fill="#90afb5" d="M715 406c-.521-.87-2.983-2.573-1.5-4 2.543-1.091 4.654 9.194 10.5-1 7.994 6.19-3.253 10.709-9 5"/><path fill="#789ba7" d="M751 636c.421 2.734 2.112 5.145 2 8-2.776-3.438-7.932-6.72-7-12.5h-3c3.366 8.262 2.94 27.076 15 20.5 2.51-1.369-1.562-2.93 1.5-3l4.5 5.5c-1.972.065-4.563 1.293-6 1.5-1.638.236-3.288-1.751-5.5-1-.561.191-3.764 5.788-4.5 7-2.248-4.095-2.901-8.543-4-13-14.475-58.704-17.5-174.191 3-231 1.467-4.066 5.953-10.794 8-15 2.911 4.5 6.282 8.836 9 13.5-.758 1.891-3.993-3.956-8 2-10.702 15.907-14.505 84.813-15 106-.863 36.893.506 75.988 10 111.5"/><path fill="#58ecfb" d="M575 425c-7.348 2.479-16.02 9.061-21 15-29.9-16.736-67.303-16.538-99-5l-6-19c41.83-18.037 87.495-15.608 126 9"/><path fill="#667b7d" d="M272 467c-3.841.654-1.98 1.782-3-1.5-1.768-5.689-1.559-12.05-4.5-17.5L228 459.5c.026 1.167-.039 2.345 0 3.5-1.808.571-.541 3.702-3 .5-5.755-7.491-8.243-24.019-20-29.5.581-.295 1.763-1.496 3-2 5.732-2.335 13.925-4.946 20-7 4.931-1.667 26.053-9.388 28.5-8 8.171 4.634 13.958 40.086 15.5 50"/><path fill="#08ccf3" d="m449 416 6 19c-6.203 2.258-13.347 5.632-19 9-11.532 6.87-20.353 15.886-30 25 3.788-8.455-4.182-7.973-8-15 14.185-16.785 30.826-29.301 51-38"/><path fill="#e6e8e9" d="M818 438c-.674 2.449-2.048-.026-3 0-1.235.033-4.095.47-5 1l-43.5-17c-7.474-2.312-13.851 20.531-12 23 12.906 2.905 27.741 9.911 40.5 12-5.015 11.872-7.389 24.295-9 37-6.663 1.828-33.789-5.435-37.5-4-1.026.397-.22 2.672-.5 3-1.133 1.327-.862 1.615-1.5 3l-1.5-2c1.424-25.163 2.263-53.793 14.5-76 16.895 7.474 42.998 11.29 58.5 20"/><path fill="#3c595c" d="M365 426c-32.046 42.984-46.401 77.548-39 133 1.128 8.454 3.595 19.816 6 28 10.064 34.242 30.493 60.965 58 83 47.41 37.979 107.088 49.34 166 33 53.014-14.704 106.596-62.896 127-114l9 3c-21.571 64.058-82.013 116.85-148.5 130C389.027 752.553 257.258 593.004 329 449l7.5 5 26-32z"/><path fill="#fefefe" d="M630 439c.153.233-.15.76 0 1 1.162 1.865 3.171 4.162 4 6 6.597 14.614 9.018 28.371 3 44-1.955 5.077-9.738 14.34-14 18-1.318 1.132-4.926 4.354-6 5-.662.398-5.294 2.712-6 3-.526.214-2.691.595-4 1-2.235.691-4.703 1.646-7 2-9.622 1.482-16.743 1.114-26-2-11.825-3.978-25.458-18.019-29-30-1.848-6.249-2.342-12.494-2-19a55 55 0 0 1 1-8c.486-2.485 1.983-6.56 3-9 .524-1.258 2.141-3.535 3-5 1.305-2.225 2.316-3.992 4-6 4.98-5.939 13.652-12.521 21-15 20.917-7.058 39.657-.884 55 14"/><path fill="#abb7bb" d="M810 439c-6.768 3.964-8.866 14.401-12 18.5-2.375 3.106-1.407-.239-3-.5-12.759-2.089-27.594-9.095-40.5-12-1.851-2.469 4.526-25.312 12-23z"/><path fill="#197ea1" d="M554 440c-1.684 2.008-2.695 3.775-4 6-16.444-7.862-34.758-11.278-53-11-19.741.3-41.086 5.789-58 16l-3-7c5.653-3.368 12.797-6.742 19-9 31.697-11.538 69.1-11.736 99 5"/><path fill="#345059" d="M205 434c11.757 5.481 14.245 22.009 20 29.5 2.459 3.202 1.192.071 3-.5.282 8.35 6.735 28.413 8 40 .332 3.042.756 5.903 1 9 1.196 15.166 1.978 31.301 1 46.5-.323 5.018-.183 12.255-4 15.5.177-3.766-.304-6.349-1-10-.176-.922.233-2.215 0-3 .487-9.676.307-19.319 0-29-.674-21.214-2.783-48.005-10-68-3.342-9.26-12.765-26.03-24-25 .011-4.45 4.434-4.204 6-5"/><path fill="#01b0d7" d="M497 435c1.491 8.139-14.499 1.023-17 7-16.634 2.415-30.351 8.595-44 18-80.608 55.547-38.381 175.953 55 184l-3 3c-99.207-6.896-137.673-142.468-49-196 16.914-10.211 38.259-15.7 58-16"/><path fill="#34f1fe" d="M550 446c-.859 1.465-2.476 3.742-3 5-20.296-10.466-44.461-12.272-67-9 2.501-5.977 18.491 1.139 17-7 18.242-.278 36.556 3.138 53 11"/><path fill="#9ac3d2" d="M643 436c10.446 13.047 18.173 26.408 24 42-3.656-2.31-7.329 2.115-11 3-4.142-10.904-10.717-25.42-18.5-34-1.308-1.442-.163-3.239-3.5-1-.829-1.838-2.838-4.135-4-6 6.619 3.947 7.179-1.402 13-4"/><path fill="#365460" d="M815 438c-29.283 25.129-27.823 79.101-26 115 .257 5.069 2.422 41.062 4 42.5.558.508 14.259 3.703 14-.5 1.431 8.183 3.591 18.624 8 25.5l-5 1.5c-3.944-2.012-7.483-5.489-10-9-8.631-12.039-14.633-37.304-16-52-1.65-17.732-.846-42.24 1-60 .251-2.411.699-4.623 1-7 1.611-12.705 3.985-25.128 9-37 1.593.261.625 3.606 3 .5 3.134-4.099 5.232-14.536 12-18.5.905-.53 3.765-.967 5-1"/><path fill="#a3b7bb" d="M818 438c5.79 3.253 8.429 6.604 12 12-10.665 1.003-10.05-3.944-20 3-8.849 6.176-10.654 13.492-13 23-4.839 19.612-5.97 38.916-6 59-.007 4.815 1.634 14.42-2 18-1.823-35.899-3.283-89.871 26-115 .952-.026 2.326 2.449 3 0"/><path fill="#5f7679" d="M199 439c11.235-1.03 20.658 15.74 24 25-3.04 5.203-5.439-4.692-7-6.5-10.075-11.669-16.731-14.649-29-3.5 2.521-4.944 5.648-14.418 12-15"/><path fill="#0e7697" d="M547 451c-1.017 2.44-2.514 6.515-3 9-21.21-10.373-45.896-14.612-69-8.5l3 12.5c-63.869 18.152-77.125 99.769-27.5 141 44.554 37.017 115.645 19.671 141.5-31l8 1c-61.153 143.199-268.082 20.986-180-90.5 5.315-6.727 24.488-17.623 16-24.5 13.649-9.405 27.366-15.585 44-18 22.539-3.272 46.704-1.466 67 9"/><path fill="#00455c" d="M439 451c-88.673 53.532-50.207 189.104 49 196 40.517 2.816 79.085-14.268 104-46l3 5c-1.329 1.545-2.604 3.538-4 5-30.305 31.743-70.2 46.031-114 39-45.984-7.382-86.035-46.049-94-92-8.307-47.922 6.725-52.67 23-89 9.647-9.114 18.468-18.13 30-25z"/><path fill="#94dbe5" d="M223 464c7.217 19.995 9.326 46.786 10 68l-2 1.5c-3.176-21.848-2.745-66.205-26-76.5-13.218-5.851-17.493 1.235-23 13l-2-.5c2.939-4.814 4.465-10.53 7-15.5 12.269-11.149 18.925-8.169 29 3.5 1.561 1.808 3.96 11.703 7 6.5"/><path fill="#c9d7db" d="M272 467c1.435 9.225 2.213 18.686 3 28l-39 8c-1.265-11.587-7.718-31.65-8-40-.039-1.155.026-2.333 0-3.5l36.5-11.5c2.941 5.45 2.732 11.811 4.5 17.5 1.02 3.282-.841 2.154 3 1.5"/><path fill="#2f9dc2" d="M544 460a55 55 0 0 0-1 8c-22.389-8.783-41.769-10.602-65-4l-3-12.5c23.104-6.112 47.79-1.873 69 8.5"/><path fill="#82c0c9" d="M830 450c3.126 4.723 6.151 11.462 7.5 17-4.172-6.804-6.54-8.172-12.5-12-.344-.221 2.1-2.282.5-3-3.037-1.362-11.817 1.308-15.5 1 9.95-6.944 9.335-1.997 20-3"/><path fill="#f3fdfe" d="M825 455c-3.222-1.038-4.149 1.404-6 2-11.542 3.714-15.423 8.942-22 19 2.346-9.508 4.151-16.824 13-23 3.683.308 12.463-2.362 15.5-1 1.6.718-.844 2.779-.5 3"/><path fill="#173d4d" d="M205 457c.447 6.917 5.318 13.633 7 20.5 5.551 22.66 6.527 54.98 6 78.5-.142 6.319-.526 12.705-1 19-.677 8.985-2.686 17.679-4 26.5-.275 1.844-1.728 6.835 1 7.5-1.238 4.223-1.957 4.251-3 6v-15c9.609-22.574 5.602-109.138-5-132-2.69-5.801-5.604-13.909-13.5-10-1.815.899-1.369 2.895-1.5 3-3.103 2.487-6.3 5.324-8 9h-1c5.507-11.765 9.782-18.851 23-13"/><path fill="#02a6cd" d="M406 469c-16.275 36.33-31.307 41.078-23 89h-14c-5.876-38.962 3.717-74.084 29-104 3.818 7.027 11.788 6.545 8 15"/><path fill="#0286a4" d="M206 468c-6.463 2.846-9.78-3.986-15-7 .131-.105-.315-2.101 1.5-3 7.896-3.909 10.81 4.199 13.5 10"/><path fill="#778e92" d="M233 532c.307 9.681.487 19.324 0 29-3.122-10.513-5.251-4.923-15-5 .527-23.52-.449-55.84-6-78.5-1.682-6.867-6.553-13.583-7-20.5 23.255 10.295 22.824 54.652 26 76.5z"/><path fill="#8ba0a5" d="M819 457c-16.025 25.023-13.683 59.067-16 88-.345-3.497-1.396-7.377-1.5-11l-10.5 1c.03-20.084 1.161-39.388 6-59 6.577-10.058 10.458-15.286 22-19"/><path fill="#50e6f3" d="m835 467 7 27.5-3 6c-.71-6.571-.852-13.572-6-18.5-15.226-14.574-15.464 15.917-16 26-.215 4.049-1.442 14.135 2 17-.022 3.315-.599 22.489 0 23.5.816 1.378 18.578 2.155 19.5 1.5 1.141-.811.611-24.505.5-28 5.37 8.023-1.796 21.379 6 29-.899 10.099-9.211 77.762-31 54.5-15.118-16.14-9.383-121.575 3-141 1.888-2.962 4.316-5.797 7.5-7.5 2.64-.187 8.798 7.814 10.5 10"/><path fill="#014564" d="M600 575c2.519-5.899 4.618-11.695 6-18h4c-12.209 54.592-63.597 91.774-119 87-93.381-8.047-135.608-128.453-55-184 8.488 6.877-10.685 17.773-16 24.5-88.082 111.486 118.847 233.699 180 90.5"/><path fill="url(#c)" d="M543 468c-.342 6.506.152 12.751 2 19-18.264-6.9-34.563-13.661-52.5-1-6.612 4.667-26.032 36.977-27.5 44.5-10.111 51.814 60.891 78.351 83 30.5 2.428-5.254 1.748-10.944 2-11.5.197-.435 5.389-4.576 7-6.5 7.155-8.546 15.113-12.822 17-26 9.257 3.114 16.378 3.482 26 2 4.759 17.134.032 39.259-8 55-25.855 50.671-96.946 68.017-141.5 31-49.625-41.231-36.369-122.848 27.5-141 23.231-6.602 42.611-4.783 65 4" style="fill:url(#c)"/>/&gt;<path fill="#4ce3f2" d="M206 468c10.602 22.862 14.609 109.426 5 132-2.872 6.747-9.808 12.766-17.5 9-11.292-5.528-17.772-55.621-18.5-68 3.001.438 1.947-2.673 2-4.5.11-3.801-.714-24.914 0-26 .656-.999 2.501-.327 3.5-.5l1.5 35.5 1-32.5c1.432 20.492 12.573 4.171 15 18.5V495c4.82 10.541 4.236 23.641 4.5 35 2.363-8.809 1.408-21.954.5-31 11.679-1.804 1.263-9.475 5-15.5l-5.5-13.5c-.66 4.218-.434 6.231-4.5 8-7.503 3.264-4.01-2.553-12 7-2.238 2.676-5.08 8.337-8 10.5 1.167-9.035 3.471-16.306 6.5-24.5.643-1.739-1.538-.918-1.5-1 1.7-3.676 4.897-6.513 8-9 5.22 3.014 8.537 9.846 15 7"/><path fill="#73f1fa" d="M845 551c-7.796-7.621-.63-20.977-6-29-.28-8.822-.967-19.398-3-28-.744-3.145-1.103-8.991-5-9 .237-.184 1.702-2.371 2-3 5.148 4.928 5.29 11.929 6 18.5l3-6-7-27.5c14.548 18.683 12.086 60.563 10 84"/><path fill="#71f5fa" d="M186 485c3.273 1.721 3.501.27 7 3-9.147-4.422-10.347 20.029-10 25l-1 32.5-1.5-35.5c-.999.173-2.844-.499-3.5.5-.714 1.086.11 22.199 0 26-.053 1.827 1.001 4.938-2 4.5-1.203-20.462-1.573-52.685 7-71h1c-.038.082 2.143-.739 1.5 1-3.029 8.194-5.333 15.465-6.5 24.5 2.92-2.163 5.762-7.824 8-10.5"/><path fill="#14d5f2" d="M203 499c-.726-7.232-1.424-14.487-5-21 4.066-1.769 3.84-3.782 4.5-8l5.5 13.5c-3.737 6.025 6.679 13.696-5 15.5"/><path fill="#427c94" d="M667 478c16.41 43.909 13.275 88.582-8 130l-8-5c18.034-38.506 20.108-82.226 5-122 3.671-.885 7.344-5.31 11-3"/><path fill="#eafdfe" d="M198 478c3.576 6.513 4.274 13.768 5 21 .908 9.046 1.863 22.191-.5 31-.264-11.359.32-24.459-4.5-35-1.516-3.316-1.995-4.656-5-7-3.499-2.73-3.727-1.279-7-3 7.99-9.553 4.497-3.736 12-7"/><path fill="#f6fffe" d="M833 482c-.298.629-1.763 2.816-2 3-.641.498-2.302.315-4 2.5-1.448 1.863-2.07 4.457-3 6.5-2.32 5.096-4.367 10.425-5 16l-2-2c.536-10.083.774-40.574 16-26"/><path fill="url(#d)" d="M545 487c3.542 11.981 17.175 26.022 29 30-1.887 13.178-9.845 17.454-17 26 2.753-13.72 4.654-28.242-8.5-37-17.123-11.401-32.187 6.065-26.5 24.5 3.621 11.737 26.677 18.719 12 34 2.202 2.659 11.034-3.061 14-3.5-22.109 47.851-93.111 21.314-83-30.5 1.468-7.523 20.888-39.833 27.5-44.5 17.937-12.661 34.236-5.9 52.5 1" style="fill:url(#d)"/>/&gt;<path fill="#13ceec" d="M831 485c3.897.009 4.256 5.855 5 9-2.755 1.372-2.378.294-2.5 3-.197 4.36 3.661 28.823 2 30l-12.5-.5 1-32.5c.93-2.043 1.552-4.637 3-6.5 1.698-2.185 3.359-2.002 4-2.5"/><path fill="#10cdec" d="M193 488c3.005 2.344 3.484 3.684 5 7v36.5c-2.427-14.329-13.568 1.992-15-18.5-.347-4.971.853-29.422 10-25"/><path fill="#86edfa" d="M639 557c-.13-7.96-8.068-5.191-15-8 1.921-12.66 1.928-28.753-1-41 4.262-3.66 12.045-12.923 14-18 7.662 21.261 8.167 45.367 2 67"/><path fill="#f9f9f9" d="M786 494c-.301 2.377-.749 4.589-1 7l-37-8c.28-.328-.526-2.603.5-3 3.711-1.435 30.837 5.828 37.5 4"/><path fill="url(#e)" d="M785 501c-1.846 17.76-2.65 42.268-1 60-1.616 11.375 2.293 25.324 6 36-2.21 4.542 6.096 11.557 1.5 15-5.252 3.935-34.007 5.748-41.5 11-6.6-42.404-7.433-86.016-5-129l1.5 2c.638-1.385.367-1.673 1.5-3z" style="fill:url(#e)"/>/&gt;<path fill="#35dcf0" d="M836 494c2.033 8.602 2.72 19.178 3 28 .111 3.495.641 27.189-.5 28-.922.655-18.684-.122-19.5-1.5-.599-1.011-.022-20.185 0-23.5.032-4.695-.507-10.53 0-15 .633-5.575 2.68-10.904 5-16l-1 32.5 12.5.5c1.661-1.177-2.197-25.64-2-30 .122-2.706-.255-1.628 2.5-3"/><path fill="#ced5d7" d="M276 508c-2.169-1.208.584-3.057-3.5-3-9.072.128-25.2 7.967-35.5 7-.244-3.097-.668-5.958-1-9l39-8c.37 4.38.741 8.576 1 13"/><path fill="#0a1d38" d="M557 543c-1.611 1.924-6.803 6.065-7 6.5-.252.556.428 6.246-2 11.5-2.966.439-11.798 6.159-14 3.5 14.677-15.281-8.379-22.263-12-34-5.687-18.435 9.377-35.901 26.5-24.5 13.154 8.758 11.253 23.28 8.5 37m-22.5-38c-13.519 2.784-15.918 25.664-1 30 25.775 7.491 28.063-35.573 1-30"/><path fill="url(#f)" d="M276 508c2.229 38.108 2.228 77.318-4 115-.66-.017-1.342.036-2 0-11.246-.624-30.524-7.947-41-12 2.434-5.957 5.169-13.84 3-20-.23-.653.543-2.054-1-2 1.173-4.496 2.785-10.44 3-15 3.817-3.245 3.677-10.482 4-15.5.978-15.199.196-31.334-1-46.5 10.3.967 26.428-6.872 35.5-7 4.084-.057 1.331 1.792 3.5 3" style="fill:url(#f)"/>/&gt;<path fill="#fdfdfe" d="M534.5 505c27.063-5.573 24.775 37.491-1 30-14.918-4.336-12.519-27.216 1-30"/><path fill="#3c91b0" d="M624 549c-.418 2.755-2.313 6.311-3 9-1.743-5.607 7.553-20.108-3-20 .074-.984-.046-2.011 0-3 .342-7.386-.309-14.678-1-22 1.074-.646 4.682-3.868 6-5 2.928 12.247 2.921 28.34 1 41"/><path fill="#b7fafe" d="M819 510c-.507 4.47.032 10.305 0 15-3.442-2.865-2.215-12.951-2-17z"/><path fill="#8df1fc" d="M617 513c.691 7.322 1.342 14.614 1 22h-5c.226-6.292-.425-12.912-2-19 .706-.288 5.338-2.602 6-3"/><path fill="#2b80a6" d="M611 516c1.575 6.088 2.226 12.708 2 19-.233 6.493-1.572 15.617-3 22h-4c2.878-13.131 5.024-26.925 1-40 1.309-.405 3.474-.786 4-1"/><path fill="#2f9dc2" d="M607 517c4.024 13.075 1.878 26.869-1 40-1.382 6.305-3.481 12.101-6 18l-8-1c8.032-15.741 12.759-37.866 8-55 2.297-.354 4.765-1.309 7-2"/><path fill="#83a2a5" d="M703 525c.064 3.955.171 8.053 0 12-.818 18.892-5 37.183-11 55l-9-3c3.657-9.16 7.854-23.806 10-33.5 1.026-4.635 2.812-29.052 4-30 1.369-1.092 4.24-.252 6-.5"/><path fill="#5b797e" d="M803 545c1.681 17.027.937 32.486 4 50 .259 4.203-13.442 1.008-14 .5-1.578-1.438-3.743-37.431-4-42.5 3.634-3.58 1.993-13.185 2-18l10.5-1c.104 3.623 1.155 7.503 1.5 11"/><path fill="#1bdaf6" d="M618 535c-.046.989.074 2.016 0 3-1.747 23.253-11.875 45.011-26 63-24.915 31.732-63.483 48.816-104 46l3-3c55.403 4.774 106.791-32.408 119-87 1.428-6.383 2.767-15.507 3-22z"/><path fill="#1a7391" d="M621 558c-5.021 19.646-12.928 32.802-26 48l-3-5c14.125-17.989 24.253-39.747 26-63 10.553-.108 1.257 14.393 3 20"/><path fill="#45d0ec" d="M639 557c.327 20.031-23.352 52.986-37 67l-11-13c1.396-1.462 2.671-3.455 4-5 13.072-15.198 20.979-28.354 26-48 .687-2.689 2.582-6.245 3-9 6.932 2.809 14.87.04 15 8"/><path fill="#516e73" d="M233 561c.233.785-.176 2.078 0 3l-11 47c-2.995 5.329-7.192 12.48-13 15l-8-.5c6.196-2.421 7.031-5.519 10-10.5 1.043-1.749 1.762-1.777 3-6 2.907-9.913 4.449-23.911 3-34 .474-6.295.858-12.681 1-19 9.749.077 11.878-5.513 15 5"/><path fill="#7c9da0" d="M339 575c1.213 4.732 2.501 9.36 4 14-.621-.973-3.9-2.936-3.5-6l-7.5 4c-2.405-8.184-4.872-19.546-6-28 12.012-11.426 5.988 12.185 13 16"/><path fill="#0088a5" d="M383 558c7.965 45.951 48.016 84.618 94 92v16c-54.506-8.961-99.75-53.297-108-108z"/><path fill="#c2d3d3" d="m800 613-1 2c-3.867-5.659-6.766-11.565-9-18-3.707-10.676-7.616-24.625-6-36 1.367 14.696 7.369 39.961 16 52"/><path fill="#173946" d="M234 574c-.215 4.56-1.827 10.504-3 15-1.714 6.574-5.652 16.043-9 22l11-47c.696 3.651 1.177 6.234 1 10"/><path fill="#5d7d7e" d="M214 609c-2.728-.665-1.275-5.656-1-7.5 1.314-8.821 3.323-17.515 4-26.5 1.449 10.089-.093 24.087-3 34"/><path fill="#afcfd1" d="M343 589c18.381 28.817 19.615 45.572 49 71 2.718 5.135.498 5.384-2 10-27.507-22.035-47.936-48.758-58-83l7.5-4c-.4 3.064 2.879 5.027 3.5 6"/><path fill="#deeaea" d="M232 591c-4.742 15.013-11.042 31.147-25 40-3.21-.116-5.944-.712-9-1l-2.5-5c6.154 2.839 7.289 3.695 13.5 1 5.808-2.52 10.005-9.671 13-15 3.348-5.957 7.286-15.426 9-22 1.543-.054.77 1.347 1 2"/><path fill="#355054" d="M799 615c6.586 9.639 16.378 18.839 28 11 .697 1.213 3.468 2.296 2 7.5-3.411 12.088-19.892-6.248-25-8l19 15.5c-18.748 9.276-44.126 9.981-64 17 .079-.925-1.112-1.097-1-2 1.437-.207 4.028-1.435 6-1.5l-4.5-5.5c-3.062.07 1.01 1.631-1.5 3-1.964-2.524-2.981-5.5-5-8 .112-2.855-1.579-5.266-2-8-.526-3.42-.417-9.256-1-13 7.493-5.252 36.248-7.065 41.5-11 4.596-3.443-3.71-10.458-1.5-15 2.234 6.435 5.133 12.341 9 18"/><path fill="#3f575a" d="m270 623-8 32c-1.568.847-3.358 2.125-5 3-18.079-4.864-35.498-9.562-53-16 9.498-6.754 20.589-20.203 25-31 10.476 4.053 29.754 11.376 41 12m-11.5 30c-2.235 1.359 1.744 3.162 2.5 1.5.06-.133-1.666-2.008-2.5-1.5"/><path fill="#02a6cd" d="M602 624c-33.385 34.281-77.013 49.889-125 42v-16c43.8 7.031 83.695-7.257 114-39z"/><path fill="#eff7f7" d="M810 622c6.498 3.316 9.637 4.263 17.5 2 1.175.671-.895 1.312-.5 2-11.622 7.839-21.414-1.361-28-11l1-2c2.517 3.511 6.056 6.988 10 9"/><path fill="#306575" d="M277 662c-.363 1.189-3.929 9.69-6 7-2.425-4.695-5.355-9.408-8-14 10.011-6.993 9.48-17.226 14-26.5.991-2.033.734-4.051 3.5-3.5-1.125 11.337-.184 26.139-3.5 37"/><path fill="#27464e" d="M198 630c3.056.288 5.79.884 9 1 2.79.101 2.338 1.141 5.5-1-4.647 10.768-17.461 15.469-18.5-.5.265-2.664 1.394.254 4 .5"/><path fill="#1f6377" d="M302.5 630c15.755-3.259 11.018 23.708-4 19-8.241-2.583-3.508-17.447 4-19m0 3c-2.979.379-9.439 8.229-5 11 8.132 2.274 15.504-12.335 5-11"/><path fill="#648e9d" d="M753 644c2.019 2.5 3.036 5.476 5 8-12.06 6.576-11.634-12.238-15-20.5h3c-.932 5.78 4.224 9.062 7 12.5"/><path fill="#3c9ebb" d="M302.5 633c10.504-1.335 3.132 13.274-5 11-4.439-2.771 2.021-10.621 5-11"/><path fill="#6292a3" d="M715.5 633c3.116.95-2.624 4.304-2.5 6.5.511 9.065 13.913 3.514 7.5-3.5 21.034 18.432-25.213 19.228-5-3"/><path fill="#b8d2db" d="M744 649c1.099 4.457 1.752 8.905 4 13-7.333 12.069-12.958 26.192-21 39-8.753 8.48-16.319 18.561-24 28l-3-2c8.165-10.298 15.823-20.84 22-32.5-10.581 7.469-17.688 18.788-26 28.5l19-30.5c5.052-5.777 7.926-22.244 11-27 1.869-2.891 6.685-3.643 8.5-5.5 3.498-3.579 6.191-7.338 9.5-11"/><path fill="#5c777b" d="M258.5 653c.834-.508 2.56 1.367 2.5 1.5-.756 1.662-4.735-.141-2.5-1.5"/><path fill="#013447" d="M271 669c23.495 45.498 48.422 80.065 87 114 44.45 39.101 106.915 75.585 168.5 69 23.765-2.541 86.706-26.304 102.5-44 39.114-28.966 72.143-65.817 98-107 8.042-12.808 13.667-26.931 21-39 .736-1.212 3.939-6.809 4.5-7 2.212-.751 3.862 1.236 5.5 1-.112.903 1.079 1.075 1 2-.332 3.898-16.806 34.917-20 40.5-40.402 70.626-124.106 154.969-208.5 165.5C411.846 878.807 297.017 760.032 257 658c1.642-.875 3.432-2.153 5-3 .266-.143.782.152 1 0 2.645 4.592 5.575 9.305 8 14"/><path fill="#1b5e74" d="M304.5 656c12.697-3.889 11.801 24.168 0 21-5.287-1.419-4.78-19.536 0-21m3 4c-2.807 1.061-.695 6.512 1 8 3.847-1.684 3.216-9.593-1-8"/><path fill="#68c4d6" d="M307.5 660c4.216-1.593 4.847 6.316 1 8-1.695-1.488-3.807-6.939-1-8"/><path fill="#e6f1f4" d="M554 696c3.412-.49 1.597 4.377 2 7-58.912 16.34-118.59 4.979-166-33 2.498-4.616 4.718-4.865 2-10 44.127 38.185 105.416 52.338 162 36"/><path fill="#4b7e8b" d="m461 827-3 14c-24.293-7.957-46.057-20.41-67.5-34L358 783c-38.578-33.935-63.505-68.502-87-114 2.071 2.69 5.637-5.811 6-7 23.357 33.123 47.036 68.952 77.5 96 21.004 18.649 80.862 61.415 106.5 69"/><path fill="#eafbfd" d="M700 727c-17.208 21.704-35.066 37.414-57 54l-10 4.5c24.333-17.633 43.67-39.916 63-62.5 8.312-9.712 15.419-21.031 26-28.5-6.177 11.66-13.835 22.202-22 32.5"/><path fill="#ecf5f7" d="M727 701c-25.857 41.183-58.886 78.034-98 107 .226-.253 2.829-5.084 3-6 27.356-21.036 49.376-46.429 71-73 7.681-9.439 15.247-19.52 24-28"/><path fill="#739ba7" d="M703 729c-21.624 26.571-43.644 51.964-71 73-32.772 25.201-75.444 46.697-116.5 49-2.242.126-1.224-2.023-2-2-.269.008.111 2.067-5 2-.754-.01-.244-1.98-1-2-.704-.019.528 2.194-3 2-16.024-.882-31.442-5.068-46.5-10l3-14c64.306 19.026 131.478-7.798 182-46 21.934-16.586 39.792-32.296 57-54z"/><path fill="#3e8fa6" d="M513 762c26.584 32.054-33.766 36.02-15.5 6l-9.5 11c.37-10.243 16.127-20.425 25-17"/><path fill="#23667b" d="m488 779 9.5-11c-18.266 30.02 42.084 26.054 15.5-6 14.879 5.743 21.452 27.175 6.5 36-13.365 7.888-32.042-4.005-31.5-19"/><path fill="#bddbe0" d="M458 841c15.058 4.932 30.476 9.118 46.5 10 3.528.194 2.296-2.019 3-2 .756.02.246 1.99 1 2 5.111.067 4.731-1.992 5-2 .776-.023-.242 2.126 2 2 41.056-2.303 83.728-23.799 116.5-49-.171.916-2.774 5.747-3 6-15.794 17.696-78.735 41.459-102.5 44-61.585 6.585-124.05-29.899-168.5-69l32.5 24c21.443 13.59 43.207 26.043 67.5 34"/>/&gt;</svg>