<svg xmlns="http://www.w3.org/2000/svg" width="1024" height="1024"><defs><linearGradient id="a" x1="235.114" x2="724.958" y1="192.098" y2="256.038" gradientUnits="userSpaceOnUse"><stop offset="0%" style="stop-color:#82b1bc"/><stop offset="93.117%" style="stop-color:#d9e8ec"/></linearGradient></defs><defs><linearGradient id="b" x1="829.462" x2="549.015" y1="425.558" y2="681.974" gradientUnits="userSpaceOnUse"><stop offset="0%" style="stop-color:#cde3e5"/><stop offset="100%" style="stop-color:#99c6cf"/></linearGradient></defs><defs><linearGradient id="c" x1="611.589" x2="550.767" y1="422.527" y2="434.555" gradientUnits="userSpaceOnUse"><stop offset="0%" style="stop-color:#a5e5fa"/><stop offset="100%" style="stop-color:#67cbed"/></linearGradient></defs><path fill="#16465d" d="M829 280c-5.704 4.61-7.894-3.849-9.5-4-1.175-.111-15.914 12.193-19 14-21.916 12.836-53.054 25.89-77.5 33-14.115 4.105-24.045 5.644-38 7-77.36-85.645-212.901-98.074-308.5-35-14.657 9.67-25.323 21.538-38.5 32-2.45 1.945-3.821 3.327-5.5 6-43.21-6.468-84.273-23.554-122-45-2.767-1.573-14.075-11.096-15-11-1.986.206-2.017 9.077-8.5 5 8.459-19.358 19.301-37.417 33-53.5-3.216-42.354-3.643-85.053 3-127 .451-2.848 5.032-13.257 5-14-.049-1.117-4.804-6.217-5-7-10.018-40.035 43.485-43.029 47-14 1.691 13.963-7.028 24.017-19.5 28.5-3.713 1.335-8.67-2.52-10.5 3.5-6.564 21.591 11.279 72.169 23.5 91.5 142.196-95.856 349.972-96.52 490 4 19.466-29.009 28.862-64.597 26.5-99.5-13.106-1.193-28.187-7.215-30-22-3.819-31.148 41.501-37.005 48-10 3.197 13.285-4.858 17.01-5 24-.049 2.435 4.528 14.932 5 19 3.699 31.889 4.872 63.85 4 96-.149 5.498-4.447 31.023-4 33 .274 1.211 13.879 15.766 16 19 5.598 8.538 10.501 17.338 15 26.5M790 77c3.71-7.613 2.63-11.648-2-18-14.99-20.566-41.156 2.77-28 20.5 7.182 9.679 24.57 8.643 30-2.5M242.5 53c-21.45 3.726-17.831 40.643 8 35 19.825-4.331 15.035-39.002-8-35M784 129c-3.247 23.552-13.19 49.008-25 69.5 2.443 3.715 7.173 5.815 10 8.5 6.746 6.407 13.694 12.642 20.5 19 8.577-37.019 8.101-76.296 2.5-114-.463-3.114-1.86-1.656-2-2.5-.52-3.127 1.984-20.513-2.5-20.5-5.201.015-1.437 12.144-1.5 14.5-.23 8.641-.823 16.961-2 25.5m-555-19c-5.924 35.967-8.053 73.482.5 109 5.717-5.779 11.48-11.55 17.5-17 1.706-1.545 10.77-6.445 11-8.5-9.893-20.467-20.876-46.235-23-69-.719-7.709 1.967-24.976 1-30-.103-.534-2.473-2.17-3-3l-2 1c-1.282 5.774-1.042 11.682-2 17.5m61 74c-31.128 16.11-61.987 46.122-80 76-1.799 2.984-4.516 6.013-7 8.5 38.45 28.549 83.075 49.957 130.5 58.5 1.463-.344 8.592-9.4 10.5-11 101.326-84.947 227.05-86.041 330-3 3.485 2.811 12.895 13.882 16.5 14 16.007-4.61 31.165-10.596 46.5-17 26.714-11.155 51.361-25.028 75.5-41-3.436-4.675-6.988-9.369-10.5-14-45.402-59.86-115.888-98.798-188.5-115-105.627-23.569-230.003-12.551-323.5 44"/><path fill="#8abec8" d="M788 59c.875 7.007-7.119 19.12 2 18-5.43 11.143-22.818 12.179-30 2.5-13.156-17.73 13.01-41.066 28-20.5m-17.5-4c-5.791 2.298.848 12.764 7 9 5.989-3.664-1.112-11.337-7-9"/><path fill="#79aab3" d="M242.5 53c23.035-4.002 27.825 30.669 8 35-25.831 5.643-29.45-31.274-8-35m4 3c-3.974.515-7.544 8.225-3 10 8.273 3.232 13.486-11.359 3-10"/><path fill="#fbfdfe" d="M770.5 55c5.888-2.337 12.989 5.336 7 9-6.152 3.764-12.791-6.702-7-9"/><path fill="#f7fafc" d="M246.5 56c10.486-1.359 5.273 13.232-3 10-4.544-1.775-.974-9.485 3-10"/><path fill="#719a9c" d="M790 77c-9.119 1.12-1.125-10.993-2-18 4.63 6.352 5.71 10.387 2 18"/><path fill="#d8eef0" d="M792 112c-3.334 3.792-2.538 13.057-3 18l-5-1c1.177-8.539 1.77-16.859 2-25.5.063-2.356-3.701-14.485 1.5-14.5 4.484-.013 1.98 17.373 2.5 20.5.14.844 1.537-.614 2 2.5"/><path fill="#a9dae1" d="M247 202c-12.898-29.037-15.338-60.724-18-92 .958-5.818.718-11.726 2-17.5l2-1c.527.83 2.897 2.466 3 3 .967 5.024-1.719 22.291-1 30 2.124 22.765 13.107 48.533 23 69-.23 2.055-9.294 6.955-11 8.5"/><path fill="#679ba9" d="M247 202c-6.02 5.45-11.783 11.221-17.5 17-8.553-35.518-6.424-73.033-.5-109 2.662 31.276 5.102 62.963 18 92"/><path fill="#6b9eac" d="M792 112c5.601 37.704 6.077 76.981-2.5 114-6.806-6.358-13.754-12.593-20.5-19 13.237-22.253 17.589-51.18 20-77 .462-4.943-.334-14.208 3-18"/><path fill="#ecf3f5" d="M802 255c-2.6 2.023-5.276 4.154-8 6-26.892-33.618-57.656-58.591-95.5-79-116.224-62.677-291.985-58.299-408.5 2 93.497-56.551 217.873-67.569 323.5-44 72.612 16.202 143.098 55.14 188.5 115"/><path fill="#8dc7d2" d="M789 130c-2.411 25.82-6.763 54.747-20 77-2.827-2.685-7.557-4.785-10-8.5 11.81-20.492 21.753-45.948 25-69.5z"/><path fill="url(#a)" d="M794 261c-4.586 3.109-9.382 5.937-14 9-32.269-50.794-91.845-83.423-148.5-100-76.618-22.418-158.194-20.402-237-12l-1 3c132.701-17.267 259.866 30.222 347.5 130-2.635 1.049-5.341 2.014-8 3-19.335 7.173-39.04 14.127-59 19-102.95-83.041-228.674-81.947-330 3-47.403-11.917-92.53-30.278-134-56 18.013-29.878 48.872-59.89 80-76 116.515-60.299 292.276-64.677 408.5-2 37.844 20.409 68.608 45.382 95.5 79m-522 7c-2.793 5.93-3.086 6.47 0 13 7.372 15.6 31.763 2.585 23-13.5-4.742-8.705-18.44-9.182-23 .5m413.5 11c-13.952 2.987-10.768 30.034 9 26 14.913-3.043 11.222-30.329-9-26M322 284c-6.022 5.174-6.441 8.771-3 16 5.814 12.214 23.166 6.926 25-3.5 2.188-12.435-11.548-21.48-22-12.5" style="fill:url(#a)"/>/&gt;<path fill="#fdfefe" d="M780 270c-6.092 4.041-11.228 9.685-18.5 12 22.45-21.743-18.7-37.394-21.5-15.5-1.526 11.931 8.736 17.085 19 17-5.787 3.009-11.967 5.098-18 7.5-87.634-99.778-214.799-147.267-347.5-130l1-3c78.806-8.402 160.382-10.418 237 12 56.655 16.577 116.231 49.206 148.5 100"/><path fill="#cde7ec" d="M685 330c-4.678.455-15.553 3.741-19.5 3-3.022-.567-12.547-12.314-16-15-4.331-3.369-9.007-5.97-13.5-9-14-9.44-28.9-17.319-45-23-23.651-8.346-44.887-11.855-70-13-43.777-1.995-76.158 4.292-115 24-9.2 4.668-17.873 9.327-26.5 15-13.817 9.085-23.699 27.22-41.5 15 13.177-10.462 23.843-22.33 38.5-32 95.599-63.074 231.14-50.645 308.5 35"/><path fill="#75a7b3" d="m737 310-4-16c2.659-.986 5.365-1.951 8-3 6.033-2.402 12.213-4.491 18-7.5-10.264.085-20.526-5.069-19-17 2.8-21.894 43.95-6.243 21.5 15.5 7.272-2.315 12.408-7.959 18.5-12 4.618-3.063 9.414-5.891 14-9 2.724-1.846 5.4-3.977 8-6 3.512 4.631 7.064 9.325 10.5 14-24.139 15.972-48.786 29.845-75.5 41m15.5-53c-12.527 1.279-13.251 21.631-2 24 20.168 4.247 19.874-25.825 2-24"/><path fill="#d5e6e9" d="M752.5 257c17.874-1.825 18.168 28.247-2 24-11.251-2.369-10.527-22.721 2-24"/><path fill="#6a9ba9" d="M344 316c-1.908 1.6-9.037 10.656-10.5 11-47.425-8.543-92.05-29.951-130.5-58.5 2.484-2.487 5.201-5.516 7-8.5 41.47 25.722 86.597 44.083 134 56"/><path fill="#1a435d" d="M272 281c2.571 2.028 3.623 3.142 7 4 18.767 4.767 20.03-19.958 6-22-5.451-.793-8.965 1.661-13 5 4.56-9.682 18.258-9.205 23-.5 8.763 16.085-15.628 29.1-23 13.5"/><path fill="#6eb4c3" d="M285 263c-1.422 5.159 2.926 12.285 0 17.5-1.985 3.537-5.845 1.111-6 4.5-3.377-.858-4.429-1.972-7-4-3.086-6.53-2.793-7.07 0-13 4.035-3.339 7.549-5.793 13-5"/><path fill="#62a6b5" d="M279 285c.155-3.389 4.015-.963 6-4.5 2.926-5.215-1.422-12.341 0-17.5 14.03 2.042 12.767 26.767-6 22"/><path fill="#91c0c9" d="M521 273c-.545 2.635.734 15.457 0 16.5-1.53 2.172-7.625-1.918-9 1.5-.662-.007-1.338 0-2 0-33.767.024-64.975 8.236-95 23l-9-17c38.842-19.708 71.223-25.995 115-24"/><path fill="#b5d9e0" d="M591 286c-.819 4.859-7.162 13.778-4 18-22.497-8.155-51.047-12.736-75-13 1.375-3.418 7.47.672 9-1.5.734-1.043-.545-13.865 0-16.5 25.113 1.145 46.349 4.654 70 13"/><path fill="#92c0c9" d="M829 280c1.61 3.278 2.63 6.712 4 10-1.93.665-3.643 2.929-5 4-2.094-2.772-1.673-1.994-4.5-1-19.252 6.766-42.9 24.686-62.5 34-10.446 4.964-21.756 9.009-34 13l-4-17c24.446-7.11 55.584-20.164 77.5-33 3.086-1.807 17.825-14.111 19-14 1.606.151 3.796 8.61 9.5 4"/><path fill="#6e9daa" d="M338 327c17.801 12.22 27.683-5.915 41.5-15 8.627-5.673 17.3-10.332 26.5-15l9 17c-38.224 18.796-73.407 50.426-94 88 .757-4.784-7.55-3.791-8-4-5.691-2.639-10.086-7.606-18-8-.182-.009-1.083-2.017-3.5-1-16.667 28.391-26.012 63.842-27.5 97-2.836-.384-1.05 2.488-4.5 2-13.486-1.907-42.395-45.771-61.5-45v-12c3.997-31.33 5.065-65.213 17.5-94l10 6 4.5-14c17.01 7.417 35.012 15.297 53 20-1.057 6.709 1.225 14.145 1 20.5-.055 1.557-3.024 2.789-3 3 .077.678 11.817 5.517 12.5 5.5 3.336-.085 15.808-18.974 18.5-23 .959-1.434 2.119-2.521 3-4 .999-1.676 4.407-.847 2-2 .438-1.753-1.381-2.445-2.5-3-21.524-10.668-53.469-17.586-77-28-16.24-7.187-31.223-16.951-47.5-24-1.907-1.829-3.423-3.945-6-5 .961-2.419 1.967-4.636 3-7 6.483 4.077 6.514-4.794 8.5-5 .925-.096 12.233 9.427 15 11 37.727 21.446 78.79 38.532 122 45 1.679-2.673 3.05-4.055 5.5-6"/><path fill="#6a9eae" d="M685.5 279c20.222-4.329 23.913 22.957 9 26-19.768 4.034-22.952-23.013-9-26m8.5 24c12.103-3.196 9.602-19.95 0-22-20.352-4.345-19.151 27.058 0 22"/><path fill="#17425b" d="M319 300c4.255 3.666 5.171 5.053 11 5 16.601-.15 14.169-21.533 2-23-4.43-.534-6.079 1.787-10 2 10.452-8.98 24.188.065 22 12.5-1.834 10.426-19.186 15.714-25 3.5"/><path fill="#b2dbe3" d="M694 281c-8.931 6.993-5.359 13.902 0 22-19.151 5.058-20.352-26.345 0-22"/><path fill="#c4e4ea" d="M694 303c-5.359-8.098-8.931-15.007 0-22 9.602 2.05 12.103 18.804 0 22"/><path fill="#72b8c6" d="m332 282-2 23c-5.829.053-6.745-1.334-11-5-3.441-7.229-3.022-10.826 3-16 3.921-.213 5.57-2.534 10-2"/><path fill="#6aafbd" d="m330 305 2-23c12.169 1.467 14.601 22.85-2 23"/><path fill="#92c0c9" d="m636 309-9 16c-9.592-6.079-19.599-10.486-30-15-1.976-.858-8.987-5.633-10-6-3.162-4.222 3.181-13.141 4-18 16.1 5.681 31 13.56 45 23"/><path fill="#134359" d="M190 294c29.514 28.308 88.588 42.53 127 55 2.407 1.153-1.001.324-2 2-38.542-4.751-72.977-20.451-107-38-6.625-3.417-12.974-7.385-19.5-11-13.146 31.844-16.633 67.493-18.5 102-9.853 182.114 57.075 358.946 216.5 456 1.528-2.769-.113-5.391-.5-8-3.412-23.026-12.952-46.998-5-70 21.217-34.542 27.73-31.633 68-32 42.961-.391 112.606-4.588 152.5 0 14.438 1.66 31.634 11.32 38.5 24.5 14.174 27.208-1.611 56.25-2.5 84.5 22.502-15.004 42.167-30.061 61.5-49 91.095-81.51 145.289-215.116 150-336.5 2.165-55.789-.912-121.011-22.5-172.5-9.362 4.655-18.105 10.435-27.5 15-30.553 14.846-62.101 27.654-96 33-.068-.138-1.568.397-2-.5 7.949-3.584 17.354-5.682 26-8.5 12.244-3.991 23.554-8.036 34-13 6.529-.711 13.577-3.364 19.5-6 10.853-4.831 38.592-19.97 47.5-27 1.357-1.071 3.07-3.335 5-4 9.078 21.783 15.745 42.86 19 66.5 10.042 10.02 48.246 15.325 50 30-.531 83.739 7.563 168.89-29 247-13.391 28.608-43.324 11.137-54 20-2.185 1.814-20.865 43.757-25 51-34.299 60.088-78.142 110.68-134 151.5-9.839 7.19-22.497 14.396-33 21v-1c.176-6.09 1.786-12.086 3-18 3.162-15.409 9.157-35.523 9-51 3.374-22.246-12.084-45.781-34-51-25.38-6.043-142.894-4.814-172.5-2-59.489 5.655-50.449 61.766-38.5 104 1.616 5.71 3.744 11.954 7 17-.337.766-.883 1.227-1 2-13.569-7.014-27.357-14.42-40-23-72.259-49.039-123.515-121.428-159.5-200-14.715-.812-43.26 3.547-52.5-10.5-4.584-6.968-17.123-45.96-20-56-18.899-65.958-14.253-133.036-13-201 3.202-10.555 47.855-24.108 51-30 3.529-23.101 9.4-45.842 18-67.5 2.577 1.055 4.093 3.171 6 5m665 79c2.714 53.186 5.488 99.559-1 153-4.284 35.288-13.31 66.401-24 100-.969 3.045-8.096 18.983-5.5 20 8.647-2.076 24.434.624 32-2 7.96-2.761 12.828-23.675 15.5-31 3.318-9.097 6.328-17.65 9-27 1.634-5.716 2.604-12.166 4-18 2.542-10.621 5.263-17.354 7-29 1.329-8.909 1.15-17.251 2-26 2.886-29.7 5.088-58.146 4-88-.024-.66.029-1.341 0-2-.195-4.468-.681-9.461-1-14-.415-5.903-.513-26.054-3-29.5-1.193-1.653-21.153-9.045-25-10.5-4.863-1.839-9.43-4.609-14.5-6-2.414.44.451 9.03.5 10m-714 2c-6.441 1.365-17.76 4.356-20 11-2.342 6.945-.28 17.616-1 25-1.18 3.632-.688 7.363-1 11-.056.653.052 1.346 0 2-2.3 28.791.83 63.089 4 92 1.089 9.927 1.433 20.145 3 30 .739 4.65 2.056 9.364 3 14 1.833 8.996 5.487 19.016 8 28 2.748 9.822 7.885 31.331 12 40.5 1.24 2.763 9.215 16.521 11.5 17.5 3.041 1.302 35.823 3.431 37 2-.023-5.268-3.197-9.613-5.5-14-20.49-54.371-30.34-110.841-32-169-.859-30.093.86-59.128 3-89 .166-2.324 1.844-11.012.5-12z"/><path fill="#0b4460" d="M510 291c.45 6.895-2.639 9.901 5.5 11-38.215-1.542-76.479 8.232-109 28-4.612 2.803-37.511 27.114-37.5 29.5.004.785 9.133 10.06 8 13.5-3.233 3.095-12.07 14.04-15 18-.977 1.321-1.905 3.404-3 5-8.551-2.077-16.279 17.598-19 24.5-5.736 14.546-7.354 26.606-8 41.5-.043.991.035 2.008 0 3l-3-6.5c-10.054 53.001 4.087 111.766 39 153 8.552 10.1 39.203 37.936 51 41.5 1.055.319 1.553.679 3 1 8.513 6.141 19.195 13.32 29 17 17.583 6.6 40.329 9.654 59 9 23.606-.827 50.398-6.53 72-16 14.985-6.569 26.335-15.322 39-25 6.422-4.907 5.174-.813 5.5-1 3.365-1.926 4.007-6.587 6.5-9 3.094-2.994 6.918-4.532 10-9 .916-1.328 2.308-2.491 3-4 3.994-3.063 7.595-6.262 11-10 2.365-2.596 4.036-5.122 6-8 1.679-2.46 3.327-3.873 5-7 10.485-12.711 15.414-27.543 20-43 2.698-9.093 6.101-17.263 7-27 2.533.15 14.813-.115 16-1.5 1.009-1.177.176-27.499 0-31-3.394-67.39-39.69-123.758-96.5-158.5-8.527-5.215-29.296-8.095-17.5-20 10.401 4.514 20.408 8.921 30 15 33.578 21.28 62.302 52.855 79 89 29.625 64.127 24.169 133.508-12 193.5-5.137 8.521-16.413 19.674-20 27.5-70.808 79.802-187.17 97.75-278.5 41-90.873-56.466-126.724-178.714-74.5-274 20.593-37.574 55.776-69.204 94-88 30.025-14.764 61.233-22.976 95-23M316.5 551c37.561 143.761 220.27 195.758 330 95 25.29-23.222 47.98-56.95 56-90-45.472 130.852-203.824 184.627-316 96-33.97-26.839-55.244-60.538-70-101"/><path fill="#00698f" d="M512 291c23.953.264 52.503 4.845 75 13 1.013.367 8.024 5.142 10 6-11.796 11.905 8.973 14.785 17.5 20 56.81 34.742 93.106 91.11 96.5 158.5.176 3.501 1.009 29.823 0 31-1.187 1.385-13.467 1.65-16 1.5 8.158-88.404-48.347-169.243-134-191-17-4.318-32.344-6.843-50-7-35.366-.315-64.19 7.523-95 24-8.307 4.442-16.421 9.449-24 15-5.469 4.006-9.589 5.82-15 11 1.133-3.44-7.996-12.715-8-13.5-.011-2.386 32.888-26.697 37.5-29.5 32.521-19.768 70.785-29.542 109-28-8.139-1.099-5.05-4.105-5.5-11 .662 0 1.338-.007 2 0"/><path fill="#d1eaed" d="M828 294c-8.908 7.03-36.647 22.169-47.5 27-5.923 2.636-12.971 5.289-19.5 6 19.6-9.314 43.248-27.234 62.5-34 2.827-.994 2.406-1.772 4.5 1"/><path fill="#a7d4db" d="M317 349c-38.412-12.47-97.486-26.692-127-55 16.277 7.049 31.26 16.813 47.5 24 23.531 10.414 55.476 17.332 77 28 1.119.555 2.938 1.247 2.5 3"/><path fill="#91c1cc" d="M737 310c-15.335 6.404-30.493 12.39-46.5 17-3.605-.118-13.015-11.189-16.5-14 19.96-4.873 39.665-11.827 59-19z"/><path fill="#95c3cd" d="M699 810c11.614-11.376 79.454-87.439 74-99.5l-16-2.5c15.671-26.91 29.169-54.839 39-84.5 32.611-98.389 43.645-208.719 6.5-305.5-.746 1.318-1.613.787-2.5 1l-1-3c9.395-4.565 18.138-10.345 27.5-15 21.588 51.489 24.665 116.711 22.5 172.5-4.711 121.384-58.905 254.99-150 336.5"/><path fill="#7eb2be" d="m208 313-1 4c-4.339-1.994-13.127-7.956-16-3.5-8.303 12.879-14.23 73.346-15 90.5h-6c1.867-34.507 5.354-70.156 18.5-102 6.526 3.615 12.875 7.583 19.5 11"/><path fill="#6e9daa" d="M685 330c13.955-1.356 23.885-2.895 38-7l4 17c-8.646 2.818-18.051 4.916-26 8.5.432.897 1.932.362 2 .5 1.355 2.757 3.319 5.42 5 8 3.788 5.812 16.425 28.232 20 31-2.006 2.606-.699 3.713 0 6-7.182-4.123-13.529 2.051-20 5-.445.203-2.099-1.798-3.5-1l-1.5 2.5c3.173 3.175 4.347 7.519 6 11.5l-3 2c-16.698-36.145-45.422-67.72-79-89l9-16c4.493 3.03 9.169 5.631 13.5 9 3.453 2.686 12.978 14.433 16 15 3.947.741 14.822-2.545 19.5-3"/><path fill="#5d8593" d="M207 317c7.744 3.559 15.109 8.559 23 12l-4.5 14-10-6c-12.435 28.787-13.503 62.67-17.5 94-.642 5.029-1.182 9.928-1.5 15l-20.5-4c-.231-12.868-.58-25.093 0-38 .77-17.154 6.697-77.621 15-90.5 2.873-4.456 11.661 1.506 16 3.5"/><path fill="#b5dce1" d="M315 351c-.881 1.479-2.041 2.566-3 4-9.216-2.683-19.835-3.604-29-6-17.988-4.703-35.99-12.583-53-20-7.891-3.441-15.256-8.441-23-12l1-4c34.023 17.549 68.458 33.249 107 38"/><path fill="#eaf5f6" d="M800 319c-3.399.815-12.02 7.56-15 9-16.563 8.005-37.984 17.991-55.5 23-6.697 1.915-16.991 1.522-21.5 6-1.681-2.58-3.645-5.243-5-8 33.899-5.346 65.447-18.154 96-33z"/><path fill="#fdfefe" d="M757 708c-11.461 19.68-26.345 43.164-41 60.5-17.158 20.297-38.939 35.668-56.5 55.5l-1.5-7c10.043-8.777 38.044-44.351 47-56.5 11.381-15.439 21.207-32.996 31-49.5 61.72-104.016 86.676-225.715 61-346-2.553-11.961-7.069-25.764-12-37 2.98-1.44 11.601-8.185 15-9 .887-.213 1.754.318 2.5-1 37.145 96.781 26.111 207.111-6.5 305.5-9.831 29.661-23.329 57.59-39 84.5"/><path fill="#005682" d="M511 323c.926 6.987-7.714-1.362-8 4-38.549 4.566-87.068 47.537-103 82-33.704 72.905 5.95 171.034 91 175v3c-72.688 9.465-130.519-63.833-126-132.5 2.31-35.093 20.836-67.913 43-94 2.655-3.125 10.181-7.084 9-10.5-.376-1.088-1.367-1.614-1-3 30.81-16.477 59.634-24.315 95-24"/><path fill="#16bae2" d="M561 330c.144 2.462-1.02 3.233 1.5 5 3.134 2.197 18.054 4.7 23 7 2.667 1.24 7.477 6.208 9 7 12.495 6.5 25.077 10.426 32.5 24-27.935-19.153-55.623-22.632-89-17-12.518 2.112-28.831 8.001-40 14l-8-4c6.306-4.923 7.719-4.329 6-13 5.107-2.431 10.858-3.76 15.5-7-6.08-.27-10.462 3.584-16 6-1.896.827-6.207.851-6.5 1l-2.5-8c-6.144-.221-30.15 19.202-32 19-.662-.072-4.105-6.277-5.5-7 20.392-14.332 41.019-23.698 65.5-29-3.061-1.735-8.057-1.408-11.5-1 .286-5.362 8.926 2.987 8-4 17.656.157 33 2.682 50 7"/><path fill="#59e2f4" d="M449 357c-18.954 13.321-36.865 30.873-47 52h-2c15.932-34.463 64.451-77.434 103-82 3.443-.408 8.439-.735 11.5 1-24.481 5.302-45.108 14.668-65.5 29"/><path fill="#bedee4" d="M797 365c-14.791-.197-52.367 26.112-62.5 26-.16-.002-.475-1.262-2.5-2-1.382-.504-3.837-.874-4-1-3.575-2.768-16.212-25.188-20-31 4.509-4.478 14.803-4.085 21.5-6 17.516-5.009 38.937-14.995 55.5-23 4.931 11.236 9.447 25.039 12 37"/><path fill="#04ccf6" d="M695 521c-.899 9.737-4.302 17.907-7 27-9.598 12.211-4.891 4.926-5-3 6.7-8.256 6.72-24.742 6-35-.103-1.473.843-3.806 0-7 2.137-2.365 1.332-10.574 1-13.5-1.96-17.291-15.283-32.221-28-43.5.18-.982-2.605-2.105 1-2 2.127 4.269 18.354 15.854 20.5 23 4.485.575-1.674-18.702-3.5-21.5-2.907-4.454-12.741-10.771-17-14.5-.027-.108-.938-1.907-1-2v-1l12.5 10 1.5-3.5c-10.414-25.195-27.351-43.605-46.5-62.5-1.409-.618-1.426 1.052-1.5 1-.224-.157-.774.155-1 0-7.423-13.574-20.005-17.5-32.5-24-1.523-.792-6.333-5.76-9-7-4.946-2.3-19.866-4.803-23-7-2.52-1.767-1.356-2.538-1.5-5 85.653 21.757 142.158 102.596 134 191"/><path fill="#0496c2" d="M489 353c-13.289 6.746-38.281 27.449-48 39l-9.5-9c-5.414 6.642-12.156 13.073-16.5 20.5-2.758 4.716-9.851 26.103-11 27-2.573 2.01-6.308-1.326-9-.5 1.985-7.025 3.844-14.421 7-21 10.135-21.127 28.046-38.679 47-52 1.395.723 4.838 6.928 5.5 7 1.85.202 25.856-19.221 32-19z"/><path fill="#37cfe4" d="M496 353c-18.168 8.649-30.186 17.334-44 32-28.571 30.333-46.476 74.945-34 116.5.203-11.147-.577-24.911 6-34.5-3.636 12.803-4.551 24.78-3 38-5.365 5.436-8.673-14.346-9-17.5-3.531-34.048 7.091-69.463 29-95.5 9.719-11.551 34.711-32.254 48-39 .293-.149 4.604-.173 6.5-1 5.538-2.416 9.92-6.27 16-6-4.642 3.24-10.393 4.569-15.5 7"/><path fill="#0073a8" d="M416 347c-.367 1.386.624 1.912 1 3-13.074 11.773-24.296 25.745-33 41-5.49-.824-5.69 10.233-10 3 5.78-10.621 16.53-20.007 18-32 7.579-5.551 15.693-10.558 24-15"/><path fill="#91c0c9" d="M312 355c-2.692 4.026-15.164 22.915-18.5 23-.683.017-12.423-4.822-12.5-5.5-.024-.211 2.945-1.443 3-3 .225-6.355-2.057-13.791-1-20.5 9.165 2.396 19.784 3.317 29 6"/><path fill="#1bb9d2" d="M491 587c5.785-.753 9.73-2.431 15-4 24.856-7.398 37.13-16.503 56-33-14.763 20.587-50.771 37.744-75.5 40-51.338 4.684-95.277-32.383-113.5-78-17.047-42.672-11.361-81.808 11-121 8.704-15.255 19.926-29.227 33-41 1.181 3.416-6.345 7.375-9 10.5-22.164 26.087-40.69 58.907-43 94-4.519 68.667 53.312 141.965 126 132.5"/><path fill="#0496c2" d="M490 366c-12.299 9.601-20.744 13.065-32 26l-6-7c13.814-14.666 25.832-23.351 44-32 1.719 8.671.306 8.077-6 13"/><path fill="#ddf7fd" d="M627 373c.226.155.776-.157 1 0 10.321 10.631 20.359 20.589 27 34-.39 2.006-3.528.532-4.5 0-25.432-13.918-35.429-22.144-65.5-29-1.689-.385-14.007-.564-13-3.5 2.37-.728 12.899 1.817 13.5 1.5.625-.33 2.01-10.53 3-11 1.764-.836 29.622 10.574 26 4-22.447-10.161-43.854-13.892-68.5-11-2.67.313-6.68.561-9 1l1-3c33.377-5.632 61.065-2.153 89 17"/><path fill="#7ee4f7" d="m538 356-1 3c-36.723 6.952-81.269 38.929-93 75-3.444 3.408-9.526 10.934-12 15 12.78-32.822 34.466-62.063 66-79 11.169-5.999 27.482-11.888 40-14"/><path fill="#99e7f8" d="M585 378c.244 2.278-.651 16.332-1.5 17-.424.334-.001-2.269-2-2-15.866 2.132-29.925-.466-47.5 3 .304-3.264-2.228-1.865-4-1.5-3.453.712-21.2 8.306-23 6 1.148-5.168 17.938-8.608 19-11 2.656-11.597-15.755-1.17-20.5 1.5-5.91 3.325-14.954 10.776-19.5 16-.811.932-2.882 2.824-3 3 9.717-18.6 32.089-24.481 50-32 6.935-2.911 8.669-6.887 0-6.5l2-5.5c5.079-1.73 12.71-.458 11-8 24.646-2.892 46.053.839 68.5 11 3.622 6.574-24.236-4.836-26-4-.99.47-2.375 10.67-3 11-.601.317-11.13-2.228-13.5-1.5-1.007 2.936 11.311 3.115 13 3.5"/><path fill="#1da1ca" d="M546 358c1.71 7.542-5.921 6.27-11 8-17.207 5.86-30.429 9.798-45.5 21-3.616 2.688-34.586 31.514-30 34 13.27-11.722 24.643-25.859 40-35 3.917-2.331 28.309-13.634 31-13 1.208.285 3.16 3.404 2.5 5-17.911 7.519-40.283 13.4-50 32-.714 1.062-2.732 3.369-3 4-12.153 1.274-27.506 11.595-36 20 11.731-36.071 56.277-68.048 93-75 2.32-.439 6.33-.687 9-1"/><path fill="#059fc3" d="M374 394c-1.821 3.346-4.611 7.733-6 11-4.917 4.322-13.238 13.377-16 19-2.354-9.196 6.241-19.091 10-26.5.147-.29 2.359-7.437 0-6.5 2.93-3.96 11.767-14.905 15-18 5.411-5.18 9.531-6.994 15-11-1.47 11.993-12.22 21.379-18 32"/><path fill="#64a0ae" d="m869 369-14 4c-.049-.97-2.914-9.56-.5-10 5.07 1.391 9.637 4.161 14.5 6"/><path fill="#4c8393" d="M163 376c-.952-.901-2.609-.785-3-1-6.144-3.381-11.63-1.562-19 0l22.5-11c1.344.988-.334 9.676-.5 12"/><path fill="url(#b)" d="M736 711c-13.067 3.587-33.994 10.034-42 21.5-15.333 21.959-33.039 60.402-42 85.5-4.137 11.588-12.058 21.898-12 34.5 2.876 4.773 54.38-38.366 59-42.5-19.333 18.939-38.998 33.996-61.5 49 .889-28.25 16.674-57.292 2.5-84.5-6.866-13.18-24.062-22.84-38.5-24.5-39.894-4.588-109.539-.391-152.5 0 1.083-4.27-8.106-12.016-4-15 79.408 21.675 170.819 2.63 232.5-52 82.68-73.229 105.314-195.542 54.5-294 2.025.738 2.34 1.998 2.5 2 10.133.112 47.709-26.197 62.5-26 25.676 120.285.72 241.984-61 346" style="fill:url(#b)"/>/&gt;<path fill="#028aba" d="m490 366 8 4c-31.534 16.937-53.22 46.178-66 79-.884 1.453-2.298 3.586-3 5 3.173-22.894 13.874-44.618 29-62 11.256-12.935 19.701-16.399 32-26"/><path fill="#64def4" d="m535 366-2 5.5c8.669-.387 6.935 3.589 0 6.5.66-1.596-1.292-4.715-2.5-5-2.691-.634-27.083 10.669-31 13-15.357 9.141-26.73 23.278-40 35-4.586-2.486 26.384-31.312 30-34 15.071-11.202 28.293-15.14 45.5-21"/><path fill="#84bfcc" d="M897 409c-5.114-8.273-11.42-18.869-23.5-14-3.496 1.409-3.504 18.366-3.5 22.5 11.01-1.559 18.247.777 28 5.5.029.659-.024 1.34 0 2-5.684.042-10.022-5.447-15.5-6-13.865-1.401-12.579 5.602-13.5 16.5-2.207 26.123 3.702 53.442-3 79 .521 1.521 27.228 5.478 28-1.5-.85 8.749-.671 17.091-2 26-.373-8.119-25.237-8.891-29-7-.192-5.234-6.66-2.408-9-6 6.488-53.441 3.714-99.814 1-153l14-4c3.847 1.455 23.807 8.847 25 10.5 2.487 3.446 2.585 23.597 3 29.5"/><path fill="#07afdf" d="M662 428c-.806-8.487-3.806-14.55-7-21-6.641-13.411-16.679-23.369-27-34 .074.052.091-1.618 1.5-1 19.149 18.895 36.086 37.305 46.5 62.5l-1.5 3.5z"/><path fill="#67a1af" d="m160 375-1.5 12c-4.611-.616-.82-6.518-4-8-3.698-1.723-27.612 7.597-33.5 7 2.24-6.644 13.559-9.635 20-11 7.37-1.562 12.856-3.381 19 0"/><path fill="#74b1c0" d="M163 376c-2.14 29.872-3.859 58.907-3 89l-4-39.5 2 79-7-2.5c-1.184-25.467-4.2-50.917-4-76.5-6.743-11.854-18.453-1.169-28-1.5.052-.654-.056-1.347 0-2 9.524-1.661 16.964-5.632 27-3.5-.934-6.368 3.334-16.92-5.5-18.5-8.713-1.558-17.795 2.677-20.5 11 .72-7.384-1.342-18.055 1-25 5.888.597 29.802-8.723 33.5-7 3.18 1.482-.611 7.384 4 8l1.5-12c.391.215 2.048.099 3 1"/><path fill="#d1f4fc" d="M655 407c3.194 6.45 6.194 12.513 7 21v1c-1.429-2.142-30.245-18.181-34.5-20-32.275-13.801-76.05-20.628-108.5-5-1.859-.431-4.086-.815-6-1 6.293-4.181 13.75-5.57 21-7 17.575-3.466 31.634-.868 47.5-3 1.999-.269 1.576 2.334 2 2 .849-.668 1.744-14.722 1.5-17 30.071 6.856 40.068 15.082 65.5 29 .972.532 4.11 2.006 4.5 0"/><path fill="#006c99" d="M441 392c-21.909 26.037-32.531 61.452-29 95.5.327 3.154 3.635 22.936 9 17.5.535 4.56 1.694 9.61 3 14 1.098 3.69 5.003 14.904 7 17.5.825 1.072 2.377-1.674 2.5-1.5 9.351 13.263 22.575 32.767 37.5 40l-1 3c-65-18.415-92.609-85.673-75-148 2.692-.826 6.427 2.51 9 .5 1.149-.897 8.242-22.284 11-27 4.344-7.427 11.086-13.858 16.5-20.5z"/><path fill="#44c1e3" d="M534 396c-7.25 1.43-14.707 2.819-21 7-9.624-.929-18.149.396-27 4 4.546-5.224 13.59-12.675 19.5-16 4.745-2.67 23.156-13.097 20.5-1.5-1.062 2.392-17.852 5.832-19 11 1.8 2.306 19.547-5.288 23-6 1.772-.365 4.304-1.764 4 1.5"/><path fill="#006c99" d="M458 392c-15.126 17.382-25.827 39.106-29 62-1.967 3.961-3.788 8.732-5 13-6.577 9.589-5.797 23.353-6 34.5-12.476-41.555 5.429-86.167 34-116.5z"/><path fill="#15465d" d="M732 389c50.814 98.458 28.18 220.771-54.5 294-61.681 54.63-153.092 73.675-232.5 52-44.984-12.279-93.986-44.509-124-80-39.465-46.667-59.75-107.722-57-169 1.488-33.158 10.833-68.609 27.5-97 2.417-1.017 3.318.991 3.5 1-27.157 49.415-33.485 108.214-21 163 10.898 47.823 69.583 143.453 120 155 187.022 103.822 407.134-70.109 348-277.5-3.558-12.477-10.237-24.186-14-36.5-.699-2.287-2.006-3.394 0-6 .163.126 2.618.496 4 1"/><path fill="#78a6b1" d="M313 398c-26.995 49.078-32.07 103.951-18 158l-15.5 7-5.5-10c-12.485-54.786-6.157-113.585 21-163 7.914.394 12.309 5.361 18 8"/><path fill="#199fbb" d="M352 424c-11.711 23.838-4.618 65.174 5 89-4.827-1.805-8.166-1.315-12 2-.284-.686-2.805-2.997-3-3.5-2.591-6.695-3.369-19.079-6-25-.533-1.2-1.569 1.014-2 .5-.435-.519 1.125-3.653-2-3a279 279 0 0 1 0-19c.035-.992-.043-2.009 0-3 4.681-3.189 3.54-14.562 5-20.5 4.06-16.51 12.463-31.597 22-45.5 1.095-1.596 2.023-3.679 3-5 2.359-.937.147 6.21 0 6.5-3.759 7.409-12.354 17.304-10 26.5"/><path fill="#005f91" d="M384 391c-22.361 39.192-28.047 78.328-11 121-4.942.902-7.472-7.253-9-11.5-10.181-28.296-7.705-67.97 4-95.5 1.389-3.267 4.179-7.654 6-11 4.31 7.233 4.51-3.824 10-3"/><path fill="#a3d1da" d="M728 394c3.763 12.314 10.442 24.023 14 36.5C801.134 637.891 581.022 811.822 394 708c5.735 1.314 7.307-5.634 9-11 115.049 64.078 264.108 12.359 311-110 3.673-8.576 6.431-17.022 9-26 15.922-55.647 10.288-110.189-15-162 6.471-2.949 12.818-9.123 20-5"/><path fill="#03618f" d="M359 396c-9.537 13.903-17.94 28.99-22 45.5-1.46 5.938-.319 17.311-5 20.5.646-14.894 2.264-26.954 8-41.5 2.721-6.902 10.449-26.577 19-24.5"/><path fill="url(#c)" d="M662 429c.062.093.973 1.892 1 2 1.116 4.436-2.606 7.769 0 13-3.605-.105-.82 1.018-1 2-.506 2.764-4.179 9.64-4 11h-1c-31.094-29.877-74.831-45.174-118-40-3.993-5.553-13.417-11.475-20-13 32.45-15.628 76.225-8.801 108.5 5 4.255 1.819 33.071 17.858 34.5 20" style="fill:url(#c)"/>/&gt;<path fill="#bff0fa" d="M897 409c.319 4.539.805 9.532 1 14-9.753-4.723-16.99-7.059-28-5.5-.004-4.134.004-21.091 3.5-22.5 12.08-4.869 18.386 5.727 23.5 14"/><path fill="#e6f2f5" d="M321 402c-52.224 95.286-16.373 217.534 74.5 274 91.33 56.75 207.692 38.802 278.5-41-2.368 5.165-2.408 7.215 3.5 10 6.548-7.094 12.192-14.971 17.5-23 6.977-10.554 14.027-23.388 19-35-46.892 122.359-195.951 174.078-311 110-51.155-28.491-93.282-84.462-108-141-14.07-54.049-8.995-108.922 18-158 .45.209 8.757-.784 8 4"/><path fill="#618895" d="M708 399c25.288 51.811 30.922 106.353 15 162l-3-1c9.618-35.872 10.152-86.35 0-121.5-2.637-9.13-7.38-17.781-11-26.5-1.653-3.981-2.827-8.325-6-11.5l1.5-2.5c1.401-.798 3.055 1.203 3.5 1"/><path fill="#a2deec" d="M119 422c.312-3.637-.18-7.368 1-11 2.705-8.323 11.787-12.558 20.5-11 8.834 1.58 4.566 12.132 5.5 18.5-10.036-2.132-17.476 1.839-27 3.5"/><path fill="#fefefe" d="M513 403c1.914.185 4.141.569 6 1 6.583 1.525 16.007 7.447 20 13 .858 1.193 1.937 1.873 2 2 1.917 3.841 3.222 10.623 3 15-.033.651.102 1.368 0 2-.362 2.232-4.468 10.283-6 12-7.432 8.328-21.621 10.493-32 9-10.586-1.523-20.811-8.969-25-19-3.189-7.637-4.359-16.081-1-24 .268-.631 2.286-2.938 3-4 .118-.176 2.189-2.068 3-3 8.851-3.604 17.376-4.929 27-4"/><path fill="#6396a4" d="M176 404c-.58 12.907-.231 25.132 0 38 2.772 154.549 51.702 284.557 172 384 11.41 9.432 23.753 21.976 38 26 .387 2.609 2.028 5.231.5 8C227.075 762.946 160.147 586.114 170 404Z"/><path fill="#086690" d="M368 405c-11.705 27.53-14.181 67.204-4 95.5 1.528 4.247 4.058 12.402 9 11.5 18.223 45.617 62.162 82.684 113.5 78 24.729-2.256 60.737-19.413 75.5-40 2.285-1.997 6.414-9.8 10-6-10.112 25.005-27.246 47.371-50 62 9.657-7.42 18.087-17.194 27-25.5l12.5-20.5c-11.431 17.744-23.746 32.025-42 43-33.185 19.952-61.438 19.078-99 14 .89 5.744 12.514 10.773 17.5 12-11.722.74-22.398-3.778-33-8-12.04-7.904-25.175-16.935-30.5-31 6.452.924 13.411 11.534 19.5 9.5-27.645-19.343-54.071-48.519-60-83-1.876-10.909-1.62-21.513-2-32.5 3.125-.653 1.565 2.481 2 3 14.352 76.898 88.646 145.938 170 115 16.466-6.262 37.923-19.604 46.5-35l-14 14c-4.859 3.958-10.197 6.766-15.5 10 1.437-2.657 8.079-4.311 2.5-6-69.574 31.497-139.136-4.214-166.5-72-9.618-23.826-16.711-65.162-5-89 2.762-5.623 11.083-14.678 16-19"/><path fill="#1bb9d2" d="M402 409c-3.156 6.579-5.015 13.975-7 21-17.609 62.327 10 129.585 75 148 5.728 1.623 11.815 2.164 17.5 4l18.5 1c-5.082.135-9.855 1.24-15 1-85.05-3.966-124.704-102.095-91-175z"/><path fill="#bbd9dd" d="M720 560c-1.672 6.236-7.325 26.546-9 30.5-4.172 9.847-16.321 19.117-16 31.5-5.308 8.029-10.952 15.906-17.5 23-5.908-2.785-5.868-4.835-3.5-10 3.587-7.826 14.863-18.979 20-27.5 36.169-59.992 41.625-129.373 12-193.5l3-2c3.62 8.719 8.363 17.37 11 26.5 10.152 35.15 9.618 85.628 0 121.5"/><path fill="#000b1b" d="M480 414c-3.359 7.919-2.189 16.363 1 24l-3 2c-3.904-5.125-12.641-3.713-17 .5-.131.126.11 2.212-1 3.5-21.003 24.36-20.954 43.005-31 70.5-1.275 3.488-1.583 3.301-5 4.5-1.306-4.39-2.465-9.44-3-14-1.551-13.22-.636-25.197 3-38 1.212-4.268 3.033-9.039 5-13 .702-1.414 2.116-3.547 3-5 2.474-4.066 8.556-11.592 12-15 8.494-8.405 23.847-18.726 36-20"/><path fill="#c0f7fd" d="M657 457c.241 1.077-.009 2.51-1.5 2-1.802-.616-14.488-12.65-18-15-20.679-13.837-41.591-22.271-66.5-25-9.839-1.078-20.182-2.055-30 0-.063-.127-1.142-.807-2-2 43.169-5.174 86.906 10.123 118 40"/><path fill="#5bc2e6" d="m571 419-.5 18c-8.517-4.726-17.266-.121-26.5-3 .222-4.377-1.083-11.159-3-15 9.818-2.055 20.161-1.078 30 0"/><path fill="#6cd5f1" d="M657 457h1c.364 2.763 27.367 32.237 31 46 .843 3.194-.103 5.527 0 7l-32.5-50c-3.215 3.628-7.024 6.672-10.5 10-1.486 1.423-6.483 2.125-6 5.5 16.538 16.488 32.483 38.051 35.5 61.5-6.784-15.965-12.167-32.798-23.5-46.5-1.573-1.901-14.417-15.333-15.5-15.5-1.295-.199-4.804 2.507-6.5 3-.014-3.537 5.962-2.063 3.5-6-25.978-19.506-55.882-36.658-89.5-36 .102-.632-.033-1.349 0-2 9.234 2.879 17.983-1.726 26.5 3l.5-18c24.909 2.729 45.821 11.163 66.5 25 3.512 2.35 16.198 14.384 18 15 1.491.51 1.741-.923 1.5-2"/><path fill="#b0e8f4" d="M898 425c1.088 29.854-1.114 58.3-4 88-.772 6.978-27.479 3.021-28 1.5 6.702-25.558.793-52.877 3-79 .921-10.898-.365-17.901 13.5-16.5 5.478.553 9.816 6.042 15.5 6"/><path fill="#98d6e4" d="M151 502c.132 2.846 2.606 15.16.5 16-10.254-1.133-19.277 3.503-28.5-2-3.17-28.911-6.3-63.209-4-92 9.547.331 21.257-10.354 28 1.5-.2 25.583 2.816 51.033 4 76.5"/><path fill="#548b99" d="M160 465c1.66 58.159 11.51 114.629 32 169-7.51-14.308-10.029-27.545-16-39.5-6.234-12.482-27.221-6.775-39-6.5-2.513-8.984-6.167-19.004-8-28 4.664-2.261 2.327 7.489 6.5 9 2.894 1.048 25.579-1.418 27.5-3.5 1.81-1.962-2.519-25.786-4-28-4.047-6.048-29.031-3.703-31 1-.747 1.784 1.848 7.564-2 7.5-1.567-9.855-1.911-20.073-3-30 9.223 5.503 18.246.867 28.5 2 2.106-.84-.368-13.154-.5-16l7 2.5-2-79z"/><path fill="#0096c8" d="M663 444c-2.606-5.231 1.116-8.564 0-13 4.259 3.729 14.093 10.046 17 14.5 1.826 2.798 7.985 22.075 3.5 21.5-2.146-7.146-18.373-18.731-20.5-23"/><path fill="#4b6c77" d="M198 443c0 143.879 57.208 276.025 161 374.5-2.385 4.492-11.2 3.091-11 8.5-120.298-99.443-169.228-229.451-172-384l20.5 4c.318-5.072.858-9.971 1.5-15z"/><path fill="#42bcde" d="M630 478c-1.725.502-9.827 2.3-10 3.5 35.481 30.031 46.336 79.603 37 124.5-3.405 3.738-7.006 6.937-11 10 .062-.136-1.084.193 0-3 9.238-3.529 7.768-11.89 9-19.5.13-.803 1.899-.204 2-1 1.38-10.93-1.745-23.721 1-36l-9-.5c-1.348-7.197-3.317-13.24-6-20-4.081-10.282-9.654-20.637-17-29-3.404-5.755-9.515-13.717-14.5-18-3.75-3.222-7.689-4.117-10.5-6-11.798-7.905-23.166-10.775-33-17-1.091-.691-.943-.959-1-1 14.512 3.038 29.512 10.964 42 19 12.637 8.132 22.854 16.388 31.5 29 4.854-.18-7.741-16.575-8.5-17.5-3.451-4.206-12.19-13.726-17-13.5-.845-3.637-8.519-8.281-11.5-10-5.425-3.127-11.646-5.798-17.5-8-9.78-5.44-21.348-7.717-32-11-5.349-1.649-10.715-3.137-16-5 1.532-1.717 5.638-9.768 6-12 33.618-.658 63.522 16.494 89.5 36 2.462 3.937-3.514 2.463-3.5 6"/><path fill="#0773a2" d="M478 440c10.192 13.379-16.449 23.736-18 4 1.11-1.288.869-3.374 1-3.5 4.359-4.213 13.096-5.625 17-.5"/><path fill="#00253e" d="m506 457-2 2c-2.612-.156-5.377-.045-8 0-22.379.385-42.758 4.976-46 30.5-2.57 20.23 3.636 51.093 17 67 11.55 13.748 28.378 17.041 45 21-14.899 3.097-26.97 4.299-41-2.5-14.925-7.233-28.149-26.737-37.5-40-.123-.174-1.675 2.572-2.5 1.5-1.997-2.596-5.902-13.81-7-17.5 3.417-1.199 3.725-1.012 5-4.5 10.046-27.495 9.997-46.14 31-70.5 1.551 19.736 28.192 9.379 18-4l3-2c4.189 10.031 14.414 17.477 25 19"/><path fill="#5d8593" d="M264 486c-2.75 61.278 17.535 122.333 57 169-19.054 30.046 16.737 51.581 29 75.5 7.373 14.38 9.526 38.071 18 51 .293.448 7.972 6.588 8.5 6.5.968-1.515 3.83-4.909 4.5-6-7.952 23.002 1.588 46.974 5 70-14.247-4.024-26.59-16.568-38-26-.2-5.409 8.615-4.008 11-8.5C255.208 719.025 198 586.879 198 443c19.105-.771 48.014 43.093 61.5 45 3.45.488 1.664-2.384 4.5-2"/><path fill="#02b1db" d="M689 503c-3.633-13.763-30.636-43.237-31-46-.179-1.36 3.494-8.236 4-11 12.717 11.279 26.04 26.209 28 43.5.332 2.926 1.137 11.135-1 13.5"/><path fill="#004c74" d="M554 453c-.065 2.787 4.131 3.411 6 4 1.965 1.959 5.049 6.602 7 8 .057.041-.091.309 1 1 1.477 4.232 5.257 8.108 7 12 2.383 5.321 3.9 11.507 6 17 2.98 7.797 6.018 17.4 9 26h-2c-1.558-4.086-3.047-12.348-8-13.5 6.498 14.005 8.266 28.306 8 43.5l-6-2c1.31-3.928 2.444-11.747-1-14.5 1.29 64.896-52.341 120.145-114 132.5-4.689.588-14.434-.174-16 4-9.805-3.68-20.487-10.859-29-17 .488.108 7.827-.157 10 0 63.014 4.541 121.466-40.981 139-100.5.161-.545 5.845-4.366 1-9.5-3.586-3.8-7.715 4.003-10 6-18.87 16.497-31.144 25.602-56 33l-18.5-1c-5.685-1.836-11.772-2.377-17.5-4l1-3c14.03 6.799 26.101 5.597 41 2.5-16.622-3.959-33.45-7.252-45-21-13.364-15.907-19.57-46.77-17-67 3.242-25.524 23.621-30.115 46-30.5l-3 4c-6.489-3.431-9.493 1.163-13 5-3.656 4-9.572 11.751-2 16 6.518 13.553 22.862 1.178 21-11 3.54-8.412 34.512 1.639 36 .5-4.17-9.793-20.25-13.857-31-14.5l2-2c10.379 1.493 24.568-.672 32-9 5.285 1.863 10.651 3.351 16 5"/><path fill="#52cce4" d="M586 464c-7.477-2.812-18.026-4.487-26-7-1.869-.589-6.065-1.213-6-4 10.652 3.283 22.22 5.56 32 11"/><path fill="#37b1d8" d="M586 464c5.854 2.202 12.075 4.873 17.5 8 2.981 1.719 10.655 6.363 11.5 10-1.942.091-4.614.434-6 2-12.488-8.036-27.488-15.962-42-19-1.951-1.398-5.035-6.041-7-8 7.974 2.513 18.523 4.188 26 7"/><path fill="#0f5079" d="M332 465a279 279 0 0 0 0 19c.38 10.987.124 21.591 2 32.5 5.929 34.481 32.355 63.657 60 83-6.089 2.034-13.048-8.576-19.5-9.5 5.325 14.065 18.46 23.096 30.5 31a134.1 134.1 0 0 1-44.5-29c-2.402-.315-.441 2.262 0 3 2.961 4.953 19.02 16.724 24.5 20l-1 3c-.955-.559-2.029-1.664-3-.5 14.985 14.278 32.587 26.232 52 34-.593 2.818-13.544-3.089-14 1.5-11.797-3.564-42.448-31.4-51-41.5-34.913-41.234-49.054-99.999-39-153z"/><path fill="#003f63" d="M504 459c10.75.643 26.83 4.707 31 14.5-1.488 1.139-32.46-8.912-36-.5-.142-.93-5.357-9.66-6-10l3-4c2.623-.045 5.388-.156 8 0"/><path fill="#06b1d9" d="M689 510c.72 10.258.7 26.744-6 35-.432-31.302-16.761-52.742-37-75 3.476-3.328 7.285-6.372 10.5-10z"/><path fill="#02152a" d="M493 463c.643.34 5.858 9.07 6 10 1.862 12.178-14.482 24.553-21 11 14.771 8.288 21.708-19.057 2-16 3.507-3.837 6.511-8.431 13-5"/><path fill="#33bdd7" d="M601 483c-1.158-.18-.932.982-1 1-3.251.853-6.726.779-10 1.5 34.625 22.914 54.073 62.008 51 104-.973 13.289-7.107 26.25-8 39.5-2.493 2.413-3.135 7.074-6.5 9-.326.187.922-3.907-5.5 1l-1-1c4.259-4.284 12.761-27.969 14-34.5 5.235-27.586.518-58.199-15-81.5-8.243-12.377-11.836-15.349-22-25.5-.821-.82 2.511-1.645-.5-4.5-5.065-4.802-15.345-10.154-21.5-14-1.743-3.892-5.523-7.768-7-12 9.834 6.225 21.202 9.095 33 17"/><path fill="#fdfefe" d="M478 484c-7.572-4.249-1.656-12 2-16 19.708-3.057 12.771 24.288-2 16"/><path fill="#0094c5" d="M683 545c.109 7.926-4.598 15.211 5 3-4.586 15.457-9.515 30.289-20 43 8.786-16.418 11.541-35.916 4-53.5-.951-2.218-9.668-17.357-13-15 8.916 24.163 8.676 50.63 4 75.5-1.964 2.878-3.635 5.404-6 8 9.336-44.897-1.519-94.469-37-124.5.173-1.2 8.275-2.998 10-3.5 1.696-.493 5.205-3.199 6.5-3 1.083.167 13.927 13.599 15.5 15.5 11.333 13.702 16.716 30.535 23.5 46.5-3.017-23.449-18.962-45.012-35.5-61.5-.483-3.375 4.514-4.077 6-5.5 20.239 22.258 36.568 43.698 37 75"/><path fill="#007ba9" d="m619 522 9 34-5 1-5-15.5c1.719 8.151 3.362 15.08 4 23.5-.904 10.211-3.427 9.156-13 9 2.433-23.622-1.53-42.819-14-63-3.492-5.652-8.572-12.066-14-16-2.1-5.493-3.617-11.679-6-17 6.155 3.846 16.435 9.198 21.5 14 3.011 2.855-.321 3.68.5 4.5 10.164 10.151 13.757 13.123 22 25.5"/><path fill="#0188b9" d="M609 484c1.386-1.566 4.058-1.909 6-2 4.81-.226 13.549 9.294 17 13.5.759.925 13.354 17.32 8.5 17.5-8.646-12.612-18.863-20.868-31.5-29"/><path fill="#0c99c4" d="M626 507c-6.374-7.257-18.996-15.68-26-23 .068-.018-.158-1.18 1-1 2.811 1.883 6.75 2.778 10.5 6 4.985 4.283 11.096 12.245 14.5 18"/><path fill="#0eaace" d="M600 484c7.004 7.32 19.626 15.743 26 23 7.346 8.363 12.919 18.718 17 29 2.226 18.31 8.202 31.732 7 50.5-.03.464-.685 5.903-1 8-1.228 8.159-6.341 17.155-6 25.5-3.082 4.468-6.906 6.006-10 9 .893-13.25 7.027-26.211 8-39.5 3.073-41.992-16.375-81.086-51-104 3.274-.721 6.749-.647 10-1.5"/><path fill="#33c1d8" d="M345 515c18.313 44.183 52.638 82.071 102 90 18.832 3.025 39.048 3.135 57-4v1c-81.354 30.938-155.648-38.102-170-115 .431.514 1.467-1.7 2-.5 2.631 5.921 3.409 18.305 6 25 .195.503 2.716 2.814 3 3.5"/><path fill="#0fa3c2" d="m595 511-6.5-5c-2.271 1.187 11.455 25.676 12.5 29.5 7.586 27.762 1.923 62.757-12 87.5l-6-3c19.691-35.784 20.077-61.283 7-99-2.982-8.6-6.02-18.203-9-26 5.428 3.934 10.508 10.348 14 16"/><path fill="#4ebbcf" d="M595 511c12.47 20.181 16.433 39.378 14 63-3.734 36.249-27.21 76.887-59 95-.277-1.656 21.03-20 24-23.5 5.677-6.69 10.698-14.855 15-22.5 13.923-24.743 19.586-59.738 12-87.5-1.045-3.824-14.771-28.313-12.5-29.5z"/><path fill="#159aba" d="M588 521c3.363 8.818 6.382 18.411 7 28l-11 47.5c-9.007 20.239-18.536 37.659-35.5 52.5-3.517 3.077-38.347 25.393-41 26-2.179.499-8.786-.587-11.5 0 10.553-7.294 21.458-13.504 32-21 23.822-16.939 39.827-29.63 51-58 5.627-14.289 8.73-29.599 9-45 .266-15.194-1.502-29.495-8-43.5 4.953 1.152 6.442 9.414 8 13.5"/><path fill="#228ba9" d="M357 513c27.364 67.786 96.926 103.497 166.5 72 5.579 1.689-1.063 3.343-2.5 6-1.5.915-5.566 3.264-7 4-21.716 10.854-43.4 10.459-67 10-49.362-7.929-83.687-45.817-102-90 3.834-3.315 7.173-3.805 12-2"/><path fill="#026e9f" d="M590 521c13.077 37.717 12.691 63.216-7 99-13.559 24.642-33.132 39.59-56 55-4.306.655-10.131.972-14 2v-2c47.642-16.292 85.201-76.346 82-126-.618-9.589-3.637-19.182-7-28z"/><path fill="#13cff1" d="M668 591c-1.673 3.127-3.321 4.54-5 7 4.676-24.87 4.916-51.337-4-75.5 3.332-2.357 12.049 12.782 13 15 7.541 17.584 4.786 37.082-4 53.5"/><path fill="#0295bc" d="M620 638c-.184.185-5.463 3.643-5 1.5 12.999-25.336 17.95-55.26 13-83.5l-9-34c15.518 23.301 20.235 53.914 15 81.5-1.239 6.531-9.741 30.216-14 34.5"/><path fill="#6fa8b6" d="M863 532c-4.779 2.402-7.731 25.854-7 31.5l29 4.5c-1.396 5.834-2.366 12.284-4 18-40.194-4.491-32.199-1.331-43 28-.711 1.931-5.514 13.07-8 12 10.69-33.599 19.716-64.712 24-100 2.34 3.592 8.808.766 9 6"/><path fill="#5c96a5" d="M892 539c-1.737 11.646-4.458 18.379-7 29l-29-4.5c-.731-5.646 2.221-29.098 7-31.5 3.763-1.891 28.627-1.119 29 7"/><path fill="#3a7481" d="M129 560c-.944-4.636-2.261-9.35-3-14 3.848.064 1.253-5.716 2-7.5 1.969-4.703 26.953-7.048 31-1 1.481 2.214 5.81 26.038 4 28-1.921 2.082-24.606 4.548-27.5 3.5-4.173-1.511-1.836-11.261-6.5-9"/><path fill="#129fbe" d="M582 549c-6.931 58.101-56.382 110.654-115 118 61.659-12.355 115.29-67.604 114-132.5 3.444 2.753 2.31 10.572 1 14.5"/><path fill="#028dba" d="M649 556c3.537 18.885 3.272 38.527-3 57-1.084 3.193.062 2.864 0 3-.692 1.509-2.084 2.672-3 4-.341-8.345 4.772-17.341 6-25.5.315-2.097.97-7.536 1-8 1.202-18.768-4.774-32.19-7-50.5 2.683 6.76 4.652 12.803 6 20"/><path fill="#08a6c4" d="M623 557c3.749 26.052-1.143 58.879-15 81.5-1.219 1.99-5.877 9.998-9 9 18.959-22.639 25.194-53.561 23-82.5-.638-8.42-2.281-15.349-4-23.5z"/><path fill="#2bbdd5" d="M432 654c18.561-2.126 37.815-2.302 55.5-9 9.494-3.596 40.773-24.288 45.5-32.5 2.5-4.343-1.596-.924-2-2.5 8.824-7.215 20.551-18.508 26-28.5.809-1.483 3.734-6.084 1.5-7.5-39.037 56.902-112.839 77.263-173.5 41-5.48-3.276-21.539-15.047-24.5-20-.441-.738-2.402-3.315 0-3a134.1 134.1 0 0 0 44.5 29c10.602 4.222 21.278 8.74 33 8 26.586 6.544 62.705-6.637 84-23 22.754-14.629 39.888-36.995 50-62 4.845 5.134-.839 8.955-1 9.5-17.534 59.519-75.986 105.041-139 100.5"/><path fill="#065b88" d="M588 551c-.27 15.401-3.373 30.711-9 45-2.648 2.014-3.311-1.937-5-.5-1.11.944-11.436 20.461-15 25-5.518 7.027-13.811 15.543-20.5 21.5-2.242 1.997-16.146 8.051-10.5 12-10.542 7.496-21.447 13.706-32 21 5.707 2.056 11.482 1.887 17 0v2c-1.854.493-3.272.331-3 3-18.671.654-41.417-2.4-59-9 1.566-4.174 11.311-3.412 16-4 58.618-7.346 108.069-59.899 115-118z"/><path fill="#39c6db" d="M595 549c3.201 49.654-34.358 109.708-82 126-5.518 1.887-11.293 2.056-17 0 2.714-.587 9.321.499 11.5 0 2.653-.607 37.483-22.923 41-26 16.964-14.841 26.493-32.261 35.5-52.5z"/><path fill="#2d8fb0" d="M316.5 551c14.756 40.462 36.03 74.161 70 101 112.176 88.627 270.528 34.852 316-96-8.02 33.05-30.71 66.778-56 90-109.73 100.758-292.439 48.761-330-95"/><path fill="#91c0ca" d="M295 556c14.718 56.538 56.845 112.509 108 141-1.693 5.366-3.265 12.314-9 11-50.417-11.547-109.102-107.177-120-155l5.5 10z"/><path fill="#006795" d="M628 556c4.95 28.24-.001 58.164-13 83.5-.463 2.143 4.816-1.315 5-1.5l1 1c-12.665 9.678-24.015 18.431-39 25-10.624.535-21.524 4.741-32 7-.049-.649.105-1.369 0-2 31.79-18.113 55.266-58.751 59-95 9.573.156 12.096 1.211 13-9 2.194 28.939-4.041 59.861-23 82.5 3.123.998 7.781-7.01 9-9 13.857-22.621 18.749-55.448 15-81.5z"/><path fill="#06a3ca" d="M646 613c6.272-18.473 6.537-38.115 3-57l9 .5c-2.745 12.279.38 25.07-1 36-.101.796-1.87.197-2 1-1.232 7.61.238 15.971-9 19.5"/><path fill="#1f8aab" d="M522 606c-21.295 16.363-57.414 29.544-84 23-4.986-1.227-16.61-6.256-17.5-12 37.562 5.078 65.815 5.952 99-14 18.254-10.975 30.569-25.256 42-43L549 580.5c-8.913 8.306-17.343 18.08-27 25.5"/><path fill="#85adb6" d="M723 561c-2.569 8.978-5.327 17.424-9 26-4.973 11.612-12.023 24.446-19 35-.321-12.383 11.828-21.653 16-31.5 1.675-3.954 7.328-24.264 9-30.5z"/><path fill="#099cbc" d="M504 602v-1c2.874-1.142 7.447-4.69 10-6 1.434-.736 5.5-3.085 7-4 5.303-3.234 10.641-6.042 15.5-10l14-14c-8.577 15.396-30.034 28.738-46.5 35"/><path fill="#0e6493" d="M531 610c-41.353 33.812-91.4 37.51-139.5 15-2.234-1.422-5.663-5.926-7.5-7l1-3c60.661 36.263 134.463 15.902 173.5-41 2.234 1.416-.691 6.017-1.5 7.5-5.449 9.992-17.176 21.285-26 28.5"/><path fill="#054c79" d="M506 583c-5.27 1.569-9.215 3.247-15 4v-3c5.145.24 9.918-.865 15-1"/><path fill="#265765" d="M881 586c-2.672 9.35-5.682 17.903-9 27-8.457 18.634-11.98 29.38-36 22.5l2-21.5c10.801-29.331 2.806-32.491 43-28"/><path fill="#24454d" d="M192 634c2.303 4.387 5.477 8.732 5.5 14-1.177 1.431-33.959-.698-37-2-2.285-.979-10.26-14.737-11.5-17.5-4.115-9.169-9.252-30.678-12-40.5 11.779-.275 32.766-5.982 39 6.5 5.971 11.955 8.49 25.192 16 39.5"/><path fill="#016791" d="M514 595c-2.553 1.31-7.126 4.858-10 6-17.952 7.135-38.168 7.025-57 4 23.6.459 45.284.854 67-10"/><path fill="#006a98" d="M579 596c-11.173 28.37-27.178 41.061-51 58-5.646-3.949 8.258-10.003 10.5-12 6.689-5.957 14.982-14.473 20.5-21.5 3.564-4.539 13.89-24.056 15-25 1.689-1.437 2.352 2.514 5 .5"/><path fill="#1d80a7" d="M432 654c-2.173-.157-9.512.108-10 0-1.447-.321-1.945-.681-3-1 .456-4.589 13.407 1.318 14-1.5-19.413-7.768-37.015-19.722-52-34 .971-1.164 2.045-.059 3 .5 1.837 1.074 5.266 5.578 7.5 7 48.1 22.51 98.147 18.812 139.5-15 .404 1.576 4.5-1.843 2 2.5-4.727 8.212-36.006 28.904-45.5 32.5-17.685 6.698-36.939 6.874-55.5 9"/><path fill="#437887" d="M830 626c2.486 1.07 7.289-10.069 8-12l-2 21.5c24.02 6.88 27.543-3.866 36-22.5-2.672 7.325-7.54 28.239-15.5 31-7.566 2.624-23.353-.076-32 2-2.596-1.017 4.531-16.955 5.5-20"/><path fill="#0f90b2" d="M589 623c-4.302 7.645-9.323 15.81-15 22.5-2.97 3.5-24.277 21.844-24 23.5.105.631-.049 1.351 0 2-8.236 1.776-14.743 2.743-23 4 22.868-15.41 42.441-30.358 56-55z"/><path fill="#6e9daa" d="M445 735c-4.106 2.984 5.083 10.73 4 15-40.27.367-46.783-2.542-68 32-.67 1.091-3.532 4.485-4.5 6-.528.088-8.207-6.052-8.5-6.5-8.474-12.929-10.627-36.62-18-51-12.263-23.919-48.054-45.454-29-75.5 30.014 35.491 79.016 67.721 124 80"/><path fill="#21a5c6" d="M582 664c-21.602 9.47-48.394 15.173-72 16-.272-2.669 1.146-2.507 3-3 3.869-1.028 9.694-1.345 14-2 8.257-1.257 14.764-2.224 23-4 10.476-2.259 21.376-6.465 32-7"/><path fill="#749fad" d="M699 810c-4.62 4.134-56.124 47.273-59 42.5-.058-12.602 7.863-22.912 12-34.5 2.477.923 3.871.86 6-1l1.5 7c17.561-19.832 39.342-35.203 56.5-55.5 14.655-17.336 29.539-40.82 41-60.5l16 2.5c5.454 12.061-62.386 88.124-74 99.5"/><path fill="#81aebb" d="M736 711c-9.793 16.504-19.619 34.061-31 49.5-8.956 12.149-36.957 47.723-47 56.5-2.129 1.86-3.523 1.923-6 1 8.961-25.098 26.667-63.541 42-85.5 8.006-11.466 28.933-17.913 42-21.5"/><path fill="#a8d1d9" d="M605 756c-.043 2.554 2.506 2.927-1.5 3-51.43.943-120.233-5.821-169 0-8.32.993-15.483 4.654-22.5 9-8.519 5.277-15.415 11.321-19 21-7.898 21.325 1.683 45.955 6 67.5l-5 1.5c-11.949-42.234-20.989-98.345 38.5-104 29.606-2.814 147.12-4.043 172.5 2"/><path fill="#d0eaee" d="M639 807c-.064-6.263-3.493-13.086-3-19.5-5.929 1.476-7.771-2.787-11-8-.233-.377 2.223-6.199-3.5-6.5-6.101-.32-.173 8.454.5 13-5.169-11.483-16.468-16.622-28.5-18-20.403-2.337-159.952-1.408-175 3-2.783.815-12.953 9.104-14.5 12l8-15c7.017-4.346 14.18-8.007 22.5-9 48.767-5.821 117.57.943 169 0 4.006-.073 1.457-.446 1.5-3 21.916 5.219 37.374 28.754 34 51"/><path fill="#8dbdc7" d="m412 768-8 15c-7.912 14.815 1.462 30.309 16.5 35H540c-5.362.266-20.815-.351-19 5-28.196-2.993-63.513 8.702-72 39-27.425-2.691-45.793-19.786-54-45.5l-2-27.5c3.585-9.679 10.481-15.723 19-21"/><path fill="#021626" d="M622 786c6.559 44.297-53.983 30.61-82 32H420.5c-15.038-4.691-24.412-20.185-16.5-35 1.547-2.896 11.717-11.185 14.5-12 15.048-4.408 154.597-5.337 175-3 12.032 1.378 23.331 6.517 28.5 18m-175 3c-6.72.431-15.049-2.28-13.5 8 2.815.144 5.706-.205 8.5 0l-1 3c-3.807.166-7.676-.119-11.5 0 1.376 15.948 5.519 15.859 19.5 16 34.747.35 70.193-.436 105-1 7.38-.12 31.59 1.492 36.5 0 5.757-1.749 6.395-10.958 6.5-15 .06-2.313-.801-1.662-1-3-.285-1.915.609-7.687 0-9.5-1.867-2.969-3.215-.335-4-.5-23.975-5.049-91.725 1.128-120 2-2.65.082-5.352-.104-8 0l132.5-4c2.442-19.104-18.661-14.052-32-14-43.933.171-88.059 1.427-132 2l-3.5 14.5z"/><path fill="#254c61" d="M464 789c-5.623.22-11.394-.359-17 0l-18-1.5 3.5-14.5c43.941-.573 88.067-1.829 132-2 13.339-.052 34.442-5.104 32 14z"/><path fill="#b6dce3" d="M639 807c.157 15.477-5.838 35.591-9 51l-3.5 3c-1.831-1.164-.723-3.106-.5-5 2.45-20.809 13.651-45.991 4.5-66 3.831 28.271-10.523 58.797-36 72-1.891.98-16.085 7.092-17 7-1.442-.145-1.368-2.897-1.5-3-6.597-25.987-29.311-40.273-55-43-1.815-5.351 13.638-4.734 19-5 28.017-1.39 88.559 12.297 82-32-.673-4.546-6.601-13.32-.5-13 5.723.301 3.267 6.123 3.5 6.5 3.229 5.213 5.071 9.476 11 8-.493 6.414 2.936 13.237 3 19.5"/><path fill="#b6e2ea" d="M592 787v10c-41.964 0-84.044.515-126 0l21-2.5c-.008-2.279-21.5 3.331-15-5.5 28.275-.872 96.025-7.049 120-2"/><path fill="#53a9b5" d="M596 797h-4v-10c.785.165 2.133-2.469 4 .5.609 1.813-.285 7.585 0 9.5"/><path fill="#67919f" d="M449 862c-2.918 10.416-1.898 20.747 1 31-9.48-3.766-20.649-5.982-30.5-10-3.2-1.305-16.999-10.24-18-10-.886.213-.304 1.555-.5 2-3.256-5.046-5.384-11.29-7-17l5-1.5c-4.317-21.545-13.898-46.175-6-67.5l2 27.5c8.207 25.714 26.575 42.809 54 45.5"/><path fill="#90d2dd" d="M447 789c5.606-.359 11.377.22 17 0 2.648-.104 5.35.082 8 0-6.5 8.831 14.992 3.221 15 5.5l-21 2.5c-7.787-.096-16.367.56-24 0-2.794-.205-5.685.144-8.5 0-1.549-10.28 6.78-7.569 13.5-8"/><path fill="#76a5b1" d="M626 856c-14.883 15.214-34.49 22.5-53.5 31-.69-4.57.846-8.85.5-13.5-.397-5.333-8.432-16.448 3-7.5.132.103.058 2.855 1.5 3 .915.092 15.109-6.02 17-7 25.477-13.203 39.831-43.729 36-72 9.151 20.009-2.05 45.191-4.5 66"/><path fill="#020917" d="M466 797c41.956.515 84.036 0 126 0h4c.199 1.338 1.06.687 1 3-51.841 1.685-104.212-2.254-156 0l1-3c7.633.56 16.213-.096 24 0"/><path fill="#193d53" d="M441 800c51.788-2.254 104.159 1.685 156 0-.105 4.042-.743 13.251-6.5 15-4.91 1.492-29.12-.12-36.5 0 .528-3.631-4.024-1.035-5-2.5-.672-1.007.885-7.519-.5-8.5-2.203-1.562-47.038.747-54-1-1.73 1.216 1.246 8.561-2 11-2.762 2.076-37.678-3.077-43.5 2-13.981-.141-18.124-.052-19.5-16 3.824-.119 7.693.166 11.5 0"/><path fill="#335a6c" d="M554 815c-34.807.564-70.253 1.35-105 1 5.822-5.077 40.738.076 43.5-2 3.246-2.439.27-9.784 2-11 6.962 1.747 51.797-.562 54 1 1.385.981-.172 7.493.5 8.5.976 1.465 5.528-1.131 5 2.5"/><path fill="#548999" d="M521 823c25.689 2.727 48.403 17.013 55 43-11.432-8.948-3.397 2.167-3 7.5.346 4.65-1.19 8.93-.5 13.5 19.01-8.5 38.617-15.786 53.5-31-.223 1.894-1.331 3.836.5 5l3.5-3c-1.214 5.914-2.824 11.91-3 18l-60 24c5.377-13.341 5.985-29.643-3-42 .072-9.548-16.062-20.501-24.5-24-30.34-12.58-71.027-2.409-82.5 30-4.124 11.649-5.66 16.299-2 31-2.672.728-3.207-1.288-5-2-2.898-10.253-3.918-20.584-1-31 8.487-30.298 43.804-41.993 72-39"/><path fill="#031124" d="M564 858c-.053-.073-.597 2.143-1.5 1-4.026-5.095-13.035-19.034-20.5-14.5 21.805 14.389 29.62 41.992 14 64-12.904 18.181-30.168 20.438-51.5 18.5-4.366-.397-1.517-.36-.5-2 13.38 1.848 23.449-.218 35-7 6.798-3.991 14.968-11.636 18-19 5.673-13.781 4.088-31.779-9-41-19.414-20.462-55.538-17.424-74 3-7.923 8.765-10.918 15.949-10 28 .979 12.861 10.771 23.926 22 30-6.817 5.761-20.387-11.451-23-17.5-15.798-36.569 18.483-63.2 52-65-5.972.952-6.075-3.409-6.5-3.5-7.994-1.719-28.568 7.886-35 13L457 864c11.473-32.409 52.16-42.58 82.5-30 8.438 3.499 24.572 14.452 24.5 24"/><path fill="#152237" d="M486 919c5.608 3.034 11.656 5.124 18 6-1.017 1.64-3.866 1.603.5 2 21.332 1.938 38.596-.319 51.5-18.5 15.62-22.008 7.805-49.611-14-64 7.465-4.534 16.474 9.405 20.5 14.5.903 1.143 1.447-1.073 1.5-1 8.985 12.357 8.377 28.659 3 42-1.132 2.808-2.355 4.558-4 7-20.682 30.709-80.942 30.62-102 1-3.011-4.235-4.734-7.914-6-13-3.66-14.701-2.124-19.351 2-31l16.5-18c6.432-5.114 27.006-14.719 35-13 .425.091.528 4.452 6.5 3.5-33.517 1.8-67.798 28.431-52 65 2.613 6.049 16.183 23.261 23 17.5"/><path fill="#007898" d="M548 858c-.129-.091-1.946-.402-3-1-12.839-7.288-30.645-10.109-43.5-1-24.313 17.227 10.686 57.289 35.5 49 2.264.961.728 2.943-.5 4-7.857 6.768-21.35 6.106-31 8 5.392-13.544 1.354-8.458-5-15-8.257-8.502-14.03-19.508-15.5-31.5-1.069-1.224-3.336.889-4 1.5l-9-6.5c-.263-1.617 7.645-2.984 2-4.5 18.462-20.424 54.586-23.462 74-3"/><path fill="#0bcbec" d="M545 857c9.046 12.681 9.159 24.615 3 39-4.1.045-8.094 8.029-11 9-24.814 8.289-59.813-31.773-35.5-49 12.855-9.109 30.661-6.288 43.5 1"/><path fill="#70def1" d="M548 858c13.088 9.221 14.673 27.219 9 41l-.5-23c.557 16.897-4.887 25.222-17.5 35 1.761-4.886 7.097-10.556 9-15 6.159-14.385 6.046-26.319-3-39 1.054.598 2.871.909 3 1"/><path fill="#028dad" d="M481 872c-1.205 1.109-6.364 11.444-7 13.5-1.5 4.847 3.557 11.108-5 11.5-1.364-2.597-2.934-5.851-5-8-.918-12.051 2.077-19.235 10-28 5.645 1.516-2.263 2.883-2 4.5z"/><path fill="#08adcb" d="M537 905c2.906-.971 6.9-8.955 11-9-1.903 4.444-7.239 10.114-9 15-1.862 1.444-3.516 3.942-6 5-13.385 1.021-21.978 6.901-37.5 3-12.232-3.075-21.206-11.922-26.5-22 8.557-.392 3.5-6.653 5-11.5.636-2.056 5.795-12.391 7-13.5.664-.611 2.931-2.724 4-1.5 1.47 11.992 7.243 22.998 15.5 31.5 6.354 6.542 10.392 1.456 5 15 9.65-1.894 23.143-1.232 31-8 1.228-1.057 2.764-3.039.5-4"/><path fill="#83c0cb" d="M450 893c1.793.712 2.328 2.728 5 2 1.266 5.086 2.989 8.765 6 13-9.92-13.601-22.413-11.886-36.5-18-8.61-3.737-16.279-8.751-24.5-13 .117-.773.663-1.234 1-2 .196-.445-.386-1.787.5-2 1.001-.24 14.8 8.695 18 10 9.851 4.018 21.02 6.234 30.5 10"/><path fill="#c8f1f8" d="M557 899c-3.032 7.364-11.202 15.009-18 19 2.467-6.74-3.869.016-5.5 0-.815-.008-.397-2.008-.5-2 2.484-1.058 4.138-3.556 6-5 12.613-9.778 18.057-18.103 17.5-35z"/><path fill="#8bc3cd" d="M627 876v1c-1.872 1.177-5.156 5.99-8.5 8-16.341 9.822-37.457 15.852-55.5 22 1.645-2.442 2.868-4.192 4-7z"/><path fill="#68daec" d="M469 897c5.294 10.078 14.268 18.925 26.5 22 15.522 3.901 24.115-1.979 37.5-3 .103-.008-.315 1.992.5 2 1.631.016 7.967-6.74 5.5 0-11.551 6.782-21.62 8.848-35 7-6.344-.876-12.392-2.966-18-6-11.229-6.074-21.021-17.139-22-30 2.066 2.149 3.636 5.403 5 8"/></svg>