<svg xmlns="http://www.w3.org/2000/svg" width="1024" height="1024"><defs><linearGradient id="a" x1="327.198" x2="471.815" y1="270.904" y2="281.43" gradientUnits="userSpaceOnUse"><stop offset="0%" style="stop-color:#a2bcc9"/><stop offset="100%" style="stop-color:#c7dae4"/></linearGradient></defs><defs><linearGradient id="b" x1="767.158" x2="729.943" y1="528.968" y2="634.604" gradientUnits="userSpaceOnUse"><stop offset="0%" style="stop-color:#d2e0e8"/><stop offset="100%" style="stop-color:#a3bbc7"/></linearGradient></defs><defs><linearGradient id="c" x1="675.47" x2="352.824" y1="425.509" y2="724.674" gradientUnits="userSpaceOnUse"><stop offset="0%" style="stop-color:#9de"/><stop offset="67.954%" style="stop-color:#1e99b7"/><stop offset="100%" style="stop-color:#107a9b"/></linearGradient></defs><defs><linearGradient id="d" x1="551.312" x2="510.798" y1="477.091" y2="488.166" gradientUnits="userSpaceOnUse"><stop offset="0%" style="stop-color:#3e73a1"/><stop offset="100%" style="stop-color:#33557e"/></linearGradient></defs><defs><linearGradient id="e" x1="156.664" x2="179.481" y1="583.82" y2="649.997" gradientUnits="userSpaceOnUse"><stop offset="0%" style="stop-color:#1476a8"/><stop offset="100%" style="stop-color:#095e8d"/></linearGradient></defs><path fill="#0a1d30" d="m515 85-1 2c-5.59-.792-7.569-.641-13 2-7.786 3.787-11.833 11.413-12 20-.31 15.943 16.091 21.508 16 29l-9 36.5c2.414 1.886 6.463-.472 8-.5-.37 1.921 2.849 1.632-4 2.5l5 1.5c-3.304.184-6.799 1.195-10 2-15.594 3.923-28.441 16.935-33 32-1.695.567-2.304 2.48-4 3 .109-.301-.12-.729 0-1 4.883-10.996 9.693-22.486 19.5-30 3.042-2.331 16.922-8.49 17.5-9.5 1.008-1.762 7.924-38.192 7-40-.413-.808-10.119-4.569-13-12-7.394-19.074 3.694-41.063 26-37.5"/><path fill="#0c6588" d="M519 134c-3.331 1.427-2.829 1.942-3 2-.189.065-1.162-.696-4 0-.574.141-1.396-.118-2 0-4.677.916-2.494 1.729-3 2-.664.356-1.772-2.108-2 0 .091-7.492-16.31-13.057-16-29 3.767-1.717.69-4.798 7-3.5-3.07 8.95 1.206 14.985 7 21 .357.371-2.834.393-1.5 1.5 7.551 2.388 13.941 3.808 20.5-1 18.611-10.354 12.688-37.07-8-40l1-2c24.81 3.963 27.221 39.053 4 49"/><path fill="#72e4f4" d="M514 87c20.688 2.93 26.611 29.646 8 40 4.616-3.383 6.887-9.743 6-15.5-15.68 6.451-21.268-10.129-14.5-22.5-5.215-.908-9.454 2.463-13 6l.5-6c5.431-2.641 7.41-2.792 13-2"/><path fill="#0792c3" d="M522 127c-6.559 4.808-12.949 3.388-20.5 1-1.334-1.107 1.857-1.129 1.5-1.5-5.794-6.015-10.07-12.05-7-21-6.31-1.298-3.233 1.783-7 3.5.167-8.587 4.214-16.213 12-20l-.5 6c3.546-3.537 7.785-6.908 13-6-6.768 12.371-1.18 28.951 14.5 22.5.887 5.757-1.384 12.117-6 15.5"/><path fill="#081621" d="M519 134a273 273 0 0 0 4 27l-2 2c-.179-8.239-3.848-18.66-5-27 .171-.058-.331-.573 3-2"/><path fill="#6ee5f4" d="M516 136c1.152 8.34 4.821 18.761 5 27 .338 15.577-2.961 10.741-17 11 .12-.622-.091-1.364 0-2l12-.5-4-35.5c2.838-.696 3.811.065 4 0"/><path fill="#21d6ea" d="M510 136c-2.646 7.082.888 20.375-5 25 .867-7.642 1.363-15.337 2-23 .506-.271-1.677-1.084 3-2"/><path fill="#18bede" d="m512 136 4 35.5-12 .5c.505-3.531.595-7.427 1-11 5.888-4.625 2.354-17.918 5-25 .604-.118 1.426.141 2 0"/><path fill="#0290c0" d="M507 138c-.637 7.663-1.133 15.358-2 23-.405 3.573-.495 7.469-1 11-.091.636.12 1.378 0 2-1.537.028-5.586 2.386-8 .5l9-36.5c.228-2.108 1.336.356 2 0"/><path fill="#0b546d" d="M781 354c4.108 12.735-3.813 1.524-7-2-21.116-23.354-34.569-42.4-60-63-57.426-46.517-131.297-75.128-206-75 .219-3.693.114-2.884-3-2.5-16.413 2.022-32.356 3.662-48.5 5.5-1.172-1.253.919-.4 1.5-2 1.696-.52 2.305-2.433 4-3 7.988-2.674 29.047-4.666 38-5 15.568-.581 28.815 1.56 44 3 2.734.259 5.261.814 8 1 .332.022.668-.019 1 0 2.356.132 3.88 2.473 6-.5-8.284-24.255-29.207-33.882-54-32.5l-5-1.5c6.849-.868 3.63-.579 4-2.5 14.039-.259 17.338 4.577 17-11l2-2c4.668 23.428 2.293 10.337 19.5 21 15.038 9.319 17.066 28.2 22 32 2.307 1.777 47.469 12.858 56 16 64.714 23.833 121.213 67.696 160.5 124"/><path fill="#8ceff5" d="M505 178c24.793-1.382 45.716 8.245 54 32.5-2.12 2.973-3.644.632-6 .5-4.991-25.663-35.901-31.701-58-31 3.201-.805 6.696-1.816 10-2"/><path fill="#0298c6" d="M495 180c22.099-.701 53.009 5.337 58 31-.332-.019-.668.022-1 0-3.501-3.477-5.917-7.7-9-11.5-1.48-1.824-2.638-6.467-8.5-9.5-4.134-2.139-31.666-11.81-28.5 0-.85.021-7.297-2.882-6.5 2 2.793.214 5.739-.303 8.5 0-1.963 3.415-.14 8.731-1 11.5-.701 2.258-7.224-.257-7 3.5-8.953.334-30.012 2.326-38 5 4.559-15.065 17.406-28.077 33-32"/><path fill="#6de7f6" d="M552 211c-2.739-.186-5.266-.741-8-1-.348-5.081-8.855-11.036-13-13 2.093-.773 2.495-1.681.5-3-5.292-3.498-19.029-4.159-25.5-4-3.166-11.81 24.366-2.139 28.5 0 5.862 3.033 7.02 7.676 8.5 9.5 3.083 3.8 5.499 8.023 9 11.5"/><path fill="#dbf7fc" d="M506 190c6.471-.159 20.208.502 25.5 4 1.995 1.319 1.593 2.227-.5 3-7.375-3.494-15.024-4.124-23-5-2.761-.303-5.707.214-8.5 0-.797-4.882 5.65-1.979 6.5-2"/><path fill="#09bee0" d="M531 197c4.145 1.964 12.652 7.919 13 13-15.185-1.44-28.432-3.581-44-3-.224-3.757 6.299-1.242 7-3.5.86-2.769-.963-8.085 1-11.5 7.976.876 15.625 1.506 23 5"/><path fill="#073f58" d="M508 214c-29.331.05-67.109 7.94-95 17-71.057 23.083-138.77 76.934-177 141-26.635 44.635-44.577 100.454-47 152.5l2-53c-.631-1.093-9.581 3.175-10 3.5-1.899-1.871.431-4.355 2-6 17.527-18.372 18.596-39.837 29-63.5 43.725-99.451 140.143-170.802 246-191.5-.12.271.109.699 0 1-.581 1.6-2.672.747-1.5 2 16.144-1.838 32.087-3.478 48.5-5.5 3.114-.384 3.219-1.193 3 2.5"/><path fill="url(#a)" d="M508 214c74.703-.128 148.574 28.483 206 75-.339 1.748 1.296 2.197 1 4-.365 2.219-7.264 12.836-9 16-48.218-37.958-106.591-74.65-170-74-9.279-9.752-22.324-11.873-35-8-5.816 1.777-6.769 3.364-11 7-17.067 14.665-19.916 41.269 0 55-14.068.742-27.455 3.692-41 7-41.749 10.196-81.121 29.752-113.5 58L312 291c29.205-23.068 60.086-41.499 94.5-56 1.322-.557 9.742 1.147 6.5-4 27.891-9.06 65.669-16.95 95-17" style="fill:url(#a)"/>/&gt;<path fill="#0f3653" d="M536 235c.367.385 3.539 5.196 4 6 1.295 2.257 2.266 4.477 3 7l-1 1c-.082-.325-2.523-5.097-3-6-7.477-14.152-22.605-19.236-37-13l-1-3c12.676-3.873 25.721-1.752 35 8"/><path fill="#0f799e" d="m501 227 1 3c-7.662 3.319-16.043 13.604-17 22-1.946 17.065 9.965 28.833 25 34 5.133 1.764 8.983-1.21 12 5-38.496 11.405-57.968-30.283-32-57 4.231-3.636 5.184-5.223 11-7"/><path fill="#80e9f3" d="M539 243v21c-3.987-4.309-1.153-11.532-3-17.5-4.173-13.484-20.871-16.769-32-9.5-3.798 2.481-8.685 7.565-10 12-.357-.713-.124-6.2 0-6.5.689-1.661 5.719-5.421 3.5-6.5-6.203 4.211-8.13 10.293-12.5 16 .957-8.396 9.338-18.681 17-22 14.395-6.236 29.523-1.152 37 13"/><path fill="#cfe4ec" d="M312 291c-6.237 4.926-12.064 9.713-18 15-10.028 8.931-21.265 18.282-30 28.5-10.098 11.812-16.968 26.45-28 37.5 38.23-64.066 105.943-117.917 177-141 3.242 5.147-5.178 3.443-6.5 4-34.414 14.501-65.295 32.932-94.5 56"/><path fill="#24d3f1" d="M539 264c-7.583 28.047-34.898 13.089-37-9.5-.652-7.005 2.335-11.232 2-17.5 11.129-7.269 27.827-3.984 32 9.5 1.847 5.968-.987 13.191 3 17.5m-15.5-26c-5.044 2.009 1.663 21.05 10 18 6.605-2.416-6.909-19.231-10-18"/><path fill="#0a1b2f" d="M490 234c-25.968 26.717-6.496 68.405 32 57 17.483-5.179 24.243-25.093 20-42l1-1c4.572 15.704 2.091 29.993-10 41-2.49.29-7.561 4.459-11 5-11.327 1.782-22.234 1.733-32-5-19.916-13.731-17.067-40.335 0-55"/><path fill="#fcfcfc" d="M706 309c-.602 1.097-1.596 2.271-2 3-43.618-33.603-96.378-66.074-152.5-72-3.314-.35-8.761-1.358-11.5 1-.461-.804-3.633-5.615-4-6 63.409-.65 121.782 36.042 170 74"/><path fill="#15a5c4" d="M494 249c-4.389 14.808 4.101 31.653 19.5 35l-3.5 2c-15.035-5.167-26.946-16.935-25-34 4.37-5.707 6.297-11.789 12.5-16 2.219 1.079-2.811 4.839-3.5 6.5-.124.3-.357 5.787 0 6.5"/><path fill="#127193" d="M539 264v-21c.477.903 2.918 5.675 3 6 4.243 16.907-2.517 36.821-20 42-3.017-6.21-6.867-3.236-12-5l3.5-2c-15.399-3.347-23.889-20.192-19.5-35 1.315-4.435 6.202-9.519 10-12 .335 6.268-2.652 10.495-2 17.5 2.102 22.589 29.417 37.547 37 9.5"/><path fill="#7beaf7" d="M523.5 238c3.091-1.231 16.605 15.584 10 18-8.337 3.05-15.044-15.991-10-18"/><path fill="#e6f0f5" d="M704 312c-4.698 8.49-10.026 16.911-13.5 26 11.328-14.105 27.202-28.185 46-18 5.893 3.193 10.36 11.813 15.5 16l-1 1c-12.929-18.874-37.705-18.002-50 1-5.854 9.047-7.659 17.302-5 28-24.122-22.073-50.255-42.692-80.5-56-17.047-7.501-65.24-23.011-82.5-21 12.091-11.007 14.572-25.296 10-41-.734-2.523-1.705-4.743-3-7 2.739-2.358 8.186-1.35 11.5-1 56.122 5.926 108.882 38.397 152.5 72"/><path fill="#97afbb" d="M490 289c9.766 6.733 20.673 6.782 32 5 3.281.369 4.626 12.575 4 13.5-1.131 1.67-8.083-1.688-8 3.5-15.852-.011-29.184.121-45 2-.882-1.684-11.091-1.155-12.5-1-.463.051-4.725 3.778-8 3l-3.5-19c13.545-3.308 26.932-6.258 41-7"/><path fill="#b1c5ce" d="M696 366c2.553 10.274 12.805 19.834 23 22 28.265 27.945 50.801 68.809 62 107-2.287 2.621-8.219 3.688-11 2-16.616-57.69-55.898-108.677-106-141-26.671-17.206-98.029-49.265-129-44-5.074-1.824-11.609-.996-17-1-.083-5.188 6.869-1.83 8-3.5.626-.925-.719-13.131-4-13.5 3.439-.541 8.51-4.71 11-5 17.26-2.011 65.453 13.499 82.5 21 30.245 13.308 56.378 33.927 80.5 56"/><path fill="url(#b)" d="M774 352c33.06 49.195 55.414 105.871 60 165.5l-4-48c2.343 1.754 9.268 4.101 11 5.5 9.554 7.715 9.493 31.586 10 44 .506 12.389-.174 24.657-1 37-5.008 5.503-5.142 18.433-5 25.5l-2-1c.915 31.042-10.04 60.876-20 90-3.293 2.625-25.988 9.185-27 6 4.216-17.541 12.728-34.047 17-51.5 21.36-87.269 1.141-194.314-56-264 .44-9.729-.4-15.826-6-24l1-1c1.174.957 1.128 2.485 2 1.5-9.226-16.354-22.77-34.037-39-44.5.296-1.803-1.339-2.252-1-4 25.431 20.6 38.884 39.646 60 63" style="fill:url(#b)"/>/&gt;<path fill="#76909d" d="m449 296 3.5 19c3.275.778 7.537-2.949 8-3 1.409-.155 11.618-.684 12.5 1-6.277.746-12.815 1.741-19 3-57.267 11.659-113.253 44.49-151 89l-6.5-14c-14.652 16.382-27.023 34.701-37.5 54-28.101 51.766-46.119 113.865-35 173l-11 3c-9.284-47.883-11.385-92.114-2-140 9.679-49.384 30.216-90.854 56-133.5l27-41.5c5.936-5.287 11.763-10.074 18-15l23.5 63c32.379-28.248 71.751-47.804 113.5-58m-151.5 34c-35.416 2.54-32.188 56.946 3 52 32.379-4.551 31.851-54.5-3-52"/><path fill="#cdd9df" d="M752 336c-5.14-4.187-9.607-12.807-15.5-16-18.798-10.185-34.672 3.895-46 18 3.474-9.089 8.802-17.51 13.5-26 .404-.729 1.398-1.903 2-3 1.736-3.164 8.635-13.781 9-16 16.23 10.463 29.774 28.146 39 44.5-.872.985-.826-.543-2-1.5"/><path fill="#6f90a1" d="M211 481c-2.129-.503-2.606 1.995-3 3.5-4.367 16.703-9.342 42.983-10 60-1.819 47.023 15.882 91.648 26.5 132.5-1.352 1.009-19.738-1.381-21-2-2.807-1.377-9.249-19.611-10.5-23.5-7.314-22.736-15.524-63.229-18-87-2.443-23.461-.329-47.058-1-70.5.124-1.366.22-3.75 0-5 2.352-6.556 1.153-9.468 7-14 .419-.325 9.369-4.593 10-3.5l-2 53c2.423-52.046 20.365-107.865 47-152.5 11.032-11.05 17.902-25.688 28-37.5 8.735-10.218 19.972-19.569 30-28.5l-27 41.5c-25.784 42.646-46.321 84.116-56 133.5"/><path fill="#083f5b" d="M518 311c5.391.004 11.926-.824 17 1-3.362.572-7.271.705-6 5-6.774-.423-13.135-1.053-20-1-18.365.141-37.007 2.463-55 6v-6c6.185-1.259 12.723-2.254 19-3 15.816-1.879 29.148-2.011 45-2"/><path fill="#124e68" d="m664 356-3 3c-22.952-14.668-49.619-26.114-76-33-19.196-5.011-36.108-7.758-56-9-1.271-4.295 2.638-4.428 6-5 30.971-5.265 102.329 26.794 129 44"/><path fill="#022741" d="M454 322c-96.587 18.984-174.049 92.488-197 188-2.213 9.21-4.825 18.574-6 28-16.061 128.885 69.661 256.688 196 288 8.011 1.985 16.825 3.944 25 5 39.225 5.065 83.387 2.032 121-10 2.483 2.847 2.038 2.654 5.5 2 6.818-1.287 21.006-9.924 28-13 .261-.115 6.409-2.882 5.5 0-10 4.965-17.384 8.292-28 12-62.163 21.714-118.473 22.409-181 1-36.352-12.447-72.925-35.675-100-63-9.011-9.095-20.589-23.028-28-33.5-6.412-9.061-22.645-42.49-27-46.5-30.738-69.588-31.087-153.702 1-223 .574-1.24 1.366-2.709 2-4 7.623-15.526 20.795-34.788 32-48 37.747-44.51 93.733-77.341 151-89z"/><path fill="#0f5e7a" d="M509 316c.065 2.105-3.377 15.924-4 16.5-2.101 1.944-10.123-1.865-11 2.5-27.98 1.96-60.075 10.769-86 22-36.401 15.77-72.053 44.666-98 74.5-1.041 1.197-6.473 6.757-4 8.5-4.884 4.552-9.613 8.941-14 14-15.03 17.329-23.516 36.507-35 56 22.951-95.512 100.413-169.016 197-188 17.993-3.537 36.635-5.859 55-6"/><path fill="#247891" d="M529 317c19.892 1.242 36.804 3.989 56 9l-7 16c-27.679-6.999-55.449-9-84-7 .877-4.365 8.899-.556 11-2.5.623-.576 4.065-14.395 4-16.5 6.865-.053 13.226.577 20 1"/><path fill="#0e4d66" d="M751 337c5.6 8.174 6.44 14.271 6 24-.073 1.607.247 3.543 0 5l-3-2c2.01-9.751 1.509-16.667-4-25-2.862-4.33-11.755-11.604-17-12-12.134-1.009-17.322.638-26 8-.428.363-3.983 1.544-5 3h-1c12.295-19.002 37.071-19.874 50-1"/><path fill="#378fa7" d="M661 359c27.594 17.635 50.843 41.839 69 69-4.617-1.63-6.925 6.773-10 9-17.464-22.871-40.677-47.188-65.5-62-1.475-.88-2.864 1.081-3 1-.619-.37 1.155-2.627-3-5-18.52-10.579-48.139-23.346-70.5-29l7-16c26.381 6.886 53.048 18.332 76 33"/><path fill="#14ddf7" d="M733 327c-1.729-.131-12.084 1.802-11 4.5 9.332-2.532 24.797 4.937 24.5 15.5-3.595-5.163-9.841-12.871-16.5-8.5 5.976.394 19.053 9.474 13.5 14.5l6.5.5-1 12.5c-14.183 27.672-49.992-11.866-28.5-33-22.022 10.722-10.357 44.144 12 46 7.688.638 13.971-2.658 17.5-9.5 3.554-6.891 3.225-11.971 2-19.5-.567-3.483-2.928-7.007-2-11 5.509 8.333 6.01 15.249 4 25-2.786 13.52-10.252 18.334-23.5 17-18.742-1.887-27.745-19.005-25.5-36.5.347-2.704 7.621-10.391 2-9.5 8.678-7.362 13.866-9.009 26-8"/><path fill="#b6f4fa" d="M750 339c-.928 3.993 1.433 7.517 2 11 .558 6.58-.064 10.272-3 16l1-12.5-6.5-.5c5.553-5.026-7.524-14.106-13.5-14.5 6.659-4.371 12.905 3.337 16.5 8.5.297-10.563-15.168-18.032-24.5-15.5-1.084-2.698 9.271-4.631 11-4.5 5.245.396 14.138 7.67 17 12"/><path fill="#0a162b" d="M297.5 330c34.851-2.5 35.379 47.449 3 52-35.188 4.946-38.416-49.46-3-52M277 345c-18.57 34.663 40.921 49.485 45 13 3.404-30.455-33.968-33.592-45-13"/><path fill="#81dbec" d="m322 358-2 .5-.5-6.5c-.368 1.869-.786 3.21-1.5 5-.775-7.15-1.332-14.351-9-18-5.442-2.59-7.265-2.26-13-1-4.522.993-9.805 3.824-12 8-3.044-6.724-2.11-2.21-7-1 11.032-20.592 48.404-17.455 45 13"/><path fill="#0185aa" d="M749 366c2.936-5.728 3.558-9.42 3-16 1.225 7.529 1.554 12.609-2 19.5-3.529 6.842-9.812 10.138-17.5 9.5-22.357-1.856-34.022-35.278-12-46-21.492 21.134 14.317 60.672 28.5 33"/><path fill="#4ca6bd" d="M578 342c22.361 5.654 51.98 18.421 70.5 29 4.155 2.373 2.381 4.63 3 5 .136.081 1.525-1.88 3-1 24.823 14.812 48.036 39.129 65.5 62 8.265 10.824 15.931 21.715 22 34 18.841 38.134 28.374 96.914 22 139l-18-1c30.191-200.27-170.677-295.832-339-232l1-20c25.925-11.231 58.02-20.04 86-22 28.551-2 56.321.001 84 7"/><path fill="#0b84a9" d="M707 335c5.621-.891-1.653 6.796-2 9.5-2.245 17.495 6.758 34.613 25.5 36.5 13.248 1.334 20.714-3.48 23.5-17l3 2c-1.333 7.867-6.433 13.948-13 18-15.066 4.854-28.744 5.245-39-8.5-7.54-10.105-10.672-26.514-3-37.5 1.017-1.456 4.572-2.637 5-3"/><path fill="#162947" d="M309 339c-3.867 2.088-8.476-.846-13 0v-1c5.735-1.26 7.558-1.59 13 1"/><path fill="#1b688d" d="M296 338v1c-.7.131-10.432 6.365-11 7.5-6.462 12.914 19.416 28.681 30 16.5-12.089 17.774-42.629 5.121-31-17 2.195-4.176 7.478-7.007 12-8"/><path fill="#081429" d="M702 338c-7.672 10.986-4.54 27.395 3 37.5 10.256 13.745 23.934 13.354 39 8.5-9.079 5.602-14.264 6.281-25 4-10.195-2.166-20.447-11.726-23-22-2.659-10.698-.854-18.953 5-28z"/><path fill="#1ccbec" d="M309 339c7.668 3.649 8.225 10.85 9 18-1.234 3.094-.976 3.025-3 6-10.584 12.181-36.462-3.586-30-16.5.568-1.135 10.3-7.369 11-7.5 4.524-.846 9.133 2.088 13 0"/><path fill="#107fa5" d="M284 346c-11.629 22.121 18.911 34.774 31 17 2.024-2.975 1.766-2.906 3-6 .714-1.79 1.132-3.131 1.5-5l.5 6.5 2-.5c-4.079 36.485-63.57 21.663-45-13 4.89-1.21 3.956-5.724 7 1"/><path fill="#08324b" d="M781 354c23.158 33.188 40.257 69.891 50 109.5 3.658 2.501 7.345 5.017 11 7.5l-1 4c-1.732-1.399-8.657-3.746-11-5.5l4 48c-4.586-59.629-26.94-116.305-60-165.5 3.187 3.524 11.108 14.735 7 2"/><path fill="#033854" d="M770 497c14.2 49.301 12.729 103.084-2 152-8.848 29.385-23.86 58.62-41 84-25.979 32.176-57.925 58.591-95 77 .909-2.882-5.239-.115-5.5 0-6.994 3.076-21.182 11.713-28 13-3.462.654-3.017.847-5.5-2 43.956-14.061 81.006-40.397 111-75 68.148-78.619 90.418-178.998 49-277-5.875-13.901-14.609-28.448-23-41-18.157-27.161-41.406-51.365-69-69l3-3c50.102 32.323 89.384 83.31 106 141"/><path fill="#10819e" d="M407 377c-35.309 13.39-73.318 37.196-101 63-2.473-1.743 2.959-7.303 4-8.5 25.947-29.834 61.599-58.73 98-74.5z"/><path fill="url(#c)" d="M746 609c-19.191 127.301-149.584 221.566-277 196-3.539-.71-7.448-2.066-11-3-55.013-14.465-104.266-51.643-137-97.5-36.744-51.474-61.689-123.401-33-184-1.107-2.614-25.523 11.765-28 13.5l32-80c4.387-5.059 9.116-9.448 14-14 27.682-25.804 65.691-49.61 101-63 168.323-63.832 369.191 31.73 339 232M430 394c-92.487 58.305-106.02 177.177-21.5 250 63.213 54.465 168.362 51.927 219.5-17 18.954-25.547 28.61-48.34 33-80 12.714-91.691-58.949-170.975-151-171-3.588-1.752-8.487-.912-12.5-2-1.817-.493-1.227-3.589-2-4-4.186-2.224-37.763 8.306-44 11-7.547 3.26-14.581 8.638-21.5 13m227.5 21c-19.433 3.634-9.284 30.406 10 24 15.556-5.167 8.762-27.509-10-24m43 38L679 469.5c2.56 2.616 17.094 21.313 18.5 21.5 1.715.228 22.214-12.628 22.5-14.5-1.305-3.885-17.011-23.765-19.5-23.5m22 33-7 10c7.125 3.434 15.543-5.246 7-10m-51 10 4 27c-1.562-8.264 1.835-20.213-4-27m35 9c-1.454-.078-15.613 6.305-15.5 7.5 14.739 5.021 21.927 34.37 35.5 35.5 11.526.959 11.008-11.828 12.5-20.5-23.978 23.709-17.939-21.716-32.5-22.5m-28 48-1.5 16.5c4.129 6.091 17.322-17.899 1.5-16.5m13 7c-.927.284-2.398 5.903-1 7 1.806 1.417 5.839-8.483 1-7M564 710c.046 1.01 1.111 1.144 1 2-28.493 5.381-48.678 16.399-78.5 14-1.579-.127-9.483-3.074-10-3-7.935 1.141 7.31 4.814 2 5 5.669 1.755 10.676 1.311 14 2 25.335 5.25 41.994 1.93 65.5-12-30.227 25.016-73.262 24.643-104 .5.006-.764 12.946-7.132 0-7.5 1.832-1.587-.792-2.9-1.5-3-10.95-1.549-16.03 3.169-13.5 14 4.535 19.414 26.775 46.644 43 58 19.783 13.845 39.734 14.148 59-1 11.008-8.655 19.705-19.517 26-32 3.938-7.81 9.337-14.322 7-24 .815-.446 2.109-.768 3-1 .554-.144 2.059 1.781 3.5 1 .921-.421.31-1.799.5-2 .152-.161 1.881.369 2-.5-4.081-8.988-8.252-15.17-19.5-13.5-1.774 1.886.493 2.848.5 3" style="fill:url(#c)"/>/&gt;<path fill="#e5f0f6" d="M813 625c-2.527.024-3.459-1.13-2-3 1.236-5.416 1.638-12.398 2.5-18l-23.5-2c4.056-36.208 1.251-72.042-9-107-11.199-38.191-33.735-79.055-62-107 10.736 2.281 15.921 1.602 25-4 6.567-4.052 11.667-10.133 13-18 .247-1.457-.073-3.393 0-5 57.141 69.686 77.36 176.731 56 264"/><path fill="#2089a9" d="M510 376c-24.542-.007-54.633 8.764-76 21l-4-3c6.919-4.362 13.953-9.74 21.5-13 6.237-2.694 39.814-13.224 44-11 .773.411.183 3.507 2 4 4.013 1.088 8.912.248 12.5 2"/><path fill="#cce8f2" d="M510 376c92.051.025 163.714 79.309 151 171-9.683 29.923-21.979 57.28-45.5 79-73.078 67.483-191.04 46.146-235.5-42.5-28.269-56.365-16.66-111.406 21-159.5 9.367-9.969 21.104-20.187 33-27 21.367-12.236 51.458-21.007 76-21m-52 40c-12.218-6.833-16.03 4.59-22 11-.166.178.167.822 0 1-30.137 20.851-51.633 61.218-52 98-.572 57.348 37.675 105.751 92 121 .614.172 1.599.654 3 1 71.174 17.564 146.177-28.035 157-102 .141-.961-.111-2.029 0-3 2.022-17.639.501-31.037-4-48-1.581-5.959-2.771-13.189-7-18 13.587-31.42-9.237-59.721-43-54-13.006-10.071-40.723-19.716-57-19-22.05-2.717-48.046.606-67 12"/><path fill="#5c7580" d="M303 405c-11.205 13.212-24.377 32.474-32 48-4.484-1.815-6.092-9.091-12-8 10.477-19.299 22.848-37.618 37.5-54z"/><path fill="#0b6585" d="m430 394 4 3c-11.896 6.813-23.633 17.031-33 27-58.18 61.915-56.624 160.541 8.5 217 64.298 55.743 161.528 48.116 218.5-14-51.138 68.927-156.287 71.465-219.5 17-84.52-72.823-70.987-191.695 21.5-250"/><path fill="#4aadd3" d="M525 404c-18.076.795-9.212 8.964-15.5 13-2.003 1.286-19.563 3.765-20.5 5.5-.927 1.716.907 19.416 2 22.5-7.835 1.742-15.93 4.257-23 8l-8-17c4.025-4.971 4.711-16.246-2-20 18.954-11.394 44.95-14.717 67-12"/><path fill="#7bcbec" d="M582 423c-15.28 2.589-30.094 15.167-33 31-13.472-10.096-34.367-13.021-51-11-1.694.206-5.161 1.591-7 2-1.093-3.084-2.927-20.784-2-22.5.937-1.735 18.497-4.214 20.5-5.5 6.288-4.036-2.576-12.205 15.5-13 16.277-.716 43.994 8.929 57 19"/><path fill="#fdfefe" d="M458 416c6.711 3.754 6.025 15.029 2 20-4.51 5.57-11.169 4.195-17 2l-7-11c5.97-6.41 9.782-17.833 22-11"/><path fill="#fefeff" d="M657.5 415c18.762-3.509 25.556 18.833 10 24-19.284 6.406-29.433-20.366-10-24"/><path fill="#fafdfe" d="M625 477c-1.259 2.911-3.002 6.61-5 9-4.836 5.785-20.621 15.964-28 17-.957.134-2.021-.045-3 0-26.524 1.225-44.602-23.929-40-49 2.906-15.833 17.72-28.411 33-31 33.763-5.721 56.587 22.58 43 54m-68.5-27c-.354.086-1.739 1.409-2.5 1.5-3.472 23.454 19.445 50.077 43.5 44.5 5.337-1.237 20.613-10.662 20.5-16.5-.13-6.719-9.103 1.173-11.5 1.5-10.39 1.415-24.645-10.311-32-17-4.216-3.834-7.955-16.443-18-14"/><path fill="#67c4e3" d="M661 547c-4.39 31.66-14.046 54.453-33 80-56.972 62.116-154.202 69.743-218.5 14-65.124-56.459-66.68-155.085-8.5-217-37.66 48.094-49.269 103.135-21 159.5 44.46 88.646 162.422 109.983 235.5 42.5 23.521-21.72 35.817-49.077 45.5-79"/><path fill="#1481b2" d="M443 438c-.084-.032-.023 1.61-1.5 1-.926-.383-4.359-8.796-8.5-5.5-4.729 14.744-19.253 37.867-15 53 .46 1.638 6.919 14.142 10 9.5-13.216 33.197-2.078 65.528 22 90-1.001-.465-5.761-.818-7.5-3-14.947 8.822-11.762 23.24-1.5 34.5 3.635 3.989 15.655 12.673 20.5 12.5.246-.009 3.517-1.682 4.5-2 2.507 2.141 4.458 15.829 5 16.5.216.268 10.803-.54 5 2.5-54.325-15.249-92.572-63.652-92-121l6-30.5c8.135-29.843 26.094-46.265 46-67.5.167-.178-.166-.822 0-1z"/><path fill="#247891" d="M730 428c8.391 12.552 17.125 27.099 23 41-4.984-4.89-5.544-.315-11 2-6.069-12.285-13.735-23.176-22-34 3.075-2.227 5.383-10.63 10-9"/><path fill="#065487" d="M436 428c-19.906 21.235-37.865 37.657-46 67.5l-6 30.5c.367-36.782 21.863-77.149 52-98"/><path fill="#249ecb" d="M443 438c5.831 2.195 12.49 3.57 17-2l8 17c-14.423 7.637-33.926 27.744-40 43-3.081 4.642-9.54-7.862-10-9.5-4.253-15.133 10.271-38.256 15-53 4.141-3.296 7.574 5.117 8.5 5.5 1.477.61 1.416-1.032 1.5-1"/><path fill="url(#d)" d="M549 454c-4.602 25.071 13.476 50.225 40 49-2.586 4.875 1.336 4.054 2 10-20.259 4.583-40.987 5.3-59.5-5-2.54-1.413-6.206-6.911-9-9-.648-.484-5.218.494-6 0-1.146-.724-15.75-20.055-16.5-21.5-1.847-3.558 1.595-11.355-6-11.5 1.334-3.085-1.363-18.594-1-19.5.759-1.897 7.43-.293 5-3.5 16.633-2.021 37.528.904 51 11" style="fill:url(#d)"/>/&gt;<path fill="#0f203f" d="M494 466c-12.5-.238-32.491 39.579-35 50.5-3.538 15.401-2.025 25.404 7 38.5-15.238 8.919-3.872 36.654 17 34 2.354 3.152-1.745 1.368-2 2.5-.322 1.427.515 9.912 1 10.5-12.743-.274-22.461-11.569-32-16-24.078-24.472-35.216-56.803-22-90 6.074-15.256 25.577-35.363 40-43 7.07-3.743 15.165-6.258 23-8 1.839-.409 5.306-1.794 7-2 2.43 3.207-4.241 1.603-5 3.5-.363.906 2.334 16.415 1 19.5"/><path fill="#495f6b" d="M271 453c-.634 1.291-1.426 2.76-2 4-40.647 72.046-39.99 150.147-7 225 10.324 23.426 23.609 45.339 40 65-14.169 4.593-2.071 10.463 3 16 41.113 44.896 100.75 74.454 160 87l-1 18c-70.533-10.815-131.529-45.786-179-98-12.245-17.712-27.171-33.582-37-53-.844-1.666-6.301-11.876-6-12.5.436-.904 11.979-3.003 12-8 .009-2.214-16.591-33.461-19-40-4.238-11.501-8.741-26.484-11-38.5-11.119-59.135 6.899-121.234 35-173 5.908-1.091 7.516 6.185 12 8"/><path fill="#dff7fd" d="M556.5 450c10.045-2.443 13.784 10.166 18 14 7.355 6.689 21.61 18.415 32 17 2.397-.327 11.37-8.219 11.5-1.5.113 5.838-15.163 15.263-20.5 16.5-24.055 5.577-46.972-21.046-43.5-44.5.761-.091 2.146-1.414 2.5-1.5"/><path fill="#fdfeff" d="M700.5 453c2.489-.265 18.195 19.615 19.5 23.5-.286 1.872-20.785 14.728-22.5 14.5-1.406-.187-15.94-18.884-18.5-21.5z"/><path fill="#0b6689" d="M260 534c-3.414 2.391-3.688 8.399-9 4 1.175-9.426 3.787-18.79 6-28 11.484-19.493 19.97-38.671 35-56z"/><path fill="#d1e0e9" d="M268 680c-2.791-2.57-5.577-1.969-6 2-32.99-74.853-33.647-152.954 7-225-32.087 69.298-31.738 153.412-1 223"/><path fill="#0f4777" d="M494 466c7.595.145 4.153 7.942 6 11.5.75 1.445 15.354 20.776 16.5 21.5.782.494 5.352-.484 6 0 2.794 2.089 6.46 7.587 9 9 18.513 10.3 39.241 9.583 59.5 5 4.658 41.729-24.117 82.878-65.5 91-9.609 1.886-34.166 3.426-42.5-1-1.179-.626-.77-.722-1-1-.485-.588-1.322-9.073-1-10.5.255-1.132 4.354.652 2-2.5 26.744-3.401 4.659-46.678-17-34-9.025-13.096-10.538-23.099-7-38.5 2.509-10.921 22.5-50.738 35-50.5"/><path fill="#0f5e7a" d="M753 469c41.418 98.002 19.148 198.381-49 277 4.416-11.448 13.952-20.769 20-31.5 13.945-24.746 35.829-76.962 40-104.5 6.374-42.086-3.159-100.866-22-139 5.456-2.315 6.016-6.89 11-2"/><path fill="#092136" d="M181 475c-5.847 4.532-4.648 7.444-7 14-.027-.156-1.812-.794-1-3 .6-2.501-.886-3.879 2-6.5-16.144 5.571-32.314 15.124-34 34.5-.029.33.014.668 0 1l-2-1c1.905-16.779 2.027-18.598 15.5-29 7.982-6.162 19.673-10.922 28.5-16-1.569 1.645-3.899 4.129-2 6"/><path fill="#10526c" d="M874 624c-4.634-.445-2.775 10.765-6 13 1.684-6.005 2.695-12.847 4-19 5.136-24.226 16.677-103.791 3-122.5-4.971-6.8-17.79-11.425-24.5-16.5-1.973.152.352 9.221.5 11 .817 9.781 1.798 19.125 2 29h-2c-.507-12.414-.446-36.285-10-44l1-4c8.31 5.647 32.19 15.801 37 23.5 12.77 20.441.668 103.988-5 129.5"/><path fill="#27a0cc" d="m632 495 4 48c-.111.971.141 2.039 0 3-2.159-1.503-2.328-.605-3 1.5-1.716 5.372-3.759 21.79-7 26-.246.319-6.103 2.664-7 4-6.02 8.962-10.948 21.649-18 30-8.43 9.984-18.912 14.884-28 24l1.5 1.5c-12.819 6.565-27.204 13.649-42 16-17.487 2.779-30.228.45-47-2-.526-.077-6.02.157-6.5 1-1.401-.346-2.386-.828-3-1 5.803-3.04-4.784-2.232-5-2.5-.542-.671-2.493-14.359-5-16.5 11.678-3.781 18.818-12.139 17-25 8.334 4.426 32.891 2.886 42.5 1 41.383-8.122 70.158-49.271 65.5-91-.664-5.946-4.586-5.125-2-10 .979-.045 2.043.134 3 0 2.579 16.967 26.998-8.41 28-17 1.998-2.39 3.741-6.089 5-9 4.229 4.811 5.419 12.041 7 18m-23.5 25c-17.548 2.754-3.728 23.571 14 19 11.297-2.913 6.001-22.139-14-19"/><path fill="#5ad6ef" d="M173 486c-.292 1.218-2.608 4.957-3 7-2.122-3.255-2.997-1.394-5.5 0-6.784 3.778-23.697 15.13-17.5 24-6.749.985.433-5.097-6-3 1.686-19.376 17.856-28.929 34-34.5-2.886 2.621-1.4 3.999-2 6.5"/><path fill="#78e9f7" d="M872 618c-6.581.51-3.172-1.533-3-4 .392-5.633 7.375-37.496 6-39.5l-19-5.5c.207-1.629.822-2.383 1-4 3.464.446 19.576 6.87 21 3.5l-1-50h-9c6.824-.044 7.371 7.155 7 12.5-.052-.16-1.852.384-3-1.5-.092-.151 2.27-1.804.5-3.5-1.244-1.192-12.221-4.512-14.5-6-.035-1.588-2.003-9.7-1.5-10 3.013-.552 17.105 6.314 18 6 10.033-3.517-17.431-27.993-23.5-26-.148-1.779-2.473-10.848-.5-11 6.71 5.075 19.529 9.7 24.5 16.5 13.677 18.709 2.136 98.274-3 122.5"/><path fill="#a7c3d0" d="M211 481c-9.385 47.886-7.284 92.117 2 140 4.238 21.856 11.721 43.184 16 65-.669-1.233-1.816-4.803-2-5-2.72-2.916-23.95-2.617-29-7.5-9.922-9.595-20.808-75.521-23-91.5-.187-1.363-.749-2.979-1-5-.363-2.926-1.704-7.005-2-10-2.855-28.889-.516-45.194 2-73 .671 23.442-1.443 47.039 1 70.5 2.476 23.771 10.686 64.264 18 87 1.251 3.889 7.693 22.123 10.5 23.5 1.262.619 19.648 3.009 21 2-10.618-40.852-28.319-85.477-26.5-132.5.658-17.017 5.633-43.297 10-60 .394-1.505.871-4.003 3-3.5"/><path fill="#0b435d" d="M174 489c.22 1.25.124 3.634 0 5-2.516 27.806-4.855 44.111-2 73l-2-1.5c-.018 4.814-.348 9.391 1 14l3-2.5c.251 2.021.813 3.637 1 5-3.673.013-2.139 4.956-2 7-4.595-4.576-5.209-12.704-6-19-.391-3.111-.789-6.885-1-10-1.459-21.52-.06-45.824 4-67 .392-2.043 2.708-5.782 3-7-.812 2.206.973 2.844 1 3"/><path fill="#8edaf6" d="M592 503c7.379-1.036 23.164-11.215 28-17-1.002 8.59-25.421 33.967-28 17"/><path fill="#fcfefe" d="M722.5 486c8.543 4.754.125 13.434-7 10z"/><path fill="#0298b7" d="M858 520c.272 12.483.205 27.646-1 40-.159 1.63.179 3.375 0 5-.178 1.617-.793 2.371-1 4-.009.07-.822-.355-1 1-2.042-.533-2.918-7.07-3-8.5-.732-12.833 1.279-28.839 1-42.5-.202-9.875-1.183-19.219-2-29 6.069-1.993 33.533 22.483 23.5 26-.895.314-14.987-6.552-18-6-.503.3 1.465 8.412 1.5 10"/><path fill="#2fa3d6" d="M170 493c-4.06 21.176-5.459 45.48-4 67-1.369.14-2.668.648-4 1-3.055.807-16.037 4.931-17 2.5l2-42c5.498-.661-.581 6.108 1.5 7.5 6.142-7.953 16.398-4.281 16.5-16.5-2.077-2.576-14.825 4.037-18 4.5-6.197-8.87 10.716-20.222 17.5-24 2.503-1.394 3.378-3.255 5.5 0"/><path fill="#237ba9" d="m636 543-4-48c4.501 16.963 6.022 30.361 4 48"/><path fill="#97afbb" d="M790 602c-1.978 17.659-5.975 32.223-11 49l-11-2c14.729-48.916 16.2-102.699 2-152 2.781 1.688 8.713.621 11-2 10.251 34.958 13.056 70.792 9 107"/><path fill="#77c6de" d="M671.5 496c5.835 6.787 2.438 18.736 4 27z"/><path fill="#fdfeff" d="M706.5 505c14.561.784 8.522 46.209 32.5 22.5-1.492 8.672-.974 21.459-12.5 20.5-13.573-1.13-20.761-30.479-35.5-35.5-.113-1.195 14.046-7.578 15.5-7.5"/><path fill="#a1ebf7" d="M162 561c.279 7.001-14.473 6.23-19 9-1.054-15.698-1.135-30.295 0-46 .171-2.359 2.078-3.765-2-4-.188-1.497-.067-3.448 0-5 .014-.332-.029-.67 0-1 6.433-2.097-.749 3.985 6 3 3.175-.463 15.923-7.076 18-4.5-.102 12.219-10.358 8.547-16.5 16.5-2.081-1.392 3.998-8.161-1.5-7.5l-2 42c.963 2.431 13.945-1.693 17-2.5"/><path fill="#0c516f" d="M141 515c-.067 1.552-.188 3.503 0 5 .161 1.283.604 3.495 2 4-1.135 15.705-1.054 30.302 0 46 .56 8.338 1.884 16.693 3 25 .392 2.916.538 6.124 1 9l-3 1c-4.673-27.704-8.171-63.066-5-91z"/><path fill="#c3f5fc" d="M857 565c.179-1.625-.159-3.37 0-5l19 4.5c.815-1.464-.005-30.418-1-33.5.371-5.345-.176-12.544-7-12.5h9l1 50c-1.424 3.37-17.536-3.054-21-3.5"/><path fill="#062741" d="M853 519c.279 13.661-1.732 29.667-1 42.5.082 1.43.958 7.967 3 8.5-1.973 15.02-4.972 32.438-8 46.5-3.895 18.089-9.621 36.289-15 54 1.051 3.057 17.167-.507 20-1.5 2.005-.703 4.015.017 6-2.5 1.863-2.363 8.729-24.969 10-29.5 3.225-2.235 1.366-13.445 6-13-1.537 6.917-10.499 43.26-14.5 46-9.43 6.458-46.086 8.141-56 15-2.66 1.841-13.705 20.729-16.5 25-4.393-4.754-5.595 7.97-6 8.5-.517.677-4.781 2.868-6 4.5 6.991-6.629 15.22-35.065 20-39.5 5.847-5.425 27.138-3.986 32-13 10.841-20.099 21.375-90.234 23-114.5.826-12.343 1.506-24.611 1-37z"/><path fill="#04b4d0" d="M143 524c-1.396-.505-1.839-2.717-2-4 4.078.235 2.171 1.641 2 4"/><path fill="#095f82" d="M458 802c4.049 14.837-13.845 11.466-11 24-126.339-31.312-212.061-159.115-196-288 5.312 4.399 5.586-1.609 9-4 2.477-1.735 26.893-16.114 28-13.5-28.689 60.599-3.744 132.526 33 184 32.734 45.857 81.987 83.035 137 97.5"/><path fill="#46bbf0" d="M608.5 520c20.001-3.139 25.297 16.087 14 19-17.728 4.571-31.548-16.246-14-19"/><path fill="#30bae8" d="M875 531c.995 3.082 1.815 32.036 1 33.5l-19-4.5c1.205-12.354 1.272-27.517 1-40 2.279 1.488 13.256 4.808 14.5 6 1.77 1.696-.592 3.349-.5 3.5 1.148 1.884 2.948 1.34 3 1.5"/><path fill="#0f84b8" d="M636 546c-10.823 73.965-85.826 119.564-157 102 .48-.843 5.974-1.077 6.5-1 16.772 2.45 29.513 4.779 47 2 14.796-2.351 29.181-9.435 42-16l-1.5-1.5c9.088-9.116 19.57-14.016 28-24 7.052-8.351 11.98-21.038 18-30 .897-1.336 6.754-3.681 7-4 3.241-4.21 5.284-20.628 7-26 .672-2.105.841-3.003 3-1.5"/><path fill="#fdfefe" d="M483 589c-20.872 2.654-32.238-25.081-17-34 21.659-12.678 43.744 30.599 17 34"/><path fill="#fcfefe" d="M678.5 553c15.822-1.399 2.629 22.591-1.5 16.5z"/><path fill="#d7e7ee" d="M850 556c-1.625 24.266-12.159 94.401-23 114.5-4.862 9.014-26.153 7.575-32 13-4.78 4.435-13.009 32.871-20 39.5-9.246 12.379-17.443 25.624-28 37 .122-.166.667-3.531 1-4 21.792-30.72 34.476-55.948 48-91 5.432-14.079 12.76-33.182 15-43-1.459 1.87-.527 3.024 2 3-4.272 17.453-12.784 33.959-17 51.5 1.012 3.185 23.707-3.375 27-6 9.96-29.124 20.915-58.958 20-90l2 1c-.142-7.067-.008-19.997 5-25.5"/><path fill="#16c3eb" d="M166 560c.211 3.115.609 6.889 1 10l-20 6.5c1.163 5.969 1.497 12.434 2 18.5h-3c-1.116-8.307-2.44-16.662-3-25 4.527-2.77 19.279-1.999 19-9 1.332-.352 2.631-.86 4-1"/><path fill="#f6fdfe" d="M691.5 560c4.839-1.483.806 8.417-1 7-1.398-1.097.073-6.716 1-7"/><path fill="#08344e" d="M172 567c.296 2.995 1.637 7.074 2 10l-3 2.5c-1.348-4.609-1.018-9.186-1-14z"/><path fill="#0f70a1" d="m869 614-17 55c-2.833.993-18.949 4.557-20 1.5 5.379-17.711 11.105-35.911 15-54 3.028-14.062 6.027-31.48 8-46.5.178-1.355.991-.93 1-1l19 5.5c1.375 2.004-5.608 33.867-6 39.5"/><path fill="url(#e)" d="M173 589c1.821 26.864 11.113 57.83 19 83.5-.375 2.374-26.677-3.441-28.5-5.5-2.101-2.373-7.178-24.372-8.5-29-.611-14.481-4.796-28.484-6-43-.503-6.066-.837-12.531-2-18.5l20-6.5c.791 6.296 1.405 14.424 6 19" style="fill:url(#e)"/>/&gt;<path fill="#051e34" d="M175 582c2.192 15.979 13.078 81.905 23 91.5 5.05 4.883 26.28 4.584 29 7.5l-9 3c-7.984-4.251-35.573-6.706-46.5-11-1.945-.764-9.461-4.279-10.5-5.5-5.137-6.038-15.294-52.384-17-62.5l3-1c1.851 11.528 4.817 22.86 8 34 1.322 4.628 6.399 26.627 8.5 29 1.823 2.059 28.125 7.874 28.5 5.5-7.887-25.67-17.179-56.636-19-83.5-.139-2.044-1.673-6.987 2-7"/><path fill="#43bbec" d="M450 586c9.539 4.431 19.257 15.726 32 16 .23.278-.179.374 1 1 1.818 12.861-5.322 21.219-17 25-.983.318-4.254 1.991-4.5 2-4.845.173-16.865-8.511-20.5-12.5-10.262-11.26-13.447-25.678 1.5-34.5 1.739 2.182 6.499 2.535 7.5 3m-8.5 2c-5.828 2.83 3.234 20.442 12 17 8.652-3.397-6.381-19.729-12-17"/><path fill="#fbfefe" d="M441.5 588c5.619-2.729 20.652 13.603 12 17-8.766 3.442-17.828-14.17-12-17"/><path fill="#1487b3" d="M149 595c1.204 14.516 5.389 28.519 6 43-3.183-11.14-6.149-22.472-8-34-.462-2.876-.608-6.084-1-9z"/><path fill="#c7dae3" d="M811 622c-2.24 9.818-9.568 28.921-15 43l-19-7c.803-2.43 1.289-4.626 2-7 5.025-16.777 9.022-31.341 11-49l23.5 2c-.862 5.602-1.264 12.584-2.5 18"/><path fill="#10819e" d="M764 610c-4.171 27.538-26.055 79.754-40 104.5-6.048 10.731-15.584 20.052-20 31.5-29.994 34.603-67.044 60.939-111 75-37.613 12.032-81.775 15.065-121 10l-3-26c127.416 25.566 257.809-68.699 277-196z"/><path fill="#0c8cb5" d="M869 614c-.172 2.467-3.581 4.51 3 4-1.305 6.153-2.316 12.995-4 19-1.271 4.531-8.137 27.137-10 29.5-1.985 2.517-3.995 1.797-6 2.5z"/><path fill="#5c7580" d="m248 717-2 1c-6.768-11.208-10.988-20.93-17-32-4.279-21.816-11.762-43.144-16-65l11-3c2.259 12.016 6.762 26.999 11 38.5 2.409 6.539 19.009 37.786 19 40-.021 4.997-11.564 7.096-12 8-.301.624 5.156 10.834 6 12.5"/><path fill="#76909d" d="M779 651c-.711 2.374-1.197 4.57-2 7-9.284 28.087-26.792 62.941-44 87-27.16 37.974-68.835 72.357-113.5 87 1.457 2.702 3.131 11.715 4.5 13.5 3.034 3.958 4.119-2.949 6 1.5-29.353 12.155-76.434 25.805-108 24-27.229-1.557-9.357-7.662-15.5-15-1.346-1.608-35.078-4.64-41.5-6-59.25-12.546-118.887-42.104-160-87l5-7c5.644 6.184 11.858 11.379 18 17 26.628 24.365 53.17 41.736 87 55 63.825 25.025 111.94 25.12 177 4 56.527-18.35 101.661-49.633 135-99 17.14-25.38 32.152-54.615 41-84z"/><path fill="#b1c5ce" d="M796 665c-13.524 35.052-26.208 60.28-48 91-.549-6.525-11.165-6.813-15-11 17.208-24.059 34.716-58.913 44-87z"/><path fill="#99bdd0" d="M268 680c4.355 4.01 20.588 37.439 27 46.5 7.411 10.472 18.989 24.405 28 33.5.702 5.916 10.314 7.185 5 13-6.142-5.621-12.356-10.816-18-17-2.665-2.92-5.474-5.97-8-9-16.391-19.661-29.676-41.574-40-65 .423-3.969 3.209-4.57 6-2"/><path fill="#09425d" d="M229 686c6.012 11.07 10.232 20.792 17 32 2.367 3.92 4.46 8.167 7 12-3.462.574-1.188 3.242-5 0-4.615-6.724-26.83-44.312-30-46l9-3c.184.197 1.331 3.767 2 5"/><path fill="#cae7ec" d="M581 721c-2.501-5.14-10.241-17.244-17-11-.007-.152-2.274-1.114-.5-3 11.248-1.67 15.419 4.512 19.5 13.5-.119.869-1.848.339-2 .5"/><path fill="#e0f0f3" d="M454 711c-6.217-.177-12.305 5.005-14 11h-1c-2.53-10.831 2.55-15.549 13.5-14 .708.1 3.332 1.413 1.5 3"/><path fill="#0f121a" d="M581 721c-.19.201.421 1.579-.5 2-1.441.781-2.946-1.144-3.5-1l-4.5-5c-10.921 28.587-29.615 71.019-67 67-23.998-2.58-54.566-41.422-57-65l-6 6-2.5-3c1.695-5.995 7.783-11.177 14-11 12.946.368.006 6.736 0 7.5 30.738 24.143 73.773 24.516 104-.5 1.922-1.139 6.688-3.591 7-6 .111-.856-.954-.99-1-2 6.759-6.244 14.499 5.86 17 11m-86 39c-6.286.88-10.557 2.3-16 5.5 12.698 17.132 47.748 23.474 60 3.5 5.949-9.698-18.063-8.592-23.5-9-5.397-.405-14.251-.875-20.5 0"/><path fill="#064560" d="M787 710c-34.375 52.525-61.878 90.508-118 123-5.69 3.294-12.079 6.092-18 9-18.003 8.843-35.712 15.482-55 21-28.137 8.049-52.445 12.672-82 13v-4c2.706-.046 5.539.593 8-1 31.566 1.805 78.647-11.845 108-24 41.908-17.355 89.917-50.208 117-87 10.557-11.376 18.754-24.621 28-37 1.219-1.632 5.483-3.823 6-4.5.405-.53 1.607-13.254 6-8.5"/><path fill="#6fd5f9" d="M565 712c-.312 2.409-5.078 4.861-7 6-23.506 13.93-40.165 17.25-65.5 12-3.324-.689-8.331-.245-14-2 5.31-.186-9.935-3.859-2-5 .517-.074 8.421 2.873 10 3 29.822 2.399 50.007-8.619 78.5-14"/><path fill="#6e94a2" d="M285 770c-11.581-12.738-22.476-25.629-32-40-2.54-3.833-4.633-8.08-7-12l2-1c9.829 19.418 24.755 35.288 37 53"/><path fill="#41caf1" d="M577 722c-.891.232-2.185.554-3 1-3.554 1.943.012.185-1 2.5-2.196 5.023-4.642 11.839-7 18-.621 1.623-2.251 3.779 1 3.5-6.295 12.483-14.992 23.345-26 32-18.171 12.794-40.111 11.432-59 1-16.225-11.356-38.465-38.586-43-58h1l2.5 3 6-6c2.434 23.578 33.002 62.42 57 65 37.385 4.019 56.079-38.413 67-67z"/><path fill="#a7eafd" d="M574 723c2.337 9.678-3.062 16.19-7 24-3.251.279-1.621-1.877-1-3.5 2.358-6.161 4.804-12.977 7-18 1.012-2.315-2.554-.557 1-2.5"/><path fill="#042339" d="M253 730c9.524 14.371 20.419 27.262 32 40 47.471 52.214 108.467 87.185 179 98 15.279 2.343 34.604 4.259 50 4v4c-29.527.328-51.717-7.468-78-9-22.922-6.765-45.607-14.282-67-25-5.347-2.679-10.817-5.974-16-9-45.984-26.847-75.254-59.658-105-103 3.812 3.242 1.538.574 5 0"/><path fill="#bfd6e0" d="M592 832c-1.331-7.551 12.562-4.384 12-10 10.616-3.708 18-7.035 28-12 37.075-18.409 69.021-44.824 95-77-33.339 49.367-78.473 80.65-135 99"/><path fill="#97afbb" d="M748 756c-.333.469-.878 3.834-1 4-27.083 36.792-75.092 69.645-117 87-1.881-4.449-2.966 2.458-6-1.5-1.369-1.785-3.043-10.798-4.5-13.5 44.665-14.643 86.34-49.026 113.5-87 3.835 4.187 14.451 4.475 15 11"/><path fill="#5c7580" d="M302 747c2.526 3.03 5.335 6.08 8 9l-5 7c-5.071-5.537-17.169-11.407-3-16"/><path fill="#c8648b" d="M539 769c-9.076-3.753-19.093-2.233-28.5-2l-15.5-7c6.249-.875 15.103-.405 20.5 0 5.437.408 29.449-.698 23.5 9"/><path fill="#bbd2df" d="m423 823-1.5 6-6.5-1c-33.83-13.264-60.372-30.635-87-55 5.314-5.815-4.298-7.084-5-13 27.075 27.325 63.648 50.553 100 63"/><path fill="#f2a8b9" d="m495 760 15.5 7c9.407-.233 19.424-1.753 28.5 2-12.252 19.974-47.302 13.632-60-3.5 5.443-3.2 9.714-4.62 16-5.5"/><path fill="#0c2c4f" d="M541 779c-19.266 15.148-39.217 14.845-59 1 18.889 10.432 40.829 11.794 59-1"/><path fill="#097090" d="m469 805 3 26c-8.175-1.056-16.989-3.015-25-5-2.845-12.534 15.049-9.163 11-24 3.552.934 7.461 2.29 11 3"/><path fill="#dae8ef" d="M592 832c-65.06 21.12-113.175 21.025-177-4l6.5 1 1.5-6c62.527 21.409 118.837 20.714 181-1 .562 5.616-13.331 2.449-12 10"/><path fill="#5c7580" d="M522 871c-2.461 1.593-5.294.954-8 1-15.396.259-34.721-1.657-50-4l1-18c6.422 1.36 40.154 4.392 41.5 6 6.143 7.338-11.729 13.443 15.5 15"/><path fill="#597483" d="M436 867c26.283 1.532 48.473 9.328 78 9 29.555-.328 53.863-4.951 82-13l63.5 7c69.542 15.418 19.698 27.192-15 32-70.421 9.758-178.55 11.656-248-2-75.362-14.819 13.413-34.52 39.5-33"/></svg>