<svg xmlns="http://www.w3.org/2000/svg" width="1024" height="1024"><defs><linearGradient id="a" x1="686.585" x2="196.005" y1="202.002" y2="317.531" gradientUnits="userSpaceOnUse"><stop offset="0%" style="stop-color:#ceebf4"/><stop offset="36.905%" style="stop-color:#67b2cb"/><stop offset="100%" style="stop-color:#156391"/></linearGradient></defs><defs><linearGradient id="b" x1="700.843" x2="364.967" y1="297.208" y2="653.981" gradientUnits="userSpaceOnUse"><stop offset="0%" style="stop-color:#e6f1f6"/><stop offset="100%" style="stop-color:#aac5d3"/></linearGradient></defs><defs><linearGradient id="c" x1="653.201" x2="670.784" y1="386.632" y2="519.473" gradientUnits="userSpaceOnUse"><stop offset="0%" style="stop-color:#01375d"/><stop offset="100%" style="stop-color:#0cbde4"/></linearGradient></defs><defs><linearGradient id="d" x1="634.674" x2="698.342" y1="436.643" y2="509.824" gradientUnits="userSpaceOnUse"><stop offset="0%" style="stop-color:#12324f"/><stop offset="100%" style="stop-color:#1d67a3"/></linearGradient></defs><defs><linearGradient id="e" x1="375.631" x2="323.668" y1="418.935" y2="521.526" gradientUnits="userSpaceOnUse"><stop offset="0%" style="stop-color:#132e4c"/><stop offset="100%" style="stop-color:#1d73b4"/></linearGradient></defs><defs><linearGradient id="f" x1="894.159" x2="193.736" y1="535.506" y2="748.182" gradientUnits="userSpaceOnUse"><stop offset="19.809%" style="stop-color:#6cb8cf"/><stop offset="55.191%" style="stop-color:#3f97b6"/><stop offset="100%" style="stop-color:#205c7d"/></linearGradient></defs><defs><linearGradient id="g" x1="801.932" x2="210.957" y1="655.44" y2="818.284" gradientUnits="userSpaceOnUse"><stop offset="0%" style="stop-color:#168ca9"/><stop offset="60.522%" style="stop-color:#1c5875"/><stop offset="100%" style="stop-color:#123352"/></linearGradient></defs><path fill="#03476f" d="M870 330c-4.708 2.546-1.384 2.406-2 3-35.4 8.827-71.691 25.398-108 11 .064-.029-.155-1.177 1-1 19.093 4.019 30.814 7.297 51 3 1.326-.282 6.936-1.234 7-2.5-41.271-47.486-97.796-80.68-158-98.5-24.439-7.234-45.204-12.761-71-13-7.054-4.422-19.534-5.268-28.5-6-42.919-3.503-93.127.378-135.5 8-73.091 13.147-160.443 50.391-212 105-.781.827-6.962 4.501-5.5 6 4.33-.783 8.825.778 13.5 1l-1 2c-13.03-1.592-25.759-3.933-38.5-7-6.353-1.529-33.845-12.229-37-12-2.741.199-3.001 2.137-1.5 4-2.731-1.802-5.198-.561-9-5.5-.178-.232-.12-2.382-2-5.5-23.91-39.658-22.748-101.489-21-146.5-30.188-4.735-42.187-46.725-14.5-62.5 33.775-19.244 68.128 20.185 42.5 51.5-1.507 1.841-9.762 6.438-10 7-1.321 3.12 7.187 32.064 9 37 11.793 32.112 36.042 63.581 69 75.5-9.472 9.588-18.639 19.447-27 30l-3-1c4.845-2.615 6.445-9.881 9-14 1.3-2.096 9.238-12.034 9-13.5-25.761-15.665-50.194-45.263-61-73.5-4.345-11.353-6.997-25.436-9-37.5-.767-1.606-4.865-.756-6-.5-1.602.361-3.95-.754-5 1.5-1.035 2.221-.269 43.082 0 49 .867 19.082 8.486 80.208 21.5 93.5 4.084 4.171 24.225 11.434 30.5 14 .155.063-.275 2.313 1.5 3 8.637-.077 27.57 10.193 35 8 1.697-.501 21.916-20.774 26-24C378.885 201.029 624.109 181.482 780 298c6.125 4.578 12.717 9.963 18.5 15 4.65 4.05 26.055 28.47 28 29 3.539.964 5.605-1.694 7.5-2 2.388-.385 3.15.164 6-1 2.132-.871 6.044-.738 6-3.5-7.886-11.761-17.422-22.317-26-33.5-8.206-10.699-16.027-21.916-25-32 30.232 1.491 60.698-40.395 71-65.5 2.388-5.819 13.146-42.111 12-46-.261-.884-11.602-8.384-14-12-20.978-31.63 14.986-67.082 46.5-46.5 25.125 16.409 14.408 55.447-14.5 60.5 3.302 44.676 3.659 94.233-11 137-3.88 11.32-10.539 21.522-15 32.5m-7-201c.987 9.794 10.344 22.345 20 25 34.629 9.522 51.734-38.657 22-54-5.326-2.748-10.924-4.356-17-4-16.913.99-26.584 17.271-25 33m-756-18c-37.109 8.96-19.027 74.314 20 55 11.052-5.469 14.95-11.865 16-23 2.102-22.284-13.358-37.467-36-32m767 87c-9.982 27.996-34.484 57.971-59 74.5 1.367 2.111 2.665 4.404 4 6.5-4.375-.735-8.853-11.073-13.5-6-1.95 2.129 29.192 34.902 32.5 39.5 1.972 2.74 9.873 20.175 11.5 20.5 30.44-12.868 39.673-60.726 42.5-90.5.858-9.042 2.631-77.293 1-81-.999-2.269-4.238-1.319-6-1.5-1.985-.204-3.616-2.096-5 .5-2.498 4.686-4.949 28.944-8 37.5"/><path fill="#beedf9" d="m888 96-2 5c-15.04 3.01-24.316 25.671-10.5 20 2.496-1.024 17.318-14.453 17.5-17 1.155 1.102 3.185.359 3.5 2 2.805 14.628-20.641 38.557-33.5 23-1.584-15.729 8.087-32.01 25-33"/><path fill="#5ba8c1" d="M905 100c-.259 6.152 7.871 10.205 9 16.5 3.363 18.752-13.596 34.13-31.5 32.5l.5 5c-9.656-2.655-19.013-15.206-20-25 12.859 15.557 36.305-8.372 33.5-23-.315-1.641-2.345-.898-3.5-2 .427-5.991-3.637-3.673-7-3l2-5c6.076-.356 11.674 1.252 17 4"/><path fill="#f9fdfe" d="M893 104c-.182 2.547-15.004 15.976-17.5 17-13.816 5.671-4.54-16.99 10.5-20 3.363-.673 7.427-2.991 7 3"/><path fill="#237296" d="m883 154-.5-5c17.904 1.63 34.863-13.748 31.5-32.5-1.129-6.295-9.259-10.348-9-16.5 29.734 15.343 12.629 63.522-22 54"/><path fill="#b2e9f8" d="M143 143c-5.579 9.818-15.294 5.552-22.5 0-8.218-6.332-10.738-18.999-13.5-29-.224-.812.133-2.057 0-3 22.642-5.467 38.102 9.716 36 32m-26.5-29c-.387.102-1.719 1.4-2.5 1.5-2.198 4.537 21.343 26.812 24 19 3.551-8.572-16.064-21.93-21.5-20.5"/><path fill="#237195" d="M107 114c-24.12 12.996-16.436 43.16 8.5 49 3.282.769 11.194-2.285 11.5 3-39.027 19.314-57.109-46.04-20-55 .133.943-.224 2.188 0 3"/><path fill="#5aa5bf" d="M143 143c-1.05 11.135-4.948 17.531-16 23-.306-5.285-8.218-2.231-11.5-3-24.936-5.84-32.62-36.004-8.5-49 2.762 10.001 5.282 22.668 13.5 29 7.206 5.552 16.921 9.818 22.5 0"/><path fill="#f9fdfe" d="M116.5 114c5.436-1.43 25.051 11.928 21.5 20.5-2.657 7.812-26.198-14.463-24-19 .781-.1 2.113-1.398 2.5-1.5"/><path fill="url(#a)" d="M795 270c8.973 10.084 16.794 21.301 25 32-4.421 2.308-4.594-3.522-9-4-69.477-80.113-155.459-130.207-262-143-27.687-3.324-54.226-3.389-82-1.5l84 10.5c13.944 6.593 49.291 11.01 67.5 17 79.926 26.291 143.597 74.79 201 135l3.5-4c6.543 8.526 12.771 17.012 17 27-2.85 1.164-3.612.615-6 1-15.158-17.557-33.419-31.864-52-45.5l-2 3.5c-155.891-116.518-401.115-96.971-550.5 21-4.084 3.226-24.303 23.499-26 24-7.43 2.193-26.363-8.077-35-8-1.775-.687-1.345-2.937-1.5-3 5.936-4.901 9.333-12.109 14-18 8.361-10.553 17.528-20.412 27-30 32.268-32.666 71.345-65.918 112.5-89 151.939-85.214 358.144-55.755 474.5 75" style="fill:url(#a)"/>/&gt;<path fill="#bdeaf4" d="M549 155c-5.46 5.14-3.289 6.499 2 9l-84-10.5c27.774-1.889 54.313-1.824 82 1.5"/><path fill="#f8fcfd" d="M811 298c4.072 4.695 8.193 9.039 12 14l-3.5 4c-57.403-60.21-121.074-108.709-201-135-18.209-5.99-53.556-10.407-67.5-17-5.289-2.501-7.46-3.86-2-9 106.541 12.793 192.523 62.887 262 143"/><path fill="#59a4bf" d="M887 160c5.811 41.347-.846 95.718-28 129-11.175 14.269-35.609 7.944-32-11.5 1.471-7.925 31.567-38.785 38-51 4.261-8.09 8.799-19.446 9-28.5 3.051-8.556 5.502-32.814 8-37.5 1.384-2.596 3.015-.704 5-.5"/><path fill="#2b5971" d="M819 279c3.224 5.063 16.697 22.368 22.5 23 7.809.85 13.236-7.774 17.5-13 27.154-33.282 33.811-87.653 28-129 1.762.181 5.001-.769 6 1.5 1.631 3.707-.142 71.958-1 81-2.827 29.774-12.06 77.632-42.5 90.5-1.627-.325-9.528-17.76-11.5-20.5-3.308-4.598-34.45-37.371-32.5-39.5 4.647-5.073 9.125 5.265 13.5 6"/><path fill="#58a0bb" d="M135 212c1.458 18.31 12.975 34.522 24 48.5 7.35 9.318 29.408 26.175 27 38.5-2.845 14.561-21.923 13.476-31 6-18.761-18.42-28.692-50.398-34-75.5l-1-55.5c1.135-.256 5.233-1.106 6 .5 2.003 12.064 4.655 26.147 9 37.5"/><path fill="#2e5970" d="m120 174 1 55.5c5.308 25.102 15.239 57.08 34 75.5 6.961 6.834 12.399 13.722 23 8l3 1c-4.667 5.891-8.064 13.099-14 18-6.275-2.566-26.416-9.829-30.5-14-13.014-13.292-20.633-74.418-21.5-93.5-.269-5.918-1.035-46.779 0-49 1.05-2.254 3.398-1.139 5-1.5"/><path fill="#f8fbfc" d="M859 289c-4.264 5.226-9.691 13.85-17.5 13-5.803-.632-19.276-17.937-22.5-23-1.335-2.096-2.633-4.389-4-6.5 24.516-16.529 49.018-46.504 59-74.5-.201 9.054-4.739 20.41-9 28.5-6.433 12.215-36.529 43.075-38 51-3.609 19.444 20.825 25.769 32 11.5"/><path fill="#f3fafb" d="M187 299h-1c2.408-12.325-19.65-29.182-27-38.5-11.025-13.978-22.542-30.19-24-48.5 10.806 28.237 35.239 57.835 61 73.5.238 1.466-7.7 11.404-9 13.5"/><path fill="#516a72" d="M590 232c-19.195-.178-39.823 2.331-59 4-34.277 2.984-64.563 6.854-98 15-7.734-.545-5.158-10.555-7-17 42.373-7.622 92.581-11.503 135.5-8 8.966.732 21.446 1.578 28.5 6"/><path fill="#d6e9f0" d="M590 232c25.796.239 46.561 5.766 71 13-1.916 3.156-4.734 6.215-1 9l-129-18c19.177-1.669 39.805-4.178 59-4"/><path fill="#6b8891" d="M433 251c-63.33 15.429-126.957 43.319-178 84-2.756 1.607-11.751 8.82-12.5 9-7.788 1.87-20.353-5.258-28.5-5 51.557-54.609 138.909-91.853 212-105 1.842 6.445-.734 16.455 7 17"/><path fill="url(#b)" d="m531 236 129 18c4.403 3.283 28.264 11.335 36.5 16 21.939 12.428 54.938 39.81 70.5 59.5 2.393 3.028 6.712 13.998 7.5 14.5 6.218 3.961 32.204-7.671 37.5 2-20.186 4.297-31.907 1.019-51-3-2.892-.609-7.154-3.236-11-4-21.599-8.076-43.762-12.377-67-12l-3.5-3c28.948-2.62 56.041 8.181 83 17-9.77-10.862-25.244-19.178-38.5-25 1.012-3.711.96-2.033-1.5-4-13.554-10.84-36.405-18.981-53.5-17-4.612-4.878-9.173-3.096-15.5-2-33.167 5.743-78.083 45.134-96.5 72.5-13.548 20.132-24.343 43.54-22 68.5-2.888 22.84.118 37.066 8 58 2.296 6.098 8.836 20.279 12 26 33.948 61.375 104.824 85.814 170 60 26.852-10.635 44.902-25.946 58-52 2.85.5 2.774-.543 4-2.5 10.114-16.143 13.724-36.214 18-54.5 19.489 9.145 41.265 14.818 63 11-13.871 68.071-54.35 108.76-114 142l-45.5 19c-116.104 21.307-227.101 31.119-343 3-40.783-9.895-90.869-32.903-120-63 50.009 46.168 153.407 34.619 195.5-16.5 17.421-21.156 12.446-27.619 17-50.5.509-2.557 3.955-7.051 5-10 24.665-69.63 11.227-129.679-53-170-3.5-2.197-5.588-3.15-9-5-1.474-.799-3.502-2.797-6-4-58.635-28.225-87.004-20.908-140 10 51.043-40.681 114.67-68.571 178-84 33.437-8.146 63.723-12.016 98-15m242.5 334c-27.396 24.338-58.992 36.406-95.5 39.5 23.415-1.147 54.094-2.546 73.5-16.5zm-3 9c-17.251 25.043-43.876 27.727-70.5 36.5 20.11 6.508 60.225-13.857 70-31 .745-1.307 2.636-4.354.5-5.5" style="fill:url(#b)"/>/&gt;<path fill="#9bcdde" d="M812 346c-5.296-9.671-31.282 1.961-37.5-2-.788-.502-5.107-11.472-7.5-14.5-15.562-19.69-48.561-47.072-70.5-59.5-8.236-4.665-32.097-12.717-36.5-16-3.734-2.785-.916-5.844 1-9 60.204 17.82 116.729 51.014 158 98.5-.064 1.266-5.674 2.218-7 2.5"/><path fill="#f9fbfc" d="M669 295c-41.436 4.802-89.961 43.228-112 77.5-.733 1.14-3.971 5.378-2 6.5-8.617 14.054-17.936 38.673-20 55-2.343-24.96 8.452-48.368 22-68.5 18.417-27.366 63.333-66.757 96.5-72.5 6.327-1.096 10.888-2.878 15.5 2"/><path fill="#ccdce3" d="M724 316c-46.707-20.514-81.16-11.719-122 16-17.497 11.875-35.779 28.698-47 47-1.971-1.122 1.267-5.36 2-6.5 22.039-34.272 70.564-72.698 112-77.5 17.095-1.981 39.946 6.16 53.5 17 2.46 1.967 2.512.289 1.5 4"/><path fill="#5bb8d2" d="M834 340c-1.895.306-3.961 2.964-7.5 2-1.945-.53-23.35-24.95-28-29-5.783-5.037-12.375-10.422-18.5-15l2-3.5c18.581 13.636 36.842 27.943 52 45.5"/><path fill="#59abc5" d="M820 302c8.578 11.183 18.114 21.739 26 33.5.044 2.762-3.868 2.629-6 3.5-4.229-9.988-10.457-18.474-17-27-3.807-4.961-7.928-9.305-12-14 4.406.478 4.579 6.308 9 4"/><path fill="#cae2ea" d="M187 299c-2.555 4.119-4.155 11.385-9 14-10.601 5.722-16.039-1.166-23-8 9.077 7.476 28.155 8.561 31-6z"/><path fill="#8cafbd" d="M724 316c13.256 5.822 28.73 14.138 38.5 25-26.959-8.819-54.052-19.62-83-17l3.5 3c-28.675.465-50.182 7.923-74 24 3.894-6.388-3.694-13.117-7-19 40.84-27.719 75.293-36.514 122-16"/><path fill="#84a9b7" d="M395 325c-1.445 7.641-10.165 14.503-4 21-20.205-10.765-39.946-15.544-63-16-11.048-3.916-28.538-1.07-40.5 1-12.852 2.224-25.939 8.674-38 9l1.5 3c-10.884 1.586-17.211 3.559-29 3-4.675-.222-9.17-1.783-13.5-1-1.462-1.499 4.719-5.173 5.5-6 8.147-.258 20.712 6.87 28.5 5 .749-.18 9.744-7.393 12.5-9 52.996-30.908 81.365-38.225 140-10"/><path fill="#002339" d="M133 322c1.88 3.118 1.822 5.268 2 5.5 3.802 4.939 6.269 3.698 9 5.5 1.009.666 1.92 1.366 3 2-.568 3.371 2.174 6.196 4 8.5 19.207 24.234 48.21 40.173 78 47-25.142 13.322-53.205 11.455-79 1 7.044-.998 15.371 2.405 22 2.5 9.061.13 18.012-1.305 25-7.5-6.894-3.324-14.592-6.329-21-10.5-3.1-2.018-8.04-5.675-11-8-2.106-1.654-5.898-5.075-8-7-4.842-4.435-31.336-33.494-29-38.5z"/><path fill="#718b96" d="m401 329-9 17c-.257-.141-.741.138-1 0-6.165-6.497 2.555-13.359 4-21 2.498 1.203 4.526 3.201 6 4"/><path fill="#012035" d="M683 327c23.238-.377 45.401 3.924 67 12-18.812-3.739-39.178-6.727-59.5-5-57.54 4.891-122.786 47.082-139 104 11.82-25.429 33.806-47.497 59.5-59l4 10c-.649.41-5.157 3.238-5 3.5l11 2.5c-15.875-1.366-28.927 6.614-39 18-4.241 4.794-15.742 22.678-17 29-1.976.538-2.736 1.54-4 3-11.15 12.876-14.204 26.372-12 43l-2.5 6c-.114-1.41-1.235-2.444-1.5-3-15.52-32.508 7.346-83.417 29-108.5 7.086-8.208 32.066-26.688 35-31.5 23.818-16.077 45.325-23.535 74-24"/><path fill="#cadee3" d="M328 330c-23.002-.455-47.184 4.255-69 11-2.67.383-5.33 1.611-8 2l-1.5-3c12.061-.326 25.148-6.776 38-9 11.962-2.07 29.452-4.916 40.5-1"/><path fill="#01243a" d="M859 356c-3.75 4.158-9.626 9.39-14 13-1.811 1.495-4.263 3.747-6 5-6.903 4.981-14.713 8.649-22 13-.462.276-4.17-.667-3.5 2 10.914 3.714 24.857 6.635 35.5 1 3.962.211 4.541.616 9 0 3.78-.523 10.989-2.82 15-4 7.651-2.25 14.784-5.702 22-9v1c-8.498 4.948-18.06 9.259-27.5 12-8.574 2.489-20.473 2.854-27 6 4.956.46 9.654-.291 14.5-1 1.971 1.929-1.361 2.672-2.5 3-23.788 6.85-49.945 6.822-71.5-6.5 21.398-6.021 37.978-10.225 55.5-24.5 10.004-8.15 17.075-18.971 25.5-28 1.592-1.706 4.275-4.337 6-6 .616-.594-2.708-.454 2-3 1.475-.798 4.719-1.041 6.5-2 3.506 1.989-15.042 25.275-17.5 28"/><path fill="#0e88ac" d="M221 348c1.496.183 8.773-1.417 7.5 2-3.851 1.73-14.933-3.271-16 1 8.69 1.192 18.526 4.297 26 9-31.309-3.78-63.962-8.83-91.5-25-1.08-.634-1.991-1.334-3-2-1.501-1.863-1.241-3.801 1.5-4 3.155-.229 30.647 10.471 37 12 12.741 3.067 25.47 5.408 38.5 7"/><path fill="#84a9b7" d="M410 334c-4.64 3.458-9.197 11.317-10 17-2.197-1.426-5.868-3.833-8-5l9-17c3.412 1.85 5.5 2.803 9 5"/><path fill="#002339" d="M328 330c23.054.456 42.795 5.235 63 16 .259.138.743-.141 1 0 2.132 1.167 5.803 3.574 8 5 50.693 32.899 81.458 92.652 63 153-1.045 2.949-4.491 7.443-5 10-2.072 1.152-3.737 3.023-5 5l1-13c7.454-22.342 12.575-48.262-12-61.5 3.873 17.396 3.572 31.231 0 48.5-.577 2.788-1.18 6.342-2 9l-2-2c4.482-13.863 5.134-28.529 3-43-.485-3.289-1.98-8.729-3-12l7-4.5c-25.405-40.754-62.265-69.138-112-70.5-20.607-.564-31.507 2.31-50 10-39.379 16.375-29.624 29.657-54 50-1.407 1.174-10.435 7.196-12 8-12.583 6.467-28.868 10.172-43 10-3.621-.044-12.795-1.437-17-2-3.902-.523-7.906-2.399-12-2 .781-3.899.076-.253 2-2 5.77.063 11.906 2.553 17.5 3 66.164 5.284 55.838-41.14 98-67 69.017-42.331 164.393-8.903 196 64-12.527-56.512-76.858-99.925-132-106-24.521-2.701-43.91 1.619-67.5 5 21.816-6.745 45.998-11.455 69-11"/><path fill="#7d9aa5" d="M602 332c3.306 5.883 10.894 12.612 7 19-2.934 4.812-27.914 23.292-35 31.5-21.654 25.083-44.52 75.992-29 108.5l-2 1c-7.882-20.934-10.888-35.16-8-58 2.064-16.327 11.383-40.946 20-55 11.221-18.302 29.503-35.125 47-47"/><path fill="#0f85a9" d="M868 333c-1.725 1.663-4.408 4.294-6 6-28.073 13.541-59.573 22.154-91 20.5l25.5-8.5c-13.204.748-26.456-1.681-38.5-6.5.447-.922 1.556-.297 2-.5 36.309 14.398 72.6-2.173 108-11"/><path fill="#718b96" d="M410 334c64.227 40.321 77.665 100.37 53 170 18.458-60.348-12.307-120.101-63-153 .803-5.683 5.36-13.542 10-17"/><path fill="#124157" d="M750 339c3.846.764 8.108 3.391 11 4-1.155-.177-.936.971-1 1-.444.203-1.553-.422-2 .5 12.044 4.819 25.296 7.248 38.5 6.5l-25.5 8.5c31.427 1.654 62.927-6.959 91-20.5-8.425 9.029-15.496 19.85-25.5 28-17.522 14.275-34.102 18.479-55.5 24.5 21.555 13.322 47.712 13.35 71.5 6.5 1.139-.328 4.471-1.071 2.5-3 14.492-2.119 27.503-8.869 40.5-15l-.5-2v-1c6.666-3.047 12.661-6.394 19-10 1.789 2.567.883 2.164-.5 4-25.075 33.281-84.967 52.265-124.5 39.5 23.416 23.468 52.984 30.123 85.5 28.5-34.469 9.896-64.244 14.339-89.5-15.5-6.259-7.394-10.95-18.467-17-26-26.008-32.384-69.835-45.292-110.5-40.5-7.061.832-33.627 4.139-26.5 15-6.649 1.595-13.759 4.206-20 7-25.694 11.503-47.68 33.571-59.5 59 16.214-56.918 81.46-99.109 139-104 20.322-1.727 40.688 1.261 59.5 5m-529 9 1-2c11.789.559 18.116-1.414 29-3 2.67-.389 5.33-1.617 8-2 23.59-3.381 42.979-7.701 67.5-5 55.142 6.075 119.473 49.488 132 106-31.607-72.903-126.983-106.331-196-64-42.162 25.86-31.836 72.284-98 67-5.594-.447-11.73-2.937-17.5-3 .177-.161-.11-2.194 0-3 28.854-.945 51.585-10.434 73-29.5-38.75 7.894-79.172-3.338-108.5-29.5-3.175-2.832-13.96-11.39-10.5-15 6.339 3.635 12.289 7.008 19 10 10.123 8.987 28.039 13.377 41.5 16 2.435.474 4.027-1.074 4.5-1 .632.099 1.38-.124 2 0 .277.055 4.048 3.213 4 4-6.629-.095-14.956-3.498-22-2.5 25.795 10.455 53.858 12.322 79-1-29.79-6.827-58.793-22.766-78-47-1.826-2.304-4.568-5.129-4-8.5 27.538 16.17 60.191 21.22 91.5 25-7.474-4.703-17.31-7.808-26-9 1.067-4.271 12.149.73 16-1 1.273-3.417-6.004-1.817-7.5-2"/><path fill="#002136" d="M914 367c1.153-.656 6.091-4.975 6.5-5 2.087-.379.9 1.673.5 2.5-4.602 9.517-32.229 30.883-42 36.5-2.21 1.271-4.771 2.887-7 4-2.365 1.181-8.204 4.28-10 5-.84.337-2.617.151-5 1-13.474 4.801-26.969 8.68-41.5 9 1.96 4.143 8.582 8.202 12.5 10 11.558 5.303 24.48 6.507 37 7 1.276.05 1.849.008 3 0 4.265-.029 7.865-.62 12-1 3.385-.311 6.65.474 10-1 .236.89.774 1.112 1 2-3.541-.299-7.072 2.172-10 3-3.349.947-6.945 1.22-10 2-2.099.536-3.782 1.952-4 2-10.024 2.203-20.685 3.821-31 4-15.431.267-30.176-1.81-44-9-3.191-1.659-6.742-6.079-11-6-12.807-25.31-34.991-46.287-61-57-15.639-6.442-29.2-10.885-47-8-12.486-1.57-29.711 1.053-42 4-7.127-10.861 19.439-14.168 26.5-15 40.665-4.792 84.492 8.116 110.5 40.5 6.05 7.533 10.741 18.606 17 26 25.256 29.839 55.031 25.396 89.5 15.5-32.516 1.623-62.084-5.032-85.5-28.5 39.533 12.765 99.425-6.219 124.5-39.5 1.383-1.836 2.289-1.433.5-4"/><path fill="#51a8c3" d="M873 386c-4.011 1.18-11.22 3.477-15 4l-13-21c4.374-3.61 10.25-8.842 14-13z"/><path fill="#012237" d="M101 365c-3.46 3.61 7.325 12.168 10.5 15 29.328 26.162 69.75 37.394 108.5 29.5-21.415 19.066-44.146 28.555-73 29.5-3.176.104-6.208-.912-9-1 1.316-.076 2.692.117 4 0 1.461-.131 2.917-.853 4-1 5.051-.685 11.138-.851 16-2 6.499-1.536 14.018-4.006 20-7 5.054-2.529 9.331-5.059 13-9.5-6.051-1.146-12.019-1.992-18-3.5-3.22-.812-8.173-1.134-11-2-2.369-.726-7.053-2.909-10-4-.902-.334-2.808-1.507-4-2-4.482-1.855-9.764-3.742-14-6-19.47-10.379-35.684-25.976-50-42.5-.434-3.209 11.794 5.808 13 6.5"/><path fill="#4896b4" d="m165 368-10 19c-3.668-.975-7.374-1.875-11-3l13-23c2.102 1.925 5.894 5.346 8 7"/><path fill="#355c69" d="M720 376c4.867 4.361 29.616 19.429 31 24.5 1.722 6.309-3.88 10.848-4 16.5-1.828-2.543-5.976-5.726-8-8-9.464-10.629-19.543-20.453-33-26-9.173-5.318-22.561-13.687-33-15 17.8-2.885 31.361 1.558 47 8"/><path fill="#0a5a84" d="m176 376-8 14c-.62-.124-1.368.099-2 0-3.715-.776-7.369-2.035-11-3l10-19c2.96 2.325 7.9 5.982 11 8"/><path fill="#1b0f1f" d="M673 368c10.439 1.313 23.827 9.682 33 15-26.443-10.9-66.452-9.513-91 6l-4-10c6.241-2.794 13.351-5.405 20-7 12.289-2.947 29.514-5.57 42-4"/><path fill="#2f5b6a" d="m333 370-33 15c-10.858 4.489-20.037 12.609-31 17-.091-1.347-4.055-8.034-4-8.5.329-2.779 16.502-9.981 18-13.5 18.493-7.69 29.393-10.564 50-10"/><path fill="#436a75" d="M858 390c-4.459.616-5.038.211-9 0-1.298-.069-1.72-1.968-3-2l-7-14c1.737-1.253 4.189-3.505 6-5z"/><path fill="#1d0e1e" d="M438 445c-16.61-53.281-88.374-80.52-138-60l33-15c49.735 1.362 86.595 29.746 112 70.5z"/><path fill="#9cb1b8" d="M846 388c-10.197-.253-19.037 1.243-29-1 7.287-4.351 15.097-8.019 22-13z"/><path fill="#051a2e" d="M144 384c3.626 1.125 7.332 2.025 11 3 3.631.965 7.285 2.224 11 3-.473-.074-2.065 1.474-4.5 1-13.461-2.623-31.377-7.013-41.5-16 8.283 3.693 15.332 6.31 24 9"/><path fill="#4b6b77" d="M172 394c.048-.787-3.723-3.945-4-4l8-14c6.408 4.171 14.106 7.176 21 10.5-6.988 6.195-15.939 7.63-25 7.5"/><path fill="url(#c)" d="M706 383c13.457 5.547 23.536 15.371 33 26l20 35.5c31.477 114.56-126.806 171.185-182 68.5-8.708-16.2-21.356-55.135-1-66 2.068 5.914 12.054 15.34 18 18 1.816.812 2.962 1.568 5 2-6.493 64.2 82.992 95.766 120 42.5 36.501-52.536-16.685-117.856-76-102.5-.537-.36-1.343-.838-2-1-4.491-6.877-11.841-10.298-20-11l-11-2.5c-.157-.262 4.351-3.09 5-3.5 24.548-15.513 64.557-16.9 91-6" style="fill:url(#c)"/>/&gt;<path fill="#49707d" d="M781 433c3.225 6.375 3.95 19.824 6 24-1.732.214-2.715-1.166-4-2-6.072-3.94-14.887-11.287-22-11-1.903-6.177-10.111-21.589-14-27 .12-5.652 5.722-10.191 4-16.5-1.384-5.071-26.133-20.139-31-24.5 26.009 10.713 48.193 31.69 61 57"/><path fill="#003963" d="M438 445c1.02 3.271 2.515 8.711 3 12-3.922-1.76-3.223-11.621-5.5-14-.852-.891-21.711-9.211-23.5-5-9.803-20.992-30.43-29.34-52.5-31-11.873-.893-27.347-.837-38.5 3-.114-.179-2.409-2.366-3-3-13.575-14.554-34.628-13.573-50-2-.522-1.589 1.061-2.093 1-3 10.963-4.391 20.142-12.511 31-17 49.626-20.52 121.39 6.719 138 60"/><path fill="#0f90b3" d="M855 395c-4.846.709-9.544 1.46-14.5 1 6.527-3.146 18.426-3.511 27-6 9.44-2.741 19.002-7.052 27.5-12l.5 2c-12.997 6.131-26.008 12.881-40.5 15"/><path fill="#406b7a" d="M283 380c-1.498 3.519-17.671 10.721-18 13.5-.055.466 3.909 7.153 4 8.5.061.907-1.522 1.411-1 3-13.329 10.035-15.649 23.034-19 38-.388 1.733-1.974 1.861-2 2 .346-3.425-3.07-1.694-4.5-1-6.666 3.236-13.401 10.144-20.5 13 1.43-9.373 2.821-18.168 7-27 24.376-20.343 14.621-33.625 54-50"/><path fill="#f5f8f8" d="M817 387c9.963 2.243 18.803.747 29 1 1.28.032 1.702 1.931 3 2-10.643 5.635-24.586 2.714-35.5-1-.67-2.667 3.038-1.724 3.5-2"/><path fill="#c8e2ec" d="M621 395c8.159.702 15.509 4.123 20 11-17.346-4.267-40.1 14.318-46 30-3.709 9.859-6.198 19.204-1 29-5.946-2.66-15.932-12.086-18-18-4.012-11.473.586-23.714 6-34 10.073-11.386 23.125-19.366 39-18"/><path fill="#bde9f5" d="M318 407c-30.729-2.775-65.053 33.852-45 62-13.051-3.456-16.584-13.473-21-24.5-.61-1.524-1.179-3.078-3-1.5 3.351-14.966 5.671-27.965 19-38 15.372-11.573 36.425-12.554 50 2"/><path fill="#3b8dad" d="m152 407-10 31c-1.308.117-2.684-.076-4 0-3.379-.107-6.861-.873-10-1l10-36c4.236 2.258 9.518 4.145 14 6"/><path fill="#55afc9" d="M890 435c-3.35 1.474-6.615.689-10 1 .008-10.471-3.237-21.663-8-31 2.229-1.113 4.79-2.729 7-4 4.249 11.131 7.949 22.469 11 34"/><path fill="url(#d)" d="M599 467c25.751 5.462 52.889-16.582 51-43-.224-3.137-4.494-15.32-7-17 59.315-15.356 112.501 49.964 76 102.5-37.008 53.266-126.493 21.7-120-42.5m97.5 21c-17.079 3.134-15.818 28.978 5 25 14.684-2.805 17.014-29.039-5-25" style="fill:url(#d)"/>/&gt;<path fill="#567982" d="M872 405c4.763 9.337 8.008 20.529 8 31-4.135.38-7.735.971-12 1l-6-27c1.796-.72 7.635-3.819 10-5"/><path fill="#7cb1c2" d="M641 406c.657.162 1.463.64 2 1 2.506 1.68 6.776 13.863 7 17l-55 12c5.9-15.682 28.654-34.267 46-30"/><path fill="#144765" d="M156 409c-4.373 3.313-4.93 9.771-6 13-1.626 4.905-3.964 9.659-4 15-1.083.147-2.539.869-4 1l10-31c1.192.493 3.098 1.666 4 2"/><path fill="#4fd1f0" d="M321 410c18.557 29.079-11.148 64.322-44 60-.635-.084-3.056-.75-4-1-20.053-28.148 14.271-64.775 45-62 .591.634 2.886 2.821 3 3"/><path fill="url(#e)" d="M412 438c3.822 8.184 8.719 26.822 7 35.5-2.295 11.588-7.571 5.738-9 7-.459.405-1.316 8.283-2 10-4.331 10.869-12.006 23.866-21 31.5-33.156 28.141-88.991 14.059-105-26-3.33-8.332-5.66-16.828-5-26 32.852 4.322 62.557-30.921 44-60 11.153-3.837 26.627-3.893 38.5-3 22.07 1.66 42.697 10.008 52.5 31m-47.5 77c-15.751 1.581-10.021 27.886 5 16 7.177-5.678 5.136-17.018-5-16" style="fill:url(#e)"/>/&gt;<path fill="#506c75" d="M166 413c-.138 4.372-2.776 7.993-4 12-4.012-.87-7.993-2.103-12-3 1.07-3.229 1.627-9.687 6-13 2.947 1.091 7.631 3.274 10 4"/><path fill="#014f7f" d="M747 417c3.889 5.411 12.097 20.823 14 27 3.163 10.263 4.37 22.33 4 33-.28 8.082-1.746 17.261-4 25-7.898 27.111-34.21 54.795-61 64-47.65 16.372-104.267-6.452-126-52l3-1c55.194 102.685 213.477 46.06 182-68.5L739 409c2.024 2.274 6.172 5.457 8 8"/><path fill="#274956" d="m862 410 6 27c-1.151.008-1.724.05-3 0 2.072-4.655-1.617-10.803-3-15-1.102-3.345-2.04-10.443-5-11 2.383-.849 4.16-.663 5-1"/><path fill="#849192" d="m862 422-34 8c-3.918-1.798-10.54-5.857-12.5-10 14.531-.32 28.026-4.199 41.5-9 2.96.557 3.898 7.655 5 11"/><path fill="#697f85" d="m177 415-6 12c-2.418-.264-6.386-1.433-9-2 1.224-4.007 3.862-7.628 4-12 2.827.866 7.78 1.188 11 2"/><path fill="#141a2c" d="M582 413c-5.414 10.286-10.012 22.527-6 34-20.356 10.865-7.708 49.8 1 66l-3 1c-8.473-17.757-12.281-37.818-9-57.5l-5 6c.829-4.243 2.507-8.164 3-12.5 3.463-1.631 1.913-7.561 2-8 1.258-6.322 12.759-24.206 17-29"/><path fill="#7d9296" d="M182 428c-2.884-2.084-7.615-.63-11-1l6-12c5.981 1.508 11.949 2.354 18 3.5-3.669 4.441-7.946 6.971-13 9.5"/><path fill="#5e7c85" d="M162 425c-1.099 3.598-4.449 6.978 0 10-4.862 1.149-10.949 1.315-16 2 .036-5.341 2.374-10.095 4-15 4.007.897 7.988 2.13 12 3"/><path fill="#e0e9ed" d="M865 437c-12.52-.493-25.442-1.697-37-7l34-8c1.383 4.197 5.072 10.345 3 15"/><path fill="#97c5d5" d="M650 424c1.889 26.418-25.249 48.462-51 43-2.038-.432-3.184-1.188-5-2-5.198-9.796-2.709-19.141 1-29z"/><path fill="#90a7b0" d="M171 427c3.385.37 8.116-1.084 11 1-5.982 2.994-13.501 5.464-20 7-4.449-3.022-1.099-6.402 0-10 2.614.567 6.582 1.736 9 2"/><path fill="#0d5273" d="M229 430c-4.179 8.832-5.57 17.627-7 27-.198 1.297-1.869 3.91-2 6-1.246 19.875 1.909 33.833 9 52 5.35 13.708 12.625 27.313 23 38l-2 3c-5.079-4.795-7.702-7.343-12-13-17.87-23.518-25.992-48.162-25-78 .305-9.18 2.141-18.074 4-27 1.565-.804 10.593-6.826 12-8"/><path fill="#0d4661" d="m792 439 3 24c-.477-.836-6.615-4.407-7-5-.038-.059-.36.303-1-1-2.05-4.176-2.775-17.625-6-24 4.258-.079 7.809 4.341 11 6"/><path fill="#0d82ae" d="M441 457c2.134 14.471 1.482 29.137-3 43-3.368 10.418-12.816 24.692-20 33-2.892.292-8.885-7.912-9.5-8-.703-.101-9.837 9.464-11 9-.74-.295-6.852-11.588-10.5-12 8.994-7.634 16.669-20.631 21-31.5.684-1.717 1.541-9.595 2-10 1.429-1.262 6.705 4.588 9-7 1.719-8.678-3.178-27.316-7-35.5 1.789-4.211 22.648 4.109 23.5 5 2.277 2.379 1.578 12.24 5.5 14"/><path fill="#04466c" d="M128 437c3.139.127 6.621.893 10 1 2.792.088 5.824 1.104 9 1-.11.806.177 2.839 0 3-1.924 1.747-1.219-1.899-2 2-2.006 10.012-.607 19.977 0 30 .149 2.465-.505 4.84 0 9 14.3 117.888 175.2 182.944 277.5 197 114.143 15.684 230.93-1.958 331.5-58 59.65-33.24 100.129-73.929 114-142 .271-1.33.775-2.749 1-4 7.968 2.626 6.006 7.633 5 14-10.402 65.822-80.172 122.948-137 149-95.042 43.57-209.108 58.888-313 46-18.334-2.274-36.139-6.503-54-11-42.147-10.611-86.849-27.209-124-50-63.795-39.136-114.215-101.231-103-180.5-2.167-1.264-4.653-1.739-7-2.5-1.748-.567-6.069-.505-8-1-2.31-.592-4.861-1.353-7-2.5 2.033-.836 4.808-.589 7-.5"/><path fill="#4daac5" d="M891 437c41.037 161.4-25.717 341.719-170 427-61.926 36.603-132.708 56.613-205 58l-1-4c44.757-.806 158.41-24.67 191.5-55 4.63-4.243 1.162-9.513-1.5-14 72.97-37.806 145.475-101.099 167-183 21.218-33.569 41.352-142.609 25-177-.873-1.836.34-4.717-3.5-6-2.224-.334-6.577 3.935-7.5 5.5-4.707 7.977-8.236 33.356-13 45-20.445 49.968-77.318 92.484-125 114.5-9.637 3.06-9.994.875-11-9 56.828-26.052 126.598-83.178 137-149 11.314-4.145 6.902-19.64 7-29 .071-6.757 2.684-14.104 0-21 2.928-.828 6.459-3.299 10-3"/><path fill="#53757f" d="M217 438c-1.859 8.926-3.695 17.82-4 27-4.225.734-7.315 4.321-11 6-17.451 7.952-37.902 11.869-57 12-.505-4.16.149-6.535 0-9 3.777-2.257 7.42-4.406 11-7 6.937-5.026 14.449-11.248 18-19 14.132.172 30.417-3.533 43-10"/><path fill="#60777c" d="M836 448c.398 4.119 2.411 6.16 5 9 6.924 7.596 18.762 13.6 28 18-.057.323.058.677 0 1-.225 1.251-.729 2.67-1 4-21.735 3.818-43.511-1.855-63-11a77 77 0 0 1-9-5c-.416-1.383-.965-.939-1-1l-3-24c13.824 7.19 28.569 9.267 44 9"/><path fill="#2d7698" d="M136 441c-4.093 7.304-1.628 23.595-10 27-1.035-2.466-.509-4.417-2-6 1.157-7.357 1.572-14.889 4-22 1.931.495 6.252.433 8 1"/><path fill="#446b74" d="M881 440c2.684 6.896.071 14.243 0 21l-9 1c-.076-6.426-2.951-13.467-1-20 3.055-.78 6.651-1.053 10-2"/><path fill="#368bac" d="m246 624-2 6c-54.92-33.014-100.147-81.409-115-145.5-1.075-4.64.268-13.768 0-15-.227-1.041-2.216.369-3-1.5 8.372-3.405 5.907-19.696 10-27 2.347.761 4.833 1.236 7 2.5-11.215 79.269 39.205 141.364 103 180.5"/><path fill="#0d82ae" d="M273 469c.944.25 3.365.916 4 1-.66 9.172 1.67 17.668 5 26l-30 12c-8.006-19.718-8.625-41.187-5-62 .056-.324-.06-.678 0-1 .026-.139 1.612-.267 2-2 1.821-1.578 2.39-.024 3 1.5 4.416 11.027 7.949 21.044 21 24.5"/><path fill="#484e56" d="M563 450c.326-2.867 1.778-5.037-2-5 1.264-1.46 2.024-2.462 4-3-.087.439 1.463 6.369-2 8"/><path fill="#205061" d="M871 442c-1.951 6.533.924 13.574 1 20 .034 2.882.37 6.811 0 9.5-.116.839-1.98.399-2 .5 1.919-4.211-.879-9.341-1-11-.4-5.482 1.274-11.804-2-17 .218-.048 1.901-1.464 4-2"/><path fill="#78a7b8" d="M247 445c-.06.322.056.676 0 1-4.176 12.448-4.392 25.101-3 38-7.409 2.941-10.812-3.377-12.5-4-.425-.157-8.434-.378-9-1-2.222-2.438 2.15-13.92-2.5-16 .131-2.09 1.802-4.703 2-6 7.099-2.856 13.834-9.764 20.5-13 1.43-.694 4.846-2.425 4.5 1"/><path fill="#79a5b3" d="M783 455c-2.21 8.887-9.136 19.034-18 22 .37-10.67-.837-22.737-4-33 7.113-.287 15.928 7.06 22 11"/><path fill="#74939e" d="m157 446-1 21c-3.58 2.594-7.223 4.743-11 7-.607-10.023-2.006-19.988 0-30 4.094-.399 8.098 1.477 12 2"/><path fill="#84a1ab" d="M454 506c-.783 2.348-3.17 4.954-4 7-8.114-3.368 2.765-17.85-8-20 3.572-17.269 3.873-31.104 0-48.5 24.575 13.238 19.454 39.158 12 61.5"/><path fill="#7a8888" d="M867 444c3.274 5.196 1.6 11.518 2 17l-28-4c-2.589-2.84-4.602-4.881-5-9 10.315-.179 20.976-1.797 31-4"/><path fill="#71b4c9" d="M563 450c-.493 4.336-2.171 8.257-3 12.5l5-6c-3.281 19.682.527 39.743 9 57.5 21.733 45.548 78.35 68.372 126 52 .774 2.956 1.861 9.926 1 12.5-.611 1.827-11.447.766-12 4.5-54.891 5.596-116.646-25.425-136-79-1.75-4.844-3.32-10.868-4-16-2.204-16.628.85-30.124 12-43 3.778-.037 2.326 2.133 2 5"/><path fill="#9fbcca" d="M174 448c-3.551 7.752-11.063 13.974-18 19l1-21c4.205.563 13.379 1.956 17 2"/><path fill="#015385" d="M252 508c27.288 67.213 118.695 79.703 166 25 7.184-8.308 16.632-22.582 20-33l2 2c-3.331 10.799-9.267 21.09-16 30-27.201 35.996-76.058 49.236-118 33-23.016-8.91-45.565-31.313-55-54-3.641-8.753-5.976-17.512-7-27-1.392-12.899-1.176-25.552 3-38-3.625 20.813-3.006 42.282 5 62"/><path fill="#a3d2e0" d="M787 457c.64 1.303.962.941 1 1 1.511 8.523.857 16.457 0 25-3.737 2.156-4.481 16.97-6.5 18-2.949 1.504-16.308-1.829-20.5 1 2.254-7.739 3.72-16.918 4-25 8.864-2.966 15.79-13.113 18-22 1.285.834 2.268 2.214 4 2"/><path fill="#f0f6f8" d="M869 461c.121 1.659 2.919 6.789 1 11-.162.838 1.253 1.056 1 2.5-.148.846-1.982.398-2 .5-9.238-4.4-21.076-10.404-28-18z"/><path fill="#116389" d="M795 463c.035.061.584-.383 1 1 4.244 14.124-6.251 48.576-13 62-13.098 26.054-31.148 41.365-58 52-8.212.06-16.577 6.223-24.5 7-2.642.259-5.197.848-4.5-3 50.714-8.576 86.844-47.626 92-99 .857-8.543 1.511-16.477 0-25 .385.593 6.523 4.164 7 5"/><path fill="#35859f" d="M881 461c-.098 9.36 4.314 24.855-7 29 1.006-6.367 2.968-11.374-5-14 .058-.323-.057-.677 0-1 .018-.102 1.852.346 2-.5.253-1.444-1.162-1.662-1-2.5.02-.101 1.884.339 2-.5.37-2.689.034-6.618 0-9.5z"/><path fill="url(#f)" d="M126 468c.784 1.869 2.773.459 3 1.5.268 1.232-1.075 10.36 0 15 14.853 64.091 60.08 112.486 115 145.5 25.595 15.386 57.128 31.067 86 39 59.381 17.574 118.226 28.488 180.5 28 115.924-.909 301.128-29.613 361.5-142.5 11.321-21.168 16.715-43.157 25-65.5 16.352 34.391-3.782 143.431-25 177-80.161 126.825-253.519 187.971-398.5 172C334.826 822.724 164.724 716.502 130 576c-5.069-20.511-4.848-45.216-11-62.5-.564-1.585 1.149-5.482-1-6.5.99-15.049 3.661-30.129 6-45 1.491 1.583.965 3.534 2 6m712 138c-.661.254-11.661 6.879-12 7.5-.95 1.743 1.87 4.785.5 5.5-3.233 1.688-16.042-.137-17.5 9-7.786 3.634-54.51 24.524-56 29.5-1.331 4.445 2.275 8.503 6.5 9.5 17.505 4.13 60.673-23.036 74-35 1.966-1.765 4.985-3.932 4.5-7 11.257-8.369 12.333-8.281 20-21 25.676-42.595-4.988-18.769-19.5-2-.974 1.126-1.612 2.63-.5 4M447 733c-16.125 14.646-.797 41.443 11 54.5 27.05 29.939 75.266 38.038 108 12.5 22.983-17.93 59.885-93.113 13.5-100-22.825-3.389-115.812 17.842-132.5 33" style="fill:url(#f)"/>/&gt;<path fill="#95d0e3" d="M244 484c1.024 9.488 3.359 18.247 7 27-6.884 1.048-17.037-.689-22 4-7.091-18.167-10.246-32.125-9-52 4.65 2.08.278 13.562 2.5 16 .566.622 8.575.843 9 1 1.688.623 5.091 6.941 12.5 4"/><path fill="#7d9ca4" d="M805 469c-4.276 18.286-7.886 38.357-18 54.5-1.226 1.957-1.15 3-4 2.5 6.749-13.424 17.244-47.876 13-62a77 77 0 0 0 9 5"/><path fill="#648892" d="M213 465c-.992 29.838 7.13 54.482 25 78-20.538-16.825-31.366-46.29-36-72 3.685-1.679 6.775-5.266 11-6"/><path fill="#7aa6b6" d="M202 471c4.634 25.71 15.462 55.175 36 72 4.298 5.657 6.921 8.205 12 13 46.405 43.815 120.714 48.063 171.5 8 19.932-15.724 19.644-26.435 31.5-45 1.263-1.977 2.928-3.848 5-5-4.554 22.881.421 29.344-17 50.5-42.093 51.119-145.491 62.668-195.5 16.5 29.131 30.097 79.217 53.105 120 63 115.899 28.119 226.896 18.307 343-3l45.5-19c-100.57 56.042-217.357 73.684-331.5 58-102.3-14.056-263.2-79.112-277.5-197 19.098-.131 39.549-4.048 57-12"/><path fill="#b8eefa" d="M696 582c-2.359.399-4.603.756-7 1 .553-3.734 11.389-2.673 12-4.5.861-2.574-.226-9.544-1-12.5 26.79-9.205 53.102-36.889 61-64 4.192-2.829 17.551.504 20.5-1 2.019-1.03 2.763-15.844 6.5-18-5.156 51.374-41.286 90.424-92 99"/><path fill="#e5f4f8" d="M897 489c-8.285 22.343-13.679 44.332-25 65.5C811.628 667.387 626.424 696.091 510.5 697c-62.274.488-121.119-10.426-180.5-28 .13.036-.079-1.68 2.5-1 12.979 3.421 26.027 6.559 39 10l-1.5-4c17.861 4.497 35.666 8.726 54 11 6.516 6.634 17.84 3.144 23.5 4 96.289 14.567 209.246 1.133 300.5-41 47.682-22.016 104.555-64.532 125-114.5 4.764-11.644 8.293-37.023 13-45 .923-1.565 5.276-5.834 7.5-5.5 3.84 1.283 2.627 4.164 3.5 6"/><path fill="#0b5078" d="m553 504 2 14c-3.164-5.721-9.704-19.902-12-26l2-1c.265.556 1.386 1.59 1.5 3l2.5-6c.68 5.132 2.25 11.156 4 16"/><path fill="#b2ebf9" d="M696.5 488c22.014-4.039 19.684 22.195 5 25-20.818 3.978-22.079-21.866-5-25"/><path fill="#8dcce0" d="M450 513c-4.106 10.117-7.176 18.186-14 27l-12-8c6.733-8.91 12.669-19.201 16-30 .82-2.658 1.423-6.212 2-9 10.765 2.15-.114 16.632 8 20"/><path fill="#0db4de" d="M282 496c16.009 40.059 71.844 54.141 105 26 3.648.412 9.76 11.705 10.5 12 1.163.464 10.297-9.101 11-9 .615.088 6.608 8.292 9.5 8-47.305 54.703-138.712 42.213-166-25z"/><path fill="#2287b5" d="M689 583c2.397-.244 4.641-.601 7-1-.697 3.848 1.858 3.259 4.5 3 7.923-.777 16.288-6.94 24.5-7-65.176 25.814-136.052 1.375-170-60l-2-14c19.354 53.575 81.109 84.596 136 79"/><path fill="#228fbf" d="M453 519c-11.856 18.565-11.568 29.276-31.5 45-50.786 40.063-125.095 35.815-171.5-8l2-3c16.139 16.623 42.784 26.165 65 31 37.944 10.945 95.346-13.45 119-44 6.824-8.814 9.894-16.883 14-27 .83-2.046 3.217-4.652 4-7z"/><path fill="#277495" d="M130 576c-3.869-1.213-2.206 5.198-2 6.5C150.003 721.916 251.966 831.699 383.5 877c111.044 38.244 218.269 25.484 321.5-28 2.662 4.487 6.13 9.757 1.5 14-33.09 30.33-146.743 54.194-191.5 55-107.272 1.932-221.72-49.23-293-128.5-38.271-42.561-65.155-92.863-86.5-145.5-.844.198-.468 2.937-.5 4-15.875-44.72-20.115-93.637-17-141 2.149 1.018.436 4.915 1 6.5 6.152 17.284 5.931 41.989 11 62.5"/><path fill="#abe9f9" d="M251 511c9.435 22.687 31.984 45.09 55 54-1.75 12.548-.536 15.673 11 19-22.216-4.835-48.861-14.377-65-31-10.375-10.687-17.65-24.292-23-38 4.963-4.689 15.116-2.952 22-4"/><path fill="#bfeefc" d="M364.5 515c10.136-1.018 12.177 10.322 5 16-15.021 11.886-20.751-14.419-5-16"/><path fill="#86e4f8" d="M436 540c-23.654 30.55-81.056 54.945-119 44-11.536-3.327-12.75-6.452-11-19 41.942 16.236 90.799 2.996 118-33z"/><path fill="#f7fbfc" d="m773.5 570-22 23c-19.406 13.954-50.085 15.353-73.5 16.5 36.508-3.094 68.104-15.162 95.5-39.5"/><path fill="url(#g)" d="M130 576c34.724 140.502 204.826 246.724 343.5 262 144.981 15.971 318.339-45.175 398.5-172-21.525 81.901-94.03 145.194-167 183-103.231 53.484-210.456 66.244-321.5 28C251.966 831.699 150.003 721.916 128 582.5c-.206-1.302-1.869-7.713 2-6.5" style="fill:url(#g)"/>/&gt;<path fill="#fafcfd" d="M770.5 579c2.136 1.146.245 4.193-.5 5.5-9.775 17.143-49.89 37.508-70 31 26.624-8.773 53.249-11.457 70.5-36.5"/><path fill="#b4dce8" d="M858 604c-6.26-.357-14.088-.271-20 2-1.112-1.37-.474-2.874.5-4 14.512-16.769 45.176-40.595 19.5 2"/><path fill="#fbfdfe" d="M858 604c-7.667 12.719-8.743 12.631-20 21-3.087 2.295-14.304 11.54-16.5 12-7.209 1.511-13.834-.641-12.5-9 1.458-9.137 14.267-7.312 17.5-9 1.37-.715-1.45-3.757-.5-5.5.339-.621 11.339-7.246 12-7.5 5.912-2.271 13.74-2.357 20-2"/><path fill="#499ab7" d="m370 674 1.5 4c-12.973-3.441-26.021-6.579-39-10-2.579-.68-2.37 1.036-2.5 1-28.872-7.933-60.405-23.614-86-39l2-6c37.151 22.791 81.853 39.389 124 50"/><path fill="#91ccde" d="M809 628c-1.334 8.359 5.291 10.511 12.5 9 2.196-.46 13.413-9.705 16.5-12 .485 3.068-2.534 5.235-4.5 7-13.327 11.964-56.495 39.13-74 35-4.225-.997-7.831-5.055-6.5-9.5 1.49-4.976 48.214-25.866 56-29.5"/><path fill="#7fc0d3" d="M748 648c-91.254 42.133-204.211 55.567-300.5 41-5.66-.856-16.984 2.634-23.5-4 103.892 12.888 217.958-2.43 313-46 1.006 9.875 1.363 12.06 11 9"/><path fill="#4292b1" d="m515 918 1 4c-91.831 1.761-144.866-19.846-222-62.5-1.174-.649-3.438-2.58-3 .5-40.801-26.318-70.656-53.781-99-93.5-14.943-20.94-57.706-95.067-57-118.5.032-1.063-.344-3.802.5-4 21.345 52.637 48.229 102.939 86.5 145.5 71.28 79.27 185.728 130.432 293 128.5"/><path fill="#e8f9fd" d="M566 800c6.782-9.297 14.716-18.086 20-28.5 1.16-2.287 6.854-11.336 2-11.5 13.793-29.132 17.455-58.936-25-55-7.099.865-14.502 1.533-21.5 3-14.663 3.074-86.438 18.604-92.5 27l-2-2c16.688-15.158 109.675-36.389 132.5-33 46.385 6.887 9.483 82.07-13.5 100"/><path fill="#44101d" d="M563 705c-.103.01.334 1.909-.5 2-14.465 1.585-36.701 1.848-41.5 18.5-5.127 17.79 14.61 26.612 22 39.5-20.008 1.346-36.641 7.376-52 20-5.817 4.781-4.099 4.23-8 9-.153.187-2.682-.668-2 2-17.665-9.571-46.97-40.267-32-61 6.062-8.396 77.837-23.926 92.5-27 6.998-1.467 14.401-2.135 21.5-3"/><path fill="#5f252f" d="M588 760c-2.257 4.768-5.967 8.772-9 13 .354-1.686-.029-1.355-1-2-5.299-3.521-10.045-3.924-16-5-7.808-1.41-11.165-1.527-19-1-7.39-12.888-27.127-21.71-22-39.5 4.799-16.652 27.035-16.915 41.5-18.5.834-.091.397-1.99.5-2 42.455-3.936 38.793 25.868 25 55"/><path fill="#67c1db" d="M449 735c-14.97 20.733 14.335 51.429 32 61 38.595 20.911 73.164 11.622 98-23 3.033-4.228 6.743-8.232 9-13 4.854.164-.84 9.213-2 11.5-5.284 10.414-13.218 19.203-20 28.5-32.734 25.538-80.95 17.439-108-12.5-11.797-13.057-27.125-39.854-11-54.5z"/><path fill="#b13842" d="m562 766-2 5.5c1.827.248 3.354.966 5 1.5-.895.492-2.32 1.327-3 2-17.867-1.211-31.77.063-48.5 6-9.277 3.292-9.55 9.975-22.5 4 15.359-12.624 31.992-18.654 52-20 7.835-.527 11.192-.41 19 1"/><path fill="#d04a4d" d="M578 771c-1.877 5.231-8.47 3.469-13 2-1.646-.534-3.173-1.252-5-1.5l2-5.5c5.955 1.076 10.701 1.479 16 5"/><path fill="#a62b37" d="M579 773c-24.836 34.622-59.405 43.911-98 23-.682-2.668 1.847-1.813 2-2 8.148-3.657 15.186 3.161 23.5 4 23.06 2.328 40.063-7.727 55.5-23 .68-.673 2.105-1.508 3-2 4.53 1.469 11.123 3.231 13-2 .971.645 1.354.314 1 2"/><path fill="#c04f53" d="M562 775c-15.437 15.273-32.44 25.328-55.5 23-8.314-.839-15.352-7.657-23.5-4 3.901-4.77 2.183-4.219 8-9 12.95 5.975 13.223-.708 22.5-4 16.73-5.937 30.633-7.211 48.5-6"/><path fill="#38839e" d="M516 922c72.292-1.387 143.074-21.397 205-58-138.305 88.487-293.315 84.164-430-4-.438-3.08 1.826-1.149 3-.5 77.134 42.654 130.169 64.261 222 62.5"/></svg>