<svg xmlns="http://www.w3.org/2000/svg" width="1024" height="1024"><defs><linearGradient id="a" x1="633.156" x2="411.159" y1="212.348" y2="213.547" gradientUnits="userSpaceOnUse"><stop offset="10.36%" style="stop-color:#05a2c7"/><stop offset="89.189%" style="stop-color:#76e5fb"/></linearGradient></defs><defs><linearGradient id="b" x1="298.481" x2="704.955" y1="280.165" y2="729.626" gradientUnits="userSpaceOnUse"><stop offset="0%" style="stop-color:#f1fafc"/><stop offset="100%" style="stop-color:#5b9cb0"/></linearGradient></defs><defs><linearGradient id="c" x1="349.256" x2="344.06" y1="572.15" y2="830.097" gradientUnits="userSpaceOnUse"><stop offset="0%" style="stop-color:#a2c3cf"/><stop offset="100%" style="stop-color:#6998a8"/></linearGradient></defs><defs><linearGradient id="d" x1="663.043" x2="686.639" y1="444.862" y2="524.438" gradientUnits="userSpaceOnUse"><stop offset="0%" style="stop-color:#1a3345"/><stop offset="100%" style="stop-color:#1f5672"/></linearGradient></defs><defs><linearGradient id="e" x1="358.39" x2="358.603" y1="441.09" y2="525.09" gradientUnits="userSpaceOnUse"><stop offset="0%" style="stop-color:#033860"/><stop offset="100%" style="stop-color:#0879ac"/></linearGradient></defs><defs><linearGradient id="f" x1="305.904" x2="398.428" y1="435.311" y2="563.385" gradientUnits="userSpaceOnUse"><stop offset="0%" style="stop-color:#1d7fa3"/><stop offset="100%" style="stop-color:#30d5f4"/></linearGradient></defs><defs><linearGradient id="g" x1="679.031" x2="671.352" y1="464.451" y2="572.178" gradientUnits="userSpaceOnUse"><stop offset="0%" style="stop-color:#2280a1"/><stop offset="100%" style="stop-color:#79ddf0"/></linearGradient></defs><defs><linearGradient id="h" x1="283.226" x2="315.021" y1="597.766" y2="745.38" gradientUnits="userSpaceOnUse"><stop offset="0%" style="stop-color:#f7fdfe"/><stop offset="100%" style="stop-color:#a7d2e2"/></linearGradient></defs><defs><linearGradient id="i" x1="494.376" x2="562.466" y1="707.388" y2="723.628" gradientUnits="userSpaceOnUse"><stop offset="0%" style="stop-color:#d8aac8"/><stop offset="100%" style="stop-color:#b187a2"/></linearGradient></defs><path fill="#0c6788" d="M833 320c-3.636 5.675-5.536 9.461-10 15-4.887-7.424-9.816-14.774-15-22-37.555-52.351-78.554-83.345-133-113-1.058-.576-2.55-3.152-6-5-2.438-1.306-5.169-4.886-9-5-2.308-2.697-6.012-2.835-9-4-1.056-.412-3.179-2.379-5-3-.299-.102-.701.102-1 0-45.407-20.442-94.461-25.588-144-24l-4.5-2 55-2c-20.391-1.365-42.119-3.732-62.5-3 135.007-9.057 268.752 56.485 344 168"/><path fill="#1084aa" d="M489 152c20.381-.732 42.109 1.635 62.5 3l-55 2 4.5 2c-19.33.62-37.046 2.877-56 6-28.48 4.692-46.731 10.47-73 21-4.106 1.646-5.754 4.065-8 5-1.777.739-4.236 1.246-6 2-2.997 1.281-1.87 1.944-2 2-.44.189-1.565-.189-2 0-.347.151-5.369.074-7.5 1-4.075 1.77-23.651 14.482-25 14-5.063-1.809 2.524-7.784 3.5-10 48.44-26.323 108.445-46.006 164-48"/><path fill="#ebfafc" d="M501 159c49.539-1.588 98.593 3.558 144 24-88.7-30.145-156.033-31.224-243 4-3.013 1.22-20.567 5.73-21 8.5l34.5 37.5c-16.572-9.957-31.354-23.832-40.5-41 1.026.665 2.269 2.113 3.5 2 1.975-.181 27.763-13.98 33-16 11.901-4.59 24.687-7.925 37-11l-3.5-2c18.954-3.123 36.67-5.38 56-6"/><path fill="url(#a)" d="M645 183c.299.102.701-.102 1 0 4.687 3.951-1.734 17.233-5 22.5-12.748 20.559-37.767 30.297-59.5 37.5 28.87-5.315 70.706-22.201 69.5-57 2.988 1.165 6.692 1.303 9 4-.661-.02-1.339.009-2 0-9.038 30.394-25.289 50.292-55.5 61-69.747 24.722-192.499 25.635-230.5-49.5-.711-1.406-1.043-3.116-3-1.5-1.207-2.943-2.28-7.007-5-9 2.246-.935 3.894-3.354 8-5-1.558 1.556 1.055 4.74 3 6 9.146 17.168 23.928 31.043 40.5 41L381 195.5c.433-2.77 17.987-7.28 21-8.5-.217.078-2.971 3.271-3 3.5-.572 4.582 9.112 4.166 10 1 .844-3.008-6.521-4.672-7-4.5 86.967-35.224 154.3-34.145 243-4m-225.5-1c-2.421.759-8.794 6.19-4 8 .989.373 13.563-5.6 13.5-6.5-.987-1.208-9.041-1.644-9.5-1.5m94 25c-23.926 2.862-22.735 46.284 8 41 22.949-3.946 20.15-44.367-8-41" style="fill:url(#a)"/>/&gt;<path fill="#a9ebf8" d="m445 165 3.5 2c-12.313 3.075-25.099 6.41-37 11-5.237 2.02-31.025 15.819-33 16-1.231.113-2.474-1.335-3.5-2-1.945-1.26-4.558-4.444-3-6 26.269-10.53 44.52-16.308 73-21"/><path fill="#d9f9fb" d="M419.5 182c.459-.144 8.513.292 9.5 1.5.063.9-12.511 6.873-13.5 6.5-4.794-1.81 1.579-7.241 4-8"/><path fill="#d2f3f9" d="M651 186c1.206 34.799-40.63 51.685-69.5 57 21.733-7.203 46.752-16.941 59.5-37.5 3.266-5.267 9.687-18.549 5-22.5 1.821.621 3.944 2.588 5 3"/><path fill="#c3f5fc" d="M402 187c.479-.172 7.844 1.492 7 4.5-.888 3.166-10.572 3.582-10-1 .029-.229 2.783-3.422 3-3.5"/><path fill="#1b98b9" d="M460 265c-15.979-2.719-31.5-6.653-46-14-23.075-11.691-35.353-27.479-45-51 1.957-1.616 2.289.094 3 1.5 38.001 75.135 160.753 74.222 230.5 49.5 30.211-10.708 46.462-30.606 55.5-61 13.393 4.607 5.291 20.95 0 30.5-5.287 9.543-25.352 28.374-35.5 31.5-4.367 1.345-4.8-1.662-7-1-53.798 16.189-98.804 23.647-155.5 14"/><path fill="#1fb0d4" d="M660 190c3.831.114 6.562 3.694 9 5-15.394 83.848-146.541 87.223-212 76 1.62-2.685 3.945-1.859 3-6 56.696 9.647 101.702 2.189 155.5-14 2.2-.662 2.633 2.345 7 1 10.148-3.126 30.213-21.957 35.5-31.5 5.291-9.55 13.393-25.893 0-30.5.661.009 1.339-.02 2 0"/><path fill="#cff6fd" d="M364 191c2.72 1.993 3.793 6.057 5 9 9.647 23.521 21.925 39.309 45 51-3.491 6.486 3.526 7.19 9 10-32.477-7.118-58.104-35.747-65-68 1.764-.754 4.223-1.261 6-2"/><path fill="#124459" d="M358 193c6.896 32.253 32.523 60.882 65 68 10.57 5.427 22.248 7.985 34 10 65.459 11.223 196.606 7.848 212-76 3.45 1.848 4.942 4.424 6 5-2.675 14.846-9.72 29.031-20 40-2.399 2.559-7.2 6.871-10 9-59.829 45.497-248.718 50.289-283-30-3.207-7.51-5.427-15.793-6-24 .13-.056-.997-.719 2-2"/><path fill="#0e6586" d="M354 195c-60.253 28.152-113.866 70.258-152 125-1.625-2.34-6.756-9.647-8-8 .19-1.751 19.165-24.31 22-27.5 29.723-33.446 69.751-63.172 109-84.5-.976 2.216-8.563 8.191-3.5 10 1.349.482 20.925-12.23 25-14 2.131-.926 7.153-.849 7.5-1"/><path fill="#cde2e9" d="M356 195c.573 8.207 2.793 16.49 6 24-49.782 23.325-96.505 52.37-133 94-2.392-3.701-4.708-11.503-9-11.5 2.36 4.827 4.682 9.66 7 14.5l-.5 5c-15.286-9.9-4.214 20.41-17.5 10-3.057-3.775-4.639-7.6-7-11 38.134-54.742 91.747-96.848 152-125 .435-.189 1.56.189 2 0"/><path fill="#89b7c8" d="M808 313c-1.214-.164-1.677 1.685-2 2-8.085 7.874-16.117 15.991-25 23 .219-1.162-1.92-1.884-2-2-32.883-47.582-68.797-76.506-124-96 10.28-10.969 17.325-25.154 20-40 54.446 29.655 95.445 60.649 133 113"/><path fill="#f2fafc" d="M513.5 207c28.15-3.367 30.949 37.054 8 41-30.735 5.284-31.926-38.138-8-41m-2 4c-16.512 3.446-16.026 35.396 6 34 22.22-1.409 19.45-39.312-6-34"/><path fill="#020d18" d="M511.5 211c25.45-5.312 28.22 32.591 6 34-22.026 1.396-22.512-30.554-6-34m-.5 5c-18.161 7.388 1.468 36.113 15 19 2.956-3.739 3.618-6.644 3-11.5-.123-.968-2.652-.004-3-1-.066-.189 3.561-.492 0-4-3.908-3.851-9.908-4.571-15-2.5"/><path fill="#0b88a9" d="m526 235-8 1.5c2.791-4.804 2.184-10.63 8-12l-11-3c-.271 21.03-15.433 4.975-4-5.5 5.092-2.071 11.092-1.351 15 2.5 3.561 3.508-.066 3.811 0 4 .348.996 2.877.032 3 1 .618 4.856-.044 7.761-3 11.5"/><path fill="#1bb5d6" d="M526 235c-13.532 17.113-33.161-11.612-15-19-11.433 10.475 3.729 26.53 4 5.5l11 3c-5.816 1.37-5.209 7.196-8 12z"/><path fill="url(#b)" d="M362 219c34.282 80.289 223.171 75.497 283 30 36.227 13.678 71.368 31.654 100 58l-1 6.5 2-4.5 33 27c.08.116 2.219.838 2 2-5.013 3.956-8.944 8.216-15 11 2.202-6.682-10.421-16.907-16-17-2.762-3.432-6.285-.847-6-8l-.5-2c-.786.054-2.84 3.369-3.5 4-51.531-29.519-119.376-19.155-157 27.5-3.587 4.448-23.734 34.827-15.5 37.5 4.37 1.419 21.85-16.331 27-20 8.422-6 17.433-12.025 26.5-17-.255 2.849-17.344 19.643-11.5 20 1.82-2.81 4.867-2.896 7.5-4-29.56 19.135-52.537 48.937-61 83.5-1.604 6.551-6.697 35.819-6 41 .128.954 2.824.04 3 1 .569 3.111-.125 6.886 1 10.5-4.289-.307-3.36 6.164-3 9.5 7.964 73.703 89.317 108.97 155 103.5 33.946-2.827 73.026-18.815 94-46.5 24.268-32.033 23.698-62.492 15-100.5 3.535-1.207 7.327-1.302 11-2-1.848 5.791 7.963 12.23 9 16.5 1.378 5.674-1.927 40.075-3 48C813.592 670.464 697.117 783.816 562 802c16.855-9.908 32.652-21.237 45-36.5 3.657-4.52 18.437-30.021 20-31 2.048-1.283 4.933.28 7-1-12.345-6.01-25.248-8.872-37.5-15.5-29.087-15.734-62.79-58.42-98-51-26.659 5.618-40.591 36.118-61 51-10.724 7.82-23.594 8.2-32.5 17.5 1.028 1.349 6.019-.121 7.5.5 2.531 1.062 18.888 29.898 23.5 35.5 8.054 9.782 19.56 19.401 30 26.5 1.654 2.412 6.668 7.115 9 9-75.962-2.021-139.04-36.87-193.5-87-11.115-10.231-24.864-28.862-35-37-1.787-1.435-3.692-2.027-3.5 1-41.981-62.995-65.948-139.483-58-216 7.594 2.19 29.063 2.37 33 6-13.57 66.999 12.25 120.639 79.5 139 85.128 23.243 183.237-17.362 185.5-114.5.3 2.407-2.88 4.258-3 4.5 7.142-56.17-22.716-114.61-74-139 3.52-4.145 13.517.565 13.5-7-32.859-20.908-68.72-24.921-106.5-16-16.169-8.841-32.272-30.106-34-49-.443-4.847 2.812-8.368.5-12l-1.5 6.5-40 38.5c-4.447-5.203-5.245-6.19-9-12 36.495-41.63 83.218-70.675 133-94M237.5 595c-11.643 2.41-11.041 22.537-9.5 31.5 7.398 43.031 73.427 107.643 115.5 117.5 17.215 4.033 29.983 5.171 26.5-17.5-2.038-13.263-56.809-52.704-70-67-14.388-15.593-25.336-36.061-39-51-6.07-6.636-13.154-15.641-23.5-13.5M346 682c17.725 10.713 22.485-19.168 11-26-16.051-9.548-26.161 16.836-11 26m41 28c12.048 1.176 13.567-15.109 8-23-14.827-21.015-32.727 20.586-8 23" style="fill:url(#b)"/>/&gt;<path fill="#e6f7fa" d="m779 336-33-27-1-2c-28.632-26.346-63.773-44.322-100-58 2.8-2.129 7.601-6.441 10-9 55.203 19.494 91.117 48.418 124 96"/><path fill="#70dff8" d="M460 265c.945 4.141-1.38 3.315-3 6-11.752-2.015-23.43-4.573-34-10-5.474-2.81-12.491-3.514-9-10 14.5 7.347 30.021 11.281 46 14"/><path fill="#d2e6ed" d="M279 292c-1.146-.176-.943.958-1 1-3.799 2.817-.879 2.619-2 5.5-3.009 7.734-13.968 22.174-20.5 27.5-8.113 6.615-7.446 7.426-16.5 1-.183-.199-.799-1.765-1-2l40-38.5 1.5-6.5c2.312 3.632-.943 7.153-.5 12"/><path fill="#223032" d="M313 341c25.801 14.108 60.996 7.779 93 23 51.284 24.39 81.142 82.83 74 139-5.187 10.443-7.713 22.342-13 32.5-1.084 2.082-3.9 6.198-6 7.5 7.905-12.958 11.52-26.015 12-41 .734-22.886-5.811-45.79-17-66-6.744-12.181-23.664-33.176-35-41-36.436-32.334-105.143-29.679-143.5-2-15.993 11.541-38.229 37.06-39.5 57-2.05 5.694-3.069 12.969-4 19-7.33 47.49 14.706 91.449 60 111 37.789 16.311 78.613 16.856 117 2 9.549-3.695 18.175-8.948 27-14-33.262 27.706-77.184 35.566-119.5 28-68.028-12.163-94.021-54.39-98.5-121-.475-7.056.001-14.674 2-21.5-.736-2.503-13.349 2.22-15 2.5-12.863.961-25.227-1.356-37.5-5l-.5-2c18.685 3.277 36.641-8.24 54-13.5-9.835-.285-19.526 2.222-29.5 1.5-4.035-.292-15.519-2.703-19.5-4-4.485-1.461-11.165-5.193-15-8-5.8-4.247-9.312-8.915-13-15-2.051-3.384-3.646-7.257-6-10.5 2.493-.258 4.106 3.65 6 5.5 5.601 5.472 7.991 7.361 15 11 11.103 5.765 21.306 9.01 34 9.5-12.378-4.65-22.121-9.688-32-18.5.532-1.894.97-1.892 1-2 2.076 1.246 4.679 3.366 7 4 15.776 13.234 43.362 12.208 60.5 3-4.984.411-9.592-1.97-14.5-2-10.839-3.714-21.819-7.95-31-15-4.249-3.262-10.375-9.851-14-14-2.862-3.276-6.203-9.392-8-13.5-1.287-1.472-1.918.407-3 .5l1-6c2.203 3.997 8.507 10.619 12 14 3.344 3.237 7.19 6.313 11 9 15.057 10.619 34.725 19.332 53 16.5-24.82-13.313-38.312-29.635-49-55.5-1.994-4.826-4.114-9.618-6-14.5l7 8.5c.851 5.076 5.763 9.317 9 13 4.284 4.875 8.011 7.942 13 12 8.407 6.837 18.164 15.775 30 16 20.4 10.255 39.754 2.601 60-3.5L252 364c2.024.558 13.132 2.918 14 1.5-11.472-8.12-21.342-19.762-29-31.5-3.755-5.755-7.035-11.81-10-18-2.318-4.84-4.64-9.673-7-14.5 4.292-.003 6.608 7.799 9 11.5 3.755 5.81 4.553 6.797 9 12 .201.235.817 1.801 1 2 6.874 7.506 13.911 13.383 23 18 1.589.807 3.337 1.35 5 2 3.49 1.364 5.952 3.253 10 4 10.586 1.954 20.946.163 31.5 1-1.725-3.866-7.845-6.74-10.5-10-2.285-2.805-5.135-8.64-7-12-6.08-10.953-11.192-24.545-13-37 .057-.042-.146-1.176 1-1 1.728 18.894 17.831 40.159 34 49"/><path fill="#fdfefe" d="M278 293c1.808 12.455 6.92 26.047 13 37-5.472-.925-22.486 9.671-24 14l-5 1c-9.089-4.617-16.126-10.494-23-18 9.054 6.426 8.387 5.615 16.5-1 6.532-5.326 17.491-19.766 20.5-27.5 1.121-2.881-1.799-2.683 2-5.5"/><path fill="#668896" d="m746 309-2 4.5 1-6.5z"/><path fill="#e6f6fb" d="M740 326c-6.286 6.007-9.88 10.679-18 15-36.894-9.56-68.154-5.021-101 13-9.067 4.975-18.078 11-26.5 17-5.15 3.669-22.63 21.419-27 20-8.234-2.673 11.913-33.052 15.5-37.5 37.624-46.655 105.469-57.019 157-27.5"/><path fill="#1d2e32" d="M836 326c-.388-.134-1.436-.07-2 0-3.887.482-10.254 12.491-14 16.5-7.236 7.745-25.193 24.866-35.5 26.5-3.727.591-6.125-1.738-9.5-2 21.215-5.111 34.564-15.329 48-32 4.464-5.539 6.364-9.325 10-15 1.982-3.094 4.876-9.05 8-10.5-1.589 5.301-6.411 10.877-5 16.5"/><path fill="#264046" d="M202 320c2.361 3.4 3.943 7.225 7 11 4.92 6.077 9.975 11.948 16 17 7.54 6.322 17.377 13.345 27 16l50 13.5c-20.246 6.101-39.6 13.755-60 3.5-9.445-4.748-17.984-16.449-24-25-2.803-3.985-6.551-9.804-9-14-3.126-5.357-4.983-13.101-10-17 1.313-6.677-4.511-9.473-5-12-.054-.282-.032-.709 0-1 1.244-1.647 6.375 5.66 8 8"/><path fill="#0d6181" d="M199 325c-.751 3.817-6.472 11.601-9 15l-7-8.5c1.886 4.882 4.006 9.674 6 14.5l-12 24c-1.55 1.472-2.761 3.862-3 6-3.493-3.381-9.797-10.003-12-14-.735-1.334-3.616-6.211-3-7.5 3.657-.217 5.255 1.933 9-1 5.818-4.555 16.947-34.548 26-40.5.489 2.527 6.313 5.323 5 12"/><path fill="#768283" d="M823 335c-13.436 16.671-26.785 26.889-48 32-3.866-.3-7.857 1.613-11 0 11.014-5.455 19.881-13.948 27-24 4.537-4.094 7.041-7.736 10-13 2.241-3.986 5.856-10.235 5-15 .323-.315.786-2.164 2-2 5.184 7.226 10.113 14.576 15 22"/><path fill="#232f31" d="m801 330 .5-9c-11.034 10.084-27.442 28.111-41 34-.466.202-8.507-2.34-8 3-6.337-.891-12.609 1.619-19 1-1.871-.181-11.3-3.95-12-4-7.636-.545-16.065 1.133-22.5 2.5 31.138 3.8 66.88 8.166 92-14.5-7.119 10.052-15.986 18.545-27 24-12.983 6.43-19.625 6.433-33.5 8-1.274.144-8.006.783-7.5 3-41.117-11.844-77.503-7.917-111 19-22.469 18.056-39.246 42.179-47 70-1.392 4.995-3.31 10.922-4 16-3.227 23.752-.294 39.358 11 60-9.169-7.934-10.395-20.812-14-31.5-.283-.84-3.177-2.855-4-5.5-1.125-3.614-.431-7.389-1-10.5-.176-.96-2.872-.046-3-1-.697-5.181 4.396-34.449 6-41 8.463-34.563 31.44-64.365 61-83.5 12.55-5.264 23.989-12.657 37.5-16 20.051-4.962 41.171-2.857 60.5-10l-5.5 6c4.905.811 10.741.246 15.5 1 16.546 2.622 24.755 5.469 41-2 6.056-2.784 9.987-7.044 15-11 8.883-7.009 16.915-15.126 25-23 .856 4.765-2.759 11.014-5 15"/><path fill="#f7fcfd" d="M237 334c-5.756-5.542-16.105 9.349-12 14-6.025-5.052-11.08-10.923-16-17 13.286 10.41 2.214-19.9 17.5-10l.5-5c2.965 6.19 6.245 12.245 10 18"/><path fill="#263f45" d="M801 330c-2.959 5.264-5.463 8.906-10 13-25.12 22.666-60.862 18.3-92 14.5 6.435-1.367 14.864-3.045 22.5-2.5.7.05 10.129 3.819 12 4 6.391.619 12.663-1.891 19-1-.507-5.34 7.534-2.798 8-3 13.558-5.889 29.966-23.916 41-34z"/><path fill="#24383c" d="M744 324c-2.216 5.496-4.546 11.142-8 16-2.962 4.167-7.204 7.628-11 11-4.759-.754-10.595-.189-15.5-1l5.5-6c2.382-.88 4.75-1.803 7-3 8.12-4.321 11.714-8.993 18-15 .66-.631 2.714-3.946 3.5-4z"/><path fill="#d5f0f7" d="M750 332c.664.825 11.979 12.8 7.5 14l-21.5-6c3.454-4.858 5.784-10.504 8-16-.285 7.153 3.238 4.568 6 8"/><path fill="#cae0e7" d="M209 342c-1.913 3.078-3.961 13.674-10 11-3.237-3.683-8.149-7.924-9-13 2.528-3.399 8.249-11.183 9-15 5.017 3.899 6.874 11.643 10 17"/><path fill="#264249" d="M834 326c-.964 6.109-8.977 10.447-6 17-1.974-1.329-1.379-1.044-3 0-6.717 4.323-22.67 36.177-35 41-8.961 2.949-16.721 6.285-26.5 5-9.929-1.305-25.05-13.399-34.5-9-2.172-.765-3.713-1.341-6-2-.506-2.217 6.226-2.856 7.5-3 13.875-1.567 20.517-1.57 33.5-8 3.143 1.613 7.134-.3 11 0 3.375.262 5.773 2.591 9.5 2 10.307-1.634 28.264-18.755 35.5-26.5 3.746-4.009 10.113-16.018 14-16.5"/><path fill="#0d6586" d="M836 326c4.615 1.589 16.674 31.733 20.5 33 2.302.763 11.542-1.466 12.5 1.5l-4 9.5c-.333.009-.667-.007-1 0l-12.5 13c-1.67.041-6.419-9.234-7.5-11-2.211-3.612-4.233-7.149-6-11-.644-1.404-.184-4.414-3-4 1.514-3.853 4.201-7.296 5-11.5l-8 3.5c-.864-1.729-2.476-4.974-4-6-2.977-6.553 5.036-10.891 6-17 .564-.07 1.612-.134 2 0"/><path fill="#def2f8" d="M291 330c1.865 3.36 4.715 9.195 7 12-5.606 4.981-15.954 3.644-21.5 6-3.065 1.302 1.469.368.5 3-4.048-.747-6.51-2.636-10-4 2-1.975-.05-2.858 0-3 1.514-4.329 18.528-14.925 24-14"/><path fill="#83abba" d="M766 349c-16.245 7.469-24.454 4.622-41 2 3.796-3.372 8.038-6.833 11-11l21.5 6c4.479-1.2-6.836-13.175-7.5-14 5.579.093 18.202 10.318 16 17"/><path fill="#cfdfe3" d="M237 334c7.658 11.738 17.528 23.38 29 31.5-.868 1.418-11.976-.942-14-1.5-9.623-2.655-19.46-9.678-27-16-4.105-4.651 6.244-19.542 12-14"/><path fill="#b9d0d6" d="M406 364c-32.004-15.221-67.199-8.892-93-23 37.78-8.921 73.641-4.908 106.5 16 .017 7.565-9.98 2.855-13.5 7"/><path fill="#9cbbc5" d="M722 341c-2.25 1.197-4.618 2.12-7 3-19.329 7.143-40.449 5.038-60.5 10-13.511 3.343-24.95 10.736-37.5 16-2.633 1.104-5.68 1.19-7.5 4-5.844-.357 11.245-17.151 11.5-20 32.846-18.021 64.106-22.56 101-13"/><path fill="#f1f8fb" d="m218 356-6 9c-4.989-4.058-8.716-7.125-13-12 6.039 2.674 8.087-7.922 10-11 2.449 4.196 6.197 10.015 9 14"/><path fill="#b1cdd5" d="M277 351c.969-2.632-3.565-1.698-.5-3 5.546-2.356 15.894-1.019 21.5-6 2.655 3.26 8.775 6.134 10.5 10-10.554-.837-20.914.954-31.5-1"/><path fill="#5a483a" d="M828 343c1.524 1.026 3.136 4.271 4 6 .68 1.361 3.005 3.27 3 3.5-.044 1.86-8.671 7.185-10 8.5v-18c1.621-1.044 1.026-1.329 3 0"/><path fill="#7e9aa3" d="M825 361c-12.537 12.412-17.724 17.314-35 23 12.33-4.823 28.283-36.677 35-41z"/><path fill="#948675" d="M267 344c-.05.142 2 1.025 0 3-1.663-.65-3.411-1.193-5-2z"/><path fill="#222f32" d="M835 357c-6.724 17.114-15.029 27.194-29 39-4.9 2.332-9.851 4.698-15 6.5 16.898 2.276 36.55-1.432 50.5-11.5 11.411-8.236 5.263-6.912 2.5-19 1.081 1.766 5.83 11.041 7.5 11l12.5-13c-.003.855.778 1.018 1 2l-18 17.5c.989-.444 4.768-.403 5-.5-.244.355-.82 1.811-1 2-8.3 8.729-21.787 15.871-33 20-5.393.755-11.28 2.422-16.5 4 16.858 4.88 41.97 8.283 55.5-5 .865 2.869-.182 2.367 0 3-7.936 8.429-21.598 9.001-29.5 15 2.492-.09 5.022.129 7.5 0 7.279-.379 19.095-3.386 26-6 13.929-5.272 25.219-16.186 37-25 .224.864-.212 2.118 0 3-5.338 7.881-11.127 16.367-19 22-5.478 3.92-10.934 5.58-17 8-14.746 5.884-24.702 9.08-41 8-5.457-.362-10.372-3.672-15.5-4-.518 1.661 9.95 6.443 11.5 7 5.827 7.316 15.227 13.146 24 16-10.39-1.012-20.194.89-29.5-6-1.511.916 2.399 8.978 2.5 12.5.208 7.258-4.867 13.777-2 20.5-13.97 69.657-30.054 105.249-107 115-49.165 6.231-99.621-7.521-128-49 8.676 9.866 17.022 16.19 28 23 55.221 34.257 138.198 26.432 178-28 13.237-18.103 18.053-37.489 18-60-.023-9.648-.845-15.716-3-25-.135-.583.146-1.434 0-2 2.052-3.568-.554-11.627-2-15.5-10.488-28.088-39.156-52.689-67-62.5 9.45-4.399 24.571 7.695 34.5 9 9.779 1.285 17.539-2.051 26.5-5 17.276-5.686 22.463-10.588 35-23 1.329-1.315 9.956-6.64 10-8.5.005-.23-2.32-2.139-3-3.5l8-3.5c-.799 4.204-3.486 7.647-5 11.5"/><path fill="#f7fcfd" d="M189 346c10.688 25.865 24.18 42.187 49 55.5-18.275 2.832-37.943-5.881-53-16.5 7.44.415 5.811-9.152 10-13.5-6.927-2.865-11.586-7.591-18-1.5z"/><path fill="#cfe0e5" d="M218 356c6.016 8.551 14.555 20.252 24 25-11.836-.225-21.593-9.163-30-16z"/><path fill="#787f7e" d="M838 361c-3.098 19.321-16.082 27.423-32 35 13.971-11.806 22.276-21.886 29-39 2.816-.414 2.356 2.596 3 4"/><path fill="#7d9ca7" d="M844 372c2.763 12.088 8.911 10.764-2.5 19-13.95 10.068-33.602 13.776-50.5 11.5 5.149-1.802 10.1-4.168 15-6.5 15.918-7.577 28.902-15.679 32-35 1.767 3.851 3.789 7.388 6 11"/><path fill="#d7ebf1" d="M185 385c-3.81-2.687-7.656-5.763-11-9 .239-2.138 1.45-4.528 3-6 6.414-6.091 11.073-1.365 18 1.5-4.189 4.348-2.56 13.915-10 13.5"/><path fill="#126280" d="M172 381c-3.953 7.591-5.699 15.844-8 24-.03.108-.468.106-1 2-.822 2.924-1.676 5.961-2 9-7.009-3.639-9.399-5.528-15-11l11-33c2.31-.748 3.573-1.118 2-3 .978-.156 1.076-.92 2-1 1.082-.093 1.713-1.972 3-.5 1.797 4.108 5.138 10.224 8 13.5"/><path fill="#091d33" d="M159 369c1.573 1.882.31 2.252-2 3-.503.163-1.449-.151-2 0-5.47 1.501-24.53 4.322-27.5 6-6.132 3.465-10.918 27.584-12.5 35l-1.5-8c-8.702 1.961-9.483-1.2-13.5 7-19.943 40.716-16.428 146.789 0 189 1.116 2.867 4.425 13.135 7 14 1.094.367 10.563.114 11-.5-3.29-10.064-6.345-21.068-8-31.5-3.806-23.989-5.565-48.7-5-73 .218-9.353 1.443-17.117 2-26 .265 11.97-.359 24.036 0 36 .902 30.043 4.282 78.073 16 105.5 9.772 22.872 13.429 13.351 36 16.5 1.78.724 3.39.534 5 2-6.844-1.845-28.795.799-33.5-1-3.611-1.381-9.549-23.599-11.5-25.5-4.242-4.134-10.278 1.317-14-1-9.366-5.831-20.302-73.179-21-86-1.46-26.842 2.335-100.128 15-123 3.599-6.499 13.893-2.55 17-7 2.345-3.359 3.943-22.555 9.5-25.5 3.325-1.762 27.737-5.078 33.5-6"/><path fill="#061d2e" d="M910 615c.692-.106 4.77-.889 5-1 14.292-6.881 19.743-85.78 20-102 .341-21.482.148-43.232-3-64.5-.992-6.704-6.626-37.113-12-39.5-1.157-.514-11.495-2.152-12-.5 8.82 34.688 9.432 70.853 9 106.5h-2c1.013-39.233.285-79.957-13-117-7.937-22.131-7.795-19.568-33-24-1.241-.218-2.716.141-4 0-.075-.316.072-.683 0-1-.222-.982-1.003-1.145-1-2 .333-.007.667.009 1 0 3.96-.111 32.132 5.426 34 7.5 2.458 2.729 6.467 22.377 8 24 2.384 2.524 13.818.998 17 5 5.774 7.263 14.521 72.822 15 85 1.193 30.332-4.106 88.733-17 116-3.436 7.265-3.011 8.437-12 7.5"/><path fill="#eaf9fc" d="M155 372c-4.811 5.781-25.374 7.027-29 12.5-1.152 1.739-5.322 24.073-6 28-2.864 16.585-5.12 38.678-6 55.5-.797 15.221-.319 32.643 0 48l-7 4c-.359-11.964.265-24.03 0-36 1.485-23.695 3.046-47.784 8-71 1.582-7.416 6.368-31.535 12.5-35 2.97-1.678 22.03-4.499 27.5-6"/><path fill="#16aace" d="m157 372-11 33c-1.894-1.85-3.507-5.758-6-5.5 2.354 3.243 3.949 7.116 6 10.5-6.772 18.471-10.076 39.402-12 59l-20-1c.88-16.822 3.136-38.915 6-55.5.678-3.927 4.848-26.261 6-28 3.626-5.473 24.189-6.719 29-12.5.551-.151 1.497.163 2 0"/><path fill="#01030c" d="M421 395c-44.542-30.743-120.37-20.967-158 17-10.018 10.108-20.173 24.596-25 38 1.271-19.94 23.507-45.459 39.5-57 38.357-27.679 107.064-30.334 143.5 2"/><path fill="#01030d" d="M723 378c2.287.659 3.828 1.235 6 2 27.844 9.811 56.512 34.412 67 62.5 1.446 3.873 4.052 11.932 2 15.5-19.586-76.037-124.757-102.413-186-61 33.497-26.917 69.883-30.844 111-19"/><path fill="#106f8f" d="M865 372c.072.317-.075.684 0 1 2.808 11.833 8.591 23.124 11.5 35l19.5-17c.723 2.042 1.441 3.847 2 6-11.781 8.814-23.071 19.728-37 25 .302-1.322-.526-1.959-1-3l16-8.5c-4.879-2.018-11.984 5.145-17 6.5-.76-1.941-1.938-3.785-2-4-.182-.633.865-.131 0-3-.092-.305.094-.695 0-1-1.855-6.049-3.306-12.236-6-18 .18-.189.756-1.645 1-2 .283-.412 3.321-1.23 1.5-3-1.588.553-1.345 2.936-1.5 3-.232.097-4.011.056-5 .5z"/><path fill="#15a9ce" d="M869 373c3.728 5.983 19.126 4.944 23.5 8 3.695 2.581 2.605 7.47 3.5 10l-19.5 17c-2.909-11.876-8.692-23.167-11.5-35 1.284.141 2.759-.218 4 0"/><path fill="#bbe7f3" d="M902 397c-2.339 1.073-3.554 1.058-3 4-.016-.069-.667.385-1-1-.212-.882.224-2.136 0-3-.559-2.153-1.277-3.958-2-6-.895-2.53.195-7.419-3.5-10-4.374-3.056-19.772-2.017-23.5-8 25.205 4.432 25.063 1.869 33 24"/><path fill="#778487" d="M421 395c11.336 7.824 28.256 28.819 35 41l-5 1c-34.925-62.055-130.01-75.607-175-16l-13-9c37.63-37.967 113.458-47.743 158-17"/><path fill="#748184" d="M798 458c.146.566-.135 1.417 0 2l-23-5c-29.239-104.586-180.873-87.678-202 7-3.125 2.247-3.067 6.141-8 5 7.754-27.821 24.531-51.944 47-70 61.243-41.413 166.414-15.037 186 61"/><path fill="#d9edf1" d="m186 395-7 15c-2.211-.38-5.994-.452-8-1-2.321-.634-4.924-2.754-7-4 2.301-8.156 4.047-16.409 8-24 3.625 4.149 9.751 10.738 14 14"/><path fill="#0f6086" d="M451 437c9.085 16.142 12.253 31.573 12 50-.04 2.93.275 6.119 0 9-6.773-6.328-9.6-15.491-16-22.5-4.631-5.072-15.133-12.706-21-18-.669-.604-3.602-2.525-3 .5a60 60 0 0 0-1-2c-15.461-29.958-53.077-46.02-85-34-14.711-10.302-33.064-1.569-44 10-1.64 1.735-2.486 3.438-3 4-.81.886-1.047 5.373-4.5 8-6.208 4.723-22.146 4.272-23 15l-3.5-1c.087-.309-.091-.694 0-1 3.353-11.295 9.931-24.634 17-34 44.99-59.607 140.075-46.055 175 16"/><path fill="#1f5568" d="M775 455c1.65 5.901 3.556 12.924 4 19-5.052-3.186-17.187-15.085-22.5-16-5.018-.864-9.772 4.22-15.5 2-10.953-29.816-54.398-54.643-85-40-18.561-13.19-50.288 4.108-48 28-.987 6.114-8.295 17.612 2 15.5-2.068 4.303-2.803 8.761-3 13.5-7.535.361-.578-9.662-3.5-12-2.135-1.708-27.459 11.99-32.5 11 .257-3.605 1.222-10.515 2-14 21.127-94.678 172.761-111.586 202-7"/><path fill="#222f32" d="M852 389c.155-.064-.088-2.447 1.5-3 1.821 1.77-1.217 2.588-1.5 3"/><path fill="#8098a0" d="M857 409c-12.711.806-26.505.25-39 2 11.213-4.129 24.7-11.271 33-20 2.694 5.764 4.145 11.951 6 18"/><path fill="#eff9fa" d="M217 410c-14.379-.087-22.037 2.746-38 0l7-15c9.181 7.05 20.161 11.286 31 15"/><path fill="#edfbfd" d="M915 514c-.306 11.844-.976 24.195-2 36-4.314-.026 1.62-3.904-4.5-3-1.594 1.393 1.22 6.74-2.5 6 3.045-37.726 2.98-77.385-1-115-1.243-11.748-3.36-25.515-6-37-.554-2.942.661-2.927 3-4 13.285 37.043 14.013 77.767 13 117"/><path fill="#14a7cc" d="M899 401c2.64 11.485 4.757 25.252 6 37l-21.5 4-4.5-20c7.873-5.633 13.662-14.119 19-22 .333 1.385.984.931 1 1"/><path fill="#20b6d8" d="M115 413c-4.954 23.216-6.515 47.305-8 71-.557 8.883-1.782 16.647-2 26-6.58 2.769-1.315 11.849-3 16.5-1.141 3.15-9.686 2.913-11 7.5-2.08-40.884 3.246-81.828 9-122 4.017-8.2 4.798-5.039 13.5-7z"/><path fill="#30c1e0" d="M920 408c10.491 33.784 11.948 69.04 15 104-.257 16.22-5.708 95.119-20 102 .088-.627-.166-1.617 0-2 7.025-16.178 11.191-32.484 14-50 2.094-13.056 3.997-26.195 4-39.5l-13.5-.5-2.5 13c.354-6.967-.084-14.058 0-21 .432-35.647-.18-71.812-9-106.5.505-1.652 10.843-.014 12 .5"/><path fill="#dbeaef" d="M161 416c.324-3.039 1.178-6.076 2-9 9.879 8.812 19.622 13.85 32 18.5-12.694-.49-22.897-3.735-34-9.5"/><path fill="#d9f6fa" d="M935 512c-3.052-34.96-4.509-70.216-15-104 5.374 2.387 11.008 32.796 12 39.5 3.148 21.268 3.341 43.018 3 64.5"/><path fill="#bfd0d3" d="M179 410c15.963 2.746 23.621-.087 38 0 4.908.03 9.516 2.411 14.5 2-17.138 9.208-44.724 10.234-60.5-3 2.006.548 5.789.62 8 1"/><path fill="#67777a" d="M857 409c.094.305-.092.695 0 1-13.53 13.283-38.642 9.88-55.5 5 5.22-1.578 11.107-3.245 16.5-4 12.495-1.75 26.289-1.194 39-2"/><path fill="#1a2931" d="M860 419c-.326-.717-.712-1.265-1-2 5.016-1.355 12.121-8.518 17-6.5z"/><path fill="#175f7b" d="M159 425C97.158 654.987 320.628 868.38 546 841c8.367.444 27.891-3.366 37-5 180.708-32.413 307.455-194.828 284-379-.464-3.641-.399-8.454-1-12-.107-.63.11-1.372 0-2 3.518 2.688 15.583-2.089 18 .5 4.643 4.975 4.551 79.717 1 91l21 4-3 42.5c-2.802 19.701-6.726 39.444-14 58-10.187 4.442-25.339 3.321-34 10-2.476.873-3.751-.566-7 2.5-4.28 4.039-23.4 41.563-30 51-153.416 219.349-469.962 209.32-622-6-7.832-11.091-25.295-46.397-32-52.5-1.61-1.466-3.22-1.276-5-2-.114-.046.375-1.747-.5-2-6.736-1.947-20.069.651-25-1-6.026-2.017-13.365-48.057-14.5-56 5.854-2.952 14.868-4.682 21.5-4 .98-.759-1.189-10.956-1.5-13-5.441-35.765-8.602-60.307-5-97 1.924-19.598 5.228-40.529 12-59 3.688 6.085 7.2 10.753 13 15"/><path fill="#d4f4fa" d="M91 534c.894 17.58 4.129 32.077 8 49 1.141 4.989 1.633 9.986 3 15l-2 3c-16.428-42.211-19.943-148.284 0-189-5.754 40.172-11.08 81.116-9 122"/><path fill="#899497" d="M276 421c-7.069 9.366-13.647 22.705-17 34l-25 14c.931-6.031 1.95-13.306 4-19 4.827-13.404 14.982-27.892 25-38z"/><path fill="#717371" d="M859 417c.288.735.674 1.283 1 2l-25 9c-2.478.129-5.008-.09-7.5 0 7.902-5.999 21.564-6.571 29.5-15 .062.215 1.24 2.059 2 4"/><path fill="#cfd7dc" d="M337 420c.116.081 1.577 1.571 2 2 3.245 3.29 5.076 7.463 6 12 4.6 22.582-15.857 41.042-38 35-2.411-.658-9.183-5.108-11-7-.355-.37-.955-.945-1-1-6.484-7.985-7.2-17.497-4-27 .153-.454 2.682-2.445 2-4 10.936-11.569 29.289-20.302 44-10"/><path fill="#0d334b" d="M422 454c-1.753-.864-4.858 1.248-5.5 1-1.027-.397-9.713-13.526-14-17-14.583-11.817-46.081-24.954-63.5-16-.423-.429-1.884-1.919-2-2 31.923-12.02 69.539 4.042 85 34"/><path fill="#cfd8dd" d="M656 420c.058.041.445.511 1 1 2.46 2.168 4.943 6.789 6 10 8.466 25.72-15.126 44.335-40 37-.768-.227-3.892-3.168-6-4-3.766-4.171-8.438-10.135-9-16-2.288-23.892 29.439-41.19 48-28"/><path fill="#173646" d="M741 460c5.845 15.912 5.276 26.267 0 42-1.705 5.085-4.142 9.502-7 14-1.136-4.578 3.952-10.179 5-14.5 4.597-18.959.387-37.087-11-52.5-12.32-16.676-34.94-27.708-54.5-30-5.211-.611-11.646-.362-16.5 2-.555-.489-.942-.959-1-1 30.602-14.643 74.047 10.184 85 40"/><path fill="#01537c" d="M422 454c.296.574.751 1.458 1 2 12.454 27.134 4.401 56.063-18 75 10.55-10.554 19.478-27.282 20-42.5.356-10.368-4.634-45.894-19-25.5-9.42-20.562-38.785-37.059-61-29-.924-4.537-2.755-8.71-6-12 17.419-8.954 48.917 4.183 63.5 16 4.287 3.474 12.973 16.603 14 17 .642.248 3.747-1.864 5.5-1"/><path fill="#10475c" d="m728 449-20-4c-13.367-11.236-28.155-13.051-45-14-1.057-3.211-3.54-7.832-6-10 4.854-2.362 11.289-2.611 16.5-2 19.56 2.292 42.18 13.324 54.5 30"/><path fill="#6ea2ad" d="M861 422c-6.905 2.614-18.721 5.621-26 6l25-9c.474 1.041 1.302 1.678 1 3"/><path fill="#11789c" d="M905 438c3.98 37.615 4.045 77.274 1 115-.755 9.347-1.68 18.722-3 28l3-42.5-21-4c3.551-11.283 3.643-86.025-1-91-2.417-2.589-14.482 2.188-18-.5-.436-2.493-1.363-5.478-2-8-.363-1.437-1.435-3.516-2-5 6.066-2.42 11.522-4.08 17-8l4.5 20z"/><path fill="url(#c)" d="m174 433-5 16 .5 2c12.273 3.644 24.637 5.961 37.5 5-.158.027-1.872 1.908-2.5 2-5.019.735-34.235-1.23-36 0-1.631 1.74.52 1.899.5 2-18.17 94.015 45.933 221.442 119 279 2.108 2.099 2.63 1.937 4 3 .887.689.664 4.227 3 2.5-.491-2.21-2.864-2.36-3-2.5-2.14-2.203-2.706-1.98-4-3-17.097-17.023-31.637-34.948-45-55-.192-3.027 1.713-2.435 3.5-1 10.136 8.138 23.885 26.769 35 37 54.46 50.13 117.538 84.979 193.5 87 .653.528 5.09 2.41 6 3 18.652 12.087 24.69 13.907 47 8 3.302-.874 6.841-1.745 10-3l-1 24.5c2.589-.068 7.072 1.398 9 1.5-225.372 27.38-448.842-186.013-387-416 3.835 2.807 10.515 6.539 15 8m124.5 314c.922 3.61 6.985 7.96 10.5 8.5zm14 11c-.726 1.852 6.934 6.493 7.5 4.5z" style="fill:url(#c)"/>/&gt;<path fill="#26657e" d="M291 434h-1c.514-.562 1.36-2.265 3-4 .682 1.555-1.847 3.546-2 4"/><path fill="#6c9aaa" d="m864 435-12 8.5 14 1.5c.601 3.546.536 8.359 1 12-1.427-.429-1.9.725-3 1-9.306 2.324-13.746-.283-22-1 5.425-1.718 20.133-1.54 21.5-8-12.71 5.055-29.778-3.426-42.5-8v-3c16.298 1.08 26.254-2.116 41-8 .565 1.484 1.637 3.563 2 5"/><path fill="url(#d)" d="M708 445c23.932 20.116 22.006 43.993 9 69-7.702-4.175-25.354 7.709-19 16-15.039 4.47-20.462 7.939-38 3-21.481-6.049-36.887-30.76-39-50.5-.532-4.967.964-9.764 2-14.5 24.874 7.335 48.466-11.28 40-37 16.845.949 31.633 2.764 45 14" style="fill:url(#d)"/>/&gt;<path fill="url(#e)" d="M406 463c9.832 21.46 5.529 33.94-5 53-8.258-3.754-21.851 5.797-20 15-19.05 5.138-25.322 7.966-45-2-22.208-11.247-33.625-36.025-29-60 22.143 6.042 42.6-12.418 38-35 22.215-8.059 51.58 8.438 61 29" style="fill:url(#e)"/>/&gt;<path fill="#edf8fa" d="M174 433c3.981 1.297 15.465 3.708 19.5 4 9.974.722 19.665-1.785 29.5-1.5-17.359 5.26-35.315 16.777-54 13.5z"/><path fill="#5a5c56" d="M821 438v3c-.969-.348-3.031.348-4 0-1.55-.557-12.018-5.339-11.5-7 5.128.328 10.043 3.638 15.5 4"/><path fill="url(#f)" d="M295 461c-5.4 10.918-4.328 23.254-3 35-8.774 4.412 3.354 30.181 12 26 1.833 2.42 5.764 6.766 8 9 25.163 25.142 68.126 24.884 93 0 22.401-18.937 30.454-47.866 18-75-.602-3.025 2.331-1.104 3-.5 5.867 5.294 16.369 12.928 21 18 6.4 7.009 9.227 16.172 16 22.5-2.991 31.329-28.113 62.458-56 76-31.64 15.364-73.718 15.885-104-3-15.994-9.974-36.625-35.033-42-53-3.823-12.779-4.308-26.842-6-40 .525-6.396 2.253-13.79 4-20l3.5 1c.854-10.728 16.792-10.277 23-15 3.453-2.627 3.69-7.114 4.5-8h1c-3.2 9.503-2.484 19.015 4 27" style="fill:url(#f)"/>/&gt;<path fill="#62abc2" d="M864 435c.637 2.522 1.564 5.507 2 8 .11.628-.107 1.37 0 2l-14-1.5z"/><path fill="#8f9fa1" d="M456 436c11.189 20.21 17.734 43.114 17 66l-10-15c.253-18.427-2.915-33.858-12-50z"/><path fill="#21363b" d="M821 441c12.722 4.574 29.79 13.055 42.5 8-1.367 6.46-16.075 6.282-21.5 8-.331-.029-.67.032-1 0-8.773-2.854-18.173-8.684-24-16 .969.348 3.031-.348 4 0"/><path fill="#247392" d="M728 449c11.387 15.413 15.597 33.541 11 52.5-1.048 4.321-6.136 9.922-5 14.5-4.34 6.831-11.419 15.391-18 20-18.707 13.101-43.493 16.327-65 9-5.137-1.75-11.57-5.79-16-9 .394-2.909 1.325-1.658-.5-4-3.917-5.027-11.214-8.888-15.5-15.5-9.503-14.658-13.83-38.388-6.5-54.5a52 52 0 0 0 4.5 2c2.108.832 5.232 3.773 6 4-1.036 4.736-2.532 9.533-2 14.5 2.113 19.74 17.519 44.451 39 50.5-16.509 14.029 14.341 14.869 23.5 14 5.704-.541 34.303-9.601 33.5-16.5-.04-.345-3.833-5.552-6-3.5 6.392-4.856 4.823-10.737 6-13 13.006-25.007 14.932-48.884-9-69z"/><path fill="#173f54" d="M617 464a52 52 0 0 1-4.5-2c-7.33 16.112-3.003 39.842 6.5 54.5 4.286 6.612 11.583 10.473 15.5 15.5 1.825 2.342.894 1.091.5 4-3.933-2.85-6.673-5.521-10-9-2.158-2.257-3.954-6.657-7-6 2.257-3.849-3.546-8.285-5-12-1.2-3.067-4.417-9.56-5-12-1.501-6.286-1.267-13.569-1-20 .197-4.739.932-9.197 3-13.5-10.295 2.112-2.987-9.386-2-15.5.562 5.865 5.234 11.829 9 16"/><path fill="#4c3f28" d="M841 457c.33.032.669-.029 1 0 8.254.717 12.694 3.324 22 1-.907 1.928-4.234 4.154-6 5-9.201 4.407-22.052 5.11-32 7-3.673.698-7.465.793-11 2l-2 .5c.331 3.925-.238 7.699-1 11.5-2.867-6.723 2.208-13.242 2-20.5-.101-3.522-4.011-11.584-2.5-12.5 9.306 6.89 19.11 4.988 29.5 6"/><path fill="#b2cbd2" d="M220 475c-.475-.117-1.808-.823-2-1-3.937-3.63-25.406-3.81-33-6-4.128-1.19-11.385-6.532-16-8 .02-.101-2.131-.26-.5-2 1.765-1.23 30.981.735 36 0 .628-.092 2.342-1.973 2.5-2 1.651-.28 14.264-5.003 15-2.5-1.999 6.826-2.475 14.444-2 21.5"/><path fill="#95a2a7" d="M798 460c2.155 9.284 2.977 15.352 3 25-6.749-3.763-15.634-6.986-22-11-.444-6.076-2.35-13.099-4-19z"/><path fill="#c8d5d9" d="M259 456c-1.747 6.21-3.475 13.604-4 20-1.104 13.451-.237 27.737 6 40 5.375 17.967 26.006 43.026 42 53-3.244 4.363-2.805 11.226-9 11-45.294-19.551-67.33-63.51-60-111l25-14c-.091.306.087.691 0 1"/><path fill="#0884b4" d="M405 531c-24.874 24.884-67.837 25.142-93 0l2.5-3c-19.4-15.393-25.948-42.763-18.5-66 1.817 1.892 8.589 6.342 11 7-4.625 23.975 6.792 48.753 29 60-.769 4.506-6.122 7.824-2.5 12 1.814 2.092 7.96 1.358 10 2 11.807 3.713 12.174 3.359 26 2 2.188-.215 2.984 1.334 5 1 .557-.092 8.387-2.377 10-3 2.04-.788 16.555-9.12 17-10 2.3-4.544-3.365-4.959-2.5-9 2.288-3.302 1.483-7.063 2-8 10.529-19.06 14.832-31.54 5-53 14.366-20.394 19.356 15.132 19 25.5-.522 15.218-9.45 31.946-20 42.5"/><path fill="#4aaec9" d="M867 457c23.455 184.172-103.292 346.587-284 379-.662-1.953 3.281-2.726 4.5-3C741.632 798.354 878.891 653.798 866 488.5c-.614-7.873-.9-21.221-8-25.5 1.766-.846 5.093-3.072 6-5 1.1-.275 1.573-1.429 3-1"/><path fill="url(#g)" d="M779 474c1.633 22.361-3.27 43.141-15 62-32.123 51.647-103.833 61.159-152 26-26.135-19.077-42.11-50.905-41-83 .034-.99-.07-2.015 0-3 5.041.99 30.365-12.708 32.5-11 2.922 2.338-4.035 12.361 3.5 12-.267 6.431-.501 13.714 1 20-7.374.021-1.542 11.576 0 15 1.874 4.161 3.793 8.08 7.5 11l2.5-2c3.046-.657 4.842 3.743 7 6-3.336 10.95 13.723 20.075 22 24 28.098 13.325 50.764 8.315 74-11 9.855-8.192 25.807-24.306 20-38 5.276-15.733 5.845-26.088 0-42 5.728 2.22 10.482-2.864 15.5-2 5.313.915 17.448 12.814 22.5 16" style="fill:url(#g)"/>/&gt;<path fill="#e3f7fb" d="M185 468c-7.948 76.517 16.019 153.005 58 216 13.363 20.052 27.903 37.977 45 55-73.067-57.558-137.17-184.985-119-279 4.615 1.468 11.872 6.81 16 8"/><path fill="#065682" d="M296 462c-7.448 23.237-.9 50.607 18.5 66l-2.5 3c-2.236-2.234-6.167-6.58-8-9-3.627-4.787-11.323-20.01-12-26-1.328-11.746-2.4-24.082 3-35 .045.055.645.63 1 1"/><path fill="#9aa7a9" d="M571 476c-.07.985.034 2.01 0 3l-10 4c.69-5.078 2.608-11.005 4-16 4.933 1.141 4.875-2.753 8-5-.778 3.485-1.743 10.395-2 14"/><path fill="#457d90" d="M858 463c7.1 4.279 7.386 17.627 8 25.5C878.891 653.798 741.632 798.354 587.5 833c-1.219.274-5.162 1.047-4.5 3-9.109 1.634-28.633 5.444-37 5-1.928-.102-6.411-1.568-9-1.5l1-24.5c7.009-2.784 17.235-9.023 24-13 135.117-18.184 251.592-131.536 270-267.5 1.073-7.925 4.378-42.326 3-48-1.037-4.27-10.848-10.709-9-16.5 9.948-1.89 22.799-2.593 32-7"/><path fill="#0a8ab1" d="M134 469c-3.602 36.693-.441 61.235 5 97h-22c-1.738-16.6-2.653-33.311-3-50-.319-15.357-.797-32.779 0-48z"/><path fill="#598694" d="M815 472c8.698 38.008 9.268 68.467-15 100.5-20.974 27.685-60.054 43.673-94 46.5l-1-20c76.946-9.751 93.03-45.343 107-115 .762-3.801 1.331-7.575 1-11.5z"/><path fill="#8da9b2" d="M220 475c4.479 66.61 30.472 108.837 98.5 121 42.316 7.566 86.238-.294 119.5-28 7.789-6.488 17.721-16.345 23-25 2.1-1.302 4.916-5.418 6-7.5 5.287-10.158 7.813-22.057 13-32.5.12-.242 3.3-2.093 3-4.5-2.263 97.138-100.372 137.743-185.5 114.5-67.25-18.361-93.07-72.001-79.5-139 .192.177 1.525.883 2 1"/><path fill="#c1d0d4" d="M801 485c.053 22.511-4.763 41.897-18 60l-19-9c11.73-18.859 16.633-39.639 15-62 6.366 4.014 15.251 7.237 22 11"/><path fill="#5ccbdf" d="M261 516c-6.237-12.263-7.104-26.549-6-40 1.692 13.158 2.177 27.221 6 40"/><path fill="#c1d0d4" d="M571 479c-1.11 32.095 14.865 63.923 41 83l-7 11c-10.978-6.81-19.324-13.134-28-23-1.576-2.303-3.661-4.552-5-7-11.294-20.642-14.227-36.248-11-60z"/><path fill="#c8d5d9" d="M473 502c-.48 14.985-4.095 28.042-12 41-5.279 8.655-15.211 18.512-23 25-8.825 5.052-17.451 10.305-27 14l-4-1.5c4.742-1.447-.702-5.1 0-8.5 27.887-13.542 53.009-44.671 56-76 .275-2.881-.04-6.07 0-9z"/><path fill="#1a779b" d="M304 522c-8.646 4.181-20.774-21.588-12-26 .677 5.99 8.373 21.213 12 26"/><path fill="#2e5766" d="M608 497c.583 2.44 3.8 8.933 5 12l-5 3c-1.542-3.424-7.374-14.979 0-15"/><path fill="#3d90ac" d="m721 540-5-4c6.581-4.609 13.66-13.169 18-20 2.858-4.498 5.295-8.915 7-14 5.807 13.694-10.145 29.808-20 38"/><path fill="#749aa7" d="M554 506c.823 2.645 3.717 4.66 4 5.5 3.605 10.688 4.831 23.566 14 31.5 1.339 2.448 3.424 4.697 5 7 28.379 41.479 78.835 55.231 128 49l1 20c-65.683 5.47-147.036-29.797-155-103.5-.36-3.336-1.289-9.807 3-9.5"/><path fill="#2f5d6e" d="m618 521-2.5 2c-3.707-2.92-5.626-6.839-7.5-11l5-3c1.454 3.715 7.257 8.151 5 12"/><path fill="#0997be" d="M105 510c-.565 24.3 1.194 49.011 5 73-3.613 4.091-9.216 5.098-11 0-3.871-16.923-7.106-31.42-8-49 1.314-4.587 9.859-4.35 11-7.5 1.685-4.651-3.58-13.731 3-16.5"/><path fill="#d8e0e5" d="M717 514c-1.177 2.263.392 8.144-6 13-5.768 4.381-10.491 2.254-13 3-6.354-8.291 11.298-20.175 19-16"/><path fill="#040e1a" d="M917 514c-.084 6.942.354 14.033 0 21-.511 10.053-1.75 20.031-3 30-1.978 15.772-4.594 31.726-9 47-.239.828.247 2.194 0 3-.868 2.829-10.28 25.259-11.5 26-5.024 3.051-30.109 5.04-38.5 8 8.661-6.679 23.813-5.558 34-10 1.786-.779 2.64.545 5-2.5 9.953-12.84 17.474-68.905 19-86.5 1.024-11.805 1.694-24.156 2-36z"/><path fill="#d7e4eb" d="M401 516c-.517.937.288 4.698-2 8-6.241 9.008-12.833 5.607-18 7-1.851-9.203 11.742-18.754 20-15"/><path fill="#44d6f5" d="M114 516c.347 16.689 1.262 33.4 3 50 .587 5.605 1.203 11.422 2 17 1.135 7.943 8.474 53.983 14.5 56 4.931 1.651 18.264-.947 25 1 .875.253.386 1.954.5 2-22.571-3.149-26.228 6.372-36-16.5-11.718-27.427-15.098-75.457-16-105.5Z"/><path fill="#0a94ba" d="M929 562c-5.166 3.514-8.745 3.32-15 3 1.25-9.969 2.489-19.947 3-30l2.5-13 13.5.5c-.003 13.305-1.906 26.444-4 39.5"/><path fill="#19afd7" d="M336 529c19.678 9.966 25.95 7.138 45 2 5.167-1.393 11.759 2.008 18-7-.865 4.041 4.8 4.456 2.5 9-.445.88-14.96 9.212-17 10-1.613.623-9.443 2.908-10 3-2.016.334-2.812-1.215-5-1-13.826 1.359-14.193 1.713-26-2-2.04-.642-8.186.092-10-2-3.622-4.176 1.731-7.494 2.5-12"/><path fill="#4295b3" d="M660 533c17.538 4.939 22.961 1.47 38-3 2.509-.746 7.232 1.381 13-3 2.167-2.052 5.96 3.155 6 3.5.803 6.899-27.796 15.959-33.5 16.5-9.159.869-40.009.029-23.5-14"/><path fill="#4091ab" d="M635 536c4.43 3.21 10.863 7.25 16 9l-4 6c-8.277-3.925-25.336-13.05-22-24 3.327 3.479 6.067 6.15 10 9"/><path fill="#54abc5" d="m716 536 5 4c-23.236 19.315-45.902 24.325-74 11l4-6c21.507 7.327 46.293 4.101 65-9"/><path fill="#d9eaee" d="M783 545c-39.802 54.432-122.779 62.257-178 28l7-11c48.167 35.159 119.877 25.647 152-26z"/><path fill="#19c9ee" d="M913 550c-1.526 17.595-9.047 73.66-19 86.5-2.36 3.045-3.214 1.721-5 2.5 7.274-18.556 11.198-38.299 14-58 1.32-9.278 2.245-18.653 3-28 3.72.74.906-4.607 2.5-6 6.12-.904.186 2.974 4.5 3"/><path fill="#225971" d="M929 562c-2.809 17.516-6.975 33.822-14 50h-10c4.406-15.274 7.022-31.228 9-47 6.255.32 9.834.514 15-3"/><path fill="#0f7596" d="M139 566c.311 2.044 2.48 12.241 1.5 13-6.632-.682-15.646 1.048-21.5 4-.797-5.578-1.413-11.395-2-17z"/><path fill="#e0f2f5" d="M407 572c-.702 3.4 4.742 7.053 0 8.5l4 1.5c-38.387 14.856-79.211 14.311-117-2 6.195.226 5.756-6.637 9-11 30.282 18.885 72.36 18.364 104 3"/><path fill="#146c8b" d="M110 583c1.655 10.432 4.71 21.436 8 31.5-.437.614-9.906.867-11 .5-1.145-5.847-3.42-11.205-5-17-1.367-5.014-1.859-10.011-3-15 1.784 5.098 7.387 4.091 11 0"/><path fill="url(#h)" d="M237.5 595c10.346-2.141 17.43 6.864 23.5 13.5 13.664 14.939 24.612 35.407 39 51 13.191 14.296 67.962 53.737 70 67 3.483 22.671-9.285 21.533-26.5 17.5-42.073-9.857-108.102-74.469-115.5-117.5-1.541-8.963-2.143-29.09 9.5-31.5" style="fill:url(#h)"/>/&gt;<path fill="#2ce1f1" d="M107 615c-2.575-.865-5.884-11.133-7-14l2-3c1.58 5.795 3.855 11.153 5 17"/><path fill="#03a4d3" d="M915 612c-.166.383.088 1.373 0 2-.23.111-4.308.894-5 1-1.574.24-3.387-.161-5 0 .247-.806-.239-2.172 0-3z"/><path fill="#e3f3f8" d="M357 656c-5.467 7.347-2.949 22.03-11 26-15.161-9.164-5.051-35.548 11-26"/><path fill="#a9d5e6" d="M346 682c8.051-3.97 5.533-18.653 11-26 11.485 6.832 6.725 36.713-11 26"/><path fill="#324a6c" d="M562 802c-6.765 3.977-16.991 10.216-24 13-3.159 1.255-6.698 2.126-10 3-3.559.272-1.183-5.977-3-9 11.086-1.02 17.326.171 15-13 1.338-.266 4.109-1.524 6-2 31.716-7.985 52.789-23.502 70-51.5 2.282-3.712 5.732-6.935 1-9.5-2.331-1.264-10.285-1.697-13.5-3-24.392-9.883-49.994-38.218-67.5-44-34.524-27.257-60.308 2.164-81 29-5.108 2.357-9.608 8.006-14.5 11-4.321 2.645-18.443 6.405-18.5 10.5-.021 1.517 2.679 3.89 3 4.5 6.714 12.764 22.441 31.012 33 41 3.066 2.9 6.676 5.357 9 9-2.351-.134-2.798.303-4 2.5.289 1.794 1.921 2.927 3 4.5-10.44-7.099-21.946-16.718-30-26.5-4.612-5.602-20.969-34.438-23.5-35.5-1.481-.621-6.472.849-7.5-.5 8.906-9.3 21.776-9.68 32.5-17.5 20.409-14.882 34.341-45.382 61-51 35.21-7.42 68.913 35.266 98 51 12.252 6.628 25.155 9.49 37.5 15.5-2.067 1.28-4.952-.283-7 1-1.563.979-16.343 26.48-20 31-12.348 15.263-28.145 26.592-45 36.5"/><path fill="#cfafc6" d="M536 686c-.516-.171-9.458-1.954-10-2-25.418-11.56-47.992 16.858-66 32-.468-2.079-4.134-1.399-5-1 20.692-26.836 46.476-56.257 81-29"/><path fill="#f5eef3" d="M526 684c-37.324-3.159-49.092 26.352-78 41.5 3.506-3.771 8.109-6.228 12-9.5 18.008-15.142 40.582-43.56 66-32"/><path fill="#d6ebf3" d="m395 687-8 23c-24.727-2.414-6.827-44.015 8-23"/><path fill="url(#i)" d="M526 684c.542.046 9.484 1.829 10 2 17.506 5.782 43.108 34.117 67.5 44 3.215 1.303 11.169 1.736 13.5 3-5.72 4.167-11.27 4.885-18 5-14.068.24-28.312-6.954-42.5-8-26.519-1.954-56.939 3.39-84 1L443 741c-3.144.234-7.527.944-10 1-1.254.029-5.63-2.028-8-1-.321-.61-3.021-2.983-3-4.5.057-4.095 14.179-7.855 18.5-10.5 4.892-2.994 9.392-8.643 14.5-11 .866-.399 4.532-1.079 5 1-3.891 3.272-8.494 5.729-12 9.5 28.908-15.148 40.676-44.659 78-41.5m-10.5 13c-9.981 2.647-1.244 15.214 6 13 4.581-1.4 7.001-16.448-6-13m-31 16c-2.759.842-2.41 4.523 0 5 4.714.932 7.968-7.433 0-5m-16 1c-2.151.414-1.052 3.56 1 3 1.69-.461 2.683-3.708-1-3m-10 8c-3.163-.113.427 3.271 1 3 .911-.43 1.237-2.92-1-3m-5 3c-2.151.414-1.052 3.56 1 3 1.69-.461 2.683-3.708-1-3" style="fill:url(#i)"/>/&gt;<path fill="#8ec4d9" d="m387 710 8-23c5.567 7.891 4.048 24.176-8 23"/><path fill="#f8f1f8" d="M515.5 697c13.001-3.448 10.581 11.6 6 13-7.244 2.214-15.981-10.353-6-13"/><path fill="#fcfafc" d="M484.5 713c7.968-2.433 4.714 5.932 0 5-2.41-.477-2.759-4.158 0-5"/><path fill="#fcfdfd" d="M468.5 714c3.683-.708 2.69 2.539 1 3-2.052.56-3.151-2.586-1-3"/><path fill="#fcfdf4" d="M458.5 722c2.237.08 1.911 2.57 1 3-.573.271-4.163-3.113-1-3"/><path fill="#f5f5f5" d="M453.5 725c3.683-.708 2.69 2.539 1 3-2.052.56-3.151-2.586-1-3"/><path fill="#8b4b75" d="M599 738c-8.296 5.964-20.903-1.269-30 0-18.048-7.198-102.103 1.219-126 3l29.5-10c27.061 2.39 57.481-2.954 84-1 14.188 1.046 28.432 8.24 42.5 8"/><path fill="#8f627d" d="m546 794-1.5-2c22.13-1.881 56.357-41.294 24.5-54 9.097-1.269 21.704 5.964 30 0 6.73-.115 12.28-.833 18-5 4.732 2.565 1.282 5.788-1 9.5-17.211 27.998-38.284 43.515-70 51.5"/><path fill="#af84a0" d="M569 738c31.857 12.706-2.37 52.119-24.5 54l1.5 2c-1.891.476-4.662 1.734-6 2-13.717 2.724-32.62 4.459-46.5 3-8.241-.866-21.493-7.715-26.5-8-2.324-3.643-5.934-6.1-9-9l-25-40c2.473-.056 6.856-.766 10-1 23.897-1.781 107.952-10.198 126-3m-93.5 17c-12.094 3.225 1.308 20.7 16 17 14.108-3.552-.64-21.096-16-17m58 6c-3.368.979-3.578 7.421 1 7 2.46-.226 6.91-9.301-1-7"/><path fill="#85bac6" d="M292 742c-1.37-1.063-1.892-.901-4-3 1.294 1.02 1.86.797 4 3"/><path fill="#8b5e78" d="m433 742 25 40c-10.559-9.988-26.286-28.236-33-41 2.37-1.028 6.746 1.029 8 1"/><path fill="#85bac6" d="M292 742c.136.14 2.509.29 3 2.5-2.336 1.727-2.113-1.811-3-2.5m6.5 5 10.5 8.5c-3.515-.54-9.578-4.89-10.5-8.5"/><path fill="#e3c4db" d="M475.5 755c15.36-4.096 30.108 13.448 16 17-14.692 3.7-28.094-13.775-16-17"/><path fill="#85bac6" d="m312.5 758 7.5 4.5c-.566 1.993-8.226-2.648-7.5-4.5"/><path fill="#fcfafc" d="M533.5 761c7.91-2.301 3.46 6.774 1 7-4.578.421-4.368-6.021-1-7"/><path fill="#4a5972" d="M467 791c5.007.285 18.259 7.134 26.5 8 13.88 1.459 32.783-.276 46.5-3 2.326 13.171-3.914 11.98-15 13-9.348.86-23.928.513-33.5 0-1.23-.066-14.121-5.066-10.5 1-.91-.59-5.347-2.472-6-3-2.332-1.885-7.346-6.588-9-9-1.079-1.573-2.711-2.706-3-4.5 1.202-2.197 1.649-2.634 4-2.5"/><path fill="#426579" d="M525 809c1.817 3.023-.559 9.272 3 9-22.31 5.907-28.348 4.087-47-8-3.621-6.066 9.27-1.066 10.5-1 9.572.513 24.152.86 33.5 0"/></svg>