<svg xmlns="http://www.w3.org/2000/svg" width="1024" height="1024"><defs><linearGradient id="a" x1="317.543" x2="610.542" y1="203.713" y2="204.372" gradientUnits="userSpaceOnUse"><stop offset="0%" style="stop-color:#e6f2f7"/><stop offset="100%" style="stop-color:#b0d3e2"/></linearGradient></defs><defs><linearGradient id="b" x1="290.042" x2="729.043" y1="407.138" y2="466.521" gradientUnits="userSpaceOnUse"><stop offset="0%" style="stop-color:#2e758b"/><stop offset="20.09%" style="stop-color:#4892a6"/><stop offset="61.4%" style="stop-color:#165670"/><stop offset="100%" style="stop-color:#002a4a"/></linearGradient></defs><defs><linearGradient id="c" x1="589.575" x2="695.321" y1="431.341" y2="438.673" gradientUnits="userSpaceOnUse"><stop offset="0%" style="stop-color:#76c4da"/><stop offset="100%" style="stop-color:#4c9bb2"/></linearGradient></defs><defs><linearGradient id="d" x1="458.658" x2="578.323" y1="392.865" y2="476.509" gradientUnits="userSpaceOnUse"><stop offset="0%" style="stop-color:#237999"/><stop offset="100%" style="stop-color:#034164"/></linearGradient></defs><defs><linearGradient id="e" x1="234.296" x2="228.858" y1="375.961" y2="593.894" gradientUnits="userSpaceOnUse"><stop offset="0%" style="stop-color:#f0f6f9"/><stop offset="100%" style="stop-color:#88a5b2"/></linearGradient></defs><defs><linearGradient id="f" x1="795.723" x2="789.519" y1="375.798" y2="593.71" gradientUnits="userSpaceOnUse"><stop offset="0%" style="stop-color:#d0e6ef"/><stop offset="100%" style="stop-color:#7996a2"/></linearGradient></defs><defs><linearGradient id="g" x1="270.476" x2="237.648" y1="434.152" y2="587.682" gradientUnits="userSpaceOnUse"><stop offset="0%" style="stop-color:#90afbd"/><stop offset="100%" style="stop-color:#6c8994"/></linearGradient></defs><defs><linearGradient id="h" x1="543.326" x2="477.201" y1="411.252" y2="448.716" gradientUnits="userSpaceOnUse"><stop offset="0%" style="stop-color:#0b3a54"/><stop offset="100%" style="stop-color:#225c74"/></linearGradient></defs><defs><linearGradient id="i" x1="194.668" x2="197.367" y1="437.229" y2="544.195" gradientUnits="userSpaceOnUse"><stop offset="0%" style="stop-color:#03a1cc"/><stop offset="100%" style="stop-color:#1c647d"/></linearGradient></defs><defs><linearGradient id="j" x1="826.983" x2="828.067" y1="441.405" y2="545.4" gradientUnits="userSpaceOnUse"><stop offset="0%" style="stop-color:#039ac5"/><stop offset="100%" style="stop-color:#1d657e"/></linearGradient></defs><defs><linearGradient id="k" x1="734.975" x2="287.539" y1="565.88" y2="648.502" gradientUnits="userSpaceOnUse"><stop offset="0%" style="stop-color:#425d6b"/><stop offset="62.637%" style="stop-color:#a6c8d5"/><stop offset="100%" style="stop-color:#d9eaf1"/></linearGradient></defs><defs><linearGradient id="l" x1="614.73" x2="665.834" y1="741.177" y2="790.467" gradientUnits="userSpaceOnUse"><stop offset="0%" style="stop-color:#144f78"/><stop offset="100%" style="stop-color:#0d3665"/></linearGradient></defs><path fill="#485f6b" d="m660 150-6 3c-2.022-.953-4.051-2.135-6-3-54.014-23.964-113.223-30.354-172-25-34.192 3.114-68.392 10.659-100 24-3.183-4.263 4.831-3.902 7-6.5l-2-.5c89.678-35.101 192.076-34.516 279 8"/><path fill="#86aaba" d="M648 150c-.17 2.404-2.531 4.079-4 6-1.779-1.112-3.705-2.318-5-4-.757-.982 2.829-.862 1.5-2-5.115.665-9.419 4.98-12.5 9-45.909-23.205-95.481-24.476-145.5-31-1.158-.151-7.143-.875-6.5-3 58.777-5.354 117.986 1.036 172 25"/><path fill="url(#a)" d="M476 125c-.643 2.125 5.342 2.849 6.5 3 50.019 6.524 99.591 7.795 145.5 31-4.573 5.968-5.963 13.434-9 20-3.483 7.528-11.172 22.978-14 33.5-3.035 11.29-4.139 24.841-6 36.5-84.434-15.534-200.12-10.508-276 33-6.418-9.886-12.273-29.331-21-37 24.74-21.629 43.051-50.735 71.5-68 4.55-2.761 32.536-14.901 33.5-16.5.602-.999-.133-3.653-2-2-29.44 9.199-56.605 24.958-79.5 45.5l16-16c38.525-24.921 82.247-41.956 128-47l1-3c-80.594-1.134-153.76 41.821-197.5 108-4.018 2.316-8.826 3.619-12 6 25.486-46.973 65.977-82.308 115-103 31.608-13.341 65.808-20.886 100-24" style="fill:url(#a)"/>/&gt;<path fill="#fcfdfd" d="M302 245c-4.818-4.234-7.325-3.684-13-5.5 3.789-3.179 7.76-6.222 11-10 1.33-1.551 5.861-7.308 5.5-9.5-5.414 4.464-13.942 17.519-19 21-2.072 1.426-10.422 3.226-13.5 5 43.74-66.179 116.906-109.134 197.5-108l-1 3c-45.753 5.044-89.475 22.079-128 47l-16 16c22.895-20.542 50.06-36.301 79.5-45.5 1.867-1.653 2.602 1.001 2 2-.964 1.599-28.95 13.739-33.5 16.5-28.449 17.265-46.76 46.371-71.5 68"/><path fill="#546d7b" d="m381 142 2 .5c-2.169 2.598-10.183 2.237-7 6.5-49.023 20.692-89.514 56.027-115 103-.794.595-.946.955-1 1-15.258 12.771-21.462 48.031-15 66 .087.243-2.971 1.359 2 3-.35 17.055 18.701 16.343 23.5 31 2.412.355 1.124-2.059 1.5-3 1.55-3.883 2.499-8.046 4-12l1 1c-13.579 41.498-3.461 84.48-2 127-.031-.221-1.851-2.959-2-4-2.436-17.005-6.551-74.342-14-84.5-3.755-5.121-17.613-14.156-24-10.5-1.259-1.095-3.375-1.61-5-2l-8-9c1.709-.345 19.451-3.006 20.5-3 6.318.036 13.764 5.584 17.5 10.5 2.751 3.62 2.957 10.054 7 12-10.574-35.406-33.832-43.949-28-86 9.013-64.994 84.644-125.05 142-147.5"/><path fill="#45585c" d="M639 152c-3.965 1.809-7.508 5.525-10 9-3.927 5.475-6.292 11.896-9 18h-1c3.037-6.566 4.427-14.032 9-20 3.081-4.02 7.385-8.335 12.5-9 1.329 1.138-2.257 1.018-1.5 2"/><path fill="#6e919f" d="M654 153c34.615 16.317 86.698 52.9 103 88.5.892 1.948 2.796 2.978.5 4.5-5.444-3.86-17.485-2.319-22-4-3.431-1.277-33.307-37.498-41-44-16.116-13.62-37.215-23.273-53.5-37 1.37-1.366 1.966-3.648 3-5 1.469-1.921 3.83-3.596 4-6 1.949.865 3.978 2.047 6 3"/><path fill="#364e5b" d="M660 150c54.462 26.638 114.862 78.542 124 142.5 5.747 40.222-24.526 53.119-28 83.5-1.179 10.311 1.038 3.945 2.5 6 1.631 2.293-3.828 49.082-4.5 56-1.487 15.31-4.521 30.71-6 46-2.673-55.541 20.823-127.168-17-175h1c11.169 14.578 16.007 28.25 20.5 46 3.782-10.872 8.43-21.194 13.5-31.5.645-1.311 4.764-4.069 5-5 .741-2.927-8.976-35.346-11-40-3.974-9.14-21.526-36.55-32.5-33.5-5.155 1.433-22.666 32.241-24.5 39-1.188-.697-.939-.965-1-1 6.399-14.745 14.973-34.711 30-41.5-25.933-34.317-58.112-56.859-94-79.5.869-.927 2.888-.888 3-1 16.285 13.727 37.384 23.38 53.5 37 7.693 6.502 37.569 42.723 41 44 4.515 1.681 16.556.14 22 4 2.296-1.522.392-2.552-.5-4.5-16.302-35.6-68.385-72.183-103-88.5Zm79.5 94-1 2c21.372 18.227 27.662 44.122 35 70 9.741-13.516 5.828-31.122.5-45.5-6.586-17.772-14.35-26.396-34.5-26.5"/><path fill="#dcecf3" d="M644 156c-1.034 1.352-1.63 3.634-3 5-.112.112-2.131.073-3 1-.104.111-1.927.915-2 1l-7-2c2.492-3.475 6.035-7.191 10-9 1.295 1.682 3.221 2.888 5 4"/><path fill="#fbfcfd" d="M636 163c-18.917 22.063-22.356 58.588-31 86-.618-.124-1.38.121-2 0-3.752-3.794-.996-13.56 0-18.5 3.055-15.155 10.692-37.283 17-51.5 2.708-6.104 5.073-12.525 9-18z"/><path fill="#6f91a0" d="M702 283c-23.924-13.6-69.873-28.557-97-34 8.644-27.412 12.083-63.937 31-86 .073-.085 1.896-.889 2-1 35.888 22.641 68.067 45.183 94 79.5-15.027 6.789-23.601 26.755-30 41.5"/><path fill="#738a8f" d="M620 179c-6.308 14.217-13.945 36.345-17 51.5-.996 4.94-3.752 14.706 0 18.5-1.249-.243-2.745.231-4 0 1.861-11.659 2.965-25.21 6-36.5 2.828-10.522 10.517-25.972 14-33.5z"/><path fill="#82979d" d="M302 245c8.727 7.669 14.582 27.114 21 37-.591.339-1.42.651-2 1-4.32-10.552-18.074-44.791-32.5-41-2.853.75-20.181 26.261-22.5 30.5-5.64 10.31-14.522 31.266-17 42.5-.381 1.726-1.98 6.047-2 7-4.971-1.641-1.913-2.757-2-3 10.264-26.128 19.518-53.55 39-74.5l-24 8.5c.054-.045.206-.405 1-1 3.174-2.381 7.982-3.684 12-6 3.078-1.774 11.428-3.574 13.5-5 5.058-3.481 13.586-16.536 19-21 .361 2.192-4.17 7.949-5.5 9.5-3.24 3.778-7.211 6.821-11 10 5.675 1.816 8.182 1.266 13 5.5"/><path fill="#183249" d="M599 249c1.255.231 2.751-.243 4 0 .62.121 1.382-.124 2 0 27.127 5.443 73.076 20.4 97 34 .061.035-.188.303 1 1 11.724 6.882 20.711 14.181 29 25h-1c-22.626-28.613-85.146-47.639-120-55-51.112-10.795-103.008-13.985-155-8-60.779 6.996-157.62 27.661-179 93l-1-1c10.345-27.26 19.843-39.881 45-55 .58-.349 1.409-.661 2-1 75.88-43.508 191.566-48.534 276-33"/><path fill="#edf5f9" d="M321 283c-25.157 15.119-34.655 27.74-45 55-1.501 3.954-2.45 8.117-4 12l-23-35c2.478-11.234 11.36-32.19 17-42.5 2.319-4.239 19.647-29.75 22.5-30.5 14.426-3.791 28.18 30.448 32.5 41"/><path fill="#c0dde8" d="M611 254c-1.831 2.88-1.378 3.598 1.5 5 17.638 8.59 46.434 12.457 67 22 7.114 3.301 24.305 10.614 25.5 18-.472-.334-3.606-1.127-5-2-59.621-37.34-159.151-45.885-228-41-4.089.29-7.935.595-12 1-6.02-3.756-6.69-4.383-4-11 51.992-5.985 103.888-2.795 155 8"/><path fill="#eef5f9" d="M245 319c-6.462-17.969-.258-53.229 15-66l24-8.5c-19.482 20.95-28.736 48.372-39 74.5"/><path fill="#62818e" d="M739.5 244c20.15.104 27.914 8.728 34.5 26.5 5.328 14.378 9.241 31.984-.5 45.5-7.338-25.878-13.628-51.773-35-70z"/><path fill="#638290" d="M732 309c-8.289-10.819-17.276-18.118-29-25 1.834-6.759 19.345-37.567 24.5-39 10.974-3.05 28.526 24.36 32.5 33.5 2.024 4.654 11.741 37.073 11 40-.236.931-4.355 3.689-5 5-5.07 10.306-9.718 20.628-13.5 31.5-4.493-17.75-9.331-31.422-20.5-46"/><path fill="#e4f1f5" d="M456 246c-2.69 6.617-2.02 7.244 4 11-50.306 5.017-139.2 21.854-165 70-24.564 45.84-17.913 140.911 5 187 19.135 38.491 51.806 59.16 90 76l-2 15c-44.581-19.185-94.825-56.175-107-105.5l-1 4.5a2769 2769 0 0 0-5-38c-1.461-42.52-11.579-85.502 2-127 21.38-65.339 118.221-86.004 179-93"/><path fill="#04274c" d="M700 297c-1.297 2.942-1.564 1.812-3.5 1-77.969-32.692-135.668-47.336-222.5-40l-2-2c68.849-4.885 168.379 3.66 228 41"/><path fill="#6a8793" d="M731 309c37.823 47.832 14.327 119.459 17 175-.887 9.167 1.643 21.612 0 28.5-.965 4.045-7.774 7.481-8 8-.71 1.634 1.064 2.776 1 3.5-2.718-.634-1.725 1.692-2 2-5.11 5.725-9.972 12.274-16 17 .2-.275-.202-1.71 0-2 10.727-15.175 21.338-30.384 21.5-50-4.679 17.837-10.926 34.822-21.5 50-1.407 1.99-4.513 6.176-6 8-18.11 21.197-46.131 38.141-71 50l6-17c22.625-12.038 44.832-27.56 60-48.5 37.697-52.044 51.547-193.11-7-234.5-1.195-7.386-18.386-14.699-25.5-18-20.566-9.543-49.362-13.41-67-22-2.878-1.402-3.331-2.12-1.5-5 34.854 7.361 97.374 26.387 120 55"/><path fill="#15486b" d="m472 256 2 2c-50.042 4.228-150.447 21.896-176 70l-3-1c25.8-48.146 114.694-64.983 165-70 4.065-.405 7.911-.71 12-1"/><path fill="url(#b)" d="M700 297c1.394.873 4.528 1.666 5 2 58.547 41.39 44.697 182.456 7 234.5-15.168 20.94-37.375 36.462-60 48.5-46.88 24.944-98.773 36.989-152 35-39.559-1.478-74.137-11.188-110-27-38.194-16.84-70.865-37.509-90-76-.27-3.446 2.074-7.069 2-7.5-1.445-8.426-9.59-23.538-12-34-8.996-39.049-11.022-108.692 8-144.5 25.553-48.104 125.958-65.772 176-70 86.832-7.336 144.531 7.308 222.5 40 1.936.812 2.203 1.942 3.5-1m-352 30c-12.891 11.359-18.363 23.802-23 40-14.06 49.114-4.487 116.442 30 155.5 28.31 32.062 82.706 48.024 124 53.5 21.589 2.863 41.318 4.403 63 0 68.67-8.502 136.985-33.507 157-106.5 40.812-148.84-55.786-176.899-180-180.5-44.168-1.28-137.44 8.428-171 38m177 262c-2.562.056-5.528 1.018-9 1-2.696-.014-5.698-.901-9-1-38.099-1.142-74.585-6.228-109.5-22-6.043-2.73-73.313-43.163-75.5-39.5 5.376 11.158 17.566 20.155 27.5 27.5 45.05 33.308 100.442 50.721 156.5 51 63.842.317 154.847-25.534 197.5-76 1.23-1.455 3.654-2.143 1-4-24.271 8.17-44.135 26.604-67 38-37.81 18.845-70.555 24.089-112.5 25" style="fill:url(#b)"/>/&gt;<path fill="#d2f0f8" d="M519 289c7.835 4.816 18.659 4.423 27.5 7 7.384 2.152 14.529 5.829 21.5 9l-2 12c-19.671-8.854-41.438-12.391-63-11-13.068.843-33.501 5.752-45 12 .117-7.158-16.353.335-20.5 2-30.892 12.408-58.942 43.053-68.5 75-13.778-11.163-11.182-34.257-15-50.5-1.42-6.042-4.958-11.407-6-17.5 33.56-29.572 126.832-39.28 171-38"/><path fill="url(#c)" d="M542 576c36.941-7.501 68.212-35.369 89-65.5 54.583-79.115 20.518-167.514-63-205.5-6.971-3.171-14.116-6.848-21.5-9-8.841-2.577-19.665-2.184-27.5-7 124.214 3.601 220.812 31.66 180 180.5-20.015 72.993-88.33 97.998-157 106.5" style="fill:url(#c)"/>/&gt;<path fill="#b2e1ee" d="M542 576c-21.682 4.403-41.411 2.863-63 0-8.159-5.003-17.399-7.683-26-12l8.5-20c10.616 4.681 23.709 9.564 35.5 8 13.469 1.472 26.641 1.103 40-1 67.154-10.571 111.897-75.221 101-142-6.342-38.864-36.385-75.968-72-92l2-12c83.518 37.986 117.583 126.385 63 205.5-20.788 30.131-52.059 57.999-89 65.5"/><path fill="#29bbdf" d="M503 306c1.154 4.487 11.3.425 13 2.5 2.54 3.101-3.733 6.319-6 6.5-14.41.142-28.992 2.515-42 8.5 2.99.241 2.577 3.002 3 3.5-5.366-3.135-11.271-4.757-17.5-5-1.447-1.524 3.556-3.487 4.5-4 11.499-6.248 31.932-11.157 45-12"/><path fill="#0a9bc8" d="M566 317c35.615 16.032 65.658 53.136 72 92l-5 1c-9.263-57.75-66.752-95.553-123-95 2.267-.181 8.54-3.399 6-6.5-1.7-2.075-11.846 1.987-13-2.5 21.562-1.391 43.329 2.146 63 11"/><path fill="#fcfefe" d="M458 318c-.944.513-5.947 2.476-4.5 4 6.229.243 12.134 1.865 17.5 5 5.676 6.687 10.118 6.317 15 17 .329.721.731 1.252 1 2 2.852 7.936 3.719 12.22 3 21-.554 6.769-3.111 11.73-5 18-3.699 2.484-8.079 12.065-14 16-7.373 4.899-18.822 7.265-27.5 6-5.504-.803-10.721-6.224-15.5-7-5.132-.834-2.337 6.19-7-5-4.43-10.632-7.955-25.158-6-36.5l5.5-16.5c-21.151 22.128-35.84 54.075-36.5 85-.107 5.007.461 10.046 1 15-4.829-2.974-.425-23.175-1-24.5-.393-.907-16.522-4.572-19-5.5.869-5.562 2.385-11.603 4-17 9.558-31.947 37.608-62.592 68.5-75 4.147-1.665 20.617-9.158 20.5-2"/><path fill="#cfe4ed" d="M272 350c-.376.941.912 3.355-1.5 3-4.799-14.657-23.85-13.945-23.5-31 .02-.953 1.619-5.274 2-7z"/><path fill="#3fd2f3" d="M510 315c56.248-.553 113.737 37.25 123 95 8.895 55.456-24.568 115.26-80 130-12.017 3.195-26.545 5.343-39 5l-2.5-4c11.227.324 22.583-1.376 33.5-4 14.937-3.59 37.479-13.528 48-25 1.246-1.359 9.012-4.639 3.5-9-5.82-4.605-7.812 3.587-9.5 5-14.147 11.847-23.737 18.38-42 23-7.159 1.811-14.152 3.155-21.5 4l2-5c-18.384 2.976-37.645-2.064-54.5-9-38.984-16.043-61.471-50.202-61-92.5-2.781 11.749-17.535-3.743-26-1.5.66-30.925 15.349-62.872 36.5-85l-5.5 16.5c-1.955 11.342 1.57 25.868 6 36.5-2.134-.503-2.601 1.993-3 3.5-5.457 20.606-5.715 51.57 9 68.5 19.585 46.662 80.096 61.77 125 45 3.607 2.385 7.23-.977 9.5-1 .941-.01 1.723 3.031 2 3 8.33-.941 23.86-18.516 28.5-25.5 22.823-34.351 26.192-70.259 4-106C575.82 350 521.622 322 486 344c-4.882-10.683-9.324-10.313-15-17-.423-.498-.01-3.259-3-3.5 13.008-5.985 27.59-8.358 42-8.5m101 162c-9.899 2.13 2.468 12.155 5 4.5.622-1.88-1.181-2.912-1-3.5 11-35.671 15.797-71.693-9.5-103-2.808-.284-.973 3.276-.5 4.5 10.895 28.171 19.563 39.458 13 73-1.624 8.301-7.964 16.256-7 24.5m-8.5 11c-6.193.68-5.317 12.14 1 11 5.174-.934 6.028-11.771-1-11"/><path fill="#0b3258" d="M298 328c-19.022 35.808-16.996 105.451-8 144.5 2.41 10.462 10.555 25.574 12 34 .074.431-2.27 4.054-2 7.5-22.913-46.089-29.564-141.16-5-187z"/><path fill="#b2e1ee" d="M369 395c-1.615 5.397-3.131 11.438-4 17-1.513 9.683-2.298 19.165-2 29-8.501-.906-18.565-20.086-21-27.5-4.619-14.059-2.198-38.088-17-46.5 4.637-16.198 10.109-28.641 23-40 1.042 6.093 4.58 11.458 6 17.5 3.818 16.243 1.222 39.337 15 50.5"/><path fill="#09a1d0" d="M552 512c4.44-1.658 12.456-7.053 16.5-10 80.887-58.946 11.433-189.111-81.5-156-.269-.748-.671-1.279-1-2 35.622-22 89.82 6 110 38.5 22.192 35.741 18.823 71.649-4 106-4.64 6.984-20.17 24.559-28.5 25.5-.277.031-1.059-3.01-2-3-2.27.023-5.893 3.385-9.5 1"/><path fill="url(#d)" d="M552 512c-44.904 16.77-105.415 1.662-125-45-7.21-17.178-10.81-45.401-1-62 .635 2.497 22.949 39.982 26 44.5 11.588 17.157 30.101 36.266 52 38.5 26.774 2.731 57.011-11.033 65-38 9.805-33.098-6.972-63.001-39-74-5.113-1.756-8.729-2.78-14-4-8.518-1.971-17.516-2.67-26-5 .719-8.78-.148-13.064-3-21 92.933-33.111 162.387 97.054 81.5 156-4.044 2.947-12.06 8.342-16.5 10" style="fill:url(#d)"/>/&gt;<path fill="#415b68" d="M802 356c-3.693 3.625-7.991 6.729-12 10-.82.669-2.224 1.304-3 2-24.294 21.779-26.524 39.253-29 71.5l-4-1.5c.672-6.918 6.131-53.707 4.5-56-1.462-2.055-3.679 4.311-2.5-6 4.921-6.82 9.885-20.023 19.5-22 3.564-.733 22.256 1.077 26.5 2"/><path fill="#617b86" d="m222 356 8 9c-6.949-1.666-12.519-1.085-18 4-1.836-2.516-8.016-3.331-11-3 8.154-7.064 10.67-7.912 21-10"/><path fill="#526b77" d="M826 370c-6.472-2.957-8.983-5.564-16-1-4.94-6.482-13.166-3.351-20-3 4.009-3.271 8.307-6.375 12-10 11.075 2.408 16.582 5.559 24 14"/><path fill="url(#e)" d="M230 365c1.625.39 3.741.905 5 2 .11.096.791 1.721 1 2 10.213 13.614 6.526 56.129 8 74.5 1.68 20.939 5.245 41.332 6 62.5.827 23.207.508 72.854-9 93.5-6.864 14.905-16.687 12.492-30 8.5 23.434-15.732 14.712-138.706 12-167.5-1.462-15.525-3.176-35.984-6-51-.469-2.494-4.378-19.648-5-20.5 5.481-5.085 11.051-5.666 18-4" style="fill:url(#e)"/>/&gt;<path fill="#7ea3b1" d="m273 462-3.5 2-2.5-1.5c-1.685-13.491-1.757-27.615-4-41-4.129-24.642-5.558-31.295-22-50-1.155-1.314-2.942-4.213-5-2.5-.209-.279-.89-1.904-1-2 6.387-3.656 20.245 5.379 24 10.5 7.449 10.158 11.564 67.495 14 84.5"/><path fill="url(#f)" d="M810 369c-2.044 12.463-5.266 24.913-7 37.5-5.396 39.169-16.043 171.11 7 199.5-.241 4.063-14.063 6.386-16.5 6-14.919-2.365-19.688-50.654-20.5-63-2.504-38.079 3.235-73.188 6-110.5 1.73-23.348-4.01-49.208 8-70.5.776-.696 2.18-1.331 3-2 6.834-.351 15.06-3.482 20 3" style="fill:url(#f)"/>/&gt;<path fill="#1a2328" d="M212 369c.622.852 4.531 18.006 5 20.5 2.824 15.016 4.538 35.475 6 51 2.712 28.794 11.434 151.768-12 167.5-.059.039.351.424-1 1-18.709 7.983-34.236-46.937-37-59.5-9.923-45.105-9.503-151.009 28-183.5 2.984-.331 9.164.484 11 3m-39 87c-2.148 16.426-3.243 32.483-2 49 1.331 17.683 15.893 87.791 32.5 95 16.028 6.958 18.676-37.155 19.5-47 1.801-21.527.834-44.408 0-66-.766-19.823-4.788-91.681-14-106 .61-3.158-5.239-7.228-7.5-7-12.54 1.265-26.909 69.832-28.5 82"/><path fill="#19232a" d="M826 370c37.188 42.312 39.025 188.845 3 231.5-7.172 8.492-7.458 5.808-16 8.5-.228-2.012-2.219-3.038-3-4-23.043-28.39-12.396-160.331-7-199.5 1.734-12.587 4.956-25.037 7-37.5 7.017-4.564 9.528-1.957 16 1m-12 11c-9.829 17.173-12.97 76.256-14 98-1.175 24.817-2.045 50.204 0 75 1.211 14.689 4.823 68.246 27 37.5 15.53-21.531 25.309-79.588 25-106-.278-23.729-8.23-47.464-11-70.5 1.056.935 1.197 2.456 2 1.5-5.952-14.585-10.382-31.54-22.5-42.5-4.554 1.966-4.626 3.726-6.5 7"/><path fill="#8ad4e6" d="M363 441c1.661 54.772 42.911 99.364 90 123 8.601 4.317 17.841 6.997 26 12-41.294-5.476-95.69-21.438-124-53.5-34.487-39.058-44.06-106.386-30-155.5 14.802 8.412 12.381 32.441 17 46.5 2.435 7.414 12.499 26.594 21 27.5"/><path fill="#45afc3" d="m516 372-2 6c-4.044-.592-25.581 4.704-29 7 1.889-6.27 4.446-11.231 5-18 8.484 2.33 17.482 3.029 26 5"/><path fill="url(#g)" d="M273 462c.149 1.041 1.969 3.779 2 4a2769 2769 0 0 1 5 38c.009.07.826-.354 1 1-5.893-1.311-1.43 11.998-3.5 12l-1.5-18.5-2 1c1.405 18.892 1.247 37.611 0 56.5-3.746 8.825-2.095 20.138-4 29.5-3.634 17.862-14.724 38.881-36 27 10.161-8.084 12.999-21.852 15-34 3.34-20.274 3.597-47.332 3-68-.053-1.826 1.001-4.937-2-4.5-.755-21.168-4.32-41.561-6-62.5-1.474-18.371 2.213-60.886-8-74.5 2.058-1.713 3.845 1.186 5 2.5 16.442 18.705 17.871 25.358 22 50 2.243 13.385 2.315 27.509 4 41l2.5 1.5z" style="fill:url(#g)"/>/&gt;<path fill="#506c79" d="M787 368c-12.01 21.292-6.27 47.152-8 70.5-2.765 37.312-8.504 72.421-6 110.5-.704 14.108 1.43 46.306 10 57.5 3.294 4.303 7.517 5.118 11 8.5-7.137 1.737-12.031 6.475-20.5 5-5.579-.972-8.327-8.064-13.5-8 1.279-7.321-.9-10.599-6.5-5-4.535-7.302-5.801-15.682-7.5-24-3.222-15.779-6.398-43.203-5-59 .064-.724-1.71-1.866-1-3.5.226-.519 7.035-3.955 8-8 1.643-6.888-.887-19.333 0-28.5 1.479-15.29 4.513-30.69 6-46l4 1.5c2.476-32.247 4.706-49.721 29-71.5"/><path fill="#2e8ca3" d="m530 376-2 8c-2.103-.913-13.246-5.89-14-6l2-6c5.271 1.22 8.887 2.244 14 4"/><path fill="#0a6380" d="M209 381c-6.411-9.965-7.362-3.166-10 2-1.696 3.321-3.663 7.538-5 11-3.87 5.756-8.251 14.884-10 21.5-.773 2.924 1.046 3.324 1 3.5-3.103 11.863-5.221 27.564-12 37 1.591-12.168 15.96-80.735 28.5-82 2.261-.228 8.11 3.842 7.5 7"/><path fill="#0ecaf2" d="M841 415c-.266-.235.516-2.386-.5-3-1.772 1.851.482 2.849.5 3 2.77 23.036 10.722 46.771 11 70.5.309 26.412-9.47 84.469-25 106-22.177 30.746-25.789-22.811-27-37.5 1.27.133 3.944-7.079 4-7.5.907-6.812.077-37.035 2-41 .341-.703 3.856-1.817 5-1.5-.646 18.691-2.383 38.869 0 57.5 7.603 59.45 25.455-13.274 28-30.5 4.447-30.098 4.913-68.309-2-98 1.41-.545 2.903-1.897 3-3.5.277-4.588-9.802-25.25-12-31 2.438-2.978 5.603 5.902 7 7.5.171.196-.361 1.932.5 2l1.5-1.5c-.097-.833-1.975-.4-2-.5-2.569-10.085-5.276-10.87-11-18.5-2.828-3.77-.68-9.306-7-7.5-1.099.314-1.586 1.405-3 1 1.874-3.274 1.946-5.034 6.5-7 12.118 10.96 16.548 27.915 22.5 42.5-.803.956-.944-.565-2-1.5"/><path fill="#8fe6fb" d="M615 478c-1.351-.747-2.311-1.363-4-1-.964-8.244 5.376-16.199 7-24.5 6.563-33.542-2.105-44.829-13-73-.473-1.224-2.308-4.784.5-4.5 25.297 31.307 20.5 67.329 9.5 103"/><path fill="#e1f4f9" d="M209 381c9.212 14.319 13.234 86.177 14 106l-1.5 6c-1.783-4.056-5.769-2.467-6.5-3.5-.826-1.166-1.139-24.386-2-28.5-3.999-26.135-4.156-53.163-14-78 2.638-5.166 3.589-11.965 10-2"/><path fill="#21748e" d="m569 450-10-8c6.641-26.498-7.085-47.618-31-58l2-8c32.028 10.999 48.805 40.902 39 74"/><path fill="url(#h)" d="M514 378c.754.11 11.897 5.087 14 6 23.915 10.382 37.641 31.502 31 58-5.867 23.41-29.439 38.72-53 37-38.344-2.799-55.729-46.838-35-78 5.921-3.935 10.301-13.516 14-16 3.419-2.296 24.956-7.592 29-7" style="fill:url(#h)"/>/&gt;<path fill="#effafc" d="M835 406c-1.397-1.598-4.562-10.478-7-7.5 2.198 5.75 12.277 26.412 12 31-.097 1.603-1.59 2.955-3 3.5-2.707-11.624-8.387-23.048-13-34-1.202-2.855-1.985-6.618-3-9-1.629-3.822-4.554-4.623-4-10 6.32-1.806 4.172 3.73 7 7.5 5.724 7.63 8.431 8.415 11 18.5"/><path fill="#ccecf6" d="m821 390-7 28.5-5 62.5c-3.07 5.835-1.174.231-3.5 0-1.696-.168-3.638 5.556-5.5-2 1.03-21.744 4.171-80.827 14-98 1.414.405 1.901-.686 3-1-.554 5.377 2.371 6.178 4 10"/><path fill="#284f5c" d="M213 461c-.131-.624-3.178-7.154-4-11-.277-1.298-.705-2.599-1-4-3.048-14.482-4.936-34.776-10-49-.244-.684-.279-3.62-2-2.5l-7.5 17.5c.413-5.821 3.387-12.527 5.5-18 1.337-3.462 3.304-7.679 5-11 9.844 24.837 10.001 51.865 14 78"/><path fill="#0d212b" d="M821 390c1.015 2.382 1.798 6.145 3 9-7.863 49.624-16.188 109.417-10 159.5.199 1.607 4.286 26.359 8 23l17-50.5c-2.545 17.226-20.397 89.95-28 30.5-2.383-18.631-.646-38.809 0-57.5.743-21.495 2.396-43.15 5-64.5-1.76-1.908-2.877 3.396-3 4-1.933 9.466.021 29.857-4 37.5l5-62.5z"/><path fill="#85e8f9" d="M194 394c-2.113 5.473-5.087 12.179-5.5 18l7.5-17.5c1.721-1.12 1.756 1.816 2 2.5-19.598 37.745-21.073 88.373-15 130-2.484 4.991-4.88-8.731-5-9.5-1.593-10.203-.745-20.745-2-31-4.513 4.106 3.79 17.527-5 18.5-1.243-16.517-.148-32.574 2-49 6.779-9.436 8.897-25.137 12-37 .33.355 2.02-1.377 2-1.5-.472-2.9-3.473-.08-2 1.5.046-.176-1.773-.576-1-3.5 1.749-6.616 6.13-15.744 10-21.5"/><path fill="#3cc3e2" d="M421 395c4.663 11.19 1.868 4.166 7 5-2.619 1.16-2.644 2.47-2 5-9.81 16.599-6.21 44.822 1 62-14.715-16.93-14.457-47.894-9-68.5.399-1.507.866-4.003 3-3.5"/><path fill="url(#i)" d="M208 446c-2.952.958-1.581 2.327-1.5 4 1.805 37.287 9.586 82.768.5 119.5-.302 1.221-4.591 14.24-7 12L185 540c-.863-4.185-1.38-8.751-2-13-6.073-41.627-4.598-92.255 15-130 5.064 14.224 6.952 34.518 10 49" style="fill:url(#i)"/>/&gt;<path fill="url(#j)" d="M837 433c6.913 29.691 6.447 67.902 2 98l-17 50.5c-3.714 3.359-7.801-21.393-8-23-6.188-50.083 2.137-109.876 10-159.5 4.613 10.952 10.293 22.376 13 34" style="fill:url(#j)"/>/&gt;<path fill="#56afc4" d="M471 401c-20.729 31.162-3.344 75.201 35 78l-2 9c-21.899-2.234-40.412-21.343-52-38.5-3.051-4.518-25.365-42.003-26-44.5-.644-2.53-.619-3.84 2-5 4.779.776 9.996 6.197 15.5 7 8.678 1.265 20.127-1.101 27.5-6"/><path fill="#effafc" d="M835 406c.025.1 1.903-.333 2 .5l-1.5 1.5c-.861-.068-.329-1.804-.5-2"/><path fill="#05b8e7" d="M638 409c10.897 66.779-33.846 131.429-101 142-1.887-7.943 12.811-5.522 17.5-9l-1.5-2c55.432-14.74 88.895-74.544 80-130z"/><path fill="#d2f0f8" d="M385 442c1.386 12.74 5.291 24.225 10 36 16.505 41.272 57.868 69.178 102 74-11.791 1.564-24.884-3.319-35.5-8l-8.5 20c-47.089-23.636-88.339-68.228-90-123-.298-9.835.487-19.317 2-29 2.478.928 18.607 4.593 19 5.5.575 1.325-3.829 21.526 1 24.5"/><path fill="#19232a" d="M841 415c-.018-.151-2.272-1.149-.5-3 1.016.614.234 2.765.5 3"/><path fill="#0a6380" d="M185 419c-1.473-1.58 1.528-4.4 2-1.5.02.123-1.67 1.855-2 1.5"/><path fill="#17b1db" d="m471 521-5 14c-19.173-7.22-37.781-22.179-50-38.5-5.606-7.488-9.938-27.483-21-18.5-4.709-11.775-8.614-23.26-10-36-.539-4.954-1.107-9.993-1-15 8.465-2.243 23.219 13.249 26 1.5-.471 42.298 22.016 76.457 61 92.5"/><path fill="#92cfda" d="M811 504c-1.144-.317-4.659.797-5 1.5-1.923 3.965-1.093 34.188-2 41-.056.421-2.73 7.633-4 7.5-2.045-24.796-1.175-50.183 0-75 1.862 7.556 3.804 1.832 5.5 2 2.326.231.43 5.835 3.5 0 4.021-7.643 2.067-28.034 4-37.5.123-.604 1.24-5.908 3-4-2.604 21.35-4.257 43.005-5 64.5"/><path fill="#f0f6f9" d="M569 450c-7.989 26.967-38.226 40.731-65 38l2-9c23.561 1.72 47.133-13.59 53-37z"/><path fill="#12232b" d="M209 450c.201 17.002 2.316 33.971 3 51 .821 20.461 2.529 44.307-1 64.5-8.362 47.843-22.721-9.602-26-25.5l15 41.5c2.409 2.24 6.698-10.779 7-12 9.086-36.732 1.305-82.213-.5-119.5-.081-1.673-1.452-3.042 1.5-4 .295 1.401.723 2.702 1 4"/><path fill="#7ce0f8" d="M213 461c.861 4.114 1.174 27.334 2 28.5.731 1.033 4.717-.556 6.5 3.5l1.5-6c.834 21.592 1.801 44.473 0 66-9.897-15.97-3.677-39.148-7-57.5l-4 5.5c-.684-17.029-2.799-33.998-3-51 .822 3.846 3.869 10.376 4 11"/><path fill="#0a92c1" d="M466 535c13.071 4.922 34.213 9.62 48 10 12.455.343 26.983-1.805 39-5l1.5 2c-4.689 3.478-19.387 1.057-17.5 9-13.359 2.103-26.531 2.472-40 1-44.132-4.822-85.495-32.728-102-74 11.062-8.983 15.394 11.012 21 18.5 12.219 16.321 30.827 31.28 50 38.5"/><path fill="#fafdfd" d="M611 477c1.689-.363 2.649.253 4 1-.181.588 1.622 1.62 1 3.5-2.532 7.655-14.899-2.37-5-4.5"/><path fill="#0ec9f3" d="M183 527c.62 4.249 1.137 8.815 2 13 3.279 15.898 17.638 73.343 26 25.5 3.529-20.193 1.821-44.039 1-64.5l4-5.5c3.323 18.352-2.897 41.53 7 57.5-.824 9.845-3.472 53.958-19.5 47-16.607-7.209-31.169-77.317-32.5-95 8.79-.973.487-14.394 5-18.5 1.255 10.255.407 20.797 2 31 .12.769 2.516 14.491 5 9.5"/><path fill="#fcfefe" d="M602.5 488c7.028-.771 6.174 10.066 1 11-6.317 1.14-7.193-10.32-1-11"/><path fill="#223342" d="M723 541c10.574-15.178 16.821-32.163 21.5-50-.162 19.616-10.773 34.825-21.5 50"/><path fill="#96b6c4" d="M281 505c.412 3.199 1.599 5.801 2 9 .041.328-.034.67 0 1l-8 86c-1.814 5.62-5.289 10.362-7 16-.726-.91-6.962-6.024-7-6.5-.08-1.003 7.588-12.619 9-18 2.9-11.047 3.244-25.041 4-36.5 1.247-18.889 1.405-37.608 0-56.5l2-1 1.5 18.5c2.07-.002-2.393-13.311 3.5-12"/><path fill="#252b30" d="M388 605c25.24 10.861 71.756 23.203 99 22 54.989 4.515 109.463-4.377 159-28 24.869-11.859 52.89-28.803 71-50-42.937 52.69-123.102 78.525-189.5 81-91.74 3.419-201.027-28.474-244.5-116-.401-3.199-1.588-5.801-2-9-.174-1.354-.991-.93-1-1l1-4.5c12.175 49.325 62.419 86.315 107 105.5"/><path fill="#fcfefe" d="m593 512-6-4c1.688-1.413 3.68-9.605 9.5-5 5.512 4.361-2.254 7.641-3.5 9"/><path fill="#425561" d="M274 556c-.756 11.459-1.1 25.453-4 36.5-1.412 5.381-9.08 16.997-9 18 .038.476 6.274 5.59 7 6.5 19.16 24.013 48.051 49.305 74.5 65 6.756 4.009 20.116 8.107 25.5 13-41.772-14.204-71.72-45.804-102-76-12.551-12.516-3.757-3.437-15.5-1-10.04 2.084-30.446-5.487-40.5-9 1.351-.576.941-.961 1-1 13.313 3.992 23.136 6.405 30-8.5 9.508-20.646 9.827-70.293 9-93.5 3.001-.437 1.947 2.674 2 4.5.597 20.668.34 47.726-3 68-2.001 12.148-4.839 25.916-15 34 21.276 11.881 32.366-9.138 36-27 1.905-9.362.254-20.675 4-29.5"/><path fill="#9bebfb" d="M593 512c-10.521 11.472-33.063 21.41-48 25v-6c18.263-4.62 27.853-11.153 42-23z"/><path fill="url(#k)" d="M717 549c1.783-2.087 4.253-3.597 6-6 6.028-4.726 10.89-11.275 16-17l7 57c1.699 8.318 2.965 16.698 7.5 24 5.6-5.599 7.779-2.321 6.5 5-.464 2.653-2.43 3.755-3 6-8.127 3.606-13.766 14.675-20 21.5-15.213 16.656-31.677 29.698-51.5 40.5-11.313 6.165-20.342 5.576-30.5 16-.316.324-2.164.786-2 2-46.204-7.045-98.71-86.344-142.5-35-14.58-26.568-45.092-17.13-67-6-25.627 13.019-44.139 36.566-74.5 41 .197-1.722.227-1.885-1-3-5.384-4.893-18.744-8.991-25.5-13-26.449-15.695-55.34-40.987-74.5-65 1.711-5.638 5.186-10.38 7-16 6.637-20.564 10.219-64.589 8-86-.034-.33.041-.672 0-1 43.473 87.526 152.76 119.419 244.5 116 66.398-2.475 146.563-28.31 189.5-81m-400.5 54c-23.353 3.368-24.996 40.046-1 44 34.995 5.767 34.875-48.885 1-44m385 2c-30.136.737-30.229 47.581 3 43 25.787-3.555 24.64-43.676-3-43" style="fill:url(#k)"/>/&gt;<path fill="#526773" d="m275 601 8-86c2.219 21.411-1.363 65.436-8 86"/><path fill="#3ed1f3" d="M545 531v6c-10.917 2.624-22.273 4.324-33.5 4l2.5 4c-13.787-.38-34.929-5.078-48-10l5-14c16.855 6.936 36.116 11.976 54.5 9l-2 5c7.348-.845 14.341-2.189 21.5-4"/><path fill="#324954" d="M741 524c-1.398 15.797 1.778 43.221 5 59l-7-57c.275-.308-.718-2.634 2-2"/><path fill="#0f90b4" d="m506 606 1-17c3.302.099 6.304.986 9 1 .297 8.939-5.938 15.974 7.5 14l1.5-15c41.945-.911 74.69-6.155 112.5-25 22.865-11.396 42.729-29.83 67-38 2.654 1.857.23 2.545-1 4-42.653 50.466-133.658 76.317-197.5 76"/><path fill="#17b2d7" d="m507 589-1 17c-56.058-.279-111.45-17.692-156.5-51-9.934-7.345-22.124-16.342-27.5-27.5 2.187-3.663 69.457 36.77 75.5 39.5 34.915 15.772 71.401 20.858 109.5 22"/><path fill="#223342" d="M723 543c-1.747 2.403-4.217 3.913-6 6 1.487-1.824 4.593-6.01 6-8-.202.29.2 1.725 0 2"/><path fill="#3e5561" d="M810 606c.781.962 2.772 1.988 3 4-6.098 1.922-12.769 3.483-19 5-3.483-3.382-7.706-4.197-11-8.5-8.57-11.194-10.704-43.392-10-57.5.812 12.346 5.581 60.635 20.5 63 2.437.386 16.259-1.937 16.5-6"/><path fill="#8baebb" d="M646 599c-49.537 23.623-104.011 32.515-159 28 4.337-.191 8.863-2.7 13.5-1l-.5-9c53.227 1.989 105.12-10.056 152-35z"/><path fill="#17b2d7" d="m525 589-1.5 15c-13.438 1.974-7.203-5.061-7.5-14 3.472.018 6.438-.944 9-1"/><path fill="#c0dde8" d="m500 617 .5 9c-4.637-1.7-9.163.809-13.5 1-27.244 1.203-73.76-11.139-99-22l2-15c35.863 15.812 70.441 25.522 110 27"/><path fill="#041426" d="M316.5 603c33.875-4.885 33.995 49.767-1 44-23.996-3.954-22.353-40.632 1-44M303 618c-6.205 18.558 9.226 26.465 10 23.5-8.56-5.549-12.357-12.349-9-22.5.921-2.784 2.113-3.293 4-5-1.826 5.903-2.812 9.742-1 16 1.021 3.525 2.685 6.29 6 8 12.259 6.322 22.838-4.222 22-17-.151-2.306-1.827-4.67-2-7 6.209 7.267 4.395 12.722 2 21.5 8.772-5.699 4.827-20.834-3-25.5-10.363-10.067-24.543-5.331-29 8"/><path fill="#e1f5f8" d="M332 610c-5.074-3.025-18.007-5.435-21 2-.944.471-2.249 1.321-3 2-1.887 1.707-3.079 2.216-4 5l-1-1c4.457-13.331 18.637-18.067 29-8"/><path fill="#06192e" d="M701.5 605c27.64-.676 28.787 39.445 3 43-33.229 4.581-33.136-42.263-3-43M683 634c6.094 20.639 41.563 12.788 39-10.5-.571-5.186-6.926-13.253-12-14.5-16.27-5.623-32.256 7.2-27 25"/><path fill="#055686" d="M332 610c7.827 4.666 11.772 19.801 3 25.5 2.395-8.778 4.209-14.233-2-21.5-.441-.517-3.245-2.67-4-3-7.613-3.324-10.955-2.517-18 1 2.993-7.435 15.926-5.025 21-2"/><path fill="#d7f0f3" d="M710 609c-14.498-3.564-29.543 10.164-27 25-5.256-17.8 10.73-30.623 27-25"/><path fill="#0cbfe9" d="M329 611c-5.117 9.696-22.681 4.596-22 19-1.812-6.258-.826-10.097 1-16 .751-.679 2.056-1.529 3-2 7.045-3.517 10.387-4.324 18-1"/><path fill="#055d85" d="M710 609c5.074 1.247 11.429 9.314 12 14.5 2.563 23.288-32.906 31.139-39 10.5-2.543-14.836 12.502-28.564 27-25m-24 24c4.354 12.722 27.031 10.998 31-.5 2.336-6.767-.415-17.932-8-20.5-13.025-4.409-27.857 6.81-23 21"/><path fill="#0196c5" d="M333 614c.173 2.33 1.849 4.694 2 7-3.889.577-22.351 11.002-23.5 13-.789 1.372 2.362 2.216 1.5 4-3.315-1.71-4.979-4.475-6-8-.681-14.404 16.883-9.304 22-19 .755.33 3.559 2.483 4 3"/><path fill="#2ad3f6" d="M709 612c-6.43 1.88-10.467 8.313-15.5 13-1.926 1.793-6.32 2.222-7.5 8-4.857-14.19 9.975-25.409 23-21"/><path fill="#059fcc" d="M686 633c1.18-5.778 5.574-6.207 7.5-8 5.033-4.687 9.07-11.12 15.5-13 7.585 2.568 10.336 13.733 8 20.5-3.969 11.498-26.646 13.222-31 .5"/><path fill="#1d7094" d="M304 619c-3.357 10.151.44 16.951 9 22.5-.774 2.965-16.205-4.942-10-23.5z"/><path fill="#24313b" d="M757 618c-.583 2.293-1.327 4.717-2 7-1.423-1.133-2.79-.463-4 .5-12.206 9.713-23.82 29.24-38.5 40.5-6.145 4.713-12.701 8.351-19.5 12-12.365 6.637-26.015 10.472-38 18 10.158-10.424 19.187-9.835 30.5-16 19.823-10.802 36.287-23.844 51.5-40.5 6.234-6.825 11.873-17.894 20-21.5"/><path fill="#d2e4ec" d="M368 695c1.227 1.115 1.197 1.278 1 3-29.095 4.249-48.581-11.322-69.5-30-14.415-12.871-23.639-26.906-32.5-44-.455-1.621-1.154-3.258-1-5 30.28 30.196 60.228 61.796 102 76"/><path fill="#0075a5" d="M335 621c.838 12.778-9.741 23.322-22 17 .862-1.784-2.289-2.628-1.5-4 1.149-1.998 19.611-12.423 23.5-13"/><path fill="#0a1f39" d="M369 698c30.361-4.434 48.873-27.981 74.5-41 21.908-11.13 52.42-20.568 67 6 43.79-51.344 96.296 27.955 142.5 35 15.485 2.361 23.052 1.48 37-5 23.842-11.078 51.084-37.768 63-61-.769 2.069-1.106 6.288-2 8.5-1.351 3.344-12.035 18.834-12 20 .079 2.605 25.495 36.892 24 46L742 686c1.253-2.783 3.958 1.867 5.5 3 2.184-1.131-9.37-25.34-13-25-1.989 1.218-4.028 4.876-5.5 6-5.134 3.92-9.793 8.182-15 12-3.505 2.57-23.642 14.112-24 15.5-.152.588 1.784 4.42 1 7-2.83 9.318-9.579 19.567-20 19.5 8.49-3.947 21.732-13.083 18-24.5-1.536-4.7-14.352 3.034-19.5 3.5-5.449.493-14.083-.822-19.5-2-34.844-7.577-62.175-44.925-99-51-8.533-1.408-16.738-2.223-24.5 2-6.802 3.701-13.829 13.891-12.5 22 5.689 34.704 88.311 57.895 118 58 1.983.007 4.021.083 6 0-8.596 6.177-24.817-1.328-33.5 0-2.41.369-10.113 6.344-12.5 7-11.982 3.293-24.692 5.208-37 7-3.594.523-7.523 1.62-11 2-1.625.178-3.367-.149-5 0-8.483.773-17.512 1.873-26 2-4.959.074-10.046.161-15 0-2.642-.086-6.666-.84-10-1-2.353-.113-5.401-.822-8-1-4.35-.298-8.598-.767-13-1-3.869-.205-7.245-2.963-12-2-3.424-1.386-7.389-2.224-11-3-3.275-.704-7.816-.945-11-2-3.606-1.195-12.789-7.685-14.5-8-7.711-1.419-27.866 2.374-40.5 1-8.237-.896-16.776-4.897-25-4-5.313-3.642-13.765-9.431-18-14-.183-.198-.938-3.899-2-5v-12.5c-14.125-7.327-25.072-19.822-38-28.5-4.319-2.9-6.957-7.835-13-3.5-2.268 1.627-12.05 19.346-11 23 1.954 3.059 17.364-10.532 19-13.5-1.266 2.646-1.969 7.316-3 10-8.384 21.828-9.127 41.231-5 64.5 5.108-2.141 1.276-3.83 2-6 2.837-8.498 3.112-13.237 5-20 1.387-4.969 4.167-9.733 6-16.5.212-.782.69-4.922 2-4.5-3.876 33.593 1.292 56.962 18 85.5 11.794 20.144 24.349 34.238 42.5 49-3.872-14.038-8.819-23.624-11.5-38l14.5 42c-38.555-26.149-66.274-68.455-67-116l-10 42c-10.6-24.919-8.705-54.445-1.5-80.5l-23 20c5.633-17.208 14.198-33.299 26-47-9.281-10.26-14.294-22.282-18-35.5 8.861 17.094 18.085 31.129 32.5 44 20.919 18.678 40.405 34.249 69.5 30m67-33c-16.163 9.422-29.167 24.561-47 31-12.576 4.541-29.451 6.042-43 6-6.969-.021-18.502-7.684-10 10.5 7.7 16.469 45.555 19.245 61 18.5 27.551-1.33 53.111-9.676 77-23 14.152-7.893 36.381-22.109 34-41-1.222-9.695-14.986-18.332-24-19-11.76-.872-37.832 11.073-48 17m41 66-1 2c-11.596-1.405-24.702-7.142-31.5-8-6.12-.772-16.143 5.795-23 5-.219 2.819 6.975 5.205 9 6 32.788 12.88 84.721 11.929 119.5 8 4.829.382 30.197-4.4 35.5-6 4.783-1.443 11.929-3.828 15.5-7.5-6.221.129-17.083-6.074-22.5-5.5-1.242.131-7.445 4.514-10 5-7.109 1.351-14.33 2.103-21.5 3-2.138.268-4.215.837-6 1v-2c12.368-1.273 24.65-2.134 36-7.5-25.325-10.621-58.213-21.321-65.5-51.5-8.662 29.198-39.429 41.127-65.5 50.5 9.019 7.003 20.493 6.206 31 7.5"/><path fill="#4c6774" d="M755 625c-.696 2.359-1.143 4.692-2 7-11.916 23.232-39.158 49.922-63 61l3-15c6.799-3.649 13.355-7.287 19.5-12 14.68-11.26 26.294-30.787 38.5-40.5 1.21-.963 2.577-1.633 4-.5"/><path fill="#137faf" d="m484 648-7 2.5c9.385 4.691 21.016 8.969 23 20.5-3.005 2.2-11.819 18.367-15 22.5-3.274 4.254-11.106 8.566-11 14.5-23.889 13.324-49.449 21.67-77 23l-9-4.5c2.499-.606 2.796-3.856 3-4 1.319-.934 19.517-.554 20.5-7.5-3.174-.498-12.469 5.782-14 6-2.798.399-3.655-2.03-4-2-12.52 1.09-22.126 1.857-34.5-1 4.095-1.445 3.444-6.095 5-10 19.646-3.189 42.503-16.381 59.5-27 2.22-1.387 9.899-5.596 9-9l-12.5 7.5 16-14.5c10.168-5.927 36.24-17.872 48-17m-31.5 14c-3.213 2.182 3.255 2.159 2.5.5-.299-.658-2.151-.737-2.5-.5m-15 33L424 707.5c4.807-2.427 12.189-6.624 13.5-12.5m-20 29c-.757.097-7.87 2.126-7.5 3.5l12.5-2.5c.559-1.654-4.314-1.088-5-1"/><path fill="#1a5885" d="M508 667c-1.055 6.075-6.661 3.02-8 4-1.984-11.531-13.615-15.809-23-20.5l7-2.5c9.014.668 22.778 9.305 24 19"/><path fill="#157cad" d="M551 650c-.957 6.763-7.321 3.663-11.5 6 4.869 1.869 11.408 1.058 16 2 5.594 1.148 9.802 4.082 15 4l-1.5 1.5c1.588 2.058 4.04 2.953 6 4.5 2.565 4.578 7.946 8.724 12 12-5.836.159-12.091-5.513-16.5-7-.172-.058-4.326-.515-3.5 1-.873-.693-4.221-4.812-4.5-5-.582-.393-.002 2.457-1.5 1.5-8.416-5.379-20.476-13.614-29-7.5-2.651-.407-6.627.573-9 0-.173-.042.836-3.48-1.5-3-8.43 9.833 9.473 18.341 11.5 29-5.914-5.044-12.69-10.41-19-15-1.329-8.109 5.698-18.299 12.5-22 7.762-4.223 15.967-3.408 24.5-2"/><path fill="#176fa1" d="m650 701-2.5 3 11.5 5c-33.95 3.607-58.944-21.218-84-41-1.96-1.547-4.412-2.442-6-4.5l1.5-1.5c-5.198.082-9.406-2.852-15-4-4.592-.942-11.131-.131-16-2 4.179-2.337 10.543.763 11.5-6 36.825 6.075 64.156 43.423 99 51"/><path fill="#1abfe2" d="M523 663c-1.111 3.629 1.124 4.866 2 7 6.428 15.67 12.78 20.95 27 29l-2 4c-6.446-4.114-11.281-9.122-17-14-2.027-10.659-19.93-19.167-11.5-29 2.336-.48 1.327 2.958 1.5 3"/><path fill="#166697" d="M567 674c12.76 10.132 26.489 28.206 39.5 36 2.766 1.657 10.804 5.338 11.5 1 4.106 2.367 22.512 4.891 25.5 5 1.525.056-.763 4.231 2.5-1 1.169-1.874-1.489-1.167-1-1.5 3.576-2.438 17.173-2.05 22.5-3.5 2.827-.77 3.549-2.567-.5-2 .101-.019-.355-1.811.5-2 1.153-.255 7.958-.96 9.5-.5-4.5 2.228-5.685 5.146-8 9.5-4.469 1.471-8.676 2.572-13.5 2l2.5 3c-.259.079-4.212 3.084-4.5 3-1.602-.467 1.049-2.8 0-3-7.595-1.45-16.655 1.261-24-3-3.734 5.724 2.967 5.276 4.5 10.5l-10 1 8 3.5c-29.689-.105-112.311-23.296-118-58 6.31 4.59 13.086 9.956 19 15 5.719 4.878 10.554 9.886 17 14 1.564.998 5.637 4.727 6.5 5 .211.067 1.769-2.052 2-2 2.466.554 4.578 2.899 5 3 2.346.561 4.093-1.09 4.5-1-.404 3.422-6.19 1.721-2.5 5 5.73-.276 11.737 7.755 16.5 2.5-3.903-4.561-8.59-6.308-14-7.5.42-3.559-8.281-5.622-11-7 4.092-7.995-19.249-15.237-9.5-20 12.39 13.813 26.065 25.948 43 34 3.691-4.429-8.088-5.848-9.5-7.5-.103-.12 2.006-1.967 1-3-2.641-2.71-5.285-5.979-8-8.5 1.643-3.747 7.955 5.001 8.5 5l3.5-3.5c-14.638-15.623-30.19-35.806-54-34.5 8.524-6.114 20.584 2.121 29 7.5 1.498.957.918-1.893 1.5-1.5.279.188 3.627 4.307 4.5 5m29 38c.816.528 12.399 9.482 13 6.5-4.098-2.741-8.58-4.436-13-6.5-.753-.487-2.818-4.107-5-2.5 1.124 1.91 3.551 1.824 5 2.5m1.5 9c-.292 0-6.981 1.142-5 3l20.5 3.5c-3.619-2.708-11.049-6.502-15.5-6.5"/><path fill="#0aa2d2" d="M452.5 662c.349-.237 2.201-.158 2.5.5.755 1.659-5.713 1.682-2.5-.5"/><path fill="#0d95c5" d="M532 663c23.81-1.306 39.362 18.877 54 34.5l-3.5 3.5c-.545.001-6.857-8.747-8.5-5-8.736-8.112-19.975-13.546-28.5-22-1.605 8.361-13.615-4.685-20.5-4-.876-2.134-3.111-3.371-2-7 2.373.573 6.349-.407 9 0"/><path fill="#0f3b64" d="M295 669c-2.702 1.846-3.602 3.078-5 6-1.636 2.968-17.046 16.559-19 13.5-1.05-3.654 8.732-21.373 11-23 6.043-4.335 8.681.6 13 3.5"/><path fill="#2074a4" d="M742 686h-1c-.988-3.08-2.67-7.482-7-8-.082-.177-2.661-1.64-3-2.5-.149-.379 4.611-4.072-2-5.5 1.472-1.124 3.511-4.782 5.5-6 3.63-.34 15.184 23.869 13 25-1.542-1.133-4.247-5.783-5.5-3"/><path fill="#5ed6ea" d="m364 708 15.5-5 9.5-7c17.833-6.439 30.837-21.578 47-31l-16 14.5 12.5-7.5c.899 3.404-6.78 7.613-9 9-16.997 10.619-39.854 23.811-59.5 27"/><path fill="#176fa3" d="M474 708c-.106-5.934 7.726-10.246 11-14.5 3.181-4.133 11.995-20.3 15-22.5 1.339-.98 6.945 2.075 8-4 2.381 18.891-19.848 33.107-34 41"/><path fill="#37a7ca" d="M659 709c2.565-.273 5.489-.525 8-1 4.049-.567 3.327 1.23.5 2-5.327 1.45-18.924 1.062-22.5 3.5-.489.333 2.169-.374 1 1.5l-21.5-7-33.5-24c-3.058.002-3.78-3.822-4-4-4.054-3.276-9.435-7.422-12-12 25.056 19.782 50.05 44.607 84 41"/><path fill="#0c3258" d="M333 710c-2.287-2.372-3.781-4.6-6-7-9.527-10.303-14.826-18.065-30-18-3.393.015-6.822 1.368-10 0 1.031-2.684 1.734-7.354 3-10 1.398-2.922 2.298-4.154 5-6 12.928 8.678 23.875 21.173 38 28.5z"/><path fill="#167caf" d="M574 696c2.715 2.521 5.359 5.79 8 8.5 1.006 1.033-1.103 2.88-1 3 1.412 1.652 13.191 3.071 9.5 7.5-16.935-8.052-30.61-20.187-43-34-9.749 4.763 13.592 12.005 9.5 20-1.277-.648-3.302-1.039-5-2-14.22-8.05-20.572-13.33-27-29 6.885-.685 18.895 12.361 20.5 4 8.525 8.454 19.764 13.888 28.5 22"/><path fill="#1e6491" d="M734 678c10.033 21.686 12.627 51.522 4.5 74-3.656-15.29-6.276-31.767-11.5-47 5.539.646-.169-13.415-1-14.5-2.182-2.848-9.028-5.935-12-8.5 5.207-3.818 9.866-8.08 15-12 6.611 1.428 1.851 5.121 2 5.5.339.86 2.918 2.323 3 2.5"/><path fill="#1284b7" d="M587 680c.22.178.942 4.002 4 4 6.824 5.743 20.399 23.194 27 27-.696 4.338-8.734.657-11.5-1-13.011-7.794-26.74-25.868-39.5-36-.826-1.515 3.328-1.058 3.5-1 4.409 1.487 10.664 7.159 16.5 7"/><path fill="#9bbdc9" d="M541 732c-22.419 2.307-41.658 1.752-64-1-10.507-1.294-21.981-.497-31-7.5 26.071-9.373 56.838-21.302 65.5-50.5 7.287 30.179 40.175 40.879 65.5 51.5-11.35 5.366-23.632 6.227-36 7.5"/><path fill="#051021" d="M741 686c8.087 25.211 5.559 57.363-2 82.5L728.5 724c1.749 49.167-29.402 92.11-69 118l18.5-51c.692-2.067 5.088-20.026 5-23-1.44 7.984 2.36 20.146 0 27.5-.951 2.964-4.762 5.368-5 6-4.172 11.091-7.488 22.437-13 33 41.76-28.369 70.718-80.385 60-132 2.888-1.651 1.618 1.387 2 2.5 5.224 15.233 7.844 31.71 11.5 47 8.127-22.478 5.533-52.314-4.5-74 4.33.518 6.012 4.92 7 8"/><path fill="#607f8b" d="M690 693c-13.948 6.48-21.515 7.361-37 5-.164-1.214 1.684-1.676 2-2 11.985-7.528 25.635-11.363 38-18z"/><path fill="url(#l)" d="M727 705c-.382-1.113.888-4.151-2-2.5 10.718 51.615-18.24 103.631-60 132 5.512-10.563 8.828-21.909 13-33 .238-.632 4.049-3.036 5-6 2.36-7.354-1.44-19.516 0-27.5-.075-2.527-6.218-30.28-9-27.5-.142 4.083 1.433 9.37 1 13-1.385 11.612-6.755 27.791-10 37-.195.555-8.268 12.309-2 8 1.19-.818 6.245-14.497 7-17 1.322 7.42-4.741 14.179-7 21l-10 14c5.649.826 13.703-20.203 15.5-20.5.616-.102 4.441 2.331 4.5 4.5.213 7.782-31.308 40.457-38.5 46.5L606 865.5l30.5-37.5c-14.104 20.84-34.468 36.48-55.5 50 .448-.386-1.068-1.44-1-1.5 17.248-15.235 32.039-25.72 43-46.5 8.426-15.974 13.365-30.208 14-48.5l-2-11c-.959 8.58-.616 20.326-2 28.5-7.712-3.701-3.183.434-4 2.5-1.192 3.016-6.39 18.192-7 19-2.375 3.147-2.934-.963-6 2-1.108 1.071-6.506 17.231-9 9.5 5.484-11.278 9.115-23.305 12-35.5l-1-19.5c-4.305.226-2.995.589-4-2.5-1.415-4.346-2.868-17.499-6-21-2.685-3.002-3.871.323-4.5-.5-2.758-3.605-4.689-11.771-11.5-14 2.387-.656 10.09-6.631 12.5-7 8.683-1.328 24.904 6.177 33.5 0 10.143-.426 23.909-3.773 33-8 10.421.067 17.17-10.182 20-19.5.784-2.58-1.152-6.412-1-7 .358-1.388 20.495-12.93 24-15.5 2.972 2.565 9.818 5.652 12 8.5.831 1.085 6.539 15.146 1 14.5" style="fill:url(#l)"/>/&gt;<path fill="#1b98c8" d="M646 715c-3.263 5.231-.975 1.056-2.5 1-2.988-.109-21.394-2.633-25.5-5-6.601-3.806-20.176-21.257-27-27l33.5 24z"/><path fill="#153f65" d="M297 685c-6.727 11.366-11.213 19.642-13 32.5-.062.443-4.712 5.533 1 7 .894-11.051 3.264-23.611 10.5-32.5-.255 6.997-8.436 9.394-.5 15-1.833 6.767-4.613 11.531-6 16.5-1.888 6.763-2.163 11.502-5 20-.724 2.17 3.108 3.859-2 6-4.127-23.269-3.384-42.672 5-64.5 3.178 1.368 6.607.015 10 0"/><path fill="#1f5173" d="M327 703c-5.245 3.371-18.519 27.235-17 31.5.596 1.673 4.757.436 5 .5-1.702 6.216-3.92 12.432-4 19-.012.99-.043 2.013 0 3 .319 7.388 7.013 22.563 7 26.5-.015 4.667-3.516-1.243-3 4.5-16.708-28.538-21.876-51.907-18-85.5-1.31-.422-1.788 3.718-2 4.5-7.936-5.606.245-8.003.5-15-7.236 8.889-9.606 21.449-10.5 32.5-5.712-1.467-1.062-6.557-1-7 1.787-12.858 6.273-21.134 13-32.5 15.174-.065 20.473 7.697 30 18"/><path fill="#103553" d="M437.5 695c-1.311 5.876-8.693 10.073-13.5 12.5z"/><path fill="#1d6292" d="m389 696-9.5 7-15.5 5c-1.556 3.905-.905 8.555-5 10-10.437-2.41-19.402-5.659-13-16 13.549.042 30.424-1.459 43-6"/><path fill="#145583" d="M671 724c-9.091 4.227-22.857 7.574-33 8-1.979.083-4.017.007-6 0l-8-3.5 10-1c-1.533-5.224-8.234-4.776-4.5-10.5 7.345 4.261 16.405 1.55 24 3 1.049.2-1.602 2.533 0 3 .288.084 4.241-2.921 4.5-3 7.842-2.388 16.74-3.547 22.5-10-4.286.337-7.648 3.732-11.5 5 2.315-4.354 3.5-7.272 8-9.5-1.542-.46-8.347.245-9.5.5-.855.189-.399 1.981-.5 2-2.511.475-5.435.727-8 1l-11.5-5 2.5-3c5.417 1.178 14.051 2.493 19.5 2 5.148-.466 17.964-8.2 19.5-3.5 3.732 11.417-9.51 20.553-18 24.5"/><path fill="#0890c4" d="M557 701c2.719 1.378 11.42 3.441 11 7-.407-.09-2.154 1.561-4.5 1-.422-.101-2.534-2.446-5-3-.231-.052-1.789 2.067-2 2-.863-.273-4.936-4.002-6.5-5l2-4c1.698.961 3.723 1.352 5 2"/><path fill="#174b78" d="M346 702c-6.402 10.341 2.563 13.59 13 16 12.374 2.857 21.98 2.09 34.5 1 .345-.03 1.202 2.399 4 2 1.531-.218 10.826-6.498 14-6-.983 6.946-19.181 6.566-20.5 7.5-.204.144-.501 3.394-3 4l9 4.5c-15.445.745-53.3-2.031-61-18.5-8.502-18.184 3.031-10.521 10-10.5"/><path fill="#397799" d="M333 710c1.062 1.101 1.817 4.802 2 5-10.267 5.669-8.665 22.37-9 33-.183 5.805-1.467 11.479-1 17.5.771 9.924 6.022 21.136 5.5 31.5-8.13-12.574-14.24-27.035-14.5-42.5l-5 2.5c-.043-.987-.012-2.01 0-3 1.846-2.387 5.937-16.499 6-18.5.09-2.836-1.213-.294-2-.5-.243-.064-4.404 1.173-5-.5-1.519-4.265 11.755-28.129 17-31.5 2.219 2.4 3.713 4.628 6 7m-9.5 58c-2.524 4.839.137 10.684 3 15z"/><path fill="#1176a9" d="M568 708c5.41 1.192 10.097 2.939 14 7.5-4.763 5.255-10.77-2.776-16.5-2.5-3.69-3.279 2.096-1.578 2.5-5"/><path fill="#0aa9d2" d="M596 712c-1.449-.676-3.876-.59-5-2.5 2.182-1.607 4.247 2.013 5 2.5"/><path fill="#5496b4" d="m658 720-2.5-3c4.824.572 9.031-.529 13.5-2 3.852-1.268 7.214-4.663 11.5-5-5.76 6.453-14.658 7.612-22.5 10"/><path fill="#06b3d9" d="M596 712c4.42 2.064 8.902 3.759 13 6.5-.601 2.982-12.184-5.972-13-6.5"/><path fill="#2a7da5" d="M335 715c4.235 4.569 12.687 10.358 18 14 5.546 3.802 14.707 10.201 21 12-2.802 5.507-4.533 11.035-6 17-.628 2.555-.503 6.4-1.5 9l.5-10.5c-2.336 1.588-3.356 10.045-3 13 .114.945 2.874.054 3 1 2.526 18.974 4.568 36.531 17 52.5 1.075 2.12 1.096 3.96 3 7-3.357-.076 2.737 7.193 3 7.5 15.344 17.895 27.153 25.884 46 39.5.151.882-1.171 1.133-1 2-7.498-3.112-15.142-7.722-22-12-16.777-12.278-32.732-25.96-46-42-1.146-2.684 1.951-3.782 2-4 1.226-1.434 7.529 7.871 7 3.5-10.645-13.317-19.318-27.859-25-44l-4-39.5c-3.882 5.348-5.417 15.21-6.5 23-10.291.359-3.642-16.393-3.5-23.5-4.992-2.64-3.346 8.903-5.5 9.5l-5.5-2c.335-10.63-1.267-27.331 9-33"/><path fill="#0e3960" d="M597.5 721c4.451-.002 11.881 3.792 15.5 6.5l-20.5-3.5c-1.981-1.858 4.708-3 5-3"/><path fill="#123857" d="M417.5 724c.686-.088 5.559-.654 5 1l-12.5 2.5c-.37-1.374 6.743-3.403 7.5-3.5"/><path fill="#8ac2d4" d="M476 733c20.701 2.509 44.208 2.894 65 1 1.785-.163 3.862-.732 6-1l2 8.5c-8.172.481-3.962 2.107 1 2.5-34.779 3.929-86.712 4.88-119.5-8-2.025-.795-9.219-3.181-9-6 6.857.795 16.88-5.772 23-5 6.798.858 19.904 6.595 31.5 8"/><path fill="#70a3b6" d="M550 744c-4.962-.393-9.172-2.019-1-2.5l-2-8.5c7.17-.897 14.391-1.649 21.5-3 2.555-.486 8.758-4.869 10-5 5.417-.574 16.279 5.629 22.5 5.5-3.571 3.672-10.717 6.057-15.5 7.5-5.303 1.6-30.671 6.382-35.5 6"/><path fill="#124b6f" d="M378 733c-.195 3.16-2.694 5.433-4 8-6.293-1.799-15.454-8.198-21-12 8.224-.897 16.763 3.104 25 4"/><path fill="#434b58" d="M541 732v2c-20.792 1.894-44.299 1.509-65-1l1-2c22.342 2.752 41.581 3.307 64 1"/><path fill="#1f7ba4" d="M433 740c-5.873 3.668-10.342 8.701-14 14.5-3.282 5.203-6.702 20.58-12 19.5.206-2.63.825-5.419.5-8-1.889.379-2.13 5.209-2.5 7l-7 1c-.01-.125-1.94-.733-2-1.5-.38-4.871.454-9.683.5-14.5-2.902 6.058-4.694 4.572-8.5 9-.658-8.667 2.542-15.276 6-23.5-7.228-.508-12.907-.472-20-2.5 1.306-2.567 3.805-4.84 4-8 12.634 1.374 32.789-2.419 40.5-1 1.711.315 10.894 6.805 14.5 8"/><path fill="#5284a1" d="M311 754c.08-6.568 2.298-12.784 4-19 .787.206 2.09-2.336 2 .5-.063 2.001-4.154 16.113-6 18.5"/><path fill="#133a5a" d="M369 821c.961-4.245-3.581-4.727-5-7.5-8.84-17.273-16.141-34.946-17-55.5-.235-5.636.171-11.359 0-17l4 39.5c5.682 16.141 14.355 30.683 25 44 .529 4.371-5.774-4.934-7-3.5"/><path fill="#155a87" d="M592 739c6.811 2.229 8.742 10.395 11.5 14 .629.823 1.815-2.502 4.5.5 3.132 3.501 4.585 16.654 6 21 1.005 3.089-.305 2.726 4 2.5 1.524 46.798-28.444 80.289-60.5 110L520 916c10.59-12.902 22.561-24.873 33-38 1.553 4.078 2.101 1.971 4.5 0 11.255-9.249 39.427-48.06 40.5-61.5.985-12.335-2.294-32.653-13-40 3.31 12.625 6.382 29.163 3 42-.738 2.801.334 3.48-3 1.5 2.212-15.858-1.776-33.811-9-48-.656-1.288-.966-.938-1-1-1.941-3.536-3.277-7.159-6-10.5-4.035-4.952-12.119-7.985-14-14.5 12.308-1.792 25.018-3.707 37-7"/><path fill="#1c608c" d="M347 741c.171 5.641-.235 11.364 0 17-7.553-.336-4.8 15.132-5 20-.079 1.913-3.149 6.687 1 8 .087.309-.103.705 0 1 .159 4.174 2.252 7.991 3 12 2.681 14.376 7.628 23.962 11.5 38-18.151-14.762-30.706-28.856-42.5-49-.516-5.743 2.985.167 3-4.5.013-3.937-6.681-19.112-7-26.5l5-2.5c.26 15.465 6.37 29.926 14.5 42.5.522-10.364-4.729-21.576-5.5-31.5-.467-6.021.817-11.695 1-17.5l5.5 2c2.154-.597.508-12.14 5.5-9.5-.142 7.107-6.791 23.859 3.5 23.5 1.083-7.79 2.618-17.652 6.5-23"/><path fill="#1a87b9" d="M444 742c-2.894 6.645-10.713 7.489-16 13.5-1.625 1.847-10.255 17.957-10 19 .078.317 4.59 2.501 5.5 3.5 3.751-6.257 7.57-11.433 15-13 2.427.801.42 6.753.5 9-8.47 7.914-10.413 16.434-13 27-1.042 4.257-1.95 19.593-5.5 18-1.625-.729-6.196-22.906-7.5-25.5-1.334-2.654-2.824.127-3.5-.5-.293-.272 1.817-6.461-3.5-1-.495-6.85.482-11.379 1-18 5.298 1.08 8.718-14.297 12-19.5 3.658-5.799 8.127-10.832 14-14.5 3.184 1.055 7.725 1.296 11 2"/><path fill="#062244" d="M683 768c.088 2.974-4.308 20.933-5 23-13.688 40.884-55.746 70.335-91.5 91l-1-4c-24.589 17.311-50.503 32.855-73 53-24.228-19.785-51.221-35.737-76.5-54-18.847-13.616-30.656-21.605-46-39.5-.263-.307-6.357-7.576-3-7.5 6.241 9.961 22.857 24.406 32 32 5.93 4.926 12.891 8.492 19 13 3.096 2.285 7.648 7.328 11.5 10a297 297 0 0 0 30.5 18.5c-12.569-11.39-26.602-21.894-38-34.5-9.512-10.521-18.479-22.373-25-35-9.607-18.603-16.39-39.728-12-61 .37-1.791.611-6.621 2.5-7 .325 2.581-.294 5.37-.5 8-.518 6.621-1.495 11.15-1 18 2.414 33.417 24.227 60.35 47 83 18.521 18.42 39.788 33.76 58.5 52l7.5-5.5-6.5 1.5c-3.818-2.714 9.413-24.101 11.5-28 17.88-33.412 38.384-64.365 40-104 .215-5.268.43-10.858-1-16 4.104 4.922 3.161 8.74 3 15-1.096 42.611-26.637 81.795-47 117.5-.663 1.163-3.638 6.325-2 7.5-.918 1.608-2.451 3.134-2.5 5 2.707-.326 3.967-2.132 5.5-4l37.5-29c32.056-29.711 62.024-63.202 60.5-110l1 19.5c-2.885 12.195-6.516 24.222-12 35.5-9.351 19.229-28.08 38.108-43.5 53-3.132 3.025-16.256 11.944-17.5 14.5-.398.819-1.587 2.881.5 2.5 10.747-8.991 23.894-14.871 34.5-24 21.032-13.52 41.396-29.16 55.5-50L606 865.5l28.5-18.5c7.192-6.043 38.713-38.718 38.5-46.5-.059-2.169-3.884-4.602-4.5-4.5-1.797.297-9.851 21.326-15.5 20.5l10-14c2.259-6.821 8.322-13.58 7-21-.755 2.503-5.81 16.182-7 17-6.268 4.309 1.805-7.445 2-8 3.245-9.209 8.615-25.388 10-37 .433-3.63-1.142-8.917-1-13 2.782-2.78 8.925 24.973 9 27.5"/><path fill="#1b8dbc" d="M388 767c.164 2.156.904 3.332 1 5-.296 7.554-1.773 12.751 1 20 .084.22 3.701 1.654 4 2.5 2.922 8.253 3.297 19.751 7 28 3.189 7.103 10.753 18.814 15 26 .214.363 4.393 2.352 5 4 1.338 3.629-4.063 3.799 0 5.5 2.45 3.385-2.27.375-2 4-9.143-7.594-25.759-22.039-32-32-1.904-3.04-1.925-4.88-3-7-7.068-13.936-15.864-35.862-15-51.5.173-3.124 4.271-10.674 3-15l-4 1.5c1.467-5.965 3.198-11.493 6-17 7.093 2.028 12.772 1.992 20 2.5-3.458 8.224-6.658 14.833-6 23.5"/><path fill="#1d6e98" d="M455 745c-4.488.909-15.636 13.705-13.5 19h8.5c-3.965 6.212-4.933 17.57-12 22 .019-3.867 1.21-6.107 1-12-.08-2.247 1.927-8.199-.5-9-7.43 1.567-11.249 6.743-15 13-.91-.999-5.422-3.183-5.5-3.5-.255-1.043 8.375-17.153 10-19 5.287-6.011 13.106-6.855 16-13.5 3.611.776 7.576 1.614 11 3"/><path fill="#1c597b" d="M467 747c-5.641 4.881-10.648 8.722-15 15-.843 1.216-1.924 1.881-2 2h-8.5c-2.136-5.295 9.012-18.091 13.5-19 4.755-.963 8.131 1.795 12 2"/><path fill="#1a86b9" d="M555 746c1.881 6.515 9.965 9.548 14 14.5 2.723 3.341 4.059 6.964 6 10.5l-8 2c-1.121-2.485-4.509-7.196-6.5-9-1.222-1.107-1.763 2.129-2 2-1.159-.631-11.304-15.936-14.5-18 3.477-.38 7.406-1.477 11-2"/><path fill="#176a9b" d="M480 748c-6.715 5.591-11.115 10.053-15 17-3.08 5.507-5.342 4.809-3.5 12 .059.231 3.222-.491 3.5.5.082.293-1.597 3.101-1 6 1.539 7.474 9.589 46.529 14 50 2.062 1.623 5.367-.518 6 0 .658.539 3.323 14.41 7 15.5 4.385 12.5 9.58 24.969 14 37.5.638 1.81-2.186 1.491-2 2 .107.294 1.432-.293 3 3.5 1.392 3.367 4.204 11.764 7 11 1.402.254 5.852-11.235 7-14 6.987-.07-2.605 5.374 4 6-2.087 3.899-15.318 25.286-11.5 28l6.5-1.5-7.5 5.5c-18.712-18.24-39.979-33.58-58.5-52 .187-3.697 1.453-1.793 3-.5 9.884 8.265 20.373 15.159 30 23.5.703 2.881 14.837 17.099 16 17 1.563 1.774 3.396 5.097 6 5.5-10.658-49.726-54.144-86.79-50-141-4.725 16.557 2.172 38.21 8 54.5-.079-.178-1.851.248-3-2.5-3.255-7.786-4.258-17.346-6.5-25.5-1.361 7.906 1.096 19.254 3.5 27l-2 4c-5.219-14.045-9.077-39.672-6-57 .635-3.579 6.073-13.047 9-15.5l-9-2.5c4.352-6.278 9.359-10.119 15-15 4.402.233 8.65.702 13 1m25.5 156 3 12c1.689-.043-.35-12.979-3-12"/><path fill="#1a5379" d="M488 749c-1.96 2.395-8.449 12.232-10 13.5-3.323 2.716-6.562-.158-7 3.5-2.131.091-4.13.322-6-1 3.885-6.947 8.285-11.409 15-17 2.599.178 5.647.887 8 1"/><path fill="#1775a5" d="M539 748c8.365 4.704 13.691 12.873 19 20.5.227.326.604 3.78 2.5 6.5.184.264 2.309-.229 2.5 0 1.43 5.142 1.215 10.732 1 16-4.73 5.754-6.943 29.32-12 33.5-2.336 1.931-5.257-1.706-7 0-2.775 2.716-5.554 25.717-12 28.5 2.929-7.991 7.914-16.854 8-25.5-8.53 25.53-21.679 49.234-28 75.5-2.796.764-5.608-7.633-7-11 3.317-3.635 2.057-9.192 1-13.5 5.788-1.939 1.467 4.738 5 4 1.479-7.893.557-18.512 2-26 .061-.314 3.341-1.297 4-5 .754-4.237-1.213-7.653-1-9 3.496-22.061 6.932-42.847-3-65.5.326-10.544-6.017-18.065-16-20.5l15-6.5c8.488-.127 17.517-1.227 26-2m-18 23c11.352 28.295 5.469 36.28 1 63-.866 5.178-3.373 18.451 2.5 19 7.91-.936 21.5-54.337 21-63l.5 19.5c8.093-2.57 2.953-5.53 3-6 .898-9.057 2.27-18.278-1-27-.887-2.367-10.651-11.557-13-13.5-7.43-6.145-12.242-11.865-23.5-11l-.5 4.5c7.54 3.44 7.584 8.477 10 14.5"/><path fill="#12547d" d="M544 748c3.196 2.064 13.341 17.369 14.5 18 .237.129.778-3.107 2-2 1.991 1.804 5.379 6.515 6.5 9 2.504 5.55 4.752 15.912 5 22 1.134 27.835-12.632 62.145-30.5 83-1.504-5.144 5.186-10.983 7.5-15.5 9.123-17.808 19.58-45.11 20-62 .062-2.476-1.433-8.311-3-10.5.161-6.26 1.104-10.078-3-15-.191-.229-2.316.264-2.5 0-1.896-2.72-2.273-6.174-2.5-6.5-5.309-7.627-10.635-15.796-19-20.5 1.633-.149 3.375.178 5 0"/><path fill="#195a84" d="m498 750-14 12.5 7 1.5c-1.307.122-2.692-.116-4 0-.949.084-1.044.906-2 1-3.954.39-9.112.921-13 1-.333.007-.668-.014-1 0 .438-3.658 3.677-.784 7-3.5 1.551-1.268 8.04-11.105 10-13.5 3.334.16 7.358.914 10 1"/><path fill="#1a6996" d="m513 750-15 6.5c9.983 2.435 16.326 9.956 16 20.5-.129-.293-3.477-4.192-4-5-3.476-5.369-2.132-2.104-3-3-1.239-1.279-3.384-6.457-5.5-7-3.778-.97-7.48 1.717-10.5 2l-7-1.5 14-12.5c4.954.161 10.041.074 15 0"/><path fill="#178cbd" d="M535 763c2.041 12.632 6.516 26.899-5 36-.834-8.705-2.475-18.492-6-26.5-.35-.795-2.018-4.156-3-1.5-2.416-6.023-2.46-11.06-10-14.5l.5-4.5c11.258-.865 16.07 4.855 23.5 11"/><path fill="#58afd1" d="m368 758 4-1.5c1.271 4.326-2.827 11.876-3 15-.864 15.638 7.932 37.564 15 51.5-12.432-15.969-14.474-33.526-17-52.5-.126-.946-2.886-.055-3-1-.356-2.955.664-11.412 3-13l-.5 10.5c.997-2.6.872-6.445 1.5-9"/><path fill="#1d6c99" d="M347 758c.859 20.554 8.16 38.227 17 55.5 1.419 2.773 5.961 3.255 5 7.5-.049.218-3.146 1.316-2 4-9.492-11.474-15.098-18.902-21-33-.645-1.54-2.904-4.725-3-5-.103-.295.087-.691 0-1-.543-1.933-.694-5.812-1-8 .2-4.868-2.553-20.336 5-20"/><path fill="#18698f" d="M398 774c2.081 26.191 1.979 35.559 14 60 1.922 3.907 14.454 22.21 14 23.5-.479 1.362-3.474-1.574-5 .5-4.063-1.701 1.338-1.871 0-5.5-.607-1.648-4.786-3.637-5-4-4.247-7.186-11.811-18.897-15-26-3.703-8.249-4.078-19.747-7-28-.299-.846-3.916-2.28-4-2.5-1.355-5.368 1.403-15.099 1-19.5-.076-.831-1.994-.397-2-.5-.096-1.668-.836-2.844-1-5 3.806-4.428 5.598-2.942 8.5-9-.046 4.817-.88 9.629-.5 14.5.06.767 1.99 1.375 2 1.5"/><path fill="#178cbe" d="M452 780c-1.588-1.092-2.892-1.57-4 .5-3.778 7.058-6.157 35.265-8 37.5-.953-11.842-2.055-21.004-2-32 7.067-4.43 8.035-15.788 12-22 .076-.119 1.157-.784 2-2l9 2.5c-2.927 2.453-8.365 11.921-9 15.5"/><path fill="#1a88ba" d="m507 769-5 11.5c2.867 2.684-2.911 8.496-3 9-1.338 7.567 2.494 20.102-3 26.5-5.161-17.295-13.798-33.167-9-52 1.308-.116 2.693.122 4 0 3.02-.283 6.722-2.97 10.5-2 2.116.543 4.261 5.721 5.5 7"/><path fill="#0c95c4" d="M522 834c7.174-11.863 9.149-23 8-35 11.516-9.101 7.041-23.368 5-36 2.349 1.943 12.113 11.133 13 13.5 3.27 8.722 1.898 17.943 1 27-.047.47 5.093 3.43-3 6l-.5-19.5c.5 8.663-13.09 62.064-21 63-5.873-.549-3.366-13.822-2.5-19"/><path fill="#0eabd9" d="M496 816c.613 2.054.592 4.544 1 6-.107 5.206-1.291 3.256-3 .5-9.327-15.046-18.223-40.975-9-57.5.956-.094 1.051-.916 2-1-4.798 18.833 3.839 34.705 9 52"/><path fill="#1981b4" d="M471 766c.332-.014.667.007 1 0-3.375 20.313 3.83 40.497 10 59.5.766 2.359 2.729.19 3 1 1.193 3.566-.295 7.128 0 8 1.655 4.893 4.274 9.579 6 14.5-3.677-1.09-6.342-14.961-7-15.5-.633-.518-3.938 1.623-6 0-4.411-3.471-12.461-42.526-14-50-.597-2.899 1.082-5.707 1-6-.278-.991-3.441-.269-3.5-.5-1.842-7.191.42-6.493 3.5-12 1.87 1.322 3.869 1.091 6 1"/><path fill="#1685b7" d="M485 765c-9.223 16.525-.327 42.454 9 57.5 1.709 2.756 2.893 4.706 3-.5.034.12 1.761.603 2 1.5.349 1.306-3.919 8.753 3 9-.259-4.679-3.174-31.951-2-34 .661-1.153 3.34.153 4-1 1.471-2.571-2.529-22.56 6-25.5.523.808 3.871 4.707 4 5 9.932 22.653 6.496 43.439 3 65.5-.213 1.347 1.754 4.763 1 9-.659 3.703-3.939 4.686-4 5-1.443 7.488-.521 18.107-2 26-3.533.738.788-5.939-5-4 1.057 4.308 2.317 9.865-1 13.5-1.568-3.793-2.893-3.206-3-3.5-.186-.509 2.638-.19 2-2-4.42-12.531-9.615-25-14-37.5-1.726-4.921-4.345-9.607-6-14.5-.295-.872 1.193-4.434 0-8-.271-.81-2.234 1.359-3-1-6.17-19.003-13.375-39.187-10-59.5 3.888-.079 9.046-.61 13-1m15.5 73-1.5 8.5 4.5 8.5z"/><path fill="#4284a2" d="m323.5 768 3 15c-2.863-4.316-5.524-10.161-3-15"/><path fill="#1973a3" d="M510 772c-8.529 2.94-4.529 22.929-6 25.5-.66 1.153-3.339-.153-4 1-1.174 2.049 1.741 29.321 2 34-6.919-.247-2.651-7.694-3-9-.239-.897-1.966-1.38-2-1.5-.408-1.456-.387-3.946-1-6 5.494-6.398 1.662-18.933 3-26.5.089-.504 5.867-6.316 3-9l5-11.5c.868.896-.476-2.369 3 3"/><path fill="#21bede" d="M530 799c1.149 12-.826 23.137-8 35 4.469-26.72 10.352-34.705-1-63 .982-2.656 2.65.705 3 1.5 3.525 8.008 5.166 17.795 6 26.5"/><path fill="#1d6e9d" d="M575 771c.034.062.344-.288 1 1-1.84-.153-.109 7.141 0 7.5 1.917 6.313 7.383 14.869 8 23 .675 8.896-1.374 18.321-3 27 2.57.539 3.815-8.176 4-9.5 3.334 1.98 2.262 1.301 3-1.5 3.382-12.837.31-29.375-3-42 10.706 7.347 13.985 27.665 13 40-1.073 13.44-29.245 52.251-40.5 61.5-2.399 1.971-2.947 4.078-4.5 0 4.243-5.336 8.056-10.939 12-16.5l-10 8.5c-4.253.154-2.694-.336-1-2.5 14.353-18.337 26.148-32.789 24-58l-6-14.5c-.248-6.088-2.496-16.45-5-22z"/><path fill="#041e3d" d="M623 830c1.963-10.118 8.28-20.838 10-31 1.384-8.174 1.041-19.92 2-28.5l2 11c-.635 18.292-5.574 32.526-14 48.5"/><path fill="#082343" d="M390 792c-2.773-7.249-1.296-12.446-1-20 .006.103 1.924-.331 2 .5.403 4.401-2.355 14.132-1 19.5"/><path fill="#3c8ab1" d="M576 772c7.224 14.189 11.212 32.142 9 48-.185 1.324-1.43 10.039-4 9.5 1.626-8.679 3.675-18.104 3-27-.617-8.131-6.083-16.687-8-23-.109-.359-1.84-7.653 0-7.5"/><path fill="#179fcf" d="M405 773c-4.39 21.272 2.393 42.397 12 61h-5c-12.021-24.441-11.919-33.809-14-60z"/><path fill="#10abdb" d="M438 786c-.055 10.996 1.047 20.158 2 32-6.426 7.795-2.146-17.345-3.5-18-5.196 14.564-.617 36.398 8.5 49.5-.344 2.924-4.829-2.764-5-3-2.326-3.212-9.226-17.295-10-21-1.603-7.673 1.456-20.104-4-24.5 2.587-10.566 4.53-19.086 13-27 .21 5.893-.981 8.133-1 12"/><path fill="#0d3251" d="M343 786c-4.149-1.313-1.079-6.087-1-8 .306 2.188.457 6.067 1 8"/><path fill="#1980b4" d="M452 780c-3.077 17.328.781 42.955 6 57 7.499 20.179 21.442 36.695 31 55.5 1.654 3.253 4.427 6.585 2 9.5-1.474-1.393-3.457-2.663-5-4-9.627-8.341-20.116-15.235-30-23.5-1.547-1.293-2.813-3.197-3 .5-22.773-22.65-44.586-49.583-47-83 5.317-5.461 3.207.728 3.5 1 .676.627 2.166-2.154 3.5.5 1.304 2.594 5.875 24.771 7.5 25.5 3.55 1.593 4.458-13.743 5.5-18 5.456 4.396 2.397 16.827 4 24.5.774 3.705 7.674 17.788 10 21 .171.236 4.656 5.924 5 3-9.117-13.102-13.696-34.936-8.5-49.5 1.354.655-2.926 25.795 3.5 18 1.843-2.235 4.222-30.442 8-37.5 1.108-2.07 2.412-1.592 4-.5"/><path fill="#042347" d="M502 915c7.542-.64-10.371-31.7-12-35-7.668-15.54-16.964-30.136-24-46-5.828-16.29-12.725-37.943-8-54.5-4.144 54.21 39.342 91.274 50 141-2.604-.403-4.437-3.726-6-5.5"/><path fill="#116393" d="m572 795 6 14.5c2.148 25.211-9.647 39.663-24 58-1.694 2.164-3.253 2.654 1 2.5-12.641 15.684-27.831 27.187-38 45-1.638-1.175 1.337-6.337 2-7.5 20.363-35.705 45.904-74.889 47-117.5 1.567 2.189 3.062 8.024 3 10.5-.42 16.89-10.877 44.192-20 62-2.314 4.517-9.004 10.356-7.5 15.5 17.868-20.855 31.634-55.165 30.5-83"/><path fill="#14608e" d="M564 791c-1.616 39.635-22.12 70.588-40 104-6.605-.626 2.987-6.07-4-6 4.811-11.584 8.664-24.17 13-36 6.446-2.783 9.225-25.784 12-28.5 1.743-1.706 4.664 1.931 7 0 5.057-4.18 7.27-27.746 12-33.5"/><path fill="#061835" d="M367 825c13.268 16.04 29.223 29.722 46 42-26.816-16.727-58.47-43.791-67-75 5.902 14.098 11.508 21.526 21 33"/><path fill="#0a3560" d="M633 799c-1.72 10.162-8.037 20.882-10 31-10.961 20.78-25.752 31.265-43 46.5-.068.06 1.448 1.114 1 1.5-10.606 9.129-23.753 15.009-34.5 24-2.087.381-.898-1.681-.5-2.5 1.244-2.556 14.368-11.475 17.5-14.5 15.42-14.892 34.149-33.771 43.5-53 2.494 7.731 7.892-8.429 9-9.5 3.066-2.963 3.625 1.147 6-2 .61-.808 5.808-15.984 7-19 .817-2.066-3.712-6.201 4-2.5"/><path fill="#1571a4" d="M466 834c7.036 15.864 16.332 30.46 24 46-2.965-.358-2.111 3.216-5 .5-4.477-4.208-22.839-40.537-25-47.5-2.404-7.746-4.861-19.094-3.5-27 2.242 8.154 3.245 17.714 6.5 25.5 1.149 2.748 2.921 2.322 3 2.5"/><path fill="#0a2b4f" d="M533 853c-4.336 11.83-8.189 24.416-13 36-1.148 2.765-5.598 14.254-7 14 6.321-26.266 19.47-49.97 28-75.5-.086 8.646-5.071 17.509-8 25.5"/><path fill="#187bad" d="M417 834c6.521 12.627 15.488 24.479 25 35-7.793-2.741 3.601 6.492-4 6-6.109-4.508-13.07-8.074-19-13-.27-3.625 4.45-.615 2-4 1.526-2.074 4.521.862 5-.5.454-1.29-12.078-19.593-14-23.5z"/><path fill="#145f90" d="M490 880c1.629 3.3 19.542 34.36 12 35-3.685-4.183-6.877-9.105-11-13 2.427-2.915-.346-6.247-2-9.5-9.558-18.805-23.501-35.321-31-55.5l2-4c2.161 6.963 20.523 43.292 25 47.5 2.889 2.716 2.035-.858 5-.5"/><path fill="#146c9b" d="m500.5 838 3 17-4.5-8.5z"/><path fill="#828c9f" d="M553 878c-10.439 13.127-22.41 25.098-33 38-1.533 1.868-2.793 3.674-5.5 4 .049-1.866 1.582-3.392 2.5-5 10.169-17.813 25.359-29.316 38-45l10-8.5c-3.944 5.561-7.757 11.164-12 16.5"/><path fill="#082249" d="M435 879c.032.165 2.409 1.885 1.5 3-8.651-3.487-16.009-9.518-23.5-15 6.858 4.278 14.502 8.888 22 12"/><path fill="#176c9f" d="M442 869c11.398 12.606 25.431 23.11 38 34.5a297 297 0 0 1-30.5-18.5c-3.852-2.672-8.404-7.715-11.5-10 7.601.492-3.793-8.741 4-6"/><path fill="#042347" d="M491 902c4.123 3.895 7.315 8.817 11 13-1.163.099-15.297-14.119-16-17 1.543 1.337 3.526 2.607 5 4"/><path fill="#052341" d="M505.5 904c2.65-.979 4.689 11.957 3 12z"/></svg>