<svg xmlns="http://www.w3.org/2000/svg" width="1024" height="1024"><defs><linearGradient id="a" x1="287.137" x2="786.37" y1="326.544" y2="479.025" gradientUnits="userSpaceOnUse"><stop offset="9.387%" style="stop-color:#f3fafd"/><stop offset="25.671%" style="stop-color:#c3e0ea"/><stop offset="100%" style="stop-color:#76a2b5"/></linearGradient></defs><defs><linearGradient id="b" x1="414.127" x2="627.463" y1="448.224" y2="587.913" gradientUnits="userSpaceOnUse"><stop offset="0%" style="stop-color:#4ddded"/><stop offset="100%" style="stop-color:#0198c9"/></linearGradient></defs><defs><linearGradient id="c" x1="432.78" x2="588.281" y1="502.74" y2="530.731" gradientUnits="userSpaceOnUse"><stop offset="0%" style="stop-color:#19558e"/><stop offset="100%" style="stop-color:#071b47"/></linearGradient></defs><defs><linearGradient id="d" x1="382.613" x2="393.389" y1="558.66" y2="763.377" gradientUnits="userSpaceOnUse"><stop offset="0%" style="stop-color:#cbeff4"/><stop offset="100%" style="stop-color:#a3c8d6"/></linearGradient></defs><path fill="#134e74" d="M852 430c-.034 1.794 3.942 3.241 4 3.5.064.285-2.374 4.16-2 5.5-2.458-1.561-5.297-2.079-8-3-13.675-4.661-31.26-5.648-45.5-9-1.31 1.061 1.24 13.435 1.5 16 2 19.747 4.255 37.936 4 58-.112 8.804-.169 19.337-1 28-1.667 17.371-6.547 39.998-11 57l-4-3c2.391-9.07 3.504-17.782 5-27 5.23-32.24 7.852-63.381 4-96-8.159-69.096-53.576-142.43-108-185 3.092-6.341-5.668-12.53-11-17l30.5 23c29.783-44.37 62.142-87.745 101.5-124 1.673-1.564 2.414 4.11 5.5 7 1.854 1.736 16.927 10.751 18 11 19.948 4.629 44.484-10.996 38.5-31.5l1 6c2.074-1.295 1.597-9.507 1-12.5a26.5 26.5 0 0 0-3-8c-14.42-25.17-54.025-18.592-59 10-.806 4.633-.884 7.576 1 12-1.737-.861-3 3.75-3 4-6.521-24.7 12.001-46.318 37.5-44 41.293 3.754 45.017 69.753-13 67-3.02-.143-8.316-4.011-12-3-3.055.838-35.436 43.574-39.5 49.5-17.885 26.081-30.75 55.352-49 81l22.5-17.5c49.83-10.358 89.617 37.084 54.5 81.5-4.844 6.127-25.69 20.318-26 22-.263 1.431 8.909 22.729 9.5 26.5 15.274 4.934 41.652 5.791 55.5 12M723 292c2.212 2.072 2.3 2.273 5 4 .857.548 2.351 4.279 4.5 4 18.08-20.694 29.164-46.269 44.5-69 13.389-19.845 28.692-38.146 44-56.5 1.292-4.971-2.112-5.94-4-8.5-.549-.745-.649-.684-1-1-1.038-.933-.927-4.2-3.5-4-37.395 36.892-69.374 78.874-98.5 122.5 2.73 3.12 6 5.69 9 8.5m44.5-2c-5.276-.517-27.94 15.248-27.5 19.5.04.387 5.111 5.5 5.5 5.5 1.626 0 16.883-22.924 23-23 1.256-1.305.646-1.839-1-2M753 322c3.997 6.021 9.477 10.495 14 16 1.158 1.409 2.985 2.994 3 5-2.256-2.154-6.724-3.996-8.5-8 6.455 17.199 20.458 33.017 24.5 52.5 9.029-2.931 11.512-2.575 8-10.5 1.818.526 1.48 2.442 4 1.5 2.754-1.029 18.27-19.541 20-23 6.383-12.761 5.261-16.166 2-28.5-1.387-5.245-.208-3.575-3-9-3.478-6.759-4.027-7.942-10-13-5.524-4.678-9.622-7.643-17-9-3.865-1.37-14.931-6.399-18.5-5-2.837 1.112-22.49 23.91-22.5 26.5.48 2.146 3.445 3.663 4 4.5"/><path fill="#184c74" d="M310 281c-.35.292-1.639 2.692-2 3-28.836-43.797-61.306-85.031-97.5-123-2.365-.181-2.556 2.715-3.5 4-.517.704-2.991 3.27-3 3.5-.052 1.303 1.307 2.433 2 3.5l-3.5-1c-1.298 1.128.072 1.847.5 3l-7.5-1 .5 2c-4.051-.485-14.673 4.616-22.5 4-61.744-4.858-18.859-99.911 28-59 14.114 12.323 7.237 23.488 9.5 35.5.827 4.388 51.197 57.013 59 67 14.474 18.524 27.92 38.314 40 58.5M147 134c-2.325 7.834-.882 15.674 2 23 7.703 19.579 31.87 22.392 48.5 12 9.736-6.084 10.628-8.914 10.5-19-.042-3.306.122-10.119-1-13-2.494-8.131-9.673-17.948-18-21-14.943-5.476-37.159 1.692-42 18"/><path fill="#9fc5d8" d="M873 129c-7.266 3.963-8.796 15.408-16.5 21-7.961 5.778-22.212 8.153-31 3-5.562-3.261-6.129-10.831-11.5-14 4.975-28.592 44.58-35.17 59-10m-51 5c-.808 33.955 67.45 1.701 31-15-12.236-5.606-30.703 2.512-31 15"/><path fill="#d9f3fa" d="m189 116-6 2c-12.087-3.241-27.88 2.97-25.5 17 7.536-9.2 18.012-12.015 28.5-16 2.632 1.443 7.576 7.945 8 10.5 3.978 23.986-43.31 27.585-42.5 2.5l-4.5 2c4.841-16.308 27.057-23.476 42-18"/><path fill="#a4c8d9" d="M189 116c8.327 3.052 15.506 12.869 18 21-.122-.313-4.173-5.079-4.5-5-5.937 13.368-18.061 26.539-34 25-4.338-.419-15.024-9.042-13.5-1-1.233-.837-4.602-4.451-5.5-4l-.5 5c-2.882-7.326-4.325-15.166-2-23l4.5-2c-.81 25.085 46.478 21.486 42.5-2.5-.424-2.555-5.368-9.057-8-10.5-1.275-.699-1.802-.679-3-1z"/><path fill="#ecfafb" d="M853 119c-21.935-2.685-16.269 11.877-31 15 .297-12.488 18.764-20.606 31-15"/><path fill="#f3fdfe" d="M183 118c1.198.321 1.725.301 3 1-10.488 3.985-20.964 6.8-28.5 16-2.38-14.03 13.413-20.241 25.5-17"/><path fill="#cdeef7" d="M822 134c14.731-3.123 9.065-17.685 31-15 36.45 16.701-31.808 48.955-31 15"/><path fill="#709eb8" d="M873 129a26.5 26.5 0 0 1 3 8c-3.95 2.156-2.674 8.682-5 12.5-10.14 16.642-48.025 20.231-56 1.5-1.884-4.424-1.806-7.367-1-12 5.371 3.169 5.938 10.739 11.5 14 8.788 5.153 23.039 2.778 31-3 7.704-5.592 9.234-17.037 16.5-21"/><path fill="#7aa1b7" d="M207 137c1.122 2.881.958 9.694 1 13-6.399-1.369-9.894 6.469-14.5 9-14.736 8.098-25.195 6.03-38.5-3-1.524-8.042 9.162.581 13.5 1 15.939 1.539 28.063-11.632 34-25 .327-.079 4.378 4.687 4.5 5"/><path fill="#497c98" d="M812 157v-2c0-.25 1.263-4.861 3-4 7.975 18.731 45.86 15.142 56-1.5 2.326-3.818 1.05-10.344 5-12.5.597 2.993 1.074 11.205-1 12.5l-1-6c5.984 20.504-18.552 36.129-38.5 31.5-1.073-.249-16.146-9.264-18-11-3.086-2.89-3.827-8.564-5.5-7"/><path fill="#618ba2" d="M208 150c.128 10.086-.764 12.916-10.5 19-16.63 10.392-40.797 7.579-48.5-12l.5-5c.898-.451 4.267 3.163 5.5 4 13.305 9.03 23.764 11.098 38.5 3 4.606-2.531 8.101-10.369 14.5-9"/><path fill="#daf3f9" d="M308 284a303 303 0 0 0-9 8c-21.88-38.569-44.505-77.191-74-110.5-4.806-5.428-11.967-13.824-18-16.5.944-1.285 1.135-4.181 3.5-4 36.194 37.969 68.664 79.203 97.5 123"/><path fill="#c8ecf6" d="M816 165c-4.6.614-9.051 6.268-12 9.5-32.284 35.378-60.96 73.777-81 117.5-3-2.81-6.27-5.38-9-8.5 29.126-43.626 61.105-85.608 98.5-122.5 2.573-.2 2.462 3.067 3.5 4"/><path fill="#a8cce0" d="M299 292c-1.62 1.507-3.398 3.402-5 5-21.485-36.37-42.374-72.559-69-105.5-4.504-5.572-16.125-15.075-19-19.5-.693-1.067-2.052-2.197-2-3.5.009-.23 2.483-2.796 3-3.5 6.033 2.676 13.194 11.072 18 16.5 29.495 33.309 52.12 71.931 74 110.5"/><path fill="#a8cfe3" d="M816 165c.351.316.451.255 1 1-14.228 21.182-31.158 40.254-46 61-15.858 22.166-30.825 44.414-43 69-2.7-1.727-2.788-1.928-5-4 20.04-43.723 48.716-82.122 81-117.5 2.949-3.232 7.4-8.886 12-9.5"/><path fill="#6494af" d="m777 231-6-4c14.842-20.746 31.772-39.818 46-61 1.888 2.56 5.292 3.529 4 8.5-15.308 18.354-30.611 36.655-44 56.5"/><path fill="#759db3" d="M206 172c2.875 4.425 14.496 13.928 19 19.5 26.626 32.941 47.515 69.13 69 105.5-1.637 1.634-4.749 3.733-5 4-19.41-26.183-33.542-55.679-52-82.5-6.843-9.944-30.966-36.319-34-44.5-.428-1.153-1.798-1.872-.5-3z"/><path fill="#102e56" d="M203 174c3.034 8.181 27.157 34.556 34 44.5 18.458 26.821 32.59 56.317 52 82.5-.822.875-1.703 1.674-2 2-2.539-3.662-6.349-6.45-9-10-16.239-21.745-29.577-52.141-46-75.5-4.397-6.253-30.953-41.896-36-42.5l-.5-2z"/><path fill="#266b90" d="M680 258c5.332 4.47 14.092 10.659 11 17-47.588-37.223-108.303-60.003-169-62-15.194-.5-28.948.187-44 2l1-8c62.192-7.229 151.807 9.768 201 51"/><path fill="#2886a9" d="m479 207-1 8c-103.981 12.526-196.166 81.733-235 179-4.02 2.329-1.416 6.586-7 2 2.057-7.183 3.203-13.919 6-21 7.738-19.589 23.097-45.012 35-60 1.211-1.525 4.695-3.47 6-5 2.175-2.551 1.852-3.832 2-4 1.334-1.517 1.879-2.867 2-3 .297-.326 1.178-1.125 2-2 .251-.267 3.363-2.366 5-4 1.602-1.598 3.38-3.493 5-5a303 303 0 0 1 9-8c.361-.308 1.65-2.708 2-3 45.759-38.112 107.654-66.869 169-74"/><path fill="#c9e7ee" d="m522 213 10 2.5c-31.871 5.163-66.608 4.694-99.5 14.5-70.003 20.871-166.229 95.724-178.5 171.5-8.786 54.255 3.884 107.135 34 151.5l-58 10c-3.924-19.121-6.61-38.409-7-58-.751-37.674 6.059-76.081 20-111 38.834-97.267 131.019-166.474 235-179 15.052-1.813 28.806-2.5 44-2"/><path fill="url(#a)" d="M691 275c54.424 42.57 99.841 115.904 108 185-4.87 5.178 2.209 18.534 0 23.5l-2.5 1.5-66.5-10c-3.094-23.064-11.56-40.9-28.5-57 .685 3.308.894 9.113 1.5 12-23.088-39.727-49.875-68.367-90-91-149.698-84.439-332.198 38.704-302 210-3.23.24-6.216 1.269-9.5 1-5.335 3.113 8.292 29.791 10.5 35-7.969-2.637-8.494-12.03-12-17.5-3.177-4.957-9.169-10.33-12-14.5-30.116-44.365-42.786-97.245-34-151.5 12.271-75.776 108.497-150.629 178.5-171.5 32.892-9.806 67.629-9.337 99.5-14.5l-10-2.5c60.697 1.997 121.412 24.777 169 62m-310 48c28.823-1.412 32.748-38.387 9-49-42.35-18.927-57.338 51.368-9 49m234-26c-1.322 15.487 7.772 24.758 22.5 27 11.073 1.685 17.377-.061 23.5-9 8.418-12.289 5.233-14.634 2-27.5-.51-2.03 2.589-1.015 2-3-.427-1.442-8.724-7.823-10.5-8.5-15.718-5.994-37.937 2.686-39.5 21m-332.5 56c-18.544 3.291-19.495 35.743-1 40 37.068 8.532 37.372-46.455 1-40m444 5c-14.399 2.346-24.624 21.107-14.5 33.5 3.308 4.05 10.37 4.565 11.5 9.5 2.541.716 10.355-3.143 11-3 .976.216.028 2.815 1 3 1.543.294 9.53-11.871 10.5-15.5.626-2.34 1.469-13.156 1-15-.405-1.593-4.064-1.249-4-4 .004-.18 3.777.698 3-2-1.706-5.927-14.476-7.319-19.5-6.5" style="fill:url(#a)"/>/&gt;<path fill="#77a4bd" d="M777 231c-15.336 22.731-26.42 48.306-44.5 69-2.149.279-3.643-3.452-4.5-4 12.175-24.586 27.142-46.834 43-69z"/><path fill="#247b9c" d="M390 274c-.968 4.557 5.605 6.026 8 10.5 4.334 8.099 3.589 14.31 0 22.5h-2c1.836-3.837 3.858-10.234 3-14.5-.132-.657-6.879-10.324-7.5-10.5-.842-.238-4.35 1.847-5.5 2 4.617-4.621 1.338-7.698-4-8-11.385-6.498-28.227 4.834-29 16.5-.99 14.943 9.268 24.287 23 26.5 1.263.204 2.337 1.092 5 1v3c-48.338 2.368-33.35-67.927 9-49"/><path fill="#25c5dd" d="M382 276c-9.578-.542-25.909 9.926-15 11v1c-5.246 2.895-8.13 10.255-7 16 .725 3.687 11.08 12.875 14 10.5 1.09-9.628 4.234-19.176 1-28.5 2.016-.188 3.125-.91 4-1l6 20.5-3 12.5c-1.952.394-4.018-.681-6 1-13.732-2.213-23.99-11.557-23-26.5.773-11.666 17.615-22.998 29-16.5"/><path fill="#a0cada" d="M381 323v-3c7.894-.274 13.977-6.102 17-13 3.589-8.19 4.334-14.401 0-22.5-2.395-4.474-8.968-5.943-8-10.5 23.748 10.613 19.823 47.588-9 49"/><path fill="#0c759d" d="M661 315c-2.481-2.042-3.266 1.804-6 3-1.861-4.225 3.814-5.979 4-6.5 1.325-3.71-.36-10.16 1-15 .164-.582 7.02-.827 1-9-4.298-5.835-4.141-1.488-4.5-1.5-8.359-.268-16.148-.795-23.5 3-1.65.852-6.208 3.704-7 5l-2-2c4.497-9.652 21.12-13.484 30.5-9-12.241-13.189-34.895-5.411-35.5 13l-4 1c1.563-18.314 23.782-26.994 39.5-21 1.776.677 10.073 7.058 10.5 8.5.589 1.985-2.51.97-2 3 3.233 12.866 6.418 15.211-2 27.5"/><path fill="#1a96b4" d="M382 276c5.338.302 8.617 3.379 4 8-2.345.312-4.669.759-7 1-.875.09-1.984.812-4 1-1.653.155-7.599 1.039-8 1-10.909-1.074 5.422-11.542 15-11"/><path fill="#10bed7" d="M624 292c-5.301 11.378.987 21.391 9.5 29-12.207-4.779-14.895-12.961-14.5-25 .605-18.411 23.259-26.189 35.5-13-9.38-4.484-26.003-.652-30.5 9"/><path fill="#15aecc" d="M396 307c-2.827 5.906-7.705 9.731-14 11l3-12.5-6-20.5c2.331-.241 4.655-.688 7-1 1.15-.153 4.658-2.238 5.5-2 .621.176 7.368 9.843 7.5 10.5.858 4.266-1.164 10.663-3 14.5"/><path fill="#08a9ce" d="M655 318c-6.205 2.716-12.692 4.171-19 1-.519-9.419 5.11-18.834 0-27-1.142-1.825-1.956-1.663-3-3 7.352-3.795 15.141-3.268 23.5-3 .359.012.202-4.335 4.5 1.5 6.02 8.173-.836 8.418-1 9-1.36 4.84.325 11.29-1 15-.186.521-5.861 2.275-4 6.5"/><path fill="#1d5b82" d="M276 296c2.343 1.886 4.995 8.585 9 10-.148.168.175 1.449-2 4-.738-7.347-23.483-22.386-28.5-21l-1 2 23.5 24c-11.903 14.988-27.262 40.411-35 60-4.131 3.058-6.255 1.849-11 1 1.554-2.665 3.353-5.371 5-8 3.465-5.531 7.296-11.658 11-17 2.763-3.984 6.128-7.949 9-12 3.873-5.462 9.448-10.314 13-16 1.726-2.764 4.601-3.557 4-7.5-10.324-10.594-19.835-32.794-37-19.5-8.374.888-12.279 3.059-19 8-7.704 5.664-5.691 5.105-10 12-2.271 3.633-3.436 4.308-5 9-8.285 24.862 6.5 41.115 24 57-.279.955 2.358 5.846 3 7-26.592-16.401-43.949-47.381-27-77.5 13.629-24.22 52.039-33.174 74-15.5"/><path fill="#39ddea" d="M375 286c3.234 9.324.09 18.872-1 28.5-2.92 2.375-13.275-6.813-14-10.5 10.043 3.539 14.487-10.204 7-16v-1c.401.039 6.347-.845 8-1"/><path fill="#9afaf9" d="M360 304c-1.13-5.745 1.754-13.105 7-16 7.487 5.796 3.043 19.539-7 16"/><path fill="#dcf9fa" d="M283 310c-1.305 1.53-4.789 3.475-6 5l-23.5-24 1-2c5.017-1.386 27.762 13.653 28.5 21"/><path fill="#9efafc" d="M636 292c-.044 4.704-6.013 11.38-11 12-1.03-4.766-1.7-5.581 1-10 .792-1.296 5.35-4.148 7-5 1.044 1.337 1.858 1.175 3 3"/><path fill="#e8fbfc" d="M767.5 290c1.646.161 2.256.695 1 2-6.117.076-21.374 23-23 23-.389 0-5.46-5.113-5.5-5.5-.44-4.252 22.224-20.017 27.5-19.5"/><path fill="#e6f9fc" d="M790 296c-16.59-3.051-27.995 14.063-37 26-.555-.837-3.52-2.354-4-4.5.01-2.59 19.663-25.388 22.5-26.5 3.569-1.399 14.635 3.63 18.5 5"/><path fill="#dcf6fb" d="M269 323c-2.268-1.176-2.09-6.321-4-8.5-1.258-1.436-7.408-4.471-9.5-6.5-9.118-8.846-6.358-13.394-19.5-12 17.165-13.294 26.676 8.906 37 19.5.601 3.943-2.274 4.736-4 7.5"/><path fill="#135277" d="M626 294c-2.7 4.419-2.03 5.234-1 10 1.152 5.329 6.039 12.506 11 15 6.308 3.171 12.795 1.716 19-1 2.734-1.196 3.519-5.042 6-3-6.123 8.939-12.427 10.685-23.5 9-14.728-2.242-23.822-11.513-22.5-27l4-1c-.395 12.039 2.293 20.221 14.5 25-8.513-7.609-14.801-17.622-9.5-29z"/><path fill="#25d4e9" d="M636 319c-4.961-2.494-9.848-9.671-11-15 4.987-.62 10.956-7.296 11-12 5.11 8.166-.519 17.581 0 27"/><path fill="#a5e0e8" d="M287 303c-.121.133-.666 1.483-2 3-4.005-1.415-6.657-8.114-9-10l2-3c2.651 3.55 6.461 6.338 9 10"/><path fill="#bbdfee" d="M269 323c-3.552 5.686-9.127 10.538-13 16-4.644-7.944-14.433-11.446-20.5-17-6.692-6.126-11.42-16.042-18.5-18 6.721-4.941 10.626-7.112 19-8 13.142-1.394 10.382 3.154 19.5 12 2.092 2.029 8.242 5.064 9.5 6.5 1.91 2.179 1.732 7.324 4 8.5"/><path fill="#b1d7e9" d="M790 296c7.378 1.357 11.476 4.322 17 9-.478 1.877-3.327-1.057-3.5-1-1.143.38-14.94 13.574-18 16-7.847 6.221-15.603 5.111-18.5 18-4.523-5.505-10.003-9.979-14-16 9.005-11.937 20.41-29.051 37-26"/><path fill="#91b7cd" d="M256 339c-2.872 4.051-6.237 8.016-9 12-14.251-9.742-30.959-19.848-40-35 4.309-6.895 2.296-6.336 10-12 7.08 1.958 11.808 11.874 18.5 18 6.067 5.554 15.856 9.056 20.5 17"/><path fill="#89b2c8" d="M807 305c5.973 5.058 6.522 6.241 10 13l-40 33c-2.311-2.807-4.34-5.46-7-8-.015-2.006-1.842-3.591-3-5 2.897-12.889 10.653-11.779 18.5-18 3.06-2.426 16.857-15.62 18-16 .173-.057 3.022 2.877 3.5 1"/><path fill="#0f2850" d="M398 307c-3.023 6.898-9.106 12.726-17 13-2.663.092-3.737-.796-5-1 1.982-1.681 4.048-.606 6-1 6.295-1.269 11.173-5.094 14-11z"/><path fill="#417d98" d="M613 339v4c-5.696-1.562-2.891 2.17-8.5 2-1.586-.048-10.741-6.538-9.5-1-28.436-13.466-68.729-21.533-100-19 .432-3.679-.603-3.007-3.5-3-16.106.041-30.143 6.489-45 11-.215.065-1.678-2.752-4-2-61.031 19.765-115.681 81.654-126.5 145-4.658 27.273.86 46.664-1 70.5-.55 7.044-1.398 2.307-4 2.5-30.198-171.296 152.302-294.439 302-210"/><path fill="#729bb0" d="M247 351c-3.704 5.342-7.535 11.469-11 17-15.012-11.62-27.865-24.641-34-43 1.564-4.692 2.729-5.367 5-9 9.041 15.152 25.749 25.258 40 35"/><path fill="#6f9db5" d="M817 318c2.792 5.425 1.613 3.755 3 9-3.468 10.303-7.038 15.974-14 24-6.511.663-18.451 5.164-21 11-2.015-3.042-5.715-8.224-8-11z"/><path fill="#5490a6" d="M495 325c-26.041 2.109-53.114 10.568-76 23-49.217 26.734-85.475 73.058-95 129l-8-1c10.819-63.346 65.469-125.235 126.5-145 2.322-.752 3.785 2.065 4 2 14.857-4.511 28.894-10.959 45-11 2.897-.007 3.932-.679 3.5 3"/><path fill="#05496a" d="M595 344c33.014 15.634 61.047 45.016 81 75 28.527 54.104 34.855 113.242 5 174-13.391 27.251-31.165 47.684-55 66l-47.5 26c-19.443 4.238-42.849 12.274-62 13-15.768.598-30.905-2.773-46.5-3-2.788-.552-5.29-1.323-8-2-17.728-4.425-36.539-12.184-52-22-41.524-26.363-73.11-69.949-84-118l10-1c4.297 21.362 13.651 40.11 26 58 83.69 121.243 269.357 100.701 320-37.5 37.08-101.188-30.149-212.752-135-231.5-43.005-7.69-78.6-2.843-117 17-.063.032.265.33-1 1-.798-5.495-5.197.246-8 .5l-2-11.5c22.886-12.432 49.959-20.891 76-23 31.271-2.533 71.564 5.534 100 19"/><path fill="#59879d" d="M236 368c-1.647 2.629-3.446 5.335-5 8-1.154 1.98-4.89 5.625-5 6-17.5-15.885-32.285-32.138-24-57 6.135 18.359 18.988 31.38 34 43"/><path fill="#4d8099" d="M794 377c-1.638-3.695-3.915-6.607-6-10 4.147-4.942 13.427-8.741 17.5-13 .999-1.045.259-2.722.5-3 6.962-8.026 10.532-13.697 14-24 3.261 12.334 4.383 15.739-2 28.5-1.73 3.459-17.246 21.971-20 23-2.52.942-2.182-.974-4-1.5"/><path fill="#082a4d" d="M770 343c2.66 2.54 4.689 5.193 7 8 2.285 2.776 5.985 7.958 8 11 .967 1.46 2.045 3.445 3 5 2.085 3.393 4.362 6.305 6 10 3.512 7.925 1.029 7.569-8 10.5-4.042-19.483-18.045-35.301-24.5-52.5 1.776 4.004 6.244 5.846 8.5 8"/><path fill="#249abe" d="M547 341c-.18 10.586 9.996 17.872 5 29-32.766-9.46-64.222-7.749-97 1-5.096-7.587-16.945-9.922-25-13 38.4-19.843 73.995-24.69 117-17"/><path fill="#205371" d="M703 430c2.517 11.992 8.349 22.976 11 35-4.146-1.344-.211-6.98-7-4-6.076-21.781-13.849-35.949-27-54.5-5.826-8.218-14.532-16.262-21-24-1.041-1.245 2.155-1.813 2-2-5.957-7.174-40.173-35.353-48-37.5v-4c40.125 22.633 66.912 51.273 90 91"/><path fill="#0871a1" d="m362 610 29-8c59.453 68.905 156.065 74.51 224.5 15 91.997-79.998 45.995-215.388-63.5-247 4.996-11.128-5.18-18.414-5-29 104.851 18.748 172.08 130.312 135 231.5-50.643 138.201-236.31 158.743-320 37.5m278.5 1c-26.969 13.641-49.285 36.168-76 50-16.925 8.763-35.66 12.633-52.5 21.5 34.15 2.451 68.839-8.278 95.5-29.5 8.915-7.096 28.092-26.399 32.5-36.5.739-1.694 2.701-4.145.5-5.5"/><path fill="#287c9d" d="M613 343c7.827 2.147 42.043 30.326 48 37.5.155.187-3.041.755-2 2 6.468 7.738 15.174 15.782 21 24 13.151 18.551 20.924 32.719 27 54.5 1.484 5.319 3.118 10.48 4 16-2.853 1.023.768 6.384-.5 7-1.161.564-5.706-.398-7.5 0-3.508-28.068-11.616-41.883-27-65-19.953-29.984-47.986-59.366-81-75-1.241-5.538 7.914.952 9.5 1 5.609.17 2.804-3.562 8.5-2"/><path fill="#1c6988" d="M429 359c-12.04 6.378-23.829 13.228-35 21-28.045 19.514-54.182 65.404-60 100-4.096 24.357-2.851 47.887 2 72l-10 1c-6.142-27.101-6.672-48.564-2-76 9.525-55.942 45.783-102.266 95-129l2 11.5c2.803-.254 7.202-5.995 8-.5"/><path fill="#6293ac" d="M806 351c-.241.278.499 1.955-.5 3-4.073 4.259-13.353 8.058-17.5 13-.955-1.555-2.033-3.54-3-5 2.549-5.836 14.489-10.337 21-11"/><path fill="#45a7c1" d="M282.5 353c36.372-6.455 36.068 48.532-1 40-18.495-4.257-17.544-36.709 1-40m3 7c-10.818 3.209-12.315 12.854-5 21-4.385-11.139 6.812-13.966 5-21m17 3c1.481 8.809 1.281 14-3 22 8.031-3.919 8.498-16.257 3-22m-27 16c-1.404.968.123 4.017 1 4 1.301-.025-.662-3.568-1-4"/><path fill="#fdfefe" d="M455 371c24.596 36.618-43.623 78.955-71 51-11.996-12.249-1.134-32.909 10-42 11.171-7.772 22.96-14.622 35-21 1.265-.67.937-.968 1-1 8.055 3.078 19.904 5.413 25 13"/><path fill="#134a6e" d="M726.5 358c5.024-.819 17.794.573 19.5 6.5.777 2.698-2.996 1.82-3 2-.064 2.751 3.595 2.407 4 4 .469 1.844-.374 12.66-1 15-.97 3.629-8.957 15.794-10.5 15.5-.972-.185-.024-2.784-1-3-.645-.143-8.459 3.716-11 3-1.13-4.935-8.192-5.45-11.5-9.5-10.124-12.393.101-31.154 14.5-33.5m-1 3c-.751-.083-11.83 7.529-12.5 8.5-5.95 8.618-3.758 19.156 5.5 24.5-6.378-11.765-9.705-16.453 2-27 .473-.426 13.338-5.079 5-6m-3.5 9c-9.337 7.393-7.54 10.826-2 20 1.645 2.724 1.391 1.352 3 3 .381.39 1.108 3.879 1.5 4 28.542 3.783 25.127-48.877-2.5-27"/><path fill="#d3fbfa" d="M285.5 360c1.812 7.034-9.385 9.861-5 21-7.315-8.146-5.818-17.791 5-21"/><path fill="#1fc7d8" d="M725.5 361c8.338.921-4.527 5.574-5 6-11.705 10.547-8.378 15.235-2 27-9.258-5.344-11.45-15.882-5.5-24.5.67-.971 11.749-8.583 12.5-8.5"/><path fill="#114f72" d="M302.5 363c5.498 5.743 5.031 18.081-3 22 4.281-8 4.481-13.191 3-22"/><path fill="url(#b)" d="M552 370c109.495 31.612 155.497 167.002 63.5 247-68.435 59.51-165.047 53.905-224.5-15-21.91-25.393-35.419-61.595-37-95 4.706 12.216 26.531 7.826 24-9.5-1.31-8.971-17.562-13.807-23-8.5l-1-2c.223-.619 2.95-11.859 3-12.5.423-5.384-5.572-15.464 1-20.5.757 3.548 5.283 11.639 8.5 13 15.027 6.358 23.483-10.631 27.5-22 .169-.477 4-3.489 3-8.5-1.377-6.897-17.756-9.181-13-14.5 27.377 27.955 95.596-14.382 71-51 32.778-8.749 64.234-10.46 97-1m-22 70c-4.85 3.922-7.031 7.972-11 12-2.916 2.96-5.673 5.953-8.5 9-5.926-7.886-11.524-14.035-19.5-20-45.517-34.039-105.089 10.67-89 63 .893 6.641 3.841 14.665 7 20.5 14.348 26.506 67.405 66.2 94 81.5.206.118 2.206 2.677 3 3-2.957 1.34 2.264 4.007 2.5 4 7.086-.223 68.363-46.041 77-54 39.343-36.252 62.612-100.056 4-132-14.633-7.975-51.22-4.513-59.5 13" style="fill:url(#b)"/>/&gt;<path fill="#02719d" d="M723 393c20.119-1.907 27.242-21.075 1-22-.97-.034-2.031.367-2-1 27.627-21.877 31.042 30.783 2.5 27-.392-.121-1.119-3.61-1.5-4"/><path fill="#20adcd" d="M722 370c-.031 1.367 1.03.966 2 1-1.252 6.558-5.225 12.07-4 19-5.54-9.174-7.337-12.607 2-20"/><path fill="#0280ab" d="M723 393c-1.609-1.648-1.355-.276-3-3-1.225-6.93 2.748-12.442 4-19 26.242.925 19.119 20.093-1 22"/><path fill="#0c3d61" d="M242 375c-2.797 7.081-3.943 13.817-6 21-.375 1.309-1.975 5.373-4 5 .295-1.13 3.068-6.148 3-6.5-.218-1.133-4.593-2.969-6-5.5-.642-1.154-3.279-6.045-3-7 .11-.375 3.846-4.02 5-6 4.745.849 6.869 2.058 11-1"/><path fill="#198eb8" d="M275.5 379c.338.432 2.301 3.975 1 4-.877.017-2.404-3.032-1-4"/><path fill="#3abed7" d="M394 380c-11.134 9.091-21.996 29.751-10 42-4.756 5.319 11.623 7.603 13 14.5 1 5.011-2.831 8.023-3 8.5.956-29.672-42.294-20.522-36 9-6.572 5.036-.577 15.116-1 20.5-.05.641-2.777 11.881-3 12.5-.08.222-2.47 2.593-2.5 4L334 480c5.818-34.596 31.955-80.486 60-100"/><path fill="#256a90" d="m223 505-1.5-2c-2.156 2.1-.396 7.434-3.5 5-.895-22.64 1.688-40.877 4-63 .308-2.947 2.888-16.164.5-17-12.171 3.757-25.19 4.105-37.5 7-4.029-2.808-14.56-.754-16.5 4l-2.5-4c1.361-2.236 1.05-3.757 4.5-5l55-10c1.369-.762 5.773-16.212 6.5-19 2.025.373 3.625-3.691 4-5 5.584 4.586 2.98.329 7-2-13.941 34.919-20.751 73.326-20 111"/><path fill="#6d9eb2" d="M730 475c2.884 21.494 1.534 44.384 1 66-4.449-.85-9.823.055-14-3 3.08-24.243 2.266-49.117-3-73-2.651-12.024-8.483-23.008-11-35-.606-2.887-.815-8.692-1.5-12 16.94 16.1 25.406 33.936 28.5 57"/><path fill="#36bed9" d="M703 484c5.182 41.465-.209 76-19 113-5.551.579-.821-2.027-3-4 29.855-60.758 23.527-119.896-5-174 15.384 23.117 23.492 36.932 27 65"/><path fill="#2cdbec" d="M506 609c2.472 1.007 3.8 1.82 6.5 1 3.398-1.032 34.672-23.124 40-27 20.341-14.796 53.901-41.803 64.5-64.5 22.794-48.809-18.87-106.742-72-87.5-5.59 1.741-10.538 5.392-15 9 8.28-17.513 44.867-20.975 59.5-13 58.612 31.944 35.343 95.748-4 132-8.637 7.959-69.914 53.777-77 54-.236.007-5.457-2.66-2.5-4"/><path fill="#f6fdfe" d="M394 445c-4.017 11.369-12.473 28.358-27.5 22-3.217-1.361-7.743-9.452-8.5-13-6.294-29.522 36.956-38.672 36-9"/><path fill="#041b46" d="M506 609c-.794-.323-2.794-2.882-3-3 5.236-.599 6.326-1.349 7-7 3.173.145 15.582-9.73 19-12 10.451-6.941 20.955-14.242 30-23 14.359-10.755 28.34-22.494 39-37 23.79-32.373 16.481-78.377-27-87l1.5-11c-9.081.084-18.735-.731-27.5 2 53.13-19.242 94.794 38.691 72 87.5-10.599 22.697-44.159 49.704-64.5 64.5-5.328 3.876-36.602 25.968-40 27-2.7.82-4.028.007-6.5-1"/><path fill="#aecfe1" d="M846 436c-1.2 3.91 7.671 2.232 8 6.5.021.268-2.335 1.2-2 5 2.001 22.718 2.642 39.643 2 62.5l-33-7c.064-18.896.093-37.7-2-56.5l-17-3.5c-.26-2.565-2.81-14.939-1.5-16 14.24 3.352 31.825 4.339 45.5 9"/><path fill="#b8d6e8" d="M222 445c-1.761-2.513-17.476.732-18 1.5-4.063 5.954-.847 72.811 0 84.5.024.332-.025.669 0 1l-33 6c-3.052-32.306-5.522-67.376 0-99 3.898-3.15 9.406-2.92 14-4 12.31-2.895 25.329-3.243 37.5-7 2.388.836-.192 14.053-.5 17"/><path fill="#166795" d="M491 441c2.528 3.722 17.337 17.384 18 20.5.03.143-1.335 1.561-1.5 2.5l-12-10c-1.207 5.694.239 11.866-1.5 17.5-1.189 3.852-4.481 4.812-5 5.5 16.834-28.893-14.633-46.528-40.5-43-6.608.901-13.002 5.59-18.5 9-16.887 10.474-19.121 16.818-23 36-2.373 11.735-4.164 21.348 3 32.5-3.488 7.335-6.968-4.144-8-7.5-16.089-52.33 43.483-97.039 89-63"/><path fill="#0b2e5a" d="M571 440c-19.981-3.963-29.424 1.019-46 11-2.509 1.511-4.751 2.399-6.5 5l.5-4c3.969-4.028 6.15-8.078 11-12 4.462-3.608 9.41-7.259 15-9 8.765-2.731 18.419-1.916 27.5-2z"/><path fill="#0e395c" d="M836 655c7.382-5.086 29.84-6.383 31-7.5 3.501-3.371 19.214-50.628 18-55-.519-1.87-2.754-1.603-4-.5 1.516-7.434 3.099-16.505 4-24 .428-3.558.676-7.408 1-11 8.435 4.826 4.582-5.314 5-10.5 1.782-22.111 1.009-43.112-2-62-1.613-10.127-.503-21.698-9.5-28.5L857 442.5c3.652 16.603 2.423 7.219 10.5 9.5.815.23 8.496 5.975 9.5 7-.562-.5-13.61-6.224-14-5.5 1.663 15.225 2.799 30.147 3 45.5-6.493-.147-3.581-10.124-4-15-1.306-15.177-2.743-30.644-8-45-.374-1.34 2.064-5.215 2-5.5-.058-.259-4.034-1.706-4-3.5 8.952 4.014 2.713 4.768 6 9.5 6.515 9.378 24.017 12.189 29 22 15.272 30.071 5.245 160.33-17 186-4.123 4.757-26.622 5.265-34 7.5"/><path fill="#175279" d="M185 435c-4.594 1.08-10.102.85-14 4-6.766 5.466-7.669 30.735-8 40l-5-1c.36-5.754 3.918-15.986 2-21-1.714-4.481-6.484-.969-10.5 2-4.802 3.55-7.645 8.444-9.5 14-4.929 14.761-4.192 36.373-4 52 .099 8.039 1.558 14.024 2 21 .182 2.869-.258 6.081 0 9-4.397 5.947 5.953 46.118 4 47.5-4.999 3.538-5.793-29.176-10-31.5-3.095-21.937-7.797-98.356 7.5-114 10.188-10.419 14.513-2.31 26.5-22l2.5 4c1.94-4.754 12.471-6.808 16.5-4"/><path fill="#fefefe" d="M489 477c-1.774 2.351-7.284 8.607-9.5 10-22.241 13.976-70.108 5.263-57.5-29 1.796-4.167 7.017-9.97 8-15 5.498-3.41 11.892-8.099 18.5-9 25.867-3.528 57.334 14.107 40.5 43"/><path fill="#d0ecf2" d="M854 439c5.257 14.356 6.694 29.823 8 45-3.681-.432-3.005.603-3 3.5.027 16.8.789 33.771-1 50.5-3.255 30.428-12.676 78.259-24 106.5-5.805 14.477-5.866 18.62-24 14.5 3.674-.266 6.528-4.117 11.5-2 12.051-13.038 14.23-32.344 18.5-49 5.963-23.261 10.904-45.994 13-70 .818-9.372.736-18.613 1-28 .642-22.857.001-39.782-2-62.5-.335-3.8 2.021-4.732 2-5-.329-4.268-9.2-2.59-8-6.5 2.703.921 5.542 1.439 8 3"/><path fill="#0a638f" d="M571 440c43.481 8.623 50.79 54.627 27 87l1.5-9c-5.992 8.417-12.325 16.557-19.5 24l-1-1c8.393-9.082 22.39-27.836 25-39.5.863-3.855 1.944-5.618 2-6 .94-6.409-2.945-6.066-3-7-.153-2.579 2.054-4.736 2-5-1.865-9.049-9.964-20.578-17.5-26.5-19.797-15.556-51.832-15.469-69 4-5.259.694 7.204-9.533 6.5-10 16.576-9.981 26.019-14.963 46-11"/><path fill="#d1ebf2" d="M171 538c2.304 24.39 5.945 48.278 12 72 2.252 8.823 9.581 37.191 14 43.5 3.699 5.281 7.668 6.048 14 6.5-15.921 4.992-17.143-3.256-22-15.5-11.882-29.954-20.84-77.613-24-107.5-.069-.649.065-1.35 0-2-.078-.779.213-4.488 0-7-1.305-15.402-2.549-33.64-2-49 .331-9.265 1.234-34.534 8-40-5.522 31.624-3.052 66.694 0 99"/><path fill="url(#c)" d="m519 452-.5 4c1.749-2.601 3.991-3.489 6.5-5 .704.467-11.759 10.694-6.5 10 17.168-19.469 49.203-19.556 69-4 7.536 5.922 15.635 17.451 17.5 26.5.054.264-2.153 2.421-2 5 .055.934 3.94.591 3 7-.056.382-1.137 2.145-2 6-2.61 11.664-16.607 30.418-25 39.5-1.172 1.268-2.74 2.749-4 4-3.442 3.417-9.679 5.881-11 11-.635.538-1.188 1.325-2 2 .838-3.243-3.214-.238-3.5 0-14.392 11.955-28.942 22.945-44 34l-15-4-12.5-8c-.868-.845-.933-2.624-2.5-4-.173-.152-2.906-.079-4.5-1-1.768-1.022-2.868-.913-3-1-13.225-15.402-36.796-33.155-47-49-8.016-12.447-13.429-32.279-13-47 .256-8.773 1.814-12.607 5-20-12.608 34.263 35.259 42.976 57.5 29 2.216-1.393 7.726-7.649 9.5-10 .519-.688 3.811-1.648 5-5.5 1.739-5.634.293-11.806 1.5-17.5l12 10c.165-.939 1.53-2.357 1.5-2.5-.663-3.116-15.472-16.778-18-20.5 7.976 5.965 13.574 12.114 19.5 20 2.827-3.047 5.584-6.04 8.5-9m-68.5 52c-15.391 2.847-13.681 25.2-1 32 23.668 12.691 27.983-36.992 1-32m68.5 55c-1.935.148-4.273-.497-6 .5 2.215 1.568 4.242.035 6-.5.876-.266 2.274.523 3-.5-1.9-1.768-2.848.488-3 .5m-11.5 5 1 1c1.974.158 1.974-1.158 0-1zm-10 6c-1.013 1.696 3.567 1.125 3.5.5-.092-.859-2.666-.409-3.5-.5m-11 4c-.124 1.945 6.5.953 6.5.5-1.878-1.046-4.414-.284-6.5-.5" style="fill:url(#c)"/>/&gt;<path fill="#14486f" d="M886 557c.347-3.848.783-8.201 1-12 .531-9.308 1.204-21.844 1-31-.242-10.831-3.212-48.065-11-55-1.004-1.025-8.685-6.77-9.5-7-8.077-2.281-6.848 7.103-10.5-9.5l22.5 13.5c8.997 6.802 7.887 18.373 9.5 28.5 3.009 18.888 3.782 39.889 2 62-.418 5.186 3.435 15.326-5 10.5"/><path fill="#a5c9db" d="M222 445c-2.312 22.123-4.895 40.36-4 63 .291 7.358 1.228 14.693 2 22l-16 1c-.847-11.689-4.063-78.546 0-84.5.524-.768 16.239-4.013 18-1.5"/><path fill="#a0e1ed" d="M422 458c-3.186 7.393-4.744 11.227-5 20-12.273-6.806-3.421 17.467-9 22-1.348-7.06-1.07-13.883-1-21 3.879-19.182 6.113-25.526 23-36-.983 5.03-6.204 10.833-8 15"/><path fill="#8bb3c8" d="M821 503v1l-15-3c.255-20.064-2-38.253-4-58l17 3.5c2.093 18.8 2.064 37.604 2 56.5"/><path fill="#95bcd0" d="M877 459c7.788 6.935 10.758 44.169 11 55l-3.5 8c-2.099-2.137-15.215-4.972-16-6-1.462-1.914 1.211-6.256-2.5-6a370 370 0 0 0 0-11c-.201-15.353-1.337-30.275-3-45.5.39-.724 13.438 5 14 5.5"/><path fill="#c9e8f0" d="m160 457-8.5 4-11.5 12c1.855-5.556 4.698-10.45 9.5-14 4.016-2.969 8.786-6.481 10.5-2"/><path fill="#9fc4d8" d="M160 457c1.918 5.014-1.64 15.246-2 21-.806 12.892-1.524 26.071-1 39-6.443 3.11-16.923 1.838-21 8-.192-15.627-.929-37.239 4-52l11.5-12z"/><path fill="#123d5a" d="M714 465c5.266 23.883 6.08 48.757 3 73-8.648 68.061-56.551 131.858-119 160-.277.125-.721-.123-1 0l13.5-11-18.5 7c34.563-15.111 64.871-40.993 86-72 31.205-45.794 41.857-89.568 33-145-.882-5.52-2.516-10.681-4-16 6.789-2.98 2.854 2.656 7 4"/><path fill="#85b2c4" d="M799 460c3.852 32.619 1.23 63.76-4 96-1.802-2.485-4.771-3.266-7.5-4-16.798-4.518-38.927-7.642-56.5-11 .534-21.616 1.884-44.506-1-66l66.5 10 2.5-1.5c2.209-4.966-4.87-18.322 0-23.5"/><path fill="#2d7d9c" d="M324 477c-4.672 27.436-4.142 48.899 2 76 10.89 48.051 42.476 91.637 84 118l-5 10c-14.872-9.576-21.687-16.774-34.5-28-1.039-.91-3.404 1.507-4 1-9.319-7.934-18.999-25.353-26.5-35.5-1.365-1.847-.947-3.042-4-2.5-4.231-7.32-7.758-15.176-11-23-5.571-13.446-11.48-29.703-14-44 2.602-.193 3.45 4.544 4-2.5 1.86-23.836-3.658-43.227 1-70.5z"/><path fill="#eafbfc" d="M417 478c-.429 14.721 4.984 34.553 13 47l-4 5c-7.58-9.346-15.622-17.55-18-30 5.579-4.533-3.273-28.806 9-22"/><path fill="#21a0c2" d="m678 622-5-5c3.526-5.294 8.023-14.139 11-20 18.791-37 24.182-71.535 19-113 1.794-.398 6.339.564 7.5 0 1.268-.616-2.353-5.977.5-7 8.857 55.432-1.795 99.206-33 145"/><path fill="#2f769a" d="M163 479c-.549 15.36.695 33.598 2 49-2.444 1.86-3.147 6.014 0 7 .065.65-.069 1.351 0 2h-6c-.644-6.5-1.738-13.544-2-20-.524-12.929.194-26.108 1-39z"/><path fill="#0e4070" d="M408 500c2.378 12.45 10.42 20.654 18 30 14.703 18.128 31.599 31.258 51 44 .81.944 1.36 2.276 2.5 3l.5-2c1.594.921 4.327.848 4.5 1 1.567 1.376 1.632 3.155 2.5 4 .153.149-1.379 1.543 1.5 4 2.509 2.141 19.814 14.923 21.5 15-.674 5.651-1.764 6.401-7 7-26.595-15.3-79.652-54.994-94-81.5-3.159-5.835-6.107-13.859-7-20.5 1.032 3.356 4.512 14.835 8 7.5-7.164-11.152-5.373-20.765-3-32.5-.07 7.117-.348 13.94 1 21"/><path fill="#249abe" d="m354 487 1 2c-2.985 2.913-2.564 13.941-1 18 1.581 33.405 15.09 69.607 37 95l-29 8c-12.349-17.89-21.703-36.638-26-58-4.851-24.113-6.096-47.643-2-72l17.5 11c.03-1.407 2.42-3.778 2.5-4"/><path fill="#4588a9" d="M862 484c.419 4.876-2.493 14.853 4 15a370 370 0 0 1 0 11c-.154 9.347-.308 18.969-3 28h-5c1.789-16.729 1.027-33.7 1-50.5-.005-2.897-.681-3.932 3-3.5"/><path fill="#f0fcfd" d="M354 507c-1.564-4.059-1.985-15.087 1-18 5.438-5.307 21.69-.471 23 8.5 2.531 17.326-19.294 21.716-24 9.5"/><path fill="#a1c6da" d="M821 504c-.035 8.942.769 18.173-1 27-4.986-.725-10.096-.794-15-2 .831-8.663.888-19.196 1-28z"/><path fill="#205c80" d="M223 505c.39 19.591 3.076 38.879 7 58 3.707 18.061 9.183 35.959 16 53-6.553-.168-3.854-16.37-11-16-7.403-23.777-12.361-45.026-15-70-.772-7.307-1.709-14.642-2-22 3.104 2.434 1.344-2.9 3.5-5z"/><path fill="#c1dced" d="M854 510c-.264 9.387-.182 18.628-1 28-10.166-4.419-21.32-4.412-32-6-1.361-.202-.93-.99-1-1 1.769-8.827.965-18.058 1-27v-1z"/><path fill="#5780a8" d="M450.5 504c26.983-4.992 22.668 44.691-1 32-12.681-6.8-14.391-29.153 1-32"/><path fill="#b5d6e7" d="M888 514c.204 9.156-.469 21.692-1 31l-23-6-1-1c2.692-9.031 2.846-18.653 3-28 3.711-.256 1.038 4.086 2.5 6 .785 1.028 13.901 3.863 16 6z"/><path fill="#bcdaea" d="M157 517c.262 6.456 1.356 13.5 2 20 .064.65-.068 1.351 0 2 .035.33-.036.671 0 1l-21 6c-.442-6.976-1.901-12.961-2-21 4.077-6.162 14.557-4.89 21-8"/><path fill="#0495be" d="M598 527c-10.66 14.506-24.641 26.245-39 37-2.899 2.171-6.977 3.95-10 6 4.044-4.214 8.514-8.271 13-12 .812-.675 1.365-1.462 2-2 4.171-3.532 7.993-5.999 12-10 1.355-1.353 2.655-2.605 4-4 7.175-7.443 13.508-15.583 19.5-24z"/><path fill="#57a1bf" d="M477 574c-19.401-12.742-36.297-25.872-51-44l4-5c10.204 15.845 33.775 33.598 47 49"/><path fill="#0c2c4d" d="M165 535c-3.147-.986-2.444-5.14 0-7 .213 2.512-.078 6.221 0 7"/><path fill="#54849b" d="M820 531c.07.01-.361.798 1 1l-12 73c-6.68-.566-13.371-.992-20-2 1.751-5.556 3.526-11.373 5-17 4.453-17.002 9.333-39.629 11-57 4.904 1.206 10.014 1.275 15 2"/><path fill="#6391a8" d="M220 530c2.639 24.974 7.597 46.223 15 70 .307.986.675 1.985 1 3-7.352.257-14.695 1.279-22 2-4.552-24.213-8.125-48.424-10-73-.025-.331.024-.668 0-1z"/><path fill="#75a1b6" d="M204 532c1.875 24.576 5.448 48.787 10 73-10.296 1.016-21.254 1.034-31 5-6.055-23.722-9.696-47.61-12-72z"/><path fill="#6a98ad" d="M853 538c-2.096 24.006-7.037 46.739-13 70-10.293-1.463-20.641-2.122-31-3l12-73c10.68 1.588 21.834 1.581 32 6"/><path fill="#0b2548" d="M165 537c3.16 29.887 12.118 77.546 24 107.5 4.857 12.244 6.079 20.492 22 15.5 6.835.488 27.237-1.762 34.5-3 .547-.093 4.246-3.815 9.5-3 .883 3.368-1.795 7.404 3 2.5.28 2.346-.399 5.309 0 7.5-14.007-3.252-51.355 6.711-62.5 3-2.423-.807-5.022-10.317-9-12-6.536-2.766-24.405-1.487-31-6-9.976-6.826-21.559-64.241-23.5-78 4.207 2.324 5.001 35.038 10 31.5 1.953-1.382-8.397-41.553-4-47.5.349 3.947.525 8.074 1 12 2.231 18.421 4.652 28.588 10 46 1.943 6.324 7.254 26.509 12 30 3.285 2.416 20.142 6.472 24 3.5-1.385-2.96-5.189-1.777-8-2.5 4.677-.541 5.81-4.371 5-8.5-.951-4.847-7.243-17.494-9-24.5-.079-.314.078-.686 0-1 2.019 4.663 4.037-4.144 4-4.5-.054-.512-4.91-8.493-5-9-.476-2.693 2.052-3.709 2-4-.144-.81-1.853-.189-2-1-2.555-14.062-4.561-27.486-7-40-.493-2.531.097-11.001-1-13l-5 .5c-.068-.649.064-1.35 0-2z"/><path fill="#14486d" d="M173 610c-4.076-16.471-7.347-31.156-10-48-1.128-7.164-3.226-14.933-4-22-.036-.329.035-.67 0-1l5-.5c1.097 1.999.507 10.469 1 13 2.439 12.514 4.445 25.938 7 40 .147.811 1.856.19 2 1 .052.291-2.476 1.307-2 4 .09.507 4.946 8.488 5 9 .037.356-1.981 9.163-4 4.5"/><path fill="#6192a7" d="M731 541c17.573 3.358 39.702 6.482 56.5 11 2.729.734 5.698 1.515 7.5 4-1.496 9.218-2.609 17.93-5 27-11.377 43.156-32.57 77.261-62 110-3.793 1.367-9.315-7.049-10.5-7-1.802.074-21.551 21.459-26 25-20.534 16.343-51.228 33.379-76 42-5.096 1.774-50.534 15.178-51.5 10.5l24-47.5c15.065-5.178 32.92-13.64 46.5-22 4.603-2.833 35.817-25.871 36.5-28.5.174-.672.204-2.133-.5-2.5-22.48 21.817-49.112 37.96-78.5 49l6-14c62.449-28.142 110.352-91.939 119-160 4.177 3.055 9.551 2.15 14 3"/><path fill="#19384b" d="m863 538 1 1c-1.721 7.505-1.865 15.451-3 23-2.599 17.283-6.527 31.442-11 48-.646 2.393-1.313 4.641-2 7-4.027-1.433-5.952 5.728-7 8.5-4.021 10.634-5.321 22.58-11.5 32.5l2.5 1c-1.012.896-1.566 5.928-5.5 7-13.074 3.564-42.873-6.565-58-3-9.929 18.71-16.064 38.979-26.5 57.5C675.018 839.383 534.078 893.677 407 836c-.831-2.594 2.941-1.244 3.5-1 19.603 8.555 31.367 12.413 50 16 11.278 2.171 22.445 4.966 34 6l.5-8c32.925 2.094 66.956-4.597 98-15 61.804-20.71 113.307-63.083 145-120 1.15-2.066 1.95-3.98 3-6 2.12-4.078 14.27-26.666 11-29.5-7.776 5.678-12.516 14.639-19 21.5-6.816 7.213-15.543 15.373-23 22-4.167 1.947-3.513-1.673-7-3 9.156-8.011 16.893-16.982 25-26 29.43-32.739 50.623-66.844 62-110l4 3c-1.474 5.627-3.249 11.444-5 17-5.531 17.549-13.752 34.212-20 51.5 12.73.777 28.474 5.407 41 4.5 18.134 4.12 18.195-.023 24-14.5 11.324-28.241 20.745-76.072 24-106.5z"/><path fill="#5b8fa8" d="M887 545c-.217 3.799-.653 8.152-1 12-.324 3.592-.572 7.442-1 11l-24-6c1.135-7.549 1.279-15.495 3-23z"/><path fill="#5c90a9" d="M159 540c.774 7.067 2.872 14.836 4 22l-24 5c-.475-3.926-.651-8.053-1-12-.258-2.919.182-6.131 0-9z"/><path fill="#05021b" d="M580 542c-1.345 1.395-2.645 2.647-4 4l-1-1c1.26-1.251 2.828-2.732 4-4z"/><path fill="#085e8b" d="M576 546c-4.007 4.001-7.829 6.468-12 10 1.321-5.119 7.558-7.583 11-11z"/><path fill="#afd6e1" d="M311 549c2.52 14.297 8.429 30.554 14 44l-7 4c-2.034-4.116-4.167-7.676-6-12-2.208-5.209-15.835-31.887-10.5-35 3.284.269 6.27-.76 9.5-1"/><path fill="url(#d)" d="M288 553c2.831 4.17 8.823 9.543 12 14.5 3.506 5.47 4.031 14.863 12 17.5 1.833 4.324 3.966 7.884 6 12 20.488 41.464 46.347 79.185 88 102-.218 4.435 13.296 10.214 17.5 12 29.175 12.395 68.806 19.547 100.5 18-5.713 14.223-16.324 29.155-27 40-5.488 5.575-12.216 10.322-18.5 15 21.326-.363 46.487 3.204 67.5 0v1c-128.485 10.911-250.481-45.219-300-169-6.817-17.041-12.293-34.939-16-53z" style="fill:url(#d)"/>/&gt;<path fill="#0a5d83" d="M562 558c-4.486 3.729-8.956 7.786-13 12-6.255 4.243-17.489 10.268-20 17-3.418 2.27-15.827 12.145-19 12-1.686-.077-18.991-12.859-21.5-15-2.879-2.457-1.347-3.851-1.5-4l12.5 8 15 4c15.058-11.055 29.608-22.045 44-34 .286-.238 4.338-3.243 3.5 0"/><path fill="#0e4070" d="M519 559c.152-.012 1.1-2.268 3-.5-.726 1.023-2.124.234-3 .5m0 0c-1.758.535-3.785 2.068-6 .5 1.727-.997 4.065-.352 6-.5"/><path fill="#82b1c3" d="M163 562c2.653 16.844 5.924 31.529 10 48 .078.314-.079.686 0 1l-24 2c-5.348-17.412-7.769-27.579-10-46z"/><path fill="#7faec0" d="M885 568c-.901 7.495-2.484 16.566-4 24-1.553 7.615-4.812 13.876-7 21l-24-3c4.473-16.558 8.401-30.717 11-48z"/><path fill="#0e4070" d="M507.5 564h1c1.974-.158 1.974 1.158 0 1z"/><path fill="#0ac9e1" d="M559 564c-9.045 8.758-19.549 16.059-30 23 2.511-6.732 13.745-12.757 20-17 3.023-2.05 7.101-3.829 10-6"/><path fill="#0e4070" d="M497.5 570c.834.091 3.408-.359 3.5.5.067.625-4.513 1.196-3.5-.5"/><path fill="#209db3" d="m480 575-.5 2c-1.14-.724-1.69-2.056-2.5-3 .132.087 1.232-.022 3 1"/><path fill="#0e4070" d="M486.5 574c2.086.216 4.622-.546 6.5.5 0 .453-6.624 1.445-6.5-.5"/><path fill="#091f3f" d="M836 655c-.421.29-2.854 2.986-4 4l-2.5-1c6.179-9.92 7.479-21.866 11.5-32.5 1.048-2.772 2.973-9.933 7-8.5-1.328 4.558-8.996 25.086-9 27-.003 1.296-.371 2.999.5 4 1.825 1.081 21.224-3.305 23.5-5 1.798-1.339 8.77-18.172 10-21.5.976-2.64.86-8.044 1-8.5 2.188-7.124 5.447-13.385 7-21 1.246-1.103 3.481-1.37 4 .5 1.214 4.372-14.499 51.629-18 55-1.16 1.117-23.618 2.414-31 7.5"/><path fill="#96bfcf" d="M325 593c3.242 7.824 6.769 15.68 11 23 21.198 36.681 55.698 69.567 95 86l-1 7c-8.009-3.09-16.462-5.871-24-10-41.653-22.815-67.512-60.536-88-102z"/><path fill="#41daee" d="M684 597c-2.977 5.861-7.474 14.706-11 20-37.337 56.059-103.881 88.411-169 84-13.363-.905-26.436-1.934-39.5-5-.869-.204-4.548-1.134-2.5-3 2.71.677 5.212 1.448 8 2 56.089 11.106 111.032-1.445 156-36 23.835-18.316 41.609-38.749 55-66 2.179 1.973-2.551 4.579 3 4"/><path fill="#2b5b6f" d="M246 616c49.519 123.781 171.515 179.911 300 169 9.427-.801 18.669-1.357 28-3 6.831 3.449 20.303-8.748 19 3-1.499.385-3.411.619-5 1-44.044 10.568-102.553 13.249-147 4-40.789-8.488-94.131-38.774-125.5-66-5.746-4.987-32.55-35.454-35-36-3.261-.726-4.527 2.178-7.5 2.5 5.035 7.566 7.71 16.617 12 24.5l-3 2c-9.217-16.565-17.866-33.837-22-52.5l-2-.5c-.399-2.191.28-5.154 0-7.5-4.795 4.904-2.117.868-3-2.5-4.265-16.27-13.639-34.248-19-51-.325-1.015-.693-2.014-1-3 7.146-.37 4.447 15.832 11 16"/><path fill="#39687b" d="M236 603c5.361 16.752 14.735 34.73 19 51-5.254-.815-8.953 2.907-9.5 3-7.263 1.238-27.665 3.488-34.5 3-6.332-.452-10.301-1.219-14-6.5-4.419-6.309-11.748-34.677-14-43.5 9.746-3.966 20.704-3.984 31-5 7.305-.721 14.648-1.743 22-2"/><path fill="#356275" d="M809 605c10.359.878 20.707 1.537 31 3-4.27 16.656-6.449 35.962-18.5 49-4.972-2.117-7.826 1.734-11.5 2-12.526.907-28.27-3.723-41-4.5 6.248-17.288 14.469-33.951 20-51.5 6.629 1.008 13.32 1.434 20 2"/><path fill="#376679" d="M173 611c1.757 7.006 8.049 19.653 9 24.5.81 4.129-.323 7.959-5 8.5-3.825-.984-14.275-4.559-16-1-4.746-3.491-10.057-23.676-12-30z"/><path fill="#376375" d="M874 613c-.14.456-.024 5.86-1 8.5-1.23 3.328-8.202 20.161-10 21.5l-24 1c.004-1.914 7.672-22.442 9-27 .687-2.359 1.354-4.607 2-7z"/><path fill="#61c2d9" d="M640.5 611c2.201 1.355.239 3.806-.5 5.5-4.408 10.101-23.585 29.404-32.5 36.5-26.661 21.222-61.35 31.951-95.5 29.5 16.84-8.867 35.575-12.737 52.5-21.5 26.715-13.832 49.031-36.359 76-50"/><path fill="#1a5978" d="M405 681c23.045 14.839 61.046 31.36 89 30 33.313 1.548 67.379-3.612 98-17l18.5-7-13.5 11c-19.919 8.791-43.296 15.784-65 18-34.511 3.524-69.202-.705-101-14-39.302-16.433-73.802-49.319-95-86 3.053-.542 2.635.653 4 2.5 7.501 10.147 17.181 27.566 26.5 35.5.596.507 2.961-1.91 4-1 12.813 11.226 19.628 18.424 34.5 28"/><path fill="#20c5e0" d="M678 622c-21.129 31.007-51.437 56.889-86 72-30.621 13.388-64.687 18.548-98 17 3.683-.179 8.149-1.518 12-1.5-.173-4.019 1.969-5.939-2-8.5 65.119 4.411 131.663-27.941 169-84z"/><path fill="#5895aa" d="M177 644c2.811.723 6.615-.46 8 2.5-3.858 2.972-20.715-1.084-24-3.5 1.725-3.559 12.175.016 16 1"/><path fill="#508a9f" d="M863 643c-2.276 1.695-21.675 6.081-23.5 5-.871-1.001-.503-2.704-.5-4z"/><path fill="#042f52" d="M626 659c-44.968 34.555-99.911 47.106-156 36 15.595.227 30.732 3.598 46.5 3 19.151-.726 42.557-8.762 62-13z"/><path fill="#def0f4" d="M588 716c-19.151 6.582-43.777 12.013-64 13-31.694 1.547-71.325-5.605-100.5-18-4.204-1.786-17.718-7.565-17.5-12 7.538 4.129 15.991 6.91 24 10 17.592 6.786 24.992 7.981 43 11 5.896 3.03 14.657 4.964 21 3 10.893 1.234 21.273 3.49 34 3 24.443-.94 41.561-5.57 64-14 29.388-11.04 56.02-27.183 78.5-49 .704.367.674 1.828.5 2.5-.683 2.629-31.897 25.667-36.5 28.5-13.58 8.36-31.435 16.822-46.5 22"/><path fill="#0d2b4f" d="M282 717c7.33 13.174 18.073 30.608 26 41-20.239-25.083-44.155-61.905-50-94l2 .5c4.134 18.663 12.783 35.935 22 52.5"/><path fill="#21a0c2" d="M462 693c-2.048 1.866 1.631 2.796 2.5 3 13.064 3.066 26.137 4.095 39.5 5 3.969 2.561 1.827 4.481 2 8.5-3.851-.018-8.317 1.321-12 1.5-27.954 1.36-65.955-15.161-89-30l5-10c15.461 9.816 34.272 17.575 52 22"/><path fill="#1d4050" d="m741 708-8-8c6.484-6.861 11.224-15.822 19-21.5 3.27 2.834-8.88 25.422-11 29.5"/><path fill="#85b2c3" d="M728 693c-8.107 9.018-15.844 17.989-25 26-35.707 31.241-82.061 54.733-129 63-9.331 1.643-18.573 2.199-28 3v-1c1.61-.245.647-1.787 1.5-2 2.157-.538 2.859 1.84 5.5.5 1.102-.56 7.401-13.276 8.5-15.5l-64.5 2c10.676-10.845 21.287-25.777 27-40 20.223-.987 44.849-6.418 64-13l-24 47.5c.966 4.678 46.404-8.726 51.5-10.5 24.772-8.621 55.466-25.657 76-42 4.449-3.541 24.198-24.926 26-25 1.185-.049 6.707 8.367 10.5 7"/><path fill="#4b8090" d="m441 790 1 28c-23.475-4.886-48.205-13.957-69.5-25-28.047-14.544-40.739-28.849-63.5-48.5-1.128-.974-2.629-1.612-4-.5-6.814-8.95-14.643-19.156-20-29-4.29-7.883-6.965-16.934-12-24.5 2.973-.322 4.239-3.226 7.5-2.5 2.45.546 29.254 31.013 35 36 31.369 27.226 84.711 57.512 125.5 66"/><path fill="#8cb9c9" d="m598 698-6 14c-22.439 8.43-39.557 13.06-64 14l4-10c21.704-2.216 45.081-9.209 65-18 .279-.123.723.125 1 0"/><path fill="#325c6b" d="M741 708c-1.05 2.02-1.85 3.934-3 6l-44.5 43c-30.705 24.516-63.301 43.695-101.5 54-4.017.465-2.709-.799-3-3.5-.746-6.935-.639-14.509-1-21.5 1.589-.381 3.501-.615 5-1 44.412-11.391 82.896-32.691 117-63 7.457-6.627 16.184-14.787 23-22z"/><path fill="#afd6e1" d="m532 716-4 10c-12.727.49-23.107-1.766-34-3-6.884-.78-14.157-1.853-21-3-18.008-3.019-25.408-4.214-43-11l1-7c31.798 13.295 66.489 17.524 101 14"/><path fill="#467c8a" d="M738 714c-31.693 56.917-83.196 99.29-145 120l-4-21c1.346-.333 2.826-1.953 3-2 38.199-10.305 70.795-29.484 101.5-54z"/><path fill="#234d5e" d="M285 715c5.357 9.844 13.186 20.05 20 29 35.454 46.572 83.19 79.645 140 95 15.373 4.155 34.19 8.994 50 10l-.5 8c-11.555-1.034-22.722-3.829-34-6-18.633-3.587-30.397-7.445-50-16-.559-.244-4.331-1.594-3.5 1-38.364-17.412-73.401-44.441-99-78-7.927-10.392-18.67-27.826-26-41z"/><path fill="#224655" d="M710 722c-34.104 30.309-72.588 51.609-117 63 1.303-11.748-12.169.449-19-3 46.939-8.267 93.293-31.759 129-63 3.487 1.327 2.833 4.947 7 3"/><path fill="#96c0ce" d="M494 723c-6.343 1.964-15.104.03-21-3 6.843 1.147 14.116 2.22 21 3"/><path fill="#81aeba" d="m442 818 1 1c.058 5.92.299 12.303 2 18 .149.501-.075 1.36 0 2-56.81-15.355-104.546-48.428-140-95 1.371-1.112 2.872-.474 4 .5 22.761 19.651 35.453 33.956 63.5 48.5 21.295 11.043 46.025 20.114 69.5 25"/><path fill="#aed2de" d="M546 784c-21.013 3.204-46.174-.363-67.5 0 6.284-4.678 13.012-9.425 18.5-15l64.5-2c-1.099 2.224-7.398 14.94-8.5 15.5-2.641 1.34-3.343-1.038-5.5-.5-.853.213.11 1.755-1.5 2"/><path fill="#3f717f" d="M588 786c.361 6.991.254 14.565 1 21.5.291 2.701-1.017 3.965 3 3.5-.174.047-1.654 1.667-3 2-36.294 8.974-74.583 5.703-111 13l-35-7-1-1-1-28c44.447 9.249 102.956 6.568 147-4"/><path fill="#7ba7b3" d="m589 813 4 21c-31.044 10.403-65.075 17.094-98 15-15.81-1.006-34.627-5.845-50-10-.075-.64.149-1.499 0-2l33-11c36.417-7.297 74.706-4.026 111-13"/><path fill="#5a8d9b" d="m478 826-33 11c-1.701-5.697-1.942-12.08-2-18z"/></svg>