<svg xmlns="http://www.w3.org/2000/svg" width="1024" height="1024"><defs><linearGradient id="a" x1="234.038" x2="800.627" y1="298.848" y2="384.325" gradientUnits="userSpaceOnUse"><stop offset="0%" style="stop-color:#f3f9fb"/><stop offset="83.944%" style="stop-color:#9bb9c3"/></linearGradient></defs><defs><linearGradient id="b" x1="402.116" x2="579.42" y1="431.261" y2="588.526" gradientUnits="userSpaceOnUse"><stop offset="0%" style="stop-color:#4a869b"/><stop offset="100%" style="stop-color:#003a57"/></linearGradient></defs><path fill="#144d6a" d="M637 209c-11.184-1.269-21.756-7.765-32.5-11-48.088-14.479-126.975-20.651-175-5-8.852 2.885-3.248 3.853-3.5 4.5-1.626 4.17-29.221 7.343-32 13.5-27.944 10.76-50.897 24.613-75 42-26.274 18.952-40.303 37.341-63 57-5.089 4.408-10.854 11.176-11 0 14.568-18.628 37.427-43.535 56-58 1.082-.843 1.887-2.166 3-3 .581-.435 8.834-4.84 12-7 3.573-2.437 24.299-12.391 24-15.5-21.249-27.704-46.948-48.092-77-65.5-8.733-5.059-17.753-9.916-27-14-3.696-2.216-25.035-13.328-27-11.5-.67 2.749-.973 5.889-2 8.5-1.17 2.976-3.06 5.43-4 8.5 4.889.271 8.113 3.335 12 5.5l-3 4c-3.456-1.717-6.858-3.651-10.5-5C157.653 218.735 62.132 171.735 90 99c1.876 2.52-2.779 6.769 3 6-2.867 8.981-3.032 16.753-2 26 7.603 68.107 109.197 63.294 113-3.5 2.295-40.309-34.034-67.252-71.5-63.5-7.075.709-13.45 7.174-20.5 8 26.102-23.651 75.49-8.738 91 21.5 4.482 8.738 7.326 34.087 8.5 35.5 1.815 2.184 43.881 20.968 51 25 31.976 18.111 62.134 40.492 82 72 77.226-44.327 170.046-55.629 256-31 8.017 2.297 30.212 9.788 36.5 14"/><path fill="#114a69" d="M841 176c-9.422-6.401-16.78-15.258-22.5-25H816c-.547-1.901-.541-5.464-1-7l4-2c.499 1.56 2.183 4.279 3 6 28.595 60.257 119.478 26.67 109-31-1.42-6.561-1.561-16.16-6-21.5-2.585-3.11-1.112-.161-3 .5.075-5.233 3.239-.867-1-7.5-24.118-37.74-80.668-26.554-99 11.5-5.349 11.105-6.228 17.727-5 30-2.363 1.611-5.346-1.334-7-1 1.674-10.576 2.051-28.83 9-37.5 3.002-3.746 4.127-.828 8-6.5.556-.815 4.047-1.83 0-2-1.329-6.457 25.593-19.832 31.5-21 44.53-8.806 83.386 23.62 78.5 69.5-4.632 43.493-59.47 69.319-96 44.5"/><path fill="#10b0d6" d="M91 131c2.22-2.351 1.155-14.021 2-15.5.613-1.074 3.358-.188 3.5-.5.963-2.105.05-4.488.5-5.5.516-1.162 1.732 1.069 2 .5-1.933 8.291-.748 19.324 3 27 6.445 13.2 21.748 17.144 35 15 21.076-3.409 48.23-29.938 53-50.5 3.427-14.776-5.878-13.96-14-19.5-4.816-3.285-4.415-5.63-11-8-13.491-4.855-34.91-1.475-47 7-4.714-3.171-1.881-2.142-.5-6-2.463 1.74-5.291 1.388-7.5 2-1.505-2.19.646-3.773 2-5 7.05-.826 13.425-7.291 20.5-8 37.466-3.752 73.795 23.191 71.5 63.5-3.803 66.794-105.397 71.607-113 3.5"/><path fill="#37d9fa" d="M922 96c-.013.897 2.17 2.83 1.5 4-2.624-7.33-14.886 2.553-20 6-10.314 6.952-60.802 53.52-65 54-7.125.814-11.145-14.224-12.5-20l-2-31c.482-4.725 2.042-8.016 3-12.5l-5 3.5c18.332-38.054 74.882-49.24 99-11.5 4.239 6.633 1.075 2.267 1 7.5m-56.5-27c-3.037.188-11.691 3.387-14.5 5.5l18.5-3.5c.473-2.437-2.554-2.09-4-2m-15 15c-14.77 2.467-25.61 29.65-9 33 24.695 4.98 38.032-37.85 9-33m18 25c-7.094-.5-8.059 13.417 1 11 4.908-1.309 4.398-10.62-1-11"/><path fill="#bdebf6" d="M865.5 69c1.446-.09 4.473-.437 4 2L851 74.5c2.809-2.113 11.463-5.312 14.5-5.5"/><path fill="#d5ffff" d="M165 74c-13.94-2.318-32.479-.48-42 11.5-5.039 6.34 7.038-.984 5 10-1.952 10.519-12.676 3.016-14 5-4.835 12.05 2.252 30.095-12 36.5-3.748-7.676-4.933-18.709-3-27 5.413-11.491 7.386-20.86 19-29 12.09-8.475 33.509-11.855 47-7m-45.5 9c-13.697 10.82-27.386 31.455-15 48z"/><path fill="#4ce6fd" d="M165 74c6.585 2.37 6.184 4.715 11 8 4.355 17.752-15.082 55.714-29 65.5-2.392 1.682-9.048 1.167-10 4.5-13.252 2.144-28.555-1.8-35-15 14.252-6.405 7.165-24.45 12-36.5 1.324-1.984 12.048 5.519 14-5 2.038-10.984-10.039-3.66-5-10 9.521-11.98 28.06-13.818 42-11.5"/><path fill="#0dddfb" d="M118 81c-11.614 8.14-13.587 17.509-19 29-.268.569-1.484-1.662-2-.5-.45 1.012.463 3.395-.5 5.5-.142.312-2.887-.574-3.5.5-.845 1.479.22 13.149-2 15.5-1.032-9.247-.867-17.019 2-26 2.92-9.148 11.873-16.275 13-25 3.759-1.576 3.759-2.933 4-3 2.209-.612 5.037-.26 7.5-2-1.381 3.858-4.214 2.829.5 6"/><path fill="#01a4dd" d="M106 80c-1.127 8.725-10.08 15.852-13 25-5.779.769-1.124-3.48-3-6 1.909-4.982 9.756-19.587 14.5-21 .581-.173 1.385 2.048 1.5 2"/><path fill="#65e2fb" d="M137 152c.952-3.333 7.608-2.818 10-4.5 13.918-9.786 33.355-47.748 29-65.5 8.122 5.54 17.427 4.724 14 19.5-4.77 20.562-31.924 47.091-53 50.5"/><path fill="#96efff" d="m119.5 83-15 48c-12.386-16.545 1.303-37.18 15-48"/><path fill="#7ab7cf" d="M827 85c-.059-.643.124-1.396 0-2 4.047.17.556 1.185 0 2"/><path fill="#c6f8ff" d="M850.5 84c29.032-4.85 15.695 37.98-9 33-16.61-3.35-5.77-30.533 9-33"/><path fill="#10add3" d="M931 117c-.088-.483-3.362-5.031-4-8-.47-2.509.135-5.151-2.5-7-.693 15.618-.632 30.102-9.5 44.5-11.579 18.799-34.646 27.973-56 26.5-17.24-1.189-25.674-13.632-37-25-.817-1.721-2.501-4.44-3-6-1.146-3.58-1.622-8.22-2-12-1.228-12.273-.349-18.895 5-30l5-3.5c-.958 4.484-2.518 7.775-3 12.5a94.8 94.8 0 0 0 2 31c1.355 5.776 5.375 20.814 12.5 20 4.198-.48 54.686-47.048 65-54 5.114-3.447 17.376-13.33 20-6 .67-1.17-1.513-3.103-1.5-4 1.888-.661.415-3.61 3-.5 4.439 5.34 4.58 14.939 6 21.5"/><path fill="#1ad3f9" d="M927 109c3.368 17.973-4.176 39.348-17.5 52-10.993 10.438-37.03 22.519-50.5 12 21.354 1.473 44.421-7.701 56-26.5 8.868-14.398 8.807-28.882 9.5-44.5 2.635 1.849 2.03 4.491 2.5 7"/><path fill="#87e2fa" d="M826 140a94.8 94.8 0 0 1-2-31z"/><path fill="#bdf8ff" d="M868.5 109c5.398.38 5.908 9.691 1 11-9.059 2.417-8.094-11.5-1-11"/><path fill="#9bf1fc" d="M931 117c10.478 57.67-80.405 91.257-109 31 11.326 11.368 19.76 23.811 37 25 13.47 10.519 39.507-1.562 50.5-12 13.324-12.652 20.868-34.027 17.5-52 .638 2.969 3.912 7.517 4 8"/><path fill="#20384e" d="M817 130c.378 3.78.854 8.42 2 12l-4 2c-.02-.068-.512.384-1-1-.935-2.649-1.524-5.362-2.5-8-41.448 16.065-90.36 43.18-119.5 77.5-3.547 4.178-14.88 16.171-11 20.5-2.904-1.854-3.957-3.196-7-5 23.885-33.011 53.951-57.427 89.5-77 8.617-4.745 38.588-20.401 46.5-22 1.654-.334 4.637 2.611 7 1"/><path fill="#94aab2" d="M236 147c16.323 9.785 41.826 31.841 54 46.5 3.471 4.18 16.917 27.01 18.5 27.5 2.236.693 14.49-3.311 14.5-5.5.01-2.049-23.967-25.448-27.5-28.5-9.987-8.629-21.032-14.463-31-22-2.041-1.543-3.576-.926-1.5-4 30.052 17.408 55.751 37.796 77 65.5.299 3.109-20.427 13.063-24 15.5-25.575-41.949-63.611-78.358-109-98 1.027-2.611 1.33-5.751 2-8.5 1.965-1.828 23.304 9.284 27 11.5"/><path fill="#86a8b4" d="M814 143c-17.126 7.728-32.978 16.817-48 28-27.622 20.562-47.789 44.874-66 74-5.928-4.576-12.723-7.992-19-12-3.88-4.329 7.453-16.322 11-20.5 29.14-34.32 78.052-61.435 119.5-77.5.976 2.638 1.565 5.351 2.5 8m-58.5 22c-20.279 15.802-46.19 28.273-57.5 52.5l12.5 6.5z"/><path fill="#5b7580" d="M815 144c.459 1.536.453 5.099 1 7-1.898-.047-14.447 6.533-17 8l-33 12c15.022-11.183 30.874-20.272 48-28 .488 1.384.98.932 1 1"/><path fill="#596a75" d="M316 242c-3.166 2.16-11.419 6.565-12 7-17.739-42.119-49.979-69.271-89-91-3.887-2.165-7.111-5.229-12-5.5.94-3.07 2.83-5.524 4-8.5 45.389 19.642 83.425 56.051 109 98"/><path fill="#dbe1e4" d="M263 161c-2.076 3.074-.541 2.457 1.5 4 9.968 7.537 21.013 13.371 31 22 3.533 3.052 27.51 26.451 27.5 28.5-.01 2.189-12.264 6.193-14.5 5.5-1.583-.49-15.029-23.32-18.5-27.5-12.174-14.659-37.677-36.715-54-46.5 9.247 4.084 18.267 8.941 27 14"/><path fill="#123a56" d="M816 151h2.5c5.72 9.742 13.078 18.599 22.5 25-9.961-3.329-16.009-13.294-22.5-21-42.622 23.914-82.978 56.93-102.5 103h-1c-1.23-2.037-2.539-2.468-4-4l19-32.5c13.87-19.571 48.226-50.563 69-62.5 2.553-1.467 15.102-8.047 17-8"/><path fill="#1e2c40" d="M304 249c-1.113.834-1.918 2.157-3 3-19.423-36.864-51.343-71.293-89-90l3-4c39.021 21.729 71.261 48.881 89 91"/><path fill="#426a7b" d="M799 159c-20.774 11.937-55.13 42.929-69 62.5L711 254c-2.584-2.71-7.833-6.555-11-9 18.211-29.126 38.378-53.438 66-74z"/><path fill="#a7cad5" d="m755.5 165-45 59-12.5-6.5c11.31-24.227 37.221-36.698 57.5-52.5"/><path fill="#275b72" d="M637 209c1.003.672.944.957 1 1 8.248 6.388 2.365 3.914 4 13-35.015-15.558-67.66-25.568-106-29-44.147-3.952-81.785-1.909-124 11-6.221 1.902-11.915 3.657-18 6 2.779-6.157 30.374-9.33 32-13.5.252-.647-5.352-1.615 3.5-4.5 48.025-15.651 126.912-9.479 175 5 10.744 3.235 21.316 9.731 32.5 11"/><path fill="#cfdee4" d="M536 194c.457 3.971-.761 2.748-3.5 3-32.197 2.96-60.653 3.009-93.5 8-9.855 1.497-20.029 2.731-29.5 6-4.965-2.652 2.7-2.944 2.5-6 42.215-12.909 79.853-14.952 124-11"/><path fill="#dee9ed" d="M642 223c4.404 1.957 8.679 3.865 13 6l-3 2.5c-66.949-27.086-138.516-34.229-210-23.5l-3-3c32.847-4.991 61.303-5.04 93.5-8 2.739-.252 3.957.971 3.5-3 38.34 3.432 70.985 13.442 106 29"/><path fill="url(#a)" d="M655 229c21.108 10.428 43.87 23.994 62 39 25.668 21.245 70.45 73.931 79 106 3.904 14.642 8.225 31.595 12 47l-27 44c-10.998-64.231-56.545-129.082-110-165-170.787-114.758-398.682-29.276-435 175 .369-8.595.094-15.114 1-22.5.581-4.734.843-9.325 2-14-17.217 6.296-27.939-4.964-34.5-19.5-.475.121-2.157 7.738-2.5 9l-4-3c8.022-29.662 21.282-57.214 36-84 7.67-10.069 14.845-20.563 22-31 22.697-19.659 36.726-38.048 63-57-.274 2.22 1.485 3.476 3.5 3 2.166-.512 24.09-16.391 29-19 29.547-15.7 57.339-24.023 90.5-29 71.484-10.729 143.051-3.586 210 23.5zm1.5 14c-20.198 3.493-24.175 33.939 1 36 34.578 2.831 34.431-42.128-1-36M343 287c9.178-1.408 15.522-4.929 18-13 .333-1.083.288-1.727 1-3 2.618.395 1.601-.77 2-2 6.892-21.28-17.82-24.865-31.5-15-15.895 11.462-12.003 36.452 10.5 33m-119.5 98c-12.634 2.953-12.045 26.048 6 22 12.202-2.737 12.024-26.212-6-22" style="fill:url(#a)"/>/&gt;<path fill="#fbfdfd" d="M412 205c.2 3.056-7.465 3.348-2.5 6 9.471-3.269 19.645-4.503 29.5-6l3 3c-33.161 4.977-60.953 13.3-90.5 29-4.91 2.609-26.834 18.488-29 19-2.015.476-3.774-.78-3.5-3 24.103-17.387 47.056-31.24 75-42 6.085-2.343 11.779-4.098 18-6"/><path fill="#19465f" d="M674 228c3.043 1.804 4.096 3.146 7 5 6.277 4.008 13.072 7.424 19 12 3.167 2.445 8.416 6.29 11 9 1.461 1.532 2.77 1.963 4 4 2.387 3.954 3.502 5.343 2 10-18.13-15.006-40.892-28.572-62-39-4.321-2.135-8.596-4.043-13-6-1.635-9.086 4.248-6.612-4-13 12.682 4.367 24.54 11.205 36 18"/><path fill="#195774" d="M656.5 243c35.431-6.128 35.578 38.831 1 36-25.175-2.061-21.198-32.507-1-36m3.5 32c16.827-.185 31.178-19.903 12-27-28.969-10.72-41.434 27.324-12 27"/><path fill="#04b8e1" d="m672 248-12 27c-29.434.324-16.969-37.72 12-27"/><path fill="#74a9b5" d="M671 300c136.868 98.91 149.822 296.751 14.5 404C508.381 844.375 215.532 730.02 235 491c.464-5.413.766-10.557 1-16 36.318-204.276 264.213-289.758 435-175M288 632c18.585 41.547 63.221 77.31 104.5 96 180.283 81.628 397.924-47.229 374.5-253.5-1.815-15.98-10.807-47.563-18-62-.826-1.658-2.458 1.035-3 0-4.096-7.825-5.964-12.606-11-20.5-76.289-119.581-222.812-165.362-351.5-98-122.573 64.161-172.108 219.089-95.5 338"/><path fill="#2097b5" d="m660 275 12-27c19.178 7.097 4.827 26.815-12 27"/><path fill="#146283" d="M364 269c-1.2.057-1.526 1.152-2 2-.712 1.273-.667 1.917-1 3l-18 13c-22.503 3.452-26.395-21.538-10.5-33 13.68-9.865 38.392-6.28 31.5 15m-34-7c-4.458 6.535-5.208 9.018-1 16 4.056 6.73 3.815 5.81 11 5 21.269-2.397 29.822-30.597 11-32-6.916-.515-17.093 5.272-21 11"/><path fill="#05b8e1" d="M340 283c-7.185.81-6.944 1.73-11-5 3.283-6.382 6.959-10.016 1-16 3.907-5.728 14.084-11.515 21-11z"/><path fill="#189fbf" d="m340 283 11-32c18.822 1.403 10.269 29.603-11 32"/><path fill="#132842" d="M818 604c-.311-2.117.464-4.04 1-6 41.498-1.976 43.338-50.378 44-82 .57-27.218-.675-66.279-7-92.5-6.967-28.884-16.586-29.295-44-35.5-1.853-3.958-7.8-9.345-8.5-15l-6.5 2c-.176-.367.112-1.155-1-1-8.55-32.069-53.332-84.755-79-106 1.502-4.657.387-6.046-2-10h1c31.052 24.917 56.883 56.211 77 90.5 4.071 6.94 11.898 28.231 15 32 6.201 7.533 36.15 6.021 46 21 6.812 10.359 6.891 32.482 11 40 1.282 2.346 15.827 11.803 19 17 8.644 14.157 7.238 62.388 1 78-4.888 12.233-16.243 13.834-20 19-4.921 6.766-5.4 22.468-15 33-11.018 12.088-21.087 9.072-32 15.5m47-142c.219 5.445 1.581 11.422 2 17 1.703 22.653 1.866 40.488 2 63 .012 2.071-.071 3.995-.5 6 7.306-1.993 11.354-8.1 13.5-15 4.225-13.586 5.557-63.741-3-74.5-3.498-4.398-9.037-5.169-12.5-9.5-2.462.339-1.59 10.766-1.5 13"/><path fill="#a3f0fb" d="M329 278c-4.208-6.982-3.458-9.465 1-16 5.959 5.984 2.283 9.618-1 16"/><path fill="#054a6a" d="M735 392c65.017 118.157 21.003 257.747-95.5 322-119.259 65.773-276.888 33.812-351.5-82-76.608-118.911-27.073-273.839 95.5-338 128.688-67.362 275.211-21.581 351.5 98m-475 71c-22.579 117.419 39.075 218.764 148 261 87.029 33.746 196.94 22.22 273.5-44 96.179-83.189 104.704-226.266 24.5-320-.68-.794-1.43-1.351-2-2-12.074-13.742-24.234-26.074-39-37-35.968-26.614-82.364-45.886-127-51-125.183-14.342-253.686 66.558-278 193"/><path fill="#449db9" d="m538 270 3 26c-120.124-14.495-243.425 36.243-266 168-4.842 6.182-8.734-.968-15-1 24.314-126.442 152.817-207.342 278-193"/><path fill="#4db4ca" d="M362 271c.474-.848.8-1.943 2-2-.399 1.23.618 2.395-2 2"/><path fill="#1389ad" d="M665 321c3.139 5.711 25.847 46.281 28.5 47 5.578 1.512 6.061-10.791 10.5-10 .57.649 1.32 1.206 2 2-3.317 2.657-9.47 10.481-9 14.5.298 2.551 19.141 32.635 22 39 9.952 22.16 17.451 48.635 19 73 .847 13.317-.602 26.756-1 40 5.123-5.386 1.873-17.277 6-21-.744 127.516-117.794 211.425-239.5 203.5-15.69-1.022-31.432-6.748-46-8-1.054-.091-1.04 3.069-3 3-2.225-.079-13.378-4.379-14-4-.767.467-.436 4.309-1.5 5.5-7.972 8.927-23.737 8.092-31 18.5-108.925-42.236-170.579-143.581-148-261 6.266.032 10.158 7.182 15 1-3.138 18.317-3.906 32.517-3 51 .605 12.351 1.785 23.885 5 36 5.679 21.4 18.692 42.151 30 58.5 6.129 8.862 20.341 27.715 31.5 34.5 4.17 2.535 5.082 4.266 10.5 2 17.413 14.94 43.931 28.703 65 38 9.438 4.165 18.757 8.514 28.5 12-1.023-6.402 4.935-6.421 6.5-9.5.628-1.235-.092-6.033 1-8 9.413-16.964 24.192-31.051 38-44.5 8.916 7.942 17.6 16.039 26.5 24 25.294-32.68 62.798-52.106 91.5-81 31.353-31.563 55.32-67.006 48-114 33.357-26.526 28.382-102.621 3-132.5-14.616-17.206-92.067-31.612-116-34.5l-3-26c44.636 5.114 91.032 24.386 127 51"/><path fill="#3a9cbc" d="m343 287 18-13c-2.478 8.071-8.822 11.592-18 13"/><path fill="#69cbe5" d="M541 296c23.933 2.888 101.384 17.294 116 34.5 25.382 29.879 30.357 105.974-3 132.5-6.957-44.665-50.438-64.582-89.5-42-19.757 11.422-33.777 35.165-51 50-15.767-13.552-26.559-34.232-43-47-50.474-39.198-102.708-3.054-98.5 57.5 3.523 50.705 43.028 84.387 77 116.5 9.993 9.446 21.845 20.113 33 30-3.347-1.385-3.04.365-5 2.5-8.707 9.482-18.345 23.919-28.5 31.5-10.275 7.671-27.548 10.625-34.5 22-21.069-9.297-47.587-23.06-65-38-15.253-13.087-32.024-34.688-44-51-4.131-5.351-3.692-17.099-5-20.5-1.962-5.101-10.94-11.188-13-17L272 515c-.906-18.483-.138-32.683 3-51 22.575-131.757 145.876-182.495 266-168m-100.5 10c-68.56 5.892-167.061 90.753-152 167 14.372-45.922 50.743-75.993 91-99 17.018-9.726 78.87-35.17 86.5-48.5 11.579-20.229-12.167-20.646-25.5-19.5m65 6c-.998.33-9.655 12.272-9 15 51.421-.628 102.061 7.349 151.5 20.5-31.428-17.974-70.439-29.487-106.5-33.5-5.595-.623-32.626-3.114-36-2"/><path fill="#e6f5f9" d="M781 465c3.342 19.519 4.404 46.226 3 66-8.462 119.204-111.505 214.339-226 233-62.071 10.117-127.558 1.626-184-26-40.512-19.829-75.243-50.24-101-87-40.705-58.094-43.716-93.356-38-160-19.468 239.02 273.381 353.375 450.5 213C820.822 596.751 807.868 398.91 671 300c53.455 35.918 99.002 100.769 110 165"/><path fill="#d8f2f9" d="M440.5 306c13.333-1.146 37.079-.729 25.5 19.5-7.63 13.33-69.482 38.774-86.5 48.5-40.257 23.007-76.628 53.078-91 99-15.061-76.247 83.44-161.108 152-167"/><path fill="#1a374f" d="M256 310c-7.155 10.437-14.33 20.931-22 31-3.975 5.218-8.391 9.782-11.5 16-3.969-7.188-4.012-1.641-8.5 0 9.236-16.849 19.152-31.85 31-47 .146 11.176 5.911 4.408 11 0"/><path fill="#d2eef7" d="M505.5 312c3.374-1.114 30.405 1.377 36 2 36.061 4.013 75.072 15.526 106.5 33.5-49.439-13.151-100.079-21.128-151.5-20.5-.655-2.728 8.002-14.67 9-15"/><path fill="#0f6e93" d="M704 358c-4.439-.791-4.922 11.512-10.5 10-2.653-.719-25.361-41.289-28.5-47 14.766 10.926 26.926 23.258 39 37"/><path fill="#1a4e68" d="M198 425c-18.279 67.585-15.947 133.784 12 198 24.828 57.05 67.827 106.658 121 139 45.855 27.891 105.421 45.95 159 50 26.605 2.011 53.789 1.003 80-4v5c-3.007.604-6.014 1.49-9 2-2.353.402-5.659 1.677-8 2-5.157.712-10.865 1.546-16 2-60.171 5.315-118.371-8.382-174-29.5-.52.969-.374 20.965 0 22 1.452 4.021 34.743 17.578 40.5 19.5 34.823 11.625 87.044 19.874 123.5 17v4c.087 1.578-1.594.756-2 1-54.84 2.047-116.881-5.771-162.5-38-2.765 19.195 7.764 32.482 22.5 43v5c-7.789-5.365-14.67-11.026-20-19-5.523-8.262-8.183-14.823-9-25-.43-5.358 2.429-19.149 1-23-.338-.911-.778-1.402-1.5-2-8.754-.319-15.295 5.736-23.5 8 3.369-2.46 6.583-4.392 10-6.5-13.721 1.356-24.228 12.416-35 20.5 7.961-9.754 18.953-17.209 30.5-22 4.957-2.057 21.174-2.773 18.5-8.5-67.717-30.738-120.561-82.529-152-150-3.141-6.742-8.175-27.177-11-31-3.594-4.864-22.487-6.256-32-17-9.387-10.601-8.959-24.008-14-32-2.601-4.123-12.237-7.307-17-15.5l3-2c.583 1.098 2.383 2.232 3 3 1.781 2.22 6.47 8.479 10 5.5-.773-4.781-1.896-9.64-2-14.5-.551-25.812-.231-51.774 2-77.5l-4-3.5c.156-.22 1.149-3.385 2-5 9.898-18.791 4.841-41.861 28.5-52 6.605-2.831 21.99-3.916 26-6 3.926-2.04 12.324-25.206 15.5-31 4.488-1.641 4.531-7.188 8.5 0 3.109-6.218 7.525-10.782 11.5-16-14.718 26.786-27.978 54.338-36 84m-12-30c-5.144 1.027-13.293 2.961-17.5 6-19.648 14.192-20.585 100.862-19.5 125 1.28 28.471 5.181 69.512 41.5 71l-.5-2c-4.078-17.335-8.265-35.234-10-53-.931-9.534-1.89-20.49-2-30-.456-39.364 7.116-82.377 22-118.5-1.275-1.649-11.872 1.075-14 1.5"/><path fill="#046389" d="M408 724c7.263-10.408 23.028-9.573 31-18.5 1.064-1.191.733-5.033 1.5-5.5.622-.379 11.775 3.921 14 4 1.96.069 1.946-3.091 3-3 14.568 1.252 30.31 6.978 46 8 121.706 7.925 238.756-75.984 239.5-203.5-4.127 3.723-.877 15.614-6 21 .398-13.244 1.847-26.683 1-40-1.549-24.365-9.048-50.84-19-73-2.859-6.365-21.702-36.449-22-39-.47-4.019 5.683-11.843 9-14.5 80.204 93.734 71.679 236.811-24.5 320-76.56 66.22-186.471 77.746-273.5 44"/><path fill="#243c51" d="M812 388c.556 1.188 1.136 4.837 2 7 9.356 23.414 16.046 57.811 18 83 .938 12.092 1.377 26.881 1 39l-2 10.5-7-.5c2.738-48.773-5.865-107.809-27-152l6.5-2c.7 5.655 6.647 11.042 8.5 15"/><path fill="#bbcacf" d="M797 375c21.135 44.191 29.738 103.227 27 152-1.394 24.822-7.043 50.562-15 74-14.098 41.527-38.801 80.462-69 112 47.531-57.798 78.059-120.816 79-197 .415-33.574-3.036-62.499-11-95-3.775-15.405-8.096-32.358-12-47 1.112-.155.824.633 1 1"/><path fill="#165a78" d="M223.5 385c18.024-4.212 18.202 19.263 6 22-18.045 4.048-18.634-19.047-6-22m4 2c-.316.015-5.748 1.809-6 2-11.273 8.54 10.303 19.723 12.5 8.5.407-2.077-2.441-.517-2-4 .234-1.851 8.108-7.092-4.5-6.5m-8 14c-.36 2.864 4.107 6.76 6.5 3.5z"/><path fill="#0bbce5" d="M227.5 387c12.608-.592 4.734 4.649 4.5 6.5-.441 3.483 2.407 1.923 2 4-2.197 11.223-23.773.04-12.5-8.5.252-.191 5.684-1.985 6-2"/><path fill="#fafbfc" d="m863 516-3-1c-.013-.333.015-.667 0-1-.821-18.117-7.976-83.598-13-99.5-3.561-11.271-21.209-21.706-33-19.5-.864-2.163-1.444-5.812-2-7 27.414 6.205 37.033 6.616 44 35.5 6.325 26.221 7.57 65.282 7 92.5"/><path fill="#74d7eb" d="M288 632c74.612 115.812 232.241 147.773 351.5 82 116.503-64.253 160.517-203.843 95.5-322 5.036 7.894 6.904 12.675 11 20.5.542 1.035 2.174-1.658 3 0 7.193 14.437 16.185 46.02 18 62C790.424 680.771 572.783 809.628 392.5 728c-41.279-18.69-85.915-54.453-104.5-96"/><path fill="#a9bdc5" d="M178 512c-4.073 7.717-10.346 30.555-18.5 34-1.791.756-5.691-2.385-6.5.5-.427 1.521 5.93 15.833 7 18.5 5.725 14.268 11.947 29.357 30 30l.5 2c-36.319-1.488-40.22-42.529-41.5-71 6.32-3.174 7.407.598 9-8.5 4.536-25.904-3.869-85.059 8-108 2.687-5.194 15.633-10.638 20-14.5 2.128-.425 12.725-3.149 14-1.5-14.884 36.123-22.456 79.136-22 118.5"/><path fill="#f0f4f6" d="M186 395c-4.367 3.862-17.313 9.306-20 14.5-11.869 22.941-3.464 82.096-8 108-1.593 9.098-2.68 5.326-9 8.5-1.085-24.138-.148-110.808 19.5-125 4.207-3.039 12.356-4.973 17.5-6"/><path fill="#bcd1d9" d="m860 514-28-36c-1.954-25.189-8.644-59.586-18-83 11.791-2.206 29.439 8.229 33 19.5 5.024 15.902 12.179 81.383 13 99.5"/><path fill="#5ec6da" d="m219.5 401 6.5 3.5c-2.393 3.26-6.86-.636-6.5-3.5"/><path fill="url(#b)" d="M654 463c7.32 46.994-16.647 82.437-48 114l-92.5 76-64.5-55c-33.972-32.113-73.477-65.795-77-116.5-4.208-60.554 48.026-96.698 98.5-57.5 16.441 12.768 27.233 33.448 43 47 17.223-14.835 31.243-38.578 51-50 39.062-22.582 82.543-2.665 89.5 42m-230.5-34c-35.282 2.688-35.495 63.174 3 61 36.311-2.051 32.384-63.696-3-61m197 36c-22.184.783-25.568 43.964-4 46 25.192 2.378 31.574-46.973 4-46m-228 23c-.183.059-2.419 2.281-2.5 2.5-4.932 13.33 22.868 47.804 32.5 57.5-5.098-13.61-12.539-26.269-18.5-39.5-2.087-4.632-4.451-22.759-11.5-20.5m223 32c-5.071.885-4.351 11.751 3 9 4.035-1.51 1.782-9.835-3-9" style="fill:url(#b)"/>/&gt;<path fill="#bddde6" d="M236 475c-.234 5.443-.536 10.587-1 16-5.716 66.644-2.705 101.906 38 160-7.684 5.583-13.184 2.602-20.5-2-19.638-12.355-51.735-72.432-57.5-95-7.865-30.79-1.476-94.804 7-126 .343-1.262 2.025-8.879 2.5-9 6.561 14.536 17.283 25.796 34.5 19.5-1.157 4.675-1.419 9.266-2 14-.906 7.386-.631 13.905-1 22.5"/><path fill="#8299a2" d="M808 421c7.964 32.501 11.415 61.426 11 95-13.713-1-22.122 13.422-35 15 1.404-19.774.342-46.481-3-66z"/><path fill="#f9fcfd" d="M202 428c-8.476 31.196-14.865 95.21-7 126-1.395 23.593 10.021 46.177 15 69-27.947-64.216-30.279-130.415-12-198z"/><path fill="#fefefe" d="M423.5 429c35.384-2.696 39.311 58.949 3 61-38.495 2.174-38.282-58.312-3-61"/><path fill="#072849" d="M144 446c-.851 1.615-1.844 4.78-2 5-.841 1.185-3.437 2.817-5 5-.178.248-3.438 1.094-5 3.5-8.014 12.344-6.093 65.14 1 78.5l-3 2c-11.675-20.082-15.472-83.747 14-94"/><path fill="#71f6ff" d="M882 533c-1.836-26.048-1.067-53.644-11.5-78l-5.5 7c-.09-2.234-.962-12.661 1.5-13 3.463 4.331 9.002 5.102 12.5 9.5 8.557 10.759 7.225 60.914 3 74.5"/><path fill="#61d5eb" d="M144 532c-1.502.63-3.944-5.165-4-5.5-3.392-20.237 3.613-48.202 4-69-.361-3.888-4.924-.851-6 .5l-1-2c1.563-2.183 4.159-3.815 5-5l4 3.5c-2.231 25.726-2.551 51.688-2 77.5"/><path fill="#06b6dd" d="M144 532c.104 4.86 1.227 9.719 2 14.5-3.53 2.979-8.219-3.28-10-5.5-7.12-14.261-6.617-72.179 2-83 1.076-1.351 5.639-4.388 6-.5-.387 20.798-7.392 48.763-4 69 .056.335 2.498 6.13 4 5.5"/><path fill="#01afda" d="M882 533c-2.146 6.9-6.194 13.007-13.5 15 .429-2.005.512-3.929.5-6 8.68.702 3.064-9.379 3-12.5-.308-14.967-.311-30.13-2-45-.086-.758-1.041-6.335-3-5.5-.419-5.578-1.781-11.555-2-17l5.5-7c10.433 24.356 9.664 51.952 11.5 78"/><path fill="#c8fafa" d="m137 456 1 2c-8.617 10.821-9.12 68.739-2 83-.617-.768-2.417-1.902-3-3-7.093-13.36-9.014-66.156-1-78.5 1.562-2.406 4.822-3.252 5-3.5"/><path fill="#fefefe" d="M620.5 465c27.574-.973 21.192 48.378-4 46-21.568-2.036-18.184-45.217 4-46"/><path fill="#7c97a1" d="M860 514c.015.333-.013.667 0 1 .082 2.015-1.97 9.761-2 12-7.775 11.475-15.054 25.176-29 30 1.955-12.815 3.598-27.065 4-40 .377-12.119-.062-26.908-1-39z"/><path fill="#1ed1ea" d="M869 542c-.134-22.512-.297-40.347-2-63 1.959-.835 2.914 4.742 3 5.5 1.689 14.87 1.692 30.033 2 45 .064 3.121 5.68 13.202-3 12.5"/><path fill="#fbfcfd" d="M392.5 488c7.049-2.259 9.413 15.868 11.5 20.5 5.961 13.231 13.402 25.89 18.5 39.5-9.632-9.696-37.432-44.17-32.5-57.5.081-.219 2.317-2.441 2.5-2.5"/><path fill="#7f97a1" d="m180 542-20 23c-1.07-2.667-7.427-16.979-7-18.5.809-2.885 4.709.256 6.5-.5 8.154-3.445 14.427-26.283 18.5-34 .11 9.51 1.069 20.466 2 30"/><path fill="#45b1d1" d="M305 595c-13.671-18.622-14.248-23.25-24-42.5-1.588-3.134-1.015-2.018-4-1.5-3.215-12.115-4.395-23.649-5-36l15 42.5c2.06 5.812 11.038 11.899 13 17 1.308 3.401.869 15.149 5 20.5"/><path fill="#c2ced1" d="M863 516c-.662 31.622-2.502 80.024-44 82 .597-2.181 2.716-5.929 3-7 17.73 6.233 32.036-20.205 35-34.5 2.032-9.802.869-19.688 1-29.5.03-2.239 2.082-9.985 2-12z"/><path fill="#5d8593" d="M819 516c-.941 76.184-31.469 139.202-79 197-6.212 6.487-13.235 13.075-20 19-23.201 20.32-48.186 36.68-76 50-1.334.639-2.657 1.381-4 2-22.078 10.168-45.959 19.412-70 24-26.211 5.003-53.395 6.011-80 4-.465-4.019.802-2.708 3.5-3 28.579-3.09 60.199-11.601 64.5-45 114.495-18.661 217.538-113.796 226-233 12.878-1.578 21.287-16 35-15m-90.5 175c-11.302 1.23-16.998 19.966-5 22 16.989 2.881 24.485-24.121 5-22"/><path fill="#1c293c" d="M833 517c-.402 12.935-2.045 27.185-4 40-1.663 10.898-4.175 23.349-7 34-.284 1.071-2.403 4.819-3 7-.536 1.96-1.311 3.883-1 6-.33.194-.972 2.802-3 2-1.409-5.782-5.482-.572-6-5 7.957-23.438 13.606-49.178 15-74l7 .5z"/><path fill="#fafbfb" d="M615.5 520c4.782-.835 7.035 7.49 3 9-7.351 2.751-8.071-8.115-3-9"/><path fill="#557886" d="M822 591c2.825-10.651 5.337-23.102 7-34 13.946-4.824 21.225-18.525 29-30-.131 9.812 1.032 19.698-1 29.5-2.964 14.295-17.27 40.733-35 34.5"/><path fill="#627e8a" d="M190 595c-18.053-.643-24.275-15.732-30-30l20-23c1.735 17.766 5.922 35.665 10 53"/><path fill="#2b9dbf" d="M305 595c11.976 16.312 28.747 37.913 44 51-5.418 2.266-6.33.535-10.5-2-11.159-6.785-25.371-25.638-31.5-34.5-11.308-16.349-24.321-37.1-30-58.5 2.985-.518 2.412-1.634 4 1.5 9.752 19.25 10.329 23.878 24 42.5"/><path fill="#a9ccd6" d="M273 651c25.757 36.76 60.488 67.171 101 87-6.322 19.386-26.981 17.959-43 24-53.173-32.342-96.172-81.95-121-139-4.979-22.823-16.395-45.407-15-69 5.765 22.568 37.862 82.645 57.5 95 7.316 4.602 12.816 7.583 20.5 2m-5 54c1.56 3.196.28 1.536 3 3 .062.034-.384.571 1 1 11.662 3.618 26.522-5.9 17-16-8.33-8.837-28.935-4.255-21 12"/><path fill="#0fe4f9" d="M606 577c-28.702 28.894-66.206 48.32-91.5 81-8.9-7.961-17.584-16.058-26.5-24-2.043-1.82-3.84-4.085-6-6-11.155-9.887-23.007-20.554-33-30l64.5 55z"/><path fill="#2b4155" d="M815 606c1.978 8.116-21.322 53.076-27 62.5-15.812 26.245-36.084 49.328-59 69.5-1.67-4.57-3.127 2.21-4.5 2-.454-.07-5.325-6.34-4.5-8 6.765-5.925 13.788-12.513 20-19 30.199-31.538 54.902-70.473 69-112 .518 4.428 4.591-.782 6 5"/><path fill="#1fa8ca" d="M482 628c2.16 1.915 3.957 4.18 6 6-13.808 13.449-28.587 27.536-38 44.5-1.092 1.967-.372 6.765-1 8-1.565 3.079-7.523 3.098-6.5 9.5-9.743-3.486-19.062-7.835-28.5-12 6.952-11.375 24.225-14.329 34.5-22 10.155-7.581 19.793-22.018 28.5-31.5 1.96-2.135 1.653-3.885 5-2.5"/><path fill="#26758e" d="M289 693c2.687 8.854-5.528 15.732-14 11 3.903-1.519 10.073-5.729 6.5-10l-10.5 2.5c-1.351 3.687 1.491 5.577 2 7.5.941 3.555 4.411 2.335-1 5-1.384-.429-.938-.966-1-1l-3-3c-7.935-16.255 12.67-20.837 21-12"/><path fill="#214056" d="M728.5 691c19.485-2.121 11.989 24.881-5 22-11.998-2.034-6.302-20.77 5-22m-3.5 18c8.908.665 20.482-14.589 7-15-12.341-.377-18.162 17.724-4 16.5z"/><path fill="#174d69" d="M272 709c5.411-2.665 1.941-1.445 1-5 .631-.086 1.579.164 2 0 8.472 4.732 16.687-2.146 14-11 9.522 10.1-5.338 19.618-17 16"/><path fill="#05b6e3" d="M275 704c-.421.164-1.369-.086-2 0-.509-1.923-3.351-3.813-2-7.5l10.5-2.5c3.573 4.271-2.597 8.481-6.5 10"/><path fill="#0c99c2" d="m725 709 3 1.5c-14.162 1.224-8.341-16.877 4-16.5.035 7.373-2.491 17.14-11 10.5z"/><path fill="#46646e" d="m725 709-4-4.5c8.509 6.64 11.035-3.127 11-10.5 13.482.411 1.908 15.665-7 15"/><path fill="#062642" d="M271 708c-2.72-1.464-1.44.196-3-3z"/><path fill="#1f2737" d="M729 738c-22.841 20.106-47.692 36.927-75 50.5-.251 2.534 18.689 5.098 22.5 6.5 54.211 19.943 59.592 70.689 19 109-27.423 25.882-65.901 39.185-101.5 48 3.156-3.022.713-4.15 1-8 22.004-5.495 44.059-14.243 64-25 70.194-37.865 84.635-102.071-3.5-126-1.806 20.86 2.682 42.096-12.5 59-3.117 1.152-16.188 13.874-21.5 17-6.353 3.739-19.542 9.66-26.5 12-23.091 7.766-51.665 12.008-76 13l12-8c1.724-.094 2.251-.874 4-1 20.373-1.473 37.476-3.897 57-10 24.388-7.623 62.056-24.482 54.5-56-15.447 12.163-34.521 20.089-53.5 25-13.775 3.565-27.901 5.221-42 7-7.215.911-16.54.282-24 1v-4c.981-.077 2.03.117 3 0 3.904-.472 4.229-.043 8-2 16.932 3.008 105.587-18.932 110-33.5 1.802-5.948-.042-24.695-4-30.5 27.814-13.32 52.799-29.68 76-50-.825 1.66 4.046 7.93 4.5 8 1.373.21 2.83-6.57 4.5-2"/><path fill="#7ba5b1" d="M558 764c-4.301 33.399-35.921 41.91-64.5 45-2.698.292-3.965-1.019-3.5 3-53.579-4.05-113.145-22.109-159-50 16.019-6.041 36.678-4.614 43-24 56.442 27.626 121.929 36.117 184 26"/><path fill="#374953" d="M538 846c8.859-4.597 16.975-18.91 15-29 2.341-.323 5.647-1.598 8-2 2.172 3.215 2.663 3.16 6.5 3 10.046-.418 62.906-16.35 70-22 3.001-2.39 1.364-3.835 1.5-4 1.583-1.922 2.915-3.168 5-4.5l-4-3.5c1.343-.619 2.666-1.361 4-2 3.958 5.805 5.802 24.552 4 30.5-4.413 14.568-93.068 36.508-110 33.5"/><path fill="#1a435c" d="M639 792c-6.179 1.809-12.527 5.959-18.5 8-16.784 5.734-34.418 9.767-50.5 13v-5c24.041-4.588 47.922-13.832 70-24l4 3.5c-2.085 1.332-3.417 2.578-5 4.5"/><path fill="#558493" d="m537 819-7 29c-.97.117-2.019-.077-3 0-36.456 2.874-88.677-5.375-123.5-17-5.757-1.922-39.048-15.479-40.5-19.5-.374-1.035-.52-21.031 0-22 55.629 21.118 113.829 34.815 174 29.5"/><path fill="#49585e" d="M639 792c-.136.165 1.501 1.61-1.5 4-7.094 5.65-59.954 21.582-70 22-3.837.16-4.328.215-6.5-3 2.986-.51 5.993-1.396 9-2 16.082-3.233 33.716-7.266 50.5-13 5.973-2.041 12.321-6.191 18.5-8"/><path fill="#4a6975" d="M659 919c1.529-6.446 6.705-15.127-2-19 21.597-11.516 54.49-34.161 48.5-62 1.372 26.573-21.881 41.719-42.5 53 19.397-18.661 6.983-48.972-20-39 15.182-16.904 10.694-38.14 12.5-59 88.135 23.929 73.694 88.135 3.5 126m18.5-97c-15.313 3.57-4.586 30.302 11 27 14.254-3.019 6.531-31.087-11-27"/><path fill="#ccdce3" d="M357 796c-1.7-.065-6.222.238-7.5 1-1.488.888-23.262 22.715-24.5 24.5-22.656 32.675 25.671 68.321 54 73.5-.605 5.785 3.21 5.757 5 10-19.956-7.378-56.377-25.344-68-43.5-1.75-2.733-7.215-17.95-8-16 1.238 2.322 1.284 4.965 2 7.5-5.279 11.551 2.011 23.672 7 34-.825-1.067-4.138-3.674-5-5-23.083-35.526-10.723-57.562 20-80 8.205-2.264 14.746-8.319 23.5-8 .722.598 1.162 1.089 1.5 2"/><path fill="#223d53" d="M332 802c-30.723 22.438-43.083 44.474-20 80l-7 1.5c3.367 1.976 5.59 9.85 6 10.5-20.483-22.988-23.891-53.627-4-78 10.772-8.084 21.279-19.144 35-20.5-3.417 2.108-6.631 4.04-10 6.5"/><path fill="#a2c1cb" d="M357 796c1.429 3.851-1.43 17.642-1 23l-13 12.5c7.943 1.843 12.962 8.305 19 13 1.729 1.345 1.57 2.393 3-.5 5.33 7.974 12.211 13.635 20 19 21.889 15.076 51.007 22.811 77 27l-1 4c-22.238-2.862-56.275 5.703-82 1-28.329-5.179-76.656-40.825-54-73.5 1.238-1.785 23.012-23.612 24.5-24.5 1.278-.762 5.8-1.065 7.5-1"/><path fill="#7a97a0" d="M525 853c-.87.523-9.459 13.265-12.5 16-7.127 6.41-15.7 10.616-23.5 16-34.408-1.76-75.216-6.456-104-27-14.736-10.518-25.265-23.805-22.5-43 45.619 32.229 107.66 40.047 162.5 38"/><path fill="#50626b" d="M553 817c1.975 10.09-6.141 24.403-15 29-3.771 1.957-4.096 1.528-8 2l7-29c5.135-.454 10.843-1.288 16-2"/><path fill="#7097a4" d="M356 819c.817 10.177 3.477 16.738 9 25-1.43 2.893-1.271 1.845-3 .5-6.038-4.695-11.057-11.157-19-13z"/><path fill="#2c5261" d="m592 875 1-31c18.979-4.911 38.053-12.837 53.5-25 7.556 31.518-30.112 48.377-54.5 56"/><path fill="#072950" d="M677.5 822c17.531-4.087 25.254 23.981 11 27-15.586 3.302-26.313-23.43-11-27m1 3c-9.389 1.507-4.464 20.925 5 19 8.847-1.8 3.698-20.396-5-19"/><path fill="#2e6c84" d="M678.5 825c8.698-1.396 13.847 17.2 5 19-9.464 1.925-14.389-17.493-5-19"/><path fill="#202a3b" d="M657 900c-18.801 10.025-42.301 17.958-63 23-36.261 8.833-72.608 11.048-110 9l15.5-1-5.5-5c26.776.655 53.657-1.654 80-6 30.957-5.107 61.492-13.949 89-29 20.619-11.281 43.872-26.427 42.5-53 5.99 27.839-26.903 50.484-48.5 62"/><path fill="#4b6570" d="m593 844-1 31c-19.524 6.103-36.627 8.527-57 10 8.286-9.149 22.199-20.298 16-34 14.099-1.779 28.225-3.435 42-7"/><path fill="#1f4c63" d="M384 905c12.661 4.681 27.826 9.009 41 12 6.55 1.487 13.379 2.88 20 4 1.284 8.244-4.031 3.044-4.5 3-16.022-1.519-37.906-7.008-57-16-.179-.084-4.734-1.764-3.5 1-22.987-9.446-62.763-30.386-70-56-.716-2.535-.762-5.178-2-7.5.785-1.95 6.25 13.267 8 16 11.623 18.156 48.044 36.122 68 43.5"/><path fill="#6e8189" d="M551 851c6.199 13.702-7.714 24.851-16 34-1.749.126-2.276.906-4 1-13.976.76-28.064-.287-42-1 7.8-5.384 16.373-9.59 23.5-16 3.041-2.735 11.63-15.477 12.5-16 .406-.244 2.087.578 2-1 7.46-.718 16.785-.089 24-1"/><path fill="#648490" d="M663 891c-27.508 15.051-58.043 23.893-89 29 4.29-7.618 15.708-10.918 20-18.5 3.623-6.401 4.17-13.638 1-20.5 6.958-2.34 20.147-8.261 26.5-12 5.312-3.126 18.383-15.848 21.5-17 26.983-9.972 39.397 20.339 20 39"/><path fill="#b5cdd6" d="M380 909c16.953 6.966 34.04 12.15 52 16l-4 20c-39.048-8.837-85.876-25.491-111-58-4.989-10.328-12.279-22.449-7-34 7.237 25.614 47.013 46.554 70 56"/><path fill="#2b4558" d="M489 885c13.936.713 28.024 1.76 42 1l-12 8c-20.309.827-37.141-.8-57-4-25.993-4.189-55.111-11.924-77-27v-5c28.784 20.544 69.592 25.24 104 27"/><path fill="#20576f" d="M312 882c.862 1.326 4.175 3.933 5 5 25.124 32.509 71.952 49.163 111 58 8.439 1.91 17.456 3.685 26 5l-1.5 8c-28.994-7.03-52.197-10.502-82-25-.423-.206-4.367-1.613-3.5 1-18.165-8.323-45.116-22.736-56-40-.41-.65-2.633-8.524-6-10.5z"/><path fill="#95b4be" d="M595 881c3.17 6.862 2.623 14.099-1 20.5-4.292 7.582-15.71 10.882-20 18.5-26.343 4.346-53.224 6.655-80 6-16.544-.405-32.732-2.247-49-5-6.621-1.12-13.45-2.513-20-4 2.102-3.392-5.47-2.493-6-3.5-.258-.49 4.677-7.481 3.5-10.5 6.348-.778 43.787 2.614 44.5-4.5 1.084-2.168-5.377-4.42-6-4.5l1-4c19.859 3.2 36.691 4.827 57 4 24.335-.992 52.909-5.234 76-13"/><path fill="#adc8d1" d="M461 894c.623.08 7.084 2.332 6 4.5-.713 7.114-38.152 3.722-44.5 4.5 1.177 3.019-3.758 10.01-3.5 10.5.53 1.007 8.102.108 6 3.5-13.174-2.991-28.339-7.319-41-12-1.79-4.243-5.605-4.215-5-10 25.725 4.703 59.762-3.862 82-1"/><path fill="#72939d" d="M657 900c8.705 3.873 3.529 12.554 2 19-19.941 10.757-41.996 19.505-64 25-2.587.646-6.514.452-9 1 5.413-5.816 11.307-13.635 8-22 20.699-5.042 44.199-12.975 63-23"/><path fill="#213c52" d="M445 921c16.268 2.753 32.456 4.595 49 5l5.5 5-15.5 1c-18.991-1.04-33.438-3.021-52-7-17.96-3.85-35.047-9.034-52-16-1.234-2.764 3.321-1.084 3.5-1 19.094 8.992 40.978 14.481 57 16 .469.044 5.784 5.244 4.5-3"/><path fill="#93b3be" d="M586 945c-45.446 10.011-85.796 12.11-132 5-8.544-1.315-17.561-3.09-26-5l4-20c18.562 3.979 33.009 5.96 52 7 37.392 2.048 73.739-.167 110-9 3.307 8.365-2.587 16.184-8 22"/><path fill="#223c51" d="M454 950c46.204 7.11 86.554 5.011 132-5 2.486-.548 6.413-.354 9-1-.287 3.85 2.156 4.978-1 8-76.924 19.048-154.307 15.307-227-18-.867-2.613 3.077-1.206 3.5-1 29.803 14.498 53.006 17.97 82 25z"/></svg>