<svg xmlns="http://www.w3.org/2000/svg" width="1024" height="1024"><defs><linearGradient id="a" x1="721.47" x2="302.596" y1="326.031" y2="384.974" gradientUnits="userSpaceOnUse"><stop offset="0%" style="stop-color:#99c0c9"/><stop offset="100%" style="stop-color:#e7f4f6"/></linearGradient></defs><defs><linearGradient id="b" x1="343.68" x2="638.585" y1="444.96" y2="715.203" gradientUnits="userSpaceOnUse"><stop offset="0%" style="stop-color:#bdd6db"/><stop offset="71.5%" style="stop-color:#91bac3"/><stop offset="100%" style="stop-color:#73a2ab"/></linearGradient></defs><defs><linearGradient id="c" x1="470.727" x2="613.805" y1="588.615" y2="612.143" gradientUnits="userSpaceOnUse"><stop offset="0%" style="stop-color:#0c7f9b"/><stop offset="100%" style="stop-color:#075573"/></linearGradient></defs><defs><linearGradient id="d" x1="818.727" x2="824.043" y1="536.58" y2="587.302" gradientUnits="userSpaceOnUse"><stop offset="0%" style="stop-color:#7facb4"/><stop offset="100%" style="stop-color:#477d89"/></linearGradient></defs><defs><linearGradient id="e" x1="420.561" x2="546.418" y1="553.998" y2="677.026" gradientUnits="userSpaceOnUse"><stop offset="0%" style="stop-color:#3eb7d4"/><stop offset="100%" style="stop-color:#116684"/></linearGradient></defs><defs><linearGradient id="f" x1="486.655" x2="495.193" y1="548.244" y2="652.896" gradientUnits="userSpaceOnUse"><stop offset="0%" style="stop-color:#2e5e73"/><stop offset="100%" style="stop-color:#12314b"/></linearGradient></defs><path fill="#0e425e" d="M542 158c.13 2.711.689 2.046 3 2-5.397 5.463-13.494 21.507-14 29-.362 5.36 6.348 39.717 10.5 40 .435-11.987 2.261-23.463 5.5-35 2.117-7.541 8.133-12.548 7-20-.287-1.888-1.302-4.179-2-6l4.5 5c12.034-16.429 24.181-35.01 44.5-41.5-4.298.219-20.121 5.199-22.5 7.5-2.795 2.703 2.611 6.815-4.5 3.5-.116-.054 2.208-1.764.5-2.5-3.264-1.406-28.71 14.204-32.5 18-.46-9.56 52.364-27.301 61.5-30 2.383-.11 1.498 3.495 1.5 5-.971.097-2.053-.164-3 0-4.433.766-12.312 7.063-16 10-7.303 5.816-13.022 13.341-20 19.5l17-.5c-9.572.831-17.48 1.758-23 9.5-2.679 3.758-13.124 35.332-14 40.5-.971 5.725-3.688 21.037 3 23-.101 3.15.071 6.337 0 9.5.546.99 3.787-1.509 4-1.5 36.98 1.522 93.463 26.792 124.5 47 35.077 22.838 64.445 53.352 89 87 28.323-11.81 57.913-29.709 59-64 27.475 49.202-8.244 102.729-43.5 136.5-.545 1.115 1.118 1.581 1 2.5-.013.102-2.128-.277-2 .5.319 1.936 6.518 8.83 7 10 .687 1.667 1.588 10.647 4 14 5.333 7.413 9.507 3.652 13.5 5.5 38.095 17.628 49.793 100.434 33.5 135.5-10.623 22.864-32.859 15.666-42 26-4.394 4.967-11.965 31.572-16 40C709.592 832.667 556.02 900.843 413.5 849c-1.923-.699-13.489-9.332-15.5-5-77.326-31.24-131.951-85.698-164-162.5-1.88-4.505-6.762-24.292-8-26-2.464-3.398-17.066-1.689-24.5-6.5-4.908-3.176-27.906-33.429-30.5-39.5-15.812-37.003-6.289-91.211 29.5-113.5 6.261-3.899 21.296-3.955 22.5-5.5 3.957-5.08 7.399-32.984 14-40 .029-2.35-25.152-25.966-29-31-21.944-28.711-36.997-71.025-16.5-104.5.186 34.344 30.39 52.419 59 63 48.318-73.266 129.441-124.519 217-135 1.086-21.167-20.655-18.356-35-27-35.39-21.326-13.033-52.44-19-85 49.734 11.154 92.562 35.633 70 94 17.474-16.345 13.358-40.583 2.5-59.5-10.273-17.896-21.015-13.61-9-40 3.117-6.847 27.147-38.624 34.5-37.5 5.664.866 30.163 34.017 32.5 40.5 9.267 25.709-2.28 20.097-12 36-11.6 18.979-13.202 44.896 3.5 61.5-6.304-23.058-12.444-49.03 6.5-68m-32-27c-.048 3.321.04 6.679 0 10-.032 2.655.006 5.344 0 8-.004 1.658-.004 3.342 0 5 .021 8.402-1.207 16.971-1 25 .136 5.265 1.513 41.906 3 43.5.615.659 14.577 1.874 17 2.5l.5 2c-9.061-2.312-14.612-.538-23.5.5 5.382-2.747 28.986 7.963 30.5 7.5.312-.095 3.591-5.187 3.5-5.5-.312-1.066-9.308-4.063-11-4.5-16.853-23.938-5.638-46.024 4-70 13.569-11.57 6.598-18.913 1-32.5 2.342-.569 3.907 6.687 4.5 6.5 4.733-1.491-25.63-40.52-27.5-38.5-1.854 13.416-.807 27.069-1 40.5m-31 1c-7.157 22.112 1.522 17.012 10 32.5 11.205 20.472 13.946 37.529 3 59 .615.837 14.563-1.382 15-2 1.554-2.2-1.147-31.888-1-37 .214-7.41 1.863-14.861 2-22.5.042-2.322-.036-4.678 0-7 .03-1.99-.02-4.01 0-6 .027-2.656-.025-5.344 0-8 .053-5.652.011-11.348 0-17-.005-2.488-1-5.089-1-6-.001-6.719 1.976-15.27 2-22 .005-1.498.878-5.113-1.5-5-11.312 13.25-23.057 24.182-28.5 41m-11 34c-1.15 2.659-7.123 12.75-7 13.5.139.842 1.973.4 2 .5 4.592 17.123 14.53 33.226 12.5 53 8.431-16.766 13.837-31.77 8.5-50-2.786-9.515-11.019-23.696-19-30-2.275-1.797-18.826-10.235-20.5-10-2.995.42-.912 5.311-5.5 3 6.538-4.388-1.081-5.903-5.5-7l5.5 7c-7.051-3.551-11.929-12.197-21-11.5 18.61 9.133 32.783 24.504 42.5 42.5zm-51 28c6.914 26.223 48.381 18.541 54.5 44 2.14-16.916-2.58-33.427-8.5-49-3.004-7.903-6.271-14.971-11-22-4.606-6.847-10.642-14.847-18-19-4.662-4.434-9.281-9.382-16-11l-2 1.5c-1.028 2.907-.176 51.041 1 55.5m71 49c1.224-1.096 2.407-2.536 4-3.5-21.399 5.846-24.139 31.071-12 48.5 6.601 9.477 17.222 15.272 29 15 30.439-.704 51.466-39.374 24-60-7.209-5.414-10.379-6.967-20-7-.333-.001-.668-.011-1 0-8.784.301-15.994 4.062-24 7m-164 78c-10.29 8.134-16.795 13.442-26 23-10.199 10.59-19.302 21.666-28 33.5 13.896 11.965 31.201 40.242 33 58.5.634 6.433.246 2.742-1 5 1.596-6.723-18.446-40.193-21.5-40-3.113 2.743-4.586 6.489-6.5 10-72.57 111.01-58.26 278.705 45 366 19.299 19.606 45.4 36.06 71 46 66.225 36.34 161.154 35.555 230.5 8 80.967-32.173 137.573-107.898 162.5-189.5.702-3.98-6.203-3.547-8.5-5.5-23.523-20.003-40.986-128.496-11-150 4.516-3.239 12.77-2.086 12.5-8.5-.403-9.573-31.616-66.958-40-72.5-.134-.088.733-2.783-2.5-2-6.649 1.804-26.37 46.623-28.5 55.5-3.43 1.71-1.155-3.784-1-5.5 2.44-26.975 21.911-59.813 42-77.5-46.446-61.105-118.795-107.073-195.5-117.5 2.33 68.164-80.341 65.126-82.5 1.5-1.629-3.682-31.607 4.155-36.5 5.5-39.493 10.859-75.659 30.831-107.5 56m495 25c-12.36 23.938-40.662 44.111-64 56.5-.411 1.209 7.89 11.553 9 13.5 3.197 5.61 5.644 11.743 9.5 17 2.281.226 29.054-28.512 30.5-34l13-15.5c-5.899 8.717-10.625 18.625-17 27-4.057 5.33-24.654 24.23-25 26-.349 1.786 3.116 8.31 4.5 8.5 3.095.426 30.253-32.462 33.5-37.5 16.378-25.409 25.846-58.345 13.5-87.5-.848 9.053-3.309 17.884-7.5 26m-566 70c2.227-4.341 5.441-8.337 8-12.5-28.145-16.244-57.466-36.676-69-68.5-1.212-3.345-.694-7.812-2.5-11-12.156 31.227 1.033 67.247 20.5 92.5 2.593 3.363 25.56 27.363 27.5 27.5 1.84.13 5.553-7.038 5.5-7.5-.204-1.792-21.705-19.568-26-25-5.824-7.367-12.054-17.7-15.5-26.5 12.171 17.552 25.416 36.314 43.5 47.5 2.402-5.619 5.218-11.079 8-16.5m520-37c-4.704 2.255-26.53 6.977-26 14.5.076 1.08 3.788 5.566 5.5 5.5 1.367-.053 21.593-12.107 23.5-14l36-33.5c-11.385 13.463-23.475 20.058-39 27.5m-540 2c3.473 2.54 27.708 19.17 29.5 19 6.599-.625 2.333-15.075-4-17-1.5-.456 1.429 2.989-5.5 0-17.135-7.391-35.021-14.378-47.5-29 5.153 11.78 17.455 19.653 27.5 27m529 159c.122 13.826 8.581 62.254 18 71.5 3.998 3.925 15.613-5.436 21-5.5 6.77 12.609 20.467 28.951 30 8.5-11.286-.542-16.086-4.066-22-13.5-2.486-3.966-8.778-19.378-10-24-4.932-18.651-6.893-51.38-2-70 1.74-6.621 6.046-15.107 13-17.5.082-2.103-12.295-2.32-14-2.5-43.835-4.618-31.422 19.756-34 53m-1.5-44c-.983.321-5.948 10.848-6.5 12.5-8.804 26.355-1.781 75.34 11 100 1.63 3.146 14.373 23.159 18.5 20.5-13.271-30.755-23.094-62.478-24.5-96.5-.409-9.9-.735-26.834 4-35 .365-1.699-1.36-1.872-2.5-1.5M184 564c-.141 10.194.805 21.043 3 31-.764 4.961 1.871 10.329 3 15 3.359 13.903 10.763 37.796 29 34 1.401-.292 3.653-1.149 4-2.5.356-1.387-5.526-23.701-6-28-.669-6.066-.587-12.419-1-18.5-.955-14.073-1.683-28.378-1-42.5.523-10.824 7.728-43.878 7-50-.19-1.598.212-2.389-1.5-3.5-.806-.106-1.728.159-2.5 0-28.938-5.976-33.738 46.012-34 65m624.5-63c-14.775 4.871-7.409 94.308 14 103 22.328 9.065 16.455-44.441 14.5-55.5-1.793-10.14-13.419-52.471-28.5-47.5M173 577c.985 13.208 5.588 29.919 14.5 40 2.394-1.497 1.053-2.51 1-4-.363-10.297-5.814-24.373-6.5-37-.877-16.152 1.644-31.1 2.5-47-11.199 12.386-12.698 31.929-11.5 48"/><path fill="#2dc8e4" d="M533 155c-.12.103-1.982.135-3 1 26.11-31.316-12.146-11.097-17-2.5-2.498 4.424-5.214 21.834 3 15l-7 10.5c-.207-8.029 1.021-16.598 1-25 2.233-5.109 26.645-16.902 27-18.5.241-1.087-5.591-16.292-7.5-16.5-9.39 7.73-15.57 18.62-19.5 30 .006-2.656-.032-5.345 0-8l19-24.5-4.5-7.5-14.5 22c.193-13.431-.854-27.084 1-40.5 1.87-2.02 32.233 37.009 27.5 38.5-.593.187-2.158-7.069-4.5-6.5 5.598 13.587 12.569 20.93-1 32.5"/><path fill="#48d1e7" d="m509 96-11 11.5 9 10.5c0 .911.995 3.512 1 6l-11.5-15c-4.162 7.956-18.908 23.844-4.5 28.5-6.905-4.509-9.929.75-10.5.5-1.927-.843 2.865-5.142-2.5-6 5.443-16.818 17.188-27.75 28.5-41 2.378-.113 1.505 3.502 1.5 5"/><path fill="#11b5d9" d="M509 96c-.024 6.73-2.001 15.281-2 22l-9-10.5z"/><path fill="#089bc2" d="M508 124c.011 5.652.053 11.348 0 17l-12-19.5-4-1c8.556 7.421 12.058 18.358 16 28.5-.02 1.99.03 4.01 0 6-4.823-4.315-6.336-14.139-14-15.5 2.834 3.085 6.957 6.341 9 10 1.993 3.571 1.948 10.159 5 12.5-.137 7.639-1.786 15.09-2 22.5-.147 5.112 2.554 34.8 1 37-.437.618-14.385 2.837-15 2 10.946-21.471 8.205-38.528-3-59-8.478-15.488-17.157-10.388-10-32.5 5.365.858.573 5.157 2.5 6 .571.25 3.595-5.009 10.5-.5-14.408-4.656.338-20.544 4.5-28.5zm-21 30c5.781 5.215 12.146 4.266 17.5 10l-4-5c-3.404-1.645-6.929-2.823-10.5-4l-9.5-14c-2.995.628 5.404 12.011 6.5 13"/><path fill="#0da9cf" d="M510 141c.04-3.321-.048-6.679 0-10l14.5-22 4.5 7.5z"/><path fill="#4bd4e6" d="M508 141c-.025 2.656.027 5.344 0 8-3.942-10.142-7.444-21.079-16-28.5l4 1z"/><path fill="#0aa1c9" d="M510 154c-.004-1.658-.004-3.342 0-5 3.93-11.38 10.11-22.27 19.5-30 1.909.208 7.741 15.413 7.5 16.5-.355 1.598-24.767 13.391-27 18.5"/><path fill="#3ccee8" d="M552 168c-.621-1.621-1.348-3.31-2-5 2.646 2.001 14.132-7.243 15-9.5 1.718-4.466-2.097-1.658-2-3 .127-1.768 10.401-1.671 7.5-5.5-8.206 5.196-18.493 7.907-25.5 15-2.311.046-2.87.711-3-2 3.79-3.796 29.236-19.406 32.5-18 1.708.736-.616 2.446-.5 2.5 7.111 3.315 1.705-.797 4.5-3.5 2.379-2.301 18.202-7.281 22.5-7.5-20.319 6.49-32.466 25.071-44.5 41.5z"/><path fill="#0682a5" d="M602 133c1.2 3.255.084 7.341 0 11-4.617 1.768-.286 15.535-2.5 17-1.126.745-22.915-3.279-27 0-3.865-1.711 14.167-15.037 13.5-18 3.688-2.937 11.567-9.234 16-10"/><path fill="#092b45" d="M605 133c.03 28.934 9.06 63.158-18.5 80-14.063 8.594-44.202 7.559-33.5 30-.213-.009-3.454 2.49-4 1.5.071-3.163-.101-6.35 0-9.5.054-1.683-.311-4.076 0-5.5 3.199-14.654 39.647-12.632 50-33.5 7.09-14.291 2.632-35.971 3-52 .084-3.659 1.2-7.745 0-11 .947-.164 2.029.097 3 0"/><path fill="#0ebce0" d="M439 146c4.588 2.311 2.505-2.58 5.5-3 1.674-.235 18.225 8.203 20.5 10-1.802 3.535 5.926 7.943 6 8.5.291 2.189-2.893 4.252-3 4.5l-7.5 11c-9.717-17.996-23.89-33.367-42.5-42.5 9.071-.697 13.949 7.949 21 11.5"/><path fill="#29b5d0" d="M434 148c7.358 4.153 13.394 12.153 18 19l-16.5-3c-.508.274 2.105 5.103 2.5 6-1.4-6.996-17.813-9.729-20-5.5-.914 1.768-1.11 24.015 0 26 28.936-6.227 42.276-1.501 50 28-10.54-26.901-21.91-34.978-51-24.5-1.176-4.459-2.028-52.593-1-55.5l2-1.5 1.5 25 12-1-1-7c2.717 10.201 6.615 7.111 15 10 3.386-1.526-10.098-14.666-11.5-16"/><path fill="#067da1" d="M434 148c1.402 1.334 14.886 14.474 11.5 16-8.385-2.889-12.283.201-15-10l1 7-12 1-1.5-25c6.719 1.618 11.338 6.566 16 11"/><path fill="#0998bf" d="M530 156c-3.776 3.206-8.9 5.336-12 9.5 4.765-1.024 9.049-5.961 12-9.5 1.018-.865 2.88-.897 3-1-9.638 23.976-20.853 46.062-4 70-2.423-.626-16.385-1.841-17-2.5-1.487-1.594-2.864-38.235-3-43.5l7-10.5c-8.214 6.834-5.498-10.576-3-15 4.854-8.597 43.11-28.816 17 2.5"/><path fill="#7ce7f3" d="m439 146-5.5-7c4.419 1.097 12.038 2.612 5.5 7"/><path fill="#48d1e7" d="M508 155c-.036 2.322.042 4.678 0 7-3.052-2.341-3.007-8.929-5-12.5-2.043-3.659-6.166-6.915-9-10 7.664 1.361 9.177 11.185 14 15.5"/><path fill="#0b5273" d="M490 155c-.891-.294-1.895-.102-3-1-1.096-.989-9.495-12.372-6.5-13z"/><path fill="#28bdd8" d="M602 144c-.368 16.029 4.09 37.709-3 52-.627-6.114-23.742-8.744-27.5-8-5.85 1.158-18.161 23.842-22 29-.786.11-.387-1.918-.5-2l17-27.5c1.369-1.01 3.399-.318 5-.5 10.666-1.214 18.53 1.995 29 3.5l1-27c-.545-1.234-10.493-2.505-12-2.5-2.205.007-3.677.798-6 1l-17 .5c6.978-6.159 12.697-13.684 20-19.5.667 2.963-17.365 16.289-13.5 18 4.085-3.279 25.874.745 27 0 2.214-1.465-2.117-15.232 2.5-17"/><path fill="#77e7f5" d="M550 163c-.311-.235-4.135-8.335-2-.5.237.869 1.958.39 2 .5.652 1.69 1.379 3.379 2 5 .698 1.821 1.713 4.112 2 6l-8.5-10c-5.952 6.323-8.867 14.045-11.5 22-.273.824-1.282 3.563-3 3 .506-7.493 8.603-23.537 14-29 7.007-7.093 17.294-9.804 25.5-15 2.901 3.829-7.373 3.732-7.5 5.5-.097 1.342 3.718-1.466 2 3-.868 2.257-12.354 11.501-15 9.5"/><path fill="#7be6f5" d="m484 183-7.5-9c-5.621-2.258-6.597.468-6-6l-7.5 12c-.027-.1-1.861.342-2-.5-.123-.75 5.85-10.841 7-13.5.107-.248 3.291-2.311 3-4.5-.074-.557-7.802-4.965-6-8.5 7.981 6.304 16.214 20.485 19 30"/><path fill="#25bfd8" d="M490 155c3.571 1.177 7.096 2.355 10.5 4l4 5c-5.354-5.734-11.719-4.785-17.5-10 1.105.898 2.109.706 3 1"/><path fill="#41d1e6" d="M530 156c-2.951 3.539-7.235 8.476-12 9.5 3.1-4.164 8.224-6.294 12-9.5"/><path fill="#3ccee8" d="M550 163c-.042-.11-1.763.369-2-.5-2.135-7.835 1.689.265 2 .5"/><path fill="#0b93b9" d="M589 161c-1.037 10.433-13.545 16.725-18 26-1.601.182-3.631-.51-5 .5L549 215c-1.596-1.16-1.765-1.845-3-3 .876-5.168 11.321-36.742 14-40.5 5.52-7.742 13.428-8.669 23-9.5 2.323-.202 3.795-.993 6-1"/><path fill="#0686ab" d="M571 187c4.455-9.275 16.963-15.567 18-26 1.507-.005 11.455 1.266 12 2.5l-1 27c-10.47-1.505-18.334-4.714-29-3.5"/><path fill="#0984a9" d="M438 170c1.723 3.917 2.884 4.275 5 7 2.471 3.182 4.011 7.838 9 8 4.232 2.89 4.964 4.069 11 4 5.92 15.573 10.64 32.084 8.5 49-6.119-25.459-47.586-17.777-54.5-44 29.09-10.478 40.46-2.401 51 24.5-7.724-29.501-21.064-34.227-50-28-1.11-1.985-.914-24.232 0-26 2.187-4.229 18.6-1.496 20 5.5"/><path fill="#098bb2" d="M452 167c4.729 7.029 7.996 14.097 11 22-6.036.069-6.768-1.11-11-4-3.06-2.09-5.788-5.996-9-8-2.116-2.725-3.277-3.083-5-7-.395-.897-3.008-5.726-2.5-6z"/><path fill="#1bb6db" d="M554 174c1.133 7.452-4.883 12.459-7 20-6.342 3.75-7.474-7.483-13-8 2.633-7.955 5.548-15.677 11.5-22z"/><path fill="#15a8ce" d="M484 183c5.337 18.23-.069 33.234-8.5 50 2.03-19.774-7.908-35.877-12.5-53l7.5-12c-.597 6.468.379 3.742 6 6z"/><path fill="#29b5d0" d="M452 185c-4.989-.162-6.529-4.818-9-8 3.212 2.004 5.94 5.91 9 8"/><path fill="#0a9abd" d="M547 194c-3.239 11.537-5.065 23.013-5.5 35-4.152-.283-10.862-34.64-10.5-40 1.718.563 2.727-2.176 3-3 5.526.517 6.658 11.75 13 8"/><path fill="#0883a9" d="M599 196c-10.353 20.868-46.801 18.846-50 33.5-.311 1.424.054 3.817 0 5.5-6.688-1.963-3.971-17.275-3-23 1.235 1.155 1.404 1.84 3 3 .113.082-.286 2.11.5 2 3.839-5.158 16.15-27.842 22-29 3.758-.744 26.873 1.886 27.5 8"/><path fill="#086d89" d="M529 225c1.692.437 10.688 3.434 11 4.5.091.313-3.188 5.405-3.5 5.5-1.514.463-25.118-10.247-30.5-7.5 8.888-1.038 14.439-2.812 23.5-.5z"/><path fill="#d4e8ea" d="M512 236c1.295 8.685-9.047-.357-11 5-14.868 3.106-23.687 17.259-20.5 32 1.18-7.903 1.831-15.913 7.5-22l-5 14.5c1.179 4.643.875 7.941 3 12.5 9.003 19.316 49.876 14.252 43-17-.778-3.536-3.181-6.259-3.5-10l2.5-1c10.033 15.744 3.419 39.958-16 43-4.783.749-11.966.033-16.5-2-7.195-3.227-17.439-25.069-15.5-3-12.139-17.429-9.399-42.654 12-48.5-1.593.964-2.776 2.404-4 3.5-.942.844-6.931 2.497-5.5 6l5.5-6c8.006-2.938 15.216-6.699 24-7"/><path fill="#3a9caf" d="M526 246c1.316 1.319 1.559 3.309 2 4l-2.5 1c.319 3.741 2.722 6.464 3.5 10h-2c-.509-5.159-1.603-4.109-4-7-7.199-8.681-11.116-7.158-21.5-7l1 2c-4.074-1.127-4.416 1.327-6.5 2.5-1.563.88-.863-1.87-1.5-1.5-10.281 5.969-11.457 22.603-1.5 30-2.971 4.626-4.944-.901-6.5-4l-.5 2c-2.125-4.559-1.821-7.857-3-12.5l5-14.5 13-10c1.953-5.357 12.295 3.685 11-5 .332-.011.667-.001 1 0-.066 5.973 7.961 4.951 13 10"/><path fill="#c7dee2" d="M533 243c-2.21.761-6.809-1.106-7 3-5.039-5.049-13.066-4.027-13-10 9.621.033 12.791 1.586 20 7"/><path fill="#1f6780" d="m501 241-13 10c-5.669 6.087-6.32 14.097-7.5 22-3.187-14.741 5.632-28.894 20.5-32"/><path fill="#0f4862" d="m488 243-5.5 6c-1.431-3.503 4.558-5.156 5.5-6"/><path fill="#64939a" d="M533 243c27.466 20.626 6.439 59.296-24 60l3-10c19.419-3.042 26.033-27.256 16-43-.441-.691-.684-2.681-2-4 .191-4.106 4.79-2.239 7-3"/><path fill="#64dffa" d="M523 254c-12.234 4.052-21.961 16.36-28 27-.533-.28-1.585-.692-2-1-9.957-7.397-8.781-24.031 1.5-30 .637-.37-.063 2.38 1.5 1.5 2.084-1.173 2.426-3.627 6.5-2.5l-1-2c10.384-.158 14.301-1.681 21.5 7"/><path fill="#20c2eb" d="M523 254c2.397 2.891 3.491 1.841 4 7 1.729 17.527-16.473 28.166-32 20 6.039-10.64 15.766-22.948 28-27"/><path fill="url(#a)" d="M704 453c-44.469-61.366-111.021-107.306-188.5-112-85.941-5.207-158.552 29.676-212.5 95-1.799-18.258-19.104-46.535-33-58.5 8.698-11.834 17.801-22.91 28-33.5-.053 1.526 1.299.782 2 1-4.431 4.736-7.824 8.659-10 15-1.543 4.496-2.794 8.103-2 13 .22 1.358.973.935 1 1 .039.99-.065 2.013 0 3 .155 2.341.902 1.83 1 2 9.767 33.77 58.267 20.664 55-13 4.775-5.944-5.24-18.592-9.5-23-2.141-2.215-9.984-1.504-6-8 1.067-1.74 30.658-18.589 35-21 17.404-9.663 41.142-20.944 60-27 3.689-1.185 38.773-8.18 38.5-10.5-32.827 2.618-65.418 11.201-95.5 24.5-12.733 5.629-24.528 13.893-37 20-.292.143-7.315 3.344-6.5 0 31.841-25.169 68.007-45.141 107.5-56 4.893-1.345 34.871-9.182 36.5-5.5 2.159 63.626 84.83 66.664 82.5-1.5 76.705 10.427 149.054 56.395 195.5 117.5-20.089 17.687-39.56 50.525-42 77.5m-29.5-114c-29.488 4.292-29.961 50.149-1 57 45.377 10.734 50.406-64.191 1-57" style="fill:url(#a)"/>/&gt;<path fill="#0f6886" d="M529 261c6.876 31.252-33.997 36.316-43 17l.5-2c1.556 3.099 3.529 8.626 6.5 4 .415.308 1.467.72 2 1 15.527 8.166 33.729-2.473 32-20z"/><path fill="#fcfdfd" d="M345 366c-2.195-22.612-25.613-33.807-44-21-.288.012-.744.08-1 0-.701-.218-2.053.526-2-1 9.205-9.558 15.71-14.866 26-23-.815 3.344 6.208.143 6.5 0 12.472-6.107 24.267-14.371 37-20 30.082-13.299 62.673-21.882 95.5-24.5.273 2.32-34.811 9.315-38.5 10.5-18.858 6.056-42.596 17.337-60 27-4.342 2.411-33.933 19.26-35 21-3.984 6.496 3.859 5.785 6 8 4.26 4.408 14.275 17.056 9.5 23"/><path fill="#a3c1c7" d="m512 293-3 10c-11.778.272-22.399-5.523-29-15-1.939-22.069 8.305-.227 15.5 3 4.534 2.033 11.717 2.749 16.5 2"/><path fill="#14aace" d="m804 399-11-8c5.403-5.581 31.892-38.057 30.5-44l-4.5-1c4.191-8.116 6.652-16.947 7.5-26 12.346 29.155 2.878 62.091-13.5 87.5-3.247 5.038-30.405 37.926-33.5 37.5-1.384-.19-4.849-6.714-4.5-8.5.346-1.77 20.943-20.67 25-26 6.375-8.375 11.101-18.283 17-27z"/><path fill="#10a1c7" d="M192 335c2.431 34.708 36.821 59.543 61 81-2.782 5.421-5.598 10.881-8 16.5-18.084-11.186-31.329-29.948-43.5-47.5 3.446 8.8 9.676 19.133 15.5 26.5 4.295 5.432 25.796 23.208 26 25 .053.462-3.66 7.63-5.5 7.5-1.94-.137-24.907-24.137-27.5-27.5-19.467-25.253-32.656-61.273-20.5-92.5 1.806 3.188 1.288 7.655 2.5 11"/><path fill="#2dc2e3" d="M253 416c-24.179-21.457-58.569-46.292-61-81 11.534 31.824 40.855 52.256 69 68.5-2.559 4.163-5.773 8.159-8 12.5"/><path fill="#0c3856" d="M674.5 339c49.406-7.191 44.377 67.734-1 57-28.961-6.851-28.488-52.708 1-57m31.5 34c3.405-21.288-9.452-35.118-31-32-30.793 4.456-27.88 58.749 10.5 53 9.432-1.413 19.011-11.692 20.5-21"/><path fill="#14546d" d="M345 366c3.267 33.664-45.233 46.77-55 13 26.397 45.607 72.788-12.566 38.5-34-14.199-8.876-16.97-.428-27.5 0 18.387-12.807 41.805-1.612 44 21"/><path fill="#c5e0e2" d="M290 379c-.098-.17-.845.341-1-2 2.713-.788.189-2.542 0-3-.027-.065-.78.358-1-1l2-13c2.176-6.341 5.569-10.264 10-15 .256.08.712.012 1 0 10.53-.428 13.301-8.876 27.5 0 34.288 21.434-12.103 79.607-38.5 34m18.5-31c-3.707.817-10.372 7.847-11.5 11.5-9.259 29.99 31.898 36.147 39 13 5.615-18.302-10.849-28.167-27.5-24.5"/><path fill="url(#b)" d="M704 453c-.155 1.716-2.43 7.21 1 5.5 2.13-8.877 21.851-53.696 28.5-55.5 3.233-.783 2.366 1.912 2.5 2-3.613 17.195-24.11 47.251-25 63.5-.342 6.245 14.191 35.613 17 46 29.453 108.889-12.71 226.602-112.5 281.5C417.036 905.18 193.25 718.625 271 501.5c5.331-14.886 13.558-28.728 19-43.5 3.281-5.651 9.187-11.905 12-17 1.246-2.258 1.634 1.433 1-5 53.948-65.324 126.559-100.207 212.5-95 77.479 4.694 144.031 50.634 188.5 112m-339-44c-83.16 49.033-105.272 182.654-67 266 9.038 19.682 20.981 36.615 35 53 24.156 28.233 55.412 51.949 91 64-4.287.001 1.061 2.837 1.5 3 222.341 82.717 400.096-210.128 216-377-3.486-3.16-9.878-9.039-14.5-10-77.82-60.232-184.827-60.179-262 1" style="fill:url(#b)"/>/&gt;<path fill="#359aad" d="M675 341c7.147 1.26 7.963.876 13.5 4 .557.314.177-2.719 1.5-1.5.593.546 7.38 12.566 8 14 2.126 4.914-.336 17.555 8 15.5-1.489 9.308-11.068 19.587-20.5 21-38.38 5.749-41.293-48.544-10.5-53m-12 32-4 .5c6.262 10.981 7.906 4.435 9 4.5 1.695.101 6.163 2.044 6.5 2 14.313-1.856 25.745-13.757 15.5-27-4.434-5.732-8.254-7.056-15.5-6-.967.141-.016 2.723-1 3-.514.145-.414-3.15-5 0-7.576 5.204-9.9 14.724-5.5 23"/><path fill="#7ca7ab" d="M706 373c-8.336 2.055-5.874-10.586-8-15.5-.62-1.434-7.407-13.454-8-14-1.323-1.219-.943 1.814-1.5 1.5-5.537-3.124-6.353-2.74-13.5-4 21.548-3.118 34.405 10.712 31 32"/><path fill="#2bc1e2" d="M793 391c-8.275 8.548-20.279 16.589-29 25-1.11-1.947-9.411-12.291-9-13.5 23.338-12.389 51.64-32.562 64-56.5l4.5 1c1.392 5.943-25.097 38.419-30.5 44"/><path fill="#64def8" d="M690 353c-9.279 7.547-12.559 16.946-23 23-.54-.552-3.88-2.773-4-3-4.4-8.276-2.076-17.796 5.5-23 4.586-3.15 4.486.145 5 0 .984-.277.033-2.859 1-3 7.246-1.056 11.066.268 15.5 6"/><path fill="#227893" d="M308.5 348c16.651-3.667 33.115 6.198 27.5 24.5-7.102 23.147-48.259 16.99-39-13 1.128-3.653 7.793-10.683 11.5-11.5m-8.5 9c-3.936 7.805-2.282 12.577 1 19 1.467 2.872 1.058 2.923 4 5 15.234 10.754 28.715-.276 30-16.5-1.51-1.346-2.31.791-3 1.5-.019-7.125-3.08-10.751-9-14-.062-.034.363-.448-1-1-7.632-3.088-17.968-1.997-22 6"/><path fill="#a5f1fb" d="M322 351c-10.704-3.294-29.347 27.033-16 4.5l-6 1.5c4.032-7.997 14.368-9.088 22-6"/><path fill="#69e2fb" d="m323 352-22 24c-3.282-6.423-4.936-11.195-1-19l6-1.5c-13.347 22.533 5.296-7.794 16-4.5 1.363.552.938.966 1 1"/><path fill="#59d7e6" d="M776 385c.602-.598 1.15-4.82 4-4.5l-7-1.5c15.525-7.442 27.615-14.037 39-27.5z"/><path fill="#1ec5ef" d="M332 366c-8.44 8.677-11.28 16.256-27 15-2.942-2.077-2.533-2.128-4-5l22-24c5.92 3.249 8.981 6.875 9 14"/><path fill="#16bde9" d="M690 353c10.245 13.243-1.187 25.144-15.5 27-.337.044-4.805-1.899-6.5-2-.108-.456-.864-1.861-1-2 10.441-6.054 13.721-15.453 23-23"/><path fill="#57dcef" d="M253 383c-5.145 7.267-13.263-3.055-20-2-10.045-7.347-22.347-15.22-27.5-27 12.479 14.622 30.365 21.609 47.5 29"/><path fill="#6d91a0" d="M288 373c-.794-4.897.457-8.504 2-13z"/><path fill="#075a76" d="M627 408c18.837 14.579 35.318 31.646 49 51-3.918.037 1.217 2.388 0 5.5-.129.329-4.916 2.492-5 5-.07 2.078 16.494 30.056 19 37C759.577 699.298 545.145 872.646 374.5 752c-5.605-3.963-27.063-25.8-29-26-4.116-.426-4.585 10.166-12.5 2-14.019-16.385-25.962-33.318-35-53l8 4.5c-38.055-92.033-21.491-182.98 50.5-251.5 7.161-6.815 22.964-12.306 15-23-1.345 2.805-4.523 2.834-6.5 4 77.173-61.179 184.18-61.232 262-1m20 307c6.163-7.054 12.303-14.042 18-21.5-6.048-2.067-12.898-.235-18-4.5 31.482-50.994 45.789-106.673 28-166-1.007-3.359-2.745-6.704-4-10-16.339-42.928-49.276-67.325-88-89 8.895-14.498 1.967-12.256-8-17-125.629-59.793-276.653 43.265-275 179.5 2.243 184.802 228.202 264.482 347 128.5"/><path fill="#0892bb" d="M305 381c15.72 1.256 18.56-6.323 27-15 .69-.709 1.49-2.846 3-1.5-1.285 16.224-14.766 27.254-30 16.5"/><path fill="#0b7498" d="M663 373c.12.227 3.46 2.448 4 3 .136.139.892 1.544 1 2-1.094-.065-2.738 6.481-9-4.5z"/><path fill="#49788c" d="M289 377c-.065-.987.039-2.01 0-3 .189.458 2.713 2.212 0 3"/><path fill="#0b95b8" d="M776 385c-1.907 1.893-22.133 13.947-23.5 14-1.712.066-5.424-4.42-5.5-5.5-.53-7.523 21.296-12.245 26-14.5l7 1.5c-2.85-.32-3.398 3.902-4 4.5"/><path fill="#0da2c8" d="M253 383c6.929 2.989 4-.456 5.5 0 6.333 1.925 10.599 16.375 4 17-1.792.17-26.027-16.46-29.5-19 6.737-1.055 14.855 9.267 20 2"/><path fill="#26a4c2" d="M575 407c-8.304 15.606-1.74 11.548 8 17 38.724 21.675 71.661 46.072 88 89-4.121-.062-1.024 11.518 4 10 17.789 59.327 3.482 115.006-28 166-1.574 2.549-9.203 9.984-9 12.5.173 2.152 9.982 9.142 9 13.5-118.798 135.982-344.757 56.302-347-128.5-1.653-136.235 149.371-239.293 275-179.5m-93 0c-84.51 8.183-123.788 62.248-151 135-1.264 3.381-3.373 5.521-4 7-3.451 8.14-12.076 17-1 26-.011 1.656-.026 3.344 0 5 .547 34.583 7.101 66.951 26.5 96 4.014-.148-8.497-24.376-9.5-27.5-6.379-19.871-10.2-40.469-9-61.5 17.456 6.493 39.086-11.293 37-30.5-.591-5.444-6.639-12.78-7-15-.23-1.416.776-25.083 1-28.5.197-3.009 1.986-2.82 2-3 3.58 3.25 5.461 8.115 9.5 11 2.668 1.905 12.256 4.862 12.5 5.5.534 1.395-3.156 19.385 0 29.5-1.116.114-1.64 1.051-2 2-14.096 37.153-14.024 72.582 5 108 12.374 23.038 30.708 39.548 54 51 140.286 68.976 271.149-123.041 135-218-35.041-24.44-86.562-33.63-123-8-6.419-2.065-16.732-3.397-23.5-3-2.962.174-14.687 4.392-16 4-1.176-.351-13.105-19.338-13.5-20.5-1.956-5.762 2.336-13.797-8-18.5 25.052-19.297 54.62-31.698 86-37 4.964-.839 10.58-2.618 15.5-3 7.523-.583 41.243 3.243 43 2 7.993-5.656-21.955-8.761-25-9-11.261-.882-23.274-.087-34.5 1"/><path fill="#0b92b7" d="M804 399c-1.446 5.488-28.219 34.226-30.5 34-3.856-5.257-6.303-11.39-9.5-17 8.721-8.411 20.725-16.452 29-25z"/><path fill="#d0e2e6" d="M302 441c-2.813 5.095-8.719 11.349-12 17-44.479 76.595-51.714 157.609-14 239l-11 4c-33.821-66.011-29.746-158.316-3-226.5 2.295-5.851 17.855-33.037 18-35 .325-4.399-10.851-15.999-11-17-.092-.62 4.35-10.309 5-11.5 1.914-3.511 3.387-7.257 6.5-10 3.054-.193 23.096 33.277 21.5 40"/><path fill="#287384" d="M298 675c-38.272-83.346-16.16-216.967 67-266 1.977-1.166 5.155-1.195 6.5-4 7.964 10.694-7.839 16.185-15 23-71.991 68.52-88.555 159.467-50.5 251.5z"/><path fill="#3c7381" d="M390 823c-52.367-28.736-89.045-72.145-114-126-37.714-81.391-30.479-162.405 14-239-5.442 14.772-13.669 28.614-19 43.5C193.25 718.625 417.036 905.18 615.5 796c99.79-54.898 141.953-172.611 112.5-281.5-2.809-10.387-17.342-39.755-17-46 .89-16.249 21.387-46.305 25-63.5 8.384 5.542 39.597 62.927 40 72.5.27 6.414-7.984 5.261-12.5 8.5-29.986 21.504-12.523 129.997 11 150 2.297 1.953 9.202 1.52 8.5 5.5-24.927 81.602-81.533 157.327-162.5 189.5-69.346 27.555-164.275 28.34-230.5-8"/><path fill="#78daec" d="m483 416-1-9c11.226-1.087 23.239-1.882 34.5-1 3.045.239 32.993 3.344 25 9-1.757 1.243-35.477-2.583-43-2-4.92.382-10.536 2.161-15.5 3"/><path fill="#b2f5fc" d="m482 407 1 9c-31.38 5.302-60.948 17.703-86 37-6.377 4.912-10.349 8.212-16 14-18.555 19.006-34.449 42.174-39 69-3.647 1.781-6.986 4.841-11 6 27.212-72.752 66.49-126.817 151-135"/><path fill="#036989" d="M583 424c-9.74-5.452-16.304-1.394-8-17 9.967 4.744 16.895 2.502 8 17"/><path fill="#d2e9ed" d="M424 792c197.849 66.996 370.673-165.127 252-333-13.682-19.354-30.163-36.421-49-51 4.622.961 11.014 6.84 14.5 10 184.096 166.872 6.341 459.717-216 377-.439-.163-5.787-2.999-1.5-3"/><path fill="#fbfdfd" d="M265 701c11.739 22.912 37.315 59.05 54 76-103.26-87.295-117.57-254.99-45-366-.65 1.191-5.092 10.88-5 11.5.149 1.001 11.325 12.601 11 17-.145 1.963-15.705 29.149-18 35-26.746 68.184-30.821 160.489 3 226.5"/><path fill="#082a45" d="M783 452c7.276 6.453 8.268 24.349 16.5 28 11.889 5.273 14.698 1.024 25.5 14.5 23.292 29.058 38.572 119.494.5 140.5-6.977 3.85-23.856 5.97-27.5 10.5-2.936 3.65-9.799 28.122-13 35-34.714 74.603-94.904 139.338-173 168.5-19.536 7.295-38.423 12.287-59 16-31.068-.181-53.428 4.032-86-1-18.175-2.808-38.789-11.914-55-14-4.439-2.396-9.326-4.112-14-6 2.011-4.332 13.577 4.301 15.5 5 142.52 51.843 296.092-16.333 367.5-165.5 4.035-8.428 11.606-35.033 16-40 9.141-10.334 31.377-3.136 42-26 16.293-35.066 4.595-117.872-33.5-135.5-3.993-1.848-8.167 1.913-13.5-5.5-2.412-3.353-3.313-12.333-4-14-.482-1.17-6.681-8.064-7-10-.128-.777 1.987-.398 2-.5"/><path fill="#fefefe" d="M397 453c10.336 4.703 6.044 12.738 8 18.5.395 1.162 12.324 20.149 13.5 20.5 1.313.392 13.038-3.826 16-4 6.768-.397 17.081.935 23.5 3 .213.068 2.935 1.516 4 2 7.562 3.436 15.805 10.686 20 18 .683 1.191 1.39 3.571 2 5 .858 2.011 1.401 3.91 2 6 1.302 4.543 1.595 6.257 2 11 .136 1.587 1.075 3.141 1 6-.808 30.937-30.306 51.676-60 48-1.526-.189-4.557-.628-6-1-1.652-.426-5.733-1.476-7-2-9.528-3.943-23.884-18.016-27-28-3.156-10.115.534-28.105 0-29.5-.244-.638-9.832-3.595-12.5-5.5-4.039-2.885-5.92-7.75-9.5-11 .401-5.316-1.975-10.329 0-17.5 2.048-7.436 12.381-17.043 14-25.5 5.651-5.788 9.623-9.088 16-14"/><path fill="#0b3351" d="M676 459c118.673 167.873-54.151 399.996-252 333-35.588-12.051-66.844-35.767-91-64 7.915 8.166 8.384-2.426 12.5-2 1.937.2 23.395 22.037 29 26C545.145 872.646 759.577 699.298 690 506.5c-2.506-6.944-19.07-34.922-19-37 .084-2.508 4.871-4.671 5-5 1.217-3.112-3.918-5.463 0-5.5"/><path fill="#7ce5f3" d="M367 510c-.014.18-1.803-.009-2 3-15.792-6.796-15.329 20.163-17 22.5-.914 1.278-4.866-.054-6 .5 4.551-26.826 20.445-49.994 39-69-1.619 8.457-11.952 18.064-14 25.5-1.975 7.171.401 12.184 0 17.5"/><path fill="#71edf7" d="M581 499v5c-33.114-24.338-79.119-34.994-116-13-1.019.381-2.683-.099-3 2-1.065-.484-3.787-1.932-4-2 36.438-25.63 87.959-16.44 123 8"/><path fill="#0c3150" d="M581 504c24.478 17.99 45.836 48.61 49 79.5C640.933 690.243 526.987 759.195 436 706c-12.216-11.578-19.33-14.05-31-29 6.705 5.175 12.633 13.14 19.5 18 15.082 10.673 45.702 19.181 61.5 20-3.026-2.696-3.903 1.084-3 2.5.961 1.508 30.282 1.869 34.5 1.5 31.039-2.715 66.713-25.269 84.5-50.5 66.47-94.29-31.702-216.892-137-177.5 36.881-21.994 82.886-11.338 116 13"/><path fill="url(#c)" d="M486 715c7.284.377 12.003-.341 19-2 68.021-13.868 110.825-83.167 89-150.5-15.061-46.466-66.662-71.33-112-51.5-4.195-7.314-12.438-14.564-20-18 .317-2.099 1.981-1.619 3-2 105.298-39.392 203.47 83.21 137 177.5-17.787 25.231-53.461 47.785-84.5 50.5-4.218.369-33.539.008-34.5-1.5-.903-1.416-.026-5.196 3-2.5" style="fill:url(#c)"/>/&gt;<path fill="#eef6f8" d="M796 487c-4.141 3.255-6.358 15.224-9 18-3.791 3.982-13.795 2.526-18.5 5-6.208-4.569 9.529-20.181 3-20-9.642 10.647-7.078 29.074-7.5 42.5-.019.602-2.004 7.097-2 7.5 2.578-33.244-9.835-57.618 34-53"/><path fill="#c4dae0" d="M797 507c-6.923-1.634-.77 8.405-6 9.5l-5 30.5c-.82-14.241 2.261-27.932 1-42 2.642-2.776 4.859-14.745 9-18 1.705.18 14.082.397 14 2.5-6.954 2.393-11.26 10.879-13 17.5"/><path fill="#6c97a2" d="M787 505c1.261 14.068-1.82 27.759-1 42 .626 10.872 3.357 22.449 6 33 2.083 8.313 4.26 16.262 8 24 .32.662.655 1.357 1 2-5.387.064-17.002 9.425-21 5.5-9.419-9.246-17.878-57.674-18-71.5-.004-.403 1.981-6.898 2-7.5.422-13.426-2.142-31.853 7.5-42.5 6.529-.181-9.208 15.431-3 20 4.705-2.474 14.709-1.018 18.5-5"/><path fill="#327786" d="M760.5 496c1.14-.372 2.865-.199 2.5 1.5-4.735 8.166-4.409 25.1-4 35 1.406 34.022 11.229 65.745 24.5 96.5-4.127 2.659-16.87-17.354-18.5-20.5-12.781-24.66-19.804-73.645-11-100 .552-1.652 5.517-12.179 6.5-12.5"/><path fill="#e4eff2" d="M218 499c-3.691 3.419-5.982 1.496-10 6.5-6.239 7.769-10.372 37.883-11 48.5-2.389.562-7.618-2.126-9.5-1-2.437 1.459.363 10.507-3.5 11 .262-18.988 5.062-70.976 34-65"/><path fill="#81abb3" d="M216 595c-15.588-14.963 2.583 20.393-10 22-1.692-4.708-3.809-9.042-5-14-1.191-4.957-2.398-9.919-3-15-1.302-10.993-1.653-22.958-1-34 .628-10.617 4.761-40.731 11-48.5 4.018-5.004 6.309-3.081 10-6.5.772.159 1.694-.106 2.5 0 1.712 1.111 1.31 1.902 1.5 3.5.728 6.122-6.477 39.176-7 50-.683 14.122.045 28.427 1 42.5"/><path fill="#12d7ec" d="M446 717c-1.287-2.722-6.183-3.562-8-5.5-1.377-1.469-1.788-5.299-2-5.5 90.987 53.195 204.933-15.757 194-122.5-3.164-30.89-24.522-61.51-49-79.5v-5c136.149 94.959 5.286 286.976-135 218"/><path fill="url(#d)" d="M808.5 501c15.081-4.971 26.707 37.36 28.5 47.5 1.955 11.059 7.828 64.565-14.5 55.5-21.409-8.692-28.775-98.129-14-103" style="fill:url(#d)"/>/&gt;<path fill="#09c5d7" d="M505 713c4.064-.964 10.845-4.305 15-6 109.087-44.512 91.977-210.753-18.5-197-4.251.529-14.121 2.984-17.5 6-.61-1.429-1.317-3.809-2-5 45.338-19.83 96.939 5.034 112 51.5 21.825 67.333-20.979 136.632-89 150.5"/><path fill="#9dc2c8" d="M797 507c-4.893 18.62-2.932 51.349 2 70 .468 2.642-4.648.717-7 3-2.643-10.551-5.374-22.128-6-33l5-30.5c5.23-1.095-.923-11.134 6-9.5"/><path fill="#0d3856" d="M520 707c3.241-5.98 12.676-7.413 18.5-11 39.832-24.534 55.312-71.652 47.5-115.5-8.751-49.118-52.378-76.383-100-58.5-.599-2.09-1.142-3.989-2-6 3.379-3.016 13.249-5.471 17.5-6 110.477-13.753 127.587 152.488 18.5 197"/><path fill="#feffff" d="M365 513c-.224 3.417-1.23 27.084-1 28.5.361 2.22 6.409 9.556 7 15 2.086 19.207-19.544 36.993-37 30.5-1.553-.578-5.849-6.154-8-7-.026-1.656-.011-3.344 0-5 .057-8.74.64-17.344 1-26 .627-1.479 2.736-3.619 4-7 4.014-1.159 7.353-4.219 11-6 1.134-.554 5.086.778 6-.5 1.671-2.337 1.208-29.296 17-22.5"/><path fill="#036989" d="M671 513c1.255 3.296 2.993 6.641 4 10-5.024 1.518-8.121-10.062-4-10"/><path fill="url(#e)" d="M520 707c-4.155 1.695-10.936 5.036-15 6-6.997 1.659-11.716 2.377-19 2-15.798-.819-46.418-9.327-61.5-20-6.867-4.86-12.795-12.825-19.5-18-3.918-5.02-6.743-8.283-10-14-12.973-22.773-17.599-47.177-15-73.5 1.04-10.529 6.912-21.06 7-31.5.36-.949.884-1.886 2-2 3.116 9.984 17.472 24.057 27 28-2.065 33.165 21.837 69.705 53.5 80 1.382.449 5.732 1.961 6.5 0 91.927 19.944 115.241-121.245 30.5-131-5.781-.665-12.591.486-18.5 0-.405-4.743-.698-6.457-2-11 47.622-17.883 91.249 9.382 100 58.5 7.812 43.848-7.668 90.966-47.5 115.5-5.824 3.587-15.259 5.02-18.5 11" style="fill:url(#e)"/>/&gt;<path fill="#d5e7ec" d="M182 576c-1.666 4.567-1.852-1.082-9 1-1.198-16.071.301-35.614 11.5-48-.856 15.9-3.377 30.848-2.5 47"/><path fill="#19d0da" d="M476 664c-34.051-7.388-58.556-43.357-53-78 1.443.372 4.474.811 6 1-4.017-.465-2.71.8-3 3.5-6.003 55.859 59.818 96.846 104.5 59.5 44.681-37.345 24.834-123.13-41.5-111 .075-2.859-.864-4.413-1-6 5.909.486 12.719-.665 18.5 0 84.741 9.755 61.427 150.944-30.5 131"/><path fill="url(#f)" d="M429 587c29.694 3.676 59.192-17.063 60-48 66.334-12.13 86.181 73.655 41.5 111-44.682 37.346-110.503-3.641-104.5-59.5.29-2.7-1.017-3.965 3-3.5m67.5 1c-13.79 1.739-13.087 27.561 4 25 14.118-2.116 11.9-27.005-4-25" style="fill:url(#f)"/>/&gt;<path fill="#a5ebf4" d="M326 575c-11.076-9-2.451-17.86 1-26-.36 8.656-.943 17.26-1 26"/><path fill="#b3cfd4" d="M197 554c-.653 11.042-.302 23.007 1 34-6.15-.759-10.03.704-11 7-2.195-9.957-3.141-20.806-3-31 3.863-.493 1.063-9.541 3.5-11 1.882-1.126 7.111 1.562 9.5 1"/><path fill="#d8fafd" d="m395 663-3 3c-19.024-35.418-19.096-70.847-5-108-.088 10.44-5.96 20.971-7 31.5-2.599 26.323 2.027 50.727 15 73.5"/><path fill="#4e8b99" d="M182 576c.686 12.627 6.137 26.703 6.5 37 .053 1.49 1.394 2.503-1 4-8.912-10.081-13.515-26.792-14.5-40 7.148-2.082 7.334 3.567 9-1"/><path fill="#578995" d="M809 601c-3.435-4.034-4.525 2.504-9 3-3.74-7.738-5.917-15.687-8-24 2.352-2.283 7.468-.358 7-3 1.222 4.622 7.514 20.034 10 24"/><path fill="#b8f5fe" d="M334 587c-1.2 21.031 2.621 41.629 9 61.5 1.003 3.124 13.514 27.352 9.5 27.5-19.399-29.049-25.953-61.417-26.5-96 2.151.846 6.447 6.422 8 7"/><path fill="#0b435f" d="M423 586c-5.556 34.643 18.949 70.612 53 78-.768 1.961-5.118.449-6.5 0-31.663-10.295-55.565-46.835-53.5-80 1.267.524 5.348 1.574 7 2"/><path fill="#78a4ac" d="M198 588c.602 5.081 1.809 10.043 3 15-4.824 2.546-10.018.918-11 7-1.129-4.671-3.764-10.039-3-15 .97-6.296 4.85-7.759 11-7"/><path fill="#06172f" d="M496.5 588c15.9-2.005 18.118 22.884 4 25-17.087 2.561-17.79-23.261-4-25"/><path fill="#307280" d="M216 595c.413 6.081.331 12.434 1 18.5.474 4.299 6.356 26.613 6 28-.347 1.351-2.599 2.208-4 2.5-6.853-7.802-9.579-17.482-13-27 12.583-1.607-5.588-36.963 10-22"/><path fill="#3d7180" d="M809 601c5.914 9.434 10.714 12.958 22 13.5-9.533 20.451-23.23 4.109-30-8.5-.345-.643-.68-1.338-1-2 4.475-.496 5.565-7.034 9-3"/><path fill="#558791" d="M206 617c3.421 9.518 6.147 19.198 13 27-18.237 3.796-25.641-20.097-29-34 .982-6.082 6.176-4.454 11-7 1.191 4.958 3.308 9.292 5 14"/><path fill="#7cf1fc" d="M405 677c11.67 14.95 18.784 17.422 31 29 .212.201.623 4.031 2 5.5 1.817 1.938 6.713 2.778 8 5.5-23.292-11.452-41.626-27.962-54-51l3-3c3.257 5.717 6.082 8.98 10 14"/><path fill="#036989" d="M647 715c.982-4.358-8.827-11.348-9-13.5-.203-2.516 7.426-9.951 9-12.5 5.102 4.265 11.952 2.433 18 4.5-5.697 7.458-11.837 14.446-18 21.5"/><path fill="#b4ced5" d="M276 697c24.955 53.855 61.633 97.264 114 126-25.6-9.94-51.701-26.394-71-46-16.685-16.95-42.261-53.088-54-76z"/></svg>