<svg xmlns="http://www.w3.org/2000/svg" width="1024" height="1024"><defs><linearGradient id="a" x1="274.101" x2="677.109" y1="322.326" y2="350.618" gradientUnits="userSpaceOnUse"><stop offset="28.465%" style="stop-color:#e0ebf2"/><stop offset="100%" style="stop-color:#a6b8c5"/></linearGradient></defs><defs><linearGradient id="b" x1="658.706" x2="764.868" y1="311.801" y2="373.919" gradientUnits="userSpaceOnUse"><stop offset="0%" style="stop-color:#8699a4"/><stop offset="100%" style="stop-color:#657a84"/></linearGradient></defs><defs><linearGradient id="c" x1="370.497" x2="672.913" y1="358.146" y2="376.942" gradientUnits="userSpaceOnUse"><stop offset="26.403%" style="stop-color:#5dcaeb"/><stop offset="100%" style="stop-color:#246d8c"/></linearGradient></defs><defs><linearGradient id="d" x1="556.835" x2="568.933" y1="452.492" y2="514.319" gradientUnits="userSpaceOnUse"><stop offset="0%" style="stop-color:#255797"/><stop offset="100%" style="stop-color:#2973ae"/></linearGradient></defs><defs><linearGradient id="e" x1="359.145" x2="630.328" y1="401.917" y2="704.069" gradientUnits="userSpaceOnUse"><stop offset="0%" style="stop-color:#80c4d5"/><stop offset="18.719%" style="stop-color:#bde5f0"/><stop offset="88.424%" style="stop-color:#8dc9db"/></linearGradient></defs><defs><linearGradient id="f" x1="495.255" x2="538.046" y1="432.941" y2="588.15" gradientUnits="userSpaceOnUse"><stop offset="0%" style="stop-color:#0c2056"/><stop offset="100%" style="stop-color:#0d6fa0"/></linearGradient></defs><defs><linearGradient id="g" x1="291.79" x2="324.286" y1="548.457" y2="731.596" gradientUnits="userSpaceOnUse"><stop offset="0%" style="stop-color:#ccd6df"/><stop offset="100%" style="stop-color:#a6b6c2"/></linearGradient></defs><defs><linearGradient id="h" x1="860.276" x2="839.971" y1="556.394" y2="587.324" gradientUnits="userSpaceOnUse"><stop offset="0%" style="stop-color:#178fb9"/><stop offset="100%" style="stop-color:#1d7a99"/></linearGradient></defs><path fill="#002330" d="M355 191c-.62-.161-1.528-.647-2-1 .814-15.203-15.272-43.447-24-56-2.035-2.927-1.459-3.917-5-7-.896-.78-.676-4.192-3-2.5-.247 2.403.353 5.178 0 7.5l-2-1c.792-14.795-5.02-22.737-15.5-33-2.492.516.474 6.631.5 7 .732 10.378.942 20.705-1 31-1.222 6.48-5.859 18.573-9 24.5-3.1 5.849-19.621 24.632-19 27.5-.666.672-1.315 1.34-2 2-.159.154-1.254-.589-3 1-.958.872-1.868 1.886-2 2-5.139 4.438-10.367 9.023-15 14-2.126 1.307-4.8 2.816-7 4-25.691 13.823-56.051 24.059-85.5 19 1.65 4.706 23.539 18.417 27.5 19 2.542.374 27.509-2.265 31.5-3 25.005-4.605 45.968-18.76 65.5-34-6.638 7.835-15.41 14.538-24 20-22.089 10.664-45.45 19.726-70.5 18 4.871 5.518 12.848 7.855 19.5 11 16.952 8.014 34.567 15.073 52 22 .306.399.773 1.433 1 2 .443 1.107 1.987 3.307 2 4l-29.5 7c-.527.291.394 4.772.5 5 2.149 4.605 8.785 4.094 13 5 1.058.228 2.061.74 4 1 .17 3.619-1.252.705-2 1-1.449.572-3.52-1.288-3 2.5l18 15.5c1.472 1.786 2.163 5.577 5.5 6 1.36-.201 13.722-19.047 16.5-22 2.922-3.106 4.836-8.001 9-4-34.066 40.416-56.445 81.531-64 134.5-6.428 45.067-5.219 94.399 0 139.5.038.658-.042 1.343 0 2 8.134 128.132 133.798 225.654 256 233 94.966 5.709 169.85-21.566 234-91 56.224-60.856 80.316-156.739 69-239 .675-50.271-10.715-95.831-37-138.5-8.356-13.565-44.076-59.361-57-65.5l-61.5-50c-1.597 2.151-2.044 1.781-4.5 1-7.905-5.949-17.04-9.132-26-13-110.601-47.747-227.491-5.791-304 81l-4-3c8.805-8.754 16.962-18.38 26-27 .34-.324 2.395-1.494 4-3 12.773-11.985 20.999-13.901 28-32l-5 12.5c1.427 4.492 1.905-.461 2-.5 2.937-1.211 28.334-16.914 29-18.5 3.203-7.629-6.548-17.483-11-23.5-.276-.372.663-3.702-1-2.5-3.042 10.58-5.047 22.258-13 30.5.27-.778.922-2.517 1-3 5.121-8.853.074-23.123-4-32l2-2c.413 1.973 6.435 20.086 7.5 20 3.149-6.112 1.58-14.245 7-19 5.86 9.666 13.196 18.14 16 29 76.116-42.23 170.471-40.357 247 0 1.342-13.041 9.948-20.218 16-31 4.533-.311 6.093 15.958 8 19 1.783.079 6.554-20.405 8.5-23 1.786.08.661 2.174 1 3-.066.639.136 1.427 0 2-2.947-.536-2.121 5.428-3 8-4.16 8.292-5.053 13.5-3 22 5.341 22.114 15.467 25.584 30 39 .304.281.62.649 1 1 21.56 19.884 41.931 39.328 58.5 64 4.138-4.736 7.974-9.611 12.5-14 .381-.369 2.132-1.054 4-3 3.557-2.029 3.065-.827 5-5 .465-1.002 4.496-1.342-1-2.5l13-6-.5-4.5c-17.602-2.375-32.703-9.024-47.5-18.5 4.885-.618 15.268 8.258 18.5 8.5 4.213.315 2.799-1.218 5.5-3l66-32.5c-.008-1.856-5.139 1.156-6 1.5l-9.5-2c3.001-7.681 14.189-1.294 19.5-2 2.806-.373 24.431-14.732 23-16.5-16.013-.488-31.713-2.741-47-7.5-2.657-.827-5.392-1.999-8-3-19.155-7.351-34.671-18.636-49-33-2.614.695-15.079 16.699-16 20-.141-.071-2.77-.965-3-1-2.356-.358-1.441-1.097-4 1 .605-1.691 2.012-3.777 2-4 2.912 3.402 19.102-15.701 19.5-17 .404-1.32-.333-1.254-1-2-4.975 4.342-8.244 11.028-13.5 15 1.667-2.222 11.913-15.004 12-16 .202-2.315-10.112-13.143-12-16.5-8.725-15.513-13.74-28.448-15-46.5-.66-9.46-.19-10.18 1-19 .13-.963 1.152-4.694.5-5-14.603 10.949-18.155 28.446-14.5 46-.102.88 2.937 3.139-1 3-1.624-7.774-2.445-15.512-2-23.5l-1.5-1.5c-.37-.018-.961 2.528-1.5 3-4.233 3.711-4.298 5.984-7 10-12.447 18.497-19.658 30.566-23 53-.03.204-1.952 2.051-1 4h-1c-3.394-15.407 9.089-36.949 17-50.5 3.457-5.921 36.221-52.435 40.5-50.5-26.439 69.241 61.145 142.455 125 138 2.375-.166 19.591-5.467 20.5-3.5-16.506 8.262-29.527 21.383-45.5 30.5-7.722 4.408-64.856 27.91-64.5 31.5 9.918 7.687 23.548 4.164 35 8l-42 40c11.013 6.803 36.38 75.116 40.5 76.5 5.803 1.949 12.755-1.915 21 4 8.808 6.319 8.02 20.54 12 25 4.024 4.509 30.268 12.426 37 19 26.99 26.355 24.399 130.976 1.5 159.5-5.524 6.88-17.051 14.442-24.5 19.5-3.537 2.402-18.221 8.294-19 9-2.691 2.439-5.61 23.309-14 28-3.368 1.883-22.967 3.205-26 2-3.431-1.363-.128-11.292-8-9-2.208.643-17.454 27.348-20.5 31.5-121.639 165.831-359.938 167.157-482 1-3.149-4.287-20.44-34.028-22.5-34.5-7.931-1.819-4.042 8.455-9 10-2.277.71-21.491.028-24-1-8.714-3.569-11.934-24.928-15-28-.664-.665-14.005-6.003-17-8-7.257-4.84-20.099-13.117-25.5-19.5-24.205-28.607-27.588-138.008 3.5-162.5 5.974-4.706 31.006-13.647 34-17 3.965-4.441 3.418-18.674 12-25 8.805-6.49 16.03-2.793 23-5 2.733-.865 20.767-44.371 24.5-51.5 3.789-7.235 9.319-14.283 14-21-10.785-17.696-29.273-28.299-45-41 .979-1.607 40.072-4.421 35.5-9.5-39.037-17.618-79.106-33.038-112.5-60.5 35.197 6.308 63.237 1.653 93.5-16.5 40.533-24.314 73.537-69.225 57-118 14.47 12.25 31.03 31.858 40.5 48.5 11.289 19.838 12.532 31.359 17 51.5m294 11c-6.716 8.905-13.829 14.176-11 26.5 8.931 2.79 17.793 12.474 25 16.5.372.208 4.528 1.944 4-.5-7.506-14.584-12.464-30.449-17.5-45.5-.981.102-.224 2.635-.5 3M234.5 408v2h1v-1zM194 543c-.537 20.289 1.203 42.54 5.5 62 .056-2.576 1.227-5.613 1.5-8h1c2.589 18.622 2.951 39.163 9 57-5.893 2.314 4.598 16.83 7.5 18 4.309 1.737 15.982 1.811 19.5-1 .711-.568 1.652-.534 2-2 .727-3.064-4.184-24.597-5-30-1.86-12.314-4.41-24.632-6-37-2.079-16.168-4.737-34.964-6-51-3.775-47.944-.987-78.5 8-125 .666-3.448 2.471-8.828 2-12-.015-.102 1.975-.757-.5-2-18.697-4.042-27.815 8.334-32.5 24.5-9.353 32.273-7.091 73.152-6 106.5m603-129c-3.219 5.29 1.824 15.368 3 21 .812 3.89 1.314 8.064 2 12 .354 2.028.694 3.94 1 6-.62 12.634 1.352 25.311 2 38-2.392-.248-3.354-.086-4 2.5-1.868 7.476.538 27.548 0 37-2.064 36.233-8.038 76.604-14 112.5-1.62 9.757-4.282 19.272-6 29 .564 1.936 3.561.66 5 1 14.061 3.323 22.676-1.119 28-14.5 11.744-29.513 14.459-96.604 15-129.5.359-21.813 2.578-111.759-25.5-117-3.484-.65-11.45-.525-14 2zM145 563c1.427 13.261 3.033 26.565 8 39 8.666 21.695 26.453 26.268 44.5 39 .883-11.707-3.187-23.511-4.5-35-2.833-24.791-4.587-50.013-5-75-.444-26.89.821-50.4 4-77 .111-.925 1.093-2.412 1-5-.035-.985 1.45-1.307 1-2.5-55.102 8.809-53.751 72.344-49 116.5m684-113c-.122.934-.053 2.049 0 3 1.5 26.661 5.433 48.674 5 77-.388 25.373-2.19 50.828-5 76-1.288 11.532-5.23 23.348-4.5 35 17.033-11.071 36.144-17.981 44.5-38 8.843-21.187 11.888-62.877 10-86-.866-10.604-4.942-36.226-12-44-4.561-16.45-24.219-21.917-38-26.5-.097 1.15.147 2.375 0 3.5"/><path fill="#60dfeb" d="M719 101c-7.025-.876-4.72 7.051-5 7.5-.816 1.309-3.854.687-6 6-3.298 8.166-1.987 18.792-3 27.5-3.655-17.554-.103-35.051 14.5-46 .652.306-.37 4.037-.5 5"/><path fill="#4ed4e5" d="M319 131c-.174 3.246 1.308 8.41-2 10.5 1.711-11.929-.686-25.114-8-35-1.037-1.401-3.265-4.837-5-1.5-.026-.369-2.992-6.484-.5-7 10.48 10.263 16.292 18.205 15.5 33"/><path fill="#2183ae" d="M719 101c-1.19 8.82-1.66 9.54-1 19-3.104-.396-2.171 6.038-2 7.5 2.269 19.434 15.224 41.95 29 55.5-.087.996-10.333 13.778-12 16-1.08.816-1.878 1.929-2 2-.282.164-1.377-.09-2 0-9.765-7.693-22.383-43.476-25-56 3.937.139.898-2.12 1-3 1.013-8.708-.298-19.334 3-27.5 2.146-5.313 5.184-4.691 6-6 .28-.449-2.025-8.376 5-7.5m-400 30 2 1c-5.021 33.013-13.87 45.023-30 72-4.278 2.77-15.675-14.5-16-16 12.988-13.101 26.873-33.2 28-52 1.942-10.295 1.732-20.622 1-31 1.735-3.337 3.963.099 5 1.5 7.314 9.886 9.711 23.071 8 35 3.308-2.09 1.826-7.254 2-10.5"/><path fill="#84d5da" d="M704 145c2.617 12.524 15.235 48.307 25 56 .098.077.72 1.737 1.5 2l.5-2c2.737.599 1.675-1.567 2-2 5.256-3.972 8.525-10.658 13.5-15 .667.746 1.404.68 1 2-.398 1.299-16.588 20.402-19.5 17-.094-1.812-15.378-24.813-18-31.5-6.047-15.422-8.998-32.138-11-48.5.539-.472 1.13-3.018 1.5-3l1.5 1.5c-.445 7.988.376 15.726 2 23.5"/><path fill="#5ed0e2" d="M718 120c1.26 18.052 6.275 30.987 15 46.5 1.888 3.357 12.202 14.185 12 16.5-13.776-13.55-26.731-36.066-29-55.5-.171-1.462-1.104-7.896 2-7.5"/><path fill="#2182ad" d="M728 203c.012.223-1.395 2.309-2 4-2.23 6.235-11.909 19.144-14 22.5-4.085 6.556-9.984 12.795-12 20.5-6.842-7.843-9.736-10.743-15-20-7.167-12.604-12.273-26.326-17-40-.952-1.949.97-3.796 1-4 6.944-16.1 16.964-31.553 24-47.5.324-.734 2.317-6.261-1-5.5 2.702-4.016 2.767-6.289 7-10 2.002 16.362 4.953 33.078 11 48.5 2.622 6.687 17.906 29.688 18 31.5"/><path fill="#b1edf1" d="M324 127c-3.245 19.523-8.137 39.752-17 57.5-3.256 6.52-11.405 14.499-14 20.5l-3.5 2c-.644-.839.908-2.009 1.5-3 16.13-26.977 24.979-38.987 30-72 .353-2.322-.247-5.097 0-7.5 2.324-1.692 2.104 1.72 3 2.5"/><path fill="#2283ae" d="M329 134c-.549 9.668 8.755 20.176 13 29.5 2.938 6.454 6.872 23.411 11 26.5-.968 18.085-22.641 45.644-34.5 59-3.659-11.731-22.621-28.075-26.5-37.5-1.253-3.045-.072-4.019 1-6.5 2.595-6.001 10.744-13.98 14-20.5 8.863-17.748 13.755-37.977 17-57.5 3.541 3.083 2.965 4.073 5 7"/><path fill="#34c6e4" d="M669 186c3.342-22.434 10.553-34.503 23-53 3.317-.761 1.324 4.766 1 5.5-7.036 15.947-17.056 31.4-24 47.5"/><path fill="#38c4e3" d="M353 190c-4.128-3.089-8.062-20.046-11-26.5-4.245-9.324-13.549-19.832-13-29.5 8.728 12.553 24.814 40.797 24 56"/><path fill="#62d3e0" d="M275 188c-.621-2.868 15.9-21.651 19-27.5 3.141-5.927 7.778-18.02 9-24.5-1.127 18.8-15.012 38.899-28 52"/><path fill="#24b7d4" d="M798 220c-19.255-3.549-37.538-17.157-49-33 14.329 14.364 29.845 25.649 49 33"/><path fill="#0c6d91" d="M798 220c2.608 1.001 5.343 2.173 8 3 11.853 8.904 28.987 7.301 43 9.5L830 247c-5.311.706-16.499-5.681-19.5 2l9.5 2c-19.502 7.799-43.31 19.989-60 31-2.701 1.782-1.287 3.315-5.5 3-3.232-.242-13.615-9.118-18.5-8.5 14.797 9.476 29.898 16.125 47.5 18.5l.5 4.5-13 6c5.496 1.158 1.465 1.498 1 2.5-2.324.943-3.407 3.34-5 5-1.066.608-3.577.555-4 3-4.526 4.389-8.362 9.264-12.5 14-16.569-24.672-36.94-44.116-58.5-64l7.5-13 10.5 7.5c-4.422-2.675-6.766-6.793-10-10.5l30-44c.23.035 2.859.929 3 1-.098.35 1.509 3.184-1 4.5 6.208 1.71 12.492 7.504 19.5 13.5l9.5 3.5c-10.534-3.784-19.228-17.067-28-21.5.921-3.301 13.386-19.305 16-20 11.462 15.843 29.745 29.451 49 33m-11.5 21 7 5 12.5 1.5z"/><path fill="#10566a" d="M291 204c-.592.991-2.144 2.161-1.5 3l3.5-2c-1.072 2.481-2.253 3.455-1 6.5 3.879 9.425 22.841 25.769 26.5 37.5 11.859-13.356 33.532-40.915 34.5-59 .472.353 1.38.839 2 1 .358 1.615.658 3.365 1 5l-2 2c-.275-.599.645-3.672-1-2.5-3.028 11.471-8.802 21.586-15 31.5-3.477 5.562-17.271 20.592-17 24 .49 6.157 5.951 10.082 7 16-1.605 1.506-3.66 2.676-4 3-7.621-20.441-10.735-12.471-24-2.5h4c-.853 1.533-2.881 1.505-4 2.5.357-1.753-3.376-1.136-4 .5 1.358 1.43 2.333-.986 4-.5-1.92 1.706-2.457 1.847-4 3 .853-1.601-2.824-2.431-4 .5.227.771 3.905-.322 4-.5-4.505 3.364-6.696 4.293-11 7 2.235-2.325-3.448-2.179-3-.5.197.737 2.888.616 3 .5-2.427 1.527-24.572 17.042-26 13.5 1.239-2.371 6.07-.827 6-4.5-.013-.693-1.557-2.893-2-4 8.65-3.829 49.773-24.191 51-32.5.667-4.519-24.611-34.634-29-40.5-5.099-6.816-10.599-13.715-15-21 5.969 5.579 11.611 11.886 17 18 10.591 14.938 21.876 29.781 32 45 .414.988-.169 4.99 2.5 5 .299-2-1.558-3.584-2.5-5-6.577-15.697-20.688-32.164-32-45-4.572-6.448-8.934-12.917-14-19 .685-.66 1.334-1.328 2-2 .325 1.5 11.722 18.77 16 16m-.5 70-1.5 1.5.5.5 1.5-.5z"/><path fill="#6dc7d0" d="M273 190c5.066 6.083 9.428 12.552 14 19-5.389-6.114-11.031-12.421-17-18 1.746-1.589 2.841-.846 3-1"/><path fill="#155f70" d="M668 190c4.727 13.674 9.833 27.396 17 40-8.096-10.349-13.022-23.879-18-36-.339-.826.786-2.92-1-3 .115-.153-.151-1.173 1-1z"/><path fill="#0c6c90" d="M270 191c4.401 7.285 9.901 14.184 15 21-19.532 15.24-40.495 29.395-65.5 34-3.991.735-28.958 3.374-31.5 3l-24.5-17c28.912 4.404 58.803-4.891 82.5-21 2.2-1.184 4.874-2.693 7-4 5.815-3.575 12.49-7.257 15-14 .132-.114 1.042-1.128 2-2"/><path fill="#1cabcf" d="M253 207c4.633-4.977 9.861-9.562 15-14-2.51 6.743-9.185 10.425-15 14"/><path fill="#71babe" d="M685 230c5.264 9.257 8.158 12.157 15 20 3.234 3.707 5.578 7.825 10 10.5l-10.5-7.5-7.5 13c-.38-.351-.696-.719-1-1-.559-3.391 7.236-13.73 7-14.5-.407-1.329-14.328-17.353-17-22-3.042-5.292-14.787-29.174-14-32.5.136-.573-.066-1.361 0-2 4.978 12.121 9.904 25.651 18 36"/><path fill="#49c2d9" d="M354 198c4.074 8.877 9.121 23.147 4 32 1.092-6.791-3.553-17.566-6.5-24-3.133 8.026-7.9 14.011-12.5 21h-1c6.198-9.914 11.972-20.029 15-31.5 1.645-1.172.725 1.901 1 2.5"/><path fill="#2282ad" d="M667 196c-.787 3.326 10.958 27.208 14 32.5 2.672 4.647 16.593 20.671 17 22 .236.77-7.559 11.109-7 14.5-14.533-13.416-24.659-16.886-30-39 1.083-3.175 8.913-26.465 5.5-27-.107 2.408-1.749 3.503-2.5 5 .879-2.572.053-8.536 3-8"/><path fill="#33d4e6" d="m663 245-14-43c.276-.365-.481-2.898.5-3 5.036 15.051 9.994 30.916 17.5 45.5.528 2.444-3.628.708-4 .5"/><path fill="#3bc2e5" d="M661 226c-2.053-8.5-1.16-13.708 3-22 .751-1.497 2.393-2.592 2.5-5 3.413.535-4.417 23.825-5.5 27"/><path fill="#042330" d="M731 201c.122-.071.92-1.184 2-2-.325.433.737 2.599-2 2"/><path fill="#eaf2f6" d="M606 219c-34.968-4.558-68.884-12.035-104.5-10-17.639 1.008-35.381 5.957-52 8-3.649 3.568-14.54 2.252-20 9 15.223-4.417 31.234-8.237 47-10 6.171-.69 37.231-3.216 41-2 .301.097 1.981 1.5 1 2-10.601-.333-21.1 1.534-31.5 3-59.057 8.327-97.714 20.051-144.5 58-11.958 9.699-26.453 28.279-37 36-1.377 1.008-7.634 1.625-8 2-2.021 2.071 2.474 2.248 2.5 3.5.042 2.018-20.043 28.066-23 33-19.415 32.396-34.613 71.83-39 109.5-.019.068-.616-.389-1 1-6.914 25.006-5.575 90.383-4 118-5.219-45.101-6.428-94.433 0-139.5 7.555-52.969 29.934-94.084 64-134.5 1.648-1.956 3.339-4.116 5-6 76.509-86.791 193.399-128.747 304-81"/><path fill="#042330" d="m731 201-.5 2c-.78-.263-1.402-1.923-1.5-2 .623-.09 1.718.164 2 0"/><path fill="#34d3e6" d="m371 205-18 42c-.095.039-.573 4.992-2 .5l5-12.5c.04-.104.515-.604 1-2 7.953-8.242 9.958-19.92 13-30.5 1.663-1.202.724 2.128 1 2.5"/><path fill="#086081" d="M663 245c-7.207-4.026-16.069-13.71-25-16.5-2.829-12.324 4.284-17.595 11-26.5z"/><path fill="#096485" d="m353 247 18-42c4.452 6.017 14.203 15.871 11 23.5-.666 1.586-26.063 17.289-29 18.5"/><path fill="#63b0b7" d="m730 206-30 44c2.016-7.705 7.915-13.944 12-20.5 2.091-3.356 11.77-16.265 14-22.5 2.559-2.097 1.644-1.358 4-1"/><path fill="#2082ad" d="M358 230c-.078.483-.73 2.222-1 3-.485 1.396-.96 1.896-1 2-7.001 18.099-15.227 20.015-28 32-1.049-5.918-6.51-9.843-7-16 8.126-6.414 12.495-15.636 18-24 4.6-6.989 9.367-12.974 12.5-21 2.947 6.434 7.592 17.209 6.5 24"/><path fill="#094255" d="M733 207c8.772 4.433 17.466 17.716 28 21.5l-9.5-3.5c-7.008-5.996-13.292-11.79-19.5-13.5 2.509-1.316.902-4.15 1-4.5"/><path fill="#6dc7d0" d="M319 254c-10.124-15.219-21.409-30.062-32-45 11.312 12.836 25.423 29.303 32 45"/><path fill="url(#a)" d="M606 219c8.96 3.868 18.095 7.051 26 13-3.186-1.013-13.829-5.976-12 0 .784 2.562 2.898 1.852 3 2 20.154 29.245 42.97 57.337 62 87.5 10.819 17.149 21.157 34.753 29 53.5-112.216-93.447-252.08-108.857-372.5-20-23.772 17.541-83.929 72.873-90.5 99-.079.312.068.681 0 1l-14 7c.384-1.389.981-.932 1-1 4.509-16.025 14.343-44.186 21-61.5C297.768 298.675 382.652 247.951 483.5 222c1.854-.477 3.727.168 3.5-3 10.4-1.466 20.899-3.333 31.5-3 .981-.5-.699-1.903-1-2-3.769-1.216-34.829 1.31-41 2-15.766 1.763-31.777 5.583-47 10 5.46-6.748 16.351-5.432 20-9 16.619-2.043 34.361-6.992 52-8 35.616-2.035 69.532 5.442 104.5 10M308.5 337c-17.559 3.503 3.514 25.392 14.5 10.5.738-8.324-6.811-12.034-14.5-10.5" style="fill:url(#a)"/>/&gt;<path fill="#1daaca" d="M246 211c-23.697 16.109-53.588 25.404-82.5 21l24.5 17c-3.961-.583-25.85-14.294-27.5-19 29.449 5.059 59.809-5.177 85.5-19"/><path fill="#0c6d91" d="M263 285c-.227-.567-.694-1.601-1-2-.063-.082 2.172-.272.5-2-4.657-4.811-41.331-16.871-50.5-21-5.409-2.436-11.946-5.192-16.5-9 22.968 2.231 46.255-6.762 65.5-19 8.59-5.462 17.362-12.165 24-20 4.389 5.866 29.667 35.981 29 40.5-1.227 8.309-42.35 28.671-51 32.5"/><path fill="#d0d9e2" d="M238 461c4.387-37.67 19.585-77.104 39-109.5 2.957-4.934 23.042-30.982 23-33-.026-1.252-4.521-1.429-2.5-3.5.366-.375 6.623-.992 8-2 10.547-7.721 25.042-26.301 37-36 46.786-37.949 85.443-49.673 144.5-58 .227 3.168-1.646 2.523-3.5 3-100.848 25.951-185.732 76.675-224.5 177.5-6.657 17.314-16.491 45.475-21 61.5"/><path fill="#27b1ce" d="m830 247 19-14.5c-14.013-2.199-31.147-.596-43-9.5 15.287 4.759 30.987 7.012 47 7.5 1.431 1.768-20.194 16.127-23 16.5"/><path fill="#b3eceb" d="M339 227c-5.505 8.364-9.874 17.586-18 24-.271-3.408 13.523-18.438 17-24z"/><path fill="#a6b8c3" d="M632 232c2.456.781 2.903 1.151 4.5-1l61.5 50c-4.334-2.058-4.793-.95-8 3-20.765-18.912-46.254-31.93-67-50-.708-.617-.863-2.661-3-2-1.829-5.976 8.814-1.013 12 0"/><path fill="#31a1b6" d="M261 232c-19.245 12.238-42.532 21.231-65.5 19 4.554 3.808 11.091 6.564 16.5 9l-2 1c-6.652-3.145-14.629-5.482-19.5-11 25.05 1.726 48.411-7.336 70.5-18"/><path fill="#98a7b5" d="M623 234c-.102-.148-2.216.562-3-2 2.137-.661 2.292 1.383 3 2"/><path fill="url(#b)" d="M690 284c25.48 23.206 69.973 84.484 78 117.5 1.939 7.977 1.655 23.763 2 32.5-14.027-19.911-37.232-43.371-56-59-7.843-18.747-18.181-36.351-29-53.5-19.03-30.163-41.846-58.255-62-87.5 20.746 18.07 46.235 31.088 67 50" style="fill:url(#b)"/>/&gt;<path fill="#2e8fa2" d="m786.5 241 19.5 6.5-12.5-1.5z"/><path fill="#27b7d4" d="M760 282c16.69-11.011 40.498-23.201 60-31 .861-.344 5.992-3.356 6-1.5z"/><path fill="#76b7bc" d="M319 254c.942 1.416 2.799 3 2.5 5-2.669-.01-2.086-4.012-2.5-5"/><path fill="#0b6c8f" d="M324 270c-9.038 8.62-17.195 18.246-26 27-3.954 3.931-7.586 8.032-11.5 12-11.143-1.51-22.358-.508-33.5-2-1.939-.26-2.942-.772-4-1l-13-5c-.106-.228-1.027-4.709-.5-5l29.5-7c.07 3.673-4.761 2.129-6 4.5 1.428 3.542 23.573-11.973 26-13.5 4.304-2.707 6.495-3.636 11-7 1.543-1.153 2.08-1.294 4-3 1.119-.995 3.147-.967 4-2.5h-4c13.265-9.971 16.379-17.941 24 2.5"/><path fill="#25bbd8" d="M212 260c9.169 4.129 45.843 16.189 50.5 21 1.672 1.728-.563 1.918-.5 2-17.433-6.927-35.048-13.986-52-22z"/><path fill="#0b6c8f" d="M300 270c-1.667-.486-2.642 1.93-4 .5.624-1.636 4.357-2.253 4-.5m-4 3c-.095.178-3.773 1.271-4 .5 1.176-2.931 4.853-2.101 4-.5"/><path fill="#3497a8" d="m290.5 274 .5 1.5-1.5.5-.5-.5z"/><path fill="#0b6c8f" d="M285 280c-.112.116-2.803.237-3-.5-.448-1.679 5.235-1.825 3 .5"/><path fill="#8599a4" d="M698 281c12.924 6.139 48.644 51.935 57 65.5 26.285 42.669 37.675 88.229 37 138.5-.297-2.16-3.894-10.863-4-11.5-1.119-6.697-4.898-37.368-7-41-.491-.849-1.427-.832-2 0l2 18.5c-2.099-4.898-7.753-12.39-11-17-.345-8.737-.061-24.523-2-32.5-8.027-33.016-52.52-94.294-78-117.5 3.207-3.95 3.666-5.058 8-3"/><path fill="#022c39" d="M714 375c18.768 15.629 41.973 39.089 56 59 3.247 4.61 8.901 12.102 11 17 .665 1.552 1.291 1.763 2 4-2.621-1.709-4.441-4.173-7-6 .816-1.994-1.87-2.756-2-3-13.768-25.785-46.049-56.951-70-74-15.411-11.32-31.167-21.84-48-31-51.347-27.94-104.116-43.668-163.5-40-96.314 5.948-184.089 74.498-238.5 150-.763.75-2.837 1.447-3 3 6.571-26.127 66.728-81.459 90.5-99 120.42-88.857 260.284-73.447 372.5 20"/><path fill="#0a5a72" d="M302 300c-1.661 1.884-3.352 4.044-5 6-4.164-4.001-6.078.894-9 4l-31.5 1c-.973.414 2.229 5.567 2.5 6-2.918-1.512-10.174-4.975-8-9 .748-.295 2.17 2.619 2-1 11.142 1.492 22.357.49 33.5 2 3.914-3.968 7.546-8.069 11.5-12z"/><path fill="#15a9c7" d="M249 306c-4.215-.906-10.851-.395-13-5z"/><path fill="#d6eff4" d="M656 341v2c-129.159-70.853-277.323-41.182-368.5 73 1.733-.884 3.797 1.035 4 1 1.518-.26 20.997-15.584 25-18 69.899-42.198 154.491-67.482 237-57 9.426 1.197 18.803 5.018 28 7 .645.139.356-2.143 1-2 .244.054 1.549 2.426 4 3 3.037.712 5.922 1.215 9 2 .625.159.376-2.162 1-2 .205.053 1.115 2.492 3 3 55.12 14.867 109.227 42.11 154.5 77 6.742 5.196 12.881 11.26 20 16 .13.244 2.816 1.006 2 3-.291-.208-3.736-.803-4-1-5.81-4.322-11.61-10.25-18-15-29.246-21.739-60.109-42.111-94-56-90.163-41.982-184.323-45.024-277-9-44.025 17.113-84.087 42.315-119 74-3.275 2.973-6.854 5.906-10 9 54.411-75.502 142.186-144.052 238.5-150 59.384-3.668 112.153 12.06 163.5 40"/><path fill="url(#c)" d="M656 343c14.637 8.029 26.396 16.684 40 26l58 61c-45.273-34.89-99.38-62.133-154.5-77-1.885-.508-2.795-2.947-3-3-.624-.162-.375 2.159-1 2-3.078-.785-5.963-1.288-9-2-2.451-.574-3.756-2.946-4-3-.644-.143-.355 2.139-1 2-9.197-1.982-18.574-5.803-28-7-82.509-10.482-167.101 14.802-237 57-4.003 2.416-23.482 17.74-25 18-.203.035-2.267-1.884-4-1 91.177-114.182 239.341-143.853 368.5-73" style="fill:url(#c)"/>/&gt;<path fill="#20abc6" d="M251 308c-2.174 4.025 5.082 7.488 8 9 1.619 2.585 4.989 6.56 7 9l-18-15.5c-.52-3.788 1.551-1.928 3-2.5"/><path fill="#28c7e0" d="M767 313c1.593-1.66 2.676-4.057 5-5-1.935 4.173-1.443 2.971-5 5"/><path fill="#096c90" d="M288 310c-2.778 2.953-15.14 21.799-16.5 22-3.337-.423-4.028-4.214-5.5-6-2.011-2.44-5.381-6.415-7-9-.271-.433-3.473-5.586-2.5-6z"/><path fill="#27c8df" d="M767 313c-1.868 1.946-3.619 2.631-4 3 .423-2.445 2.934-2.392 4-3"/><path fill="#bfd9ea" d="M308.5 337c7.689-1.534 15.238 2.176 14.5 10.5-10.986 14.892-32.059-6.997-14.5-10.5"/><path fill="#49b2d3" d="M704 372c-.348-.248-6.105-1.702-8-3-13.604-9.316-25.363-17.971-40-26v-2c16.833 9.16 32.589 19.68 48 31"/><path fill="#084367" d="M660 377c-4.42-1.811-36.454-13.903-38.5-14-1.421-.068-3.754-.651-3.5 1.5 20.706 13.13 37.852 29.951 51 50.5.041 1.357-2.165 1.235-3 1-3.148-.886-10.138-9.963-13-13-2.221-2.357-12.174-15.6-14.5-16-1.172-.201-19.322 8.241-21.5 9.5-.433 2.056 1.089 3.028 2 4.5l-7 1c-2.904-4.557-16.645-6.05-21.5-5-3.184.688-6.03 3.848-8.5 6-4.964 4.325-4.677 7.578-8.5 12-16.853-10.564-37.048-18.138-57-20-6.971-.651-17.657-.67-24.5 1-27.144-20.342-68.714-2.779-84 24-5.497-.341-.139-4.835-1-6.5-.502-.97-8.213-3.447-9.5-4.5-11.045-9.039-12.328-14.209-30.5-10 16.361-14.616 30.24-29.809 51-39.5l-35 8.5c92.677-36.024 186.837-32.982 277 9"/><path fill="#41889b" d="M367 399c-4.162 3.718-7.362 9.07-11 12-17.014 13.704-47.264 26.842-66.5 40-8.951 6.123-16.803 13.593-25.5 20 .014-9.647.029-19.397 0-29 34.913-31.685 74.975-56.887 119-74l35-8.5c-20.76 9.691-34.639 24.884-51 39.5"/><path fill="#3b7d8f" d="M660 377c33.891 13.889 64.754 34.261 94 56 .206 14.328 1.236 28.674 1 43-22.971-24.626-52.556-43.193-83-57-.689-1.171-2.248-2.825-3-4-13.148-20.549-30.294-37.37-51-50.5-.254-2.151 2.079-1.568 3.5-1.5 2.046.097 34.08 12.189 38.5 14"/><path fill="#1c7cab" d="M704 372c23.951 17.049 56.232 48.215 70 74-7.119-4.74-13.258-10.804-20-16l-58-61c1.895 1.298 7.652 2.752 8 3"/><path fill="#def6fc" d="M492 396c3.023 2.266 4.993 8.217 9 10 1.445 4.049 2.548 6.53 3 11 4.272 42.217-43.344 71.432-81 57-4.342-1.664-9.32-5.542-12.5-9 4.149 19.442-3.925 43.21-25.5 47-26.87 4.72-22.573-10.491-35-20-2.497-13.803-2.392-27.06 4-40 .307-.321.646-.62 1-1 2.975-3.197 5.606-8.821 9.5-11 10.772-6.028 27.853-3.19 37 5 .082-8.592 2.227-17.514 6.5-25 15.286-26.779 56.856-44.342 84-24"/><path fill="#0e5784" d="M653 403c-4.648-2.5-7.953 6.777-8.5 7-.823.336-14.802-4.812-17.5-2-1.363-1.733-7.066-5.492-8-7-.911-1.472-2.433-2.444-2-4.5 2.178-1.259 20.328-9.701 21.5-9.5 2.326.4 12.279 13.643 14.5 16"/><path fill="#0c2d52" d="M582 403c-3.503 8.375-5.456 10.97-2 20-6.358-6.885-16.41-12.276-25.5-16-17.933-7.348-37.511-10.89-57-10l-1 2c4.18 2.589 3.835 5.138 4.5 7-4.007-1.783-5.977-7.734-9-10 6.843-1.67 17.529-1.651 24.5-1 19.952 1.862 40.147 9.436 57 20 3.823-4.422 3.536-7.675 8.5-12"/><path fill="url(#d)" d="M580 423c2.003 5.233 3.79 5.525 7 9 1.198 1.296 2.889 4.298 3.5 5 .187.215 2.956-1.373 5.5 1.5 16.06 18.141 24.825 50.681 24 74.5-.641.075-1.497-.149-2 0-2.479.735-23.548 13.329-25 10.5 5.966-25.956-3.432-46.774-16-68.5-2.432-4.205-3.214-8.534-7-13.5-8.381-10.991-32.118-28.397-46-22.5-5.19-1.73-15.656-6.007-20-2-.452-4.47-1.555-6.951-3-11-.665-1.862-.32-4.411-4.5-7l1-2c19.489-.89 39.067 2.652 57 10 9.09 3.724 19.142 9.115 25.5 16" style="fill:url(#d)"/>/&gt;<path fill="#dbebf2" d="M612 402c5.026 7.886 1.053 23.679-6 29-6.775 5.111-11.71 5.375-19 1-3.21-3.475-4.997-3.767-7-9-3.456-9.03-1.503-11.625 2-20 2.47-2.152 5.316-5.312 8.5-6 4.855-1.05 18.596.443 21.5 5"/><path fill="#0e5885" d="M408 420c-4.273 7.486-6.418 16.408-6.5 25-9.147-8.19-26.228-11.028-37-5-3.894 2.179-6.525 7.803-9.5 11-.367-10.791 31.248-32.398 13.5-36-16.018-3.251-23.802 29.109-27.5 41-9.143 29.394-12.756 52.98-7 84l-3 2c-9.221-45.729.803-91.604 25-131 3.638-2.93 6.838-8.282 11-12 18.172-4.209 19.455.961 30.5 10 1.287 1.053 8.998 3.53 9.5 4.5.861 1.665-4.497 6.159 1 6.5"/><path fill="#175990" d="M619 401c.934 1.508 6.637 5.267 8 7 18.145 23.079 31.652 48.711 37 78 .568 3.112 1.678 6.948 2 10-8.931.07-17.418-.868-25-6 6.98-10.639 14.942-28.105 7-40.5-8.399-13.109-28.405 4.537-37 9.5-1.938-4.302-13.02-19.286-13-20.5.048-2.902 8.404-4.226 8-7.5 7.053-5.321 11.026-21.114 6-29z"/><path fill="#2778ae" d="M653 403c2.862 3.037 9.852 12.114 13 13 .357 8.403 8.575 17.206 12 25.5 6.02 14.577 9.213 28.797 11 44.5-6.364-3.61-17.476.337-25 0-5.348-29.289-18.855-54.921-37-78 2.698-2.812 16.677 2.336 17.5 2 .547-.223 3.852-9.5 8.5-7"/><path fill="#019db3" d="m234.5 408 1 1v1h-1z"/><path fill="#8be3f0" d="M233 414c-.66-.017-1.342.037-2 0-2.019-.112-3.47-1-4-1-17.278-.002-20.124 10.039-23 24-1.292 6.271-.617 6.907-1 12-.532 7.084-3.166 14.166-2 21.5 2.238-.385 12.976 1.932 13.5 1.5 1.184-.978.043-3.682.5-4.5.518-.927 1.946-.364 2-.5-.548 7.634-1.692 15.351-2 23-9.628-10.325-6.715-6.611-12 .5-1.505 2.025-3.674 1.236-4 2-2.089 4.892-.886 20.271-1 26.5-.006.333.004.667 0 1-3.89 4.464-3.822 16.274-4 23-1.091-33.348-3.353-74.227 6-106.5 4.685-16.166 13.803-28.542 32.5-24.5 2.475 1.243.485 1.898.5 2"/><path fill="url(#e)" d="M331 542c.306 1.516.789 2.075 1 3-2.789-.541-2.211 2.919-2 4.5 4.097 30.724 33.288 70.805 56.5 90.5 101.354 85.998 256.376 42.875 300.5-81 1.341-3.765 5.59-9.035 3-13 11.285-44.199 5.086-87.789-18-127 30.444 13.807 60.029 32.374 83 57-.83 50.456-10.601 109.334-36 153.5-76.274 132.632-339.384 129.218-418-.5-28.331-46.747-37.076-104.153-37-158 8.697-6.407 16.549-13.877 25.5-20 19.236-13.158 49.486-26.296 66.5-40-24.197 39.396-34.221 85.271-25 131m-15.5-15c4.427 56.627 23.318 102.296 68 138 71.396 57.051 170.129 61.787 245 8 38.935-27.971 74.829-79.889 75.5-128.5C672.88 663.822 546.281 726.696 431.5 679c-64.909-26.972-104.02-83.627-116-152" style="fill:url(#e)"/>/&gt;<path fill="#66d7ed" d="M829 529c-4.229.168.252-8.857-5-9-.011-.661.019-1.34 0-2-.133-4.537.949-19.778 0-22.5-.269-.771-10.907-8.582-12.5-10.5l-4.5 12c-.317-8.052-.304-15.952-1-24 2.057-1.838 14.361-1.593 15-2.5 1.064-1.509-.781-18.008-1-21.5-.351-5.61-.883-9.354-2-14-2.892-12.031-6.709-21.924-21-21h-7.5c2.55-2.525 10.516-2.65 14-2 28.078 5.241 25.859 95.187 25.5 117"/><path fill="#166790" d="M227 413c-.493 7.797-2.395 15.406-4 23l-19 1c2.876-13.961 5.722-24.002 23-24"/><path fill="#124c6d" d="M231 414c-2.949 3.473-3.028 7.848-4 12-10.25 43.783-12.37 81.014-9 126 1.154 15.408 3.654 35.642 6 51 2.066 13.524 4.947 24.871 8 38 2.276 9.786 2.529 18.959 8 28-.348 1.466-1.289 1.432-2 2-19.48 1.051-21.105.382-27-17-6.049-17.837-6.411-38.378-9-57l19-.5c1.613-2.267-3.544-34.875-4-40.5-1.382-17.056-2.232-31.591-2-49 .075-5.639-.227-11.371 0-17 .308-7.649 1.452-15.366 2-23 1.699-4.32 1.777-14.686 3-20 .829-3.6 2.242-7.415 3-11 1.605-7.594 3.507-15.203 4-23 .53 0 1.981.888 4 1"/><path fill="#1e6884" d="M233 414c.471 3.172-1.334 8.552-2 12h-4c.972-4.152 1.051-8.527 4-12 .658.037 1.34-.017 2 0"/><path fill="#15658f" d="M818 435h-18c-1.176-5.632-6.219-15.71-3-21 14.291-.924 18.108 8.969 21 21"/><path fill="#1270a1" d="M355 451c-.354.38-.693.679-1 1-4.794 5.014-3.621 7.05-12 5 .097-.755-.243-1.105-1-1 3.698-11.891 11.482-44.251 27.5-41 17.748 3.602-13.867 25.209-13.5 36"/><path fill="url(#f)" d="M524 419c21.37 7.124 37.612 20.078 53 36 12.568 21.726 21.966 42.544 16 68.5 1.452 2.829 22.521-9.765 25-10.5-1.074 12.476-8.642 26.024-16 36-26.029 35.292-63.431 60.725-109 54-17.793-2.626-44.791-15.551-57-29-23.532-25.922-28.434-68.896-13-100 37.656 14.432 85.272-14.783 81-57 4.344-4.007 14.81.27 20 2m-82.5 68c-8.195 1.874-4.908 22.859 4 24 8.543 1.094 14.543-11.183 12.5-18.5-1.07-3.83-13.147-6.267-16.5-5.5" style="fill:url(#f)"/>/&gt;<path fill="#125e92" d="M672 419c23.086 39.211 29.285 82.801 18 127-.893 3.497-2.092 10.337-3 13-5.937 17.425-20.307 39.725-32 54-1.16.927-7.651 3.721-8 4v-1c32.347-33.003 47.183-84.447 42-130-1.787-15.703-4.98-29.923-11-44.5-3.425-8.294-11.643-17.097-12-25.5.835.235 3.041.357 3-1 .752 1.175 2.311 2.829 3 4"/><path fill="#223779" d="M577 455c-15.388-15.922-31.63-28.876-53-36 13.882-5.897 37.619 11.509 46 22.5 3.786 4.966 4.568 9.295 7 13.5"/><path fill="#4a98a8" d="M231 426c-8.987 46.5-11.775 77.056-8 125l-5 1c-3.37-44.986-1.25-82.217 9-126z"/><path fill="#0e4670" d="M611 459c8.07 17.913 10.599 31.417 11 51 .193 9.408.8 14.436-2 24-.738 2.522.669 6.884-4 6 2.323-8.427 3.697-18.249 4-27 .825-23.819-7.94-56.359-24-74.5-2.544-2.873-5.313-1.285-5.5-1.5-.611-.702-2.302-3.704-3.5-5 7.29 4.375 12.225 4.111 19-1 .404 3.274-7.952 4.598-8 7.5-.02 1.214 11.062 16.198 13 20.5"/><path fill="#788a92" d="M792 485c11.316 82.261-12.776 178.144-69 239-1.87 1.459-3.024.527-3-2 54.875-59.441 87.468-189.782 63-267-.709-2.237-1.335-2.448-2-4l-2-18.5c.573-.832 1.509-.849 2 0 2.102 3.632 5.881 34.303 7 41 .106.637 3.703 9.34 4 11.5"/><path fill="#0d4357" d="M772 448c-.157 7.979.214 16.024 0 24-2.209 82.28-17.654 169.995-88.5 221-110.53 79.576-320.142 66.826-396.5-55 4.86.519 11.866-5.618 14-9 78.616 129.718 341.726 133.132 418 .5 25.399-44.166 35.17-103.044 36-153.5.236-14.326-.794-28.672-1-43 6.39 4.75 12.19 10.678 18 15"/><path fill="#4f8ca4" d="M223 436c-.758 3.585-2.171 7.4-3 11l-17 2c.383-5.093-.292-5.729 1-12z"/><path fill="#4c8aa2" d="M818 435c1.117 4.646 1.649 8.39 2 14l-18-2c-.686-3.936-1.188-8.11-2-12z"/><path fill="#1f5569" d="M264 471c-.076 53.847 8.669 111.253 37 158-2.134 3.382-9.14 9.519-14 9-18.072-28.833-30.18-61.982-35-96-3.366-23.753-5.808-64.408-1-87 .068-.319-.079-.688 0-1 3.023.658 2.543-2.366 3-3 3.146-3.094 6.725-6.027 10-9 .029 9.603.014 19.353 0 29"/><path fill="#306daa" d="M641 490c-4.277 6.519-12.249 15.76-19 20-.401-19.583-2.93-33.087-11-51 8.595-4.963 28.601-22.609 37-9.5 7.942 12.395-.02 29.861-7 40.5m-3.5-38c-.853.495-.774 3.257 0 4 2.729-1.176.53-4.308 0-4"/><path fill="#98edf6" d="M193 449c-6.931 1.247-22.217 7.395-27 12-16.937 16.308-16.958 64.216-16 86 .03.68-1.967 6.752-1 12-4.6-.859-1.761 2.165-4 4-4.751-44.156-6.102-107.691 49-116.5.45 1.193-1.035 1.515-1 2.5"/><path fill="#58cbec" d="M867 473c-1.902-2.095-3.049-4.372-5-1.5 8.013 15.531 10.804 35.026 11 52.5.08 7.122-1.848 14.218-1 21.5l-12-1.5c-8.974-4.426-17.253-9.239-26-14 .433-28.326-3.5-50.339-5-77l26 7.5c-5.612-3.941-13.142-8.101-19.5-10.5-1.946-.734-5.134-2.517-6.5 0 .147-1.125-.097-2.35 0-3.5 13.781 4.583 33.439 10.05 38 26.5m-20.5 9c-4.633 2.059 2.186 44.017 17 40 7.593-2.059-2.132-36.764-7-39-1.565-.719-8.741-1.559-10-1"/><path fill="#68b3c2" d="M220 447c-1.223 5.314-1.301 15.68-3 20-.054.136-1.482-.427-2 .5-.457.818.684 3.522-.5 4.5-.524.432-11.262-1.885-13.5-1.5-1.166-7.334 1.468-14.416 2-21.5z"/><path fill="#5fabbc" d="M820 449c.219 3.492 2.064 19.991 1 21.5-.639.907-12.943.662-15 2.5-.584-6.747-2.01-13.343-3-20-.306-2.06-.646-3.972-1-6z"/><path fill="#607077" d="M776 449c2.559 1.827 4.379 4.291 7 6 24.468 77.218-8.125 207.559-63 267-5.17 5.6-30.382 30.046-35.5 33-2.765 1.596-1.804.241-3.5-1 9.494-20.213-7.788-40.31-29-36 10.171-9.957 26.441-16.009 38.5-25 65.795-49.052 84.988-143.052 81.5-221 .214-7.976-.157-16.021 0-24 .264.197 3.709.792 4 1"/><path fill="#0b92c2" d="M829 453c-.053-.951-.122-2.066 0-3 1.366-2.517 4.554-.734 6.5 0 6.358 2.399 13.888 6.559 19.5 10.5z"/><path fill="#0a8fc1" d="M193 449c.093 2.588-.889 4.075-1 5l-26 7c4.783-4.605 20.069-10.753 27-12"/><path fill="#81aab6" d="M251 454c.163-1.553 2.237-2.25 3-3-.457.634.023 3.658-3 3"/><path fill="#1596c3" d="M354 452c-6.392 12.94-6.497 26.197-4 40-5.362-4.103-8.226 1.017-15 0 1.047-12.892 5.537-23.64 7-35 8.379 2.05 7.206.014 12-5"/><path fill="#1b548b" d="M637.5 452c.53-.308 2.729 2.824 0 4-.774-.743-.853-3.505 0-4"/><path fill="#06253b" d="M806 473c.696 8.048.683 15.948 1 24 .234 5.953-.014 12.036 0 18 .067 29.226-2.118 53.022-6 82-1.317 9.833-3.125 19.596-4 29.5l-2-1.5c7.884-43.4 12.248-89.967 10-134-.648-12.689-2.62-25.366-2-38 .99 6.657 2.416 13.253 3 20"/><path fill="#57cdee" d="M192 454c-3.179 26.6-4.444 50.11-4 77-12.508 5.764-23.165 16.617-38 16-.958-21.784-.937-69.692 16-86zm-23.5 28c-9.742 1.799-15.356 38.157-10 40 12.472 4.292 21.186-29.788 18.5-38.5-1.578-2.078-6.377-1.892-8.5-1.5"/><path fill="url(#g)" d="M251 455c-4.808 22.592-2.366 63.247 1 87-1.973-.159-2.066 7.118-2 7.5 15.466 88.922 45.248 118.976 117.5 164.5 2.9 1.827 2.22.66 1.5 4-21.217-3.382-37.817 17.373-28 37-3.544.351-8.913-4.804-11.5-7-33.824-28.708-59.896-64.798-77.5-105.5L233 582c-.042-.657.038-1.342 0-2-1.575-27.617-2.914-92.994 4-118z" style="fill:url(#g)"/>/&gt;<path fill="#72c8e1" d="M342 457c-1.463 11.36-5.953 22.108-7 35-2.295 28.254 4.604 53.851 11 81-6.162-12.114-9.47-19.363-12-33-5.756-31.02-2.143-54.606 7-84 .757-.105 1.097.245 1 1"/><path fill="#14598f" d="M423 474c-15.434 31.104-10.532 74.078 13 100l-27-2c-2.319-3.345-11.232-21.94-12.5-22-.362-.017-1.051 2.721-1.5 3-.17.106-3.921.98-4 0 9.234-8.013-1.425-26.867-15-25-.211-3.357 9.752-2.021 10-2.5.576-1.115.204-11.48-1-13.5 21.575-3.79 29.649-27.558 25.5-47 3.18 3.458 8.158 7.336 12.5 9"/><path fill="#b7f9ff" d="M867 473c7.058 7.774 11.134 33.396 12 44-3.494 5.919.597 23.97-1 28.5-3.669 10.407-2.978-22.574-5-21.5-.196-17.474-2.987-36.969-11-52.5 1.951-2.872 3.098-.595 5 1.5"/><path fill="#ddeaf0" d="M652 718c-5.386 1.094-7.601 3.644-12 5-17.883 5.511-39.039 13.924-58.5 18-66.227 13.872-136.96 6.261-199-19l.5 3c-4.041-4.274-8.174-6.071-14-7 .72-3.34 1.4-2.173-1.5-4-72.252-45.524-102.034-75.578-117.5-164.5-.066-.382.027-7.659 2-7.5 4.82 34.018 16.928 67.167 35 96 76.358 121.826 285.97 134.576 396.5 55 70.846-51.005 86.291-138.72 88.5-221 3.488 77.948-15.705 171.948-81.5 221-12.059 8.991-28.329 15.043-38.5 25"/><path fill="#aef8ff" d="M168.5 482c2.123-.392 6.922-.578 8.5 1.5 2.686 8.712-6.028 42.792-18.5 38.5-5.356-1.843.258-38.201 10-40"/><path fill="#aff8ff" d="M846.5 482c1.259-.559 8.435.281 10 1 4.868 2.236 14.593 36.941 7 39-14.814 4.017-21.633-37.941-17-40"/><path fill="#58c9ec" d="M215 490c-.227 5.629.075 11.361 0 17l-17 12c.114-6.229-1.089-21.608 1-26.5.326-.764 2.495.025 4-2 5.285-7.111 2.372-10.825 12-.5"/><path fill="#3bb4dd" d="M689 486c5.183 45.553-9.653 96.997-42 130-23.908 24.392-60.865 45.612-95 50 28.66-10.552 57.37-32.862 77-56 16.516-19.467 25.486-33.626 32-59 4.813-18.751 7.041-35.636 5-55-.322-3.052-1.432-6.888-2-10 7.524.337 18.636-3.61 25 0"/><path fill="#52bfe5" d="M824 518c-5.547-1.095-10.402-6.679-13.5-11l-3.5 8c-.014-5.964.234-12.047 0-18l4.5-12c1.593 1.918 12.231 9.729 12.5 10.5.949 2.722-.133 17.963 0 22.5"/><path fill="#e9f8fd" d="M441.5 487c3.353-.767 15.43 1.67 16.5 5.5 2.043 7.317-3.957 19.594-12.5 18.5-8.908-1.141-12.195-22.126-4-24"/><path fill="#1270a1" d="M350 492c12.427 9.509 8.13 24.72 35 20 1.204 2.02 1.576 12.385 1 13.5-.248.479-10.211-.857-10 2.5-26.998 3.713-2.945 40.572 15 25 .079.98 3.83.106 4 0 7.455 16.786 17.951 29.394 32 41 5.568 4.6 10.679 9.356 17 13l-38 36c-26.565-18.29-45.301-41.102-60-70-6.396-27.149-13.295-52.746-11-81 6.774 1.017 9.638-4.103 15 0m316 4c2.041 19.364-.187 36.249-5 55l-41-17c2.8-9.564 2.193-14.592 2-24 6.751-4.24 14.723-13.481 19-20 7.582 5.132 16.069 6.07 25 6"/><path fill="#3a5c62" d="M805 491c2.248 44.033-2.116 90.6-10 134-.716 3.943-3.495 12.675-5 19l-3-1c5.962-35.896 11.936-76.267 14-112.5.538-9.452-1.868-29.524 0-37 .646-2.586 1.608-2.748 4-2.5"/><path fill="#0eabdb" d="M215 507c-.232 17.409.618 31.944 2 49-6.391-2.572-11.516-2.617-18 0-.327-12.005-1.148-24.017-1-36 .004-.333-.006-.667 0-1z"/><path fill="#1890be" d="M824 518c.019.66-.011 1.339 0 2 .423 25.39-1.815 51.696-4 77h-19c3.882-28.978 6.067-52.774 6-82l3.5-8c3.098 4.321 7.953 9.905 13.5 11"/><path fill="#2291c3" d="M620 513c-.303 8.751-1.677 18.573-4 27-1.381 5.009-3.793 10.288-6 15-3.579.41-8.516-1.498-8-6 7.358-9.976 14.926-23.524 16-36 .503-.149 1.359.075 2 0"/><path fill="#56c0d8" d="M869 603c-.556-1.36-3.792 4.325-3-.5 1.291-7.871 4.934-17.212 6-26 .17-1.401 1.025-9.865-1-10.5 2.288-5.9 3.941-10.802 2-17.5l-2.5 4.5c.363-7.997-4.373-5.978-10.5-9l12 1.5c-.848-7.282 1.08-14.378 1-21.5 2.022-1.074 1.331 31.907 5 21.5 1.597-4.53-2.494-22.581 1-28.5 1.888 23.123-1.157 64.813-10 86"/><path fill="#63c4dd" d="M199 556c.326 11.994 3.259 29.981 2 41-.273 2.387-1.444 5.424-1.5 8-4.297-19.46-6.037-41.711-5.5-62 .178-6.726.11-18.536 4-23-.148 11.983.673 23.995 1 36"/><path fill="#52bfdc" d="M829 529c-.541 32.896-3.256 99.987-15 129.5-5.324 13.381-13.939 17.823-28 14.5 2.826-3.152 10.555.005 14.5-1 3.647-.93 7.002-7.341 8.5-10.5.876-1.848 7.658-25.27 8-27 .588-2.979-1.143-7.135-1-8 1.783-10.752 2.952-17.367 4-29.5 2.185-25.304 4.423-51.61 4-77 5.252.143.771 9.168 5 9"/><path fill="#72aaba" d="M315.5 527c11.98 68.373 51.091 125.028 116 152 114.781 47.696 241.38-15.178 272.5-134.5-.671 48.611-36.565 100.529-75.5 128.5-74.871 53.787-173.604 49.051-245-8-44.682-35.704-63.573-81.373-68-138"/><path fill="#dff7fd" d="M391 553c-17.945 15.572-41.998-21.287-15-25 13.575-1.867 24.234 16.987 15 25"/><path fill="url(#h)" d="M860 544c6.127 3.022 10.863 1.003 10.5 9l2.5-4.5c1.941 6.698.288 11.6-2 17.5-5.169 13.33-26.287 43.122-42 40 2.81-25.172 4.612-50.627 5-76 8.747 4.761 17.026 9.574 26 14" style="fill:url(#h)"/>/&gt;<path fill="#1b7fa0" d="M188 531c.413 24.987 2.167 50.209 5 75-16.929 1.927-37.033-27.855-42-42-.726-2.066-1.641-3.053-2-5-.967-5.248 1.03-11.32 1-12 14.835.617 25.492-10.236 38-16"/><path fill="#1596c3" d="M661 551c-6.514 25.374-15.484 39.533-32 59-.754-8.282-8.179-5.618-11-7.5-2.049-1.367-11.763-23.548-18.5-25.5-19.934 24.41-47.443 42.99-79.5 46v-2c35.812-2.638 74.988-33.95 90-66 2.207-4.712 4.619-9.991 6-15 4.669.884 3.262-3.478 4-6z"/><path fill="#41bce1" d="M346 573c14.699 28.898 33.435 51.71 60 70 18.425 12.686 38.262 23.268 60.5 28l-6.5 4c-61.211-16.262-113.807-67.811-128-130-.211-.925-.694-1.484-1-3l3-2c2.53 13.637 5.838 20.886 12 33"/><path fill="#f0fdfd" d="M332 545c14.193 62.189 66.789 113.738 128 130 23.466 6.234 47.565 7.188 71 5 6.539-.61 23.594-2.158 28-6 37.93-8.435 71.605-31.217 96-61 11.693-14.275 26.063-36.575 32-54-44.124 123.875-199.146 166.998-300.5 81-23.212-19.695-52.403-59.776-56.5-90.5-.211-1.581-.789-5.041 2-4.5m355 14c.908-2.663 2.107-9.503 3-13 2.59 3.965-1.659 9.235-3 13"/><path fill="#19abd5" d="M610 555c-15.012 32.05-54.188 63.362-90 66-10.454.77-21.141-.925-31.5-2l4.5-16c45.569 6.725 82.971-18.708 109-54-.516 4.502 4.421 6.41 8 6"/><path fill="#0a4466" d="M409 572c5.165 7.451 10.058 12.197 17 18l1 4c-14.049-11.606-24.545-24.214-32-41 .449-.279 1.138-3.017 1.5-3 1.268.06 10.181 18.655 12.5 22"/><path fill="#397582" d="M223 551c1.263 16.036 3.921 34.832 6 51l-5 1c-2.346-15.358-4.846-35.592-6-51z"/><path fill="#1d94c0" d="M217 556c.456 5.625 5.613 38.233 4 40.5l-19 .5h-1c1.259-11.019-1.674-29.006-2-41 6.484-2.617 11.609-2.572 18 0"/><path fill="#54adc7" d="M149 559c.359 1.947 1.274 2.934 2 5l2 38c-4.967-12.435-6.573-25.739-8-39 2.239-1.835-.6-4.859 4-4"/><path fill="#105576" d="M151 564c4.967 14.145 25.071 43.927 42 42 1.313 11.489 5.383 23.293 4.5 35-18.047-12.732-35.834-17.305-44.5-39z"/><path fill="#0f5474" d="M869 603c-8.356 20.019-27.467 26.929-44.5 38-.73-11.652 3.212-23.468 4.5-35 15.713 3.122 36.831-26.67 42-40 2.025.635 1.17 9.099 1 10.5-1.066 8.788-4.709 18.129-6 26-.792 4.825 2.444-.86 3 .5"/><path fill="#2588bc" d="M436 574c12.209 13.449 39.207 26.374 57 29l-4.5 16c10.359 1.075 21.046 2.77 31.5 2v2c-1.959.184-4.027-.11-6 0-25.584 1.421-35.377-.701-58-11 1.834-2.397-.863-3.044-2.5-4-9.587-5.6-18.949-10.852-27.5-18-6.942-5.803-11.835-10.549-17-18z"/><path fill="#17bbe2" d="M629 610c-19.63 23.138-48.34 45.448-77 56-11.113 4.092-24.633 7.021-37 8l-11-1.5c-1.849-4.548 3.543-15.05 3-18-.078-.423-4.565-4.823-5-7-3.286-16.461 14.664-7.092 12-24.5 1.973-.11 4.041.184 6 0 32.057-3.01 59.566-21.59 79.5-46 6.737 1.952 16.451 24.133 18.5 25.5 2.821 1.882 10.246-.782 11 7.5"/><path fill="#c4d3db" d="M341 755c3.699 7.395 18.324 16.437 27 13-.248.107-1.988 3.266-4.5 3 21.175 7.5 41.622 21.481 63 28 22.887 6.979 47.102 7.622 70.5 12-2.737.952-6.415.927-8 4-122.202-7.346-247.866-104.868-256-233l19 60.5c17.604 40.702 43.676 76.792 77.5 105.5 2.587 2.196 7.956 7.351 11.5 7"/><path fill="#0f618a" d="M456 612c-3.718-1.692-8.514-2.991-12-5-6.321-3.644-11.432-8.4-17-13l-1-4c8.551 7.148 17.913 12.4 27.5 18 1.637.956 4.334 1.603 2.5 4"/><path fill="#114c6c" d="M820 597c-1.048 12.133-2.217 18.748-4 29.5-.143.865 1.588 5.021 1 8-.342 1.73-7.124 25.152-8 27-1.498 3.159-4.853 9.57-8.5 10.5-3.945 1.005-11.674-2.152-14.5 1-1.439-.34-4.436.936-5-1 2.643-3.426 5.999-11.444 7-15.5.838-3.396 1.075-8.614 2-12.5 1.505-6.325 4.284-15.057 5-19l2 1.5c.875-9.904 2.683-19.667 4-29.5z"/><path fill="#395c65" d="M229 602c1.59 12.368 4.14 24.686 6 37l-3 2c-3.053-13.129-5.934-24.476-8-38z"/><path fill="#1596c3" d="M456 612c22.623 10.299 32.416 12.421 58 11 2.664 17.408-15.286 8.039-12 24.5.435 2.177 4.922 6.577 5 7 .543 2.95-4.849 13.452-3 18l11 1.5c-13.681 1.083-28.09 1.505-41.5-2-5.354 2.512 9.013 5.809 10 6 16.934 3.268 32.051 1.268 47.5-1 .221 1.399-2 .767-2 1.5s2.221.101 2 1.5c-23.435 2.188-47.534 1.234-71-5l6.5-4c-22.238-4.732-42.075-15.314-60.5-28l38-36c3.486 2.009 8.282 3.308 12 5"/><path fill="#0797c9" d="M655 613c-24.395 29.783-58.07 52.565-96 61 .084-.073.888-1.547 1-2 41.377-11.14 56.393-30.517 87-55 .349-.279 6.84-3.073 8-4"/><path fill="#9aeffe" d="M647 616v1c-30.607 24.483-45.623 43.86-87 55-6.268 1.688-21.968 3.968-29 5-15.449 2.268-30.566 4.268-47.5 1-.987-.191-15.354-3.488-10-6 13.41 3.505 27.819 3.083 41.5 2 12.367-.979 25.887-3.908 37-8 34.135-4.388 71.092-25.608 95-50"/><path fill="#409fb6" d="M235 639c.816 5.403 5.727 26.936 5 30-5.471-9.041-5.724-18.214-8-28z"/><path fill="#39a1b8" d="M790 644c-.925 3.886-1.162 9.104-2 12.5-1.001 4.056-4.357 12.074-7 15.5 1.718-9.728 4.38-19.243 6-29z"/><path fill="#3cafca" d="M211 654c5.895 17.382 7.52 18.051 27 17-3.518 2.811-15.191 2.737-19.5 1-2.902-1.17-13.393-15.686-7.5-18"/><path fill="#41bfda" d="M560 672c-.112.453-.916 1.927-1 2-4.406 3.842-21.461 5.39-28 6 .221-1.399-2-.767-2-1.5s2.221-.101 2-1.5c7.032-1.032 22.732-3.312 29-5"/><path fill="#122226" d="M369 718c5.826.929 9.959 2.726 14 7 10.983 11.618 8.903 31.073-4.5 40-3.36 2.238-8.143 1.981-10.5 3-8.676 3.437-23.301-5.605-27-13-9.817-19.627 6.783-40.382 28-37m8 45c14.02-8.014 14.938-23.562 5-35-4.053-4.664-1.95-4.482-9-7-46.37-16.564-39.196 66.691 4 42"/><path fill="#122023" d="M681 754c-2.838 6.041-11.512 12.975-18 14-16.485 2.603-30.777-7.892-31-25-.113-8.675 2.567-13.51 8-20 4.399-1.356 6.614-3.906 12-5 21.212-4.31 38.494 15.787 29 36m-37-30c-26.863 17.233.25 55.886 27.5 39 14.373-8.907 14.094-32.91-1.5-40-8.009-7.668-17.977-4.147-26 1"/><path fill="#86b7c1" d="M373 721c-4.946-.268-9.122-.091-14 1-34.742 7.768-10.994 57.786 18 41-43.196 24.691-50.37-58.564-4-42"/><path fill="#567b82" d="M670 723c-7.773-3.534-14.252-3.15-22 0-.748.304-3.556.717-4 1 8.023-5.147 17.991-8.668 26-1"/><path fill="#195d79" d="M670 723c.166.159-.167.841 0 1 13.448 12.835 11.071 34.736-9 39-5.002-4.939-14.062-2.859-18-10.5-8.569-16.626 6.349-31.003 23-27.5l1.5 2-1.5-2c-1.879-3.089-15.481-1.885-18-1v-1c7.748-3.15 14.227-3.534 22 0m-7.5 7c-1.96.325-1.355 3.391 1 3 1.96-.325 1.355-3.391-1-3"/><path fill="#046187" d="M373 721c7.05 2.518 4.947 2.336 9 7v1c.183 1.289.596 2.78 1 4 .888 2.182-.817 4.831-1 6-3.605-11.708-14.8-16.62-26-12-.291-2.114.298-1.354 1-3 .126-.071 1.974-1.549 2-2 4.878-1.091 9.054-1.268 14-1"/><path fill="#052732" d="M359 722c-.026.451-1.874 1.929-2 2-19.47 10.95-17.319 33.842 3 39 19.292 4.897 28.347-13.855 23-30-.404-1.22-.817-2.711-1-4 9.32 7.521 4.096 28.734-5 34-28.994 16.786-52.742-33.232-18-41"/><path fill="#91a4b0" d="M640 723c-5.433 6.49-8.113 11.325-8 20l-3.5-4c-36.366 31.161-79.291 54.518-124.5 70-1.906.653-4.223 1.034-7 2-23.398-4.378-47.613-5.021-70.5-12-21.378-6.519-41.825-20.5-63-28 2.512.266 4.252-2.893 4.5-3 2.357-1.019 7.14-.762 10.5-3 13.403-8.927 15.483-28.382 4.5-40l-.5-3c62.04 25.261 132.773 32.872 199 19 19.461-4.076 40.617-12.489 58.5-18m-128 37c-1.165-.184-2.74-.022-4 0-23.027.399-24.676 41.228.5 43 24.139 1.699 31.807-29.105 11-42-.351-.218-7.876-4.419-7.5-1"/><path fill="#87999f" d="M723 724c-64.15 69.434-139.034 96.709-234 91 1.585-3.073 5.263-3.048 8-4 2.777-.966 5.094-1.347 7-2 43.603 3.263 88.606-7.103 128.5-24 9.656-4.09 23.18-10.164 30.5-17 6.488-1.025 15.162-7.959 18-14 1.696 1.241.735 2.596 3.5 1 5.118-2.954 30.33-27.4 35.5-33-.024 2.527 1.13 3.459 3 2"/><path fill="#051d26" d="M648 723v1c-19.756 6.944-13.387 44.606 13 39 20.071-4.264 22.448-26.165 9-39 22.026 15.558 6.494 46.453-19.5 41-16.656-3.494-21.162-31.645-6.5-41 .444-.283 3.252-.696 4-1"/><path fill="#025071" d="M666 725c-16.651-3.503-31.569 10.874-23 27.5 3.938 7.641 12.998 5.561 18 10.5-26.387 5.606-32.756-32.056-13-39 2.519-.885 16.121-2.089 18 1"/><path fill="#567b82" d="M644 724c-14.662 9.355-10.156 37.506 6.5 41 25.994 5.453 41.526-25.442 19.5-41-.167-.159.166-.841 0-1 15.594 7.09 15.873 31.093 1.5 40-27.25 16.886-54.363-21.767-27.5-39"/><path fill="#2b7d9f" d="M357 724c-.702 1.646-1.291.886-1 3 1.196 8.679 4.836 6.038 5 6.5 1.057 2.983.849 11.541 2 15 .486 1.46 7.461 6.223 5 11.5-2.667 1.01-5.698 1.161-8 3-20.319-5.158-22.47-28.05-3-39"/><path fill="#1eb0d8" d="M382 739c-1.832 11.707-1.537 16.282-14 21 2.461-5.277-4.514-10.04-5-11.5-1.151-3.459-.943-12.017-2-15-.164-.462-3.804 2.179-5-6.5 11.2-4.62 22.395.292 26 12"/><path fill="#025071" d="m666 725 1.5 2z"/><path fill="#86b7c1" d="M377 763c9.096-5.266 14.32-26.479 5-34v-1c9.938 11.438 9.02 26.986-5 35"/><path fill="#7598a8" d="M662.5 730c2.355-.391 2.96 2.675 1 3-2.355.391-2.96-2.675-1-3"/><path fill="#027aa8" d="M360 763c2.302-1.839 5.333-1.99 8-3 12.463-4.718 12.168-9.293 14-21 .183-1.169 1.888-3.818 1-6 5.347 16.145-3.708 34.897-23 30"/><path fill="#6d7b82" d="M632 743c.223 17.108 14.515 27.603 31 25-7.32 6.836-20.844 12.91-30.5 17-39.894 16.897-84.897 27.263-128.5 24 45.209-15.482 88.134-38.839 124.5-70z"/><path fill="#143640" d="m508 760-5 3c-6.197 2.566-10.258 8.607-11 15.5l3-4c-2.845 11.838-.373 19.81 11.5 23.5l-5.5-6.5c7.334.1 14.29 2.358 20.5-2.5-1.064 5.466-6.897 6.457-11.5 7.5 11.873 4.414 19.028-9.821 17.5-20.5l2.5 10.5c.847-8.909-1.923-18.156-10-22.5-1.563-2.862-5.108-3.543-8-4-.376-3.419 7.149.782 7.5 1 20.807 12.895 13.139 43.699-11 42-25.176-1.772-23.527-42.601-.5-43m19.5 30-1.5 1.5.5.5 1.5-.5zm-2 3-1.5 1.5.5.5 1.5-.5zm-24 5c4.58 5.078 13.015 3.372 18.5.5l-11.5 1.5z"/><path fill="#99edf0" d="M508 760c1.26-.022 2.835-.184 4 0 2.892.457 6.437 1.138 8 4-6.291-3.384-10.297-3.776-17-1z"/><path fill="#16bee5" d="M520 764c8.077 4.344 10.847 13.591 10 22.5l-2.5-10.5c1.528 10.679-5.627 24.914-17.5 20.5 4.603-1.043 10.436-2.034 11.5-7.5-6.21 4.858-13.166 2.6-20.5 2.5l5.5 6.5c-11.873-3.69-14.345-11.662-11.5-23.5l-3 4c.742-6.893 4.803-12.934 11-15.5 6.703-2.776 10.709-2.384 17 1m-21.5 4c-.229-.077-3.83 3.381-2 4 .229.077 3.83-3.381 2-4m16 0c-2.327-.108-1.162 5.199 1 4 1.406-.78-.036-3.955-1-4"/><path fill="#053b50" d="M498.5 768c1.83.619-1.771 4.077-2 4-1.83-.619 1.771-4.077 2-4"/><path fill="#e4f7fd" d="M514.5 768c.964.045 2.406 3.22 1 4-2.162 1.199-3.327-4.108-1-4"/><path fill="#70acbb" d="m527.5 790 .5 1.5-1.5.5-.5-.5z"/><path fill="#5f8b8e" d="m525.5 793 .5 1.5-1.5.5-.5-.5z"/><path fill="#90acba" d="m501.5 798 7 2 11.5-1.5c-5.485 2.872-13.92 4.578-18.5-.5"/></svg>