<svg xmlns="http://www.w3.org/2000/svg" width="1024" height="1024"><defs><linearGradient id="a" x1="716.219" x2="814.259" y1="343.507" y2="357.262" gradientUnits="userSpaceOnUse"><stop offset="0%" style="stop-color:#225f81"/><stop offset="100%" style="stop-color:#0d486c"/></linearGradient></defs><defs><linearGradient id="b" x1="700.61" x2="807.438" y1="519.767" y2="525.844" gradientUnits="userSpaceOnUse"><stop offset="0%" style="stop-color:#a3b7be"/><stop offset="100%" style="stop-color:#8399a0"/></linearGradient></defs><defs><linearGradient id="c" x1="600.015" x2="420.09" y1="425.038" y2="592.796" gradientUnits="userSpaceOnUse"><stop offset="0%" style="stop-color:#000b19"/><stop offset="100%" style="stop-color:#035577"/></linearGradient></defs><defs><linearGradient id="d" x1="355.479" x2="354.002" y1="461.919" y2="506.894" gradientUnits="userSpaceOnUse"><stop offset="0%" style="stop-color:#20b5d2"/><stop offset="100%" style="stop-color:#27d4ec"/></linearGradient></defs><defs><linearGradient id="e" x1="411.475" x2="587.989" y1="529.672" y2="672.402" gradientUnits="userSpaceOnUse"><stop offset="10.573%" style="stop-color:#2bdaf1"/><stop offset="100%" style="stop-color:#0d98bc"/></linearGradient></defs><defs><linearGradient id="f" x1="736.58" x2="524.606" y1="696.504" y2="738.014" gradientUnits="userSpaceOnUse"><stop offset="0%" style="stop-color:#1b5f85"/><stop offset="100%" style="stop-color:#518cab"/></linearGradient></defs><defs><linearGradient id="g" x1="587.564" x2="444.269" y1="784.961" y2="856.142" gradientUnits="userSpaceOnUse"><stop offset="0%" style="stop-color:#1d516d"/><stop offset="100%" style="stop-color:#44748c"/></linearGradient></defs><path fill="#0c6e89" d="m549 168 76.5 18c1.151 3.66 1.297 5.525-2.5 7-29.151-9.196-59.447-14.371-90-16-13.47-.718-25.53-.745-39 0-5.298-3.887 8-.87 8-2.5-6.347-.695-10.033.596-8-7.5 18.26-.672 36.798-.682 55 1"/><path fill="#0b9fba" d="M494 167c-2.033 8.096 1.653 6.805 8 7.5 0 1.63-13.298-1.387-8 2.5-9.582.53-18.537 1.743-28 3-4.752.631-9.269 1.182-14 2-.2-4.603-4.852.713-7-1.5-.641-.66-1.21-7.05-1-8.5 17.042-2.955 32.695-4.363 50-5"/><path fill="#05324f" d="m641 191-1 8c-1.922-.731-6.009-1.303-8-2-2.89-1.012-6.098-3.085-9-4 3.797-1.475 3.651-3.34 2.5-7L549 168c19.439 1.796 78.051 11.893 92 23"/><path fill="#06c1db" d="M444 172c-.21 1.45.359 7.84 1 8.5 2.148 2.213 6.8-3.103 7 1.5-43.775 7.569-82.247 21.536-120 45 2.786-5.385.523-6.856-2-12 33.992-20.891 74.592-36.168 114-43"/><path fill="#c8eef8" d="M533 177c-3.494 9.36 2.385 2.649 4 8-4.813-.31-9.346.082-14 0-17.62-.31-28.44.052-46 2-3.346.371-6.631.538-10 1l-1-8c9.463-1.257 18.418-2.47 28-3 13.47-.745 25.53-.718 39 0"/><path fill="#95d1e8" d="M623 193c2.902.915 6.11 2.988 9 4l-1 5.5 2.5-3.5 1.5 7c-32.811-12.156-62.89-18.739-98-21-1.615-5.351-7.494 1.36-4-8 30.553 1.629 60.849 6.804 90 16"/><path fill="#f2fbfe" d="m466 180 1 8c-20.088 2.754-39.673 6.872-59 13-23.866 7.567-46.412 18.493-68 31-12.002 6.953-35.045 26.418-43 30-5.021 2.261-2.617-3.216-9 0 12.335-14.257 28.087-25.11 44-35 37.753-23.464 76.225-37.431 120-45 4.731-.818 9.248-1.369 14-2"/><path fill="#81bcd7" d="M523 185c16.06 28.543 31.308 57.705 38.5 90l82 17c1.634-1.328-1.571-18.089 4.5-20-1.065 4.162-4.679 17.862-2.5 21 .597.86 17.7 6.775 19.5 4.5.349-.442-4.786-6.538 0-9.5 4.325 15.69 18.726 15.325 30 19 2.856.931 5.911-2.162 4 3-2.708.689-6.677.599-9.5 0 58.622 29.406 108.024 74.862 144.5 130-.29 1.186.564 2.996-.5 4-.168.099-2.258-2.643-2.5-3-35.738-52.719-82.287-96.118-140-124-40.663-19.645-88.972-33.616-134-38 1.066-2.397 2.454.804 1.5-2-.068-.201-2.79-2.967-3-3-11.195-1.761-28.788-1.064-40.5-1-8.078-30.38-20.201-60.098-38-86 17.56-1.948 28.38-2.31 46-2"/><path fill="#6ba3bf" d="M537 185c35.11 2.261 65.189 8.844 98 21 1.252.464 1.896.96 2 1l18 45.5c.087 3.092-6.084 15.919-7 19.5-6.071 1.911-2.866 18.672-4.5 20l-82-17c-7.192-32.295-22.44-61.457-38.5-90 4.654.082 9.187-.31 14 0"/><path fill="#a5d7ec" d="M477 187c17.799 25.902 29.922 55.62 38 86-18.722.102-37.415 1.006-56 3-2.71.291-6.255-.095-7 0l-44-75c19.327-6.128 38.912-10.246 59-13 3.369-.462 6.654-.629 10-1"/><path fill="#0c6e89" d="M643 200c-.88-.346-1.879-.574-3-1l1-8c3.459 2.754 9.405 5.961 2 9"/><path fill="#022841" d="M837 475c-1.474 2.203-2.769-.622-3 3.5-.427 7.629.84 15.498 0 24.5l-3-25c-.023-2.906.81-5.875 0-8.5-1.809-5.865-27.435-39.383-33-46-18.793-22.347-39.569-40.389-63-57.5-11.807-8.622-23.122-16.938-36-24 10.369-21.444-3.828-12.705-7.5-19-.612-1.049 4.092-.981-.5-6 57.713 27.882 104.262 71.281 140 124-.069-.14-2.592-1.76-3-.5-.571 1.762 5.557 5.678 3 .5.242.357 2.332 3.099 2.5 3 1.064-1.004.21-2.814.5-4 3.441-14.059-16.199-62.707-23-77.5-8.928-19.421-20.967-39.373-33-57l5 1c-6.856-6.662-13.481-13.52-20-20.5-35.91-38.445-70.245-66.439-120-86 7.405-3.039 1.459-6.246-2-9 88.762 30.376 166.223 114.732 190 205.5 2.125 8.113 9.741 44.483 7 50-.906 1.824-4.892 3.699-5 4-.423 1.178-.26 16.696 0 19 .115 1.024 3.757 1.403 0 4 1.065 2.124 3.073 1.093 4 1.5"/><path fill="#68abcd" d="M640 199c1.121.426 2.12.654 3 1 49.755 19.561 84.09 47.555 120 86-12.029-8.889-23.988-17.968-36-27-31.6-23.761-52.43-37.666-90-52-.104-.04-.748-.536-2-1l-1.5-7-2.5 3.5 1-5.5c1.991.697 6.078 1.269 8 2"/><path fill="#bfe9f7" d="M452 276c-23.954 3.067-50.967 9.785-74 17-3.656-5.789-1.44-13.556-3-19.5-4.594-17.508-23.386-28.725-35-41.5 21.588-12.507 44.134-23.433 68-31z"/><path fill="#48758e" d="M727 259c8.724 24.956-3.029 44.642-28 51 1.911-5.162-1.144-2.069-4-3 37.591-8.068 26.111-57.962-11.5-52-14.639 2.321-22.238 19.439-18.5 33-4.786 2.962.349 9.058 0 9.5-1.8 2.275-18.903-3.64-19.5-4.5-2.179-3.138 1.435-16.838 2.5-21 .916-3.581 7.087-16.408 7-19.5L637 207c37.57 14.334 58.4 28.239 90 52"/><path fill="#0b9fba" d="M332 227c-15.913 9.89-31.665 20.743-44 35-18.559 9.35-62.814 76.791-74 97-8.319 15.031-16.726 30.355-23 46.5-1.092 2.811.384 11.106-5 11.5 13.045-80.855 75.318-159.788 144-202 2.523 5.144 4.786 6.615 2 12"/><path fill="#bad6e1" d="M340 232c11.614 12.775 30.406 23.992 35 41.5 1.56 5.944-.656 13.711 3 19.5-7.996 2.505-16.94 9.046-25 8 4.26-3.892 14.725-19.432 6-23-3.311-33.264-57.659-25.89-51 7-6.687 4.274 10.154 21.203 13.5 23 .457.245 9.087-1.705 9 3-22.351-.922-42.063-25.908-33.5-48v-1c7.955-3.582 30.998-23.047 43-30"/><path fill="#0a1723" d="M695 307c-11.274-3.675-25.675-3.31-30-19-3.738-13.561 3.861-30.679 18.5-33 37.611-5.962 49.091 43.932 11.5 52m-26-38c-12.323 24.432 17.83 43.556 37.5 30 13.092-9.022 10.823-28.59-1.5-37-11.895-8.118-29.066-6.748-36 7"/><path fill="#1b4c62" d="M359 278c.199 1.996.307 6.141 0 8l-2-1c1.526-8.682-1.285-14.138-7-20-22.215-22.787-61.354 12.245-28 37-6.845-2.961-12.504-9.612-14-17-6.659-32.89 47.689-40.264 51-7"/><path fill="#c0eef2" d="m705 262-1 1c-10.192-6.515-28.553-4.539-34 7l-1-1c6.934-13.748 24.105-15.118 36-7"/><path fill="#effbfb" d="M350 265h-1c-53.005-23.724-41.258 57.134-3 32v2c-8.917 6.136-13.975 7.336-24 3-33.354-24.755 5.785-59.787 28-37"/><path fill="#054360" d="M704 263c11.746 7.508 13.508 26.21 1.5 34-19.101 12.392-46.256-4.215-35.5-27 5.447-11.539 23.808-13.515 34-7m-22 26c12.39 28.021 47.337-12.338 20-23-19.238-7.503-28.159 4.547-20 23"/><path fill="url(#a)" d="M763 286c6.519 6.98 13.144 13.838 20 20.5l-5-1c12.033 17.627 24.072 37.579 33 57 6.801 14.793 26.441 63.441 23 77.5-36.476-55.138-85.878-100.594-144.5-130 2.823.599 6.792.689 9.5 0 24.971-6.358 36.724-26.044 28-51 12.012 9.032 23.971 18.111 36 27" style="fill:url(#a)"/>/&gt;<path fill="#c8eef8" d="M297 262v1c-39.247 34.869-67.449 78.691-93 124 3.529-9.175 4.993-19.295 10-28 11.186-20.209 55.441-87.65 74-97 6.383-3.216 3.979 2.261 9 0"/><path fill="#021e2f" d="M349 265c8.889 9 7.564 25.06-3 32-38.258 25.134-50.005-55.724 3-32m-20.5-2c-23.037 3.701-16.876 39.803 8 36 21.357-3.265 19.214-40.372-8-36"/><path fill="#44bdd4" d="m669 269 1 1c-10.756 22.785 16.399 39.392 35.5 27 12.008-7.79 10.246-26.492-1.5-34l1-1c12.323 8.41 14.592 27.978 1.5 37-19.67 13.556-49.823-5.568-37.5-30"/><path fill="#82b3cd" d="M308 285c1.496 7.388 7.155 14.039 14 17 13.177 9.78 34.39-.188 37-16 .307-1.859.199-6.004 0-8 8.725 3.568-1.74 19.108-6 23-10.194 9.314-40.661 22.83-54.5 32-41.239 27.327-73.337 60.78-106.5 97 2.024-22.621 4.625-23.825 12-43 25.551-45.309 53.753-89.131 93-124-8.563 22.092 11.149 47.078 33.5 48 .087-4.705-8.543-2.755-9-3-3.346-1.797-20.187-18.726-13.5-23"/><path fill="#11bedb" d="M328.5 263c27.214-4.372 29.357 32.735 8 36-24.876 3.803-31.037-32.299-8-36m2 5c-6.093 1.665-7.34 21.362-3 23 7.837 2.959 16.979-26.819 3-23"/><path fill="#0f7e9f" d="M702 266c-2.653-.71-1.861 1.974-2 2-.523.097-2.986-2.265-4-.5-.352.613.327 5.198 0 7.5-5.743-7.088-8.783 6.559-8 10-1.842 2.202-6.281-.482-6 4-8.159-18.453.762-30.503 20-23"/><path fill="#89e8f2" d="M357 285c-1.002 5.701-6.559 10.944-11 14v-2c10.564-6.94 11.889-23 3-32h1c5.715 5.862 8.526 11.318 7 20"/><path fill="#0c95b6" d="M702 266c27.337 10.662-7.61 51.021-20 23-.281-4.482 4.158-1.798 6-4 1.397 6.141 6.793.756 8-3 11.874 10.612 11.247-7.532 4-14 .139-.026-.653-2.71 2-2"/><path fill="#10a5c7" d="M700 268c7.247 6.468 7.874 24.612-4 14 .495-1.539-.287-4.98 0-7 .327-2.302-.352-6.887 0-7.5 1.014-1.765 3.477.597 4 .5"/><path fill="#31dbf0" d="M330.5 268c13.979-3.819 4.837 25.959-3 23-4.34-1.638-3.093-21.335 3-23"/><path fill="#c2ecf6" d="M515 273c11.712-.064 29.305-.761 40.5 1 .21.033 2.932 2.799 3 3 .954 2.804-.434-.397-1.5 2-7.604-.74-15.366-1.69-23-2-23.859-.969-47.37.42-71 3l-4-4c18.585-1.994 37.278-2.898 56-3"/><path fill="#19a5c1" d="M696 275c-.287 2.02.495 5.461 0 7-1.207 3.756-6.603 9.141-8 3-.783-3.441 2.257-17.088 8-10"/><path fill="#e7f7fa" d="m459 276 4 4c-28.344 3.095-50.071 8.122-77 17-72.215 23.807-118.927 59.349-171 113-7.918 8.158-17.316 15.09-23.5 25-1.319-1.731.325-3.048.5-5 33.163-36.22 65.261-69.673 106.5-97 13.839-9.17 44.306-22.686 54.5-32 8.06 1.046 17.004-5.495 25-8 23.033-7.215 50.046-13.933 74-17 .745-.095 4.29.291 7 0"/><path fill="#0b5970" d="m534 277 2 7.5c-.743 1.028-6.35.37-8 .5-52.664 4.147-88.435 2.14-141 18l-1-6c26.929-8.878 48.656-13.905 77-17 23.63-2.58 47.141-3.969 71-3"/><path fill="#09425b" d="M557 279c45.028 4.384 93.337 18.355 134 38 4.592 5.019-.112 4.951.5 6 3.672 6.295 17.869-2.444 7.5 19-46.133-25.298-98.362-40.162-151-44-9.358-6.127-23.247 4.672-20-13 1.65-.13 7.257.528 8-.5l-2-7.5c7.634.31 15.396 1.26 23 2"/><path fill="#11303b" d="M359 286c-2.61 15.812-23.823 25.78-37 16 10.025 4.336 15.083 3.136 24-3 4.441-3.056 9.998-8.299 11-14z"/><path fill="#16677e" d="M528 285c-3.247 17.672 10.642 6.873 20 13-55.829-4.07-112.545 1.539-165 21 8.781-6.213-.96-6.617-1-14 1.799-.577 3.74-1.62 5-2 52.565-15.86 88.336-13.853 141-18"/><path fill="#063c52" d="m386 297 1 6c-1.26.38-3.201 1.423-5 2-59.121 18.943-118.609 57.145-160 103.5-4.815 5.392-25.65 35.291-29 36.5l22-35c52.073-53.651 98.785-89.193 171-113"/><path fill="#8098a3" d="M548 298c52.638 3.838 104.867 18.702 151 44 12.878 7.062 24.193 15.378 36 24-6.26-1.876-9.138 7.739-9 12-25.041-18.335-53.679-32.956-82-45.5 56.303 42.44 101.056 107.788 95 181-6.713 81.16-55.99 161.552-132 194 34.26-8.722 68.515-25.601 98-45.5l5 11c-47.423 29.904-97.787 50.111-154 57-10.575-1.028-28.091 1.159-40 1-23.899-3.21-48.179.591-69.5-13 14.202 2.184 28.631 6.052 43 7 8.03.53 64.253-.333 68-3 .945-.672.933-11.164-.5-13 14.679-3.273 25.531-7.248 39-13 92.914-39.68 142.572-133.088 121-233-15.596-72.234-71.472-130.588-142-151-84.371-24.419-174.663.004-229 70-.897.842-3.294 2.192-4 3-2.139 3.725-9.348-4.467-9-7 13.427-15.883 28.451-29.771 43.5-44-23.773 9.898-45.573 23.178-66.5 38l-6-14c15.312-9.925 31.051-19.059 47.5-27 7.318-3.533 26.602-8.534 31.5-12 52.455-19.461 109.171-25.07 165-21"/><path fill="#033552" d="M575 312c-1.54 1.334-1.98 3.091-4.5 3-5.972-.215-19.467-5.139-27-6-69.779-7.974-133.641 11.536-182.5 62-2.273 2.348-4.837 4.474-7 7-1.341-3.521-5.454 1.61-8 4 54.337-69.996 144.629-94.419 229-70"/><path fill="#0a465f" d="M383 319c-4.898 3.466-24.182 8.467-31.5 12-16.449 7.941-32.188 17.075-47.5 27-15.993 10.366-30.73 21.356-45 34-10.664 9.449-44.816 41.882-50 53l-19 26c-.523-7.237 1.2-18.215 0-26 1.58-.256 2.547.164 3 0 3.35-1.209 24.185-31.108 29-36.5 41.391-46.355 100.879-84.557 160-103.5.04 7.383 9.781 7.787 1 14"/><path fill="#055377" d="M575 312c70.528 20.412 126.404 78.766 142 151l-2.5-4c-1.388-1.029-3.33 1.622-3.5 2.5-.299 1.55 5.662 25.628 6 31 4.081 64.821-18.936 119.961-67 162.5-12.496-13.665-14.894-3.068-27 5-1.006-1.207-3.278-5.74-4.5-6-.241-.051-2.912 1.494-4.5 2 17.299-13.003 34.285-27.213 47-45 6.327 2.235 4.045 6.863 10 .5 12.123-12.955 26.374-54.311 29-72C722.186 390.034 571.626 279.654 434.5 337L407 352c-21.002 2.578-38.306 16.932-51 33 2.638-5.765 9.669-10.396 5-14 48.859-50.464 112.721-69.974 182.5-62 7.533.861 21.028 5.785 27 6 2.52.091 2.96-1.666 4.5-3"/><path fill="#043653" d="M661 611c18.671-26.119 29.26-55.884 31-88 1.268-23.389-1.711-46.702-9-69-4.555-13.935-11.69-25.5-19-38-33.582-57.426-91.257-89.603-159-87-30.611 1.176-52.231 11.095-80 21-1.151.41-2.414-.649-2 2-5.114-.919-10.808-.637-16 0l27.5-15c137.126-57.346 287.686 53.034 265.5 202.5-2.626 17.689-16.877 59.045-29 72-5.955 6.363-3.673 1.735-10-.5"/><path fill="#377693" d="M505 329c.752 1.678-2.733 2.846-3.5 3-13.242 2.656-26.053 3.429-39 8-11.479 4.053-27.368 19.287-37.5 10 27.769-9.905 49.389-19.824 80-21"/><path fill="#044f70" d="m664 416-41 16c-29.378-41.649-82.698-65.601-133.5-59-4.824.627-23.706 7.104-25 7-.23-.019-2.31-2.263-3.5-3-9.332-5.778-11.771-14.952-26-20-2.766-1.86-8.935-4.449-12-5-.414-2.649.849-1.59 2-2 10.132 9.287 26.021-5.947 37.5-10 12.947-4.571 25.758-5.344 39-8 .767-.154 4.252-1.322 3.5-3 67.743-2.603 125.418 29.574 159 87"/><path fill="url(#b)" d="M726 378c25.419 18.612 50.189 43.237 69 68.5 13.012 17.475 24.666 31.354 24 54-2.12 72.115-58.545 124.074-114 161.5-29.485 19.899-63.74 36.778-98 45.5 76.01-32.448 125.287-112.84 132-194 6.056-73.212-38.697-138.56-95-181 28.321 12.544 56.959 27.165 82 45.5" style="fill:url(#b)"/>/&gt;<path fill="#dbe6e9" d="M333 378c-14.097 16.675-25.647 32.623-34 53-15.661 38.207-15.543 73.536-9 114 12.64 78.167 65.925 142.459 140.5 169-71.8-19.704-161.207-70.58-202.5-134-11.239-17.261-17.994-34.801-22-55-6.991-35.251-6.164-38.42 14-67 8.865-12.565 21.157-27.137 32-38 17.244-17.276 38.08-33.891 58-48 20.927-14.822 42.727-28.102 66.5-38-15.049 14.229-30.073 28.117-43.5 44"/><path fill="#f1f9fa" d="M423 352c3.065.551 9.234 3.14 12 5-29.966-10.631-51.478 4.107-70 26.5L347 415c0-.662-.016-1.339 0-2 1.495-9.948 4.852-18.935 9-28 12.694-16.068 29.998-30.422 51-33 5.192-.637 10.886-.919 16 0"/><path fill="#def4f9" d="M435 357c14.229 5.048 16.668 14.222 26 20 10.555 16.486 14.273 34.473 12 54l-2 1c-.864-17.499 1.94-36.451-10.5-51-28.563 11.637-55.126 33.559-70.5 60.5-4.678 8.198-10.507 20.237-11 29.5-.265-.134-.743.139-1 0-13.658-7.402-25.017-23.049-29-38-.354-1.33-.723-2.646-1-4-.809-3.951-.756-6.14-1-10-.083-1.311 0-2.682 0-4l18-31.5c18.522-22.393 40.034-37.131 70-26.5"/><path fill="#a6bcc6" d="M310 372c-19.92 14.109-40.756 30.724-58 48l-9-10.5 16-17.5c14.27-12.644 29.007-23.634 45-34z"/><path fill="#0a7b97" d="M204 387c-7.375 19.175-9.976 20.379-12 43-.175 1.952-1.819 3.269-.5 5 6.184-9.91 15.582-16.842 23.5-25l-22 35c-.453.164-1.42-.256-3 0-2.158.35-6.314 2.344-7 .5.003-9.553 1.489-19.135 3-28.5 5.384-.394 3.908-8.689 5-11.5 6.274-16.145 14.681-31.469 23-46.5-5.007 8.705-6.471 18.825-10 28"/><path fill="#6b838c" d="M735 366c23.431 17.111 44.207 35.153 63 57.5 5.565 6.617 31.191 40.135 33 46 .81 2.625-.023 5.594 0 8.5.226 28.337-9.376 62.46-16 90-4.393 15.927-12.528 25.435-23 37.5-22.659 26.105-52.871 49.132-82 67.5l-5-11c55.455-37.426 111.88-89.385 114-161.5.666-22.646-10.988-36.525-24-54-18.811-25.263-43.581-49.888-69-68.5-.138-4.261 2.74-13.876 9-12"/><path fill="#087a9e" d="M356 385c-4.148 9.065-7.505 18.052-9 28 .248-9.977 4.464-16.402 0-25 2.388-3.229 4.34-6.894 7-10 2.163-2.526 4.727-4.652 7-7 4.669 3.604-2.362 8.235-5 14"/><path fill="url(#c)" d="M623 432c5.185 7.35 9.325 15.779 13 24-2.362.714-1.77 1.83-1 3.5 19.316 41.899 11.742 94.951-16 132-4.301 5.744-10.542 10.139-14 16.5-67.967 61.424-182.167 41.959-220-43-.124-.279.121-.719 0-1 13.373-11.434 15.308-37.273-8-36-2.351-1.392-2.819-6.841-3-9-1.315-15.656 1.708-32.542 4-48 .257.139.735-.134 1 0 25.288 12.8 51.841 5.514 72-13-.174.928.049 2.033 0 3-5.807 15.485.325 32.003 12 43 10.708 10.086 25.296 14.841 39 19.5v51l-18-7.5h-1c-2.737-2.279-11.708-11.649-12.5-12-15.02-6.654-16.144 10.542-9.5 20.5 6.472 9.699 20.959 11.75 31 14.5 3.668 1.005 7.352 1.429 11 2.5-4.145 41.347 21.413 43.731 16 0 32.43-4.566 60.293-30.13 46-64.5-8.32-20.006-26.851-25.255-46-30.5l.5-55.5c5.594-4.319 39.136 51.373 43.5 19 2.793-20.718-25.455-35.219-43-36-.786-4.681 1.23-30.361-2.5-32-14.752-6.483-13.698 19.724-13 28-7.378-.938-12.901 1.359-19.5 4-3.28 1.312-8.094 3.979-11 6h-1c2.273-19.527-1.445-37.514-12-54 1.19.737 3.27 2.981 3.5 3 1.294.104 20.176-6.373 25-7 50.802-6.601 104.122 17.351 133.5 59m-39.5-4c-6.012 1.764-7.882 14.777-1 18 11.947 5.595 17.829-22.937 1-18m15 24c-3.47.289-6.809 7.249-3 9 6.196 2.849 11.112-9.675 3-9" style="fill:url(#c)"/>/&gt;<path fill="#075b78" d="M354 378c-2.66 3.106-4.612 6.771-7 10-12.029 16.265-20.068 30.278-28 49l-5-1c5.243-13.717 18.524-40.154 28-51 .706-.808 3.103-2.158 4-3 2.546-2.39 6.659-7.521 8-4"/><path fill="#a6bcc6" d="M342 385c-9.476 10.846-22.757 37.283-28 51-.457 1.196-.962 1.895-1 2l-14-7c8.353-20.377 19.903-36.325 34-53-.348 2.533 6.861 10.725 9 7"/><path fill="#d1dde3" d="M471 432c.033.659-.015 1.339 0 2-5.005 4.07-18.884 18.032-20 24-20.159 18.514-46.712 25.8-72 13 .493-9.263 6.322-21.302 11-29.5 15.374-26.941 41.937-48.863 70.5-60.5 12.44 14.549 9.636 33.501 10.5 51"/><path fill="#14a6c4" d="M347 413c-.016.661 0 1.338 0 2 0 1.318-.083 2.689 0 4-7.141 10.64-13.239 24.724-17 37a167 167 0 0 0-5 21l-16-2.5c-4.04 25.024-4.351 51.108 1 76 .544 2.531 5.219 20.237 6 21 .705.689 12.724-4.997 16-2.5 7.319 21.799 16.709 37.24 31 55 51.462 63.95 133.756 86.932 212 61l5 12c-18.079 6.162-40.878 11.214-60 12-39.735 1.634-79.886-9.201-114-29-26.784-15.544-53.426-40.273-70-66.5-3.493-5.528-17.5-35.358-19.5-36.5-2.703-1.544-.309 1.363-3.5 1-4.472-12.258-8.007-24.045-10-37-4.607-29.953-2.848-57.816 5-87 7.743 5.22 8.594-11.321 11-17 7.932-18.722 15.971-32.735 28-49 4.464 8.598.248 15.023 0 25"/><path fill="#c3d2d9" d="M252 420c-10.843 10.863-23.135 25.435-32 38-5.091-5.16-14.07-6.416-11-13 5.184-11.118 39.336-43.551 50-53l-16 17.5z"/><path fill="#07d0ec" d="M520 425c-7.634-.34-23.49.09-29 5-1.152-2.104-4.552-3.134-6-5 6.599-2.641 12.122-4.938 19.5-4-.698-8.276-1.752-34.483 13-28 3.73 1.639 1.714 27.319 2.5 32"/><path fill="#106d8d" d="M664 416c7.31 12.5 14.445 24.065 19 38-13.168-8.743-30.727 2.844-45 5-.089-.217-1.877-2.724-2-3-3.675-8.221-7.815-16.65-13-24z"/><path fill="#0b7996" d="M348 429c-3.734 9.999-8.867 19.791-12 30-1.943-2.53-2.385-3.576-6-3 3.761-12.276 9.859-26.36 17-37 .244 3.86.191 6.049 1 10"/><path fill="#d0f4f9" d="M491 430c.305.557-.316 2.728 1 4-13.9 5.018-36.141 26.257-35 42.5.244 3.475 9.966 19.775 6.5 20.5-9.508-6.339-13.056-25.09-12.5-36 .049-.967-.174-2.072 0-3 1.116-5.968 14.995-19.93 20-24 1.155-.939 2.678-2.776 3-3 2.906-2.021 7.72-4.688 11-6 1.448 1.866 4.848 2.896 6 5"/><path fill="#3de6f5" d="M520 425c17.545.781 45.793 15.282 43 36-3.028-3.657-2.023-7.47-5-12.5-11.626-19.641-46.818-21.424-66-14.5-1.316-1.272-.695-3.443-1-4 5.51-4.91 21.366-5.34 29-5"/><path fill="#bad7df" d="M583.5 428c16.829-4.937 10.947 23.595-1 18-6.882-3.223-5.012-16.236 1-18"/><path fill="#8dd2df" d="M349 433c-14.215 25.263-18.689 54.282-18 83-.999-.141-1.12-1.042-2-1-.637-23.067.223-33.917 7-56 3.133-10.209 8.266-20.001 12-30 .277 1.354.646 2.67 1 4"/><path fill="#c3d2d9" d="M313 438c-1.862 5.114-3.586 10.742-5 16-7.848 29.184-9.607 57.047-5 87l-13 4c-6.543-40.464-6.661-75.793 9-114z"/><path fill="#4c908f" d="M474 431c-.322.224-1.845 2.061-3 3-.015-.661.033-1.341 0-2l2-1z"/><path fill="#15c6e2" d="M563 461c-4.364 32.373-37.906-23.319-43.5-19l-.5 55.5c19.149 5.245 37.68 10.494 46 30.5l1 9.5c-3.314.968-1.897-6.755-6-2 7.302 25.451-12.589 49.202-40 51.5.044-.56-3.554-8.798-4-10.5-.229-.874 2.341-4.033.5-5.5-.391-.312-9.528-.164-10 0-2.606.905-2.435 10.231-2.5 12l-6-3c-1.849-2.419-12.706-11.09-15-13h1c.955 3.105 18.479 10.439 19 9.5l1-54-41-18.5c-11.675-10.997-17.807-27.515-12-43-.556 10.91 2.992 29.661 12.5 36 3.466-.725-6.256-17.025-6.5-20.5-1.141-16.243 21.1-37.482 35-42.5 19.182-6.924 54.374-5.141 66 14.5 2.977 5.03 1.972 8.843 5 12.5m-63.5-16c-3.186.042-13.239 5.817-15.5 8.5-14.719 17.464 1.17 35.825 19.5 40.5l.5-48.5c-.632-.893-3.4-.514-4.5-.5M519 575c.108 1.349.315 2.618-1 3.5 19.86-.942 27.881-20.91 16-37.5-1.329-1.856-13.067-13.965-15-10.5.847 14.483-1.142 30.186 0 44.5m-10.5-44v6c2.043-1.95 4.027-5.466 0-6"/><path fill="url(#d)" d="M378 471c-2.292 15.458-5.315 32.344-4 48-13.544-3.47-29.748-1.134-43-3-.689-28.718 3.785-57.737 18-83 3.983 14.951 15.342 30.598 29 38" style="fill:url(#d)"/>/&gt;<path fill="#058daa" d="M319 437c-2.406 5.679-3.257 22.22-11 17 1.414-5.258 3.138-10.886 5-16 .038-.105.543-.804 1-2z"/><path fill="#1e7e9c" d="M831 441c2.557 5.178-3.571 1.262-3-.5.408-1.26 2.931.36 3 .5"/><path fill="#dce7eb" d="M220 458c-20.164 28.58-20.991 31.749-14 67l-6 .5c.953 3.373-.09 7.282 0 10.5-4.089-21.017-7.331-42.634-9-64-.006-.07-.904.332-1-1l19-26c-3.07 6.584 5.909 7.84 11 13"/><path fill="#05304b" d="M499.5 445c1.1-.014 3.868-.393 4.5.5l-.5 48.5c-18.33-4.675-34.219-23.036-19.5-40.5 2.261-2.683 12.314-8.458 15.5-8.5"/><path fill="#1598b8" d="M683 454c7.289 22.298 10.268 45.611 9 69-12.652-9.619-28.228-9.486-43-13-.059-15.891-4.971-36.292-11-51 14.273-2.156 31.832-13.743 45-5"/><path fill="#bce2e6" d="M598.5 452c8.112-.675 3.196 11.849-3 9-3.809-1.751-.47-8.711 3-9m-1 3c-4.134 2.462 4.138 3.433 2.5.5-.366-.656-2.088-.746-2.5-.5"/><path fill="#162838" d="M597.5 455c.412-.246 2.134-.156 2.5.5 1.638 2.933-6.634 1.962-2.5-.5"/><path fill="#08b1cc" d="M336 459c-6.777 22.083-7.637 32.933-7 56 1.072 38.806 10.836 68.865 34 100 .979 1.316 1.977 2.726 3 4l-3 5c-14.291-17.76-23.681-33.201-31-55-10.512-31.311-12.561-59.287-7-92a167 167 0 0 1 5-21c3.615-.576 4.057.47 6 3"/><path fill="#010912" d="M638 459c6.029 14.708 10.941 35.109 11 51 .06 16.034-4.907 31.472-8 47-12.64 20.28-17.204 34.013-36 51 3.458-6.361 9.699-10.756 14-16.5 27.742-37.049 35.316-90.101 16-132-.77-1.67-1.362-2.786 1-3.5.123.276 1.911 2.783 2 3"/><path fill="#074864" d="M717 463c21.572 99.912-28.086 193.32-121 233-4.075-1.266-4.949 3.66-7-2 22.539-8.909 42.963-23.036 61-39 48.064-42.539 71.081-97.679 67-162.5-.338-5.372-6.299-29.45-6-31 .17-.878 2.112-3.529 3.5-2.5z"/><path fill="#011c2e" d="M200 536c.181 6.486 4.824 31.031 7 37l-.5 2c-1.051-3.477-3.479-3.892-6.5-2-1.121-4.977-3.228-11.437-4-16-2.448-14.466-9.692-70.815-6-82 .36-1.091 1.376-1.606 1-3 1.669 21.366 4.911 42.983 9 64"/><path fill="#33e3f6" d="M325 477c-5.561 32.713-3.512 60.689 7 92-3.276-2.497-15.295 3.189-16 2.5-.781-.763-5.456-18.469-6-21-5.351-24.892-5.04-50.976-1-76z"/><path fill="#368b9f" d="M190 475c-3.692 11.185 3.552 67.534 6 82-4.524-4.186-9.517-2.894-15-3l-8-61.5c-.969-2.598-16.818 5.348-18.5 6.5-4.473 3.065-7.227 6.018-9.5 11-1.499 3.286-1.399 3.55-2 7-3.7.128-3.741 6.874-4 10-5.171-31.934 24.113-47.719 51-52"/><path fill="#195271" d="m879 509-2 3c-2.045-5.734-14.298-14.162-20-16-2.359-.761-5.94-3.132-7-.5-1.504 19.309-3.031 39.459-6 58.5-.378 2.427-.982 1.89-1 2-2.398-4.176-13.206.144-17 1 3.79-16.045 6.457-37.455 8-54 .84-9.002-.427-16.871 0-24.5.231-4.122 1.526-1.297 3-3.5 16.995 7.457 36.668 13.852 42 34"/><path fill="#000b18" d="M834 503c-1.543 16.545-4.21 37.955-8 54-2.103 8.901-7.427 30.659-15 34 3.01-5.887 2.329-16.052 4-23 6.624-27.54 16.226-61.663 16-90z"/><path fill="#9ee8f4" d="M181 554c-.333-.006-.667-.002-1 0-5.111.038-11.032-.377-16 1-3.811-15.941-17.489-35.092-7-50.5l-12 5.5c2.273-4.982 5.027-7.935 9.5-11 1.682-1.152 17.531-9.098 18.5-6.5z"/><path fill="#35b3c8" d="m857 496 14 17-11-8.5c-.097 13.645-3.454 28.38-2 42 .296 2.773 5.427 3.555 1 9.5-4.9-1.254-9.862-2.389-15-2 2.969-19.041 4.496-39.191 6-58.5 1.06-2.632 4.641-.261 7 .5"/><path fill="#5aeaf6" d="M877 512c1.377 3.862 1.113 7.032 1 11l-5 1.5c-.24-4.172 1.134-8.366-2-11.5l-14-17c5.702 1.838 17.955 10.266 20 16"/><path fill="#f4fcfd" d="M164 555c-2.297.637-11.6 3.904-12 6.5-.52 3.376 11.503 19.234 4 23.5-6.507-16.955-16.025-50.644-13-68 .601-3.45.501-3.714 2-7l12-5.5c-10.489 15.408 3.189 34.559 7 50.5"/><path fill="#05172e" d="m484 567 18 7.5v-51c-13.704-4.659-28.292-9.414-39-19.5l41 18.5-1 54c-.521.939-18.045-6.395-19-9.5"/><path fill="#aae4ef" d="M871 513c3.134 3.134 1.76 7.328 2 11.5l5-1.5c-.435 15.294-6.716 34.607-9 50 .199-1.335-.383-10.242-1-12-1.37-3.906-5.073-3.995-9-5 4.427-5.945-.704-6.727-1-9.5-1.454-13.62 1.903-28.355 2-42z"/><path fill="#011326" d="M835 628c4.026-1.678 6.027-5.344 9-8 11.857-10.591 12.477-12.558 18-27 1.824-4.77 6.344-15.607 7-20 2.284-15.393 8.565-34.706 9-50 .113-3.968.377-7.138-1-11l2-3c6.445 24.352-5.263 95.919-26.5 112-4.253 3.22-12.082 6.376-17.5 7"/><path fill="#4ce1f0" d="M692 523c-1.74 32.116-12.329 61.881-31 88-12.715 17.787-29.701 31.997-47 45-10.709 3.415-24.439 13.667-36.5 18-45.47 16.334-93.556 15.546-138.5-2l5-4c77.207 27.759 165.886 4.521 214-63.5 5.052-7.142 26.538-48.85 19.5-54.5-3.215-2.581-30.701-3.022-33.5-.5-.315.284-1.858 5.667-3 7.5 3.093-15.528 8.06-30.966 8-47 14.772 3.514 30.348 3.381 43 13"/><path fill="#e3f7fc" d="M331 516c13.252 1.866 29.456-.47 43 3 .181 2.159.649 7.608 3 9 .135 1.464-1.749.668-2 1.5-1.356 4.488 7.572 28.849 10 34.5.121.281-.124.721 0 1-5.288 4.479-29.385 10.082-31 15.5-2.064 6.922 8.734 25.443 13 31.5l-4 3c-23.164-31.135-32.928-61.194-34-100 .88-.042 1.001.859 2 1"/><path fill="#012a42" d="M143 517c-3.025 17.356 6.493 51.045 13 68 .48 1.25 1.512 1.751 2 3 4.101 10.503 15.309 21.852 11 33-20.223-14.078-31.938-70.588-30-94 .259-3.126.3-9.872 4-10"/><path fill="#c3d2d9" d="M206 525c4.006 20.199 10.761 37.739 22 55l-10 10c-1.807-2.656-7.019-8.998-8-11-.709-1.447-2.68-5.122-3-6-2.176-5.969-6.819-30.514-7-37-.09-3.218.953-7.127 0-10.5z"/><path fill="#b6ced6" d="M385 564c-2.428-5.651-11.356-30.012-10-34.5.251-.832 2.135-.036 2-1.5 23.308-1.273 21.373 24.566 8 36"/><path fill="#3cebf7" d="M565 528c14.293 34.37-13.57 59.934-46 64.5 5.413 43.731-20.145 41.347-16 0-3.648-1.071-7.332-1.495-11-2.5l10-1.5c.883-4.209-1.692-5.48-4-8.5l6 3c-.225 6.155.547 38.512 6.5 39 .646.053 6.148-3.698 6.5-5.5.934-4.775-3.367-14.262-2-22 .132-.749 4.965-7.051 5-7.5 27.411-2.298 47.302-26.049 40-51.5 4.103-4.755 2.686 2.968 6 2z"/><path fill="#042a43" d="M534 541c6.97 14.289 2.844 32.422-15 34-1.142-14.314.847-30.017 0-44.5 1.933-3.465 13.671 8.644 15 10.5"/><path fill="#80e7f4" d="M508.5 531c4.027.534 2.043 4.05 0 6z"/><path fill="#a6bdc6" d="M303 541c1.993 12.955 5.528 24.742 10 37 16.033 43.942 48.138 81.027 88 105 35.195 21.166 77.401 33.447 119 32 12.152-.423 25.145-3.357 37-6 1.433 1.836 1.445 12.328.5 13-3.747 2.667-59.97 3.53-68 3-14.369-.948-28.798-4.816-43-7 21.321 13.591 45.601 9.79 69.5 13-21.614-.288-42.54-.003-64-3-77.249-10.787-136.894-46.939-196-95-12.948-14.008-27.19-27.112-38-43l10-10c41.293 63.42 130.7 114.296 202.5 134-74.575-26.541-127.86-90.833-140.5-169Z"/><path fill="#9de6ef" d="M519 575c17.844-1.578 21.97-19.711 15-34 11.881 16.59 3.86 36.558-16 37.5 1.315-.882 1.108-2.151 1-3.5"/><path fill="url(#e)" d="M444 668c-28.358-10.196-59.4-31.013-77-56-4.266-6.057-15.064-24.578-13-31.5 1.615-5.418 25.712-11.021 31-15.5 37.833 84.959 152.033 104.424 220 43 18.796-16.987 23.36-30.72 36-51 1.142-1.833 2.685-7.216 3-7.5 2.799-2.522 30.285-2.081 33.5.5 7.038 5.65-14.448 47.358-19.5 54.5-48.114 68.021-136.793 91.259-214 63.5" style="fill:url(#e)"/>/&gt;<path fill="#588b9e" d="m180 554 4 33c-8.686-.264-17.369-1.941-26 1-.488-1.249-1.52-1.75-2-3 7.503-4.266-4.52-20.124-4-23.5.4-2.596 9.703-5.863 12-6.5 4.968-1.377 10.889-.962 16-1"/><path fill="#144b68" d="M196 557c.772 4.563 2.879 11.023 4 16 .461 2.048 4.6 15.344 3.5 16-6.24-1.14-13.17-1.808-19.5-2l-4-33c.333-.002.667-.006 1 0 5.483.106 10.476-1.186 15 3"/><path fill="#30d2eb" d="M483 567c2.294 1.91 13.151 10.581 15 13 2.308 3.02 4.883 4.291 4 8.5l-10 1.5c-10.041-2.75-24.528-4.801-31-14.5-6.644-9.958-5.52-27.154 9.5-20.5.792.351 9.763 9.721 12.5 12m-21.5-2c-1.561 7.269 28.138 25.524 30.5 20.5-11.695-4.41-22.04-11.393-30.5-20.5"/><path fill="#03314f" d="M843 556c-1.659 10.317-3.024 20.74-5 31-2.183 11.334-4.083 23.073-9 33.5.877 3.81 11.591-3.852 15-.5-2.973 2.656-4.974 6.322-9 8-10.095 4.209-24.33.975-29.5 3-1.78.697-13.745 29.706-16.5 34.5-30.84 53.66-80.085 95.335-137.5 118.5-.78 8.956 1.946 17.173-.5 26.5-5.859 22.343-51.34 34.113-71.5 38.5-49.444 10.76-101.724 9.428-150.5-4 1.653.382 11.907-.445 14.5 0 16.086 2.763 28.124 5.718 45.5 7 7.85.579 16.493 2.864 24.5 3 31.629.536 106.44-12.403 127.5-36.5 6.457-7.388 16.713-32.165.5-30.5-5.961.612-32.476 13.503-42 16-34.626 9.077-74.82 12.155-110.5 10 2.859-.981 2.335-11.022 2-11.5-1.249-1.781-10.566 1.743-9-2.5 15.911 1.214 31.034 1.694 47 1 108.851-4.733 237.746-71.038 273-180 1.178-3.642 8.979-24.599 7.5-26-.065-.062-1.042 1.402-1.5 1-3.383-2.971 1.901-2.851 3-5 7.573-3.341 12.897-25.099 15-34 3.794-.856 14.602-5.176 17-1"/><path fill="#3e778c" d="M859 556c3.927 1.005 7.63 1.094 9 5l-6-1.5-7 28.5c-4.44-1.61-12.3-2.608-17-1 1.976-10.26 3.341-20.683 5-31 .018-.11.622.427 1-2 5.138-.389 10.1.746 15 2"/><path fill="#3aa0b5" d="M868 561c.617 1.758 1.199 10.665 1 12-.656 4.393-5.176 15.23-7 20-2.015-1.114-4.987-4.27-7-5l7-28.5z"/><path fill="#77ebf9" d="M461.5 565c8.46 9.107 18.805 16.09 30.5 20.5-2.362 5.024-32.061-13.231-30.5-20.5"/><path fill="#043c57" d="M811 591c-1.099 2.149-6.383 2.029-3 5-60.602 73.948-147.648 125.863-243 139-2.236-3.277-5.017-4.613-9-5 56.213-6.889 106.577-27.096 154-57 29.129-18.368 59.341-41.395 82-67.5 10.472-12.065 18.607-21.573 23-37.5-1.671 6.948-.99 17.113-4 23"/><path fill="#18cae6" d="M520 587c-.035.449-4.868 6.751-5 7.5-1.367 7.738 2.934 17.225 2 22-.352 1.802-5.854 5.553-6.5 5.5-5.953-.488-6.725-32.845-6.5-39 .065-1.769-.106-11.095 2.5-12 .472-.164 9.609-.312 10 0 1.841 1.467-.729 4.626-.5 5.5.446 1.702 4.044 9.94 4 10.5"/><path fill="#013858" d="M207 573c.32.878 2.291 4.553 3 6l-3-.5c1.084 6.835 3.303 13.755 5 20.5 2.573 10.229 4.947 20.232 9 30 .958 1.903-4.585 2.99-5 3-13.889.331-35.537-3.02-47-11 4.309-11.148-6.899-22.497-11-33 8.631-2.941 17.314-1.264 26-1 6.33.192 13.26.86 19.5 2 1.1-.656-3.039-13.952-3.5-16 3.021-1.892 5.449-1.477 6.5 2z"/><path fill="#1388a0" d="M406 680c-1.287 4.184-1.982 2.266-5 3-39.862-23.973-71.967-61.058-88-105 3.191.363.797-2.544 3.5-1 2 1.142 16.007 30.972 19.5 36.5 16.574 26.227 43.216 50.956 70 66.5"/><path fill="#05617d" d="M210 579c.981 2.002 6.193 8.344 8 11 10.81 15.888 25.052 28.992 38 43-3.064-2.492-18.176-17.917-19.5-18-.742-.046-3.493 3.729-6.5 3-6.062-6.249-12.038-12.655-18-19-1.697-6.745-3.916-13.665-5-20.5z"/><path fill="#123248" d="M855 588c2.013.73 4.985 3.886 7 5-5.523 14.442-6.143 16.409-18 27-3.409-3.352-14.123 4.31-15 .5 4.917-10.427 6.817-22.166 9-33.5 4.7-1.608 12.56-.61 17 1"/><path fill="#327da2" d="M802 621c-8.422 2.003-12.478 12.365-18 18-26.77 27.317-61.385 51.941-95 70-.85.331-1.979.596-3 1-10.165.532-21.033 8.492-30.5 12-37.743 13.983-102.196 25.749-142.5 25-.683-3.974-4.319-3.374-2-8 19.044.106 35.226-1.414 54-4 95.352-13.137 182.398-65.052 243-139 .458.402 1.435-1.062 1.5-1 1.479 1.401-6.322 22.358-7.5 26"/><path fill="#a1d8ed" d="M230 618c2.384 2.457 4.552 5.627 7 8-4.974-.638-3.728 1.94-4 2-2.277.499-3.34-1.553-5-.5 34.348 47.327 81.094 78.894 135 100.5.287.115.712-.114 1 0 1.912 7.79-3.746 35.216-2 40.5.145.439 7.786-.162 7 4.5-55.388-23.559-95.659-57.179-128-108-7.147-11.231-14.899-23.706-20-36-4.053-9.768-6.427-19.771-9-30 5.962 6.345 11.938 12.751 18 19"/><path fill="#82ebf6" d="m444 668-5 4c-28.483-11.12-53.826-29.123-73-53-1.023-1.274-2.021-2.684-3-4l4-3c17.6 24.987 48.642 45.804 77 56"/><path fill="#117e95" d="M256 633c59.106 48.061 118.751 84.213 196 95 2.711 2.353 8.275.366 7 5.5l-11-.5a379 379 0 0 1-6-1c-77.948-13.766-148.301-51.021-205-106-2.448-2.373-4.616-5.543-7-8 3.007.729 5.758-3.046 6.5-3 1.324.083 16.436 15.508 19.5 18"/><path fill="#0a7895" d="M366 619c19.174 23.877 44.517 41.88 73 53 44.944 17.546 93.03 18.334 138.5 2 12.061-4.333 25.791-14.585 36.5-18 1.588-.506 4.259-2.051 4.5-2 1.222.26 3.494 4.793 4.5 6-15.058 10.035-30.634 19.245-48 25-78.244 25.932-160.538 2.95-212-61z"/><path fill="url(#f)" d="M802 621c-35.254 108.962-164.149 175.267-273 180l-12-42c71.591.237 126.836-17.71 188-53 29.259-16.882 60.937-37.901 79-67 5.522-5.635 9.578-15.997 18-18" style="fill:url(#f)"/>/&gt;<path fill="#76cce6" d="M237 626c56.699 54.979 127.052 92.234 205 106-1.658 4.062-.62 3.656 1 7-74.816-13.508-143.859-45.591-199-98-3.874-4.684-5.22-8.969-11-13 .272-.06-.974-2.638 4-2"/><path fill="#6ea6c0" d="M233 628c5.78 4.031 7.126 8.316 11 13 28.61 34.589 80.405 64.87 122 81-3.729-.126-3.067 3.187-3 6-53.906-21.606-100.652-53.173-135-100.5 1.66-1.053 2.723.999 5 .5"/><path fill="#0a6481" d="m241 665-7 4c-7.048-11.784-13.875-23.781-18-37 .415-.01 5.958-1.097 5-3 5.101 12.294 12.853 24.769 20 36"/><path fill="#0e3b5b" d="m705 706-.5-4c-3.942 4.563-11.794 5.558-15.5 7 33.615-18.059 68.23-42.683 95-70-18.063 29.099-49.741 50.118-79 67"/><path fill="#ccecf6" d="M443 739c18.884 3.41 36.776 5.871 56 7v5c-43.007-1.951-92.981-13.481-133-29-41.595-16.13-93.39-46.411-122-81 55.141 52.409 124.184 84.492 199 98"/><path fill="#087a9e" d="M650 655c-18.037 15.964-38.461 30.091-61 39-2.467.975-6.278 2.072-9 3l-5-12c17.366-5.755 32.942-14.965 48-25 12.106-8.068 14.504-18.665 27-5"/><path fill="#0989a4" d="M241 665c32.341 50.821 72.612 84.441 128 108 3.482 1.481 7.779 3.776 11 5l-10 7c-.255-.142-.744.14-1 0-59.178-32.382-99.168-56.093-135-116z"/><path fill="#1c7c8c" d="M520 709v6c-41.599 1.447-83.805-10.834-119-32 3.018-.734 3.713 1.184 5-3 34.114 19.799 74.265 30.634 114 29"/><path fill="#14687c" d="M589 694c2.051 5.66 2.925.734 7 2-13.469 5.752-24.321 9.727-39 13-11.855 2.643-24.848 5.577-37 6v-6c19.122-.786 41.921-5.838 60-12 2.722-.928 6.533-2.025 9-3"/><path fill="#235775" d="M705 706c-61.164 35.29-116.409 53.237-188 53-.662-.002-1.338.007-2 0l-1-8c68.327.357 110.836-16.823 172-41 1.021-.404 2.15-.669 3-1 3.706-1.442 11.558-2.437 15.5-7z"/><path fill="#82bdd4" d="M686 710c-61.164 24.177-103.673 41.357-172 41-4.966-.026-10.046.225-15 0v-5c4.727.278 9.205.911 14 1 40.304.749 104.757-11.017 142.5-25 9.467-3.508 20.335-11.468 30.5-12"/><path fill="#427d9a" d="M366 722c40.019 15.519 89.993 27.049 133 29 4.954.225 10.034-.026 15 0l1 8c-52.348-.584-102.588-11.831-151-31-.288-.114-.713.115-1 0-.067-2.813-.729-6.126 3-6"/><path fill="#64a6c7" d="M515 759c.662.007 1.338-.002 2 0l12 42c-15.966.694-31.089.214-47-1-35.275-2.693-68.954-9.44-102-22-3.221-1.224-7.518-3.519-11-5 .786-4.662-6.855-4.061-7-4.5-1.746-5.284 3.912-32.71 2-40.5 48.412 19.169 98.652 30.416 151 31"/><path fill="#0b5a73" d="M516 731c11.909.159 29.425-2.028 40-1 3.983.387 6.764 1.723 9 5-18.774 2.586-34.956 4.106-54 4-21.567-.12-41.857-2.615-63-6l11 .5c1.275-5.134-4.289-3.147-7-5.5 21.46 2.997 42.386 2.712 64 3"/><path fill="#64b7d5" d="M448 733c21.143 3.385 41.433 5.88 63 6-2.319 4.626 1.317 4.026 2 8-4.795-.089-9.273-.722-14-1-19.224-1.129-37.116-3.59-56-7-1.62-3.344-2.658-2.938-1-7 2.024.357 3.958.673 6 1"/><path fill="#034260" d="M482 800c-1.566 4.243 7.751.719 9 2.5.335.478.859 10.519-2 11.5-41.471-2.505-65.359-11.582-103.5-23-2.396-.717-5.145-1.715-7.5 0 .655-6.475-4.155-3.855-8-6l10-7c33.046 12.56 66.725 19.307 102 22"/><path fill="#346981" d="M370 785c3.845 2.145 8.655-.475 8 6-.169 1.67-2.731 2.32-2 7 1.81 11.58 27.699 25.286 38 30 1.065 4.98 18.272 7.421 19.5 9-.053 1.077-4.68 3.989-5 4-1.772.059-29.529-11.261-33-13-13.763-6.893-16.593-10.602-26-22-1.251-1.516-1.627-2.378-3.5-1-.971-6.018-1.748-15.043 3-20 .256.14.745-.142 1 0"/><path fill="url(#g)" d="m489 852-8-7c18.958 1.654 40.558 1.795 59.5 0 4.094-.388 34.702-4.717 36-6 .787-.779.85-3.349 0-4-1.09-.834-23.474 4.619-27 5-35.657 3.85-86.282.915-120.5-10-20.133-6.422-37.556-17.833-53-32-.731-4.68 1.831-5.33 2-7 2.355-1.715 5.104-.717 7.5 0 38.141 11.418 62.029 20.495 103.5 23 35.68 2.155 75.874-.923 110.5-10 9.524-2.497 36.039-15.388 42-16 16.213-1.665 5.957 23.112-.5 30.5-21.06 24.097-95.871 37.036-127.5 36.5-8.007-.136-16.65-2.421-24.5-3" style="fill:url(#g)"/>/&gt;<path fill="#9eddea" d="m429 830-1 3c-4.698-1.67-9.426-2.907-14-5-10.301-4.714-36.19-18.42-38-30 15.444 14.167 32.867 25.578 53 32"/><path fill="#124a63" d="M414 828c4.574 2.093 9.302 3.33 14 5 18.307 6.509 33.343 10.285 53 12l8 7c-17.376-1.282-29.414-4.237-45.5-7-2.593-.445-12.847.382-14.5 0-20.316-4.688-59.243-16.719-63-40 1.873-1.378 2.249-.516 3.5 1 9.407 11.398 12.237 15.107 26 22 3.471 1.739 31.228 13.059 33 13 .32-.011 4.947-2.923 5-4-1.228-1.579-18.435-4.02-19.5-9"/><path fill="#71c3d3" d="M481 845c-19.657-1.715-34.693-5.491-53-12l1-3c34.218 10.915 84.843 13.85 120.5 10 3.526-.381 25.91-5.834 27-5 .85.651.787 3.221 0 4-1.298 1.283-31.906 5.612-36 6-18.942 1.795-40.542 1.654-59.5 0"/></svg>