<svg xmlns="http://www.w3.org/2000/svg" width="1024" height="1024"><defs><linearGradient id="a" x1="414.981" x2="576.697" y1="140.848" y2="182.523" gradientUnits="userSpaceOnUse"><stop offset="0%" style="stop-color:#a0b9c9"/><stop offset="100%" style="stop-color:#d0ecf4"/></linearGradient></defs><defs><linearGradient id="b" x1="568.074" x2="214.289" y1="371.649" y2="668.769" gradientUnits="userSpaceOnUse"><stop offset="12.987%" style="stop-color:#8aa9bc"/><stop offset="100%" style="stop-color:#32586f"/></linearGradient></defs><defs><linearGradient id="c" x1="762.118" x2="312.059" y1="272.369" y2="744.121" gradientUnits="userSpaceOnUse"><stop offset="9.509%" style="stop-color:#d2ecf5"/><stop offset="76.687%" style="stop-color:#88a9bd"/><stop offset="83.129%" style="stop-color:#94afbf"/><stop offset="100%" style="stop-color:#567e95"/></linearGradient></defs><defs><linearGradient id="d" x1="823.014" x2="824.2" y1="272.451" y2="310.433" gradientUnits="userSpaceOnUse"><stop offset="0%" style="stop-color:#48a3b3"/><stop offset="100%" style="stop-color:#3c878f"/></linearGradient></defs><defs><linearGradient id="e" x1="477.616" x2="543.938" y1="301.637" y2="648.35" gradientUnits="userSpaceOnUse"><stop offset="0%" style="stop-color:#1b5e82"/><stop offset="100%" style="stop-color:#1aa5d0"/></linearGradient></defs><defs><linearGradient id="f" x1="817.121" x2="831.757" y1="342.183" y2="588.749" gradientUnits="userSpaceOnUse"><stop offset="0%" style="stop-color:#dff2f6"/><stop offset="51.822%" style="stop-color:#b6e9f4"/><stop offset="100%" style="stop-color:#3c8d96"/></linearGradient></defs><defs><linearGradient id="g" x1="857.27" x2="866.31" y1="389.797" y2="575.577" gradientUnits="userSpaceOnUse"><stop offset="0%" style="stop-color:#ccf0f7"/><stop offset="100%" style="stop-color:#72b5be"/></linearGradient></defs><defs><linearGradient id="h" x1="200.24" x2="195.688" y1="415.412" y2="588.353" gradientUnits="userSpaceOnUse"><stop offset="0%" style="stop-color:#aae3ee"/><stop offset="100%" style="stop-color:#3a8791"/></linearGradient></defs><defs><linearGradient id="i" x1="163.631" x2="160.708" y1="427.588" y2="564.557" gradientUnits="userSpaceOnUse"><stop offset="0%" style="stop-color:#a9d8df"/><stop offset="100%" style="stop-color:#6db1ba"/></linearGradient></defs><path fill="#0b4663" d="M805 317c.745.771 1.06 1.718 2 2-.265.098-3.574 3.504-4 4-19.337-38.52-40.651-75.838-67-110-29.413-38.134-65.817-76.244-110.5-96-9.686 20.007-16.466 41.684-26.5 61.5-20.854 41.183-28.749 48.288-76 50.5-16.136.755-46.876 1.545-61.5-4-33.427-12.674-51.332-78.533-66-108l-2.5 3.5 23 58.5c-6.292-13.205-11.711-26.844-18-40-1.392-2.912-8.099-18.924-10.5-19-78.274 45.36-131.586 123.88-167.5 205-.758-1.723-3.668-2.884-4-6-.204-1.922 1.062-2.182 1-3 45.17-85.758 110.769-190.533 211.5-215C587.108 62.475 693.247 126.545 773 258.5c8.086 13.378 23.362 49.57 32 58.5M427 107c-3.48.8-24.045 5.978-25.5 7-3.559 2.501.633 6.284 1.5 9 8.233 25.794 21.104 51.548 34.5 75 3.888.229-6.823-16.873-5-19 13.4 41.626 58.608 41.952 95.5 41-24.23 1.234-49.478 3.252-73-3.5 3.253 2.516 8.628 5.44 12.5 6.5 18.845 5.161 82.364 3.677 99-6 25.408-14.779 42.668-74.858 54.5-101.5-61.426-22.802-131.095-26.372-194-8.5m13.5 95c-1.01.511.813 1.97 1 2 2.492.401 1.052-2.037-1-2"/><path fill="#f3fafb" d="M528 220c33.727-.871 49.012-7.295 60-40.5 7.049-21.301 7.408-40.237 2-62-39.911-9.527-80.07-16.813-121-10.5-.036-1.466 2.197-4.938.5-6-3.222-2.016-36.298 6.276-42.5 6 62.905-17.872 132.574-14.302 194 8.5-11.832 26.642-29.092 86.721-54.5 101.5-16.636 9.677-80.155 11.161-99 6-3.872-1.06-9.247-3.984-12.5-6.5 23.522 6.752 48.77 4.734 73 3.5"/><path fill="#ccf1f9" d="M469 107c-22.504 3.471-43.734 11.657-66 16-.867-2.716-5.059-6.499-1.5-9 1.455-1.022 22.02-6.2 25.5-7 6.202.276 39.278-8.016 42.5-6 1.697 1.062-.536 4.534-.5 6"/><path fill="url(#a)" d="M528 220c-36.892.952-82.1.626-95.5-41-1.823 2.127 8.888 19.229 5 19-13.396-23.452-26.267-49.206-34.5-75 22.266-4.343 43.496-12.529 66-16 40.93-6.313 81.089.973 121 10.5 5.408 21.763 5.049 40.699-2 62-10.988 33.205-26.273 39.629-60 40.5" style="fill:url(#a)"/>/&gt;<path fill="#4b686e" d="M523 229c25.215 3.699 58.073-2.381 67.5-29-4.905 32.463-44.239 35.814-71 37-68.948 3.055-75.976-.237-103.5-58l-23-58.5 2.5-3.5c14.668 29.467 32.573 95.326 66 108 14.624 5.545 45.364 4.755 61.5 4"/><path fill="#f8fbfb" d="M736 213c-.854 8.755 7.688 15.949 12 23.5 14.186 24.841 28.055 53.475 33.5 81.5-33.128-72.396-79.322-144.47-154-179-22.194 31.62-23.716 76.35-55 102-3.648 2.991-11.24 5.269-12.5 10-34.54-6.982-59.504-6.611-94-1-.632.103-1.371-.108-2 0-17.338-11.557-33.369-25.751-44-44-11.702-20.088-17.433-44.855-27-66 2.279.202 3.04-.871 5-1 6.289 13.156 11.708 26.795 18 40 27.524 57.763 34.552 61.055 103.5 58 26.761-1.186 66.095-4.537 71-37-9.427 26.619-42.285 32.699-67.5 29 47.251-2.212 55.146-9.317 76-50.5 10.034-19.816 16.814-41.493 26.5-61.5 44.683 19.756 81.087 57.866 110.5 96"/><path fill="#aed1de" d="M398 139c-1.96.129-2.721 1.202-5 1-.125-.011.669-2.396-1.5-2-6.411 1.171-38.503 26.216-45 32-37.568 33.446-64.672 77.623-86.5 122.5L232 361c-2.322-9.846-4.543-18.459-8-28-1.118-3.085-2.78-5.228-4-8 35.914-81.12 89.226-159.64 167.5-205 2.401.076 9.108 16.088 10.5 19"/><path fill="url(#b)" d="M393 140c9.567 21.145 15.298 45.912 27 66-.059 1.285-1.584 6.877-2 7.5-3.068 4.593-32.638 21.784-40.5 28.5-27.906 23.838-54.941 63.509-68.5 97.5-.24.603-4.183 9.775-1 9.5-46.481 68.958-52.614 161.593-22 238-3.178 1.894.912 8.018 1 8.5 15.124 83.249 39.148 161.291 93 228 11.591 14.358 24.781 30.157 42 37.5 21.372 38.953 77.302 53.857 118 43-13.887 10.686-36.565 12.616-54 12-97.274-3.435-200.909-129.444-233-214.5L224 634c18.673-93.126 30.25-178.642 8-273l28-68.5c21.828-44.877 48.932-89.054 86.5-122.5 6.497-5.784 38.589-30.829 45-32 2.169-.396 1.375 1.989 1.5 2" style="fill:url(#b)"/>/&gt;<path fill="url(#c)" d="M736 213c26.349 34.162 47.663 71.48 67 110-14.115 16.456-24.094 107.431-25 131.5-2.417 64.183 5.892 124.845 17 187.5.191 1.079.704 2.359 1 4-2.093.595-1.619 4.125-2 5-32.478 74.641-95.855 149.787-167.5 189l-22.5 9c22.823-61.72-44.965-111.599-101.5-108-57.845 3.682-111.962 62.657-80.5 120-17.219-7.343-30.409-23.142-42-37.5-53.852-66.709-77.876-144.751-93-228-.088-.482-4.178-6.606-1-8.5 64.935 162.065 272.498 190.555 391 67 36.187-37.731 60.381-83.14 65-136 .849-9.716 1.443-19.234 1-29l-3-27c-4.788-60.992-29.647-113.894-75-155-24.986-30.502-66.91-48.3-105-56 1.26-4.731 8.852-7.009 12.5-10 31.284-25.65 32.806-70.38 55-102 74.678 34.53 120.872 106.604 154 179-5.445-28.025-19.314-56.659-33.5-81.5-4.312-7.551-12.854-14.745-12-23.5m-113.5-47c-6.129 2.015-14.021 38.274-13.5 45.5 50.104 20.998 99.807 56.714 133.5 99.5 3.645-1.677-6.614-29-8.5-33.5-13.151-31.385-41.71-67.465-68.5-88.5-6.912-5.427-35.151-25.581-43-23m-13 51c-2.248.362 1.521 23.713 3 25 .549.478 11.538 2.816 14 4 57.021 27.43 115.445 68.859 131 134 1.578-44.878-21.165-74.463-54-102-11.122-9.328-84.559-62.522-94-61" style="fill:url(#c)"/>/&gt;<path fill="#042740" d="M217 316c.062.818-1.204 1.078-1 3-.641.075-1.497-.149-2 0-.741-32.997-5.001-66.87-11.5-99-1.847 1.114-5.39 2.014-7.5 2-3.45-.022-6.683.273-10-1-2.721.178-3.282 5.725-4 8.5-5.793 22.406-9.258 54.765-13 78.5-.897 5.687-2.811 13.501-1 19-.816.351-5.758 2.768-6 3l19-110.5c-18.573-10.237-20.515-38.192-2.5-49.5 32.434-20.358 61.83 28.105 29.5 48.5 5.386 32.312 7.522 64.983 10 97.5m-38-142c-25.709 18.115.001 57.581 28 40 25.497-16.01.838-60.32-28-40"/><path fill="#fefefe" d="M622.5 166c7.849-2.581 36.088 17.573 43 23 26.79 21.035 55.349 57.115 68.5 88.5 1.886 4.5 12.145 31.823 8.5 33.5-33.693-42.786-83.396-78.502-133.5-99.5-.521-7.226 7.371-43.485 13.5-45.5"/><path fill="#03223a" d="M865 343h-1c1.248-14.556-45.431-18.845-51.5-15-7.556 4.787-12.519 45.134-13.5 55-.904 9.092-.596 17.929-1 27-4.757.112.757-10.112-4-10 .919-15.677 3.168-70.264 18-77 6.742-3.062 17.724-1.935 25-1 2.897.372 18.93 6.103 20 4.5-4.276-12.182-14.367-101.102-18-105-.763-.818-8.647.615-11 .5-3.318-.162-6.636.227-9.5-2-7.154 31.658-9.034 66.191-10.5 99-.273-.015-.768-.086-1 0-.94-.282-1.255-1.229-2-2-.21-32.701 3.958-65.275 9-97.5-38.503-26.388 9.314-76.432 36-44 12.872 15.643 4.43 33.513-8 46 8.896 40.262 12.918 81.801 23 121.5m-52-168c-32.382 25.557 19.839 62.235 35 33 16.399-23.041-11.613-51.458-35-33"/><path fill="#bbe5f2" d="M207 214c-1.419-8.216-8.514-5.096-12.5-7-7.412-3.541-14.723-12.231-15.5-20.5-.376-4.003 4.095-10.365 0-12.5 28.838-20.32 53.497 23.99 28 40m-9.5-39c-11.854 1.136-8.744 20.323 4 18 9.398-1.713 7.085-19.063-4-18"/><path fill="#b9e4f2" d="M848 208c.187-.361 2.321-7.523 1.5-8-8.471 5.867-13.818 10.963-24 5-12.699-7.437-8.359-16.905-10.5-26.5-.323-1.45-6.455 1.407-2-3.5 23.387-18.458 51.399 9.959 35 33m-17.5-32c-5.92 1.665-7.608 12.831-1 16 16.179 7.759 17.992-20.778 1-16"/><path fill="#4bb9d4" d="M207 214c-27.999 17.581-53.709-21.885-28-40 4.095 2.135-.376 8.497 0 12.5.777 8.269 8.088 16.959 15.5 20.5 3.986 1.904 11.081-1.216 12.5 7"/><path fill="#fdfefe" d="M197.5 175c11.085-1.063 13.398 16.287 4 18-12.744 2.323-15.854-16.864-4-18"/><path fill="#4fbad4" d="M813 175c-4.455 4.907 1.677 2.05 2 3.5 2.141 9.595-2.199 19.063 10.5 26.5 10.182 5.963 15.529.867 24-5 .821.477-1.313 7.639-1.5 8-15.161 29.235-67.382-7.443-35-33"/><path fill="#fcfefe" d="M830.5 176c16.992-4.778 15.179 23.759-1 16-6.608-3.169-4.92-14.335 1-16"/><path fill="#b3d4d2" d="M440.5 202c2.052-.037 3.492 2.401 1 2-.187-.03-2.01-1.489-1-2"/><path fill="#a4bfcd" d="M464 250c-22.588 3.88-39.33 9.526-60 19-37.958 17.398-72.534 45.187-96 80-3.183.275.76-8.897 1-9.5 13.559-33.991 40.594-73.662 68.5-97.5 7.862-6.716 37.432-23.907 40.5-28.5.416-.623 1.941-6.215 2-7.5 10.631 18.249 26.662 32.443 44 44"/><path fill="#fdfdfe" d="M609.5 217c9.441-1.522 82.878 51.672 94 61 32.835 27.537 55.578 57.122 54 102-15.555-65.141-73.979-106.57-131-134-2.462-1.184-13.451-3.522-14-4-1.479-1.287-5.248-24.638-3-25"/><path fill="#d7f1f7" d="M214 319c-2.218.657-4.765 2.185-7 3-4.415-1.291-8.492-1.219-13-1 .185-17.312-.25-34.69 0-52 .226-15.627 1.789-31.32 1-47 2.11.014 5.653-.886 7.5-2 6.499 32.13 10.759 66.003 11.5 99"/><path fill="url(#d)" d="m828 222 9 100c-7.276-.935-18.258-2.062-25 1-1.151-2.136-.965-3.833-4-4 1.466-32.809 3.346-67.342 10.5-99 2.864 2.227 6.182 1.838 9.5 2" style="fill:url(#d)"/>/&gt;<path fill="#9edee3" d="M185 221c-1.93 15.445-5.27 30.702-8 46-2.111 11.833-3.321 26.075-6 37.5-.216.921-1.284 4.201-3 3.5 3.742-23.735 7.207-56.094 13-78.5.718-2.775 1.279-8.322 4-8.5"/><path fill="#48afc5" d="M195 222c.789 15.68-.774 31.373-1 47l-17-2c2.73-15.298 6.07-30.555 8-46 3.317 1.273 6.55.978 10 1"/><path fill="#ebf7fa" d="m837 322-9-100c2.353.115 10.237-1.318 11-.5 3.633 3.898 13.724 92.818 18 105-1.07 1.603-17.103-4.128-20-4.5"/><path fill="#8aa9b5" d="M560 251c38.09 7.7 80.014 25.498 105 56-53.588-48.57-131.182-69.953-201-53l2-4c34.496-5.611 59.46-5.982 94 1"/><path fill="#fbfdfc" d="M665 307c45.353 41.106 70.212 94.008 75 155 .319 4.061.865 7.841 1 12l-10-54.5c-14.312-47.725-43.821-88.358-83-118.5-31.928-24.564-64.838-38.504-105-44-52.927-7.243-99.636.948-146 27-14.893 8.368-29.017 18.327-41.5 30l.5-4c5.103-4.657 10.625-9.698 16-14 7.064-5.654 16.683-10.161 24-16 21.506-12.071 44.086-20.193 68-26 69.818-16.953 147.412 4.43 201 53"/><path fill="#597780" d="M464 250c.629-.108 1.368.103 2 0l-2 4c-23.914 5.807-46.494 13.929-68 26 2.438-1.945 11.465-8.084 8-11 20.67-9.474 37.412-15.12 60-19"/><path fill="#64bece" d="m543 257-2 13c-7.801-1.059-16.119-1.772-24-2-40.519-1.173-79.217 8.523-114 29l-6-13c46.364-26.052 93.073-34.243 146-27"/><path fill="#8ed9e7" d="m648 301-14 6c-21.566-15.342-50.253-27.273-76-33-5.577-1.24-11.316-3.228-17-4l2-13c40.162 5.496 73.072 19.436 105 44"/><path fill="#3d94a1" d="M194 269c-.25 17.31.185 34.688 0 52-6.006.292-21.542 3.653-27 6-1.811-5.499.103-13.313 1-19 1.716.701 2.784-2.579 3-3.5 2.679-11.425 3.889-25.667 6-37.5z"/><path fill="#4398ab" d="m517 268 .5 8c-5.501 1.653-18-2.84-22.5 2-36.825 1.92-75.395 16.272-105 38l-5-6c5.986-4.437 11.521-9.186 18-13 34.783-20.477 73.481-30.173 114-29"/><path fill="#50b5d0" d="M541 270c5.684.772 11.423 2.76 17 4 2.361 10.232-7.351 3.281-12.5 3-4.269-.233-11.529-.1-16 0-1.821.041-4.94-.992-4.5 2-10.036-.607-19.898-1.527-30-1 4.5-4.84 16.999-.347 22.5-2l-.5-8c7.881.228 16.199.941 24 2"/><path fill="#395f6c" d="M404 269c3.465 2.916-5.562 9.055-8 11-7.317 5.839-16.936 10.346-24 16-.176-3.902-10.667 5.473-12.5 7-7.342 6.115-16.078 14.422-22.5 21.5-81.05 89.331-79.866 225.02 4 315 89.136 95.633 247.889 96.176 337 .5-1.121 2.432-4.433 12.601-1 14-118.502 123.555-326.065 95.065-391-67-30.614-76.407-24.481-169.042 22-238 23.466-34.813 58.042-62.602 96-80"/><path fill="#74d7f0" d="M634 307c5.454 3.88 10.087 9.587 15 14-.96.388-3.075 5.196-3 5.5.248 1.013 12.313 10.964 15 14.5-12.916-8.137-22.816-20.458-35.5-29-27.23-18.338-60.857-30.11-93.5-33-2.291-.203-4.697.139-7 0-.44-2.992 2.679-1.959 4.5-2 4.471-.1 11.731-.233 16 0 5.149.281 14.861 7.232 12.5-3 25.747 5.727 54.434 17.658 76 33"/><path fill="#002538" d="M495 278c10.102-.527 19.964.393 30 1 2.303.139 4.709-.203 7 0 .181 4.848-4.85 1.611-7 4-56.791-2.882-116.882 18.549-155 61-21.101 18.758-40.744 56.349-48 83.5C273.772 607.953 469.99 744.578 623 640l2 4c-91.359 61.685-213.242 43.161-279-46-45.95-62.304-52.887-141.992-17-211 13.523-26.004 37.385-53.668 61-71 29.605-21.728 68.175-36.08 105-38"/><path fill="#002949" d="M661 341c5.441 7.16 16.214 21.838 22 31 26.197 41.481 36.55 92.177 29 141-4.326 27.971-19.207 61.259-36 84-5.871 7.95-17.758 21.249-25 28-7.777 7.25-17.213 13.067-26 19l-2-4c93.421-63.851 112.601-189.16 44-278-34.573-44.773-84.332-76.074-142-79 2.15-2.389 7.181.848 7-4 32.643 2.89 66.27 14.662 93.5 33 12.684 8.542 22.584 20.863 35.5 29"/><path fill="#134d70" d="M525 283c57.668 2.926 107.427 34.227 142 79-2.488.208-3.191.286-5-1.5-11.152-11.009-19.554-22.886-32.5-32.5-76.297-56.664-189.655-46.089-259.5 16 38.118-42.451 98.209-63.882 155-61"/><path fill="#8ed9e7" d="M403 297c-6.479 3.814-12.014 8.563-18 13-22.597 16.749-39.871 34.085-55 58-5.638.843-12.004-8.191-17-5 10.535-19.762 26.516-37.959 43-53l-.5 4c12.483-11.673 26.607-21.632 41.5-30z"/><path fill="url(#e)" d="M667 362c68.601 88.84 49.421 214.149-44 278-153.01 104.578-349.228-32.047-301-212.5 7.256-27.151 26.899-64.742 48-83.5 69.845-62.089 183.203-72.664 259.5-16 12.946 9.614 21.348 21.491 32.5 32.5 1.809 1.786 2.512 1.708 5 1.5m-249.5-34-13.5 9.5c.878-.224 3.333.559 3.5.5.667-.236 11.045-7.922 10-10M571 344c-75.711-30.13-161.301-.156-195 75-13.07 29.15-15.898 58.306-10 90 3.608 19.391 12.623 39.024 24 55 37.917 53.245 102.787 72.675 165 54 29.618-8.891 50.742-23.74 70-48 26.57-33.471 44.231-84.457 24-125 5.776-7.064 1.856-20.902-7.5-20-9.626.928-11.067 19.024-3.5 23-.78 11.942 2.508 23.403 2 35.5-1.077 25.618-12.907 56.539-29 76.5-14.86 18.432-38.542 34.004-61 41-54.766 17.059-112.224-2.05-145-49-10.366-14.849-16.75-30.151-20-48-5.387-29.589-2.719-54.781 10-82 21.862-46.785 70.833-74.919 122.5-72 15.798.893 30.219 6.969 45.5 10-1.205 5.508-.66 11.422 0 17 3.501 29.589 31.876 54.107 62 45 19.817-5.991 27.292-23.343 24-43-5.415-32.334-52.624-66.439-78-35m-168.5 2c-33.159 19.868-48.16 56.852-52 94 10.675-25.287 20.232-47.259 36.5-69.5 5.995-8.196 15.696-11.603 15.5-24.5M585 464c10.786-27.69-11.602-56.107-41-52-72.275-39.688-145.261 51.702-93 115.5 49.345 60.237 150.701 13.078 134-63.5m-235.5 60c5.226 43.661 26.093 92.637 65 116 49.451 29.695 108.679 31.741 162.5 12.5l-40.5 7.5c-87.571 8.074-148.124-68.167-187-136" style="fill:url(#e)"/>/&gt;<path fill="#0d4764" d="M372 296c-5.375 4.302-10.897 9.343-16 14-16.484 15.041-32.465 33.238-43 53-6.044 3.86-21.635 43.981-24 52.5-3.974 14.314-7.217 32.67-8 47.5-3.658 69.297 22.401 136.935 73 184 84.996 79.06 223.695 83.985 308 2 6.414-5.243 12.313-10.967 18-17 33.43-35.466 55.91-85.52 61-134 .274-2.61 1.012-6.468 2-9 .443 9.766-.151 19.284-1 29-2.122-.504-2.616 1.998-3 3.5-9.81 38.319-18.92 61.103-41 94-4.886 7.28-16.829 17.622-20 24.5-89.111 95.676-247.864 95.133-337-.5-83.866-89.98-85.05-225.669-4-315 6.422-7.078 15.158-15.385 22.5-21.5 1.833-1.527 12.324-10.902 12.5-7"/><path fill="#bde6ec" d="M741 474c.166 5.127-2 10.621-2 11.5 0 .749 1.988.248 2 1 .063 3.831-.045 7.679 0 11.5-5.09 48.48-27.57 98.534-61 134-1.993-2.489-5.385-15.425-9.5-15-19.802 21.096-43.029 39.872-69.5 52-69.91 32.03-151.12 24.842-214-19-23.606-16.459-41.836-36.671-57-61 6.563-12.638 8.521 7.346 16 9 65.758 89.161 187.641 107.685 279 46 8.787-5.933 18.223-11.75 26-19 1.172.458 2.299 3.817 3.5 4 3.295.503 23.431-23.03 26.5-27 9.006-11.652 32.706-50.386 33-64 19.386-60.202 8.649-117.808-25-170-12.441-19.297-22.995-31.725-40-47-4.913-4.413-9.546-10.12-15-14l14-6c39.179 30.142 68.688 70.775 83 118.5z"/><path fill="#50b5d0" d="m385 310 5 6c-23.615 17.332-47.477 44.996-61 71-2.673 8.159-11.519 14.01-15 19l13-33c.965-1.637 1.989-3.402 3-5 15.129-23.915 32.403-41.251 55-58"/><path fill="#5e9aac" d="M216 319c.332 3.116 3.242 4.277 4 6 1.22 2.772 2.882 4.915 4 8l-3 9c-2.153-7.909-5.114-17.402-14-20 2.235-.815 4.782-2.343 7-3 .503-.149 1.359.075 2 0"/><path fill="#4a8197" d="M812 323c-14.832 6.736-17.081 61.323-18 77-3.736 63.72 1.33 143.708 15 206l-14 36c-11.108-62.655-19.417-123.317-17-187.5.906-24.069 10.885-115.044 25-131.5.426-.496 3.735-3.902 4-4 .232-.086.727-.015 1 0 3.035.167 2.849 1.864 4 4"/><path fill="#011625" d="M194 321c4.508-.219 8.585-.291 13 1 8.886 2.598 11.847 12.091 14 20 11.672 42.885 9.156 116.517 6 161.5-1.997 28.469-11.154 117.415-24 139.5-2.054 3.531-4.811 7.342-9 8-3.342.525-37.519-8.026-39-9.5-1.981-1.973-6.431-30.763-8-36-2.072-6.917-5.688-12.723-8-21.5l1-1c3.952 12.569 9.789 27.486 22 11.5 15.898-20.813 22.904-97.395 23-124.5.063-17.815-1.279-40.439-4-58-5.838-37.675-17.292-55.696-46-17.5-.629-10.284 10.95-17.64 14-25 3.854-9.301 4.277-32.115 12-39.5.242-.232 5.184-2.649 6-3 5.458-2.347 20.994-5.708 27-6m-24 20c1.144 4.959 8.142 15.665 10 23.5 1.737 7.325 3.003 19.189 4 27 4.867 38.138 4.993 79.208 3 117.5-2.757 24.234-5.952 60.369-17 82-1.672 3.274-7.341 12.611-10.5 14-3.297 1.449-10.414-.31-10.5 1.5 4.49 5.079 6.046 27.708 9 31 1.037 1.156 18.194 5.069 21 5.5 5.479.842 10.816 2.59 16.5 2 1.988-.762 4.513-9.654 5.5-12 5.141-12.224 7.471-25.07 10-38 11.781-60.239 16.843-132.732 13-194-.103-1.646.122-3.358 0-5-.462-6.243-1.236-12.771-2-19-.41-3.348-1.487-6.74-2-10-.68-4.318-1.099-9.917-2-14-1.626-7.367-3.166-25.152-12.5-27-6.439-1.275-50.324 4.412-47.5 17.5 5.5-3.512 5.031-6.036 12-2.5m-4.5 4c-4.759-.399-9.867 20.138-8.5 23.5.628 1.545 8.101.397 10.5 1.5 6.841 3.145 10.25 18.219 12 25 2.613-.44-6.868-49.403-14-50"/><path fill="#52b7d2" d="m689 368-6 4c-5.786-9.162-16.559-23.84-22-31-2.687-3.536-14.752-13.487-15-14.5-.075-.304 2.04-5.112 3-5.5 17.005 15.275 27.559 27.703 40 47"/><path fill="#fafcfc" d="m218 353-2 1.5c-.828-31.107-26.084-20.998-47-17 1.584.917.723 2.299 1 3.5-6.969-3.536-6.5-1.012-12 2.5-2.824-13.088 41.061-18.775 47.5-17.5 9.334 1.848 10.874 19.633 12.5 27"/><path fill="#f8fcfc" d="m864 343-1 1c-3.743-6.652-8.093-6.103-13-.5-15.461 17.654-16.917 117.673-16 143.5-3.009.435-1.938-2.671-2-4.5-1.147-33.966-1.771-83.011 6-115 2.656-10.932 8.072-19.823 12-30-8.29-3.185-27.78-8.369-35.5-3.5-8.601 5.424-11.439 36.836-12.5 46.5-.031.282-1.203 4.735-3 2.5.981-9.866 5.944-50.213 13.5-55 6.069-3.845 52.748.444 51.5 15"/><path fill="#327fa8" d="M417.5 328c1.045 2.078-9.333 9.764-10 10-.167.059-2.622-.724-3.5-.5z"/><path fill="#bcdce7" d="M649 379c-12.405 5.706-23.125 23.623-25 37-6.993-2.762-10.006-12.917-15-18.5-3.633-4.061-10.861-10.946-15.5-13.5-9.758-5.372-22.508-4.08-28-15l-2.5 8c-.66-5.578-1.205-11.492 0-17 .698-3.19 5.813-13.29 8-16 25.376-31.439 72.585 2.666 78 35"/><path fill="url(#f)" d="M834 487c1.034 29.124 4.697 75.684 17 102-8.764 8.494-27.857 14.64-39 7-12.375-61.055-16.78-123.62-14-186 .404-9.071.096-17.908 1-27 1.797 2.235 2.969-2.218 3-2.5 1.061-9.664 3.899-41.076 12.5-46.5 7.72-4.869 27.21.315 35.5 3.5-3.928 10.177-9.344 19.068-12 30-7.771 31.989-7.147 81.034-6 115 .062 1.829-1.009 4.935 2 4.5m-25.5-100c-.4.159-5.019 5.872-5 7 5.726.771 10.536-2.904 14.5-6.5-1.246-.316-9.058-.676-9.5-.5" style="fill:url(#f)"/>/&gt;<path fill="#d5eff4" d="M218 353c.901 4.083 1.32 9.682 2 14-9.87 3.063-22.375-5.398-31 1.5 7.153 5.484 13.571 7.79 22.5 7.5 3.512-.114 9.099-7.714 8.5 2.5l2-1.5c.764 6.229 1.538 12.757 2 19-4.521 6.815-3.562 1.293-8.5 1-11.124-.66-22.364 5.121-23.5 17-1.028 1.101-2.073 1.358-3 2.5.054 28.045 3.739 58.143 1 86-.256 2.607-2.96 6.144-3 6.5 1.993-38.292 1.867-79.362-3-117.5-.997-7.811-2.263-19.675-4-27-1.858-7.835-8.856-18.541-10-23.5-.277-1.201.584-2.583-1-3.5 20.916-3.998 46.172-14.107 47 17z"/><path fill="#2a6279" d="M232 361c22.25 94.358 10.673 179.874-8 273-2.496 12.448-7.917 29.311-9 41-1.819.713-7.749-7.973-8-8.5-2.991-6.292-3.836-16.474-4-23.5 12.846-22.085 22.003-111.031 24-139.5 3.156-44.983 5.672-118.615-6-161.5l3-9c3.457 9.541 5.678 18.154 8 28"/><path fill="#2d7ca3" d="M571 344c-2.187 2.71-7.302 12.81-8 16-15.281-3.031-29.702-9.107-45.5-10-51.667-2.919-100.638 25.215-122.5 72l-19-3c33.699-75.156 119.289-105.13 195-75"/><path fill="#011321" d="M863 344c4.96 8.814 3.034 20.027 9 29 2.788 4.193 7.389 7.094 10 11.5 14.994 25.301 18.827 148.075 10 177-.992 3.251-4.307 6.496-7 8.5-.163-.258-3.797-1.01-5-3.5-6.209-12.853-5.618-47.828-6-63.5l2-2c.377 7.236 1.113 13.845 2 21 .614 4.956-.319 30.633 9 26.5 4.377-1.941 4.505-15.153 5-19.5 3.375-29.659 3.135-68.631-2-98-5.079-29.051-9.982-23.293-13 2-.779 6.526-.626 14.354-1 21l-2-2c.477-12.818.86-42.916 6-53.5 2.546-5.243 6.273 1.092 3-6.5-8.87-20.571-29.178-28.281-37-1l-2-3.5c-1.265 9.25-4.137 18.705-5 28-.116 1.245-.924 5.762 2 3.5-.186 1.282.17 2.713 0 4-4.684 35.538-4.381 64.501 0 100 1.699 13.767 10.743 73.86 25.5 78 8.7 2.44 9.494-5.045 12.5-10 .514-.847 2.897-4.727 3-5l-16 56.5c-3.254 3.74-36.228 9.429-41 7.5-7.715-3.119-14.159-35.611-16-44-13.67-62.292-18.736-142.28-15-206 4.757-.112-.757 10.112 4 10-2.78 62.38 1.625 124.945 14 186 2.593 12.794 3.989 24.569 9 37 1.545 3.832 1.549 9.099 5.5 12 10.102.45 20.136-1.481 29.5-5 2.2-.827 6.389-.229 8-2.5 2.723-3.838 4.56-26.183 8-32-10.73 2.868-17.214-8.403-21-16.5-12.303-26.316-15.966-72.876-17-102-.917-25.827.539-125.846 16-143.5 4.907-5.603 9.257-6.152 13 .5m-6.5 1c-6.843.441-12.834 34.553-13 41 3.57 2.279 5.322-12.331 9-15 4.195-3.044 7.923-1.38 12.5-1.5-.164-4.15-3.062-24.85-8.5-24.5"/><path fill="#146382" d="M872 373c-5.966-8.973-4.04-20.186-9-29l1-1h1c2.516 9.907 6.839 19.488 7 30"/><path fill="#206870" d="M165.5 345c7.132.597 16.613 49.56 14 50-1.75-6.781-5.159-21.855-12-25-2.399-1.103-9.872.045-10.5-1.5-1.367-3.362 3.741-23.899 8.5-23.5"/><path fill="#1f666f" d="M856.5 345c5.438-.35 8.336 20.35 8.5 24.5-4.577.12-8.305-1.544-12.5 1.5-3.678 2.669-5.43 17.279-9 15 .166-6.447 6.157-40.559 13-41"/><path fill="#287da8" d="M402.5 346c.196 12.897-9.505 16.304-15.5 24.5-16.268 22.241-25.825 44.213-36.5 69.5 3.84-37.148 18.841-74.132 52-94"/><path fill="#64bece" d="M330 368c-1.011 1.598-2.035 3.363-3 5-7.802 13.228-16.565 30.861-21 45.5-2.215 7.312-7.571 43.205-9 45-2.65 3.329-12.098-.586-16-.5.783-14.83 4.026-33.186 8-47.5 2.365-8.519 17.956-48.64 24-52.5 4.996-3.191 11.362 5.843 17 5"/><path fill="#fbfdfd" d="M220 367c.513 3.26 1.59 6.652 2 10l-2 1.5c.599-10.214-4.988-2.614-8.5-2.5-8.929.29-15.347-2.016-22.5-7.5 8.625-6.898 21.13 1.563 31-1.5"/><path fill="#4297aa" d="M714 538c.159-7.345-3.709-3.762-5-5.5-.766-1.032 6.122-16.336 3-19.5 7.55-48.823-2.803-99.519-29-141l6-4c33.649 52.192 44.386 109.798 25 170"/><path fill="#afcad9" d="M624 416c-.188 1.344-.589 5.349 1 6-30.124 9.107-58.499-15.411-62-45l2.5-8c5.492 10.92 18.242 9.628 28 15 4.639 2.554 11.867 9.439 15.5 13.5 4.994 5.583 8.007 15.738 15 18.5"/><path fill="#358c9c" d="M314 406c-32.168 46.121-11.924 138.198 16 183 15.164 24.329 33.394 44.541 57 61l-4 11c-4.415-3.145-21.035-18.847-22.5-19-2.779-.289-3.81 5.07-6.5 5-50.599-47.065-76.658-114.703-73-184 3.902-.086 13.35 3.829 16 .5 1.429-1.795 6.785-37.688 9-45 4.435-14.639 13.198-32.272 21-45.5z"/><path fill="#f6fafb" d="M883 392c-32.831-35.283-35.472 4.884-40 30.5-.753 4.258-.1 1.67-2 .5.17-1.287-.186-2.718 0-4 1.156-7.967 2.876-20.592 5-28 7.822-27.281 28.13-19.571 37 1"/><path fill="#d0eff5" d="M148 425h-1c-.658-8.126-1.563-26.168-9-30 19.563-31.447 38.67-13.856 39 16.5-8.746-6.786-27.29 4.744-29 13.5"/><path fill="#daeef3" d="M649 379c3.292 19.657-4.183 37.009-24 43-1.589-.651-1.188-4.656-1-6 1.875-13.377 12.595-31.294 25-37"/><path fill="url(#g)" d="M883 392c3.273 7.592-.454 1.257-3 6.5-5.14 10.584-5.523 40.682-6 53.5-.612 16.44-.402 34.51 0 51 .382 15.672-.209 50.647 6 63.5 1.203 2.49 4.837 3.242 5 3.5 2.265 3.572-1.546 12.13-3 16-.103.273-2.486 4.153-3 5-5.017-2.052-4.63 4.54-10.5 3-10.695-2.805-22.844-60.867-23.5-72.5l-4 1.5c-4.381-35.499-4.684-64.462 0-100 1.9 1.17 1.247 3.758 2-.5 4.528-25.616 7.169-65.783 40-30.5" style="fill:url(#g)"/>/&gt;<path fill="#93d5da" d="M346 598c-7.479-1.654-9.437-21.638-16-9-27.924-44.802-48.168-136.879-16-183 3.481-4.99 12.327-10.841 15-19-35.887 69.008-28.95 148.696 17 211"/><path fill="#fafcfd" d="M808.5 387c.442-.176 8.254.184 9.5.5-3.964 3.596-8.774 7.271-14.5 6.5-.019-1.128 4.6-6.841 5-7"/><path fill="#45a1a9" d="M846 391c-2.124 7.408-3.844 20.033-5 28-2.924 2.262-2.116-2.255-2-3.5.863-9.295 3.735-18.75 5-28z"/><path fill="#011b2a" d="M147 425c1.014 12.514.987 26.878 1 39.5.002 1.801.957 4.952-2 4.5-.335-11.846-.612-22.173-2-34-.68-5.794-.915-17.062-3-22-2.88-6.819-5.014.423-10 1 2.151-9.993 1.496-10.153 7-19 7.437 3.832 8.342 21.874 9 30"/><path fill="#e2f4f6" d="M224 396c.122 1.642-.103 3.354 0 5-1.61 6.642-10.419 3.102-16.5 5-2.801.874-13.753 6.129-15.5 8 1.136-11.879 12.376-17.66 23.5-17 4.938.293 3.979 5.815 8.5-1"/><path fill="url(#h)" d="M211 595c-14.091 6.314-27.915 2.991-41-4 11.048-21.631 14.243-57.766 17-82 .04-.356 2.744-3.893 3-6.5 2.739-27.857-.946-57.955-1-86 .927-1.142 1.972-1.399 3-2.5 1.747-1.871 12.699-7.126 15.5-8 6.081-1.898 14.89 1.642 16.5-5 3.843 61.268-1.219 133.761-13 194" style="fill:url(#h)"/>/&gt;<path fill="#003f56" d="M544 412c-6.622.925-12.574 5.324-17 10-27.709 29.274 7.379 76.791 44 57 6.869-3.712 11.116-7.596 14-15 16.701 76.578-84.655 123.737-134 63.5-52.261-63.798 20.725-155.188 93-115.5"/><path fill="#041b38" d="M141 413c-7.803-5.445-9.168 16.047-10 21-4.745 28.235-4.457 65.55-1 94 .784 6.451.616 13.13 4 19-4.91-3.561-2.684-9.308-6-8-5.086-38.121-5.094-87.392 3-125 4.986-.577 7.12-7.819 10-1"/><path fill="#59c7d6" d="M141 413c2.085 4.938 2.32 16.206 3 22-2.889-4.394-8.15.225-13-1 .832-4.953 2.197-26.445 10-21"/><path fill="#4fc5d5" d="m890 431-13 2c3.018-25.293 7.921-31.051 13-2"/><path fill="url(#i)" d="m185 470-6 6.5c.623 28.302-2.766 62.721-11 90-2.668 8.838-13.686 42.472-24 22-1.246-2.472-.978-13.147-5-11.5-.331-1.339-.686-4.151-1-5 1.593-1.171 3.104-.612 4.5-2 13.405-13.33 4.939-116.922 6.5-141 5.95-8.545 14.435-13.112 24.5-15 3.776-.708 5.438 3.641 7.5-2 2.721 17.561 4.063 40.185 4 58" style="fill:url(#i)"/>/&gt;<path fill="#d7ecf2" d="M544 412c29.398-4.107 51.786 24.31 41 52-2.884 7.404-7.131 11.288-14 15-13.292-10.268-14.53-28.88-26-41.5-6.218-6.842-13.877-8.04-18-15.5 4.426-4.676 10.378-9.075 17-10"/><path fill="#2f96c4" d="M395 422c-12.719 27.219-15.387 52.411-10 82l-19 5c-5.898-31.694-3.07-60.85 10-90z"/><path fill="#b3ccdb" d="M571 479c-36.621 19.791-71.709-27.726-44-57 4.123 7.46 11.782 8.658 18 15.5 11.47 12.62 12.708 31.232 26 41.5"/><path fill="#b2eaea" d="M149 429c-1.561 24.078 6.905 127.67-6.5 141-1.396 1.388-2.907.829-4.5 2-.5-1.353-.742-1.146-2-1v-2c1.638.757 3.533.77 5-.5 6.814-5.9 7.256-56.547 7-67.5-.152-6.507-1.715-5.298-2-6-.051-.126-1.631.403-2-.5-1.788-4.379-3.218-22.073 2-24.5.193 7.535-1.397 16.935 1.5 24 .131-3.578 2.319-23.974-1.5-24-.009-.333.009-.667 0-1 2.957.452 2.002-2.699 2-4.5-.013-12.622.014-26.986-1-39.5h1c-.548 2.807 1.013 3.794 1 4"/><path fill="#fafcfe" d="M649 445c-2.659 3.252-7.101 5.048-11 3-7.567-3.976-6.126-22.072 3.5-23 9.356-.902 13.276 12.936 7.5 20"/><path fill="#2fedfa" d="M890 431c5.135 29.369 5.375 68.341 2 98-7.334 1.346-10.666-.596-14-7-.887-7.155-1.623-13.764-2-21-.835-16.038-.902-30.961 0-47 .374-6.646.221-14.474 1-21z"/><path fill="#2eedf8" d="M144 435c1.388 11.827 1.665 22.154 2 34 .009.333-.009.667 0 1-5.218 2.427-3.788 20.121-2 24.5.369.903 1.949.374 2 .5v6c0 7.097-.246 16.004-1 23-5.066 1.476-9.227 6.208-15 4-3.457-28.45-3.745-65.765 1-94 4.85 1.225 10.111-3.394 13 1"/><path fill="#2f96c4" d="M625 570c-6.278-.189-9.289-6.824-14-10 16.093-19.961 27.923-50.882 29-76.5.508-12.097-2.78-23.558-2-35.5 3.899 2.048 8.341.252 11-3 20.231 40.543 2.57 91.529-24 125"/><path fill="#1175b8" d="M876 454c-.902 16.039-.835 30.962 0 47l-2 2c-.402-16.49-.612-34.56 0-51z"/><path fill="#87b7ce" d="M743 489c-.988 2.532-1.726 6.39-2 9-.045-3.821.063-7.669 0-11.5-.012-.752-2-.251-2-1 0-.879 2.166-6.373 2-11.5-.135-4.159-.681-7.939-1-12z"/><path fill="#03b4dc" d="M146 470c3.819.026 1.631 20.422 1.5 24-2.897-7.065-1.307-16.465-1.5-24"/><path fill="#a2dce4" d="M185 470c-.096 27.105-7.102 103.687-23 124.5-12.211 15.986-18.048 1.069-22-11.5-.468-1.488-.603-4.396-1-6 4.022-1.647 3.754 9.028 5 11.5 10.314 20.472 21.332-13.162 24-22 8.234-27.279 11.623-61.698 11-90z"/><path fill="#0078be" d="M148 501h-2v-6c.285.702 1.848-.507 2 6"/><path fill="#021625" d="M148 501c.256 10.953-.186 61.6-7 67.5-1.467 1.27-3.362 1.257-5 .5-7.086-3.275-7.071-23.034-8-30 3.316-1.308 1.09 4.439 6 8 1.218.883 1.126 2.942 4.5 2 4.302-1.544 5.988-20.251 6.5-25 .754-6.996 1-15.903 1-23z"/><path fill="#2caed9" d="M385 504c3.25 17.849 9.634 33.151 20 48l-15 12c-11.377-15.976-20.392-35.609-24-55z"/><path fill="#55b9d5" d="M714 538c-.294 13.614-23.994 52.348-33 64l-5-5c16.793-22.741 31.674-56.029 36-84 3.122 3.164-3.766 18.468-3 19.5 1.291 1.738 5.159-1.845 5 5.5"/><path fill="#76949e" d="M742 518c-4.619 52.86-28.813 98.269-65 136-3.433-1.399-.121-11.568 1-14 3.171-6.878 15.114-17.22 20-24.5 22.08-32.897 31.19-55.681 41-94 .384-1.502.878-4.004 3-3.5"/><path fill="#9cd9e2" d="M879 591c-3.006 4.955-3.8 12.44-12.5 10-14.757-4.14-23.801-64.233-25.5-78l4-1.5c.656 11.633 12.805 69.695 23.5 72.5 5.87 1.54 5.483-5.052 10.5-3"/><path fill="#54c6d6" d="M892 529c-.495 4.347-.623 17.559-5 19.5-9.319 4.133-8.386-21.544-9-26.5 3.334 6.404 6.666 8.346 14 7"/><path fill="#4fc8d7" d="M145 524c-.512 4.749-2.198 23.456-6.5 25-3.374.942-3.282-1.117-4.5-2-3.384-5.87-3.216-12.549-4-19 5.773 2.208 9.934-2.524 15-4"/><path fill="#f2fafc" d="M349.5 524c38.876 67.833 99.429 144.074 187 136l40.5-7.5c-53.821 19.241-113.049 17.195-162.5-12.5-38.907-23.363-59.774-72.339-65-116"/><path fill="#39c9e7" d="M405 552c32.776 46.95 90.234 66.059 145 49l5 17c-62.213 18.675-127.083-.755-165-54z"/><path fill="#41b1d7" d="M625 570c-19.258 24.26-40.382 39.109-70 48l-5-17c22.458-6.996 46.14-22.568 61-41 4.711 3.176 7.722 9.811 14 10"/><path fill="#3a646e" d="M138 572c.314.849.669 3.661 1 5 .397 1.604.532 4.512 1 6l-1 1c-1.154-4.379-3-8.284-3-13 1.258-.146 1.5-.353 2 1"/><path fill="#20666e" d="M856 640c-12.23-1.433-26.163 4.203-35-7-5.011-12.431-6.407-24.206-9-37 11.143 7.64 30.236 1.494 39-7 3.786 8.097 10.27 19.368 21 16.5-3.44 5.817-5.277 28.162-8 32-1.611 2.271-5.8 1.673-8 2.5m-645-45c-2.529 12.93-4.859 25.776-10 38-3.915 1.635-7.403 6.771-11.5 8-2.584.775-9.679-2.036-10.5 2-2.806-.431-19.963-4.344-21-5.5-2.954-3.292-4.51-25.921-9-31 .086-1.81 7.203-.051 10.5-1.5 3.159-1.389 8.828-10.726 10.5-14 13.085 6.991 26.909 10.314 41 4"/><path fill="#7ee0f6" d="M681 602c-3.069 3.97-23.205 27.503-26.5 27-1.201-.183-2.328-3.542-3.5-4 7.242-6.751 19.129-20.05 25-28z"/><path fill="#1e5d77" d="m825 650-8 24-11 21c.482-9.434-7.922-37.467-10-49-.296-1.641-.809-2.921-1-4l14-36c1.841 8.389 8.285 40.881 16 44"/><path fill="#8ed9e7" d="M680 632c-5.687 6.033-11.586 11.757-18 17-16.446 13.443-34.715 24.214-54 33l-7-13c26.471-12.128 49.698-30.904 69.5-52 4.115-.425 7.507 12.511 9.5 15"/><path fill="#2f848c" d="M201 633c-.987 2.346-3.512 11.238-5.5 12-5.684.59-11.021-1.158-16.5-2 .821-4.036 7.916-1.225 10.5-2 4.097-1.229 7.585-6.365 11.5-8"/><path fill="#368c94" d="M856 640c-9.364 3.519-19.398 5.45-29.5 5-3.951-2.901-3.955-8.168-5.5-12 8.837 11.203 22.77 5.567 35 7"/><path fill="#4b839f" d="m486 916-1 4c-84.298-12.558-154.735-74.026-205-139.5-22.634-29.483-40.87-61.778-63-91.5-1.268-6.706-2.743-5.983-2-14 1.083-11.689 6.504-28.552 9-41l29 67.5c32.091 85.056 135.726 211.065 233 214.5"/><path fill="#286d79" d="M383 661c68.585 48.849 148.141 56.014 225 21 19.285-8.786 37.554-19.557 54-33-84.305 81.985-223.004 77.06-308-2 2.69.07 3.721-5.289 6.5-5 1.465.153 18.085 15.855 22.5 19"/><path fill="#0d4b67" d="M215 675c-.743 8.017.732 7.294 2 14 7.495 39.654 50.458 102.368 78 132.5 64.589 70.661 156.364 116.375 254 101.5 104.352-15.898 184.609-94.415 234-183 4.173-7.485 22.693-38.997 23-45l11-21c-56.234 171.53-232.378 316.388-417.5 231-61.003-28.138-116.267-81.773-151.5-138.5-22.779-36.676-37.493-75.84-54-115.5 4.189-.658 6.946-4.469 9-8 .164 7.026 1.009 17.208 4 23.5.251.527 6.181 9.213 8 8.5"/><path fill="#397790" d="M806 695c-.307 6.003-18.827 37.515-23 45l11-89c.381-.875-.093-4.405 2-5 2.078 11.533 10.482 39.566 10 49"/><path fill="#64bece" d="m601 669 7 13c-76.859 35.014-156.415 27.849-225-21l4-11c62.88 43.842 144.09 51.03 214 19"/><path fill="#5e8da6" d="M783 740c-49.391 88.585-129.648 167.102-234 183-22.243 1.094-41.951.285-64-3l1-4c17.435.616 40.113-1.314 54-12 24.98-6.664 54.896-30.38 64-55l22.5-9c71.645-39.213 135.022-114.359 167.5-189Z"/><path fill="#65c6df" d="M485 920c22.049 3.285 41.757 4.094 64 3-97.636 14.875-189.411-30.839-254-101.5-27.542-30.132-70.505-92.846-78-132.5 22.13 29.722 40.366 62.017 63 91.5 50.265 65.474 120.702 126.942 205 139.5"/><path fill="#0b060a" d="M604 849c-9.104 24.62-39.02 48.336-64 55-40.698 10.857-96.628-4.047-118-43-31.462-57.343 22.655-116.318 80.5-120 56.535-3.599 124.323 46.28 101.5 108m-171 15c5.64 7.379 10.1 12.328 18 17 36.633 29.593 97.96 26.022 130-9 9.433-7.773 14.478-13.356 19-25 19.294-49.677-23.437-92.613-70.5-100-66.866-10.495-147.5 50.276-96.5 117"/><path fill="#98dce4" d="M600 847c-.763 2.403-3.716 2.734-4 3 6.063-17.129 5.558-29.952-3-46-29.072-54.516-117.556-55.338-156-9-25.589 30.844-17.364 59.418 15 80-6.729-3.257-13.127-6.306-19-11-51-66.724 29.634-127.495 96.5-117 47.063 7.387 89.794 50.323 70.5 100"/><path fill="#f6fbfc" d="M593 804c-11.621-13.791-24.311-23.087-41-30-29.634-12.275-51.246-11.89-81 0-2.874 1.148-4.099 1.574-7 3-10.357 5.092-18.369 10.217-27 18 38.444-46.338 126.928-45.516 156 9"/><path fill="#4a8791" d="m552 774-10 4c-11.866-7.611-38.679-13.656-50-3-4.453 1.492-9.159 3.345-13 6-3.728.771-3.748-5.632-8-7 29.754-11.89 51.366-12.275 81 0"/><path fill="#bedadd" d="M542 778c4.82 3.092 8.885 9.252 12 14-17.173-18.5-37.497-25.213-62-17 11.321-10.656 38.134-4.611 50 3"/><path fill="#031129" d="M554 792c14.881 22.678 8.294 22.961 9 46-22.791 58.323-115.923 39.081-105-26 .701-8.449 11.17-17.95 13-24 2.831-1.687 5.37-5.182 8-7 3.841-2.655 8.547-4.508 13-6 24.503-8.213 44.827-1.5 62 17m-54 37c4.046 3.552 13.779 5.777 19 5 5.849 6.787 27.043-.318 29-7.5 1.839-6.748-2.243-21.841-6-28-12.919-21.181-46.932-22.603-61-2-14.13 20.693.18 27.184 19 32.5"/><path fill="#8cbec0" d="M471 774c4.252 1.368 4.272 7.771 8 7-2.63 1.818-5.169 5.313-8 7 1.859-6.148.515-10.678-7-11 2.901-1.426 4.126-1.852 7-3"/><path fill="#70b6be" d="M593 804c8.558 16.048 9.063 28.871 3 46-.654.614-1.433 1.344-2 2-9.248-7.513-18.472-10.584-30.5-10 .329-1.083-.494-3.799-.5-4-.706-23.039 5.881-23.322-9-46-3.115-4.748-7.18-10.908-12-14l10-4c16.689 6.913 29.379 16.209 41 30"/><path fill="#469dab" d="M471 788c-1.83 6.05-12.299 15.551-13 24l-3 7.5c-2.065 45.293 47.68 69.847 85.5 48.5 3.868-2.184 13.727-12.9 17-13 6.997-.213 19.419 9.295 16.5 18-2.24 1.719-3.781 4.467-7 5-2.064-5.318-5.13-10.268-10.5-13 1.18 9.914 6.874 14.768-4.5 20-28.449 13.086-73.024 3.054-100-10-32.364-20.582-40.589-49.156-15-80 8.631-7.783 16.643-12.908 27-18 7.515.322 8.859 4.852 7 11"/><path fill="#0d1d51" d="M519 834c20.605-3.067 12.881-40.472-13.5-33-12.5 3.541-14.987 19.672-5.5 28-18.82-5.316-33.13-11.807-19-32.5 14.068-20.603 48.081-19.181 61 2 3.757 6.159 7.839 21.252 6 28-1.957 7.182-23.151 14.287-29 7.5"/><path fill="#0281b5" d="M519 834c-5.221.777-14.954-1.448-19-5-9.487-8.328-7-24.459 5.5-28 26.381-7.472 34.105 29.933 13.5 33"/><path fill="#7bc0c7" d="M458 812c-10.923 65.081 82.209 84.323 105 26 .006.201.829 2.917.5 4 12.028-.584 21.252 2.487 30.5 10-7.668 8.875-9.886 13.241-20 21 2.919-8.705-9.503-18.213-16.5-18-3.273.1-13.132 10.816-17 13-37.82 21.347-87.565-3.207-85.5-48.5z"/><path fill="#f1f8f9" d="M581 872c-.699.576-4.666 3.102-6 4-2.856.84-5.284 2.758-8 4-.086-.631.164-1.578 0-2 3.219-.533 4.76-3.281 7-5 10.114-7.759 12.332-12.125 20-21 .567-.656 1.346-1.386 2-2 .284-.266 3.237-.597 4-3-4.522 11.644-9.567 17.227-19 25"/><path fill="#134c57" d="M452 875c26.976 13.054 71.551 23.086 100 10 5.196-.558 10.346-2.873 15-5 2.716-1.242 5.144-3.16 8-4-37.829 25.476-84.047 28.631-124 5-7.9-4.672-12.36-9.621-18-17 5.873 4.694 12.271 7.743 19 11"/><path fill="#5eb4c2" d="M567 878c.164.422-.086 1.369 0 2-4.654 2.127-9.804 4.442-15 5 11.374-5.232 5.68-10.086 4.5-20 5.37 2.732 8.436 7.682 10.5 13"/><path fill="#3a888f" d="M581 872c-32.04 35.022-93.367 38.593-130 9 39.953 23.631 86.171 20.476 124-5 1.334-.898 5.301-3.424 6-4"/></svg>