<svg xmlns="http://www.w3.org/2000/svg" width="1024" height="1024"><defs><linearGradient id="a" x1="839.591" x2="543.475" y1="431.009" y2="613.818" gradientUnits="userSpaceOnUse"><stop offset="0%" style="stop-color:#488093"/><stop offset="100%" style="stop-color:#699cae"/></linearGradient></defs><defs><linearGradient id="b" x1="399.412" x2="654.126" y1="350.287" y2="560.099" gradientUnits="userSpaceOnUse"><stop offset="0%" style="stop-color:#57b6d4"/><stop offset="40.303%" style="stop-color:#1a8ab2"/><stop offset="88.485%" style="stop-color:#025b88"/><stop offset="100%" style="stop-color:#0080aa"/></linearGradient></defs><defs><linearGradient id="c" x1="407.846" x2="385.684" y1="275.704" y2="521.708" gradientUnits="userSpaceOnUse"><stop offset="35.223%" style="stop-color:#8ee5f8"/><stop offset="100%" style="stop-color:#49d0f0"/></linearGradient></defs><defs><linearGradient id="d" x1="364.953" x2="461.549" y1="348.122" y2="420.993" gradientUnits="userSpaceOnUse"><stop offset="0%" style="stop-color:#f5fcfe"/><stop offset="100%" style="stop-color:#b2e9f7"/></linearGradient></defs><path fill="#042a42" d="M532 884c-21.045-.213-39.767 1.459-61-1-121.734-14.098-215.067-110.366-263-217.5-2.975-6.649-15.248-44.285-17-46-1.923-1.883-14.701-2.001-19.5-3.5-79.5-24.826-78.01-251.916 6-278 6.645-2.063 13.1-1.951 19.5-4 3.865-1.237 2.896-4.122 5-1.5-31.31 66.336-36.605 148.403-24 222 .356 2.079 1.623 9.756 4 10.5 21.749 114.089 91.73 232.051 198 285 70.028 34.892 144.622 40.326 218.5 13 6.177-2.285 47.401-20.974 48.5-24.5.309-.99-1.649-2.317-1-4.5.656.107 10.164 6.937 7-2 6.429.612 1.513-1.132 4-5 1.734 1.749 2.097 3.775 3.5 4 64.008-42.087 114.792-103.315 146.5-173 26.42-58.063 36.633-114.469 37-178.5.747-130.506-64.879-250.924-184-307-.868 1.686 10.389 8.351 12 9.5l-1 2c-70.239-58.162-188.552-56.583-271-27l3-3.5c-.381-.98-4.938.351-6 .5 144.381-59.383 319.601 4.945 401 135.5 3.953 6.341 21.149 43.602 23.5 44.5 1.92.734 10.466-.074 14 1 89.099 27.075 91.66 248.432 10 279-4.155 1.555-15.235 1.28-17.5 3.5-1.102 1.08-6.527 19.622-8 23C766.586 762.957 669.818 864.752 532 884m349-308c4.526-7.841 7.364-13.227 10-22 2.231-5.792 4.709-12.451 6-18.5 11.026-51.67 7.66-153.976-41-186.5-9.702-6.485-20.717-13.059-33-10.5 34.129 85.412 31.044 185.201 8 273 22.764 1.448 39.588-17.46 50-35.5M163 350c-15.628 2.787-32.628 38.43-37 52.5-14.352 46.19-15.175 105.639 0 151.5 3.182 9.615 4.138 12.154 9 21 10.979 19.975 28.474 41.548 54 38.5-26.712-88.595-29.022-187.029 5-274-2.34-2.943-28.535 5.636-31 10.5"/><path fill="#c9dee7" d="M671 184c.726.601 2.251 3.346 3 4l-9 35c-31.19-8.293-53.074 30.046-31 51l-2 3c-16.851-11.156-38.662-19.187-57-24-46.99-12.334-94.085-15.658-140 3-96.892 31.873-165.185 158.144-130 256 20.873 80.346 89.288 135.642 170 149 16.142 2.671 30.744 3.759 47 3l7.5 4c21.235-2.385 42.445-6.43 62.5-14 5.027 23.249-5.623 43.917-13 65-92.568-64.113-185.566-6.645-217 90-95.478-66.646-154.009-177.95-166-293-1.301-114.6 32.644-231.115 125.5-304 2.382 2.171-8.177 7.667-3 9 1.348.347 18.787-14.818 22-17 49.277-33.463 103.089-54.59 162.5-62.5-162.074 5.06-286.268 126.775-307 285.5.771-14.186 3.569-29.19 4-43.5.336-11.132-1.348-23.487-3-34.5 14.938-38.914 38.03-72.134 66-103 49.16-40.252 74.092-66.428 137-89 82.448-29.583 200.761-31.162 271 27m-325 96c13.908 11.745 28.174 10.906 40-3 13.298-15.638 7.96-46.092-11.5-53-34.994-12.423-58.429 30.725-28.5 56"/><path fill="#fcfdfd" d="M196 516c-3.54-33.962-1.811-55.666 0-89 20.732-158.725 144.926-280.44 307-285.5-59.411 7.91-113.223 29.037-162.5 62.5-3.213 2.182-20.652 17.347-22 17-5.177-1.333 5.382-6.829 3-9-92.856 72.885-126.801 189.4-125.5 304"/><path fill="#135e73" d="M400 157c-62.908 22.572-87.84 48.748-137 89-2.481 2.032-4.7 4.354-7.5 6l.5-5c28.299-30.857 99.779-87.213 141-93 1.062-.149 5.619-1.48 6-.5z"/><path fill="#5c97a9" d="M807 658c-6.245 2.857-5.689 17.011-14 12 36.274-71.164 52.79-154.869 42-234.5l-4 2c-10-85.09-52.043-168.065-116.5-224.5-13.318-11.661-28.184-20.786-42.5-31-1.611-1.149-12.868-7.814-12-9.5 119.121 56.076 184.747 176.494 184 307-.367 64.031-10.58 120.437-37 178.5"/><path fill="#396e81" d="M793 670c-31.558 61.911-80.339 116.225-137 156-5.264-6.967-6.289-15.56-10-23-.133-.267.134-.734 0-1 175.169-136.633 244.044-437.331 52-591-7.297-8.668-15.518-15.586-24-23-.749-.654-2.274-3.399-3-4l1-2c14.316 10.214 29.182 19.339 42.5 31C778.957 269.435 821 352.41 831 437.5l4-2c10.79 79.631-5.726 163.336-42 234.5"/><path fill="#8bb3c2" d="M698 211c138.452 164.468 71.024 414.448-80 545-10.714-13.747-24.717-27.107-39-37 7.377-21.083 18.027-41.751 13-65 150.2-56.697 181.815-253.454 61-360l-.5-4c13.886-.446 28.875-11.38 33.5-24.5.469-1.332 2.67-7.805-1-7.5 2.707-14.581-4.919-30.99-20-35l9-35c8.482 7.414 16.703 14.332 24 23"/><path fill="url(#a)" d="M646 802c-7.596-15.128-17.608-32.666-28-46 151.024-130.552 218.452-380.532 80-545 192.044 153.669 123.169 454.367-52 591" style="fill:url(#a)"/>/&gt;<path fill="#6aa4ad" d="m386 277 .5-5c-6.558 4.44-13.247 8.341-21 10l-19.5-2c-29.929-25.275-6.494-68.423 28.5-56 19.46 6.908 24.798 37.362 11.5 53m-29.5-53c-28.148 3.481-31.239 51.108-1 56 43.977 7.114 47.888-61.799 1-56"/><path fill="#30637b" d="M665 223c15.081 4.01 22.707 20.419 20 35-4.287 23.091-34.163 31.982-51 16-22.074-20.954-.19-59.293 31-51m-15.5 1c-28.777 4.707-29.567 51.547 0 56 45.525 6.857 45.437-63.432 0-56"/><path fill="#cff5f9" d="M356.5 224c46.888-5.799 42.977 63.114-1 56-30.239-4.892-27.148-52.519 1-56m1 2c-27.021 3.699-27.491 47.521 0 51 39.662 5.019 39.555-56.415 0-51"/><path fill="#bff3f9" d="M649.5 224c45.437-7.432 45.525 62.857 0 56-29.567-4.453-28.777-51.293 0-56m3 2c-27.737 2.458-30.441 46.741-2 51 39.489 5.913 40.2-54.385 2-51"/><path fill="#307582" d="M357.5 226c39.555-5.415 39.662 56.019 0 51-27.491-3.479-27.021-47.301 0-51m15.5 5c8.013 3.67 12.321 17.321 11 25.5-.844 5.228-6.998 8.747-6.5 13.5 12.032-11.584 11.697-31.578-4.5-39-8.149-3.734-18.322-5.677-25 2.5 7.514-3.914 16.874-6.222 25-2.5m-26.5 3-1.5 1.5.5.5 1.5-.5zm1.5 28c6.357 8.83 18.712 8.094 26 1 14.106-13.731-1.372-35.591-19-27-.327.003-.681-.044-1 0-2.767-4.943-10.535 6.908-11 8.5-.788 2.7-2.066 19.752 5 17.5m32.5-19-1 19c3.274-5.704 5.228-13.067 1-19m-35 24c1.621 4.89 6.988 5.933 11 8l14.5-1.5-16.5-.5z"/><path fill="#0a2b45" d="M652.5 226c38.2-3.385 37.489 56.913-2 51-28.441-4.259-25.737-48.542 2-51m0 2c-30.16 3.188-27.257 52.407 9 47 25.567-3.812 23.641-50.45-9-47"/><path fill="#5bb0bd" d="M373 231c-8.126-3.722-17.486-1.414-25 2.5 6.678-8.177 16.851-6.234 25-2.5"/><path fill="#2b809c" d="M652.5 228c32.641-3.45 34.567 43.188 9 47-36.257 5.407-39.16-43.812-9-47m-2 2c-23.537 4.314-21.958 41.355 2 44 33.218 3.667 33.577-50.521-2-44"/><path fill="#0e3348" d="M650.5 230c35.577-6.521 35.218 47.667 2 44-23.958-2.645-25.537-39.686-2-44m-1.5 5c-12.35 3.528-14.934 20.731-5 29 28.995 24.134 42.463-39.701 5-29"/><path fill="#63b6c1" d="M373 231c16.197 7.422 16.532 27.416 4.5 39-.498-4.753 5.656-8.272 6.5-13.5 1.321-8.179-2.987-21.83-11-25.5"/><path fill="#63c3d3" d="m346.5 234 .5 1.5-1.5.5-.5-.5z"/><path fill="#64b6bf" d="M354 236c-9.994 1.365-11.584 18.244-6 26-7.066 2.252-5.788-14.8-5-17.5.465-1.592 8.233-13.443 11-8.5"/><path fill="#90d6e5" d="M374 263c-5.405 4.862-28.073 5.207-21.5-3 14.115 7.246 25.993-12.505 14-20-.993-.621-10.891-4.006-11.5-4 17.628-8.591 33.106 13.269 19 27"/><path fill="#4ec0df" d="M644 264c.213-7.181 7.763-1.039 14.5-4 7.69-3.379 7.776-17.162-1-21-3.965-1.734-8.011 2.923-8.5-4 37.463-10.701 23.995 53.134-5 29"/><path fill="#bef2ff" d="M644 264c-9.934-8.269-7.35-25.472 5-29 .489 6.923 4.535 2.266 8.5 4 8.776 3.838 8.69 17.621 1 21-6.737 2.961-14.287-3.181-14.5 4"/><path fill="#e2f7fc" d="M355 236c.609-.006 10.507 3.379 11.5 4 11.993 7.495.115 27.246-14 20-6.573 8.207 16.095 7.862 21.5 3-7.288 7.094-19.643 7.83-26-1-5.584-7.756-3.994-24.635 6-26 .319-.044.673.003 1 0"/><path fill="#77b9bf" d="M380.5 243c4.228 5.933 2.274 13.296-1 19z"/><path fill="#267a9d" d="M575 253c114.135 39.485 173.821 158.502 133 274l-14 29.5C653.74 621.544 579.47 666.549 501.5 663c-8.533-.388-18.111-5.811-26.5-2-80.712-13.358-149.127-68.654-170-149 .043.119 1.65-.395 2 .5.951 2.43 2.061 12.477 4 13l4-1.5c8.111 22.981 20.042 43.713 36 62 76.487 87.652 207.75 94.701 295.5 19 123.313-106.38 70.777-311.12-85.5-350l6.5-2c-32.607-9.592-67.489-11.08-101-5-7.724 1.401-24.978 5.855-31.5 8 45.915-18.658 93.01-15.334 140-3"/><path fill="#479fba" d="M561 255c-21.132-5.257-41.21-6.897-63-6-31.652 1.303-54.211 8.086-82 22-45.949 23.006-76.205 55.596-96 103-21.064 50.443-23.353 98.005-5 150l-4 1.5c-1.939-.523-3.049-10.57-4-13-.35-.895-1.957-.381-2-.5-35.185-97.856 33.108-224.127 130-256 6.522-2.145 23.776-6.599 31.5-8 33.511-6.08 68.393-4.592 101 5z"/><path fill="#0a3f55" d="M197 349c-27.031 70.416-29.069 142.197-15 216-2.377-.744-3.644-8.421-4-10.5-12.605-73.597-7.31-155.664 24-222-2.104-2.622-1.135.263-5 1.5 15.213-31.826 35.199-61.048 59-87l-.5 5c2.8-1.646 5.019-3.968 7.5-6-27.97 30.866-51.062 64.086-66 103"/><path fill="#147183" d="M498 249v2c-6.77.16-13.388 1.855-20 3-10.447 1.81-23.017 5.393-33 9-8.705 3.145-20.955 8.537-29 13v-5c27.789-13.914 50.348-20.697 82-22"/><path fill="#062d3f" d="M561 255c156.277 38.88 208.813 243.62 85.5 350-87.75 75.701-219.013 68.652-295.5-19 1.979-1.214.262-2.933 3.5-1 2.379 1.421 11.755 10.033 15.5 13 59.408 47.067 114.287 67.988 191 47 24.877-6.806 42.068-15.403 63-30 167.756-116.983 74.044-368.714-126-364v-2c21.79-.897 41.868.743 63 6"/><path fill="url(#b)" d="M498 251c200.044-4.714 293.756 247.017 126 364l-5-10.5-.5-11.5c-21.228 17.378-45.378 27.854-70.5 38-11.607 4.687-21.536 2.195-19 17.5 2.331 1.097 5.892-1.008 8-1.5 8.092 1.239 16.425-5.151 24-2-76.713 20.988-131.592.067-191-47v-2c4.353 3.442 13.557 9.285 18.5 12 42.566 23.377 3.282-7.021-6.5-18.5-30.86-36.215-47.484-83.972-46-131.5.374-11.975 3.118-40.252 8-50.5 1.509-3.168 1.11-1.979 4-1.5 3.061 9.809 13.438 28.253 21 35-9.361 90.428 65.587 167.373 157 157 77.883-8.838 134.705-82.791 124-160.5-1.432-10.395-6.371-19.657-9-29.5-.771-2.887.76-8.57 0-11.5-2.91-11.223-10.553-23.439-22-27.5-.855-.303-1.16-.791-2-1-26.048-40.711-83.454-66.615-131.5-61-11.929 1.394-29.675 6.239-37.5 16-9.678-6.466-27.418-11.178-39-11 19.328-17.611 43.822-29.325 69-36 1.396-.37 12.008-1.887 12-2.5-11.406 2.118-7.936-11.467-12-19.5 6.612-1.145 13.23-2.84 20-3" style="fill:url(#b)"/>/&gt;<path fill="#caeaf4" d="M632 277c5.19 3.436 16.009 12.598 21 17 120.815 106.546 89.2 303.303-61 360-20.055 7.57-41.265 11.615-62.5 14l-7.5-4c80.256-3.747 159.218-61.222 186-137 40.821-115.498-18.865-234.515-133-274 18.338 4.813 40.149 12.844 57 24"/><path fill="#62d2ef" d="M478 254c4.064 8.033.594 21.618 12 19.5.008.613-10.604 2.13-12 2.5-8.939-2.098-10.544 5.999-14.5-6 6.944 7.358-11.114 12.618-12 12-.824-.574-5.242-16.513-6.5-19 9.983-3.607 22.553-7.19 33-9"/><path fill="#93aeb8" d="M653 294c-4.991-4.402-15.81-13.564-21-17l2-3c16.837 15.982 46.713 7.091 51-16 3.67-.305 1.469 6.168 1 7.5-4.625 13.12-19.614 24.054-33.5 24.5z"/><path fill="url(#c)" d="M478 276c-25.178 6.675-49.672 18.389-69 36-43.093.664-69.068 40.347-64 81-12.727 18.083-12.329 44.024-14 65.5l5-.5c-1.484 47.528 15.14 95.285 46 131.5 9.782 11.479 49.066 41.877 6.5 18.5-4.943-2.715-14.147-8.558-18.5-12-64.394-50.923-79.771-155.212-44-227 32.784-40.004 39.606-65.044 90-93 8.045-4.463 20.295-9.855 29-13 1.258 2.487 5.676 18.426 6.5 19 .886.618 18.944-4.642 12-12 3.956 11.999 5.561 3.902 14.5 6" style="fill:url(#c)"/>/&gt;<path fill="#62b7c2" d="m345.5 267 9 6 16.5.5-14.5 1.5c-4.012-2.067-9.379-3.11-11-8"/><path fill="#198c9e" d="M416 271v5c-50.394 27.956-57.216 52.996-90 93-2.074 2.53-4.286 6.895-6 5 19.795-47.404 50.051-79.994 96-103"/><path fill="#abcad2" d="M386 277c-11.826 13.906-26.092 14.745-40 3l19.5 2c7.753-1.659 14.442-5.56 21-10z"/><path fill="#12bbd7" d="M617 368c-6.204-1.541-16.727-1.472-23 0-6.25 1.466-18.362 12.123-19.5 12-.637-.069-7.81-6.835-10-8-25.483-13.549-52.418-17.767-81-13-7.237-12.615-17.707-29.043-32.5-33-1.051-.83-1.578-2.05-3-3 7.825-9.761 25.571-14.606 37.5-16 48.046-5.615 105.452 20.289 131.5 61"/><path fill="url(#d)" d="M448 323c1.422.95 1.949 2.17 3 3 1.49 1.177 11.549 9.843 12 10.5 2.166 3.154-.142 4.795 0 5 24.081 34.749 32.596 79.21-10.5 104.5-3.731 2.189-16.378 5.347-17 6-.715.75 1.368 2.612.5 3.5-4.485 4.59-25.548 1.358-31.5.5-.782-.113-.398 2.017-.5 2-7.472-1.283-29.275-11.893-35-17-7.562-6.747-17.939-25.191-21-35-1.426-4.569-2.401-8.196-3-13-5.068-40.653 20.907-80.336 64-81 11.582-.178 29.322 4.534 39 11" style="fill:url(#d)"/>/&gt;<path fill="#a7e2f4" d="m594 368-3 7c-3.132 3.476-6.821 1.223-10 6.5-3.132 5.199-3.68 8.596-2 14.5l-4-1.5c-7.192 36.478 46.382 57.619 59 20 7.315-21.81-4.227-28.642-15.5-42.5-2.299-2.826-.939-.847.5-3 11.447 4.061 19.09 16.277 22 27.5.76 2.93-.771 8.613 0 11.5-4.19 15.928-14.495 25.658-30 30.5 12.634 47.034-11.589 95.187-56 114.5-70.78 30.78-151.786-15.933-151-95 .102.017-.282-2.113.5-2 5.952.858 27.015 4.09 31.5-.5.868-.888-1.215-2.75-.5-3.5.622-.653 13.269-3.811 17-6 43.096-25.29 34.581-69.751 10.5-104.5-.142-.205 2.166-1.846 0-5-.451-.657-10.51-9.323-12-10.5 14.793 3.957 25.263 20.385 32.5 33 28.582-4.767 55.517-.549 81 13 2.19 1.165 9.363 7.931 10 8 1.138.123 13.25-10.534 19.5-12m-106 4c.337 1.606 2.582 10.343 3 11 .762 18.94-4.732 36.861-16 52-6.875 6.175-13.632 12.757-22 17-4.605 2.335-8.982 3.759-14 5-2.105.52-1.89.979-2 1-10.512 2.054-20.509 1.191-31 1.5 2.299 85.48 105.334 130.359 171.5 76.5 27.347-22.261 42.901-64.384 30-98-21.821 2.318-42.068-16.379-40.5-38.5.265-3.745 6.303-17.101 6-18-.542-1.61-24.166-14.299-27.5-15.5-18.353-6.608-41.908-8.437-60.5-3.5 1.837 2.869 2.319 6.254 3 9.5"/><path fill="#1a5172" d="M856 349c-2.252-.86-4.664.863-6 1-18.283 1.876-3.844 34.013-2 46.5 5.95 40.277 5.46 75.657 8 115.5 1.54 24.164.843 54.795 34 35.5l-9 28.5c-10.412 18.04-27.236 36.948-50 35.5 23.044-87.799 26.129-187.588-8-273 12.283-2.559 23.298 4.015 33 10.5"/><path fill="#195070" d="M135 575c.364-7.799-5.835-15.523-8-22-.688-2.06-1.402-4.843-2-7 34.106 25.056 35.957-12.737 35-38 4.35-18.202 1.466-54.691 4-76.5 1.504-12.945 15.228-70.109 12-77-1.293-2.759-5.042-4.124-8-4.5-1.257-.16-3.818-.211-5 0 2.465-4.864 28.66-13.443 31-10.5-34.022 86.971-31.712 185.405-5 274-25.526 3.048-43.021-18.525-54-38.5"/><path fill="#6e9bac" d="M196 427c-1.811 33.334-3.54 55.038 0 89 11.991 115.05 70.522 226.354 166 293-1.573 4.837-7.299 18.375-6 22.5.314.999.516-2.134 4-.5 3.825 1.794 6.826 4.351 10 6-7.78 7.138 8.888 6.891 10 13-106.27-52.949-176.251-170.911-198-285-14.069-73.803-12.031-145.584 15-216 1.652 11.013 3.336 23.368 3 34.5-.431 14.31-3.229 29.314-4 43.5"/><path fill="#6da6b8" d="m850 350 22 20.5c-3.709 2.383-7.335-3.275-12.5-1.5-3.081 1.059-6.195 12.444-6.5 15.5-.72 7.224 7.116 91.837 9 98 5.295 17.318 28.995 8.041 33-5 2.482-8.083-.199-18.207 1.5-26.5 3.19 13.786 1.754 28.167 1.5 42-7.664 14.538-26.525 39.887-42 19-2.54-39.843-2.05-75.223-8-115.5-1.844-12.487-16.283-44.624 2-46.5"/><path fill="#adf1ff" d="M856 349c48.66 32.524 52.026 134.83 41 186.5-1.291 6.049-3.769 12.708-6 18.5 5.657-18.828 6.626-40.637 7-61 .254-13.833 1.69-28.214-1.5-42-1.699 8.293.982 18.417-1.5 26.5-4.005 13.041-27.705 22.318-33 5-1.884-6.163-9.72-90.776-9-98 .305-3.056 3.419-14.441 6.5-15.5 5.165-1.775 8.791 3.883 12.5 1.5L850 350c1.336-.137 3.748-1.86 6-1"/><path fill="#afeffe" d="m168 350-23 22.5c4.307 1.046 6.733-4.296 12.5-2.5 3.185.992 6.086 10.435 6.5 13.5.872 6.453-8.023 96.321-10 101-6.635 15.699-28.31 6.325-32-7-2.109-7.616-.069-15.821-1.5-23.5-2.104 0-2.578 38.633-2.5 42 .41 17.757 2.256 32.899 7 50 .598 2.157 1.312 4.94 2 7l-1 1c-15.175-45.861-14.352-105.31 0-151.5 4.372-14.07 21.372-49.713 37-52.5 1.182-.211 3.743-.16 5 0"/><path fill="#6ea7b9" d="M160 508c-3.003 12.565-12.912 15.063-23.5 9-7.733-4.429-11.241-16.5-18.5-21-.078-3.367.396-42 2.5-42 1.431 7.679-.609 15.884 1.5 23.5 3.69 13.325 25.365 22.699 32 7 1.977-4.679 10.872-94.547 10-101-.414-3.065-3.315-12.508-6.5-13.5-5.767-1.796-8.193 3.546-12.5 2.5l23-22.5c2.958.376 6.707 1.741 8 4.5 3.228 6.891-10.496 64.055-12 77-2.534 21.809.35 58.298-4 76.5"/><path fill="#062837" d="M437 458c-7.379 26.332 10.764 52.233 33 65 8.993 5.163 19.506 9.234 30 10 6.864.501 16.476 1.088 22-3 17.002 14.434 39.973-.782 35-23-5.437-24.291-41.956-22.261-42 5-.008 5.248.636 7.443 3 12-5.569-2.939-10.711-1.219-16-2-7.632-1.126-20.582-4.94-27-9-15.747-9.962-23.773-28.814-23-47 .187-4.405 4.155-10.489 1-14 8.368-4.243 15.125-10.825 22-17-9.157 12.302-19.223 13.757-21 31.5-2.049 20.467 15.709 42.138 34.5 48.5 2.054.695 16.727 3.37 18 3 7.564-2.2 5.325-13.15 9.5-19.5 5.916-8.999 20.491-10.867 21-12 2.923-6.509-4.661-30.658-9-37-11.938-17.449-28.799-16.139-45.5-23.5-2.391 3.711-4.191 6.028-7.5 9 11.268-15.139 16.762-33.06 16-52 .449.707 3.048 3.899 3.5 4 26.187-7.155 50.983 3.6 70 21 3.218-15.355 4.066-16.658-9-25-18.703-11.941-46.09-17.105-67.5-11-.681-3.246-1.163-6.631-3-9.5 18.592-4.937 42.147-3.108 60.5 3.5 3.334 1.201 26.958 13.89 27.5 15.5.303.899-5.735 14.255-6 18-1.568 22.121 18.679 40.818 40.5 38.5 12.901 33.616-2.653 75.739-30 98-66.166 53.859-169.201 8.98-171.5-76.5 10.491-.309 20.488.554 31-1.5m64.5-69c-.945.183-5.19 1.563-5.5 2.5 1.538 1.363 4.034 9.257 4.5 9.5 1.156.602 20.114.452 26 2 7.266 1.911 17.036 8.336 23 13l6.5-10.5c-14.083-10.588-36.63-19.961-54.5-16.5M456 538c15.015 8.77 32.316 14.699 50 14 4.572-.181 8.93-.929 13.5-1 1.935-5.545-.502-8.381 0-14-4.124 1.444-9.195 1.245-13.5 1-11.889-.678-18.845-1.489-30-6-20.163-8.154-37.44-26.636-44-47.5-2.016-6.412.888-24.458-10.5-22.5-11.544 1.985-2.875 32.946.5 40.5 6.591 14.752 20.305 27.501 34 35.5"/><path fill="#82d7ef" d="M617 368c.84.209 1.145.697 2 1-1.439 2.153-2.799.174-.5 3 11.273 13.858 22.815 20.69 15.5 42.5-12.618 37.619-66.192 16.478-59-20l4 1.5c3.52 12.374 21.753 11.859 27 1.5 6.051-11.945-.922-25.597-15-22.5l3-7c6.273-1.472 16.796-1.541 23 0"/><path fill="#0b4554" d="M370 596v2c-3.745-2.967-13.121-11.579-15.5-13-3.238-1.933-1.521-.214-3.5 1-15.958-18.287-27.889-39.019-36-62-18.353-51.995-16.064-99.557 5-150 1.714 1.895 3.926-2.47 6-5-35.771 71.788-20.394 176.077 44 227"/><path fill="#175d75" d="M491 383c-.418-.657-2.663-9.394-3-11 21.41-6.105 48.797-.941 67.5 11 13.066 8.342 12.218 9.645 9 25-19.017-17.4-43.813-28.155-70-21-.452-.101-3.051-3.293-3.5-4"/><path fill="#d4f4fd" d="M579 396c-1.68-5.904-1.132-9.301 2-14.5 3.179-5.277 6.868-3.024 10-6.5 14.078-3.097 21.051 10.555 15 22.5-5.247 10.359-23.48 10.874-27-1.5"/><path fill="#0d4658" d="M501.5 389c17.87-3.461 40.417 5.912 54.5 16.5l-6.5 10.5c-5.964-4.664-15.734-11.089-23-13-5.886-1.548-24.844-1.398-26-2-.466-.243-2.962-8.137-4.5-9.5.31-.937 4.555-2.317 5.5-2.5"/><path fill="#54cee8" d="M345 393c.599 4.804 1.574 8.431 3 13-2.89-.479-2.491-1.668-4 1.5-4.882 10.248-7.626 38.525-8 50.5l-5 .5c1.671-21.476 1.273-47.417 14-65.5"/><path fill="#0bb5d3" d="M526 598c-4.14-19.977 8.913-11.419 18.5-16 1.15-.549-.158-3.133 1-4 1.725-1.292 5.491-.361 6.5-2.5 1.167-2.474-.61-17.752 3-22.5 44.411-19.313 68.634-67.466 56-114.5 15.505-4.842 25.81-14.572 30-30.5 2.629 9.843 7.568 19.105 9 29.5 10.705 77.709-46.117 151.662-124 160.5m112.5-131-12 48c8.015-13.998 12.819-31.765 12-48"/><path fill="#0d4658" d="M475 435c3.309-2.972 5.109-5.289 7.5-9 16.701 7.361 33.562 6.051 45.5 23.5 4.339 6.342 11.923 30.491 9 37-.509 1.133-15.084 3.001-21 12-4.175 6.35-1.936 17.3-9.5 19.5-1.273.37-15.946-2.305-18-3-18.791-6.362-36.549-28.033-34.5-48.5 1.777-17.743 11.843-19.198 21-31.5"/><path fill="#47d3e9" d="M404 458c-.786 79.067 80.22 125.78 151 95-3.61 4.748-1.833 20.026-3 22.5-1.009 2.139-4.775 1.208-6.5 2.5-1.158.867.15 3.451-1 4-9.587 4.581-22.64-3.977-18.5 16-91.413 10.373-166.361-66.572-157-157 5.725 5.107 27.528 15.717 35 17"/><path fill="#174b5b" d="m452 466-13-9c5.018-1.241 9.395-2.665 14-5 3.155 3.511-.813 9.595-1 14"/><path fill="#1d81a3" d="m439 457 13 9c-.773 18.186 7.253 37.038 23 47-2.967 2.422-5.474 6.219-5 10-22.236-12.767-40.379-38.668-33-65 .11-.021-.105-.48 2-1"/><path fill="#2990b3" d="m476 532-1.5 13c-1.901 1.517-15.386-8.475-18.5-7-13.695-7.999-27.409-20.748-34-35.5-3.375-7.554-12.044-38.515-.5-40.5 11.388-1.958 8.484 16.088 10.5 22.5 6.56 20.864 23.837 39.346 44 47.5"/><path fill="#44cde2" d="M638.5 467c.819 16.235-3.985 34.002-12 48z"/><path fill="#fefefe" d="M557 507c-2.174 26.822-32.517 29.391-42 5 .044-27.261 36.563-29.291 42-5"/><path fill="#287497" d="M891 554c-2.636 8.773-5.474 14.159-10 22l9-28.5c-33.157 19.295-32.46-11.336-34-35.5 15.475 20.887 34.336-4.462 42-19-.374 20.363-1.343 42.172-7 61"/><path fill="#277497" d="M160 508c.957 25.263-.894 63.056-35 38-4.744-17.101-6.59-32.243-7-50 7.259 4.5 10.767 16.571 18.5 21 10.588 6.063 20.497 3.565 23.5-9"/><path fill="#c3e4ec" d="M522 530c-.741-.629-3.395-4.833-4-6-2.364-4.557-3.008-6.752-3-12 9.483 24.391 39.826 21.822 42-5 4.973 22.218-17.998 37.434-35 23"/><path fill="#145971" d="m502 522-2 11c-10.494-.766-21.007-4.837-30-10-.474-3.781 2.033-7.578 5-10 6.418 4.06 19.368 7.874 27 9"/><path fill="#0e3a4c" d="M518 524c.605 1.167 3.259 5.371 4 6-5.524 4.088-15.136 3.501-22 3l2-11c5.289.781 10.431-.939 16 2"/><path fill="#124e75" d="M708 527c-26.782 75.778-105.744 133.253-186 137-16.256.759-30.858-.329-47-3 8.389-3.811 17.967 1.612 26.5 2 77.97 3.549 152.24-41.456 192.5-106.5z"/><path fill="#26738f" d="M506 538v14c-17.684.699-34.985-5.23-50-14 3.114-1.475 16.599 8.517 18.5 7l1.5-13c11.155 4.511 18.111 5.322 30 6"/><path fill="#16495d" d="M506 552v-14c4.305.245 9.376.444 13.5-1-.502 5.619 1.935 8.455 0 14-4.57.071-8.928.819-13.5 1"/><path fill="#29718f" d="M135 575c-4.862-8.846-5.818-11.385-9-21l1-1c2.165 6.477 8.364 14.201 8 22"/><path fill="#6ce6fb" d="M624 615c-20.932 14.597-38.123 23.194-63 30-7.575-3.151-15.908 3.239-24 2 2.103-.491 15.698-3.726 16-4.5l-5-11.5c25.122-10.146 49.272-20.622 70.5-38l.5 11.5z"/><path fill="#2ec3e8" d="M537 647c-2.108.492-5.669 2.597-8 1.5-2.536-15.305 7.393-12.813 19-17.5l5 11.5c-.302.774-13.897 4.009-16 4.5"/><path fill="#71a6b7" d="M807 658c-31.708 69.685-82.492 130.913-146.5 173-1.403-.225-1.766-2.251-3.5-4-.222-.224-.428-.243-1-1 56.661-39.775 105.442-94.089 137-156 8.311 5.011 7.755-9.143 14-12"/><path fill="#347188" d="M579 719c14.283 9.893 28.286 23.253 39 37 10.392 13.334 20.404 30.872 28 46 .134.266-.133.733 0 1-5.565-2.585 6.321 21.875 2 15.5-4.993-7.366-8.973-19.727-14-28-26.218-43.149-70.847-86.887-124-90.5h-20c-68.482 4.517-114.691 69.233-130 131-3.484-1.634-3.686 1.499-4 .5-1.299-4.125 4.427-17.663 6-22.5 31.434-96.645 124.432-154.113 217-90"/><path fill="#1d3f4e" d="M510 700c-2.772-.188-17.202-.185-20 0z"/><path fill="#2b5363" d="M490 700c2.798-.185 17.228-.188 20 0 53.153 3.613 97.782 47.351 124 90.5 5.027 8.273 9.007 20.634 14 28 4.321 6.375-7.565-18.085-2-15.5 3.711 7.44 4.736 16.033 10 23 .572.757.778.776 1 1-2.487 3.868 2.429 5.612-4 5-.359-1.015-1.109-3.343-2.5-3-2.885-.099-3.989 3.282-4.5 5-1.027-.167-1.141-1.029-2-1l-8.5-19-21.5 29.5 3 2.5c-90.124 38.052-159.771 36.306-247-9-3.174-1.649-6.175-4.206-10-6 15.309-61.767 61.518-126.483 130-131m121 75c8.239 1.55 22.25 37.778 24.5 38 3.519.347 2.275-7.7 1.5-9.5-6.802-15.791-35.294-51.793-48.5-63.5-12.046-10.679-32.749-26.336-48.5-26-88.337-31.02-150.945 42.869-169.5 121 35.248 13.125 71.566 26.195 110 24 35.057-2.002 141.821-36.654 130.5-84"/><path fill="#49798a" d="M540 714c19.466 6.836 66.097 40.492 71 61 11.321 47.346-95.443 81.998-130.5 84-38.434 2.195-74.752-10.875-110-24 18.555-78.131 81.163-152.02 169.5-121m46 41c-35.318-32.165-83.888-41.534-128.5-23-20.183 8.385-46.58 27.314-45.5 51.5l-2-.5c-7.464-35.68 51.38-62.853 80.5-65 23.395-1.725 49.155 4.757 70 15-42.179-28.506-96.874-22.726-135 10-17.663 15.161-35.152 43.843-9 61 18.792 12.329 137.727 12.525 161 5 35.805-11.578 26.189-49.191 0-66z"/><path fill="#24434f" d="M611 775c-4.903-20.508-51.534-54.164-71-61 15.751-.336 36.454 15.321 48.5 26 13.206 11.707 41.698 47.709 48.5 63.5.775 1.8 2.019 9.847-1.5 9.5-2.25-.222-16.261-36.45-24.5-38"/><path fill="#b4e7f5" d="M410 783c2.083 9.957 11.088 18.718 21 21 11.461 2.639 130.465 2.209 143.5 0 .243-.041 3.094-1.523 4.5-2 22.619-7.672 19.754-31.398 7-47l-8.5-12c26.189 16.809 35.805 54.422 0 66-23.273 7.525-142.208 7.329-161-5-26.152-17.157-8.663-45.839 9-61 38.126-32.726 92.821-38.506 135-10-20.845-10.243-46.605-16.725-70-15-29.12 2.147-87.964 29.32-80.5 65"/><path fill="#4e646f" d="M586 755c12.754 15.602 15.619 39.328-7 47 1.5-5.473 1.275-7.588-3.5-11-17.162-12.265-123.494-13.68-141-2-6.706 4.474-8.087 8.202-3.5 15-9.912-2.282-18.917-11.043-21-21l2 .5c-1.08-24.186 25.317-43.115 45.5-51.5 44.612-18.534 93.182-9.165 128.5 23m-81.5-23c-23.772 2.247-60.746 16.865-72 39 9.117-2.629 19.64-6.76 29-8 25.998-3.444 102.898 1.762 125 15 1.497.897 3.273 3.328 4 5l1.5-1.5c-4.014-40.781-52.81-52.779-87.5-49.5"/><path fill="#9da7aa" d="M504.5 732c34.69-3.279 83.486 8.719 87.5 49.5l-1.5 1.5c-.727-1.672-2.503-4.103-4-5-22.102-13.238-99.002-18.444-125-15-9.36 1.24-19.883 5.371-29 8 11.254-22.135 48.228-36.753 72-39"/><path fill="#302026" d="M579 802c-1.406.477-4.257 1.959-4.5 2-13.035 2.209-132.039 2.639-143.5 0-4.587-6.798-3.206-10.526 3.5-15 17.506-11.68 123.838-10.265 141 2 4.775 3.412 5 5.527 3.5 11m-99.5-18c-5.763.402-37.688 3.846-38.5 10.5-.425 3.484 3.08 2.732 4.5 4.5l123.5-.5c-21.378-16.449-62.953-16.351-89.5-14.5"/><path fill="#5d484a" d="M479.5 784c26.547-1.851 68.122-1.949 89.5 14.5l-123.5.5c-1.42-1.768-4.925-1.016-4.5-4.5.812-6.654 32.737-10.098 38.5-10.5"/><path fill="#336274" d="M644 833c-1.497.05-22.745 11.204-27 13l-3-2.5 21.5-29.5z"/><path fill="#5697a8" d="M653 832c3.164 8.937-6.344 2.107-7 2 .511-1.718 1.615-5.099 4.5-5 1.391-.343 2.141 1.985 2.5 3"/><path fill="#77acbc" d="M646 834c-.649 2.183 1.309 3.51 1 4.5-1.099 3.526-42.323 22.215-48.5 24.5-73.878 27.326-148.472 21.892-218.5-13-1.112-6.109-17.78-5.862-10-13 87.229 45.306 156.876 47.052 247 9 4.255-1.796 25.503-12.95 27-13 .859-.029.973.833 2 1"/>/&gt;</svg>