<svg xmlns="http://www.w3.org/2000/svg" width="1024" height="1024"><defs><linearGradient id="a" x1="798.268" x2="195.209" y1="233.444" y2="267.144" gradientUnits="userSpaceOnUse"><stop offset="0%" style="stop-color:#4b6f81"/><stop offset="10.927%" style="stop-color:#799eb0"/><stop offset="88.079%" style="stop-color:#c0eaf4"/></linearGradient></defs><defs><linearGradient id="b" x1="210.23" x2="382.757" y1="328.39" y2="363.183" gradientUnits="userSpaceOnUse"><stop offset="0%" style="stop-color:#4cd2ea"/><stop offset="100%" style="stop-color:#9eeffb"/></linearGradient></defs><defs><linearGradient id="c" x1="696.275" x2="382.777" y1="356.438" y2="374.197" gradientUnits="userSpaceOnUse"><stop offset="0%" style="stop-color:#1987a8"/><stop offset="100%" style="stop-color:#55e2fa"/></linearGradient></defs><defs><linearGradient id="d" x1="638.788" x2="823.564" y1="405.34" y2="426.638" gradientUnits="userSpaceOnUse"><stop offset="0%" style="stop-color:#177b9b"/><stop offset="100%" style="stop-color:#014a6f"/></linearGradient></defs><defs><linearGradient id="e" x1="622.591" x2="768.424" y1="554.674" y2="673.321" gradientUnits="userSpaceOnUse"><stop offset="0%" style="stop-color:#729cae"/><stop offset="100%" style="stop-color:#4a7487"/></linearGradient></defs><defs><linearGradient id="f" x1="207.425" x2="207.794" y1="552.32" y2="664.319" gradientUnits="userSpaceOnUse"><stop offset="0%" style="stop-color:#45c0d9"/><stop offset="100%" style="stop-color:#247392"/></linearGradient></defs><defs><linearGradient id="g" x1="552.924" x2="469.971" y1="553.64" y2="556.43" gradientUnits="userSpaceOnUse"><stop offset="0%" style="stop-color:#0b2232"/><stop offset="100%" style="stop-color:#0e3c61"/></linearGradient></defs><defs><linearGradient id="h" x1="805.868" x2="815.667" y1="553.02" y2="663.587" gradientUnits="userSpaceOnUse"><stop offset="0%" style="stop-color:#30a8c7"/><stop offset="100%" style="stop-color:#155a7a"/></linearGradient></defs><path fill="url(#a)" d="M676 151c53.26 24.7 101.092 63.634 125 118.5 13.79 31.647 29.558 97.828-29 80.5-102.324-38.371-231.728-48.696-342-40-54.979 4.336-201.921 29.632-241 68 1.634-113.074 60.339-193.797 165.5-232 90.088-32.727 233.963-35.597 321.5 5m-201.5-20c-53.083 1.404-111.039 12.884-158 38-56.53 30.234-99.985 96.964-97.5 162.5 19.034-3.749 33.926-11.209 43-29 27.408-53.736 43.052-71.246 101.5-94.5 80.245-31.925 176.447-38.207 262-45-4.511-5.089-16.008-9.317-23-12-40.635-15.59-84.533-21.15-128-20" style="fill:url(#a)"/>/&gt;<path fill="#ddf0f6" d="M474.5 131c43.467-1.15 87.365 4.41 128 20 6.992 2.683 18.489 6.911 23 12-85.553 6.793-181.755 13.075-262 45-58.448 23.254-74.092 40.764-101.5 94.5-9.074 17.791-23.966 25.251-43 29-2.485-65.536 40.97-132.266 97.5-162.5 46.961-25.116 104.917-36.596 158-38"/><path fill="#a4bcc8" d="M829 376c-9.586-7.726-44.154-21.183-57-26 58.558 17.328 42.79-48.853 29-80.5-23.908-54.866-71.74-93.8-125-118.5 97.386 33.101 151.156 124.485 153 225"/><path fill="#0f334f" d="M772 350c12.846 4.817 47.414 18.274 57 26 14.61 11.774 9.561 46.733 4 63 2.956-12.356 6.472-44.398 1-55.5-3.906-7.926-43.282-24.657-53-28.5-103.729-41.018-239.287-51.437-350-43l-1-2c110.272-8.696 239.676 1.629 342 40"/><path fill="url(#b)" d="M781 355c-13.711-.316-30.42-11.777-44-11-55.133-15.763-114.466-25.033-172-28 4.912-2.206-12.746-2.965-13.5-3-108.156-5.078-219.37 5.738-320 46l-14 7c12.088-1.999 25.426-10.56 38-15 11.247-3.972 23.005-6.853 34.5-10 22.736.62 97.721-18.814 114.5-6 7.62 5.819-14.754 19.798-20 23-15.741 9.608-117.509 50.596-120.5 58.5-2.128 5.624 5.938-2.596 8 .5-23.073 10.71-44.98 24.351-65 40-11.158-10.725-15.839-27.485-18-42.5-.87-6.046.744-21.461 0-25-.049-.231-3.17-2.712-4-2.5.222-.707.846-2.688 1-3 7.833-15.839 84.652-42.628 103.5-48 46.045-13.124 93.738-20.36 141.5-24 110.713-8.437 246.271 1.982 350 43m-534.5 11c-26.478 2.426-23.485 45.158 5 42 26.214-2.906 22.035-44.477-5-42" style="fill:url(#b)"/>/&gt;<path fill="#174965" d="m430 310 1 2c-47.762 3.64-95.455 10.876-141.5 24-18.848 5.372-95.667 32.161-103.5 48h-1c1.643-3.898.972-3.027 4-6 39.079-38.368 186.021-63.664 241-68"/><path fill="#c0f5fe" d="M565 316c-90.21-4.652-187.948 1.171-275 25-11.495 3.147-23.253 6.028-34.5 10-12.574 4.44-25.912 13.001-38 15l14-7c100.63-40.262 211.844-51.078 320-46 .754.035 18.412.794 13.5 3"/><path fill="url(#c)" d="M565 316c57.534 2.967 116.867 12.237 172 28-10.547.604-34.707 10.506-47.5 13-71.907 14.018-134.591 2.274-205 7-19.051 1.279-42.607 3.169-59.5 12-49.779 5.656-107.657 19.952-153 41-2.062-3.096-10.128 5.124-8-.5 2.991-7.904 104.759-48.892 120.5-58.5 5.246-3.202 27.62-17.181 20-23-16.779-12.814-91.764 6.62-114.5 6 87.052-23.829 184.79-29.652 275-25m-140 23c-1.77 5.882-1.276 6.192 1 11 6.424 13.574 27.57 5.848 26-8.5-1.297-11.854-23.006-15.769-27-2.5m146-2c-5.569 7.993-.938 19.747 9 21 30.615 3.861 8.609-46.273-9-21" style="fill:url(#c)"/>/&gt;<path fill="#071523" d="M426 350c31.639 21.091 28.761-37.312-1-11 3.994-13.269 25.703-9.354 27 2.5 1.57 14.348-19.576 22.074-26 8.5"/><path fill="#030e16" d="M580 358c22.976-3.447 10.707-35.886-6-22-.954.793-1.288.64-2 2l-1-1c17.609-25.273 39.615 24.861 9 21"/><path fill="#1b6d8c" d="M426 350c-2.276-4.808-2.77-5.118-1-11 29.761-26.312 32.639 32.091 1 11m7.5-14c-8.294 1.517-6.776 21.718 5 13 6.264-4.638-.367-13.847-5-13"/><path fill="#0f5b79" d="M580 358c-9.938-1.253-14.569-13.007-9-21l1 1c-2.802 5.351-2.839 11.206 2.5 15 2.481-5.697 6.548-13.239-.5-17 16.707-13.886 28.976 18.553 6 22"/><path fill="#65bdd0" d="M433.5 336c4.633-.847 11.264 8.362 5 13-11.776 8.718-13.294-11.483-5-13"/><path fill="#3898b3" d="M572 338c.712-1.36 1.046-1.207 2-2 7.048 3.761 2.981 11.303.5 17-5.339-3.794-5.302-9.649-2.5-15"/><path fill="url(#d)" d="M781 355c9.718 3.843 49.094 20.574 53 28.5 5.472 11.102 1.956 43.144-1 55.5-2.849 8.334-7.579 15.942-11 24l-2.5 1c-76.54-66.023-180.726-88.83-280-92-36.509-1.166-78.265-.117-114.5 4 16.893-8.831 40.449-10.721 59.5-12 70.409-4.726 133.093 7.018 205-7 12.793-2.494 36.953-12.396 47.5-13 13.58-.777 30.289 10.684 44 11m-14 10c-30.008 4.374-18.9 56.968 16 41 24.058-11.007 8.859-48.236-16-41" style="fill:url(#d)"/>/&gt;<path fill="#04172a" d="M783 406c19.938-14.323 7.066-44.362-16-41 24.859-7.236 40.058 29.993 16 41"/><path fill="#38bbd3" d="M783 406c-34.9 15.968-46.008-36.626-16-41 23.066-3.362 35.938 26.677 16 41m-16.5-39c-20.556 3.143-20.51 36.944 1 40 31.111 4.421 31.468-44.964-1-40"/><path fill="#051522" d="M246.5 366c27.035-2.477 31.214 39.094 5 42-28.485 3.158-31.478-39.574-5-42M231 380c-2.795 8.909.164 20.773 9.5 24 19.285 6.665 36.633-19.315 17.5-32-9.702-6.432-23.406-3.457-27 8"/><path fill="#001e36" d="M766.5 367c32.468-4.964 32.111 44.421 1 40-21.51-3.056-21.556-36.857-1-40m-5.5 4c-12.173 5.993-8.941 29.573-.5 31 6.482 1.096 26.944-19.293 19.5-28 1.804.764 1.938 1.291 3.5 2-2.947-7.928-15.222-8.583-22.5-5"/><path fill="#3894ae" d="M258 372c.349 11.533-6.83 38.411-21 21 5.26-2.503 5.581-12.123 0-14-3.461-1.164-2.483 1.612-6 1 3.594-11.457 17.298-14.432 27-8"/><path fill="#0e81a4" d="M780 374c-7.829-3.314-10.189-3.233-19-3 7.278-3.583 19.553-2.928 22.5 5-1.562-.709-1.696-1.236-3.5-2"/><path fill="#115c7c" d="M780 374c7.444 8.707-13.018 29.096-19.5 28-8.441-1.427-11.673-25.007.5-31 8.811-.233 11.171-.314 19 3"/><path fill="#186380" d="M231 380c3.517.612 2.539-2.164 6-1-3.977 4.316-3.254 10.001 0 14 14.17 17.411 21.349-9.467 21-21 19.133 12.685 1.785 38.665-17.5 32-9.336-3.227-12.295-15.091-9.5-24"/><path fill="#012c48" d="M822 463c-5.565 4.997-11.52 3.85-17 8-5.815 4.403-7.124 24.101-8 32.5-2.329 22.321-2.307 47.845-3 70.5-.427 13.969-.942 28.028-1 42-.087 20.831-1.389 39.754 4 60 .227.851-2.083 1.74 0 2-.138.032-.872 2.298-2 2 .341-6.694-3.8-16.112-4-23.5-.716-26.488.948-54.007 2-79 .211-5.007 2.659-24.415-5-21.5 1.328-29.328-.643-59.141-1-88.5-.582-1.12-1.774 1.1-2 .5-10.282-27.336-62.015-46.252-88-55 9.056-16.236-3.727-13.546-14-17-55.518-18.667-116.601-22.16-175-22-68.671.189-127.861 7.601-193 29-41.993 13.795-79.285 31.323-113 60.5 17.254 5.741 16.883 5.927 19 23 5.467 44.098 10.863 143.936 4 186-.254 1.555-1.285 6.076-4 5.5-5.118-2.69-22.205-.898-29-5.5-1.727-1.17-22.984-31.312-24-34-3.29-8.703-.354-16.491-3-23-1.413-3.476-8.054-6.673-10-14.5 4.183-1.78 7.797 11.229 8.5 11 1.445.223 2.333-4.538 2.5-5.5 2.864-16.495-3.641-56.559-3-76.5.208-6.46.019-18.069 3-23-1.091 20.782 1.654 41.121 2 62 .351 21.196-1.401 42.335 0 63.5 5.403-3.411-1.06-16.412 3.5-21.5-.194 8.006 1.366 14.686 4.5 22 .717 1.673 5.928 12.949 8 9.5 11.018-18.338 3.883-116.435-2-139.5-.324-1.269-1.864-4.132-3-5 2.531-3.093 2.525-11.79 6-15-.823 2.557-.852 6.736-2 9.5 1.623-1.29 2.94-3.739 4-5.5 3.094 8.374-4.83 9.344-5 13.5l8.5 55.5c3.158.489-2.355-33.738-2.5-36.5-.545-10.359 3.373-22.095-1-32.5.585-.972.739-2.591 2-3 4.053 28.893 5.382 57.796 6 87-2.315 32.842-5.747 66.392-1 99 2.818 5.271 21.793 3.835 27.5 7 5.473-2.491 2.912-94.035 2.5-106.5-.799-24.17-1.727-52.09-4-76-.517-5.436-1.492-18.995-4-22.5-.531-.741-.567-.641-1-1-4.134-3.434-13.512-3.838-17-6-.168-1.15.798-.865 1-1 3.224-2.153 5.478-5.029 8-7 20.02-15.649 41.927-29.29 65-40 45.343-21.048 103.221-35.344 153-41 36.235-4.117 77.991-5.166 114.5-4 99.274 3.17 203.46 25.977 280 92z"/><path fill="#2b7794" d="m508 374 1 10.5-9.5.5 1.5 2c-3.65.054-7.353-.119-11 0-53.039 1.73-111.572 10.99-162 27-1.973.627-4.024 1.338-6 2-6.166.365-5.272-7.985-7-13 65.139-21.399 124.329-28.811 193-29"/><path fill="#0f597a" d="m683 396-1 12c-10.963-3.233-21.359-4.681-32-7-26.622-5.802-51.919-11.369-79.5-13-2.082-.123-10.151-1.319-10.5 2-20.703-2.93-38.044-3.312-59-3l-1.5-2 9.5-.5-1-10.5c58.399-.16 119.482 3.333 175 22"/><path fill="#66bacc" d="M237 393c-3.254-3.999-3.977-9.684 0-14 5.581 1.877 5.26 11.497 0 14"/><path fill="#1a6a8f" d="M186 384c-.154.312-.778 2.293-1 3-6.716 21.348-.348 59.299 14 77-.202.135-1.168-.15-1 1-15.967-9.896-19.935-64.551-13-81z"/><path fill="#29aac7" d="M207 457c-2.522 1.971-4.776 4.847-8 7-14.348-17.701-20.716-55.652-14-77 .83-.212 3.951 2.269 4 2.5.744 3.539-.87 18.954 0 25 2.161 15.015 6.842 31.775 18 42.5"/><path fill="#97c4d3" d="M490 387v11c-44.421.665-89.805 9.744-132 23-9.398 2.953-18.83 6.393-28 10l-2-17c50.428-16.01 108.961-25.27 162-27"/><path fill="#87b5c5" d="M501 387c20.956-.312 38.297.07 59 3 15.265 2.16 31.161 5.888 46 10 .176 6.117-3.338 8.453 2 13-19.849-5.236-37.576-8.539-58-11-19.998-2.41-39.743-4.303-60-4v-11c3.647-.119 7.35.054 11 0"/><path fill="#40677a" d="m650 401 9 17c-15.786-6.577-36.474-13.42-53-18-14.839-4.112-30.735-7.84-46-10 .349-3.319 8.418-2.123 10.5-2 27.581 1.631 52.878 7.198 79.5 13"/><path fill="#013856" d="M697 413c-4.991-1.68-9.936-3.507-15-5l1-12c10.273 3.454 23.056.764 14 17"/><path fill="#e7f4f8" d="M490 398c20.257-.303 40.002 1.59 60 4l-2 12c-10.988-2.71-21.636-4.575-33-5-106.222-3.973-177.196 94.671-150 195-3.485-3.532-24.569-1.796-30.5-9-21.466 31.733-35.133 72.665-68.5 94-15.825-41.914-26.101-102.06-19-146.5 3.27-20.463 14.977-39.07 17-59.5 10.751-19.067 8.196-19.439 27-32 11.274 5.324 18.8-5.179 28.5-10 11.475-5.703 23.572-10.37 35-16 1.575-.776 3.853-1.803 3.5-4 42.195-13.256 87.579-22.335 132-23"/><path fill="#709dae" d="M659 418c1.27.529 2.33 1.276 4 2 .044 2.723 4.784 13.549 6 15-19.688-9.203-39.951-16.448-61-22-5.338-4.547-1.824-6.883-2-13 16.526 4.58 37.214 11.423 53 18"/><path fill="#253d4c" d="M682 408c5.064 1.493 10.009 3.32 15 5 25.985 8.748 77.718 27.664 88 55-3.085 2.609-1.013 3.749-1 5 .236 22.014.815 44.23-2.5 66-9.686-25.168-22.252-46.341-40.5-66-22.302-24.027-48.045-40.008-78-53-1.67-.724-2.73-1.471-4-2l-9-17c10.641 2.319 21.037 3.767 32 7"/><path fill="#bcd5df" d="M608 413c21.049 5.552 41.312 12.797 61 22 .772.921 1.124 1.225 2 2 6.111 14.976 13.117 29.508 18 45-13.842 13.249-12.084 40.201-29 50-3.116-18.321-12.634-39.629-23-55-20.469-30.351-53.354-54.21-89-63l2-12c20.424 2.461 38.151 5.764 58 11"/><path fill="#0f597a" d="M315 403c1.728 5.015.834 13.365 7 13-19.576 6.559-82.216 30.761-90 49-7.164 16.787.456 133.412 4 159.5C256.285 773.842 370.583 875.759 523.5 869c129.663-5.731 224.485-94.677 252.5-218.5.222-.98 2.788-.022 3-1 .051-.235-2.799-.027-2-4 5.844-29.064 9.657-59.826 11-89.5 7.659-2.915 5.211 16.493 5 21.5-1.052 24.993-2.716 52.512-2 79 .2 7.388 4.341 16.806 4 23.5-.323 6.327-4.515 12.018-6 17 .719-2.212 4.82-15.431 2-15.5-27.895 79.49-83.357 151.731-161.5 186.5-21.788 9.694-44.845 15.254-67.5 22.5 21.979-.734 47.117-9.696 67.5-18.5 72.294-31.225 135.042-99.779 159.5-175-76.119 255.314-448.264 274.982-551 27.5-2.952-7.112-13.359-44.586-17-46.5 2.715.576 3.746-3.945 4-5.5 6.863-42.064 1.467-141.902-4-186-2.117-17.073-1.746-17.259-19-23 33.715-29.177 71.007-46.705 113-60.5m459.5 265c-15.055 52.66-40.339 96.499-80 134-3.459 3.271-19.404 13.513-17 17 1.567 2.274 16.166-10.419 18-12 32.694-28.174 67.984-86.663 78.5-128.5.515-2.05 3.193-9.34.5-10.5"/><path fill="#bae1eb" d="m515 409 2 8c-102.272-5.102-174.477 95.021-139 191l-10 2c-.943-1.829-1.813-4.797-3-6-27.196-100.329 43.778-198.973 150-195"/><path fill="#92becb" d="M548 414c35.646 8.79 68.531 32.649 89 63-3.131-.406-1.709 2.114-1 3.5 3.359 6.561 6.849 11.034 10 18.5 2.2 7.091 14.943 50.664 10.5 54-5.932 4.454-2.853-6.755-6.5-7-1.065-27.907-9.579-48.981-26-71-25.403-34.065-64.036-55.857-107-58l-2-8c11.364.425 22.012 2.29 33 5"/><path fill="#87b5c5" d="M330 431c-14.804 5.824-26.021 11.33-39 20-18.804 12.561-16.249 12.933-27 32-20.124 35.69-28.085 68.904-25 110.5l-4-5.5c-3.181-40.728-4.401-82.2-3-123 7.784-18.239 70.424-42.441 90-49 1.976-.662 4.027-1.373 6-2z"/><path fill="#002f45" d="M517 417c42.964 2.143 81.597 23.935 107 58l-1 3c-9.582-13.131-22.33-23.421-36-32-17.541-11.008-37.983-19.373-59-21-28.221-2.185-61.823 5.771-85 22-105.588 55.532-68.033 232.579 70 234 .577 1.881-2.259 2.957-3.5 3-16.186.558-32.988-3.438-48.5-7.5 30.731 14.836 59.875 15.595 92 5.5 8.644-2.716 13.985-4.732 22-9v4c-13.565 7.405-28.585 14.37-44 17-63.797 10.885-130.519-25.182-153-86-35.477-95.979 36.728-196.102 139-191"/><path fill="#497386" d="m741 473-9 11c-7.124-8.536-22.475-22.126-31.5-29-7.639-5.819-24.2-13.307-29.5-18-.876-.775-1.228-1.079-2-2-1.216-1.451-5.956-12.277-6-15 29.955 12.992 55.698 28.973 78 53"/><path fill="#b5d8e3" d="M291 451c12.979-8.67 24.196-14.176 39-20 9.17-3.607 18.602-7.047 28-10 .353 2.197-1.925 3.224-3.5 4-11.428 5.63-23.525 10.297-35 16-9.7 4.821-17.226 15.324-28.5 10"/><path fill="#78d7ec" d="M528 425c.451 2.957-2.7 2.002-4.5 2-20.314-.021-29.04 3.299-48.5 9-11.245 3.295-21.64 5.551-32 11 23.177-16.229 56.779-24.185 85-22"/><path fill="#82bccd" d="M587 446c-5.179 4.089-8.685-2.608-12.5-4-25.753-9.396-66.493-14.919-90.5-1-2.792.654-5.311 2.08-8 3l-1-8c19.46-5.701 28.186-9.021 48.5-9 1.8.002 4.951.957 4.5-2 21.017 1.627 41.459 9.992 59 21"/><path fill="#58d9f6" d="M587 446c13.67 8.579 26.418 18.869 36 32 8.943 12.254 18.871 33.244 22 48-4.127 5.05-5.873-11.913-7-14.5-1.654-3.794-18.495-34.635-20.5-34.5l-7.5 8c-28.885-37.277-79.781-54.829-126-44 24.007-13.919 64.747-8.396 90.5 1 3.815 1.392 7.321 8.089 12.5 4"/><path fill="#719dac" d="m475 436 1 8c-68.518 23.452-101.561 108.074-63 171 23.716 38.701 62.56 55.366 107 55 4.297-.035 20.476-3.359 21.5-3 .718.252 7.906 10.364-2.5 9-1.041-.136-2.978-.428-3 1-.323.009-.692-.059-1 0-1.681.321-2.844.972-3 1-3.138.568-1.622 1.785-2.5 2-3.101.76-8.207-3.991-7.5 2-.452.028-6.084-.97-9-1-138.033-1.421-175.588-178.468-70-234 10.36-5.449 20.755-7.705 32-11"/><path fill="url(#e)" d="M732 484c20.313 24.337 39.978 70.626 34 102-.391 2.051-.426 5.522-1 7.5-2.93 10.096-13.322 10.485 2 20 1.492-1.301 1.235-20.19 1-23.5 3.001-.437 1.947 2.674 2 4.5.257 8.897-.817 23.125-2 32-3.104 23.291-11.923 45.498-16 68.5-18 44.042-48.659 81.969-88.5 108-2.811.636-4.973-3.048-6.5-4-3.123-11.449-11.724-20.013-21-27-.012-.347.089-.801 0-1 62.201-80.015 83.67-191.698 53-289-4.883-15.492-11.889-30.024-18-45 5.3 4.693 21.861 12.181 29.5 18 9.025 6.874 24.376 20.464 31.5 29" style="fill:url(#e)"/>/&gt;<path fill="#03abde" d="M610 485c5.289 6.826 11.466 16.655 15 24.5 1.858 4.125 6.092 23.141 7 24 2.076 1.964 6.919-1.468 9.5-.5 3.825 1.435 4.633 27.894 4.5 33-1.028 39.487-24.623 74.428-56 97-9.388-5.047 11.293-11.278 10-18 .574-.661 5.813-6.087 3.5-7-5.526 3.879-10.063 9.023-15.5 13-.099-1.966-7.355-12.133-8-12.5-1.67-.951-21.629 12.471-26.5 14.5-10.571 4.403-22.114 6.994-33.5 8-7.995.706-15.039.82-23 0 .822-3.596-2.916-3.24-5.5-4-34.176-10.047-58.888-21.056-73.5-56-25.091-60.005 3.567-123.88 61.5-150-61.418 23.045-94.524 86.361-68.5 149 2.284 5.497 2.793 6.752 6 12l-4 3c-38.561-62.926-5.518-147.548 63-171 2.689-.92 5.208-2.346 8-3 46.219-10.829 97.115 6.723 126 44m-73-13c-.628-2.654-2.618-1.609-4-2-16.002-4.529-32.859-4.129-49 0-27.234 6.966-53.234 31.333-62 58-9.83 29.906-4.912 59.132 14 84 61.66 81.08 193.098 12.868 162-83 35.687-43.561-29.478-95.253-61-57"/><path fill="#0f334f" d="M822 463c3.421-8.058 8.151-15.666 11-24-1.873 7.832-4.632 18.281-11 24"/><path fill="#49d7f7" d="m418 601-3.5 3-3.5-4c-26.024-62.639 7.082-125.955 68.5-149-57.933 26.12-86.591 89.995-61.5 150"/><path fill="#fefefe" d="M598 529c-4.837 5.904-8.968 7.305-15 11-2.253 1.38-6.06 1.586-9 3-30.458-.045-47.26-26.358-45-55 3.109-5.499 3.5-10.54 8-16 31.522-38.253 96.687 13.439 61 57"/><path fill="#051e32" d="M232 465c-1.401 40.8-.181 82.272 3 123 6.442 82.471 23.963 151.182 87.5 208 140.798 125.91 366.181 80.691 436.5-97 16.282-41.144 25.015-90.086 26-134.5.162-7.318.465-15.862-3-22.5.248-2.596 2.621-12.65 4-13.5l-2-55.5c-.013-1.251-2.085-2.391 1-5 .226.6 1.418-1.62 2-.5.357 29.359 2.328 59.172 1 88.5-1.343 29.674-5.156 60.436-11 89.5-.799 3.973 2.051 3.765 2 4-.212.978-2.778.02-3 1C747.985 774.323 653.163 863.269 523.5 869c-152.917 6.759-267.215-95.158-287.5-244.5-3.544-26.088-11.164-142.713-4-159.5"/><path fill="#054060" d="M533 470c-.808 17.977-9.527 9.254-18.5 9-9.793-.277-19.408-.231-29 2l-1.5-11c16.141-4.129 32.998-4.529 49 0"/><path fill="#02334d" d="M533 470c1.382.391 3.372-.654 4 2-4.5 5.46-4.891 10.501-8 16-1.906 3.371-5.918 5.625-8 11-6.074 9.429-15.595 4.834-26.5 8-3.564 1.035-17.72 9.396-20.5 12l-23.5-17c-9.505 10.839-15.161 20.794-18.5 35-14.862 63.23 41.503 112.791 102 90 34.542-13.013 58.438-49.629 49-87 6.032-3.695 10.163-5.096 15-11 31.098 95.868-100.34 164.08-162 83 .168-2.899 7.004-6.36 7-7.5-.004-1.012-9.83-13.887-11-17-5.246-13.963-4.997-33.233-5-46 5.387-9.326 3.384-9.057-5-13.5 8.766-26.667 34.766-51.034 62-58l1.5 11c9.592-2.231 19.207-2.277 29-2 8.973.254 17.692 8.977 18.5-9"/><path fill="#a8eef8" d="M216 472c-3.939 4.253-2.139 32.033-3.5 33-.613.435-14.378 1.423-15 1-1.722-1.171-2.887-23.132-8.5-24-.37-2.054-1.44-3.775-1-6 6.18-3.534 20.444-.167 27-5 .433.359.469.259 1 1"/><path fill="#59ebfd" d="M805 471c6.599 4.827 18.402 1.488 25 5l-6 62c-.596-7.473-2.24-16.135-2.5-24-3.69-1.758-5.623 28.146-10.5 29.5l-2-1-6-31-5 81.5c-.242-5.129-.502-15.48-4-19 .693-22.655.671-48.179 3-70.5.876-8.399 2.185-28.097 8-32.5"/><path fill="url(#f)" d="m194 670 1-99c-.618-29.204-1.947-58.107-6-87-.089-.637.113-1.373 0-2 5.613.868 6.778 22.829 8.5 24 .622.423 14.387-.565 15-1 1.361-.967-.439-28.747 3.5-33 2.508 3.505 3.483 17.064 4 22.5 2.273 23.91 3.201 51.83 4 76 .412 12.465 2.973 104.009-2.5 106.5-5.707-3.165-24.682-1.729-27.5-7" style="fill:url(#f)"/>/&gt;<path fill="#3e6172" d="M782 542c-1.79 18.744-3.159 37.371-6 56-5.237 34.338-10.773 64.636-24 97 4.077-23.002 12.896-45.209 16-68.5 1.183-8.875 2.257-23.103 2-32-.053-1.826 1.001-4.937-2-4.5-.157-2.209.902-4.462-2-4 5.978-31.374-13.687-77.663-34-102l9-11c18.248 19.659 30.814 40.832 40.5 66 3.315-21.77 2.736-43.986 2.5-66l2 55.5c-1.379.85-3.752 10.904-4 13.5"/><path fill="#032234" d="M650 546c2.115 55.418-26.818 104.698-75 131v-4c5.405-2.878 10.064-6.449 15-10 31.377-22.572 54.972-57.513 56-97 4.077-10.98 1.482-28.295-1-40-3.129-14.756-13.057-35.746-22-48l1-3c16.421 22.019 24.935 43.093 26 71"/><path fill="#096283" d="M189 482c.113.627-.089 1.363 0 2-1.261.409-1.415 2.028-2 3-1.06 1.761-2.377 4.21-4 5.5 1.148-2.764 1.177-6.943 2-9.5.804-2.499-.066-5.247 3-7-.44 2.225.63 3.946 1 6"/><path fill="#012c45" d="M841 499c-4.642 2.337-6.045 13.039-7 18.5-6.815 38.981-8.576 91.805 1 128.5.892 3.419 1.839 6.395 2 10-1.362 1.32-2.417 2.446-3.5 4-3.806.263-6.216-23.348-6.5-27-2.122-27.337-1.14-54.359-3-82-.288-4.28.341-8.729 0-13l6-62c5.494 2.924 7.034 18.556 11 23"/><path fill="#33c7f0" d="M645 526c2.482 11.705 5.077 29.02 1 40 .133-5.106-.675-31.565-4.5-33-2.581-.968-7.424 2.464-9.5.5-.908-.859-5.142-19.875-7-24-3.534-7.845-9.711-17.674-15-24.5l7.5-8c2.005-.135 18.846 30.706 20.5 34.5 1.127 2.587 2.873 19.55 7 14.5"/><path fill="#144255" d="M637 477c10.366 15.371 19.884 36.679 23 55 12.899 75.84-32.045 149.18-106 170v-4c85.454-25.321 126.59-117.054 92-199-3.151-7.466-6.641-11.939-10-18.5-.709-1.386-2.131-3.906 1-3.5"/><path fill="#96bac7" d="M636 771c-.118-.266-3.916-2.062-5-3-9.264-12.939-30.232-22.252-45.5-28-25.709-9.679-55.115-15.802-82.5-18-3.121-3.16-8.235-6.779-11-10-.984-1.146-1.642-3.635-3-5 22.606 2.948 43.288 1.112 65-5 73.955-20.82 118.899-94.16 106-170 16.916-9.799 15.158-36.751 29-50 30.67 97.302 9.201 208.985-53 289"/><path fill="#7ba2b2" d="M266 689c9.497 25.155 23.051 48.119 41 68 11.58 12.826 32.448 36.544 51.5 31 1.599-.465 20.254-18.64 25-22 30.714-21.742 67.925-33.114 105.5-35l-60.5 14-33 16c-3.772 9.702 21.558-5.488 26-7 31.969-10.882 68.733-16.239 102.5-13 38.101 3.655 74.821 20.374 107 40 9.056 5.523 17.097 12.448 26 18 1.527.952 3.689 4.636 6.5 4 39.841-26.031 70.5-63.958 88.5-108 13.227-32.364 18.763-62.662 24-97 7.44 9.069-1.319 26.431 0 38.5L759 699c-70.319 177.691-295.702 222.91-436.5 97-63.537-56.818-81.058-125.529-87.5-208l4 5.5c-3.085-41.596 4.876-74.81 25-110.5-2.023 20.43-13.73 39.037-17 59.5-7.101 44.44 3.175 104.586 19 146.5m158 98c-6.289 9.619-9.14 19.507-8 31 3.565 35.932 66.277 5.805 85.5 4 9.907-.93 26.056-.369 36 1 17.338 2.386 73.642 28.799 75.5-1 2.242-35.953-28.627-56.815-60-63-.035-2.156-7.087-3.738-8.5-4-38.364-7.118-100.007-7.226-120.5 32"/><path fill="#096283" d="M187 487c4.373 10.405.455 22.141 1 32.5.145 2.762 5.658 36.989 2.5 36.5l-8.5-55.5c.17-4.156 8.094-5.126 5-13.5"/><path fill="#94969a" d="M574 543c-1.18.567-3.986 4.315-8 6-31.774 13.336-56.757-19.647-45-50 2.082-5.375 6.094-7.629 8-11-2.26 28.642 14.542 54.955 45 55"/><path fill="#afeef7" d="M179 498c1.136.868 2.676 3.731 3 5-8.753 1.496-2.342 20.647-2 28.5.398 9.126-.199 18.37 0 27.5-8.734-2.978-5.104 1.953-6 9.5-3.959-15.321-2.96-33.235-5.5-49.5-1.628 15.226 1.94 30.296 1.5 45.5-.053 1.826 1.001 4.938-2 4.5-.346-20.879-3.091-41.218-2-62 2.22-3.673 11.795-7.528 13-9"/><path fill="url(#g)" d="M521 499c-11.757 30.353 13.226 63.336 45 50 1.247 16.337-5.027 33.585-17 45-9.291 8.858-25.146 16.115-38 16-14.775-.132-31.962-8.676-41-20-15.096-18.913-11.039-28.723-9-50 2.468-6.206 8.278-16.578 13-21 2.78-2.604 16.936-10.965 20.5-12 10.905-3.166 20.426 1.429 26.5-8" style="fill:url(#g)"/>/&gt;<path fill="#6c99a7" d="M554 698c-7.022 2.081-13.712 3.954-21 5l-2-9c15.415-2.63 30.435-9.595 44-17 48.182-26.302 77.115-75.582 75-131 3.647.245.568 11.454 6.5 7 4.443-3.336-8.3-46.909-10.5-54 34.59 81.946-6.546 173.679-92 199"/><path fill="#59aec4" d="M855 530c-1.975 30.489-5.792 55.011-2 89 .431 3.86 3.137 12.886-1 13 .068-1.458.425-2.646.5-4-2.724-.254-.725 3.367-2 4-1.623.806-2.595-29.695-3-32 .315 17.447-2.777 31.574-12.5 46-9.576-36.695-7.815-89.519-1-128.5.955-5.461 2.358-16.163 7-18.5 1.537 1.722 12.77 6.148 14 10.5.706 2.498.233 16.907 0 20.5m-16.5 26c-5.525 3.924 7.673 22.747 6.5.5-.494-.694-6.17-.735-6.5-.5"/><path fill="#105881" d="M474 519c-4.722 4.422-10.532 14.794-13 21 .126-1.314-.675-3.932.5-6-3.43-1.295-13.927 7.056-15 7-.785-.041-9.674-7.084-14.5-4 3.339-14.206 8.995-24.161 18.5-35z"/><path fill="#3eaac5" d="M182 503c5.883 23.065 13.018 121.162 2 139.5-2.072 3.449-7.283-7.827-8-9.5 7.317-24.076 4.537-49.377 4-74-.199-9.13.398-18.374 0-27.5-.342-7.853-6.753-27.004 2-28.5"/><path fill="url(#h)" d="M824 538c.341 4.271-.288 8.72 0 13l1 119.5c-1.053 3.466-23.27 5.197-28 5.5-5.389-20.246-4.087-39.169-4-60 7.697 2.916 5.24-17.925 5-23l5-81.5 6 31 2 1c4.877-1.354 6.81-31.258 10.5-29.5.26 7.865 1.904 16.527 2.5 24" style="fill:url(#h)"/>/&gt;<path fill="#6ac7db" d="M180 559c.537 24.623 3.317 49.924-4 74-3.134-7.314-4.694-13.994-4.5-22-4.56 5.088 1.903 18.089-3.5 21.5-1.401-21.165.351-42.304 0-63.5 3.001.438 1.947-2.674 2-4.5.44-15.204-3.128-30.274-1.5-45.5 2.54 16.265 1.541 34.179 5.5 49.5.896-7.547-2.734-12.478 6-9.5"/><path fill="#054060" d="M436 612c-18.912-24.868-23.83-54.094-14-84 8.384 4.443 10.387 4.174 5 13.5.003 12.767-.246 32.037 5 46 1.17 3.113 10.996 15.988 11 17 .004 1.14-6.832 4.601-7 7.5"/><path fill="#0d84ae" d="M155 601c-3.588-14.433 3.519-23.685 4-35.5.462-11.361-2.899-26.638 4-35.5-.641 19.941 5.864 60.005 3 76.5-.167.962-1.055 5.723-2.5 5.5-.703.229-4.317-12.78-8.5-11"/><path fill="#04223a" d="M855 530c1.679.721 4.555 4.536 5 6l-5-2.5-1.5 65.5c1.521 1.281 7.577-7.912 7.5-8.5-.353-2.691-2.905-.895-3-2-.509-5.933 1.736-11.032 2-15.5 5.798 12.179 6.792 24.324 0 36.5-2.108 3.778-6.842 5.291-7 9.5-3.792-33.989.025-58.511 2-89"/><path fill="#5bc6dd" d="M860 536c2.784 9.157.583 27.115 0 37-.264 4.468-2.509 9.567-2 15.5.095 1.105 2.647-.691 3 2 .077.588-5.979 9.781-7.5 8.5l1.5-65.5z"/><path fill="#297693" d="M461 540c-2.039 21.277-6.096 31.087 9 50-6.531 2.059-.317 12.45 3.5 13 3.083.444 5.442-2.471 6-2 1.406 1.186 1.487 13.587 12 17 6.065 1.969 25.155 1.378 19.5-8 12.854.115 28.709-7.142 38-16-.187 12.866-8.881 22.588-15 33-60.497 22.791-116.862-26.77-102-90 4.826-3.084 13.715 3.959 14.5 4 1.073.056 11.57-8.295 15-7-1.175 2.068-.374 4.686-.5 6"/><path fill="#185f77" d="M534 627c6.119-10.412 14.813-20.134 15-33 11.973-11.415 18.247-28.663 17-45 4.014-1.685 6.82-5.433 8-6 2.94-1.414 6.747-1.62 9-3 9.438 37.371-14.458 73.987-49 87"/><path fill="#6e92a2" d="m759 699 17-62.5c-1.319-12.069 7.44-29.431 0-38.5 2.841-18.629 4.21-37.256 6-56 3.465 6.638 3.162 15.182 3 22.5-.985 44.414-9.718 93.356-26 134.5"/><path fill="#001528" d="M827 633c-4.772 10.591.191 25.156-.5 37 11.484-8.78 2.029-9.906.5-18.5-.942-5.296.689-12.904 0-18.5.284 3.652 2.694 27.263 6.5 27 1.083-1.554 2.138-2.68 3.5-4 2.523-2.446 8.164-9.975 10-13-2.657 5.633-17.367 28.911-21.5 31-4.815 2.434-22.123 2.539-28.5 4-2.083-.26.227-1.149 0-2 4.73-.303 26.947-2.034 28-5.5L824 551c1.86 27.641.878 54.663 3 82"/><path fill="#6ab2c7" d="M838.5 556c.33-.235 6.006-.194 6.5.5 1.173 22.247-12.025 3.424-6.5-.5"/><path fill="#001528" d="M194 670c-4.747-32.608-1.315-66.158 1-99z"/><path fill="#33abcf" d="M798 593c.24 5.075 2.697 25.916-5 23 .058-13.972.573-28.031 1-42 3.498 3.52 3.758 13.871 4 19"/><path fill="#2d4b59" d="M768 590c.235 3.31.492 22.199-1 23.5-15.322-9.515-4.93-9.904-2-20 .574-1.978.609-5.449 1-7.5 2.902-.462 1.843 1.791 2 4"/><path fill="#6db9c6" d="M511 610c5.655 9.378-13.435 9.969-19.5 8-10.513-3.413-10.594-15.814-12-17-.558-.471-2.917 2.444-6 2-3.817-.55-10.031-10.941-3.5-13 9.038 11.324 26.225 19.868 41 20"/><path fill="#bdd6e0" d="M365 604c1.187 1.203 2.057 4.171 3 6 27.556 53.459 53.281 85.771 118 96 1.966.311 2.843.98 3 1 1.358 1.365 2.016 3.854 3 5-35.394 2.201-66.502 11.453-97.5 28-12.893 6.882-41.759 29.091-55 30-11.499.789-22.541-8.922-32.5-13-17.949-19.881-31.503-42.845-41-68 33.367-21.335 47.034-62.267 68.5-94 5.931 7.204 27.015 5.468 30.5 9"/><path fill="#22c9f3" d="M418 601c14.612 34.944 39.324 45.953 73.5 56 2.584.76 6.322.404 5.5 4-33.028-3.401-62.681-20.659-80-49-3.207-5.248-3.716-6.503-6-12l3.5 4z"/><path fill="#063d5a" d="M852 632c-.362 7.775-1.878 5.857-5 11-1.836 3.025-7.477 10.554-10 13-.161-3.605-1.108-6.581-2-10 9.723-14.426 12.815-28.553 12.5-46 .405 2.305 1.377 32.806 3 32 1.275-.633-.724-4.254 2-4-.075 1.354-.432 2.542-.5 4"/><path fill="#92becb" d="M378 608c22.481 60.818 89.203 96.885 153 86l2 9c-17.447 2.505-28.413-.525-43.5 0-1.241.043-4.077 1.119-3.5 3-64.719-10.229-90.444-42.541-118-96z"/><path fill="#098fba" d="M417 612c17.319 28.341 46.972 45.599 80 49 7.961.82 15.005.706 23 0v9c-44.44.366-83.284-16.299-107-55z"/><path fill="#012b45" d="M827 633c.689 5.596-.942 13.204 0 18.5 1.529 8.594 10.984 9.72-.5 18.5.691-11.844-4.272-26.409.5-37"/><path fill="#3ea9c2" d="M588 651c-11.286 8.257-22.922 15.348-36 20.5 7.089.75 15.673-4.302 21.5-7.5l-1 4c9.192-6.651 20.073-14.454 27.5-23 1.293 6.722-19.388 12.953-10 18-4.936 3.551-9.595 7.122-15 10-8.015 4.268-13.356 6.284-22 9-3.815-6.231 8.884-7.884 13.5-11-5.669-.52-13.507 5.221-20 7-7.717 2.114-16.493 3.505-24.5 4-.707-5.991 4.399-1.24 7.5-2 .878-.215-.638-1.432 2.5-2 1.877 1.176 3.238 1.88 3-1 .308-.059.677.009 1 0 1.028-.03 3.115 2.9 3-1 10.406 1.364 3.218-8.748 2.5-9-1.024-.359-17.203 2.965-21.5 3v-9c11.386-1.006 22.929-3.597 33.5-8 4.871-2.029 24.83-15.451 26.5-14.5.645.367 7.901 10.534 8 12.5m-38.5 21-3.5 2.5 4.5-.5z"/><path fill="#197598" d="M600 645c-7.427 8.546-18.308 16.349-27.5 23l1-4c-5.827 3.198-14.411 8.25-21.5 7.5 13.078-5.152 24.714-12.243 36-20.5 5.437-3.977 9.974-9.121 15.5-13 2.313.913-2.926 6.339-3.5 7"/><path fill="#187ba4" d="M774.5 668c2.693 1.16.015 8.45-.5 10.5-10.516 41.837-45.806 100.326-78.5 128.5-1.834 1.581-16.433 14.274-18 12-2.404-3.487 13.541-13.729 17-17 39.661-37.501 64.945-81.34 80-134"/><path fill="#248aa5" d="M553 682c-32.125 10.095-61.269 9.336-92-5.5 15.512 4.062 32.314 8.058 48.5 7.5 1.241-.043 4.077-1.119 3.5-3 2.916.03 8.548 1.028 9 1 8.007-.495 16.783-1.886 24.5-4 6.493-1.779 14.331-7.52 20-7-4.616 3.116-17.315 4.769-13.5 11"/><path fill="#43748c" d="m549.5 672 1 2-4.5.5z"/><path fill="#4b7a94" d="M539 676c.115 3.9-1.972.97-3 1 .022-1.428 1.959-1.136 3-1"/><path fill="#497993" d="M535 677c.238 2.88-1.123 2.176-3 1 .156-.028 1.319-.679 3-1"/><path fill="#197ca4" d="M789 697c-24.458 75.221-87.206 143.775-159.5 175-20.383 8.804-45.521 17.766-67.5 18.5 22.655-7.246 45.712-12.806 67.5-22.5 78.143-34.769 133.605-107.01 161.5-186.5 2.82.069-1.281 13.288-2 15.5"/><path fill="#266c87" d="M554 702c-21.712 6.112-42.394 7.948-65 5-.157-.02-1.034-.689-3-1-.577-1.881 2.259-2.957 3.5-3 15.087-.525 26.053 2.505 43.5 0 7.288-1.046 13.978-2.919 21-5z"/><path fill="#cfe4eb" d="M503 722c2.314 2.343 5.948 5.877 7 9-6.829-.19-14.193-.342-21 0-37.575 1.886-74.786 13.258-105.5 35-4.746 3.36-23.401 21.535-25 22-19.052 5.544-39.92-18.174-51.5-31 9.959 4.078 21.001 13.789 32.5 13 13.241-.909 42.107-23.118 55-30 30.998-16.547 62.106-25.799 97.5-28 2.765 3.221 7.879 6.84 11 10"/><path fill="#b8d8e2" d="M631 768c-25.235-21.829-82.171-35.292-115-37-1.98-.103-4.015.055-6 0-1.052-3.123-4.686-6.657-7-9 27.385 2.198 56.791 8.321 82.5 18 15.268 5.748 36.236 15.061 45.5 28"/><path fill="#518aa1" d="M510 731c1.985.055 4.02-.103 6 0-4.098 3.807 8.743 6.238 8 10-33.767-3.239-70.531 2.118-102.5 13-4.442 1.512-29.772 16.702-26 7l33-16 60.5-14c6.807-.342 14.171-.19 21 0"/><path fill="#416f82" d="M631 768c1.084.938 4.882 2.734 5 3 .089.199-.012.653 0 1 .067 1.935-5.445 6.089-5 9-32.179-19.626-68.899-36.345-107-40 .743-3.762-12.098-6.193-8-10 32.829 1.708 89.765 15.171 115 37"/><path fill="#ecf3f4" d="M553 759c-38.966-7.682-104.177-9.968-129 28 20.493-39.226 82.136-39.118 120.5-32 1.413.262 8.465 1.844 8.5 4"/><path fill="#0f1c23" d="M553 759c31.373 6.185 62.242 27.047 60 63-10.477 23.521-45.385 3.712-63.5 0-16.932-3.47-34.761-5.331-52-3-25.092 3.393-64.474 29.435-81.5-1-1.14-11.493 1.711-21.381 8-31 24.823-37.968 90.034-35.682 129-28m-37.5 7c-21.004 1.092-43.561 14.646-55.5 31.5 1.047 5.638 43.996 5.801 50.5 5.5 11.75-.544 23.927-5.8 36-4 5.178.772 21.077 12.292 24.5.5 6.119-21.082-40.239-34.294-55.5-33.5"/><path fill="#2b4758" d="M515.5 766c15.261-.794 61.619 12.418 55.5 33.5-3.423 11.792-19.322.272-24.5-.5-12.073-1.8-24.25 3.456-36 4-6.504.301-49.453.138-50.5-5.5 11.939-16.854 34.496-30.408 55.5-31.5"/><path fill="#2f5566" d="M657 799c-8.903-5.552-16.944-12.477-26-18-.445-2.911 5.067-7.065 5-9 9.276 6.987 17.877 15.551 21 27"/><path fill="#f5f8f9" d="M613 822c-1.858 29.799-58.162 3.386-75.5 1-9.944-1.369-26.093-1.93-36-1-19.223 1.805-81.935 31.932-85.5-4 17.026 30.435 56.408 4.393 81.5 1 17.239-2.331 35.068-.47 52 3 18.115 3.712 53.023 23.521 63.5 0"/></svg>