<svg xmlns="http://www.w3.org/2000/svg" width="1024" height="1024"><defs><linearGradient id="a" x1="501.194" x2="517.249" y1="178.392" y2="236.204" gradientUnits="userSpaceOnUse"><stop offset="0%" style="stop-color:#96bac5"/><stop offset="100%" style="stop-color:#809ea8"/></linearGradient></defs><defs><linearGradient id="b" x1="178.038" x2="237.576" y1="260.248" y2="356.291" gradientUnits="userSpaceOnUse"><stop offset="0%" style="stop-color:#8fb0bd"/><stop offset="100%" style="stop-color:#7a94a1"/></linearGradient></defs><defs><linearGradient id="c" x1="838.848" x2="789.646" y1="259.739" y2="359.239" gradientUnits="userSpaceOnUse"><stop offset="0%" style="stop-color:#94b8c4"/><stop offset="100%" style="stop-color:#7e9eab"/></linearGradient></defs><defs><linearGradient id="d" x1="553.793" x2="324.705" y1="485.333" y2="614.514" gradientUnits="userSpaceOnUse"><stop offset="0%" style="stop-color:#2ba4cc"/><stop offset="93.916%" style="stop-color:#47c3de"/></linearGradient></defs><defs><linearGradient id="e" x1="530.204" x2="691.933" y1="611.842" y2="742.638" gradientUnits="userSpaceOnUse"><stop offset="0%" style="stop-color:#0a4b70"/><stop offset="100%" style="stop-color:#002748"/></linearGradient></defs><defs><linearGradient id="f" x1="868.581" x2="849.145" y1="475.073" y2="605.634" gradientUnits="userSpaceOnUse"><stop offset="0%" style="stop-color:#99bdcb"/><stop offset="100%" style="stop-color:#819ba7"/></linearGradient></defs><defs><linearGradient id="g" x1="340.956" x2="288.052" y1="612.579" y2="661.418" gradientUnits="userSpaceOnUse"><stop offset="0%" style="stop-color:#2690bb"/><stop offset="100%" style="stop-color:#1a799f"/></linearGradient></defs><defs><linearGradient id="h" x1="626.347" x2="692.538" y1="606.011" y2="625.498" gradientUnits="userSpaceOnUse"><stop offset="0%" style="stop-color:#009ebc"/><stop offset="100%" style="stop-color:#0282ab"/></linearGradient></defs><defs><linearGradient id="i" x1="596.688" x2="347.803" y1="763.516" y2="787.1" gradientUnits="userSpaceOnUse"><stop offset="0%" style="stop-color:#001e39"/><stop offset="32.8%" style="stop-color:#003c62"/><stop offset="100%" style="stop-color:#00162e"/></linearGradient></defs><path fill="#0a5c6d" d="m542 203-1 1c-3.755-13.621-7.114-27.517-10.5-41-1.47.139-1.725.954-3.5 1-11.017.288-21.214 3.886-33-1l-2-.5c-1.635 27.137-6.923 53.571-15 79.5-1.044 3.351-4.003 9.351-2 12-.152.012-1.441 2.443-3 .5-.51-.636 1.017-4.189-1-4.5 13.524-20.812 15.234-63.276 19-87.5-69.644-32.197-33.646-132.79 40.5-114.5 46.314 11.425 60.161 74.344 23 104-3.177 2.536-18.064 9.53-18.5 10.5-.843 1.874 5.893 35.599 7 40.5m-85-99c-1.479 31.96 21.866 59.553 55 60 71.696.968 80.779-99.047 14-112-7.114-1.38-11.382-2.514-19-2-29.988 2.022-48.65 24.82-50 54"/><path fill="#cceaef" d="m507 50-15.5 8c-16.914 12.813-28.012 33.125-28.5 54.5-2.036 4.049-4.513-8.643-6-8.5 1.35-29.18 20.012-51.978 50-54"/><path fill="#8cbac4" d="m526 52 25 23.5c16.076 28.2 7.526 61.148-18.5 79.5l-20.5 9c-33.134-.447-56.479-28.04-55-60 1.487-.143 3.964 12.549 6 8.5.488-21.375 11.586-41.687 28.5-54.5l15.5-8c7.618-.514 11.886.62 19 2m-41 21c-7.176 6.14-10.373 11.388-12 21-2.585 15.266 2.157 33.241 20 35-1.211 3.015 5.82 5.715 7.5 6 19.876 3.368 34.31-9.606 42.5-26.5l-16-5.5c5.434-26.606-17.517-50.952-42-30"/><path fill="#6e949a" d="m512 164 20.5-9c26.026-18.352 34.576-51.3 18.5-79.5L526 52c66.779 12.953 57.696 112.968-14 112"/><path fill="#c5dede" d="M527 103c-3.034 14.854-18.963 27.482-34 26-17.843-1.759-22.585-19.734-20-35 23.735 51.516 65.732-26.368 12-21 24.483-20.952 47.434 3.394 42 30"/><path fill="#e3f1f1" d="M473 94c1.627-9.612 4.824-14.86 12-21 53.732-5.368 11.735 72.516-12 21m16.5-15c-8.606 1.333-11.534 16.102-3 20 14.719 6.723 19.26-22.52 3-20"/><path fill="#fcfdfd" d="M489.5 79c16.26-2.52 11.719 26.723-3 20-8.534-3.898-5.606-18.667 3-20"/><path fill="#a0d4e0" d="M493 129c15.037 1.482 30.966-11.146 34-26l16 5.5c-8.19 16.894-22.624 29.868-42.5 26.5-1.68-.285-8.711-2.985-7.5-6"/><path fill="#046474" d="M236 281c-.22-.068-2.708 1.023-4.5-1l1.5 4c-17.791-12.812-35.235-26.31-47.5-45-3.233-.781-2.365 1.913-2.5 2-3.498 2.252-7.116 6.972-10 9-11.597 8.156-22.876 12.51-36 17.5 5.95 8.448 12.364 16.867 18 25.5 21.483 32.906 44.061 65.143 72 93-1.832 2.208-3.145 5.441-6 9l3-4.5c-18.101-22.198-36.811-44.079-54-67-5.378-7.171-36.132-55.767-39.5-56.5-1.662-.362-13.638 1.691-18 1-56.437-8.938-84.09-68.294-54.5-117.5 44.901-74.668 167.749-25.581 139 67-1.09 3.511-8.226 13.217-8 16 .633 7.793 38.491 42.006 47 47.5m-84-22c42.759-16.689 56.929-66.161 34-105-14.029-23.764-41.006-40.156-69-33-11.974-3.107-30.226 6.419-39.5 14-64.172 52.455-8.628 156.445 74.5 124"/><path fill="#175168" d="M829 424c-.309.016-4.565 1.632-6 1.5-.257 2.287 2.36 2.026 3 3.5 30.086 69.301 45.924 110.084 42 189-.649 13.049-1.812 29.242-4 42-.19 1.108-.752 3.728-1 5-9.873 50.752-33.895 100.56-64 142-149.787 206.19-440.854 198.08-583-12-23.689-35.012-48.215-88.606-57-130-.244-1.15-.765-3.776-1-5-2.203-11.48-3.215-29.902-4-42-4.938-76.063 9.145-121.174 43-187 1.07-2.079 2.586-4.653 1-7 3.849-1.227 18.652-23.581 23-29 2.855-3.559 4.168-6.792 6-9 4.122-4.969 8.643-10.244 13-15 11.835-12.918 27.462-26.759 41-38 1.994-1.655 4.012-3.351 6-5 1.676-1.39 13.663-7.475 11.5-10-24.472-6.553-45.304-19.456-65.5-34l-1.5-4c1.792 2.023 4.28.932 4.5 1 8.396 2.577 26.898 16.316 37.5 21 4.62 2.041 31.035 12.35 34 12 47.633-31.948 102.584-53.111 160-59 2.265-1.104 2.646-3.686 3.5-5 2.017.311.49 3.864 1 4.5 1.559 1.943 2.848-.488 3-.5 3.428-.277 7.805-1.836 11-2 12.679-.651 26.242-.315 39 0 10.27.254 20.712 2.241 31 2.5-6.347-16.507-10.313-33.5-15-50.5l1-1c1.648 7.294 13.238 49.523 17.5 52 40.504 4.932 79.266 17.628 116 35 6.742 3.189 36.787 22.525 39 23 11.91 2.556 60.607-23.909 72-32 7.843-5.57 47.279-40.736 46.5-48.5-47.592-72.063 44.066-155.222 112.5-102.5 50.718 39.074 34.925 125.552-30 137-6.756 1.191-20.93-.282-25 1-3.221 1.015-33.081 48.292-38.5 55.5-16.768 22.305-34.952 43.724-53 65v3c7.407 4.367 17.266 27.649 22 31 3.093 2.19 4.526 1.515 8 1.5m7-270c-23.502 40.153-6.595 95.595 40 108 110.069 29.305 129.49-135.167 27-143-28.547-2.182-52.586 10.374-67 35M736 328c1.645 1.339 3.402 2.655 5 4 14.302 12.041 28.927 25.643 42 39 1.958 2.001 11.184 15.494 13.5 15 27.284-31.193 52.392-63.904 74.5-99 4.393-6.973 9.134-13.835 14-20.5-13.769-2.717-24.762-8.512-36-16.5-1.693-1.204-3.357-2.696-5-4-1.07-.85-5.639-7-6.5-7-29.408 36.069-68.899 65.899-114 79 3.045 4.419 8.51 6.752 12.5 10M234 804c27.424 42.459 88.559 89.365 134 111 141.999 67.608 299.308 27.879 402-87 137.754-154.101 116.029-384.236-55-503-45.266-31.433-105.28-57.948-161-62-4.939-.359-10.069-1.005-15-1-162.246-16.784-327.844 96.415-368 254.5-25.394 99.971.934 206.666 63 287.5"/><path fill="#78a2a6" d="M117 121c-4.66 1.191-9.112 3.123-13 6-12.42 3.421-30.294 27.416-34 39.5-12.387 40.395 12.106 82.718 53.5 91.5l28.5 1c-83.128 32.445-138.672-71.545-74.5-124 9.274-7.581 27.526-17.107 39.5-14"/><path fill="#d0eef3" d="m186 154-.5 23c-1.526.064-10.63-21.731-12.5-24.5-14.226-21.061-44.516-32.245-69-25.5 3.888-2.877 8.34-4.809 13-6 27.994-7.156 54.971 9.236 69 33"/><path fill="#cdebf1" d="M903 119c4.225 3.375 10.142 5.259 15 8-38.219-3.59-66.645 13.68-82.5 48l-1.5-5.5 2-15.5c14.414-24.626 38.453-37.182 67-35"/><path fill="#69808a" d="m876 262 32.5-6c56.073-24.611 65.805-97.229 9.5-129-4.858-2.741-10.775-4.625-15-8 102.49 7.833 83.069 172.305-27 143"/><path fill="#8bb7be" d="M186 154c22.929 38.839 8.759 88.311-34 105l-28.5-1c-41.394-8.782-65.887-51.105-53.5-91.5 3.706-12.084 21.58-36.079 34-39.5 24.484-6.745 54.774 4.439 69 25.5 1.87 2.769 10.974 24.564 12.5 24.5zm-17 5c-6.283-9.309-8.215-11.698-19-16-42.662-17.015-55.589 34.471-26.5 59 33.384 28.151 71.36-4.685 45.5-43"/><path fill="#83a2ad" d="M918 127c56.305 31.771 46.573 104.389-9.5 129l-32.5 6c-46.595-12.405-63.502-67.847-40-108l-2 15.5 1.5 5.5c15.855-34.32 44.281-51.59 82.5-48m-45 16c-9.896 3.925-15.583 8.791-21 18-22.954 39.022 16.048 70.106 48.5 40 27.125-25.163 13.233-74.156-27.5-58"/><path fill="#d1e8e7" d="M150 143c-22.823-2.083-33.918 27.822-15.5 41 18.466 13.213 40.37-3.504 34.5-25 25.86 38.315-12.116 71.151-45.5 43-29.089-24.529-16.162-76.015 26.5-59"/><path fill="#cce0e0" d="M852 161c2.712 3.724.293 9.231 2 14.5 4.665 14.4 24.917 16.907 35.5 7.5 15.566-13.836 5.708-41.978-16.5-40 40.733-16.156 54.625 32.837 27.5 58-32.452 30.106-71.454-.978-48.5-40"/><path fill="#eff9f8" d="M150 143c10.785 4.302 12.717 6.691 19 16 5.87 21.496-16.034 38.213-34.5 25-18.418-13.178-7.323-43.083 15.5-41"/><path fill="#e8f4f4" d="M873 143c22.208-1.978 32.066 26.164 16.5 40-10.583 9.407-30.835 6.9-35.5-7.5-1.707-5.269.712-10.776-2-14.5 5.417-9.209 11.104-14.075 21-18m.5 8c-11.647 2.377-16.422 21.208-5 24 19.228 4.7 24.139-27.907 5-24"/><path fill="#fdfdfe" d="M873.5 151c19.139-3.907 14.228 28.7-5 24-11.422-2.792-6.647-21.623 5-24"/><path fill="#f6fafa" d="M494 163c-1.07 2.855 1.763 5.194 2 7 2.628 20.062-8.222 51.727-16 70.5-.645 1.556-1.158 3.07-3 1.5 8.077-25.929 13.365-52.363 15-79.5z"/><path fill="url(#a)" d="M527 164c-4.01 7.201.423 17.574 1 25.5 1.427 19.588.471 36.141-2 55.5l-38 3c4.028-9.601 16.906-69.18 14-75.5-.167-.363-4.876-2.573-6-2.5-.237-1.806-3.07-4.145-2-7 11.786 4.886 21.983 1.288 33 1" style="fill:url(#a)"/>/&gt;<path fill="#667f88" d="M541 204c4.687 17 8.653 33.993 15 50.5-10.288-.259-20.73-2.246-31-2.5 1.695-2.178.698-4.63 1-7 2.471-19.359 3.427-35.912 2-55.5-.577-7.926-5.01-18.299-1-25.5 1.775-.046 2.03-.861 3.5-1 3.386 13.483 6.745 27.379 10.5 41"/><path fill="#cbe0e5" d="M488 248c-.648 1.545-2.355 2.051-2 4-3.195.164-7.572 1.723-11 2-2.003-2.649.956-8.649 2-12 1.842 1.57 2.355.056 3-1.5 7.778-18.773 18.628-50.438 16-70.5 1.124-.073 5.833 2.137 6 2.5 2.906 6.32-9.972 65.899-14 75.5"/><path fill="#f0f6f8" d="M233 284c20.196 14.544 41.028 27.447 65.5 34 2.163 2.525-9.824 8.61-11.5 10-28.339-13.711-85.178-42.846-98-72.5-1.805-4.176 1.569-12.606-6-14.5.135-.087-.733-2.781 2.5-2 12.265 18.69 29.709 32.188 47.5 45"/><path fill="#f1f7f9" d="M844 246c-6.828 5.074-10.77 13.601-16 19.5-24.268 27.372-59.464 46.808-92 62.5-3.99-3.248-9.455-5.581-12.5-10 45.101-13.101 84.592-42.931 114-79 .861 0 5.43 6.15 6.5 7"/><path fill="#d1e2e6" d="M287 328c-1.988 1.649-4.006 3.345-6 5-42.572-17.956-78.076-48.316-108-83 2.884-2.028 6.502-6.748 10-9 7.569 1.894 4.195 10.324 6 14.5 12.822 29.654 69.661 58.789 98 72.5"/><path fill="#77929c" d="M526 245c-.302 2.37.695 4.822-1 7-12.758-.315-26.321-.651-39 0-.355-1.949 1.352-2.455 2-4z"/><path fill="#cce0e5" d="M849 250c-30.333 33.518-64.695 66.313-108 82-1.598-1.345-3.355-2.661-5-4 32.536-15.692 67.732-35.128 92-62.5 5.23-5.899 9.172-14.426 16-19.5 1.643 1.304 3.307 2.796 5 4"/><path fill="url(#b)" d="M281 333c-13.538 11.241-29.165 25.082-41 38-12.648-7.402-23.169-17.314-34-27 1.395-1.628-2.019-5.329-3-6.5-7.977-9.528-17.081-18.336-25-28-8.858-10.81-16.393-24.63-27-33-.318 2.02 3.862 6.371 4 7 .195.891-5.458-1.1 2 8.5l-2 1c-5.636-8.633-12.05-17.052-18-25.5 13.124-4.99 24.403-9.344 36-17.5 29.924 34.684 65.428 65.044 108 83" style="fill:url(#b)"/>/&gt;<path fill="url(#c)" d="M871 287c-27.405 29.888-54.452 60.792-88 84-13.073-13.357-27.698-26.959-42-39 43.305-15.687 77.667-48.482 108-82 11.238 7.988 22.231 13.783 36 16.5-4.866 6.665-9.607 13.527-14 20.5" style="fill:url(#c)"/>/&gt;<path fill="#f4f9fa" d="M539 262c-279.956.287-462.854 297.598-305 542-62.066-80.834-88.394-187.529-63-287.5C211.156 358.415 376.754 245.216 539 262"/><path fill="#bddce8" d="M554 263c7.002 5.695 18.682 6.858 27.5 10C691.795 312.303 789.006 404.966 783 530.5c-.034.719-.138 7.166-2 6.5-52.605-204.102-307.951-276.715-461-130 1.019-17.318-23.997-41.609-39-25.5-6.48 6.958-17.437 44.191-7.5 49.5 7.055 3.769 17.501-3.175 23.5 1-115.382 141.227-62.067 350.504 105 420-6.024 17.452 6.116 34.271 8 49.5.927 7.496-1.638 15.12 0 22.5-13.996-2.597-28.009-8.363-42-9-45.441-21.635-106.576-68.541-134-111-157.854-244.402 25.044-541.713 305-542 4.931-.005 10.061.641 15 1m-223.5 74c-11.074 1.761-22.408 19.454-12 29 23.844 21.869 37.556-33.064 12-29"/><path fill="#6e97a9" d="M715 325c-1.568 1.543-3.262 11.323-3 12.5.683 3.072 37.763 37.475 44 45C856.638 503.923 859.646 661.003 767 788l-23-34c43.313-64.118 56.304-142.103 37-217 1.862.666 1.966-5.781 2-6.5 6.006-125.534-91.205-218.197-201.5-257.5-8.818-3.142-20.498-4.305-27.5-10 55.72 4.052 115.734 30.567 161 62"/><path fill="#90b2be" d="M206 344c-17.871-15.982-34.267-33.035-49-52-7.458-9.6-1.805-7.609-2-8.5-.138-.629-4.318-4.98-4-7 10.607 8.37 18.142 22.19 27 33 7.919 9.664 17.023 18.472 25 28 .981 1.171 4.395 4.872 3 6.5"/><path fill="#6a8994" d="M783 371c33.548-23.208 60.595-54.112 88-84-22.108 35.096-47.216 67.807-74.5 99-2.316.494-11.542-12.999-13.5-15"/><path fill="#607985" d="M157 292c14.733 18.965 31.129 36.018 49 52 10.831 9.686 21.352 19.598 34 27-4.357 4.756-8.878 10.031-13 15-27.939-27.857-50.517-60.094-72-93z"/><path fill="#5c8294" d="M770 828c-8.623-6.332-6.429-17.519-14-24 4.037-4.919 7.266-10.882 11-16 92.646-126.997 89.638-284.077-11-405.5-6.237-7.525-43.317-41.928-44-45-.262-1.177 1.432-10.957 3-12.5 171.029 118.764 192.754 348.899 55 503"/><path fill="#0d4d67" d="M781 537c19.304 74.897 6.313 152.882-37 217-5.46 8.083-15.45 20.723-22 28-70.198 77.989-179.367 108.217-281 83-13.344-3.311-26.329-7.729-39-13-167.067-69.496-220.382-278.773-105-420 6.399-7.833 15.709-18.011 23-25 153.049-146.715 408.395-74.102 461 130M365 378c-121.365 77.342-163.616 234.897-88 360a267.7 267.7 0 0 0 73 79c112.619 80.873 273.718 65.734 367-37.5C879.208 599.986 735.292 324.419 498 335c-48.939 2.182-92.079 16.922-133 43"/><path fill="#b5ddea" d="M498 335c3.359 5.915-2.691 16.087 4.5 18-45.268.521-91.473 14.833-129.5 39l-8-14c40.921-26.078 84.061-40.818 133-43"/><path fill="#77b0c6" d="M350 817c.514-2.504 7.166-15.619 7-16.5-.205-1.086-15.173-11.326-17.5-13.5-18.506-17.294-37.529-38.124-50.5-60-68.482-115.493-27.518-264.127 84-335 38.027-24.167 84.232-38.479 129.5-39-7.191-1.913-1.141-12.085-4.5-18 237.292-10.581 381.208 264.986 219 444.5-93.282 103.234-254.381 118.373-367 37.5m251 12c36.379-11.258 81.024-45.126 105-74.5 85.504-104.751 67.167-261.9-41-342.5-3.301-8.659-17.271-20.61-27-20-132.275-79.134-311.288-12.88-361 132.5C208.634 724.431 410.562 899.52 601 829"/><path fill="#fefeff" d="M330.5 337c25.556-4.064 11.844 50.869-12 29-10.408-9.546.926-27.239 12-29"/><path fill="#0f5274" d="M638 392c-12.905.81-16.688 15.668-16 26-3.376.65-7.613-2.66-11-4-6.248-6.13-17.749-12.269-26-16-.93-4.061 1.248-18.989 0-21.5-2.784-5.601-64.06-11.528-73-11.5-107.062.338-205.687 74.308-233 178-3.548 13.468-12.417 67.932-8 78.5.344.823 15.89 8.224 16 2.5 4.555 43.872 24.507 82.992 55.5 114l52.5-21c7.477 1.947 19.56-3.689 27.5-5 16.479-2.721 33.177-4.468 49.5-8 2.675.257 5.377 1.143 8-2 21.598 2.566 44.186-1.09 68 2 2.469.32 1.889.984 2 1-63.225.845-152.539 1.87-207.5 36-3.438 2.135-22.314 15.934-11.5 18 2.116 3.975 13.063 13.439 17 17 2.558 2.314 5.625 4.057 8 6 5.432 4.444 9.984 8.245 16 12 .724.452.551 3.021 3 1 1.074 4.478 10.747 8.51 15 11 5.405 3.163 11.414 5.262 17 8a400 400 0 0 0 22 10c5.482 2.293 10.727 5.211 16.5 7 .967.3 4.212 1.586 3.5-1 4.397 5.701 20.227 4.168 27 5 3.008.369 6.009.639 9 1 5.894.711 12.489-.077 18 3-1.392 3.84 20.122 4.309 21 .5.107-.463-1.641.333-2-2.5 7.491 1.106 16.439-.942 24-2 2.457-.344 5.752-1.665 8-2 5.636-.839 12.463-.168 18-1 3.023-.454 6.226-.474 9-2l1 1c-.734.385-1.555 1.313-3 1.5-.803 3.564 17.811-4.016 19.5-4.5 2.531-.726 2.371 1.04 2.5 1-190.438 70.52-392.366-104.569-324-304.5C326.712 379.12 505.725 312.866 638 392"/><path fill="#1b719e" d="M512 365v9.5c-5.04-4.762-3.259 3.632-4.5 4.5-1.307.915-8.467-2.022-8.5 2-12.138.887-16.509 1.797-28 4-59.159 11.34-131.269 40.33-153 102-12.081 16.874-19.89 41.309-25 62-6.003 2.772-8.455-5.646-14-6 27.313-103.692 125.938-177.662 233-178"/><path fill="#13618b" d="M585 398c-16.565-7.49-34.96-13.424-53-16-9.445-1.348-12.514-.987-22-1-3.769-.005-7.24-.275-11 0 .033-4.022 7.193-1.085 8.5-2 1.241-.868-.54-9.262 4.5-4.5V365c8.94-.028 70.216 5.899 73 11.5 1.248 2.511-.93 17.439 0 21.5"/><path fill="#f3f7f8" d="M320 407c-7.291 6.989-16.601 17.167-23 25-5.999-4.175-16.445 2.769-23.5-1-9.937-5.309 1.02-42.542 7.5-49.5 15.003-16.109 40.019 8.182 39 25.5"/><path fill="#d4edf5" d="m365 378 8 14c-111.518 70.873-152.482 219.507-84 335-4.794.088-9.621 7.165-12 11-75.616-125.103-33.365-282.658 88-360"/><path fill="url(#d)" d="M510 381c-1.113 24.397 12.938 22.6 30.5 28 3.798 1.168 8.116 7.167 11.5 3.5.397-.43 4.137-10.431 4-11-.286-1.189-9.434-5.702-10-8.5 4.758 2.18 17.768 4.736 24 7-2.869 9.205-12.531 15.171-3 23-4.645 1.519-9.609 2.843-14 5-56.987-18.8-125.961 2.82-159 53-4.087 5.079-10.061 15.953-13 22-23.901 49.173-17.737 106.028 14 150 15.487 21.458 50.116 48.413 77 51-16.323 3.532-33.021 5.279-49.5 8-7.94 1.311-20.023 6.947-27.5 5-15.17-3.951-48.894-42.786-58-56.5-28.476-42.888-30.733-82.136-26-132.5 8.339-14.476 15.155-29.88 25-43.5 28.006-38.745 71.39-69.829 114.5-89.5 6.193-2.826 16.581-4.355 20.5-10 11.491-2.203 15.862-3.113 28-4 3.76-.275 7.231-.005 11 0" style="fill:url(#d)"/>/&gt;<path fill="#4caacb" d="M532 382c3.557 3.369 9.718 9.038 14 11 .566 2.798 9.714 7.311 10 8.5.137.569-3.603 10.57-4 11-3.384 3.667-7.702-2.332-11.5-3.5-17.562-5.4-31.613-3.603-30.5-28 9.486.013 12.555-.348 22 1"/><path fill="#107eb1" d="M585 398c8.251 3.731 19.752 9.87 26 16-13.387-5.296-27.453-9.078-41-14-6.232-2.264-19.242-4.82-24-7-4.282-1.962-10.443-7.631-14-11 18.04 2.576 36.435 8.51 53 16"/><path fill="#fcfdfe" d="M311 528c1.352-14.381 2.138-27.201 7-41 21.731-61.67 93.841-90.66 153-102-3.919 5.645-14.307 7.174-20.5 10-43.11 19.671-86.494 50.755-114.5 89.5-9.845 13.62-16.661 29.024-25 43.5"/><path fill="#fefefe" d="M665 412c3.551 9.313 1.21 17.99-8 23-3.014 1.64-8.495 2.793-12 3-4.739.279-7.63-1-12-1.5 8.433 16.691 2.971 28.881-3 44.5-.449 1.174-1.606 4.164-2 5-1.055 2.239-2.842 5.95-4 8-4.236 7.497-10.461 14.937-18 20-8.323 5.589-17.89 9.331-28 10-23.776 1.573-46.73-9.55-53-34-2.035-7.935-1.935-15.989-1-24 .149-1.276-.237-2.8 0-4 1.95-9.87 8.288-19.586 16-26 4.069-3.384 8.282-5.683 13-8 4.391-2.157 9.355-3.481 14-5 18.955-6.201 39.333-12.131 56.5 2-.855-2.52-1.317-4.247-1.5-7-.688-10.332 3.095-25.19 16-26 9.729-.61 23.699 11.341 27 20"/><path fill="#3fa6c7" d="M611 414c3.387 1.34 7.624 4.65 11 4 .183 2.753.645 4.48 1.5 7-17.167-14.131-37.545-8.201-56.5-2-9.531-7.829.131-13.795 3-23 13.547 4.922 27.613 8.704 41 14"/><path fill="url(#e)" d="M601 829c-.129.04.031-1.726-2.5-1-1.689.484-20.303 8.064-19.5 4.5 1.445-.187 2.266-1.115 3-1.5 4.39-2.302 14.587-2.602 16-8 3.496 1.451 7.32-2.686 10-4 2.204-1.081 4.733-1.855 7-3 9.108-4.599 18.208-8.754 27-14 1.712-1.022 3.294-1.925 5-3 3.833-2.416 4.72-4.43 7-6 1.069-.736 4.072-1.555 6-3 5.41-4.055 10.984-8.47 16-13 7.284-6.579 16.059-13.358 19-22 .077-.227 3.008-1.226 3-1.5-2.225-.656-3.708-3.865-4.5-4.5-8.059-6.457-56.602-25.921-67-28-.333-.067-5.79 1.34-6.5 2-71.324-19.071-136.498-20.048-208.5-3-28.116 6.657-59.861 17.371-82.5 35.5-.324 1.094 1.342 2.263 2 3.5-10.814-2.066 8.062-15.865 11.5-18 54.961-34.13 144.275-35.155 207.5-36 10.351 1.498 21.157 4.695 31.5 6 1.489.188 6.045.929 5.5-2 16.234 2.967 33.124 7.454 49 12 11.724 3.357 23.33 8.104 34.5 13 60.218-54.053 69.354-140.471 42.5-214-11.598-31.756-31.519-61.921-56-85 9.21-5.01 11.551-13.687 8-23 108.167 80.6 126.504 237.749 41 342.5-23.976 29.374-68.621 63.242-105 74.5" style="fill:url(#e)"/>/&gt;<path fill="#0671a3" d="M553 428c-4.718 2.317-8.931 4.616-13 8-1.146-.861-1.93-.722-3-1 1.098-.816 10.171-3.568 7.5-6-23.828-5.737-49.155-6.078-73-1l1.5 2c-26.659 4.317-53.852 20.279-70 42-3.364 2.494-6.398 5.767-9 9 33.039-50.18 102.013-71.8 159-53"/><path fill="#2a2a2b" d="M198 424c1.586 2.347.07 4.921-1 7-2.292-4.266-7.983-.748-11 0-66.547 16.494-68.102 132.997-59 186 .305 1.776.645 3.284 1 5 4.593 22.185 6.619 29.418 30 38 .235 1.224.756 3.85 1 5-17.674-5.039-30.197-20.182-35-37.5-14.218-51.267-2.15-181.251 58.5-201.5 4.268-1.425 12.311-.983 15.5-2"/><path fill="#0d82b3" d="M537 435c-4.242-1.103-8.71-2.103-13-3-18.564-3.883-32.073-5.065-51-2l-1.5-2c23.845-5.078 49.172-4.737 73 1 2.671 2.432-6.402 5.184-7.5 6"/><path fill="#292524" d="M863 665c.248-1.272.81-3.892 1-5 5.062-1.495 10.242-3.903 14.5-7 13.468-9.798 12.43-16.05 15.5-31 .444-2.162.667-3.855 1-6 7.987-51.509 6.432-144.768-42-177-8.533-5.679-15.761-10.693-27-10-.64-1.474-3.257-1.213-3-3.5 1.435.132 5.691-1.484 6-1.5 68.606-3.441 90.267 177.498 62 220.5-5.193 7.9-18.759 17.859-28 20.5"/><path fill="#2fb5d9" d="M524 432c-33.531 1.488-69.431 7.249-96 29-6.725 1.203-19.517 6.935-25 11 16.148-21.721 43.341-37.683 70-42 18.927-3.065 32.436-1.883 51 2"/><path fill="#a6b9c0" d="M197 431c-33.855 65.826-47.938 110.937-43 187l-26 4c-.355-1.716-.695-3.224-1-5-1.595-53.172 3.197-110.119 31-156.5l28-29.5c3.017-.748 8.708-4.266 11 0"/><path fill="url(#f)" d="M853 439c11.671 22.566 24.24 42.613 31 67.5 9.471 34.868 12.176 73.598 11 109.5-.333 2.145-.556 3.838-1 6l-26-4c3.924-78.916-11.914-119.699-42-189 11.239-.693 18.467 4.321 27 10" style="fill:url(#f)"/>/&gt;<path fill="#e5f0f3" d="m186 431-28 29.5c-27.803 46.381-32.595 103.328-31 156.5-9.102-53.003-7.547-169.506 59-186"/><path fill="#39dcf6" d="M537 435c1.07.278 1.854.139 3 1-7.712 6.414-14.05 16.13-16 26-93.171-14.816-152.617 92.538-98 167.5 38.806 53.262 118.976 58.149 165 11.5 14.864 21.053 27.948-16.986 8-9 24.185-31.784 29.295-75.062 11-111-1.172-2.303-3.187-4.422-4-7 7.539-5.063 13.764-12.503 18-20 41.552 56.613 25.424 133.939-28.5 176-5.12 3.994-28.127 15.564-29 17-1.826 3.002 4.021 6.76-1.5 11-5.502 2.165-11.813 2.935-17 6-23.814-3.09-46.402.566-68-2-9.84-1.169-34.202-8.801-42.5-14-1.957-1.226-3-1.15-2.5-4 12.48 5.46 26.289 9.692 40 10.5-66.235-14.334-111.69-74.501-101-143 .387-2.479 2.241-11.332 5-12.5-2.576 29.617-1.212 50.692 11 78.5 9.628 21.923 29.626 47.507 52 57-66.211-55.184-71.174-156.574-5-214-.831-1.095-7.448.222-9 .5 26.569-21.751 62.469-27.512 96-29 4.29.897 8.758 1.897 13 3"/><path fill="#086b9d" d="M657 435c24.481 23.079 44.402 53.244 56 85-6.426-3.364-7.36 5.363-14 4-2.989-9.443-6.57-19.158-11-28-5.158-10.293-12.668-19.293-18-29.5L645 438c3.505-.207 8.986-1.36 12-3"/><path fill="#43abca" d="m645 438 25 28.5c5.332 10.207 12.842 19.207 18 29.5l-34 27c-4.918-14.79-13.876-30.21-24-42 5.971-15.619 11.433-27.809 3-44.5 4.37.5 7.261 1.779 12 1.5"/><path fill="#e2edf1" d="M895 616c1.176-35.902-1.529-74.632-11-109.5-6.76-24.887-19.329-44.934-31-67.5 48.432 32.232 49.987 125.491 42 177"/><path fill="#f3fdfe" d="M379 539c.91-10.459 5.127-24.452 4.5-35-.204-3.439.481-.856-2.5-1 2.939-6.047 8.913-16.921 13-22 2.602-3.233 5.636-6.506 9-9 5.483-4.065 18.275-9.797 25-11 1.552-.278 8.169-1.595 9-.5-66.174 57.426-61.211 158.816 5 214-22.374-9.493-42.372-35.077-52-57-12.212-27.808-13.576-48.883-11-78.5"/><path fill="#003259" d="M524 462c-.237 1.2.149 2.724 0 4-10.422-5.085-21.307-2.441-32-1-33.516 4.518-61.552 27.151-75 59-34.469 81.63 31.509 153.948 114 144 3.26-.393 10.725-1.287 13.5-2 14.531-3.735 32.967-15.505 42.5-27 1.678-2.023 6.264-1.904 7-8 1.918 1.27 8.431-7.59 9-8.5 16.563-26.467 19.085-56.245 11-86-.726-2.674-10.898-15.165-4-15.5 18.295 35.938 13.185 79.216-11 111-2.332 3.065-5.3 6.263-8 9-46.024 46.649-126.194 41.762-165-11.5-54.617-74.962 4.829-182.316 98-167.5"/><path fill="#016b95" d="M524 466c-.935 8.011-1.035 16.065 1 24l-14-1c-.023-.067-.444.366-1-1-3.746-9.203-10.709-16.449-18-23 10.693-1.441 21.578-4.085 32 1"/><path fill="#7ab0bf" d="M492 465c7.291 6.551 14.254 13.797 18 23-16.24 1.674-31.315 7.421-45 16-5.265-18.029-32.049-10.2-28 12.5.377 2.113 5.403 9.772 7 10.5-4.31 3.978-7.083 13.351-8 19-8.867-4.842-14.184-13.603-19-22 13.448-31.849 41.484-54.482 75-59"/><path fill="#00699f" d="M654 523c17.695 53.215 4.724 105.759-34 145-1.856.604-2.892-1.864-2.5-3 .521-1.51 17.471-19.603 20.5-24.5 4.367-7.06 5.733-12.235 8-18.5 17.11-47.282 15.09-96.347-18-136 .394-.836 1.551-3.826 2-5 10.124 11.79 19.082 27.21 24 42"/><path fill="#1cb5db" d="M646 622c-17.511 33.222-45.633 62.082-81 76 5.521-4.24-.326-7.998 1.5-11 .873-1.436 23.88-13.006 29-17 53.924-42.061 70.052-119.387 28.5-176 1.158-2.05 2.945-5.761 4-8 33.09 39.653 35.11 88.718 18 136"/><path fill="url(#g)" d="M311 528c-4.733 50.364-2.476 89.612 26 132.5 9.106 13.714 42.83 52.549 58 56.5l-52.5 21c-30.993-31.008-50.945-70.128-55.5-114-2.905-27.978-.699-47.876 6-75 5.11-20.691 12.919-45.126 25-62-4.862 13.799-5.648 26.619-7 41" style="fill:url(#g)"/>/&gt;<path fill="#8497a5" d="M510 488c.556 1.366.977.933 1 1 3.912 11.183 3.056 22.396 2 34-.729 8.013-4.483 16.086-3 24.5-10.11 5.985-19.31 11.685-31 12.5-1.935.135-4.057.078-6 0-12.965-.52-26.504-5.552-37-13 .045-.327-.053-.676 0-1 .917-5.649 3.69-15.022 8-19 14.416 6.573 25.092-8.986 21-23 13.685-8.579 28.76-14.326 45-16"/><path fill="#233349" d="M525 490c6.27 24.45 29.224 35.573 53 34-4.267 4.411 4.344 12.956 6 18.5 10.416 34.883-6.224 77.41-41 91.5-16.026 6.493-34.623 6.538-51 2-2.301-.638-6.083-.512-7-3 8.371.957 18.545-2.543 26-6.5-19.251-16.663-40.85-38.852-38-66.5 1.943.078 4.065.135 6 0 1.371 34.194 47.469 51.356 68 22.5 18.952-26.636-2.682-60.748-34-59.5 1.056-11.604 1.912-22.817-2-34z"/><path fill="#fdfefe" d="M465 504c4.092 14.014-6.584 29.573-21 23-1.597-.728-6.623-8.387-7-10.5-4.049-22.7 22.735-30.529 28-12.5"/><path fill="url(#h)" d="M699 524c18.623 58.833 9.654 130.847-36.5 175-8.242 7.885-19 13.217-26.5 22-15.876-4.546-32.766-9.033-49-12-7.318-1.337-18.081-.261-24-5 20.531-4.684 42.384-21.189 57-36 38.724-39.241 51.695-91.785 34-145l34-27c4.43 8.842 8.011 18.557 11 28" style="fill:url(#h)"/>/&gt;<path fill="#9af2fd" d="M379 539c-2.759 1.168-4.613 10.021-5 12.5-10.69 68.499 34.765 128.666 101 143-13.711-.808-27.52-5.04-40-10.5-17.244-7.544-27.177-17.55-40-31-31.737-43.972-37.901-100.827-14-150 2.981.144 2.296-2.439 2.5 1 .627 10.548-3.59 24.541-4.5 35"/><path fill="#004170" d="M610 521c-6.898.335 3.274 12.826 4 15.5 8.085 29.755 5.563 59.533-11 86-.569.91-7.082 9.77-9 8.5 3.116-25.803-41.109-11.407-22 8-3.964-1.166-5.052-5.039-6.5-5-1.012.028-13.035 11.445-17 11 .735-3.902-5.628-5.885-5.5-11 34.776-14.09 51.416-56.617 41-91.5-1.656-5.544-10.267-14.089-6-18.5 10.11-.669 19.677-4.411 28-10 .813 2.578 2.828 4.697 4 7"/><path fill="#004c7c" d="M713 520c26.854 73.529 17.718 159.947-42.5 214-11.17-4.896-22.776-9.643-34.5-13 7.5-8.783 18.258-14.115 26.5-22 46.154-44.153 55.123-116.167 36.5-175 6.64 1.363 7.574-7.364 14-4"/><path fill="#142536" d="M479 560c11.69-.815 20.89-6.515 31-12.5-1.483-8.414 2.271-16.487 3-24.5 31.318-1.248 52.952 32.864 34 59.5-20.531 28.856-66.629 11.694-68-22.5"/><path fill="#007298" d="M436 546c-.053.324.045.673 0 1-2.394 17.538.667 34.97 9 50.5 5.961 11.11 26.934 34.006 40 35.5.917 2.488 4.699 2.362 7 3l-2.5 16c6.008 4.371 37.372-2.075 39-1 .717.473 2.547 14.927 2.5 17-82.491 9.948-148.469-62.37-114-144 4.816 8.397 10.133 17.158 19 22"/><path fill="#13608b" d="M293 549c-6.699 27.124-8.905 47.022-6 75-.11 5.724-15.656-1.677-16-2.5-4.417-10.568 4.452-65.032 8-78.5 5.545.354 7.997 8.772 14 6"/><path fill="#516579" d="M473 560c-2.85 27.648 18.749 49.837 38 66.5-7.455 3.957-17.629 7.457-26 6.5-13.066-1.494-34.039-24.39-40-35.5-8.333-15.53-11.394-32.962-9-50.5 10.496 7.448 24.035 12.48 37 13"/><path fill="#fdfdfe" d="M594 631c-.736 6.096-5.322 5.977-7 8-4.823 1.496-10.207 1.41-15 0-19.109-19.407 25.116-33.803 22-8"/><path fill="#91a1a7" d="M154 618c.785 12.098 1.797 30.52 4 42-23.381-8.582-25.407-15.815-30-38z"/><path fill="#70858f" d="M894 622c-3.07 14.95-2.032 21.202-15.5 31-4.258 3.097-9.438 5.505-14.5 7 2.188-12.758 3.351-28.951 4-42z"/><path fill="#0071a8" d="M620 668c-14.616 14.811-36.469 31.316-57 36-5.793 1.322-6.076.907-13 1-.111-.016.469-.68-2-1 5.187-3.065 11.498-3.835 17-6 35.367-13.918 63.489-42.778 81-76-2.267 6.265-3.633 11.44-8 18.5-3.029 4.897-19.979 22.99-20.5 24.5-.392 1.136.644 3.604 2.5 3"/><path fill="#f9fdfe" d="M591 641c2.7-2.737 5.668-5.935 8-9 19.948-7.986 6.864 30.053-8 9"/><path fill="#005a85" d="M543 634c-.128 5.115 6.235 7.098 5.5 11 3.965.445 15.988-10.972 17-11 1.448-.039 2.536 3.834 6.5 5 4.793 1.41 10.177 1.496 15 0-9.533 11.495-27.969 23.265-42.5 27-2.775.713-10.24 1.607-13.5 2 .047-2.073-1.783-16.527-2.5-17-1.628-1.075-32.992 5.371-39 1l2.5-16c16.377 4.538 34.974 4.493 51-2"/><path fill="#0d86b3" d="M435 684c-.5 2.85.543 2.774 2.5 4 8.298 5.199 32.66 12.831 42.5 14-2.623 3.143-5.325 2.257-8 2-26.884-2.587-61.513-29.542-77-51 12.823 13.45 22.756 23.456 40 31"/><path fill="#145f80" d="M587 709c.545 2.929-4.011 2.188-5.5 2-10.343-1.305-21.149-4.502-31.5-6 6.924-.093 7.207.322 13-1 5.919 4.739 16.682 3.663 24 5"/><path fill="url(#i)" d="M620 723c.311.083.689-.084 1 0-1.236 5.722-3.818 2.85-9 6-3.97 2.413-5.956 4.619-9 8-21.747 24.15-8.884 57.056-5 86-1.413 5.398-11.61 5.698-16 8l-1-1c2.676-3.651 4.008-86.444 2-90.5-2.321-4.686-30.956-11.833-37-12.5-9.278-1.024-25.41-3.243-29 8.5-6.077 19.879 2.12 78.777 5 101.5.359 2.833 2.107 2.037 2 2.5-.878 3.809-22.392 3.34-21-.5 2.924.417 2.391-1.604 3-3 4.181-9.587 4.561-34.088 5-45.5.428-11.11 2.044-49.554 0-58-.124-.513-1.548-1.967-2-2.5-4.336-5.115-25.963-2.847-33-2-21.814-1.354-41.23 8.381-37 33.5l-1.5-7.5-1.5 5c-.65-9.459-4.635-10.987-13-15-8.642-4.146-11.496-6.305-21-3-16.632 5.784-30.851 37.949-27 54-2.449 2.021-2.276-.548-3-1 2.904-7.767 2.247-24.095-5-29-8.204-5.552-14.328 4.714-19 11-3.937-3.561-14.884-13.025-17-17-.658-1.237-2.324-2.406-2-3.5 22.639-18.129 54.384-28.843 82.5-35.5 72.002-17.048 137.176-16.071 208.5 3" style="fill:url(#i)"/>/&gt;<path fill="#1c5a75" d="M695 755c-21.855-15.182-48.367-25.033-74-32-.311-.084-.689.083-1 0 .71-.66 6.167-2.067 6.5-2 10.398 2.079 58.941 21.543 67 28 .792.635 2.275 3.844 4.5 4.5.008.274-2.923 1.273-3 1.5"/><path fill="#001329" d="M695 755c-2.941 8.642-11.716 15.421-19 22-1.603-6.585-4.595-17.912-12-20-15.842-4.466-12.917 27.515-10 36-2.28 1.57-3.167 3.584-7 6-.935-17.275-2.437-44.27-12-59-3.536-5.447-4.672-6.695-11-9-4.289-1.563-7.211-2.858-12-2 5.182-3.15 7.764-.278 9-6 25.633 6.967 52.145 16.818 74 32"/><path fill="#b5ddea" d="M289 727c12.971 21.876 31.994 42.706 50.5 60 2.327 2.174 17.295 12.414 17.5 13.5.166.881-6.486 13.996-7 16.5a267.7 267.7 0 0 1-73-79c2.379-3.835 7.206-10.912 12-11"/><path fill="#cdcccc" d="m546 727-3.5 4c16.865 7.615 26.83 10.415 28.5 31 .273 3.363.133 3.834 0 7-.588 14.021-4.852 29.796-8 43.5L546 835c-7.561 1.058-16.509 3.106-24 2-2.88-22.723-11.077-81.621-5-101.5 3.59-11.743 19.722-9.524 29-8.5"/><path fill="#001e39" d="M476 728c-8.94 1.076-30.653 5.113-34 14.5-3.431 9.623 1.217 80.002 7 87.5.712 2.586-2.533 1.3-3.5 1-5.773-1.789-11.018-4.707-16.5-7 1.561-19.92 8.352-45.335 7-65l1.5-5 1.5 7.5c-4.23-25.119 15.186-34.854 37-33.5"/><path fill="#d0d0cf" d="M509 730c-2.811 3.429-7.81-.037-11.5 1-14.526 4.082.65 17.379 1.5 25.5.748 7.145-4.113 18.318-5 26-2.203 19.07 1.783 41.911-18 52.5-6.773-.832-22.603.701-27-5-5.783-7.498-10.431-77.877-7-87.5 3.347-9.387 25.06-13.424 34-14.5 7.037-.847 28.664-3.115 33 2"/><path fill="#b0b1b2" d="M581 830c-2.774 1.526-5.977 1.546-9 2 8.224-6.382 9.045-66.616 7-69.5-.821-1.158-6.255-.188-8-.5-1.67-20.585-11.635-23.385-28.5-31l3.5-4c6.044.667 34.679 7.814 37 12.5 2.008 4.056.676 86.849-2 90.5"/><path fill="#b5b4b4" d="M624 731c-8.793-.613 4.256 13.604 6 18.5 4.578 12.852 6.579 37.133-1 49-1.244 1.948-1.126 3.004-4 2.5 4.024-14.784-4.662-53.846-22-60 .023-.199-.195-3.118 0-4 3.044-3.381 5.03-5.587 9-8 4.789-.858 7.711.437 12 2"/><path fill="#b2b2b3" d="m506 836 2-69.5-7.5-.5c1.995 25.246-2.633 48.252-15.5 70-2.991-.361-5.992-.631-9-1 19.783-10.589 15.797-33.43 18-52.5.887-7.682 5.748-18.855 5-26-.85-8.121-16.026-21.418-1.5-25.5 3.69-1.037 8.689 2.429 11.5-1 .452.533 1.876 1.987 2 2.5 2.044 8.446.428 46.89 0 58-.439 11.412-.819 35.913-5 45.5"/><path fill="#8d8c90" d="M624 731c6.328 2.305 7.464 3.553 11 9l7 62c-8.792 5.246-17.892 9.401-27 14 2.602-5.591 8.227-8.489 10-15 2.874.504 2.756-.552 4-2.5 7.579-11.867 5.578-36.148 1-49-1.744-4.896-14.793-19.113-6-18.5"/><path fill="#f8f6f6" d="M603 741c-2.974 25.366-10.731 55.618 5 78-2.68 1.314-6.504 5.451-10 4-3.884-28.944-16.747-61.85 5-86-.195.882.023 3.801 0 4"/><path fill="#cbcac9" d="M423 744c-8.629-1.07.178 12.13 1 16-.483 19.993-6.559 34.574-15 52-.062.127-1.534 1.93-2 2-5.586-2.738-11.595-4.837-17-8 4.657-16.357 15.449-39.336 11-56.5-.581-2.243-9.124-.971 1-8.5 9.504-3.305 12.358-1.146 21 3"/><path fill="#b3b4b4" d="M647 799c-1.706 1.075-3.288 1.978-5 3l-7-62c9.563 14.73 11.065 41.725 12 59"/><path fill="#f1f0ee" d="M402 741c-10.124 7.529-1.581 6.257-1 8.5 4.449 17.164-6.343 40.143-11 56.5-4.253-2.49-13.926-6.522-15-11-3.851-16.051 10.368-48.216 27-54"/><path fill="#d0cfce" d="M625 801c-1.773 6.511-7.398 9.409-10 15-2.267 1.145-4.796 1.919-7 3-15.731-22.382-7.974-52.634-5-78 17.338 6.154 26.024 45.216 22 60"/><path fill="#99999d" d="M423 744c8.365 4.013 12.35 5.541 13 15 1.352 19.665-5.439 45.08-7 65a400 400 0 0 1-22-10c.466-.07 1.938-1.873 2-2 18.477-11.759 19.097-32.712 15-52-.822-3.87-9.629-17.07-1-16"/><path fill="#79a6bb" d="M767 788c-3.734 5.118-6.963 11.081-11 16-2.219 2.704-5.779 5.476-8 8l-26-30c6.55-7.277 16.54-19.917 22-28z"/><path fill="#e4e2e1" d="M664 757c.588 5.011-4.862 6.071-5 6.5-.413 1.28 4.777 21.57 1 26.5-1.928 1.445-4.931 2.264-6 3-2.917-8.485-5.842-40.466 10-36"/><path fill="#9b9698" d="M676 777c-5.016 4.53-10.59 8.945-16 13 3.777-4.93-1.413-25.22-1-26.5.138-.429 5.588-1.489 5-6.5 7.405 2.088 10.397 13.415 12 20"/><path fill="#aaabad" d="M409 812c8.441-17.426 14.517-32.007 15-52 4.097 19.288 3.477 40.241-15 52"/><path fill="#9b9c9f" d="M572 832c-5.537.832-12.364.161-18 1 16.459-16.506 19.763-36.89 19-59.5-.062-1.828 1.009-4.935-2-4.5.133-3.166.273-3.637 0-7 1.745.312 7.179-.658 8 .5 2.045 2.884 1.224 63.118-7 69.5"/><path fill="#e7e4e3" d="M367 765c-.262 11.608-12.984-.15-11 17-2.375-1.943-5.442-3.686-8-6 4.672-6.286 10.796-16.552 19-11"/><path fill="#b0acae" d="M372 794c-6.016-3.755-10.568-7.556-16-12-1.984-17.15 10.738-5.392 11-17 7.247 4.905 7.904 21.233 5 29"/><path fill="#9e9fa1" d="M506 836c-.609 1.396-.076 3.417-3 3-5.511-3.077-12.106-2.289-18-3 12.867-21.748 17.495-44.754 15.5-70l7.5.5z"/><path fill="#adadaf" d="M554 833c-2.248.335-5.543 1.656-8 2l17-22.5c3.148-13.704 7.412-29.479 8-43.5 3.009-.435 1.938 2.672 2 4.5.763 22.61-2.541 42.994-19 59.5"/><path fill="#8db7ca" d="M748 812c-77.582 88.164-178.691 126.544-296 117l-11-64c101.633 25.217 210.802-5.011 281-83z"/><path fill="#2e6e85" d="M799 807c-78.849 151.287-269.759 210.57-424.5 140-64.898-29.598-129.867-86.303-158.5-152 142.146 210.08 433.213 218.19 583 12"/><path fill="#6e97a9" d="M770 828c-102.692 114.879-260.001 154.608-402 87 13.991.637 28.004 6.403 42 9 13.987 2.596 27.817 3.846 42 5 117.309 9.544 218.418-28.836 296-117 2.221-2.524 5.781-5.296 8-8 7.571 6.481 5.377 17.668 14 24"/><path fill="#a2c8d7" d="m441 865 11 64c-14.183-1.154-28.013-2.404-42-5-1.638-7.38.927-15.004 0-22.5-1.884-15.229-14.024-32.048-8-49.5 12.671 5.271 25.656 9.689 39 13"/></svg>