<svg xmlns="http://www.w3.org/2000/svg" width="1024" height="1024"><defs><linearGradient id="a" x1="848.328" x2="253.066" y1="246.763" y2="276.416" gradientUnits="userSpaceOnUse"><stop offset="21.812%" style="stop-color:#e4f0f3"/><stop offset="100%" style="stop-color:#96bbc6"/></linearGradient></defs><defs><linearGradient id="b" x1="343.835" x2="678.86" y1="340.477" y2="426.928" gradientUnits="userSpaceOnUse"><stop offset="0%" style="stop-color:#c2edfc"/><stop offset="81.792%" style="stop-color:#39bade"/></linearGradient></defs><defs><linearGradient id="c" x1="408.124" x2="615.571" y1="297.084" y2="466.759" gradientUnits="userSpaceOnUse"><stop offset="0%" style="stop-color:#3a98c7"/><stop offset="100%" style="stop-color:#0b468b"/></linearGradient></defs><defs><linearGradient id="d" x1="435.79" x2="592.433" y1="319.691" y2="453.478" gradientUnits="userSpaceOnUse"><stop offset="0%" style="stop-color:#25739c"/><stop offset="100%" style="stop-color:#132c54"/></linearGradient></defs><defs><linearGradient id="e" x1="893.276" x2="251.277" y1="514.713" y2="747.794" gradientUnits="userSpaceOnUse"><stop offset="30.6%" style="stop-color:#99c3cd"/><stop offset="82.577%" style="stop-color:#6b99aa"/><stop offset="100%" style="stop-color:#416a77"/></linearGradient></defs><path fill="#0d3945" d="M693 834c-7.263 8.649-16.428 20.057-24 28-39.371 41.299-65.979 44.332-119.5 55-2.424.483-4.024-1.257-3.5 3-25.318.035-55.432.356-81-3-47.098-6.181-82.399-20.46-115-55-7.547-7.996-16.777-19.346-24-28-72.007-86.273-128.899-185.01-163-292.5-2.707-3.151-39.342 5.844-54-14-2.405-3.256-4.74-11.394-6-13-5.694-7.257-10.485-3.786-16-18C73.517 461.749 68.982 324.728 98.5 300c2.016-1.689 8.666-2.663 9-3 .356-.36 1.247-6.762 3.5-9.5 3.237-3.934 5.77-5.083 10-7.5l1 1c-3.337 1.381-9.876 7.464-11 11-2.026 6.371 8.347 18.71 11 27 11.1 34.689 8.937 92.576 5 129-1.32 12.209-2.906 24.099-6 36-2.081 8.005-3.687 15.235-8 22.5-3.342 5.63-8.815 3.836-7 11.5.545 2.303 2.716 5.002 4 7 5.001 7.781 18.301 16.616 27.5 13 5.623-2.21 12.178-39.463 12.5-46.5l-4-44.5c.168-1.964-.099-4.025 0-6 1.442-18.931 2.943-38.049 4-57 1.306-23.424 3.163-44.203 1-68-1.213-13.35-2.844-33.035-12-43 3.791-2.286 5.199-7.034 8.5-9 9.417-5.608 27.16-1.885 38-3-6.329 3.734-6.234 4.117-2 11 97.462-182.283 328.565-244.795 509-145 61.523 34.027 111.248 84.289 145 146l4.5-8.5-7.5-3.5c11.945 1.334 32.054-3.311 42 4 1.883 1.384 4.28 6.935 6 8 6.725 4.165 20.046 3.965 27.5 12.5 2.672 3.059 4.585 10.561 5 11 1.166 1.235 9.357 2.613 14 9 22.309 30.694 21.088 160.996 5 195-4.031 8.52-10.364 9.209-14 14-4.336 5.714-5.787 15.59-13.5 20.5-10.321 6.571-35.065 6.761-47 5l-2.5 2.5C821.647 650.289 765.741 747.372 693 834M374 110c-.999.34-3.018-.344-4 0-44.341 15.54-101.79 59.058-133 94-52.576 58.862-73.467 106.962-82 186-8.855 82.022 1.134 169.28 47 240-3.324-2.149-1.455 1.5-1 2.5 2.52 5.534 4.584 12.043 7 17 .762 1.564 3.921 9.672 6 4.5.388 2.008 2.306 4.339 3 6a391 391 0 0 0 12 26c19.322 38.078 118.112 184.023 152.5 199 1.642.715 2.781 1.4 3.5-1 4.592 4.136 7.084 6.516 13 9 .155.065 1.28 3.335 3 1.5-.563-1.559-2.885-1.378-3-1.5-7.773-8.247-16.612-16.634-23-26h4c8.134 12.788 21.061 26.857 34.5 34 43.664 23.208 166.373 23.508 205.5-9-.52.586-1.015 1.969-2 2.5 1.614 2.599 15.286-7.872 18-9.5 48.226-28.923 135.853-156.084 161-209 2.685-5.649 8.424-16.22 10-21.5.366-1.228 2.16-3.734-.5-3.5-40.382 42.168-92.494 77.652-121.5 129.5-18.312 32.733-24.153 70.163-50 99-4.358 4.862-12.144 9.286-15 12.5 29.187-24.25 39.467-70.849 56-103.5 28.445-56.176 75.922-87.601 118-131 65.752-67.817 84.044-176.681 74-268.5-7.443-68.043-25.229-112.552-68-165-80.446-98.646-187.707-147.46-316.5-140-33.343 1.931-79.37 9.93-108.5 26M154 350c.069 6.819-.051 13.669 0 20.5 4.455-11.773 4.546-27.155 8-40 2.722-10.122 27.586-61.533 15.5-67.5-.74-.365-14.335-.158-16.5 0-3.85.28-14.419 1.042-16 5.5-.731 2.061 7.335 36.36 8 43 1.272 12.712.87 25.738 1 38.5m710 4c1.407 7.021.985 14.858 4 21.5.608-20.254-.964-41.889 1-62 .724-7.414 9.381-40.837 9-43-1.128-6.412-11.327-7.101-16-7.5-13.177-1.125-23.067-1.273-22 15.5.815 12.798 20.038 55.726 24 75.5m7-41c-2.641 24.467-.875 51.385 0 76-.537 11.713 1.846 23.438 3 35-1.657.863-1.878 2.873-2 4.5-1.946 26.013-2.417 77.672 8 101 3.422 7.664 3.252 8.709 11.5 8.5 9.699-.246 16.605-6.318 21.5-14 1.13-1.773 3.657-5.138 4-7 .806-4.378-5.986-7.299-9-12.5-3.113-5.371-4.304-11.628-6-17.5-4.764-16.5-6.768-33.862-8-51-2.499-34.769-3.615-86.321 8-119 1.538-4.328 3.067-8.329 5-12.5 3.301-7.123 7.61-2.913 4-12.5-3.195-8.486-8.388-9.969-16-13-3.689-1.469-9.288-5.567-13.5-4-4.312 1.605-9.883 32.286-10.5 38m-765 37c-1.427-6.373-5.638-25.284-14.5-23-7.892 2.034-11.823 35.737-12.5 43-.77 8.263-.82 18.559-1 27-.148 6.928-.236 14.078 0 21 .18 5.3.537 10.724 1 16 .246 2.8.658 5.289 1 8 1.018 8.06 1.896 12.229 4 20 1.615 5.965 2.273 11.738 6 17-3.511-1.432-3.39-4.42-6-6.5.812 14.9 4.576 20.98 13 32 .096.126-1.945 1.734-1 3 4.677 6.265 11.32 3.138 15-2 19.102-26.673 19.005-134.934 13-168-.897-4.938-7.237-28.245-10-31-.28-.279-7.105-2.479-7.5-2.5-13.648-.724-17.482 15.161-20.5 25.5 12.686-14.855 20.735 9.862 20 20.5m820 129c8.17-1.974 10.92-13.165 13-20 1.016-3.341 2.36-6.509 3-10 1.089-5.943 1.522-13.835 2-20 .635-8.196 1.05-18.769 1-27-.06-9.902-1.033-21.103-2-31-.127-1.304.15-2.702 0-4-.655-5.683-1.843-11.398-3-17-3.023-14.634-10.099-38.816-21-11-.306-9.039 6.893-19.03 16-11.5-1.049-13.96-15.673-33.937-28-17-18.817 25.856-14.659 165.251 3 193 13.132 20.636 25.363-11.899 28-24 1.045-4.797 1.862-10.055 2-15-3.899 5.819-5.797 18.797-14 14.5m-56.5 9L859 536.5l21.5 1.5zm-718 10c-1.994 13.487-2.151 27.472-9.5 39.5l18.5.5z"/><path fill="#fafcfc" d="M799 224c-56.797-52.522-123.487-104.711-202.5-116-5.621-3.161 7.551-8.096 8-10l-1-2C527.272 79.297 447.514 84.944 374 110c29.13-16.07 75.157-24.069 108.5-26 128.793-7.46 236.054 41.354 316.5 140"/><path fill="url(#a)" d="M799 224c42.771 52.448 60.557 96.957 68 165-16.358 8.768-17.713 27.215-23 42.5-.991 2.864-.24 5.071-4 3.5l-4-20c-1.298-93.441-84.501-194.879-165-235 2.521-2.149 1.924-.983 0-3.5-10.977-14.359-15.923-22.504-18.5-41.5-5.902-3.315-4.891 11.586-4.5 14.5 1.071 7.979 8.935 15.076 8 22.5-135.601-58.923-303.086-31.182-401 82l-18-50c31.21-34.942 88.659-78.46 133-94-.537 3.182 2.055 1.073 4 0 73.514-25.056 153.272-30.703 229.5-14l1 2c-.449 1.904-13.621 6.839-8 10 79.013 11.289 145.703 63.478 202.5 116M500 100c-9.799 9.006-5.027 26.338 8 29-1.985 3.319 9.032 2.13 9.5 2 2.772-.769 11.23-6.971 12.5-9.5 3.183-6.34.899-11.446 2.5-17.5l61.5 5.5c-19.422-6.483-42.203-4.862-61.5-8.5-9.638-1.817-24.313-15.397-32.5-1" style="fill:url(#a)"/>/&gt;<path fill="#f7fafa" d="M508 129c15.099 3.085 26.093-11.802 19-25.5-4.639-8.958-19.96-9.97-27-3.5 8.187-14.397 22.862-.817 32.5 1 19.297 3.638 42.078 2.017 61.5 8.5l-61.5-5.5c-1.601 6.054.683 11.16-2.5 17.5-1.27 2.529-9.728 8.731-12.5 9.5-.468.13-11.485 1.319-9.5-2"/><path fill="#1d4755" d="M508 129c-13.027-2.662-17.799-19.994-8-29 7.04-6.47 22.361-5.458 27 3.5 7.093 13.698-3.901 28.585-19 25.5m-2-31c-1.258.377-2.046 1.318-3 2-15.892 11.37 1.194 35.708 17.5 25 13.599-8.93 5.289-32.933-14.5-27"/><path fill="#92dce6" d="M503 100c-2.97 4.841-5.723 10.477-4 16.5.541 1.891 2.904.382 3 .5 3.19 3.927 7.863 10.941 13 4.5-3.304-4.97-8.273-4.058-13-6.5 0-9.545 10.582-14.261 17-7.5 5.393 5.681-8.338-1.631-.5 5.5 10.456-8.263-3.554-14.927-12.5-15 19.789-5.933 28.099 18.07 14.5 27-16.306 10.708-33.392-13.63-17.5-25"/><path fill="#5a94a2" d="M502 115v2c-.096-.118-2.459 1.391-3-.5-1.723-6.023 1.03-11.659 4-16.5.954-.682 1.742-1.623 3-2 8.946.073 22.956 6.737 12.5 15-7.838-7.131 5.893.181.5-5.5-6.418-6.761-17-2.045-17 7.5"/><path fill="#fafcfc" d="M374 110c-1.945 1.073-4.537 3.182-4 0 .982-.344 3.001.34 4 0"/><path fill="#b2f9fa" d="M502 117v-2c4.727 2.442 9.696 1.53 13 6.5-5.137 6.441-9.81-.573-13-4.5"/><path fill="#fbfcfc" d="M671 180c-4.74-2.362-10.494-6.042-15-8 .935-7.424-6.929-14.521-8-22.5-.391-2.914-1.402-17.815 4.5-14.5 2.577 18.996 7.523 27.141 18.5 41.5 1.924 2.517 2.521 1.351 0 3.5"/><path fill="#0a3747" d="M656 172c4.506 1.958 10.26 5.638 15 8 80.499 40.121 163.702 141.559 165 235 1.704 122.605-116.551 219.516-227 245-64.641 14.915-127.182 12.208-192 1-34.461-8.927-68.826-20.638-100-38-27.85-15.51-47.264-33.372-70-55-48.666-57.735-74.278-126.997-54-202.5 10.516-39.154 35.621-81.008 62-111.5 97.914-113.182 265.399-140.923 401-82m-199-22c-43.853 6.206-75.289 17.251-114 38-25.895 13.88-45.579 26.697-67 47-33.415 31.67-57.609 69.639-73 113-44.113 124.275 24.975 225.149 134 280 36.745 18.487 89.413 36.403 131 35l84 1c76.458 1.64 176.647-49.812 226-107 14.791-17.14 29.012-38.676 37-60 26.43-55.992 19.685-109.953-4-165-22.03-51.2-51.362-87.046-96-120-75.872-56.013-164.442-75.239-258-62"/><path fill="#99edf4" d="m715 212-5 10c-11.876-9.464-4.331-3.672-3-8.5 1.246-4.521-7.529-7.644-9 .5-12.439-7.133-24.809-14.267-38-20-.053-2.498.717-4.102-1.5-6-1.192-1.021-25.659-10.85-29-12-5.879-2.023-27.491-11.673-24.5-1-23.793-6.262-50.403-11.509-75-13-.209-2.357 1.105-3.384-1.5-5-5.581-3.463-58.844 1.292-68.5 3l-3-10c93.558-13.239 182.128 5.987 258 62m-176.5-60c-.805.361-2.369 4.06 0 5 8.132 3.227 6.543-7.938 0-5m16 1c-.394.181-2.019 4.162 0 5 9.654 4.006 6.691-8.081 0-5"/><path fill="#3cb5c6" d="m457 150 3 10c-3.783.669-7.621 1.741-11.5 2l2.5 4c-34.016 5.195-60.318 14.117-91 29-3.603 1.748-7.422 3.08-11 5l-6-12c38.711-20.749 70.147-31.794 114-38"/><path fill="#defdfe" d="M538.5 152c6.543-2.938 8.132 8.227 0 5-2.369-.94-.805-4.639 0-5"/><path fill="#f0feff" d="M554.5 153c6.691-3.081 9.654 9.006 0 5-2.019-.838-.394-4.819 0-5"/><path fill="#80d2df" d="M530 162c-14.739-.893-35.268-.907-50 0-9.604.591-19.488 2.547-29 4l-2.5-4c3.879-.259 7.717-1.331 11.5-2 9.656-1.708 62.919-6.463 68.5-3 2.605 1.616 1.291 2.643 1.5 5"/><path fill="#69dcf2" d="M480 162c-1.416 2.869 2.376 14.382 2 15.5-1.051 3.12-7.21-.507-7 3.5-17.348 1.748-34.082 4.978-51 9-21.372 5.08-42.188 11.46-62 21 5.888-5.727-.684-9.537-2-16 30.682-14.883 56.984-23.805 91-29 9.512-1.453 19.396-3.409 29-4"/><path fill="#b4f8fd" d="M530 162c24.597 1.491 51.207 6.738 75 13 18.447 4.855 37.522 11.405 55 19 13.191 5.733 25.561 12.867 38 20-.047.258.578 4.395 1 5-2.712-1.697-5.897-3-8.5-5l-7.5 11c-.25-.145-.749.144-1 0-18.792-10.764-35.564-17.84-56-25-10.942-3.834-21.678-8.238-33-11-26.591-6.487-53.565-9.845-81-10-10.696-.061-21.35.097-32 1-1.672.142-2.929.791-5 1-.21-4.007 5.949-.38 7-3.5.376-1.118-3.416-12.631-2-15.5 14.732-.907 35.261-.893 50 0m143.5 43c-5.117.77-4.547 12.118 4 9 5.933-2.164-.723-9.493-4-9"/><path fill="#82dce7" d="M660 194c-17.478-7.595-36.553-14.145-55-19-2.991-10.673 18.621-1.023 24.5 1 3.341 1.15 27.808 10.979 29 12 2.217 1.898 1.447 3.502 1.5 6"/><path fill="#267c98" d="m512 179-1 14c-9.836-.127-19.213.333-29 1l-2-14c10.65-.903 21.304-1.061 32-1"/><path fill="#3394b3" d="M593 189c1.281 6.464-5.18 7.3-6 13-25.133-5.623-50.171-8.666-76-9l1-14c27.435.155 54.409 3.513 81 10"/><path fill="#135d74" d="m480 180 2 14c-15.228 1.038-28.115 2.847-43 6-11.275-1.432-13.893 5.9-15-10 16.918-4.022 33.652-7.252 51-9 2.071-.209 3.328-.858 5-1"/><path fill="#0a8d9f" d="m343 188 6 12c-16.178 8.682-30.739 18.567-45 30-5.762 4.619-11.584 8.94-17 14-4.33 1.031-10.983-4.609-11-9 21.421-20.303 41.105-33.12 67-47"/><path fill="#267c98" d="M626 200c-3.482.189-7.729 7.565-6 11-10.607-3.686-22.022-6.544-33-9 .82-5.7 7.281-6.536 6-13 11.322 2.762 22.058 7.166 33 11"/><path fill="#0a4858" d="M424 190c1.107 15.9 3.725 8.568 15 10-170.717 36.163-298.604 235.113-114.5 352 102.895 65.328 243.567 68.887 351 12 151.15-80.035 138.408-242.262-.5-327l7-12c.251.144.75-.145 1 0 34.705 20.132 68.354 50.74 88 86 38.557 69.201 29.646 162.274-27 219-115.754 115.915-397.807 116.681-490-27-32.462-50.592-36.288-123.29-12-178 6.973-15.707 16.236-29.688 27-43 12.026-14.873 26.811-29.416 42-41 11.842-9.031 44.877-24.045 51-30 19.812-9.54 40.628-15.92 62-21"/><path fill="#78a2b2" d="M511 193c25.829.334 50.867 3.377 76 9 10.978 2.456 22.393 5.314 33 9 17.531 6.093 39.175 16.346 55 26 138.908 84.738 151.65 246.965.5 327-107.433 56.887-248.105 53.328-351-12C140.396 435.113 268.283 236.163 439 200c14.885-3.153 27.772-4.962 43-6 9.787-.667 19.164-1.127 29-1m-32 11c-69.293 3.335-139.125 38.286-185 90.5-11.089 12.621-32.674 42.702-35 59C240.393 483.861 384.843 564.93 497 568c118.428 3.242 276.36-69.173 265-208.5-4.601-56.434-70.579-107.83-118.5-129.5-27.284-12.338-60.774-22.176-90.5-24-25.893-5.483-47.775-6.273-74-2"/><path fill="#21bde6" d="M360 195c1.316 6.463 7.888 10.273 2 16-6.123 5.955-39.158 20.969-51 30l-7-11c14.261-11.433 28.822-21.318 45-30 3.578-1.92 7.397-3.252 11-5"/><path fill="#145f76" d="M626 200c20.436 7.16 37.208 14.236 56 25l-7 12c-15.825-9.654-37.469-19.907-55-26-1.729-3.435 2.518-10.811 6-11"/><path fill="url(#b)" d="M553 206c217.882 46.14 170.031 377.458-56 359-213.429-17.429-224.222-327.398-18-361 26.225-4.273 48.107-3.483 74 2m-143 63c-2.849.554-15.53 14.025-18 17-29.466-.245-48.649 55.743-32 77-2.379 20.766-2.696 42.596 3 63 38.94 139.482 237.423 150.06 292 15.5C715.996 291.115 529.697 161.971 410 269" style="fill:url(#b)"/>/&gt;<path fill="#cfe8f6" d="M479 204c-206.222 33.602-195.429 343.571 18 361v3c-112.157-3.07-256.607-84.139-238-214.5 2.326-16.298 23.911-46.379 35-59 45.875-52.214 115.707-87.165 185-90.5"/><path fill="#6e99a5" d="M255 254c-26.379 30.492-51.484 72.346-62 111.5-20.278 75.503 5.334 144.765 54 202.5-3.676-3.497-8.197-7.061-12-10.5 13.654 24.314 42.148 47.258 66.5 60.5 3.809 2.071 11.499 6.685 15.5 5 31.174 17.362 65.539 29.073 100 38-21.442-3.708-53.309-8.93-74-15-63.388-18.596-134.38-95.2-154-157.5-10.048-31.905-6.511-76.44-34-98.5 8.533-79.038 29.424-127.138 82-186z"/><path fill="#a3d0e4" d="M497 568v-3c226.031 18.458 273.882-312.86 56-359 29.726 1.824 63.216 11.662 90.5 24 47.921 21.67 113.899 73.066 118.5 129.5C773.36 498.827 615.428 571.242 497 568"/><path fill="#f2fefd" d="M673.5 205c3.277-.493 9.933 6.836 4 9-8.547 3.118-9.117-8.23-4-9"/><path fill="#91fdfe" d="M710 222c42.088 33.539 71.778 61.732 91 114 5.251 14.278 9.636 30.947 12 46 .239 1.52.797 2.482 1 4-1.701 1.644-2.604-.224-3-1.5-9.624-31.003-13.734-49.636-31-78.5-16.825-28.127-53.195-69.597-81-87-.422-.605-1.047-4.742-1-5 1.471-8.144 10.246-5.021 9-.5-1.331 4.828-8.876-.964 3 8.5"/><path fill="#49cddd" d="m811 332-10 4c-19.222-52.268-48.912-80.461-91-114l5-10c44.638 32.954 73.97 68.8 96 120"/><path fill="#69dcf2" d="M699 219c27.805 17.403 64.175 58.873 81 87l-9 5c-19.646-35.26-53.295-65.868-88-86l7.5-11c2.603 2 5.788 3.303 8.5 5"/><path fill="#029fd1" d="M311 241c-15.189 11.584-29.974 26.127-42 41-3.156-2.227-8.489-4.96-8-9 8.241-10.108 16.464-20.09 26-29 5.416-5.06 11.238-9.381 17-14z"/><path fill="url(#c)" d="M363 426c1.684-3.767 4.438-1.802 5-2l3.5 9c3.466.41 1.649-5.033 3.5-4.5.805.232 2.862 12.391 5 16 1.631 2.755 6.778 5.667 8 9.5-1.913 4.05 14.516 24.522 18.5 25 3.651.438 17.738-8.642 21.5-11 64.926 59.562 169.363 35.629 197-49.5 34.918-107.555-86.276-194.558-178-134.5-6.488-6.294-28.175-16.715-37-15 119.697-107.029 305.996 22.115 245 172.5-54.577 134.56-253.06 123.982-292-15.5" style="fill:url(#c)"/>/&gt;<path fill="#01657c" d="M287 244c-9.536 8.91-17.759 18.892-26 29-13.437 16.482-21.268 27.985-31 47-5.173 10.108-11.314 21.273-15 32l-12-4c15.391-43.361 39.585-81.33 73-113 .017 4.391 6.67 10.031 11 9"/><path fill="#b1d2da" d="M161 263c10.28 13.503 3.528 23.706 0 38.5l-7 48.5c-.13-12.762.272-25.788-1-38.5-.665-6.64-8.731-40.939-8-43 1.581-4.458 12.15-5.22 16-5.5"/><path fill="#75a2ae" d="m154 350 7-48.5c3.528-14.794 10.28-24.997 0-38.5 2.165-.158 15.76-.365 16.5 0 12.086 5.967-12.778 57.378-15.5 67.5-3.454 12.845-3.545 28.227-8 40-.051-6.831.069-13.681 0-20.5"/><path fill="#8bb5c0" d="M862 263c-11.809 13.036-2.862 22.787-1 36.5 1.911 14.077 5.725 36.513 5 50-.103 1.908.554 3.76-2 4.5-3.962-19.774-23.185-62.702-24-75.5-1.067-16.773 8.823-16.625 22-15.5"/><path fill="#bddbe2" d="M864 354c2.554-.74 1.897-2.592 2-4.5.725-13.487-3.089-35.923-5-50-1.862-13.713-10.809-23.464 1-36.5 4.673.399 14.872 1.088 16 7.5.381 2.163-8.276 35.586-9 43-1.964 20.111-.392 41.746-1 62-3.015-6.642-2.593-14.479-4-21.5"/><path fill="url(#d)" d="M428 468c-7.141-6.551-15.87-17.711-21-26-5.357-8.656-10.178-18.154-13-28 17.196-6.503 34.201-12.725 52-17.5-13.978.242-27.995.733-42 .5l102.5-9-116.5-1c-1.065.143-.816-.521-1-1-.668-1.743.476-6.701 0-9 5.471.806 14.387.007 20-1 9.375 4.461 23.224.169 33-1 7.983-.954 21.625 2.363 24-12.5 2.59-16.213-13.699-18.556-14-20-.119-.571 5.319-7.704 6-10 5.031-16.954 2.079-35.814-11-48.5 91.724-60.058 212.918 26.945 178 134.5-27.637 85.129-132.074 109.062-197 49.5m137.5-178c-24.821 3.393-35.674 36.706-16.5 53.5-6.149-1.84-16.479 1.348-18 8-4.655 20.362 31.59 18.385 22.5-3.5 55.184 27.76 70.092-65.94 12-58m-14 90c-8.71 2.332-7.549 17.101 1 19 16.701 3.71 17.386-23.923-1-19" style="fill:url(#d)"/>/&gt;<path fill="#c5e6f6" d="M447 284c13.079 12.686 16.031 31.546 11 48.5-.681 2.296-6.119 9.429-6 10 .301 1.444 16.59 3.787 14 20-2.375 14.863-16.017 11.546-24 12.5-12.999-14.5-9.376-6.197-21.5-2a76 76 0 0 1-11.5 3c-5.613 1.007-14.529 1.806-20 1-3.616-.533-13.441-4.242-17-6-4.564-2.255-8.194-5.741-12-9 3.376-26.703 14.643-55.091 32-76 2.47-2.975 15.151-16.446 18-17 8.825-1.715 30.512 8.706 37 15"/><path fill="#71a1ae" d="M139 273c9.156 9.965 10.787 29.65 12 43l-1.5 9-7.5-3c-1.416-7.993-7.682-38.522-14.5-42-2.627-1.34-3.346.109-5.5 1l-1-1c5.849-3.341 13.931-4.547 18-7"/><path fill="#0083b6" d="M269 282c-10.764 13.312-20.027 27.293-27 43-4.645 2.074-8.689-2.377-12-5 9.732-19.015 17.563-30.518 31-47-.489 4.04 4.844 6.773 8 9"/><path fill="#6f9fac" d="M895 279c-7.836 11.213-10.369 24.759-13 38-4.852.78-7.448-1.615-11-4 .617-5.714 6.188-36.395 10.5-38 4.212-1.567 9.811 2.531 13.5 4"/><path fill="#c3dfe5" d="M142 322c2.97 16.765 7.045 48.727 5 65-.437 3.478-.994 4.843-2 8-3.095 9.718-11.37 21.144-14 31.5-1.494 5.885.652 16.728-4 21.5 3.937-36.424 6.1-94.311-5-129 1.527-4.325 9.35 8.247 10 9.5 3.286 6.336 3.924 14.07 8 20 1.009-8.005-14.792-58.444-19.5-59.5-2.451-.55-6.884 2.851-9.5 3 1.124-3.536 7.663-9.619 11-11 2.154-.891 2.873-2.34 5.5-1 6.818 3.478 13.084 34.007 14.5 42"/><path fill="#cee6eb" d="M911 292c-15.054-10.648-16.731 16.716-20 26.5-3.345 10.011-9.648 19.199-9 31 6.445-10.341 7.549-26.869 20-32.5-11.615 32.679-10.499 84.231-8 119-1.994 3.982-2.745-1.454-3-2.5-3.631-14.891-9.644-25.476-13-37.5-.507-1.815-1.797-4.683-2-6-2.603-16.928 2.504-55.405 6-73 2.631-13.241 5.164-26.787 13-38 7.612 3.031 12.805 4.514 16 13"/><path fill="#fbfdff" d="M392 286c-17.357 20.909-28.624 49.297-32 76-.042.328.038.671 0 1-16.649-21.257 2.534-77.245 32-77"/><path fill="#fbfcfd" d="M122 319c-2.653-8.29-13.026-20.629-11-27 2.616-.149 7.049-3.55 9.5-3 4.708 1.056 20.509 51.495 19.5 59.5-4.076-5.93-4.714-13.664-8-20-.65-1.253-8.473-13.825-10-9.5"/><path fill="#fcfdfe" d="M911 292c3.61 9.587-.699 5.377-4 12.5-1.933 4.171-3.462 8.172-5 12.5-12.451 5.631-13.555 22.159-20 32.5-.648-11.801 5.655-20.989 9-31 3.269-9.784 4.946-37.148 20-26.5"/><path fill="#e2f5fb" d="M565.5 290c58.092-7.94 43.184 85.76-12 58 9.09 21.885-27.155 23.862-22.5 3.5 1.521-6.652 11.851-9.84 18-8-19.174-16.794-8.321-50.107 16.5-53.5"/><path fill="#127e95" d="M90 479c12.366 5.044 15.56-18.125 17-27 1.653-10.186 1.553-20.707 2-31 .119-2.739.942-4.588 1-7 .138-5.799-.904-11.258-1-17-.011-.661.016-1.339 0-2-.378-15.543.056-27.481-3-43-.12-.608.133-1.404 0-2 .735-10.638-7.314-35.355-20-20.5 3.018-10.339 6.852-26.224 20.5-25.5.395.021 7.22 2.221 7.5 2.5 2.763 2.755 9.103 26.062 10 31 6.005 33.066 6.102 141.327-13 168-3.68 5.138-10.323 8.265-15 2-.945-1.266 1.096-2.874 1-3-8.424-11.02-12.188-17.1-13-32 2.61 2.08 2.489 5.068 6 6.5"/><path fill="#147e95" d="M919 339c-1.96 5.002-2.071 10.834-3 16-.667 3.71-1.619 7.186-2 11-.763 7.642-1.337 15.294-1 23-2.7 12.11-.341 37.029 1 50 .134 1.301-.156 2.705 0 4 1.26 10.447 3.168 31.373 12 36 8.203 4.297 10.101-8.681 14-14.5-.138 4.945-.955 10.203-2 15-2.637 12.101-14.868 44.636-28 24-17.659-27.749-21.817-167.144-3-193 12.327-16.937 26.951 3.04 28 17-9.107-7.53-16.306 2.461-16 11.5"/><path fill="#28a7c8" d="M780 306c17.266 28.864 21.376 47.497 31 78.5.396 1.276 1.299 3.144 3 1.5 7.848 58.595-9.5 110.936-49 154-42.318 46.137-110.373 77.913-171 91 5.477-4.944.134-14.005 0-21 52.765-11.062 115.148-37.878 150-80 56.646-56.726 65.557-149.799 27-219z"/><path fill="#91b9c3" d="M882 317c-3.496 17.595-8.603 56.072-6 73h-2c-.375-4.34-.913-8.678-1.5-13 .026 3.842-1.332 8.331-1.5 12-.875-24.615-2.641-51.533 0-76 3.552 2.385 6.148 4.78 11 4"/><path fill="#90b9c3" d="m150 384-3 3c2.045-16.273-2.03-48.235-5-65l7.5 3 1.5-9c2.163 23.797.306 44.576-1 68"/><path fill="#026495" d="M242 325c-24.288 54.71-20.462 127.408 12 178 1.106 7.063 8.243 15.049 13 20.5 32.788 37.574 88.577 65.56 136 79.5l-4 20c-17.255-4.121-40.842-13.386-57-21-99.707-46.982-165.962-136.609-127-250 3.686-10.727 9.827-21.892 15-32 3.311 2.623 7.355 7.074 12 5"/><path fill="#40b5d6" d="M940 350c-3.025 1.527-6.163 3.159-9 5-7.314-6.198-7.024-4.581-15 0 .929-5.166 1.04-10.998 3-16 10.901-27.816 17.977-3.634 21 11"/><path fill="#04b8ed" d="M106 350c.133.596-.12 1.392 0 2-1.825.002-3.423 2.628-4 3-7.896 5.095-14.46 11.938-23 15 .677-7.263 4.608-40.966 12.5-43 8.862-2.284 13.073 16.627 14.5 23"/><path fill="#3cb5c6" d="M815 497c10.207-27.246 16.141-63.349 14-92.5-.2-2.727-2.142-22.22-3-23-1.513-1.375-10.514-.399-13 .5-2.364-15.053-6.749-31.722-12-46l10-4c23.685 55.047 30.43 109.008 4 165"/><path fill="#00435e" d="M215 352c-38.962 113.391 27.293 203.018 127 250-6.971 8.538-9.258 15.01-5 26-109.025-54.851-178.113-155.725-134-280Z"/><path fill="#a9f5fd" d="M931 355c-5.578 3.62-10.519 8.875-17 11 .381-3.814 1.333-7.29 2-11 7.976-4.581 7.686-6.198 15 0"/><path fill="#0bcbf3" d="M943 367c-7.041 2.737-22.454 10.101-27 16-1.453 1.885-2.023 1.616-3 6-.337-7.706.237-15.358 1-23 6.481-2.125 11.422-7.38 17-11 2.837-1.841 5.975-3.473 9-5 1.157 5.602 2.345 11.317 3 17"/><path fill="#17d9fa" d="M109 395c-6.82.698-13.492-.157-15-8 1.16-1.024 6.855-5.079 7-5.5 1.48-4.303-.208-20.795 1-26.5.577-.372 2.175-2.998 4-3 3.056 15.519 2.622 27.457 3 43"/><path fill="#a5f9ff" d="M102 355c-1.208 5.705.48 22.197-1 26.5-.145.421-5.84 4.476-7 5.5-3.608 3.186-11.256 8.497-16 10 .18-8.441.23-18.737 1-27 8.54-3.062 15.104-9.905 23-15"/><path fill="#4eabd2" d="M372 371c-4.592 16.644 3.676 14.491 17 15 .184.479-.065 1.143 1 1-2.256 4.416 1.94 8.475 2 9 .832 7.245-.63 8.823 2 18-8.396 3.175-17.059 6.849-26 10-.562.198-3.316-1.767-5 2-5.696-20.404-5.379-42.234-3-63 .038-.329-.042-.672 0-1 3.806 3.259 7.436 6.745 12 9"/><path fill="#30759e" d="M442 375c-9.776 1.169-23.625 5.461-33 1a76 76 0 0 0 11.5-3c12.124-4.197 8.501-12.5 21.5 2"/><path fill="#60f6fc" d="M943 367c.15 1.298-.127 2.696 0 4l-27.5 19 .5-7c4.546-5.899 19.959-13.263 27-16"/><path fill="#368fb9" d="M389 377c.476 2.299-.668 7.257 0 9-13.324-.509-21.592 1.644-17-15 3.559 1.758 13.384 5.467 17 6"/><path fill="#36ebfe" d="M943 371c.967 9.897 1.94 21.098 2 31-4.136 1.076-29.33 16.87-30 18.5-.865 2.104 3.885 15.412-1 18.5-1.341-12.971-3.7-37.89-1-50 .977-4.384 1.547-4.115 3-6l-.5 7z"/><path fill="#5c8892" d="M874 390c2.525 29.217 6.109 56.624 16 84.5 4.939 13.919 13.557 35.413 27 42.5-.343 1.862-2.87 5.227-4 7-4.555 1.584-9.417 1.522-13.5-1-13.659-8.438-23.796-81.936-25.5-99-1.154-11.562-3.537-23.287-3-35 .168-3.669 1.526-8.158 1.5-12 .587 4.322 1.125 8.66 1.5 13"/><path fill="#e5f5fb" d="M551.5 380c18.386-4.923 17.701 22.71 1 19-8.549-1.899-9.71-16.668-1-19"/><path fill="#0a8d9f" d="M815 497c-7.988 21.324-22.209 42.86-37 60-9.575 3.539-17.479 15.15-25.5 22-59.091 50.461-134.9 76.366-212 83 3.062.797 8.513 1.936 11.5 2l-84-1c.125-.004.741-1.953 1.5-2 3.25-.199 14.346 2.148 16 1 .364-.253 1.14-6.374 2.5-8.5 9.558-14.943 15.053-7.115 31.5-8.5 86.158-7.255 188.819-36.447 245.5-105 39.5-43.064 56.848-95.405 49-154-.203-1.518-.761-2.48-1-4 2.486-.899 11.487-1.875 13-.5.858.78 2.8 20.273 3 23 2.141 29.151-3.793 65.254-14 92.5"/><path fill="#6b96a0" d="M146 441c.413-8.246.517-17.363-1-25.5-5.63 34.386-12.017 78.454-39 102.5-1.815-7.664 3.658-5.87 7-11.5 4.313-7.265 5.919-14.495 8-22.5l24-89c1.006-3.157 1.563-4.522 2-8l3-3c-1.057 18.951-2.558 38.069-4 57"/><path fill="#5bf1fd" d="M109 395c.016.661-.011 1.339 0 2l-31 21c-.236-6.922-.148-14.072 0-21 4.744-1.503 12.392-6.814 16-10 1.508 7.843 8.18 8.698 15 8"/><path fill="#2882ad" d="M404 397c-4.067-.068-8.063.458-12-1-.06-.525-4.256-4.584-2-9l116.5 1z"/><path fill="url(#e)" d="M619 892c-39.127 32.508-161.836 32.208-205.5 9-13.439-7.143-26.366-21.212-34.5-34-21.686-34.093-28.293-73.988-54-109.5-33.293-45.993-94.749-83.941-123-127.5-45.866-70.72-55.855-157.978-47-240 27.489 22.06 23.952 66.595 34 98.5 19.62 62.3 90.612 138.904 154 157.5 60.606 28.526 132.42 36.076 199 32 139.304-8.527 286.166-91.949 298-243 3.76 1.571 3.009-.636 4-3.5 5.287-15.285 6.642-33.732 23-42.5 10.044 91.819-8.248 200.683-74 268.5-42.078 43.399-89.555 74.824-118 131-16.533 32.651-26.813 79.25-56 103.5m154.5-296c-.301.097-1.981 1.5-1 2 17.71-2.152 24.236 5.42 26 22 13.252 2.023 13.316-14.054 4-20-4.682-2.988-24.24-5.533-29-4m-547 1c-13.834 1.551-22.847 20.481-12 24 10.342 3.355 6.265-8.962 10.5-15.5 2.608-4.026 7.489-5.2 11-8-.483-.786-8.045-.663-9.5-.5m527 22c-24.378 1.364-30.953 45.421-6 49 38.024 5.454 36.934-50.731 6-49m-495 2c-20.343 2.841-21.911 46.669 3 50 39.062 5.223 29.481-54.536-3-50M567 875c30.47-28.503 31.531-75.258 6-107-54.918-68.277-166.565-18.602-151 68.5 7.326 40.997 61.239 72.593 100.5 65.5 15.411-2.784 33.987-15.625 44.5-27" style="fill:url(#e)"/>/&gt;<path fill="#77a3ad" d="M876 390c.203 1.317 1.493 4.185 2 6l24 91c1.696 5.872 2.887 12.129 6 17.5 3.014 5.201 9.806 8.122 9 12.5-13.443-7.087-22.061-28.581-27-42.5-9.891-27.876-13.475-55.283-16-84.5z"/><path fill="#87b0ba" d="M121 484c3.094-11.901 4.68-23.791 6-36 4.652-4.772 2.506-15.615 4-21.5 2.63-10.356 10.905-21.782 14-31.5z"/><path fill="#4687ab" d="M404 397c14.005.233 28.022-.258 42-.5-17.799 4.775-34.804 10.997-52 17.5-2.63-9.177-1.168-10.755-2-18 3.937 1.458 7.933.932 12 1"/><path fill="#94bcc5" d="M894 436c1.232 17.138 3.236 34.5 8 51l-24-91c3.356 12.024 9.369 22.609 13 37.5.255 1.046 1.006 6.482 3 2.5"/><path fill="#17e3fc" d="m110 414-31 20c-.463-5.276-.82-10.7-1-16l31-21c.096 5.742 1.138 11.201 1 17"/><path fill="#80f9ff" d="M945 402c.05 8.231-.365 18.804-1 27-6.358 3.37-21.063 12.691-25 18-4.134-2.822 2.19-6.389-5-4-.156-1.295.134-2.699 0-4 4.885-3.088.135-16.396 1-18.5.67-1.63 25.864-17.424 30-18.5"/><path fill="#a6f8fd" d="M110 414c-.058 2.412-.881 4.261-1 7-11.876 3.265-18.55 14.695-29 21-.342-2.711-.754-5.2-1-8z"/><path fill="#2f7dac" d="M407 442c-4.192 1.57-17.336 8.478-19 12-1.222-3.833-6.369-6.745-8-9.5-2.138-3.609-4.195-15.768-5-16-1.851-.533-.034 4.91-3.5 4.5l-3.5-9c8.941-3.151 17.604-6.825 26-10 2.822 9.846 7.643 19.344 13 28"/><path fill="#557f88" d="M146 441c-.099 1.975.168 4.036 0 6-1.064 12.465-13.502 72.44-24.5 77-3.824 1.586-7.547.889-11.5 1-1.284-1.998-3.455-4.697-4-7 26.983-24.046 33.37-68.114 39-102.5 1.517 8.137 1.413 17.254 1 25.5"/><path fill="#d9eaee" d="M840 435c-11.834 151.051-158.696 234.473-298 243-1.718-1.304-9.636-.892-5.5-5 1.857-1.844 44.308-4.586 52-6 5.64-1.037 17.029-2.902 20.5-7 110.449-25.484 228.704-122.395 227-245z"/><path fill="#bff1fc" d="M107 452c-12.23.018-10.698 10.502-23 10-2.104-7.771-2.982-11.94-4-20 10.45-6.305 17.124-17.735 29-21-.447 10.293-.347 20.814-2 31"/><path fill="#3d6671" d="M913 524c-4.895 7.682-11.801 13.754-21.5 14-8.248.209-8.078-.836-11.5-8.5-10.417-23.328-9.946-74.987-8-101 .122-1.627.343-3.637 2-4.5 1.704 17.064 11.841 90.562 25.5 99 4.083 2.522 8.945 2.584 13.5 1"/><path fill="#aef1fd" d="M944 429c-.478 6.165-.911 14.057-2 20l-24 5c-.166-.999-1.83-3.264-1-5.5.205-.552 1.007-.161 2-1.5 3.937-5.309 18.642-14.63 25-18"/><path fill="#236796" d="M407 442c5.13 8.289 13.859 19.449 21 26-3.762 2.358-17.849 11.438-21.5 11-3.984-.478-20.413-20.95-18.5-25 1.664-3.522 14.808-10.43 19-12"/><path fill="#08b6ef" d="M919 447c-.993 1.339-1.795.948-2 1.5-.83 2.236.834 4.501 1 5.5 2.028 12.19 10.937 3.842 21 5-2.08 6.835-4.83 18.026-13 20-8.832-4.627-10.74-25.553-12-36 7.19-2.389.866 1.178 5 4"/><path fill="#355c67" d="M110 525c3.953-.111 7.676.586 11.5-1 10.998-4.56 23.436-64.535 24.5-77l4 44.5c-.322 7.037-6.877 44.29-12.5 46.5-9.199 3.616-22.499-5.219-27.5-13"/><path fill="#5edcfb" d="M942 449c-.64 3.491-1.984 6.659-3 10-10.063-1.158-18.972 7.19-21-5z"/><path fill="#83e0f8" d="M107 452c-1.44 8.875-4.634 32.044-17 27-3.727-5.262-4.385-11.035-6-17 12.302.502 10.77-9.982 23-10"/><path fill="#5d8993" d="m869.5 488 11 50-21.5-1.5z"/><path fill="#4b7682" d="m151.5 498 9 40-18.5-.5c7.349-12.028 7.506-26.013 9.5-39.5"/><path fill="#e0f0f5" d="M744 530c-34.852 42.122-97.235 68.938-150 80-43.769 9.176-89.56 8.903-134 4-14.931-1.647-29.442-4.397-44-8-.573-.142-1.432.145-2 0a335 335 0 0 1-11-3c-47.423-13.94-103.212-41.926-136-79.5-4.757-5.451-11.894-13.437-13-20.5 92.193 143.681 374.246 142.915 490 27"/><path fill="#01657c" d="M468 663c-41.587 1.403-94.255-16.513-131-35-4.258-10.99-1.971-17.462 5-26 16.158 7.614 39.745 16.879 57 21 1.694.405 10.564 2.909 11 2.5l4-19.5c.568.145 1.427-.142 2 0-1.082 4.317-6.413 17.896-2.5 21 1.771 1.405 39.122 7.28 44.5 8 46.036 6.164 90.493 5.823 136-4 60.627-13.087 128.682-44.863 171-91-56.681 68.553-159.342 97.745-245.5 105-16.447 1.385-21.942-6.443-31.5 8.5-1.36 2.126-2.136 8.247-2.5 8.5-1.654 1.148-12.75-1.199-16-1-.759.047-1.375 1.996-1.5 2"/><path fill="#0e7986" d="M778 557c-49.353 57.188-149.542 108.64-226 107-2.987-.064-8.438-1.203-11.5-2 77.1-6.634 152.909-32.539 212-83 8.021-6.85 15.925-18.461 25.5-22"/><path fill="#466f7b" d="M247 568c22.736 21.628 42.15 39.49 70 55-4.001 1.685-11.691-2.929-15.5-5-24.352-13.242-52.846-36.186-66.5-60.5 3.803 3.439 8.324 7.003 12 10.5"/><path fill="#cee4eb" d="M773.5 596c4.76-1.533 24.318 1.012 29 4 9.316 5.946 9.252 22.023-4 20-1.764-16.58-8.29-24.152-26-22-.981-.5.699-1.903 1-2"/><path fill="#537a84" d="M226.5 597c1.455-.163 9.017-.286 9.5.5-3.511 2.8-8.392 3.974-11 8-4.235 6.538-.158 18.855-10.5 15.5-10.847-3.519-1.834-22.449 12-24"/><path fill="#0083b6" d="m414 606-4 19.5c-.436.409-9.306-2.095-11-2.5l4-20a335 335 0 0 0 11 3m46 8-2 21c-5.378-.72-42.729-6.595-44.5-8-3.913-3.104 1.418-16.683 2.5-21 14.558 3.603 29.069 6.353 44 8"/><path fill="#029fd1" d="M594 631c-45.507 9.823-89.964 10.164-136 4l2-21c44.44 4.903 90.231 5.176 134-4 .134 6.995 5.477 16.056 0 21"/><path fill="#0a3d4b" d="M753.5 619c30.934-1.731 32.024 54.454-6 49-24.953-3.579-18.378-47.636 6-49m-3 6c-1.3.211-9.675 4.37-9.5 5.5h4c-5.569 3.372-5.192 8.739-7 13-.483 1.138-3.354-.148-4 1-2.5 4.441 6.506 20.281 14.5 21.5 28.453 4.34 33.02-46.021 2-41"/><path fill="#13353e" d="M258.5 621c32.481-4.536 42.062 55.223 3 50-24.911-3.331-23.343-47.159-3-50"/><path fill="#59868d" d="M750.5 625c31.02-5.021 26.453 45.34-2 41-7.994-1.219-17-17.059-14.5-21.5.646-1.148 3.517.138 4-1 1.808-4.261 1.431-9.628 7-13h-4c-.175-1.13 8.2-5.289 9.5-5.5m-9.5 26c.552 2.388 5.254 7.48 7.5 8 18.606 4.304 24.629-28.184 7.5-29-11.215-.534-17.191 11.519-15 21"/><path fill="#062832" d="M202 630c28.251 43.559 89.707 81.507 123 127.5 25.707 35.512 32.314 75.407 54 109.5h-4c-25.639-37.59-29.394-76.547-62-117-17.479-21.686-37.868-39.823-58-59-.315-.3-.638-.656-1-1-.315-.299-.636-.655-1-1-12.9-12.228-25.604-24.749-38.5-37-3.226.098-.52 1.899-.5 2-2.079 5.172-5.238-2.936-6-4.5-2.416-4.957-4.48-11.466-7-17-.455-1-2.324-4.649 1-2.5"/><path fill="#04222a" d="m756 630-15 21c-2.191-9.481 3.785-21.534 15-21"/><path fill="#0f303a" d="m741 651 15-21c17.129.816 11.106 33.304-7.5 29-2.246-.52-6.948-5.612-7.5-8"/><path fill="#aacad3" d="M417 661c64.818 11.208 127.359 13.915 192-1-3.471 4.098-14.86 5.963-20.5 7-7.692 1.414-50.143 4.156-52 6-4.136 4.108 3.782 3.696 5.5 5-66.58 4.076-138.394-3.474-199-32 20.691 6.07 52.558 11.292 74 15"/><path fill="#e3f0f3" d="M796 676c-3.812-.938-1.765-1.069-3.5 1-26.717 31.868-66.34 55.271-92.5 89.5-29.093 38.068-33.351 83.458-65 118.5-2.714 1.628-16.386 12.099-18 9.5.985-.531 1.48-1.914 2-2.5 2.856-3.214 10.642-7.638 15-12.5 25.847-28.837 31.688-66.267 50-99 29.006-51.848 81.118-87.332 121.5-129.5 2.66-.234.866 2.272.5 3.5-1.576 5.28-7.315 15.851-10 21.5"/><path fill="#4d727b" d="m253 689-2.5 4c-12.049-10.067-22.632-21.698-33.5-33-.694-1.661-2.612-3.992-3-6-.02-.101-2.726-1.902.5-2 12.896 12.251 25.6 24.772 38.5 37"/><path fill="#64878f" d="M253 689c.364.345.685.701 1 1l-1.5 5 2.5-4c20.132 19.177 40.521 37.314 58 59-2.813 0-4.504 2.6-4 5-19.646-22.084-52.288-50.642-76-68.5-1.835-1.382-1.432-2.289-4-.5a391 391 0 0 1-12-26c10.868 11.302 21.451 22.933 33.5 33z"/><path fill="#6894a0" d="M796 676c-25.147 52.916-112.774 180.077-161 209 31.649-35.042 35.907-80.432 65-118.5 26.16-34.229 65.783-57.632 92.5-89.5 1.735-2.069-.312-1.938 3.5-1"/><path fill="#355e6a" d="M309 755c35.92 40.376 42.748 99.045 76 129-.719 2.4-1.858 1.715-3.5 1-34.388-14.977-133.178-160.922-152.5-199 2.568-1.789 2.165-.882 4 .5 23.712 17.858 56.354 46.416 76 68.5"/><path fill="#547982" d="m255 691-2.5 4 1.5-5c.362.344.685.7 1 1"/><path fill="#04222d" d="m573 768-2 1c-1.387-1.599-4.338-3.485-6-5-80.069-72.955-193.835 38.769-119.5 110 2.696 2.583 37.226 26.73 37.5 18.5l-1.5-1.5c-45.189-12.178-65.638-61.931-48.5-98.5 20.805-44.394 81.245-61.704 118-31.5-29.66-14.087-58.426-18.612-87 1-27.89 19.142-41.235 55.362-27 87 10.732 23.852 37.355 42.568 59.5 43 2.691 1.368-3.084 4.214-1 5 6.483 2.445 26.493-2.127 33-4 4.049 3.262-10.762 4.016-10.5 5.5l8.5-.5c14.548-5.016 29.178-12.409 40.5-23-10.513 11.375-29.089 24.216-44.5 27-39.261 7.093-93.174-24.503-100.5-65.5-15.565-87.102 96.082-136.777 151-68.5"/><path fill="#164453" d="M565 764c-2.367 8.128-9.364-.798-14-3-36.755-30.204-97.195-12.894-118 31.5-17.138 36.569 3.311 86.322 48.5 98.5l1.5 1.5c-.274 8.23-34.804-15.917-37.5-18.5-74.335-71.231 39.431-182.955 119.5-110"/><path fill="#29697a" d="M551 761c4.636 2.202 11.633 11.128 14 3 1.662 1.515 4.613 3.401 6 5 10.948 12.621 19.744 31.749 17 48.5l-9-23 4 16-14-2c7.359 48.268-38.445 80.764-83.5 66.5-16.422-5.199-34.849-23.885-38.5-41-.913-4.278-1.789-13.967-1-18 .377-1.927 1.607-3.674 4-3-.608 4.175-1.378 7.685-1 12 1.653 18.877 16.803 38.478 34.5 45 62.729 23.119 113.291-49.986 61.5-94-4.688-3.984-9.277-7.578-15-10 .592-10.933-6.966-11.995-16.5-13-22.326-2.354-28.955 3.994-47.5 10.5-3.56 1.249-.087-1.193-2-1.5 28.574-19.612 57.34-15.087 87-1"/><path fill="#7697a0" d="M313 750c32.606 40.453 36.361 79.41 62 117 6.388 9.366 15.227 17.753 23 26-5.916-2.484-8.408-4.864-13-9-33.252-29.955-40.08-88.624-76-129-.504-2.4 1.187-5 4-5"/><path fill="#287c90" d="M530 766c-35.069-14.841-81.774 5.455-86 45-.191 1.787.13 3.689 0 5.5l2-.5c-.789 4.033.087 13.722 1 18-6.689.824-2.3 12.955-10 15-14.235-31.638-.89-67.858 27-87 1.913.307-1.56 2.749 2 1.5 18.545-6.506 25.174-12.854 47.5-10.5 9.534 1.005 17.092 2.067 16.5 13"/><path fill="#2fb4d4" d="M530 766c5.723 2.422 10.312 6.016 15 10-4.909 3.047-11.052-5.135-16.5-7-29.622-10.141-65.323.694-78.5 30.5-1.596 3.61-.649 12.411-6 11.5 4.226-39.545 50.931-59.841 86-45"/><path fill="#1085b8" d="M545 776c51.791 44.014 1.229 117.119-61.5 94-17.697-6.522-32.847-26.123-34.5-45 5.995.724 3.608-11.71 5-16.5.341-1.173 3.652-9.462 5.5-8.5-1.894 11.666 5.835 23.566 10.5 34 4.165 9.315 6.435 21.672 17 27 2.497 11.077 28.93 13.928 33 5.5 5.92-12.258-9.074-21.637-20-21.5.746-1.768-1.062-3.285-1-4 .823-9.414 37.391-16.648 45.5-22 16.457-10.861 12.1-28.687-2-39-5.614-4.106-5.686-.817-6-1-.348-.203-2.247-4.187-4-5-33.911-15.734-76.814-.073-82.5 39-2.393-.674-3.623 1.073-4 3l-2 .5c.13-1.811-.191-3.713 0-5.5 5.351.911 4.404-7.89 6-11.5 13.177-29.806 48.878-40.641 78.5-30.5 5.448 1.865 11.591 10.047 16.5 7"/><path fill="#4adef9" d="M499 841c-10.331.281-19.486-3.656-29-7-4.665-10.434-12.394-22.334-10.5-34-1.848-.962-5.159 7.327-5.5 8.5-1.392 4.79.995 17.224-5 16.5-.378-4.315.392-7.825 1-12 5.686-39.073 48.589-54.734 82.5-39 1.753.813 3.652 4.797 4 5 .314.183.386-3.106 6 1 14.1 10.313 18.457 28.139 2 39-8.109 5.352-44.677 12.586-45.5 22m12.5-70c-.792-.052-13.653.746-15 1-26.966 5.093 5.054 46.44 18 13 4.899 4.538 19.342 17.141 24.5 7.5 6.208-11.605-4.891-10.673-7.5-12.5-.262-.184.654-3.082-4-5-2.866-1.181-13.075-3.808-16-4m-35 23c-6.676 6.934-6.992 17.001-10.5 25.5 14.397 14.398 17.235-25.609 10.5-25.5"/><path fill="#225363" d="M567 875c-11.322 10.591-25.952 17.984-40.5 23l-8.5.5c-.262-1.484 14.549-2.238 10.5-5.5-6.507 1.873-26.517 6.445-33 4-2.084-.786 3.691-3.632 1-5-22.145-.432-48.768-19.148-59.5-43 7.7-2.045 3.311-14.176 10-15 3.651 17.115 22.078 35.801 38.5 41 45.055 14.264 90.859-18.232 83.5-66.5l14 2-4-16 9 23c2.744-16.751-6.052-35.879-17-48.5l2-1c25.531 31.742 24.47 78.497-6 107"/><path fill="#96fcff" d="M511.5 771c2.925.192 13.134 2.819 16 4 4.654 1.918 3.738 4.816 4 5 2.609 1.827 13.708.895 7.5 12.5-5.158 9.641-19.601-2.962-24.5-7.5-12.946 33.44-44.966-7.907-18-13 1.347-.254 14.208-1.052 15-1"/><path fill="#6ceffd" d="M476.5 794c6.735-.109 3.897 39.898-10.5 25.5 3.508-8.499 3.824-18.566 10.5-25.5"/><path fill="#1fa9d7" d="M499 841c-.062.715 1.746 2.232 1 4-10.273.129-15.425 5.241-13 16-10.565-5.328-12.835-17.685-17-27 9.514 3.344 18.669 7.281 29 7"/><path fill="#72c5e8" d="M500 845c10.926-.137 25.92 9.242 20 21.5-4.07 8.428-30.503 5.577-33-5.5-2.425-10.759 2.727-15.871 13-16"/><path fill="#608590" d="M398 893c.115.122 2.437-.059 3 1.5-1.72 1.835-2.845-1.435-3-1.5"/></svg>