<svg xmlns="http://www.w3.org/2000/svg" width="1024" height="1024"><defs><linearGradient id="a" x1="716.044" x2="295.803" y1="385.502" y2="734.09" gradientUnits="userSpaceOnUse"><stop offset="0%" style="stop-color:#78bed9"/><stop offset="26.374%" style="stop-color:#2aadc9"/><stop offset="100%" style="stop-color:#16516c"/></linearGradient></defs><defs><linearGradient id="b" x1="570.691" x2="550.28" y1="485.149" y2="655.934" gradientUnits="userSpaceOnUse"><stop offset="0%" style="stop-color:#3d696c"/><stop offset="100%" style="stop-color:#0b0d13"/></linearGradient></defs><defs><linearGradient id="c" x1="444.515" x2="554.963" y1="502.647" y2="626.571" gradientUnits="userSpaceOnUse"><stop offset="0%" style="stop-color:#12e3fe"/><stop offset="100%" style="stop-color:#0d7aa6"/></linearGradient></defs><defs><linearGradient id="d" x1="137.578" x2="248.867" y1="554.904" y2="692.541" gradientUnits="userSpaceOnUse"><stop offset="0%" style="stop-color:#32829b"/><stop offset="100%" style="stop-color:#074968"/></linearGradient></defs><defs><linearGradient id="e" x1="879.682" x2="773.462" y1="554.944" y2="696.529" gradientUnits="userSpaceOnUse"><stop offset="0%" style="stop-color:#34849c"/><stop offset="100%" style="stop-color:#074a69"/></linearGradient></defs><defs><linearGradient id="f" x1="562.651" x2="363.446" y1="634.424" y2="751.378" gradientUnits="userSpaceOnUse"><stop offset="0%" style="stop-color:#89a9b9"/><stop offset="100%" style="stop-color:#63879b"/></linearGradient></defs><defs><linearGradient id="g" x1="609.274" x2="559.348" y1="538.453" y2="743.461" gradientUnits="userSpaceOnUse"><stop offset="0%" style="stop-color:#dbe5ea"/><stop offset="100%" style="stop-color:#acbec7"/></linearGradient></defs><path fill="#053859" d="M711 873c6.349-6.144 16.514-18.295 20-26.5 2.402-5.654 8.132-25.018 2-28.5.08-8.326-7.016-28.79-12-35.5-1.639-2.206-2.99-3.835-6-2.5 2.66-3.031 4.832-1.689 3-7 3.166-2.927 5.972-6.891 9-10 149.074-153.076 97.334-411.185-102-490-69.294-27.398-142.08-28.167-213-5-110.051 35.95-189.641 132.601-203 248-10.275 88.756 17.9 175.533 78 241l.5 5c-3.537-4.3-11.456-13.502-16-16-4.855-2.669-18.192-4.01-23-6-12.699-5.256-24.93-13.003-37-18-.124-.052-3.463-.922-2.5 1-37.808-21.258-70.359-52.903-83-95.5-17.008-57.312-8.161-128.252 25-178-20.831-21.962-34.499-50.195-46-78-2.653-6.414-10.729-36.35-13-39-1.283-1.497-24.034-8.806-31.5-15.5-24.062-21.575-25.038-60.341-4.5-84.5 43.519-51.19 135.683-5.007 99 70-1.354 2.768-8.455 9.505-9 11-9.044 24.796 19.137 85.835 46.5 94.5 12.734-9.573 25.349-19.731 39-28 9.185-5.564 24.702-10.117 32-15 9.558-6.394 29.003-31.726 41-42 49.307-42.226 113.94-71.519 179-77 4.329-2.334 3.733-28.66 2.5-33.5-2.735-10.741-15.647-13.613-23-22-45.119-51.46 20.437-125.639 80.5-89.5 33.965 20.436 38.008 69.224 8 95-3.801 3.265-16.016 8.891-17.5 11.5-3.667 6.447-3.843 28.73-7 37 90.336 4.573 155.833 43.279 218 105 19.929 19.786 22.105 17.297 44.5 31.5 12.831 8.137 25.037 17.644 37 27 25.048-11.007 43.732-45.438 47.5-71.5 4.204-29.078-7.516-24.194-15-45-10.866-30.209 3.806-65.243 34.5-76.5 74.064-27.163 121.28 76.616 49 112-2.507 1.227-12.089 2.479-13 3-3.281 1.875-11 31.304-13.5 37.5-11.806 29.253-26.064 59.06-48 82 42.777 61.126 47.806 164.731 1 225-16.592 21.364-46.201 43.841-70.5 55.5-13.912 6.676-41.224 12.616-52 19-6.581 3.899-17.663 21.611-25.5 26.5 20.741 31.882 24.974 74.117-10 97.5M501 97c-7.782 1.14-14.287 4.012-21 8-33.238 19.747-36.353 66.143-3.5 88 42.516 28.286 100.011-6.743 87.5-58-6.938-28.428-35.178-42.078-63-38m-5 148c4.391.222 9.616.241 14 0 3.444-.189 5.541-.152 9-1 .821-.201 1.546 1.67 2.5 1 2.15-1.51 7.323-27.993 7.5-32 .082-1.855 1.599-2.691.5-4-9.985 2.203-19.373 2.326-29.5 1-4.96-.65-9.123-2.812-14-3.5 4.175 12.07 3.944 25.629 2 38 .652.982 6.42.42 8 .5M80 222c-58.87 26.389-33.05 110.496 31 101 34.426-5.104 54.246-40.759 43-73-11.028-31.618-44.617-41.171-74-28m827-5c-8.949 1.301-15.525 4.143-23 9-51.842 33.684-10.187 111.612 50.5 95 12.25-3.353 32.027-20.166 34.5-33 15.092-42.235-18.815-77.277-62-71M116 332c-5.809.091-11.547 2.697-17.5 2-.96.532 1.46 3.79 1.5 4 1.518 7.855 4.392 13.682 7 21 6.737 18.901 14.244 36.434 24 54 4.091 7.367 6.804 13.058 12 20 3.347 4.473 6.047 9.4 10.5 13 2.109.215 6.086-5.559 7.5-7 6.168-6.289 11.565-13.828 18-20 1.483-1.423 3.473-2.561 5-4 .974-.918 6.04-4.127 6-4.5-28.846-13.452-45.674-47.86-48-78.5-.09-1.185 3.054-11.01-.5-12-6.769 6.206-17.491 6.436-25.5 12m761 8c-4.252 26.752-22.285 59.306-48 70.5-.01.416 6.55 4.1 7 4.5 1.253 1.113 2.643 2.727 4 4 6.74 6.324 12.834 13.151 19 20 .803.892 3.395 7.835 5.5 8 11.911-10.335 19.105-25.19 26.5-39 8.865-16.554 17.798-35.31 24-53 1.609-4.591 3.995-11.422 5-16 .505-2.299 2.765-4.387.5-6-10.061 2.352-21.317-2.303-30.5-6-4.742-1.909-7.718-4.935-12.5-6-.026 6.862.613 11.995-.5 19m-652 51c-24.158 14.091-36.464 25.416-55 46-9.168 10.181-19.999 19.662-25 33-4.986 8.848-9.183 20.256-12 30-23.491 81.25-8.205 162.958 66 210 19.409 12.304 43.369 22.654 65 28.5.748-1.358-16.475-19.129-18-21.5-27.285-42.426-44.27-109.833-46-160-.53-15.356.35-30.758 2-46 .974-8.997 2.223-18.139 4-27 1.994-9.946 4.915-21.336 8-31 8.262-25.878 22.629-52.209 38-74.5.05-2.477-1.561-1.417-3-1-5.189 1.503-18.527 10.308-24 13.5m581 63c2.906 9.113 6.159 19.666 8 29 1.789 9.071 3.023 18.796 4 28 1.549 14.594 2.476 32.345 2 47-1.827 56.296-20.745 113.919-51 161-4.595 7.151-9.488 14.016-15 20.5 29.173-8.312 57.799-22.369 82-41.5 65.808-52.021 73.942-138.591 45-214-9.302-24.237-19.463-34.863-37-53-17.367-17.961-28.322-27.224-50-40-5.352-3.154-17.272-11.422-22.5-13-1.417-.428-3.523-2.188-3.5.5 15.955 22.881 29.503 48.851 38 75.5"/><path fill="#36b8cf" d="M564 135c-2.078 2.088-.619 6.311-1 9-3.942 27.803-46.25 40.001-64 16.5-14.528-19.236-2.378-43.868 17-54-5.126-1.373-9.957-.322-15 .5V97c27.822-4.078 56.062 9.572 63 38m-32.5-26c-17.119.868-12.297 27.745 6 26 16.875-1.609 11.175-26.871-6-26m23 24c-.72.021-3.351 2.661-3.5 3.5.098 3.209 2.282 7.661 5 4-8.274-6.999.833-3.582 1-4 .839-2.104.306-3.58-2.5-3.5"/><path fill="#1b9dc7" d="M501 97v10c-4.327.705-5.386 1.549-9 3-2.105.845-7.414 2.926-9 4l-3-9c6.713-3.988 13.218-6.86 21-8"/><path fill="#0982c0" d="M483 114c-25.478 17.255-26.883 54.392-3.5 74 25.01 20.972 62.085 13.21 76.5-16 5.636-7.035 10.003-19.314 7-28 .381-2.689-1.078-6.912 1-9 12.511 51.257-44.984 86.286-87.5 58-32.853-21.857-29.738-68.253 3.5-88z"/><path fill="#227893" d="M563 144c3.003 8.686-1.364 20.965-7 28-15.301 19.099-46.045 22.575-64.5 6-20.022-17.983-16.425-49.33.5-68 3.614-1.451 4.673-2.295 9-3 5.043-.822 9.874-1.873 15-.5-19.378 10.132-31.528 34.764-17 54 17.75 23.501 60.058 11.303 64-16.5"/><path fill="#fcfeff" d="M531.5 109c17.175-.871 22.875 24.391 6 26-18.297 1.745-23.119-25.132-6-26"/><path fill="#154c6a" d="M492 110c-16.925 18.67-20.522 50.017-.5 68 18.455 16.575 49.199 13.099 64.5-6-14.415 29.21-51.49 36.972-76.5 16-23.383-19.608-21.978-56.745 3.5-74 1.586-1.074 6.895-3.155 9-4"/><path fill="#e1f2f9" d="M554.5 133c2.806-.08 3.339 1.396 2.5 3.5-.167.418-9.274-2.999-1 4-2.718 3.661-4.902-.791-5-4 .149-.839 2.78-3.479 3.5-3.5"/><path fill="#116080" d="M500 210c1.06 4.661-3.323 2.183-4 3.5-1.346 2.617.677 26.232 0 31.5-1.58-.08-7.348.482-8-.5 1.944-12.371 2.175-25.93-2-38 4.877.688 9.04 2.85 14 3.5"/><path fill="#137091" d="M529 213c-2.658.616-5.303.718-8 1-.972.102-9.985.282-10 1.5 4.475 7.766 1.619 20.693-1 29.5-4.384.241-9.609.222-14 0 .677-5.268-1.346-28.883 0-31.5.677-1.317 5.06 1.161 4-3.5 10.127 1.326 19.515 1.203 29.5-1 1.099 1.309-.418 2.145-.5 4"/><path fill="#5cbdcd" d="M529 213c-.177 4.007-5.35 30.49-7.5 32-.954.67-1.679-1.201-2.5-1 3.998-9.522 3.324-19.958 2-30 2.697-.282 5.342-.384 8-1"/><path fill="#39a1b9" d="M521 214c1.324 10.042 1.998 20.478-2 30-3.459.848-5.556.811-9 1 2.619-8.807 5.475-21.734 1-29.5.015-1.218 9.028-1.398 10-1.5"/><path fill="#37b8cf" d="M154 250c4.743 34.154-43.613 55.714-64 27.5-12.47-17.257-4.942-41.043 12-52-1.337-2.199-18.393 4.158-21 5.5l-1-9c29.383-13.171 62.972-3.618 74 28m-37.5-24c-18.048 3.653-4.77 32.985 14 22 12.981-7.597.328-24.9-14-22m28 19c-8.391-.401 1.283 20.46 2.5.5-.574-.856-1.557-.455-2.5-.5M969 288c.067-.347-.163-6.539-1-7 .995-3.047 3.54-9.005 1.5-12-33.237 64.025-109.915-9.611-42.5-42.5-6.47-2.455-12.434-1.515-19-.5l-1-9c43.185-6.277 77.092 28.765 62 71m-30.5-57c-13.603 2.607-7.992 25.393 6 26 20.396.885 14.098-29.851-6-26m24 26c-4.275 2.777-7.101 5.618-2 10 3.706-2.489-1.142-3.864-.5-5.5.145-.369 7.358 1.051 2.5-4.5"/><path fill="#1c9dc6" d="m907 217 1 9c-.944.146-2.104-.207-3 0-4.153.96-14.479 6.344-18 9l-3-9c7.475-4.857 14.051-7.699 23-9"/><path fill="#0c84c1" d="m80 222 1 9c-2.153 1.108-2.773 2.146-4 3-44.775 31.141-9.526 98.417 43 84-1.669 4.101-8.896.91-9 5-64.05 9.496-89.87-74.611-31-101"/><path fill="#227893" d="M154 250c11.246 32.241-8.574 67.896-43 73 .104-4.09 7.331-.899 9-5 14.367-3.943 29.593-19.711 33-34.5-5.209 3.887-8.086 10.552-13.5 14.5-42.803 31.214-89.735-22.528-62.5-64 1.227-.854 1.847-1.892 4-3 2.607-1.342 19.663-7.699 21-5.5-16.942 10.957-24.47 34.743-12 52 20.387 28.214 68.743 6.654 64-27.5"/><path fill="#227792" d="M968 281c-2.418 7.402-4.625 9.248-9 15-52.634 40.791-103.766-28.866-54-70 .896-.207 2.056.146 3 0 6.566-1.015 12.53-1.955 19 .5-67.415 32.889 9.263 106.525 42.5 42.5 2.04 2.995-.505 8.953-1.5 12"/><path fill="#fdfeff" d="M116.5 226c14.328-2.9 26.981 14.403 14 22-18.77 10.985-32.048-18.347-14-22"/><path fill="#0880c0" d="M887 235c-53.579 40.403 22.951 125.489 72 61 4.375-5.752 6.582-7.598 9-15 .837.461 1.067 6.653 1 7-2.473 12.834-22.25 29.647-34.5 33-60.687 16.612-102.342-61.316-50.5-95z"/><path fill="#154c6a" d="M959 296c-49.049 64.489-125.579-20.597-72-61 3.521-2.656 13.847-8.04 18-9-49.766 41.134 1.366 110.791 54 70"/><path fill="#fcfefe" d="M938.5 231c20.098-3.851 26.396 26.885 6 26-13.992-.607-19.603-23.393-6-26"/><path fill="#154d6a" d="M120 318c-52.526 14.417-87.775-52.859-43-84-27.235 41.472 19.697 95.214 62.5 64 5.414-3.948 8.291-10.613 13.5-14.5-3.407 14.789-18.633 30.557-33 34.5"/><path fill="#b9e7ef" d="M144.5 245c.943.045 1.926-.356 2.5.5-1.217 19.96-10.891-.901-2.5-.5m-1 4c-1.277.072-.068 5.22.5 1.5.174-.624-.012-1.527-.5-1.5"/><path fill="#1692bb" d="M143.5 249c.488-.027.674.876.5 1.5-.568 3.72-1.777-1.428-.5-1.5"/><path fill="#71d1e7" d="m625 273-6 12c-69.635-28.386-142.875-29.973-213-3 7.511-6.686 8.979-2.348 6-14 70.92-23.167 143.706-22.398 213 5"/><path fill="#daf7fa" d="M962.5 257c4.858 5.551-2.355 4.131-2.5 4.5-.642 1.636 4.206 3.011.5 5.5-5.101-4.382-2.275-7.223 2-10"/><path fill="#fafdfe" d="M619 285c123.979 50.539 203.172 182.543 185 316.5-.052.385-.975 6.982-3 4.5 33.269-230.156-217.105-416.67-427-308 9.039-7.27 21.173-11.836 32-16 70.125-26.973 143.365-25.386 213 3"/><path fill="url(#a)" d="M801 606c-7.886 54.553-39.66 110.1-78 149-45.397 46.06-106.03 80.638-171 88-189.158 21.435-360.651-131.73-333-326 12.768-89.707 74.601-177.375 155-219 209.895-108.67 460.269 77.844 427 308M470 293c-220.67 31.9-304.121 314.767-127.5 456C537.904 905.252 834.961 727.82 765 479c-24.598-87.484-99.571-156.624-187-180-35.221-9.417-71.893-11.22-108-6" style="fill:url(#a)"/>/&gt;<path fill="#28b0d0" d="M406 282c-10.827 4.164-22.961 8.73-32 16-80.399 41.625-142.232 129.293-155 219l-10-1c13.359-115.399 92.949-212.05 203-248 2.979 11.652 1.511 7.314-6 14"/><path fill="#a1e5f6" d="m727 763-4-8c38.34-38.9 70.114-94.447 78-149 2.025 2.482 2.948-4.115 3-4.5 18.172-133.957-61.021-265.961-185-316.5l6-12c199.334 78.815 251.074 336.924 102 490"/><path fill="#3488a4" d="m578 299-3 15c-16.917-4.541-31.546-6.839-49-8-19.486-1.297-36.75-.934-56 2v-15c36.107-5.22 72.779-3.417 108 6"/><path fill="#106381" d="M470 293v15c-192.691 29.367-280.853 277.682-136.5 416C503.636 887.023 800.839 744.407 753 500c-.99-5.057-2.663-10.037-4-15l16-6c69.961 248.82-227.096 426.252-422.5 270C165.879 607.767 249.33 324.9 470 293"/><path fill="#64a3be" d="m765 479-16 6c-22.292-82.764-91.572-148.875-174-171l3-15c87.429 23.376 162.402 92.516 187 180"/><path fill="#0a3b57" d="m526 306-.5 12c8.28.24 17.893.608 26 2 1.2.206 6.172.948 5.5 3-101.947-18.05-211.104 26.453-259 120-22.688 29.529-30.626 92.892-28 129 17.397 239.205 355.886 299.771 459 75 11.77-25.656 20.113-50.43 22-79 .455-6.882.142-15.012 0-22-.335-16.536-2.041-32.936-6-49 5.297-.978 4.64.765 8 3 47.839 244.407-249.364 387.023-419.5 224C189.147 585.682 277.309 337.367 470 308c19.25-2.934 36.514-3.297 56-2"/><path fill="#4b6e83" d="M575 314c82.428 22.125 151.708 88.236 174 171 1.337 4.963 3.01 9.943 4 15-3.36-2.235-2.703-3.978-8-3-1.002-4.066-3.541-10.554-5-15-26.654-81.214-98.627-144.062-183-159 .672-2.052-4.3-2.794-5.5-3-8.107-1.392-17.72-1.76-26-2l.5-12c17.454 1.161 32.083 3.459 49 8"/><path fill="#8599a5" d="M557 323c84.373 14.938 156.346 77.786 183 159-19.065-33.139-38.464-64.463-67.5-90-70.214-61.752-173.181-75.455-259-39-35.903 15.251-67.117 42.26-93 68-5.891 5.859-18.057 16.217-22.5 22 47.896-93.547 157.053-138.05 259-120"/><path fill="#0a5575" d="M142 332c-6.325-2.165-3.458 10.314-3 13.5 3.645 25.375 22.467 56.653 45 69.5-1.527 1.439-3.517 2.577-5 4-27.212-22.999-43.668-54.576-45-90.5-2.423-2.592-14.655 7.74-15.5 7.5-2.236-.634 3.788-4.098-2.5-4 8.009-5.564 18.731-5.794 25.5-12 3.554.99.41 10.815.5 12"/><path fill="#105b7a" d="M890 327c.169 4.222-2.901-.118-4 1.5-.854 1.258-3.535 24.93-5 30-6.912 23.92-22.291 44.588-41 60.5-1.357-1.273-2.747-2.887-4-4 19.669-12.529 38.721-40.609 43-63.5.659-3.527 2.784-10.619-2-11.5 1.113-7.005.474-12.138.5-19 4.782 1.065 7.758 4.091 12.5 6"/><path fill="#166f8e" d="m920 339-18-2.5c1.696 23.047-13.61 55.035-25 75.5-5.227 9.391-12.562 17.73-18 27-6.166-6.849-12.26-13.676-19-20 18.709-15.912 34.088-36.58 41-60.5 1.465-5.07 4.146-28.742 5-30 1.099-1.618 4.169 2.722 4-1.5 9.183 3.697 20.439 8.352 30.5 6 2.265 1.613.005 3.701-.5 6"/><path fill="#166d8d" d="M179 419c-6.435 6.172-11.832 13.711-18 20-6.107-8.477-12.831-16.896-18-26-12.249-21.573-26.173-51.925-27-76.5l-16 1.5c-.04-.21-2.46-3.468-1.5-4 5.953.697 11.691-1.909 17.5-2 6.288-.098.264 3.366 2.5 4 .845.24 13.077-10.092 15.5-7.5 1.332 35.924 17.788 67.501 45 90.5"/><path fill="#116b8b" d="M142 332c2.326 30.64 19.154 65.048 48 78.5.04.373-5.026 3.582-6 4.5-22.533-12.847-41.355-44.125-45-69.5-.458-3.186-3.325-15.665 3-13.5"/><path fill="#b2d6e3" d="M740 482c1.459 4.446 3.998 10.934 5 15 3.959 16.064 5.665 32.464 6 49-15.966-8.348-32.555-16.805-49.5-23-8.442-3.086-21.256-7.942-29.5-7-13.562-70.87-71.661-124.308-143-133-34.67-4.224-62.687-.237-94 15-5.619 2.734-11.764 5.62-17 9-11.679-3.337-21.641 12.689-33 12 .485-4.141-.095-8.259-2-12-8.423-16.546-43.533-7.923-37 16-8.626 2.414-17.608 14.14-23 21.5-9.081 12.394-16.439 26.526-20 41.5-.378.555-2.112 4.281-2 4.5 13.006-10.615 25.868-21.761 41-30.5 10.924-6.309 27.389-11.171 37-18-11.824 17.311-24.613 35.797-31 56-22.659 11.31-40.923 28.835-57 48-6.423 7.656-12.639 15.543-18 24-1.289.431-1.71 1.686-3 2-2.626-36.108 5.312-99.471 28-129 4.443-5.783 16.609-16.141 22.5-22 25.883-25.74 57.097-52.749 93-68 85.819-36.455 188.786-22.752 259 39 29.036 25.537 48.435 56.861 67.5 90m-97.5-74c-18.504 3.441-14.739 34.633 8 31 19.501-3.116 15.249-35.323-8-31"/><path fill="#3ca2ba" d="M143 413c-10.018.115.02 14.921 4 18.5l-4 1.5c-5.196-6.942-7.909-12.633-12-20l4-1.5-28-52.5c-2.608-7.318-5.482-13.145-7-21l16-1.5c.827 24.575 14.751 54.927 27 76.5"/><path fill="#3aa2b9" d="M920 339c-1.005 4.578-3.391 11.409-5 16l-2-9.5c-4.138 24.849-18.615 46.021-29 68.5-6.353 2.846.387-1.502-7-2 11.39-20.465 26.696-52.453 25-75.5z"/><path fill="#136f90" d="M836 415c-.45-.4-7.01-4.084-7-4.5 25.715-11.194 43.748-43.748 48-70.5 4.784.881 2.659 7.973 2 11.5-4.279 22.891-23.331 50.971-43 63.5"/><path fill="#86daea" d="M915 355c-6.202 17.69-15.135 36.446-24 53-3.19-1.57-3.227 4.31-7 6 10.385-22.479 24.862-43.651 29-68.5z"/><path fill="#94deec" d="M131 413c-9.756-17.566-17.263-35.099-24-54l28 52.5z"/><path fill="#1894bb" d="M214 453c-5.962 2.424-12.621 5.538-18 9l29-71c5.473-3.192 18.811-11.997 24-13.5 1.439-.417 3.05-1.477 3 1-15.371 22.291-29.738 48.622-38 74.5"/><path fill="#1893ba" d="M794 391c13.042 21.517 19.64 47.785 30 70l-18-7c-8.497-26.649-22.045-52.619-38-75.5-.023-2.688 2.083-.928 3.5-.5 5.228 1.578 17.148 9.846 22.5 13"/><path fill="#4b9db7" d="M529 383c-6.565 1.498-5.019 2.082-5 8.5l8 2.5c-6.01-.768-13.008-1.923-19-2-23.757-.305-47.582 5.125-69 15-2.818 1.299-6.36 2.556-9 4 1.672-6.3-6.491-7.047 0-13 31.313-15.237 59.33-19.224 94-15"/><path fill="#71b7ca" d="M672 516c2.699 14.104 3.37 24.536 3 39-.155 6.065-.266 10.933-1 17-5.638.382-5.319 11.792-7 16.5-1.962 5.497-5.183 11.365-8 16.5-7.02 12.794-20.405 29.684-30 41-11.679-7.111-18.978-.081-29.5 2-.274.054-5.012-1.028-5.5-1 5.547-4.317 16.81-11.921 20-18 74.48-88.699 41.165-219.252-82-235l-8-2.5c-.019-6.418-1.565-7.002 5-8.5 71.339 8.692 129.438 62.13 143 133"/><path fill="#7ccedc" d="m225 391-29 71c-1.864 1.2-4.272 5.324-8 5 .202-3.272-2.819-8.88-4-12-3.296-8.708-4.459-13.811-14-18 18.536-20.584 30.842-31.909 55-46"/><path fill="#7bcfdd" d="m844 431 4 6.5c-11.987 5.465-13.076 19.004-18 29.5-3.539-.431-4.703-3.218-6-6-10.36-22.215-16.958-48.483-30-70 21.678 12.776 32.633 22.039 50 40"/><path fill="#a3e7f6" d="M513 392v2c-12.162-1.728-23.886 7.649-26.5 19 3.87 1.826 10.971.275 12.5 4.5 3.054 8.439-9.882 17.748-17.5 17.5-2.769-.09 1.834-5.272-2.5-3 .215-.338 1.29-7.414.5-8-.688-.51-10.67 2.542-12.5 3-.211-13.739-17.299-9.446-23-20 21.418-9.875 45.243-15.305 69-15"/><path fill="#caf1fa" d="M532 394c123.165 15.748 156.48 146.301 82 235 .094-.178 1.112-3.869.5-4l-3.5 2c62.03-69.668 24.915-171.815-60-199-.303-.097-.696.093-1 0-4.105-1.261-9.238-4.948-14.5-5-.802.398.4 5.691.5 7-1.171 2.496-4.701 3.009-6 4-2.266-7.148-8.609-18.63-16-21l14-7.5c-3.521-4.986-8.636-10.596-15-11.5v-2c5.992.077 12.99 1.232 19 2"/><path fill="#78d0e7" d="M513 394c6.364.904 11.479 6.514 15 11.5l-14 7.5c-15.745-5.05-4.916 4.6-4 7.5 1.161 3.675.976 8.65 1 12.5-2.38 2.208-12.247 5.106-17 8-4.432 2.02-9.791 3.649-14 6l-4-2c.573-3.916 4.496-8.754 0-12 .215-.145 2.508-.227 3-1 4.334-2.272-.269 2.91 2.5 3 7.618.248 20.554-9.061 17.5-17.5-1.529-4.225-8.63-2.674-12.5-4.5 2.614-11.351 14.338-20.728 26.5-19"/><path fill="#1b1a1b" d="M383 407c-7.584 4.77-27.664 8.845-33.5 14-2.84 2.509-.205 3.313-1.5 5-.489-.776-1.648-1.713-2-3-6.533-23.923 28.577-32.546 37-16"/><path fill="#1e90bd" d="M435 411c-5.928 3.242-14.625 9.665-20 14-95.25 76.814-55.898 216.795 50.5 262 3.775 1.604 25.081 6.998 26 8 1.252 1.365.119 6.872.5 9-45.221-4.295-89.551-29.647-118-64.5-2.212-2.709-11.663-21.65-13-13.5-11.694-21.233-20.172-47.501-21-72-.499-14.748 2.487-31.753 6-46 .696-2.824 1.234-7.576 2-10 6.387-20.203 19.176-38.689 31-56 2.82-2.004 7.417-5.578 7-9 7.671-3.489 22.738-20.02 32-26 5.236-3.38 11.381-6.266 17-9-6.491 5.953 1.672 6.7 0 13"/><path fill="#e2f5fb" d="M418 407c-9.262 5.98-24.329 22.511-32 26-6.549 2.979-16.41 3.769-23.5 4l1.5-2c9.597.302 19.785-5.623 21-16 11.359.689 21.321-15.337 33-12"/><path fill="#112432" d="M383 407c1.905 3.741 2.485 7.859 2 12-1.215 10.377-11.403 16.302-21 16-6.822-.215-12.419-3.315-16-9 1.295-1.687-1.34-2.491 1.5-5 5.836-5.155 25.916-9.23 33.5-14"/><path fill="#3bdbf8" d="M467 427c-12.304 3.079-29.64 10.736-40 18l-12-20c5.375-4.335 14.072-10.758 20-14 2.64-1.444 6.182-2.701 9-4 5.701 10.554 22.789 6.261 23 20"/><path fill="#26829d" d="M891 408c-7.395 13.81-14.589 28.665-26.5 39-2.105-.165-4.697-7.108-5.5-8 5.438-9.27 12.773-17.609 18-27 7.387.498.647 4.846 7 2 3.773-1.69 3.81-7.57 7-6"/><path fill="#4ca2bb" d="M642.5 408c23.249-4.323 27.501 27.884 8 31-22.739 3.633-26.504-27.559-8-31"/><path fill="#2683a0" d="M143 413c5.169 9.104 11.893 17.523 18 26-1.414 1.441-5.391 7.215-7.5 7-4.453-3.6-7.153-8.527-10.5-13l4-1.5c-3.98-3.579-14.018-18.385-4-18.5"/><path fill="#eaf9fc" d="M514 413c7.391 2.37 13.734 13.852 16 21-.107.082 2.793 4.053-1 2.5-3.024-9.052-9.001-21.518-20-21 1.71 4.627 6.52 13.308 2 17.5-.024-3.85.161-8.825-1-12.5-.916-2.9-11.745-12.55 4-7.5"/><path fill="#85e7f9" d="M530 434c1.299-.991 4.829-1.504 6-4 .518 6.771.712 6.958 4 11 3.263 4.011 7.536 4.504 8 5.5.26.559-1.427 8.901 4 10.5 1.223 3.006 8.298 9.911 8 12.5l-2.5.5c-3.983-8.936-11.845 1.875-17 4-4.059 1.673-10.803-4.086-8.5 7l-2 1c-1.688-1.855-3.224-3.997-5-6-3.284-3.703.866-3.064-7-7-10.006-5.007-29.267-.905-35 12l-15.5-15c-1.073-.21-2.509 1.354-3.5 2l-1-1c.379-.443 2.026-2.342 2-2.5-.047-.29-2.284-1.038-3-1.5 9.961-8.28 20.986-15.294 32-22 4.753-2.894 14.62-5.792 17-8 4.52-4.192-.29-12.873-2-17.5 10.999-.518 16.976 11.948 20 21 3.793 1.553.893-2.418 1-2.5"/><path fill="#cae7f0" d="M346 423c.352 1.287 1.511 2.224 2 3 3.581 5.685 9.178 8.785 16 9l-1.5 2c7.09-.231 16.951-1.021 23.5-4 .417 3.422-4.18 6.996-7 9-9.611 6.829-26.076 11.691-37 18 1.135-5.016-3.493-6.602-7.5-5-7.467 10.705-24.561 20.83-31.5 31 3.561-14.974 10.919-29.106 20-41.5 5.392-7.36 14.374-19.086 23-21.5"/><path fill="#0e799a" d="M550 428c-8.381 12.435 11.569 8.882 1 17-2.886-1.591-7.743-2.994-11-4-3.288-4.042-3.482-4.229-4-11-.1-1.309-1.302-6.602-.5-7 5.262.052 10.395 3.739 14.5 5"/><path fill="#0b0e14" d="M479 432c-.492.773-2.785.855-3 1-21.846 14.773-40.506 14.287-51 45-4.571 13.377-5.169 22.798-3 37 2.141 14.016 8.946 27.855 17.5 39l16.5-14c14.732 11.255 59.648 23.099 66 35 9.063 16.98-3.225 35.784-22 36-6.884-3.891-4.21-9.052-9-16.5-1.628-2.531-9.307-9.479-12-11.5-13.359-10.028-22.662-13.872-36-1-7.734.943-8.319.127-8 9.5.675 19.828 22.624 54.261 46 51.5 2.501 8 3.347 19.69 7 27-80.678-9.554-132.361-86.01-106-164.5 6.947-20.687 27.115-47.959 45-60.5 10.36-7.264 27.696-14.921 40-18 1.83-.458 11.812-3.51 12.5-3 .79.586-.285 7.662-.5 8m-37.5 124c-1.033.517.889 2.01 1 2 2.892-.262 1.695-2.588-1-2"/><path fill="#1cccfa" d="M427 445c-17.885 12.541-38.053 39.813-45 60.5-26.361 78.49 25.322 154.946 106 164.5.996 1.993 8.642 11.86 10.5 13 15.713 9.637 20.739-3.649 30.5-13 11.589-.612 23.291-3.636 34-8 1.641 9.958 12.53 16.385 17.5 25 1.393-1.046 3.622-.795 4.5-1-26.989 16.069-61.926 20.951-93 18-.381-2.128.752-7.635-.5-9-.919-1.002-22.225-6.396-26-8-106.398-45.205-145.75-185.186-50.5-262Z"/><path fill="#075975" d="M563 445c-3.971-1.828-4.656-.42-7 3-.635-.458-4.097-2.502-5-3 10.569-8.118-9.381-4.565-1-17 .304.093.697-.097 1 0 9.54 5.219 15.043 4.084 12 17"/><path fill="url(#b)" d="M611 627c-5.941 6.672-14.779 14.795-22 20-7.474 5.387-17.479 11.527-26 15-10.709 4.364-22.411 7.388-34 8 2.304-8.242 7.615-17.606 9-26 24.649-12.64 47.782-40.13 47-69-.027-.986.096-2.025 0-3-.524-5.339-1.989-7.486-4-12-7.225-16.217-23.441-26.62-39.5-33-19.749-7.846-70.596-12.016-55.5-45 8.215-9.91 27.327-7.027 39-6 1.776 2.003 3.312 4.145 5 6 2.578 2.832 4.285 6.698 7.5 9 18.414 13.183 54.861 6.315 36.5-22 .908.706 2.79 2.707 4 1.5-.566-1.988 3.117-9.491 3-10-.267-1.157-16.921-15.003-18-15.5 3.043-12.916-2.46-11.781-12-17 84.915 27.185 122.03 129.332 60 199" style="fill:url(#b)"/>/&gt;<path fill="#baeefa" d="M881 484c-2.3 1.189-1.388 3.607-1 5.5 1.961 9.578 12.277 27.97 0 32.5-4.752-10.88-15.655-20.833-23-30 5.463-4.158 11.261-8.558 15-14.5-6.359 3.171-11.317 8.318-17 12.5l-25-22c.129-.273-.128-.727 0-1 4.924-10.496 6.013-24.035 18-29.5l-4-6.5c17.537 18.137 27.698 28.763 37 53"/><path fill="#669c99" d="M476 445c-5.031 3.478-10.749 6.054-15.5 10-6.535 5.427-10.14 10.99-14.5 18-2.674 4.3-5.125 8.826-8 13-.006-.103-1.717.375-2-.5-.054-.168 2.232-1.733.5-3.5-1.472-1.501-9.04-2.684-11.5-4 10.494-30.713 29.154-30.227 51-45 4.496 3.246.573 8.084 0 12"/><path fill="#f3fcfd" d="M184 455c-3.884-4.996-8.294-15.238-16.5-13-2.27.619-20.62 24.664-22.5 28 5.001-13.338 15.832-22.819 25-33 9.541 4.189 10.704 9.292 14 18"/><path fill="#e5f7fc" d="M494 441c-11.014 6.706-22.039 13.72-32 22-15.67 13.025-28.501 27.126-23 49.5 10.364 42.156 87.813 42.323 93 71 2.576 14.243-7.178 29.45-22 30.5 2.244-3.368 8.134-3.517 11.5-6 10.154-7.491 11.03-20.143 5.5-30.5-.132-.247-5.307-5.993-5-2.5-6.352-11.901-51.268-23.745-66-35-4.653-3.555-12.466-12.185-16-17-1.204-4.796-4.531-10.632-5-15.5-.819-8.498 3.309-16.039 3-21.5 2.875-4.174 5.326-8.7 8-13 10.052-9.257 22.006-19.301 34-26 4.209-2.351 9.568-3.98 14-6"/><path fill="#d5f0f5" d="M551 445c.903.498 4.365 2.542 5 3 7.956 5.741 12.7 16.88 18 21 18.361 28.315-18.086 35.183-36.5 22-3.215-2.302-4.922-6.168-7.5-9l2-1c.476 2.293 4.679 5.741 7 7 5.67 5.252 18.295 8.362 24.5 5-7.554.397-14.642-1.264-21.5-4 52.697 11.161 32.796-16.909 10.5-40-.87 2.626-1.635 5.208-.5 8-5.427-1.599-3.74-9.941-4-10.5-.464-.996-4.737-1.489-8-5.5 3.257 1.006 8.114 2.409 11 4"/><path fill="#b9eefa" d="M184 455c1.181 3.12 4.202 8.728 4 12-.04.651.151 1.547 0 2-.503 1.513-20.741 18.659-24 21-11.834-7.847-1.937 1.837-2 2.5-.177 1.862-21.661 24.074-23 29.5-1.452-1.108-3.655-3.786-4-4-1.911-5.303 4.345-15.706-2-18 2.817-9.744 7.014-21.152 12-30 1.88-3.336 20.23-27.381 22.5-28 8.206-2.238 12.616 8.004 16.5 13"/><path fill="#28535d" d="M563 445c1.079.497 17.733 14.343 18 15.5.117.509-3.566 8.012-3 10-1.21 1.207-3.092-.794-4-1.5-5.3-4.12-10.044-15.259-18-21 2.344-3.42 3.029-4.828 7-3"/><path fill="#2ca9ce" d="M480 447c-11.994 6.699-23.948 16.743-34 26 4.36-7.01 7.965-12.573 14.5-18 4.751-3.946 10.469-6.522 15.5-10z"/><path fill="#5dcce6" d="M542 489c-.871-.347-2.759-.869-3-1-2.321-1.259-6.524-4.707-7-7-2.303-11.086 4.441-5.327 8.5-7 5.155-2.125 13.017-12.936 17-4l2.5-.5c.298-2.589-6.777-9.494-8-12.5-1.135-2.792-.37-5.374.5-8 22.296 23.091 42.197 51.161-10.5 40"/><path fill="#117aa1" d="M214 453c-3.085 9.664-6.006 21.054-8 31-6.885 1.284-11.092-2.273-14-8-.481-.947.021-7-4-7 .151-.453-.04-1.349 0-2 3.728.324 6.136-3.8 8-5 5.379-3.462 12.038-6.576 18-9"/><path fill="#92b9cc" d="M342 460c-15.132 8.739-27.994 19.885-41 30.5-.112-.219 1.622-3.945 2-4.5 6.939-10.17 24.033-20.295 31.5-31 4.007-1.602 8.635-.016 7.5 5"/><path fill="#1482aa" d="M824 461c1.297 2.782 2.461 5.569 6 6-.128.273.129.727 0 1-.89 1.888-1.967 5.558-3 7-3.024 4.221-7.194 8.998-13 8-1.841-9.334-5.094-19.887-8-29z"/><path fill="url(#c)" d="M462 463c.716.462 2.953 1.21 3 1.5.026.158-1.621 2.057-2 2.5-3.087 3.614-13.962 10.14-17 14.5-12.554 18.013-4.616 35.607 10.5 48.5.953-5.131-5.222-11.608-6.5-17.5-3.045-14.043 1.234-36.183 14-44.5.991-.646 2.427-2.21 3.5-2l15.5 15c-5.271 11.865-.099 24.89 10 32-3.563.12-1.935 1.48-.5 3 8.868 9.393 29.117 16.88 41.5 12 17.386 6.812 41.485 16.979 45 38.5 6.584 40.314-36.026 65.143-67 79 8.737-1.442 18.401-6.148 26-10.5-.963 1.683.093 8.439 0 9-1.385 8.394-6.696 17.758-9 26-9.761 9.351-14.787 22.637-30.5 13-1.858-1.14-9.504-11.007-10.5-13-3.653-7.31-4.499-19-7-27-.031-.098 2.135-.256.5-2-26.651 2.243-45.528-34.797-42-57 21.578-.813 44.307.253 50 25-.683-9.548-3.045-16.231-11.5-21l1-5c2.693 2.021 10.372 8.969 12 11.5 4.79 7.448 2.116 12.609 9 16.5 4.261 2.408 4.073 3.42 10 3 14.822-1.05 24.576-16.257 22-30.5-5.187-28.677-82.636-28.844-93-71-5.501-22.374 7.33-36.475 23-49.5m-13 133c-.54 7.821 11.637 30.219 21.5 33 7.852 2.215 5.44-1.353 6.5-2 1.028-.627 4.053-.578 5-2.5-15.316-6.151-22.294-21.647-32.5-33.5-3.492.344-.455 4.345-.5 5m51.5 51-.5 9.5c1.904 6.906 5.027 12.451 12.5 14.5l-1.5-21.5c-3.66 1.68-2.197 11.739-1 15l-2.5.5c-7.195-4.763-3.854-11.729-7-18" style="fill:url(#c)"/>/&gt;<path fill="#e1f6fa" d="M518 469c-13.606-.375-25.856-.424-32 13-15.096 32.984 35.751 37.154 55.5 45 16.059 6.38 32.275 16.783 39.5 33 .222 1.633-.439 18.329 4 12 .096.975-.027 2.014 0 3-4.557.852-3.334 11.667-5 16.5-5.959 17.285-26.497 34.622-42 43.5-7.599 4.352-17.263 9.058-26 10.5 30.974-13.857 73.584-38.686 67-79-3.515-21.521-27.614-31.688-45-38.5-11.746-4.603-31.205-8.104-41-15-10.099-7.11-15.271-20.135-10-32 5.733-12.905 24.994-17.007 35-12"/><path fill="#61f0fc" d="m463 467 1 1c-12.766 8.317-17.045 30.457-14 44.5 1.278 5.892 7.453 12.369 6.5 17.5-15.116-12.893-23.054-30.487-10.5-48.5 3.038-4.36 13.913-10.886 17-14.5"/><path fill="#74dcf5" d="M855 490c-6.866 5.053-12.999 11.356-21.5 14l-6.5-29c1.033-1.442 2.11-5.112 3-7z"/><path fill="#6ddaf4" d="M192 476c-1.575 9.102-4.969 18.89-6 28-8.654-2.644-14.786-9.217-22-14 3.259-2.341 23.497-19.487 24-21 4.021 0 3.519 6.053 4 7"/><path fill="#3f5f67" d="M518 469c7.866 3.936 3.716 3.297 7 7-11.673-1.027-30.785-3.91-39 6 6.144-13.424 18.394-13.375 32-13"/><path fill="#29a2c4" d="M855 490c5.683-4.182 10.641-9.329 17-12.5-3.739 5.942-9.537 10.342-15 14.5-7.208 5.487-15.566 10.547-24 14-4.392 1.798-10.597 2.337-15 5-.977-9.204-2.211-18.929-4-28 5.806.998 9.976-3.779 13-8l6.5 29c8.501-2.644 14.634-8.947 21.5-14"/><path fill="#20a1c6" d="M206 484c-1.777 8.861-3.026 18.003-4 27l-16-6c.036-.329-.037-.671 0-1 1.031-9.11 4.425-18.898 6-28 2.908 5.727 7.115 9.284 14 8"/><path fill="#4a7675" d="M438 486c.309 5.461-3.819 13.002-3 21.5.469 4.868 3.796 10.704 5 15.5-.099-.135-1.738.35-3-1.5-1.861-2.728-2.034-11.677-4.5-11.5-.58.042-7.929 5.634-10.5 5-2.169-14.202-1.571-23.623 3-37 2.46 1.316 10.028 2.499 11.5 4 1.732 1.767-.554 3.332-.5 3.5.283.875 1.994.397 2 .5"/><path fill="#69d8f0" d="M836 698v-4c46.674-39.778 67.966-113.378 44-171-.118-.284.122-.72 0-1 12.277-4.53 1.961-22.922 0-32.5-.388-1.893-1.3-4.311 1-5.5 28.942 75.409 20.808 161.979-45 214"/><path fill="#55bad2" d="M164 490c7.214 4.783 13.346 11.356 22 14-.037.329.036.671 0 1-1.618 14.685-.82 31.117-2 46-16.96-7.652-30.321-17.797-45-29 1.339-5.426 22.823-27.638 23-29.5.063-.663-9.834-10.347 2-2.5"/><path fill="#257995" d="M542 489c6.858 2.736 13.946 4.397 21.5 4-6.205 3.362-18.83.252-24.5-5 .241.131 2.129.653 3 1"/><path fill="#5bc0d7" d="M880 522c.122.28-.118.716 0 1-13.942 11.462-28.669 20.534-45 28l-2-45c8.434-3.453 16.792-8.513 24-14 7.345 9.167 18.248 19.12 23 30"/><path fill="#7798ac" d="M348 498c-.766 2.424-1.304 7.176-2 10l-55 38c16.077-19.165 34.341-36.69 57-48"/><path fill="#5cd0ea" d="M135 518c-.302-.188-3.225-1.291-4-1.5 2.411 3.699 7.045 8.136 7 13-.051 5.615-6.313 23.092-7 32-4.643 60.235 17.735 110.296 68 143.5v5c-74.205-47.042-89.491-128.75-66-210 6.345 2.294.089 12.697 2 18"/><path fill="#0e81ab" d="M202 511c-1.65 15.242-2.53 30.644-2 46-5.916-.476-10.801-3.654-16-6 1.18-14.883.382-31.315 2-46z"/><path fill="#1188b1" d="m833 506 2 45c-4.963 2.269-9.789 5.187-15 7 .476-14.655-.451-32.406-2-47 4.403-2.663 10.608-3.202 15-5"/><path fill="#83a3b5" d="M346 508c-3.513 14.247-6.499 31.252-6 46-21.455 4.651-46.309 9.085-67 16 5.361-8.457 11.577-16.344 18-24z"/><path fill="#313d3f" d="M440 523c3.534 4.815 11.347 13.445 16 17l-16.5 14c-8.554-11.145-15.359-24.984-17.5-39 2.571.634 9.92-4.958 10.5-5 2.466-.177 2.639 8.772 4.5 11.5 1.262 1.85 2.901 1.365 3 1.5"/><path fill="#24bde8" d="M493 513c9.795 6.896 29.254 10.397 41 15-12.383 4.88-32.632-2.607-41.5-12-1.435-1.52-3.063-2.88.5-3"/><path fill="#f3f7f8" d="M751 546c.142 6.988.455 15.118 0 22-2.92.737-2.529-5.075-3-5.5-5.252-4.732-62.565-7.374-73-7.5.37-14.464-.301-24.896-3-39 8.244-.942 21.058 3.914 29.5 7 16.945 6.195 33.534 14.652 49.5 23"/><path fill="url(#d)" d="M135 518c.345.214 2.548 2.892 4 4 14.679 11.203 28.04 21.348 45 29 5.199 2.346 10.084 5.524 16 6 1.73 50.167 18.715 117.574 46 160-14.961 9.504-33.944-3.375-47-12-50.265-33.204-72.643-83.265-68-143.5.687-8.908 6.949-26.385 7-32 .045-4.864-4.589-9.301-7-13 .775.209 3.698 1.312 4 1.5" style="fill:url(#d)"/>/&gt;<path fill="#1b94b6" d="M219 517c-27.651 194.27 143.842 347.435 333 326-.491 3.999 11.034 2.277 14 2-100.025 18.272-209.828-12.651-279-88-60.1-65.467-88.275-152.244-78-241Z"/><path fill="url(#e)" d="M836 694c-13.926 11.869-39.61 28.919-58.5 27-1.261-.128-4.608-6.945-8.5-2 30.255-47.081 49.173-104.704 51-161 5.211-1.813 10.037-4.731 15-7 16.331-7.466 31.058-16.538 45-28 23.966 57.622 2.674 131.222-44 171" style="fill:url(#e)"/>/&gt;<path fill="url(#f)" d="M361 626c12.431 22.572 29.206 41.754 51 56 65.36 69.969 159.764 87.944 243.5 37 30.525-18.571 51.188-45.042 73.5-72-103.114 224.771-441.603 164.205-459-75 1.29-.314 1.711-1.569 3-2 20.691-6.915 45.545-11.349 67-16 .828 24.499 9.306 50.767 21 72m24.5 63c-14.665 2.796-13.843 25.117 2 27 25.003 2.972 24.108-31.977-2-27" style="fill:url(#f)"/>/&gt;<path fill="url(#g)" d="M751 568c-1.887 28.57-10.23 53.344-22 79-22.312 26.958-42.975 53.429-73.5 72-83.736 50.944-178.14 32.969-243.5-37 70.015 45.766 161.441 36.629 219-24 22.998-24.225 38.896-52.099 43-86 .734-6.067.845-10.935 1-17 10.435.126 67.748 2.768 73 7.5.471.425.08 6.237 3 5.5m-98.5 98c-9.913 1.752-9.862 16.102 0 18 17.941 3.452 18.185-21.214 0-18" style="fill:url(#g)"/>/&gt;<path fill="#222326" d="M441.5 556c2.695-.588 3.892 1.738 1 2-.111.01-2.033-1.483-1-2"/><path fill="#5cd8f0" d="M585 572c-4.439 6.329-3.778-10.367-4-12 2.011 4.514 3.476 6.661 4 12"/><path fill="#4f91ab" d="M674 572c-4.104 33.901-20.002 61.775-43 86l-4-2c13.474-13.83 25.324-32.828 32-51 2.817-5.135 6.038-11.003 8-16.5 1.681-4.708 1.362-16.118 7-16.5"/><path fill="#0e7cab" d="m479 583-1 5c-8.504-4.797-25.502-7.158-35-6 13.338-12.872 22.641-9.028 36 1"/><path fill="#12bce9" d="M510 614c-5.927.42-5.739-.592-10-3 18.775-.216 31.063-19.02 22-36-.307-3.493 4.868 2.253 5 2.5 5.53 10.357 4.654 23.009-5.5 30.5-3.366 2.483-9.256 2.632-11.5 6"/><path fill="#39d8f4" d="M585 575c.782 28.87-22.351 56.36-47 69 .093-.561-.963-7.317 0-9 15.503-8.878 36.041-26.215 42-43.5 1.666-4.833.443-15.648 5-16.5"/><path fill="#e6f5f8" d="M443 582c9.498-1.158 26.496 1.203 35 6 8.455 4.769 10.817 11.452 11.5 21-5.693-24.747-28.422-25.813-50-25-3.528 22.203 15.349 59.243 42 57 1.635 1.744-.531 1.902-.5 2-23.376 2.761-45.325-31.672-46-51.5-.319-9.373.266-8.557 8-9.5"/><path fill="#118ab8" d="M477 627c-14.701-4.002-19.933-19.674-28-31 .045-.655-2.992-4.656.5-5 10.206 11.853 17.184 27.349 32.5 33.5-.947 1.922-3.972 1.873-5 2.5"/><path fill="#0f6d92" d="M477 627c-1.06.647 1.352 4.215-6.5 2-9.863-2.781-22.04-25.179-21.5-33 8.067 11.326 13.299 26.998 28 31"/><path fill="#f3fcfd" d="M627 656c-8.267 8.485-23.566 20.519-34 26 13.01-11.798 24.565-22.513 36-36 9.595-11.316 22.98-28.206 30-41-6.676 18.172-18.526 37.17-32 51"/><path fill="#217ea5" d="M492 704c31.074 2.951 66.011-1.931 93-18 3.231-.753 5.166-2.511 8-4 10.434-5.481 25.733-17.515 34-26l4 2c-57.559 60.629-148.985 69.766-219 24-21.794-14.246-38.569-33.428-51-56 1.337-8.15 10.788 10.791 13 13.5 28.449 34.853 72.779 60.205 118 64.5"/><path fill="#90e6f7" d="M614 629c-3.19 6.079-14.453 13.683-20 18-1.846.108-3.901 3.736-5 0 7.221-5.205 16.059-13.328 22-20l3.5-2c.612.131-.406 3.822-.5 4"/><path fill="#3bdbf8" d="M629 646c-11.435 13.487-22.99 24.202-36 36-2.834 1.489-4.769 3.247-8 4-.878.205-3.107-.046-4.5 1-4.97-8.615-15.859-15.042-17.5-25 8.521-3.473 18.526-9.613 26-15 1.099 3.736 3.154.108 5 0 .488-.028 5.226 1.054 5.5 1 10.522-2.081 17.821-9.111 29.5-2"/><path fill="#d1ebf4" d="M500.5 647c3.146 6.271-.195 13.237 7 18l2.5-.5c-1.197-3.261-2.66-13.32 1-15l1.5 21.5c-7.473-2.049-10.596-7.594-12.5-14.5z"/><path fill="#305060" d="M652.5 666c18.185-3.214 17.941 21.452 0 18-9.862-1.898-9.913-16.248 0-18"/><path fill="#0d334d" d="M385.5 689c26.108-4.977 27.003 29.972 2 27-15.843-1.883-16.665-24.204-2-27"/><path fill="#1781a8" d="M836 698c-24.201 19.131-52.827 33.188-82 41.5 5.512-6.484 10.405-13.349 15-20.5 3.892-4.945 7.239 1.872 8.5 2 18.89 1.919 44.574-15.131 58.5-27z"/><path fill="#147ea6" d="M246 717c1.525 2.371 18.748 20.142 18 21.5-21.631-5.846-45.591-16.196-65-28.5v-5c13.056 8.625 32.039 21.504 47 12"/><path fill="#0c334c" d="M287 757c69.172 75.349 178.975 106.272 279 88 51.634-4.826 114.201-37.053 152-72 1.832 5.311-.34 3.969-3 7-8.905 10.148-23.602 19.722-35 27-27.369 17.476-55.693 29.672-87 38.5 3.523 5.093 1.847 29.244 5.5 30.5 9.169-3.999 19.729-4.744 29-8 3.249-1.141 6.614-5.593 10.5-3-22.441 8.3-55.397 18.535-79 21-15.334 1.601-32.556.522-48 0-32.617-1.102-63.077-5.078-94.5-14-4.205-1.194-23.672-10.218-25-10-1.459.24-5.635 10.829-5.5 11.5.088.436 4.704 4.34 5 4.5-40.459-11.581-76.583-34.918-91.5-76 1.368 22.892 20.514 45.918 38.5 59-9.68 6.118 13.891 20.513 19.5 24 32.257 20.052 80.852 29.57 118.5 33 60.86 5.544 121.919-1.788 178.5-25 27.925-11.456 78.172-40.77 78.5-75 6.132 3.482.402 22.846-2 28.5-3.486 8.205-13.651 20.356-20 26.5-73.086 70.728-272.605 72.166-355.5 18-30.27-19.779-65.384-61.922-61.5-100.5.338-3.362 5.097-13.263 5-14-.25-1.893-24.841-26.555-26.5-27.5-16.088-9.162-43.156-14.561-63.5-26-.963-1.922 2.376-1.052 2.5-1 12.07 4.997 24.301 12.744 37 18 4.808 1.99 18.145 3.331 23 6 4.544 2.498 12.463 11.7 16 16z"/><path fill="#44b6ca" d="M727 763c-3.028 3.109-5.834 7.073-9 10-37.799 34.947-100.366 67.174-152 72-2.966.277-14.491 1.999-14-2 64.97-7.362 125.603-41.94 171-88z"/><path fill="#267590" d="M733 818c-.328 34.23-50.575 63.544-78.5 75-56.581 23.212-117.64 30.544-178.5 25-6.581-3.961-3.337-8.875-4-16 4.38.374 8.58.761 13 1 61.933 3.352 116.476-1.173 173-28 20.956-9.946 74.809-37.428 56.5-66l-4.5 6c-.212-.158-.757.152-1 0-1.902-1.186-16.104-4.441-18.5-4-2.989.55-3.635 8.932-10.5-4 11.398-7.278 26.095-16.852 35-27 3.01-1.335 4.361.294 6 2.5 4.984 6.71 12.08 27.174 12 35.5"/><path fill="#21a3c7" d="M391 878c14.647 7.903 80.106 14.181 99 15-.333 6.377 2.286 8.731-5 10-4.42-.239-8.62-.626-13-1-42.561-3.639-98.962-15.516-134-41-17.986-13.082-37.132-36.108-38.5-59 14.917 41.082 51.041 64.419 91.5 76"/><path fill="#225870" d="M709 815c-10.204 6.678-15.518 20.917-24 28-9.903 8.27-34.412 17.344-47 22-3.886-2.593-7.251 1.859-10.5 3-9.271 3.256-19.831 4.001-29 8-3.653-1.256-1.977-25.407-5.5-30.5 31.307-8.828 59.631-21.024 87-38.5 6.865 12.932 7.511 4.55 10.5 4 2.396-.441 16.598 2.814 18.5 4"/><path fill="#e7f8fc" d="M658 875c-.262-3.893 1.593-3.743-2.5-3-16.399 2.975-39.458 13.816-59.5 18 30.024-10.013 67-17.981 93.5-36 8.292-5.638 27.133-21.386 24.5-32.5-.088-.371-3.694-6.272-4-6.5l4.5-6c18.309 28.572-35.544 56.054-56.5 66"/><path fill="#afeefa" d="M596 890c-1.222.255-2.581.732-4 1l-10.5-1c25.287-6.623 50.95-15.656 76-25 1.554-1.558-3.16-.305-2-2 .922-1.347 24.657-10.379 29-15 2.183-2.323.122-2.168.5-5 8.482-7.083 13.796-21.322 24-28 .243.152.788-.158 1 0 .306.228 3.912 6.129 4 6.5 2.633 11.114-16.208 26.862-24.5 32.5-26.5 18.019-63.476 25.987-93.5 36"/><path fill="#95e4f2" d="M685 843c-.378 2.832 1.683 2.677-.5 5-4.343 4.621-28.078 13.653-29 15-1.16 1.695 3.554.442 2 2-25.05 9.344-50.713 18.377-76 25l10.5 1c-15.333 2.901-24.621 4.021-39.5 5-2.262.149-10.866 1.342-11.5-2 3.19-.564 13.773-6.85 18-8 23.603-2.465 56.559-12.7 79-21 12.588-4.656 37.097-13.73 47-22"/><path fill="#225870" d="M472 902c.663 7.125-2.581 12.039 4 16-37.648-3.43-86.243-12.948-118.5-33-5.609-3.487-29.18-17.882-19.5-24 35.038 25.484 91.439 37.361 134 41"/><path fill="#225870" d="M511 886c-2.177 7.878 6.004 6.142 12 7-10.957-.35-22.054.474-33 0-18.894-.819-84.353-7.097-99-15-.296-.16-4.912-4.064-5-4.5-.135-.671 4.041-11.26 5.5-11.5 1.328-.218 20.795 8.806 25 10 31.423 8.922 61.883 12.898 94.5 14"/><path fill="#41d0ed" d="M658 875c-56.524 26.827-111.067 31.352-173 28 7.286-1.269 4.667-3.623 5-10 10.946.474 22.043-.35 33 0 5.252.751 12.86 1.908 18 1 .634 3.342 9.238 2.149 11.5 2 14.879-.979 24.167-2.099 39.5-5 1.419-.268 2.778-.745 4-1 20.042-4.184 43.101-15.025 59.5-18 4.093-.743 2.238-.893 2.5 3"/><path fill="#267590" d="M559 886c-4.227 1.15-14.81 7.436-18 8-5.14.908-12.748-.249-18-1-5.996-.858-14.177.878-12-7 15.444.522 32.666 1.601 48 0"/></svg>