<svg xmlns="http://www.w3.org/2000/svg" width="1024" height="1024"><defs><linearGradient id="a" x1="429.986" x2="434.92" y1="204.738" y2="319.632" gradientUnits="userSpaceOnUse"><stop offset="0%" style="stop-color:#2e88ac"/><stop offset="100%" style="stop-color:#1f688a"/></linearGradient></defs><defs><linearGradient id="b" x1="790.227" x2="382.321" y1="460.693" y2="797.521" gradientUnits="userSpaceOnUse"><stop offset="13.422%" style="stop-color:#e7f3f9"/><stop offset="70.132%" style="stop-color:#8ecbdf"/><stop offset="100%" style="stop-color:#60a4b8"/></linearGradient></defs><defs><linearGradient id="c" x1="390.688" x2="240.464" y1="643.349" y2="759.679" gradientUnits="userSpaceOnUse"><stop offset="0%" style="stop-color:#37b0cf"/><stop offset="100%" style="stop-color:#3c717f"/></linearGradient></defs><defs><linearGradient id="d" x1="319.636" x2="350.924" y1="566.071" y2="670.484" gradientUnits="userSpaceOnUse"><stop offset="0%" style="stop-color:#397288"/><stop offset="100%" style="stop-color:#088499"/></linearGradient></defs><defs><linearGradient id="e" x1="683.074" x2="697.354" y1="557.579" y2="664.631" gradientUnits="userSpaceOnUse"><stop offset="0%" style="stop-color:#478095"/><stop offset="100%" style="stop-color:#11b5db"/></linearGradient></defs><defs><linearGradient id="f" x1="678.512" x2="702.715" y1="545.844" y2="645.96" gradientUnits="userSpaceOnUse"><stop offset="0%" style="stop-color:#38355a"/><stop offset="100%" style="stop-color:#034c73"/></linearGradient></defs><defs><linearGradient id="g" x1="323.384" x2="344.173" y1="546.987" y2="647.867" gradientUnits="userSpaceOnUse"><stop offset="0%" style="stop-color:#3e385c"/><stop offset="100%" style="stop-color:#014e74"/></linearGradient></defs><path fill="#0389b1" d="M757 187c-2.416-2.75-12.334-8.99-16-11-44.352-36.786-102.392-43.57-158-33-42.072 7.998-80.083 32.292-102.5 69 6.922-35.576 22.11-53.59 50.5-74 16.036-9.043 32.985-16.727 51-21 7.629-1.81 17.578-1.107 24.5-5-11.774-2.643-24.366-2.516-36.5-2-49.063 2.086-108.701 19.865-144 55-15.422 15.35-23.877 31.161-32.5 51-2.935-40.315 13.003-80.907 44.5-106.5-1.342-1.792-8.77.933-11 1.5-27.089 6.886-61.296 27.489-80 48-18.67 20.474-30.108 44.823-28 73.5-1.216.409-3.931-5.167-4-5.5-4.878-23.59 21.583-63.674 38.5-79 23.038-20.871 60.056-37.498 90.5-41.5-26.958 22.09-40.658 51.082-44.5 85.5 22.621-40.917 62.25-66.58 107-78 33.601-8.575 77.418-15.082 109.5.5-48.156 3.333-101.922 28.87-122.5 74.5 68.109-73.909 194.884-77.197 263.5-2"/><path fill="#4cbbd8" d="M426 165c-.648 7.12-8.965 12.738-12 18.5-7.452 14.148-10.843 32.675-9.5 48.5 12.207-82.458 92.848-109.552 165-120 4.314-.625 1.594-.2.5-2 12.134-.516 24.726-.643 36.5 2-6.922 3.893-16.871 3.19-24.5 5-19.738-.587-35.79 10.065-51 21-28.39 20.41-43.578 38.424-50.5 74 22.417-36.708 60.428-61.002 102.5-69-1.687 5.541-11.575 4.904-16.5 7-2.829 1.204-36.798 22.441-31 25 45.186-29.515 107.796-38.282 159-20 10.833 3.868 36.804 15.682 46.5 21 3.666 2.01 13.584 8.25 16 11 6.038 6.873 4.182 11.559 6 20-44.531-20.904-86.626-17.69-132-1 .036-.273-.855-2.912 0-5.5 1.06-3.21 11.404-17.493 7.5-18.5-43.921 19.389-80.84 54.701-93.5 102-4.434 2.987-8.895 5.966-12.5 10-.157-21.863 12.491-40.522 22.5-59 .06-.11 2.485.577 2-1.5-1.054-1.174-1.9 1.426-2 1.5-4.195 3.105-13.003 14.4-16 19 9.319-17.974 23.096-37.183 38-51 8.611-7.983 20.164-13.497 27.5-23l-48 19c-2.978-.314 2.786-4.802 3-5 23.452-21.715 43.972-23.724 67-38 1.199-.743 3.512-1.39 2-3-34.802-3.467-70.16 11.848-97 33-26.696 21.039-53.322 60.269-54.5 95-36.545-57.887.313-111.408 44.5-150-56.269 26.147-100.191 81.652-94.5 146.5-1.433 3.033-8.95-.101-12-.5-34.588-25.184-49.09-83.449-41.5-124-18.899 21.941-17.63 57.389-7.5 83 6.979 23.431 20.47 47.228 37 65.5-47.073-25.154-69.634-90.419-45-138.5 1.904-3.716 4.867-6.937 7-10.5-54.111 35.8-49.989 106.523-21 158L306.5 292l3.5 8c-4.177-3.184-9.62-5.31-14-8-13.191-8.1-26.73-16.569-42-20l-22.5-8 38.5 1c8.312 2.53 16.952 4.418 24.5 9 4.389-2.452-23.794-35.498-28-37l-25-12c15.074-4.383 35.145-11.348 50-3 4.201 2.361 8.62 9.703 13.5 13 .457.309 6.1.937 8.5 5 2.898-2.483 2.857-9.393.5-12l1-1c.069.333 2.784 5.909 4 5.5-2.108-28.677 9.33-53.026 28-73.5 13.204-7.577 23.486-19.112 36.5-27 13.86-8.401 29.658-12.729 43.5-21 2.23-.567 9.658-3.292 11-1.5-31.497 25.593-47.435 66.185-44.5 106.5 8.623-19.839 17.078-35.65 32.5-51m226.5-11c-3.331.096-19.206 2.048-22 3-.996.339-4.709 1.329-3 3l74.5 3.5c-15.816-4.784-32.828-9.98-49.5-9.5"/><path fill="#7dd4e9" d="M570 110c1.094 1.8 3.814 1.375-.5 2-72.152 10.448-152.793 37.542-165 120-1.343-15.825 2.048-34.352 9.5-48.5 3.035-5.762 11.352-11.38 12-18.5 35.299-35.135 94.937-52.914 144-55"/><path fill="#88d6ea" d="M347 159c18.704-20.511 52.911-41.114 80-48-13.842 8.271-29.64 12.599-43.5 21-13.014 7.888-23.296 19.423-36.5 27"/><path fill="#85daeb" d="M582 117c-18.015 4.273-34.964 11.957-51 21 15.21-10.935 31.262-21.587 51-21"/><path fill="url(#a)" d="M477 281c-.344 10.144 1.011 28.216 7 36-.973 5.253.942 14.488-3 19-1.603-.199-3.415.232-5 0-.396-.058-3.426 1.901-5.5 1-5.554-2.414-22.388-61.699-24-71l-1 63-42-37 27.5 46.5c-23.649 4.086-43.9-19.378-61.5-32.5 1.559 13.925 8.043 26.687 16.5 37.5-.542 1.388-19.046 4.309-22 4.5-5.894-8.458-8.401-18.601-11-28.5-10.671-40.646-21.611-108.463-3-147 1.263-2.615 4.686-8.985 8-9.5-24.634 48.081-2.073 113.346 45 138.5-16.53-18.272-30.021-42.069-37-65.5 8.232 20.813 24.489 37.791 49 41 3.05.399 10.567 3.533 12 .5-5.691-64.848 38.231-120.353 94.5-146.5-44.187 38.592-81.045 92.113-44.5 150" style="fill:url(#a)"/>/&gt;<path fill="#75d0e6" d="M741 176c-9.696-5.318-35.667-17.132-46.5-21-51.204-18.282-113.814-9.515-159 20-5.798-2.559 28.171-23.796 31-25 4.925-2.096 14.813-1.459 16.5-7 55.608-10.57 113.648-3.786 158 33"/><path fill="#2193b7" d="M358 163c-3.314.515-6.737 6.885-8 9.5-18.611 38.537-7.671 106.354 3 147 2.599 9.899 5.106 20.042 11 28.5-20.681 1.336-22.768-5.183-32-20-7.855-12.606-9.294-18.313-22-28l-3.5-8 37.5 18.5c-28.989-51.477-33.111-122.2 21-158-2.133 3.563-5.096 6.784-7 10.5"/><path fill="#20a1c5" d="M415 277c-24.511-3.209-40.768-20.187-49-41-10.13-25.611-11.399-61.059 7.5-83-7.59 40.551 6.912 98.816 41.5 124"/><path fill="#23a5c7" d="M577 203c-5.806-5.057-17.25 4.059-22.5 8-3.005 2.256-2.28 4.828-2.5 5-15.281 11.917-22.676 16.989-35 33-2.592 3.367-6.895 7.729-9 11l6-11.5c-1.821-4.718-25.939 36.778-27 40-1.919 5.828-4.877 15.079-1 20.5-.558 2.184-1.654 6.132-2 8-5.989-7.784-7.344-25.856-7-36 1.178-34.731 27.804-73.961 54.5-95 26.84-21.152 62.198-36.467 97-33 1.512 1.61-.801 2.257-2 3-23.028 14.276-43.548 16.285-67 38-.214.198-5.978 4.686-3 5l48-19c-7.336 9.503-18.889 15.017-27.5 23"/><path fill="#74cfe5" d="M652.5 154c16.672-.48 33.684 4.716 49.5 9.5l-74.5-3.5c-1.709-1.671 2.004-2.661 3-3 2.794-.952 18.669-2.904 22-3"/><path fill="#21a2c4" d="M631 206c-.184 1.391-2.354 3.207-2 5 .836 2.083 24.689-7.395 27.5-8 30.234-6.504 52.032-5.171 81.5 3 18.606 11.406 39.23 21.203 55.5 36 3.171 2.884 23.717 25.704 23.5 27.5-.479 3.958-7.445.099-9-.5-2.953-1.137-5.8-3.602-9-5 .278-2.826 1.456-1.671-.5-4-7.878-9.381-37.59-25.475-49.5-30-55.527-21.097-137.428-10.579-178 35-8.187 5.177-17.284 13.128-26 19 12.66-47.299 49.579-82.611 93.5-102 3.904 1.007-6.44 15.29-7.5 18.5-.855 2.588.036 5.227 0 5.5"/><path fill="#046483" d="M763 207c65.701 30.842 111.826 106.027 132 173.5-17.423-14.196-31.225-32.691-49-46.5-.369-.287-1.629-3.465-3-2.5-.938 2.481 1.77 3.085 2 3.5 4.441 8.002 10.649 15.415 15 23.5 16.333 30.348 27.844 66.074 31 100.5-2.203-9.2-4.698-19.798-7-29-5.677-22.69-12.263-40.292-23-61-23.912-46.118-58.013-90.773-106-113.5 18.55.606 35.821 7.941 52 16.5v1c-1.356-.537-25.549-7.762-26-6.5 37.782 30.2 70.562 66.922 104.5 101.5 4.359.999 1.204-6.02.5-8.5-1.654-5.827-8.437-20.501-12-25.5-9.217-22.049-22.412-41.986-38-60-46.861-64.38-131.258-100.038-207-63-.354-1.793 1.816-3.609 2-5 45.374-16.69 87.469-19.904 132 1"/><path fill="#90dded" d="M836 274c-27.361-31.62-57.042-56.643-98-68-29.468-8.171-51.266-9.504-81.5-3-2.811.605-26.664 10.083-27.5 8 75.742-37.038 160.139-1.38 207 63"/><path fill="#0887a9" d="M577 203c-14.904 13.817-28.681 33.026-38 51-5.055 7.758-15.034 26.012-19 34.5-4.311 9.226-6.695 19.103-10.5 28.5-3.896-25.839 5.222-48.687 18.5-70l24-31c.22-.172-.505-2.744 2.5-5 5.25-3.941 16.694-13.057 22.5-8"/><path fill="#43b3d1" d="M836 274c15.588 18.014 28.783 37.951 38 60-10.176-14.28-51.744-54.957-67-61v-1l1-3c1.555.599 8.521 4.458 9 .5.217-1.796-20.329-24.616-23.5-27.5-16.27-14.797-36.894-24.594-55.5-36 40.958 11.357 70.639 36.38 98 68"/><path fill="#036381" d="M314 228c2.357 2.607 2.398 9.517-.5 12-2.4-4.063-8.043-4.691-8.5-5-14.683-30.027-56.035-20.691-80-7.5 11.785 3.284 23.727 5.371 34.5 11.5 3 1.707 29.498 22.208 24 26-19.747-15.098-45.683-15.8-69.5-15-10.927.367-21.91.571-32.5 4-1.727-1.65 2.067-2.697 3-3 21.563-7.006 58.6-4.111 81-1-12.276-14.428-32.86-19.939-51.5-20.5 24.537-12.537 52.526-24.447 79.5-12.5 1.358.601 3.488 4.175 5 5 1.338.73 14.94 5.38 15.5 6"/><path fill="#9ee3f1" d="M305 235c-4.88-3.297-9.299-10.639-13.5-13-14.855-8.348-34.926-1.383-50 3l25 12c4.206 1.502 32.389 34.548 28 37-7.548-4.582-16.188-6.47-24.5-9-16.057-4.888-29.601-10.296-47-10l.5-4-9.5-1c23.817-.8 49.753-.098 69.5 15 5.498-3.792-21-24.293-24-26-10.773-6.129-22.715-8.216-34.5-11.5 23.965-13.191 65.317-22.527 80 7.5"/><path fill="#1f5d80" d="M528 247c-5.15 1.255-2.197-3.2-7 2h-4c12.324-16.011 19.719-21.083 35-33z"/><path fill="#288aaf" d="M749 230c-1.973 2.32-.905 1.941-4 1.5-70.034-9.983-113.412-4.81-174 33.5 40.572-45.579 122.473-56.097 178-35"/><path fill="#21779a" d="M749 230c11.91 4.525 41.622 20.619 49.5 30 1.956 2.329.778 1.174.5 4-3.352-1.465-6.616-3.71-10-5 1.582-2.225.286-1.792-1.5-3-40.585-27.437-160.389-15.003-199 14-10.712 8.047-21.217 21.104-25 34 13.061-9.444 27.147-24.192 41-32 42.543-23.979 110.944-12.832 153.5 8 .231 3.772.069 2.819-3 2.5-59.745-6.205-94.723-6.306-151.5 18.5-1.958.855-8.631 3.673-9 6 3.761-1.427 8.184-4.046 12-5 33.339-8.333 101.859-13.134 135-6 20.326 4.375 41.736 17.689 59 29l8.5-10c10.865 10.561 18.234 20.793 27 33 3.677 5.12 18.411 31.444 20 32.5 3.305 2.196 6.535-2.961 9-1l19 50.5c2.302 9.202 4.797 19.8 7 29 3.362 14.041 1.562 28.631 2 43-1.652-.343-3.254.517-5-1-4.44-51.13-33.008-85.489-70.5-117-38.467-32.331-82.124-54.544-133.5-56.5 22.338-6.209 46.024-3.703 68.5.5-40.859-20.777-90.135-12.53-132 2 21.534-14.534 49.185-19.404 75-19 1.502-2.537-.567-1.74-2-2-21.788-3.953-57.03 3.496-78 11-7.62 2.727-29.137 15.198-34 16-8.432 1.39-23.56-2.946-33-1-3.69-1.45 7.958-27.549 8.5-31.5l17.5-29.5c-16.74 10.284-32.651 23.983-43.5 40.5-1.994 3.036-8.15 19.307-9 20-1.262 1.028-3.442.29-5 .5-5.109.688-10.682.447-16 1-1.752-.12-5.013.737-6-1.5-3.981-9.026 17.856-76.683 26-85.5 4.803-5.2 1.85-.745 7-2-13.278 21.313-22.396 44.161-18.5 70 3.805-9.397 6.189-19.274 10.5-28.5 3.966-8.488 13.945-26.742 19-34.5 2.997-4.6 11.805-15.895 16-19-10.009 18.478-22.657 37.137-22.5 59 3.605-4.034 8.066-7.013 12.5-10 8.716-5.872 17.813-13.823 26-19 60.588-38.31 103.966-43.483 174-33.5 3.095.441 2.027.82 4-1.5"/><path fill="#21779a" d="M555 235c.1-.074.946-2.674 2-1.5.485 2.077-1.94 1.39-2 1.5"/><path fill="#3eb1cf" d="M789 259c-16.947-6.46-42.005-14.411-59-8.5 54.112 14.509 81.966 50.213 112 93.5l-6 4c-8.766-12.207-16.135-22.439-27-33-14.979-14.56-32.253-25.823-51-35-42.556-20.832-110.957-31.979-153.5-8-13.853 7.808-27.939 22.556-41 32 3.783-12.896 14.288-25.953 25-34 38.611-29.003 158.415-41.437 199-14 1.786 1.208 3.082.775 1.5 3"/><path fill="#49b6d3" d="M508 260c-7.038 10.934-18.826 36.577-22 49-3.877-5.421-.919-14.672 1-20.5 1.061-3.222 25.179-44.718 27-40z"/><path fill="#7fd5ea" d="M789 259c3.384 1.29 6.648 3.535 10 5 3.2 1.398 6.047 3.863 9 5l-1 3c-16.179-8.559-33.45-15.894-52-16.5 47.987 22.727 82.088 67.382 106 113.5-7.092-7.096-13.234-16.69-19-25-30.034-43.287-57.888-78.991-112-93.5 16.995-5.911 42.053 2.04 59 8.5"/><path fill="#153e6a" d="M521 249c-8.144 8.817-29.981 76.474-26 85.5.987 2.237 4.248 1.38 6 1.5-10.464 1.087-8.572 1.417-20 0 3.942-4.512 2.027-13.747 3-19 .346-1.868 1.442-5.816 2-8 3.174-12.423 14.962-38.066 22-49 2.105-3.271 6.408-7.633 9-11z"/><path fill="#228eb1" d="M223 255c17.399-.296 30.943 5.112 47 10l-38.5-1 22.5 8 9 9.5c-1.181 2.377-44-17.662-51-10 16.34 5.076 32.868 12.689 45.5 24.5-31.356-3.38-71.401 1.702-95.5 22.5 36.089-12.99 94.167-31.743 108 19.5-19.115-2.16-43.155-1.74-59.5 9 25.886-7.625 65.516-7.436 84.5 14-48.787-17.486-86.819 9.972-118.5 44l5-15-10.5 11c7.962-15.577 17.285-32.356 33-41 2.893-1.289 6.65-2.752 9-5 2.358-.603 12.667.332 13.5-4-27.701-2.769-53.637 12.811-71.5 32.5L136.5 412c9.286-45.595 47.886-76.176 92.5-84.5-36.341-19.819-73.22-4.074-104 18 11.937-23.676 33.868-41.296 58.5-50.5 4.222-1.578 31.443-6.824 31.5-9.5-7.499-8.552-20.528-5.141-30.5-8.5l-24.5 1.5 51-22.5c4.412-.665 7.491-.923 12-1"/><path fill="#04567a" d="M213 355c-40.411 10.334-65.17 33.98-79.5 73-.991-49.945 36.082-90.452 84.5-99.5-19.483-8.007-44.458-4.29-63.5 3.5-5.347 2.188-34.086 21.944-37.5 17.5 18.688-31.753 45.632-52.569 81-63-14.276-11.367-37.07-6.117-52.5.5 6.883-9.426 18.091-16.757 29-21 7.602-2.957 28.628-8.813 36.5-10l-51 22.5 24.5-1.5c9.972 3.359 23.001-.052 30.5 8.5-.057 2.676-27.278 7.922-31.5 9.5-24.632 9.204-46.563 26.824-58.5 50.5 30.78-22.074 67.659-37.819 104-18-44.614 8.324-83.214 38.905-92.5 84.5l18.5-28.5c17.863-19.689 43.799-35.269 71.5-32.5-.833 4.332-11.142 3.397-13.5 4"/><path fill="#133d68" d="M476 336c-.509 5.214-13.768 1.733-18.5 2-37.059 2.09-74.656 9.468-113 17-8.27 1.624-18.721 6.353-27 8-.987.196-1.194-3.354-3-3-5.82 1.14-11.577 2.79-17.5 4 .652-2.139-1.362-2.28-2-3-18.984-21.436-58.614-21.625-84.5-14 16.345-10.74 40.385-11.16 59.5-9 13.445 1.52 25.855 6.973 39 9.5-1.579-11.357-5.042-22.285-11-32L287.5 304c17.273 9.906 26.388 27.973 35 45 2.516-1.207-8.793-30.654-10.5-34 8.261 1.04 12.506 13.613 20 13 9.232 14.817 11.319 21.336 32 20 2.954-.191 21.458-3.112 22-4.5-8.457-10.813-14.941-23.575-16.5-37.5 17.6 13.122 37.851 36.586 61.5 32.5L403.5 292l42 37 1-63c1.612 9.301 18.446 68.586 24 71 2.074.901 5.104-1.058 5.5-1"/><path fill="#1e90b3" d="M807 273c15.256 6.043 56.824 46.72 67 61 3.563 4.999 10.346 19.673 12 25.5.704 2.48 3.859 9.499-.5 8.5-33.938-34.578-66.718-71.3-104.5-101.5.451-1.262 24.644 5.963 26 6.5"/><path fill="#237397" d="M254 272c15.27 3.431 28.809 11.9 42 20 4.858 7.829 11.753 14.678 16 23 1.707 3.346 13.016 32.793 10.5 34-8.612-17.027-17.727-35.094-35-45l10.5 11.5c5.958 9.715 9.421 20.643 11 32-13.145-2.527-25.555-7.98-39-9.5-13.833-51.243-71.911-32.49-108-19.5 24.099-20.798 64.144-25.88 95.5-22.5-12.632-11.811-29.16-19.424-45.5-24.5 7-7.662 49.819 12.377 51 10z"/><path fill="#14406b" d="M888 501c.154 1.771-.095 2.56-1 4-13.277-3.176-26.868-5.225-40-9-5.118-.881-.227 7.347-7 9-2.972-12.172-6.028-24.12-10-36-1.402-4.194-4.842-20.036-7.5-22-7.447-2.156-15.15-3.559-22.5-6-14.779-4.908-30.393-11.636-45-16l2-2c6.208 1.616 12.801 2.458 19 4 11.507 2.863 25.216 9.253 37 7 4.398-1.873-12.899-20.464-14.5-22-11.851-11.371-27.898-19.821-42.5-27-70.556-34.687-158.85-46.214-237-46l-2-4c1.558-.21 3.738.528 5-.5.85-.693 7.006-16.964 9-20 10.849-16.517 26.76-30.216 43.5-40.5L557 303.5c-.542 3.951-12.19 30.05-8.5 31.5 9.44-1.946 24.568 2.39 33 1 4.863-.802 26.38-13.273 34-16 20.97-7.504 56.212-14.953 78-11 1.433.26 3.502-.537 2 2-25.815-.404-53.466 4.466-75 19 41.865-14.53 91.141-22.777 132-2-22.476-4.203-46.162-6.709-68.5-.5 51.376 1.956 95.033 24.169 133.5 56.5 37.492 31.511 66.06 65.87 70.5 117"/><path fill="#229dbf" d="M758 280c18.747 9.177 36.021 20.44 51 35l-8.5 10c-17.264-11.311-38.674-24.625-59-29-33.141-7.134-101.661-2.333-135 6-3.816.954-8.239 3.573-12 5 .369-2.327 7.042-5.145 9-6 56.777-24.806 91.755-24.705 151.5-18.5 3.069.319 3.231 1.272 3-2.5"/><path fill="#1b4f73" d="M310 300c12.706 9.687 14.145 15.394 22 28-7.494.613-11.739-11.96-20-13-4.247-8.322-11.142-15.171-16-23 4.38 2.69 9.823 4.816 14 8"/><path fill="#65bccb" d="m846 334-1 1c-.23-.415-2.938-1.019-2-3.5 1.371-.965 2.631 2.213 3 2.5"/><path fill="#1d2854" d="m517 335 2 4c-11.436.031-22.618.591-34 1-18.02.648-36.053 1.32-54 3-21.701 2.032-40.692 4.866-62 9-31.783 6.167-66.06 14.708-96 27-12.445 5.109-24.578 10.358-35 19-13.88 8.729-26.724 23.317-31.5 39 4.569 2.517 59.821-14.554 69.5-17 36.401-9.201 69.47-17.275 107-22 16.19-2.038 32.725-3.809 49-5 20.746-1.518 43.209-2.552 64-3v2c-73.321 1.839-146.323 12.42-216 35-3.389.835-6.692 2.145-10 3-14.529 3.755-48.969 16.481-61 17-3.648.157-7.209-1.768-11-1 2.096-7.413 2.016-15.533 7-23 25.872-31.407 31.815-32.011 67.5-49 2.335-1.111 4.108-.699 3.5-4 8.801-1.23 14.162-4.604 21-6 5.923-1.21 11.68-2.86 17.5-4 1.806-.354 2.013 3.196 3 3 8.279-1.647 18.73-6.376 27-8 38.344-7.532 75.941-14.91 113-17 4.732-.267 17.991 3.214 18.5-2 1.585.232 3.397-.199 5 0 11.428 1.417 9.536 1.087 20 0 5.318-.553 10.891-.312 16-1"/><path fill="#fcfdfd" d="M519 339c78.15-.214 166.444 11.313 237 46v1c-15.27-7.801-41.119-15.491-58-20-7.944-2.122-16.962-4.255-25-6-31.753-6.895-64.136-11.016-96.5-14l10.5 37.5c18.288.607 35.041 4.381 50.5 4.5 3.541 3.692 14.778 2.099 20 3 2.809.484 9.48 3.435 12 4 6.004 1.347 12.487 1.592 18.5 3 .025.328.001.669 0 1-.004 2.291-.387 3.872-1 6-60.558-12.381-116.162-15.675-178-15-2.322.025-4.678-.038-7 0-7.37-3.982-16.697 4.141-18-6-1.177-9.158-.614-28.348 0-38 .146-2.29 1.037-3.786 1-6 11.382-.409 22.564-.969 34-1"/><path fill="#dbe8ee" d="M485 340c.037 2.214-.854 3.71-1 6-6.524-1.821-49.385 4.477-51.5 3-1.104-.771.155-4.425-1.5-6 17.947-1.68 35.98-2.352 54-3"/><path fill="#c3d1dc" d="M431 343c1.655 1.575.396 5.229 1.5 6 2.115 1.477 44.976-4.821 51.5-3-.614 9.652-1.177 28.842 0 38-6.958 1.376-48.611.952-51.5 3-1.09.773-.248 4.502-.5 6-16.275 1.191-32.81 2.962-49 5-1.076-.62-3.105-4.251-3-4.5 1.15-2.719 45.095-4.517 51.5-7.5l-1-36-60.5 8c-.059-2.198.438-4.048-1-6 21.308-4.134 40.299-6.968 62-9"/><path fill="#229dbf" d="M842 344c5.766 8.31 11.908 17.904 19 25 10.737 20.708 17.323 38.31 23 61l-19-50.5c-2.465-1.961-5.695 3.196-9 1-1.589-1.056-16.323-27.38-20-32.5z"/><path fill="#9fb6c3" d="M673 360c3.63 11.667 13.334 24.82 15 37 .044.325-.025.67 0 1-6.013-1.408-12.496-1.653-18.5-3-2.52-.565-9.191-3.516-12-4-5.222-.901-16.459.692-20-3-15.459-.119-32.212-3.893-50.5-4.5L576.5 346c32.364 2.984 64.747 7.105 96.5 14"/><path fill="#a2b4c1" d="M383 398c-37.53 4.725-70.599 12.799-107 22l.5-6 102-21c-4.009-13.034-8.121-20.846-8.5-35l60.5-8 1 36c-6.405 2.983-50.35 4.781-51.5 7.5-.105.249 1.924 3.88 3 4.5"/><path fill="#8c9dac" d="M369 352c1.438 1.952.941 3.802 1 6 .379 14.154 4.491 21.966 8.5 35l-102 21-.5 6c-9.679 2.446-64.931 19.517-69.5 17 4.776-15.683 17.62-30.271 31.5-39-5.049 4.186-20.936 18.607-16 25.5 5.429 7.58 42.403-7.753 51.5-8.5l1.5-1.5-2-34.5c29.94-12.292 64.217-20.833 96-27"/><path fill="#266a8d" d="M295 361c.638.72 2.652.861 2 3-6.838 1.396-12.199 4.77-21 6-6.22.869-14.161-.769-20.5 0-46.128 5.598-90.982 61.999-96 107-7.95-11.527-4.435-21.685-2.5-34 2.745-17.467 6.066-26.479 14-42l10.5-11-5 15c31.681-34.028 69.713-61.486 118.5-44"/><path fill="#0b4e77" d="M204 360c-15.715 8.644-25.038 25.423-33 41-7.934 15.521-11.255 24.533-14 42-3.98.307-.164 5.048-5 1 4.902-32.603 20.195-69.828 52-84"/><path fill="#8ea2b0" d="m698 366 12 34.5c-.422 2.666-19.714-3.002-22-3.5-1.666-12.18-11.37-25.333-15-37 8.038 1.745 17.056 3.878 25 6"/><path fill="#7b8f9d" d="M756 386c12.709 6.493 33.547 22.79 43 33.5 3.803 4.309 7.536 17.252 14 14.5-11.784 2.253-25.493-4.137-37-7-.958-5.487-8.823-7.403-13.5-9-23.968-8.181-50.001-12.535-74.5-19 .001-.331.025-.672 0-1-.025-.33.044-.675 0-1 2.286.498 21.578 6.166 22 3.5L698 366c16.881 4.509 42.73 12.199 58 20"/><path fill="#13416e" d="M276 370c.608 3.301-1.165 2.889-3.5 4-35.685 16.989-41.628 17.593-67.5 49-1.762 2.138-7.133 5.13-9 7.5-4.535 5.756-13.469 24.945-2 25.5-.833 3.157-1.036 7.679-2 11-16.44 4.003-22.426 19.062-31 30-4.854 6.193-5.993 1.389-9 2-4.646-18.34-2.756-36.671 0-55 4.836 4.048 1.02-.693 5-1-1.935 12.315-5.45 22.473 2.5 34 5.018-45.001 49.872-101.402 96-107 6.339-.769 14.28.869 20.5 0"/><path fill="#778a99" d="M238 398c10.422-8.642 22.555-13.891 35-19l2 34.5-1.5 1.5c-9.097.747-46.071 16.08-51.5 8.5-4.936-6.893 10.951-21.314 16-25.5"/><path fill="#d7e2e9" d="M484 384c1.303 10.141 10.63 2.018 18 6-1.989.033-4.011-.043-6 0-20.791.448-43.254 1.482-64 3 .252-1.498-.59-5.227.5-6 2.889-2.048 44.542-1.624 51.5-3"/><path fill="#8ca2b2" d="M813 434c-6.464 2.752-10.197-10.191-14-14.5-9.453-10.71-30.291-27.007-43-33.5v-1c14.602 7.179 30.649 15.629 42.5 27 1.601 1.536 18.898 20.127 14.5 22"/><path fill="#5e708b" d="M502 390c2.322-.038 4.678.025 7 0v2c-4.317.05-8.685-.108-13 0v-2c1.989-.043 4.011.033 6 0"/><path fill="#263656" d="M687 405c24.409 4.99 46.212 11.809 70 18l-2 2c-79.991-23.9-162.379-33.972-246-33v-2c61.838-.675 117.442 2.619 178 15"/><path fill="url(#b)" d="M496 392c4.315-.108 8.683.05 13 0 83.621-.972 166.009 9.1 246 33 14.607 4.364 30.221 11.092 45 16 7.729 9.47 22.391 16.845 28 28 6.075 12.081 14.105 58.37 16 73.5 8.624 68.84.189 139.332-33 200.5-51.481 94.883-149.749 146.943-255 158-4.339.456-8.654.671-13 1 .216-3.14-1.601-2.541-3.5-3-10.563-2.551-21.542-3.935-32-7-71.478-20.946-145.919-69.461-159.5-148 2.354-.434 1.891-.977 2-1 41.804-8.695 77.464-31.886 99-69 63.373-109.216-31.584-235.257-152-204-2.132-1.582-1.688-2.025-1-4.5.977-3.514 6.102-14.331 8-18 5.471-10.575 13.69-19.404 19-30-1.31-1.994-36.144 9.442-40.5 10.5-2.62.636-2.369-1.032-2.5-1 69.677-22.58 142.679-33.161 216-35m57 190c-4.008 29.436.762 59.274 16 85 29.38 62.759 96.791 90.085 163 71 .541-.156 1.478.162 2 0-8.742 46.294-43.39 81.762-80.5 108l-53 28c77.424-24.668 170.304-78.394 204.5-155.5 14.866-33.52 21.897-70.88 27-107l-5 5.5c17.743-178.322-250.414-208.235-274-35m-29.5 183c-5.017.446-11.308 6.942-12 7-.668.056-8.509-5.5-12-6-26.308-3.77-45.689 33.82-68 38-3.661.686-9.291-1.273-12.5.5 13.59.644 16.085 13.52 24 22 26.784 28.698 63.869 42.894 102.5 27.5 25.845-10.299 32.689-37.983 56.5-48.5-29.864 4.499-51.355-42.911-78.5-40.5" style="fill:url(#b)"/>/&gt;<path fill="#f6f9fa" d="M776 427c-6.199-1.542-12.792-2.384-19-4-23.788-6.191-45.591-13.01-70-18 .613-2.128.996-3.709 1-6 24.499 6.465 50.532 10.819 74.5 19 4.677 1.597 12.542 3.513 13.5 9"/><path fill="#50b7d2" d="M297 470c-14.404 3.739-33.819 12.37-46 21-3.59-2.618 1.151-15.437 2.5-19 .045-.119 1.858 2.215 2.5.5 5.162-13.801 8.285-28.813 14-42.5 3.308-.855 6.611-2.165 10-3 .131-.032-.12 1.636 2.5 1 4.356-1.058 39.19-12.494 40.5-10.5-5.31 10.596-13.529 19.425-19 30-1.898 3.669-7.023 14.486-8 18-.688 2.475-1.132 2.918 1 4.5"/><path fill="#1a6687" d="M198 446c-.917 3.245-3.196 6.953-4 10-11.469-.555-2.535-19.744 2-25.5 1.867-2.37 7.238-5.362 9-7.5-4.984 7.467-4.904 15.587-7 23"/><path fill="url(#c)" d="M270 430c-5.715 13.687-8.838 28.699-14 42.5-.642 1.715-2.455-.619-2.5-.5-1.349 3.563-6.09 16.382-2.5 19-13.687 9.697-24.814 23.288-34 37-21.24 31.706-28.534 60.921-21 99-4.108 4.627-.505 16.931 1 22.5 19.021 70.367 79.633 107.658 151 94.5 13.581 78.539 88.022 127.054 159.5 148 10.458 3.065 21.437 4.449 32 7 1.899.459 3.716-.14 3.5 3-17.331 1.313-32.636 1.724-50 1-7.362-.307-14.599-.175-22-1-178.255-19.867-301.311-151.653-296-333 .779-26.588 6.126-53.95 11-80 1.178-4.294 2.772-8.655 4-13l19-29c12.031-.519 46.471-13.245 61-17" style="fill:url(#c)"/>/&gt;<path fill="#9cd5e6" d="M830 469h-2c-5.609-11.155-20.271-18.53-28-28 7.35 2.441 15.053 3.844 22.5 6 2.658 1.964 6.098 17.806 7.5 22"/><path fill="#5296aa" d="m209 447-19 29c.826-2.921 1.178-6.168 2-9 .964-3.321 1.167-7.843 2-11 .804-3.047 3.083-6.755 4-10 3.791-.768 7.352 1.157 11 1"/><path fill="#244a5b" d="M449 674c-25.881 32.545-58.748 54.307-101 58-.331.029-.669-.026-1 0v-7c31.427-3.046 81.938-29.144 97-58 16.825-23.545 23.117-53.304 21-82-2.734-37.049-22.779-68.202-52-90-17.626-13.149-37.019-22.452-59-26-28.863-4.658-56.087-.018-82 13-19.236 9.663-41.496 28.766-53 47l-2-1c9.186-13.712 20.313-27.303 34-37 12.181-8.63 31.596-17.261 46-21 120.416-31.257 215.373 94.784 152 204"/><path fill="#405d6c" d="M827 617c-.84 8.442-2.744 19.908-5 28-6.242 5.711-9.273 14.706-14 22-1.003-.146-5.764-.808-6-1 13.51-20.818 20.849-45.181 21-70 .516-84.731-86.777-145.606-167-125-4.226 1.085-8.271 3.612-12 5-6.52 2.428-9.792 3.725-16 7-37.479 19.773-64.9 55.146-70 98l-5 1c23.586-173.235 291.743-143.322 274 35"/><path fill="#366278" d="M192 467c-.822 2.832-1.174 6.079-2 9-1.228 4.345-2.822 8.706-4 13-.095.348-3.698 4.899-4 6-.64-2.347-1.902-.17-3 0-5.766.892-12.168.809-18 2 8.574-10.938 14.56-25.997 31-30"/><path fill="#7e959c" d="M354 469c-.717 2.413-2.581 2.083-4.5 2-15.787-.682-32.54-.858-43.5 11.5 1.958 2.529 15.284-5.755 15 1.5-11.378 1.092-22.874 3.622-33 9-4.056.27-17.249 7.497-21 10l13-8.5-8-12.5c25.913-13.018 53.137-17.658 82-13"/><path fill="#b3bec0" d="m823 596-3-1c6.449-51.055-45.541-95.704-89.5-110l-26.5-1c-9.98-1.236-19.003-1.085-29 0-.206-6.521-7.254-.814-9.5-2-6.666-3.52 9.86-8.895 13-9 6.665-4.228-16.469-.903-18.5-.5-1.766.35-4.303 1.777-4-1.5 80.223-20.606 167.516 40.269 167 125"/><path fill="#b2bdc0" d="m413 495-9-1c-13.461-8.049-33.45-13.853-49-12.5 58.022 12.063 102.375 60.221 104 120.5-1.51 1.807-7.85 8.723-10 7 1.96-26.176-4.741-50.398-19-72-23.912-36.225-65.088-57.214-109-53 .284-7.255-13.042 1.029-15-1.5 10.96-12.358 27.713-12.182 43.5-11.5 1.919.083 3.783.413 4.5-2 21.981 3.548 41.374 12.851 59 26"/><path fill="#e3f5fb" d="M830 469c3.972 11.88 7.028 23.828 10 36 .679 2.779 1.707 6.459 3 9-.076 7.529 3.041 17.021 4 25 1.874 15.593 4.565 31.236 5 47 .2 7.244.241 14.759 0 22-.697 20.935-3.926 42.699-9 63-7.072 28.293-19.51 56.805-34 82 .892-2.023 3.187-7.597 2-10 33.189-61.168 41.624-131.66 33-200.5-1.895-15.13-9.925-61.419-16-73.5z"/><path fill="#5e828d" d="M675 484c-14.912 1.618-27.759 6.149-41 13-2.485-15.697 12.349-7.536 10-21 3.729-1.388 7.774-3.915 12-5-.303 3.277 2.234 1.85 4 1.5 2.031-.403 25.165-3.728 18.5.5-3.14.105-19.666 5.48-13 9 2.246 1.186 9.294-4.521 9.5 2"/><path fill="#7e9299" d="M644 476c2.349 13.464-12.485 5.303-10 21-1.071.554-2.711.838-3 1l-3-15c6.208-3.275 9.48-4.572 16-7"/><path fill="#dfe8e9" d="M404 494c33.279 19.898 62.012 64.318 59 104-.76 2.093-2.823 2.592-4 4-1.625-60.279-45.978-108.437-104-120.5 15.55-1.353 35.539 4.451 49 12.5"/><path fill="#597f8b" d="M267 503c-14.567 9.721-27.347 24.861-36 40-7.626 13.341-11.638 22.549-14 38-3.596.443.519-3.292-1.5-5-1.457-1.233-11.825-.479-14.5-2 2.366-12.877 10.975-33.866 18-45 11.504-18.234 33.764-37.337 53-47l8 12.5z"/><path fill="#181e34" d="m430 537 11 28-15 2c-4.516-14.408-15.988-29.937-27-40-27.208-24.864-62.948-31.136-98-20-5.462-4.263-5.683-14.487-13-14 10.126-5.378 21.622-7.908 33-9 43.912-4.214 85.088 16.775 109 53"/><path fill="#5e828d" d="m628 483 3 15c-3.947 2.217-10.353 7.053-14 10-7.176 5.799-14.431 13.637-20 21-6.784 4.238-13.999 17.873-17 25.5-2.091 5.314-6.814 29.924-8 31-.809.734-12.526-1.409-15-.5.127-1.651.798-2.304 1-4 5.1-42.854 32.521-78.227 70-98"/><path fill="#192036" d="M704 484c15.549 1.925 32.56 7.991 46 16 14.585 8.691 26.424 21.101 36 35 4.3 9.514 8.21 18.822 11 29l-15 3c-4.902-15.385-14.191-29.044-26-40-26.755-24.823-64.455-32.154-99-20-.509-.257-10.334-2.934-11-3-1.856-1.419-11.871-2.29-13.5-2-5.463.971-10.219 6.855-15.5 6 3.647-2.947 10.053-7.783 14-10 .289-.162 1.929-.446 3-1 13.241-6.851 26.088-11.382 41-13 9.997-1.085 19.02-1.236 29 0"/><path fill="#e0e8e9" d="M820 595c-.601 4.76-1.491 2.77-3 5-3.401-9.125-2.602-19.824-5-29.5-5.171-20.863-22.064-43.966-38.5-57.5-5.648-4.651-16.721-12.834-23.5-13-13.44-8.009-30.451-14.075-46-16l26.5 1c43.959 14.296 95.949 58.945 89.5 110"/><path fill="#353c43" d="M175 569c-3.169 30.579-.269 61.095 6 91-6.488.131-.178 10.987-4 11l-64.5-11c-4.433-2.996 1.359-17.304-.5-21.5-1.147-2.589-13.73-1.526-16.5-2.5-4.933-1.733-18.28-14.071-20.5-19.5-6.55-16.015-6.449-72.472 7-84 5.391-4.621 21.65-2.205 28.5-1.5 3.926-1.925-.948-21.342 3-24 1.631-1.098 33.307-6.945 38.5-8 3.007-.611 4.146 4.193 9-2 5.832-1.191 12.234-1.108 18-2l-5.5 43c3.369-14.208 4.636-28.903 8.5-43 .302-1.101 3.905-5.652 4-6-4.874 26.05-10.221 53.412-11 80m-59 3c-.1 28.167-2.077 56.352 0 84.5 1.466 2.443 53.246 11.229 56 10.5.853-.226 2.452.499 3-.5-2.978-22.072-5.432-44.142-6-66.5-.488-19.208-.294-41.36 1-60.5.351-5.193 6.717-40.8 4.5-41.5L115 511.5c-.962 20.177 1.071 40.385 1 60.5m-21 6c-.055 8.307-.13 16.695 0 25 .148 9.482-.109 19.005 0 28.5.96 2.165 11.295 1.816 13.5 1.5.836-.12.404-1.964.5-2 1.264-.477.735 2.807 2 1.5-.836-11.521.689-23.073 1-34.5.209-7.671 1.261-59.641 0-62.5-.683-1.549-16.722-3.586-18-1 1.596 14.419 1.097 29.03 1 43.5m-21 11c.47 11.98 2.772 35.157 17 37.5.96-.973-1.052-22.451-1-25.5.135-7.93 3.2-65.018.5-67-.458-.337-2.973.228-4 0-11.217 14.732-13.222 36.624-12.5 55"/><path fill="#162d57" d="M288 493c7.317-.487 7.538 9.737 13 14-18.433 5.856-35.743 18.157-47 34-2.438 3.431-7.169 8.879-8 13-9.722 14.696-12.024 31.74-11 49h-15c-.402-9.155.003-18.393 1-27.5l10-32.5c8.653-15.139 21.433-30.279 36-40 3.751-2.503 16.944-9.73 21-10"/><path fill="#c4cdcd" d="M413 495c29.221 21.798 49.266 52.951 52 90-2.008 4.341-.306 8.332-2 13 3.012-39.682-25.721-84.102-59-104z"/><path fill="#85999d" d="M182 495c-3.864 14.097-5.131 28.792-8.5 43l5.5-43c1.098-.17 2.36-2.347 3 0"/><path fill="#444f55" d="M847 496c5.106 23.292 7.469 47.16 9 71 .812 12.635 2.183 26.406 2 39-.28 19.322-3.219 32.425-6 51-7.224 1.705-1.728 10.331-5 15-.641.078-1.347.005-2 0-.982-.008-2.032.348-2-1 5.074-20.301 8.303-42.065 9-63 3.481-3.508 2.155-14.442 2-19.5-.056-1.828.881-4.483-2-2.5-.435-15.764-3.126-31.407-5-47 2.301-2.21 3-2.026 3-5.5 0-2.197-3.385-26.103-4-28-.098-.302-1.5-1.981-2-1 .43 3.365-.967 6.185-1 9.5-1.293-2.541-2.321-6.221-3-9 6.773-1.653 1.882-9.881 7-9"/><path fill="#f9fbfc" d="M887 505c3.27.782 17.899 2.19 19 4.5 1.192 20.1-1.156 40.501-1 60.5h-2c-.052-19.153.038-38.335 0-57.5-5.208-.606-41.012-10.069-42-7l8 63-13-1.5c-1.531-23.84-3.894-47.708-9-71 13.132 3.775 26.723 5.824 40 9"/><path fill="#eff3f6" d="M169 600h-3c-.401-11.246-1.265-23.887-1-35 .49-20.562 5.037-42.087 4.5-62L119 513.5c-2.303 19.431-.206 39.117-1 58.5-.061 1.484.367 10.995-.5 11l-1.5-11c.071-20.115-1.962-40.323-1-60.5l59.5-13.5c2.217.7-4.149 36.307-4.5 41.5-1.294 19.14-1.488 41.292-1 60.5"/><path fill="#bbc5c8" d="M817 600c-.185.274 3.475 4.622-2.5 2l-9.5 11c3.777-30.967-1.647-52.812-19-78-9.576-13.899-21.415-26.309-36-35 6.779.166 17.852 8.349 23.5 13 16.436 13.534 33.329 36.637 38.5 57.5 2.398 9.676 1.599 20.375 5 29.5"/><path fill="#64869b" d="M756 527h-1l-32 18c-15.198-8.429-34.033-10.606-51-8 .674-10.982-4.755-24.839-15-30 34.545-12.154 72.245-4.823 99 20"/><path fill="#3a3d42" d="M893 502c23.623 4.907 15.428 3.392 17.5 27 28.304-1.996 35.691.888 39.5 29.5 1.586 11.915 1.39 61.615-7.5 68.5-.61.473-12.272 6.743-13 7-3.784 1.336-15.472.875-18 2-4.264 1.898.748 17.66-.5 20.5-1.331 3.03-56.692 14.616-64 15.5 3.272-4.669-2.224-13.295 5-15-.421 2.81-2.214 6.428-2 9.5 1.789 2.313 50.385-10.174 57-12-1.266-17.809-1.062-35.66-1-53.5.036-10.35-.92-20.776-1-31-.156-19.999 2.192-40.4 1-60.5-1.101-2.31-15.73-3.718-19-4.5.905-1.44 1.154-2.229 1-4 1.746 1.517 3.348.657 5 1m18 64c-.119 9.26-1.13 18.602-1 28 .072 5.197-1.046 36.691 1.5 38 1.987-.32 15.175-.792 15.5-1.5.68-1.481.121-30.099-1-31.5l1-66.5c-.982-1.386-16.427.192-17 1-1.571 2.216 1.059 27.894 1 32.5m20 19c.289 13.977-.627 28.036.5 42 15.776-.211 15.262-29.653 15.5-42 .259-13.395 2.168-51.632-16-51.5-2.055 17.201-.355 34.318 0 51.5"/><path fill="#6c8698" d="m399 527-30 20c-19.014-11.745-47.583-13.189-68-4-13.578-13.575-31.426-8.579-47-2 11.257-15.843 28.567-28.144 47-34 35.052-11.136 70.792-4.864 98 20"/><path fill="#14315c" d="M646 504c-23.568-2.326-43.571 17.058-37 41-13.264 16.857-18.487 39.635-17 61-4.207-4.858-8.808-2.559-15-3-.392-8.666.404-20.985 2-29.5 2.602-13.886 10-26.564 15-39.5.849-1.246 1.731-3.323 3-5 5.569-7.363 12.824-15.201 20-21 5.281.855 10.037-5.029 15.5-6 1.629-.29 11.644.581 13.5 2"/><path fill="#b3cad7" d="M165 565c-14.692 7.054-30.915 7.525-47 7 .794-19.383-1.303-39.069 1-58.5l50.5-10.5c.537 19.913-4.01 41.438-4.5 62"/><path fill="#fefefe" d="M646 504c.666.066 10.491 2.743 11 3 10.245 5.161 15.674 19.018 15 30-1.117 18.189-18.643 30.431-36 29-10.36-.854-24.191-10.766-27-21-6.571-23.942 13.432-43.326 37-41"/><path fill="#283a4d" d="M847 539c-.959-7.979-4.076-17.471-4-25 .033-3.315 1.43-6.135 1-9.5.5-.981 1.902.698 2 1 .615 1.897 4 25.803 4 28 0 3.474-.699 3.29-3 5.5"/><path fill="#acc3cf" d="M903 570c-10.944 0-21.978 2.345-33-.5V607c-4.101-.119-7.943-.684-12-1 .183-12.594-1.188-26.365-2-39l13 1.5-8-63c.988-3.069 36.792 6.394 42 7 .038 19.165-.052 38.347 0 57.5"/><path fill="url(#d)" d="M426 567c7.125 22.734 4.92 46.581-5 68-40.779 88.047-180.233 65.204-186-32-1.024-17.26 1.278-34.304 11-49-3.096 15.35 8.682 34.132 24 38-3.713 62.979 78.84 92.059 117 40.5 19.87-26.846 10.187-68.088-18-85.5l30-20c11.012 10.063 22.484 25.592 27 40m-25.5 57c-13.959.392-10.612 19.177-12.5 24.5-.547 1.544-22.69 18.921-25.5 20.5-10.116 5.685-21.482 6.681-30.5 12.5 22.211 5.225 85.248-25.236 77-52-.587-1.905-5.979-5.571-8.5-5.5" style="fill:url(#d)"/>/&gt;<path fill="#347790" d="M755 527c20.081 20.759 19.15 54.674 0 76 1.126-22.464-12.339-47.095-32-58z"/><path fill="url(#e)" d="M782 567c7.762 24.362 6.333 43.796-4 67-39.919 89.644-179.522 65.111-186-28-1.487-21.365 3.736-44.143 17-61 2.809 10.234 16.64 20.146 27 21-25.75 31.015 1.807 81.119 37.5 90 36.57 9.099 79.486-12.835 81.5-53 19.15-21.326 20.081-55.241 0-76h1c11.809 10.956 21.098 24.615 26 40m-41.5 77c-7.234 1.164-8.335 14.093-11 17-.68.742-15.973 8.186-18 9-17.812 7.157-36.535 8.195-55.5 8.5 20.668 12.098 85.468 4.581 94-20 2.107-6.071-2.127-15.686-9.5-14.5" style="fill:url(#e)"/>/&gt;<path fill="#1c1f24" d="M219 529c-7.025 11.134-15.634 32.123-18 45-7.39 40.215 3.471 78.284 31 108 28.796 31.084 72.755 47.094 115 43v7c-67.364 5.192-137.37-36.108-151-105-7.534-38.079-.24-67.294 21-99z"/><path fill="#387a8d" d="M597 529c-1.269 1.677-2.151 3.754-3 5-14.086 20.671-21.681 41.15-21 67-5.538 2.618-.119 13.793 0 16.5.253 5.735-2.222 6.766-1 14 1.752 10.374 16.787 35.311 24 43.5l-8 5c-23.581-26.742-33.751-59.348-31-95 2.474-.909 14.191 1.234 15 .5 1.186-1.076 5.909-25.686 8-31 3.001-7.627 10.216-21.262 17-25.5"/><path fill="#e8eef0" d="M926 599c-.059-.074-.94-.962-1-1 .731-11.365-.54-22.707-1-34-.371-9.124.273-18.356 0-27.5l-11.5-.5.5 30c-.505.148-1.359-.075-2 0 .059-4.606-2.571-30.284-1-32.5.573-.808 16.018-2.386 17-1z"/><path fill="#cedde6" d="m112 598-3-31.5c-7.437 1.742-10.481 5.123-14 11.5.097-14.47.596-29.081-1-43.5 1.278-2.586 17.317-.549 18 1 1.261 2.859.209 54.829 0 62.5"/><path fill="#f0f5f7" d="M947 585c-1.036.272-2.031 4.286-3 .5-3.108-12.14 4.677-34.686-9.5-44.5l-3.5 44c-.355-17.182-2.055-34.299 0-51.5 18.168-.132 16.259 38.105 16 51.5"/><path fill="#f7f9fa" d="M90 601h-1c.01-.333-.009-.667 0-1 .171-6.545 1.027-53.913-1.5-55-6.02.315-5.951 8.556-8.5 12.5L74 589c-.722-18.376 1.283-40.268 12.5-55 1.027.228 3.542-.337 4 0 2.7 1.982-.365 59.07-.5 67"/><path fill="#a6cee5" d="M301 543c21.864 21.858.769 57.022-31 49-15.318-3.868-27.096-22.65-24-38 .831-4.121 5.562-9.569 8-13 15.574-6.579 33.422-11.575 47 2"/><path fill="#0e131d" d="M577 603c5.127 113.427 170.759 143.124 216 37 11.48-26.93 11.708-47.879 4-76-2.79-10.178-6.7-19.486-11-29 17.353 25.188 22.777 47.033 19 78-1.402 11.495-4.606 21.344-9 32-1.655 3.02-3.499 5.851-5 9-56.967 96.312-215.01 60.58-218-53-.681-25.85 6.914-46.329 21-67-5 12.936-12.398 25.614-15 39.5-1.596 8.515-2.392 20.834-2 29.5"/><path fill="url(#f)" d="M723 545c19.661 10.905 33.126 35.536 32 58-2.014 40.165-44.93 62.099-81.5 53-35.693-8.881-63.25-58.985-37.5-90 17.357 1.431 34.883-10.811 36-29 16.967-2.606 35.802-.429 51 8m-61.5 18c-14.386 1.995-13.072 25.268 6 21 12.872-2.88 10.865-23.339-6-21" style="fill:url(#f)"/>/&gt;<path fill="#c9d8e3" d="M924 564c-3.689 1.112-7.261.9-11 2l-.5-30 11.5.5c.273 9.144-.371 18.376 0 27.5"/><path fill="url(#g)" d="M369 547c28.187 17.412 37.87 58.654 18 85.5-38.16 51.559-120.713 22.479-117-40.5 31.769 8.022 52.864-27.142 31-49 20.417-9.189 48.986-7.745 68 4" style="fill:url(#g)"/>/&gt;<path fill="#0e121c" d="M430 537c14.259 21.602 20.96 45.824 19 72-1.115 14.893-6.783 28.69-13 42-.288.52-1.131 1.427-2 3-61.405 101.408-226.878 56.34-218-65 .216-2.947.565-5.157 1-8 2.362-15.451 6.374-24.659 14-38l-10 32.5c-.997 9.107-1.402 18.345-1 27.5 4.985 113.503 167.497 142.6 215 39 12.263-26.744 13.423-48.31 6-77z"/><path fill="#adc4d0" d="M947 585c-.238 12.347.276 41.789-15.5 42-1.127-13.964-.211-28.023-.5-42l3.5-44c14.177 9.814 6.392 32.36 9.5 44.5.969 3.786 1.964-.228 3-.5m-3.5 13c-10.13 3.709-13.027 3.863-10.5 16.5 3.656 18.281 13.676-10.072 10.5-16.5"/><path fill="#b0c6d2" d="m89 600-10.5-3c-2.763.767 1.025 28.148 10.5 20.5.122-5.492-.169-11.022 0-16.5h1c-.052 3.049 1.96 24.527 1 25.5-14.228-2.343-16.53-25.52-17-37.5l5-31.5c2.549-3.944 2.48-12.185 8.5-12.5 2.527 1.087 1.671 48.455 1.5 55"/><path fill="#fdfdfe" d="M661.5 563c16.865-2.339 18.872 18.12 6 21-19.072 4.268-20.386-19.005-6-21"/><path fill="#14315c" d="M797 564c7.708 28.121 7.48 49.07-4 76-4.436 3.377-10.349-5.831-15-6 10.333-23.204 11.762-42.638 4-67z"/><path fill="#162d57" d="M441 565c7.423 28.69 6.263 50.256-6 77l-14-7c9.92-21.419 12.125-45.266 5-68z"/><path fill="#91a4af" d="M924 564c.46 11.293 1.731 22.635 1 34-.658-.412-12.957-3.232-15-4-.13-9.398.881-18.74 1-28 .641-.075 1.495.148 2 0 3.739-1.1 7.311-.888 11-2"/><path fill="#758b97" d="M166 600c.026.737-.011 1.735 0 2-15.713 8.247-31.211 8.384-48 3.5v48l53 11.5c.001.112 1.558-.062 1 2-2.754.729-54.534-8.057-56-10.5-2.077-28.148-.1-56.333 0-84.5l1.5 11c.867-.005.439-9.516.5-11 16.085.525 32.308.054 47-7-.265 11.113.599 23.754 1 35"/><path fill="#8496a0" d="M112 598c-.311 11.427-1.836 22.979-1 34.5-1.265 1.307-.736-1.977-2-1.5-1.631-5.341 3.164-31.196-1.5-32-.647-.112-9.418 5.914-12.5 4-.13-8.305-.055-16.693 0-25 3.519-6.377 6.563-9.758 14-11.5z"/><path fill="#6cb9cb" d="M471 902c5.71 4.341 17.926 2.443 22 9-149.172-8.515-280.535-100.903-312-251-6.269-29.905-9.169-60.421-6-91-5.311 181.347 117.745 313.133 296 333"/><path fill="#6d828d" d="M903 570c.029 10.603-.791 21.502 1 32-1.232.467-1.894.964-2 1-9.032 3.099-21.39 4-31 4-.333 0-.667.01-1 0v-37.5c11.022 2.845 22.056.5 33 .5"/><path fill="#9dadb4" d="M905 570c.08 10.224 1.036 20.65 1 31-.799.082-1.147.677-2 1-1.791-10.498-.971-21.397-1-32z"/><path fill="#30778d" d="M217 581c-.435 2.843-.784 5.053-1 8-1.821-.862-2.915 3.857-3 4.5-3.761 28.519 5.776 59.354 25 81.5l-6 7c-27.529-29.716-38.39-67.785-31-108 2.675 1.521 13.043.767 14.5 2 2.019 1.708-2.096 5.443 1.5 5"/><path fill="#255566" d="M558 581c-.202 1.696-.873 2.349-1 4-2.751 35.652 7.419 68.258 31 95 57.303 64.984 166.393 59.357 214-14 .236.192 4.997.854 6 1-18.195 28.076-47.287 52.024-80 61-59.904 16.437-126.965-6.916-159-61-15.238-25.726-20.008-55.564-16-85z"/><path fill="#92a3a6" d="M444 667c1.375-2.635 7.997-20.973 9-24.5 2.385-8.383 3.008-17.389 4-26-5.654 12.167-14.574 22.898-21 34.5 6.217-13.31 11.885-27.107 13-42 2.15 1.723 8.49-5.193 10-7 1.177-1.408 3.24-1.907 4-4 1.694-4.668-.008-8.659 2-13 2.117 28.696-4.175 58.455-21 82"/><path fill="#2f3a44" d="M852 608c.241-7.241.2-14.756 0-22 2.881-1.983 1.944.672 2 2.5.155 5.058 1.481 15.992-2 19.5"/><path fill="#7399a4" d="M216 589c-8.878 121.34 156.595 166.408 218 65-.859 1.556-.442 7.391-1 8.5-34.163 67.914-148.25 66.355-195 12.5-19.224-22.146-28.761-52.981-25-81.5.085-.643 1.179-5.362 3-4.5"/><path fill="#66767d" d="M925 598c.06.038.941.926 1 1 1.121 1.401 1.68 30.019 1 31.5-.325.708-13.513 1.18-15.5 1.5-2.546-1.309-1.428-32.803-1.5-38 2.043.768 14.342 3.588 15 4"/><path fill="#90a2a6" d="M823 596c-.151 24.819-7.49 49.182-21 70-2.033-1.649 16.318-41.818 12-49.5-4.422 10.116-12.885 19.169-18 28.5 4.394-10.656 7.598-20.505 9-32l9.5-11c5.975 2.622 2.315-1.726 2.5-2 1.509-2.23 2.399-.24 3-5z"/><path fill="#53636b" d="M89 600c-.009.333.01.667 0 1-.169 5.478.122 11.008 0 16.5-9.475 7.648-13.263-19.733-10.5-20.5z"/><path fill="#56666e" d="M943.5 598c3.176 6.428-6.844 34.781-10.5 16.5-2.527-12.637.37-12.791 10.5-16.5"/><path fill="#617178" d="M109 631c-.096.036.336 1.88-.5 2-2.205.316-12.54.665-13.5-1.5-.109-9.495.148-19.018 0-28.5 3.082 1.914 11.853-4.112 12.5-4 4.664.804-.131 26.659 1.5 32"/><path fill="#96a6aa" d="M169 600c.568 22.358 3.022 44.428 6 66.5-.548.999-2.147.274-3 .5.558-2.062-.999-1.888-1-2-.173-20.911-4.155-41.983-5-63-.011-.265.026-1.263 0-2z"/><path fill="#779ba6" d="M573 601c2.99 113.58 161.033 149.312 218 53-.76 1.594.128 6.201 0 6.5-30.288 70.42-148.16 67.681-195 14.5-7.213-8.189-22.248-33.126-24-43.5-1.222-7.234 1.253-8.265 1-14-.119-2.707-5.538-13.882 0-16.5"/><path fill="#677a82" d="M852 657c2.781-18.575 5.72-31.678 6-51 4.057.316 7.899.881 12 1 .333.01.667 0 1 0l-8 54.5 41-10-2-48.5c.106-.036.768-.533 2-1 .853-.323 1.201-.918 2-1-.062 17.84-.266 35.691 1 53.5-6.615 1.826-55.211 14.313-57 12-.214-3.072 1.579-6.69 2-9.5"/><path fill="#4b5f69" d="M166 602c.845 21.017 4.827 42.089 5 63l-53-11.5v-48c16.789 4.884 32.287 4.747 48-3.5"/><path fill="#024870" d="M235 603c5.767 97.204 145.221 120.047 186 32l14 7c-47.503 103.6-210.015 74.503-215-39z"/><path fill="#02507a" d="M592 606c6.478 93.111 146.081 117.644 186 28 4.651.169 10.564 9.377 15 6-45.241 106.124-210.873 76.427-216-37 6.192.441 10.793-1.858 15 3"/><path fill="#42535d" d="m902 603 2 48.5-41 10 8-54.5c9.61 0 21.968-.901 31-4"/><path fill="#c6e0ed" d="M734 738c41.376-12.829 76.496-51.745 88-93 2.256-8.092 4.16-19.558 5-28l5-5.5c-5.103 36.12-12.134 73.48-27 107-34.196 77.106-127.076 130.832-204.5 155.5l53-28c37.11-26.238 71.758-61.706 80.5-108"/><path fill="#597f8b" d="M444 667c-15.062 28.856-65.573 54.954-97 58-42.245 4.094-86.204-11.916-115-43l6-7c46.75 53.855 160.837 55.414 195-12.5.558-1.109.141-6.944 1-8.5.869-1.573 1.712-2.48 2-3 6.426-11.602 15.346-22.333 21-34.5-.992 8.611-1.615 17.617-4 26-1.003 3.527-7.625 21.865-9 24.5"/><path fill="#5e828d" d="M802 666c-47.607 73.357-156.697 78.984-214 14l8-5c46.84 53.181 164.712 55.92 195-14.5.128-.299-.76-4.906 0-6.5 1.501-3.149 3.345-5.98 5-9 5.115-9.331 13.578-18.384 18-28.5 4.318 7.682-14.033 47.851-12 49.5"/><path fill="#69f6fe" d="M400.5 624c2.521-.071 7.913 3.595 8.5 5.5 8.248 26.764-54.789 57.225-77 52 9.018-5.819 20.384-6.815 30.5-12.5 2.81-1.579 24.953-18.956 25.5-20.5 1.888-5.323-1.459-24.108 12.5-24.5"/><path fill="#2e5f72" d="M347 732c.331-.026.669.029 1 0l2 11c-.109.023.354.566-2 1-71.367 13.158-131.979-24.133-151-94.5-1.505-5.569-5.108-17.873-1-22.5 13.63 68.892 83.636 110.192 151 105"/><path fill="#43f5fe" d="M740.5 644c7.373-1.186 11.607 8.429 9.5 14.5-8.532 24.581-73.332 32.098-94 20 18.965-.305 37.688-1.343 55.5-8.5 2.027-.814 17.32-8.258 18-9 2.665-2.907 3.766-15.836 11-17"/><path fill="#758e9a" d="M822 645c-11.504 41.255-46.624 80.171-88 93-.522.162-1.459-.156-2 0l-4-10c32.713-8.976 61.805-32.924 80-61 4.727-7.294 7.758-16.289 14-22"/><path fill="#2a5767" d="M181 660c31.465 150.097 162.828 242.485 312 251 113.053 6.453 267.096-47.14 316-158 14.49-25.195 26.928-53.707 34-82-.032 1.348 1.018.992 2 1-6.842 17.763-9.933 36.779-17 54.5-23.38 58.629-76.5 110.268-130.5 141.5C506.956 978.206 229.365 897.293 177 671c3.822-.013-2.488-10.869 4-11"/><path fill="#5e8290" d="m728 728 4 10c-66.209 19.085-133.62-8.241-163-71 32.035 54.084 99.096 77.437 159 61"/><path fill="#447181" d="M449 674c-21.536 37.114-57.196 60.305-99 69l-2-11c42.252-3.693 75.119-25.455 101-58"/><path fill="#b6f6fd" d="M809 753c-48.904 110.86-202.947 164.453-316 158-4.074-6.557-16.29-4.659-22-9 7.401.825 14.638.693 22 1-.456 3.06 4.599 3.683 6.5 4 8.677 1.446 26.112 2.192 35 2 3.785-.082 29.067-1.841 29.5-3.5l-8-4.5c105.251-11.057 203.519-63.117 255-158 1.187 2.403-1.108 7.977-2 10"/><path fill="#12151f" d="M523.5 765c27.145-2.411 48.636 44.999 78.5 40.5-23.811 10.517-30.655 38.201-56.5 48.5-38.631 15.394-75.716 1.198-102.5-27.5-7.915-8.48-10.41-21.356-24-22 3.209-1.773 8.839.186 12.5-.5 22.311-4.18 41.692-41.77 68-38 3.491.5 11.332 6.056 12 6 .692-.058 6.983-6.554 12-7M453 796c-3.177 1.685-6.324 3.577-9 6-1.954.334-3.695.919-5 2.5-.417 1.075 1.843 2.246 2.5 2.5 29.355 11.321 95.665 6.899 126.5 0 2.297-.514 4.747-1.233 7-2 .664-.226 2.817.455 3-.5-14.575-9.965-38.951-41.58-58.5-32.5-1.32.613-5.286 5.964-6 6-.849.043-10.541-7.528-15-8-16.362-1.733-33.887 16.379-45.5 26m-9 23c31.72 41.957 90.525 52.272 126 9 5.324-4.331 8.537-9.986 13-15 1.285-1.444 6.142-3.561 5.5-6-22.49 1.168-43.987 9.672-66.5 11-29.205 1.723-58.457-3.553-86.5-11 1.09 4.345 5.79 8.416 8.5 12"/><path fill="#f4f0f6" d="M575 805c-7.167-6.526-14.162-13.243-22-19-2.153-1.582-10.629-9.155-12.5-9-1.287.107-3.238 4.191-7 5-7.142 1.535-20.108-4.363-23-4-.318.04-3.664 3.91-5 4-8.547.573-22.236-4.429-25-4-1.632.253-22.01 15.088-27.5 18 11.613-9.621 29.138-27.733 45.5-26 4.459.472 14.151 8.043 15 8 .714-.036 4.68-5.387 6-6 19.549-9.08 43.925 22.535 58.5 32.5-.183.955-2.336.274-3 .5"/><path fill="#c2b0c3" d="M553 786c-10.205 4.927-13.946 14.501-26.5 17-24.59 4.894-41.887-13.097-54-11-2.007.347-16.874 9.734-20.5 11-2.068-.07-7.138-1.147-8-1 2.676-2.423 5.823-4.315 9-6 5.49-2.912 25.868-17.747 27.5-18 2.764-.429 16.453 4.573 25 4 1.336-.09 4.682-3.96 5-4 2.892-.363 15.858 5.535 23 4 3.762-.809 5.713-4.893 7-5 1.871-.155 10.347 7.418 12.5 9"/><path fill="#ad97ab" d="M575 805c-2.253.767-4.703 1.486-7 2-23.259-1.689-46.09 3.409-69.5 2-15.087-.908-30.507-5.457-46.5-6 3.626-1.266 18.493-10.653 20.5-11 12.113-2.097 29.41 15.894 54 11 12.554-2.499 16.295-12.073 26.5-17 7.838 5.757 14.833 12.474 22 19"/><path fill="#80657b" d="M444 802c.862-.147 5.932.93 8 1 15.993.543 31.413 5.092 46.5 6 23.41 1.409 46.241-3.689 69.5-2-30.835 6.899-97.145 11.321-126.5 0-.657-.254-2.917-1.425-2.5-2.5 1.305-1.581 3.046-2.166 5-2.5"/><path fill="#987f93" d="M522 818c-1.421 1.366-.569 4.438-1.5 5-2.864 1.729-40.77.845-46.5 0-8.856-1.305-15.781-5.561-24.5-6l7.5 10c-.594-.375-1.492 1.627-2.5 1-3.393-2.109-6.024-8.104-10.5-9-2.71-3.584-7.41-7.655-8.5-12 28.043 7.447 57.295 12.723 86.5 11"/><path fill="#b4a4b3" d="M583 813c-5.947.285-12.405 10.393-17.5 14-7.035 4.98-21.46 14.391-25.5 3 11.607-2.189 23.941-6.789 32.5-15l-1-2c-18.254 8.667-39.411 9.958-58.5 14.5-.044 1.106 7.306 3.169 9 3.5-8.413 2.644-21.677 1.534-30.5 0-4.202-.731-17.289-3.152-17.5-8 5.73.845 43.636 1.729 46.5 0 .931-.562.079-3.634 1.5-5 22.513-1.328 44.01-9.832 66.5-11 .642 2.439-4.215 4.556-5.5 6"/><path fill="#a08b9c" d="M583 813c-4.463 5.014-7.676 10.669-13 15-22.688 18.458-42.366 21.258-68.5 18-3.337-.416-2.427 2.102-3 2-16.311-2.888-28.031-12.481-41.5-21l-7.5-10c8.719.439 15.644 4.695 24.5 6 .211 4.848 13.298 7.269 17.5 8 8.823 1.534 22.087 2.644 30.5 0 7.802 1.527 10.552.405 18-1 4.04 11.391 18.465 1.98 25.5-3 5.095-3.607 11.553-13.715 17.5-14"/><path fill="#fcfbfc" d="M540 830c-7.448 1.405-10.198 2.527-18 1-1.694-.331-9.044-2.394-9-3.5 19.089-4.542 40.246-5.833 58.5-14.5l1 2c-8.559 8.211-20.893 12.811-32.5 15"/><path fill="#76586f" d="M457 827c13.469 8.519 25.189 18.112 41.5 21 .573.102-.337-2.416 3-2 26.134 3.258 45.812.458 68.5-18-35.475 43.272-94.28 32.957-126-9 4.476.896 7.107 6.891 10.5 9 1.008.627 1.906-1.375 2.5-1"/><path fill="#7cd4e8" d="m556 901 8 4.5c-.433 1.659-25.715 3.418-29.5 3.5-8.888.192-26.323-.554-35-2-1.901-.317-6.956-.94-6.5-4 17.364.724 32.669.313 50-1 4.346-.329 8.661-.544 13-1"/></svg>