<svg xmlns="http://www.w3.org/2000/svg" width="1024" height="1024"><defs><linearGradient id="a" x1="678.072" x2="352.764" y1="392.316" y2="564.358" gradientUnits="userSpaceOnUse"><stop offset="0%" style="stop-color:#1788ac"/><stop offset="45.924%" style="stop-color:#63c3dd"/><stop offset="66.304%" style="stop-color:#61c3dc"/><stop offset="100%" style="stop-color:#21a3c2"/></linearGradient></defs><defs><linearGradient id="b" x1="471.245" x2="524.806" y1="445.99" y2="522.018" gradientUnits="userSpaceOnUse"><stop offset="0%" style="stop-color:#285d8f"/><stop offset="100%" style="stop-color:#15375d"/></linearGradient></defs><defs><linearGradient id="c" x1="637.496" x2="413.117" y1="790.883" y2="807.593" gradientUnits="userSpaceOnUse"><stop offset="0%" style="stop-color:#658592"/><stop offset="100%" style="stop-color:#8ba1aa"/></linearGradient></defs><path fill="#0b5085" d="M302 222c-.132.073.391 1.719-.5 2-13.285-5.197-23.705-17.363-34.5-27-3.66-4.157-4.32-2.601-5-3.5-1.5-1.983 1.858-2.759-1-6-2.63-2.983-2.076 3.796-5-4-.115-.306 3.485.084-.5-4.5-3.86 4.416-9.398 7.415-14.5 10-.748.379-3.299-.259-4.5 0l-.5 2.5c3.018 4.28 4.525 9.462 7 14 6.235 11.432 25.493 34.235 29 44.5.352 1.029 1.24 1.371 1 2.5-.288.812-1.934 1.394-2 1.5-4.33-4.992-9.506-9.845-13-15.5-5.675-9.186-21.923-46.178-28.5-50.5-9.771-6.422-24.422-7.102-27.5-24.5-8.997-50.856 70.86-53.069 62 1-.54 3.297-5.916 11.216-6 12-1.111 10.41 34.17 40.119 44 45.5m-95-56c3.466 10.384 9.485 13.726 19 17 .102.035-.361 1.782.5 2 17.302 4.38 35.354-10.488 35.5-28 .071-8.534-2.745-9.414-6-15-3.061-5.254.373-2.965-6-8-23.768-18.777-53.137 1.628-43 32"/><path fill="#09588e" d="M775 276c-7.448-2.245-9.716-11.622-14-16.5-.564-.642-14.663-7.407-9-11.5 1.01.561 1.785 1.084 2.5 2 .795-.276 1.398-1.927 1.5-2 11.456-8.181 25.112-47.852 38-58.5-5.726-2.066-5.981.107-9 2.5 2.445-2.621-13.528-11.155-14.5-11-.973.155-9.222 13.345-11.5 16-8.735 10.182-18.241 19.823-27 30-1.822-1.733-2.223-3.281-3-4 7.312-6.619 38.555-36.425 39-44.5.043-.781-6.345-10.82-7-14-10.412-50.556 70.329-55.254 63-3-3.069 21.885-18.903 19.49-28 28-1.409 1.318-17.626 28.86-20 33-5.763 10.053-8.02 21.792-18 30-.243 2.243 14.545 19.828 17 23.5m-9-130c-5.824 16.146-.486 18.279 14 25 7.115 3.301 20.854 7.388 27.5 6 7.197-1.503 12.134-9.311 13.5-16 .833-4.079.896-7.922 0-12-5.474-24.927-45.115-30.408-55-3m-1.5 17c4.261 20.575 26.108 28.342 43.5 17.5-16.154-.8-31.128-7.493-43.5-17.5"/><path fill="#01deec" d="M250 134c-4.002 22.695-18.68 38.061-43 32-10.137-30.372 19.232-50.777 43-32m-29.5 5c-3.586.419-12.918 9.393-6 13 9.737 3.36 16.542-14.232 6-13"/><path fill="#01d9ea" d="M821 149c-3.868 11.479-18.395 12.519-28.5 12-.837 4.327-2.265 6.321.5 10-3.239-.335-7.127-2.422-10-4-7.747-4.256-14.373-12.637-17-21 9.885-27.408 49.526-21.927 55 3m-34.5-17c-9.366 2.521-3.853 13.094 6 11 9.362-1.99 5.331-14.05-6-11"/><path fill="#fcfdfc" d="M786.5 132c11.331-3.05 15.362 9.01 6 11-9.853 2.094-15.366-8.479-6-11"/><path fill="#01c1d6" d="M256 142c-2.562 18.255-15.071 28.638-31 35.5 2.731 3.573 9.315.472 13.5-1.5 6.937-3.269 14.687-11.768 20.5-17 .148 2.849-6.641 9.535-8.5 11-7.337 5.784-16.263 8.9-24.5 13-9.515-3.274-15.534-6.616-19-17 24.32 6.061 38.998-9.305 43-32 6.373 5.035 2.939 2.746 6 8"/><path fill="#1d6a8c" d="M533 139c-.626 7.459 2.848 5.196 8 6-3.336 4.228-8.986.035-9.5 0-30.635-2.08-58.218 2.806-85 8-1.827.354-8.72-.513-11 0-3.508.789-6.684 2.916-10.5 4-2.045-5.173-12.929.499-18 2 38.618-16.918 84.002-22.181 126-20"/><path fill="#f9fefd" d="M220.5 139c10.542-1.232 3.737 16.36-6 13-6.918-3.607 2.414-12.581 6-13"/><path fill="#0c3d5b" d="M729 223c.777.719 1.178 2.267 3 4 5.145 4.895 14.985 18.215 20 21-5.663 4.093 8.436 10.858 9 11.5 4.284 4.878 6.552 14.255 14 16.5 21.274 31.812 39.184 66.147 49 103.5 3.69 14.044 5.202 41.507 9 52 1.79 4.945 1.72 2.92 6 3.5l1.5 5c-8.193 1.478-7.604-3.941-14.5-1-12.094-120.259-85.751-225.198-199-270-6.148-2.432-11.577-4.998-18-7-8.965-6.225-22.78-7.345-33.5-10-.206-.051-1.158-2.582-3-3-10.319-2.339-21.118-2.38-31.5-4-5.152-.804-8.626 1.459-8-6 71.518 3.714 143.618 35.545 196 84"/><path fill="#027bab" d="M262 157c-2.139-.645-2.267 1.341-3 2-5.813 5.232-13.563 13.731-20.5 17-4.185 1.972-10.769 5.073-13.5 1.5 15.929-6.862 28.438-17.245 31-35.5 3.255 5.586 6.071 6.466 6 15"/><path fill="#1b6484" d="M541 145c10.382 1.62 21.181 1.661 31.5 4 1.842.418 2.794 2.949 3 3 10.72 2.655 24.535 3.775 33.5 10-152.906-47.673-310.885 26.007-376 170-24.517 54.217-33.052 103.373-33 163l-2 7.5c-3.486-100.947 29.794-203.571 107.5-275.5 33.916-31.394 79.014-58.503 119.5-70 3.816-1.084 6.992-3.211 10.5-4 2.28-.513 9.173.354 11 0 26.782-5.194 54.365-10.08 85-8 .514.035 6.164 4.228 9.5 0"/><path fill="#04a5c7" d="m783 167-3 4c-14.486-6.721-19.824-8.854-14-25 2.627 8.363 9.253 16.744 17 21"/><path fill="#d2e5eb" d="M609 162c6.423 2.002 11.852 4.568 18 7-3.427 1.495-.957 2.165.5 3 27.057 15.508 44.613 23.321 69.5 44-15.688 29.567.053 66.16-15 96-25.968-24.018-58.658-42.866-92-54-154.091-51.458-312.69 69.981-306 231 7.11 171.118 199.489 279.488 348 192 5.927 15.712-4.002 38.78 7 51-3.366 3.483-6.158 6.922-10 10-30.966 17.067-71.282 22.813-106.5 25-44.891 2.787-104.926-3.163-143.5-28-4.089-2.633-5.066-2.463-9-6.5-11.955-12.269-18.661-41.834-38-37.5 1.339-1.364 4.907-4.177 5-4.5 1.597-5.555-26.697-28.876-32-35-50.275-58.053-69.332-147.619-63-223-3.211-1.818-1.276 2.707-2.5 3.5-2.065 1.337-12.258-3.894-15.5-3 6.026-49.642 20.172-97.501 44-141.5-3.184.077-6.574 7.474-8 10-5.889 10.433-12.081 23.511-17 34.5l-10-4c65.115-143.993 223.094-217.673 376-170"/><path fill="#00c1d9" d="M821 161c-8.324 7.027-16.596 11.178-28 10-2.765-3.679-1.337-5.673-.5-10 10.105.519 24.632-.521 28.5-12 .896 4.078.833 7.921 0 12"/><path fill="#20799d" d="M425 157c-40.486 11.497-85.584 38.606-119.5 70-77.706 71.929-110.986 174.553-107.5 275.5l2-7.5c.003 2.987-.059 6.014 0 9-4.741-.037 1.962 5.914-4 6l-6-45c.323-3.649 1.534-8.881 2-13 .489-4.325-.23-9.293 0-11 .051-.375 1.236-.996 2-6 7.941-51.998 25.071-103.797 53-148.5 6.957-11.135 17.492-21.972 24-32.5.066-.106 1.712-.688 2-1.5.24-1.129-.648-1.471-1-2.5 4.889-2.317 11.674-9.368 15-13.5.057-.07-1.382-1.012-1-1.5 1.103-1.407 2.505-1.943 4-4 .954-1.312 5.234-3.237 5-5.5-9.912-9.145-19.072-18.359-28-28.5 10.795 9.637 21.215 21.803 34.5 27 .891-.281.368-1.927.5-2 6.878-3.785 19.585-17.344 27.5-23 23.297-16.649 49.986-31.854 77.5-40 5.071-1.501 15.955-7.173 18-2"/><path fill="#0294bd" d="M262 157c-.146 17.512-18.198 32.38-35.5 28-.861-.218-.398-1.965-.5-2 8.237-4.1 17.163-7.216 24.5-13 1.859-1.465 8.648-8.151 8.5-11 .733-.659.861-2.645 3-2"/><path fill="#0182b1" d="m780 171 3-4c2.873 1.578 6.761 3.665 10 4 11.404 1.178 19.676-2.973 28-10-1.366 6.689-6.303 14.497-13.5 16-6.646 1.388-20.385-2.699-27.5-6"/><path fill="#01a1ce" d="M764.5 163c12.372 10.007 27.346 16.7 43.5 17.5-17.392 10.842-39.239 3.075-43.5-17.5"/><path fill="#557b89" d="M826 439c8.476 84.279-1.383 162.465-35 240l-4 1.5c-.118-6.296-1.611-12.774-2-19-2.839-45.387-4.48-109.538-2-154.5 1.27-23.018 8.765-48.227 10-72.5 4.849-95.32-23.538-158.29-96-218.5-24.887-20.679-42.443-28.492-69.5-44-1.457-.835-3.927-1.505-.5-3 113.249 44.802 186.906 149.741 199 270"/><path fill="#1c6197" d="M267 197c8.928 10.141 18.088 19.355 28 28.5.234 2.263-4.046 4.188-5 5.5-6.145-6.034-14.043-14.408-23-14-8.776-8.834-20.091-17.171-26-28 5.102-2.585 10.64-5.584 14.5-10 3.985 4.584.385 4.194.5 4.5 2.924 7.796 2.37 1.017 5 4 2.858 3.241-.5 4.017 1 6 .68.899 1.34-.657 5 3.5"/><path fill="#12609b" d="M785 192c-13.866 10.991-25.551 31.918-41 42-1.067-1.827-5.17-4.879-5-6.5 6.993-8.218 17.986-11.876 21-23l-1-7.5c2.278-2.655 10.527-15.845 11.5-16 .972-.155 16.945 8.379 14.5 11"/><path fill="#359bc7" d="M241 189c5.909 10.829 17.224 19.166 26 28 6.111 6.15 10.703 14.062 19 18-.382.488 1.057 1.43 1 1.5-3.326 4.132-10.111 11.183-15 13.5-3.507-10.265-22.765-33.068-29-44.5-2.475-4.538-3.982-9.72-7-14l.5-2.5c1.201-.259 3.752.379 4.5 0"/><path fill="#329dc9" d="M756 248c-3.353-5.004-9.587-7.667-13-12.5-.054-.077 1.331-.934 1-1.5 15.449-10.082 27.134-31.009 41-42 3.019-2.393 3.274-4.566 9-2.5-12.888 10.648-26.544 50.319-38 58.5"/><path fill="#2677aa" d="M744 234c.331.566-1.054 1.423-1 1.5 3.413 4.833 9.647 7.496 13 12.5-.102.073-.705 1.724-1.5 2-.715-.916-1.49-1.439-2.5-2-5.015-2.785-14.855-16.105-20-21 8.759-10.177 18.265-19.818 27-30l1 7.5c-3.014 11.124-14.007 14.782-21 23-.17 1.621 3.933 4.673 5 6.5"/><path fill="#194677" d="M290 231c-1.495 2.057-2.897 2.593-4 4-8.297-3.938-12.889-11.85-19-18 8.957-.408 16.855 7.966 23 14"/><path fill="#a9c8d1" d="M783 507c-17.085 66.972-52.533 127.169-101 176-9.06-.742-25.679 29.791-32 37.5-3.424 4.176-7.289 7.66-11 11.5-11.002-12.22-1.073-35.288-7-51 132.617-78.125 167.838-260.011 50-369 15.053-29.84-.688-66.433 15-96 72.462 60.21 100.849 123.18 96 218.5-1.235 24.273-8.73 49.482-10 72.5"/><path fill="#85b7c8" d="m590 258-2 1c-84.791-27.619-177.044-2.766-237 62-19.234 20.777-33.719 43.082-45 69-14.077 32.342-21.338 63.264-20 99h-2c-6.69-161.019 151.909-282.458 306-231"/><path fill="#99d6e2" d="M588 259c9.631 3.137 19.045 8.294 28.5 12l-4.5 9c-21.695-10.204-47.077-17.679-71-20-68.703-6.665-136.427 15.623-184 66l-6-5c59.956-64.766 152.209-89.619 237-62"/><path fill="#438099" d="M590 258c33.342 11.134 66.032 29.982 92 54 117.838 108.989 82.617 290.875-50 369-148.511 87.488-340.89-20.882-348-192h2c1.046 27.947 8.872 56.553 20 82 12.38 28.312 28.891 50.583 51 72 100.793 97.639 260.899 84.888 346-28.5 84.384-112.432 53.016-273.986-76-337.5-2.481-1.222-5.314-3.219-7.5-5l-5.5 9c-.656-.319-1.407-.721-2-1l4.5-9c-9.455-3.706-18.869-8.863-28.5-12z"/><path fill="#117996" d="M541 260c-.747 3.878-.958 3.713 1 7-150.712-18.169-272.374 119.838-232 267l-6 4c-10.513-38.327-10.877-78.011-1-116.5 1.66-6.469 11.068-26.172 11-30.5 11.574-22.696 25.393-46.355 43-65 47.573-50.377 115.297-72.665 184-66"/><path fill="#0e596f" d="M612 280c.593.279 1.344.681 2 1 3.338 1.626 6.697 4.154 10 6 24.594 13.75 44.553 30.873 63 52l-6 3c-35.321-40.461-85.278-68.524-139-75-1.958-3.287-1.747-3.122-1-7 23.923 2.321 49.305 9.796 71 20"/><path fill="url(#a)" d="M542 267c53.722 6.476 103.679 34.539 139 75 149.643 171.418-58.652 425.816-259 326-53.361-26.585-96.183-76.348-112-134-40.374-147.162 81.288-285.169 232-267M355 593c14.114 17.781 34.114 37.554 53.5 50 22.863 14.678 32.431 15.081 60 14 105.314-4.13 210.185-78.75 211.5-190.5C658.572 577.347 554.475 642.274 444.5 630c-23.934-2.671-74.434-18.507-89.5-38-13.154-17.02-25.728-59.099-27-80.5-3.065-51.553 23.479-104.743 58-141.5 10.303 2.734 17.594-5.415 18.5-5 .354.162 1.705 5.548 2.5 6.5 18.207 21.793 57.803 3.567 44-20-5.588-9.541-19.22-11.963-29-10.5l5-9c11.748 2.663 32.323-1.08 33-16 30.995-12.569 64.797-16.018 98-13 41.479 3.771 104.529 26.985 122 68 19.228 45.141 21.401 110.398 5 156.5-31.494 88.527-126.149 139.15-217 140 140.154 34.714 276.504-95.401 243-237.5-4.119-17.468-11.327-33.429-20-49-2.201-3.951-4.527-8.227-7-12-37.031-56.503-100.242-91.907-168-93-165.396-2.668-263.501 186.426-161 317m115-207c-14.907-.224-28.967 11.425-34 25-10.848 10.45-17.305 25.693-21 40-2.207 8.544-4.039 16.043-4 25 .028 6.423 1.481 16.731 3 23 17.151 70.804 106.842 98.521 162.5 52 58.594-48.974 40.891-143.386-30.5-168-10.726-3.698-20.385-6.759-32-7-15.007-.311-30.447 3.599-44 10" style="fill:url(#a)"/>/&gt;<path fill="#99d6e2" d="m627 277-3 10c-3.303-1.846-6.662-4.374-10-6l5.5-9c2.186 1.781 5.019 3.778 7.5 5"/><path fill="#88f1fc" d="m516 276 40.5 21 1.5 6c-33.203-3.018-67.005.431-98 13 .293-6.462-6.079-14.297-11.5-17-25.627-12.776-59.484 15.759-26.5 31l-10 6c-11.35-29.683-43.443-5.183-40 17.5.878 5.783 7.979 14.902 14 16.5-34.521 36.757-61.065 89.947-58 141.5 1.272 21.401 13.846 63.48 27 80.5v1c-102.501-130.574-4.396-319.668 161-317"/><path fill="#67eafa" d="m684 369-4 2c-17.471-41.015-80.521-64.229-122-68l-1.5-6-40.5-21c67.758 1.093 130.969 36.497 168 93"/><path fill="#4399b1" d="m357 643-10-17.5c-.878-1.713-.745-7.045-1-7.5 22.768 23.479 45.528 42.681 75 57 207.194 100.664 419.331-160.388 266-336-18.447-21.127-38.406-38.25-63-52l3-10c129.016 63.514 160.384 225.068 76 337.5-85.101 113.388-245.207 126.139-346 28.5"/><path fill="#d8e3e7" d="M224 433c-11.487 94.627-1.944 193.663 36 281.5-39.084-74.123-51.83-164.248-48-248 2.149-46.998 11.913-87.856 31-130.5 4.919-10.989 11.111-24.067 17-34.5 1.426-2.526 4.816-9.923 8-10-23.828 43.999-37.974 91.858-44 141.5"/><path fill="#fdffff" d="M460 316c-.677 14.92-21.252 18.663-33 16-2.117-.48-3.164-1.152-5-2-32.984-15.241.873-43.776 26.5-31 5.421 2.703 11.793 10.538 11.5 17"/><path fill="#f5fdfe" d="M357 326c-17.607 18.645-31.426 42.304-43 65-.099-6.308-4.53-1.139-8-1 11.281-25.918 25.766-48.223 45-69z"/><path fill="#fefeff" d="M412 336c.767 2.006.95 7.581 1.5 8 .358.273 5.939-2.617 8.5-3 9.78-1.463 23.412.959 29 10.5 13.803 23.567-25.793 41.793-44 20-.795-.952-2.146-6.338-2.5-6.5-.906-.415-8.197 7.734-18.5 5-6.021-1.598-13.122-10.717-14-16.5-3.443-22.683 28.65-47.183 40-17.5"/><path fill="#a0eefc" d="m427 332-5 9c-2.561.383-8.142 3.273-8.5 3-.55-.419-.733-5.994-1.5-8l10-6c1.836.848 2.883 1.52 5 2"/><path fill="#a9c8d1" d="M243 336c-19.087 42.644-28.851 83.502-31 130.5-3.83 83.752 8.916 173.877 48 248-37.944-87.837-47.487-186.873-36-281.5 3.242-.894 13.435 4.337 15.5 3 1.224-.793-.711-5.318 2.5-3.5-6.332 75.381 12.725 164.947 63 223 5.303 6.124 33.597 29.445 32 35-.093.323-3.661 3.136-5 4.5-5.713 5.818-11.625 7.79-14 17.5-7.337 30 18.422 61.972 42 77.5 39.017 25.696 107.787 35.33 154 35 1.983 2.88-.672 1.944-2.5 2-10.18.313-21.121-1.446-31-1-3.014.136-2.262.572-3.5 3-.981-.086-2.021.096-3 0 1.858-5.147-16.408-5.443-18-3-3.223-.465-6.74-.444-10-1 3.581-1.941-.11-2.603-1.5-3-4.538-1.298-12.722-1.108-17-2-2.388-.498-10.128-5.923-12.5-2-28.914-8.161-53.339-21.553-75.5-42 12.897 20.202 34.396 39.052 54 53 45.524 32.39 99.894 51.699 156.5 43l.5 11c13.17-2.946 26.487-5.321 39.5-9-12.474 6.06-29.139 9.287-43 11-74.458 9.2-148.196-16.483-205-64-34.164-28.579-67.736-70.819-89-110-6.762-12.459-12.618-25.875-18-39-21.811-53.193-33.867-110.326-35-168-.059-2.986.003-6.013 0-9-.052-59.627 8.483-108.783 33-163z"/><path fill="#094558" d="m421 675 1-7c200.348 99.816 408.643-154.582 259-326l6-3c153.331 175.612-58.806 436.664-266 336"/><path fill="#65c7d9" d="M684 369c2.473 3.773 4.799 8.049 7 12l10 81.5 13-1-3-31.5c33.504 142.099-102.846 272.214-243 237.5 90.851-.85 185.506-51.473 217-140 16.401-46.102 14.228-111.359-5-156.5z"/><path fill="#34679c" d="m514 376-4 26c-3.322-.771-10.697-1.495-14 0-4.082-8.844-16.307-15.854-26-16 13.553-6.401 28.993-10.311 44-10"/><path fill="#215784" d="m546 383-12 32c-4.479-4.027-18.262-11.668-24-13l4-26c11.615.241 21.274 3.302 32 7"/><path fill="#8fd5e4" d="M691 381c8.673 15.571 15.881 31.532 20 49l3 31.5-13 1z"/><path fill="#15365b" d="M546 383c71.391 24.614 89.094 119.026 30.5 168-55.658 46.521-145.349 18.804-162.5-52l16-3c15.233 52.122 53.889 54.362 98.5 57 1 .059 6.063 3.702 9 4 76.927 7.806 45.876-108.702-10.5-60-1.369-4.075-.208-2.071 1-3.5 13.372-15.822 24.532-17.278 23-41.5-.854-13.497-6.77-27.801-17-37z"/><path fill="#fefeff" d="M470 386c9.693.146 21.918 7.156 26 16 .647 1.401 1.688 7.073 2 9 4.342 26.829-17.369 47.378-44 41-18.315-4.386-23.923-25.025-18-41 5.033-13.575 19.093-25.224 34-25"/><path fill="#c4ebf3" d="M314 391c.068 4.328-9.34 24.031-11 30.5-9.877 38.489-9.513 78.173 1 116.5 1.838 6.702 4.463 13.517 7 20-6.791 1.936-3.809 7.985-5 13-11.128-25.447-18.954-54.053-20-82-1.338-35.736 5.923-66.658 20-99 3.47-.139 7.901-5.308 8 1"/><path fill="#296d9f" d="M510 402c5.738 1.332 19.521 8.973 24 13 10.23 9.199 16.146 23.503 17 37-7.362-21.406-28.092-47.431-53-41-.312-1.927-1.353-7.599-2-9 3.303-1.495 10.678-.771 14 0"/><path fill="url(#b)" d="M551 452c1.532 24.222-9.628 25.678-23 41.5-1.208 1.429-2.369-.575-1 3.5-14.213 12.278-18.654 34.569-6 49.5-45.988 7.789-88.474-29.163-85-76.5 5.598-3.461 10.154-16.384 18-18 26.631 6.378 48.342-14.171 44-41 24.908-6.431 45.638 19.594 53 41" style="fill:url(#b)"/>/&gt;<path fill="#4983b9" d="M436 411c-5.923 15.975-.315 36.614 18 41-7.846 1.616-12.402 14.539-18 18-3.477 2.15-2.274 1.339-7.5 1 1.24-20.59.534-11.562-13.5-20 3.695-14.307 10.152-29.55 21-40"/><path fill="#0c3459" d="M194 435c-.764 5.004-1.949 5.625-2 6-4.348.128-9.767.278-14 1-4.748.81-9.043.391-12 4.5-14.296 19.867-11.17 92.852-8 117.5 1.101 8.562 3.253 17.518 5 26 5.365 26.044 34.909 115.263 56.5 129 6.282 3.997 7.232 2.482 13.5 2 4.73-.364 9.152-2.776 14-2.5-1.441-2.92-10.279-23.031-11.5-23.5-1.235-.475-20.723 8.011-25.5 6-14.948-23.518-20.842-40.762-29-67 12.62-16.42 18.451-11.12 17-34-.511-8.053-3.094-15.589-4-23-1.054-8.625-1.979-17.31-3-26-1.683-14.33-3.022-28.704-5-43 2.787-1.234 2.553-.636 3-3.5 1.703-10.906-.103-27.035 1-39.5l6 45c3.56 14.712 3.698 30.306 6 44.5.109.673-2.108.326-2 1 .066.414 2.817.856 3 2 5.474 34.191 12.953 74.885 26 107 .206.507 4.527 7.615 6 7.5 5.382 13.125 11.238 26.541 18 39l-2 .5c3.571.363-.176 4.918 0 7 .07.829 1.988.398 2 .5.385 3.206-.626 5.792 1 10-5.529-10.658-22.457 1.32-32.5 0-2.519-.331-8.443-4.136-10.5-6-27.523-24.932-50.445-120.113-55-157-.655-5.301-1.537-10.675-2-16-1.066-12.265-2.127-24.658-2-37 .244-23.811 3.61-46.467 11-69 4.396-3.761 6.869-1.643 7.5-2 6.211-3.514-8.351-5.603-11.5-2 9.933-7.075 22.949-4.361 35-5"/><path fill="#032e52" d="M852 436c-.502.027-10.82.692-9.5 3 3.233 2.029 9.43-.132 10 0 1.235.286 1.526 2.867 2 3 4.501 1.264 5.106-1.725 9.5 3-2.787-1.836-2.261.105-1.5 2 9.198 22.89 10.94 40.407 11.5 65 .436 19.153-.736 37.041-3 56-1.035 8.664-2.376 19.542-4 28-6.024 31.375-28.334 101.413-49 125-13.857 10.268-22.885 4.499-38 1.5-.592-1.613 1.998-2.34 2-2.5 1.204-.205 3.046.319 4 0 17.636 4.802 22.228 1.301 32-12.5 20.503-28.956 38.96-80.697 46-115.5 1.67-8.256 4.09-19.829 5-28 .289-2.599-.236-5.388 0-8 1.344-14.875 2.304-29.003 2-44-.345-16.983-1.686-42.698-8-58.5-4.305-10.773-4.989-10.187-16-11.5-2.814-.336-11.53-2.675-13 .5.77 9.819 1.804 19.647 2 29.5.044 2.231.997 4.745 1 5 .062 6.341-.898 13.462-1 20-.295 18.942-.847 38.153-3 57-5.703 49.928-19.831 92.583-40 138-10.481.068-6.735 17.699-16 17 5.03-9.536 9.703-20.09 14-30 33.617-77.535 43.476-155.721 35-240 6.896-2.941 6.307 2.478 14.5 1l-1.5-5c4.142.561 9.055-1.119 13 1"/><path fill="#0f5b8e" d="M823 721c-2.035-1.147 2.748-3.674 3-4 4.855-2.54 9.676-.266 15.5-2 4.285-1.276 6.474-4.633 9.5-7 16.144-12.628 29.697-38.419 38-57 18.432-41.249 26.411-85.725 21-131-1.621-13.566-3.755-25.264-9-38-1.674-4.066-3.526-8.347-6-12-4.303-6.354-7.913-10.618-15.5-13-2.806.618.378 8.121.5 9 4.669 33.665 9.616 65.581 4 100l-11 60c-2.059 4.436-6.644 7.609-7 13h-2c3.366-10.347 6.532-20.364 9-31 2.302-9.919 4.556-19.903 6-30 2.983-20.852 5.039-43.956 4-65-.859-17.399-7.02-55.116-19-68-4.394-4.725-4.999-1.736-9.5-3-.474-.133-.765-2.714-2-3-.57-.132-6.767 2.029-10 0-1.32-2.308 8.998-2.973 9.5-3 18.857-1.007 13.628 6.785 23.5 13 17.138 10.789 21.016 4.402 31.5 28.5 26.681 61.33 5.411 174.047-39 224-20.372 22.914-21.916 13.626-45 19.5"/><path fill="#0f4e78" d="M163 444c-12.512 10.706-18.202 52.81-19 69-.678 13.76-.161 29.259 1 43 .411 4.86 1.369 10.111 2 15 4.407 34.166 14.543 68.466 28 100-.087-.154-1.456.44-2-.5-1.222-2.11-4.684-13.098-5.5-13.5-.879-.433-14.776-.602-19.5-2-.068-.02.383-.502-1-1-.512-4.534.307-8.965 4-12 1.797-1.477 8.753-3.062 9-3.5 1.286-2.287-4.591-10.457-5-11.5l-12-49c-.022-.101-1.792.359-2-.5-.133-.549 2.503-12.13-4-7.5-1.863-16.185-.808-35.759-3-50.5-.255-1.715-1.412-4.348-3-5.5 2.06-1.202 4.41-6.445 7-7-.805 19.859.738 39.74 2 59.5.685 1.363 2.833-.292 3-1 .598-2.535-2.933-29.297-3-35-.143-12.111-.107-25.533 1-37.5 10.014-7.576 5.167-26.349 12-36.5l-2.5-1.5c-.086 1.88-2.35 2.743-2.5 3-8.202-2.481-13.339 6.444-17 12-3.611 5.479-5.877 10.824-8 17-10.898 31.7-10.366 67.066-5 100 1.913 11.744 4.791 23.856 9 35 1.041 7.507 4.343 14.968 7 22-4.546 1.048-7.362-2.944-9-6.5L110 584c-4.773-33.838-5.421-91.891 16-120.5 9.535-12.735 15.336-9.026 24.5-14.5 2.303-1.376 4.341-6.038 8.5-9 3.149-3.603 17.711-1.514 11.5 2-.631.357-3.104-1.761-7.5 2"/><path fill="#7ca5c7" d="M192 441c-.23 1.707.489 6.675 0 11l-20 1c2.157-4.427 5.619-6.976 6-11 4.233-.722 9.652-.872 14-1"/><path fill="#2996c4" d="m847 442 9 16c-14.174 8.887-12.004 30.32-15 45-.45-3.652-.472-8.676-5-6 .102-6.538 1.062-13.659 1-20l5 2.5v-8l-6 .5c-.196-9.853-1.23-19.681-2-29.5 1.47-3.175 10.186-.836 13-.5"/><path fill="#a7e8f4" d="M178 442c-.381 4.024-3.843 6.573-6 11-.985 2.021-2.227 3.763-3 6-10.1 29.227-7.371 72.396-4 103 .036.329-.038.671 0 1l-7 1c-3.17-24.648-6.296-97.633 8-117.5 2.957-4.109 7.252-3.69 12-4.5"/><path fill="#6fe4fa" d="m871 512-6-1c-.488-14.323-3.779-39.978-9-53l-9-16c11.011 1.313 11.695.727 16 11.5 6.314 15.802 7.655 41.517 8 58.5"/><path fill="#dcf2f3" d="M152 513h-8c.798-16.19 6.488-58.294 19-69-7.39 22.533-10.756 45.189-11 69"/><path fill="#7ce8fb" d="M864 445c11.98 12.884 18.141 50.601 19 68l-9-1c-.56-24.593-2.302-42.11-11.5-65-.761-1.895-1.287-3.836 1.5-2"/><path fill="#215e8b" d="M436 470c-3.474 47.337 39.012 84.289 85 76.5-12.654-14.931-8.213-37.222 6-49.5 56.376-48.702 87.427 67.806 10.5 60-2.937-.298-8-3.941-9-4-44.611-2.638-83.267-4.878-98.5-57-4.413-15.098 4.613-22.441-19-20-.039-8.957 1.793-16.456 4-25 14.034 8.438 14.74-.59 13.5 20 5.226.339 4.023 1.15 7.5-1"/><path fill="#3d96c5" d="M192 452c-.466 4.119-1.677 9.351-2 13-1.103 12.465.703 28.594-1 39.5-.447 2.864-.213 2.266-3 3.5-1.91-13.805-.716-46.525-17-49 .773-2.237 2.015-3.979 3-6z"/><path fill="#0372b0" d="M141 493c.771-8.335 3.119-16.716 4-25 1.024-2.525 2.58-9.283 3-10 .15-.257 2.414-1.12 2.5-3l2.5 1.5c-6.833 10.151-1.986 28.924-12 36.5"/><path fill="#02a3d4" d="M148 458c-.42.717-1.976 7.475-3 10-.999 2.464-1.972 2.938-3 7-2.815-5.568-6.238-2.979-11-5 3.661-5.556 8.798-14.481 17-12"/><path fill="#0193ce" d="m895 470-11 2c-.473-1.509-2.257-5.316-4-6-.122-.879-3.306-8.382-.5-9 7.587 2.382 11.197 6.646 15.5 13"/><path fill="#1ba8d0" d="M856 458c5.221 13.022 8.512 38.677 9 53 .467 13.709-1.486 28.815-3 42.5l7 2.5c-.236 2.612.289 5.401 0 8-2.624.866-5.531-.276-8-1-8.799-2.579-16.161-6.994-24-11.5-1.088-2.176 4.974-40.597 4-48.5 2.996-14.68.826-36.113 15-45"/><path fill="#2eb6d6" d="M186 508c1.978 14.296 3.317 28.67 5 43-8.556 4.127-15.832 10.892-26 11-3.371-30.604-6.1-73.773 4-103 16.284 2.475 15.09 35.195 17 49"/><path fill="#2cc9de" d="M355 593v-1c15.066 19.493 65.566 35.329 89.5 38 109.975 12.274 214.072-52.653 235.5-163.5-1.315 111.75-106.186 186.37-211.5 190.5-27.569 1.081-37.137.678-60-14-19.386-12.446-39.386-32.219-53.5-50"/><path fill="#65def0" d="M884 472c.731 2.333 1.161 6.043 2 9 .264.931.369 8.927 1 9.5 1.43 1.297 5.575-.077 6.5.5 7.392 4.613 4.319 15.307 1.5 22-3.05-.206-4.096.044-6 2.5l-5 50.5c5.616-34.419.669-66.335-4-100 1.743.684 3.527 4.491 4 6"/><path fill="#89daeb" d="M141 493c-1.107 11.967-1.143 25.389-1 37.5.067 5.703 3.598 32.465 3 35-.167.708-2.315 2.363-3 1-1.262-19.76-2.805-39.641-2-59.5.351-8.669 1.185-18.489 3-27 .351-1.645.582-3.347 1-5 1.028-4.062 2.001-4.536 3-7-.881 8.284-3.229 16.665-4 25"/><path fill="#06c3e6" d="M142 475c-.418 1.653-.649 3.355-1 5-5.42-.171-9.787.697-14 4-.937.734-1.628 3.64-4 3 2.123-6.176 4.389-11.521 8-17 4.762 2.021 8.185-.568 11 5"/><path fill="#01aade" d="M895 470c2.474 3.653 4.326 7.934 6 12l-15-1c-.839-2.957-1.269-6.667-2-9z"/><path fill="#1788b9" d="M837 477c-.003-.255-.956-2.769-1-5l6-.5v8z"/><path fill="#215683" d="m430 496-16 3c-1.519-6.269-2.972-16.577-3-23 23.613-2.441 14.587 4.902 19 20"/><path fill="#3ad4eb" d="M141 480c-1.815 8.511-2.649 18.331-3 27-2.59.555-4.94 5.798-7 7-.612.357-3.004-.325-4 0-1.669.544-3.064 2.131-5 2 1.38-10.798 3.837-21.256 5-32 4.213-3.303 8.58-4.171 14-4"/><path fill="#29bee2" d="M901 482c5.245 12.736 7.379 24.434 9 38-5.309.536-10.208-6.677-15-7 2.819-6.693 5.892-17.387-1.5-22-.925-.577-5.07.797-6.5-.5-.631-.573-.736-8.569-1-9.5z"/><path fill="#95e1f1" d="M122 516c-2.845 22.254-4.712 47.858 0 70l-4 1c-5.366-32.934-5.898-68.3 5-100 2.372.64 3.063-2.266 4-3-1.163 10.744-3.62 21.202-5 32"/><path fill="#0384b9" d="M841 503c.974 7.903-5.088 46.324-4 48.5 7.839 4.506 15.201 8.921 24 11.5l-3 24c-6.541-2.949-17.921-1.806-24-8 .492-3.597 2.851-21.055 2.5-23-.297-1.643-2.351-.896-3.5-2 2.153-18.847 2.705-38.058 3-57 4.528-2.676 4.55 2.348 5 6"/><path fill="#1b6484" d="M200 504c1.133 57.674 13.189 114.807 35 168-1.473.115-5.794-6.993-6-7.5-13.047-32.115-20.526-72.809-26-107-.183-1.144-2.934-1.586-3-2-.108-.674 2.109-.327 2-1-2.302-14.194-2.44-29.788-6-44.5 5.962-.086-.741-6.037 4-6"/><path fill="#6297a5" d="M791 679c-4.297 9.91-8.97 20.464-14 30-30.827 58.438-78.011 111.574-136 144-.252-5.584-3.994-12.054-8-16 27.774-18.69 75.771-65.257 83-98.5 1.117-5.139 3.236-14.872-3-15.5.081-5.654-1.742-6.689-2-8-2.078-10.562-4.574-17.36-13.5-24-1.454-1.081-14.631-7.929-15.5-8 48.467-48.831 83.915-109.028 101-176-2.48 44.962-.839 109.113 2 154.5.389 6.226 1.882 12.704 2 19z"/><path fill="#0ec2e1" d="M871 512c.304 14.997-.656 29.125-2 44l-7-2.5c1.514-13.685 3.467-28.791 3-42.5z"/><path fill="#20daf7" d="M883 513c1.039 21.044-1.017 44.148-4 65-3.869-.775-.33-10.658-8-10 2.264-18.959 3.436-36.847 3-56z"/><path fill="#6beefe" d="M152 513c-.127 12.342.934 24.735 2 37l-9 6c-1.161-13.741-1.678-29.24-1-43z"/><path fill="#2298c0" d="M895 513c4.792.323 9.691 7.536 15 7 5.411 45.275-2.568 89.751-21 131-2.371.631-8.533 2.416-10 4 .978-3.564-.985-8.095-1-11-.099-19.281 14.37-52.767 12-70.5-.155-1.161-2.365-4.815-4-5-3.392 18.134-5.243 40.792-13 57.5l11-60 5-50.5c1.904-2.456 2.95-2.706 6-2.5"/><path fill="#1891bb" d="M137 572c1.863 15.693 4.862 34.524 8 50-12.78 2.197-11.21-5.816-18-13-.345-3.923-.222-11.047-1-14.5-.356-1.582-2.813 1.009-3 0-.481-2.592-.449-5.909-1-8.5-4.712-22.142-2.845-47.746 0-70 1.936.131 3.331-1.456 5-2-.723 4.552-.226 10.051-1 14.5-.484 2.781-2.97 4.71-3 5-.674 6.482.474 47.772 4.5 48.5z"/><path fill="#29badc" d="M131 514c1.588 1.152 2.745 3.785 3 5.5 2.192 14.741 1.137 34.315 3 50.5.074.646-.077 1.354 0 2l-9.5 10c-4.026-.728-5.174-42.018-4.5-48.5.03-.29 2.516-2.219 3-5 .774-4.449.277-9.948 1-14.5.996-.325 3.388.357 4 0"/><path fill="#0e596f" d="m422 668-1 7c-29.472-14.319-52.232-33.521-75-57-12.182-21.698-25.149-34.832-35-60-2.537-6.483-5.162-13.298-7-20l6-4c15.817 57.652 58.639 107.415 112 134"/><path fill="#1edef8" d="M154 550c.463 5.325 1.345 10.699 2 16l-9 5c-.631-4.889-1.589-10.14-2-15z"/><path fill="#0f83b0" d="M191 551c1.021 8.69 1.946 17.375 3 26-5.609 6.505-16.796 7.893-25 9-1.316-7.686-3.106-15.177-4-23-.038-.329.036-.671 0-1 10.168-.108 17.444-6.873 26-11"/><path fill="#004892" d="M834 579c-1.178 8.621-7.913 30.548-5 37.5 2.083 4.972 17.371 11.53 18 18 .321 3.302-10.749 31.953-13 37-2.384 5.346-13.765 28.489-18 29.5-2.956.706-24.176.395-24-5 .366-.815.635-3.177 1-4 20.169-45.417 34.297-88.072 40-138 1.149 1.104 3.203.357 3.5 2 .351 1.945-2.008 19.403-2.5 23"/><path fill="#86b9c8" d="M346 618c.255.455.122 5.787 1 7.5l10 17.5c-22.109-21.417-38.62-43.688-51-72 1.191-5.015-1.791-11.064 5-13 9.851 25.168 22.818 38.302 35 60"/><path fill="#6aadc5" d="M165 563c.894 7.823 2.684 15.314 4 23 .108.629-.111 1.372 0 2l-6 2c-1.747-8.482-3.899-17.438-5-26z"/><path fill="#0c97c6" d="M869 564c-.91 8.171-3.33 19.744-5 28-2.237.332-5.025-4.56-6-5l3-24c2.469.724 5.376 1.866 8 1"/><path fill="#02b5dd" d="M211 723c-2.22.672-3.522-.502-5-1-2.184-3.483-6.69-6.819-9-10-9.122-12.559-14.484-27.697-22-41-13.457-31.534-23.593-65.834-28-100l9-5c4.555 36.887 27.477 132.068 55 157"/><path fill="#15638e" d="M143 578c4.055 18.319 4.797 30.619 12 49 .409 1.043 6.286 9.213 5 11.5-.247.438-7.203 2.023-9 3.5-2.5-6.432-4.628-13.233-6-20-3.138-15.476-6.137-34.307-8-50-.077-.646.074-1.354 0-2 6.503-4.63 3.867 6.951 4 7.5.208.859 1.978.399 2 .5"/><path fill="#03c0e3" d="M879 578c-1.444 10.097-3.698 20.081-6 30-6.896-3.673-2.189-6.056-6-12 1.624-8.458 2.965-19.336 4-28 7.67-.658 4.131 9.225 8 10"/><path fill="#0e608c" d="M878 644c-5.156-3.07-5.456-5-12-5 .356-5.391 4.941-8.564 7-13 7.757-16.708 9.608-39.366 13-57.5 1.635.185 3.845 3.839 4 5 2.37 17.733-12.099 51.219-12 70.5"/><path fill="#2ba1c6" d="M155 627c-7.203-18.381-7.945-30.681-12-49z"/><path fill="#1d5683" d="M198 600c-9.378-10.501-16.938 2.275-26 6-1.292-5.715-1.972-12.177-3-18-.111-.628.108-1.371 0-2 8.204-1.107 19.391-2.495 25-9 .906 7.411 3.489 14.947 4 23"/><path fill="#006dae" d="M858 587c.975.44 3.763 5.332 6 5-7.04 34.803-25.497 86.544-46 115.5-9.772 13.801-14.364 17.302-32 12.5 8.111-2.711 11.261 2.043 18.5-1 2.585-1.087 14.018-13.738 11.5-18 4.235-1.011 15.616-24.154 18-29.5 2.251-5.047 13.321-33.698 13-37-.629-6.47-15.917-13.028-18-18-2.913-6.952 3.822-28.879 5-37.5 6.079 6.194 17.459 5.051 24 8"/><path fill="#0b375d" d="M134 644c.927 2.453 2.995 4.701 4 7 4.241 9.703 8.287 19.538 14 28.5 1.19 1.867 7.968 13.794 10 9.5 3.062 4.571 15.875 15.358 16 16.5.258 2.368-1.971.961-3 2-.942 3.854 19.489 10.513 22 4.5 2.31 3.181 6.816 6.517 9 10-8.907-2.998-10.436.095-17.5-1-43.198-6.697-73.254-99.812-78.5-137l15 53.5c1.638 3.556 4.454 7.548 9 6.5"/><path fill="#77c4dc" d="M122 586c.551 2.591.519 5.908 1 8.5.187 1.009 2.644-1.582 3 0 .778 3.453.655 10.577 1 14.5.362 4.122-.548 9.049 0 13-4.209-11.144-7.087-23.256-9-35z"/><path fill="#5395b4" d="M169 588c1.028 5.823 1.708 12.285 3 18 2.195 9.709 6.086 18.628 9 28 8.158 26.238 14.052 43.482 29 67 2.595 4.082 8.521 16.223 12.5 18 3.918 1.749 7.086-1.354 10.5 2-6.268.482-7.218 1.997-13.5-2-21.591-13.737-51.135-102.956-56.5-129Z"/><path fill="#266b97" d="M198 600c1.451 22.88-4.38 17.58-17 34-2.914-9.372-6.805-18.291-9-28 9.062-3.725 16.622-16.501 26-6"/><path fill="#00a8d3" d="M873 608c-2.468 10.636-5.634 20.653-9 31-1.955 6.008-3.706 12.107-6 18-7.625 19.587-19.131 43.4-32 60-.252.326-5.035 2.853-3 4-1.425.363-3.805 2.742-6 2 .147-.143.812-1.786 1-2 20.666-23.587 42.976-93.625 49-125 3.811 5.944-.896 8.327 6 12"/><path fill="#32a9cc" d="M145 622c1.372 6.767 3.5 13.568 6 20-3.693 3.035-4.512 7.466-4 12-2.967-1.069-5.773-2.796-9-3-1.005-2.299-3.073-4.547-4-7-2.657-7.032-5.959-14.493-7-22-.548-3.951.362-8.878 0-13 6.79 7.184 5.22 15.197 18 13"/><path fill="#05456e" d="M866 639c6.544 0 6.844 1.93 12 5 .015 2.905 1.978 7.436 1 11-.08.086-.334-.116-1 1l-20 1c2.294-5.893 4.045-11.992 6-18z"/><path fill="#26698f" d="M147 654c1.383.498.932.98 1 1 1.854 10.731 7.859 24.832 14 34-2.032 4.294-8.81-7.633-10-9.5-5.713-8.962-9.759-18.797-14-28.5 3.227.204 6.033 1.931 9 3"/><path fill="#17688f" d="M889 651c-8.303 18.581-21.856 44.372-38 57-1.454-5.309 7.068-9.457 10-13.5 2.127-2.932 6.298-9.769 8-13 3.492-6.629 6.702-21.649 9-25.5.666-1.116.92-.914 1-1 1.467-1.584 7.629-3.369 10-4"/><path fill="#043057" d="M175 671c7.516 13.303 12.878 28.441 22 41-2.511 6.013-22.942-.646-22-4.5 1.029-1.039 3.258.368 3-2-.125-1.142-12.938-11.929-16-16.5-6.141-9.168-12.146-23.269-14-34 4.724 1.398 18.621 1.567 19.5 2 .816.402 4.278 11.39 5.5 13.5.544.94 1.913.346 2 .5"/><path fill="#01315b" d="M878 656c-2.298 3.851-5.508 18.871-9 25.5-1.702 3.231-5.873 10.068-8 13-2.932 4.043-11.454 8.191-10 13.5-3.026 2.367-5.215 5.724-9.5 7-5.824 1.734-10.645-.54-15.5 2 12.869-16.6 24.375-40.413 32-60z"/><path fill="#0c2037" d="M682 683c.869.071 14.046 6.919 15.5 8 8.926 6.64 11.422 13.438 13.5 24 .54 4.514-.288 8.594-1 13l-3-6.5-2 17-8.5 14.5c1.522-21.772-6.98-42.602-29-49-1.602.524-10.689 17.764-12.5 20-35.235 43.514-83.298 57.898-138 59-51.983 1.047-113.32-6.229-150.5-46-10.235 7.205-12.572 18.573-11.5 30.5l5 22.5c-23.578-15.528-49.337-47.5-42-77.5 2.375-9.71 8.287-11.682 14-17.5 19.339-4.334 26.045 25.231 38 37.5 3.934 4.037 4.911 3.867 9 6.5-1.328 2.731 5.777 4.32 7 5.5.08.078-1.774 1.307-1 2 6.038 5.41 9.737 6.523 17 9.5 22.838 13.07 53.31 19.279 79.5 21 42.25 2.776 97.28-.429 132.5-25 6.671-3.405 9.84-5.865 15-10 3.842-3.078 6.634-6.517 10-10 3.711-3.84 7.576-7.324 11-11.5 6.321-7.709 22.94-38.242 32-37.5"/><path fill="#0b4e74" d="M792 696c-4.074 9.06-9.846 13.714-10 24-.002.16-2.592.887-2 2.5 15.115 2.999 24.143 8.768 38-1.5-.188.214-.853 1.857-1 2-14.046 13.648-28.67-.801-39.5 3-1.643.577-15.663 25.58-18.5 29.5-22.815 31.521-48.66 59.312-80 82.5-89.637 66.321-192.888 76.839-292.5 24-8.736-4.634-27.507-19.83-34.5-22l-53-50c2.255 1.82 6 5.552 8 4 10.393 11.163 20.444 19.301 32 29 44.236 37.128 87.893 57.633 133.5 66 7.282.604 15.928.435 23 1 3.258.26 13.929 1.541 17 3l36-3-1.5-5c13.861-1.713 30.526-4.94 43-11 19.391-5.482 33.393-11.155 51-21 57.989-32.426 105.173-85.562 136-144 9.265.699 5.519-16.932 16-17-.365.823-.634 3.185-1 4"/><path fill="#20628e" d="M233 721c-3.414-3.354-6.582-.251-10.5-2-3.979-1.777-9.905-13.918-12.5-18 4.777 2.011 24.265-6.475 25.5-6 1.221.469 10.059 20.58 11.5 23.5-4.848-.276-9.27 2.136-14 2.5"/><path fill="#07669e" d="M816 701c2.518 4.262-8.915 16.913-11.5 18-7.239 3.043-10.389-1.711-18.5 1-.954.319-2.796-.205-4 0 .154-10.286 5.926-14.94 10-24-.176 5.395 21.044 5.706 24 5"/><path fill="#102a47" d="M710 728c-2.132 13.194-6.114 20.535-14 31-6.941.956-14.667 12.877-20.5 17-1.216.859-6.212 1.819-6.5 2 13.02-17.413 8.39-46.45-14-54 1.811-2.236 10.898-19.476 12.5-20 22.02 6.398 30.522 27.228 29 49l8.5-14.5 2-17z"/><path fill="#144d68" d="M253 711c21.264 39.181 54.836 81.421 89 110l-3 2c-11.556-9.699-21.607-17.837-32-29-21.243-22.816-36.738-45.973-51-73.5-.136-.262-3.569-5.473-3-1.5-.012-.102-1.93.329-2-.5-.176-2.082 3.571-6.637 0-7z"/><path fill="#bee2e8" d="M713 723c-1.323 91.833-170.051 111.799-236 106 1.238-2.428.486-2.864 3.5-3 9.879-.446 20.82 1.313 31 1 1.828-.056 4.483.88 2.5-2 57.105-.408 145.748-17.892 182-66 7.886-10.465 11.868-17.806 14-31 .712-4.406 1.54-8.486 1-13 .258 1.311 2.081 2.346 2 8"/><path fill="#19648a" d="M307 794c-2 1.552-5.745-2.18-8-4-11.007-8.886-39.974-47.998-45-61-1.626-4.208-.615-6.794-1-10-.569-3.973 2.864 1.238 3 1.5 14.262 27.527 29.757 50.684 51 73.5"/><path fill="url(#c)" d="M633 837c-1.551 1.043-3.387 1.974-5 3-4.716 3-11.305 7.519-16 10-16.991 8.977-43.097 19.095-62 22-56.606 8.699-110.976-10.61-156.5-43-19.604-13.948-41.103-32.798-54-53 22.161 20.447 46.586 33.839 75.5 42a302 302 0 0 0 31 7c3.26.556 6.777.535 10 1 5.923.854 12.028 2.415 18 3 .979.096 2.019-.086 3 0 65.949 5.799 234.677-14.167 236-106 6.236.628 4.117 10.361 3 15.5-7.229 33.243-55.226 79.81-83 98.5" style="fill:url(#c)"/>/&gt;<path fill="#1f4a72" d="M669 778c-21.035 13.241-31.349 15.757-53 23 11.466-5.279 31.233-13.387 14.5-26-13.577-10.233-34.54 2.028-50 5-40.058 7.701-86.064 11.8-125 22-5.572 1.46-17.183 3.626-18.5 10-6.732-1.34-32.983-4.873-31-12.5 5.169-19.881 90.021-11.894 107.5-13.5 2.739-.252 3.957.971 3.5-3 54.702-1.102 102.765-15.486 138-59 22.39 7.55 27.02 36.587 14 54"/><path fill="#153455" d="M517 783c.457 3.971-.761 2.748-3.5 3-17.479 1.606-102.331-6.381-107.5 13.5-1.983 7.627 24.268 11.16 31 12.5 15.607 3.105 33.085 5.004 49 6 20.384 1.276 40.801 2.009 61-1 7.721-1.15 10.834.221 18-5 1.621-1.195 5.704.052 6 0-4.509.369 4.257 2.037 4.5 2 1.562-.24 12.97-2.726 14-3 7.151-1.904 17.84-7.103 26.5-10 21.651-7.243 31.965-9.759 53-23 .288-.181 5.284-1.141 6.5-2 5.833-4.123 13.559-16.044 20.5-17-36.252 48.108-124.895 65.592-182 66-46.213.33-114.983-9.304-154-35l-5-22.5c-1.072-11.927 1.265-23.295 11.5-30.5 37.18 39.771 98.517 47.047 150.5 46"/><path fill="#0d1424" d="M629 742c-5.16 4.135-8.329 6.595-15 10-52.501 26.794-157.939 26.16-212 4-7.263-2.977-10.962-4.09-17-9.5-.774-.693 1.08-1.922 1-2-1.223-1.18-8.328-2.769-7-5.5 38.574 24.837 98.609 30.787 143.5 28 35.218-2.187 75.534-7.933 106.5-25"/><path fill="#c6edf3" d="M614 752c-35.22 24.571-90.25 27.776-132.5 25-26.19-1.721-56.662-7.93-79.5-21 54.061 22.16 159.499 22.794 212-4"/><path fill="#275c88" d="M616 801c-8.66 2.897-19.349 8.096-26.5 10-1.03.274-12.438 2.76-14 3-.243.037-9.009-1.631-4.5-2 14.319-2.499 35.942-11.973 46-22.5.892-8.859-37.152-1.846-42.5-.5-.957.241-4.522 1.116-2.5 3-4.272-1.205-16.69 2.781-21 5-1.126-2.813-8.295-1.278-10.5-1-7.957 1.002-53.38 7.266-55.5 13.5-1.229 3.612 2.686 5.112 1 8.5-15.915-.996-33.393-2.895-49-6 1.317-6.374 12.928-8.54 18.5-10 38.936-10.2 84.942-14.299 125-22 15.46-2.972 36.423-15.233 50-5 16.733 12.613-3.034 20.721-14.5 26"/><path fill="#306d99" d="M571 812c-.296.052-4.379-1.195-6 0 3.851-2.806 16.46-17.331 7-20-2.022-1.884 1.543-2.759 2.5-3 5.348-1.346 43.392-8.359 42.5.5-10.058 10.527-31.681 20.001-46 22.5"/><path fill="#387aa5" d="M572 792c9.46 2.669-3.149 17.194-7 20-7.166 5.221-10.279 3.85-18 5-10.386-9.563-8.014-13.813 4-20 4.31-2.219 16.728-6.205 21-5m-16.5 8c-2.364.588-4.313 3.504-5.5 5.5 12.88 15.474 25.674-10.519 5.5-5.5"/><path fill="#2f6c99" d="M551 797c-12.014 6.187-14.386 10.437-4 20-20.199 3.009-40.616 2.276-61 1 1.686-3.388-2.229-4.888-1-8.5 2.12-6.234 47.543-12.498 55.5-13.5 2.205-.278 9.374-1.813 10.5 1"/><path fill="#4492bb" d="M555.5 800c20.174-5.019 7.38 20.974-5.5 5.5 1.187-1.996 3.136-4.912 5.5-5.5"/><path fill="#eaf5f5" d="M446 825a302 302 0 0 1-31-7c2.372-3.923 10.112 1.502 12.5 2 4.278.892 12.462.702 17 2 1.39.397 5.081 1.059 1.5 3"/><path fill="#0d405e" d="M342 821c56.804 47.517 130.542 73.2 205 64l1.5 5-36 3c-3.071-1.459-13.742-2.74-17-3-7.072-.565-15.718-.396-23-1-45.607-8.367-89.264-28.872-133.5-66z"/><path fill="#e7f4f5" d="M474 829c-5.972-.585-12.077-2.146-18-3 1.592-2.443 19.858-2.147 18 3"/>/&gt;<path fill="#83b1bd" d="M641 853c-17.607 9.845-31.609 15.518-51 21-13.013 3.679-26.33 6.054-39.5 9l-.5-11c18.903-2.905 45.009-13.023 62-22l5.5 13c1.98-1.179 14.557-6.301 15-7 1.892-2.982-5.652-12.076-4.5-16 1.613-1.026 3.449-1.957 5-3 4.006 3.946 7.748 10.416 8 16"/><path fill="#6297a5" d="M612 850c4.695-2.481 11.284-7 16-10-1.152 3.924 6.392 13.018 4.5 16-.443.699-13.02 5.821-15 7z"/></svg>