<svg xmlns="http://www.w3.org/2000/svg" width="1024" height="1024"><defs><linearGradient id="a" x1="471.502" x2="263.617" y1="409.809" y2="519.393" gradientUnits="userSpaceOnUse"><stop offset="0%" style="stop-color:#d3e8f1"/><stop offset="100%" style="stop-color:#a2d7e7"/></linearGradient></defs><defs><linearGradient id="b" x1="395.636" x2="187.75" y1="265.886" y2="375.47" gradientUnits="userSpaceOnUse"><stop offset="0%" style="stop-color:#d3e8f1"/><stop offset="100%" style="stop-color:#a2d7e7"/></linearGradient></defs><defs><linearGradient id="c" x1="349.486" x2="685.096" y1="418.439" y2="472.901" gradientUnits="userSpaceOnUse"><stop offset="0%" style="stop-color:#d1eaf2"/><stop offset="100%" style="stop-color:#a2bcca"/></linearGradient></defs><defs><linearGradient id="d" x1="544.198" x2="480.677" y1="337.562" y2="554.451" gradientUnits="userSpaceOnUse"><stop offset="0%" style="stop-color:#06537a"/><stop offset="42.92%" style="stop-color:#06accb"/><stop offset="71.239%" style="stop-color:#067cb7"/><stop offset="100%" style="stop-color:#0ebce4"/></linearGradient></defs><defs><linearGradient id="e" x1="517.98" x2="507.256" y1="377.704" y2="514.284" gradientUnits="userSpaceOnUse"><stop offset="0%" style="stop-color:#012356"/><stop offset="100%" style="stop-color:#0166a1"/></linearGradient></defs><defs><linearGradient id="f" x1="228.228" x2="226.806" y1="451.729" y2="640.724" gradientUnits="userSpaceOnUse"><stop offset="0%" style="stop-color:#baedf8"/><stop offset="40.212%" style="stop-color:#5dc4dc"/><stop offset="100%" style="stop-color:#187086"/></linearGradient></defs><defs><linearGradient id="g" x1="791.919" x2="795.166" y1="472.693" y2="639.662" gradientUnits="userSpaceOnUse"><stop offset="0%" style="stop-color:#67c6dd"/><stop offset="100%" style="stop-color:#064a60"/></linearGradient></defs><defs><linearGradient id="h" x1="180.157" x2="199.281" y1="498.308" y2="562.521" gradientUnits="userSpaceOnUse"><stop offset="0%" style="stop-color:#02b4cf"/><stop offset="100%" style="stop-color:#008aa5"/></linearGradient></defs><defs><linearGradient id="i" x1="842.772" x2="826.57" y1="493.354" y2="564.533" gradientUnits="userSpaceOnUse"><stop offset="0%" style="stop-color:#0189a6"/><stop offset="100%" style="stop-color:#00748f"/></linearGradient></defs><defs><linearGradient id="j" x1="482.963" x2="575.863" y1="780.025" y2="869.527" gradientUnits="userSpaceOnUse"><stop offset="0%" style="stop-color:#54494c"/><stop offset="100%" style="stop-color:#26242b"/></linearGradient></defs><path fill="#071c24" d="M695 168c-.844.858-.888 2.84-1 3-.081.116-1.399 1.347-2 2-2.568 2.791-6.205 6.241-9 9-6.462 6.378-45.77 40.582-51.5 42-12.23 3.027-57.741-13.36-75.5-16-36.004-5.353-68.522-4.646-104 3-14.455 3.115-28.516 9.383-42 12-3.755.729-14.303 2.613-17.5 2-9.477-1.818-52.251-43.945-61.5-53 1.383-1.321 1.918-.924 2-1 .457.108 1.859.863 2 1 7.359 7.187 52.346 49.158 58.5 50 2.009.275 14.913-1.886 14.5-5.5-.203-1.774-21.673-22.102-25-25.5-.53-1.499-2.182-4.896-3-6 9.594 9.331 19.619 18.467 29 28 2.12 2.154 1.793 5.227 4.5 7 60.405-26.143 133.932-25.003 195-1 19.376-23.37 47.948-42.313 66.5-66 .142-.181 4.049-.01 3-3.5-17.167-12.577-35.165-24.443-55-32.5-5.379 10.245-10.144 21.018-16 31-1.928 3.287-14.693 24.598-16.5 25-30.128-7.589-61.45-9.83-92.5-9-21.751.582-43.344 2.976-64.5 8L399 118c-19.002 7.388-34.694 20.78-52 31-1.436.848-3.681.379-5 3-.989-2.784 1.48-3.483 4.5-6 69.547-57.953 192.935-69.303 275-34 7.206 3.1 56.702 32.61 60 37 2.785 3.708-2.932 3.56-2.5 6.5.148 1.004 13.505 10.31 16 12.5m-81-40c1.093-2.293 7.116-12.271 5.5-14-33.488-11.758-65.995-18.29-101.5-19-39.764-.795-76.405 4.464-113.5 19l30 55c50.413-12.882 104.371-11.448 155 0 2.306-.621 22.21-36.195 24.5-41m61.5 29c-4.063.175-50.008 51.433-58.5 56.5-5.721 7.633 10.829 8.712 14.5 7.5 2.68-.885 33.814-26.191 38-30 7.472-6.799 14.107-14.605 21.5-21.5.025-1.018-14.003-12.564-15.5-12.5"/><path fill="#d1e2e9" d="M518 95c6.197 20.488 5.911 42.042 2.5 63l67 9c6.799-1.137 19.207-34.702 26.5-39-2.29 4.805-22.194 40.379-24.5 41-50.629-11.448-104.587-12.882-155 0l-30-55c37.095-14.536 73.736-19.795 113.5-19m-9.5 4c-9.929-.391-37.093 4.047-48 6-11.372 2.036-22.756 5.335-34 8l14.5 43.5c2.875-7.384-4.421-34.436.5-39.5 8.058-8.293 63.413-10.44 76-6 1.114-7.967-1.578-11.707-9-12"/><path fill="#78b0bf" d="M614 128c-7.293 4.298-19.701 37.863-26.5 39l-67-9c3.411-20.958 3.697-42.512-2.5-63 35.505.71 68.012 7.242 101.5 19 1.616 1.729-4.407 11.707-5.5 14"/><path fill="#fcfdfe" d="M508.5 99c7.422.293 10.114 4.033 9 12-12.587-4.44-67.942-2.293-76 6-4.921 5.064 2.375 32.116-.5 39.5L426.5 113c11.244-2.665 22.628-5.964 34-8 10.907-1.953 38.071-6.391 48-6"/><path fill="#c7d8e0" d="M498 164c6.79 1.045 14.165 1.613 21 2-2.881 5.04-3.852 11.6-7 16.5-2.643 4.113-7.197 5.097-8 9.5-17.582.514-41.917 3.847-59.5 8-12.29 2.903-24.462 7.008-35.5 13-9.381-9.533-19.406-18.669-29-28-7.195-9.71-20.147-20.274-29-29-.421-3.053 2.595-2.78 4-4 5.161 1.932 16.515-8.757 17-13 4.288-2.773 26.102-14.206 27.5-16 2.819-3.618-.581-2.102-.5-5l34.5 54c21.156-5.024 42.749-7.418 64.5-8"/><path fill="#6f9aa7" d="M675 153c-18.552 23.687-47.124 42.63-66.5 66-61.068-24.003-134.595-25.143-195 1-2.707-1.773-2.38-4.846-4.5-7 11.038-5.992 23.21-10.097 35.5-13 17.583-4.153 41.918-7.486 59.5-8 13.594-.397 46.054 3.843 56.5 1 4.854-1.321 5.469-9.564 4.5-13.5-1.149-4.667-9.259-8.221-12-11.5 12.908 1.324 25.91 3.871 38.5 7l15.5-27c5.856-9.982 10.621-20.755 16-31z"/><path fill="#9ae8f9" d="m675 153-52-36c19.835 8.057 37.833 19.923 55 32.5 1.049 3.49-2.858 3.319-3 3.5"/><path fill="#a2ebfc" d="M399 118c-.081 2.898 3.319 1.382.5 5-1.398 1.794-23.212 13.227-27.5 16-6.933 4.484-10.824 7.636-17 13-1.405 1.22-4.421.947-4 4-2.04-2.01-6.629-3.813-4-7 17.306-10.22 32.998-23.612 52-31"/><path fill="#f6fcfb" d="M355 152c6.176-5.364 10.067-8.516 17-13-.485 4.243-11.839 14.932-17 13"/><path fill="#b1dee9" d="M553 168c-11.31-1.16-22.659-1.358-34-2-6.835-.387-14.21-.955-21-2 31.05-.83 62.372 1.411 92.5 9 1.807-.402 14.572-21.713 16.5-25l-15.5 27c-12.59-3.129-25.592-5.676-38.5-7"/><path fill="#04526c" d="M347 149c-2.629 3.187 1.96 4.99 4 7 8.853 8.726 21.805 19.29 29 29 .818 1.104 2.47 4.501 3 6-8.202-8.378-23.189-24.799-32-31-.618-.435-1.64-3.436-3.5-3-3.783.515-12.037 11.725-14.5 14-.082.076-.617-.321-2 1-3.895 3.721-6.501 7.074-10 11-49.241 55.253-72.646 123.461-84 196-.404 2.583-.298 5.413-1 8-1.473-.201-3.441-.043-5 0 5.778-22.748 6.762-46.62 12-69.5 12.276-53.627 42.07-111.699 83.5-148.5 2.264-2.011 18.416-12.358 18.5-13.5.02-.277-2.484-2.048-3-3.5 1.319-2.621 3.564-2.152 5-3"/><path fill="#caf1fa" d="m351 160-16 12c-.141-.137-1.543-.892-2-1 2.463-2.275 10.717-13.485 14.5-14 1.86-.436 2.882 2.565 3.5 3"/><path fill="#b9ebf4" d="M675.5 157c1.497-.064 15.525 11.482 15.5 12.5-7.393 6.895-14.028 14.701-21.5 21.5-4.186 3.809-35.32 29.115-38 30-3.671 1.212-20.221.133-14.5-7.5 8.492-5.067 54.437-56.325 58.5-56.5m-2 6c-2.225.412-28.781 27.439-32.5 31.5 22.03 6.336 29.813-10.014 44-23-2.112-1.846-8.862-8.988-11.5-8.5m-36 34c-2.628.766-14.722 16.262-18.5 18.5l1.5 2.5c7.5 2.963 30.173-15.856 36.5-20.5-4.74-.027-15.501-1.665-19.5-.5"/><path fill="#d8e9ef" d="M351 160c8.811 6.201 23.798 22.622 32 31 3.327 3.398 24.797 23.726 25 25.5.413 3.614-12.491 5.775-14.5 5.5-6.154-.842-51.141-42.813-58.5-50z"/><path fill="#acc7d3" d="M673.5 163c2.638-.488 9.388 6.654 11.5 8.5-14.187 12.986-21.97 29.336-44 23 3.719-4.061 30.275-31.088 32.5-31.5"/><path fill="#93becb" d="M553 168c2.741 3.279 10.851 6.833 12 11.5.969 3.936.354 12.179-4.5 13.5-10.446 2.843-42.906-1.397-56.5-1 .803-4.403 5.357-5.387 8-9.5 3.148-4.9 4.119-11.46 7-16.5 11.341.642 22.69.84 34 2"/><path fill="#054d67" d="M791 383c-1.393-.107-2.305.746-4 1v-1c-9.838-77.338-38.354-155.43-93-212 .112-.16.156-2.142 1-3 63.784 55.997 87.783 132.206 96 215"/><path fill="#75d8ef" d="M787 383c-2.184-.366-3.524-1.355-6-1-12.204-75.366-37.753-151.167-89-209 .601-.653 1.919-1.884 2-2 54.646 56.57 83.162 134.662 93 212"/><path fill="url(#a)" d="m410 223 1.5 2c-4.242 1.172-17.007.554-20 2-5.018 2.424-14.148 50.371-14.5 59-57.02 46.53-68.428 100.161-67 171 .77 38.209 13.667 131.605 35 162.5 5.568 8.063 12.715 11.109 18 17 .424.472-.431 4.438 0 5 7.994 10.436 22.822 8.661 34 8.5 14.025-.202 22.363-1.163 36-4 8.182 1.887 8.178 15.392 15 20 .773 4.368 2.634 8.324 4 12.5 2.037 2.12 1.743-8.187 2-9 4.188-13.239 16.067-22.799 23-34.5 25.977-3.719 44.081-3.454 70 0-1.545 1.894.018 4.751 0 5-1.178 16.093-14.806 32.068-27 41.5.328 3.552 15.809 2.253 19 2.5v3c-48.158-5.705-83.427-1.062-128 17-12.887 5.222-25.209 10.602-37 18-2.377-7.704-17.762-26.943-23-35-17.817-27.402-36.303-54.765-57-80 .147-.549-.126-1.408 0-2 9.452-44.479 6.214-115.732-6-159.5-4.217-15.111-21.12-59.597-36-65.5 9.923-46.203 20.727-94.92 44-136.5 1.697-3.032 13.811-23.214 15-24 9.378-6.199 48.075 7.334 54 19-1.208-6.21 1.627-19.831 0-25-.696-2.213-36.416-23.343-40-23.5-5.271-.232-8.556 13.4-15 11.5-.11-3.043 16.038-14.971 11-18.5 3.499-3.926 6.105-7.279 10-11 9.249 9.055 52.023 51.182 61.5 53 3.197.613 13.745-1.271 17.5-2m-99 66c-37.497 2.736-19.601 73.214 5 39 6.514-9.059 11.846-40.229-5-39" style="fill:url(#a)"/>/&gt;<path fill="#6193a2" d="M781 382c-40.042 5.747-45.378 105.33-45 135 .301 23.628 3.553 48.709 4 72.5-16.961 19.034-32.526 39.949-47 61-12.087 17.58-37.46 52.36-45 70.5-6.27-4.349-13.941-8.217-21-11 1.215-.085 1.273-2.107 2-3 14.336-17.624 23.759-45.605 31-67 52.038-36.79 61.831-191.544 52-249.5-9.729-57.356-27.385-62.235-59-102.5-5.542-7.059-2.74-4.993-5-13-4.755-16.845-7.947-32.463-18-47.5l53-45.5c2.795-2.759 6.432-6.209 9-9 51.247 57.833 76.796 133.634 89 209m-72.5-92c-13.94 3.186-5.191 44.688 12 48 29.365 5.658 14.967-54.163-12-48"/><path fill="#bfd2db" d="m648 275-1.5 7c-7.28-5.911-14.948-12.198-23-17-41.147-24.536-95.695-32.665-145-25-.585.091-9.026.955-4.5 3-26.923 4.219-51.751 14.069-75 28-7.777 4.66-14.964 9.259-22 15 .352-8.629 9.482-56.576 14.5-59 2.993-1.446 15.758-.828 20-2l-1.5-2c13.484-2.617 27.545-8.885 42-12 16.172-.26 32.261-4.52 48.5-5 18.522-.547 37.041 3.045 55.5 2 17.759 2.64 63.27 19.027 75.5 16 5.73-1.418 45.038-35.622 51.5-42l-53 45.5c10.053 15.037 13.245 30.655 18 47.5"/><path fill="#c2ecf5" d="M325 190c-28.319 36.065-51.548 76.005-64 120.5-6.272 22.411-8.973 45.821-14 68.5-3.341-.481-6.908.904-10 0 11.354-72.539 34.759-140.747 84-196 5.038 3.529-11.11 15.457-11 18.5 6.444 1.9 9.729-11.732 15-11.5"/><path fill="#fdfefe" d="M252 380c-.538-.214-4.022-.859-5-1 5.027-22.679 7.728-46.089 14-68.5 12.452-44.495 35.681-84.435 64-120.5 3.584.157 39.304 21.287 40 23.5 1.627 5.169-1.208 18.79 0 25-5.925-11.666-44.622-25.199-54-19-1.189.786-13.303 20.968-15 24-23.273 41.58-34.077 90.297-44 136.5"/><path fill="#6693a1" d="M637.5 197c3.999-1.165 14.76.473 19.5.5-6.327 4.644-29 23.463-36.5 20.5l-1.5-2.5c3.778-2.238 15.872-17.734 18.5-18.5"/><path fill="url(#b)" d="M556 208c-18.459 1.045-36.978-2.547-55.5-2-16.239.48-32.328 4.74-48.5 5 35.478-7.646 67.996-8.353 104-3" style="fill:url(#b)"/>/&gt;<path fill="#c6edf6" d="M648 275c2.26 8.007-.542 5.941 5 13l-2 2c-6.857-5.763-15.37-11.263-23-16-47.262-29.344-98.794-39.652-154-31-4.526-2.045 3.915-2.909 4.5-3 49.305-7.665 103.853.464 145 25 8.052 4.802 15.72 11.089 23 17z"/><path fill="#0b2f3c" d="m628 274-1 3c-48.357-31.895-106.085-41.53-163-30-13.42 2.719-24.835 7.705-37 13-6.048 2.633-11.205 4.747-17 8l-11 3c23.249-13.931 48.077-23.781 75-28 55.206-8.652 106.738 1.656 154 31"/><path fill="#d3f1f6" d="M627 277c25.753 16.986 48.189 40.111 60 69-.413-.853-3.489-4.335-5-7-26.587-46.907-62.555-69.22-113-84-37.876-11.097-60.092-10.591-99.5-6-1.515.177-6.036.938-5.5-2 56.915-11.53 114.643-1.895 163 30"/><path fill="url(#c)" d="M569 255c42.034 17.202 78.262 50.062 100 90 18.685 34.328 28.812 77.381 27 116.5-2.194 47.356-32.615 172.283-92 176.5-2.218.158-14.678-2.479-18-3-33.611-9.593-55.62-17.973-92.5-15-35.827 2.888-65.969 25.985-102.5 22-36.503-8.537-52.15-70.165-60-102.5-18.055-74.373-26.205-155.235 21-220.5l2 1c-37.152 47.758-25.713 121.002-14.5 176-12.426-97.412 26.663-212.456 129.5-241.5-13.669-1.716-26.671 3.447-39 8.5l-3-3c12.165-5.295 23.58-10.281 37-13-.536 2.938 3.985 2.177 5.5 2 39.408-4.591 61.624-5.097 99.5 6m-47 337c43.937-2.079 85.146-27.559 109-64 91.951-140.473-84.762-299.33-213.5-191-106.791 89.862-32.187 271.091 104.5 255" style="fill:url(#c)"/>/&gt;<path fill="#fdfefe" d="M354 320c16.008-20.578 51.811-47.087 76-57 12.329-5.053 25.331-10.216 39-8.5C366.163 283.544 327.074 398.588 339.5 496c-11.213-54.998-22.652-128.242 14.5-176"/><path fill="#76a3b4" d="m682 339-13 6c-21.738-39.938-57.966-72.798-100-90 50.445 14.78 86.413 37.093 113 84"/><path fill="#e1f4fa" d="m427 260 3 3c-24.189 9.913-59.992 36.422-76 57l-2-1c15.222-21.046 35.448-38.339 58-51 5.795-3.253 10.952-5.367 17-8"/><path fill="#045a76" d="M410 268c-22.552 12.661-42.778 29.954-58 51-47.205 65.265-39.055 146.127-21 220.5 7.85 32.335 23.497 93.963 60 102.5 29.77 6.963 49.87-8.744 77.5-14 45.495-8.655 74.247.216 117.5 7 5.233 1.493 9.68 3.87 16 5 53.345 9.54 71.488-32.742 85-76.5 19.967-64.659 30.271-155.018 0-217.5-11.811-28.889-34.247-52.014-60-69l1-3c7.63 4.737 16.143 10.237 23 16 82.025 68.938 72.749 212.205 35 302.5-33.532 80.208-73.765 51.193-139 42.5-25.919-3.454-44.023-3.719-70 0-10.147 1.453-19.978 4-30 6-4.183.835-10.402 4.252-14 5-13.637 2.837-21.975 3.798-36 4-4.327-1.663-10.287-2.225-14.5-4-51.708-21.783-67.376-139.607-72.5-189-1.428-70.839 9.98-124.47 67-171 7.036-5.741 14.223-10.34 22-15z"/><path fill="#4d98ad" d="m316 328-1-1c5.65-7.973 9.106-26.436 2-34-2.523-2.686-2.263-3.055-6-3v-1c16.846-1.229 11.514 29.941 5 39"/><path fill="#8ce0f3" d="M660 640c-36.392 25.729-71.6-.252-107.5-3-2.436-.186-5.564-.635-5.5 3 .018-.249-1.545-3.106 0-5 65.235 8.693 105.468 37.708 139-42.5 37.749-90.295 47.025-233.562-35-302.5l2-2c31.615 40.265 49.271 45.144 59 102.5 9.831 57.956.038 212.71-52 249.5"/><path fill="#133e49" d="M311 289v1c-4.612.068-9.208 4.914-12 8-19.771 21.85 1.496 49.467 16 29l1 1c-24.601 34.214-42.497-36.264-5-39"/><path fill="#26add8" d="M311 290c3.737-.055 3.477.314 6 3 6.035 39.636-38.99 56.391-18 5 2.792-3.086 7.388-7.932 12-8"/><path fill="#07141d" d="M708.5 290c26.967-6.163 41.365 53.658 12 48-17.191-3.312-25.94-44.814-12-48m-4.5 14c-.225 6.103 4.071 18.76 8 23.5 19.988 24.113 33.167-14.343 11-29.5-9.432-6.45-18.443-9.123-19 6"/><path fill="#7de5f8" d="M315 327c-14.504 20.467-35.771-7.15-16-29-20.99 51.391 24.035 34.636 18-5 7.106 7.564 3.65 26.027-2 34"/><path fill="#1e7e98" d="M723 298c7.044 9.732 10.711 25.663.5 34-4.772.846-7.642-2.409-10.5-5.5l-9-22.5c.557-15.123 9.568-12.45 19-6"/><path fill="#34b1cb" d="m704 304 9 22.5c2.858 3.091 5.728 6.346 10.5 5.5 10.211-8.337 6.544-24.268-.5-34 22.167 15.157 8.988 53.613-11 29.5-3.929-4.74-8.225-17.397-8-23.5"/><path fill="#a9e0ef" d="m631 528-5-2c2.384-3.225 3.977-6.619 6-10 45.644-76.276 9.113-168.266-72-199-65.169-24.693-133.459.127-168 60-11.671 20.23-18.145 39.322-19 63-1.578 43.678 13.467 77.689 45 107 40.119 37.293 92.356 48.055 144 28-.776 1.849 1.69 3.897 1 5.5-.845 1.965-36.471 10.967-41 11.5-136.687 16.091-211.291-165.138-104.5-255C546.238 228.67 722.951 387.527 631 528"/><path fill="#0f546c" d="M560 317c4.029 2.461-1.755 7.656-2 12-58.214-22.543-123.207-.673-155 53l-11-5c34.541-59.873 102.831-84.693 168-60"/><path fill="#0f6881" d="M632 516c-3.078.201-3.439.234-2.5-3 1.07-3.682 13.935-24.179 11-27-.315-.303-7.25-1.561-8.5-2 18.959-63.788-11.614-130.842-74-155 .245-4.344 6.029-9.539 2-12 81.113 30.734 117.644 122.724 72 199"/><path fill="#011c2c" d="M558 329c62.386 24.158 92.959 91.212 74 155-2.599 8.745-5.693 15.067-10 23l-2-1c57.279-104.801-52.767-221.206-160.5-172-81.55 37.247-96.675 150.744-27.5 208l-1 1c-1.127-.933-4.251-2.36-6-4-26.667-25.012-41.613-62.316-40-99 .862-19.605 8.048-41.199 18-58 31.793-53.673 96.786-75.543 155-53"/><path fill="url(#d)" d="M620 506c-37.102 67.884-128.105 85.575-188 36-69.175-57.256-54.05-170.753 27.5-208 107.733-49.206 217.779 67.199 160.5 172m-188-88c1.601 2.125 3.655 6.582 5 8-17.1 61.827 42.564 116.114 103.5 94 3.367-1.222 16.499-9.887 17.5-10a5 5 0 0 1 1 0c1.138.128 5.491 4.119 9 5 20.347 5.111 24.865-12.262 23-29-.348-3.123-3.123-10.17-5-13 .08-.914.133-2.111 0-3 22.719-66.877-54.023-127.277-114-90h-1c-8.366-17.072-44.431-22.794-51-1.5-5.103 16.541 2.872 27.387 12 39.5" style="fill:url(#d)"/>/&gt;<path fill="#688e9d" d="M682 339c1.511 2.665 4.587 6.147 5 7 30.271 62.482 19.967 152.841 0 217.5-13.512 43.758-31.655 86.04-85 76.5l2-2c59.385-4.217 89.806-129.144 92-176.5 1.812-39.119-8.315-82.172-27-116.5z"/><path fill="#fefeff" d="M471 380c13.405 27.352-12.279 49.569-39 38-9.128-12.113-17.103-22.959-12-39.5 6.569-21.294 42.634-15.572 51 1.5"/><path fill="url(#e)" d="M586 470c-2.064-13.822-29.442-18.204-39-4.5-10.705 15.349-1.789 33.887 11 44.5-1.001.113-14.133 8.778-17.5 10-60.936 22.114-120.6-32.173-103.5-94 34.708 36.578 79.254-21.478 35-46 59.977-37.277 136.719 23.123 114 90" style="fill:url(#e)"/>/&gt;<path fill="#0f6881" d="M403 382c-9.952 16.801-17.138 38.395-18 58h-12c.855-23.678 7.329-42.77 19-63z"/><path fill="#579faf" d="M247 379c-.737 3.325-2.12 7.643-2 11-1.824-1.1-6.708-2.687-9-3 .702-2.587.596-5.417 1-8 3.092.904 6.659-.481 10 0"/><path fill="#6aa2ae" d="M252 380c14.88 5.903 31.783 50.389 36 65.5 12.214 43.768 15.452 115.021 6 159.5-1.019-2.993-12.766-11.629-13-12.5-.336-1.253 2.934-21.256 3-25 .65-36.99-4.313-156.58-39-177.5-.12-3.357 1.263-7.675 2-11 .978.141 4.462.786 5 1"/><path fill="#98b4c2" d="M437 426c-1.345-1.418-3.399-5.875-5-8 26.721 11.569 52.405-10.648 39-38h1c44.254 24.522-.292 82.578-35 46"/><path fill="#285b6a" d="M787 383v1c-39.067 5.843-43.25 100.305-48 129.5-.097.595-1.352 4.31-3 3.5-.378-29.67 4.958-129.253 45-135 2.476-.355 3.816.634 6 1"/><path fill="#081b26" d="M791 383c3.02.233 14.076 7.267 16.5 8 19.241 5.822 37.894 4.621 48.5 23.5 26.701 47.53 22.716 173.65-6 220-18.052 29.138-52.293 10.531-67 23-4.447 3.77-32.045 54.656-39 65-21.258 31.615-46.824 71.144-82 87l-.5 14.5c-2.902-3.45 2.481-13.517-3.5-15.5 1.487 23.866-7.09 48.939-20 68 .33-7.4 3.979-17.659.5-24.5-2.814 11.279-6.007 23.829-15.5 31.5 1.967-8.979 6.01-18.231 4.5-27.5-5.273 15.659-14.723 29.046-27 40l10.5-30c1.507-.638.654-1.09 1.5-2l-5 22c1.123.38 12.503-17.377 13.5-19.5.713-1.517 5.894-14.199 6-15 .793-5.968-3.247-17.298.5-24.5 6.344 13.102 2.562 27.663 1.5 41.5 7.031-5.181 5.828-20.412 10.5-25.5l2.5 22.5c8.487-17.125 14.183-34.76 14-54-.003-.292-3.002-4.708-3-5 .02-3.704 2.963-2.136 3-5 .018-1.425-9.436-18.811-3-15 3.287 3.564 3.717 13.938 9 13.5 2.42-.201 3.283-1.756 4-2 17.164-5.827 27.374-16.993 39-30 28.319-31.683 51.733-71.852 73-108.5-.311-.984-10.368-2.658-13-3.5-17.268-14.657-20.656-38.68-23.5-60-1.827-1.476-17.003 18.165-18.5 20-22.995 28.188-59.443 75.366-73 108-2.404 5.786-7.003 10.009-5 18-.393-1.032-.692-1.064-1-3-.95-5.98 1.68-12.419 4-18 7.54-18.14 32.913-52.92 45-70.5 14.474-21.051 30.039-41.966 47-61-.447-23.791-3.699-48.872-4-72.5 1.648.81 2.903-2.905 3-3.5 4.75-29.195 8.933-123.657 48-129.5 1.695-.254 2.607-1.107 4-1m-28 32c-13.735 30.811-18.047 67.546-20 101-6.266 20.89 3.34 112.385 17 130.5 8.788 11.654 16.328 7.259 28 5.5 12.849-1.936 26.33-4.968 39-8 4.353 1.404 2.85-.402 5-1 1.167-.325 3.835.39 4.5 0 13.271-7.78 27.852-53.3 28.5-69 2.052-7.35 3.059-14.455 4-22 2.478-19.873 2.288-40.042 1-60-1.139-17.654-8.242-71.855-23.5-82-1.36-.904-3.562 2.039-4.5.5-.799-1.312 1.045-3.791.5-4.5-1.317-1.711-37.023-9.134-42-10 4.829-4.443-1.272-7.251-6-8-17.878-2.834-25.403 13.323-31.5 27"/><path fill="#17788f" d="m230 387-2 2c-1.101.108-9.994 4.252-10 5.5 14.646 11.353 23.137 29.306 29 46.5 1.014 2.975 4.342 8.535 2 11-.993-3.016-1.878-6.02-3-9-1.088-2.892-1.784-6.137-3-9-3.12-7.345-5.695-12.28-10-19-2.753-4.298-10.205-16.982-15.5-18-3.804-.732-31.436 10.907-37.5 11-.572-6.541-3.258-.757-7-1 1.209-1.058 3.065-3.302 4.5-4 2.823-1.373 49.765-15.771 52.5-16"/><path fill="#051d29" d="M236 387c2.292.313 7.176 1.9 9 3 34.687 20.92 39.65 140.51 39 177.5-.066 3.744-3.336 23.747-3 25 .234.871 11.981 9.507 13 12.5-.126.592.147 1.451 0 2-.344 1.282-1.371 3.195-1.5 5L282 600.5l-2 1c-.794 14.37-9.215 51.47-24.5 56.5-5.054 1.663-10.734-1.924-14.5 2-8.345-8.011-44.242-4.359-56.5-10-7.581-3.489-18.701-24.226-19.5-33 1.842 3.591 3.014 10.295 7 8 3.548 6.729 9.385 18.039 16.5 21 .124.052.835-1.505 2.5-1 12.855 3.902 29.598 5.896 44 8 .07.01-.36.801 1 1 4.828.707 12.8 3.148 17.5 2 16.893-4.125 24.263-63.2 24.5-78 3.265-33.038 2.078-68.655-3-101.5-3.357-21.715-17.182-90.415-47-87.5l2-2c.329-.028.668.009 1 0 1.559-.043 3.527-.201 5 0"/><path fill="#41b7d2" d="m870 492-5 1c-.802-8.37-1.993-16.844-4-25-8.5-34.535-23.294-37.773-36-3l-10-1c5.26-19.225 12.353-38.525 26-53.5-.115-2.208-37.773-9.296-42-10.5-.163-.046.438-2.754-.5-3-1.928-.506-12.021 16.398-13.5 19-3.459-2.242-2.144 2.688-5.5 3-2.881.268-11.896-7.737-16.5-4 6.097-13.677 13.622-29.834 31.5-27 4.728.749 10.829 3.557 6 8 4.977.866 40.683 8.289 42 10 .545.709-1.299 3.188-.5 4.5.938 1.539 3.14-1.404 4.5-.5 15.258 10.145 22.361 64.346 23.5 82"/><path fill="#62d9f2" d="M278 578c.106-6.638-2.043-13.691 0-20.5l-14 .5c1.378-34.566-1.895-70.162-11-103.5-.994-3.64-2.86-11.238-6-13.5-5.863-17.194-14.354-35.147-29-46.5.006-1.248 8.899-5.392 10-5.5 29.818-2.915 43.643 65.785 47 87.5 5.078 32.845 6.265 68.462 3 101.5"/><path fill="#a0f3fd" d="M233 415c-7.344 4.461-23.853-.376-31.5 2-.723.225-2.843 9.087-9.5 6-3.558-6.669-8.877-7.588 1-13.5l-12 1.5-1.5 1c-2.818-3.175.524-3.73.5-4 6.064-.093 33.696-11.732 37.5-11 5.295 1.018 12.747 13.702 15.5 18m-16.5-14-18.5 7.5c.659 3.666 26.638-2.969 18.5-7.5"/><path fill="#346b7a" d="M799 400c-13.161 12.331-21.853 33.671-26 51-.327 1.368-.732 2.617-1 4h-2c1.548-5.933 4.615-11.739 5-18 2.661-6.837 6.365-14.605 10-21 1.479-2.602 11.572-19.506 13.5-19 .938.246.337 2.954.5 3"/><path fill="#e9f9fd" d="M799 400c4.227 1.204 41.885 8.292 42 10.5-13.647 14.975-20.74 34.275-26 53.5-2.162 7.901-3.443 16.061-5.5 24l.5-23c.208-.905.788-1.094 1-2 2.761-11.781 9.424-20.882-9.5-19-.93.092-.075 2.94-1 3-10.025.648-21.513-4.306-27.5 4 4.147-17.329 12.839-38.669 26-51"/><path fill="#f8fefe" d="M216.5 401c8.138 4.531-17.841 11.166-18.5 7.5z"/><path fill="#22a4c0" d="M180 408c.024.27-3.318.825-.5 4l1.5-1v2c-.253-.118-5.223-1.035-5.5-1-5.804.732-17.092 35.329-18.5 41.5-6.984 30.613-6.252 61.485-4 92.5.374 5.146.362 10.963 1 16h-3c-4.689-34.835-6.316-130.216 22-155 3.742.243 6.428-5.541 7 1"/><path fill="#f6fdfe" d="M192 423c1.49 2.792 6.113 7.603 2 9-2.205-4.047-9.301-17.275-13-19v-2l12-1.5c-9.877 5.912-4.558 6.831-1 13.5"/><path fill="#73e9fc" d="M181 413c3.699 1.725 10.795 14.953 13 19 .858 1.575 2.891 3.775 3 4 6.208 12.865 11.077 31.9 14 46-5.03.044 1.335 6.353-2 9-.573-2.504-3.419-16.816-4-17.5-1.463-1.721-3.459.901-4 0-1.186-1.977-1.56-11.513-5-9.5-3.855-9.475-8.746-25.849-22.5-20-17.874 7.602-17.574 81.807-16.5 99l-4 3c-2.252-31.015-2.984-61.887 4-92.5 1.408-6.171 12.696-40.768 18.5-41.5.277-.035 5.247.882 5.5 1"/><path fill="#69d5ec" d="M785 416c-3.635 6.395-7.339 14.163-10 21-9.146 23.496-13.827 48.839-16 74-2.506 1.307-12.952-1.398-13.5-1-1.245.904.014 4.357-.5 5.5-.406.902-1.965.383-2 .5 1.953-33.454 6.265-70.189 20-101 4.604-3.737 13.619 4.268 16.5 4 3.356-.312 2.041-5.242 5.5-3"/><path fill="#cbf8fe" d="m243 434-46 2c-.109-.225-2.142-2.425-3-4 4.113-1.397-.51-6.208-2-9 6.657 3.087 8.777-5.775 9.5-6 7.647-2.376 24.156 2.461 31.5-2 4.305 6.72 6.88 11.655 10 19"/><path fill="#f4fdfe" d="M243 434c1.216 2.863 1.912 6.108 3 9-6.769.371-13.741-.508-20.5 0-2.198.165-6.623 2.944-7 3-4.536.669-5.363-2.379-8-2-8.285 1.189 1.607 19.375 2.5 25.5.484 3.316-1.493 6.223-1 10 1.21 9.273 4.351 18.46 4 28-3.426-7.587-3.275-17.18-5-25.5-2.923-14.1-7.792-33.135-14-46z"/><path fill="#bbedf9" d="M770 455c-9.049 34.691-12.225 72.196-10 108-2.511-1.892-2.973-12.673-3-15.5-.113-11.809.979-24.682 2-36.5 2.173-25.161 6.854-50.504 16-74-.385 6.261-3.452 12.067-5 18"/><path fill="#1290aa" d="M385 440c-1.613 36.684 13.333 73.988 40 99l-7 8c-31.533-29.311-46.578-63.322-45-107z"/><path fill="#beeef9" d="M264 558c-1.293 32.424-6.517 70.624-28 96-1.36-.199-.93-.99-1-1 11.454-13.838 18.144-31.117 22-48.5 11.113-50.097 6.561-108.267-8-152.5 2.342-2.465-.986-8.025-2-11 3.14 2.262 5.006 9.86 6 13.5 9.105 33.338 12.378 68.934 11 103.5"/><path fill="#0e5e76" d="M861 468c-5.605-5.301-11.354-19.527-21-13-2.893.255-3.592 1.826-5 3-4.975 4.149-10.196 13.582-8 19-7.298 23.734-8.277 54.864-6 79.5 1.069 11.568 5.514 23.384 5 34.5-10.272-7.168-8.803-14.547-10-26-1.38-13.207 1.528-30.731 0-41 .409-20.381 1.976-39.776 9-59 12.706-34.773 27.5-31.535 36 3"/><path fill="#052333" d="M196 464c1.065 2.617 1.266 4.724 2 7-2.97-4.579-3.641-7.188-8-11-.055-.048.037-.338-1-1-.789-.503-1.711-1.643-3-2-5.531-1.531-6.287-1.75-11 1-15.129 8.827-14.607 68.555-14 85 .67 18.168 1.487 38.649 10 55-.069.017.158 1.181-1 1-.215-.455-1.508-1.806-2-3-7.517-18.248-9.771-33.321-11-53-1.074-17.193-1.374-91.398 16.5-99 13.754-5.849 18.645 10.525 22.5 20"/><path fill="url(#f)" d="M246 443c1.122 2.98 2.007 5.984 3 9 14.561 44.233 19.113 102.403 8 152.5-3.856 17.383-10.546 34.662-22 48.5-14.402-2.104-31.145-4.098-44-8v-1c12.354-4.316 17.066-25.552 18-37 .232-.902.793-1.106 1-2 3.72-2.204 5.303-12.621 6-17 1.623-10.198 2.791-24.68 3-35 .201-9.923-.633-19.621-1-29.5l-4 3.5c-.216-1.457.387-4.761 0-5.5-.19-.363-5.811.22-7-1.5-.006-.112-.837.515-1-2 1.557-.873 6.472-.79 7-1.5.77-1.036-3.296-22.425-4-25.5 3.335-2.647-3.03-8.956 2-9 1.725 8.32 1.574 17.913 5 25.5.351-9.54-2.79-18.727-4-28-.493-3.777 1.484-6.684 1-10-.893-6.125-10.785-24.311-2.5-25.5 2.637-.379 3.464 2.669 8 2 .377-.056 4.802-2.835 7-3 6.759-.508 13.731.371 20.5 0m-13.5 44c-16.973 2.533-15.361 33.564 5 32 18.919-1.454 18.25-35.469-5-32" style="fill:url(#f)"/>/&gt;<path fill="#9cdaea" d="M811 463h-40.5c-.87-.456 1.21-6.507 1.5-8 .268-1.383.673-2.632 1-4 5.987-8.306 17.475-3.352 27.5-4 .925-.06.07-2.908 1-3 18.924-1.882 12.261 7.219 9.5 19"/><path fill="#04293e" d="M861 468c2.007 8.156 3.198 16.63 4 25 1.024 10.693 1.296 21.258 1 32-.474-6.305-3.184-11.712-4-18-1.743-13.436-1.981-43.03-15-50-3.005-1.609-2.729-2.377-7-2 9.646-6.527 15.395 7.699 21 13"/><path fill="url(#g)" d="M772 455c-.29 1.493-2.37 7.544-1.5 8H811c-.212.906-.792 1.095-1 2-1.296 5.633-4.429 25.3-6 28.5-.66 1.345-2.811 1.748-4 2.5-4.653-14.678-26.86-11.727-29 3-3.227-2.395-2.111 7.128-2 7.5 4.715 15.73 22.248 17.073 32.5 5.5 5.542 1.34 2.342 3.639 4 6 1.123 1.6 1.467-4.289 2.5 4 .406 3.258-.042 7.545 0 11-1.026-.1-3.938 4.205-4 4.5-1.597 7.578.108 29.843 1 38.5.411 3.99 1.171 8.07 2 12-5.207 1.869-1.049 6.078-1 6.5 1.846 15.936 3.012 31.443 14 43.5 2.229 2.445 3.565 4.892 7 6-12.67 3.032-26.151 6.064-39 8-21.247-23.283-26.097-58.37-28-89-2.225-35.804.951-73.309 10-108z" style="fill:url(#g)"/>/&gt;<path fill="#1d9cb5" d="M847 457c8.446 32.098 10.656 70.938 6 104-1.602 11.374-5.435 23.101-9 34-2.597.574-4.299 4.085-9.5 4-1.247-.02-12.822-3.232-13.5-6-.677-1.525-1.833-6.469-3.5-7-.37-.118-6.119 2.136-7.5 2-.459-5.968-1.651-12.107-2-18-.078-1.318.061-2.68 0-4l8-1c1.197 11.453-.272 18.832 10 26 2.046 1.428 3.342 2.592 6 3 1.802.277 2.432 1.721 5-.5 6.276-5.427 11.474-44.097 12-53.5.715-12.764.273-28.263-1-41-1.213-12.143-3.501-33.221-12-41h-1c1.408-1.174 2.107-2.745 5-3 4.271-.377 3.995.391 7 2"/><path fill="#1ebed8" d="M186 457c-14.682 24.911-14.512 64.376-12 93l-5 2c-.328-3.051-.795-5.849-1-9-1.853-28.495-.593-57.426 7-85 4.713-2.75 5.469-2.531 11-1"/><path fill="#0184a6" d="M189 459c-1.773-.286-1.885-.088-3 1-2.302 2.247-6.17 17.549-7 21.5-7.182 34.21-4.274 69.478 2 103.5-4.255-10.909-5.982-23.394-7-35-2.512-28.624-2.682-68.089 12-93 1.289.357 2.211 1.497 3 2"/><path fill="#f9fdfe" d="M397 650c-11.178.161-26.006 1.936-34-8.5-.431-.562.424-4.528 0-5-5.285-5.891-12.432-8.937-18-17-21.333-30.895-34.23-124.291-35-162.5 5.124 49.393 20.792 167.217 72.5 189 4.213 1.775 10.173 2.337 14.5 4"/><path fill="#6bb0c9" d="M586 470c.133.889.08 2.086 0 3-.966 10.995-18.504 29.984-27 37a5 5 0 0 0-1 0c-12.789-10.613-21.705-29.151-11-44.5 9.558-13.704 36.936-9.322 39 4.5"/><path fill="#016887" d="m848 499-13-39c.359-.525.839-1.348 1-2 8.499 7.779 10.787 28.857 12 41"/><path fill="#005c7d" d="M862 507c-1.415 5.217-1.537 13.16-1 18.5.094.934 2.911.066 3 1 .405 4.253-1.336 33.388-3.5 34.5-1.081.555-5.748-.392-7.5 0 4.656-33.062 2.446-71.902-6-104 13.019 6.97 13.257 36.564 15 50"/><path fill="#007c9e" d="M168 543h-7c-.607-16.445-1.129-76.173 14-85-7.593 27.574-8.853 56.505-7 85"/><path fill="#073143" d="M836 458c-.161.652-.641 1.475-1 2-3.519 5.149-6.172 11.054-8 17-2.196-5.418 3.025-14.851 8-19z"/><path fill="#045c72" d="M189 459c1.037.662.945.952 1 1 7.647 16.302 10.602 32.755 13 50.5.355 2.628-.026 1.778 0 2 .375 3.145.247 11.692 4 11.5.57 14.498.367 29.557-1 44-.474 5.006-1 11.167-2 16-4.018-.35-3.018 8.618-6 11.5-1.561 1.509-4.195 1.108-5 1.5-.066-3.429 2.266-5.708 3-9 .761-3.417 1.637-8.465 2-10.5 6.709-37.621 6.681-83.317-12-117.5 1.115-1.088 1.227-1.286 3-1"/><path fill="url(#h)" d="M196 588c-3.501 1.628-6.181 8.219-10.5 7-3.843-2.435-3.265-6.832-4.5-10-6.274-34.022-9.182-69.29-2-103.5.83-3.951 4.698-19.253 7-21.5 18.681 34.183 18.709 79.879 12 117.5-.363 2.035-1.239 7.083-2 10.5" style="fill:url(#h)"/>/&gt;<path fill="#2babc2" d="M198 471c6.032 18.718 6.729 27.39 8 47 .163 2.515.994 1.888 1 2 .069 1.319-.052 2.679 0 4-3.753.192-3.625-8.355-4-11.5-.026-.222.355.628 0-2-2.398-17.745-5.353-34.198-13-50.5 4.359 3.812 5.03 6.421 8 11"/><path fill="url(#i)" d="M848 499c1.273 12.737 1.715 28.236 1 41-1.959-.834-2.914 4.742-3 5.5-1.823 16.036-2.223 36.785-14 48.5-2.658-.408-3.954-1.572-6-3 .514-11.116-3.931-22.932-5-34.5-2.277-24.636-1.298-55.766 6-79.5 1.828-5.946 4.481-11.851 8-17z" style="fill:url(#i)"/>/&gt;<path fill="#e3fafe" d="M209 491c.704 3.075 4.77 24.464 4 25.5-.528.71-5.443.627-7 1.5-1.271-19.61-1.968-28.282-8-47-.734-2.276-.935-4.383-2-7 3.44-2.013 3.814 7.523 5 9.5.541.901 2.537-1.721 4 0 .581.684 3.427 14.996 4 17.5"/><path fill="#82d8eb" d="M825 465c-7.024 19.224-8.591 38.619-9 59-.065-.439-1.578-3.558-1.5-5l-6.5 3c-1.033-8.289-1.377-2.4-2.5-4-1.658-2.361 1.542-4.66-4-6-10.252 11.573-27.785 10.23-32.5-5.5-.111-.372-1.227-9.895 2-7.5-4.016 27.643 37.412 23.536 29-3 1.189-.752 3.34-1.155 4-2.5 1.571-3.2 4.704-22.867 6-28.5l-.5 23c2.057-7.939 3.338-16.099 5.5-24zm-15.5 27-1 14c1.86-2.384 4.026-11.997 1-14"/><path fill="#82e5f6" d="m591 486-23 29c-3.509-.881-7.862-4.872-9-5 8.496-7.016 26.034-26.005 27-37 1.877 2.83 4.652 9.877 5 13"/><path fill="#1290aa" d="M632 516c-2.023 3.381-3.616 6.775-6 10-6.35 8.591-14.879 17.067-23 24l-7-9c10.692-9.629 19.179-21.436 26-34 4.307-7.933 7.401-14.255 10-23 1.25.439 8.185 1.697 8.5 2 2.935 2.821-9.93 23.318-11 27-.939 3.234-.578 3.201 2.5 3"/><path fill="#b0f3fb" d="M591 486c1.865 16.738-2.653 34.111-23 29z"/><path fill="#032732" d="M800 496c8.412 26.536-33.016 30.643-29 3 2.14-14.727 24.347-17.678 29-3m-15.5-8c-2.993.267-9.502 5.862-10.5 8.5-6.302 16.669 15.354 27.113 23 13 5.267-9.721-.641-22.558-12.5-21.5"/><path fill="#03262f" d="M232.5 487c23.25-3.469 23.919 30.546 5 32-20.361 1.564-21.973-29.467-5-32m0 2c-16.285 3.677-8.602 32.988 8 28 15.133-4.547 9.32-31.91-8-28"/><path fill="#03768d" d="M784.5 488c11.859-1.058 17.767 11.779 12.5 21.5-7.646 14.113-29.302 3.669-23-13 .998-2.638 7.507-8.233 10.5-8.5m0 3c-9.624 1.133-13.128 16.898-4 21 17.269 7.76 22.417-23.168 4-21"/><path fill="#04899b" d="M232.5 489c17.32-3.91 23.133 23.453 8 28-16.602 4.988-24.285-24.323-8-28m0 3c-10.729 2.542-7.065 24.619 6 22 12.361-2.478 9.201-25.602-6-22"/><path fill="#031920" d="M784.5 491c18.417-2.168 13.269 28.76-4 21-9.128-4.102-5.624-19.867 4-21m0 2c-6.456 1.081-10.922 13.157-3 17 14.946 7.25 17.351-19.402 3-17"/><path fill="#04181e" d="M232.5 492c15.201-3.602 18.361 19.522 6 22-13.065 2.619-16.729-19.458-6-22m0 2c-5.844 1.686-6.439 14.102 0 17 14.322 6.445 16.948-21.89 0-17"/><path fill="#45bad5" d="M809.5 492c3.026 2.003.86 11.616-1 14z"/><path fill="#8cdfee" d="M870 492c1.288 19.958 1.478 40.127-1 60-2.239-1.835.6-4.859-4-4 .629-7.547 1.57-15.413 1-23 .296-10.742.024-21.307-1-32z"/><path fill="#e6f5f8" d="M784.5 493c14.351-2.402 11.946 24.25-3 17-7.922-3.843-3.456-15.919 3-17"/><path fill="#f7fdfe" d="M232.5 494c16.948-4.89 14.322 23.445 0 17-6.439-2.898-5.844-15.314 0-17"/><path fill="#004667" d="M622 507c-6.821 12.564-15.308 24.371-26 34-47.886 43.126-116.032 42.524-165 2l1-1c59.895 49.575 150.898 31.884 188-36z"/><path fill="#00425d" d="M866 525c.57 7.587-.371 15.453-1 23-1.322 15.862-4.383 28.243-10 43-4.936 10.008-7.72 3.275-11 4 3.565-10.899 7.398-22.626 9-34 1.752-.392 6.419.555 7.5 0 2.164-1.112 3.905-30.247 3.5-34.5-.089-.934-2.906-.066-3-1-.537-5.34-.415-13.283 1-18.5.816 6.288 3.526 11.695 4 18"/><path fill="#45b7d2" d="M759 511c-1.021 11.818-2.113 24.691-2 36.5.027 2.827.489 13.608 3 15.5 1.903 30.63 6.753 65.717 28 89-11.672 1.759-19.212 6.154-28-5.5-13.66-18.115-23.266-109.61-17-130.5.035-.117 1.594.402 2-.5.514-1.143-.745-4.596.5-5.5.548-.398 10.994 2.307 13.5 1"/><path fill="#a5deeb" d="M816 524c1.528 10.269-1.38 27.793 0 41l-8 1c-.511-11.07.132-22.026 0-33-.042-3.455.406-7.742 0-11l6.5-3c-.078 1.442 1.435 4.561 1.5 5"/><path fill="#cff1f8" d="M214 527c1.19 8.03 1.124 17.829 1 26-.061 3.995-.809 7.947-1 12-1.221 3.602-4.346 3.886-8 3 1.367-14.443 1.57-29.502 1-44-.052-1.321.069-2.681 0-4 1.189 1.72 6.81 1.137 7 1.5.387.739-.216 4.043 0 5.5"/><path fill="#3b8697" d="M219 553h-4c.124-8.171.19-17.97-1-26l4-3.5c.367 9.879 1.201 19.577 1 29.5"/><path fill="#dff8fe" d="M631 528c-23.854 36.441-65.063 61.921-109 64 4.529-.533 40.155-9.535 41-11.5.69-1.603-1.776-3.651-1-5.5 15.197-5.902 28.636-14.445 41-25 8.121-6.933 16.65-15.409 23-24z"/><path fill="#235d6d" d="M808 533c.132 10.974-.511 21.93 0 33 .061 1.32-.078 2.682 0 4-2.521 1.594.876 6.616-3 6-.892-8.657-2.597-30.922-1-38.5.062-.295 2.974-4.6 4-4.5"/><path fill="#19b3cc" d="M425 539c1.749 1.64 4.873 3.067 6 4 48.968 40.524 117.114 41.126 165-2l7 9c-12.364 10.555-25.803 19.098-41 25-51.644 20.055-103.881 9.293-144-28z"/><path fill="#015774" d="M849 540c-.526 9.403-5.724 48.073-12 53.5-2.568 2.221-3.198.777-5 .5 11.777-11.715 12.177-32.464 14-48.5.086-.758 1.041-6.334 3-5.5"/><path fill="#ecf9fc" d="M157 543c1.229 19.679 3.483 34.752 11 53-4.83.141-3.106 4.476-5 7-4.79-14.45-7.105-26.046-9-41-.638-5.037-.626-10.854-1-16z"/><path fill="#004f6a" d="M168 543c.205 3.151.672 5.949 1 9 1.662 15.448 2.94 31.29 11 45-1.194-.127-7.753.692-9 1-8.513-16.351-9.33-36.832-10-55z"/><path fill="#e9f6f9" d="M869 552c-.941 7.545-1.948 14.65-4 22-1.859 6.659-6.45 20.125-12 24 .852-1.788 1.242-5.008 2-7 5.617-14.757 8.678-27.138 10-43 4.6-.859 1.761 2.165 4 4"/><path fill="#1ea4b9" d="M174 550c1.018 11.606 2.745 24.091 7 35 1.235 3.168.657 7.565 4.5 10 4.319 1.219 6.999-5.372 10.5-7-.734 3.292-3.066 5.571-3 9-11.146 5.428-7.42.591-13 0-8.06-13.71-9.338-29.552-11-45z"/><path fill="#2b636e" d="M219 553c-.209 10.32-1.377 24.802-3 35l-4-3c.851-6.852 1.672-13.044 2-20 .191-4.053.939-8.005 1-12z"/><path fill="#54c1dc" d="M278 578c-.237 14.8-7.607 73.875-24.5 78-4.7 1.148-12.672-1.293-17.5-2 21.483-25.376 26.707-63.576 28-96l14-.5c-2.043 6.809.106 13.862 0 20.5"/><path fill="#125568" d="M154 562c1.895 14.954 4.21 26.55 9 41 2.575 7.77 5.168 14.733 9 22-3.986 2.295-5.158-4.409-7-8-8.443-16.46-11.543-36.742-14-55z"/><path fill="#83ccde" d="M212 585c-.199 1.603.23 3.414 0 5-3.363-1.343-9.356 3.772-9 0 .358-1.335.578-3.962 1-6 1-4.833 1.526-10.994 2-16 3.654.886 6.779.602 8-3-.328 6.956-1.149 13.148-2 20"/><path fill="#0e2935" d="M810 588c.236 3.068 1.609 7.567 1.5 11-3.594 2.167-4.299-10.045-4.5-11-.829-3.93-1.589-8.01-2-12 3.876.616.479-4.406 3-6 .349 5.893 1.541 12.032 2 18"/><path fill="#21869e" d="M832 643c-9.673-6.121-9.816-16.075-14-25.5-.899-2.026-3.624-1.159-4-2-1.184-2.651-.401-10.73-3.5-13.5-.365 6.496 1.621 13.421 3.5 19.5 2.01 6.505 6.99 9.845 6 16.5-10.988-12.057-12.154-27.564-14-43.5-.049-.422-4.207-4.631 1-6.5.201.955.906 13.167 4.5 11 .109-3.433-1.264-7.932-1.5-11 1.381.136 7.13-2.118 7.5-2 1.667.531 2.823 5.475 3.5 7 1.321 2.973 2.671 9.492 5 12.5 12.722 16.432 20.241 6.679 27-7.5 5.55-3.875 10.141-17.341 12-24-.648 15.7-15.229 61.22-28.5 69-.665.39-3.333-.325-4.5 0"/><path fill="#051824" d="M204 584c-.422 2.038-.642 4.665-1 6-3.522 13.14-14.532 36.243-29 19.5-3.109-3.597-2.91-8.191-4-10.5 1.158.181.931-.983 1-1 1.247-.308 7.806-1.127 9-1 5.58.591 1.854 5.428 13 0 .805-.392 3.439.009 5-1.5 2.982-2.882 1.982-11.85 6-11.5"/><path fill="#13333b" d="M216 588c-.697 4.379-2.28 14.796-6 17 1.145-4.95 1.271-9.97 2-15 .23-1.586-.199-3.397 0-5z"/><path fill="#50b3cc" d="M212 590c-.729 5.03-.855 10.05-2 15-.207.894-.768 1.098-1 2-3.309 12.859-9.136 27.032-18 37v1c-1.665-.505-2.376 1.052-2.5 1-7.115-2.961-12.952-14.271-16.5-21-3.832-7.267-6.425-14.23-9-22 1.894-2.524.17-6.859 5-7 .492 1.194 1.785 2.545 2 3 1.09 2.309.891 6.903 4 10.5 14.468 16.743 25.478-6.36 29-19.5-.356 3.772 5.637-1.343 9 0"/><path fill="#051522" d="M855 591c-.758 1.992-1.148 5.212-2 7-6.759 14.179-14.278 23.932-27 7.5-2.329-3.008-3.679-9.527-5-12.5.678 2.768 12.253 5.98 13.5 6 5.201.085 6.903-3.426 9.5-4 3.28-.725 6.064 6.008 11-4"/><path fill="#2d7181" d="M765 656c-10.78-3.449-22.199-9.029-30-19.5-4.976-6.68-6.281-15.905-12-20.5 1.497-1.835 16.673-21.476 18.5-20 2.844 21.32 6.232 45.343 23.5 60"/><path fill="#174f5c" d="M294 607c20.697 25.235 39.183 52.598 57 80l-1 1c-10.62-15.612-24.292-32.964-36-48-1.663-2.136-20.142-27.001-21.5-26-5.845 21.859-15.447 51.383-41.5 54.5 12.123 22.546 25.302 44.554 40 65.5l-3 2c-10.193-14.652-39.754-69.044-47-76 3.766-3.924 9.446-.337 14.5-2 15.285-5.03 23.706-42.13 24.5-56.5l2-1 10.5 11.5c.129-1.805 1.156-3.718 1.5-5"/><path fill="#58c5d6" d="M832 643c-2.15.598-.647 2.404-5 1-3.435-1.108-4.771-3.555-7-6 .99-6.655-3.99-9.995-6-16.5-1.879-6.079-3.865-13.004-3.5-19.5 3.099 2.77 2.316 10.849 3.5 13.5.376.841 3.101-.026 4 2 4.184 9.425 4.327 19.379 14 25.5"/><path fill="#71d0e2" d="M191 644c8.864-9.968 14.691-24.141 18-37-.934 11.448-5.646 32.684-18 37"/><path fill="#5495a3" d="m314 640-18 28c-2.478.15-1.893.968-2 1-27.242 8.255-4.886 65.799 12 80l-2 2c-4.362-5.65-8.892-11.145-13-17-14.698-20.946-27.877-42.954-40-65.5 26.053-3.117 35.655-32.641 41.5-54.5 1.358-1.001 19.837 23.864 21.5 26"/><path fill="#3d8a9c" d="M765 656c2.632.842 12.689 2.516 13 3.5-21.267 36.648-44.681 76.817-73 108.5-.824-1.37-4.136-9.955-4-10.5.182-.729 5.509-3.371 7-4.5 14.426-10.929 24.487-22.822 29-41.5 3.341-13.827 6.603-57.861-18.5-46.5-14.074 6.369-38.905 53.37-39.5 70-10.163-1.566-19.551-7.395-29-11 13.557-32.634 50.005-79.812 73-108 5.719 4.595 7.024 13.82 12 20.5 7.801 10.471 19.22 16.051 30 19.5"/><path fill="#f2f9fa" d="M586 635c-43.253-6.784-72.005-15.655-117.5-7-27.63 5.256-47.73 20.963-77.5 14 36.531 3.985 66.673-19.112 102.5-22 36.88-2.973 58.889 5.407 92.5 15"/><path fill="#fdfefe" d="M477 635c-6.933 11.701-18.812 21.261-23 34.5-.257.813.037 11.12-2 9-1.366-4.176-3.227-8.132-4-12.5-1.444-8.161-.861-16.749-1-25 10.022-2 19.853-4.547 30-6"/><path fill="#f2f9fa" d="m604 638-2 2c-6.32-1.13-10.767-3.507-16-5 3.322.521 15.782 3.158 18 3"/><path fill="#7db2c1" d="M660 640c-7.241 21.395-16.664 49.376-31 67-28.323-13.861-58.751-20.581-90-23-3.191-.247-18.672 1.052-19-2.5 12.194-9.432 25.822-25.407 27-41.5-.064-3.635 3.064-3.186 5.5-3 35.9 2.748 71.108 28.729 107.5 3"/><path fill="#abddec" d="M350 688c5.475 8.049 18.306 25.71 21 34-5.539 7.545-17.933 9.577-26 14-.956-13.481-27.883-57.761-39.5-65-3.322-2.07-5.295-3.255-9.5-3l18-28c11.708 15.036 25.38 32.388 36 48"/><path fill="#cae5ef" d="M448 666c-6.822-4.608-6.818-18.113-15-20 3.598-.748 9.817-4.165 14-5 .139 8.251-.444 16.839 1 25"/><path fill="#071b27" d="M708 753v-1c11.853-6.475 25.713-31.461 28-44.5 1.928-10.996 3.795-48.618-16.5-39.5-14.001 6.29-39.156 52.766-39.5 68-1.16.182-.93-.989-1-1 .595-16.63 25.426-63.631 39.5-70 25.103-11.361 21.841 32.673 18.5 46.5-4.513 18.678-14.574 30.571-29 41.5"/><path fill="#1e98b3" d="M708 752c-8.735 4.772-8.956 3.602-17 0 25.46-3.125 45.077-50.528 42-72.5-.402-2.869-2.439-11.337-6.5-10.5-1.247.257-15.764 16.357-17.5 18.5-13.553 16.734-24.351 38.704-24 60.5-4.882-5.218-5.185-3.803-5-12 .344-15.234 25.499-61.71 39.5-68 20.295-9.118 18.428 28.504 16.5 39.5-2.287 13.039-16.147 38.025-28 44.5"/><path fill="#174854" d="M296 668c4.205-.255 6.178.93 9.5 3 11.617 7.239 38.544 51.519 39.5 65 1.013 14.284-12.16 24.575-26 21l1-3c1.745.624 2.116.7 4 1 31.564 5.023 11.165-41.343 3-54.5-4.543-7.32-23.239-32.481-32-30.5-.184-.498.056-1.141-1-1 .107-.032-.478-.85 2-1"/><path fill="#0d3c4a" d="M294 669c1.056-.141.816.502 1 1-1.508.341-6.28 6.041-7 7.5-10.907 22.097 8.058 67.946 32 76.5l-1 3c-3.537-.914-10.068-5.534-13-8-16.886-14.201-39.242-71.745-12-80"/><path fill="#13647c" d="M691 752c-2.925-1.31-3.709-1.551-6-4-.351-21.796 10.447-43.766 24-60.5 1.736-2.143 16.253-18.243 17.5-18.5 4.061-.837 6.098 7.631 6.5 10.5 3.077 21.972-16.54 69.375-42 72.5"/><path fill="#2b889f" d="M324 755c-1.884-.3-2.255-.376-4-1-23.942-8.554-42.907-54.403-32-76.5.72-1.459 5.492-7.159 7-7.5 2.229 6.052 17.266 19.53 22 26.5 8.591 12.648 29.748 52.063 7 58.5"/><path fill="#41bedc" d="M324 755c22.748-6.437 1.591-45.852-7-58.5-4.734-6.97-19.771-20.448-22-26.5 8.761-1.981 27.457 23.18 32 30.5 8.165 13.157 28.564 59.523-3 54.5"/><path fill="#0a151f" d="M539 687c22.35 2.648 39.985 8.46 61 15l44 37c.308 1.936.607 1.968 1 3 2.355 6.192 11.633 16.139 15 25.5 3.342 9.291 5.481 20.595 6 30.5-.717.244-1.58 1.799-4 2 3.325-4.139-.224-15.651-2-20.5-11.706-31.968-42.826-63.404-74.5-76.5-67.251-27.806-171.544-18.708-211.5 49.5l6-1c-6.433 6.608-12.265 15.09-16 23.5-3.56-.126-1.963 5.566-5 3 6.076-20.895 15.786-38.438 31-54 5.786-5.918 12.014-10.021 18.5-15 1.773-1.361 4.694-2.439 2.5-5 44.573-18.062 79.842-22.705 128-17"/><path fill="#a0e4f2" d="M629 707c-.727.893-.785 2.915-2 3-8.634-3.404-18.164-5.25-27-8-21.015-6.54-38.65-12.352-61-15v-3c31.249 2.419 61.677 9.139 90 23"/><path fill="#12323a" d="M374 722c.836 2.709 1.291 3.95 1 7-.265 2.78-2.632 8.543-5 10.5 2.499-8.455 3.756-9.02 1-17.5-2.694-8.29-15.525-25.951-21-34l1-1c5.238 8.057 20.623 27.296 23 35"/><path fill="url(#j)" d="M662 800c-5.283.438-5.713-9.936-9-13.5-6.436-3.811 3.018 13.575 3 15-.037 2.864-2.98 1.296-3 5-.002.292 2.997 4.708 3 5 .183 19.24-5.513 36.875-14 54l-2.5-22.5c-4.672 5.088-3.469 20.319-10.5 25.5 1.062-13.837 4.844-28.398-1.5-41.5-3.747 7.202.293 18.532-.5 24.5-.106.801-5.287 13.483-6 15-.997 2.123-12.377 19.88-13.5 19.5l5-22c-.846.91.007 1.362-1.5 2-4.249 1.798-7.865 10.944-11 14.5-10.587 12.009-23.153 22.375-35.5 32.5l16-32c-13.713 16.087-28.273 36.564-48.5 44.5 8.281-8.563 14.229-19.736 16.5-31.5-10.314 8.401-24.65 27.814-36.5 33l1.5-4-45-48c-2.63 1.281 5.956 33.326 10.5 36.5.398 2.082-1.723.893-2.5.5-1.894-.959-23.235-21.688-25.5-24.5-7.512-9.325-12.366-20.794-17.5-31.5l14.5 40.5-2.5.5c-15.101-13.42-29.797-29.286-36-49-2.954 4.804 6.362 32.313 3 33-17.427-15.925-14.238-35.509-15-57-6.532 11.145-5.542 24.132-5.5 36.5-5.195 10.429-8.057-24.376-8.5-26.5-1.502 3.381-2.173 7.926-2.5 11.5-.17 1.863 1.287 21.744-2 19-5.608-15.009-15.181-39.005-12-55 .669-3.362 10.461-18.632 6.5-6.5l8.5-10c-1.71 5.706-2.503 11.735-4 17.5 6.785-.049 2.857-8.441 3-9 1.754-6.842 5.931-16.092 10-22-.249-.857-3.348.257-4 .5-7.26 2.711-14.308 16.61-18.5 23-2.5-10.678 8.443-21.259 12.5-30.5-9.545 6.616-13.603 18.021-19.5 27.5l-2.5-2.5c4.034-10.627 11.929-18.35 20-26-9.007 3.544-14.08 13.104-19.5 20.5-2.967-1.818 3.302-14.302 4.5-17 3.735-8.41 9.567-16.892 16-23.5l-6 1c39.956-68.208 144.249-77.306 211.5-49.5 31.674 13.096 62.794 44.532 74.5 76.5 1.776 4.849 5.325 16.361 2 20.5m-226-58c-3.151 4.64-4.776 9.928-7 15-1.911 4.358-3.516 8.961-5 13.5-4.708-8.697-1.331-24.18 3-33.5 4.984-10.727 17.911-22.216 28-28.5-3.277-.954-11.996 5.346-15 7.5l-3-2c.302-.249 4.958-3.919 1.5-4-16.29 10.015-32.557 20.206-45.5 34.5-1.924 2.204-2.805 5.462-4 7.5-.697.813-4.17 1.917-2.5 4 2.003-.896 1.96-3.079 2.5-4 8.47-9.878 20.313-21.469 32-26.5-10.823 8.534-15.339 19.515-20 32l7-8c-2.479 30.407 2.431 65.806 12.5 96.5-4.534-24.32-12.041-50.803-4.5-75.5l14 45 17 39c-.862-10.011-6.658-20.486-10-30.5 6.016.398 2.279-11.446 1-16l65.5 92c-17.743-31.454-44.938-58.435-56.5-93 .167.23 2.09-.516 3 .5 5.027 5.614 9.33 28.86 19 25-6.132-10.442-9.493-21.885-14-33-.457-1.127-3.561.126-4-1-.284-.727-1.391-8.534-2-10.5l-3-42c1.03-3.984 3.457-7.651 3-12 2.385-1.399 5.261-4.767 8-4.5-5.904 15.311-2.822 32.369 2.5 47.5 1.079-16.193-7.879-43.013 17.5-38.5-7.848 18.86-2.517 42.256 2.5 61.5-1.119-19.473-12.845-70.904 21.5-62.5-12.648 20.753-12.126 46.246-3.5 68.5-4.835-25.004-10.991-54.442 14-71 22.228 15.955 18.801 44.292 14 68l4.5-12.5c3.117-18.963-.654-36.55-8-54 32.556-5.836 23.331 39.927 21.5 59.5 5.745-18.91 8.183-39.677 1.5-58.5 11.739 2.866 16.044-.162 18 14 1.977 14.315-3.04 26.825-5.5 40.5 8.775-18.687 12.964-42.265 7.5-62.5l23 12c-33.421-23.263-54.421-62.958-101.5-42.5-6.358 2.763-46.567 37.21-50.5 43m52.5 0c-5.264 6.099-6.319 14.042-5 22zm111 3c-2.773 3.85 2.461 10.864 2.5 11.5.187 3.077-2.363 13.917-2 15 .691 2.061 5.248.356 6 1 8.653 7.408 2.132 47.502.5 58.5 11.891-29.464 6.434-58.585-7-86m37 36c2.136 4.645 1.587 8.113 7 8zm-39 14c-.205 4.837-3.892 1.687-5.5 4.5-1.801 3.149-1.932 14.783-3 18-4.993 15.04-12.841 29.33-17.5 44.5 12.061-17.981 18.716-36.816 24.5-55.5.646-2.088 3.244-9.75 1.5-11.5m-37 44c-1.963.983-19.24 33.43-22 38l25.5-37.5c-.452-.666-2.983-.759-3.5-.5" style="fill:url(#j)"/>/&gt;<path fill="#0a141f" d="M449 734c-4.383 2.571-8.592 5.487-13 8 3.933-5.79 44.142-40.237 50.5-43 47.079-20.458 68.079 19.237 101.5 42.5l-23-12c5.464 20.235 1.275 43.813-7.5 62.5 2.46-13.675 7.477-26.185 5.5-40.5-1.956-14.162-6.261-11.134-18-14 6.683 18.823 4.245 39.59-1.5 58.5 1.831-19.573 11.056-65.336-21.5-59.5 7.346 17.45 11.117 35.037 8 54l-4.5 12.5c4.801-23.708 8.228-52.045-14-68-24.991 16.558-18.835 45.996-14 71-8.626-22.254-9.148-47.747 3.5-68.5-34.345-8.404-22.619 43.027-21.5 62.5-5.017-19.244-10.348-42.64-2.5-61.5-25.379-4.513-16.421 22.307-17.5 38.5-5.322-15.131-8.404-32.189-2.5-47.5-2.739-.267-5.615 3.101-8 4.5m12-2c-.179 1.138-1.943 1.742-.5 3 22.433-2.302 44.969-2.341 67.5-2 11.281.171 22.273 1.21 33.5 2 2.128-1.23-1.836-5.709-2.5-7-21.969-42.725-92.189-33.003-98 4"/><path fill="#819aa2" d="M559 728c-8.372.385-16.663-2.243-25-3-25.31-2.299-48.725-.016-73 7 5.811-37.003 76.031-46.725 98-4"/><path fill="#0a3d4f" d="M627 710c7.059 2.783 14.73 6.651 21 11-2.32 5.581-4.95 12.02-4 18l-44-37c8.836 2.75 18.366 4.596 27 8"/><path fill="#165b6b" d="M411 704c2.194 2.561-.727 3.639-2.5 5-6.486 4.979-12.714 9.082-18.5 15-7.161.015-9.368 11.452-15 5 .291-3.05-.164-4.291-1-7 11.791-7.398 24.113-12.778 37-18"/><path fill="#756666" d="M427 737c-9.132 8.036-8.831 23.831-15.5 34-.117-6.045 1.504-12.872 3.5-18.5 1.894-5.342 9.633-12.601 6-17.5 6.183-7.076 11.242-13.438 19-19 3.004-2.154 11.723-8.454 15-7.5-10.089 6.284-23.016 17.773-28 28.5"/><path fill="#8c7674" d="M437 714c-10.93 9.017-23.047 17.393-26 32.5 2.874-4.36 6.672-7.691 10-11.5 3.633 4.899-4.106 12.158-6 17.5-1.996 5.628-3.617 12.455-3.5 18.5 6.669-10.169 6.368-25.964 15.5-34-4.331 9.32-7.708 24.803-3 33.5 1.484-4.539 3.089-9.142 5-13.5l9 33c.563 2.581 3.8 12.943 5 14.5 2.128 2.762 1.449-1.014 4 2.5 11.562 34.565 38.757 61.546 56.5 93L438 808c-2.869-10.216-8.717-20.344-12-30.5-.197 15.837 6.035 31.622 11 46.5 3.342 10.014 9.138 20.489 10 30.5l-17-39-14-45c-7.541 24.697-.034 51.18 4.5 75.5-10.069-30.694-14.979-66.093-12.5-96.5l-7 8c4.661-12.485 9.177-23.466 20-32-11.687 5.031-23.53 16.622-32 26.5 1.195-2.038 2.076-5.296 4-7.5 12.943-14.294 29.21-24.485 45.5-34.5 3.458.081-1.198 3.751-1.5 4"/><path fill="#63585b" d="m437 714 3 2c-7.758 5.562-12.817 11.924-19 19-3.328 3.809-7.126 7.14-10 11.5 2.953-15.107 15.07-23.483 26-32.5"/><path fill="#488f9e" d="M375 729c5.632 6.452 7.839-4.985 15-5-15.214 15.562-24.924 33.105-31 54-1.553 5.339-2.382 12.857-3 18.5-24.135-4.912-37.801-27.109-52-45.5l2-2c2.932 2.466 9.463 7.086 13 8 13.84 3.575 27.013-6.716 26-21 8.067-4.423 20.461-6.455 26-14 2.756 8.48 1.499 9.045-1 17.5 2.368-1.957 4.735-7.72 5-10.5"/><path fill="#bad3d9" d="M534 725c1.779 9.629-4.416 3.318-6 8-22.531-.341-45.067-.302-67.5 2-1.443-1.258.321-1.862.5-3 24.275-7.016 47.69-9.299 73-7"/><path fill="#1f6376" d="M679 735c.07.011-.16 1.182 1 1-.185 8.197.118 6.782 5 12 2.291 2.449 3.075 2.69 6 4 8.044 3.602 8.265 4.772 17 0v1c-1.491 1.129-6.818 3.771-7 4.5-.136.545 3.176 9.13 4 10.5-11.626 13.007-21.836 24.173-39 30-.519-9.905-2.658-21.209-6-30.5-3.367-9.361-12.645-19.308-15-25.5-2.003-7.991 2.596-12.214 5-18 9.449 3.605 18.837 9.434 29 11"/><path fill="#f3f9fb" d="M559 728c.664 1.291 4.628 5.77 2.5 7-11.227-.79-22.219-1.829-33.5-2 1.584-4.682 7.779 1.629 6-8 8.337.757 16.628 3.385 25 3"/><path fill="#11202a" d="M291 734c4.108 5.855 8.638 11.35 13 17 14.199 18.391 27.865 40.588 52 45.5.618-5.643 1.447-13.161 3-18.5 3.037 2.566 1.44-3.126 5-3-1.198 2.698-7.467 15.182-4.5 17 5.42-7.396 10.493-16.956 19.5-20.5-8.071 7.65-15.966 15.373-20 26l2.5 2.5c5.897-9.479 9.955-20.884 19.5-27.5-4.057 9.241-15 19.822-12.5 30.5 4.192-6.39 11.24-20.289 18.5-23-1.328 4.517-3.641 8.465-5 13l-8.5 10c3.961-12.132-5.831 3.138-6.5 6.5-3.181 15.995 6.392 39.991 12 55 3.287 2.744 1.83-17.137 2-19 .327-3.574.998-8.119 2.5-11.5.443 2.124 3.305 36.929 8.5 26.5-.042-12.368-1.032-25.355 5.5-36.5.762 21.491-2.427 41.075 15 57 3.362-.687-5.954-28.196-3-33 6.203 19.714 20.899 35.58 36 49l2.5-.5-14.5-40.5c5.134 10.706 9.988 22.175 17.5 31.5 2.265 2.812 23.606 23.541 25.5 24.5.777.393 2.898 1.582 2.5-.5-4.544-3.174-13.13-35.219-10.5-36.5l45 48-1.5 4c-.115.05-.786 1.855-1.5 2l-35-37 13 33-45-45 12 27c-15.824-12.148-31.677-24.849-41-43-5.891-.323 6.433 26.528 8 29-13.342-9.841-21.894-23.864-28-39 .22 9.292.937 19.239 5.5 27.5-9.476-4.714-12.998-18.959-16.5-28.5-1.414 8.896-.525 17.533 2 26-13.526-20.143-21.542-46.081-20.5-70.5l-3.5 9.5c-1.526-4.133 1.049-8.061-2-12-1.055-1.363-25.088-13.111-30-17-15.127-11.977-30.251-36.828-41.5-53z"/><path fill="#675a5a" d="M446 746c-.026.1-1.831-.35-2 .5-2.143 10.752 1.403 25.971 4 36.5l-5-2.5-4.5-32.5c-1.134.891-2.302 4.346-2.5 5.5-1.155 6.74.463 29.449 2 36.5l-9-33c2.224-5.072 3.849-10.36 7-15 4.408-2.513 8.617-5.429 13-8 .457 4.349-1.97 8.016-3 12"/><path fill="#6d5e5c" d="m488.5 742-5 22c-1.319-7.958-.264-15.901 5-22"/><path fill="#574b4c" d="M599.5 745c13.434 27.415 18.891 56.536 7 86 1.632-10.998 8.153-51.092-.5-58.5-.752-.644-5.309 1.061-6-1-.363-1.083 2.187-11.923 2-15-.039-.636-5.273-7.65-2.5-11.5"/><path fill="#463f44" d="m446 746 3 42c-.357-1.152-.635-3.519-1-5-2.597-10.529-6.143-25.748-4-36.5.169-.85 1.974-.4 2-.5"/><path fill="#705f5f" d="M448 783c.365 1.481.643 3.848 1 5 .609 1.966 1.716 9.773 2 10.5.439 1.126 3.543-.127 4 1 4.507 11.115 7.868 22.558 14 33-9.67 3.86-13.973-19.386-19-25-.91-1.016-2.833-.27-3-.5-2.551-3.514-1.872.262-4-2.5-1.2-1.557-4.437-11.919-5-14.5-1.537-7.051-3.155-29.76-2-36.5.198-1.154 1.366-4.609 2.5-5.5l4.5 32.5z"/><path fill="#826f6d" d="M389 752c-.54.921-.497 3.104-2.5 4-1.67-2.083 1.803-3.187 2.5-4"/><path fill="#54484c" d="M438 808c1.279 4.554 5.016 16.398-1 16-4.965-14.878-11.197-30.663-11-46.5 3.283 10.156 9.131 20.284 12 30.5"/><path fill="#645656" d="M382 793c1.359-4.535 3.672-8.483 5-13 .652-.243 3.751-1.357 4-.5-4.069 5.908-8.246 15.158-10 22-.143.559 3.785 8.951-3 9 1.497-5.765 2.29-11.794 4-17.5"/><path fill="#14171f" d="m636.5 781 7 8c-5.413.113-4.864-3.355-7-8"/><path fill="#53484a" d="M597.5 795c1.744 1.75-.854 9.412-1.5 11.5-5.784 18.684-12.439 37.519-24.5 55.5 4.659-15.17 12.507-29.46 17.5-44.5 1.068-3.217 1.199-14.851 3-18 1.608-2.813 5.295.337 5.5-4.5"/><path fill="#55494b" d="M560.5 839c.517-.259 3.048-.166 3.5.5L538.5 877c2.76-4.57 20.037-37.017 22-38"/></svg>