<svg xmlns="http://www.w3.org/2000/svg" width="1024" height="1024"><defs><linearGradient id="a" x1="541.974" x2="455.38" y1="196.239" y2="350.61" gradientUnits="userSpaceOnUse"><stop offset="0%" style="stop-color:#4dafd0"/><stop offset="35.028%" style="stop-color:#75d1ea"/><stop offset="100%" style="stop-color:#49adce"/></linearGradient></defs><defs><linearGradient id="b" x1="539.588" x2="700.573" y1="414.549" y2="475.113" gradientUnits="userSpaceOnUse"><stop offset="0%" style="stop-color:#8aa5b2"/><stop offset="100%" style="stop-color:#638594"/></linearGradient></defs><defs><linearGradient id="c" x1="374.201" x2="650.272" y1="452.717" y2="475.389" gradientUnits="userSpaceOnUse"><stop offset="0%" style="stop-color:#edf3f8"/><stop offset="100%" style="stop-color:#a9c0cb"/></linearGradient></defs><defs><linearGradient id="d" x1="223.537" x2="221.52" y1="491.51" y2="536.465" gradientUnits="userSpaceOnUse"><stop offset="0%" style="stop-color:#9dd5e5"/><stop offset="100%" style="stop-color:#e4f3f8"/></linearGradient></defs><defs><linearGradient id="e" x1="791.004" x2="812.518" y1="507.104" y2="519.838" gradientUnits="userSpaceOnUse"><stop offset="0%" style="stop-color:#48636e"/><stop offset="100%" style="stop-color:#617882"/></linearGradient></defs><defs><linearGradient id="f" x1="605.262" x2="685.84" y1="508.217" y2="611.504" gradientUnits="userSpaceOnUse"><stop offset="0%" style="stop-color:#123b59"/><stop offset="100%" style="stop-color:#1d96bd"/></linearGradient></defs><defs><linearGradient id="g" x1="620.662" x2="659.346" y1="542.422" y2="589.587" gradientUnits="userSpaceOnUse"><stop offset="0%" style="stop-color:#0c1c2f"/><stop offset="100%" style="stop-color:#184f69"/></linearGradient></defs><defs><linearGradient id="h" x1="315.847" x2="399.984" y1="573.297" y2="612.92" gradientUnits="userSpaceOnUse"><stop offset="0%" style="stop-color:#1085ad"/><stop offset="100%" style="stop-color:#01b5e2"/></linearGradient></defs><defs><linearGradient id="i" x1="310.617" x2="710.58" y1="688.775" y2="694.241" gradientUnits="userSpaceOnUse"><stop offset="0%" style="stop-color:#e2ebf2"/><stop offset="100%" style="stop-color:#7193a1"/></linearGradient></defs><defs><linearGradient id="j" x1="771.636" x2="267.793" y1="692.837" y2="726.999" gradientUnits="userSpaceOnUse"><stop offset="0%" style="stop-color:#3d6473"/><stop offset="71.485%" style="stop-color:#92b1c1"/><stop offset="100%" style="stop-color:#c4dae6"/></linearGradient></defs><defs><linearGradient id="k" x1="236.875" x2="240.989" y1="639.629" y2="676.4" gradientUnits="userSpaceOnUse"><stop offset="0%" style="stop-color:#304a56"/><stop offset="100%" style="stop-color:#172f3c"/></linearGradient></defs><defs><linearGradient id="l" x1="480.533" x2="556.36" y1="763.558" y2="768.69" gradientUnits="userSpaceOnUse"><stop offset="0%" style="stop-color:#c192b2"/><stop offset="100%" style="stop-color:#8d6987"/></linearGradient></defs><defs><linearGradient id="m" x1="553.219" x2="502.428" y1="808.476" y2="819.626" gradientUnits="userSpaceOnUse"><stop offset="0%" style="stop-color:#a37b98"/><stop offset="100%" style="stop-color:#c092b2"/></linearGradient></defs><path fill="#082f47" d="M748 187c.174.165.829-.168 1 0 11.946 22.972 1.808 37.377-23 38-7.003.176-10.956-1.453-17-2-9.194-.833-20.439-6.615-22 6.5.966 1.209 3.764.05 5 .5.066.024-.386.615 1 1-2.172 1.491-4.477 1.028-7 2-13.73 5.291-10.41 5.924-27 9 16.061-2.882 20.285-13.104 26-26 2.674-6.034 6.459-10.277 7-17.5 1.272-16.991-8.359-45.026-28.5-46.5 2.883 7.907 7.699 15.05 6.5 24-2.822 6.737-3.249 11.783-11.5 15-26.856 10.47-117.609-34.328-149.5-44-62.128-18.842-117.44-24.884-170 19-18.192 15.189-32.926 29.597-40 53-36.782 74.065-2.322 165.558 87 167.5-45.602-29.232-70.865-85.576-49-138 3.249-1.263.167 6.551 0 7.5-1.573 8.935-3.207 14.457-3 24-3.32 1.548-2.289 11.704-2 14.5 2.595 25.066 14.55 48.043 31 66.5 2.334 2.618 4.444 4.629 7 7 9.571 8.88 20.082 18.359 34 19.5-12.214-9.15-22.454-21.656-25-37-10.017-60.367 50.155-95.466 101-104.5 12.321-.309 24.669-1.606 37-.5-54.46 5.919-138.939 27.748-134 97.5.559 7.889 2.257 11.05 5 18 1.521 3.854 1.481 5.058 4 9 14.651 22.93 29.045 20.472 53.5 16 8.77-1.604 17.09-5.545 25.5-8 55.156-16.101 93.507-43.954 144-66 18.686-8.159 34.975-13.885 55.5-16 1.576-.162 8.725-1.174 8.5 2-4.46.287-8.491.18-13 1-2.95.536-6.976 1.401-9.5 3 37.986 12.332 73.758 48.824 84.5 87.5 3.301 11.886 2.799 32.53 6 41 .753 1.993 21.949 30.564 25 34.5 4.07 5.25 11.074 13.458 19.5 12 4.389-.76 16.938-44.564 15.5-52 5.875.839 13.708-4.759 18-8 8.438-6.372 16.681-16.569 16-27.5l-2 8c-1.011 1.489-3.048 3.268-4 4.5-6.136-.553-10.534 3.305-17.5 2-13.699-2.566-23.607-31.41-28.5-43-1.782-4.222-3.145-8.691-5-13-14.927-34.664-27.768-90.002-76-86 1.117-1.711 5.072-2.793 7-4 5.063 2.919 12.735-.058 17.5 0 1.121.014 3.62 3.63 6 3 4.55-1.205 25.055-30.474 26.5-37 2.884-13.025.483-40.054-18-38l-.5-3c38.131 9.473 22.819 65.7-4.5 81.5 10.296 9.867 18.946 21.604 26 34 13.593 23.887 26.535 76.371 40 93 15.886 19.619 36.659.094 26.5-20.5 15.897 16.996 6.897 38.365-10 50-2.958 2.037-13.194 4.71-14.5 6.5-1.376 1.886-4.9 23.434-6 28-.772 3.202-6.98 17.791-7 19-.072 4.347 17.657 8.1 23 10.5-13.029-3.206-26.14-6.11-39.5-7-4.448 2.237 6.284 17.258 7.5 20.5 5.427 14.475 12.318 36.457 15 51.5 3.013 16.897 4.204 35.809 4 53-.078 6.6-.49 13.425-1 20l-7-1c8.895-109.632-46.919-203.911-145-251-17.801-8.546-72.46-30.595-90-26-8.891 2.329-28.186 15.685-38.5 20-23.444 9.808-63.262 23.848-88 27-18.447 2.35-35.822-2.163-52.5 8-9.8-.936-22.788 7.695-32 10-9.539 2.387-19.294 3.495-29 5-6.21.963-15.629-.419-20.5 1-1.35.393-4.272 4.96-5.5 6-7.968 6.748-19.023 20.755-25 29.5-49.657 72.659-58.502 170.443-21 250.5-8.777-16.778-18.509-39.309-22-60.5-.907-5.508-.279-13.347-1-20-.085-.787-1.919-.214-2-1-.94-9.16-.112-21.529-1-31-.672-.911-3.859 2.311-4 2.5.739-14.007 1.557-28.187 4-42 4.307-24.356 12.821-48.568 24-70.5-1.002-3.114-39.622 3.08-44 4.5l-1-1c8.875-2.282 44.842-7.614 49-11.5 2.235-2.089 6.346-12.922 9-16-22.602-15.946-44.632-34.011-54-61-22.86-65.862-6.687-104.589 29-158 41.977-62.824 135.472-112.189 211.5-106.5 48.268 3.612 179.449 66.148 206 58 15.161-4.653 14.629-28.379 3.5-37.5 33.177-1.493 41.757 43.225 33 68 23.96 2.74 69.624 7.538 56-31.5m-432-18c-12.542 6.667-24.102 14.932-35 24-28.395 23.625-45.5 48.354-53 85-1.833 8.959-1.398 21.638-6 28 .001-1.446-.047-2.534 0-4 .446-13.985.822-25.268 4.5-39-10.976 14.024-17.728 29.687-21.5 47-.587 2.696-3.627 5.076 0 7-6.577 39.244 12.611 77.72 44.5 101 4.874 3.558 26.028 14.228 31 13 .637-.157 7.241-8.557 8.5-10 .754-.865 7.55-5.699 6.5-7-18.233-4.639-29.537-12.031-42.5-25 3.228-4.473 3.657-.611 9 3 22.015 14.881 33.994 18.246 61 17 9.334-.431 17.904-2.286 27-4 16.008-3.017 31.502-7.622 47-12.5-29.96-.564-56.213-7.285-79.5-26.5-16.153-13.328-19.511-23.111-29.5-40-17.278-56.486 1.205-128.401 48-165.5-7.305 1.308-13.594 5.095-20 8.5m327.5 137L575 339.5c61.938 9.366 124.948 33.963 164.5 84.5 1.216-34.49-17.608-69.537-43-92-10.111-8.945-39.547-28.076-53-26M217 403c6.923 12.876 30.335 39.416 43.5 45 9.894 4.196 7.662-3.691 14.5-9.5.066-3.071-6.634-3.466-9-4.5-8.838-6.937-18.701-11.88-27.5-19-6.371-5.155-11.187-12.397-17-18-.184-.177-2.503 1.277-5-1-4.958-4.521-2.854-11.228-7-16-1.821 6.097 4.38 17.197 7.5 23"/><path fill="#7fd8ef" d="M509 147c.135 4.201-7.033 20.049-6 22.5 1.251 2.97 6.315-.316 6 3.5-40.424-7.208-83.517-11.016-122 6-11.652 5.152-22.481 12.398-32 21-5.297 3.873-6.778-4.538-12-7 3.866-3.737 7.704-7.757 12-11 31.051-23.445 69.604-33.911 108-37.5-41.127.098-79.274 3.251-111 31.5-.21.187-1.805.821-2 1l-11-11c52.56-43.884 107.872-37.842 170-19"/><path fill="#f7fcfe" d="m355 182-3-6c31.726-28.249 69.873-31.402 111-31.5-38.396 3.589-76.949 14.055-108 37.5"/><path fill="#57b7d6" d="M670 176c.364-.869 1.07-3.933 2-3.5 1.958 10.783-4.569 20.47-14.5 24.5-26.116 10.598-66.94-3.737-93.5-10-18.466-4.355-36.118-10.633-55-14 .315-3.816-4.749-.53-6-3.5-1.033-2.451 6.135-18.299 6-22.5 31.891 9.672 122.644 54.47 149.5 44 8.251-3.217 8.678-8.263 11.5-15"/><path fill="#185c7b" d="M685 216c-8.469 6.087-14.838 10.815-25 14-32.595 10.216-84.101.491-119-2l4-6c32.524 3.056 51.165 11.367 85 3 13.193-3.262 27.885-9.364 38.5-18-35.469 15.074-73.089-3.138-107.5-12l3-8c26.56 6.263 67.384 20.598 93.5 10 9.931-4.03 16.458-13.717 14.5-24.5-.93-.433-1.636 2.631-2 3.5 1.199-8.95-3.617-16.093-6.5-24 20.141 1.474 29.772 29.509 28.5 46.5-.541 7.223-4.326 11.466-7 17.5"/><path fill="#4caece" d="M288 326c-32.65-55.207-31.439-86.342 11-136.5 5.404-6.387 15.578-12.312 17-20.5 6.406-3.405 12.695-7.192 20-8.5-46.795 37.099-65.278 109.014-48 165.5"/><path fill="#57b7d6" d="M350 177c-27.37 25.116-53.741 65.931-49 104.5 5.437-34.696 16.534-63.881 42-88.5 5.222 2.462 6.703 10.873 12 7-47.159 42.619-55.02 113.123-14 162.5-.674.049-2.355 1.515-2.5 1.5-2.585-.276-23.831-23.685-26.5-27.5-23.798-34.019-24.748-78.63-13-117.5 7.074-23.403 21.808-37.811 40-53z"/><path fill="#2b7192" d="M509 173c18.882 3.367 36.534 9.645 55 14l-3 8c-14.707-3.788-29.215-8.616-44-12-36.002-8.241-92.095-16.742-127-2l-3-2c38.483-17.016 81.576-13.208 122-6"/><path fill="#165a7a" d="M288 326c9.989 16.889 13.347 26.672 29.5 40 23.287 19.215 49.54 25.936 79.5 26.5-15.498 4.878-30.992 9.483-47 12.5-18.9-.179-37.355 1.394-54.5-8-1.138-.624-21.321-16.227-15-15 4.133 10.765 71.915 20.235 72.5 16.5-48.4-13.962-96.981-39.353-104-94.5-3.601-28.291 2.204-60.467 15-86 4.721-9.42 10.795-16.689 17-25 10.898-9.068 22.458-17.333 35-24-1.422 8.188-11.596 14.113-17 20.5-42.439 50.158-43.65 81.293-11 136.5"/><path fill="#79d4ec" d="M517 183c-.265 1.257.395 4.318 0 5-56.638-8.155-99.125-10.593-147 24-5.542 4.004-11.078 7.653-15.5 13 9.481-17.532 26.655-29.694 41.5-42.5l-30 16c7.305-5.21 15.765-14.022 24-17.5 34.905-14.742 90.998-6.241 127 2"/><path fill="#dff8fd" d="M355 182c-4.296 3.243-8.134 7.263-12 11-25.466 24.619-36.563 53.804-42 88.5-4.741-38.569 21.63-79.384 49-104.5.195-.179 1.79-.813 2-1z"/><path fill="#1e6383" d="m387 179 3 2c-8.235 3.478-16.695 12.29-24 17.5l30-16c-14.845 12.806-32.019 24.968-41.5 42.5 4.422-5.347 9.958-8.996 15.5-13l1 1c-16.887 10.603-25.264 25.841-34 43 .167-.949 3.249-8.763 0-7.5-21.865 52.424 3.398 108.768 49 138-89.322-1.942-123.782-93.435-87-167.5-11.748 38.87-10.798 83.481 13 117.5 2.669 3.815 23.915 27.224 26.5 27.5.145.015 1.826-1.451 2.5-1.5-41.02-49.377-33.159-119.881 14-162.5 9.519-8.602 20.348-15.848 32-21"/><path fill="#307697" d="M517 188c-1.515 2.618-52.348-.565-60.5 0-24.842 1.722-64.343 11.716-85.5 25l-1-1c47.875-34.593 90.362-32.155 147-24"/><path fill="url(#a)" d="M561 195c34.411 8.862 72.031 27.074 107.5 12-10.615 8.636-25.307 14.738-38.5 18 .437-3.002-2.675-1.947-4.5-2-36.896-1.064-63.082-7.232-98.5-12-30.52-4.109-53.473-6.701-84 1-30.278 1.049-58.81 15.348-75 41.5 8.134-5.418 14.744-12.025 23-17.5-17.748 19.971-35.534 42.571-37 70.5 2.563-.491 2.99-5.277 4-7.5h3c-11.249 18.849-6.973 31.334 1 51l-2 1c-12.023-23.704-25.389-42.833-26-71-.207-9.543 1.427-15.065 3-24 8.736-17.159 17.113-32.397 34-43 21.157-13.284 60.658-23.278 85.5-25 8.152-.565 58.985 2.618 60.5 0 .395-.682-.265-3.743 0-5 14.785 3.384 29.293 8.212 44 12" style="fill:url(#a)"/>/&gt;<path fill="#135473" d="M765 224c-3.907-1.639-6.75 7.106-9 9.5-4.012 4.268-8.276 7.179-13 10.5-2.035-.381-3.062.82-5 1-17.964 1.672-36.118-1.677-55 0-.503-3.627 3.893-1.035 5-2.5.774-1.025-3.018-7.323-2-9.5 2.523-.972 4.828-.509 7-2 3.525.979 13.464 2.355 17 2 28.325 9.618 65.67-19.937 39-46-.171-.168-.826.165-1 0-.069-.065-1.183.137-1-1 18.483-2.054 20.884 24.975 18 38"/><path fill="#b3e3ef" d="M710 233c1.813-.182 16.86-5.025 16-8 24.808-.623 34.946-15.028 23-38 26.67 26.063-10.675 55.618-39 46"/><path fill="#dbf6fc" d="M264 218c-15.435 16.75-21.491 40.013-26 62-4.025 19.631-6.201 38.909-7 59-1.776-7.801-3.722-16.51-4-24.5-.435-12.5 3.305-25.105 1-36.5 7.5-36.646 24.605-61.375 53-85-6.205 8.311-12.279 15.58-17 25"/><path fill="#b9eef9" d="M527 211v10c-17.744-.806-35.299-1.228-53 1-55.708.772-93.747 28.031-116 77-1.01 2.223-1.437 7.009-4 7.5 1.466-27.929 19.252-50.529 37-70.5 15.367-10.191 34.094-19.483 52-24 30.527-7.701 53.48-5.109 84-1"/><path fill="#2c7495" d="M443 212c-17.906 4.517-36.633 13.809-52 24-8.256 5.475-14.866 12.082-23 17.5 16.19-26.152 44.722-40.451 75-41.5"/><path fill="#8edcee" d="M630 225c-33.835 8.367-52.476.056-85-3-6.177-.58-11.835-.72-18-1v-10c35.418 4.768 61.604 10.936 98.5 12 1.825.053 4.937-1.002 4.5 2"/><path fill="#2081a9" d="M685 216c-5.715 12.896-9.939 23.118-26 26-1.525.283-3.462-.27-5 0-.152-1.507-2.937-1.154-4-1 2.262-3.406 11.224-6.21 10-11 10.162-3.185 16.531-7.913 25-14"/><path fill="#41a7ca" d="m249 304-10-1c-.507-7.566 1.201-15.582-1-23 4.509-21.987 10.565-45.25 26-62-12.796 25.533-18.601 57.709-15 86"/><path fill="#246d8e" d="M527 221c6.165.28 11.823.42 18 1l-4 6c-20.933-1.494-46.767-6.28-67-6 17.701-2.228 35.256-1.806 53-1"/><path fill="#c8ebf3" d="m709 223-17 7c-1.236-.45-4.034.709-5-.5 1.561-13.115 12.806-7.333 22-6.5"/><path fill="#47abcc" d="M474 222c20.233-.28 46.067 4.506 67 6 34.899 2.491 86.405 12.216 119 2 1.224 4.79-7.738 7.594-10 11-73.272 10.59-147.945-1.367-215.5 41-11.851 7.432-23.9 22.925-31 35 33.27-39.28 82.901-58.081 133.5-61.5-20.711 6.22-48.351 10.888-67.5 20.5-1.301.653-4.39 2.17 0 2 53.673-20.062 111.577-24.46 168-33 2.883-.436 4.272 1.035 4.5 1-81.875 32.415-195.348 20.365-248.5 103-3.531.98-1.672-5.264-1.5-6.5.234-1.684 5.267-15.249 4.5-15.5L383 343c-4.939-69.752 79.54-91.581 134-97.5-12.331-1.106-24.679.191-37 .5-44.689 1.122-93.892 10.931-119 53h-3c22.253-48.969 60.292-76.228 116-77"/><path fill="#95d4e5" d="M726 225c.86 2.975-14.187 7.818-16 8-3.536.355-13.475-1.021-17-2-1.386-.385-.934-.976-1-1l17-7c6.044.547 9.997 2.176 17 2"/><path fill="#1f7ca2" d="M765 224c-1.445 6.526-21.95 35.795-26.5 37-2.38.63-4.879-2.986-6-3-4.765-.058-12.437 2.919-17.5 0 .708-.443 2.589-1.18 4-2 8.981-2.125 16.61-6.804 24-12 4.724-3.321 8.988-6.232 13-10.5 2.25-2.394 5.093-11.139 9-9.5"/><path fill="#1c6384" d="M686 233c-1.018 2.177 2.774 8.475 2 9.5-1.107 1.465-5.503-1.127-5 2.5-44.897 3.986-212.035 55.508-252.5 77-17.357 9.219-33.52 21.203-42.5 39-2.743-6.95-4.441-10.111-5-18l13.5-16c.767.251-4.266 13.816-4.5 15.5-.172 1.236-2.031 7.48 1.5 6.5 53.152-82.635 166.625-70.585 248.5-103 3.946-.614 7.957-3.291 12-4 1.538-.27 3.475.283 5 0 16.59-3.076 13.27-3.709 27-9"/><path fill="#9adeef" d="M654 242c-4.043.709-8.054 3.386-12 4-.228.035-1.617-1.436-4.5-1-56.423 8.54-114.327 12.938-168 33-4.39.17-1.301-1.347 0-2 19.149-9.612 46.789-14.28 67.5-20.5-50.599 3.419-100.23 22.22-133.5 61.5 7.1-12.075 19.149-27.568 31-35 67.555-42.367 142.228-30.41 215.5-41 1.063-.154 3.848-.507 4 1"/><path fill="#3195bb" d="M738 245c-6.195 3.848-12.717 7.351-19 11-1.411.82-3.292 1.557-4 2-1.928 1.207-5.883 2.289-7 4-.159.244.088 1.377 0 2-4.085-.756-7.821-1.205-12-1-60.796.504-110.429 40.817-163.5 65-44.617 20.331-91.849 34.952-140.5 42-2.519-3.942-2.479-5.146-4-9 8.98-17.797 25.143-29.781 42.5-39 40.465-21.492 207.603-73.014 252.5-77 18.882-1.677 37.036 1.672 55 0"/><path fill="#68b8d1" d="M743 244c-7.39 5.196-15.019 9.875-24 12 6.283-3.649 12.805-7.152 19-11 1.938-.18 2.965-1.381 5-1"/><path fill="#1d6383" d="M480 246c-50.845 9.034-111.017 44.133-101 104.5 2.546 15.344 12.786 27.85 25 37-13.918-1.141-24.429-10.62-34-19.5-.757-6.389-5.642-12.184-8-18-7.973-19.666-12.249-32.151-1-51 25.108-42.069 74.311-51.878 119-53"/><path fill="#2486af" d="M708 264c35.987 6.664 55.449 58.509 76 84 1.855 4.309 3.218 8.778 5 13-27.643-30.271-50.337-71.549-96.5-74-19.825-1.053-49.851 8.701-68 17-1.783.815-14.198 5.961-9.5 8-50.493 22.046-88.844 49.899-144 66-17.459-1.165-35.132 5.256-52.5 2 54.006-6.466 113.364-28.701 160-57 38.28-23.229 68.835-57.609 117.5-60 4.179-.205 7.915.244 12 1"/><path fill="#88cfe2" d="M784 348c-20.551-25.491-40.013-77.336-76-84 .088-.623-.159-1.756 0-2 48.232-4.002 61.073 51.336 76 86"/><path fill="#70bbd2" d="m222 302-7 9c-.192-9.122.77-19.016 2.5-28-3.815-1.268-9.768 23.796-10.5 27-.122.138-2.086 1.644-2 0 3.772-17.313 10.524-32.976 21.5-47-3.678 13.732-4.054 25.015-4.5 39m-3.5-23c-.158.067-1.578 2.454-1 3 1.991.075 3.154-3.908 1-3"/><path fill="#145879" d="M696 263c-48.665 2.391-79.22 36.771-117.5 60-46.636 28.299-105.994 50.534-160 57 17.368 3.256 35.041-3.165 52.5-2-8.41 2.455-16.73 6.396-25.5 8-24.455 4.472-38.849 6.93-53.5-16 48.651-7.048 95.883-21.669 140.5-42 53.071-24.183 102.704-64.496 163.5-65"/><path fill="#0a3b55" d="M231 339c4.089 17.961 15.039 39.711 31 50v3c-5.343-3.611-5.772-7.473-9-3-1.645-1.646-4.757-4.523-6-6-18.466-21.943-23.509-38.6-25-67-.173-3.29-.002-6.699 0-10 4.602-6.362 4.167-19.041 6-28 2.305 11.395-1.435 24-1 36.5.278 7.99 2.224 16.699 4 24.5"/><path fill="#236a8e" d="M218.5 279c2.154-.908.991 3.075-1 3-.578-.546.842-2.933 1-3"/><path fill="#63bfda" d="M239 303c2.072 30.896 11.192 60.145 26 87-.349-.197-1.846-.256-3-1-15.961-10.289-26.911-32.039-31-50 .799-20.091 2.975-39.369 7-59 2.201 7.418.493 15.434 1 23"/><path fill="#19607f" d="M334 280c.611 28.167 13.977 47.296 26 71 1.281 2.526 5.246 8.083 3 10-16.45-18.457-28.405-41.434-31-66.5-.289-2.796-1.32-12.952 2-14.5"/><path fill="#135474" d="M215 311c.031 1.461-.052 5.45 0 6 2.23 23.563 13.191 51.102 32 66 1.243 1.477 4.355 4.354 6 6 12.963 12.969 24.267 20.361 42.5 25 1.05 1.301-5.746 6.135-6.5 7-46.423-18.792-83.903-61.379-78-114.5-1.922-1.336-2.808 2.148-4 3.5.732-3.204 6.685-28.268 10.5-27-1.73 8.984-2.692 18.878-2.5 28"/><path fill="#124e6b" d="M789 361c4.893 11.59 14.801 40.434 28.5 43 6.966 1.305 11.364-2.553 17.5-2-16.759 21.695-42.242 4.926-57-9.5 2.243 24.147 1.186 49.378-6 72.5-3.051-3.936-24.247-32.507-25-34.5-3.201-8.47-2.699-29.114-6-41-10.742-38.676-46.514-75.168-84.5-87.5 2.524-1.599 6.55-2.464 9.5-3l30.5 14c29.66 18.787 49 48.953 57 83 11.739-32.69 1-64.245-26-85-17.646-13.564-26.777-14.397-48.5-13 .225-3.174-6.924-2.162-8.5-2-20.525 2.115-36.814 7.841-55.5 16-4.698-2.039 7.717-7.185 9.5-8 18.149-8.299 48.175-18.053 68-17 46.163 2.451 68.857 43.729 96.5 74"/><path fill="#1e7ba2" d="M666 299c4.509-.82 8.54-.713 13-1 21.723-1.397 30.854-.564 48.5 13 27 20.755 37.739 52.31 26 85-8-34.047-27.34-64.213-57-83z"/><path fill="#99daec" d="M222 302c-.047 1.466.001 2.554 0 4-.002 3.301-.173 6.71 0 10l-7 1c-.052-.55.031-4.539 0-6z"/><path fill="#2588b2" d="M249 304c7.019 55.147 55.6 80.538 104 94.5-.585 3.735-68.367-5.735-72.5-16.5-6.321-1.227 13.862 14.376 15 15 17.145 9.394 35.6 7.821 54.5 8-9.096 1.714-17.666 3.569-27 4 .504-4.189-.984-2.569-3.5-3-20.633-3.53-35.745-5.437-54.5-16-14.808-26.855-23.928-56.104-26-87z"/><path fill="#207fa9" d="M289 421c-1.259 1.443-7.863 9.843-8.5 10-4.972 1.228-26.126-9.442-31-13-31.889-23.28-51.077-61.756-44.5-101 .187-1.116 1.493-4.782 2-7 1.192-1.352 2.078-4.836 4-3.5-5.903 53.121 31.577 95.708 78 114.5"/><path fill="#114761" d="M643.5 306c13.453-2.076 42.889 17.055 53 26 25.392 22.463 44.216 57.51 43 92-39.552-50.537-102.562-75.134-164.5-84.5Z"/><path fill="#135474" d="M207 310c-.507 2.218-1.813 5.884-2 7-3.627-1.924-.587-4.304 0-7-.086 1.644 1.878.138 2 0"/><path fill="#2582a9" d="M222 316c1.491 28.4 6.534 45.057 25 67-18.809-14.898-29.77-42.437-32-66z"/><path fill="#bcd2db" d="m654 371-2 2c-19.528-10.155-49.898-19.431-71.5-25-2.409-.621-4.03 1.219-5 1-.977-.221-.027-2.81-1-3-2.847-.555-9.282 1.813-10.5-1 17.54-4.595 72.199 17.454 90 26"/><path fill="url(#b)" d="M652 373c39.168 20.368 80.761 61.885 102 100.5 6.12 11.127 13.818 25.994 15 38.5-13.876-31.358-45.36-60.282-78-71-23.653-26.369-57.974-48.103-91.5-60-13.815-4.902-57.132-16.061-70-13-2.734.65-23.398 18.543-30 22-18.547 9.71-40.215 13.458-61 14-10.698.279-43.195-4.517-50.5-2-.408-1.774-1.455-1.853-3-2 16.678-10.163 34.053-5.65 52.5-8 24.738-3.152 64.556-17.192 88-27 10.314-4.315 29.609-17.671 38.5-20 1.218 2.813 7.653.445 10.5 1 .973.19.023 2.779 1 3 .97.219 2.591-1.621 5-1 21.602 5.569 51.972 14.845 71.5 25" style="fill:url(#b)"/>/&gt;<path fill="#2b85ac" d="M370 368c-2.556-2.371-4.666-4.382-7-7 2.246-1.917-1.719-7.474-3-10l2-1c2.358 5.816 7.243 11.611 8 18"/><path fill="url(#c)" d="M691 441c-58.488-19.205-116.542 2.83-151 52-8.459 3.887-10.577 14.441-13 22-4.347 8.735-7.709 17.863-8 28l-8 15c-.214-4.406-.375-7.602-1-12-4.11-28.925-18.374-56.389-40-76-4.568-6.389-17.865-15.317-25-19-37.386-23.492-87.919-23.671-126.5-2l17.5-23c1.58-.154 2.386-.753 4-1 7.124-1.091 14.905-3.179 21.5-6 8.183-3.5 21.289-15.204 26.5-17 7.305-2.517 39.802 2.279 50.5 2 20.785-.542 42.453-4.29 61-14 6.602-3.457 27.266-21.35 30-22 12.868-3.061 56.185 8.098 70 13 33.526 11.897 67.847 33.631 91.5 60" style="fill:url(#c)"/>/&gt;<path fill="#6c8e9a" d="M799 622c-1.661 20.469-5.701 38.574-12 58-39.983 123.301-164.339 197.509-292 190-.031-3.747 5.499-1.386 7.5-2 .993-.305.024-2.826 1-3 8.073-1.434 20.245.859 29 0 93.42-9.162 176.319-59.614 221.5-142.5 23.094-42.366 42.844-121.788 30-169-.727-2.674-.862-5.513-5-4.5-1.422-13.273-4.643-24.894-10-37-1.182-12.506-8.88-27.373-15-38.5-21.239-38.615-62.832-80.132-102-100.5l2-2c98.081 47.089 153.895 141.368 145 251"/><path fill="#0e4965" d="M266 434c-8.619-3.767-18.669-6.706-26.5-12-7.268-4.913-12.878-14.448-18.5-18.5-1.816-1.309-1.393-2.338-4-.5-3.12-5.803-9.321-16.903-7.5-23 4.146 4.772 2.042 11.479 7 16 2.497 2.277 4.816.823 5 1 5.813 5.603 10.629 12.845 17 18 8.799 7.12 18.662 12.063 27.5 19"/><path fill="#145575" d="M265 390c18.755 10.563 33.867 12.47 54.5 16 2.516.431 4.004-1.189 3.5 3-27.006 1.246-38.985-2.119-61-17v-3c1.154.744 2.651.803 3 1"/><path fill="#1b759a" d="M825 417c-13.675 7.461-27.496.687-39.5-7 2.959 3.437 18.18 14.526 21.5 15 1.438 7.436-11.111 51.24-15.5 52-8.426 1.458-15.43-6.75-19.5-12 7.186-23.122 8.243-48.353 6-72.5 14.758 14.426 40.241 31.195 57 9.5.952-1.232 2.989-3.011 4-4.5l2-8c.681 10.931-7.562 21.128-16 27.5"/><path fill="#b4c0c7" d="M385 400c1.545.147 2.592.226 3 2-5.211 1.796-18.317 13.5-26.5 17-6.595 2.821-14.376 4.909-21.5 6l13-15c9.212-2.305 22.2-10.936 32-10"/><path fill="#1b779f" d="M266 434c2.366 1.034 9.066 1.429 9 4.5-6.838 5.809-4.606 13.696-14.5 9.5-13.165-5.584-36.577-32.124-43.5-45 2.607-1.838 2.184-.809 4 .5 5.622 4.052 11.232 13.587 18.5 18.5 7.831 5.294 17.881 8.233 26.5 12"/><path fill="#8ea3ae" d="m353 410-13 15c-1.614.247-2.42.846-4 1-5.034.492-13.914.428-19 0l7-11c9.706-1.505 19.461-2.613 29-5"/><path fill="#5eaac3" d="M825 417c-4.292 3.241-12.125 8.839-18 8-3.32-.474-18.541-11.563-21.5-15 12.004 7.687 25.825 14.461 39.5 7"/><path fill="#b1bcc2" d="M317 426c-.653-.055-1.351.07-2 0-4.918-.527-11.675-3.812-17-4 1.228-1.04 4.15-5.607 5.5-6 4.871-1.419 14.29-.037 20.5-1z"/><path fill="#fdfdfe" d="M315 426c-7.726 8.944-16.249 17.767-23 27.5-19.062 27.482-36.994 67.945-39 101.5-.262 4.379-1.189 8.409-1 13-2.504.879-2.886 10.271-3 12.5-6.649 129.987 76.559 239.169 197.5 279.5 1.439.48 6.357.88 2.5 3-62.239-13.954-121.372-51.226-161-101-15.076-18.936-24.917-38.814-36-60-37.502-80.057-28.657-177.841 21-250.5 5.977-8.745 17.032-22.752 25-29.5 5.325.188 12.082 3.473 17 4"/><path fill="#c3d9e5" d="M317 426c5.086.428 13.966.492 19 0l-17.5 23c38.581-21.671 89.114-21.492 126.5 2-84.451-43.592-185.931 7.646-191 104h-1c2.006-33.555 19.938-74.018 39-101.5 6.751-9.733 15.274-18.556 23-27.5.649.07 1.347-.055 2 0"/><path fill="#092a3b" d="M691 441c32.64 10.718 64.124 39.642 78 71 5.357 12.106 8.578 23.727 10 37 1.756 16.387.854 34.258-4 50-6.531 21.179-22.896 44.927-40 59-54.661 44.974-136.098 42.502-184-11-24.386-27.237-36.188-67.678-31-104 .979-6.851 4.813-21.177 7-28 3.496-7.025 8.481-15.551 13-22 34.458-49.17 92.512-71.205 151-52m-117 22c-65.528 47.96-70.038 139.076-9 193 9.624 8.503 22.088 17.044 34 22 21.164 8.804 43.148 11.603 66 9 29.52-3.362 60.894-19.218 79-43 50.133-39.878 36.267-128.908-7-170-8.846-8.401-13.425-11.959-24-18-16.738-9.561-35.35-16.726-55-18-30.921-2.004-59.325 6.941-84 25"/><path fill="#cde9f2" d="M445 451c7.135 3.683 20.432 12.611 25 19 .894 1.251 2.454 4.455 3.5 6-8.248-1.752-19.719-1.618-27.5-4-39.788-12.181-50.364-31.187-100.5-15-129.555 41.828-75.64 248.773 66.5 208l2 11c-19.844 5.966-48.584 8.373-69 5-33.054-5.461-68.241-39.901-81-70-7.485-17.657-11.011-36.778-10-56 5.069-96.354 106.549-147.592 191-104"/><path fill="#e2f0f4" d="m658 438-2.5 3 11.5 4c-26.9-4.536-65.243 6.56-87.5 22-3.208 2.226-15.833 16-17 16-12.511-.002 13.989-16.558 11.5-20 24.675-18.059 53.079-27.004 84-25"/><path fill="#c1dae3" d="m713 456-.5 5c-4.892-2.253-10.51-2.299-15.5-4-10.04-3.422-19.108-10.163-30-12l-11.5-4 2.5-3c19.65 1.274 38.262 8.439 55 18"/><path fill="#bedee9" d="M667 445c10.892 1.837 19.96 8.578 30 12v6c-57.88-26.604-130.766.07-152 61-7.808 22.406-8.819 38.871-4 62 3.89 18.668 13.803 38.247 27 52-11.909 4.672-8.661 9.879-3 18-61.038-53.924-56.528-145.04 9-193 2.489 3.442-24.011 19.998-11.5 20 1.167 0 13.792-13.774 17-16 22.257-15.44 60.6-26.536 87.5-22"/><path fill="#074768" d="M446 472c40.933 33.006 57.592 90.75 33 139-12.656 24.831-40.37 46.361-67 54-142.14 40.773-196.055-166.172-66.5-208 50.136-16.187 60.712 2.819 100.5 15m-26 188c35.457-13.431 65.049-47.76 68-86.5 2.387-31.345-16.391-87.822-48-98.5l4.5 2c-47.939-37.061-114.555-26.371-149.5 23.5-60.737 86.677 25.053 197.359 125 159.5"/><path fill="#031928" d="M697 463c17.61 8.094 38.225 27.237 48 44 24.385 41.819 18.91 94.77-14 130-17.612 18.854-46.02 33.063-72 35-18.359 1.368-37.194-1.991-54-9-11.475-4.786-28.43-16.069-37-25-13.197-13.753-23.11-33.332-27-52 5.588 4.058 5.514 11.154 8 16.5 11.627 25 30.816 44.406 55.5 56.5 174.95 60.04 216.007-214.036 21-203-22.707 10.596-43.822 18.662-60.5 39.5-7.368 9.205-11.089 22.883-20 28.5 21.234-60.93 94.12-87.604 152-61"/><path fill="#0ca7d4" d="M440 475c-2.042-.69-8.684-1.658-11-1-71.487-41.437-157.27 21.405-146 101.5 8.543 60.715 77.08 100.787 134 76.5.951 2.701 1.418 5.541 3 8-99.947 37.859-185.737-72.823-125-159.5 34.945-49.871 101.561-60.561 149.5-23.5Z"/><path fill="#072a41" d="M541 586c-4.819-23.129-3.808-39.594 4-62 8.911-5.617 12.632-19.295 20-28.5 16.678-20.838 37.793-28.904 60.5-39.5 195.007-11.036 153.95 263.04-21 203-24.684-12.094-43.873-31.5-55.5-56.5-2.486-5.346-2.412-12.442-8-16.5m96 71c20.426 2.278 36.812-1.216 55-10 44.828-21.649 63.776-68.842 48-116-24.083-71.99-120.941-87.42-168-28.5-47.102 58.974-9.034 146.242 65 154.5"/><path fill="#84aebd" d="M737 474c4.928 10.083 11.712 21.382 8 33-9.775-16.763-30.39-35.906-48-44v-6c4.99 1.701 10.608 1.747 15.5 4l.5-5c10.575 6.041 15.154 9.599 24 18"/><path fill="#5fcce7" d="M429 474c59.555 34.521 67.842 117.698 14.5 162-5.358 4.45-25.458 20.408-27.5 9 1.325-3.532 24.492-19.813 30-26.5 35.307-42.865 21.393-111.806-31.5-132.5-17.95-7.023-44.872-9.839-61.5 0-21.467-4.435-45.549 5.968-43 31-5.101 7.257-8.003 15.439-10 24-15.654 67.092 48.172 118.578 111 94 1.468 3.574 2.735 7.349 4 11 .682 1.968 1.308 4.036 2 6-56.92 24.287-125.457-15.785-134-76.5-11.27-80.095 74.513-142.937 146-101.5"/><path fill="#01acd3" d="m740 531-4 10c-3.378-13.322-15.183-35.046-27-42-1.426-3.228-5.018-8.049-8-10-7.788-10.877-20.323-14.582-33-12-31.747-10.655-72.833 6.88-92 33.5-38.463 53.418-6.253 128.647 58 138.5-5.292 8.671 1.369 3.646 3 8-74.034-8.258-112.102-95.526-65-154.5 47.059-58.92 143.917-43.49 168 28.5"/><path fill="#6294a6" d="M510 546c.357 32.872-6.907 64.982-29 90 4.815-7.026 16.166-28.66 17-36.5.153-1.441.544-4.618-2-3-2.402 6.16-5.723 11.803-9 17.5l-8-3c24.592-48.25 7.933-105.994-33-139 7.781 2.382 19.252 2.248 27.5 4-1.046-1.545-2.606-4.749-3.5-6 21.626 19.611 35.89 47.075 40 76"/><path fill="#058fc0" d="M440 475c31.609 10.678 50.387 67.155 48 98.5-2.951 38.74-32.543 73.069-68 86.5-1.582-2.459-2.049-5.299-3-8-.692-1.964-1.318-4.032-2-6 1.06.142.816-.51 1-1 2.042 11.408 22.142-4.55 27.5-9 53.342-44.302 45.055-127.479-14.5-162 2.316-.658 8.958.31 11 1"/><path fill="#55d2e1" d="M668 477c-4.162.848-9.69 4.224-13 7-39.067-9.031-84.194 26.124-89 65.5-16.341 133.885 203.839 112.821 157-15.5-2.601-7.126-5.06-14.953-11-20 .448-6.832-.375-9.059-3-15 11.817 6.954 23.622 28.678 27 42 10.317 40.688-9.609 82.165-47 100-18.982 9.054-34.308 11.173-55 8-64.253-9.853-96.463-85.082-58-138.5 19.167-26.62 60.253-44.155 92-33.5"/><path fill="#507c8b" d="M744 644c-1.589 1.264-3.193 2.405-4.5 4l-8.5-11c32.91-35.23 38.385-88.181 14-130 3.712-11.618-3.072-22.917-8-33 43.267 41.092 57.133 130.122 7 170"/><path fill="#acdbe5" d="M701 489c-24.815-16.236-62.1 4.544-48 35-2.464.898-5.408-.863-7-1-4.314-14.475-2.86-29.056 9-39 3.31-2.776 8.838-6.152 13-7 12.677-2.582 25.212 1.123 33 12"/><path fill="url(#d)" d="m226 550-20-3.5c.602 14.516 1.21 28.959 1 43.5-.445 30.724-.302 65.06-14 93-.232-.094-3.171 1.731-5 0 2.311-.869 3.297-3.463 4-5.5 11.446-33.184 12.396-131.447 6-166.5 4.167 1.374 2.244-5.415 2-6.5-1.882-8.373-7.541-11.276-1-16.5 2.569-2.052 3.793-2.96 7-4 4.378-1.42 42.998-7.614 44-4.5-11.179 21.932-19.693 46.144-24 70.5" style="fill:url(#d)"/>/&gt;<path fill="url(#e)" d="M820 485c.146.036 2.026 2.73 3 0 7.198 4.105-1.179 17.248-2 25.5-.975 9.798-.488 21.486-1 31.5-1.009-.051-2.638 1.815-3 2-4.404 2.247-9.833 3.057-14 6-2.682-15.043-9.573-37.025-15-51.5-1.216-3.242-11.948-18.263-7.5-20.5 13.36.89 26.471 3.794 39.5 7" style="fill:url(#e)"/>/&gt;<path fill="#107fa7" d="M416 645c-.184.49.06 1.142-1 1-1.265-3.651-2.532-7.426-4-11-.425-1.034-.884-1.727-1-2-2.406-5.651-2.744-10.387-7-16-2.148-2.833-6.1-4.521-8-8 44.136-17.058 30.595-93.183-18-94 1.063-17.081-8.296-25.755-24-29 16.628-9.839 43.55-7.023 61.5 0 52.893 20.694 66.807 89.635 31.5 132.5-5.508 6.687-28.675 22.968-30 26.5m-2.5-34c-4.808 1.143-5.615 10.455 0 12 11.537 3.174 9.693-14.305 0-12"/><path fill="url(#f)" d="M655 484c-11.86 9.944-13.314 24.525-9 39-45.356-3.908-70.831 57.988-27.5 80 48.236 24.504 83.133-39.808 55.5-63 11.226 1.137 24.636-2.021 32-11 14.203 11.86 10.794 32.626 15.5 48 1.916-.427 1.704-25.329 1.5-28.5-.279-4.326-5.387-11.298 0-14.5 46.839 128.321-173.341 149.385-157 15.5 4.806-39.376 49.933-74.531 89-65.5m-12.5 135c-5.773-.604-5.483 8.032 1 10 1.159-2.888 3.34-9.546-1-10" style="fill:url(#f)"/>/&gt;<path fill="#95a7b4" d="m205 483 1 1c-3.207 1.04-4.431 1.948-7 4h-7.5c-2.393-1.396 12.248-4.678 13.5-5"/><path fill="#e6f4f7" d="M701 489c2.982 1.951 6.574 6.772 8 10 2.625 5.941 3.448 8.168 3 15-.363 5.528-2.55 10.794-6 15-7.364 8.979-20.774 12.137-32 11-6.159-5.169-15.338-3.771-21-16-14.1-30.456 23.185-51.236 48-35m-25.5-2c-30.056 3.282-27.804 52.247 7 50 35.335-2.281 32.361-54.298-7-50"/><path fill="#edf5f8" d="M353 486c15.704 3.245 25.063 11.919 24 29-.717 11.53-11.401 26.911-23 30-7.17 1.91-14.179 1.307-21-1-9.97-3.372-21.896-16.158-23-27-2.549-25.032 21.533-35.435 43-31"/><path fill="#082f45" d="M823 485c-.974 2.73-2.854.036-3 0 .638.286 2.495-.288 3 0"/><path fill="#c7e3eb" d="M675.5 487c39.361-4.298 42.335 47.719 7 50-34.804 2.247-37.056-46.718-7-50"/><path fill="#121c24" d="M198 511c6.396 35.053 5.446 133.316-6 166.5-.703 2.037-1.689 4.631-4 5.5-15.804-14.959-19.608-97.406-18-119.5.891-12.247 10.606-65.272 18-73 4.512-4.715 9.392 17.17 10 20.5m-18 15c-.986 5.201-1.289 10.724-2 16-4.254 31.566-4.638 51.269-1 83 1.981 17.28 3.831 34.803 10.5 51 3.795.409 7.094-36.087 7.5-40 4.886-47.104 5.475-98.94-5.5-145-4.853 11.273-7.222 22.984-9.5 35"/><path fill="#0e212c" d="m767 736-2-.5c7.791-9.723 12.325-22.635 18-34 3.745-7.498 9.309-11.092 10-21l-6-.5c6.299-19.426 10.339-37.531 12-58l7 1c-.35 4.514-1.771 9.148-3 13.5 13.843 5.949 14.16-4.197 14-15-.011-.756-1.969-.239-2-1-.209-5.108 1.759-15.104-2-18.5 3.078-2.252 3.813-50.671 4-58 .362-.185 1.991-2.051 3-2-2.322 45.413-5.459 100.189 12.5 142 1.384-2.141 1.783-4.627 2.5-7 1.019-3.372 1.178-7.662 2-11 10.19-41.366 14.078-83.613 8-126-.19-1.327-.711-3.262-1-5-.379-2.277-.58-4.813-1-7-.536-2.789-1.889-4.49-2-5-1.039-4.771-1.645-9.237-3-14-1.803-6.336-3.738-12.806-6-19 20.156 32.765 23.415 82.486 20 121.5-.851 9.722-11.256 70.714-18.5 73.5-8.413-.268-43.145 9.078-47.5 14.5-6.007 7.477-10.276 28.725-19 36.5"/><path fill="#05b9e7" d="M838 509c-8.646 4.252-7.5 21.879-8 31-.344 6.275.154 12.706 0 19h-7c.29-22.729-1.691-48.557 9-69 2.262 6.194 4.197 12.664 6 19"/><path fill="#c6ecf3" d="M195 636c-4.372-2.804-11.294-9.608-16-11-3.016-26.708.929-54.663 0-81 1.757 1.82.5 4.275 3.5 6 7.379 4.242 3.172-3.172 3.5-5.5.04-.282 2.011-2.82 2-3-.249-4-5.316-5.159-1-13l-7-2.5c2.278-12.016 4.647-23.727 9.5-35 10.975 46.06 10.386 97.896 5.5 145"/><path fill="#c9dce4" d="M540 493c-4.519 6.449-9.504 14.975-13 22 2.423-7.559 4.541-18.113 13-22"/><path fill="#6accda" d="M838 509c1.355 4.763 1.961 9.229 3 14-8.343.908-5.634 8.663 2 5 .42 2.187.621 4.723 1 7-8.762.016-5.869 9.696-14 5 .5-9.121-.646-26.748 8-31"/><path fill="#156f94" d="M723 534c-5.387 3.202-.279 10.174 0 14.5.204 3.171.416 28.073-1.5 28.5-4.706-15.374-1.297-36.14-15.5-48 3.45-4.206 5.637-9.472 6-15 5.94 5.047 8.399 12.874 11 20"/><path fill="#144059" d="M395 609c-27.148 10.493-54.217-4.212-63-31 11.991-7.062 27.638-16.344 22-33 11.599-3.089 22.283-18.47 23-30 48.595.817 62.136 76.942 18 94"/><path fill="#c0d4dc" d="M520 543h-1c.291-10.137 3.653-19.265 8-28-2.187 6.823-6.021 21.149-7 28"/><path fill="#3488aa" d="m333 544-1 1c-10.872-11.195-21.158 13.507-3 16-1.344 4.1.941 10.907 2 15-19.451-1.961-28.599-17.18-31-35 1.997-8.561 4.899-16.743 10-24 1.104 10.842 13.03 23.628 23 27"/><path fill="url(#g)" d="M646 523c1.592.137 4.536 1.898 7 1 5.662 12.229 14.841 10.831 21 16 27.633 23.192-7.264 87.504-55.5 63-43.331-22.012-17.856-83.908 27.5-80" style="fill:url(#g)"/>/&gt;<path fill="#b6e5eb" d="M841 523c.111.51 1.464 2.211 2 5-7.634 3.663-10.343-4.092-2-5"/><path fill="#f6f9fb" d="M179 544c-.034-.97.367-2.031-1-2 .711-5.276 1.014-10.799 2-16l7 2.5c-4.316 7.841.751 9 1 13 .011.18-1.96 2.718-2 3-.328 2.328 3.879 9.742-3.5 5.5-3-1.725-1.743-4.18-3.5-6"/><path fill="#114a6c" d="m692 647-3-6c37.391-17.835 57.317-59.312 47-100l4-10c15.776 47.158-3.172 94.351-48 116"/><path fill="#9adbe4" d="M844 535c.289 1.738.81 3.673 1 5-2.84-.506-2.146 2.822-2 4.5 2.294 26.393 2.336 52.488 1 79-.451 1.363-11.52 9.024-14 6.5-1.263-22.22-.548-48.552 0-71 .154-6.294-.344-12.725 0-19 8.131 4.696 5.238-4.984 14-5"/><path fill="#48baca" d="M845 540c6.078 42.387 2.19 84.634-8 126-4.529-8.03-6.338-23.085-7-33-.066-.986.056-2.013 0-3 2.48 2.524 13.549-5.137 14-6.5 1.336-26.512 1.294-52.607-1-79-.146-1.678-.84-5.006 2-4.5"/><path fill="url(#h)" d="M331 576c.518 2.003.965 1.894 1 2 8.783 26.788 35.852 41.493 63 31 1.9 3.479 5.852 5.167 8 8-5.769 3.143 3.506 13.764 7 16 .116.273.575.966 1 2-62.828 24.578-126.654-26.908-111-94 2.401 17.82 11.549 33.039 31 35" style="fill:url(#h)"/>/&gt;<path fill="#69e0e9" d="M179 544c.929 26.337-3.016 54.292 0 81-.503-.149-1.359.075-2 0-3.638-31.731-3.254-51.434 1-83 1.367-.031.966 1.03 1 2"/><path fill="#fcfefe" d="M332 545c8.759 9.019-2.144 13.389-3 16-18.158-2.493-7.872-27.195 3-16"/><path fill="url(#i)" d="M520 543c-5.188 36.322 6.614 76.763 31 104 31.601 48.736 100.724 61.287 152.5 40 4.491-1.847 24.95-13.017 27.5-16-22.296 81.844-97.823 152.234-182 165 13.888-7.804 27.932-25.828 32-41 .371-.342.72-.753 1-1 1.178-1.042 1.115-5.131 4.5-7 1.614-.891 32.58-5.711 29.5-9.5-10.368.009-19.355 1.741-29.5-1.5-22.32-7.131-34.601-43.129-61-36-2.666.72-10.351 6.935-11 7-1.566.156-11.76-6.663-16-7-26.875-2.135-38.023 35.138-64 39-1.974.293-28.107-1.966-20 3 9.893 1.418 19.58 4.878 29.5 6-1.149 2.667 1.874 3.72 2 4 8.485 18.862 21.458 37.459 41 46-84.053-7.813-156.16-69.134-190-144.5-3.796-8.454-5.956-17.796-9-26.5 7.65 2.819 13.464 10.701 20.5 15 6.179 3.775 13.686 6.521 20.5 9 37.487 13.64 78.232 8.862 112.5-11 5.198-3.013 16.38-9.809 17.5-16 33.025-23.951 53.986-65.209 52-106l8-15z" style="fill:url(#i)"/>/&gt;<path fill="#2a4b61" d="M354 545c5.638 16.656-10.009 25.938-22 33-.035-.106-.482.003-1-2-1.059-4.093-3.344-10.9-2-15 .856-2.611 11.759-6.981 3-16l1-1c6.821 2.307 13.83 2.91 21 1"/><path fill="#35525d" d="M817 544c-.187 7.329-.922 55.748-4 58-2.179 1.594-3.621.938-6 1 .204-17.191-.987-36.103-4-53 4.167-2.943 9.596-3.753 14-6"/><path fill="#849aa6" d="M226 550c-2.443 13.813-3.261 27.993-4 42-.335.451.345 3.132 0 3.5-2.67 2.843-16.328.208-15-5.5.21-14.541-.398-28.984-1-43.5z"/><path fill="#0e394e" d="M511 558c1.986 40.791-18.975 82.049-52 106-42.244 30.637-72.823 26.644-121 20-19.393-7.653-32.186-20.131-48-32-12.221-12.09-20.394-25.278-27-41h1c12.759 30.099 47.946 64.539 81 70 46.859 15.551 108.021-4.177 136-45 22.093-25.018 29.357-57.128 29-90 .625 4.398.786 7.594 1 12"/><path fill="url(#j)" d="M495 870c-15.09-.888-31.257-3.695-46-7 3.857-2.12-1.061-2.52-2.5-3C325.559 819.669 242.351 710.487 249 580.5c.114-2.229.496-11.621 3-12.5.638 15.472 5.143 29.059 11 43 6.606 15.722 14.779 28.91 27 41-2.04-1.531-6.614-4.972-9-5.5 2.738 3.827.427 8.85 1 11 .538 2.021 5.178 7.148 6 9.5 3.044 8.704 5.204 18.046 9 26.5 33.84 75.366 105.947 136.687 190 144.5 19.489 8.517 43.147 8.594 62-2 84.177-12.766 159.704-83.156 182-165 .325-.38 1.833-1.741 2-2-.552 3.021 2.15 1.149 3 .5 21.192-16.175 40.505-42.765 39-70.5 4.854-15.742 5.756-33.613 4-50 4.138-1.013 4.273 1.826 5 4.5 12.844 47.212-6.906 126.634-30 169-45.181 82.886-128.08 133.338-221.5 142.5-8.755.859-20.927-1.434-29 0-.976.174-.007 2.695-1 3-2.001.614-7.531-1.747-7.5 2" style="fill:url(#j)"/>/&gt;<path fill="#76a1b6" d="M264 611h-1c-5.857-13.941-10.362-27.528-11-43-.189-4.591.738-8.621 1-13h1c-1.011 19.222 2.515 38.343 10 56"/><path fill="#3fcee9" d="M830 559c-.548 22.448-1.263 48.78 0 71 .056.987-.066 2.014 0 3l-6 1c-1.335-23.501-1.302-51.317-1-75z"/><path fill="url(#k)" d="M252 702c11.083 21.186 20.924 41.064 36 60-3.409 1.59-5.096-1.383-7-3.5-5.71-6.35-9.447-17.658-17-21.5-4.251-6.453-15.852-31.128-19.5-34-5.472-4.308-41.809-16.068-51.5-20 13.698-27.94 13.555-62.276 14-93-1.328 5.708 12.33 8.343 15 5.5.345-.368-.335-3.049 0-3.5.141-.189 3.328-3.411 4-2.5.888 9.471.06 21.84 1 31 .081.786 1.915.213 2 1 .721 6.653.093 14.492 1 20 3.491 21.191 13.223 43.722 22 60.5" style="fill:url(#k)"/>/&gt;<path fill="#c8e1ea" d="M481 636c-27.979 40.823-89.141 60.551-136 45 20.416 3.373 49.156.966 69-5 34.572-10.395 55.605-31.761 73-62 3.277-5.697 6.598-11.34 9-17.5 2.544-1.618 2.153 1.559 2 3-.834 7.84-12.185 29.474-17 36.5"/><path fill="#2e5565" d="M733 669c.302-.47 2.99-9.708 2-11 17.104-14.073 33.469-37.821 40-59 1.505 27.735-17.808 54.325-39 70.5-.85.649-3.552 2.521-3-.5"/><path fill="#1b3643" d="M806 623c.51-6.575.922-13.4 1-20 2.379-.062 3.821.594 6-1 3.759 3.396 1.791 13.392 2 18.5.031.761 1.989.244 2 1 .16 10.803-.157 20.949-14 15 1.229-4.352 2.65-8.986 3-13.5"/><path fill="#fbfdfe" d="M413.5 611c9.693-2.305 11.537 15.174 0 12-5.615-1.545-4.808-10.857 0-12"/><path fill="#8fbbcc" d="M487 614c-17.395 30.239-38.428 51.605-73 62l-2-11c26.63-7.639 54.344-29.169 67-54z"/><path fill="#32c2e3" d="M403 617c4.256 5.613 4.594 10.349 7 16-3.494-2.236-12.769-12.857-7-16"/><path fill="#f5fafb" d="M642.5 619c4.34.454 2.159 7.112 1 10-6.483-1.968-6.773-10.604-1-10"/><path fill="#569aa9" d="M179 625c4.706 1.392 11.628 8.196 16 11-.406 3.913-3.705 40.409-7.5 40-6.669-16.197-8.519-33.72-10.5-51 .641.075 1.497-.149 2 0"/><path fill="#04aacf" d="M837 666c-.822 3.338-.981 7.628-2 11-10.478-5.357-10.326-31.129-11-43l6-1c.662 9.915 2.471 24.97 7 33"/><path fill="#a2c8d6" d="M568 638c8.57 8.931 25.525 20.214 37 25l-6 15c-11.912-4.956-24.376-13.497-34-22-5.661-8.121-8.909-13.328 3-18"/><path fill="#6590a0" d="M744 644c-18.106 23.782-49.48 39.638-79 43-8.549-.824-3.423-8.347-6-15 25.98-1.937 54.388-16.146 72-35l8.5 11c1.307-1.595 2.911-2.736 4.5-4"/><path fill="#03719d" d="M692 647c-18.188 8.784-34.574 12.278-55 10-1.631-4.354-8.292.671-3-8 20.692 3.173 36.018 1.054 55-8z"/><path fill="#d1dfe8" d="M290 652c15.814 11.869 28.607 24.347 48 32-1.601-.221-6.215-2.186-6.5-2-.391.256-2.303 7.654-2.5 9-6.814-2.479-14.321-5.225-20.5-9-7.036-4.299-12.85-12.181-20.5-15-.822-2.352-5.462-7.479-6-9.5-.573-2.15 1.738-7.173-1-11 2.386.528 6.96 3.969 9 5.5"/><path fill="#517684" d="M735 658c.99 1.292-1.698 10.53-2 11-.167.259-1.675 1.62-2 2-2.55 2.983-23.009 14.153-27.5 16-51.776 21.287-120.899 8.736-152.5-40 47.902 53.502 129.339 55.974 184 11"/><path fill="#84aebd" d="M659 672c2.577 6.653-2.549 14.176 6 15-22.852 2.603-44.836-.196-66-9l6-15c16.806 7.009 35.641 10.368 54 9"/><path fill="#b8ccd5" d="M329 691c.197-1.346 2.109-8.744 2.5-9 .285-.186 4.899 1.779 6.5 2 48.177 6.644 78.756 10.637 121-20-1.12 6.191-12.302 12.987-17.5 16-34.268 19.862-75.013 24.64-112.5 11"/><path fill="#062b40" d="M767 736c-117.096 184.005-382.882 183.324-503 1 7.553 3.842 11.29 15.15 17 21.5 1.904 2.117 3.591 5.09 7 3.5 39.628 49.774 98.761 87.046 161 101 14.743 3.305 30.91 6.112 46 7 127.661 7.509 252.017-66.699 292-190l6 .5c-.691 9.908-6.255 13.502-10 21-5.675 11.365-10.209 24.277-18 34z"/><path fill="#161619" d="M582 794c-2.322.035-4.679-.05-7 0 3.807-1.94 6.5-.047 6.5-6-10.983 1.001-21.965 1.222-33 1-5.574-.112-17.172-3.56-22-3-.379.044-4.76 3.812-6.5 4-7.728.835-12.631-2.04-17.5-2-11.533.095-22.937 1.501-34.5 1-8.031-.348-15.976-.093-24-1-9.92-1.122-19.607-4.582-29.5-6-8.107-4.966 18.026-2.707 20-3 25.977-3.862 37.125-41.135 64-39 4.24.337 14.434 7.156 16 7 .649-.065 8.334-6.28 11-7 26.399-7.129 38.68 28.869 61 36 10.145 3.241 19.132 1.509 29.5 1.5 3.08 3.789-27.886 8.609-29.5 9.5-3.385 1.869-3.322 5.958-4.5 7m-124-8c21.085 1.906 41.95-.698 63-1 23.895-.343 48.926 4.755 72-3.5-18.996-1.385-30.576-25.005-44-31.5-7.379-7.498-16.934-9.125-26.5-6-1.522.497-7.504 5.936-8 6-1.374.177-11.468-5.706-15-6-24.486-2.039-39.309 35.226-63.5 38.5 6.984 2.517 14.712 2.841 22 3.5"/><path fill="#e6d4dc" d="M549 750c-5.068-2.452-19.096-4.349-24.5-3-1.708.426-7.855 4.91-9 5-5.684.446-11.218-5.702-23-3-6.004 1.377-37.987 26.638-38.5 30.5-.252 1.895 1.924 2.359 2 2.5 1.531 2.843 3.864 1.422 2 4-7.288-.659-15.016-.983-22-3.5 24.191-3.274 39.014-40.539 63.5-38.5 3.532.294 13.626 6.177 15 6 .496-.064 6.478-5.503 8-6 9.566-3.125 19.121-1.498 26.5 6"/><path fill="url(#l)" d="M549 750c13.424 6.495 25.004 30.115 44 31.5-23.074 8.255-48.105 3.157-72 3.5l2.5-3c-2.022-2.433-55.477-2.254-63-2-1.83.062-4.935-1.009-4.5 2-.076-.141-2.252-.605-2-2.5.513-3.862 32.496-29.123 38.5-30.5 11.782-2.702 17.316 3.446 23 3 1.145-.09 7.292-4.574 9-5 5.404-1.349 19.432.548 24.5 3" style="fill:url(#l)"/>/&gt;<path fill="#a07897" d="M521 785c-21.05.302-41.915 2.906-63 1 1.864-2.578-.469-1.157-2-4-.435-3.009 2.67-1.938 4.5-2 7.523-.254 60.978-.433 63 2z"/><path fill="#655265" d="M575 794c-.112.002.503.751-2 1-2.64.263-7.044.929-9 1-15.041.544-29.409-3.93-44-3v-3c1.74-.188 6.121-3.956 6.5-4 4.828-.56 16.426 2.888 22 3 11.035.222 22.017.001 33-1 0 5.953-2.693 4.06-6.5 6"/><path fill="#d9b4cc" d="m468 789-15 3.5c.046 1.321 18.805 5.329 21 5.5 2.616 5.135 22.177 10.549 22 16.5-.221 7.423-18.362 1.151-22-.5l10-1.5c2.16-2.668-24.189-13.7-26.5-14.5 2.774 3.792 5.801 9.09 9.5 12-6.548.508 2.614 6.669 4 8.5.054.072-1.395 1.032-1 1.5l-24-28c-.126-.28-3.149-1.333-2-4 8.024.907 15.969.652 24 1"/><path fill="#96798e" d="M520 790v3c-15.662.998-29.294 6.301-46 5-2.195-.171-20.954-4.179-21-5.5l15-3.5c11.563.501 22.967-.905 34.5-1 4.869-.04 9.772 2.835 17.5 2"/><path fill="#0f1217" d="M470 820c5.109 6.051 19.496 14.623 27 17 27.403 8.681 55.83-3.122 73-25.5.236-.308 4.889-7.302 2-7.5 2.084-1.798 6.066-6.297 9-9-4.068 15.172-18.112 33.196-32 41-18.853 10.594-42.511 10.517-62 2-19.542-8.541-32.515-27.138-41-46z"/><path fill="url(#m)" d="M564 796c-.347 4.767 9.875 4.158 9-1 2.503-.249 1.888-.998 2-1 2.321-.05 4.678.035 7 0-.28.247-.629.658-1 1-2.934 2.703-6.916 7.202-9 9-15.19 13.105-35.557 26.098-55.5 30-6.093 1.192-14.525-.591-19.5 3-7.504-2.377-21.891-10.949-27-17-.395-.468 1.054-1.428 1-1.5-1.386-1.831-10.548-7.992-4-8.5 2.097 1.649 4.578 2.901 7 4 3.638 1.651 21.779 7.923 22 .5.177-5.951-19.384-11.365-22-16.5 16.706 1.301 30.338-4.002 46-5 14.591-.93 28.959 3.544 44 3" style="fill:url(#m)"/>/&gt;<path fill="#cfc0cd" d="M573 795c.875 5.158-9.347 5.767-9 1 1.956-.071 6.36-.737 9-1"/><path fill="#f1edf0" d="M474 814c-2.422-1.099-4.903-2.351-7-4-3.699-2.91-6.726-8.208-9.5-12 2.311.8 28.66 11.832 26.5 14.5z"/><path fill="#634b60" d="M497 837c4.975-3.591 13.407-1.808 19.5-3 19.943-3.902 40.31-16.895 55.5-30 2.889.198-1.764 7.192-2 7.5-17.17 22.378-45.597 34.181-73 25.5"/></svg>