<svg xmlns="http://www.w3.org/2000/svg" width="1024" height="1024"><defs><linearGradient id="a" x1="441.859" x2="602.737" y1="269.053" y2="275.321" gradientUnits="userSpaceOnUse"><stop offset="0%" style="stop-color:#cdebf4"/><stop offset="100%" style="stop-color:#98d4e4"/></linearGradient></defs><defs><linearGradient id="b" x1="424.918" x2="470.144" y1="382.374" y2="453.159" gradientUnits="userSpaceOnUse"><stop offset="0%" style="stop-color:#a1b9d4"/><stop offset="100%" style="stop-color:#d3e0ec"/></linearGradient></defs><defs><linearGradient id="c" x1="837.854" x2="839.256" y1="574.059" y2="639.044" gradientUnits="userSpaceOnUse"><stop offset="0%" style="stop-color:#245163"/><stop offset="100%" style="stop-color:#16323f"/></linearGradient></defs><defs><linearGradient id="d" x1="480.224" x2="548.691" y1="422.087" y2="582.05" gradientUnits="userSpaceOnUse"><stop offset="0%" style="stop-color:#043866"/><stop offset="100%" style="stop-color:#0984a2"/></linearGradient></defs><defs><linearGradient id="e" x1="910.278" x2="888.543" y1="467.184" y2="492.015" gradientUnits="userSpaceOnUse"><stop offset="0%" style="stop-color:#39bedf"/><stop offset="100%" style="stop-color:#28a3c1"/></linearGradient></defs><defs><linearGradient id="f" x1="118.881" x2="114.264" y1="475.306" y2="507.982" gradientUnits="userSpaceOnUse"><stop offset="0%" style="stop-color:#2fb8d8"/><stop offset="100%" style="stop-color:#1f9cba"/></linearGradient></defs><defs><linearGradient id="g" x1="173.092" x2="173.449" y1="581.945" y2="639.944" gradientUnits="userSpaceOnUse"><stop offset="0%" style="stop-color:#2a5e72"/><stop offset="100%" style="stop-color:#1d4353"/></linearGradient></defs><defs><linearGradient id="h" x1="833.054" x2="832.954" y1="490.287" y2="555.287" gradientUnits="userSpaceOnUse"><stop offset="0%" style="stop-color:#5696a9"/><stop offset="100%" style="stop-color:#3f7e93"/></linearGradient></defs><defs><linearGradient id="i" x1="182.837" x2="186.002" y1="501.448" y2="564.368" gradientUnits="userSpaceOnUse"><stop offset="0%" style="stop-color:#5192a5"/><stop offset="100%" style="stop-color:#3c7c90"/></linearGradient></defs><path fill="#1ba0be" d="m757 277-6 6c-150.005-139.226-378.56-117.662-506 40l-7-6c130.592-161.686 367.376-189.311 519-40"/><path fill="url(#a)" d="M751 283c16.979 15.759 41.713 43.16 55 62 .343.487 1.798 4.048 2 5-7.414-6.965-24.056-13.162-32.5-20-16.486-13.351-31.101-35.265-49-49-20.328-15.598-50.771-30.175-74.5-40-44.121-18.269-83.869-27.023-132-28-107.182-2.176-196.62 42.503-271 117-6.605 6.616-16.672 14.621-22 22l-1-1c6.219-9.388 11.896-19.212 19-28 127.44-157.662 355.995-179.226 506-40" style="fill:url(#a)"/>/&gt;<path fill="#82ccdf" d="M520 213c-1.472 6.928 2.684 3.015 4 7-109.553-2.573-199.113 38.869-273 118l-2-8c74.38-74.497 163.818-119.176 271-117"/><path fill="#45b3cc" d="M652 241c-8.301 1.133 4.138 8.243 7 10-42.333-19.853-88.137-29.899-135-31-1.316-3.985-5.472-.072-4-7 48.131.977 87.879 9.731 132 28"/><path fill="#033345" d="M524 220c46.863 1.101 92.667 11.147 135 31 52.347 32.135 83.351 46.417 127 93.5 4.082 4.403 25.358 33.171 27.5 33.5 1.063.163 8.318-4.16 8.5-5.5.178-1.313-11.865-20.495-14-22.5-.202-.952-1.657-4.513-2-5 2.829-.631.073-5.696-1-8 9.327 8.759 14.888 30.57 22 39 5.028 5.961 37.267 18.865 46 22 2.049 1.337 4.22 3.445 7 4.5-.502 2.258-2.894 2.336-3 2.5-13.265-5.215-35.889-20.662-49-23-8.081-1.441-9.688 2.283-13 9-4.093 4.624-6.613 15.124-8 21.5-2.306 10.599-2.325 26.834-5 36-.751 2.574-1.5 2.763-4 2.5 1.817-21.739 3.521-43.596 10-64.5-3.608-4.503-7.519-8.924-11-13.5-4.915-6.461-10.654-11.979-16-18-52.668-59.319-120.984-105.374-200-121-145.55-28.784-279.685 36.058-360 157-2.14 3.222-9.741 10.538-10 14.5 9.016 32.785 10.442 66.663 11 100.5.213 12.893.432 26.12 0 39-.712 21.241-1.837 43.498-5 64.5-1.167 7.751-11.265 43.289-11 46 .985 10.093 37.656 62.931 46 73.5 134.201 169.993 376.626 179.023 517 11.5 12.53-14.953 41.536-55.002 47-72.5l6 .5-4 8.5c-8.764 13.36-15.398 29.565-25 43.5C679.609 885.061 451.873 919.561 298.5 788c-41.056-35.217-72.609-79.504-98-127-.586-.002-4.098 4.748-5 5-5.695 1.592-46.624-19.52-56.5-23 .789-1.832 3.085-3.285 4-5 2.572.915-.972 2.343.5 4 4.027 4.532 33.777 13.552 40.5 18.5l-9-10c10.694-.319 11.168 4.826 16-7 5.51-13.486 9.62-50.856 11-66.5l5 1c-1.049 14.673-1.026 29.863-3 44.5-.859 6.369-8.254 31.98-5.5 32.5 19.814-62.64 19.765-136.626 13.5-202-1.072-11.188-1.671-21.957-4-33-1.834-8.695-4.402-22.57-11-29-.12-.117.057-2.436-1.5-3-7.784 1.456-15.718 3.868-23.5 6-8.583 2.351-17.46 5.344-26 8-1.919.597-3.915 1.862-6 2-.574-1.445-3.918-2.765-2-5 19.192-4.9 37.355-9.075 56-16 1.499-.557 5.739.581 7 0l6.5 10c1.16.108 11.729-16.724 13.5-19 9.39-12.067 19.581-24.841 30-36 73.887-79.131 163.447-120.573 273-118"/><path fill="#e9f2f5" d="M581 234c-2.763 4.782 1.69 10.248-1 14.5-2.658 4.202-17.555 5.506-20 11-1.898 4.264-1.253 19.043-1 24.5-162.74-33.851-295.753 116.662-252 275-15.442 2.544-28.782 17.586-41.5 27-2.113 1.564-6.778 1.198-7.5 2.5-2.361 4.256-2.541 24.202-4 30-.209.829-1.777.168-2 1-1.62 6.03-3.853 11.843-5 18l-2-4.5c.163-.521-.16-1.471 0-2 16.839-55.582 18.124-128.733 6-185.5-.805-3.769-7.055-29.708-8-31-2.576-3.523-13.563.044-16-2-.855-.717-4.549-18.993-6-21.5 80.315-120.942 214.45-185.784 360-157"/><path fill="#cadee5" d="M781 355c-35.276 42.527-32.552 112.848-31 166-4.887-3.179-.189-21.594-2-24.5l-16 1.5c-.968-92.905-60.113-174.856-147-206-8.943-3.206-16.594-6.043-26-8-.253-5.457-.898-20.236 1-24.5 2.445-5.494 17.342-6.798 20-11 2.69-4.252-1.763-9.718 1-14.5 79.016 15.626 147.332 61.681 200 121m-60.5-27c-6.141 1.594-7.139 20.301 3 19 7.016-.9 7.516-15.875 1-19-1.237.189-2.923-.28-4 0"/><path fill="#1c9ab8" d="M652 241c23.729 9.825 54.172 24.402 74.5 40 17.899 13.735 32.514 35.649 49 49 8.444 6.838 25.086 13.035 32.5 20 2.135 2.005 14.178 21.187 14 22.5-.182 1.34-7.437 5.663-8.5 5.5-2.142-.329-23.418-29.097-27.5-33.5-43.649-47.083-74.653-61.365-127-93.5-2.862-1.757-15.301-8.867-7-10"/><path fill="#08819f" d="M757 277c14.913 14.686 39.317 41.348 48 60 1.073 2.304 3.829 7.369 1 8-13.287-18.84-38.021-46.241-55-62z"/><path fill="#96bfca" d="M559 284c9.406 1.957 17.057 4.794 26 8l-6.5 9c40.728 12.045 66.635 34.927 92.5 67-2.285-1.01-3.458-3.241-5-5-86.432-98.628-242.754-87.473-316 20-89.56 131.411-3.375 309.053 156 314-1.983 2.881.672 1.944 2.5 2 5.439.167 15.713-1.736 19.5 2-62.804 4.185-129.001-22.865-170-70.5-5.13-5.96-23.332-36.836-25.5-37.5-1.486-.455-8.614 2.967-9.5 5-6.963-13.635-11.863-24.027-16-39-43.753-158.338 89.26-308.851 252-275"/><path fill="#5c8d98" d="M585 292c86.887 31.144 146.032 113.095 147 206 .302 29.014-5.271 56.872-15 84-24.724 68.94-80.655 123.394-153 140-23.808 5.465-44.785 6.757-69 4-75.303-8.575-138.354-62.109-172-128 .886-2.033 8.014-5.455 9.5-5 2.168.664 20.37 31.54 25.5 37.5 40.999 47.635 107.196 74.685 170 70.5 29.023-1.934 68.111-14.924 93-30-1.303 3.88-.498 3.521 2.5 2 15.609-7.92 36.354-29.106 46.5-43 71.15-75.047 63.7-183.198 2-261-.044-.055-.446-.313-1-1-25.865-32.073-51.772-54.955-92.5-67z"/><path fill="#b3d3dd" d="m666 363-9.5-8c-2.712 1.188 4.007 9.302 6.5 9.5l-2 .5c-84.266-92.842-235.989-84.627-308 19l-3-1c73.246-107.473 229.568-118.628 316-20"/><path fill="#053662" d="M661 365c90.878 101.851 54.049 265.048-74.5 314C405.085 748.084 241.993 543.742 353 384c72.011-103.627 223.734-111.842 308-19m-139-47c-26.452-3.673-52.923 3.612-77 14-12.389 5.345-20.995 10.308-32 18-36.126 25.251-68.784 69.197-74 114-4.257 4.589-5.539 16.88-6 23.5-1.266 18.185.83 38.788 5 56.5 6.192 26.298 19.793 51.333 37 72 14.942 17.946 32.299 32.08 53 43-.458 2.346-3.9 6.793-2.5 9 .647 1.02 19.394 9.052 22 10 21.318 7.757 45.887 11.238 68.5 11 77.14-.811 150.298-47.889 179-120 15.051-37.814 18.382-79.983 8-119.5l-11 1.5c-7.49-31.496-25.363-61.207-48-84-15.564-15.671-35.936-30.572-56.5-39-12.354-5.063-52.232-16.211-64-13-1.081.295.363 2.616-1.5 3"/><path fill="#1b5185" d="M644 367c-14.655 6.5-26.106-.993-41.5 6-1.028.467.013 2.677-1 3-1.287.41-17.325-14.585-21-17-28.296-18.597-65.106-30.809-99-29l-.5-6c13.585-2.754 27.417-3.199 41-6 1.863-.384.419-2.705 1.5-3 11.768-3.211 51.646 7.937 64 13 20.564 8.428 40.936 23.329 56.5 39"/><path fill="#08819f" d="M245 323c-7.104 8.788-12.781 18.612-19 28-2.978 4.496-7.68 8.379-10 14-6.232.699-11.439 16.36-15 18-1.261.581-5.501-.557-7 0 12.864-23.137 27.379-45.421 44-66z"/><path fill="#347dac" d="M522 318c-13.583 2.801-27.415 3.246-41 6-11.525 2.337-22.713 6.811-34 10 .575-1.612-.425-2.347-2-2 24.077-10.388 50.548-17.673 77-14"/><path fill="#25679a" d="M644 367c22.637 22.793 40.51 52.504 48 84 .311 1.307.739 2.751 1 4-5.223 1.025-12.586 2.405-17.5 4-2.966.963-7.177 2.833-9.5 5-3.231-8.249-34.762-65.938-40.5-65l-1.5 2.5c11.505 12.78 19.153 27.943 26 43.5-5.166-.799-21.389 6.135-24.5 6-4.935-.215-19.047-13.802-26.5-3-21.315-32.125-59.071-52.167-98-48-9.553-33.289-56.463-44.462-84-27l-12-12c3.554-2.937 7.264-6.355 11-9 1.408-.997 3.378-1.905 5-3l1.5 3c2.763-2.794 24.188-9.902 25-11 .184-.249-2.802-3.637-1.5-6 .134-.12.523.339 1-1 11.287-3.189 22.475-7.663 34-10l.5 6c33.894-1.809 70.704 10.403 99 29 3.675 2.415 19.713 17.41 21 17 1.013-.323-.028-2.533 1-3 15.394-6.993 26.845.5 41.5-6"/><path fill="#082f40" d="M720.5 328c1.077-.28 2.763.189 4 0 6.516 3.125 6.016 18.1-1 19-10.139 1.301-9.141-17.406-3-19"/><path fill="#46adc9" d="M251 338c-10.419 11.159-20.61 23.933-30 36-4.519-1.648-2.793-3.48-4-6 4.926-2.726 6.397-11.011 10-16 5.328-7.379 15.395-15.384 22-22z"/><path fill="#409ec5" d="M445 332c1.575-.347 2.575.388 2 2-.477 1.339-.866.88-1 1-3.575 3.212-18.783 9.801-25 14-1.622 1.095-3.592 2.003-5 3l-3-2c11.005-7.692 19.611-12.655 32-18"/><path fill="#1b5185" d="M421 349c6.217-4.199 21.425-10.788 25-14-1.302 2.363 1.684 5.751 1.5 6-.812 1.098-22.237 8.206-25 11z"/><path fill="#2cbede" d="M416 352c-3.736 2.645-7.446 6.063-11 9-29.685 24.531-54.127 59.452-61 98-1.331 7.464-2.066 14.398-2 22l-3 15.5c-1.134-10.848-1.261-21.667 0-32.5 5.216-44.803 37.874-88.749 74-114z"/><path fill="#dcf1fa" d="M227 352c-3.603 4.989-5.074 13.274-10 16-.998-2.082-3.549 3.176-1-3 2.32-5.621 7.022-9.504 10-14z"/><path fill="#93c8d3" d="M666 363c1.542 1.759 2.715 3.99 5 5 .554.687.956.945 1 1 109.735 136.111 6.456 333.353-166 328-159.375-4.947-245.56-182.589-156-314l3 1c-111.007 159.742 52.085 364.084 233.5 295 128.549-48.952 165.378-212.149 74.5-314l2-.5c-2.493-.198-9.212-8.312-6.5-9.5z"/><path fill="#719ea9" d="M797 373c-10.801 23.774-14.839 50.18-18 76-12.853 18.881-12.957 46.282-22 66.5-1.495 3.343-3.45 6.842-7 8.5-.034-.991.029-2.009 0-3-1.552-53.152-4.276-123.473 31-166 5.346 6.021 11.085 11.539 16 18"/><path fill="#1b5185" d="M417 373c-3.531 2.239-14.471 13.45-17 17-5.609 7.874-8.182 23.455-9 24.5-.381.486-8.599 2.252-11.5 4.5-14.256 11.049-19.421 33.319-35.5 40 6.873-38.548 31.315-73.469 61-98z"/><path fill="#2aa0bd" d="M216 365c-2.549 6.176.002.918 1 3 1.207 2.52-.519 4.352 4 6-1.771 2.276-12.34 19.108-13.5 19l-6.5-10c3.561-1.64 8.768-17.301 15-18"/><path fill="url(#b)" d="M501 400c14.185 49.429-37.545 87.753-82 64-26.765-14.301-33.805-48.294-19-74 2.529-3.55 13.469-14.761 17-17 27.537-17.462 74.447-6.289 84 27" style="fill:url(#b)"/>/&gt;<path fill="#627679" d="M670 630c-13.007 13.719-32.883 31.237-49 41-24.889 15.076-63.977 28.066-93 30-3.787-3.736-14.061-1.833-19.5-2-1.828-.056-4.483.881-2.5-2 172.456 5.353 275.735-191.889 166-328 61.7 77.802 69.15 185.953-2 261"/><path fill="#77a6b1" d="M798 451c-5.424 64.888-7.783 139.44 14 201-8.991 6.958-10.754 21.671-19 30-7.383-3.203 5.357-14.68 5-20.5-.07-1.136-5.385-9.937-6-12-7.267-24.378-11.775-48.044-14-73.5-3.655-41.817-4.09-85.429 1-127 3.161-25.82 7.199-52.226 18-76 3.481 4.576 7.392 8.997 11 13.5-6.479 20.904-8.183 42.761-10 64.5"/><path fill="#fafcfd" d="M873 398c-8.733-3.135-40.972-16.039-46-22 14.222 6.871 32.965 13.496 46 22"/><path fill="#639caf" d="m828 382-14 65c-1.467.259-3.816-.387-5 0-1.588-2.505-1.69-2.039-3-5l7-44c.748-2.183.713-4.391 2-7 3.312-6.717 4.919-10.441 13-9"/><path fill="#b8d7e1" d="M877 405c-.127.198-1.936 1.874-2 2 .288-2.909-1.913-2.54-3.5-1-7.071 6.863-12.269 39.028-14.5 49.5-.196.921-2.97.351-3 .5l-39-8-1-1 14-65c13.111 2.338 35.735 17.785 49 23"/><path fill="#82b3c3" d="M197 391c-7.098.542-13.644 2.586-20.5 4-.901.186-5.206 1.531-4.5-1 7.782-2.132 15.716-4.544 23.5-6 1.557.564 1.38 2.883 1.5 3"/><path fill="#25679a" d="M419 464c-.639.076-1.506-.151-2 0-10.037 3.076-10.42 45.763-9 55-5.001.718-10.885 5.793-14 9.5-12.488 14.865-16.837 39.115-15 58 .048.49 4.238 6.826 4 9-.103.943-2.867.053-3 1-1.011 7.171-.426 12.676-5 19.5-17.207-20.667-30.808-45.702-37-72 4.573-.175 9.884-8.734 13-2.5-.304-5.872-4.083-11.346-5-17-1.856-11.444-3.901-32.161-4-43.5-.066-7.602.669-14.536 2-22 16.079-6.681 21.244-28.951 35.5-40 2.901-2.248 11.119-4.014 11.5-4.5.818-1.045 3.391-16.626 9-24.5-14.805 25.706-7.765 59.699 19 74"/><path fill="#417d91" d="m208 420-12 1c-.116-.623.123-1.381 0-2-1.364-6.848-1.671-14.276-6.5-20-6.174.16-38.566 10.726-41.5 8.5-.508-.385-1.074-4.452-2-5.5 8.54-2.656 17.417-5.649 26-8-.706 2.531 3.599 1.186 4.5 1 6.856-1.414 13.402-3.458 20.5-4 6.598 6.43 9.166 20.305 11 29"/><path fill="#cadee5" d="m245 631-16-4c4.542-17.848 10.711-50.066 10-68l-2-75.5c.291 6.653-11.293 1.592-13 4-1.462 2.062 2.595 16.676-2 18.5-.558-33.837-1.984-67.715-11-100.5.259-3.962 7.86-11.278 10-14.5 1.451 2.507 5.145 20.783 6 21.5 2.437 2.044 13.424-1.523 16 2 .945 1.292 7.195 27.231 8 31 12.124 56.767 10.839 129.918-6 185.5"/><path fill="url(#c)" d="M815 391c-1.287 2.609-1.252 4.817-2 7-4.625 13.497-7.275 28.857-9 43-5.216 42.759-4.63 87.576-2 130.5 1.264 1.438 1.877-.327 3-.5 3.333-.513 5.679-2.846 8-5 .325 1.146-.093 2.086 1.5 3 14.826-4.02 24.845-3.804 39.5-10 2.533-1.071 5.475-1.874 8-3 1.094 20.951 5.248 63.949 14 82-5.409-.849-48.565 15.408-46 20.5l47-17.5c.047.101 1.546-.029 1 2-22.6 7.975-46.685 13.702-60 34l4-8.5-6-.5c2.227-7.131.374-4.374-2-11-.601-1.679-1.382-3.254-2-5-21.783-61.56-19.424-136.112-14-201 2.5.263 3.249.074 4-2.5 2.675-9.166 2.694-25.401 5-36 1.387-6.376 3.907-16.876 8-21.5" style="fill:url(#c)"/>/&gt;<path fill="#9fc9d5" d="M806 442c-.045-.102-1.586-.887-2-1 1.725-14.143 4.375-29.503 9-43z"/><path fill="#fafcfd" d="M899 405c2.194 5.477-3.078 8.495-5 13.5-4.612 12.009-7.214 27.671-9 40.5-3.266-1.729-17.452-.99-19-2 1.591-14.794 1.938-36.041 9-50 .064-.126 1.873-1.802 2-2 .106-.164 2.498-.242 3-2.5-2.78-1.055-4.951-3.163-7-4.5 9.704 3.484 16.691 5.09 26 7"/><path fill="#d4e1e6" d="M138 399c-1.918 2.235 1.426 3.555 2 5 2.465 6.206 4.027 14.386 6 21 3.497 11.727 5.574 19.642 8 32 .607 5.968-1.363 4.19-5 5-.493-6.789-10.595-54.599-13-56.5-2.126-1.68-11.13.002-14 1-.84 1.185 12.253 23.488 7 27.5-2.195-9.395-5.176-17.212-9-26-.604-1.387-1.425-2.165-1-4 .155-.113-.416-1.646.5-2 6.729.906 12.795-1.543 18.5-3"/><path fill="#85b4c2" d="M196 419c-9.689 3.904-20.458.807-30.5 2-.625.074-3.254 3.827-4 4-5.102 1.18-10.395-2.346-15.5 0-1.973-6.614-3.535-14.794-6-21 2.085-.138 4.081-1.403 6-2 .926 1.048 1.492 5.115 2 5.5 2.934 2.226 35.326-8.34 41.5-8.5 4.829 5.724 5.136 13.152 6.5 20"/><path fill="#166c9c" d="M666 464c7.341 18.741 11.433 34.118 2 53.5-.872-25.596-7.801-49.326-18-72.5-6.847-15.557-14.495-30.72-26-43.5l1.5-2.5c5.738-.938 37.269 56.751 40.5 65"/><path fill="url(#d)" d="M599 448c13.208 19.906 15.616 35.655 15 59-16.316-7.477-15.602 13.146-15 24 .308 5.554 1.805 12.847 4 18 .123.288-.132.743 0 1-22.919 44.26-87.837 62.622-132 42-47.604-22.228-69.374-78.298-54-128 .494-.151 1.361.076 2 0 44.455 23.753 96.185-14.571 82-64 38.929-4.167 76.685 15.875 98 48m-113.5 24c-22.62 2.288-23.81 36.767-3 41 33.906 6.897 36.993-44.439 3-41" style="fill:url(#d)"/>/&gt;<path fill="#0a3a50" d="M120 408c-6.024 4.102-6.195 14.548-8 21-2.089 7.468-4.55 14.26-6 22-4.743 25.322-5.093 46.351-5 72 0 .112-1.007-.499-1 2 .005 1.958-.182 4.063 0 6 .479 5.089.644 9.431 7.5 11 9.232 2.113 18.029-3.409 25.5-1.5-9.55 4.287-23.437 7.478-31.5-.5-3.433.469-.516 10.853-.5 12 .056 4.008.441 7.079 1 11 .029.204-1.56 1.166-1 4 1.37 6.929 12.091 15.647 16.5 23l16.5-31c.047-.65-.101-1.366 0-2 .541-3.389-1.038-7.262-1-9 .113-5.201-.988-4.206-1-4.5-.018-.465 3.866-6.356 3-8-.276-.524-9.919-5.383-10.5-5.5-7.922-1.591-13.906 3.158-20.5 6.5 6.492-8.838 20.545-11.558 29-3.5l2-.5c.186-2.127-.269-4.406 0-6.5 3.555-27.71-5.427-54.48-3-80 1.036 4.603 1.327 9.347 2 14 5.079 35.099 4.991 78.584 2 114-1.043 12.346-5.786 50.9-15.5 58-.628.459-3.573-.688-4.5.5l3 6.5c-2.004-1.046-4.84-5.466-6-7.5C96.05 601.78 95.807 509.845 99 475c.394-4.293 3.388-12.2 0-14 2.822-9.533 14.164-52.746 20-57-.425 1.835.396 2.613 1 4m12.5 157c-3.983 3.862-10.145 26.404-14 27L102 575.5c2.849 11.809 11.942 81.933 25 37 1.043-3.587 8.722-47.368 5.5-47.5"/><path fill="#f9fbfc" d="M149 462c-4.646 1.035-10.759.415-15-2-.673-4.653-.964-9.397-2-14a6 6 0 0 0 0-1c-.079-.995-1.066-1.109-1-2-.024-.331.04-.673 0-1-.303-2.457-1.409-5.471-2-8 5.253-4.012-7.84-26.315-7-27.5 2.87-.998 11.874-2.68 14-1 2.405 1.901 12.507 49.711 13 56.5"/><path fill="#8bb1bc" d="M875 407c-7.062 13.959-7.409 35.206-9 50-2.49-1.625-3.023-3.818-1-6.5l-4.5-.5c-4.008 10.89-3.495 20.461-4.5 31.5-.616 6.769 1.182 6.988 1 10-1.157 19.189-3 35.429-3 55.5-2.88 1.983-1.944-.671-2-2.5-.508-16.526 1.552-35.8 0-51.5 1.314-11.614-.235-25.781 2-37 .03-.149 2.804.421 3-.5 2.231-10.472 7.429-42.637 14.5-49.5 1.587-1.54 3.788-1.909 3.5 1"/><path fill="#07384c" d="M903 636c6.611-8.544-2.647-1.558-9-11.5-9.409-14.726-13.361-69.249-14-87.5-.186-5.306.091-10.688 0-16 3.459-.946 1.962-11.572 2-16 .144-16.598.709-29.548 3-46 1.786-12.829 4.388-28.491 9-40.5 1.922-5.005 7.194-8.023 5-13.5 7.308 3.859 20.507 54.683 22 64.5 5.227 34.377 2.791 121.826-9 154-2.301 6.278-3.727 9.737-9 12.5m-10-206c-.95 3.185-1.285 6.777-2 10-6.066 27.338-6.309 48.287-6 76 .007.606-.007 1.318 0 2 .022 2.265-2.693 6.902 0 10-.823 3.351-.714 4.813.5 8 18.191-6.31 30.727 14.458 35.5-12 .316-1.75-.173-4.089 0-6 .03-.33-.024-.668 0-1 1.956-27.393-3.809-66.338-14-92-.734-1.847-5.386-13.001-6.5-13-3.832 5.317-5.661 11.838-7.5 18m-8 113c.434 1.625 17.157 11.975 18.5 12 1.169.022 13.641-6.824 14.5-8 1.385-1.896 3.172-9.662 1.5-11-1.977-.273-4.011 3.806-5 4-6.435 1.265-33.051-10.295-29.5 3m14 21c-4.101-1.046-13.263-13.441-14-5-.745 4.768 8.263 8.819 12 13.5 1.665 2.085 6.72 14.491 8.5 14.5 4.902-4.288 6.23-11.101 8.5-17 1.415-3.677 2.855-.018 4-10 .258-2.251 2.096-8.66.5-10-15.93 11.091-18.422 4.928-33-3-3.456 8.441 3.159 6.582 7 10 1.973 1.756 5.021 5.936 6.5 7m-10 30c14.56 73.143 26.756 6.051 28-23.5-5.305 4.946-4.742 15.046-11.5 18.5-3.141.062-7.296-11.136-9.5-14-2.923-3.798-6.347-7.747-11-9.5.059 9.661 2.133 19.121 4 28.5"/><path fill="#51c5e0" d="M120 408c3.824 8.788 6.805 16.605 9 26 .591 2.529 1.697 5.543 2 8-3.717-1.543-9.372-12.074-12.5-13-3.75-1.11-4.26 6.182-6.5 0 1.805-6.452 1.976-16.898 8-21"/><path fill="#2ca7c5" d="m907 425-1.5 4c-7.068-6.129-6.471.93-12.5 1 1.839-6.162 3.668-12.683 7.5-18 1.114-.001 5.766 11.153 6.5 13"/><path fill="#b6d5df" d="M196 419c.123.619-.116 1.377 0 2 2.1 11.245 2.568 22.813 5 34-.32.064-.68-.067-1 0-14.516 3.029-30.744 8.357-45 8 .82-2.297-.719-4.57-1-6-2.426-12.358-4.503-20.273-8-32 5.105-2.346 10.398 1.18 15.5 0 .746-.173 3.375-3.926 4-4 10.042-1.193 20.811 1.904 30.5-2"/><path fill="#7cadbe" d="M208 420c2.329 11.043 2.928 21.812 4 33-3.75.057-7.374 1.276-11 2-2.432-11.187-2.9-22.755-5-34z"/><path fill="url(#e)" d="M907 425c10.191 25.662 15.956 64.607 14 92-10.064-2.559-19.156-8.171-29.5-4l-1.5-9c1.5-18.092-2.886-39.092 3-56.5 7.816-23.115 13.537-9.132 19 5-.372-4.654-4.774-20.985-8.5-22.5-.591-.24-.363 2.092-1 2-10.036-1.453-4.429 2.628-11.5 8 .715-3.223 1.05-6.815 2-10 6.029-.07 5.432-7.129 12.5-1z" style="fill:url(#e)"/>/&gt;<path fill="url(#f)" d="M131 442c.04.327-.024.669 0 1 .014.193-3.047 1.75 1 2 .025.317.03.684 0 1-2.427 25.52 6.555 52.29 3 80-3.908.294-4.822-5.092-8.5-6-9.45-2.333-17.559 3.588-26.5 5-.007-2.499 1-1.888 1-2 3.19-.129 5.294-4.001 6-6.5 3.774-13.357 5.046-71.878 8-77l2-1 4 4 10 21c-1.066-5.695-4.572-29.048-10.5-30.5-8.206-2.01-10.107 14.444-14.5 18 1.45-7.74 3.911-14.532 6-22 2.24 6.182 2.75-1.11 6.5 0 3.128.926 8.783 11.457 12.5 13" style="fill:url(#f)"/>/&gt;<path fill="#d2ecf2" d="M890 504c-.468 5.642 1.221 8.655-5 12-.309-27.713-.066-48.662 6-76 7.071-5.372 1.464-9.453 11.5-8 .637.092.409-2.24 1-2 3.726 1.515 8.128 17.846 8.5 22.5-5.463-14.132-11.184-28.115-19-5-5.886 17.408-1.5 38.408-3 56.5"/><path fill="#e0edf2" d="M101 523c-.093-25.649.257-46.678 5-72 4.393-3.556 6.294-20.01 14.5-18 5.928 1.452 9.434 24.805 10.5 30.5l-10-21-4-4-2 1c-2.954 5.122-4.226 63.643-8 77-.706 2.499-2.81 6.371-6 6.5"/><path fill="#5695a4" d="M806 442c1.31 2.961 1.412 2.495 3 5-.928.303-2.018-.484-3 .5-4.368 4.375-1.054 109.275-1 123.5-1.123.173-1.736 1.938-3 .5-2.63-42.924-3.216-87.741 2-130.5.414.113 1.955.898 2 1"/><path fill="#3a6972" d="M132 445c-4.047-.25-.986-1.807-1-2-.066.891.921 1.005 1 2"/><path fill="#1da5ca" d="M650 445c10.199 23.174 17.128 46.904 18 72.5 9.433-19.382 5.341-34.759-2-53.5 2.323-2.167 6.534-4.037 9.5-5 4.914-1.595 12.277-2.975 17.5-4 4.171 19.963 5.286 42.689 3 63-14.669-4.346-16.707 9.293-2 9-1.017 5.758-1.931 11.507-4 17 .105-5.371-6.098-8.045-9-5.5-1.118.98-7.935 23.669-10 28-5.354 11.229-12.596 24.555-20 34.5-32.095 43.11-78.536 63.563-127.5 78l-52.5-3c-14.249-3.517-30.015-10.15-43-17-20.701-10.92-38.058-25.054-53-43 4.574-6.824 3.989-12.329 5-19.5.133-.947 2.897-.057 3-1 .238-2.174-3.952-8.51-4-9-1.837-18.885 2.512-43.135 15-58 3.115-3.707 8.999-8.782 14-9.5 4.601 29.939 31.905 68.286 63 73 44.163 20.622 109.081 2.26 132-42 .763 1.485 5.251 7.651 6.5 8 18.738 5.241 15.435-40.425 5.5-47 .213-2.729-1.005-3.794-1-4 .616-23.345-1.792-39.094-15-59 7.453-10.802 21.565 2.785 26.5 3 3.111.135 19.334-6.799 24.5-6m-19.5 154c-17.129 16.998-36.147 32.25-57.5 43.5 10.392 3.191 41.89-26.422 44.5-26.5 1.733-.052 7.434 7.99 8 8 .822.014 10.372-9.729 9.5-12.5-.149-.472-7.563-5.008-7-7 .257-.91 6.391-4.332 2.5-5.5"/><path fill="#24566c" d="M809 447c1.184-.387 3.533.259 5 0l1 1c-2.122 10.812-2.451 22.016-3 33-.987 19.733-3.88 67.767 1 85-2.321 2.154-4.667 4.487-8 5-.054-14.225-3.368-119.125 1-123.5.982-.984 2.072-.197 3-.5"/><path fill="#63a1b2" d="M854 456c-2.235 11.219-.686 25.386-2 37-.346-3.496-1.395-7.378-1.5-11l-38.5-1c.549-10.984.878-22.188 3-33z"/><path fill="#105d86" d="M695 569c-3.264 1.248-7.327-3.235-11-5 1.499-3.741 5.934-16.623 6-20 2.069-5.493 2.983-11.242 4-17 .474-2.682 1.722-6.529 2-9 2.286-20.311 1.171-43.037-3-63-.261-1.249-.689-2.693-1-4l11-1.5c10.382 39.517 7.051 81.686-8 119.5"/><path fill="#57808a" d="M779 449c-5.09 41.571-4.655 85.183-1 127-5.772 14.501-13.326 30.226-18 45-3.069-17.539-5.347-35.258-7-53-1.361-14.608-2.504-29.327-3-44 3.55-1.658 5.505-5.157 7-8.5 9.043-20.218 9.147-47.619 22-66.5"/><path fill="#163f52" d="M866 457c-2.961 27.522-4.515 53.228-4 81 .111 5.963-.31 12.055 0 18-2.525 1.126-5.467 1.929-8 3v-12c0-20.071 1.843-36.311 3-55.5.182-3.012-1.616-3.231-1-10 1.005-11.039.492-20.61 4.5-31.5l4.5.5c-2.023 2.682-1.49 4.875 1 6.5"/><path fill="#29667a" d="M212 453c6.265 65.374 6.314 139.36-13.5 202-2.754-.52 4.641-26.131 5.5-32.5 1.974-14.637 1.951-29.827 3-44.5 2.37-33.147 4.163-66.132 3-99.5l-8 .5c-.493-8.001-.674-16.083-2-24 .32-.067.68.064 1 0 3.626-.724 7.25-1.943 11-2"/><path fill="#60a0b2" d="M200 455c1.326 7.917 1.507 15.999 2 24 .269 4.368.784 8.642 1 13l-39 2.5 1 74.5-2-.5c-.418-5.865.573-12.203 0-18-.797-8.056-1.311-18.792-2-28.5-1.37-19.311-1.39-39.364-7-58l1-1c14.256.357 30.484-4.971 45-8"/><path fill="#aacdd6" d="m155 463-1 1c-2.76 1.859-.082 6.437 0 8-2.198.982-2.923 2.064-3 4.5-.934 29.706 4.977 60.564 3 93.5-1.691 10.322-10.09 7.668-18 4 2.991-35.416 3.079-78.901-2-114 4.241 2.415 10.354 3.035 15 2 3.637-.81 5.607.968 5-5 .281 1.43 1.82 3.703 1 6"/><path fill="#c2d9e1" d="M885 459c-2.291 16.452-2.856 29.402-3 46-5.307-.32-2.064 12.255-2 16 .091 5.312-.186 10.694 0 16l-18 1c-.515-27.772 1.039-53.478 4-81 1.548 1.01 15.734.271 19 2"/><path fill="#abd1d8" d="m99 475-5 .5c2.468-4.435 3.572-9.676 5-14.5 3.388 1.8.394 9.707 0 14"/><path fill="#124056" d="m161 522-4 10.5c1.511-20.327-1.948-40.364-3-60.5-.082-1.563-2.76-6.141 0-8 5.61 18.636 5.63 38.689 7 58"/><path fill="#1b5185" d="M342 481c.099 11.339 2.144 32.056 4 43.5.917 5.654 4.696 11.128 5 17-3.116-6.234-8.427 2.325-13 2.5-4.17-17.712-6.266-38.315-5-56.5.461-6.62 1.743-18.911 6-23.5-1.261 10.833-1.134 21.652 0 32.5z"/><path fill="#49a3c3" d="M417 464c-15.374 49.702 6.396 105.772 54 128-31.095-4.714-58.399-43.061-63-73-1.42-9.237-1.037-51.924 9-55"/><path fill="url(#g)" d="M161 522c.689 9.708 1.203 20.444 2 28.5.573 5.797-.418 12.135 0 18l2 .5 37 7c-.028.331.029.669 0 1-1.38 15.644-5.49 53.014-11 66.5-4.832 11.826-5.306 6.681-16 7l9 10c-6.723-4.948-36.473-13.968-40.5-18.5-1.472-1.657 2.072-3.085-.5-4 7.543-14.137 9.992-51.196 11-68 1.977-32.936-3.934-63.794-3-93.5.077-2.436.802-3.518 3-4.5 1.052 20.136 4.511 40.173 3 60.5z" style="fill:url(#g)"/>/&gt;<path fill="#fefefe" d="M485.5 472c33.993-3.439 30.906 47.897-3 41-20.81-4.233-19.62-38.712 3-41"/><path fill="#25576d" d="m207 578-5-1c.029-.331-.028-.669 0-1 2.375-27.869 2.386-56.066 1-84-.216-4.358-.731-8.632-1-13l8-.5c1.163 33.368-.63 66.353-3 99.5"/><path fill="url(#h)" d="M852 493c1.552 15.7-.508 34.974 0 51.5.056 1.829-.88 4.483 2 2.5v12c-14.655 6.196-24.674 5.98-39.5 10-1.593-.914-1.175-1.854-1.5-3-4.88-17.233-1.987-65.267-1-85l38.5 1c.105 3.622 1.154 7.504 1.5 11" style="fill:url(#h)"/>/&gt;<path fill="#9ac5d0" d="M239 559c-.188-4.734-1.514-10.128-1.5-15l-15.5 1c.432-12.88.213-26.107 0-39 4.595-1.824.538-16.438 2-18.5 1.707-2.408 13.291 2.653 13-4z"/><path fill="url(#i)" d="M203 492c1.386 27.934 1.375 56.131-1 84l-37-7-1-74.5z" style="fill:url(#i)"/>/&gt;<path fill="#9ac5d0" d="M750 521c.029.991-.034 2.009 0 3 .496 14.673 1.639 29.392 3 44-3.641.171-.05-2.928-4.5-3-4.824-.078-23.073 20.051-31.5 17 9.729-27.128 15.302-54.986 15-84l16-1.5c1.811 2.906-2.887 21.321 2 24.5"/><path fill="#11728e" d="M921 517c-.024.332.03.67 0 1l-21.5-5-14.5 5c-.007-.682.007-1.394 0-2 6.221-3.345 4.532-6.358 5-12l1.5 9c10.344-4.171 19.436 1.441 29.5 4"/><path fill="#6f9ab2" d="M614 507c-.005.206 1.213 1.271 1 4-.483 6.174-2.41 12.078-4 18l-12 2c-.602-10.854-1.316-31.477 15-24"/><path fill="#32747e" d="M882 505c-.038 4.428 1.459 15.054-2 16-.064-3.745-3.307-16.32 2-16"/><path fill="#c5e8f4" d="M603 550c-.132-.257.123-.712 0-1 4.64-5.897 6.113-12.971 8-20 1.59-5.922 3.517-11.826 4-18 9.935 6.575 13.238 52.241-5.5 47-1.249-.349-5.737-6.515-6.5-8"/><path fill="#9edded" d="M921 518c-.173 1.911.316 4.25 0 6-10.311-6.218-31.855-12.877-36 4-2.693-3.098.022-7.735 0-10l14.5-5z"/><path fill="#3cb6ce" d="M696 518c-.278 2.471-1.526 6.318-2 9-14.707.293-12.669-13.346 2-9"/><path fill="#0ca7ca" d="M921 524c-4.773 26.458-17.309 5.69-35.5 12-1.214-3.187-1.323-4.649-.5-8 4.145-16.877 25.689-10.218 36-4"/><path fill="#6fcfe4" d="M135 526c-.269 2.094.186 4.373 0 6.5l-2 .5c-.187-9.078-13.548-11.429-21.5-9-4.613 1.409-6.685 6.812-11.5 7-.182-1.937.005-4.042 0-6 8.941-1.412 17.05-7.333 26.5-5 3.678.908 4.592 6.294 8.5 6"/><path fill="#0babce" d="M133 533c-8.455-8.058-22.508-5.338-29 3.5 6.594-3.342 12.578-8.091 20.5-6.5.581.117 10.224 4.976 10.5 5.5.866 1.644-3.018 7.535-3 8 .012.294 1.113-.701 1 4.5-1.124.194-3.029.614-4 1-10.631 4.231-13.143 10.594-26 4-.38-.363-.111-1.578-2-1-.016-1.147-2.933-11.531.5-12 8.063 7.978 21.95 4.787 31.5.5-7.471-1.909-16.268 3.613-25.5 1.5-6.856-1.569-7.021-5.911-7.5-11 4.815-.188 6.887-5.591 11.5-7 7.952-2.429 21.313-.078 21.5 9"/><path fill="#87b6ca" d="M611 529c-1.887 7.029-3.36 14.103-8 20-2.195-5.153-3.692-12.446-4-18z"/><path fill="#0aa9cd" d="M918 547c-12.422-.313-21.069 1.112-33-4-3.551-13.295 23.065-1.735 29.5-3 .989-.194 3.023-4.273 5-4 1.672 1.338-.115 9.104-1.5 11"/><path fill="#67aab7" d="M880 537c.639 18.251 4.591 72.774 14 87.5 6.353 9.942 15.611 2.956 9 11.5-6.257 3.279-17.605 4.391-25 7 .546-2.029-.953-1.899-1-2-.266-.573-.45-1.866-1-3-8.752-18.051-12.906-61.049-14-82-.31-5.945.111-12.037 0-18z"/><path fill="#6ed5e9" d="M690 544c-.066 3.377-4.501 16.259-6 20-4.914 12.269-15.943 29.289-24 40-4.02 1.224-7.372 2.605-9-3 7.404-9.945 14.646-23.271 20-34.5 2.065-4.331 8.882-27.02 10-28 2.902-2.545 9.105.129 9 5.5"/><path fill="#12c0e0" d="M918 547c-.859 1.176-13.331 8.022-14.5 8-1.343-.025-18.066-10.375-18.5-12 11.931 5.112 20.578 3.687 33 4"/><path fill="#7daab5" d="M239 559c.711 17.934-5.458 50.152-10 68-1.634 6.421-3.993 13.132-6 19.5-.746 2.368-5.946 10.376-6 11-.349 4.032 7.35 12.267 9 15.5 8.633 16.915 20.197 35.73 33 52l-7 4c-8.344-10.569-45.015-63.407-46-73.5-.265-2.711 9.833-38.249 11-46 3.163-21.002 4.288-43.259 5-64.5l15.5-1c-.014 4.872 1.312 10.266 1.5 15"/><path fill="#079fc1" d="M918 560c-8.015 2.343-11.386 9.48-19 4-1.479-1.064-4.527-5.244-6.5-7-3.841-3.418-10.456-1.559-7-10 14.578 7.928 17.07 14.091 33 3 1.596 1.34-.242 7.749-.5 10"/><path fill="#079bbd" d="M133 548c-.038 1.738 1.541 5.611 1 9-13.82 6.309-14.204 16.809-32 6-.559-3.921-.944-6.992-1-11 1.889-.578 1.62.637 2 1 11.272 10.758 15.972 4.575 26-4 .971-.386 2.876-.806 4-1"/><path fill="#056783" d="M103 553c12.857 6.594 15.369.231 26-4-10.028 8.575-14.728 14.758-26 4"/><path fill="#1ac5e4" d="M899 564c7.614 5.48 10.985-1.657 19-4-1.145 9.982-2.585 6.323-4 10-9.499 3.477-11.598 1.253-19-3.5-.817-.525 2.071-1.551-.5-3.5-.448-.34-7.311-.573-9.5-4 .737-8.441 9.899 3.954 14 5"/><path fill="#21ceea" d="M134 557c-.101.634.047 1.35 0 2-6.041.293-10.38 11.861-15.5 13-6.485 1.442-11.246-5.531-17.5-5-.56-2.834 1.029-3.796 1-4 17.796 10.809 18.18.309 32-6"/><path fill="#cadee5" d="M307 559c4.137 14.973 9.037 25.365 16 39 33.646 65.891 96.697 119.425 172 128-.628 5.287-.013 5.507 3 9-27.101.378-80.329 1.638-101 21-7.174-13.981-34.334-3.423-43-16 3.509-2.787 5.844-12.364.5-15-5.944-.694-6.811.282-10.5 4-5.052 5.092-5.157 7.726-1.5 14-18.074 4.374-36.702-2.06-55 0-4.493.506-8.486 4.982-9 5-1.507.052-17.268-20.164-19.5-23-12.803-16.27-24.367-35.085-33-52 7.658-12.375 14.635-26.071 19-40l2 4.5c1.147-6.157 3.38-11.97 5-18 .223-.832 1.791-.171 2-1 1.459-5.798 1.639-25.744 4-30 .722-1.302 5.387-.936 7.5-2.5 12.718-9.414 26.058-24.456 41.5-27m-54 84c.133 1.547 3.069 10.23 4 11.5 16.976 23.144 46.87-38.198 22-44.5-16.497-4.18-27.193 19.171-26 33"/><path fill="#109bbb" d="m134 559-16.5 31c-4.409-7.353-15.13-16.071-16.5-23 6.254-.531 11.015 6.442 17.5 5 5.12-1.139 9.459-12.707 15.5-13"/><path fill="#109cbc" d="M914 570c-2.27 5.899-3.598 12.712-8.5 17-1.78-.009-6.835-12.415-8.5-14.5-3.737-4.681-12.745-8.732-12-13.5 2.189 3.427 9.052 3.66 9.5 4 2.571 1.949-.317 2.975.5 3.5 7.402 4.753 9.501 6.977 19 3.5"/><path fill="#0f7a9e" d="M695 569c-28.702 72.111-101.86 119.189-179 120v-8c55.363-1.573 111.007-33.136 144-77 8.057-10.711 19.086-27.731 24-40 3.673 1.765 7.736 6.248 11 5"/><path fill="#17738d" d="M132.5 565c3.222.132-4.457 43.913-5.5 47.5-13.058 44.933-22.151-25.191-25-37l16.5 16.5c3.855-.596 10.017-23.138 14-27"/><path fill="#7daab5" d="M753 568c1.653 17.742 3.931 35.461 7 53-4.211 13.31-6.335 29.243-11 43-2.15 1.311-4.539-.585-6.5 0-10.031 2.994-45.978 39.71-58 49-18.169 14.04-45.19 26.514-61 40-1.782 1.521-4.009 3.193-3.5 6-10.581-13.014-39.173-18.782-55-21-4.087-5.16-.003-10.02-1-16 72.345-16.606 128.276-71.06 153-140 8.427 3.051 26.676-17.078 31.5-17 4.45.072.859 3.171 4.5 3"/><path fill="#14a1c0" d="M896 575c-10.712 2.144.037 15.773-7 19-1.867-9.379-3.941-18.839-4-28.5 4.653 1.753 8.077 5.702 11 9.5"/><path fill="#5fa6b3" d="M143 638c-.915 1.715-3.211 3.168-4 5-5.159-1.818-16.195-2.015-20-4l-3-6.5c.927-1.188 3.872-.041 4.5-.5 9.714-7.1 14.457-45.654 15.5-58 7.91 3.668 16.309 6.322 18-4-1.008 16.804-3.457 53.863-11 68"/><path fill="#167591" d="M889 594c7.037-3.227-3.712-16.856 7-19 2.204 2.864 6.359 14.062 9.5 14 6.758-3.454 6.195-13.554 11.5-18.5-1.244 29.551-13.44 96.643-28 23.5"/><path fill="#476f79" d="m793 682-19 34.5c-17.852 19.799-34.695 42.254-55 59.5-21.702 18.433-55.55 38.235-82.5 51-5.29 2.505-17.901 2.918-14.5 10-18.177 6.635-40.863 14.309-60 17 10.152-10.125 28.658-13.704 41.5-20 73.009-35.792 119.603-93.629 145.5-170 4.665-13.757 6.789-29.69 11-43 4.674-14.774 12.228-30.499 18-45 2.225 25.456 6.733 49.122 14 73.5.615 2.063 5.93 10.864 6 12 .357 5.82-12.383 17.297-5 20.5"/><path fill="#49d7f0" d="M630.5 599c3.891 1.168-2.243 4.59-2.5 5.5-.563 1.992 6.851 6.528 7 7 .872 2.771-8.678 12.514-9.5 12.5-.566-.01-6.267-8.052-8-8-2.61.078-34.108 29.691-44.5 26.5 21.353-11.25 40.371-26.502 57.5-43.5"/><path fill="#b9effa" d="M660 604c-32.993 43.864-88.637 75.427-144 77-16.269.462-29.275-1.119-45-5l52.5 3c48.964-14.437 95.405-34.89 127.5-78 1.628 5.605 4.98 4.224 9 3"/><path fill="#018db0" d="M279 610c.709 1.094 1.965 1.897 3 3 7.227 15.369-7.819 55.656-26 33-1.42-1.77-.508-3.362-3-3-1.193-13.829 9.503-37.18 26-33m-6.5 3c-8.905 1.724-21.468 28.676-11 32 13.957 4.432 30.21-35.72 11-32"/><path fill="#07354c" d="M253 643c2.492-.362 1.58 1.23 3 3 9.72 22.436 28.296-1.725 30-15.5.964-7.794 1.092-12.075-4-17.5-1.035-1.103-2.291-1.906-3-3 24.87 6.302-5.024 67.644-22 44.5-.931-1.27-3.867-9.953-4-11.5"/><path fill="#000c15" d="M272.5 613c19.21-3.72 2.957 36.432-11 32-10.468-3.324 2.095-30.276 11-32"/><path fill="#71dae9" d="M256 646c18.181 22.656 33.227-17.631 26-33 5.092 5.425 4.964 9.706 4 17.5-1.704 13.775-20.28 37.936-30 15.5"/><path fill="#9ac5d0" d="M245 631c-.16.529.163 1.479 0 2-4.365 13.929-11.342 27.625-19 40-1.65-3.233-9.349-11.468-9-15.5.054-.624 5.254-8.632 6-11 2.007-6.368 4.366-13.079 6-19.5z"/><path fill="#5b9fb1" d="M621 671c16.117-9.763 35.993-27.281 49-41-10.146 13.894-30.891 35.08-46.5 43-2.998 1.521-3.803 1.88-2.5-2"/><path fill="#1a3d4a" d="M876 638c.55 1.134.734 2.427 1 3l-47 17.5c-2.565-5.092 40.591-21.349 46-20.5"/><path fill="#5f8c97" d="M812 652c.618 1.746 1.399 3.321 2 5-21.28 48.531-53.124 90.423-94 124l-1-5c20.305-17.246 37.148-39.701 55-59.5l19-34.5c8.246-8.329 10.009-23.042 19-30"/><path fill="#9bc8d3" d="M816 668c-5.464 17.498-34.47 57.547-47 72.5C628.626 908.023 386.201 898.993 252 729l7-4c2.232 2.836 17.993 23.052 19.5 23 .514-.018 4.507-4.494 9-5 18.298-2.06 36.926 4.374 55 0-3.657-6.274-3.552-8.908 1.5-14-6.191 8.176 1.338 17.879 10 11 8.666 12.577 35.826 2.019 43 16-2.902 2.718-4.752 7.24-7 10.5l4-1.5c-.26.617-1.66 4.002 0 4-9.183 15.831 5.151 33.615 17.5 44 17.348 14.588 41.754 23.494 63.5 28 10.072 2.087 18.132 4.039 27.5 4l-.5-3c20.683.471 38.283-1.584 58-7 13.526-3.716 29.789-9.435 41-18 1.558 2.279.183 3.599-1.5 5-5.422 4.512-22.647 13.129-29.5 16-25.573 10.713-55.792 12.864-84.5 11-7.217-.469-15.864-5.785-22-2-1.152-1.108 2.258-2.015 1-3-.784-.614-16.196-4.816-19-6-10.631-4.487-20.501-9.449-31-15l-15-14c-1.16 1.565.781 2.879 1.5 4-3.779.637-18.773 9.686-17 13.5 3.553 1.023 22.585 10.303 24.5 9.5.548-.23 1.498-9.694 4.5-11 38.124 31.073 89.718 34.451 137 30 3.959-.373 8.048-.444 12-1 19.137-2.691 41.823-10.365 60-17 37.191-13.575 67.558-30.994 98-56 40.876-33.577 72.72-75.469 94-124 2.374 6.626 4.227 3.869 2 11M391.5 797c-4.089 4.521-36.082 6.314-33.5 15.5.239.851 14.646 8.729 15.5 8.5.478-.128 4.161-5.386 7-7 9.212-5.238 20.582-5.553 11-17"/><path fill="#105d86" d="M471 676c15.725 3.881 28.731 5.462 45 5v8c-22.613.238-47.182-3.243-68.5-11-2.606-.948-21.353-8.98-22-10-1.4-2.207 2.042-6.654 2.5-9 12.985 6.85 28.751 13.483 43 17"/><path fill="#679099" d="M749 664c-25.897 76.371-72.491 134.208-145.5 170-12.842 6.296-31.348 9.875-41.5 20-3.952.556-8.041.627-12 1 .08-4.25 12.71-5.503 16.5-7 23.677-9.349 55.362-27.729 59-55-11.779 21.248-31.523 39.235-55.5 45 6.853-2.871 24.078-11.488 29.5-16 1.683-1.401 3.058-2.721 1.5-5 11.531-8.809 25.809-26.887 22-42 6.622-.341-1.109-13.674-3-16-.509-2.807 1.718-4.479 3.5-6 15.81-13.486 42.831-25.96 61-40 12.022-9.29 47.969-46.006 58-49 1.961-.585 4.35 1.311 6.5 0"/><path fill="#9ac5d0" d="M564 722c.997 5.98-3.087 10.84 1 16-21.787-3.053-44.959-3.308-67-3-3.013-3.493-3.628-3.713-3-9 24.215 2.757 45.192 1.465 69-4"/><path fill="#022c3c" d="M354 740c-8.662 6.879-16.191-2.824-10-11 3.689-3.718 4.556-4.694 10.5-4 5.344 2.636 3.009 12.213-.5 15"/><path fill="#e6f5f8" d="M498 735c22.041-.308 45.213-.053 67 3 15.827 2.218 44.419 7.986 55 21 1.891 2.326 9.622 15.659 3 16-3.258-12.929-23.331-22.503-35-26-30.771-11.072-70.465-13.128-103.5-12-28.389.969-59.965 4.542-83.5 21-3.465 2.253-5.249 2.851-7 7l-4 1.5c2.248-3.26 4.098-7.782 7-10.5 20.671-19.362 73.899-20.622 101-21"/><path fill="#09415e" d="M588 749c-18.583-5.568-38.67-7.654-58-9-35.294-2.458-98.747-1.668-129 18 23.535-16.458 55.111-20.031 83.5-21 33.035-1.128 72.729.928 103.5 12"/><path fill="#0487a8" d="m530 740-62.5 2c-19.69 3.479-62.544 8.113-73.5 27-1.66.002-.26-3.383 0-4 1.751-4.149 3.535-4.747 7-7 30.253-19.668 93.706-20.458 129-18"/><path fill="#055e7c" d="M588 749c11.669 3.497 31.742 13.071 35 26 3.809 15.113-10.469 33.191-22 42-11.211 8.565-27.474 14.284-41 18v-2c21.305-6.094 71.423-29.769 55-58.5-22.281-38.98-177.067-35.741-209.5-9.5-38.462 31.119 44.391 68.953 68.5 74 .604.126 1.388-.117 2 0l-1 2c-21.746-4.506-46.152-13.412-63.5-28-12.349-10.385-26.683-28.169-17.5-44 10.956-18.887 53.81-23.521 73.5-27l62.5-2c19.33 1.346 39.417 3.432 58 9"/><path fill="#0b1013" d="M560 833c-4.762 1.362-17.726 4.332-22.5 5-1.384.194-7.021 1.013-6.5-2 9.87-1.599 26.101-4.717 35.5-9 1.533-.699 3.874-1.865 3.5-4 7.046-2.666 36.914-16.449 22.5-25-6.769-4.016-17.548-1.628-20.5 5.5-2.708 6.54 1.303 11.897-1.5 17.5-.002-13.015-5.058-29.807-22-21-6.593 3.427-1.869 16.569-4 23-1.66-15.828-1.072-28.597-22-25-15.784 2.713-11.594 16.946-11.5 27.5.016 1.806.832 4.483-2 2.5-.281-1.151.212-2.767 0-4-1.362-7.929.41-19.382-8.5-24-5.914-3.065-24.972-3.384-26.5 4.5-.888 4.58 2.73 20.732 3 26.5-.327.055-.706-.086-1 0-6.66 1.958-.97 3.345-2 8-24.109-5.047-106.962-42.881-68.5-74 32.433-26.241 187.219-29.48 209.5 9.5 16.423 28.731-33.695 52.406-55 58.5m-80-66c-.065 2.236-.205 4.797 0 7 .35 3.763-.655 7.877 2.5 11 14.894-1.89 26.121 6.812 28.5-12 .297-2.346.02-5.506 0-8-.019-2.346.464-15.316-.5-16l-29.5 1.5c-.454 5.538-.839 10.939-1 16.5m34 2c-.196 3.065-1.875 9.079-1 11.5 1.902 5.26 19.477 5.048 24.5 3.5 2.614-1.92 1.258-7.128 1.5-10 .224-2.662.177-6.309 0-9-.143-2.174-.592-14.357-1.5-15-.817-.579-19.084-1.405-20-1-1.365.604-3.333 17.377-3.5 20m-62-8c-.362 4.23-.131 9.663 0 14 .057 1.902-1.936 4.983-1 7.5 1.896 5.098 20.831 5.829 25.5 2.5 3.455-2.501.592-6.793.5-9-.147-3.518-.523-8.581-1-12-.598-4.284-.741-8.726-1.5-13-.861-.61-20.125 1.41-21 2-2.5 1.686-1.286 5.494-1.5 8m91 10c-.081 3.571-3.731 9.955-.5 13 1.997 1.882 14.518 2.739 17 2 5.658-1.684 4.485-11.358 4.5-16 .062-19.203-1.212-16.687-19.5-19-2.555 1.174-1.423 16.604-1.5 20m-117-1c.983 10.114 11.045 14.581 20.5 14 4.711-1.885 1.144-14.365.5-19-.404-2.912.287-6.469 0-9.5-8.715 1.202-31.008 1.198-21 14.5m142 4c-.201 4.552-5.516 8.063 2.5 10 8.603 2.079 15.705-2.109 18.5-10 6.768-19.107-5.939-14.815-20-17.5-1.183 5.818-.741 11.643-1 17.5m-139.5 24c-2.32.204-6.925 2.342-8.5 4.5-1.725 6.83 18.724 15.449 23.5 18.5 4.312-11.704-1.581-24.182-15-23m21 0c-3.989 1.31-4.236 21.142-3.5 23.5.591 1.893 24.381 9.414 25.5 8.5.304-11.233 6.203-24.35-7-30-3.371-1.443-11.767-3.062-15-2"/><path fill="#78858a" d="M511 765c-9.114 3.75-21.533 6.317-31 2 .161-5.561.546-10.962 1-16.5l29.5-1.5c.964.684.481 13.654.5 16"/><path fill="#758287" d="m539 765-23 4c-.163-.141-1.37.08-2 0 .167-2.623 2.135-19.396 3.5-20 .916-.405 19.183.421 20 1 .908.643 1.357 12.826 1.5 15"/><path fill="#78858a" d="M476 764c-6.025 2.502-20.727 2.713-24-3 .214-2.506-1-6.314 1.5-8 .875-.59 20.139-2.61 21-2 .759 4.274.902 8.716 1.5 13"/><path fill="#798589" d="M564 770c-3.506 6.193-11.558 3.772-18.5 3-3.031-.337-.349-.914-2.5-2 .077-3.396-1.055-18.826 1.5-20 18.288 2.313 19.562-.203 19.5 19"/><path fill="#7f8b8e" d="M447 765c-1.071 6.575-10.797 5.6-16.5 6-1.197.084-.775 3.951-4.5-1-10.008-13.302 12.285-13.298 21-14.5.287 3.031-.404 6.588 0 9.5"/><path fill="#7a8488" d="M589 774c-8.342-4.72-15.385 4.569-21 0 .259-5.857-.183-11.682 1-17.5 14.061 2.685 26.768-1.607 20 17.5"/><path fill="#9faaaf" d="M476 764c.477 3.419.853 8.482 1 12l-20.5 1-4.5-2c-.131-4.337-.362-9.77 0-14 3.273 5.713 17.975 5.502 24 3"/><path fill="#cbd3d4" d="M426 770c3.725 4.951 3.303 1.084 4.5 1 5.703-.4 15.429.575 16.5-6 .644 4.635 4.211 17.115-.5 19-9.455.581-19.517-3.886-20.5-14"/><path fill="#9da8ad" d="M511 765c.02 2.494.297 5.654 0 8-.685 5.202-25.985 6.254-28.5 5-1.298-.647.891-4.63-2.5-4-.205-2.203-.065-4.764 0-7 9.467 4.317 21.886 1.75 31-2"/><path fill="#8f9ba1" d="M539 765c.177 2.691.224 6.338 0 9-6.713 1.344-18.21-.838-23-5z"/><path fill="#bbc3c7" d="M516 769c4.79 4.162 16.287 6.344 23 5-.242 2.872 1.114 8.08-1.5 10-5.023 1.548-22.598 1.76-24.5-3.5-.875-2.421.804-8.435 1-11.5.63.08 1.837-.141 2 0"/><path fill="#b7c0c3" d="M564 770c-.015 4.642 1.158 14.316-4.5 16-2.482.739-15.003-.118-17-2-3.231-3.045.419-9.429.5-13 2.151 1.086-.531 1.663 2.5 2 6.942.772 14.994 3.193 18.5-3"/><path fill="#c1c8cc" d="M511 773c-2.379 18.812-13.606 10.11-28.5 12-3.155-3.123-2.15-7.237-2.5-11 3.391-.63 1.202 3.353 2.5 4 2.515 1.254 27.815.202 28.5-5"/><path fill="#99a4a7" d="M589 774c-2.795 7.891-9.897 12.079-18.5 10-8.016-1.937-2.701-5.448-2.5-10 5.615 4.569 12.658-4.72 21 0"/><path fill="#c8cfd2" d="M477 776c.092 2.207 2.955 6.499-.5 9-4.669 3.329-23.604 2.598-25.5-2.5-.936-2.517 1.057-5.598 1-7.5l4.5 2z"/><path fill="#537c88" d="M720 781c-30.442 25.006-60.809 42.425-98 56-3.401-7.082 9.21-7.495 14.5-10 26.95-12.765 60.798-32.567 82.5-51z"/><path fill="#3d5e66" d="M550 855c-47.282 4.451-98.876 1.073-137-30-3.12-2.543-9.938-8.785-12-12-.719-1.121-2.66-2.435-1.5-4l15 14c10.499 5.551 20.369 10.513 31 15 2.804 1.184 18.216 5.386 19 6 1.258.985-2.152 1.892-1 3 6.136-3.785 14.783 1.531 22 2 28.708 1.864 58.927-.287 84.5-11 23.977-5.765 43.721-23.752 55.5-45-3.638 27.271-35.323 45.651-59 55-3.79 1.497-16.42 2.75-16.5 7"/><path fill="#cdd4d6" d="M570 823c-19.089 7.222-39.17 8.959-59.5 9-.907-1.216-1.152-2.571-1.5-4 2.832 1.983 2.016-.694 2-2.5-.094-10.554-4.284-24.787 11.5-27.5 20.928-3.597 20.34 9.172 22 25 2.131-6.431-2.593-19.573 4-23 16.942-8.807 21.998 7.985 22 21 2.803-5.603-1.208-10.96 1.5-17.5 2.952-7.128 13.731-9.516 20.5-5.5 14.414 8.551-15.454 22.334-22.5 25"/><path fill="#7daab5" d="M391.5 797c9.582 11.447-1.788 11.762-11 17-2.839 1.614-6.522 6.872-7 7-.854.229-15.261-7.649-15.5-8.5-2.582-9.186 29.411-10.979 33.5-15.5"/><path fill="#c9d1d5" d="M428.5 798c13.419-1.182 19.312 11.296 15 23-4.776-3.051-25.225-11.67-23.5-18.5 1.575-2.158 6.18-4.296 8.5-4.5"/><path fill="#c9d1d3" d="M449.5 798c3.233-1.062 11.629.557 15 2 13.203 5.65 7.304 18.767 7 30-1.119.914-24.909-6.607-25.5-8.5-.736-2.358-.489-22.19 3.5-23.5"/><path fill="#c9d0d2" d="m509 824-3 1.5.5 6.5c-2.446 1.732-24.511-1.835-29.5-1-.27-5.768-3.888-21.92-3-26.5 1.528-7.884 20.586-7.565 26.5-4.5 8.91 4.618 7.138 16.071 8.5 24"/><path fill="#7daab5" d="M401 813c2.062 3.215 8.88 9.457 12 12-3.002 1.306-3.952 10.77-4.5 11-1.915.803-20.947-8.477-24.5-9.5-1.773-3.814 13.221-12.863 17-13.5"/><path fill="#929593" d="M509 824c.212 1.233-.281 2.849 0 4 .348 1.429.593 2.784 1.5 4 20.33-.041 40.411-1.778 59.5-9 .374 2.135-1.967 3.301-3.5 4-9.399 4.283-25.63 7.401-35.5 9-12.673 2.053-25.519 4.293-38.5 3-5.159-.514-17.917-.597-16.5-8 .294-.086.673.055 1 0 4.989-.835 27.054 2.732 29.5 1l-.5-6.5z"/><path fill="#06202c" d="M476 831c-1.417 7.403 11.341 7.486 16.5 8 12.981 1.293 25.827-.947 38.5-3-.521 3.013 5.116 2.194 6.5 2 4.774-.668 17.738-3.638 22.5-5v2c-19.717 5.416-37.317 7.471-58 7-9.557-.218-16.692-1.22-26-3-.612-.117-1.396.126-2 0 1.03-4.655-4.66-6.042 2-8"/><path fill="#26acc0" d="m502 842 .5 3c-9.368.039-17.428-1.913-27.5-4l1-2c9.308 1.78 16.443 2.782 26 3"/></svg>