<svg xmlns="http://www.w3.org/2000/svg" width="1024" height="1024"><defs><linearGradient id="a" x1="335.401" x2="758.83" y1="243.771" y2="324.201" gradientUnits="userSpaceOnUse"><stop offset="20.65%" style="stop-color:#d2e7f0"/><stop offset="91.183%" style="stop-color:#82b1c4"/><stop offset="100%" style="stop-color:#6c8d9d"/></linearGradient></defs><defs><linearGradient id="b" x1="654.632" x2="627.721" y1="443.774" y2="515.918" gradientUnits="userSpaceOnUse"><stop offset="0%" style="stop-color:#114b72"/><stop offset="100%" style="stop-color:#3992b6"/></linearGradient></defs><defs><linearGradient id="c" x1="378.353" x2="345.285" y1="453.673" y2="554.383" gradientUnits="userSpaceOnUse"><stop offset="0%" style="stop-color:#07143c"/><stop offset="100%" style="stop-color:#15416c"/></linearGradient></defs><defs><linearGradient id="d" x1="674.051" x2="656.001" y1="454.153" y2="555.559" gradientUnits="userSpaceOnUse"><stop offset="0%" style="stop-color:#06133b"/><stop offset="100%" style="stop-color:#15416c"/></linearGradient></defs><defs><linearGradient id="e" x1="459.567" x2="576.98" y1="698.697" y2="754.502" gradientUnits="userSpaceOnUse"><stop offset="0%" style="stop-color:#d3cad2"/><stop offset="100%" style="stop-color:#978b9a"/></linearGradient></defs><defs><linearGradient id="f" x1="595.887" x2="430.462" y1="768.675" y2="834.392" gradientUnits="userSpaceOnUse"><stop offset="0%" style="stop-color:#8d8091"/><stop offset="100%" style="stop-color:#d0c7cf"/></linearGradient></defs><path fill="#067491" d="M208 85c-2.781 3.531 6.87.949 4 5-.56-.14-1.382.103-2 0-13.742-2.298-31.495 5.465-33 21.5-.633 6.74 4.149 11.984-1 16.5-.566-.989-2.922-4.268-4-5-4.516-22.944 13.064-40.6 36-38"/><path fill="#07beeb" d="M235 111c-3.981 6.859-3.587 14.738-8 21.5-13.093 20.06-41.552 12.015-51-4.5 5.149-4.516.367-9.76 1-16.5 1.505-16.035 19.258-23.798 33-21.5-4.185 3.44 9.772 4.883 10.5 8 4.019-2.364-7.481-7.746-8.5-8 2.87-4.051-6.781-1.469-4-5 16.78 1.902 21.388 13.375 27 26m-36.5-14c-13.538 4.193 9.615 8.937 13.5 8.5 4.367-8.123-7.862-10.246-13.5-8.5m-14 29c-.146.007-1.621 1.339-2.5 1.5-.006 10.401 27.652 16.603 31 11 .258-.432.176-5.05-.5-5.5-.874-.581-18.047 1.006-21 0-2.319-.79-4.767-7.113-7-7"/><path fill="#3592a9" d="m839 92-3 3c-2.705-1.931-11.219-4.865-14.5-5-2.525-.104-17.144 3.506-18 4-8.95 5.162-13.04 17.184-12.5 27-10.421-2.24.272 9.198-1.5 12-.646 1.021-18.675 8.077-22 10-24.471 14.156-49.894 33.898-66.5 57l-11-10c4.172-4.463 8.511-8.877 13-13 20.584-18.908 45.318-35.738 70.5-48l-1.5-4c3.122-1.731 8.819-2.674 11-5 2.783-2.968 3.882-14.169 7-19.5 9.993-17.087 33.701-20.631 49-8.5"/><path fill="#64d2e9" d="M212 90c1.019.254 12.519 5.636 8.5 8-.728-3.117-14.685-4.56-10.5-8 .618.103 1.44-.14 2 0"/><path fill="#0bb2da" d="M836 95c4.192 2.992 14.115 20.482 4 21 3.022-8.675-4.775-18.51-15-16-7.531-7.942-24.656-.504-20 11-2.045 1.278-1.934-1.796-3.5-1-2.17 1.102-3.076 12.457-2.5 15l-5 5c-2.101-4.353-2.684-3.252-3-9-.54-9.816 3.55-21.838 12.5-27 .856-.494 15.475-4.104 18-4 3.281.135 11.795 3.069 14.5 5"/><path fill="#0290ba" d="M839 92c6.373 5.053 7.759 7.19 10 15-2.267 2.578.712 10.63 0 13.5-1.204 4.856-14.699 20.544-19.5 22.5-13.148 5.357-29.304-.167-35.5-13l5-5c2.057 9.076 8.964.308 13.5-1 4.289-1.236 10.972-2.698 16-4 5.822-1.507 8.897 3.471 11.5-4 10.115-.518.192-18.008-4-21zm-2.5 34c-1.304 1.886-5.86 7.945-8 8-.252.007-1.184-3.134-2-3-1.615.265-6.022 2.726-8 3-2.641.366-13.464-2.04-11.5 3.5 1.291 3.641 16.044 3.34 19.5 2.5 4.82-1.171 19.44-11.248 10-14"/><path fill="#fafdfe" d="M198.5 97c5.638-1.746 17.867.377 13.5 8.5-3.885.437-27.038-4.307-13.5-8.5"/><path fill="#f8fdfe" d="M825 100c-.258.063-2.324 3.589-3.5 4-1.702.595-6.185-.238-9 1-3.062 1.346-4.141 3.9-7.5 6-4.656-11.504 12.469-18.942 20-11"/><path fill="#05c0ed" d="M840 116c-2.603 7.471-5.678 2.493-11.5 4-5.028 1.302-11.711 2.764-16 4-4.536 1.308-11.443 10.076-13.5 1-.576-2.543.33-13.898 2.5-15 1.566-.796 1.455 2.278 3.5 1 3.359-2.1 4.438-4.654 7.5-6 2.815-1.238 7.298-.405 9-1 1.176-.411 3.242-3.937 3.5-4 10.225-2.51 18.022 7.325 15 16"/><path fill="#085169" d="M681 246c-.365-.176-3.647-.509-7-2 5.787.098 4.753-6.081 5-6.5 7.223-12.265 13.733-25.998 22-37.5 16.606-23.102 42.029-42.844 66.5-57 3.325-1.923 21.354-8.979 22-10 1.772-2.802-8.921-14.24 1.5-12 .316 5.748.899 4.647 3 9 6.196 12.833 22.352 18.357 35.5 13 4.801-1.956 18.296-17.644 19.5-22.5.712-2.87-2.267-10.922 0-13.5 8.106 28.248-21.597 50.691-47.5 37-2.58-1.364-9.337-8.884-10-9-1.945-.341-22.667 10.145-26 12-37.651 20.958-70.268 58.288-84.5 99"/><path fill="#0e4d61" d="M374 232c-1.481.547-3.406 1.377-5 2-5.388-12.263-13.708-22.621-22-33-28.076-35.145-64.185-64.342-107-79-.601-.528-3.873-4.553-5-2.5l-3 13c41.578 16.329 79.529 47.452 101 87 4.181 7.701 9.445 17.828 10 26.5-1.916.942-1.292-.357-2 0-11.981-34.391-38.922-67.94-68.5-89-5.292-3.768-36.667-22.312-41-22-1.44.104-11.585 10.411-18 12-17.994 4.457-37.731-4.853-41.5-24 1.078.732 3.434 4.011 4 5 9.448 16.515 37.907 24.56 51 4.5 4.413-6.762 4.019-14.641 8-21.5 1.366 3.073.31 4.645 2.5 7 1.782 1.916 39.611 18.421 47 23 35.133 21.773 68.137 55.743 89.5 91"/><path fill="#35849a" d="M240 122c33.099 29.1 70.83 39.819 103 80 8.215 10.261 15.555 22.022 21 34-4.565 1.884-15.712 7.4-21 10-.555-8.672-5.819-18.799-10-26.5-21.471-39.548-59.422-70.671-101-87l3-13c1.127-2.053 4.399 1.972 5 2.5"/><path fill="#1a5d6e" d="M783 120c-2.181 2.326-7.878 3.269-11 5-32.319 17.917-52.464 29.167-79 56-15.705 15.88-32.319 33.628-40 54.5.75.98 3.461 1.174 4 1.5 3.366 2.037 12.635 5.059 17 7 3.353 1.491 6.635 1.824 7 2 1.748.846 3.383 2.188 5 3 21.166 16.686 47.289 28.865 66.5 48 6.621 6.595 9.238 12.982 15.5 19.5l-3 1.5c-57.055-55.376-128.616-89.67-208-99 6.56-1.646 2.809-3.212 4-8 29.234 3.726 57.533 12.141 85.5 21 32.625-49.388 79.716-93.176 136.5-112"/><path fill="#bce5f1" d="m347 201-4 1c-32.17-40.181-69.901-50.9-103-80 42.815 14.658 78.924 43.855 107 79"/><path fill="#97daec" d="m703 177-10 4c26.536-26.833 46.681-38.083 79-56l1.5 4c-25.182 12.262-49.916 29.092-70.5 48"/><path fill="#034574" d="M184.5 126c2.233-.113 4.681 6.21 7 7 2.953 1.006 20.126-.581 21 0 .676.45.758 5.068.5 5.5-3.348 5.603-31.006-.599-31-11 .879-.161 2.354-1.493 2.5-1.5"/><path fill="#024976" d="M836.5 126c9.44 2.752-5.18 12.829-10 14-3.456.84-18.209 1.141-19.5-2.5-1.964-5.54 8.859-3.134 11.5-3.5 1.978-.274 6.385-2.735 8-3 .816-.134 1.748 3.007 2 3 2.14-.055 6.696-6.114 8-8"/><path fill="#93bac8" d="M703 177c-4.489 4.123-8.828 8.537-13 13-13.135 14.052-24.759 29.547-33 47-.539-.326-3.25-.52-4-1.5 7.681-20.872 24.295-38.62 40-54.5z"/><path fill="#327c90" d="M701 200c-8.267 11.502-14.777 25.235-22 37.5-.247.419.787 6.598-5 6.5-4.365-1.941-13.634-4.963-17-7 8.241-17.453 19.865-32.948 33-47z"/><path fill="#9ec3d3" d="M347 201c8.292 10.379 16.612 20.737 22 33a316 316 0 0 0-5 2c-5.445-11.978-12.785-23.739-21-34z"/><path fill="#3593a9" d="M561 211c-1.191 4.788 2.56 6.354-4 8-60.608-7.123-117.875-.941-175 20l-3-8c60.454-21.411 117.974-28.16 182-20"/><path fill="url(#a)" d="M557 219c79.384 9.33 150.945 43.624 208 99 7.228 7.015 13.747 14.993 21 22l.5 2c-29.806-.853-59.703-2.464-89.5-3-136.605-2.458-273.361-1.248-410-2 3.028-10.366 14.119-13.681 23.5-14l-8.5-3.5c44.149-40.093 104.137-69.824 162.5-82.5 61.792-13.421 84.201 1.698 139 3 1.449.034 4.687.804 4.5-1.5-66.402-22.633-144.285-20.347-209.5 5.5-44.096 17.477-82.055 47.195-116.5 79-4.835-5.822-15.885-1.864-23-3 36.107-36.542 74.419-63.191 123-81 57.125-20.941 114.392-27.123 175-20m-34 87c2.612-9.668-3.704-18.527-14-18-3.486.178-9.291 3.47-11 6.5-10.434 18.498 19.71 31.079 25 11.5m187.5-16c7.093 7.849 18.912 14.372 28.5 19.5z" style="fill:url(#a)"/>/&gt;<path fill="#fcfdfe" d="M287 337c-5.986-.033-12.015.065-18 0 2.642-5.617 8.553-9.894 13-14 34.445-31.805 72.404-61.523 116.5-79 65.215-25.847 143.098-28.133 209.5-5.5.187 2.304-3.051 1.534-4.5 1.5-54.799-1.302-77.208-16.421-139-3-58.363 12.676-118.351 42.407-162.5 82.5l8.5 3.5c-9.381.319-20.472 3.634-23.5 14"/><path fill="#185a6c" d="M382 239c-48.581 17.809-86.893 44.458-123 81-5.515 5.581-11.722 10.638-17 16.5.818 1.074 23.406.461 27 .5 5.985.065 12.014-.033 18 0 136.639.752 273.395-.458 410 2l-6 4c-46.619-1.253-93.304-.481-140-1-91.656-1.018-183.384-3.522-275 0-4.676.18-9.306.736-14 1-8.797.496-23.733-3.315-30 3l-20 26c-12.974 17.14-27.558 44.14-36 64-29.292 68.909-29.184 139.878-8 211-2.041.232-3.616-5.151-4-6.5-7.448-26.17-12.682-53.017-12-80l-7 .5c-.077-2.238-.986-4.264-1-5-.235-12.451.806-27.013 2-39.5.71-7.424 6.258-25.698 6-31-.083-1.701-.408-1.677-2-1.5v-1c2.595-1.675 1.678-1.142 3-4 1.041-2.251 1.882-6.815 3-10 2.36-6.721 3.368-14.3 6-21 33.533-85.345 96.476-160.423 179-202 .708-.357.084.942 2 0 5.288-2.6 16.435-8.116 21-10a316 316 0 0 1 5-2c1.594-.623 3.519-1.453 5-2 .946-.349 2.854-.24 5-1z"/><path fill="#164b59" d="m767 308 12 12c29.54 31.21 49.847 63.169 69 101.5 2.622 5.247 7.334 21.869 10 25 5.931 6.965 36.822 13.838 40 21 2.952 30.741 4.953 61.573 4 92.5-5.092 5.691-2.166 22.728-2 31-.404 2.181.283 5.159 0 7.5-2.071 5.784-24.944 10.388-29 16-3.513 4.861-6.547 27.413-9 35-33.04 102.201-98.902 184.493-197 230.5-102.938 48.277-221.29 45.556-322-7-92.011-48.016-152.456-127.546-184-225.5-2.372-7.365-4.886-28.023-8-33-3.446-5.508-25.405-8.876-30-16-.316-2.997.445-6.647 0-9.5 3.197-8.169-1.496-17.129 1-26 4.25 4.811 4.033-.331 8 4-10.494-3.541-8.866 10.211 1 9 .002.333-.002.667 0 1-8.287 3.354-9.645 12.143-4 19 2.585 3.141 21.378 11.215 23 8.5-3.027-14.234-4.501-28.958-5-43.5l7-.5c-.682 26.983 4.552 53.83 12 80 .384 1.349 1.959 6.732 4 6.5 4.429 14.87 8.848 26.804 15 41 44.33 102.292 129.635 177.026 238 205 81.053 20.924 184.502 13.44 257-31 136.484-70.748 221.242-242.513 178-393.5-4.926-17.199-36.397-90.651-49-99.5 6.519-2.664-3.329-9.746-5-13-3.578-6.965-3.237-18.446-16-16-7.253-7.007-13.772-14.985-21-22l3-1.5c-6.262-6.518-8.879-12.905-15.5-19.5-19.211-19.135-45.334-31.314-66.5-48 29.41 14.76 57.314 36.345 81 59m99 161c.781 2.602.74 5.183 2 8 1.154 2.579-.672 3.452 3.5 6 4.313 2.634 23.332 6.682 25.5.5-1.323-2.476-3.184-11.079-4-12.5-.691-1.204-.962-.94-1-1-4.821-7.646-21.891-8.832-29.5-15-2.054 1.338 2.889 11.965 3.5 14m32 68c.316-4.444.095-9.504 0-14-.248-11.682-2.761-23.743-3-35.5-1.166-1.001-3.928 3.244-4 3.5l-21-5.5 7 71c8.939-.661 14.755.654 23.5 2.5.339-7.333 2.516-16.535-2.5-22m-10 33c.118 17.637 19.337-4.352 2-3 5.058-3.957 4.896-.427 6.5-1 11.531-4.117-17.074-7.528-19.5-5.5l-5 43c.85 2.924 29.542-5.618 17-10 2.892-7.856-3.58-15.716-1-23.5"/><path fill="#196678" d="M509 288c-7.029 11.748 1.025 22.038 14 18-5.29 19.579-35.434 6.998-25-11.5 1.709-3.03 7.514-6.322 11-6.5"/><path fill="#171427" d="M523 306c-12.975 4.038-21.029-6.252-14-18 10.296-.527 16.612 8.332 14 18"/><path fill="#d8e8ef" d="m710.5 290 28.5 19.5c-9.588-5.128-21.407-11.651-28.5-19.5"/><path fill="#000c1b" d="m779 320-12-12c4.167 3.985 8.032 7.808 12 12"/><path fill="#bbd2de" d="M282 323c-4.447 4.106-10.358 8.383-13 14-3.594-.039-26.182.574-27-.5 5.278-5.862 11.485-10.919 17-16.5 7.115 1.136 18.165-2.822 23 3"/><path fill="#083446" d="M786 340c12.763-2.446 12.422 9.035 16 16-7.596-2.787-15.181-1.598-23-2-2.225-5.087 19.698-1.642 11.5-7-3.276-2.141-29.291-.715-35.5-1-21.341-.979-42.603-2.425-64-3l6-4c29.797.536 59.694 2.147 89.5 3z"/><path fill="#488a9d" d="M551 342c-2.185 9.706 9.401 1.507 11 7-95.882-.447-192.18-.297-288-2l2-5c91.616-3.522 183.344-1.018 275 0"/><path fill="#37899d" d="M262 343c-.1 1.147-1.075 1.596-2 2-6.572 2.87-15.44 2.396-22.5 3-1.597.137-6.005.971-5.5-2 6.267-6.315 21.203-2.504 30-3"/><path fill="#93bbc9" d="m276 342-2 5c-1.972-.035-16.308 3.982-14-2 .925-.404 1.9-.853 2-2 4.694-.264 9.324-.82 14-1"/><path fill="#316e7f" d="M691 343c21.397.575 42.659 2.021 64 3 2.108 4.429-6.258 5.007-8.5 5-59-.181-122.917-1.713-184.5-2-1.599-5.493-13.185 2.706-11-7 46.696.519 93.381-.253 140 1"/><path fill="#104253" d="M260 345c-2.308 5.982 12.028 1.965 14 2 95.82 1.703 192.118 1.553 288 2 61.583.287 125.5 1.819 184.5 2 2.242.007 10.608-.571 8.5-5 6.209.285 32.224-1.141 35.5 1 8.198 5.358-13.725 1.913-11.5 7-9.137-.47-18.024.208-27 0-23.66-.548-47.296-1.789-71-2-128.478-1.144-257.582-3.401-386-1-8.233.154-17.027-1.237-25-1-5.417.161-10.679.717-16 1-13.177.701-19.434-1.839-30 7-4.329 3.621-8.585 9.489-12 14l20-26c-.505 2.971 3.903 2.137 5.5 2 7.06-.604 15.928-.13 22.5-3"/><path fill="#fdfdfe" d="M270 350c.49 3.8-2.829 4.622-5 7-32.745 35.865-50.068 82.957-64 129-5.251 17.355-8.261 35.289-14 52.5l3 1.5c-5.317 23.166-7.621 44.126-8.5 68-9.8-57.996-3.822-118.365 17.5-173 15.429-25.21 27.288-53.469 47-76 1.862-2.128 6.646-4.792 8-8 5.321-.283 10.583-.839 16-1"/><path fill="#a9bfca" d="m295 351-5 6h-25c2.171-2.378 5.49-3.2 5-7 7.973-.237 16.767 1.154 25 1"/><path fill="#8ca4af" d="M681 352c2.229 9.982-9.921 1.244-13 7-11.648-.135-23.35.056-35 0-114.38-.551-228.633-2.017-343-2l5-6c128.418-2.401 257.522-.144 386 1"/><path fill="#a3c2d0" d="M254 351c-1.354 3.208-6.138 5.872-8 8l-22-1c10.566-8.839 16.823-6.299 30-7"/><path fill="#527282" d="M752 354c.339 4.254 8.711 6.88 4 10-30.38-2.731-57.375-4.646-88-5 3.079-5.756 15.229 2.982 13-7 23.704.211 47.34 1.452 71 2"/><path fill="#0f4f64" d="M779 354c7.819.402 15.404-.787 23 2 1.671 3.254 11.519 10.336 5 13-.102-.072-.636-1.71-1.5-2-14.729-1.488-29.793-.663-44.5-2-1.714-.156-2.89-.81-5-1 4.711-3.12-3.661-5.746-4-10 8.976.208 17.863-.47 27 0"/><path fill="#c6dce7" d="m633 359 2 10c-28.124 5.55-56.231 19.048-74 42-15.435 14.511-25.88 36.82-31 57-11.723 46.209-3.837 82.931 25 120-21.547 19.984-76.023 51.772-105.5 44-.734-.193-5.089-2.346-4.5-4 45.722-32.299 62.484-91.604 54-145.5-2.011-12.772-7.539-31.623-16-41.5-39.349-80.357-153.791-103.93-218-39-13.665 10.409-27.651 34.075-34 50-3.527 8.846-6.477 17.545-8 27-4.869-5.742 7.731-15.282-3.5-19-.789.203-4.755 10.454-5.5 12l-13 14c13.932-46.043 31.255-93.135 64-129h25c114.367-.017 228.62 1.449 343 2"/><path fill="#c5dce7" d="M246 359c-19.712 22.531-31.571 50.79-47 76-2.04 3.333-3.281 6.811-5.5 10l-17.5-9c8.442-19.86 23.026-46.86 36-64 3.415-4.511 7.671-10.379 12-14z"/><path fill="#96bacb" d="M668 359c30.625.354 57.62 2.269 88 5 2.11.19 3.286.844 5 1 1.413 4.549 19.502 30.686 19 32.5-.426 1.538-3.07-1.183-4.5-.5L763 408c-33.813-36.967-79.401-48.59-128-39l-2-10c11.65.056 23.352-.135 35 0"/><path fill="#114c60" d="M483 441c65.843 134.461-102.038 259.091-215 164-37.462-31.536-52.72-78.062-45-126 1.523-9.455 4.473-18.154 8-27 1.73-.049.523 2.964 1.5 3 .269.01.36-1.124 1.5-2-6.598 22.604-12.839 46.577-7 70-5.715 35.01 49.945 88.31 80.5 100C477.194 687.92 565.652 443.689 412 380c-33.747-13.988-67.645-15.078-102-2-11.4 4.339-24.542 11.278-34 19-3.665-.072-8.362 2.991-11 5 64.209-64.93 178.651-41.357 218 39"/><path fill="#135265" d="M763 408c3.221 3.521 7.209 7.5 9 12-1.975-1.165-4.618-3.042-4 0-15.111-19.808-32.38-31.322-55-40-30.222-11.594-52.147-14.082-84.5-6-23.874 5.964-36.04 16.814-55 30-1.48 1.029-1.511-3.017-3-2-2.404 1.642-6.951 6.603-9.5 9 17.769-22.952 45.876-36.45 74-42 48.599-9.59 94.187 2.033 128 39"/><path fill="#6292a5" d="M807 369c12.603 8.849 44.074 82.301 49 99.5 43.242 150.987-41.516 322.752-178 393.5 45.751-28.044 97.404-80.388 123-127.5 14.599-26.872 27.561-60.603 33-90.5 3.92-12.769 6.974-25.76 11-38.5L811 576c13.505-37.206 8.044-96.123-13-130-.374-.603.745-2.554-2-2-4.328-5.115-9.188-9.392-14-14-3.304-3.164-5.942-7.607-10-10-1.791-4.5-5.779-8.479-9-12l12.5-11c1.43-.683 4.074 2.038 4.5.5.502-1.814-17.587-27.951-19-32.5 14.707 1.337 29.771.512 44.5 2 .864.29 1.398 1.928 1.5 2"/><path fill="#4da3b9" d="m412 380-5 15c-83.193-36.972-173.557 28.217-166 118l-10-1c3.612-36.26 3.513-61.506 28-91.5 17.066-20.904 40.886-33.824 64.5-43.5l-13.5 1c34.355-13.078 68.253-11.988 102 2"/><path fill="#4396ab" d="m713 380-4 12c-118.321-45.97-223.194 104.509-129 194l-9 11c-20.153-18.142-31.95-37.453-38-64 6.456-1.58 1.263-11.107 1-17.5-.328-7.982-1.225-20.506-1-26.5 2.153-2.774 2.54-4.06 2.5-9-1.662-.376-2.456 7.825-2.5 9-1.266 1.631-.984 2.377-3 1 .883-8.928 3.178-18.204 5-27 .043-.209 3.603-1.461 1.5-4-2.122 1.033-1.102 3.176-1.5 4-1.766 3.66-2.538 7.471-4.5 11l-.5-6c5.12-20.18 15.565-42.489 31-57 2.549-2.397 7.096-7.358 9.5-9 1.489-1.017 1.52 3.029 3 2 18.96-13.186 31.126-24.036 55-30 32.353-8.082 54.278-5.594 84.5 6"/><path fill="#7cd9ef" d="M231 512c-.768 7.713-3.087 5.404-4 11-5.839-23.423.402-47.396 7-70 2.945-2.262 1.974-3.417 3-5 11.699-18.041 21.817-36.971 39-51 9.458-7.722 22.6-14.661 34-19l13.5-1c-23.614 9.676-47.434 22.596-64.5 43.5-24.487 29.994-24.388 55.24-28 91.5"/><path fill="#246477" d="M768 420c56.41 73.945 22.235 186.695-70 209-45.463 10.994-92.459-.904-127-32l9-11c52.73 50.097 144.55 41.793 184-20.5 37.313-58.919 10.984-147.864-55-173.5l4-12c22.62 8.678 39.889 20.192 55 40"/><path fill="#347d92" d="M227 523c.913-5.596 3.232-3.287 4-11l10 1c5.465 64.927 67.925 112.38 132 105 15.576.8 43.764-11.916 56.5-21 55.188-39.36 62.448-117.438 20.5-169-12.046-14.807-25.48-25.214-43-33l5-15c153.652 63.689 65.194 307.92-104.5 243-30.555-11.69-86.215-64.99-80.5-100"/><path fill="#105e75" d="M407 395c17.52 7.786 30.954 18.193 43 33l-7-1c-21.192-23.976-53.602-39.322-86-39-66.269.659-118.127 63.167-112 128 1.285 13.599 6.571 26.246 13 38 21.938 40.11 63.007 62.567 109 60-3.257 3.102 3.707 3.882 6 4-64.075 7.38-126.535-40.073-132-105-7.557-89.783 82.807-154.972 166-118"/><path fill="#053045" d="M709 392c65.984 25.636 92.313 114.581 55 173.5-39.45 62.293-131.27 70.597-184 20.5-94.194-89.491 10.679-239.97 129-194m-96 10c-60.418 21.58-80.644 107.65-47 160 59.474 92.543 208.961 55.613 210-57 .782-84.788-86.897-143.437-163-103"/><path fill="#e4f6fb" d="M357 388c2.586 13.281 28.669 3.221 31.5 15-1.069.553-15.482-4.768-16.5 0h-1c.466-3.063-3.062-2.689-4 0-.536 1.536 1.45 2.364 1 4-65.39-4.192-111.956 50.171-103 114-2.841.351-5.326-.241-8-1-4.02-1.141-7.616-3.921-12-4-6.127-64.833 45.731-127.341 112-128"/><path fill="#27b8d8" d="M443 427c13.759 15.567 23.457 34.331 27 55-2.409.653-3.098-.825-4-2.5-5.207-9.671-8.347-21.057-16-29.5.995-4.659-6.793-13.089-10-16.5-17.528-18.64-42.327-30.5-68-30.5 1.018-4.768 15.431.553 16.5 0-2.831-11.779-28.914-1.719-31.5-15 32.398-.322 64.808 15.024 86 39"/><path fill="#27bddb" d="M776 505c-5.933-.795-3.755-15.746-5-21.5-10.929-50.507-52.068-84.799-103-87.5-16.768-.889-37.804-.142-55 6 76.103-40.437 163.782 18.212 163 103"/><path fill="#aee0f0" d="M668 396c1.426 6.265-.018 2.446-4 5-63.453-1.849-114.639 62.222-101.5 124l5.5-50.5c8.298-16.961 18.388-34.612 33.5-46.5 19.763-15.547 45.207-20.418 69.5-24 .846.827 3.301 3.806 4 5-35.861-3.195-69.801 13.783-90 43-15.377 22.242-21.317 47.294-16 74.5.379 1.939 2.794 11.602 6 10.5-.253.169-1.693 1.771-2 2-1.343 1.001-6.842 4.115-7 4.5-.851 2.079-.508 15.372 0 18.5-33.644-52.35-13.418-138.42 47-160 17.196-6.142 38.232-6.889 55-6"/><path fill="#52d7f1" d="M776 505c-1.039 112.613-150.526 149.543-210 57-.508-3.128-.851-16.421 0-18.5.158-.385 5.657-3.499 7-4.5 7.391 19.559 22.644 37.642 41 48 .865 4.292-4.325 8.536-.5 12 .833.754 18.715 7.39 21 8 33.247 8.879 70.877 2.52 98-19 2.921-2.318 22.579-22.82 22.5-24.5-.039-.819-9.079-5.263-8-8.5 5.334-8.883 15.091-35.168 13-45 4.054-52.882-31.885-96.268-85-101-.699-1.194-3.154-4.173-4-5-.064-.063 2.019-.465 1-1.5-1.885-1.914-5.474-1.426-8-1.5 3.982-2.554 5.426 1.265 4-5 50.932 2.701 92.071 36.993 103 87.5 1.245 5.754-.933 20.705 5 21.5"/><path fill="#3795aa" d="M276 397c-17.183 14.029-27.301 32.959-39 51-2.313.761-2.446 3.102-3 5-1.14.876-1.231 2.01-1.5 2-.977-.036.23-3.049-1.5-3 6.349-15.925 20.335-39.591 34-50 2.638-2.009 7.335-5.072 11-5"/><path fill="#059fd1" d="M371 403h-4c.938-2.689 4.466-3.063 4 0"/><path fill="#1a94be" d="M664 401c2.526.074 6.115-.414 8 1.5 1.019 1.035-1.064 1.437-1 1.5-24.293 3.582-49.737 8.453-69.5 24-15.112 11.888-25.202 29.539-33.5 46.5l-5.5 50.5c-13.139-61.778 38.047-125.849 101.5-124"/><path fill="#10cdf1" d="M371 403h1c25.673 0 50.472 11.86 68 30.5 3.207 3.411 10.995 11.841 10 16.5-3.707-4.09-11.791-7.541-16-11-22.598-18.571-33.03-28.06-64-31-.971-.092-1.053-.939-2-1 .45-1.636-1.536-2.464-1-4z"/><path fill="#a2cde0" d="M368 407c.947.061 1.029.908 2 1 3.168 11.24 5.999 21.145 6 33 0 3.32-.658 5.884-1 9-2.428-1.597.144-8.839-1.5-10-6.919-4.885-50.164 3.734-56.5 14-20.364-19.971-42.607 24.458-18 30-4.358 12.369-4.902 24.212-2 37-4.867.865-10.042 1.932-15 2-5.764.079-11.237-1.333-17-1-.051-.325.046-.673 0-1-8.956-63.829 37.61-118.192 103-114"/><path fill="#0577a1" d="M434 439c15.022 19.959 24.961 44.639 22 70-.07-.365-2.194-6.789-2.5-7-.517-.355-10.7-.691-12.5-1-.09-5.944-.501-12.303-4-17-4.554-6.114-9.044-3.171-16-1-6.1-20.931-24.003-36.714-45-42-.001-11.855-2.832-21.76-6-33 30.97 2.94 41.402 12.429 64 31"/><path fill="#077ba5" d="M675 409c53.115 4.732 89.054 48.118 85 101-2.132-10.022-13.261-4.043-15-6.5-.521-.736-.328-14.797-1-18-4.028-19.208-15.435-42.091-35-49 13.776 10.544 23.531 23.855 30 40-5.676-3.127-9.876 1.327-16 .5-.735-1.588-1.599-3.979-3-5-6.955-13.99-24.805-27.915-40-31 2.684-17.791-5.656-17.01-20.5-16-15.947 1.085-43.567 11.362-51.5 26-6.218 1.102-5.318 3.325-9 5-6.447 2.933-6.955-3.291-14-4 20.199-29.217 54.139-46.195 90-43"/><path fill="#083447" d="M772 420c4.058 2.393 6.696 6.836 10 10l11 27.5c23.643 66.907-11.828 148.151-79.5 171.5-2.736.944-17.737 7.43-15.5 0 92.235-22.305 126.41-135.055 70-209-.618-3.042 2.025-1.165 4 0"/><path fill="#619ebe" d="M680 441c-.933-.189-2.046.144-3 0-21.363-3.232-39.983.171-58 12-2.815-2.205-7.551-2.611-11-2 7.933-14.638 35.553-24.915 51.5-26 14.844-1.01 23.184-1.791 20.5 16"/><path fill="#06354d" d="M450 428c41.948 51.562 34.688 129.64-20.5 169-12.736 9.084-40.924 21.8-56.5 21-2.293-.118-9.257-.898-6-4 68.164-3.805 114.461-65.149 103-132-3.543-20.669-13.241-39.433-27-55z"/><path fill="#1e4c5f" d="M796 444c.422.499.775 2.102 2 2 21.044 33.877 26.505 92.794 13 130-4.919 13.552-11.059 19.615-21 30-41.769 43.638-95.006 55.531-153 40-37.555-10.058-58.441-27.716-82-58-28.837-37.069-36.723-73.791-25-120l.5 6c1.962-3.529 2.734-7.34 4.5-11-1.822 8.796-4.117 18.072-5 27-1.682 17.003-.752 26.536 3 43 6.05 26.547 17.847 45.858 38 64 34.541 31.096 81.537 42.994 127 32-2.237 7.43 12.764.944 15.5 0 67.672-23.349 103.143-104.593 79.5-171.5L782 430c4.812 4.608 9.672 8.885 14 14"/><path fill="#95bacb" d="M199 435c-21.322 54.635-27.3 115.004-17.5 173 .879-23.874 3.183-44.834 8.5-68 5.358-23.345 13.622-46.463 24-68 .745-1.546 4.711-11.797 5.5-12 11.231 3.718-1.369 13.258 3.5 19-7.72 47.938 7.538 94.464 45 126-1.999 2.291 1.086 5.487 2.5 7 42.797 45.787 123.89 51.752 174.5 16-.589 1.654 3.766 3.807 4.5 4 29.477 7.772 83.953-24.016 105.5-44 23.559 30.284 44.445 47.942 82 58-5.683 23.871-40.514 27.128-51 48-38.302-24.736-51.844 9.71-79.5 7-25.276-2.477-35.853-29.277-70-7-24.273 15.835-28.625 35.385-61.5 50l9-5.5c.249-10.675-87.238-13.688-97.5-14.5-21.281-1.683-47.067-7.674-68-6-2.622.21-8.511 4.061-9 4-3.373-.419-18.248-28.47-21.5-32.5-1.467-1.818-2.577-3.403-5-1.5-6.152-14.196-10.571-26.13-15-41-21.184-71.122-21.292-142.091 8-211l17.5 9c2.219-3.189 3.46-6.667 5.5-10"/><path fill="#1cb9dd" d="M760 510c2.091 9.832-7.666 36.117-13 45-27.057 45.061-88.408 57.163-133 32-18.356-10.358-33.609-28.441-41-48 .307-.229 1.747-1.831 2-2 3.521-2.354 9.124-5.208 13-7 4.062-1.878 9.629-3.16 14-5 14.855 48.459 82.741 56.65 113 18 15.296-19.538 18.573-43.163 8-66 6.124.827 10.324-3.627 16-.5-6.469-16.145-16.224-29.456-30-40 19.565 6.909 30.972 29.792 35 49 .672 3.203.479 17.264 1 18 1.739 2.457 12.868-3.522 15 6.5"/><path fill="#50dbf4" d="M450 450c7.653 8.443 10.793 19.829 16 29.5.902 1.675 1.591 3.153 4 2.5 11.461 66.851-34.836 128.195-103 132-45.993 2.567-87.062-19.89-109-60 .745-2.877 1.218-5.971 1-9l9-8c4.538 13.701 14.529 27.275 25 37 2.539 2.358 5.198 4.977 8 7-10.576 8.948-.252 13.428 8.5 18 51.049 26.67 120.013 6.895 146.5-44.5l-11-4.5c.138-.26-.135-.735 0-1 4.85-9.538 13.029-29.498 11-40 2.961-25.361-6.978-50.041-22-70 4.209 3.459 12.293 6.91 16 11"/><path fill="#8bb3c8" d="M375 450c-4.921 44.826-36.596 62.612-77 72-.018-.068-.687.381-1-1-2.902-12.788-2.358-24.631 2-37 17.22 3.878 29.737-18.489 18-30 6.336-10.266 49.581-18.885 56.5-14 1.644 1.161-.928 8.403 1.5 10"/><path fill="url(#b)" d="M677 441c4.333 3.999 2.468 20.456 1 26.5-8.68 35.735-47.845 45.652-76 57.5-4.27-13.928-4.393-29.384 1-43 15.468 4.561 27.026-20.36 16-29 18.017-11.829 36.637-15.232 58-12" style="fill:url(#b)"/>/&gt;<path fill="url(#c)" d="M421 483c2.808 9.634 4.332 20.86 3 31-8.49 64.623-108.475 73.7-126 8 40.404-9.388 72.079-27.174 77-72 .342-3.116 1-5.68 1-9 20.997 5.286 38.9 21.069 45 42m-48 53c.041.914-1.571 3.634-1 6.5 1.207 6.057 10.199 11.112 16 11.5 5.339.357 20.208-6.584 21-11.5.085-.528-1.755-7.543-2-10.5-.203-2.441 1.591-4.135 0-8.5-3.219-8.833-14.711-11.232-23-9.5-11.9 2.486-11.392 13.292-11 22" style="fill:url(#c)"/>/&gt;<path fill="#5a7c8d" d="M445 628c-50.61 35.752-131.703 29.787-174.5-16-1.414-1.513-4.499-4.709-2.5-7 112.962 95.091 280.843-29.539 215-164 8.461 9.877 13.989 28.728 16 41.5 8.484 53.896-8.278 113.201-54 145.5"/><path fill="url(#d)" d="M680 441c15.195 3.085 33.045 17.01 40 31 11.425 22.982 8.392 49.745-5 71-30.259 38.65-98.145 30.459-113-18 28.155-11.848 67.32-21.765 76-57.5 1.468-6.044 3.333-22.501-1-26.5.954.144 2.067-.189 3 0m6 75c-9.318 3.871-12.128 17.463-4 24-13.152.624 3.057 13.738 9.5 14 .669.027 11.445-1.751 12-2 .613-.274 9.341-8.847 9.5-9.5.652-2.684-2.013-6.138-2-7 .055-3.797 1.948-8.121 1-12-2.099-8.586-19.223-18.746-26-7.5" style="fill:url(#d)"/>/&gt;<path fill="#82acbe" d="M798 446c-1.225.102-1.578-1.501-2-2 2.745-.554 1.626 1.397 2 2"/><path fill="#31b5d2" d="M156 469c-9.563 1.517-18.774 8.587-27 0 3.799-6.152 19.052-8.254 24.5-12 .406-.279.332-2.752 2.5-5 .962-.997 4.53-3.285 6-4-2.632 6.7-3.64 14.279-6 21"/><path fill="#125064" d="M234 453c.554-1.898.687-4.239 3-5-1.026 1.583-.055 2.738-3 5"/><path fill="#fefeff" d="M317 454c11.737 11.511-.78 33.878-18 30-24.607-5.542-2.364-49.971 18-30"/><path fill="#fdfefe" d="M619 453c11.026 8.64-.532 33.561-16 29-3.784-1.116-6.683-8.112-7-12-.49-6.007.822-8.673 3-14 3.682-1.675 2.782-3.898 9-5 3.449-.611 8.185-.205 11 2"/><path fill="#2897be" d="M599 456c-2.178 5.327-3.49 7.993-3 14-3.256-.581-6.179 6.431-7 8.5-5.706 14.384-7.888 37.388-1 51.5-3.876 1.792-9.479 4.646-13 7-3.206 1.102-5.621-8.561-6-10.5-5.317-27.206.623-52.258 16-74.5 7.045.709 7.553 6.933 14 4"/><path fill="#276f83" d="M156 452c-2.168 2.248-2.094 4.721-2.5 5-5.448 3.746-20.701 5.848-24.5 12-1.551 2.512-2.799 6.101-2 9-3.855-1.241-3.546 4.12-3 5.5 2.516 6.356 21.518 2.392 26-.5v1c-6.401 4.316-13.416 5.742-21 6-.125.004-1.027-2.26-1.5-2-2.7 1.488-7.009 54.096-3.5 61-1.174.141-1.871-2.501-3-1.5l1.5 11.5c4.837-3.757 15.493-4.473 21.5-3 .014.736.923 2.762 1 5 .499 14.542 1.973 29.266 5 43.5-1.622 2.715-20.415-5.359-23-8.5 4.381-1.725 4.024-13.76 4-19-.002-.333.002-.667 0-1-.02-2.959 2.4-5.287-1-9-3.967-4.331-3.75.811-8-4-1.532-1.734-.404-3.369-3-3-.764-31.239 1.774-62.465 5-93.5 1.768-3.523 26.568-14.002 32-14.5"/><path fill="#31b4d1" d="M892 470c-7.658 8.468-16.914.641-26-1-.611-2.035-5.554-12.662-3.5-14 7.609 6.168 24.679 7.354 29.5 15"/><path fill="#104b5f" d="M535 463c.398-.824-.622-2.967 1.5-4 2.103 2.539-1.457 3.791-1.5 4"/><path fill="#477c8b" d="M156 469c-1.118 3.185-1.959 7.749-3 10-7.202-3.68-23.232 9.05-26-1-.799-2.899.449-6.488 2-9 8.226 8.587 17.437 1.517 27 0"/><path fill="#487887" d="M892 470c.038.06.309-.204 1 1l-2.5 14c-4.156-6.602-15.64-5.101-22.5-8-1.26-2.817-1.219-5.398-2-8 9.086 1.641 18.342 9.468 26 1"/><path fill="#6ab3d1" d="M596 470c.317 3.888 3.216 10.884 7 12-5.393 13.616-5.27 29.072-1 43-4.371 1.84-9.938 3.122-14 5-6.888-14.112-4.706-37.116 1-51.5.821-2.069 3.744-9.081 7-8.5"/><path fill="#a1bfca" d="M868 477c6.86 2.899 18.344 1.398 22.5 8l2.5-14c.816 1.421 2.677 10.024 4 12.5-2.168 6.182-21.187 2.134-25.5-.5-4.172-2.548-2.346-3.421-3.5-6"/><path fill="#c2d6e2" d="M214 472c-10.378 21.537-18.642 44.655-24 68l-3-1.5c5.739-17.211 8.749-35.145 14-52.5z"/><path fill="#060512" d="M723 477c10.573 22.837 7.296 46.462-8 66 13.392-21.255 16.425-48.018 5-71 1.401 1.021 2.265 3.412 3 5"/><path fill="#bdd3de" d="M127 478c2.768 10.05 18.798-2.68 26 1-1.322 2.858-.405 2.325-3 4-4.482 2.892-23.484 6.856-26 .5-.546-1.38-.855-6.741 3-5.5"/><path fill="#0a92bc" d="M437 484c-1.515 10.79 5.576 39.486-13 30 1.332-10.14-.192-21.366-3-31 6.956-2.171 11.446-5.114 16 1"/><path fill="#7ad8eb" d="M533 489c.044-1.175.838-9.376 2.5-9 .04 4.94-.347 6.226-2.5 9"/><path fill="#2c7d92" d="M144 556c-6.007-1.473-16.663-.757-21.5 3l-1.5-11.5c1.129-1.001 1.826 1.641 3 1.5.998-.119 1.297 1.638 2 .5 3.389-19.373 2.626-39.709 3-59.5 7.584-.258 14.599-1.684 21-6 1.592-.177 1.917-.201 2 1.5.258 5.302-5.29 23.576-6 31-1.194 12.487-2.235 27.049-2 39.5"/><path fill="#22c4e7" d="M441 501c.089 5.916-.626 13.774-2 19.5-.925 3.858-9.482 19.964-9 21 .354.76 12.68 8.037 15 7.5-.135.265.138.74 0 1-27.662 52.102-96.878 65.017-144 31-2.802-2.023-5.461-4.642-8-7-.156-2.966 7.982-12.716 8-13.5.049-2.13-23.233-28.224-19-37.5 4.958-.068 10.133-1.135 15-2 .313 1.381.982.932 1 1 17.525 65.7 117.51 56.623 126-8 18.576 9.486 11.485-19.21 13-30 3.499 4.697 3.91 11.056 4 17"/><path fill="#247187" d="M891 491c-.542 1.925.803 28.482 1 33 .064 1.477.313 34.974 5 24.5.485-1.085.859-9.52 1-11.5 5.016 5.465 2.839 14.667 2.5 22-8.745-1.846-14.561-3.161-23.5-2.5l-7-71z"/><path fill="#6f9ea9" d="m898 523-6 1c-.197-4.518-1.542-31.075-1-33 .072-.256 2.834-4.501 4-3.5.239 11.757 2.752 23.818 3 35.5"/><path fill="#80acbd" d="M129 490c-.374 19.791.389 40.127-3 59.5-.703 1.138-1.002-.619-2-.5-3.509-6.904.8-59.512 3.5-61 .473-.26 1.375 2.004 1.5 2"/><path fill="#7ad8eb" d="M533 533c-3.752-16.464-4.682-25.997-3-43 2.016 1.377 1.734.631 3-1-.225 5.994.672 18.518 1 26.5.263 6.393 5.456 15.92-1 17.5"/><path fill="#0a92bc" d="M456 509c2.029 10.502-6.15 30.462-11 40-2.32.537-14.646-6.74-15-7.5-.482-1.036 8.075-17.142 9-21 1.374-5.726 2.089-13.584 2-19.5 1.8.309 11.983.645 12.5 1 .306.211 2.43 6.635 2.5 7"/><path fill="#1f5f71" d="M682 540c4.007 3.223 10.404 4.029 15.5 3 17.696-3.573 9.572-35.755-11.5-27 6.777-11.246 23.901-1.086 26 7.5.948 3.879-.945 8.203-1 12-.013.862 2.652 4.316 2 7-.159.653-8.887 9.226-9.5 9.5-.555.249-11.331 2.027-12 2-6.443-.262-22.652-13.376-9.5-14"/><path fill="#76d2f2" d="M403 531c-.779 8.466-10.713 14.963-19 12-3.513-1.951-7.67-2.456-11-7-.392-8.708-.9-19.514 11-22 11.105.643 20.178 4.195 19 17"/><path fill="#048eaf" d="M407 532c-1.465-.553-2.369 1.03-2.5 1-.814-.188-.044-2.149-1.5-2 1.178-12.805-7.895-16.357-19-17 8.289-1.732 19.781.667 23 9.5 1.591 4.365-.203 6.059 0 8.5"/><path fill="#427c99" d="M682 540c-8.128-6.537-5.318-20.129 4-24 21.072-8.755 29.196 23.427 11.5 27-5.096 1.029-11.493.223-15.5-3"/><path fill="#b6e3f2" d="M257 520c-1.189 8.487 1.405 16.73 2 25 .218 3.029-.255 6.123-1 9-6.429-11.754-11.715-24.401-13-38 4.384.079 7.98 2.859 12 4"/><path fill="#6edff6" d="M265 521c.046.327-.051.675 0 1 .714 4.517 1.601 10.776 3 15l-9 8c-.595-8.27-3.189-16.513-2-25 2.674.759 5.159 1.351 8 1"/><path fill="#0a91bb" d="M282 523c-4.233 9.276 19.049 35.37 19 37.5-.018.784-8.156 10.534-8 13.5-10.471-9.725-20.462-23.299-25-37-1.399-4.224-2.286-10.483-3-15 5.763-.333 11.236 1.079 17 1"/><path fill="#92d0e4" d="M898 523c.095 4.496.316 9.556 0 14-.141 1.98-.515 10.415-1 11.5-4.687 10.474-4.936-23.023-5-24.5z"/><path fill="#195264" d="M407 532c.245 2.957 2.085 9.972 2 10.5-.792 4.916-15.661 11.857-21 11.5l3-8.5c-4.882.589-6.042-1.968-7-2.5 8.287 2.963 18.221-3.534 19-12 1.456-.149.686 1.812 1.5 2 .131.03 1.035-1.553 2.5-1"/><path fill="#357e8f" d="M384 543c.958.532 2.118 3.089 7 2.5l-3 8.5c-5.801-.388-14.793-5.443-16-11.5-.571-2.866 1.041-5.586 1-6.5 3.33 4.544 7.487 5.049 11 7"/><path fill="#a1e4f6" d="M301 581c47.122 34.017 116.338 21.102 144-31l11 4.5c-26.487 51.395-95.451 71.17-146.5 44.5-8.752-4.572-19.076-9.052-8.5-18"/><path fill="#a5e4f6" d="M614 587c44.592 25.163 105.943 13.061 133-32-1.079 3.237 7.961 7.681 8 8.5.079 1.68-19.579 22.182-22.5 24.5-27.123 21.52-64.753 27.879-98 19-2.285-.61-20.167-7.246-21-8-3.825-3.464 1.365-7.708.5-12"/><path fill="#05101f" d="M122 563c-2.496 8.871 2.197 17.831-1 26-1.542-9.897-1.756-19.021-2-29 2.596-.369 1.468 1.266 3 3"/><path fill="#246a7e" d="M890 567c-.142.111-1.943 2.829-2 3-2.58 7.784 3.892 15.644 1 23.5 12.542 4.382-16.15 12.924-17 10l5-43c2.426-2.028 31.031 1.383 19.5 5.5-1.604.573-1.442-2.957-6.5 1"/><path fill="#050f18" d="M902 560c-.323 10.49-.073 20.609-2 31-.166-8.272-3.092-25.309 2-31"/><path fill="#040e1f" d="M130 567c3.4 3.713.98 6.041 1 9-9.866 1.211-11.494-12.541-1-9"/><path fill="#050d1f" d="M888 570c.057-.171 1.858-2.889 2-3 17.337-1.352-1.882 20.637-2 3"/><path fill="#396779" d="M834 644c-20.318 66.178-54.97 122.658-106.5 169-66.322 59.644-149.05 87.163-238.5 84 2.161-2.97 15.564.614 18.5-1 1.158-.637-1.597-8.393-.5-10.5 1.005-1.93 36.42-6.94 42.5-8.5C670.627 845.927 767.174 737.913 790 615.5c.416-2.23 1.714-7.768 0-9.5 9.941-10.385 16.081-16.448 21-30l34 29.5c-4.026 12.74-7.08 25.731-11 38.5"/><path fill="#12586c" d="M127 596c-5.645-6.857-4.287-15.646 4-19 .024 5.24.381 17.275-4 19"/><path fill="#6191a5" d="M489 897c-.334.459.231 3.411 0 4.5-4.475-1.802-27.422-2.305-29.5-3.5-1.153-.663.154-3.315-1-4-1.941-1.153-7.574 1.349-10 1-3.825-.55-12.737-3.772-15-4-2.185-.22-10.886-.169-12.5 2-108.365-27.974-193.67-102.708-238-205 2.423-1.903 3.533-.318 5 1.5 3.252 4.03 18.127 32.081 21.5 32.5.489.061 6.378-3.79 9-4 20.933-1.674 46.719 4.317 68 6 10.262.812 97.749 3.825 97.5 14.5l-9 5.5c-4.812 2.139-9.551 3.638-14 5.5l2 .5c-.18 1.136.953.947 1 1 36.616 70.09 103.317 109.122 183.5 92 46.577-9.946 89.592-49.746 109.5-92v-1c1.509.281 5.107-.939 6.5 1 3.829-1.579-14.706-5.483-16-6-31.977-12.787-38.675-36.259-61.5-51 10.486-20.872 45.317-24.129 51-48 57.994 15.531 111.231 3.638 153-40 1.714 1.732.416 7.27 0 9.5C767.174 737.913 670.627 845.927 549.5 877c-6.08 1.56-41.495 6.57-42.5 8.5-1.097 2.107 1.658 9.863.5 10.5-2.936 1.614-16.339-1.97-18.5 1"/><path fill="#4c869b" d="M678 862c-72.498 44.44-175.947 51.924-257 31 1.614-2.169 10.315-2.22 12.5-2 2.263.228 11.175 3.45 15 4 2.426.349 8.059-2.153 10-1 1.154.685-.153 3.337 1 4 2.078 1.195 25.025 1.698 29.5 3.5.231-1.089-.334-4.041 0-4.5 89.45 3.163 172.178-24.356 238.5-84 51.53-46.342 86.182-102.822 106.5-169-5.439 29.897-18.401 63.628-33 90.5-25.596 47.112-77.249 99.456-123 127.5"/><path fill="#241820" d="M586 694c22.825 14.741 29.523 38.213 61.5 51 1.294.517 19.829 4.421 16 6-1.393-1.939-4.991-.719-6.5-1-43.175-8.054-64.104-63.352-102-59-10.371 1.191-18.778 9.448-28 12-13.566 3.754-23.141 2.203-36-2-6.565-2.146-15.488-8.981-22.5-10-32.004-4.653-41.503 20.487-61.5 37-12.627 10.427-27.971 18.505-44 22l-2-.5c4.449-1.862 9.188-3.361 14-5.5 32.875-14.615 37.227-34.165 61.5-50 34.147-22.277 44.724 4.523 70 7 27.656 2.71 41.198-31.736 79.5-7"/><path fill="#cfc6ce" d="M491 701c.934 10.485 10.334 12.292 19.5 10 3.896-.974 7.56-4.829 8-5 2.802-1.089 6.225 2.844 8.5-3 9.222-2.552 17.629-10.809 28-12 8.095 7.172 18.899 9.477 27.5 16 5.527 4.192 15.426 14.418 17.5 21-10.827-6.554-24.521-17.406-37.5-19-26.778-3.288-40.94 19.088-69 11-5.493-1.583-12.475-7.827-16.5-9 .642-15.829-28.5-15.775-38.5-9-1.669 1.131-27.109 27.522-27.5 29.5-2.692 13.61 44.226 28.834 55 22.5 19.597 5.231 36.474 8.942 57 6 .646 7.806-3.676 4.509 2 9-29.076 1.249-89.947-2.153-118-8-8.455-1.762-17.127-2.487-25-6.5 4.372-1.759 27.597-19.386 28-22 .286-1.855-2.041-3.35-3-4.5 19.997-16.513 29.496-41.653 61.5-37 7.012 1.019 15.935 7.854 22.5 10"/><path fill="#aca2b0" d="M657 750v1c-17.862 27.303-39.525 53.352-68 70l7-7.5-8 2c6.737-4.394 15.663-9.012 21.5-14.5 3.517-3.306 19.867-21.367 22.5-25 .195 8.117-11.193 13.462-14.5 19-.442.739-2.402 3.315 0 3 13.435-14.188 24.913-26.616 31.5-45.5-2.163-.368-3.927-.845-6-1.5-21.95-6.935-25.216-12.234-43-23-2.074-6.582-11.973-16.808-17.5-21-8.601-6.523-19.405-8.828-27.5-16 37.896-4.352 58.825 50.946 102 59"/><path fill="#fbfbfc" d="M477 711c-7.657-2.231-30.634-1.043-36.5 4-4.031 3.466-4.491 13.672-10.5 14.5 2.483 6.063 30.912 12.82 31 16 .163 5.906-16.821-.97-19.5-1.5-.844-.167-6.493-2.115-3 1 9.127 2.715 18.345 6.556 27.5 9-10.774 6.334-57.692-8.89-55-22.5.391-1.978 25.831-28.369 27.5-29.5 10-6.775 39.142-6.829 38.5 9"/><path fill="#c3b9c4" d="M527 703c-2.275 5.844-5.698 1.911-8.5 3-.44.171-4.104 4.026-8 5-9.166 2.292-18.566.485-19.5-10 12.859 4.203 22.434 5.754 36 2"/><path fill="url(#e)" d="M600 728c17.784 10.766 21.05 16.065 43 23 .198 1.723.226 1.885-1 3-18.356-3.821-40.643-11.961-59.5-11-20.22 1.03-39.428 14.123-59.5 17-20.526 2.942-37.403-.769-57-6-9.155-2.444-18.373-6.285-27.5-9-3.493-3.115 2.156-1.167 3-1 2.679.53 19.663 7.406 19.5 1.5-.088-3.18-28.517-9.937-31-16 6.009-.828 6.469-11.034 10.5-14.5 5.866-5.043 28.843-6.231 36.5-4 4.025 1.173 11.007 7.417 16.5 9 28.06 8.088 42.222-14.288 69-11 12.979 1.594 26.673 12.446 37.5 19" style="fill:url(#e)"/>/&gt;<path fill="#a499a6" d="M407 761c-.633 1.781 2.376 2.684 3.5 3 38.348 10.771 68.701 13.28 108.5 12l3 18c-18.392 1.054-37.801-2.339-56-5-6.45-.943-16.005-5.604-24-6-9.997-1.549-43.296-19.338-50.5-19-3.175.149-6.654 5.2-6.5 6.5.146 1.233 13.919 16.505 16 19 .168.201.832 4.809 1 5 6.182 7.03 19.399 13.231 25 21.5-32.337-20.899-39.356-38.137-63-65-.047-.053-1.18.136-1-1 16.029-3.495 31.373-11.573 44-22 .959 1.15 3.286 2.645 3 4.5-.403 2.614-23.628 20.241-28 22 7.873 4.013 16.545 4.738 25 6.5"/><path fill="#bbb0bb" d="M642 754c-.751.683-16.199 7.431-18 8-8.031 2.539-19.545 4.646-28 5-23.623.99-47.25.98-71 2-5.676-4.491-1.354-1.194-2-9 20.072-2.877 39.28-15.97 59.5-17 18.857-.961 41.144 7.179 59.5 11"/><path fill="#21131c" d="M427 816c51.298 33.153 108.68 36.173 162 5 28.475-16.648 50.138-42.697 68-70-19.908 42.254-62.923 82.054-109.5 92-80.183 17.122-146.884-21.91-183.5-92 23.644 26.863 30.663 44.101 63 65"/><path fill="#938798" d="M632 776c1.593-2.198 7.421-12.032 6-14.5l-13 2.5c.079-.994.288-2.036-1-2 1.801-.569 17.249-7.317 18-8 1.226-1.115 1.198-1.277 1-3 2.073.655 3.837 1.132 6 1.5-6.587 18.884-18.065 31.312-31.5 45.5-2.402.315-.442-2.261 0-3 3.307-5.538 14.695-10.883 14.5-19"/><path fill="#6d6373" d="M525 769c23.75-1.02 47.377-1.01 71-2l-34 6c-14.372 2.33-28.482 2.533-43 3-39.799 1.28-70.152-1.229-108.5-12-1.124-.316-4.133-1.219-3.5-3 28.053 5.847 88.924 9.249 118 8"/><path fill="url(#f)" d="M632 776c-2.633 3.633-18.983 21.694-22.5 25-5.837 5.488-14.763 10.106-21.5 14.5l8-2-7 7.5c-53.32 31.173-110.702 28.153-162-5-5.601-8.269-18.818-14.47-25-21.5-.168-.191-.832-4.799-1-5-2.081-2.495-15.854-17.767-16-19-.154-1.3 3.325-6.351 6.5-6.5 7.204-.338 40.503 17.451 50.5 19-9.226-.457-24.131 1.035-22 13.5 1.623 9.492 39.601 35.351 51 30-3.391-2.128-15.487-1.185-11.5-6.5.898 2.377 9.767 5.593 11.5 2.5-7.091-.878-15.154-6.96-21.5-5.5l-.5-3.5c2.241-1.602 17.768 9.939 21 3-.296-1.941-34.752-11.683-29-22 8.793 5.69 20.531 16.681 31 9-4.916-2.905-7.173-8.646-6-14.5 18.199 2.661 37.608 6.054 56 5 11.702-.67 30.179-4.471 42-7 9.139-1.956 53.206-13.762 58.5-18 2.286-1.83 2.278-2.199 2.5-5l13-2.5c1.421 2.468-4.407 12.302-6 14.5" style="fill:url(#f)"/>/&gt;<path fill="#75687a" d="M624 762c1.288-.036 1.079 1.006 1 2-.222 2.801-.214 3.17-2.5 5-5.294 4.238-49.361 16.044-58.5 18l-2-14 34-6c8.455-.354 19.969-2.461 28-5"/><path fill="#8c8090" d="m562 773 2 14c-11.821 2.529-30.298 6.33-42 7l-3-18c14.518-.467 28.628-.67 43-3"/><path fill="#faf9fb" d="M442 783c7.995.396 17.55 5.057 24 6-1.173 5.854 1.084 11.595 6 14.5-10.469 7.681-22.207-3.31-31-9-5.752 10.317 28.704 20.059 29 22-3.232 6.939-18.759-4.602-21-3l.5 3.5c6.346-1.46 14.409 4.622 21.5 5.5-1.733 3.093-10.602-.123-11.5-2.5-3.987 5.315 8.109 4.372 11.5 6.5-11.399 5.351-49.377-20.508-51-30-2.131-12.465 12.774-13.957 22-13.5"/>/&gt;</svg>