<svg xmlns="http://www.w3.org/2000/svg" width="1024" height="1024"><defs><linearGradient id="a" x1="379.836" x2="712.375" y1="314.884" y2="362.983" gradientUnits="userSpaceOnUse"><stop offset="0%" style="stop-color:#bcdde6"/><stop offset="100%" style="stop-color:#91b8c1"/></linearGradient></defs><defs><linearGradient id="b" x1="454.827" x2="584.793" y1="503.796" y2="595.393" gradientUnits="userSpaceOnUse"><stop offset="0%" style="stop-color:#4391b1"/><stop offset="100%" style="stop-color:#1c283c"/></linearGradient></defs><defs><linearGradient id="c" x1="876.561" x2="838.447" y1="505.504" y2="549.222" gradientUnits="userSpaceOnUse"><stop offset="0%" style="stop-color:#a1c4cd"/><stop offset="100%" style="stop-color:#7fa8b1"/></linearGradient></defs><defs><linearGradient id="d" x1="489.802" x2="540.768" y1="529.38" y2="554.903" gradientUnits="userSpaceOnUse"><stop offset="0%" style="stop-color:#00464e"/><stop offset="100%" style="stop-color:#001d26"/></linearGradient></defs><path fill="#174c57" d="M837 427c-4.285-8.289-8.318-4.04-16.5-4-4.225 2.017 12.145 31.113 4.5 8.5.84-2.446 4.755-1.409 5-1.5l45.5 25c14.07 12.419 17.672 60.094 18.5 79.5 1.132 26.534-3.307 91.89-23.5 110.5-7.039 6.487-32.406 17.45-36.5 23.5-3.699 5.466-9.007 26.642-13 35-46.002 96.289-131.941 170.671-238 192.5-52.26 10.756-84.292.785-133 0-.333-.005-.667.002-1 0-114.499-22.954-198.897-92.377-249-196.5-3.299-6.857-7.55-24.218-11-29-6.603-9.153-30.483-13.759-39-26-23.16-33.286-28.033-137.389-14-174 7.084-18.483 41.696-30.978 58-40-2.722-2.515-16.506-5.278-17-9-.559-4.212 27.092-53.267 31.5-54.5 5.871-1.642 15.06 5.67 18 5 1.42-.323 15.667-19.492 18.5-22.5 40.819-43.342 87.241-77.074 142-101-2.817-3.504-15.778-30.971-17.5-31.5-.866-.266-13.246 2.427-18 2-38.551-3.463-56.903-48.137-33.5-78.5 31.419-40.762 103.248-16.926 92 38-.749 3.658-7.277 15.342-7 17 .691 4.138 25.805 32.465 28.5 39.5 51.322-11.655 104.382-12.017 156-2 3.38-5.5 30.063-36.64 30.5-39.5.22-1.438-6.383-13.568-7-17-6.591-36.647 25.274-62.842 60.5-56.5 55.291 9.954 58.633 91.358-5 98-3.115.325-13.315-2.175-14-2-2.829.723-13.865 27.027-17.5 30.5 50.429 19.364 96.638 48.911 134 88 4.653 4.868 27.22 35.144 29.5 35.5 3.945.616 8.353-8.349 17-3 3.56 2.202 31.177 47.764 31.5 51.5.491 5.675-6.174 6.604-10 8.5M323 140c-6.189 7.197-13.285 20.132-12 30-2.28 52.385 75.123 62.803 94 16.5 21.087-51.723-48.191-85.817-82-46.5m337.5-16c-69.196.792-55.134 98.75 12 90 53.205-6.934 49.49-90.703-12-90M604 238c2.336.754 5.32 1.19 8 2 2.652.802 5.319 1.342 8 2 .917.225 3.826 1.772 5 2 1.542.3 6.161 2.025 6.5 2 6.202-.449 13.524-24.447 18.5-29.5-.359-1.135-9.436-3.563-11-4.5-7.302-4.377-11.348-10.028-17-14-.102-.072-.703-1.723-1.5-2L592 233.5c.144 1.49 9.923 3.829 12 4.5m-205-38c-3.373 1.913-5.841 6.574-8 8-2.474 1.634-5.453 3.442-8 5-2.45 1.499-10.783 2.034-11 5.5l18.5 30.5c.75.111 6.287-2.697 7.5-3 1.311-.327 2.704-.636 4-1 2.893-.813 6.15-1.975 9-3 3.298-1.185 7.174-1.834 10-3 1.598-.66 3.817-.622 5-2.5l-24-38c-1.721-1.853-2.748 1.357-3 1.5M253 382c14.838 6.74 31.954 13.098 46 21 5.122 2.881 11.128 6.686 16 10 5.824 3.962 10.944 9.303 17 13-.972 1.573-3.467 5.486-1 7-48.701 60.588-64.362 142.162-37 216l-1 3c-25.322-65.287-19.278-131.62 15-192.5-16.901-7.593-33.962-16.485-51.5-22.5-5.835-2.001-39.532-12.322-43-12-1.855.172-2.146-.184-3.5 1.5-2.169 5.943-3.129 12.537-5 18.5-34.793 110.903-24.483 220.293 47 313 45.909 59.54 108.12 99.46 182 116 45.351 10.153 85.041 11.251 131 4 158.312-24.978 276.382-163.979 270-325.5-.329-8.326-2.605-37.891-5-44.5-2.707-11.289-3.4-23.204-6-34.5-1.491-6.478-12.757-46.938-16.5-47.5-1.853-.278-12.205 4.408-14.5 5a612 612 0 0 0-34.5 10c-4.969 1.597-16.841 8.158-21 9-.541.11-4.157-5.933-8.5 1-.804-1.177-2.072-2.709-3-4 33.363-16.901 65.439-26.351 102-33 2.99-.544 5.929-1.246 9-1.5-6.842-10.396-15.839-37.357-30-35.5-10.786 1.414-38.848 12.145-49.5 17-17.078 7.784-34.509 20.045-50.5 30-1.523-1.628-3.394-3.384-5-5 6.582-2.39 11.326-8.388 17-12 20.954-13.338 44.855-22.384 67-33.5-26.974-34.54-59.068-64.345-97-86.5-24.323-14.207-48.91-24.184-76-32-2.524-.728-5.32-2.307-8-3-139.07-35.957-275.451 14.255-364 124.5-.033 2.873 10.09 4.633 12 5.5m-55 34c16.514 3.292 31.957 8.164 48 13 22.225 6.699 44.548 14.011 65.5 24l17.5-22.5c-19.338-20.007-47.366-32.511-74-41.5-.822-.277-1.177-.733-2-1-8.691-2.822-27.785-9.248-36-10-2.176-.199-6.616-.748-8.5 0-6.07 2.409-18.483 29.192-22.5 35.5.953 3.128 11.151 2.331 12 2.5m637 48c7.187 34.765 13.041 74.474 13 110-.011 9.338-.235 19.727-1 29-.244 2.954-1.658 6.808-2 10-.292 2.728-.667 5.318-1 8-.621 4.993-1.372 10.015-2 15-.227 1.802-2.617 9.464-2 10.5 1.749 1.824 2.842-1.444 3-1.5 5.096-1.8 8.795-4.83 13-8 3.122-2.353 7.253-2.537 10-6.5.385-.556 2.263-7.727 3-9.5 4.944-11.892 7.668-24.355 10-37 4.964-26.923 5.666-46.758 3-74-3.814-38.973-4.275-45.087-41-61-3.604-1.562-6.905-4.18-11-4.5-.807 1.252 4.397 16.583 5 19.5m-691 24c-4.318 20.634-6.288 46.975-5 68 1.131 18.457 12.118 71.638 25 83 2.002 1.766 8.068 5.701 10.5 7 1.569.838 6.997 4.456 8.5 2.5-9.525-36.849-10.146-75.62-8-113.5.335-5.904.431-12.139 1-18 .303-3.113 1.754-6.462 1-10l12.5-60c-10.894 3.925-39.002 17.871-43.5 28.5-1.336 3.158-1.249 8.911-2 12.5"/><path fill="#0284a6" d="M311 170c1.729 13.279 24.796 34.123 38.5 36 69.295 9.493 62.498-83.309-.5-74-4.39.649-14.421 3.664-18 6-.497-5.213-5.367 2.235-8 2 33.809-39.317 103.087-5.223 82 46.5-18.877 46.303-96.28 35.885-94-16.5"/><path fill="#0281a3" d="M660.5 124c61.49-.703 65.205 83.066 12 90-67.134 8.75-81.196-89.208-12-90M623 146c-14.027 22.474 4.341 56.331 29.5 60 59.531 8.682 59.979-73.168 7.5-76-16.306-.88-28.011 1.597-37 16"/><path fill="#52d9f6" d="M660 130c1.052 2.137 3.969 3.916 6 5 15.047 20.687-12.99 47.69-34 47-13.471-.442-11.553-27.114-9-36 8.989-14.403 20.694-16.88 37-16m-16.5 6c-6.339.594-10.236 14.839-9 20 7.501-.289 21.209-21.143 9-20m4 16c-.212-.009-2.936 2.798-3 3-2.372 7.517 8.883-2.757 3-3"/><path fill="#3daecb" d="M623 146c-2.553 8.886-4.471 35.558 9 36 17.927 25.448 69.198 4.892 57-27.5-3.655-9.706-14.852-15.152-23-19.5-2.031-1.084-4.948-2.863-6-5 52.479 2.832 52.031 84.682-7.5 76-25.159-3.669-43.527-37.526-29.5-60m68.5 27c-6.286 15.405-21.935 22.961-38 23l-16.5-4.5c19.516 15.068 52.93 9.307 54.5-18.5"/><path fill="#3ac3e2" d="M311 170c-1.285-9.868 5.811-22.803 12-30 2.633.235 7.503-7.213 8-2-13.042 8.511-22.635 37.038-3.5 44 36.551 13.298 72.154-40.509 21.5-50 62.998-9.309 69.795 83.493.5 74-13.704-1.877-36.771-22.721-38.5-36m57.5-34c34.881 27.731-13.575 67.656-44 51 38.049 48.671 111.876-18.696 44-51"/><path fill="#5adbf8" d="M349 132c50.654 9.491 15.051 63.298-21.5 50-19.135-6.962-9.542-35.489 3.5-44 3.579-2.336 13.61-5.351 18-6m-10.5 9c-6.32.046-17.647 18.754-8 20 5.937.767 17.771-20.072 8-20m0 18c-1.394-.037-4.744 6.349-2 6 1.471-.187 5.329-5.912 2-6m-15 3c-1.982.529-2.923 8.247 1 7 2.57-.817 1.953-7.788-1-7"/><path fill="#029dc2" d="M632 182c21.01.69 49.047-26.313 34-47 8.148 4.348 19.345 9.794 23 19.5 12.198 32.392-39.073 52.948-57 27.5"/><path fill="#0084a7" d="M368.5 136c67.876 32.304-5.951 99.671-44 51 30.425 16.656 78.881-23.269 44-51"/><path fill="#fdfefe" d="M643.5 136c12.209-1.143-1.499 19.711-9 20-1.236-5.161 2.661-19.406 9-20"/><path fill="#fbfefe" d="M338.5 141c9.771-.072-2.063 20.767-8 20-9.647-1.246 1.68-19.954 8-20"/><path fill="#f6fcfd" d="M647.5 152c5.883.243-5.372 10.517-3 3 .064-.202 2.788-3.009 3-3"/><path fill="#effbfc" d="M338.5 159c3.329.088-.529 5.813-2 6-2.744.349.606-6.037 2-6"/><path fill="#f4fdfe" d="M323.5 162c2.953-.788 3.57 6.183 1 7-3.923 1.247-2.982-6.471-1-7"/><path fill="#0181a2" d="M691.5 173c-1.57 27.807-34.984 33.568-54.5 18.5l16.5 4.5c16.065-.039 31.714-7.595 38-23"/><path fill="#e1f2f7" d="M622 198c-.292 6.188-20.956 33.233-21 35.5-.052 2.693 5.353 1.442 3 4.5-2.077-.671-11.856-3.01-12-4.5l28.5-37.5c.797.277 1.398 1.928 1.5 2"/><path fill="#ddf0f5" d="m421 239-22-39c.252-.143 1.279-3.353 3-1.5l24 38c-1.183 1.878-3.402 1.84-5 2.5"/><path fill="#abd1d9" d="M639 212c.892 2.437-1.487 3.767-2 5-9.156-14.424-10.399-8.799-11 4-6.604 2.475-13.025 12.454-14 19-2.68-.81-5.664-1.246-8-2 2.353-3.058-3.052-1.807-3-4.5.044-2.267 20.708-29.312 21-35.5 5.652 3.972 9.698 9.623 17 14"/><path fill="#a7ced7" d="M421 239c-2.826 1.166-6.702 1.815-10 3-1.634-8.387-8.268-15.887-14-22-.354-5.489.57-10.531-6-12 2.159-1.426 4.627-6.087 8-8z"/><path fill="#5a888f" d="M391 208c6.57 1.469 5.646 6.511 6 12 .325 5.052-.987 10.019-1 15-.003 1.313-.099 2.696 0 4-7.416-5.344-7.828-18.353-13-26 2.547-1.558 5.526-3.366 8-5"/><path fill="#5a878f" d="M637 217c-2.401 5.772-6.132 22.719-11 26v-9c0-4.298-.201-8.714 0-13 .601-12.799 1.844-18.424 11-4"/><path fill="#538289" d="M625 244c-.169-1.15.802-.867 1-1 4.868-3.281 8.599-20.228 11-26 .513-1.233 2.892-2.563 2-5 1.564.937 10.641 3.365 11 4.5-4.976 5.053-12.298 29.051-18.5 29.5-.339.025-4.958-1.7-6.5-2"/><path fill="#507f87" d="M383 213c5.172 7.647 5.584 20.656 13 26 .219 2.876.241 4.51 2 7-1.213.303-6.75 3.111-7.5 3L372 218.5c.217-3.466 8.55-4.001 11-5.5"/><path fill="#79a6ae" d="M411 242c-2.85 1.025-6.107 2.187-9 3l-6-10c.013-4.981 1.325-9.948 1-15 5.732 6.113 12.366 13.613 14 22"/><path fill="#7aa7af" d="M626 221c-.201 4.286 0 8.702 0 13l-6 8c-2.681-.658-5.348-1.198-8-2 .975-6.546 7.396-16.525 14-19"/><path fill="#afcfd7" d="M626 234v9c-.198.133-1.169-.15-1 1-1.174-.228-4.083-1.775-5-2z"/><path fill="#acced5" d="M402 245c-1.296.364-2.689.673-4 1-1.759-2.49-1.781-4.124-2-7-.099-1.304-.003-2.687 0-4z"/><path fill="#e1f2f7" d="M605 252c-6.144 12.317-2.208 6.847 2 16-45.987-12.897-89.713-17.436-137.5-11-10.262 1.382-25.148 3.435-33.5 9a35 35 0 0 0-3 0c-21.164.851-46.958 15.938-65 25-46.259 23.234-82.261 50.317-115 91-1.91-.867-12.033-2.627-12-5.5C329.549 266.255 465.93 216.043 605 252"/><path fill="#f2f9fa" d="M613 255c-4.327 1.583 2.282 8.545 2 9.5l-7 3.5c-.308-.088-.691.087-1 0-4.208-9.153-8.144-3.683-2-16 2.68.693 5.476 2.272 8 3"/><path fill="url(#a)" d="M607 268c.309.087.692-.088 1 0 20.638 5.883 71.644 23.663 86 38 .302.302-.324 3.186 0 3.5 30.689 29.778 44.312 46.804 10 84.5-59.945-46.879-131.781-74.313-209-68-66.68 5.451-133.826 39.299-180 87-4.872-3.314-10.878-7.119-16-10 13.913-18.618 75.144-55.301 78-76.5 1.371-10.174-6.814-25.324-9-35.5 18.042-9.062 43.836-24.149 65-25-19.231 8.363-49.667 13.46-48 40.5 25.231-3.619 50.849-13.376 74-24-5.977-12.99-8.917-15.822-23-16.5 8.352-5.565 23.238-7.618 33.5-9 47.787-6.436 91.513-1.897 137.5 11m-147.5 20L387 315.5c8.968-1.011 72.889-20.253 74-24-.155-1.915.956-3.004-1.5-3.5" style="fill:url(#a)"/>/&gt;<path fill="#e1f1f6" d="M689 287c2.601 6.15 19.494 15.538 5 19-14.356-14.337-65.362-32.117-86-38l7-3.5c.282-.955-6.327-7.917-2-9.5 27.09 7.816 51.677 17.793 76 32m-57.5-23c-7.785 1.935 12.445 17.389 14.5 9.5.809-5.01-11.888-10.149-14.5-9.5"/><path fill="#f5fbfc" d="M631.5 264c2.612-.649 15.309 4.49 14.5 9.5-2.055 7.889-22.285-7.565-14.5-9.5"/><path fill="#fdfefe" d="M436 266c14.083.678 17.023 3.51 23 16.5-23.151 10.624-48.769 20.381-74 24-1.667-27.04 28.769-32.137 48-40.5a35 35 0 0 1 3 0"/><path fill="#729da6" d="M719 407c-5.261-3.551-10.17-9.223-15-13 34.312-37.696 20.689-54.722-10-84.5-.324-.314.302-3.198 0-3.5 14.494-3.462-2.399-12.85-5-19 37.932 22.155 70.026 51.96 97 86.5-22.145 11.116-46.046 20.162-67 33.5"/><path fill="#fafdfe" d="M459.5 288c2.456.496 1.345 1.585 1.5 3.5-1.111 3.747-65.032 22.989-74 24z"/><path fill="#fefeff" d="M299 403c-14.046-7.902-31.162-14.26-46-21 32.739-40.683 68.741-67.766 115-91 2.186 10.176 10.371 25.326 9 35.5-2.856 21.199-64.087 57.882-78 76.5"/><path fill="#628b92" d="M704 394c4.83 3.777 9.739 9.449 15 13-5.674 3.612-10.418 9.61-17 12-5.578-5.614-11.895-10.955-18-16-51.065-42.205-113.367-63.029-180-60-.154-4.066-4.73-.278-7-3.5-.996-1.413-.948-10.913-2-13.5 77.219-6.313 149.055 21.121 209 68"/><path fill="#7ca9b0" d="M495 326c1.052 2.587 1.004 12.087 2 13.5 2.27 3.222 6.846-.566 7 3.5-50.755 2.307-94.597 18.781-135 49-9.43 7.053-31.192 24.597-37 34-6.056-3.697-11.176-9.038-17-13 46.174-47.701 113.32-81.549 180-87"/><path fill="#011122" d="M684 403v4c-86.594-73.643-222.383-80.558-314-12l-1-3c40.403-30.219 84.245-46.693 135-49 66.633-3.029 128.935 17.795 180 60"/><path fill="#1c699c" d="M684 407c30.673 26.086 57.276 63.333 69 102l-21 11c-.616-2.73-2.05-6.262-3-9-8.078-23.267-21.61-31.771-33-50-2.455-3.929-2.006-6.452-3-8-2.473-3.852-4.493-8.027-7-12-3.888-6.162-8.257-13.627-15-17-20.89-27.959-88.698-45.8-122-43 .502-2.847-2.817-2.138-4.5-2-31.56 2.589-72.955 28.353-95.5 50-5.932 5.695-12.14 11.312-17 18-3.38-7.023-26.657-6.715-27-13.5-.323-6.388 36.467-54.441 47-57-1.951-2.687-7.79.843-10 1.5-10.889 3.237-23.326 9.174-33 15-4.245 2.556-6.218 3.088-10 7-27.022 18.205-42.874 49.284-47 81-3.961-.178-.829 5.579-2.5 7-1.27 1.08-2.97-2.57-5.5.5-1.444 1.752 2.528 5.229-8 5.5-1.611-9.447-1.521-13.273 0-22 8.721 2.411 4.733-18.099 9-23.5-3.333.295-3.287 5.885-4 7.5-1.764-1.927-5.469 3.668-6 4.5-13.857 21.732-6.622 52.72 0 76 .238.838-1.925 3.343-1 5 .576 1.032 1.042-2.601 4 3.5-1.682 3.368 2.427 10.575 4 13.5 4.616 8.586 10.887 16.917 17 24.5 20.659 25.628 50.35 46.688 82.5 55 7.7 1.991 15.652-2.449 23.5 6.5-36.996-1.526-82.065-10.815-112-33.5-25.457-19.291-42.348-49.063-43-81.5-4.834-.331.407 8.983-1 11.5-2.452.716-2.939 10.553-3 12.5-.158 5.031.524 8.728 1 13.5 1.677 16.826 7.685 34.277 16 49-2.33.702.302 2.218 0 4-.968 5.707.135 6.068 0 7.5-.203 2.147-2.86 1.137-3 5.5-.409 12.705 7.058 28.98 13 40 10.02 18.583 23.152 34.333 43 43-5.788.119-2.617 1.767-1 4 4.21 5.814 25.77 16.453 33 19-4.255 2.261-1.756 3.397-2 4-3.319 8.21-9.091 10.47-12 18-43.489-23.73-82.63-65.124-100-112-27.362-73.838-11.701-155.412 37-216 11.035-13.729 24.907-27.454 39-38 91.617-68.558 227.406-61.643 314 12"/><path fill="#2bd5f4" d="M432 447c-4.803 6.608-8.923 14.398-12 22-9.11 6.884-14.199 5.42-22 18-.772 1.246-2.604 3.14-3 4v-34.5c-5.665-.846-8.898-2.291-10 4-2.11-9.497 3.584-15.101 4-24-17.748 28.003-13.344 62.525-1.5 92.5 2.055-5.135-.05-11.79.5-17.5.028-.293.99-7.029 3-4.5-2.158 17.046 1.526 36.776 16 48l5 34c-44.541-54.552-60.475-112.269-19-175l5.5 2 43.5-38c2.21-.657 8.049-4.187 10-1.5-10.533 2.559-47.323 50.612-47 57 .343 6.785 23.62 6.477 27 13.5"/><path fill="#a0cad4" d="m828 414-21-37c14.161-1.857 23.158 25.104 30 35.5-3.071.254-6.01.956-9 1.5"/><path fill="#fbfcfd" d="m217 378-19 38c-.849-.169-11.047.628-12-2.5 4.017-6.308 16.43-33.091 22.5-35.5 1.884-.748 6.324-.199 8.5 0"/><path fill="#5e8c96" d="M828 414c-36.561 6.649-68.637 16.099-102 33-5.008-6.966-13.124-16.718-19-23 15.991-9.955 33.422-22.216 50.5-30 10.652-4.855 38.714-15.586 49.5-17z"/><path fill="#bde2ee" d="m253 388-3 31c-.719 1.429-5.567 5.425-4 10-16.043-4.836-31.486-9.708-48-13l19-38c8.215.752 27.309 7.178 36 10"/><path fill="#0daed4" d="m442 378-43.5 38-5.5-2c4.955-7.494 9.252-14.877 16-21 9.674-5.826 22.111-11.763 33-15"/><path fill="#01354d" d="M549 381c-29.123 2.449-55.671 18.326-79 35-6.845 4.892-13.876 9.107-20 15l-1-2c22.545-21.647 63.94-47.411 95.5-50 1.683-.138 5.002-.847 4.5 2"/><path fill="#018bb1" d="M671 424c.603.807 4.882 4.635 1.5 5-20.856-14.642-40.775-27.674-66.5-31-25.86-3.343-54.09-2.677-79.5 3-.875-1.271 17.276-5.863 10-8-7.683-2.256-55.774 22.956-65 26l-1.5-3c23.329-16.674 49.877-32.551 79-35 33.302-2.8 101.11 15.041 122 43"/><path fill="#f9fcfd" d="M255 389c-.73 6.004.051 23.777-2 28.5-.784 1.804-2.925 1.35-3 1.5l3-31c.823.267 1.178.723 2 1"/><path fill="#abd7e1" d="M246 429c-1.567-4.575 3.281-8.571 4-10 .075-.15 2.216.304 3-1.5 2.051-4.723 1.27-22.496 2-28.5 26.634 8.989 54.662 21.493 74 41.5L311.5 453c-20.952-9.989-43.275-17.301-65.5-24"/><path fill="#021f2b" d="M370 395c-14.093 10.546-27.965 24.271-39 38-2.467-1.514.028-5.427 1-7 5.808-9.403 27.57-26.947 37-34z"/><path fill="#015564" d="M409 393c-6.748 6.123-11.045 13.506-16 21-41.475 62.731-25.541 120.448 19 175 3.091 3.786 6.211 2.102 3 7-45.812-55.679-74.786-135.19-16-196 3.782-3.912 5.755-4.444 10-7"/><path fill="#24d4f3" d="M606 398c-2.843 5.099-17.812.217-23.5 0-22.368-.852-48.489 1.084-69.5 9-8.051 3.033-15.528 2.851-12 13-2.913 1.053-6.193 1.841-9 3-9.129 3.768-10.581 2.813-13 13-15.384 6.622-31.862 17.438-42 31-4.821-.158-9.629 1.377-14 0 7.949-7.931 15.772-25.195 27-36 6.124-5.893 13.155-10.108 20-15l1.5 3c9.226-3.044 57.317-28.256 65-26 7.276 2.137-10.875 6.729-10 8 25.41-5.677 53.64-6.343 79.5-3"/><path fill="#099ec5" d="M606 398c25.725 3.326 45.644 16.358 66.5 31 3.382-.365-.897-4.193-1.5-5 6.743 3.373 11.112 10.838 15 17-2.434 3.966-7.64-3.83-9.5-5-12.536-7.885-34.365-18.021-49-20-2.668-.361-21.044-1.547-22-1-1.153.66.153 3.34-1 4-2.517 1.441-43.298-3.965-50.5 1-6.854.418-14.185 2.125-21 3-11.265 1.446-22.023 3.081-33 6-1.09-4.222-9.329 5.227-8-6 2.807-1.159 6.087-1.947 9-3 9.232-3.337 15.689.611 12-13 21.011-7.916 47.132-9.852 69.5-9 5.688.217 20.657 5.099 23.5 0"/><path fill="#32dcf8" d="M399 400c-58.786 60.81-29.812 140.321 16 196 4.426 5.38 9.003 10.594 12 17-.423 2.016-3.47.534-4.5 0-14.445-7.486-34.085-24.684-43.5-38-14.111-19.958-26.638-51.106-31-75l4-.5c-2.008-6.346-.824-12.167 0-18.5 4.126-31.716 19.978-62.795 47-81"/><path fill="#010917" d="M702 419c1.606 1.616 3.477 3.372 5 5 5.876 6.282 13.992 16.034 19 23 .928 1.291 2.196 2.823 3 4 2.32 3.395 4.889 7.463 7 11 113.827 190.751-99.454 387.319-299 321-64.443-21.418-119.164-66.966-144-131l1-3c17.37 46.876 56.511 88.27 100 112 97.673 53.295 220.04 40.145 298.5-34 59.717-56.433 84.638-138.388 60.5-218-11.724-38.667-38.327-75.914-69-102v-4c6.105 5.045 12.422 10.386 18 16"/><path fill="#16bce1" d="M501 420c-3.528-10.149 3.949-9.967 12-13 3.689 13.611-2.768 9.663-12 13"/><path fill="#03799c" d="M686 441c2.507 3.973 4.527 8.148 7 12-41.094-30.221-88.948-36.051-139-33 7.202-4.965 47.983.441 50.5-1 1.153-.66-.153-3.34 1-4 .956-.547 19.332.639 22 1 14.635 1.979 36.464 12.115 49 20 1.86 1.17 7.066 8.966 9.5 5"/><path fill="#001f32" d="M693 453c.994 1.548.545 4.071 3 8-10.42-8.264-19.9-16.181-32-22-16.706-8.034-32.741-11.7-51-14-26.496-3.338-52.52-3.162-79 0l-1-2c6.815-.875 14.146-2.582 21-3 50.052-3.051 97.906 2.779 139 33"/><path fill="#0ca8cc" d="M613 425c3.756 8.343 23.768 10.465 32.5 11l-2.5 3.5 9 4.5c-26.269-9.922-54.514-15.789-82.5-10 4.469.232 9.055-.321 13.5 0v2c-15.252-1.028-31.167-.482-46.5-1-1.83-.062-4.935 1.009-4.5-2 10.948-1.376 22.186-.941 33-3.5-9.678-4.952-25.346 2.828-33-4.5.643-.083 1.355.077 2 0 26.48-3.162 52.504-3.338 79 0"/><path fill="#113d49" d="M837 427c-3.068 1.52-3.801 1.814-7 3-.245.091-4.16-.946-5 1.5 7.645 22.613-8.725-6.483-4.5-8.5 8.182-.04 12.215-4.289 16.5 4"/><path fill="#16bce1" d="M500 429c-4.596 1.222-9.54 2.395-14 4-2.275.819-4.749 2.031-7 3 2.419-10.187 3.871-9.232 13-13-1.329 11.227 6.91 1.778 8 6"/><path fill="#00425a" d="m533 423 1 2c-.645.077-1.357-.083-2 0-14.41 1.864-31.358 5.055-45 10l-1-2c4.46-1.605 9.404-2.778 14-4 10.977-2.919 21.735-4.554 33-6"/><path fill="#99c5ce" d="M293 652c24.836 64.034 79.557 109.582 144 131-12.352-.409-28.93-7.601-40.5-13C292.555 721.493 243.795 617.314 272 505.5c1.203-4.769 8.285-18.031 6-21.5-12.818-6.793-26.779-19.839-39.5-26-.887-.429-7.889-.073-10-1-7.964-3.497-15.457-8.605-23.5-12 1.871-5.963 2.831-12.557 5-18.5 1.354-1.684 1.645-1.328 3.5-1.5 3.468-.322 37.165 9.999 43 12 17.538 6.015 34.599 14.907 51.5 22.5-34.278 60.88-40.322 127.213-15 192.5"/><path fill="#6ee7fc" d="M532 425c7.654 7.328 23.322-.452 33 4.5-10.814 2.559-22.052 2.124-33 3.5-8.816 1.108-51.848 7.467-56.5 12-2.603 2.537-.791 4.832-2 6-.917.885-21.419 5.498-24.5 7 10.169-9.859 24.712-18.183 38-23 13.642-4.945 30.59-8.136 45-10"/><path fill="#0184ab" d="M664 439c-5.437 5.792 18.195 9.997 13 17-5.293-3.384-9.306-5.408-15-8-3.322-1.513-6.594-2.713-10-4l-9-4.5 2.5-3.5c-8.732-.535-28.744-2.657-32.5-11 18.259 2.3 34.294 5.966 51 14"/><path fill="#49737c" d="M830 508c-.118-.327-3.226-4.385-3.5-6-3.124-1.42-6.38-2.614-9.5-4-1.345-.597-.935-.973-1-1-4.749-22.745-10.317-46.239-23-66 2.295-.592 12.647-5.278 14.5-5 3.743.562 15.009 41.022 16.5 47.5 2.6 11.296 3.293 23.211 6 34.5"/><path fill="#016d7e" d="M450 431c-11.228 10.805-19.051 28.069-27 36-1.163 1.16-2.002 1.246-3 2 3.077-7.602 7.197-15.392 12-22 4.86-6.688 11.068-12.305 17-18z"/><path fill="#638e97" d="M793 431c12.683 19.761 18.251 43.255 23 66-19.952-8.342-44.942-12.868-63-27-5.507-4.31-13.337-18.669-14.5-19-9.1-2.591.911 8.222-2.5 11-2.111-3.537-4.68-7.605-7-11 4.343-6.933 7.959-.89 8.5-1 4.159-.842 16.031-7.403 21-9a612 612 0 0 1 34.5-10"/><path fill="#31bfe1" d="M652 444c3.406 1.287 6.678 2.487 10 4-12.071-3.319-24.127-5.734-36.5-8-2.973-.544-1.78.038-2 0-13.508-2.307-26.777-5.008-40.5-6-4.445-.321-9.031.232-13.5 0 27.986-5.789 56.231.078 82.5 10"/><path fill="#047b91" d="M487 435c-13.288 4.817-27.831 13.141-38 23-3.135 1.528-8.821 5.508-9 9-.979-.087-2.012.032-3 0 10.138-13.562 26.616-24.378 42-31 2.251-.969 4.725-2.181 7-3z"/><path fill="#25ceef" d="M532 433c-.435 3.009 2.67 1.938 4.5 2 15.333.518 31.248-.028 46.5 1 5.353.361 38.231 3.414 40.5 5 .873.61.849 1.37 0 2-11.522-2.506-23.756-4.271-35.5-5-5.26-.327-38.158-1.542-40.5 0-1.372.903 1.314 5.505-4.5 6-.663.09-3.578 1.952-5.5 1l1.5 3c-19.781-.151-32.543-.797-52 5-11.355 3.384-24.775 9.453-33 18-3.333-1.742-8.35-3.556-12-4-.646-.078-1.348.058-2 0 .179-3.492 5.865-7.472 9-9 3.081-1.502 23.583-6.115 24.5-7 1.209-1.168-.603-3.463 2-6 4.652-4.533 47.684-10.892 56.5-12"/><path fill="#0996bc" d="M662 448c5.694 2.592 9.707 4.616 15 8 6.483 4.145 24.54 18.327 28 24.5 1.352 2.411-.429 1.52-1 3.5-38.937-37.429-68.784-39.112-121-40 4.228-2.142 5.779.491 5-6 11.744.729 23.978 2.494 35.5 5 .849-.63.873-1.39 0-2-2.269-1.586-35.147-4.639-40.5-5v-2c13.723.992 26.992 3.693 40.5 6 .22.038-.973-.544 2 0 12.373 2.266 24.429 4.681 36.5 8"/><path fill="#52e9fd" d="M395 491c-2.125 4.618-3.36 10.947-4 16-2.01-2.529-2.972 4.207-3 4.5-.55 5.71 1.555 12.365-.5 17.5-11.844-29.975-16.248-64.497 1.5-92.5-.416 8.899-6.11 14.503-4 24 1.102-6.291 4.335-4.846 10-4z"/><path fill="#19b4db" d="M588 438c.779 6.491-.772 3.858-5 6-1.325-.023-2.675.012-4 0-10.361-.095-26.37-1.308-36 0 5.814-.495 3.128-5.097 4.5-6 2.342-1.542 35.24-.327 40.5 0"/><path fill="#007297" d="M696 461c11.39 18.229 24.922 26.733 33 50-4.246.974-3.557.484-6-2.5-6.553-8.006-10.998-16.808-19-24.5.571-1.98 2.352-1.089 1-3.5-3.46-6.173-21.517-20.355-28-24.5 5.195-7.003-18.437-11.208-13-17 12.1 5.819 21.58 13.736 32 22"/><path fill="#18a0c2" d="M579 444c-.818 9.221 10.098 1.128 11 7-9.355-1.023-18.609-1.458-28-2-1.319-.076-2.68.064-4 0-5.532-.269-11.571-.928-17-1-.661-.009-1.338.005-2 0l-1.5-3c1.922.952 4.837-.91 5.5-1 9.63-1.308 25.639-.095 36 0"/><path fill="#027b9f" d="M583 444c52.216.888 82.063 2.571 121 40 8.002 7.692 12.447 16.494 19 24.5 2.443 2.984 1.754 3.474 6 2.5.95 2.738 2.384 6.27 3 9 .765 3.391.644 7.904 2 11.5-2.99-.583-3.374-5.546-5-7.5-.688-.827-1.423-1.341-2-2-31.601-49.717-81.223-64.901-137-71-.902-5.872-11.818 2.221-11-7 1.325.012 2.675-.023 4 0"/><path fill="#cde3ea" d="M841 449c6.42 11.599 33.001 18.402 35 32.5.206 1.455-3.002 8.526-3 9 .008 2.145 1.814 6.092 2 9.5.041.75 1.789 6.382-2 2.5-2.592-2.655-3.22-15.118-6-20-4.844-8.505-22.438-16.477-32-18.5-.603-2.917-5.807-18.248-5-19.5 4.095.32 7.396 2.938 11 4.5"/><path fill="#b9dde6" d="M278 484c-4.199 6.668-8.598 17.917-11 27.5-21.481 85.703 5.213 169.766 72 226.5l-8 10c-69.516-63.151-95.323-135.529-87-230.5 1.106-12.625 3.211-30.169 9-41-36.892-23.858-47.849-3.582-54 32-14.51 83.93 10.471 175.32 61 242.5l-8 7c-71.483-92.707-81.793-202.097-47-313 8.043 3.395 15.536 8.503 23.5 12 2.111.927 9.113.571 10 1 12.721 6.161 26.682 19.207 39.5 26"/><path fill="#7eadb4" d="M177 507c-4.814.618-11.486-.849-16 0l8-44c.54-.589 2.433-1.397 3-2.5-2.438-3.491-19.966 10.663-22 14-2.192 3.598-1.778 11.174-6 13.5.751-3.589.664-9.342 2-12.5 4.498-10.629 32.606-24.575 43.5-28.5z"/><path fill="#054e65" d="M539 448c.662.005 1.339-.009 2 0l-1 4c-3.138-.182-12.271-1.144-12 2-16.29-2.117-24.931-3.135-41 2v-3c19.457-5.797 32.219-5.151 52-5"/><path fill="#0a86a8" d="M336 472c1.197-6.868 2.244-9.756 5-16 .713-1.615.667-7.205 4-7.5-4.267 5.401-.279 25.911-9 23.5"/><path fill="#001123" d="m558 449-4 2.5c1.285 1.881 3.205 2.386 5 3.5-6.454-.271-12.544-2.626-19-3l1-4c5.429.072 11.468.731 17 1"/><path fill="#01425c" d="M562 449c2.672 2.927 10 3.069 14 4 1.816.422 3.888 1.478 6 2 2.509 3.937 9.826 6.4 14 8 2.122 2.34 4.649 5.986 7 8l-4 2v1c-2.465-2.147-1.573-2.99-3.5-5l-1 2c-8.673-5.447-18.188-8.912-27.5-13-2.379-1.044-4.467-.807-8-3-1.795-1.114-3.715-1.619-5-3.5l4-2.5c1.32.064 2.681-.076 4 0"/><path fill="#001221" d="M590 451c55.777 6.099 105.399 21.283 137 71-4.526-5.174-10.114-9.646-14.5-15-.724 1.785 1.621 4.278 2.5 6h-1c-7.416-12.63-17.244-20.818-29-29-32.489-22.611-70.259-27.48-109-31-4-.931-11.328-1.073-14-4 9.391.542 18.645.977 28 2"/><path fill="#ebf5f8" d="M882 510c-3.974 4.804-2.237-17.051-7-10-.186-3.408-1.992-7.355-2-9.5-.002-.474 3.206-7.545 3-9-1.999-14.098-28.58-20.901-35-32.5 36.725 15.913 37.186 22.027 41 61"/><path fill="#d1e6ed" d="M753 470c67.553 142.049-22.243 294.023-169 329-85.326 20.336-178.529-4.535-245-61-66.787-56.734-93.481-140.797-72-226.5 2.402-9.583 6.801-20.832 11-27.5 2.285 3.469-4.797 16.731-6 21.5-28.205 111.814 20.555 215.993 124.5 264.5 11.57 5.399 28.148 12.591 40.5 13 199.546 66.319 412.827-130.249 299-321 3.411-2.778-6.6-13.591 2.5-11 1.163.331 8.993 14.69 14.5 19"/><path fill="url(#b)" d="M528 454c6.969.906 9.079 1.039 16 3-1.915 1.095 3.79 1.922 4 2 1 .348 3.836 1.512 5 2 .236.154-.523 2.324.5 3 13.126 8.68 25.298 14.215 35.5 27.5 21.415 27.888 27.111 83.594 4 111.5-36.44 44-110.586 47.224-150 6a90 90 0 0 1-6-7c-8.933-11.579-16.327-26.373-18-41 21.427 4.9 29.871-4.326 45-15 4.876 12.4 7.794 23.049 18.5 32 .359.3 2.15-.265 2.5 0 7.757 5.88 11.233 9.956 23 11 37.673 3.342 69.851-36.705 43-69-29.912-35.977-78.554-15.098-75 30-.091-.277-2.526-2.506-3-5-1.229-6.465.958-12.904 1-19 4.676-3.299 6.412-10.987 10-15 5.53-6.184 19.251-11.229 27-14.5 1.529-7.229-27.489 6.164-28 11.5l-8 2c-.701-12.478-6.413-29.444-17-37 8.199-6.758 18.825-13.749 29-17 16.069-5.135 24.71-4.117 41-2" style="fill:url(#b)"/>/&gt;<path fill="#98e5f6" d="M540 452c6.456.374 12.546 2.729 19 3 3.533 2.193 5.621 1.956 8 3 15.431 9.643 31.153 15.333 42 31 8.836 12.762 13.559 29.032 17 44l-5 59.5-9-4.5c0-55.904.301-102.13-59-127-3.39-2.215-2.588-1.1-5-2-.211-.073-.946-1.135-4-2-6.921-1.961-9.031-2.094-16-3-.271-3.144 8.862-2.182 12-2m71.5 50c-1.729 1.043.519 6.124 2 7 1.962-1.396-1.435-7.341-2-7"/><path fill="#0587a2" d="M487 453v3c-10.175 3.251-20.801 10.242-29 17-.182-.13-3.184-1.574-4-2 8.225-8.547 21.645-14.616 33-18"/><path fill="#007aa0" d="M685 484c-3.787-.576-.327 4.091 0 4.5 21.28 26.611 31.916 40.058 37 74.5-9.529-32.137-26.686-68.504-57-86-5.034-2.905-12.424-7.023-20-6.5 9.753 6.59 19.939 13.39 28.5 21.5 4.235 4.012 20.34 26.382 22 26 2.132-.49-4.58-6.831.5-7 8.71 12.853 18.61 32.655 23 47.5.549 1.856-.292 12.434 4 10.5 1.176 10.723 4.591 25.252 0 34.5l-1.5-20.5c.405 6.312 1.123 13.173.5 19.5-.077.781-1.985 1.376-2 1.5-.746-5.188-2.49-10.029-4-15 9.814-8.541-9.875-48.345-17-54.5-3.849-3.326-4.915 1.48-7 4.5-27.679-41.555-60.941-71.872-110-84-2.112-.522-4.184-1.578-6-2 38.741 3.52 76.511 8.389 109 31"/><path fill="#32ddfa" d="M341 456c-2.756 6.244-3.803 9.132-5 16-1.521 8.727-1.611 12.553 0 22 2.627 15.407 10.284 34.843 17 49-5.565 3.45-5.833-9.292-8.5-4-3.69-4.875-5.186-9.835-9.5-16.5 3.27 12.563 6.511 24.829 12 36.5-4.414-3.317-6.676-9.206-9-14-2.958-6.101-3.424-2.468-4-3.5-.925-1.657 1.238-4.162 1-5-6.622-23.28-13.857-54.268 0-76 .531-.832 4.236-6.427 6-4.5"/><path fill="#000f22" d="M692 539c10.814 16.235 18.32 31.298 24 50 1.51 4.971 3.254 9.812 4 15-.635 5.148-.119 10.807-1 16-1.043.931-1.203 2.454-2 1.5 1.509-14.293-1.587-24.576-6-37.5-8.752-25.631-27.382-52.799-46.5-71 12.624 23.563 26.19 48.047 33.5 74 7.092 25.178 9.591 48.939 3 74.5l-2-3.5c10.758-47.431-12.357-105.803-39-145-12.337-18.15-22.434-30.261-42-41-8.696-4.773-13.336-5.678-22-9-4.174-1.6-11.491-4.063-14-8 49.059 12.128 82.321 42.445 110 84"/><path fill="#002031" d="M548 459c-.21-.078-5.915-.905-4-2 3.054.865 3.789 1.927 4 2"/><path fill="#001123" d="M599 474c54.251 47.243 54.042 146.661 31 210-6.096 16.757-14.043 28.89-24 43l-4 .5c14.713-19.372 26.825-44.565 32-68.5 11.373-53.196 12.84-127.159-25-170-10.847-15.667-26.569-21.357-42-31 9.312 4.088 18.827 7.553 27.5 13l1-2c1.927 2.01 1.035 2.853 3.5 5"/><path fill="#002031" d="M553 461c-1.164-.488-4-1.652-5-2 2.412.9 1.61-.215 5 2"/><path fill="#fbfcfd" d="M169 463c-17.543 19.143-18.144 37.232-26 62.5l-4 30.5c-1.288-21.025.682-47.366 5-68 4.222-2.326 3.808-9.902 6-13.5 2.034-3.337 19.562-17.491 22-14-.567 1.103-2.46 1.911-3 2.5"/><path fill="#002032" d="M612 588v2c-.029-4.791-1.236-11.635-2-16.5-1.356 11.583-7.187 24.818-12 36-2.146 4.985-6.098 12.43-8 16.5-3.713-.39-3.811 5.105-5 7-40.79 65-117.16 79.558-187 59l2-1c63.066 18.174 140.609 2.86 177.5-55-17.614 6.823-33.392 19.916-49.5 28-39.444 19.797-87.535 24.798-130 13l2-3c27.128 7.894 51.289 8.174 79 3 19.991-3.733 39.157-11.475 56.5-22-11.892-.048-21.287 1.148-33.5 0-4.835-.455-9.249-1.29-14-2-15.806-2.363-31.792-4.565-48-7-34.102-5.123-60.069-10.921-88-32l1-3c29.935 22.685 75.004 31.974 112 33.5-7.848-8.949-15.8-4.509-23.5-6.5-32.15-8.312-61.841-29.372-82.5-55l2-2c14.023 17.374 32.189 30.946 52 41 10.987 5.576 24.184 13.814 36 11.5-6.829-7.94-15.039-10.563-23-15.5-.752-3.395 2.941-2.277 3-2.5.458-1.738-1.932-2.355-2-2.5-2.997-6.406-7.574-11.62-12-17 3.211-4.898.091-3.214-3-7l-5-34c.707.548 2.231 1.548 3 2-1.125 19.079 7.347 34.036 18 49 10.221 14.357 22.33 26.476 38 35 2.857 1.554 18.623 9.078 20.5 9 .25-.01 3.265-3.06 4-3 19.704 1.613 35.755 5.094 55-3 2.596-1.092 10.338-4.371 9.5-8 8.815-3.613 24.461-12.707 31.5-19 4.026-3.599 12.956-10.039 6.5-14 23.111-27.906 17.415-83.612-4-111.5-10.202-13.285-22.374-18.82-35.5-27.5-1.023-.676-.264-2.846-.5-3 59.301 24.87 59 71.096 59 127"/><path fill="#9dc7d0" d="M161 507c-1.369.257-.933.979-1 1-15.815 5.034-1.501 9.735-1 10.5.535.817-.773 17.248-1 19.5-.031.312-2.835 2.996-3 5.5-2.056 31.212 3.642 64.905 9 95.5-12.882-11.362-23.869-64.543-25-83l4-30.5c7.856-25.268 8.457-43.357 26-62.5z"/><path fill="#048ab0" d="M618 472c-1.115 1.378-.473 2.862.5 4 13.201 15.437 24.396 21.955 36.5 41-5.144 4.836 4.535 15.746 7 21.5 2.984 6.965 6.64 16.345 9 23.5 1.325 4.018 5.14 9.602 1 13-1.11-4.402-8.368-27.795-11.5-28-.292-.019-1.842 3.64-5.5 2-9.574-29.862-24.273-53.009-47-74-1.757-1.623-3.375-2.608-5-4-2.351-2.014-4.878-5.66-7-8 8.664 3.322 13.304 4.227 22 9"/><path fill="url(#c)" d="M875 500c4.763-7.051 3.026 14.804 7 10 2.666 27.242 1.964 47.077-3 74h-1c6.193-18.366-19.524-5.76-30-10 .041-35.526-5.813-75.235-13-110 9.562 2.023 27.156 9.995 32 18.5 2.78 4.882 3.408 17.345 6 20 3.789 3.882 2.041-1.75 2-2.5" style="fill:url(#c)"/>/&gt;<path fill="#cfe3e8" d="M331 748c33.454 30.391 67.939 52.565 104.5 77 7.741 5.174 21.746 21.836 24.5 31-2.032-.098-4.718-1.906-6-2-81.003-5.934-144.984-37.832-194-103-50.529-67.18-75.51-158.57-61-242.5 6.151-35.582 17.108-55.858 54-32-5.789 10.831-7.894 28.375-9 41-8.323 94.971 17.484 167.349 87 230.5"/><path fill="#f8fcfc" d="M437 467c.988.032 2.021-.087 3 0 .652.058 1.354-.078 2 0-6.843 6.456-19.629 5.152-28.5 10-6.006 3.282-10.245 13.463-15.5 10 7.801-12.58 12.89-11.116 22-18 .998-.754 1.837-.84 3-2 4.371 1.377 9.179-.158 14 0"/><path fill="#e6e8e7" d="M454 471c.816.426 3.818 1.87 4 2 10.587 7.556 16.299 24.522 17 37 .324 5.761-.965 10.943-1 16-.042 6.096-2.229 12.535-1 19-7.055 1.531-1.688-4.159-9 1-15.129 10.674-23.573 19.9-45 15-.48-.11-8.278-3.575-9-4-.769-.452-2.293-1.452-3-2-14.474-11.224-18.158-30.954-16-48 .64-5.053 1.875-11.382 4-16 .396-.86 2.228-2.754 3-4 5.255 3.463 9.494-6.718 15.5-10 8.871-4.848 21.657-3.544 28.5-10 3.65.444 8.667 2.258 12 4"/><path fill="#0194bf" d="M665 477c11.254 10.908 22.114 20.887 31 34-5.08.169 1.632 6.51-.5 7-1.66.382-17.765-21.988-22-26-8.561-8.11-18.747-14.91-28.5-21.5 7.576-.523 14.966 3.595 20 6.5"/><path fill="#759ea7" d="M816 497c.065.027-.345.403 1 1 16.306 94.084-25.622 166.822-87 232.5-39.09 41.828-84.215 82.168-138 103.5l-8-35c146.757-34.977 236.553-186.951 169-329 18.058 14.132 43.048 18.658 63 27"/><path fill="#001123" d="M603 471c1.625 1.392 3.243 2.377 5 4l-2 2c-1.85-1.386-4.934-2.715-7-4z"/><path fill="#0280a5" d="M660 513c-4.648 3.458-1.724 3.306 0 7l-2 1c-.686-1.167-2.256-2.829-3-4-12.104-19.045-23.299-25.563-36.5-41-.973-1.138-1.615-2.622-.5-4 19.566 10.739 29.663 22.85 42 41"/><path fill="#1c699c" d="M606 477c53.212 39.864 70.084 152.992 47 212-7.29-2.873-17.301.257-23-5 23.042-63.339 23.251-162.757-31-210v-1c2.066 1.285 5.15 2.614 7 4"/><path fill="#000b1c" d="M655 549c10.647 33.209 16.938 81.878 10 116-5.696 28.012-26.669 63.15-45 85l-9.5 11c9.116-5.252 18.965-9.824 27.5-16l-43 24.5c24.722-21.099 46.123-50.139 58-80.5 23.084-59.008 6.212-172.136-47-212l2-2c22.727 20.991 37.426 44.138 47 74"/><path fill="#3dcbe7" d="M722 563c.293 1.987.789 4.076 1 6-4.292 1.934-3.451-8.644-4-10.5-4.39-14.845-14.29-34.647-23-47.5-8.886-13.113-19.746-23.092-31-34 30.314 17.496 47.471 53.863 57 86"/><path fill="#2bd1f2" d="M352 481c-.824 6.333-2.008 12.154 0 18.5l-4 .5c-.513-2.81-1.672-5.423-1-8.5-3.404.936.237 10.024-1 14 5.569 24.437 17.808 50.033 32 70.5 6.145 8.862 12.238 16.522 20 24-1.555-1.146-7.198-2.644-10-5-11.01-9.258-28.619-38.549-35-52-6.716-14.157-14.373-33.593-17-49 10.528-.271 6.556-3.748 8-5.5 2.53-3.07 4.23.58 5.5-.5 1.671-1.421-1.461-7.178 2.5-7"/><path fill="#005f84" d="M685 484c11.756 8.182 21.584 16.37 29 29 14.213 24.206 29.051 85.531 5 107 .881-5.193.365-10.852 1-16 .015-.124 1.923-.719 2-1.5.623-6.327-.095-13.188-.5-19.5l1.5 20.5c4.591-9.248 1.176-23.777 0-34.5-.211-1.924-.707-4.013-1-6-5.084-34.442-15.72-47.889-37-74.5-.327-.409-3.787-5.076 0-4.5"/><path fill="#2795b6" d="M634 659c1.037-4.798 3.71-21.271 4-26.5.137-2.467.974-6.54-3-6.5 1.574-15.085 2.04-38.765-1-53.5-.495-2.4 1.273-4.03-3-3.5-.229-14.165-1.898-22.506-5-36-3.441-14.968-8.164-31.238-17-44 37.84 42.841 36.373 116.804 25 170"/><path fill="#046778" d="M348 500c4.362 23.894 16.889 55.042 31 75l-1 1c-14.192-20.467-26.431-46.063-32-70.5 1.237-3.976-2.404-13.064 1-14-.672 3.077.487 5.69 1 8.5"/><path fill="#2b85aa" d="m484 511-1-3c.511-5.336 29.529-18.729 28-11.5-7.749 3.271-21.47 8.316-27 14.5"/><path fill="#5c868f" d="M830 508c2.395 6.609 4.671 36.174 5 44.5 6.382 161.521-111.688 300.522-270 325.5v-34c8.985-2.549 18.293-6.546 27-10 53.785-21.332 98.91-61.672 138-103.5 61.378-65.678 103.306-138.416 87-232.5 3.12 1.386 6.376 2.58 9.5 4 .274 1.615 3.382 5.673 3.5 6"/><path fill="url(#d)" d="M551 520c17.203 29.385-4.493 65.458-39 63-7.383-.526-12.532-4.831-18-6-9.694-7.12-14.3-15.75-18-27-3.554-45.098 45.088-65.977 75-30m-17.5 12c-9.476 2.824-7.733 22.045 6 20 13.085-1.948 10.611-24.951-6-20" style="fill:url(#d)"/>/&gt;<path fill="#6ad6ef" d="M611.5 502c.565-.341 3.962 5.604 2 7-1.481-.876-3.729-5.957-2-7"/><path fill="#68969d" d="M177 507c.754 3.538-.697 6.887-1 10h-16.5l.5-9c.067-.021-.369-.743 1-1 4.514-.849 11.186.618 16 0"/><path fill="#57bedc" d="m483 508 1 3c-3.588 4.013-5.324 11.701-10 15 .035-5.057 1.324-10.239 1-16z"/><path fill="#1c699c" d="M727 522c.577.659 1.312 1.173 2 2-7.6 6.008-10.955-5.032-14-11-.879-1.722-3.224-4.215-2.5-6 4.386 5.354 9.974 9.826 14.5 15"/><path fill="#85b3bb" d="m160 508-.5 9H176c-.569 5.861-.665 12.096-1 18l-17 3c.227-2.252 1.535-18.683 1-19.5-.501-.765-14.815-5.466 1-10.5"/><path fill="#071a49" d="M753 509c24.138 79.612-.783 161.567-60.5 218-78.46 74.145-200.827 87.295-298.5 34 2.909-7.53 8.681-9.79 12-18h1c4.789 3.391 9.673 6.483 15 9-3.307 2.119-.851 2.688 1.5 4 15.478 8.64 41.118 13.038 58.5 11-.77 4.877 4.504 2.051 9 4 .229.099-.242 1.549 4 3 5.775 1.976 9.81 3.259 16 4 24.002 2.873 44.975-2.121 64-17 13.631-7.969 22.165-21.48 31-34 9.957-14.11 17.904-26.243 24-43 5.699 5.257 15.71 2.127 23 5-11.877 30.361-33.278 59.401-58 80.5l43-24.5c26.871-19.444 53.593-54.345 61-87l2 3.5c6.591-25.561 4.092-49.322-3-74.5l13-3c4.413 12.924 7.509 23.207 6 37.5.797.954.957-.569 2-1.5 24.051-21.469 9.213-82.794-5-107h1c3.045 5.968 6.4 17.008 14 11 1.626 1.954 2.01 6.917 5 7.5-1.356-3.596-1.235-8.109-2-11.5z"/><path fill="#006d91" d="M699 658c-7.407 32.655-34.129 67.556-61 87-8.535 6.176-18.384 10.748-27.5 16l9.5-11c16.784-9.243 37.894-29.921 46-47.5 7.885-17.099-2.411-8.984-4-13-.475-1.201 7.016-20.547 6-25l-3 .5c6.938-34.122.647-82.791-10-116 3.658 1.64 5.208-2.019 5.5-2 3.132.205 10.39 23.598 11.5 28 1.135 4.502 1.233 6.912 2 11 3.812 20.318 5.083 49.278 4 72.5-.273 5.857-2.807 12.074-3 18 8.768-7.54 9.587-22.638 11-33.5 7.24-55.653-3.814-75.471-26-123-1.724-3.694-4.648-3.542 0-7 26.643 39.197 49.758 97.569 39 145"/><path fill="#1c699c" d="m711 584-13 3c-7.31-25.953-20.876-50.437-33.5-74 19.118 18.201 37.748 45.369 46.5 71"/><path fill="#39b7dc" d="M658 521c7.176 12.214 11.908 25.756 18 38.5.81 3.003-2.812 1.995-5 2.5-2.36-7.155-6.016-16.535-9-23.5-2.465-5.754-12.144-16.664-7-21.5.744 1.171 2.314 2.833 3 4"/><path fill="#2077a5" d="M508 589c4.072-1.837 4.514-.619 4-6 34.507 2.458 56.203-33.615 39-63 26.851 32.295-5.327 72.342-43 69"/><path fill="#23a6cc" d="M660 520c22.186 47.529 33.24 67.347 26 123l-3-35.5c-3.411-4.607-1.931-22.212-9-21.5-.767-4.088-.865-6.498-2-11 4.14-3.398.325-8.982-1-13 2.188-.505 5.81.503 5-2.5-6.092-12.744-10.824-26.286-18-38.5z"/><path fill="#c3f5fe" d="M353 543c6.381 13.451 23.99 42.742 35 52 3.727 11.904 17.948 17.47 25 27-19.811-10.054-37.977-23.626-52-41-5.617-6.959-10.172-13.861-14-22-5.489-11.671-8.73-23.937-12-36.5 4.314 6.665 5.81 11.625 9.5 16.5 2.667-5.292 2.935 7.45 8.5 4"/><path fill="#066e8a" d="m353 611-1 3c-24.154-18.229-40.585-42.089-43-73 1.407-2.517-3.834-11.831 1-11.5.652 32.437 17.543 62.209 43 81.5"/><path fill="#fdfdfd" d="M533.5 532c16.611-4.951 19.085 18.052 6 20-13.733 2.045-15.476-17.176-6-20"/><path fill="#61c3dd" d="M631 569c.541 33.462-9.562 77.26-23 108-15.399 35.226-51.298 83.065-90 92 11.78-3.44 24.333-12.464 33-21 6.196-2.152 15.868-12.936 20-18.5 20.484-27.581 37.198-73.507 37-107.5 1.894-10.497 4.065-21.267 4-32v-2l9 4.5 5-59.5c3.102 13.494 4.771 21.835 5 36"/><path fill="#006184" d="M716 589c-5.68-18.702-13.186-33.765-24-50 2.085-3.02 3.151-7.826 7-4.5 7.125 6.155 26.814 45.959 17 54.5"/><path fill="#6d9aa1" d="M175 535c-2.146 37.88-1.525 76.651 8 113.5-1.503 1.956-6.931-1.662-8.5-2.5-2.432-1.299-8.498-5.234-10.5-7-5.358-30.595-11.056-64.288-9-95.5.165-2.504 2.969-5.188 3-5.5z"/><path fill="#6de0f8" d="M309 541c2.415 30.911 18.846 54.771 43 73 27.931 21.079 53.898 26.877 88 32-9.881 7.707-24.751-1.434-36 1-1.118-.367-3.496-.477-5-1-9.612-3.341-19.203-9.859-29-10-12.933-8.445-29.769-20.059-40-31.5-3.717-4.157-7.855-15.917-13-14.5-2.467-5.911-3.902-12.455-6-18.5-.862-2.483-.568-5.236-4-4.5-.476-4.772-1.158-8.469-1-13.5.061-1.947.548-11.784 3-12.5"/><path fill="#1d91b8" d="M473 545c.474 2.494 2.909 4.723 3 5 3.7 11.25 8.306 19.88 18 27-2.624-.561-6.345.27-9 1-.35-.265-2.141.3-2.5 0-10.706-8.951-13.624-19.6-18.5-32 7.312-5.159 1.945.531 9-1"/><path fill="#004e62" d="M347 559c3.828 8.139 8.383 15.041 14 22l-2 2c-6.113-7.583-12.384-15.914-17-24.5-1.573-2.925-5.682-10.132-4-13.5 2.324 4.794 4.586 10.683 9 14"/><path fill="#02a7ce" d="M419 561c1.673 14.627 9.067 29.421 18 41l-9 4c-10.653-14.964-19.125-29.921-18-49 .722.425 8.52 3.89 9 4"/><path fill="#16a3c8" d="M317 590c9.647 23.118 25.562 42.649 47 56-2.449 2.332-5.469 4.043-5 8-15.582-10.764-26.488-21.157-36-38-8.315-14.723-14.323-32.174-16-49 3.432-.736 3.138 2.017 4 4.5 2.098 6.045 3.533 12.589 6 18.5"/><path fill="#1591b6" d="M635 626c-1.949 18.68-7.855 36.709-15 54l-12-3c13.438-30.74 23.541-74.538 23-108 4.273-.53 2.505 1.1 3 3.5 3.04 14.735 2.574 38.415 1 53.5"/><path fill="#00172c" d="M612 590c.065 10.733-2.106 21.503-4 32-4.483 24.844-12.864 48.958-25 71-20.807 37.79-50.377 64.617-92 78-4.496-1.949-9.77.877-9-4 42.335-4.963 79.485-42.272 99-78 17.273-31.623 23.701-64.601 29-99.5-14.446 26.764-19.463 56.165-35 82.5-4.156 7.044-8.963 14.577-14 21-8.104 10.335-19.609 21.946-30 30-16.429 12.734-37.202 23.683-58 27l-1-4c44.399-5.939 84.307-45.221 104-83.5-1.045-5.423-8.308 10.155-9 11-22.578 27.56-60.867 50.629-96 56.5-14.467 2.417-25.508 2.727-40 2l-1-3c69.868 5.108 125.353-31.791 155-93 .305-.629.671-1.32 1-2 1.29-2.662 2.746-5.317 4-8 1.902-4.07 5.854-11.515 8-16.5 4.813-11.182 10.644-24.417 12-36 .764 4.865 1.971 11.709 2 16.5"/><path fill="#59838c" d="M878 584c-7.377 7.358-19.678 3.785-20.5 17l12.5-.5c-3.932 4.652-9.748 6.153-15 8.5 1.566-8.793.238-7.951-8-6 .765-9.273.989-19.662 1-29 10.476 4.24 36.193-8.366 30 10"/><path fill="#004155" d="M427 613c.068.145 2.458.762 2 2.5-.059.223-3.752-.895-3 2.5-10.294-6.384-17.961-10.597-28-18-7.762-7.478-13.855-15.138-20-24l1-1c9.415 13.316 29.055 30.514 43.5 38 1.03.534 4.077 2.016 4.5 0"/><path fill="#195f88" d="M494 577c5.468 1.169 10.617 5.474 18 6 .514 5.381.072 4.163-4 6-11.767-1.044-15.243-5.12-23-11 2.655-.73 6.376-1.561 9-1"/><path fill="#6c99a2" d="M879 584c-2.332 12.645-5.056 25.108-10 37-4.785-1.333-10.094-1.307-15-1-.012-3.655.009-7.345 0-11 .278-.124.722.124 1 0 5.252-2.347 11.068-3.848 15-8.5l-12.5.5c.822-13.215 13.123-9.642 20.5-17z"/><path fill="#0280a7" d="M686 643c-1.413 10.862-2.232 25.96-11 33.5.193-5.926 2.727-12.143 3-18 1.083-23.222-.188-52.182-4-72.5 7.069-.712 5.589 16.893 9 21.5z"/><path fill="#33bbde" d="M370 636c8.905 5.815 17.224 13.443 28 15.5l1-5.5c1.504.523 3.882.633 5 1 3.159 1.037 7.822 3.976 11.5 5 1.891.526 30.432 2.297 21 9-1.546 1.099-9.966-1.592-12 1 13.005-1.01 28.48 1.797 41-1 .979-.219.021-2.785 1-3 7.104-1.561 14.754-1.92 21.5-5 4.751.71 9.165 1.545 14 2-6.084 8.698-25.342 14.741-36 16-27.307 3.225-78.627-10.444-102-25-21.438-13.351-37.353-32.882-47-56 5.145-1.417 9.283 10.343 13 14.5 10.231 11.441 27.067 23.055 40 31.5"/><path fill="#087496" d="m581 689-6-2c.222-.862-.185-2.087 0-3 .296-1.463-1.032-9.206 0-12 15.537-26.335 20.554-55.736 35-82.5-5.299 34.899-11.727 67.877-29 99.5"/><path fill="#6deafd" d="M398 600c10.039 7.403 17.706 11.616 28 18 7.961 4.937 16.171 7.56 23 15.5-11.816 2.314-25.013-5.924-36-11.5-7.052-9.53-21.273-15.096-25-27 2.802 2.356 8.445 3.854 10 5"/><path fill="#028db2" d="M437 602a90 90 0 0 0 6 7c6.192 8.755 14.832 19.141 24 25-3.713 1.24-.277 3.87-1 7-15.67-8.524-27.779-20.643-38-35z"/><path fill="#3c676f" d="M855 609c-.278.124-.722-.124-1 0-3.102 1.381-5.353 4.244-9 4 .342-3.192 1.756-7.046 2-10 8.238-1.951 9.566-2.793 8 6"/><path fill="#24cff1" d="M555 636c-27.892 11.432-61.537 14.913-88-2-9.168-5.859-17.808-16.245-24-25 39.414 41.224 113.56 38 150-6 6.456 3.961-2.474 10.401-6.5 14-7.039 6.293-22.685 15.387-31.5 19"/><path fill="#4a757e" d="M854 620c-2.635.165-6.69 1.918-10 1 .333-2.682.708-5.272 1-8 3.647.244 5.898-2.619 9-4 .009 3.655-.012 7.345 0 11"/><path fill="#024b67" d="M359 654c13.691 9.457 24.952 15.331 41 20l-2 3c-10.984-3.052-19.398-8.55-29-12 1.582-2.225.285-1.793-1.5-3-18.234-12.333-34.33-20.745-44.5-42 .302-1.782-2.33-3.298 0-4 9.512 16.843 20.418 27.236 36 38"/><path fill="#0687ac" d="M369 665c-15.62-5.612-4.707 3.893 1.5 8 26.402 17.47 113.684 26.282 141 11 6.172-3.453 14.667-13.095 16.5-20 16.108-8.084 31.886-21.177 49.5-28-36.891 57.86-114.434 73.174-177.5 55-13.15-3.79-36.797-15.058-47-24-4.841-4.242-17.953-24.654-19.5-25-2.79-.624-3.024 2.338-5.5 2-2.122-3.497-4.122-9.581-8-11 .14-4.363 2.797-3.353 3-5.5.135-1.432-.968-1.793 0-7.5 10.17 21.255 26.266 29.667 44.5 42 1.785 1.207 3.082.775 1.5 3"/><path fill="#3a656e" d="M856 637c-4.205 3.17-7.904 6.2-13 8l-1-9c.628-4.985 1.379-10.007 2-15 3.31.918 7.365-.835 10-1 .019 5.763-.272 11.533 2 17"/><path fill="#4d7880" d="M869 621c-.737 1.773-2.615 8.944-3 9.5-2.747 3.963-6.878 4.147-10 6.5-2.272-5.467-1.981-11.237-2-17 4.906-.307 10.215-.333 15 1"/><path fill="#127e9f" d="M551 748c8.591-8.461 32.004-41.506 34-52.5.45-2.478.649-.963-2-2.5 12.136-22.042 20.517-46.156 25-71 .198 33.993-16.516 79.919-37 107.5-4.132 5.564-13.804 16.348-20 18.5"/><path fill="#006a91" d="M590 626c-1.254 2.683-2.71 5.338-4 8l-1-1c1.189-1.895 1.287-7.39 5-7"/><path fill="#006082" d="M634 659c-5.175 23.935-17.287 49.128-32 68.5l4-.5c-8.835 12.52-17.369 26.031-31 34 5.422-4.24 14.182-12.727 18-18.5.521-.787 4.381-6.732 2.5-7.5-13.422 13.758-31.531 29.869-50 36-1.262.419-8.179 3.049-6.5-1 38.613-13.998 65.904-53.468 81-90 7.145-17.291 13.051-35.32 15-54 3.974-.04 3.137 4.033 3 6.5-.29 5.229-2.963 21.702-4 26.5"/><path fill="#53d0eb" d="M328 644c6.667 10.988 12.796 18.058 23 26 16.144 12.564 27.606 16.291 47 22 69.84 20.558 146.21 6 187-59l1 1c-.329.68-.695 1.371-1 2-7.926 9.019-14.48 19.482-23 28-26.4 26.393-51.585 35.175-87 42 3.698-5.61-7.369-1.061-8.5-1-12.698.685-46.507.267-58-3-.763-.217-4.778-1.398-3-3h8l-61-19c-3.274-2.643-20.374-24.068-22-24-4.388.183 3.215 10.209 3.5 11 .835 2.318 2.039 5.081-1 6-5.942-11.02-13.409-27.295-13-40 3.878 1.419 5.878 7.503 8 11"/><path fill="#00678b" d="M555 636c.838 3.629-6.904 6.908-9.5 8-19.245 8.094-35.296 4.613-55 3-.735-.06-3.75 2.99-4 3-1.877.078-17.643-7.446-20.5-9 .723-3.13-2.713-5.76 1-7 26.463 16.913 60.108 13.432 88 2"/><path fill="#4fd3f0" d="m399 646-1 5.5c-10.776-2.057-19.095-9.685-28-15.5 9.797.141 19.388 6.659 29 10"/><path fill="#006789" d="M430 729c-16.741-1.224-37.511-6.863-52-13 3.883-5.879-18.005-8.387-10.5-14 3.854-2.882 33.275 11.116 40 13 46.764 13.098 128.87-2.946 155.5-47.5 1.935-3.237.212-1.522-1-3.5 8.52-8.518 15.074-18.981 23-28-29.647 61.209-85.132 98.108-155 93"/><path fill="#55848e" d="M843 645c-.158.056-1.251 3.324-3 1.5-.617-1.036 1.773-8.698 2-10.5z"/><path fill="#0a678a" d="m353 667-2 3c-10.204-7.942-16.333-15.012-23-26 2.476.338 2.71-2.624 5.5-2 1.547.346 14.659 20.758 19.5 25"/><path fill="#1a8fb2" d="M466 671c5.477 4.287 9.677-.075 13 6-27.711 5.174-51.872 4.894-79-3-16.048-4.669-27.309-10.543-41-20-.469-3.957 2.551-5.668 5-8 23.373 14.556 74.693 28.225 102 25"/><path fill="#4fd3f0" d="M440 646c16.208 2.435 32.194 4.637 48 7-6.746 3.08-14.396 3.439-21.5 5-.979.215-.021 2.781-1 3-12.52 2.797-27.995-.01-41 1 2.034-2.592 10.454.099 12-1 9.432-6.703-19.109-8.474-21-9-3.678-1.024-8.341-3.963-11.5-5 11.249-2.434 26.119 6.707 36-1"/><path fill="#239dbf" d="M479 677c-3.323-6.075-7.523-1.713-13-6 10.658-1.259 29.916-7.302 36-16 12.213 1.148 21.608-.048 33.5 0-17.343 10.525-36.509 18.267-56.5 22"/><path fill="#0297c3" d="M475 706c-40.34 7.774-78.19 8.007-113.5-16-9.944-6.761-15.205-15.964-23-22-.345-.268-4.331-3.087-4.5-1-.285-.791-7.888-10.817-3.5-11 1.626-.068 18.726 21.357 22 24l61 19h-8c-1.778 1.602 2.237 2.783 3 3 11.493 3.267 45.302 3.685 58 3 1.131-.061 12.198-4.61 8.5 1"/><path fill="#006c91" d="M472 746c-20.489 2.741-44.476-.123-64-7-7.23-2.547-28.79-13.186-33-19 2.132-2.439.711-1.704 3.5-1 16.14 4.072 23.876 11.149 44.5 13 16.001 6.869 34.111 8.436 50.5 2l-2.5-4c35.133-5.871 73.422-28.94 96-56.5.692-.845 7.955-16.423 9-11-19.693 38.279-59.601 77.561-104 83.5"/><path fill="#029cc3" d="M369 665c9.602 3.45 18.016 8.948 29 12 42.465 11.798 90.556 6.797 130-13-1.833 6.905-10.328 16.547-16.5 20-27.316 15.282-114.598 6.47-141-11-6.207-4.107-17.12-13.612-1.5-8"/><path fill="#007fa6" d="M378 716c-.444-.188-1.567.189-2 0-19.848-8.667-32.98-24.417-43-43 3.039-.919 1.835-3.682 1-6 .169-2.087 4.155.732 4.5 1 7.795 6.036 13.056 15.239 23 22 35.31 24.007 73.16 23.774 113.5 16 35.415-6.825 60.6-15.607 87-42 1.212 1.978 2.935.263 1 3.5-26.63 44.554-108.736 60.598-155.5 47.5-6.725-1.884-36.146-15.882-40-13-7.505 5.613 14.383 8.121 10.5 14"/><path fill="#005276" d="M620 750c18.331-21.85 39.304-56.988 45-85l3-.5c1.016 4.453-6.475 23.799-6 25 1.589 4.016 11.885-4.099 4 13-8.106 17.579-29.216 38.257-46 47.5"/><path fill="#014d6a" d="m400 691-2 1c-19.394-5.709-30.856-9.436-47-22l2-3c10.203 8.942 33.85 20.21 47 24"/><path fill="#159dc3" d="M575 684c-10.836 3.689-13.986 16.901-20 24-25.678 30.307-66.115 50.928-106.5 48l7.5-2c1.729-.081 8.889-1.194 6-3 3.613-.233 7.437-.432 11-1 20.798-3.317 41.571-14.266 58-27 5.095-1.328 12.349-7.835 16-11.5 5.201-5.22 10.784-11.769 14-18.5 5.037-6.423 9.844-13.956 14-21-1.032 2.794.296 10.537 0 12"/><path fill="#017ca2" d="M620 680c-15.096 36.532-42.387 76.002-81 90l-28 8c-6.19-.741-10.225-2.024-16-4 6.104-4.359 15.508-2.812 23-5 38.702-8.935 74.601-56.774 90-92z"/><path fill="#078cb1" d="M575 684c-.185.913.222 2.138 0 3-1.201 4.658-13.417 17.325-17 22l-3-1c6.014-7.099 9.164-20.311 20-24"/><path fill="#057" d="M581 689c-19.515 35.728-56.665 73.037-99 78-17.382 2.038-43.022-2.36-58.5-11-2.351-1.312-4.807-1.881-1.5-4 57.949 27.381 101.037 2.622 136-43 3.583-4.675 15.799-17.342 17-22z"/><path fill="#6ae0f1" d="M531 723c10.391-8.054 21.896-19.665 30-30-3.216 6.731-8.799 13.28-14 18.5-3.651 3.665-10.905 10.172-16 11.5"/><path fill="#016589" d="M551 748c-8.667 8.536-21.22 17.56-33 21-7.492 2.188-16.896.641-23 5-4.242-1.451-3.771-2.901-4-3 41.623-13.383 71.193-40.21 92-78 2.649 1.537 2.45.022 2 2.5-1.996 10.994-25.409 44.039-34 52.5"/><path fill="#006f98" d="M558 709c-34.963 45.622-78.051 70.381-136 43-5.327-2.517-10.211-5.609-15-9 4.028-.127 8.875 1.937 13 3-1.991 1.91 1.432 2.708 2.5 3 8.737 2.387 24.682 5.413 33.5 5l-7.5 2c40.385 2.928 80.822-17.693 106.5-48z"/><path fill="#003655" d="M376 716c.433.189 1.556-.188 2 0 14.489 6.137 35.259 11.776 52 13l1 3c-2.633-.132-5.385.235-8 0-20.624-1.851-28.36-8.928-44.5-13-2.789-.704-1.368-1.439-3.5 1-1.617-2.233-4.788-3.881 1-4"/><path fill="#0285ad" d="M423 732c2.615.235 5.367-.132 8 0 14.492.727 25.533.417 40-2l2.5 4c-16.389 6.436-34.499 4.869-50.5-2"/><path fill="#004b6d" d="M575 761c-19.025 14.879-39.998 19.873-64 17l28-8c-1.679 4.049 5.238 1.419 6.5 1 18.469-6.131 36.578-22.242 50-36 1.881.768-1.979 6.713-2.5 7.5-3.818 5.773-12.578 14.26-18 18.5"/><path fill="#8eb6bf" d="M339 738c66.471 56.465 159.674 81.336 245 61l8 35c-8.707 3.454-18.015 7.451-27 10-30.889 8.763-72.92 13.551-105 12-2.754-9.164-16.759-25.826-24.5-31-36.561-24.435-71.046-46.609-104.5-77Z"/><path fill="#002d4b" d="m472 746 1 4c-3.563.568-7.387.767-11 1-16.025 1.031-26.71-1.06-42-5-4.125-1.063-8.972-3.127-13-3h-1c.244-.603-2.255-1.739 2-4 19.524 6.877 43.511 9.741 64 7"/><path fill="#39b2ce" d="M462 751c2.889 1.806-4.271 2.919-6 3-8.818.413-24.763-2.613-33.5-5-1.068-.292-4.491-1.09-2.5-3 15.29 3.94 25.975 6.031 42 5"/><path fill="#8eb6bf" d="m454 854-2.5 22-17.5-2c-73.88-16.54-136.091-56.46-182-116l8-7c49.016 65.168 112.997 97.066 194 103"/><path fill="#749da6" d="M565 844v34c-45.959 7.251-85.649 6.153-131-4l17.5 2 2.5-22c1.282.094 3.968 1.902 6 2 32.08 1.551 74.111-3.237 105-12"/><path fill="#65888f" d="M583 896v1c-12.897 16.083-38.751 12.879-57.5 13-16.02.103-58.337.304-71-7-2.315-1.335-5.023-3.877-4.5-7 48.708.785 80.74 10.756 133 0"/></svg>