<svg xmlns="http://www.w3.org/2000/svg" width="1024" height="1024"><defs><linearGradient id="a" x1="357.121" x2="617.168" y1="431.891" y2="518.213" gradientUnits="userSpaceOnUse"><stop offset="0%" style="stop-color:#b4c9d2"/><stop offset="78.102%" style="stop-color:#667f89"/></linearGradient></defs><defs><linearGradient id="b" x1="266.377" x2="744.308" y1="700.641" y2="794.187" gradientUnits="userSpaceOnUse"><stop offset="21.766%" style="stop-color:#37a6c8"/><stop offset="100%" style="stop-color:#093d66"/></linearGradient></defs><path fill="#073750" d="m789 327-7 1c-15.548-23.433-34.047-43.346-55-62-26.842-23.896-50.718-39.272-83-55-45.003-21.925-105.254-35.42-130.5-82-.993-.139-2.838 3.891-3.5 5h-2c1.252-1.666 3.561-9.204 5.5-9 29.865 45.138 85.263 56.054 131 77 61.557 28.191 108.38 67.899 144.5 125"/><path fill="#c5e0ea" d="m644 211-3 9c-1.537.062-3.613-.441-5-1-14.434-5.816-28.629-7.472-42.5-15-16.219-8.801-34.106-25.694-48-38l-9.5 8.5c20.867 20.904 44.146 39.938 70.5 53.5 6.443 3.316 17.131 5.623 23.5 9 9.702 5.145 19.536 10.429 29 16-9.388 26.937-2.73 55.607-4 83.5l-5.5-70.5c-4.452 24.54 1.938 51.444-10.5 74-8.76-8.423-22.501-19.179-34-23-3.777-3.224-8.028-5.247-12-8-65.928-45.698-159.101-28.208-203 39-21.266 13.804-40.398 49.664-43 74.5-11.317 108.003 89.474 195.63 195 177.5l-2.5 36c-21.289.459-42.639-2.183-64-1-.41.023-1.586 1.974-2 2-59.979 3.793-144.479 11.395-194-29-27.367-22.324-42.914-54.676-66.5-80-11.19-49.334-1.719-104.558 17-151 19.378-48.077 54.814-84.567 97-113-.506 3.036 2.007 1.163 3 .5 61.792-41.242 146.606-29.321 176-108 1.587-4.247 5.482-14.75 3-18.5.266-.409.718-3.528 1-4 .662-1.109 2.507-5.139 3.5-5 25.246 46.58 85.497 60.075 130.5 82m-252.5 37c-3.353.454-31.136 12.801-31.5 14.5l12.5 24.5c10.072-3.213 40.091-22.665 36.5-34.5-3.579-5.337-11.6-5.299-17.5-4.5m-46 20c-43.03 29.224-86.522 62.625-99 116 25.501-45.625 74.604-66.037 117.5-91.5z"/><path fill="#1a5673" d="M510 134c-.282.472-.734 3.591-1 4-26.798 41.198-101.295 56.948-144.5 80-66.064 35.249-120.511 92.39-148.5 162-8.109 4.983-4.681 27.374-16 19 41.263-87.878 72.53-141.497 162.5-189 44.577-23.536 115.619-36.224 145.5-76z"/><path fill="#bdd1da" d="M327 264c24.678-16.632 50.559-31.048 79-40.5-78.032 10.589-144.666 84.036-178 151.5-28.056 56.782-42.815 130.253-16 190-.848-1.382-5.358-4.777-5.5-8l-.5 3c-20.809-59.898-13.275-122.115 10-180 27.989-69.61 82.436-126.751 148.5-162 43.205-23.052 117.702-38.802 144.5-80 2.482 3.75-1.413 14.253-3 18.5-29.394 78.679-114.208 66.758-176 108-.993.663-3.506 2.536-3-.5"/><path fill="#9cc0d0" d="m636 219-6 18c-6.369-3.377-17.057-5.684-23.5-9-26.354-13.562-49.633-32.596-70.5-53.5l9.5-8.5c13.894 12.306 31.781 29.199 48 38 13.871 7.528 28.066 9.184 42.5 15m91 47c-3.573-1.641-6.117 5.463-7.5 9L641 220l3-9c32.282 15.728 56.158 31.104 83 55"/><path fill="#7ba8bc" d="m641 220 78.5 55c1.383-3.537 3.927-10.641 7.5-9 20.953 18.654 39.452 38.567 55 62 26.22 39.516 45.239 89.368 49 137-3.819-5.917-18.916 2.632-20 5.5-1.078 2.852 1.807 7.152 1 10-14.555 51.37-58.838 118.451-105.5 145.5-2.401 1.392-15.18 5.723-15.5 6.5-.231.563 3.051 9.83 2 12 36.124-6.208 72.443-19.597 92.5-52.5l10.5 11c-16.442 22.657-32.348 37.036-60 44-21.049 5.301-32.61 5.275-53.5 5-3.133-.041-9.431 2.476-13 2-.949-.127-.483-6.023-8-1 2.035-8.765-9.957.437-10.5-7 25.565.089 29.145-35.242 21-53.5 11.457-.473 22.395-1.502 32.5-7.5 49.827-29.576 9.866-93.864-5.5-131 2.661-1.116 5.297-3.205 7-5.5 17.291-23.291 19.808-92.361 29-122 .836-2.696 5.998-8.459 6-9 .03-7.83-71.271-58.185-82-64.5-9.464-5.571-19.298-10.855-29-16l6-18c1.387.559 3.463 1.062 5 1"/><path fill="#f1fdfe" d="M327 264c-42.186 28.433-77.622 64.923-97 113l-2-2c33.334-67.464 99.968-140.911 178-151.5-28.441 9.452-54.322 23.868-79 40.5"/><path fill="#fefefe" d="M391.5 248c5.9-.799 13.921-.837 17.5 4.5 3.591 11.835-26.428 31.287-36.5 34.5L360 262.5c.364-1.699 28.147-14.046 31.5-14.5"/><path fill="#9cc0d0" d="M699 454c-3.383-8.176-8.397-15.592-12-24-4.077-9.513-6.588-23.368-11-34-8.543-20.588-20.851-40.472-37-56 12.438-22.556 6.048-49.46 10.5-74l5.5 70.5c1.27-27.893-5.388-56.563 4-83.5 10.729 6.315 82.03 56.67 82 64.5-.002.541-5.164 6.304-6 9-9.192 29.639-11.709 98.709-29 122-1.703 2.295-4.339 4.384-7 5.5"/><path fill="#fdfefe" d="m345.5 268 18.5 24.5c-42.896 25.463-91.999 45.875-117.5 91.5 12.478-53.375 55.97-86.776 99-116"/><path fill="#164861" d="M593 309v1c-9.225-6.484-20.922-13.526-32-16-11.853-4.513-24.448-6.202-37-7-48.859-3.107-93.894 15.436-124 54-29.504 37.792-37.788 77.643-27 125 1.693 7.432 4.962 16.978 8 24l-1 1c-19.802-45.924-17.721-100.559 10-143 43.899-67.208 137.072-84.698 203-39"/><path fill="#389eba" d="M524 287c-.003 3.648 1.052 3.285-2.5 4-7.08 1.425-19.013.603-27.5 2-27.014 4.446-51.177 14.838-72.5 32-6.437 5.181-13.404 17.954-21.5 16 30.106-38.564 75.141-57.107 124-54"/><path fill="#46bedb" d="M561 294c-18.397-4.108-48.433-2.52-67 1v-2c8.487-1.397 20.42-.575 27.5-2 3.552-.715 2.497-.352 2.5-4 12.552.798 25.147 2.487 37 7"/><path fill="#189dc3" d="M561 294c11.078 2.474 22.775 9.516 32 16 51.996 36.546 74.143 98.695 57 160-2.326.26-4.04 5.014-5 7 5.485-19.646 7.568-37.543 6-58-.576-7.514-1.417-12.7-3-20-6.558-30.251-23.606-59.513-47.5-79l-9.5 17c-6.418-3.909-13.904-6.378-20.5-10l-16.5-4.5c99.261 31.903 103.984 162.758 15 211.5-1.151.63-2.785 1.4-4 2-2.158 1.066-5.821 2.993-8 4-1.501.693-5.952 1.028-8 2-15.164 7.199-33.085 12.198-47 23-9.662.376-24.468 1.761-31-8-2.576-3.85-1.915-13.858-9-15-2.145-8.738-8.76-9.962-17-13-.79-2.915-1.345-4.151 3-5 2.616 1 5.161 1.631 7-1 48.269 26.53 107.328 16.936 142-26.5 61.197-76.665-4.737-185.207-101-173.5 1.615-9.429-2-18.639-2-28 18.567-3.52 48.603-5.108 67-1"/><path fill="#b8f7fe" d="M494 293v2c-73.28 13.892-125.838 80.208-116 155.5 1.889 5.053 14.911-.236 16 8.5-9.126-5.402-20.526-7.987-18 7l-.5 2-2.5-2c-10.788-47.357-2.504-87.208 27-125 8.096 1.954 15.063-10.819 21.5-16 21.323-17.162 45.486-27.554 72.5-32"/><path fill="#20c2df" d="M494 295c0 9.361 3.615 18.571 2 28-99.224 12.067-130.237 150.953-41 200-1.839 2.631-4.384 2-7 1-16.454-6.288-31.548-33.18-41-47-4.03-5.892-5.03-10.984-11-16-.868-.73-1.878-1.928-2-2-1.089-8.736-14.111-3.447-16-8.5-9.838-75.292 42.72-141.608 116-155.5"/><path fill="#042232" d="M605 317c17.446 14.892 25.786 34.908 39 48 1.6 3.301 8.979 24.587 10 25.5 1.288 1.152 4.024.088 4.5.5 13.345 11.559 18.256 25.099 28.5 39 3.603 8.408 8.617 15.824 12 24 15.366 37.136 55.327 101.424 5.5 131-10.105 5.998-21.043 7.027-32.5 7.5 8.145 18.258 4.565 53.589-21 53.5-2.886-.01-3.47-.265-6-1-3.402-.989-11.07-6.355-13-9-18.219-24.963 10.413-52.064 8-68.5-.127-.863-6.788-11.571-8-15.5-3.446-11.172-2.947-18.403-3.5-30-70.883 85.156-202.965 74.602-248.5-31l1-1c6.503 15.033 16.791 29.202 28 41 11.995 12.625 25.064 22.813 41 30 78.132 40.909 176.718-7.742 200-91 17.143-61.305-5.004-123.454-57-160v-1c3.972 2.753 8.223 4.776 12 8m50 141c-4.295 19.079-14.572 36.787-19 55-8.16 33.566 11.576 80.402 51 72 52.238-11.133 31.122-72.954 18-105-6.258-15.284-13.15-28.558-21-43-7.855-14.45-13.681-31.802-27.5-42 4.492 21.589 3.315 41.611-1.5 63m9 130c-2.173-1.675-5.917-3.341-8-5-.972-.774-1.562-1.985-3-3-2.353-1.66-4.612-3.349-7-5-.408-.282-2.916-4.128-3.5-4l-1.5 1.5c-1.312 1.52-12.722 35.206-13 38-3.956 39.73 46.041 42.669 45 0-.038-1.551-3.485-19.12-4-20-1.18-2.018-4.319-1.975-5-2.5"/><path fill="#6e858e" d="M639 340c16.149 15.528 28.457 35.412 37 56-7.237-6.312-11.741-15.15-18.5-22-3.29-3.335-11.395-6.914-13.5-9-13.214-13.092-21.554-33.108-39-48 11.499 3.821 25.24 14.577 34 23"/><path fill="#1f86ac" d="M648 399c-3.714-1.411-12.181 3.953-15 1.5-.896-.78-4.341-19.089-6-23-6.493-15.307-21.871-31.895-36-40.5l9.5-17c23.894 19.487 40.942 48.749 47.5 79"/><path fill="#2ee5fa" d="M455 523c-89.237-49.047-58.224-187.933 41-200 96.263-11.707 162.197 96.835 101 173.5-34.672 43.436-93.731 53.03-142 26.5m1-182c-17.491 10.749-37.449 31.497-42 52-9.146 12.838-9.599 40.5-7 57 3.417 21.697 20.163 47.196 37 61 78.834 64.634 195.781-10.53 169-109.5-17.884-66.091-99.247-95.991-157-60.5"/><path fill="#187297" d="M591 337c14.129 8.605 29.507 25.193 36 40.5 1.659 3.911 5.104 22.22 6 23 2.819 2.453 11.286-2.911 15-1.5 1.583 7.3 2.424 12.486 3 20 .544 80.867-70.869 142.962-149 146 13.915-10.802 31.836-15.801 47-23l-4 9.5c2.708 6.089 15.752-6.054 12-11.5 2.179-1.007 5.842-2.934 8-4-3.507 3.461-3.695 12.036 2.5 9 3.258-1.528 5.783-8.529 1.5-11 88.984-48.742 84.261-179.597-15-211.5l16.5 4.5c6.596 3.622 14.082 6.091 20.5 10"/><path fill="#165572" d="M444 511c-6.227-7.984-.741-5.323-1-8.5-.436-5.335-39.084-39.34-34-54l-2 1.5c-2.599-16.5-2.146-44.162 7-57 1.066-1.497 2.029-4.21 4-4-3.059 9.847 3.733 10.265 4 20.5-4.305 1.047-1.738-5.993-4.5-7.5-4.245-1.037-4.033 26.812-5.5 29.5-.129.236-4.667.59-5 2-2.398 10.149 5.893 14.214 15 11.5.87 5.59 3.796 15.78 6 21-1.804-.209-1.109 4.297-1 4.5 9.79 18.311 29.833 37.972 49.5 45.5 1.259.482 12.677 4.153 13.5 1 13.546 2.899 22.382 3.041 36 1 .224 3.531 10.142.401 11.5 0 109.636-32.393 75.907-189.125-36-180-7.327.597-24.172 3.578-27.5 10-6.692 2.849-17.853 10.351-22 16-1.482.753-2.891 3.35-5 3 .228-.411 2.898-7.446-1-6 2.614-2.109 5.46-6.614 8.5-9 5.25-4.121 11.66-6.156 16.5-10.5-4.922-1.025-10.386 1.048-14.5 3.5l-.5-4c57.753-35.491 139.116-5.591 157 60.5 26.781 98.97-90.166 174.134-169 109.5"/><path fill="#1a5571" d="M789 327c8.736 13.81 17.242 27.572 24 42.5 2.336 5.158 10.738 32.712 12 34 1.785 1.822 8.963-.267 14.5 2.5 4.94 2.469 6.365 8.874 10 11 5.231 3.059 17.728 5.548 25 10 32.697 20.018 41.042 89.822 38.5 125l-2-3c.109-1.979-.061-4.016 0-6 .43-14.081.948-40.601-6-53-4.942-8.82-31.509-13.673-41-15.5-.43 5.26.799 10.297 1 15.5.678 17.573 2.583 36.52 2 54-.005.158-.886.291-1 3l-3-2c1.314-31.14.171-64.119-7-94.5-2.906-12.31-11.1-47.159-28-41-1.115 4.028 1.961 3.302 2 3.5 4.009 20.573 11.456 40.485 14 61.5 2.227 18.398 2.142 36.991 2 55.5-.323-6.293.487-16.762-7-14-1.331 2.905-1.496 6.785-2 10-1.284-5.551-2.413-5.887-8-7 2.727-18.553 3.479-35.27 2-54-3.761-47.632-22.78-97.484-49-137zm65 103c2.263 8.22 3.827 16.763 6 25 .869 3.294 2.093 14.671 3.5 16l38.5 13c.731 2.274 1.995-2.22 2-2.5.158-8.003-11.5-34.787-17-41.5-7.254-8.854-25.644-20.843-37-19.5-.639 2.363 3.497 7.674 4 9.5"/><path fill="#082d43" d="M526 518c130.548-19.562 75.662-224.353-52-170 3.328-6.422 20.173-9.403 27.5-10 111.907-9.125 145.636 147.607 36 180-1.358.401-11.276 3.531-11.5 0"/><path fill="#1c3c55" d="M446 361c-4.69 3.784-10.026 4.573-10.5 5-4.134 3.722-15.988 18.134-17.5 23-1.971-.21-2.934 2.503-4 4 4.551-20.503 24.509-41.251 42-52l.5 4c4.114-2.452 9.578-4.525 14.5-3.5-4.84 4.344-11.25 6.379-16.5 10.5-3.04 2.386-5.886 6.891-8.5 9"/><path fill="#237195" d="M526 518c-13.618 2.041-22.454 1.899-36-1-26.064-5.578-51.573-26.312-62-51-2.204-5.22-5.13-15.41-6-21-2.691-17.294-1.215-28.513 4-45-.19 12.032 15.469 23.538 26 26-2.683 48.827 52.008 84.775 93 53 .74-.574 5.434-1.231 6-3.5.128-.515-.97-10.479-1.5-10.5-5.998-.241-6.715 9.616-4.5 14-2.25 2.332-4.084-8.579-4-10 .02-.336.721-2.013 1-3 3.467-5.183 21.179-6.646 22-7.5.581-.604 4.818-14.476 5-16 4.668-39.092-29.488-73.514-69-66.5-8.169-19.341-31.271-20.503-48-12 4.147-5.649 15.308-13.151 22-16 127.662-54.353 182.548 150.438 52 170m27.5-53c-3.76 1.626-1.92 11.049 2 9 .797-.417 5.646-12.306-2-9"/><path fill="url(#a)" d="M390 348c-27.721 42.441-29.802 97.076-10 143 45.535 105.602 177.617 116.156 248.5 31 .553 11.597.054 18.828 3.5 30-25.144 23.729-55.474 42.068-90 48-105.526 18.13-206.317-69.497-195-177.5 2.602-24.836 21.734-60.696 43-74.5" style="fill:url(#a)"/>/&gt;<path fill="#5ad6f8" d="M500 376c.612 1.448 2.886 10.541 3 12 1.669 21.326-13.006 37.183-34 39-4.063.352-13.084-.085-17-1-10.531-2.462-26.19-13.968-26-26 6.647-21.014 13.474-19.417 21-33 2.109.35 3.518-2.247 5-3 16.729-8.503 39.831-7.341 48 12m-37.5-8c-26.832 3.507-33.861 43.511-4 45 33.742 1.682 42.312-50.007 4-45"/><path fill="#43647d" d="M447 367c-7.526 13.583-14.353 11.986-21 33-5.215 16.487-6.691 27.706-4 45-9.107 2.714-17.398-1.351-15-11.5.333-1.41 4.871-1.764 5-2 1.467-2.688 1.255-30.537 5.5-29.5 2.762 1.507.195 8.547 4.5 7.5-.267-10.235-7.059-10.653-4-20.5 1.512-4.866 13.366-19.278 17.5-23 .474-.427 5.81-1.216 10.5-5 3.898-1.446 1.228 5.589 1 6"/><path fill="#506168" d="M676 396c4.412 10.632 6.923 24.487 11 34-10.244-13.901-15.155-27.441-28.5-39-.476-.412-3.212.652-4.5-.5-1.021-.913-8.4-22.199-10-25.5 2.105 2.086 10.21 5.665 13.5 9 6.759 6.85 11.263 15.688 18.5 22"/><path fill="#fefeff" d="M462.5 368c38.312-5.007 29.742 46.682-4 45-29.861-1.489-22.832-41.493 4-45"/><path fill="#c7fbfe" d="M230 377c-18.719 46.442-28.19 101.666-17 151 11.385 50.196 40.945 94.146 90 113.5-31.917-.194-60.57-27.092-78-52-5.226-7.469-8.521-17.204-13-24.5-26.815-59.747-12.056-133.218 16-190z"/><path fill="#1b5675" d="M542 466c2.261-8.004 12.439-10.666 15-20.5 8.133-31.225-23.128-61.956-54-57.5-.114-1.459-2.388-10.552-3-12 39.512-7.014 73.668 27.408 69 66.5-.182 1.524-4.419 15.396-5 16-.821.854-18.533 2.317-22 7.5"/><path fill="#073750" d="M216 380c-23.275 57.885-30.809 120.102-10 180 7.49 21.559 16.155 35.517 29 54 21.226 30.543 45.89 36.976 83 39 82.244 4.485 154.99-21.564 243.5-13 57.307 5.545 118.165 28.187 174.5 7 27.652-6.964 43.558-21.343 60-44 18.365-25.307 28.439-52.972 33-84 5.587 1.113 6.716 1.449 8 7-1.234 7.877-2.821 13.465-5 21-29.26 101.179-94.877 123.999-193 113-20.692-1.297-41.104-7.472-61.5-10-67.591-8.379-125.514-6.114-190.5 9-56.353 8.997-117.426 6.51-158-38.5-23.074-25.596-36.075-60.117-43-93.5-.354-6.175-1.345-12.271-1-18.5-3.202-1.74-1.525 2.44-2 3.5-.05.111-1.81-.36-2 .5-2.359 10.68 3.764 27.601-3 37.5-.481-6.679-.833-13.292-1-20-.8-32.077 1.341-60.423 9-91.5 1.912-7.756 7.824-18.805 9-25.5.394-2.242 1.967-3.28-.5-5-6.354-2.351-14.432 4.885-17.5 10l-2-3c1.791-1.459 4.454-9.783 10.5-11 10.914-2.196 8.705 7.341 14.5-5 11.319 8.374 7.891-14.017 16-19"/><path fill="#0e1039" d="M542 466c-.279.987-.98 2.664-1 3-27.414 16.379-67.893.38-71-32 21.25 28.778 24.43-29.442 0-3-.019-.748-2.009-4.972-1-7 20.994-1.817 35.669-17.674 34-39 30.872-4.456 62.133 26.275 54 57.5-2.561 9.834-12.739 12.496-15 20.5"/><path fill="#2083a8" d="m684 437-2 3c-1.18-1.97-18.046-28.266-21-23.5 3.602 10.775 12.092 19.923 18 30.5-2.903 3.063-16.416 2.253-17.5 3-.528.364-4.161 10.436-4.5 12-2.108-.97.13-3.353-2-4 4.815-21.389 5.992-41.411 1.5-63 13.819 10.198 19.645 27.55 27.5 42"/><path fill="#68eaf8" d="M195 413c-3.892-.777-8.037 3.92-10 6.5-17.753 23.337-21.512 82.565-21 111.5.267 15.083 6.097 43.648 5 55.5-.164 1.777-3.69 4.638-4 7.5-7.12-43.589-11.148-137.41 12-176 3.068-5.115 11.146-12.351 17.5-10 2.467 1.72.894 2.758.5 5"/><path fill="#6ee8f7" d="M863 545c-.606 14.347-2.365 28.898-5 43 .527-7.192 1.404-18.54-2-24 2.455-29.726 3.621-60.972-1-90.5-3.06-19.55-9.501-47.278-25-60.5-.039-.198-3.115.528-2-3.5 16.9-6.159 25.094 28.69 28 41 7.171 30.381 8.314 63.36 7 94.5"/><path fill="#2d83a1" d="M195 413c-1.176 6.695-7.088 17.744-9 25.5-7.659 31.077-9.8 59.423-9 91.5l-13 1c-.512-28.935 3.247-88.163 21-111.5 1.963-2.58 6.108-7.277 10-6.5"/><path fill="#3284a2" d="M856 564c-.271 3.278-.643 6.689-1 10-2.577-3.777-7.668-.883-12-3 1.512-11.549 3.582-29.679 3-41 .142-18.509.227-37.102-2-55.5-2.544-21.015-9.991-40.927-14-61.5 15.499 13.222 21.94 40.95 25 60.5 4.621 29.528 3.455 60.774 1 90.5"/><path fill="#032637" d="M177 418c-23.148 38.59-19.12 132.411-12 176 2.267 13.881 11.393 66.045 24.5 72 4.357 1.98 7.444 1.899 9.5-2.5 5.154-11.024-10.928-47.931-14-62-3.645-16.694-5.772-34.45-7-51.5 6.764-9.899.641-26.82 3-37.5.19-.86 1.95-.389 2-.5-3.74 68.715 10.389 139.184 54.5 193 3.957-.015 7.056-2.802 10.5-4 46.178-16.059 91.113-30.863 139-42 64.986-15.114 122.909-17.379 190.5-9 20.396 2.528 40.808 8.703 61.5 10-2.229-.25-7.233-.61-9 1-54.525-12.322-113.268-16.753-169-12-45.844 3.91-98.868 17.549-143 31-17.458 5.321-59.65 18.628-73 29-.601.467-4.286.721-4 3.5 4.629 4.344 6.816 9.515 12 13.5 16.167 21.302 37.244 38.662 59 54 18.949 13.359 38.641 24.885 60 34 108.265 46.203 245.923 35.809 342-34l1 3c-47.305 33.431-100.428 53.09-158 61-30.396-.265-62.658-.443-93 0-109.52-12.589-211.589-80.457-258.5-181-13.613 19.388-20.022 1.643-29-4-2.627-1.651-11.33-4.16-15.5-6l15 3.5c1.109-1.825-4.155-13.677-5-16.5-.092-.306.092-.694 0-1-.776-2.582-3.805-8.258-4-9-1.384-5.273-1.936-11.547-3-17-.846-4.336-2.412-10.136-3-14-2.124-13.959-4.207-29.955-5-44-.205-3.633.143-7.359 0-11-.574-14.611 2.662-38.541 1-51l1.5-19c-10.107 3.409-32.228 6.414-39.5 14-9.004 9.393-8.475 42.156-8 55 .649 17.538 2.546 35.038 7 52 1.504 7.836 3.409 12.696 6 20 1.899 5.354 5.013 13.315 8 18 4.708 7.385 10.644 12.149 19 15 4.278 3.478 11.522 2.321 10 5-10.019-4.421-22.316-4.955-30-16.5-28.286-42.5-28.904-149.926-1-192.5l1 1c-2.918 4.609-16.223 37.262-11 40 4.939-5.707 36.164-11.656 38.5-14 1.274-1.279 3.572-15.605 4.5-19 2.411-8.815 3.877-18.426 7-27 .211-.579 1.405-2.617 2-4 .587-1.365 2.183-3.241 2-5 .058-.041.301-.431 1-1z"/><path fill="#1e566b" d="M172 421c-.415-2.709-5.133-1.396-6.5-1-7.75 2.243-22.75 12.056-28.5 18-2.178 2.251-4.31 4.33-6 7l-1-1c14.363-21.915 29.005-17.359 44-28 .183 1.759-1.413 3.635-2 5"/><path fill="#115e84" d="M682 440c1.781 2.973 3.284 8.823 5 12l-4 1c-1.059-1.976-2.82-3.887-4-6-5.908-10.577-14.398-19.725-18-30.5 2.954-4.766 19.82 21.53 21 23.5"/><path fill="#9af6fd" d="M172 421c-.595 1.383-1.789 3.421-2 4l-33 13c5.75-5.944 20.75-15.757 28.5-18 1.367-.396 6.085-1.709 6.5 1"/><path fill="#045395" d="M645 477c-32.161 66.523-89.316 101.888-165 89-4.507-2.096-6.999-2.654-11-6l2-3c6.532 9.761 21.338 8.376 31 8 78.131-3.038 149.544-65.133 149-146 1.568 20.457-.515 38.354-6 58"/><path fill="#87eff9" d="M887 440c-5.07-.754-13.538-7.906-17.5-9-.216-.06.007 2.748-4 2-3.148-.588-7.626-3.719-11.5-3-.503-1.826-4.639-7.137-4-9.5 11.356-1.343 29.746 10.646 37 19.5"/><path fill="#3ab5cf" d="M170 425c-3.123 8.574-4.589 18.185-7 27l-33.5 2c.739 12.598-3.114 20.637-9.5 31-5.223-2.738 8.082-35.391 11-40 1.69-2.67 3.822-4.749 6-7z"/><path fill="#1b5270" d="M469 427c-1.009 2.028.981 6.252 1 7 .025.986-.094 2.025 0 3 3.107 32.38 43.586 48.379 71 32-.084 1.421 1.75 12.332 4 10-40.992 31.775-95.683-4.173-93-53 3.916.915 12.937 1.352 17 1"/><path fill="#fcfcfc" d="M470 437c-.094-.975.025-2.014 0-3 24.43-26.442 21.25 31.778 0 3"/><path fill="#4ec3db" d="M887 440c5.5 6.713 17.158 33.497 17 41.5-.005.28-1.269 4.774-2 2.5-7.628-9.856-8.969-18.802-9.5-31-10.2 3.912-23.513-2.713-32.5 2-2.173-8.237-3.737-16.78-6-25 3.874-.719 8.352 2.412 11.5 3 4.007.748 3.784-2.06 4-2 3.962 1.094 12.43 8.246 17.5 9"/><path fill="#1dd2f0" d="M705 480h-4c-4.065-9.722-9.007-18.758-14-28-1.716-3.177-3.219-9.027-5-12l2-3c7.85 14.442 14.742 27.716 21 43"/><path fill="#0d3149" d="M444 511c-16.837-13.804-33.583-39.303-37-61l2-1.5c-5.084 14.66 33.564 48.665 34 54 .259 3.177-5.227.516 1 8.5"/><path fill="#53bfdc" d="M679 447c1.18 2.113 2.941 4.024 4 6 5.392 10.064 14.359 29.391 18 40 2.832 8.251 5.85 18.361 7 27-4.684-3.609-8.569-1.407-14-1-1.35-7.134-4.33-18.182-10-23 .969-8.785 2.133-17.727 0-26.5-.69-.616-15.871 2.97-18 3.5-1.627-1.614-3.697-10.027-4-10.5-2.076-3.238-4.625-.328-5-.5.339-1.564 3.972-11.636 4.5-12 1.084-.747 14.597.063 17.5-3"/><path fill="#84f9ff" d="M163 452c-.928 3.395-3.226 17.721-4.5 19-2.336 2.344-33.561 8.293-38.5 14 6.386-10.363 10.239-18.402 9.5-31z"/><path fill="#0e94c1" d="M701 480c1.264 3.022 2.831 5.895 4 9l-4 4c-3.641-10.609-12.608-29.936-18-40l4-1c4.993 9.242 9.935 18.278 14 28"/><path fill="#8efcff" d="m902 484-38.5-13c-1.407-1.329-2.631-12.706-3.5-16 8.987-4.713 22.3 1.912 32.5-2 .531 12.198 1.872 21.144 9.5 31"/><path fill="#3ab6d3" d="M394 459c.122.072 1.132 1.27 2 2l8 19.5c-3.23 4.053.163 8.822-8 8.5 14.943-8.944-15.453-45.7-17-19-.969-3.046-2.958-3.753-3-4-2.526-14.987 8.874-12.402 18-7"/><path fill="#52cae8" d="M657 462c-1.086 5.004-.607 15.036 6.5 14 .864-.126 2.311-2.953 2.5-3 2.129-.53 17.31-4.116 18-3.5 2.133 8.773.969 17.715 0 26.5-.759 6.882-2.708 11.072-4 17-8.993-4.76-15.991-12.064-25-17-.171-.094-.041-2.64-2.5-3-7.986-1.168-10.077 16.784-11.5 22-1.297 4.755 1.208 2.667 1 3.5-.309 1.241-4.347 3.177-4.5 6.5-2.853-3.262 5.649-12.243-1.5-12 4.428-18.213 14.705-35.921 19-55 2.13.647-.108 3.03 2 4m-.5 17c-2.927-.04-7.614 9.529-4 11 7.319 2.978 10.591-10.909 4-11"/><path fill="#173e59" d="M396 489c-2.481-.098-1.892-.97-2-1 12.414-4.085-3.803-28.018-10.5-26-4.377 1.319-2.568 16.032 2 18 3.853 1.66.642-6.094 5 4l3-4 2.5 1.5c2.08 3.371-1.962 3.029-2 6.5-11.201-3.089-11.589-7.28-15-18 1.547-26.7 31.943 10.056 17 19"/><path fill="#60d8f5" d="M407 477c-1.398 6.193 1.585 16.18 4 22-3.353 5.067 5.816 19.188 9 24l-11 8c-11.209-11.798-21.497-25.967-28-41-3.038-7.022-6.307-16.568-8-24l2.5 2 .5-2c.042.247 2.031.954 3 4 3.411 10.72 3.799 14.911 15 18 .108.03-.481.902 2 1 8.163.322 4.77-4.447 8-8.5l-8-19.5c5.97 5.016 6.97 10.108 11 16"/><path fill="#f8fdfd" d="M666 473c-.189.047-1.636 2.874-2.5 3-7.107 1.036-7.586-8.996-6.5-14 .375.172 2.924-2.738 5 .5.303.473 2.373 8.886 4 10.5"/><path fill="#3d9bb5" d="M394 488c.038-3.471 4.08-3.129 2-6.5l-2.5-1.5-3 4c-4.358-10.094-1.147-2.34-5-4-4.568-1.968-6.377-16.681-2-18 6.697-2.018 22.914 21.915 10.5 26m-10.5-22c-4.452 3.445 5.682 16.188 10.5 8.5-7.017 3.029-6.84-11.332-10.5-8.5"/><path fill="#628da0" d="M831 465c1.479 18.73.727 35.447-2 54-4.561 31.028-14.635 58.693-33 84l-10.5-11c-20.057 32.903-56.376 46.292-92.5 52.5 1.051-2.17-2.231-11.437-2-12 .32-.777 13.099-5.108 15.5-6.5 46.662-27.049 90.945-94.13 105.5-145.5.807-2.848-2.078-7.148-1-10 1.084-2.868 16.181-11.417 20-5.5"/><path fill="#1b5270" d="M545 479c-2.215-4.384-1.498-14.241 4.5-14 .53.021 1.628 9.985 1.5 10.5-.566 2.269-5.26 2.926-6 3.5"/><path fill="#21516c" d="M553.5 465c7.646-3.306 2.797 8.583 2 9-3.92 2.049-5.76-7.374-2-9"/><path fill="#265e76" d="M383.5 466c3.66-2.832 3.483 11.529 10.5 8.5-4.818 7.688-14.952-5.055-10.5-8.5"/><path fill="#0b2d41" d="M490 517c-.823 3.153-12.241-.518-13.5-1-19.667-7.528-39.71-27.189-49.5-45.5-.109-.203-.804-4.709 1-4.5 10.427 24.688 35.936 45.422 62 51"/><path fill="#50acc7" d="M650 470c-23.282 83.258-121.868 131.909-200 91 3.632 1.638 10.933 4.995 14.5 6 3.071.866 3.312 1.263 4.5-2 2.885 1.3 8.662.602 11 1 75.684 12.888 132.839-22.477 165-89 .96-1.986 2.674-6.74 5-7"/><path fill="#56edfe" d="M157 493c-.135-1.013-1.531-4.208-1.5-6l-37 5 .5-4c7.272-7.586 29.393-10.591 39.5-14z"/><path fill="#63f0fe" d="M905 490c-8.873 4.311-22.706-2.587-32.5-3-3.681-.155-5.902-1.191-7.5 3-.201-5.203-1.43-10.24-1-15.5 9.491 1.827 36.058 6.68 41 15.5"/><path fill="#38a3c2" d="M448 524c-4.345.849-3.79 2.085-3 5 .25.924 5.032 10.926 6 13-2.996-6.583-11.316-7.686-16.5-12-7.484-6.227-19.758-21.982-23.5-31-2.415-5.82-5.398-15.807-4-22 9.452 13.82 24.546 40.712 41 47"/><path fill="#fbfefe" d="M656.5 479c6.591.091 3.319 13.978-4 11-3.614-1.471 1.073-11.04 4-11"/><path fill="#93f8fd" d="M705 480c13.122 32.046 34.238 93.867-18 105-8.301-1.545-13.015-2.792-20-7 60.865 4.586 53.213-48.584 38-89-1.169-3.105-2.736-5.978-4-9z"/><path fill="#95faff" d="M157 493c1.662 12.459-1.574 36.389-1 51l-45-1c-.475-12.844-1.004-45.607 8-55l-.5 4 37-5c-.031 1.792 1.365 4.987 1.5 6"/><path fill="#91fafe" d="M905 490c6.948 12.399 6.43 38.919 6 53l-44 1c.583-17.48-1.322-36.427-2-54 1.598-4.191 3.819-3.155 7.5-3 9.794.413 23.627 7.311 32.5 3"/><path fill="#0bb8e3" d="M667 578c-.335-.201-5.424-4.442-6-5 10.17 4.281 26.582 5.8 35-.5 13.08-9.79 13.971-37.69 12-52.5-1.15-8.639-4.168-18.749-7-27l4-4c15.213 40.416 22.865 93.586-38 89"/><path fill="#f5fefe" d="M655 496c-2.801 3.394-3.316 14.571-5 17-1.822 2.628-6.097 4.24-9 2 1.423-5.216 3.514-23.168 11.5-22 2.459.36 2.329 2.906 2.5 3"/><path fill="#95e4f9" d="M680 513c-.198.91.209 2.101 0 3-2.406 10.326-5.986 22.622-11 32 .146-9.671-5.458-24.231-16-13 1.036-6.109 2.506-17.332-3-22 1.684-2.429 2.199-13.606 5-17 9.009 4.936 16.007 12.24 25 17"/><path fill="#0bcaf0" d="M694 519c2.318 12.252 3.351 27.924-5 38.5-5.645 7.149-17.381 11.221-24 3.5 1.576-1.365 2.628-6.764 3-9 28.046 12.636 26.532-22.542 12-36 .209-.899-.198-2.09 0-3 1.292-5.928 3.241-10.118 4-17 5.67 4.818 8.65 15.866 10 23"/><path fill="#4d9db8" d="M451 542c1.675 3.589 5.8 12.237 8 15-15.11-5.901-30.143-20.613-39-34-3.184-4.812-12.353-18.933-9-24 3.742 9.018 16.016 24.773 23.5 31 5.184 4.314 13.504 5.417 16.5 12"/><path fill="#6de1f9" d="M186 527c.904 15.781.527 33.703 4 49.5 1.017 4.628 4.129 4.58 5 8 .665 2.609.293 8.498 1 11 7.832 27.712 20.244 54.318 33 80 5.456-2.047-1.024-11.666 6.5-15.5.862.356.398 2.016.5 2-10.34 9.662 5.336 21.248 11 10 5.791 7.204-4.593 12.272-11.5 9l-2.5 2.5 15 17.5c-3.444 1.198-6.543 3.985-10.5 4-44.111-53.816-58.24-124.285-54.5-193 .475-1.06-1.202-5.24 2-3.5-.345 6.229.646 12.325 1 18.5"/><path fill="#50e2f6" d="M641 515c2.903 2.24 7.178.628 9-2 5.506 4.668 4.036 15.891 3 22-6.318 6.731-4.619 26.401 4 28-3.542 6.666.011 6.133 4 10 .576.558 5.665 4.799 6 5 6.985 4.208 11.699 5.455 20 7-39.424 8.402-59.16-38.434-51-72 7.149-.243-1.353 8.738 1.5 12 .153-3.323 4.191-5.259 4.5-6.5.208-.833-2.297 1.255-1-3.5m3.5 4c-5.564 1.811-7.558 17.649-3 22 11.672 1.477 15.464-26.058 3-22m-2.5 32c10.981.449-.01-11.933-1-4-.457-.884-2.647-4.903-4-4.5-.233 9.862 6.8 20.994 16 25l-6-6c-1.602-3.489-3.271-7.094-5-10.5"/><path fill="#1b799e" d="M839 516c2.147 25.847-.441 51.643-5 77-4.766 26.51-22.923 85.607-42 104.5-3.559 3.525-3.996 3.243-9 4.5 8.849-13.929 18.189-27.379 25-42.5 11.039-24.508 29.182-83.186 27-109-.253-2.988-.447-2.253-3-3.5 2.179-7.535 3.766-13.123 5-21 .504-3.215.669-7.095 2-10"/><path fill="#64dffa" d="M668 552c.276-1.661.977-2.499 1-4 5.014-9.378 8.594-21.674 11-32 14.532 13.458 16.046 48.636-12 36"/><path fill="#073750" d="M846 530c.582 11.321-1.488 29.451-3 41-1.146 8.751-3.142 18.334-5 27-2.433-2.11.971-5.922-4-5 4.559-25.357 7.147-51.153 5-77 7.487-2.762 6.677 7.707 7 14"/><path fill="#72def9" d="M708 520c1.971 14.81 1.08 42.71-12 52.5-8.418 6.3-24.83 4.781-35 .5-3.989-3.867-7.542-3.334-4-10 1.493.277 7.191-1.299 8-2 6.619 7.721 18.355 3.649 24-3.5 8.351-10.576 7.318-26.248 5-38.5 5.431-.407 9.316-2.609 14 1"/><path fill="#fdfefe" d="M644.5 519c12.464-4.058 8.672 23.477-3 22-4.558-4.351-2.564-20.189 3-22"/><path fill="#4cc0e0" d="M420 523c8.857 13.387 23.89 28.099 39 34 1.422 1.785 7.874 7.042 10 8-1.188 3.263-1.429 2.866-4.5 2-3.567-1.005-10.868-4.362-14.5-6-15.936-7.187-29.005-17.375-41-30z"/><path fill="#13add7" d="M387 659c-47.887 11.137-92.822 25.941-139 42l-15-17.5 2.5-2.5c6.907 3.272 17.291-1.796 11.5-9 4.953-9.835-3.874-11.093-11-10-.102.016.362-1.644-.5-2-7.524 3.834-1.044 13.453-6.5 15.5-12.756-25.682-25.168-52.288-33-80-.707-2.502-.335-8.391-1-11-.871-3.42-3.983-3.372-5-8-3.473-15.797-3.096-33.719-4-49.5 6.925 33.383 19.926 67.904 43 93.5 40.574 45.01 101.647 47.497 158 38.5"/><path fill="#99bbca" d="M542 600c34.526-5.932 64.856-24.271 90-48 1.212 3.929 7.873 14.637 8 15.5 2.413 16.436-26.219 43.537-8 68.5l-30.5 8c12.382-2.082 22.267 2.27 35 3 2.819.162 6.534.617 8.5-2 2.53.735 3.114.99 6 1 .543 7.437 12.535-1.765 10.5 7 7.517-5.023 7.051.873 8 1 3.569.476 9.867-2.041 13-2 20.89.275 32.451.301 53.5-5-56.335 21.187-117.193-1.455-174.5-7-88.51-8.564-161.256 17.485-243.5 13-31.726-3.149-61.51-14.981-83-39-12.845-18.483-21.51-32.441-29-54l.5-3c.142 3.223 4.652 6.618 5.5 8 4.479 7.296 7.774 17.031 13 24.5 17.43 24.908 46.083 51.806 78 52-49.055-19.354-78.615-63.304-90-113.5 23.586 25.324 39.133 57.676 66.5 80 49.521 40.395 134.021 32.793 194 29 .414-.026 1.59-1.977 2-2 21.361-1.183 42.711 1.459 64 1z"/><path fill="#1cc2e9" d="M462 542c2.197 8.948-2.25 10.265 7 18 4.001 3.346 6.493 3.904 11 6-2.338-.398-8.115.3-11-1-2.126-.958-8.578-6.215-10-8-2.2-2.763-6.325-11.411-8-15-.968-2.074-5.75-12.076-6-13 8.24 3.038 14.855 4.262 17 13"/><path fill="#125d7f" d="M177 530c.167 6.708.519 13.321 1 20 1.228 17.05 3.355 34.806 7 51.5 3.072 14.069 19.154 50.976 14 62-2.056 4.399-5.143 4.48-9.5 2.5-13.107-5.955-22.233-58.119-24.5-72 .31-2.862 3.836-5.723 4-7.5 1.097-11.852-4.733-40.417-5-55.5z"/><path fill="#fcffff" d="M669 548c-.023 1.501-.724 2.339-1 4-.372 2.236-1.424 7.635-3 9-.809.701-6.507 2.277-8 2-8.619-1.599-10.318-21.269-4-28 10.542-11.231 16.146 3.329 16 13"/><path fill="#0c4289" d="M569 534c4.283 2.471 1.758 9.472-1.5 11-6.195 3.036-6.007-5.539-2.5-9 1.215-.6 2.849-1.37 4-2"/><path fill="#093e87" d="M557 540c3.752 5.446-9.292 17.589-12 11.5l4-9.5c2.048-.972 6.499-1.307 8-2"/><path fill="#197aa9" d="m471 557-2 3c-9.25-7.735-4.803-9.052-7-18 7.085 1.142 6.424 11.15 9 15"/><path fill="#10c2f1" d="M641 547c.34.659.659 3.328 1 4 1.729 3.406 3.398 7.011 5 10.5l6 6c-9.2-4.006-16.233-15.138-16-25 1.353-.403 3.543 3.616 4 4.5"/><path fill="#59b0ca" d="M156 544c.143 3.641-.205 7.367 0 11l-42 .5c1.756 12.737 1.604 27.02 4 39.5-4.454-16.962-6.351-34.462-7-52z"/><path fill="#4b97b4" d="M911 543c-.061 1.984.109 4.021 0 6-.815 14.772-2.963 29.545-6 44l3-37.5-42-1.5c.133-2.309-.097-4.686 0-7 .114-2.709.995-2.842 1-3z"/><path fill="#f0fefe" d="M642 551c-.341-.672-.66-3.341-1-4 .99-7.933 11.981 4.449 1 4"/><path fill="#011524" d="M866 547c-.097 2.314.133 4.691 0 7-.792 13.714-2.774 31.423-5 45-.733 4.473-2.071 9.455-3 14-1.139 5.571-2.611 12.543-4 18-.264 1.037-1.65 3.693-2 5-.706 2.639-1.215 5.388-2 8-.935 3.11-2.211 5.641-3 9-.049.208-2.48 3.548-1.5 4 2.742-1.105 5.644-1.422 8.5-2-13.751 5.563-24.421 28.074-37.5 8-22.603 48.511-57.998 89.257-101.5 120l-1-3c26.761-19.445 52.324-48.016 72-74.5-46.47-14.68-93.583-28.091-141-39.5-.517-3.363 4.131-1.38 5.5-1 44.177 12.27 88.544 23.997 132.5 37 5.004-1.257 5.441-.975 9-4.5 19.077-18.893 37.234-77.99 42-104.5 4.971-.922 1.567 2.89 4 5-3.007 14.027-16.372 46.462-16 57 .245 6.961 1.882 14.894 10.5 11 12.952-5.852 24.458-63.79 25.5-78 2.635-14.102 4.394-28.653 5-43z"/><path fill="#115377" d="M783 702c-43.956-13.003-88.323-24.73-132.5-37-1.369-.38-6.017-2.363-5.5 1-2.652-.638-5.465-2.172-9-3-.898-.21-2.1.208-3 0-.176-.041.02-1.318-3-2 1.767-1.61 6.771-1.25 9-1 98.123 10.999 163.74-11.821 193-113 2.553 1.247 2.747.512 3 3.5 2.182 25.814-15.961 84.492-27 109-6.811 15.121-16.151 28.571-25 42.5"/><path fill="#021726" d="M913 552c-1.861 25.761-10.72 81.211-34.5 95-6.189 3.588-12.322 3.856-17.5 6 31.264-10.97 35.791-30.161 44-60 3.037-14.455 5.185-29.228 6-44z"/><path fill="#19688a" d="M905 593c-8.209 29.839-12.736 49.03-44 60-1.379.571-4.269.895-7 2-2.856.578-5.758.895-8.5 2-.98-.452 1.451-3.792 1.5-4 22.695-.741 42.577-16.414 3-9 .785-2.612 1.294-5.361 2-8 7.579-.913 28.455.096 34.5-3 1.957-1.002 2.025-4.404 2.5-5 1.883-2.362 12.097-16.814 6-18 4.431-1.619 7.6-7.804 4.5-10-1.571-1.113-32.808 2.656-38.5-1 2.226-13.577 4.208-31.286 5-45l42 1.5z"/><path fill="#227293" d="M156 555c.793 14.045 2.876 30.041 5 44l-38.5 1c-1.807 3.715.613 6.741 1.5 10 .338 1.243.734 3.245 1 4l-1 1c-2.591-7.304-4.496-12.164-6-20-2.396-12.48-2.244-26.763-4-39.5z"/><path fill="#2197b8" d="M858 588c-1.042 14.21-12.548 72.148-25.5 78-8.618 3.894-10.255-4.039-10.5-11 7.532 12.624 15.544-2.751 19-10.5 8.177-18.336 11.813-50.183 14-70.5.357-3.311.729-6.722 1-10 3.404 5.46 2.527 16.808 2 24"/><path fill="#45c1e3" d="M646 575c-3.513 5.314-2.799 8.277-5 14-3.557-.451-2.91 2.397-3.5 6 3.521-.3 2.834-4.268 3.5-6 6.372.809 8.665 3.449 12 8l-3 19.5-4 2.5c-.465-19.256-18.322 1.216-7.5 9 .572.411 3.536-.399 4.5 0 .18.075-.044 2.553 2.5 3 6.472 1.137 13.264-5.317 14.5-11.5.523-2.617-.103-17.048-1-20-1.621-5.335-12.99-15.172-6-19.5 1.438 1.015 2.028 2.226 3 3-.909 5.128 5.004 4.379 7 7.5 6.2 9.693 5.034 33.62-1.5 43.5 12.001-11.99 9.492-32.146 2.5-46 .681.525 3.82.482 5 2.5.515.88 3.962 18.449 4 20 1.041 42.669-48.956 39.73-45 0 .278-2.794 11.688-36.48 13-38l1.5-1.5c.584-.128 3.092 3.718 3.5 4m-12 29c-.944 2.473-2.514 4.807-3 7.5l3.5 2.5c4.367-4.76 5.098-5.637 2.5-11-3.716-7.669-1.744-2.29-3 1m-2.5 11c-2.386.544-1.383 4.598 1 4 1.766-.443 2.829-4.872-1-4"/><path fill="#0a5579" d="M855 574c-2.187 20.317-5.823 52.164-14 70.5-3.456 7.749-11.468 23.124-19 10.5-.372-10.538 12.993-42.973 16-57 1.858-8.666 3.854-18.249 5-27 4.332 2.117 9.423-.777 12 3"/><path fill="#1ca0c9" d="M653 580c-6.99 4.328 4.379 14.165 6 19.5.897 2.952 1.523 17.383 1 20-1.236 6.183-8.028 12.637-14.5 11.5-2.544-.447-2.32-2.925-2.5-3 1.431-2.08 2.565-3.318 3-6 17.997 7.23 14.074-15.345 7-25-3.335-4.551-5.628-7.191-12-8 2.201-5.723 1.487-8.686 5-14 2.388 1.651 4.647 3.34 7 5"/><path fill="#1393be" d="M664 588c6.992 13.854 9.501 34.01-2.5 46 6.534-9.88 7.7-33.807 1.5-43.5-1.996-3.121-7.909-2.372-7-7.5 2.083 1.659 5.827 3.325 8 5"/><path fill="#b7eafc" d="M641 589c-.666 1.732.021 5.7-3.5 6 .59-3.603-.057-6.451 3.5-6"/><path fill="#31c4ed" d="M646 622c.147-.907.023-2.048 0-3l4-2.5 3-19.5c7.074 9.655 10.997 32.23-7 25"/><path fill="#0e506f" d="M161 599c.588 3.864 2.154 9.664 3 14l-40-3c-.887-3.259-3.307-6.285-1.5-10z"/><path fill="#4fe3f6" d="m637 603-3 1c1.256-3.29-.716-8.669 3-1"/><path fill="#0b4c6b" d="M895 610c-9.889 3.614-26.275 1.612-37 3 .929-4.545 2.267-9.527 3-14 5.692 3.656 36.929-.113 38.5 1 3.1 2.196-.069 8.381-4.5 10"/><path fill="#f0fcff" d="M637 603c2.598 5.363 1.867 6.24-2.5 11l-3.5-2.5c.486-2.693 2.056-5.027 3-7.5z"/><path fill="#053953" d="M164 613c1.064 5.453 1.616 11.727 3 17-19.519.421-34.486 5.373-42-16-.266-.755-.662-2.757-1-4z"/><path fill="#043650" d="m889 628-35 3c1.389-5.457 2.861-12.429 4-18 10.725-1.388 27.111.614 37-3 6.097 1.186-4.117 15.638-6 18"/><path fill="#f8fcfe" d="M646 619c.023.952.147 2.093 0 3-.435 2.682-1.569 3.92-3 6-.964-.399-3.928.411-4.5 0-10.822-7.784 7.035-28.256 7.5-9"/><path fill="#0a5172" d="M167 630c.195.742 3.224 6.418 4 9-10.587-5.778-26.423-3.551-39-6-2.987-4.685-6.101-12.646-8-18l1-1c7.514 21.373 22.481 16.421 42 16"/><path fill="#03273b" d="M318 653c-37.11-2.024-61.774-8.457-83-39 21.49 24.019 51.274 35.851 83 39"/><path fill="#eff7fc" d="M631.5 615c3.829-.872 2.766 3.557 1 4-2.383.598-3.386-3.456-1-4"/><path fill="#0a4f6f" d="M852 636c.35-1.307 1.736-3.963 2-5l35-3c-.475.596-.543 3.998-2.5 5-6.045 3.096-26.921 2.087-34.5 3"/><path fill="#0d678b" d="M171 639c.092.306-.092.694 0 1-6.033 5.109-14.406 1.046-21.5 2l-1.5 2.5c1.64.032 2.821 3.355 3 3.5-8.356-2.851-14.292-7.615-19-15 12.577 2.449 28.413.222 39 6"/><path fill="#84a5b5" d="M645 645c-1.966 2.617-5.681 2.162-8.5 2-12.733-.73-22.618-5.082-35-3l30.5-8c1.93 2.645 9.598 8.011 13 9"/><path fill="#074b6d" d="M161 653c1.522-2.679-5.722-1.522-10-5-.179-.145-1.36-3.468-3-3.5l1.5-2.5c7.094-.954 15.467 3.109 21.5-2 .845 2.823 6.109 14.675 5 16.5z"/><path fill="#084a6a" d="M847 653c.789-3.359 2.065-5.89 3-9 39.577-7.414 19.695 8.259-3 9"/><path fill="#3ea6c7" d="M630 661c3.02.682 2.824 1.959 3 2-2.438-.411-15.703-3.26-16.5-3-.277.091-2.723 4.911-3 5-1.784.575-31.599-5.494-37-6-40.819-3.824-81.479-5.25-122.5-3l7-7c55.732-4.753 114.475-.322 169 12"/><path fill="#2bc4e5" d="m461 649-7 7c-47.095 2.583-83.597 15.507-129.5 25-.663.137-7.246 1.78-6.5-1 44.132-13.451 97.156-27.09 143-31"/><path fill="#021726" d="M861 653c-3.328 1.168-3.196 1.231-7 2 2.731-1.105 5.621-1.429 7-2"/><path fill="url(#b)" d="M633 663c.148.025 1.975 2.733 3 0 3.535.828 6.348 2.362 9 3 47.417 11.409 94.53 24.82 141 39.5-19.676 26.484-45.239 55.055-72 74.5-96.077 69.809-233.735 80.203-342 34 10.267.313 20.726 7.892 30.5 10 .293.063.596-3.712 4-3 5.867 1.227 13.429 4.946 20 6 79.435 12.74 149.763 10.641 225-20 21.092-8.59 47.216-22.029 63-38-72.818 49.28-160.668 66.607-248 59-22.083-1.923-37.635-5.616-58.5-12-38.777-11.865-56.668-21.891-89.5-44-2.095-1.411-4.398.156-6-1-3.015-2.175.627-3.213-2-5-.967-.658-2.037 1.66-3 1-2.288-1.569-23.01-22.606-20.5-10.5.67 3.233 4.283 1.309 4.5 1.5 8.063 7.096 14.312 14.731 23.5 21l-3 1c-21.756-15.338-42.833-32.698-59-54 .492.378 1.425-1.05 1.5-1 4.737 3.176 7.592 9.612 10.5 3.5L245 709c13.35-10.372 55.542-23.679 73-29-.746 2.78 5.837 1.137 6.5 1 45.903-9.493 82.405-22.417 129.5-25 41.021-2.25 81.681-.824 122.5 3 5.401.506 35.216 6.575 37 6 .277-.089 2.723-4.909 3-5 .797-.26 14.062 2.589 16.5 3m-210 96c3.411 2.364 6.294 4.099 10 6 14.381 9.657 35.838 14.663 53 16l-1.5 4c8.63.446 18.47 2.083 27 2 29.167-.282 97.382-13.671 115.5-37 11.776-15.162 21.103-39.886 3.5-54-36.498-29.264-179.061-34.31-219-10-32.454 19.755-12.881 56.105 11.5 73m-125-47c-9.3-3.905-12.432 6.991-7 13.5 11.467 13.741 45.273 1.284 32-20-2.944-4.721-5.251-2.24-6-2.5-8.402-2.913-19.858-4.304-19 9m400-1c-2.022 2.855-2.002 3.547-2.5 7l-3.5-1.5c-2.587 15.493 3.698 24.226 21.5 20.5 1.452-.304 14.526-7.274 8.5-10 1.767-2.927 2.576-8.146 2-11.5-.145-.844-1.974-.4-2-.5-4.076-15.346-14.899-16.853-24-4" style="fill:url(#b)"/>/&gt;<path fill="#021922" d="M247 672c-5.664 11.248-21.34-.338-11-10 7.126-1.093 15.953.165 11 10m-8-8c-1.392.443-1.32 1.051-2 2-3.593 5.015-2.455 5.549 3 7 1.916.51 2.167 1.281 4-1 3.848-4.788.538-9.76-5-8"/><path fill="#25d2f1" d="m244 672-5-8c5.538-1.76 8.848 3.212 5 8"/><path fill="#3ea6c7" d="M636 663c-1.025 2.733-2.852.025-3 0 .9.208 2.102-.21 3 0"/><path fill="#0b6a8d" d="M244 672c-1.833 2.281-2.084 1.51-4 1l-3-7c.68-.949.608-1.557 2-2z"/><path fill="#15bce5" d="M240 673c-5.455-1.451-6.593-1.985-3-7z"/><path fill="#080c12" d="M627 750c-13.9 12.356-29.273 17.457-47 22 .561-3.394 7.755-2.733 3-6 1.872-.499 4.056-1.409 6-2 5.46-1.66 14.725-6.61 16.5-5 7.599-5.448 20.258-12.682 21.5-23 5.852-8.797 9.66-20.463 4-30-10.457-17.62-80.757-32.078-100-30-25.821-4.892-113.335 1.349-127 25.5-3.868 6.836-3.173 11.136-2 18.5 1.104 6.929 4.006 11.914 7 18l-2 .5 14 13.5c-.625 1.794 1.875 5.224 2 7-24.381-16.895-43.954-53.245-11.5-73 39.939-24.31 182.502-19.264 219 10 17.603 14.114 8.276 38.838-3.5 54"/><path fill="#c7c9ca" d="M531 676c-6.708.724-9.649.646-9 7-38.047-1.888-88.811-.8-114 32.5l18 27c.448 2.126-1.838 1.32-2 1.5-2.793-4.49-11.765-21.107-15.5-23-.843-.427-4.417 3.191-6.5-1-1.173-7.364-1.868-11.664 2-18.5 13.665-24.151 101.179-30.392 127-25.5"/><path fill="#a5a5a6" d="M631 706v19.5c-9.165 13.888-4.472 1.269-5 0-3.795-9.129-26.219-18.22-35-22.5 1.247-1.763 1.395-7.767.5-10-3.633.355-5.053 6.268-6.5 9l-56.5-17 4.5 12.5-1 9.5c-4.782-4.967-1.315-15.728-8-19-.461-1.907-1.912-4.136-2-5-.649-6.354 2.292-6.276 9-7 19.243-2.078 89.543 12.38 100 30"/><path fill="#f7f6f5" d="M522 683c.088.864 1.539 3.093 2 5 2.511 10.38 5.773 19.968 6 31v1c-29.016-2.294-54.804 5.009-81.5 15-6.597 2.469-25.62 13.927-30.5 12 2.15-.86 4.261-1.071 6-3 .162-.18 2.448.626 2-1.5l-18-27c25.189-33.3 75.953-34.388 114-32.5"/><path fill="#d2d2d2" d="M585 702c-1.029 1.943-11.746 25.408-9.5 26 4.12-7.478 7.077-17.32 11.5-24.5.671-1.09 3.78-.189 4-.5 8.781 4.28 31.205 13.371 35 22.5.528 1.269-4.165 13.888 5 0V706c5.66 9.537 1.852 21.203-4 30-1.403 2.11-9.711 11.037-12.5 11-25.645-9.973-56.923-24.82-84.5-27v-1c3.389-3.159-1.935-12.117 2-12l1-9.5-4.5-12.5z"/><path fill="#8e9394" d="M532 707c-3.935-.117 1.389 8.841-2 12-.227-11.032-3.489-20.62-6-31 6.685 3.272 3.218 14.033 8 19"/><path fill="#7e8386" d="M591 703c-.22.311-3.329-.59-4 .5-4.423 7.18-7.38 17.022-11.5 24.5-2.246-.592 8.471-24.057 9.5-26 1.447-2.732 2.867-8.645 6.5-9 .895 2.233.747 8.237-.5 10"/><path fill="#011a1f" d="M317 703c8.726 17.264-17.954 25.208-19 9-.858-13.304 10.598-11.913 19-9m-8 15c2.328.033 2.946-1.337 4-3 8.763-13.823-12.98-13.836-12-3.5.223 2.35 5.637 6.466 8 6.5"/><path fill="#6dd7f0" d="M298 712c1.046 16.208 27.726 8.264 19-9 .749.26 3.056-2.221 6 2.5 13.273 21.284-20.533 33.741-32 20-5.432-6.509-2.3-17.405 7-13.5"/><path fill="#01161e" d="M722 715c-1.655 6.528-6.932 12.273-14 12-8.426-.326-11.258-9.084-10-16 9.101-12.853 19.924-11.346 24 4m-13.5-9c-8.911 1.65-10.188 15.608-1 18 11.08 2.884 17.174-20.995 1-18"/><path fill="#26c0e3" d="M313 715c-6.452-8.284-7.501-6.674-4 3-2.363-.034-7.777-4.15-8-6.5-.98-10.336 20.763-10.323 12 3.5m-2.5-8 .5 1.5.5.5.5-1.5z"/><path fill="#1bacd4" d="M708.5 706c16.174-2.995 10.08 20.884-1 18-9.188-2.392-7.911-16.35 1-18"/><path fill="#0c77ba" d="m310.5 707 1.5.5-.5 1.5-.5-.5z"/><path fill="#2bc4ec" d="m245 709 20 19.5c-2.908 6.112-5.763-.324-10.5-3.5-.075-.05-1.008 1.378-1.5 1-5.184-3.985-7.371-9.156-12-13.5-.286-2.779 3.399-3.033 4-3.5"/><path fill="#09668f" d="M313 715c-1.054 1.663-1.672 3.033-4 3-3.501-9.674-2.452-11.284 4-3"/><path fill="#1c6388" d="M708 727c.349 8.256 11.078 4.839 14 0 6.026 2.726-7.048 9.696-8.5 10-17.802 3.726-24.087-5.007-21.5-20.5l3.5 1.5c.498-3.453.478-4.145 2.5-7-1.258 6.916 1.574 15.674 10 16"/><path fill="#3b7b96" d="M722 727c-2.922 4.839-13.651 8.256-14 0 7.068.273 12.345-5.472 14-12 .026.1 1.855-.344 2 .5.576 3.354-.233 8.573-2 11.5"/><path fill="#e7e7e8" d="M424 744c-1.739 1.929-3.85 2.14-6 3-3.343-1.32-6.175-6.877-9-9-2.994-6.086-5.896-11.071-7-18 2.083 4.191 5.657.573 6.5 1 3.735 1.893 12.707 18.51 15.5 23"/><path fill="#262328" d="M530 720c27.577 2.18 58.855 17.027 84.5 27 2.789.037 11.097-8.89 12.5-11-1.242 10.318-13.901 17.552-21.5 23-1.775-1.61-11.04 3.34-16.5 5l-45.5-20c-34.266-9.905-73.511-1.094-99.5 23-4.183-2.107-20.134-16.887-21.5-17-2.119-.306-1.198 1.133-1.5 2l-14-13.5 2-.5c2.825 2.123 5.657 7.68 9 9 4.88 1.927 23.903-9.531 30.5-12 26.696-9.991 52.484-17.294 81.5-15"/><path fill="#585453" d="M589 764c-1.944.591-4.128 1.501-6 2-.891.237-1.113.776-2 1l-40.5-17c-32.176-8.848-66.124-1.894-92.5 18-1.575-.665-3.668-.833-4-1 25.989-24.094 65.234-32.905 99.5-23z"/><path fill="#b7b0a7" d="M581 767c-20.447 5.16-43.936 8.079-65 9l-60-5c-3.125-.86-5.122-1.786-8-3 26.376-19.894 60.324-26.848 92.5-18z"/><path fill="#0b1219" d="M444 767c.332.167 2.425.335 4 1 2.878 1.214 4.875 2.14 8 3 1.312.361 2.668.696 4 1 .598 3.398-6.472 1.281-7.5 1-4.818-1.316-14.995-5.689-19.5-8-3.706-1.901-6.589-3.636-10-6-.125-1.776-2.625-5.206-2-7 .302-.867-.619-2.306 1.5-2 1.366.113 17.317 14.893 21.5 17"/><path fill="#5eafcb" d="M486 781c29.456 2.295 65.375-1.664 94-9 17.727-4.543 33.1-9.644 47-22-18.118 23.329-86.333 36.718-115.5 37-8.53.083-18.37-1.554-27-2z"/><path fill="#61c7e4" d="M408 816c-.266.917-3.128 3.928-3.5 4-7.265 1.402-79.66-34.287-89.5-41-9.188-6.269-15.437-13.904-23.5-21-.217-.191-3.83 1.733-4.5-1.5-2.51-12.106 18.212 8.931 20.5 10.5.963.66 2.033-1.658 3-1 2.627 1.787-1.015 2.825 2 5 1.602 1.156 3.905-.411 6 1 32.832 22.109 50.723 32.135 89.5 44"/><path fill="#022538" d="M460 772c18.48 4.215 37.093 4.827 56 4 21.064-.921 44.553-3.84 65-9 .887-.224 1.109-.763 2-1 4.755 3.267-2.439 2.606-3 6-28.625 7.336-64.544 11.295-94 9-17.162-1.337-38.619-6.343-53-16 4.505 2.311 14.682 6.684 19.5 8 1.028.281 8.098 2.398 7.5-1"/><path fill="#ba8c79" d="M516 776c-18.907.827-37.52.215-56-4a94 94 0 0 1-4-1z"/><path fill="#4da9ca" d="M372 814c-21.359-9.115-41.051-20.641-60-34l3-1c9.84 6.713 82.235 42.402 89.5 41 .372-.072 3.234-3.083 3.5-4 20.865 6.384 36.417 10.077 58.5 12 87.332 7.607 175.182-9.72 248-59-15.784 15.971-41.908 29.41-63 38-75.237 30.641-145.565 32.74-225 20-6.571-1.054-14.133-4.773-20-6-3.404-.712-3.707 3.063-4 3-9.774-2.108-20.233-9.687-30.5-10"/></svg>