<svg xmlns="http://www.w3.org/2000/svg" width="1024" height="1024"><defs><linearGradient id="a" x1="357.94" x2="677.932" y1="419.38" y2="421.722" gradientUnits="userSpaceOnUse"><stop offset="23.75%" style="stop-color:#d4ecee"/><stop offset="100%" style="stop-color:#9fc5cf"/></linearGradient></defs><defs><linearGradient id="b" x1="322.629" x2="799.063" y1="598.88" y2="637.533" gradientUnits="userSpaceOnUse"><stop offset="30.335%" style="stop-color:#a4c4cf"/><stop offset="100%" style="stop-color:#638ea1"/></linearGradient></defs><defs><linearGradient id="c" x1="497.8" x2="550.986" y1="449.838" y2="658.156" gradientUnits="userSpaceOnUse"><stop offset="0%" style="stop-color:#79bcd5"/><stop offset="45.116%" style="stop-color:#1771a3"/><stop offset="100%" style="stop-color:#05395b"/></linearGradient></defs><defs><linearGradient id="d" x1="688.913" x2="591.058" y1="531.565" y2="536.892" gradientUnits="userSpaceOnUse"><stop offset="0%" style="stop-color:#152e39"/><stop offset="100%" style="stop-color:#155e6c"/></linearGradient></defs><defs><linearGradient id="e" x1="419.117" x2="345.755" y1="519.212" y2="555.847" gradientUnits="userSpaceOnUse"><stop offset="0%" style="stop-color:#14768a"/><stop offset="100%" style="stop-color:#1a4651"/></linearGradient></defs><path fill="#034180" d="M703 215c-7.629-3.468-1.205-5.684-5-11 18.176-40.131 21.828-90.516-9.5-125l7.5 24.5c.13 7.457-.268 15.258-2 22.5-6.487 27.118-26.951 38.897-45 56-5.674-.299-10.266 4.166-15 6-52.779 20.449-124.583 10.441-184 20-5.127-1.159-5.867-1.733-9-6 55.283-10.199 111.297-1.428 164-11 35.226-6.398 75.448-26.275 85-63.5-4.012.676-5.415 5.814-8 8.5-34.796 36.153-107.765 34.046-155 34-48.345-.048-84.25-3.067-133 6-18.317 3.407-36.299 8.311-54 14-21.445 6.892-43.054 15.513-63 26-51.938 27.307-87.469 63.089-111 117-2.443 5.597-12.966 29.205-13 33.5-.024 3.015 3.378-1.765 4 2-7.499 25.748-13.223 52.472-10 79.5l-1 7.5c-3.217-6.917-5.433-22.506-6-31.5-3.868-61.361 18.996-121.721 54-171l23.5-28-34 25c-7.909 7.352-14.877 15.507-21.5 24-25.093 32.178-42.789 74.32-48 115-1.817 14.181-2.231 28.692-2 43 .726 44.912 28.536 97.784 63 127-80.355-63.16-84.125-171.153-37-256.5 21.038-38.101 58.71-75.447 100-90-52.55 39.696-86.598 109.181-92.5 174.5 16.461-71.639 50.669-128.21 114-167 80.928-49.569 159.595-52.605 251.5-55h68c38.42-1.115 122.097-13.817 113-69-2.294-13.913-9.177-17.731-20-25-1.365-.916-7.604-2.632-5.5-5 26.621-2.079 42.39 29.128 46.5 51.5 4.934 26.857 2.131 49.507-6 75-2.193 6.875-11.067 16.002-4 22.5"/><path fill="#b5d9ec" d="m692 96-2 10.5-1-10c-3.381-10.914-10.688-16.685-17-25.5 10.823 7.269 17.706 11.087 20 25"/><path fill="#3fa0c2" d="M698 204c-7.802 17.226-21.945 38.354-35 52-39.994 41.807-107.222 64.318-164 69-1.889-2.04 1.038-2.475 2.5-3 69.308-24.906 130.772-35.636 174.5-103 11.408-17.574 24.181-42.573 25-63 .173-4.308 2.647-14.409-3-13-.154-5.977-2.722-11.291-4-17 1.732-7.242 2.13-15.043 2-22.5L688.5 79c31.328 34.484 27.676 84.869 9.5 125"/><path fill="#55b8dc" d="M698 143c.898 34.758-22.551 65.585-46 88-7.892 6.27-16.809 11.218-25 17-77.809 41.616-168.083 48.797-249.5 81-4.105 1.624-24.554 13.146-26 13-2.171-.219-2.786-1.536-2.5-3.5 85.795-62.345 197.503-67.969 285.5-126.5 6.076-4.041 15.715-10.402 21-15 .272-.237 6.758-5.348 4-6-6.957 6.763-15.623 12.251-24 17-81.075 45.957-161.121 60.527-243 99-40.149 18.865-79.797 42.447-116 68l17.5-19.5 1.5-5.5-8.5 2c13.824-12.625 28.529-26.468 44-37 81.621-55.565 193.895-67.769 283.5-104 14.488-5.858 33.965-15.307 44-27-4.697 2.138-12.718 12.684-17.5 5.5 3.724-1.5 5.23-4.875 8-7.5 18.049-17.103 38.513-28.882 45-56 1.278 5.709 3.846 11.023 4 17"/><path fill="#037eb6" d="M605 191c.113-5.064 5.651-5.151 9.5-5l-1.5-4c22.25-4.407 53.663-24.706 68.5-42 .448-.522 2.52-3.761.5-4 2.585-2.686 3.988-7.824 8-8.5-9.552 37.225-49.774 57.102-85 63.5"/><path fill="#61bbda" d="M613 182c-34.217 6.777-74.054 3.127-109 5 12.668-1.604 25.238-3.485 38-5 23.657-2.808 50.301.039 71.5-12-27.532 3.001-55.269 5.554-83 3-2.738-.252-3.957.972-3.5-3 47.235.046 120.204 2.153 155-34 2.02.239-.052 3.478-.5 4-14.837 17.294-46.25 37.593-68.5 42"/><path fill="#3698bd" d="m701 156-34 68c-43.194 43.346-77.99 66.295-136.5 87-14.527 5.141-32.465 11.581-47.5 12 65.583-29.217 114.181-39.6 169-92 23.449-22.415 46.898-53.242 46-88 5.647-1.409 3.173 8.692 3 13"/><path fill="#6ebdd6" d="M676 219c-1.225-3.917-7.523 3.518-9 5l34-68c-.819 20.427-13.592 45.426-25 63"/><path fill="#0787be" d="M579 165h-68c22.722-.592 45.45.654 68 0"/><path fill="#b0e1f3" d="M527 170c-.457 3.972.762 2.748 3.5 3 27.731 2.554 55.468.001 83-3-21.199 12.039-47.843 9.192-71.5 12 .465-4.017-.8-2.71-3.5-3-37.734-4.057-107.848-6.448-143.5 3 .601-1.556-.056-4.502-1-6 48.75-9.067 84.655-6.048 133-6"/><path fill="#9ed9f0" d="M394 176c.944 1.498 1.601 4.444 1 6-5.307 1.406-10.966 2.83-16 5-6.623 2.056-12.606 4.411-19 7-.303-3.781-8.901.8-12 2-.144-6.373-7.621.732-9.5 0l1.5-6c17.701-5.689 35.683-10.593 54-14"/><path fill="#84ceeb" d="M542 182c-12.762 1.515-25.332 3.396-38 5-15.439 1.955-31.736 3.158-47 6-38.874-2.55-78.108 11.213-113 27-15.937 7.211-31.437 15.333-46 25l-7-14c15.835-12.171 38.466-27.822 57-35 3.099-1.2 11.697-5.781 12-2-16.181 6.552-46.836 23.429-59.5 35-.438.4-3.949 3.004-1 3 24.738-18.065 53.299-30.939 81.5-41.5l-15 3c2.897-2.921 9.395-3.102 12.5-4.5.913-.411.367-1.943.5-2 2.549-.791 14.417-.897 16-5 35.652-9.448 105.766-7.057 143.5-3 2.7.29 3.965-1.017 3.5 3"/><path fill="#b0e1f3" d="M395 182c-1.583 4.103-13.451 4.209-16 5 5.034-2.17 10.693-3.594 16-5"/><path fill="#1083b3" d="m613 182 1.5 4c-3.849-.151-9.387-.064-9.5 5-52.703 9.572-108.717.801-164 11-142.735 26.332-267.696 151.249-254 298 .314 3.363.748 6.604 1 10h-1c-9.957-17.693-14.615-36.94-16-57 5.199-5.081 2.699-17.478 4-25.5 4.106-25.317 16.92-58.779 29-81.5 21.086-39.659 56.703-76.242 94-101 14.563-9.667 30.063-17.789 46-25-16.804 12.712-35.373 22.919-52 36-.993.561-3.072.492-4 2.5 2.079 1.708 3.239-1.901 4-2.5 51.848-29.327 106.112-52.035 165-63 15.264-2.842 31.561-4.045 47-6 34.946-1.873 74.783 1.777 109-5"/><path fill="#90d4ed" d="M649 182c-2.77 2.625-4.276 6-8 7.5 4.782 7.184 12.803-3.362 17.5-5.5-10.035 11.693-29.512 21.142-44 27-89.605 36.231-201.879 48.435-283.5 104-10.374 6.012-22.451 12.902-32 20-2.936-.229-5.56-3.368-5-6 14.157-13.674 28.222-27.166 44-39 7.29-5.468 14.473-9.966 22-15 27.87-12.804 55.734-27.672 85.5-36 57.636-16.127 121.095-13.449 175.5-41 4.405-1.402 10.039-7.166 15.5-8l-2.5-2c4.734-1.834 9.326-6.299 15-6"/><path fill="#b0e1f3" d="M379 187c-.133.057.413 1.589-.5 2-3.105 1.398-9.603 1.579-12.5 4.5l15-3c-28.201 10.561-56.762 23.435-81.5 41.5-2.949.004.562-2.6 1-3 12.664-11.571 43.319-28.448 59.5-35 6.394-2.589 12.377-4.944 19-7"/><path fill="#79c8e7" d="m634 188 2.5 2c-5.461.834-11.095 6.598-15.5 8-46.633 14.841-107.204 17.592-156 26-61.592 10.613-127.122 42.932-172 87-5.485-3.868-5.947-11.189-4-17 1.731-1.539 2.656-1.843 4-3 12.269-10.568 25.858-22.317 39.5-31 63.408-40.361 143.93-39.654 216-54l1-3c-63.844 1.274-126.28 11.173-185.5 35 .657-.388 3.135-4.788 3.5-5 7.694-4.467 19.704-5.896 25.5-13 17.811-5.153 38.619-9.043 57-12 59.417-9.559 131.221.449 184-20"/><path fill="#0c4b74" d="M869 203c.344 8.444.648 17.137-1 25.5-.167.849-1.976.4-2 .5 2.406-9.402 1.197-19.591-3.5-28 .344 12.876-1.981 22.103-8.5 33h-3c.695-.874 3.242-4.711 2.5-6-17.162 21.396-56.116 22.869-81 17-21.869-5.158-58.864-31.636-80.5-19-1.775 1.037-24.042 27.263-27 31l-2-1c13.055-13.646 27.198-34.774 35-52 3.795 5.316-2.629 7.532 5 11 7.98 3.628 20.632 3.275 29.5 6 37.232 11.442 109.619 46.44 125.5-11.5l-.5-20.5c5.94 3.688 9.133 7.645 11.5 14"/><path fill="#bde5f5" d="M348 196c-18.534 7.178-41.165 22.829-57 35-18.145 13.946-34.342 29.802-49.5 47l18.5-25.5c13.88-14.239 27.921-28.208 44-40-41.13 17.385-75.219 49.025-96 88.5 6.562-22.234 24.873-43.972 41-60 8.871-8.816 19.002-16.338 28-25 19.946-10.487 41.555-19.108 63-26l-1.5 6c1.879.732 9.356-6.373 9.5 0"/><path fill="#2387b1" d="M627 248c-28.032 19.787-50.319 33.156-82 47-49.23 13.486-97.062 31.81-145 49-12.287 4.406-24.778 8.437-37 13-52.763 19.699-105.948 37.644-149 76-8.085 7.203-15.092 12.973-21 22.5-.501.976-1.887-.678-2-1-2.515-7.143 10.825-50.892 16-59.5-.678 4.319-.695 10.028-1 14.5 1.681 3.257 23.331-32.719 25-35 9.355-12.785 19.926-24.784 30-37-.485-1.862-12.035 6.351-6-7.5 4.688-10.76 24.834-27.851 34-36-1.947 5.811-1.485 13.132 4 17-5.157 5.064-12.842 12.807-17 18.5-.664.91-5.49 6.563-3.5 7.5 16.661-19.213 35.668-32.143 56.5-46 3.643 1.818 8.745-5.852 9-1-15.778 11.834-29.843 25.326-44 39-14.684 14.184-30.861 28.885-43 45.5-1.755 2.402-7.739 8.159-3 10.5-.51 1.074-3.656 10.597-2.5 11 10.789-17.332 26.6-30.392 41.5-44l8.5-2-1.5 5.5-17.5 19.5c36.203-25.553 75.851-49.135 116-68 81.879-38.473 161.925-53.043 243-99 8.377-4.749 17.043-10.237 24-17 2.758.652-3.728 5.763-4 6-5.285 4.598-14.924 10.959-21 15-87.997 58.531-199.705 64.155-285.5 126.5-.286 1.964.329 3.281 2.5 3.5 1.446.146 21.895-11.376 26-13 81.417-32.203 171.691-39.384 249.5-81M256.5 353 238 377.5 223.5 403c10.174-17.22 22.497-33.027 33-50"/><path fill="#49bbe2" d="M457 193c-58.888 10.965-113.152 33.673-165 63 16.627-13.081 35.196-23.288 52-36 34.892-15.787 74.126-29.55 113-27"/><path fill="#e4f8fe" d="M621 198c-54.405 27.551-117.864 24.873-175.5 41-29.766 8.328-57.63 23.196-85.5 36 8.371-5.599 16.938-9.079 25.5-14 2.023-1.163-.59-1.949-.5-2 25.55-14.581 53.048-23.305 80-35 48.796-8.408 109.367-11.159 156-26"/><path fill="#439bb6" d="M866 229c-.076.315.083.69 0 1l-15 19c-16.794 11.658-36.407 17.415-57 13.5 23.355-.968 47.317-7.299 60-28.5 6.519-10.897 8.844-20.124 8.5-33 4.697 8.409 5.906 18.598 3.5 28"/><path fill="#054177" d="M441 202c3.133 4.267 3.873 4.841 9 6-18.381 2.957-39.189 6.847-57 12-59.969 17.351-114.222 57.848-151 108-11.597 15.815-32.006 47.91-35 67-5.175 8.608-18.515 52.357-16 59.5.113.322 1.499 1.976 2 1 5.908-9.527 12.915-15.297 21-22.5 3.004 7.473 3.396.413 7.5-2 1.121-.659 5.086-1.543 7.5-3v2c-17.557 9.647-34.952 24.314-37 45-5.957 5.314 2.569 21.393-5 25-13.696-146.751 111.265-271.668 254-298"/><path fill="#c0e7f8" d="M293 291c-1.486-2.554 3.972-6.712 5.5-8 22.026-18.564 40.905-30.465 65.5-45 59.22-23.827 121.656-33.726 185.5-35l-1 3c-72.07 14.346-152.592 13.639-216 54-13.642 8.683-27.231 20.432-39.5 31"/><path fill="#09345f" d="M731 293c-2.563-.21-6.653.109-10 0l-9-2.5 10.5-.5c-3.246-4.71-11.105.481-15.5-3.5 2.939-.119 6.365-1.272 9-1.5.34 3.537 9.256 1.588 13 3-.274.037-6.503 1.188-4.5 3 36.672 5.98 75.837 8.148 107.5-14 17.013-11.9 28.768-27.575 34-47 .083-.31-.076-.685 0-1 .024-.1 1.833.349 2-.5 1.648-8.363 1.344-17.056 1-25.5 12.648 33.954-23.797 74.271-53.5 86-31.605 12.481-52.997 6.584-84.5 4"/><path fill="#69bcdb" d="m291 231 7 14c-37.297 24.758-72.914 61.341-94 101l-8-2c2.773-5.341 4.841-10.761 8-16 1.565-2.595 4.305-4.912 6-7.5l-5 2c-1.222-8.661.746-13.864 3-21.5 20.781-39.475 54.87-71.115 96-88.5-16.079 11.792-30.12 25.761-44 40L241.5 278c15.158-17.198 31.355-33.054 49.5-47"/><path fill="#92d0e8" d="M249 241c-36.675 19.876-58.73 51.793-78 87.5-.16.296-4.813 8.655-5 4.5 23.531-53.911 59.062-89.693 111-117-8.998 8.662-19.129 16.184-28 25"/><path fill="#5ab8d3" d="M676 219c-43.728 67.364-105.192 78.094-174.5 103-1.462.525-4.389.96-2.5 3-3.713.306-20.126 2.209-21.5 2-.182-.028-2.012-1.489-1-2 2.608.525 4.376-1.054 6.5-2 15.035-.419 32.973-6.859 47.5-12 58.51-20.705 93.306-43.654 136.5-87 1.477-1.482 7.775-8.917 9-5"/><path fill="#a0d9ef" d="M393 220c-5.796 7.104-17.806 8.533-25.5 13-.365.212-2.843 4.612-3.5 5-24.595 14.535-43.474 26.436-65.5 45-1.528 1.288-6.986 5.446-5.5 8-1.344 1.157-2.269 1.461-4 3-9.166 8.149-29.312 25.24-34 36-6.455-2.111-6.792-6.737-13-2 36.778-50.152 91.031-90.649 151-108"/><path fill="#4f98b1" d="M851 234c-13.957 17.546-45.308 22.809-66.5 21-33.647-2.873-59.221-27.665-92.5-29 21.636-12.636 58.631 13.842 80.5 19 24.884 5.869 63.838 4.396 81-17 .742 1.289-1.805 5.126-2.5 6"/><path fill="#b2e2f3" d="M465 224c-26.952 11.695-54.45 20.419-80 35-20.172 8.121-38.05 20.059-56 32-20.832 13.857-39.839 26.787-56.5 46-1.99-.937 2.836-6.59 3.5-7.5 4.158-5.693 11.843-13.436 17-18.5 44.878-44.068 110.408-76.387 172-87"/><path fill="#42a4c9" d="M194 253c-2.988-.487-5.328 2.543-7 4.5-22.564 26.423-38.453 65.418-51 97.5.064-.272-1.73-2.646-1-5.5 8.096-31.66 23.737-64.793 47-88-9.244-3.078-11.557 18.466-20 12.5 6.623-8.493 13.591-16.648 21.5-24l34-25z"/><path fill="#0e5c83" d="M851 234h3c-12.683 21.201-36.645 27.532-60 28.5 20.593 3.915 40.206-1.842 57-13.5-30.566 47.085-88.761 32.005-135 36-2.635.228-6.061 1.381-9 1.5 4.395 3.981 12.254-1.21 15.5 3.5l-10.5.5 9 2.5c-4.223-.137-14.954-3.28-12 3-25.065-3.692-42.097 4.052-65 9-2.355.509-4.664 3.511-7 4-17.363 3.632-46.981 9.009-64.5 11-1.626.185-9.555 1.208-9.5-2 23.133-6.013 45.929-13.998 65.5-28h79c-14.87-6.648-49.305 1.055-62-4-7.791-3.102 5.393-16.458 9-18 .235-.101.397 3.023 3 2 32.571-12.8 62.067-14.577 97-10l-1-2c-28.644-2.35-60.673-8.167-86 3-.502.221-7.427 9.252-7 2 2.975-1.142 3.533-4.779 4.5-6 2.958-3.737 25.225-29.963 27-31 33.279 1.335 58.853 26.127 92.5 29 21.192 1.809 52.543-3.454 66.5-21"/><path fill="#3183a1" d="M866 230c-5.232 19.425-16.987 35.1-34 47l.5-5c-13.791 9.741-32.212 16.418-49 18-16.51 1.556-41.223-3.774-54.5-2-3.744-1.412-12.66.537-13-3 46.239-3.995 104.434 11.085 135-36z"/><path fill="#033667" d="M652 231c-54.819 52.4-103.417 62.783-169 92-2.124.946-3.892 2.525-6.5 2-1.012.511.818 1.972 1 2 1.374.209 17.787-1.694 21.5-2 56.778-4.682 124.006-27.193 164-69l2 1c-.967 1.221-1.525 4.858-4.5 6-.427 7.252 6.498-1.779 7-2 25.327-11.167 57.356-5.35 86-3l1 2c-34.933-4.577-64.429-2.8-97 10-2.603 1.023-2.765-2.101-3-2-3.607 1.542-16.791 14.898-9 18 12.695 5.055 47.13-2.648 62 4h-79c-19.571 14.002-42.367 21.987-65.5 28-7.978 2.074-16.098 3.682-24 6-16.597-.26-41.325 7.983-59 8-4.406.399-17.616-1.474-20.5-1-3.529.58-13.246 5.816-18 7-26.336 6.561-51.977 15.234-78.5 21 .165-.405-.087-1.371 0-2 12.222-4.563 24.713-8.594 37-13 49.016-13.86 98.314-28.6 145-49 31.681-13.844 53.968-27.213 82-47 8.191-5.782 17.108-10.73 25-17"/><path fill="#3188a6" d="M249 241c-16.127 16.028-34.438 37.766-41 60-2.254 7.636-4.222 12.839-3 21.5l5-2c-1.695 2.588-4.435 4.905-6 7.5-17.429 21.279-29.653 50.962-35 78-1.583 8.006-3.59 16.897-4 25-2.083 3.185-8.552 17.799-9 20.5-1.532 9.244 2.354 19.49-1 28.5-3.34-8.812-6.895-22.73-8-32-3.223-27.028 2.501-53.752 10-79.5-.622-3.765-4.024 1.015-4-2 .034-4.295 10.557-27.903 13-33.5.187 4.155 4.84-4.204 5-4.5 19.27-35.707 41.325-67.624 78-87.5"/><path fill="#0873a3" d="M194 253c-35.004 49.279-57.868 109.639-54 171-2.795 11.946.789 27.832 4 40l-8 2c-2.848-9.684-5.622-17.822-7-28-3.944-29.128-1.322-45.015 4-73 .648-3.405 2.2-6.612 3-10 12.547-32.082 28.436-71.077 51-97.5 1.672-1.957 4.012-4.987 7-4.5"/><path fill="#49bbe2" d="M292 256c-.761.599-1.921 4.208-4 2.5.928-2.008 3.007-1.939 4-2.5"/><path fill="#40a5ce" d="M360 275c-7.527 5.034-14.71 9.532-22 15-.255-4.852-5.357 2.818-9 1 17.95-11.941 35.828-23.879 56-32-.09.051 2.523.837.5 2-8.562 4.921-17.129 8.401-25.5 14"/><path fill="#71bdd9" d="M136 355c-.8 3.388-2.352 6.595-3 10 .049-3.177-2.939-4.715-3-5-1.067-5.002 3.233-18.06 5-23.5 1.826-5.621 12.677-25.986 13-29 .182-1.702.076-3.429-2-2-7.693 12.943-14.419 25.546-19 40-4.345 13.707-4.522 32.138-13 43.5 5.211-40.68 22.907-82.822 48-115 8.443 5.966 10.756-15.578 20-12.5-23.263 23.207-38.904 56.34-47 88-.73 2.854 1.064 5.228 1 5.5"/><path fill="#0f5c83" d="M832 277c-31.663 22.148-70.828 19.98-107.5 14-2.003-1.812 4.226-2.963 4.5-3 13.277-1.774 37.99 3.556 54.5 2 16.788-1.582 35.209-8.259 49-18z"/><path fill="#094f80" d="M911 406c14.62-6.434 24.559-17.549 34-30 20.029-26.416 26.829-54.879 6.5-84l-3.5 3c-.512-4.085-1.142-6.806-3-10.5 48.084 26.844 8.336 107.531-34 121.5"/><path fill="#0b4568" d="M721 293c3.347.109 7.437-.21 10 0l115.5 57c11.265 3.651 24.968 12.001 36.5 14v4c-66.911-4.604-120.385-64.104-174-72-2.954-6.28 7.777-3.137 12-3"/><path fill="#4fa6c2" d="M945 376c-14.571 10.443-29.126 21.742-47 26 4.898-3.574 9.539-7.874 14-12 4.075-3.769 8.432-6.63 12-11 13.189-10.504 25.734-30.684 28-47.5.551-4.089 2.063-18.215-3-18.5.623-6.07-.248-12.002-1-18l3.5-3c20.329 29.121 13.529 57.584-6.5 84m5.5-78c-.685.189.837 6.196 1 7 .539-.002 1.525-7.698-1-7m1 8 .5 1.5.5.5.5-1.5z"/><path fill="#2e97bb" d="M545 295c-46.686 20.4-95.984 35.14-145 49 47.938-17.19 95.77-35.514 145-49"/><path fill="#3e8eab" d="M709 296c53.615 7.896 107.089 67.396 174 72 21.149 1.455 32.363-2.523 49-15-6.955 10.339-24.037 17.151-36 19-67.123 10.376-132.461-49.21-195-63-19.814-4.369-36.785-4.836-57-4 22.903-4.948 39.935-12.692 65-9"/><path fill="#e9fdf9" d="M950.5 298c2.525-.698 1.539 6.998 1 7-.163-.804-1.685-6.811-1-7"/><path fill="#1c7294" d="M701 309c-.835 1.748-1.795 1.647-2 4h-61.5l-.5-4c2.336-.489 4.645-3.491 7-4 20.215-.836 37.186-.369 57 4"/><path fill="#addded" d="M130 360c-3.144-.44-2.85.278-4 2.5-5.696 11.007-9.937 50.757-8 63 .615 3.885-.148 1.657 3 1.5.151 7.067 1.088 16.404 2 23.5.409 3.187 9.19 35.491 5.5 35.5L112 432c-.231-14.308.183-28.819 2-43 8.478-11.362 8.655-29.793 13-43.5 4.581-14.454 11.307-27.057 19-40 2.076-1.429 2.182.298 2 2-.323 3.014-11.174 23.379-13 29-1.767 5.44-6.067 18.498-5 23.5"/><path fill="#154d79" d="m951.5 306 1.5.5-.5 1.5-.5-.5z"/><path fill="#0c4765" d="m637 309 .5 4H699c-.057.654.027 1.341 0 2-4.764-.387-9.579-1.776-14.5-1 5.612 3.955 16.753 4.914 24 8 60.902 25.932 61.98 71.146 145.5 79-1.349 2.465-12.208 2.995-14.5 3-4.212.009-10.296-.504-14.5-1-46.943-5.538-58.94-30.796-93.5-52-3.4-2.086-18.737-12.792-19.5-6-3.011-1.813-5.923-4.379-9-6 7.099.414-3.624-4.597-4.5-5-4.951-2.275-11.06-4.156-16.5-5-26.765-8.567-52.772-6.12-79 2-4.532 1.403-10.998 1.105-15 5-1.641-.07-3.356-.043-5 0-11.811-3.761-31.984-11.812-44-12 7.902-2.318 16.022-3.926 24-6-.055 3.208 7.874 2.185 9.5 2 17.519-1.991 47.137-7.368 64.5-11"/><path fill="#155472" d="m896 372-1 5c-36.816 5.324-77.512-8.62-110.5-24-25.914-12.082-56.708-35.659-85.5-38 .027-.659-.057-1.346 0-2 .205-2.353 1.165-2.252 2-4 62.539 13.79 127.877 73.376 195 63"/><path fill="#074979" d="M924 379c2.096-2.567 16.125-24.938 17-27.5.604-1.769 1.116-3.36-1-4.5 4.974-5.411 6.881-11.893 7-19.5-3.093 4.776-6.021 8.382-10 12.5 5.433-9.238 10.858-15.869 12-27 5.063.285 3.551 14.411 3 18.5-2.266 16.816-14.811 36.996-28 47.5"/><path fill="#398aa8" d="M699 315c28.792 2.341 59.586 25.918 85.5 38 32.988 15.38 73.684 29.324 110.5 24 9.763-1.412 18.02-6.617 27-6.5-25.073 19.22-62.303 24.104-93 18 17.221 9.057 39.591 4.989 58.5 3.5l-7.5 9c-9.653 1.413-16.038.937-26 0-83.52-7.854-84.598-53.068-145.5-79-7.247-3.086-18.388-4.045-24-8 4.921-.776 9.736.613 14.5 1"/><path fill="#18668d" d="M331 315c-15.471 10.532-30.176 24.375-44 37-14.9 13.608-30.711 26.668-41.5 44-1.156-.403 1.99-9.926 2.5-11 6.311-13.282 38.417-40.646 51-50 9.549-7.098 21.626-13.988 32-20"/><path fill="#76949a" d="M539 324c12.016.188 32.189 8.239 44 12-7.346.19-18.605 4.198-26.5 5-66.423 6.744-124.717 11.568-188.5 32-19.967 6.396-40.059 12.384-59 22 .151-.082-.436-1.48.5-2 7.954-4.414 22.338-4.016 13.5-16 8.739-3.785 18.372-5.887 27-10l130-35c17.675-.017 42.403-8.26 59-8"/><path fill="#145675" d="M682 329c5.63 1.802 15.461 7.081 21 10 3.077 1.621 5.989 4.187 9 6 32.995 19.866 56.798 50.609 95.5 59 2.769.6 18.249 4.423 17.5-1 4.204.496 10.288 1.009 14.5 1 2.292-.005 13.151-.535 14.5-3 9.962.937 16.347 1.413 26 0 6.168-.903 11.907-2.909 18-4-41.799 26.494-47.258 25.137-96 29-14.987-5.185-39.299-24.885-55-34-1.628-3.215-8.402-7.241-11.5-9-30.065-17.072-63.504-33.517-96.5-44h14.5c.796-.34.833-1.526 0-2-1.53-.871-21.776-2.644-25.5-3-5.092-.487-12.227-1.7-17 0-2.174-.761-6.164-.981-8-3 26.228-8.12 52.235-10.567 79-2"/><path fill="#72c0dc" d="M255 330c-6.035 13.851 5.515 5.638 6 7.5-10.074 12.216-20.645 24.215-30 37-1.669 2.281-23.319 38.257-25 35 .305-4.472.322-10.181 1-14.5 2.994-19.09 23.403-51.185 35-67 6.208-4.737 6.545-.111 13 2"/><path fill="#16759e" d="M204 328c-3.159 5.239-5.227 10.659-8 16-10.778 20.763-17.6 35.463-22 59l-5 3c5.347-27.038 17.571-56.721 35-78"/><path fill="#105e86" d="M940 347c-1.238 1.347-5.119 3.505-7 5-3.676-2.774 2.302-9.113 4-12 3.979-4.118 6.907-7.724 10-12.5-.119 7.607-2.026 14.089-7 19.5"/><path fill="#5eb6d4" d="M294 329c-.56 2.632 2.064 5.771 5 6-12.583 9.354-44.689 36.718-51 50-4.739-2.341 1.245-8.098 3-10.5 12.139-16.615 28.316-31.316 43-45.5"/><path fill="#2a7c9b" d="M703 339c-5.539-2.919-15.37-8.198-21-10 5.44.844 11.549 2.725 16.5 5 .876.403 11.599 5.414 4.5 5"/><path fill="#214050" d="m480 332-130 35c1.654-4.252 11.459-4.226 13-8 26.523-5.766 52.164-14.439 78.5-21 4.754-1.184 14.471-6.42 18-7 2.884-.474 16.094 1.399 20.5 1"/><path fill="#457c92" d="M603 331c1.836 2.019 5.826 2.239 8 3 5.022 1.759 9.915 4.372 15 6-6.628-1.038-21.931-.492-30-1-2.876-.181-7.573-2.982-8-3 4.002-3.895 10.468-3.597 15-5"/><path fill="#1e3e51" d="M628 334c-.892 4.738 3.609 3.234 6 4-1.617 1.741.127 2.529 1.5 3 41.593 14.265 73.467 28.922 111.5 51 15.701 9.115 40.013 28.815 55 34-1.118.089-3.385-.438-4 .5 35.495 25.749 34.157 51.839 30 92C813.835 655.351 725.412 814.431 595.5 871 430.111 943.017 278.4 792.541 222 648.5c-4.779-12.206-21.486-72.52-25.5-76.5-2.678-2.655-10.622-4.97-14.5-8 5.891-.194 13.221 6.708 13-4.5-11.837-14.132-24.434-27.307-35-42.5l31.5 30c2.896-14.559-2.252-14.277-10.5-21l-20-27.5c.025-2.888-6.584-8.381-2-10.5 3.491 7.153 18.629 31.174 24.5 35 8.105 5.281 4.754-9.579 4.5-13-.252-3.396-.686-6.637-1-10 7.569-3.607-.957-19.686 5-25-1.634 16.504 1.016 36.476 3 53 16.307 135.808 107.88 294.701 241 344 77.465 28.688 152.069 12.183 215-40 72.639-52.617 126.109-137.49 153-222.5 10.796-34.131 32.032-121.969 16-152.5-19.138-36.446-153.425-110.645-194-117-5.085-1.628-9.978-4.241-15-6 4.773-1.7 11.908-.487 17 0"/><path fill="#083357" d="M639 339c-1.18-.375-2.894-.325-5-1-2.391-.766-6.892.738-6-4 3.724.356 23.97 2.129 25.5 3 .833.474.796 1.66 0 2z"/><path fill="url(#a)" d="M583 336c1.644-.043 3.359-.07 5 0 .427.018 5.124 2.819 8 3 19.503 12.909 40.812 23.986 59.5 39 18.965 15.237 39.98 44.5 55 56 5.004 3.831 33.31 11.98 42 16 20.128 9.31 40.461 15.906 40.5 41h-3c-.198-17.416-12.217-22.528-26-29-54.485-25.585-148.701-40.107-209-44-35.213-2.274-69.737-2.612-105 0-56.719 4.201-130.845 17.639-183.5 39-26.623 10.8-38.065 13.613-34.5 45-1.812 3.768-2.857-.613-3-1.5-5.175-32.049 11.311-36.92 36.5-49.5 25.499-12.735 52.95-21.544 81-27 2.12-1.417 4.661-25.977 3.5-30 6.793-6.128 14.251-12.444 18-21 63.783-20.432 122.077-25.256 188.5-32 7.895-.802 19.154-4.81 26.5-5" style="fill:url(#a)"/>/&gt;<path fill="#3f8499" d="M639 339c32.996 10.483 66.435 26.928 96.5 44 3.098 1.759 9.872 5.785 11.5 9-38.033-22.078-69.907-36.735-111.5-51-1.373-.471-3.117-1.259-1.5-3 2.106.675 3.82.625 5 1"/><path fill="url(#b)" d="M626 340c40.575 6.355 174.862 80.554 194 117 1.483 4.988 7.197 24.663 5 28.5-.66 1.153-3.339-.153-4 1-.873 1.524-2.168 29.836-3 35-18.99 117.916-74.039 233.416-167 310.5-62.931 52.183-137.535 68.688-215 40 1.582-1.948.045-2.246-1.5-3C319.034 812.623 247.352 710.359 215 586.5c-4.708-18.026-6.732-46.438-12-62-.183-.541-1.461-2.956-2.5-2.5l-5.5 6c-1.984-16.524-4.634-36.496-3-53 2.048-20.686 19.443-35.353 37-45 .21-.115 4.641-2.688 4-.5-11.529 8.424-27.88 21.42-33 35-.419 1.113-2.52 7.029 1 6.5-4.645 14.682 2.249 33.701 6 48.5 21.281 83.952 53.829 177.3 110 244 19.909 23.641 44.05 47.855 72.5 60.5 2.548-1.249-19.843-25.311-21.5-27.5-29.866-39.458-52.365-84.134-74-128.5 12.033 7.285 52.812 12.73 69.5 15 61.145 8.316 129.273 10.996 191 9 30.834-.997 143.145-8.085 165-23 27.195-18.56 73.552-144.639 73.5-178-.039-25.094-20.372-31.69-40.5-41-8.69-4.02-36.996-12.169-42-16-15.02-11.5-36.035-40.763-55-56-18.688-15.014-39.997-26.091-59.5-39 8.069.508 23.372-.038 30 1M453 751c-11.653 15.065-7.138 18.718-13 31.5-.15.328-5.138 1.399-6 4-3.171 9.57 7.113 12.753 12 17.5 8.506 18.766 20.85 31.573 39 41 19.755 10.261 41.357 13.863 62.5 4 19.503-9.098 22.65-29.582 29.5-47 1.938-4.927 8.571-12.967 8-16.5-.433-2.68-5.951-5.934-7-8-2.215-4.362-2.875-8.286-6-13.5 2.763-1.663-.31-3.742-1-5-8.505-15.503-22.75-41.769-44-35-30.396-9.469-55.27 2.787-74 27m-63.5-20c-23.829 3.77-25.273 42.922-1 47 37.554 6.31 37.141-52.719 1-47m223 6c-24.917 3.788-26.695 46.339 0 50 38.308 5.254 37.739-55.737 0-50" style="fill:url(#b)"/>/&gt;<path fill="#093057" d="M933 352c-.055.044-.184.388-1 1-16.637 12.477-27.851 16.455-49 15v-4c24.363 4.223 38.143-7.59 54-24-1.698 2.887-7.676 9.226-4 12"/><path fill="#043154" d="M825 403c.749 5.423-14.731 1.6-17.5 1-38.702-8.391-62.505-39.134-95.5-59 .763-6.792 16.1 3.914 19.5 6 34.56 21.204 46.557 46.462 93.5 52"/><path fill="#48a2c0" d="M204 346c-12.08 22.721-24.894 56.183-29 81.5-1.301 8.022 1.199 20.419-4 25.5-1.371-19.857-.622-30.624 3-50 4.4-23.537 11.222-38.237 22-59z"/><path fill="#287d9d" d="M924 379c-3.568 4.37-7.925 7.231-12 11-3.995 2.813-10.079 4.515-14 7-6.093 1.091-11.832 3.097-18 4l7.5-9c-18.909 1.489-41.279 5.557-58.5-3.5 30.697 6.104 67.927 1.22 93-18-8.98-.117-17.237 5.088-27 6.5l1-5c11.963-1.849 29.045-8.661 36-19 .816-.612.945-.956 1-1 1.881-1.495 5.762-3.653 7-5 2.116 1.14 1.604 2.731 1 4.5-.875 2.562-14.904 24.933-17 27.5"/><path fill="#4ba6c5" d="M256.5 353c-10.503 16.973-22.826 32.78-33 50l14.5-25.5z"/><path fill="#0a456e" d="M363 359c-1.541 3.774-11.346 3.748-13 8-8.628 4.113-18.261 6.215-27 10-29.542 12.795-52.636 25.369-80 42-4.734 2.877-9.314 6.171-14 9-2.414 1.457-6.379 2.341-7.5 3-4.104 2.413-4.496 9.473-7.5 2 43.052-38.356 96.237-56.301 149-76-.087.629.165 1.595 0 2"/><path fill="#95cfe3" d="M130 360c.061.285 3.049 1.823 3 5-5.322 27.985-7.944 43.872-4 73-1.44.285-1.181 4.08-3 .5-3.209-6.315-2.824-19.717-3-27-3.424 1.966-2.084 11.579-2 15.5-3.148.157-2.385 2.385-3-1.5-1.937-12.243 2.304-51.993 8-63 1.15-2.222.856-2.94 4-2.5"/><path fill="#f5fdfe" d="M368 373c-3.749 8.556-11.207 14.872-18 21-10.729 9.678-26.266 21.24-38.5 29-72.403 45.924-107.354 16.52-75.5 123 7.885 26.357 35.373 108.301 58 122 21.635 44.366 44.134 89.042 74 128.5 1.657 2.189 24.048 26.251 21.5 27.5-28.45-12.645-52.591-36.859-72.5-60.5-56.171-66.7-88.719-160.048-110-244-3.751-14.799-10.645-33.818-6-48.5 5.391-17.04 44.211-42.647 60-52 15.578-9.228 32.451-15.552 48-24 18.941-9.616 39.033-15.604 59-22"/><path fill="#0c6d98" d="M945 376c-9.441 12.451-19.38 23.566-34 30-9.68 4.26-19.675 6.151-30 8 3.669-2.07 12.532-8.74 17-12 17.874-4.258 32.429-15.557 47-26"/><path fill="#72a0b0" d="M309 395c-15.549 8.448-32.422 14.772-48 24l-2.5-6c-.923-.018-16.236 12.216-15.5 6 27.364-16.631 50.458-29.205 80-42 8.838 11.984-5.546 11.586-13.5 16-.936.52-.349 1.918-.5 2"/><path fill="#1f3d50" d="M912 390c-4.461 4.126-9.102 8.426-14 12-4.468 3.26-13.331 9.93-17 12-21.368 12.056-55.714 20.056-79 12 48.742-3.863 54.201-2.506 96-29 3.921-2.485 10.005-4.187 14-7"/><path fill="#cde7ef" d="M232 502c.258 2.273.62 4.747 1 7l-3 1.5c.572 6.009 9.114 27.04 9 31-.129 4.464-3.15.854-3 4.5-31.854-106.48 3.097-77.076 75.5-123 12.234-7.76 27.771-19.322 38.5-29 1.161 4.023-1.38 28.583-3.5 30-28.05 5.456-55.501 14.265-81 27-25.189 12.58-41.675 17.451-36.5 49.5.143.887 1.188 5.268 3 1.5"/><path fill="#094870" d="M174 403c-3.622 19.376-4.371 30.143-3 50 1.385 20.06 6.043 39.307 16 57-3.667 1.514-8.746-10.557-10-13.5-8.121-19.062-13.046-44.841-12-65.5.41-8.103 2.417-16.994 4-25z"/><path fill="#61b1cb" d="M129 438c1.378 10.178 4.152 18.316 7 28 6.452 21.937 10.983 32.283 24 51 10.566 15.193 23.163 28.368 35 42.5.221 11.208-7.109 4.306-13 4.5-2.256-1.762-4.395-2.791-7-5-34.464-29.216-62.274-82.088-63-127l16.5 54c3.69-.009-5.091-32.313-5.5-35.5-.912-7.096-1.849-16.433-2-23.5-.084-3.921-1.424-13.534 2-15.5.176 7.283-.209 20.685 3 27 1.819 3.58 1.56-.215 3-.5"/><path fill="#88b4c6" d="M261 419c-15.789 9.353-54.609 34.96-60 52-3.52.529-1.419-5.387-1-6.5 5.12-13.58 21.471-26.576 33-35 .641-2.188-3.79.385-4 .5v-2c4.686-2.829 9.266-6.123 14-9-.736 6.216 14.577-6.018 15.5-6z"/><path fill="#1c4651" d="m555 418 4 15c-51.054-3.805-103.886-3.219-154.5 5-4.199.682-13.51 1.659-15.5 5-25.689 2.301-55.726 9.562-80.5 17-10.601 3.183-43.022 11.929-47.5 21l-5 4.5c.763-4.902-1.411-18.284 1-22 .948-1.46 28.483-11.141 32.5-12.5 30.886-10.449 74.935-20.454 107-25 15.97-2.264 34.734-2.291 51-4l2.5-4c35.263-2.612 69.787-2.274 105 0"/><path fill="#1a3849" d="m450 418-2.5 4c-16.266 1.709-35.03 1.736-51 4-32.065 4.546-76.114 14.551-107 25-4.017 1.359-31.552 11.04-32.5 12.5-2.411 3.716-.237 17.098-1 22l5-4.5c-5.881 11.914-.003 20.786 3 32 6.409 23.936 16.749 46.474 27 69 14.277 31.374 11.001 43.232 47.5 54 87.668 25.864 189.578 28.671 280.5 16 22.6-3.15 44.372-9.295 66.5-14 1.359-.289 4.938-1.46 5.5 1-101.341 36.476-257.796 27.559-360.5-1-3.744-1.041-3.785 2.06-4 2-19.826-5.543-30.178-31.305-38.5-48.5-13.647-28.197-30.834-69.577-34-100.5-.893-8.724-1.862-17.407.5-26-7.284 1.638-19.276 9.134-21.5 16.5-7.203 23.857 46.989 167.962 69.5 177.5 7.5 3.178 47.505 5.923 58 7 114.853 11.786 236.27 7.773 353-5 9.908-3.121 22.438-25.429 27.5-34.5 13.203-23.657 52.614-121.691 46-144-1.823-6.148-16.061-17.525-23-16.5-.589-2.033-.673-1.628 0-4 13.783 6.472 25.802 11.584 26 29 .341 30.034-43.368 140.87-64 163.5-2.505 2.747-6.508 6.257-10 7.5-10.579 3.764-42.525 5.731-55.5 7-90.934 8.891-191.971 8.915-283 1-17.298-1.504-57.994-3.76-72.5-8-2.353-.688-4.503-1.638-6.5-3-20.59-14.037-60.977-123.211-65.5-150-.38-2.253-.742-4.727-1-7-3.565-31.387 7.877-34.2 34.5-45 52.655-21.361 126.781-34.799 183.5-39"/><path fill="#043148" d="M764 462c-.673 2.372-.589 1.967 0 4 2.798 9.661 2.979 18.023 3 28-5.217 19.285-9.948 38.766-17 57.5-6.119 16.255-31.798 74.506-44.5 82.5-4.459 2.806-9.784 3.303-14.5 5-.562-2.46-4.141-1.289-5.5-1-22.128 4.705-43.9 10.85-66.5 14-.393-1.333 1.623-3.664 2.5-4 10.783-4.134 35.624-5.153 47-8 2.887-.723 10.977-4.854 15-6 10.56-3.008 20.243-.768 27.5-11.5 8.485-12.547 26.827-57.092 33-73 1.517-3.909 11.082-29.357 11-31-.26-5.183-33.438-24.174-39.5-26.5-1.856-.712-2.614-1.472-4.5 0-1.522-1.99-3.4-3.272-5-5-11.933-12.89-29.467-24.367-47-28 .757-2.082 2.963-9.475 1.5-11-3.555-3.704-90.139-14.153-101.5-15l-4-15c60.299 3.893 154.515 18.415 209 44"/><path fill="#0a456c" d="M147 448c1.105 9.27 4.66 23.188 8 32 1.023 2.699 2.725 5.387 4 8-4.584 2.119 2.025 7.612 2 10.5l20 27.5c-18.566-15.133-30.853-38.709-37-62-3.211-12.168-6.795-28.054-4-40 .567 8.994 2.783 24.583 6 31.5z"/><path fill="#105b7f" d="M165 431c-1.046 20.659 3.879 46.438 12 65.5 1.254 2.943 6.333 15.014 10 13.5h1c.254 3.421 3.605 18.281-4.5 13-5.871-3.826-21.009-27.847-24.5-35-1.275-2.613-2.977-5.301-4-8 3.354-9.01-.532-19.256 1-28.5.448-2.701 6.917-17.315 9-20.5"/><path fill="#196180" d="M559 433c11.361.847 97.945 11.296 101.5 15 1.463 1.525-.743 8.918-1.5 11-11.206-2.322-24.071-3.656-35 0-1.773-.112-4.308-.214-6 0-15.936-5.947-35.432-9.649-52.5-12-11.333-1.561-70.693-7.803-77.5-5-24.77-5.204-54.745-3.661-80 0-6.261.381-12.768.442-19 1 1.99-3.341 11.301-4.318 15.5-5 50.614-8.219 103.446-8.805 154.5-5"/><path fill="#c0eaf5" d="M488 442c-.985.406-3.839 4.594-8.5 6-21.349 6.442-46.248 7.993-67.5 16-.645-.069-1.346-.013-2 0-20.504-10.954-40.179-8.113-61-1-8.736 2.984-22.732 8.711-30 14 4.062-3.839 8.754-8.065 13.5-11 19.333-11.955 52.972-20.735 75.5-24 25.255-3.661 55.23-5.204 80 0"/><path fill="url(#c)" d="M618 459c-76.398 9.675-96.401 141.353-5 169 22.765 6.886 40.841 6.334 63-3 52.073-21.935 69.607-87.775 35-133 1.886-1.472 2.644-.712 4.5 0 6.062 2.326 39.24 21.317 39.5 26.5.082 1.643-9.483 27.091-11 31-6.173 15.908-24.515 60.453-33 73-7.257 10.732-16.94 8.492-27.5 11.5-4.023 1.146-12.113 5.277-15 6-11.376 2.847-36.217 3.866-47 8-.877.336-2.893 2.667-2.5 4-90.922 12.671-192.832 9.864-280.5-16-36.499-10.768-33.223-22.626-47.5-54l3-4c8.372 20.692 26.378 37.653 47 46 37.919 15.348 77.211 5.731 103-26 27.027-33.254 27.517-78.807-1-111.5-4.99-5.72-24.099-21.761-31-22.5 21.252-8.007 46.151-9.558 67.5-16 4.661-1.406 7.515-5.594 8.5-6 6.807-2.803 66.167 3.439 77.5 5 17.068 2.351 36.564 6.053 52.5 12" style="fill:url(#c)"/>/&gt;<path fill="#6795a0" d="M408 442c-22.528 3.265-56.167 12.045-75.5 24-4.746 2.935-9.438 7.161-13.5 11-5.661 4.119-11.617 10.808-15 17-.615.435-2.366 2.292-3 3l-37 16c-3.003-11.214-8.881-20.086-3-32 4.478-9.071 36.899-17.817 47.5-21 24.774-7.438 54.811-14.699 80.5-17 6.232-.558 12.739-.619 19-1"/><path fill="#d8f9fe" d="M410 464c-4.679.093-18.749 6.244-24 8-1.598.534-3.623.635-5 1-9.995-1.832-20.929.419-30.5 3l-1.5-13c20.821-7.113 40.496-9.954 61 1"/><path fill="#087ba4" d="M659 459c17.533 3.633 35.067 15.11 47 28-1.884.549-3.621.629-5.5 0-10.243-3.427-22.649-9.037-33.5-13-6.656-2.431-13.22-5.878-20-8-5.818-1.821-17.583-6.657-23-7 10.929-3.656 23.794-2.322 35 0"/><path fill="#b5cfd6" d="M651 832c92.961-77.084 148.01-192.584 167-310.5.832-5.164 2.127-33.476 3-35 .661-1.153 3.34.153 4-1 2.197-3.837-3.517-23.512-5-28.5 16.032 30.531-5.204 118.369-16 152.5-26.891 85.01-80.361 169.883-153 222.5"/><path fill="#29dff6" d="M624 459c5.417.343 17.182 5.179 23 7v8c-8.233-.375-16.989.079-25 2-47.584 11.412-67.25 70.582-39 110 8.606 12.008 19.675 20.576 34 25l-4 17c-91.401-27.647-71.398-159.325 5-169 1.692-.214 4.227-.112 6 0"/><path fill="#b4f1fa" d="m349 463 1.5 13c9.571-2.581 20.505-4.832 30.5-3-1.269.337-2.623-.011-3 2-5.67.043-13.382.04-16 6-5.664.793-12.352 2.486-17 6-5.681-.771-2.779.259-5 1-3.719-4.567-12.295-.952-17 0-4.674.946-15.405 3.458-19 6 3.383-6.192 9.339-12.881 15-17 7.268-5.289 21.264-11.016 30-14"/><path fill="#0a5a84" d="M144 464c6.147 23.291 18.434 46.867 37 62 8.248 6.723 13.396 6.441 10.5 21L160 517c-13.017-18.717-17.548-29.063-24-51z"/><path fill="#65f1fc" d="M412 464c6.901.739 26.01 16.78 31 22.5 28.517 32.693 28.027 78.246 1 111.5-.484-6.138-8.711-7.74-13-11 28.362-37.591 13.859-89.83-28.5-109-4.739-2.145-12.345-2.682-16.5-6 5.251-1.756 19.321-7.907 24-8 .654-.013 1.355-.069 2 0"/><path fill="#3b5663" d="M254 491c-3.838 4.008-1.878 16.148-1 21.5 3.925 23.926 39.379 113.264 57.5 127.5 28.394 22.306 187.457 28.069 228 27 33.607-.886 139.323-8.203 166-23 27.171-15.07 62.564-119.321 62.5-150-.021-9.977-.202-18.339-3-28 6.939-1.025 21.177 10.352 23 16.5 6.614 22.309-32.797 120.343-46 144-5.062 9.071-17.592 31.379-27.5 34.5-116.73 12.773-238.147 16.786-353 5-10.495-1.077-50.5-3.822-58-7-22.511-9.538-76.703-153.643-69.5-177.5 2.224-7.366 14.216-14.862 21.5-16.5-2.362 8.593-1.393 17.276-.5 26"/><path fill="#0fb0d8" d="m667 474-1 4c-7.189-2.681-11.223-3.646-19-4v-8c6.78 2.122 13.344 5.569 20 8"/><path fill="#0889a3" d="M386 472c4.155 3.318 11.761 3.855 16.5 6 42.359 19.17 56.862 71.409 28.5 109-4.408 5.842-9.097 8.925-15 13-5.612 2.914-10.914 5.116-17 7 27.221-13.936 45.772-40.392 43-72-2.609-29.758-34.058-60.229-64-60 .377-2.011 1.731-1.663 3-2 1.377-.365 3.402-.466 5-1"/><path fill="#103f60" d="M647 474c7.777.354 11.811 1.319 19 4 63.415 23.652 57.558 121.231-10 135-14.029 2.859-25.336 2.22-39-2-14.325-4.424-25.394-12.992-34-25h1c5.213 7.445 19.509 17.504 28 21 20.292 8.354 34.6 8.282 54-1 57.802-27.655 56.238-105.349-1-126-8.843-3.19-9.012-3.687-19-4-7.882-.247-16.35.054-24 2v-2c8.011-1.921 16.767-2.375 25-2"/><path fill="#208ebe" d="M706 487c1.6 1.728 3.478 3.01 5 5 34.607 45.225 17.073 111.065-35 133l-18.5 4-1.5-16c67.558-13.769 73.415-111.348 10-135l1-4c10.851 3.963 23.257 9.573 33.5 13 1.879.629 3.616.549 5.5 0"/><path fill="#27b6cc" d="M378 475c29.942-.229 61.391 30.242 64 60l-4-1c-4.125-34.01-43.644-57.533-76-53 2.618-5.96 10.33-5.957 16-6"/><path fill="url(#d)" d="M622 478c-13.55 3.448-30.216 16.428-36.5 29 13.098-14.141 30.359-22.891 49.5-25-25.099 23.453 34.075 47.145 36 8 4.974 5.487 14.585 10.18 20 17.5 4.21 5.691 10.135 16.018 9 23-1.827 11.239-26.467 50.674-38 56.5-8.923 4.508-21.066 6.656-31 5-2.394-.399-10.69-4.497-13-6-11.634-7.572-20.671-25.066-20-39 .174-3.607 6.228-5.151 1-12.5-5.262-7.397-7.964-2.476-11 1.5-3.799 4.975-6.276 11.813-7 18l-7.5-9c-7.421.419 8.001 37.431 10.5 41h-1c-28.25-39.418-8.584-98.588 39-110zm-5.5 58c-7.593 1.004-1.653 12.535 4 10 3.856-1.729.289-10.567-4-10" style="fill:url(#d)"/>/&gt;<path fill="#0e85a4" d="M646 476c-2.683 2.677-8.363 3.536-11 6-19.141 2.109-36.402 10.859-49.5 25 6.284-12.572 22.95-25.552 36.5-29 7.65-1.946 16.118-2.247 24-2"/><path fill="#7adeee" d="M665 480c3.499 2.128 4.364 8.196 6 10-1.925 39.145-61.099 15.453-36-8 2.637-2.464 8.317-3.323 11-6 9.988.313 10.157.81 19 4"/><path fill="url(#e)" d="M438 534c.668 5.507.183 12.875-3 17.5-6.505 9.452-6.986-.326-11.5.5-2.563.469-9.951 17.288-12.5 20.5-10.579 13.33-28.236 19.609-45 16.5-20.294-3.764-30.272-22.897-32-42 29.88-3.435 40.502-55.998 11-60 4.648-3.514 11.336-5.207 17-6 32.356-4.533 71.875 18.99 76 53" style="fill:url(#e)"/>/&gt;<path fill="#0f5889" d="m666 606-4-19c11.533-5.826 36.173-45.261 38-56.5 1.135-6.982-4.79-17.309-9-23-5.415-7.32-15.026-12.013-20-17.5-1.636-1.804-2.501-7.872-6-10 57.238 20.651 58.802 98.345 1 126"/><path fill="#d9fbff" d="M340 488c-15.891 5.303-30.632 22.135-39 36 .073-12.955 12.038-28.442 22-36 4.705-.952 13.281-4.567 17 0"/><path fill="#75e2f2" d="M345 487c29.502 4.002 18.88 56.565-11 60-4.997.574-10.277-.5-15-2-4.501-1.429-10.009-4.312-13-8-2.964-3.654-5.028-7.987-5-13 8.368-13.865 23.109-30.697 39-36 2.221-.741-.681-1.771 5-1"/><path fill="#0aa1d0" d="M323 488c-9.962 7.558-21.927 23.045-22 36-.028 5.013 2.036 9.346 5 13-3.411 18.265 4.254 35.991 15 50 7.522 9.806 17.846 19.225 30 23-5.824 3.585-2.148 14.554-10 14-20.622-8.347-38.628-25.308-47-46-8.905-22.009-9.711-62.328 7-81 .634-.708 2.385-2.565 3-3 3.595-2.542 14.326-5.054 19-6"/><path fill="#59707a" d="M254 491c3.166 30.923 20.353 72.303 34 100.5 8.322 17.195 18.674 42.957 38.5 48.5.215.06.256-3.041 4-2 102.704 28.559 259.159 37.476 360.5 1 4.716-1.697 10.041-2.194 14.5-5 12.702-7.994 38.381-66.245 44.5-82.5 7.052-18.734 11.783-38.215 17-57.5.064 30.679-35.329 134.93-62.5 150-26.677 14.797-132.393 22.114-166 23-40.543 1.069-199.606-4.694-228-27-18.121-14.236-53.575-103.574-57.5-127.5-.878-5.352-2.838-17.492 1-21.5"/><path fill="#d2eef5" d="M793 491c.052 33.361-46.305 159.44-73.5 178-21.855 14.915-134.166 22.003-165 23-61.727 1.996-129.855-.684-191-9-16.688-2.27-57.467-7.715-69.5-15-22.627-13.699-50.115-95.643-58-122-.15-3.646 2.871-.036 3-4.5.114-3.96-8.428-24.991-9-31l3-1.5c4.523 26.789 44.91 135.963 65.5 150 1.997 1.362 4.147 2.312 6.5 3-.801 3.632 8.992 5.507 11.5 6 99.652 19.576 268.491 20.51 369 5 7.954-1.227 26.903-3.687 30.5-11 3.492-1.243 7.495-4.753 10-7.5 20.632-22.63 64.341-133.466 64-163.5z"/><path fill="#043b5f" d="M301 497c-16.711 18.672-15.905 58.991-7 81l-3 4c-10.251-22.526-20.591-45.064-27-69z"/><path fill="#e4f6fb" d="M436 872c-133.12-49.299-224.693-208.192-241-344l5.5-6c1.039-.456 2.317 1.959 2.5 2.5 5.268 15.562 7.292 43.974 12 62C247.352 710.359 319.034 812.623 434.5 869c1.545.754 3.082 1.052 1.5 3"/><path fill="#91eaf6" d="M598 547c-8.265.812-11.807-3.016-10-11 3.036-3.976 5.738-8.897 11-1.5 5.228 7.349-.826 8.893-1 12.5"/><path fill="#0e9bc4" d="M442 535c2.772 31.608-15.779 58.064-43 72-12.169 3.768-20.235 5.345-33 4 6.692-3.821-3.117-14.873 0-22 16.764 3.109 34.421-3.17 45-16.5 2.549-3.212 9.937-20.031 12.5-20.5 4.514-.826 4.995 8.952 11.5-.5 3.183-4.625 3.668-11.993 3-17.5z"/><path fill="#0c9cc6" d="M598 547c-.671 13.934 8.366 31.428 20 39l-7 16c-17.276-8.929-32.394-27.535-30-48 .724-6.187 3.201-13.025 7-18-1.807 7.984 1.735 11.812 10 11"/><path fill="#75dcea" d="M616.5 536c4.289-.567 7.856 8.271 4 10-5.653 2.535-11.593-8.996-4-10"/><path fill="#015285" d="M319 545c-7.394 19.113 4.063 37.754 18.5 50 4.495 3.813 13.685 3.375 10.5 11-11.088-4.35-18.832-10.555-27-19-10.746-14.009-18.411-31.735-15-50 2.991 3.688 8.499 6.571 13 8"/><path fill="#0870a1" d="M334 547c1.728 19.103 11.706 38.236 32 42-3.117 7.127 6.692 18.179 0 22-6.63-.699-11.884-2.601-18-5 3.185-7.625-6.005-7.187-10.5-11-14.437-12.246-25.894-30.887-18.5-50 4.723 1.5 10.003 2.574 15 2"/><path fill="#018ab2" d="M581 554c-2.394 20.465 12.724 39.071 30 48 .126.065 1.87 1.943 2 2l-1 3c-8.491-3.496-22.787-13.555-28-21-2.499-3.569-17.921-40.581-10.5-41z"/><path fill="#0584b3" d="M631 592c-4.578 14.291-3.522 18.343-18 12-.13-.057-1.874-1.935-2-2l7-16c2.31 1.503 10.606 5.601 13 6"/><path fill="#134655" d="M348 606c6.116 2.399 11.37 4.301 18 5 12.765 1.345 20.831-.232 33-4 6.086-1.884 11.388-4.086 17-7-19.672 13.58-41.717 17.232-65 10-12.154-3.775-22.478-13.194-30-23 8.168 8.445 15.912 14.65 27 19"/><path fill="#09d0ef" d="M444 598c-25.789 31.731-65.081 41.348-103 26 7.852.554 4.176-10.415 10-14 23.283 7.232 45.328 3.58 65-10 5.903-4.075 10.592-7.158 15-13 4.289 3.26 12.516 4.862 13 11"/><path fill="#076e9f" d="m662 587 4 19c-19.4 9.282-33.708 9.354-54 1l1-3c14.478 6.343 13.422 2.291 18-12 9.934 1.656 22.077-.492 31-5"/><path fill="#0baad4" d="m656 613 1.5 16 18.5-4c-22.159 9.334-40.235 9.886-63 3l4-17c13.664 4.22 24.971 4.859 39 2"/><path fill="#b4d5e0" d="M716 662c-3.597 7.313-22.546 9.773-30.5 11-100.509 15.51-269.348 14.576-369-5-2.508-.493-12.301-2.368-11.5-6 14.506 4.24 55.202 6.496 72.5 8 91.029 7.915 192.066 7.891 283-1 12.975-1.269 44.921-3.236 55.5-7"/><path fill="#485865" d="M527 724c16.743 5.216 27.828 16.575 38 30h-1c-20.387-25.66-52.715-36.358-83-22-7.075 3.354-12.884 8.234-19 13-2.652 2.066-5.938 4.598-9 6 18.73-24.213 43.604-36.469 74-27"/><path fill="#d2e4e9" d="M571 759c-.217-.325-4.469-2.98-6-5-10.172-13.425-21.257-24.784-38-30 21.25-6.769 35.495 19.497 44 35"/><path fill="#adb3bc" d="M564 754c1.355 1.706 4.833 6.995 6 9-15.286.945-48.157-23.995-62.5-17-1.526.744 2.17 3.655 1.5 6.5-1.661 7.048-31.035 10.21-38 12.5-5.297 1.742-11.478 5.655-17 8-3.244 1.378-6.46 3.193-9.5 5-2.902-2.249.962-5.566 1.5-7l55-38.5c-5.704-2.957-20.876 10.163-20-.5 30.285-14.358 62.613-3.66 83 22"/><path fill="#1d3d4c" d="M389.5 731c36.141-5.719 36.554 53.31-1 47-24.273-4.078-22.829-43.23 1-47M379 768c23.054 27.373 53.248-23.074 22-32-20.957-5.986-35.478 15.997-22 32"/><path fill="#d6dee3" d="M446 771c4.174-11.133 10.03-16.249 16-26 6.116-4.766 11.925-9.646 19-13-.876 10.663 14.296-2.457 20 .5z"/><path fill="#e5f7f8" d="M401 736c-18.736-1.359-30.141 14.809-22 32-13.478-16.003 1.043-37.986 22-32"/><path fill="#89e6f0" d="M401 736c31.248 8.926 1.054 59.373-22 32-8.141-17.191 3.264-33.359 22-32"/><path fill="#1f3e4c" d="M612.5 737c37.739-5.737 38.308 55.254 0 50-26.695-3.661-24.917-46.212 0-50M601 776c23.848 30.671 57.612-25.975 22-34-21.089-4.752-35.096 17.157-22 34"/><path fill="#e7f6f7" d="M623 742c-19.617-.584-28.753 16.492-22 34-13.096-16.843.911-38.752 22-34"/><path fill="#88e5ef" d="M623 742c35.612 8.025 1.848 64.671-22 34-6.753-17.508 2.383-34.584 22-34"/><path fill="#909aa4" d="M446 771c-.538 1.434-4.402 4.751-1.5 7 3.04-1.807 6.256-3.622 9.5-5l73.5-4c-1.343-3.689-13.184-4.75-17-5-13.655-.893-27.123 3.967-39.5 1 6.965-2.29 36.339-5.452 38-12.5.67-2.845-3.026-5.756-1.5-6.5 14.343-6.995 47.214 17.945 62.5 17 11.075 19.021 13.146 26.998 0 45-14.621 20.022-43.698 37.777-69 34l9-2.5c-7.093-2.823-13.784-11.241-19.5-14.5-11.555-6.587-28.974-10.608-40.5-19-3.685-3.799-3.795-1.801-4-2-4.887-4.747-15.171-7.93-12-17.5.862-2.601 5.85-3.672 6-4 5.862-12.782 1.347-16.435 13-31.5 3.062-1.402 6.348-3.934 9-6-5.97 9.751-11.826 14.867-16 26m0 18c-2.365 3.142-4.727 5.153-.5 10 12.775 14.648 79.191 19.546 95 8 3.656-2.67 6.208-5.756 3-10-16.566-.487-33.512.971-50-1-11.175-1.336-26.731-8.468-35.5-9l106.5-2c-3.158-1.345-8.697-2.701-12-3-16.821-1.523-97.976-4.326-106.5 7"/><path fill="#65747e" d="M571 759c.141.212-.907 1.818 1 5 3.125 5.214 3.785 9.138 6 13.5 1.049 2.066 6.567 5.32 7 8 .571 3.533-6.062 11.573-8 16.5-2.56 1.675-4.284 4.587-6 7l-1-1c13.146-18.002 11.075-25.979 0-45-1.167-2.005-4.645-7.294-6-9h1c1.531 2.02 5.783 4.675 6 5"/><path fill="#d2e4e9" d="M572 764c-1.907-3.182-.859-4.788-1-5 .69 1.258 3.763 3.337 1 5"/><path fill="#7d858f" d="M454 773c5.522-2.345 11.703-6.258 17-8 12.377 2.967 25.845-1.893 39.5-1 3.816.25 15.657 1.311 17 5z"/><path fill="#68717c" d="M458 787c-4.381-.266-7.817 1.633-12 2 8.524-11.326 89.679-8.523 106.5-7 3.303.299 8.842 1.655 12 3z"/><path fill="#b1b7bf" d="M458 787c8.769.532 24.325 7.664 35.5 9 16.488 1.971 33.434.513 50 1 3.208 4.244.656 7.33-3 10-15.809 11.546-82.225 6.648-95-8-4.227-4.847-1.865-6.858.5-10 4.183-.367 7.619-2.266 12-2"/><path fill="#778e95" d="M485 845c-.205-3.596 2.832-1.54 4.5-1 37.66 12.203 60.651-5.669 81.5-35 1.716-2.413 3.44-5.325 6-7-6.85 17.418-9.997 37.902-29.5 47-21.143 9.863-42.745 6.261-62.5-4"/><path fill="#4e5a65" d="M450 806c16.352 16.86 23.346 31.872 51 36 25.302 3.777 54.379-13.978 69-34l1 1c-20.849 29.331-43.84 47.203-81.5 35-1.668-.54-4.705-2.596-4.5 1-18.15-9.427-30.494-22.234-39-41 .205.199.315-1.799 4 2"/><path fill="#9da6af" d="M501 842c-27.654-4.128-34.648-19.14-51-36 11.526 8.392 28.945 12.413 40.5 19 5.716 3.259 12.407 11.677 19.5 14.5z"/></svg>