<svg xmlns="http://www.w3.org/2000/svg" width="1024" height="1024"><defs><linearGradient id="a" x1="575.987" x2="439.537" y1="308.087" y2="536.423" gradientUnits="userSpaceOnUse"><stop offset="0%" style="stop-color:#0696bd"/><stop offset="22.556%" style="stop-color:#006890"/><stop offset="100%" style="stop-color:#0d5073"/></linearGradient></defs><defs><linearGradient id="b" x1="423.731" x2="566.541" y1="790.951" y2="881.318" gradientUnits="userSpaceOnUse"><stop offset="0%" style="stop-color:#895059"/><stop offset="100%" style="stop-color:#b98c99"/></linearGradient></defs><path fill="#052a43" d="M243 190v1c-3.967.512-5.092.425-9 2-5.11 2.059-10.631 7.622-15 11-5.624 4.348-6.152 4.835-11 10-2.803 2.987-10.497 8.705-11 13-.439 3.75 3.494 9.721 4 13.5 2.42.653 2.522-3.769 3-4.5 2.799-4.278 5.744-9.081 9-13 6.283-7.561 14.825-15.519 23-21 5.94-3.983 12.075-6.095 18.5-9 1.927-.871 3.144-.634 1.5-3 6.014.724 11.787 2.807 18 2-.613.609-.83 1.856-2 3-1.938-2.842-13.174.206-15.5 1-5.237 1.788-14.688 6.959-19.5 10-8.423 5.322-25.615 22.395-30 31-5.124 10.055-5.67 19.432-1.5 30l3.5-4c-1.863 5.888-.034 6.818 0 11 .025 2.996.995 7.134-3 7 2.53-7.71-1.337-5.219-3-11.5-3.966-14.98-.101-24.77-7-39-.666-1.374-4.111-2.07-5-4-15.584-33.824-26.221-70.817-43.5-103.5-13.715 4.941-29.562 1.214-39.5-9 2.079 1.389 8.422 4.197 11 5 63.664 19.823 61.711-84.339 3-68-18.144 5.05-30.372 26.598-26 45l-1 1c-11.507-33.548 20.601-65.325 53.5-47 22.228 12.38 28.574 41.97 13.5 62.5 13.082 8.484 72.395 75.796 81 77.5m-84-74c-.762.203-5.199 4.112-6 5-.875.969-3.073.425-3 2.5.027.76 5.873 10.758 7 13.5 2.212 5.381 4.812 10.575 7 16 7.498 18.586 17.105 48.792 27 65 .456.747.326 4.336 2.5 4 .834-.011 7.233-7.84 8.5-9 2.05-1.876 4.296-4.558 6-6 1.572-1.331 2.992-3.19 4-4 2.551-2.051 6.217-4.117 9-6 2.528-1.71 5.385-3.373 8-5 .537-.334 5.149.151 5-2.5-10.22-6.912-69.926-74.851-75-73.5"/><path fill="#033752" d="M617 828c.172-2.044.946-5.079 1-6 135.886-53.958 229.32-195.565 235-341 10.112-258.905-240.401-461.843-486-343-20.355 9.85-36.945 20.602-55 34-170.045 126.191-186.317 370.559-60 534.5 38.327 49.743 93.785 94.268 153 115.5.197 2.737.742 5.267 1 8-76.929-28.384-139.075-84.278-183-152.5-3.638-5.65-17.448-34.019-20.5-35.5-3.275-1.589-15.547-2.054-21-4-6.627-2.365-41.467-16.121-45-19-9.309-7.584-28.595-67.739-31.5-81.5-8.695-41.189-11.401-107.965 6-147 1.912-4.288 3.688-6.683 7.5-9.5 8.798-6.501 36.97-20.598 48-26 2.035-.997 9.269-1.414 10.5-2.5 1.506-1.328 10.77-32.697 13-38 4.367-10.387 12.709-23.472 16-33.5 3.995.134 3.025-4.004 3-7 7.104-6.125 3.156-8.055 2-14-1.481-7.615-4-14.333-4-23 4.385-8.605 21.577-25.678 30-31-.5 4.225 4.627.873 5 1-5.726 5.511-24.507 31.317-27 38.5-2.076 5.981-4.416 12.785-.5 18.5 12.673-16.269 24.306-33.118 37.5-49 3.201-3.854 12.49-11.732 14-15 1.562-1.717 4.611-3.642 6-5 1.17-1.144 1.387-2.391 2-3C386.62 80.243 579.17 69.475 707.5 160c6.177 4.357 36.561 31.358 39 32 7.938 2.088 20.706-4.256 30.5-3 .183 1.163-.999.929-1 1-2.457-.005-6.814.1-9 1-.482.199-1.548-.418-2 .5 6.484 2.487 13.36 7.064 20 9.5 7.808 7.361 16.033 13.695 23 22 3.222 3.84 5.759 9.307 10 12-.277 1.479-.111 5.149 2 5.5 1.496-5.484 5.594-8.23 4-14.5-1.06-4.169-7.769-10.075-11-13-3.163-2.864-3.36-4.65-8-7-7.558-6.392-16.023-13.902-26-16 7.99-10.451 79.311-71.974 80-77.5.108-.866-6.439-12.212-7-16-6.307-42.546 44.307-72.223 70-36 17.229 24.29.423 59.471-27.5 64.5-5.177.932-20.76-2.31-22.5-.5-14.197 30.958-24.413 63.833-38 95-2.368 5.433-13.183 19.211-14 24-.625 3.665 1.674 11.603 1 17-.593 4.746-6.918 15.694-7 17-.412 6.597 31.35 59.454 30 73l60.5 31.5c26.586 49.843 22.837 116.725 8.5 170.5-2.901 10.882-20.613 60.709-27.5 66.5-2.152 1.81-37.635 16.056-43 18-5.944 2.154-19.325 2.99-23 5-3.455 1.89-17.679 30.649-21.5 36.5-43.418 66.495-104.497 123.944-181 149.5M859 70c-24.078 58.991 61.732 68.122 67 22 1.823-15.955-9.807-37.854-26-42-19.588-5.015-33.567 1.79-41 20m-67 123c1.464 1.078 4.29 1.529 5 2 3.405 2.259 7.898 4.529 11 7 1.007.802 2.376 2.656 4 4 2.329 1.929 5.271 5.543 8 8 1.198 1.079 6.606 7.95 7.5 8l2.5-1.5c9.741-25.415 20.795-50.287 31-75.5 1.414-3.493 10.039-19.838 10-21-.073-2.19-4.308-5.163-6-6-.155-.077.179-.605-2-1-2.81-.51-3.348.525-5.5 2-5.388 3.693-66.679 64.012-68.5 68.5-.313.772-1.123 2.454-1 3 .931 1.481 2.747 1.577 4 2.5m-38 5c5.132 5.684 11.128 11.301 16 17 13.11 15.335 24.06 33.095 36.5 49 6.79-9.868-4.25-27.489-10.5-36.5-4.524-6.522-13.266-12.416-15-19.5 3.833 2.341 7.478 4.964 11.5 7-7.927-12.428-28.251-20.939-43-21-.337 2.008 3.363 2.741 4.5 4m57 62c-1.584 6.866-4.86 7.603 1.5 16 .416-2.342 1.542-4.614 1.5-7 5.747-5.188 7.508-24.68 0-27.5 1.692 7.266-1.641 12.608-3 18.5M162 366c-6.229 2.7-40.539 19.921-43 23.5-1.032 1.5-6.549 22.884-6 24 1.288 1.477 1.922-.417 3-.5 13.508-1.046 32.524-17.747 49-15l2-.5 7-36c-1.33-2.534-10.668 3.923-12 4.5m687-1c.409 10.323 5.566 21.881 6 32.5 1.632 2.809 2.854.456 3 .5 6.391 1.943 45.473 14.801 48 15 1.078.085 1.712 1.976 3 .5.302-33.112-36.015-39.235-59.5-52.5-2.911 1.984-.549 2.77-.5 4m7 38c2.324 24.471 5.003 48.831 4 73.5.523 1.251 6.231 2.822 8 3.5 11.255 4.315 24.941 6.391 37 11 1.426 1.835-.79 5.783-2.5 6-2.003.255-31.12-13.052-37.5-15-.951-.29-4.387-3.64-5-2.5v12c1.764 2.013 4.742-1.458 5-1.5 14.801-2.419 33.292 14.354 50 13l2-.5c1.378-15.273 3.314-70.277-6-81-5.63-6.482-44.326-16.397-53.5-21.5zm-696 0c-7.945 1.522-44.665 13.645-49 18.5-9.533 10.677-8.189 65.834-6 81 .487.924 2.083.378 3 .5 1.943.259 3.176-.716 5-1 15.753-2.454 25.905-10.76 43-12 1.253-.091 3.374 3.334 5 .5-1.399-30.018 2.096-59.893 4.5-89.5-2.269-1.22-5.042 1.912-5.5 2m699 94c-2.086 20.854-5.291 41.601-10 62-.518 2.244-6.447 19.577-5.5 20 8.131.924 16.23-10.589 21-12 7.23-2.139 20.696.942 28.5-2 7.907.099 3.366-.975 7-2-.414 2.964 2.441 2.604 4 .5-.367-.864-1.99-.397-2-.5-.141-1.478 1.806-3.173-.5-4-2.006-.719-10.32.216-13.5 0l18-10c-.625 3.007-2.296 6.412-3 9.5 2.297 4.562 8.43-16.715 9-19 2.35-9.422 3.096-19.343 4-29-1.101-2.676-49.213-15.193-55.5-15.5zm-741 62c.33.034.674-.045 1 0 4.993 8.236 19.251.863 26 6-3.875-.025-9.177-2.287-8 2-5.718-1.107-11.623-1.083-16-2-.191-.04.056-3.432-2.5-3-2.259 4.062 2.413 2.734 2.5 3 .245.753-.192 2.097 0 3 4.832 22.761 6.404 37.974 29 49 5.588 2.727 47.794 18.331 50 15.5-2.899-4.58-5.014-9.476-7-14.5-3.048-7.708-8.733-26.868-12-32.5-1.07-1.845-1.869-2.825-4-3.5h-1c.028-2.053-1.399-3.988-3-5 1.106-.668 2.55-.801 3-2 1.04-2.771-3.301-12.614-4-16-4.157-20.137-8.084-40.467-10-61l-1.5-2c-6.008-2.146-46.656 10.889-54.5 14.5-.494 16.271 5.021 31.541 9 47zm760 15c-6.289 1.368-33.317 6.465-36 9.5l-20 49c.931 1.298 6.329-.177 8-.5 7.532-1.456 42.86-14.13 49-18 14.018-8.835 18.387-30.746 23-45.5-7.924 2.21-15.957 3.75-24 5.5"/><path fill="#b2d4e1" d="M119 119c17.267 3.32 28.76-1.357 38-16 6.027-9.55 8.978-18.124 5.5-30-4.453 9.25-8.958 17.756-17.5 24-.128.093-1.921.316-3 1-20.479-10.162-23.758-17.46-18-39 .782-2.926 4.178-5.175-2-8 58.711-16.339 60.664 87.823-3 68"/><path fill="#b2d6e3" d="m900 50-4 6c-1.49-.849-7.664-2.363-9-.5l10 3.5c.045.055.334-.203 1 1 8.771 15.83-2.339 33.372-19 37-.432-.288-1.613-.713-2-1-5.322-3.951-8.508-5.987-12-12-2.46-4.237-2.862-10.516-6-12 .034-.659-.016-1.34 0-2 7.433-18.21 21.412-25.015 41-20"/><path fill="#98adba" d="M926 92c-8.555.883-6.188 9.596-12 16-1.593.517-2.071-1.04-3-1 13.254-14.18 7.945-46.22-13-47-.666-1.203-.955-.945-1-1-.101-.122-.197-2.542-1-3l4-6c16.193 4.146 27.823 26.045 26 42"/><path fill="#9eb3c0" d="M122 51c6.178 2.825 2.782 5.074 2 8-20.977 3.389-25.937 32.736-14 48-.377-.008-4.759 1.379-5.5 2-1.542-.405-8.085-11.252-8.5-13-4.372-18.402 7.856-39.95 26-45"/><path fill="#ddeff7" d="M896 56c.803.458.899 2.878 1 3l-10-3.5c1.336-1.863 7.51-.349 9 .5"/><path fill="#81a1b2" d="M124 59c-5.758 21.54-2.479 28.838 18 39-12.27 7.775-17.365 9.306-32 9-11.937-15.264-6.977-44.611 14-48"/><path fill="#81a1b1" d="M911 107c-15.44.669-19.752-1.843-32-10 16.661-3.628 27.771-21.17 19-37 20.945.78 26.254 32.82 13 47"/><path fill="#a5c1cd" d="M859 72c-.495 9.454-5.178 17.096 4 26 .399 3.549 1.114 2.929 2 5 7.963 18.607 36.449 18.83 49 5 5.812-6.404 3.445-15.117 12-16-5.268 46.122-91.078 36.991-67-22-.016.66.034 1.341 0 2"/><path fill="#82a5b7" d="M865 84c-1.908 4.026-2.49 9.64-2 14-9.178-8.904-4.495-16.546-4-26 3.138 1.484 3.54 7.763 6 12"/><path fill="#628ba0" d="m157 103-12-6c8.542-6.244 13.047-14.75 17.5-24 3.478 11.876.527 20.45-5.5 30"/><path fill="#638ca0" d="m877 96-12 7c-.886-2.071-1.601-1.451-2-5-.49-4.36.092-9.974 2-14 3.492 6.013 6.678 8.049 12 12"/><path fill="#53778b" d="M110 107c14.635.306 19.73-1.225 32-9 1.079-.684 2.872-.907 3-1l12 6c-9.24 14.643-20.733 19.32-38 16-2.578-.803-8.921-3.611-11-5-6.457-4.314-10.435-9.522-13-17l1-1c.415 1.748 6.958 12.595 8.5 13 .741-.621 5.123-2.008 5.5-2"/><path fill="#54788b" d="M879 97c12.248 8.157 16.56 10.669 32 10 .929-.04 1.407 1.517 3 1-12.551 13.83-41.037 13.607-49-5l12-7c.387.287 1.568.712 2 1"/><path fill="#a5c5d3" d="M853 481c-4.394-1.208-.781-11.791-2-13.5-.884-1.239-9.819-.115-12-.5.014-100.896-44.363-202.905-121.5-268-97.81-82.541-235.161-103.212-350.5-44 8.407-7.368 2.764-8.003 0-17 245.599-118.843 496.112 84.095 486 343"/><path fill="#f1fafc" d="M229 192c-19.971-22.986-39.875-46.075-62-67-2.941-2.781-6.581-4.864-8-9 5.074-1.351 64.78 66.588 75 73.5.149 2.651-4.463 2.166-5 2.5"/><path fill="#90adbb" d="m167 125 56 67.5-2 4.5c-2.783 1.883-6.449 3.949-9 6l-51-77.5-8-4.5c.801-.888 5.238-4.797 6-5 1.419 4.136 5.059 6.219 8 9"/><path fill="#f7fcfd" d="m863 117-71 76c-1.253-.923-3.069-1.019-4-2.5-.123-.546.687-2.228 1-3 1.821-4.488 63.112-64.807 68.5-68.5 2.152-1.475 2.69-2.51 5.5-2"/><path fill="#acd4e4" d="M865 118c-.001.852-.77 1.021-1 2l-67 75c-.71-.471-3.536-.922-5-2l71-76c2.179.395 1.845.923 2 1"/><path fill="#658597" d="M871 124c-2.504-2.161-4.686.793-6 2.5-12.252 15.918-24.336 39.6-36 57-5.176 7.721-10.737 15.601-17 22.5-1.624-1.344-2.993-3.198-4-4 7.818-8.223 14.607-18.158 21-27.5 6.395-9.346 33.183-46.775 35-54.5.23-.979.999-1.148 1-2 1.692.837 5.927 3.81 6 6"/><path fill="#8da9b7" d="M808 202c-3.102-2.471-7.595-4.741-11-7l67-75c-1.817 7.725-28.605 45.154-35 54.5-6.393 9.342-13.182 19.277-21 27.5"/><path fill="#6b8a9a" d="M212 203c-1.008.81-2.428 2.669-4 4-6.969-7.62-41.249-68.65-45-70.5-1.727-.852-3.8 1.239-6 .5-1.127-2.742-6.973-12.74-7-13.5-.073-2.075 2.125-1.531 3-2.5l8 4.5z"/><path fill="#d8e9f2" d="M839 467c-.016 121.529-61.953 254.912-168 318 25.665-35.035 56.925-65.325 80-102.5 98.744-159.084 83.912-333.319-47-467-92.467-94.423-226.434-107.6-345-55.5 2.285-1.572 6.75-3.905 8-5 115.339-59.212 252.69-38.541 350.5 44 77.137 65.095 121.514 167.104 121.5 268"/><path fill="#3d6b83" d="M871 124c.039 1.162-8.586 17.507-10 21l-41 69c-2.729-2.457-5.671-6.071-8-8 6.263-6.899 11.824-14.779 17-22.5 11.664-17.4 23.748-41.082 36-57 1.314-1.707 3.496-4.661 6-2.5"/><path fill="#b1d6e5" d="M229 192c-2.615 1.627-5.472 3.29-8 5l2-4.5-56-67.5c22.125 20.925 42.029 44.014 62 67"/><path fill="#a5c5d3" d="M671 785c-17.078 10.16-35.07 18.5-53 27 .177-10.042-1.054-22.853-2-33 18.617-11.07 36.611-27.994 50-45 16.828-6.054 42.259-62.453 20.5-70-4.701-1.631-5.725-.184-9.5 1-4.143-2.574-10.9-2.566-15.5-2-19.755 2.433-48.75 15.011-71 19-64.401 11.545-132.83 9.297-195.5-8.5 3.695-6.376 2.189-21.305 1-30-1.869-13.672-12.291-35.537-12-48 .027-1.141 1.167-6.254 3-6.5 98.665 71.671 235.988 39.553 299-62 122.468-197.376-114.583-416.145-300-277-34.282 25.727-59.927 61.074-73 102-8.807-2.805-13.91-14.495-17-22.5-10.736-27.81-8.67-62.472-26-87.5 3.834-7.832 9.346-14.855 12.5-23C115.698 394.734 180.764 714.583 404 809c.167 4.178.694 8.759 1 13-59.215-21.232-114.673-65.757-153-115.5C125.683 542.559 141.955 298.191 312 172l7.5 14c11.73-10.722 26.619-17.139 39.5-26 118.566-52.1 252.533-38.923 345 55.5 130.912 133.681 145.744 307.916 47 467-23.075 37.175-54.335 67.465-80 102.5m28.5-537c-22.382 3.904-24.376 45.613 6 50 59.124 8.539 37.681-57.619-6-50m44 46c-22.183 3.579-39.018 58.147 0 51 42.384-7.763 32.986-56.322 0-51m31 56c-3.821.519-7.921 5.572-6.5 9.5.45 1.245 13.791 5.813 14.5 5.5 3.028-1.337 3.141-16.514-8-15m-20 12c-5.801 2.272-6.111 23.773 5 23 12.106-.842 5.585-27.146-5-23m22 16c-14.175 2.331-20.934 28.988 1 25 15.869-2.885 14.31-27.518-1-25"/><path fill="#416f86" d="M208 207c-1.704 1.442-3.95 4.124-6 6-1.802-.78-2.978-2.406-4-4-10.64-16.6-19.087-38.635-30-54.5-1.375-1.999-1.109-3.535-4-1.5-2.188-5.425-4.788-10.619-7-16 2.2.739 4.273-1.352 6-.5 3.751 1.85 38.031 62.88 45 70.5"/><path fill="#6e92a3" d="M367 155c-1.25 1.095-5.715 3.428-8 5-12.881 8.861-27.77 15.278-39.5 26l-7.5-14c18.055-13.398 34.645-24.15 55-34 2.764 8.997 8.407 9.632 0 17"/><path fill="#155574" d="M861 145c-10.205 25.213-21.259 50.085-31 75.5l-2.5 1.5c-.894-.05-6.302-6.921-7.5-8z"/><path fill="#175875" d="M198 209c-2.803 2.349-7.417 5.26-7 9-9.895-16.208-19.502-46.414-27-65 2.891-2.035 2.625-.499 4 1.5 10.913 15.865 19.36 37.9 30 54.5"/><path fill="#20b2d4" d="M256 190c1.644 2.366.427 2.129-1.5 3-6.425 2.905-12.56 5.017-18.5 9-6.236-2.811-11.123 4.534-17 2 4.369-3.378 9.89-8.941 15-11l20.5-1c-2.356-3.806-7.909-1.463-11.5-1v-1c.638.126 8.948-.488 13 0"/><path fill="#3abbd5" d="M779 190c9.977 2.098 18.442 9.608 26 16-5.716-2.895-14.278-2.9-20-5-6.64-2.436-13.516-7.013-20-9.5.452-.918 1.518-.301 2-.5l9.5 1c1.11-.696-.521-.94-.5-2 .001-.071 1.183.163 1-1 .91.117 1.037.797 2 1"/><path fill="#dbf4f9" d="M234 193c3.908-1.575 5.033-1.488 9-2 3.591-.463 9.144-2.806 11.5 1z"/><path fill="#edfbfd" d="M776 190c-.021 1.06 1.61 1.304.5 2l-9.5-1c2.186-.9 6.543-1.005 9-1"/><path fill="#93dbe9" d="M272 195c-1.389 1.358-4.438 3.283-6 5 .105-.227 1.148-3.774-.5-4-8.617 2.851-16.605 4.364-23.5 11-.373-.127-5.5 3.225-5-1 4.812-3.041 14.263-8.212 19.5-10 2.326-.794 13.562-3.842 15.5-1"/><path fill="#8bc9d5" d="M781 208c-.573-.35-1.413-.662-2-1-6.248-3.604-16.271-13.011-25-9-1.137-1.259-4.837-1.992-4.5-4 14.749.061 35.073 8.572 43 21-4.022-2.036-7.667-4.659-11.5-7"/><path fill="#019dc8" d="M266 200c-1.51 3.268-10.799 11.146-14 15-2.357-1.515-7.945-7.3-10-8 6.895-6.636 14.883-8.149 23.5-11 1.648.226.605 3.773.5 4"/><path fill="#029fcd" d="m779 207-9 8c-4.872-5.699-10.868-11.316-16-17 8.729-4.011 18.752 5.396 25 9"/><path fill="#018eba" d="M236 202c-8.175 5.481-16.717 13.439-23 21l-5-9c4.848-5.165 5.376-5.652 11-10 5.877 2.534 10.764-4.811 17-2"/><path fill="#018bb6" d="M805 206c4.64 2.35 4.837 4.136 8 7-.766 3.388-.542 9.622-5 10-6.967-8.305-15.192-14.639-23-22 5.722 2.1 14.284 2.105 20 5"/><path fill="#00567f" d="M252 215c-13.194 15.882-24.827 32.731-37.5 49-3.916-5.715-1.576-12.519.5-18.5 2.493-7.183 21.274-32.989 27-38.5 2.055.7 7.643 6.485 10 8"/><path fill="#005c86" d="M781 208c1.734 7.084 10.476 12.978 15 19.5 6.25 9.011 17.29 26.632 10.5 36.5-12.44-15.905-23.39-33.665-36.5-49l9-8c.587.338 1.427.65 2 1"/><path fill="#7199a9" d="M686 527c-2.893.157-6.806-1.318-6-5 118.414-188.653-112.476-396.282-289-266l-5-6c185.417-139.145 422.468 79.624 300 277"/><path fill="#28617a" d="M202 213c-1.267 1.16-7.666 8.989-8.5 9-2.174.336-2.044-3.253-2.5-4-.417-3.74 4.197-6.651 7-9 1.022 1.594 2.198 3.22 4 4"/><path fill="#004d71" d="M824 226c-1.266.809-5.9 8.468-6 9-4.241-2.693-6.778-8.16-10-12 4.458-.378 4.234-6.612 5-10 3.231 2.925 9.94 8.831 11 13"/><path fill="#015072" d="M213 223c-3.256 3.919-6.201 8.722-9 13-2.697-2.844-2.146-8.566-7-9 .503-4.295 8.197-10.013 11-13z"/><path fill="#4a7182" d="M680 522c-64.912 103.415-209.039 126.224-301.5 45-94.979-83.435-89.153-235.976 12.5-311 176.524-130.282 407.414 77.347 289 266M508.5 224c-258.039 2.788-246.712 393.376 11 382 245.822-10.851 241.481-384.728-11-382"/><path fill="#5d8294" d="M270 242c-37.663 76.928-40.673 181.599-23 264.5 11.902 55.83 44.67 107.034 77 153-18.232 19.473 6.228 55.367 19 73 8.811 12.164 45.376 52.833 57.5 58.5 4.061 1.899 1.314-.939 3.5-2-.058 6.612-.264 13.4 0 20-223.236-94.417-288.302-414.266-121.5-590-3.154 8.145-8.666 15.168-12.5 23"/><path fill="#06253b" d="M508.5 224c252.481-2.728 256.822 371.149 11 382-257.712 11.376-269.039-379.212-11-382M444 240c-25.97 9.476-46.315 22.747-66 42-24.672 24.13-42.452 52.108-51 86-47.44 188.096 185.572 315.196 321 175 3.551-3.676 6.761-7.017 10-11 120.943-148.756-32.229-358.326-214-292"/><path fill="#1d6682" d="M818 235c.1-.532 4.734-8.191 6-9 1.594 6.27-2.504 9.016-4 14.5-2.111-.351-2.277-4.021-2-5.5"/><path fill="#25647d" d="M204 236c-.478.731-.58 5.153-3 4.5-.506-3.779-4.439-9.75-4-13.5 4.854.434 4.303 6.156 7 9"/><path fill="#b0eef8" d="m658 532 20-41c16.696-37.981 17.836-82.38 6-122-15.409-99.657-147.479-149.483-236-118l-4-11c181.771-66.326 334.943 143.244 214 292"/><path fill="#024d6e" d="M211 260c-2.059.351-1.635 1.845-2 3l-3.5 4c-4.17-10.568-3.624-19.945 1.5-30 0 8.667 2.519 15.385 4 23"/><path fill="#70dff3" d="m444 240 4 11c-3.244 1.154-5.939 2.699-9 4-30.566 12.993-49.511 29.294-71 54-1.616 1.858-4.698 6.253-7 6.5l17-33.5c19.685-19.253 40.03-32.524 66-42"/><path fill="#51d0e8" d="M684 369c.306 1.981.03 7.417.5 10l-24.5 4c-20.2-92.373-125.243-144.77-212-107l-9-21c3.061-1.301 5.756-2.846 9-4 88.521-31.483 220.591 18.343 236 118"/><path fill="#025172" d="M814 269c-.038-2.147-1.616-7.114-3-9 1.359-5.892 4.692-11.234 3-18.5 7.508 2.82 5.747 22.312 0 27.5"/><path fill="#6e92a3" d="M313 352c-27.5 86.088.242 183.421 74 237-1.833.246-2.973 5.359-3 6.5-.291 12.463 10.131 34.328 12 48 1.189 8.695 2.695 23.624-1 30 62.67 17.797 131.099 20.045 195.5 8.5 22.25-3.989 51.245-16.567 71-19 4.6-.566 11.357-.574 15.5 2-25.838 8.101-52.563 24.581-80.5 32-81.526 21.651-168.928 7.323-245.5-24-4.943-1.789-10.768-4.49-16-5 1.935-7.31 15.581-2.661 20-6.5-8.807-1.596-17.633-6.408-26.5-1.5-1.828 1.012-11.617 13.083-4.5 14-7.368 30.378 53.673 95.032 80 109-.053 1.987.017 4.011 0 6-2.186 1.061.561 3.899-3.5 2-12.124-5.667-48.689-46.336-57.5-58.5-12.772-17.633-37.232-53.527-19-73-32.33-45.966-65.098-97.17-77-153-17.673-82.901-14.663-187.572 23-264.5 17.33 25.028 15.264 59.69 26 87.5 3.09 8.005 8.193 19.695 17 22.5"/><path fill="#fefeff" d="M699.5 248c43.681-7.619 65.124 58.539 6 50-30.376-4.387-28.382-46.096-6-50"/><path fill="#597e8e" d="M391 256c-101.653 75.024-107.479 227.565-12.5 311 92.461 81.224 236.588 58.415 301.5-45-.806 3.682 3.107 5.157 6 5-63.012 101.553-200.335 133.671-299 62-73.758-53.579-101.5-150.912-74-237 13.073-40.926 38.718-76.273 73-102z"/><path fill="#25c3e2" d="m439 255 9 21c-21.99 9.573-47.755 30.676-62 50-6.614-2.691-15.679-9.888-18-17 21.489-24.706 40.434-41.007 71-54"/><path fill="#5892a1" d="M209 274c-.034-4.182-1.863-5.112 0-11 .365-1.155-.059-2.649 2-3 1.156 5.945 5.104 7.875-2 14"/><path fill="#488aa0" d="M814 269c.042 2.386-1.084 4.658-1.5 7-6.36-8.397-3.084-9.134-1.5-16 1.384 1.886 2.962 6.853 3 9"/><path fill="url(#a)" d="M660 383c7.228 33.051 3.789 68.459-11 99-36.445 75.26-129.408 106.691-205 71-70.035-33.067-102.994-116.98-78-190 6.086-12.588 11.646-25.667 20-37 14.245-19.324 40.01-40.427 62-50 86.757-37.77 191.8 14.627 212 107m-150-67c-81.551 2.101-130.658 97.974-77 162.5 54.715 65.797 160.991 37.869 180-44.5 25.349-6.511 24.912-34.032 11-52 1.181-11.443-1.902-28.184-8-38 .841-1.376 2.76-4.06 3-5.5 5.879-35.331-92.031-93.606-114-62-8.686 12.496-4.612 28.737 5 39.5m-114.5 16c-26.065 4.281-18.836 49.397 11 42 24.29-6.022 19.308-46.977-11-42" style="fill:url(#a)"/>/&gt;<path fill="#75daef" d="M616 344c-1.484-2.388-12.044-13.214-14.5-15-23.667-17.213-40.733-6.591-65.5-8-.772-.044-1.82-.905-4-1-3.757-3.401-16.902-4.131-22-4-9.612-10.763-13.686-27.004-5-39.5 21.969-31.606 119.879 26.669 114 62-.24 1.44-2.159 4.124-3 5.5"/><path fill="#29accf" d="M368 309c2.321 7.112 11.386 14.309 18 17-8.354 11.333-13.914 24.412-20 37-6.409 13.256-9.39 19.161-14 34-7.478 24.068-12.442 51.144-11 78.5.033.632 5.497 17.014 2 11-11.001-18.919-16.213-63.047-16-85 .088-9.109 3.73-21.332 3-30-.252-2.988-.448-2.253-3-3.5 8.548-33.892 26.328-61.87 51-86l-17 33.5c2.302-.247 5.384-4.642 7-6.5"/><path fill="#fefeff" d="M743.5 294c32.986-5.322 42.384 43.237 0 51-39.018 7.147-22.183-47.421 0-51"/><path fill="#e5f3f6" d="M532 320c-14.153-.615-26.47-.426-40.5 2-.837.145.131 1.68-1.5 2-.142.028.865-1.912-1-1.5-38.745 8.557-71.697 40.042-76 81-11.508 109.541 137.545 151.51 186 54.5 4.746-9.501 7.936-16.158 10-27l4 1c-.128.6.137 1.408 0 2-19.009 82.369-125.285 110.297-180 44.5-53.658-64.526-4.551-160.399 77-162.5 5.098-.131 18.243.599 22 4"/><path fill="#fafcfd" d="M616 344c6.098 9.816 9.181 26.557 8 38-.982 9.515-6.436 14.078-8 20.5-1.996 8.197-1.055 20.39-3 29.5l-4-1c1.286-6.759.854-13.861 3-20.5-2.824-1.732-3.094 2.826-4 3.5-3.716 2.763-7.439 4.872-11 8-56.448 27.727-109.111-34.193-71-85 5.197-5.219 18.422-10.87 10-16 24.767 1.409 41.833-9.213 65.5 8 2.456 1.786 13.016 12.612 14.5 15"/><path fill="#124158" d="M532 320c2.18.095 3.228.956 4 1 8.422 5.13-4.803 10.781-10 16-12.206 12.258-13.865 21.679-15.5 39-22.958-5.1-44.667-.181-62.5 15 .994-2.762.745-10.297 2-13.5 8.853-22.599 18.934-39.999 40-53.5 1.631-.32.663-1.855 1.5-2 14.03-2.426 26.347-2.615 40.5-2"/><path fill="#0a80a6" d="M490 324c-21.066 13.501-31.147 30.901-40 53.5-1.255 3.203-1.006 10.738-2 13.5-2.583 7.176-10.077 14.669-13 22.5-15.082 40.407 6.822 71.217 48.5 75.5 41.179 4.232 79.752-13.777 115.5-31-48.455 97.01-197.508 55.041-186-54.5 4.303-40.958 37.255-72.443 76-81 1.865-.412.858 1.528 1 1.5"/><path fill="#fefefe" d="M395.5 332c30.308-4.977 35.29 35.978 11 42-29.836 7.397-37.065-37.719-11-42"/><path fill="#033853" d="M526 337c-38.111 50.807 14.552 112.727 71 85-2.047 1.797-3.607 3.525-6.5 4l.5 2.5c16.627 8.68 19.481 2.137 17-14.5.906-.674 1.176-5.232 4-3.5-2.146 6.639-1.714 13.741-3 20.5-2.064 10.842-5.254 17.499-10 27-35.748 17.223-74.321 35.232-115.5 31-41.678-4.283-63.582-35.093-48.5-75.5 2.923-7.831 10.417-15.324 13-22.5 17.833-15.181 39.542-20.1 62.5-15 1.635-17.321 3.294-26.742 15.5-39m-78.5 64c-14.11 2.55-9.192 40.482 8 37 13.562-2.746 7.999-39.891-8-37"/><path fill="#fdfefe" d="M774.5 350c11.141-1.514 11.028 13.663 8 15-.709.313-14.05-4.255-14.5-5.5-1.421-3.928 2.679-8.981 6.5-9.5"/><path fill="#63a3b6" d="m165 398 6-31.5c-2.682-1.63-4.782.629-7 1.5l-2-2c1.332-.577 10.67-7.034 12-4.5l-7 36z"/><path fill="#f6fafb" d="M906 413c-3.055-5.734-3.365-17.161-7.5-22-3.716-4.348-39.276-22.083-46.5-25-.147-.059-1.07-1.863-3-1-.049-1.23-2.411-2.016.5-4 23.485 13.265 59.802 19.388 59.5 52.5-1.288 1.476-1.922-.415-3-.5"/><path fill="#51d0e8" d="M366 363c-24.994 73.02 7.965 156.933 78 190l-5 9c-61.665-30.249-98.875-95.78-87-165 4.61-14.839 7.591-20.744 14-34"/><path fill="#fdfefe" d="M754.5 362c10.585-4.146 17.106 22.158 5 23-11.111.773-10.801-20.728-5-23"/><path fill="#43bad4" d="m852 366 6 32c-.146-.044-1.368 2.309-3-.5-.434-10.619-5.591-22.177-6-32.5 1.93-.863 2.853.941 3 1"/><path fill="#f5f9f9" d="m162 366 2 2c-6.852 2.692-40.415 21.543-43 26.5-2.196 4.211-2.486 13.816-5 18.5-1.078.083-1.712 1.977-3 .5-.549-1.116 4.968-22.5 6-24 2.461-3.579 36.771-20.8 43-23.5"/><path fill="#016e98" d="M165 398c-16.476-2.747-35.492 13.954-49 15 2.514-4.684 2.804-14.289 5-18.5 2.585-4.957 36.148-23.808 43-26.5 2.218-.871 4.318-3.13 7-1.5z"/><path fill="#027ea7" d="M906 413c-2.527-.199-41.609-13.057-48-15l-6-32c7.224 2.917 42.784 20.652 46.5 25 4.135 4.839 4.445 16.266 7.5 22"/><path fill="#1c80a4" d="M352 397c-11.875 69.22 25.335 134.751 87 165 42.923 21.056 80.315 20.925 126.5 10 28.006-6.625 61.556-18.666 85-35l-2.5 6c-135.428 140.196-368.44 13.096-321-175 2.552 1.247 2.748.512 3 3.5.73 8.668-2.912 20.891-3 30-.213 21.953 4.999 66.081 16 85 3.497 6.014-1.967-10.368-2-11-1.442-27.356 3.522-54.432 11-78.5"/><path fill="#25c3e2" d="m678 491-29-9c14.789-30.541 18.228-65.949 11-99l24.5-4c-.47-2.583-.194-8.019-.5-10 11.836 39.62 10.696 84.019-6 122"/><path fill="#fefefe" d="M776.5 378c15.31-2.518 16.869 22.115 1 25-21.934 3.988-15.175-22.669-1-25"/><path fill="#72d6ec" d="M613 434c.137-.592-.128-1.4 0-2 1.945-9.11 1.004-21.303 3-29.5 1.564-6.422 7.018-10.985 8-20.5 13.912 17.968 14.349 45.489-11 52"/><path fill="#f0f7fa" d="M915 503c-2.52-3.755 1.647-8.441-3-11 .36-1.714 1.318-.082 2-2 3.489-9.82-1.637-19.717 0-29.5-3.169-8.92-1.719-26.058-6-34-5.115-9.488-42.001-17.602-52-23.5l1.5-3c9.174 5.103 47.87 15.018 53.5 21.5 9.314 10.723 7.378 65.727 6 81z"/><path fill="#56a8c1" d="M156 490c.033-2.656-.047-5.345 0-8 .022-1.235 2.785-2.35 1.5-3-2.047-.348-3.598.629-5.5 1l-2-1c2.158-.767 6.465-.977 7-2.5-.177-8.057-.657-16.99 0-25 .805-9.815 5.657-40.285 3-46.5-.314-.734 2.103-1.759 0-2 .458-.088 3.231-3.22 5.5-2-2.404 29.607-5.899 59.482-4.5 89.5-1.626 2.834-3.747-.591-5-.5"/><path fill="#676c76" d="M447.5 401c15.999-2.891 21.562 34.254 8 37-17.192 3.482-22.11-34.45-8-37"/><path fill="#f3f9fa" d="M160 403c2.103.241-.314 1.266 0 2-8.843 5.354-41.115 12.58-46 20.5-4.132 6.698-6.685 43.982-7 53.5-.172 5.194-.887 10.981 1 16-.956 1.887-.868 5.872 0 8-.917-.122-2.513.424-3-.5-2.189-15.166-3.533-70.323 6-81 4.335-4.855 41.055-16.978 49-18.5"/><path fill="#0c9bc1" d="m914 490-46-10c-1.769-.678-7.477-2.249-8-3.5 1.003-24.669-1.676-49.029-4-73.5 9.999 5.898 46.885 14.012 52 23.5 4.281 7.942 2.831 25.08 6 34-1.637 9.783 3.489 19.68 0 29.5"/><path fill="#0ea3c9" d="M150 479c-4.023 1.431-37.505 10.415-39.5 10-4.259-.885-1.592-6.42-3.5-10 .315-9.518 2.868-46.802 7-53.5 4.885-7.92 37.157-15.146 46-20.5 2.657 6.215-2.195 36.685-3 46.5-.657 8.01-.177 16.943 0 25-.535 1.523-4.842 1.733-7 2.5"/><path fill="#174d65" d="M608 414c2.481 16.637-.373 23.18-17 14.5l-.5-2.5c2.893-.475 4.453-2.203 6.5-4 3.561-3.128 7.284-5.237 11-8"/><path fill="#6e92a3" d="M853 481c-5.68 145.435-99.114 287.042-235 341 .14-2.382-.05-7.142 0-10 17.93-8.5 35.922-16.84 53-27 106.047-63.088 167.984-196.471 168-318 2.181.385 11.116-.739 12 .5 1.219 1.709-2.394 12.292 2 13.5"/><path fill="#40d7f0" d="M914 490c-.682 1.918-1.64.286-2 2-.468-.258-5.687-.498-7-1-12.059-4.609-25.745-6.685-37-11z"/><path fill="#46ddf1" d="m150 479 2 1c-4.746.925-39.155 10.501-41.5 12-2.425 1.55-1.556 1.135-2.5 3-1.887-5.019-1.172-10.806-1-16 1.908 3.58-.759 9.115 3.5 10 1.995.415 35.477-8.569 39.5-10"/><path fill="#013955" d="M156 482c-11.901 5.149-28.215 9.568-39.5 15-2.815 1.355-4.198.904-3.5 5-1.824.284-3.057 1.259-5 1-.868-2.128-.956-6.113 0-8 .944-1.865.075-1.45 2.5-3 2.345-1.499 36.754-11.075 41.5-12 1.902-.371 3.453-1.348 5.5-1 1.285.65-1.478 1.765-1.5 3"/><path fill="#70b0c1" d="M865 482v8c-.258.042-3.236 3.513-5 1.5v-12c.613-1.14 4.049 2.21 5 2.5"/><path fill="#076381" d="M156 482c-.047 2.655.033 5.344 0 8-17.095 1.24-27.247 9.546-43 12-.698-4.096.685-3.645 3.5-5 11.285-5.432 27.599-9.851 39.5-15"/><path fill="#2aacd0" d="m678 491-20 41c-3.239 3.983-6.449 7.324-10 11l2.5-6c-23.444 16.334-56.994 28.375-85 35-46.185 10.925-83.577 11.056-126.5-10l5-9c75.592 35.691 168.555 4.26 205-71z"/><path fill="#034a68" d="M905 491c1.313.502 6.532.742 7 1 4.647 2.559.48 7.245 3 11-16.708 1.354-35.199-15.419-50-13v-8c6.38 1.948 35.497 15.255 37.5 15 1.71-.217 3.926-4.165 2.5-6"/><path fill="#36a9c3" d="M906 549c2.587-12.442 5.645-24.802 7-37.5L859 497l1.5-2c6.287.307 54.399 12.824 55.5 15.5-.904 9.657-1.65 19.578-4 29-.57 2.285-6.703 23.562-9 19 .704-3.088 2.375-6.493 3-9.5"/><path fill="#3dafc9" d="M162 498c-1.631.134-3.386-.201-5 0-14.902 1.851-32.654 10.31-48 12.5l9 48.5-3-1.5c-3.979-15.459-9.494-30.729-9-47 7.844-3.611 48.492-16.646 54.5-14.5z"/><path fill="#005d81" d="m906 549-18 10c-11.712-.796-27.368-2.73-38 1-.059-.764-.151-1.103-1-1 4.709-20.399 7.914-41.146 10-62l54 14.5c-1.355 12.698-4.413 25.058-7 37.5"/><path fill="#005376" d="M157 498c1.786 9.707 4.218 20.414 4 28.5 4.277 10.265 6.226 19.647 8 31.5-15.575-1.783-34.354 3.168-50 1-.326-.045-.67.034-1 0l-9-48.5c15.346-2.19 33.098-10.649 48-12.5"/><path fill="#186884" d="M162 498c1.916 20.533 5.843 40.863 10 61h-1c-.886.053-1.001-.886-2-1-1.774-11.853-3.723-21.235-8-31.5.218-8.086-2.214-18.793-4-28.5 1.614-.201 3.369.134 5 0"/><path fill="#002842" d="M169 558c.999.114 1.114 1.053 2 1 .576 1.305-.144 6.37 0 7-8.725.424-17.292-.945-26-1-6.749-5.137-21.007 2.236-26-6 15.646 2.168 34.425-2.783 50-1"/><path fill="#002943" d="M888 559c3.18.216 11.494-.719 13.5 0 2.306.827.359 2.522.5 4-.642.073-1.485-.145-2 0-3.634 1.025.907 2.099-7 2-5.791-.072-40.765 1.227-42.5 0-.97-.686-.401-3.722-.5-5 10.632-3.73 26.288-1.796 38-1"/><path fill="#6fabbb" d="M176 575c-1.39.682-4.697-7.678-5-9-.144-.63.576-5.695 0-7h1c.699 3.386 5.04 13.229 4 16"/><path fill="#0182a9" d="M850 560c.099 1.278-.47 4.314.5 5 1.735 1.227 36.709-.072 42.5 0-7.804 2.942-21.27-.139-28.5 2-4.77 1.411-12.869 12.924-21 12-.947-.423 4.982-17.756 5.5-20 .849-.103.941.236 1 1"/><path fill="#4ca9bc" d="M121 565c-.087-.266-4.759 1.062-2.5-3 2.556-.432 2.309 2.96 2.5 3"/><path fill="#3a94ac" d="M902 563c.01.103 1.633-.364 2 .5-1.559 2.104-4.414 2.464-4-.5.515-.145 1.358.073 2 0"/><path fill="#01779e" d="M145 565c8.708.055 17.275 1.424 26 1 .303 1.322 3.61 9.682 5 9-.45 1.199-1.894 1.332-3 2-9.215-5.825-25.191-7.908-36-10-1.177-4.287 4.125-2.025 8-2"/><path fill="#002b46" d="M137 567c10.809 2.092 26.785 4.175 36 10 1.601 1.012 3.028 2.947 3 5-16.512-6.122-36.795-6.544-53-13-.805-.321-1.204-.896-2-1-.192-.903.245-2.247 0-3 4.377.917 10.282.893 16 2"/><path fill="#4c9fb3" d="M123 569c-1.67 2.135-.021 1.902 0 2 1.46 6.751 13.987 37.08 18.5 40 .479.31 8.725 2.255 10.5 3l-2 3c-22.596-11.026-24.168-26.239-29-49 .796.104 1.195.679 2 1"/><path fill="#3195b0" d="M879 614v-3c7.453-4.249 15.178-29.886 20-38.5l-20 3.5-1-2c8.043-1.75 16.076-3.29 24-5.5-4.613 14.754-8.982 36.665-23 45.5"/><path fill="#14647f" d="M176 582h1c-18.523 1.321-36.848-4.762-54-11-.021-.098-1.67.135 0-2 16.205 6.456 36.488 6.878 53 13"/><path fill="#004c6d" d="M177 582c2.131.675 2.93 1.655 4 3.5 3.267 5.632 8.952 24.792 12 32.5-4.383.237-1.726 7.187-5.5 8-1.832.395-31.382-10.272-35.5-12-1.775-.745-10.021-2.69-10.5-3-4.513-2.92-17.04-33.249-18.5-40 17.152 6.238 35.477 12.321 54 11"/><path fill="#005578" d="M879 611c-2.651 1.512-41.199 14.992-43.5 15-3.792.014-2.129-2.082-3.5-3 1.387-2.578-1.997-5.207-2-5.5-.02-1.806 12.072-32.395 13.5-33.5 4.019-3.112 29.89-1.737 35.5-8l20-3.5c-4.822 8.614-12.547 34.251-20 38.5"/><path fill="#247a95" d="M879 576c-5.61 6.263-31.481 4.888-35.5 8-1.428 1.105-13.52 31.694-13.5 33.5.003.293 3.387 2.922 2 5.5-1.203-.805-.818-.931-1.5-2-1.725 3.292-4.764 7.885-.5 11-1.671.323-7.069 1.798-8 .5l20-49c2.683-3.035 29.711-8.132 36-9.5z"/><path fill="#78b0c2" d="M879 611v3c-6.14 3.87-41.468 16.544-49 18-4.264-3.115-1.225-7.708.5-11 .682 1.069.297 1.195 1.5 2 1.371.918-.292 3.014 3.5 3 2.301-.008 40.849-13.488 43.5-15"/><path fill="#81b5c6" d="M193 618c1.986 5.024 4.101 9.92 7 14.5-2.206 2.831-44.412-12.773-50-15.5l2-3c4.118 1.728 33.668 12.395 35.5 12 3.774-.813 1.117-7.763 5.5-8"/><path fill="#b4e0ee" d="M335 668c-5.015-.489-9.651.439-11 6-7.117-.917 2.672-12.988 4.5-14 8.867-4.908 17.693-.096 26.5 1.5-4.419 3.839-18.065-.81-20 6.5"/><path fill="#a1d4e2" d="M666 734c3.884-4.934 10.148-12.218 13-17.5 4.949-9.166 19.2-46.887 1.5-49.5-3.28-.484-51.045 22.869-61 26-102.18 32.136-172.76 14.653-268.5-20 76.572 31.323 163.974 45.651 245.5 24 27.937-7.419 54.662-23.899 80.5-32 3.775-1.184 4.799-2.631 9.5-1 21.759 7.547-3.672 63.946-20.5 70"/><path fill="#042b42" d="M335 668c5.232.51 11.057 3.211 16 5 95.74 34.653 166.32 52.136 268.5 20 9.955-3.131 57.72-26.484 61-26 17.7 2.613 3.449 40.334-1.5 49.5-2.852 5.282-9.116 12.566-13 17.5-13.389 17.006-31.383 33.93-50 45-.182-1.951.022-3.801 0-4 23.49-16.038 42.783-37.277 59-60.5l-6 1.5c2.797-4.953 17.278-40.783 9.5-42-32.465 15.852-67.774 37.652-104 43-10.282 1.518-22.957 1.587-33.5 2-.252-1.498.59-5.228-.5-6-2.407-1.705-50.754.549-59 0-37.182-2.473-69.952-13.4-103-26-8.55-3.26-43.81-19.577-50-17-11.317 4.711 15.999 44.041 20.5 51 9.153 14.154 14.138 21.625 26 34 8.975 9.363 18.657 18.155 29 26-.023.66.018 1.339 0 2-26.327-13.968-87.368-78.622-80-109 1.349-5.561 5.985-6.489 11-6"/><path fill="#103f56" d="M541 719c-43.819 1.715-100.027.234-141.5-14-15.991-5.488-30.272-14.949-46-21-1.689.841-5.105 33.486-2.5 37-.407-.165-1.37.087-2 0-4.501-6.959-31.817-46.289-20.5-51 6.19-2.577 41.45 13.74 50 17 33.048 12.6 65.818 23.527 103 26 8.246.549 56.593-1.705 59 0 1.09.772.248 4.502.5 6"/><path fill="#1c222e" d="M669 716c-11.225 19.877-36.777 38.405-54 53-3.728-28.135-9.249-37.651-40.5-40-24.478-1.84-49.921 11.042-67 10-24.025-1.465-42.768-16.383-73-11-27.172 4.838-27.552 18.456-29.5 41-9.489-7.193-19.632-14.029-28.5-22-4.494-4.039-23.022-24.996-25.5-26-2.605-3.514.811-36.159 2.5-37 15.728 6.051 30.009 15.512 46 21 41.473 14.234 97.681 15.715 141.5 14 10.543-.413 23.218-.482 33.5-2 36.226-5.348 71.535-27.148 104-43 7.778 1.217-6.703 37.047-9.5 42"/><path fill="#00577a" d="M616 775c-.178-1.596-.729-3.953-1-6 17.223-14.595 42.775-33.123 54-53l6-1.5c-16.217 23.223-35.51 44.462-59 60.5"/><path fill="#085472" d="M351 721c2.478 1.004 21.006 21.961 25.5 26 8.868 7.971 19.011 14.807 28.5 22-.156 1.808-.979 4.665-1 5l-29-19c-11.862-12.375-16.847-19.846-26-34 .63.087 1.593-.165 2 0"/><path fill="#501722" d="M615 769c.271 2.047.822 4.404 1 6 .022.199-.182 2.049 0 4 .946 10.147 2.177 22.958 2 33-.05 2.858.14 7.618 0 10-.054.921-.828 3.956-1 6-4.851 57.57-33.337 143.077-101.5 149-77.742 6.755-103.823-86.918-109.5-147-.258-2.733-.803-5.263-1-8-.306-4.241-.833-8.822-1-13-.264-6.6-.058-13.388 0-20 .017-1.989-.053-4.013 0-6 .018-.661-.023-1.34 0-2 .082-2.313-.145-4.694 0-7 .021-.335.844-3.192 1-5 1.948-22.544 2.328-36.162 29.5-41 30.232-5.383 48.975 9.535 73 11 17.079 1.042 42.522-11.84 67-10 31.251 2.349 36.772 11.865 40.5 40m-205 34c1.614 58.212 16.944 155.74 89 165 41.56 5.341 72.424-20.902 90-56 18.253-36.451 33.028-118.032 18-156-1.312-3.316-2.888-2.82-3-3-15.188-24.546-48.788-11.897-72-7-6.576 1.387-20.066 6.435-25.5 6-7.939-.636-27.12-10.296-38-12-8.789-1.377-16.704-.827-25.5 0-9.687.911-28.194 4.714-32 15.5-2.557 7.247-1.264 37.968-1 47.5"/><path fill="#914851" d="m443 740-2 4c-2.192.253-2.844.972-3 1-6.116 1.114-20.735 6.628-23 12.5-3.3 8.554-.576 37.142 0 47.5l-5-2c-.264-9.532-1.557-40.253 1-47.5 3.806-10.786 22.313-14.589 32-15.5"/><path fill="#9f616a" d="m532 746-1 3c-3.809 1.553-3.782 2.877-4 3-4.246 2.405-8.673 3.003-12 6.5 2.492 23.196-.791 46.444-3 69.5-2.914.468-2.054-2.732-2-4.5.3-9.865 4.88-63.772 0-68-1.457-1.262-3.584-.369-5 .5-2.792-2.641-7.455-3.739-11-5-14.021-4.986-38.367-8.691-53-7l2-4c8.796-.827 16.711-1.377 25.5 0 10.88 1.704 30.061 11.364 38 12 5.434.435 18.924-4.613 25.5-6"/><path fill="#ae7d87" d="M604 753c-1.746.434-1.573 2.555-4 1.5-.907-.394-6.107-8.298-7-4.5-1.583-3.065-5.774-5.401-9-6-3.448-.64-8.539-.027-12 1 .751-2.144-2.443-1.949-3.5-2-12.841-.617-25.859 1.255-37.5 6l1-3c23.212-4.897 56.812-17.546 72 7"/><path fill="#8e5760" d="M572 745c-34.826 10.335-45.65 65.119-54 95l9-88c.218-.123.191-1.447 4-3 11.641-4.745 24.659-6.617 37.5-6 1.057.051 4.251-.144 3.5 2"/><path fill="url(#b)" d="M441 744c14.633-1.691 38.979 2.014 53 7-.58 26.804 2.207 53.679 1 80.5-1.51 33.563-14.667 69.886-2.5 101.5 1.37-4.247 1.507-8.679 2.5-13 9.179-7.175 7.744-22.37 10-32 3.776-16.118 8.548-32.068 13-48 8.35-29.881 19.174-84.665 54-95 3.461-1.027 8.552-1.64 12-1l4.5 44c.884-1.558 7.29-3.096 7.5-3.5 1.181-2.265-1.371-31.347-3-34.5.893-3.798 6.093 4.106 7 4.5 2.427 1.055 2.254-1.066 4-1.5.112.18 1.688-.316 3 3-4.16 19.329.076 41.039-1 61.5-2.038 38.771-16.847 97.348-47.5 123.5-20.606 17.58-44.149 20.56-70.5 19-1.361-.899-1.467-1.525-2-2-8.145-7.258-32.407-52.05-37-63.5-18.829-46.937-16.624-100.197-11-149.5.156-.028.808-.747 3-1m145.5 57c-5.62 2.618-.006 37.202-.5 44.5-1.736 25.633-23.935 73.745-45.5 88.5-5.14 3.517-13.26 4.632-16 9 36.162-8.462 62.958-58.331 67.5-92.5.64-4.815-2.27-4.243-2-7 .369-3.765 7.929-47.823-3.5-42.5" style="fill:url(#b)"/>/&gt;<path fill="#c99da7" d="M593 750c1.629 3.153 4.181 32.235 3 34.5-.21.404-6.616 1.942-7.5 3.5l-4.5-44c3.226.599 7.417 2.935 9 6"/><path fill="#82434b" d="M438 745c-5.624 49.303-7.829 102.563 11 149.5 4.593 11.45 28.855 56.242 37 63.5-55.883-20.661-68.092-100.662-71-153-.576-10.358-3.3-38.946 0-47.5 2.265-5.872 16.884-11.386 23-12.5"/><path fill="#8f5861" d="M505 756c1.424 1.347 1.677 3.924 4 4.5.767 53.298-2.044 107.497-14 159.5-.993 4.321-1.13 8.753-2.5 13-12.167-31.614.99-67.937 2.5-101.5 1.207-26.821-1.58-53.696-1-80.5 3.545 1.261 8.208 2.359 11 5"/><path fill="#753a43" d="M518 840c-4.452 15.932-9.224 31.882-13 48 1.952-19.972 5.079-39.952 7-60 2.209-23.056 5.492-46.304 3-69.5 3.327-3.497 7.754-4.095 12-6.5z"/><path fill="#6ca0b0" d="M404 774c-.145 2.306.082 4.687 0 7-10.343-7.845-20.025-16.637-29-26z"/><path fill="#cc9ca3" d="M512 828c-1.921 20.048-5.048 40.028-7 60-2.256 9.63-.821 24.825-10 32 11.956-52.003 14.767-106.202 14-159.5-2.323-.576-2.576-3.153-4-4.5 1.416-.869 3.543-1.762 5-.5 4.88 4.228.3 58.135 0 68-.054 1.768-.914 4.968 2 4.5"/><path fill="#e9d4d6" d="M589 912c-9 10.81-16.451 23.015-27.5 32-16.294 13.25-40.15 22.178-61.5 20-3.105-.317-9.382-2.27-12-4 26.351 1.56 49.894-1.42 70.5-19 30.653-26.152 45.462-84.729 47.5-123.5 1.076-20.461-3.16-42.171 1-61.5 15.028 37.968.253 119.549-18 156"/><path fill="#ddb6bd" d="M586.5 801c11.429-5.323 3.869 38.735 3.5 42.5-.27 2.757 2.64 2.185 2 7-4.542 34.169-31.338 84.038-67.5 92.5 2.74-4.368 10.86-5.483 16-9 21.565-14.755 43.764-62.867 45.5-88.5.494-7.298-5.12-41.882.5-44.5"/><path fill="#ac646d" d="M415 805c2.908 52.338 15.117 132.339 71 153 .533.475.639 1.101 2 2 2.618 1.73 8.895 3.683 12 4l-1 4c-72.056-9.26-87.386-106.788-89-165z"/><path fill="#bb939f" d="m499 968 1-4c21.35 2.178 45.206-6.75 61.5-20 11.049-8.985 18.5-21.19 27.5-32-17.576 35.098-48.44 61.341-90 56"/></svg>