<svg xmlns="http://www.w3.org/2000/svg" width="1024" height="1024"><defs><linearGradient id="a" x1="770.228" x2="285.213" y1="437.211" y2="667.709" gradientUnits="userSpaceOnUse"><stop offset="28.119%" style="stop-color:#bfdbe6"/><stop offset="100%" style="stop-color:#6993a8"/></linearGradient></defs><defs><linearGradient id="b" x1="177.73" x2="211.979" y1="397.891" y2="430.078" gradientUnits="userSpaceOnUse"><stop offset="0%" style="stop-color:#268bc3"/><stop offset="100%" style="stop-color:#2a6da5"/></linearGradient></defs><defs><linearGradient id="c" x1="844.273" x2="811.245" y1="402.518" y2="434.537" gradientUnits="userSpaceOnUse"><stop offset="0%" style="stop-color:#2482b9"/><stop offset="100%" style="stop-color:#2968a0"/></linearGradient></defs><defs><linearGradient id="d" x1="459.314" x2="464.041" y1="311.191" y2="419.088" gradientUnits="userSpaceOnUse"><stop offset="0%" style="stop-color:#174b7b"/><stop offset="100%" style="stop-color:#087e9e"/></linearGradient></defs><defs><linearGradient id="e" x1="434.113" x2="242.738" y1="618.012" y2="730.527" gradientUnits="userSpaceOnUse"><stop offset="0%" style="stop-color:#678592"/><stop offset="100%" style="stop-color:#2e5a70"/></linearGradient></defs><defs><linearGradient id="f" x1="502.891" x2="519.01" y1="380.492" y2="527.611" gradientUnits="userSpaceOnUse"><stop offset="0%" style="stop-color:#002938"/><stop offset="100%" style="stop-color:#0c5e74"/></linearGradient></defs><defs><linearGradient id="g" x1="431.42" x2="547.151" y1="407.066" y2="583.496" gradientUnits="userSpaceOnUse"><stop offset="0%" style="stop-color:#24a3ce"/><stop offset="100%" style="stop-color:#7deefd"/></linearGradient></defs><defs><linearGradient id="h" x1="750.353" x2="557.792" y1="696.096" y2="818.178" gradientUnits="userSpaceOnUse"><stop offset="0%" style="stop-color:#b4ced9"/><stop offset="100%" style="stop-color:#90b1bf"/></linearGradient></defs><path fill="#105f8a" d="M846 489c-1.819.221-6.89 1.068-6 3-4.161.076-9.065.728-13 0 .319-8.66-14.628-46.735-19-56.5-28.658-64.008-83.418-122.733-144-157.5-58.413-33.523-108.111-45.462-176-41-49.984 3.285-82.776 15.265-126 39-83.507 45.854-146.63 126.303-169 219.5-1.232 1.763-3.538-1.934-5-2.5-2.375-.919-3.298-1.618-6-2-1.18-1-1.968-1.846-3-3-51.441-57.516-77.135-98.761-69-181.5 1.807-18.378 11.197-37.106 13-52 2.042-16.871-2.682-41.25-1-60 2.949-32.878 28.838-69.425 8.5-99.5 18.364 15.986 8.459 41.286 15.5 63.5 21.616 68.192 104.148 125.192 172.5 137.5 110.189-77.943 230.821-85.635 350-22 5.355 2.859 31.991 21.748 34 22 3.372.422 37.469-9.932 43-12 49.966-18.686 124.262-80.399 133.5-135.5 3.013-17.971-6.099-45.772 16.5-55.5-1.532 3.043-5.72 4.622-7.5 7.5-14.292 23.103 7.852 62.171 11 87 2.788 21.989-2.031 45.884 0 66 .733 7.263 6.584 17.55 8 25 14.785 77.806-1.68 158.548-65.5 209.5zm34-328c.15 1.081 1.485 1.493 1 3-2.427.743-6.053 14.917-8 18.5-33.034 60.778-92.352 105.927-160.5 119.5-2.292 2.109 3.78 4.443 4.5 5 12.783 9.881 23.928 20.266 35 32 7.84 8.309 15.855 17.098 23 26 4.296 5.353 8.901 11.476 13 17 1.634 2.202 7.685 14.719 8.5 15 35.043-19.543 64.304-49.748 81.5-86 16.659-35.119 21.971-70.206 17-109 2.219.551 3.044-9.004 3-9.5-.069-.784-1.904-.21-2-1-1.542-12.707-4.513-30.465-11-41.5-.284-.483.66-3.69-1-2.5.87 1.947-.803 3.764-1 4.5l-2-5.5c.723 4.924-1.675 9.625-1 14.5M234 382c4.056-5.42 7.911-11.85 12-17 6.42-8.086 15.826-18.397 23-26 10.713-11.354 22.822-22.208 35-32 .771-.62 5.985-3.153 6-3.5l-1.5-1.5c-58.914-13.783-108.242-45.279-143.5-94.5-11.975-16.717-24.268-37.114-24-58l-2 1.5c-.269-1.411 1.008-5.151-2-3.5-3.427 24.352-11.152 48.223-12 73-2.523 73.739 35.236 139.101 98.5 175.5 4.38.058 8.132-10.835 10.5-14M120 270c-25.466 70.421 4.988 168.712 65.5 213 4.555-10.513 8.03-21.454 12.5-32 2.08-4.909 3.882-10.147 6-15 5.027-11.52 11.432-22.776 18-33.5-.017-2.495-5.269-4.228-7-5.5-7.6-5.586-16.106-9.971-23.5-16-24.061-19.62-40.974-44.888-55.5-72-5.533-15.381-8.879-32.431-12-48.5-2.291 2.087-2.895 6.445-4 9.5m691 125c-2.261 1.375-10.854 4.945-11 7.5 6.495 10.762 11.93 22.011 17 33.5 2.211 5.009 4.845 9.959 7 15 1.609 3.763 10.674 31.021 12.5 31 24.142-18.216 45.646-45.453 57.5-73.5 14.871-35.186 20.425-88.823 12-126-.513-2.263-.605-6.448-4-5.5-.473-4.083-.764-8.052-2-12-.298-.954.629-4.06-2-3.5-8.016 55.505-40.124 103.337-87 133.5"/><path fill="#c1dee8" d="M883 152c-.896 3.346-.134 8.765-3 9-.675-4.875 1.723-9.576 1-14.5z"/><path fill="#2484b2" d="M139 151c1.706 8.931.18 14.234 0 21-.026.992.015 2.007 0 3-4.028-.467-2.701.81-3 3.5-8.726 78.453 21.208 170.613 98 203.5-2.368 3.165-6.12 14.058-10.5 14-63.264-36.399-101.023-101.761-98.5-175.5.848-24.777 8.573-48.648 12-73 3.008-1.651 1.731 2.089 2 3.5"/><path fill="#1d8fb5" d="M885 150c.644 17.623 7.719 34.2 10 52 4.971 38.794-.341 73.881-17 109l-12-6c18.348-36.679 26.283-94.184 19-134.5-.284-1.574-.765-6.979-3-6.5-.317.069-.699-.092-1 0 .485-1.507-.85-1.919-1-3 2.866-.235 2.104-5.654 3-9 .197-.736 1.87-2.553 1-4.5 1.66-1.19.716 2.017 1 2.5"/><path fill="#f6fcfd" d="M304 307c-18.896-9.168-39.752-13.322-58.5-23-37.075-19.138-67.228-51.823-89.5-86.5-5.131-7.989-7.894-17.716-15-23.5-.186-.151.667-2.683-2-2 .18-6.766 1.706-12.069 0-21l2-1.5c-.268 20.886 12.025 41.283 24 58 35.258 49.221 84.586 80.717 143.5 94.5l1.5 1.5c-.015.347-5.229 2.88-6 3.5"/><path fill="#176d95" d="M895 202c-2.281-17.8-9.356-34.377-10-52 6.487 11.035 9.458 28.793 11 41.5.096.79 1.931.216 2 1 .044.496-.781 10.051-3 9.5"/><path fill="#f7fcfd" d="M882 164c-.194 3.919-3.224 7.973-3 12-27.809 47.497-61.066 89.656-112.5 113-15.915 7.223-33.746 10.319-49.5 18-.72-.557-6.792-2.891-4.5-5 68.148-13.573 127.466-58.722 160.5-119.5 1.947-3.583 5.573-17.757 8-18.5.301-.092.683.069 1 0"/><path fill="#3393bd" d="M866 305c-15.158 30.303-45.381 65.716-78 77-4.099-5.524-8.704-11.647-13-17 70.083-26.486 116.426-108.283 108-182.5-.277-2.441-2.966-2.308-3-2.5-.211-1.207-.874-1.743-1-4-.224-4.027 2.806-8.081 3-12 2.235-.479 2.716 4.926 3 6.5 7.283 40.316-.652 97.821-19 134.5"/><path fill="#6bd0ea" d="M141 174c2.406 75.91 60.344 137.953 128 165-7.174 7.603-16.58 17.914-23 26-54.051-22.641-95.489-75.502-105-133.5-3.199-19.506-2.293-37.055-2-56.5.015-.993-.026-2.008 0-3 2.667-.683 1.814 1.849 2 2"/><path fill="#a8dff1" d="M304 307c-12.178 9.792-24.287 20.646-35 32-67.656-27.047-125.594-89.09-128-165 7.106 5.784 9.869 15.511 15 23.5 22.272 34.677 52.425 67.362 89.5 86.5 18.748 9.678 39.604 13.832 58.5 23"/><path fill="#389dc6" d="M139 175c-.293 19.445-1.199 36.994 2 56.5 9.511 57.998 50.949 110.859 105 133.5-4.089 5.15-7.944 11.58-12 17-76.792-32.887-106.726-125.047-98-203.5.299-2.69-1.028-3.967 3-3.5"/><path fill="#9cd6eb" d="M880 180c-3.239 73.113-62.393 133.963-128 159-11.072-11.734-22.217-22.119-35-32 15.754-7.681 33.585-10.777 49.5-18 51.434-23.344 84.691-65.503 112.5-113 .126 2.257.789 2.793 1 4"/><path fill="#60bdde" d="M775 365c-7.145-8.902-15.16-17.691-23-26 65.607-25.037 124.761-85.887 128-159 .034.192 2.723.059 3 2.5 8.426 74.217-37.917 156.014-108 182.5"/><path fill="url(#a)" d="M664 278c2.385 6.246 13.244 24.337 18 28-.256 3.8-8.783 4.051-5 8 16.943 13.881 34.688 26.669 50 42.5 56.924 58.852 89.321 140.836 89 223l3-4.5c-.77 7.663.006 13.064-2 22l-2-8.5-2 1C781.073 680.637 694.439 742.411 603.5 766l.5 3c-20.018-14.478-13.327-14.799-27-31.5-24.406-29.811-74.104-31.661-107.5-17.5-27.258 11.558-22.796 24.939-38.5 42.5-5.849 6.541-14.629 9.789-20 17 17.191 13.47 24.582 34.894 37 52.5 15.028 21.307 28.688 24.437 55 27v2c-129.558-15.339-230.797-139.968-250-264.5-16.205-105.091 12.35-214.744 84-293.5 8.316-6.317 17.604-14.37 26-20 30.056-20.155 67.227-31.968 102.5-40 7.01-1.596 17.039-.863 22.5-6 67.889-4.462 117.587 7.477 176 41m-304 46c-1.576 1.663-4.204 4.941-6 7-2.551 2.925-4.691 3.706-8 8-3.184 2.212-6.647 5.457-9 8.5-14.469 18.711-31.405 78.519-33 103-14.921 229.021 293.315 304.37 383 99.5 23.093-52.753 33.678-110.669 10-165-10.317-28.54-33.256-59.257-56-79 1.559-1.884-2.352-4.966-3.5-6-25.546-23.005-62.416-38.974-96.5-43-67.719-7.999-138.071 12.806-181 67" style="fill:url(#a)"/>/&gt;<path fill="#f2f8fb" d="M488 237c-5.461 5.137-15.49 4.404-22.5 6-35.273 8.032-72.444 19.845-102.5 40l-1-7c43.224-23.735 76.016-35.715 126-39"/><path fill="#85a8b5" d="m541 257-1 3c-70.772-10.181-131.388 12.697-180 64 42.929-54.194 113.281-74.999 181-67"/><path fill="#dae8eb" d="M540 260c38.696 5.567 71.523 20.413 101 46 22.744 19.743 45.683 50.46 56 79 1.873 5.182 3.637 11.638 5 17-5.197-2.755-16.748-1.687-21-4-2.043-1.111-16.843-35.155-21-41.5-64.51-98.451-205.698-106.196-284-19.5-5.874 6.504-12.183 12.589-17 20l-21-2c4.891-8.255 11.266-15.642 16-24 1.796-2.059 4.424-5.337 6-7 48.612-51.303 109.228-74.181 180-64"/><path fill="#5f7882" d="M641 306c-29.477-25.587-62.304-40.433-101-46l1-3c34.084 4.026 70.954 19.995 96.5 43 1.148 1.034 5.059 4.116 3.5 6"/><path fill="#99dbef" d="M136 309c13.708 38.104 41.342 66.298 75 87.5.786.495 3.667 2.545 4 .5 1.731 1.272 6.983 3.005 7 5.5-6.568 10.724-12.973 21.98-18 33.5-46.577-26.657-80.685-78.059-85-132-.285-3.558-1.995-7.112-2-7.5-.092-7.014 5.122-18.75 3-26.5 1.105-3.055 1.709-7.413 4-9.5 3.121 16.069 6.467 33.119 12 48.5"/><path fill="#e8f7fb" d="M900 265c-12.3 58.885-37.814 98.878-89 130 46.876-30.163 78.984-77.995 87-133.5 2.629-.56 1.702 2.546 2 3.5"/><path fill="#87d0e8" d="M902 277c.424 3.656.911 7.306 1 11 1.453 60.539-33.349 119.089-86 148-5.07-11.489-10.505-22.738-17-33.5.146-2.555 8.739-6.125 11-7.5 51.186-31.122 76.7-71.115 89-130 1.236 3.948 1.527 7.917 2 12"/><path fill="url(#b)" d="M119 304c-1.334 56.836 28.333 119.087 79 147-4.47 10.546-7.945 21.487-12.5 32-60.512-44.288-90.966-142.579-65.5-213 2.122 7.75-3.092 19.486-3 26.5.005.388 1.715 3.942 2 7.5" style="fill:url(#b)"/>/&gt;<path fill="#9dc9db" d="m362 276 1 7c-8.396 5.63-17.684 13.683-26 20-56.06 42.582-125.954 117.128-140 188.5-2.095 10.644-.294 8.895 3 19-1.796-2.068-3.275-4.329-5-6.5-2.052-2.582-7.327-7.655-7-11 1.462.566 3.768 4.263 5 2.5 22.37-93.197 85.493-173.646 169-219.5"/><path fill="#98b4b8" d="M681 398c16.213 57.753 5.544 123.343-35 168.5l17 12.5c-57.35 68.319-147.023 87.775-230 57-8.558-3.91-20.97-10.904-29-16-2.549-5.728 11.198-13.108 10-17.5-10.752-7.667-22.732-16.123-32-25.5-2.354-2.382-3.97-5.69-6-8l4-4c90.858 103.506 267.182 61.072 297-73.5C716.171 314.719 495.062 209.394 379 341l-3-4c78.302-86.696 219.49-78.951 284 19.5 4.157 6.345 18.957 40.389 21 41.5"/><path fill="url(#c)" d="M824 451c55.156-30.293 84.815-101.969 79-163-.089-3.694-.576-7.344-1-11 3.395-.948 3.487 3.237 4 5.5 8.425 37.177 2.871 90.814-12 126-11.854 28.047-33.358 55.284-57.5 73.5-1.826.021-10.891-27.237-12.5-31" style="fill:url(#c)"/>/&gt;<path fill="#ddf0f8" d="M827 492c-.006.158-.716.763-1 3-2.137.994-4.388 3.897-5 6-3.015-.657-1.408 3.417-3 .5-2.32-4.251-3.366-15.727-5-21-17.686-57.086-54.046-115.487-99.5-154.5-2.901-2.49-24.382-19.732-26-20-1.351-.224-1.495.935-2.5 2-.071-2.078-2.746-1.804-3-2-4.756-3.663-15.615-21.754-18-28 60.582 34.767 115.342 93.492 144 157.5 4.372 9.765 19.319 47.84 19 56.5"/><path fill="#071d30" d="M380 565c-55.172-62.853-56.689-160.853-1-224 116.062-131.606 337.171-26.281 298 150.5-29.818 134.572-206.142 177.006-297 73.5m39-249c-17.87 11.39-31.211 24.103-44 41-20.367 26.91-31.915 55.752-33 90-1.452 45.818 12.631 83.293 43 117 86.233 95.709 244.047 63.801 283-59 9.76-30.77 11.253-56.355 4-88-2.459-10.728-6.449-21.015-11-31-42.041-92.242-156.493-124.498-242-70"/><path fill="#35aed5" d="M824 451c-2.155-5.041-4.789-9.991-7-15 52.651-28.911 87.453-87.461 86-148 5.815 61.031-23.844 132.707-79 163"/><path fill="#153759" d="m661 386-5 3c-4.762-10.431-16.527-28.284-24-37-4.672-5.449-9.852-11.121-16-15 .709-3.302-1.537-3.61-3.5-5-59.805-42.355-127.651-51.506-191.5-10l-2-6c85.507-54.498 199.959-22.242 242 70"/><path fill="#082e4c" d="M616 337c-4.841-3.054-12.941-7.196-18.5-8-4.097-.593-20.273.919-22 0-.609-.324.625-7.449-.5-9.5-.413-.753-5.646-3.184-6-3.5-43.011-38.393-139.888-4.581-175 35l-4-2c9.495-10.385 19.13-19.284 31-27 63.849-41.506 131.695-32.355 191.5 10 1.963 1.39 4.209 1.698 3.5 5"/><path fill="url(#d)" d="M569 316c-11.234 1.486-22.852 5.322-24 18-52.835-16.902-108.604 5.614-139 50-9.316 13.603-17.324 28.1-19 45-.3.1-.701-.101-1 0-5.749 1.939-28.993 10.212-32 14 2.591-31.957 18.772-68.071 40-92 35.112-39.581 131.989-73.393 175-35" style="fill:url(#d)"/>/&gt;<path fill="url(#e)" d="M503 861c83.283 9.86 161.688-11.689 225-67 5.293-4.624 12.35-10.898 17-16-11.84 16.771-27.867 32.198-44 45-170.137 135.004-410.304 56.245-486-139.5-.392-.315-7.758 3.832-9 4.5-.306.165-2.33-2.757-4 3.5L191 655c12.483-13.994 18.034-51.991 18-70-.025-13.459-.86-29.702-3-43-.507-3.149-1.308-6.846-2-10-2.073-9.446-6.413-18.684-9-28 1.725 2.171 3.204 4.432 5 6.5-3.294-10.105-5.095-8.356-3-19 14.046-71.372 83.94-145.918 140-188.5-71.65 78.756-100.205 188.409-84 293.5C272.203 721.032 373.442 845.661 503 861" style="fill:url(#e)"/>/&gt;<path fill="#39b9df" d="M204 436c-2.118 4.853-3.92 10.091-6 15-50.667-27.913-80.334-90.164-79-147 4.315 53.941 38.423 105.343 85 132"/><path fill="#236ea1" d="M878 311c-17.196 36.252-46.457 66.457-81.5 86-.815-.281-6.866-12.798-8.5-15 32.619-11.284 62.842-46.697 78-77z"/><path fill="#c0d0d8" d="M685 308c-.478.507 2.037.898-.5 3-1.482 1.228-5.685 1.792-7.5 3-3.783-3.949 4.744-4.2 5-8 .254.196 2.929-.078 3 2"/><path fill="#fcfdfe" d="M821 501c-3.126 10.753 2.118 30.168 0 42-.582 8.19.7 16.845 0 25-.121 1.411-1.855 5.554-2 7l-3 4.5c.321-82.164-32.076-164.148-89-223-15.312-15.831-33.057-28.619-50-42.5 1.815-1.208 6.018-1.772 7.5-3 2.537-2.102.022-2.493.5-3 1.005-1.065 1.149-2.224 2.5-2 1.618.268 23.099 17.51 26 20 45.454 39.013 81.814 97.414 99.5 154.5 1.634 5.273 2.68 16.749 5 21 1.592 2.917-.015-1.157 3-.5"/><path fill="#e8f8fc" d="M215 397c-.333 2.045-3.214-.005-4-.5-33.658-21.202-61.292-49.396-75-87.5 14.526 27.112 31.439 52.38 55.5 72 7.394 6.029 15.9 10.414 23.5 16"/><path fill="#0c5174" d="M421 322c-11.87 7.716-21.505 16.615-31 27-3.902 4.268-7.56 8.33-11 13-2.813 0-4.504-2.6-4-5 12.789-16.897 26.13-29.61 44-41z"/><path fill="#fefefe" d="M569 316c.354.316 5.587 2.747 6 3.5 1.125 2.051-.109 9.176.5 9.5 1.727.919 17.903-.593 22 0 5.559.804 13.659 4.946 18.5 8 6.148 3.879 11.328 9.551 16 15 4.618 9.904 7.34 17.828 7 29-.461 15.133-6.808 25.249-16 36.5 7.464-7.168 24.083-3.41 26 7.5 1.322 7.525-6.21 21.975-13 24-.913.272-9.865.253-11 0-11.453-2.553-13.813-18.064-8-26.5-3.557.988-6.222 3.048-10 4.5-.769.296-1.223.729-2 1-2.029.708-3.864 1.514-6 2-2.059.469-5.843 1.883-7 2-4.931.498-16.654-2.245-17.5-2-1.273.369 1.339 16.896-10 19-12.655 2.349-24.278-14.153-22.5-25.5.629-4.012 6.005-8.459 6-9-.005-.57-6.185-7.197-7-9-5.004-11.072-7.328-20.017-6-32.5.23-2.165 1.577-4.18 2-6 .328-1.408.66-1.927 1-3 .901-2.842 1.546-5.345 3-8 .939-1.714 3.068-5.687 4-7 1.078-1.518 11.169-9.68 11-10.5-3.028-2.066-6.571-3.311-10-4.5-.297-.103-.697.097-1 0 1.148-12.678 12.766-16.514 24-18m-7.5 9c-2.941 6.097-10.364 4.458-4 13l10.5-5.5zm-9 93c-.545 4.251 9.733 10.01 13.5 9.5z"/><path fill="#d4dae0" d="m561.5 325 6.5 7.5-10.5 5.5c-6.364-8.542 1.059-6.903 4-13"/><path fill="#00466c" d="M545 334c.303.097.703-.103 1 0-2.951 15.2-11.749 5.629-21.5 5-37.336-2.408-68.226 6.267-95.5 32-5.711 5.388-10.492 10.549-15 17l-8-4c30.396-44.386 86.165-66.902 139-50"/><path fill="#1b3342" d="M338 355c-1.924 3.248-4.304 6.657-6 10 1.698-7.553 9.139-19.692 14-26 3.309-4.294 5.449-5.075 8-8-4.734 8.358-11.109 15.745-16 24"/><path fill="#005d77" d="M545 349c-17.55-2.367-34.796.311-52 4-3.904.837-29.377 7.342-30.5 9-1.204 1.778 3.201.232 2 2-21.62 10.75-40.194 29.585-49.5 52-3.362.853-.178-5.119 0-5.5 2.567-5.484 7.741-14.849 10-18.5 3.129-5.057 6.381-8.136 11-12.5l-7-8.5c27.274-25.733 58.164-34.408 95.5-32 9.751.629 18.549 10.2 21.5-5 3.429 1.189 6.972 2.434 10 4.5.169.82-9.922 8.982-11 10.5"/><path fill="#708e93" d="M379 341c-55.689 63.147-54.172 161.147 1 224l-4 4c-.658-.749-3.408-2.279-4-3-14.189-17.265-26.651-40.582-33-62-5.018-16.926-7.725-32.213-8-50 1.028-.218 4.79-1.091 5-1.5.527-1.027 2.104-21.85 2-23-.335-3.718-.477-4.372-5-4.5 1.251-8.74 3.337-17.605 6-26 4.375-13.791 12.118-29.873 20-42 4.817-7.411 11.126-13.496 17-20z"/><path fill="#3c6175" d="M332 365c-6.031 11.887-9.292 23.514-13 36-5.579 18.788-9.001 29.718-10 50-3.972 80.607 48.713 157.077 124 185 79.315 36.235 175.075 11.249 232-55.5 8.122-9.524 13.897-20.973 22-30.5-89.685 204.87-397.921 129.521-383-99.5 1.595-24.481 18.531-84.289 33-103 2.353-3.043 5.816-6.288 9-8.5-4.861 6.308-12.302 18.447-14 26"/><path fill="#009eb9" d="M545 349c-.932 1.313-3.061 5.286-4 7l-48-3c17.204-3.689 34.45-6.367 52-4"/><path fill="#005262" d="M394 351c-21.228 23.929-37.409 60.043-40 92-.919 1.158-.552.739-1 2h-5c2.245-31.331 12.469-57.845 31-83 3.44-4.67 7.098-8.732 11-13z"/><path fill="#093350" d="M656 389c2.628 5.757 11.852 31.447 12 36.5.116 3.967.817 5.02-4 4.5-.046-.102-1.718-.785-2-1-1.825-18.742-9.483-38.701-20.5-54-1.497.67 1.188 11.008-2.5 6 .34-11.172-2.382-19.096-7-29 7.473 8.716 19.238 26.569 24 37"/><path fill="#09c5d6" d="M541 356c-1.454 2.655-2.099 5.158-3 8-2.43-6.793-38.815-2.304-24.5-9-61.361-1.899-111.519 51.67-104.5 113l-2 1c-1.915-17.942 1.107-36.398 8-53 9.306-22.415 27.88-41.25 49.5-52 1.201-1.768-3.204-.222-2-2 1.123-1.658 26.596-8.163 30.5-9z"/><path fill="#abb2b7" d="M359 357c-7.882 12.127-15.625 28.209-20 42l-20 2c3.708-12.486 6.969-24.113 13-36 1.696-3.343 4.076-6.752 6-10z"/><path fill="#038ca9" d="M538 364c-.34 1.073-.672 1.592-1 3-97.644-28.57-164.504 102.629-79 162l-4 7c-23.199-14.797-41.796-40.003-45-68-7.019-61.33 43.139-114.899 104.5-113-14.315 6.696 22.07 2.207 24.5 9"/><path fill="#027385" d="M379 362c-18.531 25.155-28.755 51.669-31 83-.079 1.108.03 1.267 0 2h-6c1.085-34.248 12.633-63.09 33-90-.504 2.4 1.187 5 4 5"/><path fill="#39d6eb" d="M537 367c-.423 1.82-1.77 3.835-2 6-19.69-4.524-38.178-3.573-57 4-21.588 8.686-39.64 28.085-47 50-23.558 70.146 44.988 132.146 112.5 105 37.388-15.033 59.527-61.285 48.5-100 1.157-.117 4.941-1.531 7-2 5.481 20.401 3.128 45.773-6 65-23.955 50.46-89.7 65.455-135 34-85.504-59.371-18.644-190.57 79-162"/><path fill="url(#f)" d="M535 373c-1.328 12.483.996 21.428 6 32.5.815 1.803 6.995 8.43 7 9 .005.541-5.371 4.988-6 9-1.778 11.347 9.845 27.849 22.5 25.5 11.339-2.104 8.727-18.631 10-19 .846-.245 12.569 2.498 17.5 2 11.027 38.715-11.112 84.967-48.5 100-67.512 27.146-136.058-34.854-112.5-105 31.217 57.751 77.291-15.683 47-50 18.822-7.573 37.31-8.524 57-4" style="fill:url(#f)"/>/&gt;<path fill="#006c87" d="m425 392-11-3c.155-.227-.157-.775 0-1 4.508-6.451 9.289-11.612 15-17l7 8.5c-4.619 4.364-7.871 7.443-11 12.5"/><path fill="#14415c" d="M662 429c-2.707-2.061-9.596-2.76-13-4-1.917-10.91-18.536-14.668-26-7.5 9.192-11.251 15.539-21.367 16-36.5 3.688 5.008 1.003-5.33 2.5-6 11.017 15.299 18.675 35.258 20.5 54"/><path fill="#005771" d="M431 427c7.36-21.915 25.412-41.314 47-50 30.291 34.317-15.783 107.751-47 50"/><path fill="#005a80" d="M414 388c-.157.225.155.773 0 1-5.116 7.503-8.988 13.186-13 21.5-1.215 2.518-4.441 15.375-5 16-1.92 2.146-5.676 1.397-9 2.5 1.676-16.9 9.684-31.397 19-45z"/><path fill="#182736" d="M687 550c-8.103 9.527-13.878 20.976-22 30.5-56.925 66.749-152.685 91.735-232 55.5 82.977 30.775 172.65 11.319 230-57 41.062-48.915 54.766-114.992 39-177-1.363-5.362-3.127-11.818-5-17 23.678 54.331 13.093 112.247-10 165"/><path fill="#085373" d="M661 386c4.551 9.985 8.541 20.272 11 31-2.591 2.837 1.946 9.997 1 12.5-.224.592-3.213-.005-4 3-.592 2.259 2.154 15.712 2 19-.891 19.002-2.462 33.22-8 51.5-2.004-.221-2.766-.925-5 0 .097-.303-.093-.696 0-1 3.713-12.13 7.365-24.66 8-37.5.245-4.959-.552-31.283-2-34.5 4.817.52 4.116-.533 4-4.5-.148-5.053-9.372-30.743-12-36.5z"/><path fill="#0080a0" d="M425 392c-2.259 3.651-7.433 13.016-10 18.5-.178.381-3.362 6.353 0 5.5-6.893 16.602-9.915 35.058-8 53 1.107 10.369 6.132 25.711 11 35-1.584.304-10.791 5.896-11 6.5-.389 1.124 12.445 14.618 11 19-.535 1.621-5.23 1.581-4 5.5-25.585-30.956-34.533-65.943-28-106 .299-.101.7.1 1 0 3.324-1.103 7.08-.354 9-2.5.559-.625 3.785-13.482 5-16 4.012-8.314 7.884-13.997 13-21.5z"/><path fill="#708e93" d="M702 402c15.766 62.008 2.062 128.085-39 177l-17-12.5c40.544-45.157 51.213-110.747 35-168.5 4.252 2.313 15.803 1.245 21 4"/><path fill="#353e46" d="M339 399c-2.663 8.395-4.749 17.26-6 26-1.432 10.003-2.157 18.843-2 29 .275 17.787 2.982 33.074 8 50l-20 6c-5.794-19.528-9.179-38.542-10-59 .999-20.282 4.421-31.212 10-50z"/><path fill="#0c83ab" d="M668 505c.513-3.121-2.646-1.741-5-2 5.538-18.28 7.109-32.498 8-51.5.154-3.288-2.592-16.741-2-19 .787-3.005 3.776-2.408 4-3 .946-2.503-3.591-9.663-1-12.5 7.253 31.645 5.76 57.23-4 88"/><path fill="#a1c7d3" d="m552.5 418 13.5 9.5c-3.767.51-14.045-5.249-13.5-9.5"/><path fill="#02829f" d="M625 449v28c-5.091 1.405-5.792 10.77-11 10.5 1.831-4.583 4.573-12.295 5-17 .078-.854 1.147-8.63-2-7-.685 8.143-1.739 18.809-4 26.5-.524 1.783-.964 1.894-1 2-1.783-5.698-1.42-2.596-7-3 6.302-19.536 8.096-42.343 2-62 3.778-1.452 6.443-3.512 10-4.5-5.813 8.436-3.453 23.947 8 26.5"/><path fill="#61777d" d="M331 454c-.157-10.157.568-18.997 2-29 4.523.128 4.665.782 5 4.5.104 1.15-1.473 21.973-2 23-.21.409-3.972 1.282-5 1.5"/><path fill="#30839c" d="M662 429c.282.215 1.954.898 2 1 1.448 3.217 2.245 29.541 2 34.5-.635 12.84-4.287 25.37-8 37.5l-15-3c1.549-5.827 6.115-15.552-3-17a42 42 0 0 1-1-2c-.83-1.748-3.86-3.903-4-4.5-1.753-7.47 2.234-18.587 1-26.5 6.79-2.025 14.322-16.475 13-24 3.404 1.24 10.293 1.939 13 4"/><path fill="#4fd9ec" d="M605 489c-17.957 55.667-79.975 82.163-134 62-19.671-7.341-43.191-28.282-53-47-4.868-9.289-9.893-24.631-11-35l2-1c3.204 27.997 21.801 53.203 45 68 50.362 32.122 118.248 17.301 144-38 10.534-22.62 12.581-45.578 7-70 .777-.271 1.231-.704 2-1 6.096 19.657 4.302 42.464-2 62"/><path fill="#069ebd" d="m598 498-5-3c9.128-19.227 11.481-44.599 6-65 2.136-.486 3.971-1.292 6-2 5.581 24.422 3.534 47.38-7 70"/><path fill="url(#g)" d="M386 429c-6.533 40.057 2.415 75.044 28 106 14.469 17.507 30.801 29.633 52 38 3.201 1.264 13.542 5.454 16 6 9.111 6.991 25.615 5.705 37.5 6l-2 5c34.495-.227 76.455-19.501 98.5-46l3 2.5c.523-3.01 4.761-4.754 6-7 2.383-4.319.805-7.647 1-8 6.322-11.472 13.211-18.247 17-32.5l15 3c-.093.304.097.697 0 1-25.623 80.353-112.241 123.91-193 101-36.462-10.343-73.106-39.248-92-72-10.493-18.188-26.99-67.346-20-87 .448-1.261.081-.842 1-2 3.007-3.788 26.251-12.061 32-14" style="fill:url(#g)"/>/&gt;<path fill="#016e92" d="M353 445c-6.99 19.654 9.507 68.812 20 87l-4 2c-15.791-27.385-22.302-55.435-21-87 .03-.733-.079-.892 0-2z"/><path fill="#19a0c2" d="M348 447c-1.302 31.565 5.209 59.615 21 87 4.518 7.835 12.096 19.312 18 26-4.47-2.613-2.813.952-2 4-30.369-33.707-44.452-71.182-43-117z"/><path fill="#026f8e" d="M636 449c1.234 7.913-2.753 19.03-1 26.5.14.597 3.17 2.752 4 4.5-4.035-2.454-9.115-4.348-14-3v-28c1.135.253 10.087.272 11 0"/><path fill="#162432" d="M319 510c8.61 29.02 19.328 47.226 39 70 3.142 3.637 5.567 6.55 9 10 11.985 12.042 22.594 20.857 37 30 8.03 5.096 20.442 12.09 29 16-75.287-27.923-127.972-104.393-124-185 .821 20.458 4.206 39.472 10 59"/><path fill="#fcfdfe" d="M625 477c4.885-1.348 9.965.546 14 3 .316.665.652 1.36 1 2 1.381 2.54 4.146 3.221 4 6.5-.08 1.787-14.706 30.765-16 32-2.985 2.851.836-9.36 1-10.5.035-.244 1.998-4.254 2-4.5.073-8.756-9.24-17.747-18-15.5 2.261-7.691 3.315-18.357 4-26.5 3.147-1.63 2.078 6.146 2 7-.427 4.705-3.169 12.417-5 17 5.208.27 5.909-9.095 11-10.5"/><path fill="#7fd8f0" d="M643 499c-3.789 14.253-10.678 21.028-17 32.5-.195.353 1.383 3.681-1 8-1.239 2.246-5.477 3.99-6 7l-3-2.5c5.546-6.666 13.104-14.143 3-20 3.271-4.586 5.1-10.643 10-14-.164 1.14-3.985 13.351-1 10.5 1.294-1.235 15.92-30.213 16-32 .146-3.279-2.619-3.96-4-6.5 9.115 1.448 4.549 11.173 3 17"/><path fill="#0e2845" d="M179 488c1.032 1.154 1.82 2 3 3-9.876-1.395-38.577-2.118-47 1-9.407 3.483-11.942 11.452-15 20-4.268 11.93-7.081 28.797-8 41.5-.86 11.891-1.445 77.874 11.5 81.5 6.767 1.895 7.269-4.349 9.5-7 10.52-12.503 10.958-26.755 16-42-.252 8.134.276 16.151-1 24.5-.772 5.052-9.43 32.953-8 34 1.099.805 1.892.752 3 0 5.671-3.851 17.847-59.754 14.5-62.5l-7.5 2c.943-2.442 2.534-1.043 3-4 1.579.193 3.544-.289 5 0 6.608 1.309 11.941 9.886 18.5 11 15.078 2.56 16.273-7.812 28.5-10 .043.28 3.63 2.719 4 4 .034 18.009-5.517 56.006-18 70-.282.316-1.743 1.781-2 2-7.528 6.421-40.109 6.572-50.5 5-15.268-2.31-19.523-15.685-23.5-28.5-10.118-32.606-11.496-90.151 1-122 13.036-33.225 33.382-21.583 63-23.5"/><path fill="#29bedb" d="M612 492c-1.108 3.287-2.376 8.04-4 11-5.38 9.804-28.132 31.679-37.5 39-11.048 8.634-30.973 16.516-39.5 24-3.592 3.153-6.349 8.56-8 13-12.461 1.061-30.24 2.389-41 0-2.458-.546-12.799-4.736-16-6l5-22c54.025 20.163 116.043-6.333 134-62 5.58.404 5.217-2.698 7 3"/><path fill="#7ad2eb" d="M629 510c-4.9 3.357-6.729 9.414-10 14-23.512 32.965-55.688 51.567-96 55 1.651-4.44 4.408-9.847 8-13 17.419-2.283 35.93-11.045 49.5-22 11.622-9.382 26.168-25.736 27.5-41 1.624-2.96 2.892-7.713 4-11 .036-.106.476-.217 1-2 8.76-2.247 18.073 6.744 18 15.5-.002.246-1.965 4.256-2 4.5"/><path fill="#133b59" d="M875 659c-.154-1.718 1.181-4.576 2-6 21.783-37.843 25.59-96.285 9-137-1.116-2.738-4.408-9.921-6-12-.058-6.875-5.523-10.974-12-12-6.887-1.091-20.384-.139-28 0-.89-1.932 4.181-2.779 6-3 8.414-1.024 23.397-.657 30.5 4 29.538 19.367 30.562 149.322-1.5 166"/><path fill="#b4c8d1" d="M182 491c2.702.382 3.625 1.081 6 2-.327 3.345 4.948 8.418 7 11 2.587 9.316 6.927 18.554 9 28l-49-7c-.368-1.393-1.681-7.917-2.5-8l-3.5 3c-2.593-10.509-6.373-20.076-14-28 8.423-3.118 37.124-2.395 47-1"/><path fill="#91a3a8" d="M135 492c7.627 7.924 11.407 17.491 14 28 3.463 14.034 6.192 46.09 4 60-.466 2.957-2.057 1.558-3 4-.298.772-.741 1.216-1 2 .517-16.706 1.587-64.178-10.5-76-4.016-3.928-7.109-4.904-11.5-3-3.436 1.49-4.208 2.951-7 5 3.058-8.548 5.593-16.517 15-20"/><path fill="#b6cad2" d="M840 492c7.616-.139 21.113-1.091 28 0-7.814 9.36-12.221 20.708-15 32.5-1.708 7.249.043 25.187-7 27.5.101-3.685 2.865-23.019 1.5-24l-25.5 7c.817-14.727 2.259-26.293 4-40 .284-2.237.994-2.842 1-3 3.935.728 8.839.076 13 0"/><path fill="#9cb6bf" d="M880 504c-7.098-9.269-10.454-6.194-15 3-2.249-.299-3.547 4.006-4 5.5-7.042 23.201-4.528 45.525-6 69-.119 1.903.566 3.76-2 4.5-1.016-4.707-.684-5.636-6-5-1.633-9.39-1.261-19.503-1-29 7.043-2.313 5.292-20.251 7-27.5 2.779-11.792 7.186-23.14 15-32.5 6.477 1.026 11.942 5.125 12 12"/><path fill="#1db8d6" d="M598 498c-25.752 55.301-93.638 70.122-144 38l4-7c45.3 31.455 111.045 16.46 135-34z"/><path fill="#265d81" d="M822 535c-.151 2.727-.823 5.512-1 8 2.118-11.832-3.126-31.247 0-42 .612-2.103 2.863-5.006 5-6-1.741 13.707-3.183 25.273-4 40"/><path fill="#eef0f1" d="M880 504c1.592 2.079 4.884 9.262 6 12 5.911 33.461 12.242 67.698 1.5 101 .593-12.96 3.664-25.388 3.5-38.5-.21-16.791-7.198-35.917-8-53-2.848-5.605-3.189-12.514-8.5-16.5-3.41-.019-8.117 26.745-7.5 30.5-9.677-6.144-6.795-22.8-2-32.5 4.546-9.194 7.902-12.269 15-3"/><path fill="#059dc2" d="M663 503c-25.803 85.178-117.547 130.175-202 104 2.942.554 2.927-.661 4-3 80.759 22.91 167.377-20.647 193-101 2.234-.925 2.996-.221 5 0"/><path fill="#4b5b61" d="M339 504c6.349 21.418 18.811 44.735 33 62l-14 14c-19.672-22.774-30.39-40.98-39-70z"/><path fill="#10a6c6" d="M418 504c9.809 18.718 33.329 39.659 53 47l-5 22c-21.199-8.367-37.531-20.493-52-38-1.23-3.919 3.465-3.879 4-5.5 1.445-4.382-11.389-17.876-11-19 .209-.604 9.416-6.196 11-6.5"/><path fill="#8fe2f5" d="M531 566c8.527-7.484 28.452-15.366 39.5-24 9.368-7.321 32.12-29.196 37.5-39-1.332 15.264-15.878 31.618-27.5 41-13.57 10.955-32.081 19.717-49.5 22"/><path fill="#44c8e6" d="M668 505c-38.953 122.801-196.767 154.709-283 59-.813-3.048-2.47-6.613 2-4 18.926 21.44 46.886 38.596 74 47 84.453 26.175 176.197-18.822 202-104 2.354.259 5.513-1.121 5 2"/><path fill="#0d3f5a" d="M149 586c-5.042 15.245-5.48 29.497-16 42l-1-1c10.33-19.224 11.53-66.433 8-88-2.237-13.665-3.478-16.116-11-27-1.355-1.961-.794-3.129-2-5 4.391-1.904 7.484-.928 11.5 3 12.087 11.822 11.017 59.294 10.5 76"/><path fill="#016e80" d="M127 507c1.206 1.871.645 3.039 2 5-1.869.913-1.712 2.618-2 3-6.63 8.807-8.974 23.236-9 34-1.279 9.745-2.597 84.056 9.5 84 1.7-1.67 3.397-3.948 4.5-6l1 1c-2.231 2.651-2.733 8.895-9.5 7-12.945-3.626-12.36-69.609-11.5-81.5.919-12.703 3.732-29.57 8-41.5 2.792-2.049 3.564-3.51 7-5"/><path fill="#648591" d="M865 507c-4.795 9.7-7.677 26.356 2 32.5-.617-3.755 4.09-30.519 7.5-30.5 5.311 3.986 5.652 10.895 8.5 16.5.802 17.083 7.79 36.209 8 53 .164 13.112-2.907 25.54-3.5 38.5 10.742-33.302 4.411-67.539-1.5-101 16.59 40.715 12.783 99.157-9 137-7.51 4.757-9.939.673-14-5-1.979-15.279-6.414-30.245-9-45.5-.805-4.751-.131-12.475-1-16.5 2.566-.74 1.881-2.597 2-4.5 1.472-23.475-1.042-45.799 6-69 .453-1.494 1.751-5.799 4-5.5m-5 39c.709 6.412-2.933 7.022-3 7.5-.413 2.94-1.292 28.979-1 31 .697 4.82 6.875 9.128 8 14l2-1c-.592-7.536-1.06-14.924-1-22.5.115-14.437 3.34-27.988-5.5-40-2.566 5.138-.552 6.743.5 11m.5 59c-.249 3.828 6.663 50.102 11 49-4.047-15.764-3.835-34.271-11-49"/><path fill="#ebf2f4" d="m140 539-4 7.5c-.992-9.441-3.049-17.895-7-26.5-.736-1.604-1.996-3.115-2-5 .288-.382.131-2.087 2-3 7.522 10.884 8.763 13.335 11 27"/><path fill="#56c3c4" d="M129 520c-6.805 4.196-9.921 20.776-11 29 .026-10.764 2.37-25.193 9-34 .004 1.885 1.264 3.396 2 5"/><path fill="#bfced4" d="M155 525c4.459 16.88 4.67 37.685 3 55-1.456-.289-3.421.193-5 0 2.192-13.91-.537-45.966-4-60l3.5-3c.819.083 2.132 6.607 2.5 8"/><path fill="#668a95" d="M129 520c3.951 8.605 6.008 17.059 7 26.5l4-7.5c3.53 21.567 2.33 68.776-8 88-1.103 2.052-2.8 4.33-4.5 6-12.097.056-10.779-74.255-9.5-84 1.079-8.224 4.195-24.804 11-29"/><path fill="#b9f1fd" d="M616 544c-22.045 26.499-64.005 45.773-98.5 46l2-5c-11.885-.295-28.389.991-37.5-6 10.76 2.389 28.539 1.061 41 0 40.312-3.433 72.488-22.035 96-55 10.104 5.857 2.546 13.334-3 20"/><path fill="#708f9a" d="M204 532c.692 3.154 1.493 6.851 2 10-3.743 2.884-.185 14.157 0 18.5.222 5.217-1.479 17.375-1 20.5-12.227 2.188-13.422 12.56-28.5 10-6.559-1.114-11.892-9.691-18.5-11 1.67-17.315 1.459-38.12-3-55z"/><path fill="#7a98a3" d="M846 552c-.261 9.497-.633 19.61 1 29-.07.008.387.489-1 1-1.202.443-20.047 13.144-21 14-6.266-8.791-1.792-18.446-4-28 .7-8.155-.582-16.81 0-25 .177-2.488.849-5.273 1-8l25.5-7c1.365.981-1.399 20.315-1.5 24"/><path fill="#0381a6" d="M373 532c18.894 32.752 55.538 61.657 92 72-1.073 2.339-1.058 3.554-4 3-27.114-8.404-55.074-25.56-74-47-5.904-6.688-13.482-18.165-18-26z"/><path fill="#d0dadc" d="m865 575-5-19.5c1.35-3.449 3.098 3.636 3.5 3.5 1.563-.53-3.039-11.134-3.5-13-1.052-4.257-3.066-5.862-.5-11 8.84 12.012 5.615 25.563 5.5 40"/><path fill="#97a0a5" d="M206 542c2.14 13.298 2.975 29.541 3 43-.37-1.281-3.957-3.72-4-4-.479-3.125 1.222-15.283 1-20.5-.185-4.343-3.743-15.616 0-18.5"/><path fill="#95a7af" d="M865 575c-.06 7.576.408 14.964 1 22.5l-2 1c-1.125-4.872-7.303-9.18-8-14-.292-2.021.587-28.06 1-31 .067-.478 3.709-1.088 3-7.5.461 1.866 5.063 12.47 3.5 13-.402.136-2.15-6.949-3.5-3.5z"/><path fill="#61777d" d="M376 569c2.03 2.31 3.646 5.618 6 8l-15 13c-3.433-3.45-5.858-6.363-9-10l14-14c.592.721 3.342 2.251 4 3"/><path fill="#0b4363" d="M825 596c-1.469 1.32-.866 1.838-1 2-4.057 4.905-11.668 28.293-16 36.5-15.427 29.228-37.06 54.065-62 75.5-2.243-.045-4.474.799-4-2 29.541-25.152 66.424-72.804 75-111 2.006-8.936 1.23-14.337 2-22 .145-1.446 1.879-5.589 2-7 2.208 9.554-2.266 19.209 4 28"/><path fill="#708e93" d="M404 620c-14.406-9.143-25.015-17.958-37-30l15-13c9.268 9.377 21.248 17.833 32 25.5 1.198 4.392-12.549 11.772-10 17.5"/><path fill="#438091" d="M853 586c.869 4.025.195 11.749 1 16.5 2.586 15.255 7.021 30.221 9 45.5-11.525-16.097-13.158-46.918-17-66 1.387-.511.93-.992 1-1 5.316-.636 4.984.293 6 5"/><path fill="#0f2e4d" d="M149 586c.259-.784.702-1.228 1-2l7.5-2c3.347 2.746-8.829 58.649-14.5 62.5-1.108.752-1.901.805-3 0-1.43-1.047 7.228-28.948 8-34 1.276-8.349.748-16.366 1-24.5"/><path fill="#0e2947" d="M863 648c4.061 5.673 6.49 9.757 14 5-.819 1.424-2.154 4.282-2 6-8.647 4.498-40.178 5.264-48-1-3.032-2.428-6.585-9.423-7-13.5l-4 1.5c1.11-6.667 3.996-17.557 1-23 2.546-8.216 6.297-16.308 7-25 .134-.162-.469-.68 1-2 .953-.856 19.798-13.557 21-14 3.842 19.082 5.475 49.903 17 66"/><path fill="#8dbacf" d="M817 597c-8.576 38.196-45.459 85.848-75 111-37.634 32.043-85.233 53.232-133 65-1.46-1.344-3.385-2.832-5-4l-.5-3c90.939-23.589 177.573-85.363 209.5-176.5l2-1z"/><path fill="#f8fafb" d="M817 623c-15.821 51.054-18.383 79.961-50 126 7.213-18.23 19.368-35.574 25-54.5 1.439-4.837 2.714-6.966 0-11.5.995-2.53 12.129-32.412 10.5-33-38.298 64.466-94.502 99.655-164 123-6.894 2.316-19.487 3.31-25.5 6-.161-.648-.641-1.482-1-2 50.146-12.224 94.936-33.426 134-67 24.94-21.435 46.573-46.272 62-75.5 4.332-8.207 11.943-31.595 16-36.5-.703 8.692-4.454 16.784-7 25"/><path fill="#859fa7" d="M860.5 605c7.165 14.729 6.953 33.236 11 49-4.337 1.102-11.249-45.172-11-49"/><path fill="#bbd2dc" d="M816 646c-13.675 82.153-45.552 139.536-111 191 1.022-6.57-3.945-7.888-4-14 16.133-12.802 32.16-28.229 44-45 8.149-8.941 15.172-19.057 22-29 31.617-46.039 34.179-74.946 50-126 2.996 5.443.11 16.333-1 23"/><path fill="#2c4e5c" d="M827 658c-1.82-.6-2.629 2.28-3 3.5-30.317 99.594-86.297 176.465-183 220.5-84.426 38.445-178.288 38.479-263 1-95.381-42.199-162.61-125.534-189-226 .257-.219 1.718-1.684 2-2l11 36.5c1.67-6.257 3.694-3.335 4-3.5-3.102 3.252 2.342 14.495 4 18.5C290.93 902.031 536.839 969.231 705 837c65.448-51.464 97.325-108.847 111-191l4-1.5c.415 4.077 3.968 11.072 7 13.5"/><path fill="url(#h)" d="M792 683c-15.713 39.967-38.3 76.855-64 111-63.312 55.311-141.717 76.86-225 67v-2c31.414 3.06 51.616 3.087 71-23 9.015-12.132 28.494-52.299 39-57 6.013-2.69 18.606-3.684 25.5-6 69.498-23.345 125.702-58.534 164-123 1.629.588-9.505 30.47-10.5 33" style="fill:url(#h)"/>/&gt;<path fill="#8cb0bf" d="M701 823c.055 6.112 5.022 7.43 4 14-168.161 132.231-414.07 65.031-495-130.5-1.658-4.005-7.102-15.248-4-18.5 1.242-.668 8.608-4.815 9-4.5C290.696 879.245 530.863 958.004 701 823"/><path fill="#d5e7f0" d="M767 749c-6.828 9.943-13.851 20.059-22 29-4.65 5.102-11.707 11.376-17 16 25.7-34.145 48.287-71.033 64-111 2.714 4.534 1.439 6.663 0 11.5-5.632 18.926-17.787 36.27-25 54.5"/><path fill="#04253d" d="M742 708c-.474 2.799 1.757 1.955 4 2-39.064 33.574-83.854 54.776-134 67-.663-.958-2.35-3.402-3-4 47.767-11.768 95.366-32.957 133-65"/><path fill="#2f070e" d="M604 769c1.615 1.168 3.54 2.656 5 4 .65.598 2.337 3.042 3 4 .359.518.839 1.352 1 2-10.506 4.701-29.985 44.868-39 57-39.717 23.557-86.954 17.891-126-4-12.418-17.606-19.809-39.03-37-52.5 5.371-7.211 14.151-10.459 20-17 15.704-17.561 11.242-30.942 38.5-42.5 33.396-14.161 83.094-12.311 107.5 17.5 13.673 16.701 6.982 17.022 27 31.5m-104-48c-7.379-4.302-13.149-.542-20 2-6.484 2.406-4.846 2.896-7 4-2.444 1.252-4.65 2.625-7 4-6.217 3.637-16.068 7.281-21 12.5-3.429 3.629-17.261 28.131-17 32.5.555 9.285 13.816 7.627 17 15-2.668.319-16.096-.008-17 2.5 11.871 19.731 32.647 34.865 55 40.5 19.392 13.708 82.23 3.749 98-14.5 5.405-6.255 9.049-19.118 16-25 .406-3.578-12.795-5.054-16-5.5.127-.051-.405-1.62.5-2 6.397-2.687 14.838-.519 14.5-10-.188-5.277-12.929-30.011-17.5-31-.225-.049-2.604 1.926-4.5 1-.025-.329.051-.679 0-1-.14-.876 1.927-.695-1-5-3.007-4.422-11.681-9.791-16.5-12-9.818-4.5-49.341-17.55-58-13z"/><path fill="#6b2931" d="m573 741 1 5c.051.321-.025.671 0 1 .126 1.668-1.71 4.9 1.5 8l-1.5-8c1.896.926 4.275-1.049 4.5-1 4.571.989 17.312 25.723 17.5 31-27.642 12.69-56.167-2.574-78.5-19-31.197 7.406-56.175 35.334-89.5 18-.261-4.369 13.571-28.871 17-32.5 4.932-5.219 14.783-8.863 21-12.5-.46 2.819 15.64-3.621 7-4 2.154-1.104.516-1.594 7-4-1.224 5.773 23.173 1.846 23-.5-.961-.558-2.043-.942-3-1.5l-1.5-5c8.659-4.55 48.182 8.5 58 13 4.819 2.209 13.493 7.578 16.5 12m-56.5-19 52.5 24.5c-8.624-17.387-34.709-22.54-52.5-24.5"/><path fill="#fbfafa" d="M500 721c.957.558 2.039.942 3 1.5.173 2.346-24.224 6.273-23 .5 6.851-2.542 12.621-6.302 20-2"/><path fill="#fdfcfc" d="M516.5 722c17.791 1.96 43.876 7.113 52.5 24.5z"/><path fill="#ece6ea" d="M466 731c2.35-1.375 4.556-2.748 7-4 8.64.379-7.46 6.819-7 4"/><path fill="#eee7e8" d="m574 746-1-5c2.927 4.305.86 4.124 1 5"/><path fill="#ede3e4" d="m574 747 1.5 8c-3.21-3.1-1.374-6.332-1.5-8"/><path fill="#49151f" d="M596 777c.338 9.481-8.103 7.313-14.5 10-.905.38-.373 1.949-.5 2-4.952-.689-18.225-2.55-22.5-1-.973.353.296 1.803-1.5 3-13.711.906-27.27 8.214-41 9l-34.5-9c-13.469-1.717-23.141-1.596-36.5 0-3.184-7.373-16.445-5.715-17-15 33.325 17.334 58.303-10.594 89.5-18 22.333 16.426 50.858 31.69 78.5 19m-87.5-5c-1.601.217-28.738 10.991-30 12-.792.633-2.484 2.257-1 3 13.19-1.461 27.04 8.653 40 8 9.089-.458 21.173-7.803 30.5-9.5-15.12-1.989-23.619-15.654-39.5-13.5"/><path fill="#180b1d" d="M508.5 772c15.881-2.154 24.38 11.511 39.5 13.5-9.327 1.697-21.411 9.042-30.5 9.5-12.96.653-26.81-9.461-40-8-1.484-.743.208-2.367 1-3 1.262-1.009 28.399-11.783 30-12"/><path fill="#722e38" d="M581 789c-.116.047-.532 1.613-1.5 2l-9.5.5 15 3c-20.993 37.811-68.269 53.486-107.5 33.5.777.894 5.168 5.765 5.5 6-22.353-5.635-43.129-20.769-55-40.5.904-2.508 14.332-2.181 17-2.5 13.359-1.596 23.031-1.717 36.5 0l34.5 9c-7.65.438-15.622-2.263-21.5-2-1.648.074-3.442-.322-2 2 10.646.504 35.717 9.885 45 8 4.841-.983 14.485-13.657 19.5-17 1.796-1.197.527-2.647 1.5-3 4.275-1.55 17.548.311 22.5 1"/><path fill="#581f28" d="M483 834c-.332-.235-4.723-5.106-5.5-6 39.231 19.986 86.507 4.311 107.5-33.5l-15-3 9.5-.5c.968-.387 1.384-1.953 1.5-2 3.205.446 16.406 1.922 16 5.5-6.951 5.882-10.595 18.745-16 25-15.77 18.249-78.608 28.208-98 14.5"/><path fill="#c996a0" d="M557 791c-5.015 3.343-14.659 16.017-19.5 17-9.283 1.885-34.354-7.496-45-8-1.442-2.322.352-1.926 2-2 5.878-.263 13.85 2.438 21.5 2 13.73-.786 27.289-8.094 41-9"/><path fill="#41515e" d="M574 836c-19.384 26.087-39.586 26.06-71 23-26.312-2.563-39.972-5.693-55-27 39.046 21.891 86.283 27.557 126 4"/></svg>