<svg xmlns="http://www.w3.org/2000/svg" width="1024" height="1024"><defs><linearGradient id="a" x1="418.559" x2="737.297" y1="343.109" y2="475.135" gradientUnits="userSpaceOnUse"><stop offset="0%" style="stop-color:#9bc8d8"/><stop offset="100%" style="stop-color:#71aabd"/></linearGradient></defs><defs><linearGradient id="b" x1="330.576" x2="625.341" y1="364.438" y2="801.294" gradientUnits="userSpaceOnUse"><stop offset="18.786%" style="stop-color:#c5e3ee"/><stop offset="70.398%" style="stop-color:#81b9cd"/><stop offset="100%" style="stop-color:#498fa6"/></linearGradient></defs><defs><linearGradient id="c" x1="599.651" x2="713.493" y1="504.372" y2="520.648" gradientUnits="userSpaceOnUse"><stop offset="0%" style="stop-color:#25385e"/><stop offset="100%" style="stop-color:#0e779e"/></linearGradient></defs><defs><linearGradient id="d" x1="327.05" x2="534.049" y1="510.467" y2="723.446" gradientUnits="userSpaceOnUse"><stop offset="0%" style="stop-color:#cfeaf3"/><stop offset="100%" style="stop-color:#9ac4d3"/></linearGradient></defs><defs><linearGradient id="e" x1="553.579" x2="475.422" y1="690.514" y2="728.729" gradientUnits="userSpaceOnUse"><stop offset="0%" style="stop-color:#805b75"/><stop offset="100%" style="stop-color:#ae8ca2"/></linearGradient></defs><defs><linearGradient id="f" x1="487.953" x2="565.339" y1="749.664" y2="759.432" gradientUnits="userSpaceOnUse"><stop offset="0%" style="stop-color:#b38fa5"/><stop offset="100%" style="stop-color:#825f7b"/></linearGradient></defs><path fill="#023345" d="M680 839c-3.879 2.403-8.017 4.776-12 7-97.566 54.471-208.359 54.638-308 5a280 280 0 0 1-20-11c-63.537-38.435-114.829-105.306-145-172.5-6.961-15.504-15.193-48.511-22-60-3.309-5.585-26.777-23.382-34-32-49.196-58.703-43.659-117.757 0-177 4.186-5.68 20.167-20.212 22-24 4.543-9.388 8.669-38.111 13-51 104.122-309.886 557.735-325.167 667-13 5.795 16.557 11.147 53.203 17 65 2.081 4.195 15.939 14.88 20 20 45.311 57.128 46.771 116.412 2 175-6.984 9.139-31.184 27.915-34 33-5.255 9.489-10.791 36.337-16 49-30.753 74.754-80.63 143.529-150 186.5M159 403c-3.173 22.278-4.871 45.98-5 69.5-.351 1.009-2.764.243-3 .5-1.808-16.784.345-34.213 2-51 .193-1.956-.209-4.048 0-6 1.301-12.179 3.796-25.648 7-37.5-6.538 3.926-10.475 10.685-15 16.5-7.736 9.942-14.229 19.792-20 31-9.347 18.152-17.025 36.092-18 57-.496 10.643.029 21.247 3 31.5.855 1.178 23.586-1.062 27-1.5 2.518-.323 14.481-.972 15-2.5-.67-6.531-4.053-29.137-2-34 .536-1.271 3.244-2.328 4-1 .742 1.304.602 25.854 1 30 3.925 40.87 12.516 80.831 26 119.5 80.252 230.142 336.75 352.98 538 180 95.237-81.859 144.358-218.876 144-343-.442-152.992-70.862-293.12-218-350-227.824-88.071-452.222 53.797-486 291m712 17c-1.264-.003-5.346-.423-6 .5l2 43c1.432.372 2.674.996 4 1.5l-1 9c-1.565.29-2.789-.502-4 1.5 4.117 7.987-3.156 27.564-2 34 .74 4.12 1.782 2.192 5 2.5 0 1.787-2.733 1.914-3 2.5-2.752 6.026-2.556 29.97-7 38 1.143 1.902 31.206-11.134 34-13.5 5.762-4.879 9.821-19.586 12-27 .076-.259 2.488-2.366 3-4.5.183-.761-2.022-.399-2-.5 2.064-9.54 5.945-19.775 3-30l1-1c-1.543-19.132-8.345-35.831-18-52-8.585-14.378-19.373-27.546-31.5-39 1.013 4.364 2.332 27.714 3.5 29.5.458.7 7.79 1.554 7 5.5m-734 95c-8.273.308-16.273 1.307-24.5 2-.851.421-.475 2.055-.5 3-.074 2.75 8.286 18.881 11 21 5.012 3.913 13.991 5.867 20 8 2.336.829 12.267 7.062 14 4.5l-6.5-39.5c-2.441-1.275-10.764.898-13.5 1m734.5 52c-1.608-.35-24.585 20.297-20 24 2.931-.828 27.518-22.362 20-24m-725 7c-2.671 1.561 9.712 14.761 12 15 .956-3.266-10.61-15.812-12-15"/><path fill="#add4e1" d="M645 112c-40.428 56.041-91.605 116.064-164.5 126-9.73 1.326-19.775.645-29.5 1-7.195.263-14.273.038-21.5 0l-.5 44.5c1.12 1.148 18.824-1.186 22-1.5 72.859-7.197 123.438-6.773 194 5l17 9.5c-1.382 5.31-20.756-3.963-21 3.5-107.224-18.606-230.007-15.309-333.5 20-19.357 6.604-62.788 24.088-77.5 37-7.956 4.715-5.606-.002-6.5 0-7.033.018-37.443 21.624-45.5 26 30.688-165.409 162.681-273.049 328-287.5-147.54 1.728-277.977 96.343-323 237-6.607 20.642-12.087 43.015-15 64.5-2.44-1.644-2.141-1.086-4 .5-2.457 2.097-2.744 8.996-5 5.5 33.778-237.203 258.176-379.071 486-291m-236.5 27c-29.11-.097-85.121 27.637-108 46-3.499 2.808-26.027 23.619-25.5 26.5.442 2.414 8.603 7.111 11.5 5.5 30.601-16.298 60.197-35.145 91-51 5.663-2.915 40.879-17.151 41.5-19.5 1.776-6.72-5.459-7.483-10.5-7.5m-147 87c-9.486.904-16.435 22.019-8 24 6.995 1.643 22.958-25.425 8-24m22.5 12c-18.752 18.781-13.317 45.804 12.5 53-5.003-6.202-13.469-7.177-17.5-15.5-10.855-22.41 10.131-44.111 33-43.5 25.073 5.422 30.209 40.735 9 55-7.128 3.26-12.886 5.45-21 5.5 42.955 17.173 64.183-51.612 19-62.5-14.306-3.447-24.526-2.491-35 8m-1 13c-4.93 11.681-1.981 24.088 9 31 9.439 5.941 14.264 6.449 24 1 6.056-3.389 10.398-8.178 12-15 2.311-9.841.513-17.04-7-24-11.834-10.962-31.648-8.051-38 7"/><path fill="#fcfdfd" d="M178 383c-20.559 110.813 1.127 231.462 51 331.5-45.212-74.957-62.974-168.059-64-255.5-.255-21.758.068-40.37 3-62 2.913-21.485 8.393-43.858 15-64.5 45.023-140.657 175.46-235.272 323-237C340.681 109.951 208.688 217.591 178 383"/><path fill="#5291a5" d="m863 462-18-6.5c2.402 111.3-29.548 226.343-103 311-3.957 4.561-28.895 26.952-29 29-.029.561 5.514 7.862 6 9.5-201.25 172.98-457.748 50.142-538-180 2.678-1.228 3.198-2.649 3-5.5-.91-13.099-12.945-41.322-16-57-2.831-14.529-5.766-35.294-7-50-.361-4.305-2.657-31.483-2-33 .249-.576 4.547-.956 5-2 .382-.88-4.784-15.929 1-18.5 1.026 87.441 18.788 180.543 64 255.5-49.873-100.038-71.559-220.687-51-331.5 8.057-4.376 38.467-25.982 45.5-26 .894-.002-1.456 4.715 6.5 0-44.518 39.07-28.69 183.813-16 237.5 3.018 12.769 7.487 27.162 12 39.5 10.5 38.589 29.436 80.011 53 112.5 44.539 61.409 120.617 101.066 195.5 109.5l-8 3c131.226 22.066 254.216-57.447 314.5-170.5 40.858-76.623 56.075-166.118 47-252.5-2.291-21.805-6.182-42.897-12-64-4.027-14.607-5.989-30.67-19.5-39-38.206-23.555-107.225-38.613-151.5-46-70.562-11.773-121.141-12.197-194-5v-43c9.725-.355 19.77.326 29.5-1 72.895-9.936 124.072-69.959 164.5-126 147.138 56.88 217.558 197.008 218 350M699 227c-45.874-1.59-43.417 68.895 5 63 40.555-1.342 34.657-66.612-5-63"/><path fill="#fdfefe" d="M408.5 139c5.041.017 12.276.78 10.5 7.5-.621 2.349-35.837 16.585-41.5 19.5-30.803 15.855-60.399 34.702-91 51-2.897 1.611-11.058-3.086-11.5-5.5-.527-2.881 22.001-23.692 25.5-26.5 22.879-18.363 78.89-46.097 108-46"/><path fill="#fcfefe" d="M261.5 226c14.958-1.425-1.005 25.643-8 24-8.435-1.981-1.486-23.096 8-24"/><path fill="#08364a" d="M704 290c8.335-1.015 14.486-6.149 19-13 13.721-20.824 1.017-49.133-24-50 39.657-3.612 45.555 61.658 5 63"/><path fill="#c3e1e7" d="M699 227c25.017.867 37.721 29.176 24 50 .438-.552 3.928-12.8 4-13.5 2.584-25.17-25.073-42.272-46.5-28.5-26.148 16.807-7.125 60.029 25 53 1.01-.221 16.858-10.19 17.5-11-4.514 6.851-10.665 11.985-19 13-48.417 5.895-50.874-64.59-5-63"/><path fill="#093b4e" d="M319 230c20.995 13.819 28.76 44.762 2 57 21.209-14.265 16.073-49.578-9-55-11.799-2.551-18.254-.448-28 6 10.474-10.491 20.694-11.447 35-8"/><path fill="#2f7488" d="M321 287c26.76-12.238 18.995-43.181-2-57 45.183 10.888 23.955 79.673-19 62.5 8.114-.05 13.872-2.24 21-5.5"/><path fill="#89ccdd" d="M723 277c-.642.81-16.49 10.779-17.5 11-32.125 7.029-51.148-36.193-25-53 21.427-13.772 49.084 3.33 46.5 28.5-.072.7-3.562 12.948-4 13.5m-40 2c28.247 30.712 62.665-38.845 20-45-28.469-4.107-43.046 28.47-20 45"/><path fill="#eef7f9" d="M312 232c-22.869-.611-43.855 21.09-33 43.5 4.031 8.323 12.497 9.298 17.5 15.5-25.817-7.196-31.252-34.219-12.5-53 9.746-6.448 16.201-8.551 28-6"/><path fill="#037399" d="M703 234c-2.715 4.17-9.807 1.002-13.5 2-4.409 1.191-3.601 5.79-6 8-.976.899-5.91 1.882-6.5 2.5-3.256 3.409-3.501 13.019-2 17.5.52 1.553 4.955 7.395 6 8-2.274 2.765.056 4.886 2 7-23.046-16.53-8.469-49.107 20-45"/><path fill="#01afd5" d="M683 279c-1.944-2.114-4.274-4.235-2-7 .238.138 3.752 1.333 4 .5-3.043-1.933-5.496-9.968-10-8.5-1.501-4.481-1.256-14.091 2-17.5.59-.618 5.524-1.601 6.5-2.5 2.399-2.21 1.591-6.809 6-8 3.693-.998 10.785 2.17 13.5-2 42.665 6.155 8.247 75.712-20 45"/><path fill="#00aad1" d="M321 244c-4.591 1.484-7.883 3.604-10 8-1.335 2.771-3.014 14.5-2 17.5.757 2.24 8.96 4.297 7 13.5-9.736 5.449-14.561 4.941-24-1-3.013-3.841-6.201-6.117-8-11l-1-17c.285-1.143 2.272-2.399 0-3 6.352-15.051 26.166-17.962 38-7"/><path fill="#89bbca" d="M451 239v43c-3.176.314-20.88 2.648-22 1.5l.5-44.5c7.227.038 14.305.263 21.5 0"/><path fill="#003556" d="M328 268c-2.503-7.796-12.246-6.719-17-16 2.117-4.396 5.409-6.516 10-8 7.513 6.96 9.311 14.159 7 24"/><path fill="#09658a" d="M283 254c-1.472 5.899-1.089 11.328 1 17 1.799 4.883 4.987 7.159 8 11-10.981-6.912-13.93-19.319-9-31 2.272.601.285 1.857 0 3"/><path fill="#007ca4" d="M328 268c-1.602 6.822-5.944 11.611-12 15 1.96-9.203-6.243-11.26-7-13.5-1.014-3 .665-14.729 2-17.5 4.754 9.281 14.497 8.204 17 16"/><path fill="#2bd4ee" d="M284 271c-2.089-5.672-2.472-11.101-1-17z"/><path fill="#dfeef8" d="M681 272c-1.045-.605-5.48-6.447-6-8 4.504-1.468 6.957 6.567 10 8.5-.248.833-3.762-.362-4-.5"/><path fill="#629db0" d="m816 372-36-23c-30.476-26.15-99.558-42.156-139-49 .244-7.463 19.618 1.81 21-3.5l-17-9.5c44.275 7.387 113.294 22.445 151.5 46 13.511 8.33 15.473 24.393 19.5 39"/><path fill="#023647" d="M641 300c39.442 6.844 108.524 22.85 139 49 .785.674 2.176 3.184 3 4-4.174 3.184-8.995-2.815-14-6-72.176-45.934-210.402-56.597-295-52-64.738 3.518-177.587 23.228-231.5 60-27.393 18.684-32.906 74.947-33.5 106-.066 3.436-.421 9.973 2 12-8.606 45.45 4.529 87.176 37 120l-2 1c-7.974-8.82-15.638-17.386-22-27.5l-15-31c10.319 125.169 88.136 251.753 209.5 295.5 189.67 68.368 335.101-74.316 377.5-248 .646-2.644 1.401-5.379 2-8 3.576-15.643 12.987-47.427 11-62.5-.519-3.936.026-1.598-3-1.5 2.437-16.786 2.573-26.371-1-43 6.52-4.615.123-20.028 1-26.5.497-3.67.682-2.422 4-2.5 13.4 140.573-33.707 301.932-161.5 377C477.591 916.396 288.511 804.903 226 634c-4.513-12.338-8.982-26.731-12-39.5-12.69-53.687-28.518-198.43 16-237.5 14.712-12.912 58.143-30.396 77.5-37 103.493-35.309 226.276-38.606 333.5-20"/><path fill="#25667a" d="M769 347c-2.775 1.36-4.036 3.26-2 6-58.515-45.719-216.956-55.553-290-55.5-2.487.002-3.345 1.839-3-2.5 84.598-4.597 222.824 6.066 295 52"/><path fill="url(#a)" d="M474 295c-.345 4.339.513 2.502 3 2.5 73.044-.053 231.485 9.781 290 55.5 19.674 15.372 28.47 57.888 31 82-15.865-23.227-31.7-47.493-56-63-3.448-20.587-26.104-17.692-43-23-23.244-7.302-44.183-16.729-68.5-22-103.507-22.437-286.62-13.174-378 45-24.284 15.459-27.592 31.269-30.5 59-5.227 9.671-8.642 20.011-13 30 .594-31.053 6.107-87.316 33.5-106 53.913-36.772 166.762-56.482 231.5-60" style="fill:url(#a)"/>/&gt;<path fill="url(#b)" d="m699 349-3 4c-51.503-11.993-108.112 6.429-140 49-26.698 30.141-38.558 68.888-32 109 1.483 26.648 17.379 56.787 36 76 8.981 11.933 24.398 24.783 37.5 32 39.603 21.815 85.377 30.627 128.5 14-12.769 51.637-30.656 102.797-55 150-84.62 67.003-166.203 73.351-254.5 9-69.952-50.981-132.526-119.78-172.5-196.5l5 2.5c56.395 58.638 128.003 60.352 190 9 24.393-20.204 44.362-45.962 51-77.5-2.509 3.373-4.192 7.702-6 11.5l7-41.5c7.647 1.073 3.906-22.046 3-28-3.593-23.607-16.676-50.228-33-67.5-68.488-80.581-189.019-65.473-239 27 2.908-27.731 6.216-43.541 30.5-59 91.38-58.174 274.493-67.437 378-45 24.317 5.271 45.256 14.698 68.5 22M493.5 512l-3 14c1.939.549 4.274-13.806 3-14m38 164c-6.081.807-15.724 7.529-21 8-8.886.793-18.359-5.115-26-6-40.45-4.683-46.967 28.174-73 47-9.334 6.75-21.031 9.977-30.5 16.5 26.344 6.126 34.434 30.061 56.5 42.5 39.809 22.441 119.326 19.894 151.5-15.5 14.424-15.867 17.064-38.731 41-44-11.488-1.89-23.112-3.884-33.5-9.5-22.191-11.997-34.228-43.082-65-39" style="fill:url(#b)"/>/&gt;<path fill="#0e4b5e" d="M783 353c22.168 21.974 23.86 51.808 27 82 .135 1.303-.124 2.694 0 4-3.318.078-3.503-1.17-4 2.5-.877 6.472 5.52 21.885-1 26.5-1.461-6.801-4.332-15.567-7-22-.268-3.605.376-7.419 0-11-2.53-24.112-11.326-66.628-31-82-2.036-2.74-.775-4.64 2-6 5.005 3.185 9.826 9.184 14 6"/><path fill="#357081" d="M696 353c14.105 3.284 33.783 11.203 46 19 24.3 15.507 40.135 39.773 56 63 .376 3.581-.268 7.395 0 11-12.538-30.237-45.97-67.425-76.5-80-1.457-.6-4.58-2.167-5.5 0-45.214-26.86-103.463-11.476-142 20-6.085 4.97-12.797 10.127-18 16 31.888-42.571 88.497-60.993 140-49"/><path fill="#97c5d4" d="M742 372c-12.217-7.797-31.895-15.716-46-19l3-4c16.896 5.308 39.552 2.413 43 23"/><path fill="#286a82" d="M816 372c5.818 21.103 9.709 42.195 12 64l-18-1c-3.14-30.192-4.832-60.026-27-82-.824-.816-2.215-3.326-3-4z"/><path fill="#508a9b" d="M461 404c-82.909-87.722-227.479-49.94-250 69-2.421-2.027-2.066-8.564-2-12 4.358-9.989 7.773-20.329 13-30 49.981-92.473 170.512-107.581 239-27"/><path fill="#c1e9f3" d="M716 366c22.913 13.612 42.125 36.178 55 59-4.444-.479-6.954-5.492-10-9-44.68-51.448-128.86-67.724-185-25l-2-5c38.537-31.476 96.786-46.86 142-20"/><path fill="#b4dfea" d="M461 404c16.324 17.272 29.407 43.893 33 67.5.906 5.954 4.647 29.073-3 28l-7 41.5a117 117 0 0 1-2 4c-3.085 1.428.777-5.081-6-3.5.38 6.939-20.672 28.199-21 30-.452 2.487 2.138 4.438 4 5.5-48.999 49.49-123.79 55.395-182 18-5.841-3.752-11.205-9.472-16.5-14L250 594c-.154-.149-1.866-.865-2-1-32.471-32.824-45.606-74.55-37-120 22.521-118.94 167.091-156.722 250-69M262 557c34.059 46.385 95.425 63.023 148 38 115.215-54.837 64.609-224.642-65.5-213-84.53 7.564-134.242 104.533-82.5 175"/><path fill="#7fb5c5" d="M798 446c2.668 6.433 5.539 15.199 7 22 3.573 16.629 3.437 26.214 1 43-1.76 12.127-5.045 24.658-10 36-7.55 17.281-20.865 34.157-34.5 47L751 581c3.433-3.224 6.961-7.362 10-11 37.033-44.334 37.802-95.718 10-145-12.875-22.822-32.087-45.388-55-59 .92-2.167 4.043-.6 5.5 0 30.53 12.575 63.962 49.763 76.5 80"/><path fill="#96c8d7" d="M761 416c-8.581-3.722-20.455-27.094-26-11-59.479-47.273-155.876-26.058-184 46l-14-10c7.644-17.765 23.65-38.318 39-50 56.14-42.724 140.32-26.448 185 25"/><path fill="#2a6d82" d="M153 416c-3.467 1.874-8.515 1.78-12 3l4-24c4.525-5.815 8.462-12.574 15-16.5-3.204 11.852-5.699 25.321-7 37.5"/><path fill="#014560" d="M735 405c54.056 42.962 55.073 119.848 5.5 167-88.324 84.011-234.622-5.39-189.5-121 28.124-72.058 124.521-93.273 184-46m-184 66c-7.865 36.412 1.443 69.318 27 96 54.889 57.305 149.955 41.72 183-30 5.187-11.258 10.027-23.364 11-36 10.096-131.09-192.881-160.184-221-30"/><path fill="#2b7086" d="m410 595-1-3c37.392-17.88 60.931-54.366 61-96 .172-104.215-137.385-146.452-200-67-25.042 31.776-30.386 70.347-15 108 2.185 5.348 6.663 13.255 10 18l-3 2c-51.742-70.467-2.03-167.436 82.5-175 130.109-11.642 180.715 158.163 65.5 213"/><path fill="#49899e" d="M892 424c-.645-.057-1.379.12-2 0-5.291-1.027-14.042-3.987-19-4 .79-3.946-6.542-4.8-7-5.5-1.168-1.786-2.487-25.136-3.5-29.5 12.127 11.454 22.915 24.622 31.5 39"/><path fill="#e9f8fb" d="m574 386 2 5c-15.35 11.682-31.356 32.235-39 50-17.048 39.622-13.055 78.947 9 115.5 2.301 3.814 12.67 13.301 9 16.5-16.579-18.28-26.944-37.191-31-62-6.558-40.112 5.302-78.859 32-109 5.203-5.873 11.915-11.03 18-16"/><path fill="#168ab2" d="M772 501c-7.9-1.683-3.61 4.387-5.5 6-.983.839-11.616-6.888-15-5-.395-.217.796-6.986.5-9 1.337-9.749-1.258-21.996-5-31-29.639-83.525-156.343-76.63-178 10l-18-1c28.119-130.184 231.096-101.09 221 30"/><path fill="#1ba6c9" d="M470 496c-7.857-3.128-9.639-19.026-19-17-.311-1.845-.546-4.228-1-6-8.138-31.755-38.011-59.493-70-66-9.307-1.893-18.5-2.522-28-2-.541-3.411 3.078-1.179 4-2.5.281-.403-2.08-9.246-2.5-9.5-6.639-4.021-46.284 8.517-54 14L270 429c62.615-79.452 200.172-37.215 200 67"/><path fill="#43a3be" d="M352 405c-19.31 1.062-38.78 9.144-54 21-20.133 15.683-33.323 40.672-34 66.5-.084 3.193.227 13.37 3 15.5.695 6.874 4.924 14.923 7 21.5.551 1.745-2.051 2.348-2 2.5l-17 5c-15.386-37.653-10.042-76.224 15-108l29.5-22c7.716-5.483 47.361-18.021 54-14 .42.254 2.781 9.097 2.5 9.5-.922 1.321-4.541-.911-4 2.5"/><path fill="#6ca1b3" d="M141 419c-.106.037-.792.539-2 1-4.673 1.785-8.779 5.542-14 6 5.771-11.208 12.264-21.058 20-31z"/><path fill="#6da0b1" d="M168 397c-2.932 21.63-3.255 40.242-3 62-5.784 2.571-.618 17.62-1 18.5-.453 1.044-4.751 1.424-5 2-.657 1.517 1.639 28.695 2 33 1.234 14.706 4.169 35.471 7 50 3.055 15.678 15.09 43.901 16 57 .198 2.851-.322 4.272-3 5.5-13.484-38.669-22.075-78.63-26-119.5-.398-4.146-.258-28.696-1-30-.756-1.328-3.464-.271-4 1-2.053 4.863 1.33 27.469 2 34-.519 1.528-12.482 2.177-15 2.5l-1-35c6.068-1.679 7.859.16 14-4 .904-.612.745-.723 1-1 .236-.257 2.649.509 3-.5.129-23.52 1.827-47.222 5-69.5 2.256 3.496 2.543-3.403 5-5.5 1.859-1.586 1.56-2.144 4-.5"/><path fill="#aadeec" d="M761 416c3.046 3.508 5.556 8.521 10 9 27.802 49.282 27.033 100.666-10 145-4.163 1.577-5.126-4.847-5.5-5-1.048-.427-13.526 14.055-16 16-39.042 30.686-103.716 41.847-148.5 17.5l-1 2.5c-13.565-7.132-24.758-16.707-35-28 3.67-3.199-6.699-12.686-9-16.5-22.055-36.553-26.048-75.878-9-115.5l14 10c-45.122 115.61 101.176 205.011 189.5 121 49.573-47.152 48.556-124.038-5.5-167 5.545-16.094 17.419 7.278 26 11"/><path fill="#1a577e" d="M747 462c-1.179-2.838-12.937-22.845-14.5-23-2.238 1.479-13.025 13.828-14 14-1.485.262-4.385-6.237-7-6 .763 1.686 1.667 3.317 2.5 5a84 84 0 0 1-6-5c-16.973-15.594-43.42-24.24-66-18-8.79-13.127-24.15-12.123-36-4-3.397 2.329-7.579 4.729-9 9-10.02 5.075-10.885 18.9-6 28-6.244-3.959-10.925 5.144-15 10-.196.234-3.408 1.19-5 3.5-1.891 2.745-.589 9.172-5 9.5.338-3.694 2.056-9.223 3-13 21.657-86.63 148.361-93.525 178-10"/><path fill="#507590" d="M352 405c9.5-.522 18.693.107 28 2v16.5l-6-2c-.694 1.245 4.288 11.046-2 11 11.227 2.985 20.99 7.044 30 14.5-2.635 8.238-2.185 14.661-9 21-3.73-4.162-8.896-6.951-13.5-10-1.855.29-10.445 26.856-13.5 31.5-10.076 15.317-30.493 20.946-47 26.5-8.084-12.982-9.807-21.489-6-37 8.035-.574 21.91-8.672 24-17 13.175-17.355-2.139-41.943-23.5-40-3.757.342-9.014 3.78-12.5 5-1.659.581-1.929 1.668-3-1 15.22-11.856 34.69-19.938 54-21"/><path fill="#1c7499" d="M450 473c-5.127-.542-7.371 5.407-8.5 6-4.614 2.424-14.198 5.384-18.5 6-1.879-14.81-9.477-28.465-21-38-9.01-7.456-18.773-11.515-30-14.5 6.288.046 1.306-9.755 2-11l6 2V407c31.989 6.507 61.862 34.245 70 66"/><path fill="#d3e8f0" d="m153 422-12 2c.102-3.056-.194-2.238-2-4 1.208-.461 1.894-.963 2-1 3.485-1.22 8.533-1.126 12-3-.209 1.952.193 4.044 0 6"/><path fill="#84b7c9" d="M642 429c4.679 6.988 5.048 15.905 3 24-.35 1.384-.977.933-1 1-8.09.507-21.535 8.525-29.5 7-.917-.176-.352-2.967-.5-3 19.939-7.642 14.67-36.827-8-33 11.85-8.123 27.21-9.127 36 4"/><path fill="#f1f7fa" d="M141 424c-.11 3.292-2.639 10.524-3 14.5-1.115 12.263-.277 24.831-2 37l14-1.5c-6.141 4.16-7.932 2.321-14 4-6.668 1.845-15.019 4.582-21.5 6-2.625.574-5.802 1.904-7.5-1 .975-20.908 8.653-38.848 18-57 5.221-.458 9.327-4.215 14-6 1.806 1.762 2.102.944 2 4"/><path fill="#b4e2ef" d="M871 420c4.958.013 13.709 2.973 19 4 5.618 16.221 18.497 31.74 16 50-10.951-4.708-25.3-5.311-35-9-1.326-.504-2.568-1.128-4-1.5l-2-43c.654-.923 4.736-.503 6-.5"/><path fill="#92bdcb" d="M153 422c-1.655 16.787-3.808 34.216-2 51-.255.277-.096.388-1 1l-14 1.5c1.723-12.169.885-24.737 2-37 .361-3.976 2.89-11.208 3-14.5z"/><path fill="#acd5e1" d="M337 462c.049-.195-.12-2.959.5-4-8.361 1.484-16.855 4.965-25.5 2 17.365-7.965 8.209-36.917-11-31v-2c3.486-1.22 8.743-4.658 12.5-5 21.361-1.943 36.675 22.645 23.5 40"/><path fill="#e7f4f8" d="M892 424c9.655 16.169 16.457 32.868 18 52-1.942.347-2.461-1.338-4-2 2.497-18.26-10.382-33.779-16-50 .621.12 1.355-.057 2 0"/><path fill="#fdfefe" d="M614 458c-1.895-.424-6.276.56-7.5 0-9.026-4.132-12.61-14.654-9.5-24 1.421-4.271 5.603-6.671 9-9 22.67-3.827 27.939 25.358 8 33"/><path fill="#4996b2" d="M301 427v2c-5.209 1.605-9.411 7.864-10 13-12.298-.925-6.087 16.32-7 20.5-1.26 5.766-12.7 10.378-13 28.5-5.832.183-4.464 12.41-4 17-2.773-2.13-3.084-12.307-3-15.5.677-25.828 13.867-50.817 34-66.5 1.071 2.668 1.341 1.581 3 1"/><path fill="#20395f" d="m708 447-14 14c-15.793-13.063-25.698-5.22-40.5-4-2.243.185-.609-1.853-3-2-1.757-.108-2.151 4.584-5.5-2 2.048-8.095 1.679-17.012-3-24 22.58-6.24 49.027 2.406 66 18"/><path fill="#fdfefe" d="M312 460c-8.029 3.683-11.761 1.571-18-4-.063-2.842-2.986-6.619-3-7-.077-2.153-.236-4.943 0-7 .589-5.136 4.791-11.395 10-13 19.209-5.917 28.365 23.035 11 31"/><path fill="#a6d2e1" d="M597 434c-3.11 9.346.474 19.868 9.5 24 1.224.56 5.605-.424 7.5 0 .148.033-.417 2.824.5 3 7.965 1.525 21.41-6.493 29.5-7-4.427 12.8-18.444 22.627-32 21-5.927-3.134-8.992-2.419-17-8-.263-.183-1.825-3.621-4-5-4.885-9.1-4.02-22.925 6-28"/><path fill="#145166" d="M828 436c9.075 86.382-6.142 175.877-47 252.5C720.716 801.553 597.726 881.066 466.5 859l8-3c-74.883-8.434-150.961-48.091-195.5-109.5-23.564-32.489-42.5-73.911-53-112.5 62.511 170.903 251.591 282.396 422.5 182C776.293 740.932 823.4 579.573 810 439c-.124-1.306.135-2.697 0-4z"/><path fill="#0683af" d="M747 462c3.742 9.004 6.337 21.251 5 31-.29-1.973-1.82-4.804-1-7.5l-1.5-1.5c-.652 3.4-3.143 1.366-4.5 2 3.43-14.414-14.91-7.541-8 1-2.195 4.969-4.897 1.764-9 2-.005-.333.015-.668 0-1-.672-14.871-7.918-23.712-14-36-.833-1.683-1.737-3.314-2.5-5 2.615-.237 5.515 6.262 7 6 .975-.172 11.762-12.521 14-14 1.563.155 13.321 20.162 14.5 23"/><path fill="#b9e1eb" d="M291 442c-.236 2.057-.077 4.847 0 7-5.058 7.677-8.711 12.623-2 20.5l2.5-.5c-.143-3.602 2.565-10.081 2.5-13 6.239 5.571 9.971 7.683 18 4 8.645 2.965 17.139-.516 25.5-2-.62 1.041-.451 3.805-.5 4-2.09 8.328-15.965 16.426-24 17-8.672.619-14.577-1.863-21.5-7-1.56 8.844-3.141 17.995-2.5 27-1.58.074-5.57 9.02-6 11-10.633 4.586-12.126-11.375-12-19 .3-18.122 11.74-22.734 13-28.5.913-4.18-5.298-21.425 7-20.5"/><path fill="#236183" d="M423 485c1.543 12.161.366 15.636-3 27 .623-6.151-6.921-1.344-9.5-2-2.321-.591-6.115-5.221-9.5-5 3.256-12.869 1.205-26.731-8-37 6.815-6.339 6.365-12.762 9-21 11.523 9.535 19.121 23.19 21 38"/><path fill="#185076" d="M714 452c6.082 12.288 13.328 21.129 14 36l-21-2c-.822-7.229-7.47-20.426-13-25l14-14a84 84 0 0 0 6 5"/><path fill="#ccecf4" d="M294 456c.065 2.919-2.643 9.398-2.5 13l-2.5.5c-6.711-7.877-3.058-12.823 2-20.5.014.381 2.937 4.158 3 7"/><path fill="#222b4f" d="M694 461c5.53 4.574 12.178 17.771 13 25 7.852 69.083-105.692 62.123-90-7.5-1.643-.248-4.73-3.357-5-3.5 13.556 1.627 27.573-8.2 32-21 .023-.067.65.384 1-1 3.349 6.584 3.743 1.892 5.5 2 2.391.147.757 2.185 3 2 14.802-1.22 24.707-9.063 40.5 4"/><path fill="#1e627b" d="M863 462c.358 124.124-48.763 261.141-144 343-.486-1.638-6.029-8.939-6-9.5.105-2.048 25.043-24.439 29-29 73.452-84.657 105.402-199.7 103-311z"/><path fill="#435573" d="M393 468c9.205 10.269 11.256 24.131 8 37-9.489 37.499-60.697 43.588-82 13-.2-.287.203-1.674 0-2 16.507-5.554 36.924-11.183 47-26.5 3.055-4.644 11.645-31.21 13.5-31.5 4.604 3.049 9.77 5.838 13.5 10"/><path fill="#8ec0d1" d="M591 462c2.175 1.379 3.737 4.817 4 5-2.718 11.101-4.435 23.551-3 35-2.758 2.212-5.393 8.608-7 12h-6c-3.859-6.343-4.621-5.595-6-14-1.592-9.703-.792-18.849 3-28 4.075-4.856 8.756-13.959 15-10"/><path fill="#5e9fb3" d="M906 474c1.539.662 2.058 2.347 4 2l-1 1c-5.122 2.034-30.503-4.572-39-3l1-9c9.7 3.689 24.049 4.292 35 9"/><path fill="url(#c)" d="M612 475c.27.143 3.357 3.252 5 3.5-15.692 69.623 97.852 76.583 90 7.5l21 2c.015.332-.005.667 0 1 .488 33.362-24.513 61.648-57 67-2.494.411-4.364.838-7 1-6.483.399-13.646.344-20-1-16.467-3.482-34.266-16.749-43-31-4.538-7.404-7.905-14.261-9-23-1.435-11.449.282-23.899 3-35 8.008 5.581 11.073 4.866 17 8" style="fill:url(#c)"/>/&gt;<path fill="#40aed0" d="M569 472c-.944 3.777-2.662 9.306-3 13-.503 5.495-.522 15.521 0 21 1.946 20.433 13.78 38.748 28 53-2.117-1.167-5.161-3.98-5.5-4-.796-.048-11.614 8.833-10.5 12-25.557-26.682-34.865-59.588-27-96z"/><path fill="#4c8ba7" d="M313 479c-3.807 15.511-2.084 24.018 6 37 .203.326-.2 1.713 0 2l-21 7c-.298-.249-1.469-.803-2-1-3.505-8.407-6.347-15.831-7-25-.641-9.005.94-18.156 2.5-27 6.923 5.137 12.828 7.619 21.5 7"/><path fill="#176895" d="M576 472c-3.792 9.151-4.592 18.297-3 28l-7 6c-.522-5.479-.503-15.505 0-21 4.411-.328 3.109-6.755 5-9.5 1.592-2.31 4.804-3.266 5-3.5"/><path fill="#0398c1" d="M451 479c14.624 86.625-95.877 140.753-159 80-.281-8.023 11.772-8.952 15-16 1.211 1.596 23.999 16.109 25.5 16 2.206-.159 1.536-3.599 4.5-3 .861.223 2.092-.189 3 0-2.568 3.446 4.366 3.792 6.5 4 20.164 1.962 28.58-.923 46-8 .189-.077.529 3.095 3 2 4.49-1.99 19.953-20.726 22.5-25.5 1.393-2.611 8.039-14.626 2-14.5.168-.502-.159-1.464 0-2 3.366-11.364 4.543-14.839 3-27 4.302-.616 13.886-3.576 18.5-6 1.129-.593 3.373-6.542 8.5-6 .454 1.772.689 4.155 1 6m-8.5 6c-2.489.135-5.811 3.72-7.5 5.5 4.504 13.159 9.407 6.578 12-3-1.561-2.636-1.265-2.676-4.5-2.5"/><path fill="#40b1cb" d="M870 474c8.497-1.572 33.878 5.034 39 3 2.945 10.225-.936 20.46-3 30l-37 5c-3.218-.308-4.26 1.62-5-2.5-1.156-6.436 6.117-26.013 2-34 1.211-2.002 2.435-1.21 4-1.5"/><path fill="#12c4e0" d="M745 486c-1.294.604-2.041 8.365-8 1-6.91-8.541 11.43-15.414 8-1"/><path fill="#b3d4df" d="m136 478 1 35c-3.414.438-26.145 2.678-27 1.5-2.971-10.253-3.496-20.857-3-31.5 1.698 2.904 4.875 1.574 7.5 1 6.481-1.418 14.832-4.155 21.5-6"/><path fill="#24c5e6" d="M470 496c-.069 41.634-23.608 78.12-61 96-50.028 23.921-111.897 8.648-144-37-3.337-4.745-7.815-12.652-10-18l17-5c3.018 9.015 13.102 20.361 20 27 63.123 60.753 173.624 6.625 159-80 9.361-2.026 11.143 13.872 19 17"/><path fill="#09b3d8" d="M752 493c.296 2.014-.895 8.783-.5 9 3.384-1.888 14.017 5.839 15 5 1.89-1.613-2.4-7.683 5.5-6-.973 12.636-5.813 24.742-11 36-1.865.147-9.957 3.057-10.5 3-1.051-.111-8.251-7.363-10-7-1.131.234-6.029 9.854-7.5 11.5-15.493 17.343-34.771 31.126-58 35.5.038-7.943-.588-16.794-4-24 32.487-5.352 57.488-33.638 57-67 4.103-.236 6.805 2.969 9-2 5.959 7.365 6.706-.396 8-1 1.357-.634 3.848 1.4 4.5-2l1.5 1.5c-.82 2.696.71 5.527 1 7.5"/><path fill="#03bddf" d="M442.5 485c3.235-.176 2.939-.136 4.5 2.5-2.593 9.578-7.496 16.159-12 3 1.689-1.78 5.011-5.365 7.5-5.5"/><path fill="#26a8cc" d="M283 510c-.027.122 2.299-.725 2 1.5-.393 2.924-2.214 7.008-3 10 1.868 5.67 11.626 1.621 14 2.5.531.197 1.702.751 2 1 .706.591 6.78 11.007 10 14-2.96-.473-2.287 2.305-1 4-3.228 7.048-15.281 7.977-15 16-6.898-6.639-16.982-17.985-20-27-.051-.152 2.551-.755 2-2.5-2.076-6.577-6.305-14.626-7-21.5-.464-4.59-1.832-16.817 4-17-.126 7.625 1.367 23.586 12 19"/><path fill="#3ebedd" d="M289 499c.653 9.169 3.495 16.593 7 25-2.374-.879-12.132 3.17-14-2.5.786-2.992 2.607-7.076 3-10 .299-2.225-2.027-1.378-2-1.5.43-1.98 4.42-10.926 6-11"/><path fill="#0682ae" d="M579 514c.69 1.134.364 5.712 3.5 7 2.423-.216 2.341-6.664 2.5-7 1.607-3.392 4.242-9.788 7-12 1.095 8.739 4.462 15.596 9 23-4.437-.167.339 6.584 1 7.5 8.197 11.352 27.867 23.477 42 23.5 6.354 1.344 13.517 1.399 20 1 7.761 4.524 1.874 15.561 7 23-39.54 5.719-46.131-3.991-77-21-14.22-14.252-26.054-32.567-28-53l7-6c1.379 8.405 2.141 7.657 6 14"/><path fill="#1b7499" d="M420 512c-.159.536.168 1.498 0 2-11.162 33.282-46.855 48.904-80 42-.908-.189-2.139.223-3 0-8.572-2.223-22.475-10.936-29-17-3.22-2.993-9.294-13.409-10-14l21-7c21.303 30.588 72.511 24.499 82-13 3.385-.221 7.179 4.409 9.5 5 2.579.656 10.123-4.151 9.5 2"/><path fill="#034864" d="M906 507c-.022.101 2.183-.261 2 .5-.512 2.134-2.924 4.241-3 4.5-5.3 7.161-10.868 18.664-12 27-2.794 2.366-32.857 15.402-34 13.5 4.444-8.03 4.248-31.974 7-38 .267-.586 3-.713 3-2.5z"/><path fill="#135367" d="M798 575c-1.852-4.354-.958-10.28-1-15-.021-2.32.076-4.683 0-7-.072-2.196.448-4.045-1-6 4.955-11.342 8.24-23.873 10-36 3.026-.098 2.481-2.436 3 1.5 1.987 15.073-7.424 46.857-11 62.5"/><path fill="#478699" d="M555 573c10.242 11.293 21.435 20.868 35 28 48.714 25.613 109.346 20.869 153-13 1.243 4.702 5.446 11.328 10 13-55.362 46.431-144.236 36.315-193-14-18.621-19.213-34.517-49.352-36-76 4.056 24.809 14.421 43.72 31 62"/><path fill="#4b8da2" d="M493.5 512c1.274.194-1.061 14.549-3 14z"/><path fill="#126b84" d="M905 512c-2.179 7.414-6.238 22.121-12 27 1.132-8.336 6.7-19.839 12-27"/><path fill="#024059" d="m143 549-6-34c2.736-.102 11.059-2.275 13.5-1l6.5 39.5c-1.733 2.562-11.664-3.671-14-4.5"/><path fill="#00badd" d="M340 556c33.145 6.904 68.838-8.718 80-42 6.039-.126-.607 11.889-2 14.5-2.547 4.774-18.01 23.51-22.5 25.5-2.471 1.095-2.811-2.077-3-2-17.42 7.077-25.836 9.962-46 8-2.134-.208-9.068-.554-6.5-4"/><path fill="#055d8c" d="M585 514c-.159.336-.077 6.784-2.5 7-3.136-1.288-2.81-5.866-3.5-7z"/><path fill="#075a78" d="m137 515 6 34c-6.009-2.133-14.988-4.087-20-8-2.391-5.52-4.888-19.464-11-21 .025-.945-.351-2.579.5-3 8.227-.693 16.227-1.692 24.5-2"/><path fill="#16718c" d="M123 541c-2.714-2.119-11.074-18.25-11-21 6.112 1.536 8.609 15.48 11 21"/><path fill="#1391ba" d="M601 525c8.734 14.251 26.533 27.518 43 31-14.133-.023-33.803-12.148-42-23.5-.661-.916-5.437-7.667-1-7.5"/><path fill="#4a889b" d="m439 607-37.5 18c-45.922 15.559-93.135 10.952-133.5-16 .66-4.637 4.414-11.93 9-14 58.21 37.395 133.001 31.49 182-18 11.988-12.108 15.191-17.005 23-32a117 117 0 0 0 2-4c1.808-3.798 3.491-8.127 6-11.5-6.638 31.538-26.607 57.296-51 77.5"/><path fill="#1dcbeb" d="M761 537c-33.045 71.72-128.111 87.305-183 30-1.114-3.167 9.704-12.048 10.5-12 .339.02 3.383 2.833 5.5 4 30.869 17.009 37.46 26.719 77 21 1.276-.185 2.747.236 4 0 23.229-4.374 42.507-18.157 58-35.5 1.471-1.646 6.369-11.266 7.5-11.5 1.749-.363 8.949 6.889 10 7 .543.057 8.635-2.853 10.5-3"/><path fill="url(#d)" d="M246 594c1.019 1.127 1.955 2.914 3 4l-5-2.5c39.974 76.72 102.548 145.519 172.5 196.5 88.297 64.351 169.88 58.003 254.5-9 46.333-36.687 80.205-84.519 104-138.5l21-61.5c-42.399 173.684-187.83 316.368-377.5 248C297.136 787.253 219.319 660.669 209 535.5l15 31c6.362 10.114 14.026 18.68 22 27.5" style="fill:url(#d)"/>/&gt;<path fill="#0db6d5" d="M308 539c6.525 6.064 20.428 14.777 29 17-2.964-.599-2.294 2.841-4.5 3-1.501.109-24.289-14.404-25.5-16-1.287-1.695-1.96-4.473 1-4"/><path fill="#7ab2c3" d="M482 545c-7.809 14.995-11.012 19.892-23 32-1.862-1.062-4.452-3.013-4-5.5.328-1.801 21.38-23.061 21-30 6.777-1.581 2.915 4.928 6 3.5"/><path fill="#327084" d="m797 553-29 38.5 6 5.5c-13.272 16.477-28.145 28.344-48 36-43.123 16.627-88.897 7.815-128.5-14-13.102-7.217-28.519-20.067-37.5-32 48.764 50.315 137.638 60.431 193 14 2.251-1.888 5.211-2.929 7-5.5L749 583c.577-.512 1.307-1.349 2-2l10.5 13c13.635-12.843 26.95-29.719 34.5-47 1.448 1.955.928 3.804 1 6"/><path fill="#4a8496" d="M797 553c.076 2.317-.021 4.68 0 7l-15 27.5c-2.656 3.138-5.432 6.312-8 9.5l-6-5.5z"/><path fill="#054e6b" d="M265 555c32.103 45.648 93.972 60.921 144 37l1 3c-52.575 25.023-113.941 8.385-148-38z"/><path fill="#019bc4" d="M675 580c-1.253.236-2.724-.185-4 0-5.126-7.439.761-18.476-7-23 2.636-.162 4.506-.589 7-1 3.412 7.206 4.038 16.057 4 24"/><path fill="#4e879a" d="M797 560c.042 4.72-.852 10.646 1 15-.599 2.621-1.354 5.356-2 8l-21 61.5c-23.795 53.981-57.667 101.813-104 138.5 24.344-47.203 42.231-98.363 55-150 19.855-7.656 34.728-19.523 48-36 2.568-3.188 5.344-6.362 8-9.5z"/><path fill="#97cad9" d="M761 570c-3.039 3.638-6.567 7.776-10 11-.693.651-1.423 1.488-2 2a120 120 0 0 1-6 5c-43.654 33.869-104.286 38.613-153 13l1-2.5c44.784 24.347 109.458 13.186 148.5-17.5 2.474-1.945 14.952-16.427 16-16 .374.153 1.337 6.577 5.5 5"/><path fill="#013f59" d="M871.5 567c7.518 1.638-17.069 23.172-20 24-4.585-3.703 18.392-24.35 20-24"/><path fill="#024963" d="M146.5 574c1.39-.812 12.956 11.734 12 15-2.288-.239-14.671-13.439-12-15"/><path fill="#7ab2c3" d="M277 595c-4.586 2.07-8.34 9.363-9 14-7.929-5.294-11.284-8.494-18-15l10.5-13c5.295 4.528 10.659 10.248 16.5 14"/><path fill="#7fb5c5" d="M753 601c-4.554-1.672-8.757-8.298-10-13a120 120 0 0 0 6-5l11 12.5c-1.789 2.571-4.749 3.612-7 5.5"/><path fill="#317083" d="M250 594c6.716 6.506 10.071 9.706 18 15 40.365 26.952 87.578 31.559 133.5 16l37.5-18c-61.997 51.352-133.605 49.638-190-9-1.045-1.086-1.981-2.873-3-4l2-1c.134.135 1.846.851 2 1"/><path fill="#5b0e1f" d="M531.5 676c30.772-4.082 42.809 27.003 65 39 10.388 5.616 22.012 7.61 33.5 9.5-23.936 5.269-26.576 28.133-41 44-32.174 35.394-111.691 37.941-151.5 15.5-22.066-12.439-30.156-36.374-56.5-42.5 9.469-6.523 21.166-9.75 30.5-16.5 26.033-18.826 32.55-51.683 73-47 7.641.885 17.114 6.793 26 6 5.276-.471 14.919-7.193 21-8M438 704c-5.572 5.077-11.442 13.534-17 18-8.373 6.728-20.891 11.671-30 17.5 18.394 11.616 37.525-2.177 55.5-6.5 27.99-6.732 83.979-7.621 114-7 16.899.35 37.371 8.098 54-2-18.619-2.882-28.763-13.539-42.5-24-3.319-2.527-7.414-8.252-11.5-11-30.688-20.636-33.3 1.044-57-1-5.347-.461-14.502-5.398-20-6-23.987-2.625-30.182 8.041-45.5 22m-6 37c-2.992 1.028-23.778 8.229-24 9.5 9.527 12.977 22.315 25.609 37 32.5 28.277 13.269 71.18 13.036 101 5 34.454-9.284 44.584-29.353 64-56.5-.027-4.479-19.289.579-23.5.5-7.095-.134-15.425-2.861-22.5-3-5.077-.1-9.901-.951-15-1-32.675-.315-86.576 2.551-117 13"/><path fill="#b8a4b2" d="M572 700c.142 8.542-12.703-6.819-16.5-9-26.36-15.144-31.057 2.445-51 4-9.608.749-23.068-5.591-33.5-5 5.123-1.802 10.554-1.838 15.5-4-18.153-4.506-33.769 9.625-48.5 18 15.318-13.959 21.513-24.625 45.5-22 5.498.602 14.653 5.539 20 6 23.7 2.044 26.312-19.636 57 1 4.086 2.748 8.181 8.473 11.5 11"/><path fill="#edeff4" d="M471 690c-24.31 8.552-29.123 22.101-46.5 33-1.047.656-4.003 2.129-3.5-1 5.558-4.466 11.428-12.923 17-18 14.731-8.375 30.347-22.506 48.5-18-4.946 2.162-10.377 2.198-15.5 4"/><path fill="url(#e)" d="M572 700c13.737 10.461 23.881 21.118 42.5 24-16.629 10.098-37.101 2.35-54 2-30.021-.621-86.01.268-114 7-17.975 4.323-37.106 18.116-55.5 6.5 9.109-5.829 21.627-10.772 30-17.5-.503 3.129 2.453 1.656 3.5 1 17.377-10.899 22.19-24.448 46.5-33 10.432-.591 23.892 5.749 33.5 5 19.943-1.555 24.64-19.144 51-4 3.797 2.181 16.642 17.542 16.5 9m-113-1c-9.789 4.11-23.263 14.787-27 24.5 2.955 3.988 24.538-11.164 28-13.5 14.608-9.857 30.183-24.092-1-11" style="fill:url(#e)"/>/&gt;<path fill="#f4f1f4" d="m460 710-1-11c31.183-13.092 15.608 1.143 1 11"/><path fill="#c2b1c0" d="M460 710c-3.462 2.336-25.045 17.488-28 13.5 3.737-9.713 17.211-20.39 27-24.5z"/><path fill="url(#f)" d="m549 728-1.5 14c1.382 1.056 14.025-3.893 16.5-4 12.771-.551 17.457 6.964 12 18.5-4.525 9.565-20.839 11.819-30 13.5-28.3 5.193-69.999 6.209-98-1-10.858-2.795-33.908-11.256-16-23 2.306 11.205 10.375 6.106 15.5 8 3.036 1.122 5.259 5.165 11.5 6 7.236.969 22.488-1.731 24-10.5 2.257-13.092-16.551-4.846-22-4.5-12.617.802-19.227-7.976-29-1v-3c30.424-10.449 84.325-13.315 117-13" style="fill:url(#f)"/>/&gt;<path fill="#8a5f7a" d="M564 729v9c-2.475.107-15.118 5.056-16.5 4l1.5-14c5.099.049 9.923.9 15 1"/><path fill="#652f4d" d="M546 788v-18c9.161-1.681 25.475-3.935 30-13.5 5.457-11.536.771-19.051-12-18.5v-9c7.075.139 15.405 2.866 22.5 3 4.211.079 23.473-4.979 23.5-.5-19.416 27.147-29.546 47.216-64 56.5m-114-44c0 .643-.122 1.406 0 2-17.908 11.744 5.142 20.205 16 23l-3 14c-14.685-6.891-27.473-19.523-37-32.5.222-1.271 21.008-8.472 24-9.5z"/><path fill="#c5b0c0" d="M461 745c2.132 5.377-1.292 9.574-2 15-6.241-.835-8.464-4.878-11.5-6-5.125-1.894-13.194 3.205-15.5-8-.122-.594 0-1.357 0-2 9.773-6.976 16.383 1.802 29 1"/><path fill="#f0e8ee" d="M459 760c.708-5.426 4.132-9.623 2-15 5.449-.346 24.257-8.592 22 4.5-1.512 8.769-16.764 11.469-24 10.5"/><path fill="#7b4161" d="M546 770v18c-29.82 8.036-72.723 8.269-101-5l3-14c28.001 7.209 69.7 6.193 98 1"/>/&gt;</svg>