<svg xmlns="http://www.w3.org/2000/svg" width="1024" height="1024"><defs><linearGradient id="a" x1="575.161" x2="172.256" y1="261.622" y2="396.874" gradientUnits="userSpaceOnUse"><stop offset="0%" style="stop-color:#ddeaf0"/><stop offset="48.235%" style="stop-color:#a2c0ce"/><stop offset="100%" style="stop-color:#3e5c69"/></linearGradient></defs><defs><linearGradient id="b" x1="698.833" x2="828.943" y1="276.079" y2="404.766" gradientUnits="userSpaceOnUse"><stop offset="0%" style="stop-color:#bbd7e1"/><stop offset="100%" style="stop-color:#83b1bf"/></linearGradient></defs><defs><linearGradient id="c" x1="324.397" x2="685.803" y1="530.596" y2="637.9" gradientUnits="userSpaceOnUse"><stop offset="0%" style="stop-color:#00467c"/><stop offset="41.379%" style="stop-color:#0464a0"/><stop offset="63.66%" style="stop-color:#415673"/><stop offset="75.066%" style="stop-color:#435672"/><stop offset="100%" style="stop-color:#49719c"/></linearGradient></defs><defs><linearGradient id="d" x1="594.607" x2="546.01" y1="478.102" y2="736.574" gradientUnits="userSpaceOnUse"><stop offset="0%" style="stop-color:#577fa6"/><stop offset="100%" style="stop-color:#0b89c4"/></linearGradient></defs><defs><linearGradient id="e" x1="817.547" x2="182.551" y1="673.837" y2="676.231" gradientUnits="userSpaceOnUse"><stop offset="0%" style="stop-color:#8bbbce"/><stop offset="12.598%" style="stop-color:#a7d6df"/><stop offset="48.976%" style="stop-color:#a4d5df"/><stop offset="52.283%" style="stop-color:#a3d5dd"/><stop offset="60.945%" style="stop-color:#a0d0d9"/><stop offset="80.945%" style="stop-color:#91becc"/><stop offset="100%" style="stop-color:#5d92ac"/></linearGradient></defs><defs><linearGradient id="f" x1="400.277" x2="460.186" y1="603.695" y2="607.008" gradientUnits="userSpaceOnUse"><stop offset="0%" style="stop-color:#006ba7"/><stop offset="100%" style="stop-color:#0090c8"/></linearGradient></defs><path fill="#8aadbd" d="M679 194c-5.761 3.286 9.642 7.004 11.5 8 .934.501.35 1.92.5 2-5.889-2.067-12.697-6.262-18.5-8-38.913-11.658-84.53-21.754-125.5-25l-53.5-3-.5-5c64.832-2.685 125.569 8.781 186 31"/><path fill="#709aaf" d="m493 163 .5 5 53.5 3c-46.877-3.714-90.38.183-136 10l-3-6c28.025-6.197 56.232-10.809 85-12"/><path fill="#03334f" d="M234 259c-14.541 12.017-28.319 25.488-42 38.5l8-2.5c-32.629 30.886-37.842 41.252-45 86-1.148 7.177-2.239 14.786-3 22-7.334 69.546-1.9 134.17 18 201 42.093 141.361 155.35 237.855 305 246 6.722.366 13.226.974 20 1 110.403 6.61 239.858-43.841 302-138 67.363-82.683 86.19-189.427 78-294-2.728-34.829-3.575-72.389-26-99 1.138-3.543-.265-5.806-2-9 8.46 12.177 10.939 11.216 23.5 4 22.351-12.842 36.059-40.819 32.5-66.5-2.027-14.624-10.713-10.767-19-21-43.286-53.448 61.782-93.24 67-29 1.143 14.074-9.041 27.127-9 30 .025 1.746 12.325 26.477 14 32 18.342 60.49 3.518 132.484-45.5 174.5-4.204 3.603-27.954 17.862-28.5 19.5-.554 1.66-.555 33.34 0 35 1.973 5.9 32.149 12.209 35 28 4.827 26.733-19.425 117.947-34 142-12.443 20.535-27.751 8.035-47.5 8.5-75.532 142.02-222.896 207.062-381 188-115.924-13.976-217.9-82.621-269-188-20.015 2.602-41.604 10.105-47.5-16 1.158 1.884 7.423 11.291 8.5 12 .4.263 7.527 2.93 8 3 3.136.466 28.862-1.988 29.5-3.5-20.381-43.99-31.518-90.537-38-138.5-.539-3.985-2.073-29.507-3.5-30-11.122 8.656-31.061 10.782-32.5 27-.552 6.215 6.123 54.319 9.5 56 2.038.755 2.365-1.003 2.5-1 .657.014 1.348.052 2 0l2 3c-1.083.31-6.519.376-7 1.5 1.432 4.063 2.079 8.319 3 12.5 2.109 9.576 6.225 19.588 9 29 1.526 5.176 7.18 15.487 2 18-10.828-24.074-34.14-104.768-25-127.5 4.539-11.289 33.564-20.621 35-24 .685-1.611.526-33.331 0-35-.464-1.475-21.836-14.441-25.5-17.5C63.567 391.972 50.551 318.456 72 253.5c1.474-4.464 12.066-24.57 12-26-.039-.849-6.986-10.326-8-15-7.607-35.081 29.914-61.906 59.5-40.5 17.477 12.645 19.956 38.881 6.5 55.5-3.798 4.691-15.525 10.457-17 13-2.212 3.814-2.534 22.164-2 27 2.609 23.611 24.425 46.536 46.5 53.5 18.975-23.075 40.09-44.652 64.5-62m675.5-91c-43.828 3.316-38.594 76.248 10 69 40.397-6.026 35.126-72.414-10-69m-803 1c-41.588 5.734-34.992 75.428 13 68 38.802-6.006 36.817-74.869-13-68M927 239c-2.59.901-8.041 1.615-11 2-2.356.307-10.487-1.202-11 .5 2.231 4.907 2.071 10.274 2 15.5-.04 2.959.229 6.063 0 9-1.693 21.704-16.604 41.711-35 53-2.805 1.721-12.812 2.843-13 6.5 12.238 29.147 16.367 64.06 21 95.5 1.175 7.977 1.456 17.362 2 25.5 18.221-3.516 33.783-21.768 45-36.5 29.535-38.789 37.721-78.571 31-127-1.99-14.341-6.606-32.015-13-45-1.484-3.013-2.277-6.282-4.5-9-3.185 3.25-9.354 8.558-13.5 10m-846-1c-8.119 15.304-10.548 29.013-13 46-6.659 46.134.32 84.889 28 123 12.448 17.139 27.451 28.948 44.5 41l2.5-1.5c.366-8.761.864-17.837 2-26.5 4.14-31.568 9.418-65.37 22-94.5l-.5-2.5c-.446-.481-10.733-2.967-12.5-4-12.257-7.166-27.79-24.287-32-38-4.223-13.755-3.685-26.341-1-40.5-3.913.102-8.061 1.038-12 .5-3.382-.462-6.775-.859-10-2-3.78-1.338-9.683-5.872-12.5-9-4.716-.756-4.418 5.961-5.5 8m797 287c-2.201 15.25-4.589 29.972-8 45-7.281 32.078-17.486 63.437-33 92.5.671 2.976 4.218 1.579 6 0 2.952-2.615 20.809-39.729 23-45.5l25.5 6c1.957-.657 8.657-24.438 9.5-28 1.13-4.777 2.885-9.5 3-14.5-.396-.528-9.882-1.016-12-1.5l2-3c2.516.4 3.773 1.08 7 1 .182-.005 1.442 1.927 3.5 1 3.383-2.258 8.892-48.45 8.5-55-1.147-19.181-18.519-17.318-31.5-28a557 557 0 0 1-3.5 30"/><path fill="#48737e" d="M909.5 168c45.126-3.414 50.397 62.974 10 69-48.594 7.248-53.828-65.684-10-69m-13.5 8c-31.735 19.848 2.378 66.957 31.5 45 18.49-13.941 11.635-47.643-12.5-50-8.439-.824-12.126.701-19 5"/><path fill="#47737e" d="M106.5 169c49.817-6.869 51.802 61.994 13 68-47.992 7.428-54.588-62.266-13-68m24.5 10c-4.287-6.48-12.015-7.067-19-5-2.018-7.988-17.69 4.797-20 8.5-15.214 24.378 12.103 55.023 37.5 39.5 14.011-8.564 19.093-37.455 1.5-43"/><path fill="#fcfdfd" d="M547 171c40.97 3.246 86.587 13.342 125.5 25 5.803 1.738 12.611 5.933 18.5 8 8.285 4.438 14.748 8.876 22 13-.164 3.636.229 7.373 0 11-.153 2.417-.808 4.364-1 7-3.577 49.063-6.914 98.315-14 147-6.798-3.339-14.07-7.042-21-10l17-147 1-4.5c-1.292-4.22-35.986-14.648-42-16.5-9.102-2.802-66.339-18.722-71-14.5L567 344c-7.186-.628-14.844-1.717-22-2l17.5-157c-62.844-7.462-124.13-1.967-184.5 16l-2-11c12.015-3.554 22.718-6.357 35-9 45.62-9.817 89.123-13.714 136-10"/><path fill="#4bd7ef" d="M112 174c-21.435 6.342-13.958 42.171 10.5 35 11.685-3.426 14.641-20.718 8.5-30 17.593 5.545 12.511 34.436-1.5 43-25.397 15.523-52.714-15.122-37.5-39.5 2.31-3.703 17.982-16.488 20-8.5"/><path fill="#06b6e4" d="M915 171c-1.055 4.315 5.655 5.932 8 9.5 19.646 29.895-37.091 44.303-31 5 .347-2.238 5.458-6.58 4-9.5 6.874-4.299 10.561-5.824 19-5m-10.5 7c-4.907 2.029-3.173 16.158 7 12 6.095-2.491.953-15.289-7-12"/><path fill="#4ad7ef" d="M896 176c1.458 2.92-3.653 7.262-4 9.5-6.091 39.303 50.646 24.895 31-5-2.345-3.568-9.055-5.185-8-9.5 24.135 2.357 30.99 36.059 12.5 50-29.122 21.957-63.235-25.152-31.5-45"/><path fill="#07b6e4" d="M131 179c6.141 9.282 3.185 26.574-8.5 30-24.458 7.171-31.935-28.658-10.5-35 6.985-2.067 14.713-1.48 19 5m-16.5-1c-5.967 2.352-1.717 16.582 7 12 7.59-3.989 2.057-15.569-7-12"/><path fill="#1f5b77" d="m408 175 3 6c-12.282 2.643-22.985 5.446-35 9-16.336 4.832-32.466 9.977-48 17l-12.5 4c-6.23-4.622 17.973-9.336 18.5-14 23.114-9.416 49.636-16.612 74-22"/><path fill="#f6fdfe" d="M114.5 178c9.057-3.569 14.59 8.011 7 12-8.717 4.582-12.967-9.648-7-12"/><path fill="#f9fdfd" d="M904.5 178c7.953-3.289 13.095 9.509 7 12-10.173 4.158-11.907-9.971-7-12"/><path fill="url(#a)" d="M545 342c-16.623-.657-33.376.428-50 1-68.608 2.361-118.474 12.284-179 45-39.155 21.165-77.652 51.059-106 85.5-1.446 1.757-.099 4.076-.5 4.5-2.219 2.343-18.914 1.478-21.5-3-2.607-3.166-2.531-3.247-4-7-12.1-30.917-20.583-112.304-2-140.5 36.467-55.332 133.493-107.897 196-126.5 60.37-17.967 121.656-23.462 184.5-16Zm-76.5-142c-77.615 1.023-164.695 38.404-224.5 86.5 71.43-46.609 154.273-80.352 240.5-84.5-4.827-1.761-10.952-2.067-16-2M246 311c-.033.157-2.285.54-2 2.5 4.197 2.975 3.682 9.439 7 14 9.83 13.512 30.45 7.124 29-12.5-1.851-25.042-28.932-28.237-34-4m-22 65c-.141 6.365-.201 8.474 3 14 5.512 9.516 19.441 10.544 24 .5 1.797-3.96-.067-5.638 0-6.5.311-4.011 1.375-7.364 0-11.5-4.343-13.067-26.618-13.755-27 3.5" style="fill:url(#a)"/>/&gt;<path fill="#d7e7ed" d="m653 204-7.5 2 48.5 19-17 147c-26.336-11.242-57.66-21.677-86-26l13-129.5c4.245-3.843 42.21 9.397 42 5L594.5 200 580 345c-4.267-.514-8.719-.626-13-1l15-154.5c4.661-4.222 61.898 11.698 71 14.5"/><path fill="#e1f7f9" d="m376 190 2 11c-62.507 18.603-159.533 71.168-196 126.5-18.583 28.196-10.1 109.583 2 140.5-2.622 2.236-4.623-7.8-5-9.5-8.623-38.843-21.368-104.693 5-137 3.333-7.914 41.06-39.183 42-42 .542-1.625-.076-4.027-1-5.5 29.805-24.326 67.948-51.153 103-67 15.534-7.023 31.664-12.168 48-17"/><path fill="#59889f" d="m819 281-1.5 7c-1.359-2.418-3.752-2.903-5.5-4-12.713-7.976-27.238-23.583-40.5-33-19.388-13.767-38.344-22.539-58.5-34-7.252-4.124-13.715-8.562-22-13-.15-.08.434-1.499-.5-2-1.858-.996-17.261-4.714-11.5-8 53.706 19.746 98.154 48.036 140 87"/><path fill="#0a435f" d="M328 207c-35.052 15.847-73.195 42.674-103 67-8.385 6.843-17.138 13.558-25 21l-8 2.5c13.681-13.012 27.459-26.483 42-38.5 29.837-24.657 63.974-47.324 100-62-.527 4.664-24.73 9.378-18.5 14z"/><path fill="#eaf9fb" d="M468.5 200c5.048-.067 11.173.239 16 2-86.227 4.148-169.07 37.891-240.5 84.5 59.805-48.096 146.885-85.477 224.5-86.5"/><path fill="#f0f6f8" d="M591 346c-3.457-.527-7.415-.568-11-1l14.5-145 51.5 21.5c.21 4.397-37.755-8.843-42-5z"/><path fill="#ccdde5" d="m694 225-48.5-19 7.5-2c6.014 1.852 40.708 12.28 42 16.5z"/><path fill="#c6e8ef" d="M812 284c1.203 1.631 2.614 3.558 4 5 24.798 25.804 38.429 43.497 36 82-2.894-1.009-1.392 4.076-3.5 3-1.004-.513.328-4.327-2.5-2.5-1.051 1.881 1.051 6.65 1 7-3.006 20.575-9.316 82.295-24 93.5 14.005-23.588 16.449-56.611 19-84 2.699-28.975 6.055-38.174-9-65-22.245-39.637-80.16-74.88-120-95 .229-3.627-.164-7.364 0-11 20.156 11.461 39.112 20.233 58.5 34 13.262 9.417 27.787 25.024 40.5 33"/><path fill="#789aa8" d="m833 323 7 18.5-7 2.5c-6.451-24.496-40.214-48.781-59.5-65-3.059-2.572.271-3.512-4-7-16.83-13.744-39.165-25.153-57.5-37 .192-2.636.847-4.583 1-7 39.84 20.12 97.755 55.363 120 95"/><path fill="#395662" d="M945 238c-1.384.008-3.69.976-4.5 2-2.292 2.896 5.585 26.734 6.5 33h-10c-.335-5.03-3.588-12.967-5-18-1.516-5.402-2.192-10.993-5-16 4.146-1.442 10.315-6.75 13.5-10 2.223 2.718 3.016 5.987 4.5 9"/><path fill="#324f5c" d="M99 239c-1.56 4.364-3.433 8.633-5 13-6.915 4.713-1.608 13.429-14 11 1.048-4.978 7.122-20.376 7-21.5-.183-1.689-4.112-4.01-6-3.5 1.082-2.039.784-8.756 5.5-8 2.817 3.128 8.72 7.662 12.5 9"/><path fill="url(#b)" d="M833 344c1.255 4.766.893 9.185 2 14-5.196 24.401-6.77 51.279-19 73.5-2.107 3.829-13.266 19.746-17.5 19.5-1.525-.089-19.545-14.668-22.5-17-9.18-7.245-15.823-13.85-26-21-16.529-11.613-33.848-22.083-52-31 7.086-48.685 10.423-97.937 14-147 18.335 11.847 40.67 23.256 57.5 37 4.271 3.488.941 4.428 4 7 19.286 16.219 53.049 40.504 59.5 65m-96-31c-2.684-2.033-2.253.923-2 2.5 4.719 29.394 34.863 20.219 32-1.5 2.238-20.16-29.399-21.821-30-1m52 78c4.171-3.953 5.314-4.809 4-12 1.937-11.852-12.195-17.154-21.5-12-16.25 9.001-.022 40.607 17.5 24" style="fill:url(#b)"/>/&gt;<path fill="#253f4d" d="M80 263c-1.667 7.923-3.293 13.591-4 22l-8-1c2.452-16.987 4.881-30.696 13-46 1.888-.51 5.817 1.811 6 3.5.122 1.124-5.952 16.522-7 21.5"/><path fill="#243d4b" d="M945 238c6.394 12.985 11.01 30.659 13 45-2.15 3.443-6.21 1.587-10 2-.314-3.977-.423-8.048-1-12-.915-6.266-8.792-30.104-6.5-33 .81-1.024 3.116-1.992 4.5-2"/><path fill="#70949f" d="M109 241c-1.346 6.056-3.135 11.806-4 18-.01.07-.848-.347-1 1-.746-.142-1.316-.657-2-1-2.954-1.484-6.085-2.452-9-4 .332-1.055.63-1.969 1-3 1.567-4.367 3.44-8.636 5-13 3.225 1.141 6.618 1.538 10 2"/><path fill="#678a95" d="M927 239c2.808 5.007 3.484 10.598 5 16-1.589.711-5.814 3.666-7 4-1.142.322-2.843.983-3 1-.894.095-1.032-1.019-2-1l-4-18c2.959-.385 8.41-1.099 11-2"/><path fill="#bcd4d7" d="m122 281-5 3c-.97-5.73.164-22.883-3-24-1.865-.659-6.363.605-9-1 .865-6.194 2.654-11.944 4-18 3.939.538 8.087-.398 12-.5-2.685 14.159-3.223 26.745 1 40.5"/><path fill="#acc3c7" d="m916 241 4 18c-4.953.099-8.396.158-13-2 .071-5.226.231-10.593-2-15.5.513-1.702 8.644-.193 11-.5"/><path fill="#4d7582" d="M94 252a77 77 0 0 0-1 3c-2.084 6.613-3.816 13.162-5 20-6.229 35.981-.216 73.424 25 101.5 4.656 5.185 16.929 18.749 22 10.5 2.497-4.062 7.462-35.38 10-44 2.037-6.918 4.089-12.421 7-19 .628-1.418.809-3.529 2-5 1.767 1.033 12.054 3.519 12.5 4l.5 2.5c-12.582 29.13-17.86 62.932-22 94.5-12.79 2.256-27.959-13.92-36-23-29.021-32.771-36.631-68.826-33-112 .707-8.409 2.333-14.077 4-22 12.392 2.429 7.085-6.287 14-11"/><path fill="#c2f4f8" d="M102 259c-6.675 25.5-1.054 54.15 15 75l-11 7c-4.821-8.813-8.541-18.073-12-27.5L88 275c1.184-6.838 2.916-13.387 5-20 2.915 1.548 6.046 2.516 9 4"/><path fill="#c4f6f9" d="M937 273c.044.657-.027 1.341 0 2 .791 19.137-5.53 44.853-14 62-3.522.098-10.744-2.912-10-7 13.416-20.576 15.819-47.207 12-71 1.186-.334 5.411-3.289 7-4 1.412 5.033 4.665 12.97 5 18"/><path fill="#d8f8fa" d="M920 259c.968-.019 1.106 1.095 2 1 1.624 24.887-2.71 58.332-27 70.5 10.934-11.019 16.553-31.763 16-47-.074-2.042 2.811-2.666-2-2.5.663-5.34 3.941-11.412-2-15 .229-2.937-.04-6.041 0-9 4.604 2.158 8.047 2.099 13 2"/><path fill="#98c6d2" d="M104 260c-2.762 24.522 3.842 52.234 22.5 69 1.91-1.29 1.047-1.835.5-3.5-1.885-5.742-7.872-13.165-10-21-3.706-13.647-4.692-30.417-3-44.5 3.164 1.117 2.03 18.27 3 24 3.343 19.75 13.985 36.402 35 40-2.911 6.579-4.963 12.082-7 19-3.581.091-2.613 7.336-4 8.5-4.745 3.982-20.933-13.517-24-17.5-16.054-20.85-21.675-49.5-15-75 .684.343 1.254.858 2 1"/><path fill="#d8fbfd" d="M114 260c-1.692 14.083-.706 30.853 3 44.5 2.128 7.835 8.115 15.258 10 21 .547 1.665 1.41 2.21-.5 3.5-18.658-16.766-25.262-44.478-22.5-69 .152-1.347.99-.93 1-1 2.637 1.605 7.135.341 9 1"/><path fill="#9bc7d2" d="M925 259c3.819 23.793 1.416 50.424-12 71-6.854 10.511-17.646 18.317-28 25-3.337-10.608-7.089-20.626-11-31 23.131-4.965 32.248-20.836 35-43 4.811-.166 1.926.458 2 2.5.553 15.237-5.066 35.981-16 47 24.29-12.168 28.624-45.613 27-70.5.157-.017 1.858-.678 3-1"/><path fill="#c5f3f7" d="M909 281c-2.752 22.164-11.869 38.035-35 43-.627-1.664-.867-3.481-2-5 18.396-11.289 33.307-31.296 35-53 5.941 3.588 2.663 9.66 2 15"/><path fill="#4a6f7c" d="M947 273c.577 3.952.686 8.023 1 12 .933 11.82.787 20.229 0 32h-9c1.703-14.082.985-28.153-2-42-.027-.659.044-1.343 0-2z"/><path fill="#a6e4ed" d="M184 468c1.469 3.753 1.393 3.834 4 7 5.795 7.038 9.042 8.141 18 6 1.999 2.727 5.821-1.478 7.5-2 1.97-.612.954 2.479 3 2 1.618-.378 19.027-20.458 23.5-23.5 2.72-1.85.705-1.559 3 .5-8.597 7.875-32.486 36.697-40.5 39-26.969 7.749-29.648-55.751-32.5-72-2.144-12.212-3.551-25.126-7-36-1.743-5.496.438-9.96-5.5-10-1.027-.007.605 4.414-2.5 2 7.158-44.748 12.371-55.114 45-86 7.862-7.442 16.615-14.157 25-21 .924 1.473 1.542 3.875 1 5.5-.94 2.817-38.667 34.086-42 42-26.368 32.307-13.623 98.157-5 137 .377 1.7 2.378 11.736 5 9.5"/><path fill="#94c7d3" d="M106 341c4.723 8.634 14.235 22.486 21 29.5 8.191 8.492 9.473.711 8 16.5-5.071 8.249-17.344-5.315-22-10.5-25.216-28.076-31.229-65.519-25-101.5l6 38.5c3.459 9.427 7.179 18.687 12 27.5"/><path fill="#95c6d1" d="M939 317c-2.183 18.055-14.341 48.781-27 62-3.185 3.326-12.816 12.107-17.5 10-2.552-1.148-2.788-9.613-3.5-12 13.254-10.53 24.496-24.808 32-40 8.47-17.147 14.791-42.863 14-62 2.985 13.847 3.703 27.918 2 42"/><path fill="#bbeff4" d="M154 319c-1.191 1.471-1.372 3.582-2 5-21.015-3.598-31.657-20.25-35-40l5-3c4.21 13.713 19.743 30.834 32 38"/><path fill="#275c78" d="M847 311c1.735 3.194 3.138 5.457 2 9-8.875-10.531-21.419-23.924-33-31-1.386-1.442-2.797-3.369-4-5 1.748 1.097 4.141 1.582 5.5 4l1.5-7c9.834 9.157 21.407 17.862 28 30"/><path fill="#3e626e" d="m927 410-11-11c2.86-3.121 4.565-6.734 7-10 18.403-24.687 22.931-41.066 25-72 .787-11.771.933-20.18 0-32 3.79-.413 7.85 1.443 10-2 6.721 48.429-1.465 88.211-31 127"/><path fill="#3f6471" d="M76 285c-3.631 43.174 3.979 79.229 33 112l-13 10c-27.68-38.111-34.659-76.866-28-123Z"/><path fill="#70a5b2" d="M849 320c22.425 26.611 23.272 64.171 26 99-2.143 10.386-3.214 21.407-4 32-1.137 6.49-11.688 4.081-17 5 .432-1.911.572-4.871 1-7 1.988-9.898 3.875-19.949 5-30 1.879-16.786 4.837-30.851-9-44 .167-1.994.955-3.281 1-4 2.429-38.503-11.202-56.196-36-82 11.581 7.076 24.125 20.469 33 31"/><path fill="#062941" d="M280 315c-1.551 4.231-4.342 10.756-8.5 13-15.009 8.102-30.4-8.858-18.5-19-11.137 22.771 23.6 23.935 22 2-.665-9.11-7.759-12.399-16.5-11L246 311c5.068-24.237 32.149-21.042 34 4"/><path fill="#0a405b" d="M767 314c-2.288-17.358-31.249-15.606-26 4 1.972 7.367 10.38 10.908 17.5 9 .689-.185 6.383-5.573 6.5-6-6.331 16.516-28.479 8.601-28-8 .601-20.821 32.238-19.16 30 1"/><path fill="#91c0cb" d="M275 311c-7.492-5.941-14.193-8.653-22-2-11.9 10.142 3.491 27.102 18.5 19 4.158-2.244 6.949-8.769 8.5-13 1.45 19.624-19.17 26.012-29 12.5-3.318-4.561-2.803-11.025-7-14-.285-1.96 1.967-2.343 2-2.5l12.5-11c8.741-1.399 15.835 1.89 16.5 11"/><path fill="#f2f8f9" d="M767 314c2.863 21.719-27.281 30.894-32 1.5-.253-1.577-.684-4.533 2-2.5-.479 16.601 21.669 24.516 28 8 3.956-14.408-23.298-18.235-24-3-5.249-19.606 23.712-21.358 26-4"/><path fill="#406170" d="M275 311c1.6 21.935-33.137 20.771-22-2 7.807-6.653 14.508-3.941 22 2"/><path fill="#537582" d="M765 321c-.117.427-5.811 5.815-6.5 6-7.12 1.908-15.528-1.633-17.5-9 .702-15.235 27.956-11.408 24 3"/><path fill="#5c8894" d="M948 317c-2.069 30.934-6.597 47.313-25 72l-11-10c12.659-13.219 24.817-43.945 27-62z"/><path fill="#4a6f7c" d="M872 319c1.133 1.519 1.373 3.336 2 5 3.911 10.374 7.663 20.392 11 31 2.277 7.239 3.829 14.722 6 22 .712 2.387.948 10.852 3.5 12 4.684 2.107 14.315-6.674 17.5-10l11 10c-2.435 3.266-4.14 6.879-7 10-8.767 9.566-22.502 22.686-36 22-4.633-31.44-8.762-66.353-21-95.5.188-3.657 10.195-4.779 13-6.5"/><path fill="#313d43" d="M842 388c-.483-10.493-4.721-20.088-7-30-1.107-4.815-.745-9.234-2-14l7-2.5-7-18.5c15.055 26.826 11.699 36.025 9 65"/><path fill="#9ddbe6" d="M923 337c-7.504 15.192-18.746 29.47-32 40-2.171-7.278-3.723-14.761-6-22 10.354-6.683 21.146-14.489 28-25-.744 4.088 6.478 7.098 10 7"/><path fill="#99d8e3" d="M117 334c3.067 3.983 19.255 21.482 24 17.5 1.387-1.164.419-8.409 4-8.5-2.538 8.62-7.503 39.938-10 44 1.473-15.789.191-8.008-8-16.5-6.765-7.014-16.277-20.866-21-29.5z"/><path fill="#77a4b0" d="M545 342c7.156.283 14.814 1.372 22 2 4.281.374 8.733.486 13 1 3.585.432 7.543.473 11 1 28.34 4.323 59.664 14.758 86 26 6.93 2.958 14.202 6.661 21 10 18.152 8.917 35.471 19.387 52 31l-9 10c-61.054-42.267-132.48-67.66-207-72 .428-2.249-7.325-2.911-8.5-3-5.419-.411-27.476 1.108-30 0-.672-.295.41-4.175-.5-5 16.624-.572 33.377-1.657 50-1"/><path fill="#6e939c" d="M495 343c.91.825-.172 4.705.5 5 2.524 1.108 24.581-.411 30 0 1.175.089 8.928.751 8.5 3-39.869-2.322-73.152 0-112 9-5.085-2.273-15.589-.142-21.5 1-26.728 5.162-57.431 17.279-81.5 30l-3-3c60.526-32.716 110.392-42.639 179-45"/><path fill="#d7f1f4" d="M534 351c74.52 4.34 145.946 29.733 207 72 5.651 3.912 21.245 19.374 26 21 8.513 6.171 16.227 17.945 24 24-3.432 3.202-2.375.531-6 0-11.155-11.025-23.057-22.043-36-31-8.949-8.667-18.714-14.275-29-21-99.031-64.75-217.519-77.935-330-42-30.893 9.87-54.146 20.59-82 37-2.321 1.367-4.666 2.561-7 4-14.28 8.808-25.975 17.585-39 28-5.042 4.032-8.208 6.769-13 11-.825.728-4.386 2.522-6 4-2.295-2.059-.28-2.35-3-.5-4.473 3.042-21.882 23.122-23.5 23.5-2.046.479-1.03-2.612-3-2-1.679.522-5.501 4.727-7.5 2 5.745-1.373 14.569-8.097 18-13 13.669-10.662 26.042-23.684 40-34 .09-.066.72-.061 2-1 46.543-34.126 99.503-59.911 156-73 38.848-9 72.131-11.322 112-9"/><path fill="#73a7b5" d="m720 416-1 13.5a319 319 0 0 1 34 25.5c16.065 13.815 31.567 28.472 46 44-2.773-1.827-5.474-3.071-7.5-6l-7.5 14c-9.927-11.409-21.601-23.066-33-33 4.909-6.675-.208-8.974-5.5-14-31.168-29.601-91.318-59.206-132.5-71-60.916-17.445-117.116-19.004-179-6-12.313 2.587-23.993 5.258-36 9l-8-18c112.481-35.935 230.969-22.75 330 42"/><path fill="#88bcc6" d="M422 360c-56.497 13.089-109.457 38.874-156 73-.198-.971-3.229-3.935-3-4.5 1.829-4.513 48.578-33.577 56-37.5 24.069-12.721 54.772-24.838 81.5-30 5.911-1.142 16.415-3.273 21.5-1"/><path fill="#50727b" d="M842 388c-2.551 27.389-4.995 60.412-19 84-12.34 9.416-20.842 4.691-32-4-7.773-6.055-15.487-17.829-24-24 .144.049 2.107-.13 3 .5l6-10.5c2.955 2.332 20.975 16.911 22.5 17 4.234.246 15.393-15.671 17.5-19.5 12.23-22.221 13.804-49.099 19-73.5 2.279 9.912 6.517 19.507 7 30"/><path fill="#02263f" d="M251 384c-3.255 8.986-17.051 13.905-23 5-2.979-4.46-2.881-9.38 1-13-7.729 20.151 20.097 17.348 19 1-.892-13.291-19.912-13.3-24-1 .382-17.255 22.657-16.567 27-3.5 1.375 4.136.311 7.489 0 11.5"/><path fill="#05304c" d="M793 379c-2.444-13.377-23.182-14.089-25-1-1.789 12.88 13.785 19.913 22 10-.281 1.05-.134 1.859-1 3-17.522 16.607-33.75-14.999-17.5-24 9.305-5.154 23.437.148 21.5 12"/><path fill="#ecf5f6" d="M248 377c-6.105-3.429-12.965-6.63-19-1-3.881 3.62-3.979 8.54-1 13l-1 1c-3.201-5.526-3.141-7.635-3-14 4.088-12.3 23.108-12.291 24 1"/><path fill="#edf6f7" d="M793 379c1.314 7.191.171 8.047-4 12 .866-1.141.719-1.95 1-3 2.855-10.659-4.55-14.152-14.5-13-1.759.204-5.119 4.732-7.5 3 1.818-13.089 22.556-12.377 25 1"/><path fill="#b0e8ee" d="M852 371c-.045.719-.833 2.006-1 4-.013.158-.779.587-1 3-1.594 17.366-4.082 34.819-7 52-.894 5.264-.879 11.492-2 17-.99 4.863-2.61 11.207-4 16-3.537 12.194-5.831 25.482-20 29-20.619-1.21-20.524-12.657-32-24 3.625.531 2.568 3.202 6 0 11.158 8.691 19.66 13.416 32 4 14.684-11.205 20.994-72.925 24-93.5.051-.35-2.051-5.119-1-7 2.828-1.827 1.496 1.987 2.5 2.5 2.108 1.076.606-4.009 3.5-3m-56.5 105c-1.44 2.083 2.087 3.605 3 5 1.44-2.083-2.087-3.605-3-5"/><path fill="#3d626f" d="M248 377c1.097 16.348-26.729 19.151-19-1 6.035-5.63 12.895-2.429 19 1"/><path fill="#5f94a2" d="m390 374 8 18c-8.104 2.525-57.033 20.266-60.5 24-3.531 3.803 2.865 6.976-1.5 12-2.403 1.267-4.653 2.693-7 4l-3.5-10c-11.245 6.432-12.799 2.983-7.5 16-5.217 3.154-10.974 6.598-16 10-13.665-13.491 9.394-13.909 11-19.5.678-2.362-3.96-14.379-5-17.5 27.854-16.41 51.107-27.13 82-37"/><path fill="#4ceff6" d="M613 389v9c-42.741-12.095-95.84-16.163-140-12-12.49 1.177-24.733 3.525-37 6l-2-9c61.884-13.004 118.084-11.445 179 6"/><path fill="#496e7b" d="M790 388c-8.215 9.913-23.789 2.88-22-10 2.381 1.732 5.741-2.796 7.5-3 9.95-1.152 17.355 2.341 14.5 13"/><path fill="#5f94a2" d="m860 419-14 2c1.755-9.617 3.924-20.885 5-30.5.291-2.6 1.414-10.647-1-12.5.221-2.413.987-2.842 1-3 13.837 13.149 10.879 27.214 9 44"/><path fill="#35424d" d="M846 421c-.468 2.566.221 9.306-3 9 2.918-17.181 5.406-34.634 7-52 2.414 1.853 1.291 9.9 1 12.5-1.076 9.615-3.245 20.883-5 30.5"/><path fill="#669faf" d="M163 389c-2.515 4.102-5.839 9.344-7 14-1.123-.07-2.093-1.047-4 0 .761-7.214 1.852-14.823 3-22 3.105 2.414 1.473-2.007 2.5-2 5.938.04 3.757 4.504 5.5 10"/><path fill="#4ac2d4" d="m434 383 2 9c-35.111 7.083-68.416 19.343-100 36 4.365-5.024-2.031-8.197 1.5-12 3.467-3.734 52.396-21.475 60.5-24 12.007-3.742 23.687-6.413 36-9"/><path fill="#6599a6" d="m227 390 1-1c5.949 8.905 19.745 3.986 23-5-.067.862 1.797 2.54 0 6.5-4.559 10.044-18.488 9.016-24-.5"/><path fill="#334861" d="M613 398c34.639 9.802 73.296 29.934 103 50-2.502-.594-2.772 3.85-3 6-1.345-.869-4.322-1.965-6-3-11.134-6.865-23.077-15.45-36-18.5 13.747 12.57 25.482 29.955 34 46.5 1.553 3.016 2.746 6.807 4 10-.987-1.583-4.975-8.947-5.5-9-.711-.072-7.481 6.734-12.5 5-8.138-16.448-36.568-58.536-53.5-65-34.921-13.331-118.349-10.05-155.5-3l-9-31c44.16-4.163 97.259-.095 140 12"/><path fill="#07355c" d="m473 386 9 31c-37.882 7.189-112.595 34.324-143.5 57-12.846 9.426-27.171 64.122-28.5 80.5C297.24 711.8 456.122 802.216 594 740l11 22c-140.284 66.426-297.878-27.705-305-181.5-2.311-1.309-2.971 8.975-3 9.5-2.047-11.849-1.078-24.135 0-36 1.65-18.167 5.383-34.741 11-52 1.359-4.175 2.402-8.957 4-13 6.742-17.057 17.67-33.285 27-49 1.658-1.63 6.36-3.921 5.5-7-63.255 31.778-112.588 77.29-151.5 136-6.101 9.206-11.372 18.531-17 28-1.666 2.803-1.157 2.904-4 5 16.93-40.206 43.054-77.316 74-108 12.005-11.903 28.424-25.889 42-36 4.459-3.321 9.406-6.891 14-10 5.026-3.402 10.783-6.846 16-10 3.527-2.132 7.393-3.99 11-6 2.347-1.307 4.597-2.733 7-4 31.584-16.657 64.889-28.917 100-36 12.267-2.475 24.51-4.823 37-6"/><path fill="#507684" d="m316 388 3 3c-7.422 3.923-54.171 32.987-56 37.5-.229.565 2.802 3.529 3 4.5-1.28.939-1.91.934-2 1l-3.5-4-47.5 44.5c3.036.415 8.594-4.623 11-6.5-3.431 4.903-12.255 11.627-18 13-8.958 2.141-12.205 1.038-18-6 2.586 4.478 19.281 5.343 21.5 3 .401-.424-.946-2.743.5-4.5 28.348-34.441 66.845-64.335 106-85.5"/><path fill="#34515e" d="M170 425c-6.713-2.396-6.54-19.862-11.5-23-.114-.072-.537 1.123-2.5 1 1.161-4.656 4.485-9.898 7-14 3.449 10.874 4.856 23.788 7 36"/><path fill="#65c6d5" d="M751 474c-10.988-9.576-22.932-17.848-35-26-29.704-20.066-68.361-40.198-103-50v-9c41.182 11.794 101.332 41.399 132.5 71 5.292 5.026 10.409 7.325 5.5 14"/><path fill="#253f4d" d="M145 420c-1.136 8.663-1.634 17.739-2 26.5l-2.5 1.5c-17.049-12.052-32.052-23.861-44.5-41l13-10c8.041 9.08 23.21 25.256 36 23"/><path fill="#243d4b" d="M927 410c-11.217 14.732-26.779 32.984-45 36.5-.544-8.138-.825-17.523-2-25.5 13.498.686 27.233-12.434 36-22z"/><path fill="#4a899d" d="M156 403c-1.819 7.296-2.503 16.004-3 23.5-3.319 50.043 3.428 104.94 18.5 152.5 19.922-42.518 47.029-82.961 81.5-115 4.02-3.737 8.957-8.549 13-12 4.595-3.922 35.293-24.38 36-26.5 1.067-3.201-1.812-7.17-1-10.5 2.334-1.439 4.679-2.633 7-4 1.04 3.121 5.678 15.138 5 17.5-1.606 5.591-24.665 6.009-11 19.5-4.594 3.109-9.541 6.679-14 10l-4.5-11-47 37-.5 3.5 10 6.5c-30.946 30.684-57.07 67.794-74 108-1.341.988-.769 1.87-2 2-19.9-66.83-25.334-131.454-18-201 1.907-1.047 2.877-.07 4 0"/><path fill="#213543" d="M170 425c2.852 16.249 5.531 79.749 32.5 72 8.014-2.303 31.903-31.125 40.5-39 1.614-1.478 5.175-3.272 6-4l4 10c-34.471 32.039-61.578 72.482-81.5 115-15.072-47.56-21.819-102.457-18.5-152.5.497-7.496 1.181-16.204 3-23.5 1.963.123 2.386-1.072 2.5-1 4.96 3.138 4.787 20.604 11.5 23"/><path fill="url(#c)" d="M691 485c29.169 58.952 26.455 126.114-9 182-19.359 30.516-55.283 58.237-88 73-137.878 62.216-296.76-28.2-284-185.5 1.329-16.378 15.654-71.074 28.5-80.5 30.905-22.676 105.618-49.811 143.5-57 37.151-7.05 120.579-10.331 155.5 3 16.932 6.464 45.362 48.552 53.5 65M387 653c12.792 19.53 27.237 35.244 48.5 47 22.325 12.344 47.048 18.053 72.5 19-.102.016.343 1.87-.5 2-14.157 2.192-28.697 3.032-43 4-1.681-.394-1.9 1.444-1.5 2.5 1.701 4.491 42.734 12.896 49 13.5 66.237 6.38 116.516-10.049 152-67.5 28.34-45.885 33.363-90.544 14-141.5-11.872-31.243-35.506-61.019-68.5-71-3.605-1.09-10.312.593-14.5-1-2.791-1.062-8.222-7.42-11.5-9-12.796-6.168-29.131-12.849-43.5-11-14.108-3.09-30.588-4.896-45-4-62.798-.12-122.662 55.439-131 117.5-5.089 37.876 2.489 68.186 23 99.5" style="fill:url(#c)"/>/&gt;<path fill="#668e99" d="m776 434-6 10.5c-.893-.63-2.856-.451-3-.5-4.755-1.626-20.349-17.088-26-21l9-10c10.177 7.15 16.82 13.755 26 21"/><path fill="#496c78" d="M266 452c-1.93-2.702-6.407-5.652-4-9 13.025-10.415 24.72-19.192 39-28-.812 3.33 2.067 7.299 1 10.5-.707 2.12-31.405 22.578-36 26.5"/><path fill="#5f93a2" d="M749 437c9.314 9.02 11.93 6.464 4 18a319 319 0 0 0-34-25.5l1-13.5c10.286 6.725 20.051 12.333 29 21"/><path fill="#547c87" d="M860 419c-1.125 10.051-3.012 20.102-5 30l-14-2c1.121-5.508 1.106-11.736 2-17 3.221.306 2.532-6.434 3-9z"/><path fill="#55a0b1" d="M797 713c1.836-2.783-1.099-3.347-1-3.5 4.417-6.851 12.36-15.384 16-22 11.851-21.54 27.984-55.429 34-79 .572-2.24 1.953-7.703 0-9.5 17.406-42.652 21.609-102.308 25-148 .786-10.593 1.857-21.614 4-32 8.19 104.573-10.637 211.317-78 294"/><path fill="#49899e" d="M329 432c-3.607 2.01-7.473 3.868-11 6-5.299-13.017-3.745-9.568 7.5-16z"/><path fill="#73a6b2" d="M264 434c-13.958 10.316-26.331 23.338-40 34-2.406 1.877-7.964 6.915-11 6.5l47.5-44.5z"/><path fill="#587c86" d="M707 451c37.802 33.901 77.229 69.711 106 112-32.519-33.211-65.371-63.835-108-84-8.518-16.545-20.253-33.93-34-46.5 12.923 3.05 24.866 11.635 36 18.5"/><path fill="#476974" d="M339 440c-30.929 30.402-74.052 56.633-108 90-12.985 12.762-25.229 26.054-38 39 38.912-58.71 88.245-104.222 151.5-136 .86 3.079-3.842 5.37-5.5 7"/><path fill="#25a9c7" d="M495 436c-106.111 6.597-166.097 128.15-108 217-20.511-31.314-28.089-61.624-23-99.5 8.338-62.061 68.202-117.62 131-117.5"/><path fill="#012d50" d="M540 440c16.307 3.572 30.884 10.262 45 19v1c-63.967-40.191-149.565-24.969-192 38-3.946 5.855-6.886 10.614-10 17-.807 1.655-1.289 3.382-2 5-26.271 59.812-11.246 125.232 41 165 29.265 22.275 62.091 31.467 99 28l-.5 3H534c-8.914 1.868-17.287 1.616-26 3-25.452-.947-50.175-6.656-72.5-19-21.263-11.756-35.708-27.47-48.5-47-58.097-88.85 1.889-210.403 108-217 14.412-.896 30.892.91 45 4"/><path fill="#476975" d="M785 468c11.476 11.343 11.381 22.79 32 24 19.261 1.13 18.243-13.77 20-29 1.39-4.793 3.01-11.137 4-16l14 2c-.428 2.129-.568 5.089-1 7-2.628 11.624-10.695 47.403-21.5 53-13.043 6.756-23.548-3.443-33.5-10-14.433-15.528-29.935-30.185-46-44 7.93-11.536 5.314-8.98-4-18 12.943 8.957 24.845 19.975 36 31"/><path fill="#0c5a86" d="M585 460c4.316 2.712 10.898 8.518 15 12l-6 9c-6.77-5.539-17.144-12.121-25-16-23.839-11.771-50.458-16.556-77-14-37.09 3.572-70.925 21.965-93 52-.615-1.861-4.011-4.347-6-5 42.435-62.969 128.033-78.191 192-38"/><path fill="#4483ae" d="m595 460-1 5c-2.988-2.193-5.85-4.05-9-6-14.116-8.738-28.693-15.428-45-19 14.369-1.849 30.704 4.832 43.5 11 3.278 1.58 8.709 7.938 11.5 9"/><path fill="#5a848c" d="m312 489-27 17c-15.782 7.842-33.226 22.629-47 34l-7-10c33.948-33.367 77.071-59.598 108-90-9.33 15.715-20.258 31.943-27 49"/><path fill="#315261" d="M262 443c-2.407 3.348 2.07 6.298 4 9-4.043 3.451-8.98 8.263-13 12l-4-10c4.792-4.231 7.958-6.968 13-11"/><path fill="#5f94a2" d="M288 458c-13.576 10.111-29.995 24.097-42 36l-10-6.5.5-3.5 47-37z"/><path fill="#0e365a" d="M716 448c12.068 8.152 24.012 16.424 35 26 11.399 9.934 23.073 21.591 33 33 24.575 28.244 44.425 61.518 59 96l-6-9c-28.399-55.953-71.129-105.832-124-140 .228-2.15.498-6.594 3-6"/><path fill="#1981a9" d="M569 465c-7.533 12.869 3.355 12.041 11.5 19 13.127 11.216 27.82 27.844 34.5 44 1.17 2.83 3.238 9.035 4 12-3.694-3.836-7.225-.065-9.5-1-.838-.345-5.973-14.103-7.5-16.5-11.019-17.298-29.906-35.504-49-43.5l4-8.5c-41.199-19.271-91.491-11.1-125 19.5-2.088.389-4.314 1.729-7 1 9.851-7.091 16.986-16.436 29.5-23 12.206-6.402 27.838-8.204 37.5-17 26.542-2.556 53.161 2.229 77 14"/><path fill="#2491b5" d="M492 451c-9.662 8.796-25.294 10.598-37.5 17-12.514 6.564-19.649 15.909-29.5 23-7.828 5.634-18.774 8.089-26 15-.143-.934.241-2.272 0-3 22.075-30.035 55.91-48.428 93-52"/><path fill="#6a919a" d="M713 454c52.871 34.168 95.601 84.047 124 140-8.053-6.148-13.793-14.926-21-22 3.779-3.41-.803-5.77-3-9-28.771-42.289-68.198-78.099-106-112 1.678 1.035 4.655 2.131 6 3"/><path fill="#5e93a2" d="M846 599c-.511 1.252-1.404 3.562-3 4-14.575-34.482-34.425-67.756-59-96l7.5-14c2.026 2.929 4.727 4.173 7.5 6 9.952 6.557 20.457 16.756 33.5 10 10.805-5.597 18.872-41.376 21.5-53 5.312-.919 15.863 1.49 17-5-3.391 45.692-7.594 105.348-25 148"/><path fill="#213e51" d="M594 465c103.168 75.712 64.143 224.991-60 251h-13.5l.5-3c30.808-2.894 58.982-15.729 82-36 49.626-43.704 61.54-112.813 27-170-7.905-13.087-18.373-25.131-30-35-4.102-3.482-10.684-9.288-15-12v-1c3.15 1.95 6.012 3.807 9 6"/><path fill="#084f7a" d="M553 479c-31.908-13.362-71.95-10.866-101 8-4.548-.27-14.958 2.06-20 3 33.509-30.6 83.801-38.771 125-19.5z"/><path fill="url(#d)" d="M678 532c-.46 15.654 2.516 31.788 1 47.5-1.835 19.028-17.662 54.489-28 71-3.879 6.195-24.569 28.096-25 30-2.596 11.468 19.387 4.423 24 2-30.623 23.59-68.721 41.754-105.5 53.5l-32.5 5c-6.266-.604-47.299-9.009-49-13.5-.4-1.056-.181-2.894 1.5-2.5 14.303-.968 28.843-1.808 43-4 .843-.13.398-1.984.5-2 8.713-1.384 17.086-1.132 26-3 124.143-26.009 163.168-175.288 60-251l1-5c4.188 1.593 10.895-.09 14.5 1 32.994 9.981 56.628 39.757 68.5 71" style="fill:url(#d)"/>/&gt;<path fill="#2c3a42" d="M817 492c14.169-3.518 16.463-16.806 20-29-1.757 15.23-.739 30.13-20 29"/><path fill="#2cc0de" d="M594 481c10.313 8.437 20.141 19.562 27 31 1.999 3.332 3.378 6.493 5 10l-11 6c-6.68-16.156-21.373-32.784-34.5-44-8.145-6.959-19.033-6.131-11.5-19 7.856 3.879 18.23 10.461 25 16"/><path fill="#07b3e2" d="M553 479c19.094 7.996 37.981 26.202 49 43.5 1.527 2.397 6.662 16.155 7.5 16.5 2.275.935 5.806-2.836 9.5 1 2.122 8.256 4.184 22.106 4 30.5-.109 4.983-5.521 37.383-9.5 38.5-9.247 2.596 2.453-22.901.5-27.5-.526-1.239-24.059-8.085-25-10-1.996-4.059 1.272-28.443-6.5-34.5 5.155 11.889-9.573 1.692-11.5 8.5l4 22c-1.167 2.535-19.646.77-22 7 2.104 1.328 2.187 2.67 3 4.5-9.792-10.815-21.202-14.015-35-16.5v-47c1.875-4.687 15.308 7.152 16 10 1.79-3.731-9.752-35.086-11.5-34.5l3.5 15.5c-12.975.938-5.734-13.524-9.5-21.5-2.486.002 3.458 24.008-5 20l-3-24c.09 31.326-6.613 34.543-8 1-1.747.004-.846 22.179-2.5 25l-1.5-7-20.5 3c-3.891-7.154-18.924-15.521-27-16 29.05-18.866 69.092-21.362 101-8"/><path fill="#1d79ab" d="m630 507-9 5c-6.859-11.438-16.687-22.563-27-31l6-9c11.627 9.869 22.095 21.913 30 35"/><path fill="#d7f1f4" d="M795.5 476c.913 1.395 4.44 2.917 3 5-.913-1.395-4.44-2.917-3-5"/><path fill="#62acc4" d="M813 563c2.197 3.23 6.779 5.59 3 9-27.499-26.993-62.108-46.103-97-62-2.136-6.142-6.536-15.445-10-21-1.254-3.193-2.447-6.984-4-10 42.629 20.165 75.481 50.789 108 84"/><path fill="#435574" d="M709 489c3.464 5.555 7.864 14.858 10 21 7.874 22.641 11.349 53.097 10 77-4.204-.185-3.026-.681-4 2.5-10.442 34.11-8.813 51.821-28 86.5-4.068-2.838-14.362-3.632-15-9 35.455-55.886 38.169-123.048 9-182 5.019 1.734 11.789-5.072 12.5-5 .525.053 4.513 7.417 5.5 9"/><path fill="#000d26" d="M556 579c11.345 25.535 11.477 39.513-11.5 59-7.922 6.719-20.868 7-16.5 21l-2 1.5c1.561-3.456-1.019-19.266-5-11-2.362 4.904 3.659 19.125-.5 24.5.106.043-.194-36.486-5.5-23.5-2.521 6.169 3.919 20.881-.5 27.5-1.224-3.847.408-31.803-5-30-2.919.974.479 25.34.5 29.5-1.738 1.63-1.898-.515-2-.5-1.48-4.904-.277-25.653-2-28.5-.916-1.513-16.329-4.144-19.5-5.5-41.992-17.948-52.562-72.396-20.5-105 7.315-4.072 11.065-10.919 15-18 .005.168.479 3.464 1.5 3 1.018-6.26 17.203-13.789 18.5-16 1.654-2.821.753-24.996 2.5-25 1.387 33.543 8.09 30.326 8-1l3 24c8.458 4.008 2.514-19.998 5-20 3.766 7.976-3.475 22.438 9.5 21.5l-3.5-15.5c1.748-.586 13.29 30.769 11.5 34.5-.692-2.848-14.125-14.687-16-10v47c13.798 2.485 25.208 5.685 35 16.5m-40.5-65c-.871 8.755-3.846 39.924-1.5 46.5.477 1.338 2.725 1.362 3.5 2.5zm-6 2c-.278-.062-4.284 2.758-4.5 3.5-.517 1.776-.57 35.24 0 37 .498 1.538 3.445 2.412 4.5 3.5 2.301-.769 2.41-43.465 0-44m-8 7c-8.109 9.244-9.12 21.831 0 31zm-11 59c-10.07 19.277-5.913 42.146 13 54-2.091-8.988 1.95-41.834-.5-47.5-.28-.647-10.853-5.07-12.5-6.5m16 7c-1.916 1.404-1.253 45.247-.5 47.5.355 1.061 4.88 3.984 5.5 3.5-1.828-8.435 2.075-43.579.5-48.5-.492-1.536-4.135-1.821-5.5-2.5m9 2c-2.34.81-2.546 47.256-1.5 49.5.629 1.349 3.715 2.141 4.5 1.5 1.917-1.566-.424-43.585.5-49.5-1.257-.002-3.32-1.562-3.5-1.5m6 4 2 46c15.202-8.441 11.22-37.843-2-46"/><path fill="#fefefe" d="M452 487c8.076.479 23.109 8.846 27 16 4.198 7.718 1.806 10.218 2 17-3.935 7.081-7.685 13.928-15 18-16.156 8.993-51.967 6.499-67-4-.232-.162-3.769-3.711-4-4-2.516-3.149-4.571-6.936-4-11 2.555-4.775 3.906-9.085 8-13 7.226-6.911 18.172-9.366 26-15 2.686.729 4.912-.611 7-1 5.042-.94 15.452-3.27 20-3"/><path fill="#51a2bd" d="M312 489c-1.598 4.043-2.641 8.825-4 13-3.435-7.47-17.157 1.097-23 4z"/><path fill="#79a9b2" d="M146 525c-.853-.174-1.25 1.275-2 1-1.684-.618-1.4-2.347-6-1-.115-2.763.559-18.177-.5-19L110 522c1.439-16.218 21.378-18.344 32.5-27 1.427.493 2.961 26.015 3.5 30"/><path fill="#78a9b2" d="m913 523-27.5-17c-1.154.948-.273 16.918-.5 20l-7-1a557 557 0 0 0 3.5-30c12.981 10.682 30.353 8.819 31.5 28"/><path fill="url(#e)" d="M308 502c-5.617 17.259-9.35 33.833-11 52l-2-1.5C280.313 673.604 370.023 785.089 491.5 797c43.774 4.292 78.248-1.692 117-22 62.782-32.901 113.55-98.004 118.5-170 .777-5.414 1.697-12.631 2-18 1.349-23.903-2.126-54.359-10-77 34.892 15.897 69.501 35.007 97 62 7.207 7.074 12.947 15.852 21 22l6 9c1.596-.438 2.489-2.748 3-4 1.953 1.797.572 7.26 0 9.5-6.016 23.571-22.149 57.46-34 79-3.64 6.616-11.583 15.149-16 22-.099.153 2.836.717 1 3.5-62.142 94.159-191.597 144.61-302 138 143.934.544 267.298-66.706 327-199.5 2.188-4.867 15.922-37.649 16-40 .126-3.806-4.151-4.155-7.5-5.5-9.839-3.952-26.173-7.238-36.5-9-2.316-3.216-14.481-16.51-18-13.5-1.365 1.167-.768 5.77-1 7.5-25.673 153.857-171.367 259.226-326.5 225-105.615-23.301-183.754-113.484-204-218l-56 21c32.147 109.868 118.562 196.956 232 222l54.5 9c-149.65-8.145-262.907-104.639-305-246 1.231-.13.659-1.012 2-2 2.843-2.096 2.334-2.197 4-5 21.12-18.531 40.293-39.079 62-57 13.774-11.371 31.218-26.158 47-34 5.843-2.903 19.565-11.47 23-4" style="fill:url(#e)"/>/&gt;<path fill="#1589bf" d="M399 503c.241.728-.143 2.066 0 3-4.094 3.915-5.445 8.225-8 13-21.598 40.366-17.576 92.971 12 128 4.089 6.436 8.574 9.984 14 15 26.501 24.501 59.866 34.685 96 33 21.444-1 43.539-8.157 62-19 .805 3.819-1.867 5.157-4 8-1.657 2.209-7.272 9.272-9.5 10-1.665.544-3.676-1.752-6-1-5.679 1.839-11.237 4.237-17 6-.614.188-4.441 3.847-5 4-1.697.466-1.038-3.032-5-2-31.337 8.158-47.003 12.311-79-1L422 685c-52.246-39.768-67.271-105.188-41-165l7-.5-5-4.5c3.114-6.386 6.054-11.145 10-17 1.989.653 5.385 3.139 6 5"/><path fill="#0587c2" d="M501 507c-1.297 2.211-17.482 9.74-18.5 16-1.021.464-1.495-2.832-1.5-3-.194-6.782 2.198-9.282-2-17l20.5-3z"/><path fill="#defbfc" d="M138 525c.027.659-.035 1.341 0 2l-24 15.5c-1.505 8.245 21.183-11.016 24-10.5.225 2.766.739 5.344 1 8-2.44 2.388-21.646 11.155-22 12.5-.706 2.68 4.9 20.138 5 24.5-.135-.003-.462 1.755-2.5 1-3.377-1.681-10.052-49.785-9.5-56l27.5-16c1.059.823.385 16.237.5 19"/><path fill="#d8fafc" d="M913 523c.392 6.55-5.117 52.742-8.5 55-2.058.927-3.318-1.005-3.5-1 .808-4.556 5.989-21.129 5-24.5-.589-2.009-19.059-10.261-22-12.5.549-3.966.686-9.738 1-14 .227-3.082-.654-19.052.5-20z"/><path fill="#19a6d6" d="M630 507c34.54 57.187 22.626 126.296-27 170-3.83-.151-6.389-2.367-10.5-2-.677.061-12.392 3.696-13 4-2.825 1.413-3.472 8.613-8.5 5 2.133-2.843 4.805-4.181 4-8 53.557-31.457 77.606-96.487 51-154-1.622-3.507-3.001-6.668-5-10z"/><path fill="#03b9ee" d="m515.5 514 2 49c-.775-1.138-3.023-1.162-3.5-2.5-2.346-6.576.629-37.745 1.5-46.5"/><path fill="#24acd4" d="M381 520c.711-1.618 1.193-3.345 2-5l5 4.5z"/><path fill="#05b2e2" d="M509.5 516c2.41.535 2.301 43.231 0 44-1.055-1.088-4.002-1.962-4.5-3.5-.57-1.76-.517-35.224 0-37 .216-.742 4.222-3.562 4.5-3.5"/><path fill="#bbfbff" d="M395 530c-6.055 12.206-8.84 25.41-10 39-1.854 21.707.641 35.8 8 56 1.678 4.607 7.642 18.288 10 22-29.576-35.029-33.598-87.634-12-128-.571 4.064 1.484 7.851 4 11"/><path fill="#2fe9f9" d="M626 522c26.606 57.513 2.557 122.543-51 154-18.461 10.843-40.556 18-62 19l-1-5c5.178-.314 10.392-1.083 15.5-2-5.666-1.68-4.593-3.665-4.5-9 6.963-1.216 13.429-2.952 20-5.5-2.645-.827-14.689-13.504-15-14.5-4.368-14 8.578-14.281 16.5-21 22.977-19.487 22.845-33.465 11.5-59-.813-1.83-.896-3.172-3-4.5 2.354-6.23 20.833-4.465 22-7l-4-22c1.927-6.808 16.655 3.389 11.5-8.5 7.772 6.057 4.504 30.441 6.5 34.5.941 1.915 24.474 8.761 25 10 1.953 4.599-9.747 30.096-.5 27.5 3.979-1.117 9.391-33.517 9.5-38.5.184-8.394-1.878-22.244-4-30.5-.762-2.965-2.83-9.17-4-12z"/><path fill="#03b4e5" d="M501.5 523v31c-9.12-9.169-8.109-21.756 0-31"/><path fill="#719aa5" d="m144 526 4 45.5c-.352.815-3.194 1.184-4 1.5-1.425-11.05-3.907-21.883-5-33-.261-2.656-.775-5.234-1-8-.068-.834.076-3.576 0-5-.035-.659.027-1.341 0-2 4.6-1.347 4.316.382 6 1"/><path fill="#224354" d="M138 652c-2.753-4.48-3.088-6.75-5-11 5.18-2.513-.474-12.824-2-18l26-6.5c-2.649-8.159-5.429-16.33-8-24.5-.831-2.641-2.556-15.312-4.5-16-6.029 1.862-12.457 2.269-18.5 4l-2-3c3.76-.302 16.792-2.743 20-4 .806-.316 3.648-.685 4-1.5l-4-45.5c.75.275 1.147-1.174 2-1 6.482 47.963 17.619 94.51 38 138.5-.638 1.512-26.364 3.966-29.5 3.5-.473-.07-7.6-2.737-8-3-1.077-.709-7.342-10.116-8.5-12"/><path fill="#4e7481" d="M885 526c-.314 4.262-.451 10.034-1 14-.237 1.709-.87 2.147-1 3-.514 3.383-5.154 27.474-6.5 28-.427.167-4.777-1.904-6.5-1 3.411-15.028 5.799-29.75 8-45z"/><path fill="#6ab0c1" d="M138 527c.076 1.424-.068 4.166 0 5-2.817-.516-25.505 18.745-24 10.5z"/><path fill="#49707d" d="M238 540c-21.707 17.921-40.88 38.469-62 57 5.628-9.469 10.899-18.794 17-28 12.771-12.946 25.015-26.238 38-39z"/><path fill="#1981a9" d="M399 534c-4.155 11.173-5.962 23.083-6 35h-8c1.16-13.59 3.945-26.794 10-39 .231.289 3.768 3.838 4 4"/><path fill="#4ca7d2" d="m512 741 32.5-5c36.779-11.746 74.877-29.91 105.5-53.5-4.613 2.423-26.596 9.468-24-2 .431-1.904 21.121-23.805 25-30 10.338-16.511 26.165-51.972 28-71 1.516-15.712-1.46-31.846-1-47.5 19.363 50.956 14.34 95.615-14 141.5-35.484 57.451-85.763 73.88-152 67.5"/><path fill="url(#f)" d="M466 538c-32.062 32.604-21.492 87.052 20.5 105 3.171 1.356 18.584 3.987 19.5 5.5 1.723 2.847.52 23.596 2 28.5-7.257 1.075-10.107-.494-15.5-1-.315-.03-5.703 2.107-6 2-.619-.224-1.432-3.876-2-4-2.035-.445-7.551.53-11-2l.5 5c-29.24-9.412-54.979-29.199-69-57-7.9-15.665-12.056-33.429-12-51 .038-11.917 1.845-23.827 6-35 15.033 10.499 50.844 12.993 67 4" style="fill:url(#f)"/>/&gt;<path fill="#31b0c9" d="M144 573c-3.208 1.257-16.24 3.698-20 4-.652.052-1.343.014-2 0-.1-4.362-5.706-21.82-5-24.5.354-1.345 19.56-10.112 22-12.5 1.093 11.117 3.575 21.95 5 33"/><path fill="#2eafc9" d="M901 577c-3.227.08-4.484-.6-7-1-2.424-.385-15.467-2.907-16-4.5l5-28.5c.13-.853.763-1.291 1-3 2.941 2.239 21.411 10.491 22 12.5.989 3.371-4.192 19.944-5 24.5"/><path fill="#335361" d="m894 576-2 3c-4.791-1.094-9.543-2.615-14.5-3-1.554.83-2.752 14.62-3.5 17-2.423 7.706-5.145 16.479-8 24-2.191 5.771-20.048 42.885-23 45.5-1.782 1.579-5.329 2.976-6 0 15.514-29.063 25.719-60.422 33-92.5 1.723-.904 6.073 1.167 6.5 1 1.346-.526 5.986-24.617 6.5-28l-5 28.5c.533 1.593 13.576 4.115 16 4.5"/><path fill="#f4f7f6" d="M297 554c-1.078 11.865-2.047 24.151 0 36-2.756 49.969 36.556 117.222 73.5 149C497.777 848.479 703.195 770.867 727 605c-4.95 71.996-55.718 137.099-118.5 170-38.752 20.308-73.226 26.292-117 22C370.023 785.089 280.313 673.604 295 552.5Z"/><path fill="#51a6d5" d="M393 569c-.056 17.571 4.1 35.335 12 51l-12 5c-7.359-20.2-9.854-34.293-8-56z"/><path fill="#5696a5" d="m149 592-27 2c-.921-4.181-1.568-8.437-3-12.5.481-1.124 5.917-1.19 7-1.5 6.043-1.731 12.471-2.138 18.5-4 1.944.688 3.669 13.359 4.5 16"/><path fill="#44879a" d="M892 579c2.118.484 11.604.972 12 1.5-.115 5-1.87 9.723-3 14.5l-27-2c.748-2.38 1.946-16.17 3.5-17 4.957.385 9.709 1.906 14.5 3"/><path fill="#10212d" d="M605 762c41.262-19.538 69.854-45.974 92-86 19.187-34.679 17.558-52.39 28-86.5.974-3.181-.204-2.685 4-2.5-.303 5.369-1.223 12.586-2 18-23.805 165.867-229.223 243.479-356.5 134-36.944-31.778-76.256-99.031-73.5-149 .029-.525.689-10.809 3-9.5 7.122 153.795 164.716 247.926 305 181.5"/><path fill="#04beea" d="M490.5 582c1.647 1.43 12.22 5.853 12.5 6.5 2.45 5.666-1.591 38.512.5 47.5-18.913-11.854-23.07-34.723-13-54"/><path fill="#a9dde7" d="M794 597c11.568 16.064 7.783 50.249-4 65.5-6.535 8.459-19.745 9.393-20-4-.241-12.679 3.227-54.303 5-67.5.232-1.73-.365-6.333 1-7.5 3.519-3.01 15.684 10.284 18 13.5"/><path fill="#06c8ef" d="M506.5 589c1.365.679 5.008.964 5.5 2.5 1.575 4.921-2.328 40.065-.5 48.5-.62.484-5.145-2.439-5.5-3.5-.753-2.253-1.416-46.096.5-47.5"/><path fill="#03cef2" d="M515.5 591c.18-.062 2.243 1.498 3.5 1.5-.924 5.915 1.417 47.934-.5 49.5-.785.641-3.871-.151-4.5-1.5-1.046-2.244-.84-48.69 1.5-49.5"/><path fill="#6797a3" d="M794 597c10.327 1.762 26.661 5.048 36.5 9 3.349 1.345 7.626 1.694 7.5 5.5-.078 2.351-13.812 35.133-16 40C762.298 784.294 638.934 851.544 495 851c-6.774-.026-13.278-.634-20-1l-54.5-9c-113.438-25.044-199.853-112.132-232-222l56-21c20.246 104.516 98.385 194.699 204 218 155.133 34.226 300.827-71.143 326.5-225-1.773 13.197-5.241 54.821-5 67.5.255 13.393 13.465 12.459 20 4 11.783-15.251 15.568-49.436 4-65.5M253.5 701c-11.734 1.23 8.465 25.118 11.5 28.5 6.846 7.628 50.212 46.124 46 18z"/><path fill="#47bfd6" d="M149 592c2.571 8.17 5.351 16.341 8 24.5l-26 6.5c-2.775-9.412-6.891-19.424-9-29z"/><path fill="#30afc8" d="M901 595c-.843 3.562-7.543 27.343-9.5 28l-25.5-6c2.855-7.521 5.577-16.294 8-24z"/><path fill="#0ad7f5" d="M521.5 595c13.22 8.157 17.202 37.559 2 46z"/><path fill="#78bce9" d="M405 620c14.021 27.801 39.76 47.588 69 57 1.242.4 4.001.344 6 1l-2 10c-9.759-1.573-19.111-5.078-28.5-8L417 662c-5.426-5.016-9.911-8.564-14-15-2.358-3.712-8.322-17.393-10-22z"/><path fill="#21c6ec" d="M528 659c.311.996 12.355 13.673 15 14.5-6.571 2.548-13.037 4.284-20 5.5-7.768 1.357-31.069.206-32.5 1-1.687.936-.271 7.312-3 8-1.929-2.208 1.081-6.031.5-7.5-.683-1.728-5.886-1.806-8-2.5-1.999-.656-4.758-.6-6-1l-.5-5c3.449 2.53 8.965 1.555 11 2 .568.124 1.381 3.776 2 4 .297.107 5.685-2.03 6-2 5.393.506 8.243 2.075 15.5 1 .102-.015.262 2.13 2 .5-.021-4.16-3.419-28.526-.5-29.5 5.408-1.803 3.776 26.153 5 30 4.419-6.619-2.021-21.331.5-27.5 5.306-12.986 5.606 23.543 5.5 23.5 4.159-5.375-1.862-19.596.5-24.5 3.981-8.266 6.561 7.544 5 11z"/><path fill="#07b3e2" d="M478 688c10.765 1.735 23.108 2.661 34 2l1 5c-36.134 1.685-69.499-8.499-96-33l32.5 18c9.389 2.922 18.741 6.427 28.5 8"/><path fill="#254e79" d="M697 676c-22.146 40.026-50.738 66.462-92 86l-11-22c32.717-14.763 68.641-42.484 88-73 .638 5.368 10.932 6.162 15 9"/><path fill="#37bcd7" d="M603 677c-23.018 20.271-51.192 33.106-82 36-36.909 3.467-69.735-5.725-99-28l27.5 15c31.997 13.311 47.663 9.158 79 1 3.962-1.032 3.303 2.466 5 2 .559-.153 4.386-3.812 5-4 5.763-1.763 11.321-4.161 17-6 2.324-.752 4.335 1.544 6 1 2.228-.728 7.843-7.791 9.5-10 5.028 3.613 5.675-3.587 8.5-5 .608-.304 12.323-3.939 13-4 4.111-.367 6.67 1.849 10.5 2"/><path fill="#65d8f5" d="M523 679c-.093 5.335-1.166 7.32 4.5 9-5.108.917-10.322 1.686-15.5 2-10.892.661-23.235-.265-34-2l2-10c2.114.694 7.317.772 8 2.5.581 1.469-2.429 5.292-.5 7.5 2.729-.688 1.313-7.064 3-8 1.431-.794 24.732.357 32.5-1"/><path fill="#9cc9d4" d="m253.5 701 57.5 46.5c4.212 28.124-39.154-10.372-46-18-3.035-3.382-23.234-27.27-11.5-28.5"/></svg>