<svg xmlns="http://www.w3.org/2000/svg" width="1024" height="1024"><defs><linearGradient id="a" x1="448.384" x2="638.887" y1="149.577" y2="163.346" gradientUnits="userSpaceOnUse"><stop offset="0%" style="stop-color:#68c6dd"/><stop offset="55.497%" style="stop-color:#158fb4"/><stop offset="100%" style="stop-color:#016892"/></linearGradient></defs><defs><linearGradient id="b" x1="794.657" x2="778.014" y1="257.178" y2="392.155" gradientUnits="userSpaceOnUse"><stop offset="0%" style="stop-color:#b9cbd5"/><stop offset="100%" style="stop-color:#96afbc"/></linearGradient></defs><defs><linearGradient id="c" x1="456.39" x2="572.822" y1="206.183" y2="509.612" gradientUnits="userSpaceOnUse"><stop offset="0%" style="stop-color:#f8fafb"/><stop offset="38.462%" style="stop-color:#b2c4ce"/><stop offset="100%" style="stop-color:#7c98a6"/></linearGradient></defs><defs><linearGradient id="d" x1="488.125" x2="531.505" y1="272.507" y2="442.045" gradientUnits="userSpaceOnUse"><stop offset="0%" style="stop-color:#00405f"/><stop offset="100%" style="stop-color:#0acaeb"/></linearGradient></defs><defs><linearGradient id="e" x1="442.078" x2="651.082" y1="557.809" y2="778.565" gradientUnits="userSpaceOnUse"><stop offset="0%" style="stop-color:#76c5d6"/><stop offset="100%" style="stop-color:#4fa2b6"/></linearGradient></defs><defs><linearGradient id="f" x1="605.513" x2="688.398" y1="862.844" y2="867.204" gradientUnits="userSpaceOnUse"><stop offset="0%" style="stop-color:#1a9bc1"/><stop offset="100%" style="stop-color:#006a94"/></linearGradient></defs><defs><linearGradient id="g" x1="357.268" x2="409.268" y1="864.966" y2="865.13" gradientUnits="userSpaceOnUse"><stop offset="0%" style="stop-color:#1ba0c5"/><stop offset="100%" style="stop-color:#01739d"/></linearGradient></defs><path fill="#066389" d="M652 168c-1.483-2.075-11.88-14.033-15-17.5-4.317-4.796-13.711-16.861-19-12.5-53.282-45.408-140.782-50.666-198.5-13-25.865 16.879-66.889 58.378-58.5 91-4.004-.783-2.03 1.433-4 3-14.596-18.614 21.469-65.832 35.5-79 71.427-67.032 207.096-58.067 259.5 28"/><path fill="#51d8ec" d="M618 138c10.273 8.755 23.819 25.464 31 37l-3-1c-29.037-49.011-96.519-74.097-151-70-56.511 4.249-107.787 34.861-123 92-.073.275-2.948 4.111-1.5 5 5.946-1.376 11.596-3.436 17.5-5 1.831 1.773.258 6.013 1.5 7 1.391 1.106 23.517-8.901 25.5-5l-54 18c-8.389-32.622 32.635-74.121 58.5-91 57.718-37.666 145.218-32.408 198.5 13"/><path fill="#fafdfc" d="M373 197c-.359-.175-1.156.115-1-1 15.213-57.139 66.489-87.751 123-92l2.5 3c-33.006 4.477-77.237 21.823-97.5 49.5-2.265 3.094-5.31 12.032-6 13-6.718 9.42-16.088 16.728-21 27.5"/><path fill="url(#a)" d="M646 174c5.309 8.961 8.348 19.211 13 28.5-1.6 2.514-3.255.05-5-.5-47.647-15.028-86.947-25.915-138-27-38.499-.818-79.39 3.868-116.5 14-5.32 1.452-23.239 9.585-26.5 8 4.912-10.772 14.282-18.08 21-27.5.69-.968 3.735-9.906 6-13 20.263-27.677 64.494-45.023 97.5-49.5l-2.5-3c54.481-4.097 121.963 20.989 151 70m-142.5-66c-17.927-2.374-87.154 28.311-97.5 44.5-2.055 3.216-5.919 9.467 1.5 8.5 3.363-.438 4.029-6.269 5-6 1.646.456 5.057 15.489 20 10 7.793-2.863 11.909-18.105 16.5-24.5 12.318-17.159 35.09-27.051 55.5-30.5 1.299-1.464.609-1.787-1-2m-91 52c-.291-.015-4.597 2.973-5 3-3.343.227-5.686-2.037-6-2-11.707 1.396-2.898 18.928 10 16 7.955-1.806 6.413-16.719 1-17" style="fill:url(#a)"/>/&gt;<path fill="#fdfefd" d="M503.5 108c1.609.213 2.299.536 1 2-20.41 3.449-43.182 13.341-55.5 30.5-4.591 6.395-8.707 21.637-16.5 24.5-14.943 5.489-18.354-9.544-20-10-.971-.269-1.637 5.562-5 6-7.419.967-3.555-5.284-1.5-8.5 10.346-16.189 79.573-46.874 97.5-44.5"/><path fill="#01334c" d="M652 168c13.477 18.857 24.614 41.67 8 62-4.188-1.742 1.342-4.8-.5-7-1.574-1.88-36.197-15.529-41-17-23.785-7.287-47.818-10.129-72.5-12-62.516-4.739-127.089-.113-183.5 29-1.17.029-3.56-2.165-4.5-3-.448-.398-.553-.43-1-1 1.97-1.567-.004-3.783 4-3l54-18c59.936-13.11 123.965-14.68 184-1 21.166 4.823 42.858 10.648 61.5 22 7.673-14.164-3.821-31.665-11.5-44-7.181-11.536-20.727-28.245-31-37 5.289-4.361 14.683 7.704 19 12.5 3.12 3.467 13.517 15.425 15 17.5"/><path fill="#154e63" d="M263 289c.156.223-.087 1.377 0 2-3.616.072-3.764.798-7-3.5-13.988-18.578-12.108-70.029-15-93.5-2.45-19.886-3.532-10.607-7 1-15.607 52.227-27.202 122.618-26 177 .218 9.855.94 15.846 2 25 1.122 9.686 1.803 32.514 10.5 39 7.741 5.773 30.875 7.083 40.5 10-.511.183-1.14-.05-1 1-10.471-2.63-36.638-2.356-44.5-9-5.739-4.85-12.511-34.251-13.5-42.5-8.415-70.191 14.442-144.254 33-211-31.481-8.271-19.229-54.334 11.5-44.5 5.145 1.646 12.283 10.302 13.5 15.5 5.161 22.034-17.308 24.897-18 31 5.043 34.359.544 73.136 21 102.5m-44-132c-6.329 36.181 60.618 13.665 32-11-11.922-10.275-29.241-4.774-32 11"/><path fill="#0a364d" d="m800 225-3 1c-2.392-10.71-4.656-22.641-8-33-.705-2.183-.53-4.616-2-7-.384-.623.057-3.299-2.5-3-3.889.8-3.733 43.672-4.5 50.5-2.171 19.336-5.37 39.509-14 57-3.799 4.43-2.853.591-5 .5.09-.622-.164-1.71 0-2 12.668-22.321 21.421-74.532 20-100.5-.487-8.889-11.936-7.42-16-17-18.451-43.489 60.073-39.99 39 1-3.593 6.989-14.55 10.162-15 11-1.016 1.891 9.707 36.24 11 41.5m-35-68c-1.714 15.403 12.771 23.386 26.5 17 12.709-5.912 14.657-27.683-.5-32-10.984-3.129-24.606 2.471-26 15"/><path fill="#14bee3" d="M251 146c-2.262 7.705-3.185 19.47-13.5 21-13.986 2.075-8.782-12.647-18.5-10 2.759-15.774 20.078-21.275 32-11m-18.5 2c-9.624 2.459-3.579 18.245 8 12 7.623-4.111 1.1-14.325-8-12"/><path fill="#16c1e4" d="M791 142c-6.573 2.529 2.905 4.001 4 8.5 2.192 9.003-8.126 18.132-16.5 16.5-6.806-1.326-5.399-12.76-13.5-10 1.394-12.529 15.016-18.129 26-15m-12.5 6c-5.251 1.724-5.608 12.083 2 13 13.345 1.609 10.134-16.985-2-13"/><path fill="#0174a0" d="M765 157c8.101-2.76 6.694 8.674 13.5 10 8.374 1.632 18.692-7.497 16.5-16.5-1.095-4.499-10.573-5.971-4-8.5 15.157 4.317 13.209 26.088.5 32-13.729 6.386-28.214-1.597-26.5-17"/><path fill="#01719d" d="M219 157c9.718-2.647 4.514 12.075 18.5 10 10.315-1.53 11.238-13.295 13.5-21 28.618 24.665-38.329 47.181-32 11"/><path fill="#edfafc" d="M232.5 148c9.1-2.325 15.623 7.889 8 12-11.579 6.245-17.624-9.541-8-12"/><path fill="#eef8fa" d="M778.5 148c12.134-3.985 15.345 14.609 2 13-7.608-.917-7.251-11.276-2-13"/><path fill="#fcfefe" d="M412.5 160c5.413.281 6.955 15.194-1 17-12.898 2.928-21.707-14.604-10-16 .314-.037 2.657 2.227 6 2 .403-.027 4.709-3.015 5-3"/><path fill="#038ab6" d="M649 175c7.679 12.335 19.173 29.836 11.5 44-18.642-11.352-40.334-17.177-61.5-22-.389-3.78-7.699-1.709-9-4.5-.319-.685-.136-7.076.5-7.5 2.734-1.824 55.732 16.1 63.5 17 1.745.55 3.4 3.014 5 .5-4.652-9.289-7.691-19.539-13-28.5z"/><path fill="#daf5f8" d="m516 175-55.5 4c-24.632 4.035-48.46 10.631-72.5 17-5.904 1.564-11.554 3.624-17.5 5-1.448-.889 1.427-4.725 1.5-5-.156 1.115.641.825 1 1 3.261 1.585 21.18-6.548 26.5-8 37.11-10.132 78.001-14.818 116.5-14"/><path fill="#1bb8db" d="M654 202c-7.768-.9-60.766-18.824-63.5-17-.636.424-.819 6.815-.5 7.5 1.301 2.791 8.611.72 9 4.5-60.035-13.68-124.064-12.11-184 1-1.983-3.901-24.109 6.106-25.5 5-1.242-.987.331-5.227-1.5-7 24.04-6.369 47.868-12.965 72.5-17l55.5-4c51.053 1.085 90.353 11.972 138 27"/><path fill="#aac4d0" d="M241 194c-3.092 11.869 1.683 86.129 8 91.5 1.664 1.415 2.794-1.341 3.5-.5 4.739 5.651 3.195 9.988 3.5 10.5 1.466 2.463 5.166.675 6 3 .419 1.168-7.118 20.279-8 23.5-9.544 34.847-9.416 67.086 1 102-1.074-2.294-4.921-12.596-5.5-13-4.651-3.242-32.666-4.858-39.5-14-1.06-9.154-1.782-15.145-2-25l4-52.5L234 195c3.468-11.607 4.55-20.886 7-1m-6.5 43c-6.94 39.329-3.747 79.756 2 119z"/><path fill="#edf2f6" d="M787 186c-.405 1.201-2.955 4.233-3 4.5-5.392 31.687 1.156 69.716-13 101-1.262 2.788-6.864 6.524-7 7-.204.712 2.574 12.162 3 14.5-5.756 1.479-3.161-6.956-5.5-8-1.638-.732-7.804 3.555-10 4-4.464.905-11.539-2.524-13.5 3-1.146-7.953-3.499-16.36-6-24 9.827-.333 18.84 2.569 29 3 2.147.091 1.201 3.93 5-.5 8.63-17.491 11.829-37.664 14-57 .767-6.828.611-49.7 4.5-50.5 2.557-.299 2.116 2.377 2.5 3"/><path fill="url(#b)" d="M789 193c-.126 14.124 5.25 28.543 8 42.5 3.734 18.951 5.657 48.638 10 68 .058.259 3.14 7.393 4 3.5 3.026 28.36 5.198 60.529 2 89-9.017 3.751-29.148 16.334-38 12.5-.279-.121 3.361-1.581-3-3l.5-7.5-5.5 13c6.978-31.709 6.834-56.159 2-88-.488-3.217-1.406-6.736-2-10-.426-2.338-3.204-13.788-3-14.5.136-.476 5.738-4.212 7-7 14.156-31.284 7.608-69.313 13-101 .045-.267 2.595-3.299 3-4.5 1.47 2.384 1.295 4.817 2 7m1.5 91c2.93 40.577-5.237 80.539-13 120 5.819-18.628 11.317-38.014 13.5-57.5 1.299-11.596 3.978-49.136 2-59-.535-2.667.129-1.934-2.5-3.5" style="fill:url(#b)"/>/&gt;<path fill="#0f6681" d="M546 194c.175 1.055-1.069 5.815-1.5 6-1.164.498-20.765-3.85-25-4-63.096-2.24-78.499 20.048-130 34-3.216.871-25.869 4.764-27 4-1.136-.767-.096-3.109-.5-4-1.253-2.765-2.437-7.042-4-10 .94.835 3.33 3.029 4.5 3 56.411-29.113 120.984-33.739 183.5-29"/><path fill="#ebf4f5" d="M797 226c5.82 26.06 11.168 54.456 14 81-.86 3.893-3.942-3.241-4-3.5-4.343-19.362-6.266-49.049-10-68-2.75-13.957-8.126-28.376-8-42.5 3.344 10.359 5.608 22.29 8 33"/><path fill="#f3f7f9" d="M263 291c8.364-.167 17.544-5.575 25-6-3.322 13.552-7.059 28.043-8 42-2.854 3.296-6.534 10.022-10.5 12-4.627 2.308-15.588 1.435-16.5 3.5-.596 1.35-.974 25.799-1 29.5-.086 12.099 1.499 23.984 1 36-5.812-28.722-5.359-57.421 1-86 .882-3.221 8.419-22.332 8-23.5-.834-2.325-4.534-.537-6-3-.305-.512 1.239-4.849-3.5-10.5-.706-.841-1.836 1.915-3.5.5-6.317-5.371-11.092-79.631-8-91.5 2.892 23.471 1.012 74.922 15 93.5 3.236 4.298 3.384 3.572 7 3.5"/><path fill="#0b4e68" d="M660 230c2.366.984 2.797.704 5 1-1.461 7.399-6.966 2.023-7.5 2-11.161-.472-20.616.393-31-5H619c-54.222-18.029-82.517-37.652-144.5-27-36.655 6.299-67.467 29.186-104 35-9.961 1.585-28.026-3.499-33.5 8.5-3.347 7.338-6.575 51.462-7 62-2.382 59.043 3.177 122.83 23 178.5l-1 1c-4.067-2.69-18.667-6.235-24.5-9-7.363-3.49-17.645-9.242-23.5-15 7.867 2.923 15.743 8.857 24 8 4.69 2.329 13.52 7.992 17 6.5-8.031-19.034-13.022-40.067-16-60.5-3.391-23.264-4.647-48.344-5-72-.259-17.368 1.562-34.656 1-52 1.821-.553.821-3.492 1-5 .491-4.145 4.486-28.093 4-29.5-.892-2.58-4.984.526-3.5-5.5-1.843 2.271-3.02 3.431-5.5 5-3.961 2.505-3.185.234-7 5-6.601-.975-15.66 11.985-18 17 .744-2.687-.097-5.243 0-5.5.808-2.134 7.92-6.558 9-9.5 5.457-3.982 12.351-5.924 16.5-9 7.146-5.298 10.858-17.405 17-21 6.982-4.087 16.019-2.144 23.5-4 .404.891-.636 3.233.5 4 1.131.764 23.784-3.129 27-4 51.501-13.952 66.904-36.24 130-34 4.235.15 23.836 4.498 25 4 .431-.185 1.675-4.945 1.5-6 24.682 1.871 48.715 4.713 72.5 12 4.803 1.471 39.426 15.12 41 17 1.842 2.2-3.688 5.258.5 7"/><path fill="#f1f7f9" d="M208 372c-1.202-54.382 10.393-124.773 26-177l-22 124.5z"/><path fill="url(#c)" d="M619 228c7.332 2.438 14.755 5.79 22.5 7 10.24 1.6 38.633-1.223 43.5 7.5 3.471 6.222 4.467 34.76 5 43.5 4.099 67.216-3.557 134.521-22 199-1.723 2.649-1.906 1.497-4 2-21.702 5.214-72.178 9.355-96 11-.526-1.762-3.751-.616-.5-3 4.867-3.569 16.708-6.352 23-10 17.606-10.208 39.193-28.693 46.5-48 6.338-9.078 10.683-16.769 15-27 25.089-59.464 12.498-139.621-48-172-.158-.115.158-.886 0-1-55.107-39.491-141.097-40.106-193 5-2.857 1.917-17.654 12.545-10 13-1.735.388-5.807 4.187-7 6-2.384 3.623-3.572 6.564-3 11-4.818-2.702-8.63 4.935-11 8.5-20.128 30.273-23.642 64.415-19 99.5-6.037-2.926-1.383-16.008-6-18.5.976 59.49 42.267 114.598 97 136L353 485c-19.823-55.67-25.382-119.457-23-178.5.425-10.538 3.653-54.662 7-62 5.474-11.999 23.539-6.915 33.5-8.5 36.533-5.814 67.345-28.701 104-35 61.983-10.652 90.278 8.971 144.5 27" style="fill:url(#c)"/>/&gt;<path fill="#6e95a6" d="M604 237c-9.47.467-19.555-8.409-28.5-12-57.311-23.007-109.864-16.366-161.5 16-.93.583-2.869.912-3 1 51.903-45.106 137.893-44.491 193-5"/><path fill="#d5e4eb" d="M604 237c.158.114-.158.885 0 1 .163.118.964 1.211 2 2-4.73 4.573.111 5.138 0 9-4.5-5.398-12.247 2.825-9 6.5 3.4 3.848 9.545-.244 13-.5 7.448-.552 11.827 3.528 15 11 1.106 6.876-1.853 9.86-6.5 14-1.777 1.583-9.073 1.491-6.5 5 8.173 11.07 17.028 23.956 19 38-1.42-1.666-.519-3.131-2.5-3l-1.5 5c-13.956-47.694-58.614-83.648-108-88l1.5-2c-35.904-4.204-71.829 12.066-97.5 36.5l-5-.5c.343-2.702-.658-3.514-1-5-.68-2.952-.555-5.519-4-7l2-2c4.608 2.696 9.256-1.648 8-6.5-.514-1.985-4.786-3.283-5-3.5-2.051-2.083-4.481-2.892-4-6 51.636-32.366 104.189-39.007 161.5-16 8.945 3.591 19.03 12.467 28.5 12m-96.5-19c-8.51 2.421-3.744 14.33 8 11 8.556-2.426 4.333-14.509-8-11m107 49c-1.672.163-3.996 5.216-1 6 2.49.651 5.277-6.416 1-6"/><path fill="#3d6775" d="M507.5 218c12.333-3.509 16.556 8.574 8 11-11.744 3.33-16.51-8.579-8-11m0 2c-2.611-.589-3.007 7.392 0 7 2.144-.279 1.611-6.637 0-7"/><path fill="#8baeba" d="M507.5 220c1.611.363 2.144 6.721 0 7-3.007.392-2.611-7.589 0-7"/><path fill="#184b5c" d="m782 443-1-1c4.085-.908 19.547-5.773 22-8.5 3.984-4.428 9.223-30.583 10-37.5 3.198-28.471 1.026-60.64-2-89-2.832-26.544-8.18-54.94-14-81l3-1c11.93 48.528 39.095 166.08 8 208.5-5.882 8.025-17.234 7.601-26 9.5"/><path fill="#06364d" d="M665 231c6.205.835 12.405-.369 18.5 3 5.593 3.091 10.777 14.781 16.5 19-1.447-.593-3.56-2.384-5-2-1.186.316-2.077-.079-3 1.5 2.256 14.283 2.768 29.061 3 43.5-4.058.602-.853-12.699-5-10-.533-8.74-1.529-37.278-5-43.5-4.867-8.723-33.26-5.9-43.5-7.5-7.745-1.21-15.168-4.562-22.5-7h7.5c10.384 5.393 19.839 4.528 31 5 .534.023 6.039 5.399 7.5-2"/><path fill="#d2e1e8" d="M519 237c-40.587-3.576-80.378 16.226-105 48-47.896 54.142-30.86 130.515 26 170 2.619 6.46 9.672 8.223 15 11 14.593 7.607 30.486 13.644 48 15-3.893 6.297 4.764 13.926-9 14-39.341-3.233-73.288-23.614-99.5-52-3.128 1.18 17.292 20.562 19 22 20.583 17.319 46.799 29.241 73.5 33-1.835.176-5.575 1.509-8 1.5l7 3.5c-2.51-.283-4.533-.571-7-1-55.891-9.727-111.477-63.947-120-120.5-.104-.691 2.187-.088 2-1.5-4.642-35.085-1.128-69.227 19-99.5 2.37-3.565 6.182-11.202 11-8.5 1.741 13.513 25.141 13.65 27-1l5 .5c25.671-24.434 61.596-40.704 97.5-36.5zM367.5 371c-2.802 10.052 5.263 12.684 12.5 6.5z"/><path fill="#052b41" d="M519 237c49.386 4.352 94.044 40.306 108 88 .257.878.768 1.128 1 2-2.399 2.308-4.583-4.423-5-5.5C587.141 228.839 480.347 210 414 285c24.622-31.774 64.413-51.576 105-48"/><path fill="#f7fafb" d="m234.5 237 2 119c-5.747-39.244-8.94-79.671-2-119"/><path fill="url(#d)" d="M628 327c26.301 98.741-78.094 178.839-170.5 138-1.172-.518-1.817 1.323-2.5 1-.861-.407-12.244-9.086-15-11-56.86-39.485-73.896-115.858-26-170 66.347-75 173.141-56.161 209 36.5.417 1.077 2.601 7.808 5 5.5m-179 25c-8.675.328-3.783 19.445-2 25.5 14.166 48.093 81.505 61.89 114 24 43.334-50.528-16.058-124.554-73-90.5-5.61-27.61-41.692-36.351-58-12.5-13.456 19.68-5.432 48.845 19 53.5m150-59c17.648 33.121 32.138 51.838 23 93-13.347 60.122-84.968 95.794-142 77-42.89-14.134-72.113-50.854-76.5-96 1.773 7.01-4.292 8.938-4.5 9.5-.451 1.22 5.813 22.036 7 25 12.106 30.241 39.582 54.449 70 64.5 63.613 21.02 128.989-14.472 148-78 10.808-36.118 2.618-68.923-25-95-.142-.134-.036-3.451-2.5-3-.994 1.321 2.408 2.828 2.5 3" style="fill:url(#d)"/>/&gt;<path fill="#d6e7ef" d="M652 410c1.104-10.945 6.244-21.075 8-32 9.091-56.57-9.196-103.868-54-138-1.036-.789-1.837-1.882-2-2 60.498 32.379 73.089 112.536 48 172"/><path fill="#79929f" d="M660 378h-3c.049-.862.26-4.997-.5-5l-.5 3.5c-1.323 1.834-2.508 1.195-3 1.5-.305-10.464-13.241-11.552-12-1-.185-.077-2.649 1.116-4 0 1.721-12.276 1.968-44.651-6-54-1.972-14.044-10.827-26.93-19-38 10.095-4.633 18.286-6.552 13-19-3.173-7.472-7.552-11.552-15-11-3.165-1.824-4.682-1.554-4-6 .111-3.862-4.73-4.427 0-9 44.804 34.132 63.091 81.43 54 138"/><path fill="#d2e5ec" d="M418 247c-6.604-.653-7.834 7.172-3 10l-2 2h-1c-2.945-2.652-2.208-2.118-6-3-1.281-.298-2.466-1.567-5-1-7.654-.455 7.143-11.083 10-13 .131-.088 2.07-.417 3-1-.481 3.108 1.949 3.917 4 6"/><path fill="#2b677d" d="M418 247c.214.217 4.486 1.515 5 3.5 1.256 4.852-3.392 9.196-8 6.5-4.834-2.828-3.604-10.653 3-10"/><path fill="#173f51" d="M606 249c-.682 4.446.835 4.176 4 6-3.455.256-9.6 4.348-13 .5-3.247-3.675 4.5-11.898 9-6.5"/><path fill="#004b6f" d="M700 253c2.028.831 3.735 2.871 4 3-.555 2.007.948 1.901 1 2 9.518 18.134 14.607 33.625 15 54.5l-3-1c3.798 8.728.067 64.262 2 67 .543.769 8.964.555 11 1.5-2.875 25.242-9.347 53.052-19 76.5l1.5 2.5c.286-2.045 3.126-1.944 4.5-2 1.637-.067 3.898.358 6 0-4.607 1.71-7.382 4.534-11 7-2.93.168-8.101 2.723-11 4l6.5-7c-4.142 1.933-8.308 4.24-12.5 6-.469-3.704-1.326-2.003-1-6 5.394-8.625 8.781-21.158 11-31.5 12.448-58.011 8.755-122.456-10-178.5 1.44-.384 3.553 1.407 5 2"/><path fill="#025e88" d="M695 251c18.755 56.044 22.448 120.489 10 178.5-2.219 10.342-5.606 22.875-11 31.5.556-6.83 6.976-21.021 8-25.5l2-17.5c4.397-7.635 1.714-17.894 5-23.5-1.525-4.893 2.861-26.443 0-29-.96-.858-9.429-.804-10 0-1.697 2.388-.586 35.084-3 41-1.208-4.744-2.637-10.72-3-15.5-2.278-30.017 2.505-63.577 2-95-.232-14.439-.744-29.217-3-43.5.923-1.579 1.814-1.184 3-1.5"/><path fill="#0a7297" d="M326 287c-3.113 1.343-1.019 4.427-1 5 .562 17.344-1.259 34.632-1 52-5.085 21.362-2.357 45.812 2 68.5.127.661 1.037 5.786 3 3.5 2.978 20.433 7.969 41.466 16 60.5-3.48 1.492-12.31-4.171-17-6.5-3.079-1.529-7.267-3.196-10-5-.504-6.582-7.417-11.681-10-16.5-10.575-19.729-10.312-50.342-17-72.5-1.286-6.297-.914-12.628-1-19l5-.5c-4.41 5.045 3.592 10.985 6 7 .97-1.605-1.204-31.955-1-37.5.134-3.638-.226-7.373 0-11 3.641.322 6.959-1.308 9 2-.29 3.995-.867 8.033-1 12-.538 16.026-.452 43.033 2 58.5.296 1.867.542 8.303 3.5 7.5l-2.5-56.5c3.741-3.158 6.471-4.248 8 1-.766-3.693.697-7.24 1-10.5 1.698-18.273 4.439-41.199 5-59 .142-4.504 2.773-14.596-4-13 2.48-1.569 3.657-2.729 5.5-5-1.484 6.026 2.608 2.92 3.5 5.5.486 1.407-3.509 25.355-4 29.5"/><path fill="#1299b2" d="M406 256c-2.257.976-3.859 1.73-6 3-1.266.751-4.251 1.97-5 3l-1-1c1.193-1.813 5.265-5.612 7-6 2.534-.567 3.719.702 5 1"/><path fill="#4edeee" d="M412 259c.702.632 4.923 6.577 5 7 1.989 10.98-13.411 21.163-22 9 19.903 8.568 26.157-16.569 5-16 2.141-1.27 3.743-2.024 6-3 3.792.882 3.055.348 6 3"/><path fill="#012e43" d="M731 284c.401 1.065.637 2.892 1 4 2.501 7.64 4.854 16.047 6 24 .904 6.274 1.663 13.703 2 20 .264 4.931.008 10.051 0 15-.018 10.562-.932 20.546-2 31-.777 7.603-1.699 15.48-3 23-1.978 11.431-4.375 23.99-8 35-2.225 6.757-6.301 14.842-10 21-1.374.056-4.214-.045-4.5 2l-1.5-2.5c9.653-23.448 16.125-51.258 19-76.5 2.482-21.794 3.861-95.395-10-111.5-3.971-4.615-9.673-7.767-15-10.5-.052-.099-1.555.007-1-2 16.729 8.134 20.132 9.736 27 28"/><path fill="#29c0e1" d="M321 257c6.773-1.596 4.142 8.496 4 13-1.883-.75-2.822 3.531-3 4.5-2.324 12.68-3.788 32.608-5 46-.196 2.17-1.413 9.73 3 8.5-.303 3.26-1.766 6.807-1 10.5-1.529-5.248-4.259-4.158-8-1l2.5 56.5c-2.958.803-3.204-5.633-3.5-7.5-2.452-15.467-2.538-42.474-2-58.5 2.895.16 2.72-1.343 3-3.5 1.391-10.72.137-23.899 2-35 .53-3.159 6.966-20.666 5.5-21.5-6.898 14.149-8.343 32.032-9.5 48-2.041-3.308-5.359-1.678-9-2 1.025-16.429 3.426-39.788 14-53 3.815-4.766 3.039-2.495 7-5"/><path fill="#006693" d="M730 380c-2.036-.945-10.457-.731-11-1.5-1.933-2.738 1.798-58.272-2-67l3 1c-.393-20.875-5.482-36.366-15-54.5 5.327 2.733 11.029 5.885 15 10.5 13.861 16.105 12.482 89.706 10 111.5"/><path fill="#e1f8fd" d="M395 275c-3.09-4.376-3.354-8.386 0-13 .749-1.03 3.734-2.249 5-3 21.157-.569 14.903 24.568-5 16"/><path fill="#1c6478" d="M417 266c-.077-.423-4.298-6.368-5-7h1c3.445 1.481 3.32 4.048 4 7"/><path fill="#70ddf2" d="M314 262c-10.574 13.212-12.975 36.571-14 53-.226 3.627.134 7.362 0 11-6.272-.427-8.432 5.418-10-3 .758-13.852 2.318-30.695 6-44 2.34-5.015 11.399-17.975 18-17"/><path fill="#16546e" d="M395 262c-3.354 4.614-3.09 8.624 0 13 8.589 12.163 23.989 1.98 22-9 .342 1.486 1.343 2.298 1 5-1.859 14.65-25.259 14.513-27 1-.572-4.436.616-7.377 3-11z"/><path fill="#097090" d="M305 264c-1.08 2.942-8.192 7.366-9 9.5-.097.257.744 2.813 0 5.5-9.862 21.136-6.538 53.076-8.5 76-2.996.001 1.424-49.011 1.5-52.5.018-.842-3.008 1.607-3-5 .004-3.184 6.12-12.735 2-12.5-7.456.425-16.636 5.833-25 6-.087-.623.156-1.777 0-2 5.753-1.367 22.356-3.862 26.5-7 3.751-2.84 6.775-11.632 15.5-18"/><path fill="#164d5f" d="M612 285c-2.573-3.509 4.723-3.417 6.5-5 4.647-4.14 7.606-7.124 6.5-14 5.286 12.448-2.905 14.367-13 19"/><path fill="#f5fcfc" d="M614.5 267c4.277-.416 1.49 6.651-1 6-2.996-.784-.672-5.837 1-6"/><path fill="#76ddf3" d="M308 329c.133-3.967.71-8.005 1-12 1.157-15.968 2.602-33.851 9.5-48 1.466.834-4.97 18.341-5.5 21.5-1.863 11.101-.609 24.28-2 35-.28 2.157-.105 3.66-3 3.5"/><path fill="#71d4e9" d="M325 270c-.561 17.801-3.302 40.727-5 59-4.413 1.23-3.196-6.33-3-8.5 1.212-13.392 2.676-33.32 5-46 .178-.969 1.117-5.25 3-4.5"/><path fill="#0e5167" d="M290 323c-.593 10.841-.149 23.042 0 34 .086 6.372-.286 12.703 1 19-.033-.108-1.685.383-2-.5-2.469-6.916 4.75-6.125-8-8.5-1.055-13.067-1.883-26.908-1-40 .941-13.957 4.678-28.448 8-42 4.12-.235-1.996 9.316-2 12.5-.008 6.607 3.018 4.158 3 5-.076 3.489-4.496 52.501-1.5 52.5 1.962-22.924-1.362-54.864 8.5-76-3.682 13.305-5.242 30.148-6 44"/><path fill="#89c0d4" d="M761 289c-.164.29.09 1.378 0 2-10.16-.431-19.173-3.333-29-3-.363-1.108-.599-2.935-1-4z"/><path fill="#dfeaef" d="M790.5 284c2.629 1.566 1.965.833 2.5 3.5 1.978 9.864-.701 47.404-2 59-2.183 19.486-7.681 38.872-13.5 57.5 7.763-39.461 15.93-79.423 13-120"/><path fill="#fefefe" d="M488 311c.868 4.274 1.846 11.363 1 15.5-.752 3.677-8.889 13.175-9 14-.173 1.289 12.034 16.452-.5 19.5-11.17 2.716-10.958-8.317-12-9-.789-.517-11.23 2.385-18.5 1-24.432-4.655-32.456-33.82-19-53.5 16.308-23.851 52.39-15.11 58 12.5"/><path fill="#022639" d="M695 296c.505 31.423-4.278 64.983-2 95-1.815 16.326-3.496 32.951-7 49-2.756 12.621-7.163 24.716-11 37-.861.932-2.785 2.649-1.5 4 1.112.712 16.403-6.761 19-8 2.502-1.194 4.086-3.055 8.5-5 2.899-1.277 8.07-3.832 11-4-5.098 3.474-10.067 7.033-15.5 10-4.601 2.512-25.987 10.574-27.5 12l-1-1c18.443-64.479 26.099-131.784 22-199 4.147-2.699.942 10.602 5 10"/><path fill="#3cc1db" d="M325 292c-.019-.573-2.113-3.657 1-5-.179 1.508.821 4.447-1 5"/><path fill="#20c2e5" d="M599 293c-.092-.172-3.494-1.679-2.5-3 2.464-.451 2.358 2.866 2.5 3m25 95-2-2c9.138-41.162-5.352-59.879-23-93 27.618 26.077 35.808 58.882 25 95"/><path fill="#01334c" d="M449 352c7.27 1.385 17.711-1.517 18.5-1 1.042.683.83 11.716 12 9 12.534-3.048.327-18.211.5-19.5.111-.825 8.248-10.323 9-14 .846-4.137-.132-11.226-1-15.5 56.942-34.054 116.334 39.972 73 90.5-32.495 37.89-99.834 24.093-114-24-1.783-6.055-6.675-25.172 2-25.5"/><path fill="#d0dce3" d="M767 313c.594 3.264 1.512 6.783 2 10v66c.25-3.532-.008-11.81 0-16 .01-5.327 1.976-17.605-3-20 3.407-17.402-14.914-12.882-26-21-.337-6.297-1.096-13.726-2-20 1.961-5.524 9.036-2.095 13.5-3 2.196-.445 8.362-4.732 10-4 2.339 1.044-.256 9.479 5.5 8"/><path fill="#9dedf6" d="M631 323c7.968 9.349 7.721 41.724 6 54-3.724 26.562-24.476 58.165-45 75-23.773 19.5-57.685 32.481-88.5 27-.946.499-.307 1.688-.5 2-17.514-1.356-33.407-7.393-48-15 .683.323 1.328-1.518 2.5-1 92.406 40.839 196.801-39.259 170.5-138-.232-.872-.743-1.122-1-2l1.5-5c1.981-.131 1.08 1.334 2.5 3"/><path fill="#1b2a33" d="M253 408c1.496 7.395 4.166 17.075 7 24 1.88 4.594 3.432 9.196 6 13.5l9 8.5c-5.927-1.672-8.065-5.258-15-7-.14-1.05.489-.817 1-1 .747-.268 2.833-.187 3-1.5.141-1.11-7.793-17.922-9-20.5-10.416-34.914-10.544-67.153-1-102-6.359 28.579-6.812 57.278-1 86"/><path fill="#23b5da" d="M300 326c-.204 5.545 1.97 35.895 1 37.5-2.408 3.985-10.41-1.955-6-7l-5 .5c-.149-10.958-.593-23.159 0-34 1.568 8.418 3.728 2.573 10 3"/><path fill="#09121d" d="M767 411c-2.524 11.47-5.492 23.105-11 33.5.807 1.04 22.178-1.873 25-2.5l1 1c-9.648 2.09-19.341 3.889-29 6 4.479-11.913 9.167-23.44 12-36 1.049-4.649 2.409-9.242 3-14 .427-3.44.753-6.512 1-10v-66c4.834 31.841 4.978 56.291-2 88"/><path fill="#cfdee5" d="M281 367c.468 5.795 1.136 11.271 2 17l-3.5-10c-9.34 3.332-16.798 6.625-25.5 0-.419-1.053.681-2.438-2-2 .026-3.701.404-28.15 1-29.5.912-2.065 11.873-1.192 16.5-3.5 3.966-1.978 7.646-8.704 10.5-12-.883 13.092-.055 26.933 1 40"/><path fill="#b1c3cd" d="M766 353c-.413 2.107-.009 3.634-2.5 5-10.814 5.931-15.409-11.543-23.5-11 .008-4.949.264-10.069 0-15 11.086 8.118 29.407 3.598 26 21"/><path fill="#0c9ec6" d="M329 416c-1.963 2.286-2.873-2.839-3-3.5-4.357-22.688-7.085-47.138-2-68.5.353 23.656 1.609 48.736 5 72"/><path fill="#97adb8" d="M766 353c4.976 2.395 3.01 14.673 3 20-6.092.314-10.423 6.437-16.5 7-5.047.468-9.666-2.989-14.5-2 1.068-10.454 1.982-20.438 2-31 8.091-.543 12.686 16.931 23.5 11 2.491-1.366 2.087-2.893 2.5-5"/><path fill="#628795" d="M361 380c.187 1.412-2.104.809-2 1.5 8.523 56.553 64.109 110.773 120 120.5l1.5 4-9.5 2c-35.766.083-71.676 2-107.5 1-1.905-.796-5.473-14.814-7.5-18-.995-1.564-2.451-3.976-4-5l1-1 99 12.5c-54.733-21.402-96.024-76.51-97-136 4.617 2.492-.037 15.574 6 18.5"/><path fill="#004c71" d="M704 418c-1.861-.84-6.781-2.893-8.5-2-1.618.84-5.492 31.096-7.5 35.5l-2-11.5c3.504-16.049 5.185-32.674 7-49 .363 4.78 1.792 10.756 3 15.5 2.414-5.916 1.303-38.612 3-41 .571-.804 9.04-.858 10 0 2.861 2.557-1.525 24.107 0 29-3.286 5.606-.603 15.865-5 23.5"/><path fill="#073c53" d="M291 376c6.688 22.158 6.425 52.771 17 72.5 2.583 4.819 9.496 9.918 10 16.5-14.466-9.546-13.098-20.334-20-26-4.888-14.927-9.888-29.513-13-45-.669-3.332-1.491-6.623-2-10-.864-5.729-1.532-11.205-2-17 12.75 2.375 5.531 1.584 8 8.5.315.883 1.967.392 2 .5"/><path fill="#4addf4" d="m480 463-4 3c-30.418-10.051-57.894-34.259-70-64.5-1.187-2.964-7.451-23.78-7-25 .208-.562 6.273-2.49 4.5-9.5 4.387 45.146 33.61 81.866 76.5 96"/><path fill="#254654" d="M653 378c-7.536 4.679-7.161 1.017-12-1-1.241-10.552 11.695-9.464 12 1"/><path fill="#467385" d="m367.5 371 12.5 6.5c-7.237 6.184-15.302 3.552-12.5-6.5"/><path fill="#698794" d="M254 374c4.359 10.963 2.981 24.323 11.5 33 10.2.436 10.979-10.354 15-17l4.5 4c3.112 15.487 8.112 30.073 13 45-1.435-1.178-31.648-15.881-33.5-16-1.264-.081-4.893-.34-5.5.5l1 8.5c-2.834-6.925-5.504-16.605-7-24 .499-12.016-1.086-23.901-1-36 2.681-.438 1.581.947 2 2"/><path fill="#7f98a5" d="M657 378c-.68 11.853-10.327 29.474-16 40-8.466 7.185-14.268 19.884-22 28.5-6.541 7.288-14.209 13.658-22 19.5l-5-14c20.524-16.835 41.276-48.438 45-75 1.351 1.116 3.815-.077 4 0 4.839 2.017 4.464 5.679 12 1 .492-.305 1.677.334 3-1.5l.5-3.5c.76.003.549 4.138.5 5"/><path fill="#7c94a0" d="M769 373c-.008 4.19.25 12.468 0 16-.247 3.488-.573 6.56-1 10-5.02-1.516-9.528 3.358-14.5 4-6.319.816-12.43-.758-18.5-2 1.301-7.52 2.223-15.397 3-23 4.834-.989 9.453 2.468 14.5 2 6.077-.563 10.408-6.686 16.5-7"/><path fill="#9db3be" d="M283 384c.509 3.377 1.331 6.668 2 10l-4.5-4c-4.021 6.646-4.8 17.436-15 17-8.519-8.677-7.141-22.037-11.5-33 8.702 6.625 16.16 3.332 25.5 0z"/><path fill="#9cbdca" d="M660 378c-1.756 10.925-6.896 21.055-8 32-4.317 10.231-8.662 17.922-15 27-10.707 15.336-23.708 28.328-39 39l-4-3c20.21-14.05 35.413-33.501 47-55 5.673-10.526 15.32-28.147 16-40z"/><path fill="#b9f0f5" d="M624 388c-19.011 63.528-84.387 99.02-148 78l4-3c57.032 18.794 128.653-16.878 142-77z"/><path fill="#587683" d="M813 396c-.777 6.917-6.016 33.072-10 37.5-2.453 2.727-17.915 7.592-22 8.5-2.822.627-24.193 3.54-25 2.5 5.508-10.395 8.476-22.03 11-33.5l5.5-13-.5 7.5c6.361 1.419 2.721 2.879 3 3 8.852 3.834 28.983-8.749 38-12.5"/><path fill="#628392" d="M255 424c1.207 2.578 9.141 19.39 9 20.5-.167 1.313-2.253 1.232-3 1.5-9.625-2.917-32.759-4.227-40.5-10-8.697-6.486-9.378-29.314-10.5-39 6.834 9.142 34.849 10.758 39.5 14 .579.404 4.426 10.706 5.5 13"/><path fill="#65828e" d="M768 399c-.591 4.758-1.951 9.351-3 14l-3-2.5c-6.338 13.809-20.146 23.094-35 25.5 3.625-11.01 6.022-23.569 8-35 6.07 1.242 12.181 2.816 18.5 2 4.972-.642 9.48-5.516 14.5-4"/><path fill="#4f6d79" d="M765 413c-2.833 12.56-7.521 24.087-12 36-9.906 2.165-19.92 6.282-30 8-2.102.358-4.363-.067-6 0 3.699-6.158 7.775-14.243 10-21 14.854-2.406 28.662-11.691 35-25.5z"/><path fill="#003b5a" d="m704 418-2 17.5c-1.024 4.479-7.444 18.67-8 25.5-.326 3.997.531 2.296 1 6-4.902 2.058-16.65 6.374-20 10 3.837-12.284 8.244-24.379 11-37l2 11.5c2.008-4.404 5.882-34.66 7.5-35.5 1.719-.893 6.639 1.16 8.5 2"/><path fill="#5c8b9c" d="M594 473c-41.287 28.704-61.706 20.647-107 25-26.701-3.759-52.917-15.681-73.5-33-1.708-1.438-22.128-20.82-19-22 26.212 28.386 60.159 48.767 99.5 52 40.068 3.293 71.243-5.188 103-29 7.791-5.842 15.459-12.212 22-19.5 7.732-8.616 13.534-21.315 22-28.5-11.587 21.499-26.79 40.95-47 55"/><path fill="#4f7886" d="M298 439c6.902 5.666 5.534 16.454 20 26 2.733 1.804 6.921 3.471 10 5-8.257.857-16.133-5.077-24-8-11.276-4.19-18.084-4.921-29-8l-9-8.5c-2.568-4.304-4.12-8.906-6-13.5l-1-8.5c.607-.84 4.236-.581 5.5-.5 1.852.119 32.065 14.822 33.5 16"/><path fill="#678a99" d="M568 498c-3.353.232-7.707 3.046-8-2 13.136-4.317 26.751-12.15 38-20 15.292-10.672 28.293-23.664 39-39-7.307 19.307-28.894 37.792-46.5 48-6.292 3.648-18.133 6.431-23 10-3.251 2.384-.026 1.238.5 3"/><path fill="#9db5c0" d="m592 452 5 14c-31.757 23.812-62.932 32.293-103 29 13.764-.074 5.107-7.703 9-14 .193-.312-.446-1.501.5-2 30.815 5.481 64.727-7.5 88.5-27"/><path fill="#96edf6" d="M455 466c-5.328-2.777-12.381-4.54-15-11 2.756 1.914 14.139 10.593 15 11"/><path fill="#055173" d="M701 468c-4.414 1.945-5.998 3.806-8.5 5-2.597 1.239-17.888 8.712-19 8-1.285-1.351.639-3.068 1.5-4 3.35-3.626 15.098-7.942 20-10 4.192-1.76 8.358-4.067 12.5-6z"/><path fill="#add5df" d="M598 476c-11.249 7.85-24.864 15.683-38 20-22.335 7.341-50.611 9.634-74 7l-7-3.5c2.425.009 6.165-1.324 8-1.5 45.294-4.353 65.713 3.704 107-25z"/><path fill="#1d6275" d="M669 486c-4.828 4.553-5.871 26.975-11 33-88.608-2.6-177.576-4.562-267-2-9.32-.472-20.659-.415-30 0l-5-26c2.027 3.186 5.595 17.204 7.5 18 35.824 1 71.734-.917 107.5-1 62.173-.145 124.281 1.283 186.5 1l6.5-22c2.094-.503 2.277.649 4-2z"/><path fill="#547987" d="m664 487-6.5 22c-62.219.283-124.327-1.145-186.5-1l9.5-2-1.5-4c2.467.429 4.49.717 7 1 23.389 2.634 51.665.341 74-7 .293 5.046 4.647 2.232 8 2 23.822-1.645 74.298-5.786 96-11"/><path fill="#146b87" d="M360 517c-.168.007-.071 2.954-1.5 3-18.078.578-80.452-4.894-92 2-2.271 1.356-3.199 3.933-4.5 6-2.014 3.199-3.306 6.295-4 10-3.394 18.116 1.006 39.003-2 57.5.323.462 8.763 1.233 11 2.5 16.222 9.19.855 22.131 0 27.5-.784 4.922 4.238 7.871 6 11.5-5.437 1.401-8.697-11.938-9.5-12-.78-.061-13.422 6.472-14 7-1.05.959 1.593 7.755 2 8 1.263.758 9.634-.701 12 0 .88.261.381 1.947.5 2l-2 1c-.76-.207-2.033.059-3 0-1.457-1.662-5.953-1.166-8-1-.892-.982-2.694-6.314-3-6.5-2.45-1.494-27.287 7.32-30 11.5-1.322.377-2.626-.229-4 1-.593-2.056-2.308-1.789-4-3l-5-7c-.041-.104-.529.152-1-2 2.106-.92 1.145-3.727-1-3 .393-16.065 36.179-24.886 47-34.5 4.857-22.576-11.082-80.478 22.5-83.5 15.7-1.413 67.557-1.554 83 0 2.57.259 2.561.705 4.5 2M214 625c-2.322 1.452-5.535 2.968-6 6-.273 1.776.716 6.517 2.5 7 3.33.902 30.056-11.821 35-12 3.319-.12 2.562 3.067 4 3 4.946-.232 19.927-11.693 20.5-18 .615-6.769-4.829-12.259-11.5-12-4.301.167-53.778 25.322-52.5 28.5z"/><path fill="#10546b" d="M771 602c.015.099-1.529.595 0 2-2.399-.809-4.403-1.726-7-2-14.354-4.802-25.458 4.647-11 17 12.531 10.706 28.031 11.434 42.5 19 .222.116.298 4.627 3 4 .448-.104 6.756-5.646 6.5-6.5s-3.076-2.866-4-3.5l5-5c3.636 5.471 1.719 8.792 1 15-.038.329.051.676 0 1-3.446 4.977-29.497.279-32.5-2-2.8-2.125.009-2.422-1.5-5-1.309-2.236-12.316-5.086-15.5-6l1.5-1.5-4.5-2.5c-.977.18-7.414 14.126-7.5 15.5-.213 3.394 2.004 3.298 2 3.5-.045 2.487.996 1.888 1 2 .023.659-.052 1.346 0 2 .052.657-1.698 7.054 0 12h-1c-1.316-4.977.512-10.257-5-9-.421-8.955 8.393-26.081 8-27.5-.152-.549-7.955-4.745-9-7-3.618-7.809 1.945-18.948 10-21.5 3.595.816 8.254-.525 12 .5 1.468-6.471-.06-13.171 0-19.5.106-11.244 1.872-40.442-3-49-.813-1.428-3.143-4.204-4.5-5-10.224-5.997-79.135-2.485-96.5-3l2.5-5 92 1c2.831.565 10.016 6.006 11.5 8.5 6.659 11.192 1.299 59.78 4 77.5"/><path fill="#95d2de" d="M658 519c.158.005.235.918 3 1 17.365.515 86.276-2.997 96.5 3 1.357.796 3.687 3.572 4.5 5-3.76-1.95-8.766-6.454-12-1-4.701-1.915-9.721-.453-14.5-1-56.543-6.475-125.24-2.785-184.5-3l33.5-4c-61.859-.353-124.151 3.217-186 1-.404-.014-4.658-2.856-7.5-3 89.424-2.562 178.392-.6 267 2"/><path fill="#acd8e0" d="M391 517c2.842.144 7.096 2.986 7.5 3 61.849 2.217 124.141-1.353 186-1l-33.5 4c-64.685-.235-129.385-.699-194 1-2.738-.095-8.66-2.81-10.5-3-8.806-.909-66.459-.489-74 1-3.848.76-6.813 5.092-10.5 6 1.301-2.067 2.229-4.644 4.5-6 11.548-6.894 73.922-1.422 92-2 1.429-.046 1.332-2.993 1.5-3 .333-.013.667.015 1 0 9.341-.415 20.68-.472 30 0"/><path fill="#fbfdfd" d="M357 524c32.756 1.135 71.335 1.179 106.5 2 60.388 1.409 120.986 5.753 181.5 2-10.605.434-31.451 4.592-42.5 5-105.181 3.887-210.768-1.649-316 2-20.165 5.339-14.615 42.93-17.5 59-.415 2.312-.962 1.895-1 2l-2-56.5-8-1.5c.694-3.705 1.986-6.801 4-10 3.687-.908 6.652-5.24 10.5-6 7.541-1.489 65.194-1.909 74-1 1.84.19 7.762 2.905 10.5 3"/><path fill="#c6eef3" d="M551 523c59.26.215 127.957-3.475 184.5 3 4.779.547 9.799-.915 14.5 1-.323.545 1.593 1.441 1 3-34.09-2.521-71.536-3.409-106-2-60.514 3.753-121.112-.591-181.5-2-35.165-.821-73.744-.865-106.5-2 64.615-1.699 129.315-1.235 194-1"/><path fill="url(#e)" d="M762 528c4.872 8.558 3.106 37.756 3 49-8.607 2.852-12.912 4.548-19 11-16.883 17.893-18.515 31.533-22 54.5-.145.954-2.859.046-3 1-1.055 7.106 1.87 22.761 4 30 4.066 13.818 13.378 19.028 10 35-2.601 12.295-14.945 22.059-26.5 25.5l-120 6-1.5 11c-102.126.055-204.328-.518-306.5 0-16.82-3.7-8.733-35.762-9.5-48 3.681-3.23 11.733-10.121 14-14 8.446 22.651 15.862 35.647 41.5 38 70.879 6.506 191.651-5.665 259-29 91.079-31.557 131.889-79.678 165.5-168 .593-1.559-1.323-2.455-1-3 3.234-5.454 8.24-.95 12 1" style="fill:url(#e)"/>/&gt;<path fill="#88cddd" d="M751 530c-33.611 88.322-74.421 136.443-165.5 168-67.349 23.335-188.121 35.506-259 29-25.638-2.353-33.054-15.349-41.5-38 8.907-15.241 7.933-49.355 5-66.5-2.047-11.965-5.45-29.411-21-28.5 2.885-16.07-2.665-53.661 17.5-59 105.232-3.649 210.819 1.887 316-2 11.049-.408 31.895-4.566 42.5-5 34.464-1.409 71.91-.521 106 2m-438.5 12c-10.583 1.214-34.656 10.831-20 23 11.652 9.675 51.713.662 65-5 4.675-1.992 9.998-4.195 11.5-9.5-1.091-8.863-48.725-9.392-56.5-8.5m-12 34c-8.848.675-17.039 14.641-13.5 22.5 4.73 10.505 19.608 4.427 22-6 1.988-8.664 1.879-17.292-8.5-16.5"/><path fill="#c3ebf3" d="M268 596c-.233.64.546 2.056-1 2-2.237-1.267-10.677-2.038-11-2.5 3.006-18.497-1.394-39.384 2-57.5l8 1.5z"/><path fill="#fdfefe" d="M312.5 542c7.775-.892 55.409-.363 56.5 8.5-1.502 5.305-6.825 7.508-11.5 9.5-13.287 5.662-53.348 14.675-65 5-14.656-12.169 9.417-21.786 20-23m-12 34c10.379-.792 10.488 7.836 8.5 16.5-2.392 10.427-17.27 16.505-22 6-3.539-7.859 4.652-21.825 13.5-22.5"/><path fill="#53a3b6" d="M765 577c-.06 6.329 1.468 13.029 0 19.5-3.746-1.025-8.405.316-12-.5-6.72-1.526-6.995-1.254-7-8 6.088-6.452 10.393-8.148 19-11"/><path fill="#3e90a5" d="M753 596c-8.055 2.552-13.618 13.691-10 21.5 1.045 2.255 8.848 6.451 9 7 .393 1.419-8.421 18.545-8 27.5.267 5.67 5.138 14.68 5 15.5-.179 1.062-10.335 13.408-7 19.5-1.226-1.71-1.2-2.456-1-4.5-6.43 6.817 2.41 19.319 8 25.5-.046.656.034 1.343 0 2-.453 8.626-.3 18.579-2 27-1.433 7.098-3.205 11.058-10.5 14-49.831.02-99.681-.027-149.5 0l1.5-11 120-6c11.555-3.441 23.899-13.205 26.5-25.5 3.378-15.972-5.934-21.182-10-35-2.13-7.239-5.055-22.894-4-30 .141-.954 2.855-.046 3-1 3.485-22.967 5.117-36.607 22-54.5.005 6.746.28 6.474 7 8"/><path fill="#5dafc1" d="M285 689c-2.267 3.879-10.319 10.77-14 14-.189.166-.806-.164-1 0-.243-6.449 12.073-14.41 13-18.5.146-.644-2.131-.351-2-1 2.929-14.533 5.694-18.41-5-30.5 2.341-9.053.373-9.051-3-16-1.762-3.629-6.784-6.578-6-11.5.855-5.369 16.222-18.31 0-27.5 1.546.056.767-1.36 1-2 .038-.105.585.312 1-2 15.55-.911 18.953 16.535 21 28.5 2.933 17.145 3.907 51.259-5 66.5"/><path fill="#43d8f2" d="M270 611c-3.629-1.529-4.615-.867-8 0-2.219-3.252 5.624-1.906 5-5.5-.379-2.18-6.639-2.77-8.5-2.5-2.456.356-40.935 19.77-44.5 22l-8 2.5c-1.278-3.178 48.199-28.333 52.5-28.5 6.671-.259 12.115 5.231 11.5 12"/><path fill="#38c7e0" d="M764 602c-3.701-.39-14.045 1.008-16 5-2.159 4.408 2.519 8.894 5 12-14.458-12.353-3.354-21.802 11-17"/><path fill="#0170a4" d="M764 602c2.597.274 4.601 1.191 7 2 6.617 2.232 31.296 17.427 35 23l-5 5c-5.747-3.942-20.128-7.447-27.5-11-8.69-4.189-16.368-10.683-25.5-14 1.955-3.992 12.299-5.39 16-5"/><path fill="#042134" d="M807 642c.719-6.208 2.636-9.529-1-15-3.704-5.573-28.383-20.768-35-23-1.529-1.405.015-1.901 0-2 13.528 8.663 51.454 18.344 36 40"/><path fill="#0496c7" d="M262 611c-16.532 4.232-35.281 21.633-54 20 .465-3.032 3.678-4.548 6-6 3.565-2.23 42.044-21.644 44.5-22 1.861-.27 8.121.32 8.5 2.5.624 3.594-7.219 2.248-5 5.5"/><path fill="#015786" d="M801 632c.924.634 3.744 2.645 4 3.5.256.854-6.052 6.396-6.5 6.5-2.702.627-2.778-3.884-3-4-14.469-7.566-29.969-8.294-42.5-19-2.481-3.106-7.159-7.592-5-12 9.132 3.317 16.81 9.811 25.5 14 7.372 3.553 21.753 7.058 27.5 11"/><path fill="#026899" d="M270 611c-.573 6.307-15.554 17.768-20.5 18-1.438.067-.681-3.12-4-3-4.944.179-31.67 12.902-35 12-1.784-.483-2.773-5.224-2.5-7 18.719 1.633 37.468-15.768 54-20 3.385-.867 4.371-1.529 8 0"/><path fill="#33798d" d="M273 637c3.373 6.949 5.341 6.947 3 16-1.23 4.758-6.936 11.968-11 15-.13-1.189-.121-2.806 0-4 .033-.33-.029-.669 0-1 8.483-4.797 9.062-16.525-1-21-.119-.053.38-1.739-.5-2-2.366-.701-10.737.758-12 0-.407-.245-3.05-7.041-2-8 .578-.528 13.22-7.061 14-7 .803.062 4.063 13.401 9.5 12"/><path fill="#2a6a7e" d="M773 636c-3.417 11.246-18.427-.735-24 9 .004-.202-2.213-.106-2-3.5.086-1.374 6.523-15.32 7.5-15.5l4.5 2.5-1.5 1.5c3.184.914 14.191 3.764 15.5 6"/><path fill="#091e39" d="M204 636c-.267-1.217-1.007-2.7-1-3 2.145-.727 3.106 2.08 1 3"/><path fill="#15b1d6" d="M251 642c-7.746.629-25.94 2.986-33 5 2.713-4.18 27.55-12.994 30-11.5.306.186 2.108 5.518 3 6.5"/><path fill="#061b28" d="M807 643c-.289 1.853-3.21 2.039-3 5.5.174 2.866 3.926 5.978 3 14-.52 4.504-5.983 11.329-6 12-.048 1.855 3.808 4.272 4 6 2.217 19.993-6.871 26.497-26 21.5 5.973-.688 13.96.289 17-2 3.31-2.492 4.207-5.818 5-10 2.983-15.741-5.66-14.526-19-17-10.221-1.896-32.173-6.968-35 6-.155-6.102-.238-6.189 5-11 .08-.073 1.181.14 1-1 2.556 2.048 44.399 6.222 47.5 5 3.765-1.483 4.824-15.565 3.5-19-1.007-2.612-1.926-3.801-4.5-5-6.396-2.98-44.641-9.293-49.5-1-.004-.112-1.045.487-1-2 5.573-9.735 20.583 2.246 24-9 1.509 2.578-1.3 2.875 1.5 5 3.003 2.279 29.054 6.977 32.5 2"/><path fill="#021a36" d="M210 645c-3.691-2.642-3.451-3.04-5-7z"/><path fill="#061c25" d="M251 642c2.047-.166 6.543-.662 8 1-3.852-.236-39.56 5.533-42.5 7-2.094 1.045-1.93 3.03-2.5 4-1.771 3.015-2.184 4.452-2 8 .31 5.999.484 7.106 6 10 .13.068-.39 1.718.5 2 5.141 1.631 40.259-6.081 46.5-10-.121 1.194-.13 2.811 0 4 .036.326-.066.687 0 1 .381 1.797 2.114 3.512 3 5 .752 1.264 1.303 2.698 2 4-.191 3.705 1.283 10.306-4 11 .363-.599.813-1.307 1-2 1.171-4.334.305-14.45-4.5-16-4.736-1.528-45.185 5.766-47.5 10h-2c.309-1.35 3.021-5.187 3-5.5-.06-.902-5.652-8.004-6-10-.559-3.204 1.741-15.479 4-17.5 1.374-1.229 2.678-.623 4-1 7.06-2.014 25.254-4.371 33-5"/><path fill="#092534" d="M264 642c10.062 4.475 9.483 16.203 1 21 .339-3.834 8.245-16.933-3-20z"/><path fill="#0380b5" d="M804 653h-20.5c.758 4.742 11.266-.041 14.5 3-13.655-.071-27.366.98-40.5-4l6.5 7c-3.92-1.254-12.926-5.811-14-10-.052-.654.023-1.341 0-2 4.859-8.293 43.104-1.98 49.5 1 2.574 1.199 3.493 2.388 4.5 5"/><path fill="#1bc8ed" d="M259 643c.967.059 2.24-.207 3 0 11.245 3.067 3.339 16.166 3 20-.029.331.033.67 0 1-6.241 3.919-41.359 11.631-46.5 10-.89-.282-.37-1.932-.5-2 14.437-3.402 54.125.537 47.5-22-.942-.688-3.966 3.27-5.5 4-.712-.752-1.788-4.375-2-4.5-2.206-1.293-37.789 6.186-44 4.5.57-.97.406-2.955 2.5-4 2.94-1.467 38.648-7.236 42.5-7"/><path fill="#048ac2" d="M260 654c-14.077 6.703-30.344 8.611-45.5 11 3.262-3.819 2.443-4.477-2.5-3-.184-3.548.229-4.985 2-8 6.211 1.686 41.794-5.793 44-4.5.212.125 1.288 3.748 2 4.5"/><path fill="#014f79" d="M764 659c4.838 1.548 36.889 6.508 39 3.5 3.074-4.379-1.192-6.48-5-6.5-3.234-3.041-13.742 1.742-14.5-3H804c1.324 3.435.265 17.517-3.5 19-3.101 1.222-44.944-2.952-47.5-5-.262-.21-2.77-5.331-3-6-1.698-4.946.052-11.343 0-12 1.074 4.189 10.08 8.746 14 10"/><path fill="#025a86" d="M218 672c-5.516-2.894-5.69-4.001-6-10 4.943-1.477 5.762-.819 2.5 3 15.156-2.389 31.423-4.297 45.5-11 1.534-.73 4.558-4.688 5.5-4 6.625 22.537-33.063 18.598-47.5 22"/><path fill="#154354" d="M749 661c.678 2.564 1.761 4.705 3 7-5.238 4.811-5.155 4.898-5 11 .044 1.723.233 11.358 2.5 11 2.257-.357-3.006-4.002 4.5-1 11.966 4.786 16.505 8.836 30.5 10 .717.06.274-2.024 1-2 3.286.109 7.4 1.68 10.5 3-3.04 2.289-11.027 1.312-17 2-2.209.254-8.3-1.273-9 .5-2.445 20.479 8.424 51.156-15.5 61.5h-129c-1.659.746-1.197 2.431-1.5 3-.053.099-1.557-.004-1 2-3.88-2.859-17.177-.115-22 1 .756-4.292-2.226-2.613-4.5-2-16.215 4.371-29.305 14.542-44 22l3.5 4c-4.113 4.165-11.158 12.268-5 18-.184.169-1.655 3.898-3 4-.965-8.048-1.272-14.909-.5-23-14.146 8.582-33.623 11.284-50 10-2.388-.187-25.278-4.429-26.5-5-.546-.255-7.254-8.417-8-9 21.802 14.379 50.844 15.232 75 6 12.549-4.796 29.638-18.47 38-29 .871-1.097 2.832-.945 2-4 56.779-.262 113.672-1.884 170.5-1 20.034-5.655 17.171-27.847 16.5-45-.448-11.444 2.895-22.102-13-16.5 2.222 8.365-2.778 6.805 4 12.5l-7-2c.034-.657-.046-1.344 0-2 .229-3.249 2.923-9.354 2-12.5-.174-.594-7.194-5.981-9-8.5-3.335-6.092 6.821-18.438 7-19.5.138-.82-4.733-9.83-5-15.5 5.512-1.257 3.684 4.023 5 9"/><path fill="#00679c" d="M798 656c3.808.02 8.074 2.121 5 6.5-2.111 3.008-34.162-1.952-39-3.5l-6.5-7c13.134 4.98 26.845 3.929 40.5 4"/><path fill="#4d9fb3" d="M270 703c-.825.698-2.132 1.334-3 2 .391-3.411 1.081-8.854 2-12 2.556-8.75 9.402-17.258-4-24-.066-.313.036-.674 0-1 4.064-3.032 9.77-10.242 11-15 10.694 12.09 7.929 15.967 5 30.5-.131.649 2.146.356 2 1-.927 4.09-13.243 12.051-13 18.5"/><path fill="#399cb4" d="M753 667c.181 1.14-.92.927-1 1-1.239-2.295-2.322-4.436-3-7h1c.23.669 2.738 5.79 3 6"/><path fill="#093146" d="M269 693c-5.39 3.34-9.784 5.407-16 7-.866.222-2.105-.202-3 0-14.911 3.356-35.978 10.515-39-10.5-.77-5.357 1.411-5.925 2-8.5h2c-.076.139-.981 2.835-1 3-.625 5.429 1.359 10.17 5 14 .745.784 2.277 3.924 2.5 4 6.157 2.083 40.341-6.129 44.5-13 5.283-.694 3.809-7.295 4-11 .015-.285 1.684-5.212-2-4-.886-1.488-2.619-3.203-3-5 13.402 6.742 6.556 15.25 4 24"/><path fill="#0db1db" d="m782 673-26.5 3-5.5 3c-4.182 4.047 4.403 6.164 4 10-7.506-3.002-2.243.643-4.5 1-2.267.358-2.456-9.277-2.5-11 2.827-12.968 24.779-7.896 35-6"/><path fill="#3ad4f0" d="M267 687c-2.091-3.46-.061-6.831-4-10-.097-.078-.708-1.778-1.5-2-7.877-2.209-38.027 6.978-47.5 9 .019-.165.924-2.861 1-3 2.315-4.234 42.764-11.528 47.5-10 4.805 1.55 5.671 11.666 4.5 16"/><path fill="#3f89a1" d="M270 678c-.697-1.302-1.248-2.736-2-4 3.684-1.212 2.015 3.715 2 4"/><path fill="#0177ae" d="m801 690-51-11 5.5-3 26.5-3c13.34 2.474 21.983 1.259 19 17"/><path fill="#0583bb" d="M263 677c-12.347 12.341-29.611 10.465-45.5 15l8.5 1.5-7 4.5c-3.641-3.83-5.625-8.571-5-14 9.473-2.022 39.623-11.209 47.5-9 .792.222 1.403 1.922 1.5 2"/><path fill="#02618f" d="M263 677c3.939 3.169 1.909 6.54 4 10-.187.693-.637 1.401-1 2-4.159 6.871-38.343 15.083-44.5 13-.223-.076-1.755-3.216-2.5-4l7-4.5-8.5-1.5c15.889-4.535 33.153-2.659 45.5-15"/><path fill="#005584" d="M801 690c-.793 4.182-1.69 7.508-5 10-3.1-1.32-7.214-2.891-10.5-3-.726-.024-.283 2.06-1 2-13.995-1.164-18.534-5.214-30.5-10 .403-3.836-8.182-5.953-4-10z"/><path fill="#367d91" d="M742 687c1.806 2.519 8.826 7.906 9 8.5.923 3.146-1.771 9.251-2 12.5-5.59-6.181-14.43-18.683-8-25.5-.2 2.044-.226 2.79 1 4.5"/><path fill="#377b8f" d="M269 693c-.919 3.146-1.609 8.589-2 12-2.688 2.064-5.994 7.947-10 9-.846.222-3.539 1.392-4 .5V700c6.216-1.593 10.61-3.66 16-7"/><path fill="#337587" d="M765 716c-3.339-.091-6.54-1.933-9-4-6.778-5.695-1.778-4.135-4-12.5 15.895-5.602 12.552 5.056 13 16.5"/><path fill="#1b6376" d="M253 700v14.5c.461.892 3.154-.278 4-.5-1.548 18.025-5.87 42.413 16.5 48 52.19-1.669 104.362-.032 156.5 0 49.271.03 98.756.228 148 0 .832 3.055-1.129 2.903-2 4-2.531-3.972-21.316-3.1-23.5-1-.616.593-1.958 11.831-4.5 16.5-1.376 2.526-9.649 11.287-12 12.5-15.088 7.788-46.402 6.152-61-2.5 6.664.221 1.262-1.675 0-3.5-2.019-2.919-5.34-6.968-6-10.5-.483-2.584 1.058-12.218.5-12.5-1.172-.592-21.502-.449-23.5 0-1.47.331-2.803-.539-4 1.5l16 17.5c-.273-.209-3.057-1.281-4-2-6.416-4.891-14.587-13.356-22.5-16-5.91-1.975-23.579-3.447-10.5 3l-3 2c-12.365-3.746-27.075-10.967-28 7h-2c.882-2.706 5.863-12.562 2.5-14-36.113-2.83-76.495 4.363-112 2-39.944-2.659-23.442-38.783-28.5-66 .895-.202 2.134.222 3 0m282 88c8.642-4.751 10.05-8.547 15-16.5-12.721-.897-28.165-.448-42-.5-10.216-.039-24.788-2.076-34-1-1.009.118-1.314-2.029-3 .5-1.208 29.986 46.261 27.253 64 17.5"/><path fill="#8ed8e6" d="M271 703c.767 12.238-7.32 44.3 9.5 48 102.172-.518 204.374.055 306.5 0 49.819-.027 99.669.02 149.5 0 7.295-2.942 9.067-6.902 10.5-14 6.075 6.421-6.51 15.086-11.5 16-100.226 3.519-206.354-7.289-306-1-2.493.157-18.279 1.374-19 2-2.019 1.753 1.599 2.286 1.5 2.5-.576 1.25-5.988-.884-6 3 6.948 2.326 18.342-2.33 24 2.5-52.138-.032-104.31-1.669-156.5 0-22.37-5.587-18.048-29.975-16.5-48 4.006-1.053 7.312-6.936 10-9 .868-.666 2.175-1.302 3-2 .194-.164.811.166 1 0"/><path fill="#63b6c9" d="M756 712c2.46 2.067 5.661 3.909 9 4 .671 17.153 3.534 39.345-16.5 45-56.828-.884-113.721.738-170.5 1-49.244.228-98.729.03-148 0-5.658-4.83-17.052-.174-24-2.5.012-3.884 5.424-1.75 6-3 .099-.214-3.519-.747-1.5-2.5.721-.626 16.507-1.843 19-2 99.646-6.289 205.774 4.519 306 1 4.99-.914 17.575-9.579 11.5-16 1.7-8.421 1.547-18.374 2-27z"/><path fill="#4a8b9c" d="M576 766c-8.362 10.53-25.451 24.204-38 29l-2-1c2.351-1.213 10.624-9.974 12-12.5 2.542-4.669 3.884-15.907 4.5-16.5 2.184-2.1 20.969-2.972 23.5 1"/><path fill="#45636d" d="M454 782c.117 3.077.417 3.287-2.5 2-8.653-3.817-21.698-10.661-30.5-15-13.079-6.447 4.59-4.975 10.5-3 7.913 2.644 16.084 11.109 22.5 16"/><path fill="#6bbbcd" d="m475 788-1.5 3c-9.321-6.134-19.239-13.907-26.5-22.5-1.244-1.472-2.579-1.357-1-3.5 1.998-.449 22.328-.592 23.5 0 .558.282-.983 9.916-.5 12.5.66 3.532 3.981 7.581 6 10.5"/><path fill="#c6e9ed" d="M446 765c-1.579 2.143-.244 2.028 1 3.5 7.261 8.593 17.179 16.366 26.5 22.5l1.5-3c1.262 1.825 6.664 3.721 0 3.5 14.598 8.652 45.912 10.288 61 2.5l2 1c-24.156 9.232-53.198 8.379-75-6-1.391-1.088-2.842-3.344-5-5l-16-17.5c1.197-2.039 2.53-1.169 4-1.5"/><path fill="#49636e" d="M418 771c7.483 2.267 15.948 6.495 23 10l-5 12c-12.586-6.735-31.66-15-46-15 .925-17.967 15.635-10.746 28-7"/><path fill="#0f252c" d="M601 770c-6.678 1.544-12.883 5.063-19 8-6.894 3.31-20.89 10.826-26 16l-3.5-4c14.695-7.458 27.785-17.629 44-22 2.274-.613 5.256-2.292 4.5 2"/><path fill="#0c1e24" d="M629 782c-17.225-1.402-38.325 8.319-53 17-11.396 6.741-30.481 17.039-23 32.5 9.594-6.799 18.36-14.152 29-19.5 8.756-4.401 18.502-7.113 27.5-11l23.5-6c.085.279 2.395 2.563 3 5-19.62-.607-38.226 7.366-55 17-7.614 4.373-26.468 14.754-27 24h-1c-.658-7.677-4.103-17.524-5-25 1.345-.102 2.816-3.831 3-4 9.248-8.519 24.483-16.87 36-22 11.818-5.264 25.328-10.751 38.5-11 1.692-1.493-2.085-9.694-2.5-10-.557-2.004.947-1.901 1-2 2.204 4.782 3.356 10.026 5 15"/><path fill="#334c55" d="M623 769c.415.306 4.192 8.507 2.5 10-13.172.249-26.682 5.736-38.5 11-.121-4.208-1.495-9.287-5-12 6.117-2.937 12.322-6.456 19-8 4.823-1.115 18.12-3.859 22-1"/><path fill="#102229" d="M421 769c8.802 4.339 21.847 11.183 30.5 15 2.917 1.287 2.617 1.077 2.5-2 .943.719 3.727 1.791 4 2 2.158 1.656 3.609 3.912 5 5 .746.583 7.454 8.745 8 9-2.954 6.563-.237 14.265-1 19.5-1.407 9.653-8.904 28.522-8 39 .524 6.077 8.884 18.405 8 26.5-1.312 1.045-.671.571-1 2h-3c.126-10.786-2.373-17.27-8-26-14.556-22.583-57.599-43.803-84-43 3.765-12.957 9.831-25.209 14-38h2c14.34 0 33.414 8.265 46 15 11.405 6.102 21.418 13.922 31 22.5-2.574-6.049 3.439-13.586 2-17-1.278-3.034-23.686-15.356-28-17.5-7.052-3.505-15.517-7.733-23-10zm8 41c13.1 6.589 24.846 16.063 35 26.5-2.365-7.899 3.66-11.977 0-19-3.131-6.008-19.789-14.921-26-18.5-9.165-5.282-18.175-11.061-28.5-14-15.361-4.373-23.327-8.037-26 11 15.483 2.68 31.438 6.927 45.5 14m-49-5c-1.046 1.99-2.589 4.842-3 7-.116.611-.918 2.756-.5 3 15.424-.979 29.809 5.089 43.5 11 16.14 6.968 29.699 16.684 40.5 31 6.906-20.903-8.805-29.618-24.5-39-7.896-4.72-16.271-9.012-25-12-3.452-1.181-25.858-7.386-27.5-7-3.737.879-2.761 4.593-3.5 6"/><path fill="#35afc7" d="M474 770c-.144 2.337 8.053 2.893 9.5 3 5.663.417 13.735.268 19.5 0 5.301 12.85 20.973 11.662 32 15-17.739 9.753-65.208 12.486-64-17.5 1.686-2.529 1.991-.382 3-.5"/><path fill="#79cada" d="M508 771c.532 2.989-2.611 1.889-5 2-5.765.268-13.837.417-19.5 0-1.447-.107-9.644-.663-9.5-3 9.212-1.076 23.784.961 34 1"/><path fill="#26899f" d="M535 788c-11.027-3.338-26.699-2.15-32-15 2.389-.111 5.532.989 5-2 13.835.052 29.279-.397 42 .5-4.95 7.953-6.358 11.749-15 16.5"/><path fill="#435c65" d="M582 778c3.505 2.713 4.879 7.792 5 12-11.517 5.13-26.752 13.481-36 22-6.158-5.732.887-13.835 5-18 5.11-5.174 19.106-12.69 26-16"/><path fill="#4e6974" d="m438 799-9 11c-14.062-7.073-30.017-11.32-45.5-14 2.673-19.037 10.639-15.373 26-11 10.325 2.939 19.335 8.718 28.5 14"/><path fill="#39535c" d="m436 793 5-12c4.314 2.144 26.722 14.466 28 17.5 1.439 3.414-4.574 10.951-2 17-9.582-8.578-19.595-16.398-31-22.5"/><path fill="#39535d" d="M629 782c1.436 4.345 2.672 8.628 4 13l-23.5 6c-8.998 3.887-18.744 6.599-27.5 11l-6-13c14.675-8.681 35.775-18.402 53-17"/><path fill="#6b818c" d="m411 806-1 6c-9.274-3.194-20.144-8.108-30-7 .739-1.407-.237-5.121 3.5-6 1.642-.386 24.048 5.819 27.5 7"/><path fill="#3a545e" d="m429 810 9-11c6.211 3.579 22.869 12.492 26 18.5 3.66 7.023-2.365 11.101 0 19-10.154-10.437-21.9-19.911-35-26.5"/><path fill="#516974" d="M582 812c-10.64 5.348-19.406 12.701-29 19.5-7.481-15.461 11.604-25.759 23-32.5z"/><path fill="#4c6570" d="M636 800c.078.313-.071.682 0 1 .825 3.704 1.837 11.217-1.5 3-17.928 1.303-38.32 7.902-50 22l1.5 1.5c-3.287 1.188-5.484 3.206-8 5.5-2.574 2.347-4.762 3.058-7 5l-10 2.5c2.836-3.128 6.227-5.825 9-9 .439-.502-3.245.565-.5-2.5 3.048-3.404 10.758-4.96 11.5-12 16.774-9.634 35.38-17.607 55-17"/><path fill="#2c434d" d="m650 818-1 1c-8.927-1.477-23.106-.801-32 1-3.425.694-7.125 1.239-10.5 2-.855.193-.4 1.976-.5 2-1.352.327-.208.57-4 1-1.939-2.477 5.586-4.725 6.5-5 9.553-2.879 20.07-3.534 30-4 7.05-2.384-9.614-3.15-11-3-5.745.62-25.286 7.632-31.5 12-3.8.842-3.242 1.685-4 2-2.374.986-3.792 1.774-6 3l-8 3c2.516-2.294 4.713-4.312 8-5.5l-1.5-1.5c11.68-14.098 32.072-20.697 50-22 3.337 8.217 2.325.704 1.5-3 2.738 2.208 5.074 14.472 6 15.5 2.633 2.923 5.453.713 8 1.5"/><path fill="#3d5863" d="M410 812c6.527 2.248 23.632 14.088 26 6 15.695 9.382 31.406 18.097 24.5 39-10.801-14.316-24.36-24.032-40.5-31-11.232-9.851-28.746-11.214-43-14 .411-2.158 1.954-5.01 3-7 9.856-1.108 20.726 3.806 30 7"/><path fill="#546d79" d="M436 818c-2.368 8.088-19.473-3.752-26-6l1-6c8.729 2.988 17.104 7.28 25 12"/><path fill="#6c8890" d="M420 826c-13.691-5.911-28.076-11.979-43.5-11-.418-.244.384-2.389.5-3 14.254 2.786 31.768 4.149 43 14"/><path fill="#526a73" d="M602 825c-.643.073-1.374-.114-2 0-1.251.229-2.772-.272-4 0 6.214-4.368 25.755-11.38 31.5-12 1.386-.15 18.05.616 11 3-9.93.466-20.447 1.121-30 4-.914.275-8.439 2.523-6.5 5"/><path fill="#1ab9df" d="m458 859-4 2.5c5.65 4.677 5.951 9.233 7 14.5-14.605-32.86-52.891-54.849-88.5-54l2.5 2.5-4.5 2.5 14.5.5-15.5 2.5c24.985-3.678 67.156 13.204 49.5 44.5-10.894 19.31-71.841 29.961-93 30.5-5.263.134-26.735.216-29-5.5-3.417-8.623 18.591-42.429 24-51 .149-.236 5.14-6.547 5-2.5-1.796 2.336-3.572 5.855-5 8.5 2.943 13.998 25.864-26.482 30-23-4.682-3.591-12.833 4.153-17 7.5l-2.5-1c5.967-6.01 14.109-9.516 20.5-15 3.917-1.592 18.867-6.905 22-7 26.401-.803 69.444 20.417 84 43m-100-27c-1.939.837-11.055 4.888-11 7-2.542 1.693-5.188 2.725-7 5.5-.399 1.76 1.924 2.359 2 2.5 1.759 3.237 2.614 1.62 3 2.5.704 1.603-1.656 3.3-1 5 1.365 3.537 3.318-.443 4 10.5-5.926-3.766-11.445-8.709-19-5l-.5-3c-15.185 6.353-18.976 23.302-4 33 20.262 13.121 92.327 5.397 96.5-24.5 3.374-24.169-31.173-36.564-50.5-33.5-5.937.941-11.657 5.856-16.5 9-1.858-.017-6.895 2.036-7-2 1.981-1.32 9.512-6.234 11-7 .415-.214 7.406.076 9-2.5-3.42-1.52-6.235 1.306-9 2.5"/><path fill="#6b808a" d="M581 817c-.742 7.04-8.452 8.596-11.5 12-2.745 3.065.939 1.998.5 2.5-2.773 3.175-6.164 5.872-9 9l10-2.5c-.104.09-.816 1.783-1 2-.744.54-1.709 1.036-3 2-3.627 2.707-8.344 8.513-11.5 12 1.275-4.011-1.66-10.216-1.5-13 .532-9.246 19.386-19.627 27-24"/><path fill="#15c1e9" d="M649 819c3.244.537 10.645 3.57 14 5-7.791 4.606-13.466-.699-21.5-1-37.94-1.422-93.291 29.238-88.5 73-2.739-3.902-2.715-14.83-2-20.5 3.013-23.879 30.004-40.199 49-50.5.626-.114 1.357.073 2 0 3.792-.43 2.648-.673 4-1 3.66.346 9.276.023 11-4 8.894-1.801 23.073-2.477 32-1"/><path fill="#07405a" d="M716 874c3.271 6.766 10.763 23.162 4.5 29-.921.858-3.898.727-4.5 1l.5-3c-2.063 3.957-23.918 1.885-18.5 8-25.278 5.719-53.087 7.13-79 6-24.5-1.068-49.174-5.491-71-16.5.744-5.604-1.113-10.998-1-16.5.352-17.174 7.794-20.071 6-41h1c-.16 2.784 2.775 8.989 1.5 13 3.156-3.487 7.873-9.293 11.5-12 2.04.534 2.096-.936 3-2 3.147-2.284 12.485-8.049 16-10 2.208-1.226 3.626-2.014 6-3 1.788.359 2.815-1.167 4-2 1.228-.272 2.749.229 4 0-18.996 10.301-45.987 26.621-49 50.5-.715 5.67-.739 16.598 2 20.5 2.863 4.08 23.288 9.758 29 11 35.591 7.742 70.76 2.866 105.5 1l1.5-5c6.629-.179 20.43-.607 25-6 1.141-1.347-.336-4.122 2-5 .425 1.047.752 6.093 1 6.5 4.905 8.051 2.457-11.651 2-13-1.266-3.74-9.4-17.099-12-21-.862-1.293-2.949-5.415-5-3.5-1.05-2.057-5.534-8.776-7-10.5-.174-.204-3.925-5.063-4-2 4.018 5.395 11.075 12.472 11 19.5-2.436-7.212-17.901-27.165-24-32 .308-4.851-10.968-10.281-15-12-3.355-1.43-10.756-4.463-14-5l1-1c28.301 8.742 52.867 28.834 66 56m-27.5-30 .5 1.5.5.5.5-1.5z"/><path fill="#03678e" d="M617 820c-1.724 4.023-7.34 4.346-11 4 .1-.024-.355-1.807.5-2 3.375-.761 7.075-1.306 10.5-2"/><path fill="#006490" d="M461 876c1.314 6.598.961 13.547 3 20-2.72 4.164-17.271 6.587-22.5 8-26.414 7.139-61.908 10.011-95 7-4.518-.411-19.382-1.342-20.5-6 21.159-.539 82.106-11.19 93-30.5 17.656-31.296-24.515-48.178-49.5-44.5l15.5-2.5-14.5-.5 4.5-2.5-2.5-2.5c35.609-.849 73.895 21.14 88.5 54"/><path fill="#084964" d="M352 823c-6.391 5.484-14.533 8.99-20.5 15l2.5 1c-1.879 1.51-6.774 5.406-8 7 .14-4.047-4.851 2.264-5 2.5-5.409 8.571-27.417 42.377-24 51 2.265 5.716 23.737 5.634 29 5.5 1.118 4.658 15.982 5.589 20.5 6 33.092 3.011 68.586.139 95-7 5.229-1.413 19.78-3.836 22.5-8 1.801-2.757 1.962-7.755 2-11h3c-.767 3.325.865 8.845-1 12.5-4.925 9.654-59.335 17.825-71 18.5-14.731-1.165-96.341-3.457-103-13.5-3.315-5 3.379-21.987 6-27.5 9.182-19.311 32.112-43.916 52-52"/><path fill="#0e9bc6" d="M663 824c4.032 1.719 15.308 7.149 15 12-.2-.158-4.935-2.812-5-1-1.687-1.213-14.299-8.669-15-6.5l8 5.5c-2.18.76-12.659-8.164-12-2-16.86-3.933-35.667-2.536-50 8-.123-4.642-6.717 2.202-7 2.5-20.134 21.228-20.312 36.398-15 64.5-5.712-1.242-26.137-6.92-29-11-4.791-43.762 50.56-74.422 88.5-73 8.034.301 13.709 5.606 21.5 1"/><path fill="#82b0b7" d="M596 825c-1.185.833-2.212 2.359-4 2 .758-.315.2-1.158 4-2"/><path fill="#0c8ab8" d="M673 835c4.976 3.577 9.421 9.075 13 14l-20-15-8-5.5c.701-2.169 13.313 5.287 15 6.5"/><path fill="#b1ecf6" d="M358 832c2.765-1.194 5.58-4.02 9-2.5-1.594 2.576-8.585 2.286-9 2.5"/><path fill="url(#f)" d="m666 834 20 15c.338.465-.353 2.985 0 3.5 7.49 10.928 23.407 25.326 8 37 10.642-4.597 11.32-11.673 8-21.5.075-7.028-6.982-14.105-11-19.5.075-3.063 3.826 1.796 4 2 1.466 1.724 5.95 8.443 7 10.5 4.462 8.737 10.247 21.754 14 31-2.336.878-.859 3.653-2 5-16.511 7.007-33.098 3.405-50 1-14.212-2.022-29.221-4.395-42.5-10-55.918-23.604-11.245-66.128 29-55 9.345 2.584 16.161 10.506 25 14l.5-2.5c-6.051-6.393-13.265-10.463-22-12.5-.659-6.164 9.82 2.76 12 2" style="fill:url(#f)"/>/&gt;<path fill="#eefbfb" d="M326 846c1.226-1.594 6.121-5.49 8-7 4.167-3.347 12.318-11.091 17-7.5-4.136-3.482-27.057 36.998-30 23 1.428-2.645 3.204-6.164 5-8.5"/><path fill="#9fc9d1" d="M586 830c-3.515 1.951-12.853 7.716-16 10 .184-.217.896-1.91 1-2 2.238-1.942 4.426-2.653 7-5z"/><path fill="#6fe4f5" d="M654 832c8.735 2.037 15.949 6.107 22 12.5l-.5 2.5c-8.839-3.494-15.655-11.416-25-14-40.245-11.128-84.918 31.396-29 55 13.279 5.605 28.288 7.978 42.5 10l-2 3c-17.221-2.211-54.783-10.722-65-25.5-9.042-13.078-5.248-26.496 7-35.5 14.333-10.536 33.14-11.933 50-8"/><path fill="#f6fcfa" d="M347 839c-.055-2.112 9.061-6.163 11-7-1.488.766-9.019 5.68-11 7"/><path fill="url(#g)" d="M329 860c-.862.423-5.629 7.249-6 8.5-6.056 20.43 26.767 24.856 25-3.5-.682-10.943-2.635-6.963-4-10.5-.656-1.7 1.704-3.397 1-5-.386-.88-1.241.737-3-2.5 4.843.782 8.315-3.607 12-6 4.843-3.144 10.563-8.059 16.5-9 19.327-3.064 53.874 9.331 50.5 33.5-4.173 29.897-76.238 37.621-96.5 24.5-14.976-9.698-11.185-26.647 4-33z" style="fill:url(#g)"/>/&gt;<path fill="#56ccdf" d="M678 836c6.099 4.835 21.564 24.788 24 32 3.32 9.827 2.642 16.903-8 21.5 15.407-11.674-.51-26.072-8-37-.353-.515.338-3.035 0-3.5-3.579-4.925-8.024-10.423-13-14 .065-1.812 4.8.842 5 1"/><path fill="#017ea9" d="M604 840c-12.248 9.004-16.042 22.422-7 35.5 10.217 14.778 47.779 23.289 65 25.5 8.33 1.07 18.664 2.224 27 2l-1.5 5c-34.74 1.866-69.909 6.742-105.5-1-5.312-28.102-5.134-43.272 15-64.5.283-.298 6.877-7.142 7-2.5"/><path fill="#f6fcfa" d="M347 839c.105 4.036 5.142 1.983 7 2-3.685 2.393-7.157 6.782-12 6-.076-.141-2.399-.74-2-2.5 1.812-2.775 4.458-3.807 7-5.5"/><path fill="#b9dedd" d="M570 840c-.904 1.064-.96 2.534-3 2 1.291-.964 2.256-1.46 3-2"/><path fill="#025e87" d="m688.5 844 1.5.5-.5 1.5-.5-.5z"/><path fill="#fcfefe" d="M348 865c1.767 28.356-31.056 23.93-25 3.5.371-1.251 5.138-8.077 6-8.5 7.555-3.709 13.074 1.234 19 5"/><path fill="#017aaa" d="M458 859c5.627 8.73 8.126 15.214 8 26-.038 3.245-.199 8.243-2 11-2.039-6.453-1.686-13.402-3-20-1.049-5.267-1.35-9.823-7-14.5z"/><path fill="#034e70" d="M716 892c-3.753-9.246-9.538-22.263-14-31 2.051-1.915 4.138 2.207 5 3.5 2.6 3.901 10.734 17.26 12 21 .457 1.349 2.905 21.051-2 13-.248-.407-.575-5.453-1-6.5"/><path fill="#39beda" d="M714 897c-4.57 5.393-18.371 5.821-25 6-8.336.224-18.67-.93-27-2l2-3c16.902 2.405 33.489 6.007 50-1"/><path fill="#04263b" d="M716 904c-5.341 2.424-12.258 3.701-18 5-5.418-6.115 16.437-4.043 18.5-8z"/></svg>