<svg xmlns="http://www.w3.org/2000/svg" width="1024" height="1024"><defs><linearGradient id="a" x1="328.35" x2="688.143" y1="178.238" y2="218.151" gradientUnits="userSpaceOnUse"><stop offset="0%" style="stop-color:#e6f8fb"/><stop offset="100%" style="stop-color:#709eb5"/></linearGradient></defs><defs><linearGradient id="b" x1="494.494" x2="535.406" y1="265.774" y2="312.36" gradientUnits="userSpaceOnUse"><stop offset="0%" style="stop-color:#053e54"/><stop offset="100%" style="stop-color:#012a43"/></linearGradient></defs><defs><linearGradient id="c" x1="383.239" x2="632.267" y1="298.871" y2="493.399" gradientUnits="userSpaceOnUse"><stop offset="0%" style="stop-color:#a8c5d2"/><stop offset="100%" style="stop-color:#375c6c"/></linearGradient></defs><defs><linearGradient id="d" x1="393.554" x2="625.216" y1="489.535" y2="539.551" gradientUnits="userSpaceOnUse"><stop offset="0%" style="stop-color:#e8f0f3"/><stop offset="100%" style="stop-color:#a8d3e3"/></linearGradient></defs><defs><linearGradient id="e" x1="497.439" x2="518.174" y1="539.52" y2="748.494" gradientUnits="userSpaceOnUse"><stop offset="0%" style="stop-color:#ddf0f6"/><stop offset="100%" style="stop-color:#94cedf"/></linearGradient></defs><defs><linearGradient id="f" x1="333.501" x2="395.341" y1="891.936" y2="911.955" gradientUnits="userSpaceOnUse"><stop offset="0%" style="stop-color:#56e4f9"/><stop offset="100%" style="stop-color:#05a9d2"/></linearGradient></defs><defs><linearGradient id="g" x1="665.98" x2="629.653" y1="890.976" y2="909.984" gradientUnits="userSpaceOnUse"><stop offset="0%" style="stop-color:#10badd"/><stop offset="100%" style="stop-color:#0079b0"/></linearGradient></defs><defs><linearGradient id="h" x1="387.895" x2="436.388" y1="920.819" y2="927.85" gradientUnits="userSpaceOnUse"><stop offset="0%" style="stop-color:#006897"/><stop offset="100%" style="stop-color:#005285"/></linearGradient></defs><path fill="#1d7579" d="m581 62-1 1c-83.949-17.247-191.076-3.313-255 58l-5 1c65.084-65.192 174.344-77.657 261-60"/><path fill="url(#a)" d="M580 63c50.371 10.349 101.077 37.776 133 78.5-19.714 19.371-26.592 54.905-27 81.5-1.07 7.832-1.315 14.331-2 22-1.282 14.351-2.733 29.634-3 44-4.164-20.47-7.516-41.949-15-61.5-4.379-11.44-11.139-23.34-18-33.5-112.959-167.266-355.85-39.43-297 145-1.981 1.927-2.577-1.191-3-2.5-6.254-19.344-5.896-33.44-8-53-.29-2.7 1.017-3.965-3-3.5-.05-19.157-.329-42.174-3-61-3.469-25.876-7.662-57.953-26-77.5-.16-1.542 14.69-18.284 17-20.5 63.924-61.313 171.051-75.247 255-58M429.5 88c-2.39.7-.318 5.203 2 5 2.716-.237 3.731-6.68-2-5m-18 9c-4.41 1.352-2.216 8.509 3 7 4.117-1.191 1.947-8.517-3-7m-14 11c-4.866 1.132-3.831 10.219 3 8 4.266-1.386 2.917-9.376-3-8m-19 9c-8.538 1.511-12.049 14.893-3 17 15.092 3.514 20.109-20.028 3-17" style="fill:url(#a)"/>/&gt;<path fill="#0e3e4d" d="M773 215c-.057-.07-.561 2.111-1.5 1-6.646-7.864-12.349-15.993-21-22-9.206 6.914-11.198 17.666-13.5 28l-3 1c1.673-7.898 2.209-16.554 7-23.5 5.234-7.59 11.798-4.171 8-14.5-1.45-3.945-5.427-7.854-8-11-1.035-1.266-2.323-6.512-5-5.5.767 13.278-6.185 27.902-9 41.5l-2-1c2.422-14.141 5.919-28.26 10-42-8.121-10.983-13.136.635-17 8l-3-1c3.807-12.304 12.484-16.954-1.5-29-18.306 19.181-23.981 52.248-27.5 78 .408-26.595 7.286-62.129 27-81.5-31.923-40.724-82.629-68.151-133-78.5l1-1c53.859 10.974 112.413 39.345 141 88.5.771 1.325 1.721 7.696 2 8 .664.722 8.805-2.111 17 7 8.181 9.095 8.336 21.355 13 29 3.314 5.432 17.226 12.245 19 20.5"/><path fill="#fafdfe" d="M429.5 88c5.731-1.68 4.716 4.763 2 5-2.318.203-4.39-4.3-2-5"/><path fill="#fbfdfd" d="M411.5 97c4.947-1.517 7.117 5.809 3 7-5.216 1.509-7.41-5.648-3-7"/><path fill="#fcfefe" d="M397.5 108c5.917-1.376 7.266 6.614 3 8-6.831 2.219-7.866-6.868-3-8"/><path fill="#175b65" d="m648 194-2 1c-52.787-82.62-166.066-100.828-241.5-37-48.667 41.179-73.719 114.289-51.5 175 .343 1.389.84 2.42 1 3 2.727 9.88 5.122 19.94 12 28 36.307 69.502 134.647 104.578 206 70 21.003-7.515 41.516-20.872 57-37l4-1c-62.006 66.024-162.359 74.276-233 16-22.394-18.475-40.039-44.916-49-73-58.85-184.43 184.041-312.266 297-145"/><path fill="#fdfefe" d="M378.5 117c17.109-3.028 12.092 20.514-3 17-9.049-2.107-5.538-15.489 3-17"/><path fill="#f4f8f9" d="M646 195c6.878 10.765 13.609 23.984 18 36-1.918 1.585-2.289.019-3-1.5-16.455-35.157-27.02-55.623-60-78.5-84.26-58.448-197.314-23.604-239 68-16.855 37.038-18.759 74.526-9 114-22.219-60.711 2.833-133.821 51.5-175 75.434-63.828 188.713-45.62 241.5 37"/><path fill="#4da5a8" d="M325 121c-2.31 2.216-17.16 18.958-17 20.5 18.338 19.547 22.531 51.624 26 77.5-.516-3.637-2.263-8.175-3-12-4.29-22.256-10.645-45.743-24.5-64-15.383 16.57-4.288 21.806.5 37.5 3.21 10.522 5.943 21.684 8 32.5 2.352 12.367 4.383 25.42 5 38h-4c-1.612-21.057-3.914-46.555-11-66.5-3.396-9.56-8.544-26.668-20-18.5-2.505 1.786-2.064 3.88-4 6-2.827 3.095-11.787 12.682-11 17 .38 2.086 5.216 3.378 6 4.5 8.901 12.746 12.839 28.411 14 43.5-1.444.044-.469-2.723-3-2-3.304-15.518-3.201-29.697-15.5-42-1.106.426-2.431.657-3.5 1-.657-8.813 10.253-30.048 17.5-34 3.985-2.174 9.164-.829 10.5-2.5 1.41-1.763 5.611-14.239 9-19 3.678-5.166 10.4-11.893 15-16.5z"/><path fill="#c9dde3" d="M601 151c-3.736-.343-5.988 7.912-8.5 8-1.165.041-16.081-10.355-20-12-28.791-12.087-54.432-15.234-85.5-11-48.628 6.628-95.229 43.043-113 89l-12-6c41.686-91.604 154.74-126.448 239-68"/><path fill="#94b4bf" d="M601 151c32.98 22.877 43.545 43.343 60 78.5.711 1.519 1.082 3.085 3 1.5 7.928 21.695 10.837 44.515 9 68l-5-48.5-2-1c-1.099 2.394-10.74 4.455-11 5-.523 1.098 3.85 20.531 4 24 3.665 84.801-52.46 147.787-136 157 2.026 4.205-1.039 9.932 5.5 9.5 8.762-.579 33.736-7.507 43.5-11-71.353 34.578-169.693-.498-206-70-4.587-8.781-6.943-19.349-12-28-.16-.58-.657-1.611-1-3-9.759-39.474-7.855-76.962 9-114l12 6c-.628 1.625-4.335 10.991-4 11.5.183.279 6.079 1.657 6.5 1.5 1.818-.68 11.909-31.698 19.5-32-8.851 13.654-12.998 22.106-17 38-8.112 23.41-8.587 41.1-5 66 1.062 7.374 3.631 15.91 6 23 43.729 130.87 253.936 112.105 266-29 2.908-34.01-2.851-66.53-22-95-28.445-66.707-129.628-81.729-187-45 11.187-11.356 26.929-15.229 41.5-20 5.615-1.839 10.13 3.849 8.5-8 31.068-4.234 56.709-1.087 85.5 11 3.919 1.645 18.835 12.041 20 12 2.512-.088 4.764-8.343 8.5-8"/><path fill="#839196" d="M487 136c1.63 11.849-2.885 6.161-8.5 8-14.571 4.771-30.313 8.644-41.5 20-9.314 5.963-17.44 13.966-25 22-6.416 6.818-10.877 12.097-16 20-7.591.302-17.682 31.32-19.5 32-.421.157-6.317-1.221-6.5-1.5-.335-.509 3.372-9.875 4-11.5 17.771-45.957 64.372-82.372 113-89"/><path fill="#8bd5e2" d="M331 207c-3.404 5.63-10.521 3.622-16 6-2.057-10.816-4.79-21.978-8-32.5-4.788-15.694-15.883-20.93-.5-37.5 13.855 18.257 20.21 41.744 24.5 64"/><path fill="#144353" d="M624 209c-19.7-29.288-49.419-50.387-84-58-47.034-10.354-92.639 1.925-127 36l-1-1c7.56-8.034 15.686-16.037 25-22 57.372-36.729 158.555-21.707 187 45"/><path fill="#2fd9ee" d="M715 174c-6.912 22.34-11.992 44.61-14 68-4.505 5.176-10.66 2.346-17 3 .685-7.669.93-14.168 2-22 3.519-25.752 9.194-58.819 27.5-78 13.984 12.046 5.307 16.696 1.5 29"/><path fill="#115d7a" d="m540 151 1 15c-21.051-5.293-43.154-6.004-64 1-11.075 2.316-19.752 8.324-27 13-1.915-1.448-2.601-.774-4.5 0-7.746 3.159-38.804 32.112-41.5 39.5-1.054 2.888 2.732 2.293 2 4-3.723 8.685-10.099 17.176-13 27-10.124 34.278-6.267 66.786 13 96.5 19.43 29.966 50.5 49.955 86 55 68.127 9.682 135.019-39.205 140-109 1.842-25.814-5.581-52.675-20-74h1l13.5-2c.692-1.071-1.888-6.565-2.5-8 19.149 28.47 24.908 60.99 22 95-6.654 38.724-28.299 70.465-61 92l-32.5 15c-36.183 7.618-62.746 5.582-97-6-1.196-.404-5.056-2.265-4.5 1-31.748-13.401-56.565-42.38-71-73-2.369-7.09-4.938-15.626-6-23-1.531-23.443-.773-43.074 5-66 6.867-19.818 19.053-42.177 34-57 34.361-34.075 79.966-46.354 127-36"/><path fill="#468c9e" d="M624 209c.612 1.435 3.192 6.929 2.5 8l-13.5 2c-13.205-25.842-44.361-46.051-72-53l-1-15c34.581 7.613 64.3 28.712 84 58"/><path fill="#078eba" d="M541 166c27.639 6.949 58.795 27.158 72 53h-1c-5.441-8.047-20.515-24.912-28.5-30-.414-.264-9.022-4.969-9.5-2.5 14.568 11.341 36.599 34.234 42 52 .43 1.414 2.186 3.525-.5 3.5-11.143-28.203-34.73-50.177-62.5-62-11.34-4.828-21.548-7.977-34-9-5.185-3.025-2.435-4.905-3-5.5-3.12-3.288-33.026.251-39 1.5 20.846-7.004 42.949-6.293 64-1"/><path fill="#74def0" d="M316 251c1.309 17.09 1.619 28.791 1 46-.155 4.299.279 8.716 0 13-3.772.398-.495 6.287-6 5 .153-2.304-.103-4.689 0-7 .369-8.27.48-66.096-3.5-69-.298-.218-5.521 2.997-6.5 3.5 2.365 20.377 3.485 40.963 3 61.5-.544 23.05-2.203 48.54-11 70 1.162-5.484 7.337-49.276 6-51.5-1.203-2.001-1.908.546-2 .5-7.275-3.582-3.316 2.444-3.5 3-2.426 7.335-2.952 10.363-4.5 18l-2.5 2-.5-2c10.717-31.457 7.721-76.242 2-106-.297-1.547-.807-2.096-1-3 2.531-.723 1.556 2.044 3 2 3.86-.118 3.01-2.984 3-6 .021.101 1.838-.349 2 .5.337 1.77-1.524 4.023-1 7 .142.809 1.861.192 2 1 .289 1.674-1.547 15.608 2.5 13.5 1.716-.894-3.721-33.945-3.5-38.5l-3 6.5c-.766-3.126-2.002-5.981-3-9 3.276-2.118 1.201-4.215 1-6 1.126-2.958 4.465-2.415 5-4.5.831-3.238-6.419-31.299-10-35.5 11.456-8.168 16.604 8.94 20 18.5 7.086 19.945 9.388 45.443 11 66.5m-19.5 3c1.036 6.826-1.018 15.21 3 21-.809-1.873.906-23.082-3-21m2 57c-.225 2.574-1.799 5.439-1 8 2.13-.235 2.58-6.956 1-8"/><path fill="#24dcf2" d="M735 167c-2.674-1.967-4.343-.794-6 1.5-8.161 11.3-16.266 66.536-18 82.5-.26 2.393-.808 4.829-1 7l-7-2c1.637-25.793 2.926-57.985 15-81 3.864-7.365 8.879-18.983 17-8"/><path fill="#0183b0" d="M519 171c-35.168-2.889-66.879 9.902-91 35-3.612 3.758-9.132 8.743-12 13-5.86-3.434-3.115-6.212 0-10.5 6.747-9.288 24.155-22.149 34-28.5 7.248-4.676 15.925-10.684 27-13 5.974-1.249 35.88-4.788 39-1.5.565.595-2.185 2.475 3 5.5"/><path fill="#91d4e0" d="M290 206c-1.249-11.122-4.653-23.68-9-34 1.936-2.12 1.495-4.214 4-6 3.581 4.201 10.831 32.262 10 35.5-.535 2.085-3.874 1.542-5 4.5"/><path fill="#21c9e9" d="M735 167c-4.081 13.74-7.578 27.859-10 42-5.525 32.252-9.071 64.167-8 97-1.798 2.714-.796 3.569-5 3l-1-58c1.734-15.964 9.839-71.2 18-82.5 1.657-2.294 3.326-3.467 6-1.5"/><path fill="#51cce4" d="m741 174-14 45.5-3 30c7.096-21.18 2.666-52.625 25-64.5 3.798 10.329-2.766 6.91-8 14.5-4.791 6.946-5.327 15.602-7 23.5-5.484 25.881-7.014 53.512-6 80l-3.5-4c-1.016.666-.374 6.395-.5 8h-2c-1.977-36.337-2.573-60.427 5-97 2.815-13.598 9.767-28.222 9-41.5 2.677-1.012 3.965 4.234 5 5.5"/><path fill="#25c6e8" d="M519 171c12.452 1.023 22.66 4.172 34 9 6.13 21.189-10.612 36.226-12 56-14.26-8.589-38.253-14.852-53-5-1.401-8.252-7.406-20.68-14-26-2.291-6.147 11.059-14.806 4.5-17-18.064-6.041-39.154 8.347-49.5 22l-1-4c24.121-25.098 55.832-37.889 91-35"/><path fill="#aaf0f9" d="M290 206c.201 1.785 2.276 3.882-1 6-3.217-9.733-6.419-25.327-19-23-.787-4.318 8.173-13.905 11-17 4.347 10.32 7.751 22.878 9 34"/><path fill="#033c5f" d="M718 175c-12.074 23.015-13.363 55.207-15 81-1.685 26.552-2.407 50.264 0 77 .607 6.739 2.004 13.355 3 20 .235 1.568-.265 3.459 0 5l-2 1c-1.607-10.122-2.251-20.764-3-31-.343-4.694-.789-9.281-1-14-1.06-23.739-1.033-48.319 1-72 2.008-23.39 7.088-45.66 14-68z"/><path fill="#cdf4fd" d="M741 174c2.573 3.146 6.55 7.055 8 11-22.334 11.875-17.904 43.32-25 64.5l3-30z"/><path fill="#006998" d="M450 180c-9.845 6.351-27.253 19.212-34 28.5-3.115 4.288-5.86 7.066 0 10.5-.682 1.012-2.141 5.482-3 7-5.961 10.534-18.405 40.096-15 51.5.143.479 4.863 4.52 6 8 9.611 29.42 14.979 39.582 40.5 58.5 16.978 12.585 66.857 35.609 77 46 5.106 5.231 3.453 4.296-.5 8-3.261.229-6.719.012-10 0-43.027-.157-75.968-21.029-105-51-19.267-29.714-23.124-62.222-13-96.5 2.901-9.824 9.277-18.315 13-27 .732-1.707-3.054-1.112-2-4 2.696-7.388 33.754-36.341 41.5-39.5 1.899-.774 2.585-1.448 4.5 0"/><path fill="#03add8" d="M612 219c14.419 21.325 21.842 48.186 20 74-6.252-1.799-1.366-16.339-4-21.5-1.884-3.692-.803 23.27-1 25-2.262 19.91-11.353 37.757-23 53.5l-12-3c.585-16.883-8.413-15.489-17-22-1.446-1.096-4.578-8.882-8.5-10-3.303-.942-9.023.601-12.5 1 13.631-26.348 15.262-62.978-13-80 1.388-19.774 18.13-34.811 12-56 27.77 11.823 51.357 33.797 62.5 62 2.686.025.93-2.086.5-3.5-5.401-17.766-27.432-40.659-42-52 .478-2.469 9.086 2.236 9.5 2.5 7.985 5.088 23.059 21.953 28.5 30"/><path fill="#042034" d="M413 187c-14.947 14.823-27.133 37.182-34 57 4.002-15.894 8.149-24.346 17-38 5.123-7.903 9.584-13.182 16-20z"/><path fill="#50d9f3" d="M474 205c-26.3-21.219-51.368 21.792-58 43-.14-9.576-.48-10.512 3-20 2.248-6.13 6.072-12.817 10-18 10.346-13.653 31.436-28.041 49.5-22 6.559 2.194-6.791 10.853-4.5 17"/><path fill="#dcf9fd" d="M289 212c.998 3.019 2.234 5.874 3 9 .749 3.055.404 7.084 1 10 .01 3.016.86 5.882-3 6-1.161-15.089-5.099-30.754-14-43.5-.784-1.122-5.62-2.414-6-4.5 12.581-2.327 15.783 13.267 19 23"/><path fill="#b8edf6" d="M287 235c.193.904.703 1.453 1 3 .556 5.228.424 10.808 1 16-1.989 3.422-16.566 9.6-17 10.5-1.091 2.262 2.5 32.04 2 38-.073.865-3.155 12.939-4 16-.374 1.354-1.072 5.093-3 1.5 2.387-8.498 3.688-17.179 4-26 .579-16.359-2.177-44.563-11-58.5-3.827-6.045-8.074-11.499-14-5.5-4.185 4.237-8.859 21.749-10 28-.89 4.876-.657 9.229-1 14-.669 9.297-1.197 16.646 0 26 1.491 11.646 13.009 58.16 29 32-2.9 9.912 5.202 20.083-2 31-1.735-.941-1.915-2.076-3-3-3.675-3.131-11.238-13.652-14-18-14.372-22.62-17.577-40.12-16-67l7-30.5c3.604-.985.382-1.411 1-3.5.151-.242 5.067-.934 0-4 .389-1.241 1.939-2.83 2-3l19-29c2.374-2.341 6.871-7.997 10-9 1.069-.343 2.394-.574 3.5-1 12.299 12.303 12.196 26.482 15.5 42"/><path fill="#124958" d="M681 289c-.112 6.043-.067 11.964 0 18l-4-14.5c.484 13.664-2.356 27.156-5 40.5l-18 37.5c-6.076 9.985-13.142 17.133-21 25.5l-4 1c23.624-24.607 41.336-63.946 44-98 1.837-23.485-1.072-46.305-9-68-4.391-12.016-11.122-25.235-18-36l2-1c6.861 10.16 13.621 22.06 18 33.5 7.484 19.551 10.836 41.03 15 61.5"/><path fill="#ccf7fc" d="M773 215c24.854 30.435 26.65 85.614 8 119.5-.942 1.712-3.674 6.545-6 6.5 6-10.981 9.194-23.765 11-36 2.876-19.482 2.263-31.832-1-51-.093-.548.678-.969 0-4-12.881-57.604-33.657 5.369-35 29.5-.527 9.464.458 26.489 3 35.5.262 3.87-1.871.103-2-.5-2.117-9.891-4.101-25.994-4-36 .031-3.103 4.425-10.993 3-14-.419-.885-14.42-7.074-15.5-11.5l-3.5 12c.932-13.417 3.081-29.899 6-43 2.302-10.334 4.294-21.086 13.5-28 8.651 6.007 14.354 14.136 21 22 .939 1.111 1.443-1.07 1.5-1"/><path fill="#c8f6fc" d="M474 205c6.594 5.32 12.599 17.748 14 26 3.87 22.787-6.255 43.436-30 48-3.837.738-16.361 1.524-20 1-19.235-2.77-21.762-15.676-22-32 6.632-21.208 31.7-64.219 58-43"/><path fill="#78e2e9" d="M239 232c3.914-10.944 10.711-20.826 19-29z"/><path fill="#02a9d5" d="M429 210c-3.928 5.183-7.752 11.87-10 18l-6-2c.859-1.518 2.318-5.988 3-7 2.868-4.257 8.388-9.242 12-13z"/><path fill="#59c7e2" d="M334 219c2.671 18.826 2.95 41.843 3 61 .044 17.008-.576 34.074-2 51h-18c1.111-11.175 1.549-22.777 2-34 .613-15.267 1.751-30.697 1-46-.617-12.58-2.648-25.633-5-38 5.479-2.378 12.596-.37 16-6 .737 3.825 2.484 8.363 3 12"/><path fill="#0783b9" d="M727 210c-7.573 36.573-6.977 60.663-5 97 .649 11.919.353 21.966 2 34l-5-14c-.562-6.97-1.77-13.96-2-21-1.071-32.833 2.475-64.748 8-97z"/><path fill="#5fc9da" d="M293 231c-.596-2.916-.251-6.945-1-10l3-6.5c-.221 4.555 5.216 37.606 3.5 38.5-4.047 2.108-2.211-11.826-2.5-13.5-.139-.808-1.858-.191-2-1-.524-2.977 1.337-5.23 1-7-.162-.849-1.979-.399-2-.5"/><path fill="#03142b" d="M737 222c-2.919 13.101-5.068 29.583-6 43-1.425 20.508-2.259 46.949 2 67 1.921 9.044 9.637 33.443 21 30 .497-.151 1.36.076 2 0-13.153 13.615-13.686 28.078-23 37.5-7.276 7.361-11.041 3.994-14.5 5.5-2.259.983-24.04 32.96-30 39-15.295 15.5-35.802 27.57-54.5 38.5-.024 1.014 14.281 4.529 16 4.5-1.096 1.069-5.691 17.316 0 14-1.624 2.634-2.82 7.995-4 11-3.55 9.035-5.383 19.807-9 29-.722.019-1.354-.004-2 0 2.69-6.461 14.792-49.61 9.5-52-15.362 4.764-29.489 13.499-44.5 19-3.841 1.407-2.83 1.94-3 2-72.561 25.505-135.939 17.829-204-14-2.449-1.145-15.947-9.319-17-6.5l10 49.5c-.071.002.311.966-1 1l-12-52 11-6.5c-24.845-12.641-50.495-30.033-68-52-2.703-3.392-14.246-20.293-15-23.5-.37-1.576-.13-1.881 0-3 5.457 4.588 8.331 19.783 16 10.5 5.914-7.158 13.382-41.282 15-51.5-2.606 19.331-2.339 45.792-19 58.5 20.335 25.701 48.856 47.605 78 62.5l-10 4.5c42.069 25.016 93.692 36.465 144.5 33.5 9.11-.532 32.791-3.273 40.5-7l69.5-24c4.244-3.344-7.293-4.048-7.5-6.5 28.55-17.889 57.455-36.749 77-65-13.676-7.092-19.237-29.423-18-43.5 1.303 6.544 10.2 41.842 18.5 41 .969-.098 11.493-14.535 11.5-15.5.006-.894-6.91-11.926-8-16-2.189-8.179-3.673-17.138-5-25.5l2-1c1.207 7.011 8.706 42.862 16.5 44 5.531.808 13.106-12.164 15.5-16 2.808-4.499 13.469-21.423 6-23-11.892-26.493-14.799-28.634-16-60-1.014-26.488.516-54.119 6-80z"/><path fill="#0183b0" d="M419 228c-3.48 9.488-3.14 10.424-3 20 .238 16.324 2.765 29.23 22 32-.045 5.606-.049 11.49 1 17 6.666 35.007 43.111 61.242 78 49 6.481 2.672 12.547 6.446 19.5 8 6.723 1.503 12.345-3.049 17.5 4 9.222 21.513 37.3 9.203 38-11l12 3c-20.255 27.379-48.282 45.557-83 48 3.953-3.704 5.606-2.769.5-8-10.143-10.391-60.022-33.415-77-46-25.521-18.918-30.889-29.08-40.5-58.5-1.137-3.48-5.857-7.521-6-8-3.405-11.404 9.039-40.966 15-51.5z"/><path fill="url(#b)" d="M541 236c28.262 17.022 26.631 53.652 13 80-2.123 4.103-7.015 8.372-8 14-.046-.126-1.584.409-2-.5-.168-.367 1.801-8.197-2-7-.277 7.458-.791 10.298 3 16.5-1.403 2.168-3.812 2.006-6 2l-9.5-6-26.5 6c-19.666-2.796-38.559-17.211-44-37-1.931-7.022-2.876-17.904-1-25 23.745-4.564 33.87-25.213 30-48 14.747-9.852 38.74-3.589 53 5m-35.5 9c-22.027 1.639-19.91 37.472 5 33 17.92-3.217 16.344-34.588-5-33" style="fill:url(#b)"/>/&gt;<path fill="#093b53" d="M271 294c-3.959-2.356-1.504-10.558-2-14.5-.248-1.974-4.08-11.048-2-15.5-2.556-8.102-3.572-18.083-8-25.5-2.456-4.114-7.321-12.124-13-8.5 5.926-5.999 10.173-.545 14 5.5 8.823 13.937 11.579 42.141 11 58.5"/><path fill="#031e33" d="M785 250c-5.017-4.497-5.241-22.888-13.5-21-3.379.772-12.189 17.191-13.5 21-8.771 25.487-4.591 57.573 5 82-4.483-4.323-8.294-10.952-10-17-2.542-9.011-3.527-26.036-3-35.5 1.343-24.131 22.119-87.104 35-29.5"/><path fill="#2d9ead" d="M267 264h-6c-.436-29.826-23.795-14.328-22-8.5.928 3.013 3.119.237 4 2.5-2.396.096-5.409 3.341-7 0 1.141-6.251 5.815-23.763 10-28 5.679-3.624 10.544 4.386 13 8.5 4.428 7.417 5.444 17.398 8 25.5"/><path fill="#1096a9" d="M785 250c.678 3.031-.093 3.452 0 4-.234-.619-1.919-.923-2-1-9.182-8.748-13.983-13.152-22 1-.148-1.009-1.645-3.804-3-4 1.311-3.809 10.121-20.228 13.5-21 8.259-1.888 8.483 16.503 13.5 21"/><path fill="#70dde8" d="M237 239c.319-1.079-.329-2.95 0-4 5.067 3.066.151 3.758 0 4"/><path fill="#155369" d="M286 344c-.39 1.145-3.33 4.633-4 6l-1-2c12.08-25.79 11.067-66.375 8-94-.576-5.192-.444-10.772-1-16 5.721 29.758 8.717 74.543-2 106"/><path fill="#70dde8" d="M237 239c-.618 2.089 2.604 2.515-1 3.5l-7 30.5c.775-13.215 1.566-23.657 8-34"/><path fill="#47bedd" d="M311 308c-5.296.19-5.359.945-7-4 .485-20.537-.635-41.123-3-61.5.979-.503 6.202-3.718 6.5-3.5 3.98 2.904 3.869 60.73 3.5 69"/><path fill="#0bb1d0" d="M701 242c-2.033 23.681-2.06 48.261-1 72l-19-1c-.043-1.988.022-4.011 0-6-.067-6.036-.112-11.957 0-18 .267-14.366 1.718-29.649 3-44 6.34-.654 12.495 2.176 17-3"/><path fill="#06223d" d="M374 310c-3.587-24.9-3.112-42.59 5-66-5.773 22.926-6.531 42.557-5 66"/><path fill="#5695aa" d="M505.5 245c21.344-1.588 22.92 29.783 5 33-24.91 4.472-27.027-31.361-5-33"/><path fill="#7eb7c7" d="M783 253c-.8 2.055.877 3.88 1 5-4.308.898-7.484-5.253-11 0-4.437 6.629.619 11.176 5 14 .557.359-1.655 1.406-.5 2 4.924.27 3.932-3.537 8.5 0 .046.656-.031 1.342 0 2-.435 2.528-3.8 7.267-4 9-22.23 8.106-19.175-18.526-21-31 8.017-14.152 12.818-9.748 22-1"/><path fill="#72afc3" d="M261 264c.134 9.197-3.373 27.208-15.5 25-.943-.172-5.64-4.121-6-4-3.498 1.177 1.724 9.677-3.5 10 .104-4.311.009-8.686 0-13 6.118 1.826 6.813-3.155 6-7 5.763-1.388 9.614-8.059 8-14-1.691-6.227-4.048-3.118-7-3-.881-2.263-3.072.513-4-2.5-1.795-5.828 21.564-21.326 22 8.5"/><path fill="#779ca9" d="M673 299c-2.664 34.054-20.376 73.393-44 98-15.484 16.128-35.997 29.485-57 37-9.764 3.493-34.738 10.421-43.5 11-6.539.432-3.474-5.295-5.5-9.5 83.54-9.213 139.665-72.199 136-157-.15-3.469-4.523-22.902-4-24 .26-.545 9.901-2.606 11-5l2 1z"/><path fill="#004258" d="M761 254c1.825 12.474-1.23 39.106 21 31-.376 3.259-1.31 13.631 3 12-.163 2.053-.664 6.54 1 8-1.806 12.235-5 25.019-11 36-5.402 9.886-11.806 13.553-19 21-.64.076-1.503-.151-2 0 6.997-6.959 14.858-11.429 19-21 .653-1.509 2.875-2.392 1.5-4-4.49 2.626-8.386-1.997-11.5-5-9.591-24.427-13.771-56.513-5-82 1.355.196 2.852 2.991 3 4"/><path fill="#30809e" d="M320 251c.751 15.303-.387 30.733-1 46h-2c.619-17.209.309-28.91-1-46z"/><path fill="#0063a3" d="M712 309c1.628 21.921 3.109 44.63 11.5 65 2.296.192 1.545-3.061 1.5-4.5-.348-11.196-4.921-29.131-6-42.5l5 14c1.685 12.309 4.211 25.508 9 37 1.13 2.712 3.276 5.59 5 8-2.394 3.836-9.969 16.808-15.5 16-7.794-1.138-15.293-36.989-16.5-44-.265-1.541.235-3.432 0-5 9.438.587 4.624-13.106 4-21-2.101-26.584-2.363-47.296 0-74 .192-2.171.74-4.607 1-7z"/><path fill="#083250" d="M785 254c3.263 19.168 3.876 31.518 1 51-1.664-1.46-1.163-5.947-1-8 .566-7.12 1.337-13.79 1-21-.031-.658.046-1.344 0-2-.326-4.671-1.435-10.867-2-16-.123-1.12-1.8-2.945-1-5 .081.077 1.766.381 2 1"/><path fill="#6799ac" d="M753 315c1.706 6.048 5.517 12.677 10 17 3.114 3.003 7.01 7.626 11.5 5 1.375 1.608-.847 2.491-1.5 4-3.785-.138-17.369-12.998-18.5-13-.292 0-2.186 2.768-5 3-5.449.45-11.059.198-16.5 1-4.259-20.051-3.425-46.492-2-67l3.5-12c1.08 4.426 15.081 10.615 15.5 11.5 1.425 3.007-2.969 10.897-3 14-.101 10.006 1.883 26.109 4 36 .129.603 2.262 4.37 2 .5"/><path fill="#94bfcd" d="M289 254c3.067 27.625 4.08 68.21-8 94-3.729 7.961-9.758 18.012-19 13 7.202-10.917-.9-21.088 2-31 1.509-2.468 2.213-7.197 3-10 1.928 3.593 2.626-.146 3-1.5.845-3.061 3.927-15.135 4-16 .5-5.96-3.091-35.738-2-38 .434-.9 15.011-7.078 17-10.5"/><path fill="#4baed1" d="M296.5 254c3.906-2.082 2.191 19.127 3 21-4.018-5.79-1.964-14.174-3-21"/><path fill="#09bee0" d="M710 258c-2.363 26.704-2.101 47.416 0 74l-7 1c-2.407-26.736-1.685-50.448 0-77z"/><path fill="#58aec2" d="M784 258c.565 5.133 1.674 11.329 2 16-4.568-3.537-3.576.27-8.5 0-1.155-.594 1.057-1.641.5-2 6.508-.613-6.203-9.481-5-14 3.516-5.253 6.692.898 11 0"/><path fill="#479cb1" d="M250 261c-3.489.453-6.248 4.524-8.5 7-.086.094-1.574-2.17-2.5-.5-1.907 3.441 2.837 6.731 3 7.5.813 3.845.118 8.826-6 7-.006-2.961.814-7.589-1-10 .343-4.771.11-9.124 1-14 1.591 3.341 4.604.096 7 0 2.952-.118 5.309-3.227 7 3"/><path fill="#288093" d="M778 272c-4.381-2.824-9.437-7.371-5-14-1.203 4.519 11.508 13.387 5 14"/><path fill="#267d92" d="M250 261c1.614 5.941-2.237 12.612-8 14-.163-.769-4.907-4.059-3-7.5.926-1.67 2.414.594 2.5.5 2.252-2.476 5.011-6.547 8.5-7"/><path fill="#013b51" d="M267 264c-2.08 4.452 1.752 13.526 2 15.5.496 3.942-1.959 12.144 2 14.5-.312 8.821-1.613 17.502-4 26-.787 2.803-1.491 7.532-3 10-15.991 26.16-27.509-20.354-29-32 1.549-.076.972-1.848 1-3 5.224-.323.002-8.823 3.5-10 .36-.121 5.057 3.828 6 4 12.127 2.208 15.634-15.803 15.5-25z"/><path fill="#14d1ed" d="M632 293c-4.981 69.795-71.873 118.682-140 109 4.858-5.273 16.42 5.595 19-4 3.281.012 6.739.229 10 0 34.718-2.443 62.745-20.621 83-48 11.647-15.743 20.738-33.59 23-53.5.197-1.73-.884-28.692 1-25 2.634 5.161-2.252 19.701 4 21.5"/><path fill="#0e334d" d="M236 282c.009 4.314.104 8.689 0 13-.028 1.152.549 2.924-1 3-1.197-9.354-.669-16.703 0-26 1.814 2.411.994 7.039 1 10"/><path fill="#048298" d="M785 297c-4.31 1.631-3.376-8.741-3-12 .2-1.733 3.565-6.472 4-9 .337 7.21-.434 13.88-1 21"/><path fill="#ebf7f8" d="M458 279c-1.876 7.096-.931 17.978 1 25l-3.5-7H439c-1.049-5.51-1.045-11.394-1-17 3.639.524 16.163-.262 20-1"/><path fill="url(#c)" d="M351 339c8.961 28.084 26.606 54.525 49 73-1.445 3.458.409 3.904 2.5 6 89.558 89.762 244.79 39.722 269.5-85 2.644-13.344 5.484-26.836 5-40.5l4 14.5c.022 1.989-.043 4.012 0 6 .104 4.787.754 9.284 1 14 .845 16.208 1.825 32.061 5 48-1.237 14.077 4.324 36.408 18 43.5-19.545 28.251-48.45 47.111-77 65 .207 2.452 11.744 3.156 7.5 6.5L566 514c1.071-.518 12.236-9.099 7.5-10-61.122 14.434-126.689 7.525-182.5-21-29.144-14.895-57.665-36.799-78-62.5 16.661-12.708 16.394-39.169 19-58.5 1.612-10.176 2.136-20.726 3-31 1.424-16.926 2.044-33.992 2-51 4.017-.465 2.71.8 3 3.5 2.104 19.56 1.746 33.656 8 53 .423 1.309 1.019 4.427 3 2.5m-14 97c20.217 23.335 68.584 40.612 98 49 42.745 12.188 85.258 13.935 129.5 5 8.509-1.718 22.058-4.639 28.5-10 27.71-8.337 59.755-20.889 80.5-41-33.58 21.726-71.048 35.939-110 45-1.235.287-1.541 2.899-2 3-5.233 1.155-21.361-1.538-25.5 4-32.757 2.45-58.908-.303-91-5 .25-.844-2.288-3.897-2.5-4-14.524-7.088-41.222-10.458-58-18-16.973-7.629-31.65-18.607-47.5-28-.108-.064-.683-1.709-1.5-2-1.846 2.376 1.399 1.883 1.5 2" style="fill:url(#c)"/>/&gt;<path fill="#acdfeb" d="M459 304c5.441 19.789 24.334 34.204 44 37 1.694.241 5.866.96 7 1 1.11 4.073 3.241 2.45 7 4-34.889 12.242-71.334-13.993-78-49h16.5z"/><path fill="#0c3652" d="M319 297c-.451 11.223-.889 22.825-2 34-1.395 14.028-2.885 28.755-6 42.5-1.977 8.721-9.204 22.626-10 29.5-.13 1.119-.37 1.424 0 3-14.228 6.766-28.108-22.292-30-33 4.108 4.846 5.416 10.389 9 16 2.094 3.278 1.99 3.865 5 7 3.104 3.233 4.909 6.198 9.5 8 13.115-18.173 16.631-44.94 19.5-67 1.139-8.754 2.429-18.234 3-27 .279-4.284-.155-8.701 0-13z"/><path fill="#1068a9" d="M728 303c1.201 31.366 4.108 33.507 16 60 .528 1.175.192 2.833 2 3.5-4.927 1.844-7.556.633-12-1.5-3.383-19.356-11.552-38.166-10-58 .126-1.605-.516-7.334.5-8z"/><path fill="#3899c3" d="M311 308c-.103 2.311.153 4.696 0 7-.448 6.725-7.484 25.339 3 22-2.869 22.06-6.385 48.827-19.5 67-4.591-1.802-6.396-4.767-9.5-8 4.314-6.347 6.402-14.457 8-22 8.797-21.46 10.456-46.95 11-70 1.641 4.945 1.704 4.19 7 4"/><path fill="#f1f8f9" d="M380 333c14.435 30.62 39.252 59.599 71 73 44.188 18.652 93.861 16.433 134-10 32.701-21.535 54.346-53.276 61-92-12.064 141.105-222.271 159.87-266 29"/><path fill="#00a6d4" d="M719 327c1.079 13.369 5.652 31.304 6 42.5.045 1.439.796 4.692-1.5 4.5-8.391-20.37-9.872-43.079-11.5-65 4.204.569 3.202-.286 5-3 .23 7.04 1.438 14.03 2 21"/><path fill="#02b0dd" d="M724 307c-1.552 19.834 6.617 38.644 10 58 .48 2.745 1.703 12.374-1 13-4.789-11.492-7.315-24.691-9-37-1.647-12.034-1.351-22.081-2-34z"/><path fill="#47bcdb" d="M317 310c-.571 8.766-1.861 18.246-3 27-10.484 3.339-3.448-15.275-3-22 5.505 1.287 2.228-4.602 6-5"/><path fill="#2586a9" d="M298.5 311c1.58 1.044 1.13 7.765-1 8-.799-2.561.775-5.426 1-8"/><path fill="#018ab7" d="M700 314c.211 4.719.657 9.306 1 14-5.545-3.582-12.798-1.959-19-1-.246-4.716-.896-9.213-1-14z"/><path fill="#d7fbfe" d="M575 325c-1.064 5.573-1.31 7.87-4 13-9.292 5.658-19.305 12.003-24-1.5-.173-.498 2.684-.233 2-2-.098-.252-2.278-2.515-3-4.5.985-5.628 5.877-9.897 8-14 3.477-.399 9.197-1.942 12.5-1 3.922 1.118 7.054 8.904 8.5 10"/><path fill="#41e6f6" d="M297 323c-2.88 22.65-7.62 45.134-17 66-3.584-5.611-4.892-11.154-9-16-.402-2.277-3.14-4.366 2-4 3.071.995 8.607 3.619 11 .5 1.653-2.155 4.128-21.202 5-25.5 1.548-7.637 2.074-10.665 4.5-18 .184-.556-3.775-6.582 3.5-3"/><path fill="#2b88b4" d="M293 374c-1.598 7.543-3.686 15.653-8 22-3.01-3.135-2.906-3.722-5-7 9.38-20.866 14.12-43.35 17-66 .092.046.797-2.501 2-.5 1.337 2.224-4.838 46.016-6 51.5"/><path fill="#f4fcfc" d="M546 330c.722 1.985 2.902 4.248 3 4.5.684 1.767-2.173 1.502-2 2 4.695 13.503 14.708 7.158 24 1.5-3.973 7.578-10.784 11.271-19 8-.879-.35-6.243-5.762-7-7-3.791-6.202-3.277-9.042-3-16.5 3.801-1.197 1.832 6.633 2 7 .416.909 1.954.374 2 .5"/><path fill="#66f3fd" d="M592 347c-.7 20.203-28.778 32.513-38 11-1.802-4.203-2.471-7.359-2-12 8.216 3.271 15.027-.422 19-8 2.69-5.13 2.936-7.427 4-13 8.587 6.511 17.585 5.117 17 22"/><path fill="#0471aa" d="M701 328c.749 10.236 1.393 20.878 3 31 1.327 8.362 2.811 17.321 5 25.5 1.09 4.074 8.006 15.106 8 16-.007.965-10.531 15.402-11.5 15.5-8.3.842-17.197-34.456-18.5-41-3.175-15.939-4.155-31.792-5-48 6.202-.959 13.455-2.582 19 1"/><path fill="#39748e" d="M773 341c-4.142 9.571-12.003 14.041-19 21-11.363 3.443-19.079-20.956-21-30 5.441-.802 11.051-.55 16.5-1 2.814-.232 4.708-3 5-3 1.131.002 14.715 12.862 18.5 13"/><path fill="#4494bd" d="M335 331c-.864 10.274-1.388 20.824-3 31-1.618 10.218-9.086 44.342-15 51.5-7.669 9.283-10.543-5.912-16-10.5.796-6.874 8.023-20.779 10-29.5 3.115-13.745 4.605-28.472 6-42.5z"/><path fill="#0086bc" d="M710 332c.624 7.894 5.438 21.587-4 21-.996-6.645-2.393-13.261-3-20z"/><path fill="#406977" d="M672 333c-24.71 124.722-179.942 174.762-269.5 85-2.091-2.096-3.945-2.542-2.5-6 70.641 58.276 170.994 50.024 233-16 7.858-8.367 14.924-15.515 21-25.5z"/><path fill="#00162c" d="M539 341c-10.097-.026-19.131 1.346-29 1-1.134-.04-5.306-.759-7-1l26.5-6z"/><path fill="#f4f8f9" d="M366 364c-6.878-8.06-9.273-18.12-12-28 5.057 8.651 7.413 19.219 12 28"/><path fill="#0198c6" d="M539 341c2.188.006 4.597.168 6-2 .757 1.238 6.121 6.65 7 7-.471 4.641.198 7.797 2 12-5.155-7.049-10.777-2.497-17.5-4-6.953-1.554-13.019-5.328-19.5-8-3.759-1.55-5.89.073-7-4 9.869.346 18.903-1.026 29-1"/><path fill="#498090" d="M259 358h-2c-5.034-4.947-9.762-11.21-12-18 2.762 4.348 10.325 14.869 14 18"/><path fill="#409ac5" d="M289 344c-.872 4.298-3.347 23.345-5 25.5-2.393 3.119-7.929.495-11-.5-.341-.11-3.433-2.73-4-3 8.025-1.616 10.043-9.965 13-16 .67-1.367 3.61-4.855 4-6l.5 2z"/><path fill="#01a9d2" d="M511 398c-2.58 9.595-14.142-1.273-19 4-35.5-5.045-66.57-25.034-86-55 29.032 29.971 61.973 50.843 105 51"/><path fill="#052135" d="M282 350c-2.957 6.035-4.975 14.384-13 16-6.869-3.265-6.476-2.571-12-8h2c1.085.924 1.265 2.059 3 3 9.242 5.012 15.271-5.039 19-13z"/><path fill="#0481bf" d="M738 386c-1.724-2.41-3.87-5.288-5-8 2.703-.626 1.48-10.255 1-13 4.444 2.133 7.073 3.344 12 1.5-1.808-.667-1.472-2.325-2-3.5 7.469 1.577-3.192 18.501-6 23"/><path fill="#013e60" d="M585 396c-40.139 26.433-89.812 28.652-134 10-.556-3.265 3.304-1.404 4.5-1 34.254 11.582 60.817 13.618 97 6z"/><path fill="#99bbc8" d="M337 436c-.101-.117-3.346.376-1.5-2 .817.291 1.392 1.936 1.5 2m108 50c-3.237-.474-6.723-.781-10-1-29.416-8.388-77.783-25.665-98-49 15.85 9.393 30.527 20.371 47.5 28 16.778 7.542 43.476 10.912 58 18 .212.103 2.75 3.156 2.5 4"/><path fill="#5e808d" d="M593 480c-20.324 6.115-35.674 9.405-57 11 4.139-5.538 20.267-2.845 25.5-4 .459-.101.765-2.713 2-3 38.952-9.061 76.42-23.274 110-45-20.745 20.111-52.79 32.663-80.5 41"/><path fill="#072132" d="M435 485c3.277.219 6.763.526 10 1 32.092 4.697 58.243 7.45 91 5 21.326-1.595 36.676-4.885 57-11-6.442 5.361-19.991 8.282-28.5 10-44.242 8.935-86.755 7.188-129.5-5"/><path fill="#060c2e" d="M370 487c-17.685-6.536-40.679.488-49 18 4.207-19.584 32.832-27.118 49-18"/><path fill="#325d6b" d="M566 514c-7.709 3.727-31.39 6.468-40.5 7-50.808 2.965-102.431-8.484-144.5-33.5l10-4.5c55.811 28.525 121.378 35.434 182.5 21 4.736.901-6.429 9.482-7.5 10"/><path fill="#031529" d="M690 540c-.205-.136-1.168.149-1-1 3.292-2.246 11.307-12.546 12-16.5.724-4.131-.236-26.254-8-20.5-1.732-3.749-3.071-4.488-6-7-11.282-9.676-11.075-6.285-23.5-3-.174.046-2.835-2.072-3-2-.865.376-9.743 9.772-10.5 11-5.691 3.316-1.096-12.931 0-14 3.541-.061 10.901-3.825 15.5-4 32.427-1.234 52.335 35.937 24.5 57"/><path fill="#094373" d="M370 487c.791.292 1.921.09 3 1l12 52c-1.673.043-3.445-.059-5 0-.646-3.163-4.599-15.759-6-17.5-1.604-1.993-2.863.566-3 .5-1.801-.863-.437-1.913-1.5-3-2.702 4.433-5.143 7.968-9.5 11-8.674 3.612-21.612 4.639-27-5 2.38.373 6.3 4.487 9.5 5 24.722 3.961 35.838-27.867 15.5-38-21.696-10.81-40.602 13.492-28 34 1.083 1.763 6.383 7.394 8 8l-1 5c-2.843-.744-4.137-2.795-7-3-9.484-11.968-12.738-14.599-9-32 8.321-17.512 31.315-24.536 49-18"/><path fill="url(#d)" d="M393 496c.699 4.123 10.602 8.292 14.5 10 58.727 25.729 130.226 29.169 189.5 4 1.125-.478 3.486 1.12 3-2 15.011-5.501 29.138-14.236 44.5-19 5.292 2.39-6.81 45.539-9.5 52-82.616.534-167.659-3.808-249-2l-10-49.5c1.053-2.819 14.551 5.355 17 6.5" style="fill:url(#d)"/>/&gt;<path fill="#004f5b" d="m687 495-3.5 2c6.693 1.649 9.335 17.274 8.5 21.5-.158.801-11.737 10.21-12.5 10.5-2.134.811-9.418.192-11.5 2-1.727-1.341-6.139-2.063-8.5-4-3.491-2.864-6.656-11.312-10.5-9-.729-2.747-.695-6.578-3-6 1.18-3.005 2.376-8.366 4-11 .757-1.228 9.635-10.624 10.5-11 .165-.072 2.826 2.046 3 2 12.425-3.285 12.218-6.676 23.5 3m-12.5 11c-1.295.145-5.297 3.486-3 5 6.49.998 9.701-5.749 3-5"/><path fill="#04c2db" d="m358 493-1 1c-4.072-2.24-8.645-2.187-13-1-7.927 2.161-14.055 11.078-14 19-7.149 1.896-.36 9.214 1 12 .247.506-.57 2.074 1 2-.108.027.059 1.543-2 1-12.602-20.508 6.304-44.81 28-34"/><path fill="#00728c" d="M357 494c7.12 3.917 9.818 14.537 8 22-5.857 8.573-13.777 14.498-24.5 9-1.649-.845-9.177-9.471-8.5-10.5 2.517-3.826 5.642 4.366 7.5 5.5 11.635 7.102 20.738-5.834 14.5-17.5-2.981-5.576-10.143-3.769-10-9.5 4.355-1.187 8.928-1.24 13 1"/><path fill="#004e72" d="M365 516c-4.473 18.358-34.849 17.786-35-4-.055-7.922 6.073-16.839 14-19-.143 5.731 7.019 3.924 10 9.5 6.238 11.666-2.865 24.602-14.5 17.5-1.858-1.134-4.983-9.326-7.5-5.5-.677 1.029 6.851 9.655 8.5 10.5 10.723 5.498 18.643-.427 24.5-9m-20-10 2-1.5c-26.78 5.949 12.645 19.227-2 1.5"/><path fill="#0095bf" d="M333 526c-.396-.709.741-2.526-2-2-1.36-2.786-8.149-10.104-1-12 .151 21.786 30.527 22.358 35 4 1.818-7.463-.88-18.083-8-22l1-1c20.338 10.133 9.222 41.961-15.5 38-3.2-.513-7.12-4.627-9.5-5"/><path fill="#00636f" d="M687 495c2.929 2.512 4.268 3.251 6 7 3.84 8.311 4.396 15.028 0 23.5-3.273 6.307-9.522 6.817-12.5 12.5l-9.5-2c-1.642-.629-4.671.298-6-1.5l5-1c.69-3.336-1.491-2.105-2-2.5 2.082-1.808 9.366-1.189 11.5-2 .763-.29 12.342-9.699 12.5-10.5.835-4.226-1.807-19.851-8.5-21.5z"/><path fill="#e8f4f7" d="M597 510c-59.274 25.169-130.773 21.729-189.5-4-3.898-1.708-13.801-5.877-14.5-10 68.061 31.829 131.439 39.505 204 14"/><path fill="#033548" d="M689 539c-9.229 6.296-10.11-.588-11.5-1-3.422-1.015-3.882-.997-6.5-2l9.5 2c2.978-5.683 9.227-6.193 12.5-12.5 4.396-8.472 3.84-15.189 0-23.5 7.764-5.754 8.724 16.369 8 20.5-.693 3.954-8.708 14.254-12 16.5"/><path fill="#1facd4" d="M345 506c-2.293-.514-4.669 1.081-5 3.5.896 2.054 5.359-3.165 5-3.5 14.645 17.727-24.78 4.449 2-1.5z"/><path fill="#060c2e" d="M330 537c.956 1.206 1.715 2.552 3 3.5-.154.819-1.395.38-2 .5-11.503-10.828-17.191-20.866-10-36-3.738 17.401-.484 20.032 9 32"/><path fill="#004e72" d="M345 506c.359.335-4.104 5.554-5 3.5.331-2.419 2.707-4.014 5-3.5"/><path fill="#018493" d="M674.5 506c6.701-.749 3.49 5.998-3 5-2.297-1.514 1.705-4.855 3-5"/><path fill="#e8f4f7" d="M600 508c.486 3.12-1.875 1.522-3 2 .17-.06-.841-.593 3-2"/><path fill="#02547a" d="M649 518c2.102 7.918 3.569 15.571 10 21.5-7.226 2.044-14.694 1.309-22 1.5 3.617-9.193 5.45-19.965 9-29 2.305-.578 2.271 3.253 3 6"/><path fill="#125462" d="M668 531c.509.395 2.69-.836 2 2.5l-5 1c1.329 1.798 4.358.871 6 1.5 2.618 1.003 3.078.985 6.5 2 1.39.412 2.271 7.296 11.5 1-.168 1.149.795.864 1 1 6.575 4.366 64.964-1.89 77.5 3 7.6 3.868.176 64.626 3.5 71.5.834 1.725 17.463 1.715 23 19.5l-1 1c-1.931-10.117-15.142-18.523-25-19-2.817-17.683 3.756-48.962 0-65-.633-2.704-1.638-3.222-3.5-5-136.238-2.274-273.495-4.889-410-3-26.652.369-59.741-.995-85.5 2-7.131.829-14.271-1.686-16 7.5-3.247 17.255 1.64 47.093 1 65.5-.657.006-1.353-.07-2 0-13.429 1.443-24.889 17.595-17 30-1.708-.335-2.634.232-4 1-1.009-1.615-.788-6.197-5-4 2.334-5.85 1.178-10.763 6-17.5 5.403-7.549 17.487-10.049 18-11 3.705-6.865-4.913-69.276 4.5-73.5 22.531-5.763 55.612 2.147 76.5-2 .605-.12 1.846.319 2-.5-1.285-.948-2.044-2.294-3-3.5 2.863.205 4.157 2.256 7 3 6.631 1.736 19.262 2.172 25-1 3.026 4.548 13.825 1.158 18 1 1.555-.059 3.327.043 5 0 1.311-.034.929-.998 1-1 81.341-1.808 166.384 2.534 249 2 .646-.004 1.278.019 2 0 7.306-.191 14.774.544 22-1.5-6.431-5.929-7.898-13.582-10-21.5 3.844-2.312 7.009 6.136 10.5 9 2.361 1.937 6.773 2.659 8.5 4"/><path fill="#10486b" d="M371 523c-.962 4.764-4.674 13.609-9 16-5.738 3.172-18.369 2.736-25 1l1-5c7.889 2.957 15.464.549 22-4 4.357-3.032 6.798-6.567 9.5-11 1.063 1.087-.301 2.137 1.5 3"/><path fill="#0c5995" d="M380 540c-4.175.158-14.974 3.548-18-1 4.326-2.391 8.038-11.236 9-16 .137.066 1.396-2.493 3-.5 1.401 1.741 5.354 14.337 6 17.5"/><path fill="#09416e" d="M333 526c-.263-.041-.749-.063-1 0-1.57.074-.753-1.494-1-2 2.741-.526 1.604 1.291 2 2"/><path fill="#0096c4" d="M360 531c-6.536 4.549-14.111 6.957-22 4-1.617-.606-6.917-6.237-8-8 2.059.543 1.892-.973 2-1 .251-.063.737-.041 1 0 5.388 9.639 18.326 8.612 27 5"/><path fill="#daf0f5" d="M768 551c-5.115 5.809-4.346-.361-10.5-2L271 548l-2-3c25.759-2.995 58.848-1.631 85.5-2 136.505-1.889 273.762.726 410 3 1.862 1.778 2.867 2.296 3.5 5"/><path fill="url(#e)" d="m269 545 2 3c-4.46-.245-9.174 1.145-12 4.5 2.133 2.57 5.823-.439 7.5-.5 78.283-2.829 161.278-1.03 240-1 84.236.032 168.958 1.196 253 2 .87.45 3.281 3.672 3.5 4.5 3.374 12.781-1.764 44.869-1 59.5-2.031.36-3.251 1.372-5 2-18.404 6.605-29.683 23.079-14 40-13.744 2.87-10.132 19.925-13 27.5-3.654 9.652-13.451 8.966-13 29.5-131.733 57.988-284.071 49.785-416-3 .225-17.182-5.663-16.602-9-26.5-1.007-2.988.201-9.43-1-13-1.906-5.664-6.807-9.727-10-14.5 10.714-16.11 3.435-28.489-12-36-5.32-2.589-8.646-5.06-15-5 .64-18.407-4.247-48.245-1-65.5 1.729-9.186 8.869-6.671 16-7.5" style="fill:url(#e)"/>/&gt;<path fill="#f9fcfe" d="m271 548 486.5 1c6.154 1.639 5.385 7.809 10.5 2 3.756 16.038-2.817 47.317 0 65-2.985-.144-3.906.629-6 1-.764-14.631 4.374-46.719 1-59.5-.219-.828-2.63-4.05-3.5-4.5-84.042-.804-168.764-1.968-253-2-78.722-.03-161.717-1.829-240 1-1.677.061-5.367 3.07-7.5.5 2.826-3.355 7.54-4.745 12-4.5"/><path fill="#06b4d7" d="M768 616c9.858.477 23.069 8.883 25 19 4.202 22.015-16.552 24.276-32.5 26-1.205.13-5.338.283-2.5-2 7.243-1.524 21.192-1.28 25.5-9 .81-1.452 2.547-.992 0-3-4.606 4.887-11.444 9.912-18.5 8.5 4.014-1.82 7.12-1.913 11-4.5 1.63-1.087 3.673-2.312 4-4.5-3.056.354-3.906 5.405-5 0 7.18-4.724 12.005-11.054 7-18.5-2.73-4.061-14.92-9.019-13-1-7.044 4.138-1.816 19.912 8 15v1c-5.305 2.991-15.12 2.575-17-3.5-1.397-4.514 2.567-9.893.5-13.5-6.088 6.373-14.54 9.541-13.5 20-3.748-5.894-1.486-10.709-4-16 4.496-5.104 9.453-6.381 14-11 1.749-.628 2.969-1.64 5-2 2.094-.371 3.015-1.144 6-1"/><path fill="#0dc4db" d="M255 630c-3.286 3.09-.993 2.296 0 4-2.957-.506-6.404 2.488-6 6-1.293-.759-.701-1.124-2-2-1.341-.905-2.818 2.375-6-2.5.013 5.113-4.186 6.878-3 12.5.003 3.947-1.213.351-3 0-7.889-12.405 3.571-28.557 17-30 7.012 5.486-2.05 6.752 3 12"/><path fill="#0398b2" d="M254 618c6.354-.06 9.68 2.411 15 5 10.928 7.294 21.466 19.804 11 31.5 3.202-6.255 2.748-13.629-.5-19.5 1.169 14.872-10.319 19.487-23.5 19-2.235-3.36-3.978-2.703-3-8 7.58.367 10.289-5.758 9-12.5-.074-.384-5.927-2.385-7-3.5-5.05-5.248 4.012-6.514-3-12 .647-.07 1.343.006 2 0"/><path fill="#00294e" d="M757 619c-4.547 4.619-9.504 5.896-14 11-6.165 6.999-6.774 15.616-2 23.5 1.531 2.529 12.504 9.976 13.5 9.5 3.534-1.688-2.68-2.7 3.5-4-2.838 2.283 1.295 2.13 2.5 2 15.948-1.724 36.702-3.985 32.5-26l1-1c1.713 5.502.806 12.832 1 13.5.247.849 6.237 3.44 8 6 5.433 7.888 4.147 19.948 4 29.5-.722.15-1.357.647-2 1-2.633 1.443-3.238 4.893-6 7 8.4-6.597 7.632-44.251-5.5-40-2.9.939-.155 4.059-.5 4.5-1.082 1.382-8.05 7.437-8 8 .129 1.451 19.044 14.637 12.5 24.5-1.246-8.712-2.775-16.042-11.5-20-7.02-3.185-8.494-.421-13-1-1.998-.257-4.48-.932-6-1-8.175-.364-15.061-3.613-22.5 1-16.242 10.071-7.814 31.091 8.5 36 13.645 4.106 29.989 2.944 41.5-6-.751 14.236-2.68 15.372-16.5 17-.278-1.76-2.706-.815-4-1-4.706-.672-9.313-.308-14 0-2.841-1.591-10.153-3.034-13-5-1.599-1.104-3.023-5.016-4-6-.945-.951-2.625-1.472-3-2-10.645-14.977-8.896-28.76 9-36.5.581-1.344-4.905-3.319-6-4.5-15.683-16.921-4.404-33.395 14-40m30.5 38c-.179.024-2.869 2.271-2 3 2.056-.148 4.856-3.386 2-3"/><path fill="#004e7c" d="M281 659c-2.641 3.97-9.51 4.383-6 8l-2 1c-5.09-1.458-4.695-.01-8 0 1.232-7.159-12.934-3.124-17.5-4-8.064-1.546-12.499-8.601-16.5-15 1.366-.768 2.292-1.335 4-1 1.787.351 3.003 3.947 3 0 5.16 3.49 11.739 5.768 18 6 13.181.487 24.669-4.128 23.5-19 3.248 5.871 3.702 13.245.5 19.5 10.466-11.696-.072-24.206-11-31.5 15.435 7.511 22.714 19.89 12 36"/><path fill="#6df5fa" d="M782 628c1.892 5.406.046 12.155-5 15v-1c7.284-6.428.959-20.263-8-15-1.92-8.019 10.27-3.061 13 1"/><path fill="#0070a3" d="M777 643c5.046-2.845 6.892-9.594 5-15 5.005 7.446.18 13.776-7 18.5 1.094 5.405 1.944.354 5 0-.327 2.188-2.37 3.413-4 4.5-9.245 1.498-22.913 4.572-29-5-1.04-10.459 7.412-13.627 13.5-20 2.067 3.607-1.897 8.986-.5 13.5 1.88 6.075 11.695 6.491 17 3.5"/><path fill="#118bbd" d="M777 642c-9.816 4.912-15.044-10.862-8-15 8.959-5.263 15.284 8.572 8 15m-5.5-14c-7.154 1.645-3.39 12.235 1 13 5.684.991 9.774-15.477-1-13"/><path fill="#f6fdfc" d="M771.5 628c10.774-2.477 6.684 13.991 1 13-4.39-.765-8.154-11.355-1-13"/><path fill="#04749a" d="M253 646c-5.376-.26-7.535-3.208-6-8 1.299.876.707 1.241 2 2 .522.306 6.325 9.461 9 .5 1.876-6.285-2.79-6.139-3-6.5-.993-1.704-3.286-.91 0-4 1.073 1.115 6.926 3.116 7 3.5 1.289 6.742-1.42 12.867-9 12.5"/><path fill="#00417a" d="M747 646c6.087 9.572 19.755 6.498 29 5-3.88 2.587-6.986 2.68-11 4.5 7.056 1.412 13.894-3.613 18.5-8.5 2.547 2.008.81 1.548 0 3-4.308 7.72-18.257 7.476-25.5 9-6.18 1.3.034 2.312-3.5 4-.996.476-11.969-6.971-13.5-9.5-4.774-7.884-4.165-16.501 2-23.5 2.514 5.291.252 10.106 4 16"/><path fill="#eefdfd" d="M255 634c.21.361 4.876.215 3 6.5-2.675 8.961-8.478-.194-9-.5-.404-3.512 3.043-6.506 6-6"/><path fill="#06b1c9" d="M247 638c-1.535 4.792.624 7.74 6 8-.978 5.297.765 4.64 3 8-6.261-.232-12.84-2.51-18-6-1.186-5.622 3.013-7.387 3-12.5 3.182 4.875 4.659 1.595 6 2.5"/><path fill="#01132c" d="M231 649c4.001 6.399 8.436 13.454 16.5 15 4.566.876 18.732-3.159 17.5 4-1.816.006-8.329.672-10 1-3.935.772-5.922-.53-10.5 2-4.026 2.225-11.344 14.42-11.5 19-.124 3.64-.419 5.094 3 7l-1 1c-2.516-1.059-3.94-.091-6-1-.256-.113-2.864.769-5.5-1-3.811-2.557-4.641-7.349-7.5-10.5-3.456 16.766 15.341 41.235 32 29-4.255-.172-14.735-2.034-17.5-5.5-2.881-3.612.08-5.588-.5-9 12.601 10.816 32.835 13.282 46.5 3 12.056-9.072 12.584-30.393-3.5-35l2-1c3.998 4.119 9.741 5.109 12 13.5 4.378 16.263-7.317 22.715-7 24 .21.851 10.884 4.125 12 12 2.72 19.189-20.996 33.206-38 31.5-.962-.096-2.129.198-3 0-1.396-.318-4.443-2.191-6-3l1-1c16.663 5.237 28.18-4.821 40-14.5-6.932-1.403-11.508 8.071-18.5 10.5-10.399 3.613-28.136 4.146-30.5-9.5-.528-3.049 1.481-8.936 1-10-.724-1.6-6.301-1.741-9-3.5-.468-.305-1.56-.689-2-1-4.73-3.342-12.066-12.812-13-18.5-.253-1.542-.245-29.218 0-31 1.148-8.346 8.802-13.486 12-21.5 4.212-2.197 3.991 2.385 5 4m-5.5 3c-13.696 11.598-10.986 28.865-1 42 2.643-9.639 5.192-20.927 14.5-26.5l-13-11 9 2zm47.5 61c-7.974 5.779-21.624 4.823-26 14-10.51 22.041 31.081 7.315 38-3.5 8.662-13.541-6.359-22.21-12-10.5"/><path fill="#30cce4" d="M799 691c-1.059.808-2.849.897-3 1 .169-9.718-2.94-17.44-10-24 8.725 3.958 10.254 11.288 11.5 20 6.544-9.863-12.371-23.049-12.5-24.5-.05-.563 6.918-6.618 8-8 .345-.441-2.4-3.561.5-4.5 13.132-4.251 13.9 33.403 5.5 40"/><path fill="#19c2de" d="m225.5 652 9.5 6.5-9-2 13 11c-9.308 5.573-11.857 16.861-14.5 26.5-9.986-13.135-12.696-30.402 1-42"/><path fill="#028ea7" d="M787.5 657c2.856-.386.056 2.852-2 3-.869-.729 1.821-2.976 2-3"/><path fill="#468ca0" d="M301 713c-.3 22.879-17.766 66.8-47 59 .019-7.786-2.881-16.161 0-24 17.004 1.706 40.72-12.311 38-31.5-1.116-7.875-11.79-11.149-12-12-.317-1.285 11.378-7.737 7-24-2.259-8.391-8.002-9.381-12-13.5-3.51-3.617 3.359-4.03 6-8 3.193 4.773 8.094 8.836 10 14.5 1.201 3.57-.007 10.012 1 13 3.337 9.898 9.225 9.318 9 26.5"/><path fill="#4289a0" d="M743 659c1.095 1.181 6.581 3.156 6 4.5-17.896 7.74-19.645 21.523-9 36.5-25.761 17.312 4.67 47.515 27 44 4.556 2.228.272 29.149 0 35-.655-2.383-1.939-.107-3 0-8.114.82-16.961.793-23-5.5-6.409-6.678-23.795-48.137-24-57.5-.451-20.534 9.346-19.848 13-29.5 2.868-7.575-.744-24.63 13-27.5"/><path fill="#006ba2" d="M767 666c-13.97 2.58-12.881 18.721.5 20 9.726.93 17.724-9.274 18.5 8-18.663 5.816-37.326.419-48.5-16-4.874 3.92 10.801 24.067 16.5 24-.751.088-1.106.132-1 1-16.314-4.909-24.742-25.929-8.5-36 7.439-4.613 14.325-1.364 22.5-1"/><path fill="#1cbddf" d="M773 667c9.768 4.746 17.131 16.538 15 27-.639.077-1.511-.152-2 0-.776-17.274-8.774-7.07-18.5-8-13.381-1.279-14.47-17.42-.5-20 1.52.068 4.002.743 6 1"/><path fill="#001430" d="M786 668c7.06 6.56 10.169 14.282 10 24-2.784 1.9-4.08 2.541-7 4-1.241.036-1.187-1.082-1-2 2.131-10.462-5.232-22.254-15-27 4.506.579 5.98-2.185 13 1"/><path fill="#007ba9" d="M273 668c16.084 4.607 15.556 25.928 3.5 35-13.665 10.282-33.899 7.816-46.5-3-.027-.156-1.812-.788-1-3 2.06.909 3.484-.059 6 1 2.521 1.061 8.025 5.989 11.5 7 18.919 5.503 42.417-3.145 36-26-2.748 17.122-33.751 25.106-46.5 18-3.419-1.906-3.124-3.36-3-7 5.457-7.181 7.17-.568 13.5 0 22.905 2.056 25.524-22.654-.5-17.5l12.5-1.5-3.5-2c1.671-.328 8.184-.994 10-1 3.305-.01 2.91-1.458 8 0"/><path fill="#25c7e4" d="m255 669 3.5 2-12.5 1.5c26.024-5.154 23.405 19.556.5 17.5-6.33-.568-8.043-7.181-13.5 0 .156-4.58 7.474-16.775 11.5-19 4.578-2.53 6.565-1.228 10.5-2"/><path fill="#002b57" d="M786 694c.489-.152 1.361.077 2 0-.187.918-.241 2.036 1 2-20.001 9.992-17.063 3.895-35 6-5.699.067-21.374-20.08-16.5-24 11.174 16.419 29.837 21.816 48.5 16"/><path fill="#013c6f" d="m235 698 1-1c12.749 7.106 43.752-.878 46.5-18 6.417 22.855-17.081 31.503-36 26-3.475-1.011-8.979-5.939-11.5-7"/><path fill="#09a8ca" d="M805 684c3.409 17.459-9.642 33.069-28 31-.107-.868.249-.912 1-1 13.82-1.628 15.749-2.764 16.5-17-11.511 8.944-27.855 10.106-41.5 6-.106-.868.249-.912 1-1 17.937-2.105 14.999 3.992 35-6 2.92-1.459 4.216-2.1 7-4 .151-.103 1.941-.192 3-1 2.762-2.107 3.367-5.557 6-7"/><path fill="#000a20" d="M795 714c-.745.643-1.41 1.515-2 2-1.888 1.551-13.672 6.777-14 7.5-1.152 2.541 1.905 9.618-3.5 12.5H755c-2.708-1.188-9.249-4.975-10-7.5-.105-.353 2.044-2.346 2-2.5 7.495 7.474 19.224 5.107 29 4.5-3.614-11.694-6.361-12.102-16-17.5 4.687-.308 9.294-.672 14 0 .404 1.794 1.467 1.827 3 2 18.358 2.069 31.409-13.541 28-31 .643-.353 1.278-.85 2-1-.247 16.048 1.566 19.287-12 31"/><path fill="#0eb0cd" d="M229 697c-.812 2.212.973 2.844 1 3 .58 3.412-2.381 5.388.5 9 2.765 3.466 13.245 5.328 17.5 5.5-16.659 12.235-35.456-12.234-32-29 2.859 3.151 3.689 7.943 7.5 10.5 2.636 1.769 5.244.887 5.5 1"/><path fill="#00081f" d="M743 702c-7.144 2.994-8.309 4.628-9 12-1.359 14.488 19.019 28.815 33 30-22.33 3.515-52.761-26.688-27-44 .375.528 2.055 1.049 3 2"/><path fill="#0176a9" d="M747 708c-6.989 5.134-1.186 11.952 0 17-5.626 2.558-10.808-6.747-13-11 .691-7.372 1.856-9.006 9-12 .977.984 2.401 4.896 4 6"/><path fill="#007daf" d="M247 727c6.209-7.377 13.726 1.846 22.5-1 5.765-1.87 1.361-8.56 3.5-13 5.641-11.71 20.662-3.041 12 10.5-6.919 10.815-48.51 25.541-38 3.5"/><path fill="#00b6da" d="M760 713c9.639 5.398 12.386 5.806 16 17.5-9.776.607-21.505 2.974-29-4.5-.088-.305.074-.684 0-1-1.186-5.048-6.989-11.866 0-17 2.847 1.966 10.159 3.409 13 5"/><path fill="#07b0d1" d="M273 713c-2.139 4.44 2.265 11.13-3.5 13-8.774 2.846-16.291-6.377-22.5 1 4.376-9.177 18.026-8.221 26-14"/><path fill="#529ab5" d="M717 716c.205 9.363 17.591 50.822 24 57.5 6.039 6.293 14.886 6.32 23 5.5.204 4.815.809 12.562 0 17l-511-1c-.591-7.749.981-15.462 1-23 29.234 7.8 46.7-36.121 47-59 131.929 52.785 284.267 60.988 416 3"/><path fill="#07669d" d="M778 714c-.751.088-1.107.132-1 1-1.533-.173-2.596-.206-3-2 1.294.185 3.722-.76 4 1"/><path fill="#033c55" d="M747 725c.074.316-.088.695 0 1 .044.154-2.105 2.147-2 2.5.751 2.525 7.292 6.312 10 7.5 17.502 7.677 36.578.668 38-20 .59-.485 1.255-1.357 2-2 .599 6.776-2.646 14.405-7 19.5-3.632 4.251-16.612 10.065-17 11-2.709 6.534 1.116 48.753-1 60-1.737 9.235-15.027 7.933-23.5 8.5-17.182 1.149-46.04-3.008-61 0-3.552.714-2.497.353-2.5 4-.035-.179-1.912-1.532-1-3.5-1.743-1.635-1.901.529-2 .5-6.218-1.847-7.213.025-12 0-3.795-.02-4.468-.759-9 0-1.996.334-3.004-2.488-5 .5 7.626 21.745-16.772 41.103-37 35.5l1-2c7.942 1.933 16.581.753 22-5.5.017-.878-15.844-1.395-17.5-1.5-.613-.039.253 2.596-3 2-1.814-.332-10.593-6.685-11.5-8.5-1.022-2.046 1.037-2.371 1-2.5.9 2.136 8.802 8.779 10.5 9 2.968.387 17.348-3.032 20-5 4.681-3.472 9.51-13.841 7.5-19.5-1.568-4.415-9.885-3.189-10-6.5 23.389-.204 108.399 3.019 124.5-2 11.285-3.518 5.027-18.854 5.5-29 .272-5.851 4.556-32.772 0-35-13.981-1.185-34.359-15.512-33-30 2.192 4.253 7.374 13.558 13 11"/><path fill="#064c7a" d="M229 717c-2.401 9.482 8.366 24.286 17 27l-1 1c-11.109-5.77-19.045-15.977-18-29 .44.311 1.532.695 2 1"/><path fill="#2dd5ed" d="M793 716c-1.422 20.668-20.498 27.677-38 20h20.5c5.405-2.882 2.348-9.959 3.5-12.5.328-.723 12.112-5.949 14-7.5"/><path fill="#01a6c6" d="M246 744c-8.634-2.714-19.401-17.518-17-27 2.699 1.759 8.276 1.9 9 3.5.481 1.064-1.528 6.951-1 10 2.364 13.646 20.101 13.113 30.5 9.5 6.992-2.429 11.568-11.903 18.5-10.5-11.82 9.679-23.337 19.737-40 14.5"/><path fill="#093d4f" d="M254 748c-2.881 7.839.019 16.214 0 24-.019 7.538-1.591 15.251-1 23 .05.653-.071 1.352 0 2 1.175 10.726 1.277 10.588 12.5 12 123.776.914 247.714 2.079 371.5 1 .115 3.311 8.432 2.085 10 6.5 2.01 5.659-2.819 16.028-7.5 19.5-2.652 1.968-17.032 5.387-20 5-1.698-.221-9.6-6.864-10.5-9-1.93-6.771-3.064-10.868-1-18.5-5.106-3.276-7.414-1.229-11 .5-.137.066-1.365-2.322-3 .5-.464 2.102.783 3.561 1 5.5-3.953.797-.747-6.749-2.5-8-1.514-1.08-5.739 1.013-6.5 1-3.389-.057-2 1.055-3 1-45.663-2.492-98.339-.718-144 0-1.714.027.62-1.344-3-1-2.437.232-5.972-3.945-8 2-4.013-6.341-4.109 10.244-5 12.5-6.19 15.666-20.949 27.004-38 20.5-12.037-5.981-22.449-19.959-16-33.5-1.996-2.99-3.008-.162-5-.5-3.432-.582-5.413-.906-9-1-5.244-.137-12.3 2.014-13 2-1.018-.021.287-.95-3-1-28.086-.429-56.479-.743-84.5-3-5.537-3.243-3.828-53.723-3.5-63 .871.198 2.038-.096 3 0m378.5 71c-7.842-1.703-16.701 9.079-7 14 12.032 6.103 14.924-12.279 7-14M393 825c-.262-.216-1.723-1.069-2-1 3.106-6.069-4.783.546-5 1.5-2.909 12.778 14.238 13.658 16 5 1.361-6.687-3.718-10.076-9-5.5"/><path fill="#559fb8" d="M767 779c-.473 10.146 5.785 25.482-5.5 29-16.101 5.019-101.111 1.796-124.5 2-123.786 1.079-247.724-.086-371.5-1-11.223-1.412-11.325-1.274-12.5-12l10.5 4c155.163-6.196 314.417 5.951 469 0 5.534-.213 29.421-.836 32-3 1.803-1.513-.518-1.899-.5-2 .809-4.438.204-12.185 0-17 1.061-.107 2.345-2.383 3 0"/><path fill="#addae9" d="M764 796c-.018.101 2.303.487.5 2-2.579 2.164-26.466 2.787-32 3-154.583 5.951-313.837-6.196-469 0l-10.5-4c-.071-.648.05-1.347 0-2z"/><path fill="#335f6e" d="M436 813c4.266 17.512 8.437 35.356 14 52.5 3.769 11.614 22.79 54.288 20 63-1.035 3.232-9.03 5.552-12 6.5-8.413-20.898-20.382-43.294-41-54 4.706-7.115.801-19.847 0-28 1.823-1.614 13.969-15.456 7-17 3.165-6.839 2.309-16.043 4-21 2.028-5.945 5.563-1.768 8-2"/><path fill="#020a23" d="M439 814c2.513 11.407 4.67 23.312 8 34.5 6.334 21.278 21.93 49.069 25 69.5 2.971 19.772-9.869 19.845-26.5 23-42.86 8.132-103.393 8.074-146.5 2l3-2c42.884 6.256 111.18 5.446 153-6 .841-.23 2.221.249 3 0 2.97-.948 10.965-3.268 12-6.5 2.79-8.712-16.231-51.386-20-63-5.563-17.144-9.734-34.988-14-52.5 3.62-.344 1.286 1.027 3 1"/><path fill="#030d28" d="M586 813c-5.13 18.02-9.292 36.666-15 54.5-3.483 10.883-21.529 53.272-19 61 .861 2.63 6.62 4.506 9 5.5 2.751 1.148 5.255 1.354 8 2 15.195 3.574 38.713 5.958 54.5 7 41.464 2.736 83.22.791 124-7 1.95-2.113-6.202-11.123-7.5-13-.156-.225.158-.779 0-1l1-1c.605.835 2.927 2.318 4 4 2.515 3.941 5.689 7.466 6 12.5-38.034 8.745-79.255 10.135-118.5 8.5-16.889-.704-56.043-3.086-71-8-11.739-3.857-14.176-7.131-12.5-19 2.602-18.422 17.945-47.139 24-66.5 3.936-12.586 6.161-25.875 10-38.5 1 .055-.389-1.057 3-1"/><path fill="#336070" d="M595 820c1.48 13.253 7.213 22.597 19 29 2.713 1.474 6.327 4.33 9.5 5 3.202.676 13.082-2.411 12.5 3-3.405 1.973-6.952 3.874-11 4-8.589.267-14.104-3.983-20.5-9l.5 29c-5.673 3.303-20.772 16.313-25 21.5-5.778 7.088-10.569 22.632-15.5 29.5-1.357 1.889-2.786.056-3.5 2-2.38-.994-8.139-2.87-9-5.5-2.529-7.728 15.517-50.117 19-61 5.708-17.834 9.87-36.48 15-54.5.761.013 4.986-2.08 6.5-1 1.753 1.251-1.453 8.797 2.5 8"/><path fill="#024558" d="M609 832c.037.129-2.022.454-1 2.5.907 1.815 9.686 8.168 11.5 8.5 3.253.596 2.387-2.039 3-2 1.656.105 17.517.622 17.5 1.5-5.419 6.253-14.058 7.433-22 5.5-11.769-2.865-22.266-21.887-21-34 3.586-1.729 5.894-3.776 11-.5-2.064 7.632-.93 11.729 1 18.5"/><path fill="#0b0e20" d="m342 815 9 52c-.19.034 1.012.215-2 1l-10-54c3.287.05 1.982.979 3 1"/><path fill="#d2e5eb" d="M355 813c-7.638 9.785 4.946 17.178 11 24 1.499 1.69 3.981 4.985 5 6 1.937 7.314 13.812 16.79 21 18 .631.106 1.35-.046 2 0l-5 10c-9.417-2.185-28.884-5.647-38-4l-9-52c.7.014 7.756-2.137 13-2"/><path fill="#8ca9b5" d="M364 814c-1.887 8.166-1.496 15.49 2 23-6.054-6.822-18.638-14.215-11-24 3.587.094 5.568.418 9 1"/><path fill="#e2f0f4" d="M385 848c6.883 3.42 9.769 4.84 18 4 2.194 3.609-6.699 3.907-10 4-13.377.378-8.46-3.447-9.5-4-1.087-.578-2.047 1.675-3 1-3.572-2.529-6.392-6.904-9.5-10-1.019-1.015-3.501-4.31-5-6-3.496-7.51-3.887-14.834-2-23 1.992.338 3.004-2.49 5 .5-6.449 13.541 3.963 27.519 16 33.5"/><path fill="#011729" d="M428 815c-1.691 4.957-.835 14.161-4 21-3.578 7.731-12.179 15.1-21 16-8.231.84-11.117-.58-18-4 17.051 6.504 31.81-4.834 38-20.5.891-2.256.987-18.841 5-12.5"/><path fill="#000c20" d="M597 814c-1.266 12.113 9.231 31.135 21 34l-1 2c-1.099-.305-1.583-1.411-3-1-11.787-6.403-17.52-15.747-19-29-.217-1.939-1.464-3.398-1-5.5 1.635-2.822 2.863-.434 3-.5"/><path fill="#cee3ea" d="M659 814c.721 8.126-.492 15.256-2.5 23 5.775-6.654 18.447-12.468 11.5-23 4.787.025 5.782-1.847 12 0l-10 54c-12.56-2.298-22.875-.558-35 2-1.385-3.31 7.547-4.353 8-5.5.534-1.351-5.399-7.616-2-11-4.678-.698-2.102 1.82-5 3.5.582-5.411-9.298-2.324-12.5-3-3.173-.67-6.787-3.526-9.5-5 1.417-.411 1.901.695 3 1 20.228 5.603 44.626-13.755 37-35.5 1.996-2.988 3.004-.166 5-.5"/><path fill="#85a5b0" d="M668 814c6.947 10.532-5.725 16.346-11.5 23 2.008-7.744 3.221-14.874 2.5-23 4.532-.759 5.205-.02 9 0"/><path fill="#0a0f20" d="M683 817c2.234 11.482-7.233 40.324-11 52-2.186-.503-1.89-.98-2-1l10-54c.099.029.257-2.135 2-.5-.912 1.968.965 3.321 1 3.5"/><path fill="#021c35" d="M632.5 819c7.924 1.721 5.032 20.103-7 14-9.701-4.921-.842-15.703 7-14m-5 3c-5.631.01-3.841 10.226 2 7 2.263-1.25 1.747-7.006-2-7"/><path fill="#021f39" d="M391 824c-.736.183-2.906 2.035-3 2.5-1.592 7.904 11.969 4.254 5-1.5 5.282-4.576 10.361-1.187 9 5.5-1.762 8.658-18.909 7.778-16-5 .217-.954 8.106-7.569 5-1.5"/><path fill="#76a0b6" d="M627.5 822c3.747-.006 4.263 5.75 2 7-5.841 3.226-7.631-6.99-2-7"/><path fill="#77a2b6" d="M393 825c6.969 5.754-6.592 9.404-5 1.5.094-.465 2.264-2.317 3-2.5.277-.069 1.738.784 2 1"/><path fill="#396575" d="M417 853c-6.381 5.649-14.477 8.605-23 8-.65-.046-1.369.106-2 0l1-5c3.301-.093 12.194-.391 10-4 8.821-.9 17.422-8.269 21-16 6.969 1.544-5.177 15.386-7 17"/><path fill="#7597a5" d="m393 856-1 5c-7.188-1.21-19.063-10.686-21-18 3.108 3.096 5.928 7.471 9.5 10 .953.675 1.913-1.578 3-1 1.04.553-3.877 4.378 9.5 4"/><path fill="#7498a4" d="M625 861c4.432 12.052-6.536 9.495-13 16-2.121.958-4.903 2.779-7 4l-.5-29c6.396 5.017 11.911 9.267 20.5 9"/><path fill="#83a3ae" d="M417 881c-8.806-4.573-18.336-7.758-28-10l5-10c8.523.605 16.619-2.351 23-8 .801 8.153 4.706 20.885 0 28"/><path fill="#95b4bf" d="M635 870c-6.232 1.315-17.354 4.449-23 7 6.464-6.505 17.432-3.948 13-16 4.048-.126 7.595-2.027 11-4 2.898-1.68.322-4.198 5-3.5-3.399 3.384 2.534 9.649 2 11-.453 1.147-9.385 2.19-8 5.5"/><path fill="#062a4f" d="M389 871c9.664 2.242 19.194 5.427 28 10 20.618 10.706 32.587 33.102 41 54-.779.249-2.159-.23-3 0-1.073-5.045-4.272-8.867-7-13-10.242-30.854-45.143-49.619-76-52-35.261-2.721-72.106 26.14-91 54-1.665 2.455-9.611 10.653-5.5 13 8.88 1.087 17.658 2.71 26.5 4l-3 2c-4.238-.597-24.359-2.593-26.5-4-4.18-2.747 2.706-11.097 4.5-14 12.894-20.865 49.631-51.173 72-57 3.012-.785 1.81-.966 2-1 9.116-1.647 28.583 1.815 38 4"/><path fill="#082c51" d="M670 868c.11.02-.186.497 2 1 26.609 6.123 53.378 30.446 69 52l-1 1c-27.229-38.175-65.384-59.81-112-47-24.547 6.745-54.038 29.362-59 56-.389 2.087-.39 2.884 0 5-2.745-.646-5.249-.852-8-2 .714-1.944 2.143-.111 3.5-2 4.931-6.868 9.722-22.412 15.5-29.5 4.228-5.187 19.327-18.197 25-21.5 2.097-1.221 4.879-3.042 7-4 5.646-2.551 16.768-5.685 23-7 12.125-2.558 22.44-4.298 35-2"/><path fill="#69eafb" d="M372 870c-.22 4.188 6.124-.491 5 5-13.715-2.294-19.845-.962-33 4-19.048 7.185-38.014 22.998-48 40.5.284.678 12.961 4.411 14 4.5v4c-9.704-.567-19.364-2.865-29-4 18.894-27.86 55.739-56.721 91-54"/><path fill="#3cc6e3" d="M448 922c-9.363-14.188-15.69-24.465-31-33-10.874-6.062-27.695-11.942-40-14 1.124-5.491-5.22-.812-5-5 30.857 2.381 65.758 21.146 76 52"/><path fill="#50e4f8" d="M740 922c.158.221-.156.775 0 1-10.236 2.532-21.482 4.422-32 5 .053-1.885 4.119-3.018 6-4 .14-.073-.414-1.613.5-2 1.726-.731 10.87-1.171 11.5-2.5-9.602-17.964-36.828-40.793-57-44.5-14.337-2.635-29.162-.685-42.5 5l1.5-5c46.616-12.81 84.771 8.825 112 47"/><path fill="url(#f)" d="M377 875c12.305 2.058 29.126 7.938 40 14-11.925 27.235-31.425 36.774-60 39-.182-1.225 1.793-3.367-.5-4-1.626-.449-22.13 1.234-27 1-2.914-.14-13.621-4.797-15 0l33.5 3c-9.104.437-19.871.362-29 0-2.977-.118-6.03.174-9 0v-4c.756.064 2.897.24 3-.5-1.456-.807-7.989-3.591-8-5-.023-3.111 32.677-37.061 39-39.5 13.155-4.962 19.285-6.294 33-4" style="fill:url(#f)"/>/&gt;<path fill="url(#g)" d="M669 875c19.736 8.828 34.993 25.889 47 43.5l-11 6 9-.5c-1.881.982-5.947 2.115-6 4-39.407 2.165-86.238 3.754-102.5-40-17.302 9.651-26.951 26.557-36.5 43 4.962-26.638 34.453-49.255 59-56l-1.5 5c13.338-5.685 28.163-7.635 42.5-5" style="fill:url(#g)"/>/&gt;<path fill="#fbfefd" d="m714 924-9 .5 11-6c-12.007-17.611-27.264-34.672-47-43.5 20.172 3.707 47.398 26.536 57 44.5-.63 1.329-9.774 1.769-11.5 2.5-.914.387-.36 1.927-.5 2m-370-45c-6.323 2.439-39.023 36.389-39 39.5.011 1.409 6.544 4.193 8 5-.103.74-2.244.564-3 .5-1.039-.089-13.716-3.822-14-4.5 9.986-17.502 28.952-33.315 48-40.5"/><path fill="#004a82" d="M708 928c10.518-.578 21.764-2.468 32-5 1.298 1.877 9.45 10.887 7.5 13-40.78 7.791-82.536 9.736-124 7-15.787-1.042-39.305-3.426-54.5-7-.39-2.116-.389-2.913 0-5 9.549-16.443 19.198-33.349 36.5-43 16.262 43.754 63.093 42.165 102.5 40"/><path fill="url(#h)" d="M448 922c2.728 4.133 5.927 7.955 7 13-41.82 11.446-110.116 12.256-153 6-8.842-1.29-17.62-2.913-26.5-4-4.111-2.347 3.835-10.545 5.5-13 9.636 1.135 19.296 3.433 29 4 2.97.174 6.023-.118 9 0-1.983 2.88.672 1.944 2.5 2 8.555.263 17.449.312 26 0 1.829-.067 4.484.888 2.5-2 2.307-.128 4.702.179 7 0 28.575-2.226 48.075-11.765 60-39 15.31 8.535 21.637 18.812 31 33" style="fill:url(#h)"/>/&gt;<path fill="#a8ecf9" d="M357 928c-2.298.179-4.693-.128-7 0-.658.036-1.341-.032-2 0l-33.5-3c1.379-4.797 12.086-.14 15 0 4.87.234 25.374-1.449 27-1 2.293.633.318 2.775.5 4"/><path fill="#0476a4" d="M348 928c.659-.032 1.342.036 2 0 1.984 2.888-.671 1.933-2.5 2-8.551.312-17.445.263-26 0-1.828-.056-4.483.88-2.5-2 9.129.362 19.896.437 29 0"/></svg>