<svg xmlns="http://www.w3.org/2000/svg" width="1024" height="1024"><defs><linearGradient id="a" x1="406.302" x2="683.183" y1="250.703" y2="471.278" gradientUnits="userSpaceOnUse"><stop offset="0%" style="stop-color:#d0dae4"/><stop offset="100%" style="stop-color:#6c8894"/></linearGradient></defs><defs><linearGradient id="b" x1="454.05" x2="571.25" y1="240.992" y2="443.526" gradientUnits="userSpaceOnUse"><stop offset="14.53%" style="stop-color:#abd7e8"/><stop offset="83.761%" style="stop-color:#619fb4"/></linearGradient></defs><defs><linearGradient id="c" x1="547.061" x2="432.951" y1="276.021" y2="379.437" gradientUnits="userSpaceOnUse"><stop offset="0%" style="stop-color:#02b7dc"/><stop offset="60.39%" style="stop-color:#25f1f8"/><stop offset="100%" style="stop-color:#02b1da"/></linearGradient></defs><defs><linearGradient id="d" x1="462.306" x2="557.297" y1="346.306" y2="347.606" gradientUnits="userSpaceOnUse"><stop offset="0%" style="stop-color:#073e72"/><stop offset="100%" style="stop-color:#01213b"/></linearGradient></defs><defs><linearGradient id="e" x1="604.327" x2="669.971" y1="472.378" y2="524.789" gradientUnits="userSpaceOnUse"><stop offset="0%" style="stop-color:#67808b"/><stop offset="100%" style="stop-color:#526c76"/></linearGradient></defs><defs><linearGradient id="f" x1="411.044" x2="592.334" y1="463.123" y2="883.715" gradientUnits="userSpaceOnUse"><stop offset="0%" style="stop-color:#e3f9fc"/><stop offset="62.882%" style="stop-color:#acd3e3"/><stop offset="91.703%" style="stop-color:#80afc4"/></linearGradient></defs><path fill="#07181f" d="M727 329c.531 2.638 1.695 7.131 2 9 .51 3.12.582 6.732 1 10 2.203 17.207 2.862 34.635 3 52 .13 16.354-.67 33.09-1 49.5-.042 2.069-3.128 12.345-3 13 .234 1.192 13.427 18.93 14.5 19.5 2.723 1.445 4.956.064 6.5 0 .978-.04 2.045.136 3 0 10.388-1.481 24.32-8.047 35-10.5-5.049-5.565-6.408-11.825-9-18.5l1-2c1.763 5.191 4.374 11.117 8.5 15 1.794.104 8.183-11.785 9.5-14 4.766 1.277 8.024-7.152 10-11-1.946 11.408-10.975 20.923-18 29.5-.394.481.393 3.534 0 4-1.555 1.844-44.168 13.118-46.5 12.5-4.072-1.08-9.283-18.666-15-21-2.061 12.483-7.977 23.452-12.5 35-.164.419.086 1.369 0 2-.841.136-1.354.737-3 1 2.402-7.204-7.094-.355-10 0 11.373-19.588 16.479-40.884 20-63 16.485-103.542-14.231-210.333-111-262l1-1c9.637 4.87 18.437 11.006 28.5 15L796 116c3.764-.333-.01 2.718-.5 3-4.799 2.762-9.668 5.155-14.5 8-.463.273-1.73-.443-4 1-3.301 2.098-6.551 3.084-9 6.5.279 2.599 1.152 5.061 2 7.5 2.642 7.603 9.921 18.021 16 7.5l-8.5-8.5c3.316 1.292 9.709 9.542 13 6 1.701-1.831-8.628-9.978-9.5-12.5-1.706-4.938.654-3.502 1-4.5 2.078 3.194 8.112-4.081 11.5-6 1.061-.601 6.808-.703 7-1 1.651-2.563-2.216-6.085-2.5-8-9.774-65.846 78.706-68.145 83-15.5 3.238 39.699-45.168 58.742-72.5 31.5-39.442 38.972-80.126 78.388-113.5 122.5 15.393 22.937 26.524 48.311 32 75.5M827 67c-25.559 9.414-33.438 46.817-10 63 39.394 27.2 79.478-27.005 44.5-56-11.62-9.632-20.501-12.156-34.5-7m-72 82c1.29 3.094 1.497 2.778 3 5 1.792 2.649 8.03 11.524 11.5 11 .524-.079 7.445-6.973 7.5-7.5.095-.91-5.073-6.803-6-7.5-1.538-3.523-2.574-7.494-4-11-.303-.745.202-2.471 0-3.5l-2.5-.5c-10.353 5.955-14.575 1.827-9.5 14m-20 12c.906 2.676 3.395 5.634 5 8 3.646 5.373 7.347 10.251 13.5 13 1.891-2.058 13.372-13.015 13.5-14.5.062-.722-8.599-8.947-10-10.5-.604-.67-1.12-2.105-3-4-.543-2.087-3.429-9.713-5.5-10-.9-.125-15.074 7.847-15.5 9.5-.487 1.892 1.312 6.467 2 8.5m-24 16c5.132 10.587 13.082 18.867 22.5 26 2.21-3.301 17.459-15.932 17.5-18.5.018-1.115-12.608-12.748-15-16.5-1.819-2.853-3.604-6.878-5-10-.552-1.234 1.309-5.072-1.5-5l-23 12c-1.528 2.859 3.29 9.504 4.5 12m-19 11c1.527 3.182 2.959 5.192 5 8 6.224 8.562 13.431 14.391 22 20.5-8.143-1.76-18.038-10.981-23-17.5-1.534-2.015-4.602-6.734-6-9-1.282-2.078-3.724-12.369-5.5-13-15.135 9.41-26.368 3.448-16.5 23 2.524 5 3.962 5.997 7 10 2.662 3.507 24.467 26.997 26.5 27 .355.001 4.747-4.356 4.5-5.5-.344-1.595-25.106-14.094-24-21.5.312-.097.725.113 1 0 2.139 4.268 22.587 20.449 25.5 20l22.5-24.5c-7.215-5.761-11.831-10.846-17-18.5-2.641-3.911-5.653-8.895-8-13-.834-1.459.011-7.101-3.5-7-13.43 9.749-18.752 3.808-10.5 21m-48 8c4.246 2.527 6.687 6.644 10 10 13.923 14.105 26.82 28.845 38.5 45 .98.153 7.795-11.538 7.5-12.5-.385-1.255-16.39-12.863-20-17-3.446-3.949-6.959-9.18-10-13.5-1.7-2.415-3.277-5.414-5-8-1.298-1.949-4.538-10.674-5.5-11-.894-.303-15.695 5.439-17.5 6.5z"/><path fill="#20b5da" d="m817 130 1-1c15.567 11.161 43.905 2.4 51-15.5 8.623-21.756-6.496-44.663-29-46 .715 1.65 2.521 1.222 3 1.5-8.029 3.126.876 8.594-1 17.5-2.268 10.766-23.022 15.035-29 4.5 11.876 6.074 25.67-14.33 12-15l2-9c13.999-5.156 22.88-2.632 34.5 7 34.978 28.995-5.106 83.2-44.5 56"/><path fill="#3adbf8" d="m827 67-2 9c-7.159-.351-10.337 10.527-12 15-4.9 13.182-7.731 25.125 4 36 .135.125.909 1.935 1 2l-1 1c-23.438-16.183-15.559-53.586 10-63"/><path fill="#0c668e" d="M818 129c-.091-.065-.865-1.875-1-2 36.132 5.314 64.973-35.387 26-58-.479-.278-2.285.15-3-1.5 22.504 1.337 37.623 24.244 29 46-7.095 17.9-35.433 26.661-51 15.5"/><path fill="#134f5c" d="M249 120c-3.88-2.242-.843 1.708-1 2-1.174 2.193-6.713 6.118-7 6.5-.872 1.16-.856 4.32-1 4.5-1.637 2.04-5.825 4.108-7 7-24.19 14.345-57.65 12.737-65-19l2.5 2c3.411-6.621.704-12.827 3.5-22-10.68 55.868 73.747 55.939 70 2-1.07-15.407-19.322-30.362-34-32-3.854-.43-11.098 2.403-15 3-.252.039-4.489-.546-5-1 34.53-14.259 64.965 10.621 59 47"/><path fill="#1e96c6" d="M817 127c-11.731-10.875-8.9-22.818-4-36 5.978 10.535 26.732 6.266 29-4.5 1.876-8.906-7.029-14.374 1-17.5 38.973 22.613 10.132 63.314-26 58"/><path fill="#2ebbe5" d="M210 71c3.044 8.007 14.912 9.661 19 18 7.214 14.716-3.857 38.607-19.5 43-7.353 2.065-17.34-1.82-20.5 3-3.568-2.161-9.316-9.436-10-13.5-1.253-7.446 1.812-21.969 6-28.5-.485 2.482-.052 4.649 1 7 7.594 16.975 46.813-5.437 22.5-20-.989-.592-12.78-5.014-13.5-5v-1c3.902-.597 11.146-3.43 15-3"/><path fill="#25c9e7" d="m244 103-3 3c-.062-4.661-6.531-25.636-12-17-4.088-8.339-15.956-9.993-19-18 14.678 1.638 32.93 16.593 34 32"/><path fill="#0e7fa7" d="M190 73c.511.454 4.748 1.039 5 1v1c-7.352.146-19.008 19.463-21 26-2.796 9.173-.089 15.379-3.5 22l-2.5-2c-4.488-19.38 3.05-40.175 22-48"/><path fill="#55f2fc" d="M186 100c8.673 4.028 21.86-3.643 19-13.5-2.668-9.196-18.193-2.74-20 6.5-4.188 6.531-7.253 21.054-6 28.5.684 4.064 6.432 11.339 10 13.5 20.805 12.598 52.335-3.896 52-29l3-3c3.747 53.939-80.68 53.868-70-2 1.992-6.537 13.648-25.854 21-26 .72-.014 12.511 4.408 13.5 5 24.313 14.563-14.906 36.975-22.5 20"/><path fill="#c9fdff" d="M825 76c13.67.67-.124 21.074-12 15 1.663-4.473 4.841-15.351 12-15"/><path fill="#eefefe" d="M186 100c-1.052-2.351-1.485-4.518-1-7 1.807-9.24 17.332-15.696 20-6.5 2.86 9.857-10.327 17.528-19 13.5"/><path fill="#1290bb" d="M241 106c.335 25.104-31.195 41.598-52 29 3.16-4.82 13.147-.935 20.5-3 15.643-4.393 26.714-28.284 19.5-43 5.469-8.636 11.938 12.339 12 17"/><path fill="#2599d2" d="M798 115c.284 1.915 4.151 5.437 2.5 8-.192.297-5.939.399-7 1-3.388 1.919-9.422 9.194-11.5 6 .509-1.468-.787-1.902-1-3 4.832-2.845 9.701-5.238 14.5-8 .49-.282 4.264-3.333.5-3z"/><path fill="#031a21" d="M249 120c21.051 8.501 117.278 77.944 131 76 .752-.107 1.106.247 1 1-3.032 2.335-6.101 4.463-9 7l-1-1c.607-1.112 1.204-4.063 2-5.5l-11.5-5.5-8.5 18c-7.517 6.943-11.996 14.977-22 23-4.569 3.664-10.092 6.309-15 9.5l11 16.5c-.162.285-.402 1.905-1 3h-1c-28.969-41.497-52.465-88.219-86.5-126-1.446 2.42-3.591 2.868-5.5 4 1.175-2.892 5.363-4.96 7-7l6.5 6c.902-.072 10.128-16.248 6.5-5-.099.307-2.951 3.935-3 4.5-.653 7.602 6.433 11.516 10.5 17.5 3.436-2.81 5.418-6.163 7.5-10 .87-1.604 1.384-1.623 2-4 .051-.195 1.591-2.853 2-3.5-4.009-5.269-10.62-7.086-16-10.5-2.385-1.513-5.418-4.489-8-6 .157-.292-2.88-4.242 1-2m24 22c-4.782 6.51-14.025 20.005-4.5 25 4.751-5.505 10.052-10.923 12.5-18 2.757-7.971.461-5.007-6.5-10-1.602.625-1.315 2.748-1.5 3m10 9c-1.728 2.412-12.877 17.376-13 18.5-.106.972 7.105 9.633 8.5 9.5 2.426-.231 12.328-15.968 13.5-19 .513-1.329 3.101-6.979 3-7.5-.317-1.631-7.299-4.583-8.5-6.5l-2.5.5c.206 1.714.004 3.099-1 4.5m13 6c-2.135 2.69-1.481 4.097-2 5-1.3 2.261-2.612 4.842-4 7-7.234 11.248-16.539 12.195-3 25.5 4.74 4.658 11.442-4.922 15-9.5.699-.899 1.361-2.04 2-3 2.585-3.882 4.435-7.591 6-12 1.604-4.518 4.743-4.809.5-9-.561-.554-12.266-7.079-13-7-1.406.151-1.396 2.869-1.5 3m14 20c-2.42 3.944-5.301 8.221-8 12-2.092 2.929-10.86 9.753-11 10.5-.521 2.788 8.548 13.214 9 17l2.5.5c4.555-2.903 8.38-6.593 12.5-10 6.845-5.661 9.881-7.581 14-16 9.446-19.304 1.991-16.095-13.5-26-1.435.503-4.363 10.147-5.5 12m26 9c-1.187 2.057-2.141 4.581-3 6-2.344 3.872-6.405 7.262-9 11-4.674 2.06-14.082 14.484-21 16.5l12.5 20.5c11.006-7.637 20.782-13.607 29.5-24 2.44-2.909 4.056-5.784 6-9 1.743-2.883 2.451-3.24 4-7 1.035-2.513 2.547-5.169 4-7.5L338.5 180c-2.477-.027-2.027 5.181-2.5 6"/><path fill="#1f6987" d="m256 128 14 14c-.616 2.377-1.13 2.396-2 4-4.576-3.328-9.285-11.933-15-12 3.628-11.248-5.598 4.928-6.5 5l-6.5-6c.144-.18.128-3.34 1-4.5.287-.382 5.826-4.307 7-6.5 2.582 1.511 5.615 4.487 8 6"/><path fill="#084062" d="M781 127c.213 1.098 1.509 1.532 1 3-.346.998-2.706-.438-1 4.5.872 2.522 11.201 10.669 9.5 12.5-3.291 3.542-9.684-4.708-13-6l8.5 8.5c-6.079 10.521-13.358.103-16-7.5 3.882-.231 3.788-7.9 5.5-9 .399-.257 6.533 5.326 1.5-5 2.27-1.443 3.537-.727 4-1"/><path fill="#3fc0ea" d="m270 142-14-14c5.38 3.414 11.991 5.231 16 10.5-.409.647-1.949 3.305-2 3.5"/><path fill="#2292ca" d="M770 142c-.848-2.439-1.721-4.901-2-7.5 2.449-3.416 5.699-4.402 9-6.5 5.033 10.326-1.101 4.743-1.5 5-1.712 1.1-1.618 8.769-5.5 9"/><path fill="#255f7b" d="M268 146c-2.082 3.837-4.064 7.19-7.5 10-4.067-5.984-11.153-9.898-10.5-17.5.049-.565 2.901-4.193 3-4.5 5.715.067 10.424 8.672 15 12"/><path fill="#2ca2da" d="M767 139c-6.819-1.028-7.8 7.028-12 10-5.075-12.173-.853-8.045 9.5-14l2.5.5c.202 1.029-.303 2.755 0 3.5"/><path fill="#3bb4e7" d="m281 149-8-7c.185-.252-.102-2.375 1.5-3 6.961 4.993 9.257 2.029 6.5 10"/><path fill="#176b99" d="M767 139c1.426 3.506 2.462 7.477 4 11-6.617-4.974-6.491-.142-13 4-1.503-2.222-1.71-1.906-3-5 4.2-2.972 5.181-11.028 12-10"/><path fill="#1d5b78" d="M281 149c-2.448 7.077-7.749 12.495-12.5 18-9.525-4.995-.282-18.49 4.5-25z"/><path fill="#289bd5" d="M754 153c-2.266-2.284-5.003-3.928-6.5-7L735 161c-.688-2.033-2.487-6.608-2-8.5.426-1.653 14.6-9.625 15.5-9.5 2.071.287 4.957 7.913 5.5 10"/><path fill="#2aa8d9" d="m292 160-9-9c1.004-1.401 1.206-2.786 1-4.5l2.5-.5c1.201 1.917 8.183 4.869 8.5 6.5.101.521-2.487 6.171-3 7.5"/><path fill="#196995" d="M754 153c1.88 1.895 2.396 3.33 3 4-6.606 1.288-11.769 7.981-17 12-1.605-2.366-4.094-5.324-5-8l12.5-15c1.497 3.072 4.234 4.716 6.5 7"/><path fill="#083a5b" d="M771 150c.927.697 6.095 6.59 6 7.5-.055.527-6.976 7.421-7.5 7.5-3.47.524-9.708-8.351-11.5-11 6.509-4.142 6.383-8.974 13-4"/><path fill="#386a73" d="m613 178-1 1c-74.437-39.743-164.005-33.594-231 18 .106-.753-.248-1.107-1-1 54.409-48.52 138.34-56.863 205.5-32 9.734 3.603 18.362 9.382 27.5 14"/><path fill="#1d5771" d="M292 160c-1.172 3.032-11.074 18.769-13.5 19-1.395.133-8.606-8.528-8.5-9.5.123-1.124 11.272-16.088 13-18.5z"/><path fill="url(#a)" d="M612 179c96.769 51.667 127.485 158.458 111 262-15.237 10.915-34.315 23.042-53.5 25-10.232 1.044-32.545 1.416-33.5-12 23.325-32.857 26.825-75.386 21-114-28.194-186.881-264.034-178.832-290-18.5-.267 1.65-2.635 16.598 1 15.5-3.013 48.372 22.582 77.461 53 110 24.955 26.695 45.256 52.456 85 57 .329.038.67-.033 1 0l-2 15c-53.401-.314-101.223-4.73-154-11 1.534-2.332 1.227-2.157-.5-4-7.122-7.599-17.335-14.503-25-23-.973-1.079-1.441 1.068-1.5 1-2.351-2.681-13.573-24.164-15-28-.653-1.756-.491-5.458-1-7 1.693-12.108-4.188-25.095-5-36.5-1.129-15.861 2.872-43.368 0-57-.062-.295-2.975-4.601-4-4.5 3.037-30.383 12.46-60.381 27-87 .598-1.095.838-2.715 1-3 3.519-6.167 10.61-16.15 15-22 7.31-9.742 20.909-25.043 30-33 2.899-2.537 5.968-4.665 9-7 66.995-51.594 156.563-57.743 231-18m-117.5-16c-84.681 5.033-155.433 62.003-178.5 143.5-6.391 22.578-10.898 52.156-3.5 74.5.252-36.065 5.08-66.684 20.5-99.5 55.922-119.009 207.734-142.545 309.5-66.5 16.767 12.529 29.443 29.27 44.5 43.5-45.455-60.701-115.011-100.105-192.5-95.5m14 11c-7.044.383-53.563 7.316-56 11-.675.628-.76 2.94-.5 3.5 2.521 5.424 80.081-12.546 90.5-10.5 1.618-.883 1.652-2.465 0-3-4.277-1.386-28.312-1.31-34-1m-70 23c-.314.028-4.86 2.329-3 4l7.5-1.5c-1.51-1.526-1.988-2.72-4.5-2.5m-62 36c-9.319 1.395-5.443 35.304-.5 24.5zM343 313c.983-.684 8.304-2.392 10.5-4 9.493-6.953 15.54-18.565 14.5-30-3.238-35.613-28.068.997-34 14.5-9.386 21.364-14.261 47.14-18 70 1.38 2.549 18.262-44.419 27-50.5" style="fill:url(#a)"/>/&gt;<path fill="#259cd4" d="m731 158-17 15c-1.621-1.908-2.328-5.269-5-5.5l2 9.5c-1.21-2.496-6.028-9.141-4.5-12l23-12c2.809-.072.948 3.766 1.5 5"/><path fill="#36b1e0" d="M310 170c.108-8.035-9.715-8.113-14-13 .104-.131.094-2.849 1.5-3 .734-.079 12.439 6.446 13 7 4.243 4.191 1.104 4.482-.5 9"/><path fill="#2aa1d5" d="M310 170c-1.565 4.409-3.415 8.118-6 12l2-8.5-12-11.5c.519-.903-.135-2.31 2-5 4.285 4.887 14.108 4.965 14 13"/><path fill="#093959" d="M757 157c1.401 1.553 10.062 9.778 10 10.5-.128 1.485-11.609 12.442-13.5 14.5-6.153-2.749-9.854-7.627-13.5-13 5.231-4.019 10.394-10.712 17-12"/><path fill="#1d76a5" d="M736 168c-1.115 2.591-15.491 12.148-16.5 12-.795-.117-4.435-5.747-5.5-7l17-15c1.396 3.122 3.181 7.147 5 10"/><path fill="#2482af" d="M304 182c-.639.96-1.301 2.101-2 3-1.062-6.222-8.923-9.759-12-16 1.388-2.158 2.7-4.739 4-7l12 11.5z"/><path fill="#fdfdfd" d="M494.5 163c77.489-4.605 147.045 34.799 192.5 95.5-15.057-14.23-27.733-30.971-44.5-43.5-101.766-76.045-253.578-52.509-309.5 66.5-15.42 32.816-20.248 63.435-20.5 99.5-7.398-22.344-2.891-51.922 3.5-74.5 23.067-81.497 93.819-138.467 178.5-143.5"/><path fill="#2b9dcd" d="m329 191-19-14c1.137-1.853 4.065-11.497 5.5-12 15.491 9.905 22.946 6.696 13.5 26m-14.5-20c.24 4.4 7.472 9.492 11.5 9.5z"/><path fill="#2693ca" d="m706 174-14 14c-8.252-17.192-2.93-11.251 10.5-21 3.511-.101 2.666 5.541 3.5 7"/><path fill="#0a4061" d="M714 173c1.065 1.253 4.705 6.883 5.5 7 1.009.148 15.385-9.409 16.5-12 2.392 3.752 15.018 15.385 15 16.5-.041 2.568-15.29 15.199-17.5 18.5-9.418-7.133-17.368-15.413-22.5-26l-2-9.5c2.672.231 3.379 3.592 5 5.5"/><path fill="#1c546e" d="M302 185c-3.558 4.578-10.26 14.158-15 9.5-13.539-13.305-4.234-14.252 3-25.5 3.077 6.241 10.938 9.778 12 16"/><path fill="#145b8d" d="m314.5 171 11.5 9.5c-4.028-.008-11.26-5.1-11.5-9.5"/><path fill="#fcfdfd" d="M508.5 174c5.688-.31 29.723-.386 34 1 1.652.535 1.618 2.117 0 3-10.419-2.046-87.979 15.924-90.5 10.5-.26-.56-.175-2.872.5-3.5 2.437-3.684 48.956-10.617 56-11"/><path fill="#1b72a3" d="M714 187c-6.905-3.012-11.297 6.262-17 9-2.041-2.808-3.473-4.818-5-8l14-14c2.347 4.105 5.359 9.089 8 13"/><path fill="#1f6585" d="M329 191c-4.119 8.419-7.155 10.339-14 16 2.95-7.76-11.366-11.161-13-18 2.699-3.779 5.58-8.056 8-12z"/><path fill="#2386b9" d="m690 190-22 10c-9.868-19.552 1.365-13.59 16.5-23 1.776.631 4.218 10.922 5.5 13m-6.5-9c-16.363 5.803-25.034 19.454-2 4 .316-.212 5.717-3.603 2-4"/><path fill="#34afdf" d="M355 200c.73-8.855-12.169-10.102-19-14 .473-.819.023-6.027 2.5-6l20.5 12.5c-1.453 2.331-2.965 4.987-4 7.5"/><path fill="#146da2" d="M683.5 181c3.717.397-1.684 3.788-2 4-23.034 15.454-14.363 1.803 2-4"/><path fill="#30a1d2" d="M355 200c-1.549 3.76-2.257 4.117-4 7l-18-15c.859-1.419 1.813-3.943 3-6 6.831 3.898 19.73 5.145 19 14"/><path fill="#0a3c5c" d="M714 187c5.169 7.654 9.785 12.739 17 18.5L708.5 230c-2.913.449-23.361-15.732-25.5-20 1.729-.707 10.142-9.731 13-11 4.962 6.519 14.857 15.74 23 17.5-8.569-6.109-15.776-11.938-22-20.5 5.703-2.738 10.095-12.012 17-9"/><path fill="#134862" d="M315 207c-4.12 3.407-7.945 7.097-12.5 10l-2.5-.5c-.452-3.786-9.521-14.212-9-17 .14-.747 8.908-7.571 11-10.5 1.634 6.839 15.95 10.24 13 18"/><path fill="#279cd6" d="M665 200c-6.928-1.195-13.859-6.641-21-4l-2-.5c1.805-1.061 16.606-6.803 17.5-6.5.962.326 4.202 9.051 5.5 11"/><path fill="#16628d" d="M690 190c1.398 2.266 4.466 6.985 6 9-2.858 1.269-11.271 10.293-13 11-.275.113-.688-.097-1 0-.334.103-5.588-1.836-7 0-3.038-4.003-4.476-5-7-10z"/><path fill="#2a85af" d="M351 207c-1.944 3.216-3.56 6.091-6 9-6.537-2.925-13.815-16.167-21-13 2.595-3.738 6.656-7.128 9-11z"/><path fill="#3299c7" d="M371 203c-4.984 9.14-9.701-.665-18 7l8.5-18 11.5 5.5c-.796 1.437-1.393 4.388-2 5.5"/><path fill="#195d85" d="M665 200c1.723 2.586 3.3 5.585 5 8l-16-2c-3.313-3.356-5.754-7.473-10-10 7.141-2.641 14.072 2.805 21 4"/><path fill="#fcfcfd" d="M438.5 197c2.512-.22 2.99.974 4.5 2.5l-7.5 1.5c-1.86-1.671 2.686-3.972 3-4"/><path fill="#275c68" d="M657 340h-5c-.272-17.574-4.375-33.342-12-49-30.901-71.538-109.019-104.049-182.5-76-46.024 17.568-86.449 73.009-89.5 122-3.635 1.098-1.267-13.85-1-15.5 25.966-160.332 261.806-168.381 290 18.5"/><path fill="#164d67" d="M345 216c-8.718 10.393-18.494 16.363-29.5 24L303 219.5c6.918-2.016 16.326-14.44 21-16.5 7.185-3.167 14.463 10.075 21 13"/><path fill="#2f6078" d="M372 204c-9.091 7.957-22.69 23.258-30 33-7.845 5.342-5.539 1.15-11-4 10.004-8.023 14.483-16.057 22-23 8.299-7.665 13.016 2.14 18-7z"/><path fill="#fbfcfd" d="M640 291c-3.561-7.312-9.916-16.991-15-23.5C496.535 103.033 266.111 314.657 427 450c-1.301-.858-4.42-2.518-6-3-30.418-32.539-56.013-61.628-53-110 3.051-48.991 43.476-104.432 89.5-122 73.481-28.049 151.599 4.462 182.5 76"/><path fill="#09354f" d="M670 208c3.041 4.32 6.554 9.551 10 13.5 3.61 4.137 19.615 15.745 20 17 .295.962-6.52 12.653-7.5 12.5-11.68-16.155-24.577-30.895-38.5-45z"/><path fill="url(#b)" d="M640 291c7.625 15.658 11.728 31.426 12 49 .34 21.993-4.691 42.7-15 62-27.792 52.031-85.26 77.597-143 72-20.022-1.941-43.451-9.069-61-19-1.194-.675-4.714-4.152-6-5-160.889-135.343 69.535-346.967 198-182.5 5.084 6.509 11.439 16.188 15 23.5m-243 75c2.801 39.455 39.825 75.536 77.5 85 41.102 10.325 88.589-.194 118.5-31 15.005-12.559 25.373-27.872 30-47 8.322-34.405 3.681-59.801-15-89-4.653-7.273-6.764-11.481-13-18-4.568-4.776-9.718-9.061-15-13-85.999-64.14-201.698 9.301-183 113" style="fill:url(#b)"/>/&gt;<path fill="#083c5e" d="M682 210c-1.106 7.406 23.656 19.905 24 21.5.247 1.144-4.145 5.501-4.5 5.5-2.033-.003-23.838-23.493-26.5-27 1.412-1.836 6.666.103 7 0"/><path fill="#236b7a" d="M580 253c-.319 3.235 1.634 4.143-2.5 3-15.57-4.303-28.203-16.13-49.5-19-25.207-3.397-40.382.31-62 12-10.192 5.511-20.495 12.197-28 21-52.784 45.014-46.091 141.896 21.5 170l35.5 12c-44.751-5.144-89.8-40.519-98-86-18.698-103.699 97.001-177.14 183-113"/><path fill="#0d465d" d="M342 237c-4.39 5.85-11.481 15.833-15 22l-11-16.5c4.908-3.191 10.431-5.836 15-9.5 5.461 5.15 3.155 9.342 11 4"/><path fill="#fcfcfd" d="m376.5 233-.5 24.5c-4.943 10.804-8.819-23.105.5-24.5"/><path fill="#0994b6" d="m528 237-2 10c-8.764-1.56-20.682-3.211-29.5-3-10.289.246-20.471 3.495-30.5 5 21.618-11.69 36.793-15.397 62-12"/><path fill="#0781a6" d="M580 253c5.282 3.939 10.432 8.224 15 13-9.5-5.65-21.112-7.246-32-6-10.698-6.613-24.591-10.791-37-13l2-10c21.297 2.87 33.93 14.697 49.5 19 4.134 1.143 2.181.235 2.5-3"/><path fill="url(#c)" d="M526 247c12.409 2.209 26.302 6.387 37 13-10.027 1.148-23.597 8.19-31 15-15.87-4.459-34.598-2.391-50 4-8.273 3.433-17.916 9.308-23 17-5.798 4.742-10.848 12.123-14 19-16.325 35.624-6.032 58.728 18 85 .87.951 2.167 2.529 2 4-4.442 1.499-14.253-.2-16 9-4.412 5.609-12.952-6.488-16-10.5-7.889-10.383-11.916-23.159-18-34.5-7.003-26.956 3.472-75.095 23-98 7.505-8.803 17.808-15.489 28-21 10.029-1.505 20.211-4.754 30.5-5 8.818-.211 20.736 1.44 29.5 3" style="fill:url(#c)"/>/&gt;<path fill="#e7f3f7" d="M595 266c6.236 6.519 8.347 10.727 13 18 .154 8.39.259 16.839-2 25-2.552 9.222-15.225 25.433-23 31-2.501 1.79-10.303 6.246-13 7-36.01 10.059-65.234-24.463-49-58 1.509-3.117 8.314-11.529 11-14 7.403-6.81 20.973-13.852 31-15 10.888-1.246 22.5.35 32 6"/><path fill="#1f94ae" d="M299 349c-.493 4.931.29 10.08-1 15-.658-3.493-1.701-5.523-5-7 .128-3.307.924-6.195 1-9 .051-1.881 1.64-3.462 1-5.5-.79-2.518-16.234-8.732-17.5-8.5-2.755.506-2.719 7.331-5.5 7.5 1.37-4.91 2.937-9.483 4-14.5.397-1.873 1.017-5.122 1-7 1.979-.648 2.981-2.324 5 .5-3.866 10.078 8.14 9.525 16 10 4.289-23.826 10.547-50.423 27-68.5h1c-14.54 26.619-23.963 56.617-27 87"/><path fill="#fdfdfe" d="m368 279-25 34c-8.738 6.081-25.62 53.049-27 50.5 3.739-22.86 8.614-48.636 18-70 5.932-13.503 30.762-50.113 34-14.5"/><path fill="#25bddc" d="M415 368c5.514 21.227 18.243 42.924 37 55 1.153.742 1.598.762 2 1 19.563 16.321 50.33 20.298 75 17 38.153-1.401 76.275-33.481 83-72 4.309.011 7.971 1.076 11 4-4.627 19.128-14.995 34.441-30 47-26.379 22.079-63.455 35.971-98 32l-35.5-12c-67.591-28.104-74.284-124.986-21.5-170-19.528 22.905-30.003 71.044-23 98"/><path fill="#005387" d="M532 275c-2.686 2.471-9.491 10.883-11 14-10.611-2.703-25.217.361-35 5l-4-15c15.402-6.391 34.13-8.459 50-4"/><path fill="#e7ecf1" d="m343 313 25-34c1.04 11.435-5.007 23.047-14.5 30-2.196 1.608-9.517 3.316-10.5 4"/><path fill="#0177b2" d="M486 294c-1.336.634-7.499 4.865-9 6-2.037-5.721-10.853-4.103-10.5-10-2.155 2.429-5.026 3.976-7.5 6 5.084-7.692 14.727-13.567 23-17z"/><path fill="#139dc4" d="M623 373c-3.029-2.924-6.691-3.989-11-4 3.223-18.459 1.9-28.135-2-46-.987-4.521-1.818-9.96-4-14 2.259-8.161 2.154-16.61 2-25 18.681 29.199 23.322 54.595 15 89"/><path fill="url(#d)" d="M521 289c-16.234 33.537 12.99 68.059 49 58-.295 34.888-28.279 53.425-60 58 1.497-17.713-18.038-26.868-32.5-19-6.742 3.668-11.442 17.643-12.5 18 .167-1.471-1.13-3.049-2-4 13.74-13.583 6.906-10.211 1-20.5-7.571-13.189-11.073-22.8-10-38.5.245-3.578 1.127-6.58 2-10 2.967-11.626 11.489-23.809 21-31 1.501-1.135 7.664-5.366 9-6 9.783-4.639 24.389-7.703 35-5" style="fill:url(#d)"/>/&gt;<path fill="#0795d2" d="M477 300c-9.511 7.191-18.033 19.374-21 31-7.343 7.38-7.591-6.574-11-10 .257-.766 1.663-5.706 0-6 3.152-6.877 8.202-14.258 14-19 2.474-2.024 5.345-3.571 7.5-6-.353 5.897 8.463 4.279 10.5 10"/><path fill="#006a94" d="M610 323c-.008 12.837 2.856 24.216 2 37.5-.026.396-.743 5.153-1 7-.241 1.728-2.96 2.792-3 3-.148.77 2.591-1.327 1 4.5-26.278 59.574-98.822 82.268-155 49-.402-.238-.847-.258-2-1v-1c6.602 1.087 10.755-6.709 14.5-11 7.549 15.832 26.854 20.915 38.5 6 43.14 2.983 87.635-30.05 78-77 7.775-5.567 20.448-21.778 23-31 2.182 4.04 3.013 9.479 4 14"/><path fill="#1a5766" d="M808 441c-1.976 3.848-5.234 12.277-10 11 21.246-35.728 12.759-79.303-10.5-112-2.382.5-8.757 32.087-9.5 37-3.068 20.29-4.149 38.504-1 59 .682 4.439 1.602 10.884 3 15l-1 2c-1.579-4.066-4.732-11.266-6-17v-48c-.455-3.122.632-5.987 1-9 1.743-14.264 6.12-29.097 11-42.5l-26.5-9.5c-3.428 2.54.181 3.185.5 5 .65 3.702 1.298 7.317 2 11 3.352 17.58 6.128 33.185 8 51 1.477 14.061.168 23.845 3 39-7.563-3.704-2.219 4.675-9 6 2.432-22.682 2.946-94.292-9-112.5-.997-1.519-3.32-2.949-4.5-4.5-2.533 1.853 2.908 12.552 3.5 15l-3 2c-.436-1.446-.216-5.068-2-6l-1.5-14-.5 13c-2.941.007-13.041 5.785-17 6-.305-1.869-1.469-6.362-2-9 13.375-1.188 13.061-1.439 12-14.5l3.5-1.5c8.065 6.154 17.815 10.858 27 15 11.592 5.227 13.786.013 23.5 11.5 21.364 25.264 30.319 71.672 15 101.5"/><path fill="#00568b" d="M445 321c-3.02 8.996-4.124 21.104 9 20-1.073 15.7 2.429 25.311 10 38.5 5.906 10.289 12.74 6.917-1 20.5-24.032-26.272-34.325-49.376-18-85 1.663.294.257 5.234 0 6"/><path fill="#61e3f4" d="M748 333c-.89 2.436-.606-1.003-2-1l.5-13z"/><path fill="#25a2b9" d="M277 320c.017 1.878-.603 5.127-1 7l-24.5 8c-4.135 5.777 8.37-.646 10.5-1 5.742 4.196-.191 8.591-1 13-5.804 4.346-14.252 1.016-15.5 9-2.2-7.266-4.497-15.026 3.5-18.5l-10.5.5c2.579 5.438 2.214 10.235 3.5 15.5.102.419 3.931 5.646 4 6 .42 2.162-2.022 1.377-2 1.5l-2 2c-.852-3.099-5.851-19.09-8-20-3.724-.06-6.052 6.924-4-1 .896-1.037 2.849-6.105 4.5-7 4.207-2.28 23.051-5.427 30-8 4.468-1.654 8.608-5.725 12.5-7"/><path fill="#0276b2" d="M456 331c-.873 3.42-1.755 6.422-2 10-13.124 1.104-12.02-11.004-9-20 3.409 3.426 3.657 17.38 11 10"/><path fill="#30cbeb" d="M763 439c-1.559 14.543-5.984 29.015-10 43-.955.136-2.022-.04-3 0 11.688-37.067 10.953-80.377 7-119-.953-9.311-1.633-16.223-4-26-.592-2.448-6.033-13.147-3.5-15 1.18 1.551 3.503 2.981 4.5 4.5 11.946 18.208 11.432 89.818 9 112.5"/><path fill="#084b6a" d="M612 369c-6.725 38.519-44.847 70.599-83 72 35.265-4.715 70.505-31.228 80-66 1.591-5.827-1.148-3.73-1-4.5.04-.208 2.759-1.272 3-3 .257-1.847.974-6.604 1-7 .856-13.284-2.008-24.663-2-37.5 3.9 17.865 5.223 27.541 2 46"/><path fill="#49dcf3" d="M276 327c-1.063 5.017-2.63 9.59-4 14.5 2.781-.169 2.745-6.994 5.5-7.5 1.266-.232 16.71 5.982 17.5 8.5.64 2.038-.949 3.619-1 5.5-11.017 1.548-18.439 7.647-26 15 .864-6.337 3.093-12.595 3.5-19-3.303 5.105-4.679 13.039-5.5 19-3.502 25.416-5.908 87.569 3 110.5 1.056 2.717 3.382 5.133 5 7.5-8.38.127-13.778-29.051-15-37.5-2.301-15.912-1.631-30.558-1-46.5.835-21.118 1.898-42.475 9-62.5-.522-1.757-3.731-.711-5-.5-2.13.354-14.635 6.777-10.5 1z"/><path fill="#a3e7f4" d="M774 379c-3.916-7.791 1.19-21.3 3-30 .178-.857 2.942-4.235 3-5.5.404-8.827-14.305-9.757-21-11.5-.319-1.815-3.928-2.46-.5-5l26.5 9.5c-4.88 13.403-9.257 28.236-11 42.5"/><path fill="#41b1d1" d="M748 333c1.784.932 1.564 4.554 2 6 .99 3.288 4.299 15.392 2.5 18l-22.5-9c-.418-3.268-.49-6.88-1-10 3.959-.215 14.059-5.993 17-6 1.394-.003 1.11 3.436 2 1"/><path fill="#248698" d="m777 349-16-6a764 764 0 0 1-2-11c6.695 1.743 21.404 2.673 21 11.5-.058 1.265-2.822 4.643-3 5.5"/><path fill="#1f7281" d="m258 397-4 23.5c3.535 22.864 4.522 38.828 12 58l-2.5 1.5c-9.181-4.862-18.155-3.348-27.5-8 7.345-13.003 11.626-30.222 13-45 .496-5.335 1.041-14.712 1-20 7.882-19.186 7.314-39.897 11-60 .809-4.409 6.742-8.804 1-13 1.269-.211 4.478-1.257 5 .5-7.102 20.025-8.165 41.382-9 62.5"/><path fill="#55e0f2" d="M261 347c-3.686 20.103-3.118 40.814-11 60-.122-15.639-3.256-30.779-6-46-.022-.123 2.42.662 2-1.5-.069-.354-3.898-5.581-4-6-1.286-5.265-.921-10.062-3.5-15.5l10.5-.5c-7.997 3.474-5.7 11.234-3.5 18.5 1.248-7.984 9.696-4.654 15.5-9"/><path fill="#2481a0" d="m757 363-4-2.5c1.594 6.476-6.234 42.447-11.5 43.5-1.127.225-6.459-4.335-8.5-4-.138-17.365-.797-34.793-3-52l22.5 9c1.799-2.608-1.51-14.712-2.5-18l3-2c2.367 9.777 3.047 16.689 4 26"/><path fill="#00375d" d="M505 417c2.639-3.38 4.633-7.655 5-12 31.721-4.575 59.705-23.112 60-58 2.697-.754 10.499-5.21 13-7 9.635 46.95-34.86 79.983-78 77"/><path fill="#4b6774" d="M657 340c5.825 38.614 2.325 81.143-21 114-28.318 39.891-82.073 54.673-129 50-.33-.033-.671.038-1 0l-1-24c44.026.651 84.962-15.131 114-48.5 6.5-7.47 15.846-19.885 18-29.5 10.309-19.3 15.34-40.007 15-62z"/><path fill="#69b7d4" d="M798 452c-1.317 2.215-7.706 14.104-9.5 14-4.126-3.883-6.737-9.809-8.5-15-1.398-4.116-2.318-10.561-3-15 5.549-.939 5.651 5.711 9.5 6 2.279.171 12.196-7.902 12.5-9.5.276-1.449-7.08-8.369-8-14-.821-5.02.084-29.167 2-33.5 1.244-2.813 8.607-4.295 7-10.5-.285-1.101-6.639-5.456-7.5-5.5-3.058-.158-3.256 1.833-5.5 3-.646.336-1.545-1.667-2.5-1-1.592 1.112-1.317 8.625-6.5 6 .743-4.913 7.118-36.5 9.5-37 23.259 32.697 31.746 76.272 10.5 112"/><path fill="#1d636a" d="m234 343-6 9c-11.46 7.704-23.349 69.406-13 83 .582 4.509 3.088 9.911 5 14-3.315 2.549-2.14-3.286-6-3-14.97-32.965-7.745-76.529 16-104-2.052 7.924.276.94 4 1"/><path fill="#e0fafd" d="M242 363c.085.309-.08.687 0 1-.598 1.933-7.24-1.712-7.5-2-2.846-3.157-1.666-13.25-6.5-10l6-9c2.149.91 7.148 16.901 8 20"/><path fill="#44b5d1" d="M777 349c-1.81 8.7-6.916 22.209-3 30-.368 3.013-1.455 5.878-1 9l-4 6c-1.872-17.815-4.648-33.42-8-51z"/><path fill="#1a8cb0" d="M268 363c-.217 1.59.145 3.378 0 5-.032-.267-1.319-4.669-2-5 .821-5.961 2.197-13.895 5.5-19-.407 6.405-2.636 12.663-3.5 19"/><path fill="#37b1d0" d="M294 348c-.076 2.805-.872 5.693-1 9-.372 9.59.304 34.827-2 42-.995 3.099-3.59 6.916-7.5 7-10.368.224-14.656-30.906-15.5-38 .145-1.622-.217-3.41 0-5 7.561-7.353 14.983-13.452 26-15"/><path fill="#eef2f4" d="M308 447c-4.299-13.023-6.362-21.36-8-35-1.811-15.079-.641-29.68-2-44-.123-1.294.222-2.822 0-4 1.29-4.92.507-10.069 1-15 1.025-.101 3.938 4.205 4 4.5 2.872 13.632-1.129 41.139 0 57 .812 11.405 6.693 24.392 5 36.5"/><path fill="#aef2fc" d="M242 364c3.797 14.768 6.084 29.683 6 45-5.094-3.012-2.506 8.142-4 9.5-1.344 1.222-4.863-.018-5.5.5-3.57 2.906-3.082 12.169-10 14l-2.5-.5c7.499-4.69 6.502-12.841 6-20.5 1.68-.573 4.052 1.905 5-.5 2.721-6.906.829-53.704-15-37.5-.116-1.757 2.778-4.642-.5-5-1.621 11.311-5.736 25.758-6.5 37.5-.341 5.238-.6 23.853 0 28.5-10.349-13.594 1.54-75.296 13-83 4.834-3.25 3.654 6.843 6.5 10 .26.288 6.902 3.933 7.5 2"/><path fill="#207788" d="M298 364c.222 1.178-.123 2.706 0 4-6.13 8.962-.007 22.873-2 33.5l-5-2.5c2.304-7.173 1.628-32.41 2-42 3.299 1.477 4.342 3.507 5 7"/><path fill="#145c75" d="M757 363c3.953 38.623 4.688 81.933-7 119-1.544.064-3.777 1.445-6.5 0-1.073-.57-14.266-18.308-14.5-19.5-.128-.655 2.958-10.931 3-13 .33-16.41 1.13-33.146 1-49.5 2.041-.335 7.373 4.225 8.5 4 5.266-1.053 13.094-37.024 11.5-43.5z"/><path fill="#0d617c" d="M244 361c2.744 15.221 5.878 30.361 6 46 .041 5.288-.504 14.665-1 20l-2-1c.487-4.855.973-12.136 1-17 .084-15.317-2.203-30.232-6-45-.08-.313.085-.691 0-1z"/><path fill="#166578" d="M268 368c.844 7.094 5.132 38.224 15.5 38 3.91-.084 6.505-3.901 7.5-7l5 2.5c1.993-10.627-4.13-24.538 2-33.5 1.359 14.32.189 28.921 2 44-3.992.274-.365 4.29-3.5 7-.523.453-3.443-.676-4.5.5-2.026 2.254-2.678 39.115-4 45.5-.825 3.988-4.353 7.95-6 10.5-.086.133 2.002 1.98 1 3-1.499 1.525-6.652 2.465-9 2.5-1.618-2.367-3.944-4.783-5-7.5-8.908-22.931-6.502-85.084-3-110.5.681.331 1.968 4.733 2 5"/><path fill="#e1f6f9" d="M495 452c34.545 3.971 71.621-9.921 98-32-29.911 30.806-77.398 41.325-118.5 31-37.675-9.464-74.699-45.545-77.5-85 8.2 45.481 53.249 80.856 98 86"/><path fill="#05557d" d="M449 413c-.801 4.218.406 6.052 3 9v1c-18.757-12.076-31.486-33.773-37-55 6.084 11.341 10.111 24.117 18 34.5 3.048 4.012 11.588 16.109 16 10.5"/><path fill="#9fdff0" d="M222 374c.77 11.646 9.029 23.179 10 38 .502 7.659 1.499 15.81-6 20.5l2.5.5c6.918-1.831 6.43-11.094 10-14 .637-.518 4.156.722 5.5-.5 1.494-1.358-1.094-12.512 4-9.5-.027 4.864-.513 12.145-1 17-.307 3.061-1.459 6.923-2 10l-3.5-6c-4.035 8.998-10.145 16.661-18.5 22-.102-.186-2.546-2.029-3-3-1.912-4.089-4.418-9.491-5-14-.6-4.647-.341-23.262 0-28.5.764-11.742 4.879-26.189 6.5-37.5 3.278.358.384 3.243.5 5"/><path fill="#e2fefe" d="M793 385c-7.883.679-7.925-7.922-6-13 2.244-1.167 2.442-3.158 5.5-3 .861.044 7.215 4.399 7.5 5.5 1.607 6.205-5.756 7.687-7 10.5"/><path fill="#cdfafd" d="M232 412c-.971-14.821-9.23-26.354-10-38 15.829-16.204 17.721 30.594 15 37.5-.948 2.405-3.32-.073-5 .5"/><path fill="#77cfe8" d="M787 372c-1.925 5.078-1.883 13.679 6 13-1.916 4.333-2.821 28.48-2 33.5.92 5.631 8.276 12.551 8 14-.304 1.598-10.221 9.671-12.5 9.5-3.849-.289-3.951-6.939-9.5-6-3.149-20.496-2.068-38.71 1-59 5.183 2.625 4.908-4.888 6.5-6 .955-.667 1.854 1.336 2.5 1"/><path fill="#43d0ee" d="M529 441c-24.67 3.298-55.437-.679-75-17 56.178 33.268 128.722 10.574 155-49-9.495 34.772-44.735 61.285-80 66"/><path fill="#e9f4f8" d="M510 405c-.367 4.345-2.361 8.62-5 12-11.646 14.915-30.951 9.832-38.5-6-3.745 4.291-7.898 12.087-14.5 11-2.594-2.948-3.801-4.782-3-9 1.747-9.2 11.558-7.501 16-9 1.058-.357 5.758-14.332 12.5-18 14.462-7.868 33.997 1.287 32.5 19"/><path fill="#289bbb" d="M773 388v48c-.206-.929-.707-1.432-1-3-2.832-15.155-1.523-24.939-3-39z"/><path fill="#0b393f" d="M258 397c-.631 15.942-1.301 30.588 1 46.5 1.222 8.449 6.62 37.627 15 37.5 2.348-.035 7.501-.975 9-2.5 1.002-1.02-1.086-2.867-1-3 1.647-2.55 5.175-6.512 6-10.5 1.769 1.4 6.83-7.151 7-1-9.335-.176-9.408 21.614-16.5 23-2.734.534-41.37-9.007-44.5-11-1.053-2.872 1.655-3.389 2-4 9.345 4.652 18.319 3.138 27.5 8l2.5-1.5c-7.478-19.172-8.465-35.136-12-58z"/><path fill="#1d3d44" d="M505 480c-3.823-.057-9.061-.643-13-1l2-5c57.74 5.597 115.208-19.969 143-72-2.154 9.615-11.5 22.03-18 29.5-29.038 33.369-69.974 49.151-114 48.5"/><path fill="#031f26" d="M300 412c1.638 13.64 3.701 21.977 8 35 .509 1.542.347 5.244 1 7 .172 1.712-.997 2.123-1 4-.027 16.826.791 28.617 11.5 42-18.905.948-20.483-22.196-24.5-36-.17-6.151-5.231 2.4-7 1 1.322-6.385 1.974-43.246 4-45.5 1.057-1.176 3.977-.047 4.5-.5 3.135-2.71-.492-6.726 3.5-7"/><path fill="#062b2b" d="M249 427c-1.374 14.778-5.655 31.997-13 45-.345.611-3.053 1.128-2 4-3.953-2.517-17.659-24.845-20-30 3.86-.286 2.685 5.549 6 3 .454.971 2.898 2.814 3 3 3.217 5.833 5.84 12.061 10.5 17 7.398-9.871 9.434-21.255 11.5-33 .541-3.077 1.693-6.939 2-10z"/><path fill="#69aebf" d="M245 436c-2.066 11.745-4.102 23.129-11.5 33-4.66-4.939-7.283-11.167-10.5-17 8.355-5.339 14.465-13.002 18.5-22z"/><path fill="#105976" d="M772 433c.293 1.568.794 2.071 1 3 1.268 5.734 4.421 12.934 6 17 2.592 6.675 3.951 12.935 9 18.5-10.68 2.453-24.612 9.019-35 10.5 4.016-13.985 8.441-28.457 10-43 6.781-1.325 1.437-9.704 9-6"/><path fill="url(#e)" d="M723 441c-3.521 22.116-8.627 43.412-20 63-5.655.69-10.987 1.442-15.5 2-3.64.45-11.626-.434-15 0-3.706.476-12.637 3.555-16 4-2.011.266-3.313-1.358-6-1-.796.106-.204 1.895-1 2-6.423.849-16.292.059-24 1-41.113 5.021-78.169 7.249-120.5 7l2-15c46.927 4.673 100.682-10.109 129-50 .955 13.416 23.268 13.044 33.5 12 19.185-1.958 38.263-14.085 53.5-25" style="fill:url(#e)"/>/&gt;<path fill="#738994" d="M427 450c1.286.848 4.806 4.325 6 5 14.359 15.412 38.183 22.112 59 24 3.939.357 9.177.943 13 1l1 24c-39.744-4.544-60.045-30.305-85-57 1.58.482 4.699 2.142 6 3"/><path fill="#1f4e4f" d="m324 482-1 3c-5.021-8.975-9.85-18.105-15-27 .003-1.877 1.172-2.288 1-4 1.427 3.836 12.649 25.319 15 28"/><path fill="#35606b" d="m494 474-2 5c-20.817-1.888-44.641-8.588-59-24 17.549 9.931 40.978 17.059 61 19"/><path fill="#00192a" d="M849 706c-.31-10.086-1.84-20.313-1-30.5-1.007-.483-1.993-1.055-3-1.5-1.091-.482-11.885-2.227-15-3-12.06-2.994-37.325-4.092-35-22.5.401-3.173 4.91-7.537 5-8 1.057-5.411-8.714-18.455-2-29.5 3.425-5.635 7.833-4.105 14-4 7.95.135 17.06 3.708 26 .5-9.744-1.763-16.258-5.603-23-12.5-.126-.129-.859-1.625-2-3-4.995-17.553 5.417-21.725 21-18 8.605 1.054 18.079-.83 28 1 12.355 2.278 26.112 8.438 31 21-5.824.682-2.725 5.557-7.5 10-3.354 3.12-16.487 4.389-15.5 7.5l8.5 3.5c-8.681-4.198-1.86-6.25 5-8 1.669-.426 2.389 2.479 4 2 2.271-.675 6.595-4.349 8.5-5 6.817-2.33 13.356-4.019 20-7 1.336-.599 2.705-1.385 4-2 4.083-1.939 15.796-5.891 17-10l.5-4c4.04-1.18.626 3.219 2 3 1.257-.201 16.755-15.299 18.5-17.5 17.082-21.552 20.487-44.35 1-65.5-20.364-22.102-44.554-15.173-66 1-4.9 3.341-12.504 7.774-1 10l3 5c-4.927-2.81-10.478-5.503-16-7 .821-1.139 2.821-2.8 4-4 14.179-10.52 29.706-21.423 48-21.5-16.194-13.618-35.141-16.983-52-2.5-7.173 6.162-17.993 22.26-17 31.5.29 2.7-1.017 3.965 3 3.5-.479 2.103-1.16 3.717-1 6 .528 7.52 3.623 3.26 5 4 .715 2.005-3.876 2.814-5 3-9.588 1.584-42.743 3.046-48 8-7.642 7.201 1.465 19.544 10 22 10.594 3.049 26.307-.211 37.5 1v3c-11.751-1.467-34.729 3.133-44.5-3-6.474-4.063-9.56-14.997-7-22 3.459-9.459 20.851-6.663 28.5-8 3.382-.591 3.273-2.962 3.5-3 .324-.054.677.058 1 0 .123-.022.885 2.126 1.5 2 1.957-.402 13.01-2.548 13.5-3.5l2.5-55.5c-48.11 13.05-97.258 22.02-146.5 30 .086-.631-.164-1.581 0-2 33.274-4.746 66.581-11.134 99.5-18 12.199-2.545 36.608-11.351 47-12 8.36-.522 3.867 2.338 5 7 8.26-10.07 26.102-15.515 39-14 18.364 2.157 61.48 40.703 67.5 58.5 9.15 27.05-8.435 55.604-31.5 69.5-8.434 5.081-61.509 22.274-62.5 25.5-.96 3.123 20.369 29.381-15 28 6.446 4.962 2.443 26.306-4.5 29.5-2.973 1.368-9.86.594-10.5 1.5-.851 1.206-.05 25.547-1 29.5m47.5-239c-8.479.621-22.332 8.53-24 17 13.112-13.553 29.56-16.258 47-9 2.458 1.023 18.232 14.393 19.5 11.5-10.166-12.244-26.203-20.693-42.5-19.5M816 579c-3.815 2.637-.807 9.818 1 13 7.956 14.006 32.778 15.84 47 16.5-.564-5.563 1.207-11.013 1-16.5-.107-2.85-.246-4.21-1-7-.3-1.11.358-4.101 0-4.5-1.613-1.798-45.107-3.5-48-1.5m54.5 2 4 26c19.565-8.008 15.269-22.63-4-26m-4 1-.5 26.5 2.5.5c3.873-1.059.635-22.711-2-27M803 610c-3.002 2.859-3.486 7.057-3 11 .642 5.215 5.734 10.086 10.5 12 3.724 1.495 43.683 8.937 45.5 7.5 1.28-3.368 1.164-7.047 2-10.5.216-.891-.193-2.087 0-3 .327-1.543 4.216-12.619 3.5-13zm58 19c-.532 3.168-3.304 11.186-.5 13 20.96 6.281 32.889-18.367 10.5-25-1.594-.472-5.073-3.524-7-1.5-.202 4.655-2.242 8.987-3 13.5m-57 14c-1.475 1.147-3.288 2.112-4 4-1.296 3.438-1.53 4.612 0 8 3.951 8.748 48.385 18.834 56.5 17 6.193-1.399 10.64-14.403 9.5-20-2.288-11.229-47.155-14.808-56.5-13-3.763.728-4.116 2.923-5.5 4"/><path fill="#062528" d="M156 481c4.545 5.85 1.881 3.961 3 8-10.418-17.929-29.933-25.186-50-20-10.524 2.72-19.402 10.405-25 19.5 1.188.977 2.306-.285 4-.5 1.045-.133 2.977-.431 3 1-18.06.641-32.004 15.7-37 32-8.004 26.113 6.679 50.137 28.5 64 .876.046 2.871-9.552 3.5-11 10.937-25.187 21.461-43.613 45-59 2.418-1.58 5.491-2.507 8-4 .256-.152 1.164.142 1-1 2.33.814 5.68-.546 8-1 .15.999 1.038 1.122 1 2-.812.445-1.112.607-2 1-27.63 12.221-49.399 28.266-58 60.5-1.883 7.057-3.235 13.343 1 18.5 2.344 2.855 8.637 3.197 12.5 4-.275-3.55-1.189-9.138-.5-12.5.174-.851 1.977-.399 2-.5.465 3.541-3.958 10.733 2 10 1.475 14.586 7.509 11.136 19.5 13 .354.055 4.007 4.241 5.5 0 2.826 4.52 19.179 12.522 19 3-.04-2.156-2.016-9.005-2-11 .035-4.344 2.031-10.507 2.5-15-4.732.957-8.839 2.832-12.5 6-.457.396-2.894 1.835-3 2l-1-2c3.367-4.101 13.026-10.555 18-12 2.532-.736 9.352-.3 12.5-1-4.121-.173-5.176-2.848-5.5-3 12.478 2.763 29.467-.38 41.5 2 5.119 1.013 4.528 2.561 7.5 5 2.907 5.248-.62 14.714-4 19-3.322 4.212-9.862 5.513-13 9.5.877 3.393 14.182.527 17 .5 1.922-.018 2.204-.994 3-1l1 2c-4.774.049-12.497 2.444-18 3-3.279.331-10.178 2.677-14.5 3-5.58.417-13.809-2.265-20-1-1.681.961 2.153 8.346 2.5 10 .352 1.674.534 4.47 1 6 1.053 3.456 2.49 6.722 2 10.5 13.702-1.38 45.446-1.293 54-13.5 1.333-1.902 2.81-4.837 3-7 .243-2.76.145-4.445-1-7l3-1c5.189 11.391-3.823 23.241-15 25.5.035 1.606 23.812.671 17 21-3.44 10.266-22.43 12.737-32 14.5-.944.174-2.046-.152-3 0-4.116.654-8.883 1.726-13 2-2.151.143-3.794.993-4 1-22.494.769-27.182-10.704-19-30.5-19.858 1.568-25.001-13.836-13-28-20.402-11.55-47.79-15.085-66.5-28.5-36.28-26.012-39.15-67.545-4-96 2.032-1.645 8.47-2.798 10-4 5.852-4.596 7.562-13.551 18-19 18.203-9.503 43.506-5.723 56.5 11m1 107c-.092.98.069 2.016 0 3-.162 2.308-.314 16.42.5 17 14.507-.497 36.513-2.005 45.5-15 13.257-19.171-8.939-15.571-22-15-7.379.323-15.025 2.155-22.5 2-2.414 1.07-1.302 5.879-1.5 8m-3.5-7c-2.766.137-3.509 24.359-1 28 3.057.084 3.63-28.13 1-28m-6.5 39c-3.397 2.185-7.465 3.939-8 9-1.384 13.092 21.949 16.778 24 12.5 1.223-2.549-2.901-8.926-3-9.5-1.67-9.662.217-20.502-13-12m8 35c-.683 2.226-1.386 3.258-1 6 .436 3.095 4.977 8.982 7.5 10 7.15 2.885 54.849-6.037 59.5-12.5.689-.958 1.715-4.143 2-5.5.94-4.473 1.237-8.265-3.5-11-6.327-3.652-48.771.276-56 3-3.989 1.503-7.34 6.222-8.5 10"/><path fill="#277d8c" d="M159 489c1.553 5.607 2.161 8.085 1 12-10.063-18.833-27.505-33.042-50-28l-1-4c20.067-5.186 39.582 2.071 50 20"/><path fill="#106795" d="M896.5 467c16.297-1.193 32.334 7.256 42.5 19.5-1.268 2.893-17.042-10.477-19.5-11.5-17.44-7.258-33.888-4.553-47 9 1.668-8.47 15.521-16.379 24-17"/><path fill="#1db6cf" d="M110 473c-5.396 1.209-9.653 4.92-14 8-2.936 2.08-6.296 3.418-8 7-1.694.215-2.812 1.477-4 .5 5.598-9.095 14.476-16.78 25-19.5z"/><path fill="#082628" d="M160 501c-.487 1.642 3.16 5.833-4 1 .259-5.791-9.716-15.502-14-19-17.037-13.91-27.335-10.039-46-1v-1c4.347-3.08 8.604-6.791 14-8 22.495-5.042 39.937 9.167 50 28"/><path fill="#3595b6" d="M845 530c-1.549-47.879-67.324-22.921-96.5-19-124.817 16.776-239.725 25.081-366 15-16.012-1.278-32.588-5.541-48.5-4-38.245-4.14-76.563-12.115-114-16 .872-1.943-4.845-2.934-5.5-3-12.638-1.268-26.706-1.912-33.5 10.5-5.15 9.408-.269 21.639-14 15.5-.024-.1-1.893.336-2-.5l.5-50.5c83.807 18.646 169.242 33.113 255 40 100.705 8.087 193.182 1.864 292.5-14 1.646-.263 2.159-.864 3-1 49.242-7.98 98.39-16.95 146.5-30l-2.5 55.5c-.49.952-11.543 3.098-13.5 3.5-.615.126-1.377-2.022-1.5-2"/><path fill="#2fd7ed" d="m142 483-9.5-2-13.5 1 .5 3c-5.896-.922-17.812-5.208-18.5 4-1.76-.406-9.892-.891-10-2.5l5-4.5c18.665-9.039 28.963-12.91 46 1"/><path fill="#10596e" d="M335 506c5.341.687 10.634 1.363 16 2 52.777 6.27 100.599 10.686 154 11 42.331.249 79.387-1.979 120.5-7 7.708-.941 17.577-.151 24-1 .796-.105.204-1.894 1-2 2.687-.358 3.989 1.266 6 1 3.363-.445 12.294-3.524 16-4 3.374-.434 11.36.45 15 0 4.513-.558 9.845-1.31 15.5-2 2.906-.355 12.402-7.204 10 0-99.318 15.864-191.795 22.087-292.5 14-85.758-6.887-171.193-21.354-255-40l-.5 50.5c.107.836 1.976.4 2 .5.995 4.229-.226 1.909-3 4a33 33 0 0 0-2 0c-.646.026-1.403-.125-2 0 2.392-3.123-2.656-2.353-5-1l-1-2c.453-.286 6.802-4.729 5.5-6-3.8 2.285-11.031 3.686-14.5 6 8.581-8.065 19.631-2.883 13.5-19-.452-.333-9.462 3.384-10.5 4l-1-2v-1c.888-.393 1.188-.555 2-1 2.849-1.561 6.845-5.538 7-9 7.16 4.833 3.513.642 4-1 1.161-3.915.553-6.393-1-12-1.119-4.039 1.545-2.15-3-8 2.661-.465 1.089-4.506 2-5.5 2.723-2.971 17.921 3.564 22.5 4.5 51.918 10.617 101.919 19.232 154.5 26"/><path fill="#3bc0ea" d="M883 508c3.417-3.476 10.351-11.31 13.5-14 .853-.729 8.211.593 5.5-5 6.459-3.165 9.654-8.409 18-7 .318.054 2.471 4.91 5 2.5l-5-2.5c-2.527-3.133-6.66-1.759-10-2-11.489-.828-20.237.593-31 4 16.859-14.483 35.806-11.118 52 2.5-18.294.077-33.821 10.98-48 21.5"/><path fill="#053151" d="M910 480c-5.271 4.023-30.687 4.393-21 15-5.598 3.961-10.965 10.969-16 15.5.524 1.957 4.796 3.273 5 3.5 5.326 5.939 12.139 11.396 17 17 16.501 19.023 26.537 40.17 25 66-1.295.615-2.664 1.401-4 2 5.927-38.777-20.794-65.862-47.5-89-3.171 2.197-2.772 5.801-3.5 9-4.017.465-2.71-.8-3-3.5-.993-9.24 9.827-25.338 17-31.5 10.763-3.407 19.511-4.828 31-4"/><path fill="#19719f" d="M920 482c-8.346-1.409-11.541 3.835-18 7-3.129 1.533-10.553 4.269-13 6-9.687-10.607 15.729-10.977 21-15 3.34.241 7.473-1.133 10 2"/><path fill="#074a59" d="M96 481v1l-5 4.5c.108 1.609 8.24 2.094 10 2.5 8.62 1.989 16.695 3.512 24.5 8 3.634 2.09 13.581 12.679 14.5 13 .164 1.142-.744.848-1 1-11.357-12.058-31.011-22.603-48-22-.023-1.431-1.955-1.133-3-1 1.704-3.582 5.064-4.92 8-7"/><path fill="#1e6776" d="M142 483c4.284 3.498 14.259 13.209 14 19-.155 3.462-4.151 7.439-7 9 .038-.878-.85-1.001-1-2-1.928-12.857-16.937-23.878-29-27l13.5-1z"/><path fill="#7c99a5" d="M351 508a1644 1644 0 0 1-16-2c-4.353-6.784-8.069-13.973-12-21l1-3c.059.068.527-2.079 1.5-1 7.665 8.497 17.878 15.401 25 23 1.727 1.843 2.034 1.668.5 4"/><path fill="#1d9db4" d="M148 509c-2.32.454-5.67 1.814-8 1-.919-.321-10.866-10.91-14.5-13-7.805-4.488-15.88-6.011-24.5-8 .688-9.208 12.604-4.922 18.5-4l-.5-3c12.063 3.122 27.072 14.143 29 27"/><path fill="#19719f" d="m920 482 5 2.5c-2.529 2.41-4.682-2.446-5-2.5"/><path fill="#4bc0d6" d="M91 489c16.989-.603 36.643 9.942 48 22-2.509 1.493-5.582 2.42-8 4-7.118-3.51-14.727-7.977-22-11-13.162-5.471-29.301-13.952-39.5 1 13.278-4.827 16.809-7.255 30.5-3 26.945 24.39-25.673 32.951-34.5 12-3.594-.174-4.355 2.365-5.5 5-3.984-.711-4.04.836-5.5 4l-.5-2c4.996-16.3 18.94-31.359 37-32m-12.5 16c-2.45.385-10.184 3.441-10.5 6.5 5.617-4.158 5.719 2.321 10.5 3.5 3.58.883 19.985-.823 19.5-5.5-.437-4.211-16.053-5.042-19.5-4.5"/><path fill="#1582bc" d="M902 489c2.711 5.593-4.647 4.271-5.5 5-3.149 2.69-10.083 10.524-13.5 14-1.179 1.2-3.179 2.861-4 4-.357.495-.838 1.366-1 2-.204-.227-4.476-1.543-5-3.5 5.035-4.531 10.402-11.539 16-15.5 2.447-1.731 9.871-4.467 13-6"/><path fill="#24b0db" d="M959 503c-1.946 2.343.062 2.843 0 5-.128 4.454-.221 3.518-2 7-2.665-1.77 1.761-4.69-4-10-13.176-14.523-25.693-7.068-40 0-2.76 1.364-6.562 4.231-11 6 6.926-4.682 6.005-6.007.5-12-1.951 2.75-7.407 3.573-9.5 5 21.446-16.173 45.636-23.102 66-1"/><path fill="#89f2f8" d="M109 504c-2.807-.544-6.323-1.168-9-2-13.691-4.255-17.222-1.827-30.5 3 10.199-14.952 26.338-6.471 39.5-1"/><path fill="#67e7f8" d="M953 505c-.212-.196-1.615-.748-2-1-9.498-6.204-20.107-4.519-30-1-2.45.872-5.32 2.034-8 2 14.307-7.068 26.824-14.523 40 0"/><path fill="#2195c5" d="M902 511c-3.797 1.513-4.213 4.12-10 3-11.504-2.226-3.9-6.659 1-10 2.093-1.427 7.549-2.25 9.5-5 5.505 5.993 6.426 7.318-.5 12"/><path fill="#0d7eab" d="M951 504c-4.555-.508-4.672 1.991-5 2-8.6.241-16.516-1.792-25 3 .223-.85.58-4.976 0-6 9.893-3.519 20.502-5.204 30 1"/><path fill="#0a5473" d="M845 530c-.323.058-.676-.054-1 0-5.547-43.284-60.977-20.682-88.5-17-146.87 19.646-273.613 25.01-421.5 9 15.912-1.541 32.488 2.722 48.5 4 126.275 10.081 241.183 1.776 366-15 29.176-3.921 94.951-28.879 96.5 19"/><path fill="#195065" d="M109 504c7.273 3.023 14.882 7.49 22 11-23.539 15.387-34.063 33.813-45 59-17.41-7.023-33.522-37.686-26-55 1.145-2.635 1.906-5.174 5.5-5 8.827 20.951 61.445 12.39 34.5-12 2.677.832 6.193 1.456 9 2"/><path fill="#062826" d="M220 506c-23.06-2.393-38.231-4.032-41 24.5 10.318 7.709 27.634-1.835 31 16.5-4.256 14.4-10.058 18.163-25 20l2-4c7.744-.817 13.6-2.233 17-10 2.222-5.076 4.374-9.932-1-14-3.12-2.362-33.268-5.881-39-6 2.774-2.091 3.995.229 3-4 13.731 6.139 8.85-6.092 14-15.5 6.794-12.412 20.862-11.768 33.5-10.5.655.066 6.372 1.057 5.5 3"/><path fill="#074d77" d="M921 503c.58 1.024.223 5.15 0 6-.08.304.045.677 0 1-.017.124-2.013.805-2 1.5.256 13.969 30.292 18.587 38 3.5 1.779-3.482 1.872-2.546 2-7 4.187 1.626 5.522 8.43 6 12.5 2.887 24.565-8.177 41.514-28 54.5-7.243-21.617-19.538-41.396-39-54-.868-.562-2.599-1.771-3-2l-3-5c5.787 1.12 6.203-1.487 10-3 4.438-1.769 8.24-4.636 11-6 2.68.034 5.55-1.128 8-2"/><path fill="#0e73ac" d="M937 587c1.617-5.519-4.457-7.259-5-8.5-1.172-2.679-1.786-5.86-3-8.5l3-1c.786 1.746 2.888 4.013 3 6.5l2-.5c19.823-12.986 30.887-29.935 28-54.5-.478-4.07-1.813-10.874-6-12.5.062-2.157-1.946-2.657 0-5 19.487 21.15 16.082 43.948-1 65.5-1.745 2.201-17.243 17.299-18.5 17.5-1.374.219 2.04-4.18-2-3z"/><path fill="url(#f)" d="M220 506c37.437 3.885 75.755 11.86 114 16 147.887 16.01 274.63 10.646 421.5-9 27.523-3.682 82.953-26.284 88.5 17-.227.038-.118 2.409-3.5 3-7.649 1.337-25.041-1.459-28.5 8-12.216 7.016-9.158 20.755 2 27 8.253 4.619 10.6 2.827 19.5 4 .838.11.398 1.987.5 2-15.583-3.725-25.995.447-21 18-1.942-2.339-2.4-4.092-4-6.5-1.555 7.637-9.192 14.895-12 21-.829 1.803-1.851 3.543 1 4.5-6.714 11.045 3.057 24.089 2 29.5-.09.463-4.599 4.827-5 8-2.325 18.408 22.94 19.506 35 22.5.961 1.38-.02 2.851 0 3l-11.5-3c.636 2.486-.312 4.314-.5 6l-2.5-5c-.102.784-1.395 2.107-1.5 2.5-7.734 29.004-2.18 106.148-16 128-10.857 17.166-29.592 6.129-45.5 4.5-46.315-4.742-102.184-8.949-148.5-8-2.641.054-8.603-.559-10.5 0-2.281.672-17.357 13.259-15.5 18-77.597-2.43-156.211.727-233.5 7-31.484 2.555-102.688 21.47-124.5-3.5-15.38-17.606-23.572-107.282-25-133.5 15.654-8.255 45.005-7.092 40-32.5-.691-3.507-8.109-11.287-8-12 .171-1.116 10.018-9.663 9-20-.214-2.173-17.152-27.013-20-31.5-3.789-5.968-1.167-6.392-8-12-2.972-2.439-2.381-3.987-7.5-5-12.033-2.38-29.022.763-41.5-2-.66-.308-2.5.207-3.5 0-3.166-2.071 7.866-2.021 9-2 9.384.171 24.799 2.746 33.5 2 15.514-1.331 29.204-20.042 14.5-32-3.594.606-1.308 2.969-2.5 7-3.366-18.335-20.682-8.791-31-16.5 2.769-28.532 17.94-26.893 41-24.5m-18.5 16c-6.587.878-11.887 5.099-16 10 33.529-4.412 68.404 6.19 102 10 22.534 2.555 200.042 21.244 205.5 12.5-6.403-3.03-18.565-3.867-26.5-4.5-37.894-3.025-76.145-2.963-114-7-36.29-3.87-121.212-24.969-151-21m14 224c1.604 20.605 4.628 46.01 15 64-2.935-20.198-3.079-46.823-15-64" style="fill:url(#f)"/>/&gt;<path fill="#42addb" d="M951 504c.385.252 1.788.804 2 1 5.761 5.31 1.335 8.23 4 10-7.708 15.087-37.744 10.469-38-3.5-.013-.695 1.983-1.376 2-1.5 5.308 6.04 30.681 9.069 25-4 .328-.009.445-2.508 5-2"/><path fill="#a3f9fe" d="M78.5 505c3.447-.542 19.063.289 19.5 4.5.485 4.677-15.92 6.383-19.5 5.5-4.781-1.179-4.883-7.658-10.5-3.5.316-3.059 8.05-6.115 10.5-6.5"/><path fill="#99f2ff" d="M946 506c5.681 13.069-19.692 10.04-25 4 .045-.323-.08-.696 0-1 8.484-4.792 16.4-2.759 25-3"/><path fill="#1c4763" d="M916 599c-6.644 2.981-13.183 4.67-20 7-1.922-2.726-1.813-6.951-3-10-4.888-12.562-18.645-18.722-31-21l-2-6.5c.266-.51 5.717-.397 6-.5 29.617-10.774 28.01-34.189-2-43-.16-2.283.521-3.897 1-6 .728-3.199.329-6.803 3.5-9 26.706 23.138 53.427 50.223 47.5 89"/><path fill="#28b7d7" d="M147 512v1c-7.245 5.331-15.312 13.126-21 20l.5-5c-20.749 14.148-34.19 38.009-36.5 63-4.235-5.157-2.883-11.443-1-18.5 8.601-32.234 30.37-48.279 58-60.5"/><path fill="#2d7178" d="M145 530c-7.326 4.887-13.458 14.185-10 23-1.632 9.069 11.952 16.361 17 23-4.974 1.445-14.633 7.899-18 12-4.467 5.44-7.468 9.853-3 17-1.493 4.241-5.146.055-5.5 0-11.991-1.864-18.025 1.586-19.5-13-2.609-25.802 20.255-64.097 42-77 1.038-.616 10.048-4.333 10.5-4 6.131 16.117-4.919 10.935-13.5 19"/><path fill="#18a4df" d="M895 519c.401.229 2.132 1.438 3 2 12.006 10.945 23.339 23.046 31 37.5 1.313 2.478 2.011 8.305 3 10.5l-3 1c-4.351-9.464-9.999-22.836-17-30.5-4.025-4.406-10.877-12.242-17-8.5-4.861-5.604-11.674-11.061-17-17 .162-.634.643-1.505 1-2 5.522 1.497 11.073 4.19 16 7"/><path fill="#061f20" d="M148 515c-21.745 12.903-44.609 51.198-42 77-5.958.733-1.535-6.459-2-10 5.196-23.005 6.64-30.439 22-49 5.688-6.874 13.755-14.669 21-20z"/><path fill="#2c7895" d="M60 519c-7.522 17.314 8.59 47.977 26 55-.629 1.448-2.624 11.046-3.5 11-21.821-13.863-36.504-37.887-28.5-64l.5 2c1.46-3.164 1.516-4.711 5.5-4"/><path fill="#011729" d="m937 575-2 .5c-.112-2.487-2.214-4.754-3-6.5-.989-2.195-1.687-8.022-3-10.5-7.661-14.454-18.994-26.555-31-37.5 19.462 12.604 31.757 32.383 39 54"/><path fill="#f9fdfe" d="M201.5 522c29.788-3.969 114.71 17.13 151 21 37.855 4.037 76.106 3.975 114 7 7.935.633 20.097 1.47 26.5 4.5-5.458 8.744-182.966-9.945-205.5-12.5-33.596-3.81-68.471-14.412-102-10 4.113-4.901 9.413-9.122 16-10"/><path fill="#031e20" d="M154 530c-4.907 3.099-10.494 3.266-14 10-5.223 10.031 2.92 13.083 7.5 21 2.728.064 1.197-10.917 1.5-13 .645-4.439 1.854-13.606 6-16 2.344-1.353 7.392-2.123 5 1-6.321 1.324-8.612 9.223-9 16-.478 8.36 1.543 8.145 3 14 .417 1.673 2.194 2.045-.5 4-5.314-1.64-16.496-8.891-18.5-14-3.458-8.815 2.674-18.113 10-23 3.469-2.314 10.7-3.715 14.5-6 1.302 1.271-5.047 5.714-5.5 6"/><path fill="#00131f" d="M866 568c8.338-11.624 4.778-18.462 1-30-.24-.732.143-2.065 0-3 7.844 4.535 7.39 17.709 6.5 26 15.574-17.923 16.492-20.716-4.5-32-1.377-.74-4.472 3.52-5-4 30.01 8.811 31.617 32.226 2 43"/><path fill="#257081" d="M126 533c-15.36 18.561-16.804 25.995-22 49-.023.101-1.826-.351-2 .5-.689 3.362.225 8.95.5 12.5-3.863-.803-10.156-1.145-12.5-4 2.31-24.991 15.751-48.852 36.5-63z"/><path fill="#0f5b82" d="M867 535c-1.244-.719-2.571-1.517-3-3 1.124-.186 5.715-.995 5-3 20.992 11.284 20.074 14.077 4.5 32 .89-8.291 1.344-21.465-6.5-26"/><path fill="#2a869c" d="m154 530 1 2c-4.146 2.394-5.355 11.561-6 16l-9-8c3.506-6.734 9.093-6.901 14-10"/><path fill="#095283" d="M929 570c1.214 2.64 1.828 5.821 3 8.5.543 1.241 6.617 2.981 5 8.5-1.204 4.109-12.917 8.061-17 10 1.537-25.83-8.499-46.977-25-66 6.123-3.742 12.975 4.094 17 8.5 7.001 7.664 12.649 21.036 17 30.5"/><path fill="#41aed5" d="M864 532c.429 1.483 1.756 2.281 3 3 .143.935-.24 2.268 0 3-4.156.265-11.886 4.593-15 5-11.948 1.562-24.432-.776-36-3 5.257-4.954 38.412-6.416 48-8"/><path fill="#2bb5c7" d="M160 533c.597-.125 1.354.026 2 0-3.351 2.811-6.182 2.115-1.5 6 7.019 5.824 35.033 7.402 42.5 0 5.374 4.068 3.222 8.924 1 14-6.109-6.179-19.923-2.207-29.5-3-8.4-.695-17.077-8.133-23.5-1 .388-6.777 2.679-14.676 9-16"/><path fill="#51dce8" d="M164 533c5.732.119 35.88 3.638 39 6-7.467 7.402-35.481 5.824-42.5 0-4.682-3.885-1.851-3.189 1.5-6a33 33 0 0 1 2 0"/><path fill="#10587a" d="M866 568c-.283.103-5.734-.01-6 .5l2 6.5c-9.921-1.83-19.395.054-28-1-.102-.013.338-1.89-.5-2-8.9-1.173-11.247.619-19.5-4l5-5c9.771 6.133 32.749 1.533 44.5 3v-3c-11.193-1.211-26.906 2.049-37.5-1 .498-2.873-4.486-2.661-5-4.5-.296-1.06 2.004-10.945 3.5-11.5 1.815-.673 34.073 8.45 38.5 4 5.221-5.248-5.41-12.733-9-5-.145-.241-1.51-1.945-2-2 3.114-.407 10.844-4.735 15-5 3.778 11.538 7.338 18.376-1 30"/><path fill="#2b7587" d="M149 548c-.303 2.083 1.228 13.064-1.5 13-4.58-7.917-12.723-10.969-7.5-21z"/><path fill="#8ebdc4" d="m198 572-24.5-3c-.623-3.647 8.989-1.691 11.5-2 14.942-1.837 20.744-5.6 25-20 1.192-4.031-1.094-6.394 2.5-7 14.704 11.958 1.014 30.669-14.5 32"/><path fill="#146f96" d="M852 543c.49.055 1.855 1.759 2 2 3.12 5.198 2.729 3.524 9 5-4.427 4.45-36.685-4.673-38.5-4-1.496.555-3.796 10.44-3.5 11.5.514 1.839 5.498 1.627 5 4.5-8.535-2.456-17.642-14.799-10-22 11.568 2.224 24.052 4.562 36 3"/><path fill="#6299b7" d="M812 541c-2.56 7.003.526 17.937 7 22l-5 5c-11.158-6.245-14.216-19.984-2-27"/><path fill="#96ccdf" d="M863 550c-6.271-1.476-5.88.198-9-5 3.59-7.733 14.221-.248 9 5"/><path fill="#1b899a" d="M204 553c-3.4 7.767-9.256 9.183-17 10-10.759 1.135-22.131-1.628-33 0-1.457-5.855-3.478-5.64-3-14 6.423-7.133 15.1.305 23.5 1 9.577.793 23.391-3.179 29.5 3"/><path fill="#1b5960" d="M154 563c10.869-1.628 22.241 1.135 33 0l-2 4c-2.511.309-12.123-1.647-11.5 2l24.5 3c-8.701.746-24.116-1.829-33.5-2-1.134-.021-12.166-.071-9 2 1 .207 2.84-.308 3.5 0 .324.152 1.379 2.827 5.5 3-3.148.7-9.968.264-12.5 1-5.048-6.639-18.632-13.931-17-23 2.004 5.109 13.186 12.36 18.5 14 2.694-1.955.917-2.327.5-4"/><path fill="#3f99aa" d="M157 588c.198-2.121-.914-6.93 1.5-8 7.475.155 15.121-1.677 22.5-2l23.5 3z"/><path fill="#42c5d8" d="m203 593-46-2c.069-.984-.092-2.02 0-3l47.5-7-23.5-3c13.061-.571 35.257-4.171 22 15"/><path fill="#6bc0df" d="m864 585-48-6c2.893-2 46.387-.298 48 1.5.358.399-.3 3.39 0 4.5"/><path fill="#7fb0b5" d="m216 591-3 16c-.658-.033-1.34-.005-2 0-.796.006-1.078.982-3 1 1.817-3.874-2.167-6.529-4-10 3.38-4.286 6.907-13.752 4-19 6.833 5.608 4.211 6.032 8 12"/><path fill="#2584ae" d="M864 585c.754 2.79.893 4.15 1 7h-48c-1.807-3.182-4.815-10.363-1-13z"/><path fill="#289db6" d="M153.5 581c2.63-.13 2.057 28.084-1 28-2.509-3.641-1.766-27.863 1-28"/><path fill="#165a7f" d="M870.5 581c19.269 3.37 23.565 17.992 4 26z"/><path fill="#2c7f96" d="M148 597c-6.48 4.624-11.848-3.34-10-9 3.661-3.168 7.768-5.043 12.5-6-.469 4.493-2.465 10.656-2.5 15"/><path fill="#096798" d="M866.5 582c2.635 4.289 5.873 25.941 2 27l-2.5-.5z"/><path fill="#70a3bc" d="M813 592c1.141 1.375 1.874 2.871 2 3l-3 12c-6.167-.105-10.575-1.635-14 4-2.851-.957-1.829-2.697-1-4.5 2.808-6.105 10.445-13.363 12-21 1.6 2.408 2.058 4.161 4 6.5"/><path fill="#021c20" d="M135 590c-6.123 9.496 6.999 15.953 15 18 .179 9.522-16.174 1.52-19-3-4.468-7.147-1.467-11.56 3-17z"/><path fill="#27606f" d="M148 597c-.016 1.995 1.96 8.844 2 11-8.001-2.047-21.123-8.504-15-18 .106-.165 2.543-1.604 3-2-1.848 5.66 3.52 13.624 10 9"/><path fill="#085477" d="M865 592c.207 5.487-1.564 10.937-1 16.5-14.222-.66-39.044-2.494-47-16.5z"/><path fill="#187f92" d="M203 593c-8.987 12.995-30.993 14.503-45.5 15-.814-.58-.662-14.692-.5-17z"/><path fill="#8cb8c1" d="M216 591c2.848 4.487 19.786 29.327 20 31.5 1.018 10.337-8.829 18.884-9 20-.109.713 7.309 8.493 8 12 5.005 25.408-24.346 24.245-40 32.5-.255-4.679.301-9.424-1-14 9.57-1.763 28.56-4.234 32-14.5 6.812-20.329-16.965-19.394-17-21 11.177-2.259 20.189-14.109 15-25.5-2.089-4.585-6.549-4.776-11-5z"/><path fill="#386d89" d="m812 607 3-12c6.742 6.897 13.256 10.737 23 12.5-8.94 3.208-18.05-.365-26-.5"/><path fill="#052b45" d="M893 596c1.187 3.049 1.078 7.274 3 10-1.905.651-6.229 4.325-8.5 5-1.611.479-2.331-2.426-4-2-6.86 1.75-13.681 3.802-5 8l-8.5-3.5c-.987-3.111 12.146-4.38 15.5-7.5 4.775-4.443 1.676-9.318 7.5-10"/><path fill="#4c97a1" d="M208 608c-2.818.027-16.123 2.893-17-.5 3.138-3.987 9.678-5.288 13-9.5 1.833 3.471 5.817 6.126 4 10"/><path fill="#13585d" d="M213 607c4.451.224 8.911.415 11 5l-3 1c-2.392-5.338-3.248-4.059-9-4l-1-2c.66-.005 1.342-.033 2 0"/><path fill="#67d6e3" d="M212 609c5.752-.059 6.608-1.338 9 4 1.145 2.555 1.243 4.24 1 7l-3.5-8c-7.781 1.52-13.31 4.666-21.5 6l-3-6c5.503-.556 13.226-2.951 18-3"/><path fill="#2088b0" d="M858 627c-1.422-1.003-1.339-4.216-3.5-5-1.994-.723-44.626-2.22-40.5-7.5.979-1.252 4.987.575 4.5-1.5l-15.5-3 58.5 4c.716.381-3.173 11.457-3.5 13"/><path fill="#116f99" d="M858 627c-.193.913.216 2.109 0 3l-58-9c-.486-3.943-.002-8.141 3-11l15.5 3c.487 2.075-3.521.248-4.5 1.5-4.126 5.28 38.506 6.777 40.5 7.5 2.161.784 2.078 3.997 3.5 5"/><path fill="#36a9c0" d="M197 618c-11.383 1.854-25.679.032-35 6-.347-1.654-4.181-9.039-2.5-10 6.191-1.265 14.42 1.417 20 1 4.322-.323 11.221-2.669 14.5-3z"/><path fill="#2398b0" d="M222 620c-.19 2.163-1.667 5.098-3 7l-.5-5c-16.037 2.532-36.341 1.439-52 5-2.86.65-.186 3.426-3.5 3-.466-1.53-.648-4.326-1-6 9.321-5.968 23.617-4.146 35-6 8.19-1.334 13.719-4.48 21.5-6z"/><path fill="#1a749c" d="m871 617-6 4.5c14.845 6.188 8.049 14.423-4 7.5.758-4.513 2.798-8.845 3-13.5 1.927-2.024 5.406 1.028 7 1.5"/><path fill="#50c1ce" d="M160 632h-1c-1.687-7.194-4.985-11.812-12-12 13.217-8.502 11.33 2.338 13 12"/><path fill="#094e71" d="M861 629c12.049 6.923 18.845-1.312 4-7.5l6-4.5c22.389 6.633 10.46 31.281-10.5 25-2.804-1.814-.032-9.832.5-13"/><path fill="#307c90" d="M147 620c7.015.188 10.313 4.806 12 12-8.297 3.545-12.26-9.067-20-3 .535-5.061 4.603-6.815 8-9"/><path fill="#084c6e" d="M858 630c-.836 3.453-.72 7.132-2 10.5-1.817 1.437-41.776-6.005-45.5-7.5-4.766-1.914-9.858-6.785-10.5-12z"/><path fill="#1c6371" d="M219 627c-8.554 12.207-40.298 12.12-54 13.5.49-3.778-.947-7.044-2-10.5 3.314.426.64-2.35 3.5-3 15.659-3.561 35.963-2.468 52-5z"/><path fill="#215e6f" d="M159 632h1c.099.574 4.223 6.951 3 9.5-2.051 4.278-25.384.592-24-12.5 7.74-6.067 11.703 6.545 20 3"/><path fill="#176e96" d="M866 652c-7.933-5.902-9.103.595-13.5 1-14.677 1.353-36.798 1.02-50-4l-2.5 6c-1.53-3.388-1.296-4.562 0-8 12.91-5.106 28.159.253 42-1.5l-38-2.5c1.384-1.077 1.737-3.272 5.5-4 9.345-1.808 54.212 1.771 56.5 13"/><path fill="#57c9de" d="M223 653h-7c7.749-11.362-16.522-11.719-23.5-10-.862.212-5.828 1.187-4 3l22-1c5.899 4.674-16.072 3.848-17.5 4-4.009.426-8.564 1.74-12.5 2-10.054.663-19.131-4.923-25.5 4 1.16-3.778 4.511-8.497 8.5-10 7.229-2.724 49.673-6.652 56-3 4.737 2.735 4.44 6.527 3.5 11"/><path fill="#2e9bb3" d="M216 653c-8.022 0-16.055 1.129-24 2 1.215-2.951 1.914-2.281 1-6 1.428-.152 23.399.674 17.5-4l-22 1c-1.828-1.813 3.138-2.788 4-3 6.978-1.719 31.249-1.362 23.5 10"/><path fill="#43a9ce" d="M800 647c.712-1.888 2.525-2.853 4-4l38 2.5c-13.841 1.753-29.09-3.606-42 1.5"/><path fill="#268195" d="M193 649c.914 3.719.215 3.049-1 6-3.724.409-19.602.504-20.5 1-.951.525-.308 1.71-.5 2-4.759-6.094-15.218-2.316-10 5-3.751-.633-3.14-3.799-7-2-.386-2.742.317-3.774 1-6 6.369-8.923 15.446-3.337 25.5-4 3.936-.26 8.491-1.574 12.5-2"/><path fill="#094969" d="M866 652c1.14 5.597-3.307 18.601-9.5 20-8.115 1.834-52.549-8.252-56.5-17l2.5-6c13.202 5.02 35.323 5.353 50 4 4.397-.405 5.567-6.902 13.5-1"/><path fill="#155a6a" d="M216 653h7c-.285 1.357-1.311 4.542-2 5.5-4.651 6.463-52.35 15.385-59.5 12.5-2.523-1.018-7.064-6.905-7.5-10 3.86-1.799 3.249 1.367 7 2 2.023.341 4.397 1.675 6.5 1 2.983-.957 3.048-5.316 3.5-6 .192-.29-.451-1.475.5-2 .898-.496 16.776-.591 20.5-1 7.945-.871 15.978-2 24-2"/><path fill="#84aebc" d="M171 658c-.452.684-.517 5.043-3.5 6-2.103.675-4.477-.659-6.5-1-5.218-7.316 5.241-11.094 10-5"/><path fill="#86bad1" d="M830 674c.977 7.127.143 8.808 0 15-.68 29.375 5.57 110.073-8 131.5-9.868 15.582-22.819 12.972-39.5 12.5-66.403-1.879-136.757-13.878-204.5-16-1.857-4.741 13.219-17.328 15.5-18 1.897-.559 7.859.054 10.5 0 1.594 3.068 10.784 4.391 14.5 5 37.117 6.086 79.147 6.845 117 10 14.164 1.18 48.501 8.921 60 4 30.754-13.161 19.273-112.08 22.5-141 .188-1.686 1.136-3.514.5-6z"/><path fill="#195b74" d="M845 674c-1.469 33.941-1.398 68.027-2 102h-11c1.097-26.131.886-56.294 0-82.5-.062-1.83 1.009-4.935-2-4.5.143-6.192.977-7.873 0-15-.02-.149.961-1.62 0-3 3.115.773 13.909 2.518 15 3"/><path fill="#b7d1df" d="M818 677c-3.227 28.92 8.254 127.839-22.5 141-11.499 4.921-45.836-2.82-60-4-37.853-3.155-79.883-3.914-117-10-3.716-.609-12.906-1.932-14.5-5 46.316-.949 102.185 3.258 148.5 8 15.908 1.629 34.643 12.666 45.5-4.5 13.82-21.852 8.266-98.996 16-128 .105-.393 1.398-1.716 1.5-2.5z"/><path fill="#186b7e" d="M191 673c4.701 4.494-.046 8.502 0 9-6.493.226-11.004-2.212-11.5 6l-1.5-13c4.117-.274 8.884-1.346 13-2"/><path fill="#0e4f6c" d="M194 673c1.301 4.576.745 9.321 1 14 1.428 26.218 9.62 115.894 25 133.5 21.812 24.97 93.016 6.055 124.5 3.5 77.289-6.273 155.903-9.43 233.5-7 67.743 2.122 138.097 14.121 204.5 16 16.681.472 29.632 3.082 39.5-12.5 13.57-21.427 7.32-102.125 8-131.5 3.009-.435 1.938 2.67 2 4.5.886 26.206 1.097 56.369 0 82.5-.593 14.129.067 28.445-6 41.5-9.57 20.592-22.369 18.063-42.5 17.5-93.887-2.624-186.57-17.44-283-17-80.18.366-154.087 12.886-232 17-65.503 3.459-61.993-34.242-69.5-88.5-2.938-21.234-4.083-42.656-6-64-.075-.83-1.99-.397-2-.5-.046-.498 4.701-4.506 0-9 .954-.152 2.056.174 3 0"/><path fill="#074d73" d="M849 706c1.593 51.788-5.049 104.963-1.5 157-3.514 3.814-86.404-11.681-99-13-4.553-.477-58.371-5.437-58.5-2.5 28.424 13.223 51.921 39.396 68 66 1.958 3.24 14.843 27.375 15 29 1.235 12.75-37.896 14.882-46 15.5h-51c-16.878-.895-33.313-2.522-50-5l2-1.5-3-1 2-1.5c8.782 1.338 22.736-.1 33 2 .258.053 1.632 5.405 3 0 4.015 1.914 3.199.475 8 1-.483.492.128 2.688 1.5 2 1.777-.891-.581-2.938-1.5-2 6.782.741 13.064.624 21.5 1 14.881.664 29.401 1.66 45.5-1 1.798-.297 2.692-.71 4-1 .101-.022-.36 1.647.5 2 2.082.494 1.38-1.963 1.5-2 19.265-5.902.757-1.808 5-13 4.253.037 5.843 10.146 9.5 11 12.183 2.847-.307-25.206-4.5-29-3.604-16.353-36.421-53.407-52-55l-1-4c3.4 2.036 7.646 2.988 10.5 6 .191-2.307-5.397-6.8-7-8-6.273-4.697-16.442-10.182-22.5-12-14.804-4.442-25.022-4.705-40-1l-38-5c-.66-.017-1.342.037-2 0-11.105-.621-38.812-3.13-47 1-.092.046-.253-2.14-2-.5 2.132 2.79 2.703 6.355 4 9.5l-8 3c-.985-3.12-1.561-11.246-4-13h-58c.179-1.145-.9-.914-1-1-1.673-1.446-8.193.084-10 1-.738.374-2.573 1.548-3 2 .157-2.85-1.317-2.757-3.5-3-6.417-.713-33.666 1.131-39.5 3-2.039.653-4.417-1.047-2 3-2.47-1.72-2.314-2.94-2.5-3-3.292-1.072-37.455.761-44 1-1.826.067-4.484-.889-2.5 2-1.001-.179-3.87-.487-4 1-2.173-.506-1.89-.979-2-1-16.586-3.22-24.883 1.357-39 3-34.343 3.997-68.509 7.808-102.5 14-8.304 1.513-19.682 9.179-28 3-4.342-3.225-11.104-51.456-12.5-60.5-5.693-36.885-9.245-74.36-13-111.5l1.5-5 2.5 2.5c5.301 55.787 12.763 112.406 25.5 166.5 44.563-11.343 92.059-16.899 138-21 92.362-8.245 191.38-10.361 284-5 71.725 4.151 142.84 13.26 213 28-1.533-27.983.005-56.033.5-84 .602-33.973.531-68.059 2-102 1.007.445 1.993 1.017 3 1.5-.84 10.187.69 20.414 1 30.5"/><path fill="#1f82a2" d="m178 675 1.5 13c.496-8.212 5.007-5.774 11.5-6 .01.103 1.925-.33 2 .5 1.917 21.344 3.062 42.766 6 64 7.507 54.258 3.997 91.959 69.5 88.5 77.913-4.114 151.82-16.634 232-17 96.43-.44 189.113 14.376 283 17 20.131.563 32.93 3.092 42.5-17.5 6.067-13.055 5.407-27.371 6-41.5h11c-.495 27.967-2.033 56.017-.5 84-70.16-14.74-141.275-23.849-213-28-92.62-5.361-191.638-3.245-284 5-45.941 4.101-93.437 9.657-138 21-12.737-54.094-20.199-110.713-25.5-166.5l-2.5-2.5-1.5 5c-.55-5.443-.113-14.757-4-18 .206-.007 1.849-.857 4-1"/><path fill="#daeaf2" d="M215.5 746c11.921 17.177 12.065 43.802 15 64-10.372-17.99-13.396-43.395-15-64"/><path fill="#1d4b5c" d="m486 840-9 44.5c-3.486 8.754-6.443 17.855-13.5 24.5-3.022.207-18.107-25.706-21.5-29.5-11.984-13.401-45.421-30.351-63-33.5-1.984-2.889.674-1.933 2.5-2 6.545-.239 40.708-2.072 44-1 .186.06.03 1.28 2.5 3 4.715 3.283 27.915 26.896 31.5 26l16.5-31c1.807-.916 8.327-2.446 10-1"/><path fill="#1f4254" d="M473 843c-2.202 2.33-13.987 26.632-15.5 27L430 843c5.834-1.869 33.083-3.713 39.5-3 2.183.243 3.657.15 3.5 3"/><path fill="#051c23" d="M486 840c.1.086 1.179-.145 1 1-.148 12.331-3.093 22.943-3 35.5.09 12.112 3.655 25.388 4 37.5l-1.5 2c-1.093-.737-.126-3.156-.5-3.5-1.75-1.61-1.899.481-2 .5-1.586.293-26.954 14.773-28 16-9.671-13.981-14.093-27.237-26-40-5.497-9.159-15.558-16.348-25-21-.277-1.479-2.334-2.036 1-2 11.68 6.543 20.149 12.439 29 23.5 9.511 11.885 13.562 24.949 21.5 37.5 3.995-4.582 27.263-13.669 28.5-18.5 1.64-6.406-6.065-22.16-2.5-30.5-2.372 6.532-12.384 35.729-21 34-2.373-.476-23.423-32.265-30-38-12.813-11.173-40.035-23.166-56.5-27 .13-1.487 2.999-1.179 4-1 17.579 3.149 51.016 20.099 63 33.5 3.393 3.794 18.478 29.707 21.5 29.5 7.057-6.645 10.014-15.746 13.5-24.5z"/><path fill="#021b27" d="M549 854c6.128 19.417 9.024 41.545 23.5 57 16.484-28.14 35.804-56.666 69.5-65 14.978-3.705 25.196-3.442 40 1v1c-1.75-.378-4.919.044-7 0 .337-2.271-8.453-2.958-9.5-3-43.295-1.725-70.922 35.602-92 68-9.46-5.574-12.99-16.433-19-25-13.422 24.04 6.157 27.287 24 35 13.435-27.015 28.922-50.804 56-66 2.338-1.312 13.329-7.434 15.5-4-2.182.746-4.047 2.146-6 3-30.731 13.44-51.007 38.427-63.5 69L551 912.5c.878 8.342-3.112 13.434 4.5 18.5 5.074 3.377 62.99 16.704 71.5 18l-2 1.5 3 1-2 1.5c-11.144-1.655-76.965-13.84-80-22.5-2.67-20.358 5.533-45.543 4-65-.537-6.819-6.465-16.589-5-24.5 2.439 1.754 3.015 9.88 4 13"/><path fill="#153e5a" d="m602 841-30.5 32-16.5-31c8.188-4.13 35.895-1.621 47-1"/><path fill="#02171e" d="M428 846c-2.417-4.047-.039-2.347 2-3l27.5 27c1.513-.368 13.298-24.67 15.5-27 .427-.452 2.262-1.626 3-2l-16.5 31c-3.585.896-26.785-22.717-31.5-26"/><path fill="#051e2c" d="m555 842 16.5 31 30.5-32c.658.037 1.34-.017 2 0l-32.5 35c-1.845.019-13.225-21.908-14.5-25-1.297-3.145-1.868-6.71-4-9.5 1.747-1.64 1.908.546 2 .5"/><path fill="#17455e" d="M642 846c-33.696 8.334-53.016 36.86-69.5 65-14.476-15.455-17.372-37.583-23.5-57l8-3c1.275 3.092 12.655 25.019 14.5 25l32.5-35z"/><path fill="#2b4c4f" d="m373 846-18 3c-1.514-.128-7.809-1.157-8.5-1-6.165 1.397-18.686 15.112-24.5 11 3.879-3.814 8.95-5.609 12-10 14.117-1.643 22.414-6.22 39-3"/><path fill="#106286" d="M675 848c-9.305-.195-16.496 2.091-25 5-2.171-3.434-13.162 2.688-15.5 4-27.078 15.196-42.565 38.985-56 66-17.843-7.713-37.422-10.96-24-35 6.01 8.567 9.54 19.426 19 25 21.078-32.398 48.705-69.725 92-68 1.047.042 9.837.729 9.5 3"/><path fill="#2c697b" d="M373 846c.11.021-.173.494 2 1 16.465 3.834 43.687 15.827 56.5 27 6.577 5.735 27.627 37.524 30 38 8.616 1.729 18.628-27.468 21-34-3.565 8.34 4.14 24.094 2.5 30.5-1.237 4.831-24.505 13.918-28.5 18.5-7.938-12.551-11.989-25.615-21.5-37.5-8.851-11.061-17.32-16.957-29-23.5-14.719-8.245-34.249-15.586-51-17z"/><path fill="#ddeff5" d="M701 861c-5.003-2.996-10.209-8.689-16-11-1.343-.536-1.8-1.741-3-2v-1c6.058 1.818 16.227 7.303 22.5 12 1.603 1.2 7.191 5.693 7 8-2.854-3.012-7.1-3.964-10.5-6"/><path fill="#565f62" d="M355 849c16.751 1.414 36.281 8.755 51 17-3.334-.036-1.277.521-1 2 .3 1.605 21.117 16.837 25 21 11.907 12.763 16.329 26.019 26 40-2.016 2.366-2.359 3.85-2 7-8.67-1.104-17.246-21.6-24-29.5-6.427-7.518-15.734-15.069-24-20.5-.508-.334-1.477-.674-2-1-18.645-11.618-41.681-19.721-64-20-9.304-.116-17.057.953-25 6-1.018-4.741 2.883-7.596 6-11 .371-.405.641-.647 1-1 5.814 4.112 18.335-9.603 24.5-11 .691-.157 6.986.872 8.5 1m27.5 9c.647 2.261 16.178 8.356 16.5 7.5l-7.5-4.5z"/><path fill="#2c87a2" d="M675 848c2.081.044 5.25-.378 7 0 1.2.259 1.657 1.464 3 2-13.828.704-27.463 8.552-41 6 1.953-.854 3.818-2.254 6-3 8.504-2.909 15.695-5.195 25-5"/><path fill="#4b758a" d="m701 861 1 4c-34.503-3.528-101.408 21.839-47.5 56 28.662 18.163 65.186 15.97 96.5 8-15.236 9.036-58.493 10.769-76.5 10-19.496-.832-38.949-6.158-58.5-6.5 33.432 7.697 73.152 13.674 107.5 10.5 7.347-.679 19.029-5.057 25.5-5-4.243 11.192 14.265 7.098-5 13h-2c-1.308.29-2.202.703-4 1-.089-1.732-5.003-1.103-5-.5 1.322 1.004 3.378.323 5 .5-16.099 2.66-30.619 1.664-45.5 1-8.436-.376-14.718-.259-21.5-1-4.801-.525-3.985.914-8-1-.695-.331-2.202-2.638-3 0-10.264-2.1-24.218-.662-33-2-8.51-1.296-66.426-14.623-71.5-18-7.612-5.066-3.622-10.158-4.5-18.5l29.5 12.5c12.493-30.573 32.769-55.56 63.5-69 13.537 2.552 27.172-5.296 41-6 5.791 2.311 10.997 8.004 16 11"/><path fill="#8d989d" d="m382.5 858 9 3 7.5 4.5c-.322.856-15.853-5.239-16.5-7.5"/><path fill="#456467" d="M321 860c-3.117 3.404-7.018 6.259-6 11-13.781 8.756-30.701 37.351-38 52-.334.671-.678 1.321-1 2-.799 1.686-1.942 1.871-2 2-.645 1.446-5.724 12.672-6 14.5-.95 6.302 5.654 4.787 2 9.5-3.135-1.586-6.632-2.671-9-5.5 13.929-31.887 32.09-63.852 60-85.5"/><path fill="#6898ae" d="M754 920c1.165 5.286.161 7.125-3 9-31.314 7.97-67.838 10.163-96.5-8-53.908-34.161 12.997-59.528 47.5-56 15.579 1.593 48.396 38.647 52 55m-68.5-40c-7.511.866-17.457 6.076-18.5 14.5-2.996 24.204 51.657 34.261 68 26-6.384-19.593-27.51-43.035-49.5-40.5"/><path fill="#fbfbfc" d="M340 865c.326 3.799-5.243 1.223-6.5 2-.769.476-.445 4.397-1.5 5.5-4.737 4.953-10.016 9.79-15 14.5-12.651 11.956-26.839 21.302-35 38-.857-.441-3.534.022-5-2 7.299-14.649 24.219-43.244 38-52 7.943-5.047 15.696-6.116 25-6"/><path fill="#ced5db" d="M404 885c-17.03 28.687-63.187 44.059-95 41-1.462-.141-9.083-.766-9.5-1-9.521-5.343 18.211-32.101 19-34 .496-1.193-2.591-1.196-1.5-4 4.984-4.71 10.263-9.547 15-14.5 1.055-1.103.731-5.024 1.5-5.5 1.257-.777 6.826 1.799 6.5-2 22.319.279 45.355 8.382 64 20"/><path fill="#87999d" d="M430 889c-3.883-4.163-24.7-19.395-25-21 9.442 4.652 19.503 11.841 25 21"/><path fill="#bad6e6" d="M685.5 880c21.99-2.535 43.116 20.907 49.5 40.5-16.343 8.261-70.996-1.796-68-26 1.043-8.424 10.989-13.634 18.5-14.5"/><path fill="#aeb4bb" d="M406 886c-1.397 2.146-1.361 2.324 0 4.5 3.348 5.352 12.539 13.483 17 19.5-39.931 16.024-73 28.436-117 22 3.594-1.69 3.242-1.848 3-6 31.813 3.059 77.97-12.313 95-41 .523.326 1.492.666 2 1"/><path fill="#87919a" d="M454 936c.328.042.672-.041 1 0-.126 3.037-14.795 5.454-15.5 5-1.795-1.155 1.161-3.901.5-5.5-2.82-6.824-12.307-19.17-17-25.5-4.461-6.017-13.652-14.148-17-19.5-1.361-2.176-1.397-2.354 0-4.5 8.266 5.431 17.573 12.982 24 20.5 6.754 7.9 15.33 28.396 24 29.5"/><path fill="#cacfd4" d="M309 926c.242 4.152.594 4.31-3 6-10.312-1.508-15.062-2.4-24-7 8.161-16.698 22.349-26.044 35-38-1.091 2.804 1.996 2.807 1.5 4-.789 1.899-28.521 28.657-19 34 .417.234 8.038.859 9.5 1"/><path fill="#8f989e" d="M455 936c.812.102 8.327.095 9 0-34.042 9.769-72.016 16.568-107.5 18-22.678.915-57.81.951-78.5-6l6-11c40.5 12.793 91.996 6.203 133-1.5l-3.5-2.5c-43.81 6.719-97.332 13.991-137.5-8 .322-.679.666-1.329 1-2 1.466 2.022 4.143 1.559 5 2 8.938 4.6 13.688 5.492 24 7 44 6.436 77.069-5.976 117-22 4.693 6.33 14.18 18.676 17 25.5.661 1.599-2.295 4.345-.5 5.5.705.454 15.374-1.963 15.5-5"/><path fill="#133a46" d="M488 914c.156 5.48-.113 11.007 0 16.5-2.269 7.18-57.073 19.835-66.5 21.5-33.413 5.902-122.773 13.532-151.5-1 3.654-4.713-2.95-3.198-2-9.5.276-1.828 5.355-13.054 6-14.5-1.15 1.531.075 5.71 0 6-1.629 6.271-8.884 11.164 1.5 16 1.149.535 1.734-1.257 2.5-1 20.69 6.951 55.822 6.915 78.5 6 35.484-1.432 73.458-8.231 107.5-18 4.108-.578 19.752-5.767 21-9.5 1.493-4.465-2.069-9.095-1-13.5.101-.019.25-2.11 2-.5.374.344-.593 2.763.5 3.5z"/><path fill="#66737b" d="M464 936c-.673.095-8.188.102-9 0-.328-.041-.672.042-1 0-.359-3.15-.016-4.634 2-7 1.046-1.227 26.414-15.707 28-16-1.069 4.405 2.493 9.035 1 13.5-1.248 3.733-16.892 8.922-21 9.5"/><path fill="#b6d5e5" d="M749 938c-6.471-.057-18.153 4.321-25.5 5-34.348 3.174-74.068-2.803-107.5-10.5 19.551.342 39.004 5.668 58.5 6.5 18.007.769 61.264-.964 76.5-10 3.161-1.875 4.165-3.714 3-9 4.193 3.794 16.683 31.847 4.5 29-3.657-.854-5.247-10.963-9.5-11"/><path fill="#fcfdfd" d="M284 937c-3.11-.982-6.619-3.456-10-4 .075-.29-1.15-4.469 0-6 .058-.129 1.201-.314 2-2 40.168 21.991 93.69 14.719 137.5 8l3.5 2.5c-41.004 7.703-92.5 14.293-133 1.5"/><path fill="#e0e6ea" d="m284 937-6 11c-.766-.257-1.351 1.535-2.5 1-10.384-4.836-3.129-9.729-1.5-16 3.381.544 6.89 3.018 10 4"/><path fill="#30647d" d="M663 951c-1.368 5.405-2.742.053-3 0 .798-2.638 2.305-.331 3 0"/><path fill="#074d73" d="M738 952c-1.622-.177-3.678.504-5-.5-.003-.603 4.911-1.232 5 .5"/><path fill="#49768b" d="M744 951c-.12.037.582 2.494-1.5 2-.86-.353-.399-2.022-.5-2z"/><path fill="#426c7f" d="M671 952c.919-.938 3.277 1.109 1.5 2-1.372.688-1.983-1.508-1.5-2"/><path fill="#001e31" d="M727 958c-17.52 1.336-33.565.925-51 0z"/></svg>