<svg xmlns="http://www.w3.org/2000/svg" width="1024" height="1024"><defs><linearGradient id="a" x1="676.531" x2="491.531" y1="251.295" y2="251.684" gradientUnits="userSpaceOnUse"><stop offset="0%" style="stop-color:#a4b4bf"/><stop offset="100%" style="stop-color:#edeeef"/></linearGradient></defs><defs><linearGradient id="b" x1="531.227" x2="757.424" y1="239.956" y2="379.923" gradientUnits="userSpaceOnUse"><stop offset="0%" style="stop-color:#7c898e"/><stop offset="100%" style="stop-color:#537378"/></linearGradient></defs><defs><linearGradient id="c" x1="405.832" x2="654.822" y1="351.926" y2="354.179" gradientUnits="userSpaceOnUse"><stop offset="29.317%" style="stop-color:#67e4ff"/><stop offset="100%" style="stop-color:#2597b0"/></linearGradient></defs><defs><linearGradient id="d" x1="503.638" x2="535.183" y1="316.44" y2="382.273" gradientUnits="userSpaceOnUse"><stop offset="0%" style="stop-color:#202145"/><stop offset="100%" style="stop-color:#153c72"/></linearGradient></defs><defs><linearGradient id="e" x1="296.796" x2="284.697" y1="314.737" y2="379.619" gradientUnits="userSpaceOnUse"><stop offset="0%" style="stop-color:#32b8d9"/><stop offset="100%" style="stop-color:#2390b1"/></linearGradient></defs><defs><linearGradient id="f" x1="402.125" x2="625.377" y1="449.813" y2="862.268" gradientUnits="userSpaceOnUse"><stop offset="25.16%" style="stop-color:#cbeaf2"/><stop offset="100%" style="stop-color:#6d9aa2"/></linearGradient></defs><defs><linearGradient id="g" x1="796.115" x2="644.172" y1="869.4" y2="873.564" gradientUnits="userSpaceOnUse"><stop offset="0%" style="stop-color:#31a1b1"/><stop offset="100%" style="stop-color:#025f75"/></linearGradient></defs><path fill="#122b41" d="M774 396c-.339-14.19.3-28.359-2-42.5-.271-1.665-7.831-35.423-11-24l11 71.5c-2.244 10.673.937 19.269-10.5 25-2.4 1.202-10.549 2.013-12 3-4.001 2.722-1.043 10.654-8 17-7.39 6.741-24.8 9.348-29.5 18-3.721-2.171-40.017 12.79-47.5 15-12.085 3.569-24.292 6.882-36.5 10 26.311-11.085 55.332-16.584 81.5-28 9.882-4.311 34.456-14.773 35.5-25.5 1.447-14.869-4.569-57.838-7-74.5-6.832-46.821-19.227-80.455-48-118-26.44-34.501-61.232-60.518-103-74-14.672-4.736-29.676-8.154-45-10-5.452-.657-11.559-1.802-17-2-154.901-5.64-243.986 142.979-232 284.5l4 4c-11.169.006-4.544-14.352-8.5-17.5-.732-.582-9.736-1.03-12-2-8.276-3.547-11.583-18.688-12.5-27-.822-7.454.515-16.546 1-24 .791-12.168 2.385-24.417 4-36.5.471-3.521 4.189-8.273 1.5-11.5-3.596-.684-5.215 10.453-5.5 13h-2c.883-3.426 1.843-10.914 4-13.5 3.784-4.537 9.851-1.938 11-4 1.497-2.686.869-11.668 5-14.5-.805 1.388-9.47 27.947-10 30.5-2.498 12.046-3.696 34.758-4 47.5-.042 1.772 2.285 10.048 2 10.5-.893 1.42-3.105-.945-4 2-1.83 6.02 2.727 1.343 3 1.5-3.011 3.58.742 20.781 4.5 23 .968.572 12.018 2.588 13 2 2.209-4.836.982-10.026 1.5-15 .527-5.066.47-10.055 1-15 3.475-32.441 8.845-65.089 21-95.5-1.727-4.746-20.103 4.73-24 4.5 6.861-5.231 23.787-7.039 26-9.5 2.408-2.678 11.268-24.182 15-30 9.337-14.557 20.1-28.429 32-41 .68-2.67-7.375-42.502-9-45-3.303-5.076-19.183-6.708-25-21-25.454-62.538 83.694-65.708 64-3-3.705 11.797-18.724 19.58-19 21-.263 1.354 10.536 21.413 10.5 25.5 79.822-62.88 198.212-60.83 276 4 1.799.003 11.851-27.956 11.5-29.5-.173-.762-9.902-7.241-12-10-12.167-16.003-9.601-41.967 8.5-52.5 35.648-20.743 70.885 23.77 45.5 53.5-4.073 4.77-18.33 10.939-19 12-1.335 2.114-10.553 46.561-10 49 .403 1.775 18.871 23.841 22 29 4.584 7.558 17.008 36.729 20 40 3.584 3.917 20.051 5.385 25.5 9.5 6.818 5.149 5.54 13.285 8.5 17.5 1.663 2.367 7.544 3.367 9 5 8.297 9.308 8.775 54.96 7 67.5M327 135c-3.877 14.782 1.008 28.721 15 36 16.913 8.799 36.412 3.552 43-15 16.938-47.701-47.555-60.825-58-21m329-3c-11.395 14.425 1.353 35.322 17 40 28.568 8.541 51.54-11.722 41-40-11.242-30.161-54.741-24.68-58 0m-294 45c-.776.023-8.912.906-9 1.5 3.993 5.071 7.327 40.187 10.5 40.5 3.101-2.76 5.717-5.958 8.5-9 2.307-2.522 6.967-2.729 7-7.5.01-1.412-9.826-25.216-11-26-2.289-1.53-3.917.437-6 .5m310.5 0c-1.474.763-11.003 29.918-10.5 31.5.364 1.146 15.974 13.316 17.5 16.5l9.5-46.5c-2.81.502-15.372-2.084-16.5-1.5M744 397c.584 5.723 1.325 11.317 2 17 .166 1.394-1.199 10.788.5 12 21.85 4.189 24.785-21.73 22.5-37.5-.164-1.131-2.965-10.491-6-9.5-.481-13.592-4.361-56.896-11-67.5-4.849-7.745-17.446-8.57-25.5-11.5 10.436 31.712 14.123 63.901 17.5 97m14.5-70c-1.369.282 1.609 8.893 2 10 1.962-.307-1.419-10.12-2-10m3 11c-1.277.072-.068 5.22.5 1.5.174-.624-.012-1.527-.5-1.5"/><path fill="#9cd7e0" d="M385 156c-12.439 13.616-19.124 16.125-37 15l2-2c35.962 11.378 52.475-49.766 11.5-55 17.19 23.864-12.106 48.6-31.5 25-.474-1.777.555-4.21-3-4 10.445-39.825 74.938-26.701 58 21"/><path fill="#9dd7e0" d="M714 132c3.833 14.998-1.983 27.791-14.5 36l11.5-15.5c3.514-8.596 1.698-19.229-3-27-1.148-1.899-14.235-15.023-14-9 15.657 21.196-9.585 44.812-31.5 31.5-1.822-1.107-2.583-6.699-5.5-5-.678-3.792-1.523-7.038-1-11 3.259-24.68 46.758-30.161 58 0"/><path fill="#339dae" d="M350 169c-11.479-3.632-17.243-19.668-20-30 19.394 23.6 48.69-1.136 31.5-25 40.975 5.234 24.462 66.378-11.5 55"/><path fill="#339daf" d="M714 132c10.54 28.278-12.432 48.541-41 40l5-1.5c-11.373-5.943-18.694-14.604-21-27.5 2.917-1.699 3.678 3.893 5.5 5 21.915 13.312 47.157-10.304 31.5-31.5-.235-6.023 12.852 7.101 14 9 4.698 7.771 6.514 18.404 3 27L699.5 168c12.517-8.209 18.333-21.002 14.5-36"/><path fill="#b7e3e9" d="M656 132c-.523 3.962.322 7.208 1 11 2.306 12.896 9.627 21.557 21 27.5l-5 1.5c-15.647-4.678-28.395-25.575-17-40"/><path fill="#b1e1e7" d="M330 139c2.757 10.332 8.521 26.368 20 30l-2 2c-2.099-.132-3.611-.758-6 0-13.992-7.279-18.877-21.218-15-36 3.555-.21 2.526 2.223 3 4"/><path fill="#0d8fab" d="M342 171c2.389-.758 3.901-.132 6 0 17.876 1.125 24.561-1.384 37-15-6.588 18.552-26.087 23.799-43 15"/><path fill="#97adb7" d="M542 159c-30.732 9.301-63.622 17.507-76 51-.722.112-.426.567-3 1-36.502 6.141-66.911 9.649-97 36 30.048-38.915 68.906-68.046 116.5-82l42.5-8c5.441.198 11.548 1.343 17 2"/><path fill="url(#a)" d="m587 169-1 3c-12.125-4.614-24.589-9.536-38-9.5l16 35c57.905 13.311 110.587 66.739 127 123.5-6.192.425-12.068 5.594-16 10-3.78 4.235-4.89 7.647-8 12-5.317-64.62-50.8-122.65-116-135-5.32-1.518-11.543-3.367-17-4-26.039-3.02-43.323 2.188-68 6 12.378-33.493 45.268-41.699 76-51 15.324 1.846 30.328 5.264 45 10" style="fill:url(#a)"/>/&gt;<path fill="url(#b)" d="M586 172c36.636 13.941 76.779 45.37 100 77 14.663 19.973 33.592 55.872 40 79.5.066.243-2.651 1.527-2 4 3.566 13.543 8.326 22.247 10 37.5 2.561 23.331.513 47.128 0 70.5L708.5 454c-1.662-33.083-14.476-59.566-40.5-80 .218-4.478-.487-18.513-1-26l4 .5c-1.596 29.53 41.874 39.272 47 5.5 8.328-.509 1.872-17.471-1-21.5-4.534-6.36-18.65-12.004-26-11.5-16.413-56.761-69.095-110.189-127-123.5l-16-35c13.411-.036 25.875 4.886 38 9.5" style="fill:url(#b)"/>/&gt;<path fill="#8f9fa5" d="m690 243-4 6c-23.221-31.63-63.364-63.059-100-77l1-3c41.768 13.482 76.56 39.499 103 74"/><path fill="#197b9f" d="m372 210-10-33c2.083-.063 3.711-2.03 6-.5 1.174.784 11.01 24.588 11 26-.033 4.771-4.693 4.978-7 7.5"/><path fill="#149dc2" d="m362 177 10 33c-2.783 3.042-5.399 6.24-8.5 9-3.173-.313-6.507-35.429-10.5-40.5.088-.594 8.224-1.477 9-1.5"/><path fill="#1599bc" d="M672.5 177c1.128-.584 13.69 2.002 16.5 1.5l-9.5 46.5c-1.526-3.184-17.136-15.354-17.5-16.5-.503-1.582 9.026-30.737 10.5-31.5"/><path fill="#8a8b95" d="m534 204-2 2c-86.321-6.128-163.306 57.396-163 146-.709 1.69-2.026 8.778-2 10-.908-10.568.217-20.125 1-30.5.051-.679-2.012-1.376-2-1.5 3.309-33.907 34.914-76.706 61.5-97 11.154-8.514 23.748-14.502 35.5-22 2.574-.433 2.278-.888 3-1 24.677-3.812 41.961-9.02 68-6"/><path fill="#536977" d="M551 208c-.623-.118-1.372.109-2 0-.95-.164-2.042.144-3 0-4.912-.74-8.864-1.635-14-2l2-2c5.457.633 11.68 2.482 17 4"/><path fill="#a4f5fe" d="M532 206c5.136.365 9.088 1.26 14 2-5.167 6.26-13.809 1.134-21.5 1-6.449-.112-57.108 1.975-56.5 9.5l6.5 8.5c-27.007 14.783-56.301 31.318-72.5 58.5-25.171 42.237-24.27 95.799 6 135l-25-3.5c-9.891-20.611-13.921-42.071-14-65-.306-88.604 76.679-152.128 163-146"/><path fill="url(#c)" d="M549 208c57.755 13.972 107.927 65.641 115 125.5C677.878 450.946 563.722 526.319 457 486c-31.016-11.718-59.631-39.057-74-69l25 3.5c-30.27-39.201-31.171-92.763-6-135 16.199-27.182 45.493-43.717 72.5-58.5l-6.5-8.5c-.608-7.525 50.051-9.612 56.5-9.5 7.691.134 16.333 5.26 21.5-1 .958.144 2.05-.164 3 0m-73 258-1.5 3c62.342 24.663 134.065-8.847 159.5-70.5 23.866-57.848-5.283-134.142-66-153.5-153.304-67.594-247.025 167.601-92 221" style="fill:url(#c)"/>/&gt;<path fill="#192f47" d="M551 208c65.2 12.35 110.683 70.38 116 135 .135 1.64-.113 3.356 0 5 .513 7.487 1.218 21.522 1 26-.032.659.038 1.342 0 2-1.856-2.064-2.817 1.685-3 2.5-14.509 64.621-50.294 106.999-119 117.5-32.279 4.934-59.541 1.972-90-9l1-1c106.722 40.319 220.878-35.054 207-152.5-7.073-59.859-57.245-111.528-115-125.5.628.109 1.377-.118 2 0"/><path fill="#e2e3e4" d="M463 211c-11.752 7.498-24.346 13.486-35.5 22-26.586 20.294-58.191 63.093-61.5 97l-18.5-10h-14l4.5 6c-7.517.815-16.385 7.9-19 15-12.647 34.342 33.279 49.779 44 21 5.554 14.457 5.403 31.417 10 46.5 8.493 27.868 34.32 62.291 60 76.5-29.382-8.728-59.836-16.12-88.5-27-8.07-3.063-37.818-14.08-40.5-20.5-6.765-16.195-.654-74.22 3-93 5.713-29.36 14.791-48.979 31-73.5 2.796-1.16 3.304 2.048 3.5 2 .19-.047 1.623-2.057 2.5-3 1.141 4.998 3.157.577 5-1.5 5.905-6.656 9.873-15.258 17-21.5 30.089-26.351 60.498-29.859 97-36m-135.5 93-5.5 13.5c15.398 7.123 8.461-4.589 5.5-13.5"/><path fill="#eeeff0" d="M344 270c-.877.943-2.31 2.953-2.5 3-.196.048-.704-3.16-3.5-2 3.359-5.081 29.839-41.989 32.5-42 .321-.001 1.831 2.053 2.5 2.5-10.983 10.245-19.368 28.151-29 38.5"/><path fill="#061734" d="M568 245c138.829 61.212 56.383 272.112-92 221-155.025-53.399-61.304-288.594 92-221M416 412c.395.501.683 1.437 2 3 14.939 21.369 33.473 39.237 59 47 2.031.618 3.504 1.552 6 1 4.735 2.433 5.798 2.767 11 4 24.451 5.796 50.447.785 73-9 3.052-1.324 6.053-2.387 9-4 11.054-6.051 23.88-15.557 31-26 31.553-31.749 35.692-79.909 18-120-29.893-67.738-116.238-92.912-176.5-48-19.108 14.241-26.344 27.565-37.5 47.5-1.493 2.667-3.121-.571-4 1-16.248 29.053-10.805 78.42 9 103.5"/><path fill="#0f3c77" d="M625 308c-5.131-.073-27.639 8.899-30.5 8-1.565-.492-15.245-21.444-20-26-3.525-3.377-23.12-18.69-27-18-.492.088-4.93 5.025-8 6-10.057 3.192-26.989 4.613-32.5 14-4.735-4.626-6.949-7.525-13-11-46.477-26.689-91.806 26.657-64 67-5.831-3.134-12.351 7.103-20 7.5-3.13 5.998 7.053 30.419 7 36-.026 2.735-4.045 2.542-4 5 .032 1.748 4.546 9.574 6 11.5-.488.355-2.426 3.151-3 4-19.805-25.08-25.248-74.447-9-103.5.879-1.571 2.507 1.667 4-1 11.156-19.935 18.392-33.259 37.5-47.5 60.262-44.912 146.607-19.738 176.5 48"/><path fill="#7c939a" d="M738 361c-2.69 2.713 1.382 8.997-4 9-1.674-15.253-6.434-23.957-10-37.5-.651-2.473 2.066-3.757 2-4-6.408-23.628-25.337-59.527-40-79.5l4-6c28.773 37.545 41.168 71.179 48 118"/><path fill="#4ee6fa" d="M476 466c148.383 51.112 230.829-159.788 92-221 60.717 19.358 89.866 95.652 66 153.5-25.435 61.653-97.158 95.163-159.5 70.5z"/><path fill="#0478ac" d="M625 308c17.692 40.091 13.553 88.251-18 120-7.319 7.365-18.832 15.02-27.5 21-1.98 1.366-4.199 1.723-3.5 5-2.947 1.613-5.948 2.676-9 4l-33.5 9H494c-5.202-1.233-6.265-1.567-11-4-.983-.505-.972-4.987-6-1-25.527-7.763-44.061-25.631-59-47 6.35 7.539 14.112 14.439 21 21.5L421.5 406c-.62.965-1.639 1.375-2.5 2-1.454-1.926-5.968-9.752-6-11.5-.045-2.458 3.974-2.265 4-5 .053-5.581-10.13-30.002-7-36 7.649-.397 14.169-10.634 20-7.5 2.572 3.732 10.763 9.645 15 12 5.193 2.887 9.97 5.388 16 6 1.636 13.867 15.922 36.073 28 43 2.974 2.507 1.143 8.409 2 10.5 2.736 6.671 13.37 9.544 20 10.5-3.37 10.386 5.645 6.583 8.5 8 1.069.531.195 3.355.5 3.5 6.148 2.924 29.294-3.41 36.5-6.5 9.933-4.259 41.287-26.223 26.5-37 6.799-11.932 8.898-31.998-1-42 2.889-7.1-1.18-10.116 8-8.5l-3-6c-14.469 11.485-10.09 1.351-14-9-9.927-26.28-18.773-35.472-47.5-38.5-1.639-.173-5.019-.819-4.5 2-3.692-.347-8.539 2.179-9.5 2-2.026-.376-3.308-4.835-4.5-6 5.511-9.387 22.443-10.808 32.5-14 3.07-.975 7.508-5.912 8-6 3.88-.69 23.475 14.623 27 18 4.755 4.556 18.435 25.508 20 26 2.861.899 25.369-8.073 30.5-8"/><path fill="#d8f8fc" d="M494 281c31.592 23.99 21.794 75.598-18 84-.306-2.365-1.078-3.587-3.5-4-7.526-1.283-19.199.381-27.5-1-4.237-2.355-12.428-8.268-15-12-27.806-40.343 17.523-93.689 64-67"/><path fill="url(#d)" d="M507 292c1.192 1.165 2.474 5.624 4.5 6 .961.179 5.808-2.347 9.5-2 34.891 3.275 57.881 37.379 55 71-4.076 9.194-4.773 16.951-12 25.5-16.012 18.941-52.948 29.146-75 16.5-12.078-6.927-26.364-29.133-28-43 4.84.492 10.242.004 15-1 39.794-8.402 49.592-60.01 18-84 6.051 3.475 8.265 6.374 13 11" style="fill:url(#d)"/>/&gt;<path fill="#0797d0" d="M582 356c-1.54 3.785-4.611 7.868-6 11 2.881-33.621-20.109-67.725-55-71-.519-2.819 2.861-2.173 4.5-2 28.727 3.028 37.573 12.22 47.5 38.5 3.91 10.351-.469 20.485 14 9l3 6c-9.18-1.616-5.111 1.4-8 8.5"/><path fill="url(#e)" d="M290 395c-3.782.767-8.275 4.635-12.5 3-4.657-1.802-1.927-13.467-8.5-12 .304-12.742 1.502-35.454 4-47.5.53-2.553 9.195-29.112 10-30.5 1.114-1.921 2.305-2.707 4-4 3.897.23 22.273-9.246 24-4.5-12.155 30.411-17.525 63.059-21 95.5" style="fill:url(#e)"/>/&gt;<path fill="#32a0bd" d="M763 379c.175 4.945.232 8.042 0 13-5.81 7.618-10.551 9.457-19 5-3.377-33.099-7.064-65.288-17.5-97 8.054 2.93 20.651 3.755 25.5 11.5 6.639 10.604 10.519 53.908 11 67.5"/><path fill="#fbfafa" d="M327.5 304c2.961 8.911 9.898 20.623-5.5 13.5z"/><path fill="#a0acae" d="M366 330c-.012.124 2.051.821 2 1.5-.783 10.375-1.908 19.932-1 30.5 1.217 58.304 35.042 105.564 89 125 30.459 10.972 57.721 13.934 90 9 5.419 8.41-1.863 4.058-3 9-.964.046-2.031-.376-2 1-12.423-.33-27.832 3.634-43 4 .573-3.128-4.348-1.921-7-2 .507-2.335-.565-3.236-2.5-4-8.298-3.278-18.844-3.715-27.5-5 2.388-7.029-1.365-2.468-2.5-3-8.227-3.858-17.688-6.678-25.5-11-25.68-14.209-51.507-48.632-60-76.5-4.597-15.083-4.446-32.043-10-46.5 2.875-7.716 2.327-13.202 0-21-3.571-11.967-12.213-16.387-25-15l-4.5-6h14z"/><path fill="#536669" d="M718 354c.615-4.051.946-3.871-1-8-.063-.133-.929.134-1 0-.159-19.757-32.049-24.545-41-7h-1c.016-.159-2.437 1.089-2-2.5.038-.311 4.571-4.373 3-5.5 3.932-4.406 9.808-9.575 16-10 7.35-.504 21.466 5.14 26 11.5 2.872 4.029 9.328 20.991 1 21.5"/><path fill="#285c81" d="M363 341v2c-3.645-20.77-35.78-19.027-43-2h-1c2.615-7.1 11.483-14.185 19-15 12.787-1.387 21.429 3.033 25 15"/><path fill="#97d6e7" d="M265 375c-2.841.506-2.146-2.824-2-4.5.863-9.943.956-21.175 2-30.5.285-2.547 1.904-13.684 5.5-13 2.689 3.227-1.029 7.979-1.5 11.5-1.615 12.083-3.209 24.332-4 36.5"/><path fill="#3b8ba9" d="M758.5 327c.581-.12 3.962 9.693 2 10-.391-1.107-3.369-9.718-2-10"/><path fill="#2eccf2" d="M363 343c0 17.212-7.173 34.064-28 29 9.264-6.293 32.006-15.202 22-30.5-1.209-1.848-9.698-6.102-12-6.5-3.387-.585-8.631-.124-12 1-6.951 2.319-7.21 11.129-14 9 .126-.65.92-3.81 1-4 7.22-17.027 39.355-18.77 43 2"/><path fill="#31afd3" d="M716 346c-.033-.062-.299.05-1-1-4.216-6.311-6.659-10.132-15-12-13.183-2.952-14.382 2.711-25 6 8.951-17.545 40.841-12.757 41 7"/><path fill="#8dd4e5" d="M774 396c-.29 2.049-1.819 4.141-2 5l-11-71.5c3.169-11.423 10.729 22.335 11 24 2.3 14.141 1.661 28.31 2 42.5"/><path fill="#1c3448" d="M674 339c-.927 9.319-3.563 12.7 1 22 2.937 5.985 6.961 9.984 14 9 16.162 7.863 29.996-8.102 28-24 1.946 4.129 1.615 3.949 1 8-5.126 33.772-48.596 24.03-47-5.5l-4-.5c-.113-1.644.135-3.36 0-5 3.11-4.353 4.22-7.765 8-12 1.571 1.127-2.962 5.189-3 5.5-.437 3.589 2.016 2.341 2 2.5"/><path fill="#1187a9" d="m700 333-1 3c-14.521-3.682-16.095 13.972-6.5 13 3.496-.354 10.981-10.6 14.5-5-5.014 10.446-21.795 14.831-32 17-4.563-9.3-1.927-12.681-1-22h1c10.618-3.289 11.817-8.952 25-6"/><path fill="#035370" d="M715 345c-5.415-.032-.792 7.483-3 12.5-2.025 4.601-18.04 11.807-23 12.5-7.039.984-11.063-3.015-14-9 10.205-2.169 26.986-6.554 32-17 .054-.113 1.694-.662 2-1.5-2.701-2.334-6.523-5.618-10-6.5l1-3c8.341 1.868 10.784 5.689 15 12"/><path fill="#1885a7" d="M345 335c-5.368 7.752 2.592 9.922 3 10.5.583.826-8.31 10.384-10 11.5-1.82-7.039-7.442-13.585-5-21 3.369-1.124 8.613-1.585 12-1"/><path fill="#075c78" d="M335 372c-6.695-1.628-11.281-6.662-14-13 8.804.059 8.269 3.767 17-2 1.69-1.116 10.583-10.674 10-11.5-.408-.578-8.368-2.748-3-10.5 2.302.398 10.791 4.652 12 6.5 10.006 15.298-12.736 24.207-22 30.5"/><path fill="#0c4765" d="M699 336c3.477.882 7.299 4.166 10 6.5-.306.838-1.946 1.387-2 1.5-3.519-5.6-11.004 4.646-14.5 5-9.595.972-8.021-16.682 6.5-13"/><path fill="#1a96bc" d="M338 357c-8.731 5.767-8.196 2.059-17 2-2.358-5.497-3.176-7.915-2-14 6.79 2.129 7.049-6.681 14-9-2.442 7.415 3.18 13.961 5 21"/><path fill="#387895" d="M761.5 338c.488-.027.674.876.5 1.5-.568 3.72-1.777-1.428-.5-1.5"/><path fill="#478cab" d="M265 340c-1.044 9.325-1.137 20.557-2 30.5-.146 1.676-.841 5.006 2 4.5-.485 7.454-1.822 16.546-1 24-1.578.096-.768-1.677-1-2l-3-7c-3.494-14.467-.729-35.522 3-50z"/><path fill="#0f2b46" d="M319 345c-1.176 6.085-.358 8.503 2 14 2.719 6.338 7.305 11.372 14 13 20.827 5.064 28-11.788 28-29v-2c2.327 7.798 2.875 13.284 0 21-10.721 28.779-56.647 13.342-44-21h1c-.08.19-.874 3.35-1 4"/><path fill="#0b718f" d="M715 345c.701 1.05.967.938 1 1 .071.134.937-.133 1 0 1.996 15.898-11.838 31.863-28 24 4.96-.693 20.975-7.899 23-12.5 2.208-5.017-2.415-12.532 3-12.5"/><path fill="#0f496f" d="M383 417c14.369 29.943 42.984 57.282 74 69l-1 1c-53.958-19.436-87.783-66.696-89-125-.026-1.222 1.291-8.31 2-10 .079 22.929 4.109 44.389 14 65"/><path fill="#40cafd" d="M583 398c-12.756 22.388-47.343 35.554-72 32-6.63-.956-17.264-3.829-20-10.5-.857-2.091.974-7.993-2-10.5 22.052 12.646 58.988 2.441 75-16.5 7.227-8.549 7.924-16.306 12-25.5 1.389-3.132 4.46-7.215 6-11 9.898 10.002 7.799 30.068 1 42"/><path fill="#aaf2fd" d="M476 365c-4.758 1.004-10.16 1.492-15 1-6.03-.612-10.807-3.113-16-6 8.301 1.381 19.974-.283 27.5 1 2.422.413 3.194 1.635 3.5 4"/><path fill="#7d98a6" d="M628 489c-25.678 6.559-51.643 12.166-78 15-2.077-1.849 1.729-2.833 2.5-3 67.923-14.686 111.24-51.768 115.5-125 .038-.658-.032-1.341 0-2 26.024 20.434 38.838 46.917 40.5 80l25.5-13.5c.513-23.372 2.561-47.169 0-70.5 5.382-.003 1.31-6.287 4-9 2.431 16.662 8.447 59.631 7 74.5-1.044 10.727-25.618 21.189-35.5 25.5-26.168 11.416-55.189 16.915-81.5 28"/><path fill="#71888b" d="M668 376c-4.26 73.232-47.577 110.314-115.5 125-.771.167-4.577 1.151-2.5 3-2.294.247-4.462.879-7 1 1.137-4.942 8.419-.59 3-9 68.706-10.501 104.491-52.879 119-117.5.183-.815 1.144-4.564 3-2.5"/><path fill="#15587f" d="M746 414c5.64-.934 16.82-9.094 18-14.5.612-2.802-1.033-6.786-1-7.5.232-4.958.175-8.055 0-13 3.035-.991 5.836 8.369 6 9.5 2.285 15.77-.65 41.689-22.5 37.5-1.699-1.212-.334-10.606-.5-12"/><path fill="#166d95" d="M290 395c-.53 4.945-.473 9.934-1 15-10.389 3.091-13.235-6.681-19-10-.273-.157-4.83 4.52-3-1.5.895-2.945 3.107-.58 4-2 .285-.452-2.042-8.728-2-10.5 6.573-1.467 3.843 10.198 8.5 12 4.225 1.635 8.718-2.233 12.5-3"/><path fill="#203952" d="M263 397c-2.486-3.457-2.043-3.04-3-7z"/><path fill="#176a92" d="M746 414c-.675-5.683-1.416-11.277-2-17 8.449 4.457 13.19 2.618 19-5-.033.714 1.612 4.698 1 7.5-1.18 5.406-12.36 13.566-18 14.5"/><path fill="#00b4e3" d="M511 430c24.657 3.554 59.244-9.612 72-32 14.787 10.777-16.567 32.741-26.5 37-7.206 3.09-30.352 9.424-36.5 6.5-.305-.145.569-2.969-.5-3.5-2.855-1.417-11.87 2.386-8.5-8"/><path fill="#125781" d="M289 410c-.518 4.974.709 10.164-1.5 15-.982.588-12.032-1.428-13-2-3.758-2.219-7.511-19.42-4.5-23 5.765 3.319 8.611 13.091 19 10"/><path fill="#06568d" d="M418 415c-1.317-1.563-1.605-2.499-2-3 .574-.849 2.512-3.645 3-4 .861-.625 1.88-1.035 2.5-2l17.5 30.5c-6.888-7.061-14.65-13.961-21-21.5"/><path fill="#07aad9" d="M576 454c-.699-3.277 1.52-3.634 3.5-5 8.668-5.98 20.181-13.635 27.5-21-7.12 10.443-19.946 19.949-31 26"/><path fill="#06afdd" d="M567 458c-22.553 9.785-48.549 14.796-73 9h39.5z"/><path fill="#0e253a" d="M448 497c-31.861-5.182-59.36-11.049-90.5-21-6.316-2.018-27.122-12.487-31-13-.754-.1-3.108 1.61-3.5 2 2.474-5.6-4.737-4.511-7-7.5 42.422 15.585 86.364 32.192 132 39.5"/><path fill="#06afdd" d="M483 463c-2.496.552-3.969-.382-6-1 5.028-3.987 5.017.495 6 1"/><path fill="#174d70" d="M448 497c4.306.7 8.686 1.359 13 2 8.656 1.285 19.202 1.722 27.5 5 1.935.764 3.007 1.665 2.5 4-3.477-.103-12.986-1.249-13 2-12.67.229-26.329.268-39 0l-120-35c.96-3.675 1.022-7.031 4-10 .392-.39 2.746-2.1 3.5-2 3.878.513 24.684 10.982 31 13 31.14 9.951 58.639 15.818 90.5 21"/><path fill="#134e73" d="M712 464c2.588 1.51 3.299 7.351 4 10-6.081 5.382-13.55 7.433-21 10-22.958 7.911-67.649 21.026-91 25-22.249 3.786-42.038-2.443-63-3-.031-1.376 1.036-.954 2-1 2.538-.121 4.706-.753 7-1 26.357-2.834 52.322-8.441 78-15 12.208-3.118 24.415-6.431 36.5-10 7.483-2.21 43.779-17.171 47.5-15"/><path fill="#215d7d" d="M718 483c-2.683-3.734-1.647 2.374-5.5 4-2.495 1.053-9.245 1.202-13 3-9.158 4.384-17.734 11.665-25.5 15 .211-9.564 11.192-13.119 18.5-17 2.362-1.254 4.8-.656 2.5-4 7.45-2.567 14.919-4.618 21-10 1.042 3.937 1.475 4.046 2 9"/><path fill="#468fad" d="M439 510c-4.97-.105-10.044.253-15 0-15.06-.769-14.53-1.762-27.5-5-25.964-6.482-56.511-14.146-78.5-29 .28-1.375.982-.932 1-1z"/><path fill="#337e9d" d="m424 510-1 2c-14.65-.002-29.35-.05-44 0 1.006-1.599 3.871-1.668-.5-2-5.581-.424-11.827.03-17.5 0-4.308-13.458-25.29-19.976-38-24-1.447-.458-2.939-2.467-6-3 1.811-2.215.546-4.771 1-7 21.989 14.854 52.536 22.518 78.5 29 12.97 3.238 12.44 4.231 27.5 5"/><path fill="#0c3251" d="M718 483c.08.751-2.183 2.478-.5 4 1.747.203 3.854-.296 5.5 0-4.179 5.951-7.713 2.458-14 9-3.887 4.045-7.471 9.369-7 15-6.509 4.658-11.708.073-16.5 0-9.265-.142-18.854 1.128-28.5 1 4.322-3.966 11.292-4.549 17-7 7.766-3.335 16.342-10.616 25.5-15 3.755-1.798 10.505-1.947 13-3 3.853-1.626 2.817-7.734 5.5-4"/><path fill="#1b344d" d="M317 483c3.061.533 4.553 2.542 6 3-2.028 7.862 10.006 15.393 11.5 24 8.832.035 17.68-.047 26.5 0 5.673.03 11.919-.424 17.5 0 4.371.332 1.506.401.5 2-15.316.052-30.684-.107-46 0-.308-4.603-12.402-21.249-15.5-22-4.671-1.132-42.527 12.581-43.5 22-19.287.305-49.251-1.769-66.5 0-5.972.613-11.211 4.143-14.5 9-.878 1.296-2.597 3.691-3 5h-1c8.687-28.594 59.007-8.574 80.5-15 1.56-.466 17.404-18.305 24-22 7.344-4.114 14.923-7.492 23.5-6"/><path fill="#2a6d8a" d="M674 505c-5.708 2.451-12.678 3.034-17 7-16.13-.214-32.361-.533-48.5-1-1.827-.053-4.938 1.001-4.5-2 23.351-3.974 68.042-17.089 91-25 2.3 3.344-.138 2.746-2.5 4-7.308 3.881-18.289 7.436-18.5 17"/><path fill="#154a6f" d="M361 510c-8.82-.047-17.668.035-26.5 0-1.494-8.607-13.528-16.138-11.5-24 12.71 4.024 33.692 10.542 38 24"/><path fill="#142d44" d="M768 515c.151.885-1.144 1.111-1 2-64.352-2.102-128.59-3.199-193-4-50.327-.626-100.647-.993-151-1l1-2c4.956.253 10.03-.105 15 0 12.671.268 26.33.229 39 0 6.648-.12 13.354.16 20 0 15.168-.366 30.577-4.33 43-4 20.962.557 40.751 6.786 63 3-.438 3.001 2.673 1.947 4.5 2 16.139.467 32.37.786 48.5 1 9.646.128 19.235-1.142 28.5-1 4.792.073 9.991 4.658 16.5 0l62 3.5c-8.314-19.124-37.138-28.363-55-18.5 6.287-6.542 9.821-3.049 14-9 14.982 2.698 41.838 9.429 45 28"/><path fill="#29bce1" d="M333 512c-1.992.014-3.987-.015-6 0l-50 1c-2.913.042-2.842-1.003-3-1 .973-9.419 38.829-23.132 43.5-22 3.098.751 15.192 17.397 15.5 22"/><path fill="#3fa1be" d="M702 511c-.471-5.631 3.113-10.955 7-15 17.862-9.863 46.686-.624 55 18.5zm22.5-16c-7.271 11.056 22.468 19.18 24.5 13.5-4.242-9.908-14.848-12.312-24.5-13.5"/><path fill="#3ab4d5" d="M724.5 495c9.652 1.188 20.258 3.592 24.5 13.5-2.032 5.68-31.771-2.444-24.5-13.5"/><path fill="#2e7494" d="M491 508c2.652.079 7.573-1.128 7 2-6.646.16-13.352-.12-20 0 .014-3.249 9.523-2.103 13-2"/><path fill="#0c487c" d="M327 512c-16.677.125-33.379.758-50 1z"/><path fill="#eefafb" d="M274 512c.158-.003.087 1.042 3 1 16.621-.242 33.323-.875 50-1 2.013-.015 4.008.014 6 0 15.316-.107 30.684.052 46 0 14.65-.05 29.35-.002 44 0 50.353.007 100.673.374 151 1 3.594 1.69 3.242 1.848 3 6-124.482-1.082-248.986-2.782-373.5-3l-8.5 6h-1c-.059-.764-.151-1.103-1-1 3.289-4.857 8.528-8.387 14.5-9 17.249-1.769 47.213.305 66.5 0"/><path fill="#cff1f6" d="M767 517c17.922.586 53.126-1.917 68.5 1 1.12.212 3.455 2.441 4.5 3-55.934-2.166-112.027-.546-168-1-31.672-.257-63.334-.725-95-1 .242-4.152.594-4.31-3-6 64.41.801 128.648 1.898 193 4"/><path fill="#4d788b" d="M851 582c-.694.153-2.073.693-3 1-.179-17.211 10.334-52.198-8-62-1.045-.559-3.38-2.788-4.5-3-15.374-2.917-50.578-.414-68.5-1-.144-.889 1.151-1.115 1-2 17.625 4.653 62.196-4.603 75.5 5 15.575 11.242 4.8 45.492 7.5 62"/><path fill="#b1dceb" d="M577 519c31.666.275 63.328.743 95 1l-.5 12 55-1-4.5 3c-63.265-1.43-126.73-2.282-190-3-69.633-.79-139.325-1.452-209-1-23.614.153-47.407-.652-71 0-8.601.238-34.478-.485-40.5 1-2.624.647-4.589 3.442-5.5 6-.633.083-1.555-.161-2 0 .901-6.968-2.756-12.191-9-15l8.5-6c124.514.218 249.018 1.918 373.5 3"/><path fill="#68abbe" d="M840 521c13.244 6.022 3.444 50.414 6 63-4.324 1.785-13.698 7.742-17 11-1.527-3.255-.116-8.177 0-12 3.009.436 1.938-2.67 2-4.5.266-7.86 2.196-38.074-5.5-41.5-34.448-1.953-69.013-2.221-103.5-3l4.5-3-55 1 .5-12c55.973.454 112.066-1.166 168 1"/><path fill="#b9effa" d="M194 522c.349 4.499-1.958 9.646-1 14.5 1.294 2.911 8.699 1.331 11 .5.445-.161 1.367.083 2 0-1.255 3.524-.585 7.424-1 11l-11-.5 1 39.5c-1.121-.574-6.806-3.989-7-4.5-1.395-3.672.334-51.085 2-56.5.403-1.309 2.122-3.704 3-5 .849-.103.941.236 1 1"/><path fill="#9dd2db" d="M848 583c-.775.256-1.245.688-2 1-2.556-12.586 7.244-56.978-6-63 18.334 9.802 7.821 44.789 8 62"/><path fill="#75c6e2" d="M204 537c-2.301.831-9.706 2.411-11-.5-.958-4.854 1.349-10.001 1-14.5h1c6.244 2.809 9.901 8.032 9 15"/><path fill="#232c3c" d="M195 587c10.859 5.558 6.949-.874 8-10h2c-.201 4.526-3.229 14.727-3 15.5.288.973 10.395 6.895 10 10.5-8.693-9.743-24.844-15.712-37.5-18-3.137 1.309-2.979 24.795-2.5 29 .304 2.665 1.809 12.196 4.5 13 4.428 1.323 34.186-14.915 43.5-7 1.428 2.331 8.371 6.172 10 9.5 9.118 18.624-14.415 32.699-27 41.5l.5-4c-8.85 3.318-19.232-.344-22.5-9.5-4.129-11.569 1.202-21.042 5.5-31.5L160 639.5c.208-4.086 12.734-9.588 13-11 .058-.308-2.511-4.175-3-5.5-3.629-8.432 1.685-14.289 1-23.5-.553-7.439-7.379-12.072-1-15-6.96-2.857-11.613 2.621-18 3.5 9.132-8.088 20.937-10.352 32.5-6l2.5-1.5c-.951-15.667-2.538-39.564 2-54.5h1c-1.666 5.415-3.395 52.828-2 56.5.194.511 5.879 3.926 7 4.5m28 64c8.016-6.472 9-14.2 3-22-10.278-13.362-39.645-7.444-43 10.5-6.018 32.188 25.651 33.179 40 11.5"/><path fill="#0b3055" d="M252 530v3c-8.262.112-37.56-1.592-42 2-5.469 4.425-4.645 34.014-5 42h-2c1.121-9.732.872-19.27 2-29 .415-3.576-.255-7.476 1-11 .911-2.558 2.876-5.353 5.5-6 6.022-1.485 31.899-.762 40.5-1"/><path fill="#064e79" d="M323 530c-7.518 5.169-20.448-.494-29 3-13.98.081-28.022-.19-42 0v-3c23.593-.652 47.386.153 71 0"/><path fill="#1697ac" d="M532 531v2c-79.257-.721-158.738-.459-238 0 8.552-3.494 21.482 2.169 29-3 69.675-.452 139.367.21 209 1"/><path fill="#10334c" d="M722 534c34.487.779 69.052 1.047 103.5 3 7.696 3.426 5.766 33.64 5.5 41.5-.062 1.83 1.009 4.936-2 4.5.211-6.957 1.02-37.276-1-41.5-.769-1.609-4.095-3.465-6-3.5-96.648-1.074-193.353-4.121-290-5v-2c63.27.718 126.735 1.57 190 3"/><path fill="url(#f)" d="M252 533c13.978-.19 28.02.081 42 0 79.262-.459 158.743-.721 238 0 96.647.879 193.352 3.926 290 5l-4 2.5c.576 1.368 3.738 1.736 4 3 .789 3.815-1.617 40.983-3 46-3.15 11.423-16.593 20.442-23 32-1.713 3.09-14.687 33.797-15 36-.443 3.121 7.755 58.171 9 62 2.516 7.74 25.256 28.292 35 28.5-.144 6.623.615 27.199-5.5 30-1.986.91-15.146-.093-18.5 0-5.8.161-8.013-1.995-8.5-2-.743-.007-.257 2.008-1 2-9.443-.1-18.57-.761-28-1-.917-.023-1.469.014-2 0-5.496-.141-11.061.04-16.5 0-6.509-.048-14.678-3.124-21 1h-2c1.983-2.88-.671-1.944-2.5-2-152.912-4.698-306.583-2.138-459.5-5-9.483-.177-47.28 1.666-53-1-.438-3.001 2.673-1.947 4.5-2 58.179-1.684 120.883.734 177 3 3.827.154 9.458 1.241 10.5-3.5L202 762c-.864-4.977-.204-16.389 0-22 18.487 3.592 48.719-14.918 52-33.5 1.057-5.985 4.683-57.977 4-63-3.666-26.971-41.814-43.884-45-79-.445-4.907 1.379-25.703 1-27-.881-3.017-3.14-.234-4-2.5 4.44-3.592 33.738-1.888 42-2" style="fill:url(#f)"/>/&gt;<path fill="#67b0bd" d="M202 740c.142-3.924-.831-13.743 0-16.5.179-.593 7.477-6.968 9-8.5 7.853-7.897 36.768-24.807 20.5-37-9.61-7.202-20.93-4.883-31.5-3-.294-2.252 1.547-2.984 3-4 12.585-8.801 36.118-22.876 27-41.5-1.629-3.328-8.572-7.169-10-9.5-.467-.763-1.533-4.24-2-5-2.193-3.57-.167-5.463-6-12 .395-3.605-9.712-9.527-10-10.5-.229-.773 2.799-10.974 3-15.5.355-7.986-.469-37.575 5-42 .86 2.266 3.119-.517 4 2.5.379 1.297-1.445 22.093-1 27 3.186 35.116 41.334 52.029 45 79 .683 5.023-2.943 57.015-4 63-3.281 18.582-33.513 37.092-52 33.5"/><path fill="#679ea6" d="M829 583c-.116 3.823-1.527 8.745 0 12-9.827 9.696-8.034 17.88-12 26.5-.446.969-11.79 8.203-14 12-10.131 17.404 8.581 27.337 20 35.5.971.694 3.73 3.91 5 5-11.175-2.371-34.322 5.083-32 18.5 1.904 11.002 29.261 31.724 30 34 .332 1.024-.928 18.179-1 21.5-9.744-.208-32.484-20.76-35-28.5-1.245-3.829-9.443-58.879-9-62 .313-2.203 13.287-32.91 15-36 6.407-11.558 19.85-20.577 23-32 1.383-5.017 3.789-42.185 3-46-.262-1.264-3.424-1.632-4-3l4-2.5c1.905.035 5.231 1.891 6 3.5 2.02 4.224 1.211 34.543 1 41.5"/><path fill="#6bbeda" d="M205 548c-1.128 9.73-.879 19.268-2 29-1.051 9.126 2.859 15.558-8 10l-1-39.5z"/><path fill="#263141" d="M879 588c-.954-.565-8.896-3.739-10-4-1.54-.364-5.026-1.891-6-.5 4.966 6.796 5.458 14.396 5 22.5-1.498 5.73-1.692 11.784-5 17-.702 1.235-3.025 4.231-3 4.5.09.972 12.388 8.427 15 12.5.111.174.096 1.797 1 4-7.587-6.267-13.97-15.482-25-15.5-.473.817 3.897 5.816 4 6.5.514 3.408.348 11.879 0 15.5-.254 2.642-3.992 8.567-4 10.5-6.671 7.865-14.523 6.764-23.5 6-1.679-.143-5.004-.843-4.5 2-11.419-8.163-30.131-18.096-20-35.5 2.21-3.797 13.554-11.031 14-12 3.966-8.62 2.173-16.804 12-26.5 3.302-3.258 12.676-9.215 17-11 .755-.312 1.225-.744 2-1 .927-.307 2.306-.847 3-1 9.624-2.119 20.759-1.723 28 6m-55 17c-1.622 2.635-8.067 14.895-4.5 17 7.56-6.442 35.749 5.514 38 5 5.657-1.292 11.777-33.146.5-39-11.555-5.998-27.846 7.001-34 17m-22 35c-.053.316.016.673 0 1-.789 16.345 30.724 31.493 44.5 22 10.182-7.016 7.777-29.59-2-36-10.933-7.168-40.058-1.542-42.5 13"/><path fill="#4ec8d3" d="m869 584 4 3.5c-1.526 6.127-3.408 12.411-5 18.5.458-8.104-.034-15.704-5-22.5.974-1.391 4.46.136 6 .5"/><path fill="#17a6c3" d="M170 623c-1.618-4.387-2.019-2.094-3-10-.385-3.105 1.579-5.404 1-8.5-.782-4.181-5.319-9.759-10.5-7.5-9.459 4.124-3.913 19.798-6.5 26-1.702.707-3.423 2.021-5 3-8.161-13.17-5.508-27.807 6-38 6.387-.879 11.04-6.357 18-3.5-6.379 2.928.447 7.561 1 15 .685 9.211-4.629 15.068-1 23.5"/><path fill="#168fac" d="M879 588c4.156 2.461 7.776 5.035 9 10-.779-1.017-6.537-6.973-8-5.5 7.584 9.845 5.057 18.125 4 28.5-2.595-.802-13.785-7.862-15.5-7-.632.318-2.111 6.973-2.5 7.5-1.357 1.836-2.917 1.354-3 1.5 3.308-5.216 3.502-11.27 5-17 1.592-6.089 3.474-12.373 5-18.5l-4-3.5c1.104.261 9.046 3.435 10 4"/><path fill="#1594b4" d="M212 603c5.833 6.537 3.807 8.43 6 12-4.323-3.476-8.568-2.124-13-2 .73-3.269-.654-4.308-3-6 2.115-12.327-19.872-7.574-26-2-.559-3.62 1.331-8.413-2-11.5-.752 6.223 3.203 15.394-2 20.5-.479-4.205-.637-27.691 2.5-29 12.656 2.288 28.807 8.257 37.5 18"/><path fill="#1faec2" d="M858 588c-.705 1.86-5.174 12.802-5 13.5.179.719 10.168 5.844 3.5 11.5-8.264-5.708-13.156 2.294-21 0-2.569-.751-6.571-9.867-11.5-8 6.154-9.999 22.445-22.998 34-17"/><path fill="#267f9c" d="M824 605c4.929-1.867 8.931 7.249 11.5 8 7.844 2.294 12.736-5.708 21 0 6.668-5.656-3.321-10.781-3.5-11.5-.174-.698 4.295-11.64 5-13.5 11.277 5.854 5.157 37.708-.5 39-2.251.514-30.44-11.442-38-5-3.567-2.105 2.878-14.365 4.5-17"/><path fill="#28b3c5" d="M888 598c8.337 10.88 5.182 18.376-1 29-5.487-.978-3.272-3.331-3-6 1.057-10.375 3.584-18.655-4-28.5 1.463-1.473 7.221 4.483 8 5.5"/><path fill="#19698d" d="M176 605c.355 2.298-.073 4.761 0 5 .692 2.255 2.627 3.834 3.5 6 8.912-.773 16.36-2.744 25.5-3 4.432-.124 8.677-1.476 13 2 .467.76 1.533 4.237 2 5-9.314-7.915-39.072 8.323-43.5 7-2.691-.804-4.196-10.335-4.5-13 5.203-5.106 1.248-14.277 2-20.5 3.331 3.087 1.441 7.88 2 11.5"/><path fill="#30c7d6" d="M167 613c-4.933 5.671-9.551 7.323-16 10 2.587-6.202-2.959-21.876 6.5-26 5.181-2.259 9.718 3.319 10.5 7.5.579 3.096-1.385 5.395-1 8.5"/><path fill="#4abbc7" d="M202 607c-8.863-6.392-19.89-7.291-26 3-.073-.239.355-2.702 0-5 6.128-5.574 28.115-10.327 26 2"/><path fill="#1d82a2" d="M202 607c2.346 1.692 3.73 2.731 3 6-9.14.256-16.588 2.227-25.5 3-.873-2.166-2.808-3.745-3.5-6 6.11-10.291 17.137-9.392 26-3"/><path fill="#1d7c9f" d="M170 623c.489 1.325 3.058 5.192 3 5.5-.266 1.412-12.792 6.914-13 11l26.5-13.5c-4.298 10.458-9.629 19.931-5.5 31.5 3.268 9.156 13.65 12.818 22.5 9.5l-.5 4c-1.453 1.016-3.294 1.748-3 4-6.861 1.222-20.545 4.897-26 9-5.767-6.631-15.459-8.439-19-17.5-5.874-15.033 4.677-25.714 4-28-.256-.865-10.717-8.816-13-12.5 1.577-.979 3.298-2.293 5-3 6.449-2.677 11.067-4.329 16-10 .981 7.906 1.382 5.613 3 10m-1 21c-5.012 6.131-4.043 12.281 1.5 18 2.388.193 2.53-2.745 3.5-4 .103-.133 2.525.148 3-1.5.854-2.96-1.075-12.343 2-17-1.712-2.338-8.605 2.794-10 4.5"/><path fill="#227091" d="M884 621c-.272 2.669-2.487 5.022 3 6-2.984 5.128-6.161 10.475-12 13-2.612-4.073-14.91-11.528-15-12.5-.025-.269 2.298-3.265 3-4.5.083-.146 1.643.336 3-1.5.389-.527 1.868-7.182 2.5-7.5 1.715-.862 12.905 6.198 15.5 7"/><path fill="#1689ad" d="M226 629c-10.259-2.666-33.65-4.907-36 9.5-3.056 18.736 21.833 21.516 33 12.5-14.349 21.679-46.018 20.688-40-11.5 3.355-17.944 32.722-23.862 43-10.5"/><path fill="#1e7692" d="M802 641c4.655 4.222 6.412 9.667 12.5 13 32.065 17.554 45.099-27.838 13-26-9.216.528-18.03 7.154-25.5 12 2.442-14.542 31.567-20.168 42.5-13 9.777 6.41 12.182 28.984 2 36-13.776 9.493-45.289-5.655-44.5-22"/><path fill="#3fbfd1" d="M226 629c6 7.8 5.016 15.528-3 22-11.167 9.016-36.056 6.236-33-12.5 2.35-14.407 25.741-12.166 36-9.5"/><path fill="#53b1be" d="M802 641c.016-.327-.053-.684 0-1 7.47-4.846 16.284-11.472 25.5-12 32.099-1.838 19.065 43.554-13 26-6.088-3.333-7.845-8.778-12.5-13"/><path fill="#246c89" d="M876 644c8.429 20.547 2.943 33.858-18 41-10.296 1.252-20.582-9.002-30-11-1.27-1.09-4.029-4.306-5-5-.504-2.843 2.821-2.143 4.5-2 8.977.764 16.829 1.865 23.5-6-.057 13.031 18.213 5.627 20-5.5 1.971-12.272-5.846-16.667-16-20.5-.103-.684-4.473-5.683-4-6.5 11.03.018 17.413 9.233 25 15.5"/><path fill="#229cb0" d="M851 661c.008-1.933 3.746-7.858 4-10.5.348-3.621.514-12.092 0-15.5 10.154 3.833 17.971 8.228 16 20.5-1.787 11.127-20.057 18.531-20 5.5"/><path fill="#1793af" d="m174 658-5-14c1.395-1.706 8.288-6.838 10-4.5-3.075 4.657-1.146 14.04-2 17-.475 1.648-2.897 1.367-3 1.5"/><path fill="#42c7d8" d="M174 658c-.97 1.255-1.112 4.193-3.5 4-5.543-5.719-6.512-11.869-1.5-18z"/><path fill="#1f2735" d="M211 715c2.713-6.092-1.931-1.263-3-1-17.437 4.287-24.49 1.509-24-18 3.288-8.065 6.033-11.132 12.5-17-9.81 2.109-23.353 6.942-29.5 15 .805-2.894 4.819-8.359 7-10 5.455-4.103 19.139-7.778 26-9 10.57-1.883 21.89-4.202 31.5 3 16.268 12.193-12.647 29.103-20.5 37m-3.5-38c-29.834 4.793-29.909 54.09 9 30 24.575-15.215 24.398-35.365-9-30"/><path fill="#2f3541" d="M828 674c9.418 1.998 19.704 12.252 30 11-1.693.577-3.185 1.226-5 1.5 6.281 3.885 13.172 7.699 15 15.5-2.116-3.767-21.666-20.422-24-16.5 3.518 3.812 3.534 8.163 5 12.5.04 3.526.104 7.632-1 11-4.742 14.467-19.783 12.618-30.5 6 10.667 14 35.254 22.304 50.5 11-4.535 8.066-12.815 11.995-22 11-4.38-.474-13.843-7.39-18.5-9-1.962 1.514.356 43.293-2.5 48.5-2.602 4.744-18.08 3.912-23.5 3.5-4.372-.332-1.506-.402-.5-2 3.354-.093 16.514.91 18.5 0 6.115-2.801 5.356-23.377 5.5-30 .072-3.321 1.332-20.476 1-21.5-.739-2.276-28.096-22.998-30-34-2.322-13.417 20.825-20.871 32-18.5m-11.5 2c-3.587.507-18.812 9.008-19.5 12.5-2.184 11.078 44.292 49.483 50 18 3.419-18.858-12.783-33.003-30.5-30.5"/><path fill="#297790" d="M816.5 676c17.717-2.503 33.919 11.642 30.5 30.5-5.708 31.483-52.184-6.922-50-18 .688-3.492 15.913-11.993 19.5-12.5m3 6c-2.703.207-17.717 6.623-17.5 9.5 8.169 9.19 22.893 22.698 35.5 13.5 13.961-10.186-5.084-23.989-18-23"/><path fill="#36acbf" d="M207.5 677c33.398-5.365 33.575 14.785 9 30-38.909 24.09-38.834-25.207-9-30m-3 6c-4.756.646-16.538 11.202-15.5 16.5 2.044 10.429 23.991-9.737 21.5-16.5-1.959.181-4.065-.263-6 0"/><path fill="#19779b" d="M184 696c-.049.119-1.703-.386-2 .5-.883 2.636 1.328 8.654-2 11.5-2.806-19.124-14.567-4.39-1 7 2.131 1.789 3.641 4.021 6.5 5 3.135 1.073 14.195-1.109 11.5 3-8.04 2.962-15.566 3.167-24 3-12.186-8.834-15.914-19.004-6-32 6.147-8.058 19.69-12.891 29.5-15-6.467 5.868-9.212 8.935-12.5 17"/><path fill="#5ab0bc" d="M819.5 682c12.916-.989 31.961 12.814 18 23-12.607 9.198-27.331-4.31-35.5-13.5-.217-2.877 14.797-9.293 17.5-9.5"/><path fill="#57bece" d="M204.5 683c1.935-.263 4.041.181 6 0 2.491 6.763-19.456 26.929-21.5 16.5-1.038-5.298 10.744-15.854 15.5-16.5"/><path fill="#286984" d="M868 702c5.323 9.476 5.416 14.367 0 24-15.246 11.304-39.833 3-50.5-11 10.717 6.618 25.758 8.467 30.5-6 6.575 4.216-5.393 14.108.5 16 14.025 4.502 22.964-22.477 5-24-3.033-.257-.797 7.953-4.5-3-1.466-4.337-1.482-8.688-5-12.5 2.334-3.922 21.884 12.733 24 16.5"/><path fill="#1f7e9e" d="M184 696c-.49 19.509 6.563 22.287 24 18 .265 2.657-9.021 8.271-11 9 2.695-4.109-8.365-1.927-11.5-3-2.859-.979-4.369-3.211-6.5-5 1.254-2.029 1.329-4.757 1-7 3.328-2.846 1.117-8.864 2-11.5.297-.886 1.951-.381 2-.5"/><path fill="#4cc6d2" d="M180 708c.329 2.243.254 4.971-1 7-13.567-11.39-1.806-26.124 1-7"/><path fill="#2d93a4" d="M848 709c1.104-3.368 1.04-7.474 1-11 3.703 10.953 1.467 2.743 4.5 3 17.964 1.523 9.025 28.502-5 24-5.893-1.892 6.075-11.784-.5-16"/><path fill="#1e4968" d="M211 715c-1.523 1.532-8.821 7.907-9 8.5-.831 2.757.142 12.576 0 16.5-.204 5.611-.864 17.023 0 22 .441 2.539 2.381 6.779 5 8 5.72 2.666 43.517.823 53 1v2c-9.994-.131-46.991 1.747-53.5-1-9.034-3.813-6.221-25.976-6.5-34-.077-2.212.51-13.271-.5-14-3.931 2.133-9.844 2.21-13.5 4-7.133 3.492-3.099 14.112-4 22.5-.524 4.877-2.843 13.414-3 17.5h-1c.261-6.931 4.837-34.112 3-38.5-.775-1.852-6.07-2.101-8-3.5 8.434.167 15.96-.038 24-3 1.979-.729 11.265-6.343 11-9 1.069-.263 5.713-5.092 3 1"/><path fill="#2591b7" d="M200 738c-5.871-.385-9.846-4.549-14-8 .033-.659-.015-1.34 0-2 3.656-1.79 9.569-1.867 13.5-4 1.01.729.423 11.788.5 14"/><path fill="#a0d6e3" d="M186 728c-.015.66.033 1.341 0 2-.462 9.18-5.622 46.174-4 51.5 3.055 10.032 8.526 1.975 14 7.5-16.769-.455-17.636-4.389-17-21 .157-4.086 2.476-12.623 3-17.5.901-8.388-3.133-19.008 4-22.5"/><path fill="#4e7f8e" d="M846 737c.328 12.582 2.36 25.54 3 38-3.581 6.516 2.839 15.149-6.5 19-36.851-.315-73.71-1.492-110.5-2-31.308-.432-62.677-.618-94-1-43.289-.528-86.702-1.53-130-2-1.263-1.017-2.045-2.752-3.5-3-18.614-3.179-49.419-.543-70-3-13.145-1.569-26.723-3.588-39.5-7 108.033 1.618 218.23 2.044 327 2h2c6.831-.004 14.367.828 21-1 5.439.04 11.004-.141 16.5 0 .531.014 1.083-.023 2 0 9.43.239 18.557.9 28 1 .743.008.257-2.007 1-2 .487.005 2.7 2.161 8.5 2-1.006 1.598-3.872 1.668.5 2 5.42.412 20.898 1.244 23.5-3.5 2.856-5.207.538-46.986 2.5-48.5 4.657 1.61 14.12 8.526 18.5 9"/><path fill="#69acc7" d="M200 738c.279 8.024-2.534 30.187 6.5 34 6.509 2.747 43.506.869 53.5 1 45.036.589 90.062 2.327 135 3 12.777 3.412 26.355 5.431 39.5 7 20.581 2.457 51.386-.179 70 3 1.455.248 2.237 1.983 3.5 3-103.007-1.119-210.17 2.764-312 0-5.474-5.525-10.945 2.532-14-7.5-1.622-5.326 3.538-42.32 4-51.5 4.154 3.451 8.129 7.615 14 8"/><path fill="#a9d2da" d="M207 770c-2.619-1.221-4.559-5.461-5-8l197 5.5c-1.042 4.741-6.673 3.654-10.5 3.5-56.117-2.266-118.821-4.684-177-3-1.827.053-4.938-1.001-4.5 2"/><path fill="#102b3d" d="M196 789c101.83 2.764 208.993-1.119 312 0 43.298.47 86.711 1.472 130 2-.817 1.807 1.091 3.343 1 3.5-.553.952-1.692.307-2 .5l-221.5-4c-10.901 11.144 3.442 11.477 8.5 16.5 13.879 13.782 23.12 50.849 13 68.5 4.463-17.497 4.283-22.769-4-38-3.959-7.279-11.095-17.69-20.5-17-.489.036-6.969 2.343-8.5 3-20.632-17.313-53.125-24.67-80-22-16.937-.058-39.293 6.592-40.5 26 1.949-.199 3.513-.815 5.5-1 14.875-1.384 22.398-2.908 38-2 14.051.818 22.777 1.469 36 7v5c-11.804-6.91-21.28-9.465-35-10-8.878-.346-20.201.652-29 2-1.906.292-4.134.625-6 1-31.642 6.353-60.883 29.628-71 61h-1c5.757-17.678 22.191-40.299 37.5-51 4.617-3.227 23.022-10.282 23.5-11.5.437-1.115-6.677-17.446 2-22.5-.896 1.856-4.437 15.089-2.5 16 2.996-4.997 6.348-10.358 11-14 11.147-8.728 33.017-8.713 47.5-8 20.501 1.01 35.718 5.852 54.5 13 1.386.528 6.584 5.109 7 5 1.374-.359 9.553-10.404 12.5-11.5-3.668-.974-4.556-8.848-5.5-9.5-5.023-3.466-52.702-2.083-61.5-1v-2c14.82-.149 29.727-.999 44.5-1 1.17 0 28.26 4.094 19-2-2.256-1.484-46.886-.869-54-1-44.205-.815-88.727-.219-133 0-10.655.053-40.688 6.359-45.5-5.5-1.723-4.247-.174-11.871 0-16.5h1c-.636 16.611.231 20.545 17 21"/><path fill="#3a6b86" d="M722 778c-108.77.044-218.967-.382-327-2-44.938-.673-89.964-2.411-135-3v-2c152.917 2.862 306.588.302 459.5 5 1.829.056 4.483-.88 2.5 2"/><path fill="#172e41" d="M750 829c-6.877-26.145-41.225-26.26-63-22-16.251-1.965-34.988 6.345-49 14l-6.5-5c7.616 3.774 9.052-.849 12-2 16.332-6.375 32.668-11.409 48-12 18.014-.695 44.451.397 56 16 2.168-12.953-9.502-20.254-20.5-23.5l5-2.5c36.79.508 73.649 1.685 110.5 2 9.339-3.851 2.919-12.484 6.5-19 .641 12.486 3.251 19.561-12.5 22l-103-3c3.774 4.269 9.952 5.104 13.5 10.5 4.34 6.601 5.267 16.842 3 24.5"/><path fill="#3c677f" d="M745 777c-6.633 1.828-14.169.996-21 1 6.322-4.124 14.491-1.048 21-1"/><path fill="#04364a" d="m732 792-5 2.5c10.998 3.246 22.668 10.547 20.5 23.5-11.549-15.603-37.986-16.695-56-16-15.332.591-31.668 5.625-48 12-2.948 1.151-4.384 5.774-12 2l6.5 5c-3.165 1.729-7.127 3.231-10 5l-10.5 2c-6.049 2.858-10.643 8.602-17 9l2.5-12c2.744-6.026 16.404-22.436 21.5-26 2.274-1.59 9.165-1.908 12.5-4 .308-.193 1.447.452 2-.5.091-.157-1.817-1.693-1-3.5 31.323.382 62.692.568 94 1"/><path fill="#0b3753" d="M347 794v2c-4.164.513-8.006-2.046-7 4-14.483-.713-36.353-.728-47.5 8-4.652 3.642-8.004 9.003-11 14-1.937-.911 1.604-14.144 2.5-16 .681-1.41 9.649-13.797 10.5-14 1.865-.444 1.668 2.849 3 3 13.912 1.581 34.587-.85 49.5-1"/><path fill="#024b62" d="M340 800c-1.006-6.046 2.836-3.487 7-4 8.798-1.083 56.477-2.466 61.5 1 .944.652 1.832 8.526 5.5 9.5-2.947 1.096-11.126 11.141-12.5 11.5-.416.109-5.614-4.472-7-5-18.782-7.148-33.999-11.99-54.5-13"/><path fill="#004a69" d="M404 824c-2.611 1.121-7.99 7.206-8.5 7-.345-.139-.21-2.122-2.5-4-3.721-3.051-6.746-6.566-11-9-6.433-3.681-14.932-5.745-22-8-12.351-3.94-22.141-7.952-36-8 26.875-2.67 59.368 4.687 80 22"/><path fill="#77e6fc" d="M324 802c13.859.048 23.649 4.06 36 8 8.762 14.96-7.649 7.244-16 6-20.179-3.005-38.155-6.379-56.5 6l-1 2 2.5 3c-1.987.185-3.551.801-5.5 1 1.207-19.408 23.563-26.058 40.5-26"/><path fill="#7ed2df" d="M750 829v1a77 77 0 0 0-4-1c-13.813-16.935-43.455-11.667-63-12-1.197-.02-4.305.432-5-.5 1.273-2.704 6.581-4.579 3-7.5 2.016-.568 3.857-1.581 6-2 21.775-4.26 56.123-4.145 63 22"/><path fill="#01556f" d="M687 807c-2.143.419-3.984 1.432-6 2-11.401 3.213-22.124 7.206-30 16-5.624 6.28-5.525 2.637-6 13-4.926-7.213-12.354-8.846-20.5-8-1.421-1.539 2.535-3.406 3.5-4 2.873-1.769 6.835-3.271 10-5 14.012-7.655 32.749-15.965 49-14"/><path fill="#2f8ca2" d="M681 809c3.581 2.921-1.727 4.796-3 7.5.695.932 3.803.48 5 .5-.293 5.515 17.928 5.659 18 7.5L670 836c-.22.119-2.91 2.281-4 3l-15-14c7.876-8.794 18.599-12.787 30-16m-16.5 14c-.423.121-1.698 1.388-2.5 1.5-.483 1.652 6.554.525 8 0 .317-2.226-4.688-1.732-5.5-1.5"/><path fill="#22a3c7" d="M382 818c-1.694 2.125-.142 4.006-2 6-4.673-3.393-5.964.209-8 2-3.062 2.695-4.894 5.126-3 9-2.287-1.283-3.51-1.958-6-3-13.223-5.531-21.949-6.182-36-7 2.806-4.034 17.402-2.553 17-9 8.351 1.244 24.762 8.96 16-6 7.068 2.255 15.567 4.319 22 8"/><path fill="#49c5e7" d="M344 816c.402 6.447-14.194 4.966-17 9-15.602-.908-23.125.616-38 2l-2.5-3 1-2c18.345-12.379 36.321-9.005 56.5-6"/><path fill="#49a7be" d="M746 829c-23.05-5.132-54.749-4.466-76 7l31-11.5c-.072-1.841-18.293-1.985-18-7.5 19.545.333 49.187-4.935 63 12"/><path fill="#1d88a1" d="M393 827c1.264 8.087-3.566 15.832-4.5 24-6.032-6.457-11.712-11.633-19.5-16-1.894-3.874-.062-6.305 3-9 2.287.287 6.434-.319 8-2 1.858-1.994.306-3.875 2-6 4.254 2.434 7.279 5.949 11 9"/><path fill="#011f38" d="m433 838-7.5-6c-4.414 3.561-5.482 7.614-6.5 13-2.09 11.056-1.442 25.164 1 36-.246.069-4.747.968-5 1 2.148-4.842.747-9.213 1-14 .661-12.508 2.183-23.653-1-36-2.523-9.787-6.367-8.653-14.5-3-16.563 11.514-8.358 33.899-1.5 48 6.339 13.034 15.643 31.431 30 14.5 2.74-3.232 4.641-11.846 8-13.5-1.191 4.123-5.246 13.595-8 16.5-11.71 12.353-87.897 17.698-107.5 18.5-12.429.509-101.584.219-104.5-8.5 1.763-3.853 1.873-8.488 3-12.5.019-.068.548.389 1-1h1c-1.175 3.644-1.8 6.108-1 10 .031.149-2.291 1.072-.5 3 62.527 12.062 126.411 3.034 189-4-18.979-22.806-18.106-46.378-46.5-63v-5c2.49 1.042 3.713 1.717 6 3 7.788 4.367 13.468 9.543 19.5 16 .934-8.168 5.764-15.913 4.5-24 2.29 1.878 2.155 3.861 2.5 4 .51.206 5.889-5.879 8.5-7 1.531-.657 8.011-2.964 8.5-3 9.405-.69 16.541 9.721 20.5 17"/><path fill="#afe1f1" d="M380 824c-1.566 1.681-5.713 2.287-8 2 2.036-1.791 3.327-5.393 8-2"/><path fill="#dbeff6" d="M664.5 823c.812-.232 5.817-.726 5.5 1.5-1.446.525-8.483 1.652-8 0 .802-.112 2.077-1.379 2.5-1.5"/><path fill="#0b2033" d="M628 826c-.965.594-4.921 2.461-3.5 4 8.146-.846 15.574.787 20.5 8-.307 6.703 1.78 15.576.5 23 4.861-8.448 12.328-16.606 20.5-22 1.09-.719 3.78-2.881 4-3 21.251-11.466 52.95-12.132 76-7a77 77 0 0 1 4 1c30.02 8.405 54.204 33.588 66 62 2.237 5.388 3.993 11.013 6 16.5-1.295 4.349-60.585 7.322-68.5 7.5-25.081.565-116.754-1.352-136-11-8.003-4.012-17.313-18.405-19.5-27-3.844-15.105-1.324-39.115 5-53l-2.5 12c6.357-.398 10.951-6.142 17-9zm63 6c-21.473 5.186-37.918 15.517-48 36-1.465 2.975-14.04 35.8-12.5 37 56.695 3.737 121.236 16.102 177.5 5 2.392-.472 10.462-1.099 11-3.5-15.103-41.196-42.316-72.728-88-77.5-17.191-1.796-23.66-.946-40 3m-68.5-1c-.4.012-1.556 1.949-2 2-2.662.304-7.271-2.974-10.5 2.5 18.478 2.635 3.96 61.35 22.5 53.5 5.131-2.172 12.971-40.696 11.5-47.5-1.918-8.871-14.477-10.712-21.5-10.5M598 859c-1.339 18.508 7.286 39.988 26.5 45 9.453-14.878-1.11-12.304-5-25l-4.5 3.5c2.633-9.158 5.433-21.026 4-30.5-.646-4.269-7.11-15.667-11.5-15-4.13.627-9.223 18.17-9.5 22m3.5-20c-1.101.232-2.3 2.924-1 4 1.416.71 3.949-4.621 1-4"/><path fill="#6a787c" d="M415 832c-8.73 1.94-19.948 8.605-21 18-.58 5.181 5.039 23.74 8 28l-3-1c-6.858-14.101-15.063-36.486 1.5-48 8.133-5.653 11.977-6.787 14.5 3"/><path fill="#136b84" d="m651 825 15 14c-8.172 5.394-15.639 13.552-20.5 22 1.28-7.424-.807-16.297-.5-23 .475-10.363.376-6.72 6-13"/><path fill="#0194d9" d="M328 827c2.836 6.601 24.039 2.893 16 13-5.875-2.765-14.641-4.223-21-6l-24-5c8.799-1.348 20.122-2.346 29-2"/><path fill="#015e79" d="M363 837c28.394 16.622 27.521 40.194 46.5 63-62.589 7.034-126.473 16.062-189 4-1.791-1.928.531-2.851.5-3h2c20.968 0 42.055 1.878 63 1 22.103-.927 46.007-3.667 65.5-15 13.708-7.969 23.244-15.731 12.5-31-3.275-4.655-14.997-13.646-20-16 8.039-10.107-13.164-6.399-16-13 13.72.535 23.196 3.09 35 10"/><path fill="url(#g)" d="M731 829c-8.434 8.669-26.584 2.755-36 13-6.249 2.661-14.502 8.897-16 16-.318-3.275.137-3.962.5-7-25.698 20.676-5.238 23.498 13.5 31 5.356 2.144 10.753 5.454 16.5 7 17.209 4.628 61.191 10.816 71.5-7 4.904-8.474 4.872-20.793-6-25-1.617-3.747-6.646-9.589-10-12 11.866 4.503 21.812 15.255 29 25.5 7.999 11.401 15.902 25.083 14 39.5-56.264 11.102-120.805-1.263-177.5-5-1.54-1.2 11.035-34.025 12.5-37l48-36c16.34-3.946 22.809-4.796 40-3" style="fill:url(#g)"/>/&gt;<path fill="#69e3fe" d="m299 829 24 5-4 2.5c3.518.506 3.294 1.139 5 3.5-8.879-3.367-19.366-6.795-29-6l-2-4c1.866-.375 4.094-.708 6-1"/><path fill="#55e1f3" d="M808 910c1.902-14.417-6.001-28.099-14-39.5-7.188-10.245-17.134-20.997-29-25.5-9.22-6.628-27.546-10.085-38.5-7-2.484.699-4.519 2.015-4.5 5-.974-.359-5.048-1.634-5-2.5.035-.64 4.241-1.054 3.5-2.5-6.85-.735-19.074 1.264-25.5 4 9.416-10.245 27.566-4.331 36-13 45.684 4.772 72.897 36.304 88 77.5-.538 2.401-8.608 3.028-11 3.5"/><path fill="#96f3fa" d="m293 830 2 4c-7.259.599-18.451 6.144-24 11-6.229.324-12.395 6.27-17 10-15.319 12.408-24.921 27.123-31 46h-2c-.8-3.892-.175-6.356 1-10 10.117-31.372 39.358-54.647 71-61"/><path fill="#556569" d="M622.5 831c7.023-.212 19.582 1.629 21.5 10.5 1.471 6.804-6.369 45.328-11.5 47.5-18.54 7.85-4.022-50.865-22.5-53.5 3.229-5.474 7.838-2.196 10.5-2.5.444-.051 1.6-1.988 2-2m.5 19c-.707 12.481 2.551 51.374 11 16 4.524 2.019 3.026-2.301 5-4.5-1.8-3.649 2.988-16.151 2-18-3.893-7.285-14.414-6.588-18 0-2.006 3.686.05 5.617 0 6.5"/><path fill="#005881" d="m691 832-48 36c10.082-20.483 26.527-30.814 48-36"/><path fill="#6d949d" d="M415 832c3.183 12.347 1.661 23.492 1 36-2.737 1.588-2.619 1.817-3-1.5-1.622-14.111.414-39.056-19-16.5 1.052-9.395 12.27-16.06 21-18"/><path fill="#596468" d="M433 838c8.283 15.231 8.463 20.503 4 38-.144.564.155 1.464 0 2-3.359 1.654-5.26 10.268-8 13.5-14.357 16.931-23.661-1.466-30-14.5l3 1c5.995 8.627 6.858 4.767 13 4 .253-.032 4.754-.931 5-1 .694-.194 3.369 1.526 7.5-1 7.109-4.347 10.743-18.834 9.5-26.5-1.311-8.083-11.849-6.454-18-8.5 1.018-5.386 2.086-9.439 6.5-13z"/><path fill="#fdfefe" d="M295 834c9.634-.795 20.121 2.633 29 6 .073.101 1.725.706 2 1.5-16.589 4.987-32.388 3.025-45 18-3.737 4.437-2.671 15.272-14.5 12.5-12.971-3.039-1.846-21.446 4.5-27 5.549-4.856 16.741-10.401 24-11"/><path fill="#4dbeeb" d="M344 840c5.003 2.354 16.725 11.345 20 16-5.276 4.272-1.372 6.737-7 14-1.352-1.281-3.571.279-4.5 1-17.425 13.527-55.252 20.321-79 16-7.306-1.33-13.566-6.049-20.5-8-3.523-8.102-.275-15.63 1-24 4.605-3.73 10.771-9.676 17-10-6.346 5.554-17.471 23.961-4.5 27 11.829 2.772 10.763-8.063 14.5-12.5 12.612-14.975 28.411-13.013 45-18-.275-.794-1.927-1.399-2-1.5-1.706-2.361-1.482-2.994-5-3.5l4-2.5c6.359 1.777 15.125 3.235 21 6"/><path fill="#6c8c92" d="M619 852c-2.243.045-4.474-.799-4 2-2.989-11.963-13.827-2.736-15 5h-2c.277-3.83 5.37-21.373 9.5-22 4.39-.667 10.854 10.731 11.5 15"/><path fill="#4fbce7" d="M722 843c9.777 3.604 18.62 5.077 27.5 12 5.155 4.019 12.815 16.58 17 18 12.834 4.354 12.295-7.202 8.5-16 10.872 4.207 10.904 16.526 6 25-33.528 13.383-73.907 6.61-101-17-1.242-3.235-.712-4.026-1-7 1.498-7.103 9.751-13.339 16-16 6.426-2.736 18.65-4.735 25.5-4 .741 1.446-3.465 1.86-3.5 2.5-.048.866 4.026 2.141 5 2.5"/><path fill="#fcfefe" d="M765 845c3.354 2.411 8.383 8.253 10 12 3.795 8.798 4.334 20.354-8.5 16-4.185-1.42-11.845-13.981-17-18-8.88-6.923-17.723-8.396-27.5-12-.019-2.985 2.016-4.301 4.5-5 10.954-3.085 29.28.372 38.5 7"/><path fill="#668d96" d="M634 866c2.789-11.678.92-32.707-11-16 .05-.883-2.006-2.814 0-6.5 3.586-6.588 14.107-7.285 18 0 .988 1.849-3.8 14.351-2 18-1.974 2.199-.476 6.519-5 4.5"/><path fill="#4695ae" d="M601.5 839c2.949-.621.416 4.71-1 4-1.3-1.076-.101-3.768 1-4"/><path fill="#91c0c9" d="M416 868c-.253 4.787 1.148 9.158-1 14-6.142.767-7.005 4.627-13-4-2.961-4.26-8.58-22.819-8-28 19.414-22.556 17.378 2.389 19 16.5.381 3.317.263 3.088 3 1.5"/><path fill="#84b4bc" d="M634 866c-8.449 35.374-11.707-3.519-11-16 11.92-16.707 13.789 4.322 11 16"/><path fill="#86b7bf" d="M420 881c-2.442-10.836-3.09-24.944-1-36 6.151 2.046 16.689.417 18 8.5 1.243 7.666-2.391 22.153-9.5 26.5-4.131 2.526-6.806.806-7.5 1"/><path fill="#86b6be" d="M615 854c.901 3.606-.432 26.607-4.5 27-6.444-5.498-11.857-13.055-10.5-22 1.173-7.736 12.011-16.963 15-5"/><path fill="#2692ba" d="M679 858c.288 2.974-.242 3.765 1 7 3.173 8.266 10.268 9.732 13 17-18.738-7.502-39.198-10.324-13.5-31-.363 3.038-.818 3.725-.5 7"/><path fill="#535d60" d="M619 852c1.433 9.474-1.367 21.342-4 30.5l4.5-3.5c3.89 12.696 14.453 10.122 5 25-19.214-5.012-27.839-26.492-26.5-45h2c-1.357 8.945 4.056 16.502 10.5 22 4.068-.393 5.401-23.394 4.5-27-.474-2.799 1.757-1.955 4-2"/><path fill="#459fb1" d="M254 855c-1.275 8.37-4.523 15.898-1 24 5.106 11.742 26.548 14.026 38 14 1.572 9.331-2.505 4.87-5 9-20.945.878-42.032-1-63-1 6.079-18.877 15.681-33.592 31-46"/><path fill="#2e8aa5" d="M364 856c10.744 15.269 1.208 23.031-12.5 31-19.493 11.333-43.397 14.073-65.5 15 2.495-4.13 6.572.331 5-9 16.688-.037 55.485-9.43 66-23 5.628-7.263 1.724-9.728 7-14"/><path fill="#7dd7e1" d="M781 882c-10.309 17.816-54.291 11.628-71.5 7-5.747-1.546-11.144-4.856-16.5-7-2.732-7.268-9.827-8.734-13-17 27.093 23.61 67.472 30.383 101 17"/><path fill="#92d7e0" d="M357 870c-10.515 13.57-49.312 22.963-66 23-11.452.026-32.894-2.258-38-14 6.934 1.951 13.194 6.67 20.5 8 23.748 4.321 61.575-2.473 79-16 .929-.721 3.148-2.281 4.5-1"/></svg>