<svg xmlns="http://www.w3.org/2000/svg" width="1024" height="1024"><defs><linearGradient id="a" x1="264.034" x2="586.626" y1="324.835" y2="561.339" gradientUnits="userSpaceOnUse"><stop offset="0%" style="stop-color:#c8e7f3"/><stop offset="89.75%" style="stop-color:#95c2d3"/></linearGradient></defs><defs><linearGradient id="b" x1="533.817" x2="839.213" y1="388.83" y2="684.394" gradientUnits="userSpaceOnUse"><stop offset="0%" style="stop-color:#6790a1"/><stop offset="59.529%" style="stop-color:#50778b"/><stop offset="64.941%" style="stop-color:#4c7388"/><stop offset="100%" style="stop-color:#264f66"/></linearGradient></defs><defs><linearGradient id="c" x1="669.352" x2="442.416" y1="443.986" y2="652.227" gradientUnits="userSpaceOnUse"><stop offset="0%" style="stop-color:#0f88b0"/><stop offset="53.896%" style="stop-color:#45b3d1"/><stop offset="65.26%" style="stop-color:#2bc0df"/><stop offset="73.052%" style="stop-color:#26c1e1"/><stop offset="100%" style="stop-color:#159ec5"/></linearGradient></defs><defs><linearGradient id="d" x1="834.884" x2="836.063" y1="491.934" y2="527.915" gradientUnits="userSpaceOnUse"><stop offset="0%" style="stop-color:#5e7d8c"/><stop offset="100%" style="stop-color:#7a99a8"/></linearGradient></defs><defs><linearGradient id="e" x1="344.017" x2="410.963" y1="537.385" y2="557.834" gradientUnits="userSpaceOnUse"><stop offset="0%" style="stop-color:#0987ab"/><stop offset="100%" style="stop-color:#006fac"/></linearGradient></defs><defs><linearGradient id="f" x1="486.891" x2="626.928" y1="677.834" y2="831.632" gradientUnits="userSpaceOnUse"><stop offset="0%" style="stop-color:#7fa9b9"/><stop offset="100%" style="stop-color:#5b8a9f"/></linearGradient></defs><path fill="#3191ae" d="m546 109 32 20c-113.275-37.834-208.137 21.586-273 111-58.65 80.85-88.058 181.263-99 280-8.131 73.367-4.132 121.457 10 193 1.083 5.483 7.128 33.136 4.5 35-5.462-5.096-8.495-13.738-11.5-21-5.878-14.208-11.7-34.777-14-50-.024-.156 1.422-.001 1-3-3.699-26.312-5.658-53.42-6-80-.083-6.464-1.137-13.778-1-20 .7-31.831 6.567-68.546 12-100 .534-3.094.48-7.232 1-10 .029-.155.678-1.338 1-3 31.334-161.996 144.741-384.345 343-352"/><path fill="#13688c" d="M576 117c-.878 6.661 13.576 10.282 16 17-4.557-1.904-9.309-3.433-14-5l-32-20c10.044 1.639 20.318 4.901 30 8"/><path fill="url(#a)" d="M578 129c4.691 1.567 9.443 3.096 14 5 .235.098 1.109.613 2 1l14 13c68.403 77.782 110.886 176.64 131 278-1.496 13.963.58 28.059 1 42-15.601-75.068-66.15-142.255-137-173-116.688-50.636-264.111 3.057-303 128-5.187 3.598-4.376 13.402-6 18.5-.183.576-3.095-.028-4 3-11.761 39.352-7.609 77.015-7 116 .01.619.112 6.475 3 3.5 1.727 22.903 30.992 74.236 46 92.5 21.317 25.943 41.789 35.395 69 52.5 4.655 2.926 17.093 8.971 17 13.5-.444 21.541-31.806 59.981-29 90.5 4.071 44.285 51.952 34.602 83 35-46.214 6.717-89.958 4.099-134.5-15-5.282-2.265-31.122-18.079-33-18-1.998.085-.503 3.181-.5 4-13.851-18.504-24.834-26.994-36-49.5-41.151-82.943-44.223-183.878-45-275 5.18 6.963 9.773 10.784 18.5 12.5 9.343 1.837 12.379-4.687 18 6 4.197-1.095-1.971-10.326-1-13 32.717 35.602-.858-13.963-.5-16.5.05-.352 5.156-4.591 5.5-4.5.876.231 5.277 15.644 7.5 11.5-8.63-25.201-9.057-48.606-7-75 4.327-55.511 25.519-109.714 52.5-157.5-13.397 31.732 5.476 38.391 30 20 46.175-34.628 33.225-94.235-19-36 .385-4.871 24.477-31.996 21-34-27.689 25.495-48.997 57.764-66.5 91l23-59c64.863-89.414 159.725-148.834 273-111M301.5 722c-31.413 1.293-32.424 50.141-3 54 38.893 5.101 40.786-55.555 3-54" style="fill:url(#a)"/>/&gt;<path fill="#09567c" d="M797 382c-2.736.662-2.32 2.066-2 4.5 1.99 15.114 6.453 33.458 9 49.5l-2 5c-25.376-114.45-94.928-256.854-208-306-.891-.387-1.765-.902-2-1-2.424-6.718-16.878-10.339-16-17 115.615 37.002 186.084 155.614 221 265"/><path fill="#6ab7d1" d="M802 441c6.293 28.385 10.184 57.062 13 86l-11 2c-11.953-139.657-76.337-301.148-196-381l-14-13c113.072 49.146 182.624 191.55 208 306"/><path fill="url(#b)" d="M804 529c17.097 199.75-51.749 345.007-263 371 49.506-22.594 97.392-55.042 132-97.5 63.592-78.017 80.648-187.252 77-285.5-1.199-32.285-4.737-59.438-11-91-20.114-101.36-62.597-200.218-131-278 119.663 79.852 184.047 241.343 196 381" style="fill:url(#b)"/>/&gt;<path fill="#fdfefe" d="M304 819c1.614 2.156 3.804 4.296 4.5 7-2.744-.035-5.603-3.215-7.5-5-17.3-16.278-40.742-49.898-52-71-4.25-7.966-7.19-17.255-11-25.5-4.801 2.97 10.263 20.287 4.5 21.5-9.554 2.011-28.085-77.711-29.5-86.5-8.009-49.74-5.393-88.303 2-137.5 11.329-75.394 31.455-155.504 67-223 17.503-33.236 38.811-65.505 66.5-91 3.477 2.004-20.615 29.129-21 34 52.225-58.235 65.175 1.372 19 36-24.524 18.391-43.397 11.732-30-20-26.981 47.786-48.173 101.989-52.5 157.5-2.057 26.394-1.63 49.799 7 75-2.223 4.144-6.624-11.269-7.5-11.5-.344-.091-5.45 4.148-5.5 4.5-.358 2.537 33.217 52.102.5 16.5-.971 2.674 5.197 11.905 1 13-5.621-10.687-8.657-4.163-18-6-8.727-1.716-13.32-5.537-18.5-12.5.777 91.122 3.849 192.057 45 275 11.166 22.506 22.149 30.996 36 49.5"/><path fill="#c2e3ee" d="M282 299c-35.545 67.496-55.671 147.606-67 223-2.041-3.308-5.359-1.678-9-2 10.942-98.737 40.35-199.15 99-280z"/><path fill="#638b9d" d="m603 295-3 9c-109.892-47.807-232.469-1.944-284 105-9.941 20.631-20.67 49.361-24 72-2.403-19.322 2.29-39.654 8-58 38.889-124.943 186.312-178.636 303-128"/><path fill="#a6c3cd" d="M600 304c12.357 5.376 25.966 14.166 37 22-31.885-14.627-65.423-30.598-100.5-33l10.5 5c-68.592-13.015-128.315 1.745-180 49-8.652 7.911-20.66 20.383-28 29.5-8.368 10.394-14.288 22.458-23 32.5 51.531-106.944 174.108-152.807 284-105"/><path fill="#638b9d" d="M637 326c2.748 1.951 6.2 3.516 9 5.5-.436 3.018-2.902-1.385-5 0-1.278.844-2.418 6.591-1 8.5-25.69-19.795-54.234-33.826-86-41-1.907-.431-4.874-.597-7-1l-10.5-5c35.077 2.402 68.615 18.373 100.5 33"/><path fill="#7b959f" d="M547 298c2.126.403 5.093.569 7 1 6.483 3.908 13.318 8.538 20 12l-51-11 4-2.5c-56.872-8.049-115.83 14.094-160 49.5 51.685-47.255 111.408-62.015 180-49"/><path fill="#fdfdfd" d="M523 300c-84.767 14.245-156.755 46.591-199 125-22.427 41.625-25.835 68.708-29 115-.209 3.063-.524 17.472-4 15-.965-24.636-2.623-49.369 1-74 3.33-22.639 14.059-51.369 24-72 8.712-10.042 14.632-22.106 23-32.5 7.34-9.117 19.348-21.589 28-29.5 44.17-35.406 103.128-57.549 160-49.5z"/><path fill="#547b8b" d="M740 468c.148 4.904 5.021 14.857-1 15.5V539c-12.978-81.627-30.209-145.995-99-199-1.418-1.909-.278-7.656 1-8.5 2.098-1.385 4.564 3.018 5 0-2.8-1.984-6.252-3.549-9-5.5-11.034-7.834-24.643-16.624-37-22l3-9c70.85 30.745 121.399 97.932 137 173"/><path fill="#1e3443" d="M640 340c68.791 53.005 86.022 117.373 99 199 .941 5.917 1.166 12.001 1 18-.17-.669-1.378-2.663-2-5-1.994-7.49-3.632-16.276-7.5-23-.807 9.739-1.67 19.4-3.5 29-14.562 76.41-62.624 128.757-132 160-.082.037-.077-1.657-1.5-1-5.524 2.551-.21 6.956-4.5 9-.515-1.393-5.107-9.928-5-10.5 5.701-3.477 12.087-5.429 18-8.5 159.836-83.017 157.215-287.695 6-379-10.915-6.591-22.747-11.17-34-17-6.682-3.462-13.517-8.092-20-12 31.766 7.174 60.31 21.205 86 41"/><path fill="#a0bcc5" d="m523 300 51 11c11.253 5.83 23.085 10.409 34 17-4.07 4.637-6.731 15.488-13 17-194.32-89.241-373.858 153.287-223 308l-5-1c-.525-2.915-28.722-37.856-33-44.5-1.294-2.01-3.386-7.822-5-10.5 3.775-2.538-1.234-5.325-2-7.5-5.856-16.637-14.179-49.572-17-68-1.248-8.156.531-23.316-1-29-.508-1.887-2.306-2.428-4-2.5 3.343-22.247 12.784-43.6 19-65 42.245-78.409 114.233-110.755 199-125"/><path fill="#003351" d="M595 345c64.493 29.618 109.29 98.115 111 169 .056 2.316.025 4.682 0 7-.785 72.582-43.187 140.726-109 172-9.42 4.476-20.909 8.252-31 11-69.637 18.962-143.694.591-194-51-150.858-154.713 28.68-397.241 223-308m-134 14c-.737 6.185 2.811 6.583-3 12-3.456-6.576-8.714-13.611-17.5-12-3.508.643-36.318 24.004-41 28-28.087 23.971-49.107 56.863-57.5 93-9.764 42.04-6.371 72.021 13 110 8.496 16.657 17.528 30.796 31 44-15.765 11.582-7.046 15.137 4.5 25 111.318 95.089 297.549 25.401 306.5-123.5.125-2.08.65-4.675-2-5.5 5.392-43.795-9.994-84.335-37-118-18.399-22.936-34.659-35.898-61-48-44.678-20.527-91.828-28.862-139-10.5-.777 1.488 2.12 4.484 3 5.5"/><path fill="#577785" d="m602 707-5-14c65.813-31.274 108.215-99.418 109-172 18.305-.179 21.006-14.809 0-7-1.71-70.885-46.507-139.382-111-169 6.269-1.512 8.93-12.363 13-17 151.215 91.305 153.836 295.983-6 379"/><path fill="#0d9ebf" d="M597 364c-3.939 31.859-20.211 14.742-40 10-8.048-1.928-15.782-2.989-24-4-.328-.04-.671.038-1 0-3.496-.401-7.409-1.816-11-2-8.071-.413-18.45-.484-26.5 0-7.833.471-18.285 8.108-17-4l-3 6c-2.966-3.81-10.735-7.809-13.5-11-.88-1.016-3.777-4.012-3-5.5 47.172-18.362 94.322-10.027 139 10.5"/><path fill="#0c9ec0" d="M458 371c.812 1.544 3.963 3.492 2.5 5l-13 5-15.5 11c-35.273-6.865-73.414 44.04-64 75-6.566 5.97-2.547 14.607-14 15-2.991.103-8.352-3.62-12-2 8.393-36.137 29.413-69.029 57.5-93 4.682-3.996 37.492-27.357 41-28 8.786-1.611 14.044 5.424 17.5 12"/><path fill="#005e88" d="m521 368 1 35c-11.521-7.551-27.852-5.211-36 6l-16-28.5c.547 2.901 1.861 5.823 3 8.5-5.805 4.52-3.825-5.543-9-1.5l17 36.5c-.064 1.582-.168 3.448 0 5l-10 4c-4.708-16.255-21.543-37.603-39-41l15.5-11 13-5c1.463-1.508-1.688-3.456-2.5-5 5.811-5.417 2.263-5.815 3-12 2.765 3.191 10.534 7.19 13.5 11l3-6c-1.285 12.108 9.167 4.471 17 4 8.05-.484 18.429-.413 26.5 0"/><path fill="#006da7" d="m658 412-74 49c-2.096-3.082-10.018-11.286-13-14 16.869-13.402 13.236-18.723-1-1-7.873-6.812-17.214-12.425-27-16l14-56c19.789 4.742 36.061 21.859 40-10 26.341 12.102 42.601 25.064 61 48m-48.5-14-2 4 3.5-3.5zM591 423c-.148.221-4.393.767-4 3.5 1.815.496 3.133-2.606 4-3.5 5.208-5.368 11.378-13.135 14.5-20-4.736 5.951-11.19 12.418-15.5 18.5-.052.074 1.354.972 1 1.5m9.5 5L585 441.5c3.717-1.41 9.624-5.871 12.5-8.5.215-.197 5.971-4.68 3-5"/><path fill="#005592" d="m532 370-3 40c-.265-.418-6.586-6.729-7-7l-1-35c3.591.184 7.504 1.599 11 2"/><path fill="#0181b7" d="M532 416c-.096-.321-2.783-5.658-3-6l3-40c.329.038.672-.04 1 0z"/><path fill="#005e9c" d="m557 374-14 56c-3.211-1.173-6.724-1.983-10-3 .099-3.619.04-7.518-1-11l1-46c8.218 1.011 15.952 2.072 24 4m-6.5 10-6 26c1.311.339 8.409-23.723 6-26"/><path fill="#0184b7" d="M486 409c-.876 1.205-2.471 4.526-3 6-.945-9.628-6.352-17.427-10-26-1.139-2.677-2.453-5.599-3-8.5z"/><path fill="#10516e" d="M797 382c8.144 25.513 12.787 58.443 21 81 .58 1.594.389 5.492 3 5-2.172 3.08-.562 5.943 0 9 2.098 11.42 3.589 22.47 5 34-2.485 7.933 5.094 49.921-1.5 52-.785.247-4.009.193-4.5-.5-1.395-42.648-9.337-84.542-16-126.5-2.547-16.042-7.01-34.386-9-49.5-.32-2.434-.736-3.838 2-4.5"/><path fill="#0075ae" d="M550.5 384c2.409 2.277-4.689 26.339-6 26z"/><path fill="#005592" d="M473 389c3.648 8.573 9.055 16.372 10 26-1.107 3.086-1.865 5.669-2 9l-17-36.5c5.175-4.043 3.195 6.02 9 1.5"/><path fill="#fefefe" d="M432 392c17.457 3.397 34.292 24.745 39 41 4.303 14.857 2.539 30.042-3 44-1.763 4.442-4.847 13.583-10 15-1.364.375-5.177.037-7 0-7.732-4.645-16.642-3.305-25-4-11.292-.939-20.859-1.051-32-4-6.852-1.814-19.977-7.199-24-13-1.153-1.662-1.394-2.005-2-4-9.414-30.96 28.727-81.865 64-75m90 11c.414.271 6.735 6.582 7 7 .217.342 2.904 5.679 3 6 1.04 3.482 1.099 7.381 1 11-.369 13.538-5.41 19.04-17 25-1.284.66-.935.972-1 1-16.283 4.283-32.209-7.48-34-24-.168-1.552-.064-3.418 0-5 .135-3.331.893-5.914 2-9 .529-1.474 2.124-4.795 3-6 8.148-11.211 24.479-13.551 36-6"/><path fill="#007ab2" d="m609.5 398 1.5.5-3.5 3.5zM591 423c.354-.528-1.052-1.426-1-1.5 4.31-6.082 10.764-12.549 15.5-18.5-3.122 6.865-9.292 14.632-14.5 20"/><path fill="url(#c)" d="M658 412c27.006 33.665 42.392 74.205 37 118-11.269 91.536-114.68 164.538-204 151-30.919-4.686-53.097-17.647-76-38 3.447-8.695 45.653-58.705 45-62.5-.094-.547-7.717-5.867-9-6.5.136-.139.892-1.543 1-2 6.576 5.927 13.889 10.429 22 14-1.987 2.001 3.665 5.619 4.5 6 25.314 11.545 55.895 6.742 79-7 3.443-2.048 16.885-14.238 18-14 .796.17 7.099 12.024 11 12 3.346-.333-6.905-16.89-9.5-17 2.738-2.934 9.035-11.51 11-15l45.5 18c5.112-2.259 3.511-5.382 0-8L590 546c11.436-23.947 11.748-44.193 2-69-1.894-4.819-5.115-11.758-8-16zM454.5 604l-7 14c2.368-3.384 8.297-9.723 7-14" style="fill:url(#c)"/>/&gt;<path fill="#adc5ce" d="M300 423c-5.71 18.346-10.403 38.678-8 58-3.623 24.631-1.965 49.364-1 74l-3-5.5c-.02 4.351-2.31 10.386-2 14.5-2.888 2.975-2.99-2.881-3-3.5-.609-38.985-4.761-76.648 7-116 .905-3.028 3.817-2.424 4-3 1.624-5.098.813-14.902 6-18.5"/><path fill="#007ab2" d="M591 423c-.867.894-2.185 3.996-4 3.5-.393-2.733 3.852-3.279 4-3.5"/><path fill="#4d6b7a" d="M305 490c-3.355 22.33-2.465 42.926 1 65 7.426 47.301 32.496 88.539 68 120 17.907 15.869 37.959 29.122 60 38.5.75 2.174-15.963 32.784-18 37.5 1.605-4.958 12.159-30.935 11-33.5-7.954-4.664-17.19-7.673-25-12.5-57.959-35.817-102.001-95.541-107-165 3.165-46.292 6.573-73.375 29-115-6.216 21.4-15.657 42.753-19 65"/><path fill="#669aae" d="M750 517c-.888 4.806-2.247 58.196-6.5 58-2.551-2.687-1.705-8.303-2.5-12-.315-1.464-.264-3.103-1-6 .166-5.999-.059-12.083-1-18v-55.5c6.021-.643 1.148-10.596 1-15.5-.42-13.941-2.496-28.037-1-42 6.263 31.562 9.801 58.715 11 91"/><path fill="#003e55" d="M543 430c9.786 3.575 19.127 9.188 27 16 .132.114.533.575 1 1 2.982 2.714 10.904 10.918 13 14 2.885 4.242 6.106 11.181 8 16l-2.5 3 5.5 12.5c1.461 7.721.363 13.616 0 18.5-5.299-22.292-15.363-50.644-43.5-47-2.156.279-3.66.104-3.5 3-3.641-3.192-9.09-7.005-13.5-9-5.71-2.583-13.454-2.658-18.5-6 11.59-5.96 16.631-11.462 17-25 3.276 1.017 6.789 1.827 10 3"/><path fill="#048ebb" d="M600.5 428c2.971.32-2.785 4.803-3 5-2.876 2.629-8.783 7.09-12.5 8.5z"/><path fill="#00324a" d="M481 429c1.791 16.52 17.717 28.283 34 24-10.683 4.666-21.332 2.852-31.5 8-8.33 4.218-10.15 9.278-15.5 16 5.539-13.958 7.303-29.143 3-44z"/><path fill="#038bba" d="M571 447c-.467-.425-.868-.886-1-1 14.236-17.723 17.869-12.402 1 1"/><path fill="#002e48" d="M826 511c1.904 15.558 4.122 31.34 5 47 .348 6.204.831 12.843 1 19 .173 6.3.014 12.694 0 19-.06 26.606-1.948 53.227-6 79.5 1.078 3.045 25.2-4.595 28-7.5.182-.188 1.709-.7 2-1.5-4.693-46.951-2.174-94.276-3-141.5-.26-14.847.276-29.705 1-44.5-.328-.819-1.727-1.244-2-1.5-4.125-3.856-24.694-9.344-31-11-2.611.492-2.42-3.406-3-5 7.204.144 35.998 8.007 38 14.5 1.826 5.925-.596 25.78-1 33 11.846 3.991 21.194-1.108 28 12 11.257 21.68 10.058 88.301-3 109-7.55 11.968-21.923 8.469-23 10-2.111 3.003 2.733 22.778 2 26-1.424 6.263-28.367 10.605-34 13C795.803 938.465 416.844 986.302 262 819c40.117 36.696 91.893 67.122 145.5 79 5.537 1.227 17.19 3.779 21.5 1 15.445 3.119 31.182 5.621 47 6-1.349 3.424 5.974 3.866 7.5 4 61.134 5.387 147.451-13.068 201-43C811.466 795.031 827.947 660.044 815 527c-2.816-28.938-6.707-57.615-13-86l2-5c6.663 41.958 14.605 83.852 16 126.5.491.693 3.715.747 4.5.5 6.594-2.079-.985-44.067 1.5-52m30.5 3c-2.136.852.219 40.699 0 46l14.5-44.5c-.794-.909-13.048-2.079-14.5-1.5m31.5 68c.838-17.563.011-37.882-7.5-54-13.088 11.833-8.2 28.369-7.5 44-3.578-2.396-4.407-2.359-9.5-2l-2.5 11c.451-18.704 3.976-44.984 19-57.5l-3.5-4.5c-22.551 26.468-30.053 88.535-2 114 9.533-13.678 12.715-34.555 13.5-51m-32.5 26 .5 29.5c6.051 1.185 11.904.292 17.5-1.5-11.337-6.515-11.325-18.38-18-28"/><path fill="#00323f" d="M548 467c14.866 13.032 22.081 32.123 20 52-4.864 2.294-4.893 10.678-7 14-12.897 20.334-30.661 30.632-55 29-7.03-.471-17.897-3.527-24-7-8.33-4.741-19.412-18.689-22-28-2.193-7.889-2.335-15.372-2-23.5.121-2.937 3.782-8.508 0-11.5 5.153-1.417 8.237-10.558 10-15 5.35-6.722 7.17-11.782 15.5-16 10.168-5.148 20.817-3.334 31.5-8 .065-.028-.284-.34 1-1 5.046 3.342 12.79 3.417 18.5 6 4.41 1.995 9.859 5.808 13.5 9"/><path fill="#182736" d="M203 461c-.322 1.662-.971 2.845-1 3-6.238.124-27.334 5.593-31 10a98 98 0 0 0-2 2.5c-.568 51.907 1.975 104.103 1 156-.125 6.659-4.402 29.261-1 33.5 2.94 3.664 21.589 9.264 27 8 .422 2.999-1.024 2.844-1 3-5.57.268-29.892-6.92-31-11.5-.786-3.25 3.441-23.966 2-26-.774-1.093-15.254.81-22-8-14.527-18.971-16.762-97.263-2-116 6.861-8.709 23.981-5.562 25-7 1.65-2.329-2.155-30.546 1-36 2.509-4.338 29.001-11.8 35-11.5m-38.5 50c-.624-.13-12.33 1.146-12.5 2.5 10.962 13.699 11.779 31.9 14.5 48.5l.5-49.5c-.804-1.108-1.242-1.238-2.5-1.5M155 616c1.027-5.791 4.138-11.612 5-17.5 1.071-7.318-.113-17.655-1-22-.453-2.22.789-9.394-.5-10.5-.361-.309-7.621.037-9.5 0 2.276-12.705 4.182-22.328-2-34-.673-1.27-1.889-6.712-3.5-7-6.82-1.22-8.432 37.481-8.5 42-.233 15.463 1.158 41.596 8 55.5 5.271 10.711 7.874 8.673 14-1 16.712-26.387 9.067-80.959-9.5-105.5-9.636 4.041.731 8.077 3.5 13.5 9.413 18.436 18.065 70.621 4 86.5"/><path fill="#fcfdfe" d="M202 464c-.52 2.768-.466 6.906-1 10-3.503-.508-24.273 5.969-25 7.5-1.998 4.205 1.487 22.793-3 27.5-.306-11.457 1.696-24.515-2-35 3.666-4.407 24.762-9.876 31-10"/><path fill="#01708b" d="M595 511c-.537 7.221.529 15.534-4 22-.205-7.443-8.59-4.63-13-8-1.406-4.092-5.309-8.212-10-6 2.081-19.877-5.134-38.968-20-52-.16-2.896 1.344-2.721 3.5-3 28.137-3.644 38.201 24.708 43.5 47"/><path fill="#0066a1" d="M368 467c.606 1.995.847 2.338 2 4-10.552 12.165 16.462 13.813 24 13 11.141 2.949 20.708 3.061 32 4-1.046 10.026-2.739 19.81-2 30l-36-1c-13.382-1.513-20.255-6.014-34 2.5V482c11.453-.393 7.434-9.03 14-15m19.5 30c.147 3.524 9.617 3.23 11.5 2.5zm21 3c-2.751 1.204 5.08 4.249 6.5 2.5z"/><path fill="#fafcfd" d="M852 479c-1.591 3.348-1.823 7.421-2 11-3.246-11.724-19.155-10.383-29-13-.562-3.057-2.172-5.92 0-9 6.306 1.656 26.875 7.144 31 11"/><path fill="#0cacd0" d="M394 484c-7.538.813-34.552-.835-24-13 4.023 5.801 17.148 11.186 24 13"/><path fill="#9bc9d9" d="M173 509c.477 17.9 1.081 36.107 2 54-1.639 9.078-1.774 18.804-2 28-.616 25.029-.428 50.14-4 75-3.402-4.239.875-26.841 1-33.5.975-51.897-1.568-104.093-1-156a98 98 0 0 1 2-2.5c3.696 10.485 1.694 23.543 2 35"/><path fill="#c8d6dd" d="M201 474c-5.433 31.454-11.3 68.169-12 100-2.282-.481-12.578.654-13.5 0-1.018-.722-.401-9.072-.5-11-.919-17.893-1.523-36.1-2-54 4.487-4.707 1.002-23.295 3-27.5.727-1.531 21.497-8.008 25-7.5m-20.5 82c-2.059.916-2.985 13.668-3.5 16.5l11.5.5c.93-6.348 3.087-21.93-8-17"/><path fill="#002f3f" d="M590 546c-.702 1.47-1.483 4.083-2 5-1.965 3.49-8.262 12.066-11 15-26.602 28.506-67.636 35.569-103 20-8.111-3.571-15.424-8.073-22-14-1.017-.916-2.965-2.918-4-4-10.81-11.293-18.733-25.624-22-41-.48-2.259-.981-1.89-1-2-.263-1.495.177-3.402 0-5-.108-.973-.932-1.057-1-2-.739-10.19.954-19.974 2-30 8.358.695 17.268-.645 25 4-5.197-.106-20.57-4.622-23-.5-2.043 3.465.281 9.581 0 12-2.7 23.276.706 35.256 17 53.5 9.384 10.507 16.907 16.481 30 22 5.069 2.137 9.567 3.853 15 5 15.919 3.36 31.676 3.276 47.5-1 9.191-2.484 38.052-17.347 40.5-27 4.669-4.648 13.18-16.451 13-23 4.529-6.466 3.463-14.779 4-22 .363-4.884 1.461-10.779 0-18.5l-5.5-12.5 2.5-3c9.748 24.807 9.436 45.053-2 69"/><path fill="url(#d)" d="M850 490c-.554 11.231.114 22.737 0 34-.166 16.328-.156 32.71 0 49-.975.087-2.044-.146-3 0-1.017.155-1.569 1.59-2 .5-.55-13.576 1.636-17.41-14-15.5-.878-15.66-3.096-31.442-5-47-1.411-11.53-2.902-22.58-5-34 9.845 2.617 25.754 1.276 29 13" style="fill:url(#d)"/>/&gt;<path fill="url(#e)" d="M354 482v37.5c13.745-8.514 20.618-4.013 34-2.5.124.014.712 1.917 1.5 2 11.093 1.171 24.074-.74 35.5 1 .177 1.598-.263 3.505 0 5l-37 3.5 38-1.5c3.267 15.376 11.19 29.707 22 41-1.993.932 2.105 2.319 1 4.5-.586 1.156-16.88 13.553-20 16.5-11.396 10.765-24.392 22.095-32 36-10.523-12.527-18.736-26.605-26.5-41-4.642 4.96-7.983 9.598-15.5 6-19.371-37.979-22.764-67.96-13-110 3.648-1.62 9.009 2.103 12 2m72.5 74c-2.187.095-13.41 6.198-15.5 8.5 6.318-1.51 12.402-5.315 18-8-.233-.76-1.642-.537-2.5-.5m7 22c-10.498 9.554-22.15 17.868-30.5 29.5 10.632-9.009 22.365-18.259 30.5-29.5" style="fill:url(#e)"/>/&gt;<path fill="#5b98b1" d="m853 525-3-1c.114-11.263-.554-22.769 0-34 .177-3.579.409-7.652 2-11 .273.256 1.672.681 2 1.5-.724 14.795-1.26 29.653-1 44.5"/><path fill="#004358" d="M451 492c1.823.037 5.636.375 7 0 3.782 2.992.121 8.563 0 11.5-.335 8.128-.193 15.611 2 23.5-14.367 4.45-12.152 18.514-15 30-16.294-18.244-19.7-30.224-17-53.5.281-2.419-2.043-8.535 0-12 2.43-4.122 17.803.394 23 .5"/><path fill="#bfd8df" d="M329 597c-5.176-8.588-14.062-20.703-18-29.5-1.435-3.205-.356-10.969-5-12.5-3.465-22.074-4.355-42.67-1-65 1.694.072 3.492.613 4 2.5 1.531 5.684-.248 20.844 1 29 2.821 18.428 11.144 51.363 17 68 .766 2.175 5.775 4.962 2 7.5"/><path fill="#007bb0" d="m387.5 497 11.5 2.5c-1.883.73-11.353 1.024-11.5-2.5"/><path fill="#0081b6" d="m408.5 500 6.5 2.5c-1.42 1.749-9.251-1.296-6.5-2.5"/><path fill="#506d7d" d="M164.5 511c1.258.262 1.696.392 2.5 1.5l-.5 49.5c-2.721-16.6-3.538-34.801-14.5-48.5.17-1.354 11.876-2.63 12.5-2.5"/><path fill="#426070" d="M706 521c.025-2.318.056-4.684 0-7 21.006-7.809 18.305 6.821 0 7"/><path fill="#445e6f" d="M856.5 514c1.452-.579 13.706.591 14.5 1.5L856.5 560c.219-5.301-2.136-45.148 0-46"/><path fill="#96ccde" d="m135 567 2-1c-.924 7.757 3.827 52.261 11.5 54 3.745.848 4.618-1.875 6.5-4 14.065-15.879 5.413-68.064-4-86.5-2.769-5.423-13.136-9.459-3.5-13.5 18.567 24.541 26.212 79.113 9.5 105.5-6.126 9.673-8.729 11.711-14 1-6.842-13.904-8.233-40.037-8-55.5"/><path fill="#0188b8" d="M424 518c.068.943.892 1.027 1 2-11.426-1.74-24.407.171-35.5-1-.788-.083-1.376-1.986-1.5-2z"/><path fill="url(#f)" d="M541 900c-20.775 2.556-44.803 5.484-65 5-15.818-.379-31.555-2.881-47-6-53.869-10.879-105.218-35.065-145-73l2-3c6.167 4.949 7.178-.562 15-2 1.897 1.785 4.756 4.965 7.5 5-.696-2.704-2.886-4.844-4.5-7-.003-.819-1.498-3.915.5-4 1.878-.079 27.718 15.735 33 18 44.542 19.099 88.286 21.717 134.5 15 27.605.354 112.001 4.781 133.5-1 18.499-4.974 29.499-32.882 28.5-50.5-.495-8.734-6.199-16.094-9-23.5-6.03-15.941-12.914-31.534-19-47.5 54.003-27.671 101.099-72.568 123-130 3.697-9.695 4.919-22.447 8-31 1.148-3.187 1.486-1.895 4-1.5.795 3.697-.051 9.313 2.5 12 4.253.196 5.612-53.194 6.5-58 3.648 98.248-13.408 207.483-77 285.5-34.608 42.458-82.494 74.906-132 97.5m126.5-172c-31.21 1.544-32.527 49.392-4 54 39.568 6.391 42.402-55.9 4-54" style="fill:url(#f)"/>/&gt;<path fill="#fafdfd" d="M578 525c1.984 5.774.144 18.439-4 23-10.247 11.276-12.506-8.284-13-15 2.107-3.322 2.136-11.706 7-14 4.691-2.212 8.594 1.908 10 6"/><path fill="#95cbde" d="M861 581c-.158 6.56.36 44.238 12.5 42 9.174-1.691 12.657-47.673 11.5-56l2-3.5 1 18.5c-.785 16.445-3.967 37.322-13.5 51-28.053-25.465-20.551-87.532 2-114l3.5 4.5c-15.024 12.516-18.549 38.796-19 57.5"/><path fill="#9cd9e9" d="M215 522c-7.393 49.197-10.009 87.76-2 137.5 1.415 8.789 19.946 88.511 29.5 86.5 5.763-1.213-9.301-18.53-4.5-21.5 3.81 8.245 6.75 17.534 11 25.5l-11 6c-3.167-5.888-7.237-11.955-10-18-2.288-5.007-5.113-11.39-7-16.5-1.25-3.384.696-11.116-5-8.5-14.132-71.543-18.131-119.633-10-193 3.641.322 6.959-1.308 9 2"/><path fill="#0c9fc4" d="M425 525c.019.11.52-.259 1 2l-38 1.5z"/><path fill="#86bed1" d="M853 525c.826 47.224-1.693 94.549 3 141.5-.291.8-1.818 1.312-2 1.5-5.068-31.424-3.696-63.267-4-95-.156-16.29-.166-32.672 0-49z"/><path fill="#73a9bf" d="M147 532c-.094 1.751-2.319 1.406-2.5 3-1.117 9.826 1.308 21.959.5 32-.16 1.992-.556 8.063-2.5 9l-2.5-15.5c-2.682-1.604-2.885 4.534-3 5.5l-2 1c.068-4.519 1.68-43.22 8.5-42 1.611.288 2.827 5.73 3.5 7"/><path fill="#0795b4" d="M591 533c.18 6.549-8.331 18.352-13 23 1.255-4.951-.823-4.851-4-8 4.144-4.561 5.984-17.226 4-23 4.41 3.37 12.795.557 13 8"/><path fill="#01708b" d="M460 527c2.588 9.311 13.67 23.259 22 28l-7 24c-13.093-5.519-20.616-11.493-30-22 2.848-11.486.633-25.55 15-30"/><path fill="#2997c4" d="M476 905c20.197.484 44.225-2.444 65-5 211.251-25.993 280.097-171.25 263-371l11-2c12.947 133.044-3.534 268.031-130.5 339-53.549 29.932-139.866 48.387-201 43-1.526-.134-8.849-.576-7.5-4"/><path fill="#68a2b9" d="m888 582-1-18.5-2 3.5c-.225-1.619-.257-2.99-1-4.5-2.854-2.297-1.553 16.491-5.5 17.5-.289-1.954-4.349-7.229-5.5-8-.7-15.631-5.588-32.167 7.5-44 7.511 16.118 8.338 36.437 7.5 54"/><path fill="#507282" d="m738 552-3-2.5-4.5 14.5-3.5-6c1.83-9.6 2.693-19.261 3.5-29 3.868 6.724 5.506 15.51 7.5 23"/><path fill="#005e88" d="M386 634c24.837 24.343 63.851 44.37 98.5 49 1.404.188 7.012 1.018 6.5-2 89.32 13.538 192.731-59.464 204-151 2.65.825 2.125 3.42 2 5.5-8.951 148.901-195.182 218.589-306.5 123.5-11.546-9.863-20.265-13.418-4.5-25"/><path fill="#588398" d="M149 566c-.814-.016-2.195 1.732-4 1 .808-10.041-1.617-22.174-.5-32 .181-1.594 2.406-1.249 2.5-3 6.182 11.672 4.276 21.295 2 34"/><path fill="#15b3d2" d="M574 548c3.177 3.149 5.255 3.049 4 8-2.448 9.653-31.309 24.516-40.5 27-15.824 4.276-31.581 4.36-47.5 1l17 .5-1-22.5c24.339 1.632 42.103-8.666 55-29 .494 6.716 2.753 26.276 13 15"/><path fill="#9ebdc7" d="m402 705-1 4c-27.211-17.105-47.683-26.557-69-52.5-15.008-18.264-44.273-69.597-46-92.5-.31-4.114 1.98-10.149 2-14.5l3 5.5c3.476 2.472 3.791-11.937 4-15 4.999 69.459 49.041 129.183 107 165"/><path fill="#32b3d4" d="M588 551c.517-.917 1.298-3.53 2-5l43.5 15c3.511 2.618 5.112 5.741 0 8z"/><path fill="#5b7d8c" d="M738 552c.622 2.337 1.83 4.331 2 5 .736 2.897.685 4.536 1 6-2.514-.395-2.852-1.687-4 1.5-3.081 8.553-4.303 21.305-8 31-21.901 57.432-68.997 102.329-123 130 6.086 15.966 12.97 31.559 19 47.5l-12 2c-3.555-9.828-21.42-46.977-21-53.5.104-1.607 1.586-2.954 3-3.5 69.376-31.243 117.438-83.59 132-160l3.5 6 4.5-14.5z"/><path fill="#9ab7c2" d="M329 597c1.614 2.678 3.706 8.49 5 10.5 4.278 6.644 32.475 41.585 33 44.5.717 3.982-2.193 10.022-2 11.5.431 3.305 8.644 7.461 9 11.5-35.504-31.461-60.574-72.699-68-120 4.644 1.531 3.565 9.295 5 12.5 3.938 8.797 12.824 20.912 18 29.5"/><path fill="#0795b4" d="m506 562 1 22.5-17-.5c-5.433-1.147-9.931-2.863-15-5l7-24c6.103 3.473 16.97 6.529 24 7"/><path fill="#9ab1be" d="M180.5 556c11.087-4.93 8.93 10.652 8 17l-11.5-.5c.515-2.832 1.441-15.584 3.5-16.5"/><path fill="#028dbe" d="M426.5 556c.858-.037 2.267-.26 2.5.5-5.598 2.685-11.682 6.49-18 8 2.09-2.302 13.313-8.405 15.5-8.5"/><path fill="#708f9e" d="M847 573c.084.633-.161 1.561 0 2-3.496 3.705-10.125 1.377-15 2-.169-6.157-.652-12.796-1-19 15.636-1.91 13.45 1.924 14 15.5.431 1.09.983-.345 2-.5"/><path fill="#08121e" d="M145 567c1.805.732 3.186-1.016 4-1 1.879.037 9.139-.309 9.5 0 1.289 1.106.047 8.28.5 10.5.887 4.345 2.071 14.682 1 22-.862 5.888-3.973 11.709-5 17.5-1.882 2.125-2.755 4.848-6.5 4-7.673-1.739-12.424-46.243-11.5-54 .115-.966.318-7.104 3-5.5l2.5 15.5c1.944-.937 2.34-7.008 2.5-9"/><path fill="#07111e" d="M885 567c1.157 8.327-2.326 54.309-11.5 56-12.14 2.238-12.658-35.44-12.5-42l2.5-11c5.093-.359 5.922-.396 9.5 2 1.151.771 5.211 6.046 5.5 8 3.947-1.009 2.646-19.797 5.5-17.5.743 1.51.775 2.881 1 4.5"/><path fill="#5e7a89" d="M189 574c-.137 6.222.917 13.536 1 20l-17-3c.226-9.196.361-18.922 2-28 .099 1.928-.518 10.278.5 11 .922.654 11.218-.481 13.5 0"/><path fill="#74ccd8" d="M474 586c35.364 15.569 76.398 8.506 103-20 2.595.11 12.846 16.667 9.5 17-3.901.024-10.204-11.83-11-12-1.115-.238-14.557 11.952-18 14-23.105 13.742-53.686 18.545-79 7-.835-.381-6.487-3.999-4.5-6"/><path fill="#2fb7d1" d="M452 572c-.108.457-.864 1.861-1 2-5.82 5.949-14.496 11.416-22 15 3.12-2.947 19.414-15.344 20-16.5 1.105-2.181-2.993-3.568-1-4.5 1.035 1.082 2.983 3.084 4 4"/><path fill="#314d5f" d="M850 573c.304 31.733-1.068 63.576 4 95-2.8 2.905-26.922 10.545-28 7.5 4.052-26.273 5.94-52.894 6-79.5 2.214-.052 15.533-1.838 16-2.5.815-1.156-.142-16.166-1-18.5-.161-.439.084-1.367 0-2 .956-.146 2.025.087 3 0"/><path fill="#0b92c0" d="M415 643c-6.309-5.607-12.565-11.53-18-18 7.608-13.905 20.604-25.235 32-36 7.504-3.584 16.18-9.051 22-15 1.283.633 8.906 5.953 9 6.5.653 3.795-41.553 53.805-45 62.5m24.5-54L424 604.5 412.5 622l14.5-17.5z"/><path fill="#4b6879" d="M832 596c.014-6.306.173-12.7 0-19 4.875-.623 11.504 1.705 15-2 .858 2.334 1.815 17.344 1 18.5-.467.662-13.786 2.448-16 2.5"/><path fill="#0493c2" d="M433.5 578c-8.135 11.241-19.868 20.491-30.5 29.5 8.35-11.632 20.002-19.946 30.5-29.5"/><path fill="#016192" d="M397 625c5.435 6.47 11.691 12.393 18 18 22.903 20.353 45.081 33.314 76 38 .512 3.018-5.096 2.188-6.5 2-34.649-4.63-73.663-24.657-98.5-49-13.472-13.204-22.504-27.343-31-44 7.517 3.598 10.858-1.04 15.5-6 7.764 14.395 15.977 28.473 26.5 41"/><path fill="#10a1ca" d="M439.5 589 427 604.5 412.5 622l11.5-17.5z"/><path fill="#324f60" d="M190 594c.342 26.58 2.301 53.688 6 80-5.411 1.264-24.06-4.336-27-8 3.572-24.86 3.384-49.971 4-75z"/><path fill="#20b4d5" d="M454.5 604c1.297 4.277-4.632 10.616-7 14z"/><path fill="#162839" d="M855.5 608c6.675 9.62 6.663 21.485 18 28-5.596 1.792-11.449 2.685-17.5 1.5z"/><path fill="#95b7c6" d="M372 653c50.306 51.591 124.363 69.962 194 51 4.49 5.834 38.159 68.024 33.5 71H408c2.461-7.953 5.413-16.007 8-24 2.037-4.716 18.75-35.326 18-37.5-22.041-9.378-42.093-22.631-60-38.5-.356-4.039-8.569-8.195-9-11.5-.193-1.478 2.717-7.518 2-11.5z"/><path fill="#648694" d="m597 693 5 14c-5.913 3.071-12.299 5.023-18 8.5-.107.572 4.485 9.107 5 10.5 7.841 21.202 19.021 40.913 25 63-.753 1.949-1.977 8.347-2 10-1.771-7.382-7.404-12.787-13.5-17h-182c-14.836 6.648-14.162 24.288-13 38-10.198-14.052-.034-30.35 4.5-45h191.5c4.659-2.976-29.01-65.166-33.5-71 10.091-2.748 21.58-6.524 31-11"/><path fill="#7ca0ad" d="M416 751c-8.883 20.563-22.835 48.02-18 70-2.881-3.713-2.503-9.859-9-8-2.806-30.519 28.556-68.959 29-90.5.093-4.529-12.345-10.574-17-13.5l1-4c7.81 4.827 17.046 7.836 25 12.5 1.159 2.565-9.395 28.542-11 33.5"/><path fill="#177092" d="M228 738c-2.475 3.782 2.981 14.134 5 18.5 11.821 25.555 30.729 50.169 51 69.5 39.782 37.935 91.131 62.121 145 73-4.31 2.779-15.963.227-21.5-1-53.607-11.878-105.383-42.304-145.5-79-23.711-25.619-44.139-58.019-53-92 3.005 7.262 6.038 15.904 11.5 21 2.628-1.864-3.417-29.517-4.5-35 5.696-2.616 3.75 5.116 5 8.5 1.887 5.11 4.712 11.493 7 16.5"/><path fill="#061725" d="M595 718c-1.414.546-2.896 1.893-3 3.5-.42 6.523 17.445 43.672 21 53.5 6.527 18.042 18.114 40.629-3.5 55-12.208 8.117-68.656 6.658-86.5 7-22.474.431-93.125 3.452-110-3h38c37.625 1.217 75.388-1.092 113-1 11.463.084 25.537 1.378 36-2 21.419-6.915 18.591-25.041 14-42-5.979-22.087-17.159-41.798-25-63 4.29-2.044-1.024-6.449 4.5-9 1.423-.657 1.418 1.037 1.5 1"/><path fill="#032231" d="M301.5 722c37.786-1.555 35.893 59.101-3 54-29.424-3.859-28.413-52.707 3-54M281 749c-.105 2.976.909 6.263 2 9 .921 2.31 3.177 5.344 5 7 9.276 8.427 22.257 8.181 31-1 5.259-5.523 5.436-8.227 5-15-1.977-30.721-42.069-26.282-43 0"/><path fill="#26e5fa" d="m324 749-4.5 7c-1.062-.514 1.114-2.713-3.5-5-7.731-3.831-29.696-6.81-16.5-20-2.448-.096-7.146 1.714-9 3-6.081 4.221-5.262 10.28-9.5 15 .931-26.282 41.023-30.721 43 0"/><path fill="#012337" d="M667.5 728c38.402-1.9 35.568 60.391-4 54-28.527-4.608-27.21-52.456 4-54M648 754c-.718 8.285 1.039 11.681 7 17 8.31 7.415 19.977 9.476 27.5 0-8.15 3.661-13.592 6.041-22.5 2 13.789 1.113 23.417-.798 28-15 8.347-25.867-37.19-36.441-40-4"/><path fill="#0078b2" d="M316 751c-8.741 7.192-21.3 2.828-33 7-1.091-2.737-2.105-6.024-2-9 4.238-4.72 3.419-10.779 9.5-15 1.854-1.286 6.552-3.096 9-3-13.196 13.19 8.769 16.169 16.5 20"/><path fill="#1d849a" d="M688 758c-10.888-.945-38.236-9.912-19.5-22-11.962-1.177-16.582 8.362-20.5 18 2.81-32.441 48.347-21.867 40 4"/><path fill="#005079" d="M688 758c-4.583 14.202-14.211 16.113-28 15-1.608-.729-3.112-2-5-2-5.961-5.319-7.718-8.715-7-17 3.918-9.638 8.538-19.177 20.5-18-18.736 12.088 8.612 21.055 19.5 22"/><path fill="#72a3b5" d="M238 756c9.678 17.996 32.549 54.599 48 67l-2 3c-20.271-19.331-39.179-43.945-51-69.5-2.019-4.366-7.475-14.718-5-18.5 2.763 6.045 6.833 12.112 10 18"/><path fill="#005385" d="m319 764-11.5 5c-7.386 1.521-12.75-2.441-19.5-4-1.823-1.656-4.079-4.69-5-7 11.7-4.172 24.259.192 33-7 4.614 2.287 2.438 4.486 3.5 5l4.5-7c.436 6.773.259 9.477-5 15"/><path fill="#9cc8d7" d="M249 750c11.258 21.102 34.7 54.722 52 71-7.822 1.438-8.833 6.949-15 2-15.451-12.401-38.322-49.004-48-67z"/><path fill="#002536" d="M408 775c-4.534 14.65-14.698 30.948-4.5 45-1.162-13.712-1.836-31.352 13-38h182c6.096 4.213 11.729 9.618 13.5 17-.149 10.588 1.132 27.029-13 31-14.366 4.037-7.907-3.147-7-11 1.047-9.065 2.998-13.191-3-21-6.238-8.121-10.126-5.483-19-6-44.431-2.59-91.314 1.936-136 0-13.1 5.509-12.853 15.923-10 28 4.576 19.372 9.352 13.429 27 14h-38c-8.205-3.137-9.913-6.445-15-13-4.835-21.98 9.117-49.437 18-70-2.587 7.993-5.539 16.047-8 24"/><path fill="#0998ba" d="M319 764c-8.743 9.181-21.724 9.427-31 1 6.75 1.559 12.114 5.521 19.5 4z"/><path fill="#15acc9" d="M660 773c8.908 4.041 14.35 1.661 22.5-2-7.523 9.476-19.19 7.415-27.5 0 1.888 0 3.392 1.271 5 2"/><path fill="#3a5e70" d="M625 773c2.801 7.406 8.505 14.766 9 23.5.999 17.618-10.001 45.526-28.5 50.5-21.499 5.781-105.895 1.354-133.5 1 10.148-1.475 20.311-3.467 30.5-5l20.5-6c17.844-.342 74.292 1.117 86.5-7 21.614-14.371 10.027-36.958 3.5-55z"/><path fill="#95bfcd" d="m600 831-1-1c14.132-3.971 12.851-20.412 13-31 .023-1.653 1.247-8.051 2-10 4.591 16.959 7.419 35.085-14 42"/><path fill="#048bbf" d="M434 792c.101 3.869.129 9.306 1 13 1.333 5.655 4.239 9.222 7 14-5.115-.124-12.802.433-18 1-2.853-12.077-3.1-22.491 10-28"/><path fill="#5beff9" d="M570 792c8.408.247 7.52 7.521 3.5 13H435c-.871-3.694-.899-9.131-1-13 44.686 1.936 91.569-2.59 136 0"/><path fill="#1bcdf6" d="m589 798-5-1.5c-.988 8.082-2.382 15.231-6 22.5-19.075.894-37.906.934-57 1-26.39.092-52.643-.361-79-1-2.761-4.778-5.667-8.345-7-14h138.5c4.02-5.479 4.908-12.753-3.5-13 8.874.517 12.762-2.121 19 6"/><path fill="#099dcf" d="M589 798c5.998 7.809 4.047 11.935 3 21-4.598.292-9.464-.213-14 0 3.618-7.269 5.012-14.418 6-22.5z"/><path fill="#5d8291" d="M398 821c5.087 6.555 6.795 9.863 15 13 16.875 6.452 87.526 3.431 110 3l-20.5 6c-10.189 1.533-20.352 3.525-30.5 5-31.048-.398-78.929 9.285-83-35 6.497-1.859 6.119 4.287 9 8"/><path fill="#095a7f" d="M442 819c26.357.639 52.61 1.092 79 1 .525 2.046 1.382 11.396 2.5 12 1.782.963 35.272.961 40.5 1-37.612-.092-75.375 2.217-113 1-17.648-.571-22.424 5.372-27-14 5.198-.567 12.885-1.124 18-1"/><path fill="#18698b" d="M592 819c-.907 7.853-7.366 15.037 7 11l1 1c-10.463 3.378-24.537 2.084-36 2-5.228-.039-38.718-.037-40.5-1-1.118-.604-1.975-9.954-2.5-12 19.094-.066 37.925-.106 57-1 4.536-.213 9.402.292 14 0"/></svg>