<svg xmlns="http://www.w3.org/2000/svg" width="1024" height="1024"><defs><linearGradient id="a" x1="479.705" x2="537.597" y1="190.195" y2="212.387" gradientUnits="userSpaceOnUse"><stop offset="0%" style="stop-color:#0eb0de"/><stop offset="100%" style="stop-color:#0881ab"/></linearGradient></defs><defs><linearGradient id="b" x1="615.755" x2="748.48" y1="227.783" y2="261.742" gradientUnits="userSpaceOnUse"><stop offset="0%" style="stop-color:#6d91a2"/><stop offset="100%" style="stop-color:#587c8d"/></linearGradient></defs><defs><linearGradient id="c" x1="338.654" x2="314.353" y1="311.183" y2="863.648" gradientUnits="userSpaceOnUse"><stop offset="37.975%" style="stop-color:#d4e4ec"/><stop offset="100%" style="stop-color:#a3bfcd"/></linearGradient></defs><defs><linearGradient id="d" x1="682.826" x2="890.581" y1="437.256" y2="557.412" gradientUnits="userSpaceOnUse"><stop offset="0%" style="stop-color:#6c8e9f"/><stop offset="100%" style="stop-color:#4a7083"/></linearGradient></defs><defs><linearGradient id="e" x1="580.463" x2="759.436" y1="612.897" y2="708.698" gradientUnits="userSpaceOnUse"><stop offset="0%" style="stop-color:#82a5b5"/><stop offset="100%" style="stop-color:#608597"/></linearGradient></defs><defs><linearGradient id="f" x1="380.016" x2="651.106" y1="405.886" y2="700.011" gradientUnits="userSpaceOnUse"><stop offset="0%" style="stop-color:#c7ecf3"/><stop offset="19.5%" style="stop-color:#83d9e9"/><stop offset="100%" style="stop-color:#1f9cbe"/></linearGradient></defs><defs><linearGradient id="g" x1="591.905" x2="687.151" y1="606.942" y2="679.937" gradientUnits="userSpaceOnUse"><stop offset="0%" style="stop-color:#066590"/><stop offset="100%" style="stop-color:#004e7a"/></linearGradient></defs><defs><linearGradient id="h" x1="641.329" x2="393.078" y1="442.829" y2="643.159" gradientUnits="userSpaceOnUse"><stop offset="13.793%" style="stop-color:#4ab9d8"/><stop offset="37.931%" style="stop-color:#0f81a9"/><stop offset="87.461%" style="stop-color:#239cc2"/></linearGradient></defs><defs><linearGradient id="i" x1="487.885" x2="553.094" y1="449.301" y2="574.316" gradientUnits="userSpaceOnUse"><stop offset="0%" style="stop-color:#006477"/><stop offset="100%" style="stop-color:#001222"/></linearGradient></defs><defs><linearGradient id="j" x1="592.537" x2="626.186" y1="551.672" y2="619.817" gradientUnits="userSpaceOnUse"><stop offset="0%" style="stop-color:#39c1df"/><stop offset="100%" style="stop-color:#0fa5ca"/></linearGradient></defs><defs><linearGradient id="k" x1="544.309" x2="558.388" y1="585.08" y2="630.969" gradientUnits="userSpaceOnUse"><stop offset="0%" style="stop-color:#002d3f"/><stop offset="100%" style="stop-color:#001020"/></linearGradient></defs><path fill="#02273d" d="M770 275c.103.774-.236 1.067-1 1-5.049-.441-11.095 13.095-14 17-4.164 5.597-8.533 11.675-13 17-11.179 13.326-24.036 26.407-37 38-3.296 2.948-24.562 16.719-24 20.5 108.525 98.356 103.761 266.595-6 362.5-52.182 45.595-117.876 66.313-187 60-29.902-2.731-52.863-9.495-80-22l1-2c104.045 47.549 227.485 16.278 297-73.5 95.233-122.992 50.952-300.572-90-364.5-10.762-4.881-23.626-9.784-35-13l3-2c17.847 5.283 35.16 11.997 51.5 21 5.557 3.062 30.081 21.707 32 22 5.828.889 27.857-13.251 33.5-17 18.914-12.568 48.102-40.009 58-60.5 5.09-10.538-1.59-11.772-10-18.5-32.797-35.137-85.008-61.225-129.5-78-1.805.426-8.784 17.909-10.5 21-8.987 16.187-19.203 32.408-33 45-8.272 7.55-18.635 14.767-29 19-74.305 30.345-108.596-23.695-140-77-.914-1.551-3.36-7.731-4.5-8-4.5 2.472-9.762 3.265-14.5 5l-3-2c25.19-10.259 65.424-18.68 84.5-36 3.064-2.782 14.472-40.012 20.5-49.5 12.409-19.53 22.51-21.93 36-1 6.104 9.47 17.206 46.226 20.5 49.5 1.525 1.515 10.468 4.274 13 6 23.598 16.087 40.839 16.361 67 26 53.152 19.584 104.154 53.469 143.5 94M485 145c10.627-1.706 17.794-3.439 29-3 7.91.31 16.234 2.861 24 4 1.367.201 4.386 1.84 5 .5-4.493-13.184-18.774-53.968-33-57.5-.95-.236-2.05-1.587-4.5-1-11.043 2.647-29.147 46.717-30.5 58.5.995 1.351 8.196-1.21 10-1.5m-28 85c25.376 24.91 80.541 27.769 104-1 29.751-31.712 19.793-65.883-21-79-11.927-3.835-22.332-5.402-35-5-49.324 1.567-91.962 41.845-48 85m-33-56c-2.837 1.057-16.523 6.089-17 8.5 12.549 30.119 31.084 62.871 61 78.5 56.034 29.273 104.899-1.419 133-51 5.119-9.031 9.734-18.032 14-27.5-3.104-4.158-8.907-3.801-13-5.5-2.721-1.129-22.567-9.835-24-7.5 21.068 65.001-59.463 104.094-111.5 72.5-6.41-3.892-12.59-12.397-17.5-15-12.782-18.031-18.51-38.49-6-58.5-6.317 1.606-12.887 3.223-19 5.5"/><path fill="#99f6fb" d="m510 89-1 3c-.304-.065-.678.013-1 0-1.069-.044-3.993-.237-4.5 0-5.776 2.704-16.558 44.562-18.5 53-1.804.29-9.005 2.851-10 1.5 1.353-11.783 19.457-55.853 30.5-58.5 2.45-.587 3.55.764 4.5 1"/><path fill="#0594b8" d="M538 146c-3.324-10.618-18.351-51.73-29-54l1-3c14.226 3.532 28.507 44.316 33 57.5-.614 1.34-3.633-.299-5-.5"/><path fill="#03a6cc" d="M508 92c8.504 15.339 5.336 33.341 6 50-11.206-.439-18.373 1.294-29 3 1.942-8.438 12.724-50.296 18.5-53 .507-.237 3.431-.044 4.5 0"/><path fill="#015e81" d="M538 146c-7.766-1.139-16.09-3.69-24-4-.664-16.659 2.504-34.661-6-50 .322.013.696-.065 1 0 10.649 2.27 25.676 43.382 29 54"/><path fill="#61e0f7" d="M505 145c1.038 2.302 6.016-.007 7 1.5.18.275-2.115 4.467-1 6.5-30.719.669-67.967 25.723-60 60.5 1.257 5.489 9.232 12.335 6 16.5-43.962-43.155-1.324-83.433 48-85"/><path fill="#0dadd6" d="m540 150-3 8c-8.124-3.081-17.22-5.191-26-5-1.115-2.033 1.18-6.225 1-6.5-.984-1.507-5.962.802-7-1.5 12.668-.402 23.073 1.165 35 5"/><path fill="#018bb7" d="M561 229c21.097-25.872 4.095-60.344-24-71l3-8c40.793 13.117 50.751 47.288 21 79"/><path fill="url(#a)" d="M511 153c8.78-.191 17.876 1.919 26 5 28.095 10.656 45.097 45.128 24 71-23.459 28.769-78.624 25.91-104 1 3.232-4.165-4.743-11.011-6-16.5-7.967-34.777 29.281-59.831 60-60.5m-39.5 24c-13.509 1.209-23.035 27.056-8 29 18.693 2.417 28.206-30.808 8-29" style="fill:url(#a)"/>/&gt;<path fill="#c1d1d9" d="M449 227c-1.017-.539-3.298-1.995-3.5-2-.594-.014-.11 2.79-2.5 2-11.005-16.415-16.091-33.536-19-53 6.113-2.277 12.683-3.894 19-5.5-12.51 20.01-6.782 40.469 6 58.5"/><path fill="#607a86" d="M602 177c-2.54 9.533-4.234 19.846-8 29-19.897 48.356-76.32 74.977-124 48-9.477-5.362-20.964-17.997-27-27 2.39.79 1.906-2.014 2.5-2 .202.005 2.483 1.461 3.5 2 4.91 2.603 11.09 11.108 17.5 15 52.037 31.594 132.568-7.499 111.5-72.5 1.433-2.335 21.279 6.371 24 7.5"/><path fill="#ebf1f4" d="M443 227c6.036 9.003 17.523 21.638 27 27l-2 7c-29.916-15.629-48.451-48.381-61-78.5.477-2.411 14.163-7.443 17-8.5 2.909 19.464 7.995 36.585 19 53"/><path fill="#fbfeff" d="M471.5 177c20.206-1.808 10.693 31.417-8 29-15.035-1.944-5.509-27.791 8-29"/><path fill="#516d79" d="m601 210-7-4c3.766-9.154 5.46-19.467 8-29 4.093 1.699 9.896 1.342 13 5.5-4.266 9.468-8.881 18.469-14 27.5"/><path fill="#f4f8fa" d="M407 191c-44.064 18.829-86.927 42.551-122.5 75-5.952 5.429-14.504 13.041-17.5 20-1.636-2.553-8.524-9.441-8-12.5 35.373-34.062 82.557-68.492 129-85.5 4.738-1.735 10-2.528 14.5-5 1.14.269 3.586 6.449 4.5 8"/><path fill="url(#b)" d="M749 261c2.06 2.207 11.437 11.099 11 13.5L735.5 307c-26.564-35.97-61.864-65.66-100.5-88-8.614-4.981-18.855-8.037-26-15 1.716-3.091 8.695-20.574 10.5-21 44.492 16.775 96.703 42.863 129.5 78" style="fill:url(#b)"/>/&gt;<path fill="#003049" d="m385 186 3 2c-46.443 17.008-93.627 51.438-129 85.5-.524 3.059 6.364 9.947 8 12.5 20.182 31.484 50.166 56.159 84.5 71 4.809.223 19.356-12.677 25-16 65.691-38.68 133.646-48.864 207.5-27l-3 2c-83.14-23.509-171.647-4.492-236 53-1.434.979-4.765-.087-5 0 1.582-2.007-.114-2.729-1.5-4-30.183-27.665-48.75-41.091-74.5-75-1.682-2.215-7.044-12.246-9.5-12-47.181 48.144-79.707 106.012-97.5 171l-2-2c.322-1.152 1.929-3.817 1.5-4-22.525 3.538-30.805-2.815-36.5 22-3.314 14.44-5.585 35.96-7 51-1.063 11.302-1.545 22.65-2 34-.423 10.544-1.097 21.475-1 32 .062 6.744.694 14.168 1 21l-1-102c.364-3.625 2.01-7.269.5-11-20.935.695-15.421 18.521-16.5 35-.929 14.188-1.773 28.797-2 43-.095 5.979-.021 12.02 0 18 .017 4.649-.104 9.354 0 14l-3-72c.49-5.766.935-11.793 2-17.5-1.57-3.122-9.96 4.776-11 5.5-25.512 17.774-37.2 49.527-30 80 .33 1.395.688 1.963 1 3 4.104 13.66 20.461 34.715 32 43-48.576-24.784-51.194-94.676-9.5-128 3.566-2.85 16.936-8.68 17.5-9.5 1.58-2.299.104-9.267 5.5-13.5 3.922-3.076 13.631-3.294 16.5-7.5 4.596-6.738 1.8-28.246 9.5-35.5 7.03-6.623 29.353-4.156 33.5-8.5 1.496-1.567 11.441-35.031 14-41 41.352-96.442 117.734-172.889 215-212.5"/><path fill="#d0e2ea" d="M547 268c2.127 5.86 9.26 9.449 7.5 16l46.5-32c.959.114 2.251-.225 3 0 11.792 3.544 51.023 36.167 61.5 46 13.267 12.451 26.589 26.047 35.5 42-5.643 3.749-27.672 17.889-33.5 17-1.919-.293-26.443-18.938-32-22-16.34-9.003-33.653-15.717-51.5-21-73.854-21.864-141.809-11.68-207.5 27-5.644 3.323-20.191 16.223-25 16-34.334-14.841-64.318-39.516-84.5-71 2.996-6.959 11.548-14.571 17.5-20 35.573-32.449 78.436-56.171 122.5-75 31.404 53.305 65.695 107.345 140 77m-162.5-52c-16.585 2.451-82.256 43.247-85.5 56.5-2.824 11.538 16.443 33.031 25.5 39.5 8.456 6.04 24.191 7.64 27 18 26.231-26.251 62.752-39.55 98.5-47.5-26.249-17.584-46.025-42.031-65.5-66.5"/><path fill="#8babbb" d="m635 219-31 33c-.749-.225-2.041.114-3 0-7.475-.89-6.316 3.162-7.5 3-.666-.091-7.901-9.124-10-9-1.682.099-3.979 7.566-7.5 3 13.797-12.592 24.013-28.813 33-45 7.145 6.963 17.386 10.019 26 15"/><path fill="#839eaa" d="M601 210c-28.101 49.581-76.966 80.273-133 51l2-7c47.68 26.977 104.103.356 124-48z"/><path fill="#f5f9fb" d="M384.5 216c19.475 24.469 39.251 48.916 65.5 66.5-35.748 7.95-72.269 21.249-98.5 47.5-2.809-10.36-18.544-11.96-27-18-9.057-6.469-28.324-27.962-25.5-39.5 3.244-13.253 68.915-54.049 85.5-56.5"/><path fill="#89aab9" d="M749 261c8.41 6.728 15.09 7.962 10 18.5-9.898 20.491-39.086 47.932-58 60.5-8.911-15.953-22.233-29.549-35.5-42-10.477-9.833-49.708-42.456-61.5-46l31-33c38.636 22.34 73.936 52.03 100.5 88l24.5-32.5c.437-2.401-8.94-11.293-11-13.5"/><path fill="#a8c4d0" d="m601 252-46.5 32c1.76-6.551-5.373-10.14-7.5-16 10.365-4.233 20.728-11.45 29-19 3.521 4.566 5.818-2.901 7.5-3 2.099-.124 9.334 8.909 10 9 1.184.162.025-3.89 7.5-3"/><path fill="#4e7183" d="M769 276c29.449 35.409 56.887 72.187 76 114.5.307 4.22-1.605.313-4.5 2.5-4.745 3.585-9.276 9.736-15.5 11-13.997-35.686-36.767-71.184-60-101.5-2.195-2.864-6.329-8.782-10-9.5 2.905-3.905 8.951-17.441 14-17"/><path fill="#33596d" d="M865 440c.274 1.386-2.344.396-2 2.5.209 1.277 3.614 16.634 7 13.5.123.606-.125 1.396 0 2-2.778-.551-2.225 2.945-2 4.5 1.443 9.962 5.419 20.992 7 31.5-.673.219-1.974 4.255-2 4.5-1.94 18.384 2.91 47.055 2 68-5.564 128.056-69.92 242.312-178 310.5l-8-18c36.515-22.267 70.83-54.389 97-88 25.251-2.173 39.311-31.108 27-53 1.957-1.145 2.246-4.293 3-6 42.313-95.864 47.574-209.653 9-308 6.224-1.264 10.755-7.415 15.5-11 2.895-2.187 4.807 1.72 4.5-2.5-19.113-42.313-46.551-79.091-76-114.5.764.067 1.103-.226 1-1 39.379 40.565 83.92 109.039 95 165"/><path fill="#f9fbfc" d="M264 290c-4.333-.235-9.978 7.074-13 10.5-93.925 106.49-124.585 301.489-56 428 1.294 2.386 3.807 7.314 7 7.5.258 12.345 6.874 20.77 15 29-5.04-1.407-10.693-2.127-16-2-61.649-93.78-73.489-206.296-44-314 17.793-64.988 50.319-122.856 97.5-171 2.456-.246 7.818 9.785 9.5 12"/><path fill="url(#c)" d="M264 290c25.75 33.909 44.317 47.335 74.5 75 1.386 1.271 3.082 1.993 1.5 4-3.375 1.247-21.661 22.29-25 26.5-63.626 80.226-68.943 189.992-16 277.5l-4-1.5c24.565 86.976 113.646 132.314 199 137.5-32.206 5.728-55.128 43.714-45 75-16.086-5.207-27.146-8.107-43-15-54.71-31.38-105.426-70.085-134-128 5.346-53.15-71.012-53.528-70-5-3.193-.186-5.706-5.114-7-7.5-68.585-126.511-37.925-321.51 56-428 3.022-3.426 8.667-10.735 13-10.5m-24.5 48c-12.922 2.701-22.705 31.141-7 39 31.892 15.959 44.867-46.914 7-39" style="fill:url(#c)"/>/&gt;<path fill="url(#d)" d="M825 404c38.574 98.347 33.313 212.136-9 308-5.407-12.888-19.08-22.294-33-22 41.854-108.559 42.467-229.737-13-333.5-5.797-15.15-21.759-30.4-28.5-43.5-.778-1.511 2.799-2.385.5-3 4.467-5.325 8.836-11.403 13-17 3.671.718 7.805 6.636 10 9.5 23.233 30.316 46.003 65.814 60 101.5" style="fill:url(#d)"/>/&gt;<path fill="#1c98c9" d="M581 316c11.374 3.216 24.238 8.119 35 13-6.323 7.487-22.047 4.348-31 9-2.566-.866-8.652-2.093-12-3-164.696-44.628-323.204 98.034-280 266.5 2.383 9.294 9.742 22.425 11 30.5.051.324-.04.672 0 1 1.406 11.646-1.413 24.367-2 36-59.919-99.762-44.104-222.182 43-300 64.353-57.492 152.86-76.509 236-53m-106.5-2c-3.295-.054-43.738 11.888-52 15-116.498 43.886-182.814 179.484-134 297-50.307-140.953 47.251-287.033 190.5-310.5-1.342.058-4.263-1.496-4.5-1.5m-185 313c-1.125 3.862 2.118 10.526 5 13z"/><path fill="url(#e)" d="M783 690c-22.553.477-37.64 24.097-39 44.5-.294 4.415.519 22.565 7 16.5.49 2.12 3.001 5.187 3 5.5-.025 7.152-25.886 41.275-32 48-40.176 44.19-93.67 69.596-151 82.5 7.204-17.347 4.845-35.172-5-51 55.985-13.178 124.142-73.181 153.5-122-49.591 66.429-128.015 98.738-210.5 95-6.228-.504-8.442-1.167-15 0-85.354-5.186-174.435-50.524-199-137.5l4 1.5c24.737 40.887 65.826 76.105 109 96 27.137 12.505 50.098 19.269 80 22 .321 2.063-1.23 3.838 1.5 5 4.157 1.77 44.062 1.479 51 1 37.84-2.611 87.822-18.854 116.5-44 13.616-5.246 27.92-16.944 38.5-27 101.312-96.29 97.773-274.346 9.5-378 12.964-11.593 25.821-24.674 37-38 2.299.615-1.278 1.489-.5 3 6.741 13.1 22.703 28.35 28.5 43.5 55.467 103.763 54.854 224.941 13 333.5" style="fill:url(#e)"/>/&gt;<path fill="#76c3de" d="M474.5 314c.237.004 3.158 1.558 4.5 1.5C335.751 338.967 238.193 485.047 288.5 626c-48.814-117.516 17.502-253.114 134-297 8.262-3.112 48.705-15.054 52-15"/><path fill="#167ba6" d="m573 335-1 3c-175.109-48.007-338.027 120.841-265 292l-3 2c-1.258-8.075-8.617-21.206-11-30.5C249.796 433.034 408.304 290.372 573 335"/><path fill="url(#f)" d="M572 338c19.097 5.236 38.051 13.84 55 24 210.114 125.949 77.809 450.066-164 398-69.268-14.915-128.331-65.15-156-130-73.027-171.159 89.891-340.007 265-292m-175 72c-22.866 9.521-50.008 40.694-51 66-64.184 146.319 86.259 298.082 234.5 236 108.253-45.335 145.005-182.703 71.5-275.5-61.737-77.94-178.751-91.031-255-26.5" style="fill:url(#f)"/>/&gt;<path fill="url(#g)" d="M409 767c-43.121-19.707-82.755-57.633-107-98 .587-11.633 3.406-24.354 2-36 29.591 64.094 87.185 114.818 157 130 245.722 53.434 381.741-273.93 168-403-12.836-7.751-29.85-17.221-44-22 8.953-4.652 24.677-1.513 31-9 140.952 63.928 185.233 241.508 90 364.5-69.515 89.778-192.955 121.049-297 73.5" style="fill:url(#g)"/>/&gt;<path fill="#043f62" d="M585 338c14.15 4.779 31.164 14.249 44 22l-2 2c-16.949-10.16-35.903-18.764-55-24l1-3c3.348.907 9.434 2.134 12 3"/><path fill="#fefefe" d="M239.5 338c37.867-7.914 24.892 54.959-7 39-15.705-7.859-5.922-36.299 7-39"/><path fill="#a9c5d2" d="M705 348c88.273 103.654 91.812 281.71-9.5 378-10.58 10.056-24.884 21.754-38.5 27 6.509-5.708 14.906-14.004 18-22 109.761-95.905 114.525-264.144 6-362.5-.562-3.781 20.704-17.552 24-20.5"/><path fill="#00213a" d="M629 360c213.741 129.07 77.722 456.434-168 403l2-3c241.809 52.066 374.114-272.051 164-398z"/><path fill="#064364" d="M345 369c-87.104 77.818-102.919 200.238-43 300 24.245 40.367 63.879 78.293 107 98l-1 2c-43.174-19.895-84.263-55.113-109-96-52.943-87.508-47.626-197.274 16-277.5 3.339-4.21 21.625-25.253 25-26.5.235-.087 3.566.979 5 0"/><path fill="url(#h)" d="M346 476c-.323 8.236.92 21.263 6 28-5.244 11.259-6.412 25.715-6 38-4.35 9.32-3.381 28.613 6.5 35 10.486 6.778 34.728 3.654 37.5-10 11.568-3.862 21.714-14.273 30-23 .256.028.78.081 1 0l26 21.5c-.653 9.454-27.659 95.152-22.5 97.5 1.923.875 7.894-1.062 10-2l74-51 76 51c2.619.093 7.19-5.967 8.5-7 46.5-36.674 57.04-84.82 46-141-.379-1.929 2.643-8.978-2.5-12-9.116-1.668-18.367-2.492-27.5-4-20.849-3.442-43.365-4.645-63-10.5-6.853-6.919-23.196-70.35-31-85-.857-1.609-1.737-3.836-4-3.5l1.5-15c-30.2.821-60.895 7.728-86.5 24-11.706-3.658-18.173-1.508-29 3 76.249-64.531 193.263-51.44 255 26.5 73.505 92.797 36.753 230.165-71.5 275.5-148.241 62.082-298.684-89.681-234.5-236" style="fill:url(#h)"/>/&gt;<path fill="#83e4f5" d="M511 398c-.333-.004-.667.006-1 0-.945-.017-3.046-.218-3.5 0-4.086 1.965-28.584 73.139-32.5 83-10.024-3.228-23.329 3.067-28 12l-25 1c24.541-21.749 51.723-72.401 5-87 25.605-16.272 56.3-23.179 86.5-24z"/><path fill="#c5fbfd" d="M510 398c.369 2.849-.265 5.321-1 8-4.958 18.07-14.335 38.109-21 56l-12 20c-.667-.354-1.273-.766-2-1 3.916-9.861 28.414-81.035 32.5-83 .454-.218 2.555-.017 3.5 0"/><path fill="#92f3fc" d="M609 497c-.284 3.469 2.543 3.767-1 6-21.447-3.239-42.942-6.435-64.5-9L509 406c.735-2.679 1.369-5.151 1-8 .333.006.667-.004 1 0 2.263-.336 3.143 1.891 4 3.5 7.804 14.65 24.147 78.081 31 85 19.635 5.855 42.151 7.058 63 10.5"/><path fill="#f0f8fa" d="M426 407c46.723 14.599 19.541 65.251-5 87-2.504 2.219-7.006 4.752-8 8-8.673 1.958-14.906 7.247-23 10-.959.326-6.286 2.928-7 3-8.17.823-25.718-3.995-31-11-5.08-6.737-6.323-19.764-6-28 .992-25.306 28.134-56.479 51-66 10.827-4.508 17.294-6.658 29-3"/><path fill="url(#i)" d="M608 503c2.658.401 27.004 3.131 27 4.5-18.791 14.197-38.978 27.371-57 42.5l-67 54-3.5-1-76 52 22.5-91.5-29-23.5 20-21c11.926 23.181 55.341-9.992 34-34 3.919-7.285 6.13-15.296 9-23 6.665-17.891 16.042-37.93 21-56l34.5 88c21.558 2.565 43.053 5.761 64.5 9" style="fill:url(#i)"/>/&gt;<path fill="#001e2f" d="M939 642c9.822-7.816 29.983-32.923 33-45 6.887-27.567-6.646-68.579-32-83-1.323-.752-8.049-5.267-9-3.5 1.248 22.107 3.993 44.329 4 66.5.005 15.593-1.542 32.429-3 48-.654 6.985-.415 15.168-2 22-4.488 19.35-17.443 10.053-22 16.5-2.443 3.456-2.535 25.406-7.5 28.5l-42 5c-1.103.83-1.737 1.893-2.5 3l-1-1c24.533-62.799 30.006-138.503 20-205-1.581-10.508-5.557-21.538-7-31.5-.225-1.555-.778-5.051 2-4.5.248 1.197.686 2.427 1 4 1.927 9.643 4.522 19.253 6 29 2.731 18.011 4.254 35.767 5 54 1.463 35.74-1.071 70.561-9 105.5-2.848 12.549-8.72 24.64-10 37.5-18.53 11.475 32.378 2.294 36 1.5 7.568-33.239 11.251-67.419 12-101.5.455-20.727-.22-42.373-2-63-1.244-14.424-2.557-29.947-6-44-.71-29.152-5.945-36.332-35.5-38-1.744 1.134 2.1 11.032 2.5 13-3.386 3.134-6.791-12.223-7-13.5-.344-2.104 2.274-1.114 2-2.5 10.378 4.897 29.473.536 36 11.5 4.847 8.141 3.677 26.008 7 32 2.542 4.583 15.922 4.143 20 11 2.104 3.537.467 8.065 4.5 11.5 1.345 1.146 10.717 4.286 14 7 42.433 35.077 41.392 100.844-7.5 129m-26-134c.51 4.897.678 10.071 1 15 .942 14.427.919 28.553 1 43 .037 6.637.161 13.367 0 20-.497 20.506-2.178 36.86-4 57-.296 3.273-2.607 16.377-.5 17 3.058-1.848 12.256-1.99 14.5-4.5 2.323-2.598 1.62-9.351 2-12.5 2.252-18.657 1.971-39.154 2-58 .01-6.648.102-13.354 0-20-.334-21.79-3.342-43.643-2-65.5-2.132-7.721-10.139-7.312-16.5-9.5-2.01 1.435 2.231 15.415 2.5 18"/><path fill="#33a7d8" d="M155 447c-4.151 14.862-8.362 29.786-11 45l-14 2c1.78-11.208 4.973-22.318 7-33.5l-17 4.5c5.695-24.815 13.975-18.462 36.5-22 .429.183-1.178 2.848-1.5 4"/><path fill="#2ca4d9" d="M903 481c-3.797-15.499-1.126-17.39-18-20-4.536-.702-11.319-2.668-14 1-.314-1.573-.752-2.803-1-4-.125-.604.123-1.394 0-2-.4-1.968-4.244-11.866-2.5-13 29.555 1.668 34.79 8.848 35.5 38"/><path fill="#021e2f" d="M157 449c-29.489 107.704-17.649 220.22 44 314 20.419 31.062 42.629 55.153 71 79 6.786 5.704 13.417 11.635 20.5 17 5.566 4.216 19.104 10.993 23 15 .175.18.639 4.251.5 5-67.911-41.739-110.489-93.916-146-164.5-1.367-2.718-4.858-14.823-6-16-3.803-3.919-36.249-4.995-43.5-6.5-3.942-2.356-5.272-26.706-7.5-29.5-4.915-6.165-18.275 3.519-22-16.5-1.18-6.345-1.351-15.227-2-22-1.49-15.571-1.904-31.345-2-47-.106-17.288.543-31.831 2-49l3 72c.31 13.816 1.173 27.318 3 41 .49 3.665-.995 8.702 1 12.5 2.573 4.898 11.859 3.168 15.5 6.5 1.146-.895-1.195-16.173-1.5-19-2.151-19.957-3.512-35.783-4-56-.152-6.3-.039-12.696 0-19 .097-15.692-.23-31.344 1-47 .238-3.034 1.668-7.813 2-11 .248-2.379.757-4.581 1-7l1 102c1.29 28.796 4.696 57.42 11 85.5l38.5 5.5c1.871-2.751-1.017-4.915-1.5-7-11.641-50.301-21.98-80.952-21-135 .374-20.615 2.503-39.828 6-60 2.638-15.214 6.849-30.138 11-45z"/><path fill="#6fecfa" d="M130 494c-1.099 6.919-2.188 14.046-3 21l-14 1c1.415-15.04 3.686-36.56 7-51l17-4.5c-2.027 11.182-5.22 22.292-7 33.5"/><path fill="#39a9d7" d="M885 461c.793 9.061 3.371 18.018 5 27-2.37 2.312-9.689 5.566-13 3-1.478-9.747-4.073-19.357-6-29 2.681-3.668 9.464-1.702 14-1"/><path fill="#5ce4f5" d="M903 481c3.443 14.053 4.756 29.576 6 44-2.078 6.124-8.827.441-13 5-1.091-14.023-3.493-28.179-6-42-1.629-8.982-4.207-17.939-5-27 16.874 2.61 14.203 4.501 18 20"/><path fill="#21e0e4" d="M488 462c-2.87 7.704-5.081 15.715-9 23-.362-.407-2.813-2.901-3-3z"/><path fill="#fdfefe" d="M474 481c.727.234 1.333.646 2 1 .187.099 2.638 2.593 3 3 21.341 24.008-22.074 57.181-34 34-2.867-5.572-2.388-13.92-1-20 .127-.555 1.853-5.72 2-6 4.671-8.933 17.976-15.228 28-12"/><path fill="#0d81a4" d="M896 530c.36 4.631.798 9.37 1 14l-15 1c-.746-18.233-2.269-35.989-5-54 3.311 2.566 10.63-.688 13-3 2.507 13.821 4.909 27.977 6 42"/><path fill="#2ab2dd" d="M110 501c-.243 2.419-.752 4.621-1 7-2.015-2.456-12.657 2.541-13 3.5-.23.643-.369 13.427 2 13.5-1.733.502-1.816 3.578-4 0 1.079-16.479-4.435-34.305 16.5-35 1.51 3.731-.136 7.375-.5 11"/><path fill="#18afd1" d="m929 565-14 1c-.081-14.447-.058-28.573-1-43l12 2.5c-2.816-10.459 1.895-18.37-13-17.5-.269-2.585-4.51-16.565-2.5-18 6.361 2.188 14.368 1.779 16.5 9.5-1.342 21.857 1.666 43.71 2 65.5"/><path fill="#077a9a" d="M138 552h-14c.346-12.283 1.576-24.802 3-37 .812-6.954 1.901-14.081 3-21l14-2c-3.497 20.172-5.626 39.385-6 60"/><path fill="#cefcfe" d="M446 493c-.147.28-1.873 5.445-2 6-9.867 1.362-21.32.814-31 3 .994-3.248 5.496-5.781 8-8z"/><path fill="#588294" d="M855 699c-37.254 95.362-125.751 179.089-221 215-9.311 3.155-19.528 6.487-29 9-2.139.526-5.792.527-8 1v-4c38.582-9.071 66.833-22.075 100-43 108.08-68.188 172.436-182.444 178-310.5.91-20.945-3.94-49.616-2-68 .026-.245 1.327-4.281 2-4.5 10.006 66.497 4.533 142.201-20 205"/><path fill="#54e5f6" d="m639 513-68 50.5 22 90.5c-1.31 1.033-5.881 7.093-8.5 7l-76-51-74 51c-2.106.938-8.077 2.875-10 2-5.159-2.348 21.847-88.046 22.5-97.5L421 544c.426-.157 2.024-3.799 3-4h1l29 23.5-22.5 91.5 76-52 3.5 1 75.5 51-22.5-91.5c.147-3.514 10.725-10.751 14-13.5 18.022-15.129 38.209-28.303 57-42.5.004-1.369-24.342-4.099-27-4.5 3.543-2.233.716-2.531 1-6 9.133 1.508 18.384 2.332 27.5 4 5.143 3.022 2.121 10.071 2.5 12"/><path fill="#02c4c7" d="M444 499c-1.388 6.08-1.867 14.428 1 20l-20 21h-1l-34-28c8.094-2.753 14.327-8.042 23-10 9.68-2.186 21.133-1.638 31-3"/><path fill="#46b7d7" d="M383 515c.299.629 1.763 2.816 2 3l-8 21c-9.238-6.258-25.179-9.473-31 3-.412-12.285.756-26.741 6-38 5.282 7.005 22.83 11.823 31 11"/><path fill="#82f9fe" d="M109 508c-.332 3.187-1.762 7.966-2 11-1.38 5.817-4.319 4.644-9 6-2.369-.073-2.23-12.857-2-13.5.343-.959 10.985-5.956 13-3.5"/><path fill="#82f8fe" d="M914 523c-.322-4.929-.49-10.103-1-15 14.895-.87 10.184 7.041 13 17.5z"/><path fill="#16d0e9" d="M89 528c-1.457 17.169-2.106 31.712-2 49-1.946-.233-2.764-1.058-5-1-.525-14.355-.448-28.814-3-43 2.408-3.483 3.928-13.948 1-17 1.04-.724 9.43-8.622 11-5.5-1.065 5.707-1.51 11.734-2 17.5"/><path fill="#1edbef" d="M940 514c-.079 8.398-1.531 12.504 3 19-3.101 14.126-2.309 28.716-3 43-.016.333.016.667 0 1h-5c-.007-22.171-2.752-44.393-4-66.5.951-1.767 7.677 2.748 9 3.5"/><path fill="#bdfafd" d="m390 512 34 28c-.976.201-2.574 3.843-3 4-.22.081-.744.028-1 0-2.167-.234-30.733-22.683-35-26-.237-.184-1.701-2.371-2-3 .714-.072 6.041-2.674 7-3"/><path fill="url(#j)" d="M639 513c11.04 56.18.5 104.326-46 141l-22-90.5z" style="fill:url(#j)"/>/&gt;<path fill="#5eeffa" d="m972 597-4-3c.25-1.417-.102-3.879 0-6 1.564-32.498-9.92-33.379-25-55-4.531-6.496-3.079-10.602-3-19 25.354 14.421 38.887 55.433 32 83"/><path fill="#1cc3dc" d="M127 515c-1.424 12.198-2.654 24.717-3 37-.075 2.651.023 5.347 0 8-.991-11.149-1.643-11.42-13-10 .455-11.35.937-22.698 2-34z"/><path fill="#79f4fd" d="M80 516c2.928 3.052 1.408 13.517-1 17-1.086 1.57-9.49 7.966-12 11.5-8.568 12.064-16.5 28.435-13 43.5-.725 1.007-1.078 8.902-4 8-7.2-30.473 4.488-62.226 30-80"/><path fill="#57cce8" d="M420 544c-8.286 8.727-18.432 19.138-30 23 2.089-10.287-4.559-22.282-13-28l8-21c4.267 3.317 32.833 25.766 35 26"/><path fill="#0ea5c6" d="m106 566-14 2c.227-14.203 1.071-28.812 2-43 2.184 3.578 2.267.502 4 0 4.681-1.356 7.62-.183 9-6-1.23 15.656-.903 31.308-1 47"/><path fill="#06a1be" d="M911 588c-4.449-1.444-.725-12.705-2-14.5-.405-.57-10.258-1.623-12-1.5.149-9.228.402-18.791 0-28-.202-4.63-.64-9.369-1-14 4.173-4.559 10.922 1.124 13-5 1.78 20.627 2.455 42.273 2 63"/><path fill="#009ec2" d="M82 576c-7.695.201-23.36 5.556-28 12-3.5-15.065 4.432-31.436 13-43.5 2.51-3.534 10.914-9.93 12-11.5 2.552 14.186 2.475 28.645 3 43"/><path fill="#fefeff" d="M377 539c8.441 5.718 15.089 17.713 13 28-2.772 13.654-27.014 16.778-37.5 10-9.881-6.387-10.85-25.68-6.5-35 5.821-12.473 21.762-9.258 31-3"/><path fill="#009cc2" d="M968 588c-9.691-5.597-15.728-11.852-28-12 .691-14.284-.101-28.874 3-43 15.08 21.621 26.564 22.502 25 55"/><path fill="#004068" d="M897 544c.402 9.209.149 18.772 0 28-.387 23.939-2.925 76.096-11 97.5-6.02 15.958-12.797 12.182-23 18.5 1.28-12.86 7.152-24.951 10-37.5 7.929-34.939 10.463-69.76 9-105.5z"/><path fill="url(#k)" d="M578 550c-3.275 2.749-13.853 9.986-14 13.5l22.5 91.5-75.5-51z" style="fill:url(#k)"/>/&gt;<path fill="#0394b1" d="M124 560c-.081 9.477.536 18.589 1 28-3.817.403-.917-4.926-2.5-6-.965-.655-10.288.48-12.5 0-.097-10.525.577-21.456 1-32 11.357-1.42 12.009-1.149 13 10"/><path fill="#00436b" d="M138 552c-.98 54.048 9.359 84.699 21 135-24.603-1.684-27.079-31.121-30-50.5-2.38-15.791-3.212-32.533-4-48.5-.464-9.411-1.081-18.523-1-28 .023-2.653-.075-5.349 0-8z"/><path fill="#0183a0" d="M929 565c.102 6.646.01 13.352 0 20l-14 1c.161-6.633.037-13.363 0-20z"/><path fill="#0181a0" d="M106 566c-.039 6.304-.152 12.7 0 19l-14 1c-.021-5.98-.095-12.021 0-18z"/><path fill="#006196" d="M911 588c-.749 34.081-4.432 68.261-12 101.5-3.622.794-54.53 9.975-36-1.5 10.203-6.318 16.98-2.542 23-18.5 8.075-21.404 10.613-73.561 11-97.5 1.742-.123 11.595.93 12 1.5 1.275 1.795-2.449 13.056 2 14.5"/><path fill="#004268" d="M82 576c.546 14.929 1.706 30.153 2 45 .095 4.818-.069 9.67 0 14.5-1.23 2.862-20.732-20.138-22-22-2.654-3.898-6.617-20.827-11-14.5-.312-1.037-.67-1.605-1-3 2.922.902 3.275-6.993 4-8 4.64-6.444 20.305-11.799 28-12"/><path fill="#007bad" d="M87 577c.096 15.655.51 31.429 2 47l-5-3c-.294-14.847-1.454-30.071-2-45 2.236-.058 3.054.767 5 1"/><path fill="#0084b1" d="M940 577c-.733 14.853-2.692 30.192-3 45l-5 3c1.458-15.571 3.005-32.407 3-48z"/><path fill="#004369" d="M968 588c-.102 2.121.25 4.583 0 6-2.664 15.113-18.649 33.405-31 41.5.067-4.497-.093-9.015 0-13.5.308-14.808 2.267-30.147 3-45 .016-.333-.016-.667 0-1 12.272.148 18.309 6.403 28 12"/><path fill="#00639a" d="M125 588c.788 15.967 1.62 32.709 4 48.5 2.921 19.379 5.397 48.816 30 50.5.483 2.085 3.371 4.249 1.5 7l-38.5-5.5c-6.304-28.08-9.71-56.704-11-85.5-.306-6.832-.938-14.256-1-21 2.212.48 11.535-.655 12.5 0 1.583 1.074-1.317 6.403 2.5 6"/><path fill="#00557c" d="M106 585c.488 20.217 1.849 36.043 4 56H95c-1.827-13.682-2.69-27.184-3-41-.104-4.646.017-9.351 0-14z"/><path fill="#00587e" d="M927 643c-4.327-5.205-10.731 1.954-16 0 1.822-20.14 3.503-36.494 4-57l14-1c-.029 18.846.252 39.343-2 58"/><path fill="#015486" d="M972 597c-3.017 12.077-23.178 37.184-33 45-2.851 2.269-6.096 2.925-9 5 1.585-6.832 1.346-15.015 2-22l5-3c-.093 4.485.067 9.003 0 13.5 12.351-8.095 28.336-26.387 31-41.5z"/><path fill="#015487" d="m84 621 5 3c.649 6.773.82 15.655 2 22-3.064-.989-5.366-2.109-8-4-11.539-8.285-27.896-29.34-32-43 4.383-6.327 8.346 10.602 11 14.5 1.268 1.862 20.77 24.862 22 22-.069-4.83.095-9.682 0-14.5"/><path fill="#3badd7" d="m289.5 627 5 13c-2.882-2.474-6.125-9.138-5-13"/><path fill="#085478" d="M307 630c27.669 64.85 86.732 115.085 156 130l-2 3c-69.815-15.182-127.409-65.906-157-130-.04-.328.051-.676 0-1z"/><path fill="#004a79" d="M110 641c.305 2.827 2.646 18.105 1.5 19-3.641-3.332-12.927-1.602-15.5-6.5-1.995-3.798-.51-8.835-1-12.5z"/><path fill="#004978" d="M927 643c-.38 3.149.323 9.902-2 12.5-2.244 2.51-11.442 2.652-14.5 4.5-2.107-.623.204-13.727.5-17 5.269 1.954 11.673-5.205 16 0"/><path fill="#2d5366" d="M816 712c-.754 1.707-1.043 4.855-3 6-18.051-32.098-74.047-19.116-62 33-6.481 6.065-7.294-12.085-7-16.5 1.36-20.403 16.447-44.023 39-44.5 13.92-.294 27.593 9.112 33 22"/><path fill="#1f4f67" d="M856 700c-6.087 8.83-13.604 32.042-20 43.5-43.804 78.474-116.795 141.63-202 170.5 95.249-35.911 183.746-119.638 221-215Z"/><path fill="#042135" d="M272 741c-.29 2.886-2.541 6.805-3 9-.569 2.72-3.052 5.414-3 6.5.078 1.636 14.768 24.968 17 28 33.415 45.398 92.482 81.338 145.5 98.5 6.243 2.021 14.395 2.375 20.5 5 1.778.764 4.818.542 5 3.5-43.034-5.886-87.23-27.317-122-53.5-28.348-21.348-51.594-47.223-69.5-78-.442-.002-5.516 5.544-6.5 6-19.589 9.077-21.411 3.91-39-1-8.126-8.23-14.742-16.655-15-29-1.012-48.528 75.346-48.15 70 5m-66-2c6.433 53.04 86.98 23.152 57-22-17.989-27.093-61.143-12.16-57 22"/><path fill="#021c2e" d="M813 718c12.311 21.892-1.749 50.827-27 53-10.921.94-21.034-1.838-28.5-10-9.762 15.051-18.558 30.517-30.5 44-34.597 39.062-90.839 70.571-141 84-5.481 1.467-22.44 2.293-26 4-1.994-4.473 8.053-5.337 11-6 57.33-12.904 110.824-38.31 151-82.5 6.114-6.725 31.975-40.848 32-48 .001-.313-2.51-3.38-3-5.5-12.047-52.116 43.949-65.098 62-33m-37.5-13c-36.673 6.307-30.555 68.773 12 63 38.606-5.238 34.271-70.957-12-63"/><path fill="#177c9f" d="M263 717c-.997 2.017 2.744 5.811-2 6-11.177-26.482-56.09-12.645-52 16h-3c-4.143-34.16 39.011-49.093 57-22"/><path fill="#116b8d" d="M775.5 705c46.271-7.957 50.606 57.762 12 63-42.555 5.773-48.673-56.693-12-63M759 744c.078.636-.124 1.395 0 2 5.194 25.272 47.213 21.28 51-4.5 4.693-31.942-38.181-42.013-51-18-1.705 3.193-6.912 21.656 0 20.5"/><path fill="#054b6d" d="M261 723c14.035 33.255-34.235 52.693-47 25 .453.106 1.872.873 2 1 36.723 36.392 64.858-31.502 26-38-18.856-3.153-33.08 11.903-30 31-2.146 1.942-2.692-.841-3-3-4.09-28.645 40.823-42.482 52-16"/><path fill="#013b5e" d="M759 746c1.876 2.228 2.959 4.846 5 7 22.338 23.575 58.204-6.642 38-32-10.953-13.747-38.081-9.049-43 7.5-1.792 6.029-.719 9.649 0 15.5-6.912 1.156-1.705-17.307 0-20.5 12.819-24.013 55.693-13.942 51 18-3.787 25.78-45.806 29.772-51 4.5"/><path fill="#04abda" d="M242 711c2.264 3.801-1.973 2.78-2 3.5-.031.83 7.626 4.435 10 12.5-9.699 7.503-12.722 17.629-25 22-3.657-1.36-4.937-1.543-7.5-5l-1.5 5c-.128-.127-1.547-.894-2-1-.65-1.411-1.754-4.472-2-6-3.08-19.097 11.144-34.153 30-31m-15.5 7c-4.243.103-12.823 11.293-8 13 5.667-1.547 9.818-5.621 10.5-11.5z"/><path fill="#016f98" d="m216 749 1.5-5c2.563 3.457 3.843 3.64 7.5 5 15.468 5.751 29.843-5.547 25-22-2.374-8.065-10.031-11.67-10-12.5.027-.72 4.264.301 2-3.5 38.858 6.498 10.723 74.392-26 38"/><path fill="#04b0e0" d="M802 721c-3.635-2.293-2.984 2.069-3.5 2-1.037-.139-3.312-5.032-6-4-1.445 1.447.991 2.235.5 4-2.818 10.134-14.121 26.147-25 25-.752-.8-3.81-4.386-5-3.5 1.248 2.354 7.175 7.836 1 8.5-2.041-2.154-3.124-4.772-5-7-.124-.605.078-1.364 0-2-.719-5.851-1.792-9.471 0-15.5 4.919-16.549 32.047-21.247 43-7.5m-28.5-1c-2.179.088-12.188 10.074-7 12 3.805 1.412 17.037-12.406 7-12"/><path fill="#b0c9d5" d="M566 836c-.315.074-.682-.07-1 0-12.029-17.875-35.183-25.316-56-27 82.485 3.738 160.909-28.571 210.5-95-29.358 48.819-97.515 108.822-153.5 122"/><path fill="#0c6e97" d="M206 739h3c.308 2.159.854 4.942 3 3 .246 1.528 1.35 4.589 2 6 12.765 27.693 61.035 8.255 47-25 4.744-.189 1.003-3.983 2-6 29.98 45.152-50.567 75.04-57 22"/><path fill="#f7fdfe" d="m226.5 718 2.5 1.5c-.682 5.879-4.833 9.953-10.5 11.5-4.823-1.707 3.757-12.897 8-13"/><path fill="#016c94" d="M802 721c20.204 25.358-15.662 55.575-38 32 6.175-.664.248-6.146-1-8.5 1.19-.886 4.248 2.7 5 3.5.618.658 1.341 1.423 2 2 .078.068-2.396.598-.5 2 11.88 8.787 33.204 1.949 34.5-13.5.196-2.334-3.049-19.43-7-10.5-.059-.315-2.933-4.803-4-5 .491-1.765-1.945-2.553-.5-4 2.688-1.032 4.963 3.861 6 4 .516.069-.135-4.293 3.5-2"/><path fill="#f6fdff" d="M773.5 720c10.037-.406-3.195 13.412-7 12-5.188-1.926 4.821-11.912 7-12"/><path fill="#0086a5" d="M797 728c3.035 16.244-11.865 28.222-27 22-.659-.577-1.382-1.342-2-2 10.879 1.147 22.182-14.866 25-25 1.067.197 3.941 4.685 4 5"/><path fill="#00446c" d="M770 750c15.135 6.222 30.035-5.756 27-22 3.951-8.93 7.196 8.166 7 10.5-1.296 15.449-22.62 22.287-34.5 13.5-1.896-1.402.578-1.932.5-2"/><path fill="#00819e" d="M225 749c12.278-4.371 15.301-14.497 25-22 4.843 16.453-9.532 27.751-25 22"/><path fill="#5a7c8c" d="M657 753c-28.678 25.146-78.66 41.389-116.5 44-6.938.479-46.843.77-51-1-2.73-1.162-1.179-2.937-1.5-5 69.124 6.313 134.818-14.405 187-60-3.094 7.996-11.491 16.292-18 22"/><path fill="#e2ebef" d="M406 869c-57.031-24.797-106.103-64.449-137-119 .459-2.195 2.71-6.114 3-9 28.574 57.915 79.29 96.62 134 128"/><path fill="#9bbac9" d="M406 869c15.854 6.893 26.914 9.793 43 15 .302.098.699-.099 1 0l-1 4c-6.105-2.625-14.257-2.979-20.5-5-53.018-17.162-112.085-53.102-145.5-98.5-2.232-3.032-16.922-26.364-17-28-.052-1.086 2.431-3.78 3-6.5 30.897 54.551 79.969 94.203 137 119"/><path fill="#88a9b9" d="M332 838c-8.554 1.129 6.49 11.847 10.5 15 20.941 16.461 53.592 34 79 42 10.941 3.445 29.513 4.856 38 8 5.619 2.082 13.809 12.056 24.5 16 1.51.557 3.525 1.605 5 2 .032 5.81 1.415 6.497-4.5 8 38.435 3.042 75.233-.238 112.5-9v4c-.219.047-3.78 1.958-4 2-2.81.691-6.151 1.385-9 2-101.188 16.924-182.346-4.928-267-59 2.564-1.237 2.156-1.281.5-3-5.427-5.635-17.369-12.907-24-19-22.428-20.609-45.633-46.88-59-74 1.813-.964 26.403 2.447 21.5-7 .984-.456 6.058-6.002 6.5-6 17.906 30.777 41.152 56.652 69.5 78"/><path fill="#5a7e90" d="M786 771c-26.17 33.611-60.485 65.733-97 88-24.957 15.219-55.574 29.831-84 35 46.887-17.415 89.569-51.651 122-89 11.942-13.483 20.738-28.949 30.5-44 7.466 8.162 17.579 10.94 28.5 10"/><path fill="#bad2dd" d="M217 765c17.589 4.91 19.411 10.077 39 1 4.903 9.447-19.687 6.036-21.5 7 13.367 27.12 36.572 53.391 59 74 6.631 6.093 18.573 13.365 24 19 1.656 1.719 2.064 1.763-.5 3-11.003-7.028-28.891-22.078-38.5-27-2.175-1.114-4.316-1.597-6.5 0-28.371-23.847-50.581-47.938-71-79 5.307-.127 10.96.593 16 2"/><path fill="#7a9dac" d="M605 894c-14.793 5.494-29.929 9.096-45.5 12 4.007-11.956 16.222-10.881 26-14 .368-.117 4.314-3.407.5-3 50.161-13.429 106.403-44.938 141-84-32.431 37.349-75.113 71.585-122 89"/><path fill="#7393a3" d="M509 809c20.817 1.684 43.971 9.125 56 27-4.131.902-7.675 1.869-12 2-32.985-48.235-111.131-5.877-92 49-.489-.292-8.875-2.304-11-3-.301-.099-.698.098-1 0-10.128-31.286 12.794-69.272 45-75 6.558-1.167 8.772-.504 15 0"/><path fill="#011e34" d="M553 838c-4.699.142-4.219 1.085-4.5 1-.875-.266-8.982-9.188-12-11-18.276-10.972-37.858-8.428-54.5 4-23.897 17.845-26.909 54.363-2.5 73 4.313 3.293 19.222 11.728 23.5 7 47.927 7.984 68.1-58.78 26-81 .191-.065.282-2.321 3.5-2 12.833 1.281 18.821 25.877 24.5 33l-4 24.5c-11.925 26.156-40.07 38.982-67 26.5-15.44-7.156-19.516-22.726-25-26-19.131-54.877 59.015-97.235 92-49"/><path fill="#06405d" d="M553 838c5.38 7.868 8.063 17.182 9 26.5l-2 1c-1.148-1.032-2.053-2.313-3-3.5-5.679-7.123-11.667-31.719-24.5-33-3.218-.321-3.309 1.935-3.5 2-1.666.567-4.532-1.293-4 2-2.026-.711-3.856-1.543-6-2-11.147-2.375-20.671-2.543-31 3 .046-.145-.512-2.584-.5-3l-5.5 1c16.642-12.428 36.224-14.972 54.5-4 3.018 1.812 11.125 10.734 12 11 .281.085-.199-.858 4.5-1"/><path fill="#0daedb" d="M519 831c-1.19 6.268 1.144 4.919 3 7 6.52 7.31 9.546 7.553 11 19-9.096 2.516-18.584 13.224-25 20.5-5.333 6.048-8.001 16.689-17 17.5-5.546-1.327-8.915-4.438-13-8-.173-.151.621-2.452-1.5-2-1.137 1.124 1.448 1.886 1.5 2 .338.738 1.801 4.768 2 5l-4 3c-9.695-13.997-9.76-31.955-1-46.5 2.593-4.306 12.107-11.695 13-14.5 10.329-5.543 19.853-5.375 31-3m-21.5 10c-7.923.051-24.543 18.914-16 22 10.397 3.755 29.757-22.089 16-22"/><path fill="#0f6689" d="M488 834c-.893 2.805-10.407 10.194-13 14.5-8.76 14.545-8.695 32.503 1 46.5 6.294 9.087 16.017 15.17 27 17-4.278 4.728-19.187-3.707-23.5-7-24.409-18.637-21.397-55.155 2.5-73l5.5-1c-.012.416.546 2.855.5 3"/><path fill="#07a1ce" d="M525 833c7.102 2.493 10.823 5.104 15 11.5l-4 2.5c-2.939-3.69-8.809-10.135-14-9-1.856-2.081-4.19-.732-3-7 2.144.457 3.974 1.289 6 2"/><path fill="#09709c" d="M529 831c42.1 22.22 21.927 88.984-26 81-10.983-1.83-20.706-7.913-27-17l4-3c26.201 30.559 84.647-9.036 56-45l4-2.5c-4.177-6.396-7.898-9.007-15-11.5-.532-3.293 2.334-1.433 4-2"/><path fill="#3e6376" d="M565 836c.318-.07.685.074 1 0 9.845 15.828 12.204 33.653 5 51-2.947.663-12.994 1.527-11 6-1.169.561-11.254 16.206-16.5 20-15.441 11.169-36.44 12.831-54.5 8-1.475-.395-3.49-1.443-5-2l2-6c26.93 12.482 55.075-.344 67-26.5l4-24.5c.947 1.187 1.852 2.468 3 3.5l2-1c-.937-9.318-3.62-18.632-9-26.5 4.325-.131 7.869-1.098 12-2"/><path fill="#004970" d="M536 847c28.647 35.964-29.799 75.559-56 45-.199-.232-1.662-4.262-2-5 4.085 3.562 7.454 6.673 13 8 24.319 5.819 45.138-13.292 42-38-1.454-11.447-4.48-11.69-11-19 5.191-1.135 11.061 5.31 14 9"/><path fill="#618596" d="m449 888 1-4c2.125.696 10.511 2.708 11 3 5.484 3.274 9.56 18.844 25 26l-2 6c-10.691-3.944-18.881-13.918-24.5-16-8.487-3.144-27.059-4.555-38-8-25.408-8-58.059-25.539-79-42-4.01-3.153-19.054-13.871-10.5-15 34.77 26.183 78.966 47.614 122 53.5-.182-2.958-3.222-2.736-5-3.5"/><path fill="#1f5069" d="M317 869c84.654 54.072 165.812 75.924 267 59-92.968 20.079-187.607.411-268-49 .139-.749-.325-4.82-.5-5-3.896-4.007-17.434-10.784-23-15-7.083-5.365-13.714-11.296-20.5-17 2.184-1.597 4.325-1.114 6.5 0 9.609 4.922 27.497 19.972 38.5 27"/><path fill="#fcfeff" d="M497.5 841c13.757-.089-5.603 25.755-16 22-8.543-3.086 8.077-21.949 16-22"/><path fill="#0192b4" d="M533 857c3.138 24.708-17.681 43.819-42 38 8.999-.811 11.667-11.452 17-17.5 6.416-7.276 15.904-17.984 25-20.5"/><path fill="#4e7283" d="m689 859 8 18c-33.167 20.925-61.418 33.929-100 43-37.267 8.762-74.065 12.042-112.5 9 5.915-1.503 4.532-2.19 4.5-8 18.06 4.831 39.059 3.169 54.5-8 5.246-3.794 15.331-19.439 16.5-20 3.56-1.707 20.519-2.533 26-4 3.814-.407-.132 2.883-.5 3-9.778 3.119-21.993 2.044-26 14 15.571-2.904 30.707-6.506 45.5-12 28.426-5.169 59.043-19.781 84-35"/><path fill="#004970" d="M478 887c-.052-.114-2.637-.876-1.5-2 2.121-.452 1.327 1.849 1.5 2"/><path fill="#1f4f67" d="M634 914c-11.678 4.403-16.869 6.016-29 9 9.472-2.513 19.689-5.845 29-9"/><path fill="#1f5069" d="M605 923c-4.009 1.064-7.933 2-12 3 .22-.042 3.781-1.953 4-2 2.208-.473 5.861-.474 8-1m-12 3c-2.751.532-5.347 1.389-9 2 2.849-.615 6.19-1.309 9-2"/></svg>