<svg xmlns="http://www.w3.org/2000/svg" width="1024" height="1024"><defs><linearGradient id="a" x1="690.398" x2="470.429" y1="198.766" y2="202.422" gradientUnits="userSpaceOnUse"><stop offset="0%" style="stop-color:#91b5c4"/><stop offset="100%" style="stop-color:#c8dfe8"/></linearGradient></defs><defs><linearGradient id="b" x1="286.71" x2="636.705" y1="255.284" y2="257.058" gradientUnits="userSpaceOnUse"><stop offset="12%" style="stop-color:#f1f7fa"/><stop offset="100%" style="stop-color:#c2e9f7"/></linearGradient></defs><defs><linearGradient id="c" x1="650.422" x2="800.085" y1="239.437" y2="249.484" gradientUnits="userSpaceOnUse"><stop offset="0%" style="stop-color:#5b8598"/><stop offset="100%" style="stop-color:#3c6578"/></linearGradient></defs><defs><linearGradient id="d" x1="358.127" x2="298.803" y1="397.165" y2="831.129" gradientUnits="userSpaceOnUse"><stop offset="0%" style="stop-color:#c8e1eb"/><stop offset="100%" style="stop-color:#749eaf"/></linearGradient></defs><defs><linearGradient id="e" x1="318.199" x2="686.553" y1="324.482" y2="766.002" gradientUnits="userSpaceOnUse"><stop offset="0%" style="stop-color:#f3f8fb"/><stop offset="66.261%" style="stop-color:#bbd6e1"/><stop offset="100%" style="stop-color:#8aafbe"/></linearGradient></defs><defs><linearGradient id="f" x1="581.266" x2="375.759" y1="323.593" y2="590.681" gradientUnits="userSpaceOnUse"><stop offset="0%" style="stop-color:#259dc6"/><stop offset="87.24%" style="stop-color:#a9e9f7"/></linearGradient></defs><defs><linearGradient id="g" x1="661.997" x2="808.249" y1="558.372" y2="632.576" gradientUnits="userSpaceOnUse"><stop offset="0%" style="stop-color:#537f91"/><stop offset="100%" style="stop-color:#416a7d"/></linearGradient></defs><defs><linearGradient id="h" x1="587.176" x2="454.974" y1="416.388" y2="589.727" gradientUnits="userSpaceOnUse"><stop offset="0%" style="stop-color:#002855"/><stop offset="100%" style="stop-color:#045688"/></linearGradient></defs><defs><linearGradient id="i" x1="855.593" x2="856.27" y1="475.101" y2="573.099" gradientUnits="userSpaceOnUse"><stop offset="0%" style="stop-color:#6da3cd"/><stop offset="100%" style="stop-color:#3b6689"/></linearGradient></defs><defs><linearGradient id="j" x1="176.612" x2="178.358" y1="477.819" y2="616.809" gradientUnits="userSpaceOnUse"><stop offset="0%" style="stop-color:#73abd6"/><stop offset="100%" style="stop-color:#244867"/></linearGradient></defs><defs><linearGradient id="k" x1="472.165" x2="630.159" y1="840.609" y2="842.086" gradientUnits="userSpaceOnUse"><stop offset="0%" style="stop-color:#b3d7e1"/><stop offset="100%" style="stop-color:#85b1c0"/></linearGradient></defs><path fill="#021d38" d="M141 635c7.468 6.024 10.665-23.393 11-26.5 3.045-28.274.894-60.296-2-88.5-1.141-11.118-2.101-22.487-4-33.5-2.541-14.74-9.24-30.597-9-45-1.836-4.606-6.685 10.741-7 11.5-1.55 3.739-2.846 7.102-4 11l-1-1c12.568-41.165 27.506-40.439 67-50.5 2.227-13.866 3.281-28.244 6-42 1.494-7.558 10.453-39.599 10-44-.251-2.442-12.072-25.8-14-32-15.841-50.94-17.96-125.179-5-177 2.665-10.655 6.461-22.004 13.5-30.5 7.46 49.197 15.097 99.041 47 139 17.331-27.373 37.334-53.407 65-71C422.735 86.173 662.292 84.121 749 189.5c3.428 4.166 23.361 35.947 25.5 35.5 12.185-19.745 22.935-41.065 29.5-63.5 7.145-24.416 8.675-49.84 14.5-74.5 14.259 24.621 19.011 59.043 20.5 87.5 1.919 36.682-1.019 79.672-11 115-2.189 7.749-12.2 26.338-13 31-1.056 6.149 8.32 39.131 10 48 1.281 6.764 4.762 43.653 7.5 45.5 38.628 7.165 55.093 14.097 65.5 53.5 9.586 36.295 8.203 137.384-16 167-11.032 13.5-68.7 17.628-73 23C773.299 780.271 690.203 907.203 555.5 931 378.988 962.183 254.74 810.248 213 656.5c-2.113-2.902-58.292-10.19-69.5-17.5-2.173-1.417-2.335-3.832-2.5-4m665-462c-.958-1.797-2.977-2.133-4-.5-2.777 4.432-6.752 22.058-10 29-2.047 4.374-15.79 25.445-16 27-.58 4.302 4.081 7.556 6 10.5.232.356.858 5.128 2 6.5 1.285 1.544 2.626-.957 3-.5 3.647 4.455 8.766 9.397 12 14 3.598 5.122 14.716 26.218 15 31.5.288 5.364-6.837 12.252-7 13-.164.749 2.212 13.961 5 14.5l2 .5c22.294-56.339 30.54-125.24 18-185-.282-1.342-2.553-11.982-4-9 1.449.935.921 2.124 1 3.5h-3c-.466-8.334-1.751-15.945-4-24-.766-2.744-.985-9.187-4-10.5l-9 56c1.426 3.184 2.751-1.346 3 0 .441 2.386-4.925 19.365-6 23.5M199 95c-14.688 49.109-20.474 101.948-13 153 3.532 24.127 11.505 51.98 23.5 73 1.47-.62 2.034-10.296 2.5-12 1.845-6.743 12.639-33.12 12-36.5-.11-.58-5.831-8.35-7-9.5.111-.844.134-2.181 0-3 2.729-5.936 9.542-10.035 13-15 7.155 5.893 17.641-11.523 17-15.5-.283-1.753-16.617-25.046-19-30-2.528-5.255-5.257-15.925-8-22.5-4.615-14.257-9.989-28.776-13-43.5-2.267-11.085-1.522-23.691-4-34.5-.163-.713-2.114-6.688-4-4m204 28c-140.486 35.141-185.551 141.356-204 275-.872 6.315-2.299 12.59-3 19-12.012 109.903 2.053 211.664 48 312 23.904 52.199 55.634 102.879 101 139 3.501 3.698 5.396 4.927 9 8 10.438 8.899 26.861 19.66 39 26 14.032 7.329 29.802 10.865 43.5 19l18.5 3.5c-12.982-3.641-22.993-12.734-34.5-15.5-3.248-5.238-14.078-9.09-21-15-41.742-35.64-49.088-83.718 2-114 55.094-32.656 159.887-30.463 212-4 13.054 6.629 33.404 22.132 39.5 35.5 1.306 2.863 6.476 16.798 1 17.5-.776-18.378-11.416-28.099-25-38-30.542-22.262-69.838-29.04-107-30-16.637-2.569-33.51-.09-50 2-21.105 2.675-52.437 8.283-68 22-6.799.3-12.332 6.769-17 11-46.211 41.893 4.862 93.418 45 115 11.292 6.072 24.012 13.012 37 14 30.066 9.327 61.927 9.023 93-1 .309-.086.692.089 1 0-1.567 3.134 2.392 2.183 3.5 2 10.071-1.661 35.045-9.467 44-13 .901-.355-1.456-1.955 1-3 6.252-2.661 12.984-4.677 20.5-9 7.63-4.389 30.681-17.654 35-24 127.789-103.072 181.107-303.057 160-462-.962-7.243.097-13.905-3-21-12.516-84.219-48.007-198.254-126.5-243-26.652-15.193-63.407-27.036-93.5-33a383 383 0 0 0-11-2c-61.11-10.241-129.932-8.025-190 7m430 319c1.769 29.577 3.037 58.682 1 88.5-2.438 35.691-10.526 70.526-17 105.5.093 1.303 1.899 1.692 2 3-1.658.802-3.903-.235-5 1.5-.296.469-2.954 10.218-.5 10.5 7.526-3.008 58.778-9.884 59.5-15.5-3.084-4.104-4.15-8.546-5-13.5-7.313-42.641-6.851-124.661 5-166 .339-1.182 6.541-24.083 9-18.5l-2.5 5.5 2.5 1c-8.029 26.927-16 54.604-15 83.5.132 3.805.838 2.635 3 1-.07 3.33.098 6.672 0 10-.615 20.871-3.654 48.134-1 71 .636 5.482 3.102 22.754 8 24.5 5.69 2.028 6.409-8.912 8-13 6.843-17.579 10.491-36.276 13-55 .658-4.909 1.545-10.113 2-15 1.011-10.866 2.044-23.146 2-34-.084-20.428-2.696-42.868-10-62-1.707-4.471-3.596-9.501-7-13-.28-.288.291-4.08-2 0 2.314-10.726-22.271-22.891-32-17 9.483-6.545-14.496-7.512-19.5-9 .775 8.632.982 17.342 1.5 26m-693-6c-.179.253-2.984 1.825-3 2.5-.038 1.581 8.866 24.411 10 30 8.364 41.208 13.818 109.497 7 150.5-1.069 6.43-3.543 13.192-6.5 19 3.458 4.194 48.273 10.02 56.5 12 .561.135 9.558 7.518 10 2.5-2.939-1.992-1.859-8.294-3-11-.165-.391-4.762-2.487-6-6-4.29-12.174-6.678-31.117-9-41-.96-4.084 1.084-7.804-2-12.5-6.009-52.182-10.416-105.02-4-157.5-1.289-2.13-13.728 5.322-15 7.5-7.578-16.011-27.44-6.642-35 4"/><path fill="#b0ddec" d="M822 104c-4.153 49.342-9.199 97.736-35 141-.374-.457-1.715 2.044-3 .5-1.142-1.372-1.768-6.144-2-6.5 10.791-20.935 18.084-43.235 24-66 1.075-4.135 6.441-21.114 6-23.5-.249-1.346-1.574 3.184-3 0l9-56c3.015 1.313 3.234 7.756 4 10.5"/><path fill="#284f6f" d="M203 99c-1.713 2.722-1.134 7.826-1 11-1.526 44.641 6.563 91.539 31 129.5.129 1.409-2.099 4.207-3 5.5-3.458 4.965-10.271 9.064-13 15-.098-.597-5.275-8.227-6-10.5-11.422-35.792-18.53-75.684-17-113.5.561-13.873 4.183-27.254 5-41 1.886-2.688 3.837 3.287 4 4"/><path fill="#b0dfeb" d="M194 136c-11.091 38.831-8.435 81.734 0 121-.035-.107-1.715.377-2-.5-1.124-3.457-1.439-9.225-2-13l-4 4.5c-7.474-51.052-1.688-103.891 13-153-.817 13.746-4.439 27.127-5 41"/><path fill="#c7e8f1" d="M220 177c-10.219-24.494-16.783-38.096-18-67-.134-3.174-.713-8.278 1-11 2.478 10.809 1.733 23.415 4 34.5 3.011 14.724 8.385 29.243 13 43.5"/><path fill="#284a67" d="M826 128c2.47 44.219-7.17 91.67-27 131-3.234-4.603-8.353-9.545-12-14 25.801-43.264 30.847-91.658 35-141 2.249 8.055 3.534 15.666 4 24"/><path fill="#10304f" d="M220 177c2.743 6.575 5.472 17.245 8 22.5 2.383 4.954 18.717 28.247 19 30 .641 3.977-9.845 21.393-17 15.5.901-1.293 3.129-4.091 3-5.5-24.437-37.961-32.526-84.859-31-129.5 1.217 28.904 7.781 42.506 18 67"/><path fill="url(#a)" d="m593 116 34.5 19c29.459 28.14 53.342 63.624 66.5 102.5 5.406 15.973 7.583 38.411 14 52.5-69.685-35.012-147.062-48.024-225-44-11.656.602-23.436 1.496-35 3 36.841-62.24 158.05-113.709 204.5-37 14.796-24.639-11.942-54.111-32-67-25.63-16.47-62.92-24.976-93-28-8.615-.866-24.982 1.788-32 0-.585-.149-1.371-3.765-2-4-2.025-.755-37.811 3.199-43 4-7.048 1.088-39.462 10.489-43 10-2.019-.279-1.189-3.233-4.5-4 60.068-15.025 128.89-17.241 190-7" style="fill:url(#a)"/>/&gt;<path fill="url(#b)" d="M448 249c-45.345 5.898-91.35 20.354-131.5 42-6.317 3.406-44.061 26.457-46.5 30 13.724-51.763 18.99-106.831 47-153.5l-2-1c-58.842 50.992-92.148 128.401-104 204.5-.72 4.626-2.662 9.145-2 14-3.24 3.633-6.046 9.575-10 13 18.449-133.644 63.514-239.859 204-275 3.311.767 2.481 3.721 4.5 4 3.538.489 35.952-8.912 43-10 5.189-.801 40.975-4.755 43-4 .629.235 1.415 3.851 2 4 7.018 1.788 23.385-.866 32 0 30.08 3.024 67.37 11.53 93 28 20.058 12.889 46.796 42.361 32 67-46.45-76.709-167.659-25.24-204.5 37" style="fill:url(#b)"/>/&gt;<path fill="url(#c)" d="M604 118c-3.725 1.893.588 2.791 1.5 3 42.566 9.737 81.578 24.721 114 55 53.394 49.865 80.243 122.528 93.5 193-15.418-18.221-71.811-61.648-93.5-71-2.081-.897-3.397-1.611-5.5 0-1.29-1.71-5.352-6.576-6-8-6.417-14.089-8.594-36.527-14-52.5-13.158-38.876-37.041-74.36-66.5-102.5L593 116a383 383 0 0 1 11 2" style="fill:url(#c)"/>/&gt;<path fill="#5a98ab" d="M824 394c-.144-.33-3.507-5.34-4-6 5.236-3.415-4.109-15.584-7-19-13.257-70.472-40.106-143.135-93.5-193-32.422-30.279-71.434-45.263-114-55-.912-.209-5.225-1.107-1.5-3 30.093 5.964 66.848 17.807 93.5 33 78.493 44.746 113.984 158.781 126.5 243"/><path fill="#9edbeb" d="M812 318c-.106-3.44-3.617-9.453-3-12.5.067-.331 3.452-3.279 4-5 21.865-68.685 20.054-101.535 16-172.5-.079-1.376.449-2.565-1-3.5 1.447-2.982 3.718 7.658 4 9 12.54 59.76 4.294 128.661-18 185z"/><path fill="#143150" d="M829 128c4.054 70.965 5.865 103.815-16 172.5-.548 1.721-3.933 4.669-4 5-.617 3.047 2.894 9.06 3 12.5-2.788-.539-5.164-13.751-5-14.5.163-.748 7.288-7.636 7-13-.284-5.282-11.402-26.378-15-31.5 19.83-39.33 29.47-86.781 27-131z"/><path fill="#4296c0" d="M217 260c.134.819.111 2.156 0 3-.085.643-5.308 9.248-6 11.5-2.04 6.643-2.759 13.902-5 20.5-4.786-12.669-7.871-25.221-12-38-8.435-39.266-11.091-82.169 0-121-1.53 37.816 5.578 77.708 17 113.5.725 2.273 5.902 9.903 6 10.5"/><path fill="#a1c4d1" d="M270 321c-.368.534-.725 1.375-1 2l-58 48c11.852-76.099 45.158-153.508 104-204.5l2 1c-28.01 46.669-33.276 101.737-47 153.5"/><path fill="#3f6482" d="M806 173c-5.916 22.765-13.209 45.065-24 66-1.919-2.944-6.58-6.198-6-10.5.21-1.555 13.953-22.626 16-27 3.248-6.942 7.223-24.568 10-29 1.023-1.633 3.042-1.297 4 .5"/><path fill="#6cb9ce" d="M194 257c4.129 12.779 7.214 25.331 12 38 1.767 4.678 3.107 9.841 6 14-.466 1.704-1.03 11.38-2.5 12-11.995-21.02-19.968-48.873-23.5-73l4-4.5c.561 3.775.876 9.543 2 13 .285.877 1.965.393 2 .5"/><path fill="#67adba" d="M708 290c.648 1.424 4.71 6.29 6 8 1.284 1.702 2.21 4.282 4 6h-1c-65.995-38.395-144.049-51.564-220-50-4.804-6.036-15.304 5.499-14-8 77.938-4.024 155.315 8.988 225 44"/><path fill="#81c0ca" d="M483 246c-1.304 13.499 9.196 1.964 14 8-85.613 1.763-159.904 25.558-228 77-1.676-.404-.161-7.634 0-8 .275-.625.632-1.466 1-2 2.439-3.543 40.183-26.594 46.5-30 40.15-21.646 86.155-36.102 131.5-42 11.564-1.504 23.344-2.398 35-3"/><path fill="#145c71" d="M497 254c75.951-1.564 154.005 11.605 220 50l11 19c-28.637-27.95-112.435-50.984-152-57-36.836-5.601-70.97-6.3-108-3-108.35 9.656-195.841 62.086-264 145-2.478 3.014-5.458 6-8 9 .701-6.41 2.128-12.685 3-19 3.954-3.425 6.76-9.367 10-13 15.904-17.832 40.854-39.536 60-54 68.096-51.442 142.387-75.237 228-77"/><path fill="#abdae9" d="M576 266c-.088 1.599-.641 3.69-2.5 4-8.167 1.362-38.53-4.651-50-5-18.194-.554-37.442.958-55.5 3-.021-1.196-3.06-1.483-3-2.5.023-.391 3.099-.83 3-2.5 37.03-3.3 71.164-2.601 108 3"/><path fill="#0e4573" d="M212 309c-2.893-4.159-4.233-9.322-6-14 2.241-6.598 2.96-13.857 5-20.5.692-2.252 5.915-10.857 6-11.5 1.169 1.15 6.89 8.92 7 9.5.639 3.38-10.155 29.757-12 36.5"/><path fill="url(#d)" d="M468 263c.099 1.67-2.977 2.109-3 2.5-.06 1.017 2.979 1.304 3 2.5-60.405 6.83-125.929 28.5-175.5 64-25.859 18.519-30.617 28.195-40.5 58.5-46.715 143.246-1.329 307.306 97 417.5-.172.476.165 1.481 0 2-7.715 24.282-3.501 42.504 5 66-3.604-3.073-5.499-4.302-9-8-38.575-40.748-76.244-101.379-98-153-33.425-79.306-50.034-167.075-47-253.5.624-17.781 4.559-36.002 4-53.5 68.159-82.914 155.65-135.344 264-145" style="fill:url(#d)"/>/&gt;<path fill="url(#e)" d="M576 266c39.565 6.016 123.363 29.05 152 57 1.495 1.46 2.665 2.215 4 4 15.016 20.084 21.028 70.786 23 96 3.808 48.692-2.519 93.962-9 142-11.172 82.81-25.188 168.945-77 237-.232-6.124-17.352-23.799-22.5-28-27.755-22.647-70.518-33.458-105.5-37-57.745-5.846-168.659 6.524-192 71-98.329-110.194-143.715-274.254-97-417.5 9.883-30.305 14.641-39.981 40.5-58.5 49.571-35.5 115.095-57.17 175.5-64 18.058-2.042 37.306-3.554 55.5-3 11.47.349 41.833 6.362 50 5 1.859-.31 2.412-2.401 2.5-4m-83.5 17c-129.653 5.497-228.233 39.808-226.5 188.5 2.332 200.058 181.02 284.243 357.5 219.5C741.743 647.622 787.996 463.204 727 359.5c-41.556-70.653-160.53-79.636-234.5-76.5" style="fill:url(#e)"/>/&gt;<path fill="#0b4d71" d="M492.5 283c73.97-3.136 192.944 5.847 234.5 76.5 60.996 103.704 14.743 288.122-103.5 331.5-176.48 64.743-355.168-19.442-357.5-219.5-1.733-148.692 96.847-183.003 226.5-188.5M285 420c-14.191 64.554-1.892 131.636 33 187.5 50.88 81.46 137.712 96.634 228 87.5 27.45-2.777 49.954-8.481 75-18 32.941-12.52 47.009-22.094 69-50 9.752-12.375 18.099-24.755 25-39 7.682-15.857 14.748-34.873 19-52 14.321-57.686 11.418-131.139-25-180.5-57.411-77.816-253.16-67.959-335.5-40.5-53.363 17.796-76.667 51.173-88.5 105"/><path fill="#0181b0" d="M734 536c-8.36-3.628-18.61-1.585-26.5-5-7.421-3.212-35.104-45.049-42-40 .037 19.855-1.201 39.497-7.5 58.5l-1.5 1.5c-4.062-6.461-11.494-10.267-18.5-13 24.515-91.885-59.801-175.692-151-161 5.928-10.369-17.622-11.926-18-22 16.248-4.102 35.772-6.084 52.5-5 6.373.413 28.149 6.324 31 6 1.844-.21 27.357-14.843 33-17 14.539-5.556 30.11-9.17 45.5-11.5-62.942-19.884-131.641-20.944-196.5-9.5-63.319 11.172-110.354 24.575-124.5 94.5-13.142 64.965 2.852 134.241 34 191.5-3.289-2.931-3.883.309-7-2.5-27.438-24.724-40.781-109.568-39-145 .256-5.101 5.735-29.612 5-31-.44-.832-15.701-4.811-18-5.5 11.833-53.827 35.137-87.204 88.5-105 82.34-27.459 278.089-37.316 335.5 40.5 36.418 49.361 39.321 122.814 25 180.5"/><path fill="#528e9e" d="M813 369c2.891 3.416 12.236 15.585 7 19-9.101-12.181-34.214-34.735-46.5-45-15.664-13.087-43.081-27.079-55.5-39-1.79-1.718-2.716-4.298-4-6 2.103-1.611 3.419-.897 5.5 0 21.689 9.352 78.082 52.779 93.5 71"/><path fill="#104e62" d="M820 388c.493.66 3.856 5.67 4 6 3.097 7.095 2.038 13.757 3 21-.441-.111-1.932-.911-2-1-25.655-33.883-57.91-63.037-93-87-1.335-1.785-2.505-2.54-4-4l-11-19h1c12.419 11.921 39.836 25.913 55.5 39 12.286 10.265 37.399 32.819 46.5 45"/><path fill="url(#f)" d="M469 355c-24.427 6.168-43.971 19.535-64 34 4.628-24.833-25.894-26.46-29-7.5-1.841 11.24 4.306 23.001 17 21.5-4.062 3.675-15.067 20.189-18 25.5-14.734 26.679-20.06 55.621-18 86l6-4.5c-13.794 39.229-14.231 76.839-1 116.5-8.517-3.792-11.597-16.795-18-22.5-31.148-57.259-47.142-126.535-34-191.5 14.146-69.925 61.181-83.328 124.5-94.5 64.859-11.444 133.558-10.384 196.5 9.5-15.39 2.33-30.961 5.944-45.5 11.5-5.643 2.157-31.156 16.79-33 17-2.851.324-24.627-5.587-31-6-16.728-1.084-36.252.898-52.5 5m-79.5-23c-12.742.437-19.629 25.926-7 29 21.572 5.251 24.727-29.608 7-29" style="fill:url(#f)"/>/&gt;<path fill="#6eacb9" d="M269 323c-.161.366-1.676 7.596 0 8-19.146 14.464-44.096 36.168-60 54-.662-4.855 1.28-9.374 2-14z"/><path fill="url(#g)" d="M825 414c.037 2.051-3.848 3.203-4 4.5-.705 6.001 2.811 23.373 3 31 3.014 121.75-19.743 234.129-84 338-19.42 31.393-43.456 64.11-72 87.5 9.351-17.522 12.858-54.915 1-72 .054-.301.012-.687 0-1 51.812-68.055 65.828-154.19 77-237 12.921-35.846 16.235-79.37 14-117.5-.429-7.316-1.393-18.288-5-24.5-1.972-25.214-7.984-75.916-23-96 35.09 23.963 67.345 53.117 93 87" style="fill:url(#g)"/>/&gt;<path fill="#fdfeff" d="M389.5 332c17.727-.608 14.572 34.251-7 29-12.629-3.074-5.742-28.563 7-29"/><path fill="#19a4cb" d="M487 377c-12.595 2.029-26.162 6.324-37 13-15.713-6.522-36.892-1.927-49 10-.958.118-2.078-.199-3 0 1.965-3.202 6.303-7.261 7-11 20.029-14.465 39.573-27.832 64-34 .378 10.074 23.928 11.631 18 22"/><path fill="#fefeff" d="M405 389c-.697 3.739-5.035 7.798-7 11-2.325.503-3.321 1.481-5 3-12.694 1.501-18.841-10.26-17-21.5 3.106-18.96 33.628-17.333 29 7.5"/><path fill="url(#h)" d="M638 538c-2.44 9.144-11.647 28.01-17 36-31.828 47.505-92.269 64.966-146 49-.736-3.854-4.461-.276-2-6 1.168.361 1.827 1.843 3 .5-49.304-29.286-94.628-83.943-69-144.5 56.052 30.87 94.542-61.607 43-83 10.838-6.676 24.405-10.971 37-13 91.199-14.692 175.515 69.115 151 161m-87.5-20c-39.578 2.621-34.409 57.833 7 53 36.102-4.213 33.263-55.667-7-53" style="fill:url(#h)"/>/&gt;<path fill="#fefeff" d="M450 390c51.542 21.393 13.052 113.87-43 83-1.714-.944-6.589-4.596-8-6-1.704-1.696-7.08-8.943-8-11-7.881-17.614-3.919-42.29 10-56 12.108-11.927 33.287-16.522 49-10"/><path fill="#69dff2" d="M398 400c.922-.199 2.042.118 3 0-13.919 13.71-17.881 38.386-10 56-1.934 2.682-3.121 5.834-4 9-11.206 12.275-18.547 29.491-24 45l-6 4.5c-2.06-30.379 3.266-59.321 18-86 2.933-5.311 13.938-21.825 18-25.5 1.679-1.519 2.675-2.497 5-3"/><path fill="#cae4ee" d="M247 715c.081 4.595-4.118 2.027-5 4.5-.939 2.631 4.842 6.799 2 9.5-45.947-100.336-60.012-202.097-48-312 2.542-3 5.522-5.986 8-9 .559 17.498-3.376 35.719-4 53.5-3.034 86.425 13.575 174.194 47 253.5"/><path fill="#549bae" d="M827 415c21.107 158.943-32.211 358.928-160 462 .063-.092.612-1.272 1-2 28.544-23.39 52.58-56.107 72-87.5 64.257-103.871 87.014-216.25 84-338-.189-7.627-3.705-24.999-3-31 .152-1.297 4.037-2.449 4-4.5.068.089 1.559.889 2 1"/><path fill="#153451" d="M851 425c-1.086.657-3.273 4.6-4 6-2.08 4.006-3 7.436-3 12l-11-1c-.518-8.658-.725-17.368-1.5-26 5.004 1.488 28.983 2.455 19.5 9"/><path fill="#19a4cb" d="M344 604c6.403 5.705 9.483 18.708 18 22.5-13.231-39.661-12.794-77.271 1-116.5 5.453-15.509 12.794-32.725 24-45-9.109 32.795-4.56 71.763 13 101-7.57 6.166-6.219 17-9 25.5-.33 1.009-2.675-.008-3 1-1.475 4.583 39.995 36.666 46.5 40.5 4.13 2.434 26.836 11.143 27.5 12.5 1.378 2.814-2.079 27.009-.5 28.5l81 1 3.5 20c-90.288 9.134-177.12-6.04-228-87.5-34.892-55.864-47.191-122.946-33-187.5 2.299.689 17.56 4.668 18 5.5.735 1.388-4.744 25.899-5 31-1.781 35.432 11.562 120.276 39 145 3.117 2.809 3.711-.431 7 2.5m51.5-41c-5.251 9.427-19.278 18.734-8 28z"/><path fill="#416f93" d="M175 432c.126.266-.118.708 0 1-9.857 6.893-30.549 14.785-23 29l-12-26c7.56-10.642 27.422-20.011 35-4"/><path fill="#6098aa" d="M746 565c6.481-48.038 12.808-93.308 9-142 3.607 6.212 4.571 17.184 5 24.5 2.235 38.13-1.079 81.654-14 117.5"/><path fill="#3b6687" d="M883 442c-.188.872-.733 1.106-1 2l-2.5-1 2.5-5.5c-2.459-5.583-8.661 17.318-9 18.5-1.22.198-3.001-.308-4 0 1.453-11.757-14.353-17.92-22-25 .727-1.4 2.914-5.343 4-6 9.729-5.891 34.314 6.274 32 17"/><path fill="#264a6a" d="M194 582c-1.326-2.02-9.318-9.516-12-11-2.638-36.874-.015-74.193-4-111 2.94-2.297 6.457-6.084 4-10.5-4.921 1.829-3.721-1.485-4-1.5-.291-5.051-1.11-10.3-3-15-.118-.292.126-.734 0-1 1.272-2.178 13.711-9.63 15-7.5-6.416 52.48-2.009 105.318 4 157.5"/><path fill="#6193bb" d="M869 456c-.119.037-.878 2.076-1.5 2-3.07-.373-17.468-11.648-23.5-13v-2c0-4.564.92-7.994 3-12 7.647 7.08 23.453 13.243 22 25"/><path fill="#689fc8" d="M175 433c1.89 4.7 2.709 9.949 3 15-4.516-.237-20.986 11.63-26 14-7.549-14.215 13.143-22.107 23-29"/><path fill="#b1d1d7" d="M152 462c5.014-2.37 21.484-14.237 26-14 .279.015-.921 3.329 4 1.5 2.457 4.416-1.06 8.203-4 10.5-3.226 2.521-23.434 11.271-24 12.5 3.026 24.411 6.466 49.367 7 74 .303 13.984.24 59.611-5 70.5-.433.9-.832 1.914-2 2 6.818-41.003 1.364-109.292-7-150.5-1.134-5.589-10.038-28.419-10-30 .016-.675 2.821-2.247 3-2.5z"/><path fill="#99c7d2" d="M885 442c-5.118 9.049-5.08 19.359-7 29.5l-1-6c-4.754 5.426 3.911 15.453-3 21.5-.013-.777.589-4.489-1-3.5-.019 7.561-3.762 15.612-1 23-.25-6.108 1.737-12.518 2-18.5-.181 22.019-2.484 43.922-3 66-.015.661.014 1.339 0 2-.534 25.902-2.718 53.217 6 78-4.898-1.746-7.364-19.018-8-24.5-2.654-22.866.385-50.129 1-71 .098-3.328-.07-6.67 0-10-2.162 1.635-2.868 2.805-3-1-1-28.896 6.971-56.573 15-83.5.267-.894.812-1.128 1-2 2.291-4.08 1.72-.288 2 0m-10.5 33c-.512.002-.747 4.953-1 6 2.599.328 1.493-6.002 1-6m-4 36c-.778.005-.771 6.005 0 6 .874-.969.696-6.004 0-6"/><path fill="#5da4c2" d="M150 520c-1.676 2.678-1.182 7.891-1 11-1.338 7.012-5.508 1.754-10 6-.238-5.386-.652-10.642-1-16-1.477-22.757-2.719-45.797-8-68 .315-.759 5.164-16.106 7-11.5-.24 14.403 6.459 30.26 9 45 1.899 11.013 2.859 22.382 4 33.5"/><path fill="#224463" d="M844 443v2c-1.965-.44.492 1.782-.5 2-1.413.311-3.546-3.604-4.5-.5-.723 2.351-.929 11.061 4 9.5-.079.645.049 1.347 0 2-1.439 19.213-.131 40.151-1 59.5-1.14 25.388-4.99 51.143-3 76.5-4.477 3.018-8.617 6.118-14 7.5 1.338 8.385-8.44 28.346-8 34.5 6.474-34.974 14.562-69.809 17-105.5 2.037-29.818.769-58.923-1-88.5z"/><path fill="#498daa" d="M892 455c-8.203 25.26-8.807 54.39-10 81-.251 5.605-.887 11.48-1 17-.007.333.006.667 0 1h-10c.516-22.078 2.819-43.981 3-66 .015-.331.005-.669 0-1 6.911-6.047-1.754-16.074 3-21.5l1 6c1.92-10.141 1.882-20.451 7-29.5 3.404 3.499 5.293 8.529 7 13"/><path fill="url(#i)" d="M844 445c6.032 1.352 20.43 12.627 23.5 13 .622.076 1.381-1.963 1.5-2 .999-.308 2.78.198 4 0-11.851 41.339-12.313 123.359-5 166-2.659.421-1.586-.877-2-2-5.051-13.712-4.548-27.587-5.5-42-6.382 6.761-13.927 10.894-21.5 16-1.99-25.357 1.86-51.112 3-76.5.869-19.349-.439-40.287 1-59.5l22.5 12c10.536-8.414-20.539-23.393-22.5-19.5-.374.742.178 4.041 0 5.5-4.929 1.561-4.723-7.149-4-9.5.954-3.104 3.087.811 4.5.5.992-.218-1.465-2.44.5-2" style="fill:url(#i)"/>/&gt;<path fill="#e1f4fa" d="M843 458c.049-.653-.079-1.355 0-2 .178-1.459-.374-4.758 0-5.5 1.961-3.893 33.036 11.086 22.5 19.5z"/><path fill="#e2f5fa" d="M138 521c-4.458-7.771-12.149-5.642-19-2-.066-20.399 1.207-35.439 7-55 1.154-3.898 2.45-7.261 4-11 5.281 22.203 6.523 45.243 8 68"/><path fill="#d1f0f9" d="M902 517c-3.744 1.341-1.724 15.944-4.5 17-3.096 1.178-11.193-1.365-15.5 2 1.193-26.61 1.797-55.74 10-81 7.304 19.132 9.916 41.572 10 62"/><path fill="#04598b" d="M399 467c-22.593 45.762-1.385 93.629 34.5 125 8.454 7.391 29.121 21.788 39.5 25-2.461 5.724 1.264 2.146 2 6-27.272-8.104-60.317-32.554-75-57-17.56-29.237-22.109-68.205-13-101 .879-3.166 2.066-6.318 4-9 .92 2.057 6.296 9.304 8 11"/><path fill="url(#j)" d="M182 571c.708 9.891 2.303 39.161 7 46.5 1.762 2.753 6.539 4.309 7 5 1.61 2.412 2.807 10.011 4 13.5-15.248-3.431-31.578-9.326-44-19 5.24-10.889 5.303-56.516 5-70.5-.534-24.633-3.974-49.589-7-74 .566-1.229 20.774-9.979 24-12.5 3.985 36.807 1.362 74.126 4 111" style="fill:url(#j)"/>/&gt;<path fill="#1d4b68" d="M126 464c-5.793 19.561-7.066 34.601-7 55 .047 14.377 1.261 28.765 3 43 .604 4.945 1.201 10.091 2 15 1.069 6.569 7.633 39.728 10 43.5.965 1.537 2.41 1.751 3 0 .99-2.934 2.727-20.453 3-24.5 11.605 2.205 3.863-6.532 10-12-.714 17.131-.401 35.642-9 51-29.115-29.592-27.901-133.019-16-172z"/><path fill="#8ce2f3" d="M407 473c-25.628 60.557 19.696 115.214 69 144.5-1.173 1.343-1.832-.139-3-.5-10.379-3.212-31.046-17.609-39.5-25-35.885-31.371-57.093-79.238-34.5-125 1.411 1.404 6.286 5.056 8 6"/><path fill="#2e5a7e" d="M874.5 475c.493-.002 1.599 6.328-1 6 .253-1.047.488-5.998 1-6"/><path fill="#3a6384" d="M874 487c.005.331.015.669 0 1-.263 5.982-2.25 12.392-2 18.5-2.762-7.388.981-15.439 1-23 1.589-.989.987 2.723 1 3.5"/><path fill="#19a4cb" d="M734 536c-4.252 17.127-11.318 36.143-19 52-3.761.458.088-3.349 0-3.5-.393-.679-11.72-9.41-12.5-9.5-3.112-.36-4.937 9.483-7 10-4.594 1.152-30.43-29.747-38-32l35 39-38-32-23 37c-2.362.68-8.489-11.744-8.5-12.5-.05-3.304 3.595.888 3-2-.21-1.021-6.222-5.486-5-8.5 5.353-7.99 14.56-26.856 17-36 7.006 2.733 14.438 6.539 18.5 13l1.5-1.5c6.299-19.003 7.537-38.645 7.5-58.5 6.896-5.049 34.579 36.788 42 40 7.89 3.415 18.14 1.372 26.5 5"/><path fill="#3d7090" d="M870.5 511c.696-.004.874 5.031 0 6-.771.005-.778-5.995 0-6"/><path fill="#a8e7f3" d="M138 521c.348 5.358.762 10.614 1 16 .34 7.71.931 15.245 1 23l-18 2c-1.739-14.235-2.953-28.623-3-43 6.851-3.642 14.542-5.771 19 2"/><path fill="#8ddded" d="M902 517c.044 10.854-.989 23.134-2 34l-19 2c.113-5.52.749-11.395 1-17 4.307-3.365 12.404-.822 15.5-2 2.776-1.056.756-15.659 4.5-17"/><path fill="#fefeff" d="M550.5 518c40.263-2.667 43.102 48.787 7 53-41.409 4.833-46.578-50.379-7-53"/><path fill="#bcd7dc" d="M141 635c8.599-15.358 8.286-33.869 9-51 .733-17.582.03-35.451-1-53-.182-3.109-.676-8.322 1-11 2.894 28.204 5.045 60.226 2 88.5-.335 3.107-3.532 32.524-11 26.5"/><path fill="#417795" d="M150 584c-6.137 5.468 1.605 14.205-10 12 .465-6.892-.11-14.071 0-21 .079-4.978.044-10.021 0-15-.069-7.755-.66-15.29-1-23 4.492-4.246 8.662 1.012 10-6 1.03 17.549 1.733 35.418 1 53"/><path fill="#5bbccf" d="M900 551c-.455 4.887-1.342 10.091-2 15-3.802-.344-.932 4.598-2.5 6-.546.488-12.661 2.261-14.5 2-.053-6.641-.122-13.362 0-20 .006-.333-.007-.667 0-1z"/><path fill="#4ecce6" d="M715 588c-6.901 14.245-15.248 26.625-25 39l-12.5-13-17 16c-6.558-14.396-15.64-25.039-30-32-1.601 4.68-22.104 20.956-22.5 22.5-1.767 6.894 15.808 25.448 18 33-18.485 7.329-9.359 8.582-5 23.5-25.046 9.519-47.55 15.223-75 18l-3.5-20-81-1c-1.579-1.491 1.878-25.686.5-28.5-.664-1.357-23.37-10.066-27.5-12.5-6.505-3.834-47.975-35.917-46.5-40.5.325-1.008 2.67.009 3-1 2.781-8.5 1.43-19.334 9-25.5 14.683 24.446 47.728 48.896 75 57 53.731 15.966 114.172-1.495 146-49-1.222 3.014 4.79 7.479 5 8.5.595 2.888-3.05-1.304-3 2 .011.756 6.138 13.18 8.5 12.5l23-37 38 32-35-39c7.57 2.253 33.406 33.152 38 32 2.063-.517 3.888-10.36 7-10 .78.09 12.107 8.821 12.5 9.5.088.151-3.761 3.958 0 3.5"/><path fill="#2f6883" d="M881 554c-.122 6.638-.053 13.359 0 20 .073 9.158.346 17.876 1 27-3.631.528-1.035-4.023-2.5-5-.938-.625-6.547.844-7.5-.5-1.718-2.424 2.041-33.95-1-39.5.014-.661-.015-1.339 0-2z"/><path fill="#1c4d63" d="M882 601c.475 6.629-.038 13.803 3 20-1.591 4.088-2.31 15.028-8 13-8.718-24.783-6.534-52.098-6-78 3.041 5.55-.718 37.076 1 39.5.953 1.344 6.562-.125 7.5.5 1.465.977-1.131 5.528 2.5 5"/><path fill="#61c5d9" d="M140 560c.044 4.979.079 10.022 0 15l-16 2c-.799-4.909-1.396-10.055-2-15z"/><path fill="#4ecce6" d="m395.5 563-8 28c-11.278-9.266 2.749-18.573 8-28"/><path fill="#2f899d" d="M898 566c-2.509 18.724-6.157 37.421-13 55-3.038-6.197-2.525-13.371-3-20-.654-9.124-.927-17.842-1-27 1.839.261 13.954-1.512 14.5-2 1.568-1.402-1.302-6.344 2.5-6"/><path fill="#0e2947" d="M194 582c3.084 4.696 1.04 8.416 2 12.5 2.322 9.883 4.71 28.826 9 41 1.238 3.513 5.835 5.609 6 6 1.141 2.706.061 9.008 3 11-.442 5.018-9.439-2.365-10-2.5.134-4.643-2.512-9.649-4-14-1.193-3.489-2.39-11.088-4-13.5-.461-.691-5.238-2.247-7-5-4.697-7.339-6.292-36.609-7-46.5 2.682 1.484 10.674 8.98 12 11"/><path fill="#3fa8bf" d="M140 575c-.11 6.929.465 14.108 0 21-.273 4.047-2.01 21.566-3 24.5-.59 1.751-2.035 1.537-3 0-2.367-3.772-8.931-36.931-10-43.5z"/><path fill="#142f4d" d="M866 620c-14.389 8.455-32.411 11.946-47 19-.101-1.308-1.907-1.697-2-3-.44-6.154 9.338-26.115 8-34.5 5.383-1.382 9.523-4.482 14-7.5 7.573-5.106 15.118-9.239 21.5-16 .952 14.413.449 28.288 5.5 42"/><path fill="#89dbee" d="M690 627c-21.991 27.906-36.059 37.48-69 50-4.359-14.918-13.485-16.171 5-23.5-2.192-7.552-19.767-26.106-18-33 .396-1.544 20.899-17.82 22.5-22.5 14.36 6.961 23.442 17.604 30 32l17-16z"/><path fill="#325a79" d="M200 636c1.488 4.351 4.134 9.357 4 14-8.227-1.98-53.042-7.806-56.5-12 2.957-5.808 5.431-12.57 6.5-19 1.168-.086 1.567-1.1 2-2 12.422 9.674 28.752 15.569 44 19"/><path fill="#2b4c6a" d="M866 620c.414 1.123-.659 2.421 2 2 .85 4.954 1.916 9.396 5 13.5-.722 5.616-51.974 12.492-59.5 15.5-2.454-.282.204-10.031.5-10.5 1.097-1.735 3.342-.698 5-1.5 14.589-7.054 32.611-10.545 47-19"/><path fill="#add1dd" d="M345 868c-45.366-36.121-77.096-86.801-101-139 2.842-2.701-2.939-6.869-2-9.5.882-2.473 5.081.095 5-4.5 21.756 51.621 59.425 112.252 98 153"/><path fill="#76a5b4" d="M541 737c-6.298 17.991 12.861 7.456 21 15-54.146-9.064-187.244-3.792-205 64l-8-6c.165-.519-.172-1.524 0-2 23.341-64.476 134.255-76.846 192-71"/><path fill="#608d9d" d="M669 802c.012.313.054.699 0 1-.254 1.424-4.218 6.262-6 7-13.365-34.439-67.719-52.429-101-58-8.139-7.544-27.298 2.991-21-15 34.982 3.542 77.745 14.353 105.5 37 5.148 4.201 22.268 21.876 22.5 28"/><path fill="#0d364c" d="M562 752c33.281 5.571 87.635 23.561 101 58 13.004 33.511-9.273 67.13-31 91-7.516 4.323-14.248 6.339-20.5 9-2.456 1.045-.099 2.645-1 3-8.955 3.533-33.929 11.339-44 13-1.108.183-5.067 1.134-3.5-2 36.184-10.514 92.772-53.052 91-95 5.476-.702.306-14.637-1-17.5-6.096-13.368-26.446-28.871-39.5-35.5-52.113-26.463-156.906-28.656-212 4-51.088 30.282-43.742 78.36-2 114 6.922 5.91 17.752 9.762 21 15 11.507 2.766 21.518 11.859 34.5 15.5l-18.5-3.5c-13.698-8.135-29.468-11.671-43.5-19-22.642-21.187-44.6-53.165-36-86 17.756-67.792 150.854-73.064 205-64"/><path fill="#dff3f6" d="m522 761-25.5 2c20.516.942 48.479-3.781 63 13-28.674-7.606-58.296-5.792-87.5-4 4.493-2.331 4.664-6.969 0-9 16.49-2.09 33.363-4.569 50-2"/><path fill="url(#k)" d="M629 791c54.295 67.41-42.691 124.36-101.5 129-13.931 1.099-27.715-.77-41.5-2-12.34-1.101-24.163-2.582-36-5 1.074-5.744-1.362-4.006-3-6-3.475-4.23-36.432-24.728-46-33-42.126-49.934-8.424-85.122 44.5-98 6.601-1.606 21.407-1.358 26.5-4 29.204-1.792 58.826-3.606 87.5 4-14.521-16.781-42.484-12.058-63-13l25.5-2c37.162.96 76.458 7.738 107 30m-130.5-10c-21.957.65-47.404 3.441-68 11-16.781 6.159-45.572 22.805-41 44 .989-20.227 24.71-35.425 42-42 40.434-15.376 128.168-14.951 168 2 8.651 3.682 16.136 9.875 23.5 15.5-26.126-30.062-86.849-31.615-124.5-30.5m8.5 25c-13.039.199-25.995-.393-39 1-6.271.672-6.401 1.709-8 2-41.602 7.577-78.498 24.162-38 67.5 46.537 49.8 141.271 48.055 184-6 30.354-38.4-6.65-60.357-43-62.5-.329-.019-.669-.005-1 0-14.583-3.206-31.578-1.999-47-2-2.708 0-5.242-.042-8 0m126.5 22-1 9c1.554.41 4.179-8.634 1-9" style="fill:url(#k)"/>/&gt;<path fill="#c5e6ee" d="M472 763c4.664 2.031 4.493 6.669 0 9-5.093 2.642-19.899 2.394-26.5 4-52.924 12.878-86.626 48.066-44.5 98-11.22-9.701-21.481-14.313-26-32 4.227-3.648 1.201-12.561 2-17.5 2.298-14.208 16.451-30.202 27-39.5 15.563-13.717 46.895-19.325 68-22"/><path fill="#092b3a" d="M498.5 781c37.651-1.115 98.374.438 124.5 30.5-7.364-5.625-14.849-11.818-23.5-15.5-39.832-16.951-127.566-17.376-168-2-17.29 6.575-41.011 21.773-42 42-4.572-21.195 24.219-37.841 41-44 20.596-7.559 46.043-10.35 68-11"/><path fill="#e3f6fa" d="M404 785c-10.549 9.298-24.702 25.292-27 39.5-.799 4.939 2.227 13.852-2 17.5-1.61-6.299-2.386-17.201-1-23.5 1.911-8.683 10.368-14.393 13-22.5 4.668-4.231 10.201-10.7 17-11"/><path fill="#538697" d="M654 829c1.772 41.948-54.816 84.486-91 95-.308.089-.691-.086-1 0-.506.142-9.438-.22-10.5 0-9.546 1.975-13.345 4.456-24 4-.708-.03-.317 2.127-1 2-.464-.086-1.778-6.985-5-8-4.205-1.325-23.959-.175-31-1-.328-.038-7.007-.983-4.5-3 13.785 1.23 27.569 3.099 41.5 2 58.809-4.64 155.795-61.59 101.5-129 13.584 9.901 24.224 19.622 25 38"/><path fill="#a4cfdc" d="M375 842c4.519 17.687 14.78 22.299 26 32 9.568 8.272 42.525 28.77 46 33l-36.5-20c4.53 11.004 15.618 14.617 21.5 24-40.138-21.582-91.211-73.107-45-115-2.632 8.107-11.089 13.817-13 22.5-1.386 6.299-.61 17.201 1 23.5"/><path fill="#31586b" d="M668 875c-.388.728-.937 1.908-1 2-4.319 6.346-27.37 19.611-35 24 21.727-23.87 44.004-57.489 31-91 1.782-.738 5.746-5.576 6-7 11.858 17.085 8.351 54.478-1 72"/><path fill="#404346" d="M515 806c-2.374 3.461-1.592 7.23-2 11-.452 4.177-.871 7.748-1 12h-2c-.121-4.238-.58-7.851-1-12-.395-3.905.857-7.382-2-11 2.758-.042 5.292 0 8 0"/><path fill="#23383c" d="M468 807c.589 3.899-.178 7.998 0 12 .685 15.398 1.551 30.651 3 46 .392 4.149.931 8.316 1 12.5-3.917-18.403-6.309-39.118-10-57.5-.57-2.84.208-7.962-2-11 1.599-.291 1.729-1.328 8-2"/><path fill="#3b8892" d="M507 806c2.857 3.618 1.605 7.095 2 11l-41 2c-.178-4.002.589-8.101 0-12 13.005-1.393 25.961-.801 39-1"/><path fill="#38848e" d="M562 808c-1.283.019-5.333-.44-6 .5.71 3.981-.525 7.688-1 11.5l-42-3c.408-3.77-.374-7.539 2-11 15.422.001 32.417-1.206 47 2"/><path fill="#43423f" d="M562 808c.331-.005.671-.019 1 0-2.507 4.007-3.033 8.507-4 13-3.81 17.694-4.392 36.587-9 53.5-.219-5.545 1.413-10.989 2-16.5 1.334-12.536 1.457-25.614 3-38 .475-3.812 1.71-7.519 1-11.5.667-.94 4.717-.481 6-.5"/><path fill="#246877" d="M460 809c2.208 3.038 1.43 8.16 2 11-27.12 7.759-58.76 18.577-34 51.5 32.293 42.94 135.901 44.081 167-1 22.65-32.833-9.773-41.949-36-49.5.967-4.493 1.493-8.993 4-13 36.35 2.143 73.354 24.1 43 62.5-42.729 54.055-137.463 55.8-184 6-40.498-43.338-3.602-59.923 38-67.5"/><path fill="#528091" d="M357 816c-8.6 32.835 13.358 64.813 36 86-12.139-6.34-28.562-17.101-39-26-8.501-23.496-12.715-41.718-5-66z"/><path fill="#45ccd4" d="M509 817c.42 4.149.879 7.762 1 12 .315 11.03.858 25.205 0 36-.133 1.67.534 7.222-.5 8l-38.5-8c-1.449-15.349-2.315-30.602-3-46zm46 3c-1.543 12.386-1.666 25.464-3 38-14.207.792-25.656 13.207-40 12.5-.134-1.81.196-3.715 0-5.5-1.095-9.986-.317-25.562 0-36 .129-4.252.548-7.823 1-12z"/><path fill="#37a9b6" d="m471 865 38.5 8c1.034-.778.367-6.33.5-8h2c.196 1.785-.134 3.69 0 5.5 14.344.707 25.793-11.708 40-12.5-.587 5.511-2.219 10.955-2 16.5 4.608-16.913 5.19-35.806 9-53.5 26.227 7.551 58.65 16.667 36 49.5-31.099 45.081-134.707 43.94-167 1-24.76-32.923 6.88-43.741 34-51.5 3.691 18.382 6.083 39.097 10 57.5-.069-4.184-.608-8.351-1-12.5"/><path fill="#0d253f" d="M633.5 828c3.179.366.554 9.41-1 9z"/><path fill="#5b6c6e" d="M512 829c-.317 10.438-1.095 26.014 0 36h-2c.858-10.795.315-24.97 0-36z"/><path fill="#88b6c4" d="M447 907c1.638 1.994 4.074.256 3 6-3.71-.758-7.267-5.679-10.5 0 9.62 4.384 19.387 8.863 29.5 12-12.988-.988-25.708-7.928-37-14-5.882-9.383-16.97-12.996-21.5-24z"/><path fill="#6c9dae" d="M450 913c11.837 2.418 23.66 3.899 36 5-2.507 2.017 4.172 2.962 4.5 3 7.041.825 26.795-.325 31 1 3.222 1.015 4.536 7.914 5 8 .683.127.292-2.03 1-2 10.655.456 14.454-2.025 24-4 1.062-.22 9.994.142 10.5 0-31.073 10.023-62.934 10.327-93 1-10.113-3.137-19.88-7.616-29.5-12 3.233-5.679 6.79-.758 10.5 0"/></svg>