<svg xmlns="http://www.w3.org/2000/svg" width="1024" height="1024"><defs><linearGradient id="a" x1="276.469" x2="754.111" y1="238.748" y2="303.414" gradientUnits="userSpaceOnUse"><stop offset="32.988%" style="stop-color:#63bedd"/><stop offset="100%" style="stop-color:#2c5d70"/></linearGradient></defs><defs><linearGradient id="b" x1="497.428" x2="331.49" y1="203.997" y2="256.35" gradientUnits="userSpaceOnUse"><stop offset="0%" style="stop-color:#c3e9f8"/><stop offset="62.069%" style="stop-color:#fbfdff"/><stop offset="100%" style="stop-color:#cfeefb"/></linearGradient></defs><defs><linearGradient id="c" x1="361.229" x2="353.724" y1="429.46" y2="532.186" gradientUnits="userSpaceOnUse"><stop offset="0%" style="stop-color:#0d2a3c"/><stop offset="100%" style="stop-color:#0e5d7f"/></linearGradient></defs><defs><linearGradient id="d" x1="670.048" x2="661.788" y1="430.675" y2="532.34" gradientUnits="userSpaceOnUse"><stop offset="0%" style="stop-color:#0d2b3c"/><stop offset="100%" style="stop-color:#0e5b7c"/></linearGradient></defs><defs><linearGradient id="e" x1="866.09" x2="883.892" y1="449.702" y2="530.771" gradientUnits="userSpaceOnUse"><stop offset="0%" style="stop-color:#4a9fbf"/><stop offset="100%" style="stop-color:#376a80"/></linearGradient></defs><defs><linearGradient id="f" x1="153.161" x2="141.713" y1="473.474" y2="548.607" gradientUnits="userSpaceOnUse"><stop offset="0%" style="stop-color:#3a95b8"/><stop offset="100%" style="stop-color:#35687f"/></linearGradient></defs><defs><linearGradient id="g" x1="273.272" x2="754.041" y1="640.357" y2="655.274" gradientUnits="userSpaceOnUse"><stop offset="15.8%" style="stop-color:#33afd4"/><stop offset="60.499%" style="stop-color:#117193"/><stop offset="100%" style="stop-color:#1b4a60"/></linearGradient></defs><defs><linearGradient id="h" x1="595.861" x2="435.06" y1="625.421" y2="633.433" gradientUnits="userSpaceOnUse"><stop offset="0%" style="stop-color:#978094"/><stop offset="44.099%" style="stop-color:#bda1b9"/><stop offset="100%" style="stop-color:#90788c"/></linearGradient></defs><path fill="#0c5571" d="M216 195c1.277-11.94-1.279-30.482-14-35.5 2.493 6.424 2.612 14.039 2 21-1.064 12.1-12.827 17.124 9.5 15.5l-.5 5c-5.421 6.701-5.217 3.349-7.5 5-10.343 7.478-21.452 15.605-34.5 14-29.295-3.603-35.341-49.809-9.5-65 28.404-16.698 64.657 8.091 54.5 40m-38.5-44c-17.817 1.517-32.696 20.076-31.5 37.5.186 2.712 5.385 17.337 7.5 18.5 3.199 1.76 21.758 1.118 26 0 24.803-6.538 34.177-59.081-2-56"/><path fill="#11435a" d="M847 233c-.164-1.709-.744-10.039-1-10.5-.195-.35-6.613.481-8 .5-1.453.02-4.694-2.918-7 .5L818 292c-1.061 4.261-2.862 8.707-4 13-2.45 9.24-3.298 19.108-7 28-.107-.106-3.203-1.222-3 0-.752-1.191-1.691-2.53-2-3 1.244.029 1.223-1.149 1-2 2.524 2.127 3.616-2.131 4-3.5 9.216-32.82 13.343-69.018 23-102-46.25-19.085-25.387-86.737 24.5-70.5 26.318 8.566 30.413 48.065 8 64-8.664 6.16-17.091 2.744-15.5 17m12-48c1.222 12.623 5.243 5.075 15.5 7 3.546-14.578-5.358-32.339-19.5-38-26.351-10.548-53.22 10.282-49 38.5 4.153 27.769 47.404 16.529 53-7.5"/><path fill="#3fc1e6" d="M177.5 151c36.177-3.081 26.803 49.462 2 56-4.242 1.118-22.801 1.76-26 0-2.115-1.163-7.314-15.788-7.5-18.5-1.196-17.424 13.683-35.983 31.5-37.5m-13 15c-9.009 1.538-13.954 20.834-4 23 14.87 3.235 21.798-26.038 4-23"/><path fill="#40c2e7" d="M855 154c5.322 9.623 6.53 20.138 4 31-5.596 24.029-48.847 35.269-53 7.5-4.22-28.218 22.649-49.048 49-38.5m-31.5 12c-7.978 1.754-12.614 18.931-4 23 16.735 3.697 22.259-27.015 4-23"/><path fill="#067da5" d="M859 185c2.53-10.862 1.322-21.377-4-31 14.142 5.661 23.046 23.422 19.5 38-10.257-1.925-14.278 5.623-15.5-7"/><path fill="#067ca4" d="M216 195c-.698 2.193-1.49 4.133-3 6l.5-5c-22.327 1.624-10.564-3.4-9.5-15.5.612-6.961.493-14.576-2-21 12.721 5.018 15.277 23.56 14 35.5"/><path fill="#fcfeff" d="M164.5 166c17.798-3.038 10.87 26.235-4 23-9.954-2.166-5.009-21.462 4-23m659 0c18.259-4.015 12.735 26.697-4 23-8.614-4.069-3.978-21.246 4-23"/><path fill="#16394b" d="M744 261v1c-146.555-132.44-375.56-113.89-501 37.5-5.706 6.887-37.592 50.627-38 56-.106 1.401 1.309 2.176 2 3.5l-1 1c-1.087-.943-1.179-2.463-2-1.5-5.387 14.646-16.361 29.998-17 45.5-3.033-.002-5.965.021-9 0 5.445.79 3.865-1.696 4-5.5.999-28.072-6.313-71.858-7-103.5h2c.113 3.979-.157 8.024 0 12 .4 10.114 1.214 19.941 2 30 1.404 17.971 2.864 35.916 7 53.5l11-23c.102-3.492-.143-7.023 0-10.5 1.913-.232 2.926 2.015 5 .5 1.032-.753 12.76-20.745 13-22 .832-4.342-6.558-32.712-8-39.5-5.267-24.795-12.598-49.229-18-74 1.517-.328 2.856.041 3 0l25.5 109C335.298 151.744 582.629 116.826 744 261"/><path fill="url(#a)" d="M744 262c21.976 19.859 41.758 43.271 58 68 .309.47 1.248 1.809 2 3 4.265 6.756 8.206 13.915 12 21-1.212.422-1.487 2.013-2 3-2.264 4.353-3.393 5.727-7 9l-25.5-34c-.594.114-2.231 3.313-2.5 4l-1-1c.368-1.619 2.048-5.211 2-5.5-.428-2.551-34.975-34.115-37.5-34.5-.799-.122-1.806 3.05-2 3-3.288-.848-28.365-18.574-35-22-59.768-30.86-123.46-41.712-190.5-42-114.506-.492-233.883 33.772-300 133-2.412-2.174-6.522-5.167-8-8-.691-1.324-2.106-2.099-2-3.5.408-5.373 32.294-49.113 38-56C368.44 148.11 597.445 129.56 744 262m-258.5-77c-70.761 3.529-157.58 34.253-199.5 93.5 3.673 9.367 47.369-17.831 53.5-20.5 41.284-17.974 156.4-40.492 181-65 12.168-12.123-27.215-8.388-35-8" style="fill:url(#a)"/>/&gt;<path fill="url(#b)" d="M485.5 185c7.785-.388 47.168-4.123 35 8-24.6 24.508-139.716 47.026-181 65-6.131 2.669-49.827 29.867-53.5 20.5 41.92-59.247 128.739-89.971 199.5-93.5" style="fill:url(#b)"/>/&gt;<path fill="#042a3e" d="M192 222c-.144.041-1.483-.328-3 0-.911.197-4.746.982-5 1-3.091.224-4.05-.532-8 0-.099.013-.583-1.53-2 0-.812-2.151-2.333-1.509-3-3 13.048 1.605 24.157-6.522 34.5-14 2.283-1.651 2.079 1.701 7.5-5 1.51-1.867 2.302-3.807 3-6-1.26 11.783-12.381 23.686-24 27"/><path fill="#296a85" d="M176 223c.907 3.744-.161 7.935 0 12 .796 20.047.43 39.981 1 60h-2c-.305-14.039 2.575-62.528-1-72 1.417-1.53 1.901.013 2 0"/><path fill="#6dc6e3" d="M184 223c3.062 24.003 6.74 47.877 9 72l-8 1c.713-14.167-3.07-37.729-5-52.5-.27-2.067-.34-9.63-4-8.5-.161-4.065.907-8.256 0-12 3.95-.532 4.909.224 8 0"/><path fill="#2b81a3" d="M189 222c5.402 24.771 12.733 49.205 18 74l-14 2c-.087-.98.092-2.021 0-3-2.26-24.123-5.938-47.997-9-72 .254-.018 4.089-.803 5-1"/><path fill="#71c9e6" d="m838 223-6 69c-.365-4.363-.735-8.476-6-7 2.341-13.147 3.651-27.636 3.5-41-3.895 15.996-7.523 32.032-11.5 48l13-68.5c2.306-3.418 5.547-.48 7-.5"/><path fill="#3087a9" d="M847 233c1.328 13.875-.049 31.625 0 46-3.001-.438-1.947 2.674-2 4.5-.25 8.653.184 17.343 0 26l-15-1.5c.39-4.737 2.373-11.533 2-16l6-69c1.387-.019 7.805-.85 8-.5.256.461.836 8.791 1 10.5"/><path fill="#4fc4e7" d="M515 234v20c-100.77.367-191.907 18.576-267 90-1.329-1.891-1.802-5.423-4-6.5-.547 3.68 3.022 6.158 2 10-.45 1.692-21.086 22.099-24 25.5-2.341-1.424-4.92-4.125-7-6 66.117-99.228 185.494-133.492 300-133"/><path fill="#318bab" d="M778 335c-.465 2.043-1.963 5.075-3 7-68.621-62.208-150.52-86.043-242-88-5.974-.128-12.022-.022-18 0v-20c67.04.288 130.732 11.14 190.5 42 6.635 3.426 31.712 21.152 35 22 .194.05 1.201-3.122 2-3 2.525.385 37.072 31.949 37.5 34.5.048.289-1.632 3.881-2 5.5"/><path fill="#f4fafe" d="M185 296c-.365 7.245 1.219 9.776-8 11-.157-3.976.113-8.021 0-12-.57-20.019-.204-39.953-1-60 3.66-1.13 3.73 6.433 4 8.5 1.93 14.771 5.713 38.333 5 52.5"/><path fill="#f6fcfd" d="M826 285c-1.224 6.874-1.445 25.835-12 20 1.138-4.293 2.939-8.739 4-13 3.977-15.968 7.605-32.004 11.5-48 .151 13.364-1.159 27.853-3.5 41"/><path fill="#1e556a" d="M515 254c5.978-.022 12.026-.128 18 0l-18 4c-18.172-.459-38.885 1.109-57 3-42.907 4.479-94.174 15.251-132.5 35-4.655 2.399-38.798 23.254-39.5 25.5-.345 1.105.692 4.882 1 6.5h-1c-.801-2.093-.658-4.813-2.5-5L253 349c-3.597-.855-3.425-2.76-5-5 75.093-71.424 166.23-89.633 267-90"/><path fill="#03293d" d="M775 342c-2.736 5.082-4.251 4.026-6 6-9.424-8.511-19.701-15.618-30-23-.057-.041-.062-.336-1-1-66.693-47.208-141.557-63.941-223-66l18-4c91.48 1.957 173.379 25.792 242 88"/><path fill="#90b1bd" d="M515 258c81.443 2.059 156.307 18.792 223 66-.967 4.005-2.826 8.536-5 12-55.725-26.524-110.91-47.949-173-54-34.659-3.377-74.28-4.602-109-2-.099-3.919 5.166-.885 7-2.5.996-.876-.575-14.151 0-16.5 18.115-1.891 38.828-3.459 57-3"/><path fill="#b3c4cb" d="M458 261c-.575 2.349.996 15.624 0 16.5-1.834 1.615-7.099-1.419-7 2.5-56 4.197-113.66 24.638-158 59-2.338-3.45-5.185-6.716-6-11-.308-1.618-1.345-5.395-1-6.5.702-2.246 34.845-23.101 39.5-25.5 38.326-19.749 89.593-30.521 132.5-35"/><path fill="#0a1f29" d="M803 328c.223.851.244 2.029-1 2-16.242-24.729-36.024-48.141-58-68v-1c12.177 10.879 55.41 53.309 59 67"/><path fill="#e0eef6" d="M560 282c2.371 35.149 1.309 72.742-13 105.5-6.093 13.948-39.458 64.243-51.5 71.5-2.569 1.548-6.369 3.145-9.5 3-3.789-18.882-12.144-35.303-23-51-22.69-32.809-53.964-54.201-94-59-5.482-.657-10.881-2.115-16.5-2-11.505.236-28.225 6.29-39 5-.742-.089-9.639-4.321-12-6-3.257-2.315-6.26-6.694-8.5-10 44.34-34.362 102-54.803 158-59 34.72-2.602 74.341-1.377 109 2"/><path fill="#3b6d81" d="M847 279c.036 10.634.221 21.371 0 32l-10 75.5-2 1c-3.727-8.629-7.638-17.187-12-25.5 2.837-17.884 5.511-35.931 7-54l15 1.5c.184-8.657-.25-17.347 0-26 .053-1.826-1.001-4.938 2-4.5"/><path fill="#c0dfed" d="M733 336c-15.026 23.942-21.576 11.902-42.5 12-13.61.064-29.075 1.631-42.5 4-61.795 10.903-111.333 66.236-113.5 129-.808-3.189 4.252-7.489 4.5-8l-7 20.5 8-16c-4.639 4.613 4.758 50.294 8.5 48.5-5.063-16.921-8.81-36.219-6.5-54 1.182 1.059 3.21.472 4-.5 4.101-5.046 16.821-37.323 22.5-38.5 4.206-.872 7.41 6.265 11.5 6-9.862 20.538-12.902 44.47-8 67-11.242-1.445-2.598 19.017 0 25.5 30.858 77.006 153.094 77.777 186 3.5 7.166-1.193 9.976-1.482 16 3-31.824 50.006-82.283 74.509-141.5 61-4.105-.936-21.224-9.068-23.5-8-6.611 8.464-19.179 14.806-23 25-11.626-9.384-33.288-24.092-48.5-23-8.338.598-13.727 6.97-23 6-2.835-.297-10.01-4.59-13-5-37.157-5.093-74.994 43.974-103.5 62.5l1 6.5c-.781-.912-6.481-7.979-8-6.5 5.569 7.121 8.606 15.741 13 23.5 2.873 5.074 5.752 10.157 9 15-9.754-2.249-21.981 3.029-33.5 4-21.947 1.851-51.517-3.96-69.5 8-32.424-47.952-46.876-83.999-55-142 41.582 48.853 105.878 70.67 159 24.5-60.302 29.982-122.79 8.115-162-43.5-.097-1.473 2.036-.757 2-1.5-.038-.794-1.95.047-2-1.5-.097-3.009-.566-24.347.5-25 25.544 53.409 86.838 90.053 145 65 23.725-10.22 42.255-32.329 55.5-53.5-9.806-6.534-14.365 12-20 19-26.813 33.303-75.173 43.767-113.5 24.5-.808-.406-5.564-3.18-3.5-5 51.44 23.167 118.514-3.002 134-59l27 4c-.403 1.882-2.243 4.312-2 6.5 2.927-2.19 5.046-10.704 6-15 .409-1.842 1.409-24.818 5-19l3 8c-.502-10.525-.919-21.129-3-31.5 3.131.145 6.931-1.452 9.5-3 12.042-7.257 45.407-57.552 51.5-71.5 14.309-32.758 15.371-70.351 13-105.5 62.09 6.051 117.275 27.476 173 54"/><path fill="#7cb4c8" d="M832 292c.373 4.467-1.61 11.263-2 16-1.489 18.069-4.163 36.116-7 54-3.334-6.355-11.725-24.765-16-29 3.702-8.892 4.55-18.76 7-28 10.555 5.835 10.776-13.126 12-20 5.265-1.476 5.635 2.637 6 7"/><path fill="#6ea3b7" d="M193 295c.092.979-.087 2.02 0 3 .998 11.206 2.531 22.783 3 34-4.146 5.721-10.247 4.121-17 5-.786-10.059-1.6-19.886-2-30 9.219-1.224 7.635-3.755 8-11z"/><path fill="#2f6077" d="M207 296c1.442 6.788 8.832 35.158 8 39.5-.24 1.255-11.968 21.247-13 22-2.074 1.515-3.087-.732-5-.5.335-8.144-.656-16.78-1-25-.469-11.217-2.002-22.794-3-34z"/><path fill="#0a293a" d="M847 311c-.258 12.407-.469 25.093-1 37.5-.755 17.665-6.432 34.979-1 52.5-4.42.571-3.821 3.301-8 4 .665-3.857 1.033-7.708-4-6l-1-1c.354-.28 2.145-3.169 3-3.5-6.1-13.632-11.946-27.327-19-40.5-3.794-7.085-7.735-14.244-12-21-.203-1.222 2.893-.106 3 0 4.275 4.235 12.666 22.645 16 29 4.362 8.313 8.273 16.871 12 25.5l2-1z"/><path fill="#bbcbd1" d="M286 328c1.417 3.704 1.939 9.219 4 13l-22 21c-5.421-2.849-10.272-7.163-15-11v-2l30.5-26c1.842.187 1.699 2.907 2.5 5"/><path fill="#1b181d" d="M739 325c-.807 4.075-2.125 9.354-4 13-3.199 6.22-7.94 10.403-13 15-1.453 1.32-7.042 1.842-4.5 5 5.551.181 17.12 9.57 21 10 4.156.461 5.05-2.08 7.5-3 8.593-3.227 12.328-6.215 19-12 3.427-2.971 3.09-3.973 4-5 1.749-1.974 3.264-.918 6-6 1.037-1.925 2.535-4.957 3-7l1 1c-.833 2.125-.688 7.191-2 10-.849 1.817-2.799 4.199-4 6-.854 1.281-2.369 4.344-3 5-3.694 3.843-12.917 8.735-18 11-2.267 1.01-5.185.873-7.5 2-1.518 1.864 17.698 9.524 20.5 10 12.195 2.071 17.137-1.924 27-6 2.902-1.199 3.794-.424 8-3 2.708-1.658 4.599-2.821 7-5 3.607-3.273 4.736-4.647 7-9 1.825 3.803-3.55 11.099-6 14-1.488 1.762-3.226 3.589-5 5-1.857 1.476-4.871 2.834-7 4-4.866 2.664-8.896 4.081-14 6-1.912.719-8.462 1.219-9 2.5-1.974 4.7 21.66 13.39 26 11.5 5.534 2.674 5.971 1.696 12 2 3.131.158 4.581-.773 7-1 1.18-.111 3.351.615 6 0 2.786-.647 5.711-1.191 8-3l1 1c-1.69.573-3.704 4.064-6 4.5 3.114 1.27 6.642 2.062 10 1.5 4.179-.699 3.58-3.429 8-4 7.047-.91 16.977.298 24.5-1l-22.5 5.5c9.593 1.527 18.9.818 28.5-.5.159 2.13-3.794 1.756-4.5 2-3.59 1.242-7.303 2.15-11 3-2.296.528-12.144.716-13 1.5-.745 4.591-1.507 6.652 3 9.5-.42.12-11.106-.689-3.5 3 3.523 1.709 28.289-6.194 32.5-10 2.761 2.573.283 1.018 1 2-1.167-.219-1.85 1.888-2 2-3.22 2.417-9.226 5.25-13 7-2.835 1.314-16.057 4.303-17 6.5-.499 3.647 1.63 7.077 2 10.5h-2c-.491-2.199-1.656-10.359-3.5-11l-13 3c-.63.669 1.335 4.945 1.5 6-5.643-8.108-4.563-2.666-6-3-1.631-.379-.693-1.937-1.5-2-3.247-.254-5.472 1.033-7.5 1-8.297-.134-16.68-.458-25-.5 7.83 21.036 5.459 39.545 0 60.5v-18.5l-5 12c-3.068 1.673-1.858-3.132-2-4.5l6-16.5c-3.805-49.563-59.534-109.931-110.5-108.5-6.458.181-12.85.735-17.5 5-49.729 2.354-115.539 57.266-122 107-2.31 17.781 1.437 37.079 6.5 54-3.742 1.794-13.139-43.887-8.5-48.5l-8 16 7-20.5c24.286-50.056 29.518-84.224 89.5-107 4.753-1.805 26.977-5.982 28-7 4.491-4.471-5.821-6.581-8.5-7 13.425-2.369 28.89-3.936 42.5-4 20.924-.098 27.474 11.942 42.5-12 2.174-3.464 4.033-7.995 5-12 .938.664.943.959 1 1m103.5 78c-1.64.423-1.504 2.705 0 3 3.952.777 5.254-4.354 0-3M809 415c.544-.025 8.197 2.913 9-.5-1.67-5.141-7.326-1.307-9-1.5-9.379-1.079-18.739-2.783-28-4.5 5.036 9.209 18.774 6.929 28 6.5m20 0c16.029 1.88 18.138-6.376-1-4-.749.093-5.699-3.211-6 1.5-.277 4.34 4.827 2.245 7 2.5m12.5 3c-.892-.303-17.687 2.066-13.5 7.5 1.769 2.296 13.243 1.217 14.5.5 2.929-1.67.828-7.379-1-8m-27.5 8c3.033.241 9.3 3.724 8-2.5-.966-4.625-8.696-1.373-10-1.5-7.636-.743-15.344-2.004-23-2.5 7.99 3.241 16.333 5.811 25 6.5"/><path fill="#6ca8bd" d="M769 348c-.91 1.027-.573 2.029-4 5l-30-15c1.875-3.646 3.193-8.925 4-13 10.299 7.382 20.576 14.489 30 23"/><path fill="#1c181b" d="M293 339c2.24 3.306 5.243 7.685 8.5 10 2.361 1.679 11.258 5.911 12 6 10.775 1.29 27.495-4.764 39-5 5.619-.115 11.018 1.343 16.5 2-7.734 7.678-22.74-3.123-32.5 3 49.473.594 93.255 22.342 121.5 63 13.549 19.504 22.732 42.227 27.5 65l-4.5-8c-.409-4.141-1.827-10.976-5-14-12.572-48.26-69.443-94.73-120-96-7.88-7.768-30.514-4.782-41.5-2-13.409 3.396-23.051 12.656-33.5 21-12.153 9.704-24.136 20.039-33 33-10.04 14.683-17.449 33.089-19 51-.153 1.771-.953 2.311-1 4-.201 7.254 2.393 15.695 2.5 23-7.43-16.462-7.476-35.227-3.5-52.5-1.539-2.266-1.927-.513-4-.5-4.371.028-14.398 2.354-18 2-.647-.064-1.366.102-2 0-.312-.05-2.322-1.457-6-2-.15-.022.427-2.773-.5-3-1.74-.426-4.547.308-6.5 0-3.441-.542-11.637.418-14 0-.07-.012.368-.765-1-1-10.582-1.816-21.328-3.107-31-8 .19-.101-.276-.689 2-1 7.197-.983 16.199 2.771 23.5 3 3.051.096 7.003-1.02 8.5-1 5.464.075 9.357.39 15 0 1.994-.138 4.531.494 8 0 8.91-1.268 17.96-3.319 26-7.5-7.962-.276-15.951.672-24 .5-2.316-.05-4.691.123-7 0-4.733-.253-11.609-.42-16-1-1.701-.225-4.364-1.553-7-2-.178-.03-2.823-1.966-3-2 5.602 3.216 13.704-5.018 9.5-8-2.879-2.042-28.981 6.77-34.5 3.5l26.5-6.5-10-5c5.58.083 10.901.96 16.5 1 3.035.021 5.967-.002 9 0 3.508.002 6.304-.897 9-1 2.996-.115 4.787.363 9 0 2.166-.187 4.461.619 9 0 4.491-.613 36.506-7.505 36-11.5-7.959-3.303-16.598-4.802-24-9.5-.33-.209-5.104-4.236-6-5-1.74-1.484-5.202-5.14-7-7-2.253-2.331-4.828-8.117-7-10l1-1c1.478 2.833 5.588 5.826 8 8 2.08 1.875 4.659 4.576 7 6a58 58 0 0 0 8 4c4.737 1.906 14.124 4.809 19 5 11.674.458 14.32-4.701 23-11.5.03-1.811-7.005-4.153-9-5.5-4.878-3.295-9.842-5.584-13-11 .858-1.019 1.406-2.704 3-3 4.728 3.837 9.579 8.151 15 11 16.637 8.742 16.213-.818 32.5-6l1.5-1.5c-3.939-4.265-9.184-8.336-12-13.5-2.061-3.781-2.583-9.296-4-13h1c.815 4.284 3.662 7.55 6 11m-94 79c2.316.038 4.685.048 7 0 6.502-.136 33.959.424 30.5-8-8.618 2.032-18.733 3.079-27.5 3-1.652-.015-6.343-1.907-9-2-8.136-.284-19.552-4.495-17.5 7 5.497.065 11.015-.09 16.5 0"/><path fill="#6a92a0" d="M196 332c.344 8.22 1.335 16.856 1 25-.143 3.477.102 7.008 0 10.5l-11 23c-4.136-17.584-5.596-35.529-7-53.5 6.753-.879 12.854.721 17-5"/><path fill="#2a7995" d="M807 366c-2.401 2.179-4.292 3.342-7 5l-23-25c1.312-2.809 1.167-7.875 2-10 .269-.687 1.906-3.886 2.5-4z"/><path fill="#18495c" d="M248 344c1.575 2.24 1.403 4.145 5 5v2c-1.594.296-2.142 1.981-3 3-6.01 7.142-16.116 13.562-20 23a58 58 0 0 1-8-4c2.914-3.401 23.55-23.808 24-25.5 1.022-3.842-2.547-6.32-2-10 2.198 1.077 2.671 4.609 4 6.5"/><path fill="#c6e7f3" d="M765 353c-6.672 5.785-10.407 8.773-19 12l-24-12c5.06-4.597 9.801-8.78 13-15z"/><path fill="#fbfcfd" d="m268 362 22-21c2.816 5.164 8.061 9.235 12 13.5l-1.5 1.5c-16.287 5.182-15.863 14.742-32.5 6"/><path fill="#03293e" d="M800 371c-4.206 2.576-5.098 1.801-8 3-2.802-4.52-6.658-8.919-11-12l-8-10c1.201-1.801 3.151-4.183 4-6z"/><path fill="#414e55" d="m463 411-5 7c-28.245-40.658-72.027-62.406-121.5-63 9.76-6.123 24.766 4.678 32.5-3 40.036 4.799 71.31 26.191 94 59"/><path fill="#4a585f" d="M648 352c2.679.419 12.991 2.529 8.5 7-1.023 1.018-23.247 5.195-28 7-59.982 22.776-65.214 56.944-89.5 107-.248.511-5.308 4.811-4.5 8 2.167-62.764 51.705-118.097 113.5-129"/><path fill="#3092a6" d="M781 362c-2.055-1.458-8.266-4.685-11-5 .631-.656 2.146-3.719 3-5z"/><path fill="#3a494e" d="M746 365c-2.45.92-3.344 3.461-7.5 3-3.88-.43-15.449-9.819-21-10-2.542-3.158 3.047-3.68 4.5-5z"/><path fill="#bfcfd4" d="M250 354c3.158 5.416 8.122 7.705 13 11l-14 17c-4.876-.191-14.263-3.094-19-5 3.884-9.438 13.99-15.858 20-23"/><path fill="#1d485b" d="M832 398c-2.289 1.809-5.214 2.353-8 3l-16-30c2.45-2.901 7.825-10.197 6-14 .513-.987.788-2.578 2-3 7.054 13.173 12.9 26.868 19 40.5-.855.331-2.646 3.22-3 3.5"/><path fill="#bde1f0" d="M781 362c4.342 3.081 8.198 7.48 11 12-9.863 4.076-14.805 8.071-27 6l-13-12c5.083-2.265 14.306-7.157 18-11 2.734.315 8.945 3.542 11 5"/><path fill="#5d9fb8" d="M206 360c2.172 1.883 4.747 7.669 7 10l-17 33c-2.696.103-5.492 1.002-9 1 .639-15.502 11.613-30.854 17-45.5.821-.963.913.557 2 1.5"/><path fill="#353e46" d="M356 365c-18.906-.475-28.545 3.349-45 11-8.763 4.075-16.318 8.108-24 14l-6-6c10.449-8.344 20.091-17.604 33.5-21 10.986-2.782 33.62-5.768 41.5 2"/><path fill="#43525a" d="M786 485c-6.46-62.12-55.051-123.169-122-120 4.65-4.265 11.042-4.819 17.5-5 50.966-1.431 106.695 58.937 110.5 108.5z"/><path fill="#fbfcfc" d="m249 382 14-17c1.995 1.347 9.03 3.689 9 5.5-8.68 6.799-11.326 11.958-23 11.5"/><path fill="#7598a1" d="M356 365c50.557 1.27 107.428 47.74 120 96 .539 2.069 5.009 13.134 1 12.5-23.269-64.713-90.326-114.246-160-86.5l-6-11c16.455-7.651 26.094-11.475 45-11"/><path fill="#85adbb" d="M664 365c66.949-3.169 115.54 57.88 122 120 .142 1.368-1.068 6.173 2 4.5l5-12V496c-3.684 14.14-10.196 28.167-19 42-6.024-4.482-8.834-4.193-16-3-1.25.208-2.711-.134-4 0 9.096-16.033 14.286-42.432 8-60-.132-2.114-1.583-6.513-2-9-11.021-65.74-83.024-102.073-141-68-10.422 1.413-24.479 12.713-27 23-3.874 5.423-9.158 12.08-12 18-4.09.265-7.294-6.872-11.5-6-5.679 1.177-18.399 33.454-22.5 38.5-.79.972-2.818 1.559-4 .5 6.461-49.734 72.271-104.646 122-107"/><path fill="#42585d" d="m752 368 13 12c-2.802-.476-22.018-8.136-20.5-10 2.315-1.127 5.233-.99 7.5-2"/><path fill="#73d7f4" d="m220 377-15 26c-4.213.363-6.004-.115-9 0l17-33c1.798 1.86 5.26 5.516 7 7"/><path fill="#2c88a8" d="M824 401c-2.649.615-4.82-.111-6 0l-15-25c1.774-1.411 3.512-3.238 5-5z"/><path fill="#91aeb7" d="m311 376 6 11c-8.826 3.515-21.581 10.512-25 17-20.205 9.67-37.767 36.655-43 58-5.791 2.05-.66 9.223-11 7 3.92-29.343 24.626-60.304 49-79 7.682-5.892 15.237-9.925 24-14"/><path fill="#042a3e" d="M818 401c-2.419.227-3.869 1.158-7 1-4.067-7.269-8.128-17.167-15-22 2.129-1.166 5.143-2.524 7-4z"/><path fill="#16485b" d="M226 382c-4.612 5.5-11.475 13.922-12 21-4.539.619-6.834-.187-9 0l15-26c.896.764 5.67 4.791 6 5"/><path fill="#88b0bd" d="M476 461c3.173 3.024 4.591 9.859 5 14 1.264 12.807-1.34 25.581-4 38l-27-4c5.018-18.147 4.467-39.318-2-57-2.518-9.579-6.56-17.787-12-26-20.927-31.592-55.178-43.583-92-40-13.467 1.311-24.696 5.18-36 13-7.01 1.378-13.443 6.083-18.5 11-1.345-2.165 1.401-3.916 2.5-6 3.419-6.488 16.174-13.485 25-17 69.674-27.746 136.731 21.787 160 86.5 4.009.634-.461-10.431-1-12.5"/><path fill="#a1cedd" d="M811 402c-6.029-.304-6.466.674-12-2-3.912-1.89-12.605-11.117-17-14 5.104-1.919 9.134-3.336 14-6 6.872 4.833 10.933 14.731 15 22"/><path fill="#c2ced4" d="M214 403c.525-7.078 7.388-15.5 12-21 7.402 4.698 16.041 6.197 24 9.5.506 3.995-31.509 10.887-36 11.5"/><path fill="#49535a" d="M287 390c-24.374 18.696-45.08 49.657-49 79-1.379 10.323-.938 19.67 0 30h-2c-1.677-8.235-1.78-21.027-8-27 .047-1.689.847-2.229 1-4l5 7.5 14-58.5c8.864-12.961 20.847-23.296 33-33z"/><path fill="#052a45" d="m436 426-5.5 3c-11.828-18.053-33.656-32.55-55-36-5.724-.925-27.673.586-29 0-.34-.15-2.188-5.94-2.5-7 36.822-3.583 71.073 8.408 92 40"/><path fill="#042d49" d="m760 466-6 1.5c-.917-11.76-6.451-21.715-12-31.5-21.671-38.214-64.517-53.046-106-38.5-.053 1.89 10.891 3.987 10 8.5-8.029-6.248-16.581-9.412-27-8 57.976-34.073 129.979 2.26 141 68"/><path fill="#034465" d="M344 386c.312 1.06 2.16 6.85 2.5 7 1.327.586 23.276-.925 29 0 21.344 3.45 43.172 17.947 55 36l5.5-3c5.44 8.213 9.482 16.421 12 26 .634 2.413 4.56 23.412 3.5 24-6.622 3.673-5.384-17.311-8.5-21.5l-6 2.5c-6.198-14.208-4.126-2.425-3 4-3.562-1.726-8.398 1.437-12 3-2.172-8.274-5.522-13.888-10-21-4.305-6.836-9.222-13.12-16.5-18-3.215-2.155-15.015-10.529-17.5-5-11.566-3.967-20.642-4.802-33-4-6.578-12.952-23.169-19.719-37-17 11.304-7.82 22.533-11.689 36-13"/><path fill="#486772" d="M782 386c4.395 2.883 13.088 12.11 17 14-4.34 1.89-27.974-6.8-26-11.5.538-1.281 7.088-1.781 9-2.5"/><path fill="#034160" d="m742 436-19 11c-1.24-1.863-4.415-8.098-5-3-10.228-14.237-26.841-24.466-44-27-1.631-10.551-13.959-9.222-22-5-1.725-2.449-3.644-4.167-6-6 .891-4.513-10.053-6.61-10-8.5 41.483-14.546 84.329.286 106 38.5"/><path fill="#fdfdfe" d="M345 416c15.559 30.633-20.391 61.959-49 44-3.191-2.003-9.286-8.697-11-12-.371-.716-1.93-3.788-2-4-2.132-6.482-2.404-13.272-1.5-20-15.26 19.276-21.424 43.607-19.5 68 2.452 31.099 25.649 63.232 54 76-2.064 1.82 2.692 4.594 3.5 5 38.327 19.267 86.687 8.803 113.5-24.5 5.635-7 10.194-25.534 20-19-13.245 21.171-31.775 43.28-55.5 53.5-58.162 25.053-119.456-11.591-145-65-1.066.653-.597 21.991-.5 25-3.424-3.202-2.068-6.938-4-11-3.199-6.961 4.593-33.733 3-37.5-.851-2.012-4.18-.995-5-3-2.145-5.246 1.494-23.358 3-29.5 5.233-21.345 22.795-48.33 43-58-1.099 2.084-3.845 3.835-2.5 6 5.057-4.917 11.49-9.622 18.5-11 13.831-2.719 30.422 4.048 37 17"/><path fill="#fefefe" d="M646 406c2.356 1.833 4.275 3.551 6 6 .68.966 2.898 3.772 3 4 14.103 31.679-21.853 62.014-50 44-.686-.439-10.622-11.279-11-12-.125-.238-1.932-4.739-2-5-1.62-6.228-1.532-15.747 0-22 2.521-10.287 16.578-21.587 27-23 10.419-1.412 18.971 1.752 27 8"/><path fill="#106986" d="M837 405c-3.358.562-6.886-.23-10-1.5 2.296-.436 4.31-3.927 6-4.5 5.033-1.708 4.665 2.143 4 6"/><path fill="#fdfdfc" d="M842.5 403c5.254-1.354 3.952 3.777 0 3-1.504-.295-1.64-2.577 0-3"/><path fill="#86d5ea" d="M879 414c-4.211 3.806-28.977 11.709-32.5 10-7.606-3.689 3.08-2.88 3.5-3 2.705-.774 16.261-5.074 14.5-8l-4.5-3c3.697-.85 7.41-1.758 11-3-.424 4.563 7.583 6.611 8 7"/><path fill="#4a565d" d="M809 413v2c-9.226.429-22.964 2.709-28-6.5 9.261 1.717 18.621 3.421 28 4.5"/><path fill="#054e70" d="M674 417c-6.405-.946-12.528-1.363-19-1-.102-.228-2.32-3.034-3-4 8.041-4.222 20.369-5.551 22 5"/><path fill="#95e4f7" d="m200 411-1 7c-5.485-.09-11.003.065-16.5 0-2.052-11.495 9.364-7.284 17.5-7"/><path fill="#a0a6ab" d="M206 418c-1.487-2.127.48-5.311 3-5 8.767.079 18.882-.968 27.5-3 3.459 8.424-23.998 7.864-30.5 8"/><path fill="#2a96b7" d="m828 411 1 4c-2.173-.255-7.277 1.84-7-2.5.301-4.711 5.251-1.407 6-1.5"/><path fill="#066688" d="m829 415-1-4c19.138-2.376 17.029 5.88 1 4"/><path fill="#e8f7fb" d="m860 410 4.5 3c1.761 2.926-11.795 7.226-14.5 8-4.507-2.848-3.745-4.909-3-9.5.856-.784 10.704-.972 13-1.5"/><path fill="#1e566c" d="M209 413c-2.52-.311-4.487 2.873-3 5-2.315.048-4.684.038-7 0l1-7c2.657.093 7.348 1.985 9 2"/><path fill="#566a71" d="M486 462c2.081 10.371 2.498 20.975 3 31.5l-3-8c-3.591-5.818-4.591 17.158-5 19-.954 4.296-3.073 12.81-6 15-.243-2.188 1.597-4.618 2-6.5 2.66-12.419 5.264-25.193 4-38l4.5 8c-4.768-22.773-13.951-45.496-27.5-65l5-7c10.856 15.697 19.211 32.118 23 51"/><path fill="#76bcd2" d="M809 415v-2c1.674.193 7.33-3.641 9 1.5-.803 3.413-8.456.475-9 .5"/><path fill="url(#c)" d="M378 420c11.94 4.095 26.068 14.412 33 25 9.672 14.772 12.094 32.788 9 50-7.968 44.331-61.567 61.495-98 39-13.364-8.252-24.999-23.375-28-39-1.408-7.331-1.007-14.6-1-22 .775-4.189.73-9.212 3-13 28.609 17.959 64.559-13.367 49-44 12.358-.802 21.434.033 33 4m9.5 86c-14.875 2.946-11.296 29.385 7 25 14.282-3.423 11.61-28.686-7-25" style="fill:url(#c)"/>/&gt;<path fill="url(#d)" d="M674 417c17.159 2.534 33.772 12.763 44 27 11.288 15.714 14.925 35.446 9 54-1.868 3.095-3.304 11.219-6 15.5-18.79 29.839-57.792 39.817-89 22.5-5.813-3.225-17.272-14.373-21-20-4.304-6.496-7.76-14.503-9-22-1.655-10.004-2.742-25.25 3-34 28.147 18.014 64.103-12.321 50-44 6.472-.363 12.595.054 19 1m21.5 89c-10.003 1.723-14.354 17.311-5 23 21.922 13.333 29.453-27.212 5-23" style="fill:url(#d)"/>/&gt;<path fill="#43667b" d="M884 424h-1c-.82-1.352-3.665-4.79-5-6 .15-.112.833-2.219 2-2 1.182 1.62 2.891 6.037 4 8"/><path fill="#1f576f" d="M170 419c.177.034 2.822 1.97 3 2l2 2.5c-10.355.008-23.363-8.027-29 5.5-2.276.311-1.81.899-2 1-3.147 1.67-8.253 11.303-8 15-3.21 1.491-5.888 8.856-7 12h-1c1.622-4.782 2.904-8.822 5-13.5 2.801-6.251 11.795-12.66 5.5-17.5 5.911 5.505 13.997-8.174 18-9 1.75-.361 10.958 1.51 13.5 2"/><path fill="#82929a" d="M229 468c1.551-17.911 8.96-36.317 19-51l-14 58.5z"/><path fill="#00648b" d="m412 443-1 2c-6.932-10.588-21.06-20.905-33-25 2.485-5.529 14.285 2.845 17.5 5 7.278 4.88 12.195 11.164 16.5 18"/><path fill="#056083" d="M841.5 418c1.828.621 3.929 6.33 1 8-1.257.717-12.731 1.796-14.5-.5-4.187-5.434 12.608-7.803 13.5-7.5"/><path fill="#bce8f6" d="M883 424c6.624 10.911 8.08 19.123 11 31-12.045 1.268-34.425-17.499-29-30 3.774-1.75 9.78-4.583 13-7 1.335 1.21 4.18 4.648 5 6"/><path fill="#4c5d68" d="m812 422 2 4c-8.667-.689-17.01-3.259-25-6.5 7.656.496 15.364 1.757 23 2.5"/><path fill="#51c2e6" d="M173 421c2.636.447 5.299 1.775 7 2l-2 8c-1.497-.02-5.449 1.096-8.5 1-7.301-.229-16.303-3.983-23.5-3 5.637-13.527 18.645-5.492 29-5.5z"/><path fill="#065e82" d="M592 443c-7.202 9.255-10.151 22.109-11 33.5-.563 7.556 5.122 18.903-4.5 14.5.255 17.41 9.213 34.802 20.5 48 10.196 11.922 22.992 20.95 38 26 36.703 12.351 72.869 3.397 98-26 6.747-7.893 9.833-12.329 14-22 6.468-15.01 9.364-27.829 8-44.5-1.351 9.286-4.323 3.985-11 5 3.962 7.849-10.196 50.705-17.5 49.5-10.853-1.791 14.361-26.038 4.5-30 .203-.948.849-1.082 1-2 2.636-15.979.056-34.402-9-48l19-11c5.549 9.785 11.083 19.74 12 31.5l6-1.5c.417 2.487 1.868 6.886 2 9 6.106 97.588-125.222 141.033-178 58-4.43-6.97-10.27-19.049-12-27-4.902-22.53-1.862-46.462 8-67 2.842-5.92 8.126-12.577 12-18-1.532 6.253-1.62 15.772 0 22"/><path fill="#85c5da" d="m814 426-2-4c1.304.127 9.034-3.125 10 1.5 1.3 6.224-4.967 2.741-8 2.5"/><path fill="#a4aaae" d="m201 431 2-7c8.049.172 16.038-.776 24-.5-8.04 4.181-17.09 6.232-26 7.5"/><path fill="#7fddf3" d="m196 424-3 7c-5.643.39-9.536.075-15 0l2-8c4.391.58 11.267.747 16 1"/><path fill="#0c5872" d="m203 424-2 7c-3.469.494-6.006-.138-8 0l3-7c2.309.123 4.684-.05 7 0"/><path fill="#025b83" d="M283 444c-8.653 12.32-11.47 30.414-9 45-.032-.105-1.713.376-2-.5-.507-1.548 1.377-12.913-4.5-8.5-2.127 1.597 1.451 13.64.5 16.5l-6-4.5c-1.924-24.393 4.24-48.724 19.5-68-.904 6.728-.632 13.518 1.5 20"/><path fill="#11394d" d="M842 573c.037-.235-1.234 1.941-1-3 1.35 4.211 1.969-4.733 2-5l7-22.5c1.091-12.2 3.445-24.242 4-36.5 19.525 7.8 9.627 37.738 31.5 44l2.5-1.5c13.737-32.373 14.223-60.048 6-93.5-2.92-11.877-4.376-20.089-11-31h1c19.236 34.053 22.955 74.657 12 112.5-9.313 32.171-23.647 31.497-54 36.5"/><path fill="url(#e)" d="M865 425c-5.425 12.501 16.955 31.268 29 30 8.223 33.452 7.737 61.127-6 93.5l-2.5 1.5c-21.873-6.262-11.975-36.2-31.5-44 1.027-22.681-1.606-41.828-4-64-.37-3.423-2.499-6.853-2-10.5.943-2.197 14.165-5.186 17-6.5" style="fill:url(#e)"/>/&gt;<path fill="url(#f)" d="M175 438c-6.422 27.779-8.404 56.572-6 85-15.297 11.217-11.315 38.553-32 41-15.262-30.206-16.59-56.836-11-90 1.632 21.872 24.79-6.067 27-14.5 3.392-12.94-5.215-19.974-17-14.5-.253-3.697 4.853-13.33 8-15 9.672 4.893 20.418 6.184 31 8" style="fill:url(#f)"/>/&gt;<path fill="#046382" d="M848 442c10.08 45.1 2.106 76.497-5 120-3.236-.515-1.867 5.189-2 8-.234 4.941 1.037 2.765 1 3-.133.844-1.431 3.171-2 6-.517 2.572-4.426 10.207-5 13l-13 13c20.62-60.606 20.77-102.559 11-165-.165-1.055-2.13-5.331-1.5-6l13-3c1.844.641 3.009 8.801 3.5 11"/><path fill="#608e9d" d="M818 436c2.937 8.811 4.573 17.833 6 27 1.949 36.236 1.77 69.131-7 104.5C778.383 723.24 629.077 810.681 473 792c5.062.341 42.53 1.035 44.5 0 .805-.423 6.609-10.407 11-14 25.527-20.891 60.492-25.099 90-40 25.04-12.645 132.915-84.095 132.5-111.5-.075-4.95-23.985-7.841-29.5-8.5-39.092-4.674-79.94 1.316-112.5-27 2.276-1.068 19.395 7.064 23.5 8 59.217 13.509 109.676-10.994 141.5-61 8.804-13.833 15.316-27.86 19-42 5.459-20.955 7.83-39.464 0-60.5 8.32.042 16.703.366 25 .5"/><path fill="#90d9ef" d="M827 437c3.202 15.306 6.669 30.324 8 46l-10-12c-.306-2.712-.581-5.305-1-8-1.427-9.167-3.063-18.189-6-27 2.028.033 4.253-1.254 7.5-1 .807.063-.131 1.621 1.5 2"/><path fill="#072333" d="M833 440c9.77 62.441 9.62 104.394-11 165-15.646 45.987-45.078 92.521-83 123 59.864-55.437 96.958-141.142 97-223 .004-7.461-.371-14.591-1-22-1.331-15.676-4.798-30.694-8-46 1.437.334.357-5.108 6 3"/><path fill="#163a4e" d="M176 439c-6.022 32.781-8.171 66.376-3 99.5 1.922 12.31 8.627 27.446 10 38.5-5.219 3.056-.134 4.702 0 5 .057.127 1.672-.396 2 .5.919 2.513 1.058 10.776 2 14C222.483 717.893 305.749 815.568 432 846l-1 2c-27.869-6.777-53.944-17.126-79-31-78.084-43.237-132.387-115.678-161-199.5-2.788-8.167-4.098-26.676-11-29.5 5.61-4.67-.912-5.105-1-5.5-.959-4.287 2.086-7.578 2-8-.212-1.036-5.586-10.031-6-12-2.617-12.453-4.925-26.79-6-39.5-2.404-28.428-.422-57.221 6-85 1.368.235.93.988 1 1"/><path fill="url(#g)" d="M190 439c-10.04 40.347-8.826 82.393-1 123-1.565 5.173.533 15.019 2 20.5.235.877 2.278 8.941 5 6.5 10.673 36.533 29.347 75.342 55 103 55.4 71.654 150.979 115.198 241 119 69.416 2.932 141.319-13.765 201-49 16.426-9.698 32-21.035 46-34 37.922-30.479 67.354-77.013 83-123l13-13c-.436 2.119-.119 8.502-1 12-2.583 7.901-5.185 17.555-8 25-.809 2.397-2.068 5.491-3 8-64.304 158.504-220.37 250.129-391 209-126.251-30.432-209.517-128.107-245-249.5-.942-3.224-1.081-11.487-2-14-.328-.896-1.943-.373-2-.5-.134-1.631.2-3.386 0-5-1.373-11.054-8.078-26.19-10-38.5-5.171-33.124-3.022-66.719 3-99.5 2.363.418 10.559-.542 14 0" style="fill:url(#g)"/>/&gt;<path fill="#092e40" d="M197 442c-9.101 26.188-10.65 53.498-9 81 3.532 58.858 26.986 122.42 63 169-25.653-27.658-44.327-66.467-55-103-2.607-8.922-5.237-17.855-7-27-7.826-40.607-9.04-82.653 1-123 1.953.308 4.76-.426 6.5 0 .927.227.35 2.978.5 3"/><path fill="#fdfefe" d="M228 472c6.22 5.973 6.323 18.765 8 27 .324 1.593-.621 4.17 0 7l-3.5-3c-3.122 1.48 13.046 52.709 20.5 56 .272 2.347 1.665 3.606 2 6 8.124 58.001 22.576 94.048 55 142 2.614 3.866 6.498 8.47 7.5 13-7.747-8.726-16.089-16.99-23.5-26-47.109-57.27-73.182-120.079-75-195-.352-14.495-1.003-32.427 2-46.5.439-2.055 5.536-5.047 2-10.5 2.073-.013 2.461-1.766 4 .5-3.976 17.273-3.93 36.038 3.5 52.5-.107-7.305-2.701-15.746-2.5-23"/><path fill="#7bd6ed" d="M203 444c-6.878 23.703-8.273 46.379-7 71-4.651 2.582.741 14.696-8 8-1.65-27.502-.101-54.812 9-81 3.678.543 5.688 1.95 6 2"/><path fill="#e0eef6" d="M223 442c3.536 5.453-1.561 8.445-2 10.5-3.003 14.073-2.352 32.005-2 46.5-6.412-3.683-13.901-2.967-21-3 .261-18.259.739-34.473 7-52 3.602.354 13.629-1.972 18-2"/><path fill="#0b9dc4" d="M723 447c9.056 13.598 11.636 32.021 9 48-1.157-.834-4.849 2.75-5 3 5.925-18.554 2.288-38.286-9-54 .585-5.098 3.76 1.137 5 3"/><path fill="#082b3e" d="M850 442c2.394 22.172 5.027 41.319 4 64-.555 12.258-2.909 24.3-4 36.5l-7 22.5c.112-.969-.156-2.047 0-3 7.106-43.503 15.08-74.9 5-120z"/><path fill="#05a4cd" d="M422 464c2.83 10.781 3.131 14.91 2 26-.132 1.292.198 2.741 0 4l-4 1c3.094-17.212.672-35.228-9-50l1-2c4.478 7.112 7.828 12.726 10 21"/><path fill="#0e84ad" d="M594 448c-12.912 17.75-9.511 43.857-1 63.5 3.191 4.242 7.808-7.553 11-.5 1.352 2.515 4.462 7.061 7 5 3.728 5.627 15.187 16.775 21 20-5.474.783 8.813 8.737 9.5 9 38.545 14.736 80.9-7.81 89.5-48 9.861 3.962-15.353 28.209-4.5 30 7.304 1.205 21.462-41.651 17.5-49.5 6.677-1.015 9.649 4.286 11-5 1.364 16.671-1.532 29.49-8 44.5-7.534-2.794-11.327 11.678-16 17-5.361 6.106-12.234 11.438-19 16l-1.5-7c-33.632 24.017-80.859 16.411-107-15-1.985-.165-7.505 8.452-6.5 11-11.287-13.198-20.245-30.59-20.5-48 9.622 4.403 3.937-6.944 4.5-14.5.849-11.391 3.798-24.245 11-33.5.068.261 1.875 4.762 2 5"/><path fill="#d4eef6" d="M126 474c.876-5.197 1.256-12.069 3-17 1.112-3.144 3.79-10.509 7-12 11.785-5.474 20.392 1.56 17 14.5-2.21 8.433-25.368 36.372-27 14.5"/><path fill="#33a0c2" d="M205 444c-6.261 17.527-6.739 33.741-7 52-.158 11.053.001 21.995 1 33l-1 1c-.747-6.445-1.679-8.793-2-15-1.273-24.621.122-47.297 7-71 .634.102 1.353-.064 2 0"/><path fill="#0e9eca" d="M285 448c-8.232 13.781-9.157 30.657-6 46 2.588 12.578 8.399 22.2 16 32 7.479 9.643 16.743 18.806 28 24l-1.5 7-23-17c-3.671.947-3.692 2.903-2.5 6-6.232-5.694-24.082-27.692-24-35.5.051-4.828 4.923-4.655 5-5 .183-.818-2.505-14.862-3-16.5-2.47-14.586.347-32.68 9-45 .07.212 1.629 3.284 2 4"/><path fill="#086186" d="M296 460c-2.27 3.788-2.225 8.811-3 13-.019.101-1.847-.347-2 .5-2.102 11.63 4.657 17.738-12 20.5-3.157-15.343-2.232-32.219 6-46 1.714 3.303 7.809 9.997 11 12"/><path fill="#065f84" d="M594 448c.378.721 10.314 11.561 11 12-5.742 8.75-4.655 23.996-3 34-5.536-.823 1.208 15.527 2 17-3.192-7.053-7.809 4.742-11 .5-8.511-19.643-11.912-45.75 1-63.5"/><path fill="#0d95c1" d="M437 457c1.693 3.881 3.398 17.77 4 18.5.734.891 5.575 1.211 6 2 2.765 5.128-2.937 32.446-7 38.5 3.401-15.78-4.096-2.741-7 2l-6-2c2.366-4.234 3.583-9.389 5-14 5.689-18.503 5.262-22.396 2-41-1.126-6.425-3.198-18.208 3-4"/><path fill="#027ca7" d="M450 509c-15.486 55.998-82.56 82.167-134 59-28.351-12.768-51.548-44.901-54-76l6 4.5c.951-2.86-2.627-14.903-.5-16.5 5.877-4.413 3.993 6.952 4.5 8.5.287.876 1.968.395 2 .5.495 1.638 3.183 15.682 3 16.5-.077.345-4.949.172-5 5-.082 7.808 17.768 29.806 24 35.5 8.616 7.873 14.273 11.467 25 16 40.263 17.013 108.822 1.221 119-46 4.063-6.054 9.765-33.372 7-38.5-.425-.789-5.266-1.109-6-2-.602-.73-2.307-14.619-4-18.5l6-2.5c3.116 4.189 1.878 25.173 8.5 21.5 1.06-.588-2.866-21.587-3.5-24 6.467 17.682 7.018 38.853 2 57"/><path fill="#092333" d="M126 474c-5.59 33.164-4.262 59.794 11 90 3.499 6.924 1.561 10.235 11 16-11.191-.435-18.061-18.079-21-27.5-9.325-29.892-9.025-65.948 1-95.5h1c-1.744 4.931-2.124 11.803-3 17"/><path fill="#066b93" d="M434 461c3.262 18.604 3.689 22.497-2 41-12.285.666.327-10.135-8-12 1.131-11.09.83-15.219-2-26 3.602-1.563 8.438-4.726 12-3"/><path fill="#baced7" d="M249 462c-1.506 6.142-5.145 24.254-3 29.5.82 2.005 4.149.988 5 3 1.593 3.767-6.199 30.539-3 37.5-1.475-3.101-5.021-7.052-7-12-.964-7.146-2.335-13.679-3-21-.938-10.33-1.379-19.677 0-30 10.34 2.223 5.209-4.95 11-7"/><path fill="#103445" d="M825 471c.63 5.582 1.741 11.409 2 17 4.777 102.956-49.871 211.593-139 264-57.981 34.092-127.739 50.164-195 48-157.165-5.057-276.961-114.423-295-270l1-1c5.572 61.406 39.399 129.832 83 173 45.641 45.188 126.566 85.658 191 90 156.077 18.681 305.383-68.76 344-224.5 8.77-35.369 8.949-68.264 7-104.5.419 2.695.694 5.288 1 8"/><path fill="#3d91ab" d="M835 483c.629 7.409 1.004 14.539 1 22l-2 1.5c-.729-4.861-1.361-17.14-7-18.5-.259-5.591-1.37-11.418-2-17z"/><path fill="#11759c" d="M293 473c-.007 7.4-.408 14.669 1 22-3.649-.454-2.434 3.901-2 5.5 1.412 5.199 6.793 14.926 10 19.5-2.286-.268-6.736 3.003-7 6-7.601-9.8-13.412-19.422-16-32 16.657-2.762 9.898-8.87 12-20.5.153-.847 1.981-.399 2-.5"/><path fill="#99bbc5" d="M754 535c-33.085 58.319-125.431 65.464-165 10.5-1.832-2.545-6.999-9.604-5-12.5 52.778 83.033 184.106 39.588 178-58 6.286 17.568 1.096 43.967-8 60"/><path fill="#067596" d="M836 505c-.042 81.858-37.136 167.563-97 223-14 12.965-29.574 24.302-46 34l-5-10c89.129-52.407 143.777-161.044 139-264 5.639 1.36 6.271 13.639 7 18.5z"/><path fill="#0e89b2" d="M432 502c-1.417 4.611-2.634 9.766-5 14-19.464 34.825-67.266 50.948-104 34-11.257-5.194-20.521-14.357-28-24 .264-2.997 4.714-6.268 7-6 5.063 7.221 10.788 12.064 18 17 40.163 27.489 96.343 5.768 104-43 .198-1.259-.132-2.708 0-4 8.327 1.865-4.285 12.666 8 12"/><path fill="#60e1f6" d="M424 494c-7.657 48.768-63.837 70.489-104 43l2-3c36.433 22.495 90.032 5.331 98-39z"/><path fill="#0492c0" d="M602 494c1.24 7.497 4.696 15.504 9 22-2.538 2.061-5.648-2.485-7-5-.792-1.473-7.536-17.823-2-17"/><path fill="#0fbce5" d="M294 495c3.001 15.625 14.636 30.748 28 39l-2 3c-7.212-4.936-12.937-9.779-18-17-3.207-4.574-8.588-14.301-10-19.5-.434-1.599-1.649-5.954 2-5.5"/><path fill="#57ddf3" d="M732 495c-.151.918-.797 1.052-1 2-8.6 40.19-50.955 62.736-89.5 48-.687-.263-14.974-8.217-9.5-9 31.208 17.317 70.21 7.339 89-22.5 2.696-4.281 4.132-12.405 6-15.5.151-.25 3.843-3.834 5-3"/><path fill="#c0dfec" d="M219 499c1.818 74.921 27.891 137.73 75 195l-12 8c-43.601-43.168-77.428-111.594-83-173-.999-11.005-1.158-21.947-1-33 7.099.033 14.588-.683 21 3"/><path fill="#889399" d="M238 499c.665 7.321 2.036 13.854 3 21-2.112-5.28-3.7-8.077-5-14-.621-2.83.324-5.407 0-7z"/><path fill="#cee0e8" d="M236 506c1.3 5.923 2.888 8.72 5 14 1.979 4.948 5.525 8.899 7 12 1.932 4.062.576 7.798 4 11 .05 1.547 1.962.706 2 1.5.036.743-2.097.027-2 1.5.269 4.101.535 8.989 1 13-7.454-3.291-23.622-54.52-20.5-56z"/><path fill="#fcfefe" d="M387.5 506c18.61-3.686 21.282 21.577 7 25-18.296 4.385-21.875-22.054-7-25"/><path fill="#fcfdfe" d="M572 506c1.73 7.951 7.57 20.03 12 27-1.999 2.896 3.168 9.955 5 12.5 39.569 54.964 131.915 47.819 165-10.5 1.289-.134 2.75.208 4 0-32.906 74.277-155.142 73.506-186-3.5-2.598-6.483-11.242-26.945 0-25.5"/><path fill="#fdfefe" d="M695.5 506c24.453-4.212 16.922 36.333-5 23-9.354-5.689-5.003-21.277 5-23"/><path fill="#3ce2f7" d="M440 516c-10.178 47.221-78.737 63.013-119 46 4.025-6.593 15.234 1.243 21.5 2 42.689 5.157 69.033-10.946 90.5-46 2.904-4.741 10.401-17.78 7-2"/><path fill="#56bcdc" d="M196 515c.321 6.207 1.253 8.555 2 15 18.039 155.577 137.835 264.943 295 270l-1 11c-90.021-3.802-185.6-47.346-241-119-36.014-46.58-59.468-110.142-63-169 8.741 6.696 3.349-5.418 8-8"/><path fill="#12b8e4" d="M433 518c-21.467 35.054-47.811 51.157-90.5 46-6.266-.757-17.475-8.593-21.5-2-10.727-4.533-16.384-8.127-25-16-1.192-3.097-1.171-5.053 2.5-6l23 17 1.5-7c36.734 16.948 84.536.825 104-34z"/><path fill="#15aad6" d="M747 517c-4.167 9.671-7.253 14.107-14 22-2.786.622-.614-2.534-2-5 4.673-5.322 8.466-19.794 16-17"/><path fill="#0e4862" d="M180 588c-10.081-4.125-21.47-1.569-32-8-9.439-5.765-7.501-9.076-11-16 20.685-2.447 16.703-29.783 32-41 1.075 12.71 3.383 27.047 6 39.5.414 1.969 5.788 10.964 6 12 .086.422-2.959 3.713-2 8 .088.395 6.61.83 1 5.5"/><path fill="#15aad6" d="M712 550c-15.624 10.535-32.219 16.014-51.5 15-5.268-.277-23.953-6.746-25-6-1.091.776-.247 4.5-.5 6-15.008-5.05-27.804-14.078-38-26-1.005-2.548 4.515-11.165 6.5-11 26.141 31.411 73.368 39.017 107 15z"/><path fill="#41d1ed" d="M733 539c-25.131 29.397-61.297 38.351-98 26 .253-1.5-.591-5.224.5-6 1.047-.746 19.732 5.723 25 6 19.281 1.014 35.876-4.465 51.5-15 6.766-4.562 13.639-9.894 19-16 1.386 2.466-.786 5.622 2 5"/><path fill="#88aab6" d="M255 565c-.335-2.394-1.728-3.653-2-6-.465-4.011-.731-8.899-1-13 39.21 51.615 101.698 73.482 162 43.5-53.122 46.17-117.418 24.353-159-24.5"/><path fill="#d9eaf0" d="M196 589c-2.722 2.441-4.765-5.623-5-6.5-1.467-5.481-3.565-15.327-2-20.5 1.763 9.145 4.393 18.078 7 27"/><path fill="#94bcc0" d="M843 562c-.156.953.112 2.031 0 3-.031.267-.65 9.211-2 5 .133-2.811-1.236-8.515 2-8"/><path fill="#deeff0" d="M183 582c-.134-.298-5.219-1.944 0-5 .2 1.614-.134 3.369 0 5"/><path fill="#091d29" d="M834 604c.881-3.498.564-9.881 1-12 .574-2.793 4.483-10.428 5-13 .917 8.891-3.367 16.945-6 25"/><path fill="#85adbb" d="M473 792c-64.434-4.342-145.359-44.812-191-90l12-8c7.411 9.01 15.753 17.274 23.5 26-1.002-4.53-4.886-9.134-7.5-13 17.983-11.96 47.553-6.149 69.5-8 11.519-.971 23.746-6.249 33.5-4 39.652 59.121 113.036 89.328 172.5 37 14.179-12.478 41.277-49.471 47.5-67 .067-.19 2.482-2.349 2-3.5-18.51-12.471-31.908-31.704-49-45.5 3.821-10.194 16.389-16.536 23-25 32.56 28.316 73.408 22.326 112.5 27 5.515.659 29.425 3.55 29.5 8.5.415 27.405-107.46 98.855-132.5 111.5-29.508 14.901-64.473 19.109-90 40-4.391 3.593-10.195 13.577-11 14-1.97 1.035-39.438.341-44.5 0"/><path fill="#62475c" d="M586 616c17.092 13.796 30.49 33.029 49 45.5.482 1.151-1.933 3.31-2 3.5-7.786 5.359-13.568 14.054-20 21-10.953 5.883-19.787 17.745-29.5 25-51.693 38.612-118.077 21.597-162.5-21-9.003-8.633-14.303-18.003-22-27l-1-6.5c28.506-18.526 66.343-67.593 103.5-62.5 2.99.41 10.165 4.703 13 5 9.273.97 14.662-5.402 23-6 15.212-1.092 36.874 13.616 48.5 23m-107-18c-27.887 9.163-54.561 43.667-79.5 59-1.049.5 1.859 1.986 2 2 19.032 1.919 71.385-12.113 95-14 13.567-1.084 32.714-2.317 46-1 26.209 2.599 55.848 17.385 84 16l1.5-2.5c-23.068-16.148-41.322-44.422-67-56.5-27.494-12.932-27.376 1.022-47.5-1-15.147-1.522-14.308-8.634-34.5-2m-27.5 62c-15.886-.301-32.516 1.885-48.5 1.5 61.876 73.144 158.889 55.929 227 2l-75.5-3.5c-35.007 12.046-67.431.674-103 0"/><path fill="#b99eb3" d="m561 601-2 4c-20.293-12.731-26.032 8.952-47.5 6-14.795-2.034-15.197-16.992-35.5-7 1.513-3.441 8.033-2.408 3-6 20.192-6.634 19.353.478 34.5 2 20.124 2.022 20.006-11.932 47.5 1"/><path fill="url(#h)" d="M476 604c-2.632 1.295-18.096 15.75-20 18.5-1.035 1.495-4.934 6.7-2.5 8.5 10.431-7.984 22.844-22.726 37-21 4.387.535 12.475 6.057 17 7 24.219 5.046 31.09-18.957 56-6 1.152-2.238-3.157-5.157-4.5-6l2-4c25.678 12.078 43.932 40.352 67 56.5l-1.5 2.5c-28.152 1.385-57.791-13.401-84-16-13.286-1.317-32.433-.084-46 1-23.615 1.887-75.968 15.919-95 14-.141-.014-3.049-1.5-2-2 24.939-15.333 51.613-49.837 79.5-59 5.033 3.592-1.487 2.559-3 6" style="fill:url(#h)"/>/&gt;<path fill="#e4dde4" d="M559 605c1.343.843 5.652 3.762 4.5 6-24.91-12.957-31.781 11.046-56 6-4.525-.943-12.613-6.465-17-7-14.156-1.726-26.569 13.016-37 21-2.434-1.8 1.465-7.005 2.5-8.5 1.904-2.75 17.368-17.205 20-18.5 20.303-9.992 20.705 4.966 35.5 7 21.468 2.952 27.207-18.731 47.5-6"/><path fill="#091d29" d="M826 629c2.815-7.445 5.417-17.099 8-25-2.658 10.551-4.762 15.403-8 25m-3 8c.932-2.509 2.191-5.603 3-8-1.018 2.693-1.922 5.342-3 8M670 818c-9.433 1.859-34.344 16.708-46.5 21-62.423 22.042-128.268 24.619-192.5 9l1-2c170.63 41.129 326.696-50.496 391-209-2.065 5.559-3.363 12.513-6 18.5-29.743 67.523-83.153 125.865-147 162.5"/><path fill="#575d6b" d="M399 663c7.697 8.997 12.997 18.367 22 27l-1 3c-4.249-4.235-11.066-12.535-16-13-4.394-7.759-7.431-16.379-13-23.5 1.519-1.479 7.219 5.588 8 6.5"/><path fill="#9c8398" d="M451.5 660c35.569.674 67.993 12.046 103 0l75.5 3.5c-68.111 53.929-165.124 71.144-227-2 15.984.385 32.614-1.801 48.5-1.5m10 9c-2.636.128-30.568 2.855-30.5 4.5 10.448 6.347 71.663 19.631 75 5 2.757-12.084-37.646-9.833-44.5-9.5"/><path fill="#5c828f" d="M633 665c-6.223 17.529-33.321 54.522-47.5 67-59.464 52.328-132.848 22.121-172.5-37-3.248-4.843-6.127-9.926-9-15 4.934.465 11.751 8.765 16 13 64.463 64.253 132.536 58.302 193-7 6.432-6.946 12.214-15.641 20-21"/><path fill="#eeeaee" d="M461.5 669c6.854-.333 47.257-2.584 44.5 9.5-3.337 14.631-64.552 1.347-75-5-.068-1.645 27.864-4.372 30.5-4.5"/><path fill="#63596c" d="M613 686c-60.464 65.302-128.537 71.253-193 7l1-3c44.423 42.597 110.807 59.612 162.5 21 9.713-7.255 18.547-19.117 29.5-25"/><path fill="#2298bd" d="m688 752 5 10c-59.681 35.235-131.584 51.932-201 49l1-11c67.261 2.164 137.019-13.908 195-48"/>/&gt;</svg>