<svg xmlns="http://www.w3.org/2000/svg" width="1024" height="1024"><defs><linearGradient id="a" x1="714.38" x2="648.665" y1="174.345" y2="271.146" gradientUnits="userSpaceOnUse"><stop offset="0%" style="stop-color:#219bc2"/><stop offset="100%" style="stop-color:#1e79a1"/></linearGradient></defs><defs><linearGradient id="b" x1="305.533" x2="374.828" y1="174.041" y2="265.82" gradientUnits="userSpaceOnUse"><stop offset="0%" style="stop-color:#2091ba"/><stop offset="100%" style="stop-color:#1e789f"/></linearGradient></defs><defs><linearGradient id="c" x1="219.925" x2="300.876" y1="217.899" y2="327.183" gradientUnits="userSpaceOnUse"><stop offset="0%" style="stop-color:#1c86b0"/><stop offset="100%" style="stop-color:#1d6f96"/></linearGradient></defs><defs><linearGradient id="d" x1="801.768" x2="718.339" y1="218.424" y2="327.092" gradientUnits="userSpaceOnUse"><stop offset="0%" style="stop-color:#1e99c0"/><stop offset="100%" style="stop-color:#1d739a"/></linearGradient></defs><defs><linearGradient id="e" x1="159.006" x2="241.494" y1="317.723" y2="410.306" gradientUnits="userSpaceOnUse"><stop offset="0%" style="stop-color:#1a77a1"/><stop offset="100%" style="stop-color:#1a6288"/></linearGradient></defs><defs><linearGradient id="f" x1="862.224" x2="779.775" y1="318.932" y2="412.884" gradientUnits="userSpaceOnUse"><stop offset="0%" style="stop-color:#128cb5"/><stop offset="100%" style="stop-color:#186f97"/></linearGradient></defs><defs><linearGradient id="g" x1="374.209" x2="639.364" y1="473.334" y2="569.339" gradientUnits="userSpaceOnUse"><stop offset="0%" style="stop-color:#1c92b6"/><stop offset="100%" style="stop-color:#1cd0f4"/></linearGradient></defs><defs><linearGradient id="h" x1="554.508" x2="466.863" y1="465.553" y2="578.546" gradientUnits="userSpaceOnUse"><stop offset="0%" style="stop-color:#09557d"/><stop offset="100%" style="stop-color:#02315b"/></linearGradient></defs><defs><linearGradient id="i" x1="539.862" x2="516.068" y1="762.611" y2="812.198" gradientUnits="userSpaceOnUse"><stop offset="0%" style="stop-color:#ddf1f7"/><stop offset="100%" style="stop-color:#accfdc"/></linearGradient></defs><path fill="#055b82" d="M405 264c.697.936 4.333 6.047 4 6.5-.902 1.143-3.205.081-4 .5-50.274-43.052-116.496-94.652-95-170 .81-2.84 2.855-6.23 1-9 1.517-1.447 2.719-3.814 4-5.5 1.45-1.288 1.808-.615 2 1 .153 1.289-6.506 19.887-7 25-3.851 39.892 15.025 74.533 41 103 14.509 15.902 43.186 33.982 54 48.5"/><path fill="#05739b" d="M708 89v4c-.617-1.276-3.379-4.503-4-6.5 2.083-1.683 3.203 1.836 4 2.5"/><path fill="url(#a)" d="M734 123c5.031 16.964 9.816 33.351 12 51-5.39 5.593-2.93 18.579-4 26.5-3.708 27.441-13.894 53.861-25 79-.246 2.802 3.793-1.31 4-1.5l1 2c-12.804 8.868-25.769 17.497-40 24-4.543-3.163-26.85-17.044-31-19 50.61-37.215 93.22-105.256 68-169-1.723-4.354-2.723-11.86-7-14-1.073-3.465-2.471-5.839-4-9v-4c11.716 9.76 19.342 20.45 26 34" style="fill:url(#a)"/>/&gt;<path fill="url(#b)" d="M310 101c-4.03 2.111-5.401 9.056-7 13-26.122 64.43 16.261 132.481 67 171-10.626 5.11-20.673 14.676-32 19-7.486-3.518-14.039-8.681-21-13-2.539-5.327-9.786-7.325-14-11-4.815-20.881-15.697-40.375-20-61.5-3.532-17.336-3.368-32.597-4-50-.074-2.041 2.811-2.666-2-2.5 1.963-12.699 5.563-24.519 8-37 7.147-16.585 12.999-24.6 26-37 1.855 2.77-.19 6.16-1 9" style="fill:url(#b)"/>/&gt;<path fill="#05739b" d="M712 102c8.299 26.797 2.896 51.657-9 76l-4-2c18.349-37.289 9-47.053 9-83 1.529 3.161 2.927 5.535 4 9"/><path fill="#86c7d5" d="M204 111h-1c1.028-2.901.894-7.546 3.5-10 1.998.524-2.347 9.293-2.5 10"/><path fill="#b0edfa" d="M310 101c-21.496 75.348 44.726 126.948 95 170-2.448 1.291-3.268 1.26-5 2l-40-33c-18.262-18.523-37.506-38.101-48-62.5-9.439-21.946-9.709-39.957-9-63.5 1.599-3.944 2.97-10.889 7-13"/><path fill="#b6f0fc" d="M719 116c2.229 30.39-4.283 54.929-20 80.5-12.6 20.499-52.149 62.85-72 76-1.464.97-3.161 1.765-5 1.5-1.534-.636-5.206.008-6-3 32.179-27.661 67.919-53.953 87-93 11.896-24.343 17.299-49.203 9-76 4.277 2.14 5.277 9.646 7 14"/><path fill="#069abe" d="M842 254c.721-24.176-5.119-58.05-10-82-1.302-6.391-2.268-13.224-4-19.5-.667-2.416.027-3.413-3-1.5-.292-3.047-.465-9.356-4-8 .731-12.29-2.108-25.51-6-37.5l1.5-1.5c17.09 47.468 32.163 98.766 25.5 150"/><path fill="#056d96" d="M199 138c-.565 4.126-1.673 7.521-2 12-4.731 1.987-5.936 12.251-7 17-6.955 31.039-9.452 63.223-9 95-8.668-51.886 4.817-102.509 22-151h1c-1.836 8.465-3.831 18.462-5 27"/><path fill="#71cae5" d="M360 240c11.95 12.121 24.493 23.481 37 35-7.754 3.364-21.27 7.244-27 10-50.739-38.519-93.122-106.57-67-171-.709 23.543-.439 41.554 9 63.5 10.494 24.399 29.738 43.977 48 62.5"/><path fill="#6ccae6" d="M651 285c-5.703-2.687-20.757-7.579-29-11 1.839.265 3.536-.53 5-1.5 19.851-13.15 59.4-55.501 72-76 15.717-25.571 22.229-50.11 20-80.5 25.22 63.744-17.39 131.785-68 169"/><path fill="#04739c" d="M813 168c-12.333 48.991-51.08 84.352-91 112l-1-2c27.483-25.28 29.295-69.285 25-104-2.184-17.649-6.969-34.036-12-51 21.249 43.245 22.298 94.783 6.5 140 34.561-26.201 61.231-62.527 73.5-104.5 2.442 2.202-.391 7.081-1 9.5"/><path fill="#08658e" d="M277 166c-6.021 38.958-6.242 85.885 26 114 4.214 3.675 11.461 5.673 14 11-44.396-27.545-84.966-59.547-104-110-2.54-6.733-10.255-28.522-10-34.5.07-1.65-.319-3.441 2-2 7.741 47.721 38.448 89.927 76.5 118.5-16.904-43.079-14.68-91.812 3.5-134-2.437 12.481-6.037 24.301-8 37"/><path fill="#49acce" d="M206 179c16.364 57.739 68.7 103.219 121 128.5L311 325h-1c-68.123-29.681-118.574-98.721-113-175 .327-4.479 1.435-7.874 2-12 1.459 7.883 4.852 17.896 6 25.5.033.215-3.139 1.205-3 2 .732 4.191 2.803 9.275 4 13.5"/><path fill="#1b9cc3" d="M818.5 140c.733 5.29-.353 12.467-3 17z"/><path fill="#50b7d6" d="M825 151c6.882 71.912-49.189 150.27-116 174-4.869-4.174-10.84-8.081-16-12-.483-3.171.327-4.055 2.5-6 5.309-4.753 21.764-11.342 29-16 47.385-30.5 85.784-75.69 96.5-132.5.306-1.621 2.275-10.941-1-10.5.242-1.843.871-2.827 1-5 3.535-1.356 3.708 4.953 4 8"/><path fill="#a0e8f9" d="M693 313c-3.24-2.461-8.251-7.086-11-9 14.231-6.503 27.196-15.132 40-24 39.92-27.648 78.667-63.009 91-112 1.664 3.829 4.896-6.103 5-6.5.937-3.565 1.491-9.621 2-13.5 3.275-.441 1.306 8.879 1 10.5-10.716 56.81-49.115 102-96.5 132.5-7.236 4.658-23.691 11.247-29 16-2.173 1.945-2.983 2.829-2.5 6"/><path fill="url(#c)" d="M197 150c-5.574 76.279 44.877 145.319 113 175-14.103 12.79-25.973 26.351-38 41-53.419-36.439-80.379-85.515-83-150.5l1-48.5c1.064-4.749 2.269-15.013 7-17" style="fill:url(#c)"/>/&gt;<path fill="url(#d)" d="M832 172c-3.759 2.657-.032 8.971 0 9.5 4.655 76.583-17.117 143.931-85 184.5-11.526-14.75-23.736-28.773-38-41 66.811-23.73 122.882-102.088 116-174 3.027-1.913 2.333-.916 3 1.5 1.732 6.276 2.698 13.109 4 19.5" style="fill:url(#d)"/>/&gt;<path fill="#6bc6e4" d="M303 280c-32.242-28.115-32.021-75.042-26-114 4.811-.166 1.926.459 2 2.5.632 17.403.468 32.664 4 50 4.303 21.125 15.185 40.619 20 61.5"/><path fill="#3a9bc1" d="M272 366c-1.125 1.371-2.266 4.398-3.5 6-.669.183-10.932-5.14-12.5-6-32.949-18.081-61.789-52.665-72-89-1.632-5.806-2.039-9.246-3-15-.452-31.777 2.045-63.961 9-95l-1 48.5c2.621 64.985 29.581 114.061 83 150.5"/><path fill="#46adcf" d="M842 254c-.2 6.715-1.704 14.38-3 21l-16 35.5c-15.169 24.507-37.468 44.21-63 57.5-1.579.822-7.586 5.187-8.5 5-2.01-1.73-3.023-5.109-4.5-7 67.883-40.569 89.655-107.917 85-184.5-.032-.529-3.759-6.843 0-9.5 4.881 23.95 10.721 57.824 10 82"/><path fill="#71cce7" d="M721 278c-.207.19-4.246 4.302-4 1.5 11.106-25.139 21.292-51.559 25-79 1.07-7.921-1.39-20.907 4-26.5 4.295 34.715 2.483 78.72-25 104"/><path fill="#a1e7f9" d="M213 181c19.034 50.453 59.604 82.455 104 110 6.961 4.319 13.514 9.482 21 13l-27 21 16-17.5c-52.3-25.281-104.636-70.761-121-128.5l2.5-4c1.024.271 1.449 10.848 4.5 6"/><path fill="#035e85" d="M703 178c-19.081 39.047-54.821 65.339-87 93-1.891 3.629-4.065-.248-7-1 31.132-28.487 70.814-55.009 90-94z"/><path fill="#88dbf3" d="M400 273c-.263.113-1.899 1.522-3 2-12.507-11.519-25.05-22.879-37-35z"/><path fill="#2f8bb1" d="M162 283c.682 10.24 8.013 20.858 14 29-4.954.029-1.223 4.494 0 6.5 10.128 16.611 36.595 36.085 54.5 43.5 2.183.904 9.307 3.723 11.5 2 3.829 1.805 8.173 2.395 12 4 4.119 1.728 8.372 3.259 12.5 5 .766 1.199-.975 4.305-1.5 6-1.036 3.344-2.444 5.055-4 8-1.572 2.975-4.317 5.943-6 9-6.726.492-3.476 8.186-10 7-7.247-1.318-36.644-22.262-43.5-28-29.957-25.071-55.886-62.306-48.5-103.5-1.434-1.546-2.519.983-3 2-3.43 7.251-9.498 36.631-10 45-3.48 58.052 37.398 100.31 87 122.5 1.371 4.267-1.861 5.649-2 6-1.218-.66-1.496-.891-3-1-6.89-4.607-14.324-3.78-21.5-7-35.646-15.994-63.388-56.434-65.5-95.5-1.743-32.243 12.684-60.781 19-91.5.516-1.045.608-5.059 3-4.5.905 12.341 1.337 23.544 5 35.5"/><path fill="#0777a0" d="M915 396c-23.589 31.597-52.564 40.44-90 46-8.733 1.297-17.311 3.097-26 4.5 33.9-8.939 63.275-32.436 77-65 2.211-5.246 2.593-11.834 4-17 .27-.992 2.756-.011 3-1 8.901-36.113-5.028-77.795-17-111.5.092-.047-.253-2.177.5-2 2.973.698 18.29 47.189 19.5 53.5 9.981 52.057-3.414 104.168-50 133 24.267-1.958 45.564-11.776 64.5-26.5 5.223-4.061 9.167-9.876 14.5-14"/><path fill="#105377" d="M222 446c-53.71-3.883-95.891-15.058-125-64 19.694 30.772 52.411 51.264 89 54.5-66.319-39.668-62.675-122.31-32-184.5-6.316 30.719-20.743 59.257-19 91.5 2.112 39.066 29.854 79.506 65.5 95.5 7.176 3.22 14.61 2.393 21.5 7"/><path fill="#33a3c7" d="M866 252c11.972 33.705 25.901 75.387 17 111.5-.244.989-2.73.008-3 1-1.407 5.166-1.789 11.754-4 17-13.725 32.564-43.1 56.061-77 65 8.689-1.403 17.267-3.203 26-4.5-1.488 7.872 12.15 4.057 17.5 3 30.549-6.036 60.244-25.602 77.5-51.5-.08-2.725-4.491 2.107-5 2.5 6.065-8.124 11.064-17.429 16.5-26 2.331.109 1.292 8.18 1.5 10-4.548 54.407-30.225 108.555-87.5 122-6.061 1.423-6.919-1.467-13.5 2-1.237.652-5.61-.526-3.5 4 36.821 1.404 75.248-1.998 107-22 1.743.793-2.151 5.434-2.5 6-1.766 2.866-4.167 6.012-6 9-3.757-3.009-2.13-1.44-4 0-3.29 2.534-6.528 6.555-10.5 9-28.207 17.365-62.686 18.106-95 18-3.897-3.812-1.75-9.58-2.5-14-.638-3.758-1.484-7.944-3-11.5l1.5-2.5c40.378-7.024 93.115-34.113 108.5-74.5.789-2.072 6.307-21.567 3-19-21.742 44.825-77.488 60.147-124 60.5-2.485-8.296-5.716-17.996-9-26 16.133-3.532 36.071-17.9 48.5-29 43.549-38.892 48.144-82.673 31.5-136.5l-3 1c6.036 59.08-47.581 104.833-96 127.5-.507-.767-4.208-3.824-5-5-4.662-6.916-10.953-13.345-16-20-.425-4.823 5.654-6.893 10-9 3.698-1.792 8.347-2.315 12-4 24.686-3.891 50.806-20.738 66-40.5 1.872-2.435 10.902-13.386 7-15.5 3.79-5.136 9.724-13.715 10-20 2.433-5.949 4.81-13.191 6-19.5.685-3.631-.263-17.139 0-18 .314-1.027 2.401-.19 3-.5"/><path fill="#124666" d="M609 270c2.935.752 5.109 4.629 7 1 .794 3.008 4.466 2.364 6 3 8.243 3.421 23.297 8.313 29 11 4.15 1.956 26.457 15.837 31 19 2.749 1.914 7.76 6.539 11 9 5.16 3.919 11.131 7.826 16 12 14.264 12.227 26.474 26.25 38 41 1.477 1.891 2.49 5.27 4.5 7 .914.187 6.921-4.178 8.5-5l2 2c-4.346 2.107-10.425 4.177-10 9-60.063-79.201-136.225-120.674-238-122-97.802-1.274-192.261 41.893-249 122 .525-1.695 2.266-4.801 1.5-6-4.128-1.741-8.381-3.272-12.5-5l2-2c1.568.86 11.831 6.183 12.5 6 1.234-1.602 2.375-4.629 3.5-6 12.027-14.649 23.897-28.21 38-41h1l27-21c11.327-4.324 21.374-13.89 32-19 5.73-2.756 19.246-6.636 27-10 1.101-.478 2.737-1.887 3-2 1.732-.74 2.552-.709 5-2 .795-.419 3.098.643 4-.5.333-.453-3.303-5.564-4-6.5 9.607 9.448 24.536-.768 36.5-3 63.94-11.928 105.673-6.84 167.5 9"/><path fill="#c8e2ea" d="M514 257c.697 3.645-1.223 4.87-3.5 7-3.461 3.237-37.411 28.303-36.5 30.5 17.776-1.353 37.732-2.772 55.5-1.5 6.468.463 53.766 8.317 55.5 11.5 2.807 5.154-12.091 24.836 15 25-7.034 9.475 4.624 19.839-8.5 22.5-9.913 2.01-40.374-11.021-54-13-46.667-6.778-94.248 2.901-133.5 29-3.511-7.328-4.371-49.133-12.5-50-31.699 15.491-59.811 37.954-82.5 65-13.497 16.089-22.956 31.072-32 50-36.177 75.714-35.034 144.237-11 223 3.914 26.603-8.085 24.282-22 7 5.825 3.398 9.753 13.834 17.5 10 7.704-6.029-10.229-49.705-12.5-60.5-2.034-9.672-2.992-19.67-4-29.5-5.053-49.286 1.309-99.008 21-144.5 7.033-16.249 24.591-38.204 29-52.5 1.996-6.472 4.637-17.166-5.5-19-10.751-1.945-21.588 13.08-27.5 21l-1-1c1.556-2.945 2.964-4.656 4-8 56.739-80.107 151.198-123.274 249-122m-49.5 32c-2.08-.593-40.573 8.375-42 10-1.546 1.761.458 5.981 4 6 1.589.009 15.513-5.232 19-6 2.64-.582 23.638-3.301 23.5-4.5-4.675.113-1.961-4.775-4.5-5.5"/><path fill="#eff8fb" d="M752 379c5.047 6.655 11.338 13.084 16 20 34.854 58.932 55.289 139.726 36 207-.528 1.841-.966 1.894-1 2l-2-1c.52-1.802 1.592-4.221 2-6 .761-3.317 1.477-6.629 2-10 2.192-14.116 2.348-27.765 2-42-.794-32.498-6.716-62.146-18-92.5-3.942 6.115-16.809 3.468-24 2.5-4.043-12.327-11.877-29.961-18-41.5-3.163-5.961-23.719-34.813-24-37-.694-5.4 5.208-9.146 9-12-31.103 3.259-.867 35.552 6 49 7.131 13.966 12.772 27.702 18 42.5l4 80.5c-1.767 2.494-17.379-2.583-19.5-1.5-1.584.808-12.141 25.651-16.5 31.5-8.871 11.904-22.155 22.379-34.5 30.5l12.5-48.5-4.5 10.5c-17.205.696-6.963-17.356-6.5-28.5.826-19.907-.864-40.238-6-59.5-5.7-21.379-18.327-44.65-32-62-11.731-14.885-22.812-24.093-38-35-8.365-6.007-15.687-11.383-25-16-11.865-5.883-24.1-10.85-37-14-97.172-23.726-193.258 31.346-219 128-4.844 18.189-7.468 31.839-7 51 .302 12.351 2.151 25.017 5 37 3.66 15.393 10.904 32.423 19 46 43.371 72.734 133.559 101.678 213.5 79 3.927-1.114 19.862-9.094 21-9 1.492.123 2.655 3.12 4.5 4-.582.271-1.214.65-2 1-30.98 13.809-59.915 19.32-94 17-79.368-5.402-152.031-60.77-169-140-6.4-29.884-5.486-55.42 2-85 10.898-43.062 39.923-84.347 77-109 39.252-26.099 86.833-35.778 133.5-29 13.626 1.979 44.087 15.01 54 13 13.124-2.661 1.466-13.025 8.5-22.5-27.091-.164-12.193-19.846-15-25-1.734-3.183-49.032-11.037-55.5-11.5-17.768-1.272-37.724.147-55.5 1.5-.911-2.197 33.039-27.263 36.5-30.5 2.277-2.13 4.197-3.355 3.5-7 101.775 1.326 177.937 42.799 238 122"/><path fill="url(#e)" d="M245 403c2.023 1.075 1.703 2.77 1 4.5-4.7 11.566-14.353 22.657-17.5 34.5l-1.5-1c-49.602-22.19-90.48-64.448-87-122.5.502-8.369 6.57-37.749 10-45 .481-1.017 1.566-3.546 3-2-7.386 41.194 18.543 78.429 48.5 103.5 6.856 5.738 36.253 26.682 43.5 28" style="fill:url(#e)"/>/&gt;<path fill="#075a80" d="M839 275c-4.819 24.619-16.293 47.299-31.5 67 19.192-11.246 40.909-30.991 49.5-52-.276 6.285-6.21 14.864-10 20-18.9 25.612-44.529 42.867-73 56-3.653 1.685-8.302 2.208-12 4l-2-2c25.532-13.29 47.831-32.993 63-57.5z"/><path fill="url(#f)" d="M792 441c-3.967-9.666-13.301-28.386-19-37 48.419-22.667 102.036-68.42 96-127.5l3-1c16.644 53.827 12.049 97.608-31.5 136.5-12.429 11.1-32.367 25.468-48.5 29" style="fill:url(#f)"/>/&gt;<path fill="#0b5980" d="m256 366-2 2c-3.827-1.605-8.171-2.195-12-4-23.158-10.917-50.724-31.225-66-52-5.987-8.142-13.318-18.76-14-29 7.829 25.555 30.221 44.646 51.5 59-14.313-19.407-25.866-40.786-29.5-65 10.211 36.335 39.051 70.919 72 89"/><path fill="#f0f8fb" d="M464.5 289c2.539.725-.175 5.613 4.5 5.5.138 1.199-20.86 3.918-23.5 4.5-3.487.768-17.411 6.009-19 6-3.542-.019-5.546-4.239-4-6 1.427-1.625 39.92-10.593 42-10"/><path fill="#abebf9" d="M774 366c28.471-13.133 54.1-30.388 73-56 3.902 2.114-5.128 13.065-7 15.5-15.194 19.762-41.314 36.609-66 40.5"/><path fill="#9ae2f5" d="M176 312c15.276 20.775 42.842 41.083 66 52-2.193 1.723-9.317-1.096-11.5-2-17.905-7.415-44.372-26.889-54.5-43.5-1.223-2.006-4.954-6.471 0-6.5"/><path fill="#97bccb" d="M404 368c-37.077 24.653-66.102 65.938-77 109-3.776 1.986-9.402-5.777-11-8.5-5.396-9.192-8.196-24.675-12-35-1.078-2.926-8.009-12.237-8-13 .029-2.384 19.321-28.564 13-37.5 22.689-27.046 50.801-49.509 82.5-65 8.129.867 8.989 42.672 12.5 50"/><path fill="#32617b" d="m553 348-3 12c-84.654-20.774-171.991 23.972-202 106-1.52 4.155-2.846 8.718-4 13l-10-3c25.742-96.654 121.828-151.726 219-128"/><path fill="#46758b" d="m590 362-5 11c-12.029-5.995-21.921-9.79-35-13l3-12c12.9 3.15 25.135 8.117 37 14"/><path fill="#0b3d5f" d="M550 360c13.079 3.21 22.971 7.005 35 13 8.013 3.994 16.784 8.74 24 14 10.55 7.691 27.026 23.678 35 34 7.865 10.181 15.798 24.193 21 36-5.156-5.413-7.668.936-14 2-55.699-122.862-240.383-117.001-287 9l-16-2c30.009-82.028 117.346-126.774 202-106"/><path fill="#658797" d="m615 378-6 9c-7.216-5.26-15.987-10.006-24-14l5-11c9.313 4.617 16.635 9.993 25 16"/><path fill="#25607b" d="M295 386v-6.5c-2.28-4.424-25.719 34.531-27 37-18.426 35.509-30.012 83.969-31 124-.116 4.694.166 32.557 1 35 1.308 3.83 3.994 1.844 5 3 .629.723-1.508 5.095 2 4.5 1.008 9.83 1.966 19.828 4 29.5 2.271 10.795 20.204 54.471 12.5 60.5-7.747 3.834-11.675-6.602-17.5-10-10.343-12.846-18.954-28.119-26-43-4.927-3.901-1.817 3.04-6.5 3-6.304-.054-43.438-8.949-52-12-6.358-2.266-44.85-21.551-45.5-26.5-.71-5.409 14.574 6.99 17.5 8.5 25.851 13.343 51.099 19.297 80 22 .357.033 1.386 1.606 2 2 4.361-.407-.674-18.441-1.5-22-5.349-55.692 2.491-110.879 25-162 6.56-14.899 15.285-31.987 25-45 5.912-7.92 16.749-22.945 27.5-21 10.137 1.834 7.496 12.528 5.5 19"/><path fill="#638795" d="M765 459c4.982 15.191 9.788 36.157 12 52l-7 2c-2.935-19.66-7.473-34.526-14-53-5.228-14.798-10.869-28.534-18-42.5-6.867-13.448-37.103-45.741-6-49-3.792 2.854-9.694 6.6-9 12 .281 2.187 20.837 31.039 24 37 6.123 11.539 13.957 29.173 18 41.5"/><path fill="url(#g)" d="M651 459c7.362 16.239 11.548 31.045 13 49 15.776 195.036-274.545 228.852-307 42-4.747-27.329-2.698-55.787 7-82 46.617-126.001 231.301-131.862 287-9m-266 65c1.844 45.363 33.433 83.098 81 73 63.051 34.975 145.13-16.739 131-89 15.365-3.334 32.376-19.453 36-35 .17 4.313.284 23.682 1 25.5.209.531 8.743 5.028 10 5.5l1.5 4c-18.641-11.318-22.5 25.435-27.5 38.5-4.544 11.871-26.058 40.968-4.5 44.5 14.776 2.421 25.459-10.488 31.5-22.5 10.458-20.796 10.197-40.35 7-62.5-2.299-15.928-6.448-31.419-17-44-1.378-20.048-15.766-39.697-36-44 .81-2.53-6.913-7.093-8.5-8-88.971-50.845-209.831 7.433-205.5 114" style="fill:url(#g)"/>/&gt;<path fill="#28779a" d="M97 382c29.109 48.942 71.29 60.117 125 64 1.504.109 1.782.34 3 1-2.467 6.221-3.79 15.421-5 20-38.084.172-89.578-13.151-114-44.5-5.281-6.779-14.814-24.715-16-33-.642-4.484 3.523-12.226-1-14.5.172-1.491-.911-4.179 1.5-4 2.477 3.486 4.332 7.355 6.5 11"/><path fill="#185173" d="M220 467c-.684 2.588-1.687 6.245-2 7.5-2.279 9.129-3.746 18.517-6.5 27.5-6.831-4.762-17.559-4.489-26-7-33.645-10.01-64.385-32.239-83-62-2.08 1.504-.934 1.623-.5 3.5.707 3.058 9.775 19.703 12 23 17.644 26.144 46.595 42.124 78 44-16.468 1.012-35.202 1.194-52-1.5-18.5-2.966-37.174-10.937-52-20 21.333 10.074 44.062 17.193 68 17.5-46.133-18.475-72.53-76.669-67-124.5 4.523 2.274.358 10.016 1 14.5 1.186 8.285 10.719 26.221 16 33 24.422 31.349 75.916 44.672 114 44.5"/><path fill="#7ba0b0" d="m653 413-9 8c-7.974-10.322-24.45-26.309-35-34l6-9c15.188 10.907 26.269 20.115 38 35"/><path fill="#3d7590" d="M295 386c-4.409 14.296-21.967 36.251-29 52.5-19.691 45.492-26.053 95.214-21 144.5-3.508.595-1.371-3.777-2-4.5-1.006-1.156-3.692.83-5-3-.834-2.443-1.116-30.306-1-35 .988-40.031 12.574-88.491 31-124 1.281-2.469 24.72-41.424 27-37z"/><path fill="#046e94" d="M832 504c6.581-3.467 7.439-.577 13.5-2 57.275-13.445 82.952-67.593 87.5-122 4.985 43.673-23.219 101.03-65 118.5 21.624 2.075 40.851-7.759 61-13-29.955 15.922-63.328 19.062-97 18.5"/><path fill="#7ba0b0" d="M327 477c-7.486 29.58-8.4 55.116-2 85-3.555 8.248 3.407 25.665 7 34.5 18.523 45.544 61.142 83.153 106 101.5-1.971 4.395-.828 13.508-2 17-12.917.278-31.199.333-41 10-6.12-4.564-4.828-18.794-7.5-22-1.175-1.41-26.63-14.164-32-18-34.938-24.959-74.913-88.639-81.5-130.5-6.36-40.422-4.166-81.516 3-121.5 9.044-18.928 18.503-33.911 32-50 6.321 8.936-12.971 35.116-13 37.5-.009.763 6.922 10.074 8 13 3.804 10.325 6.604 25.808 12 35 1.598 2.723 7.224 10.486 11 8.5"/><path fill="#599db7" d="M262 388c-9.715 13.013-18.44 30.101-25 45 2.024-12.456 11.691-25.544 18-37 1.683-3.057 4.428-6.025 6-9z"/><path fill="#199ebb" d="M599 418c-19.58-4.163-44.32 4.414-55 22-71.722-31.6-146.533 42.284-113 114-3.018-3.487-17.046-32.07-18-36.5-3.064-14.228 7.902-35.16-10-35.5-8.399 7.734-11.373 22.104-12 33-5.77.822-.038 10.213-6 9-4.331-106.567 116.529-164.845 205.5-114 1.587.907 9.31 5.47 8.5 8"/><path fill="#b2ecf8" d="M825 442c37.436-5.56 66.411-14.403 90-46 .509-.393 4.92-5.225 5-2.5-17.256 25.898-46.951 45.464-77.5 51.5-5.35 1.057-18.988 4.872-17.5-3"/><path fill="#246787" d="M255 396c-6.309 11.456-15.976 24.544-18 37-22.509 51.121-30.349 106.308-25 162-1.007-4.339-2.233-8.492-2.5-13-4.343-.813-1.489 4.018-3 5-1.725 1.12-33.605 1.319-38 1-21.879-1.587-51.807-10.582-70-23-3.204-2.187-5.648-6.824-8-9-.431-.399-.213 2.68-1.5 1.5-2.71-2.484-6.24-4.972-6-9.5 24.444 10.41 52.648 16.845 79.5 15 1.389-.095 9.673-.674 9.5-3 2.018.158 5.473 2.427 9.5 1-1.704-4.654-12.903-2.044-17-3-3.309-.772-25.664-10.002-29-12-11.463-6.865-24.75-18.288-30.5-30.5 27.638 24.472 62.319 37.833 99.5 38.5l2 13c.219-15.408 1.542-30.236 1-44-1.199 1.882.709 2.72-2 4-7.899 3.733-55.52-1.363-66-4-17.324-4.359-29.417-11.826-42-24-.444-.43-6.488.991-6.5-7.5l5 .5c6.491 3.043 34.989 13.72 40.5 13 .229-.03 1.995-2.867 3.5-3 16.798 2.694 35.532 2.512 52 1.5-31.405-1.876-60.356-17.856-78-44-2.225-3.297-11.293-19.942-12-23-.434-1.877-1.58-1.996.5-3.5 18.615 29.761 49.355 51.99 83 62 8.441 2.511 19.169 2.238 26 7 2.754-8.983 4.221-18.371 6.5-27.5.313-1.255 1.316-4.912 2-7.5 1.21-4.579 2.533-13.779 5-20 .139-.351 3.371-1.733 2-6l1.5 1c3.147-11.843 12.8-22.934 17.5-34.5.703-1.73 1.023-3.425-1-4.5 6.524 1.186 3.274-6.508 10-7"/><path fill="#114969" d="M773 404c5.699 8.614 15.033 27.334 19 37 3.284 8.004 6.515 17.704 9 26 4.38 14.622 7.9 31.789 10 48 1.634 12.614 1.714 25.762 2 38.5 3.891-.742 2.773 1.458 3 1.5l-4 30c-4.145 10.172-4.57 22.07-6 33-.043.328-3.764 3.773-1.5 6 54.886-5.986 106.934-29.7 137.5-77-.793 5.101-12.246 22.02-16 26.5-28.083 33.51-79.747 52.14-122.5 54.5-2.23.752-13.928 36.761-16.5 42.5-35.848 79.988-110.717 142.009-195 164.5-.889-2.817 2.847-3.802 3-4 70.546-18.913 131.795-67.092 171-128 17.804-27.661 30.162-55.263 38-87.5.562-2.312 1.967-7.649 0-9.5 19.289-67.274-1.146-148.068-36-207 .792 1.176 4.493 4.233 5 5"/><path fill="#18729a" d="m815 514-4 1c-2.1-16.211-5.62-33.378-10-48 46.512-.353 102.258-15.675 124-60.5 3.307-2.567-2.211 16.928-3 19-15.385 40.387-68.122 67.476-108.5 74.5l-1.5 2.5c1.516 3.556 2.362 7.742 3 11.5"/><path fill="#97bccb" d="M653 413c13.673 17.35 26.3 40.621 32 62-3.669-5.675-9.23-2.833-13 2-1.263-4.441-2.359-8.67-4-13-.867-2.287-2.006-4.744-3-7-5.202-11.807-13.135-25.819-21-36z"/><path fill="#bfe5f2" d="M599 418c20.234 4.303 34.622 23.952 36 44 .358 5.214-2.137 7.538-2 11-3.624 15.547-20.635 31.666-36 35-39.023 8.467-75.053-31.686-53-68 10.68-17.586 35.42-26.163 55-22m-9.5 3c-44.693 1.475-47.058 67.246-6 73 56.121 7.864 59.659-74.771 6-73"/><path fill="#fefeff" d="M589.5 421c53.659-1.771 50.121 80.864-6 73-41.058-5.754-38.693-71.525 6-73"/><path fill="#658797" d="M395 725c-13.879 13.689-4.73 43.761 1 60-20.195-6.234-43.277-20.727-60.5-34-13.698-10.556-60.029-54.751-64.5-69.5-1.592-5.251-.331-14.043-2-20-.436-1.555-2.804-4.857-3-5.5-24.034-78.763-25.177-147.286 11-223-7.166 39.984-9.36 81.078-3 121.5 6.587 41.861 46.562 105.541 81.5 130.5 5.37 3.836 30.825 16.59 32 18 2.672 3.206 1.38 17.436 7.5 22m-63-24c-8.876 2.594-14.342 13.355-13 22 .007 2.421 1.62 6.129 3 8 6.781 19.229 36.987 14.136 40-5.5 2.387-15.558-15.442-34.623-30-24.5"/><path fill="url(#h)" d="M544 440c-22.053 36.314 13.977 76.467 53 68 14.13 72.261-67.949 123.975-131 89-1.647-.913-9.105-7.294-11-9-.268-.241-.708-.703-1-1-.674-.686-1.508-2.101-2-3 20.384 3.141 36.512-17.352 26-35.5-9.773-16.872-40.153-10.686-43 9.5-.896-1.751-2.921-2.753-4-4-33.533-71.716 41.278-145.6 113-114m29.5 69c-18.447 1.656-17.535 36.031 4 25 11.229-5.752 12.944-26.521-4-25" style="fill:url(#h)"/>/&gt;<path fill="#0d5279" d="M665 457c.994 2.256 2.133 4.713 3 7-.608 6.918 10.858 37.133 9 41.5-.387.909-11.058 3.333-13 2.5-1.452-17.955-5.638-32.761-13-49 6.332-1.064 8.844-7.413 14-2"/><path fill="#c8e2ea" d="M807 549c-2.849 8.13-19.431 2.231-27 4-.177-14.005-1.066-28.15-3-42-2.212-15.843-7.018-36.809-12-52 7.191.968 20.058 3.615 24-2.5 11.284 30.354 17.206 60.002 18 92.5"/><path fill="#c7e1ea" d="M770 513c3.767 25.239 4.681 50.591 2 76-2.166 20.532-8.604 39.168-13 59-1.915.301-.122-9.041 0-9.5.725-2.734 7.429-21.877 7-23-.852-2.231-10.703-3.287-12.5-2.5-1.507.66-7.448 26.62-9.5 31.5-5.387 12.81-18.185 30.078-28.5 39.5-3.773 3.446-24.169 16.031-24.5 17.5-.387 1.72 2.632 2.385 2 4.5-2.631-2.993-7.063-4.621-11-5 4.935-2.331-10.853-3.103-11.5-3-12.704 2.019-18.166 18.883-16.5 30-6.237 8.482-18.088-.277-27.5 1 .498 8.072 3.555 15.207 2.5 23.5-.107.837-1.985.398-2 .5 6.308-52.042-63.997-31.639-95.5-31-17.914.363-35.652-.632-53.5-1 8.215-3.776 14.584 2.54 16-8 34.681 3.238 66.608-2.869 98-17 41.315-18.598 74.162-50.634 94-91.5-2.841-5.981-22.206 22.055-24 24-21.535 23.344-43.025 42.001-72 55.5-1.845-.88-3.008-3.877-4.5-4-1.138-.094-17.073 7.886-21 9-79.941 22.678-170.129-6.266-213.5-79 4.922-.994 4.13-3.956 9-1 97.891 167.314 367.881 64.522 312-132 3.77-4.833 9.331-7.675 13-2 5.136 19.262 6.826 39.593 6 59.5-.463 11.144-10.705 29.196 6.5 28.5l4.5-10.5-12.5 48.5c12.345-8.121 25.629-18.596 34.5-30.5 4.359-5.849 14.916-30.692 16.5-31.5 2.121-1.083 17.733 3.994 19.5 1.5l-4-80.5c6.527 18.474 11.065 33.34 14 53"/><path fill="#5fc8e0" d="M652 506c-2.277-1.009-6.009-1.253-8-2-1.257-.472-9.791-4.969-10-5.5-.716-1.818-.83-21.187-1-25.5-.137-3.462 2.358-5.786 2-11 10.552 12.581 14.701 28.072 17 44"/><path fill="#096994" d="M672 477c55.881 196.522-214.109 299.314-312 132-9.039-15.45-17.056-35.308-20-53l17-6c32.455 186.852 322.776 153.036 307-42 1.942.833 12.613-1.591 13-2.5 1.858-4.367-9.608-34.582-9-41.5 1.641 4.33 2.737 8.559 4 13"/><path fill="#0d5279" d="M364 468c-9.698 26.213-11.747 54.671-7 82l-17 6c-1.031-6.194-1.652-12.713-2-19-.218-3.939-.019-8.046 0-12 .085-17.437 1.485-29.248 6-46 1.154-4.282 2.48-8.845 4-13z"/><path fill="#588092" d="M344 479c-4.515 16.752-5.915 28.563-6 46-3.691 2.614-6.469 2.096-11 2-.468-19.161 2.156-32.811 7-51z"/><path fill="#9adaeb" d="M88 482c14.826 9.063 33.5 17.034 52 20-1.505.133-3.271 2.97-3.5 3-5.511.72-34.009-9.957-40.5-13-3.367-1.579-6.526-3.697-10-5-1.394-3.854 3.575-2.819-3-7.5 2.558-.733 3.83 1.785 5 2.5"/><path fill="#e4f6f9" d="M397 498c-1.027 3.297-3.484 6.999-4 10.5-5.17 35.049 19.671 85.979 61 78.5.292.297.732.759 1 1-42.553 9.573-66.115-36.245-64-73 .627-10.896 3.601-25.266 12-33-1.801 5.482-4.27 10.446-6 16"/><path fill="#3991ae" d="M431 554c1.079 1.247 3.104 2.249 4 4-.263 1.862-.32 7.241 0 9-15.849-13.498-26.544-31.963-30-52.5-1.274-7.571 4.276-20.317-8-16.5 1.73-5.554 4.199-10.518 6-16 17.902.34 6.936 21.272 10 35.5.954 4.43 14.982 33.013 18 36.5"/><path fill="#1a4b69" d="m96 492-5-.5c.012 8.491 6.056 7.07 6.5 7.5 12.583 12.174 24.676 19.641 42 24 10.48 2.637 58.101 7.733 66 4 2.709-1.28.801-2.118 2-4 .542 13.764-.781 28.592-1 44l-2-13c-37.181-.667-71.862-14.028-99.5-38.5 5.75 12.212 19.037 23.635 30.5 30.5 3.336 1.998 25.691 11.228 29 12 4.097.956 15.296-1.654 17 3-4.027 1.427-7.482-.842-9.5-1-13.936-1.091-29.919-1.142-43.5-3-15.329-2.097-30.958-7.427-45.5-9-.24 4.528 3.29 7.016 6 9.5 1.287 1.18 1.069-1.899 1.5-1.5 2.352 2.176 4.796 6.813 8 9 18.193 12.418 48.121 21.413 70 23 4.395.319 36.275.12 38-1 1.511-.982-1.343-5.813 3-5 .267 4.508 1.493 8.661 2.5 13 .826 3.559 5.861 21.593 1.5 22-.614-.394-1.643-1.967-2-2-28.901-2.703-54.149-8.657-80-22-2.926-1.51-18.21-13.909-17.5-8.5.65 4.949 39.142 24.234 45.5 26.5 8.562 3.051 45.696 11.946 52 12 4.683.04 1.573-6.901 6.5-3-2.68.627.269 7.557 1 11-.732-.994-1.622-2.092-2.5-3-54.555-4.258-117.146-29.747-138-84l61.5 8.5c-26.322-13.219-44.133-38.212-54-65.5 3.474 1.303 6.633 3.421 10 5m11.5 84c-5.459-.759 9.831 13.566 6 5-.285-.638-5.323-3.248-6-5"/><path fill="#065c83" d="M933 492c-10.099 26.77-27.797 49.125-54 61.5l60-8.5c-5.028 1.347-12.469 5.589-18.5 7-25.701 6.012-54.116 7.228-80.5 8.5 41.727-5.203 65.839-24.996 87-59.5 1.833-2.988 4.234-6.134 6-9"/><path fill="#82cce1" d="M435 567c1.243 6.839 9.873 15.902 17 17 .492.899 1.326 2.314 2 3-41.329 7.479-66.17-43.451-61-78.5.516-3.501 2.973-7.203 4-10.5 12.276-3.817 6.726 8.929 8 16.5 3.456 20.537 14.151 39.002 30 52.5"/><path fill="#2b91b8" d="M927 501c-21.161 34.504-45.273 54.297-87 59.5 26.384-1.272 54.799-2.488 80.5-8.5 6.031-1.411 13.472-5.653 18.5-7 .176-.047 1.608-1.915 3.5-1 1.772 1.83-.477 2.85-.5 3-30.566 47.3-82.614 71.014-137.5 77-2.264-2.227 1.457-5.672 1.5-6 45.588-6.062 93.285-21.721 124-57.5L903.5 576c-28.664 10.285-61.403 15.637-91.5 9l4-30c5.967 1.106 35.194-4.955 42.5-7 21.53-6.025 46.865-19.496 60.5-37.5.311-.411 6.932-9.11 4-9.5 1.87-1.44.243-3.009 4 0"/><path fill="#15719a" d="M816 555c-.227-.042.891-2.242-3-1.5-.286-12.738-.366-25.886-2-38.5l4-1c.75 4.42-1.397 10.188 2.5 14 32.314.106 66.793-.635 95-18 3.972-2.445 7.21-6.466 10.5-9 2.932.39-3.689 9.089-4 9.5-13.635 18.004-38.97 31.475-60.5 37.5-7.306 2.045-36.533 8.106-42.5 7"/><path fill="#49d1ef" d="M652 506c3.197 22.15 3.458 41.704-7 62.5-6.041 12.012-16.724 24.921-31.5 22.5-21.558-3.532-.044-32.629 4.5-44.5 5-13.065 8.859-49.818 27.5-38.5l-1.5-4c1.991.747 5.723.991 8 2"/><path fill="#dcf2f7" d="M573.5 509c16.944-1.521 15.229 19.248 4 25-21.535 11.031-22.447-23.344-4-25"/><path fill="#41697a" d="M777 511c1.934 13.85 2.823 27.995 3 42 .124 9.78-.612 19.281-1 29-.151 3.782-.789 7.297-1 11-4.446.682-4.175-.834-6-4 2.681-25.409 1.767-50.761-2-76z"/><path fill="#0f7ca8" d="M391 515c-2.115 36.755 21.447 82.573 64 73 1.895 1.706 9.353 8.087 11 9-47.567 10.098-79.156-27.637-81-73 5.962 1.213.23-8.178 6-9"/><path fill="#7ba0b0" d="M338 525c-.019 3.954-.218 8.061 0 12-5.449 10.615 9.289 23.905-6 27-2.849-11.983-4.698-24.649-5-37 4.531.096 7.309.614 11-2"/><path fill="#97bccb" d="M340 556c2.944 17.692 10.961 37.55 20 53-4.87-2.956-4.078.006-9 1-8.096-13.577-15.34-30.607-19-46 15.289-3.095.551-16.385 6-27 .348 6.287.969 12.806 2 19"/><path fill="#c8e8f3" d="M452 584c-7.127-1.098-15.757-10.161-17-17-.32-1.759-.263-7.138 0-9 2.847-20.186 33.227-26.372 43-9.5 10.512 18.148-5.616 38.641-26 35.5m3.5-39c-15.664 3.105-11.447 30.107 9 25 14.282-3.567 8.805-28.529-9-25"/><path fill="#fefeff" d="M455.5 545c17.805-3.529 23.282 21.433 9 25-20.447 5.107-24.664-21.895-9-25"/><path fill="#a7e8f5" d="M172 560c.173 2.326-8.111 2.905-9.5 3-26.852 1.845-55.056-4.59-79.5-15 14.542 1.573 30.171 6.903 45.5 9 13.581 1.858 29.564 1.909 43.5 3"/><path fill="#99bdcc" d="M805 591c-7.82 1.105 2.244-2.752-1-7.5-1.974-2.889-20.695-2.992-25-1.5.388-9.719 1.124-19.22 1-29 7.569-1.769 24.151 4.13 27-4 .348 14.235.192 27.884-2 42"/><path fill="#1a6388" d="M806 618c1.43-10.93 1.855-22.828 6-33 30.097 6.637 62.836 1.285 91.5-9l26.5-15.5c-30.715 35.779-78.412 51.438-124 57.5"/><path fill="#5b7b8a" d="M494 702c-.325 3.499.454 7.617 0 11-18.423-1.72-38.938-8.021-56-15-44.858-18.347-87.477-55.956-106-101.5-3.593-8.835-10.555-26.252-7-34.5 16.969 79.23 89.632 134.598 169 140"/><path fill="#286b89" d="M107.5 576c.677 1.752 5.715 4.362 6 5 3.831 8.566-11.459-5.759-6-5"/><path fill="#719bac" d="M805 591c-.523 3.371-1.239 6.683-2 10l-26 1c.167-2.917.814-5.737 1-9 .211-3.703.849-7.218 1-11 4.305-1.492 23.026-1.389 25 1.5 3.244 4.748-6.82 8.605 1 7.5"/><path fill="#264e64" d="M778 593c-.186 3.263-.833 6.083-1 9-.718 12.557-6.503 35.949 13.5 21l9.5-11c-3.223 9.554-27.705 56.753-37.5 56-9.968-.766-4.571-15.168-3.5-20 4.396-19.832 10.834-38.468 13-59 1.825 3.166 1.554 4.682 6 4"/><path fill="#4f788c" d="M803 601c-.408 1.779-1.48 4.198-2 6-.37 1.282-.472 3.435-1 5l-9.5 11c-20.003 14.949-14.218-8.443-13.5-21z"/><path fill="#8ba9b5" d="m592 696-4-11c.786-.35 1.418-.729 2-1 28.975-13.499 50.465-32.156 72-55.5 1.794-1.945 21.159-29.981 24-24-19.838 40.866-52.685 72.902-94 91.5"/><path fill="#7198a9" d="M766 703c-44.875 54.287-101.007 98.236-166.5 125-.083-1.979 1.628-5.021 2.5-7 4.056-5.576 16.003-28.727 17.5-30 4.168-3.544 24.159-11.562 31-16 13.786-8.943 27.64-18.788 40.5-29 25.752-20.45 43.189-39.469 63-65.5 1.07-1.406 4.541-9.68 5-10 1.667-1.162 4.951-.053 5.5-.5 15.754-12.826 32.265-42.547 38.5-62 .034-.106.472-.159 1-2 1.967 1.851.562 7.188 0 9.5-7.838 32.237-20.196 59.839-38 87.5"/><path fill="#a4c8d6" d="M803 608c-6.235 19.453-22.746 49.174-38.5 62-.549.447-3.833-.662-5.5.5-.459.32-3.93 8.594-5 10-19.811 26.031-37.248 45.05-63 65.5l-1-3c7.756-6.236 11.323-21.348 8-30.5-.519-1.43-1.232-3.101-3-1.5-.149-.799-1.822-4.798-2-5 .632-2.115-2.387-2.78-2-4.5.331-1.469 20.727-14.054 24.5-17.5 10.315-9.422 23.113-26.69 28.5-39.5 2.052-4.88 7.993-30.84 9.5-31.5 1.797-.787 11.648.269 12.5 2.5.429 1.123-6.275 20.266-7 23-.122.459-1.915 9.801 0 9.5-1.071 4.832-6.468 19.234 3.5 20 9.795.753 34.277-46.446 37.5-56 .528-1.565.63-3.718 1-5z"/><path fill="#537382" d="M244 663c13.915 17.282 25.914 19.603 22-7 .196.643 2.564 3.945 3 5.5 1.669 5.957.408 14.749 2 20 4.471 14.749 50.802 58.944 64.5 69.5 17.223 13.273 40.305 27.766 60.5 34 5.254 14.889 14.073 27.746 20.5 42L363 806c-62.411-33.938-108.173-86.189-136-151.5-2.336-5.482-4.938-19.343-8-23.5-.731-3.443-3.68-10.373-1-11 7.046 14.881 15.657 30.154 26 43"/><path fill="#1b4c6a" d="M363 806c18.584 10.106 37.726 18.743 58 25-.024.992.014 2.008 0 3-89.548-22.794-182.628-111.694-202-203 3.062 4.157 5.664 18.018 8 23.5 27.827 65.311 73.589 117.562 136 151.5"/><path fill="#73929e" d="M592 696c-31.392 14.131-63.319 20.238-98 17 .454-3.383-.325-7.501 0-11 34.085 2.32 63.02-3.191 94-17z"/><path fill="#c8dcdf" d="M322 731c11.931 16.176 39.253 7.486 36-15-1.729-11.951-15.059-18.197-26-15 14.558-10.123 32.387 8.942 30 24.5-3.013 19.636-33.219 24.729-40 5.5"/><path fill="#97bccb" d="M494 713c-1.416 10.54-7.785 4.224-16 8-14.968-.308-30.465-2.945-45-3 1.493-2.066 1.871.366 3-3 1.172-3.492.029-12.605 2-17 17.062 6.979 37.577 13.28 56 15"/><path fill="#e1f2f7" d="M682 701c-13.501-1.301-25.876 7.348-24 22 3.667 28.638 50.45 16.862 37-10-.055-.646.116-1.376 0-2 1.768-1.601 2.481.07 3 1.5 3.323 9.152-.244 24.264-8 30.5-13.38 10.758-33.62.883-36-15-1.666-11.117 3.796-27.981 16.5-30 .647-.103 16.435.669 11.5 3"/><path fill="#040d18" d="M358 716c-2.599-.261-3.438-4.032-5-6-8.364-10.539-23.407-11.357-30 1-1.389 2.604-4.008 9.434-4 12-1.342-8.645 4.124-19.406 13-22 10.941-3.197 24.271 3.049 26 15"/><path fill="#08090c" d="M682 701c3.937.379 8.369 2.007 11 5 .178.202 1.851 4.201 2 5 .116.624-.055 1.354 0 2-.134-.268-1.716-2.658-2-3-9.759-11.747-24.805-8.419-31 5-1.494 3.236-1.771 8.056-4 8-1.876-14.652 10.499-23.301 24-22"/><path fill="#03375f" d="M353 710c-11.519-.655-18.551-6.383-30 1 6.593-12.357 21.636-11.539 30-1"/><path fill="#8cb4c2" d="M766 703c-39.205 60.908-100.454 109.087-171 128 2.364-3.066 4.659-6.782 7-10-.872 1.979-2.583 5.021-2.5 7 65.493-26.764 121.625-70.713 166.5-125"/><path fill="#03375f" d="M693 710c-11.467-4.286-23.163-1.153-30 9.5l-1-4.5c6.195-13.419 21.241-16.747 31-5"/><path fill="#054b73" d="M353 710c1.562 1.968 2.401 5.739 5 6 3.253 22.486-24.069 31.176-36 15-1.38-1.871-2.993-5.579-3-8-.008-2.566 2.611-9.396 4-12 11.449-7.383 18.481-1.655 30-1"/><path fill="#054e76" d="M693 710c.284.342 1.866 2.732 2 3 13.45 26.862-33.333 38.638-37 10 2.229.056 2.506-4.764 4-8l1 4.5c6.837-10.653 18.533-13.786 30-9.5"/><path fill="#b2c7c9" d="M436 715c-1.129 3.366-1.507.934-3 3-43.704-.167-49.859 15.554-39 56.5 3.147 11.865 27.076 53.363 27 56.5-20.274-6.257-39.416-14.894-58-25l53.5 21c-6.427-14.254-15.246-27.111-20.5-42-5.73-16.239-14.879-46.311-1-60 9.801-9.667 28.083-9.722 41-10"/><path fill="#060e16" d="M433 718c14.535.055 30.032 2.692 45 3 17.848.368 35.586 1.363 53.5 1 31.503-.639 101.808-21.042 95.5 31-4.491 30.612-13.415 41.71-25 68-2.341 3.218-4.636 6.934-7 10-.153.198-3.889 1.183-3 4-52.168 13.921-110.119 16.501-162 0 3.191.657 26.189 5.722 27 4.5-13.831-15.655-26.806-32.683-37-51-6.706-12.05-23.163-36.085-10.5-47.5 7.207-6.497 35.05-10.592 42.5-4-4.955-1.613-11.78-2.22-17-2-5.286.223-11.982 2.041-17 4-5.284 2.063-11.316 5.187-12 11.5-1.118 10.316 43.693 84.374 53.5 88.5 14.489 6.095 78.289 5.585 94 1 11.455-3.343 19.453-19.355 25.5-29 4.93-3.299 28.731-46.255 30-53 .872-4.635 1.769-8.755-1-13 .919.276 3.935 4.206 4 4.5 2.64 11.978-18.856 45.847-26 57-7.333 11.448-16.897 21.577-23.5 33.5 15.876-2.864 25.495-3.091 35.5-16.5 13.436-18.006 41.875-83.042 17.5-98.5-14.069-8.922-91.635-.786-114.5-1-66.907-.625-142.016-28.576-96 74.5 5.593 12.529 15.4 23.516 20 36.5-1.276-.295-2.711-.672-4-1 .014-.992-.024-2.008 0-3 .076-3.137-23.853-44.635-27-56.5-10.859-40.946-4.704-56.667 39-56.5"/><path fill="#00294d" d="M501 724c-2.609 14.586 8.143 3.735 15 10-16.809-.994-49.466-2.405-51.5 20-2.153-6.876-2.26-9.608-7.5-14-1.938-1.624-2.508-2.189-5-3-7.45-6.592-35.293-2.497-42.5 4-12.663 11.415 3.794 35.45 10.5 47.5 10.194 18.317 23.169 35.345 37 51-.811 1.222-23.809-3.843-27-4.5-1.473-.303-3.579.329-5 0-4.6-12.984-14.407-23.971-20-36.5-46.016-103.076 29.093-75.125 96-74.5"/><path fill="#02557c" d="M608 745c-4.679-7.174-50.326-17.077-50 0-1.237.416-1.449 2.02-2 3-2.417 4.302-3.256 7.325-4.5 12 5.101-22.366-18.965-25.022-35.5-26-6.857-6.265-17.609 4.586-15-10 22.865.214 100.431-7.922 114.5 1 24.375 15.458-4.064 80.494-17.5 98.5-10.005 13.409-19.624 13.636-35.5 16.5 6.603-11.923 16.167-22.052 23.5-33.5 7.144-11.153 28.64-45.022 26-57-.065-.294-3.081-4.224-4-4.5"/><path fill="#93b9c8" d="m690 743 1 3c-12.86 10.212-26.714 20.057-40.5 29-6.841 4.438-26.832 12.456-31 16-1.497 1.273-13.444 24.424-17.5 30 11.585-26.29 20.509-37.388 25-68 .015-.102 1.893.337 2-.5 1.055-8.293-2.002-15.428-2.5-23.5 9.412-1.277 21.263 7.482 27.5-1 2.38 15.883 22.62 25.758 36 15"/><path fill="#060e13" d="M516 734c16.535.978 40.601 3.634 35.5 26 1.244-4.675 2.083-7.698 4.5-12l-21 90.5-4 1c5.892-24.716 15.736-53.326 18-78.5.329-3.654 1.824-9.13 1-12.5-3.197-13.069-41.355-14.609-52-12.5-6.926-.87-15.648 1.046-22 4-7.725 3.592-9.34 6.518-9 15.5.867 22.916 18.664 61.528 19 82 .018 1.109.35 2.703-.5 3.5-1.167.488-1.54-1.083-2.5-1-1.248-7.722-3.161-15.411-5-23-4.346-17.938-8.347-36.152-13-54-1.851-7.101-3.411-16.681-8-22v-1c5.24 4.392 5.347 7.124 7.5 14 2.034-22.405 34.691-20.994 51.5-20"/><path fill="#769dad" d="M411 761c-3.868-10.854-3.767-15.598 7-22 5.018-1.959 11.714-3.777 17-4-.23 3.969 5.841.818 7 2.5 6.911 10.027-16.763 9.993-21.5 12.5-5.034 2.664-6.095 7.107-9.5 11"/><path fill="#83aebf" d="M452 737c2.492.811 3.062 1.376 5 3v1l.5 4c-5.233-2.064-10.796-1.125-15.5 1.5-.016 9.273 3.466 17.834 6 26.5 1.639 5.605 15.19 44.151 17.5 45 2.292.842 9.625-.259 12.5-1 1.839 7.589 3.752 15.278 5 23-4.49.386-21.572-1.904-25-4.5-6.871-5.204-43.548-64.815-47-74.5 3.405-3.893 4.466-8.336 9.5-11 4.737-2.507 28.411-2.473 21.5-12.5-1.159-1.682-7.23 1.469-7-2.5 5.22-.22 12.045.387 17 2m97 24-21.5 80-38.5-.5c-4.879-25.195-14.154-51.277-18-76.5-3.958-17.898 33.918-18.042 35-20.5 2.867-6.514-3.376-6.919-8-7.5 10.645-2.109 48.803-.569 52 12.5.824 3.37-.671 8.846-1 12.5m-41.5-17c-4.195 2.98 1.814 86.038 7 91 .847.81 8.89 3.591 10 3 .967-14.558 23.118-73.494 20.5-83.5-1.961-7.494-30.24-11.851-37.5-10.5"/><path fill="#759dac" d="M498 736c4.624.581 10.867.986 8 7.5-1.082 2.458-38.958 2.602-35 20.5-1.439-9.439-5.404-18.034 5-24 6.352-2.954 15.074-4.87 22-4"/><path fill="#82adbf" d="M608 745c2.769 4.245 1.872 8.365 1 13l-13 20c9.5-21.275 2.215-27.105-18.5-34-6.491 1.633-18.356 53.62-19.5 62.5 4.345 3.405 11.405 5.401 17 5.5-1.889 3.597-13.654 22.767-15.5 24-1.837 1.227-21.647 4.545-22.5 3.5l21-94.5c-.326-17.077 45.321-7.174 50 0"/><path fill="#daeaee" d="M418 739c-10.767 6.402-10.868 11.146-7 22 3.452 9.685 40.129 69.296 47 74.5 3.428 2.596 20.51 4.886 25 4.5.96-.083 1.333 1.488 2.5 1 .85-.797.518-2.391.5-3.5-.336-20.472-18.133-59.084-19-82-.34-8.982 1.275-11.908 9-15.5-10.404 5.966-6.439 14.561-5 24 3.846 25.223 13.121 51.305 18 76.5l38.5.5 21.5-80c-2.264 25.174-12.108 53.784-18 78.5l4-1 21-90.5c.551-.98.763-2.584 2-3l-21 94.5c.853 1.045 20.663-2.273 22.5-3.5 1.846-1.233 13.611-20.403 15.5-24 2.316.041.712 1.2 4-1-6.047 9.645-14.045 25.657-25.5 29-15.711 4.585-79.511 5.095-94-1-9.807-4.126-54.618-78.184-53.5-88.5.684-6.313 6.716-9.437 12-11.5"/><path fill="#d3eaf2" d="M465 763c-2.135 8.205-9.358 8.688-17 10-2.534-8.666-6.016-17.227-6-26.5 4.704-2.625 10.267-3.564 15.5-1.5l-.5-4c4.589 5.319 6.149 14.899 8 22"/><path fill="url(#i)" d="M507.5 744c7.26-1.351 35.539 3.006 37.5 10.5 2.618 10.006-19.533 68.942-20.5 83.5-1.11.591-9.153-2.19-10-3-5.186-4.962-11.195-88.02-7-91" style="fill:url(#i)"/>/&gt;<path fill="#b4d6e2" d="M596 778c-2.762 1.075-2.997 4.909-4 7-.478.743-4.111 2.821-2.5 5 1.915-1.109 1.823-3.588 2.5-5 1.957-3.044 2.39-3.395 4-7l13-20c-1.269 6.745-25.07 49.701-30 53-3.288 2.2-1.684 1.041-4 1-5.595-.099-12.655-2.095-17-5.5 1.144-8.88 13.009-60.867 19.5-62.5 20.715 6.895 28 12.725 18.5 34"/><path fill="#b0d1de" d="M478 817c-2.875.741-10.208 1.842-12.5 1-2.31-.849-15.861-39.395-17.5-45 7.642-1.312 14.865-1.795 17-10 4.653 17.848 8.654 36.062 13 54"/><path fill="#82adbf" d="M592 785c1.003-2.091 1.238-5.925 4-7-1.61 3.605-2.043 3.956-4 7m0 0c-.677 1.412-.585 3.891-2.5 5-1.611-2.179 2.022-4.257 2.5-5"/></svg>