<svg xmlns="http://www.w3.org/2000/svg" width="1024" height="1024"><defs><linearGradient id="a" x1="331.669" x2="775.762" y1="161.459" y2="302.658" gradientUnits="userSpaceOnUse"><stop offset="0%" style="stop-color:#8fb8c1"/><stop offset="74.893%" style="stop-color:#e3f3f7"/></linearGradient></defs><defs><linearGradient id="b" x1="373.67" x2="767.731" y1="395.96" y2="444.183" gradientUnits="userSpaceOnUse"><stop offset="0%" style="stop-color:#012d49"/><stop offset="63.728%" style="stop-color:#2987a4"/><stop offset="100%" style="stop-color:#206a89"/></linearGradient></defs><defs><linearGradient id="c" x1="560.232" x2="295.83" y1="312.254" y2="330.049" gradientUnits="userSpaceOnUse"><stop offset="0%" style="stop-color:#4695bd"/><stop offset="100%" style="stop-color:#14456f"/></linearGradient></defs><defs><linearGradient id="d" x1="658.792" x2="626.276" y1="426.019" y2="603.057" gradientUnits="userSpaceOnUse"><stop offset="0%" style="stop-color:#347da3"/><stop offset="100%" style="stop-color:#28628b"/></linearGradient></defs><defs><linearGradient id="e" x1="272.541" x2="400.68" y1="453.443" y2="468.315" gradientUnits="userSpaceOnUse"><stop offset="0%" style="stop-color:#082e55"/><stop offset="100%" style="stop-color:#164871"/></linearGradient></defs><defs><linearGradient id="f" x1="410.309" x2="286.278" y1="451.826" y2="467.355" gradientUnits="userSpaceOnUse"><stop offset="0%" style="stop-color:#4a9ccc"/><stop offset="100%" style="stop-color:#165182"/></linearGradient></defs><defs><linearGradient id="g" x1="585.13" x2="733.744" y1="411.136" y2="503.542" gradientUnits="userSpaceOnUse"><stop offset="0%" style="stop-color:#74c3e3"/><stop offset="100%" style="stop-color:#4f9dca"/></linearGradient></defs><defs><linearGradient id="h" x1="460.162" x2="558.066" y1="390.496" y2="436.09" gradientUnits="userSpaceOnUse"><stop offset="0%" style="stop-color:#02243b"/><stop offset="100%" style="stop-color:#2b7b98"/></linearGradient></defs><defs><linearGradient id="i" x1="556.665" x2="459.368" y1="430.826" y2="472.889" gradientUnits="userSpaceOnUse"><stop offset="0%" style="stop-color:#10435c"/><stop offset="100%" style="stop-color:#001b30"/></linearGradient></defs><path fill="#094e65" d="M539 114c-9.066-.13-19.39 1.348-28.5 2l33 1c1.989 3.129 13.58-.171 14.5 5-47.226-6.367-95.562-2.158-142 8-27.171 4.417-76.534 29.835-98.5 47-7.993 6.246-16.126 14.908-23.5 22-20.644 14.455-49.709 60.618-60 84-5.228.075 1.953-6.349-1-9 26.574-67.422 80.244-107.984 145.5-135 49.569-20.522 107.01-25.937 160.5-25"/><path fill="#2c7b97" d="M869 400c-2.175 1.684-1.9.005-2 0-2.455-5.207-6.161-9.774-10-14-7.87-8.663-17.571-16.119-27-23-2.871-2.095-5.247-5.592-9-6.5 12.101 62.019 13.559 125.858 5 188.5-3.172-1.965-2.625 8.572-4-3-.435-3.662.91-6.542 1-9 3.254-89.139 3.587-144.784-27-230-3.603-10.037-7.513-20.325-12-30-44.948-96.924-123.189-137.139-226-151-.92-5.171-12.511-1.871-14.5-5l-33-1c9.11-.652 19.434-2.13 28.5-2 118.083 1.696 220.776 69.675 263 179.5 5.31 13.812 11.045 43.764 17 54 9.599 16.499 36.012 26.644 50 52.5"/><path fill="#fbfdfd" d="M558 122c102.811 13.861 181.052 54.076 226 151-38.012-26.307-63.646-64.962-103.5-89-63.724-38.436-164.93-65.843-238.5-52 1.205-2.842-3.16-3.872-4.5-4-2.879-.275-17.988 1.429-21.5 2 46.438-10.158 94.774-14.367 142-8"/><path fill="url(#a)" d="M784 273c4.487 9.675 8.397 19.963 12 30-24.539 8.01-48.243-14.294-71.5-23-43.11-16.137-103.437-23.164-149.5-23-89.392-.285-193.319-7.568-278 25-13.56 5.215-41.959 24.496-52 25-5.708.286-15.734-3.192-19.5-3-2.034.104-.481 5.528-3.5 3 2.927-10.335 7.065-23.016 11-33 2.953 2.651-4.228 9.075 1 9-1.528 3.472-5.45 9.124-4.5 13l62-30h-5c15.238-55.75 65.928-99.285 119-120l-3.5-3c11.357-3.801 28.4-8.817 40-11 73.57-13.843 174.776 13.564 238.5 52 39.854 24.038 65.488 62.693 103.5 89M408.5 143l1 1c1.974.158 1.974-1.158 0-1zm172 7c-17.203 4.761 19.386 36.256 28.5 21.5.622-12.179-17.937-24.423-28.5-21.5m47 16c-18.26 4.802 11.111 37.779 24 30 11.304-6.822-7.545-34.328-24-30m43 34c-35.125 4.773 12.713 57.226 36 41 16.225-11.305-13.485-44.06-36-41" style="fill:url(#a)"/>/&gt;<path fill="#adcdd4" d="M442 132c-11.6 2.183-28.643 7.199-40 11-28.58 9.567-83.376 38.757-108 56 7.374-7.092 15.507-15.754 23.5-22 21.966-17.165 71.329-42.583 98.5-47 3.512-.571 18.621-2.275 21.5-2 1.34.128 5.705 1.158 4.5 4"/><path fill="#7ca4ad" d="M234 283c10.291-23.382 39.356-69.545 60-84 24.624-17.243 79.42-46.433 108-56l3.5 3c-53.072 20.715-103.762 64.25-119 120h5l-62 30c-.95-3.876 2.972-9.528 4.5-13m174.5-140h1c1.974-.158 1.974 1.158 0 1z"/><path fill="#fdfefe" d="M580.5 150c10.563-2.923 29.122 9.321 28.5 21.5-9.114 14.756-45.703-16.739-28.5-21.5"/><path fill="#fdfeff" d="M627.5 166c16.455-4.328 35.304 23.178 24 30-12.889 7.779-42.26-25.198-24-30"/><path fill="#fefeff" d="M670.5 200c22.515-3.06 52.225 29.695 36 41-23.287 16.226-71.125-36.227-36-41"/><path fill="#c1dee4" d="M575 257c-2.284.008-6.399-.795-8 1-95.282-3.504-207.636-4.073-293 41 1.448-1.075 4.675-5.086 7.5-7 3.138-2.126 16.5-4.415 15.5-10 84.681-32.568 188.608-25.285 278-25"/><path fill="#ecf6f8" d="M575 257c46.063-.164 106.39 6.863 149.5 23 23.257 8.706 46.961 31.01 71.5 23 30.587 85.216 30.254 140.861 27 230-3.69.24-1.362-4.743-2-6.5-.364-1.001-2.848-.025-3-1-.983-6.308 2.12-21.754 2-29-.087-5.29-1.844-11.709-2-17-.441-14.966 8.626-25.471-14-23.5.703-10.389-.145-21.079 1-31.5l-3-14 1 34c-1.391 6.328-1.341 13.042-2 19.5-4.968-.573-1.736 14.633-4.5 15-.107-3.082-9.496-2.341-10.5-1.5-1.128.945-3.993 25.034-5 29-3.618 14.254-15.465 51.829-25 62-4.417 4.711-3.977-.648-5.5-.5-1.488.144-15.117 20.005-18.5 23.5-6.744 6.968-13.487 12.741-22 17.5 25.821-20.792 43.451-44.215 56-75 19.422-47.648 21.948-98.408 18-149.5-.898-11.619-8.076-65.451-13-73-1.342-2.057-22.998-16.584-26.5-18.5-46.764-25.591-124.489-33.051-177.5-35 1.601-1.795 5.716-.992 8-1"/><path fill="url(#b)" d="M567 258c53.011 1.949 130.736 9.409 177.5 35 3.502 1.916 25.158 16.443 26.5 18.5 4.924 7.549 12.102 61.381 13 73 3.948 51.092 1.422 101.852-18 149.5-3.003.496-1.217-3.576-4-.5-7.867 8.695-14.755 22.315-26 34.5 35.395-58.711 36.793-125.489 25-191.5-1.836-10.279-8.923-45.27-13-53-3.547-6.725-21.396-14.943-29-16.5-16.317-16.19-106.37-24.766-131-26-79.203-3.969-223.639-7.047-294 28-5.709 2.844-16.538 8.286-19 14-11.683 3.475-19.714 14.031-27 23 1.059-6.123 4.223-29.756 7-33.5.694-.936 16.074-11.328 19-13.5 85.364-45.073 197.718-44.504 293-41" style="fill:url(#b)"/>/&gt;<path fill="url(#c)" d="M588 281c-6.213 4.797-9.451.784-16 6-3.063 2.439-4.719 2.46-3 6.5 6.011 14.13 53.699 29.268 68 34.5-8.831-2.146-20.372-3.798-29.5-5-1.853-.244-8.452-1.302-9.5 1-4.638-3.146-10.942-6.536-16-9-6.754-8.859-20.932-14.139-31.5-17-41.943-11.356-79.451-4.612-115.5 19-1.398.916-2.572 1.989-4 3-50.78 4.648-100.936 17.57-148 37 3.226-15.855 5.791-32.216 11-48 70.361-35.047 214.797-31.969 294-28" style="fill:url(#c)"/>/&gt;<path fill="#56a8ce" d="M719 307c5.162 5.122 15.625 34.791 18 43l-2 4c-.158-.221.168-.855 0-1l-23-6c-2.124-18.833 2.212-22.495-14.5-34-21.977-15.13-51.678-23.016-78-26-14.868-1.686-33.45-3.709-47.5 0 6.549-5.216 9.787-1.203 16-6 24.63 1.234 114.683 9.81 131 26"/><path fill="#98c2cd" d="M274 299c-2.926 2.172-18.306 12.564-19 13.5-2.777 3.744-5.941 27.377-7 33.5-13.643 78.861-11.421 188.658 51.5 247 12.941 11.999 40.238 29.141 57.5 32l-2 2c-45.342-6.853-87.52-53.643-102-95.5-25.183-72.795-11.952-149.945-8-224.5 10.041-.504 38.44-19.785 52-25 1 5.585-12.362 7.874-15.5 10-2.825 1.914-6.052 5.925-7.5 7"/><path fill="#cbe6f1" d="M712 347c.897 7.953 2.309 15.992 2.5 24-1.374-2.285-1.869-5.373-3.5-7.5-10.208-13.312-56.895-31.344-74-35.5-14.301-5.232-61.989-20.37-68-34.5-1.719-4.04-.063-4.061 3-6.5 14.05-3.709 32.632-1.686 47.5 0 26.322 2.984 56.023 10.87 78 26 16.712 11.505 12.376 15.167 14.5 34"/><path fill="#165e85" d="M582 315c-26.426-12.873-61.86-19.455-91-15-14.192 2.17-41.711 12.483-54 20l-2-3c36.049-23.612 73.557-30.356 115.5-19 10.568 2.861 24.746 8.141 31.5 17"/><path fill="#158daa" d="M582 315c5.058 2.464 11.362 5.854 16 9 17.087 11.59 31.645 29.784 41 48l-6 1c-14.778-26.832-38.88-46.559-67-58-6.302-2.564-12.37-5.287-19-7-7.783-2.011-16.004-3.109-24-4-15.615-1.74-18.328-2.164-34 1l2-5c29.14-4.455 64.574 2.127 91 15"/><path fill="#003656" d="m491 300-2 5c-77.38 15.62-130.21 96.969-108 174 4.731 16.407 13.915 30.316 25 43 42.396 48.512 113.979 61.103 171 31 7.784-4.109 17.375-8.844 23-16 8.196-5.69 17.49-15.844 23-24 2.185-.178 4.442-1.619 6-3-6.122 10.201-14.667 19.955-23.5 28-10.922 9.948-21.397 17.193-34.5 23-36.142 16.016-76.881 15.994-112 3-64.155-23.738-99.378-86.023-88-154l4 4.5c6.169-36.788 29.989-74.918 62-94.5 12.289-7.517 39.808-17.83 54-20"/><path fill="#00759a" d="M523 304c.01 4.186-1.12 5.351 3 7-7.031-.68-19.899-.593-27 0-11.058.923-21.689 4.275-32 8-10.976 3.965-27.17 11.863-35.5 20-7.732 7.553-.625 3.053-2.5 10.5 12.921-10.216 25.235-19.765 41-25.5 6.989-2.542 12.67-3.82 20-5-.53 9.496-3.882 18.643 0 28-8.265 1.906-16.635 4.819-24 9-17.313 7.582-35.478 27.541-39 46-6.81 18.587-7.667 34.869-3 54l-24.5 6-3-13c-17.354-.285-10.056 14.858-6.5 26 .261.818.711 1.184 1 2l-10 2c-22.21-77.031 30.62-158.38 108-174 15.672-3.164 18.385-2.74 34-1"/><path fill="#78a4ae" d="M245 307c-3.952 74.555-17.183 151.705 8 224.5 14.48 41.857 56.658 88.647 102 95.5 35.501 5.365 50.245-2.596 82-13l3 8c-10.845 3.582-39.833 12.897-48.5 17-3.05 1.444.148 1.951.5 3-35.353 6.37-67.457-1.08-96.5-23-17.842-13.466-28.652-29.715-39.5-49-28.155-60.23-39.096-131.737-30-198 2.275-16.572 7.592-33.126 11-49.5-5.305 16.772-9.522.957-21 7.5 1.614-7.76 3.845-15.391 6-23 3.019 2.528 1.466-2.896 3.5-3 3.766-.192 13.792 3.286 19.5 3"/><path fill="#0292b8" d="m547 308-3 7c-5.637-1.432-12.265-3.445-18-4-4.12-1.649-2.99-2.814-3-7 7.996.891 16.217 1.989 24 4"/><path fill="url(#d)" d="M736 568c-9.336 10.116-17.109 19.801-28.5 28-70.514 50.759-96.616-5.108-165.5-14l-6.5-3c12.369-2.419 27.198-7.451 36.5-16 21.456 17.472 69.244 34.592 96.5 27 85.87-23.92 88.402-171.218 68.5-240-2.375-8.209-12.838-37.878-18-43 7.604 1.557 25.453 9.775 29 16.5 4.077 7.73 11.164 42.721 13 53 11.793 66.011 10.395 132.789-25 191.5" style="fill:url(#d)"/>/&gt;<path fill="#06b1d5" d="M566 315c-7.043 3.786-.953 5.73 1.5 9-7.632-3.482-15.334-6.925-23.5-9l3-7c6.63 1.713 12.698 4.436 19 7"/><path fill="url(#e)" d="M283 357c-13.435 66.039-13.206 146.51 29 203.5 34.203 46.184 83.346 43.538 129 15.5 1.143.548 2.375.72 3 1 7.466 3.343 15.791 5.086 23 9-55.432 13.912-80.29 52.678-140.5 16-62.75-38.226-71.896-121.73-66.5-188.5 1.334-16.508 9.425-77.562 15-90.5 2.462-5.714 13.291-11.156 19-14-5.209 15.784-7.774 32.145-11 48" style="fill:url(#e)"/>/&gt;<path fill="#05b1d5" d="M499 311c1.29 5.39-1.765 3.662-3 7-2.189.232-3.949.67-6 1-7.33 1.18-13.011 2.458-20 5l-3-5c10.311-3.725 20.942-7.077 32-8"/><path fill="#52daf2" d="M526 311c5.735.555 12.363 2.568 18 4 8.166 2.075 15.868 5.518 23.5 9-2.453-3.27-8.543-5.214-1.5-9 28.12 11.441 52.222 31.168 67 58 10.824 19.653 16.486 39.434 16 62-.567 26.291-10.34 50.843-24 73-9.056-4.362-10.492 3.596-12.5 4-2.238.45-5.641-4.035-6-4-1.408.136-15.479 16.65-20 20-5.569 4.127-13.14 8.149-19.5 11-6.308 2.828-14.892 6.195-21.5 8-6.533 1.784-23.872 2.225-28 4-1.119.481 1.27 3.702-4 5-2.321.572-32.342-5.895-34-7-2.081-1.387-.674-3.658.5-5 49.054 13.262 95.815-1.441 126-42.5.154-3.785-15.76-12.125-19-15.5 4.945-6.94 8.162-16.381 12-24 46.761-1.945 48.567-74.799-4-65-8.491-20.888-24.159-33.325-43-44-1.36-.77-.953-1.953-3-3-.568-6.765-5.607-10.177-10.5-15-.506-.499-5.194-1.79-5.5-2.5-1.209-2.808 5-9.661 2.5-13.5-7.181-.797-14.263-1.754-21.5-2-6.224-.212-11.861.35-18 1 1.235-3.338 4.29-1.61 3-7 7.101-.593 19.969-.68 27 0"/><path fill="#05436e" d="M437 320c-32.011 19.582-55.831 57.712-62 94.5l-4-4.5c2.926-17.481 10.181-33.844 20-48.5.361-.538 3.197-4.204 0-3.5 11.243-14.278 25.213-27.53 40-38 1.428-1.011 2.602-2.084 4-3z"/><path fill="#0292b8" d="M514 317c-.002 5.156.003 10.333 0 15.5 0 .722 2.128.311 2 1-.316 1.709-23.114 4.642-21 11.5-.517.084-3.945 1.757-5 2-3.882-9.357-.53-18.504 0-28 2.051-.33 3.811-.768 6-1 6.139-.65 11.776-1.212 18-1"/><path fill="#1eb5d5" d="M549 350c-9.713-4.971-8.596-6.286-21-4-9.444-3.046-23.021-2.625-33-1-2.114-6.858 20.684-9.791 21-11.5.128-.689-2-.278-2-1 .003-5.167-.002-10.344 0-15.5 7.237.246 14.319 1.203 21.5 2 2.5 3.839-3.709 10.692-2.5 13.5.306.71 4.994 2.001 5.5 2.5 4.893 4.823 9.932 8.235 10.5 15"/><path fill="url(#f)" d="M431 320c-14.787 10.47-28.757 23.722-40 38-55.771 70.826-31.594 178.906 50 218-45.654 28.038-94.797 30.684-129-15.5-42.206-56.99-42.435-137.461-29-203.5 47.064-19.43 97.22-32.352 148-37" style="fill:url(#f)"/>/&gt;<path fill="#0292b8" d="m467 319 3 5c-15.765 5.735-28.079 15.284-41 25.5 1.875-7.447-5.232-2.947 2.5-10.5 8.33-8.137 24.524-16.035 35.5-20"/><path fill="#668e98" d="M226 372c-8.649 43.93-4.572 97.507 4 141.5 10.096 51.81 47.885 135.994 104 149.5 5.171 1.245 10.707 2.465 16 3-5.004 12.996 39.575 70.763 46.5 69l7.5-15c-19.076 34.933 15.32 42.987 12 68.5-.597 4.59-5.95 11.055-5 16.5-.573 1.177-1.661 3.184-2 4-.984-2.655-2.646.701-3 1.5-4.512 10.191-7.236 21.227-7 32.5-28.275-15.393-53.229-31.354-75-55.5-81.88-90.811-108.538-219.294-112.5-338.5-3.533 26.922-.763 54.723 2.5 81.5 12.426 101.98 43.326 182.514 107 263 79.473 100.457 206.865 118.773 318 57.5 19.522-10.763 37.951-24.245 55.5-38L684 827c-4.145 3.707-8.648 6.632-13 10-15.543 12.026-36.122 25.86-53.5 35-19.22 10.109-40.596 16.251-59.5 27-43.596 11.49-58.985 8.719-101-5 4.614-.379-2.031-2.828-2.5-3-20.576-7.531-46.036-18.259-63.5-28-23.929-13.346-57.303-42.753-76-63-4.643-5.029-8.03-9.457-12-15-19.181-26.781-45.258-72.468-59-102.5-32.258-70.497-43.184-154.793-43-232l2 14c-1.272-40.613 5.004-80.298 12-120 .154-.875-1.071-7.128-1-7.5.58-3.027 1.598-5.065 2-7 11.478-6.543 15.695 9.272 21-7.5-3.408 16.374-8.725 32.928-11 49.5"/><path fill="url(#g)" d="M637 328c17.105 4.156 63.792 22.188 74 35.5 1.631 2.127 2.126 5.215 3.5 7.5-.191-8.008-1.603-16.047-2.5-24l23 6c-3.455-2.983-11.03.592-12 4.5-1.435 5.783 10.066 54.238 11 66 1.061 13.352-.38 27.14.5 40.5 4.098-28.503 9.117-60.78 5.5-89.5-.376-2.984-3.758-18.763-5-20.5l2-4c19.902 68.782 17.37 216.08-68.5 240-27.256 7.592-75.044-9.528-96.5-27-.087-.071-.897-1.565-1-2 13.103-5.807 23.578-13.052 34.5-23 8.833-8.045 17.378-17.799 23.5-28 18.305-16.218 25.669-57.789 25-81-.649-22.517-4.848-37.232-15-57-9.355-18.216-23.913-36.41-41-48 1.048-2.302 7.647-1.244 9.5-1 9.128 1.202 20.669 2.854 29.5 5" style="fill:url(#g)"/>/&gt;<path fill="#00192f" d="M275 323c-5.575 12.938-13.666 73.992-15 90.5-5.396 66.77 3.75 150.274 66.5 188.5 60.21 36.678 85.068-2.088 140.5-16 26.096-6.55 48.234-7.455 75-4 68.884 8.892 94.986 64.759 165.5 14 11.391-8.199 19.164-17.884 28.5-28 11.245-12.185 18.133-25.805 26-34.5 2.783-3.076.997.996 4 .5-12.549 30.785-30.179 54.208-56 75-86.473 48.343-122.887-25.753-206.5-21-52.549 2.987-92.465 45.949-146.5 37-17.262-2.859-44.559-20.001-57.5-32-62.921-58.342-65.143-168.139-51.5-247 7.286-8.969 15.317-19.525 27-23"/><path fill="#0a4c62" d="M303 785c-28.147-33.921-48.586-74.101-66-114.5-3.064-7.109-14.064-42.351-17.5-44.5-6.99-4.373-14.136-1.069-25.5-10 .904-2.875 8.983 4.814 9.5 5 2.025.73 12.153.419 15.5 3.5 1.582-9.301-8.719-8.4-6-16 2.816-3.56 1.612 1.548 2.5 1.5 1.496-.08 1.56-9.214-2.5-4.5 2.536-6.548-2.567-12.802-4-19-4.6-19.894-10.222-47.396-12-67.5-2.004-22.656-.55-44.843-3-68 2.687-.13 2.578 1.453 3-1.5 3.567-24.949 1.924-56.597 7-81 .091-.438 3.523-5.797 4-8 .14-.648-2.131-.349-2-1 .191-.952 3.992-6.933 4-9-2.252-1.922-8.673 3.237-10.5 4.5-6.642 4.591-14.31 12.462-20.5 18-8.425 7.537-15.121 12.595-22 22-.759 1.037-1.631 2.57-3 3h-1c9.735-17.818 26.375-33.788 42.5-46 6.31-4.779 16.197-6.901 18.5-15-.071.372 1.154 6.625 1 7.5-6.996 39.702-13.272 79.387-12 120l-2-14c-.184 77.207 10.742 161.503 43 232 13.742 30.032 39.819 75.719 59 102.5"/><path fill="#014362" d="M528 346c-1.162.214-2.867 1.813-4 2-30.523 5.046-59.708 9.387-79 39-19.779 30.36-17.444 74.931 7 102l-6 5c-.68-.673-2.105-1.508-3-2-3.921-4.94-8.082-10.378-11-16-3.465-6.677-6.194-12.597-8-20-4.667-19.131-3.81-35.413 3-54 6.387-17.431 22.849-36.831 39-46 7.365-4.181 15.735-7.094 24-9 1.055-.243 4.483-1.916 5-2 9.979-1.625 23.556-2.046 33 1"/><path fill="#fefefe" d="M549 350c2.047 1.047 1.64 2.23 3 3 7.945 10.021 1.459 29.278-10.5 33-25.798 8.03-35.825-23.09-17.5-38 1.133-.187 2.838-1.786 4-2 12.404-2.286 11.287-.971 21 4"/><path fill="url(#h)" d="M524 348c-18.325 14.91-8.298 46.03 17.5 38 11.959-3.722 18.445-22.979 10.5-33 18.841 10.675 34.509 23.112 43 44-19.229 3.585-33.319 26.156-27 45-2.9 21.935-33.811 40.766-54.5 43-36.755 3.969-80.119-30.734-77.5-69.5.717-10.608 7.624-18.47 9-28.5 19.292-29.613 48.477-33.954 79-39m-69 87c.113.251-.142 5.264 0 5.5 4.088 6.8 22.075 16.109 29 17.5 14.02 2.816 24.5 2.567 38-2.5-35.26.992-73.685-27.158-69.5-65.5-9.731 14.591-4.115 30.337 2.5 45" style="fill:url(#h)"/>/&gt;<path fill="#385158" d="M194 451c-.859-8.118-1.076-17.231-3.5-25l-.5 33.5c-3.338-1.875-1.676-6.513-2-9.5-1.16-10.685-1.646-21.303-3-32 4.331.551 2.461-1.193 3-3.5 2.125-9.102-3.569-31.656-9-39.5-.156-.225.087-1.377 0-2 6.19-5.538 13.858-13.409 20.5-18 1.827-1.263 8.248-6.422 10.5-4.5-.008 2.067-3.809 8.048-4 9-.131.651 2.14.352 2 1-.477 2.203-3.909 7.562-4 8-5.076 24.403-3.433 56.051-7 81-.422 2.953-.313 1.37-3 1.5"/><path fill="#c4e2f0" d="M735 353c.168.145-.158.779 0 1 1.242 1.737 4.624 17.516 5 20.5 3.617 28.72-1.402 60.997-5.5 89.5-.88-13.36.561-27.148-.5-40.5-.934-11.762-12.435-60.217-11-66 .97-3.908 8.545-7.483 12-4.5"/><path fill="#0aa5c7" d="M466 356c-16.151 9.169-32.613 28.569-39 46 3.522-18.459 21.687-38.418 39-46"/><path fill="#a0c0c9" d="M830 363c.769 4.259 19.007 15.501 19 17.5-.002.652-6.127 7.968-7 11-4.427 15.371-3.91 35.366-5 51.5-1.924 28.481-5.311 61.579 1 89.5.401 1.776.697 7.359 4 4.5 2.341 12.58 6.028 29.307 20 33-18.885 5.655-19.467-27.849-21.5-28-14.708 28.207-5.848-20.738-9-29-3.345 0-.026 39.217-.5 42-.131.767-.649 1.205-1 2-.39.882-5.135 6.935-7 6 1.039-5.942 2.185-12.033 3-18 8.559-62.642 7.101-126.481-5-188.5 3.753.908 6.129 4.405 9 6.5"/><path fill="#104c7a" d="M371 410c-11.378 67.977 23.845 130.262 88 154 2.587 7.18-14.543 6.489-15 13-.625-.28-1.857-.452-3-1-81.594-39.094-105.771-147.174-50-218 3.197-.704.361 2.962 0 3.5-9.819 14.656-17.074 31.019-20 48.5"/><path fill="#bedae1" d="M857 386c.35.992 2.289 8.172 2 8.5-.969 1.1-3.179.146-3.5.5-12.181 13.452-11.229 28.187-15.5 44.5-.482 1.841.176 3.731-3 3.5 1.09-16.134.573-36.129 5-51.5.873-3.032 6.998-10.348 7-11 .007-1.999-18.231-13.241-19-17.5 9.429 6.881 19.13 14.337 27 23"/><path fill="#46636b" d="M256 570c16.753 35.839 42.98 65.705 82 79l-4 14c-56.115-13.506-93.904-97.69-104-149.5-8.572-43.993-12.649-97.57-4-141.5-9.096 66.263 1.845 137.77 30 198"/><path fill="#3ab3d0" d="M639 372c10.152 19.768 14.351 34.483 15 57-2.566 3.278 1.411 7.052-5 6 .486-22.566-5.176-42.347-16-62z"/><path fill="#7aa1ab" d="m179 375-7 6.5c12.898 5.824 11.495 24.613 13 36.5 1.354 10.697 1.84 21.315 3 32l-4-3c-2.969-17.762-6.875-46.633-27-52 6.879-9.405 13.575-14.463 22-22 .087.623-.156 1.775 0 2"/><path fill="#56757d" d="M185 418c-1.505-11.887-.102-30.676-13-36.5l7-6.5c5.431 7.844 11.125 30.398 9 39.5-.539 2.307 1.331 4.051-3 3.5"/><path fill="#e6f3f6" d="M867 400c-17.585-.884-20.489 23.683-23 37.5-5.265 28.968-7.358 70.701-2 99.5-3.303 2.859-3.599-2.724-4-4.5-6.311-27.921-2.924-61.019-1-89.5 3.176.231 2.518-1.659 3-3.5 4.271-16.313 3.319-31.048 15.5-44.5.321-.354 2.531.6 3.5-.5.289-.328-1.65-7.508-2-8.5 3.839 4.226 7.545 8.793 10 14"/><path fill="url(#i)" d="M568 442c2.481 7.399 11.675 15.669 19 18-14.145 49.864-74.567 68.33-118 43-3.557-2.074-14.17-10.866-17-14-24.444-27.069-26.779-71.64-7-102-1.376 10.03-8.283 17.892-9 28.5-2.619 38.766 40.745 73.469 77.5 69.5 20.689-2.234 51.6-21.065 54.5-43" style="fill:url(#i)"/>/&gt;<path fill="#266b8c" d="M484 458c-11.704-5.034-20.889-13.398-29-23-6.615-14.663-12.231-30.409-2.5-45-4.185 38.342 34.24 66.492 69.5 65.5-13.5 5.067-23.98 5.316-38 2.5"/><path fill="#a9d3de" d="M184 447c4.541 27.165 4.977 52.568 2 80-.789.973-1.945 1.87-2 2-1.732 1.374-2.949.601-3-1.5-.304-12.472 3.305-28.162 3-42-.335-15.225-6.509-75.773-19.5-83.5-3.788-2.253-8.866-.712-10.5-4 1.369-.43 2.241-1.963 3-3 20.125 5.367 24.031 34.238 27 52"/><path fill="#fefefe" d="M599 462c-.307.013-2.219-.857-4-1-1.923-.154-6.433-.501-8-1-7.325-2.331-16.519-10.601-19-18-6.319-18.844 7.771-41.415 27-45 52.567-9.799 50.761 63.055 4 65"/><path fill="#041b28" d="M184 529c-.345.81-.845 13.876-2 17.5-5.19 16.282-7.483 25.159-27 19.5-22.097-44.614-26.211-123.686-2-168h1c1.634 3.288 6.712 1.747 10.5 4 12.991 7.727 19.165 68.275 19.5 83.5.305 13.838-3.304 29.528-3 42 .051 2.101 1.268 2.874 3 1.5m-36 11c2.389 8.275 8.1 31.53 19 19.5 4.758-5.251 8.666-21.261 10-28.5 5.055-27.432 3.414-91.418-10-116-1.629-2.985-1.097-4.246-4.5-7-.179-.145-2.225.117-4.5-1-.214-.105.484-2.389-.5-3-8.96-3.955-16.104 48.844-16.5 54.5-1.764 25.178-.004 57.238 7 81.5"/><path fill="#092230" d="M867 400c.1.005-.175 1.684 2 0 25.158 46.503 21.587 125.17-5 170-.64.075-1.5-.15-2 0-13.972-3.693-17.659-20.42-20-33-5.358-28.799-3.265-70.532 2-99.5 2.511-13.817 5.415-38.384 23-37.5m-21 129c1.787 11.584 2.991 32.455 17.5 36 6.971-8.052 8.98-16.115 11.5-26 6.478-25.406 13.773-119.234-10-134-.976-.606-1.196-3.065-4.5-2l2.5 2.5c-4.513 2.114-5.88 3.538-8 8-12.531 26.368-13.392 87.04-9 115.5"/><path fill="#0aadce" d="M865 405c10.037 34.17 17.984 71.065 13 106.5-.129.915-1.162 5.354-2 6v-60c-8.415-2.516-11.175-3.188-13.5-12.5-.598.861-2.097 1.714-2.5 2.5-.98 1.911-8.376 37.579-9 42-.953 6.749-2.146 17.861-2 24.5l-3 15c-4.392-28.46-3.531-89.132 9-115.5 2.12-4.462 3.487-5.886 8-8l-2.5-2.5c3.304-1.065 3.524 1.394 4.5 2"/><path fill="#07e6fe" d="M158 407c-2.913 2.397-3.992 7.539-5 11-4.49 15.41-6.665 31.593-8 47.5 11.719 6.452 11.438-23.144 17-18 2.39 2.211 10.997 55.654 11 62.5.007 18.801-3.051 36.767-24.5 20l-.5 10c-7.004-24.262-8.764-56.322-7-81.5.396-5.656 7.54-58.455 16.5-54.5.984.611.286 2.895.5 3"/><path fill="#0dceed" d="m875 539-.5-10c-16.786 18.251-25.073 4.468-25.5-15-.146-6.639 1.047-17.751 2-24.5.624-4.421 8.02-40.089 9-42 .403-.786 1.902-1.639 2.5-2.5 2.325 9.312 5.085 9.984 13.5 12.5v60c.838-.646 1.871-5.085 2-6 4.984-35.435-2.963-72.33-13-106.5 23.773 14.766 16.478 108.594 10 134"/><path fill="#027fa7" d="m167 415 .5 10c-4.829-8.243-5.96-6.452-14.5-7 1.008-3.461 2.087-8.603 5-11 2.275 1.117 4.321.855 4.5 1 3.403 2.754 2.871 4.015 4.5 7"/><path fill="#2d5562" d="M804 456c-2.413 35.631-11.558 77.995-27 110-17.719 36.724-32.45 48.112-66 69-13.347 2.328-25.783 8.569-39.5 10-75.407 7.866-114.536-51.946-203-28-15.233 4.123-31.953 13.567-47 19-5.53 1.997-30.633 7.078-32 8-3.601 2.429.647 8.686-.5 12-17.094.804-34.849-1.497-51-7-39.02-13.295-65.247-43.161-82-79 10.848 19.285 21.658 35.534 39.5 49 29.043 21.92 61.147 29.37 96.5 23 36.408-6.56 66.823-29.018 104.5-32 90.799-7.186 144.693 71.999 230.5 10 21.661-15.651 35.162-31.909 47-56 14.328-29.159 23.706-67.697 27-100 .659-6.458.609-13.172 2-19.5l-1-34 3 14c-1.145 10.421-.297 21.111-1 31.5"/><path fill="#0199be" d="M177 531c-9.92 1.412 4.06-19.808-4-21-.003-6.846-8.61-60.289-11-62.5-5.562-5.144-5.281 24.452-17 18 1.335-15.907 3.51-32.09 8-47.5 8.54.548 9.671-1.243 14.5 7l-.5-10c13.414 24.582 15.055 88.568 10 116"/><path fill="#64909d" d="M194 451c2.45 23.157.996 45.344 3 68-2.012.453-2.715 2.915-4 4-1.025.865-6.746 3.687-7 4 2.977-27.432 2.541-52.835-2-80l4 3c.324 2.987-1.338 7.625 2 9.5l.5-33.5c2.424 7.769 2.641 16.882 3.5 25"/><path fill="#158daa" d="M629 510c-1.558 1.381-3.815 2.822-6 3 .405-.6 1.576-4.312 2-5 13.66-22.157 23.433-46.709 24-73 6.411 1.052 2.434-2.722 5-6 .669 23.211-6.695 64.782-25 81"/><path fill="#053752" d="M484 458c-6.925-1.391-24.912-10.7-29-17.5-.142-.236.113-5.249 0-5.5 8.111 9.602 17.296 17.966 29 23"/><path fill="#74a2ae" d="M399 843c40.121 21.842 70.282 32.884 117.5 32 30.162-.565 76.738-8.858 97.5-32 3.148-.984 9.709-4.79 11-8 7.029-1.028 12.418 10.364 14 16-111.135 61.273-238.527 42.957-318-57.5-63.674-80.486-94.574-161.02-107-263-3.263-26.777-6.033-54.578-2.5-81.5 3.962 119.206 30.62 247.689 112.5 338.5 21.771 24.146 46.725 40.107 75 55.5"/><path fill="#0292b8" d="M424 456c1.806 7.403 4.535 13.323 8 20-4.495-3.773-22.008 9.515-23.5 9l-7-15-11.5 5c-3.556-11.142-10.854-26.285 6.5-26l3 13z"/><path fill="#d1e8ed" d="M823 533c-.09 2.458-1.435 5.338-1 9-3.887 25.411-9.461 50.46-17 75-3.963-1.795 2.896-11.063 2-13.5-.696-1.892-8.315-3.398-10-2-11.643 39.361-27.433 77.548-48 113-8.292 14.294-21.001 34.618-31 47.5-10.53 13.565-23.979 25.273-35.5 38-.825.364-2.453-1.099-2.5-1.5-.213-1.812 20.833-23.859 24-27.5 6.253-7.19 13.859-13.543 20-21.5 27.93-36.188 47.068-82.487 61.5-125.5L757 614c5.757-7.288 15.839-25.761 19-34.5.736-2.036 3.798-11.829 1-13.5 15.442-32.005 24.587-74.369 27-110 22.626-1.971 13.559 8.534 14 23.5.156 5.291 1.913 11.71 2 17 .12 7.246-2.983 22.692-2 29 .152.975 2.636-.001 3 1 .638 1.757-1.69 6.74 2 6.5"/><path fill="#0599b9" d="M595 461c-2.91 17.881-16.14 32.349-29 44-2.034 1.621-4.955 4.621-7 6-30.751 14.791-64.083 16.818-94-1-.513-2.481.984-6.544 4-7 43.433 25.33 103.855 6.864 118-43 1.567.499 6.077.846 8 1"/><path fill="#085167" d="M599 462c-3.838 7.619-7.055 17.06-12 24-5.671 7.959-13.545 13.059-21 19 12.86-11.651 26.09-26.119 29-44 1.781.143 3.693 1.013 4 1"/><path fill="#cbe3ea" d="M801 464c-3.294 32.303-12.672 70.841-27 100l-1.5-5c-25.383 26.997-53.978 63.582-93 70-58.832 9.676-97.152-26.772-152-30-40.778-2.4-54.154 3.092-90.5 15-31.755 10.404-46.499 18.365-82 13l2-2c54.035 8.949 93.951-34.013 146.5-37 83.613-4.753 120.027 69.343 206.5 21 8.513-4.759 15.256-10.532 22-17.5 3.383-3.495 17.012-23.356 18.5-23.5 1.523-.148 1.083 5.211 5.5.5 9.535-10.171 21.382-47.746 25-62 1.007-3.966 3.872-28.055 5-29 1.004-.841 10.393-1.582 10.5 1.5 2.764-.367-.468-15.573 4.5-15"/><path fill="#03b1d6" d="M432 476c2.918 5.622 7.079 11.06 11 16 29.025 36.567 76.916 45.342 116 19 2.045-1.379 4.966-4.379 7-6 7.455-5.941 15.329-11.041 21-19 3.24 3.375 19.154 11.715 19 15.5-30.185 41.059-76.946 55.762-126 42.5-26.517-7.169-49.084-23.135-64.5-46l-4.5 3.5c12.798 17.628 27.967 30.793 47.5 40.5 3.375 1.677 26.918 7.085 13.5 10-1.824-.478-5.044-.379-7-1-18.645-5.923-38.232-20.475-51-35-9.967-11.338-17.935-24.696-23-39-.289-.816-.739-1.182-1-2l11.5-5 7 15c1.492.515 19.005-12.773 23.5-9"/><path fill="#0292b8" d="M391 477c5.065 14.304 13.033 27.662 23 39l-8 6c-11.085-12.684-20.269-26.593-25-43z"/><path fill="#017294" d="M469 503c-3.016.456-4.513 4.519-4 7-7.264-4.326-13.038-10.103-19-16l6-5c2.83 3.134 13.443 11.926 17 14"/><path fill="#11eefe" d="M446 494c5.962 5.897 11.736 11.674 19 16 29.917 17.818 63.249 15.791 94 1-39.084 26.342-86.975 17.567-116-19 .895.492 2.32 1.327 3 2"/><path fill="#08cdf0" d="M480 544c-1.174 1.342-2.581 3.613-.5 5 1.658 1.105 31.679 7.572 34 7 5.27-1.298 2.881-4.519 4-5 4.128-1.775 21.467-2.216 28-4 6.608-1.805 15.192-5.172 21.5-8l1 8c-7.305 3.395-14.149 6.002-22 8-27.295 3.962-47.299 3.993-74-3 13.418-2.915-10.125-8.323-13.5-10-19.533-9.707-34.702-22.872-47.5-40.5l4.5-3.5c15.416 22.865 37.983 38.831 64.5 46"/><path fill="#03b1d6" d="M625 508c-.424.688-1.595 4.4-2 5-5.51 8.156-14.804 18.31-23 24 .729-.927 3.948-4.203 4-4.5.126-.718-3.117-7.344-3.5-7.5-.623-.254-8.1 7.711-10 9-5.56 3.772-13.626 9.077-19.5 12-.447.222-1.933.504-3 1l-1-8c6.36-2.851 13.931-6.873 19.5-11 4.521-3.35 18.592-19.864 20-20 .359-.035 3.762 4.45 6 4 2.008-.404 3.444-8.362 12.5-4"/><path fill="#016384" d="M177 531c-1.334 7.239-5.242 23.249-10 28.5-10.9 12.03-16.611-11.225-19-19.5l.5-10c21.449 16.767 24.507-1.199 24.5-20 8.06 1.192-5.92 22.412 4 21"/><path fill="#546e74" d="M862 570c.5-.15 1.36.075 2 0-4.14 6.982-9.141 13.51-14 20-13.754 2.531-14.304-22.018-16-31.5-.101-.563-1.049-5.812-3-3.5.474-2.783-2.845-42 .5-42 3.152 8.262-5.708 57.207 9 29 2.033.151 2.615 33.655 21.5 28"/><path fill="#026987" d="M875 539c-2.52 9.885-4.529 17.948-11.5 26-14.509-3.545-15.713-24.416-17.5-36l3-15c.427 19.468 8.714 33.251 25.5 15z"/><path fill="#00759a" d="M414 516c12.768 14.525 32.355 29.077 51 35 25.605 11.823 54.112 10.843 81 4 7.851-1.998 14.695-4.605 22-8 1.067-.496 2.553-.778 3-1 1.013 3.58 1.69 7.116 6 7-57.021 30.103-128.604 17.512-171-31z"/><path fill="#32484f" d="M194 616c-11.038-8.674-32.529-36.41-39-49 4.425 2.139 15.355 22.146 18.5 23 13.883 3.768 18.877-58.066 19.5-67 1.285-1.085 1.988-3.547 4-4 1.778 20.104 7.4 47.606 12 67.5 1.433 6.198 6.536 12.452 4 19 4.06-4.714 3.996 4.42 2.5 4.5-.888.048.316-5.06-2.5-1.5-2.719 7.6 7.582 6.699 6 16-3.347-3.081-13.475-2.77-15.5-3.5-.517-.186-8.596-7.875-9.5-5"/><path fill="#415960" d="M155 567c-.135-.263.133-.732 0-1 19.517 5.659 21.81-3.218 27-19.5 1.155-3.624 1.655-16.69 2-17.5.055-.13 1.211-1.027 2-2 .254-.313 5.975-3.135 7-4-.623 8.934-5.617 70.768-19.5 67-3.145-.854-14.075-20.861-18.5-23"/><path fill="#0292b8" d="M600 537c-5.625 7.156-15.216 11.891-23 16-4.31.116-4.987-3.42-6-7 5.874-2.923 13.94-8.228 19.5-12 1.9-1.289 9.377-9.254 10-9 .383.156 3.626 6.782 3.5 7.5-.052.297-3.271 3.573-4 4.5"/><path fill="#064c63" d="M826 545c-.815 5.967-1.961 12.058-3 18-4.114 23.518-10.634 47.31-18 70-48.224 148.556-196.434 333.345-372.5 259-45.058-19.026-88.379-52.773-117.5-92 18.697 20.247 52.071 49.654 76 63 20.003 14.325 42.717 23.397 66 31 42.015 13.719 57.404 16.49 101 5 42.347-11.161 80.635-32.865 113-62 4.352-3.368 8.855-6.293 13-10 19.592-17.524 32.658-37.605 47-59 31.468-46.944 57.306-96.656 74-151 7.539-24.54 13.113-49.589 17-75 1.375 11.572.828 1.035 4 3"/><path fill="#9be1ef" d="M472 552c26.701 6.993 46.705 6.962 74 3-26.888 6.843-55.395 7.823-81-4 1.956.621 5.176.522 7 1"/><path fill="#364b51" d="M850 590c-1.367 1.825-2.464 4.071-4 6-2.852-6.251-8.232-8.206-11-15.5-2.627-6.923-2.357-16.426-5-23.5.351-.795.869-1.233 1-2 1.951-2.312 2.899 2.937 3 3.5 1.696 9.482 2.246 34.031 16 31.5"/><path fill="#4f666c" d="M846 596c-11.638 14.614-23.845 28.605-41 37 7.366-22.69 13.886-46.482 18-70 1.865.935 6.61-5.118 7-6 2.643 7.074 2.373 16.577 5 23.5 2.768 7.294 8.148 9.249 11 15.5"/><path fill="#9ec8d2" d="M774 564c-11.838 24.091-25.339 40.349-47 56-27.693 13.528-54.93 24.259-86.5 20-34.788-4.693-68.233-29.003-103-33-34.753-3.995-65.097 4.299-97.5 15l-3-8c36.346-11.908 49.722-17.4 90.5-15 54.848 3.228 93.168 39.676 152 30 39.022-6.418 67.617-43.003 93-70z"/><path fill="#0d446d" d="M572 563c-9.302 8.549-24.131 13.581-36.5 16l6.5 3c-26.766-3.455-48.904-2.55-75 4-7.209-3.914-15.534-5.657-23-9 .457-6.511 17.587-5.82 15-13 35.119 12.994 75.858 13.016 112-3 .103.435.913 1.929 1 2"/><path fill="#769ca4" d="M757 614c-32.523 41.173-83.521 57.828-134.5 48-61.323-11.822-61.535-29.394-134.5-17-18.606 3.16-36.66 9.164-55 13l-2-10c18.685-4.792 37.825-13.971 57.5-17 67.69-10.42 114.533 31.098 181 24 20.907-2.233 26.016-10.36 41.5-20 33.55-20.888 48.281-32.276 66-69 2.798 1.671-.264 11.464-1 13.5-3.161 8.739-13.243 27.212-19 34.5"/><path fill="#aacfd8" d="M805 617c-16.694 54.344-42.532 104.056-74 151l-13-6c9.999-12.882 22.708-33.206 31-47.5 20.567-35.452 36.357-73.639 48-113 1.685-1.398 9.304.108 10 2 .896 2.437-5.963 11.705-2 13.5"/><path fill="#cfe7ed" d="M727 620c-85.807 61.999-139.701-17.186-230.5-10-37.677 2.982-68.092 25.44-104.5 32-.352-1.049-3.55-1.556-.5-3 8.667-4.103 37.655-13.418 48.5-17 32.403-10.701 62.747-18.995 97.5-15 34.767 3.997 68.212 28.307 103 33 31.57 4.259 58.807-6.472 86.5-20"/><path fill="#476d77" d="M711 635c-15.484 9.64-20.593 17.767-41.5 20-66.467 7.098-113.31-34.42-181-24-19.675 3.029-38.815 12.208-57.5 17-13.502 3.463-27.994 7.341-42 8 1.147-3.314-3.101-9.571.5-12 1.367-.922 26.47-6.003 32-8 15.047-5.433 31.767-14.877 47-19 88.464-23.946 127.593 35.866 203 28 13.717-1.431 26.153-7.672 39.5-10"/><path fill="#aacfd8" d="M704 771c-5.951-10.756-24.571-10.658-35.5-14-14.553-4.451-28.743-10.184-43.5-14 .399-1.6 1.766-4.517 2-6 2.651-16.831-.702-21.035-13-31-29.084-23.566-85.894-24.405-122-22-.145-6.033 10.888-1.496 11.5-2 1.223-13.998-12.853-23.592-15.5-37 72.965-12.394 73.177 5.178 134.5 17 50.979 9.828 101.977-6.827 134.5-48l28.5 10c-14.432 43.013-33.57 89.312-61.5 125.5-6.141 7.957-13.747 14.31-20 21.5"/><path fill="#8fb9c3" d="M488 645c2.647 13.408 16.723 23.002 15.5 37-.612.504-11.645-4.033-11.5 2-15.636 1.042-31.927 2.869-47 7-5.838 1.6-11.687 2.991-17 6l-17-34c7.92-1.274 14.481-3.427 22-5 18.34-3.836 36.394-9.84 55-13"/><path fill="#567881" d="m431 648 2 10c-7.519 1.573-14.08 3.726-22 5-19.069 3.067-41.838 4.936-61 3-5.293-.535-10.829-1.755-16-3l4-14c16.151 5.503 33.906 7.804 51 7 14.006-.659 28.498-4.537 42-8"/><path fill="#75a2ae" d="m411 663 17 34c-6.116 3.464-20.693 16.943-24 23l-7.5 15c-6.925 1.763-51.504-56.004-46.5-69 19.162 1.936 41.931.067 61-3"/><path fill="#205263" d="M614 706c.155 7.209 5.833 12.145 8 18.5 1.418 4.156-1.23 14.013 5 12.5-.234 1.483-1.601 4.4-2 6-1.066 4.277-2.418 9.411-4 13.5-1.343 3.47-11.014 17.876-11 19 .017 1.32 9.576 19.109 11 24 2.176 7.474 6.645 28.925 4 35.5-1.291 3.21-7.852 7.016-11 8-21.196 6.629-102.427 2.047-130 2v-2c19.312-.002 38.691.203 58 0 16.425-.172 64.844 3.674 76.5-4 14.993-9.871-3.551-30.038-8.5-42-3.672-6.685-9.353-14.031-17-16-10.45-2.691-39.435-3.568-51.5-4-34.646-1.241-69.184.917-103.5 5-.973.082-2.051-.155-3 0 .125-.71-.312-1.165-1-1l1-4c6.765 1.615 14.101 1.022 21 1 39.681-.128 80.4.537 120 0 24.008-.326 43.009-10.078 45-36.5 3.903-51.791-66.273-56.051-103-56.5-21.755-.266-51.124 1.161-72 7l-1-1c15.073-4.131 31.364-5.958 47-7 36.106-2.405 92.916-1.566 122 22"/><path fill="#a3ddf2" d="m518 685 50.5 9-3.5 16c-25.696 14.685-11.379 64.071 22 59-1.765 7.397-8.463 3.146-11 9-39.6.537-80.319-.128-120 0-.199-3.957 1.177-5.968-1-9 43.804-6.846 30.577-77.706-18-61l-1-12c3.823-1.885 5.796-2.824 10-4 20.876-5.839 50.245-7.266 72-7"/><path fill="#e7fafe" d="M576 778c2.537-5.854 9.235-1.603 11-9 20.073-3.049 28.804-23.987 24-42-.357-1.34-.498-1.737-1-3-7.033-17.702-29.165-23.05-45-14l3.5-16-50.5-9c36.727.449 106.903 4.709 103 56.5-1.991 26.422-20.992 36.174-45 36.5"/><path fill="#2b4751" d="m445 691 1 1c-4.204 1.176-6.177 2.115-10 4-34.372 16.948-36.346 72.56-1 81l-1 4c-11.908 2.865-17.936 13.606-23 24-.95-5.445 4.403-11.91 5-16.5 3.32-25.513-31.076-33.567-12-68.5 3.307-6.057 17.884-19.536 24-23 5.313-3.009 11.162-4.4 17-6"/><path fill="#6fc3dd" d="m436 696 1 12c-35.632 12.254-24.32 67.614 18 61 2.177 3.032.801 5.043 1 9-6.899.022-14.235.615-21-1-35.346-8.44-33.372-64.052 1-81"/><path fill="#054e67" d="M455 769c-42.32 6.614-53.632-48.746-18-61 48.577-16.706 61.804 54.154 18 61m-7.5-62c-41.458 3.099-35.527 66.93 6 61 36.588-5.225 30.244-63.709-6-61"/><path fill="#095470" d="m610 724-11.5-12c-27.671-15.856-57.077 15.127-39.5 41.5 15.365 23.054 49.169 13.525 51-13-4.153.848-3.729 7.796-6 11-8.176 11.535-27.587 11.682-35.5.5 2.493 1.083 3.568 2.364 6.5 3 25.933 5.628 41.529-15.521 22-35 3.151 1.086 7.639 2.984 9 5.5 1.649 3.048 1.557 10.024 2.5 13.5 5.457-2.382-.007-8.587 2.5-12 4.804 18.013-3.927 38.951-24 42-33.379 5.071-47.696-44.315-22-59 15.835-9.05 37.967-3.702 45 14"/><path fill="#335b68" d="M627 737c-6.23 1.513-3.582-8.344-5-12.5-2.167-6.355-7.845-11.291-8-18.5 12.298 9.965 15.651 14.169 13 31"/><path fill="#35788f" d="M447.5 707c36.244-2.709 42.588 55.775 6 61-41.527 5.93-47.458-57.901-6-61m21.5 28c-.362-3.369-.642-11.065-5-7a43 43 0 0 0-1-1c4.38-6.638-17.016-11.648-21.5-11-30.248 4.372-17.575 52.905 15 43 7.78-2.366 19.358-16.198 12.5-24"/><path fill="#1f6b86" d="M610 724c.502 1.263.643 1.66 1 3-2.507 3.413 2.957 9.618-2.5 12-.943-3.476-.851-10.452-2.5-13.5-1.361-2.516-5.849-4.414-9-5.5-2.845-.981-15.982-7.082-12 1-14.094 1.249-19.045 14.719-15 27 1.13 3.432 3.19 4.208 5 7-2.932-.636-4.007-1.917-6.5-3 7.913 11.182 27.324 11.035 35.5-.5 2.271-3.204 1.847-10.152 6-11-1.831 26.525-35.635 36.054-51 13-17.577-26.373 11.829-57.356 39.5-41.5z"/><path fill="#17637d" d="M463 727c-14.31-11.388-34.338 6.512-24 22 8.768 13.137 32.207 6.534 30-14 6.858 7.802-4.72 21.634-12.5 24-32.575 9.905-45.248-38.628-15-43 4.484-.648 25.88 4.362 21.5 11"/><path fill="#09cde8" d="M597 720c19.529 19.479 3.933 40.628-22 35-1.81-2.792-3.87-3.568-5-7 6.492 7.169 17.535 7.937 25.5 3 13.047-8.087 6.253-31.484-10.5-30-3.982-8.082 9.155-1.981 12-1"/><path fill="#04090d" d="M585 721c16.753-1.484 23.547 21.913 10.5 30-7.965 4.937-19.008 4.169-25.5-3-4.045-12.281.906-25.751 15-27"/><path fill="#06090c" d="M463 727c.055.044.956.945 1 1 11.958 15.034-10.299 33.655-25 21-10.338-15.488 9.69-33.388 24-22"/><path fill="#10bed7" d="M469 735c2.207 20.534-21.232 27.137-30 14 14.701 12.655 36.958-5.966 25-21 4.358-4.065 4.638 3.631 5 7"/><path fill="#8fb9c3" d="M704 771c-3.167 3.641-24.213 25.688-24 27.5.047.401 1.675 1.864 2.5 1.5 11.521-12.727 24.97-24.435 35.5-38l13 6c-14.342 21.395-27.408 41.476-47 59l10.5-14c-17.549 13.755-35.978 27.237-55.5 38-1.582-5.636-6.971-17.028-14-16 2.645-6.575-1.824-28.026-4-35.5-1.424-4.891-10.983-22.68-11-24-.014-1.124 9.657-15.53 11-19 1.582-4.089 2.934-9.223 4-13.5 14.757 3.816 28.947 9.549 43.5 14 10.929 3.342 29.549 3.244 35.5 14"/><path fill="#e1f4fb" d="M593 781c-9.682 3.324-22.93-.555-33.5-1-33.995-1.43-67.673-.97-101.5 2-7.372.647-14.537-.461-20 0 34.316-4.083 68.854-6.241 103.5-5 12.065.432 41.05 1.309 51.5 4"/><path fill="#9bdaf1" d="M593 781c7.647 1.969 13.328 9.315 17 16 3.154 5.741 9.507 23.517 8 29.5-4.084 16.216-61.801 11.972-75.5 11.5l5.5 2.5-6 2.5c-19.309.203-38.688-.002-58 0h-6v-2c3.11.178 12.153-3.222 16.5-3l34.5-.5c-29.632-9.702-57.72-25.815-71-55.5 33.827-2.97 67.505-3.43 101.5-2 10.57.445 23.818 4.324 33.5 1"/><path fill="#06080b" d="M435 782c-13.057 2.138-28.085 38.759-26 50.5 2.228 12.548 16.838 10.966 26 11.5 14.342.835 28.773-1.008 43-1h6v2c-17.649-.03-56.221 4.41-71.5-1-14.711-5.209-7.671-24.975-3.5-35 .339-.816 1.427-2.823 2-4 5.064-10.394 11.092-21.135 23-24 .688-.165 1.125.29 1 1"/><path fill="#71c9e3" d="M438 782c5.463-.461 12.628.647 20 0 13.28 29.685 41.368 45.798 71 55.5l-34.5.5c-4.347-.222-13.39 3.178-16.5 3-4.569-.262-32.625-13.739-37.5-17-7.033-4.706-14.26-13.511-21-19-4.22 9.307-12.146 31.3 1 36 4.842 1.731 11.58-.878 14.5 3-9.162-.534-23.772 1.048-26-11.5-2.085-11.741 12.943-48.362 26-50.5.949-.155 2.027.082 3 0"/><path fill="#dff9fe" d="m542 843 6-2.5-5.5-2.5c13.699.472 71.416 4.716 75.5-11.5 1.507-5.983-4.846-23.759-8-29.5 4.949 11.962 23.493 32.129 8.5 42-11.656 7.674-60.075 3.828-76.5 4"/><path fill="#3a849b" d="M478 841v2c-14.227-.008-28.658 1.835-43 1-2.92-3.878-9.658-1.269-14.5-3-13.146-4.7-5.22-26.693-1-36 6.74 5.489 13.967 14.294 21 19 4.875 3.261 32.931 16.738 37.5 17"/><path fill="#60858f" d="M409 809c-4.171 10.025-11.211 29.791 3.5 35 15.279 5.41 53.851.97 71.5 1 27.573.047 108.804 4.629 130-2-20.762 23.142-67.338 31.435-97.5 32-47.218.884-77.379-10.158-117.5-32-.236-11.273 2.488-22.309 7-32.5.354-.799 2.016-4.155 3-1.5"/><path fill="#7dacb8" d="M671 837c-32.365 29.135-70.653 50.839-113 62 18.904-10.749 40.28-16.891 59.5-27 17.378-9.14 37.957-22.974 53.5-35"/><path fill="#72a2af" d="M457 894c-23.283-7.603-45.997-16.675-66-31 17.464 9.741 42.924 20.469 63.5 28 .469.172 7.114 2.621 2.5 3"/></svg>