<svg xmlns="http://www.w3.org/2000/svg" width="1024" height="1024"><defs><linearGradient id="a" x1="668.717" x2="760.312" y1="271.003" y2="484.157" gradientUnits="userSpaceOnUse"><stop offset="0%" style="stop-color:#2888ae"/><stop offset="100%" style="stop-color:#20648b"/></linearGradient></defs><defs><linearGradient id="b" x1="697.612" x2="362.603" y1="363.816" y2="400.396" gradientUnits="userSpaceOnUse"><stop offset="0%" style="stop-color:#fdfdfe"/><stop offset="100%" style="stop-color:#b0ccda"/></linearGradient></defs><defs><linearGradient id="c" x1="701.209" x2="687.449" y1="421.452" y2="547.704" gradientUnits="userSpaceOnUse"><stop offset="0%" style="stop-color:#f1f5f8"/><stop offset="100%" style="stop-color:#a4becf"/></linearGradient></defs><defs><linearGradient id="d" x1="696.233" x2="687.72" y1="533.969" y2="644.642" gradientUnits="userSpaceOnUse"><stop offset="0%" style="stop-color:#80b6ca"/><stop offset="100%" style="stop-color:#9fe9f5"/></linearGradient></defs><defs><linearGradient id="e" x1="310.131" x2="331.15" y1="523.093" y2="656.447" gradientUnits="userSpaceOnUse"><stop offset="0%" style="stop-color:#73b1c5"/><stop offset="100%" style="stop-color:#9eeaf6"/></linearGradient></defs><defs><linearGradient id="f" x1="652.959" x2="324.028" y1="550" y2="806.308" gradientUnits="userSpaceOnUse"><stop offset="25.18%" style="stop-color:#9dc5db"/><stop offset="100%" style="stop-color:#376b78"/></linearGradient></defs><defs><linearGradient id="g" x1="376.848" x2="326.489" y1="514.847" y2="608.12" gradientUnits="userSpaceOnUse"><stop offset="0%" style="stop-color:#00304b"/><stop offset="100%" style="stop-color:#07597f"/></linearGradient></defs><defs><linearGradient id="h" x1="674.071" x2="645.019" y1="507.001" y2="612.058" gradientUnits="userSpaceOnUse"><stop offset="0%" style="stop-color:#023952"/><stop offset="100%" style="stop-color:#05587f"/></linearGradient></defs><defs><linearGradient id="i" x1="706.337" x2="715.601" y1="532.912" y2="571.825" gradientUnits="userSpaceOnUse"><stop offset="0%" style="stop-color:#1e6484"/><stop offset="100%" style="stop-color:#277a9e"/></linearGradient></defs><defs><linearGradient id="j" x1="632.66" x2="399.058" y1="720.844" y2="843.831" gradientUnits="userSpaceOnUse"><stop offset="0%" style="stop-color:#52768d"/><stop offset="100%" style="stop-color:#345767"/></linearGradient></defs><defs><linearGradient id="k" x1="463.258" x2="562.222" y1="737.508" y2="740.181" gradientUnits="userSpaceOnUse"><stop offset="0%" style="stop-color:#748594"/><stop offset="100%" style="stop-color:#8e9faf"/></linearGradient></defs><path fill="#0e456f" d="m504 162-1 4c-68.609-12.366-143.343-.833-208.5 22 1.642 3.749 12.46-3.111 16-4 .409-.103 7.78-1.936 4 1-32.571 9.801-64.992 22.397-91.5 44-8.985 3.725-41.915 35.61-50 44.5-4.76 5.234-7.925 11.913-13.5 16.5l1 2c33.905-32.935 78.17-54.581 124.5-64 48.718-7.925 98.866-2.908 148-1-2.113.043-5.975.878-9 1-47.166-1.307-95.024-5.857-141.5 4-58.358 12.377-114.059 45.587-148 95 49.668-98.489 162.229-159.152 270-168 34.57-2.838 60.024-.142 94 5 1.762.267 3.29-2.412 5.5-2"/><path fill="#77e5f6" d="M503 166c11.694 2.108 17.877 4.163 29 8l-2 4c-46.214-17.307-111.22-17.049-158-2.5 57.509-2.955 110.296-7.046 165 13.5l-13 23.5 5 4.5c-2.32-.642-4.626-1.349-7-2-86.16-23.644-185.9-29.005-269 7-7.273 3.151-14.316 6.994-20.5 12l9-10c-6.352 1.832-12.287 2.424-18.5 5 26.508-21.603 58.929-34.199 91.5-44 3.78-2.936-3.591-1.103-4-1-3.54.889-14.358 7.749-16 4 65.157-22.833 139.891-34.366 208.5-22"/><path fill="#94f1fb" d="m625 198-28 21.5 5-11c-17.006 13.977-7.932-4.048-2-12 14.138-18.952 41.355-25.72 61-33.5 2.081-.824 4.173-1.945 6.5-2-14.552 12.359-29.589 22.042-42.5 37"/><path fill="#256b95" d="M661 163c-19.645 7.78-46.862 14.548-61 33.5-5.932 7.952-15.006 25.977 2 12l-5 11 28-21.5c-5.518 6.393-11.229 13.073-14.5 21 28.801-32.224 55.572-34.399 94.5-19-10.042-.11-14.507-6.462-25-4 1.983-2.881-.675-1.944-2.5-2-29.413-.904-44.103 4.022-63 27l1 2c5.219 2.676 15.119-5.752 21-8 5.088-1.945 11.129-3.002 16.5-4-16.212 5.553-38.533 22.336-49 36-1.607-.215-8.08-9.078-10-11 3.085.433 2.191-6.125 2-7.5-2.608-18.821-19.287-33.625-35-42.5-9.045-5.109-19.171-8.609-29-12-11.123-3.837-17.306-5.892-29-8l1-4c30.788 5.745 68.018 19.467 86.5 46 11.19-29.568 42.455-38.631 70.5-45"/><path fill="#34b3d3" d="M530 178c10.458 3.917 16.887 7.81 26 14l-3 2c-4.043-1.955-11.427-3.282-16-5-54.704-20.546-107.491-16.455-165-13.5 46.78-14.549 111.786-14.807 158 2.5"/><path fill="#77d9ea" d="M561 186c-2.846 7.129 6.901 9.962 9 16.5-4.591-3.703-9.092-7.167-14-10.5-9.113-6.19-15.542-10.083-26-14l2-4c9.829 3.391 19.955 6.891 29 12"/><path fill="#2f97bb" d="M594 236c-4.877-4.881-9.36-10.592-14-15-2.674-11.836-16.519-21.932-27-27l3-2c4.908 3.333 9.409 6.797 14 10.5-2.099-6.538-11.846-9.371-9-16.5 15.713 8.875 32.392 23.679 35 42.5.191 1.375 1.085 7.933-2 7.5"/><path fill="#5de1f7" d="M553 194c10.481 5.068 24.326 15.164 27 27-5.191-4.932-11.398-10.039-18-13-7.025-5.962-15.927-9.777-23.5-15 24.644 25.39 35.336 36.4-9.5 24l-5-4.5 13-23.5c4.573 1.718 11.957 3.045 16 5"/><path fill="#2b8fb4" d="M562 208c6.098 5.176 25.928 26.751 28 33.5.517 1.684 1.438 2.186-.5 3.5-28.006-11.036-58.378-15.369-88.5-16l21-14c2.374.651 4.68 1.358 7 2 44.836 12.4 34.144 1.39 9.5-24 7.573 5.223 16.475 9.038 23.5 15"/><path fill="#329fc0" d="M680 196c-5.93 1.391-15.837 8.229-16 15-2.339-3.824-7.387-1.238-11 0-5.371.998-11.412 2.055-16.5 4-5.881 2.248-15.781 10.676-21 8l-1-2c18.897-22.978 33.587-27.904 63-27 1.825.056 4.483-.881 2.5 2"/><path fill="#44b4cf" d="m522 215-21 14-25 1c-13.356-.886-29.989-3.266-43-3-49.134-1.908-99.282-6.925-148 1 23.019-17.718-31.829 1.372-37.5 1-5.676-.372 11.473-5.706 5.5-7 83.1-36.005 182.84-30.644 269-7"/><path fill="#82e9f8" d="M705 200c2.279.901 3.958 2.098 6 3 13.625 10.784 32.265 15.806 45 28-5.161-1.69-14.763-3.948-22-6-8.732-2.476-17.418-5.764-26.5-7-9.588-1.304-35.704.116-42-2-3.601-1.21-1.522-4.07-1.5-5 .163-6.771 10.07-13.609 16-15 10.493-2.462 14.958 3.89 25 4"/><path fill="#2a7ba5" d="M821 276c-21.254-9.251-36.175-27.557-57.5-37-2.139-.947-5.734-.287-7.5-1-10.648-4.295-19.547-8.57-31-11 1.973-4.71 5.498 2.116 9-2 7.237 2.052 16.839 4.31 22 6 .219.072-.581 3.532 3 1.5-.751-.638-2.302-.832-3-1.5-12.735-12.194-31.375-17.216-45-28 29.292 12.936 88.35 50.725 110 73"/><path fill="#17456f" d="M580 221c4.64 4.408 9.123 10.119 14 15 1.92 1.922 8.393 10.785 10 11l48.5-17-1.5-4c26.924-3.692 58.433 1.301 86.5 9l12.5 7c-35.727-12.836-67.673-16.188-105-7-13.638 3.357-23.498 8.653-36 14-4.133 1.768-6.663 3.671-11 5-33.339-18.109-75.504-19.977-113-23-2.966-.239-5.91-.795-9-1l25-1c30.122.631 60.494 4.964 88.5 16 1.938-1.314 1.017-1.816.5-3.5-2.072-6.749-21.902-28.324-28-33.5 6.602 2.961 12.809 8.068 18 13"/><path fill="#2d8fb3" d="M664 211c-.022.93-2.101 3.79 1.5 5 6.296 2.116 32.412.696 42 2 9.082 1.236 17.768 4.524 26.5 7-3.502 4.116-7.027-2.71-9 2-13.641-2.895-25.19-3.577-39-4 .437-3.001-2.674-1.947-4.5-2-18.992-.548-42.688-1.455-58.5 10l-.5 2c9.222-2.884 18.756-5.664 28.5-7l1.5 4-48.5 17c10.467-13.664 32.788-30.447 49-36 3.613-1.238 8.661-3.824 11 0"/><path fill="#18729a" d="M285 228c-46.33 9.419-90.595 31.065-124.5 64l-1-2c5.575-4.587 8.74-11.266 13.5-16.5 8.085-8.89 41.015-40.775 50-44.5 6.213-2.576 12.148-3.168 18.5-5l-9 10c6.184-5.006 13.227-8.849 20.5-12 5.973 1.294-11.176 6.628-5.5 7 5.671.372 60.519-18.718 37.5-1"/><path fill="#124b73" d="M686 223c-21.795-.667-42.401-.512-63 8 15.812-11.455 39.508-10.548 58.5-10 1.826.053 4.937-1.001 4.5 2"/><path fill="#7ad5e3" d="M686 223c13.81.423 25.359 1.105 39 4 11.453 2.43 20.352 6.705 31 11 3.637 2.42.067 1.535 0 5-2.861-1.183-3.539-.116-6-1l-12.5-7c-28.067-7.699-59.576-12.692-86.5-9-9.744 1.336-19.278 4.116-28.5 7l.5-2c20.599-8.512 41.205-8.667 63-8"/><path fill="#4dcbe2" d="M476 230c3.09.205 6.034.761 9 1 2 2.746-.789 2.151-2.5 2-45.523-4.019-118.002 7.669-162.5 19-62.77 15.983-112.013 41.548-154 92-5.917 7.11-11.815 14.334-17 22 5.95-12.106 15.395-25.134 24-35.5 13.246-15.955 30.551-29.544 42-46.5 6.004-4.511 13.938-11.225 20-15 47.961-29.867 132.801-38.727 189-41 3.025-.122 6.887-.957 9-1 13.011-.266 29.644 2.114 43 3"/><path fill="#49b2ce" d="M750 242c2.461.884 3.139-.183 6 1 5.179 2.141 9.192 5.314 14 8 .224 2.312-1.376 3.35-3.5 3-4.989-.822-17.24-9.027-25-10-8.982-1.126-21.209-.458-28.5 5.5 17.047 8.111 32.391 14.767 48 25.5-5.128 10.849-6.342 23.07-6 35-30.895-22.962-64.116-43.687-102-53-3.381-.831-10.92-3.717-13-4-2.827-6.221 4.403-11.964 5-18 37.327-9.188 69.273-5.836 105 7"/><path fill="#278aaf" d="M598 254c-7.063 2.165-4.66.717-12 0-6.662-.651-14.937-1.763-21.5-3-6.444-1.215-13.306-6.625-19-3l24.5 6c-77.889-1.062-157.609-7.993-233.5 13-31.113 8.607-63.729 23.786-91.5 40-.614.111-1.475-.149-2 0l-4-7c12.143-6.664 23.812-14.227 36.5-20 6.396-2.91 44.339-15.257 45.5-18.5.795-2.22-.378-7.065-1-9.5 44.498-11.331 116.977-23.019 162.5-19 1.711.151 4.5.746 2.5-2 37.496 3.023 79.661 4.891 113 23"/><path fill="#82e9f8" d="M756 231c.698.668 2.249.862 3 1.5-3.581 2.032-2.781-1.428-3-1.5"/><path fill="#2a8baf" d="M645 235c-.597 6.036-7.827 11.779-5 18-8.984-1.223-26.222 3.733-31-4 12.502-5.347 22.362-10.643 36-14"/><path fill="#baf6fb" d="M821 276c3.735 3.842 7.581 7.873 11 12 6.282 7.582 11.375 16.954 17 25-.382 8.721 9.807 17.085 14 24.5 9.221 16.308 18.409 38.637 22 57 1.028 5.257 2.435 13.275 1.5 18.5-14.692-68.723-54.829-127.548-116.5-162-4.808-2.686-8.821-5.859-14-8 .067-3.465 3.637-2.58 0-5 1.766.713 5.361.053 7.5 1 21.325 9.443 36.246 27.749 57.5 37"/><path fill="#66d5ea" d="M770 251c61.671 34.452 101.808 93.277 116.5 162 .935-5.225-.472-13.243-1.5-18.5-3.591-18.363-12.779-40.692-22-57-4.193-7.415-14.382-15.779-14-24.5 50.051 71.595 55.547 130.526 43 217-1.369-1.059-3.086-9.961-3-10.5.135-.844 1.984-.398 2-.5.591-3.751 4.435-9.356 1-14 .672-4.267 2.617-10.704 3-16.5 1.372-20.761-.995-41.43-3-62-8.244 3.666-1.05 20.978-8 28-5.042-19.021-7.31-39.175-13-58-2.909-9.624-11.162-32.943-16-41-.798-1.328-1.9-4.465-4-3-.718 6.855 2.231 17.539-4 22.5-.939-2.36-12.087-27.546-13.5-27-1.995 2.128 8.044 13.932 5 15-11.07-22.949-28.928-41.631-44-62 8.502 17.237 21.232 31.855 31.5 48-.49 6.098-7.969-5.168-9-6.5-22.455-29.007-22.086-44.181-56-67.5-15.609-10.733-30.953-17.389-48-25.5 7.291-5.958 19.518-6.626 28.5-5.5 7.76.973 20.011 9.178 25 10 2.124.35 3.724-.688 3.5-3"/><path fill="#1c5983" d="M586 254c-2.476 4.111-11.232.065-16 0l-24.5-6c5.694-3.625 12.556 1.785 19 3 6.563 1.237 14.838 2.349 21.5 3"/><path fill="#226c96" d="M609 249c4.778 7.733 22.016 2.777 31 4 2.08.283 9.619 3.169 13 4-2.489 2.519 1.674 3.88 4 5l42 19c16.533 8.941 30.886 19.066 46 30l-2 3.5c-22.063-15.716-47.489-30.389-73.5-38.5-3.707-1.156-28.611-7.68-30-7-1.081.529 1.445 2.169.5 2.5-4.466 1.567-27.413-8.674-34.5-6.5-3.163 2.05-.504 3.81-.5 5 .008 2.463-1.756.117 1 4l-2 2c-2.334-2.83-3.65-6.526-6.5-9l-7.5 4.5c2.735-4.47 5.865-4.134 3-7.5-2.964-3.483-7.995-3.535-12.5-4-41.172-4.251-100.467-5.537-142-4-21.376.791-42.686 4.46-64 6 3.231 1.918 5.451.671 8.5 4-11.727-3.976-25.193.397-37 3-23.129 5.099-43.84 13.792-65 24-10.534 5.082-18.979 8.254-29 15-1.597-.684-5.408-1.289-7-1 27.771-16.214 60.387-31.393 91.5-40 75.891-20.993 155.611-14.062 233.5-13 4.768.065 13.524 4.111 16 0 7.34.717 4.937 2.165 12 0 4.337-1.329 6.867-3.232 11-5"/><path fill="#2c95b6" d="M320 252c.622 2.435 1.795 7.28 1 9.5-1.161 3.243-39.104 15.59-45.5 18.5-12.688 5.773-24.357 13.336-36.5 20-4.966 2.725-37.072 21.393-22 8.5-.461-6.254-19.211 11.175-21 12.5-10.149 7.519-20.062 15.221-30 23 41.987-50.452 91.23-76.017 154-92"/><path fill="#2382a8" d="M593 264c-30.962 24.614-69.079 39.183-107.5 48-10.786 2.475-25.648 2.118-34.5 8-9.133 1.496-18.383 3.054-27.5 4 2.694-3.047 1.549-2.969-2-3-20.014-.172-91.716 17.766-111.5 26l-3-12c64.959-22.498 134.019-30.12 199.5-51 4.748-1.514 10.908-3.333 14.5-7 9.091-2.84 19.095-8.818 29-10.5-4.114-2.484-5.785.796-9.5 1.5-19.478 3.692-26.703 1.901-45 2-37.346.201-72.724-.44-110 3-.793.073-.397-2.01-.5-2 .423-2.015-.788-3.676-2-5-3.049-3.329-5.269-2.082-8.5-4 21.314-1.54 42.624-5.209 64-6 41.533-1.537 100.828-.251 142 4 4.505.465 9.536.517 12.5 4"/><path fill="#237aa1" d="M755 310c18.802 13.974 37.758 28.022 52 47-6.12-4.042-2.786-1.728-10 1-16.059-21.084-30.983-31.795-52-47-15.114-10.934-29.467-21.059-46-30-14.652-7.924-27.789-12.156-42-19-2.326-1.12-6.489-2.481-4-5 37.884 9.313 71.105 30.038 102 53"/><path fill="#184b71" d="m699 281-42-19c14.211 6.844 27.348 11.076 42 19"/><path fill="#51d0e5" d="M383 266c1.212 1.324 2.423 2.985 2 5-8.689.855-20.115 4.38-29 6 .401-7.27-8.086-.869-10-8 11.807-2.603 25.273-6.976 37-3"/><path fill="#15476f" d="M604 276c12.647 15.336 24.211 28.152 42 38v4c-10.89-7.66-22.403-15.75-32-25-6.501-6.266-11.543-14.224-17.5-21-.202-.061-2.153 1.762-2.5 2-1.159.795-2.721 3.477-5 5-23.833 15.927-48.259 31.275-75 42 1.064-2.085 1.978-2.539 1-5 20.928-9.059 41.664-18.997 60-32.5-39.48 16.442-81.021 29.462-124 36.5 8.852-5.882 23.714-5.525 34.5-8 38.421-8.817 76.538-23.386 107.5-48 2.865 3.366-.265 3.03-3 7.5l7.5-4.5c2.85 2.474 4.166 6.17 6.5 9"/><path fill="#299fbf" d="M521 277c-51.682 16.144-105.149 24.553-158 36-4.55.986-11.488.918-16.5 2-40.942 8.836-79.056 24.784-117 42-6.279-.739 16.022-19.157 15-21-32.651 19.393-57.466 46.465-80.5 76 19.453-40.322 50.674-78.874 88-104 10.021-6.746 18.466-9.918 29-15 2.018 1.685-22.015 12.838-14.5 13 28.531-14.757 58.054-23.268 89.5-29 8.885-1.62 20.311-5.145 29-6 .103-.01-.293 2.073.5 2 37.276-3.44 72.654-2.799 110-3 18.297-.099 25.522 1.692 45-2 3.715-.704 5.386-3.984 9.5-1.5-9.905 1.682-19.909 7.66-29 10.5"/><path fill="url(#a)" d="M745 311c21.017 15.205 35.941 25.916 52 47 .978 1.284 1.726 3.62 2 4 26.843 49.022 44.359 105.323 38.5 162-3.506-16.411-9.158-37.965-17.5-52.5-5.435-9.47-15.125-15.632-20-23-6.693-10.115-11.265-23.16-19-34-15.851-22.215-38.924-42.284-61-58l12.5 6.5 31.5 24.5c-21.235-20.574-49.358-40.505-75.5-54.5-13.628-7.296-29.379-11.736-42.5-19-17.789-9.848-29.353-22.664-42-38l2-2c9.175 12.927 43.965 29.632 60 31.5L605 270c-.004-1.19-2.663-2.95.5-5 7.087-2.174 30.034 8.067 34.5 6.5.945-.331-1.581-1.971-.5-2.5 1.389-.68 26.293 5.844 30 7 26.011 8.111 51.437 22.784 73.5 38.5zm-54.5-8c-1.372.212-5.533 1.229-5.5 3.5.097 6.659 50.182 40.455 58.5 47.5 15.268 12.931 28.098 28.725 43.5 41.5 2.849-34.479-65.961-97.22-96.5-92.5" style="fill:url(#a)"/>/&gt;<path fill="#072e51" d="M235 269c-6.062 3.775-13.996 10.489-20 15-38.353 28.817-64.155 59.403-81 105-4.664 12.626-9.281 25.443-10.5 39 15.397-40.681 43.729-73.691 79.5-98 6.639-4.512 33.809-21.242 40-23 .525-.149 1.386.111 2 0 1.592-.289 5.403.316 7 1-37.326 25.126-68.547 63.678-88 104-2.378 3.05-3.047 4.915-5 8l2-11c19.228-37.622 45.598-70.665 80-95.5-56.045 23.747-103.287 73.132-121.5 131.5-.777-4.812.604-12.627 1.5-17.5 12.396-67.438 52.727-127.066 114-158.5"/><path fill="#5fddee" d="M346 269c1.914 7.131 10.401.73 10 8-31.446 5.732-60.969 14.243-89.5 29-7.515-.162 16.518-11.315 14.5-13 21.16-10.208 41.871-18.901 65-24"/><path fill="#194973" d="M606 274c-2.756-3.883-.992-1.537-1-4l61 35.5c-16.035-1.868-50.825-18.573-60-31.5"/><path fill="#93adc0" d="M614 293c-6.733 1.099 8.49 14.083 10.5 16 16.559 15.792 35.888 29.375 53.5 44l-8 5c-5.696-4.965-14.435-9.629-20.5-15-22.734-20.134-40.993-42.237-55.5-69 .347-.238 2.298-2.061 2.5-2 5.957 6.776 10.999 14.734 17.5 21"/><path fill="url(#b)" d="M670 358c19.74 17.209 41.213 32.883 57 54-69.373-7.678-134.501 15.384-171 77l-102 1c-27.793-47.387-73.351-76.981-129-79l61.5-27c60.136-22.456 134.238-44.612 185-85 7.801-6.207 13.816-10.292 17.5-20 2.279-1.523 3.841-4.205 5-5 14.507 26.763 32.766 48.866 55.5 69 6.065 5.371 14.804 10.035 20.5 15m-12.5 11c-11.822 1.752-18.024 24.444-6 31 4.557.069 1.723-12.832 2.5-16.5.939-4.433 4.397-10.203 7-14-.555-.762-2.555-.64-3.5-.5m-44 15c-16.85 2.63-35.46 31.005-13 38 34.071 10.611 53.876-44.38 13-38" style="fill:url(#b)"/>/&gt;<path fill="#53bbd5" d="M826 349c19.329 30.394 34.561 74.061 41 110 .058.323-.056.676 0 1l-12 4.5c-4.515-30.381-13.888-61.333-31-87-3.211-4.816-12.604-17.597-17-20.5-14.242-18.978-33.198-33.026-52-47-.342-11.93.872-24.151 6-35 33.914 23.319 33.545 38.493 56 67.5 1.031 1.332 8.51 12.598 9 6.5"/><path fill="#0a3459" d="M521 277c-3.592 3.667-9.752 5.486-14.5 7-65.481 20.88-134.541 28.502-199.5 51-40.469 14.016-82.802 35.82-113 67l-1-1c48.759-48.509 103.295-72.793 170-88 52.851-11.447 106.318-19.856 158-36"/><path fill="#557f9b" d="M589 279c-3.684 9.708-9.699 13.793-17.5 20-50.762 40.388-124.864 62.544-185 85L325 411c-10.639-.386-20.492.19-31 2-3.513.605-7.472 2.147-11 3-.6-3.461 1.163-2.732 3.5-4 28.154-15.277 54.87-19.659 84-30 16.715-5.934 64.837-20.874 77-28 6.027-3.531 1.985-3.956 2.5-10 14.064-3.814 29.92-7.003 43.5-12 6.885-2.533 17.712-5.537 20.5-11 26.741-10.725 51.167-26.073 75-42"/><path fill="#3abed8" d="M515 316c-83.503 36.144-171.295 48.773-258 87-9.431 4.158-18.481 9.072-28 13-4.509 1.861-8.885 4.323-13.5 6-5.027-3.049 1.646-7.534 2.5-12 56.666-33.287 100.842-57.708 166.5-71 3.047-.617 66.896-8.529 60-12-49.896 7.954-101.578 11.441-148 33l-1.5-3c8.268-3.637 17.119-6.702 25-10.5l-23.5 7.5 13.5-7c19.784-8.234 91.486-26.172 111.5-26 3.549.031 4.694-.047 2 3 9.117-.946 18.367-2.504 27.5-4 42.979-7.038 84.52-20.058 124-36.5-18.336 13.503-39.072 23.441-60 32.5"/><path fill="#1ea2c2" d="M149 366c-5.039 7.45-8.465 16.582-15 23 16.845-45.597 42.647-76.183 81-105-11.449 16.956-28.754 30.545-42 46.5-8.605 10.366-18.05 23.394-24 35.5"/><path fill="#0c456f" d="m850 678-1-1c12.482-46.195 24.325-93.778 22.5-142-8.797 38.417-20.624 76.847-41.5 110.5-3.913 6.307-10.481 12.708-14 18.5l-4 2c1.725-3.89 3.14-6.542 3-11 5.937-8.808 11.279-22.546 11-33 .82-1.572 2.404-4.57 3-6l4-1c-2.134 8.266-5.652 16.452-6.5 25 8.002-11.077 14.11-24.5 19.5-37 20.03-46.456 29.727-92.368 21-143-.056-.324.058-.677 0-1l3-1c8.399 47.547 3.224 94.031 1 142-1.278 4.06-5 18.979-5 22.5 0 1.52-.665 4.593 2 3 4.174-16.377 10.855-32.137 15-48.5 3.915-15.457 6.709-31.212 9-47 12.547-86.474 7.051-145.405-43-217-5.625-8.046-10.718-17.418-17-25 5.083.905 6.707 3.094 10 6.5 89.118 92.192 64.572 279.85 8 383.5"/><path fill="#7292a9" d="M614 293c9.597 9.25 21.11 17.34 32 25 14.654 10.308 29.968 18.471 45 28l-7 10c-.426-.353-5.576-2.648-6-3-17.612-14.625-36.941-28.208-53.5-44-2.01-1.917-17.233-14.901-10.5-16"/><path fill="#146d97" d="m239 300 4 7c-6.191 1.758-33.361 18.488-40 23l-7-9c1.789-1.325 20.539-18.754 21-12.5-15.072 12.893 17.034-5.775 22-8.5"/><path fill="#21749e" d="M847 375c9.635 24.219 18.458 57.286 23 83l-3 1c-6.439-35.939-21.671-79.606-41-110-10.268-16.145-22.998-30.763-31.5-48 15.072 20.369 32.93 39.051 44 62 3.044-1.068-6.995-12.872-5-15 1.413-.546 12.561 24.64 13.5 27"/><path fill="#3096b8" d="M690.5 303c30.539-4.72 99.349 58.021 96.5 92.5-15.402-12.775-28.232-28.569-43.5-41.5-8.318-7.045-58.403-40.841-58.5-47.5-.033-2.271 4.128-3.288 5.5-3.5"/><path fill="#105e85" d="M363 313c-66.705 15.207-121.241 39.491-170 88-21.916 21.803-39.902 47.162-53.5 75l19.5-56c1.953-3.085 2.622-4.95 5-8 23.034-29.535 47.849-56.607 80.5-76 1.022 1.843-21.279 20.261-15 21 37.944-17.216 76.058-33.164 117-42 5.012-1.082 11.95-1.014 16.5-2"/><path fill="#08335a" d="M799 362c44.474 61.655 54.559 145.791 42 220-1.859 10.987-5.211 22.197-8 33l-4 1c7.3-17.505 11.57-42.76 8-61 .981-57.794-23.201-105.274-77-129l-10.5-9 33 15c-9.912-25.318-31.385-44.76-52.5-61-14.101-10.845-24.632-15.892-39-25-15.032-9.529-30.346-17.692-45-28v-4c13.121 7.264 28.872 11.704 42.5 19 26.142 13.995 54.265 33.926 75.5 54.5L732.5 363l-12.5-6.5c22.076 15.716 45.149 35.785 61 58 7.735 10.84 12.307 23.885 19 34 4.875 7.368 14.565 13.53 20 23 8.342 14.535 13.994 36.089 17.5 52.5 5.859-56.677-11.657-112.978-38.5-162"/><path fill="#0e3259" d="M514 321c-2.788 5.463-13.615 8.467-20.5 11-13.58 4.997-29.436 8.186-43.5 12-63.127 17.119-111.868 27.115-173 53-5.446 2.306-14.606 6.251-20 6 86.705-38.227 174.497-50.856 258-87 .978 2.461.064 2.915-1 5"/><path fill="#0d5e86" d="m196 321 7 9c-35.771 24.309-64.103 57.319-79.5 98 1.219-13.557 5.836-26.374 10.5-39 6.535-6.418 9.961-15.55 15-23 5.185-7.666 11.083-14.89 17-22 9.938-7.779 19.851-15.481 30-23"/><path fill="#29cae2" d="M218 410c-1.542.906-6.184 3.39-8 3 19.443-19.918 35.5-31.081 60-44 8.351-4.404 16.361-8.2 25-12l1.5 3c46.422-21.559 98.104-25.046 148-33 6.896 3.471-56.953 11.383-60 12-65.658 13.292-109.834 37.713-166.5 71"/><path fill="#116991" d="m307 335 3 12-13.5 7 23.5-7.5c-7.881 3.798-16.732 6.863-25 10.5-8.639 3.8-16.649 7.596-25 12 .336-3.187-1.977-1.673-3.5-1-26.035 11.504-51.104 35.567-69.5 57-10.462 12.189-20.997 25.032-29 39-7.968-.62-13.988 10.973-22 9 10.024-21.762 31.392-53.853 48-71 30.198-31.18 72.531-52.984 113-67"/><path fill="#3d6383" d="M450 344c-.515 6.044 3.527 6.469-2.5 10-12.163 7.126-60.285 22.066-77 28-29.13 10.341-55.846 14.723-84 30-2.337 1.268-4.1.539-3.5 4-14.406 3.481-29.932 8.952-43 16l38.5-31-1.5-4c61.132-25.885 109.873-35.881 173-53"/><path fill="#88a3b8" d="m730 371-9 19c-10.331-12.309-24.606-23.725-37-34l7-10c14.368 9.108 24.899 14.155 39 25"/><path fill="#48bad5" d="M892 505c-.206 1.307-1.905 2.002-2 2.5-.217 1.136 2.17 8.959 1 11.5-.016.102-1.865-.344-2 .5-.086.539 1.631 9.441 3 10.5-2.291 15.788-5.085 31.543-9 47-3.281-4.876-3.573 6.513-4 7.5-1.962 4.53-6.322 10.169-8 15.5 2.224-47.969 7.399-94.453-1-142-4.542-25.714-13.365-58.781-23-83 6.231-4.961 3.282-15.645 4-22.5 2.1-1.465 3.202 1.672 4 3 4.838 8.057 13.091 31.376 16 41 5.69 18.825 7.958 38.979 13 58 6.95-7.022-.244-24.334 8-28 2.005 20.57 4.372 41.239 3 62-.383 5.796-2.328 12.233-3 16.5"/><path fill="#e7ecf0" d="M684 356c12.394 10.275 26.669 21.691 37 34 5.055 6.023 12.254 15.668 15 23-3.128.481-5.983-.666-9-1-15.787-21.117-37.26-36.791-57-54l8-5c.424.352 5.574 2.647 6 3"/><path fill="#1e668e" d="M807 357c4.396 2.903 13.789 15.684 17 20.5 17.112 25.667 26.485 56.619 31 87l12-4.5c8.727 50.632-.97 96.544-21 143-6.922-1.657-.066-16.408-5-21 12.559-74.209 2.474-158.345-42-220-.274-.38-1.022-2.716-2-4 7.214-2.728 3.88-5.042 10-1"/><path fill="#094871" d="M270 369c-24.5 12.919-40.557 24.082-60 44-3.514 3.6-9.015 8.479-12 12h-1c18.396-21.433 43.465-45.496 69.5-57 1.523-.673 3.836-2.187 3.5 1"/><path fill="#e4eaef" d="M657.5 369c.945-.14 2.945-.262 3.5.5-2.603 3.797-6.061 9.567-7 14-.777 3.668 2.057 16.569-2.5 16.5-12.024-6.556-5.822-29.248 6-31"/><path fill="#7292a9" d="M760 426c-6.711-2.96-14.945-6.099-22-8-1.754-1.835-1.252-3.002-2-5-2.746-7.332-9.945-16.977-15-23l9-19c21.115 16.24 42.588 35.682 52.5 61l-33-15z"/><path fill="#dbe6ec" d="M613.5 384c40.876-6.38 21.071 48.611-13 38-22.46-6.995-3.85-35.37 13-38"/><path fill="#084363" d="m277 397 1.5 4-38.5 31c-37.354 20.147-60.644 60.984-76 99.5-13.857 34.755-15.56 72.134-11 109-8.251-12.641-14.49-27.682-18-42.5.581-.267 2.908-1.845 3-2 4.987 5.246 1.858-14.91 2-18.5 1.294-32.74 6.496-57.575 19-87.5 17.356-6.393 28.333-22.743 41-35 18.967-18.353 34.859-35.346 58-49.5L229 416c9.519-3.928 18.569-8.842 28-13 5.394.251 14.554-3.694 20-6"/><path fill="#021c34" d="M194 402c-16.608 17.147-37.976 49.238-48 71-19.151 41.579-21.602 80.245-11 125 3.51 14.818 9.749 29.859 18 42.5-4.56-36.866-2.857-74.245 11-109 15.356-38.516 38.646-79.353 76-99.5 13.068-7.048 28.594-12.519 43-16 3.528-.853 7.487-2.395 11-3l2 2c-41.701 5.514-86.637 34.317-106 72-15.306 29.787-18.781 67.852-16 101-3.197-22.872-3.579-46.941 2-69.5-17.677 29.581-25.905 73.619-23 108 .86 10.177 1.247 21.816 11 27l-6.5-2.5v6c-7.147-16.236-17.021-28.671-22.5-46.5-21.468-69.862-6.363-138.178 26-201.5l-2 11-19.5 56c13.598-27.838 31.584-53.197 53.5-75z"/><path fill="#0e668e" d="M200 455c-6.809-16.077-13.904 3.261-24 2 6.581-10.794 13.841-22.377 22-32 2.985-3.521 8.486-8.4 12-12 1.816.39 6.458-2.094 8-3-.854 4.466-7.527 8.951-2.5 12 4.615-1.677 8.991-4.139 13.5-6l29-10.5c-23.141 14.154-39.033 31.147-58 49.5"/><path fill="#14334e" d="M325 411c55.649 2.019 101.207 31.613 129 79 22.019 37.543 27.407 87.499 10 128 6.483-17.899 11.267-42.496 7-60.5.904 45.496-22.159 90.14-57 118.5l-1-4c22.288-19.229 39.078-44.952 48-73 14.244-26.54 4.536-78.318-9-104-29.882-56.694-83.092-84.932-147-80-2.891.223-6.229-.366-9 0l-2-2c10.508-1.81 20.361-2.386 31-2"/><path fill="#27435b" d="M727 412c3.017.334 5.872 1.481 9 1 .748 1.998.246 3.165 2 5-106.243-28.633-214.917 55.32-193 168.5 4.88 25.201 18.811 48.93 33.5 69.5-31.438-30.068-42.877-73.974-39.5-116.5.137-1.725.754-4.497-2-2.5 3.225-16.562 10.433-33.538 19-48 36.499-61.616 101.627-84.678 171-77"/><path fill="url(#c)" d="M738 418c7.055 1.901 15.289 5.04 22 8 53.799 23.726 77.981 71.206 77 129-.585 34.477-11.499 67.798-34 94-42.548 49.547-67.215 51.372-128.5 57-2.739.252-3.957-.971-3.5 3-87.398-6.636-151.019-84.591-134-172 2.754-1.997 2.137.775 2 2.5-3.377 42.526 8.062 86.432 39.5 116.5-14.689-20.57-28.62-44.299-33.5-69.5-21.917-113.18 86.757-197.133 193-168.5M552 556c-.426 22.309 4.029 36.525 14 56 41.183 80.439 164.731 99.223 216 24.5 1.343-1.958 2.566-2.88 0-4.5 19.49-24.165 27.717-56.045 26-87-1.248-22.502-8.571-39.024-21-57-69.205-100.091-232.723-51.125-235 68" style="fill:url(#c)"/>/&gt;<path fill="#96ccdb" d="m452 495-2.5 3c7.094 17.744 12.297 43.467 10.5 62.5-.078.832-1.993.397-2 .5 1.519-80.996-71.225-134.77-149-125-5.338-3.354-1.126-14.808-4-21 63.908-4.932 117.118 23.306 147 80"/><path fill="#6da8b6" d="M305 415c2.874 6.192-1.338 17.646 4 21-43.779 5.499-79.987 32.645-98 72.5-.802 1.774-6.853 25.601-9 13-.389-2.285 8.863-20.217 10-24-7.284-.394-14.861-7.457-22-10.5 19.363-37.683 64.299-66.486 106-72 2.771-.366 6.109.223 9 0"/><path fill="#001d36" d="M198 425c-8.159 9.623-15.419 21.206-22 32-6.698 10.987-12.023 21.09-17 33-12.504 29.925-17.706 54.76-19 87.5-.142 3.59 2.987 23.746-2 18.5 1.186-1.985-.453-33.432 0-39.5 2.227-29.803 15.172-66.62 30-92.5 8.003-13.968 18.538-26.811 29-39z"/><path fill="#6d8d9f" d="M787 488c-2.544-1.385-.778-1.711-3-.5-3.92 2.136-8.284 4.975-12 7.5-60.601-91.086-208.244-45.56-208 65-3.816-3.684-6.255-4.593-12-4 2.277-119.125 165.795-168.091 235-68"/><path fill="#3b6c79" d="m458 561-4 38.5 3.5 3.5c.342-1.883 3.374-3.766 3.5-4-8.922 28.048-25.712 53.771-48 73-8.793 7.586-17.752 13.543-28 19 1.117-2.18-2.013-6.595-2-7.5.049-3.441 21.98-14.215 26.5-17.5 5.658-4.112 31.941-28.532 28.5-35.5-.571-1.156-1.867 1.388-2.5.5-2.4-3.37-3.912-7.613-7.5-10 .091-.142.372-1.938 1-3 42.723-72.262-1.245-159.264-83-171-58.359-8.377-108.13 25.9-122 83-4.563.921-15.85-7.205-19-2.5-3.748 23.095-3.728 46.752 4 69-10.328 5.376-20.482 3.366-31 4.5-1.924.207-.903.793-1 2-1.103-5.581-2.464-8.615-3-15-2.781-33.148.694-71.213 16-101 7.139 3.043 14.716 10.106 22 10.5-1.137 3.783-10.389 21.715-10 24 2.147 12.601 8.198-11.226 9-13 18.013-39.855 54.221-67.001 98-72.5 77.775-9.77 150.519 44.004 149 125"/><path fill="#04162c" d="m346 447-1 2c-83.812-9.066-137.132 66.191-117 144 5.111 27.589 33.385 59.408 59 70 2.652 1.096 3.72.563 5 1 2.474 1.119 1.097 1.048 6 2 36.747 9.334 79.146-1.031 108-26 6.748-5.839 16.256-15.607 21-23l2 1c-.628 1.062-.909 2.858-1 3-15.613 24.214-54.012 44.286-82 49-34.411 5.796-62.855-.034-88-24-32.077-30.574-44.497-72.786-34-116 13.87-57.1 63.641-91.377 122-83"/><path fill="#0c213c" d="M772 495c34.369 51.658 22.187 120.03-26 158-6.446 3.621-10.2 5.766-16 8 50.273-28.592 71.635-89.236 49-145-25.745-63.425-95.256-84.198-155-53-68.916 35.987-76.74 134.249-16 181 33.398 25.706 76.446 32.014 116 19 1.813-.597 3.282-1.361 5-2l-4 4c-45.879 11.09-79.567 8.582-120-18-23.542-19.764-40.932-56.24-41-87-.244-110.56 147.399-156.086 208-65"/><path fill="#213d58" d="m429 618-2-1c27.774-43.283 19.721-98.547-16-135-18.601-18.982-39.386-30.121-66-33l1-2c81.755 11.736 125.723 98.738 83 171"/><path fill="#0a587f" d="M200 455c-12.667 12.257-23.644 28.607-41 35 4.977-11.91 10.302-22.013 17-33 10.096 1.261 17.191-18.077 24-2"/><path fill="#568ca0" d="M345 449c26.614 2.879 47.399 14.018 66 33 1.65 9.818 15.735 18.453 13 29-4.404-7.775-15.018-20.403-22-26l3 .5c-13.992-26.725-57.373-31.076-84.5-25.5-54.591 11.222-102.752 77.662-92.5 133-20.132-77.809 33.188-153.066 117-144"/><path fill="#638fa5" d="M779 516c4.891 19.651 11.547 40.682 5.5 61-1.708-77.054-84.166-149.021-159.5-110l-1-4c59.744-31.198 129.255-10.425 155 53"/><path fill="url(#d)" d="M779 516c22.635 55.764 1.273 116.408-49 145-.291.112-.708-.109-1 0-1.718.639-3.187 1.403-5 2 .863-3.03-3.961-1.246-4.5-1-2.736 1.248-14.207 5.864-17 6-3.444.168-16.654-.501-20-1-.953-.142-.047-2.86-1-3-16.784-2.465-31.66-2.924-47-12l1.5-3c34.81 11.044 72.704-.57 96-28 43.243-50.918 25.451-120.386-36-145-32.905-13.18-71.724-7.985-96 19 1.138-10.785 15.359-23.006 25-28 75.334-39.021 157.792 32.946 159.5 110 6.047-20.318-.609-41.349-5.5-61" style="fill:url(#d)"/>/&gt;<path fill="url(#e)" d="M402 485c-47.449-38.035-118.649-12.532-139 42.5-27.256 73.702 42.325 144.538 116 119.5-6.536 13.009-29.754 12.734-42.5 16-1.062.272-2.403 4.57-4 5-2.021.544-30.445-1.213-34.5-2-1.617-.411-4.291-1.416-6-2-.806-.365-4.186-3.222-5-1-25.615-10.592-53.889-42.411-59-70-10.252-55.338 37.909-121.778 92.5-133 27.127-5.576 70.508-1.225 84.5 25.5z" style="fill:url(#e)"/>/&gt;<path fill="#2f658c" d="M625 467c-9.641 4.994-23.862 17.215-25 28-35.208 39.136-34.265 102.551 7 137l14 14.5-13-2.5c-60.74-46.751-52.916-145.013 16-181z"/><path fill="#045276" d="M168 464c-14.828 25.88-27.773 62.697-30 92.5-.453 6.068 1.186 37.515 0 39.5-.092.155-2.419 1.733-3 2-10.602-44.755-8.151-83.421 11-125 8.012 1.973 14.032-9.62 22-9"/><path fill="#052f4d" d="M402 485c6.982 5.597 17.596 18.225 22 26 26.401 46.611 13.614 82.197-17 120-9.207 5.74-17.497 12.43-28 16-73.675 25.038-143.256-45.798-116-119.5 20.351-55.032 91.551-80.535 139-42.5m-96 4c-50.562 28.957-57.623 94.697-15 134 26.719 24.638 58.241 30.859 92 16 25.081-11.039 42.432-33.856 47-61 8.149-48.42-31.634-88.378-78-93-4.873-7.355-2.898-7.989-12.5-8-12.015-.014-23.522 6.286-33.5 12"/><path fill="#0f3050" d="m696 476-28.5 1-.5 3c-57.738.767-104.504 60.974-79 117 7.444 16.353 17.372 28.798 33 38 32.614 19.203 74.381 13.037 102-12 .605-.549 2.474-1.47 3-2l-.5 5 6.5-5c-23.296 27.43-61.19 39.044-96 28-7.658-2.43-22.652-11.701-29-17-41.265-34.449-42.208-97.864-7-137 24.276-26.985 63.095-32.18 96-19"/><path fill="#2a5978" d="M696 476c61.451 24.614 79.243 94.082 36 145l-6.5 5 .5-5c32.184-32.461 31.976-84.186 1-117-16.781-17.777-35.391-24.327-60-24l.5-3z"/><path fill="#023f64" d="M352 485c-8.165-.814-13.859-.754-22 0-8.274.766-15.853 3.154-24 4 9.978-5.714 21.485-12.014 33.5-12 9.602.011 7.627.645 12.5 8"/><path fill="#196b91" d="M667 480c24.609-.327 43.219 6.223 60 24l-16 12c-2.035-2.146-4.987-3.417-7-5-17.816-14.013-45.456-23.071-65-7-23.062-4.796-41.776 11.914-42 35l-6 21.5c-.697 9.741 1.4 23.347 5 32.5-1.873-1.384-5.239 2.848-8 4-25.504-56.026 21.262-116.233 79-117"/><path fill="#2b6086" d="M427 617c-4.744 7.393-14.252 17.161-21 23l-9 2.5c5.31-2.312 7.309-8.177 10-11.5 30.614-37.803 43.401-73.389 17-120 2.735-10.547-11.35-19.182-13-29 35.721 36.453 43.774 91.717 16 135"/><path fill="#0b5780" d="M352 485c46.366 4.622 86.149 44.58 78 93l-11-2c4.454-49.032-39.388-86.077-87-80l-2-11c8.141-.754 13.835-.814 22 0"/><path fill="#0480ae" d="m330 485 2 11c-10.287 1.313-17.12 3.497-26 9-6.947 4.304-12.046 8.613-16 16-2.268 4.237-4.377 9.208-5 14-.125.963.046 2.019 0 3-2.779 3.275-5.594 12.512-6 16.5-2.316 22.735 5.08 45.906 22 61.5l-10 7c-42.623-39.303-35.562-105.043 15-134 8.147-.846 15.726-3.234 24-4"/><path fill="#577a8b" d="M787 488c12.429 17.976 19.752 34.498 21 57-2.823 11.633-2.531 23.749-5 35.5-7.301 34.743-28.352 56.408-57 72.5 48.187-37.97 60.369-106.342 26-158 3.716-2.525 8.08-5.364 12-7.5 2.222-1.211.456-.885 3 .5"/><path fill="url(#f)" d="M556 489c-8.567 14.462-15.775 31.438-19 48-17.019 87.409 46.602 165.364 134 172 58.059 4.408 96.915-14.905 133-58 7.167-8.559 16.904-19.234 22-29 .279 10.454-5.063 24.192-11 33-.052-1.65 1.843-8.793-3-4.5-1.741 1.543-16.295 35.715-20 42-14.247 24.169-35.72 51.712-56.5 70.5-.565.511-13.497 12.909-11.5 7 19.582-17.572 38.608-38.003 51.5-61-126.178 117.021-304.678 160.098-458 65-10.807-6.703-47.097-37.369-54-39-1.292-.305-6.573-.529-7.5 1-12.604-13.678-26.415-26.373-37-42-7.04-10.393-13.792-21.999-17-34 1.402 1.984 6.086 5.983 8 8 44.913 59.02 124.563 53.094 185 23 31.09-15.481 56.925-39.664 69-73 17.407-40.501 12.019-90.457-10-128zm-28.5 218c-6.283.6-18.859 10.958-20 11-1.816.067-11.542-8.059-15-9-21.43-5.832-46.069 24.15-66.5 29.5 13.773 12.36 20.255 30.728 35.5 41.5 21.808 15.409 58.816 18.2 84 11 25.511-7.293 36.136-36.858 53.5-55.5-18.79-2.498-54.914-30.083-71.5-28.5m104 8c-14.651 2.75-14.82 29.703 2 32 29.557 4.037 20.532-36.229-2-32" style="fill:url(#f)"/>/&gt;<path fill="url(#g)" d="M419 576c-1.948 21.449-19.098 45.589-39 54-25.552 10.799-58.642 4.762-79-14-16.92-15.594-24.316-38.765-22-61.5.406-3.988 3.221-13.225 6-16.5-.569 12.118 5.484 22.639 18 26-20.765 11.271 13.813 24.022 4 1 50.665 5.673 57.782-76.413-1-60 8.88-5.503 15.713-7.687 26-9 47.612-6.077 91.454 30.968 87 80m-117.5 10c-8.113 2.466-5.026 18.953 8 15 8.06-2.446 5.591-19.131-8-15" style="fill:url(#g)"/>/&gt;<path fill="#6da8b6" d="M461 599c-.126.234-3.158 2.117-3.5 4l-3.5-3.5 4-38.5c.007-.103 1.922.332 2-.5 1.797-19.033-3.406-44.756-10.5-62.5l2.5-3c13.536 25.682 23.244 77.46 9 104"/><path fill="url(#h)" d="M704 511c-9.913 24.143-11.645 50.978-4 76-7.873 5.084-2.009 14.638 6 14 1.369 2.888 2.855 3.625 1 7-.405.736-12.001 9.183-13.5 10-21.386 11.652-46.989 11.706-65.5-5-12.25-11.056-23.265-34.791-17-51 41.358 18.397 70.626-49.136 28-58 19.544-16.071 47.184-7.013 65 7" style="fill:url(#h)"/>/&gt;<path fill="#b9e2eb" d="M307 565c-.507-.057-3.142-.77-4-1-12.516-3.361-18.569-13.882-18-26 .046-.981-.125-2.037 0-3l4-1.5c-.705 4.659.465 14.252 7 9-2.081-11.499 20.118-37.006-6-21.5 3.954-7.387 9.053-11.696 16-16 58.782-16.413 51.665 65.673 1 60"/><path fill="#bfe5ee" d="M639 504c42.626 8.864 13.358 76.397-28 58-9.42-4.19-14.098-12.911-14-23 .224-23.086 18.938-39.796 42-35m-26.5 11c-8.791 3.568-13.823 15.587-11.5 24.5.589 2.258 5.483 7.819 7 4-4.182-5.213 12.532-27.155 4.5-28.5"/><path fill="#3191b4" d="M726 621c-.526.53-2.395 1.451-3 2l-10-8c.081-.26.006-.706 0-1 26.522-24.398 21.561-73.154-2-98l16-12c30.976 32.814 31.184 84.539-1 117"/><path fill="#2fa4c6" d="M891 519c1.17-2.541-1.217-10.364-1-11.5.095-.498 1.794-1.193 2-2.5 3.435 4.644-.409 10.249-1 14"/><path fill="url(#i)" d="M711 516c23.561 24.846 28.522 73.602 2 98-.028-1.403-3.836-7.354-6-6 1.855-3.375.369-4.112-1-7 13.709-1.091 7.651-22.815-6-14-7.645-25.022-5.913-51.857 4-76 2.013 1.583 4.965 2.854 7 5m-9 50c-6.234 3.449-.715 13.181 5.5 12 4.546-.864 8.32-10.596 1.5-13-1.787-.63-5.129-.035-7 1" style="fill:url(#i)"/>/&gt;<path fill="#fdfefe" d="M285 535c.623-4.792 2.732-9.763 5-14 26.118-15.506 3.919 10.001 6 21.5-6.535 5.252-7.705-4.341-7-9zm327.5-20c8.032 1.345-8.682 23.287-4.5 28.5-1.517 3.819-6.411-1.742-7-4-2.323-8.913 2.709-20.932 11.5-24.5"/><path fill="#214b55" d="M224 530c-10.497 43.214 1.923 85.426 34 116-6.313 5.643-16.08 9.701-17 19.5 34.112 28.137 76.038 35.359 118 22-2.463-.7-3.958-9.063-5-10-.493-.443-8.53.176-8-7.5 27.988-4.714 66.387-24.786 82-49 3.588 2.387 5.1 6.63 7.5 10 .633.888 1.929-1.656 2.5-.5 3.441 6.968-22.842 31.388-28.5 35.5-4.52 3.285-26.451 14.059-26.5 17.5-.013.905 3.117 5.32 2 7.5-58.526 31.163-128.472 26.038-175-23-1.914-2.017-6.598-6.016-8-8-5.278-7.47-3.276-10.599-6-16.5-6.427-13.919-15.57-27.043-18-42.5 10.518-1.134 20.672.876 31-4.5-7.728-22.248-7.748-45.905-4-69 3.15-4.705 14.437 3.421 19 2.5"/><path fill="#025680" d="M597 539c-.098 10.089 4.58 18.81 14 23-6.265 16.209 4.75 39.944 17 51-3.909-1.459-8.872 6.054-8 9-9.511-6.786-19.693-18.049-24-29-3.6-9.153-5.697-22.759-5-32.5z"/><path fill="#2e485a" d="M782 632c-18.412 22.828-30.458 26.584-57 33l4-4c.292-.109.709.112 1 0 5.8-2.234 9.554-4.379 16-8 28.648-16.092 49.699-37.757 57-72.5 2.469-11.751 2.177-23.867 5-35.5 1.717 30.955-6.51 62.835-26 87"/><path fill="#061f38" d="M829 616c-.596 1.43-2.18 4.428-3 6-5.096 9.766-14.833 20.441-22 29l-1-2c22.501-26.202 33.415-59.523 34-94 3.57 18.24-.7 43.495-8 61"/><path fill="#577a8b" d="M564 560c.068 30.76 17.458 67.236 41 87-13.524-8.891-26.998-22.89-39-35-9.971-19.475-14.426-33.691-14-56 5.745-.593 8.184.316 12 4"/><path fill="#355668" d="M464 618c-12.075 33.336-37.91 57.519-69 73 5.379-5.825 12.692-9.865 19-15 34.841-28.36 57.904-73.004 57-118.5 4.267 18.004-.517 42.601-7 60.5"/><path fill="#228aca" d="M307 565c9.813 23.022-24.765 10.271-4-1 .858.23 3.493.943 4 1"/><path fill="#6fc4ef" d="M709 565c1.543 9.692-6.663 10.506-7 1 1.871-1.035 5.213-1.63 7-1"/><path fill="#3d98d1" d="M702 566c.337 9.506 8.543 8.692 7-1 6.82 2.404 3.046 12.136-1.5 13-6.215 1.181-11.734-8.551-5.5-12"/><path fill="#67deeb" d="M883 577c-4.145 16.363-10.826 32.123-15 48.5-2.665 1.593-2-1.48-2-3 0-3.521 3.722-18.44 5-22.5 1.678-5.331 6.038-10.97 8-15.5.427-.987.719-12.376 4-7.5"/><path fill="#0480ae" d="M430 578c-4.568 27.144-21.919 49.961-47 61l-3-9c19.902-8.411 37.052-32.551 39-54z"/><path fill="#127da5" d="M846 603c-5.39 12.5-11.498 25.923-19.5 37 .848-8.548 4.366-16.734 6.5-25 2.789-10.803 6.141-22.013 8-33 4.934 4.592-1.922 19.343 5 21"/><path fill="#389fd8" d="M706 601c-8.009.638-13.873-8.916-6-14 13.651-8.815 19.709 12.909 6 14"/><path fill="#33a0dc" d="M301.5 586c13.591-4.131 16.06 12.554 8 15-13.026 3.953-16.113-12.534-8-15"/><path fill="#038fbd" d="M596 593c4.307 10.951 14.489 22.214 24 29 1.54 1.098 3.488 3.158 5 4l-4 9c-15.628-9.202-25.556-21.647-33-38 2.761-1.152 6.127-5.384 8-4"/><path fill="#031631" d="M178 601c2.43 15.457 11.573 28.581 18 42.5 2.724 5.901.722 9.03 6 16.5 3.208 12.001 9.96 23.607 17 34 99.956 174.576 347.622 223.181 501 88 33.108-25.179 75.147-78 92-116l4-2c-19.712 32.439-36.982 64.328-63 92.5-135.687 146.919-364.701 142.92-497-6-29.917-33.675-70.329-103.635-79-147.5.097-1.207-.924-1.793 1-2"/><path fill="#0076ae" d="M713 614c.006.294.081.74 0 1-.494 1.582-16.912 12.844-19.5 14-20.775 9.278-48.563 8.106-68.5-3-1.512-.842-3.46-2.902-5-4-.872-2.946 4.091-10.459 8-9 18.511 16.706 44.114 16.652 65.5 5 1.499-.817 13.095-9.264 13.5-10 2.164-1.354 5.972 4.597 6 6"/><path fill="#3a5c6c" d="M605 647c40.433 26.582 74.121 29.09 120 18 26.542-6.416 38.588-10.172 57-33 2.566 1.62 1.343 2.542 0 4.5-51.269 74.723-174.817 55.939-216-24.5 12.002 12.11 25.476 26.109 39 35"/><path fill="#03bbe2" d="M301 616c20.358 18.762 53.448 24.799 79 14l3 9c-33.759 14.859-65.281 8.638-92-16z"/><path fill="#04bde4" d="M723 623c-27.619 25.037-69.386 31.203-102 12l4-9c19.937 11.106 47.725 12.278 68.5 3 2.588-1.156 19.006-12.418 19.5-14z"/><path fill="#b2eef5" d="M407 631c-2.691 3.323-4.69 9.188-10 11.5l9-2.5c-28.854 24.969-71.253 35.334-108 26 4.055.787 32.479 2.544 34.5 2 1.597-.43 2.938-4.728 4-5 12.746-3.266 35.964-2.991 42.5-16 10.503-3.57 18.793-10.26 28-16"/><path fill="#bef1f9" d="m636 649-1.5 3c15.34 9.076 30.216 9.535 47 12 .953.14.047 2.858 1 3 3.346.499 16.556 1.168 20 1 2.793-.136 14.264-4.752 17-6 .539-.246 5.363-2.03 4.5 1-39.554 13.014-82.602 6.706-116-19l13 2.5-14-14.5c6.348 5.299 21.342 14.57 29 17"/><path fill="#163743" d="M346 670c-.53 7.676 7.507 7.057 8 7.5 1.042.937 2.537 9.3 5 10-41.962 13.359-83.888 6.137-118-22 .92-9.799 10.687-13.857 17-19.5 25.145 23.966 53.589 29.796 88 24"/><path fill="#2e4a60" d="M804 651c-36.085 43.095-74.941 62.408-133 58-.457-3.971.761-2.748 3.5-3 61.285-5.628 85.952-7.453 128.5-57z"/><path fill="#bbf0f7" d="M815 655c.14 4.458-1.275 7.11-3 11-16.853 38-58.892 90.821-92 116-12.096 9.2-33.1 22.74-46.5 30-1.871 1.014-18.065 10.689-17.5 5 24.385-12.807 47.495-28.599 68-47-1.997 5.909 10.935-6.489 11.5-7 20.78-18.788 42.253-46.331 56.5-70.5 3.705-6.285 18.259-40.457 20-42 4.843-4.293 2.948 2.85 3 4.5"/><path fill="#b2eef5" d="M292 664c-1.28-.437-2.348.096-5-1 .814-2.222 4.194.635 5 1m6 2c-4.903-.952-3.526-.881-6-2 1.709.584 4.383 1.589 6 2"/><path fill="#061c2f" d="M385 691c10.248-5.457 19.207-11.414 28-19l1 4c-6.308 5.135-13.621 9.175-19 15-60.437 30.094-140.087 36.02-185-23 46.528 49.038 116.474 54.163 175 23"/><path fill="#8fb6c7" d="M850 678c-.228.418-.563 2.67-1 3.5h-2c-.37-.839 1.87-4.018 2-4.5z"/><path fill="#79d0db" d="M256 736c106.645 115.733 255.096 157.102 400 81-.565 5.689 15.629-3.986 17.5-5 13.4-7.26 34.404-20.8 46.5-30-153.378 135.181-401.044 86.576-501-88 10.585 15.627 24.396 28.322 37 42"/><path fill="#0b1f38" d="M527.5 707c16.586-1.583 52.71 26.002 71.5 28.5-17.364 18.642-27.989 48.207-53.5 55.5-25.184 7.2-62.192 4.409-84-11-15.245-10.772-21.727-29.14-35.5-41.5 20.431-5.35 45.07-35.332 66.5-29.5 3.458.941 13.184 9.067 15 9 1.141-.042 13.717-10.4 20-11M435 738c-.635.529-3.73-.209-3 3.5 8.754 9.977 14.352 20.023 24 29.5 25.653 25.197 87.705 30.018 112 2 7.772-8.963 15.246-19.876 21.5-30-33.073 22.812-110.009 31.446-143 8-.33-.235-3.961-3.045-1-3l13.5 7c44.206 11.509 95.363 9.846 134-16.5.224-.948-15.049-8.458-17-9.5-7.811-4.172-34.335-18.162-41.5-19-13.933-1.63-25.268 10.999-27 11-2.793.002-12.153-12.42-27-10-4.526.738-40.785 23.075-45.5 27"/><path fill="url(#j)" d="M724 770c-20.505 18.401-43.615 34.193-68 47-144.904 76.102-293.355 34.733-400-81 .927-1.529 6.208-1.305 7.5-1 6.903 1.631 43.193 32.297 54 39 153.322 95.098 331.822 52.021 458-65-12.892 22.997-31.918 43.428-51.5 61" style="fill:url(#j)"/>/&gt;<path fill="#edf2f4" d="m576 729-6.5-1c1.167 1.613 8.684 5.04 3 4-15.574-2.849-35.588-19.434-52-15-2.834.766-12.094 7.972-13 8-1.159.036-11.735-7.849-15-8-2.609-.121-20.615 6.316-24 8-2.445 1.216-23.764 15.703-24.5 17l-9-4c4.715-3.925 40.974-26.262 45.5-27 14.847-2.42 24.207 10.002 27 10 1.732-.001 13.067-12.63 27-11 7.165.838 33.689 14.828 41.5 19m-18.5-7c-.503 2.145 7.191 5.034 7.5 3.5-2.51-1.11-4.842-2.743-7.5-3.5"/><path fill="#032037" d="M631.5 715c22.532-4.229 31.557 36.037 2 32-16.82-2.297-16.651-29.25-2-32"/><path fill="url(#k)" d="M576 729c1.951 1.042 17.224 8.552 17 9.5-38.637 26.346-89.794 28.009-134 16.5-2.746-4.464-10.886-8.291-15.5-8 .46-1.338.29-4.631.5-5 .736-1.297 22.055-15.784 24.5-17 3.385-1.684 21.391-8.121 24-8 3.265.151 13.841 8.036 15 8 .906-.028 10.166-7.234 13-8 16.412-4.434 36.426 12.151 52 15 5.684 1.04-1.833-2.387-3-4z" style="fill:url(#k)"/>/&gt;<path fill="#a8b3bd" d="M557.5 722c2.658.757 4.99 2.39 7.5 3.5-.309 1.534-8.003-1.355-7.5-3.5"/><path fill="#718492" d="m435 738 9 4c-.21.369-.04 3.662-.5 5 4.614-.291 12.754 3.536 15.5 8l-13.5-7c-2.961-.045.67 2.765 1 3 32.991 23.446 109.927 14.812 143-8-6.254 10.124-13.728 21.037-21.5 30-24.282 16.674-60.638 20.614-88.5 11-8.698-3.001-15.505-8.969-23.5-13-9.648-9.477-15.246-19.523-24-29.5-.73-3.709 2.365-2.971 3-3.5"/><path fill="#cbdedf" d="M568 773c-24.295 28.018-86.347 23.197-112-2 7.995 4.031 14.802 9.999 23.5 13 27.862 9.614 64.218 5.674 88.5-11"/></svg>