<svg xmlns="http://www.w3.org/2000/svg" width="1024" height="1024"><defs><linearGradient id="a" x1="780.179" x2="232.112" y1="445.006" y2="657.999" gradientUnits="userSpaceOnUse"><stop offset="0%" style="stop-color:#ddeaf0"/><stop offset="31.293%" style="stop-color:#a9c8d3"/><stop offset="61.905%" style="stop-color:#97bcc9"/><stop offset="90.136%" style="stop-color:#6e9bab"/><stop offset="100%" style="stop-color:#4e7584"/></linearGradient></defs><defs><linearGradient id="b" x1="505.932" x2="501.822" y1="455.407" y2="530.294" gradientUnits="userSpaceOnUse"><stop offset="0%" style="stop-color:#01243e"/><stop offset="100%" style="stop-color:#114e6b"/></linearGradient></defs><path fill="#093952" d="M186 294h-2c-2.238-15.675-6.607-32.41-10-48-1.34-6.155-7.854-45.627-10.5-47-.536-.278-2.457.13-3.5 0-.78-.097-2.4-.176-3 0-6.582 1.929-3.064 10.021-3 16l-3 4c-.258-3.11-.133-17.896-1-19.5-.747-1.383-20.898-6.075-28.5-12.5-64.628-54.625 48.277-135.18 80.5-61.5 14.034 32.089-4.434 63.366-36 74 8.919 30.199 11.091 64.597 20 94.5m-46-191c-33.547 10.401-42.664 51.498-19 77 12.942 13.947 27.814 18.005 47 14 8.375-1.748 19.726-9.7 25-16.5 2.615-3.372 10.708-15.458 6-18.5 16.477-34.475-24.191-66.792-59-56"/><path fill="#083952" d="M867 266h-3c.734-9.693 5.859-60.25 4-65.5-.536-1.515-2.137-1.22-3-1.5-.521-.169-4.5-.169-5 0-4.498 1.522-3.081 4.265-4 7l-2-2-.5-6c-64.805-19.053-41.629-114.236 26-100 15.362 3.234 33.293 21.124 36.5 36.5 7.075 33.918-13.489 59.592-46 66-.647 21.85-1.833 43.69-3 65.5m-18-162c-30.926 10.326-39.106 48.862-19 74 18.747 23.439 50.986 23.962 71 2 6.567-7.206 16.04-21.582 11-31 5.963-34.887-32.016-55.345-63-45"/><path fill="#76b7c3" d="M199 159c-4.869 10.188-18.102 17.484-29 18-14.711.697-26.747-6.069-36-17-.889-3.327-5.932-8.875-7-12.5-5.559-18.862.804-30.884 13-44.5 34.809-10.792 75.477 21.525 59 56m-55-21c4.223 21.004 31.334 29.048 45 13 32.456-38.113-55.93-67.358-45-13"/><path fill="#75b6c3" d="M912 149c-1.356 7.932-7.236 18.574-14 23-17.121 11.204-40.583 3.741-53-11-1.528-4.681-6.766-10.176-8-15.5-3.867-16.682 1.364-29.186 12-41.5 30.984-10.345 68.963 10.113 63 45m-56-7c6.182 18.627 31.962 24.026 44 8 31.401-41.804-62.575-63.972-44-8"/><path fill="#487d8c" d="M140 103c-12.196 13.616-18.559 25.638-13 44.5 1.068 3.625 6.111 9.173 7 12.5 2.364 8.849-7.198 15.27-13 20-23.664-25.502-14.547-66.599 19-77"/><path fill="#477b8a" d="M849 104c-10.636 12.314-15.867 24.818-12 41.5 1.234 5.324 6.472 10.819 8 15.5.856 2.621 2.162 2.832 1 5.5L830 178c-20.106-25.138-11.926-63.674 19-74"/><path fill="#fcfefe" d="M189 151c17.962-38.669-39.477-57.555-45-13-10.93-54.358 77.456-25.113 45 13"/><path fill="#fbfdfe" d="M900 150c16.492-42.322-46.006-54.497-44-8-18.575-55.972 75.401-33.804 44 8"/><path fill="#d3eff4" d="M189 151c-13.666 16.048-40.777 8.004-45-13 5.523-44.555 62.962-25.669 45 13m711-1c-12.038 16.026-37.818 10.627-44-8-2.006-46.497 60.492-34.322 44 8"/><path fill="#477b8a" d="m901 180-3-8c6.764-4.426 12.644-15.068 14-23 5.04 9.418-4.433 23.794-11 31"/><path fill="#487d8c" d="m168 194 2-17c10.898-.516 24.131-7.812 29-18 4.708 3.042-3.385 15.128-6 18.5-5.274 6.8-16.625 14.752-25 16.5"/><path fill="#5e92a2" d="m170 177-2 17c-19.186 4.005-34.058-.053-47-14 5.802-4.73 15.364-11.151 13-20 9.253 10.931 21.289 17.697 36 17"/><path fill="#5e91a2" d="m898 172 3 8c-20.014 21.962-52.253 21.439-71-2l16-11.5c1.162-2.668-.144-2.879-1-5.5 12.417 14.741 35.879 22.204 53 11"/><path fill="#05354f" d="m786 286-4 3c-1.573-.086-3.448-.154-5 0-.571.057-4.319-1.178-4 1.5l34 45.5c-.174 1.153.964.939 1 1 .276.465 2.462 6.176 4 9 12.626 23.19 22.769 48.764 29 74.5 1.876 1.568 10.909-.329 14-.5 6.9-.382 14.131-1.171 21-2v2c-6.948.564-13.062.972-20 2-2.391.354-13.048-.162-14 2.5 4.575 21.567 8.026 43.437 9 65.5 1.307 29.594-.524 59.298-5 88.5l1.5 1.5c.76-1.457 3.659-2.472 5-3 2.137-.841 6.052-2.249 9.5-4l-1 1.5c1.751 1.816 12.599-5.004 15-6.5l1 3c-10.164 6.402-20.838 9.519-32 13.5-35.117 219.335-257.314 425.34-480.5 289.5-99.492-60.554-167.738-176.427-187.5-290-.5-2.873-.581-6.078-1-9-4.016-28.034-6.017-55.607-5-84 .831-23.22 4.281-45.834 9-68.5-2.839.995-7.187-1.03-10-1.5-.952-.159-2.04.139-3 0l1-2c2.262.168 11.541 2.804 13 1.5 6.192-26.531 17.605-50.995 29-75.5.387-.833 4.206-5.074 5-6.5-.695-2.475-8.713-1.293-11-1.5l4-2c14.259-1.046 13.141-9.633 21-19.5 6.642-8.339 13.583-16.59 20-25-.916-1.915-4.042-1.892-5-2.5-.179-.114-.482-2.51-3-3 3.24-.478 11.892 1.151 12.5 1 2.025-.503 24.395-25.946 29-30 126.346-111.246 309.744-119.635 442-13 7.865 6.342 41.028 42.208 44 43 1.608.428 12.432-.958 17.5 0m-540 16C28.268 571.771 351.505 1076.39 668.5 862c32.606-22.052 109.018-95.995 119.5-133 79.612-140.731 87.534-319.495-26-444.5C618.348 126.335 379.189 136.978 246 302"/><path fill="#c7dde5" d="M788 729c.425-1.501 1.894-8.032-2-4.5-13.073 11.857-25.733 49.362-46 58.5 90.894-132.978 126.589-342.646 21-477.5-129.04-164.806-377.641-161.672-510-3.5h-5c133.189-165.022 372.348-175.665 516-17.5C875.534 409.505 867.612 588.269 788 729"/><path fill="#fefefe" d="M740 783c-.114.051-.79 1.859-1.5 2 1.72-8.259 9.23-17.316 13.5-25.5 74.716-143.206 81.659-299.1-22-430C649.987 228.46 499.534 169.069 374.5 216c-79.166 29.715-134.155 99.815-173 172-.641-.407-.586-6.185-.5-6.5 4.816-17.697 37.269-64.286 50-79.5 132.359-158.172 380.96-161.306 510 3.5 105.589 134.854 69.894 344.522-21 477.5"/><path fill="#086694" d="M157 199c-.362 12.779 5.965 24.93 8 37.5 1.836 11.342.6 24.748 3 36 2.205 10.339 10.027 22.439 12 33.5-1.501 1.092-19.037 12.138-20 10.5 3.745-12.163-1.874-22.936-3-35-1.976-21.161-2.772-45.201-3-66.5-.064-5.979-3.582-14.071 3-16"/><path fill="#1a89c1" d="M160 199c5.237 14.812 8.005 29.735 11 45 .588 2.997.049 12.417 1 17.5 2.645 14.138 9.794 27.483 13 41.5-1.092 1.66-3.495 1.905-5 3-1.973-11.061-9.795-23.161-12-33.5-2.4-11.252-1.164-24.658-3-36-2.035-12.57-8.362-24.721-8-37.5.6-.176 2.22-.097 3 0"/><path fill="#e4f4fb" d="m174 246-3-2c-2.995-15.265-5.763-30.188-11-45 1.043.13 2.964-.278 3.5 0 2.646 1.373 9.16 40.845 10.5 47"/><path fill="#096d9f" d="M860 199c-2.473 16.572-2.611 33.331-4 50-.57 6.844-2.324 13.186-3 20-3.026.892-6.671-1.537-10-3 4.101-18.625 7.104-42.449 13-60 .919-2.735-.498-5.478 4-7"/><path fill="#1382ba" d="M865 199c-2.283 22.976-1.512 44.917-5 68-5.516-4.227 6.425-18.854-4-18 1.389-16.669 1.527-33.428 4-50 .5-.169 4.479-.169 5 0"/><path fill="#e8f7fc" d="M864 266c-.778 10.285-1.008 20.727-2 31-4.002-6.268-2.441-16.938-3-24 .316-2.01.701-4.018 1-6 3.488-23.083 2.717-45.024 5-68 .863.28 2.464-.015 3 1.5 1.859 5.25-3.266 55.807-4 65.5"/><path fill="url(#a)" d="M740 783c20.267-9.138 32.927-46.643 46-58.5 3.894-3.532 2.425 2.999 2 4.5-10.482 37.005-86.894 110.948-119.5 133C351.505 1076.39 28.268 571.771 246 302h5c-12.731 15.214-45.184 61.803-50 79.5-.086.315-.141 6.093.5 6.5 38.845-72.185 93.834-142.285 173-172 125.034-46.931 275.487 12.46 355.5 113.5 103.659 130.9 96.716 286.794 22 430-4.27 8.184-11.78 17.241-13.5 25.5.71-.141 1.386-1.949 1.5-2M346 304c-7.159 5.407-14.104 13.232-20 20l-1.5-3c-6.667 6.351-11.935 13.738-17.5 21-94.9 123.827-44.28 300.505 90 371 107.656 56.518 234.088 29.279 308-67 46.369-60.401 64.192-148.39 46-222.5-5.15-20.981-24.713-68.349-39-84-.472-.517-7.702-4.913-9-4.5-86.005-113.551-253.655-131.405-357-31m322 412c-4.912 2.821-10.309 2.624-15.5 5-60.771 27.817-94.129 49.277-167 45-49.306-2.894-92.953-31.824-139-46-1.023-4.78 15.488-10.581 14.5-13-20.547-4.464-31.972 13.216-21 30.5.82-3.416.21-12.392 4-14 27.298 76.289 119.627 155.038 204.5 142.5 60.23-8.898 117.254-91.508 122.5-149.5l12 14c.293-17.391-8.891-32.277-28-29l15 13c-.298.826-1.94 1.39-2 1.5" style="fill:url(#a)"/>/&gt;<path fill="#031436" d="M856 206c-5.896 17.551-8.899 41.375-13 60-1.091 4.954-9.794 34.555-9 36.5 4.9 2.069 9.366 4.984 14 7.5 4.203 2.282 7.879 5.462 12.5 7 .325-6.715.855-13.322 1.5-20 .992-10.273 1.222-20.715 2-31h3c-.952 17.794-3.344 35.651-4 53.5 45.404 43.86 55.497 125.451 48 186-3.431 27.712-9.261 49.917-34 65.5l-1-3c28.183-17.558 28.729-36.974 32-67 3.043-27.933 5.375-56.763-2.5-84-1.161-.06-2.355.091-3.5 0-5.847-.466-19.252 2.452-26 3v-2c3.961-.478 28.222-2.546 29-4.5-6.092-22.336-12.276-50.51-26-69.5-1.584-2.191-2.368-6.256-5.5-8-15.869-.652-31.687.587-47.5 1-5.98.156-12.018-.114-18 0-.036-.061-1.174.153-1-1 3.954-1.236 7.988-.686 12-1 1.835-.143 4.745-.988 5-1 15.931-.776 32.082.305 48-1.5-19.367-20.169-62.229-41.975-90-43.5l4-3c15.02 2.839 30.642 8.773 44.5 15l2.5-1.5 21-95.5z"/><path fill="#041439" d="M154 215c.228 21.299 1.024 45.339 3 66.5 1.126 12.064 6.745 22.837 3 35 .963 1.638 18.499-9.408 20-10.5 1.505-1.095 3.908-1.34 5-3 2.169-3.296-.572-6.006-1-9h2c.534 1.792 1.588 3.16 1 5.5 2.239 3.708 25.274-8.011 30.5-9.5 7.584-2.161 15.693-3.849 23.5-5 2.518.49 2.821 2.886 3 3-33.45 4.934-71.443 19.749-94.5 45 15.537.112 30.958.994 46.5 1 1.657.001 3.343.027 5 0 .787-.013 4.266 1.201 7 1l-4 2c-2.783-.252-6.686-.884-9-1-15.742-.792-31.725.587-47.5 0-2.56.845-4.35 7.313-5.5 9-13.872 20.342-19.368 45.165-26 68.5.852 2.366 44.336 5.075 50 5.5.655.049 1.345-.049 2 0l-1 2c-9.622-1.394-39.995-5.329-48-4-1.22.203-3.097-.511-4 .5-5.282 29.183-5.158 59.12-2 88.5 3.475 32.322 11.767 57.035 45 70 4.444 1.734 10.86 1.96 14.5 2 .551.006.782 5.208 3.5-3 .419 2.922.5 6.127 1 9-52.148-10.604-64.843-43.656-68-92.5-3.734-57.76 6.388-129.867 49-172-2.474-33.475-4.225-67.064-7-100.5z"/><path fill="#335d72" d="M703 335c43.65 57.63 59.252 127.641 45 199l-4 2.5c.593-5.25 3.674-13.18 4-18 .287-4.24-.743-1.587-2-.5 28.087-193.202-176.777-341.767-350-246-12.91 7.138-22.363 15.806-34 24-2.411 1.698-5.614 3.231-8 5-1.678 1.244-6.406 1.796-8 3 103.345-100.405 270.995-82.551 357 31"/><path fill="#8dcdd6" d="M746 518c-5.068 34.863-18.303 68.796-38 98l-11-10c4.406-7.293 12.544-22.671 15-30.5.562-1.792 1.818-4.802-1-5.5 2.012-4.546 4.34-9.334 6-14 6.448-18.126 10.324-36.794 12-56 .159-1.817.948-2.227 1-3 .176-2.631-.081-5.357 0-8 4.086-133.289-114.223-242.659-247-226-7.462-3.766-23.198.818-31.5 3-15.266 4.013-30.051 10.789-44 18-1.771-5.095-5.438-11.865-11.5-12 173.223-95.767 378.087 52.798 350 246M504.5 249l-6 2c156.77-3.367 273.225 147.31 235 299 54.954-147.83-72.93-312.259-229-301"/><path fill="#31aae5" d="M174 246c3.393 15.59 7.762 32.325 10 48 .428 2.994 3.169 5.704 1 9-3.206-14.017-10.355-27.362-13-41.5-.951-5.083-.412-14.503-1-17.5z"/><path fill="#fdfdfe" d="M504.5 249c156.07-11.259 283.954 153.17 229 301 38.225-151.69-78.23-302.367-235-299z"/><path fill="#1d9ad4" d="M860 267c-.299 1.982-.684 3.99-1 6-.497 3.16-1.692 6.146-1 9.5l-5-2.5c.355-3.589-.356-7.411 0-11 .676-6.814 2.43-13.156 3-20 10.425-.854-1.516 13.773 4 18"/><path fill="#5eafbd" d="M483 263c-245.962 30.859-256.535 396.956-6 435l-2 8c-13.05-1.985-27.543-5.669-40-10-150.436-52.301-198.955-238.763-94-359 4.607-5.278 30.583-27.401 31-29.5.202-1.017-6.536-13.258-10-11.5 11.637-8.194 21.09-16.862 34-24 6.062.135 9.729 6.905 11.5 12 13.949-7.211 28.734-13.987 44-18 8.302-2.182 24.038-6.766 31.5-3"/><path fill="#114a69" d="M730 489h-1c-.062-1.312.414-2.986-.5-4-1.045-.586-12.046.859-12.5 1.5-.986 1.393-1.955 28.451-3 34-2.078 11.029-5.98 23.023-10 33.5-5.043 13.145-13.819 30.053-22.5 41-.056.071-1.132-1.459-1.5-1 2.399-6.559 17.665-27.067 18-32.5.046-.742-9.956-7.687-10-11-.013-.966 6.241-15.027 7-18 6.344-24.858 11.775-50.013 10-76-5.982 5.994-17.735-4.544-26-2.5.849-38.163-10.394-76.485-41-101-3.036-4.414-6.068-8.473-11-11-13.657-17.7-35.815-27.737-58-26l3.5-4C464.146 266.484 345.414 343.113 320 451.5c-.894 3.811-2.302 23.012-3 24-.855 1.211-10.292-.242-11 2-1.166 3.694 3.704 38.775 5 45 20.175 96.897 116.553 168.239 215 160.5 1.377 10.129 10.53 4.892 3 15.5l4 1.5c-19.732 1.882-36.545.954-56-2-250.535-38.044-239.962-404.141 6-435 132.777-16.659 251.086 92.711 247 226M527.5 279l56 20c42.959 20.313 82.023 51.235 103.5 94.5.985 1.314 4.963-2.711 5-3 .311-2.403-20.711-32.09-24-36-29.508-35.081-80.193-66.866-124.5-74.5-4.541-.782-11.629.701-16-1"/><path fill="#0c8ec7" d="M853 269c-.356 3.589.355 7.411 0 11-1.023 10.33-.621 20.06-5 30-4.634-2.516-9.1-5.431-14-7.5-.794-1.945 7.909-31.546 9-36.5 3.329 1.463 6.974 3.892 10 3"/><path fill="#2bb4f2" d="M862 297c-.645 6.678-1.175 13.285-1.5 20-4.621-1.538-8.297-4.718-12.5-7 4.379-9.94 3.977-19.67 5-30l5 2.5c-.692-3.354.503-6.34 1-9.5.559 7.062-1.002 17.732 3 24"/><path fill="#01264a" d="M527.5 279c4.371 1.701 11.459.218 16 1 44.307 7.634 94.992 39.419 124.5 74.5 3.289 3.91 24.311 33.597 24 36-.037.289-4.015 4.314-5 3-21.477-43.265-60.541-74.187-103.5-94.5Z"/><path fill="#2aabed" d="M244 288c-3.057 3.602-10.423 4.523-15 6-4.837 1.561-16.348 2.917-19 7.5-3.822 6.603-3.87 25.377-14 32.5-15.542-.006-30.963-.888-46.5-1 23.057-25.251 61.05-40.066 94.5-45"/><path fill="#035179" d="M208 335c-2.734.201-6.213-1.013-7-1 8.201-13.898 25.26-23.24 28-40 4.577-1.477 11.943-2.398 15-6 .958.608 4.084.585 5 2.5-6.417 8.41-13.358 16.661-20 25-7.859 9.867-6.741 18.454-21 19.5"/><path fill="#065882" d="M777 289c4.357 3.634 11.549 4.407 17 6l25 40c-4.012.314-8.046-.236-12 1l-34-45.5c-.319-2.678 3.429-1.443 4-1.5"/><path fill="#2daef0" d="M782 289c27.771 1.525 70.633 23.331 90 43.5-15.918 1.805-32.069.724-48 1.5-2.754-6.019-7.533-11.337-10-17.5-1.666-4.162-1.481-13.748-3-16-1.617-2.397-13.773-4.557-17-5.5-5.451-1.593-12.643-2.366-17-6 1.552-.154 3.427-.086 5 0"/><path fill="#0a6798" d="M229 294c-2.74 16.76-19.799 26.102-28 40-1.657.027-3.343.001-5 0 10.13-7.123 10.178-25.897 14-32.5 2.652-4.583 14.163-5.939 19-7.5"/><path fill="#0d6e9c" d="M824 334c-.255.012-3.165.857-5 1l-25-40c3.227.943 15.383 3.103 17 5.5 1.519 2.252 1.334 11.838 3 16 2.467 6.163 7.246 11.481 10 17.5"/><path fill="#489cad" d="M362 296c3.464-1.758 10.202 10.483 10 11.5-.417 2.099-26.393 24.222-31 29.5 3.288-5.537-5.204-10.693-10-12 7.262-8.394 15.786-15.57 23-24 2.386-1.769 5.589-3.302 8-5"/><path fill="#2099b8" d="M568 316c-40.603 3.179-40.952 44.83-30 75-10.49-5.346-41.632-5.163-53.5-3-51.46 9.38-92.421 60.064-85.5 113 .366 8.919 2.532 19.259 7 27 9.729 30.255 39.077 55.824 69 65 33.733 10.345 61.832 6.401 92-11 44.01-25.386 63.43-68.168 52-118.5-1.374-6.051-7.283-27.078-14-25l-8-17.5c6.257.069 13.95-1.351 20-3 .087-.024-.099 1.505 1.5 1 5.266-1.661 9.066-8.902 14.5-8 6.231 7.066 8.848 12.734 14 20-3.18-.748-1.225 5.65-1 6.5 7.971 30.117 14.694 58.812 9.5 90.5 15.242-20.816 21.929-48.326 22.5-74 8.265-2.044 20.018 8.494 26 2.5 1.775 25.987-3.656 51.142-10 76-.759 2.973-7.013 17.034-7 18 .044 3.313 10.046 10.258 10 11-.335 5.433-15.601 25.941-18 32.5-39.744 49.664-87.34 83.839-153 89-98.447 7.739-194.825-63.603-215-160.5-1.296-6.225-6.166-41.306-5-45 .708-2.242 10.145-.789 11-2 .698-.988 2.106-20.189 3-24C345.414 343.113 464.146 266.484 571.5 312ZM381.5 518c-3.241.503-10.054 11.487-10.5 14.5-4.15 28.015 34.61.302 22.5-10.5-.688-.614-10.59-4.219-12-4"/><path fill="#094e6c" d="M354 301c-7.214 8.43-15.738 15.606-23 24-109.34 126.388-55.793 325.984 101 381 16.271 5.709 31.893 9.661 49 12-1.391 2.454-4.157 4.336-2 7-27.006-3.654-54.674-11.775-79-24-129.574-65.119-171.735-234.927-91-355 4.768-7.092 11.378-15.546 17-22 5.896-6.768 12.841-14.593 20-20 1.594-1.204 6.322-1.756 8-3"/><path fill="#fefeff" d="M568 316c22.185-1.737 44.343 8.3 58 26 14.348 18.595 20.891 46.789 4 66-4.065 4.623-7.139 7.626-13 10-6.05 1.649-13.743 3.069-20 3-4.378-.048-12.596-1.18-17-2-5.392-3.967-12.034-6.061-17.5-10-7.035-5.069-12.887-15.675-21.5-15-1.119-1.21-1.317-2.143-3-3-10.952-30.17-10.603-71.821 30-75"/><path fill="#79a3b0" d="M326 324c-5.622 6.454-12.232 14.908-17 22l-2-4c5.565-7.262 10.833-14.649 17.5-21z"/><path fill="#288194" d="M341 337c-104.955 120.237-56.436 306.699 94 359l-3 10c-156.793-55.016-210.34-254.612-101-381 4.796 1.307 13.288 6.463 10 12"/><path fill="#a2c6d0" d="m705 646-9-5c25.014-29.831 44.346-68.676 52-107 14.252-71.359-1.35-141.37-45-199 1.298-.413 8.528 3.983 9 4.5 14.287 15.651 33.85 63.019 39 84 18.192 74.11.369 162.099-46 222.5"/><path fill="#fcfdfe" d="M195 336c-.94 2.186-1.342 4.955-2 7-.034.106-.477.331-1 2h-50c1.15-1.687 2.94-8.155 5.5-9 15.775.587 31.758-.792 47.5 0"/><path fill="#679bb0" d="M204 337c2.287.207 10.305-.975 11 1.5-.794 1.426-4.613 5.667-5 6.5l-17-2c.658-2.045 1.06-4.814 2-7 2.314.116 6.217.748 9 1"/><path fill="#fdfefe" d="M879 344h-50c-.907-2.401-1.593-4.815-3-7 15.813-.413 31.631-1.652 47.5-1 3.132 1.744 3.916 5.809 5.5 8"/><path fill="#70a4ba" d="M826 337c1.407 2.185 2.093 4.599 3 7 .11.292-.107.707 0 1-4.983-.527-13.041-3.082-17 1-1.538-2.824-3.724-8.535-4-9 5.982-.114 12.02.156 18 0"/><path fill="#57828f" d="M309 346c-80.735 120.073-38.574 289.881 91 355l-3 12c-134.28-70.495-184.9-247.173-90-371Z"/><path fill="#d8e8f1" d="M637 353c14.719 21.395 24.187 60.948 14.5 85-1.581-2.187-2.974-4.848-4.5-7-5.152-7.266-7.769-12.934-14-20-.308-.35-.025-3.75-3-3 16.891-19.211 10.348-47.405-4-66 4.932 2.527 7.964 6.586 11 11"/><path fill="#448fb0" d="M210 345c-11.395 24.505-22.808 48.969-29 75.5-1.459 1.304-10.738-1.332-13-1.5-.655-.049-1.345.049-2 0 2.408-27.519 17.995-48.472 26-74 .523-1.669.966-1.894 1-2z"/><path fill="#93d6f3" d="M192 345c-8.005 25.528-23.592 46.481-26 74-5.664-.425-49.148-3.134-50-5.5 6.632-23.335 12.128-48.158 26-68.5z"/><path fill="#4496bb" d="M829 345c9.115 24.895 22.613 48.227 26 75-3.091.171-12.124 2.068-14 .5-6.231-25.736-16.374-51.31-29-74.5 3.959-4.082 12.017-1.527 17-1"/><path fill="#96d7f4" d="M879 344c13.724 18.99 19.908 47.164 26 69.5-.778 1.954-25.039 4.022-29 4.5-6.869.829-14.1 1.618-21 2-3.387-26.773-16.885-50.105-26-75-.107-.293.11-.708 0-1z"/><path fill="#5096b8" d="M678 454c-.571 25.674-7.258 53.184-22.5 74 5.194-31.688-1.529-60.383-9.5-90.5-.225-.85-2.18-7.248 1-6.5 1.526 2.152 2.919 4.813 4.5 7 9.687-24.052.219-63.605-14.5-85 30.606 24.515 41.849 62.837 41 101"/><path fill="#064f69" d="M538 391c1.683.857 1.881 1.79 3 3 .861.931 2.697 4.554 3.5 6-5.313-2.209-12.756-.883-19.5-1-6.58-.115-19.412.612-24.5 0-.504-.061.844-4.042-8-3-5.608.66-16.843 1.08-22 2-7.803 1.392-14.41 9.362-21 14-2.127 1.497-6.503.657-7 1-5.202 3.595-13.041 16.784-16.5 22.5-.631 1.043-2.394-.041-3 1-.561.963.563 5.977 0 7-1.272 2.311-6.565 7.299-8 10-.266.501-.211 5.481-1 7-1.794 3.454-8.611-.505-10 1-2.442 2.645-5.199 34.653-5 39.5-6.921-52.936 34.04-103.62 85.5-113 11.868-2.163 43.01-2.346 53.5 3"/><path fill="#067ba1" d="M580 419c-6.079-1.132-13.68-8.664-16-1.5l3.5 3.5-2.5 1c-3.796-2.563-10.295-4.721-15-5l-30.5-7c-.936-.254-.341-2.96-.5-3-5.394-5.288 8.327.209 6-8 6.744.117 14.187-1.209 19.5 1-.803-1.446-2.639-5.069-3.5-6 8.613-.675 14.465 9.931 21.5 15 5.466 3.939 12.108 6.033 17.5 10"/><path fill="#0a6e8d" d="M525 399c2.327 8.209-11.394 2.712-6 8-3.679-.922-21.105 2.576-26.5 3-9.928.78-18.437-1.251-30 4-1.761.8-3.605 4.762-4 5-.748.452-4.346-.449-5 0-1.341.92-22.021 20.735-23.5 22.5-9.122 10.884-11.148 26.113-22 36 1.841 2.707.014 17.978-1 20-.903 1.801-5.058 1.442-6 4-1.174 3.186 3.635 22.256 5 26.5-4.468-7.741-6.634-18.081-7-27-.199-4.847 2.558-36.855 5-39.5 1.389-1.505 8.206 2.454 10-1 .789-1.519.734-6.499 1-7 1.435-2.701 6.728-7.689 8-10 .563-1.023-.561-6.037 0-7 .606-1.041 2.369.043 3-1 3.459-5.716 11.298-18.905 16.5-22.5.497-.343 4.873.497 7-1 6.59-4.638 13.197-12.608 21-14 5.157-.92 16.392-1.34 22-2 8.844-1.042 7.496 2.939 8 3 5.088.612 17.92-.115 24.5 0"/><path fill="#119fc2" d="M519 407c.159.04-.436 2.746.5 3l30.5 7c-2.694-.16-9.623-1.035-9 2-2.549-.188-3.033-.454-6 0-66.181-23.984-133.079 36.981-102 105 20.699 45.301 75.761 59.783 119 37 11.376-5.994 23.263-16.934 30-28 10.139-16.654 13.903-37.028 11-56.5-1.817-12.187-17.886-47.672-28-54.5l2.5-1-3.5-3.5c2.32-7.164 9.921.368 16 1.5 4.404.82 12.622 1.952 17 2l8 17.5c6.717-2.078 12.626 18.949 14 25 11.43 50.332-7.99 93.114-52 118.5-20.866 9.571-42.11 16.342-65.5 15-8.77-.503-17.691-4.168-26.5-4-29.923-9.176-59.271-34.745-69-65-1.365-4.244-6.174-23.314-5-26.5.942-2.558 5.097-2.199 6-4 1.014-2.022 2.841-17.293 1-20 10.852-9.887 12.878-25.116 22-36 1.479-1.765 22.159-21.58 23.5-22.5.654-.449 4.252.452 5 0 .395-.238 2.239-4.2 4-5 11.563-5.251 20.072-3.22 30-4 5.395-.424 22.821-3.922 26.5-3"/><path fill="#096595" d="M633 411c-5.434-.902-9.234 6.339-14.5 8-1.599.505-1.413-1.024-1.5-1 5.861-2.374 8.935-5.377 13-10 2.975-.75 2.692 2.65 3 3"/><path fill="#043a56" d="M535 419c-1.943.297-7.386 2.084-9 3-9.507 1.763-10.175 11.518-23 10-22.428 1.386-50.408 22.205-57 44l-18-1.5c-1.649 9.339-1.169 18.151 0 27.5 1.021 8.168 3.108 14.258 5 22-31.079-68.019 35.819-128.984 102-105"/><path fill="#26ace4" d="M119 417c-3.917 13.016-3.239 26.461-4 39.5-.045.769-1.962.233-2 1-.801 16.383 1.474 32.346 2 48.5h-2c-3.158-29.38-3.282-59.317 2-88.5.903-1.011 2.78-.297 4-.5"/><path fill="#1c83b8" d="M167 421c.96.139 2.048-.159 3 0l-4 2.5c-4.157 26.06-9.799 48.86-11 75.5-12.5 4.915-24.568 7-38 7h-2c-.526-16.154-2.801-32.117-2-48.5.038-.767 1.955-.231 2-1 .761-13.039.083-26.484 4-39.5 8.005-1.329 38.378 2.606 48 4"/><path fill="#053251" d="M550 417c4.705.279 11.204 2.437 15 5 10.114 6.828 26.183 42.313 28 54.5 2.903 19.472-.861 39.846-11 56.5 7.139-20.253 14.413-43.648 5.5-64-2.439.884-5.11.611-7.5 1-3.152.513-3.335-1.91-6.5 4-5.115-17.627-10.373-1.698-19 2-3.312 1.42-5.664.818-8.5 1 34.547-9.146 31.26-55.326-5-58-.623-3.035 6.306-2.16 9-2"/><path fill="#1c84b9" d="M907 501c-1.128-.159-.833.683-1 1-13.619 2.779-25.97-.525-39-4-.057-.949-.928-1.041-1-2-1.85-24.676-7.676-49.329-10-74 6.938-1.028 13.052-1.436 20-2 6.748-.548 20.153-3.466 26-3 8.262 26.189 7.974 56.375 5 84"/><path fill="#2bade8" d="M908 501h-1c2.974-27.625 3.262-57.811-5-84 1.145.091 2.339-.06 3.5 0 7.875 27.237 5.543 56.067 2.5 84"/><path fill="#fefefe" d="M541 419c36.26 2.674 39.547 48.854 5 58-.979.063-2.017.026-3 0-33.743-.892-43.284-40.078-17-55 1.614-.916 7.057-2.703 9-3 2.967-.454 3.451-.188 6 0"/><path fill="#0b5e88" d="M171 491c-5.619 1.937-10.479 5.829-16 8 1.201-26.64 6.843-49.44 11-75.5l4-2.5c2.813.47 7.161 2.495 10 1.5-4.719 22.666-8.169 45.28-9 68.5"/><path fill="url(#b)" d="M526 422c-26.284 14.922-16.743 54.108 17 55 .118 1.326 1.072.544 2 2l-8 1.5c12.55 9.836 19.823.318 16 20-2.148 11.056-11.549 24.332-21 30.5-15.246 9.95-36.487 13.285-53 5-11.299-7.813-23.293-20.693-25-35-3.462-29.02 16.549-46.968 41.5-56 8.549-3.095 15.004 2.03 16.5-12.5-.695-.86-7.365-.601-9-.5 12.825 1.518 13.493-8.237 23-10" style="fill:url(#b)"/>/&gt;<path fill="#095d89" d="M856 422c2.324 24.671 8.15 49.324 10 74l-15-6c-.974-22.063-4.425-43.933-9-65.5.952-2.662 11.609-2.146 14-2.5"/><path fill="#033b5c" d="M454 501c-2.553-4.211-5.774-.127-10-1-.039-.328.03-.669 0-1-.876-9.606-.865-13.526 2-23 6.592-21.795 34.572-42.614 57-44 1.635-.101 8.305-.36 9 .5-1.496 14.53-7.951 9.405-16.5 12.5-24.951 9.032-44.962 26.98-41.5 56"/><path fill="#1a5976" d="M580 470c-3.179 11.666-28.095 19.839-35 9-.928-1.456-1.882-.674-2-2 .983.026 2.021.063 3 0 2.836-.182 5.188.42 8.5-1 8.627-3.698 13.885-19.627 19-2 3.165-5.91 3.348-3.487 6.5-4"/><path fill="#0d5171" d="M582 533c-6.737 11.066-18.624 22.006-30 28l23-20.5c-2.826-4.696-10.694-4.601-13.5-6.5-.534-.362-7.504-9.855-7.5-10.5.016-2.438 15.04-19.526 11-32-2.053-6.338-5.587 12.025-6 13-5.311 12.525-13.23 24.826-24.5 32.5l-2.5-6c9.451-6.168 18.852-19.444 21-30.5 3.823-19.682-3.45-10.164-16-20l8-1.5c6.905 10.839 31.821 2.666 35-9 2.39-.389 5.061-.116 7.5-1 8.913 20.352 1.639 43.747-5.5 64"/><path fill="#0f5370" d="M446 476c-2.865 9.474-2.876 13.394-2 23l-16 3c-1.169-9.349-1.649-18.161 0-27.5z"/><path fill="#2099b8" d="M729 489c.01.206-.832 1.908-1 4-.139 1.734-2.554 4.815 1 7-1.676 19.206-5.552 37.874-12 56l-14-2c4.02-10.477 7.922-22.471 10-33.5 1.045-5.549 2.014-32.607 3-34 .454-.641 11.455-2.086 12.5-1.5.914 1.014.438 2.688.5 4"/><path fill="#114a69" d="M728 493c.168-2.092 1.01-3.794 1-4 .952 2.028-.984 3.794-1 4"/><path fill="#2099b8" d="M730 497c-2.601.525-2.173-1.796-2-4 .016-.206 1.952-1.972 1-4h1c-.081 2.643.176 5.369 0 8"/><path fill="#1a6989" d="M552 561c-43.239 22.783-98.301 8.301-119-37-1.892-7.742-3.979-13.832-5-22l16-3c.03.331-.039.672 0 1 4.742 39.469 49.691 61.983 86.5 52 5.841-1.584 29.129-14.255 25.5-20.5-3.676-6.325-20.772 9.344-27.5 11.5-17.53 5.618-34.545 3.342-49.5-7 16.513 8.285 37.754 4.95 53-5l2.5 6c11.27-7.674 19.189-19.975 24.5-32.5.413-.975 3.947-19.338 6-13 4.04 12.474-10.984 29.562-11 32-.004.645 6.966 10.138 7.5 10.5 2.806 1.899 10.674 1.804 13.5 6.5z"/><path fill="#003c60" d="M866 496c.072.959.943 1.051 1 2 1.474 24.507-2.971 50.576-5 75-3.448 1.751-7.363 3.159-9.5 4-1.341.528-4.24 1.543-5 3l-1.5-1.5c4.476-29.202 6.307-58.906 5-88.5z"/><path fill="#003a5f" d="M171 491c-1.017 28.393.984 55.966 5 84-2.718 8.208-2.949 3.006-3.5 3-3.64-.04-10.056-.266-14.5-2 1.58-1.994.092-1.769 0-3-1.858-24.826-4.122-49.107-3-74 5.521-2.171 10.381-6.063 16-8"/><path fill="#114a69" d="M730 497c-.052.773-.841 1.183-1 3-3.554-2.185-1.139-5.266-1-7-.173 2.204-.601 4.525 2 4"/><path fill="#014c78" d="M906 502c-3.232 6.134-1.974 20.761-4 28.5-5.182 19.799-22.538 33.63-40 42.5 2.029-24.424 6.474-50.493 5-75 13.03 3.475 25.381 6.779 39 4"/><path fill="#014b76" d="M155 499c-1.122 24.893 1.142 49.174 3 74-26.238-11.841-44.423-37.472-41-67 13.432 0 25.5-2.085 38-7"/><path fill="#125d80" d="M454 501c1.707 14.307 13.701 27.187 25 35 14.955 10.342 31.97 12.618 49.5 7 6.728-2.156 23.824-17.825 27.5-11.5 3.629 6.245-19.659 18.916-25.5 20.5-36.809 9.983-81.758-12.531-86.5-52 4.226.873 7.447-3.211 10 1"/><path fill="#0d6a97" d="M908 501c-3.271 30.026-3.817 49.442-32 67-2.401 1.496-13.249 8.316-15 6.5l1-1.5c17.462-8.87 34.818-22.701 40-42.5 2.026-7.739.768-22.366 4-28.5.167-.317-.128-1.159 1-1z"/><path fill="#0c6390" d="M115 506h2c-3.423 29.528 14.762 55.159 41 67 .092 1.231 1.58 1.006 0 3-33.233-12.965-41.525-37.678-45-70z"/><path fill="#146080" d="M748 534c-7.654 38.324-26.986 77.169-52 107-53.982 64.376-133.386 95.313-217 84-2.157-2.664.609-4.546 2-7 42.574 5.822 81.321 1.247 121-15 41.434-16.966 81.006-49.942 106-87 19.697-29.204 32.932-63.137 38-98 1.257-1.087 2.287-3.74 2 .5-.326 4.82-3.407 12.75-4 18z"/><path fill="#fcfefe" d="M381.5 518c1.41-.219 11.312 3.386 12 4 12.11 10.802-26.65 38.515-22.5 10.5.446-3.013 7.259-13.997 10.5-14.5"/><path fill="#2c607a" d="M717 556c-1.66 4.666-3.988 9.454-6 14-31.283 70.669-100.403 122.597-178 130l-4-1.5c7.53-10.608-1.623-5.371-3-15.5 65.66-5.161 113.256-39.336 153-89 .368-.459 1.444 1.071 1.5 1 8.681-10.947 17.457-27.855 22.5-41z"/><path fill="#7ac0ca" d="M697 606c-20.727 34.311-63.579 67.686-100 84-39.789 17.822-78.799 22.571-122 16l2-8c19.455 2.954 36.268 3.882 56 2 77.597-7.403 146.717-59.331 178-130 2.818.698 1.562 3.708 1 5.5-2.456 7.829-10.594 23.207-15 30.5"/><path fill="#127e96" d="M567 582c-30.168 17.401-58.267 21.345-92 11 8.809-.168 17.73 3.497 26.5 4 23.39 1.342 44.634-5.429 65.5-15"/><path fill="#6ab6c3" d="M708 616c-24.994 37.058-64.566 70.034-106 87 .53-4.727-2.27-9.189-5-13 36.421-16.314 79.273-49.689 100-84z"/><path fill="#79a3b0" d="M705 646c-73.912 96.279-200.344 123.518-308 67l3-12c24.326 12.225 51.994 20.346 79 24 83.614 11.313 163.018-19.624 217-84z"/><path fill="#489cad" d="M597 690c2.73 3.811 5.53 8.273 5 13-39.679 16.247-78.426 20.822-121 15-17.107-2.339-32.729-6.291-49-12l3-10c12.457 4.331 26.95 8.015 40 10 43.201 6.571 82.211 1.822 122-16"/><path fill="#120d19" d="M361 707c-6.549 2.687-12.711 6.792-17 12.5 4.776 5.408 11.101 8.63 17 12.5 84.714 55.57 209.954 61.732 292-2 .263-.136.737.136 1 0-27.826 24.709-65.489 40.532-101.5 49-1.279.301-5.141 1.027-4.5 3-18.823-.225-44.593 2.096-63 4-.674-2.992 3.434-1.432.5-3-6.648-3.553-29.691-5.261-39-8-21.885-6.44-56.502-23.769-77-35-7.544-4.133-14.348-9.986-22-14 10.686 30.893 33.556 59.14 57.5 81 5.79 5.286 38.926 32.564 44.5 32 1.065-.108 13.567-11.129 17-13 13.187-7.185 29.047-10.693 44-9 5.659.641 14.287 5.588 18 6 6.878.764 12.703-3.49 19-4 22.892-1.854 40.903.942 62 10 10.471-9.129 18.904-19.457 26.5-31 9.83-14.938 16.377-29.312 22-45.5 3.56-10.248 8.754-19.331 7.5-30.5-4 2.726-7.109 5.737-11.5 8 3.502-3.109 12.027-10.373 14-14 .06-.11 1.702-.674 2-1.5l-15-13c19.109-3.277 28.293 11.609 28 29l-12-14c-5.246 57.992-62.27 140.602-122.5 149.5-84.873 12.538-177.202-66.211-204.5-142.5-3.79 1.608-3.18 10.584-4 14-10.972-17.284.453-34.964 21-30.5m107 123c-2.043.861-15.182 9.599-15 10.5l1.5 1.5c49.404 23.116 107.363 27.816 149.5-11-14.195-9.765-36.461-11.407-53.5-10-7.787.643-15.408 5.324-23.5 4-20.546-6.426-40.533-8.5-59 5"/><path fill="#b8d1d9" d="M668 716c-1.973 3.627-10.498 10.891-14 14-.263.136-.737-.136-1 0-83.24 43.153-155.489 55.047-247.5 21-15.001-5.551-29.241-14.099-44.5-19-5.899-3.87-12.224-7.092-17-12.5 4.289-5.708 10.451-9.813 17-12.5.988 2.419-15.523 8.22-14.5 13 46.047 14.176 89.694 43.106 139 46 72.871 4.277 106.229-17.183 167-45 5.191-2.376 10.588-2.179 15.5-5"/><path fill="#272230" d="M636 798c-26.334-9.901-59.791-15.663-88-16-.641-1.973 3.221-2.699 4.5-3 36.011-8.468 73.674-24.291 101.5-49 4.391-2.263 7.5-5.274 11.5-8 1.254 11.169-3.94 20.252-7.5 30.5-5.623 16.188-12.17 30.562-22 45.5"/><path fill="#241e2b" d="M485 786c-26.367 2.727-57.877 6.102-80 21-23.944-21.86-46.814-50.107-57.5-81 7.652 4.014 14.456 9.867 22 14 20.498 11.231 55.115 28.56 77 35 9.309 2.739 32.352 4.447 39 8 2.934 1.568-1.174.008-.5 3"/><path fill="#fafbfb" d="M653 730c-82.046 63.732-207.286 57.57-292 2 15.259 4.901 29.499 13.449 44.5 19 92.011 34.047 164.26 22.153 247.5-21"/><path fill="#3a3444" d="M548 782c28.209.337 61.666 6.099 88 16-7.596 11.543-16.029 21.871-26.5 31-21.097-9.058-39.108-11.854-62-10-6.297.51-12.122 4.764-19 4-3.713-.412-12.341-5.359-18-6-14.953-1.693-30.813 1.815-44 9-3.433 1.871-15.935 12.892-17 13-5.574.564-38.71-26.714-44.5-32 22.123-14.898 53.633-18.273 80-21 18.407-1.904 44.177-4.225 63-4"/><path fill="#e3e5e6" d="M527 825c.186.058.176 2.709 2.5 3 3.371.422 12.209-1.25 17.5-1 4.678 4.566 5.577 10.625-1.5 13-7.414 2.488-61.168-2.234-66.5-7.5-3.536-3.492 2.572-8.221-11-2.5 18.467-13.5 38.454-11.426 59-5m-28.5-2c-2.21.5-9.145 4.821-5 7l35.5 1.5c-3.608-8.125-23.368-10.113-30.5-8.5"/><path fill="#fcfbfb" d="M604 831c-18.773-3.773-37.943-3.1-57-4-5.291-.25-14.129 1.422-17.5 1-2.324-.291-2.314-2.942-2.5-3 8.092 1.324 15.713-3.357 23.5-4 17.039-1.407 39.305.235 53.5 10"/><path fill="#fefdfd" d="M498.5 823c7.132-1.613 26.892.375 30.5 8.5l-35.5-1.5c-4.145-2.179 2.79-6.5 5-7"/><path fill="#babab9" d="M547 827c19.057.9 38.227.227 57 4-42.137 38.816-100.096 34.116-149.5 11l-1.5-1.5c-.182-.901 12.957-9.639 15-10.5 13.572-5.721 7.464-.992 11 2.5 5.332 5.266 59.086 9.988 66.5 7.5 7.077-2.375 6.178-8.434 1.5-13"/></svg>