<svg xmlns="http://www.w3.org/2000/svg" width="1024" height="1024"><defs><linearGradient id="a" x1="436.819" x2="642.818" y1="86.8" y2="87.233" gradientUnits="userSpaceOnUse"><stop offset="0%" style="stop-color:#d1f0f8"/><stop offset="46.602%" style="stop-color:#6ab5cc"/><stop offset="100%" style="stop-color:#2c576f"/></linearGradient></defs><defs><linearGradient id="b" x1="794.836" x2="234.978" y1="473.863" y2="509.638" gradientUnits="userSpaceOnUse"><stop offset="0%" style="stop-color:#256485"/><stop offset="43.137%" style="stop-color:#4ea0be"/><stop offset="79.857%" style="stop-color:#a9d5e3"/><stop offset="100%" style="stop-color:#5699b7"/></linearGradient></defs><defs><linearGradient id="c" x1="522.189" x2="501.992" y1="424.861" y2="591.643" gradientUnits="userSpaceOnUse"><stop offset="0%" style="stop-color:#00324e"/><stop offset="100%" style="stop-color:#0d8dad"/></linearGradient></defs><defs><linearGradient id="d" x1="551.631" x2="469.313" y1="469.698" y2="544.161" gradientUnits="userSpaceOnUse"><stop offset="0%" style="stop-color:#155474"/><stop offset="100%" style="stop-color:#2f6985"/></linearGradient></defs><defs><linearGradient id="e" x1="421.945" x2="513.407" y1="464.929" y2="622.278" gradientUnits="userSpaceOnUse"><stop offset="0%" style="stop-color:#1481b7"/><stop offset="100%" style="stop-color:#60cfec"/></linearGradient></defs><defs><linearGradient id="f" x1="616.28" x2="400.729" y1="837.7" y2="851.623" gradientUnits="userSpaceOnUse"><stop offset="0%" style="stop-color:#356176"/><stop offset="100%" style="stop-color:#4b8098"/></linearGradient></defs><defs><linearGradient id="g" x1="713.282" x2="323.649" y1="817.092" y2="968.453" gradientUnits="userSpaceOnUse"><stop offset="7.895%" style="stop-color:#185979"/><stop offset="55.502%" style="stop-color:#2c7495"/><stop offset="100%" style="stop-color:#56a3c1"/></linearGradient></defs><path fill="#0d4e6c" d="m622 60 2 5c-4.384-1.7-12.257-3.79-17-5-60.248-15.376-135.004-14.896-195 1-3.624.96-6.465 1.84-10 3-1.056.346-1.936.62-3 1-19.728 7.054-40.723 17.247-38 42.5 3.453 32.014 28.136 20.212 48 16.5 46.49-8.689 83.042-13.755 131-11 29.87 1.716 54.521 9.163 83 13v4c-87.025-14.55-135.832-19.879-224-1-8.427 1.804-16.594 4.807-25.5 4-1.01.721-.422 11.791-.5 14-.212 6.016-.622 14.714 0 20.5.291 2.701-1.017 3.965 3 3.5-.183.129-1.693 3.494-2 4-.809 1.335-2.233 2.226-2 4-3.576-4.66 1.242-37.79-1-45.5-.268-.92-8.338-8.108-10-12-21.684-50.78 48.667-66.36 83.5-71.5 52.731-7.78 126.618-6.167 177.5 10"/><path fill="url(#a)" d="M607 60c-1.568 1.848-.065 2.345 1.5 3 12.846 5.375 32.064 8.503 40.5 21.5 5.673 8.74 8.549 26.518-.5 33.5-23.425 18.076-69.631-9.726-96-11-2.816-.136-15.241-.09-15.5 2.5l3 3.5c-47.958-2.755-84.51 2.311-131 11v-3c1.982-.61 5.23.323 7-2.5L412 61c59.996-15.896 134.752-16.376 195-1m-158.5 5c.878 8.008-2.819 39.219-.5 44.5 1.327 3.021 6.868.875 9 0v-5zm-10 16c.712 4.077-2.383 29.254-1.5 30.5.976 1.377 8.641 1.196 9-3 .121-1.42-7.972-23.044-7.5-27.5m20 9c-1.145 6.347-.274 13.95 2 20 3.973 1.18-.589-17.568-2-20" style="fill:url(#a)"/>/&gt;<path fill="#73bfd5" d="M624 65c21.822 8.464 47.306 28.868 30 54.5-7.973 11.808-19.556 8.042-31 6.5-28.479-3.837-53.13-11.284-83-13l-3-3.5c.259-2.59 12.684-2.636 15.5-2.5 26.369 1.274 72.575 29.076 96 11 9.049-6.982 6.173-24.76.5-33.5-8.436-12.997-27.654-16.125-40.5-21.5-1.565-.655-3.068-1.152-1.5-3 4.743 1.21 12.616 3.3 17 5"/><path fill="#02263c" d="M651 133c-9.415.051-18.775-1.458-28-3v-4c11.444 1.542 23.027 5.308 31-6.5 17.306-25.632-8.178-46.036-30-54.5l-2-5c25.948 8.245 48.433 24.462 41 55.5-1.939 8.096-11.248 14.678-12 17.5"/><path fill="#89c0d0" d="m412 61 4 57.5c-1.77 2.823-5.018 1.89-7 2.5-1.046.322-2.244.828-3 1-2.676-5.724 2.232-9.843-4-12.5V64c3.535-1.16 6.376-2.04 10-3"/><path fill="#5e8fa3" d="M402 64v45.5c6.232 2.657 1.324 6.776 4 12.5-16.712 3.807-37.904 5.637-40-16.5-2.113-22.311 17.38-30.22 33-40.5 1.064-.38 1.944-.654 3-1"/><path fill="#f4f8fa" d="M399 65c-15.62 10.28-35.113 18.189-33 40.5 2.096 22.137 23.288 20.307 40 16.5.756-.172 1.954-.678 3-1v3c-19.864 3.712-44.547 15.514-48-16.5-2.723-25.253 18.272-35.446 38-42.5"/><path fill="#fbfdfe" d="m448.5 65 8.5 39.5v5c-2.132.875-7.673 3.021-9 0-2.319-5.281 1.378-36.492.5-44.5"/><path fill="#f5fbfd" d="M438.5 81c-.472 4.456 7.621 26.08 7.5 27.5-.359 4.196-8.024 4.377-9 3-.883-1.246 2.212-26.423 1.5-30.5"/><path fill="#f6fbfc" d="M458.5 90c1.411 2.432 5.973 21.18 2 20-2.274-6.05-3.145-13.653-2-20"/><path fill="#71b6cd" d="M623 130c9.225 1.542 18.585 3.051 28 3-.801 3.006.176 11.077 0 15-15.728-3.688-31.077-7.993-47-11-13.41-2.533-26.792-5.272-40.5-6l-3.5 19c-12.443-1.352-25.502-2.76-38-3 9.355 3.107 7.776-17.389 5.5-19-3.573-2.529-68.005 1.997-77.5 3-5.656.598-11.383 1.133-17 2-5.969.921-13.24 1.735-19 3-3.689.81-9.754 1.923-13 3l-2-10c88.168-18.879 136.975-13.55 224 1"/><path fill="#b4e3ee" d="M522 147c-24.708-.475-50.588 1.547-75 5-4.707-3.501 2.39-3.818 3-5.5 1.064-2.933-.78-11.757 0-15.5 9.495-1.003 73.927-5.529 77.5-3 2.276 1.611 3.855 22.107-5.5 19"/><path fill="#538ca4" d="M401 139c-1.418.47-6.529 1.558-7 2.5-.38.76-.155 16.164 0 17 .327 1.763 5.163 2.079 3 4.5-3.635 1.273-17.558 6.406-20 8l8-5.5c-.536-5.894-4.41-3.97-5-5-.427-.746-.197-12.606-1-15l-6 1.5c.078-2.209-.51-13.279.5-14 8.906.807 17.073-2.196 25.5-4z"/><path fill="#f8fcfd" d="M450 131c-.78 3.743 1.064 12.567 0 15.5-.61 1.682-7.707 1.999-3 5.5-5.763.815-11.305 1.904-17 3 4.485-5.297 3.574-14.843 3-22 5.617-.867 11.344-1.402 17-2"/><path fill="#5894ac" d="M604 137c-.099 3.493-3.528 13.982-3 16.5.344 1.643 23.81 7.892 28 9.5-14.443-1.136-28.298-7.464-42.5-10-8.306-1.483-18.02-2.079-26.5-3l3.5-19c13.708.728 27.09 3.467 40.5 6"/><path fill="#92ccdc" d="M433 133c.574 7.157 1.485 16.703-3 22-9.077 1.747-16.132 3.36-25 6-1.201-4.476 8.765-4.012 9-4.5 1.254-2.601.183-16.669 0-20.5 5.76-1.265 13.031-2.079 19-3"/><path fill="#76b0c3" d="M405 161c-2.52.75-5.435 1.102-8 2 2.163-2.421-2.673-2.737-3-4.5-.155-.836-.38-16.24 0-17 .471-.942 5.582-2.03 7-2.5 3.246-1.077 9.311-2.19 13-3 .183 3.831 1.254 17.899 0 20.5-.235.488-10.201.024-9 4.5"/><path fill="#33627a" d="M651 148c-.015.333.013.667 0 1-4.84 6.057-.165 17.684-2.5 25-5.004-7.449-11.802-8.045-19.5-11-4.19-1.608-27.656-7.857-28-9.5-.528-2.518 2.901-13.007 3-16.5 15.923 3.007 31.272 7.312 47 11"/><path fill="#3e6e86" d="M377 171c-.235.153-.779-.156-1 0-4.017.465-2.709-.799-3-3.5-.622-5.786-.212-14.484 0-20.5l6-1.5c.803 2.394.573 14.254 1 15 .59 1.03 4.464-.894 5 5z"/><path fill="#042a40" d="M522 147c12.498.24 25.557 1.648 38 3 8.48.921 18.194 1.517 26.5 3 14.202 2.536 28.057 8.864 42.5 10 7.698 2.955 14.496 3.551 19.5 11 2.335-7.316-2.34-18.943 2.5-25-.388 10.063 1.518 21.326-1.5 31-6.429 6.579-67.622-3.484-80-3-.673.478-.897 15.598-.5 16.5.902 2.048 37.439 8.616 43.5 10.5C713.429 235.378 781.653 307.705 826 401l-1 1c-.084-.114-1.889-1.912-2-2 .038-2.203-3.301-5.283-5-6-43.769-95.034-126.052-167.746-229-191-70.387-15.899-123.629-12.59-191 11-1.923-.769-2.499.733-3 1-12.02 4.36-23.998 7.967-36 14v-4c12.348-6.204 25.423-12.496 38.5-17 6.994-2.409 47.417-11.228 48.5-13.5.548-1.151.487-16.822-1.5-17.5-16.706 1.124-35.541 5.466-52 6-4.697.152-13.648.098-17.5-3 25.355 4.386 90.112-8.392 121.5-9 44.71-.866 84.96 7.19 128 9 3.818.161 25.032.936 25.5-2.5-31.714-19.297-77.501-25.646-114.5-27.5-52.637-2.637-113.804 2.214-161.5 25 .307-.506 1.817-3.871 2-4 .221-.156.765.153 1 0 2.442-1.594 16.365-6.727 20-8 2.565-.898 5.48-1.25 8-2 8.868-2.64 15.923-4.253 25-6 5.695-1.096 11.237-2.185 17-3 24.412-3.453 50.292-5.475 75-5m-72 33c-.874 3.306.634 9.725 0 13.5 1.052 1.485 8.735-.313 11-.5 30.265-2.502 50.269-3.91 81-2 3.751.233 21.632 3.588 23 .5.226-1.848-.481-13.441-1-14-4.268-4.597-93.615-3.072-105.5-1.5-3.802.503-7.521.294-8.5 4"/><path fill="#27617f" d="M375 180c-1.105-.191-2.9.671-3-1-.233-1.774 1.191-2.665 2-4 47.696-22.786 108.863-27.637 161.5-25 36.999 1.854 82.786 8.203 114.5 27.5-.468 3.436-21.682 2.661-25.5 2.5-43.04-1.81-83.29-9.866-128-9-31.388.608-96.145 13.386-121.5 9"/><path fill="#2d6a88" d="M542 191c1.763-1.487-1.714-3.564-2.5-4-15.413-8.545-37.174-8.884-54.5-9-11.705-.078-23.357 1.191-35 2 .979-3.706 4.698-3.497 8.5-4 11.885-1.572 101.232-3.097 105.5 1.5.519.559 1.226 12.152 1 14-1.368 3.088-19.249-.267-23-.5"/><path fill="#3093b6" d="M485 178c-2.107 3.771-15.334 3.425-17.5 5-2.829 2.057-.755 5.193-1.5 6.5-1.115 1.955-7.368.304-5 3.5-2.265.187-9.948 1.985-11 .5.634-3.775-.874-10.194 0-13.5 11.643-.809 23.295-2.078 35-2"/><path fill="#46a0c0" d="M542 191c-30.731-1.91-50.735-.502-81 2-2.368-3.196 3.885-1.545 5-3.5.745-1.307-1.329-4.443 1.5-6.5 2.166-1.575 15.393-1.229 17.5-5 17.326.116 39.087.455 54.5 9 .786.436 4.263 2.513 2.5 4"/><path fill="url(#b)" d="M589 203c-2.115 2.101 2.208 2.628 3.5 3 89.693 25.808 175.104 99.873 213.5 185-14.094-.2-26.603 17.29-25 30.5.07.577 4.462 8.709 5 10.5 14.419 47.99 29.196 97.42 30 148v19c.017 4.186-3.487 12.463-3 18.5.038.468 3.983 4.859 4 8.5.038 7.866-5.115 36.387-7 45.5-8.7 42.054-27.008 83.198-51 118.5-6.641-.418-12.034-2.873-18-4 73.61-93.076 84.162-220.147 44-330-22.601-61.819-62.03-121.574-118.5-157-87.469-54.872-206.271-57.791-296.5-8-49.037 17.005-105.19 96.955-125 143-48.891 113.637-42.577 253.74 35 353-4.531 1.277-9.463 1.671-14 3-.66.028-1.339-.008-2 0-34.833-49.255-49.767-110.853-58-170 2.127-8.077 1.176-13.618-2-21 2.625-54.534 5.014-109.726 25-161 17.707-14.012 9.746-43.036-12.5-46-3.635-.484-8.397 3.086-11.5.5 2.225-6.222 6.07-11.683 9-17.5 6.421 2.218 12.33-13.422 16-18.5 49.768-68.851 90.976-101.977 165-141.5.944-.342 1.993-.648 3-1 67.371-23.59 120.613-26.899 191-11M240 362c-2.448 19.021 23.765 20.515 35 7.5 10.332-11.969 10.435-34.223-7-39.5 54.639-58.758 113.426-96.874 193-114.5-41.256 6.107-86.261 24.152-121.5 46.5-21.246 13.474-96.602 77.491-99.5 100m509.5-31c-13.024 3.46-12.774 35.039 1.5 38.5-13.337-11.033-13.45-37.884 8.5-34.5 23.739 3.66 26.504 41.104-1.5 38.5l9.5 1.5c28.699-8.467 5.653-50.284-18-44m4 8c-10.6 3.384-7.973 33.783 12 29 16.882-4.043 4.813-34.367-12-29m-7 20c-.421 4.737 4.106 7.969 7 11l7.5 1.5c-6.627-3.581-11.104-5.065-14.5-12.5" style="fill:url(#b)"/>/&gt;<path fill="#4d91af" d="M818 394c-.57-.241-11.382-2.991-12-3-38.396-85.127-123.807-159.192-213.5-185-1.292-.372-5.615-.899-3.5-3 102.948 23.254 185.231 95.966 229 191"/><path fill="#fcfcfd" d="M398 214c-1.007.352-2.056.658-3 1 .501-.267 1.077-1.769 3-1m-3 1c-74.024 39.523-115.232 72.649-165 141.5-3.67 5.078-9.579 20.718-16 18.5 29.819-59.193 85.279-115.983 145-146 12.002-6.033 23.98-9.64 36-14"/><path fill="#f8fcfd" d="M268 330c-9.758 10.493-19.109 20.76-28 32 2.898-22.509 78.254-86.526 99.5-100 35.239-22.348 80.244-40.393 121.5-46.5-79.574 17.626-138.361 55.742-193 114.5"/><path fill="#074b6d" d="M359 229c-59.721 30.017-115.181 86.807-145 146-2.93 5.817-6.775 11.278-9 17.5 3.103 2.586 7.865-.984 11.5-.5 22.246 2.964 30.207 31.988 12.5 46-14.073 11.136-33.144 5.968-40.5-10-1.063.228-3.91 11.468-4.5 13-19.471 50.598-27.068 105.69-26 160-3.446-26.24.065-57.698 4-84.5 1.193-8.124 6.439-20.514 3-27.5 2.882-13.563 7.655-26.621 11-40 .432-1.727 3.089-3.365.5-5-11.049 6.285-27.309 10.835-37.5 18-3.675 2.584-3.555 1.455-6 6-17.442 32.419-18.951 115.088-16 152 1.45 18.135 3.564 36.362 8 54-.045 6.754 8.709 38.101 13 42.5 1.799 1.844 1.776 1.934 4 .5 5.939 11.684 31.658 12.181 36.5 17 1.944 1.935-.566 2.863-.5 3-9.921-2.101-35.375-9.682-42.5-16-5.238-4.645-5.502-15.457-8.5-19.5-1.526-2.059-9.074-5.122-11.5-7.5-34.155-33.482-43.708-92.073-35.5-138 3.385 2.45.375-2.27 4-2-5.636 27.052-3.802 61.068 5 89 6.836 21.694 17.13 38.968 35.5 53-3.74-23.367-9.525-46.96-11.5-71-3.139-38.202-1.41-76.215 5-114 .902-5.319 1.718-16.613 3-21 1.3-4.449 6.292-7.197 4-10 2.736-4.72 3.549-13.937 7.5-18 7.852-8.073 44.327-18.891 48.5-24.5.482-.648 5.243-12.969 6-15 7.863-21.108 17.842-42.868 30-63 34.248-56.711 82.556-104.636 142-134.5ZM211.5 394c-26.895 3.219-29.692 43.654-5 48 38.421 6.762 39.868-52.173 5-48"/><path fill="#155272" d="m785 456-5-2c-8.574-23.069-19.636-45.398-33-66-36.656-56.511-83.735-95.957-149-115-72.477-21.148-155.625-17.244-223 19l.5-2c-1.735 1.853-5.236.908-5.5 1 90.229-49.791 209.031-46.872 296.5 8 56.47 35.426 95.899 95.181 118.5 157"/><path fill="#79b4c8" d="m598 273-3 17c-4.612-1.444-10.238-2.758-15-4-104.559-27.277-235.223.839-294 97.5l-8-.5c24.305-35.578 58.678-70.385 97-91 67.375-36.244 150.523-40.148 223-19"/><path fill="#5a9cb7" d="M747 388c-2.424.475-2.965 1.366-5.5 0-4.047-2.181-24.24-25.321-30.5-31-15.6-14.151-27.816-24.153-46-35-20.707-12.353-46.984-24.795-70-32l3-17c65.265 19.043 112.344 58.489 149 115"/><path fill="#c7dce4" d="m580 286 3 59c-51.954-22.688-105.02-20.858-155 5-39.765 20.574-70.94 54.527-86 97-28.053-3.917-49.504 18.946-76 19 11.519-33.245 26.677-67.51 53-91.5.293-2.419-2.186-.439-3 0-5.406 2.915-17.723 15.786-23.5 16.5-4.358.539-8.635-3.539-10.5-2.5-2.217 1.236-24.65 38.078-27 43-28.81 60.335-37.792 196.099-7 256.5l-13 7c-27.302-84.944-21.94-176.388 13-258 8.765-20.473 17.566-35.799 30-54l8 .5c58.777-96.661 189.441-124.777 294-97.5m-158.5 10c-4.671.212-77.566 34.459-85 39-3.622 2.213-30.494 24.237-29.5 26.5 27.348-6.852 49.276-28.089 73.5-42.5 14.009-8.334 28.756-15.993 43.5-22.5-.243-.761-1.641-.539-2.5-.5"/><path fill="#a1c3d1" d="M595 290c23.016 7.205 49.293 19.647 70 32-10.169 15.188-4.068 36.622-7 54.5-.431 2.63-5.116 7.216-5 9 .119 1.827 18.554 25.436 21 30 3.322 6.198 5.458 13.991 8 20.5 19.81 50.739 30.984 98.951 28 154-3.585 6.769-13.191.681-14.5 1-1.236.301-6.89 13.16-8.5 15.5-13.318 19.353-41.653 51.426-59.5 66.5-2.15 1.816-6.145 2.512-8 5l-9.5-18c71.969-47.31 99.68-136.68 68-217-17.15-43.482-52.097-79.264-95-98l-3-59c4.762 1.242 10.388 2.556 15 4"/><path fill="#063952" d="M375 292c-38.322 20.615-72.695 55.422-97 91-12.434 18.201-21.235 33.527-30 54-2.358-1.64 2.17-3.527-3-3 19.81-46.045 75.963-125.995 125-143 .264-.092 3.765.853 5.5-1z"/><path fill="#fcfdfe" d="M421.5 296c.859-.039 2.257-.261 2.5.5-14.744 6.507-29.491 14.166-43.5 22.5-24.224 14.411-46.152 35.648-73.5 42.5-.994-2.263 25.878-24.287 29.5-26.5 7.434-4.541 80.329-38.788 85-39"/><path fill="#86b3c5" d="M711 357c-11.41 20.425-13.265 49.456-22 70.5-1.043 2.512-3.638 8.276-7 8.5-2.542-6.509-4.678-14.302-8-20.5-2.446-4.564-20.881-28.173-21-30-.116-1.784 4.569-6.37 5-9 2.932-17.878-3.169-39.312 7-54.5 18.184 10.847 30.4 20.849 46 35"/><path fill="#2b5a72" d="M583 345c42.903 18.736 77.85 54.518 95 98l-11 5c-2.141-5.633-17.86-35.463-21.5-38-2.536-1.768-.423 1.49-3.5 1-17.902-23.36-38.888-39.584-66-51-.186-2.108 1.935-2.301-.5-4-4.534-3.163-21.856-7.488-28-9-21.068-5.185-43.378-6.275-68.5-2-14.05 2.391-25.08 6.141-38 12-2.794 1.267-5.304 2.566-8 4l-5-11c49.98-25.858 103.046-27.688 155-5"/><path fill="#0d86b4" d="M240 362c8.891-11.24 18.242-21.507 28-32 17.435 5.277 17.332 27.531 7 39.5-11.235 13.015-37.448 11.521-35-7.5m36-21c-3.382-1.652-5.691-7.072-11-4.5-.086.439 9.527 2.183 4 4 3.122 1.94 4.818 12.738 7 7 1.928 18.305-21.959 36.367-32.5 14.5 7.51 28.243 42.799 1.134 32.5-21 1.084.53 1.968 1.718 3 .5-3.667-4.203-6.453-10.714-13-8 5.177 1.603 7.658 2.466 10 7.5"/><path fill="#01a3cd" d="M749.5 331c23.653-6.284 46.699 35.533 18 44l-9.5-1.5c28.004 2.604 25.239-34.84 1.5-38.5-21.95-3.384-21.837 23.467-8.5 34.5-14.274-3.461-14.524-35.04-1.5-38.5"/><path fill="#1cc4dd" d="M276 341c-2.342-5.034-4.823-5.897-10-7.5 6.547-2.714 9.333 3.797 13 8-1.032 1.218-1.916.03-3-.5"/><path fill="#30d4ec" d="M276 341c10.299 22.134-24.99 49.243-32.5 21 10.541 21.867 34.428 3.805 32.5-14.5-2.182 5.738-3.878-5.06-7-7 5.527-1.817-4.086-3.561-4-4 5.309-2.572 7.618 2.848 11 4.5m-3.5-1c-1.237.396 1.639 6.612 3 6 .009-2.514-.997-4.507-3-6"/><path fill="#0198ce" d="M753.5 339c16.813-5.367 28.882 24.957 12 29-19.973 4.783-22.6-25.616-12-29"/><path fill="#0382b2" d="M272.5 340c2.003 1.493 3.009 3.486 3 6-1.361.612-4.237-5.604-3-6"/><path fill="#0294ca" d="M576 360c-5.099-2.147-22.192-9.744-26.5-10-5.649-.335-5.166 3.181-11.5 3-20.291-.58-37.798-4.934-59-2v-6c25.122-4.275 47.432-3.185 68.5 2 6.144 1.512 23.466 5.837 28 9 2.435 1.699.314 1.892.5 4"/><path fill="#0278b8" d="M479 345v6c-9.927 1.374-26.622 6.951-36 11l-2-5c12.92-5.859 23.95-9.609 38-12"/><path fill="#568ca1" d="m428 350 5 11c-21.553 11.466-37.946 25.889-53 45-35.09 44.548-43.268 91.589-31 147 .596 2.691 1.473 5.124 1 8-2.581-6.594-4.565-13.358-5-20.5l-2.5-1.5-8.5 3c-4.61-27.953-3.692-51.451 3-79 1.343-5.527 3.107-10.662 5-16 15.06-42.473 46.235-76.426 86-97"/><path fill="#fbfcfd" d="M538 353v2c-63.339-7.324-114.955 10.293-152 63-15.5 22.053-27.225 50.02-30 77-3.294 32.021 3.196 62.584 19 90.5-1.587 2.704-7.663-6.489-8-7-2.054-3.117-7.775-13.365-9-16.5-19.141-48.988-7.245-113.131 25-154 13.713-17.38 39.664-37.219 60-46 9.378-4.049 26.073-9.626 36-11 21.202-2.934 38.709 1.42 59 2"/><path fill="#22b9d9" d="M576 360c27.112 11.416 48.098 27.64 66 51 54.054 70.536 40.992 167.289-27 223-2.109-.359-6.921-8.911-7.5-9-1.275-.196-17.01 12.836-21 15-42.388 22.983-92.146 26.347-137 8-4.041-1.653-30.702-16.109-31.5-18.5-2.349-7.039 23.282-13.894 24-21.5 26.874 18.277 58.304 22.216 90 18 2.09-.278 4.376.192 6.5 0l-3-3c28.074-2.65 71.217-38.447 63-70l-6.5 9c.13-.271-.128-.727 0-1 7.347-15.717 12.956-29.348 14-47h25.5c3.561 2.521-5.525 35.549-8.5 40.5l30.5 8.5 1.5-1.5c13.028-37.524 12.201-72.823-2-109.5-12.826-33.126-35.296-60.628-66-79-15.047-9.004-31.371-15.961-49-18v-2c6.334.181 5.851-3.335 11.5-3 4.308.256 21.401 7.853 26.5 10"/><path fill="#00314c" d="M538 355c17.629 2.039 33.953 8.996 49 18-2.92 10.834-30.984 15.27-25 26-24.284-10.695-59.866-14.667-84-4-27.607-17.729-66.233-2.576-72 30-7.119-.974-14.095-3.08-20-7 37.045-52.707 88.661-70.324 152-63"/><path fill="#015092" d="m441 357 2 5c-20.336 8.781-46.287 28.62-60 46l-3-2c15.054-19.111 31.447-33.534 53-45 2.696-1.434 5.206-2.733 8-4"/><path fill="#6a99ae" d="M747 388c13.364 20.602 24.426 42.931 33 66 41.039 110.417 30.201 236.355-42 331-.319-.068-.682.07-1 0-26.543-7.048-47.797-24.924-71-38 22.745-49.348 41.025-102.133 44-157 2.984-55.049-8.19-103.261-28-154 3.362-.224 5.957-5.988 7-8.5 8.735-21.044 10.59-50.075 22-70.5 6.26 5.679 26.453 28.819 30.5 31 2.535 1.366 3.076.475 5.5 0m-11.5 297c-33.301 5.675-15.298 63.264 17 45 23.491-13.284 10.816-49.741-17-45"/><path fill="#00a9d5" d="M746.5 359c3.396 7.435 7.873 8.919 14.5 12.5l-7.5-1.5c-2.894-3.031-7.421-6.263-7-11"/><path fill="#fdfefe" d="M266 466c-25.921 74.81-24.793 148.137-15.5 226-2.186.236-2.01-3.038-2.5-4-30.792-60.401-21.81-196.165 7-256.5 2.35-4.922 24.783-41.764 27-43 1.865-1.039 6.142 3.039 10.5 2.5 5.777-.714 18.094-13.585 23.5-16.5.814-.439 3.293-2.419 3 0-26.323 23.99-41.481 58.255-53 91.5"/><path fill="#004f6f" d="m653 452-3-2.5-28.5 8.5c-12.154-24.15-34.385-47.939-59.5-59-5.984-10.73 22.08-15.166 25-26 30.704 18.372 53.174 45.874 66 79"/><path fill="#fefefe" d="M478 395c7.317 4.699 15.138 13.66 18 22 1.574 4.587 3.292 15.172 3 20-1.581 26.113-26.758 45.256-52 44-6.8-.338-18.521-4.082-24-8-4.507-3.223-15.691-18.733-17-24-1.856-7.47-1.337-16.448 0-24 5.767-32.576 44.393-47.729 72-30"/><path fill="#0c7ea7" d="M562 399c25.115 11.061 47.346 34.85 59.5 59l28.5-8.5 3 2.5c14.201 36.677 15.028 71.976 2 109.5l-1.5 1.5-30.5-8.5c2.975-4.951 12.061-37.979 8.5-40.5H606c3.145-53.158-38.424-97.262-91.5-100-4.676-.241-14.706-.23-18.5 3-2.862-8.34-10.683-17.301-18-22 24.134-10.667 59.716-6.695 84 4"/><path fill="#0c5578" d="M818 394c1.699.717 5.038 3.797 5 6-14.108-11.239-35.374-4.935-38 13.5-5.591 39.254 56.518 37.473 45.5-1.5l.5 9.5c-6.053 29.547-47.254 22.311-43-8 2.133-15.197 22.13-23.203 33.5-12.5l4 5c2.515.289-.21-3.606-.5-4l1-1c1.159 2.438 4.692 5.621 6 8.5 2.866 6.306 4.885 22.284 9 28 4.197 5.83 40.471 16.175 48.5 24.5 4.587 4.756 4.824 15.003 7.5 19.5 2.554 4.292 15.448 13.488 20 19 28.049 33.964 30.771 81.469 24 123.5l-1.5-1c.437 3.88-2.402 3.786-2.5 4 7.73-36.062 5.289-76.323-13-109a98 98 0 0 0-5-8c-4.725-6.83-11.189-15.962-19-19.5-.389 4.041 4.626 9.488 5 12 .441 2.962-2.251 3.202-2 5 6.009 43.069 9.72 75.466 6 119.5-1.944 23.015-6.305 45.491-11 68-2.89 1.124-2.148.664-5 0 2.59-8.139 5.41-19.596 7-28 4.466-23.611 6.698-51.921 7-76 .399-31.819-2.562-63.147-10-94-2.674-11.092-5.116-32.827-17-36l-34.5-16c-2.419 1.744-.645 1.669-.5 3 1.019 9.351 8.599 25.862 11 36.5 8.25 36.558 12.737 78.005 12 115.5-.22 11.176-.938 22.869-2 34l-4-1c.461-5.279.684-10.724.5-16-5.148 6.296-5.994 11.667-7.5 19l-1.5-6c-4.137 4.516-7.814 4.011-12.5 4 12.841-2.202 21.15-13.884 20-26.5l-2 10c-15.705 30.873-53.077 5.733-34-21 9.173-12.854 26.076-10.592 33.5 2.5-17.747-32.871-52.937-.152-37.5 28-.549-.302-3.093-.815-4-1-.017-3.641-3.962-8.032-4-8.5-.487-6.037 3.017-14.314 3-18.5 11.396-14.095 23.459-21.095 40-9 .647 3.26 6.274 8.16 6 12.5.5.983 1.91-.708 2-1 2.398-7.748-1.697-54.106-3-65-3.477-29.067-11.964-65.049-22-92.5-1.912-5.229-3.848-5.138-4-5.5-.186-.443.811-7.71-1.5-9.5-11.673 17.961-33.97 21.255-47.5 3-.538-1.791-4.93-9.923-5-10.5-1.603-13.21 10.906-30.7 25-30.5.618.009 11.43 2.759 12 3m-12.5 3c-21.009 2.138-22.132 46.348 8 42 25.163-3.631 16.194-44.461-8-42m23 11c-1.394.18.35 3.084 1 3 1.394-.18-.35-3.084-1-3m4.5 217c10.639 2.559 16.473-.405 21.5-10l-1.5 6.5c10.656-8.147 5.672-28.09-7-31.5-33.079-8.903-31.479 60.477 6 34.5-2.493-1.181-8.104 3.236-10.5 3.5-7.099.782-5.395-.927-8.5-3"/><path fill="#02c3e6" d="M211.5 394c34.868-4.173 33.421 54.762-5 48-24.692-4.346-21.895-44.781 5-48m-9.5 7c-25.222 17.702-1.007 50.28 22.5 36 19.837-12.05 6.689-56.487-22.5-36"/><path fill="#02bfe4" d="M823 400c.111.088 1.916 1.886 2 2 .29.394 3.015 4.289.5 4l-4-5c-11.37-10.703-31.367-2.697-33.5 12.5-4.254 30.311 36.947 37.547 43 8l-.5-9.5c11.018 38.973-51.091 40.754-45.5 1.5 2.626-18.435 23.892-24.739 38-13.5"/><path fill="#0e5d88" d="M202 401c-.564.375-4.377 5.019-5 6-3.217 5.063-4.657 8.851-4 15 2.755 25.783 44.533 20.712 39-10.5-2.532-14.284-19.045-17.772-30-10.5 29.189-20.487 42.337 23.95 22.5 36-23.507 14.28-47.722-18.298-22.5-36"/><path fill="#3edaf2" d="M193 422c28.751 44.811 55.568-26.575 20.5-23-4.965.506-10.734 7.854-16.5 8 .623-.981 4.436-5.625 5-6 10.955-7.272 27.468-3.784 30 10.5 5.533 31.212-36.245 36.283-39 10.5"/><path fill="#26cdeb" d="M805.5 397c24.194-2.461 33.163 38.369 8 42-30.132 4.348-29.009-39.862-8-42m1 2c-2.437.942 2.3 2.518 1 3-16.773-.807-21.209 22.891-8 31 16.871 10.358 37.849-8.871 23-26-.422-.487-9.391-6.787-10-7-.426-.149-5.716-1.11-6-1"/><path fill="#0a77a3" d="M193 422c-.657-6.149.783-9.937 4-15 5.766-.146 11.535-7.494 16.5-8 35.068-3.575 8.251 67.811-20.5 23m16.5-18c-13.727 2.855-13.805 27.781-1 30 24.47 4.241 24.756-34.942 1-30"/><path fill="#09729f" d="M806.5 399c.284-.11 5.574.851 6 1 .609.213 9.578 6.513 10 7 14.849 17.129-6.129 36.358-23 26-13.209-8.109-8.773-31.807 8-31 1.3-.482-3.437-2.058-1-3m-1 5c-11.997 2.131-16.866 26.952 0 30 23.681 4.279 22.955-34.077 0-30"/><path fill="#18a2d4" d="M209.5 404c23.756-4.942 23.47 34.241-1 30-12.805-2.219-12.727-27.145 1-30"/><path fill="#19a3d5" d="M805.5 404c22.955-4.077 23.681 34.279 0 30-16.866-3.048-11.997-27.869 0-30"/><path fill="#0169a8" d="M383 408c-32.245 40.869-44.141 105.012-25 154l-4 1c-1.709-4.681.801-10.606-5-10-12.268-55.411-4.09-102.452 31-147z"/><path fill="#00b2df" d="M828.5 408c.65-.084 2.394 2.82 1 3-.65.084-2.394-2.82-1-3"/><path fill="#0b597a" d="M667 448c28.706 75.543-.113 159.63-68 202-38.386 23.958-81.678 30.507-126 21l2-4c8.027 1.698 14.29 1.489 21.5 2 45.928 3.256 81.077-4.336 118.5-35 67.992-55.711 81.054-152.464 27-223 3.077.49.964-2.768 3.5-1 3.64 2.537 19.359 32.367 21.5 38"/><path fill="url(#c)" d="M606 514c-1.044 17.652-6.653 31.283-14 47-14.255 16.703-31.935 33.48-54 39-65.726 16.443-128.611-33.529-122-102 5.916-1.143.94 8.333 6 7 3.328 8.327 12.784 11.676 21 9 6.429 51.289 66.676 79.639 109.5 48 25.144-18.577 27.746-43.298 24.5-72-.722-6.387 1.077-5.167 1-5.5-1.961-8.44-11.922-22.052-19-27.5 6.042-19.684-16.926-33.204-27-18-10.883-1.689-21.929-4.852-33-2 .292-4.828-1.426-15.413-3-20 3.794-3.23 13.824-3.241 18.5-3 53.076 2.738 94.645 46.842 91.5 100" style="fill:url(#c)"/>/&gt;<path fill="#004f6f" d="M406 425c-1.337 7.552-1.856 16.53 0 24-8.956 14.382-13.482 31.224-15 48-11.397-.86-24.373 2.242-35-2 2.775-26.98 14.5-54.947 30-77 5.905 3.92 12.881 6.026 20 7"/><path fill="#468cac" d="M229 438c-19.986 51.274-22.375 106.466-25 161-4.653-10.814-16.014-16.763-27.5-15-4.047.621-6.797 5.731-11.5 4 2.566-14.013.616-31.858 2-46.5 3.38-35.768 9.019-57.691 17-92 .461-1.981 1.896-7.074 0-8.5.59-1.532 3.437-12.772 4.5-13 7.356 15.968 26.427 21.136 40.5 10"/><path fill="#317697" d="M839 444c-2.744-.583-2.268 3.034-2 4.5 3.949 21.561 12.127 43.344 15 66 2.886 22.754.021 55.455 4 75.5-16.541-12.095-28.604-5.095-40 9-.025-6.318.1-12.684 0-19-.804-50.58-15.581-100.01-30-148 13.53 18.255 35.827 14.961 47.5-3 2.311 1.79 1.314 9.057 1.5 9.5.152.362 2.088.271 4 5.5"/><path fill="#fdfefe" d="M559 457c-.033.107-.804 1.626-1 2-8.966 17.082-39.028-.338-26-20 10.074-15.204 33.042-1.684 27 18"/><path fill="#125270" d="M248 437c-34.94 81.612-40.302 173.056-13 258 2.509 7.807 4.82 14.422 8 22 5.337 12.721 11.001 22.296 18 34 1.368 2.288 2.352 4.417 4 7 5.929 9.295 12.08 18.412 19 27-1.291.411-2.742 1.645-4 2-77.577-99.26-83.891-239.363-35-353 5.17-.527.642 1.36 3 3"/><path fill="url(#d)" d="M532 439c-13.028 19.662 17.034 37.082 26 20 3.333 3.959 9.607 10.177 12 14.5 2.832 5.116 3.2 12.266 7 16.5 3.246 28.702.644 53.423-24.5 72-42.824 31.639-103.071 3.289-109.5-48 12.545-4.087 9.96-17.807 2-25l2-8c25.242 1.256 50.419-17.887 52-44 11.071-2.852 22.117.311 33 2m-26.5 34c-42.013 2.021-38.148 70.769 8 65 38.123-4.766 32.737-66.96-8-65" style="fill:url(#d)"/>/&gt;<path fill="#d1e3ea" d="M165 588c-.913 4.988-4.345 10.698-7 15-.017-.661.013-1.339 0-2-1.068-54.31 6.529-109.402 26-160 1.896 1.426.461 6.519 0 8.5-7.981 34.309-13.62 56.232-17 92-1.384 14.642.566 32.487-2 46.5"/><path fill="#568ca1" d="M678 443c31.68 80.32 3.969 169.69-68 217-2.189 1.439-4.733 2.665-7 4l-4-14c67.887-42.37 96.706-126.457 68-202z"/><path fill="#94cfe3" d="m176 449-37 13c10.191-7.165 26.451-11.715 37.5-18 2.589 1.635-.068 3.273-.5 5"/><path fill="#4d91b0" d="M839 444c10.036 27.451 18.523 63.433 22 92.5 1.303 10.894 5.398 57.252 3 65-.09.292-1.5 1.983-2 1 .274-4.34-5.353-9.24-6-12.5-3.979-20.045-1.114-52.746-4-75.5-2.873-22.656-11.051-44.439-15-66-.268-1.466-.744-5.083 2-4.5"/><path fill="#83cee5" d="m880 461-35-13c-.145-1.331-1.919-1.256.5-3z"/><path fill="#eff7fb" d="M342 447c-1.893 5.338-3.657 10.473-5 16-11.539-2.479-17.844 17.596-19 26.5-12.465 95.999 86.051 213.71 182.5 216.5 8.529.247 51.615-6.29 54-5 .579.313.982 5.211 3 6 2.925 1.144 13.095-.843 17 0l-1.5 2c-17.874-1.03-57.991 4.99-61 28h-2c.512-14.3-28.821-26.715-40.5-28-63.856-7.027-116.931 48.449-172.5 71-7.693-6.861-16.282-12.776-24.5-19-2.064-1.563-4.58-3.583-7.5-3-1.648-2.583-2.632-4.712-4-7 5.255-14.029 3.434-40.483-18-34-3.18-7.578-5.491-14.193-8-22l13-7c.49.962.314 4.236 2.5 4-9.293-77.863-10.421-151.19 15.5-226 26.496-.054 47.947-22.917 76-19m-59.5 238c-31.623 2-27.583 49.729 3 48 29.354-1.659 28.31-49.981-3-48"/><path fill="#4891b2" d="M880 461c11.884 3.173 14.326 24.908 17 36 2.326 31.086 6.601 62.672 6 94-.31 16.169-3.937 32.093-5 48-16.266-7.077-22.029-24.606-30-39 .737-37.495-3.75-78.942-12-115.5-2.401-10.638-9.981-27.149-11-36.5z"/><path fill="#4e99b9" d="M176 449c-3.345 13.379-8.118 26.437-11 40-3.792 17.847-6.984 36.347-9 54.5-3.678 33.128 4.066 51.001-17 80-3.914 5.388-8.931 10.211-14 14.5-.864-6.329-2.404-12.589-3-19-5.024-54.03-.757-93.702 12-145.5.186-.753 1.891-6.302-1-5.5 2.445-4.545 2.325-3.416 6-6z"/><path fill="url(#e)" d="M423 473c-2.704 7.994-6.181 16.521-7 25-6.611 68.471 56.274 118.443 122 102-2.885 5.337-8.019 9.97-7 16.5.609 1.56 7.051.716 8 .5-4.673 2.709-10.781 1.924-7 9-31.696 4.216-63.126.277-90-18-36.361-24.729-54.932-67.543-51-111 1.518-16.776 6.044-33.618 15-48 1.309 5.267 12.493 20.777 17 24" style="fill:url(#e)"/>/&gt;<path fill="#0d3e5b" d="M785 456c40.162 109.853 29.61 236.924-44 330-1.559-.294-2.089-.805-3-1 72.201-94.645 83.039-220.583 42-331z"/><path fill="#1a7ba4" d="M577 490c-3.8-4.234-4.168-11.384-7-16.5-2.393-4.323-8.667-10.541-12-14.5.196-.374.967-1.893 1-2 7.078 5.448 17.039 19.06 19 27.5.077.333-1.722-.887-1 5.5"/><path fill="#c7dce4" d="M337 463c-6.692 27.549-7.61 51.047-3 79 20.21 122.543 162.613 184.632 269 122 2.267-1.335 4.811-2.561 7-4l9.5 18c1.855-2.488 5.85-3.184 8-5 17.847-15.074 46.182-47.147 59.5-66.5 1.61-2.34 7.264-15.199 8.5-15.5 1.309-.319 10.915 5.769 14.5-1-2.975 54.867-21.255 107.652-44 157-28.903-16.288-58.715-36.024-93-38l1.5-2c-3.905-.843-14.075 1.144-17 0-2.018-.789-2.421-5.687-3-6-2.385-1.29-45.471 5.247-54 5-96.449-2.79-194.965-120.501-182.5-216.5 1.156-8.904 7.461-28.979 19-26.5"/><path fill="#b2e8f5" d="m122 619-5 1c-2.951-36.912-1.442-119.581 16-152 2.891-.802 1.186 4.747 1 5.5-12.757 51.798-17.024 91.47-12 145.5"/><path fill="#024d6f" d="m447 481-2 8c-13.68-12.362-29.912-1.294-23 16-5.06 1.333-.084-8.143-6-7 .819-8.479 4.296-17.006 7-25 5.479 3.918 17.2 7.662 24 8"/><path fill="#0c1927" d="M505.5 473c40.737-1.96 46.123 60.234 8 65-46.148 5.769-50.013-62.979-8-65"/><path fill="#063455" d="M121 490c-18.116 16.994-31.89 39.471-37 64-3.625-.27-.615 4.45-4 2 4.07-22.774 14.474-42.803 29-60.5 4.734-5.767 11.999-8.598 16-15.5 2.292 2.803-2.7 5.551-4 10"/><path fill="#fdfefe" d="M445 489c7.96 7.193 10.545 20.913-2 25-8.216 2.676-17.672-.673-21-9-6.912-17.294 9.32-28.362 23-16"/><path fill="#2b5b77" d="M158 601c.013.661-.017 1.339 0 2 .115 4.448.748 8.692 1 13 2.687 45.896 11.548 82.884 26 126 .887 2.646.217 8.738 4 9-.081.311.073.683 0 1-.842.007-2.956 2.792-3 3-4.145-5.319-5.139-12.044-8-18-.066-.137 2.444-1.065.5-3-4.842-4.819-30.561-5.316-36.5-17-5.626-11.069-11.543-41.777-14-55-1.469-7.906-1.913-16.036-3-24 5.069-4.289 10.086-9.112 14-14.5 21.066-28.999 13.322-46.872 17-80 2.016-18.153 5.208-36.653 9-54.5 3.439 6.986-1.807 19.376-3 27.5-3.935 26.802-7.446 58.26-4 84.5"/><path fill="#2faae2" d="M118 511c-2.601-.272-3.177-.059-4 2.5-4.217 13.119-3.53 34.875-7 49-1.126 4.583-4.965 14.455-9 17.5-.064-5.195 1.628-32.893 1-34.5-.095-.243-4.119-.328-5-1.5.23-3.895.876-7.605 1-11.5-6.65 8.96-10.292 28.939-11 41-1.114 18.993 1.933 50.486 8 68.5l-3 1c-8.802-27.932-10.636-61.948-5-89 5.11-24.529 18.884-47.006 37-64-1.282 4.387-2.098 15.681-3 21"/><path fill="#42afd6" d="m919 510 2 20.5 3-12.5c18.289 32.677 20.73 72.938 13 109-1.198 2.616-1.331 7.948-2 10h-4c8.352-30.36 8.358-74.113-3-103.5-1.369 7.514 1.414 18.198 1 25-.021.34-2.964.998-3 2-.4 11.108 1.919 21.567 2 31 .136 15.905-3.501 32.387 2 47.5-2.668 8.649-5.86 18.557-13.5 24-1.451-1.174.401-32.726-7.5-36 3.72-44.034.009-76.431-6-119.5-.251-1.798 2.441-2.038 2-5-.374-2.512-5.389-7.959-5-12 7.811 3.538 14.275 12.67 19 19.5"/><path fill="#0c7ea7" d="M391 497c-3.932 43.457 14.639 86.271 51 111-.718 7.606-26.349 14.461-24 21.5.798 2.391 27.459 16.847 31.5 18.5 44.854 18.347 94.612 14.983 137-8 3.99-2.164 19.725-15.196 21-15 .579.089 5.391 8.641 7.5 9-37.423 30.664-72.572 38.256-118.5 35-7.21-.511-13.473-.302-21.5-2-53.975-11.415-101.952-51.844-121-104l4-1c1.225 3.135 6.946 13.383 9 16.5.337.511 6.413 9.704 8 7-15.804-27.916-22.294-58.479-19-90.5 10.627 4.242 23.603 1.14 35 2"/><path fill="#a1e5f4" d="M907 591h-4c.601-31.328-3.674-62.914-6-94 7.438 30.853 10.399 62.181 10 94"/><path fill="#eff8fd" d="m924 518-3 12.5-2-20.5a98 98 0 0 1 5 8"/><path fill="#22a0d5" d="M118 511c-6.41 37.785-8.139 75.798-5 114-7.631 8.394-3.783 20.768-8 30-5.553-28.528-6.64-45.766-7-75 4.035-3.045 7.874-12.917 9-17.5 3.47-14.125 2.783-35.881 7-49 .823-2.559 1.399-2.772 4-2.5"/><path fill="#fafcfc" d="M94 544c-2.012 34.172-2.684 67.879 0 102-.416-1.008-1.573-2.734-2-4-6.067-18.014-9.114-49.507-8-68.5.708-12.061 4.35-32.04 11-41-.124 3.895-.77 7.605-1 11.5"/><path fill="#f9fbfd" d="M931 637c-.526 1.914-.967 1.893-1 2-5.501-15.113-1.864-31.595-2-47.5-.081-9.433-2.4-19.892-2-31 .036-1.002 2.979-1.66 3-2 .414-6.802-2.369-17.486-1-25 11.358 29.387 11.352 73.14 3 103.5"/><path fill="#7eb5c5" d="M350 561c21.44 54.769 64.261 97.401 123 110 44.322 9.507 87.614 2.958 126-21l4 14c-106.387 62.632-248.79.543-269-122l8.5-3 2.5 1.5c.435 7.142 2.419 13.906 5 20.5"/><path fill="#71d4f8" d="M98 580c.36 29.234 1.447 46.472 7 75 .575 2.952 1.94 5.909.5 9-5.582-4.902-8.756-11.345-11.5-18-2.684-34.121-2.012-67.828 0-102 .881 1.172 4.905 1.257 5 1.5.628 1.607-1.064 29.305-1 34.5"/><path fill="#033553" d="M354 563c19.048 52.156 67.025 92.585 121 104l-2 4c-58.739-12.599-101.56-55.231-123-110 .473-2.876-.404-5.309-1-8 5.801-.606 3.291 5.319 5 10"/><path fill="#fcfdfe" d="M532 626c-3.781-7.076 2.327-6.291 7-9 20.566-4.677 44.348-36.99 53-55l6.5-9c8.217 31.553-34.926 67.35-63 70l3 3c-2.124.192-4.41-.278-6.5 0"/><path fill="#90d4e8" d="M592 562c-8.652 18.01-32.434 50.323-53 55-.949.216-7.391 1.06-8-.5-1.019-6.53 4.115-11.163 7-16.5 22.065-5.52 39.745-22.297 54-39-.128.273.13.729 0 1"/><path fill="#0c5578" d="M816 599v-19c.1 6.316-.025 12.682 0 19"/><path fill="#106b97" d="M204 599c3.176 7.382 4.127 12.923 2 21-2.299 8.729-8.773 12.127-16 13 30.384-10.347 9.735-60.259-18.5-45-6.797 3.673-14.385 17.208-9.5 24.5-2.775-17.563 14.359-31.611 30.5-21.5 17.768 11.131 10.028 46.853-15 40-8.383-2.296-10.971-11.096-16.5-16.5 5.416 13.884 12.732 18.785 27 18.5-4.444 5.623-17.282-.451-21-4-3.75-3.579-4.73-9.127-8-13-.252-4.308-.885-8.552-1-13 2.655-4.302 6.087-10.012 7-15 4.703 1.731 7.453-3.379 11.5-4 11.486-1.763 22.847 4.186 27.5 15m-36 19c8.952 14.397 31.221 8.258 29-9.5-1.298-10.375-13.498-15.267-22.5-11.5-4.994 2.09-4.425 8.464-7.5 11-.94-3.403.855-10.98 4.5-13 1.94-1.075 10.771-.493 13.5-.5l-5.5-1.5c7.135-6.436 18.619 7.681 19.5 15.5 1.667 14.792-10.076 21.038-23.5 18.5 22.106 12.968 34.061-21.022 17-34-18.172-13.822-37.363 10.799-25 27z"/><path fill="#01d3f2" d="M190 633c-.644.078-1.344-.013-2 0-14.268.285-21.584-4.616-27-18.5 5.529 5.404 8.117 14.204 16.5 16.5 25.028 6.853 32.768-28.869 15-40-16.141-10.111-33.275 3.937-30.5 21.5-4.885-7.292 2.703-20.827 9.5-24.5 28.235-15.259 48.884 34.653 18.5 45"/><path fill="#02c9ec" d="M841 634c-13.1-.029-10.599-1.827-20-7-15.437-28.152 19.753-60.871 37.5-28-7.424-13.092-24.327-15.354-33.5-2.5-19.077 26.733 18.295 51.873 34 21l2-10c1.15 12.616-7.159 24.298-20 26.5"/><path fill="#3ed5ed" d="m167 608 1 10-.5 2c-12.363-16.201 6.828-40.822 25-27 17.061 12.978 5.106 46.968-17 34 13.424 2.538 25.167-3.708 23.5-18.5-.881-7.819-12.365-21.936-19.5-15.5l5.5 1.5c-2.729.007-11.56-.575-13.5.5-3.645 2.02-5.44 9.597-4.5 13"/><path fill="#0fc9ed" d="M846 590c-.112.641-2.522 1.81-3 2-17.605-3.197-27.7 28.742-10 33 3.105 2.073 1.401 3.782 8.5 3 2.396-.264 8.007-4.681 10.5-3.5-37.479 25.977-39.079-43.403-6-34.5"/><path fill="#1ca6d8" d="M833 625c-21.028-14.041 7.434-44.574 22-19.5-1.478-10.817-10.234-10.561-19-11 2.202-1.372 4.615-1.551 7-2.5.478-.19 2.888-1.359 3-2 12.672 3.41 17.656 23.353 7 31.5l1.5-6.5c-5.027 9.595-10.861 12.559-21.5 10"/><path fill="#0c5578" d="M843 592c-2.385.949-4.798 1.128-7 2.5 8.766.439 17.522.183 19 11-14.566-25.074-43.028 5.459-22 19.5-17.7-4.258-7.605-36.197 10-33"/><path fill="#62c7e2" d="M907 591c-.302 24.079-2.534 52.389-7 76-2.05-2.227-2.023-11.974-2-15 .032-4.281-.284-8.742 0-13 1.063-15.907 4.69-31.831 5-48z"/><path fill="#1da5d7" d="m168 618-1-10c3.075-2.536 2.506-8.91 7.5-11 9.002-3.767 21.202 1.125 22.5 11.5 2.221 17.758-20.048 23.897-29 9.5"/><path fill="#2b5973" d="M898 639c-.284 4.258.032 8.719 0 13-4.979 18.595-15.296 42.926-18 61.5-.226 1.554-.777 5.051 2 4.5-3.733 3.356-35.355 17.688-37 14.5 9.768-31.954 17.813-65.106 21-98.5 1.062-11.131 1.78-22.824 2-34 7.971 14.394 13.734 31.923 30 39"/><path fill="#81bdd3" d="m167 629 18 113c-14.452-43.116-23.313-80.104-26-126 3.27 3.873 4.25 9.421 8 13"/><path fill="#4e94b4" d="M862 633c-3.441 39.383-14.059 81.597-29 118-.437-1.315-1.68-5.316-2-6 5.178-16.686 11.224-33.394 15-50.5 4.24-19.209 5.148-39.746 9-58.5 1.506-7.333 2.352-12.704 7.5-19 .184 5.276-.039 10.721-.5 16"/><path fill="#70cae1" d="M122 619c.596 6.411 2.136 12.671 3 19 1.087 7.964 1.531 16.094 3 24-.293 2.787-2.987 10.062-3 12-4.436-17.638-6.55-35.865-8-54z"/><path fill="#4189aa" d="M264 790c-10.024.117-18.411.348-28-3-5.296-7.565-9.802-12.015-13-21v-36.5c-15.96-10.988-30.191 6.933-34 21.5-3.783-.262-3.113-6.354-4-9l-18-113c3.718 3.549 16.556 9.623 21 4 .656-.013 1.356.078 2 0 7.227-.873 13.701-4.271 16-13 8.233 59.147 23.167 120.745 58 170"/><path fill="#063652" d="M941 624c-2.977 18.478-10.443 42.626-22 57.5-5.941 7.646-20.478 16.001-24 21-3.191 4.531-3.352 14.006-8.5 18.5-3.138 2.74-22.834 10.845-28 13-3.283 1.37-12.393 2.187-14 3-4.277 2.164-5.87 16.341-9.5 20-.145-.684-1.568-4.7-2-6 14.941-36.403 25.559-78.617 29-118l4 1c-3.187 33.394-11.232 66.546-21 98.5 1.645 3.188 33.267-11.144 37-14.5 6.203-5.577 8.454-15 11-23 2.852.664 2.11 1.124 5 0 17.801-6.923 31.567-41.328 37-58 .669-2.052.802-7.384 2-10 .098-.214 2.937-.12 2.5-4z"/><path fill="#1b7cb2" d="m89 643 3-1c.427 1.266 1.584 2.992 2 4 2.744 6.655 5.918 13.098 11.5 18 1.44-3.091.075-6.048-.5-9 4.217-9.232.369-21.606 8-30 1.975 24.04 7.76 47.633 11.5 71-18.37-14.032-28.664-31.306-35.5-53"/><path fill="#1e6485" d="M821 627c9.401 5.173 6.9 6.971 20 7 4.686.011 8.363.516 12.5-4l1.5 6c-3.852 18.754-4.76 39.291-9 58.5-3.776 17.106-9.822 33.814-15 50.5-5.745-12.275-19.492-25.46-33-15.5 6.12 7.279 1.322 17.693 3 26.5-2.635 11.812-9.071 22.019-17 31-9.769 2.879-14.328 3.672-25 3 23.992-35.302 42.3-76.446 51-118.5 1.885-9.113 7.038-37.634 7-45.5.907.185 3.451.698 4 1"/><path fill="#1a80b6" d="M930 639c.033-.107.474-.086 1-2h4c-5.433 16.672-19.199 51.077-37 58 4.695-22.509 9.056-44.985 11-68 7.901 3.274 6.049 34.826 7.5 36 7.64-5.443 10.832-15.351 13.5-24"/><path fill="#327696" d="M900 667c-1.59 8.404-4.41 19.861-7 28-2.546 8-4.797 17.423-11 23-2.777.551-2.226-2.946-2-4.5 2.704-18.574 13.021-42.905 18-61.5-.023 3.026-.05 12.773 2 15"/><path fill="#408aaa" d="M142 717c-2.224 1.434-2.201 1.344-4-.5-4.291-4.399-13.045-35.746-13-42.5.013-1.938 2.707-9.213 3-12 2.457 13.223 8.374 43.931 14 55"/><path fill="#0b5275" d="M282.5 685c31.31-1.981 32.354 46.341 3 48-30.583 1.729-34.623-46-3-48m-2 6c-18.07 3.174-18.928 29.812-3 35 27.244 8.874 37.047-40.981 3-35"/><path fill="#09415e" d="M735.5 685c27.816-4.741 40.491 31.716 17 45-32.298 18.264-50.301-39.325-17-45m-2 6c-18.571 4.09-11.678 42.243 13 35 20.966-6.154 13.506-40.838-13-35"/><path fill="#67cae3" d="M280.5 691c34.047-5.981 24.244 43.874-3 35-15.928-5.188-15.07-31.826 3-35m2 5c-17.893 2.443-14.484 28.63 4 26 14.843-2.112 15.14-28.613-4-26"/><path fill="#3886a3" d="M733.5 691c26.506-5.838 33.966 28.846 13 35-24.678 7.243-31.571-30.91-13-35m1 5c-10.597 3.27-9.186 29.887 10 26 16.65-3.373 9.296-31.955-10-26"/><path fill="#19759c" d="M282.5 696c19.14-2.613 18.843 23.888 4 26-18.484 2.63-21.893-23.557-4-26m3 1c-9.032-1.592-5.807 11.735 1 10 3.917-.999 2.542-9.376-1-10"/><path fill="#0e4d6c" d="M734.5 696c19.296-5.955 26.65 22.627 10 26-19.186 3.887-20.597-22.73-10-26m4 2c-6.474 1.885-1.423 9.773 4 7 2.838-1.451 1.257-8.531-4-7"/><path fill="#4ab3d4" d="M285.5 697c3.542.624 4.917 9.001 1 10-6.807 1.735-10.032-11.592-1-10"/><path fill="#318fad" d="M738.5 698c5.257-1.531 6.838 5.549 4 7-5.423 2.773-10.474-5.115-4-7"/><path fill="#261f23" d="M510 737c-.01.291-2.951 3.275-3 5-.266-1.175-1.692-3.18-2-4-3.733-9.95-3.414-4.622-5-6-11.187-9.716-11.183-7.747-22.5-12-.406-.153.093-2.725-4-4-21.713-6.766-37.331-4.554-59 3-35.003 12.203-67.62 39.628-100.5 56.5l2.5 1.5c22.06-10.684 42.833-25.661 65.5-35 9.532-3.927 19.97-6.599 30-9-18.854 6.146-37.943 16.792-57 26-30.198 14.592-58.846 33.646-92 41 .15-.074-.328-2.142 1.5-3 5.186-2.434 20.411-4.687 28-8 1.288-.562 24.229-10.568 16-12-1.546-.269-23.192 10.739-29 12-5.416 1.176-8.482.79-13.5 1 4.537-1.329 9.469-1.723 14-3 1.258-.355 2.709-1.589 4-2 4.811-1.533 8.414-3.139 13-5 55.569-22.551 108.644-78.027 172.5-71 11.679 1.285 41.012 13.7 40.5 28"/><path fill="#211d22" d="M573 709c34.285 1.976 64.097 21.712 93 38 23.203 13.076 44.457 30.952 71 38-.225-.049-1.656 1.688-4.5 1-2.734-.662-15.286-7.503-16-7-1.153.813.153 3.181-1 4-1.685 1.196-32.947-15.68-37-18-.882-.505 1.946-2.353-1-4-9.523-5.325-20.621-11.658-30.5-16-3.281-5.134-11.296-5.401-14-10.5-.467-.88 4.805-.167-3.5-5.5-20.69-13.285-56.834-21.579-80.5-14 2.253-4.04-2.188-2.739-4.5-2-12.268 3.919-27.567 15.999-30.5 29-2.404-.683-2.255-3.05-2-5 3.009-23.01 43.126-29.03 61-28"/><path fill="#5e6366" d="m500 732-2 2c-1.854-1.835-18.453-9.945-21.5-11-27.767-9.615-54.352-6.507-78.5 10-5.177 2.239-13.979 4.26-16 9-22.667 9.339-43.44 24.316-65.5 35l-2.5-1.5c32.88-16.872 65.497-44.297 100.5-56.5 21.669-7.554 37.287-9.766 59-3 4.093 1.275 3.594 3.847 4 4 11.317 4.253 11.313 2.284 22.5 12"/><path fill="#525156" d="M647 745c-6.488-2.852-14.258-5.797-21-8l4-1.5c-2.356-1.113-4.644-2.414-7-3.5-23.868-16.446-54.995-18.403-81.5-7-3.238 1.393-17.675 9.784-19.5 12-1.579-2.378-1.17-2.147.5-4 5.198-5.768 19.174-15.654 26.5-18 23.666-7.579 59.81.715 80.5 14 8.305 5.333 3.033 4.62 3.5 5.5 2.704 5.099 10.719 5.366 14 10.5"/><path fill="#454a53" d="M549 715c-7.326 2.346-21.302 12.232-26.5 18-1.67 1.853-2.079 1.622-.5 4-1.485 1.803-.918 3.739-1 4-.702 2.241-3.245 4.223-1.5 7 1.66-3.152 2.926-3.333 5.5-5-.049 1.513 1.259.794 2 1 2.814.783 4.199.776 7 1v3c-2.011.257-4.783 1.829-7.5 1-2.016 1.206-1.194 2.469-1.5 4-.124.619.058 1.356 0 2 7.762 7.747 13.415 17.913 20 26-5.886 1.184.663 6.711 2 9.5.06.126-1.329.894-1 1.5-1.046.278-24.713-32.151-25-22.5 26.07 33.545 53.184 62.36 93 79.5-16.812-3.002-36.146-13.117-51-22-1.024-.612-1.685-.806-2-1-22.769-16.717-39.226-30.176-46-59-1.998-8.502-2.979-16.227-1-25 2.933-13.001 18.232-25.081 30.5-29 2.312-.739 6.753-2.04 4.5 2"/><path fill="#c7dce4" d="M261 751c-6.999-11.704-12.663-21.279-18-34 21.434-6.483 23.255 19.971 18 34"/><path fill="#93a2a5" d="M498 734c.425.421-1.055 1.429-1 1.5.213.276 9.065 4.217 2.5 4.5-.71.031-8.339-7.594-11-9-3.396-1.794-7.138-2.599-10.5-4-8.945-3.729-14.893-6.356-25-7-20.926-1.334-36.504 4.999-55 13 24.148-16.507 50.733-19.615 78.5-10 3.047 1.055 19.646 9.165 21.5 11"/><path fill="#97a4a5" d="M623 732c-21.349-9.839-43.657-15.106-67-10-12.575 2.751-25.721 10.287-35 19 .082-.261-.485-2.197 1-4 1.825-2.216 16.262-10.607 19.5-12 26.505-11.403 57.632-9.446 81.5 7"/><path fill="#686d72" d="M453 720c-1.956 5.203-7.297 5.87-11 7-10.274-1.511-20.44 2.884-30 6-10.03 2.401-20.468 5.073-30 9 2.021-4.74 10.823-6.761 16-9 18.496-8.001 34.074-14.334 55-13"/><path fill="#6e7479" d="m478 727 7 4.5-.5 2.5c-21.419-7.385-44.701-2.919-66.5 1-.051-.114-3.347.391-1.5-2 8.336-2.306 17.268-3.489 25.5-6 3.703-1.13 9.044-1.797 11-7 10.107.644 16.055 3.271 25 7"/><path fill="#66676b" d="M623 732c2.356 1.086 4.644 2.387 7 3.5l-4 1.5c-7.58-2.477-18.558-6.557-26-5-5.932-1.203-18.266-4.601-23-1-13.58-1.358-26.329-2.894-39.5 2 2.21-6.757 14.491-5.561 18.5-11 23.343-5.106 45.651.161 67 10"/><path fill="#23222b" d="M556 722c-4.009 5.439-16.29 4.243-18.5 11 13.171-4.894 25.92-3.358 39.5-2 6.515.652 13.42 2.959 20 4 3.603 3.702 9.443 4.906 14 7 2.897 1.331 11.723 6.557 13.5 7 2.54.633.959.487 2.5-2 2.509.977 4.422 3.172 6.5 4 .547.218.455-2.225 1-2 3.707 1.531 6.388.802 7 1 3.198 1.036 18.471 12.976 20 13 5.327.774-3.368-7.65-5-9-8.74-7.231-31.209-15.697-42.5-18-4.461-1.54-9.396-3.066-14-4 7.442-1.557 18.42 2.523 26 5 6.742 2.203 14.512 5.148 21 8 9.879 4.342 20.977 10.675 30.5 16 2.946 1.647.118 3.495 1 4 4.053 2.32 35.315 19.196 37 18 1.153-.819-.153-3.187 1-4 .714-.503 13.266 6.338 16 7 2.844.688 4.275-1.049 4.5-1 .318.07.681-.068 1 0 .911.195 1.441.706 3 1 5.966 1.127 11.359 3.582 18 4 10.672.672 15.231-.121 25-3 15.96-4.703 31.994-16.057 31-34l4-1.5c2.171 21.114-.381 37.318-19 49.5-35.204 23.033-94.527 12.834-130-6 7.766 2.343 15.341 5.328 23 8 1.624.566 3.364 1.501 5 2 13.488 4.119 25.344 8.683 38.5 5L682 791c-9.413-6.622-18.119-12.576-28-19-33.247-21.616-67.119-49.727-110-37-3.624.513-5.769 1.984-9 3-5.392 1.696-5.543 2.114-10 5-2.574 1.667-3.84 1.848-5.5 5-1.745-2.777.798-4.759 1.5-7 9.279-8.713 22.425-16.249 35-19"/><path fill="#0e1720" d="M223 766c-4.016-11.281-6.153-24.09-2-35.5-1.556-2.437-3.913-1.148-6-1.5-14.564-2.453-20.582 13.009-26 24 .064-.321-.072-.684 0-1 .073-.317-.081-.689 0-1 3.809-14.567 18.04-32.488 34-21.5z"/><path fill="#55565d" d="M442 727c-8.232 2.511-17.164 3.694-25.5 6-1.847 2.391 1.449 1.886 1.5 2 .825 1.858 2.441 2.645 1.5 4-4.006.977-10.027 3.019-13.5 5l-80.5 40c-1.069-.323 1.771-5.781 2-6 5.844-5.586 23.075-10.034 27.5-19 19.057-9.208 38.146-19.854 57-26 9.56-3.116 19.726-7.511 30-6"/><path fill="#323643" d="M831 745c.32.684 1.563 4.685 2 6 .432 1.3 1.855 5.316 2 6 8.915 42.178-15.125 47.159-37 72l-.5-3c-2.214-.061-4.941 2.317-6.5 3-7.069 3.095-13.215 7.497-20 11 .189-3.787 6.998-4.422 3.5-7-5.709.759-11.357 4.293-17 5-10.977 1.375-45.056 1.754-58 0-1.921-.26-17.507-6.45-19-6-4.96 1.495 1.717 12.21-10.5 8-6.231-6.468-14.067-11.278-21-17l8-15c11.147 6.81 23.493 11.552 36 15 31.739 8.749 72.256 8.808 99.5-12 1.69-1.291 8.725-7.191 7.5-10 18.619-12.182 21.171-28.386 19-49.5l-4 1.5c-.252-4.551-6.144-28.1-13.5-24-.898.5 1.958 15.89 1.5 20.5-.111 1.118-1.672 5.029-2 6.5-1.678-8.807 3.12-19.221-3-26.5 13.508-9.96 27.255 3.225 33 15.5"/><path fill="#474b52" d="m498 734 2-2c1.586 1.378 1.267-3.95 5 6l-3-.5c-.807 1.491 2.456 10.229 1.5 10.5-.507.143-2.358-5.031-6 2-5.751-7.07-3.739-3.189-7.5-3 .065-3.182-9.219-2.247-10.5-2-21.536 4.161-50.794 49.343-68.5 66l-2-1 58-64c6.546-2.256 12.477-2.584 19-4.5-16.49-8.487-36.157 1.734-49 12.5-4.25 2.305-8.936 5.345-13 8-4.693 3.066-17.956 12.497-21.5 16-1.178 1.165-4.798 3.239-2 5 3.24-4.527 8.31-6.738 12.5-10-6.729 7.634-14.856 13.971-23 20 .709-.68 10.691-10.315 6.5-10-22.719 19.447-47.807 38.818-78 44l-1.5 1.5 4 9.5c-33.316 2.973-66.144 2.537-95.5-15-7.487-4.472-13.499-12.284-20-17-1.352-.981-1.752 2.176-2 2-6.603-4.69-15.631-23.042-16.5-31.5-.793-7.715.488-15.967 2-23.5 5.418-10.991 11.436-26.453 26-24-3.759 7.234-7.219 14.705-8 23-6.438 1.653-4.395 20.659-3 26.5 1.749 7.321 6.784 11.729 12 16.5 2.564 2.346 2.787 2.865 6 5 1.547 9.115 15.129 15.434 23 19 34.819 15.775 75.812 10.872 108-8 .145-.085-.367-1.864 1.5-3 .171-.104 1.165 1.802 4 0 12.449-7.912 22.228-17.697 33.5-26 21.906-16.135 65.965-55.37 94.5-43 .602.261 1.419 7.068 10 4 2.844-5.157-36.406-11.434-40-11-.823.099.129 1.668-1.5 2-.405-2.816-11.306-1.227-12.5-1-4.926.935-9.801 3.441-14.5 5-33.403 11.079-62.779 38.053-93 56-7.33 4.353-15.442 9.566-24 10 1.094-3.909 2.468-4.775 2.5-9 34.173-6.683 62.326-33.786 92.5-51 3.473-1.981 9.494-4.023 13.5-5 .941-1.355-.675-2.142-1.5-4 21.799-3.919 45.081-8.385 66.5-1l.5-2.5-7-4.5c3.362 1.401 7.104 2.206 10.5 4 2.661 1.406 10.29 9.031 11 9 6.565-.283-2.287-4.224-2.5-4.5-.055-.071 1.425-1.079 1-1.5"/><path fill="#78b1c3" d="M223 766c3.198 8.985 7.704 13.435 13 21-6.119-2.136-20.096-12.339-24-17.5-5.508-7.281-5.851-8.459-5-17.5.781-8.295 4.241-15.766 8-23 2.087.352 4.444-.937 6 1.5-4.153 11.41-2.016 24.219 2 35.5"/><path fill="#74777a" d="M600 732c4.604.934 9.539 2.46 14 4-3.942-.804-13.269-.41-17-1-6.58-1.041-13.485-3.348-20-4 4.734-3.601 17.068-.203 23 1"/><path fill="#5090ab" d="M815 753c.994 17.943-15.04 29.297-31 34 7.929-8.981 14.365-19.188 17-31 .328-1.471 1.889-5.382 2-6.5.458-4.61-2.398-20-1.5-20.5 7.356-4.1 13.248 19.449 13.5 24"/><path fill="#6a757e" d="M455 734c-25.038 5.105-52.927 33.273-75 47-4.725 2.939-11.811 6.246-17 9-10.113 3.097-19.56 8.457-29.5 12-1.575.561-2.405-2.541-4-2-4.08 1.384-10.992 7.118-17.5 9-1.86-2.44-1.81-2.106-1-5 8.558-.434 16.67-5.647 24-10l93-56c4.699-1.559 9.574-4.065 14.5-5 1.194-.227 12.095-1.816 12.5 1"/><path fill="#707175" d="M392 782c-7.013-2.116-9.879 11.736-12-1 22.073-13.727 49.962-41.895 75-47 1.629-.332.677-1.901 1.5-2 3.594-.434 42.844 5.843 40 11-8.581 3.068-9.398-3.739-10-4-28.535-12.37-72.594 26.865-94.5 43"/><path fill="#879294" d="m654 772-1 2c-12.698-8.219-27.856-19.415-41-26-6.913-3.464-14.029-6.867-21.5-9-1.601-.457-2.253 2.671-5 2-8.33-2.035-15.29-8.993-25.5-7-5.076 2.88-11.842.412-16 1 42.881-12.727 76.753 15.384 110 37"/><path fill="#4e4e55" d="M560 734c-.21.041-2.64 1.582-4 1.5 7.31.355 42.913 24.704 45.5 24.5 10.41-.821-5.109-13.603-8.5-14.5l15.5 9.5 3.5-7c13.144 6.585 28.302 17.781 41 26 12.394 8.022 26.778 16.395 38.5 25 1.44 1.057 4.722 2.333 1.5 4-7.659-2.672-15.234-5.657-23-8-1.201-.637-6.41-4.523-7.5-4l-2.5 8c-1.883-1.307-15.151-9.457-16.5-10-2.401-.967-3.395-1.136-3.5 2-6.475-4.976-15.358-14.088-21.5-18-1.382-.881-3.576-2.167-4.5 0-15.775-11.725-32.139-22.893-49.5-32-1.445 3.665 7.106 2.168.5 5-5.086-2.624-11.893-3.773-17.5-5h11c-2.215-6.535-15.624-1.82-21-1-1.591.243-4.529.691-2.5-2 3.231-1.016 5.376-2.487 9-3 4.158-.588 10.924 1.88 16-1"/><path fill="#707275" d="m612 748-3.5 7-15.5-9.5c3.391.897 18.91 13.679 8.5 14.5-2.587.204-38.19-24.145-45.5-24.5 1.36.082 3.79-1.459 4-1.5 10.21-1.993 17.17 4.965 25.5 7 2.747.671 3.399-2.457 5-2 7.471 2.133 14.587 5.536 21.5 9"/><path fill="#4b4a51" d="M614 736c11.291 2.303 33.76 10.769 42.5 18 1.632 1.35 10.327 9.774 5 9-1.529-.024-16.802-11.964-20-13-.612-.198-3.293.531-7-1-.545-.225-.453 2.218-1 2-2.078-.828-3.991-3.023-6.5-4-3.601-1.402-13.362-9.065-16-5-4.557-2.094-10.397-3.298-14-7 3.731.59 13.058.196 17 1"/><path fill="#4a4e56" d="M505 738c.308.82 1.734 2.825 2 4-.253 8.965.901 18.118 0 27-7.029 25.173-22.403 40.63-43.5 55-3.85 2.622-56.227 31.761-57.5 24.5 41.206-13.64 68.928-45.199 94.5-78.5l-1-3c-17.155 14.941-28.173 35.609-46 50-12.351 9.97-33.818 21.945-48.5 28 .979-3.495 4.958-4.176 3-8 40.222-16.426 50.106-36.262 74-69l17-12.5c-.615-.697-1.061-1.197-2-1.5-2.912-1.754-11.028-.848-14 0-5.612-1.099-12.832 3.224-16.5 7 1.057-12.428 13.053-13.474 23.5-14 3.761-.189 1.749-4.07 7.5 3 3.642-7.031 5.493-1.857 6-2 .956-.271-2.307-9.009-1.5-10.5z"/><path fill="#3c414b" d="M512 737c-.255 1.95-.404 4.317 2 5-1.979 8.773-.998 16.498 1 25 1.142 29.245 23.337 45.018 46 59 .315.194.976.388 2 1 2.178 7.348 15.23 9.148 21 13.5.005 4.796-30.181-10.25-34.5-12.5-11.651-6.069-23.573-16.208-33.5-20-3.38-1.291-3.635-2.242-8-2-6.861.38-13.134 11.927-19.5 15-2.385 1.151-2.845-2.091-3-2-16.657 9.808-32.441 21.861-52.5 24.5 7.477-5.662 17.747-7.531 25.5-12.5 20.769-13.312 45.914-36.499 48.5-62 .901-8.882-.253-18.035 0-27 .049-1.725 2.99-4.709 3-5z"/><path fill="#9eabaf" d="m428 738-93 56c30.221-17.947 59.597-44.921 93-56"/><path fill="#a6b0b4" d="M467 746c-29.488 10.161-71.058 65.267-103 86-3.779 2.453-5.206 4.747-10 7-.707.332-1.269.715-2 1-2.076-.482 1.572-2.703 2-3 27.92-19.352 70.432-57.91 93.5-83 11.214-12.197-5.945-2.47-10.5 0 12.843-10.766 32.51-20.987 49-12.5-6.523 1.916-12.454 2.244-19 4.5"/><path fill="#8a8f92" d="M535 738c-2.029 2.691.909 2.243 2.5 2 5.376-.82 18.785-5.535 21 1h-11c5.607 1.227 12.414 2.376 17.5 5 13.982 7.215 32.965 27.788 45 39 9.419 8.775 17.432 19.298 27 28l-1 1c-10.64-9.193-20.603-18.6-31-28-15.095-13.649-28.277-31.45-48-39-8.128-3.111-21.943-6.623-30-3-.741-.206-2.049.513-2-1 4.457-2.886 4.608-3.304 10-5"/><path fill="#5d5f63" d="M627 747c-1.541 2.487.04 2.633-2.5 2-1.777-.443-10.603-5.669-13.5-7 2.638-4.065 12.399 3.598 16 5"/><path fill="#6d6c70" d="M614 773c.835.621 2.003 2.265 3 3l-7 9c-12.035-11.212-31.018-31.785-45-39 6.606-2.832-1.945-1.335-.5-5 17.361 9.107 33.725 20.275 49.5 32"/><path fill="#4a4c53" d="M406 744c-30.174 17.214-58.327 44.317-92.5 51-.032 4.225-1.406 5.091-2.5 9-.81 2.894-.86 2.56 1 5-15.168 4.386-29.573 3.655-45 3-4.649-1.271-10.51-1.164-15-2-.994-9.67 4.71-6.886 11-10 33.154-7.354 61.802-26.408 92-41-4.425 8.966-21.656 13.414-27.5 19-.229.219-3.069 5.677-2 6z"/><path fill="#4e4d54" d="m557 747 41.5 47 6.5-8c10.397 9.4 20.36 18.807 31 28 2.544 2.198 5.724 5.446 8 8-4.061 5.489-15.622-10.953-17.5-11l-4.5 7c-9.322-7.776-17.108-17.034-27-24-4.439-4.731-5.13-5.37-10-9 2.665.806 1.437-1.63 1-2.5-.904-1.802-14.512-17.723-16.5-19.5-.067-.06-1.03 1.394-1.5 1-.873-.733.95-1.245-5-5-9.709-10.514-13.111-12.731-29-14-2.801-.224-4.186-.217-7-1 8.057-3.623 21.872-.111 30 3"/><path fill="#6a7279" d="M490 747c-10.447.526-22.443 1.572-23.5 14 3.668-3.776 10.888-8.099 16.5-7-14.942 4.261-59.351 52.542-75 66l-3-3c1.844-1.584 4.189-4.296 6-6 17.706-16.657 46.964-61.839 68.5-66 1.281-.247 10.565-1.182 10.5 2"/><path fill="#6d7074" d="M563 759c-7.333-4.628-21.123-12.005-29-11v-3c15.889 1.269 19.291 3.486 29 14"/><path fill="#737a80" d="m467 746-58 64c-3.563 3.813-8.083 6.682-12 10 .3-1.905-3.007-5.153-4.5-5-1.689.172-19.419 18.281-27.5 19.5l-1-2.5c31.942-20.733 73.512-75.839 103-86"/><path fill="#656f77" d="M354 837c-1.26-4.526-8.166-4.6-12.5-4-.839.116-.398 1.985-.5 2-6.54.983-13.455 2.416-20 3l-4-9.5 1.5-1.5c30.193-5.182 55.281-24.553 78-44 4.191-.315-5.791 9.32-6.5 10-2.163 1.601-6.217 2.866-8 5.5 3.647.605 6.028-3.609 8-5.5 8.144-6.029 16.271-12.366 23-20 4.049-3.152 9.224-5.588 11-11 4.064-2.655 8.75-5.695 13-8 4.555-2.47 21.714-12.197 10.5 0-23.068 25.09-65.58 63.648-93.5 83"/><path fill="#6d6c70" d="m605 786-6.5 8-41.5-47c19.723 7.55 32.905 25.351 48 39"/><path fill="#5c5c62" d="M563 759c1.311 1.42 4.332 4.105 5 5 1.228 1.648 2.432 3.154 4 4.5l-.5 2.5c-8.364-4.523-15.408-11.788-24.5-15-5.885-2.079-15.652-3.136-22-3 .306-1.531-.516-2.794 1.5-4 2.717.829 5.489-.743 7.5-1 7.877-1.005 21.667 6.372 29 11"/><path fill="#2b252b" d="M189 753c-1.512 7.533-2.793 15.785-2 23.5.869 8.458 9.897 26.81 16.5 31.5.248.176.648-2.981 2-2 6.501 4.716 12.513 12.528 20 17 29.356 17.537 62.184 17.973 95.5 15 6.545-.584 13.46-2.017 20-3 3.846-2.136 1.632 1.685.5 2-25.54 7.095-62.258 5.654-88 0 9.568 8.765 28.577 12.004 41.5 12 10.97 3.185 20.325 4.635 33 4-1.693 2.508 9.955 3.031 10.5 3 10.887-.625 25.845-8.432 37.5-9 1.171-.057 6.23-.912 4.5 2l-12.5 3.5c2.438 2.246 7.451-1.543 8.5-1.5.897.037.115 3.038 1 3 3.117-.133 20.348-6.05 27.5-9 14.682-6.055 36.149-18.03 48.5-28 17.827-14.391 28.845-35.059 46-50l1 3c-25.572 33.301-53.294 64.86-94.5 78.5 1.273 7.261 53.65-21.878 57.5-24.5 21.097-14.37 36.471-29.827 43.5-55-2.586 25.501-27.731 48.688-48.5 62-7.753 4.969-18.023 6.838-25.5 12.5 20.059-2.639 35.843-14.692 52.5-24.5.155-.091.615 3.151 3 2 6.366-3.073 12.639-14.62 19.5-15-34.334 42.113-90.542 50.287-142 53-31.516 1.661-71.082-.112-101-11-8.66-3.152-26.636-13.84-35-19-2.866-1.768-6.902-3.653-9-5-24.723-15.87-41.647-37.664-35-69 .044-.208 2.158-2.993 3-3-.072.316.064.679 0 1"/><path fill="#353138" d="M207 752c-.851 9.041-.508 10.219 5 17.5 3.904 5.161 17.881 15.364 24 17.5 9.589 3.348 17.976 3.117 28 3 .661-.008 1.34.028 2 0 5.018-.21 8.084.176 13.5-1 5.808-1.261 27.454-12.269 29-12 8.229 1.432-14.712 11.438-16 12-7.589 3.313-22.814 5.566-28 8-1.828.858-1.35 2.926-1.5 3-6.29 3.114-11.994.33-11 10-12.982-2.416-21.881-7.314-32.5-15-.442-.32-4.254-3.209-3.5 0-5.216-4.771-10.251-9.179-12-16.5-1.395-5.841-3.438-24.847 3-26.5"/><path fill="#3a3a40" d="M497 754c-2.052-.662-10.131 1.172-12.5 2-15.301 5.346-67.089 59.648-85.5 74-1.58 1.232-4.013 2.281-5 3 1.094-4.604 9.663-9.27 14-13 15.649-13.458 60.058-61.739 75-66 2.972-.848 11.088-1.754 14 0"/><path fill="#363842" d="m547 756 67.5 65 3.5-3c5.197 5.309 9.216 2.549 5 12-5.535-4.244-12.096-6.576-17.5-11-15.977-13.079-52-60.387-70-64-2.952-.592-7.325.424-10.5 0 .058-.644-.124-1.381 0-2 6.348-.136 16.115.921 22 3"/><path fill="#8a979d" d="M497 754c.939.303 1.385.803 2 1.5L482 768c.456-.625 5.214-4.864 2.5-5-3.994 3.576-7.215 7.816-10.5 12l-7.5-3c-14.672 14.873-30.292 32.447-46 46-4.093 3.531-16.905 15.548-21.5 12 18.411-14.352 70.199-68.654 85.5-74 2.369-.828 10.448-2.662 12.5-2"/><path fill="#778085" d="M623 830c-1.063 2.384.15.903-2 2-4.73-2.688-9.742-5.657-14-9-11.759-9.232-21.614-21.694-33.5-31-5.649-4.422-15.763-12.319-22.5-13-1.189-1.479-2.69-4.944-4-6.5-.466-.553-5.821-7.313-7-5 5.075 5.089 8.052 11.634 12 17.5-4.179-.188-4.528-.964-7-4-6.585-8.087-12.238-18.253-20-26 3.175.424 7.548-.592 10.5 0 18 3.613 54.023 50.921 70 64 5.404 4.424 11.965 6.756 17.5 11"/><path fill="#67686d" d="M568 764c.47.394 1.433-1.06 1.5-1 1.988 1.777 15.596 17.698 16.5 19.5.437.87 1.665 3.306-1 2.5-.134-.1.078-2.424-1.5-3-1.337 1.354.24 2.619 1.5 3 4.87 3.63 5.561 4.269 10 9a1559 1559 0 0 0 23 24l-3.5 3-67.5-65c9.092 3.212 16.136 10.477 24.5 15l.5-2.5c-1.568-1.346-2.772-2.852-4-4.5"/><path fill="#c7dce4" d="M297 780c-4.586 1.861-8.189 3.467-13 5-6.92-8.588-13.071-17.705-19-27 2.92-.583 5.436 1.437 7.5 3 8.218 6.224 16.807 12.139 24.5 19"/><path fill="#6d7074" d="M568 764c-.668-.895-3.689-3.58-5-5 5.95 3.755 4.127 4.267 5 5"/><path fill="#747e86" d="M413 773c-4.19 3.262-9.26 5.473-12.5 10-2.798-1.761.822-3.835 2-5 3.544-3.503 16.807-12.934 21.5-16-1.776 5.412-6.951 7.848-11 11"/><path fill="#37343a" d="M482 768c-23.894 32.738-33.778 52.574-74 69-2.138.873-11.918 5.326-11 2 17.41-6.778 51.743-24.951 61-41.5 3.255-5.819-.159-5.381 0-6 .105-.411 2.908 1.109 7-3 3.474-3.488 6.397-10.184 9-13.5 3.285-4.184 6.506-8.424 10.5-12 2.714.136-2.044 4.375-2.5 5"/><path fill="#272730" d="M551 779c13.308 16.547 30.791 32.415 48 45 .083.061-2.437.669-.5 2 3.959 2.72 22.504 11.445 27 13 3.154 1.091 10.501 4.003 13.5 1.5-3.187-4.714-12.816-4.167-13.5-4.5-1.106-.538-3.919-3.67-4.5-4 2.15-1.097.937.384 2-2 4.216-9.451.197-6.691-5-12a1559 1559 0 0 1-23-24c9.892 6.966 17.678 16.224 27 24 3.069 2.56 23.863 19.565 25.5 19 .317-.109 2.07-5.778 3-6 .457-.109 6.468 3.259 8.5 4 4.218 1.538 7.396 3.758 11 5 12.217 4.21 5.54-6.505 10.5-8 1.493-.45 17.079 5.74 19 6 12.944 1.754 47.023 1.375 58 0 5.643-.707 11.291-4.241 17-5 3.498 2.578-3.311 3.213-3.5 7-2.605 1.345-4.964 4.152-9 6-28.956 13.261-75.352 14.61-107 13-24.679-1.256-49.152-4.628-73-11l-2.5-5c14.055 5.164 29.037 8.677 44 8l-9.5-2c-39.816-17.14-66.93-45.955-93-79.5.287-9.651 23.954 22.778 25 22.5 15.124 27.812 70.939 55.913 101 62 4.841.98 6.39 2.258 12 2 .315-.014 3.976 2.655 4.5-2-49.843-13.046-82.035-25.222-111.5-69-3.948-5.866-6.925-12.411-12-17.5 1.179-2.313 6.534 4.447 7 5 1.31 1.556 2.811 5.021 4 6.5"/><path fill="#2b2930" d="M561 826c-22.663-13.982-44.858-29.755-46-59 6.774 28.824 23.231 42.283 46 59"/><path fill="#6a737b" d="M474 775c-2.603 3.316-5.526 10.012-9 13.5-4.092 4.109-6.895 2.589-7 3-.159.619 3.255.181 0 6-9.257 16.549-43.59 34.722-61 41.5-3.91 1.522-9.5 1.864-13 3 1.727-3.12 7.062-6.858 10-9 .987-.719 3.42-1.768 5-3 4.595 3.548 17.407-8.469 21.5-12 15.708-13.553 31.328-31.127 46-46z"/><path fill="#29252e" d="M640 791c9.187 7.059 19.833 18.086 32 19 6.114 4.208 13.772 7.937 21.5 10l-.5 3c-12.507-3.448-24.853-8.19-36-15-13.772-8.413-26.84-22.292-40-32-.997-.735-2.165-2.379-3-3 .924-2.167 3.118-.881 4.5 0 6.142 3.912 15.025 13.024 21.5 18"/><path fill="#555f68" d="M682 791c5.68 3.996 16.517 5.64 16 14-1.636-.499-3.376-1.434-5-2 3.222-1.667-.06-2.943-1.5-4-11.722-8.605-26.106-16.978-38.5-25l1-2c9.881 6.424 18.587 12.378 28 19"/><path fill="#4f4d55" d="m657 808-8 15c-3.95-3.26-8.228-6.57-12-10-9.568-8.702-17.581-19.225-27-28l7-9c13.16 9.708 26.228 23.587 40 32"/><path fill="#59585f" d="m607 823-8 1c-17.209-12.585-34.692-28.453-48-45 6.737.681 16.851 8.578 22.5 13 11.886 9.306 21.741 21.768 33.5 31"/><path fill="#4e525a" d="M380 781c2.121 12.736 4.987-1.116 12 1-11.272 8.303-21.051 18.088-33.5 26-2.835 1.802-3.829-.104-4 0-1.867 1.136-1.355 2.915-1.5 3-12.579 5.661-25.187 10.907-39 13-7.207-18.56 15.339-17.765 27.5-23 7.534-3.243 14.313-7.185 21.5-11 5.189-2.754 12.275-6.061 17-9"/><path fill="#373841" d="M545 781c2.472 3.036 2.821 3.812 7 4 29.465 43.778 61.657 55.954 111.5 69-.524 4.655-4.185 1.986-4.5 2-3.033-1.586-10.409-4.49-12-2-30.061-6.087-85.876-34.188-101-62-.329-.606 1.06-1.374 1-1.5-1.337-2.789-7.886-8.316-2-9.5"/><path fill="#4f4d55" d="M585 785c-1.26-.381-2.837-1.646-1.5-3 1.578.576 1.366 2.9 1.5 3"/><path fill="#40404a" d="M660 799c3.852 2.673 7.583 5.358 11.5 8 1.025.691.261 2.836.5 3-12.167-.914-22.813-11.941-32-19 .105-3.136 1.099-2.967 3.5-2 1.349.543 14.617 8.693 16.5 10"/><path fill="#333945" d="M698 805c.517-8.36-10.32-10.004-16-14l54.5 19c-13.156 3.683-25.012-.881-38.5-5"/><path fill="#3b3b44" d="M363 790c-7.187 3.815-13.966 7.757-21.5 11-12.161 5.235-34.707 4.44-27.5 23-12.711 1.926-31.686 2.367-44.5 1-8.374-.894-16.833-6.479-24.5-6-7.871-3.566-21.453-9.885-23-19 16.544 10.993 26.303 11.207 45 12 15.427.655 29.832 1.386 45-3 6.508-1.882 13.42-7.616 17.5-9 1.595-.541 2.425 2.561 4 2 9.94-3.543 19.387-8.903 29.5-12"/><path fill="#2c2e39" d="M670 795c35.473 18.834 94.796 29.033 130 6 1.225 2.809-5.81 8.709-7.5 10-27.244 20.808-67.761 20.749-99.5 12l.5-3c-7.728-2.063-15.386-5.792-21.5-10-.239-.164.525-2.309-.5-3-3.917-2.642-7.648-5.327-11.5-8l2.5-8c1.09-.523 6.299 3.363 7.5 4"/><path fill="#282227" d="M252 810c4.49.836 10.351.729 15 2-18.697-.793-28.456-1.007-45-12-3.213-2.135-3.436-2.654-6-5-.754-3.209 3.058-.32 3.5 0 10.619 7.686 19.518 12.584 32.5 15"/><path fill="#43454b" d="M390 793c-1.972 1.891-4.353 6.105-8 5.5 1.783-2.634 5.837-3.899 8-5.5"/><path fill="url(#f)" d="M516 808c19.744 22.244 37.701 32.439 66 40 23.848 6.372 48.321 9.744 73 11-13.341 10.379-29.337 15.596-45 21-14.41-3.634-28.279-8.334-42-14-19.928-8.229-41.412-18.734-57.5-33-15.169 15.144-38.54 25.948-58.5 34-13.724 5.536-27.92 9.527-42 14-.819-.352-1.233-.659-2-1-14.246-6.323-29.67-11.298-42-21 51.458-2.713 107.666-10.887 142-53 4.365-.242 4.62.709 8 2" style="fill:url(#f)"/>/&gt;<path fill="#26232a" d="M563 827c14.854 8.883 34.188 18.998 51 22l9.5 2c-14.963.677-29.945-2.836-44-8l2.5 5c-28.299-7.561-46.256-17.756-66-40 9.927 3.792 21.849 13.931 33.5 20 4.319 2.25 34.505 17.296 34.5 12.5-5.77-4.352-18.822-6.152-21-13.5"/><path fill="#38363d" d="M411 811c-1.811 1.704-4.156 4.416-6 6-21.068 18.102-48.652 34.58-77 36-12.675.635-22.03-.815-33-4 13.101-.004 44.966-4.309 57-9 .731-.285 1.293-.668 2-1 .126 8.628 5.35 4.914 10.5 3 12.447-4.626 22.626-13.637 32.5-22 3.917-3.318 8.437-6.187 12-10z"/><path fill="#2d272e" d="M353 811c-32.188 18.872-73.181 23.775-108 8 7.667-.479 16.126 5.106 24.5 6 12.814 1.367 31.789.926 44.5-1 13.813-2.093 26.421-7.339 39-13"/><path fill="#323643" d="m644 822 15 13c-2.032-.741-8.043-4.109-8.5-4-.93.222-2.683 5.891-3 6-1.637.565-22.431-16.44-25.5-19l4.5-7c1.878.047 13.439 16.489 17.5 11"/><path fill="#595d65" d="M649 823c6.933 5.722 14.769 10.532 21 17-3.604-1.242-6.782-3.462-11-5l-15-13c-2.276-2.554-5.456-5.802-8-8l1-1c3.772 3.43 8.05 6.74 12 10"/><path fill="#575a62" d="M397 820c-9.874 8.363-20.053 17.374-32.5 22-5.15 1.914-10.374 5.628-10.5-3 4.794-2.253 6.221-4.547 10-7l1 2.5c8.081-1.219 25.811-19.328 27.5-19.5 1.493-.153 4.8 3.095 4.5 5"/><path fill="#4a4c53" d="M408 820c-4.337 3.73-12.906 8.396-14 13-2.938 2.142-8.273 5.88-10 9-1.57.51-7.644 2.951-8 5-11.655.568-26.613 8.375-37.5 9-.545.031-12.193-.492-10.5-3 28.348-1.42 55.932-17.898 77-36z"/><path fill="#3c3941" d="M607 823c4.258 3.343 9.27 6.312 14 9 .581.33 3.394 3.462 4.5 4 .684.333 10.313-.214 13.5 4.5-2.999 2.503-10.346-.409-13.5-1.5-4.496-1.555-23.041-10.28-27-13-1.937-1.331.583-1.939.5-2z"/><path fill="#053650" d="M230 829c48.032 71.354 137.697 129.366 223.5 141 14.361 1.947 29.125 1.158 43.5 3 2.591.332 7.691-1.051 8 3-14.408-.092-29.147.378-43.5-1-95.669-9.183-188.372-71.855-240.5-151 2.098 1.347 6.134 3.232 9 5"/><path fill="#022336" d="M798 829c-56.41 64.061-87.65 103.111-174 131l1-5c65.947-21.331 118.532-62.36 161-116.5 1.37-1.747 5.967-7.173 5-9.5 1.559-.683 4.286-3.061 6.5-3z"/><path fill="url(#g)" d="M265 848c37.246 32.589 94.925 44.51 143 32 .767.341 1.181.648 2 1 2.941 1.263 6.086 2.837 9 4 52.735 21.054 113.242 27.374 167.5 6 3.685-1.452 11.687-4.261 13.5-8 3.43-1.043 6.471-1.782 10-3 15.663-5.404 31.659-10.621 45-21 31.648 1.61 78.044.261 107-13-46.43 70.531-132.739 110.454-214 125-17.102 1.33-34.01-.205-51 2-14.375-1.842-29.139-1.053-43.5-3-85.803-11.634-175.468-69.646-223.5-141 8.364 5.16 26.34 15.848 35 19" style="fill:url(#g)"/>/&gt;<path fill="#2c7a9c" d="M625 955c-24.952 8.071-50.763 13.96-77 16 81.261-14.546 167.57-54.469 214-125 4.036-1.848 6.395-4.655 9-6 6.785-3.503 12.931-7.905 20-11 .967 2.327-3.63 7.753-5 9.5-42.468 54.14-95.053 95.169-161 116.5"/><path fill="#40424a" d="M354 837c-.428.297-4.076 2.518-2 3-12.034 4.691-43.899 8.996-57 9-12.923.004-31.932-3.235-41.5-12 25.742 5.654 62.46 7.095 88 0 1.132-.315 3.346-4.136-.5-2 .102-.015-.339-1.884.5-2 4.334-.6 11.24-.526 12.5 4"/><path fill="#b7d3de" d="M568 866c.325 2.327-1.871 3.067-3.5 4-22.498 12.88-79.926 7.863-105 1-1.405-.385-7.577-2.055-7.5-4 19.96-8.052 43.331-18.856 58.5-34 16.088 14.266 37.572 24.771 57.5 33"/><path fill="#42424a" d="M408 837c1.958 3.824-2.021 4.505-3 8-7.152 2.95-24.383 8.867-27.5 9-.885.038-.103-2.963-1-3-1.049-.043-6.062 3.746-8.5 1.5l12.5-3.5c1.73-2.912-3.329-2.057-4.5-2 .356-2.049 6.43-4.49 8-5 3.5-1.136 9.09-1.478 13-3-.918 3.326 8.862-1.127 11-2"/><path fill="#1c5c7a" d="M366 859c12.33 9.702 27.754 14.677 42 21-48.075 12.51-105.754.589-143-32 29.918 10.888 69.484 12.661 101 11"/><path fill="#373f4a" d="M659 856c-5.61.258-7.159-1.02-12-2 1.591-2.49 8.967.414 12 2"/><path fill="#7bb3c7" d="M610 880c-3.529 1.218-6.57 1.957-10 3-43.004 13.075-75.036 17.976-120.5 13L419 885c-2.914-1.163-6.059-2.737-9-4 14.08-4.473 28.276-8.464 42-14-.077 1.945 6.095 3.615 7.5 4 25.074 6.863 82.502 11.88 105-1 1.629-.933 3.825-1.673 3.5-4 13.721 5.666 27.59 10.366 42 14"/><path fill="#4b9bb7" d="M600 883c-1.813 3.739-9.815 6.548-13.5 8-54.258 21.374-114.765 15.054-167.5-6l60.5 11c45.464 4.976 77.496.075 120.5-13"/><path fill="#115272" d="M624 960c-40.971 13.233-76.112 16.275-119 16-.309-4.051-5.409-2.668-8-3 16.99-2.205 33.898-.67 51-2 26.237-2.04 52.048-7.929 77-16z"/></svg>