<svg xmlns="http://www.w3.org/2000/svg" width="1024" height="1024"><defs><linearGradient id="a" x1="628.222" x2="341.077" y1="171.966" y2="219.177" gradientUnits="userSpaceOnUse"><stop offset="0%" style="stop-color:#95bcca"/><stop offset="100%" style="stop-color:#d3e1e6"/></linearGradient></defs><defs><linearGradient id="b" x1="711.191" x2="232.306" y1="503.581" y2="514.064" gradientUnits="userSpaceOnUse"><stop offset="0%" style="stop-color:#85b1c2"/><stop offset="100%" style="stop-color:#e4eff2"/></linearGradient></defs><defs><linearGradient id="c" x1="632.257" x2="391.105" y1="387.567" y2="630.075" gradientUnits="userSpaceOnUse"><stop offset="0%" style="stop-color:#197eb0"/><stop offset="55.848%" style="stop-color:#32d6f0"/><stop offset="100%" style="stop-color:#2bb8d7"/></linearGradient></defs><defs><linearGradient id="d" x1="509.526" x2="512.438" y1="400.166" y2="616.146" gradientUnits="userSpaceOnUse"><stop offset="0%" style="stop-color:#072f4f"/><stop offset="100%" style="stop-color:#0096ba"/></linearGradient></defs><defs><linearGradient id="e" x1="529.288" x2="495.865" y1="433.463" y2="585.841" gradientUnits="userSpaceOnUse"><stop offset="0%" style="stop-color:#001d3d"/><stop offset="100%" style="stop-color:#016287"/></linearGradient></defs><defs><linearGradient id="f" x1="254.076" x2="192.026" y1="584.039" y2="732.601" gradientUnits="userSpaceOnUse"><stop offset="0%" style="stop-color:#5b96a9"/><stop offset="100%" style="stop-color:#356c82"/></linearGradient></defs><defs><linearGradient id="g" x1="788.81" x2="796.27" y1="566.235" y2="761.093" gradientUnits="userSpaceOnUse"><stop offset="0%" style="stop-color:#5a95a8"/><stop offset="100%" style="stop-color:#33697f"/></linearGradient></defs><path fill="url(#a)" d="M527 107c-.642 2.126 5.342 2.849 6.5 3 28.545 3.724 51.56 11.243 74 30 39.898 33.349 58.284 103.34-1.5 126-53.673-21.279-117.208-24.355-172.5-7-11.958 3.753-54.317 26.809-61 26-12.242-1.482-39.529-46.688-46.5-58-4.002-14.403-11.293-27.296-12-42.5-.008-.18 1.989-2.802 2-3 .07-1.226-3.092-2.624-3-4 .172-2.581 37.408-26.628 42.5-29.5 51.344-28.962 112.347-43.74 171.5-41m-30.5 11c-42.219 2.358-147.845 36.07-175 69-5.501 6.67 2.644 9.056 2.5 16.5 55.21-44.217 121.587-75.241 192.5-83.5l1-2c-6.97.284-14.042-.389-21 0" style="fill:url(#a)"/>/&gt;<path fill="#5e8496" d="M711 179c-2.974-.46-1.765 1.834-2 4-8.709 6.707-10.935 23.139-16 33.5-12.941 26.473-32.368 50.059-59 63.5-9.717-3.784-19.089-10.467-28-14 59.784-22.66 41.398-92.651 1.5-126-22.44-18.757-45.455-26.276-74-30-1.158-.151-7.142-.874-6.5-3 60.845 2.818 138.805 30.408 184 72"/><path fill="#fdfdfd" d="M496.5 118c6.958-.389 14.03.284 21 0l-1 2c-70.913 8.259-137.29 39.283-192.5 83.5.144-7.444-8.001-9.83-2.5-16.5 27.155-32.93 132.781-66.642 175-69"/><path fill="#507c90" d="M711 179c5.352 4.926 6.7 2.999 9 10-5.689 5.876-9.817 13.979-14 21-2.442-1.387-2.664-.149-2.5-3 .36-6.248 4.6-15.692 5.5-24 .235-2.166-.974-4.46 2-4"/><path fill="#396174" d="M709 183c-.9 8.308-5.14 17.752-5.5 24-.164 2.851.058 1.613 2.5 3-7.913 13.284-42.374 72.449-55.5 75-6.33 1.23-11.011-2.862-16.5-5 26.632-13.441 46.059-37.027 59-63.5 5.065-10.361 7.291-26.793 16-33.5"/><path fill="#092c3f" d="M326 227c6.971 11.312 34.258 56.518 46.5 58 6.683.809 49.042-22.247 61-26 55.292-17.355 118.827-14.279 172.5 7 8.911 3.533 18.283 10.216 28 14 5.489 2.138 10.17 6.23 16.5 5 13.126-2.551 47.587-61.716 55.5-75 4.183-7.021 8.311-15.124 14-21 .237.721.981 2.843 1 3 1.474 11.873-9.759 22.018-16 33-13.191 12.938-21.765 32.061-34 46.5-10.331 12.192-15.29 20.689-33 16.5-12.381-2.929-27.624-15.958-39.5-21-41.444-17.594-111.922-16.837-155-5-17.345 4.766-60.497 29.265-73 27-17.827-3.23-55.343-73.635-65.5-90-.74-2.823-.426-6.967-2.5-10l1.5-1.5c5.765 14.102 14.068 26.629 22 39.5"/><path fill="#0d232c" d="M727 193c-4.859 8.41-10.166 16.571-15 25-2.456 4.282-4.641 8.678-7 13-5.438 9.963-10.69 19.97-16 30-11.677 11.403-22.033 49.698-43 41 4.231-.88 7.073.271 11.5-2 10.108-5.185 40.032-61.859 47.5-75 6.241-10.982 17.474-21.127 16-33l3.5 2c2.742-8.009 2.228-1.259 2.5-1"/><path fill="#0b1821" d="M306 207c11.141 17.359 44.315 84.082 57.5 92 3.774 2.266 8.103 3.029 12.5 3v2c-.653.05-1.342.01-2 0-3.084-.045-7.801-.609-10.5-2-10.162-5.238-33.675-47.162-40.5-59-3.516-6.099-6.505-12.805-10-19-5.706-10.112-11.04-20.662-18-30 .23-.177-.474-2.789.5-3 3.741 5.068 7.063 10.644 10.5 16"/><path fill="#4a6e7e" d="M850 414c-2.618-1.033-8.474 2.624-10.5 4-33.072 22.468-42.99 96.266-52.5 133-21.93 84.709-44.156 169.197-64 254.5L703 876c-63.158 34.607-147.109 40.681-218 38l-6-11c53.04 2.789 173.938.023 209-46 6.917-9.079 11.664-22.993 12-36 .297-11.528-1.075-18.276-5-29 2.319-2.112 4.205-9.408 5-12.5 16.562-64.405 34.036-128.361 51-192.5 12.031-45.488 22.549-87.963 24-135.5 2.347-76.879-11.452-174.25-63-233.5 4.834-8.429 10.141-16.59 15-25 74.38 70.96 97.26 122.596 123 221"/><path fill="#9abdcb" d="M295 194c6.96 9.338 12.294 19.888 18 30-9.345 9.766-16.919 21.044-24 32.5-26.346 42.622-53.576 97.524-63 147-1.883 9.886-6.966 44.964-5 53 1.465 5.988 23.855 30.75 24 42L330 783c-8.089 14.682-10.046 31.038-6 47-.264.447-2.875 1.062-3 1.5-1.093 3.814 8.093 19.258 11 23 29.135 37.501 102.645 46.168 147 48.5l6 11c-57.236-2.165-113.991-9.728-165-37-7.134-22.296-13.983-44.863-20-67.5-19.243-72.398-33.681-146.433-54-218.5-4.349-40.788-16.067-85.587-34-122.5-6.971-14.348-22.641-45.157-41-42.5-.326.047-.679-.06-1 0 12.522-82.293 57.86-180.489 125-232m5.5 11c-61.787 52.902-102.211 131.836-114 212 2.41.567 2.498-1.074 3.5-2.5 5.476-7.794 15.883-45.731 21-58 12.872-30.862 27.989-61.839 46-90 9.487-14.834 37.764-45.576 43-57 .441-.962 1.761-3.845.5-4.5"/><path fill="#e3eef1" d="m638 288-4 5c-52.235-42.164-177.113-39.922-233.5-7-4.594 2.682-18.49 15.386-20 16-2.691 1.094-2.389-.014-4.5 0-4.397.029-8.726-.734-12.5-3-13.185-7.918-46.359-74.641-57.5-92 3.854.359-.287-5.281-1-8 10.157 16.365 47.673 86.77 65.5 90 12.503 2.265 55.655-22.234 73-27 43.078-11.837 113.556-12.594 155 5 11.876 5.042 27.119 18.071 39.5 21"/><path fill="#fcfdfe" d="M300.5 205c1.261.655-.059 3.538-.5 4.5-5.236 11.424-33.513 42.166-43 57-18.011 28.161-33.128 59.138-46 90-5.117 12.269-15.524 50.206-21 58-1.002 1.426-1.09 3.067-3.5 2.5 11.789-80.164 52.213-159.098 114-212"/><path fill="#93bbc9" d="m751 587-4-2c21.119-77.102 1.397-161.413-51-221.5-3.644-4.179-10.49-12.12-16-13.5-78.454-84.351-211.805-98.975-305-30 2.853-6.843 1.058-9.504-1-16 .658.01 1.347.05 2 0 10.653-.809 39.821-17.668 53.5-22 70.782-22.418 148.105-16.437 212 22l.5-2.5c-1.878-2.012-4.028-3.587-6-5.5 3.809.026 6.664 4.616 10 6 20.967 8.698 31.323-29.597 43-41-7.716 14.576-12.564 30.489-25 42.5-.116 3.518 6.712-1.922 7.5-2.5 18.396-13.49 30.695-48.75 43.5-67.5l-10-2.5c2.359-4.322 4.544-8.718 7-13 51.548 59.25 65.347 156.621 63 233.5-1.451 47.537-11.969 90.012-24 135.5"/><path fill="url(#b)" d="M323 243c-4.025 1.097-6.901-1.827-5 4.5 1.857 6.179 19.382 34.187 24 41 4.646 6.855 11.16 12.312 16 19-38.109 53.389-81.573 118.423-86 186-.836 12.756-2.29 37.893 7 46.5 5.125 47.554 27.484 87.077 56 124 60.791 78.711 148.796 111.49 247 85 22.809-6.152 43.948-15.656 64-28 50.349-30.995 85.373-78.949 101-136l4 2c-16.964 64.139-34.438 128.095-51 192.5-.795 3.092-2.681 10.388-5 12.5-26.571-72.592-125.034-15.702-180.5-15-54.256.686-153.142-50.916-184.5 6l-85-284.5c-.145-11.25-22.535-36.012-24-42-1.966-8.036 3.117-43.114 5-53 9.424-49.476 36.654-104.378 63-147 7.081-11.456 14.655-22.734 24-32.5 3.495 6.195 6.484 12.901 10 19" style="fill:url(#b)"/>/&gt;<path fill="#5d8697" d="M705 225c-7.468 13.141-37.392 69.815-47.5 75-4.427 2.271-7.269 1.12-11.5 2-3.336-1.384-6.191-5.974-10-6-1.099-1.066-1.633-2.703-2-3l4-5c17.71 4.189 22.669-4.308 33-16.5 12.235-14.439 20.809-33.562 34-46.5"/><path fill="#c7e3ea" d="M689 261c5.31-10.03 10.562-20.037 16-30l10 2.5c-12.805 18.75-25.104 54.01-43.5 67.5-.788.578-7.616 6.018-7.5 2.5 12.436-12.011 17.284-27.924 25-42.5"/><path fill="#a3cfdc" d="M323 243c6.825 11.838 30.338 53.762 40.5 59 2.699 1.391 7.416 1.955 10.5 2 2.058 6.496 3.853 9.157 1 16-69.168 51.193-105.294 133.76-96 220-9.29-8.607-7.836-33.744-7-46.5 4.427-67.577 47.891-132.611 86-186-4.84-6.688-11.354-12.145-16-19-4.618-6.813-22.143-34.821-24-41-1.901-6.327.975-3.403 5-4.5"/><path fill="#76a9bc" d="M634 293c.367.297.901 1.934 2 3 1.972 1.913 4.122 3.488 6 5.5l-.5 2.5c-63.895-38.437-141.218-44.418-212-22-13.679 4.332-42.847 21.191-53.5 22v-2c2.111-.014 1.809 1.094 4.5 0 1.51-.614 15.406-13.318 20-16 56.387-32.922 181.265-35.164 233.5 7"/><path fill="#1a495e" d="M680 350c98.839 106.269 82.128 273.191-40 353-18.911 12.358-38.287 21.528-60 28-90.09 26.855-181.354 1.116-245-67-28.516-36.923-50.875-76.446-56-124-9.294-86.24 26.832-168.807 96-220 93.195-68.975 226.546-54.351 305 30m-361 34C185.266 589.451 420.617 829.256 630 705c125.003-74.181 148.277-244.885 49-351.5-101.917-109.449-278.57-94.599-360 30.5"/><path fill="#67a2b1" d="m630 705-3-9c61.792-36.436 112.894-121.494 105-194.5-.414-3.83-.61-6.943-3-8.5-1.172-.763-2.604 1.623-3 .5-.49-1.39.341-4.676 0-6.5-37.922-202.605-284.51-268.484-396-94l-11-9c81.43-125.099 258.083-139.949 360-30.5 99.277 106.615 76.003 277.319-49 351.5"/><path fill="#24748c" d="M726 487h-7c-2.13-21.35-7.8-38.518-16-58-60.092-142.777-249.309-174.633-351-55.5C232.962 512.955 335.555 723.937 519 717c15.155-.573 30.33-3.165 45-7-.566 10.746 11.618-2.102 16 2-15.671 5.268-38.613 11.01-55 12-176.617 10.675-291.275-180.328-195-331 111.49-174.484 358.078-108.605 396 94"/><path fill="#021b30" d="m703 429-2 2c-1.899-4.286-3.86-7.887-6-12-64.997-124.913-228.872-156.953-330-54-130.62 132.976-35.545 354.054 151 349l3 3c-183.445 6.937-286.038-204.045-167-343.5 101.691-119.133 290.908-87.277 351 55.5"/><path fill="#003973" d="m695 419-17 6c-57.435-108.993-215.446-135.973-306-52l-7-8c101.128-102.953 265.003-70.913 330 54"/><path fill="url(#c)" d="M678 425c31.877 60.493 29.328 140.223-11 196-24.206 33.478-65.026 57.599-105 67-.897.211-2.09-.198-3 0-1.964.427-5.086 1.672-7 2-85.386 14.627-173.372-29.032-214-105.5-31.025-58.393-15.284-165.798 34-211.5 90.554-83.973 248.565-56.993 306 52m-292 64c2.7 1.172 4.946 2.501 8 3-19.77 116.676 124.526 180.907 204 96.5 78.563-83.439-1.615-219.005-111-194.5-.635-4.214-1.528-6.214-3-10-36.545-93.966-184.934 67.264-98 105m88 180c138.42 43.89 254.405-60.326 200-202-7.126-18.557-17.138-38.167-31-52.5 40.578 70.595 34.872 155.476-30.5 208.5-53.477 43.376-124.984 51.432-187 21 12.419 11.658 32.223 19.839 48.5 25" style="fill:url(#c)"/>/&gt;<path fill="#4d7588" d="M747 585c-15.627 57.051-50.651 105.005-101 136l-6-18c122.128-79.809 138.839-246.731 40-353 5.51 1.38 12.356 9.321 16 13.5 52.397 60.087 72.119 144.398 51 221.5"/><path fill="#a9e6f7" d="M484 384c4.132 14.842-7.234 11.447-16.5 16-28.889 14.197-49.047 32.295-63.5 61.5-2.085 4.214-10.01 28.064-11.5 28.5-1.113.326-5.334-3.171-6.5-1-86.934-37.736 61.455-198.966 98-105"/><path fill="#0185a8" d="M372 373c-49.284 45.702-65.025 153.107-34 211.5 40.628 76.468 128.614 120.127 214 105.5 1.251 6.635 1.663 20.145 10.5 16 3.472-2.182-4.748-13.624-3.5-18 .91-.198 2.103.211 3 0l5 18c-16.584 4.636-33.728 7.532-51 8-186.545 5.054-281.62-216.024-151-349Z"/><path fill="#5190a2" d="M330 393c-96.275 150.672 18.383 341.675 195 331l18.5 1c28.931-5.22 58.081-14.012 83.5-29l3 9C420.617 829.256 185.266 589.451 319 384Z"/><path fill="#84d2eb" d="M487 394c1.668 11.067.874 21.464-3 32-2.037.848-4.455 3.377-6 5-.652-1.347-8.028-6.681-9.5-7-21.803-4.728-46.953 27.443-29.5 45-.166.182.166.818 0 1-5.139 5.635-6.078 10.598-12 15-8.566 6.369-22.626 8.693-33 7-3.054-.499-5.3-1.828-8-3 1.166-2.171 5.387 1.326 6.5 1 1.49-.436 9.415-24.286 11.5-28.5 14.453-29.205 34.611-47.303 63.5-61.5 9.266-4.553 20.632-1.158 16.5-16 1.472 3.786 2.365 5.786 3 10"/><path fill="url(#d)" d="M394 492c10.374 1.693 24.434-.631 33-7 1.319 1.503.867 1.706 1 3-8.884 10.972-6.397 33.2-2 46 11.805 54.538 80.223 80.522 127 51 16.81 6.862 33.203-7.149 30-25 25.689-34.414 20.407-86.372-11.5-115-21.39-19.192-60.116-30.4-87.5-19 3.874-10.536 4.668-20.933 3-32 109.385-24.505 189.563 111.061 111 194.5-79.474 84.407-223.77 20.176-204-96.5" style="fill:url(#d)"/>/&gt;<path fill="#224859" d="M850 414c.601 2.296 1.721 10.977 2 11.5 1.502 2.817 13.466 5.129 16 8.5-.229-.113-4.325-.93-5-1-15.554-1.619-16.84 5.297-25 17.5-15.573 23.291-39.796 75.757-49 102.5l-2-2c9.51-36.734 19.428-110.532 52.5-133 2.026-1.376 7.882-5.033 10.5-4"/><path fill="#89dbee" d="M674 467c29.216 109.677-58.341 213.009-170.5 207-9.738-.522-20.359-6.435-29.5-5-16.277-5.161-36.081-13.342-48.5-25 62.016 30.432 133.523 22.376 187-21 65.372-53.024 71.078-137.905 30.5-208.5 13.862 14.333 23.874 33.943 31 52.5"/><path fill="#0186a8" d="M695 419c2.14 4.113 4.101 7.714 6 12 25.005 56.445 20.159 120.8-9 175-4.275 7.946-9.733 14.754-15 22l-10-7c40.328-55.777 42.877-135.507 11-196z"/><path fill="url(#e)" d="M583 560c-2.503-13.946-22.031-19.584-33.5-12-13.014 8.605-10.747 31.184 3.5 37-46.777 29.522-115.195 3.538-127-51 2.449 7.13 9.347 18.696 16 22.5-15.261-21.907-11.553-44.685-14-68.5-.133-1.294.319-1.497-1-3 5.922-4.402 6.861-9.365 12-15 21.737 11.121 46.214-17.075 39-38-.107-.312.124-.745 0-1 1.545-1.623 3.963-4.152 6-5 27.384-11.4 66.11-.192 87.5 19 31.907 28.628 37.189 80.586 11.5 115" style="fill:url(#e)"/>/&gt;<path fill="#fdfeff" d="M478 431c.124.255-.107.688 0 1-13.713 9.594-27.434 24.342-39 37-17.453-17.557 7.697-49.728 29.5-45 1.472.319 8.848 5.653 9.5 7"/><path fill="#629fb1" d="M246 591c-16.47-58.415-40.02-115.323-75-165 18.359-2.657 34.029 28.152 41 42.5 17.933 36.913 29.651 81.712 34 122.5"/><path fill="#0e2631" d="M171 426c34.98 49.677 58.53 106.585 75 165 20.319 72.067 34.757 146.102 54 218.5 6.017 22.637 12.866 45.204 20 67.5-3.411-1.823-7.246-3.084-10-6 1.814.894 5.051.82 6.5 3l-9.5-33c-4.698-10.7-7.976-22.239-11-33.5-28.964-107.873-44.971-227.399-96-327-9.556-18.652-21.839-35.063-31-53.5.068-.018-.371-.743 1-1 .321-.06.674.047 1 0"/><path fill="url(#f)" d="M169 427c9.161 18.437 21.444 34.848 31 53.5 51.029 99.601 67.036 219.127 96 327 3.024 11.261 6.302 22.8 11 33.5-4.324-2.06-7.455-14.387-11.5-16-6.898-2.752 5.598 15.959-1 15-5.792-.842-33.826-53.787-37.5-62-11.117-24.851-17.194-51.411-27-76.5-.759-1.942-1.283-4.807-4-4.5.239-2.591.024-5.428 0-8-.268-28.653-11.101-69-18-97.5-11.368-46.96-26.871-92.854-41-139 27.279 36.354 43.402 79.452 59.5 121.5 3.089-1.496-13.458-46.38-15.5-51.5-7.627-19.126-31.903-72.684-47.5-83.5-1.497-1.038-3.538-2.71-5.5-1-.52-1.879.562-2.679 1-4 .079-.237 4.349-3.058 3-4 2.379-1.214 4.366-2.323 7-3" style="fill:url(#f)"/>/&gt;<path fill="#084964" d="M719 487c4.187 41.965-4.005 83.118-24 120l-3-1c29.159-54.2 34.005-118.555 9-175l2-2c8.2 19.482 13.87 36.65 16 58"/><path fill="#244555" d="M162 430c1.349.942-2.921 3.763-3 4-1.167-.245-4.957.339-5.5 1-2.823 3.44 20.725 74.812 23.5 85.5 6.062 23.35 11.729 46.966 17 70.5l-3.5 2L216 716.5c-24.771 1.984-51.094-10.614-67-29.5.102.013-.309-2.013.5-2 1.965.031 4.888 1.173 5.5 1 12.828-3.636 20.775-17.997 24-30 7.925-29.498.92-62.793-5-92 .945-2.139 8.28-2.607 8.5-3 1.605-2.871-12.456-54.288-14.5-62-3.971-14.983-7.416-30.735-12-45.5-.458-1.474-1.435-5.594-4-3.5.299-.576-.15-2.855 0-4 .626-4.789-1.546-8.72-1-10.5.778-2.538 8.988-4.474 11-5.5"/><path fill="#c0e7f3" d="M478 432c7.214 20.925-17.263 49.121-39 38 .166-.182-.166-.818 0-1 11.566-12.658 25.287-27.406 39-37"/><path fill="url(#g)" d="M863 433c.508 2 .259 3.079 0 5-1.27-2.613-2.905-.23-4 .5-16.254 10.825-40.007 64.385-48 84-2.91 7.142-19.112 48.779-17 53 17.292-40.842 32.392-87.015 61-123-15.737 51.363-32.998 102.553-45 155-5.586 24.409-14.01 56.939-14 81.5 0 .868-.041 2.211 0 3-10.566 25.5-17.231 52.578-28 78-4.114 9.711-34.004 70.823-42.5 70l1-15c-.57-.436-7.937 10.004-8.5 11 21.694-74.224 34.882-150.901 55-225.5 4.724-17.516 10.306-40.956 16-57.5 9.204-26.743 33.427-79.209 49-102.5 8.16-12.203 9.446-19.119 25-17.5" style="fill:url(#g)"/>/&gt;<path fill="#5d9fb4" d="M868 434c.5.247 2.075-.571 2 1-16.523 52.642-30.985 106.099-43 160-8.982 40.295-13.856 81.924-23 122-7.378-3.186-7.612-17.523-8-25-.041-.789 0-2.132 0-3 17.12-50.436 25.344-103.876 39-155.5 7.451-28.167 24.391-68.701 28-95.5.259-1.921.508-3 0-5 .675.07 4.771.887 5 1"/><path fill="#5fa1b6" d="M159 434c-.438 1.321-1.52 2.121-1 4 9.456 31.842 20.472 63.369 29 95.5 13.689 51.575 22.001 105.138 39 155.5.024 2.572.239 5.409 0 8-.553 6-1.306 17.771-8 20-7.077-42.142-14.664-84.318-24-126-5.271-23.534-10.938-47.15-17-70.5-2.775-10.688-26.323-82.06-23.5-85.5.543-.661 4.333-1.245 5.5-1"/><path fill="#244555" d="M868 445c-.299 1.432-.689 2.661-1 4-4.376 18.854-10.214 37.277-15 56-2.18 8.531-19.012 68.343-16.5 71 .333.353 8.117 2.2 9.5 2-4.263 25.063-9.596 52.909-3 78 4.251 16.169 11.078 23.525 26 29 1.32.484 4.858 1.281 5 1.5.11.169-2.774 1.945-2 3.5-17.769 17.463-40.799 27.507-66 27.5L830.5 597l-3.5-2c12.015-53.901 26.477-107.358 43-160 1.709 2.929-1.442 7.331-2 10"/><path fill="#91c3d0" d="M226 689c-16.999-50.362-25.311-103.925-39-155.5-8.528-32.131-19.544-63.658-29-95.5 1.962-1.71 4.003-.038 5.5 1 15.597 10.816 39.873 64.374 47.5 83.5 2.042 5.12 18.589 50.004 15.5 51.5-16.098-42.048-32.221-85.146-59.5-121.5 14.129 46.146 29.632 92.04 41 139 6.899 28.5 17.732 68.847 18 97.5"/><path fill="#8fc1ce" d="M863 438c-3.609 26.799-20.549 67.333-28 95.5-13.656 51.624-21.88 105.064-39 155.5-.01-24.561 8.414-57.091 14-81.5 12.002-52.447 29.263-103.637 45-155-28.608 35.985-43.708 82.158-61 123-2.112-4.221 14.09-45.858 17-53 7.993-19.615 31.746-73.175 48-84 1.095-.73 2.73-3.113 4-.5"/><path fill="#366174" d="M900 619c-3.618-6.677 2.415-19.487 3-27.5.412-5.639-1.21-12.839-1-18.5.531-14.321 1.572-28.63 1-43-.118-2.971.212-6.041 0-9-.595-8.321-6.006-41.066-11-46.5-2.998-3.262-12.502 3.343-15 5.5-.664-3.526 10.839-10.586 11-11.5.4-2.267-16.568-19.281-21-19.5.311-1.339.701-2.568 1-4 16.62 5.413 27.45 21.67 33 37.5 14.049 40.075 7.819 95.669-1 136.5"/><path fill="#376376" d="M152 446c-.15 1.145.299 3.424 0 4-1.097 2.115-18.144 14.263-18 17.5 7.257 4.22 12.468 10.955 16 18.5-2.922-4.051-15.568-15.84-20-11.5-9.13 8.94-10.945 53.409-11 66.5-.087 20.917 1.581 38.432 5 59-4.799.949-1.873 5.898-5 9-7.301-39.869-12.584-110.902 11-145.5 5.053-7.413 13.242-14.992 22-17.5"/><path fill="#528d9e" d="m168 499-11 5c-1.478-7.043-2.684-12.016-7-18-3.532-7.545-8.743-14.28-16-18.5-.144-3.237 16.903-15.385 18-17.5 2.565-2.094 3.542 2.026 4 3.5 4.584 14.765 8.029 30.517 12 45.5"/><path fill="#538e9f" d="M877 480c-9.356 8.079-10.104 17.415-14 28l-11-3c4.786-18.723 10.624-37.146 15-56 4.432.219 21.4 17.233 21 19.5-.161.914-11.664 7.974-11 11.5"/><path fill="#9ae3f3" d="M474 669c9.141-1.435 19.762 4.478 29.5 5 112.159 6.009 199.716-97.323 170.5-207 54.405 141.674-61.58 245.89-200 202"/><path fill="#e0eef2" d="M150 486c4.316 5.984 5.522 10.957 7 18 .067.319-.071.683 0 1 .291 1.306-2.47.117-2 3.5 2.174 15.634 17.636 27.361 3 48-.39.55-7.395 7.738-8 3.5 9.569-6.137 6.624-31.529-3.5-37-11.241-6.075-22.759 2.885-21.5 15 .22 2.113 1.103 3.205 3 4-.584 7.578 2.963 10.745 6 17-7.603-3.765-8.71-13.496-9.5-14-1.146-.732-4.095 4.572-5.5-4 .055-13.091 1.87-57.56 11-66.5 4.432-4.34 17.078 7.449 20 11.5"/><path fill="#dcecf0" d="m903 521-3.5 4c-2.849.121-3.978-16.131-19-13-2.682.559-19.302 14.069-10.5 16-6.045 8.609-7.271 26.725 3 33-20.206-3.319-13.821-30.524-13-45 .857-2.588 2.039-5.39 3-8 3.896-10.585 4.644-19.921 14-28 2.498-2.157 12.002-8.762 15-5.5 4.994 5.434 10.405 38.179 11 46.5"/><path fill="#398fa3" d="M726 487c.341 1.824-.49 5.11 0 6.5.396 1.123 1.828-1.263 3-.5 2.609 97.404-56.01 187.741-149 219-4.382-4.102-16.566 8.746-16-2 11.852-3.099 22.919-7.888 34-13 40.384-18.632 75.728-50.763 97-90 19.995-36.882 28.187-78.035 24-120z"/><path fill="#67c4d4" d="M426 534c-4.397-12.8-6.884-35.028 2-46 2.447 23.815-1.261 46.593 14 68.5-6.653-3.804-13.551-15.37-16-22.5"/><path fill="#bbebf0" d="M627 696c-25.419 14.988-54.569 23.78-83.5 29l-18.5-1c16.387-.99 39.329-6.732 55-12 92.99-31.259 151.609-121.596 149-219 2.39 1.557 2.586 4.67 3 8.5 7.894 73.006-43.208 158.064-105 194.5"/><path fill="#3c7083" d="M174 564c-4.062-20.04-8.117-40.454-17-59-.071-.317.067-.681 0-1l11-5c2.044 7.712 16.105 59.129 14.5 62-.22.393-7.555.861-8.5 3"/><path fill="#b6d4dc" d="M174 564c5.92 29.207 12.925 62.502 5 92-9.361-8.104-23.762-9.715-33.5-16-8.09-5.221-10.265-12.795-17.5-18-1.718-7.027-2.808-14.829-4-22-3.419-20.568-5.087-38.083-5-59 1.405 8.572 4.354 3.268 5.5 4 .79.504 1.897 10.235 9.5 14 5.442 2.695 10.021 4.834 16 1 .605 4.238 7.61-2.95 8-3.5 14.636-20.639-.826-32.366-3-48-.47-3.383 2.291-2.194 2-3.5 8.883 18.546 12.938 38.96 17 59m-28 71c18.408 10.117 23.467-12.731 19-27-12.295-39.272-53.204 8.202-19 27"/><path fill="#3e7184" d="M863 508c-.961 2.61-2.143 5.412-3 8-6.692 20.21-11.431 41.012-15 62-1.383.2-9.167-1.647-9.5-2-2.512-2.657 14.32-62.469 16.5-71z"/><path fill="#f1f7fa" d="M903 521c.212 2.959-.118 6.029 0 9-2.327 2.092-.26 7.074-1 9.5-.158.518-2.508.624-3 2-2.762 7.728-2.967 14.709-12 18.5 3.463-5.039 6.291-8.556 7-15 2.331-1.417 1.784-3.859 2-6 1.835-18.204-16.634-24.339-26-11-8.802-1.931 7.818-15.441 10.5-16 15.022-3.131 16.151 13.121 19 13z"/><path fill="#b4d4dc" d="M873 561c5.92.972 8.149 1.456 14-1 9.033-3.791 9.238-10.772 12-18.5.492-1.376 2.842-1.482 3-2 .74-2.426-1.327-7.408 1-9.5.572 14.37-.469 28.679-1 43-2.682 17.283-4.583 35.058-9 52-8.01 4.44-10.825 12.011-19.5 17-8.82 5.073-22.559 7.603-31.5 14-6.596-25.091-1.263-52.937 3-78 3.569-20.988 8.308-41.79 15-62-.821 14.476-7.206 41.681 13 45m-18 59c.978 16.873 15.263 24.722 27 10 27.487-34.479-29.607-54.963-27-10"/><path fill="#1283a4" d="M150 560c-5.979 3.834-10.558 1.695-16-1-3.037-6.255-6.584-9.422-6-17 1.186-15.395 15.394-20.595 22.5-6 2.977-1.85-3.97-8.425-5-9-6.059-3.384-13.633-1.341-17.5 4.5-1.519 2.295.297 6.647-3 6.5-1.259-12.115 10.259-21.075 21.5-15 10.124 5.471 13.069 30.863 3.5 37m-13.5-30c-8.705 2.639-6.682 25.266 4 21 9.305-3.716 5.812-23.975-4-21m14.5 20c-.081.161-1.878 2.867-2 3-1.229 1.472-5.243 3.19-7 4.5 4.568 2.136 5.794-3.182 7-4.5 1.224-1.466 1.091-.424 2-3 1.397-2.786 6.234-6.246 1.5-12-1.677-.116-.716 9.78-1.5 12"/><path fill="#1782a0" d="M896 539c-2.968-13.934-15.025-20.198-24-6-1.623 2.568-3.347 3.609-4 7.5l1.5 8.5c.801-.122.461-12.924 2.5-16 .183-.277 3.416-2.942 4-1.5-8.485 8.482-4.511 30.223 10.5 23.5 5.767-2.583 6.536-13.273 4.5-18.5-1.583-4.065-8.349-5.928-5.5-8.5 5.241 2.565 9.081 11.719 8.5 17-.709 6.444-3.537 9.961-7 15-5.851 2.456-8.08 1.972-14 1-10.271-6.275-9.045-24.391-3-33 9.366-13.339 27.835-7.204 26 11"/><path fill="#41dded" d="M128 542c-1.897-.795-2.78-1.887-3-4 3.297.147 1.481-4.205 3-6.5 3.867-5.841 11.441-7.884 17.5-4.5 1.03.575 7.977 7.15 5 9-7.106-14.595-21.314-9.395-22.5 6"/><path fill="#01d0f1" d="M896 539c-.216 2.141.331 4.583-2 6 .581-5.281-3.259-14.435-8.5-17-2.849 2.572 3.917 4.435 5.5 8.5 2.036 5.227 1.267 15.917-4.5 18.5-15.011 6.723-18.985-15.018-10.5-23.5-.584-1.442-3.817 1.223-4 1.5 8.975-14.198 21.032-7.934 24 6"/><path fill="#00d2f2" d="M136.5 530c9.812-2.975 13.305 17.284 4 21-10.682 4.266-12.705-18.361-4-21"/><path fill="#01d0f1" d="M872 533c-2.039 3.076-1.699 15.878-2.5 16l-1.5-8.5c.653-3.891 2.377-4.932 4-7.5"/><path fill="#11b1ca" d="M151 550c.784-2.22-.177-12.116 1.5-12 4.734 5.754-.103 9.214-1.5 12"/><path fill="#fefefe" d="M583 560c3.203 17.851-13.19 31.862-30 25-14.247-5.816-16.514-28.395-3.5-37 11.469-7.584 30.997-1.946 33.5 12"/><path fill="#11b1ca" d="M149 553c.122-.133 1.919-2.839 2-3-.909 2.576-.776 1.534-2 3"/><path fill="#0c2633" d="M789 553c-5.694 16.544-11.276 39.984-16 57.5-20.118 74.599-33.306 151.276-55 225.5-6.038 10.675-9.751 27.018-13 39-.964.554-1.471.71-2 1l20-70.5c19.844-85.303 42.07-169.791 64-254.5z"/><path fill="#11b1ca" d="M149 553c-1.206 1.318-2.432 6.636-7 4.5 1.757-1.31 5.771-3.028 7-4.5"/><path fill="#305465" d="M900 619c-5.759 26.663-11.886 48.853-28 71h-1c-.774-1.555 2.11-3.331 2-3.5-.142-.219-3.68-1.016-5-1.5 9.913-19.386 19.463-38.763 25-60 4.417-16.942 6.318-34.717 9-52-.21 5.661 1.412 12.861 1 18.5-.585 8.013-6.618 20.823-3 27.5"/><path fill="#142936" d="M194 591c9.336 41.682 16.923 83.858 24 126 .58 1.89-.646 1.627-1 2-12.676 13.359-66.273-14.421-70-33 .634.354 1.331.918 2 1 15.906 18.886 42.229 31.484 67 29.5L190.5 593z"/><path fill="#1281a3" d="M165 608c-2.216 3.13-.213 7.302-1 10.5-.211.857-1.969.402-2 .5 5.105-25.337-29.257-29.119-25.5-2 14.212-42.983 43.756 14.309 6.5 11.5 3.656 4.711 7.846 3.605 13 2.5-3.714 2.923-5.81 2.69-10 4-34.204-18.798 6.705-66.272 19-27m-19.5-4c-6.135 1.839-8.755 27.188 7 23 11.515-3.061 5.168-26.648-7-23m-9 14c-1.189 3.044 1.476 6.612 4 8z"/><path fill="#197994" d="M882 630c-1.371.139-2.665.649-4 1 26.687-27.477-18.796-52.739-18-10-.857-1.299-2.047-2.364-2.5-4l-2.5 3c-2.607-44.963 54.487-24.479 27 10"/><path fill="#122834" d="M871 690h1c-16.062 22.074-38.878 35.199-67 30 .177-.742-1.41-1.201-1-3 9.144-40.076 14.018-81.705 23-122l3.5 2L805 717.5c25.201.007 48.231-10.037 66-27.5"/><path fill="#05afd3" d="M162 619c-1.505 4.726-1.276 8.282-6 12-5.154 1.105-9.344 2.211-13-2.5 37.256 2.809 7.712-54.483-6.5-11.5-3.757-27.119 30.605-23.337 25.5 2"/><path fill="#00cff3" d="M878 631c-11.806 3.102-12.632-1.86-18-10-.796-42.739 44.687-17.477 18 10m-8.5-30c-3.147.814-8.314 9.467-8 13 17.249-30.707 33.929 20.647 3.5 11.5 20.524 17.98 25.592-29.955 4.5-24.5"/><path fill="#325768" d="M128 622c5.547 22.692 14.962 44.058 27 64-.612.173-3.535-.969-5.5-1-.809-.013-.398 2.013-.5 2-.669-.082-1.366-.646-2-1-10.272-5.73-25.623-64.019-28-77 3.127-3.102.201-8.051 5-9 1.192 7.171 2.282 14.973 4 22"/><path fill="#0690bc" d="M869.5 601c21.092-5.455 16.024 42.48-4.5 24.5 30.429 9.147 13.749-42.207-3.5-11.5-.314-3.533 4.853-12.186 8-13"/><path fill="#00caef" d="M145.5 604c12.168-3.648 18.515 19.939 7 23-15.755 4.188-13.135-21.161-7-23"/><path fill="#18758c" d="M695 607c-21.272 39.237-56.616 71.368-97 90l-1-2c32.548-14.802 59.176-38.351 80-67 5.267-7.246 10.725-14.054 15-22z"/><path fill="#588690" d="M146 635c4.19-1.31 6.286-1.077 10-4 4.724-3.718 4.495-7.274 6-12 .031-.098 1.789.357 2-.5.787-3.198-1.216-7.37 1-10.5 4.467 14.269-.592 37.117-19 27"/><path fill="#528693" d="M860 621c5.368 8.14 6.194 13.102 18 10 1.335-.351 2.629-.861 4-1-11.737 14.722-26.022 6.873-27-10l2.5-3c.453 1.636 1.643 2.701 2.5 4"/><path fill="#05afd3" d="m136.5 618 4 8c-2.524-1.388-5.189-4.956-4-8"/><path fill="#0cc6e3" d="M677 628c-20.824 28.649-47.452 52.198-80 67-8.52 3.875-21.003 8.485-30 11l-5-18c39.974-9.401 80.794-33.522 105-67z"/><path fill="#5e8292" d="M179 656c-3.225 12.003-11.172 26.364-24 30-12.038-19.942-21.453-41.308-27-64 7.235 5.205 9.41 12.779 17.5 18 9.738 6.285 24.139 7.896 33.5 16"/><path fill="#5c8191" d="M893 625c-5.537 21.237-15.087 40.614-25 60-14.922-5.475-21.749-12.831-26-29 8.941-6.397 22.68-8.927 31.5-14 8.675-4.989 11.49-12.56 19.5-17"/><path fill="#6693a8" d="m580 731 2 18c-98.204 26.49-186.209-6.289-247-85 63.646 68.116 154.91 93.855 245 67"/><path fill="#0cc6e3" d="M552 690c1.914-.328 5.036-1.573 7-2-1.248 4.376 6.972 15.818 3.5 18-8.837 4.145-9.249-9.365-10.5-16"/><path fill="#2b5365" d="M804 717c-.41 1.799 1.177 2.258 1 3-2.621 10.988-18.313 43.142-24 55l-13-5c10.769-25.422 17.434-52.5 28-78 .388 7.477.622 21.814 8 25"/><path fill="#0d4d5e" d="m597 695 1 2c-11.081 5.112-22.148 9.901-34 13-14.67 3.835-29.845 6.427-45 7l-3-3c17.272-.468 34.416-3.364 51-8 8.997-2.515 21.48-7.125 30-11"/><path fill="#2c5365" d="m257 778-13 4c-10.102-20.519-17.613-42.177-27-63 .354-.373 1.58-.11 1-2 6.694-2.229 7.447-14 8-20 2.717-.307 3.241 2.558 4 4.5 9.806 25.089 15.883 51.649 27 76.5"/><path fill="#578196" d="M646 721c-20.052 12.344-41.191 21.848-64 28l-2-18c21.713-6.472 41.089-15.642 60-28z"/><path fill="#1d2023" d="M695 792c3.925 10.724 5.297 17.472 5 29-2.06.609-2.714-3.686-3-5-22.425-103.183-106.618-37.749-176.5-35-56.525 2.224-157.299-51.435-187.5 6-6.609 12.569-10.344 23.541-7 38-1.668 1.082-.611 2.65-2 5-4.046-15.962-2.089-32.318 6-47 31.358-56.916 130.244-5.314 184.5-6 55.466-.702 153.929-57.592 180.5 15"/><path fill="#80bcc7" d="M697 816c.414 5.082-.653 10.211-2 15 2.049-14.899-3.951-10.762-6-13.5-.945-1.263-3.218-9.342-5-12-2.465-3.677-5.286-7.035-8-10.5-22.325-28.501-40.552-23.765-73-17-28.304 5.901-56.13 16.9-85.5 18-35.861 1.343-69.735-11.224-104.5-17-25.055-4.162-56.906-10.825-68 20l-12-12c30.201-57.435 130.975-3.776 187.5-6 69.882-2.749 154.075-68.183 176.5 35"/><path fill="#224151" d="M781 775c-17.151 35.762-40.763 79.75-76 100 3.249-11.982 6.962-28.325 13-39 .563-.996 7.93-11.436 8.5-11l-1 15c8.496.823 38.386-60.289 42.5-70z"/><path fill="#121e23" d="M676 795c.936 6.174 5.966 17.204 1 23 .647-14.304-4.615-30.048-18.5-37-17.445-8.734-37.075-3.49-55.5-3 32.448-6.765 50.675-11.501 73 17"/><path fill="#121d23" d="M413 779c-23.432-.368-55.413-7.373-66 20.5-2.837 7.47-1.869 14.792-5 21.5-.443-8.085.271-14.418 3-22 11.094-30.825 42.945-24.162 68-20"/><path fill="#396672" d="M677 818c-.015.333.021.668 0 1-.378 6-2.883 9.549-3 15-.58.9-1.301 2.252-2 3-2.164 2.315-7.456 7.061-8 3 23.851-32.18 2.744-61.537-36.5-59-49.94 3.229-78.232 32.757-139 24-33.061-4.764-129.612-49.85-140.5 3.5-7.713 37.793 28.593 46.978 53.5 59.5 2.256 1.134 3.37 1.395 1.5 4-22.645-6.712-43.996-17.267-58-37-.827-4.777-2.744-9.326-3-14 3.131-6.708 2.163-14.03 5-21.5 10.587-27.873 42.568-20.868 66-20.5 34.765 5.776 68.639 18.343 104.5 17 29.37-1.1 57.196-12.099 85.5-18 18.425-.49 38.055-5.734 55.5 3 13.885 6.952 19.147 22.696 18.5 37"/><path fill="#22404f" d="M257 778c3.674 8.213 31.708 61.158 37.5 62 6.598.959-5.898-17.752 1-15 4.045 1.613 7.176 13.94 11.5 16l9.5 33c-1.449-2.18-4.686-2.106-6.5-3-23.479-11.571-54.324-65.284-66-89z"/><path fill="#19171b" d="M664 840c-4.372 5.899-10.978 10.9-17 15 .135-14.63-2.37-25.716-16.5-33-.983.025-10.462 9.758-10.5 10.5-.054 1.061 11.073 16.177 6 19.5-1.862-8.985-5.781-18.331-12.5-25l-9.5 44.5c22.657-2.68 13.404-16.041 13.5-32.5l5.5 24.5c2.527 2.115 3.789-1.467 4-1.5.981-.153 1.414-1.026 1.5-1 .346.103 1.006 2.262 1.5 3-7.782 4.013-11.772 5.029-19.5 8-1.97.757-1.193 3.714-2 4-4.669 1.655-18.417 4.024-24 5-50.381 8.809-132.466 5.535-181.5-9 1.87-2.605.756-2.866-1.5-4-24.907-12.522-61.213-21.707-53.5-59.5 10.888-53.35 107.439-8.264 140.5-3.5 60.768 8.757 89.06-20.771 139-24 39.244-2.537 60.351 26.82 36.5 59m-38.5-55c-.765.115-5.225 1.609-5.5 2.5 5.58 13.204 4.817 27.985 1.5 41.5 7.867-3.542 15.567-41.982 11-44-2.238.225-4.843-.323-7 0M401 814c1.597 2.906 11.782 19.455 15 18l27-34.5c-.182-2.199-12.616-4.931-15-5.5-3.549-.847-13.472-4.981-16-1.5-2.502 3.446-.645 21.9 1 26.5l-2 3c-3.223-11.519-3.402-19.707-1-31.5-.895-1.729-16.924-3.491-18-2-.13 7.007 2.528 13.188 5 19.5-6.657-.9-5.403-18.706-8.5-20-33.363-.211-46.203 43.979-18 62-2.183-18.349 10.838-38.28 30.5-34m210.5-27c-1.329.03-25.331 6.182-25.5 7.5l32.5 33.5c4.326-.851 2.742-35.295-.5-39.5-1.712-2.22-4.223-1.552-6.5-1.5m27 0-7.5 31.5c4.99 2.312 11.63 5.2 15 10 2.575 3.667 5.017 18.214 7.5 17.5 20.86-21.664 20.165-55.798-15-59M461 859c-15.769-1.849-25.179-25.181-34-31-.206-.136-.977-2.618-2.5-2-12.841 10.599-20.135 23.214-18.5 40.5 2.798 3.524 7.207 3.221 11 4.5 1.639.553 2.739.641 4 1 2.673.762 4.838.56 7 1 3.531.718 6.303 1.536 10 2 2.575.323 11.427 3.259 13.5 2 .603-.366 4.211-10.572 5.5-13 .085-.159 2.927-1.835 3-2 .704 3.715-1.6 13.517 1.5 16 1.39 1.114 31.305 3.048 35.5 3 6.775-.077 18.215 2.89 18-6 .886-.277 3.976-4.2 4-4.5.32-3.972-17.585-36.94-21-42.5l-10.5-20c-9.88 9.81-17.014 21.862-22.5 34.5-2.005 4.618-2.239 12.326-4 16.5m92.5-43c-2.099 7.216-29.665 47.58-29.5 50.5.171 3.037 4.676 3.115 5 4 .198.539-3.017 8.932.5 10.5 1.058.472 12.361-.44 13-1 1.962-1.721-1.596-2.39-1.5-2.5.882-1.011 3.07.249 5-4 6.425-14.144 7.15-34.144 8.5-49.5 1.388 18.672.342 38.303-7.5 55.5l23-2-7.5-44.5 10.5 41.5 4 2c1.793-21.388-4.742-47.947-23.5-60.5m27.5 51c.682 1.775 5.037 8.624 6.5 9 15.156 3.893 19.491-18.813 21.5-29.5.189-1.005 2.144-9.893-1-9.5.479-1.123 4.196-7.172.5-7-1.049 7.148-28.892 27.505-29.5 29.5-.907 2.975 1.088 5.127 2 7.5m-123.5 0c-2.18 5.116-8.886 13.574 1.5 10.5zm123 3c-2.693.113-2.377 10.305 3 7 1.9-1.168-2.62-7.016-3-7m-61 4-4 7c5.974.842 6.895-2.417 4-7"/><path fill="#ece9e7" d="M625.5 785c2.157-.323 4.762.225 7 0 4.567 2.018-3.133 40.458-11 44 3.317-13.515 4.08-28.296-1.5-41.5.275-.891 4.735-2.385 5.5-2.5"/><path fill="#343135" d="M397 806c.975 2.49 2.683 5.603 4 8-19.662-4.28-32.683 15.651-30.5 34-28.203-18.021-15.363-62.211 18-62 3.097 1.294 1.843 19.1 8.5 20"/><path fill="#f1edec" d="M411 820c1.148 4.103 2.718 8.37 5 12-3.218 1.455-13.403-15.094-15-18-1.317-2.397-3.025-5.51-4-8-2.472-6.312-5.13-12.493-5-19.5 1.076-1.491 17.105.271 18 2-2.402 11.793-2.223 19.981 1 31.5"/><path fill="#60a4b3" d="M345 799c-2.729 7.582-3.443 13.915-3 22 .256 4.674 2.173 9.223 3 14 2.36 13.63-3.043 4.173-5 8.5 1.482 1.825 3.782 6.05 5 7.5-7.377-5.915-16.821-16.578-19-26-3.344-14.459.391-25.431 7-38z"/><path fill="#e8e4e2" d="M611.5 787c2.277-.052 4.788-.72 6.5 1.5 3.242 4.205 4.826 38.649.5 39.5L586 794.5c.169-1.318 24.171-7.47 25.5-7.5"/><path fill="#2e2b2f" d="M638.5 787c35.165 3.202 35.86 37.336 15 59-2.483.714-4.925-13.833-7.5-17.5-3.37-4.8-10.01-7.688-15-10z"/><path fill="#e4dfdd" d="M428 792c-5.931 8.742-11.176 18.485-11 29.5-5.165.922-3.324-2.61-4-4.5-1.645-4.6-3.502-23.054-1-26.5 2.528-3.481 12.451.653 16 1.5"/><path fill="#7f7d7e" d="M416 832c-2.282-3.63-3.852-7.897-5-12l2-3c.676 1.89-1.165 5.422 4 4.5-.176-11.015 5.069-20.758 11-29.5 2.384.569 14.818 3.301 15 5.5z"/><path fill="#438498" d="M695 831c-4.917 17.476-11.135 19.355-22.5 31-1.47 1.506-3.029 2.9.5 3-25.756 16.054-59.085 23.188-89 27-4.113-1.655 5.169-3.921 5.5-4 28.625-6.839 67.435-18.418 82.5-46.5.337-.628 3.164-5.175 0-4.5.699-.748 1.42-2.1 2-3 1.437-2.231 7.626-13.078 3-15 .021-.332-.015-.667 0-1 4.966-5.796-.064-16.826-1-23 2.714 3.465 5.535 6.823 8 10.5 1.782 2.658 4.055 10.737 5 12 2.049 2.738 8.049-1.399 6 13.5"/><path fill="#f0ecec" d="M498 828c-2.231-3.633-5.261-9.811-8.5-11l.5 2c-6.618 4.9-1.203 57.418 1 59.5 1.627 1.538 6.305-1.275 6 2.5-4.195.048-34.11-1.886-35.5-3-3.1-2.483-.796-12.285-1.5-16 .69-1.545.699-2.287 1-3 1.761-4.174 1.995-11.882 4-16.5 5.486-12.638 12.62-24.69 22.5-34.5z"/><path fill="#eae6e4" d="M553.5 816c18.758 12.553 25.293 39.112 23.5 60.5l-4-2-10.5-41.5 7.5 44.5-23 2c7.842-17.197 8.888-36.828 7.5-55.5-1.35 15.356-2.075 35.356-8.5 49.5-1.93 4.249-4.118 2.989-5 4-.096.11 3.462.779 1.5 2.5-.639.56-11.942 1.472-13 1-3.517-1.568-.302-9.961-.5-10.5-.324-.885-4.829-.963-5-4-.165-2.92 27.401-43.284 29.5-50.5"/><path fill="#295263" d="M700 821c-.336 13.007-5.083 26.921-12 36l-15 8c-3.529-.1-1.97-1.494-.5-3 11.365-11.645 17.583-13.524 22.5-31 1.347-4.789 2.414-9.918 2-15 .286 1.314.94 5.609 3 5"/><path fill="#746f70" d="M498 828c3.415 5.56 21.32 38.528 21 42.5-.024.3-3.114 4.223-4 4.5-.289-11.926-22.388-42.349-25-56l-.5-2c3.239 1.189 6.269 7.367 8.5 11"/><path fill="#e0dbdb" d="M515 875c.215 8.89-11.225 5.923-18 6 .305-3.775-4.373-.962-6-2.5-2.203-2.082-7.618-54.6-1-59.5 2.612 13.651 24.711 44.074 25 56"/><path fill="#234752" d="M674 834c.117-5.451 2.622-9 3-15 4.626 1.922-1.563 12.769-3 15"/><path fill="#1e161a" d="M647 855c-5.445 3.708-11.218 6.019-17 9-.494-.738-1.154-2.897-1.5-3-.086-.026-.519.847-1.5 1 .535-3.603-.289-6.568-1-10 5.073-3.323-6.054-18.439-6-19.5.038-.742 9.517-10.475 10.5-10.5 14.13 7.284 16.635 18.37 16.5 33"/><path fill="#2f6b84" d="M345 851c4.839 5.759 32.65 20.79 40.5 24 16.581 6.781 35.118 10.494 53 12l-.5 4c-36.6-4.719-103.392-19.144-114-61 1.389-2.35.332-3.918 2-5 2.179 9.422 11.623 20.085 19 26"/><path fill="#f1eeed" d="M427 828c-2.419 2.376-.182 6.149 0 9 .886 13.863 4.077 25.844 11 38-3.697-.464-6.469-1.282-10-2-1.39-4.91-3.096-19.182-9-20 .143-5.02 2.507-9.898 1.5-15-4.391 10.447-3.406 21.945-3.5 33-3.793-1.279-8.202-.976-11-4.5-1.635-17.286 5.659-29.901 18.5-40.5 1.523-.618 2.294 1.864 2.5 2"/><path fill="#ede8e6" d="M626 852c.711 3.432 1.535 6.397 1 10-.211.033-1.473 3.615-4 1.5l-5.5-24.5c-.096 16.459 9.157 29.82-13.5 32.5l9.5-44.5c6.719 6.669 10.638 16.015 12.5 25"/><path fill="#615f60" d="M461 859c-.301.713-.31 1.455-1 3-.073.165-2.915 1.841-3 2-13.132-6.822-23.712-12.665-30-27-.182-2.851-2.419-6.624 0-9 8.821 5.819 18.231 29.151 34 31"/><path fill="#eaf5f9" d="M438 891c46.78 6.031 99.208 6.963 146 1 29.915-3.812 63.244-10.946 89-27l15-8c-35.062 46.023-155.96 48.789-209 46-44.355-2.332-117.865-10.999-147-48.5-2.907-3.742-12.093-19.186-11-23 .125-.438 2.736-1.053 3-1.5 10.608 41.856 77.4 56.281 114 61"/><path fill="#838181" d="M608 837c-4.766 11.174-17.546 22.525-27 30-.912-2.373-2.907-4.525-2-7.5.608-1.995 28.451-22.352 29.5-29.5 3.696-.172-.021 5.877-.5 7"/><path fill="#4e8c9b" d="M403 872c49.034 14.535 131.119 17.809 181.5 9 5.583-.976 19.331-3.345 24-5 .807-.286.03-3.243 2-4 7.728-2.971 11.718-3.987 19.5-8 5.782-2.981 11.555-5.292 17-9 6.022-4.1 12.628-9.101 17-15 .544 4.061 5.836-.685 8-3 3.164-.675.337 3.872 0 4.5-15.065 28.082-53.875 39.661-82.5 46.5-.331.079-9.613 2.345-5.5 4-46.792 5.963-99.22 5.031-146-1l.5-4c-17.882-1.506-36.419-5.219-53-12-7.85-3.21-35.661-18.241-40.5-24-1.218-1.45-3.518-5.675-5-7.5 1.957-4.327 7.36 5.13 5-8.5 14.004 19.733 35.355 30.288 58 37"/><path fill="#a49f9d" d="M457 864c-1.289 2.428-4.897 12.634-5.5 13-2.073 1.259-10.925-1.677-13.5-2-6.923-12.156-10.114-24.137-11-38 6.288 14.335 16.868 20.178 30 27"/><path fill="#e5e0de" d="M581 867c9.454-7.475 22.234-18.826 27-30 3.144-.393 1.189 8.495 1 9.5-2.009 10.687-6.344 33.393-21.5 29.5-1.463-.376-5.818-7.225-6.5-9"/><path fill="#817678" d="M419 853c-.182 6.394-.339 12.901 2 19-1.261-.359-2.361-.447-4-1 .094-11.055-.891-22.553 3.5-33 1.007 5.102-1.357 9.98-1.5 15"/><path fill="#eae4e2" d="M428 873c-2.162-.44-4.327-.238-7-1-2.339-6.099-2.182-12.606-2-19 5.904.818 7.61 15.09 9 20"/><path fill="#585557" d="m457.5 867 1.5 10.5c-10.386 3.074-3.68-5.384-1.5-10.5"/><path fill="#646365" d="M580.5 870c.38-.016 4.9 5.832 3 7-5.377 3.305-5.693-6.887-3-7"/><path fill="#535355" d="M519.5 874c2.895 4.583 1.974 7.842-4 7z"/></svg>