<svg xmlns="http://www.w3.org/2000/svg" width="1024" height="1024"><defs><linearGradient id="a" x1="141.714" x2="155.474" y1="172.094" y2="341.536" gradientUnits="userSpaceOnUse"><stop offset="0%" style="stop-color:#1fa2de"/><stop offset="100%" style="stop-color:#1772a3"/></linearGradient></defs><defs><linearGradient id="b" x1="910.255" x2="832.265" y1="181.281" y2="330.081" gradientUnits="userSpaceOnUse"><stop offset="0%" style="stop-color:#20a4e0"/><stop offset="100%" style="stop-color:#176e9f"/></linearGradient></defs><defs><linearGradient id="c" x1="301.116" x2="731.441" y1="229.35" y2="692.215" gradientUnits="userSpaceOnUse"><stop offset="5.696%" style="stop-color:#e6f4f9"/><stop offset="56.962%" style="stop-color:#aac7d3"/><stop offset="100%" style="stop-color:#69909f"/></linearGradient></defs><defs><linearGradient id="d" x1="384.822" x2="626.426" y1="334.172" y2="601.057" gradientUnits="userSpaceOnUse"><stop offset="0%" style="stop-color:#e3eff3"/><stop offset="100%" style="stop-color:#6a96a3"/></linearGradient></defs><defs><linearGradient id="e" x1="425.015" x2="435.707" y1="348.339" y2="457.818" gradientUnits="userSpaceOnUse"><stop offset="0%" style="stop-color:#e3f8fd"/><stop offset="100%" style="stop-color:#b9e9f4"/></linearGradient></defs><defs><linearGradient id="f" x1="466.435" x2="558.154" y1="370.897" y2="590.514" gradientUnits="userSpaceOnUse"><stop offset="0%" style="stop-color:#0c6b9a"/><stop offset="65.126%" style="stop-color:#03305d"/></linearGradient></defs><defs><linearGradient id="g" x1="308.629" x2="740.114" y1="535.567" y2="794.08" gradientUnits="userSpaceOnUse"><stop offset="19.085%" style="stop-color:#8daab9"/><stop offset="100%" style="stop-color:#466d7e"/></linearGradient></defs><defs><linearGradient id="h" x1="702.302" x2="341.133" y1="715.375" y2="839.796" gradientUnits="userSpaceOnUse"><stop offset="0%" style="stop-color:#44697a"/><stop offset="49.215%" style="stop-color:#bed1dc"/><stop offset="100%" style="stop-color:#f0f5f8"/></linearGradient></defs><defs><linearGradient id="i" x1="698.52" x2="579.948" y1="857.525" y2="926.153" gradientUnits="userSpaceOnUse"><stop offset="0%" style="stop-color:#476a78"/><stop offset="100%" style="stop-color:#7191a2"/></linearGradient></defs><path fill="#1f6682" d="M224 271c1.972 1.435 3.485.718 4 1.5-34.664 36.906-55.222 83.313-72 130.5-.426-2.362 1.637-4.086 1-6.5-.715-2.709-23.877-29.348-28-36-55.158-88.99-51.053-220.042-11-313-1.577 86.462 35.786 172.416 106 223.5M95 181c-.031.702-1.989 5.203-2 5.5-2.581 69.643 17.611 142.141 65.5 193.5 2.177-.01 6.822-13.073 6.5-16l29-55c.862.429 1.607 1.255 2.5 1l22.5-31c-15.218-15.502-33.473-28.819-47-46-28.966-36.791-45.714-81.907-52-128-2.006-14.708-2.335-29.733-4-44.5l-2-1C99.719 98.419 96.844 139.79 95 181"/><path fill="#1e5f7b" d="M868 404h-1c-2.549-9.096-13.023-30.459-14-37.5-.194-1.402-.513-4.631 2-3 .78 3.213 3.679 10.558 6 12.5.73.611 1.946 1.024 2.5 2 41.526-45.476 68.391-118.538 64.5-180.5-.103-1.643-.604-10.363-3-10.5 2.418-39.713-4.479-83.462-16-121.5-.466-1.538-3.225-10.303-6-9.5.067-.77.063-8.679 2-7.5 37.362 98.41 43.698 220.979-14 313-4.844 7.725-25.21 30.396-25 37 .018.572 2.987 3.587 2 5.5"/><path fill="#26c1e8" d="M925 187c-.718 11.791-2.27 27.082-5 38.5-1.541 6.443-5.503 20.691-11 23.5 8.739-36.054 11.572-76.559 8.5-113-2.152 2.213-9.224 3.245-11 5-2.397 2.369-8.472 42.631-10.5 50.5-6.886 26.715-19.713 59.681-36 82-5.112 7.006-28.722 29.137-30 32.5-4.159 2.496-7.872-6.387-10.5-9-.744-.74-1.923 1.081-2 1-4.405-4.634-8.527-11.24-11.5-17 3.435.961 10.748-5.556 13.5-8 11.069-9.828 20.876-21.772 30.5-33 32.175-37.537 54.934-82.461 53.5-134-.06-2.144.464-3.092-2.5-3 .377-4.788 2.275-10.525 0-15 1.334-10.641 1.081-21.363 2-32 2.775-.803 5.534 7.962 6 9.5 11.521 38.038 18.418 81.787 16 121.5m-113.5 97c-1.394.18.35 3.084 1 3 1.394-.18-.35-3.084-1-3"/><path fill="#1bcaed" d="M120 105c-3.283.278-2.162 8.553-2 10.5 1.54 18.525 8.956 56.543 16 73.5l-9 3c-4.019-16.723-5.776-35.385-8-52.5-17.722-15.184-15.946 8.005-16 21-.127 30.361 6.069 70.306 14 99.5-6.145 4.222-10.983-14.584-12-18.5-4.945-19.032-4.052-41.225-8-60.5 1.844-41.21 4.719-82.581 19-121.5l2 1c1.665 14.767 1.994 29.792 4 44.5"/><path fill="#2c667d" d="M901 103c-4.115 52.256-29.333 105.863-65 144-11.011 9.428-21.842 21.885-33 31.5.363.929 2.91 2.326 3 2.5 2.973 5.76 7.095 12.366 11.5 17 .077.081 1.256-1.74 2-1 2.628 2.613 6.341 11.496 10.5 9-2.697 7.098 9.361 21.022 13 28.5 3.615 7.429 6.387 25.796 15 27.5-1.688 6.588 3.216 7.353 3 14-2.321-1.942-5.22-9.287-6-12.5-2.513-1.631-2.194 1.598-2 3 .977 7.041 11.451 28.404 14 37.5 18.597 66.36 17.926 137.359 4 204.5-1.502 7.243-4.556 14.987-7 22 2.081 3.029 3.363.749 5 .5 1.407-.214 4.568-1.763 6-2-.777 4.831 2.661 3.053 5 5-5.473 1.313-18.049 3.133-21 7.5-2.247 3.325-8.924 24.742-12 31.5l-60 97c-.501.597-.927.913-1 1-1.725 1.711-5.537-2.149-6.5-2-3.412.529-39.681 46.066-51.5 46 18.009-14.337 34.768-30.798 50-48 3.767-4.254 8.47-7.854 12-12.5 4.83-6.356 14.513-18.227 12-25.5 59.978-89.506 79.323-198.13 56-303-9.676-43.509-18.505-68.248-42-106-9.343-15.012-47.148-68.563-62-74-10.919-10.372-23.652-21.452-36-30l4-2.5c-4.001-1.803-20.263-13.823-5.5-11.5 7.95 1.251 46.251 38.537 56.5 44 8.518 8.046 16.793 16.15 24.5 25 59.319-42.354 94.52-111.343 103.5-183 2.275 4.475.377 10.212 0 15"/><path fill="#d1f3fa" d="M850 240c-4.638-2.195-10.355 3.88-14 7 35.667-38.137 60.885-91.744 65-144 2.964-.092 2.44.856 2.5 3 1.434 51.539-21.325 96.463-53.5 134"/><path fill="#d2f2fb" d="M120 105c6.286 46.093 23.034 91.209 52 128l-5 3c-9.162-11.121-27.775-34.422-33-47-7.044-16.957-14.46-54.975-16-73.5-.162-1.947-1.283-10.222 2-10.5"/><path fill="url(#a)" d="M125 192c6.641 27.631 23.967 68.556 42 90.5 2.41 2.933 25.306 25.658 27 26.5l-29 55c-.341-3.098-27.708-44.176-32-53.5-6.778-14.723-13.741-34.824-18-50.5-7.931-29.194-14.127-69.139-14-99.5.054-12.995-1.722-36.184 16-21 2.224 17.115 3.981 35.777 8 52.5" style="fill:url(#a)"/>/&gt;<path fill="url(#b)" d="M909 249c-4.379 18.065-11.42 38.492-19 55.5-6.256 14.036-29.449 47.542-32 57.5-8.613-1.704-11.385-20.071-15-27.5-3.639-7.478-15.697-21.402-13-28.5 1.278-3.363 24.888-25.494 30-32.5 16.287-22.319 29.114-55.285 36-82 2.028-7.869 8.103-48.131 10.5-50.5 1.776-1.755 8.848-2.787 11-5 3.072 36.441.239 76.946-8.5 113" style="fill:url(#b)"/>/&gt;<path fill="#39768b" d="M773 246c-10.249-5.463-48.55-42.749-56.5-44-14.763-2.323 1.499 9.697 5.5 11.5l-4 2.5c-53.561-37.076-137.245-67.135-203-64-164.781-3.253-312.354 104.078-352 265-9.457 38.387-12.964 85.568-10 125 2.757 36.678 12.061 72.846 25 107 2.461 6.497 5.185 13.677 8 20-1.801.627-1.593 1.964-1 3.5 9.443 24.461 27.842 55.503 44 76.5-7.152 14.104-11.908-8.695-19-11-21.487-32.203-36.423-63.991-51-100 2.611-.905 1.539-1.687 1-3.5-14.428-48.503-20.868-78.787-19-130.5.578-16.006 1.717-35.758 4-51.5 2.37-16.338 8.154-32.147 10-48.5.056-.043-.144-1.176 1-1 16.778-47.187 37.336-93.594 72-130.5-.515-.782-2.028-.065-4-1.5 130.813-153.985 367.208-175.907 524.5-48 8.74 7.107 16.357 15.308 24.5 23M481.5 144c-17.91 1.122-55.513 6.689-70 13-1.591.693-7.124 1.032-8 2-7.036 7.774 14.099-.812 15-1 10.191-2.122 28.74-5.997 38-7 2.693-.292 3.913 1.189 6 1 33.821-3.067 75.328-7.065 109 0 .407.085 2.641 2.891 7 1-.907 6.733.4 1.778 5 3 13.21 3.508 28.589 5.439 41 9 10.681 3.065 34.055 16.055 41 17 10.281 1.399 4.475-6.534-2-9-56.496-21.517-120.073-32.88-182-29"/><path fill="#468495" d="M481.5 144c61.927-3.88 125.504 7.483 182 29 6.475 2.466 12.281 10.399 2 9-6.945-.945-30.319-13.935-41-17-12.411-3.561-27.79-5.492-41-9-4.6-1.222-5.907 3.733-5-3-4.359 1.891-6.593-.915-7-1-33.672-7.065-75.179-3.067-109 0-2.087.189-3.307-1.292-6-1-9.26 1.003-27.809 4.878-38 7-.901.188-22.036 8.774-15 1 .876-.968 6.409-1.307 8-2 14.487-6.311 52.09-11.878 70-13"/><path fill="url(#c)" d="M515 152c-5.733.273-12.689 2.305-18.5 3 88.924-3.019 187.843 34.469 253.5 94 25.816 23.408 49.536 54.288 66 85 11.81 22.029 22.357 47.208 30 71l6 57c-3.92 22.344-4.367 45.195-9 67.5-13.262 63.852-53.654 131.768-106 170.5-1.765-5.558-10.4-12.728-16-14 2.901-5.433-9.993-8.376-13.5-8-5.781.619-22.375 13.71-29 17-45.289 22.489-95.595 39.903-146.5 44-62.746 5.051-144.793-16.084-200.5-45-3.239-1.681-16.111-11.594-18-12-1.802-.387.119 1.14-2.5 2-7.143-2.09-20.976-.88-22 8-.154.036-.74.796-3 1-17.803 1.609-74.897-16.836-90.5-27-2.853-1.859-4.167-5.503-7.5-6-3.452-5.661-3.252-8.134-10-11-12.939-34.154-22.243-70.322-25-107 3.009.435 1.938-2.671 2-4.5.983-29.093-.285-57.656 4-87 .762-5.217 8.417-28.212 8-31-.045-.303-3.305-.621-4-2.5 39.646-160.922 187.219-268.253 352-265M281 370c-58.281 127.431-10.932 266.703 110 334 105.479 58.698 223.648 35.567 305-51.5 106.73-114.227 89.368-292.249-38-382.5-31.095-22.033-60.903-37.251-99-44-119.533-21.177-227.679 33.973-278 144m-52.5 241c-10.415.675-17.052 17.641-6 22 19.147 7.552 22.107-23.044 6-22" style="fill:url(#c)"/>/&gt;<path fill="#dcf0f5" d="M718 216c12.348 8.548 25.081 19.628 36 30-3.037-1.112-5.066-.653-4 3-65.657-59.531-164.576-97.019-253.5-94 5.811-.695 12.767-2.727 18.5-3 65.755-3.135 149.439 26.924 203 64"/><path fill="#0fabcd" d="M115 260c4.259 15.676 11.222 35.777 18 50.5 4.292 9.324 31.659 50.402 32 53.5.322 2.927-4.323 15.99-6.5 16-47.889-51.359-68.081-123.857-65.5-193.5.011-.297 1.969-4.798 2-5.5 3.948 19.275 3.055 41.468 8 60.5 1.017 3.916 5.855 22.722 12 18.5"/><path fill="#11b0ce" d="M861 376c.216-6.647-4.688-7.412-3-14 2.551-9.958 25.744-43.464 32-57.5 7.58-17.008 14.621-37.435 19-55.5 5.497-2.809 9.459-17.057 11-23.5 2.73-11.418 4.282-26.709 5-38.5 2.396.137 2.897 8.857 3 10.5 3.891 61.962-22.974 135.024-64.5 180.5-.554-.976-1.77-1.389-2.5-2"/><path fill="#27c4ea" d="M167 236c5.455 6.622 41.758 46.686 47.5 46 .841-.1 2.434-3.781 4.5-3l-22.5 31c-.893.255-1.638-.571-2.5-1-1.694-.842-24.59-23.567-27-26.5-18.033-21.944-35.359-62.869-42-90.5l9-3c5.225 12.578 23.838 35.879 33 47"/><path fill="#84bdca" d="m559 226-2 12c-108.842-19.624-215.797 38.779-264.5 136l-11.5-4c50.321-110.027 158.467-165.177 278-144"/><path fill="#71abb9" d="M658 270c-1.421.58-3.088 2.517-4.5 3-10.789 3.687-33.725-13.871-45.5-19-14.67-6.389-35.312-13.171-51-16l2-12c38.097 6.749 67.905 21.967 99 44"/><path fill="#5dd5f1" d="M172 233c13.527 17.181 31.782 30.498 47 46-2.066-.781-3.659 2.9-4.5 3-5.742.686-42.045-39.378-47.5-46z"/><path fill="#71abb9" d="M557 238c15.688 2.829 36.33 9.611 51 16l-7 10c-133.581-56.986-295.833 32.754-317 176-5.389 3.672-1.428 20.428-3 23.5-.643 1.256-10.342-3.343-12-1-6.799 86.315 33.59 158.394 100.5 209.5 4.029 3.078 26.986 15.953 27.5 17.5 1.578 4.749-7.372 9.274-6 14.5-120.932-67.297-168.281-206.569-110-334l11.5 4c48.703-97.221 155.658-155.624 264.5-136"/><path fill="#4ed3f1" d="M850 240c-9.624 11.228-19.431 23.172-30.5 33-2.752 2.444-10.065 8.961-13.5 8-.09-.174-2.637-1.571-3-2.5 11.158-9.615 21.989-22.072 33-31.5 3.645-3.12 9.362-9.195 14-7"/><path fill="#c0dfe9" d="M754 246c14.852 5.437 52.657 58.988 62 74v14c-16.464-30.712-40.184-61.592-66-85-1.066-3.653.963-4.112 4-3"/><path fill="url(#d)" d="M601 264c76.227 32.519 131.405 107.045 138 190-3.002-.437-1.947 2.675-2 4.5-3.498 121.236-69.04 203.26-186.5 233.5l-62.5 7c-129.955-10.307-223.007-130.368-204-259 21.167-143.246 183.419-232.986 317-176m-163.5 2c-46.488 6.971-106.926 72.135-127.5 112.5-17.348 34.035-36.079 112.293-18 147 3.265 6.268 11.989 8.127 14 2 1.221-3.721-5.843-41.262-6-50-1.491-83.068 52.257-157.841 124.5-194.5 5.477-2.779 31.759-9.853 30.5-14.5-2.534-3.492-13.114-3.158-17.5-2.5m48.5 9c-56.609 5.489-107.522 36.87-140 83-30.067 42.705-42.113 92.921-36 145 .207 1.764.878 2.138 1 3 1.396 9.886 3.065 19.452 6 29 14.361 46.712 39.217 69.719 74 101 1.969 1.771 3.987 3.684 6 5.5.806.727-2.027 2.061-.5 3.5 31.896 30.043 96.681 40.343 138.5 35 121.059-15.469 213.831-143.334 170-261-.281-1.746-.022-5.268-3-5-15.207-38.131-31.85-65.701-64-92-43.004-35.177-96.141-52.416-152-47" style="fill:url(#d)"/>/&gt;<path fill="#578c9c" d="M658 270c127.368 90.251 144.73 268.273 38 382.5-81.352 87.067-199.521 110.198-305 51.5-1.372-5.226 7.578-9.751 6-14.5-.514-1.547-23.471-14.422-27.5-17.5-66.91-51.106-107.299-123.185-100.5-209.5 1.658-2.343 11.357 2.256 12 1 1.572-3.072-2.389-19.828 3-23.5-19.007 128.632 74.045 248.693 204 259 140.125 11.114 262.282-103.089 251-245-6.595-82.955-61.773-157.481-138-190l7-10c11.775 5.129 34.711 22.687 45.5 19 1.412-.483 3.079-2.42 4.5-3"/><path fill="#fdfefe" d="M437.5 266c4.386-.658 14.966-.992 17.5 2.5 1.259 4.647-25.023 11.721-30.5 14.5-72.243 36.659-125.991 111.432-124.5 194.5.157 8.738 7.221 46.279 6 50-2.011 6.127-10.735 4.268-14-2-18.079-34.707.652-112.965 18-147 20.574-40.365 81.012-105.529 127.5-112.5"/><path fill="#4390a9" d="M638 322c.988 7.871-5.597 8.779-8 15-8.996-7.945-24.388-18.22-35-24-34.933-19.029-66.038-25.047-106-21l-3-17c55.859-5.416 108.996 11.823 152 47"/><path fill="#9ad5e5" d="M489 292c-51.772 5.243-100.051 32.475-130 75l-13-9c32.478-46.13 83.391-77.511 140-83z"/><path fill="#3acef0" d="M811.5 284c.65-.084 2.394 2.82 1 3-.65.084-2.394-2.82-1-3"/><path fill="#86deed" d="m595 313 12 9.5c-.607 3.765-7.598 8.502-7 12 .256 1.499 20.005 17.29 22 21L596.5 340c-4.249 10.098-16.831 17.339-17.5 28-31.066-18.432-69.638-27.673-105-16-65.921-56.142-150.019 57.111-90 104-5.071 13.156-4.234 28.262-3 42l-2.5 2c-.996-.312-.019-2.809-1-3-8.743-1.704-35.847 27.094-47.5 25-12.693-53.886-2.977-109.596 29-155 29.949-42.525 78.228-69.757 130-75 39.962-4.047 71.067 1.971 106 21"/><path fill="#22b4cc" d="M630 337c84.095 74.271 86.123 199.891 2 275l-14-18c48.155-42.137 65.236-108.018 40-167.5-8.036-18.941-20.729-40.224-40-47 49.683 57.255 49.646 158.322-13 206.5 4.701-7.272 1.763-4.153-3-11 6.392-5.71 14.469-12.313 18-20 3.075-2.89 9.007-11.047 10-15 27.415-64.948 10.816-135.323-51-172 .669-10.661 13.251-17.902 17.5-28l25.5 15.5c-1.995-3.71-21.744-19.501-22-21-.598-3.498 6.393-8.235 7-12l-12-9.5c10.612 5.78 26.004 16.055 35 24"/><path fill="#9cc5d2" d="m858 426-2 16c-2.385-12.378-6.145-25.001-10-37-7.643-23.792-18.19-48.971-30-71v-14c23.495 37.752 32.324 62.491 42 106"/><path fill="#06375a" d="M702 414c.748 1.877 2.898 4.727 3 5 19.933 124.012-37.113 237.721-170 254-52.352 6.413-101.393-6.519-144-37-34.783-31.281-59.639-54.288-74-101l15-4c10.425 34.684 32.533 65.884 61 88 70.974 55.138 171.76 53.034 239-7 84.123-75.109 82.095-200.729-2-275 2.403-6.221 8.988-7.129 8-15 32.15 26.299 48.793 53.869 64 92"/><path fill="url(#e)" d="M474 352c65.42 55.715-22.01 157.116-90 104-60.019-46.889 24.079-160.142 90-104" style="fill:url(#e)"/>/&gt;<path fill="url(#f)" d="M579 368c61.816 36.677 78.415 107.052 51 172 9.111-36.271-49.284-43.22-57-10.5-7.064 29.953 26.434 44.832 47 25.5-3.531 7.687-11.608 14.29-18 20-66.468 59.375-167.328 47.146-209-34-6.921-13.477-10.647-27.94-12-43-1.234-13.738-2.071-28.844 3-42 67.99 53.116 155.42-48.285 90-104 35.362-11.673 73.934-2.432 105 16" style="fill:url(#f)"/>/&gt;<path fill="#4390a9" d="M359 367c-31.977 45.404-41.693 101.114-29 155 .709 3.011 1.092 5.979 2 9l-15 4c-2.935-9.548-4.604-19.114-6-29l1-4.5-2 1.5c-6.113-52.079 5.933-102.295 36-145z"/><path fill="#86deed" d="M618 594c-10.452 9.146-18.976 13.711-31 20 2.891-3.831-2.519-6.771-2-11 6.299-4.089 15.926-10.698 20-17 62.646-48.178 62.683-149.245 13-206.5 19.271 6.776 31.964 28.059 40 47 25.236 59.482 8.155 125.363-40 167.5"/><path fill="#0e3955" d="M141 504c-7.116 4.028-4.049 11.615-8 17 .104-2.97-1.005-2.842-1-3 .691-21.442.467-43.707 3-65 .897-7.535 5.012-17.76 6-26 .196-1.634 1.189-11.544.5-12-7.778 1.898-15.671 2.277-23.5 4-1.364-2.241-1.716-2.577 1-3.5l-3-.5c.258-.082 2.429-2.434 4.5-3 9.202-2.513 27.82-2.938 34.5-8-1.846 16.353-7.63 32.162-10 48.5-2.283 15.742-3.422 35.494-4 51.5"/><path fill="#103b5e" d="M929 434c-1.46-2.484-5.205-9.481-7-5-7.615-12.87-29.779-10.604-43.5-13-.57.321 1.247 11.286 1.5 13 1.109 7.517 4.057 16.286 5 24 2.835 23.203 2.594 43.797 3 67 .081 4.645-1.102 31.842 1.5 33l41.5-4c-1.738 11.695-2.256 24.538-5 36l-43.5 2-13.5 44c-1.637.249-2.919 2.529-5-.5 2.444-7.013 5.498-14.757 7-22 13.926-67.141 14.597-138.14-4-204.5h1c18.993 10.473 55.778 3.453 61 30"/><path fill="#577d8d" d="M856 442c.58 3.011 1.52 6.021 2 9l-4-3.5c.894 5.262-1.148 9.644-2 14.5l-6-57c3.855 11.999 7.615 24.622 10 37"/><path fill="#b5d2dd" d="M705 419c-.102-.273-2.252-3.123-3-5 2.978-.268 2.719 3.254 3 5"/><path fill="#1c4e6a" d="m116 415 3 .5c-2.716.923-2.364 1.259-1 3.5-13.197 2.904-13.476-.555-20 12-11.853 22.811-13.629 59.64-13 85 .352 14.189 2.361 19.683 4 32 2.13 16.004.735 19.933 6 37 4.025 13.047 9.637 29.4 19 39.5.082 2.762-3.415 1.073-4.5.5-9.66-5.105-24.542-53.231-27.5-65-8.91-35.444-8.639-107.382 15-137.5 5.792-7.379 11.576-5.129 19-7.5"/><path fill="#18b9dc" d="m141 427-43 4c6.524-12.555 6.803-9.096 20-12 7.829-1.723 15.722-2.102 23.5-4 .689.456-.304 10.366-.5 12"/><path fill="#16bfe3" d="M922 429c.716 1.209.727 2.424 1 3l-43-3c-.253-1.714-2.07-12.679-1.5-13 13.721 2.396 35.885.13 43.5 13"/><path fill="#dceef5" d="M153 542c-2.964-39.432.543-86.613 10-125 .695 1.879 3.955 2.197 4 2.5.417 2.788-7.238 25.783-8 31-4.285 29.344-3.017 57.907-4 87-.062 1.829 1.009 4.935-2 4.5"/><path fill="#b1ced9" d="M535 680v-7c132.887-16.279 189.933-129.988 170-254 43.831 117.666-48.941 245.531-170 261"/><path fill="#73aab6" d="M802 729c-3.023 4.511-7.628 10.521-11 15-71.239 94.629-193.591 155.436-313 144 2.91-1.724.384-3.457 1-7 230.934 23.605 414.541-209.461 379-430-.48-2.979-1.42-5.989-2-9l2-16c23.323 104.87 3.978 213.494-56 303"/><path fill="#e1f6fc" d="M141 427c-.988 8.24-5.103 18.465-6 26-6.913 4.252-35.048 8.652-38 14.5L89 516c-.198-.027-3.143.528-4 0-.629-25.36 1.147-62.189 13-85z"/><path fill="#1d4f6a" d="M929 434c25.364 43.147 18.158 115.424 1 160.5-13.884 36.477-15.543 31.232-50 39.5-2.339-1.947-5.777-.169-5-5 7.543-1.249 28.499-2.439 33.5-5 6.287-3.22 15.687-31.43 17.5-39 2.744-11.462 3.262-24.305 5-36 1.911-12.862 4.864-19.135 5-34 .21-22.994-3.223-62.37-13-83-.273-.576-.284-1.791-1-3 1.795-4.481 5.54 2.516 7 5"/><path fill="#e1f6fb" d="M923 432c9.777 20.63 13.21 60.006 13 83-1.112.893-2.08.707-3 1l-9-48.5c-2.395-4.838-32.627-11.962-39-14.5-.943-7.714-3.891-16.483-5-24z"/><path fill="url(#g)" d="M858 451c35.541 220.539-148.066 453.605-379 430-84.442-8.631-160.904-52.108-218-113.5-31.747-34.136-49.155-68.392-73-107.5 3.333.497 4.647 4.141 7.5 6 15.603 10.164 72.697 28.609 90.5 27-37.954 69.8 29.625 82.014 74.5 107 13.441 7.484 26.043 16.399 39.5 24 107.719 60.844 124.964 43.675 227-8 39.16-19.832 139.929-52.042 109-111 1.494-.204 1.236-4.255 1-5 52.346-38.732 92.738-106.648 106-170.5 4.633-22.305 5.08-45.156 9-67.5.852-4.856 2.894-9.238 2-14.5z" style="fill:url(#g)"/>/&gt;<path fill="#1dc8ea" d="M135 453c-2.533 21.293-2.309 43.558-3 65-14.475.472-28.655-.07-43-2l8-48.5c2.952-5.848 31.087-10.248 38-14.5"/><path fill="#22caeb" d="M933 516c-11.453 3.647-32.427 1.594-45 4-.406-23.203-.165-43.797-3-67 6.373 2.538 36.605 9.662 39 14.5z"/><path fill="#b2cfd9" d="M739 454c11.282 141.911-110.875 256.114-251 245l62.5-7C667.96 661.76 733.502 579.736 737 458.5c.053-1.825-1.002-4.937 2-4.5"/><path fill="#22b4cc" d="M381 498c1.353 15.06 5.079 29.523 12 43-2.556 8.072-8.098 4.747-8 14.5.031 3.115 4.276 18.413 5 23 2.074 13.134 7.618 27.287 3 40.5-28.467-22.116-50.575-53.316-61-88-.908-3.021-1.291-5.989-2-9 11.653 2.094 38.757-26.704 47.5-25 .981.191.004 2.688 1 3z"/><path fill="#07466a" d="M311 506c-.122-.862-.793-1.236-1-3l2-1.5z"/><path fill="#09325c" d="M141 504c-1.868 51.713 4.572 81.997 19 130.5.539 1.813 1.611 2.595-1 3.5-13.637-4.09-28.549-4.204-42-9l.5-4 34.5 3.5-12-43-45-.5c-5.265-17.067-3.87-20.996-6-37 6.601 2.334 40.941 7.822 43 2.5.533-1.376.853-25.307 1-29.5 3.951-5.385.884-12.972 8-17"/><path fill="#e7eff9" d="M630 540c-.993 3.953-6.925 12.11-10 15-20.566 19.332-54.064 4.453-47-25.5 7.716-32.72 66.111-25.771 57 10.5"/><path fill="#1c75af" d="m931 549-41.5 4c-2.602-1.158-1.419-28.355-1.5-33 12.573-2.406 33.547-.353 45-4 .92-.293 1.888-.107 3-1-.136 14.865-3.089 21.138-5 34"/><path fill="#1977b0" d="M89 516c14.345 1.93 28.525 2.472 43 2-.005.158 1.104.03 1 3-.147 4.193-.467 28.124-1 29.5-2.059 5.322-36.399-.166-43-2.5-1.639-12.317-3.648-17.811-4-32 .857.528 3.802-.027 4 0"/><path fill="#0899ab" d="M602 575c4.763 6.847 7.701 3.728 3 11-4.074 6.302-13.701 12.911-20 17-3.863 2.508-23.653 10.931-24.5 12-1.909 2.41 1.358 8.15 2 11 8.745-2.9 16.431-7.78 24.5-12 12.024-6.289 20.548-10.854 31-20l14 18c-67.24 60.034-168.026 62.138-239 7 4.618-13.213-.926-27.366-3-40.5-.724-4.587-4.969-19.885-5-23-.098-9.753 5.444-6.428 8-14.5 41.672 81.146 142.532 93.375 209 34"/><path fill="#001d42" d="m95 585 45 .5 12 43-34.5-3.5-.5 4c-2.401-.856-6.473-1.579-8.5-3-11.587-8.121-24.771-51.255-26.5-66 2.958 11.769 17.84 59.895 27.5 65 1.085.573 4.582 2.262 4.5-.5-9.363-10.1-14.975-26.453-19-39.5"/><path fill="#002447" d="M926 585c-1.813 7.57-11.213 35.78-17.5 39-5.001 2.561-25.957 3.751-33.5 5-1.432.237-4.593 1.786-6 2l13.5-44z"/><path fill="#22b4cc" d="M587 614c-8.069 4.22-15.755 9.1-24.5 12-.642-2.85-3.909-8.59-2-11 .847-1.069 20.637-9.492 24.5-12-.519 4.229 4.891 7.169 2 11"/><path fill="#fefeff" d="M228.5 611c16.107-1.044 13.147 29.552-6 22-11.052-4.359-4.415-21.325 6-22"/><path fill="#99b8c3" d="M535 673v7c-41.819 5.343-106.604-4.957-138.5-35-1.527-1.439 1.306-2.773.5-3.5-2.013-1.816-4.031-3.729-6-5.5 42.607 30.481 91.648 43.413 144 37"/><path fill="#b1d2dc" d="M188 660c23.845 39.108 41.253 73.364 73 107.5 57.096 61.392 133.558 104.869 218 113.5-.616 3.543 1.91 5.276-1 7-61.091-5.851-119.165-30.648-168-67-52.035-38.733-97.52-92.516-124-152-2.815-6.323-5.539-13.503-8-20 6.748 2.866 6.548 5.339 10 11"/><path fill="#16445a" d="M310 821c2.74 4.654-.681 3.482 1 8-30.223-21.932-59.288-50.487-82-80-16.158-20.997-34.557-52.039-44-76.5-.593-1.536-.801-2.873 1-3.5 26.48 59.484 71.965 113.267 124 152"/><path fill="#20536b" d="M847 673c-17.284 37.971-33.119 64.971-60 97z"/><path fill="#5b8695" d="M721 686c-1.304-.296-5.916-1.026-7 .5 2.039.683 4.205 1.287 6 2.5v4c-6.585-.976-55.584 24.721-66.5 29-19.839 7.777-48.789 17.26-69.5 22l-51.5 5-.5-10c50.905-4.097 101.211-21.511 146.5-44 6.625-3.29 23.219-16.381 29-17 3.507-.376 16.401 2.567 13.5 8"/><path fill="#6f98a6" d="m532 739 .5 10 51.5-5c-82.63 18.911-163.685 3.57-239.5-31-9.871-4.501-37.083-23.131-45.5-22v-4c3.914-1.277 8.426-.979 12.5-1 1.116-.57-1.103-1.802-.5-2 2.619-.86.698-2.387 2.5-2 1.889.406 14.761 10.319 18 12 55.707 28.916 137.754 50.051 200.5 45"/><path fill="#062338" d="M311 684c-.603.198 1.616 1.43.5 2-4.074.021-8.586-.277-12.5 1-3.434 1.12-6.529 4.177-10 5 1.024-8.88 14.857-10.09 22-8"/><path fill="#052337" d="M721 686c5.6 1.272 14.235 8.442 16 14 .236.745.494 4.796-1 5-4.134-7.88-8.863-11.178-16-16-1.795-1.213-3.961-1.817-6-2.5 1.084-1.526 5.696-.796 7-.5"/><path fill="#dcedf1" d="M299 691c-14.32 1.924-19.661 36.364-18 47.5 4.487 30.086 55.252 46.518 79.5 59.5 21.651 11.591 42.647 24.741 64.5 36-8.132-3.491-16.478-7.783-25-10-13.457-7.601-26.059-16.516-39.5-24-44.875-24.986-112.454-37.2-74.5-107 2.26-.204 2.846-.964 3-1 3.471-.823 6.566-3.88 10-5z"/><path fill="#7aa5b2" d="M736 705c30.929 58.958-69.84 91.168-109 111l-1-1c18.244-8.997 90.924-43.817 100-55.5 11.208-14.428 14.656-63.439-6-66.5v-4c7.137 4.822 11.866 8.12 16 16"/><path fill="#02263b" d="M584 744c20.711-4.74 49.661-14.223 69.5-22 10.916-4.279 59.915-29.976 66.5-29 20.656 3.061 17.208 52.072 6 66.5-9.076 11.683-81.756 46.503-100 55.5-81.703 40.289-111.201 57.543-201 19-21.853-11.259-42.849-24.409-64.5-36-24.248-12.982-75.013-29.414-79.5-59.5-1.661-11.136 3.68-45.576 18-47.5 8.417-1.131 35.629 17.499 45.5 22 75.815 34.57 156.87 49.911 239.5 31m-280-25c-20.11 6.02-16.74 32.047-2.5 44 16.705 14.022 83.882 43.436 107.5 55 100.11 49.017 119.636 36.567 215-9 17.621-8.42 86.399-38.648 95-50.5 11.343-15.63 8.24-42.24-15-41.5-12.598.401-42.498 17.091-56.5 22-26.397 9.254-53.789 17.549-81.5 22-79.849 12.825-140.78-2.405-214.5-30-18.269-6.838-27.958-17.85-47.5-12"/><path fill="#d2e3eb" d="M566 761c6.985 6.98 13.794 1.522 22 3-.109.025.217.513-2 1-40.343 8.867-85.187 10.111-126 4-35.776-5.357-76.098-21.702-110.5-34-11.274-4.03-25.31-14.371-37.5-14-1.111.034-6.754 1.389-8 2v-4c19.542-5.85 29.231 5.162 47.5 12 73.72 27.595 134.651 42.825 214.5 30"/><path fill="#c0d7e1" d="m704 717-1 5c-10.512.579-72.128 29.481-90 35-8.26 2.551-16.56 5.06-25 7-8.206-1.478-15.015 3.98-22-3 27.711-4.451 55.103-12.746 81.5-22 14.002-4.909 43.902-21.599 56.5-22"/><path fill="#759fac" d="M624 809v-2c21.867-10.937 64.142-29.874 82.5-42 17.693-11.686 21.451-44.373-3.5-43l1-5c23.24-.74 26.343 25.87 15 41.5-8.601 11.852-77.379 42.08-95 50.5"/><path fill="url(#h)" d="M304 719v4c-3.816 1.87-9.43 8.838-9 13.5 4.668-4.297 5.231-6.567 11-10.5 30.272 20.817 65.787 29.114 101 38l-34 23.5c.01 1.263 21.238 11.437 22.5 11.5 4.691.235 32.993-21.114 36.5-27 7.763 1.586 16.125 1.961 24 3 30.297 3.998 58.626 2.949 89 4-3.322 4.613-5.661 14.682-11 21.5-9.898 12.641-25.452 18.279-35 30.5l-.5 2c30.046.005 60.03-7.421 88-18 26.901-10.175 54.156-22.003 53.5-55.5-9.43-4.182-18.527-.759-27 1.5v-4c17.872-5.519 79.488-34.421 90-35 24.951-1.373 21.193 31.314 3.5 43-18.358 12.126-60.633 31.063-82.5 42-51.161 25.588-98.126 49.541-157.5 35-20.233-4.955-38.221-16.726-57.5-24-23.618-11.564-90.795-40.978-107.5-55-14.24-11.953-17.61-37.98 2.5-44m-8.5 23c-1.515.81 1.496 8.084 3 9 1.266-.403-1.548-9.776-3-9" style="fill:url(#h)"/>/&gt;<path fill="#a5bacb" d="M306 726c-5.769 3.933-6.332 6.203-11 10.5-.43-4.662 5.184-11.63 9-13.5 1.246-.611 6.889-1.966 8-2-.402 2.274-3.882 3.556-6 5"/><path fill="#c7d8e5" d="M460 769c-.633 3.468-.82 4.597-4 6-7.875-1.039-16.237-1.414-24-3-7.653-1.564-17.02-5.986-25-8-35.213-8.886-70.728-17.183-101-38 2.118-1.444 5.598-2.726 6-5 12.19-.371 26.226 9.97 37.5 14 34.402 12.298 74.724 28.643 110.5 34"/><path fill="#17425a" d="M778 767c.153-8.852 10.766-14.899 13-23 3.372-4.479 7.977-10.489 11-15 2.513 7.273-7.17 19.144-12 25.5-3.53 4.646-8.233 8.246-12 12.5"/><path fill="#275971" d="M229 749c22.712 29.513 51.777 58.068 82 80 130.81 94.925 292.041 85.478 417-14 11.819.066 48.088-45.471 51.5-46 .963-.149 4.775 3.711 6.5 2-9.05 10.676-45.748 43.921-49 49.5-1.916 3.287-2.989 13.601-5 18-80.772 176.68-344.57 187.81-429 11-2.181-4.568-3.353-15.04-5-18-1.706-3.066-21.005-16.322-25.5-20.5-25.621-23.813-43.101-43.926-62.5-73 7.092 2.305 11.848 25.104 19 11m374 149c-2.145-.44.211-2.952-2-3.5-1.43-.355-24.124 6.76-28.5 7.5-40.147 6.785-88.525 7.038-128.5-1-21.148-4.252-50.54-15.248-70.5-24-23.778-10.427-47.155-23.688-68-39 .908 13.933 11.25 27.109 19.5 38 56.896 75.113 149.304 100.472 240 83 65.239-12.568 122.769-51.244 157-108.5 4.104-6.864 8.467-15.129 9-23-1.668-2.754-48.258 31.564-53.5 34.5-20.487 11.474-42.492 17-63 26-8.065 3.539-7.798 3.562-11.5 10"/><path fill="#a2baca" d="M295.5 742c1.452-.776 4.266 8.597 3 9-1.504-.916-4.515-8.19-3-9"/><path fill="#062b42" d="M778 767c-15.232 17.202-31.991 33.663-50 48-124.959 99.478-286.19 108.925-417 14-1.681-4.518 1.74-3.346-1-8 48.835 36.352 106.909 61.149 168 67 119.409 11.436 241.761-49.371 313-144-2.234 8.101-12.847 14.148-13 23"/><path fill="#688a9c" d="M613 757v4c-6.826 1.82-24.706 12.664-27 4 2.217-.487 1.891-.975 2-1 8.44-1.94 16.74-4.449 25-7"/><path fill="#9fb9c7" d="M499 831c37.302-2.922 71.176-28.488 88.5-61-8.344 2.31-38.152 2.963-42.5 9-30.374-1.051-58.703-.002-89-4 3.18-1.403 3.367-2.532 4-6 40.813 6.111 85.657 4.867 126-4 2.294 8.664 20.174-2.18 27-4 8.473-2.259 17.57-5.682 27-1.5.656 33.497-26.599 45.325-53.5 55.5-27.97 10.579-57.954 18.005-88 18z"/><path fill="#f8fafc" d="M432 772c-3.507 5.886-31.809 27.235-36.5 27-1.262-.063-22.49-10.237-22.5-11.5l34-23.5c7.98 2.014 17.347 6.436 25 8"/><path fill="#f0f5f8" d="M499 831c9.548-12.221 25.102-17.859 35-30.5 5.339-6.818 7.678-16.887 11-21.5 4.348-6.037 34.156-6.69 42.5-9-17.324 32.512-51.198 58.078-88.5 61"/><path fill="#c9dde4" d="M624 809c-95.364 45.567-114.89 58.017-215 9 19.279 7.274 37.267 19.045 57.5 24 59.374 14.541 106.339-9.412 157.5-35z"/><path fill="#aecad5" d="m626 815 1 1c-102.036 51.675-119.281 68.844-227 8 8.522 2.217 16.868 6.509 25 10 89.799 38.543 119.297 21.289 201-19"/><path fill="url(#i)" d="M565 959c-8.617-.232-17.353-.063-26 0 19.522-9.616 37.858-17.115 51-35.5 5.744-8.035 8.344-17.404 13-25.5 3.702-6.438 3.435-6.461 11.5-10 20.508-9 42.513-14.526 63-26 5.242-2.936 51.832-37.254 53.5-34.5-.533 7.871-4.896 16.136-9 23-34.231 57.256-91.761 95.932-157 108.5" style="fill:url(#i)"/>/&gt;<path fill="#8fb2c0" d="M444 901c4.083 26.961 25.282 42.315 46 57-46.403-3.48-92.674-18.125-128.5-47-13.269-10.694-24.342-23.211-36.5-35-8.25-10.891-18.592-24.067-19.5-38 20.845 15.312 44.222 28.573 68 39 19.96 8.752 49.352 19.748 70.5 24"/><path fill="#a4c8d4" d="M490 958c16.355 1.227 32.611 1.12 49 1 8.647-.063 17.383-.232 26 0-90.696 17.472-183.104-7.887-240-83 12.158 11.789 23.231 24.306 36.5 35 35.826 28.875 82.097 43.52 128.5 47"/><path fill="#4c7181" d="M603 898c-4.656 8.096-7.256 17.465-13 25.5-13.142 18.385-31.478 25.884-51 35.5-16.389.12-32.645.227-49-1-20.718-14.685-41.917-30.039-46-57 39.975 8.038 88.353 7.785 128.5 1 4.376-.74 27.07-7.855 28.5-7.5 2.211.548-.145 3.06 2 3.5"/></svg>