<svg xmlns="http://www.w3.org/2000/svg" width="1024" height="1024"><defs><linearGradient id="a" x1="272.005" x2="786.639" y1="317.103" y2="599.453" gradientUnits="userSpaceOnUse"><stop offset="18.91%" style="stop-color:#c5dde9"/><stop offset="100%" style="stop-color:#5296a8"/></linearGradient></defs><defs><linearGradient id="b" x1="225.33" x2="165.334" y1="549.45" y2="550.14" gradientUnits="userSpaceOnUse"><stop offset="0%" style="stop-color:#003664"/><stop offset="100%" style="stop-color:#005d8a"/></linearGradient></defs><defs><linearGradient id="c" x1="138.953" x2="153.411" y1="519.324" y2="545.61" gradientUnits="userSpaceOnUse"><stop offset="0%" style="stop-color:#005f8c"/><stop offset="100%" style="stop-color:#004874"/></linearGradient></defs><path fill="#004c78" d="M807 169c-2.303.893-2.125 1.354-5 2-1.074.241-3.795.979-4 1-.448.047-8.557.08-9 0-.887-.16-1.068-.747-2-1-35.129-9.538-33.198-65.149 3.5-69 41.213-4.325 54.474 52.278 16.5 67m-39-39c-7.749 1.716-.069 23.161 3.5 24 .311.073.353-3.038 3-2 2.743 1.075 7.129 4.546 10 5 16.547 2.618 31.633-6.43 32.5-24 14.366-1.603 1.793-19.622-7-24-17.565-8.746-39.988 1.588-42 21"/><path fill="#004e7a" d="M235 172c-1.391.429-.931.983-1 1-.485.12-8.866.055-10 0-1.379-.067-3.663.064-4 0-.588-.111-3.42-.812-4-1-34.251-11.091-31.151-65.853 5.5-69 43.067-3.698 52.909 56.829 13.5 69m-22-62c-5.6-5.847-4.654 5.046-5 5.5-1.197 1.572-2.428-.605-2.5-.5-3.087 4.491-6.97 10.484-7.5 16-6.116 2.636.05 23.51 2.5 24 .338.068 1.667-2.544 3-2 3.31 1.349 8.656 5.453 12 6 19.547 3.199 33.196-10.752 31.5-30 12.806-1.384 1.859-13.64-5-18-8.925-5.674-19.587-6.019-29-1"/><path fill="#31cfee" d="m810 109-1 3c-2.727-1.731-3.993-1.99-7-.5 18.599 26.231-37.809 55.253-34 18.5 2.012-19.412 24.435-29.746 42-21m-26 4c-.468.419-2.801-.872-2 3-.887.131-1.211-1.004-1.5-1-1.252.016-.709 2.079-1.5 3-.359.417-4.973.114-2 4-1.37 2.173-6.627 15.275-3.5 16 5.534-9.9 18.711-14.726 18.5-27.5-3.991-1.779-5.482.247-8 2.5"/><path fill="#02a0c7" d="M242 111c-1.379 6.936 4.247 9.457 5 18 1.696 19.248-11.953 33.199-31.5 30-3.344-.547-8.69-4.651-12-6-1.333-.544-2.662 2.068-3 2-2.45-.49-8.616-21.364-2.5-24-3.144 32.736 44.868 14.852 37-14.5-1.505-5.616-8.109-6.588-13-6.5-1.261.023-2.648.644-4 1-2.955.779-2.143 1.432-3 2-.234.155-.801-.161-1 0 .175-.977-.39-2.363-1-3 9.413-5.019 20.075-4.674 29 1"/><path fill="#35cfee" d="M213 110c.61.637 1.175 2.023 1 3-4.78 3.87-1.807 3.104-3 5-1.613 2.562-1.91 1.889-2 2-5.877-2.781-2.913 2.675-3 3-1.485 5.539-4.184 11.203-2.5 17 .423.206 4.209-7.164 4.5-7.5 1.146-1.325 22.044-18.844 9-15.5l-2-4c.857-.568.045-1.221 3-2-.34 6.618 4.569 5.572 4-1 4.891-.088 11.495.884 13 6.5 7.868 29.352-40.144 47.236-37 14.5.53-5.516 4.413-11.509 7.5-16 .072-.105 1.303 2.072 2.5.5.346-.454-.6-11.347 5-5.5"/><path fill="#0179a0" d="M817 133c.3-6.078-2.591-17.566-8-21l1-3c8.793 4.378 21.366 22.397 7 24"/><path fill="#d4f6fd" d="M222 110c.569 6.572-4.34 7.618-4 1 1.352-.356 2.739-.977 4-1"/><path fill="#84e4f7" d="M777 122c.75-1.189 4.217-1.49 2-4 .791-.921.248-2.984 1.5-3 .289-.004.613 1.131 1.5 1 1.587-.234 9.07 2.413 2-3 2.518-2.253 4.009-4.279 8-2.5.211 12.774-12.966 17.6-18.5 27.5-3.127-.725 2.13-13.827 3.5-16"/><path fill="#029ec4" d="M809 112c5.409 3.434 8.3 14.922 8 21-.867 17.57-15.953 26.618-32.5 24-2.871-.454-7.257-3.925-10-5-2.647-1.038-2.689 2.073-3 2-3.569-.839-11.249-22.284-3.5-24-3.809 36.753 52.599 7.731 34-18.5 3.007-1.49 4.273-1.231 7 .5"/><path fill="#0378a0" d="M247 129c-.753-8.543-6.379-11.064-5-18 6.859 4.36 17.806 16.616 5 18"/><path fill="#edfdfe" d="M214 113c.199-.161.766.155 1 0l2 4c-.344.088-2.31 4.177-6 1 1.193-1.896-1.78-1.13 3-5"/><path fill="#f2fcfe" d="M784 113c7.07 5.413-.413 2.766-2 3-.801-3.872 1.532-2.581 2-3"/><path fill="#8fe6f8" d="M206 123c1.587-.313 2.149-1.952 3-3 .09-.111.387.562 2-2 3.69 3.177 5.656-.912 6-1 13.044-3.344-7.854 14.175-9 15.5-.291.336-4.077 7.706-4.5 7.5-1.684-5.797 1.015-11.461 2.5-17"/><path fill="#ecf9fa" d="M779 118c2.217 2.51-1.25 2.811-2 4-2.973-3.886 1.641-3.583 2-4"/><path fill="#eef7fa" d="M209 120c-.851 1.048-1.413 2.687-3 3 .087-.325-2.877-5.781 3-3"/><path fill="#105a72" d="M774 305c1.033 1.495 2.845 3.262 4 5 5.163 7.768 10.229 15.984 15 24 6.063 10.187 10.184 22.381 17 32 .088.124-2.553 1.083.5 3 1.959 1.23 4.311.579 5.5 1 18.303 6.474 40.95 10.271 50 29.5 3.182 6.761 3.645 16.082 8 22.5-3.472-1.162-3.714-3.406-6 0-3.329-12.742-6.16-24.006-17-32-10.317-7.608-33.248-15.779-46-17-4.983-.477-7.793-2.24-12.5 2-1.37-2.748 1.109-3.395 1.5-6 .19-1.268 2.042-2.193 2-2.5-.363-2.686-15.344-28.635-18-33-133.605-219.519-422.597-210.99-543 15-2.547 4.781-10.421 17.477-7 21.5-3.722-1.552-11.705-1.577-16-1v-1c5.544-11.695 10.993-23.538 17-35 1.941-3.704 5.875-8.095 8-12 1.391-2.556 5.485-7.704 6-10 1.029-4.586-5.099-17.72-6-23.5-5.885-37.771-4.277-76.375-3-114.5.069-.017-.391-.571 1-1 2.148 43.924-3.328 91.126 11.5 133 9.389-10.689 17.105-22.818 26.5-33.5C417.047 107.718 651.727 128.165 774 305"/><path fill="#334b57" d="M807 169c5.082 43.484 16.667 86.365 21 130-6.512 4.775-2.024-16.515-7-18-2.932-35.752-13.018-74.466-19-110 2.875-.646 2.697-1.107 5-2"/><path fill="#35505c" d="M789 172c-3.018 38.826 6.808 100.561-10 136-.048.101-1.547-.026-1 2-1.155-1.738-2.967-3.505-4-5 19.326-40.419 8.458-90.303 13-134 .932.253 1.113.84 2 1"/><path fill="#c6edf6" d="m798 172 3 20c-.021-.101-1.811.355-2-.5-1.237-5.587-.402-13.269-3.5-18.5-1.138 4.903-.184 10.053-.5 15-.586 9.166-1.636 18.251-1 27.5l3 21.5c-.244 13.578-1.424 58.189-9 67-1.773 2.062-6.2 5.961-9 4 16.808-35.439 6.982-97.174 10-136 .443.08 8.552.047 9 0"/><path fill="#6d8e9c" d="M802 171c5.982 35.534 16.068 74.248 19 110 2.697 32.889-2.415 31.899-9 59l-3.5 9-15.5-15c-4.771-8.016-9.837-16.232-15-24-.547-2.026.952-1.899 1-2 2.8 1.961 7.227-1.938 9-4 3.471 6.594 9.215 18.474 18.5 14 .983-.474 4.235-4.477 4.5-5.5 1.961-7.555-.379-37.318-1-47-1.384-21.568-4.619-52.549-9-73.5l-3-20c.205-.021 2.926-.759 4-1"/><path fill="#39515c" d="M220 173c-5.157 27.336-11.34 54.899-15 82.5-2.041 15.39-5.603 35.322-5 50.5l-5 7.5c-.577 18.644 4.465 29.535 12 45.5 1.486 3.149 3.151 6.069 5 9v1c-1.071.144-2.941 1.552-5 2-13.342-19.334-15.459-40.374-14-63.5L216 172c.58.188 3.412.889 4 1"/><path fill="#70909d" d="M224 173c.613 2.978-.608 5.369-1 8-3.21 21.523-17.393 121.63-10 135.5 5.837 10.952 20.393-2.414 21-11.5 2.26 2.962 5.818 4.374 9 6-.515 2.296-4.609 7.444-6 10l-23 18c-.807-2.371-7.768-8.003-10-10-1.197-7.96-3.665-14.558-4-23-.603-15.178 2.959-35.11 5-50.5 3.66-27.601 9.843-55.164 15-82.5.337.064 2.621-.067 4 0"/><path fill="#c6ecf5" d="M234 173c-1.277 38.125-2.885 76.729 3 114.5.901 5.78 7.029 18.914 6 23.5-3.182-1.626-6.74-3.038-9-6-4.204-5.511-6.275-22.314-7-29.5-2.361-23.394 3.901-75.447 0-92-.814-3.454-.171-2.55-4-2.5.392-2.631 1.613-5.022 1-8 1.134.055 9.515.12 10 0"/><path fill="url(#a)" d="m794 369-5 5.5c3.086 115.508.902 236.299-51 341.5-1.167-2.806.313-3.416-3.5-5-19.599-8.144-56.76-24.596-75.5-30 .674-3.206-1.477-3.704-3.5-5-33.909-21.728-78.714-45.776-118-23l5.5 1c-7.409 1.904-23.102 9.863-29 15-.204.177-1.913.899-2 1h-2c-.02-.837-.736-1.041-1-2-3.196-11.613-24.5-23.049-36-23.5l7.5 5.5c-38.085-14.027-60.192-2.197-92.5 15-9.812 5.223-18.853 11.646-28.5 17-6.664 3.699-38.537 16.698-41 19-3.838 3.588 1.56 7.998.5 12.5 1.662-.441 3.396-.26 5-.5-10.799 6.793-23.459 8.99-36 10a2273 2273 0 0 1-9-19c-47.867-102.126-49.393-218.481-45-329.5-1.988-2.352-3.12-3.299-6-4.5-3.421-4.023 4.453-16.719 7-21.5 120.403-225.99 409.395-234.519 543-15 2.656 4.365 17.637 30.314 18 33 .042.307-1.81 1.232-2 2.5M499.5 184C392.13 190.768 255.08 307.4 246 416.5c-6.094 73.224 11.629 199.112 47 264 3.328 6.105 12.431 26.046 20.5 22.5 3.706-1.629-8.977-27.714-10.5-32.5-23.693-74.476-36.716-196.238-18-272 21.539-87.19 99.189-178.134 187.5-201.5 13.714-3.628 28.092.399 37.5-12.5-.651-.853-8.742-.611-10.5-.5m-1 43C344.716 235.233 258.812 413.491 346 540.5c73.529 107.112 228.209 116.261 315 21C781.733 428.986 676.131 217.491 498.5 227" style="fill:url(#a)"/>/&gt;<path fill="#a6cfdd" d="M801 192c4.381 20.951 7.616 51.932 9 73.5.621 9.682 2.961 39.445 1 47-.265 1.023-3.517 5.026-4.5 5.5-9.285 4.474-15.029-7.406-18.5-14 7.576-8.811 8.756-53.422 9-67 .294-16.332-.438-32.764-2-49 .316-4.947-.638-10.097.5-15 3.098 5.231 2.263 12.913 3.5 18.5.189.855 1.979.399 2 .5"/><path fill="#a5cedc" d="M234 305c-.607 9.086-15.163 22.452-21 11.5-7.393-13.87 6.79-113.977 10-135.5 3.829-.05 3.186-.954 4 2.5 3.901 16.553-2.361 68.606 0 92 .725 7.186 2.796 23.989 7 29.5"/><path fill="#e5f8fc" d="M499.5 184c1.758-.111 9.849-.353 10.5.5-9.408 12.899-23.786 8.872-37.5 12.5-88.311 23.366-165.961 114.31-187.5 201.5-18.716 75.762-5.693 197.524 18 272 1.523 4.786 14.206 30.871 10.5 32.5-8.069 3.546-17.172-16.395-20.5-22.5-35.371-64.888-53.094-190.776-47-264 9.08-109.1 146.13-225.732 253.5-232.5"/><path fill="#edfafd" d="m797 237-3-21.5c-.636-9.249.414-18.334 1-27.5 1.562 16.236 2.294 32.668 2 49"/><path fill="#1c5a6f" d="M498.5 227c177.631-9.509 283.233 201.986 162.5 334.5-86.791 95.261-241.471 86.112-315-21-87.188-127.009-1.284-305.267 152.5-313.5M424 600c134.48 67.115 293.104-36.352 283-186.5-3.558-52.871-33.539-108.023-76-139.5-61.133-54.267-161.864-54.485-228.5-10-123.625 82.53-111.173 269.786 21.5 336"/><path fill="#cdeaf3" d="M631 274c.53.471 5.307 7.321 8 10-3.758 2.349 1.042 7.113 0 13l-2-1c.041-.319 0-.674 0-1 .007-11.191-5.504-5.87-7-6-7.396-.641-9.363-2.504-16 2-.344.234-1.897-2.024-3 .5-.575 1.315.803 5.485-.5 6.5-.707.551-16.273-13.611-13.5-6.5.59 1.511 12.934 3.679 4 9.5-78.905-58.215-191.131-29.085-231 60-17.041 38.076-19.271 77.399-5 117 11.686 32.429 35.745 59.42 65 77 21.087 12.671 45.023 21.749 70 23 118.693 5.945 201.501-116.678 147-224l5-2c1.463 2.483 6.734 14.658 7.5 15 1.113.497 4.504-5.677 6-6 .637-.138 12.379.801 13 1 1.756.564 6.812 8.78 1.5 8-.056-1.153.037-2.334 0-3.5-.833-2.339-3.786-1.441-4-1.5-11.535-3.181-11.886-1.032-12 8-.111 8.804 3.587 13.476 5 22 14.442 87.139-33.957 167.983-122 187-16.857 3.641-35.181 5.458-52.5 4-8.348-.703-42.958-12.093-45-11-1.028.55-10.898 18.518-8.5 21-6.125-2.199-19.455-7.925-25-11-.75-.608-2.213-3.72-5-3-6.12-3.604-13.282-10.955-19.5-15-6.458-.487 9.853 9.947 10.5 10.5.831.709-2.109 1.456.5 3.5 12.601 9.87 33.059 18.136 47.5 25.5-1.338 2.873-22.421-7.698-25-9l-1 2.5c-132.673-66.214-145.125-253.47-21.5-336 66.636-44.485 167.367-44.267 228.5 10m-246 15c-11.258 8.726 10.325 17.757 13 7.5 1.543-5.916-2.113-6.073-5-7.5-3.092-1.528-2.81-4.023-8 0m-25.5 29c-4.967 1.637-4.738 11.469 1 13 15.748 4.203 11.566-17.142-1-13"/><path fill="#077294" d="M601 301c18.946 13.978 35.295 31.919 46 53 54.501 107.322-28.307 229.945-147 224 1.191-18.308 4.617-11.861 16-14 77.811-1.909 138.81-65.186 135-143.5l-2.5-5.5c4.557 43.575-15.092 84.031-47.5 112l-2.5-19-13 10-7.5-12c77.45-63.951 20.138-188.377-79-180l-10-19c6.143-2.024 12.267-4.179 18.5-6l16-2c-26.749-.947-52.523 1.58-76.5 14-1.666.863-4.808 2.275-6 3l-4.5-8c-11.764 8.725-25.211 19.109-34.5 30.5-3.629 4.45-15.212 25.618-16.5 26.5-1.718 1.176-12.256-5.542-15.5-4 39.869-89.085 152.095-118.215 231-60"/><path fill="#b6e8f3" d="m424 600 1-2.5c2.579 1.302 23.662 11.873 25 9-14.441-7.364-34.899-15.63-47.5-25.5-2.609-2.044.331-2.791-.5-3.5-.647-.553-16.958-10.987-10.5-10.5 6.218 4.045 13.38 11.396 19.5 15 1.665.98 3.245 2.027 5 3 13.455 10.899 32.26 16.726 48.5 22l-1 4c1.225 1.169 30.469 5.229 33.5 5 85.902 9.05 179.884-55.538 199-140 11.876-39.115 8.796-82.22-6-120-11.881-30.337-28.413-49.528-51-72-2.693-2.679-7.47-9.529-8-10 42.461 31.477 72.442 86.629 76 139.5C717.104 563.648 558.48 667.115 424 600"/><path fill="#476d7a" d="M828 299c.097.978-.092 2.021 0 3-5.998 19.007 1.633 37.965-14 55-.71-1.563-3.656-2.672-4-7.5-.095-1.328 1.544-7.625 2-9.5 6.585-27.101 11.697-26.111 9-59 4.976 1.485.488 22.775 7 18"/><path fill="#8abcce" d="M690 356c-1.693 4.482 5.88 16.257 5 19.5-.433 1.596-22.729 18.589-26 19.5-1.413-8.524-5.111-13.196-5-22 5.021 3.376 11.601 6.718 15 0 .466-.922 1.118-.574 1-3 5.312.78.256-7.436-1.5-8-.621-.199-12.363-1.138-13-1-1.496.323-4.887 6.497-6 6-.766-.342-6.037-12.517-7.5-15-9.839-16.701-20.76-32.232-35-45.5.475-3.491 19.417 5.089 22-9.5 1.042-5.887-3.758-10.651 0-13 22.587 22.472 39.119 41.663 51 72"/><path fill="#0588b9" d="m393 289 1 8.5c-6.515 4.55-8.828-2.686-9-8.5 5.19-4.023 4.908-1.528 8 0"/><path fill="#21b7da" d="M637 295c-5.919 6.878-12.543.915-7-6 1.496.13 7.007-5.191 7 6"/><path fill="#0180ad" d="M630 289c-5.543 6.915 1.081 12.878 7 6 0 .326.041.681 0 1-1.839 14.405-27.599 9.145-23-5 6.637-4.504 8.604-2.641 16-2"/><path fill="#62c9e4" d="M393 289c2.887 1.427 6.543 1.584 5 7.5-2.675 10.257-24.258 1.226-13-7.5.172 5.814 2.485 13.05 9 8.5z"/><path fill="#c3e1ec" d="M614 291c-4.599 14.145 21.161 19.405 23 5l2 1c-2.583 14.589-21.525 6.009-22 9.5 14.24 13.268 25.161 28.799 35 45.5l-5 2c-10.705-21.081-27.054-39.022-46-53 8.934-5.821-3.41-7.989-4-9.5-2.773-7.111 12.793 7.051 13.5 6.5 1.303-1.015-.075-5.185.5-6.5 1.103-2.524 2.656-.266 3-.5"/><path fill="#a5deea" d="M489 307c-5.751 1.895-9.552 3.433-15 6l1-6.5c-2.87-2.214-19.63 6.124-23.5 7.5-1.762.627-3.37 1.096-4.5-1 23.977-12.42 49.751-14.947 76.5-14l-16 2c-6.233 1.821-12.357 3.976-18.5 6"/><path fill="#334a56" d="M816 370c-1.189-.421-3.541.23-5.5-1-3.053-1.917-.412-2.876-.5-3 4.422-3.987 5.863-4.898 4-9 15.633-17.035 8.002-35.993 14-55 2.386 25.461 3.638 45.789-12 68"/><path fill="#496e7b" d="M200 306c.335 8.442 2.803 15.04 4 23 .015.102-2.114-.282-2 .5 1.338 9.134.357 17.675 11 15.5 3.523-.72 7.46-4.584 10-7-1.927 5.103-6.792 11.849-10 16.5-1.02 1.479-3.936 4.504-6 4.5-7.535-15.965-12.577-26.856-12-45.5z"/><path fill="#effbfd" d="M474 313c-15.51 7.309-26.515 15.444-39 27-8.967 8.3-18.166 17.846-25 28-5.17.066-7.289-2.195-11-5 9.384-18.303 24.254-36.21 42-47 1.192-.725 4.334-2.137 6-3 1.13 2.096 2.738 1.627 4.5 1 3.87-1.376 20.63-9.714 23.5-7.5z"/><path fill="#2aaecb" d="m489 307 10 19c-2.107.178-3.996.71-6 1-.326.047-.674-.051-1 0-19.049-7.373-41.453 6.374-54 20l-3-7c12.485-11.556 23.49-19.691 39-27 5.448-2.567 9.249-4.105 15-6"/><path fill="#2898b0" d="M441 316c-17.746 10.79-32.616 28.697-42 47a130 130 0 0 0-5 11c-3.467 8.615-6.312 16.807-8 26-12.577.137-12.365-1.771-14 11.5-2.529 20.531 2.089 44.112 7 64-2.934-9.138-8.396.776-14 2.5-14.271-39.601-12.041-78.924 5-117 3.244-1.542 13.782 5.176 15.5 4 1.288-.882 12.871-22.05 16.5-26.5 9.289-11.391 22.736-21.775 34.5-30.5z"/><path fill="#12a1cb" d="M359.5 318c12.566-4.142 16.748 17.203 1 13-5.738-1.531-5.967-11.363-1-13"/><path fill="#7ea5b1" d="M237 321c-2.125 3.905-6.059 8.296-8 12-3.133.011-4.233 3.319-6 5-2.54 2.416-6.477 6.28-10 7 .975-1.559 1.564-4.342 1-6z"/><path fill="#dbf4fa" d="M492 327c-26.397 4.147-65.334 21.338-67 54-2.277 1.97-3.601 5.386-5 8-2.619.499-1.099-8.055-1-8.5 2.349-10.546 11.623-25.489 19-33.5 12.547-13.626 34.951-27.373 54-20"/><path fill="#032e48" d="M578 506c-26.205 21.638-60.353 28.44-93 20-57.46-14.855-92.32-79.338-67-135 5.23 2.553.327 10.604 4.5 14 3.221 2.622 7.681-3.92 9.5-6 24.901 12.578 80.623-37.132 70-63.5-.841-2.087-7.254-6.492-9-8.5 2.004-.29 3.893-.822 6-1 99.138-8.377 156.45 116.049 79 180m-13-104c-37.079 16.652-16.459 88.228 25.5 67 26.352-13.332 30.772-61.595-1.5-70-2.282-12.807-23.019-13.446-24 3"/><path fill="#f9fcfd" d="M432 399c-7.399-3.737-7.37-10.745-7-18 1.666-32.662 40.603-49.853 67-54 .326-.051.674.047 1 0 1.746 2.008 8.159 6.413 9 8.5 10.623 26.368-45.099 76.078-70 63.5"/><path fill="#2e505c" d="M204 329c2.232 1.997 9.193 7.629 10 10 .564 1.658-.025 4.441-1 6-10.643 2.175-9.662-6.366-11-15.5-.114-.782 2.015-.398 2-.5"/><path fill="#769ea9" d="M229 333c-6.007 11.462-11.456 23.305-17 35-1.849-2.931-3.514-5.851-5-9 2.064.004 4.98-3.021 6-4.5 3.208-4.651 8.073-11.397 10-16.5 1.767-1.681 2.867-4.989 6-5"/><path fill="#6f98a5" d="M812 340c-.456 1.875-2.095 8.172-2 9.5.344 4.828 3.29 5.937 4 7.5 1.863 4.102.422 5.013-4 9-6.816-9.619-10.937-21.813-17-32l15.5 15z"/><path fill="#1ec7e8" d="M438 347c-7.377 8.011-16.651 22.954-19 33.5-.099.445-1.619 8.999 1 8.5-.787 1.471-1.337.542-2 2-25.32 55.662 9.54 120.145 67 135 .72 3.574-2.081 6.177-4.5 8-13.029 9.815-40.385 7.602-50.5 21-29.255-17.58-53.314-44.571-65-77 5.604-1.724 11.066-11.638 14-2.5-4.911-19.888-9.529-43.469-7-64 1.635-13.271 1.423-11.363 14-11.5-1.769 9.639-4.863 24.393-1 33.5-.321-13.653-.064-27.749 4.5-40.5 1.688 4.803-1.69 7.381 2 13 3.423-7.242 5.904-14.829 9.5-22 2.758-5.501 5.558-10.886 9-16 6.834-10.154 16.033-19.7 25-28z"/><path fill="#779faf" d="M696 476c1.773-7.834 2.225-16.559 4-24.5-.537-.647-7.886-.816-8.5-.5-1.31.674-6.07 24.462-7.5 28.5-21.819 61.592-75.197 109.198-139 123.5l2-21c88.043-19.017 136.442-99.861 122-187 3.271-.911 25.567-17.904 26-19.5.88-3.243-6.693-15.018-5-19.5 14.796 37.78 17.876 80.885 6 120"/><path fill="#cef3f9" d="M410 368c-3.442 5.114-6.242 10.499-9 16-10.992-3.084-2.945-3.267-7-10a130 130 0 0 1 5-11c3.711 2.805 5.83 5.066 11 5"/><path fill="#015f89" d="M676 365c-1.891 2.778-1.535 8.646 3 8-3.399 6.718-9.979 3.376-15 0 .114-9.032.465-11.181 12-8"/><path fill="#1086a9" d="M680 370c.118 2.426-.534 2.078-1 3-4.535.646-4.891-5.222-3-8 .214.059 3.167-.839 4 1.5.037 1.166-.056 2.347 0 3.5"/><path fill="#03446e" d="M228 370c2.88 1.201 4.012 2.148 6 4.5-4.393 111.019-2.867 227.374 45 329.5-4.376-1.579-8.034-10.92-10-15.5-4.88-11.369-10.388-27.109-14-39-26.583-87.502-25.893-181.075-24-272-4.296-12.738-53.723 8.328-61.5 14.5-10.397 8.251-13.847 25.561-16.5 38-5.774 27.07-7.402 55.519-4 83-.838 22.618 11.036 79.958 23 99-1.354-1.947-6.275-7.988-7-9.5-8.323-17.363-15.491-52.604-18-73-.113-.921 2.334-16.494-2.5-12.5l-1.5 5.5c.085-3.201.086-6.344 0-9.5-.064-2.32.033-4.679 0-7-.005-.333.004-.667 0-1-.294-23.836-.047-47.669-1-71.5-3.661 1.271-15.153 7.937-17 10.5-6.483 1.716-.324-5.38 2-8 4.74-4.652 22.226-14.333 23-15.5 4.619-6.957 3.591-21.413 13.5-30.5 7.349-6.739 33.412-16.806 43.5-19 2.059-.448 3.929-1.856 5-2 4.295-.577 12.278-.552 16 1"/><path fill="#014772" d="M805 373c-.047 2.11-.134 11.522 1 12.5 1.752 1.511 6.284-1.252 6 2.5-2.116-.162-3.992-1.641-6.5-1-2.247 1.41-1.208 3.116-1.5 5-4.957 32.03 1.714 71.675-3 104.5.688 1.315 18.919 3.039 22 3.5.425 2.577-.783 15.089.5 16 3.737 2.654 37.911.563 44.5 3-3.513 33.455-11.25 68.794-25 99.5 16.517-14.454 22.23-44.207 26-65.5 5.635 2.904 5.263-7.334 6-11 3.068.967 20.227 4.565 21 6.5.261.654-5.641 11.248-4 13.5-.343.887-3.072 4.109-.5 4 11.385-15.843 15.715-37.559 16.5-57l3 5c-1.859 30.394-11.877 59.235-34.5 80-10.153 9.32-13.737 12.345-23.5 22.5-2.602 2.706-19.108 20.095-20.5 20.5-8.151 2.374-48.276-2.429-52.5.5-9.061 29.351-18.563 58.802-34 85.5-5.177.543-6.188.22-11 0 .354-2.528 1.899-4.769 3-7 51.902-105.201 54.086-225.992 51-341.5l5-5.5c-.391 2.605-2.87 3.252-1.5 6 4.707-4.24 7.517-2.477 12.5-2"/><path fill="#0081aa" d="m851 390-4 7c-4.189-2.43-29.499-8.578-35-9 .284-3.752-4.248-.989-6-2.5-1.134-.978-1.047-10.39-1-12.5 12.752 1.221 35.683 9.392 46 17"/><path fill="url(#b)" d="M279 704a2273 2273 0 0 0 9 19c-4.81.387-7.136.385-12 0l-35.5-86c-11.751-.354-40.004 3.837-50 1-3.674-1.043-14.378-14.758-17.5-18 2.037-2.508-2.88-5.977 3-4 .16.173 3.512 5.794 4 2.5-15.466-30.548-21.356-64.779-25-98.5 3.123-.084 24.437-.247 25.5-1 .656-.464 1.575-13.937 1.5-16 .329-.039.671.04 1 0 4.659-.561 37.091-3.809 38-5.5l-2-56.5-1.5-53c-3.434-1.529-38.691 7.37-43 10-6.01 3.668-5.863 8.946-8.5 15-1.506 3.458-2.83 6.361-4 10-1.796 5.587-3.746 12.294-5 18-1.088 4.948-.149 13.29-4 16.5 1.119-10.28 4.832-19.777 0-27.5 2.653-12.439 6.103-29.749 16.5-38 7.777-6.172 57.204-27.238 61.5-14.5-1.893 90.925-2.583 184.498 24 272 3.612 11.891 9.12 27.631 14 39 1.966 4.58 5.624 13.921 10 15.5" style="fill:url(#b)"/>/&gt;<path fill="#8ee2f3" d="M401 384c-3.596 7.171-6.077 14.758-9.5 22-3.69-5.619-.312-8.197-2-13-4.564 12.751-4.821 26.847-4.5 40.5-3.863-9.107-.769-23.861 1-33.5 1.688-9.193 4.533-17.385 8-26 4.055 6.733-3.992 6.916 7 10"/><path fill="#6bb1c3" d="M432 399c-1.819 2.08-6.279 8.622-9.5 6-4.173-3.396.73-11.447-4.5-14 .663-1.458 1.213-.529 2-2 1.399-2.614 2.723-6.03 5-8-.37 7.255-.399 14.263 7 18"/><path fill="#4ed3ed" d="M812 388c5.501.422 30.811 6.57 35 9 6.059 3.514 14.457 28.507 17 36-11.145.172-6.546 2.737-9 7.5-.169.327-3.529 1.529-4 3-1.714 5.356 4.831 6.875 3 11.5-7.459-2.097-16.64-5.323-24-8-3.325-1.209-21.278-6.667-22-8.5-1.915-14.379 4.292-34.368-4-46.5.292-1.884-.747-3.59 1.5-5 2.508-.641 4.384.838 6.5 1m21.5 21c-7.381 2.092-5.439 15.134 4 14 9.405-1.13 8.731-17.608-4-14"/><path fill="#0bc7eb" d="m219 441-3-14c1.208-9.007.308-23.883-1.5-33-1.718-.769-35.407 5.996-37 7-3.501 2.207-5.452 17.388-11.5 12 2.637-6.054 2.49-11.332 8.5-15 4.309-2.63 39.566-11.529 43-10z"/><path fill="#fefefe" d="M589 399c3.632 20.386-25.301 24.804-24 3 .981-16.446 21.718-15.807 24-3"/><path fill="#07aad0" d="M868 422c.615 2.354 1.494 4.624 2 7-7.33 1.701-3.786 4.629-4.5 10-1.806-1.664-1.041-4.647-1.5-6-2.543-7.493-10.941-32.486-17-36l4-7c10.84 7.994 13.671 19.258 17 32"/><path fill="#069fc6" d="m830 447 10 55c-3.59-.426-7.479-.511-11-1-1.705-.237-2.168-.882-3-1-.962-.137-2.04.143-3 0-3.081-.461-21.312-2.185-22-3.5 4.714-32.825-1.957-72.47 3-104.5 8.292 12.132 2.085 32.121 4 46.5.722 1.833 18.675 7.291 22 8.5"/><path fill="#5ed3ea" d="M216 427c-1.513 11.28-15.467 8.81-22 21-8.496.602-15.756 6.409-23.5 9-2.957.989-5.432-.85-8.5 0-2.068-.039-1.853-2.895-2-3-.707-2.626 1.927-1.879 2-2l3.5 3c2.019-1.463 2.838-3.764 3.5-6 3.108-10.499-7.139-17.13 4-24 2.283-1.408 10.666.143 7-8.5-4.927-2.319-10.448-3.559-10 3.5l-8 3c1.17-3.639 2.494-6.542 4-10 6.048 5.388 7.999-9.793 11.5-12 1.593-1.004 35.282-7.769 37-7 1.808 9.117 2.708 23.993 1.5 33"/><path fill="#437f91" d="M565 402c-1.301 21.804 27.632 17.386 24-3 32.272 8.405 27.852 56.668 1.5 70-41.959 21.228-62.579-50.348-25.5-67"/><path fill="#fcfefe" d="M833.5 409c12.731-3.608 13.405 12.87 4 14-9.439 1.134-11.381-11.908-4-14"/><path fill="#fbfefe" d="M173 425c-.907-2.143-2.821-2.181-3-5-.448-7.059 5.073-5.819 10-3.5 3.666 8.643-4.717 7.092-7 8.5"/><path fill="#f7fcfd" d="M516 564c31.255-5.874 59.157-14.696 85-37 32.408-27.969 52.057-68.425 47.5-112l2.5 5.5c3.81 78.314-57.189 141.591-135 143.5"/><path fill="#7adcf0" d="M170 420c.179 2.819 2.093 2.857 3 5-11.139 6.87-.892 13.501-4 24-7.068-6.268-4.528-1.082-7 3-.073.121-2.707-.626-2 2-.173-.124-2.334 1.883-3-.5-1.087-3.889 3.749-10.091 0-12.5 1.254-5.706 3.204-12.413 5-18z"/><path fill="#06365a" d="M874 422c8.058 2.698 24.083 11.861 28 19.5 7.548 14.722 10.027 55.703 9 72.5l-3-5c.718-17.787-1.195-43.822-9-60-3.953-8.193-8.775-13.721-18-14.5-.134 3.821.187 7.696 0 11.5-.228 4.634.196 9.363 0 14-.618 14.629-.97 29.394-2 44-.209 2.96.24 6.046 0 9-.764 9.406-2.139 19.742-4 29-.737 3.666-.365 13.904-6 11 1.744-9.846 3.069-20.038 4-30 2.867-30.683 3.432-63.775-3-94-.506-2.376-1.385-4.646-2-7 2.286-3.406 2.528-1.162 6 0"/><path fill="#0597bf" d="m219 441 2 56.5c-.909 1.691-33.341 4.939-38 5.5 2.27-15.174 3.869-41.695 11-55 6.533-12.19 20.487-9.72 22-21z"/><path fill="#a3e8f8" d="M870 429c6.432 30.225 5.867 63.317 3 94-4.853-1.105.316-8.483-1-11.5l-2 7-2-1.5c.487-4.975-.244-8.112 0-12 .008-.125 1.961-.749 2-1.5.315-5.978.604-44.379-1-47-5.97.792-9.28.108-15-1.5 1.831-4.625-4.714-6.144-3-11.5.471-1.471 3.831-2.673 4-3 2.454-4.763-2.145-7.328 9-7.5.459 1.353-.306 4.336 1.5 6 .714-5.371-2.83-8.299 4.5-10m-3.5 11c-1.072.027-.669 7.787 1 9 1.453-2.989-.55-6.059-1-9"/><path fill="#98e8f7" d="M157 441c3.749 2.409-1.087 8.611 0 12.5.666 2.383 2.827.376 3 .5.147.105-.068 2.961 2 3-1.141.316-8.808 3.057-9 3.5-1.703 15.191-.988 30.319 0 45.5.137 2.1.765 5.367 1 8l-2 1.5-1.5-14.5c.051 3.817-1.365 8.368-1.5 12-3.402-27.481-1.774-55.93 4-83 4.832 7.723 1.119 17.22 0 27.5 3.851-3.21 2.912-11.552 4-16.5"/><path fill="#5cd5ef" d="m143 505-2-39.5c-1.393-.963-2.813 2.443-3 2.5-5.196 1.585-11.85 1.315-17-.5-2.788 12.187-2.283 24.317-2 36.5.084 3.628-.26 7.393 0 11 1.386 19.22 5.127 37.946 13 55.5-17.943-23.545-21.481-63.071-17-92 .813-5.25 7.539-31.085 10-34.5 1.847-2.563 13.339-9.229 17-10.5.953 23.831.706 47.664 1 71.5m-14.5-53c-1.225.273-5.409 12.009-2 13 5.751-.152 2.17-6.338 7.5-8.5.27-3.34-2.693-5.126-5.5-4.5"/><path fill="#0cc6ea" d="M899 449c-1.272.664-2.439 1.473-4 1-.332-.101-3.057-2.295-6-3-2.547-.61-5.344-1.135-8-1 .187-3.804-.134-7.679 0-11.5 9.225.779 14.047 6.307 18 14.5"/><path fill="url(#c)" d="M127 436c-2.324 2.62-8.483 9.716-2 8-2.461 3.415-9.187 29.25-10 34.5-4.481 28.929-.943 68.455 17 92-7.873-17.554-11.614-36.28-13-55.5 7.628.69 17.094.829 24-2 .086 3.156.085 6.299 0 9.5l1.5-5.5c4.834-3.994 2.387 11.579 2.5 12.5 2.509 20.396 9.677 55.637 18 73 .725 1.512 5.646 7.553 7 9.5.15.24 3.129 3.062 4 4-5.88-1.977-.963 1.492-3 4-27.039-28.08-50.112-37.872-59-80.5-4.668-22.387-4.612-79.12 7-99 1.519-2.601 5.178-3.693 6-4.5" style="fill:url(#c)"/>/&gt;<path fill="#28b8e2" d="M866.5 440c.45 2.941 2.453 6.011 1 9-1.669-1.213-2.072-8.973-1-9"/><path fill="#a4ebf9" d="M169 449c-.662 2.236-1.481 4.537-3.5 6l-3.5-3c2.472-4.082-.068-9.268 7-3"/><path fill="#71dff3" d="M889 447c-.211 2.402 3.611 21.395 7 13.5.991-2.31-4.093-5.887-1-10.5 1.561.473 2.728-.336 4-1 7.805 16.178 9.718 42.213 9 60-.785 19.441-5.115 41.157-16.5 57-2.572.109.157-3.113.5-4 6.27-16.217 9.885-31.418 11-49 .208-3.285-.049-6.699 0-10 .05-3.387.559-23.41 0-24.5-.239-.466-9.562 1.122-9-3 .495-3.631 10.891 2.811 8-7-5.192 1.419-9.309-4.357-17-2.5-.522-1.469-2.945-4.501-4-6 .196-4.637-.228-9.366 0-14 2.656-.135 5.453.39 8 1"/><path fill="#16c2e7" d="M854 455c5.72 1.608 9.03 2.292 15 1.5 1.604 2.621 1.315 41.022 1 47-.039.751-1.992 1.375-2 1.5-9.348-.728-18.696-1.897-28-3l-10-55c7.36 2.677 16.541 5.903 24 8"/><path fill="#e2f8fc" d="M895 450c-3.093 4.613 1.991 8.19 1 10.5-3.389 7.895-7.211-11.098-7-13.5 2.943.705 5.668 2.899 6 3"/><path fill="#19c8ea" d="M194 448c-7.131 13.305-8.73 39.826-11 55-.329.04-.671-.039-1 0-9.632 1.134-19.216 3.213-29 3-.988-15.181-1.703-30.309 0-45.5.192-.443 7.859-3.184 9-3.5 3.068-.85 5.543.989 8.5 0 7.744-2.591 15.004-8.398 23.5-9"/><path fill="#5a7f8d" d="M696 476c-19.116 84.462-113.098 149.05-199 140 6.431-.485 10.72-.305 9-8 12.772-.12 26.552-2.21 39-5 63.803-14.302 117.181-61.908 139-123.5 1.43-4.038 6.19-27.826 7.5-28.5.614-.316 7.963-.147 8.5.5-1.775 7.941-2.227 16.666-4 24.5"/><path fill="#f1fcfc" d="M128.5 452c2.807-.626 5.77 1.16 5.5 4.5-5.33 2.162-1.749 8.348-7.5 8.5-3.409-.991.775-12.727 2-13"/><path fill="#05b0d7" d="M885 466c3.7 10.416 4.662 26.779 6 38-3.985.077-8.014-.055-12 0 1.03-14.606 1.382-29.371 2-44 1.055 1.499 3.478 4.531 4 6"/><path fill="#05b2d8" d="M143 505c.004.333-.005.667 0 1-6.749-1.324-13.195-.147-20-1 1.417-2.046 7.755-.172 9-2.5 2.211-4.134 2.104-28.007 6-34.5.187-.057 1.607-3.463 3-2.5z"/><path fill="#13c7eb" d="M903 503c-3.938 1.466-7.933.921-12 1-1.338-11.221-2.3-27.584-6-38 7.691-1.857 11.808 3.919 17 2.5 2.891 9.811-7.505 3.369-8 7-.562 4.122 8.761 2.534 9 3 .559 1.09.05 21.113 0 24.5"/><path fill="#1ccbee" d="M138 468c-3.896 6.493-3.789 30.366-6 34.5-1.245 2.328-7.583.454-9 2.5-1.738-.218-2.419-1.018-4-1-.283-12.183-.788-24.313 2-36.5 5.15 1.815 11.804 2.085 17 .5m-15.5 7c-1.261.58-3.073 6.716 1 7 5.303.37 3.294-8.974-1-7"/><path fill="#8be3f4" d="M122.5 475c4.294-1.974 6.303 7.37 1 7-4.073-.284-2.261-6.42-1-7"/><path fill="#0081aa" d="m826 500 1.5 15 1.5-14c3.521.489 7.41.574 11 1 9.304 1.103 18.652 2.272 28 3-.244 3.888.487 7.025 0 12-.064.651.068 1.351 0 2-6.589-2.437-40.763-.346-44.5-3-1.283-.911-.075-13.423-.5-16 .96.143 2.038-.137 3 0"/><path fill="#014772" d="m829 501-1.5 14-1.5-15c.832.118 1.295.763 3 1"/><path fill="#3ed2ee" d="M154 514c.186 2.081.803 4.181 1 6 3.644 33.721 9.534 67.952 25 98.5-.488 3.294-3.84-2.327-4-2.5-.871-.938-3.85-3.76-4-4-11.964-19.042-23.838-76.382-23-99 .135-3.632 1.551-8.183 1.5-12l1.5 14.5z"/><path fill="#008eb9" d="M182 503c.075 2.063-.844 15.536-1.5 16-1.063.753-22.377.916-25.5 1-.197-1.819-.814-3.919-1-6-.235-2.633-.863-5.9-1-8 9.784.213 19.368-1.866 29-3"/><path fill="#008ab5" d="M903 503c-.049 3.301.208 6.715 0 10h-24c.24-2.954-.209-6.04 0-9 3.986-.055 8.015.077 12 0 4.067-.079 8.062.466 12-1"/><path fill="#0189b4" d="M123 505c6.805.853 13.251-.324 20 1 .033 2.321-.064 4.68 0 7-6.906 2.829-16.372 2.69-24 2-.26-3.607.084-7.372 0-11 1.581-.018 2.262.782 4 1"/><path fill="#03abd2" d="m578 506 7.5 12 13-10 2.5 19c-25.843 22.304-53.745 31.126-85 37-11.383 2.139-14.809-4.308-16 14-24.977-1.251-48.913-10.329-70-23 10.115-13.398 37.471-11.185 50.5-21 2.419-1.823 5.22-4.426 4.5-8 32.647 8.44 66.795 1.638 93-20"/><path fill="#48d4ee" d="M873 523c-.931 9.962-2.256 20.154-4 30-3.77 21.293-9.483 51.046-26 65.5 13.75-30.706 21.487-66.045 25-99.5.068-.649-.064-1.349 0-2l2 1.5 2-7c1.316 3.017-3.853 10.395 1 11.5"/><path fill="#005986" d="M903 513c-1.115 17.582-4.73 32.783-11 49-1.641-2.252 4.261-12.846 4-13.5-.773-1.935-17.932-5.533-21-6.5 1.861-9.258 3.236-19.594 4-29z"/><path fill="#8abcce" d="m547 582-2 21c-12.448 2.79-26.228 4.88-39 5-22.6.212-43.937-4.438-65-12-2.398-2.482 7.472-20.45 8.5-21 2.042-1.093 36.652 10.297 45 11 17.319 1.458 35.643-.359 52.5-4"/><path fill="#779faf" d="M416 585c-1.755-.973-3.335-2.02-5-3 2.787-.72 4.25 2.392 5 3"/><path fill="#769eae" d="M441 596c21.063 7.562 42.4 12.212 65 12 1.72 7.695-2.569 7.515-9 8-3.031.229-32.275-3.831-33.5-5l1-4c-16.24-5.274-35.045-11.101-48.5-22 5.545 3.075 18.875 8.801 25 11"/><path fill="#598d9c" d="M659 681c-1.83-.528-6.382-3.029-8-1-31.669-21.754-68.834-36.064-108-26l-5.5-1c39.286-22.776 84.091 1.272 118 23 2.023 1.296 4.174 1.794 3.5 5"/><path fill="#74a0af" d="M509 668c-15.027-8.062-28.669-14.375-46-16-21.862-2.049-45.191 1.592-65 11-1.788-1.926-7.462 2.218-9.5 4l-.5-2c32.308-17.197 54.415-29.027 92.5-15l-7.5-5.5c11.5.451 32.804 11.887 36 23.5"/><path fill="#080a0c" d="M463 652v1c-1.507-.131-13.991-.221-14 .5 2.189 1.403 20.717 1.329 15 6.5-26.598-7.228-41.827.722-64 14-20.332 12.176-40.593 33.679-61 43-2.861 1.307-4.761.91-5 1 28.87-14.708 52.243-42.168 81.5-56 6.642-3.14 16.054-4.251 21-8-56.381 5.34-85.317 64.538-140.5 72-4.519.276-8.156 1.212-13 1-24.617-1.08-53.458-12.171-55-41-.143-2.671.983-3.794 1-4 3.47 24.009 24.034 39.182 47 41 4.864.385 7.19.387 12 0 12.541-1.01 25.201-3.207 36-10 14.088-2.105 55.32-41.129 74-50 19.809-9.408 43.138-13.049 65-11"/><path fill="#070c11" d="M651 680c29.785 20.46 43.478 41.148 84 43 4.812.22 5.823.543 11 0 23.309-2.445 51.657-20.079 47-47l2-.5c.747 1.867-.183 7.329 0 8.5-3.448 41.421-51.165 48.392-84 39-45.059-12.889-73.942-66.326-123.5-67 41.807 6.927 75.154 56.844 113.5 67-.463 1.558-6.877-.75-7.5-1-25.639-10.274-48.328-34.849-72.5-49-25.167-14.733-52.856-24.949-79-5-.772.043-2.868.262-3-.5 9.427-7.5 20.328-11.316 32-14-12.732-2.113-24.46 2.182-36 6.5-5.435 2.033-16.894 6.396-21 10v-1c5.898-5.137 21.591-13.096 29-15 39.166-10.064 76.331 4.246 108 26"/><path fill="#1a2f37" d="M509 668c.264.959.98 1.163 1 2-4.337 0-8.593-4.352-12.5-6-2.788.768 3.984 4.519 4.5 5-.907 1.929-4.867-1.372-6-2-4.667-2.585-9.513-5.031-14.5-7 6.882-2.438-15.011-6.696-18.5-7v-1c17.331 1.625 30.973 7.938 46 16m-17.5-6c-.74 1.106 3.111 2.604 3.5 1.5-1.011-1.3-1.8-1.797-3.5-1.5"/><path fill="#4c7380" d="M463 653c3.489.304 25.382 4.562 18.5 7 4.987 1.969 9.833 4.415 14.5 7 1.837 5.193 8.112 8.229 7 14.5l-19 .5c-1.358-.198-3.926-.964-5-1 .353-3.41-4.213-3.308-7-4-11.127-2.763-22.22-2.214-33.5 0-2.076-5.483 8.27-2.678 10-6-29.958.829-51.887 20.231-74.5 37-9.707 1.942-19.227 7.241-28.5 10-1.42.423-6.89 2.561-6.5-1 20.407-9.321 40.668-30.824 61-43 24.334-11.928 52.536-18.111 78.5-7-3.356-4.405-9.56-5.658-14.5-7 5.717-5.171-12.811-5.097-15-6.5.009-.721 12.493-.631 14-.5"/><path fill="#476171" d="M542 668c3.316-.185 13.173-5.185 18.5-6 21.922-3.355 40.802 2.377 60.5 11 24.172 14.151 46.861 38.726 72.5 49 .623.25 7.037 2.558 7.5 1 2.6.689 7.763 2.076 10 0 32.835 9.392 80.552 2.421 84-39 7.251 46.302-41.256 78.981-85.5 83-7.778.706-16.812-.644-23.5-5 3.148.67 13.479-.029 17.5 1-12.155-3.134-25.602-8.396-38.5-11-15.308-9.067-27.734-21.805-40-34.5-.856-.886-5.4-5.893-4-7.5 2.803 2.545 5.595 4.556 7.5 8 2.412.503-.286-3.175-.5-3.5-6.518-9.901-30.419-27.153-41.5-31.5-.644-.253-5.398-.722-5.5 1-1.406-.41-20.343-4.948-16.5-1 3.869-1.023 7.1 3.759 7.5 4-9.745-4.53-20.802-6.837-31.5-6-4.324.338-19.302 6.156-22 5-1.142-.489-2.544-5.285-3.5-7 5.872-6.929 10.687-11.663 20-19 11.54-4.318 23.268-8.613 36-6.5-11.672 2.684-22.573 6.5-32 14 .132.762 2.228.543 3 .5m30.5 3 16 6c-9.49-.554-20.598-2.931-30-2-1.141.113-10.542 1.378-10 4 12.126-.7 28.127-2.428 40-1 37.997 4.571 67.496 48.707 102.5 61.5-8.1-6.004-17.433-10.474-25.5-16.5-28.953-21.626-52.985-50.975-93-52m207 55-11 12c.757.43 16.739-12.767 11-12"/><path fill="#73a0ac" d="M334 718c-14.82 5.56-22.165 7.033-38 8 55.183-7.462 84.119-66.66 140.5-72-4.946 3.749-14.358 4.86-21 8-29.257 13.832-52.63 41.292-81.5 56"/><path fill="#427b88" d="M711 723c-2.237 2.076-7.4.689-10 0-38.346-10.156-71.693-60.073-113.5-67 49.558.674 78.441 54.111 123.5 67"/><path fill="#7bb0b9" d="M464 660c4.94 1.342 11.144 2.595 14.5 7-25.964-11.111-54.166-4.928-78.5 7 22.173-13.278 37.402-21.228 64-14"/><path fill="#6fa3ac" d="M621 673c-19.698-8.623-38.578-14.355-60.5-11-5.327.815-15.184 5.815-18.5 6 26.144-19.949 53.833-9.733 79 5"/><path fill="#15191e" d="M230 671c-29.13 32.217-.418 72.376 24 98 7.515 7.886 12.119 11.736 21 18 9.084 6.408 17.549 11.908 28 16 72.808 28.507 108.762-14.016 149-65l2 1c-12.196 15.86-20.284 32.916-36.5 46-8.582 6.924-18.831 10.805-27.5 17.5 25.268-11.454 52.103-24.586 66.5-49.5.634 10.01-6.06 20.24-13.5 26.5.968 2.887 7.69-2.87 8.5-3.5 15.141-11.782 21.668-29.026 29-46 1.99-.308-.279 4.838-.5 5.5-5.088 15.242-14.9 30.183-25 42.5-5.15 3.797-12.511 8.877-18 12-2.577 1.466-29.663 12.188-28 14.5 16.987-1.978 33.769-10.256 49.5-17.5l28.5-22.5c-26.143 33.168-69.522 46.662-110.5 47.5l11 2c41.555-5.463 92.115-22.016 109-64l-1 12c7.077-6.087 12.166-13.531 16-22 2.283 6.236 7.412 15.213 12.5 19.5 1.456 1.227 2.141 3.655 4 1l-.5-5.5c15.124 29.109 49 46.45 80 54l-42-18c-9.963-7.504-23.253-15.206-28-27l9.5 7c4.961 6.191 6.651 7.443 13 12 7.942 5.701 43.586 23.241 52 22.5 1.011-.089 2.068-1.876 2-2-1.077-1.967-28.874-13.614-33.5-16.5-20.795-12.975-33.156-34.668-39-58 7.612 15.846 14.058 36.253 29 47 .626.45 6.932 4.933 7.5 2.5-4.193-1.633-14.566-21.469-11.5-23.5 11.633 17.692 29.337 28.187 47.5 38 1.18.637 2.526 2.264 4 3 30.747 15.352 60.315 20.486 94 10-.031 2.398.546 2.915 3 2.5 4.476-.757 16.571-6.294 21-8.5-11.189 6.475-25.445 13.049-38.5 15-13.602 2.032-41.35 1.733-55.5 1-5.812-.301-12.172-1.423-18-2-46.465-4.6-88.442-30.007-112.5-70-21.092 33.474-55.54 57.369-93.5 68-5.23-.712-12.855 1.817-19 2-5.643.169-13.099.875-20 1-36.887.668-60.837 3.853-94.5-15-43.264-24.23-107.193-106.126-40.5-140.5-4.725 3.392-10.11 7.198-14 11.5m383.5 138c1.859 3.517 25.492 4.845 25.5 3.5z"/><path fill="#4f8795" d="M535 660c-9.313 7.337-14.128 12.071-20 19-2.807-5.032-4.838-5.631-1-9 4.106-3.604 15.565-7.967 21-10"/><path fill="#92b1c0" d="M398 663c-18.68 8.871-59.912 47.895-74 50-1.604.24-3.338.059-5 .5 1.06-4.502-4.338-8.912-.5-12.5 2.463-2.302 34.336-15.301 41-19 9.647-5.354 18.688-11.777 28.5-17l.5 2c2.038-1.782 7.712-5.926 9.5-4"/><path fill="#497b87" d="M491.5 662c1.7-.297 2.489.2 3.5 1.5-.389 1.104-4.24-.394-3.5-1.5"/><path fill="#010102" d="M736 800c-4.429 2.206-16.524 7.743-21 8.5-2.454.415-3.031-.102-3-2.5 12.949-4.031 25.06-11.098 36-19 32.751-23.657 78.304-78.136 44-116-2.886-3.185-5.754-5.718-9-8.5 11.181 2.389 22.045 20.712 24 31 7.308 38.466-38.633 90.375-71 106.5"/><path fill="#4c838f" d="M510 670h2c-4.055 4.692-.738 5.652-1.5 6-.877.4-5.333-4.096-6.5-5-.197-.153-1.36-1.403-2-2-.516-.481-7.288-4.232-4.5-5 3.907 1.648 8.163 6 12.5 6"/><path fill="#395461" d="M502 669c.64.597 1.803 1.847 2 2 6.999 8.516 10.532 18.744 8.5 30-6.112-14.072-13.742-16.844-28.5-19l19-.5c1.112-6.271-5.163-9.307-7-14.5 1.133.628 5.093 3.929 6 2"/><path fill="#232b30" d="M514 670c-3.838 3.369-1.807 3.968 1 9 .956 1.715 2.358 6.511 3.5 7 2.698 1.156 17.676-4.662 22-5 10.698-.837 21.755 1.47 31.5 6 4.405 2.649 11.789 3.964 15 9-18.684-10.556-45.949-15.395-65-3.5l30.5-.5c9.852 3.502 19.16 7.568 27.5 14 8.352 6.441 23.021 23.657 29 32.5.221.327 5.215 7.402 2.5 7.5-5.87-8.69-12.27-17.417-19.5-25-19.706-20.667-43.768-33.918-72.5-22 4.067.417 8.63-2.049 12.5-2l-12 4.5c39.278 2.733 52.438 43.962 75 69 10.249 11.374 19.042 17.821 32 25.5 3.315 1.964 9.147 4.288 11.5 6 1.495 1.087 3.519 1.051 0 2-6.094-2.164-11.353-6.109-17-9-1.384-.709-3.907-2.131-3.5 1-1.474-.736-2.82-2.363-4-3l-25-24.5c-16.784-21.2-33.568-60.469-64.5-62.5-38.369-2.52-48.535 4.434-70.5 33l-2-1c13.991-17.727 26.665-37.61 53-35.5l-18-5.5c5.959-.29 10.764 1.214 16.5 2-35.263-13.184-59.331 5.371-80.5 31-3.548 4.296-7.981 11.978-13 13.5 20.556-30.764 50.808-63.059 91.5-49.5-7.955-8.231-20.824-8.426-31.5-8-14.425.575-26.424 4.551-38 13 9.821-12.186 31.196-18.532 47-18 1.074.036 3.642.802 5 1 14.758 2.156 22.388 4.928 28.5 19 2.032-11.256-1.501-21.484-8.5-30 1.167.904 5.623 5.4 6.5 5 .762-.348-2.555-1.308 1.5-6 .087-.101 1.796-.823 2-1z"/><path fill="#456672" d="M229 682c-.017.206-1.143 1.329-1 4l-3-2.5c-1.955 3.152-.308 7.114-1 10-.381 1.589-2.642-.949-3 0-.265.703.838 14.266 1 15 .058.264 2.911 4.245 3 4.5 2.602 7.43 6.355 15.701 11 22l-3 2c-.471-.557-2.815-4.587-3-1.5 7.189 10.23 16.372 23.519 26 31.5l-2 2c-24.418-25.624-53.13-65.783-24-98-1.113 3.628-.701 7.316-1 11"/><path fill="#273136" d="M472 677c-12.854 1.968-23.809.129-37 2-36.258 5.143-55.93 31.433-85 50l-13.5 8c-1.904-.729 21.962-16.083 24.5-18 4.545-3.431 8.523-7.68 13-11 22.613-16.769 44.542-36.171 74.5-37-1.73 3.322-12.076.517-10 6 11.28-2.214 22.373-2.763 33.5 0"/><path fill="#23292f" d="M572.5 671c40.015 1.025 64.047 30.374 93 52 8.067 6.026 17.4 10.496 25.5 16.5-35.004-12.793-64.503-56.929-102.5-61.5-11.873-1.428-27.874.3-40 1-.542-2.622 8.859-3.887 10-4 9.402-.931 20.51 1.446 30 2z"/><path fill="#364a59" d="M748 787c-6.652.069-16.706 6.625-22.5 8-31.607 7.501-75.101 2.456-101-18-21.359-16.87-30.96-43.59-53-59l28.5 47.5 27 30.5c-12.958-7.679-21.751-14.126-32-25.5-22.562-25.038-35.722-66.267-75-69l12-4.5c4.489.056 15.31 1.704 19.5 3 4.108 1.271 15.131 9.294 16 9 .724-.245.223-3.585 2-4 2.42-.565 16.946 18.011 22.5 16 7.23 7.583 13.63 16.31 19.5 25 2.715-.098-2.279-7.173-2.5-7.5-5.979-8.843-20.648-26.059-29-32.5-2.953-8.183 8.095-1.955 11 0 15.235 10.25 25.742 34.815 40.5 47 8.041 6.639 19.573 11.417 28.5 16.5l-2.5 2.5c9.884.332 31.454 12.076 35.5 1 47.812 3.851 88.124-17.167 106-62.5l.5-10.5c-4.721 34.47-44.482 64.474-77 70-15.033 2.555-30.459.089-45.5 1-6.692-1.622-12.39-4.064-18-8l1-3.5-39.5-39.5c-.479 1.148-2.882.283-3.5 0-1.458-.668-2.343 1.426-3.5 1-1.096-.404-11.791-11.162-13.5-13-4.223-4.543-3.255-5.749-9-10-.135-.1.079-2.423-1.5-3-1.823 1.83 1.515 2.833 1.5 3-.095 1.074-.564 1.193-1.5 1-.918-.29-2.33-2.904-2.5-3-3.211-5.036-10.595-6.351-15-9-.4-.241-3.631-5.023-7.5-4-3.843-3.948 15.094.59 16.5 1 17.547 5.119 27.113 14.302 40 26-1.4 1.607 3.144 6.614 4 7.5 12.266 12.695 24.692 25.433 40 34.5 6.008 3.559 14.202 8.553 21 10 6.688 4.356 15.722 5.706 23.5 5 44.244-4.019 92.751-36.698 85.5-83-.183-1.171.747-6.633 0-8.5l-2 .5c-.295-1.704-.496-3.338-1-5 34.304 37.864-11.249 92.343-44 116m45.5-56c-20.645 34.954-57.146 55.529-97.5 58.5 40.949 4.584 80.607-22.293 97.5-58.5"/><path fill="#415f6c" d="M472 677c2.787.692 7.353.59 7 4-15.804-.532-37.179 5.814-47 18-5.193 3.79-9.676 9.269-14 14-22.318 14.064-36.208 47.541-66 57-1.972.626-5.077.591-7 1-31.945 2.261-56.987-.018-84-18 10.778.568 21.288 7.612 32.5 10 51.16 10.899 65.083-11.291 97.5-43 10.753-10.518 20.92-22.094 34.5-29l1.5-1.5c-3.214-2.773-5.154.683-8 2.5-.478-1.445.81-1.912 1-3 .957-5.482 4.471-3.393 5.5-4 3.087-1.822 6.458-4.052 9.5-6 13.191-1.871 24.146-.032 37-2"/><path fill="#466772" d="M435 679c-3.042 1.948-6.413 4.178-9.5 6-1.029.607-4.543-1.482-5.5 4l-70 40c29.07-18.567 48.742-44.857 85-50"/><path fill="#1a6a7e" d="M659 681c18.74 5.404 55.901 21.856 75.5 30 3.813 1.584 2.333 2.194 3.5 5-1.101 2.231-2.646 4.472-3 7-40.522-1.852-54.215-22.54-84-43 1.618-2.029 6.17.472 8 1"/><path fill="#29333b" d="M621 710c-12.887-11.698-22.453-20.881-40-26 .102-1.722 4.856-1.253 5.5-1 11.081 4.347 34.982 21.599 41.5 31.5.214.325 2.912 4.003.5 3.5-1.905-3.444-4.697-5.455-7.5-8"/><path fill="#4d7b86" d="M228 686c1.542 28.829 30.383 39.92 55 41-1.412 2.427-1.948 2.82 1.5 3 7.36.384 33.126-1.909 41-3 11.916-1.651 23.664-6.136 35.5-8-2.538 1.917-26.404 17.271-24.5 18l13.5-8 70-40c-.19 1.088-1.478 1.555-1 3-10.611 6.773-20.806 17.637-28 28-32.417 31.709-46.34 53.899-97.5 43-11.212-2.388-21.722-9.432-32.5-10-8.106-5.396-15.409-11.311-22-18.5L225 713c-.089-.255-2.942-4.236-3-4.5-.162-.734-1.265-14.297-1-15 .358-.949 2.619 1.589 3 0 .692-2.886-.955-6.848 1-10z"/><path fill="#496b78" d="M470 686c-5.759 7.308-19.666 8.618-27.5 14-5.882 4.041-17.342 17.134-23.5 23-10.86 10.345-18.331 19.411-30 29-1.344-2.116-1.439-2.271.5-4 3.66-3.264 33.423-33.248 34.5-35.5.401-.838 1.588-2.874-.5-2.5-1.148 1.498-4.307 2.248-5.5 3 4.324-4.731 8.807-10.21 14-14 11.576-8.449 23.575-12.425 38-13"/><path fill="#39525f" d="M423 730c8.626-4.95 14.478-14.398 22.5-20 2.293-1.602 8.662-7.073 9.5-2-12.069 8.054-26.059 27.479-37 38-8.622 8.29-16.71 16.952-26.5 24l-26 15c21.965-7.084 38.003-23.047 54.5-38 1.504-1.363 3.527-2.613 5-4-6.572 17.41-30.981 40.442-48.5 47-24.524 9.18-71.912 12.28-94-3H275c-8.881-6.264-13.485-10.114-21-18l2-2c24.064 19.947 61.854 29.86 92 19.5-51.125 7.753-83.689-12.498-115-49.5l3-2c25.122 34.065 68.918 44.52 109 36 1.923-.409 5.028-.374 7-1-.572 3.15 2.258 1.529 3 2 4.004 2.537.706 3.109 7.5 2 24.412-3.985 45.241-30.608 56.5-51 6.158-5.866 17.618-18.959 23.5-23 7.834-5.382 21.741-6.692 27.5-14 10.676-.426 23.545-.231 31.5 8-40.692-13.559-70.944 18.736-91.5 49.5 5.019-1.522 9.452-9.204 13-13.5"/><path fill="#425c6a" d="M587 696c.17.096 1.582 2.71 2.5 3 .936.193 1.405.074 1.5-1 5.745 4.251 4.777 5.457 9 10-3.614 1.133-6.638-5.107-9-2-2.905-1.955-13.953-8.183-11 0-8.34-6.432-17.648-10.498-27.5-14l-30.5.5c19.051-11.895 46.316-7.056 65 3.5"/><path fill="#27353a" d="M391 720c7.194-10.363 17.389-21.227 28-28 2.846-1.817 4.786-5.273 8-2.5l-1.5 1.5c-13.58 6.906-23.747 18.482-34.5 29"/><path fill="#425d6a" d="M487 697c-8.298.404-25.052 6.364-32 11-.838-5.073-7.207.398-9.5 2-8.022 5.602-13.874 15.05-22.5 20 21.169-25.629 45.237-44.184 80.5-31-5.736-.786-10.541-2.29-16.5-2"/><path fill="#3e5663" d="M592 721c-5.554 2.011-20.08-16.565-22.5-16-1.777.415-1.276 3.755-2 4-.869.294-11.892-7.729-16-9-4.19-1.296-15.011-2.944-19.5-3-3.87-.049-8.433 2.417-12.5 2 28.732-11.918 52.794 1.333 72.5 22"/><path fill="#425c6a" d="M591 698c.015-.167-3.323-1.17-1.5-3 1.579.577 1.365 2.9 1.5 3"/><path fill="#344a57" d="m487 697 18 5.5c-26.335-2.11-39.009 17.773-53 35.5-40.238 50.984-76.192 93.507-149 65 5.877-5.66 14.483.316 21.5 1 44.45 4.334 72.849-2.58 99.5-39.5 8.888-15.564 19.588-32.04 26.5-47.5-8.616 8.622-16.616 17.634-25.5 26-1.473 1.387-3.496 2.637-5 4l-2-1c10.941-10.521 24.931-29.946 37-38 6.948-4.636 23.702-10.596 32-11"/><path fill="#18171a" d="M693 773c-5.393-.434-10.729-.722-16-2 15.041-.911 30.467 1.555 45.5-1 32.518-5.526 72.279-35.53 77-70l-.5 10.5c-17.876 45.333-58.188 66.351-106 62.5"/><path fill="#4e6a7b" d="M600 708c1.709 1.838 12.404 12.596 13.5 13 1.157.426 2.042-1.668 3.5-1l42 43c5.61 3.936 11.308 6.378 18 8 5.271 1.278 10.607 1.566 16 2-4.046 11.076-25.616-.668-35.5-1l2.5-2.5c-8.927-5.083-20.459-9.861-28.5-16.5-14.758-12.185-25.265-36.75-40.5-47 2.362-3.107 5.386 3.133 9 2"/><path fill="#314654" d="M614 793c-18.163-9.813-35.867-20.308-47.5-38-3.066 2.031 7.307 21.867 11.5 23.5-.568 2.433-6.874-2.05-7.5-2.5-14.942-10.747-21.388-31.154-29-47 5.844 23.332 18.205 45.025 39 58 4.626 2.886 32.423 14.533 33.5 16.5.068.124-.989 1.911-2 2-8.414.741-44.058-16.799-52-22.5-1.117-4.05 2.753-2.583 3-3.5 1.173-4.353-18.914-21.81-23-28-5.51-8.349-9.332-18.036-12.5-27.5-1.697 12.596 10.094 35.261 19.5 47l-9.5-7c4.747 11.794 18.037 19.496 28 27l42 18c-31-7.55-64.876-24.891-80-54l.5 5.5c-1.859 2.655-2.544.227-4-1-5.088-4.287-10.217-13.264-12.5-19.5-3.834 8.469-8.923 15.913-16 22l1-12c-16.885 41.984-67.445 58.537-109 64l-11-2c40.978-.838 84.357-14.332 110.5-47.5L458.5 787c-15.731 7.244-32.513 15.522-49.5 17.5-1.663-2.312 25.423-13.034 28-14.5-.8 3.017 3.76 1.293 4.5 1 10.55-4.181 31.309-18.724 38.5-27.5 7.983-9.743 16.807-27.609 15.5-40.5-6.461 23.653-21.015 40.632-40.5 55 10.1-12.317 19.912-27.258 25-42.5.221-.662 2.49-5.808.5-5.5-7.332 16.974-13.859 34.218-29 46-.81.63-7.532 6.387-8.5 3.5 7.44-6.26 14.134-16.49 13.5-26.5-14.397 24.914-41.232 38.046-66.5 49.5 8.669-6.695 18.918-10.576 27.5-17.5 16.216-13.084 24.304-30.14 36.5-46 21.965-28.566 32.131-35.52 70.5-33 30.932 2.031 47.716 41.3 64.5 62.5z"/><path fill="#466975" d="M374 708c-4.477 3.32-8.455 7.569-13 11-11.836 1.864-23.584 6.349-35.5 8-7.874 1.091-33.64 3.384-41 3-3.448-.18-2.912-.573-1.5-3 4.844.212 8.481-.724 13-1 15.835-.967 23.18-2.44 38-8 .239-.09 2.139.307 5-1-.39 3.561 5.08 1.423 6.5 1 9.273-2.759 18.793-8.058 28.5-10"/><path fill="#56818d" d="M389 752c-11.433 9.395-19.1 15.615-34 20-.742-.471-3.572 1.15-3-2 29.792-9.459 43.682-42.936 66-57 1.193-.752 4.352-1.502 5.5-3 2.088-.374.901 1.662.5 2.5-1.077 2.252-30.84 32.236-34.5 35.5-1.939 1.729-1.844 1.884-.5 4"/><path fill="#1c2126" d="M261 753c27.013 17.982 52.055 20.261 84 18-40.082 8.52-83.878-1.935-109-36-4.645-6.299-8.398-14.57-11-22l14 21.5c6.591 7.189 13.894 13.104 22 18.5"/><path fill="#445c6c" d="M303 803c-10.451-4.092-18.916-9.592-28-16h7.5c22.088 15.28 69.476 12.18 94 3 17.519-6.558 41.928-29.59 48.5-47 8.884-8.366 16.884-17.378 25.5-26-6.912 15.46-17.612 31.936-26.5 47.5-26.651 36.92-55.05 43.834-99.5 39.5-7.017-.684-15.623-6.66-21.5-1"/><path fill="#415466" d="M748 787c-10.94 7.902-23.051 14.969-36 19-33.685 10.486-63.253 5.352-94-10-.407-3.131 2.116-1.709 3.5-1 5.647 2.891 10.906 6.836 17 9 3.519-.949 1.495-.913 0-2-2.353-1.712-8.185-4.036-11.5-6l-27-30.5-28.5-47.5c22.04 15.41 31.641 42.13 53 59 25.899 20.456 69.393 25.501 101 18 5.794-1.375 15.848-7.931 22.5-8"/><path fill="#2d3943" d="m659 763-42-43c.618.283 3.021 1.148 3.5 0l39.5 39.5z"/><path fill="#476674" d="M355 772c14.9-4.385 22.567-10.605 34-20 11.669-9.589 19.14-18.655 30-29-11.259 20.392-32.088 47.015-56.5 51-6.794 1.109-3.496.537-7.5-2"/><path fill="#3e5667" d="M437 790c5.489-3.123 12.85-8.203 18-12 19.485-14.368 34.039-31.347 40.5-55 1.307 12.891-7.517 30.757-15.5 40.5-7.191 8.776-27.95 23.319-38.5 27.5-.74.293-5.3 2.017-4.5-1"/><path fill="#3c5364" d="M560 783c-6.349-4.557-8.039-5.809-13-12-9.406-11.739-21.197-34.404-19.5-47 3.168 9.464 6.99 19.151 12.5 27.5 4.086 6.19 24.173 23.647 23 28-.247.917-4.117-.55-3 3.5"/><path fill="#577184" d="M779.5 726c5.739-.767-10.243 12.43-11 12z"/><path fill="#171619" d="M793.5 731c-16.893 36.207-56.551 63.084-97.5 58.5 40.354-2.971 76.855-23.546 97.5-58.5"/><path fill="#16171a" d="M233 737c31.311 37.002 63.875 57.253 115 49.5-30.146 10.36-67.936.447-92-19.5-9.628-7.981-18.811-21.27-26-31.5.185-3.087 2.529.943 3 1.5"/><path fill="#3b8d9f" d="M624 814c.211 2.379-3.328 3.134-5 4-15.539 2.312-29.804 9.704-45.5 12-47.642 6.97-95.979-.632-142-12-3.155-.779-11.454-5.722-13.5-6 37.96-10.631 72.408-34.526 93.5-68 24.058 39.993 66.035 65.4 112.5 70"/><path fill="#253035" d="M420 747c-16.497 14.953-32.535 30.916-54.5 38l26-15c9.79-7.048 17.878-15.71 26.5-24z"/><path fill="#536f80" d="M686 762c-6.798-1.447-14.992-6.441-21-10 12.898 2.604 26.345 7.866 38.5 11-4.021-1.029-14.352-.33-17.5-1"/><path fill="#1e566d" d="m613.5 809 25.5 3.5c-.008 1.345-23.641.017-25.5-3.5"/><path fill="#75bdcf" d="M418 812c2.046.278 10.345 5.221 13.5 6 46.021 11.368 94.358 18.97 142 12 15.696-2.296 29.961-9.688 45.5-12-67.679 35.037-154.813 37.519-220-4 6.145-.183 13.77-2.712 19-2"/><path fill="#195163" d="M399 814c65.187 41.519 152.321 39.037 220 4 1.672-.866 5.211-1.621 5-4 5.828.577 12.188 1.699 18 2-79.028 53.168-184.509 53.142-263-1 6.901-.125 14.357-.831 20-1"/>/&gt;</svg>