<svg xmlns="http://www.w3.org/2000/svg" width="1024" height="1024"><defs><linearGradient id="a" x1="558.391" x2="311.136" y1="202.835" y2="222.047" gradientUnits="userSpaceOnUse"><stop offset="0%" style="stop-color:#8cd8e9"/><stop offset="100%" style="stop-color:#0c7090"/></linearGradient></defs><defs><linearGradient id="b" x1="792.627" x2="286.577" y1="405.558" y2="684.839" gradientUnits="userSpaceOnUse"><stop offset="31.834%" style="stop-color:#c3dee6"/><stop offset="100%" style="stop-color:#6b8c9a"/></linearGradient></defs><defs><linearGradient id="c" x1="551.356" x2="478.441" y1="336.848" y2="611.328" gradientUnits="userSpaceOnUse"><stop offset="0%" style="stop-color:#023857"/><stop offset="72.183%" style="stop-color:#049ec3"/><stop offset="100%" style="stop-color:#23d8ef"/></linearGradient></defs><defs><linearGradient id="d" x1="538.65" x2="492.114" y1="409.999" y2="577.66" gradientUnits="userSpaceOnUse"><stop offset="0%" style="stop-color:#0a172e"/><stop offset="100%" style="stop-color:#144e86"/></linearGradient></defs><defs><linearGradient id="e" x1="548.679" x2="454.075" y1="784.315" y2="809.888" gradientUnits="userSpaceOnUse"><stop offset="0%" style="stop-color:#3cb7d7"/><stop offset="100%" style="stop-color:#00799c"/></linearGradient></defs><path fill="#09324c" d="M288 243c-1.029 1.873-2.129 4.447-3 6.5.153.976 5.049 4.486 6 5.5 1.723 1.838 3.402 2.559 5 4 4.513 4.069 17.819 13.15 20 16.5 1.481 2.275.88 8.025 4 8.5-1.842 3.805-3.729 8.501-6 12-4.041 3.891-9.961 5.228-12 7-4.356-.542 1.208-.329-1-3 4.21.008 13.158-9.326 13-12.5-.105-2.107-3.019-.116-3-2 .011-1.071 2.103-7.065 1-9-1.241-2.177-3.851-1.347-4-1.5-6.342-6.551-14.134-11.642-20.5-18-20.813-20.785-37.387-44.337-52.5-69.5 14.265 39.378 37.237 75.172 68 103.5-.213.142-.975 2.617-2.5 2-8.546-5.335-15.015-13.264-22.5-20-3.536-3.182-3.845-8.119-8-6 1.377-3.435.508-3.689-1-6.5-21.791-40.612-45.448-77.283-56-124-37.531-11.607-.764-49.06 12-26 9.469 17.106-8.353 22.411-9 25-1.297 5.193 21.661 49.694 26 57 3.829 6.447 38.068 56.009 41.5 55.5zm-80-135c-.831.2-1.353-1.532-2.5-1-9.855 4.571-8.683 18.484 0 24l2.5.5c-.09-1.515-.628-3.094-1-4.5 12.089 13.983 26.432-10.844 12.5-19-6.795-3.977-6.239-1.268-11.5 0"/><path fill="#0a2b43" d="M750 265c-1.7 2.539-3.308 5.627-5 8-.918 1.288-2.715 3.275-4 5-1.463 1.964-2.5 4.365-3 5-4.421 5.607-13.431 16.824-20 19-.959.318-2.794-.204-4 0-4.66-6.249-12.514-12.839-13-21 9.538-11.169 15.572-14.41 26-24 .722-.664 1.358-1.414 2-2 2.324-2.121 4.602-3.555 7-6 21.803-22.233 46.792-58.839 59-87.5 1.363-3.2 10.107-23.658 10-25-.24-3.008-18.494-9.363-9-26 7.796-13.661 32.554-4.518 27 14-2.756 9.189-11.596 8.083-15 12-4.127 4.749-23.02 65.136-29 78-8.005 17.22-18.451 34.744-29 50.5m56.5-159c-9.397 2.942-1.815 26.131 7 25 13.114-1.682 8.21-29.762-7-25M784 190c-11.892 16.447-21.854 34.925-35 50.5-5.45 6.457-34.05 31.753-35 34-2.431 5.748-.162 11.838 3.5 16.5 26.728-25.418 58.346-64.379 66.5-101 .036-.164 3.317-1.216 1.5-3-2.481-.362-1.108 2.458-1.5 3"/><path fill="#1c7393" d="M207 127c-1.89-7.149-6.018-10.844 1-19 5.261-1.268 4.705-3.977 11.5 0 13.932 8.156-.411 32.983-12.5 19"/><path fill="#17698b" d="M806.5 106c15.21-4.762 20.114 23.318 7 25-8.815 1.131-16.397-22.058-7-25"/><path fill="#08415f" d="M208 108c-7.018 8.156-2.89 11.851-1 19 .372 1.406.91 2.985 1 4.5l-2.5-.5c-8.683-5.516-9.855-19.429 0-24 1.147-.532 1.669 1.2 2.5 1"/><path fill="#2085a4" d="M576 147c-1.712-.171-7.869 1.078-10.5 0l1.5 3c-8.346-1.623-16.517-3.139-25-4-53.166-5.396-106.547 2.544-155 25l-4-3c59.293-28.189 128.766-35.315 193-21"/><path fill="#7cdaeb" d="M542 146v4c-57.236-5.897-116.371 3.439-167 31v-4a239 239 0 0 1 12-6c48.453-22.456 101.834-30.396 155-25"/><path fill="#f4fcfd" d="M567 150c65.578 12.751 123.297 51.13 162 105-.642.586-1.278 1.336-2 2-18.844-21.847-38.343-43.151-62-60-28.219-20.098-57.536-33.143-91-41-11.634-2.732-19.872-4.751-32-6v-4c8.483.861 16.654 2.377 25 4"/><path fill="#2db4d4" d="M576 147c11.83 1.181 34.092 9.278 45.5 14 44.148 18.274 84.531 51.175 114.5 88-2.398 2.445-4.676 3.879-7 6-38.703-53.87-96.422-92.249-162-105l-1.5-3c2.631 1.078 8.788-.171 10.5 0"/><path fill="url(#a)" d="M542 150c12.128 1.249 20.366 3.268 32 6l-38 49.5c-1.59 3.029-2.471 3.792-3 7.5-51.317-2.977-104.646 3.345-151 26-13.814 6.752-45.31 25.948-55 37-5.849-13.512-21.362-16.928-34-21.5 14.771-18.051 29.732-35.786 48-50.5 10.411-8.385 22.262-16.61 34-23 50.629-27.561 109.764-36.897 167-31" style="fill:url(#a)"/>/&gt;<path fill="#c1ecf4" d="m665 197-23 44c-2.829-1.663-14.244-4.708-16.5-7-1.505-1.529-7.361-22.59-7.5-25.5-.431-8.997 6.497-23.675-1.5-32.5-4.69 4.325-39.801 35.758-39.5 38.5.386 3.519 7.087-1.349 4 5.5-17.316-4.216-30.153-5.965-48-7 .529-3.708 1.41-4.471 3-7.5l38-49.5c33.464 7.857 62.781 20.902 91 41"/><path fill="#045675" d="M387 171a239 239 0 0 0-12 6c-12.582 6.721-24.895 15.058-36 24-18.632 15.003-35.668 33.442-48 54-.951-1.014-5.847-4.524-6-5.5.871-2.053 1.971-4.627 3-6.5 13.982-25.449 68.603-62.45 95-75z"/><path fill="#e8f7fb" d="M642 241c20.354 11.963 39.293 26.907 56.5 43 .006-3.514 2.298-2.763 2.5-3 .486 8.161 8.34 14.751 13 21 4.354 5.84 12.382 17.912 19 24.5 2.041 2.032 3.525 4.779 7 4.5 6.263-.502 17.711-18.238 28-18-5.481 6.038-23.408 22.294-31.5 20-6.027-1.709-35.203-41.989-42.5-49.5-29.222-30.078-72.333-53.599-113-63.5 3.087-6.849-3.614-1.981-4-5.5-.301-2.742 34.81-34.175 39.5-38.5 7.997 8.825 1.069 23.503 1.5 32.5.139 2.91 5.995 23.971 7.5 25.5 2.256 2.292 13.671 5.337 16.5 7"/><path fill="#41bed9" d="M375 181c-11.738 6.39-23.589 14.615-34 23l-2-3c11.105-8.942 23.418-17.279 36-24z"/><path fill="#205c76" d="M308 275c.168 6.136.801 12.138-5 16-30.763-28.328-53.735-64.122-68-103.5 15.113 25.163 31.687 48.715 52.5 69.5 6.366 6.358 14.158 11.449 20.5 18"/><path fill="#1c6280" d="M784 190c.392-.542-.981-3.362 1.5-3 1.817 1.784-1.464 2.836-1.5 3m0 0c-8.154 36.621-39.772 75.582-66.5 101-3.662-4.662-5.931-10.752-3.5-16.5.95-2.247 29.55-27.543 35-34 13.146-15.575 23.108-34.053 35-50.5"/><path fill="#a5e2ef" d="M727 257c-10.428 9.59-16.462 12.831-26 24-.202.237-2.494-.514-2.5 3-17.207-16.093-36.146-31.037-56.5-43l23-44c23.657 16.849 43.156 38.153 62 60"/><path fill="#32acca" d="M341 204c-18.268 14.714-33.229 32.449-48 50.5 12.638 4.572 28.151 7.988 34 21.5-4.758 5.427-6.65 13.886-13 20 2.271-3.499 4.158-8.195 6-12 .545-1.125 4.939-6.035 5-6.5.907-6.952-21.74-21.36-29-18.5-1.598-1.441-3.277-2.162-5-4 12.332-20.558 29.368-38.997 48-54z"/><path fill="#2c8daa" d="M533 213c-.78 5.468.158 6.159 3 10-4.688-.396-9.284-.812-14-1-46.707-1.861-94.927 5.387-137 26l-3-9c46.354-22.655 99.683-28.977 151-26"/><path fill="#63c0d5" d="M581 220c40.667 9.901 83.778 33.422 113 63.5 7.297 7.511 36.473 47.791 42.5 49.5 8.092 2.294 26.019-13.962 31.5-20 .837.019 1.931 1.11 2 2-3.774 2.752-32.101 32.491-34 36-1.962 1.564-2.787-.1-4-1.5-12.155-14.028-22.234-33.565-35-48-41.713-47.168-98.387-73.208-161-78.5-2.842-3.841-3.78-4.532-3-10 17.847 1.035 30.684 2.784 48 7"/><path fill="#0d4d6a" d="m522 222-1 4c-54.727-2.216-120.021 9.694-164.5 43-29.906 22.394-46.962 56.396-68.5 86-9.554-11.675-22.806-25.282-35-34-.534-.382-1.057-2.914-1.5-3-1.359-.262-5.398 3.579-6.5 1.5-.137-.258 2.957-4.438 3-5 .22-2.858-2.051-3.782-2-4 1.06-4.483 16.61-32.111 20-37.5 1.323-2.103 1.532-4.741 4-6 4.155-2.119 4.464 2.818 8 6v1c-3.598 3.904-21.648 30.295-21 33.5.672 3.324 19.448 13.702 23 16.5.734 1.434 2.286 2.139 2 4-11.779 4.617-24.548-18.958-26.5-19-7.903 2.8 6.271 14.987 10 17 5.521 2.98 14.435 3.997 20.5 6-3.442 7.044-4.902 12.115 2.5 17 21.51-28.808 41.102-66.334 71-87 5.438-3.759 19.129-10.879 25.5-14 42.073-20.613 90.293-27.861 137-26"/><path fill="#236381" d="M536 223c62.613 5.292 119.287 31.332 161 78.5 12.766 14.435 22.845 33.972 35 48 1.213 1.4 2.038 3.064 4 1.5-.095.176.257 3.067 0 4-.137.14-.892 1.543-1 2-4.851-1.903-34.55-47.15-42-55.5-44.236-49.58-106.293-72.84-172-75.5l1-4c4.716.188 9.312.604 14 1"/><path fill="url(#b)" d="M521 226c65.707 2.66 127.764 25.92 172 75.5 7.45 8.35 37.149 53.597 42 55.5 12.747 5.001 27.715-14.368 35-23 2.48 7.103 6.632 14.881 9 22.5 1.419 4.565 1.053 16.081 7 16.5-.373.985-14.372 7.74-15 14 1.435-4.929 2.949-8.166 7-11.5-2.015-1.075-4.964 2.746-6 4-20.521 24.849-19.322 140.295-20 175.5-.786 40.825 3.161 56.134-11 95.5-26.382 73.335-68.903 137.38-125.5 190.5-4.478 4.203-16.115 10.229-14.5 16-8.975 5.888-21.399 16.188-32 14 3.427-2.566 10.081-8.046 13-11 61.162-53.481 32.647-150.964-49-162 2.838-6.711-2.751-1.962-6-6 276.523-28.078 244.724-404.589-6.5-414-265.472-9.944-312.265 384.81-34.5 414-6.061 4.262-23.441-2.041-27.5-1-1.299.333-.809 3.923-1 4-2.47 1.001-37.663-1.357-43-2-26.401-3.181-52.468-11.564-76.5-22.5-3.945 7.428 50.356 102.797 66 109.5-1.659 24.032 8.185 54.235 24.5 72-45.745-65.359-10.374-143.395 69.5-151v2c-130.87 14.888-102.165 198.029 23 185v2c-35.581 2.541-67.133-7.955-98-24-1.347-1.821.231-5.09-.5-6-.811-1.009-16.934-9.746-20-12-48.748-35.839-81.629-80.703-113.5-131.5L257 652c-3.484-8.805-15.487-32.039-13-40.5.192-.652 6.633-7.185 8-11 17.691-49.391 9.65-160.25-1-212.5-1.26-6.183-5.901-10.331-6-15.5-.178-9.338 10.605-32.329 9-41.5 7.222 5.321 23.971 29.662 34 24 21.538-29.604 38.594-63.606 68.5-86 44.479-33.306 109.773-45.216 164.5-43m82.5 40c-1.543 2.067.06 2.722 1 4 4.687 6.375 28.063 21.72 36 29 45.238 41.491 80.09 89.881 90 152 27.332-59.319-24.012-121.252-69-155-7.323-5.493-51.385-33.971-58-30" style="fill:url(#b)"/>/&gt;<path fill="#10607e" d="M385 248c-6.371 3.121-20.062 10.241-25.5 14-29.898 20.666-49.49 58.192-71 87-7.402-4.885-5.942-9.956-2.5-17 5.553-11.364 20.654-24.684 28-36 6.35-6.114 8.242-14.573 13-20 9.69-11.052 41.186-30.248 55-37z"/><path fill="#126f8f" d="M320 284c-3.12-.475-2.519-6.225-4-8.5-2.181-3.35-15.487-12.431-20-16.5 7.26-2.86 29.907 11.548 29 18.5-.061.465-4.455 5.375-5 6.5"/><path fill="#1ba0c0" d="M773 315c-.193-.31.445-1.513-.5-2-.618.965-1.642 1.374-2.5 2-.069-.89-1.163-1.981-2-2-10.289-.238-21.737 17.498-28 18-.845-4.295 2.2-6.063 4-9 3.752-1.812 18.88-11.912 19-15.5.089-2.662-16.662-28.202-18-33.5 1.692-2.373 3.3-5.461 5-8 3.876 10.187 24.801 36.52 26 45.5.134 1-1.543 4.304-3 4.5"/><path fill="#fdfefe" d="M603.5 266c6.615-3.971 50.677 24.507 58 30 44.988 33.748 96.332 95.681 69 155-9.91-62.119-44.762-110.509-90-152-7.937-7.28-31.313-22.625-36-29-.94-1.278-2.543-1.933-1-4"/><path fill="#042035" d="M303 291c5.801-3.862 5.168-9.864 5-16 .149.153 2.759-.677 4 1.5 1.103 1.935-.989 7.929-1 9-.019 1.884 2.895-.107 3 2 .158 3.174-8.79 12.508-13 12.5-7.102-.013-18.629-18.183-22-24-.357-.616-.846-1.294-1-2v-1c7.485 6.736 13.954 14.665 22.5 20 1.525.617 2.287-1.858 2.5-2"/><path fill="#1a364a" d="M253 321c-2.375-.483-1.445 1.145-3 2-.09.05-.567-2.372-2-.5-2.902 3.79-17.59 48.846-16 51 .357.484 7.771.549 11.5 3.5 3.191 2.525 4.058 8.665 7.5 11 10.65 52.25 18.691 163.109 1 212.5-1.367 3.815-7.808 10.348-8 11-2.487 8.461 9.516 31.695 13 40.5 31.939 80.713 87.004 172.937 166 214 30.867 16.045 62.419 26.541 98 24 72.422-5.171 139.301-67.611 179-124l-1 4.5c2.207 4.345 42.774-67.604 45-72 9.929-19.61 18.983-41.804 27-61 2.12-5.077 8.654-28.139 12.5-29.5l34.5 1 2-.5c-22.501-53.33-25.136-127.134-15-184 1.845-10.351 13.26-38.785 13-43.5-.052-.943 1.106-1.097 1-2 7.077 3.485 10.938 20.69 13 28h-1l-10.5-23c-10.262 22.378-13.718 47.29-16.5 71.5l4 .5c-1.285 6.914-1.698 13.982-2 21-.477 11.068.218 21.985 1 33-3.009-.435-1.938 2.672-2 4.5-.928 27.485 4.654 59.146 14 84 .197.524-.291 7.76 2.5 9.5 2.13-.49 8.273-18.101 9.5-20 .136-.21 3.35-.668 4-3-1.418 5.34-7.83 22.77-12.5 25-8.342 3.983-37.564-.742-40.5 2.5-30.494 86.311-82.077 187.891-159 241.5-68.388 47.661-141.037 53.337-214 11-75.352-43.723-130.468-139.627-162-218.5-2.12-5.303-10.045-34.46-13.5-35.5-7.597.526-25.323 2.386-32 0-6.05-2.162-11.026-18.594-13.5-24 2.061-.546 1.89.98 2 1 1.262 1.579 8.254 21.984 12 18.5 2.104-8.531 6.545-16.739 9-25 1.371-4.612 1.898-12.089 3-18.5 4.461-25.948 7.593-52.289 4-80 1.344-33.495-1.751-68.903-17.5-99l-9.5 23c-.043-.056-.704.362-1-1-.826-3.798 7.24-23.833 10.5-26 4.831-3.212 21.308-2.78 24.5-6.5 1.6-1.864 9.835-33.999 12-40 2.1-5.823 6.741-12.38 9-18 .602-1.499-1.615-5.183 0-9 4.534-10.72 13.739-23.466 20-33.5-3.39 5.389-18.94 33.017-20 37.5-.051.218 2.22 1.142 2 4-.043.562-3.137 4.742-3 5 1.102 2.079 5.141-1.762 6.5-1.5.443.086.966 2.618 1.5 3m-49 60c-1.085.366-3.261-.928-3 1.5 17.317 26.557 19.778 65.646 21 97 1.689 43.352-.932 87.407-18 127.5l-1 1.5c1.633 3.116 31.821-3.276 34.5 3.5 1.039-4.816 3.795.561 9.5-6.5 8.784-10.873 11.86-66.427 12-83.5.038-4.602-.931-10.131-1-15-.166-11.638.732-23.229 0-35-1.054-16.94-2.483-34.221-5-51-1.457-9.718-4.831-39.979-14.5-44-5.208-2.166-28.486 1.971-34.5 4"/><path fill="#c4f1f9" d="M744 322c.047-.077-1.861-.302-1-1.5 3.863-5.375 15.926-8.946 15-17-.369-3.208-13.03-24.847-17-25.5 1.285-1.725 3.082-3.712 4-5 1.338 5.298 18.089 30.838 18 33.5-.12 3.588-15.248 13.688-19 15.5"/><path fill="#20aacc" d="M279 276c-2.494.457-2.308 3.831-3 5-2.934 4.955-15.267 22.693-14 27.5 1.096 4.158 14.892 9.431 18 15.5-3.552-2.798-22.328-13.176-23-16.5-.648-3.205 17.402-29.596 21-33.5.154.706.643 1.384 1 2"/><path fill="#1b5068" d="M301 300c2.208 2.671-3.356 2.458 1 3-1.286 1.117-3.813 2.821-4 3-9.647-5.246-18.182-14.716-22-25 .692-1.169.506-4.543 3-5 3.371 5.817 14.898 23.987 22 24"/><path fill="#21465a" d="M527 692c-13.875 1.409-27.116 1.459-41 0-277.765-29.19-230.972-423.944 34.5-414 251.224 9.411 283.023 385.922 6.5 414m-91-397c-33.642 10.282-61.952 31.465-85 58-78.707 90.616-64.59 233.077 38 299 63.761 40.972 141.725 44.679 211 15 9.568-4.099 18.223-9.477 27-15 189.696-119.381 64.243-414.329-162.5-367-8.731 1.823-21.517 5.137-28.5 10"/><path fill="#71cae1" d="M744 322c-1.8 2.937-4.845 4.705-4 9-3.475.279-4.959-2.468-7-4.5-6.618-6.588-14.646-18.66-19-24.5 1.206-.204 3.041.318 4 0 2.057 11.964 20.076-8.917 22-13.5.899-2.141 2.439-7.576-2-5.5.5-.635 1.537-3.036 3-5 3.97.653 16.631 22.292 17 25.5.926 8.054-11.137 11.625-15 17-.861 1.198 1.047 1.423 1 1.5"/><path fill="#f4fafb" d="M627 652h-1c41.737-28.711 76.323-74.425 86-125 9.292-48.563-.027-101.506-25-144-50.798-86.438-157.559-116.559-251-88 6.983-4.863 19.769-8.177 28.5-10C691.243 237.671 816.696 532.619 627 652"/><path fill="#0d6383" d="M298 306c-4.205 4.023-10.543 19.861-16 22 .286-1.861-1.266-2.566-2-4-3.108-6.069-16.904-11.342-18-15.5-1.267-4.807 11.066-22.545 14-27.5 3.818 10.284 12.353 19.754 22 25"/><path fill="#62a4b8" d="M718 302c6.569-2.176 15.579-13.393 20-19 4.439-2.076 2.899 3.359 2 5.5-1.924 4.583-19.943 25.464-22 13.5"/><path fill="#c3e8f0" d="M687 383c-9.504.094-22.131 1.799-29 9-32.234-46.797-76.804-73.604-134-77-.582-1.986-.883-11.564-1.5-12-4.791-3.387-49.716 1.362-58 3-27.018 5.343-56.991 20.697-79 37-3.585 2.656-19.599 19.207-21 19-.912-.135-9.258-14.265-13.5-9 23.048-26.535 51.358-47.718 85-58 93.441-28.559 200.202 1.562 251 88m-159.5-81c44.036 6.826 83.372 24.831 116.5 54.5-28.277-33.473-73.19-52.094-116.5-54.5"/><path fill="#28a1c0" d="M286 332c-6.065-2.003-14.979-3.02-20.5-6-3.729-2.013-17.903-14.2-10-17 1.952.042 14.721 23.617 26.5 19 5.457-2.139 11.795-17.977 16-22 .187-.179 2.714-1.883 4-3 2.039-1.772 7.959-3.109 12-7-7.346 11.316-22.447 24.636-28 36"/><path fill="#88b9c9" d="M524 315c-63.081-3.745-119.737 21.78-157 73l-13.5-13c-66.584 69.51-56.915 180.986 7.5 248.5 4.625 4.847 28.107 22.343 29 24 .109.203-3.338 1.174-1 4.5-102.59-65.923-116.707-208.384-38-299 4.242-5.265 12.588 8.865 13.5 9 1.401.207 17.415-16.344 21-19 22.009-16.303 51.982-31.657 79-37 8.284-1.638 53.209-6.387 58-3 .617.436.918 10.014 1.5 12"/><path fill="#f6fcfc" d="M527.5 302c43.31 2.406 88.223 21.027 116.5 54.5-33.128-29.669-72.464-47.674-116.5-54.5"/><path fill="#072a43" d="M773 315c6.431 10.32 16.795 56.029 19 58.5 1.525 1.709 22.158 3.116 27 5.5.106.903-1.052 1.057-1 2h-1c-45.888-14.157-41.756 6.272-47 41-2.716 17.985-4.085 31.761-5 50-.606 12.078-1.133 23.872-1 36 .093 8.476.314 55.571 5.5 59 6.816 4.507 18.702-.883 24.5-5.5V509c-.183-1.163.996-.929 1-1 2.879 34.7 7.478 69.607 23 101l-34.5-1c-3.846 1.361-10.38 24.423-12.5 29.5-8.017 19.196-17.071 41.39-27 61-2.226 4.396-42.793 76.345-45 72l1-4.5c23.527-33.417 42.279-70.341 58-108 3.336-7.99 7.053-15.819 10-24 1.214-3.372 9.345-23.242 9-24.5-.169-.617-6.157-5.139-8-10-2.883-7.603-4.932-25.766-6-34.5-.445-3.635-.671-7.352-1-11-4.093-45.356-3.657-123.534 9-167 .628-6.26 14.627-13.015 15-14 1.765-4.662-13.752-44.118-16-51.5-2.091-.904-1.876 2.399-2 2.5-10.292 8.405-22.518 21.296-32 31 .257-.933-.095-3.824 0-4 1.899-3.509 30.226-33.248 34-36 .858-.626 1.882-1.035 2.5-2 .945.487.307 1.69.5 2"/><path fill="#6998a9" d="M524 315c57.196 3.396 101.766 30.203 134 77 13.204 19.17 23.808 40.629 28 63.5l-5-.5c-35.252-143.298-210.312-175.589-308-68-7.95 8.756-14.47 17.194-20 28 .527-9.166 8.643-19.637 14-27 37.263-51.22 93.919-76.745 157-73"/><path fill="#547785" d="M253 321c12.194 8.718 25.446 22.325 35 34-10.029 5.662-26.778-18.679-34-24-.535-3.056-4.617-4.394-4-8 1.555-.855.625-2.483 3-2"/><path fill="#e8f7f8" d="M786 373c-5.947-.419-5.581-11.935-7-16.5-2.368-7.619-6.52-15.397-9-22.5-1.132-3.244-.881-6.749-2-10 .124-.101-.091-3.404 2-2.5 2.248 7.382 17.765 46.838 16 51.5"/><path fill="#9bc3cf" d="M250 323c-.617 3.606 3.465 4.944 4 8 1.605 9.171-9.178 32.162-9 41.5.099 5.169 4.74 9.317 6 15.5-3.442-2.335-4.309-8.475-7.5-11-3.729-2.951-11.143-3.016-11.5-3.5-1.59-2.154 13.098-47.21 16-51 1.433-1.872 1.91.55 2 .5"/><path fill="url(#c)" d="M681 455c11.765 47.823 1.172 93.18-27 133-15.178 21.454-35.946 37.722-59 50 .63-3.16-3.738-.377-4.5 0-4.08 2.016-19.482 12.167-22.5 6 12.003-4.288 23.427-9.315 34-16.5-6.354-7.737-13.061-18.054-8.5-27.5-4.135 1.415-12.574 13.406-16 14-.178.031-1.326-3.251-2-3-7.887 2.934-16.084 8.715-25 11-37.065 9.499-78.206 1.744-111-17-4.116-2.352-21.572-16.923-23-17-1.887-.102-9.102 10.879-14 12-5.645 1.292-12.396-3.09-16.5 0-1.798-1.811-9.366-11.095-11-8.5l.5 4.5c-11.67-14.363-22.255-30.881-28.5-48.5-3.748-10.576-4.354-22.265-9-32.5-5.127-47.439 5.76-90.477 35-128 97.688-107.589 272.748-75.298 308 68m-266 14c-3.957 15.269-3.906 28.444-1 44 11.36 60.81 85.372 96.599 140 68 3.908.237 9.263-3.069 12-6 18.518-9.427 34.085-30.103 41-49.5 1.377-3.863 3.381-20.129 4-21 .412-.58 5.433-.512 8-1.5 14.705-5.661 27.504-23.774 14-37-6.4-6.268-10.308-6.087-19-6.5 11.871-23.567 8.147-47.478-11-65.5-12.075-11.365-27.535-12.588-43.5-7-5.743 2.01-14.275 10.073-19 11-6.713 1.317-25.704-3.681-36-3-39.519 2.615-79.568 35.678-89.5 74m7.5 92c-10.155.274-10.611 17.887-2 22 12.852 6.138 15.474-22.364 2-22m219 27-23 27c5.951-5.247 13.563-11.382 18.5-17.5 2.226-2.759 7.154-6.947 4.5-9.5" style="fill:url(#c)"/>/&gt;<path fill="#86b0be" d="M770 334c-7.285 8.632-22.253 28.001-35 23 .108-.457.863-1.86 1-2 9.482-9.704 21.708-22.595 32-31 1.119 3.251.868 6.756 2 10"/><path fill="#5f8c9e" d="M367 388c-5.357 7.363-13.473 17.834-14 27-8.363 16.342-14.922 35.734-17 54l-6.5-3c-25.726 144.921 134.764 253.651 263 186l7.5 15c-69.275 29.679-147.239 25.972-211-15-2.338-3.326 1.109-4.297 1-4.5-.893-1.657-24.375-19.153-29-24-64.415-67.514-74.084-178.99-7.5-248.5Z"/><path fill="#a4c6d1" d="M771 387c-12.657 43.466-13.093 121.644-9 167l-10 1c.678-35.205-.521-150.651 20-175.5 1.036-1.254 3.985-5.075 6-4-4.051 3.334-5.565 6.571-7 11.5"/><path fill="#1c7694" d="m253 421-32 7c-2.987-15.513-8.731-33.627-17-47 6.014-2.029 29.292-6.166 34.5-4 9.669 4.021 13.043 34.282 14.5 44"/><path fill="#2584a2" d="M817 381c-9.237 14.873-14.173 32.695-17 50-10.059-3.154-18.989-9.622-30-9 5.244-34.728 1.112-55.157 47-41"/><path fill="#41cce2" d="M204 381c8.269 13.373 14.013 31.487 17 47 2.33 12.101 5.32 32.934 6 45 .577 10.24.379 22.687 0 33-1.202 32.667-7.326 72.519-23 101 17.068-40.093 19.689-84.148 18-127.5-1.222-31.354-3.683-70.443-21-97-.261-2.428 1.915-1.134 3-1.5"/><path fill="#61d7ec" d="M818 609c-15.522-31.393-20.121-66.3-23-101 .619-11.925.084-24.219 1-36 1.044-13.434 1.831-27.723 4-41 2.827-17.305 7.763-35.127 17-50h1c.26 4.715-11.155 33.149-13 43.5-10.136 56.866-7.501 130.67 15 184z"/><path fill="#88b9c9" d="M687 383c24.973 42.494 34.292 95.437 25 144-1.504-2.436-16.339-5.079-17-4.5-1.416 1.24-8.188 29.584-11 36-9.617 21.944-28.921 47.217-46.5 63.5-3.64 3.372-24.027 17.04-24.5 18.5-1.123 3.468 3.341 11.029 4.5 14.5 3.873-.248 5.2-5.692 8.5-3h1c-8.777 5.523-17.432 10.901-27 15l-7.5-15c-128.236 67.651-288.726-41.079-263-186l6.5 3c-19.589 172.175 183.972 258.813 302 141.5l16-22.5c28.172-39.82 38.765-85.177 27-133l5 .5c-4.192-22.871-14.796-44.33-28-63.5 6.869-7.201 19.496-8.906 29-9"/><path fill="#327189" d="M218 483c-.316-2.438-.782-7.247-4-7-1.032-21.904-.629-42.83-14-61.5-2.208-3.084-7.969-6.165-9-7.5l9.5-23c15.749 30.097 18.844 65.505 17.5 99"/><path fill="url(#d)" d="M603 394c-45.363-28.364-98.746 29.291-75 74.5 12.586 23.961 44.962 25.392 66.5 13.5 2.509 13.076 9.749 23.026 24.5 20v1c-2.567.988-7.588.92-8 1.5-.619.871-2.623 17.137-4 21-6.915 19.397-22.482 40.073-41 49.5 17.495-18.735-13.475-34.372-23-15.5-4.132 8.187 1.014 20.895 11 21.5-54.628 28.599-128.64-7.19-140-68 24.304-2.202 32.291-60.063 1-44 9.932-38.322 49.981-71.385 89.5-74 10.296-.681 29.287 4.317 36 3 4.725-.927 13.257-8.99 19-11 15.965-5.588 31.425-4.365 43.5 7m-102.5 93c-31.693 3.715-34.346 61.393 9 49 32.296-9.234 27.524-53.281-9-49" style="fill:url(#d)"/>/&gt;<path fill="#2f728b" d="M831 407c-13.885 9.94-16.522 23.892-18 40-5.16-.924-4.347 5.489-5 9l-4-.5c2.782-24.21 6.238-49.122 16.5-71.5z"/><path fill="#e3f3f5" d="M373 387c-29.24 37.523-40.127 80.561-35 128 13.139 121.579 153.119 178.322 257 123 23.054-12.278 43.822-28.546 59-50l-16 22.5C519.972 727.813 316.411 641.175 336 469c2.078-18.266 8.637-37.658 17-54 5.53-10.806 12.05-19.244 20-28"/><path fill="#fcfefe" d="M603 394c19.147 18.022 22.871 41.933 11 65.5 8.692.413 12.6.232 19 6.5 7.413 12.548 1.588 32.802-14 36-14.751 3.026-21.991-6.924-24.5-20-21.538 11.892-53.914 10.461-66.5-13.5-23.746-45.209 29.637-102.864 75-74.5"/><path fill="#53acc6" d="M191 407c1.031 1.335 6.792 4.416 9 7.5 13.371 18.67 12.968 39.596 14 61.5.424 8.995 1.284 22.426 1 31l-15 1c.544-22.512-1.199-79.246-13-97-.136-.204.149-1.168-1-1 1.047-1.869 2.655-2.27 4-4 .296 1.362.957.944 1 1"/><path fill="#4fa8c1" d="M827 435c-4.598 26.58-3.696 54.05-4 81-1.444-3.619-10.002-4.272-16-3-.083-.982.07-2.015 0-3-.782-11.015-1.477-21.932-1-33 11.471.413 6.213-21.423 7-30 1.478-16.108 4.115-30.06 18-40h1c.063.222 3.073 1.271 3 3.5-.042 1.288-7.089 19.232-8 24.5"/><path fill="#46809e" d="M186 410c1.149-.168.864.796 1 1 .665 9.871 4.008 19.065 5 29-4.78.064-1.233-8.802-5-6-.583-3.213-.545-12.463-4-10 .529-3.052.763-12.866 1-13.5.337-.904 1.922-.361 2-.5"/><path fill="#65cfe5" d="M200 508c-.453 18.748-2.189 37.42-10 54.5-.778 1.701-5.938 6.543-6 7-.283 2.083 5.168 8.019 1 10.5-1.275-3.161-4.336-8.972-5-11 14.261-13.096 13.37-34.16 14-52 .837-23.73.351-53.444-2-77-.992-9.935-4.335-19.129-5-29 11.801 17.754 13.544 74.488 13 97"/><path fill="#0d344f" d="M841 569c-10.517-13.263-11.993-28.76-13-45l1.5 7 1.5-7c1.127 15.059 1.737 27.912 10.5 41 4.305-8.471 4.894-17.694 5.5-27 2.963-25.924 2.837-52.187 0-78-.945-8.6-4.841-38.436-10-44-.048-.052-1.182.132-1-1 .406-.669-.964-3.377 1.5-3 9.215 23.906 13.507 51.642 14.5 77.5.599 15.595-.338 68.99-11 79.5"/><path fill="#367b9a" d="M837 416c-.196 1.93.286 4.114 0 6-5.117 33.705-7.62 60.354-6 95 .108 2.308-.172 4.701 0 7l-1.5 7-1.5-7c-1.498-24.148 2.052-48.888 1-73 2.24-11.947.429-25.169 7-36-.182 1.132.952.948 1 1"/><path fill="#daf5fa" d="M847 460c-.682.334-1.969 4.733-2 5l-8-43c.286-1.886-.196-4.07 0-6 5.159 5.564 9.055 35.4 10 44"/><path fill="#4b9ab3" d="M253 421c2.517 16.779 3.946 34.06 5 51l-31 1c-.68-12.066-3.67-32.899-6-45z"/><path fill="#6fb9ce" d="M800 431c-2.169 13.277-2.956 27.566-4 41h-31c.915-18.239 2.284-32.015 5-50 11.011-.622 19.941 5.846 30 9"/><path fill="#6fcae0" d="M845 465c-1.449 12.479 2.195 37.076 2 52h-16c-1.62-34.646.883-61.295 6-95z"/><path fill="#a1e1ef" d="M187 434c4.201 23.164 4.772 58.183 4 82l-15 1c-.024-32.399 1.457-61.037 7-93 3.455-2.463 3.417 6.787 4 10"/><path fill="#113a56" d="M174 535c.358 3.249 5.06 28.599 6.5 29 8.61-12.039 9.721-29.338 10.5-44l3-3c-.63 17.84.261 38.904-14 52-12.882-39.334-9.93-79.748-6-120.5l5-20c-4.908 34.421-8.827 71.749-5 106.5"/><path fill="#336b89" d="M192 440c2.351 23.556 2.837 53.27 2 77l-3 3c.031-.575-.046-2.58 0-4 .772-23.817.201-58.836-4-82 3.767-2.802.22 6.064 5 6"/><path fill="#75def0" d="M829 451c1.052 24.112-2.498 48.852-1 73 1.007 16.24 2.483 31.737 13 45-.924.911-1.771 1.611-3 2-.375-4.568-10.957-22.891-13-33-1.298-6.422.268-16.317-2-22 .304-26.95-.598-54.42 4-81 .915 4.871 1.787 11.124 2 16"/><path fill="#4693ab" d="M813 447c-.787 8.577 4.471 30.413-7 30 .302-7.018.715-14.086 2-21 .653-3.511-.16-9.924 5-9"/><path fill="#96e4f1" d="M847 538c.335-5.154-.08-14.86 0-21 .195-14.924-3.449-39.521-2-52 .031-.267 1.318-4.666 2-5 2.837 25.813 2.963 52.076 0 78"/><path fill="#195d80" d="M619 503v-1c15.588-3.198 21.413-23.452 14-36 13.504 13.226.705 31.339-14 37"/><path fill="#114d80" d="M414 513c-2.906-15.556-2.957-28.731 1-44 31.291-16.063 23.304 41.798-1 44"/><path fill="#237391" d="M258 507h-30l-1-1c.379-10.313.577-22.76 0-33l31-1c.732 11.771-.166 23.362 0 35"/><path fill="#398aa5" d="M796 472c-.916 11.781-.381 24.075-1 36-.004.071-1.183-.163-1 1l-30-1c-.133-12.128.394-23.922 1-36z"/><path fill="#18516a" d="M218 483c3.593 27.711.461 54.052-4 80h-7c4.764-17.278 7.408-38.118 8-56 .284-8.574-.576-22.005-1-31 3.218-.247 3.684 4.562 4 7"/><path fill="#102143" d="M500.5 487c36.524-4.281 41.296 39.766 9 49-43.346 12.393-40.693-45.285-9-49"/><path fill="#072840" d="m228 507-1 50.5c1.386 10.111 25.794 4.179 28 1 3.185-4.588 2.013-29.745 4-36.5-.14 17.073-3.216 72.627-12 83.5-5.705 7.061-8.461 1.684-9.5 6.5-2.679-6.776-32.867-.384-34.5-3.5l1-1.5c15.674-28.481 21.798-68.333 23-101z"/><path fill="#1286a7" d="M215 507c-.592 17.882-3.236 38.722-8 56-1.792 6.5-6.695 26.911-17 25-.11-.02.061-1.546-2-1-1.07-2.337-2.04-4.62-3-7 4.168-2.481-1.283-8.417-1-10.5.062-.457 5.222-5.299 6-7 7.811-17.08 9.547-35.752 10-54.5z"/><path fill="#074562" d="M258 507c.069 4.869 1.038 10.398 1 15-1.987 6.755-.815 31.912-4 36.5-2.206 3.179-26.614 9.111-28-1l1-50.5z"/><path fill="#115c7a" d="M794 509v52.5c-5.798 4.617-17.684 10.007-24.5 5.5-5.186-3.429-5.407-50.524-5.5-59z"/><path fill="#0f435e" d="M807 510c.07.985-.083 2.018 0 3 .834 9.928 2.182 20.205 4 30 2.654 14.299 5.593 39.164 20 45-1.227 1.899-7.37 19.51-9.5 20-2.791-1.74-2.303-8.976-2.5-9.5-9.346-24.854-14.928-56.515-14-84 .062-1.828-1.009-4.935 2-4.5"/><path fill="#3090ad" d="M823 516c2.268 5.683.702 15.578 2 22-2.164 5.367-9.003 4.887-14 5-1.818-9.795-3.166-20.072-4-30 5.998-1.272 14.556-.619 16 3"/><path fill="#022b45" d="M386 600c50.813 51.18 112.108 68.966 182 44 3.018 6.167 18.42-3.984 22.5-6 .762-.377 5.13-3.16 4.5 0-103.881 55.322-243.861-1.421-257-123 4.646 10.235 5.252 21.924 9 32.5 6.245 17.619 16.83 34.137 28.5 48.5l-.5-4.5c1.634-2.595 9.202 6.689 11 8.5"/><path fill="#22b0d0" d="M191 516c-.046 1.42.031 3.425 0 4-.779 14.662-1.89 31.961-10.5 44-1.44-.401-6.142-25.751-6.5-29 4.155-1.632 2.004-13.169 2-18z"/><path fill="#0f9ec0" d="M847 517c-.08 6.14.335 15.846 0 21-.606 9.306-1.195 18.529-5.5 27-8.763-13.088-9.373-25.941-10.5-41-.172-2.299.108-4.692 0-7z"/><path fill="#5bafc5" d="M712 527c-9.677 50.575-44.263 96.289-86 125-3.3-2.692-4.627 2.752-8.5 3-1.159-3.471-5.623-11.032-4.5-14.5.473-1.46 20.86-15.128 24.5-18.5 17.579-16.283 36.883-41.556 46.5-63.5 2.812-6.416 9.584-34.76 11-36 .661-.579 15.496 2.064 17 4.5"/><path fill="#137f9f" d="M838 571c.325 3.958-1.956 10.069-3 14-.65 2.332-3.864 2.79-4 3-14.407-5.836-17.346-30.701-20-45 4.997-.113 11.836.367 14-5 2.043 10.109 12.625 28.432 13 33"/><path fill="#fdfefe" d="M566 575c-2.737 2.931-8.092 6.237-12 6-9.986-.605-15.132-13.313-11-21.5 9.525-18.872 40.495-3.235 23 15.5"/><path fill="#8eb2bf" d="M762 554c.329 3.648.555 7.365 1 11-4.617 23.348-10.365 48.291 5 69-2.947 8.181-6.664 16.01-10 24-13.145 20.029-21.932 42.839-34 63.5-30.429 52.096-72.293 102.236-123 135.5-1.615-5.771 10.022-11.797 14.5-16 56.597-53.12 99.118-117.165 125.5-190.5 14.161-39.366 10.214-54.675 11-95.5z"/><path fill="#bdf3fb" d="M422.5 561c13.474-.364 10.852 28.138-2 22-8.611-4.113-8.155-21.726 2-22"/><path fill="#103e58" d="M214 563c-1.102 6.411-1.629 13.888-3 18.5-2.455 8.261-6.896 16.469-9 25-3.746 3.484-10.738-16.921-12-18.5 10.305 1.911 15.208-18.5 17-25z"/><path fill="#4f8296" d="M768 634c-15.365-20.709-9.617-45.652-5-69 1.068 8.734 3.117 26.897 6 34.5 1.843 4.861 7.831 9.383 8 10 .345 1.258-7.786 21.128-9 24.5"/><path fill="#15bfe0" d="M568 644c-69.892 24.966-131.187 7.18-182-44 4.104-3.09 10.855 1.292 16.5 0 4.898-1.121 12.113-12.102 14-12 1.428.077 18.884 14.648 23 17 32.794 18.744 73.935 26.499 111 17 8.916-2.285 17.113-8.066 25-11 .674-.251 1.822 3.031 2 3 3.426-.594 11.865-12.585 16-14-4.561 9.446 2.146 19.763 8.5 27.5-10.573 7.185-21.997 12.212-34 16.5"/><path fill="#38c7e4" d="M641.5 588c2.654 2.553-2.274 6.741-4.5 9.5-4.937 6.118-12.549 12.253-18.5 17.5z"/><path fill="#77adb9" d="M423 866c-78.996-41.063-134.061-133.287-166-214l32 64.5c31.871 50.797 64.752 95.661 113.5 131.5 3.066 2.254 19.189 10.991 20 12 .731.91-.847 4.179.5 6"/><path fill="#c4e8ef" d="M758 658c-15.721 37.659-34.473 74.583-58 108-39.699 56.389-106.578 118.829-179 124v-2c15.475-1.611 32.337-8.094 45-17 .317 1.954 2.206.595 3 0 10.601 2.188 23.025-8.112 32-14 50.707-33.264 92.571-83.404 123-135.5 12.068-20.661 20.855-43.471 34-63.5"/><path fill="#9ab3bd" d="M486 692c13.884 1.459 27.125 1.409 41 0 3.249 4.038 8.838-.711 6 6-54.067-7.308-124.745 20.363-129 82-15.644-6.703-69.945-102.072-66-109.5 24.032 10.936 50.099 19.319 76.5 22.5 5.337.643 40.53 3.001 43 2 .191-.077-.299-3.667 1-4 4.059-1.041 21.439 5.262 27.5 1"/><path fill="#183142" d="M533 698c81.647 11.036 110.162 108.519 49 162 69.421-70.24 14.492-168.378-84-159-79.874 7.605-115.245 85.641-69.5 151-16.315-17.765-26.159-47.968-24.5-72 4.255-61.637 74.933-89.308 129-82"/><path fill="#ddeef1" d="M582 860c-2.919 2.954-9.573 8.434-13 11-.794.595-2.683 1.954-3 0 83.349-58.624 36.721-179.913-68-168v-2c98.492-9.378 153.421 88.76 84 159"/><path fill="#426c7f" d="M566 871c-12.663 8.906-29.525 15.389-45 17-125.165 13.029-153.87-170.112-23-185 104.721-11.913 151.349 109.376 68 168m-43-148c-7.335-.851-9.721-.766-17 0 1.454-5.685-5.019-4.136-8.5-4-66.228 2.594-96.882 91.538-40 135 82.729 63.212 189.926-51.382 112-116-6.828-5.662-36.154-19.851-44-19-.875.095-2.018 3.117-2.5 4"/><path fill="#305b6e" d="M506 723c-104.652 11.011-87.776 157.572 23.5 138 83.819-14.742 70.977-129.012-6.5-138 .482-.883 1.625-3.905 2.5-4 7.846-.851 37.172 13.338 44 19 77.926 64.618-29.271 179.212-112 116-56.882-43.462-26.228-132.406 40-135 3.481-.136 9.954-1.685 8.5 4"/><path fill="#012036" d="M523 723c77.477 8.988 90.319 123.258 6.5 138-111.276 19.572-128.152-126.989-23.5-138 7.279-.766 9.665-.851 17 0m-17.5 8c-44.995 2.88-81.108 50.1-56.5 92.5 32.909 56.703 137.128 38.324 131-33-.033-.381-2.853-.895-3-2-.418-3.15 1.287-7.773 1-9-7.9-33.804-39.263-50.628-72.5-48.5"/><path fill="url(#e)" d="M505.5 731c33.237-2.128 64.6 14.696 72.5 48.5.287 1.227-1.418 5.85-1 9 .147 1.105 2.967 1.619 3 2 6.128 71.324-98.091 89.703-131 33-24.608-42.4 11.505-89.62 56.5-92.5m27 12c-3.79 1.158-3.33 8.533 2 8 5.722-.573 3.818-9.778-2-8m16 5c-14.472 1.713 2.937 15.282 5.5 19.5 5.698 9.376 9.398 19.066 11 30 .33 2.252-3.139 13.725 2.5 12.5.886-.193 5.272-9.226 5.5-10.5 2.275-12.702-8.66-53.375-24.5-51.5m6 76c-2.83 1.322-2.152 7.055 2 7 5.836-.077 2.991-9.331-2-7" style="fill:url(#e)"/>/&gt;<path fill="#f1fcfd" d="M532.5 743c5.818-1.778 7.722 7.427 2 8-5.33.533-5.79-6.842-2-8"/><path fill="#fbfdfe" d="M548.5 748c15.84-1.875 26.775 38.798 24.5 51.5-.228 1.274-4.614 10.307-5.5 10.5-5.639 1.225-2.17-10.248-2.5-12.5-1.602-10.934-5.302-20.624-11-30-2.563-4.218-19.972-17.787-5.5-19.5"/><path fill="#caf2fa" d="M554.5 824c4.991-2.331 7.836 6.923 2 7-4.152.055-4.83-5.678-2-7"/></svg>