<svg xmlns="http://www.w3.org/2000/svg" width="1024" height="1024"><defs><linearGradient id="a" x1="413.483" x2="464.664" y1="295.999" y2="387.681" gradientUnits="userSpaceOnUse"><stop offset="0%" style="stop-color:#a7ddef"/><stop offset="100%" style="stop-color:#e2f3f8"/></linearGradient></defs><defs><linearGradient id="b" x1="472.412" x2="564.96" y1="367.595" y2="486.91" gradientUnits="userSpaceOnUse"><stop offset="0%" style="stop-color:#023756"/><stop offset="30.464%" style="stop-color:#006a9f"/><stop offset="100%" style="stop-color:#004972"/></linearGradient></defs><defs><linearGradient id="c" x1="548.578" x2="516.577" y1="407.558" y2="434.76" gradientUnits="userSpaceOnUse"><stop offset="0%" style="stop-color:#287296"/><stop offset="100%" style="stop-color:#0a4d71"/></linearGradient></defs><defs><linearGradient id="d" x1="513.137" x2="477.194" y1="420.149" y2="460.449" gradientUnits="userSpaceOnUse"><stop offset="0%" style="stop-color:#023353"/><stop offset="100%" style="stop-color:#032535"/></linearGradient></defs><defs><linearGradient id="e" x1="413.577" x2="280.209" y1="604.106" y2="674.915" gradientUnits="userSpaceOnUse"><stop offset="0%" style="stop-color:#deeef4"/><stop offset="100%" style="stop-color:#73b2c4"/></linearGradient></defs><defs><linearGradient id="f" x1="600.912" x2="708.273" y1="616.374" y2="667.703" gradientUnits="userSpaceOnUse"><stop offset="0%" style="stop-color:#94bfcd"/><stop offset="100%" style="stop-color:#579aa9"/></linearGradient></defs><defs><linearGradient id="g" x1="681.406" x2="719.772" y1="702.777" y2="747.599" gradientUnits="userSpaceOnUse"><stop offset="0%" style="stop-color:#457f8f"/><stop offset="100%" style="stop-color:#326877"/></linearGradient></defs><defs><linearGradient id="h" x1="466.779" x2="609.633" y1="723.436" y2="772.362" gradientUnits="userSpaceOnUse"><stop offset="0%" style="stop-color:#dbecf3"/><stop offset="100%" style="stop-color:#78abbd"/></linearGradient></defs><defs><linearGradient id="i" x1="494.184" x2="548.952" y1="827.028" y2="897.18" gradientUnits="userSpaceOnUse"><stop offset="0%" style="stop-color:#b0d3de"/><stop offset="100%" style="stop-color:#7aacb9"/></linearGradient></defs><defs><linearGradient id="j" x1="523.294" x2="577.136" y1="875.247" y2="924.543" gradientUnits="userSpaceOnUse"><stop offset="0%" style="stop-color:#6aa3b1"/><stop offset="100%" style="stop-color:#4c7c88"/></linearGradient></defs><path fill="#092b3c" d="M812 320c-1.522-5.584-3.732-10.696-6-16-2.666-6.236-4.367-9.325-8-15-2.954-4.615-5.576-9.53-10-13 1.158-1.054 2.825-2.806 4-4 4.897 4.543 7.907 10.204 11 16 3.981 7.462 7.047 15.288 10.5 23 10.428-9.143 29.448-42.014 26.5-54.5-1.053-4.459-6.878-10.774-9-14.5-2.399-4.214-6.218-7.728-8-12 2.495 1.441 8.088 4.238 10 6 3.95 3.641 7.003 9.832 10.5 14 3.489-18.105 14.631-44.581-4.5-56-3.205-1.913-6.294-3.343-10-4 .318-2.469.988-1.889 1-2l13 1c.417.216 2.961 4.228 5 2.5 1.797-3.31-6.278-37.967-9-42-1.909-2.829-5.156-2.867-7-4.5-1.148-1.016-1.624-3.14-4-3.5 1.099-2.325 5.335-.748 6-3 .616-2.085-17.415-34.512-22-37.5-1.257-2.563-2.047-5.187-4.5-7 18.214 44.272 19.333 88.846-1.5 133-7.319 1.442-12.869 13.275-18 19.5-3.786 4.593-9.062 8.469-13 13l7 4.5c-1.061 1.424-1.883 2.565-3 4-9.411-8.783-17.471 1.356-26 7-4.059 2.686-8.316 5.034-13 6.5-.746 1.664 4.325 4.563 5 5.5-4.124 2.231-10.388-.455-13.5-3 5.931 13.236 4.939 16.167 19.5 13 .318-.069.685.074 1 0 1.271 5.461 5.486 10.762 7 16 1.419 4.909 2.044 10.917 3 16 1.677 8.915-1.358 20.161 5.5 29 1.68-1.789 4.531-1.396 6.5-2-.907 1.596-5.595 2.687-6 4.5-.314 1.408 6.282 23.78 7 28 2.227 13.092 3.504 26.477 6 39.5l-4 1c.379-5.219-1.237-13.515-2-19-12.339-88.662-68.827-170.637-149-211-1.322-.666-2.664-1.363-4-2-1.031-.936-1.742-4.693-2-5 32.364 14.425 63.843 37.549 88 63.5 3.464 3.722 18.906 25.984 20.5 26.5 8.299 2.688 39.896-20.592 47-27 44.484-40.123 51.614-92.294 34.5-148.5L797.5 79c65.562 69.428 72.288 164.517 14.5 241"/><path fill="#08293d" d="M290 282c-.096.078-.907 1.938-1 2-3.773 2.535-7.34 4.095-12 4 1.305-2.178 3.651-3.711 4-6.5-.472-1.204-10.395-4.418-12-5.5-10.204-6.877-14.948-17.25-27-8-1.047-1.319-1.994-2.663-3-4l8-4.5c-4.63-5.265-10.505-9.643-15-15-4.03-4.803-10.163-18.468-16-16.5-.634-1.317-.97-.936-1-1-.243-.528-.381-1.556-1-3-17.632-41.156-19.202-87.789 1-128.5-2.425-3.15-4.765 5.021-5 5.5l-22 36.5 7 4.5c-3.176-1.194-4.092 2.509-5 3-10.256 5.55-17.771 33.047-16 44 .141.874-.427 2.604.5 3l10-4c2.336 1.174.421 3.889.5 5-22.895 8.866-9.112 38.214-8 56.5l18-17.5c1.671-.451 2.584-3.344 5-1.5-2.42 2.458-4.965 4.684-7 7.5-.969 1.341-1.622 3.438-2 4-2.562 3.815-10.953 14.106-11 18.5-.069 6.449 23.825 51.374 27.5 51.5 4.193-7.578 6.401-16.422 10.5-24 2.981-5.511 7.35-11.697 12-16 1.652 1.666 2.814 3.833 3 4-4.282 4.124-6.91 9.02-10 14-3.677 5.926-4.307 7.887-7 14-2.185 4.959-4.685 10.079-7 15-50.762-61.997-50.48-150.507-5-215.5 1.932-2.761 17.17-21.907 18.5-22.5.52-.231 2.141-.164 2.5.5-46.798 73.302-17.076 169.985 65 200.5"/><path fill="#d9e7ec" d="M214 224c-1.441.465-9.011 3.095-9.5 3-5.231-1.013-9.699-30.711-10.5-36.5-.097-.704 2.258.14 2-2-.113-.941-2.905-.062-3-1-1.55-15.318-1.331-30.435 2-45.5l5 1.5c-1.908-2.13-3.847-2.659-4-6-.179-3.906 11.426-31.264 14-36.5.235-.479 2.575-8.65 5-5.5-20.202 40.711-18.632 87.344-1 128.5"/><path fill="#dae7ec" d="M812 101c12.614 25.717 20.992 58.192 18 87-.012.111-.682-.469-1 2-1.305 10.132-7.218 22.882-8 32-6.322 19.5-14.598 35.359-29 50-1.175 1.194-2.842 2.946-4 4-6.644 6.047-13.599 11.551-22 15-.486-.724-3.701-4.885-4-5 8.847-4.019 11.802-11.323 17-18 1.117-1.435 1.939-2.576 3-4 8.323-11.171 18.07-24.432 24-37 20.833-44.154 19.714-88.728 1.5-133 2.453 1.813 3.243 4.437 4.5 7"/><path fill="#6796a4" d="m195 142-7-4.5 22-36.5c-2.574 5.236-14.179 32.594-14 36.5.153 3.341 2.092 3.87 4 6z"/><path fill="#719ba9" d="M832 145c3.028 6.348 3.168 39.375 5.5 42 .194.219 3.275.848 5.5 2l-13-1c2.992-28.808-5.386-61.283-18-87 4.585 2.988 22.616 35.415 22 37.5-.665 2.252-4.901.675-6 3 2.376.36 2.852 2.484 4 3.5"/><path fill="#6d97a5" d="M195 142c-3.331 15.065-3.55 30.182-2 45.5.095.938 2.887.059 3 1 .258 2.14-2.097 1.296-2 2 .801 5.789 5.269 35.487 10.5 36.5.489.095 8.059-2.535 9.5-3 .619 1.444.757 2.472 1 3l-12 2.5c1.682 4.67 3.906 9.032 6 13.5l-6.5-11-9.5 6c2.035-2.816 4.58-5.042 7-7.5-2.416-1.844-3.329 1.049-5 1.5-.292.079-2.329-1.863-4.5 2-6.771-12.426-4.535-27.421-5.5-41-.079-1.111 1.836-3.826-.5-5l-10 4c-.927-.396-.359-2.126-.5-3l10-2.5 6-41.5c.908-.491 1.824-4.194 5-3"/><path fill="#4e7c8c" d="M174 189c-1.771-10.953 5.744-38.45 16-44l-6 41.5z"/><path fill="#4e7b8b" d="M843 189c-2.225-1.152-5.306-1.781-5.5-2-2.332-2.625-2.472-35.652-5.5-42 1.844 1.633 5.091 1.671 7 4.5 2.722 4.033 10.797 38.69 9 42-2.039 1.728-4.583-2.284-5-2.5"/><path fill="#41b8d6" d="M501 167c2.261 5.743 16.645-2.668 15 6-92.062-1.251-174.338 42.31-226 118-3.181-2.436 4.073-7.143-1-7 .093-.062.904-1.922 1-2 13.124-10.693 25.984-32.583 40.5-46 44.357-40.996 110.012-67.18 170.5-69"/><path fill="#1f96bd" d="M620 192c.258.307.969 4.064 2 5-24.167-11.526-58.273-21.92-85-24-6.653-.518-14.197.092-21 0 1.645-8.668-12.739-.257-15-6 32.229-.97 63.567 4.809 94.5 13 5.492 5.271 19.746 6.333 24.5 12"/><path fill="#fdfefe" d="M516 173c6.803.092 14.347-.518 21 0l-57.5 8c-21.23 5.18-40.556 9.872-60.5 19-84.256 38.563-150.592 131.032-145 226-8.107-6.043-18.43-13.034-28-16 2.617-19.776 8.671-40.777 14-60 7.553-17.2 13.996-34.929 24-51 1.376-2.21 4.263-5.456 6-8 51.662-75.69 133.938-119.251 226-118"/><path fill="#bce6eb" d="M622 197c1.336.637 2.678 1.334 4 2l17 35c-3.541-2.407-6.916-5.581-11-7-60.68-42.053-142.873-49.225-211-21l-2-6c19.944-9.128 39.27-13.82 60.5-19l57.5-8c26.727 2.08 60.833 12.474 85 24"/><path fill="#6facbf" d="m632 227-11-2c-7.099-4.127-14.349-7.933-22-11-123.208-56.985-264.771 14.548-304 141-6.782 3.485-2.973 21.349-11 22 13.805-72.826 68.126-142.465 137-171 68.127-28.225 150.32-21.053 211 21"/><path fill="#6792a0" d="m839 194-6 42c-1.912-1.762-7.505-4.559-10-6-1.041-2.496-2.235-5.257-2-8 .782-9.118 6.695-21.868 8-32 3.706.657 6.795 2.087 10 4"/><path fill="#4a7787" d="m195 232-18 17.5c-1.112-18.286-14.895-47.634 8-56.5.965 13.579-1.271 28.574 5.5 41 2.171-3.863 4.208-1.921 4.5-2"/><path fill="#f6fbfc" d="M599 214c-18.303-7.336-41.282-13.073-61-15-143.34-14.007-261.366 111.133-250 252.5.737 9.169 3.738 19.223 5 28.5-12.508-44.684-12.16-79.356 2-125 39.229-126.452 180.792-197.985 304-141"/><path fill="#4a7786" d="m833 236 6-42c19.131 11.419 7.989 37.895 4.5 56-3.497-4.168-6.55-10.359-10.5-14"/><path fill="#b1d3db" d="M538 199c.162 3.199-2.531 8.649-2 11.5.651 3.495 8.241-.842 7 4.5-4.136-.569-8.944-1.749-13-2-49.968-5.331-108.022 9.484-146 43-76.238 56.276-102.341 160.141-66 247.5 3.692 8.875 10.178 18.988 15 27.5 19.231 33.95 47.384 62.565 83 80-3.004 7.18-6.92 10.369 0 16-6.812-3.727-13.95-6.765-21-10-35.081-23.847-66.695-54.164-86-92.5-4.929-9.788-7.53-18.827-11-28.5-.668-1.863-1.374-4.101-2-6-.327-.991-.673-1.952-1-3-.668-2.138-1.388-4.814-2-7-1.262-9.277-4.263-19.331-5-28.5C276.634 310.133 394.66 184.993 538 199"/><path fill="#8bbeca" d="M599 214c7.651 3.067 14.901 6.873 22 11 36.665 21.314 71.382 59.002 90 97l-11.5 19c-25.875-61.461-89.409-116.775-156.5-126 1.241-5.342-6.349-1.005-7-4.5-.531-2.851 2.162-8.301 2-11.5 19.718 1.927 42.697 7.664 61 15"/><path fill="#6598a5" d="M775 410c-12.586 3.655-23.242 9.679-32 19.5 1.019-21.372-3.912-42.242-10-62.5-4.516-15.029-11.118-30.891-18-45-15.104-30.967-43.308-68.492-72-88l-17-35c80.173 40.363 136.661 122.338 149 211"/><path fill="#e4f6f9" d="M421 206c-68.874 28.535-123.195 98.174-137 171-2.936 15.489-5.529 37.401-5 53-1.89-.59-3.722-3.047-5-4-5.592-94.968 60.744-187.437 145-226z"/><path fill="#012b4c" d="M530 213c-18.522-1.145-40.846 1.587-59 5-9.018 1.695-21.195 3.183-29.5 7-1.14.524.141 3.462-1 4-23.538 11.094-45.779 21.576-65.5 39l-2.5-1c3.902-3.425 7.652-7.604 11.5-11 37.978-33.516 96.032-48.331 146-43"/><path fill="#5795a6" d="M530 213c4.056.251 8.864 1.431 13 2 67.091 9.225 130.625 64.539 156.5 126l11.5-19c.32.653.717 1.401 1 2 6.432 13.589 12.856 30.305 16 45-5.781-1.177-10.787 6.254-16 8-1.647-5.56-3.122-12.513-7-17-3.998-11.46-13.286-30.4-20-40.5-1.104-1.66-2.616-4.697-5-2.5-42.068-71.67-128.225-111.899-210.5-94l1.5-5c18.154-3.413 40.478-6.145 59-5"/><path fill="#00537f" d="m471 218-1.5 5c82.275-17.899 168.432 22.33 210.5 94 6.136 10.454 9.943 22.489 16 33-1.995 4.668-3.978 9.346-6 14-23.758-62.866-67.699-111.819-134.5-129-60.269-15.501-130.386 3.187-174.5 47-31.996 31.778-56.067 85.9-58 131-.141 3.298-.017 6.695 0 10l-18-5c.77-55.6 28.649-113.464 70-150 19.721-17.424 41.962-27.906 65.5-39 1.141-.538-.14-3.476 1-4 8.305-3.817 20.482-5.305 29.5-7"/><path fill="#4e7c8b" d="M823 230c1.782 4.272 5.601 7.786 8 12-5.826 16.345-13.078 35.796-28 46-3.093-5.796-6.103-11.457-11-16 14.402-14.641 22.678-30.5 29-50-.235 2.743.959 5.504 2 8"/><path fill="#3b7386" d="M632 227c4.084 1.419 7.459 4.593 11 7 28.692 19.508 56.896 57.033 72 88l-3 2c-.283-.599-.68-1.347-1-2-18.618-37.998-53.335-75.686-90-97z"/><path fill="#dae7ed" d="M215 227c.03.064.366-.317 1 1 5.131 10.662 15.778 26.401 23 36 1.006 1.337 1.953 2.681 3 4 6.369 8.02 7.845 12.262 18 17-2.344 12.584-21.631-4.175-27-9-.186-.167-1.348-2.334-3-4-9.15-9.232-15.427-17.106-21-29-2.094-4.468-4.318-8.83-6-13.5z"/><path fill="#759caa" d="M239 264c-7.222-9.599-17.869-25.338-23-36 5.837-1.968 11.97 11.697 16 16.5 4.495 5.357 10.37 9.735 15 15z"/><path fill="#759ead" d="M806 227c-5.93 12.568-15.677 25.829-24 37l-7-4.5c3.938-4.531 9.214-8.407 13-13 5.131-6.225 10.681-18.058 18-19.5"/><path fill="#2ac" d="M690 364c-.356.82.047 2.696-1 5-4.124 9.071-10.421 19.67-16 28-10.334 15.429-23.311 28.994-36.5 42 2.128-29.265-6.051-58.364-22.5-82.5-3.295-4.835-22.554-24.803-23-26.5-.132-.502-.019-1.36 0-2 .122-4.028 9.083-17.689 10-24.5 4.591-34.112-34.204-57.394-63.5-62.5-49.185-8.573-115.449 12.269-150.5 48l-6-7c44.114-43.813 114.231-62.501 174.5-47 66.801 17.181 110.742 66.134 134.5 129"/><path fill="#4e7d8d" d="M209 243c5.573 11.894 11.85 19.768 21 29-4.65 4.303-9.019 10.489-12 16-14.052-11.297-21.279-29.447-27-46 .378-.562 1.031-2.659 2-4l9.5-6z"/><path fill="#4bdaec" d="M591 328c-12.242-5.281-22.047-14.87-34.5-20-21.609-8.901-49.578-12.383-72.5-7.5l10 3.5c-2.42.056-4.826-.527-7 1-21.708-25.5-63.282-36.416-89-11-1.833 1.452-4.289-.079-4.5 0-6.216 2.332-29.694 29.532-33.5 36 4.882-14.982 16.046-29.833 27-41 35.051-35.731 101.315-56.573 150.5-48 29.296 5.106 68.091 28.388 63.5 62.5-.917 6.811-9.878 20.472-10 24.5"/><path fill="#396371" d="M218 288c-4.099 7.578-6.307 16.422-10.5 24-3.675-.126-27.569-45.051-27.5-51.5.047-4.394 8.438-14.685 11-18.5 5.721 16.553 12.948 34.703 27 46"/><path fill="#386371" d="M803 288c14.922-10.204 22.174-29.655 28-46 2.122 3.726 7.947 10.041 9 14.5 2.948 12.486-16.072 45.357-26.5 54.5-3.453-7.712-6.519-15.538-10.5-23"/><path fill="#010e1a" d="M384 256c-3.848 3.396-7.598 7.575-11.5 11l2.5 1c-41.351 36.536-69.23 94.4-70 150-.699 50.46 13.951 72.894 34 115 .385.809 1.308 6.454 2 8-2.634-3.339-5.288-6.724-8-10-4.822-8.512-11.308-18.625-15-27.5-36.341-87.359-10.238-191.224 66-247.5"/><path fill="#abc6ce" d="m269 276-8 9c-.283-.12-.727.127-1 0-10.155-4.738-11.631-8.98-18-17 12.052-9.25 16.796 1.123 27 8"/><path fill="#a8c3cc" d="M779 268c-5.198 6.677-8.153 13.981-17 18-.249-.096-.649.054-1 0l-8-11c8.529-5.644 16.589-15.783 26-7"/><path fill="#527989" d="M761 286c-2.953-.452-11.138 2.963-15 3-.07-.087-.078-.72-1-2-.675-.937-5.746-3.836-5-5.5 4.684-1.466 8.941-3.814 13-6.5z"/><path fill="#7da1af" d="M260 285c.273.127.717-.12 1 0 5.033 2.138 9.852 1.987 14 5-1.6 2.195-2.891 4.522-4 7-.312-.082-.692.087-1 0-2.987-.842-12.532-5.702-14.5-5-.82.293-6.547 12.031-7.5 14-8.856-4.753-16.749-10.361-25-16 3.09-4.98 5.718-9.876 10-14 5.369 4.825 24.656 21.584 27 9"/><path fill="#567e8c" d="M277 288c-.08.134-1.82 1.753-2 2-4.148-3.013-8.967-2.862-14-5l8-9c1.605 1.082 11.528 4.296 12 5.5-.349 2.789-2.695 4.322-4 6.5"/><path fill="#82a5b2" d="m798 289-24 17c-1.717-3.462-3.213-7.198-6-10-.115-1.667-1.099-3.658-2-5 8.401-3.449 15.356-8.953 22-15 4.424 3.47 7.046 8.385 10 13"/><path fill="url(#a)" d="M487 305c3.327 3.908 10.233 14.355 12 19 3.295 8.658 4.498 17.779 4 27-1.242 22.979-16.488 40.129-37 49-6.721 2.263-17.253 3.254-22 5-1.267.466-1.792.912-2 1-9.808-1.351-19.558-1.463-29-5-5.667-2.123-17.795-10.446-22-15-23.795-25.77-16.918-68.363 7-92 25.718-25.416 67.292-14.5 89 11m-90.5 18c-9.822.995-11.513 17.601-3 19 11.181 1.838 16.93-20.412 3-19" style="fill:url(#a)"/>/&gt;<path fill="#0181ae" d="M387 289c-10.954 11.167-22.118 26.018-27 41-13.348 22.681-22.15 59.952-22 86l-15-3c1.933-45.1 26.004-99.222 58-131z"/><path fill="#38667c" d="M290 291c-1.737 2.544-4.624 5.79-6 8-4.603.321-8.619-.853-13-2 1.109-2.478 2.4-4.805 4-7 .18-.247 1.92-1.866 2-2 4.66.095 8.227-1.465 12-4 5.073-.143-2.181 4.564 1 7"/><path fill="#2d5263" d="M745 287c.922 1.28.93 1.913 1 2 1.839 2.31 4.357 5.041 5 8-14.561 3.167-13.569.236-19.5-13 3.112 2.545 9.376 5.231 13.5 3"/><path fill="#7399a7" d="M761 286c.351.054.751-.096 1 0 .299.115 3.514 4.276 4 5 .901 1.342 1.885 3.333 2 5-6.709-6.746-7.266-1.057-16 1-.315.074-.682-.069-1 0-.643-2.959-3.161-5.69-5-8 3.862-.037 12.047-3.452 15-3"/><path fill="#618996" d="m806 304-25.5 19c-2.974-5.038-3.929-10.763-6.5-16-.132-.268.133-.732 0-1l24-17c3.633 5.675 5.334 8.764 8 15"/><path fill="#648b98" d="M248 306c-2.69 5.56-4.043 11.377-6.5 17L216 304c2.693-6.113 3.323-8.074 7-14 8.251 5.639 16.144 11.247 25 16"/><path fill="#507887" d="M270 297c-1.719 5.55-5.063 10.548-7 16-5.6-1.373-10.053-4.345-15-7 .953-1.969 6.68-13.707 7.5-14 1.968-.702 11.513 4.158 14.5 5"/><path fill="#4d7583" d="M768 296c2.787 2.802 4.283 6.538 6 10 .133.268-.132.732 0 1l-15 6c-1.514-5.238-5.729-10.539-7-16 8.734-2.057 9.291-7.746 16-1"/><path fill="#2dc7e4" d="M398 294c-23.918 23.637-30.795 66.23-7 92-9.187 20.857-9.196 43.57-4 65.5l4-1.5c-.2.212-1.85 3.731-3 5-.559.617-1.449 1.38-2 2-4.737 5.337-26.299 35.344-28.5 36-.778.232-3.665-1.868-5.5-1-8.636-24.406-13.85-49.918-14-76-.15-26.048 8.652-63.319 22-86 3.806-6.468 27.284-33.668 33.5-36 .211-.079 2.667 1.452 4.5 0m-33.5 95c-12.884 2.013-11.626 25.073 6 21 12.374-2.859 7.658-23.134-6-21"/><path fill="#19495e" d="M284 299c-10.004 16.071-16.447 33.8-24 51-1.286 2.928-4.504 7.15-6 10.5-.515 1.153-1.759-1.076-2-.5-14.568-9.164-28.447-19.344-38-34 2.361 2.591 23.893 22.503 25.5 22l2.5-23.5 17.5 4.5c.636-.516 2.661-13.638 3.5-16 1.937-5.452 5.281-10.45 7-16 .308.087.688-.082 1 0 4.381 1.147 8.397 2.321 13 2"/><path fill="#41c9e1" d="M591 328c-.019.64-.132 1.498 0 2-2.187-.657-4.178 3.33-4 4.5.24 1.576 17.881 19.427 21 24 18.11 26.549 25.492 54.461 20 86.5a97 97 0 0 1-1 5l-18 13c12.06-34.934 2.6-72.028-20-100-4.337-5.368-6.668-8.353-12-13-1.505-5.104 10.489-10.126 8-16.5-.881-2.255-20.179-14.806-23.5-16.5-21.424-10.927-43.709-13.548-67.5-13l-10-3.5c22.922-4.883 50.891-1.401 72.5 7.5 12.453 5.13 22.258 14.719 34.5 20"/><path fill="#335c6b" d="M248 306c4.947 2.655 9.4 5.627 15 7-.839 2.362-2.864 15.484-3.5 16l-17.5-4.5-2.5 23.5c-1.607.503-23.139-19.409-25.5-22-2.097-2.301-3.368-5.006-5-7 2.315-4.921 4.815-10.041 7-15l25.5 19c2.457-5.623 3.81-11.44 6.5-17"/><path fill="#6eedf4" d="M494 304c23.791-.548 46.076 2.073 67.5 13 3.321 1.694 22.619 14.245 23.5 16.5 2.489 6.374-9.505 11.396-8 16.5-22.028-19.196-48.567-28.439-78-26-1.767-4.645-8.673-15.092-12-19 2.174-1.527 4.58-.944 7-1"/><path fill="#325a68" d="M812 320c-1.009 1.336-1.943 2.684-3 4l-24.5 23c-3.351-.253-2.769-19.24-5-23l-17.5 5c-.956-5.083-1.581-11.091-3-16l15-6c2.571 5.237 3.526 10.962 6.5 16l25.5-19c2.268 5.304 4.478 10.416 6 16"/><path fill="#6cc0d0" d="M705 360c4.539 13.013 7.104 26.354 9 40l-6-2c-.981-7.799-2.253-15.843-4-23.5-2.125-9.313-7.309-18.457-7.5-27.5-.977.125-.223 2.352-.5 3-6.057-10.511-9.864-22.546-16-33 2.384-2.197 3.896.84 5 2.5 6.714 10.1 16.002 29.04 20 40.5"/><path fill="#334e59" d="M715 322c6.882 14.109 13.484 29.971 18 45-3.18 9.68 2.442 15.854 4 27.5 9.584 71.639-18.752 146.03-71 194.5-21.29 19.75-49.634 38.014-77 48-21.281 7.765-46.326 12.998-69 14-50.123 2.214-98.923-11.45-140-40 4.635.613 10.51 3.94 15 6 7.05 3.235 14.188 6.273 21 10 7.986 6.498 46.705 15.511 58 17 32.047 4.225 64.888 2.579 96-6 116.913-32.238 183.182-151.321 158-269-3.144-14.695-9.568-31.411-16-45z"/><path fill="#fbfefe" d="M396.5 323c13.93-1.412 8.181 20.838-3 19-8.513-1.399-6.822-18.005 3-19"/><path fill="#224655" d="M809 324c-9.053 11.28-20.212 27.464-35 32-1.969.604-4.82.211-6.5 2-6.858-8.839-3.823-20.085-5.5-29l17.5-5c2.231 3.76 1.649 22.747 5 23z"/><path fill="url(#b)" d="M577 350c5.332 4.647 7.663 7.632 12 13 23.672 35.139 35.562 80.79 6 116.5-48.937 59.114-149.376 50.96-178-22.5l25-27c1.931 33.368 40.202 58.903 72.5 58 11.158-.312 22.342-5.839 33.5-6 2.461 6.573 13.062 11.845 20 11 11.623-1.416 16.462-12.54 14-23-.288-1.223-1.34-3.884-2-5-.176-.914.166-4.813 0-5 34.372-48.091-20.975-124.606-77-109 .498-9.221-.705-18.342-4-27 29.433-2.439 55.972 6.804 78 26" style="fill:url(#b)"/>/&gt;<path fill="#138eb6" d="M591 330c.446 1.697 19.705 21.665 23 26.5 16.449 24.136 24.628 53.235 22.5 82.5 13.189-13.006 26.166-26.571 36.5-42 3.598 1.248 7.354 9.418 10 3.5 10.828 49.759-7.444 98.27-40 135.5-5.088-33.779-51.369-21.2-48 8.5 1.028 9.062 10.432 17.666 19 19.5-53.171 33.919-123.207 41.776-181.5 16-24.693-10.919-59.948-43-72.5-67-3.345-6.396-5.583-14.17-8-21 1.835-.868 4.722 1.232 5.5 1 2.201-.656 23.763-30.663 28.5-36l5 20.5c56.073 114.14 227.009 93.433 245-36l-8 3.5c5.492-32.039-1.89-59.951-20-86.5-3.119-4.573-20.76-22.424-21-24-.178-1.17 1.813-5.157 4-4.5m-15 221c-1.065 13.678 21.844 2.034 14-7-5.99-6.899-13.366-1.151-14 7"/><path fill="#034e6d" d="M708 398c14.073 111.873-60.977 211.24-173 226-75.261 9.917-146.548-22.853-194-83-.692-1.546-1.615-7.191-2-8l11-10h1c-.726 5.597 27.02 34.288 32.5 39 77.033 66.232 183.373 62.201 257.5-6 47.781-43.961 69.308-109.364 54-173.5-.952-3.99-2.633-10.821-6-13.5 1.047-2.304.644-4.18 1-5 2.022-4.654 4.005-9.332 6-14 .277-.648-.477-2.875.5-3 .191 9.043 5.375 18.187 7.5 27.5 1.747 7.657 3.019 15.701 4 23.5"/><path fill="#0a3448" d="M580 460c-7.352-8.301-16.747-6.383-25-2-3.413 1.813-4.366 3.769-6 1 34.522-29.549 3.308-103.71-52-76-11.406 5.715-18.699 12.858-31 17 20.512-8.871 35.758-26.021 37-49 56.025-15.606 111.372 60.909 77 109"/><path fill="#0d7ba5" d="M246 410c-.559 4.222-.881 8.728-1 13-.97-.386-2.877-.806-4-1 3.018-16.479 5.044-47.73 11-62 .241-.576 1.485 1.653 2 .5 1.496-3.35 4.714-7.572 6-10.5-5.329 19.223-11.383 40.224-14 60"/><path fill="#5b94aa" d="M295 355c-14.16 45.644-14.508 80.316-2 125 .23 1.695-1.823 5.584 2 7 .327 1.048.673 2.009 1 3l2 6c3.47 9.673 6.071 18.712 11 28.5 19.305 38.336 50.919 68.653 86 92.5-4.49-2.06-10.365-5.387-15-6-37.679-26.188-71.71-69.984-87-113.5-3.991-11.357-6.361-33.249-10-41.5-1.231-7.672-3.748-18.557-4-26-.529-15.599 2.064-37.511 5-53 8.027-.651 4.218-18.515 11-22"/><path fill="#22566b" d="M712 377c9.841 33.227 9.095 68.217 0 101.5-.292 1.069-1.09 4.491-3 2.5 7.987-30.021 9.299-50.066 5-81-1.896-13.646-4.461-26.987-9-40 3.878 4.487 5.353 11.44 7 17"/><path fill="#001f3a" d="M609 463c-15.449 44.753-68.92 69.401-114 63-34.211-4.857-68.726-32.023-80-65-1.002-2.931-2.343-8.791-3-12 2.253.229 4.253 6.083 5 8 28.624 73.46 129.063 81.614 178 22.5 29.562-35.71 17.672-81.361-6-116.5 22.6 27.972 32.06 65.066 20 100"/><path fill="#376c7a" d="M775 410c.763 5.485 2.379 13.781 2 19-.538 7.412-2.768 2.95-6.5 6-3.111 2.543-8.521 7.173-10.5 10.5-14.835 24.933-21.942 144.239-5 167 4.976 6.685 13.043 5.334 13 11.5-.061 8.774-4.853 19.486-7 28-6.884-.95-14.282-5.301-20-9-36.849-23.842-34.852-63.317-27.5-102-10.853 22.62-25.897 40.566-44.5 57l-3-9c52.248-48.47 80.584-122.861 71-194.5-1.558-11.646-7.18-17.82-4-27.5 6.088 20.258 11.019 41.128 10 62.5 8.758-9.821 19.414-15.845 32-19.5"/><path fill="#487f8d" d="M728 369c25.182 117.679-41.087 236.762-158 269-.56-4.596 1.61-10.754-2-14 67.187-19.549 123.024-75.433 141-143 1.91 1.991 2.708-1.431 3-2.5 9.095-33.283 9.841-68.273 0-101.5 5.213-1.746 10.219-9.177 16-8"/><path fill="#065e80" d="m641 556-2-1c5.124-7.181 5.258-10.648 4-19 32.556-37.23 50.828-85.741 40-135.5-2.646 5.918-6.402-2.252-10-3.5 5.579-8.33 11.876-18.929 16-28 3.367 2.679 5.048 9.51 6 13.5 15.308 64.136-6.219 129.539-54 173.5"/><path fill="url(#c)" d="M549 459c-3.712 3.178-20.731 12.092-25 9.5-1.374-4.81.972-10.163 0-15-2.97-14.779-17.488-36.531-22-52-1.569-5.38-.412-14.059-5-18.5 55.308-27.71 86.522 46.451 52 76" style="fill:url(#c)"/>/&gt;<path fill="url(#d)" d="M497 383c4.588 4.441 3.431 13.12 5 18.5 4.512 15.469 19.03 37.221 22 52 .972 4.837-1.374 10.19 0 15 4.269 2.592 21.288-6.322 25-9.5 1.634 2.769 2.587.813 6-1v1c-6.959 3.697-9.595 16.068-7 23-11.158.161-22.342 5.688-33.5 6-32.298.903-70.569-24.632-72.5-58-.516-8.918.975-16.346 2-25 4.747-1.746 15.279-2.737 22-5 12.301-4.142 19.594-11.285 31-17" style="fill:url(#d)"/>/&gt;<path fill="#68eaf1" d="M413 401c-3.195 5.296-2.723 12.131-3 18-.499 10.556-.167 19.42 2 30 .657 3.209 1.998 9.069 3 12h-1l-6.5-26c-.899-.659-15.125 13.543-16.5 15l-4 1.5c-5.196-21.93-5.187-44.643 4-65.5 4.205 4.554 16.333 12.877 22 15"/><path fill="#f6fdfd" d="M364.5 389c13.658-2.134 18.374 18.141 6 21-17.626 4.073-18.884-18.987-6-21"/><path fill="#a5d3d9" d="M714 400c4.299 30.934 2.987 50.979-5 81-17.976 67.567-73.813 123.451-141 143-8.275 2.408-19.461 4.834-28 6l-7-1.5 2-4.5c112.023-14.76 187.073-114.127 173-226z"/><path fill="#026ba9" d="M442 406c-8.267 3.477-21.638 17.395-29.5 23l-2.5-10c.277-5.869-.195-12.704 3-18 9.442 3.537 19.192 3.649 29 5"/><path fill="#004177" d="M444 405c-1.025 8.654-2.516 16.082-2 25l-25 27c-.747-1.917-2.747-7.771-5-8-2.167-10.58-2.499-19.444-2-30l2.5 10c7.862-5.605 21.233-19.523 29.5-23 .208-.088.733-.534 2-1"/><path fill="#c1d8e1" d="M274 426c1.278.953 3.11 3.41 5 4 .252 7.443 2.769 18.328 4 26-.785-1.78-13.591-15.739-16-18-6.172-5.791-14.111-11.859-22-15 .119-4.272.441-8.778 1-13 9.57 2.966 19.893 9.957 28 16"/><path fill="#02678e" d="M338 416c.15 26.082 5.364 51.594 14 76 2.417 6.83 4.655 14.604 8 21-1.004 2.716-8.726 7.886-9 10h-1c-17.964-30.532-26.813-64.479-27-100-.017-3.305-.141-6.702 0-10z"/><path fill="#004365" d="M323 423c.187 35.521 9.036 69.468 27 100l-11 10c-20.049-42.106-34.699-64.54-34-115z"/><path fill="#254a5b" d="M245 423c-.07 2.529-1.592 6.879-1 8.5.372 1.02 13.077 7.302 17 13 18.208 26.444 18.525 113.756 13 145.5-1.181 6.784-3.78 18.176-8 23.5-3.593 4.533-12.643 7.325-13 8-.748 1.415 3.273 17.346 4 20.5.336 2.957-.08 3.329-3 3-1.749-7.02-3.556-14.214-4-21.5-6.776-1.376-9.668.207-17-2.5 1.056-1.444 2.79-.938 5-2 14.087-6.769 16.258-41.623 17-56h1c-.282 5.515-.362 10.471-1 16-1.888 16.371-2.547 30.372-14.5 43 20.326-4.006 25.409-8.388 29.5-28 5.826-27.934 3.493-118.889-9-144-4.711-9.468-16.221-17.37-27-16.5 8.822-2.413 5.685-4.319 7-11.5 1.123.194 3.03.614 4 1"/><path fill="#568391" d="M267 438c12.076 36.072 20.148 79.325 22 117.5 1.184 24.408 4.133 66.115-16 82.5.296-3.951 4.378-10.831 5-16.5 1.222-11.139-1.599-20.805-4-31.5 5.525-31.744 5.208-119.056-13-145.5-3.923-5.698-16.628-11.98-17-13-.592-1.621.93-5.971 1-8.5 7.889 3.141 15.828 9.209 22 15"/><path fill="#224555" d="M782 433c-21.917.953-26.584 34.993-29 51-4.856 32.164-6.752 70.942-2 103 3.097 20.891 5.652 30.975 29 35 1.531.264 3.794 1.015 4 1-2.823 1.102-8.781-1.081-10.5-1-.738.035-1.377 1.979-1.5 2-.43.072-2.508-1.132-4 0 .043-6.166-8.024-4.815-13-11.5-16.942-22.761-9.835-142.067 5-167 1.979-3.327 7.389-7.957 10.5-10.5 3.732-3.05 5.962 1.412 6.5-6l4-1c.319 1.662.474 3.348 1 5"/><path fill="#e7f7fa" d="M791 438c-1.442.691-5.813 7.217-7 9-7.954 11.952-11.171 28.03-14 42-.444-7.483-10.857-5.631-17-5 2.416-16.007 7.083-50.047 29-51 3.528-.153 8.881 1.006 9 5"/><path fill="#28afd4" d="m414 461-17 16c-3.417-7.19-7.272-14.105-9-22 1.15-1.269 2.8-4.788 3-5 1.375-1.457 15.601-15.659 16.5-15z"/><path fill="#172f42" d="m237 446-1 1c-12.019-15.741-19.501-4.927-24 9l-1-1c4.932-15.963 12.794-27.268 26-9"/><path fill="#102838" d="M808 448h-1c-7.382-13.826-14.352-9.35-23 0v-1c1.187-1.783 5.558-8.309 7-9 9.951-4.769 13.601 2.944 17 10"/><path fill="url(#e)" d="M283 456c3.639 8.251 6.009 30.143 10 41.5 15.29 43.516 49.321 87.312 87 113.5 41.077 28.55 89.877 42.214 140 40l-14.5 2c-1.679 3.037 3.151 1.896 4.5 2-.191 4.938-11.809-.938-12 4-50.637 2.347-96.951 24.961-132 61-19.589 20.142-33.337 42.561-40 70-10.205-20.296-18.335-42.034-26-63.5-5.562-15.577-27.247-75.051-27-87.5.007-.332-.025-.67 0-1 20.133-16.385 17.184-58.092 16-82.5-1.852-38.175-9.924-81.428-22-117.5 2.409 2.261 15.215 16.22 16 18" style="fill:url(#e)"/>/&gt;<path fill="#f1f9fb" d="M236 447c17.015 22.284 20.432 88.238 19 116-.742 14.377-2.913 49.231-17 56v-1c8.897-4.289 12.015-28.556 13-38 3.168-30.391-.115-73.938-8-103.5-1.906-7.144-12.936-45.091-24-29-8.707 12.663-7.882 57.572-6 73.5-.204 10.193-.966 26.371 1 36l-4-2c-3.621-27.219-6.369-73.091 2-99 4.499-13.927 11.981-24.741 24-9"/><path fill="#eff9fb" d="M807 448c11.69 21.893 7.732 85.655 4 111l-4-1c2.388-12.212 2.28-25.579 2-38 2.961-14.332 1.635-62.859-7-73.5-12.333-15.198-21.894 26.378-23 33.5-1.834 5.034-.526 4.545-1 8-2.04 5.24-1.702 5.508-3 11-.717 3.033-1.5 5.895-2 9-3.911 24.27-4.766 56.665-1 81 1.492 9.642 3.383 23.435 12 29-11.007.309-14.964-29.995-16-39-4.898-42.554-.338-91.396 16-131 8.648-9.35 15.618-13.826 23 0"/><path fill="#0371a1" d="M386 457c.551-.62 1.441-1.383 2-2 1.728 7.895 5.583 14.81 9 22 15.13 31.836 41.753 53.272 76 63 70.415 20.003 137.916-18.536 154-90a97 97 0 0 0 1-5l8-3.5c-17.991 129.433-188.927 150.14-245 36z"/><path fill="#88bdcf" d="M251 580h-2c.019-1.276.33-6.829-.5-7-1.281 3.232-1.781 6.533-4.5 9 3.128-12.762 7.289-28.311 6-41.5-.085-.871-.931-7.256-3-6.5-.31-12.288-2.577-56.288-15-61-4.241-1.608-4.256-.541-8 .5 6.811-9.336 11.097-1.644 16 4-1.84-5.999-7.396-13.204-14.5-11.5-11.378 2.729-12.31 45.51-12.5 55-1.882-15.928-2.707-60.837 6-73.5 11.064-16.091 22.094 21.856 24 29 7.885 29.562 11.168 73.109 8 103.5"/><path fill="#87bbce" d="M809 520c-.041-1.831-.855-4.385-1-7-.575-10.395.11-50.847-17.5-47-3.102.677-10.387 10.944-11.5 14 1.106-7.122 10.667-48.698 23-33.5 8.635 10.641 9.961 59.168 7 73.5"/><path fill="#5495b1" d="M244 460c6.321 15.532 9.268 33.332 11 50 1.885 18.134 1.931 34.787 1 53h-1c1.432-27.762-1.985-93.716-19-116l1-1c3.137 4.34 5.004 9.096 7 14"/><path fill="#628f9f" d="M784 448c-16.338 39.604-20.898 88.446-16 131-2.255 15.528 3.923 30.219 12 43-23.348-4.025-25.903-14.109-29-35 .591-9.379 5.862-8.976 13.5-6 4.2-4.705-.509-7.992-.5-8.5.512-28.36.869-58.159 6-83.5 2.829-13.97 6.046-30.048 14-42z"/><path fill="#266c8f" d="M784 623c-.206.015-2.469-.736-4-1-8.077-12.781-14.255-27.472-12-43 1.036 9.005 4.993 39.309 16 39 2.416-.068 2.672.208 5-1 13.424-6.962 19.882-43.618 22-58 3.732-25.345 7.69-89.107-4-111h1c14.683 30.481 7.645 126.72-6 158.5-2.987 6.957-9.848 15.924-18 16.5"/><path fill="#a5ddee" d="M270 594c-1.649-1.065-1.154-5.265-1-7 2.285-25.681 2.893-49.642 0-75.5l-14-1.5c-1.732-16.668-4.679-34.468-11-50l17-10c12.493 25.111 14.826 116.066 9 144"/><path fill="#29a9c9" d="M627 450c-16.084 71.464-83.585 110.003-154 90-.404-2.411 7.717-14.638 8.5-15 3.033-1.402 10.168 4.045 13.5 1 45.08 6.401 98.551-18.247 114-63z"/><path fill="#09283b" d="M580 460c.166.187-.176 4.086 0 5-5.006-8.465-16.532-10.498-25-6v-1c8.253-4.383 17.648-6.301 25 2"/><path fill="#26658f" d="M212 456c-8.369 25.909-5.621 71.781-2 99 2.093 15.733 8.069 53.571 22 62 2.478 1.499 2.688 2.597 6 1v1c-2.21 1.062-3.944.556-5 2-16.414-6.061-22.873-49.233-25-65.5-3.824-29.254-5.647-72.514 3-100.5z"/><path fill="#edf6f7" d="M580 465c.66 1.116 1.712 3.777 2 5-1.246 7.221-3.35 10.21-8.5 15-3.106 2.889-9.051-.254-5.5 8-6.938.845-17.539-4.427-20-11-2.595-6.932.041-19.303 7-23 8.468-4.498 19.994-2.465 25 6"/><path fill="#43c2d9" d="M415 461c11.274 32.977 45.789 60.143 80 65-3.332 3.045-10.467-2.402-13.5-1-.783.362-8.904 12.589-8.5 15-34.247-9.728-60.87-31.164-76-63l17-16z"/><path fill="#0a3655" d="M232 473c-7.752 1.132-7.074 2.939-10 9-9.619 19.926-6.068 54.086-1 75 1.736 7.163 2.075 14.823 8 20-.654-.052-1.341.024-2 0-7.276-8.199-6.28-18.71-12-24.5l3 13.5c-1.057-2.667-3.174-4.953-4-9-1.966-9.629-1.204-25.807-1-36 .19-9.49 1.122-52.271 12.5-55 7.104-1.704 12.66 5.501 14.5 11.5-4.903-5.644-9.189-13.336-16-4 3.744-1.041 3.759-2.108 8-.5"/><path fill="#0a3c57" d="M808 513c-2.177 3.052-.502 7.99-1 11.5-.119.84-1.986.398-2 .5.626-13.106.222-30.835-5-43-1.033-2.407-3.741-7.884-6-9 6.637-1.256-2.511-4.33-5.5-3-3.26 1.45-8.991 14.125-10.5 18 .474-3.455-.834-2.966 1-8 1.113-3.056 8.398-13.323 11.5-14 17.61-3.847 16.925 36.605 17.5 47"/><path fill="#81cadf" d="M794 473c-12.003-5.929-18.14 33.873-19 41.5-1.006 8.923-1.131 19.487-1 28.5.034 2.313-.129 4.695 0 7l-2 4c-1.01-15.414 1.957-30.691 1-46 .5-3.105 1.283-5.967 2-9 2.671-2.581 2.529-7.562 3-11 1.509-3.875 7.24-16.55 10.5-18 2.989-1.33 12.137 1.744 5.5 3"/><path fill="#77bbce" d="M568 493c-3.551-8.254 2.394-5.111 5.5-8 5.15-4.79 7.254-7.779 8.5-15 2.462 10.46-2.377 21.584-14 23"/><path fill="#01507b" d="M794 473c2.259 1.116 4.967 6.593 6 9-8.017 1.989-6.22 11.425-8 17.5-1.002 3.419-6.601 16.951-7 19.5l-9 1.5c.133 7.493-.181 15.021 0 22.5h-2c-.131-9.013-.006-19.577 1-28.5.86-7.627 6.997-47.429 19-41.5"/><path fill="#005987" d="M247 534c.025.992-.009 2.007 0 3h-1c-.346-9.38.814-16.577-11-16-.528-2.053-.545-6.065-1-7.5-.748-2.359-3.314 2.113-5-6-1.915-9.212 4.728-22.869-7-25.5 2.926-6.061 2.248-7.868 10-9 12.423 4.712 14.69 48.712 15 61"/><path fill="#f6fbfc" d="M295 487c-3.823-1.416-1.77-5.305-2-7 .612 2.186 1.332 4.862 2 7"/><path fill="#0085b8" d="M235 521c3.614 14.045 4.238 33.128-14 36-5.068-20.914-8.619-55.074 1-75 11.728 2.631 5.085 16.288 7 25.5 1.686 8.113 4.252 3.641 5 6 .455 1.435.472 5.447 1 7.5"/><path fill="#0085b9" d="M800 482c5.222 12.165 5.626 29.894 5 43-.086.641.084 1.358 0 2-1.546 11.861-1.481 23.166-5 35-.419-6.734-12.834-7.565-15-11.5-.76-1.38-.471-28.49 0-31.5.399-2.549 5.998-16.081 7-19.5 1.78-6.075-.017-15.511 8-17.5"/><path fill="#96cfe0" d="M770 489c-5.131 25.341-5.488 55.14-6 83.5-.009.508 4.7 3.795.5 8.5-7.638-2.976-12.909-3.379-13.5 6-4.752-32.058-2.856-70.836 2-103 6.143-.631 16.556-2.483 17 5"/><path fill="#0a3c57" d="M775 499c1.298-5.492.96-5.76 3-11-.471 3.438-.329 8.419-3 11"/><path fill="#f6fbfc" d="m298 496-2-6c.626 1.899 1.332 4.137 2 6"/><path fill="#1b7baa" d="M772 554c.534 8.145 2.52 16.03 4 24-1.179-1.33-2.281-1.066-2.5-4-2.201-.408-.801 12.96-.5 15h-1c-3.766-24.335-2.911-56.73 1-81 .957 15.309-2.01 30.586-1 46"/><path fill="#7abbd2" d="M269 587c-6.052-.664-6.164-7.734-14-8 .638-5.529.718-10.485 1-16 .931-18.213.885-34.866-1-53l14 1.5c2.893 25.858 2.285 49.819 0 75.5"/><path fill="#076e93" d="M614 564c10.082 2.158 18.886-.433 25-9l2 1c-74.127 68.201-180.467 72.232-257.5 6-5.48-4.712-33.226-33.403-32.5-39 .274-2.114 7.996-7.284 9-10 12.552 24 47.807 56.081 72.5 67 58.293 25.776 128.329 17.919 181.5-16"/><path fill="#125c80" d="M809 520c.28 12.421.388 25.788-2 38-1.664 8.508-2.454 9.978-7 17 1.921-7.077 7.667-15.752 5-23v-25c.084-.642-.086-1.359 0-2 .014-.102 1.881.34 2-.5.498-3.51-1.177-8.448 1-11.5.145 2.615.959 5.169 1 7"/><path fill="#cdeaf0" d="M643 536c1.258 8.352 1.124 11.819-4 19-6.114 8.567-14.918 11.158-25 9-8.568-1.834-17.972-10.438-19-19.5-3.369-29.7 42.912-42.279 48-8.5"/><path fill="#006999" d="M785 519c-.471 3.01-.76 30.12 0 31.5 2.166 3.935 14.581 4.766 15 11.5-1.972 6.632-4.912 19.167-14.5 15-8.839-3.842-9.299-25.684-9.5-34-.181-7.479.133-15.007 0-22.5z"/><path fill="#006d9d" d="M246 537c.492 13.357.484 41.4-17 40-5.925-5.177-6.264-12.837-8-20 18.238-2.872 17.614-21.955 14-36 11.814-.577 10.654 6.62 11 16"/><path fill="#021626" d="M805 552c-8.63 38.991-28.469 43.33-31-2-.129-2.305.034-4.687 0-7h2c.201 8.316.661 30.158 9.5 34 9.588 4.167 12.528-8.368 14.5-15 3.519-11.834 3.454-23.139 5-35z"/><path fill="#c9e6ea" d="M341 541c47.452 60.147 118.739 92.917 194 83l-2 4.5 7 1.5c-23.206 3.169-47.88 3.213-71-1-15.682-2.857-38.633-10.967-53-18-35.616-17.435-63.769-46.05-83-80 2.712 3.276 5.366 6.661 8 10"/><path fill="#eff8fa" d="M244 582c-13.341 12.104-21.55-4.772-26-16l-3-13.5c5.72 5.79 4.724 16.301 12 24.5 20.629 23.246 20.082-30.807 20-40-.009-.993.025-2.008 0-3 2.069-.756 2.915 5.629 3 6.5 1.289 13.189-2.872 28.738-6 41.5"/><path fill="#02111d" d="M227 577c.659.024 1.346-.052 2 0 17.484 1.4 17.492-26.643 17-40h1c.082 9.193.629 63.246-20 40"/><path fill="#ebf6f9" d="M590 544c1.71 8.153-10.248 17.532-14 7 .634-8.151 8.01-13.899 14-7"/><path fill="url(#f)" d="M741 643c-1.54.47-1.852 2.897-2 3-1.978 1.367-9.858 3.45-11.5 5-2.359 2.226-5.313 10.506-10 15-18.253 17.502-42.217 31.366-64.5 43-.127-.129-1.856-.858-2-1-26.586-26.181-62.24-40.432-99-46-17.631-2.67-36.156-3.827-54-3 .191-4.938 11.809.938 12-4 28.235 2.18 55.551-2.963 82-12 28.87-9.865 54.2-24.859 77-45 18.603-16.434 33.647-34.38 44.5-57-7.352 38.683-9.349 78.158 27.5 102" style="fill:url(#f)"/>/&gt;<path fill="#06304d" d="M576 551c3.752 10.532 15.71 1.153 14-7 7.844 9.034-15.065 20.678-14 7"/><path fill="#e0f3f7" d="M805 552c2.667 7.248-3.079 15.923-5 23-9.113 14.076-13.037 15.368-24 3-1.48-7.97-3.466-15.855-4-24l2-4c2.531 45.33 22.37 40.991 31 2"/><path fill="#5fbfde" d="M214 557c.826 4.047 2.943 6.333 4 9 4.45 11.228 12.659 28.104 26 16 2.719-2.467 3.219-5.768 4.5-9 .83.171.519 5.724.5 7-.136 9.055-3.895 39.609-17 37-13.931-8.429-19.907-46.267-22-62z"/><path fill="#5ebddd" d="M811 559c-2.118 14.382-8.576 51.038-22 58-10.372 1.391-14.836-20.102-16-28-.301-2.04-1.701-15.408.5-15 .219 2.934 1.321 2.67 2.5 4 10.963 12.368 14.887 11.076 24-3 4.546-7.022 5.336-8.492 7-17z"/><path fill="#6f97a4" d="M269 587c-.154 1.735-.649 5.935 1 7-4.091 19.612-9.174 23.994-29.5 28 11.953-12.628 12.612-26.629 14.5-43 7.836.266 7.948 7.336 14 8"/><path fill="#073f67" d="M251 580c-.985 9.444-4.103 33.711-13 38-3.312 1.597-3.522.499-6-1 13.105 2.609 16.864-27.945 17-37z"/><path fill="#4e7d8b" d="M669 598c-22.8 20.141-48.13 35.135-77 45l-3-6c27.366-9.986 55.71-28.25 77-48z"/><path fill="#0c395d" d="M789 617c-2.328 1.208-2.584.932-5 1-8.617-5.565-10.508-19.358-12-29h1c1.164 7.898 5.628 29.391 16 28"/><path fill="#5c8f9e" d="M273 638c-.025.33.007.668 0 1l-15 6c-.313-1.292-.952-2.79-1-3-.727-3.154-4.748-19.085-4-20.5.357-.675 9.407-3.467 13-8 4.22-5.324 6.819-16.716 8-23.5 2.401 10.695 5.222 20.361 4 31.5-.622 5.669-4.704 12.549-5 16.5"/><path fill="#8bbeca" d="M469 629c-.212 2.421-2.851 9.746-2 11.5 1.337 2.755 7.331-1.138 7 3.5-11.295-1.489-50.014-10.502-58-17-6.92-5.631-3.004-8.82 0-16 14.367 7.033 37.318 15.143 53 18"/><path fill="#03151c" d="M772 624c-19.263 92.913-62.044 192.618-124 265l-2-1c17.354-18.759 44.375-54.51 35-81-.885-16.118-10.325-33.47-19-47 1.484-1.546 5.575 4.821 6 5.5 9.732 15.544 14.973 32.772 19.5 50.5 2.516-.412 1.546-5.699 1.5-7.5-.152-5.969-4.662-26.426-6-31.5 5.028 13.657 9.627 27.591 8 42.5 4.08-5.372 7.621-11.654 11-17.5 27.501-47.575 45.579-96.788 59-150 2.147-8.514 6.939-19.226 7-28 1.492-1.132 3.57.072 4 0"/><path fill="#60919f" d="M568 624c3.61 3.246 1.44 9.404 2 14-31.112 8.579-63.953 10.225-96 6 .331-4.638-5.663-.745-7-3.5-.851-1.754 1.788-9.079 2-11.5 23.12 4.213 47.794 4.169 71 1 8.539-1.166 19.725-3.592 28-6"/><path fill="#6893a1" d="m589 637 3 6c-26.449 9.037-53.765 14.18-82 12-1.349-.104-6.179 1.037-4.5-2l14.5-2c22.674-1.002 47.719-6.235 69-14"/><path fill="#a3d0dd" d="M326 790c-1.376 5.669-.997 11.765-4 17-6.988-12.495-13.985-23.866-20-37-17.298-37.77-34.211-84.621-44-125l15-6c-.247 12.449 21.438 71.923 27 87.5 7.665 21.466 15.795 43.204 26 63.5"/><path fill="#0a668e" d="M258 645c9.789 40.379 26.702 87.23 44 125l-2 2c-20.885-42.683-34.516-80.919-46-127 2.92.329 3.336-.043 3-3 .048.21.687 1.708 1 3"/><path fill="#3d8394" d="M761 652c-13.421 53.212-31.499 102.425-59 150-2.465-.084-1.599 1.575-4 0 16.718-46.169 35.915-91.884 48-139.5l-7-16.5c.148-.103.46-2.53 2-3 5.718 3.699 13.116 8.05 20 9"/><path fill="url(#g)" d="m739 646 7 16.5c-12.085 47.616-31.282 93.331-48 139.5-.299-.196-1.679.419-2-.5-1.746-5.001-1.864-19.599-4-27-1.942-6.726-5.184-13.132-8-19.5-7.235-16.361-18.515-33.226-31-46 22.283-11.634 46.247-25.498 64.5-43 4.687-4.494 7.641-12.774 10-15 1.642-1.55 9.522-3.633 11.5-5" style="fill:url(#g)"/>/&gt;<path fill="#f9fbfc" d="M498 659c17.844-.827 36.369.33 54 3-.082 3.266.929 5.155-2 7-68.64-11.449-138.875 8.397-185 62 .172-6.971 6.234-3.071 1-11 35.049-36.039 81.363-58.653 132-61"/><path fill="#c6e6ec" d="M651 708c-3.988 3.219-8.133-1.625-8 3-3.224-2.853-6.914-6.461-11-8-22.75-19.068-52.984-29.16-82-34 2.929-1.845 1.918-3.734 2-7 36.76 5.568 72.414 19.819 99 46"/><path fill="#1a3543" d="M550 669c29.016 4.84 59.25 14.932 82 34 1.632 1.367 4.195 4.316 6 6-21.532-16.472-43.372-26.04-69.5-33-70.876-18.881-156.209 2.367-205.5 61.5-24.244 29.085-24.38 43.969-30 79.5-.263 1.661-1.4 7.968-2.5 8-2.103-.964-1.138-3.379-1.5-4 3.582-35.588 12.634-62.846 36-90 46.125-53.603 116.36-73.449 185-62"/><path fill="#265d6e" d="M638 709c5.361 5.001 11.388 11.287 16 17-3.83-.548-7.939 7.772-8.5 8-1.212.493-15.91-15.678-19-18-22.432-16.856-59.386-31.14-87.5-33 .453-2.953-2.703-2.007-4.5-2-42.91.166-86.074 1.363-123 25-34.806 22.28-65.169 57.996-71.5 100-2.616-.632-4.343 8.027-5 11h-2c5.62-35.531 5.756-50.415 30-79.5 49.291-59.133 134.624-80.381 205.5-61.5 26.128 6.96 47.968 16.528 69.5 33"/><path fill="#0c3b54" d="M539 683c-2.336-.155-6.701-3.579-6 2-4.743-.352-9.185-.996-14-1-47.019-4.725-95.22 12.881-130 44-14.688 13.142-26.654 27.985-35 46-7.376 15.921-16.71 49.554-13 66.5 2.438 11.135 31.925 45.409 41.5 53.5 1.473 1.244 1.357 2.579 3.5 1 .099 2.494.974 1.891 1 2 1.958 8.077 13.201 15.36 20 20 26.009 17.749 47.464 15.582 78 17 20.141.935 39.834 1.517 60 0-1.139 7.139 17.373-1.85 21 4-34.86 4.102-124.286 5.336-154.5-11-38.996-21.084-91.705-114.546-111.5-155l2-2c6.015 13.134 13.012 24.505 20 37 2.501 4.471 4.354 9.452 7 14 .362.621-.603 3.036 1.5 4 1.1-.032 2.237-6.339 2.5-8h2c-1.836 8.311-3.123 14.954 5 20.5-3.251-10.84-1.617-20.771 0-31.5 6.331-42.004 36.694-77.72 71.5-100 36.926-23.637 80.09-24.834 123-25 1.797-.007 4.953-.953 4.5 2"/><path fill="#0f3540" d="M539 683c28.114 1.86 65.068 16.144 87.5 33 3.09 2.322 17.788 18.493 19 18 .561-.228 4.67-8.548 8.5-8 12.191 15.101 22.286 32.764 29 51 1.338 5.074 5.848 25.531 6 31.5.046 1.801 1.016 7.088-1.5 7.5-4.527-17.728-9.768-34.956-19.5-50.5-.425-.679-4.516-7.046-6-5.5-2.296-3.581-4.649-5.916-7-9-23.973-31.438-52.808-49.923-91-60-10.847-2.862-19.553-5.149-31-6-.701-5.579 3.664-2.155 6-2"/><path fill="#8bb7c8" d="M519 684c-3.196-.002-26.617.941-27.5 2-1.376 1.65-.02 9.394-.5 12-32.405 3.12-69.671 17.13-94 39l-8-9c34.78-31.119 82.981-48.725 130-44"/><path fill="#669db1" d="M533 685c11.447.851 20.153 3.138 31 6 1.128 2.296-3.547 9.631-3 10.5 1.082 1.718 7.958-.862 7 3.5-3.049-.741-7.047-2.504-10-3-.631-.106-1.365.097-2 0l-35.5-5c-9.848-.183-19.718.058-29.5 1 .48-2.606-.876-10.35.5-12 .883-1.059 24.304-2.002 27.5-2 4.815.004 9.257.648 14 1"/><path fill="#457588" d="m655 751-11 8c-6.619-13.702-18.534-25.659-31-34-3.104-2.077-7.602-4.196-11-6-10.891-5.783-21.826-11.041-34-14 .958-4.362-5.918-1.782-7-3.5-.547-.869 4.128-8.204 3-10.5 38.192 10.077 67.027 28.562 91 60"/><path fill="#f7fbfd" d="M556 702c-31.432-4.805-70.655-.528-101 10-4.646 1.612-8.618 4.016-13 6-8.307 3.761-17.437 6.56-24 13.5.051 12.807-2.022 56.776 4 66.5-10.751 4.834-18.88 14.548-24 25-3.558-6.725-5.22-13.994-8-21-2.548-15.93-8.778-31.417-8-48 4.223-5.502 9.899-12.414 15-17 24.329-21.87 61.595-35.88 94-39 9.782-.942 19.652-1.183 29.5-1zm-161.5 45c-13.876 7.669-7.574 22.642-7 36z"/><path fill="url(#h)" d="M556 702c.635.097 1.369-.106 2 0l44 17c3.398 1.804 7.896 3.923 11 6 1.687 8.9 6.976 15.941 8 25.5 1.499 13.989-1.584 31.519-7 44.5-8.517-5.89-17.422-13.057-26.5-18-36.08-19.646-81.807-27.643-122.5-22-3.61-14.329-6.093-28.779-10-43 30.345-10.528 69.568-14.805 101-10" style="fill:url(#h)"/>/&gt;<path fill="#c0dce4" d="M568 705c12.174 2.959 23.109 8.217 34 14l-44-17c2.953.496 6.951 2.259 10 3"/><path fill="#020e13" d="M643 711c13.733 12.152 29.722 33.719 36 51 2.039 5.613 2.583 9.624 4 15-6.714-18.236-16.809-35.899-29-51-4.612-5.713-10.639-11.999-16-17-1.805-1.684-4.368-4.633-6-6 4.086 1.539 7.776 5.147 11 8"/><path fill="#72c9cf" d="M651 708c.144.142 1.873.871 2 1 12.485 12.774 23.765 29.639 31 46 .996 4.851-.045 8.167-5 7-6.278-17.281-22.267-38.848-36-51-.133-4.625 4.012.219 8-3"/><path fill="#e2f0f5" d="M465 755c.079.313-.082.688 0 1l-39 14.5c-2.831-25.811-7.026-34.393 15.5-49.5.521-.349 4.257-3.301.5-3 4.382-1.984 8.354-4.388 13-6 3.907 14.221 6.39 28.671 10 43"/><path fill="#c9e4ed" d="M442 718c3.757-.301.021 2.651-.5 3-22.526 15.107-18.331 23.689-15.5 49.5l39-14.5c2.197 8.415 4.217 16.755 7 25-4.226 1.171-7.948 2.382-12 4-12.196.781-27.448 5.798-34.5 16 .084-4.089-3.351-2.759-3.5-3-6.022-9.724-3.949-53.693-4-66.5 6.563-6.94 15.693-9.739 24-13.5"/><path fill="#c6e7ec" d="M365 731c-23.366 27.154-32.418 54.412-36 90-2.646-4.548-4.499-9.529-7-14 3.003-5.235 2.624-11.331 4-17 6.663-27.439 20.411-49.858 40-70 5.234 7.929-.828 4.029-1 11"/><path fill="#437b8e" d="M644 759c15.688 32.476 10.265 57.452-9 86-3.647-2.828-4.558-8.327-7-12-1.264-8.882-13.278-21.44-20-27 1.438-4.13 3.985-6.171 6-11 5.416-12.981 8.499-30.511 7-44.5-1.024-9.559-6.313-16.6-8-25.5 12.466 8.341 24.381 20.298 31 34"/><path fill="#70a2b4" d="M397 737c-5.101 4.586-10.777 11.498-15 17-4.485 5.843-13.445 18.095-15 25-3.876-1.874-8.477-6.943-13-5 8.346-18.015 20.312-32.858 35-46z"/><path fill="#cce1e9" d="m394.5 747-7 36c-.574-13.358-6.876-28.331 7-36"/><path fill="#2b5a68" d="M662 760c8.675 13.53 18.115 30.882 19 47-.263-.742-4.147-10.398-5-5.5 1.967 30.412-16.268 67.264-42 82.5-2.536-9.015-5.605-17.733-10-26 5.564-1.699 7.966-8.504 11-13 19.265-28.548 24.688-53.524 9-86l11-8c2.351 3.084 4.704 5.419 7 9"/><path fill="#99c5d4" d="M614 795c-2.015 4.829-4.562 6.87-6 11-16.667-13.784-43.746-24.685-65-28-23.404-3.65-48.229-3.308-71 3-2.783-8.245-4.803-16.585-7-25-.082-.312.079-.687 0-1 40.693-5.643 86.42 2.354 122.5 22 9.078 4.943 17.983 12.11 26.5 18"/><path fill="#8fbece" d="M390 802c1.233 7.707.729 16.5 2 24.5.741 4.664 6.248 5.093 1.5 13.5-14.318-8.67-29.801-46.346-26.5-61 1.555-6.905 10.515-19.157 15-25-.778 16.583 5.452 32.07 8 48"/><path fill="#47b1ba" d="M698 802c2.401 1.575 1.535-.084 4 0-3.379 5.846-6.92 12.128-11 17.5 1.627-14.909-2.972-28.843-8-42.5-1.417-5.376-1.961-9.387-4-15 4.955 1.167 5.996-2.149 5-7 2.816 6.368 6.058 12.774 8 19.5 2.136 7.401 2.254 21.999 4 27 .321.919 1.701.304 2 .5"/><path fill="#5293aa" d="M367 779c-3.301 14.654 12.182 52.33 26.5 61 4.748-8.407-.759-8.836-1.5-13.5-1.271-8-.767-16.793-2-24.5 2.78 7.006 4.442 14.275 8 21 .797 1.507 4.656 9.088 5 9.5 2.464 2.952 2.89.395 3 .5.834.795 4.74 1.977 6 4.5 1.158 2.318-4.223 4.561 0 4.5-8.748 10.387-26.528 39.69-26 53-2.143 1.579-2.027.244-3.5-1-9.575-8.091-39.062-42.365-41.5-53.5-3.71-16.946 5.624-50.579 13-66.5 4.523-1.943 9.124 3.126 13 5"/><path fill="#f0f8fa" d="M543 778c-2.516 9.644 12.414 3.902 14 10-12.421-3.139-25.083-5.709-38-6-42.338-.953-78.68 16.756-109 45 12.693-19.641 28.147-33.276 50-42 4.052-1.618 7.774-2.829 12-4 22.771-6.308 47.596-6.65 71-3"/><path fill="#b0dce2" d="M608 806c6.722 5.56 18.736 18.118 20 27-11.201-16.849-35.351-32.842-54-40-5.424-2.082-11.353-3.573-17-5-1.586-6.098-16.516-.356-14-10 21.254 3.315 48.333 14.216 65 28"/><path fill="#70a2b4" d="m519 782-.5 10c14.72-.168 36.62 4.778 50.5 12 3.081 1.603 4.761 3.592 7 5-55.985-30.505-123.628-14.937-164 33-4.223.061 1.158-2.182 0-4.5-1.26-2.523-5.166-3.705-6-4.5 2.486-1.84 2.809-4.157 4-6 30.32-28.244 66.662-45.953 109-45"/><path fill="#5193a9" d="M557 788c5.647 1.427 11.576 2.918 17 5l-5 11c-13.88-7.222-35.78-12.168-50.5-12l.5-10c12.917.291 25.579 2.861 38 6"/><path fill="#a6d1de" d="M460 785c-21.853 8.724-37.307 22.359-50 42-1.191 1.843-1.514 4.16-4 6-.11-.105-.536 2.452-3-.5-.344-.412-4.203-7.993-5-9.5 5.12-10.452 13.249-20.166 24-25 .149.241 3.584-1.089 3.5 3 7.052-10.202 22.304-15.219 34.5-16"/><path fill="#021c2b" d="M576 809c19.21 12.076 37.253 28.784 48 49 4.395 8.267 7.464 16.985 10 26 1.116 3.968 1.306 8.671 4 12-3.272 1.902-.731-1.31-4-1-2.217-38.524-43.262-78.551-78-91-9.984-3.578-23.402-7.654-34-7-60.914-5.471-120.538 41.656-135 100-.026-.109-.901.494-1-2-.528-13.31 17.252-42.613 26-53 40.372-47.937 108.015-63.505 164-33"/><path fill="#457588" d="M628 833c2.442 3.673 3.353 9.172 7 12-3.034 4.496-5.436 11.301-11 13-10.747-20.216-28.79-36.924-48-49-2.239-1.408-3.919-3.397-7-5l5-11c18.649 7.158 42.799 23.151 54 40"/><path fill="#77b0bf" d="M522 797c-21.843 1.349-7.674 9.569-12.5 13-12.365 1.141-25.697 2.733-36.5 9-32.99 11.587-72.009 49.228-68 87 .086 3.258 2.82 7.311 2 11-6.799-4.64-18.042-11.923-20-20 14.462-58.344 74.086-105.471 135-100"/><path fill="#5f9bac" d="m556 804-5 14.5c8.072 1.444 15.629 5.758 22 10.5-30.922-15.841-66.606-21.729-100-10 10.803-6.267 24.135-7.859 36.5-9 4.826-3.431-9.343-11.651 12.5-13 10.598-.654 24.016 3.422 34 7"/><path fill="#438191" d="M681 807c9.375 26.49-17.646 62.241-35 81-1.001 1.082-7.511 7.716-8 8-2.694-3.329-2.884-8.032-4-12 25.732-15.236 43.967-52.088 42-82.5.853-4.898 4.737 4.758 5 5.5"/><path fill="#528694" d="M634 895c.097 1.689 1.457.39 0 4-17.764 1.479-11.073-6.028-16-17.5-6.413-14.931-18.01-34.335-33-41.5-2.863-5.043-7.561-7.696-12-11-6.371-4.742-13.928-9.056-22-10.5l5-14.5c34.738 12.449 75.783 52.476 78 91"/><path fill="#0588ab" d="M340 806c-1.617 10.729-3.251 20.66 0 31.5-8.123-5.546-6.836-12.189-5-20.5.657-2.973 2.384-11.632 5-11"/><path fill="#f4f8f9" d="M573 829c4.439 3.304 9.137 5.957 12 11 .286.503.398 4.096 1 5-35.096-24.13-72.219-30.256-112-17-16.406 5.467-33.915 12.889-41 30-4.647 11.223-4.488 16.898-4 29 .236 5.85 1.338 7.232 2 11 1.262 7.185 2.761 20.246 10 25-34.476-4.327-27.116-39.26-18.5-63-11.27 11.624-17.928 29.801-17.5 46-4.009-37.772 35.01-75.413 68-87 33.394-11.729 69.078-5.841 100 10"/><path fill="url(#i)" d="M586 845c.703 1.057 2.301 5.003 3 6-4.645-2.753-3.249 13.286-4 16.5-12.616 54.006-78.19 41.262-120 42.5-.042-.057-1.175.147-1-1-7.787-27.832-3.673-55.883 10-81 39.781-13.256 76.904-7.13 112 17" style="fill:url(#i)"/>/&gt;<path fill="#bfe6ec" d="M474 828c-13.673 25.117-17.787 53.168-10 81l-33-11c-.662-3.768-1.764-5.15-2-11l4-29c7.085-17.111 24.594-24.533 41-30"/><path fill="#5b9aa8" d="M634 899c-2.188 5.423-26.452 23.737-32.5 26-13.399 5.013-41.712 7.888-56.5 9-20.166 1.517-39.859.935-60 0l3.5-3c-5.894-.485-11.616 2.746-17.5 0 29.809-1.955 127.812 2.006 142-29.5 7.265-16.132-15.445-38.293-24-50.5-.699-.997-2.297-4.943-3-6-.602-.904-.714-4.497-1-5 14.99 7.165 26.587 26.569 33 41.5 4.927 11.472-1.764 18.979 16 17.5"/><path fill="url(#j)" d="M589 851c8.555 12.207 31.265 34.368 24 50.5-14.188 31.506-112.191 27.545-142 29.5-.909-.424-1.909-.838-2-2 .234-.027 4.47-1.286 4-2.5-4.869-2.952-5.889-13.607-8-16.5 41.81-1.238 107.384 11.506 120-42.5.751-3.214-.645-19.253 4-16.5" style="fill:url(#j)"/>/&gt;<path fill="#aacfdd" d="M429 887c-.488-12.102-.647-17.777 4-29z"/><path fill="#a6cdd7" d="M441 923c1.767 1.16 26.313 6.198 28 6 .091 1.162 1.091 1.576 2 2 5.884 2.746 11.606-.485 17.5 0l-3.5 3c-30.536-1.418-51.991.749-78-17 .82-3.689-1.914-7.742-2-11-.428-16.199 6.23-34.376 17.5-46-8.616 23.74-15.976 58.673 18.5 63"/><path fill="#041d25" d="M648 889c-28.136 32.871-36.994 43.703-82 49-3.627-5.85-22.139 3.139-21-4 14.788-1.112 43.101-3.987 56.5-9 6.048-2.263 30.312-20.577 32.5-26 1.457-3.61.097-2.311 0-4 3.269-.31.728 2.902 4 1 .489-.284 6.999-6.918 8-8z"/><path fill="#d3f1f2" d="M464 909c-.175 1.147.958.943 1 1 2.111 2.893 3.131 13.548 8 16.5.47 1.214-3.766 2.473-4 2.5-1.687.198-26.233-4.84-28-6-7.239-4.754-8.738-17.815-10-25z"/></svg>