<svg xmlns="http://www.w3.org/2000/svg" width="1024" height="1024"><defs><linearGradient id="a" x1="713.901" x2="283.065" y1="245.513" y2="324.409" gradientUnits="userSpaceOnUse"><stop offset="0%" style="stop-color:#83b2c2"/><stop offset="79.224%" style="stop-color:#c6e4ec"/></linearGradient></defs><defs><linearGradient id="b" x1="548.494" x2="342.588" y1="222.144" y2="408.924" gradientUnits="userSpaceOnUse"><stop offset="0%" style="stop-color:#cbdce5"/><stop offset="89.568%" style="stop-color:#f9fbfc"/></linearGradient></defs><defs><linearGradient id="c" x1="770.766" x2="827.305" y1="336.639" y2="414.224" gradientUnits="userSpaceOnUse"><stop offset="0%" style="stop-color:#6698aa"/><stop offset="100%" style="stop-color:#4c7f93"/></linearGradient></defs><defs><linearGradient id="d" x1="517.394" x2="503.722" y1="445.032" y2="618.494" gradientUnits="userSpaceOnUse"><stop offset="0%" style="stop-color:#093347"/><stop offset="100%" style="stop-color:#07556e"/></linearGradient></defs><defs><linearGradient id="e" x1="490.221" x2="536.622" y1="477.302" y2="656.389" gradientUnits="userSpaceOnUse"><stop offset="0%" style="stop-color:#2195b5"/><stop offset="100%" style="stop-color:#37c9ec"/></linearGradient></defs><defs><linearGradient id="f" x1="763.265" x2="470.309" y1="701.133" y2="706.211" gradientUnits="userSpaceOnUse"><stop offset="0%" style="stop-color:#31586c"/><stop offset="100%" style="stop-color:#628fa1"/></linearGradient></defs><defs><linearGradient id="g" x1="281.628" x2="471.58" y1="788.911" y2="848.233" gradientUnits="userSpaceOnUse"><stop offset="0%" style="stop-color:#75a4b6"/><stop offset="100%" style="stop-color:#558193"/></linearGradient></defs><path fill="#144154" d="M541 123c-4.125 9.863-12.527 20.372-23 24-.938.325-2.063.725-3 1-2.97.871-8.091-1.127-8.5-1-2.576.802-2.022 5.76-2.5 7-5.973 15.492-8.276 32.131-13 48-.375 1.259-.257 2.182-1 4-.604 1.477-.106 3.392-3 3l-1-2c.843-9.639 16.691-53.467 15-59.5-.368-1.312-15.485-8.926-19-19-17.249-49.441 68.036-57.876 59-5.5m-35-31c-7.641.953-10.195 2.09-15 9-2.114 3.041-4.562 7.332-5 11-.868 7.258.679 11.796 4 18 1.934 3.613 2.769 4.519 6 7 2.478 1.903 4.909 3.312 8 4 15.184 3.381 31.374-5.052 32-22 .143-3.862-1.078-4.779-2-8-2.305-8.048-3.909-11.739-12-16-1.258-.662-6.72-2.753-8-3-3.441-.664-4.53-.432-8 0"/><path fill="#41e6fa" d="M514 92c4.96 10.271-.923 10.421-4 16.5-3.46 6.836 1.283 13.97-12.5 11.5-4.591-.823-7.549-6.17-11.5-8 .438-3.668 2.886-7.959 5-11 6.627 14.87 28.215-.415 15-9 3.47-.432 4.559-.664 8 0"/><path fill="#f1fcfb" d="M506 92c13.215 8.585-8.373 23.87-15 9 4.805-6.91 7.359-8.047 15-9"/><path fill="#0dc1ef" d="M522 95c6.26 11.926 1.26 32.864-12.5 36-7.401 1.687-12.728-1.691-19.5-1-3.321-6.204-4.868-10.742-4-18 3.951 1.83 6.909 7.177 11.5 8 13.783 2.47 9.04-4.664 12.5-11.5 3.077-6.079 8.96-6.229 4-16.5 1.28.247 6.742 2.338 8 3"/><path fill="#019ccc" d="M534 111c-3.379 3.969.126 6.636-3 11.5-4.96 7.717-26.468 15.472-35.5 11.5l.5 3c-3.231-2.481-4.066-3.387-6-7 6.772-.691 12.099 2.687 19.5 1 13.76-3.136 18.76-24.074 12.5-36 8.091 4.261 9.695 7.952 12 16"/><path fill="#02789f" d="M536 119c-9.391 13.811-14.643 19.199-32 22-3.091-.688-5.522-2.097-8-4l-.5-3c9.032 3.972 30.54-3.783 35.5-11.5 3.126-4.864-.379-7.531 3-11.5.922 3.221 2.143 4.138 2 8"/><path fill="#048ab5" d="M504 141c17.357-2.801 22.609-8.189 32-22-.626 16.948-16.816 25.381-32 22"/><path fill="#0a2738" d="M537 208c-.18-.002-2.824 1.436-3 2l-47-1c2.894.392 2.396-1.523 3-3 6.885 1.725 14.899 1.093 22 1 2.883-.038 19.19.501 20-.5L518 147c10.473-3.628 18.875-14.137 23-24-2.961 17.163-19.479 21.984-20 23.5-1.06 3.086 14.118 54.048 16 61.5"/><path fill="#8ddeed" d="M515 148c.61 6.591 3.768 20.565 2 26.5-.556 1.865-3.859 1.265-4 2-.648 3.382.439 8.335 0 12-.096.803-1.992 1.375-2 1.5l-13 4c2.914-8.789 7.389-27.9 8.5-37 .38-3.111 1.198-3.22-2.5-3 .478-1.24-.076-6.198 2.5-7 .409-.127 5.53 1.871 8.5 1"/><path fill="#446273" d="m518 147 14 59.5c-.81 1.001-17.117.462-20 .5 1.221-5.113-1.292-12.61-1-17 .008-.125 1.904-.697 2-1.5.439-3.665-.648-8.618 0-12 .141-.735 3.444-.135 4-2 1.768-5.935-1.39-19.909-2-26.5.937-.275 2.062-.675 3-1"/><path fill="#f4f9f9" d="M498 194c-.774 2.336-3.312 13.72-7 8 4.724-15.869 7.027-32.508 13-48 3.698-.22 2.88-.111 2.5 3-1.111 9.1-5.586 28.211-8.5 37"/><path fill="#9ab0bc" d="M511 190c-.292 4.39 2.221 11.887 1 17-7.101.093-15.115.725-22-1 .743-1.818.625-2.741 1-4 3.688 5.72 6.226-5.664 7-8z"/><path fill="#3a9ab8" d="m486 207 1 2 47 1v3c-18.19-1.116-36.307-1.534-54.5 0-25.87 2.182-51.07 9.966-76.5 14-3.506 1.818-4.074-1.921-3-4 28.047-8.621 56.662-14.162 86-16"/><path fill="#0f7395" d="M853 430c-1.637 1.152-3.169 2.141-5 3-15.05-31.03-34.046-68.784-59-93-8.35-10.546-17.628-20.859-27.5-30-36.392-33.695-85.446-63.607-132.5-79-30.508-9.98-62.913-16.031-95-18v-3c.176-.564 2.82-2.002 3-2 116.534 1.611 233.383 78.649 293 176.5 4.122 6.765 22.672 39.944 23 45.5"/><path fill="#f3fafb" d="M534 213c32.087 1.969 64.492 8.02 95 18 4.759 4.752 3.295 4.147 3 11-117.619-41.314-237.581-21.394-333.5 58l-8.5-13c33.948-25.875 71.759-45.211 112.5-58 .761-.239.505-1.317.5-2 25.43-4.034 50.63-11.818 76.5-14 18.193-1.534 36.31-1.116 54.5 0"/><path fill="url(#a)" d="M632 242c21.48 7.545 56.568 21.834 74 36 14.979 12.172 29.103 34.044 40 50-1.471.798-2.837 1.922-3 2-11.719 6.094-23.426 2.744-35.5 4-5.997.624-12.302 3.292-18.5 4-2.259.258-3.542.653-6 0 5.852-3.815 14.688-11.222 14.5-19-9.956 10.237-25.169 14.552-38.5 9.5 8.801-15.95 7.687-33.423 6-51-6.935 9.603-12.944 14.061-23 19.5l-17.5 5c-1.984-8.073-4.026-26.577-11-31-3.875-2.458-33.915-12.318-40-14-111.92-30.939-228.949 5.264-305.5 91-2.167-2.336-2.187-2.288-4-5 1.139-3.755 15.219-15.388 15-17.5-.091-.879-11.113-10.519-12.5-12.5L256 325c-.253-2.063.953-5.712-1-7 4.279-7.184 27.329-25.153 35-31l8.5 13c95.919-79.394 215.881-99.314 333.5-58" style="fill:url(#a)"/>/&gt;<path fill="#5db1cd" d="M400 223c-1.074 2.079-.506 5.818 3 4 .005.683.261 1.761-.5 2-40.741 12.789-78.552 32.125-112.5 58-7.671 5.847-30.721 23.816-35 31-.148.248-.82 1.608-1 2-20.453 18.064-38.723 41.163-52 65-2.723-1.348-4.619-3.29-6-4 46.148-74.831 119.775-132.11 204-158"/><path fill="#a7e5f2" d="M789 340c-6.495-6.303-19.051-15.057-27-20-.137-.88.449-2.036-1-2l-55-40c-17.432-14.166-52.52-28.455-74-36 .295-6.853 1.759-6.248-3-11 47.054 15.393 96.108 45.305 132.5 79 9.872 9.141 19.15 19.454 27.5 30"/><path fill="url(#b)" d="M642 297c-16.007 8.658-29.09 11.192-47.5 10 .854-1.377 22.645-19.686 16-20-45.49 30.096-100.966-3.109-144 28l31.5-32.5c-2.868-1.554-10.016.691-13 1.5-2.537-1.579-8.118-1.308-11-1-31.41 3.353-57.312 30.007-45 62-33.122.216-64.889-8.239-76-43-.16-1.461.107-3.017 0-4.5l-2 .5c-18.637 24.065-10.881 41.467 2 65l-1 2c-25.923 3.342-65.387 3.064-84-17 76.551-85.736 193.58-121.939 305.5-91 6.085 1.682 36.125 11.542 40 14 6.974 4.423 9.016 22.927 11 31z" style="fill:url(#b)"/>/&gt;<path fill="#00223c" d="M683 338c-2.808 1.831-7.525 4.76-10.5 6-5.911 2.464-17.603.814-21 8l49-7-47.5 15c-9.422 1.947-20.43 3.633-28.5 8l5.5.5-5 2 16.5-.5-7.5 3.5c4.782 3.615 43.422-11.197 44-9 .138.524-5.765 1.853-5.5 3.5l12-3c-2.714 6.444-12.951 3.129-18.5 6.5l14.5-.5c2.457 1.246-24.635 7.7-26.5 8.5 23.972 2.087 56.357-7.483 76.5-20.5 5.889-3.805 9.501-9.92 15.5-12-15.405 21.06-38.432 25.257-61 34.5 23.984-2.895 47.269-14.278 61-34.5 2.11-3.108 6.601-7.77 6-12 1.609-2.048 2.994-4.6 4-7 .157-.375 3.24-2.956 1.5-4l-4.5 1c2.654-1.551 6.288-4.372 8-7 1.449-.036.863 1.12 1 2 .658 4.228-4.921 15.822-7 20-2.757 5.539-7.629 12.42-11 18-.18.298-4.126 2.933-4 3.5l1.5 1.5c12.941 4.33 20.949 6.705 34.5 6 1.361-.071 5.807-1.218 6 .5l-10.5 6.5c10.44-1.399 21.264-3.17 28-12-1.417 20.511-20.403 39.48-37.5 49l-6.5 2c18.971 3.015 37.158 15.158 56.5 16 9.523.414 17.584-1.87 26.5-5-2.792 5.751-8.72 7.997-14.5 9-19.119 3.316-27.869-3.343-45-8-14.964-4.068-28.558-9.482-44.5-6l29.5 8.5-30.5-4.5c7.67 9.727 24.387 8.314 35.5 10 1.892.287 4.093-.26 6 0l.5 5-21-3 1 2-34.5-10.5c12.905 16.466 35.291 18.423 54.5 22.5h-12l9 3c-3.38 3.773-28.871-4.862-29.5-3.5 9.909 10.94 25.458 12.936 39.5 13.5-.286 4.843-11.457-.221-14 3 17.138 2.499 39.394-1.255 53-11l-10.5.5c-.289-1.279 5.176-2.06 6-2.5 4.054 2.618 27.451-12.993 27-14.5-7.765.7.183-.557-4-3.5 3.297-.721 5.101-1.64 8-3 1.831-.859 3.363-1.848 5-3 .019.328.01.671 0 1-.04 1.259-2.283 5.459-3 7-.404.867-2.802 5.73-3 6-14.599 19.889-51.489 29.308-75 28-5.257-.292-12.007-4.05-17-2.5 7.606 7.948 11.747 18.095 17 27.5-11.498-11.879-17.394-28.439-28-41.5-95.573-117.698-330.57-125.495-442-24.5-21.72 12.852-36.599 16.112-46 41.5-1.887 5.095-1.756 11.16-3 15.5-1.399 4.88-4.238 9.349-5 14.5.643-20.97 9.658-45.381 22-63-19.437-2.616-38.23-4.723-54-17.5-3.557-2.882-11.387-12.051-14-16-2.084-3.149-4.565-7.524-6-11-1.163-2.817-2.36-6.005-3-9-.422-1.974-1.697-3.926-1-6.5.094-.221 3.647 1.319 4 1.5 1.381.71 3.277 2.652 6 4 5.004 2.477 7.334 4.057 13 6 7.101 2.435 12.405 4.115 20 5 14.068 1.64 30.792 2.376 43-5.5-7.949-6.901-16.465-13.772-21-23.5-4.696-10.072-6.767-22.889-6-34 .253-3.67 1.504-9.733 3-13 .18-.392.852-1.752 1-2 1.953 1.288.747 4.937 1 7 .921 7.513 3.982 11.987 8 18 1.813 2.712 1.833 2.664 4 5 18.613 20.064 58.077 20.342 84 17 .947-.122 2.348.437 3-.5-.297-.825-1.94-1.39-2-1.5-12.881-23.533-20.637-40.935-2-65-.82 7.15-8.643 16.394-9 23.5-.129 2.559 2.742 9.232 3 12 .029.315-2.632 1.575-2 6 .082.576 4.471 12.045 7 7.5 1.049 1.82 4.722 4.815 6 7 1.769 3.199-1.299 1.707-1 2.5.578 1.533 14.269 14.496 18 13l-9.5-8.5 2.5-1c2.954 2.45 8.964 6.298 13 6.5-4.748-3.133-8.345-7.228-12-11.5l22.5 14 2.5-.5c-3.759-2.434-10.929-3.126-5-7.5l9 2.5c-4.048-2.209-8.116-3.962-12-6.5l2-3c1.492.864 15.906 9.252 17 6.5l-28-18c1.096-4.329 18.665 14.507 18 8-17.423-12.544-30.549-16.75-38-38.5-1.613-4.71-1.487-5.32-2-10 11.111 34.761 42.878 43.216 76 43l2-1.5c-1.803-2.992-5.901-17.546-3.5-19.5 5.833 5.724 4.403 20.771 13.5 26.5l-2.5-8.5 9 11c.643-3.622-12.173-22.472-3.5-18.5l3.5 10.5c1.692-21.171 3.329-11.127 7 2 .204-6.563-1.29-13.426-.5-20 1.366-11.367 12.812-29.796 23-35.5l-4-4c4.019-.968 8.048-2.429 12-3.5 2.984-.809 10.132-3.054 13-1.5L466.5 315c43.034-31.109 98.51 2.096 144-28 6.645.314-15.146 18.623-16 20 18.41 1.192 31.493-1.342 47.5-10 10.056-5.439 16.065-9.897 23-19.5 1.687 17.577 2.801 35.05-6 51 13.331 5.052 28.544.737 38.5-9.5.188 7.778-8.648 15.185-14.5 19m-107-7c-9.417 2.78-21.8 10.704-31.5 14-3.995 4.822 12.364-2.877 11.5 2-2.171.782-6.058 1.234-8.5 2-4.142 4.155 13.577-1.759 14.5-2 5.261 4.83-11.284 4.123-12.5 8l33.5-6.5-7.5 4.5c6.677-.823 14.251-1.026 19.5-5.5-.012-.807-1.956-.407-2-.5 21.804-6.391 43.299-17.84 57.5-36-7.324 17.68-26.09 26.619-42.5 34.5 3.853.903 13.127-2.852 16.5-4.5 18.722-9.149 38.227-32.08 37-54-10.587 12.124-22.438 21.934-37 29-17.336 8.412-30.551 8.215-49 13-2.789.723-3.57 2.588.5 2m21.5-36c-28.206 8.832-60.804 12.122-87 27l12.5-3.5-36 31c10.917-7.123 28.067-25.073 40.5-29.5.38-.135 4.06-1.419 3.5.5-4.585 2.616-12.71 6.088-14.5 11.5 6.866-4.959 15.309-11.164 23.5-12.5-1.2 1.607-10.713 4.505-8.5 7.5 6.483-4.648 14.019-7.321 21-11 3.09-1.628 6.552-6.79 7-7 1.754-.822 23.88-6.607 24.5-5.5-8.323 2.204-18.034 11.84-25.5 15.5-.162.079-.65-3.179-3-2-10.488 5.264-23.952 11.585-33 19-.199.163-5.063 3.927-2 4l36.5-20.5-38.5 27.5 67-38-4.5-.5c-.039-1.402 14.73-8.623 16.5-10.5 1.519-1.611 2.038-1.272 0-3m65 3c-4.837 32.693-32.865 48.207-61.5 57.5 29.078-3.417 61.88-25.896 61.5-57.5m-155 4c-9.171.784-21.534 4.578-29 10-3.683 2.674-18.007 19.396-17.5 23.5.174 1.407 3.328-4.113 3.5 1.5 3.85-10.755 13.623-17.219 23-23-7.57 8.609-20.19 15.373-18 29 4.669-14.572 15.747-26.692 30.5-31.5-5.181 4.136-13.612 7.238-15.5 14.5 6.262-7.3 14.409-12.312 24-14-3.37 4.35-10.252 4.802-15 8-7.09 4.775-16.394 14.827-17 24 8.58-19.737 29.362-28.491 48.5-35.5l-16.5 2.5c-.078-3.677 20.288-5.057 17.5-8.5-5.951-.537-12.555-1.008-18.5-.5m69 14L531 343.5c4.962-.065 49.616-24.321 48-27-.527-.724-1.743-.661-2.5-.5M293 393c12.98 6.183 23.014 7.7 37.5 6l-11.5-6.5c5.486-2.295 17.181 2.297 20.5-2.5-8.62-.064-22-1.151-28.5-7 5.177 1.22 10.298 1.945 15.5 3-5.271-8.201-23.98-7.871-34-12-3.537-1.458-12.057-5.904-13-10 4.974 3.494 10.839 5.11 16.5 7 10.546 3.521 20.338 6.651 32 6.5-9.735-2.354-18.933-4.371-28.5-7.5-1.882-.616-2.951 1.205-3.5 1-1.877-.701-21.255-13.115-23.5-15-6.492-5.453-10.761-11.757-15-19l3 16-5.5-11.5c3.363 22.394 17.593 41.78 38 51.5m223.5-55c-2.433 2.425-23.323 8.499-21.5 12.5 5.619-2.408 12.3-4.249 17.5-7.5.271-.17 7.067-4.336 4-5m-116 10c-5.536 1.076 6.996 5.719 8 6 6.595 1.848 13.759 1.773 20.5 2.5zm-97 18c-1.659 2.011 2.563 2.491 4 3 12.689 4.495 31.044 6.492 44.5 5.5zm430 1c-.617.149-4.709 2.557-4 4l24.5-.5c-4.29-3.262-15.651-4.671-20.5-3.5m38.5 14c.237-5.169-9.296 1.274-14-1.5l11.5-3.5c-22.312 5.842-44.262-1.265-65.5 8.5l29.5 1.5-3.5 1.5 3 2-30.5 1.5c.539-5.773-4.281.704-4 1 1.258 1.322 11.923.961 14.5 1l-19.5 1c-1.54 3.292-9.643-.158-14 1 6.01 5.682 17.723 5.565 26 8l35 1-57 1c25.941 10.08 69.075 9.113 93-6 1.097-.693 8.331-5.496 5-7-7.258 7.331-18.221 12.238-28.5 12.5 13.166-6.259 26.563-10.694 35-23.5 1.017-1.543 2.129-2.775 3.5-4l-1-2c-5.716 3.261-12.374 3.897-18.5 6m-563 27c10.746 9.996 20.585 16.668 35 20 4.987 1.153 21.102 5.725 24 0 5.145.199 10.503-.82 15.5 1 1.649-1.742-.584-1.94-.5-2 8.524-6.073 17.668.134 23.5-7-17.299.247-34.063 2.45-51-2-1.304-.343-5.111-1.089-1.5-3 3.602.613 11.326 3.416 13.5 0-4.711-.657-11.61-.786-16-2-.86-.238-15.628-5.447-12-7 8.693 2.961 18.427 3.633 27.5 2.5.008-1.112-19.99-.997-20.5-5.5l55 6c.534-2.697 7.354 1.276 11-2-17.805-8.29-37.799 1.566-55-6h30c-18.499-4.936-39.944-.543-60-4-3.061-.528-18.676-6.72-19.5-5.5-.371.549 5.682 2.485 1.5 3.5l-8.5-6c-1.743-2.603-3.924-4.648-7-5.5 3.444 6.275 5.535 18.765 11 24 2.506 2.4 2.668-.318 4 .5"/><path fill="#6092a6" d="M761 318c-1.712 2.628-5.346 5.449-8 7-1.191.696-.94.963-1 1-1.015.614-4.863 1.383-6 2-10.897-15.956-25.021-37.828-40-50z"/><path fill="#01547b" d="M459 303c-3.735 6.261-9.928 15.995-8.5 23l4.5-9.5-1 10.5c-.79 6.574.704 13.437.5 20-3.671-13.127-5.308-23.171-7-2l-3.5-10.5c-8.673-3.972 4.143 14.878 3.5 18.5l-9-11 2.5 8.5c-9.097-5.729-7.667-20.776-13.5-26.5-2.401 1.954 1.697 16.508 3.5 19.5l-2 1.5c-12.312-31.993 13.59-58.647 45-62-4.983 3.956-11.75 4.642-17.5 8-8.543 4.988-19.981 18.832-22.5 28.5-1.358 5.213-2.722 9.842 1.5 12.5 2.709-7.157 2.026-15.867 6.5-22.5 3.585-5.315-2.862 13.522-3 13l1.5 8.5c.37-8.388 2.382-19.006 6.5-26.5.651-1.185 6.51-9.511 9-8-7.022 6.818-13.442 20.034-12.5 29.5 5.58-9.62 7.229-14.782 15.5-23"/><path fill="#05a7d4" d="M485 284c-3.952 1.071-7.981 2.532-12 3.5l4 4c-10.188 5.704-21.634 24.133-23 35.5l1-10.5-4.5 9.5c-1.428-7.005 4.765-16.739 8.5-23 1.129-1.122 4.851-2.538 3.5-5-2.281 1.226-2.576 3.451-3.5 5-8.271 8.218-9.92 13.38-15.5 23-.942-9.466 5.478-22.682 12.5-29.5-2.49-1.511-8.349 6.815-9 8-4.118 7.494-6.13 18.112-6.5 26.5l-1.5-8.5c.138.522 6.585-18.315 3-13-4.474 6.633-3.791 15.343-6.5 22.5-4.222-2.658-2.858-7.287-1.5-12.5 2.519-9.668 13.957-23.512 22.5-28.5 5.75-3.358 12.517-4.044 17.5-8 2.882-.308 8.463-.579 11 1"/><path fill="#019ccb" d="M593 347c-.044-.094-1.96.314-2-.5-.125-2.527 42.274-14.237 43.5-24.5l-19 10c2.26-6.073-12.214 4.673-16 6-11.377 3.988-25.323 5.821-37.5 9-.923.241-18.642 6.155-14.5 2 2.442-.766 6.329-1.218 8.5-2 22.684-8.172 51.741-11.069 70.5-27 .41-.348 3.949-3.019 1-3-13.687 8.681-30.676 18.268-46 20 10.379-4.721 23.153-7.958 32-15-11.515 7.502-25.768 5.536-37.5 9-4.07.588-3.289-1.277-.5-2 18.449-4.785 31.664-4.588 49-13 14.562-7.066 26.413-16.876 37-29 1.227 21.92-18.278 44.851-37 54-3.373 1.648-12.647 5.403-16.5 4.5 16.41-7.881 35.176-16.82 42.5-34.5-14.201 18.16-35.696 29.609-57.5 36m49.5-38L618 328.5c10.325-2.564 19.035-9.413 26-17z"/><path fill="#02a1d2" d="M597.5 295c2.038 1.728 1.519 1.389 0 3-1.77 1.877-16.539 9.098-16.5 10.5l4.5.5-67 38 38.5-27.5-36.5 20.5c-3.063-.073 1.801-3.837 2-4 9.048-7.415 22.512-13.736 33-19 2.35-1.179 2.838 2.079 3 2 7.466-3.66 17.177-13.296 25.5-15.5-.62-1.107-22.746 4.678-24.5 5.5-.448.21-3.91 5.372-7 7-6.981 3.679-14.517 6.352-21 11-2.213-2.995 7.3-5.893 8.5-7.5-8.191 1.336-16.634 7.541-23.5 12.5 1.79-5.412 9.915-8.884 14.5-11.5.56-1.919-3.12-.635-3.5-.5-12.433 4.427-29.583 22.377-40.5 29.5l36-31-12.5 3.5c26.196-14.878 58.794-18.168 87-27"/><path fill="#025982" d="M353 302c.513 4.68.387 5.29 2 10-2.849-1.843-2.163.098-1.5 2 6.178 17.734 16.091 30.503 32.5 40l-2 3c-11.497-7.512-17.169-15.444-25.5-26 3.981 15.15 16.154 22.496 28.5 30-5.929 4.374 1.241 5.066 5 7.5l-2.5.5-22.5-14c-7.135-8.34-18.971-24.705-20-35.5-.026-.268 4.363-1.345 2-5-7.796 13.155 6.063 36.428 17 45.5l-2.5 1 9.5 8.5c-3.731 1.496-17.422-11.467-18-13-.299-.793 2.769.699 1-2.5-.065-.118 1.902-.27 1-2.5-1.202-2.971-10.549-9.965-10-17-1.563 3.766 1.106 9.214 3 12.5-2.529 4.545-6.918-6.924-7-7.5-.632-4.425 2.029-5.685 2-6-.258-2.768-3.129-9.441-3-12 .357-7.106 8.18-16.35 9-23.5l2-.5c.107 1.483-.16 3.039 0 4.5m7.5 39 .5 1.5.5.5.5-1.5z"/><path fill="#01547b" d="M459 303c.924-1.549 1.219-3.774 3.5-5 1.351 2.462-2.371 3.878-3.5 5"/><path fill="#009fcd" d="M662.5 298c.38 31.604-32.422 54.083-61.5 57.5 28.635-9.293 56.663-24.807 61.5-57.5"/><path fill="#03a0d0" d="M507.5 302c5.945-.508 12.549-.037 18.5.5 2.788 3.443-17.578 4.823-17.5 8.5l16.5-2.5c-19.138 7.009-39.92 15.763-48.5 35.5.606-9.173 9.91-19.225 17-24 4.748-3.198 11.63-3.65 15-8-9.591 1.688-17.738 6.7-24 14 1.888-7.262 10.319-10.364 15.5-14.5-14.753 4.808-25.831 16.928-30.5 31.5-2.19-13.627 10.43-20.391 18-29-9.377 5.781-19.15 12.245-23 23-.172-5.613-3.326-.093-3.5-1.5-.507-4.104 13.817-20.826 17.5-23.5 7.466-5.422 19.829-9.216 29-10m3 2c-4.181.521-12.063 3.645-15.5 6.5l24.5-5.5c-1.626-1.613-6.882-1.264-9-1"/><path fill="#0a5584" d="M510.5 304c2.118-.264 7.374-.613 9 1l-24.5 5.5c3.437-2.855 11.319-5.979 15.5-6.5"/><path fill="#005f86" d="m642.5 309 1.5 2.5c-6.965 7.587-15.675 14.436-26 17z"/><path fill="#04a0ce" d="M355 312c7.451 21.75 20.577 25.956 38 38.5.665 6.507-16.904-12.329-18-8l28 18c-1.094 2.752-15.508-5.636-17-6.5-16.409-9.497-26.322-22.266-32.5-40-.663-1.902-1.349-3.843 1.5-2"/><path fill="#fcfefe" d="M264 343c-4.018-6.013-7.079-10.487-8-18l10.5-12c1.387 1.981 12.409 11.621 12.5 12.5.219 2.112-13.861 13.745-15 17.5"/><path fill="#01a7d6" d="M367 355c3.655 4.272 7.252 8.367 12 11.5-4.036-.202-10.046-4.05-13-6.5-10.937-9.072-24.796-32.345-17-45.5 2.363 3.655-2.026 4.732-2 5 1.029 10.795 12.865 27.16 20 35.5"/><path fill="#00a2d3" d="M576.5 316c.757-.161 1.973-.224 2.5.5 1.616 2.679-43.038 26.935-48 27z"/><path fill="#004e72" d="M556 347c.864-4.877-15.495 2.822-11.5-2 9.7-3.296 22.083-11.22 31.5-14 11.732-3.464 25.985-1.498 37.5-9-8.847 7.042-21.621 10.279-32 15 15.324-1.732 32.313-11.319 46-20 2.949-.019-.59 2.652-1 3-18.759 15.931-47.816 18.828-70.5 27"/><path fill="#d5e4eb" d="M254 320c-1.496 3.267-2.747 9.33-3 13l-36 58c-5.666-1.943-7.996-3.523-13-6 13.277-23.837 31.547-46.936 52-65"/><path fill="url(#c)" d="M789 340c24.954 24.216 43.95 61.97 59 93-2.899 1.36-4.703 2.279-8 3-1.228.268-2.734-.191-4 0-3.637.549-12.933 3.376-12-1 5.78-1.003 11.708-3.249 14.5-9-8.916 3.13-16.977 5.414-26.5 5l-50-18c17.097-9.52 36.083-28.489 37.5-49-6.736 8.83-17.56 10.601-28 12l10.5-6.5c-.193-1.718-4.639-.571-6-.5h-1c-4.574-10.882-11.473-20.974-20-29 2.079-4.178 7.658-15.772 7-20 7.949 4.943 20.505 13.697 27 20" style="fill:url(#c)"/>/&gt;<path fill="#004669" d="M593 347c.044.093 1.988-.307 2 .5-5.249 4.474-12.823 4.677-19.5 5.5l7.5-4.5-33.5 6.5c1.216-3.877 17.761-3.17 12.5-8 12.177-3.179 26.123-5.012 37.5-9 3.786-1.327 18.26-12.073 16-6l19-10c-1.226 10.263-43.625 21.973-43.5 24.5.04.814 1.956.406 2 .5"/><path fill="#004b6e" d="m756 328-3.5 2-.5-4c.06-.037-.191-.304 1-1l4.5-1c1.74 1.044-1.343 3.625-1.5 4"/><path fill="#03a7d9" d="m752 326 .5 4 3.5-2c-1.006 2.4-2.391 4.952-4 7-8.682 11.055-29.308 20.979-42 27h-3c14.175-7.276 33.445-16.833 42.5-30-20.048 9.434-35.846 26.163-58.5 28.5l29.5-12.5-38.5 10.5c-.927-2.81 42.531-11.323 44.5-17.5-20.583 3.428-39.7 13.121-60 18-4.259 1.024-11.165.518-13.5 1l47.5-15-49 7c3.397-7.186 15.089-5.536 21-8 2.975-1.24 7.692-4.169 10.5-6 2.458.653 3.741.258 6 0 2.31 2.227 8.595 1.284 11.5 1 17.178-1.68 27.618-1.856 42.5-9 .163-.078 1.529-1.202 3-2 1.137-.617 4.985-1.386 6-2m-6.5 4c-.174.046-2.887 2.274-2 3l4.5-2.5c-.265-.694-1.859-.668-2.5-.5"/><path fill="#022b48" d="M743 330c-14.882 7.144-25.322 7.32-42.5 9-2.905.284-9.19 1.227-11.5-1 6.198-.708 12.503-3.376 18.5-4 12.074-1.256 23.781 2.094 35.5-4"/><path fill="#084774" d="M745.5 330c.641-.168 2.235-.194 2.5.5l-4.5 2.5c-.887-.726 1.826-2.954 2-3"/><path fill="#01a5d3" d="M384 357c3.884 2.538 7.952 4.291 12 6.5l-9-2.5c-12.346-7.504-24.519-14.85-28.5-30 8.331 10.556 14.003 18.488 25.5 26"/><path fill="#fdfdfe" d="M251 333c-.767 11.111 1.304 23.928 6 34-10.189 2.891-17.252 19.915-22 29-7.595-.885-12.899-2.565-20-5z"/><path fill="#004c6f" d="M707 362c-1.7.872-16.491 6.404-11.5 7 1.752.209 12.205-5.911 14.5-7 12.692-6.021 33.318-15.945 42-27 .601 4.23-3.89 8.892-6 12-5.999 2.08-9.611 8.195-15.5 12-20.143 13.017-52.528 22.587-76.5 20.5 1.865-.8 28.957-7.254 26.5-8.5l-14.5.5c5.549-3.371 15.786-.056 18.5-6.5l-12 3c-.265-1.647 5.638-2.976 5.5-3.5-.578-2.197-39.218 12.615-44 9l7.5-3.5-16.5.5 5-2-5.5-.5c8.07-4.367 19.078-6.053 28.5-8 2.335-.482 9.241.024 13.5-1 20.3-4.879 39.417-14.572 60-18-1.969 6.177-45.427 14.69-44.5 17.5l38.5-10.5-29.5 12.5c22.654-2.337 38.452-19.066 58.5-28.5-9.055 13.167-28.325 22.724-42.5 30"/><path fill="#01aad3" d="M356 354c-1.278-2.185-4.951-5.18-6-7-1.894-3.286-4.563-8.734-3-12.5-.549 7.035 8.798 14.029 10 17 .902 2.23-1.065 2.382-1 2.5"/><path fill="#0397c7" d="M296 371c-5.661-1.89-11.526-3.506-16.5-7 .943 4.096 9.463 8.542 13 10 10.02 4.129 28.729 3.799 34 12-5.202-1.055-10.323-1.78-15.5-3-9.454-2.228-16.997-6.056-25.5-11l11.5 11.5c-12.886-3.265-22.341-14.44-31.5-23.5l27.5 33c-20.407-9.72-34.637-29.106-38-51.5l5.5 11.5-3-16c4.239 7.243 8.508 13.547 15 19 2.245 1.885 21.623 14.299 23.5 15"/><path fill="#0093c6" d="M516.5 338c3.067.664-3.729 4.83-4 5-5.2 3.251-11.881 5.092-17.5 7.5-1.823-4.001 19.067-10.075 21.5-12.5"/><path fill="#77a5b6" d="M775 369c-10.83-2.339-21.358-5.44-31-11 3.371-5.58 8.243-12.461 11-18 8.527 8.026 15.426 18.118 20 29"/><path fill="#049fd8" d="m360.5 341 1.5.5-.5 1.5-.5-.5z"/><path fill="#00486a" d="M746 347c-13.731 20.222-37.016 31.605-61 34.5 22.568-9.243 45.595-13.44 61-34.5"/><path fill="#0187b5" d="m400.5 348 28.5 8.5c-6.741-.727-13.905-.652-20.5-2.5-1.004-.281-13.536-4.924-8-6"/><path fill="#6e878d" d="M775 369h1c-13.551.705-21.559-1.67-34.5-6l-1.5-1.5c-.126-.567 3.82-3.202 4-3.5 9.642 5.56 20.17 8.661 31 11"/><path fill="#004d70" d="M311 383c6.5 5.849 19.88 6.936 28.5 7-3.319 4.797-15.014.205-20.5 2.5l11.5 6.5c-14.486 1.7-24.52.183-37.5-6l-27.5-33c9.159 9.06 18.614 20.235 31.5 23.5L285.5 372c8.503 4.944 16.046 8.772 25.5 11"/><path fill="#3d4445" d="M772 497c2.689 4.814 4.655 7.818 7 13 .313 9.749 7.21 20.493 9 30.5 1.466 8.195 2.417 23.191 2 31.5l-4 3c2.276-15.821 2.06-18.841-3-34 4.525-.232-.143-11.359-1-13.5-21.965-54.891-103.19-108.308-160-118.5-1.68-1.388-3.253-2.68-5-4-43.06-32.518-99.129-43.263-151.5-29-20.298 5.528-33.862 16.735-51.5 24-64.478 26.558-114.449 39.278-158 101.5-2.714 3.877-17.53 29.462-17 32 .573 2.743 3.291 1.135 5 1.5-4.215 11.454-4.691 17.426-7 29-.447 2.242-1.317 4.626-1.5 7l-2.5-10c.966-28.154 14.65-53.047 26-78 15.262-17.173 24.112-34.881 43-52 111.43-100.995 346.427-93.198 442 24.5 10.606 13.061 16.502 29.621 28 41.5"/><path fill="#012846" d="M710 362c-2.295 1.089-12.748 7.209-14.5 7-4.991-.596 9.8-6.128 11.5-7z"/><path fill="#9fd8e6" d="m352 365 1-2c.06.11 1.703.675 2 1.5-.652.937-2.053.378-3 .5"/><path fill="#059dca" d="m303.5 366 48.5 8.5c-13.456.992-31.811-1.005-44.5-5.5-1.437-.509-5.659-.989-4-3"/><path fill="#d8eef4" d="M257 367c4.535 9.728 13.051 16.599 21 23.5-12.208 7.876-28.932 7.14-43 5.5 4.748-9.085 11.811-26.109 22-29"/><path fill="#004a6f" d="M733.5 367c4.849-1.171 16.21.238 20.5 3.5l-24.5.5c-.709-1.443 3.383-3.851 4-4"/><path fill="#0199c9" d="M296 371c.549.205 1.618-1.616 3.5-1 9.567 3.129 18.765 5.146 28.5 7.5-11.662.151-21.454-2.979-32-6.5"/><path fill="#01344e" d="m617 405-1 6c-12.191-9.636-20.774-11.819-36-14-6.602-.946-11.675-.58-18-1 1.723-4.83.734-3.453-3.5-5-19.549-7.145-55.674-5.206-76.5-3-30.506 3.232-79.368 18.622-95 48-.587 1.103-2.169 2.102-1.5 3H402c-.291.133-3.279 4.294-4 5-6.676-.666-14.672-2.177-19 2l-7-4c2.432-3.528 4.191-6.586 7-10 10.078-12.25 22.566-22.31 35-32 17.638-7.265 31.202-18.472 51.5-24 52.371-14.263 108.44-3.518 151.5 29"/><path fill="#008dbc" d="m788 381-24.5 17c-6.169-1.902-13.472 6.122-19 3 6.571-2.076 16.364-4.188 22-8 6.565-4.44-14.49 5.618-12.5 2.5 5.426-2.593 13.329-4.386 16.5-9.5l-35.5 8.5c-.425-1.652 21.482-5.764 23.5-6.5.889-.325.384-1.958.5-2 4.288-1.55 8.674-3.515 13-5 6.126-2.103 12.784-2.739 18.5-6l1 2c-1.371 1.225-2.483 2.457-3.5 4"/><path fill="#029fcd" d="M772 381c-4.326 1.485-8.712 3.45-13 5l-23.5 2 4.5 2.5c.079 1.877-24.356 2.54-27 2.5-2.577-.039-13.242.322-14.5-1-.281-.296 4.539-6.773 4-1l30.5-1.5-3-2 3.5-1.5-29.5-1.5c21.238-9.765 43.188-2.658 65.5-8.5l-11.5 3.5c4.704 2.774 14.237-3.669 14 1.5"/><path fill="#004c6f" d="M713 393c2.644.04 27.079-.623 27-2.5l-4.5-2.5 23.5-2c-.116.042.389 1.675-.5 2-2.018.736-23.925 4.848-23.5 6.5l35.5-8.5c-3.171 5.114-11.074 6.907-16.5 9.5-1.99 3.118 19.065-6.94 12.5-2.5-5.636 3.812-15.429 5.924-22 8 5.528 3.122 12.831-4.902 19-3l24.5-17c-8.437 12.806-21.834 17.241-35 23.5 10.279-.262 21.242-5.169 28.5-12.5 3.331 1.504-3.903 6.307-5 7-23.925 15.113-67.059 16.08-93 6l57-1-35-1c-8.277-2.435-19.99-2.318-26-8 4.357-1.158 12.46 2.292 14-1z"/><path fill="#014668" d="M201 389c1.003 1.498 1.284 3.442 3 4.5l-2 1c.782 3.8 19.596 18.199 21 15l-18-14c.807-1.532 13.595 9.136 16.5 10.5 7.446 3.495 24.124 7.576 32.5 9-3.611 1.911.196 2.657 1.5 3 16.937 4.45 33.701 2.247 51 2-5.832 7.134-14.976.927-23.5 7l-50.5-9c5.045 5.897 15.373 6.639 23 8 .588.105 2.45 2.927 3 3 .689.091.308-2.083 1-2 2.947.352 5.487.883 8.5 1-2.898 5.725-19.013 1.153-24 0-10.96-7.754-23.68-13.045-35-20-1.332-.818-1.494 1.9-4-.5-5.465-5.235-7.556-17.725-11-24 3.076.852 5.257 2.897 7 5.5"/><path fill="#44a2c0" d="M196 395c-13.475 18.75-22.335 41.345-30 63-1.462 4.13-4.877 10.253-6 14-1.693.318-4.657-.463-6 0 9.156-30.22 21.988-59.457 39-86 .64 2.995 1.837 6.183 3 9"/><path fill="#064863" d="M562 396c-26.96-1.79-53.25-1.471-80 2-11.463 1.487-18.755 2.12-30 6 1.795-2.078-.649-7.173.5-8 3.552-2.555 25.136-2.817 29.5-8 20.826-2.206 56.951-4.145 76.5 3 4.234 1.547 5.223.17 3.5 5"/><path fill="#136887" d="M482 388c-4.364 5.183-25.948 5.445-29.5 8-1.149.827 1.295 5.922-.5 8-17.838 6.154-33.738 17.843-46 32-6.228.21-12.78 2.45-19 0 15.632-29.378 64.494-44.768 95-48"/><path fill="#05aede" d="M254 415c-8.376-1.424-25.054-5.505-32.5-9-2.905-1.364-15.693-12.032-16.5-10.5l18 14c-1.404 3.199-20.218-11.2-21-15l2-1c-1.716-1.058-1.997-3.002-3-4.5l8.5 6c4.182-1.015-1.871-2.951-1.5-3.5.824-1.22 16.439 4.972 19.5 5.5 20.056 3.457 41.501-.936 60 4h-30c17.201 7.566 37.195-2.29 55 6-3.646 3.276-10.466-.697-11 2l-55-6c.51 4.503 20.508 4.388 20.5 5.5-9.073 1.133-18.807.461-27.5-2.5-3.628 1.553 11.14 6.762 12 7 4.39 1.214 11.289 1.343 16 2-2.174 3.416-9.898.613-13.5 0"/><path fill="#c7e7f0" d="M202 406c-7.048 19.062-16.887 37.536-23 57l-13-5c7.665-21.655 16.525-44.25 30-63 1.435 3.476 3.916 7.851 6 11"/><path fill="#116c8c" d="M562 396c6.325.42 11.398.054 18 1 8.989 6.952 18.149 12.748 27 20-2.888.849-7.275 17.53-7 18.5.343 1.208 13.974 14.328 17 18.5-9.877 7.355-20.778 13.606-33 16-25.583-29.683-67.6-41.927-105-30-4.82-1.213-10.043-.335-15-1-11.296-1.516-17.007-4.869-30-2-3.568-.461-9.757-1.956-13-2 12.115-12.395 27.454-22.524 43.5-29 4.861-1.962 16.758-2.547 17.5-8 26.75-3.471 53.04-3.79 80-2"/><path fill="#0d799c" d="M616 411c8.596 6.795 18.536 19.923 25 29-1.221-.545-9.693-1.883-11 0-7.19-9.167-14.02-15.642-23-23-8.851-7.252-18.011-13.048-27-20 15.226 2.181 23.809 4.364 36 14"/><path fill="#5399b0" d="M482 398c-.742 5.453-12.639 6.038-17.5 8-16.046 6.476-31.385 16.605-43.5 29-4.519-.061-10.237.839-15 1 12.262-14.157 28.162-25.846 46-32 11.245-3.88 18.537-4.513 30-6"/><path fill="#98a3a8" d="M414 400c-12.434 9.69-24.922 19.75-35 32-51.25 18.91-114.604 47.581-135 103-1.709-.365-4.427 1.243-5-1.5-.53-2.538 14.286-28.123 17-32 43.551-62.222 93.522-74.942 158-101.5"/><path fill="#075472" d="M622 409c8.587 7.098 17.229 16.141 24 25 20.18 26.405 33.883 62.561 35 96 2.158 64.608-35.95 122.81-92 152l-2-3c18.569-9.378 36.475-24.338 50-40 7.457-8.635 14.534-17.973 20-28 4.062-7.453 7.296-14.93 10-23 4.517-13.481 7.229-24.661 8-39 1.702-31.627-5.391-62.015-21-89.5-1.8-3.17-10.883-18.554-13-19.5-6.464-9.077-16.404-22.205-25-29l1-6c1.747 1.32 3.32 2.612 5 4"/><path fill="#f9fdfe" d="M216 422c-19.977 36.286-35.327 76.992-42 118-5.091 31.282-6.937 63.913-3 95.5-1.584 1.801-2.817-2.314-3-3-12.965-48.647-3.999-121.746 11-169.5 6.113-19.464 15.952-37.938 23-57 2.613 3.949 10.443 13.118 14 16"/><path fill="#0290b9" d="M244 428c-14.415-3.332-24.254-10.004-35-20 11.32 6.955 24.04 12.246 35 20"/><path fill="#75888d" d="M783 541c-14.18-42.484-66-79.301-105.5-97-9.193-4.119-21.802-9.875-31.5-10-6.771-8.859-15.413-17.902-24-25 56.81 10.192 138.035 63.609 160 118.5.857 2.141 5.525 13.268 1 13.5"/><path fill="#80a1a8" d="m762 413 50 18c-19.342-.842-37.529-12.985-56.5-16z"/><path fill="#035273" d="M630 440c14.652 18.683 25.988 40.571 31 64l-19 2c-5.168-21.069-12.474-34.73-25-52-3.026-4.172-16.657-17.292-17-18.5-.275-.97 4.112-17.651 7-18.5 8.98 7.358 15.81 13.833 23 23"/><path fill="#018db8" d="M283 427c-.084.06 2.149.258.5 2-4.997-1.82-10.355-.801-15.5-1-3.013-.117-5.553-.648-8.5-1-.692-.083-.311 2.091-1 2-.55-.073-2.412-2.895-3-3-7.627-1.361-17.955-2.103-23-8z"/><path fill="#004d6f" d="M779 427c-6.337 5.472 10.467 3.475 8.5 8-3.71-.165-24.075-7.728-18.5 0-11.113-1.686-27.83-.273-35.5-10l30.5 4.5-29.5-8.5c15.942-3.482 29.536 1.932 44.5 6"/><path fill="#c7e7f0" d="M253 488c1.318-1.287 5.057-3.939 6-5-11.35 24.953-25.034 49.846-26 78-.068 1.977-.04 4.021 0 6l-2 3c-.18-2.856-2.971-5.188-3-5.5-.044-.464 5.564-4.498 1.5-7.5L174 540c6.673-41.008 22.023-81.714 42-118 15.77 12.777 34.563 14.884 54 17.5-12.342 17.619-21.357 42.03-22 63 .762-5.151 3.601-9.62 5-14.5"/><path fill="#0288b6" d="M824 435c-.933 4.376 8.363 1.549 12 1-.785 1.762 1.02 3.319 1 3.5-.075.674-1.872 1.361-2 1.5-19.087 1.114-40.469 8.104-59 4 5.312.912 12.986-.936 18.5-1-4.023-.945-9.433-1.738-13.5-2l27-1.5c-10.969-1.804-21.999-4.002-33-5.5-1.907-.26-4.108.287-6 0-5.575-7.728 14.79-.165 18.5 0 1.967-4.525-14.837-2.528-8.5-8 17.131 4.657 25.881 11.316 45 8"/><path fill="#00486a" d="M775 435c11.001 1.498 22.031 3.696 33 5.5l-27 1.5c-3.871-.249-7.672-.067-11.5-1-1.517 2.045 5.975 3.91 6.5 4 18.531 4.104 39.913-2.886 59-4-6.255 6.781-27.831 3.812-35 9.5l1.5 1.5c-3.204 1.455-10.26.376-11 3l35-7c-1.281 2.845-5.813 4.566-8.5 6-.824.44-6.289 1.221-6 2.5l10.5-.5c-13.606 9.745-35.862 13.499-53 11 2.543-3.221 13.714 1.843 14-3-14.042-.564-29.591-2.56-39.5-13.5.629-1.362 26.12 7.273 29.5 3.5l-9-3h12c-19.209-4.077-41.595-6.034-54.5-22.5l34.5 10.5-1-2 21 3z"/><path fill="#014d71" d="M302 431c-18.888 17.119-27.738 34.827-43 52-.943 1.061-4.682 3.713-6 5 1.244-4.34 1.113-10.405 3-15.5 9.401-25.388 24.28-28.648 46-41.5"/><path fill="#d0dde5" d="M379 432c-2.809 3.414-4.568 6.472-7 10-59.063 85.679-25.978 197.414 66 242 11.735 5.689 21.032 9.976 34 13l-11.5 25c-3.563-3.243-14.521-2.188-20-3-22.432-3.323-54.121-12.535-77-21-2.878-1.065-6.832-5.19-9.5-3-54.532-23.051-117.519-64.643-117-131 2.309-11.574 2.785-17.546 7-29 20.396-55.419 83.75-84.09 135-103m-74.5 59c-3.799.269-52.943 33.861-54.5 37.5-2.603 6.082-.431 21.625 6.5 24.5 21.3 8.834 49.861-24.484 52.5-43.5.468-3.374 1.449-18.921-4.5-18.5"/><path fill="#0f6785" d="M869 472h-7c-3.458-11.545-7.107-22.981-12-34 .717-1.541 2.96-5.741 3-7 6.824 12.878 11.613 27.15 16 41"/><path fill="#819ea7" d="M783 541c5.06 15.159 5.276 18.179 3 34-10.917 75.885-96.496 118.096-163 136l-.5-11c41.022-9.689 117.951-42.593 132.5-85.5 15.193-44.806-27.648-64.696-61-79.5-.129-.057-1.87-1.944-2-2 1.837-.445 1.025-6.997.5-7-1.053 2.067-.279 4.749-.5 7-2.758-1.194-7.881-1.986-11-3-1.117-33.439-14.82-69.595-35-96 9.698.125 22.307 5.881 31.5 10 39.5 17.699 91.32 54.516 105.5 97"/><path fill="#44a3c0" d="M434 437c-.218.048-3.034 1.658-4 2-4.885-1.909-10.209-.181-15 0-4.51.17-7.674-2.428-13 0h-16.5c-.669-.898.913-1.897 1.5-3 6.22 2.45 12.772.21 19 0 4.763-.161 10.481-1.061 15-1 3.243.044 9.432 1.539 13 2"/><path fill="url(#d)" d="M584 470c37.744 43.794 28.439 115.937-22.5 145-71.865 41.002-160.945-14.85-147.5-98 43.267 31.109 98.552-37.572 57-73 1.589-2.92 5.264-3.128 8-4 37.4-11.927 79.417.317 105 30m-27.5 111c-10.836 2.146-12.626 19.795-2 24 22.669 8.972 24.987-28.553 2-24" style="fill:url(#d)"/>/&gt;<path fill="#fefefe" d="M464 439c1.445 2.533 4.747 3.079 7 5 41.552 35.428-13.733 104.109-57 73-23.114-16.619-17.734-52.939 2-70 3.266-2.824 9.865-6.534 14-8 .966-.342 3.782-1.952 4-2 12.993-2.869 18.704.484 30 2"/><path fill="#017fac" d="M840 436c4.183 2.943-3.765 4.2 4 3.5.451 1.507-22.946 17.118-27 14.5 2.687-1.434 7.219-3.155 8.5-6l-35 7c.74-2.624 7.796-1.545 11-3l-1.5-1.5c7.169-5.688 28.745-2.719 35-9.5.128-.139 1.925-.826 2-1.5.02-.181-1.785-1.738-1-3.5 1.266-.191 2.772.268 4 0"/><path fill="#4e91a7" d="M415 439c-.152 2.082-2.607 4.523-4 6-.102.108-1.926.916-2 1-3.511-.564-7.503-1.651-11-2 .721-.706 3.709-4.867 4-5 5.326-2.428 8.49.17 13 0"/><path fill="#0b6384" d="M430 439c-4.135 1.466-10.734 5.176-14 8l-5-2c1.393-1.477 3.848-3.918 4-6 4.791-.181 10.115-1.909 15 0"/><path fill="#4e849a" d="M862 472c19.1 63.768 23.475 134.029-4 196-11.927 26.901-27.951 51.716-47 74-29.73 34.78-65.903 64.225-105.5 87l-5.5-12c32.287-21.967 63.239-50.79 84-84 4.668 1.172 8.918 1.39 13.5 0 5.087-1.544 19.034-13.044 5.5-9 16.495-14.204 19.421-45.019-5-51.5l4.5-1.5c-1.492.188-8.529-3.052-9-3-2.413.268-2.314 2.942-2.5 3-15.403 4.782-20.646 12.451-25 28-.148-.137-.686.087-1 0h-1c2.185-5.308 3.161-11.353 6-16.5L757.5 659c-1.556 2.642-4.31 3.5-6.5 5 17.555-17.917 37.835-42.271 41-68 16.111-10.301 33.353-24.133 46-38.5 25.188-28.614 27.458-37.572 20-75-2.592-13.011-7.549-25.721-11-38.5.198-.27 2.596-5.133 3-6 4.893 11.019 8.542 22.455 12 34"/><path fill="#2fa8c9" d="M479 440c-2.736.872-6.411 1.08-8 4-2.253-1.921-5.555-2.467-7-5 4.957.665 10.18-.213 15 1"/><path fill="#14a3c9" d="M641 440c2.117.946 11.2 16.33 13 19.5 15.609 27.485 22.702 57.873 21 89.5l-4-1.5c1.133 13.421-8.1 28.268-4 40.5-2.704 8.07-5.938 15.547-10 23-3.499 1.79-4.255-1.783-8-2 1.101-2.565 5.005-5.749-1-4 1.057-1.893 2.023-5.891 3-8 11.285-24.369 14.514-40.865 13-68-.488-8.74-1.166-16.428-3-25-5.012-23.429-16.348-45.317-31-64 1.307-1.883 9.779-.545 11 0"/><path fill="#003a5c" d="M781 442c4.067.262 9.477 1.055 13.5 2-5.514.064-13.188 1.912-18.5 1-.525-.09-8.017-1.955-6.5-4 3.828.933 7.629.751 11.5 1"/><path fill="#075472" d="M379 446c-13.09 12.631-27.552 59.833-29 78-5.395 67.711 29.137 127.865 90 157l-2 3c-91.978-44.586-125.063-156.321-66-242Z"/><path fill="#1b90b1" d="M398 444c-14.447 14.134-25.543 39.702-30 59-1.994 8.632-3.878 17.069-4 26-1.866-8.535-6.491-3.984-14-5 1.448-18.167 15.91-65.369 29-78 4.328-4.177 12.324-2.666 19-2"/><path fill="#a0d5e1" d="M409 446c-7.981 9.111-16.96 23.934-22 35-9.862 5.919-3.723 29.503-19 22 4.457-19.298 15.553-44.866 30-59 3.497.349 7.489 1.436 11 2"/><path fill="#3d758c" d="M792 596c.771-6.272 2.469-14.89-3-20 .16-1.745.915-2.309 1-4 .417-8.309-.534-23.305-2-31.5-1.79-10.007-8.687-20.751-9-30.5.455 1.005 1.011 1.996 1.5 3l-8.5-41c23.511 1.308 60.401-8.111 75-28 3.451 12.779 8.408 25.489 11 38.5 7.458 37.428 5.188 46.386-20 75-12.647 14.367-29.889 28.199-46 38.5"/><path fill="url(#e)" d="M416 447c-19.734 17.061-25.114 53.381-2 70-13.445 83.15 75.635 139.002 147.5 98 50.939-29.063 60.244-101.206 22.5-145 12.222-2.394 23.123-8.645 33-16 12.526 17.27 19.832 30.931 25 52 2.208 9.003 4.655 19.776 5 29 .841 22.469-5.727 51.481-17 71-2.503 4.334-5.36 6.584-8 10-.434-6.481-4.777-17.046-13-11-2.067-.934-8.553-1.555-10.5 0-6.608 8.292 5.729 19.701 13.5 14l5 3c-41.756 45.832-106.502 58.687-164 36 1.332-5.28-11.978-9.023-16.5-12-41.96-27.623-42.761-45.346-60.5-87-5.565-26.64-.031-53.782 11-78 5.04-11.066 14.019-25.889 22-35 .074-.084 1.898-.892 2-1zm163.5 177c-3.344 1.616-.907 9.43 4 8 5.23-1.524 1.489-10.652-4-8" style="fill:url(#e)"/>/&gt;<path fill="#abcfdc" d="M179 463c-14.999 47.754-23.965 120.853-11 169.5.183.686 1.416 4.801 3 3-3.937-31.587-2.091-64.218 3-95.5l55.5 17c4.064 3.002-1.544 7.036-1.5 7.5.029.312 2.82 2.644 3 5.5 1.833 29.041-.967 39.395 15 65.5 46.996 76.839 172.985 112.493 258 113.5 20.312.241 38.986-1.428 59-4 1.468 14.013-7.179 25.506-15 36-33.195-32.691-91.504-7.431-88 41-4.133-.763-1.086-8.157-2-10.5-2.426-6.219-33.801 1.198-40.5 1.5-23.262 1.048-56.612-3.393-78 2-2.692.679-3.72 3.959-4 4-3.131.457-36.5-42.608-40.5-48.5-13.83-20.376-24.522-42.517-35.5-64.5l-31.5 8.5 65 75c.454 3.937-18.328 10.468-13 16.5-54.125-39.09-92.225-84.605-119-146-.969-2.223-1.089-6.119-4-4-14.549-60.593-14.97-124.048 3-184 1.123-3.747 4.538-9.87 6-14z"/><path fill="#015074" d="m772 472 8.5 41c-.489-1.004-1.045-1.995-1.5-3-2.345-5.182-4.311-8.186-7-13-5.253-9.405-9.394-19.552-17-27.5 4.993-1.55 11.743 2.208 17 2.5"/><path fill="#234451" d="M160 472c-17.97 59.952-17.549 123.407-3 184 4.031 16.79 8.504 30.075 15 46 1.7 4.168 3.22 7.103 5 11 18.827 41.216 44.294 80.473 77 112 3.851 12.048 44.478 34.833 47.5 41 .717 1.462-2.328 2.164-1.5 4-27.544-18.708-52.161-39.934-73-66-10.666-13.341-21.839-29.052-31-43.5-6.169-9.729-21.735-43.913-29-47.5-13.96-35.441-23.572-71.83-27-110-.333-3.712-.786-7.24-1-11-1.674-29.393.796-87.043 12-114 .352-.847 1.778-4.847 2-5 .058-.04-.379-.524 1-1 1.343-.463 4.307.318 6 0"/><path fill="url(#f)" d="M869 472c.021.067.572-.389 1 1 .177.574.539 4.351 1 6 11.574 41.38 14.87 73.698 12 117-.293 4.425-.548 8.589-1 13-1.987 19.402-5.898 40.174-11 59-.018.068-.611-.389-1 1-4.332 15.477-8.459 27.326-15 42-1.004 2.252-2.883 4.657-4 7-5.142 2.323-13.175 23.197-17 29.5-7.752 12.774-15.975 25.076-25 37-.202.267-4.464 5.286-1 4.5-120.162 158.166-343.52 192.713-508 81-.828-1.836 2.217-2.538 1.5-4-3.022-6.167-43.649-28.952-47.5-41 52.114 50.236 119.494 84.542 191 97 66.318 11.554 134.331 6.55 197-18.5-15.286 2.177-29.531 8.996-44.5 12.5-32.457 7.598-76.792 12.278-110 10-8.642-.593-17.294-2.769-26-3-3.777-1.898 9.469-33.898 9.5-40 82.307 8.261 159.773-7.263 232-47 55.19-26.103 101.79-70.576 135-121.5l-4 1.5c9.072-14.387 19.525-31.968 24-48 27.475-61.971 23.1-132.232 4-196z" style="fill:url(#f)"/>/&gt;<path fill="#092131" d="M153 473c-.222.153-1.648 4.153-2 5-1.817-.16-3.918.073-5.5 1-10.633 6.233-19.298 57.875-20.5 71-3.601 39.32.599 82.037 11 120 1.68 6.131 9.853 33.072 13 36.5 4.86 5.294 12.964 4.013 18 6.5 7.265 3.587 22.831 37.771 29 47.5 9.161 14.448 20.334 30.159 31 43.5a282 282 0 0 1-30-38.5c-5.169-7.99-21.907-42.947-25-46-3.891-3.842-17.181-4.085-22.5-7.5-7.446-4.78-8.213-20.616-13-24-2.333-1.649-14.962-4.011-19-6-20.945-10.317-25.949-11.163-31.5-34.5-6.078-25.551-10.511-99.636 2-122 5.751-10.28 33.581-20.638 41.5-27.5 7.858-6.809 6.441-25.355 23.5-25m-63 61c-.355.646-.72 1.305-1 2-8.083 20.001-6.052 68.207-3 90 .901 6.436 5.445 32.052 8 36.5 3.251 5.66 38.429 23.747 41.5 21.5-3.166-15.206-6.795-30.148-9.5-45.5-1.393-7.903-2.08-12.994-3-22.5-.715-7.39-1.821-14.518-2-22-.735-30.771 1.694-61.735 10-91.5-1.216-2.6-44.455 22.625-41 31.5m761 184c1.117-2.343 2.996-4.748 4-7-.453 5.541 14.774-2.039 16-3 6.923-5.422 16.671-43.076 19-54 7.105-33.32 9.781-67.972 7-102-1.196-14.641-8.929-64.032-19.5-73-.472-.4-6.132-3.035-6.5 0-.461-1.649-.823-5.426-1-6 16.527-.412 14.88 18.396 22.5 25 8.054 6.981 35.391 16.705 41.5 27.5 11.541 20.392 8.503 89.348 4 113-5.811 30.52-8.17 31.372-35.5 44.5-3.492 1.677-15.487 3.944-17 5-3.668 2.559-6.289 18.954-11 23-5.011 4.303-18.508 4.745-23.5 7m50-125c-.168 7.717-1.252 16.271-2 24-2.157 22.279-5.644 44.306-13 65.5 1.425 5.752 33.88-12.274 38-16.5 7.466-7.658 10.424-28.707 12-40 3.415-24.467 5.289-73.747-5-96-2.864-6.194-6.019-7.734-11.5-12-2.755-2.144-26.993-18.018-28.5-15.5 7.98 28.995 10.657 60.306 10 90.5"/><path fill="#97d8e7" d="M897 552c-1.598 14.594-1.013 29.35-2 44h-12c2.87-43.302-.426-75.62-12-117 .368-3.035 6.028-.4 6.5 0 10.571 8.968 18.304 58.359 19.5 73"/><path fill="#9fdae7" d="M151 478c-11.204 26.957-13.674 84.607-12 114l-12 4c-.76-13.724.398-27.727 0-41.5-.053-1.826 1.001-4.937-2-4.5 1.202-13.125 9.867-64.767 20.5-71 1.582-.927 3.683-1.16 5.5-1"/><path fill="#d0f5fb" d="M387 481c-11.031 24.218-16.565 51.36-11 78-.059-.139-1.488.429-2-.5-.467-.847.678-3.374-.5-4.5-.28-.268-4.695 3.75-7.5 2-1.588-8.458-.534-20.291-2-27 .122-8.931 2.006-17.368 4-26 15.277 7.503 9.138-16.081 19-22"/><path fill="#fefefe" d="M304.5 491c5.949-.421 4.968 15.126 4.5 18.5-2.639 19.016-31.2 52.334-52.5 43.5-6.931-2.875-9.103-18.418-6.5-24.5 1.557-3.639 50.701-37.231 54.5-37.5"/><path fill="#85a2b0" d="M121 594c-2.33-1.857-2.373-.416-4 0l4-66.5c-1.832-3.388-27.929 18.85-22 6.5 3.125-1.787 21.67-12 22.5-13 2.415-2.91 1.745-6.662 1-10-1.584-1.22-30.232 18.874-32.5 23-3.455-8.875 39.784-34.1 41-31.5-8.306 29.765-10.735 60.729-10 91.5"/><path fill="#7897a4" d="m931 530-32.5-20c-.835.462.725 9.461 2 11 2.313 2.792 28.319 14.041 31 18 1.732 2.557-.559 3.807-.5 4l-30-15.5 4 65.5c-.957-.318-2.795.205-4 0 .657-30.194-2.02-61.505-10-90.5 1.507-2.518 25.745 13.356 28.5 15.5 5.481 4.266 8.636 5.806 11.5 12"/><path fill="#116c8c" d="M661 504c1.834 8.572 2.512 16.26 3 25-.551 12.47-8.111 4.189-17 6-.345-9.224-2.792-19.997-5-29z"/><path fill="#f4f8f9" d="M931 530c10.289 22.253 8.415 71.533 5 96-3.177-3.485-1.269-14.788-1-20 1.062-20.59 2.114-42.955-4-63-.059-.193 2.232-1.443.5-4-2.681-3.959-28.687-15.208-31-18-1.275-1.539-2.835-10.538-2-11z"/><path fill="#fbfcfd" d="M99 534c-3.73 2.132-8.695 7.485-10 2 .28-.695.645-1.354 1-2 2.268-4.126 30.916-24.22 32.5-23 .745 3.338 1.415 7.09-1 10-.83 1-19.375 11.213-22.5 13"/><path fill="#1aadd2" d="M364 529c1.466 6.709.412 18.542 2 27 8.642 46.042 43.81 84.958 87 102 57.498 22.687 122.244 9.832 164-36 2.063-2.264 3.145-3.6 5-6 2.64-3.416 5.497-5.666 8-10 9.848 10.676 10.144-15.215 21-9-.977 2.109-1.943 6.107-3 8-9.441 16.911-22.39 25.061-37 37-2.422 1.979-5.275 5.603-7.5 7-1.596 1.002-1.093-2.493-3-2-1.061.274-12.06 15.135-12.5 18-1.398 1.114-7.474 5.149-6 7.5l5.5-2.5c7.617 1.383-10.851 11.01-9.5 13-.44.188-1.548-.186-2 0v-4.5l-2.5-1.5c-8.115 3.771-19.369 8.162-28 10-6.609 1.407-36.438 2.9-38 4-1.219.859.206 3.819-1 5l-2-5-1.5 6c-15.048-.54-34.482-3.918-48.5-9-1.628-.59 1.019-2.611 0-3-4.436-1.693-9.45-1.582-14.5-4-60.863-29.135-95.395-89.289-90-157 7.509 1.016 12.134-3.535 14 5"/><path fill="#6a8d95" d="M692 533c.221-2.251-.553-4.933.5-7 .525.003 1.337 6.555-.5 7"/><path fill="#d0dce3" d="M117 594c-3.482.89-29.29 10.059-30 11.5-1.241 2.518 1.184 15.946 2 19.5-1.1.307-1.583 1.41-3 1-3.052-21.793-5.083-69.999 3-90 1.305 5.485 6.27.132 10-2-5.929 12.35 20.168-9.888 22-6.5z"/><path fill="#c8d6dd" d="M931 543c6.114 20.045 5.062 42.41 4 63-10.044-3.63-19.929-9.654-30-13l-4-65.5z"/><path fill="#0882a9" d="M651 597c-10.856-6.215-11.152 19.676-21 9 11.273-19.519 17.841-48.531 17-71 8.889-1.811 16.449 6.47 17-6 1.514 27.135-1.715 43.631-13 68"/><path fill="#6a8d95" d="M692 533c.13.056 1.871 1.943 2 2 .632 94.625-72.974 177.423-170 175v-9c25.644-1.872 42.401-7.231 65-19 56.05-29.19 94.158-87.392 92-152 3.119 1.014 8.242 1.806 11 3"/><path fill="#aaccd9" d="M623 711c-89.529 24.103-183.597 20.101-269-16 2.668-2.19 6.622 1.935 9.5 3 22.879 8.465 54.568 17.677 77 21 5.479.812 16.437-.243 20 3l11.5-25c8.225 1.918 16.557 3.3 25 4l-1.5 6c9.459 2.639 18.773 2.757 28.5 3 97.026 2.423 170.632-80.375 170-175 33.352 14.804 76.193 34.694 61 79.5-14.549 42.907-91.478 75.811-132.5 85.5z"/><path fill="#32cff0" d="M675 549c-.771 14.339-3.483 25.519-8 39-4.1-12.232 5.133-27.079 4-40.5z"/><path fill="#e6ecee" d="M127 596c.237 4.276.632 8.723 1 13 .98 11.393 2.949 24.209 5 35.5 1.249 6.878 8.465 21.379 3 25.5-10.401-37.963-14.601-80.68-11-120 3.001-.437 1.947 2.674 2 4.5.398 13.773-.76 27.776 0 41.5"/><path fill="#d3dee0" d="m890 654-3-2c3.413-14.267 4.571-28.805 6-44 .367-3.904 1.706-7.635 2-12 .987-14.65.402-29.406 2-44 2.781 34.028.105 68.68-7 102"/><path fill="#8eddef" d="M376 559c17.739 41.654 18.54 59.377 60.5 87 4.522 2.977 17.832 6.72 16.5 12-43.19-17.042-78.358-55.958-87-102 2.805 1.75 7.22-2.268 7.5-2 1.178 1.126.033 3.653.5 4.5.512.929 1.941.361 2 .5"/><path fill="#1a566b" d="M237 564c-.519 66.357 62.468 107.949 117 131 85.403 36.101 179.471 40.103 269 16 66.504-17.904 152.083-60.115 163-136l4-3c-.085 1.691-.84 2.255-1 4-11.026 119.97-184.806 164.076-284 163-96.783-1.05-269.55-51.764-272-172-.04-1.979-.068-4.023 0-6l2.5 10c.183-2.374 1.053-4.758 1.5-7"/><path fill="#e4f7fa" d="m505 739-1 10c-85.015-1.007-211.004-36.661-258-113.5-15.967-26.105-13.167-36.459-15-65.5l2-3c2.45 120.236 175.217 170.95 272 172"/><path fill="#bfedf7" d="M792 596c-3.165 25.729-23.445 50.083-41 68-67.039 45.92-103.793 70.177-188 81-20.014 2.572-38.688 4.241-59 4l1-10c99.194 1.076 272.974-43.03 284-163 5.469 5.11 3.771 13.728 3 20"/><path fill="#fdfefe" d="M556.5 581c22.987-4.553 20.669 32.972-2 24-10.626-4.205-8.836-21.854 2-24"/><path fill="#90bdc8" d="m140 603-12 6c-.368-4.277-.763-8.724-1-13l12-4c.214 3.76.667 7.288 1 11"/><path fill="#70b5cf" d="M121 594c.179 7.482 1.285 14.61 2 22-10.856 4.574-22.751 5.864-34 9-.816-3.554-3.241-16.982-2-19.5.71-1.441 26.518-10.61 30-11.5 1.627-.416 1.67-1.857 4 0"/><path fill="#67a2ba" d="M905 593c10.071 3.346 19.956 9.37 30 13-.269 5.212-2.177 16.515 1 20-1.576 11.293-4.534 32.342-12 40l9-40.5-34-8.5c.748-7.729 1.832-16.283 2-24 1.205.205 3.043-.318 4 0"/><path fill="#81b1bc" d="M895 596c-.294 4.365-1.633 8.096-2 12l-11 1c.452-4.411.707-8.575 1-13z"/><path fill="#567d89" d="M167 713c-5.036-2.487-13.14-1.206-18-6.5-3.147-3.428-11.32-30.369-13-36.5 5.465-4.121-1.751-18.622-3-25.5-2.051-11.291-4.02-24.107-5-35.5l12-6c3.428 38.17 13.04 74.559 27 110"/><path fill="#5cc5de" d="M622 616c-1.855 2.4-2.937 3.736-5 6l-5-3c4.22-3.095 1.603-11.92-3-14 8.223-6.046 12.566 4.519 13 11"/><path fill="#f9fefe" d="M609 605c4.603 2.08 7.22 10.905 3 14-7.771 5.701-20.108-5.708-13.5-14 1.947-1.555 8.433-.934 10.5 0"/><path fill="#97edfa" d="M649 609c-3.94 9.182-21.758 24.691-12 30-13.525 15.662-31.431 30.622-50 40-2.753 1.39-6.132 2.777-9 4-1.351-1.99 17.117-11.617 9.5-13l-5.5 2.5c-1.474-2.351 4.602-6.386 6-7.5 8.573-6.831 20.798-10.487 23-23 14.61-11.939 27.559-20.089 37-37 6.005-1.749 2.101 1.435 1 4"/><path fill="#58818d" d="M893 608c-1.429 15.195-2.587 29.733-6 44-1.511 6.317-2.742 12.731-4.5 19l-11.5-3c5.102-18.826 9.013-39.598 11-59z"/><path fill="#3bdcf9" d="M657 611c-5.466 10.027-12.543 19.365-20 28-9.758-5.309 8.06-20.818 12-30 3.745.217 4.501 3.79 8 2"/><path fill="#486171" d="M86 626c1.417.41 1.9-.693 3-1 11.249-3.136 23.144-4.426 34-9 .92 9.506 1.607 14.597 3 22.5 2.705 15.352 6.334 30.294 9.5 45.5-3.071 2.247-38.249-15.84-41.5-21.5-2.555-4.448-7.099-30.064-8-36.5"/><path fill="#405968" d="M924 666c-4.12 4.226-36.575 22.252-38 16.5 7.356-21.194 10.843-43.221 13-65.5l34 8.5z"/><path fill="#f8fdfe" d="M579.5 624c5.489-2.652 9.23 6.476 4 8-4.907 1.43-7.344-6.384-4-8"/><path fill="#32c3e4" d="M588 665c.44-2.865 11.439-17.726 12.5-18 1.907-.493 1.404 3.002 3 2 2.225-1.397 5.078-5.021 7.5-7-2.202 12.513-14.427 16.169-23 23"/><path fill="#74909b" d="M890 654c-2.329 10.924-12.077 48.578-19 54 .787-4.448 11.508-31.635 11-33.5-.463-1.7-9.908-4.197-12-5.5.389-1.389.982-.932 1-1l11.5 3c1.758-6.269 2.989-12.683 4.5-19z"/><path fill="#bae1ed" d="M161 660c-1.661 1.336.417 6.93 1 8.5 18.068 48.625 66.194 103.152 107 134.5l-1.5 7c-13.883-11.404-30.38-24.039-43-37-12.75-13.094-18.768-23.777-28.5-39-5.752-8.997-12.51-23.754-19-31.5-1.922-2.294-2.824-3.789-5-.5-6.496-15.925-10.969-29.21-15-46 2.911-2.119 3.031 1.777 4 4"/><path fill="#7ab1c4" d="M764 699c-26.017 63.196-73.57 115.899-130 153.5 22.807-9.666 45.498-21.551 66-35.5l5.5 12c39.597-22.775 75.77-52.22 105.5-87-131.138 159.608-364.012 184.601-531 64-5.328-6.032 13.454-12.563 13-16.5l-65-75 31.5-8.5c10.978 21.983 21.67 44.124 35.5 64.5 4 5.892 37.369 48.957 40.5 48.5.28-.041 1.308-3.321 4-4 21.388-5.393 54.738-.952 78-2 6.699-.302 38.074-7.719 40.5-1.5.914 2.343-2.133 9.737 2 10.5.404 5.581 3.348 16.161 6 21-1.735 7.287 7.964 17.404 13 22 14.569 13.296 30.097 17.339 49 12 19.449-5.494 37.553-22.693 40-43.5.795-6.761 1.955-17.638-5-18.5-.481-11.585-6.69-25.816-15-34 7.821-10.494 16.468-21.987 15-36 84.207-10.823 120.961-35.08 188-81 2.19-1.5 4.944-2.358 6.5-5l12.5 23.5c-2.839 5.147-3.815 11.192-6 16.5"/><path fill="#1d3a46" d="M280 806c166.988 120.601 399.862 95.608 531-64 19.049-22.284 35.073-47.099 47-74-4.475 16.032-14.928 33.613-24 48-31.633 50.164-79.242 91.525-131 120-72.227 39.737-149.693 55.261-232 47-72.5-7.277-144.369-35.727-202-80-40.806-31.348-88.932-85.875-107-134.5-.583-1.57-2.661-7.164-1-8.5 26.775 61.395 64.875 106.91 119 146"/><path fill="#0d2e42" d="M803 724c-4.065 1.215-5.851 3.192-11 4-10.369 1.628-17.16-3.347-23-11.5-.193-.27 1.092-1.886 0-4-.674-1.305-1.475 3.371-3 0-1.422-3.143-.794-9.948-1-13.5.314.087.852-.137 1 0 .137.126-.389 3.337 2 1.5l7-18 16-11.5c.186-.058.087-2.732 2.5-3 .471-.052 7.508 3.188 9 3l-4.5 1.5c24.421 6.481 21.495 37.296 5 51.5m-24-39c-7.357-.909-6.666 8.744-7 13-.061.131-1.648-.402-2 .5-.289.742-.201 10.024 0 11.5.518 3.813 6.271 13.439 9.5 15 20.436 9.878 37.89-15.299 34.5-34.5-1.169-6.624-9.58-15.721-16.5-16.5-5.314-.599-15.554 2.808-18.5 7.5-.093.148 1.681.376 0 3.5"/><path fill="#395f6f" d="M871 708c-1.226.961-16.453 8.541-16 3 6.541-14.674 10.668-26.523 15-42 2.092 1.303 11.537 3.8 12 5.5.508 1.865-10.213 29.052-11 33.5"/><path fill="#becdce" d="m791 671-16 11.5-7 18c-2.389 1.837-1.863-1.374-2-1.5 4.354-15.549 9.597-23.218 25-28"/><path fill="#02547a" d="M770 710c3.91-.368 1.734-8.607 2-12 .106-.226 1.767-1.264 3-4 3.262 2.831.155 10.284 1 14.5 5.449 27.187 46.542-2.392 28-21.5.646-1.53 2.114-.883 2-1.5-.721-3.903-12.969-6.394-16.5-5.5-1.739.44-7.034 8.184-10.5 6 .14-.257-.139-.742 0-1 1.681-3.124-.093-3.352 0-3.5 2.946-4.692 13.186-8.099 18.5-7.5 6.92.779 15.331 9.876 16.5 16.5 3.39 19.201-14.064 44.378-34.5 34.5-3.229-1.561-8.982-11.187-9.5-15"/><path fill="#1ccdf1" d="M576 683c-25.1 10.329-45.469 14.988-73 14l1.5-6 2 5c1.206-1.181-.219-4.141 1-5 1.562-1.1 31.391-2.593 38-4 8.631-1.838 19.885-6.229 28-10l2.5 1.5z"/><path fill="#057299" d="m587 679 2 3c-22.599 11.769-39.356 17.128-65 19-9.497.693-17.516.786-27 0-8.443-.7-16.775-2.082-25-4-12.968-3.024-22.265-7.311-34-13l2-3c5.05 2.418 10.064 2.307 14.5 4 1.019.389-1.628 2.41 0 3 14.018 5.082 33.452 8.46 48.5 9 27.531.988 47.9-3.671 73-14 .452-.186 1.56.188 2 0 2.868-1.223 6.247-2.61 9-4"/><path fill="#002c4a" d="M804 687c-5.955 1.467-10.841-4.027-17.5-2-5.488 1.67-10.699 18.036-8.5 22.5.833 1.69 2.411-.591 2.5-.5 8.251 8.463 15.268 3.143 19.5-6.5 1.739-3.962 1.813-8.318 4-13.5 18.542 19.108-22.551 48.687-28 21.5-.845-4.216 2.262-11.669-1-14.5a121 121 0 0 1 4-8c3.466 2.184 8.761-5.56 10.5-6 3.531-.894 15.779 1.597 16.5 5.5.114.617-1.354-.03-2 1.5"/><path fill="#137fa7" d="M779 685c-.139.258.14.743 0 1a121 121 0 0 0-4 8c-1.233 2.736-2.894 3.774-3 4 .334-4.256-.357-13.909 7-13"/><path fill="#02547a" d="M804 687c-2.187 5.182-2.261 9.538-4 13.5-4.232 9.643-11.249 14.963-19.5 6.5-.089-.091-1.667 2.19-2.5.5-2.199-4.464 3.012-20.83 8.5-22.5 6.659-2.027 11.545 3.467 17.5 2"/><path fill="#06709d" d="M772 698c-.266 3.393 1.91 11.632-2 12-.201-1.476-.289-10.758 0-11.5.352-.902 1.939-.369 2-.5"/><path fill="#497b8f" d="M765 699c.206 3.552-.422 10.357 1 13.5 1.525 3.371 2.326-1.305 3 0 1.092 2.114-.193 3.73 0 4 5.84 8.153 12.631 13.128 23 11.5-3.066 5.117-11.79.336-15.5-1-1.154 3.527 5.099 5.398 7.5 6-20.761 33.21-51.713 62.033-84 84-20.502 13.949-43.193 25.834-66 35.5 56.43-37.601 103.983-90.304 130-153.5z"/><path fill="#78b2c8" d="m196 734-3 3c-4.708-7.742-11.617-15.69-16-24-1.78-3.897-3.3-6.832-5-11 2.176-3.289 3.078-1.794 5 .5 6.49 7.746 13.248 22.503 19 31.5"/><path fill="#90b1b9" d="M524 701v9c-9.727-.243-19.041-.361-28.5-3l1.5-6c9.484.786 17.503.693 27 0"/><path fill="#abd7e3" d="M193 737c50.018 82.255 110.072 142.016 204.5 172 15.508 4.924 33.031 6.395 47.5 13-71.506-12.458-138.886-46.764-191-97-32.706-31.527-58.173-70.784-77-112 4.383 8.31 11.292 16.258 16 24"/><path fill="#68a1b5" d="M703 836c51.758-28.475 99.367-69.836 131-120l4-1.5c-33.21 50.924-79.81 95.397-135 121.5"/><path fill="#092131" d="M851 718c-12.757 26.75-25.072 47.402-43 71-3.464.786.798-4.233 1-4.5 9.025-11.924 17.248-24.226 25-37 3.825-6.303 11.858-27.177 17-29.5"/><path fill="#467485" d="M784 733c-2.401-.602-8.654-2.473-7.5-6 3.71 1.336 12.434 6.117 15.5 1 5.149-.808 6.935-2.785 11-4 13.534-4.044-.413 7.456-5.5 9-4.582 1.39-8.832 1.172-13.5 0"/><path fill="url(#g)" d="M196 734c9.732 15.223 15.75 25.906 28.5 39 12.62 12.961 29.117 25.596 43 37l1.5-7c57.631 44.273 129.5 72.723 202 80-.031 6.102-13.277 38.102-9.5 40 8.706.231 17.358 2.407 26 3 33.208 2.278 77.543-2.402 110-10 14.969-3.504 29.214-10.323 44.5-12.5-62.669 25.05-130.682 30.054-197 18.5-14.469-6.605-31.992-8.076-47.5-13-94.428-29.984-154.482-89.745-204.5-172Z" style="fill:url(#g)"/>/&gt;<path fill="#082434" d="M548 781c8.31 8.184 14.519 22.415 15 34 .949 22.84-14.337 46.205-37 52-19.133 4.892-24.35-.623-41-5-6.149-5.259-15.062-11.814-19-19-2.652-4.839-5.596-15.419-6-21-3.504-48.431 54.805-73.691 88-41m-84 39c.388 8.327 5.724 20.535 11 27 18.864 23.115 53.174 22.591 72 0 6.505-7.805 10.101-13.568 11-24 5.862-68.011-97.02-67.81-94-3"/><path fill="#93d4e4" d="M558 823c-3.84-2.363-4.662-2.777-9-2 3.203-53.509-79.267-53.045-75-1h-10c-3.02-64.81 99.862-65.011 94 3"/><path fill="#228fb2" d="M549 821c-.118 1.976-1.312 7.491-2 9.5-1.851 5.407-11.739 12.731-6 15.5-15.011.309-21.505 11.507-41 6v-2c9.495 3.06 24.039 1.874 31-6 1.327-.127 3.812.069 4 0 1.481-.545 8.554-9.23 9-10.5.442-1.259-1.202-1.672-1-2.5 7.75-14.408 3.175-32.133-10.5-42-29.451-21.25-68.311 9.25-54.5 42-2.574-5.13-3.291-2.356-4-11-4.267-52.045 78.203-52.509 75 1"/><path fill="#75edfa" d="M543 831c18.023-73.997-101.565-43.076-57 8 3.619 4.148 8.248 9.146 14 11v2c-3.243-.916-12.557-6.598-15-9-1.997-1.964-5.57-9.15-7-12-13.811-32.75 25.049-63.25 54.5-42 13.675 9.867 18.25 27.592 10.5 42"/><path fill="#067db3" d="M543 831c-2.463 4.579-6.83 8.147-8 13-.188.069-2.673-.127-4 0-.529.05-4.564-1.128-9-1 9.315-7.346 16.563-.96 20-16 4.952-21.668-10.547-41.064-33-40-8.539.405-15.497 4.941-21 11-7.234 7.965-10.912 17.143-8 28 1.511 5.632 4.63 8.115 7 13h-1c-44.565-51.076 75.023-81.997 57-8"/><path fill="#4be7fc" d="M488 798c5.503-6.059 12.461-10.595 21-11-1.031 5.513 4.422 3.928 6 8.5.89 2.577-1.068 4.754-1 5 1.055 3.843 7.345 6.965-1.5 12.5-10.528 6.588-21.255-5.712-24.5-15"/><path fill="#1ed1f6" d="M542 827c-13.104 5.414-27.088 9.134-41.5 7-7.469-1.106-13.034-7.203-20.5-8-2.912-10.857.766-20.035 8-28 3.245 9.288 13.972 21.588 24.5 15 8.845-5.535 2.555-8.657 1.5-12.5-.068-.246 1.89-2.423 1-5-1.578-4.572-7.031-2.987-6-8.5 22.453-1.064 37.952 18.332 33 40"/><path fill="#6398a7" d="m528 877-2-10c22.663-5.795 37.949-29.16 37-52 6.955.862 5.795 11.739 5 18.5-2.447 20.807-20.551 38.006-40 43.5"/><path fill="#639fb1" d="M474 820c.709 8.644 1.426 5.87 4 11 1.43 2.85 5.003 10.036 7 12l-10 4c-5.276-6.465-10.612-18.673-11-27z"/><path fill="#6babbe" d="M558 823c-.899 10.432-4.495 16.195-11 24-1.905-1.36-3.83-1.045-6-1-5.739-2.769 4.149-10.093 6-15.5.688-2.009 1.882-7.524 2-9.5 4.338-.777 5.16-.363 9 2"/><path fill="#02b3e2" d="M542 827c-3.437 15.04-10.685 8.654-20 16-11.62.334-24.309 2.836-35-4-2.37-4.885-5.489-7.368-7-13 7.466.797 13.031 6.894 20.5 8 14.412 2.134 28.396-1.586 41.5-7"/><path fill="#32def6" d="M535 844c1.17-4.853 5.537-8.421 8-13-.202.828 1.442 1.241 1 2.5-.446 1.27-7.519 9.955-9 10.5"/><path fill="#016e95" d="M522 843c4.436-.128 8.471 1.05 9 1-6.961 7.874-21.505 9.06-31 6-5.752-1.854-10.381-6.852-14-11h1c10.691 6.836 23.38 4.334 35 4"/><path fill="#6398a7" d="M485 862c-1.829-.481-4.298-2.141-4.5-2-.955.669-.061 3.591-1.5 5-5.036-4.596-14.735-14.713-13-22 3.938 7.186 12.851 13.741 19 19"/><path fill="#4a6c79" d="M500 852c19.495 5.507 25.989-5.691 41-6 2.17-.045 4.095-.36 6 1-18.826 22.591-53.136 23.115-72 0l10-4c2.443 2.402 11.757 8.084 15 9"/><path fill="#52808d" d="M485 862c16.65 4.377 21.867 9.892 41 5l2 10c-18.903 5.339-34.431 1.296-49-12 1.439-1.409.545-4.331 1.5-5 .202-.141 2.671 1.519 4.5 2"/></svg>