<svg xmlns="http://www.w3.org/2000/svg" width="1024" height="1024"><defs><linearGradient id="a" x1="392.356" x2="604.602" y1="157.726" y2="207.484" gradientUnits="userSpaceOnUse"><stop offset="0%" style="stop-color:#e7f5f8"/><stop offset="100%" style="stop-color:#98beca"/></linearGradient></defs><defs><linearGradient id="b" x1="504.076" x2="493.908" y1="363.845" y2="460.311" gradientUnits="userSpaceOnUse"><stop offset="0%" style="stop-color:#0b2f3e"/><stop offset="100%" style="stop-color:#106984"/></linearGradient></defs><defs><linearGradient id="c" x1="485.603" x2="523.223" y1="399.369" y2="518.573" gradientUnits="userSpaceOnUse"><stop offset="0%" style="stop-color:#1c90b5"/><stop offset="100%" style="stop-color:#4bdef0"/></linearGradient></defs><defs><linearGradient id="d" x1="343.469" x2="674.939" y1="585.491" y2="604.249" gradientUnits="userSpaceOnUse"><stop offset="18.373%" style="stop-color:#eef9fb"/><stop offset="61.446%" style="stop-color:#a2d7e7"/><stop offset="100%" style="stop-color:#78aabc"/></linearGradient></defs><defs><linearGradient id="e" x1="411.233" x2="606.117" y1="696.628" y2="703.349" gradientUnits="userSpaceOnUse"><stop offset="11.795%" style="stop-color:#e7f8fb"/><stop offset="100%" style="stop-color:#6f98a6"/></linearGradient></defs><defs><linearGradient id="f" x1="462.76" x2="486.218" y1="809.932" y2="868.402" gradientUnits="userSpaceOnUse"><stop offset="0%" style="stop-color:#1099cd"/><stop offset="100%" style="stop-color:#0c77af"/></linearGradient></defs><path fill="#092a41" d="M629 830c.591-1.162 2.916-2.323 3-2.5 2.727-5.762-2.199-19.95-4-27-.655-2.562 1.055-3.801 1-4-.163-.59-3.8-1.391-4-2-.04-.123 1.402-.794 1-2-.494-1.48-5.676-9.308-2-11.5 1.895 5.24 6.891 14.07 10 19 .235.906.803 1.107 1 2v16.5l1.5 6.5c.838-.017.457-4.826.5-6 2.196 1.088 5.935-7.984 6-8.5.134-1.055-1.068-7.978-1-11.5.47-24.256 3.665-47.612 3-72l4-1.5c4.025 27.85-2.004 55.956-4.5 83.5l1.5-1c10.887-2.834 20.487-8.331 30-14 4.593-2.737 10.919-4.407 15-8.5 4.876-9.633-.384-57.105 4-72 1.422-4.832 10.371-12.431 14-16.5 3.851.734 11.881-4.824 14.5-7 5.79-4.811 34.894-33.476 36.5-38.5.354-1.108 2.952-20.838 3-22 .071-1.721-.561-16.271-1-17-.427-.709-3.691.123-6-3-15.631-21.143-20.499-45.759-21-69-6.213-1.275-9.154-7.756-13-9.5-1.644-2.685-4.609-4.139-7-6-10.724-8.347-25.908-20.248-39-24-.154-.044-1.842-1.737-2.5-2-.671.224-6.318 10.393-7.5 12-36.994 50.264-84.626 77.338-148 80-24.977 1.049-49.225-2.093-73-10-37.814-12.576-69.386-37.247-93-69-1.105-1.486-4.708-11.673-7-12l-54 40c-.471.479-3.257 1.696-4 3.5-3.989 9.692-4.049 31.983-9 45-1.693 4.451-7.138 14.054-10 18-2.2 3.033-8.528 5.657-9 7-.581 1.654 1.338 32.626 2 35 1.007 3.611 9.402 12.144 12 16 .494.734-1.862 2.707-1 4 8.414 12.62 36.36 30.042 50 37.5 11.748 16.496 5.936 58.593 9 79.5 1.071 3.203 42.317 23.187 47 23.5.907.061 1.41-1.522 3-1 .374 1.979 1.829 4.811 2 7-38.253-14.44-102.779-47.404-120-86.5-5.788-13.14-14.964-58.895-12-72 .471-2.084 5.796-7.242 6-8 2.254-8.379-4.425-29.274-1-39-24.258-9.289-39.935-.559-53-28-17.722-37.223-20.846-150.907 5-184 11.927-15.271 35.93-6.995 41-12 2.265-2.235 7.379-54.435 9-63 8.184-43.229 22.689-108.897 53.5-139.5 97.142-96.485 267.035-100.507 375-20 31.22 23.28 41.661 37.472 54.5 73.5 16.906 47.44 24.745 98.091 31 148 12.486 6.272 29.443-.734 40 10 27.657 28.12 28.735 181.485-3.5 203.5-6.663 4.551-40.482 8.617-41.5 10.5 2.689 9.366-4.207 32.677-2 40 2.72 9.026 7.835 5.455 7 24-2.714 60.298-35.568 93.812-85.5 121.5-6.328 3.509-40.387 17.354-42 19-1.482 1.512-3.509 22.149-5.5 27.5-2.033 5.463-10.781 20.603-18 18 6.451-6.958 10.068-19.098 8-28.5M481 111c-40.741 3.521-82.785 16.578-117 39-.773 3.276 17.042 35.74 20 41 10.123 18.004 22.36 34.798 33 52.5l-4 1.5c-3.46-9.591-23.328-35.161-30-46.5-8.863-15.062-15.945-31.261-24.5-46.5-6.797-1.714-63.186 49.331-65.5 58.5-.851 3.374-.505 3.153 1 6 2.211 4.183 16.697 18.451 21 23.5 2.302 2.701 4.681 5.332 7 8 6.474 15.13 19.554 26.141 29 39 .464.631 3.948 13.23 8 11 2.201-1.372 3.295-4.121 5-6 14.551-16.036 30.132-32.836 49-44 68.476-40.517 114.598-28.179 183-4 3.265 1.154.54 1.324 5 1 .951-.069 1.374 1.52 2.5 1 1.186-1.146 2.306-2.363 3.5-3.5 8.157-7.763 46.881-72.216 50-83 .326-1.127 2.127-5.678-.5-5.5-.61 4.344-3.736 6.434-5.5 9-.282-1.296.498-1.983 1-3 2.413-4.887 6.784-9.131 2.5-13-32.111-29-131.615-39.62-173.5-36m163 78c-10.485 18.261-22.267 36.215-35 53a405 405 0 0 0-3 4c-.401.099-1.948.901-2 1-.048.091-2.169.394-.5 2 22.948 9.201 36.505 32.343 53.5 47 .354.306 1.912 3.079 2.5 3l69.5-86.5c-15.004-25.7-40.407-43.873-64.5-60.5l-2.5.5c-6.179 11.983-11.295 24.822-18 36.5M256 384c23.152 12.144 28.025 38.685 32 64l3 63c-.033 1.703-.947 2.695-1 5-.025 1.086.014 2.054 0 3-.07 4.604-.358 9.445.5 14l8.5-19c-1.325 7.39-3.89 14.058-6.5 21 7.131-7.763 18.976-14.025 25.5-22 5.863-2.941 11.373-6.647 17-10 2.828-1.685 7.756-2.063 10-5.5-10.317-15.793-18.159-37.862-21-56.5-3.252-21.334-1.539-41.63-1-63 5.985-26.943 17.074-53.688 34-75.5.455-2.941-21.435-31.85-25-35.5l-38.5-47c-6.789-.381-26.448 74.828-28.5 84.5-3.083 14.529-13.06 64.033-12 76 .353 3.981.881 2.389 3 3.5m458-146-39 48c-4.785 5.082-9.799 9.866-14 15.5 44.7 54.65 47.982 135.049 14 196 6.523 1.61 19.872 11.515 25 12.5l28 22c.705.821 5.494 6.547 6 2.5.046-.369-2.682.283-3-6-1.334-26.348 1.641-127.555 24.5-142.5 3.589-2.347 5.326 4.021 5.5-3l7 .5c-6.353-55.547-15.636-112.151-38.5-163.5-2.065-.789-13.813 15.58-15.5 18M339 344c-20.36 48.639-17.145 100.206 7 147 34.517 66.895 105.823 100.527 180 95 91.66-6.829 164.978-79.166 167-172 1.297-59.533-20.711-105.54-65-144-23.24-20.182-48.878-35.542-79.5-42-86.787-18.302-181.748 31.354-209.5 116m-103 47c-2.449.253-7.885-1.318-9 1.5 20.165 10.02 28.096 43.758 31 64.5l-2 1c-1.925-16.283-11.448-53.101-26.5-62-13.486-7.973-16.973 3.001-23.5 13.5 1.951 2.82 5.84-2.359 7.5-2.5 20.855-1.776 30.416 42.114 32.5 57l-2 1c-1.67-15.679-7.231-43.902-22-52-4.121-2.26-4.886-4.99-11.5-2-16.842 7.614-23.066 84.548-18.5 102-.775 12.649 5.793 49.379 13 59.5 3.642 5.115 8.533 8.933 15 7.5-.16.249.089 1.378 0 2-2.211.598-3.983 1.619-6.5 1l-9.5-6.5c8.459 14.338 17.916 31.443 33 11.5l3 1c-2.448 3.693-6.005 5.915-9 9-4.779 3.481 16.225 4.472 19.5 5 2.726.44 7.524 2.436 10 4 11.353-.672 22.65-53.193 22.5-63 .043-5.08 1.369-9.855 1-15 .929-7.104 1.768-14.868 2-22 .866-26.642-.385-55.249-7-81-1.742-6.782-2.883-14.123-6-20.5-10.185-20.835-16.585-16.604-37-14.5m502 59c-2.806 22.36-2.682 45.508-1 68 .031 4.142.799 8.062 1 12 .304 5.949.144 12.26 2 18-1.453 16.578 10.499 45.783 20 59.5l10.5-5.5 21-2c2.472-2.299-4.221-4.774-4.5-5-18.282-23.366-22.74-55.933-24-85-.229-5.277-.024-10.711 0-16 .148-32.435 3.312-83.58 33-102.5-3.202-1.114-6.732-.209-10-.5-14.111-1.256-22.564-5.53-32 6.5-8.538 10.886-14.26 38.636-16 52.5m27 56c.705 21.85 6.799 65.437 21 82.5 16.226 19.495 25.404 1.119 33-14-19.872 24.797-34.743-13.477-39-30-2.895-11.237-4.255-23.905-5-35.5-1.575-24.503.413-60.115 11-82.5 5.976-12.635 16.327-26.156 31-16-13.98-34.494-33.663-10.501-42 12-8.796 23.742-10.818 58.175-10 83.5m16 29c4.093 22.573 21.51 71.718 41 27.5l-3 1.5h-1c16.686-30.294 18.023-114.185 1-144.5-9.525-16.962-20.855-11.253-29 3-14.729 25.774-14.227 83.673-9 112.5m-85 248c18.743-9.737 49.863-35.569 59-54.5 3.815-7.904 20.056-73.068 11-74.5a112 112 0 0 1-24.5 28c-9.069 7.427-37.32 21.57-41.5 29.5-8.09 15.347-2.663 56.31-6.5 74.5.929-.363 2.327-2.91 2.5-3M254 665c-1.273 51.709 26.477 93.879 71 118 1.444.782 2.394 1.84 3.5 3 2.058.233 1.411-1.123 1.5-2.5.511-7.875-3.66-61.61-6-68-3.586-9.794-28.735-22.092-38-29.5-10.719-8.57-21.808-19.605-29.5-31-3.16 2.616-2.41 6.363-2.5 10m380.5 171-3 13c.808-3.442 6.489-9.725 3-13m-6 16c-.647-.086-2.395 2.815-1 3 .647.086 2.395-2.815 1-3"/><path fill="#ade0ec" d="M652 160c-18.633-11.602-38.873-21.754-60-28-35.369-10.457-72.214-12.777-109-10-.344-3.72.273-8.895-2-11 41.885-3.62 141.389 7 173.5 36 4.284 3.869-.087 8.113-2.5 13"/><path fill="#ebf6f7" d="M481 111c2.273 2.105 1.656 7.28 2 11-25.339 1.913-41.557 5.828-65 15-16.802 6.574-31.799 13.672-46 25-2.654-2.998-2.556-12.094-8-12 34.215-22.422 76.259-35.479 117-39"/><path fill="url(#a)" d="M592 132c21.228 26.277 24.323 57.757 19 90.5 6.836-2.613-6.919 15.721-11 15.5-54.233-31.343-126.215-33.323-180.5-1L384 191c-2.958-5.26-20.773-37.724-20-41 5.444-.094 5.346 9.002 8 12 .587.663.876 2.427 2.5 2 12.673-10.213 18.977-12.118 34.5-6 2.517 12.095 23.914 8.35 29-1.5 6.848-13.261-7.678-20.458-19-16.5l-1-3c23.443-9.172 39.661-13.087 65-15 36.786-2.777 73.631-.457 109 10" style="fill:url(#a)"/>/&gt;<path fill="#76aec0" d="M652 160c-.502 1.017-1.282 1.704-1 3-10.078 14.664-16.788 32.351-28 46.5l3 1-25 34.5c-4.46.324-1.735.154-5-1 4.883-1.925 2.626-2.005 4-6 4.081.221 17.836-18.113 11-15.5 5.323-32.743 2.228-64.223-19-90.5 21.127 6.246 41.367 16.398 60 28"/><path fill="#c4dde6" d="m418 137 1 3c-5.849 2.045-11.315 11.681-10 18-15.523-6.118-21.827-4.213-34.5 6-1.624.427-1.913-1.337-2.5-2 14.201-11.328 29.198-18.426 46-25"/><path fill="#fefeff" d="M409 158c-1.315-6.319 4.151-15.955 10-18 11.322-3.958 25.848 3.239 19 16.5-5.086 9.85-26.483 13.595-29 1.5"/><path fill="#eaf5f7" d="M413 245c.084.234-.01.666 0 1-24.925-20.924-35.655-52.983-52.5-80-22.501 12.299-40.858 30.253-58.5 48.5-.079 1.358 15.485 19.857 16 22 .054.224-2.551 2.985-3 3.5-4.303-5.049-18.789-19.317-21-23.5-1.505-2.847-1.851-2.626-1-6 2.314-9.169 58.703-60.214 65.5-58.5 8.555 15.239 15.637 31.438 24.5 46.5 6.672 11.339 26.54 36.909 30 46.5"/><path fill="#7ebcd1" d="M657 296c6.625 1.564 1.244-3.108 3-7.5 1.431-3.58 30.274-35.74 36-43.5 7.889-10.693 15.77-21.325 23-32.5.061-1.867-14.059-16.163-16.5-18.5-.307-.294-2.224.256-2.5 0-11.639-10.782-21.352-20.987-36.5-28-2.08.123-13.392 19.769-15.5 23h-4c6.705-11.678 11.821-24.517 18-36.5l2.5-.5c24.093 16.627 49.496 34.8 64.5 60.5L659.5 299c-.588.079-2.146-2.694-2.5-3"/><path fill="#1a6f8b" d="m601 245 25-34.5-3-1c11.212-14.149 17.922-31.836 28-46.5 1.764-2.566 4.89-4.656 5.5-9 2.627-.178.826 4.373.5 5.5-3.119 10.784-41.843 75.237-50 83-1.194 1.137-2.314 2.354-3.5 3.5-1.126.52-1.549-1.069-2.5-1"/><path fill="#c2dbe4" d="M413 246c.03 1.032-2.009 1.728 0 2-18.868 11.164-34.449 27.964-49 44-15.569-12.814-28.786-28.793-42-44-2.319-2.668-4.698-5.299-7-8 .449-.515 3.054-3.276 3-3.5-.515-2.143-16.079-20.642-16-22 17.642-18.247 35.999-36.201 58.5-48.5 16.845 27.017 27.575 59.076 52.5 80m-75-43c-14.694 2.605-22.874 17.935-16 31.5 3.762 7.425 17.408 13.522 25.5 10.5 10.259-3.831 16.529-23.191 11.5-33-.461-6.081 3.175 1.274 4-2.5.982-4.494-1.859-6.481-2-8.5-.315-4.5 2.756-13.601-4.5-17-15.452-7.237-11.168 9.396-7.5 17.5-1.364 1.298-12.613-3.307-11 1.5"/><path fill="#7ba2b0" d="M700 194c-3.428 4.903-10.353 8.878-6 15-28.85-28.851-53.063 36.066-13 38 5.886.284 9.595-3.356 15-2-5.726 7.76-34.569 39.92-36 43.5-1.756 4.392 3.625 9.064-3 7.5-16.995-14.657-30.552-37.799-53.5-47-1.669-1.606.452-1.909.5-2 1.863 3.129 1.771-.691 2-1a405 405 0 0 1 3-4c16.375-14.524 27.114-34.783 39-53 2.108-3.231 13.42-22.877 15.5-23 15.148 7.013 24.861 17.218 36.5 28m-32.5-2c-.726-.42-2.634 4.054-1 5 .726.42 2.634-4.054 1-5"/><path fill="#d2ecf2" d="M361 201c-4.234-1.656-7.076 1.451-12 2-3.406.38-7.82-.564-11 0-1.613-4.807 9.636-.202 11-1.5-3.668-8.104-7.952-24.737 7.5-17.5 7.256 3.399 4.185 12.5 4.5 17"/><path fill="#e9f6f8" d="M648 189c-11.886 18.217-22.625 38.476-39 53 12.733-16.785 24.515-34.739 35-53z"/><path fill="#7babb7" d="M600 238c-1.374 3.995.883 4.075-4 6-68.402-24.179-114.524-36.517-183 4-2.009-.272.03-.968 0-2-.01-.334.084-.766 0-1l4-1.5c-10.64-17.702-22.877-34.496-33-52.5l35.5 46c54.285-32.323 126.267-30.343 180.5 1"/><path fill="#9adde7" d="M667.5 192c1.634.946-.274 5.42-1 5-1.634-.946.274-5.42 1-5"/><path fill="#5e8a99" d="M696 245c-5.405-1.356-9.114 2.284-15 2l-11.5-6-7.5-10.5c4.751 2.433 7.218 9.615 12.5 11.5 19.908 7.106 34.308-18.191 19.5-33-4.353-6.122 2.572-10.097 6-15 .276.256 2.193-.294 2.5 0 2.441 2.337 16.561 16.633 16.5 18.5-7.23 11.175-15.111 21.807-23 32.5"/><path fill="#e2f4f7" d="M361 201c.141 2.019 2.982 4.006 2 8.5-.825 3.774-4.461-3.581-4 2.5-1.643-3.204-8.569-5.624-10-9 4.924-.549 7.766-3.656 12-2"/><path fill="#09304a" d="M338 203c3.18-.564 7.594.38 11 0 1.431 3.376 8.357 5.796 10 9 5.029 9.809-1.241 29.169-11.5 33-8.092 3.022-21.738-3.075-25.5-10.5-6.874-13.565 1.306-28.895 16-31.5m-12 11c-4.843 7.97-2.574 23.834 7.5 26 20.451 4.397 30.388-27.825 11.5-33-7.28-1.995-14.987.396-19 7"/><path fill="#07314a" d="M694 209c14.808 14.809.408 40.106-19.5 33-5.282-1.885-7.749-9.067-12.5-11.5l7.5 10.5 11.5 6c-40.063-1.934-15.85-66.851 13-38m-15.5-3c-21.525 2.25-13.677 38.074 6 35 18.5-2.89 15.543-37.252-6-35"/><path fill="#f1f9f8" d="M345 207c-7.268 1.097-12.805 3.168-19 7 4.013-6.604 11.72-8.995 19-7"/><path fill="#30768c" d="M678.5 206c21.543-2.252 24.5 32.11 6 35-19.677 3.074-27.525-32.75-6-35"/><path fill="#27acca" d="M326 214c6.195-3.832 11.732-5.903 19-7 18.888 5.175 8.951 37.397-11.5 33-10.074-2.166-12.343-18.03-7.5-26"/><path fill="#f4f9fa" d="M332 267c-3.188-3.265-6.343-6.876-9.5-10-1.023-1.012-2.887 1.11-3 1-2.003-1.944-20.333-23.53-21.5-22.5L266 384c-1.869-.896-10.978-3.815-10 0-2.119-1.111-2.647.481-3-3.5-1.06-11.967 8.917-61.471 12-76 2.052-9.672 21.711-84.881 28.5-84.5z"/><path fill="#5993a4" d="M761 383c.465-18.783-23.652-133.378-33-148.5-.684-1.106-1.147-2.778-2.5-2.5-5.943 4.982-10.395 11.289-15.5 17l-5 1.5c4.138-3.275 6.194-8.474 9-12.5 1.687-2.42 13.435-18.789 15.5-18 22.864 51.349 32.147 107.953 38.5 163.5z"/><path fill="#ccecf1" d="M628 270c-4.603 2.379-9.254 7.186-13 12-49.303-38.971-115.875-47.985-174-23 3.033-2.19-1.078-16.455-3.5-17-46.381 19.578-79.234 55.973-98.5 102 27.752-84.646 122.713-134.302 209.5-116 30.622 6.458 56.26 21.818 79.5 42"/><path fill="#3e6674" d="M761 383c-.174 7.021-1.911.653-5.5 3-22.859 14.945-25.834 116.152-24.5 142.5.318 6.283 3.046 5.631 3 6-.506 4.047-5.295-1.679-6-2.5-4.398-5.122-7.615-15.388-9-22-5.01-23.91-4.379-57.313-6-82.5-1-15.535-7.342-11.398 5-23.5 7.979-7.824 18.093-13.137 24-23.5-6.084-42.428-17.074-84.914-40-121.5 2.716-2.945 5.183-6.849 8-10 5.105-5.711 9.557-12.018 15.5-17 1.353-.278 1.816 1.394 2.5 2.5 9.348 15.122 33.465 129.717 33 148.5"/><path fill="#c2d9e0" d="M332 267c3.565 3.65 25.455 32.559 25 35.5-16.926 21.812-28.015 48.557-34 75.5-2.851 12.835-2.646 22.975-4 35.5-.03.281-3.467.135-4 4-1.633 11.84 3.075 37.338 6 49.5 3.112 12.94 7.51 24.351 14 36-5.627 3.353-11.137 7.059-17 10 .703-.859 3.063-3.282 2.5-4H300c4.797-33.389 2.142-107.681-34-125l32-148.5c1.167-1.03 19.497 20.556 21.5 22.5.113.11 1.977-2.012 3-1 3.157 3.124 6.312 6.735 9.5 10m-41.5 56c-10.968 2.882-12.764 34.514 6 30 14.844-3.571 14.035-35.266-6-30m-8 48-5.5 5.5c1.966 12.34 13.868-6.987 5.5-5.5"/><path fill="#88c3d7" d="M710 249c-2.817 3.151-5.284 7.055-8 10-5.908 6.406-12.005 12.677-18 19-2.525 2.663-6.431 5.271-9 8l39-48c-2.806 4.026-4.862 9.225-9 12.5z"/><path fill="#b4dfe9" d="M441 259c-50.435 21.68-92.201 73.556-97 129-.2 2.311-1.216 11.737-1 13l-1 1c-10.042-14.662-25.228 20.368 0 9 .403 2.905 1.831 19.3 4.5 20 6.479 1.7.102-18.887 8.5-18 .033 27.985 8.114 54.84 24 78l-3 3c-11.18-13.582-15.712-30.825-30-3-24.145-46.794-27.36-98.361-7-147 19.266-46.027 52.119-82.422 98.5-102 2.422.545 6.533 14.81 3.5 17"/><path fill="#55808d" d="M615 282c15.918 12.582 33.335 32.108 43 50 12.444 23.037 16.414 46.206 19 72 .229 2.282-.159 4.703 0 7-.596-1.745-5.578-8.307-8-6-.484-10.087-2.201-20.839-5-30.5-1.064-3.674-5.609-20.311-10-17.5-7.592-18.422-23.627-40.274-38-54 1.43-2.893 1.271-1.845 3-.5 3.794 2.949 17.156 19.532 18.5 19.5 2.164-.052.938-3.432.5-4.5-9.281-22.626-64.514-53.165-87.5-59.5-91.501-25.216-186.265 37.543-199.5 131l-7-1c4.799-55.444 46.565-107.32 97-129 58.125-24.985 124.697-15.971 174 23"/><path fill="#fbe1c3" d="M604 247c.052-.099 1.599-.901 2-1-.229.309-.137 4.129-2 1"/><path fill="#619baf" d="M364 292c-1.705 1.879-2.799 4.628-5 6-.22-4.598-4.555-8.453-8-11-9.446-12.859-22.526-23.87-29-39 13.214 15.207 26.431 31.186 42 44"/><path fill="#4b6671" d="M616 303c-87.112-83.188-235.412-37.348-258 80-4.991 3.081-2.612 15.936-4 19.5-.814 2.091-3.49 1.199-4 1.5 1.102-4.836.323-10.22 1-15 13.235-93.457 107.999-156.216 199.5-131 22.986 6.335 78.219 36.874 87.5 59.5.438 1.068 1.664 4.448-.5 4.5-1.344.032-14.706-16.551-18.5-19.5-1.729-1.345-1.57-2.393-3 .5"/><path fill="#03273d" d="M616 303c14.373 13.726 30.408 35.578 38 54 68.463 166.124-176.365 277.802-275 134-15.886-23.16-23.967-50.015-24-78-.013-10.986.939-19.293 3-30 22.588-117.348 170.888-163.188 258-80m-219 35c3.285-2.449 6.16-5.558 9-8.5.967-1.001 3.513-2.623 0-2.5 76.691-60.314 198.941-21.299 245 61.5 3.656 6.572 5.559 16.907 11 21-4.889-90.517-90.67-162.261-181.5-143.5-55.595 11.483-108.154 61.574-119.5 117.5-.459 2.262-4.56 25.093-.5 23.5 6.41-23.68 19.869-48.294 36.5-69m3 2c-9.295 10.002-11.217 13.394-18 25-6.99 11.96-13.2 23.303-18 36.5l11-10c-4.022 6.767-12.918 17.797-15 25-.85 2.94 2.086 2.557 2 3-.216 1.113-2.98 3.751-3 4-1.573 19.939 5.585-2.114 8-6 3.757-6.044 10.857-14.565 16-19.5 2.31-2.216 5.024-4.661 8-6-3.242 3.11-17.329 19.007-20 23.5-12.79 21.513-10.139 32.985 0 54.5 24.134 51.211 82.027 83.928 138 84 26.081.034 47.029-5.778 70-17 37.536-18.337 72.842-55.536 80-98 .966-5.729-.756-11.094 2-16.5-11.42-17.229-27.04-31.788-44-43.5 2.434.051 4.138 1.806 6 3 5.143 3.298 10.876 7.021 15.5 11 7.874 6.776 14.104 15.301 21.5 22.5-5.146-17.382-13.979-33.256-25-47.5-32.81-42.407-87.093-68.426-141-68-37.626.297-68.558 12.623-94 40"/><path fill="#517d8b" d="M718 404c-7.491-42.961-13.161-87.124-34-126 5.995-6.323 12.092-12.594 18-19 22.926 36.586 33.916 79.072 40 121.5-5.907 10.363-16.021 15.676-24 23.5"/><path fill="#0d5b72" d="M406 327c-5.891 4.633-5.91 7.153-9 11-16.631 20.706-30.09 45.32-36.5 69-4.06 1.593.041-21.238.5-23.5 11.346-55.926 63.905-106.017 119.5-117.5 90.83-18.761 176.611 52.983 181.5 143.5-5.441-4.093-7.344-14.428-11-21-46.059-82.799-168.309-121.814-245-61.5"/><path fill="#b2dfea" d="M628 270c44.289 38.46 66.297 84.467 65 144-.819-.041-1.933-2.459-2-3-.434-3.506.844-7.655-3-10 2.895.16 2.721-1.343 3-3.5 1.238-9.555-13.521-71.464-22.5-72.5-1.033-.119-10.232 4.193-10.5 7-9.665-17.892-27.082-37.418-43-50 3.746-4.814 8.397-9.621 13-12"/><path fill="#608d9c" d="M684 278c20.839 38.876 26.509 83.039 34 126-12.342 12.102-6 7.965-5 23.5 1.621 25.187.99 58.59 6 82.5-5.659-.745-13.707 1.017-19 0-5.128-.985-18.477-10.89-25-12.5 33.982-60.951 30.7-141.35-14-196 4.201-5.634 9.215-10.418 14-15.5 2.569-2.729 6.475-5.337 9-8"/><path fill="#7d706f" d="M359 298c-4.052 2.23-7.536-10.369-8-11 3.445 2.547 7.78 6.402 8 11"/><path fill="#e0f5f9" d="m494 300-38 13c-17.098 7.987-28.047 17.974-41 31-5.998 6.031-10.389 14.22-19 17 2.209-5.957 1.867-14.653 4-21 25.442-27.377 56.374-39.703 94-40"/><path fill="#18aace" d="M635 368c-6.496-7.114-13.93 7.636-12 14-1.862-1.194-3.566-2.949-6-3-5.746-3.968-11.623-7.199-18-10 .582-8.276-.646-11.779-4-19l15 5.5-16-8.5c-6.979-11.331-20.114-16.329-33-16 2.686-5.539-18.29-7.712-22.5-8-11.724-.802-26.026.461-37.5 3-28.488 6.305-53.31 24.663-66 51-7.911-9.126-6.009-6.684-17-1-4.72 2.441-8.469 5.309-13 8-.555.33-4.518.747-5 1 2.251-2.919 7.831-3.935 7-8 12.767 1.446 18.571-17.389 6-24 2.777-3.289.546-1.023 1-4 9.395-7.385 18.589-15.219 28-22.5.196-.152-3.525-.195-.5-2.5 1.609-1.225 7.737-4.235 10.5-6l49.5-14c-13.141-.841-32.397 3.991-44.5 10l-1-1 38-13c53.907-.426 108.19 25.593 141 68"/><path fill="#eff7f9" d="M452 318c1.265-.808 3.322-3.167 5-4 12.103-6.009 31.359-10.841 44.5-10z"/><path fill="#1dd5ec" d="M457 314c-1.678.833-3.735 3.192-5 4-2.763 1.765-8.891 4.775-10.5 6-3.025 2.305.696 2.348.5 2.5-9.411 7.281-18.605 15.115-28 22.5.263-1.727.409-3.305 1-5 12.953-13.026 23.902-23.013 41-31z"/><path fill="#fdfeff" d="M290.5 323c20.035-5.266 20.844 26.429 6 30-18.764 4.514-16.968-27.118-6-30"/><path fill="#0fb3d1" d="M561 331c-9.593.245-20.269 3.911-27 11-12.235-2.22-25.978-.762-38 2 7.56-5.144 4.55-9.435 5-18 11.474-2.539 25.776-3.802 37.5-3 4.21.288 25.186 2.461 22.5 8"/><path fill="#89ccde" d="M688 401c-3.764-2.296-8.995-.958-11 3-2.586-25.794-6.556-48.963-19-72 .268-2.807 9.467-7.119 10.5-7 8.979 1.036 23.738 62.945 22.5 72.5-.279 2.157-.105 3.66-3 3.5"/><path fill="#0f8eae" d="M496 344c-21.315 4.897-45.018 20.442-57.5 38-2.065-.666-3.063-4.496-3.5-5 12.69-26.337 37.512-44.695 66-51-.45 8.565 2.56 12.856-5 18"/><path fill="#146e7f" d="M397 338c3.09-3.847 3.109-6.367 9-11 3.513-.123.967 1.499 0 2.5-2.84 2.942-5.715 6.051-9 8.5"/><path fill="#fefefe" d="M561 331c12.886-.329 26.021 4.669 33 16 .751 1.22.718 2.393 1 3 3.354 7.221 4.582 10.724 4 19-.507 7.217-5.435 18.406-10 24-1.804 2.21-8.42 7.69-11 9-37.077 18.821-69.463-33.185-44-60 6.731-7.089 17.407-10.755 27-11"/><path fill="#0fc9e5" d="M396 361c-2.949 7.953-11.024 11.166-14 19-5.025-3.234 1.279-10.369 0-15 6.783-11.606 8.705-14.998 18-25-2.133 6.347-1.791 15.043-4 21"/><path fill="url(#b)" d="M534 342c-25.463 26.815 6.923 78.821 44 60 6.997 61.102-75.877 102.141-123.5 69-22.166-15.426-25.189-43.005-26.5-68-.348-6.644 6.268-14.813-7-13 1.576-5.669 1.202-9.607-3-14 10.991-5.684 9.089-8.126 17 1 .437.504 1.435 4.334 3.5 5 12.482-17.558 36.185-33.103 57.5-38 12.022-2.762 25.765-4.22 38-2m-35.5 8c-8.314 1.036-35.239 20.844-20 17 3.536-.892 30.577-12.485 29.5-15.5-1.919-2.203-6.955-1.817-9.5-1.5m-3.5 98c-23.099-2.585-23.056 22.126-5 24l-1.5 3c22.119 5.812 46.914-24.004 15-29-1.401-.219-8.989-1.833-8.5 2" style="fill:url(#b)"/>/&gt;<path fill="#0aa4cb" d="M414 349c-.454 2.977 1.777.711-1 4-2.597 3.076-12.396 9.468-17 14-2.853 2.809-12.58 11.185-14 14v-1c2.976-7.834 11.051-11.047 14-19 8.611-2.78 13.002-10.969 19-17-.591 1.695-.737 3.273-1 5"/><path fill="#0e88b0" d="M595 350c-.282-.607-.249-1.78-1-3l16 8.5z"/><path fill="#f6fafb" d="M498.5 350c2.545-.317 7.581-.703 9.5 1.5 1.077 3.015-25.964 14.608-29.5 15.5-15.239 3.844 11.686-15.964 20-17"/><path fill="#f9fdfe" d="M407 377c-5.925-.671-8.707-4.166-11-10 4.604-4.532 14.403-10.924 17-14 12.571 6.611 6.767 25.446-6 24"/><path fill="#e3f4f8" d="M669 405c3.753 78.247-58.945 142.999-134 155a166.4 166.4 0 0 1-31 2c-53.891-1.561-94.835-27.708-128-68l3-3c98.635 143.802 343.463 32.124 275-134 4.391-2.811 8.936 13.826 10 17.5 2.799 9.661 4.516 20.413 5 30.5"/><path fill="#11718e" d="M382 380v1c-2.834 5.617-.074 10.645 1 17-5.143 4.935-12.243 13.456-16 19.5-2.415 3.886-9.573 25.939-8 6 .02-.249 2.784-2.887 3-4 .086-.443-2.85-.06-2-3 2.082-7.203 10.978-18.233 15-25l-11 10c4.8-13.197 11.01-24.54 18-36.5 1.279 4.631-5.025 11.766 0 15"/><path fill="#1387aa" d="M635 368c11.021 14.244 19.854 30.118 25 47.5-7.396-7.199-13.626-15.724-21.5-22.5-4.624-3.979-10.357-7.702-15.5-11-1.93-6.364 5.504-21.114 12-14"/><path fill="#34d0e7" d="M407 377c.831 4.065-4.749 5.081-7 8-5.305 2.782-5.022 3.183-9 7-2.976 1.339-5.69 3.784-8 6-1.074-6.355-3.834-11.383-1-17 1.42-2.815 11.147-11.191 14-14 2.293 5.834 5.075 9.329 11 10"/><path fill="#0e5e75" d="M617 379c16.96 11.712 32.58 26.271 44 43.5-2.756 5.406-1.034 10.771-2 16.5-10.216-9.535-21.59-16.429-33-24-12.013-7.971-23.45-16.577-37-22 4.565-5.594 9.493-16.783 10-24 6.377 2.801 12.254 6.032 18 10"/><path fill="#f8fcfd" d="M282.5 371c8.368-1.487-3.534 17.84-5.5 5.5z"/><path fill="#fbfdfe" d="M418 376c4.202 4.393 4.576 8.331 3 14-5.437.743-17.197 8.665-16-6 4.531-2.691 8.28-5.559 13-8"/><path fill="#88a8ad" d="M324 441c-7.637 1.95-.424 20.081-3 26-2.925-12.162-7.633-37.66-6-49.5.533-3.865 3.97-3.719 4-4 1.354-12.525 1.149-22.665 4-35.5-.539 21.37-2.252 41.666 1 63"/><path fill="#5e838e" d="M266 384c36.142 17.319 38.797 91.611 34 125-.238 1.653-.697 3.312-1 5l-8.5 19c-.858-4.555-.57-9.396-.5-14v-3c.053-2.305.967-3.297 1-5 .427-21.755.371-41.534-3-63-3.975-25.315-8.848-51.856-32-64-.978-3.815 8.131-.896 10 0"/><path fill="#8eb7c4" d="M358 383c-2.061 10.707-3.013 19.014-3 30-8.398-.887-2.021 19.7-8.5 18-2.669-.7-4.097-17.095-4.5-20-.258-1.863 2.354-5.563 0-9l1-1c1.304 7.622 4.051 4.743 7 3 .51-.301 3.186.591 4-1.5 1.388-3.564-.991-16.419 4-19.5"/><path fill="#0f627a" d="M405 384c-1.197 14.665 10.563 6.743 16 6 13.268-1.813 6.652 6.356 7 13l-43 27.5c1.534 9.999 3.488 20.009 7 29.5l-21 10c-10.139-21.515-12.79-32.987 0-54.5 2.671-4.493 16.758-20.39 20-23.5 3.978-3.817 3.695-4.218 9-7 .482-.253 4.445-.67 5-1"/><path fill="#76a2ae" d="M351 389c-.677 4.78.102 10.164-1 15-2.949 1.743-5.696 4.622-7-3-.216-1.263.8-10.689 1-13z"/><path fill="#c4e6ed" d="M279 426c-2.269 2.153-20.601 6.661-21.5 6-1.89-1.39-10.905-37.835-21.5-41 20.415-2.104 26.815-6.335 37 14.5 3.117 6.377 4.258 13.718 6 20.5"/><path fill="#a8d7e2" d="M786 391c-13.024 13.08-18.686 31.792-23 49.5-1.595 6.547.268 15.753-6 19.5-5.304-2.797-11.286-1.148-14 4-1.141-4.399-1.694-10.682-5-14 1.74-13.864 7.462-41.614 16-52.5 9.436-12.03 17.889-7.756 32-6.5"/><path fill="#e5f5f7" d="M236 391c10.595 3.165 19.61 39.61 21.5 41 .899.661 19.231-3.847 21.5-6 6.615 25.751 7.866 54.358 7 81l-3.5-29c-3.916 1.534-16.776.012-19 1-3.569 1.585-.506 11.632-.5 14h-3c-.081-11.919-.349-24.209-2-36-2.904-20.742-10.835-54.48-31-64.5 1.115-2.818 6.551-1.247 9-1.5m29.5 68c-5.659 1.849-4.012 14.398 1 16 16.118 5.152 16.721-21.791-1-16"/><path fill="#e4f4f7" d="m763 494-4 4.5-.5-19.5-20-1c.232 13.183-1.597 26.918-1.5 40-1.682-22.492-1.806-45.64 1-68 3.306 3.318 3.859 9.601 5 14 .478 1.843.14 4.382 1 7 .552 1.68-3.435 1.167 3 3 14.087 4.012 16.263-10.697 10-14 6.268-3.747 4.405-12.953 6-19.5 4.314-17.708 9.976-36.42 23-49.5 3.268.291 6.798-.614 10 .5-29.688 18.92-32.852 70.065-33 102.5"/><path fill="#98d6dd" d="M256 458c.947 8.015.929 17.844 1 26-3.92-.182-1.148 6.319-2 7.5-.857 1.188-3.967.04-4.5.5-1.572 1.358 1.306 6.352-2.5 6 .14-11.651-.386-22.475-2-34-2.084-14.886-11.645-58.776-32.5-57-1.66.141-5.549 5.32-7.5 2.5 6.527-10.499 10.014-21.473 23.5-13.5 15.052 8.899 24.575 45.717 26.5 62"/><path fill="url(#c)" d="M626 415c-1.261 39.252-24.635 78.039-58 98-16.674 9.976-35.674 16.202-55 19-53.782 7.787-102.034-20.745-121-72-3.512-9.491-5.466-19.501-7-29.5l43-27.5c1.311 24.995 4.334 52.574 26.5 68 47.623 33.141 130.497-7.898 123.5-69 2.58-1.31 9.196-6.79 11-9 13.55 5.423 24.987 14.029 37 22" style="fill:url(#c)"/>/&gt;<path fill="#6bb4c7" d="M775 509c-4.905 5.313.128-5.979-10-3-.818-25.325 1.204-59.758 10-83.5 8.337-22.501 28.02-46.494 42-12-14.673-10.156-25.024 3.365-31 16-10.587 22.385-12.575 57.997-11 82.5"/><path fill="#04284d" d="M342 402c2.354 3.437-.258 7.137 0 9-25.228 11.368-10.042-23.662 0-9m-7.5-1c-7.509.975-5.165 14.69 4 11 5.012-2.018 2.581-11.854-4-11"/><path fill="#05324e" d="M688 401c3.844 2.345 2.566 6.494 3 10-3.372 3.575-8.715 4.588-13 1-.257-1.368-.977-.933-1-1-.159-2.297.229-4.718 0-7 2.005-3.958 7.236-5.296 11-3"/><path fill="#106883" d="M334.5 401c6.581-.854 9.012 8.982 4 11-9.165 3.69-11.509-10.025-4-11"/><path fill="#3a616e" d="M677 411c.023.067.743-.368 1 1 1.367 7.266-13.102 52.447-17 61.5-15.177 35.248-46.467 65.85-81.5 81.5-12.319 5.503-33.475 15.173-44.5 5 75.055-12.001 137.753-76.753 134-155 2.422-2.307 7.404 4.255 8 6"/><path fill="#85e7f3" d="M818 564c-13.261 24.074-19.591 5.23-28-9.5 2.048-4.808 9.474-2.318 10-2.5 8.331 12.414 16.163-12.803 18-19.5 7.751-28.258 7.677-71.38-4-98.5-.189-.44.19-1.602 0-2-2.882-6.027-6.757-11.95-13-15 .294-.158 2.086-1.958 2.5-2 17.7-1.792 23.613 50.533 25.5 62.5.089-64.749-37.787-98.957-47-10-2.22 21.437-1.149 44.269 2 65.5l-3 2c-5.227-28.827-5.729-86.726 9-112.5 8.145-14.253 19.475-19.962 29-3 17.023 30.315 15.686 114.206-1 144.5"/><path fill="#f3fcfd" d="M222 413c-1.669 1.323-5.49-1.957-5 2-15.04 1.15-22.824 38.615-20.5 39 2.979-10.373 9.149-40.954 24.5-36-9.75 1.601-9.363 8.125-12 15-.111.29.103.702 0 1-3.964 11.444-7.456 25.233-8 37.5-.515 11.632 4.846 39.057 3 47-.178.767-9.108 7.967-6.5 13.5l-3.5-27.5-2 8.5c-4.566-17.452 1.658-94.386 18.5-102 6.614-2.99 7.379-.26 11.5 2"/><path fill="#6298aa" d="M693 414c-2.022 92.834-75.34 165.171-167 172l-18.5-2 .5-3c11.427-.732 4.802-19.707-6-11 .862-3.516 3.678-4.38 2-8a166.4 166.4 0 0 0 31-2c11.025 10.173 32.181.503 44.5-5 35.033-15.65 66.323-46.252 81.5-81.5 3.898-9.053 18.367-54.234 17-61.5 4.285 3.588 9.628 2.575 13-1 .067.541 1.181 2.959 2 3"/><path fill="#6bcedf" d="M222 413c14.769 8.098 20.33 36.321 22 52 2.694 25.296 1.3 80.742-12 102.5-3.083 5.044-9.817 9.095-12 12.5-6.467 1.433-11.358-2.385-15-7.5-7.207-10.121-13.775-46.851-13-59.5l2-8.5 3.5 27.5c-2.608-5.533 6.322-12.733 6.5-13.5 1.846-7.943-3.515-35.368-3-47 .544-12.267 4.036-26.056 8-37.5 1.02 1.445 4.248 1.347 6 2-7.978 25.017-8.13 54.976-5 81 .809 6.723 1.22 13.958 3 20.5 1.748 6.424 7.912 12.364 6 18 1.125 1.137 1.886-1.449 2-1.5 23.172-10.294-.39 20.531-2.5 21-12.779 2.841-19.368-34.096-22-42 .403 29.946 23.127 71.343 37.5 19 .03-.108.487.071 1-2 8.308-33.999 10.19-75.555 1-109.5-2.626-9.7-7.233-26.4-19-25.5-.49-3.957 3.331-.677 5-2"/><path fill="#063e61" d="M801 417c-3.253 1.743-11.07 12.701-10 15.5 1.677 4.385 19.226-1.228 23-.5.19.398-.189 1.56 0 2-2.392-.478-4.032 1.243-6 2-3.031 1.165-5.311.815-8 4l-10-2.5c-10.313 36.046-7.301 73.838-3 110.5-1.343-5.22-2.208-9.658-3-15-3.149-21.231-4.22-44.063-2-65.5 9.213-88.957 47.089-54.749 47 10-1.887-11.967-7.8-64.292-25.5-62.5-.414.042-2.206 1.842-2.5 2"/><path fill="#0c3e64" d="M217 415c11.767-.9 16.374 15.8 19 25.5 9.19 33.945 7.308 75.501-1 109.5 8.393-33.872 7.729-79.885-3-113-.356-1.098-.356-2.285-1-4-2.133-5.675-3.302-12.838-10-15-15.351-4.954-21.521 25.627-24.5 36-2.324-.385 5.46-37.85 20.5-39"/><path fill="#1392b6" d="M659 439c-7.158 42.464-42.464 79.663-80 98l-11-24c33.365-19.961 56.739-58.748 58-98 11.41 7.571 22.784 14.465 33 24"/><path fill="#55d8ed" d="M814 432c-3.774-.728-21.323 4.885-23 .5-1.07-2.799 6.747-13.757 10-15.5 6.243 3.05 10.118 8.973 13 15"/><path fill="#6cecf8" d="M231 433c-6.972 4.867-14.085-1.865-22 0 2.637-6.875 2.25-13.399 12-15 6.698 2.162 7.867 9.325 10 15"/><path fill="#055989" d="M231 433c.644 1.715.644 2.902 1 4l-9 4c-1.597-2.186-5.433-4.043-8-5-1.752-.653-4.98-.555-6-2 .103-.298-.111-.71 0-1 7.915-1.865 15.028 4.867 22 0"/><path fill="#14b9da" d="M814 434c11.677 27.12 11.751 70.242 4 98.5-1.837 6.697-9.669 31.914-18 19.5 1.416-.489 1.896-.96 2-1 9.49-3.617 11.568-30.219 12-39.5 1.084-23.274.091-53.366-6-75.5 1.968-.757 3.608-2.478 6-2"/><path fill="#1797c7" d="M223 441c9.435 12.914 8.314 53.997 7 70l-20 6c-3.13-26.024-2.978-55.983 5-81 2.567.957 6.403 2.814 8 5"/><path fill="#117da7" d="M808 436c6.091 22.134 7.084 52.226 6 75.5-.432 9.281-2.51 35.883-12 39.5.195-1.194-1.929-1.878-2-2-9.707-16.668-12.576-94.105 0-109 2.689-3.185 4.969-2.835 8-4"/><path fill="#0d6d93" d="M235 550c-.513 2.071-.97 1.892-1 2l-11-3c4.517-13.043 5.885-24.421 7-38 1.314-16.003 2.435-57.086-7-70l9-4c10.729 33.115 11.393 79.128 3 113"/><path fill="#0e6181" d="M800 440c-12.576 14.895-9.707 92.332 0 109l-13 1c-.153-.554.146-1.433 0-2-4.301-36.662-7.313-74.454 3-110.5z"/><path fill="#99bdc6" d="M324 441c2.841 18.638 10.683 40.707 21 56.5-2.244 3.437-7.172 3.815-10 5.5-6.49-11.649-10.888-23.06-14-36 2.576-5.919-4.637-24.05 3-26"/><path fill="#128aa9" d="M490 472c21.974 2.281 24.349-21.835 5-24-.489-3.833 7.099-2.219 8.5-2 31.914 4.996 7.119 34.812-15 29z"/><path fill="#635150" d="m291 511-3-63c3.371 21.466 3.427 41.245 3 63"/><path fill="#13b3cf" d="M495 448c19.349 2.165 16.974 26.281-5 24-18.056-1.874-18.099-26.585 5-24"/><path fill="#095b97" d="M260 493c.089 13.075-.352 26.043-2 39-2.263 17.794-8.036 41.966-18 57l-3-1c15.212-20.113 20.219-78.627 20-104-.071-8.156-.053-17.985-1-26l2-1c1.651 11.791 1.919 24.081 2 36"/><path fill="#0e5174" d="M265.5 459c17.721-5.791 17.118 21.152 1 16-5.012-1.602-6.659-14.151-1-16m5.5 6 2 3.5-4.5 3.5 5.5-2.5c1.005-6.223-1.951-3.732-3-4.5-4.3-3.148-4.931-.865-5 4.5z"/><path fill="#1392b6" d="M392 460c18.966 51.255 67.218 79.787 121 72-1.569 3.328 4.62 18.722 4 19.5-1.843 2.313-7.705-2.741-8 2.5-55.973-.072-113.866-32.789-138-84z"/><path fill="#0c5074" d="M757 460c6.263 3.303 4.087 18.012-10 14l-3-3c-.86-2.618-.522-5.157-1-7 2.714-5.148 8.696-6.797 14-4m-5 9c.18-.246 5.006-.51 0-4-7.38-5.145-5.708 11.772 0 4"/><path fill="#308293" d="m271 465-5 4.5c.069-5.365.7-7.648 5-4.5"/><path fill="#0e4779" d="M248 498c-.231 19.283-5.543 77.925-28 84 .089-.622-.16-1.751 0-2 2.183-3.405 8.917-7.456 12-12.5 13.3-21.758 14.694-77.204 12-102.5l2-1c1.614 11.525 2.14 22.349 2 34"/><path fill="#2f6d76" d="M752 465v4c-5.708 7.772-7.38-9.145 0-4"/><path fill="#308293" d="M271 465c1.049.768 4.005-1.723 3 4.5l-5.5 2.5 4.5-3.5z"/><path fill="#0f272f" d="M752 469v-4c5.006 3.49.18 3.754 0 4"/><path fill="#4dbfd7" d="M747 474c-6.435-1.833-2.448-1.32-3-3z"/><path fill="#76afc1" d="M376 494c33.165 40.292 74.109 66.439 128 68 1.678 3.62-1.138 4.484-2 8-.61 2.487-3.642 2.376-1 7.5 2.512 2.779 3.112 3.749 7 3.5l-.5 3 18.5 2c-74.177 5.527-145.483-28.105-180-95 14.288-27.825 18.82-10.582 30 3"/><path fill="#82bbcb" d="M286 507c-.232 7.132-1.071 14.896-2 22-1.269-17.71-5.946-9.249-21-11 .444-7.654.019-17.129 0-25-.006-2.368-3.069-12.415.5-14 2.224-.988 15.084.534 19-1z"/><path fill="#78b1c0" d="M763 494c-.024 5.289-.229 10.723 0 16 .084 4.214-2.947 7.521-3 8-12.749 1.621-24.281-6.503-21 12h-1c-.201-3.938-.969-7.858-1-12-.097-13.082 1.732-26.817 1.5-40l20 1 .5 19.5z"/><path fill="#4fadcb" d="M257 484c.219 25.373-4.788 83.887-20 104-15.084 19.943-24.541 2.838-33-11.5l9.5 6.5c2.517.619 4.289-.402 6.5-1 22.457-6.075 27.769-64.717 28-84 3.806.352.928-4.642 2.5-6 .533-.46 3.643.688 4.5-.5.852-1.181-1.92-7.682 2-7.5"/><path fill="#9ce1f2" d="M263 493c.019 7.871.444 17.346 0 25-.219 3.77-.613 8.209-1 12-.08.785-.792 1.25-1 3l-3-1c1.648-12.957 2.089-25.925 2-39z"/><path fill="#3b626f" d="m676 501 39 24c2.391 1.861 5.356 3.315 7 6-1.072-.486-6.511-2.585-7-.5 3.438 6.559-1.465 13.09-3 20.5l-46-40c1.182-1.607 6.829-11.776 7.5-12 .658.263 2.346 1.956 2.5 2"/><path fill="#d7e8eb" d="M296 537c-1.28 1.128-4.796 2.792-5 3l54-40c-15.747 13.151-33.557 23.399-49 37"/><path fill="#56818f" d="M352 512c-2.194 1.142-4.151 3.531-6 5-11.719 9.313-22.882 21.771-34 30-1.467 1.086-5.154 5.139-6.5 5-3.735-4.352-8.636-9.413-9.5-15 15.443-13.601 33.253-23.849 49-37 2.292.327 5.895 10.514 7 12"/><path fill="#7db9c5" d="m715 525-39-24c13.092 3.752 28.276 15.653 39 24"/><path fill="#2e91b6" d="M775 509c.745 11.595 2.105 24.263 5 35.5 4.257 16.523 19.128 54.797 39 30-7.596 15.119-16.774 33.495-33 14-14.201-17.063-20.295-60.65-21-82.5 10.128-2.979 5.095 8.313 10 3"/><path fill="#a8c5cf" d="M318 513c-6.524 7.975-18.369 14.237-25.5 22 2.61-6.942 5.175-13.61 6.5-21 .303-1.688.762-3.347 1-5h20.5c.563.718-1.797 3.141-2.5 4"/><path fill="#4d7786" d="M719 510c1.385 6.612 4.602 16.878 9 22l-28-22c5.293 1.017 13.341-.745 19 0"/><path fill="#3d9ec8" d="M787 595c-16.427-13.31-22.547-37.677-25-58-.292-2.418-.835-4.167-1-7-.233-4.014-1.438-8.007-1-12 .053-.479 3.084-3.786 3-8 1.26 29.067 5.718 61.634 24 85"/><path fill="#1181ae" d="M223 549c-.607 1.754-2.777 2.31-2 5-.114.051-.875 2.637-2 1.5 1.912-5.636-4.252-11.576-6-18-1.78-6.542-2.191-13.777-3-20.5l20-6c-1.115 13.579-2.483 24.957-7 38"/><path fill="#5d8a99" d="M712 551c-.066.32.066.68 0 1-9.215 44.339-12.478 46.547-32 84.5-1.227 2.386-8.932 22.72-9 24-.186 3.493 3.866 8.483 6.5 10.5.606.464 6.582 2.953 8.5 4l-10 119c-9.513 5.669-19.113 11.166-30 14 3.561-15.292 9.633-29.845 12-45.5 5.444-36.014 7.285-86.266-28-107.5 11.772-7.391 23.721-13.74 33-24.5 21.035-24.392 35.794-76.984 8.5-101.5-42.639 44.998-90.781 74.435-154.5 76l1-14c63.374-2.662 111.006-29.736 148-80z"/><path fill="#97cedc" d="m445 581-4 12c-28.606-10.069-75.472-39.274-92-65-2.427-3.778-5.039-6.455-3-11 1.849-1.469 3.806-3.858 6-5 23.614 31.753 55.186 56.424 93 69"/><path fill="#29cfea" d="M579 537c-22.971 11.222-43.919 17.034-70 17 .295-5.241 6.157-.187 8-2.5.62-.778-5.569-16.172-4-19.5 19.326-2.798 38.326-9.024 55-19z"/><path fill="#603935" d="M290 519c.014-.946-.025-1.914 0-3z"/><path fill="#c6e4ec" d="M349 528c-2.315 1.773-5.657 6.046-7 8.5-18.424 33.66 6.374 108.729 48 117.5-1.555 1.071-7.181 4.882-7 7-13.839 11.405-17.893 28.76-19 46-1.282 19.974.965 44.484 6 63.5-1.399-5.113.798-10.558 1-14.5l7 53c-4.683-.313-45.929-20.297-47-23.5-3.064-20.907 2.748-63.004-9-79.5-14.934-20.969-25.405-21.717-39-51-2.773-7.393 11.76-23.128 12-24.5.511-2.916-8.975-31.211-8-37.5 8.025-16.725 9.913-32.502 25-46 11.118-8.229 22.281-20.687 34-30-2.039 4.545.573 7.222 3 11m-39.5 97c-29.251 4.138-29.222 50.704 0 55 42.901 6.306 39.918-60.647 0-55"/><path fill="#5895a6" d="M284 529c.369 5.145-.957 9.92-1 15-.004-.255-.794-3.45-1-5-.239-1.805.614-8.21-.5-9-1.127-.799-16.538.597-19.5 0 .387-3.791.781-8.23 1-12 15.054 1.751 19.731-6.71 21 11"/><path fill="#4f8797" d="M760 518c-.438 3.993.767 7.986 1 12h-22c-3.281-18.503 8.251-10.379 21-12"/><path fill="url(#d)" d="M441 593c25.126 8.844 49.242 12.657 76 12 63.719-1.565 111.861-31.002 154.5-76 27.294 24.516 12.535 77.108-8.5 101.5-9.279 10.76-21.228 17.109-33 24.5v1c-47.225-31.786-202.726-31.485-247 5-.181-2.118 5.445-5.929 7-7l7-3.5c-2.95-1.146-5.362 2.372-7 3.5-41.626-8.771-66.424-83.84-48-117.5 1.343-2.454 4.685-6.727 7-8.5 16.528 25.726 63.394 54.931 92 65" style="fill:url(#d)"/>/&gt;<path fill="#25444f" d="M722 531c3.846 1.744 6.787 8.225 13 9.5.501 23.241 5.369 47.857 21 69 2.309 3.123 5.573 2.291 6 3 .439.729 1.071 15.279 1 17-.048 1.162-2.646 20.892-3 22-1.606 5.024-30.71 33.689-36.5 38.5-2.619 2.176-10.649 7.734-14.5 7 4.249-4.764 8.822-9.176 13-14 17.46-20.158 26.593-36.328 34-62.5-5.703-7.251-14.49-12.04-19-20.5-4.559-8.553-7.805-26.759-13-35.5-2.049-3.447-9.336-8.626-12-12.5.066-.32-.066-.68 0-1 1.535-7.41 6.438-13.941 3-20.5.489-2.085 5.928.014 7 .5"/><path fill="#2c7c95" d="m282 539-21-3c.131-.966-.115-2.029 0-3 .208-1.75.92-2.215 1-3 2.962.597 18.373-.799 19.5 0 1.114.79.261 7.195.5 9"/><path fill="#327488" d="M761 530c.165 2.833.708 4.582 1 7-11.492 4.398-20.662-4.272-22 11-1.856-5.74-1.696-12.051-2-18h1z"/><path fill="#5fbdde" d="M261 533c-.115.971.131 2.034 0 3-2.931 21.605-8.683 51.505-30 62 2.995-3.085 6.552-5.307 9-9 9.964-15.034 15.737-39.206 18-57z"/><path fill="#0b4479" d="M221 554c-.777-2.69 1.393-3.246 2-5l11 3c-14.373 52.343-37.097 10.946-37.5-19 2.632 7.904 9.221 44.841 22 42 2.11-.469 25.672-31.294 2.5-21"/><path fill="#22a9d1" d="M787 548c.146.567-.153 1.446 0 2 5.086 18.452 18.595 44.424 32 14l3-1.5c-19.49 44.218-36.907-4.927-41-27.5l3-2c.792 5.342 1.657 9.78 3 15"/><path fill="#1b6c8a" d="M282 539c.206 1.55.996 4.745 1 5 .15 9.807-11.147 62.328-22.5 63-2.476-1.564-7.274-3.56-10-4-3.275-.528-24.279-1.519-19.5-5 21.317-10.495 27.069-40.395 30-62z"/><path fill="#4a727f" d="M312 547c-15.087 13.498-16.975 29.275-25 46-2.692 5.61-5.563 11.297-9 16.5-1.246 1.887-8.847 8.103-9 9-.418 2.442 11.902 31.982 14 36.5 13.595 29.283 24.066 30.031 39 51-13.64-7.458-41.586-24.88-50-37.5-.862-1.293 1.494-3.266 1-4-2.598-3.856-10.993-12.389-12-16-.662-2.374-2.581-33.346-2-35 .472-1.343 6.8-3.967 9-7 2.862-3.946 8.307-13.549 10-18 4.951-13.017 5.011-35.308 9-45 .743-1.804 3.529-3.021 4-3.5.204-.208 3.72-1.872 5-3 .864 5.587 5.765 10.648 9.5 15 1.346.139 5.033-3.914 6.5-5"/><path fill="#11617e" d="M762 537c2.453 20.323 8.573 44.69 25 58 .279.226 6.972 2.701 4.5 5l-21 2-10.5 5.5c-9.501-13.717-21.453-42.922-20-59.5 1.338-15.272 10.508-6.602 22-11"/><path fill="#06416f" d="M800 549c.071.122 2.195.806 2 2-.104.04-.584.511-2 1-.526.182-7.952-2.308-10 2.5 8.409 14.73 14.739 33.574 28 9.5h1c-13.405 30.424-26.914 4.452-32-14z"/><path fill="#426977" d="m737 600-13 31c-20.995-16.146-47.803 3.186-44 27.5 1.065 6.807 9.236 11.076 9 17.5-.988-.449-2.715-.845-3-1-1.918-1.047-7.894-3.536-8.5-4-2.634-2.017-6.686-7.007-6.5-10.5.068-1.28 7.773-21.614 9-24 19.522-37.953 22.785-40.161 32-84.5 2.664 3.874 9.951 9.053 12 12.5 5.195 8.741 8.441 26.947 13 35.5"/><path fill="#033451" d="M508 581c-3.888.249-4.488-.721-7-3.5-2.642-5.124.39-5.013 1-7.5 10.802-8.707 17.427 10.268 6 11m-2.5-11c-4.981.993-3.666 8.144 0 9 8.252 1.926 7.937-10.582 0-9"/><path fill="#074d68" d="M505.5 570c7.937-1.582 8.252 10.926 0 9-3.666-.856-4.981-8.007 0-9"/><path fill="#7ab6c7" d="m518 591-1 14c-26.758.657-50.874-3.156-76-12l4-12c23.775 7.907 48.023 11.049 73 10"/><path fill="#74a4b4" d="M283 655c-2.098-4.518-14.418-34.058-14-36.5.153-.897 7.754-7.113 9-9 3.437-5.203 6.308-10.89 9-16.5-.975 6.289 8.511 34.584 8 37.5-.24 1.372-14.773 17.107-12 24.5"/><path fill="#325662" d="M722 683c-.101-1.692-1.92-.781-3-1-5.698-1.154-11.312.039-16-2.5l7.5.5c22.381-3.835 32.49-34.396 13.5-49l13-31c4.51 8.46 13.297 13.249 19 20.5-7.407 26.172-16.54 42.342-34 62.5"/><path fill="#051f31" d="M309.5 625c39.918-5.647 42.901 61.306 0 55-29.222-4.296-29.251-50.862 0-55M290 648c-4.734 35.842 50.876 38.414 48 5-2.614-30.37-44.619-30.597-48-5"/><path fill="#082937" d="M724 631c18.99 14.604 8.881 45.165-13.5 49l-7.5-.5c4.688 2.539 10.302 1.346 16 2.5-12.682 3.92-19.616-1.28-30-6 .236-6.424-7.935-10.693-9-17.5-3.803-24.314 23.005-43.646 44-27.5m-34 14c-17.987 36.314 56.596 35.084 35-6l4.5 6c2.157-3.347-5.497-10.48-8-12-16.435-9.977-32.931.62-37.5 17.5l4.5-6.5zm38.5 14-9 13c4.717-1.075 9.565-7.992 9-13"/><path fill="#d9eff2" d="M338 653c-3.782 1.511-4.608-9.34-6-11.5-5.276-8.186-20.585-12.17-29.5-7.5L290 648c3.381-25.597 45.386-25.37 48 5"/><path fill="#7eb7c7" d="M725 639c-11.011-12.915-27.785-8.567-35 6l-1.5-1-4.5 6.5c4.569-16.88 21.065-27.477 37.5-17.5 2.503 1.52 10.157 8.653 8 12z"/><path fill="#236d83" d="M725 639c21.596 41.084-52.987 42.314-35 6 7.215-14.567 23.989-18.915 35-6"/><path fill="#47a4bf" d="M338 653c2.876 33.414-52.734 30.842-48-5l12.5-14c8.915-4.67 24.224-.686 29.5 7.5 1.392 2.16 2.218 13.011 6 11.5"/><path fill="#03182a" d="M630 656c21.968 14.786 28.839 39.89 26 65.5-2.948-12.624-1.19-28.47-9-39.5-.237-6.729-9.228-15.868-14.5-20-22.492-17.627-73.216-23.888-101.5-25-38.569-1.517-126.473 1.893-153 33-.963 1.129-1.261 1.906-2 3-1.676 2.483-3.709 4.719-5 7.5l-7 26.5c1.107-17.24 5.161-34.595 19-46 44.274-36.485 199.775-36.786 247-5"/><path fill="#e5f2f3" d="M531 637c-1.528 4.43-11.061.774-13.5 2-1.646.827 1.648 3.178 0 4-.985.491-4.523-.422-6 0-20.404 5.832-55.512 3.688-81 10-13.984 3.463-26.149 10.871-39.5 14-4.56 1.068-7.969-2.088-13 3 26.527-31.107 114.431-34.517 153-33"/><path fill="#92d4e6" d="M647 682c-6.783-9.58-23.406-14.654-33.5-21l8.5 8c-47.174-23.182-112.669-24.843-164.5-18-24.838 3.279-54.634 9.126-71.5 29 1.268-2.991 2.976-6.02 4-9 .458-1.332 1.509-2.124 1-4 13.351-3.129 25.516-10.537 39.5-14 25.488-6.312 60.596-4.168 81-10 1.477-.422 5.015.491 6 0 1.648-.822-1.646-3.173 0-4 2.439-1.226 11.972 2.43 13.5-2 28.284 1.112 79.008 7.373 101.5 25 5.272 4.132 14.263 13.271 14.5 20"/><path fill="#02162b" d="M622 669c18.334 17.911 22.298 32.262 23 58 .665 24.388-2.53 47.744-3 72-5.028.609-2.951-.435-4-2.5-9.28-18.264-16.554-38.455-34.5-50.5-2.28-1.531-8.598.256-8.5-5 7.88 2.489 12.23 4.008 19 9 5.651 4.167 8.743 8.739 13 14 2.712 3.352 8.343 13.956 9 14.5 3.313 2.744 4.878-21.868 5-24 1.589-27.654 1.259-70.436-26-85.5-16.744-9.253-46.879-13.175-66-15-37.074-3.538-123.191-3.109-152.5 21-24.44 20.105-14.894 77.495-13.5 106 .04.822-.044 1.668 0 2.5.361 6.755-1.091 22.462 0 32.5v-1c-.171-2.189-1.626-5.021-2-7-7.082-37.448-9.815-93.05 5-128 16.866-19.874 46.662-25.721 71.5-29 51.831-6.843 117.326-5.182 164.5 18"/><path fill="#d0e6ea" d="M390 654c1.638-1.128 4.05-4.646 7-3.5z"/><path fill="#484e4f" d="m549 654-.5 7 45.5 12c-21.935-8.542-48.954-12.147-72.5-13-41.347-1.498-83.38 3.1-118.5 25.5l1 53.5c-.284.21-4.594 4.521-5 5v-58.5c-11.594 20.237-5.642 43.904-6 66 .678 1.174 1.272-.868 2-.5.117.059-.524 2.123 1 2-.109.28-1.166 5.667 0 6-2.438 2.85-7.984 10.688-9 12.5-.981 1.75-.984 7.489-4 9.5-1.394-28.505-10.94-85.895 13.5-106 29.309-24.109 115.426-24.538 152.5-21"/><path fill="#2f3e42" d="M615 669c-.304 1.705-4.206 9.977-4 10.5.413 1.047 13.446 4.968 16 15 3.348 13.151 1.294 51.033 1 66.5-6.372-6.865-4.324-15.505-13-23v-54.5c-.607-1.589-18.065-9.357-21-10.5l-45.5-12 .5-7c19.121 1.825 49.256 5.747 66 15"/><path fill="#6bafc4" d="M696 783c-.173.09-1.571 2.637-2.5 3 3.837-18.19-1.59-59.153 6.5-74.5 4.18-7.93 32.431-22.073 41.5-29.5a112 112 0 0 0 24.5-28c-4.178 12.621-12.618 23.331-22.5 32-8.822 7.739-36.71 21.301-40.5 28.5-7.243 13.758-1.472 51.588-7 68.5"/><path fill="#3d6d7d" d="M696 783c5.528-16.912-.243-54.742 7-68.5 3.79-7.199 31.678-20.761 40.5-28.5 9.882-8.669 18.322-19.379 22.5-32 9.056 1.432-7.185 66.596-11 74.5-9.137 18.931-40.257 44.763-59 54.5"/><path fill="#a0dae9" d="m286 686 7 10c-18.919-11.886-19.604-9.688-34-28.5-1.645-2.149-1.944-3.833-5-2.5.09-3.637-.66-7.384 2.5-10 7.692 11.395 18.781 22.43 29.5 31"/><path fill="#609aac" d="m646 808-1.5 1c2.496-27.544 8.525-55.65 4.5-83.5l-4 1.5c-.702-25.738-4.666-40.089-23-58l-8.5-8c10.094 6.346 26.717 11.42 33.5 21 7.81 11.03 6.052 26.876 9 39.5 2.839-25.61-4.032-50.714-26-65.5v-1c35.285 21.234 33.444 71.486 28 107.5-2.367 15.655-8.439 30.208-12 45.5"/><path fill="#17687e" d="M728.5 659c.565 5.008-4.283 11.925-9 13z"/><path fill="url(#e)" d="M594 673c2.935 1.143 20.393 8.911 21 10.5V738c-27.813-24.029-181.04-21.141-211 1l-1-53.5c35.12-22.4 77.153-26.998 118.5-25.5 23.546.853 50.565 4.458 72.5 13m-28.5 8c-4.683 1.1-8.305 15.284-3 17 7.085 2.292 11.57-19.014 3-17" style="fill:url(#e)"/>/&gt;<path fill="#afdfeb" d="M293 696c9.644 6.059 21.512 9.663 28 20.5l4 66.5c-44.523-24.121-72.273-66.291-71-118 3.056-1.333 3.355.351 5 2.5 14.396 18.812 15.081 16.614 34 28.5"/><path fill="#adcdd4" d="M391 667c.509 1.876-.542 2.668-1 4-2.294 1.594-4.613 4.671-6 7-2.224-3.716-4.163-3.971-8-5 .739-1.094 1.037-1.871 2-3 5.031-5.088 8.44-1.932 13-3"/><path fill="#19252a" d="M627 764c1.545-.075.978-1.849 1-3 .294-15.467 2.348-53.349-1-66.5-2.554-10.032-15.587-13.953-16-15-.206-.523 3.696-8.795 4-10.5 27.259 15.064 27.589 57.846 26 85.5-.122 2.132-1.687 26.744-5 24-.657-.544-6.288-11.148-9-14.5"/><path fill="#3a7e94" d="M386 680c-14.815 34.95-12.082 90.552-5 128-1.59-.522-2.093 1.061-3 1l-7-53c1.337-26.134-.956-54.571 13-78 1.387-2.329 3.706-5.406 6-7-1.024 2.98-2.732 6.009-4 9"/><path fill="#a3c4cb" d="M384 678c-13.956 23.429-11.663 51.866-13 78-.202 3.942-2.399 9.387-1 14.5-5.035-19.016-7.282-43.526-6-63.5l7-26.5c1.291-2.781 3.324-5.017 5-7.5 3.837 1.029 5.776 1.284 8 5"/><path fill="#476f7d" d="M689 676c10.384 4.72 17.318 9.92 30 6 1.08.219 2.899-.692 3 1-4.178 4.824-8.751 9.236-13 14-3.629 4.069-12.578 11.668-14 16.5-4.384 14.895.876 62.367-4 72-4.081 4.093-10.407 5.763-15 8.5l10-119c.285.155 2.012.551 3 1"/><path fill="#9bcfdf" d="M565.5 681c8.57-2.014 4.085 19.292-3 17-5.305-1.716-1.683-15.9 3-17"/><path fill="#707575" d="M399 744c-1.116 1.315-3.404 5.182-4 7-.728-.368-1.322 1.674-2 .5.358-22.096-5.594-45.763 6-66z"/><path fill="#f3fafb" d="m325 783-4-66.5c-6.488-10.837-18.356-14.441-28-20.5l-7-10c9.265 7.408 34.414 19.706 38 29.5 2.34 6.39 6.511 60.125 6 68-.089 1.377.558 2.733-1.5 2.5-1.106-1.16-2.056-2.218-3.5-3"/><path fill="#222d3c" d="M615 738c8.676 7.495 6.628 16.135 13 23-.022 1.151.545 2.925-1 3-4.257-5.261-7.349-9.833-13-14 6.87-18.208-33.692-21.167-46-23-36.299-5.406-139.688-8.934-165 18-2.257 2.402-5.45 4.012-7 8-1.524.123-.883-1.941-1-2 .596-1.818 2.884-5.685 4-7 .406-.479 4.716-4.79 5-5 29.96-22.141 183.187-25.029 211-1"/><path fill="#9cc1c8" d="m568 727-1 8c-35.758-4.599-136.099-6.138-164 16v-6c25.312-26.934 128.701-23.406 165-18"/><path fill="#658e9a" d="M614 750c-6.77-4.992-11.12-6.511-19-9-8.669-2.738-18.983-4.84-28-6l1-8c12.308 1.833 52.87 4.792 46 23"/><path fill="#00214b" d="M567 735c9.017 1.16 19.331 3.262 28 6-.098 5.256 6.22 3.469 8.5 5 17.946 12.045 25.22 32.236 34.5 50.5 1.049 2.065-1.028 3.109 4 2.5-.068 3.522 1.134 10.445 1 11.5-.065.516-3.804 9.588-6 8.5.201-5.482-.823-11.664-2-17-.197-.893-.765-1.094-1-2-.631-2.436-10.119-28.742-12-24.5 1.394 1.413 1.372 3.763 2 5.5-3.676 2.192 1.506 10.02 2 11.5.402 1.206-1.04 1.877-1 2 .2.609 3.837 1.41 4 2 .055.199-1.655 1.438-1 4 1.801 7.05 6.727 21.238 4 27-.084.177-2.409 1.338-3 2.5-.047.092-1-2.58-2-.5-.527 1.097-.871 7.795-2 10-6.206 12.121-12.612 22.136-24.5 29.5-1.412.875-18.568 9.276-18.5 6.5 5.831-8.658 11.396-20.905 10.5-31.5-8.812 38.292-55.539 47.037-67 83-3.376-28.27-38.35-28.367-58-42-12.19-8.457-20.34-21.626-28-34l6.5 28.5c-20.932-10.734-26.486-39.868-26.5-61.5-4.923 11.238-2.358 24.908.5 36.5l9.5 17.5c-13.232-11.451-25.265-22.971-31-40l-.5 15.5c-9.151-7.254-13.746-19.959-15-31.5-1.091-10.038.361-25.745 0-32.5-.044-.832.04-1.678 0-2.5 3.016-2.011 3.019-7.75 4-9.5 1.016-1.812 6.562-9.65 9-12.5 1.938-2.266 4.804-6.257 7-8 27.901-22.138 128.242-20.599 164-16m-90 1c-12.977.63-30.402-.195-41 7-3.05.336-8.368 2.731-10.5 3-.867.109-.103-2.92-1-3-.739-.066-10.696 6.839-12.5 8-10.306 6.632-16.923 13.736-22 25-6.765 15.009-6.888 31.984-3 48 .801 3.301 3.763 11.72 7 13.5-1.516-9.708 1.87-18.389 4-27.5 5.529-23.655 8.425-33.088 28-49 8.651-7.032 17.992-13.349 29-16l11-2.5c-47.492 15.704-91.886 69.762-48.5 114.5-18.766-41.409 18.948-87.992 55.5-104.5-14.935 11.255-33.601 25.296-44 41-.651.983 1.635 1.994 1 3-1.043 1.654-12.511 14.655-9.5 15.5l4.5-4.5c-3.245 5.557-3.732 14.717-3 21 .146 1.253 1.815-1.234 2 0 .424 2.837 3.249 12.308 0 12.5l-.5-4c-1.85 1.694.466 3.801.5 4 1.51 8.87 5.554 5.091 6 8.5.444 3.395-2.628 1.736-2 5 .874 4.544 8.037 16.935 13 19-2.523-13.097-9.73-24.983-12-38-.117-.672 2.095-.322 2-1-.047-.332-2.839-3.188-3-6-.162-2.826-.832-7.404 1.5-9.5l3.5 6.5 7.5-34.5c1.106 8.266-4.557 18.304-4.5 26.5.026 3.792 1.989 2.34 2 2.5.688 9.887.473 9.829 4 19 8.232 21.406 33.649 46.662 56 52.5l-19-16c2.261-4.427-12.951-23.191-13-26-.015-.865 3.108-.151 3-1-.474-3.736-3.633-10.024-4-14-2-21.672.009-40.003 10-59.5l1 2c-9.924 23.125-12.104 49.289-5 73.5 6.646 22.649 24.138 34.771 41 49.5.174.152-.622 2.452 1.5 2 1.137-1.122-1.446-1.887-1.5-2-1.296-2.687-37.552-46.736-30.5-49 .59-.189 2.16 7.072 4.5 6.5-6.284-15.107-9.922-34.68-4-50-2.262 13.473-1.157 23.682 2 36.5 4.255 17.279 15.584 37.992 29 49.5-1.869-7.729-2.576-15.727-4-23.5-2.755-15.037-7.298-25.749-3-40.5.919 7.568.702 15.503 2 23 .167.962 2.837.038 3 1 2.692 15.847 1.321 34.81 9 50 5.683 1.915-3.539-14.748-1-18l2.5 7.5 3-13-1.5 22.5c1.76 1.908 2.877-3.399 3-4 2.251-11.034 5.063-34.425 6-46 2.268-28.012 1.416-53.597-7-80.5.033.098.272-2.151 2-.5 8.938 28.48 12.956 51.952 10 82-1.701 17.292-7.976 33.901-9 51l20-44.5c5.326-7.641 7.223-22.584 8-32 2.243 2.359 2.999-7.096 3-7.5.005-1.299-.831-6.182-1-8.5 6.411 1.052 2.434-2.722 5-6 .955 23.884-5.867 47.618-15 69.5-.418 1-10.672 15.625-5 13 3.89-7.709 10.485-14.504 15-21.5l-8 14.5c2.924 4.922 18.534-20.786 20-23.5 2.503-3.713 14.733-13.322 16-15.5.815-1.401 1.796-13.202 2-14 .146-.572 3.879-1.442 4-2 .123-.564.998-10.923 1-11.5-.255 6.901 2.626 13.682 3 20.5.276 5.026-2.247 16.408-2 18 .099.637 8.043 3.529 2 10 2.38-.232 5.439-6.298 6-8 3.127-9.486 1.278-37.303-3-48-.729-1.824 1.061-2.854 1-3-.71-1.711-2.451.618-2.5.5-.879-2.113-3.437-5.18-3.5-5.5-.07-.357 2.537-5.011 2-7-2.892-10.716-14.835-27.885-23-35.5-1.281-1.194-3.837-3.497-4.5-5 12.032 4.675 23.077 22.136 28.5 33.5 2.757 5.779 3.064 22.629 11 24l-1 35c.511 1.095 3.667.161 4 .5-3.953 9.252-9.354 16.157-15.5 24 4.992-.979 18.49-20.955 15.5-24 10.451-24.459 1.472-58.694-14-80.5-2.297-3.238-14.025-13.01-14-14s2.986-1.669 3-2c.134-3.071-31.239-14.011-35.5-11.5-1.179.695 3.332 5.436 0 6-1.131.191-14.194-4.867-17-5 1.146 4.972 8.416 7.74 11.5 11 13.357 14.118 22.768 32.435 26 51.5-5.368-12.268-8.732-28.416-18.5-39.5-1.205 1.387.558 2.078.5 4-5.959-10.918-13.812-21.611-26-26-1.178-.762-.509-2.016-4-3-6.729-1.896-37.323-.421-46 0m137.5 53 10 41c9.084-6.655 1.926-7.047 1.5-8.5-.73-2.49 1.063-3.804 1-4-.065-.202-2.419-1.105-3-3-2.634-8.591-3.044-18.259-9.5-25.5"/><path fill="#14609c" d="M523 736c3.592 5.124 7.37 9.857 11 15-5.457 4.587 6.066 13.351 4.5 20-5.082-9.893-9.534-21.849-19.5-28-2.367-1.461-13.658-5.163-17.5-5-5.341.227-7.858 3.843-10 4-1.218.089-10.403.079-11 0-2.418-.318-3.931-3.43-7.5-2.5l4-3.5c8.677-.421 39.271-1.896 46 0"/><path fill="url(#f)" d="m477 736-4 3.5c3.569-.93 5.082 2.182 7.5 2.5.597.079 9.782.089 11 0 2.142-.157 4.659-3.773 10-4 3.842-.163 15.133 3.539 17.5 5-.049 1.457-3.028 4.231-3 4.5.389 3.727 7.318 19.507 9 24.5 8.416 26.903 9.268 52.488 7 80.5-.937 11.575-3.749 34.966-6 46-.123.601-1.24 5.908-3 4l1.5-22.5-3 13-2.5-7.5c-2.539 3.252 6.683 19.915 1 18-7.679-15.19-6.308-34.153-9-50-.163-.962-2.833-.038-3-1-1.298-7.497-1.081-15.432-2-23-4.298 14.751.245 25.463 3 40.5-2.783-1.825-10.375-1.933-12-3.5-3.663-3.532-6.134-18.727-8-24l-5 1.5c-3.157-12.818-4.262-23.027-2-36.5-5.922 15.32-2.284 34.893 4 50-2.34.572-3.91-6.689-4.5-6.5-7.052 2.264 29.204 46.313 30.5 49-16.862-14.729-34.354-26.851-41-49.5-7.104-24.211-4.924-50.375 5-73.5 2.256-5.256 6.676-10.217 9-15.5-4.616 2.078-7.827 9.259-10 13.5-9.991 19.497-12 37.828-10 59.5.367 3.976 3.526 10.264 4 14 .108.849-3.015.135-3 1 .049 2.809 15.261 21.573 13 26l19 16c-22.351-5.838-47.768-31.094-56-52.5 8.161-1.768 2.187-7.034 2-9.5-.417-5.492 3.181-19.6-6-9.5-.011-.16-1.974 1.292-2-2.5-.057-8.196 5.606-18.234 4.5-26.5l-7.5 34.5-3.5-6.5c-2.332 2.096-1.662 6.674-1.5 9.5.161 2.812 2.953 5.668 3 6 .095.678-2.117.328-2 1 2.27 13.017 9.477 24.903 12 38-4.963-2.065-12.126-14.456-13-19-.628-3.264 2.444-1.605 2-5-.446-3.409-4.49.37-6-8.5 3.249-.192.424-9.663 0-12.5-.185-1.234-1.854 1.253-2 0-.732-6.283-.245-15.443 3-21l-4.5 4.5c-3.011-.845 8.457-13.846 9.5-15.5.635-1.006-1.651-2.017-1-3 10.399-15.704 29.065-29.745 44-41-36.552 16.508-74.266 63.091-55.5 104.5-43.386-44.738 1.008-98.796 48.5-114.5l-11 2.5c1.996-6.648-15.013-2.439-19-2 10.598-7.195 28.023-6.37 41-7m16.5 8c-4.1 3.698-12.112 6.947-13.5 12.5 3.638-3.377 8.957-6.261 12.5-9.5.436-.398 3.949-3.003 1-3m7 8c-1.586 2.347-11.828 16.932-12 18-.177 1.103.462 2.089 1 3zm-6 19c-1.679.649-6.847 30.141-6.5 33.5.096.928 2.962.081 3 1 .14 3.392-1.68 9.133-.5 12.5 4.145-2.316 1.749-11.714 2.5-15.5 1.697-8.557 11.005-26.848 1.5-31.5m-80 34-3 12c1.536-1.908 5.41-10.088 3-12" style="fill:url(#f)"/>/&gt;<path fill="#072d63" d="M527 739c20.271 13.122 29.358 50.429 31 73 .169 2.318 1.005 7.201 1 8.5-.001.404-.757 9.859-3 7.5.583-7.062.69-11.849 0-19-2.115-21.929-9.407-40.157-22-58-3.63-5.143-7.408-9.876-11-15 3.491.984 2.822 2.238 4 3"/><path fill="#053e72" d="M611 845c-.333-.339-3.489.595-4-.5l1-35c-7.936-1.371-8.243-18.221-11-24-5.423-11.364-16.468-28.825-28.5-33.5.663 1.503 3.219 3.806 4.5 5 3.125 9.846 9.495 18.179 13 28l-9 2.5c9.722 25.031 5.309 47.715-7 70.5-1.466 2.714-17.076 28.422-20 23.5l8-14.5c23.488-36.396 26.741-77.895-3-112.5-1.376-1.6-8.371-10.446-10-5.5-3.084-3.26-10.354-6.028-11.5-11 2.806.133 15.869 5.191 17 5 3.332-.564-1.179-5.305 0-6 4.261-2.511 35.634 8.429 35.5 11.5-.014.331-2.975 1.01-3 2s11.703 10.762 14 14c15.472 21.806 24.451 56.041 14 80.5"/><path fill="#10518c" d="M553 765c-.354 11.773 1.769 2.128 4 7.5 3.163 7.617 5.662 25.059 6 33.5-2.566 3.278 1.411 7.052-5 6-1.642-22.571-10.729-59.878-31-73 12.188 4.389 20.041 15.082 26 26"/><path fill="#0d84ba" d="M455 745c-11.008 2.651-20.349 8.968-29 16l-8 1.5 19.5-14.5c-14.611 5.455-29.606 17.52-37.5 31-7.58 12.943-11.231 25.734-11 40.5.028 1.783.936 4.959-2 4.5-3.888-16.016-3.765-32.991 3-48 3.248 2.998 6.545-6.718 8-8.5 4.098-5.019 14.449-10.745 14-16.5 1.804-1.161 11.761-8.066 12.5-8 .897.08.133 3.109 1 3 2.132-.269 7.45-2.664 10.5-3 3.987-.439 20.996-4.648 19 2"/><path fill="#0f75af" d="M534 751c12.593 17.843 19.885 36.071 22 58-.059 9.182-5.168 14.854-5 23.5-8.368-.417-5.606 11.916-7 18-1.039 4.534-5.161 11.999-4 16l3.5-7.5c3.944 1.536-1.911 10.2 4.5 1l-20 44.5c1.024-17.099 7.299-33.708 9-51 2.956-30.048-1.062-53.52-10-82-1.728-1.651-1.967.598-2 .5-1.682-4.993-8.611-20.773-9-24.5-.028-.269 2.951-3.043 3-4.5 9.966 6.151 14.418 18.107 19.5 28 1.566-6.649-9.957-15.413-4.5-20"/><path fill="#17bee1" d="M493.5 744c2.949-.003-.564 2.602-1 3-3.543 3.239-8.862 6.123-12.5 9.5 1.388-5.553 9.4-8.802 13.5-12.5"/><path fill="#73726b" d="M403 745v6c-2.196 1.743-5.062 5.734-7 8-1.166-.333-.109-5.72 0-6 1.55-3.988 4.743-5.598 7-8"/><path fill="#075790" d="M558 867c-4.515 6.996-11.11 13.791-15 21.5-5.672 2.625 4.582-12 5-13 9.133-21.882 15.955-45.616 15-69.5-.338-8.441-2.837-25.883-6-33.5-2.231-5.372-4.354 4.273-4-7.5.058-1.922-1.705-2.613-.5-4 9.768 11.084 13.132 27.232 18.5 39.5-3.232-19.065-12.643-37.382-26-51.5 1.629-4.946 8.624 3.9 10 5.5 29.741 34.605 26.488 76.104 3 112.5"/><path fill="#08609b" d="M426 761c-19.575 15.912-22.471 25.345-28 49-5.521 1.08-4.702-8.876-4-13.5.881-5.802 6.583-11.508 6-17.5 7.894-13.48 22.889-25.545 37.5-31L418 762.5z"/><path fill="#04b4df" d="M390 776c5.077-11.264 11.694-18.368 22-25 .449 5.755-9.902 11.481-14 16.5-1.455 1.782-4.752 11.498-8 8.5"/><path fill="#13b9e0" d="m500.5 752-11 21c-.538-.911-1.177-1.897-1-3 .172-1.068 10.414-15.653 12-18"/><path fill="#01497e" d="M593 815c.024-6.573-4.637-23.379-7-30-3.505-9.821-9.875-18.154-13-28 8.165 7.615 20.108 24.784 23 35.5.537 1.989-2.07 6.643-2 7 .063.32 2.621 3.387 3.5 5.5.049.118 1.79-2.211 2.5-.5.061.146-1.729 1.176-1 3 4.278 10.697 6.127 38.514 3 48-.561 1.702-3.62 7.768-6 8 6.043-6.471-1.901-9.363-2-10-.247-1.592 2.276-12.974 2-18-.374-6.818-3.255-13.599-3-20.5"/><path fill="#0c539f" d="m476 777-1-2c2.173-4.241 5.384-11.422 10-13.5-2.324 5.283-6.744 10.244-9 15.5"/><path fill="#11aad8" d="M494.5 771c9.505 4.652.197 22.943-1.5 31.5-.751 3.786 1.645 13.184-2.5 15.5-1.18-3.367.64-9.108.5-12.5-.038-.919-2.904-.072-3-1-.347-3.359 4.821-32.851 6.5-33.5"/><path fill="#246b8d" d="M634 800c-3.109-4.93-8.105-13.76-10-19-.628-1.737-.606-4.087-2-5.5 1.881-4.242 11.369 22.064 12 24.5"/><path fill="#055189" d="M398 810c-2.13 9.111-5.516 17.792-4 27.5-3.237-1.78-6.199-10.199-7-13.5 2.936.459 2.028-2.717 2-4.5-.231-14.766 3.42-27.557 11-40.5.583 5.992-5.119 11.698-6 17.5-.702 4.624-1.521 14.58 4 13.5"/><path fill="#022e5f" d="M586 785c2.363 6.621 7.024 23.427 7 30-.002.577-.877 10.936-1 11.5-.121.558-3.854 1.428-4 2-.204.798-1.185 12.599-2 14-1.267 2.178-13.497 11.787-16 15.5 12.309-22.785 16.722-45.469 7-70.5z"/><path fill="#000a1e" d="M614.5 789c6.456 7.241 6.866 16.909 9.5 25.5.581 1.895 2.935 2.798 3 3 .063.196-1.73 1.51-1 4 .426 1.453 7.584 1.845-1.5 8.5z"/><path fill="#287090" d="M635 802c1.177 5.336 2.201 11.518 2 17-.043 1.174.338 5.983-.5 6l-1.5-6.5z"/><path fill="#074782" d="M414.5 805c2.41 1.912-1.464 10.092-3 12z"/><path fill="#0b5b92" d="M556 828c-.777 9.416-2.674 24.359-8 32-6.411 9.2-.556.536-4.5-1l-3.5 7.5c-1.161-4.001 2.961-11.466 4-16 1.394-6.084-1.368-18.417 7-18-.168-8.646 4.941-14.318 5-23.5.69 7.151.583 11.938 0 19"/><path fill="#0d7aaf" d="M442 839c-3.527-9.171-3.312-9.113-4-19 9.181-10.1 5.583 4.008 6 9.5.187 2.466 6.161 7.732-2 9.5"/><path fill="#367ca2" d="M634.5 836c3.489 3.275-2.192 9.558-3 13z"/><path fill="#0c4e88" d="M424 841c-.034-.199-2.35-2.306-.5-4z"/><path fill="#0a6ea7" d="M509 870c1.424 7.773 2.131 15.771 4 23.5-13.416-11.508-24.745-32.221-29-49.5l5-1.5c1.866 5.273 4.337 20.468 8 24 1.625 1.567 9.217 1.675 12 3.5"/><path fill="#076197" d="M611 845c2.99 3.045-10.508 23.021-15.5 24 6.146-7.843 11.547-14.748 15.5-24"/><path fill="#6295b5" d="M628.5 852c1.395.185-.353 3.086-1 3-1.395-.185.353-3.086 1-3"/><path fill="#1a4552" d="M512 900c.054.113 2.637.878 1.5 2-2.122.452-1.326-1.848-1.5-2"/></svg>