<svg xmlns="http://www.w3.org/2000/svg" width="1024" height="1024"><defs><linearGradient id="a" x1="465.516" x2="780.362" y1="407.853" y2="730.766" gradientUnits="userSpaceOnUse"><stop offset="0%" style="stop-color:#98b9c9"/><stop offset="100%" style="stop-color:#4a7288"/></linearGradient></defs><defs><linearGradient id="b" x1="529.969" x2="462.912" y1="195.22" y2="898.028" gradientUnits="userSpaceOnUse"><stop offset="13.739%" style="stop-color:#c7e2ed"/><stop offset="100%" style="stop-color:#709eaf"/></linearGradient></defs><defs><linearGradient id="c" x1="553.74" x2="546.071" y1="290.557" y2="489.41" gradientUnits="userSpaceOnUse"><stop offset="0%" style="stop-color:#078895"/><stop offset="100%" style="stop-color:#24aec4"/></linearGradient></defs><defs><linearGradient id="d" x1="366.179" x2="646.023" y1="450.114" y2="459.461" gradientUnits="userSpaceOnUse"><stop offset="0%" style="stop-color:#27828e"/><stop offset="55.357%" style="stop-color:#62e2fb"/><stop offset="100%" style="stop-color:#37b9cf"/></linearGradient></defs><defs><linearGradient id="e" x1="423.393" x2="535.647" y1="461.341" y2="520.738" gradientUnits="userSpaceOnUse"><stop offset="0%" style="stop-color:#193d5e"/><stop offset="100%" style="stop-color:#2567a3"/></linearGradient></defs><path fill="#04496c" d="M120 125c-.165.188-2.298 1.286-4 3-2.817 2.837-6.341 4.898-10 6.5 1.124 2.442 1.981 5.038 3 7.5-1.824 2.628.043 7.321 1 10-1.768-2.533-2.609-2.334-3 1-2.208-5.309-4.456-10.61-6.5-16-43.857 13.041-75.842-46.544-39-74 41.533-30.951 92.878 22.962 58.5 62m-59-4c10.522 10.688 21.015 13.011 36 10-.835 8.375 14.212-2.964 16.5-5C167.956 77.545 70.846 21.78 50 82.5c-3.651 10.635.95 9.383 1 10 1.168 14.456-1.367 16.954 10 28.5"/><path fill="#034e74" d="M923 137c-.786-.148-3.245-.754-4-1-.767-.25-1.26-.677-2-1-1.126-.491-10.536-5.579-11-6-.217-.197-1.367-2.157-3-4-32.106-36.23 10.481-88.684 53.5-65 39.512 21.754 19.334 86.965-33.5 77m-5-74c-4.711 2-6.534.518-9 7-3.043 2-7.961 6.168-9 9.5-1.59 5.099 1.144 6.544 1 10.5-.005.125-2.016.799-2 1.5.259 11.501 1.138 17.978 10 25.5 21.78 18.486 47.728 5.435 51-22 .539-4.519-2.138-8.92 3-6.5-3.748-7.394-6.458-12.59-14-16.5-9.833-5.098-12.896-3.22-23-4-2.52-.194-4.777-.854-7-2 40.419-15.069 65.378 31.516 38 55-14.846 12.735-38.307 10.883-52-2.5 10.24 15.227 34.082 17.602 49 8.5 9.96 1.043 20.092-19.677 21-27.5 3.076-26.491-28.946-51.51-53.5-41.5-3.096 1.262-4.057.96-3.5 5"/><path fill="#0074af" d="M97 131c8.25-1.658 8.268-2.859 14-8 31.785-28.503 1.563-74.924-38.5-61-2.975 1.034-10.815 4.04-10.5 8-17.801 10.896-6.03 33.554 13 27 11.634 5.514 9.411-2.64 10-9 .86-9.296 2.654-13.341-6-20 15.75.333 33.158 2.735 38 21l-3.5-3c-.889.683-.529 4.608-.5 6-6.037 23.485-26.84 34.724-49.5 24 .627 3.943 5.273 5.888 8.5 7l-3 3c-3.476-1.439-4.833-4.603-8-5-11.367-11.546-8.832-14.044-10-28.5-.05-.617-4.651.635-1-10 20.846-60.72 117.956-4.955 63.5 43.5-2.288 2.036-17.335 13.375-16.5 5"/><path fill="#0a6e98" d="M954 127c2.318-1.414 3.234-3.192 5-5 29.405-30.106-2.067-75.527-41-59-.557-4.04.404-3.738 3.5-5 24.554-10.01 56.576 15.009 53.5 41.5-.908 7.823-11.04 28.543-21 27.5"/><path fill="#61e2f1" d="M111 123c-2.062.551-1.889-.987-2-1 28.203-25.421 4.362-67.609-32.5-59-.626.146-6.696 1.827-4.5 4-2.38.209-8.114 1.846-10 3-.315-3.96 7.525-6.966 10.5-8 40.063-13.924 70.285 32.497 38.5 61"/><path fill="#60e1f0" d="m959 122-2-1c27.378-23.484 2.419-70.069-38-55-2.782 1.037-7.626 2.44-10 4 2.466-6.482 4.289-5 9-7 38.933-16.527 70.405 28.894 41 59"/><path fill="#01466b" d="M109 122c-.27-.033-.75-.069-1 0 1.22-6.088 8.679-10.509 10-16.5.188-.854-.627-15.093-1-16.5-4.842-18.265-22.25-20.667-38-21-2.64-.056-4.185-1.247-7-1-2.196-2.173 3.874-3.854 4.5-4 36.862-8.609 60.703 33.579 32.5 59"/><path fill="#e0e2e2" d="M926 68c7.347 7.017 6.871 9.877 6 19-2.012 2.35-7.419 9.036-10 10-8.031 3.001-16.38-.214-21-7 .144-3.956-2.59-5.401-1-10.5 1.039-3.332 5.957-7.5 9-9.5 2.374-1.56 7.218-2.963 10-4 2.223 1.146 4.48 1.806 7 2"/><path fill="#dfe1e1" d="M72 67c2.815-.247 4.36.944 7 1 8.654 6.659 6.86 10.704 6 20-2.15 2.17-7.35 8.087-10 9-19.03 6.554-30.801-16.104-13-27 1.886-1.154 7.62-2.791 10-3"/><path fill="#017dbc" d="M949 72c-3.116 5.491-4.505 12.441-6 18.5-.737 2.986 1.398 6.658 1 8-.203.686-7.486 10.932-8.5 11.5-5.171 2.896-12.454-1.064-10.5 10l-16-3c-8.862-7.522-9.741-13.999-10-25.5-.016-.701 1.995-1.375 2-1.5 4.62 6.786 12.969 10.001 21 7 10.321 6.34 9.383-3.537 10-10 .871-9.123 1.347-11.983-6-19 10.104.78 13.167-1.098 23 4"/><path fill="#0068a0" d="M960 95c-4.263 1.413-4.561 9.137-7 12.5-5.892 8.122-18.068 13.617-28 12.5-1.954-11.064 5.329-7.104 10.5-10 1.014-.568 8.297-10.814 8.5-11.5.398-1.342-1.737-5.014-1-8 1.495-6.059 2.884-13.009 6-18.5 7.542 3.91 10.252 9.106 14 16.5-5.138-2.42-2.461 1.981-3 6.5"/><path fill="#015685" d="M117 89c.373 1.407 1.188 15.646 1 16.5-1.321 5.991-8.78 10.412-10 16.5-1.344.369-7.489 5.306-10.5 6-9.63 2.22-19.242 1.832-28.5-2l3-3c23.873 8.229 41.508-6.992 41-31-.029-1.392-.389-5.317.5-6z"/><path fill="#16c4f7" d="M922 97c2.581-.964 7.988-7.65 10-10-.617 6.463.321 16.34-10 10"/><path fill="#1ac5f6" d="M75 97c2.65-.913 7.85-6.83 10-9-.589 6.36 1.634 14.514-10 9"/><path fill="#0b9cd4" d="M72 123c-3.227-1.112-7.873-3.057-8.5-7 22.66 10.724 43.463-.515 49.5-24 .508 24.008-17.127 39.229-41 31"/><path fill="#0c9fd6" d="M960 95c-3.272 27.435-29.22 40.486-51 22l16 3c9.932 1.117 22.108-4.378 28-12.5 2.439-3.363 2.737-11.087 7-12.5"/><path fill="#0ea1c9" d="m957 121 2 1c-1.766 1.808-2.682 3.586-5 5-14.918 9.102-38.76 6.727-49-8.5 13.693 13.383 37.154 15.235 52 2.5"/><path fill="#11a1ca" d="M69 126c9.258 3.832 18.87 4.22 28.5 2 3.011-.694 9.156-5.631 10.5-6 .25-.069.73-.033 1 0 .111.013-.062 1.551 2 1-5.732 5.141-5.75 6.342-14 8-14.985 3.011-25.478.688-36-10 3.167.397 4.524 3.561 8 5"/><path fill="#065a82" d="M120 125c35.606 50.264 83.375 91.156 141 114-1.482 1.489-5.115 6.775-6 9-.438-.188-1.556.188-2 0-6.558-2.777-13.681-5.761-20-9-40.641-20.831-76.51-53.038-103-90-4.897-6.834-9.697-13.766-14-21 1.702-1.714 3.835-2.812 4-3"/><path fill="#04567c" d="M906 129c-4.239 6.341-7.63 13.799-12 20-25.35 35.975-63.994 69.605-103 90-6.378 3.335-13.563 5.729-20 9-1.057-1.121-8.459-8.665-9-9 57.512-22.582 105.933-63.535 141-114 1.633 1.843 2.783 3.803 3 4"/><path fill="#37c8e9" d="M130 149c-5.18.51-2.276 4.189-1 6.5 16.543 29.949 68.747 71.377 98 89.5-8.127 7.472-.622 7.655 6 10 5.181 1.834 8.072 6.262 13-.5-3.512-3.122-5.923-5.827-10-2.5-1.755-2.423-4.499-5.446-7-7l4-6c6.319 3.239 13.442 6.223 20 9-4.405 6.266-10.784 11.655-15 18-2.323-1.326-5.7-1.857-8-3-2.335-1.161-10.613-7.55-12.5-7-2.802.817-16.606 28.314-20 32-13.978-18.06-28.384-36.097-40.5-55.5-15.487-24.802-36.938-63.776-48-90.5-1.019-2.462-1.876-5.058-3-7.5 3.659-1.602 7.183-3.663 10-6.5 4.303 7.234 9.103 14.166 14 21m-6.5 1c22.497 41.052 56.245 78.591 95 105 1.567-1.232 3.445-3.366 2.5-5.5-.739-1.669-25.141-17.698-29.5-21.5-26.093-22.756-49.422-48.689-68-78"/><path fill="#36c7e7" d="M917 135c-25.243 53.39-51.784 107.034-90.5 152-3.011-3.616-17.937-30.618-21-31-.6-.075-8.604 5.069-10.5 6-3.087 1.516-6.756 2.774-10 4-3.449-4.833-10.701-11.859-15-16.5-.061-.066 1.414-1.061 1-1.5 6.437-3.271 13.622-5.665 20-9l4 6c-3.019 1.727-5.985 3.313-9 5-2.854 1.597-11.04 3.09-6 7.5 4.158 3.638 6.595-.271 10-1.5 6.619-2.39 14.982-4.101 7-11 38.47-22.333 72.135-54.782 97-91.5.487-.718 3.746-4.966 0-4.5 4.37-6.201 7.761-13.659 12-20 .464.421 9.874 5.509 11 6m-17.5 16c-19.392 30.386-43.591 56.75-71 80-3.491 2.961-26.432 18.624-26.5 20.5-.008.215 2.031 3.371 2.5 3.5 29.94-19.029 57.672-47.779 78.5-76.5 1.495-2.062 18.623-26.686 16.5-27.5"/><path fill="#3a738c" d="M759 238c-.503-.003-8.899 4.007-9 4.5-.096.47 4.665 5.605 6 7.5-7.215-6.438-13.895-13.436-21-20-47.667-44.037-112.361-74.27-177-83-.966-.13-2.031.121-3 0 .823-1.789 2.341-2.475-.5-4-2.754-1.479-51.492-6.301-57-6-28.283 1.546-57.674 15.02-86.5 12 121.686-35.032 260.923-4.347 348 89"/><path fill="#1281a8" d="M919 136c-23.249 58.375-44.575 120.23-87 167.5l-5.5-15.5-8 8-23.5-34c1.896-.931 9.9-6.075 10.5-6 3.063.382 17.989 27.384 21 31 38.716-44.966 65.257-98.61 90.5-152 .74.323 1.233.75 2 1"/><path fill="#055a7f" d="M923 137c-27.028 67.841-52.697 141.413-104 195-7.71-22.094-20.416-46.962-34-66 3.244-1.226 6.913-2.484 10-4l23.5 34 8-8 5.5 15.5c42.425-47.27 63.751-109.125 87-167.5.755.246 3.214.852 4 1"/><path fill="#407c96" d="M555 147c-105.473-13.191-221.196 24.68-292 105-2.883-.783-5.286-2.833-8-4 .885-2.225 4.518-7.511 6-9 41.48-41.69 93.296-73.676 150-90 28.826 3.02 58.217-10.454 86.5-12 5.508-.301 54.246 4.521 57 6 2.841 1.525 1.323 2.211.5 4"/><path fill="#1286ae" d="M230 263c-7.064 1.183-21.924 34.517-24.5 34l-7-7-7 15c-35.333-44.604-62.347-99.387-81.5-153-.957-2.679-2.824-7.372-1-10 11.062 26.724 32.513 65.698 48 90.5 12.116 19.403 26.522 37.44 40.5 55.5 3.394-3.686 17.198-31.183 20-32 1.887-.55 10.165 5.839 12.5 7"/><path fill="#d9ebf2" d="M555 147c.969.121 2.034-.13 3 0 .111 5.634 4.391 12.336-1 16-60.297-14.262-145.094 3.765-199.5 32-96.698 50.183-149.415 138.905-151.5 248-1.639-10.337-8.174-9.874-13-2 2.828-64.66 26.814-140.009 70-189 70.804-80.32 186.527-118.191 292-105"/><path fill="#bdd6e2" d="m735 230-6 12c-40.065-38.771-102.417-69.18-157.5-78-1.289-.206-7.717-1.868-6.5 2-2.491-.779-5.574-2.426-8-3 5.391-3.664 1.111-10.366 1-16 64.639 8.73 129.333 38.963 177 83"/><path fill="#9bf4fd" d="M130 149c26.49 36.962 62.359 69.169 103 90l-4 6c-.324-.202-1.675.202-2 0-29.253-18.123-81.457-59.551-98-89.5-1.276-2.311-4.18-5.99 1-6.5"/><path fill="#98f3fd" d="M797 245c-.345.201-1.649-.201-2 0l-4-6c39.006-20.395 77.65-54.025 103-90 3.746-.466.487 3.782 0 4.5-24.865 36.718-58.53 69.167-97 91.5"/><path fill="#056088" d="M110 152c19.153 53.613 46.167 108.396 81.5 153l7-15 7 7c2.576.517 17.436-32.817 24.5-34 2.3 1.143 5.677 1.674 8 3-10.831 16.3-27.47 47.753-34 66-47.997-49.814-70.968-116.404-97-179 .391-3.334 1.232-3.533 3-1"/><path fill="#a5f7fe" d="M123.5 150c18.578 29.311 41.907 55.244 68 78 4.359 3.802 28.761 19.831 29.5 21.5.945 2.134-.933 4.268-2.5 5.5-38.755-26.409-72.503-63.948-95-105"/><path fill="#a6f6fd" d="M899.5 151c2.123.814-15.005 25.438-16.5 27.5-20.828 28.721-48.56 57.471-78.5 76.5-.469-.129-2.508-3.285-2.5-3.5.068-1.876 23.009-17.539 26.5-20.5 27.409-23.25 51.608-49.614 71-80"/><path fill="#f1f8fa" d="M557 163c2.426.574 5.509 2.221 8 3 16.852 5.27 33.68 14.307 49 23l11 15c-122.653-44.661-265.712 2.336-328 118.5-32.893 61.344-38.97 126.741-35 195.5l-54-13c-1.788-19.059.65-45.285-2-62 2.085-109.095 54.802-197.817 151.5-248 54.406-28.235 139.203-46.262 199.5-32"/><path fill="url(#a)" d="M729 242c133.471 129.16 79.598 375.756 1 521-43.569 80.512-130.438 191.431-233.5 182-30.787-2.817-66.88-21.634-90.5-41 44.542-4.519 90.108-23.244 127-48 29.147-.989 118.88-7.504 136-31.5 28.649-40.155 19.265-78.434-23-101.5 47.355-76.627 78.094-166.389 85-257 17.316-6.098 14.32-31.384-1-35 1.338-85.685-37.079-163.828-97-223 9.124 3.677 17.676 8.491 27 11.5-14.841-10.907-29.963-21.4-46-30.5-15.32-8.693-32.148-17.73-49-23-1.217-3.868 5.211-2.206 6.5-2 55.083 8.82 117.435 39.229 157.5 78" style="fill:url(#a)"/>/&gt;<path fill="url(#b)" d="M625 204c1.991.725 5.966 3.18 8 4 59.921 59.172 98.338 137.315 97 223-1.328-.313-11.667-.313-13 0-5.185-39.301-24.472-80.277-53-108-104.925-125.07-308.747-77.548-350 79.5-2.422 9.219-2.491 21.478-5 30-.994 3.376.769 2.088-3 1.5-34.577-19.281-40.941 48.129 1 30 4.809 55.465 26.877 98.663 65 138 127.203 131.255 345.062 44.774 348-135 3.992.447 7.109.37 11-1-6.906 90.611-37.645 180.373-85 257-69.92-38.158-205.632-38.763-274.5 2-39.798 23.556-44.345 55.815-23.5 95.5 8.612 16.395 34.637 21.669 51.5 25.5 43.288 9.835 89.146 11.505 133.5 10-36.892 24.756-82.458 43.481-127 48-.978.099-2.018-.083-3 0-58.91-47.272-100.599-111.954-132-180 9.497 2.155 21.235 3.038 31 4.5-8.866-31.357-17.601-62.503-24-94.5-7.512-37.565-13.79-77.722-16-116-3.97-68.759 2.107-134.156 35-195.5C359.288 206.336 502.347 159.339 625 204" style="fill:url(#b)"/>/&gt;<path fill="#d4e4eb" d="M633 208c-2.034-.82-6.009-3.275-8-4l-11-15c16.037 9.1 31.159 19.593 46 30.5-9.324-3.009-17.876-7.823-27-11.5"/><path fill="#91b5c4" d="M756 250c46.098 65.441 66.909 103.712 72 187 1.184 19.37 1.327 38.641 0 58-2.216 32.317-8.32 66.572-16 98-14.562 59.585-40.275 122.569-70 176-4.254-1.688-7.124-6.818-12-6 78.598-145.244 132.471-391.84-1-521l6-12c7.105 6.564 13.785 13.562 21 20"/><path fill="#2c637d" d="M762 239c.541.335 7.943 7.879 9 9 .414.439-1.061 1.434-1 1.5 4.299 4.641 11.551 11.667 15 16.5 13.584 19.038 26.29 43.906 34 66 6.003 17.203 9.656 35.784 14 53.5 1.115 1.822 2.691 1.282 3 1.5-2.78 3.13 1.56 8.687 2 11 .414 2.174.523 5.983 1 9 .374 2.363.743 4.604 1 7 .481 4.492.873 8.437 1 13 .066 2.367.106 4.593 0 7-.06 1.374.364 8.987-.5 9l-1-5-11.5-1c-5.091-83.288-25.902-121.559-72-187-1.335-1.895-6.096-7.03-6-7.5.101-.493 8.497-4.503 9-4.5.158.001 2.865.917 3 1"/><path fill="#2cb7d2" d="M229 245c2.501 1.554 5.245 4.577 7 7-.602.491-1.497 2.962-3 3-6.622-2.345-14.127-2.528-6-10 .325.202 1.676-.202 2 0"/><path fill="#26b2ce" d="M797 245c7.982 6.899-.381 8.61-7 11l-4-6c3.015-1.687 5.981-3.273 9-5 .351-.201 1.655.201 2 0"/><path fill="#336c85" d="M255 248c2.714 1.167 5.117 3.217 8 4-43.186 48.991-67.172 124.34-70 189-4.12 94.219 25.198 195.276 64 280 31.512 68.806 72.56 133.956 131 183-.357-.03-5.397 1.667-7 1.5 2.83 1.203 4.568 3.786 7 5.5.014 3.63-.638 4.815-4 5-95.56-75.739-153.595-208.724-181-325 1.157.004 2.332-.003 3.5 0 1.763-1.605-8.412-40.443-9.5-46.5-1.241-6.907-4.807-44.953-6-47-2.629-4.51-9.267 1.869-10 3.5-1.867-21.487-.675-43.523 1-65 .216-2.775.741-5.341 1-8 .421-4.328.424-8.633 1-13 .304-2.306.64-4.704 1-7 .508-3.243.598-7.87 1-10 .37-1.959 2.19-6.372 3-10 3.51-15.721 10.023-42.092 15-56 6.53-18.247 23.169-49.7 34-66 4.216-6.345 10.595-11.734 15-18 .444.188 1.562-.188 2 0"/><path fill="#0b92ba" d="M233 255c1.503-.038 2.398-2.509 3-3 4.077-3.327 6.488-.622 10 2.5-4.928 6.762-7.819 2.334-13 .5"/><path fill="#1084ab" d="m786 250 4 6c-3.405 1.229-5.842 5.138-10 1.5-5.04-4.41 3.146-5.903 6-7.5"/><path fill="#054563" d="M664 323c26.235 31.272 42.667 70.516 48 111-1.28.83-3.153 3.584-4 5-11.616-144.704-176.254-233.796-301-154-48.211 25.589-85.926 84.368-93 138-.793 6.012-.52 11.554-1 17-2.401-2.373-3.884-4.262-7-6 3.769.588 2.006 1.876 3-1.5 2.509-8.522 2.578-20.781 5-30 41.253-157.048 245.075-204.57 350-79.5"/><path fill="#34c5e3" d="M708 439c-.036.061-.422-.352-1 1-7.242-36.858-19.202-71.698-44-100.5-2.359-2.74-23.986-27.075-27-20 9.704 14.755 23.099 26.512 32 42 47.785 83.146 25.91 186.611-52.5 241.5-6.633 4.643-36.837 18.195-38 20-1.28 1.986 3.806 7.276 2 10-3.239-.514-2.667-8.329-4-9-.725-.365-7.536 2.534-9.5 3-31.316 7.428-58.938 12.316-91.5 6-1.488 8.49-1.465 10.921 7 13 24.542 6.029 62.523-.788 86.5-8 68.599-20.634 119.544-77.298 134-147.5 2.203-10.696 2.019-21.98 5-32.5.025.818.967 1.081 1 3 1.877 109.047-106.774 194.885-211.5 189-95.458-5.364-196.344-96.939-181.5-196.5.471-3.161.768-10.026-2-12.5.027-.331-.029-.669 0-1 .48-5.446.207-10.988 1-17l12 14.5c3.513-108.696 104.136-180.94 209-171-42.883-9.84-89.511-1.929-128 18.5 124.746-79.796 289.384 9.296 301 154M493.5 274c-223.502 16.102-214.203 371.806 29 357 235.964-14.365 212.288-374.383-29-357"/><path fill="#7af0fd" d="M314 423c7.074-53.632 44.789-112.411 93-138 38.489-20.429 85.117-28.34 128-18.5-104.864-9.94-205.487 62.304-209 171z"/><path fill="#024667" d="M493.5 274c241.288-17.383 264.964 342.635 29 357-243.203 14.806-252.502-340.898-29-357M414 313c-13.858 4.565-29.522 18.59-37 31-55.373 68.392-55.303 157.683 12 218-4.54-.272-8.522 6.253-5 11.5 14.366 21.404 67.891 45.152 93 49.5 61.876 10.715 121.368-8.769 163-55 3.111-3.454 4.788-6.189 7-9 11.679-14.844 16.518-21.129 24-39 62.182-148.531-100.161-295.499-240.5-221-3.85 2.044-18.158 9.343-16.5 14"/><path fill="url(#c)" d="M671 520c-3.934-2.327-13.223-13.168-14-17-.214-1.053-.027-2.774 0-4 .148-6.819 5.25-18.445 6-26.5 2.133-22.891-1.159-42.903-8-64.5-17.921-56.576-67.233-97.852-128-105-21.846-2.57-39.968-1.839-61.5 4-2.311.627-9.314 2.753-10.5 5-14.229-3.773-26.98-3.618-41 1-1.658-4.657 12.65-11.956 16.5-14 140.339-74.499 302.682 72.469 240.5 221" style="fill:url(#c)"/>/&gt;<path fill="url(#d)" d="M527 303c1.137 4.052-4.573 4.906-5 7.5-1.707 10.37 34.758 19.829 43.5 24.5 27.705 14.804 51.779 41.346 64.5 70 14.001 31.538 11.901 63.906 27 94-.027 1.226-.214 2.947 0 4-8.24 12.086-11.832 27.365-20 39.5-6.586 9.785-15.75 16.834-24 25l14 1.5c-5.557 1.163-14.431-.432-16.5 0-1.047.219-13.708 11.173-17 13-38.17 21.179-69.677 28.396-113.5 22-33.591-4.903-65.681-19.309-91-42-67.303-60.317-67.373-149.608-12-218-19.146 31.775-6.668 74.973 28 89-5.396 25.178-1.344 50.531 11 73 11.077 20.163 32.344 38.98 54 47 27.982 10.363 62.826 10.285 89-5 7.336-.486 20.507-8.603 24-15 49.138-41.158 47.097-113.444 1-156-14.41-13.303-31.368-23.888-51-27 2.376-24.455-34.136-34.99-39.5-9-8.185-14.439-22.599-24.784-38.5-29 1.186-2.247 8.189-4.373 10.5-5 21.532-5.839 39.654-6.57 61.5-4M360.5 410c-14.945 35.774-15.191 80.648 8 113-11.829-36.165-16.748-75.524-8-113" style="fill:url(#d)"/>/&gt;<path fill="#016288" d="m655 408-25-3c-12.721-28.654-36.795-55.196-64.5-70-8.742-4.671-45.207-14.13-43.5-24.5.427-2.594 6.137-3.448 5-7.5 60.767 7.148 110.079 48.424 128 105"/><path fill="#f6f7f7" d="M455 312c15.901 4.216 30.315 14.561 38.5 29 5.364-25.99 41.876-15.455 39.5 9-.121 1.249-3.104 7.869-4 9-10.854 13.711-26.358 2.18-27 3.5 1.973 11.417.071 21.743-4 32.5-6.554 17.319-14.888 20.136-26 32-13.279 6.466-23.803 11-39 11-8.376 0-20.247-1.863-28-5-34.668-14.027-47.146-57.225-28-89 7.478-12.41 23.142-26.435 37-31 14.02-4.618 26.771-4.773 41-1"/><path fill="#075d88" d="M707 440c-4.318 10.091-.227 10.651 0 18-2.981 10.52-2.797 21.804-5 32.5-14.456 70.202-65.401 126.866-134 147.5l-2-11c1.964-.466 8.775-3.365 9.5-3 1.333.671.761 8.486 4 9 1.806-2.724-3.28-8.014-2-10 1.163-1.805 31.367-15.357 38-20 78.41-54.889 100.285-158.354 52.5-241.5-8.901-15.488-22.296-27.245-32-42 3.014-7.075 24.641 17.26 27 20 24.798 28.802 36.758 63.642 44 100.5"/><path fill="#6b8692" d="M717 431c-.284.067-4.23 2.501-5 3-5.333-40.484-21.765-79.728-48-111 28.528 27.723 47.815 68.699 53 108"/><path fill="#107a99" d="M584 377c-2.75 2.282-3.404 6.95-7 5-13.426-11.465-30.947-19.08-48-23 .896-1.131 3.879-7.751 4-9 19.632 3.112 36.59 13.697 51 27"/><path fill="#21578d" d="M577 382c40.571 34.645 45.62 96.974 10 137-.271-12.612-14.077-22.234-26-21 23.739-28.131 18.215-70.58-10.5-93-11.601-9.058-40.977-21.823-52.5-10 4.071-10.757 5.973-21.083 4-32.5.642-1.32 16.146 10.211 27-3.5 17.053 3.92 34.574 11.535 48 23"/><path fill="#20a3cc" d="M583 533c1.21-2.216 4.045-11.886 4-14 35.62-40.026 30.571-102.355-10-137 3.596 1.95 4.25-2.718 7-5 46.097 42.556 48.138 114.842-1 156"/><path fill="#13455f" d="M820 592c-.38.135-6.524-.065-8 1 7.68-31.428 13.784-65.683 16-98l11 1.5c1.817 2.429-8.33 52.589-9 60-.217 2.398-.901 6.587 3 6.5l-3.5 20c10.467-6.361 42.284-10.055 48.5-19.5 5.3-8.053 6.71-29.034 8-39 2.637-20.373 5.273-40.603 3-61-.304-2.725 2.814-12.605-4-13.5-1.492-10.187-6.786-31.476-13-39.5-7.896-10.196-22.297-8.792-34-12.5-.44-2.313-4.78-7.87-2-11 7.36 5.183 26.461 6.654 34.5 12 25.058 16.665 25.071 89.861 22.5 116.5-1.217 12.614-7.541 52.36-18.5 58.5-9.785 5.482-41.426 13.355-54.5 18"/><path fill="#0b4663" d="M189 388c-.81 3.628-2.63 8.041-3 10-6.276 2.224-18.025 2.746-23.5 5-16.2 6.669-22.564 48.239-23.5 64-.537 9.055-.491 20.924 0 30l-4-1.5c1.627 18.294.852 35.473 5 53.5-10.742-36.618-13.726-102.215 5-136.5 10.273-18.808 25.21-18.544 44-24.5"/><path fill="#1b2b5b" d="M561 498c-7.947.823-22.594 11.305-25 19-47.544 16.612-95.054-19.647-92-69.5 1.248-4.266 6.385-.363 10.5-1.5 9.875-2.728 11.201-12.275 17.5-19 11.112-11.864 19.446-14.681 26-32 11.523-11.823 40.899.942 52.5 10 28.715 22.42 34.239 64.869 10.5 93"/><path fill="#adf8fc" d="M186 398c-.402 2.13-.492 6.757-1 10-10.502 4.256-34.728 1.857-32.5 18 8.136-6.855 21.05-10.108 31.5-11-.576 4.367-.579 8.672-1 13-5.476 1.267-32.473 7.416-35 10.5-3.57 4.356-4.906 30.854-5 37.5-5.774 1.024-1.092-6.132-4-9 .936-15.761 7.3-57.331 23.5-64 5.475-2.254 17.224-2.776 23.5-5"/><path fill="#a4f6fc" d="M885 450c1.542 10.529 2.244 24.324 2 35l-4 3c.657-7.375-1.544-43.422-5-48.5-3.061-4.498-26.998-8.794-33-10.5-.257-.073-2.534-2.709-4-2-.127-4.563-.519-8.508-1-13l32.5 11 1.5-2.5c-.898-9.902-27.731-11.982-35-15.5-.477-3.017-.586-6.826-1-9 11.703 3.708 26.104 2.304 34 12.5 6.214 8.024 11.508 29.313 13 39.5"/><path fill="#0a77ad" d="M655 408c6.841 21.597 10.133 41.609 8 64.5-.75 8.055-5.852 19.681-6 26.5-15.099-30.094-12.999-62.462-27-94z"/><path fill="#2bcbeb" d="M840 414c-.257-2.396-.626-4.637-1-7 7.269 3.518 34.102 5.598 35 15.5l-1.5 2.5z"/><path fill="#2cc7e7" d="M185 408c-.36 2.296-.696 4.694-1 7-10.45.892-23.364 4.145-31.5 11-2.228-16.143 21.998-13.744 32.5-18"/><path fill="#bce1ec" d="M360.5 410c-8.748 37.476-3.829 76.835 8 113-23.191-32.352-22.945-77.226-8-113"/><path fill="url(#e)" d="M472 427c-6.299 6.725-7.625 16.272-17.5 19-4.115 1.137-9.252-2.766-10.5 1.5-3.054 49.853 44.456 86.112 92 69.5-3.011 9.63-.328 22.796 9 28-21.81 11.335-48.471 8.979-71 1-21.315-7.55-39.924-23.202-51-43-5.697-10.183-15.063-35.279-12-46.5 2.283-8.363 8.903-2.432 9.5-2.5 1.009-.115 12.213-13.197 12.5-16 15.197 0 25.721-4.534 39-11" style="fill:url(#e)"/>/&gt;<path fill="#25c7e2" d="m845 429 3 68.5 33.5 1.5c1.169-3.595 1.17-7.294 1.5-11l4-3c-.433 18.989-3.997 38.526-8 57 2.002-12.325 1.436-25.989 3-38.5l-33.5-1.5-7.5 57c-.237.065-1.539 3.268-4.5 2l.5-2c8.687-33.453 6.369-71.233 7-105.5l-3-19.5c.106-2.407.066-4.633 0-7 1.466-.709 3.743 1.927 4 2"/><path fill="#11b0d0" d="M183 428c-.259 2.659-.784 5.225-1 8-3.799 2.677-1.738 11.319-2 15.5-.048.77-1.967.234-2 1-.618 14.502 1.004 29.427 0 44l-33.5 3.5c-2.446-.835-1.549-20.49-1.5-24 .094-6.646 1.43-33.144 5-37.5 2.527-3.084 29.524-9.233 35-10.5"/><path fill="#10adcd" d="M883 488c-.33 3.706-.331 7.405-1.5 11l-33.5-1.5-3-68.5c6.002 1.706 29.939 6.002 33 10.5 3.456 5.078 5.657 41.125 5 48.5"/><path fill="#003347" d="M306 434c3.116 1.738 4.599 3.627 7 6-.029.331.027.669 0 1-.584 7.158 1.6 19.429-6 23-41.941 18.129-35.577-49.281-1-30m-13.5 5c-11.485 2.76-9.433 23.615 5 22 13.891-1.554 12.267-26.15-5-22"/><path fill="#002e42" d="M730 431c15.32 3.616 18.316 28.902 1 35-3.891 1.37-7.008 1.447-11 1-2.409-.27-6.093-3.141-8-1-.16-2.308-.967-5.118-4-5-.033-1.919-.975-2.182-1-3-.227-7.349-4.318-7.909 0-18 .578-1.352.964-.939 1-1 .847-1.416 2.72-4.17 4-5 .77-.499 4.716-2.933 5-3 1.333-.313 11.672-.313 13 0m-9.5 8c-11.854 2.849-8.995 24.429 6 22 12.524-2.029 11.168-26.126-6-22"/><path fill="#208597" d="M433 438c-.287 2.803-11.491 15.885-12.5 16-.597.068-7.217-5.863-9.5 2.5-3.063 11.221 6.303 36.317 12 46.5l-7 3c-12.344-22.469-16.396-47.822-11-73 7.753 3.137 19.624 5 28 5"/><path fill="#195674" d="M837 559c-.071.274-3.361 2.99-4 4-3.901.087-3.217-4.102-3-6.5.67-7.411 10.817-57.571 9-60l-11-1.5c1.327-19.359 1.184-38.63 0-58l11.5 1 1 5c.864-.013.44-7.626.5-9l3 19.5c-.631 34.267 1.687 72.047-7 105.5"/><path fill="#29cce4" d="M182 436c-1.675 21.477-2.867 43.513-1 65-1.901 4.227-.93 10.388-1 15-4.015-1.378-1.562-12.647-3.5-14-1.976-1.379-27.387.997-32 1-2.449 1.737 1.632 32.016 2.5 37l-1 2c-3.464-14.169-6.212-30.432-7-45-.491-9.076-.537-20.945 0-30 2.908 2.868-1.774 10.024 4 9-.049 3.51-.946 23.165 1.5 24l33.5-3.5c1.004-14.573-.618-29.498 0-44 .033-.766 1.952-.23 2-1 .262-4.181-1.799-12.823 2-15.5"/><path fill="#c3dbe5" d="M206 443c2.65 16.715.212 42.941 2 62 3.906 41.63 14.875 82.422 26 122.5l44 6.5c6.399 31.997 15.134 63.143 24 94.5-9.765-1.462-21.503-2.345-31-4.5-3.249-.737-9.71-5.646-14-3-38.802-84.724-68.12-185.781-64-280 4.826-7.874 11.361-8.337 13 2"/><path fill="#0a8699" d="M292.5 439c17.267-4.15 18.891 20.446 5 22-14.433 1.615-16.485-19.24-5-22"/><path fill="#097687" d="M720.5 439c17.168-4.126 18.524 19.971 6 22-14.995 2.429-17.854-19.151-6-22"/><path fill="#054563" d="M708 461c3.033-.118 3.84 2.692 4 5 1.978 28.567-19.401 79.209-36 102.5-70.667 99.155-213.121 114.102-304 33.5-38.123-39.337-60.191-82.535-65-138 7.6-3.571 5.416-15.842 6-23 2.768 2.474 2.471 9.339 2 12.5-14.844 99.561 86.042 191.136 181.5 196.5 104.726 5.885 213.377-79.953 211.5-189"/><path fill="#01324e" d="M833 563c.639-1.01 3.929-3.726 4-4l-.5 2c2.961 1.268 4.263-1.935 4.5-2 11.383-3.133 22.767-5.936 33.5-11v11c1.964-5.54 3.556-11.189 4.5-17 4.003-18.474 7.567-38.011 8-57 .244-10.676-.458-24.471-2-35 6.814.895 3.696 10.775 4 13.5 2.273 20.397-.363 40.627-3 61-1.29 9.966-2.7 30.947-8 39-6.216 9.445-38.033 13.139-48.5 19.5z"/><path fill="#6a838f" d="M720 467c-2.938 179.774-220.797 266.255-348 135 90.879 80.602 233.333 65.655 304-33.5 16.599-23.291 37.978-73.933 36-102.5 1.907-2.141 5.591.73 8 1"/><path fill="#023755" d="M139 497c.788 14.568 3.536 30.831 7 45 1.122 4.588 2.835 13.763 5 17.5 2.866 4.947-.852-10.837-1-11.5 10.315 4.636 24.074 7.337 34 12 12.68 5.957 9.708 9.516 12.5 23-2.514 1.518-37.058-14.131-41-14-2.643.088-3.784.594-3.5 3.5 9.179 3.217 20.611 5.198 29.5 8.5.746.277 3.196 2.881 3.5 3-28.596-7.691-37.993-4.544-45-35-4.148-18.027-3.373-35.206-5-53.5z"/><path fill="#0c4563" d="M203 591c-3.112-.012-14.437-5.607-18-7-.304-.119-2.754-2.723-3.5-3-8.889-3.302-20.321-5.283-29.5-8.5-.284-2.906.857-3.412 3.5-3.5 3.942-.131 38.486 15.518 41 14-2.792-13.484.18-17.043-12.5-23-1.109-14.589-4.223-29.237-4-44 .07-4.612-.901-10.773 1-15 .733-1.631 7.371-8.01 10-3.5 1.193 2.047 4.759 40.093 6 47 1.088 6.057 11.263 44.895 9.5 46.5-1.168-.003-2.343.004-3.5 0"/><path fill="#fcfcfd" d="M587 519c.045 2.114-2.79 11.784-4 14-3.493 6.397-16.664 14.514-24 15-5.563.368-9.149-.294-14-3-9.328-5.204-12.011-18.37-9-28 2.406-7.695 17.053-18.177 25-19 11.923-1.234 25.729 8.388 26 21"/><path fill="#0b7291" d="M180 516c-.223 14.763 2.891 29.411 4 44-9.926-4.663-23.685-7.364-34-12-.263-1.179-2.578-5.574-3-8-.868-4.984-4.949-35.263-2.5-37 4.613-.003 30.024-2.379 32-1 1.938 1.353-.515 12.622 3.5 14"/><path fill="#0b6c8c" d="M879 542c-.944 5.811-2.536 11.46-4.5 17v-11c-10.733 5.064-22.117 7.867-33.5 11l7.5-57 33.5 1.5c-1.564 12.511-.998 26.175-3 38.5"/><path fill="#29a1c8" d="M423 503c11.076 19.798 29.685 35.45 51 43l-4 7c-21.656-8.02-42.923-26.837-54-47z"/><path fill="#56bdd2" d="M657 503c.777 3.832 10.066 14.673 14 17-7.482 17.871-12.321 24.156-24 39-2.888 1.392-5.178 3.451-8 5-3.672 2.016-7.877 4.137-12 5l-14-1.5c8.25-8.166 17.414-15.215 24-25 8.168-12.135 11.76-27.414 20-39.5"/><path fill="#d9ebf2" d="M262 518c2.21 38.278 8.488 78.435 16 116l-44-6.5c-11.125-40.078-22.094-80.87-26-122.5Z"/><path fill="#098cab" d="M150 548c.148.663 3.866 16.447 1 11.5-2.165-3.737-3.878-12.912-5-17.5l1-2c.422 2.426 2.737 6.821 3 8"/><path fill="#35c1ed" d="M559 548c-26.174 15.285-61.018 15.363-89 5l4-7c22.529 7.979 49.19 10.335 71-1 4.851 2.706 8.437 3.368 14 3"/><path fill="#1066a1" d="m640 568-1-4c2.822-1.549 5.112-3.608 8-5-2.212 2.811-3.889 5.546-7 9m-251-6c25.319 22.691 57.409 37.097 91 42l-3 19c-25.109-4.348-78.634-28.096-93-49.5-3.522-5.247.46-11.772 5-11.5"/><path fill="#1b8fcc" d="M640 568c-41.632 46.231-101.124 65.715-163 55l3-19c43.823 6.396 75.33-.821 113.5-22 3.292-1.827 15.953-12.781 17-13 2.069-.432 10.943 1.163 16.5 0 4.123-.863 8.328-2.984 12-5z"/><path fill="#2d596f" d="M820 592c-28.499 119.054-92.204 263.915-195.5 336-85.124 59.404-161.231 50.827-240.5-12 3.362-.185 4.014-1.37 4-5 3.29 2.318 17.845 12.04 21 8 148.244 92.54 263.363-24.825 333-150 29.725-53.431 55.438-116.415 70-176 1.476-1.065 7.62-.865 8-1"/><path fill="#1c8dba" d="M568 638c-23.977 7.212-61.958 14.029-86.5 8-8.465-2.079-8.488-4.51-7-13 32.562 6.316 60.184 1.428 91.5-6z"/><path fill="#072a3d" d="M646 723c42.265 23.066 51.649 61.345 23 101.5-17.12 23.996-106.853 30.511-136 31.5-44.354 1.505-90.212-.165-133.5-10-16.863-3.831-42.888-9.105-51.5-25.5-20.845-39.685-16.298-71.944 23.5-95.5 68.868-40.763 204.58-40.158 274.5-2m-273 7c-21.327 13.397-35.916 28.118-34 55 1.321 18.54 10.557 33.238 27 42 57.557 30.672 199.496 26.645 262 9 28.746-8.115 54.054-20.789 54-55-.111-70.396-134.243-84.593-185-83-41.086 1.29-88.917 9.962-124 32"/><path fill="#99eaf7" d="M497 698c-3.576 3.476-2.587 6.057-7 9-37.371 2.054-75.499 8.73-108 28-10.757 4.801-27.713 19.049-34 29-4.448-.084 3.196-9.506 4-10.5 4.147-5.126 22.57-17.572 23-19 .688-2.286-1.443-2.852-2-4.5 35.083-22.038 82.914-30.71 124-32"/><path fill="#65cfea" d="M682 781c-2.857-10.682-6.203-17.349-13-26-33.644-42.823-128.495-50.776-179-48 4.413-2.943 3.424-5.524 7-9 50.757-1.593 184.889 12.604 185 83"/><path fill="#083c59" d="M669 755c-12.776-6.867-22.124-21.64-37.5-22 .038 2.368.097 2.686-.5 5l-43.5-17c-2.071.658-2.07 7.145-2.5 9h-2c.059-.322-.054-.675 0-1 .349-2.112 2.854-9.719 1.5-11-23.27-5.606-45.69-6.604-69.5-7-2.907-.048-2.842 1.001-3 1-1.377-.006-2.607-.015-4 0-10.883.118-20.9-.969-32 0-13.779 1.203-25.742 4.036-39 7-17.363 3.882-30.482 8.333-47 15-1.209.488-6.377.276-8 1 32.501-19.27 70.629-25.946 108-28 50.505-2.776 145.356 5.177 179 48"/><path fill="#cccfce" d="M508 712c-3.722 10.184-2.652 36.464-8 44.5-4.256 6.396-20.517 6.754-28 7.5-4.11-2.578-10.004 1.359-14.5 0-9.635-2.912-14.791-29.452-17.5-38l37.5-10-1.5-4c11.1-.969 21.117.118 32 0"/><path fill="#11111e" d="M512 712c4.424 12.537 1.701 45.667 16.5 50 5.682 1.664 35.277 4.588 40 2 6.669-3.654 13.133-26.532 14.5-34h2c-4.097 17.681-9.259 45.143 17.5 37 14.351-4.367 24.562-14.061 28.5-28 42.099 14.357 45.953 67.033 3.5 84-3.265 1.305-6.191-.102-6.5 0 7.97-29.76-10.705-43.721-37.5-49-18.923-3.728-26.58-7.038-27.5 14-.313 14.608-7.899 32.627 0 45.5-5.668.562-11.308 1.277-17 1.5 8.798-9.24 18.493-46.41 15-57.5-2.343-7.439-32.405-9.577-39-8.5-3.313.541-8.253 2.447-10 5.5-2.019 3.529-1.971 43.703-1 49 .767 4.183 4.777 9.215 8 12-.801 1.029-8.942.395-11 .5l-7-.5c3.354-5.161 5.284-10.918 6-17 .548-4.655 1.746-40.209 1-43-2.48-9.28-25.251-6.743-33-5.5-3.245.521-8.834.724-11.5 3-9.127 7.791 1.014 52.707 10.5 61.5l-16-1.5c1.052-.457 3.705-1.584 4-2.5 1.12-3.472-4.226-51.227-6-54.5-4.811-8.875-42.028 2.709-49.5 8-4.455 3.154-10.222 11.204-11.5 16.5-.948 3.925-1.632 20.658 0 23.5l-2 2c-37.038-15.032-51.403-48.726-18.5-78 3.228-2.872 12.549-7.039 14.5-10 1.052-.14.817.493 1 1 5.605 15.5 12.339 22.005 29 26 28.96 13.585 18.734-21.708 17-38-.153-1.439-.618-5.303 1-6-.288 6.406 7.12 34.503 11 39.5 7.163 9.225 14.604 4.436 24 3.5 7.483-.746 23.744-1.104 28-7.5 5.348-8.036 4.278-34.316 8-44.5 1.393-.015 2.623-.006 4 0"/><path fill="#abb1b2" d="M515 711c.32 2.065-1.229 3.836 1.5 5 2.599 1.109 27.655 1.8 34 3 11.009 2.082 22.285 5.364 32.5 10-.054.325.059.678 0 1-1.367 7.468-7.831 30.346-14.5 34-4.723 2.588-34.318-.336-40-2-14.799-4.333-12.076-37.463-16.5-50 .158.001.093-1.048 3-1"/><path fill="#77848b" d="M583 729c-10.215-4.636-21.491-7.918-32.5-10-6.345-1.2-31.401-1.891-34-3-2.729-1.164-1.18-2.935-1.5-5 23.81.396 46.23 1.394 69.5 7 1.354 1.281-1.151 8.888-1.5 11"/><path fill="#9ca9ad" d="m476 712 1.5 4-37.5 10c-.744-2.348-.993-5.307-3-7 13.258-2.964 25.221-5.797 39-7"/><path fill="#acb8bc" d="M437 719c-.014.661.03 1.341 0 2-1.618.697-1.153 4.561-1 6-9.724 2.992-22.876 3.455-32 8l-14 4c-.183-.507.052-1.14-1-1 .209-.317.854-3.208 1-4 16.518-6.667 29.637-11.118 47-15"/><path fill="#f3f4f4" d="M440 726c2.709 8.548 7.865 35.088 17.5 38 4.496 1.359 10.39-2.578 14.5 0-9.396.936-16.837 5.725-24-3.5-3.88-4.997-11.288-33.094-11-39.5.03-.659-.014-1.339 0-2 2.007 1.693 2.256 4.652 3 7"/><path fill="#a4c1cd" d="M271 724c31.401 68.046 73.09 132.728 132 180-3.99.339-8.036.142-12 1-1.214-.461-1.3-.855-3-1-58.44-49.044-99.488-114.194-131-183 4.29-2.646 10.751 2.263 14 3"/><path fill="#959da1" d="M631 738c-.081.313.087.692 0 1-3.938 13.939-14.149 23.633-28.5 28-26.759 8.143-21.597-19.319-17.5-37 .43-1.855.429-8.342 2.5-9z"/><path fill="#d3d5d5" d="M419 765c-5.466-2.564-26.633-17.565-23-24.5.225-.43 7.094-5.049 8-5.5 9.124-4.545 22.276-5.008 32-8 1.734 16.292 11.96 51.585-17 38"/><path fill="#dcfcfd" d="M348 764c-4.455 7.051-6.173 13.352-9 21-1.916-26.882 12.673-41.603 34-55 .557 1.648 2.688 2.214 2 4.5-.43 1.428-18.853 13.874-23 19-.804.994-8.448 10.416-4 10.5"/><path fill="#3390ab" d="M390 734c-.146.792-.791 3.683-1 4-1.951 2.961-11.272 7.128-14.5 10-32.903 29.274-18.538 62.968 18.5 78 11.539 4.683 23.799 6.873 36 9l-63-8c-16.443-8.762-25.679-23.46-27-42 2.827-7.648 4.545-13.949 9-21 6.287-9.951 23.243-24.199 34-29 1.623-.724 6.791-.512 8-1"/><path fill="#22536c" d="M669 755c6.797 8.651 10.143 15.318 13 26 .054 34.211-25.254 46.885-54 55-.786-6.806 11.578-5.454 15.5-8-28.568.693-57.053 11.447-86 14-19.898 1.755-39.607.948-59.5 0l2-3c40.473.554 81.032-2.261 120-13 3.54-.976 5.35-2.125 8-3 .309-.102 3.235 1.305 6.5 0 42.453-16.967 38.599-69.643-3.5-84 .087-.308-.081-.687 0-1 .597-2.314.538-2.632.5-5 15.376.36 24.724 15.133 37.5 22"/><path fill="#f9fbfb" d="M404 735c-.906.451-7.775 5.07-8 5.5-3.633 6.935 17.534 21.936 23 24.5-16.661-3.995-23.395-10.5-29-26z"/><path fill="#6891a2" d="M742 769c-69.637 125.175-184.756 242.54-333 150-3.859-2.409-16.089-13.275-18-14 3.964-.858 8.01-.661 12-1 .982-.083 2.022.099 3 0 23.62 19.366 59.713 38.183 90.5 41 103.062 9.431 189.931-101.488 233.5-182 4.876-.818 7.746 4.312 12 6"/><path fill="#c0c3c4" d="M508 836c-8.723.447-26.11 2.331-32-4.5-5.249-6.087-12.145-47.299-10-55 1.202-4.315 6.878-3.525 9-6.5 7.749-1.243 30.52-3.78 33 5.5.746 2.791-.452 38.345-1 43-.716 6.082-2.646 11.839-6 17z"/><path fill="#fcfcfc" d="M522 769c-.015 2.617-4.888 3.492-7 6.5-4.934 7.026-2.079 45.465 4 53 6.454 7.999 17.558 6.87 27 6.5 5.692-.223 11.332-.938 17-1.5-7.899-12.873-.313-30.892 0-45.5-.295 6.741-.418 36.436 2 40.5 4.403 7.401 20.721 2.828 28.5 1.5 1.448-.247 5.301-3.756 6.5-4 .933-.19 2.061.179 3 0 3.384-.645 13.183-.685 17 0-38.968 10.739-79.527 13.554-120 13-14.04-.192-99.522-5.462-105-15-1.632-2.842-.948-19.575 0-23.5 1.278-5.296 7.045-13.346 11.5-16.5 7.472-5.291 44.689-16.875 49.5-8-17.574 3.115-27.274 6.566-40.5 18-.233.201-1.384-2.409-2.5-1.5-.368.3-2.916 8.321-3 9-.557 4.529.154 26.951 8 24.5.73 1.448.013 1.876 2.5 3 2.129-.106 2.72.908 3.5-1.5.437-1.35-8.505-23.03-7-27.5l.5-2c3.811 5.799 9.604 30.294 15 33 2.455 1.232 22.689 3.22 25.5 2l16 1.5c-9.486-8.793-19.627-53.709-10.5-61.5 2.666-2.276 8.255-2.479 11.5-3-2.122 2.975-7.798 2.185-9 6.5-2.145 7.701 4.751 48.913 10 55 5.89 6.831 23.277 4.947 32 4.5 2.058-.105 10.199.529 11-.5-3.223-2.785-7.233-7.817-8-12-.971-5.297-1.019-45.471 1-49 1.747-3.053 6.687-4.959 10-5.5"/><path fill="#b4b8b8" d="M546 835c-9.442.37-20.546 1.499-27-6.5-6.079-7.535-8.934-45.974-4-53 2.112-3.008 6.985-3.883 7-6.5 6.595-1.077 36.657 1.061 39 8.5 3.493 11.09-6.202 48.26-15 57.5"/><path fill="#a9aeaf" d="M628 823c-2.65.875-4.46 2.024-8 3-3.817-.685-13.616-.645-17 0l2.5-27-5.5 27c-1.199.244-5.052 3.753-6.5 4-7.779 1.328-24.097 5.901-28.5-1.5-2.418-4.064-2.295-33.759-2-40.5.92-21.038 8.577-17.728 27.5-14 26.795 5.279 45.47 19.24 37.5 49"/><path fill="#c9cbcb" d="M456 776c1.774 3.273 7.12 51.028 6 54.5-.295.916-2.948 2.043-4 2.5-2.811 1.22-23.045-.768-25.5-2-5.396-2.706-11.189-27.201-15-33l-.5 2c-1.65-.19-1.854-.186-2 1.5-.11 1.27 2.444 23.398 3 24.5-7.846 2.451-8.557-19.971-8-24.5.084-.679 2.632-8.7 3-9 1.116-.909 2.267 1.701 2.5 1.5 13.226-11.434 22.926-14.885 40.5-18"/><path fill="#13161d" d="M603 826c-.939.179-2.067-.19-3 0l5.5-27z"/><path fill="#101118" d="M417 800c-1.505 4.47 7.437 26.15 7 27.5-.78 2.408-1.371 1.394-3.5 1.5-2.487-1.124-1.77-1.552-2.5-3-.556-1.102-3.11-23.23-3-24.5.146-1.686.35-1.69 2-1.5"/><path fill="#2d6980" d="M429 835c22.327 3.892 46.316 5.919 69 7 19.893.948 39.602 1.755 59.5 0 28.947-2.553 57.432-13.307 86-14-3.922 2.546-16.286 1.194-15.5 8-62.504 17.645-204.443 21.672-262-9z"/><path fill="#103b55" d="m500 839-2 3c-22.684-1.081-46.673-3.108-69-7-12.201-2.127-24.461-4.317-36-9l2-2c5.478 9.538 90.96 14.808 105 15"/><path fill="#244d63" d="M391 905c1.911.725 14.141 11.591 18 14-3.155 4.04-17.71-5.682-21-8-2.432-1.714-4.17-4.297-7-5.5 1.603.167 6.643-1.53 7-1.5 1.7.145 1.786.539 3 1"/></svg>