<svg xmlns="http://www.w3.org/2000/svg" width="1024" height="1024"><defs><linearGradient id="a" x1="423.076" x2="623.924" y1="177.393" y2="248.309" gradientUnits="userSpaceOnUse"><stop offset="26.761%" style="stop-color:#bed3df"/><stop offset="100%" style="stop-color:#607881"/></linearGradient></defs><defs><linearGradient id="b" x1="381.584" x2="642.55" y1="270.075" y2="799.222" gradientUnits="userSpaceOnUse"><stop offset="0%" style="stop-color:#c3eff0"/><stop offset="34.915%" style="stop-color:#b7d5df"/><stop offset="100%" style="stop-color:#6b96a8"/></linearGradient></defs><defs><linearGradient id="c" x1="713.728" x2="303.758" y1="462.91" y2="628.103" gradientUnits="userSpaceOnUse"><stop offset="0%" style="stop-color:#163664"/><stop offset="40.724%" style="stop-color:#2b7298"/><stop offset="45.475%" style="stop-color:#173361"/><stop offset="86.878%" style="stop-color:#0e4a7b"/><stop offset="97.738%" style="stop-color:#186692"/></linearGradient></defs><defs><linearGradient id="d" x1="629.507" x2="801.564" y1="488.804" y2="708.434" gradientUnits="userSpaceOnUse"><stop offset="0%" style="stop-color:#679aa6"/><stop offset="100%" style="stop-color:#486e80"/></linearGradient></defs><defs><linearGradient id="e" x1="426.475" x2="548.748" y1="460.101" y2="698.582" gradientUnits="userSpaceOnUse"><stop offset="0%" style="stop-color:#3aa8c9"/><stop offset="100%" style="stop-color:#0a477a"/></linearGradient></defs><defs><linearGradient id="f" x1="460.944" x2="545.234" y1="525.797" y2="583.236" gradientUnits="userSpaceOnUse"><stop offset="0%" style="stop-color:#02567b"/><stop offset="100%" style="stop-color:#002e52"/></linearGradient></defs><path fill="#0c1c2b" d="M726 259c-8.538-7.211-17.862-15.662-27-23-89.644-84.051-228.7-100.779-333-33-5.896 3.832-11.38 7.8-17 12l-3-2c11.068-7.975 24.62-17.501 36.5-24 112.557-61.576 263.854-29.808 343.5 70"/><path fill="#f6fbfc" d="M699 236c-50.814-40.803-108.638-67.945-175-69.5 11.641 31.95-23.101 24.628-35 10-4.7-5.777 2.505-8.912-10.5-8.5-35.638 1.13-75.01 22.977-107 35-2.064.776-3.408 1.683-5.5 0 104.3-67.779 243.356-51.051 333 33"/><path fill="url(#a)" d="M699 236c9.138 7.338 18.462 15.789 27 23 3.772 3.185 6.725 7.188 10 10-2.181.909-3.795.335-5.5-1-70.261-55.029-180.647-73.994-268.5-64 4.824-8.689-7.424-5.578-13.5-5-31.382 2.988-63.747 17.409-96 21-4.41.491-4.525-3.554-10.5 1 2.22-1.755 4.46-4.101 7-6 5.62-4.2 11.104-8.168 17-12 2.092 1.683 3.436.776 5.5 0 31.99-12.023 71.362-33.87 107-35 13.005-.412 5.8 2.723 10.5 8.5 11.899 14.628 46.641 21.95 35-10 66.362 1.555 124.186 28.697 175 69.5" style="fill:url(#a)"/>/&gt;<path fill="#82abb3" d="M462 204c-37.588 4.276-71.164 13.952-106 28-21.258 8.572-41.763 17.481-60.5 31 13.837-15.817 30.091-29.03 46.5-42 5.975-4.554 6.09-.509 10.5-1 32.253-3.591 64.618-18.012 96-21 6.076-.578 18.324-3.689 13.5 5"/><path fill="#081224" d="M736 269c17.647 15.151 35.726 29.835 52.5 46l8.5-8h1c-.13 3.708 3.393 7.842 6 10 10.98 9.089 28.657 3.62 31-10 1.034-6.012.459-14.258-5-18-5.624-7.398-16.327-5.445-24-3v-1c33.005-14.861 40.813 26.941 18.5 39-1.955 1.056-4.944.712-5.5 1-3.055-1.227-8.861-1.634-11.5-3-9.178-4.75-6.515-14.178-17.5-5.5-.707 1.627 2.422 1.785 3 2.5 2.157 2.671 6.564 7.97 9 10 .387.322 1.768 2.934 2.5 3 2.252.202 3.132-1.978 5.5-3 .502 1.631-3.024 6.016-3 6.5.11 2.258 22.445 30.827 26 37 6.051 10.509 14.141 26.847 19 38 2.931 6.727 8.371 30.458 11 34 2.455 3.308 11.895 3.914 15.5 6.5 6.018 4.317 5.679 12.609 10 16 4.185 3.285 15.024 4.341 20.5 10.5 26.153 29.413 28.62 125.498-6.5 149.5-5.196 3.551-16.438 5.74-20 8-3.205 2.034-6.184 8.72-10 11-5.543 3.312-15.396 2.911-20 5-6.186 2.807-14.143 26.004-18.5 33.5-140.952 242.534-510.213 239.421-649-4-2.94-5.156-9.55-24.279-12-27-2.448-2.72-18.528-4.539-24.5-8.5-3.219-2.135-5.618-7.477-8-9-7.895-5.049-17.032-4.76-26-13-29.165-26.799-27.842-124.436 3-149 2.948-2.348 12.219-5.598 14-7 6.211-4.889 6.897-11.934 12-16 11.593-9.238 10.842 2.77 18.5-16l1 2c-1.845 6.056-3.635 13.756-5 20l-1.5-9c-13.764 4.593-13.766 7.453-18.5 19-1.535 3.744-2.924 7.071-4 11-5.964 21.788-7.966 45.446-8 68-.014 9.162.101 17.873 1 27 2.304 23.386 10.458 82.167 44 74.5-9.795-23.214-17.616-48.433-21-73.5-.13-.966.119-2.03 0-3-4.365-35.577-3.254-72.081 5-107 .014.111 1.55-.062 1 2-32.624 178.204 77 326.842 246 373 1.233.337 2.092.761 3 1l-3 5.5 1.5 1.5c12.312 3.673 24.863 5.802 37.5 8 226.724 39.443 457.831-123.275 428-366.5C840.116 252.999 559.124 148.334 356 234v-2c34.836-14.048 68.412-23.724 106-28 87.853-9.994 198.239 8.971 268.5 64 1.705 1.335 3.319 1.909 5.5 1m131 195c.338 1.992.664 4.003 1 6 3.153 18.733 5.446 34.798 6 54 .121 4.197 1.073 8.214 1 13-.186 12.166-2.232 24.964-4 37-3.787 25.777-11.345 50.641-18.5 75 33.138-.341 40.004-50.33 42.5-76 .98-10.082 1.152-19.874 1-30-.225-15.008-1.492-31.227-4-46-1.643-9.677-4.316-20.904-8-30-4.296-10.608-6.652-14.754-18.5-19-3.361 1.22 1.043 13.309 1.5 16M110 611c6.857 10.359 14.962 18.3 28 20.5-7.993-25.001-12.957-50.154-14-76.5-.762-19.253.171-39.815 3-59 .287-1.946.66-4.051 1-6 1.311-7.514 4.416-14.498 5.5-22-17.883 6.958-25.799 18.443-31.5 36.5-9.835 31.153-10.438 78.645 8 106.5m785-116c3.474 21.652 4.465 46.165 3 68-1.781 26.534-8.584 41.534-14 65.5-.378 1.674-1.281 3.443.5 4.5 29.807-10.56 39.74-40.804 41.5-70 .695-11.523-.191-26.588-2-38-1.208-7.623-10.042-37.922-14-43.5-3.684-5.193-15.462-9.464-21.5-11.5 1.52 8.15 5.2 16.898 6.5 25"/><path fill="url(#b)" d="m441 855 5-6c13.52 2.13 32.071 5.379 45.5 5 .905-.026.095-2.973 1-3 10.15-.305 22.259 1.053 32 0 .51-.055 8.805-.89 7-3-43.599 4.002-86.808-1.256-129.5-9-169-46.158-278.624-194.796-246-373 .519-2.837 1.367-6.103 2-9 1.365-6.244 3.155-13.944 5-20 27.496-90.238 107.38-166.89 193-203 203.124-85.666 484.116 18.999 513 254.5C898.831 731.725 667.724 894.443 441 855m48.5-640c-4.029.213-21.382 1.2-24 2-.812.248-2.355 2.517-1 3 69.628-7.528 138.266 6.856 203.5 29.5-51.496-26.991-120.488-37.57-178.5-34.5M366 247c-23.261 9.203-53.547 24.03-73.5 39-3.143 2.358-24.246 20.677-24.5 22.5-.246 1.763 4.264 3.735 2 7.5-8.239-.699-16.961 1.665-23 7.5 24.428-17.578 56.433 7.674 40 34-18.535 29.694-63.106.949-43.5-30.5-28.555 43.937 47.167 66.553 49.5 18 15.997-5.917 27.418-20.45 41.5-30 25.291-17.151 60.614-35.661 89-47 30.874-12.333 64.729-18.516 93-37-16.076-4.636-33.662-9.589-50.5-9-4.091-.543-3.242-3.937-3.5-4-4.426-1.088-26.177 2.781-32 4-7.541 1.578-62.891 18.465-65.5 21.5-.119.138 3 1.664 1 3.5m376 72c-22.995 15.415-12.254 55.714 16 54 72.782 110.439 79.561 257.937-11 360.5-50.895 57.64-121.811 92.484-195 113 165.015-15.166 304.797-142.891 311-313 3.155-86.515-22.629-143.08-81-203.5-3.063-3.17-7.224-10.359-10-13-27.622-26.276-63.22-47.555-97.5-64zM236 573c22.376 200.442 254.301 307.423 424.5 199 172.125-109.65 167.448-356.838-7.5-461-14.204-8.457-30.619-18.312-47-21-39.934-14.242-81.731-20.079-124-16 .165-2.347-7.481-1.144-8.5-1C327.827 293.588 219.457 424.809 236 573m41-248c-2.498-1.487-5.049-2.874-8-3-3.074-4.592-15.966 1.731-18.5 4-10.058 9.007-9.099 30.054 4 36 9.25 4.199 25.143.326 29.5-9.5 4.52-10.194 2.581-21.796-7-27.5m-43.5 38c-21.903-.375-43.788 49.424-46.5 67.5-4.687 31.24 8.44 58.343 19.5 86.5.3-26.785 6.682-51.786 16.5-76.5 5.085-12.8 27.37-49.04 26-60-.555-4.442-9.988-17.405-15.5-17.5" style="fill:url(#b)"/>/&gt;<path fill="#175963" d="M349 215c-2.54 1.899-4.78 4.245-7 6-16.409 12.97-32.663 26.183-46.5 42 18.737-13.519 39.242-22.428 60.5-31v2c-85.62 36.11-165.504 112.762-193 203l-1-2c11.753-28.807 19.139-53.022 37-79.5 2.03-3.01 14.782-15.888 15-17 .407-2.078-5.964-12.575-7.5-13.5-5.956-3.587-16.767-1.396-20.5-13.5-9.387-30.433 31.28-42.237 39-16 2.407 8.181-2.731 14.345 8.5 19.5 7.293-6.8 14.363-14.63 22-21 31.917-26.623 57.297-57.075 90.5-81zm-158 77c-12.064 12.859 2.35 37.166 22.5 28 16.264-7.398 13.624-36.907-8.5-36-4.89.201-12.427 2.638-14 8m27 40c1.662-1.153 13.127-13.548 13-15-.136-1.555-5.362-5.346-6.5-7-3.547 6.517-8.827 12.501-16.5 13.5 3.968 4.288 4.577 12.262 10 8.5"/><path fill="#fbfdfc" d="M489.5 215c58.012-3.07 127.004 7.509 178.5 34.5-65.234-22.644-133.872-37.028-203.5-29.5-1.355-.483.188-2.752 1-3 2.618-.8 19.971-1.787 24-2"/><path fill="#d4ecee" d="M466 222c-29.739 1.04-72.131 13.974-100 25 2-1.836-1.119-3.362-1-3.5 2.609-3.035 57.959-19.922 65.5-21.5 5.823-1.219 27.574-5.088 32-4 .258.063-.591 3.457 3.5 4"/><path fill="#f4fdfd" d="M293 345c.649-13.504-8.97-27.811-23-29 2.264-3.765-2.246-5.737-2-7.5.254-1.823 21.357-20.142 24.5-22.5 19.953-14.97 50.239-29.797 73.5-39 27.869-11.026 70.261-23.96 100-25 16.838-.589 34.424 4.364 50.5 9-28.271 18.484-62.126 24.667-93 37-28.386 11.339-63.709 29.849-89 47-14.082 9.55-25.503 24.083-41.5 30"/><path fill="#6ca2ac" d="M772 317c-11.3-3.216-19.501-5.038-30 2l-67.5-66c34.28 16.445 69.878 37.724 97.5 64"/><path fill="#0e4953" d="M482 274c-148.68 14.349-256.234 148.886-244 297l-2 2c-16.543-148.191 91.827-279.412 237.5-300 1.019-.144 8.665-1.347 8.5 1"/><path fill="#e3f1f4" d="M606 290c14.883 5.308 28.361 12.225 42 20-2.087 6.626-10.671 12.655-8 20-146.845-84.849-339.532-6.685-376 160-10.449 47.761-6.767 91.713 8 138-4.097-9.357-6.877-19.141-9.5-29l-18.5 6c-2.771-11.644-5.007-21.973-6-34-12.234-148.114 95.32-282.651 244-297 42.269-4.079 84.066 1.758 124 16"/><path fill="#edfbf8" d="M205 284c-3.708 3.293-10.291 4.046-14 8 1.573-5.362 9.11-7.799 14-8"/><path fill="#7ababd" d="M191 292c3.709-3.954 10.292-4.707 14-8 22.124-.907 24.764 28.602 8.5 36-20.15 9.166-34.564-15.141-22.5-28m12.5-5c-10.872 1.225-20.471 19.347-7 22 15.882 3.128 25.374-24.071 7-22m14 4c5.227 13.932-4.057 25.596-18 25l1 2c15.558 3.255 27.005-14.14 17-27"/><path fill="#b1e1f3" d="M830 289c-1.05-.72-9.557-3.558-10.5-3 .076 8.919-9.205 17.064-17.5 18-1.164-1.199-2.282-4.091-2.5-4-1.174.491.417 4.451-1.5 3.5l2-13.5c1.566-2.333 1.601-2.383 4-4 1.094 2.677 1.905.03 2 0 7.673-2.445 18.376-4.398 24 3"/><path fill="#687e98" d="M806 286c-.095.03-.906 2.677-2 0 .546-.368 1.372-.717 2-1z"/><path fill="#95bcd4" d="M830 289c5.459 3.742 6.034 11.988 5 18l-2-3c.517-3.067-1.667-14.057-5.5-14-.826.012-.372 1.906-.5 2-5.686 4.199-1.779 5.042-2 5.5-5.296 10.999-13.191 16.606-23 6.5 8.295-.936 17.576-9.081 17.5-18 .943-.558 9.45 2.28 10.5 3"/><path fill="#e2f4f6" d="M203.5 287c18.374-2.071 8.882 25.128-7 22-13.471-2.653-3.872-20.775 7-22"/><path fill="#6b8f9c" d="m653 311-1 1c-1.266-.755-2.717-1.268-4-2-13.639-7.775-27.117-14.692-42-20 16.381 2.688 32.796 12.543 47 21"/><path fill="#578ea6" d="M802 304c9.809 10.106 17.704 4.499 23-6.5.221-.458-3.686-1.301 2-5.5 10.224 10.334-10.023 21.978-19 23.5 8.63 6.62 23.329-1.578 25-11.5l2 3c-2.343 13.62-20.02 19.089-31 10l-4-10.5-2 .5h-1c-2.824-6.017-.355-12.004 3-17l-2 13.5c1.917.951.326-3.009 1.5-3.5.218-.091 1.336 2.801 2.5 4"/><path fill="#1b516f" d="M833 304c-1.671 9.922-16.37 18.12-25 11.5 8.977-1.522 29.224-13.166 19-23.5.128-.094-.326-1.988.5-2 3.833-.057 6.017 10.933 5.5 14"/><path fill="#1b6c80" d="M217.5 291c10.005 12.86-1.442 30.255-17 27l-1-2c13.943.596 23.227-11.068 18-25"/><path fill="#5598ae" d="M640 330c3.833 2.215 7.314 4.593 11 7-3.414 1.581-6.355 7.443-6 11-42.165-27.633-91.659-40.426-142-39-21.385.606-42.515 3.932-63 10-66.176 19.602-122.908 70.823-150 134-5.237 12.213-10.092 26.022-13 39-.359 1.604-.678 3.374-1 5 .203-8.35-5.903-3.4-12-7 36.468-166.685 229.155-244.849 376-160"/><path fill="#b4e8f2" d="M804 317c-2.607-2.158-6.13-6.292-6-10l2-.5z"/><path fill="#104e63" d="M503 309c2.008 9.362-7.664 1.752-9 7-18.96 1.288-33.971 4.459-52 10l-2-7c20.485-6.068 41.615-9.394 63-10"/><path fill="#073045" d="M645 348c1.216.797 3.37 2.854 5 4l-3 7c-44.696-32.268-97.906-46.742-153-43 1.336-5.248 11.008 2.362 9-7 50.341-1.426 99.835 11.367 142 39"/><path fill="#51949c" d="M231 317c-5.093 3.6-11.081 9.337-13 15-5.423 3.762-6.032-4.212-10-8.5 7.673-.999 12.953-6.983 16.5-13.5 1.138 1.654 6.364 5.445 6.5 7"/><path fill="#9fc0cd" d="M652 312c83.444 49.746 134.404 139.328 133 237-3.591-2.9-14.994 1.773-17.5 0-.615-.435-1.159-12.611-1.5-15-1.629-11.396-1.889-23.168-4-34.5-5.449-29.257-17.805-62.958-36-86.5-19.716-31.743-43.751-55.589-75-76-3.686-2.407-7.167-4.785-11-7-2.671-7.345 5.913-13.374 8-20 1.283.732 2.734 1.245 4 2"/><path fill="#204154" d="m236 573 2-2c.993 12.027 3.229 22.356 6 34 19.781 83.113 83.049 155.684 162 188 175.233 71.725 376.258-53.234 379-244 1.404-97.672-49.556-187.254-133-237l1-1c174.948 104.162 179.625 351.35 7.5 461-170.199 108.423-402.124 1.442-424.5-199"/><path fill="#516775" d="M819 325c-1.74.902-6.786 3.045-9 4-2.368 1.022-3.248 3.202-5.5 3-.732-.066-2.113-2.678-2.5-3 4.96-1.938-7.21-10.055-9-10-.578-.715-3.707-.873-3-2.5 10.985-8.678 8.322.75 17.5 5.5 2.639 1.366 8.445 1.773 11.5 3"/><path fill="#091323" d="M772 317c2.776 2.641 6.937 9.83 10 13 9.476 18.23-3.343 41.747-24 43-28.254 1.714-38.995-38.585-16-54 10.499-7.038 18.7-5.216 30-2m-20.5 1c-27.079 3.95-24.701 46.892-1 51 40.062 6.944 44.713-57.377 1-51"/><path fill="url(#c)" d="M647 359c127.101 91.76 127.529 287.361-4.5 375-129.23 85.781-309.784 27.54-355.5-122-9.227-30.182-12.254-57.622-8-89 2.911 3.415 4.535 1.052 6 1 9.877-.348 39.731-11.397 41-23.5.377-3.592-2.143-11.523-5.5-12.5-7.451-2.169-22.915 1.706-29.5 6-2.378 1.551-4.429 3.64-6 6-3.873.169-1.411-4.694-1-7 1.915-10.741 7.648-26.851 12-37 26.384-61.528 82.434-110.462 146-130 18.029-5.541 33.04-8.712 52-10 55.094-3.742 108.304 10.732 153 43M344 484c-.124.279.122.72 0 1-66.842 153.988 112.773 303.323 246.5 207 134.687-97.014 15.274-324.154-138-229L426 487.5c33.914-53.402 110.749-66.127 163.5-33.5l34.5 26.5-13.5-13.5c-51.196-46.929-137.496-41.45-187 5-.25-2.025 1.583-4.403 2.5-6 61.04-65.272 165.596-63.891 226 1.5 8.052 8.716 13.74 19.53 22 28-35.937-66.923-118.201-95.975-189.5-70.5-16.479 5.888-49.719 25.7-58.5 41-10.46 11.185-15.893 20.982-22 35-1.549 3.555-2.712 6.301-4 10-24.318 69.838 12.286 143.206 89 151l.5 2H479c-49.018-6.289-87.332-45.802-95-94-9.095-57.172 18.256-115.887 67.5-146 52.75-32.257 113.4-32.739 169.5-8.5-59.371-35.046-136.387-23.479-191 15.5 14.119-14.765 50.414-52 35-73.5-17.152-23.925-72.565 5.335-89.5 19.5-24.288 20.315-70.654 82.233-31.5 107m285 180c-14.342 9.683-28.607 29.743-41.5 41-25.056 21.876-55.961 37.19-86 42-3.554.569-12.442-1.737-15.5 2.5 65.471-.373 102.003-43.189 143-85.5.591-.399 3.352.983 3-1.5-1.048-.693-2.374.854-3 1.5" style="fill:url(#c)"/>/&gt;<path fill="#1d555d" d="M270 316c14.03 1.189 23.649 15.496 23 29-2.333 48.553-78.055 25.937-49.5-18-19.606 31.449 24.965 60.194 43.5 30.5 16.433-26.326-15.572-51.578-40-34 6.039-5.835 14.761-8.199 23-7.5"/><path fill="#acd5d5" d="M231 317c.127 1.452-11.338 13.847-13 15 1.919-5.663 7.907-11.4 13-15"/><path fill="#6abbc9" d="M751.5 318c43.713-6.377 39.062 57.944-1 51-23.701-4.108-26.079-47.05 1-51M739 332c-5.697 8.195-4.841 23.441 6 28 19.789 13.762 42.469-11.682 29-31.5-.386-.568-3.972-5.075-5-2.5-4.98-6.028-8.718-6.936-16.5-5-1.83.455-2.803 2.922-3 3-5.733 2.272-8.391.197-10.5 8"/><path fill="#196276" d="M442 326c-63.566 19.538-119.616 68.472-146 130l-6-3c27.092-63.177 83.824-114.398 150-134z"/><path fill="#8eadb3" d="M802 329c-2.436-2.03-6.843-7.329-9-10 1.79-.055 13.96 8.062 9 10"/><path fill="#019fb4" d="M269 322c-17.044-.728-28.784 11.995-20 28 7.042 12.831 32.195 6.821 30-16-.242-2.511-2.592-6.137-2-9 9.581 5.704 11.52 17.306 7 27.5-4.357 9.826-20.25 13.699-29.5 9.5-13.099-5.946-14.058-26.993-4-36 2.534-2.269 15.426-8.592 18.5-4"/><path fill="#00abd1" d="M769 326c1.283 1.553 2.391 3.218 4 4.5-6.968-3.273-.624 4.874-2 12-.815 4.221-8.413 12.669-13 13.5-16.925 3.066-23.048-9.022-19-24 2.109-7.803 4.767-5.728 10.5-8 .197-.078 1.17-2.545 3-3 7.782-1.936 11.52-1.028 16.5 5"/><path fill="#04f2f7" d="M277 325c-.592 2.863 1.758 6.489 2 9-12.086 3.646-13.828 19.654-30 16-8.784-16.005 2.956-28.728 20-28 2.951.126 5.502 1.513 8 3"/><path fill="#025f81" d="M745 360c5.374 2.26 15.501 5.013 13-4 4.587-.831 12.185-9.279 13-13.5 1.376-7.126-4.968-15.273 2-12-1.609-1.282-2.717-2.947-4-4.5 1.028-2.575 4.614 1.932 5 2.5 13.469 19.818-9.211 45.262-29 31.5"/><path fill="url(#d)" d="M758 373c20.657-1.253 33.476-24.77 24-43 58.371 60.42 84.155 116.985 81 203.5-6.203 170.109-145.985 297.834-311 313 73.189-20.516 144.105-55.36 195-113 90.561-102.563 83.782-250.061 11-360.5" style="fill:url(#d)"/>/&gt;<path fill="#027ea2" d="M758 356c2.501 9.013-7.626 6.26-13 4-10.841-4.559-11.697-19.805-6-28-4.048 14.978 2.075 27.066 19 24"/><path fill="#00dbe7" d="M249 350c16.172 3.654 17.914-12.354 30-16 2.195 22.821-22.958 28.831-30 16"/><path fill="#6f8995" d="M651 337c31.249 20.411 55.284 44.257 75 76 4.864 7.831 9.021 15.673 13 24l-12 4c-16.618-33.998-46.133-67.289-77-89-1.63-1.146-3.784-3.203-5-4-.355-3.557 2.586-9.419 6-11"/><path fill="#afe2ee" d="M430 431c-13.018 9.291-20.005 15.706-29 29-5.745 9.731-13.507 14.153-21 21-1.477-3.296 1.431-7.746 3-10.5 6.754-11.849 19.347-29.236 28-40 6.139-7.637 43.814-42.823 44-46 .31-5.282-22.423-11.689-27.5-10.5-17.088 4-75.164 91.191-83.5 110-39.154-24.767 7.212-86.685 31.5-107 16.935-14.165 72.348-43.425 89.5-19.5 15.414 21.5-20.881 58.735-35 73.5"/><path fill="#06152a" d="M727 441c27.943 57.167 30.933 121.473 12 182-50.989 128.572-199.051 192.023-327.5 136-15.902-6.936-29.805-17.776-45.5-25-16.71-14.903-34.567-31.038-48-49-8.725-11.668-18.813-28.774-25-42-4.573-9.776-7.848-19.677-11-30l5-1c45.716 149.54 226.27 207.781 355.5 122 132.029-87.639 131.601-283.24 4.5-375l3-7c30.867 21.711 60.382 55.002 77 89"/><path fill="#f0fbfc" d="M233.5 363c5.512.095 14.945 13.058 15.5 17.5 1.37 10.96-20.915 47.2-26 60-9.818 24.714-16.2 49.715-16.5 76.5-11.06-28.157-24.187-55.26-19.5-86.5 2.712-18.076 24.597-67.875 46.5-67.5"/><path fill="#d6f1f8" d="M380 481c-1.724 1.575-4.03 2.039-5 3-.517.512-1.642 1.521-2 2-10.392.846-16.901 1.999-27-1-.502-.149-1.359.075-2 0 .122-.28-.124-.721 0-1 8.336-18.809 66.412-106 83.5-110 5.077-1.189 27.81 5.218 27.5 10.5-.186 3.177-37.861 38.363-44 46-8.653 10.764-21.246 28.151-28 40-1.569 2.754-4.477 7.204-3 10.5"/><path fill="#5dd9f3" d="M384 570h-10c-5.076-38.669 5.271-77.884 27-110 8.995-13.294 15.982-19.709 29-29 54.613-38.979 131.629-50.546 191-15.5-56.1-24.239-116.75-23.757-169.5 8.5-49.244 30.113-76.595 88.828-67.5 146"/><path fill="#e4eff0" d="M766 534c1.156 30.634-3.485 59.791-14 88 19.72-62.415 15.1-126.19-13-185-3.979-8.327-8.136-16.169-13-24 18.195 23.542 30.551 57.243 36 86.5 2.111 11.332 2.371 23.104 4 34.5"/><path fill="#33caed" d="M426 466c8.781-15.3 42.021-35.112 58.5-41 71.299-25.475 153.563 3.577 189.5 70.5-8.26-8.47-13.948-19.284-22-28-60.404-65.391-164.96-66.772-226-1.5"/><path fill="#33c8ec" d="M344 485c.641.075 1.498-.149 2 0-54.357 127.186 63.908 262.635 198.5 226 107.243-29.191 138.794-174.401 47-241-65.823-47.757-161.366-8.685-173.5 72-7.998 53.184 27.941 100.082 82 104 23.889 1.731 46.313-2.917 64.5-19 25.999-22.992 35.869-67.908 16.5-97.5 27.063 59.655-16.432 119.496-81 114.5-53.442-4.135-88.11-49.588-79-102 17.433-100.298 160.986-110.722 200-13.5 56.566 140.96-166.152 233.147-243 95-18.779-33.758-29.412-104.839-5-137.5.358-.479 1.483-1.488 2-2-18.469 42.014-19.289 82.089 2 123 42.838 82.325 154.935 104.4 217 29.5 43.814-52.874 30.23-133.307-35-160.5-47.76-19.91-108.816 2.406-126 52.5l-3.5 15.5c13.032-46.325 46.241-68.382 93.5-68 7.632 4.531 14.739 5.49 23 10 97.186 53.056 51.582 187.032-57 176-76.714-7.794-113.318-81.162-89-151l4-10c6.107-14.018 11.54-23.815 22-35-.917 1.597-2.75 3.975-2.5 6 49.504-46.45 135.804-51.929 187-5l13.5 13.5-34.5-26.5c-52.751-32.627-129.586-19.902-163.5 33.5l26.5-24.5c153.274-95.154 272.687 131.986 138 229-133.727 96.323-313.342-53.012-246.5-207m128 135c52.407 28.139 109.165-13.346 101-72-7.041-50.579-63.513-75.367-105.5-46-40.123 28.063-39.673 94.283 4.5 118m92.5-113c.257 2.476 3.643 4.096 5 6 1.117-2.288-3.205-5.519-5-6m-156 40 .5 19.5c6.889 58.785 59.791 94.376 117 84-8.693-.392-17.712 1.285-26.5.5-58.005-5.181-87.459-48.986-91-104"/><path fill="#a4bac3" d="M739 437c28.1 58.81 32.72 122.585 13 185-.355.954-.502 1.746-1 3a294 294 0 0 1-15 32l-10-4.5c5.528-9.37 9.749-19.108 13-29.5 18.933-60.527 15.943-124.833-12-182z"/><path fill="#6a7b80" d="M158 457c-.633 2.897-1.481 6.163-2 9 .55-2.062-.986-1.889-1-2-.198-1.541 1.366-2.588.5-3-2.395-.959-3.308 1.939-3.5 2-4.613 1.456-9.369 2.596-14 4 4.734-11.547 4.736-14.407 18.5-19z"/><path fill="#6f7a81" d="M884 467c-2.9.146-16.569-8.815-17-3-.457-2.691-4.861-14.78-1.5-16 11.848 4.246 14.204 8.392 18.5 19"/><path fill="url(#e)" d="M346 485c10.099 2.999 16.608 1.846 27 1-24.412 32.661-13.779 103.742 5 137.5 76.848 138.147 299.566 45.96 243-95-39.014-97.222-182.567-86.798-200 13.5h-3c12.134-80.685 107.677-119.757 173.5-72 91.794 66.599 60.243 211.809-47 241-134.592 36.635-252.857-98.814-198.5-226" style="fill:url(#e)"/>/&gt;<path fill="#0f4b60" d="M296 456c-4.352 10.149-10.085 26.259-12 37l-7-1c2.908-12.978 7.763-26.787 13-39z"/><path fill="#33a7ca" d="M374 570c1.622 12.359 4.315 21.549 9 33l-6 4c-21.289-40.911-20.469-80.986-2-123 .97-.961 3.276-1.425 5-3 7.493-6.847 15.255-11.269 21-21-21.729 32.116-32.076 71.331-27 110"/><path fill="#becacf" d="M155 464c-8.254 34.919-9.365 71.423-5 107-3.992-1.187-1.342-8.525-2-11.5-1.454-6.578-6.628-12.797-4-22l-18 8.5c.034-22.554 2.036-46.212 8-68 7.698-2.338 1.354 13.662 5.5 15 .362.117 6.729-2.732 7-3 2.276-2.25 4.075-22.447 5.5-27 .192-.061 1.105-2.959 3.5-2 .866.412-.698 1.459-.5 3"/><path fill="#fafcfd" d="M884 467c3.684 9.096 6.357 20.323 8 30l-1.5 2c-.603-2.612-1.026-3.685-3.5-5-1.569-.834-7.87-1.709-9.5-3-6.727-5.33-1.979-15.947-9.5-21-.336-1.997-.662-4.008-1-6 .431-5.815 14.1 3.146 17 3"/><path fill="#f5fbfd" d="M152 463c-1.425 4.553-3.224 24.75-5.5 27-.271.268-6.638 3.117-7 3-4.146-1.338 2.198-17.338-5.5-15 1.076-3.929 2.465-7.256 4-11 4.631-1.404 9.387-2.544 14-4"/><path fill="#afbcc3" d="M128 490c-1.75 1.51-3.328.667-5 1-2.839.566-14.018 8.364-15 10.5-1.379 3.001.61 10.116 0 13-.717 3.392-3.309 9.253-4 13-.148.805-1.935 9.036 1 8.5-.742 9.692 1.61 19.446 0 29-1.051-5.96-1.011-14.086-2-18.5-.267-1.191-.214-4.388-2.5-2.5-2.947 2.433 4.751 47.666 6.5 54.5.784 3.062 6.313 10.635 3 12.5-18.438-27.855-17.835-75.347-8-106.5 5.701-18.057 13.617-29.542 31.5-36.5-1.084 7.502-4.189 14.486-5.5 22"/><path fill="#208ab5" d="m559 476-1 7c-13.351-5.974-20.651-6.884-35-7-47.259-.382-80.468 21.675-93.5 68l3.5-15.5c17.184-50.094 78.24-72.41 126-52.5"/><path fill="#b0bac1" d="M887 494c1.038 4.55 5.432 17.561 4 21.5-1.939 5.335-12.919 2.447-14.5 3.5-1.465.975 1.131 5.527-2.5 5-.554-19.202-2.847-35.267-6-54 7.521 5.053 2.773 15.67 9.5 21 1.63 1.291 7.931 2.166 9.5 3"/><path fill="#b8c4cc" d="M924 525c-8.815.619-.526 5.351-6 6.5l1-12-4-9.5c-1.073-5.506-1.999-6.669-4-10-.036-.061-.468-.383-1-1-.366-.425.618-3.083-.5-4-.432-.354-9.441-5.014-10-5-2.658.065-1.054 2.539-1.5 3-.125.13-2.231.241-3 2-1.3-8.102-4.98-16.85-6.5-25 6.038 2.036 17.816 6.307 21.5 11.5 3.958 5.578 12.792 35.877 14 43.5"/><path fill="#22c1e9" d="M558 483c57.139 25.567 73.756 102.067 35 150.5-57.482 71.834-175.171 54.623-210-30.5-4.685-11.451-7.378-20.641-9-33h10c7.668 48.198 45.982 87.711 95 94 37.404 4.799 70.533-3.336 97.5-30 45.777-45.263 28.51-124.786-30.5-148-8.261-4.51-15.368-5.469-23-10 14.349.116 21.649 1.026 35 7"/><path fill="#186c9b" d="m377 607 6-4c34.829 85.123 152.518 102.334 210 30.5 38.756-48.433 22.139-124.933-35-150.5l1-7c65.23 27.193 78.814 107.626 35 160.5-62.065 74.9-174.162 52.825-217-29.5"/><path fill="#0b4578" d="M479 664h10.5l-.5-2c108.582 11.032 154.186-122.944 57-176 59.01 23.214 76.277 102.737 30.5 148-26.967 26.664-60.096 34.799-97.5 30"/><path fill="#bde5ee" d="m285 524 6-30c6.585-4.294 22.049-8.169 29.5-6 3.357.977 5.877 8.908 5.5 12.5-1.269 12.103-31.123 23.152-41 23.5"/><path fill="#e5edf0" d="M123 491c-2.154 7.314-3.318 16.916-7 22.5-.117-3.896 1.464-8.991-4-8-2.035 10.073-6.211 20.184-7 30.5-2.935.536-1.148-7.695-1-8.5.691-3.747 3.283-9.608 4-13 .61-2.884-1.379-9.999 0-13 .982-2.136 12.161-9.934 15-10.5"/><path fill="#9aa5ac" d="M127 496c-6.625 2.943-3.974 20.02-6 23.5-.664 1.141-4.653 1.361-5 2-1.485 2.736-1.098 27.533-1 32.5.072 3.644-.175 7.365 0 11-5.146-.71-6.263.254-10 3-.182-.938.167-2.055 0-3 1.61-9.554-.742-19.308 0-29 .789-10.316 4.965-20.427 7-30.5 5.464-.991 3.883 4.104 4 8 3.682-5.584 4.846-15.186 7-22.5 1.672-.333 3.25.51 5-1-.34 1.949-.713 4.054-1 6"/><path fill="#548191" d="M276 497c-8.25 41.683-6.311 75.683 6 116 3.152 10.323 6.427 20.224 11 30-.301 6.007-5.829 4.966-9 9-3.81-7.589-9.156-17.504-12-24-14.767-46.287-18.449-90.239-8-138 6.097 3.6 12.203-1.35 12 7"/><path fill="url(#f)" d="M573 548c-6.672 49.698-50.742 84.139-101 72-44.173-23.717-44.623-89.937-4.5-118 41.987-29.367 98.459-4.579 105.5 46m-55.5-51c-35.587 4.466-34.833 62.962 6 61 40.172-1.93 36.556-66.34-6-61m18 61c-10.41 1.852-13.18 19.727-3 24 21.906 9.196 25.095-27.93 3-24" style="fill:url(#f)"/>/&gt;<path fill="#fbfcfd" d="M910 499c-6.349 6.711 4.149 21.102-5 21-1.362-9.411-3.621-18.152-7-27 .446-.461-1.158-2.935 1.5-3 .559-.014 9.568 4.646 10 5 1.118.917.134 3.575.5 4"/><path fill="#073045" d="M284 493c-.411 2.306-2.873 7.169 1 7-5.446 8.179-4.725 13.597-6 23-4.254 31.378-1.227 58.818 8 89l-5 1c-12.311-40.317-14.25-74.317-6-116 .322-1.626.641-3.396 1-5z"/><path fill="#707b84" d="M898 493c3.379 8.848 5.638 17.589 7 27 1.449 10.014 2.064 19.86 2 30-.026 4.132-.815 8.079-1 12-4.163-.14-4.473-1.461-8 1 1.465-21.835.474-46.348-3-68 .769-1.759 2.875-1.87 3-2"/><path fill="#69a4b9" d="M285 524c-1.465.052-3.089 2.415-6-1 1.275-9.403.554-14.821 6-23 1.571-2.36 3.622-4.449 6-6z"/><path fill="#9ba6ac" d="M892 497c2.508 14.773 3.775 30.992 4 46-5.399 3.578-14.354-9.452-21-6 .073-4.786-.879-8.803-1-13 3.631.527 1.035-4.025 2.5-5 1.581-1.053 12.561 1.835 14.5-3.5 1.432-3.939-2.962-16.95-4-21.5 2.474 1.315 2.897 2.388 3.5 5z"/><path fill="#6e7b83" d="m124 555-9-1c-.098-4.967-.485-29.764 1-32.5.347-.639 4.336-.859 5-2 2.026-3.48-.625-20.557 6-23.5-2.829 19.185-3.762 39.747-3 59"/><path fill="#d2edf6" d="M517.5 497c42.556-5.34 46.172 59.07 6 61-40.833 1.962-41.587-56.534-6-61"/><path fill="#aab4bc" d="M911 500c-1.833 5.675.994 19.476 6 22.5-2.63-3.835-1.337-9.1-2-12.5l4 9.5-1 12c5.474-1.149-2.815-5.881 6-6.5 1.809 11.412 2.695 26.477 2 38l-6 1.5 1-15c-1.738-1.63-1.898.515-2 .5-3.623-.536-8.227.385-12 0 .064-10.14-.551-19.986-2-30 9.149.102-1.349-14.289 5-21 .532.617.964.939 1 1"/><path fill="#eef5f7" d="M915 510c.663 3.4-.63 8.665 2 12.5-5.006-3.024-7.833-16.825-6-22.5 2.001 3.331 2.927 4.494 4 10"/><path fill="#7ad7ed" d="M400 511c1.288-3.699 2.451-6.445 4-10z"/><path fill="#31b0db" d="M564.5 507c1.795.481 6.117 3.712 5 6-1.357-1.904-4.743-3.524-5-6"/><path fill="#0a3f71" d="M500 646v-2c64.568 4.996 108.063-54.845 81-114.5 19.369 29.592 9.499 74.508-16.5 97.5-18.187 16.083-40.611 20.731-64.5 19"/><path fill="#628b9d" d="M785 549c-2.742 190.766-203.767 315.725-379 244l7-19c87.282 36.812 185.434 21.36 259-37 34.978-27.748 66.451-68.833 79-112 .498-1.254.645-2.046 1-3 10.515-28.209 15.156-57.366 14-88 .341 2.389.885 14.565 1.5 15 2.506 1.773 13.909-2.9 17.5 0"/><path fill="#68737b" d="M896 543c.152 10.126-.02 19.918-1 30l-24 1c1.768-12.036 3.814-24.834 4-37 6.646-3.452 15.601 9.578 21 6"/><path fill="#758188" d="M150 571c.119.97-.13 2.034 0 3l-23-1c-.899-9.127-1.014-17.838-1-27l18-8.5c-2.628 9.203 2.546 15.422 4 22 .658 2.975-1.992 10.313 2 11.5"/><path fill="#186192" d="M421 542c-9.11 52.412 25.558 97.865 79 102v2c-54.059-3.918-89.998-50.816-82-104z"/><path fill="#515e67" d="M105 565c.167.945-.182 2.062 0 3 .588 3.022 4.965 22.749 6.5 23 1.117-3.386 7.059-2.782 7.5-3.5.598-.974-3.808-18.506-4-22.5-.175-3.635.072-7.356 0-11l9 1c1.043 26.346 6.007 51.499 14 76.5-13.038-2.2-21.143-10.141-28-20.5 3.313-1.865-2.216-9.438-3-12.5-1.749-6.834-9.447-52.067-6.5-54.5 2.286-1.888 2.233 1.309 2.5 2.5.989 4.414.949 12.54 2 18.5"/><path fill="#1a5a8c" d="M408.5 547c3.541 55.014 32.995 98.819 91 104 8.788.785 17.807-.892 26.5-.5-57.209 10.376-110.111-25.215-117-84z"/><path fill="#001c38" d="M472 620c50.258 12.139 94.328-22.302 101-72 8.165 58.654-48.593 100.139-101 72"/><path fill="#535f69" d="M926 563c-1.76 29.196-11.693 59.44-41.5 70-1.781-1.057-.878-2.826-.5-4.5 5.416-23.966 12.219-38.966 14-65.5 3.527-2.461 3.837-1.14 8-1-.031.659.038 1.342 0 2-.245 4.203-3.412 20.496-3 21.5.198.484 8.912 2.954 10 2 2.331-7.241 3.976-14.878 5-22.5.669-4.982 1.393-9.929 1-15 .102.015.262-2.13 2-.5l-1 15z"/><path fill="#879199" d="M919 550c.393 5.071-.331 10.018-1 15l-12-1c.038-.658-.031-1.341 0-2 .185-3.921.974-7.868 1-12 3.773.385 8.377-.536 12 0"/><path fill="#c3e8f5" d="M535.5 558c22.095-3.93 18.906 33.196-3 24-10.18-4.273-7.41-22.148 3-24"/><path fill="#707b84" d="M918 565c-1.024 7.622-2.669 15.259-5 22.5-1.088.954-9.802-1.516-10-2-.412-1.004 2.755-17.297 3-21.5z"/><path fill="#6d7b83" d="M115 565c.192 3.994 4.598 21.526 4 22.5-.441.718-6.383.114-7.5 3.5-1.535-.251-5.912-19.978-6.5-23 3.737-2.746 4.854-3.71 10-3"/><path fill="#4f5961" d="M150 574c3.384 25.067 11.205 50.286 21 73.5-33.542 7.667-41.696-51.114-44-74.5z"/><path fill="#515b63" d="M895 573c-2.496 25.67-9.362 75.659-42.5 76 7.155-24.359 14.713-49.223 18.5-75z"/><path fill="#9fc0cd" d="M272 628c2.844 6.496 8.19 16.411 12 24 2.502 4.985 5.274 10.133 8 15 14.372 25.656 32.921 49.424 57 67 8.069 7.096 16.024 13.111 25 19 12.253 8.039 25.475 15.296 39 21l-7 19c-78.951-32.316-142.219-104.887-162-188l18.5-6c2.623 9.859 5.403 19.643 9.5 29"/><path fill="#c5e8ec" d="M736 657c-17.089 31.434-37.794 55.848-64 80-73.566 58.36-171.718 73.812-259 37-13.525-5.704-26.747-12.961-39-21 14.364-8.216.124-11.754-8-19 15.695 7.224 29.598 18.064 45.5 25 128.449 56.023 276.511-7.428 327.5-136-3.251 10.392-7.472 20.13-13 29.5z"/><path fill="#e3eff0" d="M672 737c26.206-24.152 46.911-48.566 64-80a294 294 0 0 0 15-32c-12.549 43.167-44.022 84.252-79 112"/><path fill="#6f8995" d="m318 685-9 5c-5.815-7.582-11.979-14.814-17-23-2.726-4.867-5.498-10.015-8-15 3.171-4.034 8.699-2.993 9-9 6.187 13.226 16.275 30.332 25 42"/><path fill="#125988" d="M629 664c.626-.646 1.952-2.193 3-1.5.352 2.483-2.409 1.101-3 1.5m0 0c-40.997 42.311-77.529 85.127-143 85.5 3.058-4.237 11.946-1.931 15.5-2.5 30.039-4.81 60.944-20.124 86-42 12.893-11.257 27.158-31.317 41.5-41"/><path fill="#e0f1f2" d="M309 690c12.125 15.809 24.998 30.807 40 44-24.079-17.576-42.628-41.344-57-67 5.021 8.186 11.185 15.418 17 23"/><path fill="#a6bdc5" d="M318 685c13.433 17.962 31.29 34.097 48 49 8.124 7.246 22.364 10.784 8 19-8.976-5.889-16.931-11.904-25-19-15.002-13.193-27.875-28.191-40-44z"/><path fill="#a3d6e3" d="M446 849c-14.187-2.235-27.189-5.36-41-9-.908-.239-1.767-.663-3-1 42.692 7.744 85.901 13.002 129.5 9 1.805 2.11-6.49 2.945-7 3-9.741 1.053-21.85-.305-32 0-.905.027-.095 2.974-1 3-13.429.379-31.98-2.87-45.5-5"/><path fill="#558b9e" d="m446 849-5 6c-12.637-2.198-25.188-4.327-37.5-8l-1.5-1.5 3-5.5c13.811 3.64 26.813 6.765 41 9"/></svg>