<svg xmlns="http://www.w3.org/2000/svg" width="1024" height="1024"><defs><linearGradient id="a" x1="707.732" x2="313.835" y1="301.499" y2="721.763" gradientUnits="userSpaceOnUse"><stop offset="0%" style="stop-color:#c5c8d1"/><stop offset="83.681%" style="stop-color:#f5f6f6"/></linearGradient></defs>/&gt;

/&gt;

/&gt;<path fill="#f8f8f9" d="M925.436 749.517c-5.225-.106-4.802 1.131-3.063-3.888 7.676-22.141 26.189-48.05 35.219-73.104 158.871-440.825-361.935-819.131-725.812-526.5 64.133-58.08 156.844-98.863 242.703-107.321 376.28-37.07 647.615 375.2 450.953 710.813"/><path fill="url(#a)" d="M773 664c-111.921 188.033-376.408 203.391-507 26.5-96.298-130.439-72.975-313.971 54-414.5 237.634-188.14 577.753 55.082 474 338.5-5.897 16.108-17.987 32.765-23 47-1.136 3.227-1.412 2.432 2 2.5M490.5 250C309.232 262.487 197.073 460.468 276 624.5c81.267 168.893 310.174 198.785 433 57C861.378 505.601 721.43 234.092 490.5 250" style="fill:url(#a)" transform="matrix(1.53125 0 0 1.5554 -258.22 -283.262)"/><path fill="#ebeced" d="m470.655 399.554-64.313 50.55c-.081.551 4.361 9.053 4.594 10.11 4.468 20.326 23.498 65.064 24.5 80.103.222 3.33-.081 8.955-3.828 10.11-8.248 2.543-73.646-50.698-87.282-54.439l-81.156 54.44-5.36-10.11 27.563-90.214-81.156-68.437c1.553-.998 4.185-5.069 5.36-5.444 13.568-4.338 57.454 1.845 74.265-1.555 5.265.521 20.701 1.209 24.5-2.333 2.661-2.48 22.568-59.37 26.031-68.437 1.683-4.405 2.107-13.958 3.063-16.332 1.943-1.296 3.698-1.656 3.062-4.666 1.694-1.48 4.32-3.8 6.891-3.11 10.748 9.412 33.303 91.703 39.812 94.878 22.697 3.722 72.268-3.854 91.875 1.555 16.954 4.679-3.508 17.617-8.421 23.331"/><path fill="#e4e6e9" d="m827.436 399.554-64.313 50.55c-.436 1.603 4.055 10.92 4.594 13.221 2.785 11.877 24.573 78.803 22.969 83.214-.124.34-3.548 3.798-3.829 3.888-6.555 2.13-72.988-48.967-84.218-54.439-12.241 3.354-79.954 59.297-87.281 52.884-5.93-5.19 23.438-86.732 26.796-98.768-8.55-9.02-80.626-61.6-81.156-66.881-1.02-10.146 30.12-6.598 36.75-7 21.156-1.278 42.31-2.067 63.547-1.555l34.453-90.213c5.173-3.056 6.23-8.483 12.25-.777l35.985 90.99c12.792 1.02 96.177-.974 98.765 5.444.387 8.548-9.878 13.039-15.312 19.442"/><path fill="#2f2e32" d="M337.436 287.566c1.243-3.087-.05-1.944 3.062-4.666.636 3.01-1.119 3.37-3.062 4.666"/><path fill="#f1f2f3" d="M353.514 635.974c10.96-2.746 68.762 15.908 85.75 18.664 67.952 11.028 134.929 6.849 202.125-6.221 19.128-3.72 68.534-29.571 65.078 8.554-3.41 37.62-48.741 94.51-78.86 115.877-90.052 63.882-213.658 32.16-265.671-64.549-7.292-13.556-32.32-66.337-8.422-72.325"/></svg>