<svg xmlns="http://www.w3.org/2000/svg" width="1024" height="1024"><g fill="#fefefe"><path d="M486.575 38.853 685.68 183.72 486.575 330.016l-.713-99.195c-273.558 16.306-418.736 341.817-235.5 553.78 150.437 174.025 419.961 150.485 558.063-25.69 139.798-178.339 87.507-430.42-99.196-550.213 260.336 114.499 313.375 436.695 122.032 642.986-184.994 199.445-509.303 184.39-669.39-37.11-198.873-275.164-7.597-653.391 323.277-672.958Z"/><path d="M637.866 260.08c228.549 97.051 267.336 394.949 64.227 543.79-181.679 133.137-425.407 46.254-500.258-159.14C293.19 825.866 526.3 878.12 679.257 736.787 801.54 623.798 809.98 435.753 695.67 313.603c-18.083-19.326-41.87-32.818-57.804-53.523"/></g></svg>