<svg xmlns="http://www.w3.org/2000/svg" width="1024" height="1024"><defs><linearGradient id="a" x1="506.922" x2="518.061" y1="234.65" y2="777.536" gradientTransform="matrix(1.56088 0 0 1.56592 -286.99 -276.75)" gradientUnits="userSpaceOnUse"><stop offset="0%" style="stop-color:#ebecec"/><stop offset="100%" style="stop-color:#939493"/></linearGradient></defs>/&gt;<path fill="url(#a)" d="M974.2 561.018c-.111-1.139-4.45-21.09-7.803-14.877-1.084 2.008-3.369 38.406-4.683 45.412C942.916 691.79 890.357 788.51 814.99 856.977c-145.466 132.154-361 156.699-531.48 56.373-15.6-9.18-56.818-45.001-66.337-48.543C136.611 792.054 76.002 691.822 61.086 582.94c-1.534-11.203-3.666-24.147-4.682-35.234-1.506-16.432 5.745-38.672-7.805-50.892C64.85 245.112 282.174 46.01 534.813 56.79c255.19 10.89 462.27 249.127 439.388 504.227m-348.075-92.39c25.798 50.476 24.28 43.62 68.679 17.225 3.522-2.095 15.611-11.567 16.389-10.961 1.85 1.442.072 6.118.78 7.047 4.497 5.889 108.872-82.525 110.823-92.39.441-2.231-3.687-2.402 1.56-14.876 3.442-8.182 10.549-14.953 12.488-24.272 11.165-53.655-45.67-91.653-92.873-68.118-16.047 8.002-19.945 25.32-43.704 18.792-20.623-5.666-19.152-45.198-55.412-62.637.447-8.163-2.766-3.137-3.121-3.132-.52.006-1.043.014-1.561 0-13.016-8.906-36.976-4.286-50.729 3.132-49.417 26.652-31.896 99.384-16.39 141.716 3.212 8.766 35.035 77.918 39.023 79.862.918.446 7.85-6.078 14.048 8.612M189.079 355.882c3.813 16.215 9.087 14.824 15.608 25.838.203.342-3.445 4.954-1.56 7.83 9.455 14.432 101.594 95.904 113.163 96.303 4.403.152 4.247-7.406 16.39 1.566 14.472 9.671 35.06 28.469 49.948 10.179 15.732-19.328 71.458-154.301 76.483-180.864 15.903-84.07-74.859-109.737-110.823-52.459-7.926 12.623-7.498 31.883-25.754 36.8-24.69 6.65-39.099-24.71-68.679-26.621-47.174-3.049-75.322 36.583-64.776 81.428M805.626 575.11c-178.391 112.884-411.39 112.148-590.013 0-.187-1.201-.71-1.625-1.56-2.349 8.57-13.143 35.386-1.118 42.143-14.093 16.397-31.49-59.774-35.434-79.604-1.566-10.956 18.713-13.916 87.44 17.95 80.645 16.294-3.475 2.664-31.8 12.487-40.714l201.353 194.174c162.756 117.476 293.232-97.302 401.146-189.476 15.693-6.117-1.356 31.187 14.048 36.016 32.57 10.21 34.767-58.88 22.633-79.08-19.015-31.654-96.578-31.833-81.166 0 7.311 15.1 32.866.887 42.144 14.094-.648.752-1.695 1.118-1.561 2.349M706.51 720.74c-89.148 89.788-183.534 164.894-307.493 78.297-23.014-16.078-46.894-45.124-68.679-59.505-.507-.335-6.247-4.56-5.463-.783 44.852 42.499 88.635 94.522 153.747 104.134 65.265 9.633 122.502-14.64 168.575-59.505z" style="fill:url(#a);stroke-width:1.5634"/><path fill="#e2e2e2" d="M640.173 235.306c-64.29-1.788-91.062 27.93-73.362 92.39 10.293 37.483 41.128 105.351 59.314 140.932-6.198-14.69-13.13-8.166-14.048-8.612-3.988-1.944-35.811-71.096-39.022-79.862-15.507-42.332-33.028-115.064 16.39-141.716 13.752-7.418 37.712-12.038 50.728-3.132" style="stroke-width:1.5634"/><path fill="#c3c2c3" d="M644.855 238.438c-1.354-.652-3.877 1.132-3.121-3.132.355-.005 3.568-5.031 3.121 3.132" style="stroke-width:1.5634"/><path fill="#e1e2e2" d="M209.37 382.503c28.825 31.32 87.856 81.224 123.31 104.916-12.143-8.972-11.987-1.414-16.39-1.566-11.569-.399-103.708-81.87-113.164-96.304-1.884-2.875 1.764-7.487 1.561-7.83-6.521-11.013-11.795-9.622-15.608-25.837 5.199 11.318 12.204 17.834 20.291 26.62" style="stroke-width:1.5634"/><path fill="#dfdfdf" d="M694.804 485.853c40.863-32.554 81.648-64.758 118.626-101.785 3.256-3.26 7.36-6.42 10.926-9.395-5.247 12.474-1.119 12.645-1.56 14.876-1.951 9.865-106.326 98.279-110.823 92.39-.708-.929 1.07-5.605-.78-7.047-.778-.606-12.867 8.866-16.39 10.961" style="stroke-width:1.5634"/><path fill="#bfbfbf" d="m61.086 582.94-6.243-32.1c-3.462 2.653-4.44 11.252-4.683 14.875-3.688-22.837-3.045-45.912-1.56-68.9 13.55 12.22 6.298 34.46 7.804 50.892 1.016 11.087 3.148 24.03 4.682 35.234" style="stroke-width:1.5634"/><path fill="#919291" d="M974.2 561.018c9.3 94.566-85.028 243.6-152.965 305.354l-6.244-9.395c75.366-68.468 127.925-165.188 146.723-265.424 1.314-7.006 3.6-43.404 4.683-45.412 3.354-6.213 7.692 13.738 7.804 14.877" style="stroke-width:1.5634"/><path fill="#909190" d="M61.086 582.94c14.916 108.882 75.525 209.114 156.088 281.867-6.262-2.33-5.127 3.504-10.926 6.263C134.691 807.434 43.516 664.508 50.16 565.715c.244-3.623 1.22-12.222 4.683-14.876Z" style="stroke-width:1.5634"/><path fill="#f8f8f9" d="m706.51 720.742-59.313 62.637c-46.073 44.865-103.31 69.138-168.575 59.505-65.112-9.612-108.895-61.635-153.747-104.134-.784-3.777 4.956.448 5.463.783 21.785 14.381 45.665 43.427 68.679 59.505 123.959 86.597 218.345 11.49 307.493-78.296" style="stroke-width:1.5634"/><path fill="#737473" d="M821.235 866.372c-175.82 159.822-436.828 163.138-614.987 4.698 5.799-2.759 4.664-8.594 10.926-6.263 9.519 3.542 50.737 39.362 66.338 48.543 170.479 100.326 386.013 75.781 531.48-56.373z" style="stroke-width:1.5634"/></svg>