<svg xmlns="http://www.w3.org/2000/svg" width="1024" height="1024"><defs><linearGradient id="a" x1="636.26" x2="382.871" y1="238.687" y2="777.035" gradientUnits="userSpaceOnUse"><stop offset="20.168%" style="stop-color:#dfe0df"/><stop offset="100%" style="stop-color:#8c8c8b"/></linearGradient></defs>/&gt;<path fill="#d7d7d7" d="m918.362 266.306-7.537 3.015C795.34 83.062 562.458-1.269 354.593 76.374l-7.537-4.523C508.708 9.07 685.699 39.638 818.119 150.236c30.91 25.816 82.597 80.473 100.243 116.07"/><path fill="url(#a)" d="M771 345c90.009 145.172 42.155 339.937-103 428C383.813 945.412 66.342 598.442 257 329c34.055-48.127 89.708-91.347 145-112 137.896-51.508 292.389 4.437 369 128m-426-20c1.073 4.087 3.491 7.185 6.5 10l64.5 45-63.5 46c-6.507 6.18-9.501 10.734-8.5 20 1.459 13.509 15.874 21.711 28.5 15 8.466-4.5 88.813-64.409 91.5-69.5 1.152-2.182 1.632-5.059 2-7.5.673-4.469.856-8.336-1-12.5-7.358-16.506-81.128-54.235-96.5-71.5-16.501-4.265-27.639 9.239-23.5 25m207 58c-.014 4.317 3.621 10.872 6.5 14l90 65c10.689 4.198 22.912-3.553 25.5-14 1.07-4.317 1.39-8.281 0-12.5-3.691-11.204-60.295-45.02-73-53.5l66.5-48c3.367-3.344 5.619-7.303 6.5-12 3.085-16.451-11.902-28.789-27.5-21-2.832 1.414-11.085 10.312-15 13-12.518 8.594-75.186 49.243-78.5 58.5-1.189 3.322-1.05 7.035-1 10.5M302 516c-17.339 10.496-7.419 44.466-3 61.5 49.268 189.923 306.955 223.429 401 49 9.128-16.93 37.125-90.396 25-105-.696-.838-3.095-.364-4-1.5-.498-1.675-1.689-4.391-4-4-6.413-6.895-9.733-12.854-20.5-15h-370c-9.202 1.867-19.529 6.52-24.5 15" style="fill:url(#a)" transform="translate(-251.383 -250.733)scale(1.5074)"/><path fill="#afb0af" d="m347.056 71.851 7.537 4.523c-83.347 31.132-167.239 96.282-218.573 168.829-3.957 3.012-3.181-.923-6.03-3.015 53.668-76.478 129.875-136.474 217.066-170.337"/><path fill="#9b9c9b" d="M136.02 245.203C-151.378 651.36 327.178 1174.384 755.562 914.49c3.268 4.722 2.842 2.23 7.537 1.507-339.232 211.06-760.341-69.044-716.016-460.512 3.197-28.232 12.34-55.644 16.581-83.66.567-1.3 1.832-3.302 3.015-6.03.817-1.884 2.153-4.064 3.015-6.03 19.643-44.813 31.398-76.396 60.296-117.577 2.849 2.092 2.073 6.027 6.03 3.015"/><path fill="#646562" d="M918.362 266.306c.199.403-.189 1.09 0 1.508.182.402-1.21 6.949 4.522 6.03.903 1.834 1.011 3.213 1.507 4.522.076.199-2.428 3.631 3.015 3.014 15.085 26.418 28.755 57.375 39.193 85.922-.44 10.619 5.087 19.765 6.03 30.148.025.29-4.225 4.404 1.507 1.508.518 6.317 2.582 11.783 3.014 18.089.025.357-4.654 6.147 1.508 3.015.722 4.463 1.323 9.021 1.507 13.566.015.359-4.64 6.162 1.508 3.015.092 2.47.102 5.066 0 7.537-.015.357-4.672 6.162 1.507 3.015.357 7.48 2.72 15.37 3.015 22.61-4.48-1.103-4.53 7.579 0 9.045.03 2.5-.014 5.038 0 7.537.081 15.496.562 36.406 0 51.252-5.875 154.944-92.71 297.236-223.096 378.358-4.695.722-4.269 3.215-7.537-1.507C974.37 781.743 1046.504 488.154 910.825 269.32z"/><path fill="#b8b8b8" d="M922.884 273.843c-5.733.92-4.34-5.627-4.522-6.03 1.57 1.392 3.611 4.18 4.522 6.03"/><path fill="#b6b6b7" d="M927.406 281.38c-5.443.617-2.94-2.815-3.015-3.014 1.817.08 2.293 1.748 3.015 3.014"/><path fill="#0e0e0e" d="M69.694 359.765c-.862 1.966-2.198 4.146-3.015 6.03-3.5-2.024-1.335-9.52 3.015-6.03"/><path fill="#b3b2b1" d="M974.136 398.958c-5.732 2.896-1.482-1.218-1.508-1.508 1.284-.155 1.413.358 1.508 1.508"/><path fill="#b0b0b0" d="M978.658 420.062c-6.162 3.132-1.483-2.658-1.508-3.015-.048 1.319 1.265 1.51 1.508 3.015"/><path fill="#acabaa" d="M981.673 436.643c-6.148 3.147-1.493-2.656-1.508-3.015 2.064-.047 1.453 1.554 1.508 3.015"/><path fill="#b0b0ae" d="M983.18 447.195c-6.179 3.147-1.522-2.658-1.507-3.015 2.074-.047 1.438 1.563 1.507 3.015"/><path fill="#aaa9a9" d="M986.195 469.806c.122 2.989-.036 6.049 0 9.044-4.53-1.466-4.48-10.148 0-9.044"/><path fill="#a8a6a7" d="M986.195 537.639c.562-14.846.081-35.756 0-51.252z"/><path fill="#0a0b0a" d="M829.425 527.087c1.34 1.44 5.725 5.647 6.03 6.03 12.76 42.893-38.198 154.174-64.819 190.686-149.802 205.467-464.48 155.511-551.71-79.892-10.023-27.052-29.344-92.482-15.073-116.824 7.493-12.783 23.06-19.797 36.931-22.61h557.74c16.23 3.234 21.234 12.217 30.9 22.61m-582.611-12.06c-39.057 5.857-40.415 26.133-35.424 59.543 10.36 69.357 49.378 138.876 98.735 187.672 80.483-123.318 255.067-148.054 367.806-52.76 17.429 14.733 30.5 33.89 46.73 49.745 40.096-39.17 72.96-92.827 88.182-146.972 8.163-29.03 27.046-89.972-17.335-97.227zm85.168 263.796c99.612 85.246 273.039 83.043 372.328-1.507 3.371-2.87 6.534-6.24 10.552-8.29-87.818-140.617-307.49-140.914-394.94 0 3.108 4.526 8.245 6.532 12.06 9.797"/><path fill="#d3d4d4" d="M203.853 527.087c-14.27 24.342 5.05 89.772 15.074 116.824 87.229 235.403 401.907 285.359 551.71 79.892 26.62-36.512 77.578-147.793 64.818-190.686 1.364 1.712 4.98.998 6.03 2.26 18.276 22.015-23.926 132.758-37.686 158.278-141.764 262.935-530.202 212.428-604.468-73.863-6.662-25.677-21.615-76.883 4.522-92.705"/><path fill="#d3d4d4" d="M835.455 533.117c-.305-.383-4.69-4.59-6.03-6.03 3.484-.59 5.279 3.505 6.03 6.03"/><path fill="#d4d5d5" d="M704.31 777.316c-85.151-131.207-291.391-135.917-372.328 1.507-3.815-3.265-8.952-5.271-12.06-9.798 87.45-140.913 307.122-140.616 394.94 0-4.018 2.05-7.181 5.42-10.552 8.291"/><path fill="#3b3b3b" d="M704.31 777.316c-99.29 84.55-272.716 86.753-372.328 1.507C412.919 641.4 619.159 646.11 704.31 777.316"/></svg>