<svg xmlns="http://www.w3.org/2000/svg" width="1024" height="1024"><defs><linearGradient id="a" x1="494.695" x2="527.942" y1="236.208" y2="779.191" gradientUnits="userSpaceOnUse"><stop offset="41.544%" style="stop-color:#dfdfde"/><stop offset="100%" style="stop-color:#ababa9"/></linearGradient></defs>/&gt;<path fill="url(#a)" d="M791 590c-17.433-.171-15.448 15.709-21 28.5-4.109 9.468-8.929 19.526-14 28.5-59.945 106.089-179.306 158.583-299 137-38.133-6.876-84.587-27.197-116-50-29.112-21.133-57.169-53.88-75-85-4.664-8.14-10.333-18.465-14-27-18-41.893-27.027-88.852-24-134.5l-11 4.5c6.64-146.583 131.899-271.112 278.5-277 201.99-8.113 354.109 179.157 295.5 375M390.5 374c-50.975 7.61-56.303 151.968 11 144 18.913-2.239 41.002-37.301 39.5-54.5-.369-4.224-3.048-1.914-3-3 .35-7.977 2.394-14.602 2-23-1.183-25.215-17.53-68.273-49.5-63.5M665 423c-.801-4.424-2.483-8.784-4-13 1.039-12.293-18.872-34.073-30.5-36-62.596-10.373-70.143 152.507-1 144 37.839-4.655 41.349-61.084 38.5-89.5-.066-.654-1.057-6.372-3-5.5M305 658c4.329 12.894 17.844 18.241 30.5 16 8.445-1.495 32.583-26.288 42-33 79.892-56.943 179.304-59.063 261-4 18.418 12.414 59.713 63.315 77.5 22 9.61-22.322-17.269-41.664-33.5-54-104.472-79.4-238.412-78.725-343 0-16.557 12.463-42.353 29.61-34.5 53" style="fill:url(#a)" transform="matrix(1.66528 0 0 1.61443 -339.417 -311.838)"/><path fill="#f6f6f6" d="M310.875 291.959c53.24-7.706 80.462 61.809 82.432 102.516.656 13.558-2.748 24.254-3.33 37.132-.08 1.754 4.38-1.976 4.995 4.844 2.501 27.766-34.283 84.371-65.779 87.986-112.078 12.864-103.205-220.192-18.318-232.478m0 3.229c-83.51 12.16-76.728 218.542 11.657 214.72 89.013-3.851 88.645-229.324-11.657-214.72"/><path fill="#f6f6f5" d="M761.334 350.079c-46.165-124.418-157.4-20.25-123.231 96.058 37.492 127.62 151.684 41.674 129.892-75.07 3.236-1.409 4.886 7.823 4.996 8.879 4.744 45.875-1.101 136.976-64.114 144.491-115.142 13.734-102.574-249.224 1.666-232.478 19.364 3.111 52.521 38.273 50.79 58.12"/><path fill="#bebebc" d="m80.234 692.338-14.988 6.458C33.155 628.064 18.3 560.578 21.95 482.462l18.318-7.265c-5.04 73.696 9.992 149.508 39.967 217.141"/><path fill="#868582" d="M977.82 640.676c-9.935 32.184-19.503 54.17-34.97 83.95-11.171-1.236-11.624 11.515-23.314 8.073 8.444-14.488 16.47-30.726 23.313-46.011 9.246-20.65 5.94-46.288 34.971-46.012"/><path fill="#70716e" d="M103.548 735.928c-5.24 8.737-6.235.403-16.653 4.843-8.43-14.373-14.776-26.827-21.649-41.975l14.988-6.458c6.106 13.78 15.547 30.448 23.314 43.59"/><path fill="#6c6b69" d="M942.85 724.627c-100.462 193.43-318.632 291.045-537.886 243.779 2.969.227 10.86-2.123 14.155 1.614l2.497-16.144c199.325 34.844 398.094-49.904 497.92-221.177 11.69 3.442 12.143-9.309 23.313-8.072"/><path fill="#5b5a59" d="M103.548 735.928c29.693 50.24 76.416 103.109 124.896 137.226l-8.327 14.53c-55.165-39.818-99.34-89.145-133.222-146.913 10.418-4.44 11.412 3.894 16.653-4.843"/><path fill="#454544" d="m421.616 953.876-2.497 16.144c-3.294-3.737-11.186-1.387-14.155-1.614-54.309-4.165-141.135-49.17-184.847-80.722l8.327-14.53c52.311 36.814 129.67 69.621 193.172 80.722"/></svg>