<svg xmlns="http://www.w3.org/2000/svg" width="1024" height="1024"><defs><linearGradient id="a" x1="513.432" x2="509.286" y1="445.428" y2="839.406" gradientUnits="userSpaceOnUse"><stop offset="21.32%" style="stop-color:#e7e6e7"/><stop offset="100%" style="stop-color:#90908e"/></linearGradient></defs>/&gt;<path fill="#ebebeb" d="M486.348 74.169c194.67-10.984 375.95 99.72 448.497 280.56-1.486 2.156-2.39 1.884-4.665 2-12.47.633-48.199-8.377-65.308-9.33-119.738-6.666-216.845 24.412-329.21 31.988-52.371 3.53-104.353-12.192-155.94-18.66-92.825-11.638-188.526-21.825-281.227-3.998C155.96 197.656 318.115 83.66 486.348 74.169"/><path fill="#2e2e2c" d="M700.934 358.062c3.553-.026 7.108.018 10.662 0 .85 2.998-3.433 4.942-5.331 5.33-23.926 4.912-58.171 4.325-83.968 7.998-32.305 4.6-64.404 11.714-96.63 16.66 22.644-6.89 46.66-12.623 69.973-16.66 29.182-5.054 76.723-13.122 105.294-13.328"/><path fill="#424341" d="m338.404 359.394 168.603 27.323-167.27-21.991z"/><path fill="url(#a)" d="M187.5 407c3.098 3.525 1.192 11.62 3.5 15.5 2.133 3.587 9.597 4.713 15 16 27.468 57.385 10.65 111.598 93.5 123.5 55.582 7.985 122.439 2.973 158.5-45.5 9.858-13.251 32.625-69.653 40.5-73.5 33.679-16.453 41.777 33.464 53.5 54.5 35.035 62.87 94.81 73.391 162.5 65.5 93.443-10.894 70.786-63.906 102.5-126.5 4.752-9.379 12.662-11.641 14-14 1.96-3.455.365-12.263 3.5-15.5 67.464 208.059-83.609 431.336-302 443-239.79 12.806-416.204-213.772-345-443m313 53c-8.982 2.062-5.175 7.025-5.5 7.5-.212.31-8.393 2.552-3.5 3.5 3.009.583 7.499-4.891 8-5 4.521-.985 23.711 3.363 25.5-.5l-.5-4.5c-5.521 1.708-20.01-1.916-24-1m39.5 40c1.634 1.581 2.985-2.655 1.5-4-2.177-.541-1.654 3.851-1.5 4-.491-1.473-3.646-2.425-4-3.5-.606-1.84.21-14.577-3.5-12.5-.804 4.56 3.02 25.946 7 27l3.5-1.5c-4.723-2.299-1.852-6.055-3-9.5M292 619c-4.731 6.851 5.95 23.639 10 30.5 94.359 159.868 334.99 157.256 423-7 1.255-2.343 8.889-17 9-18 .24-2.168-3.205-3.668-4-4.5-5.563-5.818-8.465-7.398-17.5-6-5.974.924-39.026 22.504-50 27-83.327 34.137-223.981 32.863-307-2-16.159-6.786-41.731-27.612-57-25-1.723.295-5.362 3.352-6.5 5" style="fill:url(#a)" transform="translate(-164.74 -155.078)scale(1.33283)"/><path fill="#e9e9e9" d="M502.342 458.024c5.318-1.221 24.63 3.61 31.988 1.333l.666 5.997c-2.384 5.15-27.961-.646-33.987.667-.668.145-6.652 7.441-10.662 6.664-6.522-1.264 4.382-4.252 4.665-4.665.433-.633-4.641-7.248 7.33-9.996"/><path fill="#e3e3e3" d="M554.989 511.337c1.53 4.592-2.297 9.598 3.998 12.662l-4.665 2c-5.304-1.406-10.401-29.91-9.33-35.987 4.945-2.769 3.858 14.208 4.666 16.66.471 1.433 4.676 2.702 5.33 4.665"/><path fill="#e3e3e3" d="M554.989 511.337c-.205-.199-.902-6.052 2-5.331 1.978 1.792.178 7.438-2 5.331"/><path fill="#4c4b4a" d="M868.87 519.334c-20.69 79.932-145.55 69.524-205.922 49.981 65.429 15.57 176.925 28.677 205.922-49.981"/><path fill="#4a4a48" d="M166.469 525.998c33.769 72.533 145.266 59.35 208.588 40.651-38.687 18.162-94.56 19.462-136.615 12.662-30.673-4.96-63.915-20.301-71.973-53.313"/><path fill="#444744" d="M311.081 575.313c-15.345 1.03-28.657 1.03-43.983 0z"/><path fill="#fcfdfd" d="M224.447 669.944c31.18 76.944 103.69 144.561 181.931 173.268 159.435 58.496 333.9-18.912 401.849-171.935 1.06 1.109 5.65 3.108 5.33 5.997-.147 1.333-10.322 20.868-11.995 23.991-117.302 218.926-438.022 222.407-563.787 9.33-5.398-9.144-19.634-31.52-13.328-40.651"/></svg>