<svg xmlns="http://www.w3.org/2000/svg" width="1024" height="1024"><defs><linearGradient id="a" x1="576.676" x2="445.673" y1="211.865" y2="789.188" gradientUnits="userSpaceOnUse"><stop offset="32.77%" style="stop-color:#ececec"/><stop offset="100%" style="stop-color:#939595"/></linearGradient></defs>/&gt;

/&gt;<path fill="url(#a)" d="M824 460c-8.294 2.466-3.904 14.09-5 19.5-.312 1.539-10.113 11.947-2 15.5-3.941 15.73 2.384 32.72-1 46.5-.43 1.749-13.784 17.84-14 19-1.097 5.889 4.843 9.423 5 11 .107 1.072-7.225 16.693-8 20-.394 1.683 3.024 3.441 3 4-.195 4.575-21.375 29.965-22 34-.818 5.276 4.251 5.072-1 14-3.288 5.59-12.857 9.173-16 14-1.227 1.884-3.72 10.695-3 13-9.211 6.102-14.559 17.652-18 28 8.137-2.931 13.74-8.16 19-15 .068-.089-1.67-1.154-1-2 7.6-9.602 18.626-20.311 24-31 .871-1.732-2.51-1.051-2-3 .414-1.582 5.102-3.084 6-5 1.26-2.687 1.379-12.449 2-14 .158-.394 5.521-4.91 6-6 .104-.237-2.568-1.742-2-3 .723-1.601 5.305-4.421 6-6 3.539-8.037 15.128-34.086 16-41 .573-4.545-2.785-5.878-2-9 1.035-4.117 11.279-8.194 9-17l3 2.5c-2.302 20.509-7.729 40.472-14 60-3.924-2.477-2.195-.119-3 1.5-18.758 37.716-33.162 73.163-65 102.5-8.039 7.408-18.221 14.351-27 21 4.837-5.917-6.781-2.73-8.5-2-5.023 2.134-10.457 10.915-15 14-.722.49-5.28-.49-6 0-4.092 2.788-9.242 10.465-12 12-2.5 1.392-6.277.598-7 1-21.8 12.1-44.319 23.138-64.5 38-1.722-.362-7.074-1.997-7.5-2-2.367-.018-6.37 3.794-9 3-1.658-.5.032-4.228-2-4-.821.092-5.61 4.994-6 5-.672.01-7.03-5.842-12-5-3.111.527-11.684 11.823-13 12-3.225.435-2.264-3.034-5-2-2.16.817-6.034 5.57-10 6-3.943.427-4.137-2.491-8-2-20.808 2.644-50.236 4.643-71 4-3.109-.096-9.199-3.886-11-4-10.705-.678-19.287 3.758-31-1-3.267-1.327-2.242-3.566-3-4-1.965-1.126-5.237 2.369-6.5-3.5l11.5-2.5c-4.49-9.04-16.66-6.211-26-10-1.122-.455-9.013-4.397-10-5-.334-.204-.465-4.866-4-6-1.801-.578-6.63.631-8 0-.385-.177-2.774-5.146-6-6-4.027-1.066-15.306 1.113-19-2-1.238-1.043.236-4.022-1-5-8.823-6.984-9.635-2.924-16.5-13.5-.628-.968-7.442-3.368-1-7-4.097-.293-2.459-3.698-5.5-5.5-1.728-1.024-14.072-4.425-17-7-3.581-3.149-4.497-9.339-5.5-10.5-.582-.674-12.012-5.784-15-9-1.511-1.626-2.722-7.676-3-8-2.052-2.387-9.088-5.736-10-7-1.449-2.006-.745-6.695-1-7-.463-.554-5.515-4.026-7-5.5 2.093-8.053-5.488-10.6-9-15.5-.308-.429.486-2.105-.5-3.5-.246-.347-2.742.598-3.5-.5-.239-.347-.752-4.628-1-5-1.954-2.929-8.916-10.643-10-14-3.665-11.347 4.613-9.018 5-10 .109-.276-2.622-.795-3-2-.42-1.339-.381-6.856-1-8-1.947-3.599-12.328-6.593-14-10-.501-1.021.344-20.769 0-22-.141-.504-2.563-.657-3-2-1.759-5.41-4.616-16.904-11-16-3.21 12.946 7.21 20.323 11 31 .817 2.302-.695 9.362 2 15 .682 1.427 5.74 4.377 6 5 2.367 5.675 2.817 22.649 5 27 .38.758 10.615 10.08 12 12 .548.76.809 5.763 1 6 1.228 1.52 5.692 7.117 7 8.5-3.551 5.458 10.487 13.885 7.5 18l-3.5.5-45-68.5c-94.765-235.333 111.983-478.741 359.5-429C702.069 225.234 804.466 333.925 824 460M378.5 339c-61.832 2.57-55.754 176.309 7 166 54.552-8.962 52.138-168.458-7-166M581 414c-1.76 2.109-1.677 2.194-3 4-.675.921-1.338 2.025-2 3-31.869 46.939 10.702 20.588 30.5 15 31.551-8.905 61.793-7.38 93 2 9.69 2.913 23.214 15.513 28.5 5 .314-.624 5.44-4.934-1-7-20.678-64.722-102.736-73.839-146-22M203.5 543c2.738 8.578 2.836 15.168 9 22 4.365-.236-.976-23.648-9-22M316 580c2.387 17.911 30.415 57.543 43 71.5 89.354 99.094 234.61 91.398 316-13 8.646-11.091 31.638-47.14 33-58.5.564-4.702 2.268-11.407-4.5-13-7.702-1.813-40.885 19.584-51 24-81.258 35.476-203.996 33.903-285-2-10.273-4.553-38.553-23.845-47-22-7.845 1.713-5.236 7.479-4.5 13" style="fill:url(#a)" transform="translate(-236.984 -237)scale(1.47)"/><path fill="#fcfcfc" d="M319.413 261.332c86.933-3.613 90.482 230.847 10.29 244.021-92.248 15.154-101.183-240.243-10.29-244.02m-2.94 14.7c-71.592 8.793-68.19 204.843-2.94 216.091 86.037 14.831 88.749-226.629 2.94-216.09M617.09 371.583l-4.41 5.88c1.944-2.655 1.822-2.78 4.41-5.88"/><path fill="#fbfcfc" d="M833.18 414.213c-7.77 15.454-27.65-3.068-41.895-7.35-45.875-13.789-90.33-16.03-136.71-2.94-29.104 8.214-91.683 46.95-44.836-22.05 4.475 7.858-22.854 33.998-8.085 38.22 5.244 1.5 39.074-18.724 48.51-22.05 44.77-15.78 93.891-15.24 138.18 1.47 8.531 3.218 40.708 26.222 44.836 14.7"/><path fill="#fcfcfc" d="M833.18 414.213c.438-3.572-.407-6.965-1.47-10.29 9.467 3.037 1.932 9.373 1.47 10.29"/><path fill="#c2c3c3" d="M974.3 439.203c.978 6.306 2.255 12.776 2.94 19.11-9.162 5.069-5.424 21.465-5.88 22.785-.639 1.857-6.165 4.825-7.35 9.555-11.926-5.223 2.482-20.523 2.94-22.785 1.612-7.953-4.842-25.04 7.35-28.665"/><path fill="#a1a2a2" d="m977.24 570.033-4.41-3.675c3.35 12.945-11.708 18.938-13.23 24.99-1.154 4.59 3.783 6.55 2.94 13.23-1.281 10.164-18.317 48.456-23.52 60.27-1.021 2.322-7.757 6.467-8.82 8.82-.835 1.85 3.093 4.062 2.94 4.41-.704 1.603-8.587 8.242-8.82 8.82-.913 2.28-1.088 16.631-2.94 20.58-1.32 2.817-8.211 5.025-8.82 7.35-.75 2.866 4.22 1.865 2.94 4.41-7.9 15.714-24.108 31.456-35.28 45.571-.985 1.244 1.57 2.81 1.47 2.94-7.732 10.055-15.969 17.742-27.93 22.05 5.058-15.211 12.92-32.19 26.46-41.16-1.058-3.388 2.606-16.34 4.41-19.11 4.62-7.096 18.687-12.363 23.52-20.58 7.72-13.124.268-12.824 1.47-20.58.919-5.932 32.054-43.255 32.34-49.98.036-.822-4.989-3.406-4.41-5.88 1.14-4.862 11.918-27.825 11.76-29.4-.23-2.319-8.962-7.514-7.35-16.17.318-1.706 19.948-25.36 20.58-27.93 4.975-20.257-4.323-45.233 1.47-68.356 1.185-4.73 6.711-7.698 7.35-9.555.456-1.32-3.282-17.716 5.88-22.785 3.996 36.947 4.143 74.82 0 111.72"/><path fill="#b2b4b4" d="M62.162 561.213c11.796-2.422 19.647 31.994 13.23 32.34-9.06-10.043-9.205-19.73-13.23-32.34"/><path fill="#a0a2a1" d="M152.568 767.014c-1.39-1.379-9.883-5.45-10.29-5.88-1.923-2.033-8.485-10.26-10.29-12.495-.281-.348-.665-7.703-1.47-8.82-2.036-2.822-17.082-16.526-17.64-17.64-3.21-6.396-3.87-31.348-7.35-39.69-.383-.916-7.818-5.253-8.82-7.35-3.962-8.288-1.74-18.666-2.94-22.05-5.572-15.696-20.89-26.54-16.17-45.57 9.384-1.33 13.584 15.567 16.17 23.52.642 1.974 4.202 2.199 4.41 2.94.505 1.81-.737 30.839 0 32.34 2.457 5.008 17.718 9.41 20.58 14.7.91 1.681.852 9.792 1.47 11.76.555 1.771 4.57 2.534 4.41 2.94-.57 1.443-12.738-1.98-7.35 14.7 1.593 4.935 11.827 16.274 14.7 20.58.364.547 1.118 6.84 1.47 7.35 1.114 1.614 4.783.225 5.145.735 1.45 2.05.282 4.514.735 5.145 5.162 7.203 16.306 10.947 13.23 22.785"/><path fill="#fdfdfd" d="M803.78 615.604c-2.002 16.699-35.8 69.691-48.51 85.995-119.644 153.465-333.171 164.779-464.522 19.11-18.5-20.517-59.701-78.776-63.21-105.105 81.944 169.463 274.944 254.41 444.676 148.47 56-34.952 100.941-90.61 131.566-148.47"/><path fill="#6b6d6c" d="M956.66 658.234c-86.524 269.437-403.151 404.41-655.622 269.01 35.61 17.536 86.619 35.763 125.686 42.63 4.768.839 3.573-3.061 4.41-2.94.602.089 1.258 4.14 2.94 4.41 4.81.773 3.572-3.072 4.41-2.94.708.112 3.251 7.323 11.76 1.47.485 9.506 21.056 1.96 24.99 2.94.617.155 1.342 4.239 2.94 4.41 6.212.668 19.64-5.888 27.93-2.94-20.889 4.9 14.205 4.68 22.05 4.41 11.647-1.812 4.933-2.403-1.47-4.41 8.585-2.345 17.687 3.029 24.99 2.94.637-.007 3.753-4.386 4.41-4.41 4.488-.162 4.404 3.34 10.29 2.94 1.611-.108 28.029-3.762 29.4-4.41 2.14-1.008 9.432-11.56 14.7-13.23.624-.196 6.595 2.578 10.29 1.47 18.146-5.434 37.544-12.396 54.39-19.11 11.306-4.505 21.477-11.157 32.34-16.17.758-.35.716 3.296 1.47 2.94 2.854-1.343 9.53-8.298 13.23-10.29 34.491-18.576 75.57-44.236 104.371-70.56 10.11-9.24 24.074-23.81 30.135-35.28 46.802-43.125 67.976-95.233 95.55-150.675 1.184-2.38-1.358-5.846 4.41-2.205"/><path fill="#7a7c7b" d="M142.278 761.134c.407.43 8.9 4.501 10.29 5.88 2.183 2.167 9.61 7.27 10.29 8.085.375.448-.66 7.341 1.47 10.29 1.34 1.858 11.683 6.781 14.7 10.29.408.476 2.189 9.37 4.41 11.76 4.392 4.728 21.194 12.24 22.05 13.23 1.474 1.707 2.82 10.806 8.085 15.435 4.304 3.786 22.45 8.785 24.99 10.29 4.47 2.65 2.062 7.655 8.085 8.085-9.47 5.34.547 8.867 1.47 10.29 10.092 15.547 11.285 9.579 24.255 19.845 1.817 1.438-.35 5.817 1.47 7.35 5.43 4.577 22.01 1.373 27.93 2.94 4.742 1.256 8.254 8.56 8.82 8.82 2.014.928 9.113-.85 11.76 0 5.197 1.668 5.39 8.52 5.88 8.82 1.451.887 13.051 6.682 14.7 7.35 13.73 5.57 31.62 1.412 38.22 14.7l-16.905 3.676c1.857 8.627 6.667 3.49 9.555 5.145 1.115.638-.392 3.929 4.41 5.88 17.219 6.994 29.834.473 45.57 1.47 2.648.167 11.6 5.739 16.17 5.88 30.524.945 73.783-1.994 104.371-5.88 5.679-.722 5.964 3.567 11.76 2.94 5.83-.632 11.525-7.62 14.7-8.82 4.022-1.52 2.61 3.58 7.35 2.94 1.935-.26 14.537-16.866 19.11-17.64 7.306-1.238 16.652 7.364 17.64 7.35.574-.01 7.613-7.215 8.82-7.35 2.987-.336.503 5.145 2.94 5.88 3.866 1.167 9.75-4.437 13.23-4.41.627.004 8.494 2.408 11.025 2.94.274.057 1.782 4.35 2.205 4.41 16.767 2.37 18.16-10.183 27.93-16.17 4.418-2.708 13.648-4.45 16.17-5.88 2.46-1.395 14.57-13.232 16.17-13.23 3.892.004 3.618 4.293 4.41 4.41 1.576.229 17.744-16.913 24.99-19.11 5.39-1.635 5.563 3.025 5.88 2.94 9.17-2.47 9.08-10.169 13.23-13.23 4.71-3.477 19.927-9.228 23.52-11.76 6.607-4.656 13.437-14.912 19.11-19.11.786-.581.118 3.76 2.206 2.204 3.434-2.557 6.802-5.443 10.29-8.085 12.905-9.774 27.873-19.98 39.69-30.87-6.06 11.47-20.024 26.04-30.135 35.28-28.802 26.324-69.88 51.984-104.37 70.56-3.7 1.992-10.377 8.947-13.23 10.29-.755.356-.713-3.29-1.47-2.94-10.864 5.013-21.035 11.665-32.34 16.17-16.847 6.714-36.245 13.676-54.39 19.11-3.696 1.108-9.667-1.666-10.29-1.47-5.27 1.67-12.56 12.222-14.7 13.23-1.372.648-27.79 4.302-29.4 4.41-5.887.4-5.803-3.102-10.29-2.94-.658.024-3.774 4.403-4.411 4.41-7.303.089-16.405-5.285-24.99-2.94 6.403 2.007 13.117 2.598 1.47 4.41-7.845.27-42.939.49-22.05-4.41-8.29-2.948-21.718 3.608-27.93 2.94-1.598-.171-2.323-4.255-2.94-4.41-3.934-.98-24.505 6.566-24.99-2.94-8.509 5.853-11.052-1.358-11.76-1.47-.838-.132.4 3.713-4.41 2.94-1.682-.27-2.338-4.321-2.94-4.41-.837-.121.358 3.779-4.41 2.94-39.067-6.867-90.076-25.094-125.686-42.63-97.723-48.123-178.525-139.022-219.03-239.61l66.15 100.695 5.145-.735c4.39-6.049-16.245-18.437-11.025-26.46"/><path fill="#898a8a" d="M817.01 841.984c-3.488 2.642-6.856 5.528-10.29 8.085-2.088 1.556-1.42-2.785-2.205-2.205-5.674 4.199-12.504 14.455-19.11 19.11-3.594 2.533-18.81 8.284-23.52 11.76-4.15 3.062-4.062 10.76-13.23 13.23-.318.086-.491-4.574-5.88-2.94-7.247 2.198-23.415 19.34-24.99 19.11-.793-.116-.52-4.405-4.41-4.41-1.601 0-13.711 11.836-16.17 13.23-2.523 1.43-11.753 3.173-16.17 5.88-9.772 5.988-11.164 18.542-27.93 16.17-.424-.06-1.932-4.352-2.206-4.41 29.667-21.847 62.77-38.072 94.816-55.86 1.063-.59 6.615.577 10.29-1.47 4.054-2.256 11.625-13.541 17.64-17.64 1.058-.72 7.758.72 8.82 0 6.678-4.535 14.666-17.443 22.05-20.58 2.527-1.073 19.605-5.758 12.495 2.94"/></svg>